# Blender 5.2.0 LTS
# www.blender.org
mtllib button_04.mtl
o button_04
v 0.037465 1.248880 -0.068730
v 0.032954 1.243290 -0.064131
v 0.032954 1.265940 -0.036577
v 0.037466 1.271540 -0.041176
v 0.056518 1.264670 -0.081715
v 0.037465 1.248880 -0.068730
v 0.037466 1.271540 -0.041176
v 0.056518 1.287330 -0.054161
v 0.038511 1.272700 -0.038503
v 0.057420 1.288370 -0.051390
v 0.056518 1.287330 -0.054161
v 0.037466 1.271540 -0.041176
v 0.034196 1.267350 -0.034107
v 0.038511 1.272700 -0.038503
v 0.037466 1.271540 -0.041176
v 0.032954 1.265940 -0.036577
v 0.057420 1.288370 -0.051390
v 0.061797 1.291180 -0.053700
v 0.061059 1.290240 -0.056556
v 0.056518 1.287330 -0.054161
v 0.061059 1.267590 -0.084110
v 0.056518 1.264670 -0.081715
v 0.056518 1.287330 -0.054161
v 0.061059 1.290240 -0.056556
v 0.061797 1.291180 -0.053700
v 0.067484 1.293560 -0.055658
v 0.066960 1.292710 -0.058587
v 0.061059 1.290240 -0.056556
v 0.066960 1.270060 -0.086142
v 0.061059 1.267590 -0.084110
v 0.061059 1.290240 -0.056556
v 0.066960 1.292710 -0.058587
v 0.073322 1.271710 -0.087499
v 0.066960 1.270060 -0.086142
v 0.066960 1.292710 -0.058587
v 0.073322 1.294360 -0.059945
v 0.079178 1.272290 -0.087975
v 0.073322 1.271710 -0.087499
v 0.073322 1.294360 -0.059945
v 0.079178 1.294940 -0.060421
v 0.073617 1.295150 -0.056968
v 0.079261 1.295710 -0.057429
v 0.079178 1.294940 -0.060421
v 0.073322 1.294360 -0.059945
v 0.067484 1.293560 -0.055658
v 0.073617 1.295150 -0.056968
v 0.073322 1.294360 -0.059945
v 0.066960 1.292710 -0.058587
v 0.079261 1.295710 -0.057429
v 0.105663 1.295710 -0.057432
v 0.105793 1.294940 -0.060421
v 0.079178 1.294940 -0.060421
v 0.105793 1.272290 -0.087975
v 0.079178 1.272290 -0.087975
v 0.079178 1.294940 -0.060421
v 0.105793 1.294940 -0.060421
v 0.105663 1.295710 -0.057432
v 0.113059 1.294570 -0.056484
v 0.113778 1.293690 -0.059396
v 0.105793 1.294940 -0.060421
v 0.113778 1.271040 -0.086950
v 0.105793 1.272290 -0.087975
v 0.105793 1.294940 -0.060421
v 0.113778 1.293690 -0.059396
v 0.119594 1.267490 -0.084031
v 0.113778 1.271040 -0.086950
v 0.113778 1.293690 -0.059396
v 0.119594 1.290150 -0.056477
v 0.122355 1.262180 -0.079662
v 0.119594 1.267490 -0.084031
v 0.119594 1.290150 -0.056477
v 0.122355 1.284830 -0.052108
v 0.118481 1.291300 -0.053763
v 0.121031 1.286330 -0.049714
v 0.122355 1.284830 -0.052108
v 0.119594 1.290150 -0.056477
v 0.113059 1.294570 -0.056484
v 0.118481 1.291300 -0.053763
v 0.119594 1.290150 -0.056477
v 0.113778 1.293690 -0.059396
v 0.121031 1.286330 -0.049714
v 0.120359 1.280520 -0.044952
v 0.121642 1.278560 -0.046954
v 0.122355 1.284830 -0.052108
v 0.121642 1.255910 -0.074508
v 0.122355 1.262180 -0.079662
v 0.122355 1.284830 -0.052108
v 0.121642 1.278560 -0.046954
v 0.120359 1.280520 -0.044952
v 0.097121 1.219740 0.005023
v 0.098331 1.217590 0.003175
v 0.121642 1.278560 -0.046954
v 0.098330 1.194940 -0.024379
v 0.121642 1.255910 -0.074508
v 0.121642 1.278560 -0.046954
v 0.098331 1.217590 0.003175
v 0.094794 1.189630 -0.020011
v 0.098330 1.194940 -0.024379
v 0.098331 1.217590 0.003175
v 0.094794 1.212280 0.007543
v 0.089516 1.187030 -0.017882
v 0.094794 1.189630 -0.020011
v 0.094794 1.212280 0.007543
v 0.089516 1.209690 0.009672
v 0.093932 1.214930 0.009004
v 0.089178 1.212590 0.010915
v 0.089516 1.209690 0.009672
v 0.094794 1.212280 0.007543
v 0.097121 1.219740 0.005023
v 0.093932 1.214930 0.009004
v 0.094794 1.212280 0.007543
v 0.098331 1.217590 0.003175
v 0.089178 1.212590 0.010915
v 0.083581 1.213070 0.010532
v 0.083300 1.210210 0.009240
v 0.089516 1.209690 0.009672
v 0.083300 1.187560 -0.018314
v 0.089516 1.187030 -0.017882
v 0.089516 1.209690 0.009672
v 0.083300 1.210210 0.009240
v 0.083581 1.213070 0.010532
v 0.077966 1.216300 0.007853
v 0.077092 1.213780 0.006312
v 0.083300 1.210210 0.009240
v 0.077092 1.191120 -0.021242
v 0.083300 1.187560 -0.018314
v 0.083300 1.210210 0.009240
v 0.077092 1.213780 0.006312
v 0.037369 1.224450 -0.048646
v 0.077092 1.191120 -0.021242
v 0.077092 1.213780 0.006312
v 0.037370 1.247110 -0.021092
v 0.032902 1.230070 -0.053262
v 0.037369 1.224450 -0.048646
v 0.037370 1.247110 -0.021092
v 0.032902 1.252720 -0.025708
v 0.038415 1.249490 -0.019434
v 0.034144 1.254870 -0.023848
v 0.032902 1.252720 -0.025708
v 0.037370 1.247110 -0.021092
v 0.077966 1.216300 0.007853
v 0.038415 1.249490 -0.019434
v 0.037370 1.247110 -0.021092
v 0.077092 1.213780 0.006312
v 0.034144 1.254870 -0.023848
v 0.032682 1.261110 -0.028980
v 0.031352 1.259340 -0.031146
v 0.032902 1.252720 -0.025708
v 0.031351 1.236680 -0.058700
v 0.032902 1.230070 -0.053262
v 0.032902 1.252720 -0.025708
v 0.031352 1.259340 -0.031146
v 0.032682 1.261110 -0.028980
v 0.034196 1.267350 -0.034107
v 0.032954 1.265940 -0.036577
v 0.031352 1.259340 -0.031146
v 0.032954 1.243290 -0.064131
v 0.031351 1.236680 -0.058700
v 0.031352 1.259340 -0.031146
v 0.032954 1.265940 -0.036577
v 0.034196 1.267350 -0.034107
v 0.032682 1.261110 -0.028980
v 0.039518 1.264640 -0.024649
v 0.040568 1.268980 -0.028216
v 0.032682 1.261110 -0.028980
v 0.034144 1.254870 -0.023848
v 0.040539 1.260310 -0.021080
v 0.039518 1.264640 -0.024649
v 0.040568 1.268980 -0.028216
v 0.039518 1.264640 -0.024649
v 0.042584 1.265330 -0.023806
v 0.043429 1.268810 -0.026670
v 0.039518 1.264640 -0.024649
v 0.040539 1.260310 -0.021080
v 0.043402 1.261840 -0.020939
v 0.042584 1.265330 -0.023806
v 0.040539 1.260310 -0.021080
v 0.043811 1.256200 -0.017701
v 0.046221 1.258300 -0.018026
v 0.043402 1.261840 -0.020939
v 0.034144 1.254870 -0.023848
v 0.038415 1.249490 -0.019434
v 0.043811 1.256200 -0.017701
v 0.040539 1.260310 -0.021080
v 0.043811 1.256200 -0.017701
v 0.082497 1.223750 0.008986
v 0.084582 1.226110 0.008438
v 0.046221 1.258300 -0.018026
v 0.038415 1.249490 -0.019434
v 0.077966 1.216300 0.007853
v 0.082497 1.223750 0.008986
v 0.043811 1.256200 -0.017701
v 0.082497 1.223750 0.008986
v 0.084997 1.221970 0.010381
v 0.086014 1.225070 0.009293
v 0.084582 1.226110 0.008438
v 0.077966 1.216300 0.007853
v 0.083581 1.213070 0.010532
v 0.084997 1.221970 0.010381
v 0.082497 1.223750 0.008986
v 0.084997 1.221970 0.010381
v 0.087457 1.221840 0.010511
v 0.086709 1.225030 0.009323
v 0.086014 1.225070 0.009293
v 0.083581 1.213070 0.010532
v 0.089178 1.212590 0.010915
v 0.087457 1.221840 0.010511
v 0.084997 1.221970 0.010381
v 0.087457 1.221840 0.010511
v 0.089584 1.222790 0.009704
v 0.087312 1.225300 0.009101
v 0.086709 1.225030 0.009323
v 0.089178 1.212590 0.010915
v 0.093932 1.214930 0.009004
v 0.089584 1.222790 0.009704
v 0.087457 1.221840 0.010511
v 0.089584 1.222790 0.009704
v 0.090825 1.225250 0.007758
v 0.088003 1.226720 0.007933
v 0.087312 1.225300 0.009101
v 0.093932 1.214930 0.009004
v 0.097121 1.219740 0.005023
v 0.090825 1.225250 0.007758
v 0.089584 1.222790 0.009704
v 0.090825 1.225250 0.007758
v 0.113696 1.285060 -0.041420
v 0.110747 1.286210 -0.040976
v 0.088003 1.226720 0.007933
v 0.097121 1.219740 0.005023
v 0.120359 1.280520 -0.044952
v 0.113696 1.285060 -0.041420
v 0.090825 1.225250 0.007758
v 0.113696 1.285060 -0.041420
v 0.114283 1.288470 -0.044254
v 0.111206 1.288780 -0.043090
v 0.110747 1.286210 -0.040976
v 0.120359 1.280520 -0.044952
v 0.121031 1.286330 -0.049714
v 0.114283 1.288470 -0.044254
v 0.113696 1.285060 -0.041420
v 0.114283 1.288470 -0.044254
v 0.112999 1.291630 -0.046914
v 0.110397 1.290850 -0.044794
v 0.111206 1.288780 -0.043090
v 0.121031 1.286330 -0.049714
v 0.118481 1.291300 -0.053763
v 0.112999 1.291630 -0.046914
v 0.114283 1.288470 -0.044254
v 0.112999 1.291630 -0.046914
v 0.109404 1.293510 -0.048408
v 0.108054 1.292040 -0.045769
v 0.110397 1.290850 -0.044794
v 0.118481 1.291300 -0.053763
v 0.113059 1.294570 -0.056484
v 0.109404 1.293510 -0.048408
v 0.112999 1.291630 -0.046914
v 0.109404 1.293510 -0.048408
v 0.104989 1.294060 -0.048833
v 0.104731 1.292430 -0.046088
v 0.108054 1.292040 -0.045769
v 0.113059 1.294570 -0.056484
v 0.105663 1.295710 -0.057432
v 0.104989 1.294060 -0.048833
v 0.109404 1.293510 -0.048408
v 0.104989 1.294060 -0.048833
v 0.079691 1.294070 -0.048837
v 0.079883 1.292430 -0.046088
v 0.104731 1.292430 -0.046088
v 0.105663 1.295710 -0.057432
v 0.079261 1.295710 -0.057429
v 0.079691 1.294070 -0.048837
v 0.104989 1.294060 -0.048833
v 0.079691 1.294070 -0.048837
v 0.075129 1.293620 -0.048470
v 0.075807 1.292020 -0.045756
v 0.079883 1.292430 -0.046088
v 0.079261 1.295710 -0.057429
v 0.073617 1.295150 -0.056968
v 0.075129 1.293620 -0.048470
v 0.079691 1.294070 -0.048837
v 0.075129 1.293620 -0.048470
v 0.070175 1.292330 -0.047415
v 0.071383 1.290870 -0.044813
v 0.075807 1.292020 -0.045756
v 0.073617 1.295150 -0.056968
v 0.067484 1.293560 -0.055658
v 0.070175 1.292330 -0.047415
v 0.075129 1.293620 -0.048470
v 0.070175 1.292330 -0.047415
v 0.065580 1.290410 -0.045835
v 0.067280 1.289160 -0.043400
v 0.071383 1.290870 -0.044813
v 0.067484 1.293560 -0.055658
v 0.061797 1.291180 -0.053700
v 0.065580 1.290410 -0.045835
v 0.070175 1.292330 -0.047415
v 0.065580 1.290410 -0.045835
v 0.062042 1.288140 -0.043969
v 0.064119 1.287130 -0.041733
v 0.067280 1.289160 -0.043400
v 0.061797 1.291180 -0.053700
v 0.057420 1.288370 -0.051390
v 0.062042 1.288140 -0.043969
v 0.065580 1.290410 -0.045835
v 0.062042 1.288140 -0.043969
v 0.043869 1.273070 -0.031582
v 0.046276 1.272340 -0.029572
v 0.064119 1.287130 -0.041733
v 0.057420 1.288370 -0.051390
v 0.038511 1.272700 -0.038503
v 0.043869 1.273070 -0.031582
v 0.062042 1.288140 -0.043969
v 0.043869 1.273070 -0.031582
v 0.040568 1.268980 -0.028216
v 0.043429 1.268810 -0.026670
v 0.046276 1.272340 -0.029572
v 0.038511 1.272700 -0.038503
v 0.034196 1.267350 -0.034107
v 0.040568 1.268980 -0.028216
v 0.043869 1.273070 -0.031582
v 0.084582 1.226110 0.008438
v 0.086014 1.225070 0.009293
v 0.086709 1.225030 0.009323
v 0.087312 1.225300 0.009101
v 0.088003 1.226720 0.007933
v 0.110747 1.286210 -0.040976
v 0.111206 1.288780 -0.043090
v 0.110397 1.290850 -0.044794
v 0.108054 1.292040 -0.045769
v 0.104731 1.292430 -0.046088
v 0.079883 1.292430 -0.046088
v 0.075807 1.292020 -0.045756
v 0.071383 1.290870 -0.044813
v 0.067280 1.289160 -0.043400
v 0.064119 1.287130 -0.041733
v 0.046276 1.272340 -0.029572
v 0.043429 1.268810 -0.026670
v 0.042584 1.265330 -0.023806
v 0.043402 1.261840 -0.020939
v 0.046221 1.258300 -0.018026
vn -0.7316 0.5266 -0.4329
vn -0.9325 0.2789 -0.2293
vn -0.9320 0.3003 -0.2030
vn -0.7316 0.5266 -0.4330
vn -0.7317 0.5266 -0.4328
vn -0.5501 0.8019 0.2332
vn -0.5195 0.8278 0.2119
vn -0.7316 0.5267 -0.4329
vn -0.6770 0.6406 0.3624
vn -0.4042 0.9031 0.1450
vn -0.5549 0.6635 -0.5018
vn -0.5552 0.6425 -0.5282
vn -0.2905 0.9511 0.1050
vn -0.3987 0.7293 -0.5560
vn -0.3989 0.7083 -0.5824
vn -0.2300 0.7517 -0.6181
vn -0.2298 0.7727 -0.5917
vn -0.0000 0.7724 -0.6351
vn -0.0000 0.7725 -0.6350
vn -0.1674 0.9827 0.0796
vn -0.0157 0.9973 0.0724
vn -0.2905 0.9511 0.1051
vn -0.1674 0.9827 0.0797
vn 0.0278 0.9972 0.0694
vn 0.2906 0.9511 0.1042
vn 0.4101 0.7258 -0.5523
vn 0.4104 0.7044 -0.5791
vn 0.0001 0.7724 -0.6351
vn 0.8010 0.4624 -0.3802
vn 0.4105 0.7044 -0.5791
vn 0.8005 0.4846 -0.3527
vn 0.9908 0.1046 -0.0859
vn 0.8011 0.4624 -0.3802
vn 0.9902 0.1262 -0.0595
vn 0.5759 0.7739 0.2636
vn 0.7234 0.5038 0.4721
vn 0.2906 0.9511 0.1043
vn 0.5759 0.7739 0.2635
vn 0.6133 0.3484 0.7088
vn 0.9591 -0.2187 0.1799
vn 0.9591 -0.2187 0.1798
vn 0.9908 0.1045 -0.0859
vn 0.9902 0.1261 -0.0595
vn 0.9591 -0.2186 0.1799
vn 0.6133 0.3484 0.7089
vn 0.9590 -0.2188 0.1800
vn 0.9590 -0.2188 0.1798
vn 0.9590 -0.2188 0.1799
vn 0.9591 -0.2188 0.1798
vn 0.7576 -0.5042 0.4145
vn 0.9590 -0.2189 0.1799
vn 0.9590 -0.2189 0.1800
vn 0.7572 -0.4820 0.4409
vn 0.2264 -0.7524 0.6186
vn 0.7576 -0.5042 0.4146
vn 0.7571 -0.4821 0.4410
vn 0.2264 -0.7283 0.6468
vn 0.5555 0.0745 0.8282
vn 0.1596 -0.0797 0.9840
vn 0.2263 -0.7283 0.6468
vn 0.7571 -0.4820 0.4409
vn 0.5555 0.0746 0.8282
vn -0.2919 -0.0777 0.9533
vn -0.3917 -0.6882 0.6107
vn -0.3919 -0.7107 0.5843
vn -0.4704 0.1537 0.8690
vn -0.7357 -0.5231 0.4302
vn -0.7357 -0.5232 0.4301
vn -0.9347 -0.2745 0.2257
vn -0.7358 -0.5231 0.4301
vn -0.7357 -0.5231 0.4301
vn -0.9335 -0.2542 0.2528
vn -0.4705 0.1538 0.8689
vn -0.6786 0.2349 0.6960
vn -0.9336 -0.2541 0.2528
vn -0.7357 -0.5231 0.4303
vn -0.6786 0.2349 0.6959
vn -0.7286 0.4366 0.5277
vn -0.9994 0.0238 0.0242
vn -1.0000 0.0024 -0.0018
vn -0.7286 0.4367 0.5277
vn -0.9326 0.2789 -0.2292
vn -1.0000 0.0024 -0.0019
vn -0.5746 0.5211 0.6311
vn -0.5323 0.6829 0.5003
vn -0.6785 0.2349 0.6960
vn -0.5336 0.3613 0.7647
vn -0.5323 0.6829 0.5004
vn -0.0001 0.6351 0.7724
vn -0.0001 0.6352 0.7724
vn -0.0001 0.6350 0.7725
vn -0.4703 0.1540 0.8690
vn -0.5336 0.3612 0.7647
vn -0.4703 0.1541 0.8690
vn -0.4707 0.1537 0.8688
vn -0.4704 0.1539 0.8690
vn -0.4701 0.1542 0.8690
vn -0.4703 0.1539 0.8690
vn -0.2389 0.1109 0.9647
vn -0.0000 0.6350 0.7725
vn -0.2919 -0.0775 0.9533
vn -0.2390 0.1109 0.9647
vn 0.1270 0.1039 0.9864
vn -0.2919 -0.0776 0.9533
vn 0.1595 -0.0797 0.9840
vn 0.1270 0.1039 0.9865
vn 0.4469 0.2340 0.8634
vn 0.0001 0.6350 0.7725
vn 0.5554 0.0746 0.8282
vn 0.1271 0.1039 0.9864
vn 0.4469 0.2341 0.8634
vn 0.6131 0.3485 0.7090
vn 0.5555 0.0747 0.8282
vn 0.4470 0.2340 0.8634
vn 0.0001 0.6351 0.7724
vn 0.0001 0.6351 0.7725
vn 0.6135 0.3484 0.7087
vn 0.6132 0.3484 0.7089
vn 0.6130 0.3486 0.7090
vn 0.5734 0.5685 0.5899
vn 0.0002 0.6351 0.7724
vn 0.4531 0.7853 0.4219
vn 0.4530 0.7853 0.4219
vn 0.2242 0.9294 0.2933
vn -0.0000 0.6352 0.7724
vn 0.0001 0.6352 0.7724
vn 0.2906 0.9511 0.1044
vn 0.0186 0.9620 0.2725
vn -0.0000 0.6353 0.7723
vn 0.2241 0.9294 0.2933
vn -0.0118 0.9613 0.2753
vn -0.0000 0.6352 0.7723
vn -0.1317 0.9511 0.2795
vn -0.0157 0.9972 0.0724
vn -0.1317 0.9511 0.2796
vn -0.2286 0.9263 0.2995
vn -0.3178 0.8885 0.3310
vn -0.4074 0.8281 0.3850
vn -0.0000 0.6351 0.7724
vn -0.4042 0.9031 0.1451
vn -0.4075 0.8281 0.3850
vn -0.4303 0.8089 0.4006
vn -0.5501 0.8019 0.2333
vn 0.0003 0.6352 0.7724
vn 0.0002 0.6350 0.7725
vn 0.0002 0.6352 0.7724
vn 0.0003 0.6349 0.7726
vt 0.694587 0.102077
vt 0.687665 0.102077
vt 0.687665 0.131019
vt 0.694587 0.131019
vt 0.717261 0.102077
vt 0.717261 0.131019
vt 0.319535 0.014720
vt 0.341073 0.024913
vt 0.342498 0.022545
vt 0.320357 0.012106
vt 0.312742 0.013342
vt 0.312818 0.010644
vt 0.345113 0.027747
vt 0.346886 0.025657
vt 0.722051 0.102077
vt 0.722051 0.131019
vt 0.349024 0.031792
vt 0.351186 0.030015
vt 0.727496 0.102077
vt 0.727496 0.131019
vt 0.732942 0.102077
vt 0.732942 0.131019
vt 0.737732 0.102077
vt 0.737732 0.131019
vt 0.352235 0.036406
vt 0.354231 0.040902
vt 0.356816 0.039967
vt 0.354622 0.035076
vt 0.359726 0.062731
vt 0.362452 0.062491
vt 0.759326 0.102077
vt 0.759326 0.131019
vt 0.359521 0.069052
vt 0.362152 0.069868
vt 0.765935 0.102077
vt 0.765935 0.131019
vt 0.771950 0.102077
vt 0.771950 0.131019
vt 0.777965 0.102077
vt 0.777965 0.131019
vt 0.357150 0.074181
vt 0.352763 0.077707
vt 0.354172 0.080036
vt 0.359261 0.075837
vt 0.346771 0.079448
vt 0.347200 0.082055
vt 0.784574 0.102077
vt 0.784574 0.131019
vt 0.280266 0.079409
vt 0.279775 0.082055
vt 0.851350 0.102077
vt 0.851350 0.131019
vt 0.857624 0.102077
vt 0.857624 0.131019
vt 0.862698 0.102077
vt 0.862698 0.131019
vt 0.274706 0.077622
vt 0.271339 0.074490
vt 0.268982 0.075881
vt 0.273064 0.079878
vt 0.270231 0.070020
vt 0.267447 0.070364
vt 0.612765 0.102077
vt 0.607691 0.102077
vt 0.607691 0.131019
vt 0.612765 0.131019
vt 0.271387 0.064261
vt 0.268803 0.063382
vt 0.619039 0.102077
vt 0.619039 0.131019
vt 0.666624 0.102077
vt 0.666624 0.131019
vt 0.673546 0.102077
vt 0.673546 0.131019
vt 0.294995 0.022376
vt 0.299724 0.017438
vt 0.298128 0.015295
vt 0.292888 0.020752
vt 0.305899 0.014362
vt 0.305060 0.011704
vt 0.680605 0.102077
vt 0.680605 0.131019
vt 0.308016 0.021124
vt 0.312480 0.020518
vt 0.304011 0.023157
vt 0.308763 0.023532
vt 0.312333 0.023108
vt 0.305585 0.025196
vt 0.300684 0.026864
vt 0.302771 0.028382
vt 0.278103 0.066532
vt 0.280394 0.067586
vt 0.277143 0.068978
vt 0.279750 0.068955
vt 0.277605 0.070810
vt 0.279875 0.069472
vt 0.278984 0.072102
vt 0.280271 0.069830
vt 0.281584 0.072453
vt 0.281790 0.069943
vt 0.345578 0.072423
vt 0.345338 0.069897
vt 0.349010 0.071805
vt 0.347915 0.069530
vt 0.351771 0.069989
vt 0.349711 0.068392
vt 0.352854 0.066856
vt 0.350358 0.066360
vt 0.352608 0.063360
vt 0.350081 0.063772
vt 0.347278 0.043508
vt 0.344791 0.044386
vt 0.345779 0.040014
vt 0.343462 0.041297
vt 0.343328 0.036483
vt 0.341298 0.038157
vt 0.340332 0.033396
vt 0.338625 0.035433
vt 0.337183 0.031246
vt 0.335845 0.033541
vt 0.317369 0.021697
vt 0.316482 0.024178
s 1
f 1/1/1 2/2/2 3/3/3
f 1/1/1 3/3/3 4/4/1
f 5/5/4 6/1/5 7/4/4
f 5/5/4 7/4/4 8/6/4
f 9/7/6 10/8/7 11/9/8
f 9/7/6 11/9/8 12/10/8
f 13/11/9 14/7/6 15/10/8
f 13/11/9 15/10/8 16/12/3
f 17/8/7 18/13/10 19/14/11
f 17/8/7 19/14/11 20/9/8
f 21/15/12 22/5/4 23/6/8
f 21/15/12 23/6/8 24/16/11
f 25/13/10 26/17/13 27/18/14
f 25/13/10 27/18/14 28/14/11
f 29/19/15 30/15/12 31/16/11
f 29/19/15 31/16/11 32/20/14
f 33/21/16 34/19/15 35/20/14
f 33/21/16 35/20/14 36/22/17
f 37/23/18 38/21/16 39/22/17
f 37/23/18 39/22/17 40/24/19
f 41/25/20 42/26/21 43/27/19
f 41/25/20 43/27/19 44/28/17
f 45/17/22 46/25/23 47/28/17
f 45/17/22 47/28/17 48/18/14
f 49/26/21 50/29/24 51/30/19
f 49/26/21 51/30/19 52/27/19
f 53/31/19 54/23/19 55/24/19
f 53/31/19 55/24/19 56/32/19
f 57/29/24 58/33/25 59/34/26
f 57/29/24 59/34/26 60/30/19
f 61/35/27 62/31/28 63/32/19
f 61/35/27 63/32/19 64/36/26
f 65/37/29 66/35/30 67/36/26
f 65/37/29 67/36/26 68/38/31
f 69/39/32 70/37/33 71/38/31
f 69/39/32 71/38/31 72/40/34
f 73/41/35 74/42/36 75/43/34
f 73/41/35 75/43/34 76/44/31
f 77/33/37 78/41/38 79/44/31
f 77/33/37 79/44/31 80/34/26
f 81/42/36 82/45/39 83/46/40
f 81/42/36 83/46/40 84/43/34
f 85/47/41 86/39/42 87/40/43
f 85/47/41 87/40/43 88/48/44
f 89/45/39 90/49/45 91/50/46
f 89/45/39 91/50/46 92/46/40
f 93/51/47 94/47/48 95/48/48
f 93/51/47 95/48/48 96/52/49
f 97/53/50 98/51/51 99/52/52
f 97/53/50 99/52/52 100/54/53
f 101/55/54 102/53/55 103/54/56
f 101/55/54 103/54/56 104/56/57
f 105/57/58 106/58/59 107/59/60
f 105/57/58 107/59/60 108/60/61
f 109/49/45 110/57/62 111/60/61
f 109/49/45 111/60/61 112/50/46
f 113/58/59 114/61/63 115/62/64
f 113/58/59 115/62/64 116/59/60
f 117/63/65 118/64/54 119/65/60
f 117/63/65 119/65/60 120/66/64
f 121/61/63 122/67/66 123/68/67
f 121/61/63 123/68/67 124/62/64
f 125/69/68 126/63/65 127/66/64
f 125/69/68 127/66/64 128/70/67
f 129/71/67 130/69/67 131/70/67
f 129/71/67 131/70/67 132/72/67
f 133/73/69 134/71/70 135/72/71
f 133/73/69 135/72/71 136/74/72
f 137/75/73 138/76/74 139/77/75
f 137/75/73 139/77/75 140/78/67
f 141/67/66 142/75/73 143/78/67
f 141/67/66 143/78/67 144/68/76
f 145/76/77 146/79/78 147/80/79
f 145/76/77 147/80/79 148/77/75
f 149/81/80 150/73/69 151/74/75
f 149/81/80 151/74/75 152/82/79
f 153/79/81 154/11/9 155/12/3
f 153/79/81 155/12/3 156/80/79
f 157/2/82 158/81/83 159/82/79
f 157/2/82 159/82/79 160/3/3
f 161/11/9 162/79/81 163/83/84
f 161/11/9 163/83/84 164/84/85
f 165/79/81 166/76/86 167/85/87
f 165/79/81 167/85/87 168/83/84
f 169/84/88 170/83/84 171/86/89
f 169/84/88 171/86/89 172/87/90
f 173/83/84 174/85/87 175/88/91
f 173/83/84 175/88/91 176/86/89
f 177/85/87 178/89/92 179/90/91
f 177/85/87 179/90/91 180/88/91
f 181/76/86 182/75/73 183/89/92
f 181/76/86 183/89/92 184/85/93
f 185/89/94 186/91/92 187/92/91
f 185/89/94 187/92/91 188/90/91
f 189/75/95 190/67/96 191/91/96
f 189/75/95 191/91/96 192/89/97
f 193/91/98 194/93/99 195/94/100
f 193/91/98 195/94/100 196/92/91
f 197/67/66 198/61/101 199/93/102
f 197/67/66 199/93/102 200/91/98
f 201/93/99 202/95/103 203/96/100
f 201/93/99 203/96/100 204/94/100
f 205/61/104 206/58/105 207/95/106
f 205/61/104 207/95/106 208/93/99
f 209/95/103 210/97/107 211/98/108
f 209/95/103 211/98/108 212/96/100
f 213/58/59 214/57/109 215/97/107
f 213/58/59 215/97/107 216/95/110
f 217/97/111 218/99/112 219/100/108
f 217/97/111 219/100/108 220/98/108
f 221/57/113 222/49/45 223/99/112
f 221/57/113 223/99/112 224/97/114
f 225/99/112 226/101/112 227/102/115
f 225/99/112 227/102/115 228/100/116
f 229/49/112 230/45/117 231/101/118
f 229/49/112 231/101/118 232/99/119
f 233/101/112 234/103/120 235/104/121
f 233/101/112 235/104/121 236/102/121
f 237/45/39 238/42/36 239/103/120
f 237/45/39 239/103/120 240/101/112
f 241/103/120 242/105/122 243/106/115
f 241/103/120 243/106/115 244/104/115
f 245/42/36 246/41/35 247/105/122
f 245/42/36 247/105/122 248/103/120
f 249/105/123 250/107/124 251/108/125
f 249/105/123 251/108/125 252/106/126
f 253/41/35 254/33/127 255/107/124
f 253/41/35 255/107/124 256/105/122
f 257/107/124 258/109/128 259/110/129
f 257/107/124 259/110/129 260/108/125
f 261/33/37 262/29/24 263/109/128
f 261/33/37 263/109/128 264/107/130
f 265/109/128 266/111/131 267/112/129
f 265/109/128 267/112/129 268/110/132
f 269/29/24 270/26/21 271/111/131
f 269/29/24 271/111/131 272/109/128
f 273/111/131 274/113/133 275/114/132
f 273/111/131 275/114/132 276/112/132
f 277/26/134 278/25/23 279/113/133
f 277/26/134 279/113/133 280/111/131
f 281/113/135 282/115/136 283/116/132
f 281/113/135 283/116/132 284/114/132
f 285/25/23 286/17/22 287/115/136
f 285/25/23 287/115/136 288/113/133
f 289/115/136 290/117/137 291/118/125
f 289/115/136 291/118/125 292/116/132
f 293/17/22 294/13/10 295/117/137
f 293/17/22 295/117/137 296/115/136
f 297/117/137 298/119/138 299/120/89
f 297/117/137 299/120/89 300/118/139
f 301/13/140 302/8/7 303/119/141
f 301/13/140 303/119/141 304/117/137
f 305/119/141 306/121/142 307/122/89
f 305/119/141 307/122/89 308/120/89
f 309/8/7 310/7/6 311/121/142
f 309/8/7 311/121/142 312/119/141
f 313/121/142 314/84/85 315/87/90
f 313/121/142 315/87/90 316/122/89
f 317/7/143 318/11/9 319/84/85
f 317/7/143 319/84/85 320/121/142
f 339/88/144 340/90/91 321/92/91
f 321/92/91 322/94/100 323/96/100
f 323/96/100 324/98/108 325/100/145
f 325/100/145 326/102/115 327/104/146
f 327/104/146 328/106/115 329/108/139
f 329/108/139 330/110/132 331/112/91
f 331/112/91 332/114/125 333/116/125
f 333/116/125 334/118/139 335/120/108
f 335/120/108 336/122/147 337/87/121
f 337/87/121 338/86/139 339/88/144
f 339/88/144 321/92/91 323/96/100
f 323/96/100 325/100/145 327/104/146
f 327/104/146 329/108/139 331/112/91
f 331/112/91 333/116/125 335/120/108
f 335/120/108 337/87/121 339/88/144
f 339/88/144 323/96/100 327/104/146
f 327/104/146 331/112/91 335/120/108
f 335/120/108 339/88/144 327/104/146
