# Blender 5.2.0 LTS
# www.blender.org
mtllib button_03.mtl
o button_03
v -0.037457 1.248880 -0.068730
v -0.037456 1.271540 -0.041176
v -0.032945 1.265940 -0.036577
v -0.032945 1.243290 -0.064131
v -0.056509 1.264670 -0.081714
v -0.056509 1.287330 -0.054160
v -0.037456 1.271540 -0.041176
v -0.037457 1.248880 -0.068730
v -0.038502 1.272700 -0.038503
v -0.037456 1.271540 -0.041176
v -0.056509 1.287330 -0.054160
v -0.057411 1.288370 -0.051390
v -0.034187 1.267350 -0.034107
v -0.032945 1.265940 -0.036577
v -0.037456 1.271540 -0.041176
v -0.038502 1.272700 -0.038503
v -0.057411 1.288370 -0.051390
v -0.056509 1.287330 -0.054160
v -0.061050 1.290240 -0.056556
v -0.061788 1.291180 -0.053699
v -0.061050 1.267590 -0.084110
v -0.061050 1.290240 -0.056556
v -0.056509 1.287330 -0.054160
v -0.056509 1.264670 -0.081714
v -0.061788 1.291180 -0.053699
v -0.061050 1.290240 -0.056556
v -0.066950 1.292710 -0.058587
v -0.067475 1.293560 -0.055658
v -0.066951 1.270060 -0.086141
v -0.066950 1.292710 -0.058587
v -0.061050 1.290240 -0.056556
v -0.061050 1.267590 -0.084110
v -0.073313 1.271710 -0.087498
v -0.073313 1.294360 -0.059944
v -0.066950 1.292710 -0.058587
v -0.066951 1.270060 -0.086141
v -0.079169 1.272290 -0.087975
v -0.079169 1.294940 -0.060421
v -0.073313 1.294360 -0.059944
v -0.073313 1.271710 -0.087498
v -0.073607 1.295150 -0.056967
v -0.073313 1.294360 -0.059944
v -0.079169 1.294940 -0.060421
v -0.079252 1.295710 -0.057429
v -0.067475 1.293560 -0.055658
v -0.066950 1.292710 -0.058587
v -0.073313 1.294360 -0.059944
v -0.073607 1.295150 -0.056967
v -0.079252 1.295710 -0.057429
v -0.079169 1.294940 -0.060421
v -0.105784 1.294940 -0.060421
v -0.105654 1.295710 -0.057432
v -0.105784 1.272290 -0.087975
v -0.105784 1.294940 -0.060421
v -0.079169 1.294940 -0.060421
v -0.079169 1.272290 -0.087975
v -0.105654 1.295710 -0.057432
v -0.105784 1.294940 -0.060421
v -0.113769 1.293700 -0.059396
v -0.113049 1.294570 -0.056483
v -0.113769 1.271040 -0.086950
v -0.113769 1.293700 -0.059396
v -0.105784 1.294940 -0.060421
v -0.105784 1.272290 -0.087975
v -0.119585 1.267490 -0.084030
v -0.119585 1.290150 -0.056476
v -0.113769 1.293700 -0.059396
v -0.113769 1.271040 -0.086950
v -0.122346 1.262180 -0.079661
v -0.122346 1.284830 -0.052107
v -0.119585 1.290150 -0.056476
v -0.119585 1.267490 -0.084030
v -0.118471 1.291300 -0.053763
v -0.119585 1.290150 -0.056476
v -0.122346 1.284830 -0.052107
v -0.121022 1.286340 -0.049713
v -0.113049 1.294570 -0.056483
v -0.113769 1.293700 -0.059396
v -0.119585 1.290150 -0.056476
v -0.118471 1.291300 -0.053763
v -0.121022 1.286340 -0.049713
v -0.122346 1.284830 -0.052107
v -0.121633 1.278560 -0.046953
v -0.120350 1.280520 -0.044951
v -0.121633 1.255910 -0.074507
v -0.121633 1.278560 -0.046953
v -0.122346 1.284830 -0.052107
v -0.122346 1.262180 -0.079661
v -0.120350 1.280520 -0.044951
v -0.121633 1.278560 -0.046953
v -0.098322 1.217590 0.003176
v -0.097112 1.219740 0.005024
v -0.098322 1.194940 -0.024378
v -0.098322 1.217590 0.003176
v -0.121633 1.278560 -0.046953
v -0.121633 1.255910 -0.074507
v -0.094785 1.189630 -0.020011
v -0.094785 1.212280 0.007543
v -0.098322 1.217590 0.003176
v -0.098322 1.194940 -0.024378
v -0.089507 1.187040 -0.017881
v -0.089507 1.209690 0.009673
v -0.094785 1.212280 0.007543
v -0.094785 1.189630 -0.020011
v -0.093923 1.214930 0.009004
v -0.094785 1.212280 0.007543
v -0.089507 1.209690 0.009673
v -0.089169 1.212590 0.010916
v -0.097112 1.219740 0.005024
v -0.098322 1.217590 0.003176
v -0.094785 1.212280 0.007543
v -0.093923 1.214930 0.009004
v -0.089169 1.212590 0.010916
v -0.089507 1.209690 0.009673
v -0.083291 1.210220 0.009241
v -0.083572 1.213070 0.010533
v -0.083291 1.187560 -0.018313
v -0.083291 1.210220 0.009241
v -0.089507 1.209690 0.009673
v -0.089507 1.187040 -0.017881
v -0.083572 1.213070 0.010533
v -0.083291 1.210220 0.009241
v -0.077083 1.213780 0.006312
v -0.077957 1.216300 0.007853
v -0.077084 1.191120 -0.021242
v -0.077083 1.213780 0.006312
v -0.083291 1.210220 0.009241
v -0.083291 1.187560 -0.018313
v -0.037361 1.224450 -0.048646
v -0.037361 1.247110 -0.021092
v -0.077083 1.213780 0.006312
v -0.077084 1.191120 -0.021242
v -0.032893 1.230070 -0.053262
v -0.032893 1.252720 -0.025708
v -0.037361 1.247110 -0.021092
v -0.037361 1.224450 -0.048646
v -0.038406 1.249500 -0.019434
v -0.037361 1.247110 -0.021092
v -0.032893 1.252720 -0.025708
v -0.034135 1.254870 -0.023848
v -0.077957 1.216300 0.007853
v -0.077083 1.213780 0.006312
v -0.037361 1.247110 -0.021092
v -0.038406 1.249500 -0.019434
v -0.034135 1.254870 -0.023848
v -0.032893 1.252720 -0.025708
v -0.031342 1.259340 -0.031146
v -0.032673 1.261110 -0.028980
v -0.031343 1.236680 -0.058700
v -0.031342 1.259340 -0.031146
v -0.032893 1.252720 -0.025708
v -0.032893 1.230070 -0.053262
v -0.032673 1.261110 -0.028980
v -0.031342 1.259340 -0.031146
v -0.032945 1.265940 -0.036577
v -0.034187 1.267350 -0.034107
v -0.032945 1.243290 -0.064131
v -0.032945 1.265940 -0.036577
v -0.031342 1.259340 -0.031146
v -0.031343 1.236680 -0.058700
v -0.034187 1.267350 -0.034107
v -0.040559 1.268980 -0.028216
v -0.039509 1.264640 -0.024649
v -0.032673 1.261110 -0.028980
v -0.032673 1.261110 -0.028980
v -0.039509 1.264640 -0.024649
v -0.040529 1.260310 -0.021079
v -0.034135 1.254870 -0.023848
v -0.040559 1.268980 -0.028216
v -0.043420 1.268810 -0.026670
v -0.042575 1.265330 -0.023806
v -0.039509 1.264640 -0.024649
v -0.039509 1.264640 -0.024649
v -0.042575 1.265330 -0.023806
v -0.043392 1.261840 -0.020939
v -0.040529 1.260310 -0.021079
v -0.040529 1.260310 -0.021079
v -0.043392 1.261840 -0.020939
v -0.046212 1.258300 -0.018026
v -0.043802 1.256200 -0.017701
v -0.034135 1.254870 -0.023848
v -0.040529 1.260310 -0.021079
v -0.043802 1.256200 -0.017701
v -0.038406 1.249500 -0.019434
v -0.043802 1.256200 -0.017701
v -0.046212 1.258300 -0.018026
v -0.084573 1.226110 0.008439
v -0.082489 1.223750 0.008987
v -0.038406 1.249500 -0.019434
v -0.043802 1.256200 -0.017701
v -0.082489 1.223750 0.008987
v -0.077957 1.216300 0.007853
v -0.082489 1.223750 0.008987
v -0.084573 1.226110 0.008439
v -0.086005 1.225070 0.009293
v -0.084989 1.221970 0.010382
v -0.077957 1.216300 0.007853
v -0.082489 1.223750 0.008987
v -0.084989 1.221970 0.010382
v -0.083572 1.213070 0.010533
v -0.084989 1.221970 0.010382
v -0.086005 1.225070 0.009293
v -0.086700 1.225030 0.009324
v -0.087448 1.221840 0.010512
v -0.083572 1.213070 0.010533
v -0.084989 1.221970 0.010382
v -0.087448 1.221840 0.010512
v -0.089169 1.212590 0.010916
v -0.087448 1.221840 0.010512
v -0.086700 1.225030 0.009324
v -0.087303 1.225300 0.009102
v -0.089575 1.222800 0.009704
v -0.089169 1.212590 0.010916
v -0.087448 1.221840 0.010512
v -0.089575 1.222800 0.009704
v -0.093923 1.214930 0.009004
v -0.089575 1.222800 0.009704
v -0.087303 1.225300 0.009102
v -0.087994 1.226720 0.007933
v -0.090816 1.225250 0.007759
v -0.093923 1.214930 0.009004
v -0.089575 1.222800 0.009704
v -0.090816 1.225250 0.007759
v -0.097112 1.219740 0.005024
v -0.090816 1.225250 0.007759
v -0.087994 1.226720 0.007933
v -0.110737 1.286210 -0.040975
v -0.113687 1.285060 -0.041419
v -0.097112 1.219740 0.005024
v -0.090816 1.225250 0.007759
v -0.113687 1.285060 -0.041419
v -0.120350 1.280520 -0.044951
v -0.113687 1.285060 -0.041419
v -0.110737 1.286210 -0.040975
v -0.111196 1.288780 -0.043090
v -0.114274 1.288470 -0.044253
v -0.120350 1.280520 -0.044951
v -0.113687 1.285060 -0.041419
v -0.114274 1.288470 -0.044253
v -0.121022 1.286340 -0.049713
v -0.114274 1.288470 -0.044253
v -0.111196 1.288780 -0.043090
v -0.110388 1.290850 -0.044793
v -0.112990 1.291630 -0.046913
v -0.121022 1.286340 -0.049713
v -0.114274 1.288470 -0.044253
v -0.112990 1.291630 -0.046913
v -0.118471 1.291300 -0.053763
v -0.112990 1.291630 -0.046913
v -0.110388 1.290850 -0.044793
v -0.108045 1.292040 -0.045768
v -0.109394 1.293510 -0.048407
v -0.118471 1.291300 -0.053763
v -0.112990 1.291630 -0.046913
v -0.109394 1.293510 -0.048407
v -0.113049 1.294570 -0.056483
v -0.109394 1.293510 -0.048407
v -0.108045 1.292040 -0.045768
v -0.104721 1.292430 -0.046087
v -0.104980 1.294070 -0.048832
v -0.113049 1.294570 -0.056483
v -0.109394 1.293510 -0.048407
v -0.104980 1.294070 -0.048832
v -0.105654 1.295710 -0.057432
v -0.104980 1.294070 -0.048832
v -0.104721 1.292430 -0.046087
v -0.079874 1.292430 -0.046088
v -0.079681 1.294070 -0.048837
v -0.105654 1.295710 -0.057432
v -0.104980 1.294070 -0.048832
v -0.079681 1.294070 -0.048837
v -0.079252 1.295710 -0.057429
v -0.079681 1.294070 -0.048837
v -0.079874 1.292430 -0.046088
v -0.075798 1.292020 -0.045756
v -0.075119 1.293620 -0.048469
v -0.079252 1.295710 -0.057429
v -0.079681 1.294070 -0.048837
v -0.075119 1.293620 -0.048469
v -0.073607 1.295150 -0.056967
v -0.075119 1.293620 -0.048469
v -0.075798 1.292020 -0.045756
v -0.071374 1.290880 -0.044812
v -0.070165 1.292330 -0.047415
v -0.073607 1.295150 -0.056967
v -0.075119 1.293620 -0.048469
v -0.070165 1.292330 -0.047415
v -0.067475 1.293560 -0.055658
v -0.070165 1.292330 -0.047415
v -0.071374 1.290880 -0.044812
v -0.067271 1.289160 -0.043400
v -0.065571 1.290410 -0.045835
v -0.067475 1.293560 -0.055658
v -0.070165 1.292330 -0.047415
v -0.065571 1.290410 -0.045835
v -0.061788 1.291180 -0.053699
v -0.065571 1.290410 -0.045835
v -0.067271 1.289160 -0.043400
v -0.064110 1.287130 -0.041732
v -0.062032 1.288140 -0.043968
v -0.061788 1.291180 -0.053699
v -0.065571 1.290410 -0.045835
v -0.062032 1.288140 -0.043968
v -0.057411 1.288370 -0.051390
v -0.062032 1.288140 -0.043968
v -0.064110 1.287130 -0.041732
v -0.046267 1.272340 -0.029572
v -0.043859 1.273070 -0.031582
v -0.057411 1.288370 -0.051390
v -0.062032 1.288140 -0.043968
v -0.043859 1.273070 -0.031582
v -0.038502 1.272700 -0.038503
v -0.043859 1.273070 -0.031582
v -0.046267 1.272340 -0.029572
v -0.043420 1.268810 -0.026670
v -0.040559 1.268980 -0.028216
v -0.038502 1.272700 -0.038503
v -0.043859 1.273070 -0.031582
v -0.040559 1.268980 -0.028216
v -0.034187 1.267350 -0.034107
v -0.084573 1.226110 0.008439
v -0.046212 1.258300 -0.018026
v -0.043392 1.261840 -0.020939
v -0.042575 1.265330 -0.023806
v -0.043420 1.268810 -0.026670
v -0.046267 1.272340 -0.029572
v -0.064110 1.287130 -0.041732
v -0.067271 1.289160 -0.043400
v -0.071374 1.290880 -0.044812
v -0.075798 1.292020 -0.045756
v -0.079874 1.292430 -0.046088
v -0.104721 1.292430 -0.046087
v -0.108045 1.292040 -0.045768
v -0.110388 1.290850 -0.044793
v -0.111196 1.288780 -0.043090
v -0.110737 1.286210 -0.040975
v -0.087994 1.226720 0.007933
v -0.087303 1.225300 0.009102
v -0.086700 1.225030 0.009324
v -0.086005 1.225070 0.009293
vn 0.7316 0.5266 -0.4330
vn 0.7317 0.5266 -0.4329
vn 0.9313 0.3016 -0.2040
vn 0.9325 0.2790 -0.2293
vn 0.7315 0.5266 -0.4331
vn 0.7316 0.5267 -0.4328
vn 0.7316 0.5266 -0.4331
vn 0.5501 0.8019 0.2332
vn 0.7316 0.5266 -0.4329
vn 0.5196 0.8277 0.2119
vn 0.6770 0.6406 0.3623
vn 0.9314 0.3016 -0.2039
vn 0.5549 0.6635 -0.5018
vn 0.4042 0.9031 0.1450
vn 0.5552 0.6425 -0.5282
vn 0.3987 0.7293 -0.5560
vn 0.2906 0.9511 0.1050
vn 0.3989 0.7083 -0.5824
vn 0.2300 0.7517 -0.6181
vn 0.2299 0.7727 -0.5917
vn -0.0000 0.7724 -0.6351
vn -0.0000 0.7725 -0.6350
vn 0.1674 0.9827 0.0796
vn 0.0158 0.9972 0.0724
vn 0.2906 0.9511 0.1049
vn -0.0278 0.9972 0.0694
vn -0.4101 0.7258 -0.5523
vn -0.2906 0.9511 0.1042
vn -0.4104 0.7044 -0.5791
vn -0.0001 0.7724 -0.6351
vn -0.8010 0.4624 -0.3802
vn -0.8005 0.4846 -0.3527
vn -0.9908 0.1045 -0.0859
vn -0.9902 0.1261 -0.0594
vn -0.8005 0.4845 -0.3527
vn -0.8011 0.4624 -0.3802
vn -0.5758 0.7739 0.2636
vn -0.7234 0.5038 0.4721
vn -0.2907 0.9511 0.1043
vn -0.9591 -0.2187 0.1799
vn -0.6132 0.3484 0.7089
vn -0.9591 -0.2187 0.1798
vn -0.9590 -0.2188 0.1800
vn -0.6133 0.3484 0.7089
vn -0.9591 -0.2188 0.1799
vn -0.7576 -0.5042 0.4146
vn -0.7571 -0.4820 0.4410
vn -0.2265 -0.7524 0.6186
vn -0.2265 -0.7283 0.6467
vn -0.5555 0.0746 0.8282
vn -0.2264 -0.7283 0.6467
vn -0.1596 -0.0797 0.9840
vn 0.3917 -0.6883 0.6106
vn 0.2919 -0.0776 0.9533
vn 0.3918 -0.7107 0.5843
vn 0.7357 -0.5231 0.4303
vn 0.4705 0.1537 0.8689
vn 0.7357 -0.5232 0.4301
vn 0.7356 -0.5231 0.4303
vn 0.3919 -0.7106 0.5843
vn 0.7357 -0.5231 0.4302
vn 0.9347 -0.2745 0.2257
vn 0.9342 -0.2529 0.2517
vn 0.7358 -0.5230 0.4301
vn 0.4705 0.1538 0.8689
vn 0.6786 0.2349 0.6959
vn 0.4704 0.1537 0.8690
vn 0.9994 0.0238 0.0241
vn 0.7287 0.4366 0.5276
vn 1.0000 0.0023 -0.0019
vn 0.9994 0.0237 0.0241
vn 0.7287 0.4367 0.5276
vn 0.9314 0.3016 -0.2040
vn 0.6770 0.6406 0.3624
vn 0.9325 0.2789 -0.2293
vn 0.9314 0.3015 -0.2040
vn 1.0000 0.0024 -0.0019
vn 0.5323 0.6829 0.5003
vn 0.5746 0.5212 0.6310
vn 0.7286 0.4367 0.5276
vn 0.5336 0.3613 0.7647
vn 0.6786 0.2349 0.6960
vn 0.5323 0.6829 0.5004
vn 0.0002 0.6351 0.7724
vn 0.0001 0.6351 0.7724
vn 0.0001 0.6350 0.7725
vn 0.4702 0.1540 0.8690
vn 0.6785 0.2349 0.6960
vn 0.5336 0.3612 0.7647
vn 0.4702 0.1541 0.8690
vn 0.0002 0.6350 0.7725
vn 0.4703 0.1539 0.8690
vn 0.4703 0.1540 0.8690
vn 0.4704 0.1539 0.8690
vn 0.2389 0.1110 0.9647
vn 0.2389 0.1109 0.9647
vn -0.0000 0.6350 0.7725
vn -0.1270 0.1039 0.9864
vn -0.1269 0.1039 0.9865
vn -0.1595 -0.0797 0.9840
vn -0.0001 0.6350 0.7725
vn -0.4469 0.2340 0.8634
vn -0.4469 0.2340 0.8635
vn -0.5554 0.0746 0.8282
vn -0.4469 0.2341 0.8634
vn -0.0001 0.6351 0.7725
vn -0.0002 0.6350 0.7725
vn -0.6131 0.3485 0.7090
vn -0.5555 0.0747 0.8282
vn -0.6130 0.3486 0.7090
vn -0.6131 0.3486 0.7090
vn -0.0002 0.6351 0.7724
vn -0.5734 0.5685 0.5899
vn -0.0001 0.6351 0.7724
vn -0.4531 0.7853 0.4219
vn -0.0000 0.6352 0.7724
vn -0.2242 0.9294 0.2933
vn -0.2906 0.9511 0.1043
vn -0.0000 0.6352 0.7723
vn -0.0000 0.6353 0.7723
vn -0.0186 0.9620 0.2725
vn 0.0001 0.6352 0.7724
vn 0.0118 0.9613 0.2753
vn 0.0158 0.9972 0.0725
vn 0.0118 0.9613 0.2754
vn 0.0002 0.6352 0.7723
vn 0.1317 0.9511 0.2795
vn 0.2286 0.9263 0.2995
vn 0.2286 0.9263 0.2996
vn 0.3179 0.8885 0.3311
vn 0.3179 0.8885 0.3310
vn 0.4075 0.8281 0.3850
vn 0.0001 0.6352 0.7723
vn 0.4303 0.8089 0.4006
vn 0.4303 0.8089 0.4007
vn 0.0002 0.6352 0.7724
vn -0.0003 0.6352 0.7724
vn -0.0000 0.6351 0.7724
vt 0.775803 0.072858
vt 0.775803 0.101799
vt 0.782724 0.101799
vt 0.782724 0.072858
vt 0.753128 0.072858
vt 0.753128 0.101799
vt 0.409201 0.015058
vt 0.408380 0.012443
vt 0.386234 0.022875
vt 0.387659 0.025244
vt 0.415994 0.013683
vt 0.415919 0.010985
vt 0.381846 0.025986
vt 0.383618 0.028076
vt 0.748339 0.072858
vt 0.748339 0.101799
vt 0.377543 0.030343
vt 0.379705 0.032120
vt 0.742893 0.072858
vt 0.742893 0.101799
vt 0.737447 0.072858
vt 0.737447 0.101799
vt 0.732657 0.072858
vt 0.732657 0.101799
vt 0.376492 0.036734
vt 0.374106 0.035402
vt 0.371910 0.040294
vt 0.374495 0.041229
vt 0.366265 0.062818
vt 0.368991 0.063058
vt 0.711063 0.072857
vt 0.711063 0.101799
vt 0.366563 0.070196
vt 0.369194 0.069381
vt 0.704454 0.072857
vt 0.704454 0.101799
vt 0.698439 0.072857
vt 0.698439 0.101799
vt 0.692424 0.072857
vt 0.692424 0.101799
vt 0.371565 0.074511
vt 0.369452 0.076167
vt 0.374542 0.080368
vt 0.375951 0.078039
vt 0.381515 0.082390
vt 0.381945 0.079782
vt 0.685815 0.072857
vt 0.685815 0.101799
vt 0.448958 0.082390
vt 0.448466 0.079743
vt 0.619039 0.072857
vt 0.619039 0.101799
vt 0.612765 0.072857
vt 0.612765 0.101799
vt 0.607691 0.072857
vt 0.607691 0.101799
vt 0.454027 0.077951
vt 0.455671 0.080206
vt 0.459749 0.076204
vt 0.457391 0.074815
vt 0.461278 0.070687
vt 0.458495 0.070345
vt 0.857625 0.072858
vt 0.857625 0.101799
vt 0.862698 0.101799
vt 0.862698 0.072858
vt 0.459917 0.063711
vt 0.457335 0.064591
vt 0.851351 0.072858
vt 0.851351 0.101799
vt 0.803766 0.072858
vt 0.803766 0.101799
vt 0.796844 0.072858
vt 0.796844 0.101799
vt 0.433735 0.022721
vt 0.435842 0.021097
vt 0.430605 0.015640
vt 0.429009 0.017782
vt 0.423676 0.012047
vt 0.422836 0.014704
vt 0.789784 0.072858
vt 0.789784 0.101799
vt 0.416254 0.020858
vt 0.420717 0.021465
vt 0.424721 0.023499
vt 0.416400 0.023448
vt 0.419970 0.023873
vt 0.423147 0.025537
vt 0.425960 0.028724
vt 0.428048 0.027206
vt 0.448335 0.067916
vt 0.450623 0.066865
vt 0.448969 0.069289
vt 0.451583 0.069306
vt 0.448849 0.069809
vt 0.451123 0.071140
vt 0.448457 0.070170
vt 0.449747 0.072433
vt 0.446939 0.070271
vt 0.447143 0.072785
vt 0.383379 0.070229
vt 0.383139 0.072756
vt 0.380802 0.069861
vt 0.379706 0.072136
vt 0.379006 0.068723
vt 0.376945 0.070320
vt 0.378359 0.066691
vt 0.375862 0.067187
vt 0.378637 0.064103
vt 0.376110 0.063690
vt 0.383934 0.044717
vt 0.381447 0.043837
vt 0.385264 0.041628
vt 0.382947 0.040344
vt 0.387430 0.038488
vt 0.385399 0.036813
vt 0.390103 0.035765
vt 0.388397 0.033727
vt 0.392885 0.033874
vt 0.391547 0.031578
vt 0.412251 0.024516
vt 0.411365 0.022036
s 1
f 1/1/1 2/2/2 3/3/3
f 1/1/1 3/3/3 4/4/4
f 5/5/5 6/6/6 7/2/5
f 5/5/5 7/2/5 8/1/7
f 9/7/8 10/8/9 11/9/6
f 9/7/8 11/9/6 12/10/10
f 13/11/11 14/12/12 15/8/9
f 13/11/11 15/8/9 16/7/8
f 17/10/10 18/9/6 19/13/13
f 17/10/10 19/13/13 20/14/14
f 21/15/15 22/16/13 23/6/6
f 21/15/15 23/6/6 24/5/1
f 25/14/14 26/13/13 27/17/16
f 25/14/14 27/17/16 28/18/17
f 29/19/18 30/20/16 31/16/13
f 29/19/18 31/16/13 32/15/15
f 33/21/19 34/22/20 35/20/16
f 33/21/19 35/20/16 36/19/18
f 37/23/21 38/24/22 39/22/20
f 37/23/21 39/22/20 40/21/19
f 41/25/23 42/26/20 43/27/22
f 41/25/23 43/27/22 44/28/24
f 45/18/25 46/17/16 47/26/20
f 45/18/25 47/26/20 48/25/23
f 49/28/24 50/27/22 51/29/22
f 49/28/24 51/29/22 52/30/26
f 53/31/22 54/32/22 55/24/22
f 53/31/22 55/24/22 56/23/22
f 57/30/26 58/29/22 59/33/27
f 57/30/26 59/33/27 60/34/28
f 61/35/29 62/36/27 63/32/22
f 61/35/29 63/32/22 64/31/30
f 65/37/31 66/38/32 67/36/27
f 65/37/31 67/36/27 68/35/29
f 69/39/33 70/40/34 71/38/35
f 69/39/33 71/38/35 72/37/36
f 73/41/37 74/42/32 75/43/34
f 73/41/37 75/43/34 76/44/38
f 77/34/39 78/33/27 79/42/32
f 77/34/39 79/42/32 80/41/37
f 81/44/38 82/43/34 83/45/40
f 81/44/38 83/45/40 84/46/41
f 85/47/42 86/48/42 87/40/34
f 85/47/42 87/40/34 88/39/33
f 89/46/41 90/45/40 91/49/43
f 89/46/41 91/49/43 92/50/44
f 93/51/45 94/52/45 95/48/45
f 93/51/45 95/48/45 96/47/45
f 97/53/46 98/54/47 99/52/43
f 97/53/46 99/52/43 100/51/40
f 101/55/48 102/56/49 103/54/47
f 101/55/48 103/54/47 104/53/46
f 105/57/50 106/58/47 107/59/51
f 105/57/50 107/59/51 108/60/52
f 109/50/44 110/49/43 111/58/47
f 109/50/44 111/58/47 112/57/50
f 113/60/52 114/59/51 115/61/53
f 113/60/52 115/61/53 116/62/54
f 117/63/55 118/64/53 119/65/51
f 117/63/55 119/65/51 120/66/48
f 121/62/54 122/61/53 123/67/56
f 121/62/54 123/67/56 124/68/57
f 125/69/58 126/70/59 127/64/53
f 125/69/58 127/64/53 128/63/60
f 129/71/61 130/72/61 131/70/61
f 129/71/61 131/70/61 132/69/61
f 133/73/62 134/74/63 135/72/56
f 133/73/62 135/72/56 136/71/64
f 137/75/65 138/76/56 139/77/63
f 137/75/65 139/77/63 140/78/66
f 141/68/67 142/67/56 143/76/56
f 141/68/67 143/76/56 144/75/65
f 145/78/66 146/77/63 147/79/68
f 145/78/66 147/79/68 148/80/69
f 149/81/70 150/82/71 151/74/63
f 149/81/70 151/74/63 152/73/62
f 153/80/72 154/79/68 155/12/73
f 153/80/72 155/12/73 156/11/74
f 157/4/75 158/3/76 159/82/68
f 157/4/75 159/82/68 160/81/77
f 161/11/74 162/83/78 163/84/79
f 161/11/74 163/84/79 164/80/72
f 165/80/80 166/84/79 167/85/81
f 165/80/80 167/85/81 168/78/82
f 169/83/83 170/86/84 171/87/85
f 169/83/83 171/87/85 172/84/79
f 173/84/79 174/87/85 175/88/86
f 173/84/79 175/88/86 176/85/81
f 177/85/81 178/88/86 179/89/86
f 177/85/81 179/89/86 180/90/87
f 181/78/88 182/85/89 183/90/87
f 181/78/88 183/90/87 184/75/65
f 185/90/90 186/89/86 187/91/91
f 185/90/90 187/91/91 188/92/92
f 189/75/65 190/90/93 191/92/92
f 189/75/65 191/92/92 192/68/94
f 193/92/92 194/91/91 195/93/86
f 193/92/92 195/93/86 196/94/95
f 197/68/67 198/92/92 199/94/96
f 197/68/67 199/94/96 200/62/54
f 201/94/96 202/93/86 203/95/97
f 201/94/96 203/95/97 204/96/98
f 205/62/54 206/94/96 207/96/99
f 205/62/54 207/96/99 208/60/100
f 209/96/98 210/95/97 211/97/101
f 209/96/98 211/97/101 212/98/102
f 213/60/52 214/96/98 215/98/103
f 213/60/52 215/98/103 216/57/104
f 217/98/105 218/97/106 219/99/107
f 217/98/105 219/99/107 220/100/108
f 221/57/109 222/98/102 223/100/108
f 221/57/109 223/100/108 224/50/44
f 225/100/108 226/99/101 227/101/101
f 225/100/108 227/101/101 228/102/108
f 229/50/108 230/100/110 231/102/41
f 229/50/108 231/102/41 232/46/41
f 233/102/111 234/101/106 235/103/112
f 233/102/111 235/103/112 236/104/113
f 237/46/41 238/102/108 239/104/113
f 237/46/41 239/104/113 240/44/38
f 241/104/113 242/103/112 243/105/114
f 241/104/113 243/105/114 244/106/115
f 245/44/38 246/104/113 247/106/115
f 245/44/38 247/106/115 248/41/37
f 249/106/115 250/105/114 251/107/116
f 249/106/115 251/107/116 252/108/117
f 253/41/37 254/106/115 255/108/117
f 253/41/37 255/108/117 256/34/118
f 257/108/117 258/107/119 259/109/120
f 257/108/117 259/109/120 260/110/121
f 261/34/118 262/108/117 263/110/121
f 261/34/118 263/110/121 264/30/26
f 265/110/121 266/109/120 267/111/122
f 265/110/121 267/111/122 268/112/123
f 269/30/26 270/110/121 271/112/123
f 269/30/26 271/112/123 272/28/124
f 273/112/125 274/111/85 275/113/126
f 273/112/125 275/113/126 276/114/127
f 277/28/124 278/112/123 279/114/127
f 277/28/124 279/114/127 280/25/23
f 281/114/127 282/113/126 283/115/122
f 281/114/127 283/115/122 284/116/128
f 285/25/23 286/114/127 287/116/128
f 285/25/23 287/116/128 288/18/17
f 289/116/129 290/115/122 291/117/122
f 289/116/129 291/117/122 292/118/130
f 293/18/17 294/116/128 295/118/131
f 293/18/17 295/118/131 296/14/14
f 297/118/131 298/117/85 299/119/85
f 297/118/131 299/119/85 300/120/132
f 301/14/14 302/118/131 303/120/132
f 301/14/14 303/120/132 304/10/10
f 305/120/132 306/119/85 307/121/133
f 305/120/132 307/121/133 308/122/134
f 309/10/10 310/120/132 311/122/134
f 309/10/10 311/122/134 312/7/8
f 313/122/135 314/121/122 315/86/136
f 313/122/135 315/86/136 316/83/78
f 317/7/8 318/122/134 319/83/78
f 317/7/8 319/83/78 320/11/74
f 339/95/97 340/93/86 321/91/91
f 321/91/91 322/89/86 323/88/137
f 323/88/137 324/87/85 325/86/114
f 325/86/114 326/121/107 327/119/97
f 327/119/97 328/117/136 329/115/122
f 329/115/122 330/113/136 331/111/138
f 331/111/138 332/109/119 333/107/116
f 333/107/116 334/105/114 335/103/114
f 335/103/114 336/101/106 337/99/101
f 337/99/101 338/97/101 339/95/97
f 339/95/97 321/91/91 323/88/137
f 323/88/137 325/86/114 327/119/97
f 327/119/97 329/115/122 331/111/138
f 331/111/138 333/107/116 335/103/114
f 335/103/114 337/99/101 339/95/97
f 339/95/97 323/88/137 327/119/97
f 327/119/97 331/111/138 335/103/114
f 335/103/114 339/95/97 327/119/97
