# Blender 5.2.0 LTS
# www.blender.org
mtllib button_15.mtl
o button_15
v -0.359942 0.260059 0.100529
v -0.369742 0.278962 0.100529
v -0.414408 0.255805 0.100529
v -0.404608 0.236902 0.100529
v -0.355398 0.262415 0.099511
v -0.365198 0.281318 0.099511
v -0.369742 0.278962 0.100529
v -0.359942 0.260059 0.100529
v -0.414408 0.255805 0.100529
v -0.369742 0.278962 0.100529
v -0.372109 0.283106 0.098554
v -0.416430 0.260129 0.098554
v -0.369742 0.278962 0.100529
v -0.365198 0.281318 0.099511
v -0.368077 0.285197 0.097650
v -0.372109 0.283106 0.098554
v -0.351545 0.264412 0.096611
v -0.361345 0.283315 0.096611
v -0.365198 0.281318 0.099511
v -0.355398 0.262415 0.099511
v -0.365198 0.281318 0.099511
v -0.361345 0.283315 0.096611
v -0.364804 0.286893 0.095187
v -0.368077 0.285197 0.097650
v -0.368077 0.285197 0.097650
v -0.364804 0.286893 0.095187
v -0.368766 0.287065 0.091749
v -0.370638 0.286094 0.093158
v -0.372109 0.283106 0.098554
v -0.368077 0.285197 0.097650
v -0.370638 0.286094 0.093158
v -0.373436 0.284644 0.093785
v -0.373436 0.284644 0.093785
v -0.370638 0.286094 0.093158
v -0.368766 0.287065 0.091749
v -0.367515 0.287713 0.089641
v -0.366959 0.288001 0.086489
v -0.392520 0.274750 0.062167
v -0.416430 0.260129 0.098554
v -0.372109 0.283106 0.098554
v -0.373436 0.284644 0.093785
v -0.416922 0.262099 0.093785
v -0.416922 0.262099 0.093785
v -0.373436 0.284644 0.093785
v -0.392520 0.274750 0.062167
v -0.395179 0.273371 0.063408
v -0.397838 0.271993 0.062167
v -0.392520 0.274750 0.062167
v -0.391418 0.275321 0.059171
v -0.393898 0.277409 0.059171
v -0.394133 0.276668 0.061617
v -0.395179 0.273371 0.063408
v -0.392520 0.274750 0.062167
v -0.394133 0.276668 0.061617
v -0.396558 0.276031 0.062167
v -0.392520 0.274750 0.056176
v -0.391418 0.275321 0.059171
v -0.392520 0.274750 0.062167
v -0.366959 0.288001 0.086489
v -0.366959 0.288001 0.018119
v -0.392520 0.274750 0.042441
v -0.391418 0.275321 0.045437
v -0.392520 0.274750 0.048432
v -0.362618 0.288027 0.091501
v -0.361816 0.288443 0.086959
v -0.366959 0.288001 0.086489
v -0.367515 0.287713 0.089641
v -0.361816 0.288443 0.086959
v -0.361816 0.288443 0.017649
v -0.366959 0.288001 0.018119
v -0.366959 0.288001 0.086489
v -0.364804 0.286893 0.095187
v -0.362618 0.288027 0.091501
v -0.367515 0.287713 0.089641
v -0.368766 0.287065 0.091749
v -0.361345 0.283315 0.096611
v -0.358771 0.284649 0.092272
v -0.362618 0.288027 0.091501
v -0.364804 0.286893 0.095187
v -0.358771 0.284649 0.092272
v -0.357867 0.285118 0.087154
v -0.361816 0.288443 0.086959
v -0.362618 0.288027 0.091501
v -0.348067 0.266215 0.087154
v -0.357867 0.285118 0.087154
v -0.358771 0.284649 0.092272
v -0.348971 0.265746 0.092272
v -0.348971 0.265746 0.092272
v -0.358771 0.284649 0.092272
v -0.361345 0.283315 0.096611
v -0.351545 0.264412 0.096611
v -0.348067 0.266215 0.017455
v -0.357867 0.285118 0.017455
v -0.357867 0.285118 0.087154
v -0.348067 0.266215 0.087154
v -0.348971 0.265746 0.012336
v -0.358771 0.284649 0.012336
v -0.357867 0.285118 0.017455
v -0.348067 0.266215 0.017455
v -0.357867 0.285118 0.017455
v -0.358771 0.284649 0.012336
v -0.362618 0.288027 0.013107
v -0.361816 0.288443 0.017649
v -0.357867 0.285118 0.087154
v -0.357867 0.285118 0.017455
v -0.361816 0.288443 0.017649
v -0.361816 0.288443 0.086959
v -0.361816 0.288443 0.017649
v -0.362618 0.288027 0.013107
v -0.367515 0.287713 0.014968
v -0.366959 0.288001 0.018119
v -0.358771 0.284649 0.012336
v -0.361345 0.283315 0.007997
v -0.364804 0.286893 0.009421
v -0.362618 0.288027 0.013107
v -0.362618 0.288027 0.013107
v -0.364804 0.286893 0.009421
v -0.368766 0.287065 0.012859
v -0.367515 0.287713 0.014968
v -0.366959 0.288001 0.018119
v -0.367515 0.287713 0.014968
v -0.368766 0.287065 0.012859
v -0.370638 0.286094 0.011450
v -0.373436 0.284644 0.010824
v -0.392520 0.274750 0.042441
v -0.364804 0.286893 0.009421
v -0.368077 0.285197 0.006958
v -0.370638 0.286094 0.011450
v -0.368766 0.287065 0.012859
v -0.368077 0.285197 0.006958
v -0.372109 0.283106 0.006055
v -0.373436 0.284644 0.010824
v -0.370638 0.286094 0.011450
v -0.372109 0.283106 0.006055
v -0.416430 0.260129 0.006055
v -0.416922 0.262099 0.010824
v -0.373436 0.284644 0.010824
v -0.392520 0.274750 0.042441
v -0.373436 0.284644 0.010824
v -0.416922 0.262099 0.010824
v -0.419720 0.260649 0.011450
v -0.421592 0.259678 0.012859
v -0.422843 0.259030 0.014968
v -0.423399 0.258741 0.018119
v -0.397838 0.271993 0.042441
v -0.395179 0.273371 0.041201
v -0.392520 0.274750 0.042441
v -0.395179 0.273371 0.041201
v -0.396558 0.276031 0.042441
v -0.394133 0.276668 0.042991
v -0.391418 0.275321 0.045437
v -0.392520 0.274750 0.042441
v -0.394133 0.276668 0.042991
v -0.393898 0.277409 0.045437
v -0.395179 0.273371 0.041201
v -0.397838 0.271993 0.042441
v -0.398476 0.274417 0.042991
v -0.396558 0.276031 0.042441
v -0.397838 0.271993 0.042441
v -0.398940 0.271422 0.045437
v -0.399217 0.274652 0.045437
v -0.398476 0.274417 0.042991
v -0.398940 0.271422 0.045437
v -0.397838 0.271993 0.042441
v -0.423399 0.258741 0.018119
v -0.423399 0.258741 0.086489
v -0.397838 0.271993 0.062167
v -0.398940 0.271422 0.059171
v -0.397838 0.271993 0.056176
v -0.397838 0.271993 0.048432
v -0.425922 0.255208 0.013107
v -0.426724 0.254792 0.017649
v -0.423399 0.258741 0.018119
v -0.422843 0.259030 0.014968
v -0.426724 0.254792 0.017649
v -0.426724 0.254792 0.086959
v -0.423399 0.258741 0.086489
v -0.423399 0.258741 0.018119
v -0.423735 0.256342 0.009421
v -0.425922 0.255208 0.013107
v -0.422843 0.259030 0.014968
v -0.421592 0.259678 0.012859
v -0.420463 0.258038 0.006958
v -0.423735 0.256342 0.009421
v -0.421592 0.259678 0.012859
v -0.419720 0.260649 0.011450
v -0.416430 0.260129 0.006055
v -0.420463 0.258038 0.006958
v -0.419720 0.260649 0.011450
v -0.416922 0.262099 0.010824
v -0.414408 0.255805 0.004079
v -0.418952 0.253450 0.005097
v -0.420463 0.258038 0.006958
v -0.416430 0.260129 0.006055
v -0.418952 0.253450 0.005097
v -0.422805 0.251452 0.007997
v -0.423735 0.256342 0.009421
v -0.420463 0.258038 0.006958
v -0.369742 0.278962 0.004079
v -0.414408 0.255805 0.004079
v -0.416430 0.260129 0.006055
v -0.372109 0.283106 0.006055
v -0.409152 0.234547 0.005097
v -0.418952 0.253450 0.005097
v -0.414408 0.255805 0.004079
v -0.404608 0.236902 0.004079
v -0.404608 0.236902 0.004079
v -0.414408 0.255805 0.004079
v -0.369742 0.278962 0.004079
v -0.359942 0.260059 0.004079
v -0.359942 0.260059 0.004079
v -0.369742 0.278962 0.004079
v -0.365198 0.281318 0.005097
v -0.355398 0.262415 0.005097
v -0.355398 0.262415 0.005097
v -0.365198 0.281318 0.005097
v -0.361345 0.283315 0.007997
v -0.351545 0.264412 0.007997
v -0.365198 0.281318 0.005097
v -0.369742 0.278962 0.004079
v -0.372109 0.283106 0.006055
v -0.368077 0.285197 0.006958
v -0.361345 0.283315 0.007997
v -0.365198 0.281318 0.005097
v -0.368077 0.285197 0.006958
v -0.364804 0.286893 0.009421
v -0.351545 0.264412 0.007997
v -0.361345 0.283315 0.007997
v -0.358771 0.284649 0.012336
v -0.348971 0.265746 0.012336
v -0.413005 0.232549 0.007997
v -0.422805 0.251452 0.007997
v -0.418952 0.253450 0.005097
v -0.409152 0.234547 0.005097
v -0.415579 0.231215 0.012336
v -0.425379 0.250118 0.012336
v -0.422805 0.251452 0.007997
v -0.413005 0.232549 0.007997
v -0.422805 0.251452 0.007997
v -0.425379 0.250118 0.012336
v -0.425922 0.255208 0.013107
v -0.423735 0.256342 0.009421
v -0.416483 0.230746 0.017455
v -0.426283 0.249649 0.017455
v -0.425379 0.250118 0.012336
v -0.415579 0.231215 0.012336
v -0.425379 0.250118 0.012336
v -0.426283 0.249649 0.017455
v -0.426724 0.254792 0.017649
v -0.425922 0.255208 0.013107
v -0.416483 0.230746 0.087154
v -0.426283 0.249649 0.087154
v -0.426283 0.249649 0.017455
v -0.416483 0.230746 0.017455
v -0.426283 0.249649 0.017455
v -0.426283 0.249649 0.087154
v -0.426724 0.254792 0.086959
v -0.426724 0.254792 0.017649
v -0.415579 0.231215 0.092272
v -0.425379 0.250118 0.092272
v -0.426283 0.249649 0.087154
v -0.416483 0.230746 0.087154
v -0.413005 0.232549 0.096611
v -0.422805 0.251452 0.096611
v -0.425379 0.250118 0.092272
v -0.415579 0.231215 0.092272
v -0.425379 0.250118 0.092272
v -0.422805 0.251452 0.096611
v -0.423735 0.256342 0.095187
v -0.425922 0.255208 0.091501
v -0.426283 0.249649 0.087154
v -0.425379 0.250118 0.092272
v -0.425922 0.255208 0.091501
v -0.426724 0.254792 0.086959
v -0.425922 0.255208 0.091501
v -0.423735 0.256342 0.095187
v -0.421592 0.259678 0.091749
v -0.422843 0.259030 0.089641
v -0.426724 0.254792 0.086959
v -0.425922 0.255208 0.091501
v -0.422843 0.259030 0.089641
v -0.423399 0.258741 0.086489
v -0.422843 0.259030 0.089641
v -0.421592 0.259678 0.091749
v -0.419720 0.260649 0.093158
v -0.416922 0.262099 0.093785
v -0.397838 0.271993 0.062167
v -0.423399 0.258741 0.086489
v -0.423735 0.256342 0.095187
v -0.420463 0.258038 0.097650
v -0.419720 0.260649 0.093158
v -0.421592 0.259678 0.091749
v -0.420463 0.258038 0.097650
v -0.416430 0.260129 0.098554
v -0.416922 0.262099 0.093785
v -0.419720 0.260649 0.093158
v -0.422805 0.251452 0.096611
v -0.418952 0.253450 0.099511
v -0.420463 0.258038 0.097650
v -0.423735 0.256342 0.095187
v -0.418952 0.253450 0.099511
v -0.414408 0.255805 0.100529
v -0.416430 0.260129 0.098554
v -0.420463 0.258038 0.097650
v -0.404608 0.236902 0.100529
v -0.414408 0.255805 0.100529
v -0.418952 0.253450 0.099511
v -0.409152 0.234547 0.099511
v -0.409152 0.234547 0.099511
v -0.418952 0.253450 0.099511
v -0.422805 0.251452 0.096611
v -0.413005 0.232549 0.096611
v -0.398940 0.271422 0.059171
v -0.397838 0.271993 0.062167
v -0.398476 0.274417 0.061617
v -0.399217 0.274652 0.059171
v -0.397838 0.271993 0.062167
v -0.395179 0.273371 0.063408
v -0.396558 0.276031 0.062167
v -0.398476 0.274417 0.061617
v -0.397838 0.271993 0.056176
v -0.398940 0.271422 0.059171
v -0.399217 0.274652 0.059171
v -0.398476 0.274417 0.056726
v -0.395179 0.273371 0.054935
v -0.397838 0.271993 0.056176
v -0.398476 0.274417 0.056726
v -0.396558 0.276031 0.056176
v -0.395179 0.273371 0.054935
v -0.395179 0.273371 0.049673
v -0.397838 0.271993 0.048432
v -0.397838 0.271993 0.056176
v -0.398940 0.271422 0.045437
v -0.397838 0.271993 0.048432
v -0.398476 0.274417 0.047882
v -0.399217 0.274652 0.045437
v -0.397838 0.271993 0.048432
v -0.395179 0.273371 0.049673
v -0.396558 0.276031 0.048432
v -0.398476 0.274417 0.047882
v -0.395179 0.273371 0.049673
v -0.392520 0.274750 0.048432
v -0.394133 0.276668 0.047882
v -0.396558 0.276031 0.048432
v -0.392520 0.274750 0.056176
v -0.392520 0.274750 0.048432
v -0.395179 0.273371 0.049673
v -0.395179 0.273371 0.054935
v -0.392520 0.274750 0.048432
v -0.391418 0.275321 0.045437
v -0.393898 0.277409 0.045437
v -0.394133 0.276668 0.047882
v -0.392520 0.274750 0.056176
v -0.395179 0.273371 0.054935
v -0.396558 0.276031 0.056176
v -0.394133 0.276668 0.056726
v -0.391418 0.275321 0.059171
v -0.392520 0.274750 0.056176
v -0.394133 0.276668 0.056726
v -0.393898 0.277409 0.059171
v -0.394133 0.276668 0.056726
v -0.396558 0.276031 0.056176
v -0.397129 0.277132 0.059171
v -0.393898 0.277409 0.059171
v -0.396558 0.276031 0.056176
v -0.398476 0.274417 0.056726
v -0.399217 0.274652 0.059171
v -0.397129 0.277132 0.059171
v -0.393898 0.277409 0.059171
v -0.397129 0.277132 0.059171
v -0.396558 0.276031 0.062167
v -0.394133 0.276668 0.061617
v -0.397129 0.277132 0.059171
v -0.399217 0.274652 0.059171
v -0.398476 0.274417 0.061617
v -0.396558 0.276031 0.062167
v -0.393898 0.277409 0.045437
v -0.397129 0.277132 0.045437
v -0.396558 0.276031 0.048432
v -0.394133 0.276668 0.047882
v -0.394133 0.276668 0.042991
v -0.396558 0.276031 0.042441
v -0.397129 0.277132 0.045437
v -0.393898 0.277409 0.045437
v -0.397129 0.277132 0.045437
v -0.399217 0.274652 0.045437
v -0.398476 0.274417 0.047882
v -0.396558 0.276031 0.048432
v -0.396558 0.276031 0.042441
v -0.398476 0.274417 0.042991
v -0.399217 0.274652 0.045437
v -0.397129 0.277132 0.045437
vn -0.0000 -0.0000 1.0000
vn -0.0000 0.0003 1.0000
vn -0.0002 -0.0002 1.0000
vn 0.3397 0.1761 0.9239
vn 0.3049 0.2404 0.9215
vn 0.0002 -0.0000 1.0000
vn -0.0002 0.0001 1.0000
vn -0.3131 0.6296 0.7110
vn -0.3341 0.6188 0.7110
vn -0.0613 0.7265 0.6844
vn -0.3131 0.6297 0.7110
vn 0.6277 0.3255 0.7071
vn 0.5928 0.3889 0.7053
vn 0.3050 0.2404 0.9215
vn 0.3398 0.1762 0.9238
vn 0.3049 0.2405 0.9215
vn 0.5927 0.3889 0.7053
vn 0.1622 0.8338 0.5277
vn -0.4601 0.8879 0.0001
vn -0.4602 0.8878 0.0002
vn -0.4602 0.8878 -0.0001
vn -0.4602 0.8878 -0.0000
vn -0.4602 0.8878 0.0003
vn -0.4600 0.8879 -0.0000
vn -0.4603 0.8878 0.0002
vn -0.4603 0.8878 0.0003
vn -0.4604 0.8877 0.0001
vn -0.4603 0.8878 0.0005
vn -0.4603 0.8878 -0.0000
vn -0.4602 0.8878 0.0001
vn 0.3024 0.9532 -0.0001
vn 0.2469 0.7783 0.5773
vn -0.4603 0.8878 0.0001
vn -0.3255 0.6278 0.7070
vn -0.4605 0.8877 0.0002
vn -0.4601 0.8879 -0.0000
vn 0.2978 0.9126 0.2800
vn 0.3042 0.9526 -0.0000
vn -0.4600 0.8879 0.0001
vn 0.5928 0.3889 0.7052
vn 0.7845 0.4891 0.3813
vn 0.7845 0.4890 0.3813
vn 0.8877 0.4604 0.0001
vn 0.2978 0.9127 0.2800
vn 0.8878 0.4603 0.0002
vn 0.8202 0.4252 0.3827
vn 0.8202 0.4252 0.3828
vn 0.6278 0.3255 0.7070
vn 0.8879 0.4600 -0.0004
vn 0.8878 0.4603 -0.0000
vn 0.8202 0.4252 -0.3827
vn 0.7845 0.4890 -0.3813
vn 0.8877 0.4604 -0.0001
vn 0.8878 0.4602 -0.0001
vn 0.2978 0.9126 -0.2800
vn 0.2978 0.9127 -0.2800
vn -0.4601 0.8879 -0.0001
vn 0.5928 0.3889 -0.7052
vn 0.1622 0.8338 -0.5277
vn -0.4600 0.8879 -0.0001
vn -0.4599 0.8880 -0.0001
vn -0.4602 0.8878 -0.0002
vn -0.0613 0.7265 -0.6844
vn -0.4602 0.8878 -0.0003
vn -0.3131 0.6297 -0.7109
vn -0.3131 0.6297 -0.7110
vn -0.3341 0.6188 -0.7110
vn -0.4603 0.8878 -0.0003
vn -0.4601 0.8878 0.0001
vn -0.4604 0.8877 -0.0001
vn -0.4603 0.8878 -0.0002
vn -0.4603 0.8878 -0.0001
vn -0.4603 0.8877 -0.0001
vn -0.4605 0.8877 -0.0003
vn -0.4604 0.8877 0.0002
vn -0.3254 0.6278 -0.7071
vn 0.2469 0.7783 -0.5773
vn 0.3024 0.9532 0.0001
vn -0.7783 0.2468 -0.5773
vn -0.9532 0.3023 0.0001
vn -0.4605 0.8876 0.0002
vn -0.4605 0.8877 -0.0002
vn -0.9174 0.2827 -0.2800
vn -0.9538 0.3004 -0.0000
vn -0.4605 0.8877 -0.0001
vn -0.7749 0.3480 -0.5277
vn -0.5584 0.4688 -0.6844
vn -0.4604 0.8877 -0.0002
vn -0.0002 0.0001 -1.0000
vn -0.3722 -0.1106 -0.9215
vn -0.6595 -0.2603 -0.7052
vn -0.7749 0.3479 -0.5277
vn -0.0000 0.0003 -1.0000
vn -0.3397 -0.1761 -0.9239
vn -0.3722 -0.1106 -0.9216
vn -0.0000 -0.0000 -1.0000
vn 0.0001 -0.0000 -1.0000
vn -0.0000 0.0002 -1.0000
vn 0.3052 0.2405 -0.9214
vn 0.3398 0.1760 -0.9239
vn 0.3398 0.1761 -0.9238
vn 0.3053 0.2405 -0.9214
vn 0.5927 0.3888 -0.7053
vn 0.6278 0.3254 -0.7071
vn 0.5927 0.3889 -0.7053
vn 0.3052 0.2406 -0.9214
vn 0.6278 0.3255 -0.7070
vn 0.8202 0.4252 -0.3828
vn -0.6277 -0.3255 -0.7071
vn -0.8202 -0.4252 -0.3828
vn -0.8517 -0.3592 -0.3814
vn -0.6278 -0.3255 -0.7070
vn -0.8518 -0.3592 -0.3814
vn -0.8878 -0.4603 -0.0001
vn -0.8879 -0.4600 -0.0001
vn -0.8202 -0.4252 -0.3827
vn -0.8878 -0.4603 -0.0000
vn -0.8879 -0.4600 0.0002
vn -0.8879 -0.4601 0.0001
vn -0.8202 -0.4252 0.3827
vn -0.8518 -0.3592 0.3813
vn -0.8879 -0.4601 0.0002
vn -0.8878 -0.4602 0.0001
vn -0.6278 -0.3255 0.7070
vn -0.6595 -0.2603 0.7052
vn -0.8518 -0.3592 0.3814
vn -0.7749 0.3480 0.5277
vn -0.9174 0.2827 0.2800
vn -0.8879 -0.4600 0.0001
vn -0.4605 0.8877 0.0001
vn -0.4603 0.8877 -0.0000
vn -0.5584 0.4688 0.6844
vn -0.6595 -0.2602 0.7052
vn -0.3722 -0.1106 0.9215
vn -0.3722 -0.1105 0.9215
vn -0.0001 -0.0001 1.0000
vn -0.3722 -0.1106 0.9216
vn -0.3397 -0.1761 0.9239
vn -0.6277 -0.3255 0.7071
vn -0.7784 0.2468 0.5773
vn -0.9532 0.3023 -0.0001
vn -0.4601 0.8878 -0.0000
vn -0.7783 0.2468 0.5773
vn -0.4603 0.8877 0.0001
vn -0.3254 0.6278 0.7071
vn -0.4604 0.8877 -0.0000
vn -0.4601 0.8879 0.0002
vt 0.886305 0.219296
vt 0.873967 0.219296
vt 0.873967 0.248375
vt 0.886305 0.248375
vt 0.886305 0.216385
vt 0.873967 0.216385
vt 0.870969 0.219296
vt 0.870969 0.248375
vt 0.870969 0.216385
vt 0.886305 0.213513
vt 0.873967 0.213513
vt 0.870969 0.213513
vt 0.954865 0.068919
vt 0.952693 0.070393
vt 0.954870 0.072546
vt 0.956071 0.071732
vt 0.957543 0.068341
vt 0.957873 0.071346
vt 0.953701 0.075565
vt 0.970469 0.089716
vt 0.954070 0.073757
vt 0.986642 0.068159
vt 0.986336 0.071227
vt 0.972145 0.089010
vt 0.973808 0.089715
vt 0.969770 0.091393
vt 0.971146 0.091394
vt 0.971261 0.090511
vt 0.972139 0.090396
vt 0.969744 0.099325
vt 0.970446 0.097633
vt 0.970464 0.093076
vt 0.953699 0.115145
vt 0.970453 0.101005
vt 0.951248 0.072583
vt 0.950703 0.075259
vt 0.950701 0.115450
vt 0.873967 0.210640
vt 0.870969 0.210640
vt 0.873967 0.207730
vt 0.870969 0.207730
vt 0.886305 0.207730
vt 0.886305 0.210640
vt 0.886305 0.167417
vt 0.873967 0.167417
vt 0.886305 0.164506
vt 0.873967 0.164506
vt 0.870969 0.164506
vt 0.870969 0.167417
vt 0.951245 0.118124
vt 0.954066 0.116952
vt 0.873967 0.161634
vt 0.870969 0.161634
vt 0.952689 0.120312
vt 0.954864 0.118161
vt 0.957862 0.119369
vt 0.956060 0.118981
vt 0.954855 0.121794
vt 0.957530 0.122372
vt 0.986631 0.122575
vt 0.986329 0.119505
vt 0.972136 0.101710
vt 0.988159 0.119131
vt 0.989376 0.118308
vt 0.990191 0.117090
vt 0.990573 0.115267
vt 0.973799 0.101003
vt 0.972128 0.100321
vt 0.971246 0.100207
vt 0.971129 0.099321
vt 0.973006 0.100207
vt 0.974493 0.099330
vt 0.973118 0.099323
vt 0.973805 0.093076
vt 0.973802 0.097638
vt 0.990572 0.075469
vt 0.974501 0.091386
vt 0.993042 0.118285
vt 0.993593 0.115579
vt 0.993593 0.075160
vt 0.991573 0.120502
vt 0.989365 0.122002
vt 0.873967 0.126772
vt 0.873967 0.123862
vt 0.870969 0.123862
vt 0.870969 0.126772
vt 0.873967 0.120989
vt 0.870969 0.120989
vt 0.873967 0.155851
vt 0.870969 0.155851
vt 0.886305 0.123862
vt 0.886305 0.126772
vt 0.886305 0.155851
vt 0.873967 0.158762
vt 0.886305 0.158762
vt 0.886305 0.161634
vt 0.870969 0.158762
vt 0.886305 0.120989
vt 0.886305 0.303164
vt 0.873967 0.303164
vt 0.873967 0.306036
vt 0.886305 0.306036
vt 0.870969 0.303164
vt 0.870969 0.306036
vt 0.886305 0.300253
vt 0.873967 0.300253
vt 0.870969 0.300253
vt 0.886305 0.259941
vt 0.873967 0.259941
vt 0.870969 0.259941
vt 0.886305 0.257030
vt 0.873967 0.257030
vt 0.886305 0.254157
vt 0.873967 0.254157
vt 0.870969 0.254157
vt 0.870969 0.257030
vt 0.993048 0.072455
vt 0.991586 0.070235
vt 0.989383 0.072423
vt 0.990195 0.073644
vt 0.988163 0.071605
vt 0.989375 0.068739
vt 0.873967 0.251285
vt 0.870969 0.251285
vt 0.886305 0.251285
vt 0.973016 0.090510
vt 0.973128 0.091393
vt 0.973014 0.092278
vt 0.972133 0.093783
vt 0.972135 0.092394
vt 0.972126 0.096925
vt 0.973006 0.098436
vt 0.972125 0.098319
vt 0.971243 0.098434
vt 0.971257 0.092279
vt 0.972137 0.091394
vt 0.972125 0.099321
s 1
f 1/1/1 2/2/2 3/3/1
f 1/1/1 3/3/1 4/4/3
f 5/5/4 6/6/5 7/2/2
f 5/5/4 7/2/2 8/1/6
f 9/3/7 10/2/2 11/7/8
f 9/3/7 11/7/8 12/8/9
f 13/2/2 14/6/5 15/9/10
f 13/2/2 15/9/10 16/7/11
f 17/10/12 18/11/13 19/6/14
f 17/10/12 19/6/14 20/5/15
f 21/6/16 22/11/17 23/12/18
f 21/6/16 23/12/18 24/9/10
f 25/13/10 26/14/18 27/15/19
f 25/13/10 27/15/19 28/16/20
f 29/17/11 30/13/10 31/16/20
f 29/17/11 31/16/20 32/18/20
f 37/19/21 38/20/22 33/18/22
f 33/18/22 34/16/23 35/15/21
f 35/15/21 36/21/24 37/19/21
f 37/19/21 33/18/22 35/15/21
f 39/22/9 40/17/11 41/18/25
f 39/22/9 41/18/25 42/23/26
f 46/24/20 47/25/27 43/23/28
f 43/23/28 44/18/29 45/20/29
f 45/20/29 46/24/20 43/23/28
f 48/20/22 49/26/30 50/27/31
f 48/20/22 50/27/31 51/28/32
f 52/24/33 53/20/30 54/28/32
f 52/24/33 54/28/32 55/29/34
f 62/30/35 63/31/36 56/32/36
f 57/26/22 58/20/21 59/19/22
f 59/19/22 60/33/22 61/34/29
f 62/30/35 56/32/36 57/26/22
f 59/19/22 61/34/29 62/30/35
f 62/30/35 57/26/22 59/19/22
f 64/35/37 65/36/38 66/19/39
f 64/35/37 66/19/39 67/21/39
f 68/36/38 69/37/38 70/33/24
f 68/36/38 70/33/24 71/19/39
f 72/14/18 73/35/37 74/21/39
f 72/14/18 74/21/39 75/15/19
f 76/11/40 77/38/41 78/39/37
f 76/11/40 78/39/37 79/12/18
f 80/38/42 81/40/43 82/41/38
f 80/38/42 82/41/38 83/39/44
f 84/42/45 85/40/43 86/38/42
f 84/42/45 86/38/42 87/43/46
f 88/43/47 89/38/42 90/11/40
f 88/43/47 90/11/40 91/10/48
f 92/44/49 93/45/50 94/40/50
f 92/44/49 94/40/50 95/42/50
f 96/46/51 97/47/52 98/45/53
f 96/46/51 98/45/53 99/44/54
f 100/45/53 101/47/52 102/48/55
f 100/45/53 102/48/55 103/49/38
f 104/40/43 105/45/53 106/49/38
f 104/40/43 106/49/38 107/41/38
f 108/37/38 109/50/56 110/51/57
f 108/37/38 110/51/57 111/33/36
f 112/47/52 113/52/58 114/53/59
f 112/47/52 114/53/59 115/48/55
f 116/50/56 117/54/59 118/55/60
f 116/50/56 118/55/60 119/51/57
f 124/56/22 125/34/30 120/33/61
f 120/33/61 121/51/62 122/55/30
f 122/55/30 123/57/62 124/56/22
f 124/56/22 120/33/61 122/55/30
f 126/54/59 127/58/63 128/57/64
f 126/54/59 128/57/64 129/55/57
f 130/58/63 131/59/65 132/56/64
f 130/58/63 132/56/64 133/57/62
f 134/59/66 135/60/67 136/61/68
f 134/59/66 136/61/68 137/56/64
f 146/62/69 138/34/70 139/56/29
f 139/56/29 140/61/71 141/63/72
f 141/63/72 142/64/73 143/65/74
f 143/65/74 144/66/75 145/67/30
f 145/67/30 146/62/69 139/56/29
f 139/56/29 141/63/72 143/65/74
f 143/65/74 145/67/30 139/56/29
f 147/34/62 148/62/21 149/68/76
f 147/34/62 149/68/76 150/69/77
f 151/30/30 152/34/21 153/69/77
f 151/30/30 153/69/77 154/70/78
f 155/62/71 156/67/71 157/71/79
f 155/62/71 157/71/79 158/68/76
f 159/67/73 160/72/72 161/73/80
f 159/67/73 161/73/80 162/71/79
f 169/74/36 170/75/81 163/72/22
f 163/72/22 164/67/21 165/66/29
f 165/66/29 166/76/82 167/25/29
f 168/77/81 169/74/36 163/72/22
f 165/66/29 167/25/29 168/77/81
f 168/77/81 163/72/22 165/66/29
f 171/78/83 172/79/84 173/66/85
f 171/78/83 173/66/85 174/65/70
f 175/79/84 176/80/84 177/76/85
f 175/79/84 177/76/85 178/66/85
f 179/81/86 180/78/83 181/65/70
f 179/81/86 181/65/70 182/64/82
f 183/82/87 184/81/86 185/64/88
f 183/82/87 185/64/88 186/63/68
f 187/60/67 188/82/87 189/63/68
f 187/60/67 189/63/68 190/61/68
f 191/83/89 192/84/90 193/85/87
f 191/83/89 193/85/87 194/86/67
f 195/84/90 196/87/91 197/88/92
f 195/84/90 197/88/92 198/85/87
f 199/89/93 200/83/89 201/86/67
f 199/89/93 201/86/67 202/90/66
f 203/91/94 204/84/95 205/83/89
f 203/91/94 205/83/89 206/92/96
f 207/92/96 208/83/96 209/89/96
f 207/92/96 209/89/96 210/93/96
f 211/93/97 212/89/98 213/94/99
f 211/93/97 213/94/99 214/95/100
f 215/95/101 216/94/102 217/52/103
f 215/95/101 217/52/103 218/96/104
f 219/94/99 220/89/98 221/90/66
f 219/94/99 221/90/66 222/97/63
f 223/52/105 224/94/106 225/97/63
f 223/52/105 225/97/63 226/53/59
f 227/96/107 228/52/58 229/47/52
f 227/96/107 229/47/52 230/46/108
f 231/98/109 232/87/91 233/84/90
f 231/98/109 233/84/90 234/91/94
f 235/99/110 236/100/111 237/101/91
f 235/99/110 237/101/91 238/102/112
f 239/101/91 240/100/113 241/103/83
f 239/101/91 241/103/83 242/104/92
f 243/105/114 244/106/115 245/100/113
f 243/105/114 245/100/113 246/99/116
f 247/100/113 248/106/115 249/107/84
f 247/100/113 249/107/84 250/103/83
f 251/108/117 252/109/118 253/106/117
f 251/108/117 253/106/117 254/105/117
f 255/106/115 256/109/119 257/110/84
f 255/106/115 257/110/84 258/107/84
f 259/111/120 260/112/121 261/109/122
f 259/111/120 261/109/122 262/108/123
f 263/113/124 264/114/125 265/112/126
f 263/113/124 265/112/126 266/111/120
f 267/112/121 268/114/125 269/115/127
f 267/112/121 269/115/127 270/116/128
f 271/109/129 272/112/121 273/116/128
f 271/109/129 273/116/128 274/110/84
f 275/117/128 276/118/127 277/119/130
f 275/117/128 277/119/130 278/120/130
f 279/80/84 280/117/128 281/120/130
f 279/80/84 281/120/130 282/76/70
f 287/25/29 288/76/88 283/120/131
f 283/120/131 284/119/27 285/121/30
f 285/121/30 286/23/69 287/25/29
f 287/25/29 283/120/131 285/121/30
f 289/118/127 290/122/132 291/121/75
f 289/118/127 291/121/75 292/119/27
f 293/122/132 294/22/9 295/23/26
f 293/122/132 295/23/26 296/121/75
f 297/114/133 298/123/134 299/124/132
f 297/114/133 299/124/132 300/115/127
f 301/123/135 302/3/7 303/8/9
f 301/123/135 303/8/9 304/124/132
f 305/4/136 306/3/7 307/123/137
f 305/4/136 307/123/137 308/125/138
f 309/125/138 310/123/134 311/114/125
f 309/125/138 311/114/125 312/113/139
f 313/77/73 314/25/75 315/126/140
f 313/77/73 315/126/140 316/127/141
f 317/25/75 318/24/33 319/29/34
f 317/25/75 319/29/34 320/126/140
f 321/74/71 322/77/72 323/127/141
f 321/74/71 323/127/141 324/128/79
f 325/129/71 326/74/72 327/128/79
f 325/129/71 327/128/79 328/130/76
f 329/129/142 330/131/36 331/75/36
f 329/129/142 331/75/36 332/74/142
f 333/72/29 334/75/75 335/132/143
f 333/72/29 335/132/143 336/73/80
f 337/75/144 338/131/20 339/133/145
f 337/75/144 339/133/145 340/132/143
f 341/131/25 342/31/20 343/134/32
f 341/131/25 343/134/32 344/133/145
f 345/32/146 346/31/146 347/131/147
f 345/32/146 347/131/147 348/129/146
f 349/31/30 350/30/30 351/70/78
f 349/31/30 351/70/78 352/134/32
f 353/32/21 354/129/21 355/130/76
f 353/32/21 355/130/76 356/135/77
f 357/26/142 358/32/21 359/135/77
f 357/26/142 359/135/77 360/27/31
f 361/135/77 362/130/76 363/136/21
f 361/135/77 363/136/21 364/27/31
f 365/130/76 366/128/79 367/127/141
f 365/130/76 367/127/141 368/136/21
f 369/27/31 370/136/21 371/29/34
f 369/27/31 371/29/34 372/28/32
f 373/136/21 374/127/141 375/126/143
f 373/136/21 375/126/143 376/29/34
f 377/70/78 378/137/30 379/133/145
f 377/70/78 379/133/145 380/134/32
f 381/69/77 382/68/76 383/137/30
f 381/69/77 383/137/30 384/70/78
f 385/137/30 386/73/80 387/132/143
f 385/137/30 387/132/143 388/133/145
f 389/68/76 390/71/79 391/73/80
f 389/68/76 391/73/80 392/137/30
