# Blender 5.2.0 LTS
# www.blender.org
mtllib button_11.mtl
o button_11
v -0.501941 0.210426 -0.052304
v -0.502382 0.215569 -0.052304
v -0.502382 0.215569 -0.086959
v -0.501941 0.210426 -0.087153
v -0.501941 0.210426 -0.052304
v -0.501941 0.210426 -0.017455
v -0.502382 0.215569 -0.017649
v -0.502382 0.215569 -0.052304
v -0.492141 0.191523 -0.052304
v -0.501941 0.210426 -0.052304
v -0.501941 0.210426 -0.087153
v -0.492141 0.191523 -0.087153
v -0.492141 0.191523 -0.017455
v -0.501941 0.210426 -0.017455
v -0.501941 0.210426 -0.052304
v -0.492141 0.191523 -0.052304
v -0.492141 0.191523 -0.087153
v -0.501941 0.210426 -0.087153
v -0.501037 0.210894 -0.092272
v -0.491237 0.191991 -0.092272
v -0.501941 0.210426 -0.087153
v -0.502382 0.215569 -0.086959
v -0.501580 0.215985 -0.091501
v -0.501037 0.210894 -0.092272
v -0.502382 0.215569 -0.052304
v -0.499057 0.219518 -0.052304
v -0.499057 0.219518 -0.086489
v -0.502382 0.215569 -0.086959
v -0.502382 0.215569 -0.086959
v -0.499057 0.219518 -0.086489
v -0.498501 0.219806 -0.089641
v -0.501580 0.215985 -0.091501
v -0.496256 0.220970 -0.059976
v -0.499057 0.219518 -0.086489
v -0.499057 0.219518 -0.052304
v -0.497153 0.220505 -0.052304
v -0.493627 0.222333 -0.067125
v -0.498501 0.219806 -0.089641
v -0.499057 0.219518 -0.086489
v -0.496256 0.220970 -0.059976
v -0.492703 0.221493 -0.052304
v -0.489702 0.223049 -0.064923
v -0.493627 0.222333 -0.067125
v -0.496256 0.220970 -0.059976
v -0.497153 0.220505 -0.052304
v -0.496256 0.220970 -0.044632
v -0.493627 0.222333 -0.037483
v -0.489702 0.223049 -0.039686
v -0.492703 0.221493 -0.052304
v -0.497153 0.220505 -0.052304
v -0.497153 0.220505 -0.052304
v -0.499057 0.219518 -0.052304
v -0.499057 0.219518 -0.018119
v -0.496256 0.220970 -0.044632
v -0.496256 0.220970 -0.044632
v -0.499057 0.219518 -0.018119
v -0.498501 0.219806 -0.014968
v -0.493627 0.222333 -0.037483
v -0.502382 0.215569 -0.052304
v -0.502382 0.215569 -0.017649
v -0.499057 0.219518 -0.018119
v -0.499057 0.219518 -0.052304
v -0.501580 0.215985 -0.013107
v -0.498501 0.219806 -0.014968
v -0.499057 0.219518 -0.018119
v -0.502382 0.215569 -0.017649
v -0.501037 0.210894 -0.012336
v -0.501580 0.215985 -0.013107
v -0.502382 0.215569 -0.017649
v -0.501941 0.210426 -0.017455
v -0.499393 0.217118 -0.009421
v -0.497250 0.220455 -0.012859
v -0.498501 0.219806 -0.014968
v -0.501580 0.215985 -0.013107
v -0.498463 0.212229 -0.007997
v -0.499393 0.217118 -0.009421
v -0.501580 0.215985 -0.013107
v -0.501037 0.210894 -0.012336
v -0.488663 0.193326 -0.007997
v -0.498463 0.212229 -0.007997
v -0.501037 0.210894 -0.012336
v -0.491237 0.191991 -0.012336
v -0.491237 0.191991 -0.012336
v -0.501037 0.210894 -0.012336
v -0.501941 0.210426 -0.017455
v -0.492141 0.191523 -0.017455
v -0.484811 0.195323 -0.005097
v -0.494610 0.214226 -0.005097
v -0.498463 0.212229 -0.007997
v -0.488663 0.193326 -0.007997
v -0.494610 0.214226 -0.005097
v -0.496121 0.218815 -0.006958
v -0.499393 0.217118 -0.009421
v -0.498463 0.212229 -0.007997
v -0.480266 0.197679 -0.004079
v -0.490066 0.216582 -0.004079
v -0.494610 0.214226 -0.005097
v -0.484811 0.195323 -0.005097
v -0.490066 0.216582 -0.004079
v -0.492088 0.220905 -0.006054
v -0.496121 0.218815 -0.006958
v -0.494610 0.214226 -0.005097
v -0.457933 0.209257 -0.004079
v -0.467733 0.228160 -0.004079
v -0.490066 0.216582 -0.004079
v -0.480266 0.197679 -0.004079
v -0.467733 0.228160 -0.004079
v -0.469928 0.232394 -0.006054
v -0.492088 0.220905 -0.006054
v -0.490066 0.216582 -0.004079
v -0.445400 0.239738 -0.004079
v -0.447768 0.243883 -0.006054
v -0.469928 0.232394 -0.006054
v -0.467733 0.228160 -0.004079
v -0.435600 0.220835 -0.004079
v -0.445400 0.239738 -0.004079
v -0.467733 0.228160 -0.004079
v -0.457933 0.209257 -0.004079
v -0.447768 0.243883 -0.006054
v -0.449094 0.245420 -0.010824
v -0.470837 0.234148 -0.010824
v -0.469928 0.232394 -0.006054
v -0.469928 0.232394 -0.006054
v -0.470837 0.234148 -0.010824
v -0.492581 0.222875 -0.010824
v -0.492088 0.220905 -0.006054
v -0.470837 0.234148 -0.022662
v -0.470837 0.234148 -0.010824
v -0.449094 0.245420 -0.010824
v -0.464026 0.237679 -0.023672
v -0.477648 0.230617 -0.023672
v -0.492581 0.222875 -0.010824
v -0.470837 0.234148 -0.010824
v -0.470837 0.234148 -0.022662
v -0.470298 0.233108 -0.027067
v -0.481501 0.227300 -0.030448
v -0.483995 0.227326 -0.026633
v -0.477648 0.230617 -0.023672
v -0.470837 0.234148 -0.022662
v -0.459096 0.238916 -0.030448
v -0.470298 0.233108 -0.027067
v -0.470837 0.234148 -0.022662
v -0.464026 0.237679 -0.023672
v -0.457679 0.240969 -0.026633
v -0.483995 0.227326 -0.026633
v -0.495378 0.221425 -0.011450
v -0.492581 0.222875 -0.010824
v -0.477648 0.230617 -0.023672
v -0.489445 0.224501 -0.031344
v -0.483995 0.227326 -0.026633
v -0.481501 0.227300 -0.030448
v -0.489702 0.223049 -0.039686
v -0.493627 0.222333 -0.037483
v -0.489445 0.224501 -0.031344
v -0.497250 0.220455 -0.012859
v -0.495378 0.221425 -0.011450
v -0.483995 0.227326 -0.026633
v -0.496121 0.218815 -0.006958
v -0.495378 0.221425 -0.011450
v -0.497250 0.220455 -0.012859
v -0.499393 0.217118 -0.009421
v -0.492088 0.220905 -0.006054
v -0.492581 0.222875 -0.010824
v -0.495378 0.221425 -0.011450
v -0.496121 0.218815 -0.006958
v -0.493627 0.222333 -0.037483
v -0.498501 0.219806 -0.014968
v -0.497250 0.220455 -0.012859
v -0.489445 0.224501 -0.031344
v -0.484256 0.221993 -0.042196
v -0.489702 0.223049 -0.039686
v -0.481501 0.227300 -0.030448
v -0.477687 0.225399 -0.034797
v -0.468713 0.230051 -0.032089
v -0.477687 0.225399 -0.034797
v -0.481501 0.227300 -0.030448
v -0.470298 0.233108 -0.027067
v -0.484256 0.221993 -0.042196
v -0.477687 0.225399 -0.034797
v -0.466880 0.226514 -0.052304
v -0.466880 0.226514 -0.052304
v -0.477687 0.225399 -0.034797
v -0.468713 0.230051 -0.032089
v -0.466880 0.226514 -0.052304
v -0.468713 0.230051 -0.032089
v -0.459740 0.234703 -0.034797
v -0.486660 0.220747 -0.052304
v -0.484256 0.221993 -0.042196
v -0.466880 0.226514 -0.052304
v -0.484256 0.221993 -0.062412
v -0.486660 0.220747 -0.052304
v -0.466880 0.226514 -0.052304
v -0.477687 0.225399 -0.069811
v -0.484256 0.221993 -0.062412
v -0.466880 0.226514 -0.052304
v -0.468713 0.230051 -0.072519
v -0.477687 0.225399 -0.069811
v -0.466880 0.226514 -0.052304
v -0.466880 0.226514 -0.052304
v -0.459740 0.234703 -0.069811
v -0.468713 0.230051 -0.072519
v -0.453171 0.238109 -0.062412
v -0.459740 0.234703 -0.069811
v -0.466880 0.226514 -0.052304
v -0.450766 0.239355 -0.052304
v -0.453171 0.238109 -0.062412
v -0.466880 0.226514 -0.052304
v -0.453171 0.238109 -0.042196
v -0.450766 0.239355 -0.052304
v -0.466880 0.226514 -0.052304
v -0.459740 0.234703 -0.034797
v -0.453171 0.238109 -0.042196
v -0.466880 0.226514 -0.052304
v -0.459740 0.234703 -0.034797
v -0.459096 0.238916 -0.030448
v -0.450895 0.243167 -0.039686
v -0.453171 0.238109 -0.042196
v -0.459740 0.234703 -0.034797
v -0.468713 0.230051 -0.032089
v -0.470298 0.233108 -0.027067
v -0.459096 0.238916 -0.030448
v -0.452229 0.243795 -0.031344
v -0.448047 0.245963 -0.037483
v -0.450895 0.243167 -0.039686
v -0.459096 0.238916 -0.030448
v -0.457679 0.240969 -0.026633
v -0.457679 0.240969 -0.026633
v -0.446296 0.246871 -0.011450
v -0.444424 0.247841 -0.012859
v -0.452229 0.243795 -0.031344
v -0.464026 0.237679 -0.023672
v -0.449094 0.245420 -0.010824
v -0.446296 0.246871 -0.011450
v -0.457679 0.240969 -0.026633
v -0.443735 0.245973 -0.006958
v -0.446296 0.246871 -0.011450
v -0.449094 0.245420 -0.010824
v -0.447768 0.243883 -0.006054
v -0.440463 0.247670 -0.009421
v -0.444424 0.247841 -0.012859
v -0.446296 0.246871 -0.011450
v -0.443735 0.245973 -0.006958
v -0.440856 0.242094 -0.005097
v -0.443735 0.245973 -0.006958
v -0.447768 0.243883 -0.006054
v -0.445400 0.239738 -0.004079
v -0.437003 0.244091 -0.007997
v -0.440463 0.247670 -0.009421
v -0.443735 0.245973 -0.006958
v -0.440856 0.242094 -0.005097
v -0.431056 0.223191 -0.005097
v -0.440856 0.242094 -0.005097
v -0.445400 0.239738 -0.004079
v -0.435600 0.220835 -0.004079
v -0.427203 0.225188 -0.007997
v -0.437003 0.244091 -0.007997
v -0.440856 0.242094 -0.005097
v -0.431056 0.223191 -0.005097
v -0.424629 0.226523 -0.012336
v -0.434429 0.245426 -0.012336
v -0.437003 0.244091 -0.007997
v -0.427203 0.225188 -0.007997
v -0.434429 0.245426 -0.012336
v -0.438276 0.248803 -0.013107
v -0.440463 0.247670 -0.009421
v -0.437003 0.244091 -0.007997
v -0.423725 0.226991 -0.017455
v -0.433525 0.245894 -0.017455
v -0.434429 0.245426 -0.012336
v -0.424629 0.226523 -0.012336
v -0.433525 0.245894 -0.017455
v -0.437474 0.249219 -0.017649
v -0.438276 0.248803 -0.013107
v -0.434429 0.245426 -0.012336
v -0.423725 0.226991 -0.052304
v -0.433525 0.245894 -0.052304
v -0.433525 0.245894 -0.017455
v -0.423725 0.226991 -0.017455
v -0.433525 0.245894 -0.052304
v -0.437474 0.249219 -0.052304
v -0.437474 0.249219 -0.017649
v -0.433525 0.245894 -0.017455
v -0.423725 0.226991 -0.087153
v -0.433525 0.245894 -0.087153
v -0.433525 0.245894 -0.052304
v -0.423725 0.226991 -0.052304
v -0.433525 0.245894 -0.087153
v -0.437474 0.249219 -0.086959
v -0.437474 0.249219 -0.052304
v -0.433525 0.245894 -0.052304
v -0.442617 0.248778 -0.052304
v -0.437474 0.249219 -0.052304
v -0.437474 0.249219 -0.086959
v -0.442617 0.248778 -0.086489
v -0.437474 0.249219 -0.052304
v -0.442617 0.248778 -0.052304
v -0.442617 0.248778 -0.018119
v -0.437474 0.249219 -0.017649
v -0.444522 0.247791 -0.052304
v -0.442617 0.248778 -0.052304
v -0.442617 0.248778 -0.086489
v -0.445418 0.247326 -0.059976
v -0.445418 0.247326 -0.044632
v -0.442617 0.248778 -0.018119
v -0.442617 0.248778 -0.052304
v -0.444522 0.247791 -0.052304
v -0.447893 0.244723 -0.052304
v -0.450895 0.243167 -0.039686
v -0.448047 0.245963 -0.037483
v -0.445418 0.247326 -0.044632
v -0.444522 0.247791 -0.052304
v -0.445418 0.247326 -0.059976
v -0.448047 0.245963 -0.067125
v -0.450895 0.243167 -0.064923
v -0.447893 0.244723 -0.052304
v -0.444522 0.247791 -0.052304
v -0.448047 0.245963 -0.037483
v -0.443174 0.248489 -0.014968
v -0.442617 0.248778 -0.018119
v -0.445418 0.247326 -0.044632
v -0.452229 0.243795 -0.031344
v -0.444424 0.247841 -0.012859
v -0.443174 0.248489 -0.014968
v -0.448047 0.245963 -0.037483
v -0.438276 0.248803 -0.013107
v -0.443174 0.248489 -0.014968
v -0.444424 0.247841 -0.012859
v -0.440463 0.247670 -0.009421
v -0.437474 0.249219 -0.017649
v -0.442617 0.248778 -0.018119
v -0.443174 0.248489 -0.014968
v -0.438276 0.248803 -0.013107
v -0.445418 0.247326 -0.059976
v -0.442617 0.248778 -0.086489
v -0.443174 0.248489 -0.089641
v -0.448047 0.245963 -0.067125
v -0.452229 0.243795 -0.073264
v -0.457679 0.240969 -0.077975
v -0.459096 0.238916 -0.074160
v -0.450895 0.243167 -0.064923
v -0.448047 0.245963 -0.067125
v -0.448047 0.245963 -0.067125
v -0.443174 0.248489 -0.089641
v -0.444424 0.247841 -0.091749
v -0.452229 0.243795 -0.073264
v -0.438276 0.248803 -0.091501
v -0.443174 0.248489 -0.089641
v -0.442617 0.248778 -0.086489
v -0.437474 0.249219 -0.086959
v -0.440463 0.247670 -0.095187
v -0.444424 0.247841 -0.091749
v -0.443174 0.248489 -0.089641
v -0.438276 0.248803 -0.091501
v -0.434429 0.245426 -0.092272
v -0.438276 0.248803 -0.091501
v -0.437474 0.249219 -0.086959
v -0.433525 0.245894 -0.087153
v -0.437003 0.244091 -0.096611
v -0.440463 0.247670 -0.095187
v -0.438276 0.248803 -0.091501
v -0.434429 0.245426 -0.092272
v -0.427203 0.225188 -0.096611
v -0.437003 0.244091 -0.096611
v -0.434429 0.245426 -0.092272
v -0.424629 0.226523 -0.092272
v -0.424629 0.226523 -0.092272
v -0.434429 0.245426 -0.092272
v -0.433525 0.245894 -0.087153
v -0.423725 0.226991 -0.087153
v -0.431056 0.223191 -0.099511
v -0.440856 0.242094 -0.099511
v -0.437003 0.244091 -0.096611
v -0.427203 0.225188 -0.096611
v -0.440856 0.242094 -0.099511
v -0.443735 0.245973 -0.097650
v -0.440463 0.247670 -0.095187
v -0.437003 0.244091 -0.096611
v -0.435600 0.220835 -0.100529
v -0.445400 0.239738 -0.100529
v -0.440856 0.242094 -0.099511
v -0.431056 0.223191 -0.099511
v -0.445400 0.239738 -0.100529
v -0.447768 0.243883 -0.098554
v -0.443735 0.245973 -0.097650
v -0.440856 0.242094 -0.099511
v -0.457933 0.209257 -0.100529
v -0.467733 0.228160 -0.100529
v -0.445400 0.239738 -0.100529
v -0.435600 0.220835 -0.100529
v -0.467733 0.228160 -0.100529
v -0.469928 0.232394 -0.098554
v -0.447768 0.243883 -0.098554
v -0.445400 0.239738 -0.100529
v -0.490066 0.216582 -0.100529
v -0.492088 0.220905 -0.098554
v -0.469928 0.232394 -0.098554
v -0.467733 0.228160 -0.100529
v -0.480266 0.197679 -0.100529
v -0.490066 0.216582 -0.100529
v -0.467733 0.228160 -0.100529
v -0.457933 0.209257 -0.100529
v -0.492088 0.220905 -0.098554
v -0.492581 0.222875 -0.093785
v -0.470837 0.234148 -0.093785
v -0.469928 0.232394 -0.098554
v -0.469928 0.232394 -0.098554
v -0.470837 0.234148 -0.093785
v -0.449094 0.245420 -0.093785
v -0.447768 0.243883 -0.098554
v -0.470837 0.234148 -0.081946
v -0.470837 0.234148 -0.093785
v -0.492581 0.222875 -0.093785
v -0.477648 0.230617 -0.080936
v -0.464026 0.237679 -0.080936
v -0.449094 0.245420 -0.093785
v -0.470837 0.234148 -0.093785
v -0.470837 0.234148 -0.081946
v -0.470298 0.233108 -0.077541
v -0.459096 0.238916 -0.074160
v -0.457679 0.240969 -0.077975
v -0.464026 0.237679 -0.080936
v -0.470837 0.234148 -0.081946
v -0.477648 0.230617 -0.080936
v -0.483995 0.227326 -0.077975
v -0.481501 0.227300 -0.074160
v -0.470298 0.233108 -0.077541
v -0.470837 0.234148 -0.081946
v -0.457679 0.240969 -0.077975
v -0.446296 0.246871 -0.093158
v -0.449094 0.245420 -0.093785
v -0.464026 0.237679 -0.080936
v -0.452229 0.243795 -0.073264
v -0.444424 0.247841 -0.091749
v -0.446296 0.246871 -0.093158
v -0.457679 0.240969 -0.077975
v -0.443735 0.245973 -0.097650
v -0.446296 0.246871 -0.093158
v -0.444424 0.247841 -0.091749
v -0.440463 0.247670 -0.095187
v -0.447768 0.243883 -0.098554
v -0.449094 0.245420 -0.093785
v -0.446296 0.246871 -0.093158
v -0.443735 0.245973 -0.097650
v -0.453171 0.238109 -0.062412
v -0.450895 0.243167 -0.064923
v -0.459096 0.238916 -0.074160
v -0.459740 0.234703 -0.069811
v -0.468713 0.230051 -0.072519
v -0.459740 0.234703 -0.069811
v -0.459096 0.238916 -0.074160
v -0.470298 0.233108 -0.077541
v -0.477648 0.230617 -0.080936
v -0.492581 0.222875 -0.093785
v -0.495378 0.221425 -0.093158
v -0.483995 0.227326 -0.077975
v -0.489445 0.224501 -0.073264
v -0.493627 0.222333 -0.067125
v -0.489702 0.223049 -0.064923
v -0.481501 0.227300 -0.074160
v -0.483995 0.227326 -0.077975
v -0.483995 0.227326 -0.077975
v -0.495378 0.221425 -0.093158
v -0.497250 0.220455 -0.091749
v -0.489445 0.224501 -0.073264
v -0.496121 0.218815 -0.097650
v -0.495378 0.221425 -0.093158
v -0.492581 0.222875 -0.093785
v -0.492088 0.220905 -0.098554
v -0.499393 0.217118 -0.095187
v -0.497250 0.220455 -0.091749
v -0.495378 0.221425 -0.093158
v -0.496121 0.218815 -0.097650
v -0.494610 0.214226 -0.099511
v -0.496121 0.218815 -0.097650
v -0.492088 0.220905 -0.098554
v -0.490066 0.216582 -0.100529
v -0.498463 0.212229 -0.096611
v -0.499393 0.217118 -0.095187
v -0.496121 0.218815 -0.097650
v -0.494610 0.214226 -0.099511
v -0.488663 0.193326 -0.096611
v -0.498463 0.212229 -0.096611
v -0.494610 0.214226 -0.099511
v -0.484811 0.195323 -0.099511
v -0.484811 0.195323 -0.099511
v -0.494610 0.214226 -0.099511
v -0.490066 0.216582 -0.100529
v -0.480266 0.197679 -0.100529
v -0.491237 0.191991 -0.092272
v -0.501037 0.210894 -0.092272
v -0.498463 0.212229 -0.096611
v -0.488663 0.193326 -0.096611
v -0.501037 0.210894 -0.092272
v -0.501580 0.215985 -0.091501
v -0.499393 0.217118 -0.095187
v -0.498463 0.212229 -0.096611
v -0.501580 0.215985 -0.091501
v -0.498501 0.219806 -0.089641
v -0.497250 0.220455 -0.091749
v -0.499393 0.217118 -0.095187
v -0.489445 0.224501 -0.073264
v -0.497250 0.220455 -0.091749
v -0.498501 0.219806 -0.089641
v -0.493627 0.222333 -0.067125
v -0.477687 0.225399 -0.069811
v -0.481501 0.227300 -0.074160
v -0.489702 0.223049 -0.064923
v -0.484256 0.221993 -0.062412
v -0.468713 0.230051 -0.072519
v -0.470298 0.233108 -0.077541
v -0.481501 0.227300 -0.074160
v -0.477687 0.225399 -0.069811
v -0.486660 0.220747 -0.052304
v -0.484256 0.221993 -0.062412
v -0.489702 0.223049 -0.064923
v -0.492703 0.221493 -0.052304
v -0.450766 0.239355 -0.052304
v -0.447893 0.244723 -0.052304
v -0.450895 0.243167 -0.064923
v -0.453171 0.238109 -0.062412
v -0.450766 0.239355 -0.052304
v -0.453171 0.238109 -0.042196
v -0.450895 0.243167 -0.039686
v -0.447893 0.244723 -0.052304
v -0.486660 0.220747 -0.052304
v -0.492703 0.221493 -0.052304
v -0.489702 0.223049 -0.039686
v -0.484256 0.221993 -0.042196
vn -0.8879 -0.4600 -0.0000
vn -0.9538 0.3005 -0.0000
vn -0.9549 0.2966 -0.0164
vn -0.8879 -0.4600 -0.0001
vn -0.8879 -0.4600 0.0001
vn -0.9549 0.2966 0.0164
vn -0.8878 -0.4603 -0.0000
vn -0.8879 -0.4600 0.0002
vn -0.8878 -0.4603 -0.0002
vn -0.8879 -0.4601 -0.0001
vn -0.8517 -0.3591 -0.3817
vn -0.8202 -0.4252 -0.3827
vn -0.9174 0.2827 -0.2800
vn -0.4605 0.8877 -0.0000
vn -0.4604 0.8877 -0.0001
vn -0.4602 0.8878 -0.0000
vn -0.4607 0.8876 -0.0000
vn -0.4599 0.8880 -0.0000
vn -0.4600 0.8879 0.0002
vn -0.4605 0.8876 -0.0001
vn -0.4601 0.8879 -0.0000
vn -0.4603 0.8878 -0.0000
vn -0.4600 0.8879 -0.0000
vn -0.0631 0.9980 -0.0000
vn -0.1111 0.9731 0.2016
vn -0.4600 0.8879 0.0001
vn -0.4600 0.8879 -0.0001
vn -0.1112 0.9731 -0.2016
vn -0.4605 0.8876 -0.0000
vn -0.4603 0.8877 -0.0000
vn -0.4605 0.8876 0.0001
vn -0.4604 0.8877 -0.0000
vn -0.9174 0.2827 0.2800
vn -0.4605 0.8877 0.0001
vn -0.8517 -0.3591 0.3817
vn -0.8879 -0.4601 0.0001
vn -0.7748 0.3480 0.5278
vn -0.4605 0.8877 0.0002
vn -0.6594 -0.2603 0.7053
vn -0.6278 -0.3255 0.7071
vn -0.8202 -0.4252 0.3827
vn -0.8202 -0.4252 0.3826
vn -0.8878 -0.4603 0.0001
vn -0.3398 -0.1761 0.9239
vn -0.3725 -0.1108 0.9214
vn -0.6278 -0.3254 0.7071
vn -0.5584 0.4688 0.6844
vn -0.0001 -0.0001 1.0000
vn -0.0002 0.0001 1.0000
vn -0.3422 0.6126 0.7125
vn -0.0000 -0.0000 1.0000
vn -0.0001 0.0002 1.0000
vn -0.3246 0.6260 0.7090
vn -0.0000 0.0002 1.0000
vn -0.3034 0.6327 0.7125
vn -0.3246 0.6261 0.7090
vn -0.4603 0.8878 0.0002
vn -0.4602 0.8878 0.0002
vn -0.3246 0.6261 0.7089
vn -0.4602 0.8878 -0.0003
vn -0.4603 0.8878 0.0003
vn -0.4602 0.8878 -0.0002
vn -0.4603 0.8878 -0.0003
vn -0.4212 0.8124 -0.4032
vn -0.2421 0.9052 -0.3493
vn -0.4602 0.8878 -0.0001
vn -0.4603 0.8878 -0.0002
vn -0.4603 0.8878 -0.0001
vn -0.6002 0.7196 -0.3493
vn -0.4212 0.8124 -0.4033
vn -0.4601 0.8879 -0.0003
vn -0.4606 0.8876 0.0002
vn -0.4601 0.8879 0.0001
vn -0.1632 0.9711 -0.1744
vn -0.1111 0.9731 -0.2017
vn -0.2420 0.9052 -0.3493
vn -0.2765 0.9123 -0.3021
vn -0.4313 0.8320 -0.3489
vn -0.4313 0.8321 -0.3488
vn -0.5862 0.7518 -0.3021
vn -0.1217 0.9926 -0.0000
vn -0.1632 0.9711 0.1744
vn -0.2765 0.9123 0.3021
vn -0.4314 0.8320 0.3488
vn -0.4603 0.8878 0.0001
vn -0.5862 0.7517 0.3021
vn -0.6995 0.6930 0.1744
vn -0.7411 0.6714 -0.0000
vn -0.6996 0.6929 -0.1744
vn -0.5862 0.7518 -0.3020
vn -0.5862 0.7517 -0.3021
vn -0.6002 0.7195 -0.3493
vn -0.7313 0.6516 -0.2016
vn -0.7312 0.6517 -0.2016
vn -0.4603 0.8877 0.0001
vn -0.4601 0.8879 0.0003
vn -0.0613 0.7265 0.6844
vn 0.1622 0.8338 0.5277
vn 0.3052 0.2406 0.9214
vn 0.5928 0.3889 0.7052
vn 0.3397 0.1761 0.9239
vn 0.6278 0.3254 0.7071
vn 0.8202 0.4252 0.3827
vn 0.7844 0.4889 0.3817
vn 0.6278 0.3255 0.7071
vn 0.7843 0.4890 0.3817
vn 0.2978 0.9126 0.2800
vn 0.8878 0.4603 0.0001
vn 0.8877 0.4604 0.0001
vn 0.7844 0.4890 0.3816
vn 0.8203 0.4252 0.3826
vn 0.3079 0.9513 0.0164
vn 0.8878 0.4603 -0.0000
vn 0.8876 0.4606 -0.0000
vn 0.8877 0.4604 -0.0000
vn 0.3042 0.9526 -0.0000
vn 0.8876 0.4605 -0.0001
vn 0.3079 0.9513 -0.0164
vn 0.8877 0.4605 -0.0000
vn -0.4601 0.8879 -0.0002
vn 0.3042 0.9526 0.0001
vn -0.4601 0.8879 -0.0001
vn -0.7792 0.6268 -0.0000
vn -0.4604 0.8877 0.0001
vn -0.7312 0.6517 0.2017
vn -0.4605 0.8877 -0.0002
vn 0.2978 0.9127 0.2800
vn -0.4599 0.8879 -0.0001
vn -0.6002 0.7196 0.3493
vn 0.2978 0.9127 -0.2800
vn 0.1622 0.8338 -0.5277
vn 0.7843 0.4890 -0.3817
vn 0.2978 0.9126 -0.2800
vn 0.5928 0.3889 -0.7052
vn 0.6278 0.3254 -0.7071
vn 0.8202 0.4252 -0.3827
vn 0.8202 0.4252 -0.3826
vn 0.7844 0.4890 -0.3816
vn 0.8877 0.4605 -0.0001
vn 0.8878 0.4602 -0.0002
vn 0.3397 0.1761 -0.9239
vn 0.3053 0.2405 -0.9214
vn 0.5927 0.3889 -0.7053
vn 0.3052 0.2405 -0.9214
vn -0.0613 0.7265 -0.6844
vn 0.5928 0.3889 -0.7053
vn 0.0001 -0.0000 -1.0000
vn -0.0000 0.0002 -1.0000
vn 0.3051 0.2405 -0.9214
vn 0.3396 0.1761 -0.9239
vn -0.3034 0.6327 -0.7125
vn -0.0000 -0.0000 -1.0000
vn -0.0001 0.0002 -1.0000
vn -0.3245 0.6259 -0.7092
vn -0.0002 0.0001 -1.0000
vn -0.3422 0.6126 -0.7125
vn -0.4601 0.8878 -0.0003
vn -0.4212 0.8124 0.4033
vn -0.6001 0.7196 0.3493
vn -0.4212 0.8124 0.4032
vn -0.4602 0.8878 0.0003
vn -0.2421 0.9052 0.3493
vn -0.4604 0.8877 0.0005
vn -0.7312 0.6516 0.2017
vn -0.6002 0.7195 0.3494
vn -0.4212 0.8123 0.4033
vn -0.4602 0.8878 -0.0005
vn -0.4602 0.8878 0.0001
vn -0.4605 0.8876 -0.0002
vn -0.5584 0.4688 -0.6844
vn -0.7749 0.3480 -0.5277
vn -0.3725 -0.1108 -0.9214
vn -0.6595 -0.2603 -0.7052
vn -0.6277 -0.3255 -0.7071
vn -0.6594 -0.2603 -0.7052
vn -0.3398 -0.1761 -0.9238
vn -0.3398 -0.1761 -0.9239
vn -0.0001 -0.0000 -1.0000
vn -0.6278 -0.3255 -0.7071
vn -0.4599 0.8880 0.0002
vn -0.2764 0.9123 0.3021
vn -0.1111 0.9731 0.2017
vn -0.1216 0.9926 -0.0000
vn -0.1631 0.9711 0.1744
vn -0.1110 0.9732 0.2016
vn -0.7313 0.6516 0.2017
vn -0.1111 0.9731 -0.2016
vt 0.795981 0.146923
vt 0.792984 0.146923
vt 0.792984 0.167080
vt 0.795981 0.167080
vt 0.795981 0.126766
vt 0.792984 0.126766
vt 0.808319 0.146923
vt 0.808319 0.167080
vt 0.808319 0.126766
vt 0.795981 0.169990
vt 0.808319 0.169990
vt 0.792984 0.169990
vt 0.950218 0.051257
vt 0.947176 0.051258
vt 0.947095 0.071363
vt 0.950139 0.071690
vt 0.946709 0.073197
vt 0.949570 0.074411
vt 0.945304 0.055768
vt 0.945910 0.051259
vt 0.943554 0.059965
vt 0.943239 0.051260
vt 0.941250 0.058623
vt 0.945299 0.046749
vt 0.943544 0.042551
vt 0.941237 0.043896
vt 0.947081 0.031151
vt 0.946694 0.029317
vt 0.950125 0.030823
vt 0.949554 0.028103
vt 0.795981 0.123855
vt 0.792984 0.123855
vt 0.948056 0.025892
vt 0.945865 0.028100
vt 0.795981 0.120982
vt 0.792984 0.120982
vt 0.808319 0.120982
vt 0.808319 0.123855
vt 0.808319 0.303164
vt 0.795981 0.303164
vt 0.795981 0.306036
vt 0.808319 0.306036
vt 0.792984 0.303164
vt 0.792984 0.306036
vt 0.808319 0.300253
vt 0.795981 0.300253
vt 0.792984 0.300253
vt 0.808319 0.285713
vt 0.795981 0.285713
vt 0.792984 0.285713
vt 0.795981 0.271173
vt 0.792984 0.271173
vt 0.808319 0.271173
vt 0.913776 0.024062
vt 0.914111 0.027081
vt 0.928427 0.026972
vt 0.928406 0.023941
vt 0.942802 0.026906
vt 0.943103 0.023853
vt 0.928467 0.033911
vt 0.923984 0.034523
vt 0.932962 0.034489
vt 0.928477 0.036571
vt 0.935834 0.038517
vt 0.937158 0.036209
vt 0.919813 0.036272
vt 0.921146 0.038563
vt 0.944640 0.027280
vt 0.940763 0.038960
vt 0.945833 0.024407
vt 0.938234 0.045643
vt 0.934120 0.041536
vt 0.928505 0.040039
vt 0.928514 0.051264
vt 0.922897 0.041550
vt 0.939755 0.051264
vt 0.938237 0.056889
vt 0.934115 0.060987
vt 0.928507 0.062485
vt 0.922903 0.060976
vt 0.918802 0.056873
vt 0.917297 0.051270
vt 0.918791 0.045659
vt 0.915792 0.043931
vt 0.916243 0.039029
vt 0.913497 0.042608
vt 0.912297 0.027466
vt 0.911089 0.028283
vt 0.911086 0.024640
vt 0.908901 0.026120
vt 0.795981 0.268262
vt 0.792984 0.268262
vt 0.795981 0.265390
vt 0.792984 0.265390
vt 0.808319 0.268262
vt 0.808319 0.265390
vt 0.808319 0.262518
vt 0.795981 0.262518
vt 0.792984 0.262518
vt 0.808319 0.259607
vt 0.795981 0.259607
vt 0.792984 0.259607
vt 0.808319 0.239450
vt 0.795981 0.239450
vt 0.792984 0.239450
vt 0.808319 0.219293
vt 0.795981 0.219293
vt 0.792984 0.219293
vt 0.909931 0.051257
vt 0.906914 0.051257
vt 0.906902 0.071510
vt 0.909921 0.071203
vt 0.909919 0.031322
vt 0.906902 0.031016
vt 0.911183 0.051257
vt 0.911775 0.055736
vt 0.911774 0.046781
vt 0.913836 0.051257
vt 0.913501 0.059911
vt 0.915797 0.058586
vt 0.910287 0.029501
vt 0.907448 0.028322
vt 0.910288 0.073025
vt 0.916247 0.063493
vt 0.919818 0.066252
vt 0.921152 0.063961
vt 0.911092 0.074243
vt 0.907448 0.074204
vt 0.908902 0.076407
vt 0.795981 0.216382
vt 0.792984 0.216382
vt 0.795981 0.213509
vt 0.792984 0.213509
vt 0.808319 0.213509
vt 0.808319 0.216382
vt 0.808319 0.210637
vt 0.795981 0.210637
vt 0.792984 0.210637
vt 0.808319 0.207726
vt 0.795981 0.207726
vt 0.792984 0.207726
vt 0.808319 0.193186
vt 0.795981 0.193186
vt 0.792984 0.193186
vt 0.795981 0.178646
vt 0.792984 0.178646
vt 0.808319 0.178646
vt 0.943119 0.078665
vt 0.942816 0.075611
vt 0.928436 0.075552
vt 0.928417 0.078584
vt 0.914115 0.075447
vt 0.913780 0.078467
vt 0.928473 0.068611
vt 0.932970 0.068030
vt 0.923990 0.068000
vt 0.928483 0.065952
vt 0.937167 0.066307
vt 0.935841 0.063996
vt 0.912300 0.075060
vt 0.911089 0.077889
vt 0.944654 0.075237
vt 0.940773 0.063556
vt 0.945880 0.074416
vt 0.945850 0.078110
vt 0.948072 0.076623
vt 0.795981 0.175735
vt 0.792984 0.175735
vt 0.795981 0.172863
vt 0.792984 0.172863
vt 0.808319 0.172863
vt 0.808319 0.175735
s 1
f 1/1/1 2/2/2 3/3/3
f 1/1/1 3/3/3 4/4/4
f 5/1/1 6/5/5 7/6/6
f 5/1/1 7/6/6 8/2/2
f 9/7/7 10/1/7 11/4/7
f 9/7/7 11/4/7 12/8/7
f 13/9/7 14/5/8 15/1/7
f 13/9/7 15/1/7 16/7/7
f 17/8/9 18/4/10 19/10/11
f 17/8/9 19/10/11 20/11/12
f 21/4/10 22/3/3 23/12/13
f 21/4/10 23/12/13 24/10/11
f 25/13/2 26/14/14 27/15/14
f 25/13/2 27/15/14 28/16/3
f 29/16/3 30/15/14 31/17/15
f 29/16/3 31/17/15 32/18/13
f 33/19/16 34/15/17 35/14/16
f 33/19/16 35/14/16 36/20/18
f 37/21/19 38/17/20 39/15/21
f 37/21/19 39/15/21 40/19/22
f 44/19/21 45/20/23 41/22/24
f 41/22/24 42/23/25 43/21/26
f 43/21/26 44/19/21 41/22/24
f 49/22/24 50/20/23 46/24/27
f 46/24/27 47/25/27 48/26/28
f 48/26/28 49/22/24 46/24/27
f 51/20/16 52/14/29 53/27/16
f 51/20/16 53/27/16 54/24/16
f 55/24/22 56/27/30 57/28/31
f 55/24/22 57/28/31 58/25/22
f 59/13/2 60/29/6 61/27/32
f 59/13/2 61/27/32 62/14/14
f 63/30/33 64/28/34 65/27/32
f 63/30/33 65/27/32 66/29/6
f 67/31/35 68/32/33 69/6/6
f 67/31/35 69/6/6 70/5/36
f 71/33/37 72/34/38 73/28/34
f 71/33/37 73/28/34 74/30/33
f 75/35/39 76/36/37 77/32/33
f 75/35/39 77/32/33 78/31/35
f 79/37/40 80/35/39 81/31/35
f 79/37/40 81/31/35 82/38/41
f 83/38/42 84/31/35 85/5/36
f 83/38/42 85/5/36 86/9/43
f 87/39/44 88/40/45 89/41/39
f 87/39/44 89/41/39 90/42/46
f 91/40/45 92/43/47 93/44/37
f 91/40/45 93/44/37 94/41/39
f 95/45/48 96/46/49 97/40/45
f 95/45/48 97/40/45 98/39/44
f 99/46/49 100/47/50 101/43/47
f 99/46/49 101/43/47 102/40/45
f 103/48/51 104/49/51 105/46/51
f 103/48/51 105/46/51 106/45/51
f 107/49/52 108/50/53 109/47/50
f 107/49/52 109/47/50 110/46/49
f 111/51/54 112/52/55 113/50/56
f 111/51/54 113/50/56 114/49/52
f 115/53/51 116/51/51 117/49/51
f 115/53/51 117/49/51 118/48/51
f 119/54/55 120/55/57 121/56/58
f 119/54/55 121/56/58 122/57/59
f 123/57/56 124/56/57 125/58/57
f 123/57/56 125/58/57 126/59/50
f 127/60/16 128/56/16 129/55/16
f 127/60/16 129/55/16 130/61/16
f 131/62/60 132/58/61 133/56/22
f 131/62/60 133/56/22 134/60/16
f 138/62/62 139/60/63 135/63/64
f 135/63/64 136/64/65 137/65/66
f 137/65/66 138/62/62 135/63/64
f 143/61/67 144/66/68 140/67/69
f 140/67/69 141/63/70 142/60/67
f 142/60/67 143/61/67 140/67/69
f 145/65/22 146/68/16 147/58/22
f 145/65/22 147/58/22 148/62/71
f 152/26/28 153/25/27 149/69/66
f 149/69/66 150/65/66 151/64/65
f 151/64/65 152/26/28 149/69/66
f 154/69/16 155/34/72 156/68/73
f 154/69/16 156/68/73 157/65/16
f 158/70/47 159/68/61 160/34/38
f 158/70/47 160/34/38 161/33/37
f 162/59/50 163/58/57 164/68/57
f 162/59/50 164/68/57 165/70/47
f 166/25/22 167/28/32 168/34/32
f 166/25/22 168/34/32 169/69/16
f 170/71/74 171/26/75 172/64/76
f 170/71/74 172/64/76 173/72/77
f 174/73/78 175/72/77 176/64/65
f 174/73/78 176/64/65 177/63/70
f 178/71/74 179/72/77 180/74/22
f 181/74/22 182/72/77 183/73/79
f 184/74/22 185/73/79 186/75/80
f 187/76/81 188/71/74 189/74/16
f 190/77/82 191/76/81 192/74/16
f 193/78/83 194/77/82 195/74/22
f 196/79/84 197/78/83 198/74/22
f 199/74/85 200/80/86 201/79/84
f 202/81/87 203/80/86 204/74/22
f 205/82/88 206/81/87 207/74/22
f 208/83/89 209/82/88 210/74/22
f 211/75/90 212/83/89 213/74/22
f 214/75/91 215/67/92 216/84/93
f 214/75/91 216/84/93 217/83/89
f 218/75/91 219/73/78 220/63/70
f 218/75/91 220/63/70 221/67/69
f 225/67/69 226/66/68 222/85/15
f 222/85/15 223/86/15 224/84/94
f 224/84/94 225/67/69 222/85/15
f 227/66/22 228/87/66 229/88/66
f 227/66/22 229/88/66 230/85/22
f 231/61/16 232/55/95 233/87/96
f 231/61/16 233/87/96 234/66/66
f 235/89/97 236/87/58 237/55/57
f 235/89/97 237/55/57 238/54/55
f 239/90/98 240/88/73 241/87/58
f 239/90/98 241/87/58 242/89/97
f 243/91/99 244/92/97 245/52/55
f 243/91/99 245/52/55 246/51/54
f 247/93/100 248/94/98 249/92/97
f 247/93/100 249/92/97 250/91/99
f 251/95/101 252/91/99 253/51/54
f 251/95/101 253/51/54 254/53/51
f 255/96/102 256/93/100 257/91/99
f 255/96/102 257/91/99 258/95/101
f 259/97/103 260/98/104 261/93/100
f 259/97/103 261/93/100 262/96/105
f 263/98/106 264/99/107 265/94/98
f 263/98/106 265/94/98 266/93/100
f 267/100/108 268/101/109 269/98/110
f 267/100/108 269/98/110 270/97/111
f 271/101/109 272/102/112 273/99/107
f 271/101/109 273/99/107 274/98/110
f 275/103/113 276/104/114 277/101/113
f 275/103/113 277/101/113 278/100/113
f 279/104/115 280/105/116 281/102/112
f 279/104/115 281/102/112 282/101/109
f 283/106/113 284/107/113 285/104/113
f 283/106/113 285/104/113 286/103/113
f 287/107/117 288/108/118 289/105/116
f 287/107/117 289/105/116 290/104/119
f 291/109/120 292/110/116 293/111/118
f 291/109/120 293/111/118 294/112/23
f 295/110/121 296/109/122 297/113/23
f 295/110/121 297/113/23 298/114/112
f 299/115/32 300/109/23 301/112/16
f 299/115/32 301/112/16 302/116/32
f 303/117/16 304/113/16 305/109/73
f 303/117/16 305/109/73 306/115/22
f 310/117/32 311/115/32 307/118/123
f 307/118/123 308/84/94 309/86/15
f 309/86/15 310/117/32 307/118/123
f 315/118/123 316/115/32 312/116/32
f 312/116/32 313/119/124 314/120/125
f 314/120/125 315/118/123 312/116/32
f 317/86/126 318/121/21 319/113/32
f 317/86/126 319/113/32 320/117/22
f 321/85/16 322/88/16 323/121/16
f 321/85/16 323/121/16 324/86/16
f 325/122/107 326/121/21 327/88/73
f 325/122/107 327/88/73 328/90/98
f 329/114/112 330/113/23 331/121/21
f 329/114/112 331/121/21 332/122/127
f 333/116/22 334/112/21 335/123/128
f 333/116/22 335/123/128 336/119/16
f 340/120/125 341/119/124 337/124/124
f 337/124/124 338/125/124 339/126/129
f 339/126/129 340/120/125 337/124/124
f 342/119/38 343/123/16 344/127/16
f 342/119/38 344/127/16 345/124/38
f 346/128/130 347/123/27 348/112/23
f 346/128/130 348/112/23 349/111/118
f 350/129/131 351/127/120 352/123/122
f 350/129/131 352/123/122 353/128/130
f 354/130/132 355/131/133 356/108/118
f 354/130/132 356/108/118 357/107/117
f 358/132/134 359/133/131 360/131/133
f 358/132/134 360/131/133 361/130/132
f 362/134/135 363/132/134 364/130/132
f 362/134/135 364/130/132 365/135/136
f 366/135/137 367/130/138 368/107/139
f 366/135/137 368/107/139 369/106/140
f 370/136/141 371/137/142 372/132/143
f 370/136/141 372/132/143 373/134/135
f 374/137/144 375/138/145 376/133/131
f 374/137/144 376/133/131 377/132/146
f 378/139/147 379/140/148 380/137/149
f 378/139/147 380/137/149 381/136/150
f 382/140/148 383/141/151 384/138/145
f 382/140/148 384/138/145 385/137/144
f 386/142/152 387/143/152 388/140/152
f 386/142/152 388/140/152 389/139/152
f 390/143/153 391/144/154 392/141/151
f 390/143/153 392/141/151 393/140/148
f 394/145/155 395/146/156 396/144/154
f 394/145/155 396/144/154 397/143/153
f 398/147/152 399/145/152 400/143/152
f 398/147/152 400/143/152 401/142/152
f 402/148/156 403/149/67 404/150/157
f 402/148/156 404/150/157 405/151/154
f 406/151/154 407/150/60 408/152/60
f 406/151/154 408/152/60 409/153/151
f 410/154/22 411/150/22 412/149/22
f 410/154/22 412/149/22 413/155/22
f 414/156/22 415/152/60 416/150/60
f 414/156/22 416/150/60 417/154/22
f 421/156/57 422/154/57 418/157/158
f 418/157/158 419/126/159 420/125/85
f 420/125/85 421/156/57 418/157/158
f 426/157/160 427/154/61 423/155/161
f 423/155/161 424/158/58 425/159/162
f 425/159/162 426/157/160 423/155/161
f 428/125/16 429/160/15 430/152/30
f 428/125/16 430/152/30 431/156/163
f 432/124/22 433/127/73 434/160/16
f 432/124/22 434/160/16 435/125/22
f 436/161/145 437/160/62 438/127/71
f 436/161/145 438/127/71 439/129/131
f 440/153/151 441/152/60 442/160/62
f 440/153/151 442/160/62 443/161/145
f 444/81/87 445/120/164 446/126/129
f 444/81/87 446/126/129 447/80/86
f 448/79/84 449/80/86 450/126/165
f 448/79/84 450/126/165 451/157/166
f 452/155/22 453/149/16 454/162/167
f 452/155/22 454/162/167 455/158/85
f 459/159/162 460/158/168 456/163/168
f 456/163/168 457/21/73 458/23/25
f 458/23/25 459/159/162 456/163/168
f 461/158/16 462/162/122 463/164/169
f 461/158/16 463/164/169 464/163/16
f 465/165/170 466/162/60 467/149/67
f 465/165/170 467/149/67 468/148/156
f 469/166/171 470/164/126 471/162/60
f 469/166/171 471/162/60 472/165/170
f 473/167/172 474/168/170 475/146/156
f 473/167/172 475/146/156 476/145/155
f 477/169/173 478/170/171 479/168/170
f 477/169/173 479/168/170 480/167/172
f 481/171/174 482/169/175 483/167/172
f 481/171/174 483/167/172 484/172/176
f 485/172/177 486/167/172 487/145/155
f 485/172/177 487/145/155 488/147/178
f 489/11/12 490/10/11 491/169/173
f 489/11/12 491/169/173 492/171/179
f 493/10/11 494/12/13 495/170/171
f 493/10/11 495/170/171 496/169/173
f 497/18/13 498/17/15 499/164/126
f 497/18/13 499/164/126 500/166/171
f 501/163/96 502/164/126 503/17/124
f 501/163/96 503/17/124 504/21/180
f 505/78/181 506/159/162 507/23/182
f 505/78/181 507/23/182 508/77/82
f 509/79/84 510/157/158 511/159/162
f 509/79/84 511/159/162 512/78/83
f 513/76/183 514/77/184 515/23/185
f 513/76/183 515/23/185 516/22/24
f 517/82/88 518/118/123 519/120/186
f 517/82/88 519/120/186 520/81/87
f 521/82/88 522/83/89 523/84/93
f 521/82/88 523/84/93 524/118/123
f 525/76/183 526/22/24 527/26/187
f 525/76/183 527/26/187 528/71/74
