# Blender 5.2.0 LTS
# www.blender.org
mtllib button_09.mtl
o button_09
v 0.359942 0.260059 0.100529
v 0.404608 0.236902 0.100529
v 0.414408 0.255805 0.100529
v 0.369742 0.278962 0.100529
v 0.355398 0.262415 0.099511
v 0.359942 0.260059 0.100529
v 0.369742 0.278962 0.100529
v 0.365198 0.281318 0.099511
v 0.414408 0.255805 0.100529
v 0.416430 0.260129 0.098554
v 0.372109 0.283106 0.098554
v 0.369742 0.278962 0.100529
v 0.369742 0.278962 0.100529
v 0.372109 0.283106 0.098554
v 0.368077 0.285197 0.097650
v 0.365198 0.281318 0.099511
v 0.351545 0.264412 0.096611
v 0.355398 0.262415 0.099511
v 0.365198 0.281318 0.099511
v 0.361345 0.283315 0.096611
v 0.365198 0.281318 0.099511
v 0.368077 0.285197 0.097650
v 0.364804 0.286893 0.095187
v 0.361345 0.283315 0.096611
v 0.368077 0.285197 0.097650
v 0.370638 0.286094 0.093158
v 0.368766 0.287065 0.091749
v 0.364804 0.286893 0.095187
v 0.372109 0.283106 0.098554
v 0.373436 0.284644 0.093785
v 0.370638 0.286094 0.093158
v 0.368077 0.285197 0.097650
v 0.373436 0.284644 0.093785
v 0.392520 0.274750 0.062167
v 0.366959 0.288001 0.086489
v 0.367515 0.287713 0.089641
v 0.368766 0.287065 0.091749
v 0.370638 0.286094 0.093158
v 0.416430 0.260129 0.098554
v 0.416922 0.262099 0.093785
v 0.373436 0.284644 0.093785
v 0.372109 0.283106 0.098554
v 0.416922 0.262099 0.093785
v 0.397838 0.271993 0.062167
v 0.395179 0.273371 0.063408
v 0.392520 0.274750 0.062167
v 0.373436 0.284644 0.093785
v 0.392520 0.274750 0.062167
v 0.394133 0.276668 0.061617
v 0.393898 0.277409 0.059171
v 0.391418 0.275321 0.059171
v 0.395179 0.273371 0.063408
v 0.396558 0.276031 0.062167
v 0.394133 0.276668 0.061617
v 0.392520 0.274750 0.062167
v 0.392520 0.274750 0.056176
v 0.392520 0.274750 0.048432
v 0.391418 0.275321 0.045437
v 0.392520 0.274750 0.042441
v 0.366959 0.288001 0.018119
v 0.366959 0.288001 0.086489
v 0.392520 0.274750 0.062167
v 0.391418 0.275321 0.059171
v 0.362618 0.288027 0.091501
v 0.367515 0.287713 0.089641
v 0.366959 0.288001 0.086489
v 0.361816 0.288443 0.086959
v 0.361816 0.288443 0.086959
v 0.366959 0.288001 0.086489
v 0.366959 0.288001 0.018119
v 0.361816 0.288443 0.017649
v 0.364804 0.286893 0.095187
v 0.368766 0.287065 0.091749
v 0.367515 0.287713 0.089641
v 0.362618 0.288027 0.091501
v 0.361345 0.283315 0.096611
v 0.364804 0.286893 0.095187
v 0.362618 0.288027 0.091501
v 0.358771 0.284649 0.092272
v 0.358771 0.284649 0.092272
v 0.362618 0.288027 0.091501
v 0.361816 0.288443 0.086959
v 0.357867 0.285118 0.087154
v 0.348067 0.266215 0.087154
v 0.348971 0.265746 0.092272
v 0.358771 0.284649 0.092272
v 0.357867 0.285118 0.087154
v 0.348971 0.265746 0.092272
v 0.351545 0.264412 0.096611
v 0.361345 0.283315 0.096611
v 0.358771 0.284649 0.092272
v 0.348067 0.266215 0.017455
v 0.348067 0.266215 0.087154
v 0.357867 0.285118 0.087154
v 0.357867 0.285118 0.017455
v 0.348971 0.265746 0.012336
v 0.348067 0.266215 0.017455
v 0.357867 0.285118 0.017455
v 0.358771 0.284649 0.012336
v 0.357867 0.285118 0.017455
v 0.361816 0.288443 0.017649
v 0.362618 0.288027 0.013107
v 0.358771 0.284649 0.012336
v 0.357867 0.285118 0.087154
v 0.361816 0.288443 0.086959
v 0.361816 0.288443 0.017649
v 0.357867 0.285118 0.017455
v 0.361816 0.288443 0.017649
v 0.366959 0.288001 0.018119
v 0.367515 0.287713 0.014968
v 0.362618 0.288027 0.013107
v 0.358771 0.284649 0.012336
v 0.362618 0.288027 0.013107
v 0.364804 0.286893 0.009421
v 0.361345 0.283315 0.007997
v 0.362618 0.288027 0.013107
v 0.367515 0.287713 0.014968
v 0.368766 0.287065 0.012859
v 0.364804 0.286893 0.009421
v 0.366959 0.288001 0.018119
v 0.392520 0.274750 0.042441
v 0.373436 0.284644 0.010824
v 0.370638 0.286094 0.011450
v 0.368766 0.287065 0.012859
v 0.367515 0.287713 0.014968
v 0.364804 0.286893 0.009421
v 0.368766 0.287065 0.012859
v 0.370638 0.286094 0.011450
v 0.368077 0.285197 0.006958
v 0.368077 0.285197 0.006958
v 0.370638 0.286094 0.011450
v 0.373436 0.284644 0.010824
v 0.372109 0.283106 0.006055
v 0.372109 0.283106 0.006055
v 0.373436 0.284644 0.010824
v 0.416922 0.262099 0.010824
v 0.416430 0.260129 0.006055
v 0.392520 0.274750 0.042441
v 0.395179 0.273371 0.041201
v 0.397838 0.271993 0.042441
v 0.423399 0.258741 0.018119
v 0.422843 0.259030 0.014968
v 0.421592 0.259678 0.012859
v 0.419720 0.260649 0.011450
v 0.416922 0.262099 0.010824
v 0.373436 0.284644 0.010824
v 0.392520 0.274750 0.042441
v 0.394133 0.276668 0.042991
v 0.396558 0.276031 0.042441
v 0.395179 0.273371 0.041201
v 0.391418 0.275321 0.045437
v 0.393898 0.277409 0.045437
v 0.394133 0.276668 0.042991
v 0.392520 0.274750 0.042441
v 0.395179 0.273371 0.041201
v 0.396558 0.276031 0.042441
v 0.398476 0.274417 0.042991
v 0.397838 0.271993 0.042441
v 0.397838 0.271993 0.042441
v 0.398476 0.274417 0.042991
v 0.399217 0.274652 0.045437
v 0.398940 0.271422 0.045437
v 0.398940 0.271422 0.045437
v 0.397838 0.271993 0.048432
v 0.397838 0.271993 0.056176
v 0.398940 0.271422 0.059171
v 0.397838 0.271993 0.062167
v 0.423399 0.258741 0.086489
v 0.423399 0.258741 0.018119
v 0.397838 0.271993 0.042441
v 0.425922 0.255208 0.013107
v 0.422843 0.259030 0.014968
v 0.423399 0.258741 0.018119
v 0.426724 0.254792 0.017649
v 0.426724 0.254792 0.017649
v 0.423399 0.258741 0.018119
v 0.423399 0.258741 0.086489
v 0.426724 0.254792 0.086959
v 0.423735 0.256342 0.009421
v 0.421592 0.259678 0.012859
v 0.422843 0.259030 0.014968
v 0.425922 0.255208 0.013107
v 0.420463 0.258038 0.006958
v 0.419720 0.260649 0.011450
v 0.421592 0.259678 0.012859
v 0.423735 0.256342 0.009421
v 0.416430 0.260129 0.006055
v 0.416922 0.262099 0.010824
v 0.419720 0.260649 0.011450
v 0.420463 0.258038 0.006958
v 0.414408 0.255805 0.004079
v 0.416430 0.260129 0.006055
v 0.420463 0.258038 0.006958
v 0.418952 0.253450 0.005097
v 0.418952 0.253450 0.005097
v 0.420463 0.258038 0.006958
v 0.423735 0.256342 0.009421
v 0.422805 0.251452 0.007997
v 0.369742 0.278962 0.004079
v 0.372109 0.283106 0.006055
v 0.416430 0.260129 0.006055
v 0.414408 0.255805 0.004079
v 0.409152 0.234547 0.005097
v 0.404608 0.236902 0.004079
v 0.414408 0.255805 0.004079
v 0.418952 0.253450 0.005097
v 0.404608 0.236902 0.004079
v 0.359942 0.260059 0.004079
v 0.369742 0.278962 0.004079
v 0.414408 0.255805 0.004079
v 0.359942 0.260059 0.004079
v 0.355398 0.262415 0.005097
v 0.365198 0.281318 0.005097
v 0.369742 0.278962 0.004079
v 0.355398 0.262415 0.005097
v 0.351545 0.264412 0.007997
v 0.361345 0.283315 0.007997
v 0.365198 0.281318 0.005097
v 0.365198 0.281318 0.005097
v 0.368077 0.285197 0.006958
v 0.372109 0.283106 0.006055
v 0.369742 0.278962 0.004079
v 0.361345 0.283315 0.007997
v 0.364804 0.286893 0.009421
v 0.368077 0.285197 0.006958
v 0.365198 0.281318 0.005097
v 0.351545 0.264412 0.007997
v 0.348971 0.265746 0.012336
v 0.358771 0.284649 0.012336
v 0.361345 0.283315 0.007997
v 0.413005 0.232549 0.007997
v 0.409152 0.234547 0.005097
v 0.418952 0.253450 0.005097
v 0.422805 0.251452 0.007997
v 0.415579 0.231215 0.012336
v 0.413005 0.232549 0.007997
v 0.422805 0.251452 0.007997
v 0.425379 0.250118 0.012336
v 0.422805 0.251452 0.007997
v 0.423735 0.256342 0.009421
v 0.425922 0.255208 0.013107
v 0.425379 0.250118 0.012336
v 0.416483 0.230746 0.017455
v 0.415579 0.231215 0.012336
v 0.425379 0.250118 0.012336
v 0.426283 0.249649 0.017455
v 0.425379 0.250118 0.012336
v 0.425922 0.255208 0.013107
v 0.426724 0.254792 0.017649
v 0.426283 0.249649 0.017455
v 0.416483 0.230746 0.087154
v 0.416483 0.230746 0.017455
v 0.426283 0.249649 0.017455
v 0.426283 0.249649 0.087154
v 0.426283 0.249649 0.017455
v 0.426724 0.254792 0.017649
v 0.426724 0.254792 0.086959
v 0.426283 0.249649 0.087154
v 0.415579 0.231215 0.092272
v 0.416483 0.230746 0.087154
v 0.426283 0.249649 0.087154
v 0.425379 0.250118 0.092272
v 0.413005 0.232549 0.096611
v 0.415579 0.231215 0.092272
v 0.425379 0.250118 0.092272
v 0.422805 0.251452 0.096611
v 0.425379 0.250118 0.092272
v 0.425922 0.255208 0.091501
v 0.423735 0.256342 0.095187
v 0.422805 0.251452 0.096611
v 0.426283 0.249649 0.087154
v 0.426724 0.254792 0.086959
v 0.425922 0.255208 0.091501
v 0.425379 0.250118 0.092272
v 0.425922 0.255208 0.091501
v 0.422843 0.259030 0.089641
v 0.421592 0.259678 0.091749
v 0.423735 0.256342 0.095187
v 0.426724 0.254792 0.086959
v 0.423399 0.258741 0.086489
v 0.422843 0.259030 0.089641
v 0.425922 0.255208 0.091501
v 0.422843 0.259030 0.089641
v 0.423399 0.258741 0.086489
v 0.397838 0.271993 0.062167
v 0.416922 0.262099 0.093785
v 0.419720 0.260649 0.093158
v 0.421592 0.259678 0.091749
v 0.423735 0.256342 0.095187
v 0.421592 0.259678 0.091749
v 0.419720 0.260649 0.093158
v 0.420463 0.258038 0.097650
v 0.420463 0.258038 0.097650
v 0.419720 0.260649 0.093158
v 0.416922 0.262099 0.093785
v 0.416430 0.260129 0.098554
v 0.422805 0.251452 0.096611
v 0.423735 0.256342 0.095187
v 0.420463 0.258038 0.097650
v 0.418952 0.253450 0.099511
v 0.418952 0.253450 0.099511
v 0.420463 0.258038 0.097650
v 0.416430 0.260129 0.098554
v 0.414408 0.255805 0.100529
v 0.404608 0.236902 0.100529
v 0.409152 0.234547 0.099511
v 0.418952 0.253450 0.099511
v 0.414408 0.255805 0.100529
v 0.409152 0.234547 0.099511
v 0.413005 0.232549 0.096611
v 0.422805 0.251452 0.096611
v 0.418952 0.253450 0.099511
v 0.398940 0.271422 0.059171
v 0.399217 0.274652 0.059171
v 0.398476 0.274417 0.061617
v 0.397838 0.271993 0.062167
v 0.397838 0.271993 0.062167
v 0.398476 0.274417 0.061617
v 0.396558 0.276031 0.062167
v 0.395179 0.273371 0.063408
v 0.397838 0.271993 0.056176
v 0.398476 0.274417 0.056726
v 0.399217 0.274652 0.059171
v 0.398940 0.271422 0.059171
v 0.395179 0.273371 0.054935
v 0.396558 0.276031 0.056176
v 0.398476 0.274417 0.056726
v 0.397838 0.271993 0.056176
v 0.395179 0.273371 0.054935
v 0.397838 0.271993 0.056176
v 0.397838 0.271993 0.048432
v 0.395179 0.273371 0.049673
v 0.398940 0.271422 0.045437
v 0.399217 0.274652 0.045437
v 0.398476 0.274417 0.047882
v 0.397838 0.271993 0.048432
v 0.397838 0.271993 0.048432
v 0.398476 0.274417 0.047882
v 0.396558 0.276031 0.048432
v 0.395179 0.273371 0.049673
v 0.395179 0.273371 0.049673
v 0.396558 0.276031 0.048432
v 0.394133 0.276668 0.047882
v 0.392520 0.274750 0.048432
v 0.392520 0.274750 0.056176
v 0.395179 0.273371 0.054935
v 0.395179 0.273371 0.049673
v 0.392520 0.274750 0.048432
v 0.392520 0.274750 0.048432
v 0.394133 0.276668 0.047882
v 0.393898 0.277409 0.045437
v 0.391418 0.275321 0.045437
v 0.392520 0.274750 0.056176
v 0.394133 0.276668 0.056726
v 0.396558 0.276031 0.056176
v 0.395179 0.273371 0.054935
v 0.391418 0.275321 0.059171
v 0.393898 0.277409 0.059171
v 0.394133 0.276668 0.056726
v 0.392520 0.274750 0.056176
v 0.394133 0.276668 0.056726
v 0.393898 0.277409 0.059171
v 0.397129 0.277132 0.059171
v 0.396558 0.276031 0.056176
v 0.396558 0.276031 0.056176
v 0.397129 0.277132 0.059171
v 0.399217 0.274652 0.059171
v 0.398476 0.274417 0.056726
v 0.393898 0.277409 0.059171
v 0.394133 0.276668 0.061617
v 0.396558 0.276031 0.062167
v 0.397129 0.277132 0.059171
v 0.397129 0.277132 0.059171
v 0.396558 0.276031 0.062167
v 0.398476 0.274417 0.061617
v 0.399217 0.274652 0.059171
v 0.393898 0.277409 0.045437
v 0.394133 0.276668 0.047882
v 0.396558 0.276031 0.048432
v 0.397129 0.277132 0.045437
v 0.394133 0.276668 0.042991
v 0.393898 0.277409 0.045437
v 0.397129 0.277132 0.045437
v 0.396558 0.276031 0.042441
v 0.397129 0.277132 0.045437
v 0.396558 0.276031 0.048432
v 0.398476 0.274417 0.047882
v 0.399217 0.274652 0.045437
v 0.396558 0.276031 0.042441
v 0.397129 0.277132 0.045437
v 0.399217 0.274652 0.045437
v 0.398476 0.274417 0.042991
vn -0.0000 -0.0000 1.0000
vn -0.0000 0.0003 1.0000
vn -0.3397 0.1761 0.9239
vn -0.0001 -0.0000 1.0000
vn -0.3052 0.2406 0.9214
vn 0.0002 0.0001 1.0000
vn 0.3341 0.6188 0.7110
vn 0.3131 0.6296 0.7110
vn 0.0613 0.7265 0.6844
vn -0.6278 0.3254 0.7071
vn -0.3398 0.1761 0.9238
vn -0.5928 0.3889 0.7052
vn -0.1622 0.8338 0.5277
vn 0.4602 0.8878 0.0002
vn 0.4600 0.8879 -0.0000
vn 0.3131 0.6297 0.7110
vn 0.4603 0.8878 0.0002
vn 0.0613 0.7266 0.6844
vn 0.4603 0.8878 -0.0001
vn 0.4602 0.8878 0.0003
vn 0.4602 0.8878 -0.0000
vn 0.4602 0.8878 -0.0001
vn 0.3341 0.6188 0.7109
vn 0.4603 0.8878 0.0003
vn 0.4603 0.8878 -0.0000
vn 0.4603 0.8878 0.0005
vn 0.4604 0.8877 -0.0001
vn 0.4603 0.8877 -0.0001
vn 0.4601 0.8878 0.0001
vn -0.2469 0.7783 0.5773
vn -0.3024 0.9532 -0.0001
vn 0.4601 0.8879 0.0001
vn 0.3255 0.6278 0.7070
vn 0.4602 0.8878 0.0001
vn 0.4605 0.8877 -0.0002
vn 0.4601 0.8879 -0.0000
vn 0.4599 0.8879 -0.0000
vn 0.4601 0.8879 0.0003
vn -0.2978 0.9127 0.2799
vn 0.4600 0.8879 0.0001
vn -0.3042 0.9526 -0.0000
vn -0.2978 0.9126 0.2800
vn -0.7845 0.4891 0.3813
vn -0.7845 0.4890 0.3813
vn -0.8877 0.4604 0.0001
vn -0.8878 0.4603 0.0001
vn -0.8202 0.4252 0.3827
vn -0.7846 0.4890 0.3813
vn -0.8202 0.4252 0.3828
vn -0.6278 0.3255 0.7070
vn -0.8878 0.4603 -0.0000
vn -0.8202 0.4252 -0.3827
vn -0.8878 0.4603 -0.0001
vn -0.8877 0.4604 -0.0001
vn -0.7844 0.4890 -0.3816
vn -0.2978 0.9126 -0.2800
vn -0.7844 0.4890 -0.3817
vn 0.4601 0.8879 -0.0001
vn -0.2978 0.9127 -0.2800
vn -0.7843 0.4890 -0.3817
vn -0.1622 0.8338 -0.5277
vn -0.5928 0.3889 -0.7052
vn -0.2977 0.9127 -0.2800
vn 0.4602 0.8878 -0.0002
vn 0.4602 0.8878 -0.0004
vn 0.4603 0.8878 -0.0003
vn 0.0614 0.7265 -0.6844
vn 0.3131 0.6297 -0.7109
vn 0.3131 0.6297 -0.7110
vn 0.3341 0.6188 -0.7110
vn 0.4604 0.8877 0.0001
vn 0.4605 0.8877 -0.0001
vn 0.4605 0.8877 -0.0000
vn 0.4603 0.8878 -0.0002
vn -0.2469 0.7783 -0.5773
vn 0.3254 0.6278 -0.7071
vn -0.3024 0.9532 0.0001
vn 0.4604 0.8877 -0.0000
vn 0.7783 0.2468 -0.5773
vn 0.9532 0.3023 0.0001
vn 0.4603 0.8878 0.0001
vn 0.4607 0.8876 -0.0000
vn 0.4603 0.8877 0.0001
vn 0.9174 0.2827 -0.2800
vn 0.9538 0.3004 -0.0000
vn 0.7749 0.3480 -0.5277
vn 0.5584 0.4688 -0.6844
vn 0.4603 0.8878 -0.0004
vn 0.0001 0.0001 -1.0000
vn 0.3722 -0.1107 -0.9215
vn 0.6594 -0.2602 -0.7053
vn -0.0000 0.0002 -1.0000
vn 0.3397 -0.1761 -0.9239
vn -0.0000 -0.0000 -1.0000
vn -0.0000 0.0001 -1.0000
vn -0.3397 0.1761 -0.9239
vn -0.3049 0.2402 -0.9216
vn -0.3398 0.1761 -0.9238
vn -0.6277 0.3255 -0.7071
vn -0.3049 0.2403 -0.9216
vn 0.0613 0.7265 -0.6844
vn 0.3130 0.6297 -0.7110
vn -0.6278 0.3255 -0.7070
vn -0.8202 0.4252 -0.3828
vn 0.6277 -0.3255 -0.7071
vn 0.6594 -0.2603 -0.7053
vn 0.8202 -0.4252 -0.3828
vn 0.6278 -0.3255 -0.7070
vn 0.8516 -0.3592 -0.3817
vn 0.7749 0.3479 -0.5277
vn 0.8517 -0.3591 -0.3817
vn 0.8878 -0.4603 -0.0001
vn 0.8202 -0.4252 -0.3827
vn 0.8517 -0.3592 -0.3816
vn 0.8879 -0.4601 -0.0001
vn 0.8517 -0.3592 -0.3817
vn 0.8878 -0.4603 -0.0000
vn 0.8879 -0.4600 0.0002
vn 0.8879 -0.4601 0.0001
vn 0.8202 -0.4252 0.3827
vn 0.8878 -0.4603 0.0001
vn 0.8879 -0.4601 0.0002
vn 0.8517 -0.3592 0.3816
vn 0.6278 -0.3255 0.7070
vn 0.8516 -0.3592 0.3817
vn 0.6595 -0.2603 0.7052
vn 0.8517 -0.3591 0.3817
vn 0.9174 0.2827 0.2800
vn 0.7749 0.3480 0.5277
vn 0.8517 -0.3592 0.3817
vn 0.4605 0.8877 0.0001
vn 0.7748 0.3480 0.5277
vn 0.4603 0.8877 -0.0000
vn 0.4604 0.8877 -0.0002
vn 0.7748 0.3480 0.5278
vn 0.5584 0.4688 0.6844
vn 0.6595 -0.2602 0.7052
vn 0.3722 -0.1106 0.9215
vn 0.3722 -0.1107 0.9215
vn 0.0001 -0.0001 1.0000
vn 0.3397 -0.1761 0.9239
vn 0.6277 -0.3255 0.7071
vn 0.9532 0.3023 -0.0001
vn 0.7783 0.2468 0.5773
vn 0.7784 0.2468 0.5773
vn 0.4601 0.8878 -0.0000
vn 0.3254 0.6278 0.7071
vn 0.4601 0.8879 0.0002
vt 0.839775 0.219295
vt 0.839775 0.248374
vt 0.852113 0.248374
vt 0.852113 0.219295
vt 0.839775 0.216385
vt 0.852113 0.216385
vt 0.855111 0.248374
vt 0.855111 0.219295
vt 0.855111 0.216385
vt 0.839775 0.213512
vt 0.852113 0.213512
vt 0.855111 0.213512
vt 0.954884 0.067203
vt 0.956086 0.064383
vt 0.954881 0.063569
vt 0.952703 0.065730
vt 0.957568 0.067776
vt 0.957893 0.064767
vt 0.970476 0.046382
vt 0.953705 0.060546
vt 0.954078 0.062357
vt 0.986694 0.067898
vt 0.986362 0.064847
vt 0.973824 0.046388
vt 0.972154 0.047089
vt 0.971270 0.045587
vt 0.971156 0.044702
vt 0.969773 0.044703
vt 0.972152 0.045703
vt 0.970477 0.043018
vt 0.970477 0.038463
vt 0.969786 0.036773
vt 0.970482 0.035103
vt 0.953710 0.020861
vt 0.951250 0.063538
vt 0.950701 0.060854
vt 0.950701 0.020555
vt 0.855111 0.210640
vt 0.852113 0.210640
vt 0.855111 0.207729
vt 0.852113 0.207729
vt 0.839775 0.207729
vt 0.839775 0.210640
vt 0.839775 0.167416
vt 0.852113 0.167416
vt 0.839775 0.164506
vt 0.852113 0.164506
vt 0.855111 0.167416
vt 0.855111 0.164506
vt 0.954083 0.019043
vt 0.951242 0.017864
vt 0.855111 0.161633
vt 0.852113 0.161633
vt 0.954889 0.017827
vt 0.952692 0.015656
vt 0.957920 0.016618
vt 0.956097 0.017002
vt 0.954877 0.014154
vt 0.957589 0.013562
vt 0.986433 0.016705
vt 0.986759 0.013691
vt 0.972146 0.034403
vt 0.973820 0.035107
vt 0.990624 0.020937
vt 0.990251 0.019125
vt 0.989447 0.017913
vt 0.988244 0.017090
vt 0.971273 0.035899
vt 0.972150 0.035786
vt 0.971160 0.036781
vt 0.973028 0.035901
vt 0.973143 0.036784
vt 0.974518 0.036781
vt 0.973826 0.038465
vt 0.973826 0.043022
vt 0.974527 0.044717
vt 0.990565 0.060614
vt 0.993082 0.017944
vt 0.993630 0.020632
vt 0.993573 0.060922
vt 0.991627 0.015748
vt 0.989448 0.014264
vt 0.852113 0.126772
vt 0.855111 0.126772
vt 0.855111 0.123861
vt 0.852113 0.123861
vt 0.855111 0.120988
vt 0.852113 0.120988
vt 0.852113 0.155850
vt 0.855111 0.155850
vt 0.839775 0.123861
vt 0.839775 0.126772
vt 0.839775 0.155850
vt 0.839775 0.158761
vt 0.852113 0.158761
vt 0.839775 0.161633
vt 0.855111 0.158761
vt 0.839775 0.120988
vt 0.839775 0.303164
vt 0.839775 0.306036
vt 0.852113 0.306036
vt 0.852113 0.303164
vt 0.855111 0.306036
vt 0.855111 0.303164
vt 0.839775 0.300253
vt 0.852113 0.300253
vt 0.855111 0.300253
vt 0.839775 0.259940
vt 0.852113 0.259940
vt 0.855111 0.259940
vt 0.839775 0.257030
vt 0.852113 0.257030
vt 0.839775 0.254157
vt 0.852113 0.254157
vt 0.855111 0.257030
vt 0.855111 0.254157
vt 0.993031 0.063608
vt 0.990194 0.062430
vt 0.989389 0.063647
vt 0.991585 0.065812
vt 0.988180 0.064465
vt 0.989400 0.067304
vt 0.855111 0.251285
vt 0.852113 0.251285
vt 0.839775 0.251285
vt 0.973145 0.044707
vt 0.973031 0.045591
vt 0.973032 0.043820
vt 0.972152 0.042313
vt 0.972151 0.043704
vt 0.972151 0.039175
vt 0.973031 0.037669
vt 0.972151 0.037783
vt 0.971272 0.037667
vt 0.971270 0.043817
vt 0.972151 0.044704
vt 0.972151 0.036784
s 1
f 1/1/1 2/2/1 3/3/1
f 1/1/1 3/3/1 4/4/2
f 5/5/3 6/1/4 7/4/2
f 5/5/3 7/4/2 8/6/5
f 9/3/6 10/7/7 11/8/8
f 9/3/6 11/8/8 12/4/2
f 13/4/2 14/8/8 15/9/9
f 13/4/2 15/9/9 16/6/5
f 17/10/10 18/5/11 19/6/5
f 17/10/10 19/6/5 20/11/12
f 21/6/5 22/9/9 23/12/13
f 21/6/5 23/12/13 24/11/12
f 25/13/9 26/14/14 27/15/15
f 25/13/9 27/15/15 28/16/13
f 29/17/16 30/18/17 31/14/14
f 29/17/16 31/14/14 32/13/18
f 37/15/19 38/14/20 33/18/21
f 33/18/21 34/19/20 35/20/22
f 35/20/22 36/21/15 37/15/19
f 37/15/19 33/18/21 35/20/22
f 39/22/23 40/23/24 41/18/17
f 39/22/23 41/18/17 42/17/16
f 46/19/25 47/18/26 43/23/24
f 43/23/24 44/24/27 45/25/28
f 45/25/28 46/19/25 43/23/24
f 48/19/29 49/26/30 50/27/31
f 48/19/29 50/27/31 51/28/21
f 52/25/32 53/29/33 54/26/30
f 52/25/32 54/26/30 55/19/34
f 63/28/35 56/30/36 57/31/36
f 58/32/21 59/33/34 60/34/21
f 60/34/21 61/20/37 62/19/38
f 63/28/35 57/31/36 58/32/21
f 60/34/21 62/19/38 63/28/35
f 63/28/35 58/32/21 60/34/21
f 64/35/39 65/21/40 66/20/36
f 64/35/39 66/20/36 67/36/41
f 68/36/41 69/20/36 70/34/15
f 68/36/41 70/34/15 71/37/41
f 72/16/13 73/15/15 74/21/40
f 72/16/13 74/21/40 75/35/39
f 76/11/12 77/12/13 78/38/42
f 76/11/12 78/38/42 79/39/43
f 80/39/44 81/38/42 82/40/41
f 80/39/44 82/40/41 83/41/45
f 84/42/46 85/43/47 86/39/48
f 84/42/46 86/39/48 87/41/45
f 88/43/49 89/10/50 90/11/12
f 88/43/49 90/11/12 91/39/44
f 92/44/51 93/42/51 94/41/51
f 92/44/51 94/41/51 95/45/51
f 96/46/52 97/44/53 98/45/54
f 96/46/52 98/45/54 99/47/55
f 100/45/54 101/48/41 102/49/56
f 100/45/54 102/49/56 103/47/57
f 104/41/45 105/40/41 106/48/41
f 104/41/45 106/48/41 107/45/54
f 108/37/41 109/34/36 110/50/58
f 108/37/41 110/50/58 111/51/59
f 112/47/60 113/49/56 114/52/61
f 112/47/60 114/52/61 115/53/62
f 116/51/63 117/50/58 118/54/58
f 116/51/63 118/54/58 119/55/61
f 124/54/34 125/50/64 120/34/34
f 120/34/34 121/33/65 122/56/66
f 122/56/66 123/57/22 124/54/34
f 124/54/34 120/34/34 122/56/66
f 126/55/61 127/54/58 128/57/22
f 126/55/61 128/57/22 129/58/67
f 130/58/67 131/57/22 132/56/66
f 130/58/67 132/56/66 133/59/68
f 134/59/69 135/56/66 136/60/66
f 134/59/69 136/60/66 137/61/70
f 145/60/66 146/56/66 138/33/25
f 139/62/71 140/63/72 141/64/73
f 141/64/73 142/65/27 143/66/27
f 143/66/27 144/67/74 145/60/66
f 145/60/66 138/33/25 139/62/71
f 139/62/71 141/64/73 143/66/27
f 143/66/27 145/60/66 139/62/71
f 147/33/64 148/68/75 149/69/76
f 147/33/64 149/69/76 150/62/25
f 151/32/22 152/70/77 153/68/75
f 151/32/22 153/68/75 154/33/22
f 155/62/78 156/69/76 157/71/79
f 155/62/78 157/71/79 158/63/19
f 159/63/28 160/71/79 161/72/80
f 159/63/28 161/72/80 162/73/81
f 169/64/82 170/63/72 163/73/21
f 163/73/21 164/74/83 165/75/78
f 166/76/21 167/24/34 168/77/25
f 168/77/25 169/64/82 163/73/21
f 163/73/21 165/75/78 166/76/21
f 166/76/21 168/77/25 163/73/21
f 171/78/84 172/65/27 173/64/78
f 171/78/84 173/64/78 174/79/85
f 175/79/85 176/64/78 177/77/73
f 175/79/85 177/77/73 178/80/85
f 179/81/86 180/66/27 181/65/27
f 179/81/86 181/65/27 182/78/84
f 183/82/87 184/67/74 185/66/28
f 183/82/87 185/66/28 186/81/86
f 187/61/70 188/60/88 189/67/74
f 187/61/70 189/67/74 190/82/87
f 191/83/89 192/84/70 193/85/87
f 191/83/89 193/85/87 194/86/90
f 195/86/90 196/85/87 197/87/86
f 195/86/90 197/87/86 198/88/91
f 199/89/92 200/90/69 201/84/70
f 199/89/92 201/84/70 202/83/89
f 203/91/93 204/92/94 205/83/89
f 203/91/93 205/83/89 206/86/90
f 207/92/94 208/93/94 209/89/94
f 207/92/94 209/89/94 210/83/94
f 211/93/95 212/94/96 213/95/97
f 211/93/95 213/95/97 214/89/92
f 215/94/98 216/96/99 217/53/62
f 215/94/98 217/53/62 218/95/100
f 219/95/100 220/97/101 221/90/102
f 219/95/100 221/90/102 222/89/92
f 223/53/62 224/52/61 225/97/101
f 223/53/62 225/97/101 226/95/100
f 227/96/103 228/46/104 229/47/57
f 227/96/103 229/47/57 230/53/62
f 231/98/105 232/91/93 233/86/90
f 231/98/105 233/86/90 234/88/106
f 235/99/107 236/100/108 237/101/106
f 235/99/107 237/101/106 238/102/109
f 239/101/106 240/103/110 241/104/84
f 239/101/106 241/104/84 242/102/111
f 243/105/112 244/99/113 245/102/114
f 243/105/112 245/102/114 246/106/115
f 247/102/116 248/104/84 249/107/85
f 247/102/116 249/107/85 250/106/115
f 251/108/117 252/105/117 253/106/117
f 251/108/117 253/106/117 254/109/118
f 255/106/115 256/107/85 257/110/85
f 255/106/115 257/110/85 258/109/119
f 259/111/120 260/108/121 261/109/122
f 259/111/120 261/109/122 262/112/123
f 263/113/124 264/111/120 265/112/125
f 263/113/124 265/112/125 266/114/126
f 267/112/127 268/115/128 269/116/129
f 267/112/127 269/116/129 270/114/126
f 271/109/119 272/110/85 273/115/128
f 271/109/119 273/115/128 274/112/130
f 275/117/128 276/118/131 277/119/17
f 275/117/128 277/119/17 278/120/132
f 279/80/85 280/77/73 281/118/131
f 279/80/85 281/118/131 282/117/128
f 287/121/34 288/119/17 283/118/133
f 283/118/133 284/77/134 285/24/25
f 285/24/25 286/23/29 287/121/34
f 287/121/34 283/118/133 285/24/25
f 289/120/135 290/119/17 291/121/81
f 289/120/135 291/121/81 292/122/136
f 293/122/136 294/121/81 295/23/24
f 293/122/136 295/23/24 296/22/7
f 297/114/137 298/116/135 299/123/136
f 297/114/137 299/123/136 300/124/138
f 301/124/139 302/123/136 303/7/7
f 301/124/139 303/7/7 304/3/6
f 305/2/140 306/125/141 307/124/139
f 305/2/140 307/124/139 308/3/6
f 309/125/141 310/113/142 311/114/126
f 309/125/141 311/114/126 312/124/139
f 313/76/25 314/126/143 315/127/144
f 313/76/25 315/127/144 316/24/133
f 317/24/25 318/127/145 319/29/33
f 317/24/25 319/29/33 320/25/14
f 321/75/78 322/128/79 323/126/143
f 321/75/78 323/126/143 324/76/78
f 325/129/74 326/130/76 327/128/79
f 325/129/74 327/128/79 328/75/73
f 329/129/146 330/75/78 331/74/36
f 329/129/146 331/74/36 332/131/36
f 333/73/17 334/72/80 335/132/144
f 333/73/17 335/132/144 336/74/17
f 337/74/81 338/132/144 339/133/147
f 337/74/81 339/133/147 340/131/14
f 341/131/32 342/133/147 343/134/30
f 341/131/32 343/134/30 344/31/34
f 345/30/78 346/129/78 347/131/148
f 345/30/78 347/131/148 348/31/78
f 349/31/21 350/134/30 351/70/77
f 349/31/21 351/70/77 352/32/22
f 353/30/74 354/135/75 355/130/76
f 353/30/74 355/130/76 356/129/22
f 357/28/21 358/27/31 359/135/75
f 357/28/21 359/135/75 360/30/19
f 361/135/75 362/27/31 363/136/22
f 361/135/75 363/136/22 364/130/76
f 365/130/76 366/136/22 367/126/143
f 365/130/76 367/126/143 368/128/79
f 369/27/31 370/26/30 371/29/33
f 369/27/31 371/29/33 372/136/64
f 373/136/22 374/29/33 375/127/145
f 373/136/22 375/127/145 376/126/143
f 377/70/77 378/134/30 379/133/147
f 377/70/77 379/133/147 380/137/34
f 381/68/75 382/70/77 383/137/34
f 381/68/75 383/137/34 384/69/76
f 385/137/34 386/133/147 387/132/144
f 385/137/34 387/132/144 388/72/80
f 389/69/76 390/137/34 391/72/80
f 389/69/76 391/72/80 392/71/79
