# Blender 5.2.0 LTS
# www.blender.org
mtllib button_02.mtl
o button_02
v 0.011173 1.171670 0.051827
v 0.022348 1.172500 0.051145
v 0.021886 1.175500 0.050045
v 0.010992 1.174700 0.050709
v 0.022348 1.172500 0.051145
v 0.033011 1.174250 0.049710
v 0.032171 1.177190 0.048660
v 0.021886 1.175500 0.050045
v 0.000004 1.171480 0.051986
v 0.011173 1.171670 0.051827
v 0.010992 1.174700 0.050709
v 0.000004 1.174500 0.050866
v 0.013510 1.224320 0.008539
v 0.009026 1.227210 0.006164
v 0.007395 1.225870 0.008636
v 0.011405 1.223290 0.010759
v 0.009026 1.227210 0.006164
v 0.004416 1.228810 0.004845
v 0.003557 1.227200 0.007540
v 0.007395 1.225870 0.008636
v 0.042967 1.177040 0.047415
v 0.051924 1.180980 0.044182
v 0.050202 1.183590 0.043394
v 0.041687 1.179850 0.046466
v 0.051924 1.180980 0.044182
v 0.054832 1.182740 0.042708
v 0.052241 1.184820 0.042382
v 0.050202 1.183590 0.043394
v 0.054832 1.182740 0.042708
v 0.056357 1.185240 0.040635
v 0.053168 1.186330 0.041143
v 0.052241 1.184820 0.042382
v 0.056357 1.185240 0.040635
v 0.055956 1.188000 0.038380
v 0.052920 1.187980 0.039782
v 0.053168 1.186330 0.041143
v 0.055956 1.188000 0.038380
v 0.053925 1.190410 0.036424
v 0.051502 1.189640 0.038421
v 0.052920 1.187980 0.039782
v 0.053925 1.190410 0.036424
v 0.013510 1.224320 0.008539
v 0.011405 1.223290 0.010759
v 0.051502 1.189640 0.038421
v 0.033011 1.174250 0.049710
v 0.042967 1.177040 0.047415
v 0.041687 1.179850 0.046466
v 0.032171 1.177190 0.048660
v 0.034981 1.165340 0.049721
v 0.023434 1.163450 0.051275
v 0.023637 1.160670 0.049978
v 0.035350 1.162590 0.048401
v 0.023434 1.163450 0.051275
v 0.011596 1.162570 0.051997
v 0.011675 1.159780 0.050707
v 0.023637 1.160670 0.049978
v 0.045975 1.168420 0.047187
v 0.034981 1.165340 0.049721
v 0.035350 1.162590 0.048401
v 0.046537 1.165720 0.045822
v 0.018449 1.224740 0.000880
v 0.059673 1.190150 0.029318
v 0.060746 1.189020 0.026668
v 0.019373 1.223730 -0.001875
v 0.059673 1.190150 0.029318
v 0.063212 1.185650 0.033029
v 0.064582 1.184120 0.030695
v 0.060746 1.189020 0.026668
v 0.063212 1.185650 0.033029
v 0.063772 1.180770 0.037049
v 0.065184 1.178830 0.035045
v 0.064582 1.184120 0.030695
v 0.063772 1.180770 0.037049
v 0.061249 1.176260 0.040745
v 0.062459 1.173950 0.039053
v 0.065184 1.178830 0.035045
v 0.061249 1.176260 0.040745
v 0.056053 1.172840 0.043550
v 0.056823 1.170240 0.042110
v 0.062459 1.173950 0.039053
v 0.056053 1.172840 0.043550
v 0.045975 1.168420 0.047187
v 0.046537 1.165720 0.045822
v 0.056823 1.170240 0.042110
v 0.000004 1.231290 -0.004501
v 0.006426 1.230580 -0.003917
v 0.006803 1.229820 -0.006882
v 0.000004 1.230570 -0.007499
v 0.006426 1.230580 -0.003917
v 0.012850 1.228350 -0.002083
v 0.013566 1.227470 -0.004949
v 0.006803 1.229820 -0.006882
v 0.012850 1.228350 -0.002083
v 0.018449 1.224740 0.000880
v 0.019373 1.223730 -0.001875
v 0.013566 1.227470 -0.004949
v 0.000004 1.162370 0.052163
v 0.011596 1.162570 0.051997
v 0.011173 1.171670 0.051827
v 0.000004 1.171480 0.051986
v 0.011596 1.162570 0.051997
v 0.023434 1.163450 0.051275
v 0.022348 1.172500 0.051145
v 0.011173 1.171670 0.051827
v 0.023434 1.163450 0.051275
v 0.034981 1.165340 0.049721
v 0.033011 1.174250 0.049710
v 0.022348 1.172500 0.051145
v 0.034981 1.165340 0.049721
v 0.045975 1.168420 0.047187
v 0.042967 1.177040 0.047415
v 0.033011 1.174250 0.049710
v 0.059673 1.190150 0.029318
v 0.018449 1.224740 0.000880
v 0.013510 1.224320 0.008539
v 0.053925 1.190410 0.036424
v 0.018449 1.224740 0.000880
v 0.012850 1.228350 -0.002083
v 0.009026 1.227210 0.006164
v 0.013510 1.224320 0.008539
v 0.012850 1.228350 -0.002083
v 0.006426 1.230580 -0.003917
v 0.004416 1.228810 0.004845
v 0.009026 1.227210 0.006164
v 0.045975 1.168420 0.047187
v 0.056053 1.172840 0.043550
v 0.051924 1.180980 0.044182
v 0.042967 1.177040 0.047415
v 0.056053 1.172840 0.043550
v 0.061249 1.176260 0.040745
v 0.054832 1.182740 0.042708
v 0.051924 1.180980 0.044182
v 0.061249 1.176260 0.040745
v 0.063772 1.180770 0.037049
v 0.056357 1.185240 0.040635
v 0.054832 1.182740 0.042708
v 0.063772 1.180770 0.037049
v 0.063212 1.185650 0.033029
v 0.055956 1.188000 0.038380
v 0.056357 1.185240 0.040635
v 0.063212 1.185650 0.033029
v 0.059673 1.190150 0.029318
v 0.053925 1.190410 0.036424
v 0.055956 1.188000 0.038380
v 0.011675 1.137130 0.023153
v 0.023637 1.138010 0.022424
v 0.023637 1.160670 0.049978
v 0.011675 1.159780 0.050707
v 0.000004 1.136920 0.023320
v 0.011675 1.137130 0.023153
v 0.011675 1.159780 0.050707
v 0.000004 1.159580 0.050874
v 0.019373 1.201080 -0.029429
v 0.013566 1.204820 -0.032503
v 0.013566 1.227470 -0.004949
v 0.019373 1.223730 -0.001875
v 0.013566 1.204820 -0.032503
v 0.006803 1.207170 -0.034436
v 0.006803 1.229820 -0.006882
v 0.013566 1.227470 -0.004949
v 0.060746 1.166360 -0.000886
v 0.019373 1.201080 -0.029429
v 0.019373 1.223730 -0.001875
v 0.060746 1.189020 0.026668
v 0.046537 1.143070 0.018268
v 0.056822 1.147580 0.014556
v 0.056823 1.170240 0.042110
v 0.046537 1.165720 0.045822
v 0.056822 1.147580 0.014556
v 0.062459 1.151300 0.011499
v 0.062459 1.173950 0.039053
v 0.056823 1.170240 0.042110
v 0.035349 1.139930 0.020847
v 0.046537 1.143070 0.018268
v 0.046537 1.165720 0.045822
v 0.035350 1.162590 0.048401
v 0.062459 1.151300 0.011499
v 0.065183 1.156180 0.007491
v 0.065184 1.178830 0.035045
v 0.062459 1.173950 0.039053
v 0.065183 1.156180 0.007491
v 0.064582 1.161470 0.003141
v 0.064582 1.184120 0.030695
v 0.065184 1.178830 0.035045
v 0.064582 1.161470 0.003141
v 0.060746 1.166360 -0.000886
v 0.060746 1.189020 0.026668
v 0.064582 1.184120 0.030695
v 0.023637 1.138010 0.022424
v 0.035349 1.139930 0.020847
v 0.035350 1.162590 0.048401
v 0.023637 1.160670 0.049978
v 0.011596 1.162570 0.051997
v 0.000004 1.162370 0.052163
v 0.000004 1.159580 0.050874
v 0.011675 1.159780 0.050707
v 0.004416 1.228810 0.004845
v 0.000004 1.229300 0.004445
v 0.000004 1.227590 0.007217
v 0.003557 1.227200 0.007540
v 0.006426 1.230580 -0.003917
v 0.000004 1.231290 -0.004501
v 0.000004 1.229300 0.004445
v 0.004416 1.228810 0.004845
v 0.010992 1.174700 0.050709
v 0.021886 1.175500 0.050045
v 0.032171 1.177190 0.048660
v 0.041687 1.179850 0.046466
v 0.050202 1.183590 0.043394
v 0.052241 1.184820 0.042382
v 0.053168 1.186330 0.041143
v 0.052920 1.187980 0.039782
v 0.051502 1.189640 0.038421
v 0.011405 1.223290 0.010759
v 0.007395 1.225870 0.008636
v 0.003557 1.227200 0.007540
v 0.000004 1.227590 0.007217
v 0.000004 1.174500 0.050866
v 0.006803 1.207170 -0.034436
v 0.000004 1.207920 -0.035053
v 0.000004 1.230570 -0.007499
v 0.006803 1.229820 -0.006882
v -0.011164 1.171670 0.051827
v -0.010984 1.174700 0.050709
v -0.021877 1.175500 0.050045
v -0.022340 1.172500 0.051145
v -0.022340 1.172500 0.051145
v -0.021877 1.175500 0.050045
v -0.032163 1.177190 0.048660
v -0.033002 1.174250 0.049710
v 0.000004 1.171480 0.051986
v 0.000004 1.174500 0.050866
v -0.010984 1.174700 0.050709
v -0.011164 1.171670 0.051827
v -0.013501 1.224320 0.008539
v -0.011396 1.223290 0.010759
v -0.007386 1.225870 0.008636
v -0.009017 1.227210 0.006164
v -0.009017 1.227210 0.006164
v -0.007386 1.225870 0.008636
v -0.003549 1.227200 0.007540
v -0.004407 1.228810 0.004845
v -0.042959 1.177040 0.047415
v -0.041679 1.179850 0.046467
v -0.050194 1.183590 0.043394
v -0.051915 1.180980 0.044182
v -0.051915 1.180980 0.044182
v -0.050194 1.183590 0.043394
v -0.052232 1.184820 0.042382
v -0.054823 1.182740 0.042708
v -0.054823 1.182740 0.042708
v -0.052232 1.184820 0.042382
v -0.053159 1.186330 0.041143
v -0.056348 1.185240 0.040635
v -0.056348 1.185240 0.040635
v -0.053159 1.186330 0.041143
v -0.052912 1.187990 0.039782
v -0.055947 1.188000 0.038380
v -0.055947 1.188000 0.038380
v -0.052912 1.187990 0.039782
v -0.051493 1.189640 0.038422
v -0.053917 1.190410 0.036424
v -0.053917 1.190410 0.036424
v -0.051493 1.189640 0.038422
v -0.011396 1.223290 0.010759
v -0.013501 1.224320 0.008539
v -0.033002 1.174250 0.049710
v -0.032163 1.177190 0.048660
v -0.041679 1.179850 0.046467
v -0.042959 1.177040 0.047415
v -0.034973 1.165340 0.049721
v -0.035341 1.162590 0.048401
v -0.023629 1.160670 0.049978
v -0.023426 1.163450 0.051275
v -0.023426 1.163450 0.051275
v -0.023629 1.160670 0.049978
v -0.011666 1.159780 0.050707
v -0.011587 1.162570 0.051997
v -0.045967 1.168420 0.047187
v -0.046529 1.165720 0.045822
v -0.035341 1.162590 0.048401
v -0.034973 1.165340 0.049721
v -0.018440 1.224740 0.000880
v -0.019364 1.223730 -0.001875
v -0.060738 1.189020 0.026668
v -0.059664 1.190150 0.029318
v -0.059664 1.190150 0.029318
v -0.060738 1.189020 0.026668
v -0.064574 1.184120 0.030696
v -0.063203 1.185650 0.033029
v -0.063203 1.185650 0.033029
v -0.064574 1.184120 0.030696
v -0.065175 1.178830 0.035045
v -0.063763 1.180770 0.037050
v -0.063763 1.180770 0.037050
v -0.065175 1.178830 0.035045
v -0.062450 1.173950 0.039053
v -0.061240 1.176260 0.040746
v -0.061240 1.176260 0.040746
v -0.062450 1.173950 0.039053
v -0.056814 1.170240 0.042111
v -0.056044 1.172840 0.043550
v -0.056044 1.172840 0.043550
v -0.056814 1.170240 0.042111
v -0.046529 1.165720 0.045822
v -0.045967 1.168420 0.047187
v 0.000004 1.231290 -0.004501
v 0.000004 1.230570 -0.007499
v -0.006794 1.229820 -0.006882
v -0.006418 1.230580 -0.003917
v -0.006418 1.230580 -0.003917
v -0.006794 1.229820 -0.006882
v -0.013557 1.227470 -0.004949
v -0.012841 1.228350 -0.002082
v -0.012841 1.228350 -0.002082
v -0.013557 1.227470 -0.004949
v -0.019364 1.223730 -0.001875
v -0.018440 1.224740 0.000880
v 0.000004 1.162370 0.052163
v 0.000004 1.171480 0.051986
v -0.011164 1.171670 0.051827
v -0.011587 1.162570 0.051997
v -0.011587 1.162570 0.051997
v -0.011164 1.171670 0.051827
v -0.022340 1.172500 0.051145
v -0.023426 1.163450 0.051275
v -0.023426 1.163450 0.051275
v -0.022340 1.172500 0.051145
v -0.033002 1.174250 0.049710
v -0.034973 1.165340 0.049721
v -0.034973 1.165340 0.049721
v -0.033002 1.174250 0.049710
v -0.042959 1.177040 0.047415
v -0.045967 1.168420 0.047187
v -0.059664 1.190150 0.029318
v -0.053917 1.190410 0.036424
v -0.013501 1.224320 0.008539
v -0.018440 1.224740 0.000880
v -0.018440 1.224740 0.000880
v -0.013501 1.224320 0.008539
v -0.009017 1.227210 0.006164
v -0.012841 1.228350 -0.002082
v -0.012841 1.228350 -0.002082
v -0.009017 1.227210 0.006164
v -0.004407 1.228810 0.004845
v -0.006418 1.230580 -0.003917
v -0.045967 1.168420 0.047187
v -0.042959 1.177040 0.047415
v -0.051915 1.180980 0.044182
v -0.056044 1.172840 0.043550
v -0.056044 1.172840 0.043550
v -0.051915 1.180980 0.044182
v -0.054823 1.182740 0.042708
v -0.061240 1.176260 0.040746
v -0.061240 1.176260 0.040746
v -0.054823 1.182740 0.042708
v -0.056348 1.185240 0.040635
v -0.063763 1.180770 0.037050
v -0.063763 1.180770 0.037050
v -0.056348 1.185240 0.040635
v -0.055947 1.188000 0.038380
v -0.063203 1.185650 0.033029
v -0.063203 1.185650 0.033029
v -0.055947 1.188000 0.038380
v -0.053917 1.190410 0.036424
v -0.059664 1.190150 0.029318
v -0.011667 1.137130 0.023153
v -0.011666 1.159780 0.050707
v -0.023629 1.160670 0.049978
v -0.023629 1.138010 0.022424
v 0.000004 1.136920 0.023320
v 0.000004 1.159580 0.050874
v -0.011666 1.159780 0.050707
v -0.011667 1.137130 0.023153
v -0.019365 1.201080 -0.029429
v -0.019364 1.223730 -0.001875
v -0.013557 1.227470 -0.004949
v -0.013557 1.204820 -0.032503
v -0.013557 1.204820 -0.032503
v -0.013557 1.227470 -0.004949
v -0.006794 1.229820 -0.006882
v -0.006795 1.207170 -0.034436
v -0.060738 1.166370 -0.000886
v -0.060738 1.189020 0.026668
v -0.019364 1.223730 -0.001875
v -0.019365 1.201080 -0.029429
v -0.046529 1.143070 0.018268
v -0.046529 1.165720 0.045822
v -0.056814 1.170240 0.042111
v -0.056814 1.147580 0.014556
v -0.056814 1.147580 0.014556
v -0.056814 1.170240 0.042111
v -0.062450 1.173950 0.039053
v -0.062450 1.151300 0.011499
v -0.035341 1.139930 0.020847
v -0.035341 1.162590 0.048401
v -0.046529 1.165720 0.045822
v -0.046529 1.143070 0.018268
v -0.062450 1.151300 0.011499
v -0.062450 1.173950 0.039053
v -0.065175 1.178830 0.035045
v -0.065175 1.156180 0.007491
v -0.065175 1.156180 0.007491
v -0.065175 1.178830 0.035045
v -0.064574 1.184120 0.030696
v -0.064574 1.161470 0.003142
v -0.064574 1.161470 0.003142
v -0.064574 1.184120 0.030696
v -0.060738 1.189020 0.026668
v -0.060738 1.166370 -0.000886
v -0.023629 1.138010 0.022424
v -0.023629 1.160670 0.049978
v -0.035341 1.162590 0.048401
v -0.035341 1.139930 0.020847
v -0.011587 1.162570 0.051997
v -0.011666 1.159780 0.050707
v 0.000004 1.159580 0.050874
v 0.000004 1.162370 0.052163
v -0.004407 1.228810 0.004845
v -0.003549 1.227200 0.007540
v 0.000004 1.227590 0.007217
v 0.000004 1.229300 0.004445
v -0.006418 1.230580 -0.003917
v -0.004407 1.228810 0.004845
v 0.000004 1.229300 0.004445
v 0.000004 1.231290 -0.004501
v -0.010984 1.174700 0.050709
v 0.000004 1.174500 0.050866
v 0.000004 1.227590 0.007217
v -0.003549 1.227200 0.007540
v -0.007386 1.225870 0.008636
v -0.011396 1.223290 0.010759
v -0.051493 1.189640 0.038422
v -0.052912 1.187990 0.039782
v -0.053159 1.186330 0.041143
v -0.052232 1.184820 0.042382
v -0.050194 1.183590 0.043394
v -0.041679 1.179850 0.046467
v -0.032163 1.177190 0.048660
v -0.021877 1.175500 0.050045
v -0.006795 1.207170 -0.034436
v -0.006794 1.229820 -0.006882
v 0.000004 1.230570 -0.007499
v 0.000004 1.207920 -0.035053
vn 0.0327 0.1051 0.9939
vn 0.0834 0.1086 0.9906
vn -0.0000 0.6350 0.7725
vn -0.0001 0.6350 0.7725
vn 0.0834 0.1087 0.9906
vn 0.1514 0.1195 0.9812
vn -0.0000 0.1046 0.9945
vn 0.0001 0.6350 0.7725
vn 0.4562 0.8226 0.3394
vn 0.2983 0.8908 0.3428
vn -0.0000 0.6351 0.7724
vn 0.1601 0.9407 0.2991
vn -0.0000 0.6352 0.7723
vn 0.2311 0.1420 0.9625
vn 0.3028 0.1627 0.9391
vn 0.3028 0.1628 0.9391
vn 0.4440 0.2615 0.8570
vn 0.5446 0.4611 0.7006
vn 0.0001 0.6351 0.7724
vn 0.5293 0.6682 0.5228
vn 0.0003 0.6351 0.7724
vn 0.0002 0.6351 0.7724
vn 0.4562 0.8226 0.3393
vn -0.0000 0.6352 0.7724
vn 0.1514 0.1196 0.9812
vn 0.2311 0.1419 0.9625
vn 0.1939 -0.0756 0.9781
vn 0.1069 -0.0896 0.9902
vn 0.1516 -0.7634 0.6278
vn 0.2748 -0.7426 0.6108
vn 0.0419 -0.0943 0.9947
vn 0.0596 -0.7710 0.6340
vn 0.2959 -0.0467 0.9541
vn 0.1939 -0.0755 0.9781
vn 0.4189 -0.7014 0.5767
vn 0.4563 0.8227 0.3391
vn 0.4564 0.8226 0.3392
vn 0.7357 0.5232 -0.4301
vn 0.6722 0.6247 0.3974
vn 0.9472 0.2684 -0.1754
vn 0.6922 0.3661 0.6220
vn 0.9866 -0.1002 0.1289
vn 0.6921 0.3661 0.6220
vn 0.5654 0.1142 0.8169
vn 0.7989 -0.4416 0.4083
vn 0.5653 0.1142 0.8169
vn 0.3905 -0.0161 0.9205
vn 0.5563 -0.6419 0.5278
vn 0.3905 -0.0162 0.9205
vn -0.0000 0.9961 0.0882
vn 0.2031 0.9732 0.1079
vn 0.2837 0.7620 -0.5821
vn 0.0001 0.7938 -0.6082
vn 0.2031 0.9732 0.1078
vn 0.3792 0.9110 0.1620
vn 0.5310 0.6759 -0.5111
vn -0.0000 -0.0950 0.9955
vn 0.0327 0.1050 0.9939
vn 0.4562 0.8227 0.3393
vn 0.3904 -0.0161 0.9205
vn 0.5653 0.1142 0.8170
vn 0.6921 0.3661 0.6221
vn 0.0596 -0.7711 0.6340
vn 0.1512 -0.7636 0.6278
vn -0.0000 -0.7724 0.6351
vn 0.5314 0.6544 -0.5380
vn 0.5313 0.6544 -0.5380
vn 0.2838 0.7407 -0.6090
vn 0.7357 0.5232 -0.4302
vn 0.7358 0.5232 -0.4301
vn 0.7357 0.5231 -0.4302
vn 0.4184 -0.7016 0.5769
vn 0.5563 -0.6419 0.5277
vn 0.5564 -0.6419 0.5277
vn 0.7994 -0.4641 0.3816
vn 0.2750 -0.7427 0.6106
vn 0.2748 -0.7426 0.6107
vn 0.9872 -0.1230 0.1011
vn 0.9478 0.2463 -0.2025
vn 0.9866 -0.1002 0.1288
vn -0.0000 0.9590 0.2833
vn -0.0002 0.6350 0.7725
vn -0.0001 0.6351 0.7724
vn 0.0002 0.6352 0.7724
vn 0.0001 0.6352 0.7724
vn 0.2837 0.7407 -0.6090
vn -0.0000 0.7724 -0.6351
vn -0.0327 0.1051 0.9939
vn -0.0833 0.1086 0.9906
vn -0.1514 0.1196 0.9812
vn -0.0327 0.1050 0.9939
vn -0.4560 0.8227 0.3393
vn -0.2983 0.8908 0.3428
vn -0.2983 0.8908 0.3429
vn -0.1601 0.9407 0.2991
vn -0.2311 0.1419 0.9625
vn -0.3027 0.1627 0.9391
vn -0.3027 0.1628 0.9391
vn -0.4440 0.2616 0.8570
vn -0.4440 0.2615 0.8570
vn -0.5445 0.4612 0.7006
vn -0.0002 0.6351 0.7724
vn -0.5293 0.6682 0.5228
vn -0.4562 0.8226 0.3393
vn -0.4561 0.8227 0.3393
vn -0.1939 -0.0756 0.9781
vn -0.2748 -0.7427 0.6107
vn -0.1516 -0.7634 0.6278
vn -0.1068 -0.0896 0.9902
vn -0.1068 -0.0897 0.9902
vn -0.0596 -0.7710 0.6340
vn -0.0419 -0.0943 0.9947
vn -0.2959 -0.0467 0.9541
vn -0.4189 -0.7014 0.5767
vn -0.1939 -0.0755 0.9781
vn -0.4562 0.8227 0.3392
vn -0.7357 0.5233 -0.4301
vn -0.7357 0.5232 -0.4301
vn -0.9472 0.2684 -0.1754
vn -0.6722 0.6247 0.3974
vn -0.9866 -0.1001 0.1289
vn -0.6921 0.3661 0.6221
vn -0.7989 -0.4416 0.4083
vn -0.5654 0.1142 0.8169
vn -0.5653 0.1142 0.8169
vn -0.5563 -0.6419 0.5278
vn -0.3905 -0.0161 0.9205
vn -0.5562 -0.6419 0.5278
vn -0.2837 0.7620 -0.5821
vn -0.2031 0.9732 0.1079
vn -0.5310 0.6759 -0.5111
vn -0.3792 0.9110 0.1620
vn -0.3793 0.9110 0.1620
vn -0.1514 0.1195 0.9812
vn -0.4564 0.8227 0.3390
vn -0.4562 0.8226 0.3394
vn -0.4562 0.8227 0.3393
vn -0.4562 0.8228 0.3390
vn -0.2959 -0.0466 0.9541
vn -0.3905 -0.0160 0.9205
vn -0.5653 0.1142 0.8170
vn -0.5446 0.4611 0.7006
vn -0.6920 0.3661 0.6221
vn -0.5446 0.4612 0.7005
vn -0.0594 -0.7711 0.6340
vn -0.1512 -0.7636 0.6278
vn -0.5313 0.6544 -0.5380
vn -0.2839 0.7406 -0.6090
vn -0.5563 -0.6419 0.5277
vn -0.7994 -0.4642 0.3816
vn -0.2749 -0.7427 0.6106
vn -0.4188 -0.7014 0.5767
vn -0.7994 -0.4641 0.3816
vn -0.9866 -0.1002 0.1289
vn -0.9872 -0.1231 0.1013
vn -0.9872 -0.1231 0.1012
vn -0.9866 -0.1001 0.1288
vn -0.9472 0.2683 -0.1754
vn -0.9478 0.2463 -0.2025
vn -0.7357 0.5231 -0.4301
vn 0.0002 0.6350 0.7725
vn 0.0003 0.6349 0.7726
vn -0.0001 0.6352 0.7723
vn -0.0000 0.6351 0.7725
vn -0.2838 0.7407 -0.6090
vn -0.0000 0.7938 -0.6082
vt 0.467464 0.185192
vt 0.476775 0.184395
vt 0.476379 0.181753
vt 0.467358 0.182500
vt 0.485545 0.182494
vt 0.484790 0.179968
vt 0.458105 0.185130
vt 0.458211 0.182431
vt 0.470998 0.129579
vt 0.467482 0.126595
vt 0.466107 0.128727
vt 0.469187 0.131408
vt 0.463914 0.124910
vt 0.463159 0.127321
vt 0.493548 0.179383
vt 0.500472 0.175120
vt 0.498982 0.173097
vt 0.492398 0.177061
vt 0.502622 0.173238
vt 0.500513 0.171844
vt 0.503739 0.170755
vt 0.501202 0.170360
vt 0.503446 0.168043
vt 0.501001 0.168737
vt 0.501972 0.165576
vt 0.499900 0.167080
vt 0.487828 0.189776
vt 0.477990 0.191999
vt 0.478415 0.194643
vt 0.488632 0.192326
vt 0.467816 0.192946
vt 0.467942 0.195628
vt 0.497035 0.186058
vt 0.498286 0.188415
vt 0.476041 0.124107
vt 0.508166 0.161760
vt 0.510392 0.160394
vt 0.477834 0.122191
vt 0.510522 0.166780
vt 0.513123 0.166281
vt 0.510839 0.171848
vt 0.513404 0.172245
vt 0.508982 0.176582
vt 0.511321 0.177851
vt 0.505153 0.180663
vt 0.506904 0.182676
vt 0.460780 0.117064
vt 0.465993 0.117971
vt 0.466734 0.115456
vt 0.460881 0.114493
vt 0.471289 0.120352
vt 0.472645 0.118084
vt 0.457798 0.192930
vt 0.736878 0.043638
vt 0.727127 0.043638
vt 0.727127 0.072579
vt 0.736878 0.072579
vt 0.746349 0.043638
vt 0.746349 0.072580
vt 0.625414 0.043638
vt 0.619280 0.043638
vt 0.619280 0.072579
vt 0.625414 0.072579
vt 0.613264 0.043638
vt 0.613264 0.072579
vt 0.674977 0.043638
vt 0.674977 0.072579
vt 0.707757 0.043638
vt 0.698159 0.043638
vt 0.698159 0.072579
vt 0.707757 0.072579
vt 0.692146 0.043638
vt 0.692146 0.072579
vt 0.717414 0.043638
vt 0.717414 0.072579
vt 0.686568 0.043638
vt 0.686568 0.072579
vt 0.680991 0.043638
vt 0.680991 0.072579
vt 0.457693 0.195628
vt 0.460495 0.124307
vt 0.460395 0.126864
vt 0.607691 0.043638
vt 0.607691 0.072579
vt 0.448770 0.184457
vt 0.449087 0.181782
vt 0.440152 0.180329
vt 0.439550 0.182932
vt 0.431908 0.177890
vt 0.430956 0.180349
vt 0.449610 0.128739
vt 0.451272 0.130704
vt 0.454554 0.128273
vt 0.453350 0.126040
vt 0.457603 0.127102
vt 0.457039 0.124640
vt 0.423222 0.176620
vt 0.424551 0.174395
vt 0.418299 0.169927
vt 0.416654 0.171826
vt 0.416871 0.168557
vt 0.414658 0.169782
vt 0.416299 0.167024
vt 0.413740 0.167218
vt 0.416628 0.165422
vt 0.414245 0.164538
vt 0.417856 0.163856
vt 0.415908 0.162195
vt 0.428109 0.187429
vt 0.427108 0.189908
vt 0.437112 0.193020
vt 0.437743 0.190418
vt 0.447475 0.194824
vt 0.447811 0.192160
vt 0.419222 0.183000
vt 0.417790 0.185251
vt 0.445012 0.122888
vt 0.443376 0.120837
vt 0.407920 0.156367
vt 0.410032 0.157904
vt 0.404736 0.162022
vt 0.407290 0.162723
vt 0.403988 0.167945
vt 0.406576 0.167751
vt 0.405624 0.173698
vt 0.408055 0.172616
vt 0.409649 0.178854
vt 0.411552 0.176985
vt 0.454969 0.114994
vt 0.455511 0.117559
vt 0.448871 0.117149
vt 0.450045 0.119517
vt 0.755820 0.043638
vt 0.755820 0.072580
vt 0.765571 0.072580
vt 0.765571 0.043638
vt 0.867284 0.043638
vt 0.867284 0.072580
vt 0.873418 0.072580
vt 0.873418 0.043638
vt 0.879435 0.072580
vt 0.879435 0.043638
vt 0.817722 0.043638
vt 0.817722 0.072580
vt 0.784941 0.043638
vt 0.784941 0.072580
vt 0.794539 0.072580
vt 0.794539 0.043638
vt 0.800553 0.072580
vt 0.800553 0.043638
vt 0.775285 0.043638
vt 0.775285 0.072580
vt 0.806130 0.072580
vt 0.806130 0.043638
vt 0.811708 0.072580
vt 0.811708 0.043638
vt 0.885007 0.072580
vt 0.885007 0.043638
s 1
f 1/1/1 2/2/2 3/3/3
f 1/1/1 3/3/3 4/4/4
f 5/2/5 6/5/6 7/6/3
f 5/2/5 7/6/3 8/3/3
f 9/7/7 10/1/1 11/4/4
f 9/7/7 11/4/4 12/8/8
f 13/9/9 14/10/10 15/11/11
f 13/9/9 15/11/11 16/12/11
f 17/10/10 18/13/12 19/14/13
f 17/10/10 19/14/13 20/11/11
f 21/15/14 22/16/15 23/17/3
f 21/15/14 23/17/3 24/18/11
f 25/16/16 26/19/17 27/20/11
f 25/16/16 27/20/11 28/17/3
f 29/19/17 30/21/18 31/22/19
f 29/19/17 31/22/19 32/20/19
f 33/21/18 34/23/20 35/24/21
f 33/21/18 35/24/21 36/22/19
f 37/23/20 38/25/9 39/26/11
f 37/23/20 39/26/11 40/24/22
f 41/25/9 42/9/23 43/12/11
f 41/25/9 43/12/11 44/26/24
f 45/5/25 46/15/26 47/18/11
f 45/5/25 47/18/11 48/6/3
f 49/27/27 50/28/28 51/29/29
f 49/27/27 51/29/29 52/30/30
f 53/28/28 54/31/31 55/32/32
f 53/28/28 55/32/32 56/29/29
f 57/33/33 58/27/34 59/30/30
f 57/33/33 59/30/30 60/34/35
f 61/35/36 62/36/37 63/37/38
f 61/35/36 63/37/38 64/38/38
f 65/36/37 66/39/39 67/40/40
f 65/36/37 67/40/40 68/37/38
f 69/39/39 70/41/41 71/42/42
f 69/39/39 71/42/42 72/40/40
f 73/41/43 74/43/44 75/44/45
f 73/41/43 75/44/45 76/42/42
f 77/43/46 78/45/47 79/46/48
f 77/43/46 79/46/48 80/44/45
f 81/45/49 82/33/33 83/34/35
f 81/45/49 83/34/35 84/46/48
f 85/47/50 86/48/51 87/49/52
f 85/47/50 87/49/52 88/50/53
f 89/48/54 90/51/55 91/52/56
f 89/48/54 91/52/56 92/49/52
f 93/51/55 94/35/36 95/38/38
f 93/51/55 95/38/38 96/52/56
f 97/53/57 98/31/31 99/1/58
f 97/53/57 99/1/58 100/7/7
f 101/31/31 102/28/28 103/2/2
f 101/31/31 103/2/2 104/1/58
f 105/28/28 106/27/34 107/5/6
f 105/28/28 107/5/6 108/2/2
f 109/27/34 110/33/33 111/15/26
f 109/27/34 111/15/26 112/5/6
f 113/36/36 114/35/59 115/9/59
f 113/36/36 115/9/59 116/25/23
f 117/35/36 118/51/55 119/10/10
f 117/35/36 119/10/10 120/9/59
f 121/51/55 122/48/51 123/13/12
f 121/51/55 123/13/12 124/10/10
f 125/33/33 126/45/60 127/16/15
f 125/33/33 127/16/15 128/15/26
f 129/45/47 130/43/61 131/19/17
f 129/45/47 131/19/17 132/16/15
f 133/43/46 134/41/62 135/21/18
f 133/43/46 135/21/18 136/19/17
f 137/41/43 138/39/39 139/23/20
f 137/41/43 139/23/20 140/21/18
f 141/39/39 142/36/37 143/25/9
f 141/39/39 143/25/9 144/23/20
f 145/54/63 146/55/64 147/56/29
f 145/54/63 147/56/29 148/57/32
f 149/58/65 150/54/63 151/57/32
f 149/58/65 151/57/32 152/59/65
f 153/60/38 154/61/66 155/62/56
f 153/60/38 155/62/56 156/63/38
f 157/61/67 158/64/68 159/65/52
f 157/61/67 159/65/52 160/62/56
f 161/66/69 162/60/70 163/63/38
f 161/66/69 163/63/38 164/67/71
f 165/68/72 166/69/73 167/70/48
f 165/68/72 167/70/48 168/71/35
f 169/69/74 170/72/75 171/73/45
f 169/69/74 171/73/45 172/70/48
f 173/74/76 174/68/72 175/71/35
f 173/74/76 175/71/35 176/75/77
f 177/72/75 178/76/78 179/77/42
f 177/72/75 179/77/42 180/73/45
f 181/76/78 182/78/79 183/79/40
f 181/76/78 183/79/40 184/77/80
f 185/78/79 186/66/38 187/67/38
f 185/78/79 187/67/38 188/79/40
f 189/55/64 190/74/76 191/75/77
f 189/55/64 191/75/77 192/56/29
f 193/31/31 194/53/57 195/80/65
f 193/31/31 195/80/65 196/32/32
f 197/13/12 198/81/81 199/82/24
f 197/13/12 199/82/24 200/14/13
f 201/48/51 202/47/50 203/81/81
f 201/48/51 203/81/81 204/13/12
f 217/82/11 218/8/8 205/4/82
f 205/4/82 206/3/3 207/6/83
f 207/6/83 208/18/11 209/17/3
f 209/17/3 210/20/11 211/22/22
f 211/22/22 212/24/22 213/26/84
f 213/26/84 214/12/11 215/11/19
f 215/11/19 216/14/85 217/82/11
f 217/82/11 205/4/82 207/6/83
f 207/6/83 209/17/3 211/22/22
f 211/22/22 213/26/84 215/11/19
f 215/11/19 217/82/11 207/6/83
f 207/6/83 211/22/22 215/11/19
f 219/64/86 220/83/87 221/84/53
f 219/64/86 221/84/53 222/65/52
f 223/85/88 224/86/3 225/87/3
f 223/85/88 225/87/3 226/88/89
f 227/88/89 228/87/3 229/89/3
f 227/88/89 229/89/3 230/90/90
f 231/7/7 232/8/8 233/86/3
f 231/7/7 233/86/3 234/85/91
f 235/91/92 236/92/83 237/93/11
f 235/91/92 237/93/11 238/94/93
f 239/94/94 240/93/11 241/95/24
f 239/94/94 241/95/24 242/96/95
f 243/97/96 244/98/11 245/99/3
f 243/97/96 245/99/3 246/100/97
f 247/100/98 248/99/3 249/101/3
f 247/100/98 249/101/3 250/102/99
f 251/102/100 252/101/3 253/103/83
f 251/102/100 253/103/83 254/104/101
f 255/104/101 256/103/102 257/105/102
f 255/104/101 257/105/102 258/106/103
f 259/106/103 260/105/102 261/107/11
f 259/106/103 261/107/11 262/108/104
f 263/108/104 264/107/11 265/92/11
f 263/108/104 265/92/11 266/91/105
f 267/90/90 268/89/3 269/98/11
f 267/90/90 269/98/11 270/97/96
f 271/109/106 272/110/107 273/111/108
f 271/109/106 273/111/108 274/112/109
f 275/112/110 276/111/108 277/113/111
f 275/112/110 277/113/111 278/114/112
f 279/115/113 280/116/114 281/110/107
f 279/115/113 281/110/107 282/109/115
f 283/117/116 284/118/117 285/119/118
f 283/117/116 285/119/118 286/120/116
f 287/120/116 288/119/118 289/121/119
f 287/120/116 289/121/119 290/122/120
f 291/122/120 292/121/119 293/123/121
f 291/122/120 293/123/121 294/124/122
f 295/124/122 296/123/121 297/125/123
f 295/124/122 297/125/123 298/126/124
f 299/126/125 300/125/123 301/127/126
f 299/126/125 301/127/126 302/128/127
f 303/128/127 304/127/128 305/116/114
f 303/128/127 305/116/114 306/115/113
f 307/47/50 308/50/53 309/129/129
f 307/47/50 309/129/129 310/130/130
f 311/130/130 312/129/129 313/131/131
f 311/130/130 313/131/131 314/132/132
f 315/132/133 316/131/131 317/118/117
f 315/132/133 317/118/117 318/117/116
f 319/53/57 320/7/7 321/85/91
f 319/53/57 321/85/91 322/114/112
f 323/114/112 324/85/91 325/88/89
f 323/114/112 325/88/89 326/112/109
f 327/112/109 328/88/89 329/90/134
f 327/112/109 329/90/134 330/109/115
f 331/109/115 332/90/134 333/97/96
f 331/109/115 333/97/96 334/115/113
f 335/120/135 336/108/136 337/91/137
f 335/120/135 337/91/137 338/117/138
f 339/117/116 340/91/105 341/94/93
f 339/117/116 341/94/93 342/132/132
f 343/132/132 344/94/93 345/96/95
f 343/132/132 345/96/95 346/130/130
f 347/115/139 348/97/96 349/100/97
f 347/115/139 349/100/97 350/128/127
f 351/128/140 352/100/97 353/102/100
f 351/128/140 353/102/100 354/126/141
f 355/126/125 356/102/100 357/104/142
f 355/126/125 357/104/142 358/124/143
f 359/124/122 360/104/144 361/106/103
f 359/124/122 361/106/103 362/122/120
f 363/122/120 364/106/103 365/108/104
f 363/122/120 365/108/104 366/120/116
f 367/133/145 368/134/111 369/135/108
f 367/133/145 369/135/108 370/136/146
f 371/58/65 372/59/65 373/134/111
f 371/58/65 373/134/111 374/133/145
f 375/137/118 376/138/117 377/139/131
f 375/137/118 377/139/131 378/140/147
f 379/140/147 380/139/131 381/141/129
f 379/140/147 381/141/129 382/142/148
f 383/143/118 384/144/118 385/138/118
f 383/143/118 385/138/118 386/137/118
f 387/145/114 388/146/114 389/147/126
f 387/145/114 389/147/126 390/148/149
f 391/148/149 392/147/126 393/149/123
f 391/148/149 393/149/123 394/150/150
f 395/151/151 396/152/107 397/146/114
f 395/151/151 397/146/114 398/145/152
f 399/150/153 400/149/123 401/153/154
f 399/150/153 401/153/154 402/154/155
f 403/154/156 404/153/157 405/155/158
f 403/154/156 405/155/158 406/156/159
f 407/156/159 408/155/119 409/144/118
f 407/156/159 409/144/118 410/143/160
f 411/136/146 412/135/108 413/152/107
f 411/136/146 413/152/107 414/151/151
f 415/114/112 416/113/111 417/80/65
f 415/114/112 417/80/65 418/53/57
f 419/96/95 420/95/13 421/82/24
f 419/96/95 421/82/24 422/81/81
f 423/130/130 424/96/95 425/81/81
f 423/130/130 425/81/81 426/47/50
f 439/89/82 440/87/3 427/86/161
f 427/86/161 428/8/161 429/82/162
f 429/82/162 430/95/163 431/93/11
f 431/93/11 432/92/11 433/107/161
f 433/107/161 434/105/102 435/103/3
f 435/103/3 436/101/164 437/99/11
f 437/99/11 438/98/11 439/89/82
f 439/89/82 427/86/161 429/82/162
f 429/82/162 431/93/11 433/107/161
f 433/107/161 435/103/3 437/99/11
f 437/99/11 439/89/82 429/82/162
f 429/82/162 433/107/161 437/99/11
f 441/142/165 442/141/129 443/157/166
f 441/142/165 443/157/166 444/158/87
