# Blender 5.2.0 LTS
# www.blender.org
mtllib button_14.mtl
o button_14
v -0.297586 0.292386 0.149119
v -0.307386 0.311289 0.149119
v -0.316417 0.306607 0.150422
v -0.306617 0.287704 0.150422
v -0.306617 0.287704 0.150422
v -0.316417 0.306607 0.150422
v -0.325448 0.301925 0.149119
v -0.315648 0.283022 0.149119
v -0.316417 0.306607 0.150422
v -0.307386 0.311289 0.149119
v -0.310036 0.315287 0.147193
v -0.318612 0.310841 0.148431
v -0.325448 0.301925 0.149119
v -0.316417 0.306607 0.150422
v -0.318612 0.310841 0.148431
v -0.327188 0.306395 0.147193
v -0.333640 0.297678 0.145296
v -0.325448 0.301925 0.149119
v -0.327188 0.306395 0.147193
v -0.334951 0.302370 0.143571
v -0.315648 0.283022 0.149119
v -0.325448 0.301925 0.149119
v -0.333640 0.297678 0.145296
v -0.323840 0.278775 0.145296
v -0.340675 0.294031 0.139216
v -0.333640 0.297678 0.145296
v -0.334951 0.302370 0.143571
v -0.341619 0.298913 0.137807
v -0.323840 0.278775 0.145296
v -0.333640 0.297678 0.145296
v -0.340675 0.294031 0.139216
v -0.330875 0.275128 0.139216
v -0.330875 0.275128 0.139216
v -0.340675 0.294031 0.139216
v -0.346073 0.291232 0.131292
v -0.336274 0.272329 0.131292
v -0.336274 0.272329 0.131292
v -0.346073 0.291232 0.131292
v -0.349467 0.289473 0.122063
v -0.339667 0.270570 0.122063
v -0.346073 0.291232 0.131292
v -0.340675 0.294031 0.139216
v -0.341619 0.298913 0.137807
v -0.346737 0.296260 0.130295
v -0.349467 0.289473 0.122063
v -0.346073 0.291232 0.131292
v -0.346737 0.296260 0.130295
v -0.349964 0.294587 0.121519
v -0.350624 0.288873 0.112161
v -0.349467 0.289473 0.122063
v -0.349964 0.294587 0.121519
v -0.351058 0.294020 0.112161
v -0.339667 0.270570 0.122063
v -0.349467 0.289473 0.122063
v -0.350624 0.288873 0.112161
v -0.340824 0.269970 0.112161
v -0.350624 0.288873 0.112161
v -0.351058 0.294020 0.112161
v -0.351058 0.294020 0.086489
v -0.350624 0.288873 0.086489
v -0.340824 0.269970 0.112161
v -0.350624 0.288873 0.112161
v -0.350624 0.288873 0.086489
v -0.340824 0.269970 0.086489
v -0.340824 0.269970 0.086489
v -0.350624 0.288873 0.086489
v -0.350624 0.288873 0.017455
v -0.340824 0.269970 0.017455
v -0.350624 0.288873 0.017455
v -0.350624 0.288873 0.086489
v -0.351058 0.294020 0.086489
v -0.351058 0.294020 0.017608
v -0.351058 0.294020 0.112161
v -0.347715 0.297978 0.112161
v -0.347716 0.297978 0.086489
v -0.351058 0.294020 0.086489
v -0.351058 0.294020 0.017608
v -0.351058 0.294020 0.086489
v -0.347716 0.297978 0.086489
v -0.347716 0.297977 0.017980
v -0.349721 0.289341 0.012336
v -0.350624 0.288873 0.017455
v -0.351058 0.294020 0.017608
v -0.350264 0.294432 0.013107
v -0.350264 0.294432 0.013107
v -0.351058 0.294020 0.017608
v -0.347716 0.297977 0.017980
v -0.347184 0.298253 0.014968
v -0.347716 0.297977 0.017980
v -0.347716 0.297978 0.086489
v -0.323282 0.310645 0.052234
v -0.319521 0.312595 0.047998
v -0.291325 0.327212 0.017979
v -0.347716 0.297977 0.017980
v -0.291325 0.327212 0.017979
v -0.291857 0.326936 0.014968
v -0.293108 0.326288 0.012859
v -0.294980 0.325318 0.011450
v -0.297777 0.323867 0.010824
v -0.341264 0.301322 0.010824
v -0.344062 0.299872 0.011450
v -0.345934 0.298902 0.012859
v -0.347184 0.298253 0.014968
v -0.347716 0.297977 0.017980
v -0.322180 0.311216 0.049239
v -0.319521 0.312595 0.047998
v -0.347716 0.297977 0.017980
v -0.323282 0.310645 0.052234
v -0.322180 0.311216 0.049239
v -0.347716 0.297977 0.017980
v -0.323282 0.310645 0.052234
v -0.322180 0.311216 0.055230
v -0.322818 0.313640 0.054680
v -0.323559 0.313875 0.052234
v -0.322180 0.311216 0.049239
v -0.323282 0.310645 0.052234
v -0.323559 0.313875 0.052234
v -0.322818 0.313640 0.049789
v -0.347716 0.297978 0.086489
v -0.322180 0.311216 0.055230
v -0.323282 0.310645 0.052234
v -0.322180 0.311216 0.055230
v -0.319521 0.312595 0.056471
v -0.320900 0.315254 0.055230
v -0.322818 0.313640 0.054680
v -0.347716 0.297978 0.086489
v -0.319521 0.312595 0.056471
v -0.322180 0.311216 0.055230
v -0.319521 0.312595 0.056471
v -0.316862 0.313974 0.055230
v -0.318475 0.315892 0.054680
v -0.320900 0.315254 0.055230
v -0.319521 0.312595 0.056471
v -0.291326 0.327212 0.086489
v -0.316862 0.313974 0.055230
v -0.347716 0.297978 0.086489
v -0.291326 0.327212 0.086489
v -0.319521 0.312595 0.056471
v -0.291325 0.327212 0.017979
v -0.315760 0.314545 0.052234
v -0.291326 0.327212 0.086489
v -0.286165 0.327662 0.017608
v -0.291325 0.327212 0.017979
v -0.291326 0.327212 0.086489
v -0.286165 0.327662 0.086489
v -0.286165 0.327662 0.112161
v -0.286165 0.327662 0.086489
v -0.291326 0.327212 0.086489
v -0.291326 0.327212 0.112161
v -0.291326 0.327212 0.112161
v -0.291326 0.327212 0.086489
v -0.347716 0.297978 0.086489
v -0.347715 0.297978 0.112161
v -0.316862 0.313974 0.055230
v -0.291326 0.327212 0.086489
v -0.315760 0.314545 0.052234
v -0.315760 0.314545 0.052234
v -0.316862 0.313974 0.049239
v -0.318475 0.315892 0.049789
v -0.318240 0.316633 0.052234
v -0.316862 0.313974 0.055230
v -0.315760 0.314545 0.052234
v -0.318240 0.316633 0.052234
v -0.318475 0.315892 0.054680
v -0.315760 0.314545 0.052234
v -0.291325 0.327212 0.017979
v -0.316862 0.313974 0.049239
v -0.316862 0.313974 0.049239
v -0.319521 0.312595 0.047998
v -0.320900 0.315254 0.049239
v -0.318475 0.315892 0.049789
v -0.316862 0.313974 0.049239
v -0.291325 0.327212 0.017979
v -0.319521 0.312595 0.047998
v -0.318475 0.315892 0.049789
v -0.320900 0.315254 0.049239
v -0.321471 0.316356 0.052234
v -0.318240 0.316633 0.052234
v -0.320900 0.315254 0.049239
v -0.322818 0.313640 0.049789
v -0.323559 0.313875 0.052234
v -0.321471 0.316356 0.052234
v -0.319521 0.312595 0.047998
v -0.322180 0.311216 0.049239
v -0.322818 0.313640 0.049789
v -0.320900 0.315254 0.049239
v -0.318240 0.316633 0.052234
v -0.321471 0.316356 0.052234
v -0.320900 0.315254 0.055230
v -0.318475 0.315892 0.054680
v -0.321471 0.316356 0.052234
v -0.323559 0.313875 0.052234
v -0.322818 0.313640 0.054680
v -0.320900 0.315254 0.055230
v -0.287259 0.327095 0.121519
v -0.286165 0.327662 0.112161
v -0.291326 0.327212 0.112161
v -0.292267 0.326724 0.120203
v -0.319521 0.312595 0.143623
v -0.312043 0.316471 0.142543
v -0.305317 0.319959 0.139405
v -0.299533 0.322957 0.134406
v -0.295094 0.325258 0.127890
v -0.292267 0.326724 0.120203
v -0.291326 0.327212 0.112161
v -0.347715 0.297978 0.112161
v -0.346774 0.298466 0.120203
v -0.343947 0.299931 0.127890
v -0.339509 0.302232 0.134406
v -0.333725 0.305231 0.139405
v -0.326998 0.308718 0.142543
v -0.351058 0.294020 0.112161
v -0.349964 0.294587 0.121519
v -0.346774 0.298466 0.120203
v -0.347715 0.297978 0.112161
v -0.349964 0.294587 0.121519
v -0.346737 0.296260 0.130295
v -0.343947 0.299931 0.127890
v -0.346774 0.298466 0.120203
v -0.346737 0.296260 0.130295
v -0.341619 0.298913 0.137807
v -0.339509 0.302232 0.134406
v -0.343947 0.299931 0.127890
v -0.341619 0.298913 0.137807
v -0.334951 0.302370 0.143571
v -0.333725 0.305231 0.139405
v -0.339509 0.302232 0.134406
v -0.334951 0.302370 0.143571
v -0.327188 0.306395 0.147193
v -0.326998 0.308718 0.142543
v -0.333725 0.305231 0.139405
v -0.327188 0.306395 0.147193
v -0.318612 0.310841 0.148431
v -0.319521 0.312595 0.143623
v -0.326998 0.308718 0.142543
v -0.318612 0.310841 0.148431
v -0.310036 0.315287 0.147193
v -0.312043 0.316471 0.142543
v -0.319521 0.312595 0.143623
v -0.310036 0.315287 0.147193
v -0.302272 0.319312 0.143571
v -0.305317 0.319959 0.139405
v -0.312043 0.316471 0.142543
v -0.302272 0.319312 0.143571
v -0.295604 0.322769 0.137807
v -0.299533 0.322957 0.134406
v -0.305317 0.319959 0.139405
v -0.295604 0.322769 0.137807
v -0.290487 0.325422 0.130295
v -0.295094 0.325258 0.127890
v -0.299533 0.322957 0.134406
v -0.290487 0.325422 0.130295
v -0.287259 0.327095 0.121519
v -0.292267 0.326724 0.120203
v -0.295094 0.325258 0.127890
v -0.292158 0.319184 0.139216
v -0.286760 0.321982 0.131292
v -0.290487 0.325422 0.130295
v -0.295604 0.322769 0.137807
v -0.286760 0.321982 0.131292
v -0.283366 0.323741 0.122063
v -0.287259 0.327095 0.121519
v -0.290487 0.325422 0.130295
v -0.283366 0.323741 0.122063
v -0.282209 0.324341 0.112161
v -0.286165 0.327662 0.112161
v -0.287259 0.327095 0.121519
v -0.272409 0.305438 0.112161
v -0.282209 0.324341 0.112161
v -0.283366 0.323741 0.122063
v -0.273566 0.304838 0.122063
v -0.273566 0.304838 0.122063
v -0.283366 0.323741 0.122063
v -0.286760 0.321982 0.131292
v -0.276960 0.303079 0.131292
v -0.276960 0.303079 0.131292
v -0.286760 0.321982 0.131292
v -0.292158 0.319184 0.139216
v -0.282358 0.300280 0.139216
v -0.282358 0.300280 0.139216
v -0.292158 0.319184 0.139216
v -0.299193 0.315536 0.145296
v -0.289393 0.296633 0.145296
v -0.299193 0.315536 0.145296
v -0.292158 0.319184 0.139216
v -0.295604 0.322769 0.137807
v -0.302272 0.319312 0.143571
v -0.307386 0.311289 0.149119
v -0.299193 0.315536 0.145296
v -0.302272 0.319312 0.143571
v -0.310036 0.315287 0.147193
v -0.289393 0.296633 0.145296
v -0.299193 0.315536 0.145296
v -0.307386 0.311289 0.149119
v -0.297586 0.292386 0.149119
v -0.272409 0.305438 0.086489
v -0.282209 0.324341 0.086489
v -0.282209 0.324341 0.112161
v -0.272409 0.305438 0.112161
v -0.272409 0.305438 0.017455
v -0.282209 0.324341 0.017455
v -0.282209 0.324341 0.086489
v -0.272409 0.305438 0.086489
v -0.282209 0.324341 0.112161
v -0.282209 0.324341 0.086489
v -0.286165 0.327662 0.086489
v -0.286165 0.327662 0.112161
v -0.282209 0.324341 0.017455
v -0.286165 0.327662 0.017608
v -0.286165 0.327662 0.086489
v -0.282209 0.324341 0.086489
v -0.282209 0.324341 0.017455
v -0.283113 0.323873 0.012336
v -0.286960 0.327250 0.013107
v -0.286165 0.327662 0.017608
v -0.273313 0.304970 0.012336
v -0.283113 0.323873 0.012336
v -0.282209 0.324341 0.017455
v -0.272409 0.305438 0.017455
v -0.275887 0.303635 0.007997
v -0.285687 0.322538 0.007997
v -0.283113 0.323873 0.012336
v -0.273313 0.304970 0.012336
v -0.283113 0.323873 0.012336
v -0.285687 0.322538 0.007997
v -0.289146 0.326117 0.009421
v -0.286960 0.327250 0.013107
v -0.279739 0.301638 0.005097
v -0.289539 0.320541 0.005097
v -0.285687 0.322538 0.007997
v -0.275887 0.303635 0.007997
v -0.284284 0.299282 0.004079
v -0.294084 0.318185 0.004079
v -0.289539 0.320541 0.005097
v -0.279739 0.301638 0.005097
v -0.289539 0.320541 0.005097
v -0.294084 0.318185 0.004079
v -0.296451 0.322330 0.006055
v -0.292419 0.324420 0.006958
v -0.285687 0.322538 0.007997
v -0.289539 0.320541 0.005097
v -0.292419 0.324420 0.006958
v -0.289146 0.326117 0.009421
v -0.292419 0.324420 0.006958
v -0.296451 0.322330 0.006055
v -0.297777 0.323867 0.010824
v -0.294980 0.325318 0.011450
v -0.289146 0.326117 0.009421
v -0.292419 0.324420 0.006958
v -0.294980 0.325318 0.011450
v -0.293108 0.326288 0.012859
v -0.286960 0.327250 0.013107
v -0.289146 0.326117 0.009421
v -0.293108 0.326288 0.012859
v -0.291857 0.326936 0.014968
v -0.286165 0.327662 0.017608
v -0.286960 0.327250 0.013107
v -0.291857 0.326936 0.014968
v -0.291325 0.327212 0.017979
v -0.296451 0.322330 0.006055
v -0.340772 0.299352 0.006055
v -0.341264 0.301322 0.010824
v -0.297777 0.323867 0.010824
v -0.340772 0.299352 0.006055
v -0.344805 0.297262 0.006958
v -0.344062 0.299872 0.011450
v -0.341264 0.301322 0.010824
v -0.344805 0.297262 0.006958
v -0.348077 0.295565 0.009421
v -0.345934 0.298902 0.012859
v -0.344062 0.299872 0.011450
v -0.348077 0.295565 0.009421
v -0.350264 0.294432 0.013107
v -0.347184 0.298253 0.014968
v -0.345934 0.298902 0.012859
v -0.343294 0.292673 0.005097
v -0.347146 0.290676 0.007997
v -0.348077 0.295565 0.009421
v -0.344805 0.297262 0.006958
v -0.347146 0.290676 0.007997
v -0.349721 0.289341 0.012336
v -0.350264 0.294432 0.013107
v -0.348077 0.295565 0.009421
v -0.339921 0.270438 0.012336
v -0.349721 0.289341 0.012336
v -0.347146 0.290676 0.007997
v -0.337346 0.271773 0.007997
v -0.337346 0.271773 0.007997
v -0.347146 0.290676 0.007997
v -0.343294 0.292673 0.005097
v -0.333494 0.273770 0.005097
v -0.333494 0.273770 0.005097
v -0.343294 0.292673 0.005097
v -0.338750 0.295029 0.004079
v -0.328950 0.276126 0.004079
v -0.328950 0.276126 0.004079
v -0.338750 0.295029 0.004079
v -0.294084 0.318185 0.004079
v -0.284284 0.299282 0.004079
v -0.338750 0.295029 0.004079
v -0.343294 0.292673 0.005097
v -0.344805 0.297262 0.006958
v -0.340772 0.299352 0.006055
v -0.294084 0.318185 0.004079
v -0.338750 0.295029 0.004079
v -0.340772 0.299352 0.006055
v -0.296451 0.322330 0.006055
v -0.340824 0.269970 0.017455
v -0.350624 0.288873 0.017455
v -0.349721 0.289341 0.012336
v -0.339921 0.270438 0.012336
vn 0.2269 0.1176 0.9668
vn 0.1917 0.1837 0.9641
vn -0.0344 0.0664 0.9972
vn -0.0000 -0.0000 1.0000
vn -0.2606 -0.0508 0.9641
vn -0.2269 -0.1176 0.9668
vn -0.1578 0.7025 0.6939
vn -0.3205 0.6182 0.7177
vn -0.0345 0.0664 0.9972
vn -0.4832 0.5338 0.6940
vn -0.4771 -0.1630 0.8636
vn -0.6391 0.4526 0.6219
vn -0.4771 -0.1631 0.8636
vn -0.4439 -0.2301 0.8660
vn -0.6605 -0.2581 0.7051
vn -0.7711 0.3842 0.5078
vn -0.6604 -0.2581 0.7052
vn -0.6277 -0.3254 0.7072
vn -0.6277 -0.3254 0.7071
vn -0.6604 -0.2581 0.7051
vn -0.8012 -0.3310 0.4986
vn -0.7689 -0.3986 0.5000
vn -0.8894 -0.3771 0.2583
vn -0.8575 -0.4446 0.2589
vn -0.8723 0.3323 0.3587
vn -0.8723 0.3323 0.3586
vn -0.9363 0.2978 0.1863
vn -0.8879 -0.4600 0.0001
vn -0.9539 0.2990 0.0250
vn -0.8575 -0.4446 0.2588
vn -0.8878 -0.4603 -0.0000
vn -0.8879 -0.4600 -0.0000
vn -0.9528 0.3037 -0.0000
vn -0.8879 -0.4601 0.0001
vn -0.8879 -0.4600 -0.0001
vn -0.8879 -0.4601 -0.0000
vn -0.9528 0.3035 -0.0000
vn -0.4604 0.8877 -0.0000
vn -0.9528 0.3036 -0.0000
vn -0.4604 0.8877 -0.0001
vn -0.4605 0.8877 -0.0000
vn -0.8517 -0.3594 -0.3814
vn -0.9177 0.2807 -0.2812
vn -0.9177 0.2808 -0.2812
vn -0.4603 0.8878 -0.0000
vn -0.4600 0.8879 -0.0000
vn -0.4606 0.8876 -0.0000
vn -0.4602 0.8878 0.0001
vn -0.4605 0.8876 -0.0000
vn -0.4602 0.8878 -0.0000
vn -0.4597 0.8881 -0.0002
vn -0.4602 0.8878 -0.0001
vn -0.4603 0.8878 -0.0001
vn -0.4603 0.8878 -0.0003
vn -0.4603 0.8878 -0.0005
vn -0.4603 0.8878 -0.0002
vn -0.4603 0.8877 0.0001
vn -0.4606 0.8876 0.0001
vn -0.4606 0.8876 -0.0002
vn -0.7784 0.2467 0.5773
vn -0.9532 0.3022 -0.0001
vn -0.7783 0.2467 -0.5773
vn -0.4605 0.8877 0.0001
vn -0.3256 0.6277 0.7071
vn -0.4603 0.8877 -0.0001
vn -0.4604 0.8877 0.0001
vn -0.4601 0.8879 0.0001
vn 0.2468 0.7783 0.5773
vn 0.3010 0.9536 -0.0000
vn -0.4600 0.8879 0.0001
vn 0.3054 0.9519 0.0250
vn -0.4601 0.8879 -0.0000
vn 0.2468 0.7783 -0.5774
vn 0.3023 0.9532 -0.0001
vn -0.4601 0.8879 -0.0001
vn -0.3255 0.6278 -0.7071
vn -0.3255 0.6277 -0.7071
vn -0.7783 0.2467 -0.5774
vn 0.2962 0.9368 0.1863
vn 0.3055 0.9519 0.0250
vn -0.4603 0.8878 0.0004
vn -0.4602 0.8878 0.0004
vn -0.4605 0.8877 0.0002
vn -0.9539 0.2991 0.0250
vn -0.6391 0.4526 0.6218
vn -0.4604 0.8877 0.0002
vn -0.4604 0.8877 0.0003
vn -0.4603 0.8878 0.0003
vn -0.4604 0.8877 0.0004
vn -0.4602 0.8878 0.0003
vn -0.0016 0.7831 0.6218
vn -0.4602 0.8878 0.0002
vn -0.0016 0.7832 0.6218
vn 0.1303 0.8516 0.5077
vn 0.2312 0.9044 0.3586
vn 0.5916 0.3910 0.7051
vn 0.7322 0.4640 0.4986
vn 0.1304 0.8516 0.5077
vn 0.8208 0.5096 0.2581
vn 0.8877 0.4604 0.0001
vn 0.8878 0.4603 -0.0000
vn 0.8575 0.4446 0.2588
vn 0.7322 0.4639 0.4986
vn 0.7689 0.3986 0.5000
vn 0.7688 0.3986 0.5000
vn 0.7322 0.4639 0.4987
vn 0.6278 0.3254 0.7071
vn 0.6277 0.3254 0.7072
vn 0.4082 0.2959 0.8636
vn 0.4439 0.2302 0.8660
vn -0.0016 0.7831 0.6219
vn 0.4439 0.2301 0.8660
vn 0.8876 0.4605 -0.0001
vn 0.8879 0.4601 -0.0003
vn 0.8876 0.4607 -0.0002
vn 0.8877 0.4605 -0.0001
vn 0.8877 0.4604 -0.0001
vn 0.3011 0.9536 -0.0000
vn 0.7846 0.4889 -0.3813
vn 0.2994 0.9118 -0.2812
vn 0.8202 0.4252 -0.3827
vn 0.8878 0.4602 -0.0001
vn 0.6278 0.3255 -0.7071
vn 0.5927 0.3889 -0.7053
vn 0.7846 0.4888 -0.3814
vn 0.7845 0.4889 -0.3814
vn 0.1622 0.8338 -0.5277
vn 0.2994 0.9117 -0.2812
vn 0.3398 0.1762 -0.9238
vn 0.3049 0.2405 -0.9215
vn -0.0000 -0.0000 -1.0000
vn -0.0000 0.0002 -1.0000
vn 0.3398 0.1761 -0.9239
vn -0.3131 0.6296 -0.7110
vn -0.0613 0.7265 -0.6844
vn -0.3131 0.6297 -0.7110
vn -0.4602 0.8878 -0.0003
vn -0.4602 0.8878 -0.0002
vn -0.4601 0.8879 -0.0002
vn -0.4600 0.8879 -0.0001
vn -0.3131 0.6297 -0.7109
vn -0.3341 0.6188 -0.7110
vn -0.5584 0.4688 -0.6844
vn -0.7749 0.3480 -0.5277
vn -0.4604 0.8877 -0.0002
vn -0.3722 -0.1106 -0.9215
vn -0.6594 -0.2603 -0.7053
vn -0.8517 -0.3593 -0.3814
vn -0.8202 -0.4252 -0.3827
vn -0.6277 -0.3254 -0.7071
vn -0.6277 -0.3254 -0.7072
vn -0.3399 -0.1762 -0.9238
vn -0.3398 -0.1762 -0.9239
vn -0.0002 0.0001 -1.0000
vn -0.0001 -0.0001 -1.0000
vn -0.8878 -0.4603 -0.0002
vn -0.8879 -0.4600 -0.0002
vt 0.730336 0.205374
vt 0.718008 0.205374
vt 0.718008 0.211212
vt 0.730336 0.211212
vt 0.718008 0.217050
vt 0.730336 0.217050
vt 0.715015 0.205374
vt 0.715015 0.211212
vt 0.715015 0.217050
vt 0.718008 0.222732
vt 0.715015 0.222732
vt 0.730336 0.222732
vt 0.718008 0.228415
vt 0.715015 0.228415
vt 0.730336 0.228415
vt 0.718008 0.234097
vt 0.730336 0.234097
vt 0.718008 0.239786
vt 0.730336 0.239786
vt 0.715015 0.234097
vt 0.715015 0.239786
vt 0.718008 0.245463
vt 0.715015 0.245463
vt 0.730336 0.245463
vt 0.715015 0.260326
vt 0.718008 0.260326
vt 0.730336 0.260326
vt 0.718008 0.300266
vt 0.730336 0.300266
vt 0.715015 0.300266
vt 0.949657 0.187591
vt 0.946651 0.187602
vt 0.946620 0.202458
vt 0.949618 0.202464
vt 0.949555 0.242255
vt 0.946556 0.241998
vt 0.718008 0.303166
vt 0.715015 0.303166
vt 0.949007 0.244905
vt 0.946192 0.243721
vt 0.930617 0.222216
vt 0.928242 0.224589
vt 0.909909 0.241995
vt 0.910268 0.243725
vt 0.911081 0.244932
vt 0.912281 0.245752
vt 0.914089 0.246135
vt 0.942375 0.246119
vt 0.944179 0.245739
vt 0.945378 0.244923
vt 0.929911 0.223885
vt 0.929912 0.220554
vt 0.929123 0.221343
vt 0.929237 0.222218
vt 0.929122 0.223095
vt 0.928247 0.219854
vt 0.928246 0.221229
vt 0.926582 0.220553
vt 0.927370 0.221342
vt 0.909902 0.202419
vt 0.925878 0.222215
vt 0.906904 0.242247
vt 0.906902 0.202418
vt 0.906902 0.187537
vt 0.909909 0.187557
vt 0.926579 0.223882
vt 0.927368 0.223094
vt 0.927255 0.222218
vt 0.928245 0.223210
vt 0.928246 0.222219
vt 0.907630 0.182078
vt 0.910532 0.182904
vt 0.937567 0.171820
vt 0.933185 0.169995
vt 0.928307 0.169359
vt 0.923427 0.169980
vt 0.919039 0.171795
vt 0.915267 0.174687
vt 0.912375 0.178457
vt 0.946041 0.182949
vt 0.944210 0.178499
vt 0.941329 0.174723
vt 0.948944 0.182131
vt 0.946833 0.176994
vt 0.943474 0.172588
vt 0.939088 0.169202
vt 0.933975 0.167068
vt 0.928314 0.166314
vt 0.922646 0.167049
vt 0.917523 0.169172
vt 0.913126 0.172546
vt 0.909755 0.176945
vt 0.718008 0.194009
vt 0.718008 0.188326
vt 0.715015 0.188326
vt 0.715015 0.194009
vt 0.718008 0.182637
vt 0.715015 0.182637
vt 0.718008 0.176960
vt 0.715015 0.176960
vt 0.730336 0.176960
vt 0.730336 0.182637
vt 0.730336 0.188326
vt 0.730336 0.194009
vt 0.718008 0.199692
vt 0.730336 0.199692
vt 0.715015 0.199692
vt 0.730336 0.162097
vt 0.718008 0.162097
vt 0.730336 0.122157
vt 0.718008 0.122157
vt 0.715015 0.162097
vt 0.715015 0.122157
vt 0.718008 0.119257
vt 0.715015 0.119257
vt 0.730336 0.119257
vt 0.730336 0.116387
vt 0.718008 0.116387
vt 0.715015 0.116387
vt 0.730336 0.113517
vt 0.718008 0.113517
vt 0.730336 0.110609
vt 0.718008 0.110609
vt 0.715015 0.110609
vt 0.715015 0.113517
vt 0.911083 0.248577
vt 0.913773 0.249146
vt 0.908903 0.247094
vt 0.907443 0.244904
vt 0.942690 0.249112
vt 0.945367 0.248554
vt 0.947543 0.247084
vt 0.718008 0.078646
vt 0.718008 0.075776
vt 0.715015 0.075776
vt 0.715015 0.078646
vt 0.718008 0.306036
vt 0.715015 0.306036
vt 0.730336 0.303166
vt 0.730336 0.306036
vt 0.730336 0.075776
vt 0.730336 0.078646
vt 0.718008 0.081554
vt 0.730336 0.081554
vt 0.715015 0.081554
s 1
f 1/1/1 2/2/2 3/3/3
f 1/1/1 3/3/3 4/4/4
f 5/4/4 6/3/3 7/5/5
f 5/4/4 7/5/5 8/6/6
f 9/3/3 10/2/2 11/7/7
f 9/3/3 11/7/7 12/8/8
f 13/5/5 14/3/9 15/8/8
f 13/5/5 15/8/8 16/9/10
f 17/10/11 18/5/5 19/9/10
f 17/10/11 19/9/10 20/11/12
f 21/6/6 22/5/5 23/10/13
f 21/6/6 23/10/13 24/12/14
f 25/13/15 26/10/13 27/11/12
f 25/13/15 27/11/12 28/14/16
f 29/12/14 30/10/13 31/13/17
f 29/12/14 31/13/17 32/15/18
f 33/15/19 34/13/20 35/16/21
f 33/15/19 35/16/21 36/17/22
f 37/17/22 38/16/21 39/18/23
f 37/17/22 39/18/23 40/19/24
f 41/16/21 42/13/15 43/14/16
f 41/16/21 43/14/16 44/20/25
f 45/18/23 46/16/21 47/20/26
f 45/18/23 47/20/26 48/21/27
f 49/22/28 50/18/23 51/21/27
f 49/22/28 51/21/27 52/23/29
f 53/19/30 54/18/23 55/22/28
f 53/19/30 55/22/28 56/24/31
f 57/22/32 58/23/29 59/25/33
f 57/22/32 59/25/33 60/26/34
f 61/24/31 62/22/28 63/26/31
f 61/24/31 63/26/31 64/27/31
f 65/27/31 66/26/31 67/28/35
f 65/27/31 67/28/35 68/29/31
f 69/28/35 70/26/36 71/25/33
f 69/28/35 71/25/33 72/30/37
f 73/31/29 74/32/38 75/33/38
f 73/31/29 75/33/38 76/34/33
f 77/35/39 78/34/33 79/33/40
f 77/35/39 79/33/40 80/36/41
f 81/37/42 82/28/35 83/30/37
f 81/37/42 83/30/37 84/38/43
f 85/39/44 86/35/37 87/36/41
f 85/39/44 87/36/41 88/40/38
f 89/36/45 90/33/45 91/41/45
f 92/42/45 93/43/46 94/36/47
f 103/40/48 104/36/49 95/43/50
f 95/43/50 96/44/51 97/45/48
f 97/45/48 98/46/52 99/47/53
f 99/47/53 100/48/54 101/49/55
f 101/49/55 102/50/56 103/40/48
f 103/40/48 95/43/50 97/45/48
f 97/45/48 99/47/53 101/49/55
f 101/49/55 103/40/48 97/45/48
f 105/51/57 106/42/57 107/36/57
f 108/41/58 109/51/59 110/36/47
f 111/41/38 112/52/38 113/53/60
f 111/41/38 113/53/60 114/54/61
f 115/51/38 116/41/41 117/54/61
f 115/51/38 117/54/61 118/55/62
f 119/33/40 120/52/41 121/41/41
f 122/52/41 123/56/63 124/57/64
f 122/52/41 124/57/64 125/53/60
f 126/33/65 127/56/65 128/52/65
f 129/56/66 130/58/67 131/59/68
f 129/56/66 131/59/68 132/57/64
f 133/56/57 134/60/57 135/58/57
f 136/33/45 137/60/45 138/56/45
f 139/43/50 140/61/50 141/60/50
f 142/62/69 143/43/46 144/60/70
f 142/62/69 144/60/70 145/63/69
f 146/64/71 147/63/69 148/60/46
f 146/64/71 148/60/46 149/65/72
f 150/65/46 151/60/46 152/33/45
f 150/65/46 152/33/45 153/32/45
f 154/58/52 155/60/52 156/61/52
f 157/61/50 158/66/72 159/67/73
f 157/61/50 159/67/73 160/68/74
f 161/58/46 162/61/50 163/68/74
f 161/58/46 163/68/74 164/59/68
f 165/61/50 166/43/50 167/66/50
f 168/66/75 169/42/53 170/69/76
f 168/66/75 170/69/76 171/67/73
f 172/66/65 173/43/65 174/42/65
f 175/67/73 176/69/77 177/70/53
f 175/67/73 177/70/53 178/68/74
f 179/69/77 180/55/78 181/54/61
f 179/69/77 181/54/61 182/70/53
f 183/42/53 184/51/65 185/55/78
f 183/42/53 185/55/78 186/69/77
f 187/68/74 188/70/53 189/57/64
f 187/68/74 189/57/64 190/59/68
f 191/70/53 192/54/61 193/53/60
f 191/70/53 193/53/60 194/57/64
f 195/71/79 196/64/80 197/65/72
f 195/71/79 197/65/72 198/72/70
f 210/73/53 211/74/66 199/75/81
f 199/75/81 200/76/82 201/77/53
f 201/77/53 202/78/81 203/79/45
f 203/79/45 204/72/45 205/65/45
f 205/65/45 206/32/47 207/80/45
f 207/80/45 208/81/83 209/82/45
f 209/82/45 210/73/53 199/75/81
f 199/75/81 201/77/53 203/79/45
f 203/79/45 205/65/45 207/80/45
f 207/80/45 209/82/45 199/75/81
f 199/75/81 203/79/45 207/80/45
f 212/31/84 213/83/27 214/80/41
f 212/31/84 214/80/41 215/32/38
f 216/83/27 217/84/26 218/81/83
f 216/83/27 218/81/83 219/80/49
f 220/84/26 221/85/16 222/82/66
f 220/84/26 222/82/66 223/81/83
f 224/85/16 225/86/85 226/73/86
f 224/85/16 226/73/86 227/82/66
f 228/86/12 229/87/10 230/74/87
f 228/86/12 230/74/87 231/73/86
f 232/87/10 233/88/8 234/75/88
f 232/87/10 234/75/88 235/74/89
f 236/88/8 237/89/7 238/76/88
f 236/88/8 238/76/88 239/75/90
f 240/89/7 241/90/91 242/77/92
f 240/89/7 242/77/92 243/76/88
f 244/90/93 245/91/94 246/78/92
f 244/90/93 246/78/92 247/77/92
f 248/91/94 249/92/95 250/79/70
f 248/91/94 250/79/70 251/78/92
f 252/92/95 253/71/79 254/72/70
f 252/92/95 254/72/70 255/79/67
f 256/93/96 257/94/97 258/95/95
f 256/93/96 258/95/95 259/96/98
f 260/94/97 261/97/99 262/98/79
f 260/94/97 262/98/79 263/95/95
f 264/97/99 265/99/100 266/100/80
f 264/97/99 266/100/80 267/98/79
f 268/101/101 269/99/100 270/97/99
f 268/101/101 270/97/99 271/102/102
f 272/102/102 273/97/99 274/94/103
f 272/102/102 274/94/103 275/103/104
f 276/103/105 277/94/106 278/93/96
f 276/103/105 278/93/96 279/104/107
f 280/104/108 281/93/96 282/105/109
f 280/104/108 282/105/109 283/106/110
f 284/105/109 285/93/96 286/96/94
f 284/105/109 286/96/94 287/107/93
f 288/2/2 289/105/109 290/107/111
f 288/2/2 290/107/111 291/7/7
f 292/106/112 293/105/109 294/2/2
f 292/106/112 294/2/2 295/1/1
f 296/108/101 297/109/113 298/99/101
f 296/108/101 298/99/101 299/101/101
f 300/110/114 301/111/101 302/109/115
f 300/110/114 302/109/115 303/108/101
f 304/99/100 305/109/116 306/112/69
f 304/99/100 306/112/69 307/100/80
f 308/111/117 309/113/118 310/112/69
f 308/111/117 310/112/69 311/109/116
f 312/111/117 313/114/119 314/115/120
f 312/111/117 314/115/120 315/113/118
f 316/116/121 317/114/119 318/111/117
f 316/116/121 318/111/117 319/110/122
f 320/117/123 321/118/124 322/114/125
f 320/117/123 322/114/125 323/116/121
f 324/114/126 325/118/124 326/119/127
f 324/114/126 326/119/127 327/115/128
f 328/120/129 329/121/130 330/118/124
f 328/120/129 330/118/124 331/117/123
f 332/122/131 333/123/132 334/121/130
f 332/122/131 334/121/130 335/120/133
f 336/121/130 337/123/132 338/124/134
f 336/121/130 338/124/134 339/125/135
f 340/118/124 341/121/130 342/125/135
f 340/118/124 342/125/135 343/119/127
f 344/126/135 345/127/136 346/47/137
f 344/126/135 346/47/137 347/46/138
f 348/128/127 349/126/135 350/46/138
f 348/128/127 350/46/138 351/45/139
f 352/129/120 353/128/127 354/45/75
f 352/129/120 354/45/75 355/44/140
f 356/62/118 357/129/120 358/44/46
f 356/62/118 358/44/46 359/43/46
f 360/127/141 361/130/142 362/48/56
f 360/127/141 362/48/56 363/47/137
f 364/130/142 365/131/143 366/49/54
f 364/130/142 366/49/54 367/48/56
f 368/131/143 369/132/144 370/50/145
f 368/131/143 370/50/145 371/49/54
f 372/132/144 373/39/44 374/40/38
f 372/132/144 374/40/38 375/50/145
f 376/133/146 377/134/147 378/135/144
f 376/133/146 378/135/144 379/136/143
f 380/137/147 381/37/148 382/38/43
f 380/137/147 382/38/43 383/138/144
f 384/139/149 385/37/42 386/137/147
f 384/139/149 386/137/147 387/140/150
f 388/141/151 389/134/147 390/133/146
f 388/141/151 390/133/146 391/142/152
f 392/142/153 393/133/146 394/143/154
f 392/142/153 394/143/154 395/144/155
f 396/144/131 397/143/131 398/123/131
f 396/144/131 398/123/131 399/122/131
f 400/143/154 401/133/146 402/136/143
f 400/143/154 402/136/143 403/145/142
f 404/123/132 405/143/154 406/145/142
f 404/123/132 406/145/142 407/124/134
f 408/29/156 409/28/157 410/37/42
f 408/29/156 410/37/42 411/139/149
