# Blender 5.2.0 LTS
# www.blender.org
mtllib button_05.mtl
o button_05
v 0.501941 0.210426 -0.052304
v 0.501941 0.210426 -0.087153
v 0.502382 0.215569 -0.086959
v 0.502382 0.215569 -0.052304
v 0.501941 0.210426 -0.052304
v 0.502382 0.215569 -0.052304
v 0.502382 0.215569 -0.017649
v 0.501941 0.210426 -0.017455
v 0.492141 0.191523 -0.052304
v 0.492141 0.191523 -0.087153
v 0.501941 0.210426 -0.087153
v 0.501941 0.210426 -0.052304
v 0.492141 0.191523 -0.017455
v 0.492141 0.191523 -0.052304
v 0.501941 0.210426 -0.052304
v 0.501941 0.210426 -0.017455
v 0.492141 0.191523 -0.087153
v 0.491237 0.191991 -0.092272
v 0.501037 0.210894 -0.092272
v 0.501941 0.210426 -0.087153
v 0.501941 0.210426 -0.087153
v 0.501037 0.210894 -0.092272
v 0.501580 0.215985 -0.091501
v 0.502382 0.215569 -0.086959
v 0.502382 0.215569 -0.052304
v 0.502382 0.215569 -0.086959
v 0.499057 0.219518 -0.086489
v 0.499057 0.219518 -0.052304
v 0.502382 0.215569 -0.086959
v 0.501580 0.215985 -0.091501
v 0.498501 0.219806 -0.089641
v 0.499057 0.219518 -0.086489
v 0.496256 0.220970 -0.059976
v 0.497153 0.220505 -0.052304
v 0.499057 0.219518 -0.052304
v 0.499057 0.219518 -0.086489
v 0.493627 0.222333 -0.067125
v 0.496256 0.220970 -0.059976
v 0.499057 0.219518 -0.086489
v 0.498501 0.219806 -0.089641
v 0.492703 0.221493 -0.052304
v 0.497153 0.220505 -0.052304
v 0.496256 0.220970 -0.059976
v 0.493627 0.222333 -0.067125
v 0.489702 0.223049 -0.064923
v 0.496256 0.220970 -0.044632
v 0.497153 0.220505 -0.052304
v 0.492703 0.221493 -0.052304
v 0.489702 0.223049 -0.039686
v 0.493627 0.222333 -0.037483
v 0.497153 0.220505 -0.052304
v 0.496256 0.220970 -0.044632
v 0.499057 0.219518 -0.018119
v 0.499057 0.219518 -0.052304
v 0.496256 0.220970 -0.044632
v 0.493627 0.222333 -0.037483
v 0.498501 0.219806 -0.014968
v 0.499057 0.219518 -0.018119
v 0.502382 0.215569 -0.052304
v 0.499057 0.219518 -0.052304
v 0.499057 0.219518 -0.018119
v 0.502382 0.215569 -0.017649
v 0.501580 0.215985 -0.013107
v 0.502382 0.215569 -0.017649
v 0.499057 0.219518 -0.018119
v 0.498501 0.219806 -0.014968
v 0.501037 0.210894 -0.012336
v 0.501941 0.210426 -0.017455
v 0.502382 0.215569 -0.017649
v 0.501580 0.215985 -0.013107
v 0.499393 0.217118 -0.009421
v 0.501580 0.215985 -0.013107
v 0.498501 0.219806 -0.014968
v 0.497250 0.220455 -0.012859
v 0.498463 0.212229 -0.007997
v 0.501037 0.210894 -0.012336
v 0.501580 0.215985 -0.013107
v 0.499393 0.217118 -0.009421
v 0.488663 0.193326 -0.007997
v 0.491237 0.191991 -0.012336
v 0.501037 0.210894 -0.012336
v 0.498463 0.212229 -0.007997
v 0.491237 0.191991 -0.012336
v 0.492141 0.191523 -0.017455
v 0.501941 0.210426 -0.017455
v 0.501037 0.210894 -0.012336
v 0.484811 0.195323 -0.005097
v 0.488663 0.193326 -0.007997
v 0.498463 0.212229 -0.007997
v 0.494610 0.214226 -0.005097
v 0.494610 0.214226 -0.005097
v 0.498463 0.212229 -0.007997
v 0.499393 0.217118 -0.009421
v 0.496121 0.218815 -0.006958
v 0.480266 0.197679 -0.004079
v 0.484811 0.195323 -0.005097
v 0.494610 0.214226 -0.005097
v 0.490066 0.216582 -0.004079
v 0.490066 0.216582 -0.004079
v 0.494610 0.214226 -0.005097
v 0.496121 0.218815 -0.006958
v 0.492088 0.220905 -0.006054
v 0.457933 0.209257 -0.004079
v 0.480266 0.197679 -0.004079
v 0.490066 0.216582 -0.004079
v 0.467733 0.228160 -0.004079
v 0.467733 0.228160 -0.004079
v 0.490066 0.216582 -0.004079
v 0.492088 0.220905 -0.006054
v 0.469928 0.232394 -0.006054
v 0.445400 0.239738 -0.004079
v 0.467733 0.228160 -0.004079
v 0.469928 0.232394 -0.006054
v 0.447768 0.243883 -0.006054
v 0.435600 0.220835 -0.004079
v 0.457933 0.209257 -0.004079
v 0.467733 0.228160 -0.004079
v 0.445400 0.239738 -0.004079
v 0.447768 0.243883 -0.006054
v 0.469928 0.232394 -0.006054
v 0.470837 0.234148 -0.010824
v 0.449094 0.245420 -0.010824
v 0.469928 0.232394 -0.006054
v 0.492088 0.220905 -0.006054
v 0.492581 0.222875 -0.010824
v 0.470837 0.234148 -0.010824
v 0.470837 0.234148 -0.022662
v 0.464026 0.237679 -0.023672
v 0.449094 0.245420 -0.010824
v 0.470837 0.234148 -0.010824
v 0.477648 0.230617 -0.023672
v 0.470837 0.234148 -0.022662
v 0.470837 0.234148 -0.010824
v 0.492581 0.222875 -0.010824
v 0.470298 0.233108 -0.027067
v 0.470837 0.234148 -0.022662
v 0.477648 0.230617 -0.023672
v 0.483995 0.227326 -0.026633
v 0.481501 0.227300 -0.030448
v 0.459096 0.238916 -0.030448
v 0.457679 0.240969 -0.026633
v 0.464026 0.237679 -0.023672
v 0.470837 0.234148 -0.022662
v 0.470298 0.233108 -0.027067
v 0.483995 0.227326 -0.026633
v 0.477648 0.230617 -0.023672
v 0.492581 0.222875 -0.010824
v 0.495378 0.221425 -0.011450
v 0.489445 0.224501 -0.031344
v 0.493627 0.222333 -0.037483
v 0.489702 0.223049 -0.039686
v 0.481501 0.227300 -0.030448
v 0.483995 0.227326 -0.026633
v 0.489445 0.224501 -0.031344
v 0.483995 0.227326 -0.026633
v 0.495378 0.221425 -0.011450
v 0.497250 0.220455 -0.012859
v 0.496121 0.218815 -0.006958
v 0.499393 0.217118 -0.009421
v 0.497250 0.220455 -0.012859
v 0.495378 0.221425 -0.011450
v 0.492088 0.220905 -0.006054
v 0.496121 0.218815 -0.006958
v 0.495378 0.221425 -0.011450
v 0.492581 0.222875 -0.010824
v 0.493627 0.222333 -0.037483
v 0.489445 0.224501 -0.031344
v 0.497250 0.220455 -0.012859
v 0.498501 0.219806 -0.014968
v 0.484256 0.221993 -0.042196
v 0.477687 0.225399 -0.034797
v 0.481501 0.227300 -0.030448
v 0.489702 0.223049 -0.039686
v 0.468713 0.230051 -0.032089
v 0.470298 0.233108 -0.027067
v 0.481501 0.227300 -0.030448
v 0.477687 0.225399 -0.034797
v 0.484256 0.221993 -0.042196
v 0.466880 0.226514 -0.052304
v 0.477687 0.225399 -0.034797
v 0.466880 0.226514 -0.052304
v 0.468713 0.230051 -0.032089
v 0.477687 0.225399 -0.034797
v 0.466880 0.226514 -0.052304
v 0.459740 0.234703 -0.034797
v 0.468713 0.230051 -0.032089
v 0.486660 0.220747 -0.052304
v 0.466880 0.226514 -0.052304
v 0.484256 0.221993 -0.042196
v 0.484256 0.221993 -0.062412
v 0.466880 0.226514 -0.052304
v 0.486660 0.220747 -0.052304
v 0.477687 0.225399 -0.069811
v 0.466880 0.226514 -0.052304
v 0.484256 0.221993 -0.062412
v 0.468713 0.230051 -0.072519
v 0.466880 0.226514 -0.052304
v 0.477687 0.225399 -0.069811
v 0.466880 0.226514 -0.052304
v 0.468713 0.230051 -0.072519
v 0.459740 0.234703 -0.069811
v 0.453171 0.238109 -0.062412
v 0.466880 0.226514 -0.052304
v 0.459740 0.234703 -0.069811
v 0.450766 0.239355 -0.052304
v 0.466880 0.226514 -0.052304
v 0.453171 0.238109 -0.062412
v 0.453171 0.238109 -0.042196
v 0.466880 0.226514 -0.052304
v 0.450766 0.239355 -0.052304
v 0.459740 0.234703 -0.034797
v 0.466880 0.226514 -0.052304
v 0.453171 0.238109 -0.042196
v 0.459740 0.234703 -0.034797
v 0.453171 0.238109 -0.042196
v 0.450895 0.243167 -0.039686
v 0.459096 0.238916 -0.030448
v 0.459740 0.234703 -0.034797
v 0.459096 0.238916 -0.030448
v 0.470298 0.233108 -0.027067
v 0.468713 0.230051 -0.032089
v 0.452229 0.243795 -0.031344
v 0.457679 0.240969 -0.026633
v 0.459096 0.238916 -0.030448
v 0.450895 0.243167 -0.039686
v 0.448047 0.245963 -0.037483
v 0.457679 0.240969 -0.026633
v 0.452229 0.243795 -0.031344
v 0.444424 0.247841 -0.012859
v 0.446296 0.246871 -0.011450
v 0.464026 0.237679 -0.023672
v 0.457679 0.240969 -0.026633
v 0.446296 0.246871 -0.011450
v 0.449094 0.245420 -0.010824
v 0.443735 0.245973 -0.006958
v 0.447768 0.243883 -0.006054
v 0.449094 0.245420 -0.010824
v 0.446296 0.246871 -0.011450
v 0.440463 0.247670 -0.009421
v 0.443735 0.245973 -0.006958
v 0.446296 0.246871 -0.011450
v 0.444424 0.247841 -0.012859
v 0.440856 0.242094 -0.005097
v 0.445400 0.239738 -0.004079
v 0.447768 0.243883 -0.006054
v 0.443735 0.245973 -0.006958
v 0.437003 0.244091 -0.007997
v 0.440856 0.242094 -0.005097
v 0.443735 0.245973 -0.006958
v 0.440463 0.247670 -0.009421
v 0.431056 0.223191 -0.005097
v 0.435600 0.220835 -0.004079
v 0.445400 0.239738 -0.004079
v 0.440856 0.242094 -0.005097
v 0.427203 0.225188 -0.007997
v 0.431056 0.223191 -0.005097
v 0.440856 0.242094 -0.005097
v 0.437003 0.244091 -0.007997
v 0.424629 0.226523 -0.012336
v 0.427203 0.225188 -0.007997
v 0.437003 0.244091 -0.007997
v 0.434429 0.245426 -0.012336
v 0.434429 0.245426 -0.012336
v 0.437003 0.244091 -0.007997
v 0.440463 0.247670 -0.009421
v 0.438276 0.248803 -0.013107
v 0.423725 0.226991 -0.017455
v 0.424629 0.226523 -0.012336
v 0.434429 0.245426 -0.012336
v 0.433525 0.245894 -0.017455
v 0.433525 0.245894 -0.017455
v 0.434429 0.245426 -0.012336
v 0.438276 0.248803 -0.013107
v 0.437474 0.249219 -0.017649
v 0.423725 0.226991 -0.052304
v 0.423725 0.226991 -0.017455
v 0.433525 0.245894 -0.017455
v 0.433525 0.245894 -0.052304
v 0.433525 0.245894 -0.052304
v 0.433525 0.245894 -0.017455
v 0.437474 0.249219 -0.017649
v 0.437474 0.249219 -0.052304
v 0.423725 0.226991 -0.087153
v 0.423725 0.226991 -0.052304
v 0.433525 0.245894 -0.052304
v 0.433525 0.245894 -0.087153
v 0.433525 0.245894 -0.087153
v 0.433525 0.245894 -0.052304
v 0.437474 0.249219 -0.052304
v 0.437474 0.249219 -0.086959
v 0.442617 0.248778 -0.052304
v 0.442617 0.248778 -0.086489
v 0.437474 0.249219 -0.086959
v 0.437474 0.249219 -0.052304
v 0.437474 0.249219 -0.052304
v 0.437474 0.249219 -0.017649
v 0.442617 0.248778 -0.018119
v 0.442617 0.248778 -0.052304
v 0.444522 0.247791 -0.052304
v 0.445418 0.247326 -0.059976
v 0.442617 0.248778 -0.086489
v 0.442617 0.248778 -0.052304
v 0.445418 0.247326 -0.044632
v 0.444522 0.247791 -0.052304
v 0.442617 0.248778 -0.052304
v 0.442617 0.248778 -0.018119
v 0.447893 0.244723 -0.052304
v 0.444522 0.247791 -0.052304
v 0.445418 0.247326 -0.044632
v 0.448047 0.245963 -0.037483
v 0.450895 0.243167 -0.039686
v 0.445418 0.247326 -0.059976
v 0.444522 0.247791 -0.052304
v 0.447893 0.244723 -0.052304
v 0.450895 0.243167 -0.064923
v 0.448047 0.245963 -0.067125
v 0.448047 0.245963 -0.037483
v 0.445418 0.247326 -0.044632
v 0.442617 0.248778 -0.018119
v 0.443174 0.248489 -0.014968
v 0.452229 0.243795 -0.031344
v 0.448047 0.245963 -0.037483
v 0.443174 0.248489 -0.014968
v 0.444424 0.247841 -0.012859
v 0.438276 0.248803 -0.013107
v 0.440463 0.247670 -0.009421
v 0.444424 0.247841 -0.012859
v 0.443174 0.248489 -0.014968
v 0.437474 0.249219 -0.017649
v 0.438276 0.248803 -0.013107
v 0.443174 0.248489 -0.014968
v 0.442617 0.248778 -0.018119
v 0.445418 0.247326 -0.059976
v 0.448047 0.245963 -0.067125
v 0.443174 0.248489 -0.089641
v 0.442617 0.248778 -0.086489
v 0.452229 0.243795 -0.073264
v 0.448047 0.245963 -0.067125
v 0.450895 0.243167 -0.064923
v 0.459096 0.238916 -0.074160
v 0.457679 0.240969 -0.077975
v 0.448047 0.245963 -0.067125
v 0.452229 0.243795 -0.073264
v 0.444424 0.247841 -0.091749
v 0.443174 0.248489 -0.089641
v 0.438276 0.248803 -0.091501
v 0.437474 0.249219 -0.086959
v 0.442617 0.248778 -0.086489
v 0.443174 0.248489 -0.089641
v 0.440463 0.247670 -0.095187
v 0.438276 0.248803 -0.091501
v 0.443174 0.248489 -0.089641
v 0.444424 0.247841 -0.091749
v 0.434429 0.245426 -0.092272
v 0.433525 0.245894 -0.087153
v 0.437474 0.249219 -0.086959
v 0.438276 0.248803 -0.091501
v 0.437003 0.244091 -0.096611
v 0.434429 0.245426 -0.092272
v 0.438276 0.248803 -0.091501
v 0.440463 0.247670 -0.095187
v 0.427203 0.225188 -0.096611
v 0.424629 0.226523 -0.092272
v 0.434429 0.245426 -0.092272
v 0.437003 0.244091 -0.096611
v 0.424629 0.226523 -0.092272
v 0.423725 0.226991 -0.087153
v 0.433525 0.245894 -0.087153
v 0.434429 0.245426 -0.092272
v 0.431056 0.223191 -0.099511
v 0.427203 0.225188 -0.096611
v 0.437003 0.244091 -0.096611
v 0.440856 0.242094 -0.099511
v 0.440856 0.242094 -0.099511
v 0.437003 0.244091 -0.096611
v 0.440463 0.247670 -0.095187
v 0.443735 0.245973 -0.097650
v 0.435600 0.220835 -0.100529
v 0.431056 0.223191 -0.099511
v 0.440856 0.242094 -0.099511
v 0.445400 0.239738 -0.100529
v 0.445400 0.239738 -0.100529
v 0.440856 0.242094 -0.099511
v 0.443735 0.245973 -0.097650
v 0.447768 0.243883 -0.098554
v 0.457933 0.209257 -0.100529
v 0.435600 0.220835 -0.100529
v 0.445400 0.239738 -0.100529
v 0.467733 0.228160 -0.100529
v 0.467733 0.228160 -0.100529
v 0.445400 0.239738 -0.100529
v 0.447768 0.243883 -0.098554
v 0.469928 0.232394 -0.098554
v 0.490066 0.216582 -0.100529
v 0.467733 0.228160 -0.100529
v 0.469928 0.232394 -0.098554
v 0.492088 0.220905 -0.098554
v 0.480266 0.197679 -0.100529
v 0.457933 0.209257 -0.100529
v 0.467733 0.228160 -0.100529
v 0.490066 0.216582 -0.100529
v 0.492088 0.220905 -0.098554
v 0.469928 0.232394 -0.098554
v 0.470837 0.234148 -0.093785
v 0.492581 0.222875 -0.093785
v 0.469928 0.232394 -0.098554
v 0.447768 0.243883 -0.098554
v 0.449094 0.245420 -0.093785
v 0.470837 0.234148 -0.093785
v 0.470837 0.234148 -0.081946
v 0.477648 0.230617 -0.080936
v 0.492581 0.222875 -0.093785
v 0.470837 0.234148 -0.093785
v 0.464026 0.237679 -0.080936
v 0.470837 0.234148 -0.081946
v 0.470837 0.234148 -0.093785
v 0.449094 0.245420 -0.093785
v 0.470298 0.233108 -0.077541
v 0.470837 0.234148 -0.081946
v 0.464026 0.237679 -0.080936
v 0.457679 0.240969 -0.077975
v 0.459096 0.238916 -0.074160
v 0.477648 0.230617 -0.080936
v 0.470837 0.234148 -0.081946
v 0.470298 0.233108 -0.077541
v 0.481501 0.227300 -0.074160
v 0.483995 0.227326 -0.077975
v 0.457679 0.240969 -0.077975
v 0.464026 0.237679 -0.080936
v 0.449094 0.245420 -0.093785
v 0.446296 0.246871 -0.093158
v 0.452229 0.243795 -0.073264
v 0.457679 0.240969 -0.077975
v 0.446296 0.246871 -0.093158
v 0.444424 0.247841 -0.091749
v 0.443735 0.245973 -0.097650
v 0.440463 0.247670 -0.095187
v 0.444424 0.247841 -0.091749
v 0.446296 0.246871 -0.093158
v 0.447768 0.243883 -0.098554
v 0.443735 0.245973 -0.097650
v 0.446296 0.246871 -0.093158
v 0.449094 0.245420 -0.093785
v 0.453171 0.238109 -0.062412
v 0.459740 0.234703 -0.069811
v 0.459096 0.238916 -0.074160
v 0.450895 0.243167 -0.064923
v 0.468713 0.230051 -0.072519
v 0.470298 0.233108 -0.077541
v 0.459096 0.238916 -0.074160
v 0.459740 0.234703 -0.069811
v 0.477648 0.230617 -0.080936
v 0.483995 0.227326 -0.077975
v 0.495378 0.221425 -0.093158
v 0.492581 0.222875 -0.093785
v 0.489445 0.224501 -0.073264
v 0.483995 0.227326 -0.077975
v 0.481501 0.227300 -0.074160
v 0.489702 0.223049 -0.064923
v 0.493627 0.222333 -0.067125
v 0.483995 0.227326 -0.077975
v 0.489445 0.224501 -0.073264
v 0.497250 0.220455 -0.091749
v 0.495378 0.221425 -0.093158
v 0.496121 0.218815 -0.097650
v 0.492088 0.220905 -0.098554
v 0.492581 0.222875 -0.093785
v 0.495378 0.221425 -0.093158
v 0.499393 0.217118 -0.095187
v 0.496121 0.218815 -0.097650
v 0.495378 0.221425 -0.093158
v 0.497250 0.220455 -0.091749
v 0.494610 0.214226 -0.099511
v 0.490066 0.216582 -0.100529
v 0.492088 0.220905 -0.098554
v 0.496121 0.218815 -0.097650
v 0.498463 0.212229 -0.096611
v 0.494610 0.214226 -0.099511
v 0.496121 0.218815 -0.097650
v 0.499393 0.217118 -0.095187
v 0.488663 0.193326 -0.096611
v 0.484811 0.195323 -0.099511
v 0.494610 0.214226 -0.099511
v 0.498463 0.212229 -0.096611
v 0.484811 0.195323 -0.099511
v 0.480266 0.197679 -0.100529
v 0.490066 0.216582 -0.100529
v 0.494610 0.214226 -0.099511
v 0.491237 0.191991 -0.092272
v 0.488663 0.193326 -0.096611
v 0.498463 0.212229 -0.096611
v 0.501037 0.210894 -0.092272
v 0.501037 0.210894 -0.092272
v 0.498463 0.212229 -0.096611
v 0.499393 0.217118 -0.095187
v 0.501580 0.215985 -0.091501
v 0.501580 0.215985 -0.091501
v 0.499393 0.217118 -0.095187
v 0.497250 0.220455 -0.091749
v 0.498501 0.219806 -0.089641
v 0.489445 0.224501 -0.073264
v 0.493627 0.222333 -0.067125
v 0.498501 0.219806 -0.089641
v 0.497250 0.220455 -0.091749
v 0.477687 0.225399 -0.069811
v 0.484256 0.221993 -0.062412
v 0.489702 0.223049 -0.064923
v 0.481501 0.227300 -0.074160
v 0.468713 0.230051 -0.072519
v 0.477687 0.225399 -0.069811
v 0.481501 0.227300 -0.074160
v 0.470298 0.233108 -0.077541
v 0.486660 0.220747 -0.052304
v 0.492703 0.221493 -0.052304
v 0.489702 0.223049 -0.064923
v 0.484256 0.221993 -0.062412
v 0.450766 0.239355 -0.052304
v 0.453171 0.238109 -0.062412
v 0.450895 0.243167 -0.064923
v 0.447893 0.244723 -0.052304
v 0.450766 0.239355 -0.052304
v 0.447893 0.244723 -0.052304
v 0.450895 0.243167 -0.039686
v 0.453171 0.238109 -0.042196
v 0.486660 0.220747 -0.052304
v 0.484256 0.221993 -0.042196
v 0.489702 0.223049 -0.039686
v 0.492703 0.221493 -0.052304
vn 0.8879 -0.4600 -0.0001
vn 0.9549 0.2966 -0.0164
vn 0.9538 0.3005 -0.0000
vn 0.9549 0.2966 0.0164
vn 0.8879 -0.4600 0.0001
vn 0.8878 -0.4603 -0.0000
vn 0.8879 -0.4600 0.0002
vn 0.8878 -0.4602 -0.0001
vn 0.8202 -0.4252 -0.3827
vn 0.8516 -0.3592 -0.3817
vn 0.8879 -0.4601 -0.0001
vn 0.9174 0.2826 -0.2800
vn 0.4605 0.8877 0.0001
vn 0.4605 0.8877 -0.0000
vn 0.9174 0.2827 -0.2800
vn 0.4604 0.8877 -0.0000
vn 0.4604 0.8877 0.0001
vn 0.4602 0.8878 -0.0000
vn 0.4599 0.8880 -0.0000
vn 0.4606 0.8876 0.0002
vn 0.4603 0.8878 -0.0000
vn 0.4601 0.8879 -0.0000
vn 0.4605 0.8876 -0.0000
vn 0.4602 0.8878 0.0001
vn 0.1111 0.9731 0.2016
vn 0.0631 0.9980 -0.0000
vn 0.4600 0.8879 -0.0000
vn 0.1111 0.9732 -0.2016
vn 0.4602 0.8878 -0.0001
vn 0.4605 0.8877 -0.0001
vn 0.4603 0.8877 -0.0000
vn 0.9174 0.2828 0.2800
vn 0.8516 -0.3592 0.3817
vn 0.8879 -0.4601 0.0001
vn 0.9174 0.2827 0.2800
vn 0.7749 0.3480 0.5277
vn 0.4603 0.8878 0.0002
vn 0.6594 -0.2603 0.7053
vn 0.7749 0.3479 0.5277
vn 0.6278 -0.3255 0.7071
vn 0.8202 -0.4252 0.3827
vn 0.8202 -0.4252 0.3826
vn 0.8878 -0.4603 0.0001
vn 0.3398 -0.1761 0.9239
vn 0.3725 -0.1108 0.9214
vn 0.5584 0.4688 0.6844
vn -0.0000 -0.0000 1.0000
vn 0.0002 0.0001 1.0000
vn 0.3422 0.6126 0.7125
vn 0.0001 0.0001 1.0000
vn 0.3421 0.6126 0.7125
vn 0.3245 0.6260 0.7091
vn -0.0000 0.0002 1.0000
vn 0.3034 0.6327 0.7125
vn 0.3246 0.6260 0.7091
vn 0.4602 0.8878 0.0003
vn 0.4602 0.8878 0.0002
vn 0.4601 0.8879 -0.0003
vn 0.2421 0.9052 -0.3493
vn 0.4212 0.8124 -0.4032
vn 0.4603 0.8878 -0.0002
vn 0.4603 0.8878 -0.0001
vn 0.4212 0.8124 -0.4033
vn 0.6002 0.7196 -0.3493
vn 0.4602 0.8878 -0.0002
vn 0.1112 0.9731 -0.2016
vn 0.4603 0.8878 0.0003
vn 0.4601 0.8879 0.0001
vn 0.1632 0.9711 -0.1744
vn 0.2765 0.9123 -0.3021
vn 0.2420 0.9052 -0.3493
vn 0.1111 0.9731 -0.2017
vn 0.4314 0.8320 -0.3488
vn 0.5862 0.7518 -0.3021
vn 0.4314 0.8320 -0.3487
vn 0.1217 0.9926 0.0001
vn 0.1632 0.9711 0.1744
vn 0.2765 0.9123 0.3021
vn 0.4313 0.8321 0.3488
vn 0.4313 0.8320 0.3488
vn 0.5862 0.7518 0.3021
vn 0.6995 0.6930 0.1744
vn 0.5862 0.7518 0.3020
vn 0.7411 0.6714 -0.0000
vn 0.6996 0.6929 -0.1744
vn 0.5862 0.7518 -0.3020
vn 0.5862 0.7517 -0.3021
vn 0.7312 0.6516 -0.2017
vn 0.6002 0.7195 -0.3493
vn 0.4314 0.8320 -0.3489
vn 0.4604 0.8877 -0.0001
vn 0.4603 0.8877 -0.0001
vn 0.4600 0.8879 0.0001
vn 0.4603 0.8877 0.0001
vn 0.0613 0.7265 0.6844
vn -0.1622 0.8338 0.5277
vn -0.3049 0.2403 0.9216
vn -0.5928 0.3889 0.7052
vn -0.3396 0.1761 0.9239
vn -0.6278 0.3254 0.7071
vn -0.3397 0.1761 0.9239
vn -0.8202 0.4252 0.3827
vn -0.7844 0.4889 0.3817
vn -0.2978 0.9126 0.2800
vn -0.8878 0.4602 -0.0000
vn -0.8202 0.4252 0.3826
vn -0.8877 0.4605 0.0001
vn -0.3079 0.9513 0.0164
vn -0.8878 0.4603 -0.0000
vn -0.8876 0.4606 -0.0000
vn -0.8877 0.4604 -0.0000
vn -0.3041 0.9526 -0.0000
vn -0.8877 0.4604 -0.0001
vn -0.8877 0.4605 -0.0000
vn -0.3079 0.9513 -0.0164
vn 0.7792 0.6268 -0.0000
vn 0.7313 0.6516 0.2016
vn 0.4605 0.8877 -0.0002
vn -0.2978 0.9127 0.2800
vn 0.4600 0.8879 -0.0002
vn 0.6002 0.7196 0.3493
vn 0.4603 0.8878 0.0001
vn 0.4604 0.8877 0.0002
vn -0.2977 0.9127 -0.2800
vn -0.1622 0.8338 -0.5277
vn -0.7844 0.4889 -0.3817
vn -0.2978 0.9127 -0.2800
vn -0.5927 0.3889 -0.7053
vn -0.2978 0.9126 -0.2800
vn -0.6278 0.3254 -0.7071
vn -0.8202 0.4252 -0.3827
vn -0.7844 0.4889 -0.3818
vn -0.5928 0.3889 -0.7052
vn -0.8202 0.4252 -0.3826
vn -0.8878 0.4603 -0.0001
vn -0.3397 0.1761 -0.9239
vn -0.5928 0.3889 -0.7053
vn -0.3052 0.2406 -0.9214
vn 0.0613 0.7265 -0.6844
vn -0.0001 -0.0000 -1.0000
vn -0.0000 0.0002 -1.0000
vn 0.3034 0.6327 -0.7125
vn -0.0000 -0.0000 -1.0000
vn 0.0001 0.0001 -1.0000
vn 0.3245 0.6260 -0.7091
vn 0.0001 0.0002 -1.0000
vn 0.3422 0.6126 -0.7125
vn 0.3246 0.6260 -0.7091
vn 0.4602 0.8878 -0.0003
vn 0.4601 0.8879 0.0003
vn 0.4603 0.8878 -0.0003
vn 0.4212 0.8124 0.4033
vn 0.2421 0.9052 0.3493
vn 0.4212 0.8124 0.4032
vn 0.5862 0.7517 0.3021
vn 0.7313 0.6516 0.2017
vn 0.4212 0.8123 0.4033
vn 0.6002 0.7195 0.3494
vn 0.4601 0.8878 -0.0001
vn 0.4601 0.8879 -0.0001
vn 0.5584 0.4688 -0.6844
vn 0.7749 0.3480 -0.5277
vn 0.3725 -0.1108 -0.9214
vn 0.6594 -0.2603 -0.7053
vn 0.6278 -0.3254 -0.7071
vn 0.3398 -0.1761 -0.9238
vn 0.3398 -0.1761 -0.9239
vn 0.6278 -0.3255 -0.7071
vn 0.6595 -0.2604 -0.7052
vn 0.8516 -0.3592 -0.3818
vn 0.6595 -0.2603 -0.7052
vn 0.2764 0.9123 0.3021
vn 0.1111 0.9731 0.2017
vn 0.4313 0.8320 0.3489
vn 0.1216 0.9926 0.0001
vn 0.1110 0.9732 0.2016
vn 0.1631 0.9711 0.1744
vn 0.7313 0.6516 -0.2017
vn 0.1111 0.9731 -0.2016
vt 0.764787 0.280096
vt 0.764787 0.259938
vt 0.761791 0.259938
vt 0.761791 0.280096
vt 0.761791 0.300253
vt 0.764787 0.300253
vt 0.777126 0.280096
vt 0.777126 0.259938
vt 0.777126 0.300253
vt 0.777126 0.257028
vt 0.764787 0.257028
vt 0.761791 0.257028
vt 0.785773 0.093307
vt 0.785849 0.113746
vt 0.788895 0.113420
vt 0.788815 0.093307
vt 0.786420 0.116467
vt 0.789281 0.115254
vt 0.790688 0.097819
vt 0.790081 0.093307
vt 0.792439 0.102020
vt 0.794747 0.100678
vt 0.792754 0.093307
vt 0.794743 0.085940
vt 0.792439 0.084599
vt 0.790688 0.088797
vt 0.788901 0.073203
vt 0.789287 0.071370
vt 0.785857 0.072876
vt 0.786427 0.070155
vt 0.764787 0.303164
vt 0.761791 0.303164
vt 0.787926 0.067944
vt 0.790117 0.070152
vt 0.764787 0.306036
vt 0.761791 0.306036
vt 0.777126 0.306036
vt 0.777126 0.303164
vt 0.777126 0.123853
vt 0.777126 0.120981
vt 0.764787 0.120981
vt 0.764787 0.123853
vt 0.761791 0.120981
vt 0.761791 0.123853
vt 0.777126 0.126764
vt 0.764787 0.126764
vt 0.761791 0.126764
vt 0.777126 0.141304
vt 0.764787 0.141304
vt 0.761791 0.141304
vt 0.764787 0.155844
vt 0.761791 0.155844
vt 0.777126 0.155844
vt 0.822205 0.066117
vt 0.807575 0.065995
vt 0.807554 0.069026
vt 0.821870 0.069136
vt 0.792879 0.065906
vt 0.793180 0.068959
vt 0.807513 0.075965
vt 0.811995 0.076578
vt 0.803018 0.076541
vt 0.798822 0.078260
vt 0.800145 0.080569
vt 0.807502 0.078624
vt 0.814832 0.080618
vt 0.816166 0.078327
vt 0.791342 0.069332
vt 0.795218 0.081009
vt 0.790149 0.066459
vt 0.797740 0.087699
vt 0.801857 0.083589
vt 0.807473 0.082092
vt 0.807467 0.093316
vt 0.813080 0.083603
vt 0.796234 0.093322
vt 0.797751 0.098935
vt 0.801861 0.103042
vt 0.807474 0.104539
vt 0.813080 0.103029
vt 0.817182 0.098924
vt 0.818689 0.093316
vt 0.817182 0.087708
vt 0.820187 0.085993
vt 0.822483 0.084668
vt 0.819737 0.081086
vt 0.824892 0.070339
vt 0.823684 0.069522
vt 0.824895 0.066696
vt 0.827080 0.068176
vt 0.764787 0.158755
vt 0.761791 0.158755
vt 0.764787 0.161628
vt 0.761791 0.161628
vt 0.777126 0.158755
vt 0.777126 0.161628
vt 0.777126 0.164500
vt 0.764787 0.164500
vt 0.761791 0.164500
vt 0.777126 0.167411
vt 0.764787 0.167411
vt 0.761791 0.167411
vt 0.777126 0.187568
vt 0.764787 0.187568
vt 0.761791 0.187568
vt 0.777126 0.207725
vt 0.764787 0.207725
vt 0.761791 0.207725
vt 0.826054 0.093316
vt 0.826061 0.113255
vt 0.829079 0.113562
vt 0.829070 0.093316
vt 0.829079 0.073071
vt 0.826061 0.073378
vt 0.824803 0.093316
vt 0.824209 0.097792
vt 0.824209 0.088840
vt 0.822152 0.093316
vt 0.820187 0.100640
vt 0.822483 0.101965
vt 0.825694 0.071557
vt 0.828533 0.070378
vt 0.825694 0.115076
vt 0.814832 0.106014
vt 0.816166 0.108305
vt 0.819736 0.105546
vt 0.824891 0.116294
vt 0.828533 0.116255
vt 0.827080 0.118458
vt 0.764787 0.210636
vt 0.761791 0.210636
vt 0.764787 0.213509
vt 0.761791 0.213509
vt 0.777126 0.213509
vt 0.777126 0.210636
vt 0.777126 0.216381
vt 0.764787 0.216381
vt 0.761791 0.216381
vt 0.777126 0.219292
vt 0.764787 0.219292
vt 0.761791 0.219292
vt 0.777126 0.233832
vt 0.764787 0.233832
vt 0.761791 0.233832
vt 0.764787 0.248372
vt 0.761791 0.248372
vt 0.777126 0.248372
vt 0.792871 0.120721
vt 0.807571 0.120637
vt 0.807551 0.117605
vt 0.793174 0.117667
vt 0.822204 0.120517
vt 0.821868 0.117498
vt 0.807512 0.110666
vt 0.803017 0.110087
vt 0.811995 0.110054
vt 0.807501 0.108007
vt 0.800146 0.106059
vt 0.798822 0.108366
vt 0.823683 0.117112
vt 0.824894 0.119939
vt 0.791335 0.117293
vt 0.795218 0.105614
vt 0.790110 0.116472
vt 0.790141 0.120166
vt 0.787918 0.118680
vt 0.764787 0.251283
vt 0.761791 0.251283
vt 0.764787 0.254155
vt 0.761791 0.254155
vt 0.777126 0.254155
vt 0.777126 0.251283
s 1
f 1/1/1 2/2/1 3/3/2
f 1/1/1 3/3/2 4/4/3
f 5/1/1 6/4/3 7/5/4
f 5/1/1 7/5/4 8/6/5
f 9/7/6 10/8/6 11/2/6
f 9/7/6 11/2/6 12/1/6
f 13/9/6 14/7/6 15/1/6
f 13/9/6 15/1/6 16/6/7
f 17/8/8 18/10/9 19/11/10
f 17/8/8 19/11/10 20/2/11
f 21/2/11 22/11/10 23/12/12
f 21/2/11 23/12/12 24/3/2
f 25/13/3 26/14/2 27/15/13
f 25/13/3 27/15/13 28/16/14
f 29/14/2 30/17/15 31/18/16
f 29/14/2 31/18/16 32/15/17
f 33/19/18 34/20/19 35/16/18
f 33/19/18 35/16/18 36/15/20
f 37/21/21 38/19/21 39/15/22
f 37/21/21 39/15/22 40/18/23
f 44/21/24 45/22/25 41/23/26
f 41/23/26 42/20/27 43/19/18
f 43/19/18 44/21/24 41/23/26
f 49/24/28 50/25/29 46/26/18
f 46/26/18 47/20/27 48/23/26
f 48/23/26 49/24/28 46/26/18
f 51/20/18 52/26/18 53/27/18
f 51/20/18 53/27/18 54/16/30
f 55/26/21 56/25/21 57/28/17
f 55/26/21 57/28/17 58/27/31
f 59/13/3 60/16/30 61/27/16
f 59/13/3 61/27/16 62/29/4
f 63/30/32 64/29/4 65/27/16
f 63/30/32 65/27/16 66/28/17
f 67/31/33 68/6/34 69/5/4
f 67/31/33 69/5/4 70/32/35
f 71/33/36 72/30/35 73/28/17
f 71/33/36 73/28/17 74/34/37
f 75/35/38 76/31/33 77/32/35
f 75/35/38 77/32/35 78/36/39
f 79/37/40 80/38/41 81/31/33
f 79/37/40 81/31/33 82/35/38
f 83/38/42 84/9/43 85/6/34
f 83/38/42 85/6/34 86/31/33
f 87/39/44 88/40/40 89/41/38
f 87/39/44 89/41/38 90/42/45
f 91/42/45 92/41/38 93/43/39
f 91/42/45 93/43/39 94/44/46
f 95/45/47 96/39/44 97/42/45
f 95/45/47 97/42/45 98/46/48
f 99/46/48 100/42/45 101/44/46
f 99/46/48 101/44/46 102/47/49
f 103/48/47 104/45/47 105/46/47
f 103/48/47 105/46/47 106/49/47
f 107/49/50 108/46/48 109/47/51
f 107/49/50 109/47/51 110/50/52
f 111/51/53 112/49/48 113/50/52
f 111/51/53 113/50/52 114/52/54
f 115/53/47 116/48/47 117/49/47
f 115/53/47 117/49/47 118/51/47
f 119/54/54 120/55/55 121/56/37
f 119/54/54 121/56/37 122/57/56
f 123/55/52 124/58/49 125/59/57
f 123/55/52 125/59/57 126/56/57
f 127/60/18 128/61/18 129/57/18
f 127/60/18 129/57/18 130/56/18
f 131/62/58 132/60/18 133/56/21
f 131/62/58 133/56/21 134/59/56
f 138/63/29 139/64/59 135/65/60
f 135/65/60 136/60/61 137/62/29
f 137/62/29 138/63/29 135/65/60
f 143/60/62 144/65/63 140/66/64
f 140/66/64 141/67/62 142/61/62
f 142/61/62 143/60/62 140/66/64
f 145/63/21 146/62/21 147/59/21
f 145/63/21 147/59/21 148/68/18
f 152/64/59 153/63/29 149/69/29
f 149/69/29 150/25/65 151/24/66
f 151/24/66 152/64/59 149/69/29
f 154/69/18 155/63/18 156/68/67
f 154/69/18 156/68/67 157/34/68
f 158/70/46 159/33/36 160/34/37
f 158/70/46 160/34/37 161/68/57
f 162/58/49 163/70/46 164/68/57
f 162/58/49 164/68/57 165/59/57
f 166/25/21 167/69/18 168/34/16
f 166/25/21 168/34/16 169/28/16
f 170/71/69 171/72/70 172/64/71
f 170/71/69 172/64/71 173/24/72
f 174/73/73 175/65/63 176/64/59
f 174/73/73 176/64/59 177/72/70
f 178/71/69 179/74/21 180/72/70
f 181/74/21 182/73/73 183/72/70
f 184/74/62 185/75/74 186/73/75
f 187/76/76 188/74/18 189/71/69
f 190/77/77 191/74/18 192/76/76
f 193/78/78 194/74/21 195/77/77
f 196/79/79 197/74/21 198/78/78
f 199/74/21 200/79/80 201/80/81
f 202/81/82 203/74/21 204/80/83
f 205/82/84 206/74/21 207/81/82
f 208/83/85 209/74/21 210/82/84
f 211/75/86 212/74/21 213/83/85
f 214/75/87 215/83/85 216/84/88
f 214/75/87 216/84/88 217/66/89
f 218/75/74 219/66/64 220/65/63
f 218/75/74 220/65/63 221/73/90
f 225/84/88 226/85/91 222/86/91
f 222/86/91 223/67/92 224/66/64
f 224/66/64 225/84/88 222/86/91
f 227/67/21 228/86/21 229/87/29
f 227/67/21 229/87/29 230/88/29
f 231/61/18 232/67/29 233/88/93
f 231/61/18 233/88/93 234/57/94
f 235/89/95 236/54/54 237/57/56
f 235/89/95 237/57/56 238/88/57
f 239/90/96 240/89/95 241/88/24
f 239/90/96 241/88/24 242/87/27
f 243/91/97 244/51/53 245/52/54
f 243/91/97 245/52/54 246/92/95
f 247/93/98 248/91/97 249/92/95
f 247/93/98 249/92/95 250/94/96
f 251/95/99 252/53/47 253/51/53
f 251/95/99 253/51/53 254/91/97
f 255/96/100 256/95/101 257/91/97
f 255/96/100 257/91/97 258/93/98
f 259/97/102 260/96/100 261/93/98
f 259/97/102 261/93/98 262/98/103
f 263/98/103 264/93/98 265/94/96
f 263/98/103 265/94/96 266/99/104
f 267/100/105 268/97/106 269/98/103
f 267/100/105 269/98/103 270/101/107
f 271/101/107 272/98/103 273/99/104
f 271/101/107 273/99/104 274/102/108
f 275/103/109 276/100/109 277/101/109
f 275/103/109 277/101/109 278/104/110
f 279/104/111 280/101/107 281/102/108
f 279/104/111 281/102/108 282/105/112
f 283/106/109 284/103/109 285/104/109
f 283/106/109 285/104/109 286/107/109
f 287/107/113 288/104/114 289/105/112
f 287/107/113 289/105/112 290/108/115
f 291/109/22 292/110/22 293/111/115
f 291/109/22 293/111/115 294/112/112
f 295/112/112 296/113/108 297/114/22
f 295/112/112 297/114/22 298/109/22
f 299/115/16 300/116/16 301/110/18
f 299/115/16 301/110/18 302/109/27
f 303/117/18 304/115/21 305/109/68
f 303/117/18 305/109/68 306/114/19
f 310/85/91 311/84/88 307/118/116
f 307/118/116 308/115/16 309/117/16
f 309/117/16 310/85/91 307/118/116
f 315/119/117 316/120/17 312/116/16
f 312/116/16 313/115/16 314/118/116
f 314/118/116 315/119/117 312/116/16
f 317/85/118 318/117/21 319/114/16
f 317/85/118 319/114/16 320/121/22
f 321/86/18 322/85/18 323/121/18
f 321/86/18 323/121/18 324/87/18
f 325/122/119 326/90/96 327/87/27
f 325/122/119 327/87/27 328/121/22
f 329/113/108 330/122/119 331/121/22
f 329/113/108 331/121/22 332/114/22
f 333/116/21 334/120/18 335/123/120
f 333/116/21 335/123/120 336/110/22
f 340/124/121 341/125/122 337/126/122
f 337/126/122 338/120/17 339/119/117
f 339/119/117 340/124/121 337/126/122
f 342/120/123 343/126/18 344/127/18
f 342/120/123 344/127/18 345/123/18
f 346/128/124 347/111/115 348/110/27
f 346/128/124 348/110/27 349/123/29
f 350/129/125 351/128/124 352/123/29
f 350/129/125 352/123/29 353/127/65
f 354/130/126 355/107/113 356/108/115
f 354/130/126 356/108/115 357/131/127
f 358/132/128 359/130/126 360/131/129
f 358/132/128 360/131/129 361/133/125
f 362/134/130 363/135/131 364/130/132
f 362/134/130 364/130/132 365/132/133
f 366/135/134 367/106/135 368/107/113
f 366/135/134 368/107/113 369/130/126
f 370/136/136 371/134/130 372/132/137
f 370/136/136 372/132/137 373/137/138
f 374/137/138 375/132/137 376/133/125
f 374/137/138 376/133/125 377/138/139
f 378/139/140 379/136/136 380/137/138
f 378/139/140 380/137/138 381/140/141
f 382/140/141 383/137/138 384/138/139
f 382/140/141 384/138/139 385/141/142
f 386/142/143 387/139/143 388/140/143
f 386/142/143 388/140/143 389/143/143
f 390/143/144 391/140/141 392/141/142
f 390/143/144 392/141/142 393/144/145
f 394/145/146 395/143/144 396/144/145
f 394/145/146 396/144/145 397/146/147
f 398/147/143 399/142/143 400/143/143
f 398/147/143 400/143/143 401/145/143
f 402/148/147 403/149/148 404/150/149
f 402/148/147 404/150/149 405/151/61
f 406/149/145 407/152/142 408/153/61
f 406/149/145 408/153/61 409/150/149
f 410/154/150 411/155/21 412/151/21
f 410/154/150 412/151/21 413/150/21
f 414/156/21 415/154/21 416/150/149
f 414/156/21 416/150/149 417/153/151
f 421/125/122 422/124/121 418/157/152
f 418/157/152 419/154/57 420/156/122
f 420/156/122 421/125/122 418/157/152
f 426/158/153 427/159/57 423/155/24
f 423/155/24 424/154/57 425/157/154
f 425/157/154 426/158/153 423/155/24
f 428/125/18 429/156/18 430/153/31
f 428/125/18 430/153/31 431/160/91
f 432/126/21 433/125/21 434/160/18
f 432/126/21 434/160/18 435/127/68
f 436/161/139 437/129/125 438/127/65
f 436/161/139 438/127/65 439/160/29
f 440/152/142 441/161/139 442/160/29
f 440/152/142 442/160/29 443/153/61
f 444/81/82 445/80/155 446/124/121
f 444/81/82 446/124/121 447/119/156
f 448/79/80 449/157/157 450/124/158
f 448/79/80 450/124/158 451/80/155
f 452/155/21 453/159/122 454/162/151
f 452/155/21 454/162/151 455/151/18
f 459/22/25 460/21/24 456/163/24
f 456/163/24 457/159/24 458/158/153
f 458/158/153 459/22/25 456/163/24
f 461/159/18 462/163/18 463/164/159
f 461/159/18 463/164/159 464/162/160
f 465/165/161 466/148/147 467/151/61
f 465/165/161 467/151/61 468/162/61
f 469/166/162 470/165/161 471/162/61
f 469/166/162 471/162/61 472/164/61
f 473/167/163 474/145/146 475/146/147
f 473/167/163 475/146/147 476/168/161
f 477/169/164 478/167/163 479/168/161
f 477/169/164 479/168/161 480/170/162
f 481/171/165 482/172/166 483/167/163
f 481/171/165 483/167/163 484/169/164
f 485/172/167 486/147/143 487/145/144
f 485/172/167 487/145/144 488/167/163
f 489/10/9 490/171/168 491/169/169
f 489/10/9 491/169/169 492/11/170
f 493/11/10 494/169/171 495/170/162
f 493/11/10 495/170/162 496/12/15
f 497/17/15 498/166/162 499/164/61
f 497/17/15 499/164/61 500/18/16
f 501/163/150 502/21/150 503/18/17
f 501/163/150 503/18/17 504/164/61
f 505/78/172 506/77/77 507/22/173
f 505/78/172 507/22/173 508/158/153
f 509/79/174 510/78/78 511/158/153
f 509/79/174 511/158/153 512/157/152
f 513/76/175 514/23/26 515/22/176
f 513/76/175 515/22/176 516/77/177
f 517/82/84 518/81/82 519/119/117
f 517/82/84 519/119/117 520/118/116
f 521/82/84 522/118/116 523/84/178
f 521/82/84 523/84/178 524/83/85
f 525/76/76 526/71/69 527/24/179
f 525/76/76 527/24/179 528/23/26
