# Blender 5.2.0 LTS
# www.blender.org
mtllib button_06.mtl
o button_06
v 0.382275 0.248480 -0.100529
v 0.359942 0.260059 -0.100529
v 0.369742 0.278962 -0.100529
v 0.392075 0.267384 -0.100529
v 0.359942 0.260059 -0.100529
v 0.355398 0.262415 -0.099511
v 0.365198 0.281318 -0.099511
v 0.369742 0.278962 -0.100529
v 0.369742 0.278962 -0.100529
v 0.372109 0.283106 -0.098554
v 0.394270 0.271618 -0.098554
v 0.392075 0.267384 -0.100529
v 0.365198 0.281318 -0.099511
v 0.368077 0.285197 -0.097650
v 0.372109 0.283106 -0.098554
v 0.369742 0.278962 -0.100529
v 0.361345 0.283315 -0.096611
v 0.364804 0.286893 -0.095187
v 0.368077 0.285197 -0.097650
v 0.365198 0.281318 -0.099511
v 0.355398 0.262415 -0.099511
v 0.351545 0.264412 -0.096611
v 0.361345 0.283315 -0.096611
v 0.365198 0.281318 -0.099511
v 0.358771 0.284649 -0.092272
v 0.362618 0.288027 -0.091501
v 0.364804 0.286893 -0.095187
v 0.361345 0.283315 -0.096611
v 0.351545 0.264412 -0.096611
v 0.348971 0.265746 -0.092272
v 0.358771 0.284649 -0.092272
v 0.361345 0.283315 -0.096611
v 0.348971 0.265746 -0.092272
v 0.348067 0.266215 -0.087153
v 0.357867 0.285118 -0.087153
v 0.358771 0.284649 -0.092272
v 0.348067 0.266215 -0.087153
v 0.348067 0.266215 -0.052304
v 0.357867 0.285118 -0.052304
v 0.357867 0.285118 -0.087153
v 0.348067 0.266215 -0.052304
v 0.348067 0.266215 -0.017455
v 0.357867 0.285118 -0.017455
v 0.357867 0.285118 -0.052304
v 0.357867 0.285118 -0.017455
v 0.361816 0.288443 -0.017649
v 0.361816 0.288443 -0.052304
v 0.357867 0.285118 -0.052304
v 0.357867 0.285118 -0.087153
v 0.357867 0.285118 -0.052304
v 0.361816 0.288443 -0.052304
v 0.361816 0.288443 -0.086959
v 0.361816 0.288443 -0.086959
v 0.361816 0.288443 -0.052304
v 0.366959 0.288001 -0.052304
v 0.366959 0.288001 -0.086489
v 0.361816 0.288443 -0.017649
v 0.366959 0.288001 -0.018119
v 0.366959 0.288001 -0.052304
v 0.361816 0.288443 -0.052304
v 0.368863 0.287014 -0.052304
v 0.369760 0.286549 -0.059976
v 0.366959 0.288001 -0.086489
v 0.366959 0.288001 -0.052304
v 0.369760 0.286549 -0.044632
v 0.368863 0.287014 -0.052304
v 0.366959 0.288001 -0.052304
v 0.366959 0.288001 -0.018119
v 0.372235 0.283947 -0.052304
v 0.368863 0.287014 -0.052304
v 0.369760 0.286549 -0.044632
v 0.372389 0.285186 -0.037483
v 0.375237 0.282391 -0.039686
v 0.369760 0.286549 -0.059976
v 0.368863 0.287014 -0.052304
v 0.372235 0.283947 -0.052304
v 0.375237 0.282391 -0.064923
v 0.372389 0.285186 -0.067125
v 0.372389 0.285186 -0.037483
v 0.369760 0.286549 -0.044632
v 0.366959 0.288001 -0.018119
v 0.367516 0.287713 -0.014968
v 0.376571 0.283018 -0.031344
v 0.382021 0.280193 -0.026633
v 0.383437 0.278139 -0.030448
v 0.375237 0.282391 -0.039686
v 0.372389 0.285186 -0.037483
v 0.376571 0.283018 -0.031344
v 0.372389 0.285186 -0.037483
v 0.367516 0.287713 -0.014968
v 0.368766 0.287065 -0.012859
v 0.364804 0.286893 -0.009421
v 0.368766 0.287065 -0.012859
v 0.367516 0.287713 -0.014968
v 0.362618 0.288027 -0.013107
v 0.362618 0.288027 -0.013107
v 0.367516 0.287713 -0.014968
v 0.366959 0.288001 -0.018119
v 0.361816 0.288443 -0.017649
v 0.368077 0.285197 -0.006958
v 0.370638 0.286094 -0.011450
v 0.368766 0.287065 -0.012859
v 0.364804 0.286893 -0.009421
v 0.382021 0.280193 -0.026633
v 0.376571 0.283018 -0.031344
v 0.368766 0.287065 -0.012859
v 0.370638 0.286094 -0.011450
v 0.372109 0.283106 -0.006054
v 0.373436 0.284644 -0.010824
v 0.370638 0.286094 -0.011450
v 0.368077 0.285197 -0.006958
v 0.388368 0.276902 -0.023672
v 0.382021 0.280193 -0.026633
v 0.370638 0.286094 -0.011450
v 0.373436 0.284644 -0.010824
v 0.383437 0.278139 -0.030448
v 0.382021 0.280193 -0.026633
v 0.388368 0.276902 -0.023672
v 0.395179 0.273371 -0.022662
v 0.394640 0.272332 -0.027067
v 0.395179 0.273371 -0.022662
v 0.388368 0.276902 -0.023672
v 0.373436 0.284644 -0.010824
v 0.395179 0.273371 -0.010824
v 0.394640 0.272332 -0.027067
v 0.395179 0.273371 -0.022662
v 0.401990 0.269840 -0.023672
v 0.408337 0.266550 -0.026633
v 0.405842 0.266524 -0.030448
v 0.401990 0.269840 -0.023672
v 0.395179 0.273371 -0.022662
v 0.395179 0.273371 -0.010824
v 0.416922 0.262099 -0.010824
v 0.372109 0.283106 -0.006054
v 0.394270 0.271618 -0.006054
v 0.395179 0.273371 -0.010824
v 0.373436 0.284644 -0.010824
v 0.416430 0.260129 -0.006054
v 0.416922 0.262099 -0.010824
v 0.395179 0.273371 -0.010824
v 0.394270 0.271618 -0.006054
v 0.369742 0.278962 -0.004079
v 0.392075 0.267384 -0.004079
v 0.394270 0.271618 -0.006054
v 0.372109 0.283106 -0.006054
v 0.414408 0.255805 -0.004079
v 0.416430 0.260129 -0.006054
v 0.394270 0.271618 -0.006054
v 0.392075 0.267384 -0.004079
v 0.382275 0.248480 -0.004079
v 0.404608 0.236902 -0.004079
v 0.414408 0.255805 -0.004079
v 0.392075 0.267384 -0.004079
v 0.359942 0.260059 -0.004079
v 0.382275 0.248480 -0.004079
v 0.392075 0.267384 -0.004079
v 0.369742 0.278962 -0.004079
v 0.355398 0.262415 -0.005097
v 0.359942 0.260059 -0.004079
v 0.369742 0.278962 -0.004079
v 0.365198 0.281318 -0.005097
v 0.351545 0.264412 -0.007997
v 0.355398 0.262415 -0.005097
v 0.365198 0.281318 -0.005097
v 0.361345 0.283315 -0.007997
v 0.365198 0.281318 -0.005097
v 0.368077 0.285197 -0.006958
v 0.364804 0.286893 -0.009421
v 0.361345 0.283315 -0.007997
v 0.369742 0.278962 -0.004079
v 0.372109 0.283106 -0.006054
v 0.368077 0.285197 -0.006958
v 0.365198 0.281318 -0.005097
v 0.348971 0.265746 -0.012336
v 0.351545 0.264412 -0.007997
v 0.361345 0.283315 -0.007997
v 0.358771 0.284649 -0.012336
v 0.361345 0.283315 -0.007997
v 0.364804 0.286893 -0.009421
v 0.362618 0.288027 -0.013107
v 0.358771 0.284649 -0.012336
v 0.358771 0.284649 -0.012336
v 0.362618 0.288027 -0.013107
v 0.361816 0.288443 -0.017649
v 0.357867 0.285118 -0.017455
v 0.348067 0.266215 -0.017455
v 0.348971 0.265746 -0.012336
v 0.358771 0.284649 -0.012336
v 0.357867 0.285118 -0.017455
v 0.404608 0.236902 -0.004079
v 0.409152 0.234546 -0.005097
v 0.418952 0.253450 -0.005097
v 0.414408 0.255805 -0.004079
v 0.409152 0.234546 -0.005097
v 0.413005 0.232549 -0.007997
v 0.422805 0.251452 -0.007997
v 0.418952 0.253450 -0.005097
v 0.418952 0.253450 -0.005097
v 0.420463 0.258038 -0.006958
v 0.416430 0.260129 -0.006054
v 0.414408 0.255805 -0.004079
v 0.422805 0.251452 -0.007997
v 0.423735 0.256342 -0.009421
v 0.420463 0.258038 -0.006958
v 0.418952 0.253450 -0.005097
v 0.425379 0.250118 -0.012336
v 0.425922 0.255208 -0.013107
v 0.423735 0.256342 -0.009421
v 0.422805 0.251452 -0.007997
v 0.413005 0.232549 -0.007997
v 0.415579 0.231215 -0.012336
v 0.425379 0.250118 -0.012336
v 0.422805 0.251452 -0.007997
v 0.426283 0.249649 -0.017455
v 0.426724 0.254792 -0.017649
v 0.425922 0.255208 -0.013107
v 0.425379 0.250118 -0.012336
v 0.415579 0.231215 -0.012336
v 0.416483 0.230746 -0.017455
v 0.426283 0.249649 -0.017455
v 0.425379 0.250118 -0.012336
v 0.416483 0.230746 -0.017455
v 0.416483 0.230746 -0.052304
v 0.426283 0.249649 -0.052304
v 0.426283 0.249649 -0.017455
v 0.416483 0.230746 -0.052304
v 0.416483 0.230746 -0.087153
v 0.426283 0.249649 -0.087153
v 0.426283 0.249649 -0.052304
v 0.426283 0.249649 -0.087153
v 0.426724 0.254792 -0.086959
v 0.426724 0.254792 -0.052304
v 0.426283 0.249649 -0.052304
v 0.426283 0.249649 -0.017455
v 0.426283 0.249649 -0.052304
v 0.426724 0.254792 -0.052304
v 0.426724 0.254792 -0.017649
v 0.426724 0.254792 -0.017649
v 0.426724 0.254792 -0.052304
v 0.423399 0.258741 -0.052304
v 0.423399 0.258741 -0.018119
v 0.426724 0.254792 -0.086959
v 0.423399 0.258741 -0.086489
v 0.423399 0.258741 -0.052304
v 0.426724 0.254792 -0.052304
v 0.421495 0.259729 -0.052304
v 0.420598 0.260193 -0.044632
v 0.423399 0.258741 -0.018119
v 0.423399 0.258741 -0.052304
v 0.420598 0.260193 -0.059976
v 0.421495 0.259729 -0.052304
v 0.423399 0.258741 -0.052304
v 0.423399 0.258741 -0.086489
v 0.417045 0.260716 -0.052304
v 0.421495 0.259729 -0.052304
v 0.420598 0.260193 -0.059976
v 0.417969 0.261556 -0.067125
v 0.414043 0.262272 -0.064923
v 0.420598 0.260193 -0.044632
v 0.421495 0.259729 -0.052304
v 0.417045 0.260716 -0.052304
v 0.414043 0.262272 -0.039686
v 0.417969 0.261556 -0.037483
v 0.417969 0.261556 -0.067125
v 0.420598 0.260193 -0.059976
v 0.423399 0.258741 -0.086489
v 0.422843 0.259030 -0.089640
v 0.413787 0.263724 -0.073264
v 0.408337 0.266550 -0.077975
v 0.405842 0.266524 -0.074160
v 0.414043 0.262272 -0.064923
v 0.417969 0.261556 -0.067125
v 0.413787 0.263724 -0.073264
v 0.417969 0.261556 -0.067125
v 0.422843 0.259030 -0.089640
v 0.421592 0.259678 -0.091749
v 0.423735 0.256342 -0.095187
v 0.421592 0.259678 -0.091749
v 0.422843 0.259030 -0.089640
v 0.425922 0.255208 -0.091501
v 0.425922 0.255208 -0.091501
v 0.422843 0.259030 -0.089640
v 0.423399 0.258741 -0.086489
v 0.426724 0.254792 -0.086959
v 0.420463 0.258038 -0.097650
v 0.419720 0.260649 -0.093158
v 0.421592 0.259678 -0.091749
v 0.423735 0.256342 -0.095187
v 0.408337 0.266550 -0.077975
v 0.413787 0.263724 -0.073264
v 0.421592 0.259678 -0.091749
v 0.419720 0.260649 -0.093158
v 0.416430 0.260129 -0.098554
v 0.416922 0.262099 -0.093785
v 0.419720 0.260649 -0.093158
v 0.420463 0.258038 -0.097650
v 0.401990 0.269840 -0.080936
v 0.408337 0.266550 -0.077975
v 0.419720 0.260649 -0.093158
v 0.416922 0.262099 -0.093785
v 0.401990 0.269840 -0.080936
v 0.395179 0.273371 -0.081946
v 0.394640 0.272332 -0.077541
v 0.405842 0.266524 -0.074160
v 0.408337 0.266550 -0.077975
v 0.395179 0.273371 -0.081946
v 0.401990 0.269840 -0.080936
v 0.416922 0.262099 -0.093785
v 0.395179 0.273371 -0.093785
v 0.394640 0.272332 -0.077541
v 0.395179 0.273371 -0.081946
v 0.388368 0.276902 -0.080936
v 0.382021 0.280193 -0.077975
v 0.383437 0.278139 -0.074160
v 0.388368 0.276902 -0.080936
v 0.395179 0.273371 -0.081946
v 0.395179 0.273371 -0.093785
v 0.373436 0.284644 -0.093785
v 0.416430 0.260129 -0.098554
v 0.394270 0.271618 -0.098554
v 0.395179 0.273371 -0.093785
v 0.416922 0.262099 -0.093785
v 0.372109 0.283106 -0.098554
v 0.373436 0.284644 -0.093785
v 0.395179 0.273371 -0.093785
v 0.394270 0.271618 -0.098554
v 0.414408 0.255805 -0.100529
v 0.392075 0.267384 -0.100529
v 0.394270 0.271618 -0.098554
v 0.416430 0.260129 -0.098554
v 0.414408 0.255805 -0.100529
v 0.416430 0.260129 -0.098554
v 0.420463 0.258038 -0.097650
v 0.418952 0.253450 -0.099511
v 0.409152 0.234546 -0.099511
v 0.404608 0.236902 -0.100529
v 0.414408 0.255805 -0.100529
v 0.418952 0.253450 -0.099511
v 0.404608 0.236902 -0.100529
v 0.382275 0.248480 -0.100529
v 0.392075 0.267384 -0.100529
v 0.414408 0.255805 -0.100529
v 0.413005 0.232549 -0.096611
v 0.409152 0.234546 -0.099511
v 0.418952 0.253450 -0.099511
v 0.422805 0.251452 -0.096611
v 0.415579 0.231215 -0.092272
v 0.413005 0.232549 -0.096611
v 0.422805 0.251452 -0.096611
v 0.425379 0.250118 -0.092272
v 0.422805 0.251452 -0.096611
v 0.423735 0.256342 -0.095187
v 0.425922 0.255208 -0.091501
v 0.425379 0.250118 -0.092272
v 0.418952 0.253450 -0.099511
v 0.420463 0.258038 -0.097650
v 0.423735 0.256342 -0.095187
v 0.422805 0.251452 -0.096611
v 0.425379 0.250118 -0.092272
v 0.425922 0.255208 -0.091501
v 0.426724 0.254792 -0.086959
v 0.426283 0.249649 -0.087153
v 0.416483 0.230746 -0.087153
v 0.415579 0.231215 -0.092272
v 0.425379 0.250118 -0.092272
v 0.426283 0.249649 -0.087153
v 0.368077 0.285197 -0.097650
v 0.370638 0.286094 -0.093158
v 0.373436 0.284644 -0.093785
v 0.372109 0.283106 -0.098554
v 0.382021 0.280193 -0.077975
v 0.388368 0.276902 -0.080936
v 0.373436 0.284644 -0.093785
v 0.370638 0.286094 -0.093158
v 0.364804 0.286893 -0.095187
v 0.368766 0.287065 -0.091749
v 0.370638 0.286094 -0.093158
v 0.368077 0.285197 -0.097650
v 0.376571 0.283018 -0.073264
v 0.382021 0.280193 -0.077975
v 0.370638 0.286094 -0.093158
v 0.368766 0.287065 -0.091749
v 0.376571 0.283018 -0.073264
v 0.372389 0.285186 -0.067125
v 0.375237 0.282391 -0.064923
v 0.383437 0.278139 -0.074160
v 0.382021 0.280193 -0.077975
v 0.372389 0.285186 -0.067125
v 0.376571 0.283018 -0.073264
v 0.368766 0.287065 -0.091749
v 0.367516 0.287713 -0.089640
v 0.369760 0.286549 -0.059976
v 0.372389 0.285186 -0.067125
v 0.367516 0.287713 -0.089640
v 0.366959 0.288001 -0.086489
v 0.361816 0.288443 -0.086959
v 0.366959 0.288001 -0.086489
v 0.367516 0.287713 -0.089640
v 0.362618 0.288027 -0.091501
v 0.362618 0.288027 -0.091501
v 0.367516 0.287713 -0.089640
v 0.368766 0.287065 -0.091749
v 0.364804 0.286893 -0.095187
v 0.357867 0.285118 -0.087153
v 0.361816 0.288443 -0.086959
v 0.362618 0.288027 -0.091501
v 0.358771 0.284649 -0.092272
v 0.377513 0.277332 -0.062412
v 0.384082 0.273927 -0.069811
v 0.383437 0.278139 -0.074160
v 0.375237 0.282391 -0.064923
v 0.375108 0.278579 -0.052304
v 0.377513 0.277332 -0.062412
v 0.375237 0.282391 -0.064923
v 0.372235 0.283947 -0.052304
v 0.375108 0.278579 -0.052304
v 0.391221 0.265737 -0.052304
v 0.377513 0.277332 -0.062412
v 0.377513 0.277332 -0.062412
v 0.391221 0.265737 -0.052304
v 0.384082 0.273927 -0.069811
v 0.393055 0.269275 -0.032089
v 0.391221 0.265737 -0.052304
v 0.384082 0.273927 -0.034797
v 0.393055 0.269275 -0.032089
v 0.402029 0.264622 -0.034797
v 0.391221 0.265737 -0.052304
v 0.408598 0.261217 -0.042196
v 0.391221 0.265737 -0.052304
v 0.402029 0.264622 -0.034797
v 0.411002 0.259970 -0.052304
v 0.391221 0.265737 -0.052304
v 0.408598 0.261217 -0.042196
v 0.408598 0.261217 -0.062412
v 0.391221 0.265737 -0.052304
v 0.411002 0.259970 -0.052304
v 0.402029 0.264622 -0.069811
v 0.391221 0.265737 -0.052304
v 0.408598 0.261217 -0.062412
v 0.393055 0.269274 -0.072519
v 0.391221 0.265737 -0.052304
v 0.402029 0.264622 -0.069811
v 0.391221 0.265737 -0.052304
v 0.393055 0.269274 -0.072519
v 0.384082 0.273927 -0.069811
v 0.377513 0.277332 -0.042196
v 0.391221 0.265737 -0.052304
v 0.375108 0.278579 -0.052304
v 0.384082 0.273927 -0.034797
v 0.391221 0.265737 -0.052304
v 0.377513 0.277332 -0.042196
v 0.384082 0.273927 -0.034797
v 0.377513 0.277332 -0.042196
v 0.375237 0.282391 -0.039686
v 0.383437 0.278139 -0.030448
v 0.384082 0.273927 -0.034797
v 0.383437 0.278139 -0.030448
v 0.394640 0.272332 -0.027067
v 0.393055 0.269275 -0.032089
v 0.375108 0.278579 -0.052304
v 0.372235 0.283947 -0.052304
v 0.375237 0.282391 -0.039686
v 0.377513 0.277332 -0.042196
v 0.393055 0.269274 -0.072519
v 0.394640 0.272332 -0.077541
v 0.383437 0.278139 -0.074160
v 0.384082 0.273927 -0.069811
v 0.393055 0.269274 -0.072519
v 0.402029 0.264622 -0.069811
v 0.405842 0.266524 -0.074160
v 0.394640 0.272332 -0.077541
v 0.402029 0.264622 -0.069811
v 0.408598 0.261217 -0.062412
v 0.414043 0.262272 -0.064923
v 0.405842 0.266524 -0.074160
v 0.411002 0.259970 -0.052304
v 0.417045 0.260716 -0.052304
v 0.414043 0.262272 -0.064923
v 0.408598 0.261217 -0.062412
v 0.411002 0.259970 -0.052304
v 0.408598 0.261217 -0.042196
v 0.414043 0.262272 -0.039686
v 0.417045 0.260716 -0.052304
v 0.408598 0.261217 -0.042196
v 0.402029 0.264622 -0.034797
v 0.405842 0.266524 -0.030448
v 0.414043 0.262272 -0.039686
v 0.413787 0.263724 -0.031344
v 0.417969 0.261556 -0.037483
v 0.414043 0.262272 -0.039686
v 0.405842 0.266524 -0.030448
v 0.408337 0.266550 -0.026633
v 0.417969 0.261556 -0.037483
v 0.413787 0.263724 -0.031344
v 0.421592 0.259678 -0.012859
v 0.422843 0.259030 -0.014968
v 0.420598 0.260193 -0.044632
v 0.417969 0.261556 -0.037483
v 0.422843 0.259030 -0.014968
v 0.423399 0.258741 -0.018119
v 0.426724 0.254792 -0.017649
v 0.423399 0.258741 -0.018119
v 0.422843 0.259030 -0.014968
v 0.425922 0.255208 -0.013107
v 0.425922 0.255208 -0.013107
v 0.422843 0.259030 -0.014968
v 0.421592 0.259678 -0.012859
v 0.423735 0.256342 -0.009421
v 0.423735 0.256342 -0.009421
v 0.421592 0.259678 -0.012859
v 0.419720 0.260649 -0.011450
v 0.420463 0.258038 -0.006958
v 0.413787 0.263724 -0.031344
v 0.408337 0.266550 -0.026633
v 0.419720 0.260649 -0.011450
v 0.421592 0.259678 -0.012859
v 0.420463 0.258038 -0.006958
v 0.419720 0.260649 -0.011450
v 0.416922 0.262099 -0.010824
v 0.416430 0.260129 -0.006054
v 0.408337 0.266550 -0.026633
v 0.401990 0.269840 -0.023672
v 0.416922 0.262099 -0.010824
v 0.419720 0.260649 -0.011450
v 0.393055 0.269275 -0.032089
v 0.394640 0.272332 -0.027067
v 0.405842 0.266524 -0.030448
v 0.402029 0.264622 -0.034797
vn -0.0000 -0.0000 -1.0000
vn -0.3397 0.1761 -0.9239
vn -0.3049 0.2402 -0.9216
vn -0.0000 0.0003 -1.0000
vn 0.3034 0.6327 -0.7125
vn 0.3245 0.6260 -0.7090
vn 0.0001 0.0001 -1.0000
vn -0.3048 0.2403 -0.9216
vn 0.0612 0.7265 -0.6844
vn -0.5928 0.3889 -0.7052
vn -0.1622 0.8338 -0.5277
vn -0.3049 0.2403 -0.9216
vn -0.3398 0.1762 -0.9238
vn -0.6277 0.3255 -0.7071
vn -0.7845 0.4891 -0.3813
vn -0.2978 0.9126 -0.2800
vn -0.1623 0.8338 -0.5277
vn -0.5928 0.3890 -0.7052
vn -0.6278 0.3255 -0.7070
vn -0.8202 0.4252 -0.3828
vn -0.7845 0.4890 -0.3813
vn -0.8202 0.4252 -0.3827
vn -0.8878 0.4603 -0.0001
vn -0.8877 0.4604 -0.0000
vn -0.8878 0.4603 -0.0000
vn -0.8876 0.4606 -0.0000
vn -0.8877 0.4605 0.0001
vn -0.3079 0.9513 0.0164
vn -0.3041 0.9526 -0.0000
vn -0.8877 0.4605 -0.0000
vn -0.3079 0.9513 -0.0164
vn -0.3041 0.9527 -0.0000
vn 0.4600 0.8879 -0.0000
vn 0.4601 0.8879 -0.0000
vn 0.4602 0.8878 -0.0000
vn 0.4599 0.8880 -0.0000
vn 0.4604 0.8877 -0.0001
vn 0.7312 0.6517 -0.2016
vn 0.7792 0.6268 -0.0000
vn 0.4605 0.8877 -0.0000
vn 0.7312 0.6517 0.2016
vn 0.4604 0.8877 0.0001
vn 0.4604 0.8877 -0.0000
vn 0.4603 0.8878 -0.0000
vn 0.4599 0.8880 -0.0001
vn 0.4605 0.8877 -0.0001
vn 0.6002 0.7196 -0.3493
vn -0.1622 0.8338 0.5277
vn 0.4602 0.8878 0.0001
vn -0.2978 0.9127 0.2800
vn 0.0613 0.7265 0.6844
vn 0.4602 0.8878 0.0002
vn 0.4603 0.8878 0.0001
vn 0.3034 0.6327 0.7125
vn 0.4603 0.8878 0.0002
vn 0.4603 0.8878 -0.0001
vn 0.4212 0.8124 -0.4033
vn 0.6001 0.7196 -0.3492
vn 0.4603 0.8877 -0.0002
vn 0.4603 0.8878 -0.0002
vn 0.4603 0.8878 0.0003
vn 0.4602 0.8878 -0.0001
vn 0.2421 0.9052 -0.3493
vn 0.3247 0.6260 0.7090
vn 0.4603 0.8878 0.0004
vn 0.3422 0.6126 0.7125
vn 0.3246 0.6261 0.7090
vn -0.0000 0.0003 1.0000
vn 0.0002 0.0001 1.0000
vn 0.0001 0.0001 1.0000
vn 0.3421 0.6126 0.7125
vn -0.0000 -0.0000 1.0000
vn -0.3397 0.1761 0.9239
vn -0.0001 -0.0000 1.0000
vn -0.3052 0.2405 0.9214
vn -0.6278 0.3254 0.7071
vn -0.3398 0.1761 0.9238
vn -0.3053 0.2405 0.9214
vn -0.5928 0.3889 0.7052
vn -0.8202 0.4252 0.3828
vn -0.6278 0.3255 0.7070
vn -0.7844 0.4889 0.3817
vn -0.2978 0.9126 0.2800
vn -0.8877 0.4604 0.0001
vn -0.8878 0.4602 -0.0000
vn -0.8202 0.4252 0.3827
vn 0.3397 -0.1761 0.9239
vn 0.3722 -0.1107 0.9215
vn 0.6278 -0.3255 0.7071
vn 0.6595 -0.2603 0.7052
vn 0.5584 0.4688 0.6844
vn 0.3422 0.6125 0.7125
vn 0.0001 0.0002 1.0000
vn 0.6595 -0.2602 0.7052
vn 0.7749 0.3480 0.5277
vn 0.3722 -0.1106 0.9215
vn 0.8517 -0.3593 0.3814
vn 0.9174 0.2827 0.2800
vn 0.6278 -0.3255 0.7070
vn 0.8202 -0.4252 0.3827
vn 0.8517 -0.3593 0.3815
vn 0.8879 -0.4600 0.0001
vn 0.9549 0.2966 0.0164
vn 0.8202 -0.4252 0.3826
vn 0.8878 -0.4603 0.0001
vn 0.8878 -0.4603 -0.0000
vn 0.8879 -0.4600 -0.0001
vn 0.9549 0.2966 -0.0164
vn 0.9538 0.3004 -0.0000
vn 0.8879 -0.4601 -0.0000
vn 0.8879 -0.4601 0.0001
vn 0.9538 0.3005 -0.0000
vn 0.4605 0.8877 -0.0002
vn 0.4606 0.8876 -0.0000
vn 0.1111 0.9731 0.2016
vn 0.0632 0.9980 -0.0000
vn 0.1111 0.9731 -0.2016
vn 0.4603 0.8877 -0.0000
vn 0.4606 0.8876 0.0001
vn 0.2421 0.9052 0.3493
vn 0.4601 0.8879 -0.0001
vn 0.4606 0.8876 -0.0001
vn 0.7749 0.3480 -0.5277
vn 0.9174 0.2827 -0.2800
vn 0.5584 0.4688 -0.6844
vn 0.7748 0.3480 -0.5277
vn 0.3422 0.6126 -0.7125
vn 0.4602 0.8878 0.0003
vn 0.4212 0.8124 0.4032
vn 0.4603 0.8878 -0.0003
vn 0.6002 0.7196 0.3493
vn 0.4212 0.8124 0.4033
vn 0.4602 0.8878 -0.0003
vn 0.3246 0.6261 -0.7090
vn 0.4602 0.8878 -0.0002
vn 0.3246 0.6260 -0.7090
vn 0.0002 0.0001 -1.0000
vn 0.3246 0.6260 -0.7091
vn 0.3721 -0.1107 -0.9216
vn 0.3396 -0.1761 -0.9239
vn 0.6278 -0.3254 -0.7071
vn 0.3397 -0.1761 -0.9239
vn 0.6595 -0.2603 -0.7052
vn 0.8202 -0.4252 -0.3828
vn 0.6278 -0.3255 -0.7070
vn 0.8516 -0.3592 -0.3817
vn 0.7748 0.3480 -0.5278
vn 0.8517 -0.3591 -0.3817
vn 0.8517 -0.3592 -0.3817
vn 0.8202 -0.4252 -0.3827
vn 0.8517 -0.3592 -0.3816
vn 0.0613 0.7265 -0.6844
vn 0.4601 0.8878 0.0001
vn 0.4601 0.8878 -0.0002
vn 0.4601 0.8879 -0.0004
vn 0.6002 0.7196 0.3492
vn 0.4604 0.8877 0.0002
vn 0.4601 0.8879 -0.0003
vn -0.2977 0.9127 -0.2800
vn 0.6995 0.6930 0.1744
vn 0.5862 0.7517 0.3021
vn 0.6002 0.7195 0.3493
vn 0.7410 0.6715 -0.0000
vn 0.5862 0.7518 0.3020
vn 0.4314 0.8320 -0.3488
vn 0.5862 0.7517 -0.3021
vn 0.2765 0.9123 -0.3021
vn 0.1632 0.9711 -0.1744
vn 0.1218 0.9926 -0.0000
vn 0.1632 0.9711 0.1744
vn 0.2765 0.9123 0.3021
vn 0.4313 0.8321 0.3488
vn 0.4313 0.8320 0.3488
vn 0.5861 0.7518 0.3021
vn 0.6995 0.6930 -0.1744
vn 0.4314 0.8320 -0.3489
vn 0.5862 0.7518 0.3021
vn 0.4313 0.8320 0.3489
vn 0.2765 0.9123 0.3022
vn 0.2764 0.9123 0.3021
vn 0.2420 0.9052 0.3493
vn 0.1217 0.9926 -0.0000
vn 0.0630 0.9980 -0.0000
vn 0.1111 0.9732 0.2016
vn 0.1631 0.9711 0.1744
vn 0.1111 0.9732 -0.2016
vn 0.0631 0.9980 -0.0000
vn 0.1111 0.9731 -0.2017
vn 0.4602 0.8878 -0.0004
vn 0.4604 0.8877 0.0003
vn 0.4601 0.8879 0.0001
vt 0.746194 0.193185
vt 0.746194 0.207725
vt 0.758533 0.207725
vt 0.758533 0.193185
vt 0.746194 0.210636
vt 0.758533 0.210636
vt 0.761529 0.207725
vt 0.761529 0.193185
vt 0.761529 0.210636
vt 0.758533 0.213509
vt 0.761529 0.213509
vt 0.746194 0.213509
vt 0.758533 0.216381
vt 0.761529 0.216381
vt 0.746194 0.216381
vt 0.746194 0.219292
vt 0.758533 0.219292
vt 0.746194 0.239449
vt 0.758533 0.239449
vt 0.746194 0.259606
vt 0.758533 0.259606
vt 0.761529 0.259606
vt 0.761529 0.239449
vt 0.761529 0.219292
vt 0.987021 0.170412
vt 0.987072 0.150068
vt 0.984045 0.150064
vt 0.983988 0.170094
vt 0.987072 0.129755
vt 0.984046 0.130065
vt 0.982788 0.150063
vt 0.982183 0.154554
vt 0.982193 0.145572
vt 0.980461 0.141387
vt 0.978157 0.142715
vt 0.980128 0.150061
vt 0.978140 0.157400
vt 0.980439 0.158737
vt 0.983676 0.128239
vt 0.977708 0.137795
vt 0.974131 0.135031
vt 0.972794 0.137324
vt 0.982864 0.127024
vt 0.985053 0.124853
vt 0.986522 0.127054
vt 0.982864 0.123365
vt 0.981656 0.126202
vt 0.980166 0.122791
vt 0.979835 0.125817
vt 0.969956 0.133282
vt 0.965472 0.132671
vt 0.965464 0.135329
vt 0.965497 0.125730
vt 0.956792 0.134981
vt 0.958118 0.137284
vt 0.960981 0.133255
vt 0.951127 0.125707
vt 0.965510 0.122696
vt 0.950812 0.122662
vt 0.758533 0.271173
vt 0.758533 0.285713
vt 0.761529 0.285713
vt 0.761529 0.271173
vt 0.758533 0.300253
vt 0.761529 0.300253
vt 0.746194 0.285713
vt 0.746194 0.300253
vt 0.746194 0.271173
vt 0.746194 0.268262
vt 0.758533 0.268262
vt 0.746194 0.265390
vt 0.758533 0.265390
vt 0.761529 0.268262
vt 0.761529 0.265390
vt 0.746194 0.262517
vt 0.758533 0.262517
vt 0.761529 0.262517
vt 0.746194 0.303164
vt 0.758533 0.303164
vt 0.746194 0.306036
vt 0.758533 0.306036
vt 0.761529 0.303164
vt 0.761529 0.306036
vt 0.758533 0.123853
vt 0.761529 0.123853
vt 0.761529 0.120981
vt 0.758533 0.120981
vt 0.746194 0.120981
vt 0.746194 0.123853
vt 0.758533 0.126764
vt 0.761529 0.126764
vt 0.746194 0.126764
vt 0.746194 0.146921
vt 0.758533 0.146921
vt 0.746194 0.167078
vt 0.758533 0.167078
vt 0.761529 0.167078
vt 0.761529 0.146921
vt 0.943849 0.129636
vt 0.943786 0.149986
vt 0.946814 0.149991
vt 0.946882 0.129957
vt 0.943787 0.170303
vt 0.946814 0.169992
vt 0.948072 0.149992
vt 0.948681 0.145500
vt 0.948666 0.154484
vt 0.950398 0.158669
vt 0.952701 0.157341
vt 0.950731 0.149996
vt 0.952729 0.142655
vt 0.950428 0.141316
vt 0.947185 0.171817
vt 0.953150 0.162260
vt 0.956728 0.165024
vt 0.958063 0.162730
vt 0.947993 0.173036
vt 0.945805 0.175212
vt 0.944340 0.173006
vt 0.947997 0.176698
vt 0.949203 0.173858
vt 0.950697 0.177270
vt 0.951026 0.174242
vt 0.960906 0.166771
vt 0.965393 0.167380
vt 0.965400 0.164720
vt 0.965369 0.174324
vt 0.974077 0.165070
vt 0.972751 0.162766
vt 0.969886 0.166795
vt 0.979742 0.174344
vt 0.965358 0.177358
vt 0.980059 0.177389
vt 0.758533 0.178645
vt 0.761529 0.178645
vt 0.761529 0.175734
vt 0.758533 0.175734
vt 0.746194 0.175734
vt 0.746194 0.178645
vt 0.746194 0.172862
vt 0.758533 0.172862
vt 0.746194 0.169989
vt 0.758533 0.169989
vt 0.761529 0.172862
vt 0.761529 0.169989
vt 0.982777 0.176822
vt 0.981572 0.173964
vt 0.984982 0.175330
vt 0.982789 0.173141
vt 0.977671 0.162320
vt 0.983609 0.171923
vt 0.986463 0.173122
vt 0.975133 0.155671
vt 0.971010 0.159767
vt 0.976656 0.150058
vt 0.965427 0.150030
vt 0.965454 0.138800
vt 0.971064 0.140326
vt 0.959835 0.140297
vt 0.955725 0.144397
vt 0.954202 0.150003
vt 0.955702 0.155612
vt 0.959790 0.159728
vt 0.965393 0.161251
vt 0.975155 0.144445
vt 0.953197 0.137732
vt 0.948078 0.126908
vt 0.947262 0.128128
vt 0.944410 0.126926
vt 0.945888 0.124714
vt 0.949296 0.126086
vt 0.948095 0.123227
s 1
f 1/1/1 2/2/1 3/3/1
f 1/1/1 3/3/1 4/4/1
f 5/2/1 6/5/2 7/6/3
f 5/2/1 7/6/3 8/3/4
f 9/3/4 10/7/5 11/8/6
f 9/3/4 11/8/6 12/4/7
f 13/6/8 14/9/9 15/7/5
f 13/6/8 15/7/5 16/3/4
f 17/10/10 18/11/11 19/9/9
f 17/10/10 19/9/9 20/6/12
f 21/5/13 22/12/14 23/10/10
f 21/5/13 23/10/10 24/6/12
f 25/13/15 26/14/16 27/11/17
f 25/13/15 27/11/17 28/10/18
f 29/12/19 30/15/20 31/13/21
f 29/12/19 31/13/21 32/10/10
f 33/15/22 34/16/23 35/17/24
f 33/15/22 35/17/24 36/13/21
f 37/16/25 38/18/25 39/19/26
f 37/16/25 39/19/26 40/17/25
f 41/18/25 42/20/25 43/21/25
f 41/18/25 43/21/25 44/19/25
f 45/21/27 46/22/28 47/23/29
f 45/21/27 47/23/29 48/19/24
f 49/17/30 50/19/24 51/23/29
f 49/17/30 51/23/29 52/24/31
f 53/25/31 54/26/32 55/27/33
f 53/25/31 55/27/33 56/28/34
f 57/29/28 58/30/33 59/27/33
f 57/29/28 59/27/33 60/26/32
f 61/31/35 62/32/35 63/28/35
f 61/31/35 63/28/35 64/27/35
f 65/33/35 66/31/35 67/27/35
f 65/33/35 67/27/35 68/30/36
f 72/34/37 73/35/38 69/36/39
f 69/36/39 70/31/40 71/33/40
f 71/33/40 72/34/37 69/36/39
f 77/37/41 78/38/42 74/32/43
f 74/32/43 75/31/43 76/36/39
f 76/36/39 77/37/41 74/32/43
f 79/34/44 80/33/44 81/30/35
f 79/34/44 81/30/35 82/39/45
f 86/35/38 87/34/46 83/40/37
f 83/40/37 84/41/37 85/42/47
f 85/42/47 86/35/38 83/40/37
f 88/40/44 89/34/44 90/39/44
f 88/40/44 90/39/44 91/43/44
f 92/44/48 93/43/49 94/39/35
f 92/44/48 94/39/35 95/45/50
f 96/45/50 97/39/35 98/30/33
f 96/45/50 98/30/33 99/29/28
f 100/46/51 101/47/52 102/43/49
f 100/46/51 102/43/49 103/44/48
f 104/41/35 105/40/35 106/43/53
f 104/41/35 106/43/53 107/47/42
f 108/48/54 109/49/55 110/47/52
f 108/48/54 110/47/52 111/46/51
f 112/50/44 113/41/53 114/47/52
f 112/50/44 114/47/52 115/49/55
f 119/51/56 120/52/57 116/42/58
f 116/42/58 117/41/59 118/50/60
f 118/50/60 119/51/56 116/42/58
f 121/51/44 122/50/56 123/49/44
f 121/51/44 123/49/44 124/53/61
f 128/54/62 129/55/63 125/52/57
f 125/52/57 126/51/60 127/56/62
f 127/56/62 128/54/62 125/52/57
f 130/56/44 131/51/44 132/53/61
f 130/56/44 132/53/61 133/57/35
f 134/48/54 135/58/64 136/53/65
f 134/48/54 136/53/65 137/49/55
f 138/59/66 139/57/55 140/53/61
f 138/59/66 140/53/61 141/58/67
f 142/60/68 143/61/69 144/62/67
f 142/60/68 144/62/67 145/63/54
f 146/64/70 147/65/71 148/62/64
f 146/64/70 148/62/64 149/61/70
f 150/66/72 151/67/72 152/64/72
f 150/66/72 152/64/72 153/61/72
f 154/68/72 155/66/72 156/61/72
f 154/68/72 156/61/72 157/60/72
f 158/69/73 159/68/74 160/60/68
f 158/69/73 160/60/68 161/70/75
f 162/71/76 163/69/77 164/70/78
f 162/71/76 164/70/78 165/72/79
f 166/70/75 167/73/51 168/74/48
f 166/70/75 168/74/48 169/72/79
f 170/60/68 171/63/54 172/73/51
f 170/60/68 172/73/51 173/70/75
f 174/75/80 175/71/81 176/72/79
f 174/75/80 176/72/79 177/76/82
f 178/72/79 179/74/48 180/77/83
f 178/72/79 180/77/83 181/76/82
f 182/76/82 183/77/83 184/22/28
f 182/76/82 184/22/28 185/21/84
f 186/20/85 187/75/86 188/76/82
f 186/20/85 188/76/82 189/21/84
f 190/67/72 191/78/87 192/79/88
f 190/67/72 192/79/88 193/64/70
f 194/78/87 195/80/89 196/81/90
f 194/78/87 196/81/90 197/79/88
f 198/79/88 199/82/91 200/65/92
f 198/79/88 200/65/92 201/64/93
f 202/81/94 203/83/95 204/82/91
f 202/81/94 204/82/91 205/79/96
f 206/84/97 207/85/98 208/86/95
f 206/84/97 208/86/95 209/87/90
f 210/88/99 211/89/100 212/84/101
f 210/88/99 212/84/101 213/87/90
f 214/90/102 215/91/103 216/85/98
f 214/90/102 216/85/98 217/84/97
f 218/89/104 219/92/105 220/90/102
f 218/89/104 220/90/102 221/84/97
f 222/92/106 223/93/106 224/94/106
f 222/92/106 224/94/106 225/90/106
f 226/93/106 227/95/106 228/96/107
f 226/93/106 228/96/107 229/94/106
f 230/96/107 231/97/108 232/98/109
f 230/96/107 232/98/109 233/94/110
f 234/90/102 235/94/111 236/98/109
f 234/90/102 236/98/109 237/91/103
f 238/99/103 239/100/112 240/101/40
f 238/99/103 240/101/40 241/102/37
f 242/103/108 243/104/43 244/101/40
f 242/103/108 244/101/40 245/100/112
f 246/105/35 247/106/44 248/102/113
f 246/105/35 248/102/113 249/101/114
f 250/107/44 251/105/44 252/101/46
f 250/107/44 252/101/46 253/104/35
f 257/108/49 258/109/115 254/110/116
f 254/110/116 255/105/35 256/107/35
f 256/107/35 257/108/49 254/110/116
f 262/111/117 263/112/62 259/106/35
f 259/106/35 260/105/35 261/110/116
f 261/110/116 262/111/117 259/106/35
f 264/108/44 265/107/44 266/104/118
f 264/108/44 266/104/118 267/113/119
f 271/109/115 272/108/49 268/114/49
f 268/114/49 269/115/49 270/116/120
f 270/116/120 271/109/115 268/114/49
f 273/114/35 274/108/35 275/113/121
f 273/114/35 275/113/121 276/117/122
f 277/118/123 278/117/46 279/113/43
f 277/118/123 279/113/43 280/119/124
f 281/119/124 282/113/43 283/104/43
f 281/119/124 283/104/43 284/103/108
f 285/120/125 286/121/56 287/117/46
f 285/120/125 287/117/46 288/118/126
f 289/115/44 290/114/44 291/117/42
f 289/115/44 291/117/42 292/121/42
f 293/122/127 294/123/60 295/121/56
f 293/122/127 295/121/56 296/120/125
f 297/124/35 298/115/128 299/121/62
f 297/124/35 299/121/62 300/123/62
f 304/116/120 305/115/49 301/124/52
f 301/124/52 302/125/55 303/126/129
f 303/126/129 304/116/120 301/124/52
f 306/125/35 307/124/44 308/123/35
f 306/125/35 308/123/35 309/127/130
f 313/128/53 314/129/131 310/126/132
f 310/126/132 311/125/53 312/130/53
f 312/130/53 313/128/53 310/126/132
f 315/130/44 316/125/44 317/127/44
f 315/130/44 317/127/44 318/131/133
f 319/122/127 320/132/134 321/127/60
f 319/122/127 321/127/60 322/123/60
f 323/133/5 324/131/133 325/127/135
f 323/133/5 325/127/135 326/132/136
f 327/134/7 328/4/137 329/8/138
f 327/134/7 329/8/138 330/135/127
f 331/134/137 332/135/127 333/136/125
f 331/134/137 333/136/125 334/137/139
f 335/138/140 336/139/1 337/134/7
f 335/138/140 337/134/7 338/137/139
f 339/139/1 340/1/1 341/4/1
f 339/139/1 341/4/1 342/134/1
f 343/140/141 344/138/142 345/137/139
f 343/140/141 345/137/139 346/141/143
f 347/142/144 348/140/145 349/141/143
f 347/142/144 349/141/143 350/143/146
f 351/141/143 352/144/147 353/145/124
f 351/141/143 353/145/124 354/143/148
f 355/137/139 356/136/125 357/144/126
f 355/137/139 357/144/126 358/141/143
f 359/143/149 360/145/124 361/97/108
f 359/143/149 361/97/108 362/96/107
f 363/95/106 364/142/150 365/143/151
f 363/95/106 365/143/151 366/96/107
f 367/146/152 368/147/135 369/131/133
f 367/146/152 369/131/133 370/133/5
f 371/128/44 372/130/128 373/131/49
f 371/128/44 373/131/49 374/147/153
f 375/148/11 376/149/62 377/147/154
f 375/148/11 377/147/154 378/146/9
f 379/150/35 380/128/35 381/147/155
f 379/150/35 381/147/155 382/149/43
f 386/129/156 387/128/53 383/150/157
f 383/150/157 384/38/42 385/37/41
f 385/37/41 386/129/156 383/150/157
f 388/38/44 389/150/44 390/149/158
f 388/38/44 390/149/158 391/151/44
f 392/32/44 393/38/44 394/151/44
f 392/32/44 394/151/44 395/28/34
f 396/25/31 397/28/34 398/151/35
f 396/25/31 398/151/35 399/152/159
f 400/152/159 401/151/35 402/149/62
f 400/152/159 402/149/62 403/148/11
f 404/17/24 405/24/31 406/14/16
f 404/17/24 406/14/16 407/13/21
f 408/153/160 409/154/161 410/129/162
f 408/153/160 410/129/162 411/37/41
f 412/155/163 413/153/160 414/37/41
f 412/155/163 414/37/41 415/36/39
f 416/155/163 417/156/44 418/153/160
f 419/153/160 420/156/44 421/154/164
f 422/157/165 423/156/44 424/158/166
f 425/157/165 426/159/167 427/156/44
f 428/160/168 429/156/44 430/159/167
f 431/161/169 432/156/35 433/160/168
f 434/162/170 435/156/44 436/161/169
f 437/163/171 438/156/44 439/162/170
f 440/164/172 441/156/53 442/163/171
f 443/156/44 444/164/173 445/154/174
f 446/165/175 447/156/44 448/155/163
f 449/158/166 450/156/44 451/165/175
f 452/158/166 453/165/175 454/35/38
f 452/158/166 454/35/38 455/42/47
f 456/158/166 457/42/47 458/52/57
f 456/158/166 458/52/57 459/157/176
f 460/155/163 461/36/39 462/35/38
f 460/155/163 462/35/38 463/165/175
f 464/164/173 465/126/132 466/129/131
f 464/164/173 466/129/131 467/154/177
f 468/164/178 469/163/179 470/116/120
f 468/164/178 470/116/120 471/126/132
f 472/163/180 473/162/170 474/109/115
f 472/163/180 474/109/115 475/116/181
f 476/161/182 477/110/183 478/109/184
f 476/161/182 478/109/184 479/162/185
f 480/161/182 481/160/168 482/111/186
f 480/161/182 482/111/186 483/110/187
f 484/160/168 485/159/167 486/55/63
f 484/160/168 486/55/63 487/111/188
f 491/55/63 492/54/62 488/166/62
f 488/166/62 489/112/62 490/111/117
f 490/111/117 491/55/63 488/166/62
f 493/112/35 494/166/35 495/167/42
f 493/112/35 495/167/42 496/168/44
f 497/106/44 498/112/35 499/168/122
f 497/106/44 499/168/122 500/102/37
f 501/99/103 502/102/37 503/168/43
f 501/99/103 503/168/43 504/169/98
f 505/169/98 506/168/43 507/167/42
f 505/169/98 507/167/42 508/170/95
f 509/170/95 510/167/42 511/171/55
f 509/170/95 511/171/55 512/172/91
f 513/166/56 514/54/56 515/171/37
f 513/166/56 515/171/37 516/167/37
f 517/172/91 518/171/55 519/57/55
f 517/172/91 519/57/55 520/59/66
f 521/54/35 522/56/189 523/57/190
f 521/54/35 523/57/190 524/171/191
f 525/157/176 526/52/57 527/55/63
f 525/157/176 527/55/63 528/159/167
