# Blender 5.2.0 LTS
# www.blender.org
mtllib button_12.mtl
o button_12
v -0.382275 0.248480 -0.100529
v -0.392075 0.267384 -0.100529
v -0.369742 0.278962 -0.100529
v -0.359942 0.260059 -0.100529
v -0.359942 0.260059 -0.100529
v -0.369742 0.278962 -0.100529
v -0.365198 0.281318 -0.099511
v -0.355398 0.262415 -0.099511
v -0.369742 0.278962 -0.100529
v -0.392075 0.267384 -0.100529
v -0.394270 0.271618 -0.098554
v -0.372109 0.283106 -0.098554
v -0.365198 0.281318 -0.099511
v -0.369742 0.278962 -0.100529
v -0.372109 0.283106 -0.098554
v -0.368077 0.285197 -0.097650
v -0.361345 0.283315 -0.096611
v -0.365198 0.281318 -0.099511
v -0.368077 0.285197 -0.097650
v -0.364804 0.286893 -0.095187
v -0.355398 0.262415 -0.099511
v -0.365198 0.281318 -0.099511
v -0.361345 0.283315 -0.096611
v -0.351545 0.264412 -0.096611
v -0.358771 0.284649 -0.092272
v -0.361345 0.283315 -0.096611
v -0.364804 0.286893 -0.095187
v -0.362618 0.288027 -0.091501
v -0.351545 0.264412 -0.096611
v -0.361345 0.283315 -0.096611
v -0.358771 0.284649 -0.092272
v -0.348971 0.265746 -0.092272
v -0.348971 0.265746 -0.092272
v -0.358771 0.284649 -0.092272
v -0.357867 0.285118 -0.087153
v -0.348067 0.266215 -0.087153
v -0.348067 0.266215 -0.087153
v -0.357867 0.285118 -0.087153
v -0.357867 0.285118 -0.052304
v -0.348067 0.266215 -0.052304
v -0.348067 0.266215 -0.052304
v -0.357867 0.285118 -0.052304
v -0.357867 0.285118 -0.017455
v -0.348067 0.266215 -0.017455
v -0.357867 0.285118 -0.017455
v -0.357867 0.285118 -0.052304
v -0.361816 0.288443 -0.052304
v -0.361816 0.288443 -0.017649
v -0.357867 0.285118 -0.087153
v -0.361816 0.288443 -0.086959
v -0.361816 0.288443 -0.052304
v -0.357867 0.285118 -0.052304
v -0.361816 0.288443 -0.086959
v -0.366959 0.288001 -0.086489
v -0.366959 0.288001 -0.052304
v -0.361816 0.288443 -0.052304
v -0.361816 0.288443 -0.017649
v -0.361816 0.288443 -0.052304
v -0.366959 0.288001 -0.052304
v -0.366959 0.288001 -0.018119
v -0.368863 0.287014 -0.052304
v -0.366959 0.288001 -0.052304
v -0.366959 0.288001 -0.086489
v -0.369760 0.286549 -0.059976
v -0.369760 0.286549 -0.044632
v -0.366959 0.288001 -0.018119
v -0.366959 0.288001 -0.052304
v -0.368863 0.287014 -0.052304
v -0.372235 0.283947 -0.052304
v -0.375237 0.282391 -0.039686
v -0.372389 0.285186 -0.037483
v -0.369760 0.286549 -0.044632
v -0.368863 0.287014 -0.052304
v -0.369760 0.286549 -0.059976
v -0.372389 0.285186 -0.067125
v -0.375237 0.282391 -0.064923
v -0.372235 0.283947 -0.052304
v -0.368863 0.287014 -0.052304
v -0.372389 0.285186 -0.037483
v -0.367516 0.287713 -0.014968
v -0.366959 0.288001 -0.018119
v -0.369760 0.286549 -0.044632
v -0.376571 0.283018 -0.031344
v -0.372389 0.285186 -0.037483
v -0.375237 0.282391 -0.039686
v -0.383437 0.278139 -0.030448
v -0.382021 0.280193 -0.026633
v -0.376571 0.283018 -0.031344
v -0.368766 0.287065 -0.012859
v -0.367516 0.287713 -0.014968
v -0.372389 0.285186 -0.037483
v -0.364804 0.286893 -0.009421
v -0.362618 0.288027 -0.013107
v -0.367516 0.287713 -0.014968
v -0.368766 0.287065 -0.012859
v -0.362618 0.288027 -0.013107
v -0.361816 0.288443 -0.017649
v -0.366959 0.288001 -0.018119
v -0.367516 0.287713 -0.014968
v -0.368077 0.285197 -0.006958
v -0.364804 0.286893 -0.009421
v -0.368766 0.287065 -0.012859
v -0.370638 0.286094 -0.011450
v -0.382021 0.280193 -0.026633
v -0.370638 0.286094 -0.011450
v -0.368766 0.287065 -0.012859
v -0.376571 0.283018 -0.031344
v -0.372109 0.283106 -0.006054
v -0.368077 0.285197 -0.006958
v -0.370638 0.286094 -0.011450
v -0.373436 0.284644 -0.010824
v -0.388368 0.276902 -0.023672
v -0.373436 0.284644 -0.010824
v -0.370638 0.286094 -0.011450
v -0.382021 0.280193 -0.026633
v -0.383437 0.278139 -0.030448
v -0.394640 0.272332 -0.027067
v -0.395179 0.273371 -0.022662
v -0.388368 0.276902 -0.023672
v -0.382021 0.280193 -0.026633
v -0.395179 0.273371 -0.022662
v -0.395179 0.273371 -0.010824
v -0.373436 0.284644 -0.010824
v -0.388368 0.276902 -0.023672
v -0.394640 0.272332 -0.027067
v -0.405842 0.266524 -0.030448
v -0.408337 0.266550 -0.026633
v -0.401990 0.269840 -0.023672
v -0.395179 0.273371 -0.022662
v -0.401990 0.269840 -0.023672
v -0.416922 0.262099 -0.010824
v -0.395179 0.273371 -0.010824
v -0.395179 0.273371 -0.022662
v -0.372109 0.283106 -0.006054
v -0.373436 0.284644 -0.010824
v -0.395179 0.273371 -0.010824
v -0.394270 0.271618 -0.006054
v -0.416430 0.260129 -0.006054
v -0.394270 0.271618 -0.006054
v -0.395179 0.273371 -0.010824
v -0.416922 0.262099 -0.010824
v -0.369742 0.278962 -0.004079
v -0.372109 0.283106 -0.006054
v -0.394270 0.271618 -0.006054
v -0.392075 0.267384 -0.004079
v -0.414408 0.255805 -0.004079
v -0.392075 0.267384 -0.004079
v -0.394270 0.271618 -0.006054
v -0.416430 0.260129 -0.006054
v -0.382275 0.248480 -0.004079
v -0.392075 0.267384 -0.004079
v -0.414408 0.255805 -0.004079
v -0.404608 0.236902 -0.004079
v -0.359942 0.260059 -0.004079
v -0.369742 0.278962 -0.004079
v -0.392075 0.267384 -0.004079
v -0.382275 0.248480 -0.004079
v -0.355398 0.262415 -0.005097
v -0.365198 0.281318 -0.005097
v -0.369742 0.278962 -0.004079
v -0.359942 0.260059 -0.004079
v -0.351545 0.264412 -0.007997
v -0.361345 0.283315 -0.007997
v -0.365198 0.281318 -0.005097
v -0.355398 0.262415 -0.005097
v -0.365198 0.281318 -0.005097
v -0.361345 0.283315 -0.007997
v -0.364804 0.286893 -0.009421
v -0.368077 0.285197 -0.006958
v -0.369742 0.278962 -0.004079
v -0.365198 0.281318 -0.005097
v -0.368077 0.285197 -0.006958
v -0.372109 0.283106 -0.006054
v -0.348971 0.265746 -0.012336
v -0.358771 0.284649 -0.012336
v -0.361345 0.283315 -0.007997
v -0.351545 0.264412 -0.007997
v -0.361345 0.283315 -0.007997
v -0.358771 0.284649 -0.012336
v -0.362618 0.288027 -0.013107
v -0.364804 0.286893 -0.009421
v -0.358771 0.284649 -0.012336
v -0.357867 0.285118 -0.017455
v -0.361816 0.288443 -0.017649
v -0.362618 0.288027 -0.013107
v -0.348067 0.266215 -0.017455
v -0.357867 0.285118 -0.017455
v -0.358771 0.284649 -0.012336
v -0.348971 0.265746 -0.012336
v -0.404608 0.236902 -0.004079
v -0.414408 0.255805 -0.004079
v -0.418952 0.253450 -0.005097
v -0.409152 0.234546 -0.005097
v -0.409152 0.234546 -0.005097
v -0.418952 0.253450 -0.005097
v -0.422805 0.251452 -0.007997
v -0.413005 0.232549 -0.007997
v -0.418952 0.253450 -0.005097
v -0.414408 0.255805 -0.004079
v -0.416430 0.260129 -0.006054
v -0.420463 0.258038 -0.006958
v -0.422805 0.251452 -0.007997
v -0.418952 0.253450 -0.005097
v -0.420463 0.258038 -0.006958
v -0.423735 0.256342 -0.009421
v -0.425379 0.250118 -0.012336
v -0.422805 0.251452 -0.007997
v -0.423735 0.256342 -0.009421
v -0.425922 0.255208 -0.013107
v -0.413005 0.232549 -0.007997
v -0.422805 0.251452 -0.007997
v -0.425379 0.250118 -0.012336
v -0.415579 0.231215 -0.012336
v -0.426283 0.249649 -0.017455
v -0.425379 0.250118 -0.012336
v -0.425922 0.255208 -0.013107
v -0.426724 0.254792 -0.017649
v -0.415579 0.231215 -0.012336
v -0.425379 0.250118 -0.012336
v -0.426283 0.249649 -0.017455
v -0.416483 0.230746 -0.017455
v -0.416483 0.230746 -0.017455
v -0.426283 0.249649 -0.017455
v -0.426283 0.249649 -0.052304
v -0.416483 0.230746 -0.052304
v -0.416483 0.230746 -0.052304
v -0.426283 0.249649 -0.052304
v -0.426283 0.249649 -0.087153
v -0.416483 0.230746 -0.087153
v -0.426283 0.249649 -0.087153
v -0.426283 0.249649 -0.052304
v -0.426724 0.254792 -0.052304
v -0.426724 0.254792 -0.086959
v -0.426283 0.249649 -0.017455
v -0.426724 0.254792 -0.017649
v -0.426724 0.254792 -0.052304
v -0.426283 0.249649 -0.052304
v -0.426724 0.254792 -0.017649
v -0.423399 0.258741 -0.018119
v -0.423399 0.258741 -0.052304
v -0.426724 0.254792 -0.052304
v -0.426724 0.254792 -0.086959
v -0.426724 0.254792 -0.052304
v -0.423399 0.258741 -0.052304
v -0.423399 0.258741 -0.086489
v -0.421495 0.259729 -0.052304
v -0.423399 0.258741 -0.052304
v -0.423399 0.258741 -0.018119
v -0.420598 0.260193 -0.044632
v -0.420598 0.260193 -0.059976
v -0.423399 0.258741 -0.086489
v -0.423399 0.258741 -0.052304
v -0.421495 0.259729 -0.052304
v -0.417045 0.260716 -0.052304
v -0.414043 0.262272 -0.064923
v -0.417969 0.261556 -0.067125
v -0.420598 0.260193 -0.059976
v -0.421495 0.259729 -0.052304
v -0.420598 0.260193 -0.044632
v -0.417969 0.261556 -0.037483
v -0.414043 0.262272 -0.039686
v -0.417045 0.260716 -0.052304
v -0.421495 0.259729 -0.052304
v -0.417969 0.261556 -0.067125
v -0.422843 0.259030 -0.089640
v -0.423399 0.258741 -0.086489
v -0.420598 0.260193 -0.059976
v -0.413787 0.263724 -0.073264
v -0.417969 0.261556 -0.067125
v -0.414043 0.262272 -0.064923
v -0.405842 0.266524 -0.074160
v -0.408337 0.266550 -0.077975
v -0.413787 0.263724 -0.073264
v -0.421592 0.259678 -0.091749
v -0.422843 0.259030 -0.089640
v -0.417969 0.261556 -0.067125
v -0.423735 0.256342 -0.095187
v -0.425922 0.255208 -0.091501
v -0.422843 0.259030 -0.089640
v -0.421592 0.259678 -0.091749
v -0.425922 0.255208 -0.091501
v -0.426724 0.254792 -0.086959
v -0.423399 0.258741 -0.086489
v -0.422843 0.259030 -0.089640
v -0.420463 0.258038 -0.097650
v -0.423735 0.256342 -0.095187
v -0.421592 0.259678 -0.091749
v -0.419720 0.260649 -0.093158
v -0.408337 0.266550 -0.077975
v -0.419720 0.260649 -0.093158
v -0.421592 0.259678 -0.091749
v -0.413787 0.263724 -0.073264
v -0.416430 0.260129 -0.098554
v -0.420463 0.258038 -0.097650
v -0.419720 0.260649 -0.093158
v -0.416922 0.262099 -0.093785
v -0.401990 0.269840 -0.080936
v -0.416922 0.262099 -0.093785
v -0.419720 0.260649 -0.093158
v -0.408337 0.266550 -0.077975
v -0.401990 0.269840 -0.080936
v -0.408337 0.266550 -0.077975
v -0.405842 0.266524 -0.074160
v -0.394640 0.272332 -0.077541
v -0.395179 0.273371 -0.081946
v -0.395179 0.273371 -0.081946
v -0.395179 0.273371 -0.093785
v -0.416922 0.262099 -0.093785
v -0.401990 0.269840 -0.080936
v -0.394640 0.272332 -0.077541
v -0.383437 0.278139 -0.074160
v -0.382021 0.280193 -0.077975
v -0.388368 0.276902 -0.080936
v -0.395179 0.273371 -0.081946
v -0.388368 0.276902 -0.080936
v -0.373436 0.284644 -0.093785
v -0.395179 0.273371 -0.093785
v -0.395179 0.273371 -0.081946
v -0.416430 0.260129 -0.098554
v -0.416922 0.262099 -0.093785
v -0.395179 0.273371 -0.093785
v -0.394270 0.271618 -0.098554
v -0.372109 0.283106 -0.098554
v -0.394270 0.271618 -0.098554
v -0.395179 0.273371 -0.093785
v -0.373436 0.284644 -0.093785
v -0.414408 0.255805 -0.100529
v -0.416430 0.260129 -0.098554
v -0.394270 0.271618 -0.098554
v -0.392075 0.267384 -0.100529
v -0.414408 0.255805 -0.100529
v -0.418952 0.253450 -0.099511
v -0.420463 0.258038 -0.097650
v -0.416430 0.260129 -0.098554
v -0.409152 0.234546 -0.099511
v -0.418952 0.253450 -0.099511
v -0.414408 0.255805 -0.100529
v -0.404608 0.236902 -0.100529
v -0.404608 0.236902 -0.100529
v -0.414408 0.255805 -0.100529
v -0.392075 0.267384 -0.100529
v -0.382275 0.248480 -0.100529
v -0.413005 0.232549 -0.096611
v -0.422805 0.251452 -0.096611
v -0.418952 0.253450 -0.099511
v -0.409152 0.234546 -0.099511
v -0.415579 0.231215 -0.092272
v -0.425379 0.250118 -0.092272
v -0.422805 0.251452 -0.096611
v -0.413005 0.232549 -0.096611
v -0.422805 0.251452 -0.096611
v -0.425379 0.250118 -0.092272
v -0.425922 0.255208 -0.091501
v -0.423735 0.256342 -0.095187
v -0.418952 0.253450 -0.099511
v -0.422805 0.251452 -0.096611
v -0.423735 0.256342 -0.095187
v -0.420463 0.258038 -0.097650
v -0.425379 0.250118 -0.092272
v -0.426283 0.249649 -0.087153
v -0.426724 0.254792 -0.086959
v -0.425922 0.255208 -0.091501
v -0.416483 0.230746 -0.087153
v -0.426283 0.249649 -0.087153
v -0.425379 0.250118 -0.092272
v -0.415579 0.231215 -0.092272
v -0.368077 0.285197 -0.097650
v -0.372109 0.283106 -0.098554
v -0.373436 0.284644 -0.093785
v -0.370638 0.286094 -0.093158
v -0.382021 0.280193 -0.077975
v -0.370638 0.286094 -0.093158
v -0.373436 0.284644 -0.093785
v -0.388368 0.276902 -0.080936
v -0.364804 0.286893 -0.095187
v -0.368077 0.285197 -0.097650
v -0.370638 0.286094 -0.093158
v -0.368766 0.287065 -0.091749
v -0.376571 0.283018 -0.073264
v -0.368766 0.287065 -0.091749
v -0.370638 0.286094 -0.093158
v -0.382021 0.280193 -0.077975
v -0.376571 0.283018 -0.073264
v -0.382021 0.280193 -0.077975
v -0.383437 0.278139 -0.074160
v -0.375237 0.282391 -0.064923
v -0.372389 0.285186 -0.067125
v -0.372389 0.285186 -0.067125
v -0.367516 0.287713 -0.089640
v -0.368766 0.287065 -0.091749
v -0.376571 0.283018 -0.073264
v -0.369760 0.286549 -0.059976
v -0.366959 0.288001 -0.086489
v -0.367516 0.287713 -0.089640
v -0.372389 0.285186 -0.067125
v -0.361816 0.288443 -0.086959
v -0.362618 0.288027 -0.091501
v -0.367516 0.287713 -0.089640
v -0.366959 0.288001 -0.086489
v -0.362618 0.288027 -0.091501
v -0.364804 0.286893 -0.095187
v -0.368766 0.287065 -0.091749
v -0.367516 0.287713 -0.089640
v -0.357867 0.285118 -0.087153
v -0.358771 0.284649 -0.092272
v -0.362618 0.288027 -0.091501
v -0.361816 0.288443 -0.086959
v -0.377513 0.277332 -0.062412
v -0.375237 0.282391 -0.064923
v -0.383437 0.278139 -0.074160
v -0.384082 0.273927 -0.069811
v -0.375108 0.278579 -0.052304
v -0.372235 0.283947 -0.052304
v -0.375237 0.282391 -0.064923
v -0.377513 0.277332 -0.062412
v -0.375108 0.278579 -0.052304
v -0.377513 0.277332 -0.062412
v -0.391221 0.265737 -0.052304
v -0.377513 0.277332 -0.062412
v -0.384082 0.273927 -0.069811
v -0.391221 0.265737 -0.052304
v -0.393055 0.269275 -0.032089
v -0.384082 0.273927 -0.034797
v -0.391221 0.265737 -0.052304
v -0.393055 0.269275 -0.032089
v -0.391221 0.265737 -0.052304
v -0.402029 0.264622 -0.034797
v -0.408598 0.261217 -0.042196
v -0.402029 0.264622 -0.034797
v -0.391221 0.265737 -0.052304
v -0.411002 0.259970 -0.052304
v -0.408598 0.261217 -0.042196
v -0.391221 0.265737 -0.052304
v -0.408598 0.261217 -0.062412
v -0.411002 0.259970 -0.052304
v -0.391221 0.265737 -0.052304
v -0.402029 0.264622 -0.069811
v -0.408598 0.261217 -0.062412
v -0.391221 0.265737 -0.052304
v -0.393055 0.269274 -0.072519
v -0.402029 0.264622 -0.069811
v -0.391221 0.265737 -0.052304
v -0.391221 0.265737 -0.052304
v -0.384082 0.273927 -0.069811
v -0.393055 0.269274 -0.072519
v -0.377513 0.277332 -0.042196
v -0.375108 0.278579 -0.052304
v -0.391221 0.265737 -0.052304
v -0.384082 0.273927 -0.034797
v -0.377513 0.277332 -0.042196
v -0.391221 0.265737 -0.052304
v -0.384082 0.273927 -0.034797
v -0.383437 0.278139 -0.030448
v -0.375237 0.282391 -0.039686
v -0.377513 0.277332 -0.042196
v -0.384082 0.273927 -0.034797
v -0.393055 0.269275 -0.032089
v -0.394640 0.272332 -0.027067
v -0.383437 0.278139 -0.030448
v -0.375108 0.278579 -0.052304
v -0.377513 0.277332 -0.042196
v -0.375237 0.282391 -0.039686
v -0.372235 0.283947 -0.052304
v -0.393055 0.269274 -0.072519
v -0.384082 0.273927 -0.069811
v -0.383437 0.278139 -0.074160
v -0.394640 0.272332 -0.077541
v -0.393055 0.269274 -0.072519
v -0.394640 0.272332 -0.077541
v -0.405842 0.266524 -0.074160
v -0.402029 0.264622 -0.069811
v -0.402029 0.264622 -0.069811
v -0.405842 0.266524 -0.074160
v -0.414043 0.262272 -0.064923
v -0.408598 0.261217 -0.062412
v -0.411002 0.259970 -0.052304
v -0.408598 0.261217 -0.062412
v -0.414043 0.262272 -0.064923
v -0.417045 0.260716 -0.052304
v -0.411002 0.259970 -0.052304
v -0.417045 0.260716 -0.052304
v -0.414043 0.262272 -0.039686
v -0.408598 0.261217 -0.042196
v -0.408598 0.261217 -0.042196
v -0.414043 0.262272 -0.039686
v -0.405842 0.266524 -0.030448
v -0.402029 0.264622 -0.034797
v -0.413787 0.263724 -0.031344
v -0.408337 0.266550 -0.026633
v -0.405842 0.266524 -0.030448
v -0.414043 0.262272 -0.039686
v -0.417969 0.261556 -0.037483
v -0.417969 0.261556 -0.037483
v -0.422843 0.259030 -0.014968
v -0.421592 0.259678 -0.012859
v -0.413787 0.263724 -0.031344
v -0.420598 0.260193 -0.044632
v -0.423399 0.258741 -0.018119
v -0.422843 0.259030 -0.014968
v -0.417969 0.261556 -0.037483
v -0.426724 0.254792 -0.017649
v -0.425922 0.255208 -0.013107
v -0.422843 0.259030 -0.014968
v -0.423399 0.258741 -0.018119
v -0.425922 0.255208 -0.013107
v -0.423735 0.256342 -0.009421
v -0.421592 0.259678 -0.012859
v -0.422843 0.259030 -0.014968
v -0.423735 0.256342 -0.009421
v -0.420463 0.258038 -0.006958
v -0.419720 0.260649 -0.011450
v -0.421592 0.259678 -0.012859
v -0.413787 0.263724 -0.031344
v -0.421592 0.259678 -0.012859
v -0.419720 0.260649 -0.011450
v -0.408337 0.266550 -0.026633
v -0.420463 0.258038 -0.006958
v -0.416430 0.260129 -0.006054
v -0.416922 0.262099 -0.010824
v -0.419720 0.260649 -0.011450
v -0.408337 0.266550 -0.026633
v -0.419720 0.260649 -0.011450
v -0.416922 0.262099 -0.010824
v -0.401990 0.269840 -0.023672
v -0.393055 0.269275 -0.032089
v -0.402029 0.264622 -0.034797
v -0.405842 0.266524 -0.030448
v -0.394640 0.272332 -0.027067
vn -0.0000 -0.0000 -1.0000
vn -0.0000 0.0003 -1.0000
vn 0.3052 0.2405 -0.9214
vn 0.3398 0.1761 -0.9239
vn -0.3246 0.6260 -0.7090
vn -0.3034 0.6327 -0.7125
vn -0.0612 0.7265 -0.6844
vn 0.5928 0.3890 -0.7052
vn 0.3052 0.2406 -0.9214
vn 0.1622 0.8338 -0.5277
vn 0.3398 0.1761 -0.9238
vn 0.3053 0.2405 -0.9214
vn 0.5928 0.3889 -0.7052
vn 0.6278 0.3254 -0.7071
vn 0.7845 0.4890 -0.3813
vn 0.1623 0.8338 -0.5277
vn 0.2978 0.9126 -0.2800
vn 0.6278 0.3255 -0.7070
vn 0.8202 0.4252 -0.3828
vn 0.8202 0.4252 -0.3827
vn 0.8877 0.4604 -0.0001
vn 0.8878 0.4603 -0.0001
vn 0.8878 0.4603 -0.0000
vn 0.8876 0.4606 -0.0000
vn 0.8877 0.4605 0.0001
vn 0.8877 0.4604 -0.0000
vn 0.3041 0.9526 -0.0000
vn 0.3079 0.9513 0.0164
vn 0.8877 0.4605 -0.0001
vn 0.3079 0.9513 -0.0164
vn -0.4601 0.8879 -0.0000
vn -0.4600 0.8879 -0.0000
vn 0.3041 0.9527 -0.0000
vn -0.4602 0.8878 -0.0000
vn -0.4599 0.8880 -0.0000
vn -0.4605 0.8877 -0.0000
vn -0.4604 0.8877 -0.0000
vn -0.7792 0.6268 -0.0000
vn -0.7312 0.6517 -0.2016
vn -0.4604 0.8877 -0.0001
vn -0.4604 0.8877 0.0001
vn -0.7313 0.6516 0.2016
vn -0.4603 0.8878 -0.0000
vn -0.4599 0.8880 -0.0001
vn -0.6002 0.7196 -0.3493
vn 0.1622 0.8338 0.5277
vn 0.2978 0.9127 0.2800
vn -0.4601 0.8879 0.0002
vn 0.2978 0.9126 0.2800
vn -0.0614 0.7265 0.6844
vn -0.4602 0.8878 0.0002
vn -0.4603 0.8878 0.0001
vn -0.3034 0.6327 0.7125
vn -0.0613 0.7265 0.6844
vn -0.4603 0.8878 0.0002
vn -0.4603 0.8878 -0.0002
vn -0.4212 0.8124 -0.4033
vn -0.4603 0.8878 0.0003
vn -0.4603 0.8878 -0.0001
vn -0.4602 0.8878 -0.0002
vn -0.4603 0.8878 -0.0003
vn -0.2421 0.9052 -0.3493
vn -0.4601 0.8879 -0.0002
vn -0.4604 0.8877 0.0004
vn -0.3246 0.6261 0.7090
vn -0.3422 0.6126 0.7125
vn -0.0000 0.0003 1.0000
vn -0.3245 0.6261 0.7090
vn -0.0000 0.0002 1.0000
vn -0.0002 0.0001 1.0000
vn -0.0001 0.0002 1.0000
vn -0.3246 0.6260 0.7090
vn -0.0000 -0.0000 1.0000
vn 0.3397 0.1761 0.9239
vn 0.3049 0.2404 0.9215
vn 0.0001 -0.0000 1.0000
vn 0.6277 0.3255 0.7071
vn 0.5928 0.3888 0.7053
vn 0.3050 0.2404 0.9215
vn 0.3398 0.1761 0.9238
vn 0.3049 0.2405 0.9215
vn 0.5927 0.3889 0.7053
vn -0.3033 0.6327 0.7125
vn 0.8202 0.4252 0.3828
vn 0.7845 0.4890 0.3813
vn 0.5928 0.3889 0.7052
vn 0.6278 0.3255 0.7070
vn 0.7845 0.4891 0.3813
vn 0.8877 0.4604 0.0001
vn 0.8878 0.4603 0.0001
vn 0.8202 0.4252 0.3827
vn -0.0001 -0.0000 1.0000
vn -0.3724 -0.1108 0.9214
vn -0.3396 -0.1761 0.9239
vn -0.3397 -0.1761 0.9239
vn -0.3725 -0.1108 0.9214
vn -0.6595 -0.2603 0.7052
vn -0.6278 -0.3254 0.7071
vn -0.5584 0.4688 0.6844
vn -0.6595 -0.2602 0.7052
vn -0.7748 0.3480 0.5278
vn -0.8518 -0.3592 0.3814
vn -0.7749 0.3480 0.5278
vn -0.9174 0.2827 0.2800
vn -0.6278 -0.3255 0.7070
vn -0.8202 -0.4252 0.3827
vn -0.8879 -0.4600 0.0001
vn -0.9549 0.2966 0.0164
vn -0.8202 -0.4252 0.3826
vn -0.8878 -0.4603 0.0001
vn -0.8878 -0.4603 -0.0000
vn -0.8879 -0.4600 -0.0001
vn -0.8879 -0.4601 -0.0001
vn -0.9538 0.3004 -0.0000
vn -0.9549 0.2966 -0.0164
vn -0.8879 -0.4601 -0.0000
vn -0.4605 0.8876 -0.0000
vn -0.9538 0.3005 -0.0000
vn -0.4606 0.8876 -0.0000
vn -0.4601 0.8878 -0.0000
vn -0.4605 0.8877 -0.0001
vn -0.0632 0.9980 -0.0000
vn -0.1111 0.9731 0.2016
vn -0.4601 0.8879 0.0001
vn -0.0631 0.9980 -0.0000
vn -0.4600 0.8879 -0.0001
vn -0.1111 0.9731 -0.2017
vn -0.4606 0.8876 0.0001
vn -0.4603 0.8877 -0.0000
vn -0.2421 0.9052 0.3493
vn -0.4602 0.8878 0.0001
vn -0.4603 0.8877 -0.0002
vn -0.4601 0.8879 -0.0001
vn -0.7748 0.3480 -0.5277
vn -0.9174 0.2827 -0.2800
vn -0.4605 0.8877 -0.0002
vn -0.5584 0.4688 -0.6844
vn -0.4604 0.8877 -0.0002
vn -0.3422 0.6126 -0.7125
vn -0.4602 0.8878 -0.0001
vn -0.4602 0.8878 0.0003
vn -0.4212 0.8124 0.4033
vn -0.4602 0.8878 -0.0003
vn -0.6001 0.7196 0.3493
vn -0.3246 0.6261 -0.7090
vn -0.3245 0.6261 -0.7090
vn -0.0002 0.0001 -1.0000
vn -0.3421 0.6126 -0.7125
vn -0.3246 0.6260 -0.7091
vn -0.0001 0.0002 -1.0000
vn -0.3722 -0.1105 -0.9215
vn -0.3397 -0.1761 -0.9239
vn -0.3722 -0.1106 -0.9216
vn -0.0001 -0.0000 -1.0000
vn -0.6277 -0.3255 -0.7071
vn -0.6594 -0.2603 -0.7053
vn -0.3723 -0.1106 -0.9215
vn -0.8202 -0.4252 -0.3828
vn -0.8517 -0.3592 -0.3814
vn -0.6278 -0.3255 -0.7070
vn -0.6594 -0.2602 -0.7053
vn -0.8518 -0.3592 -0.3814
vn -0.3722 -0.1106 -0.9215
vn -0.7749 0.3480 -0.5277
vn -0.8878 -0.4603 -0.0001
vn -0.8202 -0.4252 -0.3827
vn -0.4601 0.8878 0.0001
vn -0.4601 0.8879 -0.0004
vn -0.6002 0.7196 0.3493
vn -0.4599 0.8880 0.0001
vn 0.2977 0.9127 -0.2800
vn 0.2978 0.9127 -0.2800
vn -0.6995 0.6930 0.1744
vn -0.6002 0.7195 0.3493
vn -0.5862 0.7517 0.3022
vn -0.7410 0.6715 -0.0000
vn -0.7313 0.6515 0.2016
vn -0.5862 0.7517 0.3021
vn -0.4313 0.8320 -0.3488
vn -0.5862 0.7517 -0.3021
vn -0.4313 0.8321 -0.3488
vn -0.2765 0.9123 -0.3021
vn -0.1632 0.9711 -0.1744
vn -0.1218 0.9926 -0.0000
vn -0.1632 0.9711 0.1744
vn -0.2765 0.9123 0.3021
vn -0.4314 0.8320 0.3488
vn -0.5862 0.7518 0.3021
vn -0.6995 0.6930 -0.1744
vn -0.4313 0.8320 -0.3489
vn -0.2765 0.9123 0.3022
vn -0.2764 0.9123 0.3021
vn -0.2420 0.9052 0.3493
vn -0.1217 0.9926 -0.0000
vn -0.1631 0.9711 0.1744
vn -0.1111 0.9732 0.2016
vn -0.0630 0.9980 -0.0000
vn -0.1111 0.9731 -0.2018
vn -0.4606 0.8876 -0.0001
vn -0.4600 0.8879 -0.0002
vn -0.7748 0.3480 0.5277
vn -0.7749 0.3480 0.5277
vn -0.4604 0.8877 0.0003
vn -0.4602 0.8878 -0.0004
vt 0.730598 0.233832
vt 0.742936 0.233832
vt 0.742936 0.219292
vt 0.730598 0.219292
vt 0.742936 0.216381
vt 0.730598 0.216381
vt 0.745933 0.233832
vt 0.745933 0.219292
vt 0.745933 0.216381
vt 0.742936 0.213508
vt 0.745933 0.213508
vt 0.730598 0.213508
vt 0.742936 0.210636
vt 0.745933 0.210636
vt 0.730598 0.210636
vt 0.742936 0.207725
vt 0.730598 0.207725
vt 0.742936 0.187568
vt 0.730598 0.187568
vt 0.742936 0.167410
vt 0.730598 0.167410
vt 0.745933 0.187568
vt 0.745933 0.167410
vt 0.745933 0.207725
vt 0.951658 0.258369
vt 0.948639 0.258676
vt 0.948634 0.278624
vt 0.951651 0.278624
vt 0.951658 0.298879
vt 0.948639 0.298572
vt 0.947382 0.278624
vt 0.946787 0.274145
vt 0.946787 0.283102
vt 0.944732 0.278624
vt 0.942759 0.285951
vt 0.945058 0.287277
vt 0.945059 0.269970
vt 0.942759 0.271296
vt 0.948272 0.300394
vt 0.937405 0.291332
vt 0.938741 0.293622
vt 0.942311 0.290862
vt 0.947464 0.301608
vt 0.949651 0.303770
vt 0.951112 0.301573
vt 0.947470 0.305258
vt 0.946261 0.302429
vt 0.944780 0.305834
vt 0.944445 0.302815
vt 0.934571 0.295373
vt 0.930080 0.293330
vt 0.930090 0.295987
vt 0.930130 0.302923
vt 0.925598 0.295407
vt 0.922729 0.291378
vt 0.921404 0.293687
vt 0.915759 0.302984
vt 0.930149 0.305954
vt 0.915456 0.306036
vt 0.742936 0.155844
vt 0.745933 0.155844
vt 0.745933 0.141304
vt 0.742936 0.141304
vt 0.742936 0.126764
vt 0.745933 0.126764
vt 0.730598 0.141304
vt 0.730598 0.126764
vt 0.730598 0.155844
vt 0.730598 0.158755
vt 0.742936 0.158755
vt 0.730598 0.161627
vt 0.742936 0.161627
vt 0.745933 0.161627
vt 0.745933 0.158755
vt 0.730598 0.164500
vt 0.742936 0.164500
vt 0.745933 0.164500
vt 0.742936 0.123853
vt 0.730598 0.123853
vt 0.742936 0.120980
vt 0.730598 0.120980
vt 0.745933 0.123853
vt 0.745933 0.120980
vt 0.742936 0.303164
vt 0.742936 0.306036
vt 0.745933 0.306036
vt 0.745933 0.303164
vt 0.730598 0.306036
vt 0.730598 0.303164
vt 0.742936 0.300253
vt 0.745933 0.300253
vt 0.730598 0.300253
vt 0.742936 0.280096
vt 0.730598 0.280096
vt 0.742936 0.259938
vt 0.730598 0.259938
vt 0.745933 0.280096
vt 0.745933 0.259938
vt 0.908439 0.299068
vt 0.911483 0.298741
vt 0.911398 0.278638
vt 0.908356 0.278639
vt 0.908429 0.258200
vt 0.911474 0.258526
vt 0.912664 0.278638
vt 0.913271 0.283148
vt 0.913271 0.274126
vt 0.915338 0.278638
vt 0.917329 0.271265
vt 0.915021 0.269925
vt 0.915022 0.287346
vt 0.917327 0.286006
vt 0.911860 0.256692
vt 0.922728 0.265883
vt 0.921402 0.263575
vt 0.917798 0.266330
vt 0.912683 0.255469
vt 0.910488 0.253260
vt 0.908999 0.255478
vt 0.912715 0.251781
vt 0.913913 0.254653
vt 0.915446 0.251224
vt 0.915750 0.254278
vt 0.925597 0.261853
vt 0.930082 0.263931
vt 0.930091 0.261272
vt 0.930127 0.254332
vt 0.934573 0.261881
vt 0.937411 0.265916
vt 0.938744 0.263628
vt 0.944444 0.254434
vt 0.930145 0.251300
vt 0.944778 0.251414
vt 0.742936 0.248372
vt 0.745933 0.248372
vt 0.742936 0.251283
vt 0.745933 0.251283
vt 0.730598 0.251283
vt 0.730598 0.248372
vt 0.730598 0.254155
vt 0.742936 0.254155
vt 0.730598 0.257028
vt 0.742936 0.257028
vt 0.745933 0.257028
vt 0.745933 0.254155
vt 0.947469 0.251990
vt 0.946260 0.254819
vt 0.949650 0.253478
vt 0.947464 0.255641
vt 0.942313 0.266387
vt 0.948272 0.256855
vt 0.951112 0.255675
vt 0.939763 0.273022
vt 0.935670 0.268910
vt 0.941270 0.278623
vt 0.930053 0.278626
vt 0.930067 0.289858
vt 0.935676 0.288334
vt 0.924444 0.288358
vt 0.920325 0.284247
vt 0.918818 0.278623
vt 0.920334 0.273008
vt 0.924444 0.268900
vt 0.930059 0.267400
vt 0.939764 0.284224
vt 0.917800 0.290936
vt 0.911869 0.300573
vt 0.912693 0.301795
vt 0.909011 0.301788
vt 0.910500 0.304004
vt 0.912727 0.305481
vt 0.913922 0.302610
s 1
f 1/1/1 2/2/1 3/3/1
f 1/1/1 3/3/1 4/4/1
f 5/4/1 6/3/2 7/5/3
f 5/4/1 7/5/3 8/6/4
f 9/3/2 10/2/2 11/7/5
f 9/3/2 11/7/5 12/8/6
f 13/5/3 14/3/2 15/8/6
f 13/5/3 15/8/6 16/9/7
f 17/10/8 18/5/9 19/9/7
f 17/10/8 19/9/7 20/11/10
f 21/6/11 22/5/12 23/10/13
f 21/6/11 23/10/13 24/12/14
f 25/13/15 26/10/8 27/11/16
f 25/13/15 27/11/16 28/14/17
f 29/12/18 30/10/13 31/13/15
f 29/12/18 31/13/15 32/15/19
f 33/15/20 34/13/15 35/16/21
f 33/15/20 35/16/21 36/17/22
f 37/17/23 38/16/23 39/18/24
f 37/17/23 39/18/24 40/19/23
f 41/19/23 42/18/23 43/20/23
f 41/19/23 43/20/23 44/21/23
f 45/20/25 46/18/26 47/22/27
f 45/20/25 47/22/27 48/23/28
f 49/16/29 50/24/30 51/22/27
f 49/16/29 51/22/27 52/18/26
f 53/25/30 54/26/31 55/27/32
f 53/25/30 55/27/32 56/28/33
f 57/29/28 58/28/33 59/27/32
f 57/29/28 59/27/32 60/30/32
f 61/31/34 62/27/34 63/26/34
f 61/31/34 63/26/34 64/32/34
f 65/33/34 66/30/35 67/27/34
f 65/33/34 67/27/34 68/31/34
f 72/33/36 73/31/37 69/34/38
f 69/34/38 70/35/39 71/36/40
f 71/36/40 72/33/36 69/34/38
f 77/34/38 78/31/36 74/32/37
f 74/32/37 75/37/41 76/38/42
f 76/38/42 77/34/38 74/32/37
f 79/36/43 80/39/44 81/30/34
f 79/36/43 81/30/34 82/33/43
f 86/40/45 87/41/40 83/42/40
f 83/42/40 84/36/40 85/35/39
f 85/35/39 86/40/45 83/42/40
f 88/42/43 89/43/43 90/39/43
f 88/42/43 90/39/43 91/36/43
f 92/44/46 93/45/47 94/39/32
f 92/44/46 94/39/32 95/43/48
f 96/45/49 97/29/28 98/30/31
f 96/45/49 98/30/31 99/39/32
f 100/46/50 101/44/46 102/43/48
f 100/46/50 102/43/48 103/47/51
f 104/41/34 105/47/41 106/43/52
f 104/41/34 106/43/52 107/42/34
f 108/48/53 109/46/54 110/47/51
f 108/48/53 110/47/51 111/49/55
f 112/50/43 113/49/55 114/47/51
f 112/50/43 114/47/51 115/41/52
f 119/50/56 120/41/40 116/40/45
f 116/40/45 117/51/57 118/52/56
f 118/52/56 119/50/56 116/40/45
f 121/52/43 122/53/58 123/49/43
f 121/52/43 123/49/43 124/50/59
f 128/54/60 129/52/61 125/51/57
f 125/51/57 126/55/62 127/56/63
f 127/56/63 128/54/60 125/51/57
f 130/54/43 131/57/34 132/53/58
f 130/54/43 132/53/58 133/52/43
f 134/48/53 135/49/55 136/53/64
f 134/48/53 136/53/64 137/58/65
f 138/59/66 139/58/65 140/53/58
f 138/59/66 140/53/58 141/57/55
f 142/60/67 143/61/53 144/62/68
f 142/60/67 144/62/68 145/63/69
f 146/64/70 147/63/71 148/62/72
f 146/64/70 148/62/72 149/65/66
f 150/66/73 151/63/73 152/64/73
f 150/66/73 152/64/73 153/67/73
f 154/68/73 155/60/73 156/63/73
f 154/68/73 156/63/73 157/66/73
f 158/69/74 159/70/75 160/60/67
f 158/69/74 160/60/67 161/68/76
f 162/71/77 163/72/78 164/70/79
f 162/71/77 164/70/79 165/69/80
f 166/70/81 167/72/82 168/73/46
f 166/70/81 168/73/46 169/74/54
f 170/60/67 171/70/75 172/74/54
f 170/60/67 172/74/54 173/61/83
f 174/75/84 175/76/85 176/72/86
f 174/75/84 176/72/86 177/71/87
f 178/72/86 179/76/88 180/77/49
f 178/72/86 180/77/49 181/73/46
f 182/76/88 183/20/89 184/23/28
f 182/76/88 184/23/28 185/77/47
f 186/21/90 187/20/89 188/76/85
f 186/21/90 188/76/85 189/75/91
f 190/67/92 191/64/70 192/78/93
f 190/67/92 192/78/93 193/79/94
f 194/79/95 195/78/96 196/80/97
f 194/79/95 196/80/97 197/81/98
f 198/78/96 199/64/70 200/65/66
f 198/78/96 200/65/66 201/82/99
f 202/80/100 203/78/96 204/82/99
f 202/80/100 204/82/99 205/83/101
f 206/84/102 207/85/97 208/86/103
f 206/84/102 208/86/103 209/87/104
f 210/88/105 211/85/97 212/84/102
f 210/88/105 212/84/102 213/89/106
f 214/90/107 215/84/102 216/87/104
f 214/90/107 216/87/104 217/91/108
f 218/89/109 219/84/102 220/90/107
f 218/89/109 220/90/107 221/92/110
f 222/92/111 223/90/111 224/93/111
f 222/92/111 224/93/111 225/94/111
f 226/94/111 227/93/111 228/95/112
f 226/94/111 228/95/112 229/96/111
f 230/95/112 231/93/113 232/97/114
f 230/95/112 232/97/114 233/98/115
f 234/90/107 235/91/108 236/97/114
f 234/90/107 236/97/114 237/93/116
f 238/99/108 239/100/37 240/101/117
f 238/99/108 240/101/117 241/102/118
f 242/103/115 243/102/118 244/101/117
f 242/103/115 244/101/117 245/104/37
f 246/105/31 247/101/119 248/100/117
f 246/105/31 248/100/117 249/106/120
f 250/107/43 251/104/34 252/101/121
f 250/107/43 252/101/121 253/105/34
f 257/107/31 258/105/31 254/108/122
f 254/108/122 255/109/123 256/110/124
f 256/110/124 257/107/31 254/108/122
f 262/108/125 263/105/32 259/106/31
f 259/106/31 260/111/126 261/112/127
f 261/112/127 262/108/125 259/106/31
f 264/110/43 265/113/128 266/104/129
f 264/110/43 266/104/129 267/107/32
f 271/114/130 272/115/131 268/116/131
f 268/116/131 269/110/124 270/109/123
f 270/109/123 271/114/130 268/116/131
f 273/116/34 274/117/132 275/113/133
f 273/116/34 275/113/133 276/110/34
f 277/118/134 278/119/135 279/113/37
f 277/118/134 279/113/37 280/117/136
f 281/119/135 282/103/115 283/104/37
f 281/119/135 283/104/37 284/113/37
f 285/120/137 286/118/134 287/117/138
f 285/120/137 287/117/138 288/121/61
f 289/115/43 290/121/61 291/117/41
f 289/115/43 291/117/41 292/116/43
f 293/122/139 294/120/137 295/121/61
f 293/122/139 295/121/61 296/123/60
f 297/124/34 298/123/140 299/121/140
f 297/124/34 299/121/140 300/115/141
f 304/125/142 305/126/58 301/124/141
f 301/124/141 302/115/131 303/114/130
f 303/114/130 304/125/142 301/124/141
f 306/126/58 307/127/61 308/123/143
f 306/126/58 308/123/143 309/124/43
f 313/128/55 314/126/58 310/125/142
f 310/125/142 311/129/144 312/130/52
f 312/130/52 313/128/55 310/125/142
f 315/128/43 316/131/143 317/127/43
f 315/128/43 317/127/43 318/126/43
f 319/122/139 320/123/60 321/127/56
f 319/122/139 321/127/56 322/132/145
f 323/133/6 324/132/146 325/127/56
f 323/133/6 325/127/56 326/131/143
f 327/134/147 328/135/148 329/7/149
f 327/134/147 329/7/149 330/2/150
f 331/134/147 332/136/151 333/137/137
f 331/134/147 333/137/137 334/135/139
f 335/138/152 336/136/153 337/134/147
f 335/138/152 337/134/147 338/139/154
f 339/139/1 340/134/1 341/2/1
f 339/139/1 341/2/1 342/1/1
f 343/140/155 344/141/156 345/136/157
f 343/140/155 345/136/157 346/138/152
f 347/142/158 348/143/159 349/141/156
f 347/142/158 349/141/156 350/140/160
f 351/141/161 352/143/162 353/144/135
f 351/141/161 353/144/135 354/145/134
f 355/136/163 356/141/161 357/145/164
f 355/136/163 357/145/164 358/137/137
f 359/143/162 360/95/112 361/98/115
f 359/143/162 361/98/115 362/144/135
f 363/96/165 364/95/112 365/143/162
f 363/96/165 365/143/162 366/142/166
f 367/146/7 368/133/6 369/131/143
f 367/146/7 369/131/143 370/147/143
f 371/130/43 372/147/167 373/131/131
f 371/130/43 373/131/131 374/128/58
f 375/148/10 376/146/7 377/147/143
f 375/148/10 377/147/143 378/149/126
f 379/150/34 380/149/37 381/147/168
f 379/150/34 381/147/168 382/130/34
f 386/38/42 387/37/41 383/150/41
f 383/150/41 384/130/52 385/129/169
f 385/129/169 386/38/42 383/150/41
f 388/37/43 389/151/43 390/149/126
f 388/37/43 390/149/126 391/150/43
f 392/32/43 393/26/31 394/151/170
f 392/32/43 394/151/170 395/37/43
f 396/25/30 397/152/171 398/151/32
f 396/25/30 398/151/32 399/26/31
f 400/152/172 401/148/10 402/149/126
f 400/152/172 402/149/126 403/151/32
f 404/16/21 405/13/15 406/14/17
f 404/16/21 406/14/17 407/24/30
f 408/153/173 409/38/42 410/129/174
f 408/153/173 410/129/174 411/154/175
f 412/155/176 413/34/38 414/38/177
f 412/155/176 414/38/177 415/153/173
f 416/155/176 417/153/173 418/156/43
f 419/153/173 420/154/178 421/156/43
f 422/157/179 423/158/180 424/156/43
f 425/157/181 426/156/43 427/159/182
f 428/160/183 429/159/182 430/156/43
f 431/161/184 432/160/183 433/156/43
f 434/162/185 435/161/184 436/156/34
f 437/163/186 438/162/185 439/156/43
f 440/164/187 441/163/186 442/156/43
f 443/156/52 444/154/188 445/164/187
f 446/165/189 447/155/176 448/156/43
f 449/158/180 450/165/189 451/156/43
f 452/158/180 453/40/45 454/35/39
f 452/158/180 454/35/39 455/165/189
f 456/158/180 457/157/190 458/51/57
f 456/158/180 458/51/57 459/40/45
f 460/155/176 461/165/189 462/35/39
f 460/155/176 462/35/39 463/34/38
f 464/164/187 465/154/175 466/129/169
f 464/164/187 466/129/169 467/125/142
f 468/164/187 469/125/142 470/114/130
f 468/164/187 470/114/130 471/163/191
f 472/163/192 473/114/193 474/109/123
f 472/163/192 474/109/123 475/162/185
f 476/161/194 477/162/195 478/109/196
f 476/161/194 478/109/196 479/108/197
f 480/161/194 481/108/125 482/112/127
f 480/161/194 482/112/127 483/160/183
f 484/160/183 485/112/198 486/55/62
f 484/160/183 486/55/62 487/159/182
f 491/112/127 492/111/126 488/166/140
f 488/166/140 489/56/133 490/55/62
f 490/55/62 491/112/127 488/166/140
f 493/111/34 494/167/43 495/168/41
f 493/111/34 495/168/41 496/166/34
f 497/106/32 498/100/37 499/167/199
f 497/106/32 499/167/199 500/111/200
f 501/99/108 502/169/104 503/167/37
f 501/99/108 503/167/37 504/100/37
f 505/169/104 506/170/201 507/168/41
f 505/169/104 507/168/41 508/167/37
f 509/170/202 510/171/99 511/172/58
f 509/170/202 511/172/58 512/168/41
f 513/166/59 514/168/40 515/172/55
f 513/166/59 515/172/55 516/56/59
f 517/171/99 518/59/66 519/57/55
f 517/171/99 519/57/55 520/172/58
f 521/56/34 522/172/124 523/57/203
f 521/56/34 523/57/203 524/54/204
f 525/157/190 526/159/182 527/55/62
f 525/157/190 527/55/62 528/51/57
