# Blender 5.2.0 LTS
# www.blender.org
mtllib joystick_bottom.mtl
o joystick_bottom
v 0.078623 0.202663 0.115685
v 0.079898 0.228532 0.117687
v 0.055761 0.228532 0.130861
v 0.054832 0.201470 0.128433
v 0.054792 0.255327 0.128578
v 0.052588 0.281120 0.121256
v 0.027062 0.283364 0.128433
v 0.028197 0.256508 0.136663
v 0.075279 0.278627 0.109807
v 0.071131 0.299663 0.100572
v 0.050095 0.303811 0.109807
v 0.052588 0.281120 0.121256
v 0.054832 0.201470 0.128433
v 0.055761 0.228532 0.130861
v 0.028725 0.228532 0.139316
v 0.028218 0.200314 0.136534
v 0.028197 0.256508 0.136663
v 0.027062 0.283364 0.128433
v -0.000000 0.284293 0.130861
v -0.000000 0.256995 0.139445
v 0.052588 0.281120 0.121256
v 0.050095 0.303811 0.109807
v 0.025869 0.307155 0.115685
v 0.027062 0.283364 0.128433
v 0.028218 0.200314 0.136534
v 0.028725 0.228532 0.139316
v -0.000000 0.228532 0.142246
v -0.000000 0.199807 0.139316
v -0.000000 0.256995 0.139445
v -0.000000 0.284293 0.130861
v -0.027062 0.283364 0.128433
v -0.028197 0.256508 0.136663
v 0.027062 0.283364 0.128433
v 0.025869 0.307155 0.115685
v -0.000000 0.308430 0.117687
v -0.000000 0.284293 0.130861
v -0.000000 0.199807 0.139316
v -0.000000 0.228532 0.142246
v -0.028725 0.228532 0.139316
v -0.028218 0.200314 0.136534
v -0.028197 0.256508 0.136663
v -0.027062 0.283364 0.128433
v -0.052588 0.281120 0.121256
v -0.054792 0.255327 0.128578
v -0.000000 0.284293 0.130861
v -0.000000 0.308430 0.117687
v -0.025869 0.307155 0.115685
v -0.027062 0.283364 0.128433
v -0.028218 0.200314 0.136534
v -0.028725 0.228532 0.139316
v -0.055760 0.228532 0.130861
v -0.054832 0.201470 0.128433
v -0.054792 0.255327 0.128578
v -0.052588 0.281120 0.121256
v -0.075279 0.278627 0.109807
v -0.078599 0.254001 0.115853
v -0.027062 0.283364 0.128433
v -0.025869 0.307155 0.115685
v -0.050095 0.303811 0.109807
v -0.052588 0.281120 0.121256
v -0.054832 0.201470 0.128433
v -0.055760 0.228532 0.130861
v -0.079898 0.228532 0.117687
v -0.078623 0.202663 0.115685
v 0.099068 0.253359 0.099068
v 0.094452 0.277437 0.094452
v 0.075279 0.278627 0.109807
v 0.078599 0.254001 0.115853
v -0.052588 0.281120 0.121256
v -0.050095 0.303811 0.109807
v -0.071131 0.299663 0.100572
v -0.075279 0.278627 0.109807
v 0.098977 0.203211 0.098977
v 0.100583 0.228532 0.100583
v 0.079898 0.228532 0.117687
v 0.078623 0.202663 0.115685
v -0.078599 0.254001 0.115853
v -0.075279 0.278627 0.109807
v -0.094452 0.277437 0.094452
v -0.099068 0.253359 0.099068
v 0.094452 0.277437 0.094452
v 0.088003 0.297414 0.088003
v 0.071131 0.299663 0.100572
v 0.075279 0.278627 0.109807
v 0.088003 0.297414 0.088003
v 0.082126 0.310658 0.082126
v 0.068882 0.316535 0.088003
v 0.071131 0.299663 0.100572
v 0.071131 0.299663 0.100572
v 0.068882 0.316535 0.088003
v 0.048905 0.322984 0.094452
v 0.050095 0.303811 0.109807
v 0.050095 0.303811 0.109807
v 0.048905 0.322984 0.094452
v 0.025321 0.327509 0.098977
v 0.025869 0.307155 0.115685
v 0.025869 0.307155 0.115685
v 0.025321 0.327509 0.098977
v -0.000000 0.329115 0.100583
v -0.000000 0.308430 0.117687
v -0.000000 0.308430 0.117687
v -0.000000 0.329115 0.100583
v -0.025320 0.327509 0.098977
v -0.025869 0.307155 0.115685
v -0.025869 0.307155 0.115685
v -0.025320 0.327509 0.098977
v -0.048905 0.322984 0.094452
v -0.050095 0.303811 0.109807
v -0.050095 0.303811 0.109807
v -0.048905 0.322984 0.094452
v -0.068882 0.316535 0.088003
v -0.071131 0.299663 0.100572
v -0.071131 0.299663 0.100572
v -0.068882 0.316535 0.088003
v -0.082126 0.310658 0.082126
v -0.088003 0.297414 0.088003
v -0.075279 0.278627 0.109807
v -0.071131 0.299663 0.100572
v -0.088003 0.297414 0.088003
v -0.094452 0.277437 0.094452
v -0.115853 0.254001 0.078599
v -0.109807 0.278627 0.075279
v -0.121256 0.281120 0.052588
v -0.128578 0.255327 0.054792
v -0.078623 0.202663 0.115685
v -0.079898 0.228532 0.117687
v -0.100583 0.228532 0.100583
v -0.098977 0.203211 0.098977
v -0.115685 0.202663 0.078623
v -0.117687 0.228532 0.079898
v -0.130861 0.228532 0.055761
v -0.128433 0.201470 0.054832
v -0.128578 0.255327 0.054792
v -0.121256 0.281120 0.052588
v -0.128433 0.283364 0.027062
v -0.136663 0.256508 0.028197
v -0.109807 0.278627 0.075279
v -0.100572 0.299663 0.071131
v -0.109807 0.303811 0.050095
v -0.121256 0.281120 0.052588
v -0.128433 0.201470 0.054832
v -0.130861 0.228532 0.055761
v -0.139315 0.228532 0.028725
v -0.136534 0.200314 0.028218
v -0.136663 0.256508 0.028197
v -0.128433 0.283364 0.027062
v -0.130861 0.284293 0.000000
v -0.139445 0.256995 0.000000
v -0.121256 0.281120 0.052588
v -0.109807 0.303811 0.050095
v -0.115685 0.307155 0.025869
v -0.128433 0.283364 0.027062
v -0.136534 0.200314 0.028218
v -0.139315 0.228532 0.028725
v -0.142246 0.228532 0.000000
v -0.139315 0.199807 0.000000
v -0.139445 0.256995 0.000000
v -0.130861 0.284293 0.000000
v -0.128433 0.283364 -0.027062
v -0.136663 0.256508 -0.028197
v -0.128433 0.283364 0.027062
v -0.115685 0.307155 0.025869
v -0.117687 0.308430 0.000000
v -0.130861 0.284293 0.000000
v -0.139315 0.199807 0.000000
v -0.142246 0.228532 0.000000
v -0.139315 0.228532 -0.028725
v -0.136534 0.200314 -0.028218
v -0.136663 0.256508 -0.028197
v -0.128433 0.283364 -0.027062
v -0.121256 0.281120 -0.052588
v -0.128578 0.255327 -0.054792
v -0.130861 0.284293 0.000000
v -0.117687 0.308430 0.000000
v -0.115685 0.307155 -0.025869
v -0.128433 0.283364 -0.027062
v -0.136534 0.200314 -0.028218
v -0.139315 0.228532 -0.028725
v -0.130861 0.228532 -0.055761
v -0.128433 0.201470 -0.054832
v -0.128578 0.255327 -0.054792
v -0.121256 0.281120 -0.052588
v -0.109807 0.278627 -0.075279
v -0.115853 0.254001 -0.078599
v -0.128433 0.283364 -0.027062
v -0.115685 0.307155 -0.025869
v -0.109807 0.303811 -0.050095
v -0.121256 0.281120 -0.052588
v -0.128433 0.201470 -0.054832
v -0.130861 0.228532 -0.055761
v -0.117687 0.228532 -0.079898
v -0.115685 0.202663 -0.078623
v -0.099068 0.253359 0.099068
v -0.115853 0.254001 0.078599
v -0.117687 0.228532 0.079898
v -0.100583 0.228532 0.100583
v -0.121256 0.281120 -0.052588
v -0.109807 0.303811 -0.050095
v -0.100572 0.299663 -0.071131
v -0.109807 0.278627 -0.075279
v -0.098977 0.203211 0.098977
v -0.100583 0.228532 0.100583
v -0.117687 0.228532 0.079898
v -0.115685 0.202663 0.078623
v -0.115853 0.254001 -0.078599
v -0.109807 0.278627 -0.075279
v -0.094452 0.277437 -0.094452
v -0.099068 0.253359 -0.099068
v -0.094452 0.277437 0.094452
v -0.088003 0.297414 0.088003
v -0.100572 0.299663 0.071131
v -0.109807 0.278627 0.075279
v -0.088003 0.297414 0.088003
v -0.082126 0.310658 0.082126
v -0.088003 0.316535 0.068882
v -0.100572 0.299663 0.071131
v -0.100572 0.299663 0.071131
v -0.088003 0.316535 0.068882
v -0.094452 0.322984 0.048905
v -0.109807 0.303811 0.050095
v -0.109807 0.303811 0.050095
v -0.094452 0.322984 0.048905
v -0.098977 0.327509 0.025321
v -0.115685 0.307155 0.025869
v -0.115685 0.307155 0.025869
v -0.098977 0.327509 0.025321
v -0.100583 0.329115 0.000000
v -0.117687 0.308430 0.000000
v -0.117687 0.308430 0.000000
v -0.100583 0.329115 0.000000
v -0.098977 0.327509 -0.025321
v -0.115685 0.307155 -0.025869
v -0.115685 0.307155 -0.025869
v -0.098977 0.327509 -0.025321
v -0.094452 0.322984 -0.048905
v -0.109807 0.303811 -0.050095
v -0.109807 0.303811 -0.050095
v -0.094452 0.322984 -0.048905
v -0.088003 0.316535 -0.068882
v -0.100572 0.299663 -0.071131
v -0.100572 0.299663 -0.071131
v -0.088003 0.316535 -0.068882
v -0.082126 0.310658 -0.082126
v -0.088003 0.297414 -0.088003
v -0.109807 0.278627 -0.075279
v -0.100572 0.299663 -0.071131
v -0.088003 0.297414 -0.088003
v -0.094452 0.277437 -0.094452
v -0.078599 0.254001 -0.115853
v -0.075279 0.278627 -0.109807
v -0.052588 0.281120 -0.121256
v -0.054792 0.255327 -0.128578
v -0.115685 0.202663 -0.078623
v -0.117687 0.228532 -0.079898
v -0.100583 0.228532 -0.100583
v -0.098977 0.203211 -0.098977
v -0.078623 0.202663 -0.115685
v -0.079898 0.228532 -0.117687
v -0.055760 0.228532 -0.130861
v -0.054832 0.201470 -0.128433
v -0.054792 0.255327 -0.128578
v -0.052588 0.281120 -0.121256
v -0.027062 0.283364 -0.128433
v -0.028197 0.256508 -0.136663
v -0.075279 0.278627 -0.109807
v -0.071131 0.299663 -0.100572
v -0.050095 0.303811 -0.109807
v -0.052588 0.281120 -0.121256
v -0.054832 0.201470 -0.128433
v -0.055760 0.228532 -0.130861
v -0.028725 0.228532 -0.139316
v -0.028218 0.200314 -0.136534
v -0.028197 0.256508 -0.136663
v -0.027062 0.283364 -0.128433
v -0.000000 0.284293 -0.130861
v -0.000000 0.256995 -0.139445
v -0.052588 0.281120 -0.121256
v -0.050095 0.303811 -0.109807
v -0.025869 0.307155 -0.115685
v -0.027062 0.283364 -0.128433
v -0.028218 0.200314 -0.136534
v -0.028725 0.228532 -0.139316
v -0.000000 0.228532 -0.142246
v -0.000000 0.199807 -0.139316
v -0.000000 0.256995 -0.139445
v -0.000000 0.284293 -0.130861
v 0.027062 0.283364 -0.128433
v 0.028197 0.256508 -0.136663
v -0.027062 0.283364 -0.128433
v -0.025869 0.307155 -0.115685
v -0.000000 0.308430 -0.117687
v -0.000000 0.284293 -0.130861
v -0.000000 0.199807 -0.139316
v -0.000000 0.228532 -0.142246
v 0.028725 0.228532 -0.139316
v 0.028218 0.200314 -0.136534
v 0.028197 0.256508 -0.136663
v 0.027062 0.283364 -0.128433
v 0.052588 0.281120 -0.121256
v 0.054792 0.255327 -0.128578
v -0.000000 0.284293 -0.130861
v -0.000000 0.308430 -0.117687
v 0.025869 0.307155 -0.115685
v 0.027062 0.283364 -0.128433
v 0.028218 0.200314 -0.136534
v 0.028725 0.228532 -0.139316
v 0.055761 0.228532 -0.130861
v 0.054832 0.201470 -0.128433
v 0.054792 0.255327 -0.128578
v 0.052588 0.281120 -0.121256
v 0.075279 0.278627 -0.109807
v 0.078599 0.254001 -0.115853
v 0.027062 0.283364 -0.128433
v 0.025869 0.307155 -0.115685
v 0.050095 0.303811 -0.109807
v 0.052588 0.281120 -0.121256
v 0.054832 0.201470 -0.128433
v 0.055761 0.228532 -0.130861
v 0.079898 0.228532 -0.117687
v 0.078623 0.202663 -0.115685
v -0.099068 0.253359 -0.099068
v -0.078599 0.254001 -0.115853
v -0.079898 0.228532 -0.117687
v -0.100583 0.228532 -0.100583
v 0.052588 0.281120 -0.121256
v 0.050095 0.303811 -0.109807
v 0.071131 0.299663 -0.100572
v 0.075279 0.278627 -0.109807
v -0.098977 0.203211 -0.098977
v -0.100583 0.228532 -0.100583
v -0.079898 0.228532 -0.117687
v -0.078623 0.202663 -0.115685
v 0.078599 0.254001 -0.115853
v 0.075279 0.278627 -0.109807
v 0.094452 0.277437 -0.094452
v 0.099068 0.253359 -0.099068
v -0.094452 0.277437 -0.094452
v -0.088003 0.297414 -0.088003
v -0.071131 0.299663 -0.100572
v -0.075279 0.278627 -0.109807
v -0.088003 0.297414 -0.088003
v -0.082126 0.310658 -0.082126
v -0.068882 0.316535 -0.088003
v -0.071131 0.299663 -0.100572
v -0.071131 0.299663 -0.100572
v -0.068882 0.316535 -0.088003
v -0.048905 0.322984 -0.094452
v -0.050095 0.303811 -0.109807
v -0.050095 0.303811 -0.109807
v -0.048905 0.322984 -0.094452
v -0.025320 0.327509 -0.098977
v -0.025869 0.307155 -0.115685
v -0.025869 0.307155 -0.115685
v -0.025320 0.327509 -0.098977
v -0.000000 0.329115 -0.100583
v -0.000000 0.308430 -0.117687
v -0.000000 0.308430 -0.117687
v -0.000000 0.329115 -0.100583
v 0.025321 0.327509 -0.098977
v 0.025869 0.307155 -0.115685
v 0.025869 0.307155 -0.115685
v 0.025321 0.327509 -0.098977
v 0.048905 0.322984 -0.094452
v 0.050095 0.303811 -0.109807
v 0.050095 0.303811 -0.109807
v 0.048905 0.322984 -0.094452
v 0.068882 0.316535 -0.088003
v 0.071131 0.299663 -0.100572
v 0.071131 0.299663 -0.100572
v 0.068882 0.316535 -0.088003
v 0.082126 0.310658 -0.082126
v 0.088003 0.297414 -0.088003
v 0.075279 0.278627 -0.109807
v 0.071131 0.299663 -0.100572
v 0.088003 0.297414 -0.088003
v 0.094452 0.277437 -0.094452
v 0.115853 0.254001 -0.078599
v 0.109807 0.278627 -0.075279
v 0.121256 0.281120 -0.052588
v 0.128578 0.255327 -0.054792
v 0.078623 0.202663 -0.115685
v 0.079898 0.228532 -0.117687
v 0.100583 0.228532 -0.100583
v 0.098977 0.203211 -0.098977
v 0.115685 0.202663 -0.078623
v 0.117687 0.228532 -0.079898
v 0.130861 0.228532 -0.055761
v 0.128433 0.201470 -0.054832
v 0.128578 0.255327 -0.054792
v 0.121256 0.281120 -0.052588
v 0.128433 0.283364 -0.027062
v 0.136663 0.256508 -0.028197
v 0.109807 0.278627 -0.075279
v 0.100572 0.299663 -0.071131
v 0.109807 0.303811 -0.050095
v 0.121256 0.281120 -0.052588
v 0.128433 0.201470 -0.054832
v 0.130861 0.228532 -0.055761
v 0.139316 0.228532 -0.028725
v 0.136534 0.200314 -0.028218
v 0.136663 0.256508 -0.028197
v 0.128433 0.283364 -0.027062
v 0.130861 0.284293 -0.000000
v 0.139445 0.256995 -0.000000
v 0.121256 0.281120 -0.052588
v 0.109807 0.303811 -0.050095
v 0.115685 0.307155 -0.025869
v 0.128433 0.283364 -0.027062
v 0.136534 0.200314 -0.028218
v 0.139316 0.228532 -0.028725
v 0.142246 0.228532 -0.000000
v 0.139316 0.199807 -0.000000
v 0.139445 0.256995 -0.000000
v 0.130861 0.284293 -0.000000
v 0.128433 0.283364 0.027062
v 0.136663 0.256508 0.028197
v 0.128433 0.283364 -0.027062
v 0.115685 0.307155 -0.025869
v 0.117687 0.308430 -0.000000
v 0.130861 0.284293 -0.000000
v 0.139316 0.199807 -0.000000
v 0.142246 0.228532 -0.000000
v 0.139316 0.228532 0.028725
v 0.136534 0.200314 0.028218
v 0.136663 0.256508 0.028197
v 0.128433 0.283364 0.027062
v 0.121256 0.281120 0.052588
v 0.128578 0.255327 0.054792
v 0.130861 0.284293 -0.000000
v 0.117687 0.308430 -0.000000
v 0.115685 0.307155 0.025869
v 0.128433 0.283364 0.027062
v 0.136534 0.200314 0.028218
v 0.139316 0.228532 0.028725
v 0.130861 0.228532 0.055761
v 0.128433 0.201470 0.054832
v 0.128578 0.255327 0.054792
v 0.121256 0.281120 0.052588
v 0.109807 0.278627 0.075279
v 0.115853 0.254001 0.078599
v 0.128433 0.283364 0.027062
v 0.115685 0.307155 0.025869
v 0.109807 0.303811 0.050095
v 0.121256 0.281120 0.052588
v 0.128433 0.201470 0.054832
v 0.130861 0.228532 0.055761
v 0.117687 0.228532 0.079898
v 0.115685 0.202663 0.078623
v 0.099068 0.253359 -0.099068
v 0.115853 0.254001 -0.078599
v 0.117687 0.228532 -0.079898
v 0.100583 0.228532 -0.100583
v 0.121256 0.281120 0.052588
v 0.109807 0.303811 0.050095
v 0.100572 0.299663 0.071131
v 0.109807 0.278627 0.075279
v 0.098977 0.203211 -0.098977
v 0.100583 0.228532 -0.100583
v 0.117687 0.228532 -0.079898
v 0.115685 0.202663 -0.078623
v 0.115853 0.254001 0.078599
v 0.109807 0.278627 0.075279
v 0.094452 0.277437 0.094452
v 0.099068 0.253359 0.099068
v 0.094452 0.277437 -0.094452
v 0.088003 0.297414 -0.088003
v 0.100572 0.299663 -0.071131
v 0.109807 0.278627 -0.075279
v 0.088003 0.297414 -0.088003
v 0.082126 0.310658 -0.082126
v 0.088003 0.316535 -0.068882
v 0.100572 0.299663 -0.071131
v 0.100572 0.299663 -0.071131
v 0.088003 0.316535 -0.068882
v 0.094452 0.322984 -0.048905
v 0.109807 0.303811 -0.050095
v 0.109807 0.303811 -0.050095
v 0.094452 0.322984 -0.048905
v 0.098977 0.327509 -0.025321
v 0.115685 0.307155 -0.025869
v 0.115685 0.307155 -0.025869
v 0.098977 0.327509 -0.025321
v 0.100583 0.329115 -0.000000
v 0.117687 0.308430 -0.000000
v 0.117687 0.308430 -0.000000
v 0.100583 0.329115 -0.000000
v 0.098977 0.327509 0.025321
v 0.115685 0.307155 0.025869
v 0.115685 0.307155 0.025869
v 0.098977 0.327509 0.025321
v 0.094452 0.322984 0.048905
v 0.109807 0.303811 0.050095
v 0.109807 0.303811 0.050095
v 0.094452 0.322984 0.048905
v 0.088003 0.316535 0.068882
v 0.100572 0.299663 0.071131
v 0.100572 0.299663 0.071131
v 0.088003 0.316535 0.068882
v 0.082126 0.310658 0.082126
v 0.088003 0.297414 0.088003
v 0.109807 0.278627 0.075279
v 0.100572 0.299663 0.071131
v 0.088003 0.297414 0.088003
v 0.094452 0.277437 0.094452
v 0.115685 0.202663 0.078623
v 0.117687 0.228532 0.079898
v 0.100583 0.228532 0.100583
v 0.098977 0.203211 0.098977
v -0.071131 0.329104 -0.071131
v -0.075279 0.338339 -0.050095
v -0.052588 0.349788 -0.052588
v -0.050095 0.338339 -0.075279
v -0.075279 0.338339 0.050095
v -0.071131 0.329104 0.071131
v -0.050095 0.338339 0.075279
v -0.052588 0.349788 0.052588
v 0.050095 0.338339 -0.075279
v 0.052588 0.349788 -0.052588
v 0.075279 0.338339 -0.050095
v 0.071131 0.329104 -0.071131
v 0.052588 0.349788 0.052588
v 0.050095 0.338339 0.075279
v 0.071131 0.329104 0.071131
v 0.075279 0.338339 0.050095
v -0.082126 0.310658 -0.082126
v -0.088003 0.316535 -0.068882
v -0.071131 0.329104 -0.071131
v -0.068882 0.316535 -0.088003
v -0.088003 0.316535 -0.068882
v -0.094452 0.322984 -0.048905
v -0.075279 0.338339 -0.050095
v -0.071131 0.329104 -0.071131
v -0.094452 0.322984 -0.048905
v -0.098977 0.327509 -0.025321
v -0.078623 0.344217 -0.025869
v -0.075279 0.338339 -0.050095
v -0.098977 0.327509 -0.025321
v -0.100583 0.329115 0.000000
v -0.079898 0.346219 0.000000
v -0.078623 0.344217 -0.025869
v -0.100583 0.329115 0.000000
v -0.098977 0.327509 0.025321
v -0.078623 0.344217 0.025869
v -0.079898 0.346219 0.000000
v -0.098977 0.327509 0.025321
v -0.094452 0.322984 0.048905
v -0.075279 0.338339 0.050095
v -0.078623 0.344217 0.025869
v -0.094452 0.322984 0.048905
v -0.088003 0.316535 0.068882
v -0.071131 0.329104 0.071131
v -0.075279 0.338339 0.050095
v -0.088003 0.316535 0.068882
v -0.082126 0.310658 0.082126
v -0.068882 0.316535 0.088003
v -0.071131 0.329104 0.071131
v -0.071131 0.329104 0.071131
v -0.068882 0.316535 0.088003
v -0.048905 0.322984 0.094452
v -0.050095 0.338339 0.075279
v -0.050095 0.338339 0.075279
v -0.048905 0.322984 0.094452
v -0.025320 0.327509 0.098977
v -0.025869 0.344217 0.078623
v -0.025869 0.344217 0.078623
v -0.025320 0.327509 0.098977
v -0.000000 0.329115 0.100583
v -0.000000 0.346219 0.079898
v -0.000000 0.346219 0.079898
v -0.000000 0.329115 0.100583
v 0.025321 0.327509 0.098977
v 0.025869 0.344217 0.078623
v 0.025869 0.344217 0.078623
v 0.025321 0.327509 0.098977
v 0.048905 0.322984 0.094452
v 0.050095 0.338339 0.075279
v 0.050095 0.338339 0.075279
v 0.048905 0.322984 0.094452
v 0.068882 0.316535 0.088003
v 0.071131 0.329104 0.071131
v 0.071131 0.329104 0.071131
v 0.068882 0.316535 0.088003
v 0.082126 0.310658 0.082126
v 0.088003 0.316535 0.068882
v 0.075279 0.338339 0.050095
v 0.071131 0.329104 0.071131
v 0.088003 0.316535 0.068882
v 0.094452 0.322984 0.048905
v 0.078623 0.344217 0.025869
v 0.075279 0.338339 0.050095
v 0.094452 0.322984 0.048905
v 0.098977 0.327509 0.025321
v 0.079898 0.346219 -0.000000
v 0.078623 0.344217 0.025869
v 0.098977 0.327509 0.025321
v 0.100583 0.329115 -0.000000
v 0.078623 0.344217 -0.025869
v 0.079898 0.346219 -0.000000
v 0.100583 0.329115 -0.000000
v 0.098977 0.327509 -0.025321
v 0.075279 0.338339 -0.050095
v 0.078623 0.344217 -0.025869
v 0.098977 0.327509 -0.025321
v 0.094452 0.322984 -0.048905
v 0.071131 0.329104 -0.071131
v 0.075279 0.338339 -0.050095
v 0.094452 0.322984 -0.048905
v 0.088003 0.316535 -0.068882
v 0.068882 0.316535 -0.088003
v 0.071131 0.329104 -0.071131
v 0.088003 0.316535 -0.068882
v 0.082126 0.310658 -0.082126
v 0.048905 0.322984 -0.094452
v 0.050095 0.338339 -0.075279
v 0.071131 0.329104 -0.071131
v 0.068882 0.316535 -0.088003
v 0.025321 0.327509 -0.098977
v 0.025869 0.344217 -0.078623
v 0.050095 0.338339 -0.075279
v 0.048905 0.322984 -0.094452
v -0.000000 0.329115 -0.100583
v -0.000000 0.346219 -0.079898
v 0.025869 0.344217 -0.078623
v 0.025321 0.327509 -0.098977
v -0.025320 0.327509 -0.098977
v -0.025869 0.344217 -0.078623
v -0.000000 0.346219 -0.079898
v -0.000000 0.329115 -0.100583
v -0.048905 0.322984 -0.094452
v -0.050095 0.338339 -0.075279
v -0.025869 0.344217 -0.078623
v -0.025320 0.327509 -0.098977
v -0.068882 0.316535 -0.088003
v -0.071131 0.329104 -0.071131
v -0.050095 0.338339 -0.075279
v -0.048905 0.322984 -0.094452
v 0.024656 0.266869 0.041363
v 0.034124 0.266807 0.034037
v 0.041659 0.266877 0.024487
v 0.046223 0.266831 0.013313
v 0.048231 0.266838 0.001342
v 0.047128 0.266842 -0.010556
v 0.042748 0.266866 -0.022008
v 0.035924 0.266831 -0.032232
v 0.027211 0.266870 -0.039861
v 0.016396 0.266841 -0.045254
v 0.004196 0.266851 -0.048118
v -0.007430 0.266851 -0.047625
v -0.019351 0.266857 -0.044071
v -0.030037 0.266858 -0.037818
v -0.037866 0.266851 -0.029729
v -0.044259 0.266856 -0.019239
v -0.047756 0.266856 -0.007145
v -0.047899 0.266845 0.004438
v -0.045290 0.266841 0.016638
v -0.039690 0.266869 0.027454
v -0.031971 0.266827 0.035962
v -0.021883 0.266871 0.043082
v -0.010233 0.266839 0.047112
v 0.001512 0.266838 0.048113
v 0.013650 0.266838 0.046349
v -0.075279 0.338339 -0.050095
v -0.078623 0.344217 -0.025869
v -0.056708 0.356022 -0.024320
v -0.052588 0.349788 -0.052588
v -0.078623 0.344217 -0.025869
v -0.079898 0.346219 0.000000
v -0.061004 0.355729 0.005758
v -0.060517 0.355714 -0.009098
v -0.056708 0.356022 -0.024320
v -0.079898 0.346219 0.000000
v -0.078623 0.344217 0.025869
v -0.050475 0.356090 0.034695
v -0.057731 0.355778 0.021213
v -0.061004 0.355729 0.005758
v -0.050475 0.356090 0.034695
v -0.078623 0.344217 0.025869
v -0.075279 0.338339 0.050095
v -0.052588 0.349788 0.052588
v -0.024736 0.355915 -0.056487
v -0.025869 0.344217 -0.078623
v -0.050095 0.338339 -0.075279
v -0.052588 0.349788 -0.052588
v -0.024736 0.355915 -0.056487
v -0.052588 0.349788 -0.052588
v -0.056708 0.356022 -0.024320
v -0.048315 0.355968 -0.037645
v -0.038005 0.355982 -0.048052
v -0.050475 0.356090 0.034695
v -0.052588 0.349788 0.052588
v -0.027602 0.356156 0.054975
v -0.040571 0.355776 0.046055
v -0.027602 0.356156 0.054975
v -0.052588 0.349788 0.052588
v -0.050095 0.338339 0.075279
v -0.025869 0.344217 0.078623
v 0.005299 0.355723 -0.061053
v -0.000000 0.346219 -0.079898
v -0.025869 0.344217 -0.078623
v -0.024736 0.355915 -0.056487
v -0.009548 0.355753 -0.060453
v -0.027602 0.356156 0.054975
v -0.025869 0.344217 0.078623
v -0.000000 0.346219 0.079898
v 0.002074 0.355826 0.061453
v -0.013215 0.355795 0.059790
v 0.025869 0.344217 -0.078623
v -0.000000 0.346219 -0.079898
v 0.005299 0.355723 -0.061053
v 0.020752 0.355716 -0.057871
v 0.034363 0.356220 -0.050743
v -0.000000 0.346219 0.079898
v 0.025869 0.344217 0.078623
v 0.031185 0.356085 0.052793
v 0.017539 0.355695 0.058738
v 0.002074 0.355826 0.061453
v 0.052588 0.349788 -0.052588
v 0.050095 0.338339 -0.075279
v 0.025869 0.344217 -0.078623
v 0.034363 0.356220 -0.050743
v 0.054760 0.356150 -0.028008
v 0.052588 0.349788 -0.052588
v 0.034363 0.356220 -0.050743
v 0.045746 0.355762 -0.040923
v 0.031185 0.356085 0.052793
v 0.025869 0.344217 0.078623
v 0.050095 0.338339 0.075279
v 0.052588 0.349788 0.052588
v 0.054760 0.356150 -0.028008
v 0.078623 0.344217 -0.025869
v 0.075279 0.338339 -0.050095
v 0.052588 0.349788 -0.052588
v 0.079898 0.346219 -0.000000
v 0.078623 0.344217 -0.025869
v 0.054760 0.356150 -0.028008
v 0.059683 0.355762 -0.013654
v 0.061456 0.355790 0.001606
v 0.078623 0.344217 0.025869
v 0.079898 0.346219 -0.000000
v 0.061456 0.355790 0.001606
v 0.058869 0.355711 0.017088
v 0.053040 0.356094 0.030792
v 0.052588 0.349788 0.052588
v 0.075279 0.338339 0.050095
v 0.078623 0.344217 0.025869
v 0.053040 0.356094 0.030792
v 0.052588 0.349788 0.052588
v 0.053040 0.356094 0.030792
v 0.043693 0.355513 0.043359
v 0.031185 0.356085 0.052793
v -0.044259 0.349404 -0.019239
v -0.047756 0.349404 -0.007145
v -0.047756 0.266856 -0.007145
v -0.044259 0.266856 -0.019239
v -0.010233 0.349387 0.047112
v 0.001512 0.349386 0.048113
v 0.001512 0.266838 0.048113
v -0.010233 0.266839 0.047112
v 0.027211 0.349418 -0.039861
v 0.016396 0.349389 -0.045254
v 0.016396 0.266841 -0.045254
v 0.027211 0.266870 -0.039861
v 0.001512 0.349386 0.048113
v 0.013650 0.349386 0.046349
v 0.013650 0.266838 0.046349
v 0.001512 0.266838 0.048113
v 0.042748 0.349413 -0.022008
v 0.035924 0.349379 -0.032232
v 0.035924 0.266831 -0.032232
v 0.042748 0.266866 -0.022008
v 0.016396 0.349389 -0.045254
v 0.004196 0.349399 -0.048118
v 0.004196 0.266851 -0.048118
v 0.016396 0.266841 -0.045254
v -0.047899 0.349393 0.004438
v -0.045290 0.349389 0.016638
v -0.045290 0.266841 0.016638
v -0.047899 0.266845 0.004438
v 0.024656 0.349417 0.041363
v 0.034124 0.349355 0.034037
v 0.034124 0.266807 0.034037
v 0.024656 0.266869 0.041363
v 0.047128 0.349390 -0.010556
v 0.042748 0.349413 -0.022008
v 0.042748 0.266866 -0.022008
v 0.047128 0.266842 -0.010556
v -0.047756 0.349404 -0.007145
v -0.047899 0.349393 0.004438
v -0.047899 0.266845 0.004438
v -0.047756 0.266856 -0.007145
v 0.004196 0.349399 -0.048118
v -0.007430 0.349399 -0.047625
v -0.007430 0.266851 -0.047625
v 0.004196 0.266851 -0.048118
v 0.034124 0.349355 0.034037
v 0.041659 0.349425 0.024487
v 0.041659 0.266877 0.024487
v 0.034124 0.266807 0.034037
v 0.013650 0.349386 0.046349
v 0.024656 0.349417 0.041363
v 0.024656 0.266869 0.041363
v 0.013650 0.266838 0.046349
v -0.007430 0.349399 -0.047625
v -0.019351 0.349405 -0.044071
v -0.019351 0.266857 -0.044071
v -0.007430 0.266851 -0.047625
v -0.045290 0.349389 0.016638
v -0.039690 0.349417 0.027454
v -0.039690 0.266869 0.027454
v -0.045290 0.266841 0.016638
v 0.046223 0.349379 0.013313
v 0.048231 0.349386 0.001342
v 0.048231 0.266838 0.001342
v 0.046223 0.266831 0.013313
v -0.039690 0.349417 0.027454
v -0.031971 0.349375 0.035962
v -0.031971 0.266827 0.035962
v -0.039690 0.266869 0.027454
v -0.019351 0.349405 -0.044071
v -0.030037 0.349406 -0.037818
v -0.030037 0.266858 -0.037818
v -0.019351 0.266857 -0.044071
v 0.041659 0.349425 0.024487
v 0.046223 0.349379 0.013313
v 0.046223 0.266831 0.013313
v 0.041659 0.266877 0.024487
v -0.030037 0.349406 -0.037818
v -0.037866 0.349399 -0.029729
v -0.037866 0.266851 -0.029729
v -0.030037 0.266858 -0.037818
v -0.031971 0.349375 0.035962
v -0.021883 0.349419 0.043082
v -0.021883 0.266871 0.043082
v -0.031971 0.266827 0.035962
v 0.048231 0.349386 0.001342
v 0.047128 0.349390 -0.010556
v 0.047128 0.266842 -0.010556
v 0.048231 0.266838 0.001342
v -0.021883 0.349419 0.043082
v -0.010233 0.349387 0.047112
v -0.010233 0.266839 0.047112
v -0.021883 0.266871 0.043082
v -0.037866 0.349399 -0.029729
v -0.044259 0.349404 -0.019239
v -0.044259 0.266856 -0.019239
v -0.037866 0.266851 -0.029729
v 0.035924 0.349379 -0.032232
v 0.027211 0.349418 -0.039861
v 0.027211 0.266870 -0.039861
v 0.035924 0.266831 -0.032232
v 0.051531 0.356218 -0.026651
v 0.054760 0.356150 -0.028008
v 0.045746 0.355762 -0.040923
v 0.043182 0.356096 -0.038694
v 0.054760 0.356150 -0.028008
v 0.051531 0.356218 -0.026651
v 0.056430 0.356007 -0.013034
v 0.059683 0.355762 -0.013654
v 0.041244 0.355918 0.040689
v 0.043693 0.355513 0.043359
v 0.053040 0.356094 0.030792
v 0.050124 0.356082 0.029071
v 0.055682 0.355938 0.015841
v 0.058869 0.355711 0.017088
v 0.061456 0.355790 0.001606
v 0.057915 0.355960 0.001391
v 0.050124 0.356082 0.029071
v 0.053040 0.356094 0.030792
v 0.058869 0.355711 0.017088
v 0.055682 0.355938 0.015841
v 0.057915 0.355960 0.001391
v 0.061456 0.355790 0.001606
v 0.059683 0.355762 -0.013654
v 0.056430 0.356007 -0.013034
v 0.043182 0.356096 -0.038694
v 0.045746 0.355762 -0.040923
v 0.034363 0.356220 -0.050743
v 0.032327 0.356401 -0.048210
v 0.032327 0.356401 -0.048210
v 0.034363 0.356220 -0.050743
v 0.020752 0.355716 -0.057871
v 0.019315 0.355938 -0.054595
v 0.019315 0.355938 -0.054595
v 0.020752 0.355716 -0.057871
v 0.005299 0.355723 -0.061053
v 0.004977 0.355924 -0.057672
v 0.004977 0.355924 -0.057672
v 0.005299 0.355723 -0.061053
v -0.009548 0.355753 -0.060453
v -0.009359 0.355992 -0.057126
v -0.009359 0.355992 -0.057126
v -0.009548 0.355753 -0.060453
v -0.024736 0.355915 -0.056487
v -0.023416 0.356043 -0.053036
v -0.023416 0.356043 -0.053036
v -0.024736 0.355915 -0.056487
v -0.038005 0.355982 -0.048052
v -0.035958 0.356257 -0.045520
v -0.048315 0.355968 -0.037645
v -0.046000 0.356276 -0.035331
v -0.035958 0.356257 -0.045520
v -0.038005 0.355982 -0.048052
v -0.056708 0.356022 -0.024320
v -0.053453 0.356324 -0.022726
v -0.046000 0.356276 -0.035331
v -0.048315 0.355968 -0.037645
v -0.060517 0.355714 -0.009098
v -0.057251 0.355975 -0.008593
v -0.053453 0.356324 -0.022726
v -0.056708 0.356022 -0.024320
v -0.057589 0.355936 0.005755
v -0.061004 0.355729 0.005758
v -0.057731 0.355778 0.021213
v -0.054341 0.355928 0.020059
v -0.061004 0.355729 0.005758
v -0.057589 0.355936 0.005755
v -0.057251 0.355975 -0.008593
v -0.060517 0.355714 -0.009098
v -0.050475 0.356090 0.034695
v -0.047773 0.356395 0.032982
v -0.054341 0.355928 0.020059
v -0.057731 0.355778 0.021213
v -0.047773 0.356395 0.032982
v -0.050475 0.356090 0.034695
v -0.040571 0.355776 0.046055
v -0.038102 0.356122 0.043700
v -0.027602 0.356156 0.054975
v -0.025948 0.356229 0.051905
v -0.038102 0.356122 0.043700
v -0.040571 0.355776 0.046055
v -0.013215 0.355795 0.059790
v -0.012285 0.356111 0.056632
v -0.025948 0.356229 0.051905
v -0.027602 0.356156 0.054975
v 0.002074 0.355826 0.061453
v 0.002181 0.356055 0.057922
v -0.012285 0.356111 0.056632
v -0.013215 0.355795 0.059790
v 0.017539 0.355695 0.058738
v 0.016597 0.355927 0.055471
v 0.002181 0.356055 0.057922
v 0.002074 0.355826 0.061453
v 0.029739 0.356068 0.049708
v 0.031185 0.356085 0.052793
v 0.043693 0.355513 0.043359
v 0.041244 0.355918 0.040689
v 0.016597 0.355927 0.055471
v 0.017539 0.355695 0.058738
v 0.031185 0.356085 0.052793
v 0.029739 0.356068 0.049708
v 0.034124 0.349355 0.034037
v 0.024656 0.349417 0.041363
v 0.029739 0.356068 0.049708
v 0.041244 0.355918 0.040689
v 0.041659 0.349425 0.024487
v 0.034124 0.349355 0.034037
v 0.041244 0.355918 0.040689
v 0.050124 0.356082 0.029071
v 0.024656 0.349417 0.041363
v 0.013650 0.349386 0.046349
v 0.016597 0.355927 0.055471
v 0.029739 0.356068 0.049708
v 0.013650 0.349386 0.046349
v 0.001512 0.349386 0.048113
v 0.002181 0.356055 0.057922
v 0.016597 0.355927 0.055471
v 0.001512 0.349386 0.048113
v -0.010233 0.349387 0.047112
v -0.012285 0.356111 0.056632
v 0.002181 0.356055 0.057922
v -0.010233 0.349387 0.047112
v -0.021883 0.349419 0.043082
v -0.025948 0.356229 0.051905
v -0.012285 0.356111 0.056632
v -0.021883 0.349419 0.043082
v -0.031971 0.349375 0.035962
v -0.038102 0.356122 0.043700
v -0.025948 0.356229 0.051905
v -0.031971 0.349375 0.035962
v -0.039690 0.349417 0.027454
v -0.047773 0.356395 0.032982
v -0.038102 0.356122 0.043700
v -0.039690 0.349417 0.027454
v -0.045290 0.349389 0.016638
v -0.054341 0.355928 0.020059
v -0.047773 0.356395 0.032982
v -0.045290 0.349389 0.016638
v -0.047899 0.349393 0.004438
v -0.057589 0.355936 0.005755
v -0.054341 0.355928 0.020059
v -0.047899 0.349393 0.004438
v -0.047756 0.349404 -0.007145
v -0.057251 0.355975 -0.008593
v -0.057589 0.355936 0.005755
v -0.047756 0.349404 -0.007145
v -0.044259 0.349404 -0.019239
v -0.053453 0.356324 -0.022726
v -0.057251 0.355975 -0.008593
v -0.044259 0.349404 -0.019239
v -0.037866 0.349399 -0.029729
v -0.046000 0.356276 -0.035331
v -0.053453 0.356324 -0.022726
v -0.037866 0.349399 -0.029729
v -0.030037 0.349406 -0.037818
v -0.035958 0.356257 -0.045520
v -0.046000 0.356276 -0.035331
v -0.030037 0.349406 -0.037818
v -0.019351 0.349405 -0.044071
v -0.023416 0.356043 -0.053036
v -0.035958 0.356257 -0.045520
v -0.019351 0.349405 -0.044071
v -0.007430 0.349399 -0.047625
v -0.009359 0.355992 -0.057126
v -0.023416 0.356043 -0.053036
v -0.007430 0.349399 -0.047625
v 0.004196 0.349399 -0.048118
v 0.004977 0.355924 -0.057672
v -0.009359 0.355992 -0.057126
v 0.004196 0.349399 -0.048118
v 0.016396 0.349389 -0.045254
v 0.019315 0.355938 -0.054595
v 0.004977 0.355924 -0.057672
v 0.016396 0.349389 -0.045254
v 0.027211 0.349418 -0.039861
v 0.032327 0.356401 -0.048210
v 0.019315 0.355938 -0.054595
v 0.027211 0.349418 -0.039861
v 0.035924 0.349379 -0.032232
v 0.043182 0.356096 -0.038694
v 0.032327 0.356401 -0.048210
v 0.035924 0.349379 -0.032232
v 0.042748 0.349413 -0.022008
v 0.051531 0.356218 -0.026651
v 0.043182 0.356096 -0.038694
v 0.042748 0.349413 -0.022008
v 0.047128 0.349390 -0.010556
v 0.056430 0.356007 -0.013034
v 0.051531 0.356218 -0.026651
v 0.047128 0.349390 -0.010556
v 0.048231 0.349386 0.001342
v 0.057915 0.355960 0.001391
v 0.056430 0.356007 -0.013034
v 0.048231 0.349386 0.001342
v 0.046223 0.349379 0.013313
v 0.055682 0.355938 0.015841
v 0.057915 0.355960 0.001391
v 0.046223 0.349379 0.013313
v 0.041659 0.349425 0.024487
v 0.050124 0.356082 0.029071
v 0.055682 0.355938 0.015841
v 0.078599 0.254001 0.115853
v 0.075279 0.278627 0.109807
v 0.052588 0.281120 0.121256
v 0.054792 0.255327 0.128578
v -0.048585 0.320506 0.000000
v -0.048585 0.447693 0.000000
v -0.044886 0.447693 -0.018593
v -0.044886 0.320506 -0.018593
v -0.044886 0.320506 -0.018593
v -0.044886 0.447693 -0.018593
v -0.034355 0.447693 -0.034355
v -0.034355 0.320506 -0.034355
v -0.034355 0.320506 -0.034355
v -0.034355 0.447693 -0.034355
v -0.018593 0.447693 -0.044886
v -0.018593 0.320506 -0.044886
v -0.018593 0.320506 -0.044886
v -0.018593 0.447693 -0.044886
v -0.000000 0.447693 -0.048585
v -0.000000 0.320506 -0.048585
v -0.000000 0.320506 -0.048585
v -0.000000 0.447693 -0.048585
v 0.018593 0.447693 -0.044886
v 0.018593 0.320506 -0.044886
v 0.018593 0.320506 -0.044886
v 0.018593 0.447693 -0.044886
v 0.034355 0.447693 -0.034355
v 0.034355 0.320506 -0.034355
v 0.034355 0.320506 -0.034355
v 0.034355 0.447693 -0.034355
v 0.044887 0.447693 -0.018593
v 0.044887 0.320506 -0.018593
v 0.044887 0.320506 -0.018593
v 0.044887 0.447693 -0.018593
v 0.048585 0.447693 -0.000000
v 0.048585 0.320506 -0.000000
v 0.048585 0.320506 -0.000000
v 0.048585 0.447693 -0.000000
v 0.044887 0.447693 0.018593
v 0.044887 0.320506 0.018593
v 0.044887 0.320506 0.018593
v 0.044887 0.447693 0.018593
v 0.034355 0.447693 0.034355
v 0.034355 0.320506 0.034355
v 0.034355 0.320506 0.034355
v 0.034355 0.447693 0.034355
v 0.018593 0.447693 0.044886
v 0.018593 0.320506 0.044886
v 0.018593 0.320506 0.044886
v 0.018593 0.447693 0.044886
v -0.000000 0.447693 0.048585
v -0.000000 0.320506 0.048585
v -0.000000 0.320506 0.048585
v -0.000000 0.447693 0.048585
v -0.018593 0.447693 0.044886
v -0.018593 0.320506 0.044886
v -0.018593 0.320506 0.044886
v -0.018593 0.447693 0.044886
v -0.034355 0.447693 0.034355
v -0.034355 0.320506 0.034355
v -0.034355 0.320506 0.034355
v -0.034355 0.447693 0.034355
v -0.044886 0.447693 0.018593
v -0.044886 0.320506 0.018593
v -0.044886 0.320506 0.018593
v -0.044886 0.447693 0.018593
v -0.048585 0.447693 0.000000
v -0.048585 0.320506 0.000000
v 0.079898 0.228532 0.117687
v 0.078599 0.254001 0.115853
v 0.054792 0.255327 0.128578
v 0.055761 0.228532 0.130861
v 0.117687 0.228532 0.079898
v 0.115853 0.254001 0.078599
v 0.099068 0.253359 0.099068
v 0.100583 0.228532 0.100583
v 0.094452 0.277437 -0.094452
v 0.109807 0.278627 -0.075279
v 0.115853 0.254001 -0.078599
v 0.099068 0.253359 -0.099068
v 0.130861 0.228532 0.055761
v 0.128578 0.255327 0.054792
v 0.115853 0.254001 0.078599
v 0.117687 0.228532 0.079898
v 0.139316 0.228532 0.028725
v 0.136663 0.256508 0.028197
v 0.128578 0.255327 0.054792
v 0.130861 0.228532 0.055761
v 0.142246 0.228532 -0.000000
v 0.139445 0.256995 -0.000000
v 0.136663 0.256508 0.028197
v 0.139316 0.228532 0.028725
v 0.139316 0.228532 -0.028725
v 0.136663 0.256508 -0.028197
v 0.139445 0.256995 -0.000000
v 0.142246 0.228532 -0.000000
v 0.130861 0.228532 -0.055761
v 0.128578 0.255327 -0.054792
v 0.136663 0.256508 -0.028197
v 0.139316 0.228532 -0.028725
v 0.117687 0.228532 -0.079898
v 0.115853 0.254001 -0.078599
v 0.128578 0.255327 -0.054792
v 0.130861 0.228532 -0.055761
v 0.079898 0.228532 -0.117687
v 0.078599 0.254001 -0.115853
v 0.099068 0.253359 -0.099068
v 0.100583 0.228532 -0.100583
v -0.094452 0.277437 -0.094452
v -0.075279 0.278627 -0.109807
v -0.078599 0.254001 -0.115853
v -0.099068 0.253359 -0.099068
v 0.055761 0.228532 -0.130861
v 0.054792 0.255327 -0.128578
v 0.078599 0.254001 -0.115853
v 0.079898 0.228532 -0.117687
v 0.028725 0.228532 -0.139316
v 0.028197 0.256508 -0.136663
v 0.054792 0.255327 -0.128578
v 0.055761 0.228532 -0.130861
v -0.000000 0.228532 -0.142246
v -0.000000 0.256995 -0.139445
v 0.028197 0.256508 -0.136663
v 0.028725 0.228532 -0.139316
v -0.028725 0.228532 -0.139316
v -0.028197 0.256508 -0.136663
v -0.000000 0.256995 -0.139445
v -0.000000 0.228532 -0.142246
v -0.055760 0.228532 -0.130861
v -0.054792 0.255327 -0.128578
v -0.028197 0.256508 -0.136663
v -0.028725 0.228532 -0.139316
v -0.079898 0.228532 -0.117687
v -0.078599 0.254001 -0.115853
v -0.054792 0.255327 -0.128578
v -0.055760 0.228532 -0.130861
v -0.117687 0.228532 -0.079898
v -0.115853 0.254001 -0.078599
v -0.099068 0.253359 -0.099068
v -0.100583 0.228532 -0.100583
v -0.094452 0.277437 0.094452
v -0.109807 0.278627 0.075279
v -0.115853 0.254001 0.078599
v -0.099068 0.253359 0.099068
v -0.130861 0.228532 -0.055761
v -0.128578 0.255327 -0.054792
v -0.115853 0.254001 -0.078599
v -0.117687 0.228532 -0.079898
v -0.139315 0.228532 -0.028725
v -0.136663 0.256508 -0.028197
v -0.128578 0.255327 -0.054792
v -0.130861 0.228532 -0.055761
v -0.142246 0.228532 0.000000
v -0.139445 0.256995 0.000000
v -0.136663 0.256508 -0.028197
v -0.139315 0.228532 -0.028725
v -0.139315 0.228532 0.028725
v -0.136663 0.256508 0.028197
v -0.139445 0.256995 0.000000
v -0.142246 0.228532 0.000000
v -0.130861 0.228532 0.055761
v -0.128578 0.255327 0.054792
v -0.136663 0.256508 0.028197
v -0.139315 0.228532 0.028725
v -0.117687 0.228532 0.079898
v -0.115853 0.254001 0.078599
v -0.128578 0.255327 0.054792
v -0.130861 0.228532 0.055761
v -0.079898 0.228532 0.117687
v -0.078599 0.254001 0.115853
v -0.099068 0.253359 0.099068
v -0.100583 0.228532 0.100583
v 0.100583 0.228532 0.100583
v 0.099068 0.253359 0.099068
v 0.078599 0.254001 0.115853
v 0.079898 0.228532 0.117687
v -0.055760 0.228532 0.130861
v -0.054792 0.255327 0.128578
v -0.078599 0.254001 0.115853
v -0.079898 0.228532 0.117687
v -0.028725 0.228532 0.139316
v -0.028197 0.256508 0.136663
v -0.054792 0.255327 0.128578
v -0.055760 0.228532 0.130861
v -0.000000 0.228532 0.142246
v -0.000000 0.256995 0.139445
v -0.028197 0.256508 0.136663
v -0.028725 0.228532 0.139316
v 0.028725 0.228532 0.139316
v 0.028197 0.256508 0.136663
v -0.000000 0.256995 0.139445
v -0.000000 0.228532 0.142246
v 0.055761 0.228532 0.130861
v 0.054792 0.255327 0.128578
v 0.028197 0.256508 0.136663
v 0.028725 0.228532 0.139316
vn 0.5548 -0.0919 0.8269
vn 0.5572 -0.0023 0.8304
vn 0.3855 -0.0023 0.9227
vn 0.3839 -0.0957 0.9184
vn 0.3797 0.1867 0.9061
vn 0.3638 0.3638 0.8575
vn 0.1867 0.3801 0.9059
vn 0.1944 0.1943 0.9615
vn 0.5253 0.3439 0.7783
vn 0.4904 0.4904 0.7204
vn 0.3444 0.5250 0.7783
vn 0.1973 -0.0023 0.9803
vn 0.1963 -0.0993 0.9755
vn -0.0000 0.3861 0.9225
vn -0.0000 0.1973 0.9803
vn 0.1782 0.5488 0.8167
vn -0.0000 -0.0021 1.0000
vn -0.0000 -0.1007 0.9949
vn -0.1867 0.3800 0.9060
vn -0.1944 0.1943 0.9615
vn 0.1782 0.5488 0.8168
vn -0.0000 0.5573 0.8303
vn -0.1973 -0.0023 0.9803
vn -0.1963 -0.0993 0.9755
vn -0.1867 0.3800 0.9059
vn -0.3638 0.3638 0.8575
vn -0.3797 0.1867 0.9061
vn -0.1782 0.5488 0.8168
vn -0.1964 -0.0993 0.9755
vn -0.1974 -0.0023 0.9803
vn -0.3855 -0.0023 0.9227
vn -0.3838 -0.0957 0.9184
vn -0.5253 0.3439 0.7783
vn -0.5487 0.1782 0.8168
vn -0.3444 0.5250 0.7783
vn -0.5571 -0.0023 0.8304
vn -0.5551 -0.0919 0.8267
vn 0.6963 0.1739 0.6963
vn 0.6665 0.3340 0.6665
vn 0.5488 0.1782 0.8167
vn -0.4904 0.4904 0.7204
vn 0.7042 -0.0902 0.7042
vn 0.7071 -0.0021 0.7071
vn 0.5549 -0.0919 0.8268
vn -0.5488 0.1782 0.8167
vn -0.6665 0.3340 0.6665
vn -0.6963 0.1743 0.6963
vn 0.6250 0.4677 0.6250
vn 0.5773 0.5774 0.5774
vn 0.4677 0.6250 0.6250
vn 0.3349 0.6663 0.6663
vn 0.1744 0.6962 0.6963
vn 0.1744 0.6963 0.6963
vn -0.0000 0.7071 0.7071
vn -0.1745 0.6962 0.6963
vn -0.1782 0.5488 0.8167
vn -0.1745 0.6963 0.6963
vn -0.3349 0.6663 0.6663
vn -0.4677 0.6250 0.6250
vn -0.5773 0.5774 0.5774
vn -0.6250 0.4677 0.6250
vn -0.8167 0.1782 0.5488
vn -0.7783 0.3439 0.5253
vn -0.8575 0.3638 0.3638
vn -0.9061 0.1867 0.3797
vn -0.7071 -0.0021 0.7071
vn -0.7042 -0.0902 0.7043
vn -0.8267 -0.0919 0.5551
vn -0.8304 -0.0023 0.5572
vn -0.9227 -0.0023 0.3855
vn -0.9184 -0.0957 0.3839
vn -0.9059 0.3800 0.1867
vn -0.9615 0.1943 0.1943
vn -0.7203 0.4905 0.4905
vn -0.7784 0.5250 0.3443
vn -0.9803 -0.0023 0.1973
vn -0.9755 -0.0993 0.1964
vn -0.9225 0.3861 -0.0000
vn -0.9803 0.1973 -0.0000
vn -0.8168 0.5487 0.1782
vn -1.0000 -0.0023 -0.0000
vn -0.9949 -0.1007 -0.0000
vn -0.9060 0.3800 -0.1867
vn -0.9615 0.1943 -0.1944
vn -0.8303 0.5573 -0.0000
vn -0.9803 -0.0023 -0.1973
vn -0.9755 -0.0993 -0.1963
vn -0.9059 0.3800 -0.1867
vn -0.8575 0.3638 -0.3638
vn -0.9061 0.1867 -0.3797
vn -0.8168 0.5488 -0.1782
vn -0.9227 -0.0023 -0.3855
vn -0.9184 -0.0957 -0.3840
vn -0.7783 0.3439 -0.5253
vn -0.8167 0.1782 -0.5488
vn -0.7783 0.5250 -0.3444
vn -0.8304 -0.0023 -0.5572
vn -0.8268 -0.0919 -0.5550
vn -0.7204 0.4904 -0.4904
vn -0.7042 -0.0902 0.7042
vn -0.6665 0.3340 -0.6665
vn -0.6963 0.1739 -0.6963
vn -0.5774 0.5773 0.5773
vn -0.6250 0.6250 0.4676
vn -0.6251 0.6250 0.4676
vn -0.6663 0.6663 0.3349
vn -0.7783 0.5250 0.3443
vn -0.6963 0.6962 0.1745
vn -0.7071 0.7071 -0.0000
vn -0.6963 0.6963 -0.1743
vn -0.8167 0.5488 -0.1782
vn -0.6663 0.6663 -0.3349
vn -0.6251 0.6250 -0.4676
vn -0.6250 0.6250 -0.4677
vn -0.5774 0.5774 -0.5773
vn -0.6250 0.4677 -0.6250
vn -0.6251 0.4676 -0.6250
vn -0.5488 0.1782 -0.8167
vn -0.5253 0.3439 -0.7783
vn -0.3638 0.3638 -0.8575
vn -0.3797 0.1867 -0.9061
vn -0.8267 -0.0919 -0.5551
vn -0.7071 -0.0022 -0.7071
vn -0.7043 -0.0902 -0.7042
vn -0.5551 -0.0919 -0.8267
vn -0.5571 -0.0023 -0.8304
vn -0.3855 -0.0023 -0.9227
vn -0.3838 -0.0957 -0.9184
vn -0.1867 0.3800 -0.9059
vn -0.1944 0.1943 -0.9615
vn -0.4904 0.4904 -0.7204
vn -0.3444 0.5250 -0.7783
vn -0.1973 -0.0023 -0.9803
vn -0.1963 -0.0993 -0.9755
vn -0.0000 0.3861 -0.9225
vn -0.0000 0.1973 -0.9803
vn -0.1782 0.5488 -0.8168
vn -0.0000 -0.0024 -1.0000
vn -0.0000 -0.1007 -0.9949
vn 0.1867 0.3800 -0.9060
vn 0.1944 0.1943 -0.9615
vn -0.0000 0.5573 -0.8303
vn 0.1973 -0.0023 -0.9803
vn 0.1963 -0.0993 -0.9755
vn 0.1867 0.3800 -0.9059
vn 0.3638 0.3638 -0.8575
vn 0.3797 0.1867 -0.9061
vn 0.1782 0.5487 -0.8168
vn 0.3855 -0.0023 -0.9227
vn 0.3840 -0.0957 -0.9184
vn 0.5254 0.3439 -0.7783
vn 0.5488 0.1782 -0.8167
vn 0.3444 0.5250 -0.7783
vn 0.5572 -0.0023 -0.8304
vn 0.5549 -0.0919 -0.8268
vn -0.6963 0.1739 -0.6964
vn 0.4904 0.4904 -0.7204
vn -0.7042 -0.0902 -0.7042
vn 0.6665 0.3340 -0.6665
vn 0.6963 0.1743 -0.6963
vn -0.6250 0.4676 -0.6251
vn -0.6250 0.4676 -0.6250
vn -0.5773 0.5773 -0.5774
vn -0.4677 0.6250 -0.6250
vn -0.3349 0.6663 -0.6663
vn -0.1744 0.6963 -0.6963
vn -0.0000 0.7071 -0.7071
vn 0.1745 0.6962 -0.6963
vn 0.3349 0.6663 -0.6663
vn 0.4676 0.6250 -0.6251
vn 0.4677 0.6250 -0.6250
vn 0.5773 0.5774 -0.5774
vn 0.6250 0.4677 -0.6250
vn 0.8167 0.1782 -0.5488
vn 0.7783 0.3439 -0.5253
vn 0.8575 0.3638 -0.3638
vn 0.9061 0.1867 -0.3797
vn 0.7071 -0.0024 -0.7071
vn 0.7042 -0.0902 -0.7043
vn 0.8267 -0.0919 -0.5551
vn 0.8304 -0.0023 -0.5571
vn 0.9227 -0.0023 -0.3855
vn 0.9184 -0.0957 -0.3840
vn 0.9059 0.3800 -0.1867
vn 0.9615 0.1943 -0.1944
vn 0.7204 0.4904 -0.4904
vn 0.7783 0.5250 -0.3444
vn 0.9804 -0.0023 -0.1972
vn 0.9755 -0.0993 -0.1964
vn 0.9225 0.3861 -0.0000
vn 0.9803 0.1973 -0.0000
vn 0.8168 0.5487 -0.1782
vn 1.0000 -0.0023 -0.0000
vn 0.9949 -0.1007 -0.0000
vn 0.9059 0.3801 0.1867
vn 0.9615 0.1943 0.1944
vn 0.8303 0.5573 -0.0000
vn 0.9803 -0.0023 0.1973
vn 0.9755 -0.0993 0.1963
vn 0.8575 0.3638 0.3638
vn 0.9061 0.1867 0.3797
vn 0.8168 0.5487 0.1782
vn 0.9755 -0.0993 0.1964
vn 0.9227 -0.0023 0.3855
vn 0.9183 -0.0957 0.3841
vn 0.7783 0.3439 0.5253
vn 0.8167 0.1782 0.5488
vn 0.7783 0.5250 0.3444
vn 0.8304 -0.0023 0.5572
vn 0.8267 -0.0919 0.5551
vn 0.7204 0.4904 0.4904
vn 0.7042 -0.0902 -0.7042
vn 0.5774 0.5773 -0.5773
vn 0.6250 0.6250 -0.4677
vn 0.6663 0.6663 -0.3349
vn 0.6963 0.6962 -0.1745
vn 0.7071 0.7071 -0.0000
vn 0.6963 0.6963 0.1744
vn 0.6963 0.6962 0.1744
vn 0.6663 0.6663 0.3348
vn 0.6251 0.6250 0.4676
vn 0.6250 0.6250 0.4677
vn 0.8266 -0.0919 0.5552
vn 0.7043 -0.0902 0.7042
vn -0.4904 0.7204 -0.4904
vn -0.5222 0.7817 -0.3410
vn -0.3742 0.8485 -0.3741
vn -0.3408 0.7819 -0.5220
vn -0.5238 0.7798 0.3428
vn -0.4904 0.7204 0.4904
vn -0.3426 0.7801 0.5235
vn -0.3735 0.8460 0.3805
vn 0.3434 0.7792 -0.5243
vn 0.3812 0.8453 -0.3744
vn 0.5236 0.7800 -0.3427
vn 0.4904 0.7204 -0.4904
vn 0.3764 0.8467 0.3760
vn 0.3427 0.7799 0.5237
vn 0.4904 0.7204 0.4904
vn 0.5238 0.7798 0.3428
vn -0.6250 0.6250 -0.4676
vn -0.6250 0.6251 -0.4676
vn -0.5460 0.8195 -0.1739
vn -0.5565 0.8307 0.0134
vn -0.6962 0.6963 0.1745
vn -0.5459 0.8174 0.1840
vn -0.6250 0.6251 0.4676
vn -0.5773 0.5774 0.5773
vn -0.1745 0.6963 0.6962
vn -0.1782 0.8177 0.5473
vn 0.0048 0.8306 0.5569
vn 0.1817 0.8176 0.5464
vn 0.1817 0.8176 0.5463
vn 0.1744 0.6963 0.6962
vn 0.6250 0.6250 0.4676
vn 0.6250 0.6251 0.4676
vn 0.5463 0.8178 0.1811
vn 0.6962 0.6963 0.1744
vn 0.5566 0.8308 0.0039
vn 0.5471 0.8178 -0.1784
vn 0.6962 0.6963 -0.1745
vn 0.4676 0.6250 -0.6250
vn 0.5773 0.5774 -0.5773
vn 0.4676 0.6251 -0.6250
vn 0.1745 0.6963 -0.6962
vn 0.1836 0.8172 -0.5463
vn 0.0113 0.8311 -0.5561
vn -0.1744 0.8198 -0.5454
vn 0.0113 0.8310 -0.5561
vn -0.3407 0.7819 -0.5221
vn -0.1744 0.6963 -0.6962
vn -0.0083 0.9647 -0.2631
vn -0.0743 0.9642 -0.2547
vn -0.1356 0.9647 -0.2256
vn -0.1858 0.9646 -0.1872
vn -0.2281 0.9645 -0.1332
vn -0.2548 0.9643 -0.0723
vn -0.2628 0.9648 -0.0100
vn -0.2572 0.9645 0.0605
vn -0.2383 0.9633 0.1234
vn -0.1968 0.9654 0.1714
vn -0.1436 0.9659 0.2155
vn -0.0908 0.9631 0.2533
vn -0.0261 0.9646 0.2626
vn 0.0447 0.9647 0.2595
vn 0.1078 0.9626 0.2486
vn 0.1583 0.9660 0.2044
vn 0.2051 0.9661 0.1569
vn 0.2484 0.9625 0.1088
vn 0.2609 0.9645 0.0402
vn 0.2622 0.9646 -0.0271
vn 0.2533 0.9632 -0.0901
vn 0.2133 0.9659 -0.1468
vn 0.1724 0.9653 -0.1963
vn 0.1228 0.9632 -0.2391
vn 0.0555 0.9647 -0.2576
vn -0.4132 0.8904 -0.1911
vn -0.4149 0.9075 -0.0650
vn -0.4370 0.8991 0.0261
vn -0.4095 0.9054 0.1121
vn -0.4109 0.8891 0.2018
vn -0.1909 0.8915 -0.4109
vn -0.3407 0.7820 -0.5220
vn -0.2525 0.9327 -0.2575
vn -0.2589 0.9312 -0.2567
vn -0.2121 0.9481 0.2369
vn -0.1861 0.8889 0.4186
vn -0.0688 0.9088 -0.4116
vn 0.0222 0.8994 -0.4365
vn -0.0816 0.9059 0.4156
vn -0.1782 0.8178 0.5473
vn 0.0098 0.8987 0.4385
vn 0.1075 0.9060 -0.4094
vn 0.2006 0.8893 -0.4109
vn 0.0113 0.8311 -0.5560
vn 0.0990 0.9071 0.4091
vn 0.1817 0.8177 0.5463
vn 0.1931 0.8910 0.4108
vn 0.2356 0.9493 -0.2081
vn 0.4177 0.8893 -0.1861
vn 0.4124 0.9073 -0.0821
vn 0.4369 0.8995 0.0077
vn 0.4087 0.9076 0.0961
vn 0.4113 0.8910 0.1921
vn 0.2116 0.9544 0.2106
vn 0.9096 0.1177 0.3985
vn 0.9818 0.1180 0.1488
vn 0.2092 0.1185 -0.9707
vn -0.0286 0.1187 -0.9925
vn -0.5512 0.1195 0.8258
vn -0.3360 0.1175 0.9345
vn -0.0909 0.9631 0.2533
vn -0.0287 0.1187 -0.9925
vn -0.2801 0.1177 -0.9527
vn -0.8820 0.1182 0.4562
vn -0.7483 0.1196 0.6525
vn -0.1968 0.9653 0.1714
vn -0.2384 0.9633 0.1234
vn -0.0977 0.1177 0.9882
vn -0.0261 0.9645 0.2626
vn 0.9877 0.1182 -0.1022
vn 0.9349 0.1177 -0.3349
vn -0.5116 0.1183 -0.8510
vn -0.6999 0.1186 -0.7043
vn -0.1858 0.9646 -0.1873
vn -0.9666 0.1181 0.2274
vn -0.8820 0.1182 0.4561
vn 0.1634 0.1181 0.9795
vn 0.0447 0.9647 0.2596
vn -0.8580 0.1179 -0.5000
vn -0.2282 0.9645 -0.1333
vn -0.5116 0.1183 -0.8511
vn 0.3982 0.1179 0.9097
vn 0.1078 0.9626 0.2487
vn 0.8148 0.1196 -0.5673
vn -0.9552 0.1179 -0.2715
vn -0.9924 0.1183 -0.0340
vn -0.2629 0.9648 -0.0100
vn -0.2549 0.9643 -0.0723
vn 0.6589 0.1195 -0.7427
vn 0.6087 0.1199 0.7843
vn 0.1583 0.9660 0.2045
vn -0.2282 0.9645 -0.1332
vn 0.7884 0.1200 0.6033
vn 0.2051 0.9661 0.1571
vn 0.4521 0.1177 -0.8842
vn 0.4520 0.1177 -0.8842
vn 0.0556 0.9646 -0.2576
vn 0.2051 0.9661 0.1570
vn -0.3843 0.9013 0.1999
vn -0.3222 0.9017 0.2884
vn -0.4168 0.9031 0.1033
vn 0.4123 0.9073 -0.0821
vn -0.2990 0.9067 -0.2976
vn -0.3721 0.9031 -0.2145
vn -0.4097 0.9043 -0.1202
vn -0.4231 0.9060 -0.0118
vn 0.4086 0.9076 0.0961
vn -0.4168 0.9031 0.1032
vn -0.2445 0.8997 0.3617
vn -0.1518 0.9046 0.3983
vn -0.0382 0.9062 0.4211
vn 0.0734 0.9052 0.4185
vn 0.1756 0.9043 0.3891
vn 0.2696 0.9012 0.3393
vn 0.3454 0.9009 0.2629
vn 0.3926 0.9028 0.1754
vn -0.4149 0.9076 -0.0650
vn 0.4191 0.9052 0.0711
vn -0.4131 0.8904 -0.1911
vn 0.4205 0.9063 -0.0427
vn 0.3980 0.9045 -0.1532
vn 0.3557 0.9010 -0.2484
vn 0.2850 0.9022 -0.3238
vn 0.1964 0.9005 -0.3879
vn -0.2120 0.9481 0.2369
vn 0.0953 0.9027 -0.4195
vn 0.0098 0.8987 0.4384
vn -0.0118 0.9057 -0.4237
vn -0.0816 0.9059 0.4155
vn -0.1230 0.9042 -0.4090
vn -0.2193 0.9034 -0.3684
vn -0.2990 0.9066 -0.2976
vn -0.2193 0.9034 -0.3685
vn -0.2801 0.1176 -0.9527
vn 0.2091 0.1185 -0.9707
vn 0.4520 0.1176 -0.8842
vn 0.1964 0.9005 -0.3880
vn 0.0953 0.9027 -0.4196
vn 0.8148 0.1195 -0.5673
vn 0.9349 0.1176 -0.3349
vn 0.4191 0.9051 0.0711
vn 0.9096 0.1176 0.3984
vn 0.9096 0.1176 0.3985
vn 0.7885 0.1199 0.6033
vn 0.3981 0.1179 0.9097
vn 0.0734 0.9052 0.4186
vn -0.3361 0.1175 0.9345
vn -0.7483 0.1195 0.6525
vn -0.8821 0.1181 0.4561
vn -0.3844 0.9013 0.1999
vn -0.9924 0.1182 -0.0340
vn -0.4232 0.9060 -0.0118
vn -0.9552 0.1178 -0.2715
vn -0.9552 0.1179 -0.2716
vn -1.0000 -0.0000 -0.0000
vn -0.9239 -0.0000 -0.3826
vn -0.9239 0.0001 -0.3826
vn -0.9239 -0.0000 -0.3827
vn -0.7071 -0.0000 -0.7071
vn -0.3827 -0.0000 -0.9239
vn -0.3826 -0.0000 -0.9239
vn -0.0000 -0.0000 -1.0000
vn 0.3826 -0.0000 -0.9239
vn 0.3827 -0.0000 -0.9239
vn 0.7071 -0.0000 -0.7071
vn 0.9239 -0.0000 -0.3827
vn 0.9239 -0.0001 -0.3827
vn 1.0000 -0.0000 -0.0000
vn 0.9239 -0.0000 0.3827
vn 0.7071 -0.0000 0.7071
vn 0.3827 -0.0000 0.9239
vn 0.3826 -0.0000 0.9239
vn -0.0000 -0.0000 1.0000
vn -0.3826 -0.0000 0.9239
vn -0.3827 -0.0000 0.9239
vn -0.7071 -0.0000 0.7071
vn -0.9239 -0.0000 0.3827
vn -0.9239 -0.0000 0.3826
vn 0.6964 0.1739 0.6963
vn -0.6964 0.1739 -0.6963
vn -0.9803 -0.0023 0.1974
vn -0.5488 0.1782 0.8168
vn 0.6963 0.1739 0.6964
vt 0.111422 0.099695
vt 0.122769 0.098216
vt 0.121265 0.086548
vt 0.109498 0.087770
vt 0.132415 0.085292
vt 0.143564 0.084037
vt 0.143263 0.073010
vt 0.131714 0.073835
vt 0.144311 0.094844
vt 0.154362 0.093394
vt 0.154361 0.083242
vt 0.120164 0.074661
vt 0.107974 0.075473
vt 0.143052 0.061879
vt 0.131286 0.062236
vt 0.154528 0.072504
vt 0.119519 0.062594
vt 0.107204 0.062968
vt 0.142587 0.050756
vt 0.131009 0.050633
vt 0.154438 0.061533
vt 0.119431 0.050510
vt 0.107214 0.050439
vt 0.142218 0.039731
vt 0.131013 0.039155
vt 0.153861 0.050577
vt 0.119808 0.038578
vt 0.107988 0.038072
vt 0.142308 0.028899
vt 0.131454 0.027870
vt 0.153043 0.039869
vt 0.120601 0.026841
vt 0.109185 0.026052
vt 0.135369 0.107675
vt 0.146164 0.105524
vt 0.133540 0.096530
vt 0.152428 0.029735
vt 0.113265 0.111358
vt 0.124574 0.109825
vt 0.143509 0.018125
vt 0.132603 0.016634
vt 0.155766 0.102782
vt 0.162553 0.100497
vt 0.163861 0.093455
vt 0.165231 0.083548
vt 0.166025 0.072542
vt 0.166025 0.061181
vt 0.165335 0.049841
vt 0.163874 0.038904
vt 0.161906 0.029098
vt 0.160173 0.022148
vt 0.153260 0.020280
vt 0.696279 0.459799
vt 0.699268 0.470780
vt 0.710099 0.468560
vt 0.707733 0.457299
vt 0.121698 0.015143
vt 0.110317 0.014299
vt 0.690522 0.436964
vt 0.693290 0.448819
vt 0.705366 0.446038
vt 0.703009 0.433721
vt 0.720976 0.467132
vt 0.719325 0.455515
vt 0.702358 0.480736
vt 0.712276 0.478988
vt 0.717675 0.443897
vt 0.715991 0.431103
vt 0.731861 0.466240
vt 0.731028 0.454382
vt 0.722429 0.477846
vt 0.730195 0.442524
vt 0.729292 0.429606
vt 0.742760 0.465597
vt 0.742772 0.453868
vt 0.732625 0.477044
vt 0.742784 0.442139
vt 0.742671 0.429238
vt 0.753721 0.465490
vt 0.754493 0.454017
vt 0.742825 0.476398
vt 0.755266 0.442544
vt 0.755886 0.430024
vt 0.764743 0.466178
vt 0.766174 0.454897
vt 0.753022 0.476106
vt 0.767605 0.443617
vt 0.768696 0.431498
vt 0.684825 0.463192
vt 0.681246 0.452046
vt 0.763071 0.476454
vt 0.678346 0.440211
vt 0.775984 0.468190
vt 0.777978 0.456663
vt 0.688404 0.474338
vt 0.692954 0.484090
vt 0.696928 0.490786
vt 0.704330 0.489991
vt 0.713750 0.489046
vt 0.723540 0.488170
vt 0.733367 0.487410
vt 0.743181 0.486756
vt 0.752970 0.486248
vt 0.762406 0.485874
vt 0.769832 0.485638
vt 0.772835 0.478466
vt 0.079524 0.027870
vt 0.068671 0.028899
vt 0.068761 0.039731
vt 0.079965 0.039155
vt 0.779972 0.445137
vt 0.781198 0.433021
vt 0.101794 0.026052
vt 0.090378 0.026841
vt 0.091170 0.038578
vt 0.102991 0.038072
vt 0.068392 0.050756
vt 0.079970 0.050633
vt 0.058551 0.029735
vt 0.057935 0.039869
vt 0.091548 0.050510
vt 0.103765 0.050439
vt 0.067926 0.061879
vt 0.079693 0.062236
vt 0.057117 0.050577
vt 0.091459 0.062594
vt 0.103774 0.062968
vt 0.067716 0.073010
vt 0.079265 0.073835
vt 0.056540 0.061533
vt 0.090814 0.074661
vt 0.103004 0.075473
vt 0.067415 0.084037
vt 0.078564 0.085292
vt 0.056451 0.072504
vt 0.089713 0.086548
vt 0.101481 0.087770
vt 0.066668 0.094844
vt 0.077438 0.096530
vt 0.056618 0.083242
vt 0.088209 0.098216
vt 0.099557 0.099695
vt 0.078375 0.016634
vt 0.089281 0.015143
vt 0.056617 0.093394
vt 0.100662 0.014299
vt 0.064815 0.105524
vt 0.075610 0.107675
vt 0.067470 0.018125
vt 0.057719 0.020280
vt 0.050805 0.022148
vt 0.049073 0.029098
vt 0.047104 0.038904
vt 0.045643 0.049841
vt 0.044953 0.061181
vt 0.044953 0.072542
vt 0.045748 0.083548
vt 0.047118 0.093455
vt 0.048425 0.100497
vt 0.055213 0.102782
vt 0.824451 0.795258
vt 0.813681 0.796944
vt 0.814428 0.807751
vt 0.825577 0.806496
vt 0.086405 0.109825
vt 0.097713 0.111358
vt 0.846570 0.792092
vt 0.835222 0.793572
vt 0.836726 0.805240
vt 0.848494 0.804017
vt 0.814729 0.818778
vt 0.826278 0.817952
vt 0.803630 0.798393
vt 0.803631 0.808546
vt 0.837827 0.817127
vt 0.850017 0.816314
vt 0.814939 0.829909
vt 0.826706 0.829551
vt 0.803464 0.819284
vt 0.838472 0.829194
vt 0.850787 0.828820
vt 0.815405 0.841032
vt 0.826983 0.841155
vt 0.803554 0.830255
vt 0.838561 0.841278
vt 0.850778 0.841349
vt 0.815774 0.852057
vt 0.826979 0.852633
vt 0.804130 0.841211
vt 0.838184 0.853209
vt 0.850004 0.853715
vt 0.815684 0.862889
vt 0.826537 0.863918
vt 0.804949 0.851919
vt 0.837391 0.864947
vt 0.848807 0.865735
vt 0.822623 0.784113
vt 0.833418 0.781963
vt 0.805564 0.862053
vt 0.844726 0.780430
vt 0.814483 0.873663
vt 0.825388 0.875154
vt 0.811828 0.786263
vt 0.802226 0.789006
vt 0.795438 0.791291
vt 0.794131 0.798333
vt 0.792761 0.808240
vt 0.791966 0.819245
vt 0.791966 0.830607
vt 0.792656 0.841947
vt 0.794117 0.852884
vt 0.796086 0.862690
vt 0.797818 0.869639
vt 0.804732 0.871508
vt 0.836294 0.876645
vt 0.847675 0.877488
vt 0.763708 0.495157
vt 0.753931 0.496225
vt 0.755464 0.506369
vt 0.765902 0.505080
vt 0.714194 0.499093
vt 0.704325 0.499391
vt 0.703511 0.509559
vt 0.714113 0.509402
vt 0.769738 0.548058
vt 0.759116 0.548973
vt 0.759815 0.559596
vt 0.769836 0.558188
vt 0.716294 0.552086
vt 0.705660 0.552718
vt 0.707032 0.562744
vt 0.717139 0.562680
vt 0.773246 0.492613
vt 0.744033 0.496915
vt 0.734111 0.497603
vt 0.724147 0.498401
vt 0.694498 0.498176
vt 0.692311 0.508655
vt 0.691291 0.520217
vt 0.703042 0.520324
vt 0.691550 0.531960
vt 0.703244 0.531301
vt 0.692731 0.543454
vt 0.704228 0.542162
vt 0.694865 0.554407
vt 0.697573 0.564141
vt 0.699896 0.570998
vt 0.707018 0.572288
vt 0.717007 0.573533
vt 0.727739 0.562630
vt 0.728037 0.574051
vt 0.738536 0.562168
vt 0.739360 0.573637
vt 0.749305 0.561077
vt 0.750650 0.572435
vt 0.761519 0.570333
vt 0.771243 0.567642
vt 0.779403 0.558191
vt 0.778108 0.565320
vt 0.780665 0.548167
vt 0.781198 0.537030
vt 0.769642 0.537383
vt 0.780739 0.525516
vt 0.769094 0.526485
vt 0.779372 0.513920
vt 0.767788 0.515623
vt 0.776819 0.502672
vt 0.381861 0.765830
vt 0.386838 0.767553
vt 0.392019 0.767825
vt 0.397076 0.766901
vt 0.401834 0.764747
vt 0.405780 0.761387
vt 0.408909 0.757218
vt 0.410837 0.752464
vt 0.411428 0.747232
vt 0.410844 0.741987
vt 0.409027 0.737357
vt 0.405968 0.733166
vt 0.401881 0.729666
vt 0.397351 0.727559
vt 0.392104 0.726560
vt 0.386795 0.726835
vt 0.382213 0.728375
vt 0.377704 0.731113
vt 0.373983 0.735034
vt 0.371642 0.739422
vt 0.370229 0.744589
vt 0.370229 0.749819
vt 0.371493 0.754587
vt 0.373934 0.759294
vt 0.377581 0.763130
vt 0.744125 0.506413
vt 0.738207 0.505493
vt 0.732530 0.505771
vt 0.726685 0.507410
vt 0.721558 0.510451
vt 0.757723 0.517514
vt 0.753891 0.512674
vt 0.749520 0.509122
vt 0.717239 0.514472
vt 0.713851 0.519712
vt 0.759844 0.523425
vt 0.760584 0.529375
vt 0.712145 0.525501
vt 0.711840 0.531645
vt 0.759809 0.535688
vt 0.757376 0.541345
vt 0.713250 0.537786
vt 0.716018 0.543104
vt 0.753815 0.546196
vt 0.748925 0.550194
vt 0.743355 0.552610
vt 0.737295 0.553754
vt 0.731030 0.553176
vt 0.725379 0.551225
vt 0.720096 0.547869
vt 0.196033 0.205269
vt 0.196032 0.199864
vt 0.160587 0.199866
vt 0.160588 0.205272
vt 0.196022 0.168775
vt 0.196021 0.163714
vt 0.160577 0.163717
vt 0.160578 0.168778
vt 0.196031 0.111855
vt 0.196018 0.106666
vt 0.160574 0.106669
vt 0.160587 0.111858
vt 0.196021 0.158448
vt 0.160577 0.158450
vt 0.196030 0.122106
vt 0.196015 0.116828
vt 0.160570 0.116831
vt 0.160586 0.122109
vt 0.196028 0.236412
vt 0.196032 0.231031
vt 0.160588 0.231034
vt 0.160584 0.236415
vt 0.196027 0.194890
vt 0.196025 0.189533
vt 0.160581 0.189536
vt 0.160583 0.194893
vt 0.196034 0.153260
vt 0.196007 0.148119
vt 0.160563 0.148122
vt 0.160590 0.153263
vt 0.196020 0.127371
vt 0.160576 0.127374
vt 0.196032 0.226035
vt 0.160587 0.226038
vt 0.196036 0.142896
vt 0.160592 0.142899
vt 0.196034 0.220694
vt 0.160590 0.220697
vt 0.196036 0.184303
vt 0.160592 0.184306
vt 0.196017 0.137714
vt 0.196019 0.132501
vt 0.160574 0.132504
vt 0.160572 0.137716
vt 0.196018 0.179371
vt 0.160574 0.179373
vt 0.196034 0.215378
vt 0.160590 0.215380
vt 0.196031 0.210544
vt 0.160586 0.210547
vt 0.196036 0.174068
vt 0.160592 0.174071
vt 0.180095 0.020581
vt 0.179234 0.019321
vt 0.174497 0.024309
vt 0.175679 0.025214
vt 0.185502 0.017308
vt 0.184955 0.015969
vt 0.209777 0.019107
vt 0.210706 0.017826
vt 0.204535 0.014930
vt 0.204057 0.016317
vt 0.197935 0.015116
vt 0.198187 0.013646
vt 0.191336 0.013887
vt 0.191553 0.015418
vt 0.171278 0.030034
vt 0.172536 0.030678
vt 0.169456 0.036479
vt 0.170986 0.036799
vt 0.169456 0.043379
vt 0.170928 0.043220
vt 0.171001 0.049678
vt 0.172407 0.049307
vt 0.174019 0.055828
vt 0.175378 0.054966
vt 0.178768 0.060784
vt 0.179673 0.059690
vt 0.184109 0.064285
vt 0.184896 0.063090
vt 0.190540 0.066694
vt 0.190927 0.065163
vt 0.197371 0.066938
vt 0.197289 0.065499
vt 0.203440 0.064359
vt 0.203747 0.065812
vt 0.210042 0.063047
vt 0.209255 0.061705
vt 0.215165 0.058795
vt 0.214201 0.057795
vt 0.219119 0.053581
vt 0.217891 0.052732
vt 0.221810 0.047250
vt 0.220359 0.046811
vt 0.222623 0.040685
vt 0.221191 0.040564
vt 0.222006 0.034014
vt 0.220492 0.034276
vt 0.219510 0.027651
vt 0.218198 0.028334
vt 0.214620 0.023220
vt 0.215805 0.022342
vt 0.207137 0.023372
vt 0.210924 0.026646
vt 0.202605 0.021083
vt 0.213870 0.030750
vt 0.215587 0.035588
vt 0.216130 0.040496
vt 0.215422 0.045621
vt 0.213319 0.050375
vt 0.210502 0.054289
vt 0.206562 0.057500
vt 0.201784 0.059610
vt 0.197021 0.060529
vt 0.191773 0.060108
vt 0.186937 0.058369
vt 0.182967 0.055829
vt 0.179495 0.051968
vt 0.177034 0.047360
vt 0.175862 0.042616
vt 0.176018 0.037353
vt 0.177347 0.032452
vt 0.179753 0.028231
vt 0.183379 0.024556
vt 0.187728 0.021794
vt 0.192529 0.020339
vt 0.197630 0.020160
vt 0.796615 0.893696
vt 0.742003 0.893696
vt 0.742003 0.901836
vt 0.796615 0.901836
vt 0.742003 0.909975
vt 0.796615 0.909975
vt 0.742003 0.918115
vt 0.796615 0.918115
vt 0.742003 0.926255
vt 0.796615 0.926255
vt 0.742003 0.934394
vt 0.796615 0.934394
vt 0.742003 0.942534
vt 0.796615 0.942534
vt 0.742003 0.950674
vt 0.796615 0.950674
vt 0.742003 0.958813
vt 0.796615 0.958813
vt 0.742003 0.966953
vt 0.796615 0.966953
vt 0.742003 0.975093
vt 0.796615 0.975093
vt 0.742003 0.983232
vt 0.796615 0.983232
vt 0.742003 0.991372
vt 0.796615 0.991372
vt 0.742003 0.999512
vt 0.796615 0.999512
vt 0.796615 0.869277
vt 0.742003 0.869277
vt 0.742003 0.877417
vt 0.796615 0.877417
vt 0.742003 0.885556
vt 0.796615 0.885556
s 1
f 1/1/1 2/2/2 3/3/3
f 1/1/1 3/3/3 4/4/4
f 5/5/5 6/6/6 7/7/7
f 5/5/5 7/7/7 8/8/8
f 9/9/9 10/10/10 11/11/11
f 9/9/9 11/11/11 12/6/6
f 13/4/4 14/3/3 15/12/12
f 13/4/4 15/12/12 16/13/13
f 17/8/8 18/7/7 19/14/14
f 17/8/8 19/14/14 20/15/15
f 21/6/6 22/11/11 23/16/16
f 21/6/6 23/16/16 24/7/7
f 25/13/13 26/12/12 27/17/17
f 25/13/13 27/17/17 28/18/18
f 29/15/15 30/14/14 31/19/19
f 29/15/15 31/19/19 32/20/20
f 33/7/7 34/16/21 35/21/22
f 33/7/7 35/21/22 36/14/14
f 37/18/18 38/17/17 39/22/23
f 37/18/18 39/22/23 40/23/24
f 41/20/20 42/19/25 43/24/26
f 41/20/20 43/24/26 44/25/27
f 45/14/14 46/21/22 47/26/28
f 45/14/14 47/26/28 48/19/25
f 49/23/29 50/22/30 51/27/31
f 49/23/29 51/27/31 52/28/32
f 53/25/27 54/24/26 55/29/33
f 53/25/27 55/29/33 56/30/34
f 57/19/25 58/26/28 59/31/35
f 57/19/25 59/31/35 60/24/26
f 61/28/32 62/27/31 63/32/36
f 61/28/32 63/32/36 64/33/37
f 65/34/38 66/35/39 67/9/9
f 65/34/38 67/9/9 68/36/40
f 69/24/26 70/31/35 71/37/41
f 69/24/26 71/37/41 72/29/33
f 73/38/42 74/39/43 75/2/2
f 73/38/42 75/2/2 76/1/44
f 77/30/45 78/29/33 79/40/46
f 77/30/45 79/40/46 80/41/47
f 81/35/39 82/42/48 83/10/10
f 81/35/39 83/10/10 84/9/9
f 85/42/48 86/43/49 87/44/50
f 85/42/48 87/44/50 88/10/10
f 89/10/10 90/44/50 91/45/51
f 89/10/10 91/45/51 92/11/11
f 93/11/11 94/45/51 95/46/52
f 93/11/11 95/46/52 96/16/16
f 97/16/16 98/46/53 99/47/54
f 97/16/16 99/47/54 100/21/22
f 101/21/22 102/47/54 103/48/55
f 101/21/22 103/48/55 104/26/56
f 105/26/56 106/48/57 107/49/58
f 105/26/56 107/49/58 108/31/35
f 109/31/35 110/49/58 111/50/59
f 109/31/35 111/50/59 112/37/41
f 113/37/41 114/50/59 115/51/60
f 113/37/41 115/51/60 116/52/61
f 117/29/33 118/37/41 119/52/61
f 117/29/33 119/52/61 120/40/46
f 121/53/62 122/54/63 123/55/64
f 121/53/62 123/55/64 124/56/65
f 125/33/37 126/32/36 127/57/66
f 125/33/37 127/57/66 128/58/67
f 129/59/68 130/60/69 131/61/70
f 129/59/68 131/61/70 132/62/71
f 133/56/65 134/55/64 135/63/72
f 133/56/65 135/63/72 136/64/73
f 137/54/63 138/65/74 139/66/75
f 137/54/63 139/66/75 140/55/64
f 141/62/71 142/61/70 143/67/76
f 141/62/71 143/67/76 144/68/77
f 145/64/73 146/63/72 147/69/78
f 145/64/73 147/69/78 148/70/79
f 149/55/64 150/66/75 151/71/80
f 149/55/64 151/71/80 152/63/72
f 153/68/77 154/67/76 155/72/81
f 153/68/77 155/72/81 156/73/82
f 157/70/79 158/69/78 159/74/83
f 157/70/79 159/74/83 160/75/84
f 161/63/72 162/71/80 163/76/85
f 161/63/72 163/76/85 164/69/78
f 165/73/82 166/72/81 167/77/86
f 165/73/82 167/77/86 168/78/87
f 169/75/84 170/74/88 171/79/89
f 169/75/84 171/79/89 172/80/90
f 173/69/78 174/76/85 175/81/91
f 173/69/78 175/81/91 176/74/88
f 177/78/87 178/77/86 179/82/92
f 177/78/87 179/82/92 180/83/93
f 181/80/90 182/79/89 183/84/94
f 181/80/90 183/84/94 184/85/95
f 185/74/88 186/81/91 187/86/96
f 185/74/88 187/86/96 188/79/89
f 189/83/93 190/82/92 191/87/97
f 189/83/93 191/87/97 192/88/98
f 193/89/47 194/53/62 195/60/69
f 193/89/47 195/60/69 196/90/66
f 197/79/89 198/86/96 199/91/99
f 197/79/89 199/91/99 200/84/94
f 201/92/100 202/90/66 203/60/69
f 201/92/100 203/60/69 204/59/68
f 205/85/95 206/84/94 207/93/101
f 205/85/95 207/93/101 208/94/102
f 209/95/46 210/96/61 211/65/74
f 209/95/46 211/65/74 212/54/63
f 213/96/61 214/97/103 215/98/104
f 213/96/61 215/98/104 216/65/74
f 217/65/74 218/98/105 219/99/106
f 217/65/74 219/99/106 220/66/107
f 221/66/75 222/99/106 223/100/108
f 221/66/75 223/100/108 224/71/80
f 225/71/80 226/100/108 227/101/109
f 225/71/80 227/101/109 228/76/85
f 229/76/85 230/101/109 231/102/110
f 229/76/85 231/102/110 232/81/111
f 233/81/111 234/102/110 235/103/112
f 233/81/111 235/103/112 236/86/96
f 237/86/96 238/103/112 239/104/113
f 237/86/96 239/104/113 240/91/99
f 241/91/99 242/104/114 243/105/115
f 241/91/99 243/105/115 244/106/116
f 245/84/94 246/91/99 247/106/117
f 245/84/94 247/106/117 248/93/101
f 249/107/118 250/108/119 251/109/120
f 249/107/118 251/109/120 252/110/121
f 253/88/122 254/87/97 255/111/123
f 253/88/122 255/111/123 256/112/124
f 257/113/125 258/114/126 259/115/127
f 257/113/125 259/115/127 260/116/128
f 261/110/121 262/109/120 263/117/129
f 261/110/121 263/117/129 264/118/130
f 265/108/119 266/119/131 267/120/132
f 265/108/119 267/120/132 268/109/120
f 269/116/128 270/115/127 271/121/133
f 269/116/128 271/121/133 272/122/134
f 273/118/130 274/117/129 275/123/135
f 273/118/130 275/123/135 276/124/136
f 277/109/120 278/120/132 279/125/137
f 277/109/120 279/125/137 280/117/129
f 281/122/134 282/121/133 283/126/138
f 281/122/134 283/126/138 284/127/139
f 285/124/136 286/123/135 287/128/140
f 285/124/136 287/128/140 288/129/141
f 289/117/129 290/125/137 291/130/142
f 289/117/129 291/130/142 292/123/135
f 293/127/139 294/126/138 295/131/143
f 293/127/139 295/131/143 296/132/144
f 297/129/141 298/128/145 299/133/146
f 297/129/141 299/133/146 300/134/147
f 301/123/135 302/130/142 303/135/148
f 301/123/135 303/135/148 304/128/145
f 305/132/144 306/131/143 307/136/149
f 305/132/144 307/136/149 308/137/150
f 309/134/147 310/133/146 311/138/151
f 309/134/147 311/138/151 312/139/152
f 313/128/145 314/135/148 315/140/153
f 313/128/145 315/140/153 316/133/146
f 317/137/150 318/136/149 319/141/154
f 317/137/150 319/141/154 320/142/155
f 321/143/156 322/107/118 323/114/126
f 321/143/156 323/114/126 324/144/123
f 325/133/146 326/140/153 327/145/157
f 325/133/146 327/145/157 328/138/151
f 329/146/158 330/144/123 331/114/126
f 329/146/158 331/114/126 332/113/125
f 333/139/152 334/138/151 335/147/159
f 333/139/152 335/147/159 336/148/160
f 337/149/101 338/150/161 339/119/131
f 337/149/101 339/119/131 340/108/119
f 341/150/162 342/151/163 343/152/164
f 341/150/162 343/152/164 344/119/131
f 345/119/131 346/152/164 347/153/165
f 345/119/131 347/153/165 348/120/132
f 349/120/132 350/153/165 351/154/166
f 349/120/132 351/154/166 352/125/137
f 353/125/137 354/154/166 355/155/167
f 353/125/137 355/155/167 356/130/142
f 357/130/142 358/155/167 359/156/168
f 357/130/142 359/156/168 360/135/148
f 361/135/148 362/156/168 363/157/169
f 361/135/148 363/157/169 364/140/153
f 365/140/153 366/157/169 367/158/170
f 365/140/153 367/158/170 368/145/157
f 369/145/157 370/158/171 371/159/172
f 369/145/157 371/159/172 372/160/173
f 373/138/151 374/145/157 375/160/173
f 373/138/151 375/160/173 376/147/159
f 377/161/174 378/162/175 379/163/176
f 377/161/174 379/163/176 380/164/177
f 381/142/155 382/141/154 383/165/178
f 381/142/155 383/165/178 384/166/179
f 385/167/180 386/168/181 387/169/182
f 385/167/180 387/169/182 388/170/183
f 389/164/177 390/163/176 391/171/184
f 389/164/177 391/171/184 392/172/185
f 393/162/175 394/173/186 395/174/187
f 393/162/175 395/174/187 396/163/176
f 397/170/183 398/169/182 399/175/188
f 397/170/183 399/175/188 400/176/189
f 401/172/185 402/171/184 403/177/190
f 401/172/185 403/177/190 404/178/191
f 405/163/176 406/174/187 407/179/192
f 405/163/176 407/179/192 408/171/184
f 409/176/189 410/175/188 411/180/193
f 409/176/189 411/180/193 412/181/194
f 413/178/191 414/177/190 415/182/195
f 413/178/191 415/182/195 416/183/196
f 417/171/184 418/179/192 419/184/197
f 417/171/184 419/184/197 420/177/190
f 421/181/194 422/180/193 423/185/198
f 421/181/194 423/185/198 424/186/199
f 425/183/196 426/182/195 427/187/200
f 425/183/196 427/187/200 428/188/201
f 429/177/190 430/184/197 431/189/202
f 429/177/190 431/189/202 432/182/195
f 433/186/203 434/185/198 435/190/204
f 433/186/203 435/190/204 436/191/205
f 437/188/201 438/187/200 439/192/206
f 437/188/201 439/192/206 440/193/207
f 441/182/195 442/189/202 443/194/208
f 441/182/195 443/194/208 444/187/200
f 445/191/205 446/190/204 447/195/209
f 445/191/205 447/195/209 448/196/210
f 449/197/160 450/161/174 451/168/181
f 449/197/160 451/168/181 452/198/178
f 453/187/200 454/194/208 455/199/211
f 453/187/200 455/199/211 456/192/206
f 457/200/212 458/198/178 459/168/181
f 457/200/212 459/168/181 460/167/180
f 461/193/207 462/192/206 463/201/39
f 461/193/207 463/201/39 464/202/38
f 465/203/159 466/204/173 467/173/186
f 465/203/159 467/173/186 468/162/175
f 469/204/173 470/205/213 471/206/214
f 469/204/173 471/206/214 472/173/186
f 473/173/186 474/206/214 475/207/215
f 473/173/186 475/207/215 476/174/187
f 477/174/187 478/207/215 479/208/216
f 477/174/187 479/208/216 480/179/192
f 481/179/192 482/208/216 483/209/217
f 481/179/192 483/209/217 484/184/197
f 485/184/197 486/209/217 487/210/218
f 485/184/197 487/210/218 488/189/202
f 489/189/202 490/210/219 491/211/220
f 489/189/202 491/211/220 492/194/208
f 493/194/208 494/211/220 495/212/221
f 493/194/208 495/212/221 496/199/211
f 497/199/211 498/212/222 499/213/49
f 497/199/211 499/213/49 500/214/48
f 501/192/206 502/199/211 503/214/48
f 501/192/206 503/214/48 504/201/39
f 505/196/223 506/195/209 507/215/43
f 505/196/223 507/215/43 508/216/224
f 509/217/225 510/218/226 511/219/227
f 509/217/225 511/219/227 512/220/228
f 513/221/229 514/222/230 515/223/231
f 513/221/229 515/223/231 516/224/232
f 517/225/233 518/226/234 519/227/235
f 517/225/233 519/227/235 520/228/236
f 521/229/237 522/230/238 523/231/239
f 521/229/237 523/231/239 524/232/240
f 525/105/163 526/104/241 527/217/225
f 525/105/163 527/217/225 528/233/164
f 529/104/242 530/103/112 531/218/226
f 529/104/242 531/218/226 532/217/225
f 533/103/112 534/102/110 535/234/243
f 533/103/112 535/234/243 536/218/226
f 537/102/110 538/101/109 539/235/244
f 537/102/110 539/235/244 540/234/243
f 541/101/109 542/100/245 543/236/246
f 541/101/109 543/236/246 544/235/244
f 545/100/245 546/99/106 547/221/229
f 545/100/245 547/221/229 548/236/246
f 549/99/106 550/98/247 551/222/230
f 549/99/106 551/222/230 552/221/229
f 553/98/104 554/97/248 555/237/59
f 553/98/104 555/237/59 556/222/230
f 557/222/230 558/237/59 559/238/58
f 557/222/230 559/238/58 560/223/231
f 561/223/231 562/238/58 563/239/249
f 561/223/231 563/239/249 564/240/250
f 565/240/250 566/239/249 567/241/54
f 565/240/250 567/241/54 568/242/251
f 569/242/251 570/241/54 571/243/53
f 569/242/251 571/243/53 572/244/252
f 573/244/253 574/243/254 575/245/51
f 573/244/253 575/245/51 576/230/238
f 577/230/238 578/245/51 579/246/50
f 577/230/238 579/246/50 580/231/239
f 581/231/239 582/246/50 583/247/49
f 581/231/239 583/247/49 584/248/255
f 585/232/240 586/231/239 587/248/256
f 585/232/240 587/248/256 588/249/220
f 589/250/257 590/232/240 591/249/220
f 589/250/257 591/249/220 592/251/258
f 593/252/259 594/250/257 595/251/218
f 593/252/259 595/251/218 596/253/217
f 597/254/260 598/252/259 599/253/217
f 597/254/260 599/253/217 600/255/261
f 601/227/235 602/254/260 603/255/261
f 601/227/235 603/255/261 604/256/215
f 605/228/236 606/227/235 607/256/215
f 605/228/236 607/256/215 608/257/214
f 609/258/262 610/228/236 611/257/214
f 609/258/262 611/257/214 612/259/263
f 613/260/169 614/225/233 615/228/236
f 613/260/169 615/228/236 616/258/264
f 617/261/265 618/262/266 619/225/233
f 617/261/265 619/225/233 620/260/169
f 621/263/167 622/264/267 623/262/266
f 621/263/167 623/262/266 624/261/265
f 625/265/166 626/266/268 627/264/269
f 625/265/166 627/264/269 628/263/167
f 629/267/165 630/220/270 631/266/268
f 629/267/165 631/266/268 632/265/271
f 633/233/164 634/217/225 635/220/270
f 633/233/164 635/220/270 636/267/165
f 660/268/272 661/269/273 637/270/274
f 637/270/274 638/271/275 639/272/276
f 639/272/276 640/273/277 641/274/278
f 641/274/278 642/275/279 643/276/280
f 643/276/280 644/277/281 645/278/282
f 645/278/282 646/279/283 647/280/284
f 647/280/284 648/281/285 649/282/286
f 649/282/286 650/283/287 651/284/288
f 651/284/288 652/285/289 653/286/290
f 653/286/290 654/287/291 655/288/292
f 655/288/292 656/289/293 657/290/294
f 657/290/294 658/291/295 659/292/296
f 659/292/296 660/268/272 637/270/274
f 637/270/274 639/272/276 641/274/278
f 641/274/278 643/276/280 645/278/282
f 645/278/282 647/280/284 649/282/286
f 649/282/286 651/284/288 653/286/290
f 653/286/290 655/288/292 657/290/294
f 657/290/294 659/292/296 637/270/274
f 637/270/274 641/274/278 645/278/282
f 645/278/282 649/282/286 653/286/290
f 653/286/290 657/290/294 637/270/274
f 637/270/274 645/278/282 653/286/290
f 662/218/226 663/234/243 664/293/297
f 662/218/226 664/293/297 665/219/227
f 669/294/298 670/293/297 666/234/243
f 666/234/243 667/235/244 668/295/299
f 668/295/299 669/294/298 666/234/243
f 674/296/300 675/295/299 671/235/244
f 671/235/244 672/236/246 673/297/301
f 673/297/301 674/296/300 671/235/244
f 676/297/301 677/236/246 678/221/229
f 676/297/301 678/221/229 679/224/232
f 680/298/302 681/266/268 682/220/303
f 680/298/302 682/220/303 683/219/227
f 688/299/304 684/298/302 685/219/227
f 685/219/227 686/293/297 687/300/305
f 687/300/305 688/299/304 685/219/227
f 692/301/306 689/297/301 690/224/232
f 692/301/306 690/224/232 691/302/307
f 693/302/307 694/224/232 695/223/231
f 693/302/307 695/223/231 696/240/250
f 701/303/308 697/304/309 698/264/267
f 698/264/267 699/266/268 700/298/302
f 700/298/302 701/303/308 698/264/267
f 706/305/310 702/302/307 703/240/311
f 703/240/311 704/242/251 705/306/312
f 705/306/312 706/305/310 703/240/311
f 710/307/313 711/308/314 707/262/266
f 707/262/266 708/264/315 709/304/309
f 709/304/309 710/307/313 707/262/266
f 715/309/316 716/306/312 712/242/251
f 712/242/251 713/244/317 714/310/318
f 714/310/318 715/309/316 712/242/251
f 717/226/234 718/225/233 719/262/266
f 717/226/234 719/262/266 720/308/314
f 724/311/319 721/312/320 722/226/234
f 724/311/319 722/226/234 723/308/314
f 725/310/318 726/244/253 727/230/238
f 725/310/318 727/230/238 728/229/237
f 729/312/320 730/254/260 731/227/235
f 729/312/320 731/227/235 732/226/234
f 736/313/321 737/314/322 733/252/259
f 733/252/259 734/254/260 735/312/320
f 735/312/320 736/313/321 733/252/259
f 741/315/323 742/316/324 738/250/257
f 738/250/257 739/252/259 740/314/322
f 740/314/322 741/315/323 738/250/257
f 743/229/237 744/232/240 745/250/257
f 743/229/237 745/250/257 746/316/324
f 749/317/325 750/310/318 747/229/237
f 749/317/325 747/229/237 748/316/324
f 751/318/326 752/319/327 753/320/290
f 751/318/326 753/320/290 754/321/289
f 755/322/328 756/323/329 757/324/272
f 755/322/328 757/324/272 758/325/296
f 759/326/330 760/327/331 761/328/332
f 759/326/330 761/328/332 762/329/282
f 763/323/333 764/330/334 765/331/273
f 763/323/333 765/331/273 766/324/272
f 767/332/335 768/333/336 769/334/337
f 767/332/335 769/334/337 770/335/338
f 771/336/331 772/337/339 773/338/340
f 771/336/331 773/338/340 774/339/283
f 775/340/341 776/341/342 777/342/292
f 775/340/341 777/342/292 778/343/291
f 779/344/343 780/345/344 781/346/345
f 779/344/343 781/346/345 782/347/274
f 783/348/346 784/332/347 785/335/338
f 783/348/346 785/335/338 786/349/279
f 787/319/327 788/340/341 789/343/291
f 787/319/327 789/343/291 790/320/290
f 791/337/339 792/350/348 793/351/349
f 791/337/339 793/351/349 794/338/284
f 795/345/344 796/352/350 797/353/351
f 795/345/344 797/353/351 798/346/345
f 799/330/334 800/344/352 801/347/274
f 799/330/334 801/347/274 802/331/273
f 803/350/348 804/354/353 805/355/354
f 803/350/348 805/355/354 806/351/349
f 807/341/342 808/356/355 809/357/293
f 807/341/342 809/357/293 810/342/292
f 811/358/356 812/359/357 813/360/358
f 811/358/356 813/360/358 814/361/359
f 815/356/355 816/362/360 817/363/294
f 815/356/355 817/363/294 818/357/293
f 819/354/353 820/364/361 821/365/362
f 819/354/353 821/365/362 822/355/354
f 823/352/350 824/358/356 825/361/359
f 823/352/350 825/361/359 826/353/363
f 827/364/361 828/366/364 829/367/365
f 827/364/361 829/367/365 830/365/287
f 831/362/360 832/368/366 833/369/295
f 831/362/360 833/369/295 834/363/294
f 835/359/357 836/348/346 837/349/279
f 835/359/357 837/349/279 838/360/358
f 839/368/367 840/322/328 841/325/368
f 839/368/367 841/325/368 842/369/295
f 843/366/364 844/318/326 845/321/289
f 843/366/364 845/321/289 846/367/369
f 847/333/336 848/326/330 849/329/282
f 847/333/336 849/329/282 850/334/337
f 851/370/370 852/371/320 853/372/319
f 851/370/370 853/372/319 854/373/371
f 855/371/320 856/370/370 857/374/372
f 855/371/320 857/374/372 858/375/373
f 859/376/374 860/377/325 861/378/324
f 859/376/374 861/378/324 862/379/375
f 863/380/376 864/381/323 865/382/322
f 863/380/376 865/382/322 866/383/377
f 867/379/375 868/378/324 869/381/378
f 867/379/375 869/381/378 870/380/376
f 871/383/377 872/382/322 873/375/321
f 871/383/377 873/375/321 874/374/379
f 875/373/371 876/372/319 877/384/314
f 875/373/371 877/384/314 878/385/380
f 879/385/380 880/384/314 881/386/313
f 879/385/380 881/386/313 882/387/381
f 883/387/381 884/386/313 885/388/309
f 883/387/381 885/388/309 886/389/382
f 887/389/382 888/388/309 889/390/308
f 887/389/382 889/390/308 890/391/383
f 891/391/383 892/390/308 893/392/302
f 891/391/383 893/392/302 894/393/384
f 895/393/384 896/392/302 897/394/304
f 895/393/384 897/394/304 898/395/385
f 899/396/305 900/397/386 901/395/385
f 899/396/305 901/395/385 902/394/304
f 903/398/297 904/399/387 905/397/386
f 903/398/297 905/397/386 906/396/305
f 907/400/388 908/401/389 909/399/387
f 907/400/388 909/399/387 910/398/390
f 911/402/391 912/403/299 913/404/300
f 911/402/391 913/404/300 914/405/392
f 915/403/299 916/402/391 917/401/389
f 915/403/299 917/401/389 918/400/298
f 919/406/301 920/407/393 921/405/392
f 919/406/301 921/405/392 922/404/300
f 923/407/393 924/406/301 925/408/306
f 923/407/393 925/408/306 926/409/394
f 927/410/307 928/411/395 929/409/394
f 927/410/307 929/409/394 930/408/396
f 931/412/310 932/413/397 933/411/395
f 931/412/310 933/411/395 934/410/307
f 935/414/398 936/415/399 937/413/397
f 935/414/398 937/413/397 938/412/400
f 939/416/316 940/417/401 941/415/399
f 939/416/316 941/415/399 942/414/312
f 943/418/402 944/419/318 945/377/325
f 943/418/402 945/377/325 946/376/374
f 947/417/401 948/416/316 949/419/318
f 947/417/401 949/419/318 950/418/402
f 951/420/344 952/421/343 953/418/402
f 951/420/344 953/418/402 954/376/403
f 955/422/350 956/420/344 957/376/403
f 955/422/350 957/376/403 958/379/375
f 959/421/352 960/423/334 961/417/401
f 959/421/352 961/417/401 962/418/404
f 963/423/405 964/424/329 965/415/399
f 963/423/405 965/415/399 966/417/401
f 967/424/329 968/425/406 969/413/397
f 967/424/329 969/413/397 970/415/399
f 971/425/328 972/426/407 973/411/408
f 971/425/328 973/411/408 974/413/409
f 975/426/367 976/427/360 977/409/394
f 975/426/367 977/409/394 978/411/395
f 979/427/360 980/428/410 981/407/393
f 979/427/360 981/407/393 982/409/394
f 983/428/355 984/429/411 985/405/392
f 983/428/355 985/405/392 986/407/393
f 987/429/342 988/430/341 989/402/391
f 987/429/342 989/402/391 990/405/392
f 991/430/341 992/431/327 993/401/412
f 991/430/341 993/401/412 994/402/391
f 995/431/327 996/432/413 997/399/387
f 995/431/327 997/399/387 998/401/389
f 999/432/414 1000/433/415 1001/397/386
f 999/432/414 1001/397/386 1002/399/387
f 1003/433/364 1004/434/361 1005/395/385
f 1003/433/364 1005/395/385 1006/397/386
f 1007/434/361 1008/435/353 1009/393/384
f 1007/434/361 1009/393/384 1010/395/385
f 1011/435/416 1012/436/348 1013/391/417
f 1011/435/416 1013/391/417 1014/393/384
f 1015/436/348 1016/437/339 1017/389/382
f 1015/436/348 1017/389/382 1018/391/383
f 1019/437/339 1020/438/331 1021/387/381
f 1019/437/339 1021/387/381 1022/389/382
f 1023/438/418 1024/439/330 1025/385/380
f 1023/438/418 1025/385/380 1026/387/381
f 1027/439/330 1028/440/419 1029/373/371
f 1027/439/330 1029/373/371 1030/385/380
f 1031/440/336 1032/441/335 1033/370/370
f 1031/440/336 1033/370/370 1034/373/371
f 1035/441/420 1036/442/346 1037/374/372
f 1035/441/420 1037/374/372 1038/370/421
f 1039/442/346 1040/443/422 1041/383/423
f 1039/442/346 1041/383/423 1042/374/372
f 1043/443/422 1044/444/424 1045/380/376
f 1043/443/422 1045/380/376 1046/383/377
f 1047/444/425 1048/422/350 1049/379/375
f 1047/444/425 1049/379/375 1050/380/376
f 1051/36/40 1052/9/9 1053/6/6
f 1051/36/40 1053/6/6 1054/5/5
f 1055/445/426 1056/446/426 1057/447/427
f 1055/445/426 1057/447/427 1058/448/428
f 1059/448/429 1060/447/429 1061/449/430
f 1059/448/429 1061/449/430 1062/450/430
f 1063/450/430 1064/449/430 1065/451/431
f 1063/450/430 1065/451/431 1066/452/431
f 1067/452/432 1068/451/432 1069/453/433
f 1067/452/432 1069/453/433 1070/454/433
f 1071/454/433 1072/453/433 1073/455/434
f 1071/454/433 1073/455/434 1074/456/434
f 1075/456/435 1076/455/435 1077/457/436
f 1075/456/435 1077/457/436 1078/458/436
f 1079/458/436 1080/457/436 1081/459/437
f 1079/458/436 1081/459/437 1082/460/437
f 1083/460/437 1084/459/438 1085/461/439
f 1083/460/437 1085/461/439 1086/462/439
f 1087/462/439 1088/461/439 1089/463/440
f 1087/462/439 1089/463/440 1090/464/440
f 1091/464/440 1092/463/440 1093/465/441
f 1091/464/440 1093/465/441 1094/466/441
f 1095/466/441 1096/465/441 1097/467/442
f 1095/466/441 1097/467/442 1098/468/442
f 1099/468/443 1100/467/443 1101/469/444
f 1099/468/443 1101/469/444 1102/470/444
f 1103/470/444 1104/469/444 1105/471/445
f 1103/470/444 1105/471/445 1106/472/445
f 1107/473/446 1108/474/446 1109/475/447
f 1107/473/446 1109/475/447 1110/476/447
f 1111/476/447 1112/475/447 1113/477/448
f 1111/476/447 1113/477/448 1114/478/448
f 1115/478/449 1116/477/449 1117/446/426
f 1115/478/449 1117/446/426 1118/445/426
f 1119/2/2 1120/36/40 1121/5/5
f 1119/2/2 1121/5/5 1122/3/3
f 1123/195/209 1124/193/207 1125/202/450
f 1123/195/209 1125/202/450 1126/215/43
f 1127/203/159 1128/162/175 1129/161/174
f 1127/203/159 1129/161/174 1130/197/160
f 1131/190/204 1132/188/201 1133/193/207
f 1131/190/204 1133/193/207 1134/195/209
f 1135/185/198 1136/183/196 1137/188/201
f 1135/185/198 1137/188/201 1138/190/204
f 1139/180/193 1140/178/191 1141/183/196
f 1139/180/193 1141/183/196 1142/185/198
f 1143/175/188 1144/172/185 1145/178/191
f 1143/175/188 1145/178/191 1146/180/193
f 1147/169/182 1148/164/177 1149/172/185
f 1147/169/182 1149/172/185 1150/175/188
f 1151/168/181 1152/161/174 1153/164/177
f 1151/168/181 1153/164/177 1154/169/182
f 1155/141/154 1156/139/152 1157/148/160
f 1155/141/154 1157/148/160 1158/165/178
f 1159/149/101 1160/108/119 1161/107/118
f 1159/149/101 1161/107/118 1162/143/102
f 1163/136/149 1164/134/147 1165/139/152
f 1163/136/149 1165/139/152 1166/141/154
f 1167/131/143 1168/129/141 1169/134/147
f 1167/131/143 1169/134/147 1170/136/149
f 1171/126/138 1172/124/136 1173/129/141
f 1171/126/138 1173/129/141 1174/131/143
f 1175/121/133 1176/118/130 1177/124/136
f 1175/121/133 1177/124/136 1178/126/138
f 1179/115/127 1180/110/121 1181/118/130
f 1179/115/127 1181/118/130 1182/121/133
f 1183/114/126 1184/107/118 1185/110/121
f 1183/114/126 1185/110/121 1186/115/127
f 1187/87/97 1188/85/95 1189/94/451
f 1187/87/97 1189/94/451 1190/111/123
f 1191/95/46 1192/54/63 1193/53/62
f 1191/95/46 1193/53/62 1194/89/47
f 1195/82/92 1196/80/90 1197/85/95
f 1195/82/92 1197/85/95 1198/87/97
f 1199/77/86 1200/75/84 1201/80/90
f 1199/77/86 1201/80/90 1202/82/92
f 1203/72/81 1204/70/79 1205/75/84
f 1203/72/81 1205/75/84 1206/77/86
f 1207/67/76 1208/64/73 1209/70/79
f 1207/67/76 1209/70/79 1210/72/81
f 1211/61/70 1212/56/65 1213/64/73
f 1211/61/70 1213/64/73 1214/67/452
f 1215/60/69 1216/53/62 1217/56/65
f 1215/60/69 1217/56/65 1218/61/70
f 1219/32/36 1220/30/453 1221/41/47
f 1219/32/36 1221/41/47 1222/57/66
f 1223/39/43 1224/34/454 1225/36/40
f 1223/39/43 1225/36/40 1226/2/2
f 1227/27/31 1228/25/27 1229/30/453
f 1227/27/31 1229/30/453 1230/32/36
f 1231/22/23 1232/20/20 1233/25/27
f 1231/22/23 1233/25/27 1234/27/31
f 1235/17/17 1236/15/15 1237/20/20
f 1235/17/17 1237/20/20 1238/22/23
f 1239/12/12 1240/8/8 1241/15/15
f 1239/12/12 1241/15/15 1242/17/17
f 1243/3/3 1244/5/5 1245/8/8
f 1243/3/3 1245/8/8 1246/12/12
