# Blender 5.2.0 LTS
# www.blender.org
mtllib joystick_thumb_R.mtl
o stick_thumbrest_R
v -0.197825 1.102101 -0.134340
v -0.200435 1.070983 -0.097575
v -0.154050 0.955612 0.020425
v -0.209668 1.083907 -0.066280
v -0.208156 1.114161 -0.104432
v -0.110676 0.845528 0.044656
v -0.188811 1.027274 -0.017641
v -0.126587 0.890284 0.039711
v -0.156081 0.946556 -0.004320
v -0.114316 0.839180 0.026801
v -0.184911 1.015444 -0.044458
v -0.130662 0.883674 0.017291
v -0.184136 1.118087 -0.150683
v -0.189180 1.124599 -0.144675
v -0.195735 1.127198 -0.131235
v -0.108998 0.826024 0.031790
v -0.105859 0.830359 0.043914
v -0.107479 0.827131 0.037981
v -0.114470 0.843446 0.035764
v -0.132378 0.887511 0.028518
v -0.160454 0.951024 0.007138
v -0.193113 1.021115 -0.032594
v -0.212058 1.076860 -0.083278
v -0.209207 1.107515 -0.120605
v -0.104661 0.820688 0.038629
v -0.116349 1.061534 -0.123529
v -0.166783 1.131791 -0.155090
v -0.120528 1.004291 -0.062984
v -0.162670 1.120209 -0.160363
v -0.092228 0.838972 0.059657
v -0.124675 0.881712 0.012573
v -0.092074 0.891239 0.057885
v -0.111958 0.835519 0.023052
v -0.097193 0.961116 0.042284
v -0.107276 0.821531 0.030963
v -0.108399 1.034673 0.013275
v -0.181231 1.133963 -0.132698
v -0.126813 1.096889 -0.030763
v -0.193821 1.119133 -0.094814
v -0.138997 1.134180 -0.077576
v -0.193797 1.087092 -0.054214
v -0.173298 1.029437 -0.007265
v -0.140750 0.957489 0.028155
v -0.116438 0.891026 0.046606
v -0.102848 0.826938 0.046510
v -0.104854 0.844363 0.050415
v -0.139220 1.151418 -0.132602
v -0.143967 0.944473 -0.009161
v -0.125494 1.150690 -0.175105
v -0.170717 1.100107 -0.144099
v -0.175103 1.068461 -0.105717
v -0.165322 1.012756 -0.049920
v -0.101996 0.813152 0.038512
v -0.104938 0.814226 0.028362
v -0.148396 1.136536 -0.133595
v -0.151221 1.118423 -0.092341
v -0.143505 1.085400 -0.051024
v -0.125446 1.028336 -0.005053
v -0.109490 0.958512 0.032398
v -0.099932 0.890897 0.052675
v -0.096548 0.840746 0.056017
v -0.125444 0.941714 -0.014864
v -0.135774 1.008991 -0.056306
v -0.136541 1.065676 -0.115792
v -0.127437 1.100086 -0.158603
v -0.098348 0.820454 0.049463
v -0.108286 0.830226 0.018775
v -0.115384 0.879246 0.006904
v -0.128239 1.123897 -0.173910
v -0.138494 1.138053 -0.163190
v -0.103203 0.816800 0.038611
v -0.105978 0.817795 0.029779
v -0.163300 1.133771 -0.133560
v -0.171641 1.115670 -0.095587
v -0.168346 1.083156 -0.055224
v -0.149551 1.026963 -0.008528
v -0.125156 0.957437 0.029506
v -0.107911 0.890921 0.049677
v -0.100495 0.842570 0.053372
v -0.134145 0.943258 -0.011759
v -0.149757 1.011292 -0.052760
v -0.154935 1.067418 -0.110664
v -0.148050 1.099934 -0.150903
v -0.100467 0.823693 0.048104
v -0.109995 0.832821 0.020979
v -0.119739 0.880511 0.009876
v -0.144795 1.121341 -0.166029
v -0.151227 1.133827 -0.158597
v -0.194923 1.046034 -0.071272
v -0.117145 0.864405 0.043432
v -0.138847 0.921176 0.032298
v -0.201975 1.058631 -0.042184
v -0.211271 1.101901 -0.086680
v -0.171734 0.991941 0.003642
v -0.121108 0.857918 0.022993
v -0.142394 0.913616 0.008491
v -0.171106 0.981358 -0.021872
v -0.190868 1.112051 -0.145053
v -0.202130 1.122557 -0.120558
v -0.186218 1.121409 -0.148940
v -0.193124 1.126525 -0.138124
v -0.108405 0.826232 0.034400
v -0.106522 0.828726 0.041466
v -0.110603 0.829468 0.029759
v -0.107189 0.834879 0.044556
v -0.109982 0.832722 0.037165
v -0.114837 0.841393 0.030859
v -0.113026 0.844912 0.040509
v -0.121983 0.862122 0.033319
v -0.132372 0.885506 0.022364
v -0.130358 0.889160 0.034507
v -0.145265 0.917563 0.020011
v -0.159642 0.948565 0.000706
v -0.158434 0.953524 0.014071
v -0.177296 0.986486 -0.010453
v -0.190786 1.017977 -0.039252
v -0.192417 1.024415 -0.025131
v -0.205112 1.051940 -0.058229
v -0.208307 1.073559 -0.091091
v -0.212529 1.080486 -0.074773
v -0.205590 1.104492 -0.127997
v -0.210199 1.110740 -0.112351
v -0.200491 1.117360 -0.134307
v -0.201312 1.089066 -0.118715
v -0.213330 1.094748 -0.103947
v -0.103840 0.818588 0.038664
v -0.177426 1.129221 -0.151301
v -0.172139 1.043374 -0.077984
v -0.174602 1.119313 -0.155550
v -0.127803 0.882473 0.014274
v -0.109172 0.864177 0.049912
v -0.113215 0.837201 0.024393
v -0.126958 0.922642 0.039463
v -0.106543 0.819543 0.030425
v -0.172096 1.134483 -0.133121
v -0.185994 1.061191 -0.030627
v -0.183139 1.117799 -0.094615
v -0.196065 1.105872 -0.075143
v -0.157179 0.993961 0.012568
v -0.181715 1.085300 -0.053888
v -0.117292 0.855152 0.018599
v -0.162060 1.028279 -0.007160
v -0.133621 0.911815 0.003662
v -0.133109 0.957502 0.029234
v -0.155229 0.978904 -0.026795
v -0.111947 0.891007 0.048412
v -0.166004 1.111193 -0.154984
v -0.104428 0.828755 0.045199
v -0.102495 0.843464 0.052101
v -0.188464 1.128639 -0.114753
v -0.138672 0.943849 -0.010513
v -0.162935 1.126996 -0.160109
v -0.173425 1.134581 -0.146106
v -0.185015 1.100719 -0.139694
v -0.105923 0.820204 0.034729
v -0.188259 1.069371 -0.102312
v -0.156886 1.012002 -0.051438
v -0.103541 0.823004 0.042765
v -0.108937 0.825365 0.027092
v -0.103017 0.832943 0.049160
v -0.174272 1.086671 -0.127885
v -0.175527 1.013786 -0.047829
v -0.126616 1.063823 -0.119416
v -0.116628 1.099990 -0.164075
v -0.150287 0.945270 -0.007382
v -0.107750 0.845203 0.047966
v -0.097207 0.818778 0.050384
v -0.121607 0.890850 0.043754
v -0.147927 0.956925 0.025236
v -0.182355 1.029090 -0.011114
v -0.203317 1.086459 -0.058768
v -0.202488 1.117519 -0.098223
v -0.189982 1.130870 -0.132316
v -0.108218 0.823885 0.031383
v -0.107447 0.828777 0.017408
v -0.113268 0.878451 0.004948
v -0.117556 1.126897 -0.182081
v -0.132049 1.143607 -0.168469
v -0.105822 0.823425 0.038430
v -0.101323 0.811079 0.038554
v -0.104384 0.812188 0.027636
v -0.143310 1.142895 -0.133175
v -0.144367 1.125219 -0.085947
v -0.134405 1.090426 -0.042283
v -0.116246 1.031135 0.002821
v -0.103009 0.959700 0.036715
v -0.095976 0.891036 0.055067
v -0.094424 0.839852 0.057744
v -0.121079 0.940515 -0.017238
v -0.128275 1.006856 -0.059358
v -0.145901 1.066795 -0.112983
v -0.137843 1.100037 -0.154343
v -0.099422 0.822093 0.048732
v -0.109133 0.831558 0.019942
v -0.117541 0.879917 0.008504
v -0.137025 1.122182 -0.168927
v -0.144795 1.135078 -0.160183
v -0.131980 1.085105 -0.140520
v -0.096980 0.827690 0.053609
v -0.106315 0.818820 0.023607
v -0.100155 0.815798 0.044152
v -0.103573 0.812608 0.033258
v -0.144003 1.139479 -0.150418
v -0.132790 1.132567 -0.171383
v -0.150937 1.129251 -0.113484
v -0.126169 1.112936 -0.169736
v -0.131136 0.975506 -0.032562
v -0.120098 0.909548 -0.002132
v -0.111359 0.851464 0.013509
v -0.116730 0.994032 0.015509
v -0.148895 1.104455 -0.071991
v -0.135050 1.059530 -0.028058
v -0.103904 0.923564 0.044844
v -0.097494 0.862397 0.056067
v -0.137850 1.039821 -0.085845
v -0.102611 0.815036 0.038542
v -0.105461 0.816069 0.029083
v -0.155194 1.133857 -0.133734
v -0.160581 1.115416 -0.095321
v -0.155133 1.082968 -0.054979
v -0.136881 1.026896 -0.008489
v -0.117058 0.957744 0.030207
v -0.103921 0.890867 0.050960
v -0.098554 0.841658 0.054602
v -0.129788 0.942595 -0.013108
v -0.142869 1.010396 -0.054220
v -0.164206 1.067892 -0.108368
v -0.158564 1.099909 -0.147678
v -0.101557 0.825274 0.047434
v -0.110897 0.834099 0.021988
v -0.122025 0.881092 0.011197
v -0.152866 1.120793 -0.163599
v -0.158254 1.133046 -0.157213
v -0.154168 1.042043 -0.081700
v -0.103061 0.863297 0.053127
v -0.115282 0.922904 0.041927
v -0.160507 1.057774 -0.031992
v -0.171898 1.101826 -0.076000
v -0.137132 0.992808 0.012421
v -0.114137 0.853293 0.016141
v -0.126440 0.910763 0.000952
v -0.142486 0.977504 -0.029336
v -0.145300 1.111619 -0.161497
v -0.168472 1.126642 -0.115351
v -0.146892 1.128832 -0.164809
v -0.157114 1.135875 -0.148124
v -0.104618 0.816292 0.034072
v -0.101725 0.819335 0.043524
v -0.107509 0.822025 0.025444
v -0.099842 0.830335 0.051532
v -0.152108 1.086014 -0.134039
v -0.209488 1.091549 -0.111959
v -0.213930 1.098329 -0.095225
v -0.128940 1.037637 -0.089143
v -0.110617 0.831157 0.033050
v -0.108817 0.834157 0.041153
v -0.122167 0.860027 0.027684
v -0.120235 0.863626 0.038730
v -0.144945 0.915423 0.013622
v -0.143098 0.919581 0.026533
v -0.175795 0.983655 -0.016896
v -0.175831 0.989434 -0.003278
v -0.201940 1.048649 -0.065448
v -0.205135 1.055466 -0.050252
v -0.197207 1.114472 -0.140100
v -0.202680 1.119851 -0.127230
v -0.094550 0.862014 0.058082
v -0.098787 0.924197 0.047923
v -0.125507 1.063395 -0.019332
v -0.140802 1.110588 -0.063947
v -0.108716 0.995935 0.021668
v -0.110010 0.850414 0.011825
v -0.116992 0.908695 -0.004283
v -0.125237 0.973786 -0.035274
v -0.115000 1.114311 -0.176907
v -0.145200 1.135988 -0.109834
v -0.124082 1.137052 -0.178761
v -0.138779 1.145542 -0.153033
v -0.102996 0.810487 0.032898
v -0.099298 0.813875 0.044627
v -0.105708 0.817016 0.022554
v -0.095439 0.826359 0.054965
v -0.121528 1.083933 -0.144791
v -0.188407 1.087510 -0.123910
v -0.105109 0.834235 0.047193
v -0.138200 0.912489 0.005417
v -0.109892 0.827417 0.028009
v -0.183969 1.044366 -0.075291
v -0.113169 0.864493 0.047170
v -0.205193 1.104870 -0.079424
v -0.133156 0.922161 0.036629
v -0.195510 1.060784 -0.034969
v -0.179309 1.111230 -0.150265
v -0.104856 0.825413 0.042093
v -0.165378 0.993502 0.009266
v -0.119287 0.856324 0.020185
v -0.163513 0.979853 -0.024965
v -0.196935 1.126175 -0.116583
v -0.174228 1.125167 -0.155511
v -0.183180 1.131459 -0.143716
v -0.106974 0.822880 0.034808
v -0.142126 1.085730 -0.137029
v -0.098433 0.829021 0.052500
v -0.106910 0.820468 0.024563
v -0.100953 0.817607 0.043803
v -0.104103 0.814515 0.033660
v -0.150150 1.136605 -0.148935
v -0.140159 1.130042 -0.167103
v -0.158909 1.126427 -0.115200
v -0.136074 1.112085 -0.164854
v -0.136849 0.976691 -0.030677
v -0.123247 0.910217 -0.000440
v -0.112735 0.852410 0.014914
v -0.126479 0.992956 0.012715
v -0.159556 1.101603 -0.075696
v -0.147052 1.057611 -0.031907
v -0.109488 0.923134 0.042984
v -0.100314 0.862834 0.054469
v -0.146173 1.041209 -0.083484
v -0.162397 1.042683 -0.079989
v -0.105880 0.863753 0.051759
v -0.121035 0.922810 0.041007
v -0.173939 1.059600 -0.030484
v -0.184541 1.104113 -0.074813
v -0.147586 0.993437 0.013064
v -0.115599 0.854180 0.017335
v -0.129760 0.911276 0.002271
v -0.148338 0.978184 -0.028134
v -0.154811 1.111343 -0.158526
v -0.178621 1.128200 -0.114744
v -0.154056 1.128014 -0.162893
v -0.164770 1.135689 -0.147337
v -0.105180 0.818096 0.034451
v -0.102542 0.821065 0.043219
v -0.108149 0.823601 0.026283
v -0.101300 0.831625 0.050518
v -0.162368 1.086250 -0.131124
v -0.119674 1.034982 -0.093001
v -0.091643 0.861666 0.060422
v -0.093959 0.924944 0.051725
v -0.117441 1.068326 -0.007774
v -0.134235 1.118566 -0.053387
v -0.101758 0.998286 0.029793
v -0.111367 0.877509 0.002087
v -0.109027 0.849206 0.009082
v -0.106791 0.826918 0.014840
v -0.116697 0.939129 -0.019979
v -0.113913 0.907910 -0.007293
v -0.119220 0.971752 -0.038477
v -0.105722 1.130656 -0.192144
v -0.103064 1.115992 -0.185435
v -0.105570 1.099804 -0.170263
v -0.140774 1.144996 -0.105070
v -0.114550 1.142697 -0.187983
v -0.134080 1.153493 -0.156330
v -0.103810 0.810033 0.026909
v -0.102389 0.808238 0.032563
v -0.100615 0.808894 0.038641
v -0.098403 0.811885 0.045178
v -0.096026 0.817083 0.051420
v -0.105093 0.815120 0.021445
v -0.093844 0.825031 0.056471
v -0.110890 1.082435 -0.149527
vn -0.4823 -0.6797 -0.5526
vn -0.7688 -0.5227 -0.3686
vn -0.7930 -0.4215 -0.4399
vn -0.4946 -0.6377 -0.5905
vn -0.9537 -0.2804 -0.1086
vn -0.9704 -0.1306 -0.2034
vn -0.9383 0.0812 -0.3361
vn -0.8019 -0.2217 -0.5548
vn -0.5236 -0.5078 -0.6840
vn -0.9876 -0.0177 0.1561
vn -0.9872 0.1529 0.0451
vn -0.8767 0.2517 0.4099
vn -0.8588 0.4232 0.2888
vn -0.7996 0.5847 0.1371
vn -0.9359 0.3369 -0.1027
vn -0.3837 -0.6119 -0.6917
vn -0.3481 -0.6818 -0.6435
vn -0.4201 -0.6538 -0.6293
vn -0.4640 -0.5867 -0.6637
vn -0.3178 -0.7136 -0.6243
vn -0.3814 -0.6856 -0.6201
vn -0.4008 -0.6744 -0.6201
vn -0.4422 -0.6433 -0.6250
vn -0.9192 -0.3593 0.1611
vn -0.8997 -0.3484 0.2629
vn -0.9170 -0.3408 0.2071
vn -0.9329 -0.3537 0.0681
vn -0.8723 -0.3416 0.3498
vn -0.8872 -0.3343 0.3180
vn -0.9005 -0.3268 0.2869
vn -0.9296 -0.3451 0.1297
vn -0.9320 -0.3566 -0.0647
vn -0.8421 -0.3343 0.4232
vn -0.8502 -0.3144 0.4223
vn -0.8138 -0.3169 0.4872
vn -0.8020 -0.2823 0.5264
vn -0.7755 -0.2380 0.5848
vn -0.8491 -0.2898 0.4416
vn -0.9323 -0.3582 0.0509
vn -0.9007 -0.3759 -0.2177
vn -0.9085 -0.3226 0.2658
vn -0.9134 -0.3211 0.2503
vn -0.9232 -0.3835 -0.0237
vn -0.8358 -0.4141 -0.3604
vn -0.8423 -0.2633 0.4703
vn -0.7377 -0.1886 0.6483
vn -0.7082 -0.1330 0.6934
vn -0.8381 -0.2332 0.4932
vn -0.9021 -0.4211 -0.0945
vn -0.7485 -0.4667 -0.4710
vn -0.9167 -0.3260 0.2311
vn -0.9194 -0.3405 0.1970
vn -0.8702 -0.4657 -0.1607
vn -0.6583 -0.5246 -0.5398
vn -0.8424 -0.2094 0.4966
vn -0.7014 -0.0850 0.7077
vn -0.7213 -0.0554 0.6905
vn -0.8578 -0.2008 0.4731
vn -0.8342 -0.5050 -0.2213
vn -0.5829 -0.5812 -0.5679
vn -0.9249 -0.3543 0.1377
vn -0.9329 -0.3558 0.0558
vn -0.8006 -0.5322 -0.2754
vn -0.5290 -0.6336 -0.5645
vn -0.8874 -0.1937 0.4184
vn -0.7637 -0.0257 0.6450
vn -0.8147 0.0360 0.5788
vn -0.9266 -0.1666 0.3372
vn -0.7735 -0.5454 -0.3229
vn -0.4946 -0.6715 -0.5517
vn -0.9394 -0.3414 -0.0302
vn -0.9621 -0.1162 0.2466
vn -0.8564 0.1266 0.5005
vn -0.7389 0.0150 -0.6737
vn -0.5336 -0.2983 -0.7914
vn -0.8274 0.2762 -0.4891
vn -0.6555 0.4410 -0.6130
vn -0.6013 0.2052 -0.7722
vn -0.4940 -0.1186 -0.8613
vn -0.8434 0.4583 -0.2806
vn -0.7297 0.6834 -0.0233
vn -0.6612 0.7317 -0.1658
vn -0.6803 0.6079 -0.4095
vn -0.4657 0.1073 0.8784
vn -0.5302 0.0160 0.8477
vn -0.5969 0.0197 0.8021
vn -0.5690 0.0910 0.8173
vn -0.6165 -0.0722 0.7840
vn -0.6561 -0.0573 0.7525
vn -0.4901 -0.5760 -0.6543
vn -0.6722 -0.0545 0.7383
vn -0.6239 0.0197 0.7812
vn -0.4488 0.2666 0.8529
vn -0.4392 0.1949 0.8770
vn -0.5906 0.1465 0.7936
vn -0.6467 0.1766 0.7420
vn -0.6053 0.0838 0.7916
vn -0.6384 0.1264 0.7593
vn -0.5739 0.4786 0.6645
vn -0.5403 0.4172 0.7307
vn -0.7800 0.2090 0.5898
vn -0.8107 0.2441 0.5321
vn -0.5092 0.3701 0.7770
vn -0.7487 0.1952 0.6335
vn -0.7052 0.1410 0.6949
vn -0.8087 0.1325 0.5732
vn -0.8362 0.1338 0.5319
vn -0.6161 0.6627 0.4257
vn -0.6046 0.5664 0.5601
vn -0.8430 0.3131 0.4373
vn -0.8620 0.4043 0.3057
vn -0.8616 0.1563 0.4830
vn -0.8903 0.2137 0.4022
vn -0.4772 0.3231 0.8172
vn -0.7052 0.1888 0.6834
vn -0.9115 0.3009 0.2803
vn -0.7670 0.1385 0.6265
vn -0.9027 -0.2521 -0.3488
vn -0.7952 -0.2492 -0.5527
vn -0.8880 -0.2057 -0.4113
vn -0.9493 -0.2090 -0.2349
vn -0.6675 -0.2857 -0.6876
vn -0.7784 -0.2500 -0.5758
vn -0.8462 -0.2217 -0.4846
vn -0.9416 -0.1716 -0.2896
vn -0.5533 -0.3517 -0.7551
vn -0.6556 -0.3232 -0.6824
vn -0.4716 -0.4320 -0.7687
vn -0.5584 -0.4114 -0.7204
vn -0.9695 -0.1861 -0.1593
vn -0.5950 -0.3970 -0.6988
vn -0.7066 -0.3055 -0.6383
vn -0.4209 -0.5204 -0.7429
vn -0.5042 -0.5002 -0.7040
vn -0.5323 -0.4895 -0.6907
vn -0.3240 -0.6463 -0.6909
vn -0.3912 -0.5003 -0.7725
vn -0.4420 -0.5041 -0.7420
vn -0.3774 -0.6290 -0.6796
vn -0.5043 -0.2384 -0.8300
vn -0.5536 -0.2853 -0.7824
vn -0.5608 -0.3036 -0.7702
vn -0.4669 -0.4840 -0.7401
vn -0.6028 0.7926 0.0921
vn -0.6061 0.7439 0.2814
vn -0.8594 0.4859 0.1593
vn -0.8471 0.5310 -0.0194
vn -0.3991 -0.6120 -0.6828
vn -0.9126 0.3871 0.1313
vn -0.6168 0.1218 -0.7777
vn -0.6769 0.0007 -0.7360
vn -0.6723 0.4960 -0.5496
vn -0.7818 0.2893 -0.5524
vn -0.8969 0.4385 -0.0580
vn -0.7777 0.1765 -0.6033
vn -0.6636 -0.0835 -0.7434
vn -0.6423 0.7389 -0.2035
vn -0.8325 0.4828 -0.2719
vn -0.8615 0.3856 -0.3305
vn -0.8860 -0.2928 0.3595
vn -0.9246 -0.3024 0.2316
vn -0.9290 -0.2925 0.2267
vn -0.8901 -0.2822 0.3578
vn -0.9511 -0.2993 0.0764
vn -0.9555 -0.2867 0.0690
vn -0.9553 -0.2844 0.0809
vn -0.9302 -0.2890 0.2261
vn -0.7851 -0.2433 0.5696
vn -0.8416 -0.2765 0.4640
vn -0.8463 -0.2621 0.4638
vn -0.7944 -0.2231 0.5650
vn -0.8930 -0.2796 0.3527
vn -0.8495 -0.2584 0.4599
vn -0.9530 -0.2782 -0.1201
vn -0.9645 -0.2500 -0.0854
vn -0.7990 -0.2179 0.5604
vn -0.9667 -0.2492 -0.0580
vn -0.7080 -0.1681 0.6859
vn -0.7276 -0.1466 0.6702
vn -0.7365 -0.1429 0.6612
vn -0.3045 -0.7075 -0.6377
vn -0.3622 -0.6813 -0.6361
vn -0.3812 -0.6683 -0.6388
vn -0.2837 -0.7195 -0.6339
vn -0.2763 -0.7323 -0.6224
vn -0.3065 -0.6419 -0.7029
vn -0.2317 -0.6762 -0.6993
vn -0.2117 -0.7397 -0.6388
vn -0.2044 -0.7445 -0.6356
vn -0.7493 -0.2535 0.6118
vn -0.6922 -0.1853 0.6975
vn -0.7948 -0.3137 0.5195
vn -0.7792 -0.3042 0.5480
vn -0.7103 -0.2336 0.6640
vn -0.6236 -0.1453 0.7682
vn -0.5021 -0.4392 -0.7450
vn -0.6371 -0.3918 -0.6637
vn -0.3997 -0.4991 -0.7689
vn -0.2857 -0.4699 -0.8352
vn -0.3742 -0.4033 -0.8351
vn -0.5089 -0.3538 -0.7848
vn -0.9213 -0.3806 -0.0801
vn -0.9154 -0.3825 0.1257
vn -0.8821 -0.3644 -0.2985
vn -0.8390 -0.3552 -0.4121
vn -0.9155 -0.3815 -0.1275
vn -0.9189 -0.3800 0.1058
vn -0.2796 -0.7063 -0.6504
vn -0.2959 -0.6463 -0.7034
vn -0.2027 -0.7119 -0.6724
vn -0.2093 -0.6413 -0.7382
vn -0.6205 -0.1165 0.7755
vn -0.5567 -0.0395 0.8298
vn -0.5237 -0.0612 0.8497
vn -0.4232 0.0348 0.9054
vn -0.5662 0.6556 0.4996
vn -0.5168 0.7851 0.3412
vn -0.5899 0.5110 0.6252
vn -0.1542 0.6817 0.7152
vn -0.1415 0.7778 0.6124
vn -0.1297 0.8690 0.4776
vn -0.5178 0.0362 0.8547
vn -0.5097 0.1013 0.8543
vn -0.3323 0.1410 0.9326
vn -0.2554 0.2495 0.9341
vn -0.5836 0.3872 0.7138
vn -0.5602 0.2709 0.7828
vn -0.1729 0.4798 0.8602
vn -0.1605 0.5892 0.7919
vn -0.3387 -0.4786 -0.8101
vn -0.3970 -0.1615 -0.9035
vn -0.3213 -0.1929 -0.9271
vn -0.2702 -0.5172 -0.8121
vn -0.8326 -0.3361 0.4402
vn -0.8639 -0.3441 0.3678
vn -0.8631 -0.3411 0.3724
vn -0.8274 -0.3295 0.4547
vn -0.5295 0.1713 0.8308
vn -0.2013 0.3615 0.9104
vn -0.7796 -0.3657 -0.5085
vn -0.6828 -0.3363 -0.6486
vn -0.3326 -0.5695 -0.7517
vn -0.2335 -0.5509 -0.8013
vn -0.4671 0.8669 0.1737
vn -0.4497 0.8898 -0.0774
vn -0.1447 0.9373 0.3169
vn -0.1890 0.9789 0.0771
vn -0.4446 0.2681 -0.8546
vn -0.4692 0.5939 -0.6535
vn -0.3129 0.7197 -0.6198
vn -0.3458 0.3077 -0.8864
vn -0.4730 0.7897 -0.3908
vn -0.2512 0.9300 -0.2683
vn -0.8919 -0.3612 0.2721
vn -0.8952 -0.3600 0.2629
vn -0.2039 -0.7464 -0.6335
vn -0.2046 -0.7421 -0.6384
vn -0.2394 -0.7313 -0.6387
vn -0.2447 -0.7369 -0.6301
vn -0.2198 -0.6790 -0.7005
vn -0.2581 -0.6664 -0.6995
vn -0.5524 -0.1001 0.8275
vn -0.6692 -0.2061 0.7139
vn -0.6816 -0.1900 0.7066
vn -0.5719 -0.0866 0.8157
vn -0.7648 -0.2840 0.5784
vn -0.7719 -0.2664 0.5772
vn -0.9377 -0.3349 0.0920
vn -0.9373 -0.3261 -0.1231
vn -0.9453 -0.3019 -0.1238
vn -0.9449 -0.3165 0.0836
vn -0.8639 -0.3055 -0.4004
vn -0.8812 -0.2797 -0.3811
vn -0.8285 -0.3100 0.4663
vn -0.8343 -0.2946 0.4660
vn -0.8729 -0.3213 0.3673
vn -0.8796 -0.3075 0.3630
vn -0.9107 -0.3320 0.2457
vn -0.9180 -0.3171 0.2380
vn -0.2246 0.8307 -0.5094
vn -0.0742 0.9949 -0.0677
vn -0.2876 0.9529 -0.0961
vn -0.4215 0.7409 -0.5229
vn 0.0345 0.9656 0.2576
vn -0.1987 0.9554 0.2186
vn -0.3040 -0.1729 -0.9369
vn -0.3201 0.3668 -0.8735
vn -0.4671 0.2804 -0.8386
vn -0.3999 -0.1902 -0.8966
vn 0.0843 0.8973 0.4333
vn -0.1839 0.8987 0.3981
vn 0.1020 0.8399 0.5331
vn -0.1924 0.8334 0.5180
vn -0.2538 -0.5164 -0.8179
vn -0.3116 -0.5045 -0.8052
vn -0.3137 -0.4526 -0.8347
vn -0.2542 -0.5404 -0.8021
vn -0.3188 -0.5345 -0.7827
vn -0.3747 -0.4451 -0.8134
vn -0.2237 -0.6377 -0.7371
vn -0.2852 -0.6307 -0.7217
vn -0.5486 -0.3210 -0.7720
vn -0.4116 -0.3792 -0.8287
vn -0.4664 -0.3676 -0.8046
vn -0.5952 -0.3053 -0.7433
vn -0.7127 -0.2940 -0.6369
vn -0.7460 -0.2734 -0.6072
vn 0.0664 0.5777 0.8136
vn 0.0181 0.4816 0.8762
vn -0.1719 0.4394 0.8817
vn -0.1635 0.5227 0.8367
vn -0.0626 0.3685 0.9275
vn -0.2023 0.3435 0.9171
vn 0.1016 0.7809 0.6163
vn -0.1944 0.7540 0.6274
vn 0.0939 0.7180 0.6897
vn -0.1855 0.6694 0.7194
vn 0.0858 0.6542 0.7514
vn -0.1715 0.5957 0.7847
vn -0.1677 0.2441 0.9551
vn -0.2596 0.2358 0.9365
vn -0.2920 0.1172 0.9492
vn -0.3481 0.1209 0.9296
vn -0.4259 0.0017 0.9048
vn -0.4586 0.0121 0.8886
vn -0.2099 -0.7124 -0.6696
vn -0.2616 -0.7039 -0.6604
vn -0.1937 -0.7135 -0.6733
vn -0.2016 -0.6397 -0.7417
vn -0.1936 -0.7475 -0.6354
vn -0.4534 -0.0220 0.8910
vn -0.3246 0.0887 0.9417
vn -0.5739 -0.1180 0.8104
vn -0.1974 0.2138 0.9567
vn -0.0774 0.3418 0.9366
vn 0.1194 0.6543 0.7467
vn 0.1335 0.7173 0.6838
vn 0.0881 0.5705 0.8165
vn 0.1427 0.7782 0.6116
vn 0.1355 0.8417 0.5226
vn 0.0228 0.4632 0.8860
vn -0.6879 -0.3137 -0.6545
vn -0.8483 -0.3313 -0.4131
vn -0.5165 -0.3355 -0.7878
vn -0.3794 -0.3896 -0.8392
vn -0.2847 -0.4596 -0.8412
vn -0.2281 -0.5445 -0.8072
vn -0.2437 -0.5259 -0.8149
vn -0.2137 -0.6830 -0.6985
vn -0.2826 -0.1863 -0.9410
vn 0.0938 0.9081 0.4081
vn 0.0178 0.9786 0.2051
vn -0.2900 0.3557 -0.8885
vn -0.2115 0.8052 -0.5540
vn -0.0895 0.9861 -0.1401
vn -0.9027 -0.3471 0.2541
vn -0.8670 -0.3328 0.3710
vn -0.9287 -0.3572 0.0993
vn -0.8261 -0.3212 0.4630
vn -0.7678 -0.2951 0.5687
vn -0.9270 -0.3539 -0.1239
vn -0.6807 -0.2184 0.6992
vn -0.1982 -0.7439 -0.6383
vt 0.913451 0.943300
vt 0.912365 0.939185
vt 0.922591 0.938892
vt 0.924216 0.942368
vt 0.911166 0.935750
vt 0.921136 0.936041
vt 0.928153 0.936575
vt 0.929607 0.938951
vt 0.931522 0.941775
vt 0.909884 0.932382
vt 0.919791 0.933151
vt 0.908527 0.928860
vt 0.918657 0.930046
vt 0.925968 0.931322
vt 0.926852 0.934059
vt 0.871352 0.976883
vt 0.898464 0.976531
vt 0.899219 0.982517
vt 0.871230 0.982560
vt 0.921706 0.975082
vt 0.923740 0.981123
vt 0.926057 0.987770
vt 0.900203 0.989115
vt 0.678323 0.967222
vt 0.677428 0.963790
vt 0.684672 0.963789
vt 0.683856 0.968481
vt 0.676963 0.958833
vt 0.684860 0.958155
vt 0.699087 0.956252
vt 0.698701 0.962636
vt 0.697551 0.968196
vt 0.677406 0.953762
vt 0.684770 0.952675
vt 0.678350 0.950051
vt 0.683899 0.948035
vt 0.696905 0.944789
vt 0.698517 0.950173
vt 0.722067 0.958957
vt 0.721351 0.964816
vt 0.722039 0.952293
vt 0.750987 0.947548
vt 0.751500 0.954058
vt 0.751271 0.959831
vt 0.720975 0.945944
vt 0.718950 0.940113
vt 0.747354 0.935103
vt 0.749565 0.941186
vt 0.783526 0.949394
vt 0.783376 0.954902
vt 0.782861 0.943313
vt 0.815581 0.939874
vt 0.816157 0.945380
vt 0.815859 0.950602
vt 0.781320 0.937062
vt 0.779086 0.930896
vt 0.812001 0.928064
vt 0.814129 0.934001
vt 0.847354 0.942219
vt 0.846979 0.947172
vt 0.846893 0.937350
vt 0.874030 0.935922
vt 0.874557 0.940283
vt 0.874407 0.945052
vt 0.845654 0.932172
vt 0.843730 0.926838
vt 0.871192 0.926797
vt 0.872913 0.931442
vt 0.896499 0.939566
vt 0.896917 0.944129
vt 0.895666 0.935607
vt 0.894494 0.931685
vt 0.892942 0.927620
vt 0.935430 0.939324
vt 0.937196 0.941589
vt 0.934229 0.937276
vt 0.939914 0.938054
vt 0.940840 0.940042
vt 0.941061 0.941611
vt 0.932895 0.935138
vt 0.932105 0.932939
vt 0.936356 0.934228
vt 0.938115 0.936000
vt 0.733599 0.908768
vt 0.705261 0.918557
vt 0.703227 0.915258
vt 0.731620 0.904610
vt 0.682839 0.928023
vt 0.680645 0.925515
vt 0.871252 0.988780
vt 0.678433 0.922798
vt 0.701194 0.911775
vt 0.796410 0.893119
vt 0.764647 0.900077
vt 0.762545 0.895034
vt 0.793990 0.887055
vt 0.729642 0.900256
vt 0.760441 0.889827
vt 0.905399 0.893238
vt 0.883443 0.888829
vt 0.881513 0.880211
vt 0.904781 0.884713
vt 0.856931 0.886976
vt 0.854200 0.878738
vt 0.791534 0.880749
vt 0.851291 0.869597
vt 0.879426 0.870427
vt 0.935495 0.905540
vt 0.922085 0.898880
vt 0.922950 0.890886
vt 0.937811 0.898747
vt 0.904097 0.874871
vt 0.923890 0.881479
vt 0.827538 0.888522
vt 0.824745 0.881253
vt 0.940396 0.890549
vt 0.821839 0.873447
vt 0.688280 0.982647
vt 0.715705 0.981405
vt 0.714908 0.984123
vt 0.686836 0.985094
vt 0.747791 0.979524
vt 0.747363 0.982661
vt 0.747116 0.986439
vt 0.714349 0.987818
vt 0.779775 0.978247
vt 0.779365 0.981915
vt 0.811221 0.977580
vt 0.810682 0.981914
vt 0.685420 0.989115
vt 0.810187 0.986500
vt 0.779340 0.986109
vt 0.842058 0.977127
vt 0.841525 0.982203
vt 0.841062 0.987679
vt 0.954661 0.970150
vt 0.965131 0.965522
vt 0.972528 0.971312
vt 0.960062 0.976032
vt 0.971140 0.959350
vt 0.979875 0.964518
vt 0.989860 0.970382
vt 0.980769 0.977754
vt 0.957274 0.923490
vt 0.947347 0.913794
vt 0.951043 0.908938
vt 0.962317 0.920946
vt 0.965861 0.982387
vt 0.955284 0.902917
vt 0.972656 0.951812
vt 0.981320 0.955351
vt 0.970317 0.943120
vt 0.978041 0.944688
vt 0.968192 0.917599
vt 0.986816 0.946237
vt 0.991221 0.959266
vt 0.964964 0.933555
vt 0.971438 0.933222
vt 0.978995 0.932476
vt 0.656431 0.961838
vt 0.657834 0.969875
vt 0.654642 0.971121
vt 0.653263 0.962261
vt 0.662503 0.976401
vt 0.659727 0.978309
vt 0.656735 0.980339
vt 0.651117 0.972390
vt 0.661996 0.943960
vt 0.657924 0.952791
vt 0.654966 0.952437
vt 0.659314 0.942878
vt 0.649859 0.962595
vt 0.651882 0.951937
vt 0.671225 0.981031
vt 0.669095 0.983290
vt 0.656594 0.941611
vt 0.666869 0.985719
vt 0.669166 0.936064
vt 0.666753 0.934275
vt 0.664330 0.932291
vt 0.940147 0.973040
vt 0.943741 0.978993
vt 0.947619 0.985456
vt 0.926290 0.947292
vt 0.914547 0.948817
vt 0.934428 0.945978
vt 0.938195 0.951014
vt 0.928843 0.952975
vt 0.915824 0.954922
vt 0.681567 0.944575
vt 0.694354 0.940317
vt 0.675520 0.948636
vt 0.672369 0.947163
vt 0.678711 0.942002
vt 0.691556 0.936788
vt 0.782651 0.959779
vt 0.750566 0.964242
vt 0.814912 0.955973
vt 0.813857 0.961325
vt 0.781835 0.964328
vt 0.749809 0.967953
vt 0.681761 0.971489
vt 0.675485 0.968543
vt 0.695847 0.971922
vt 0.694014 0.974463
vt 0.679205 0.973543
vt 0.672250 0.969966
vt 0.896984 0.950037
vt 0.873679 0.951002
vt 0.897049 0.956410
vt 0.872868 0.957333
vt 0.716232 0.934872
vt 0.744604 0.929358
vt 0.713449 0.930421
vt 0.741841 0.924209
vt 0.917879 0.926597
vt 0.925879 0.928254
vt 0.907137 0.924978
vt 0.905958 0.920618
vt 0.917632 0.922760
vt 0.926602 0.924907
vt 0.776401 0.925040
vt 0.809403 0.922393
vt 0.773646 0.919583
vt 0.806593 0.916891
vt 0.890996 0.923260
vt 0.868869 0.921999
vt 0.866233 0.916903
vt 0.888959 0.918459
vt 0.940700 0.944886
vt 0.944968 0.943502
vt 0.950326 0.946373
vt 0.945444 0.948918
vt 0.672539 0.953720
vt 0.671571 0.959287
vt 0.667555 0.959752
vt 0.668840 0.953332
vt 0.841220 0.921561
vt 0.838359 0.916199
vt 0.720234 0.968884
vt 0.719091 0.971896
vt 0.845936 0.952918
vt 0.844789 0.958894
vt 0.932859 0.930543
vt 0.938555 0.933271
vt 0.934737 0.927874
vt 0.941636 0.931618
vt 0.946341 0.941357
vt 0.945338 0.938753
vt 0.950523 0.939394
vt 0.951912 0.943205
vt 0.942607 0.936010
vt 0.946895 0.935461
vt 0.672528 0.964361
vt 0.668680 0.965324
vt 0.918534 0.964959
vt 0.934101 0.962814
vt 0.936955 0.967701
vt 0.920005 0.969783
vt 0.945832 0.960172
vt 0.949962 0.964901
vt 0.687046 0.932171
vt 0.673833 0.938844
vt 0.671524 0.937542
vt 0.684966 0.930194
vt 0.667098 0.945436
vt 0.664586 0.944772
vt 0.667239 0.972988
vt 0.675069 0.977149
vt 0.673192 0.979007
vt 0.664962 0.974635
vt 0.691029 0.978514
vt 0.689668 0.980489
vt 0.663272 0.953020
vt 0.660671 0.952955
vt 0.661855 0.960783
vt 0.659253 0.961328
vt 0.663136 0.967490
vt 0.660609 0.968659
vt 0.959732 0.940845
vt 0.955324 0.934313
vt 0.959885 0.933797
vt 0.964517 0.941785
vt 0.948944 0.927749
vt 0.953044 0.925571
vt 0.959853 0.952127
vt 0.961472 0.946917
vt 0.966354 0.949069
vt 0.964748 0.955348
vt 0.940583 0.921406
vt 0.944015 0.917685
vt 0.930589 0.916148
vt 0.933157 0.911012
vt 0.954513 0.956566
vt 0.959289 0.960695
vt 0.812384 0.969739
vt 0.843245 0.968279
vt 0.842633 0.972569
vt 0.811788 0.973577
vt 0.871915 0.967307
vt 0.871593 0.971903
vt 0.748700 0.973875
vt 0.780681 0.971523
vt 0.780213 0.974824
vt 0.748236 0.976634
vt 0.717297 0.976688
vt 0.716499 0.978966
vt 0.861336 0.902951
vt 0.832645 0.903131
vt 0.830082 0.895726
vt 0.859214 0.894865
vt 0.801201 0.905437
vt 0.798757 0.899227
vt 0.919424 0.911976
vt 0.920916 0.905588
vt 0.905355 0.908112
vt 0.905552 0.900749
vt 0.885958 0.904756
vt 0.884852 0.896761
vt 0.768884 0.909923
vt 0.766732 0.905025
vt 0.737486 0.916329
vt 0.735539 0.912637
vt 0.709157 0.924234
vt 0.707226 0.921500
vt 0.897571 0.966564
vt 0.897944 0.971318
vt 0.897268 0.961834
vt 0.872309 0.962681
vt 0.917173 0.960233
vt 0.711144 0.927023
vt 0.739514 0.920012
vt 0.689160 0.934210
vt 0.771154 0.914674
vt 0.803825 0.911344
vt 0.887251 0.912304
vt 0.905373 0.915016
vt 0.863661 0.910589
vt 0.918168 0.917911
vt 0.928228 0.920920
vt 0.835430 0.910129
vt 0.718132 0.974409
vt 0.692428 0.976567
vt 0.749202 0.971083
vt 0.781194 0.968160
vt 0.813037 0.965828
vt 0.843921 0.963926
vt 0.950090 0.952785
vt 0.942021 0.955719
vt 0.955297 0.949251
vt 0.937355 0.924883
vt 0.945095 0.929805
vt 0.956903 0.945050
vt 0.955248 0.940101
vt 0.951056 0.934888
vt 0.665681 0.966378
vt 0.664473 0.960250
vt 0.669553 0.971435
vt 0.665880 0.953102
vt 0.669614 0.946144
vt 0.676994 0.975360
vt 0.676156 0.940203
vt 0.931462 0.958107
s 1
usemtl Material.007
f 2/1/1 119/2/2 252/3/3 124/4/4
f 119/2/2 23/5/5 125/6/6 252/3/3
f 252/3/3 125/6/6 24/7/7 121/8/8
f 124/4/4 252/3/3 121/8/8 1/9/9
f 23/5/5 120/10/10 253/11/11 125/6/6
f 120/10/10 4/12/12 93/13/13 253/11/11
f 253/11/11 93/13/13 5/14/14 122/15/15
f 125/6/6 253/11/11 122/15/15 24/7/7
f 63/16/16 215/17/17 254/18/18 190/19/19
f 215/17/17 64/20/20 163/21/21 254/18/18
f 254/18/18 163/21/21 26/22/22 338/23/23
f 16/24/24 102/25/25 255/26/26 104/27/27
f 102/25/25 18/28/28 106/29/29 255/26/26
f 255/26/26 106/29/29 19/30/30 107/31/31
f 104/27/27 255/26/26 107/31/31 10/32/32
f 18/28/28 103/33/33 256/34/34 106/29/29
f 103/33/33 17/35/35 105/36/36 256/34/34
f 256/34/34 105/36/36 6/37/37 108/38/38
f 106/29/29 256/34/34 108/38/38 19/30/30
f 10/32/32 107/31/31 257/39/39 95/40/40
f 107/31/31 19/30/30 109/41/41 257/39/39
f 257/39/39 109/41/41 20/42/42 110/43/43
f 95/40/40 257/39/39 110/43/43 12/44/44
f 19/30/30 108/38/38 258/45/45 109/41/41
f 108/38/38 6/37/37 90/46/46 258/45/45
f 258/45/45 90/46/46 8/47/47 111/48/48
f 109/41/41 258/45/45 111/48/48 20/42/42
f 12/44/44 110/43/43 259/49/49 96/50/50
f 110/43/43 20/42/42 112/51/51 259/49/49
f 259/49/49 112/51/51 21/52/52 113/53/53
f 96/50/50 259/49/49 113/53/53 9/54/54
f 20/42/42 111/48/48 260/55/55 112/51/51
f 111/48/48 8/47/47 91/56/56 260/55/55
f 260/55/55 91/56/56 3/57/57 114/58/58
f 112/51/51 260/55/55 114/58/58 21/52/52
f 9/54/54 113/53/53 261/59/59 97/60/60
f 113/53/53 21/52/52 115/61/61 261/59/59
f 261/59/59 115/61/61 22/62/62 116/63/63
f 97/60/60 261/59/59 116/63/63 11/64/64
f 21/52/52 114/58/58 262/65/65 115/61/61
f 114/58/58 3/57/57 94/66/66 262/65/65
f 262/65/65 94/66/66 7/67/67 117/68/68
f 115/61/61 262/65/65 117/68/68 22/62/62
f 11/64/64 116/63/63 263/69/69 89/70/70
f 116/63/63 22/62/62 118/71/71 263/69/69
f 263/69/69 118/71/71 23/5/5 119/2/2
f 89/70/70 263/69/69 119/2/2 2/1/1
f 22/62/62 117/68/68 264/72/72 118/71/71
f 117/68/68 7/67/67 92/73/73 264/72/72
f 264/72/72 92/73/73 4/12/12 120/10/10
f 118/71/71 264/72/72 120/10/10 23/5/5
f 1/9/9 121/8/8 265/74/74 98/75/75
f 121/8/8 24/7/7 123/76/76 265/74/74
f 265/74/74 123/76/76 14/77/77 100/78/78
f 98/75/75 265/74/74 100/78/78 13/79/79
f 24/7/7 122/15/15 266/80/80 123/76/76
f 122/15/15 5/14/14 99/81/81 266/80/80
f 266/80/80 99/81/81 15/82/82 101/83/83
f 123/76/76 266/80/80 101/83/83 14/77/77
f 60/84/84 214/85/85 267/86/86 187/87/87
f 214/85/85 61/88/88 188/89/89 267/86/86
f 190/19/19 254/18/18 338/23/23 28/90/90
f 267/86/86 188/89/89 30/91/91 339/92/92
f 59/93/93 213/94/94 268/95/95 186/96/96
f 213/94/94 60/84/84 187/87/87 268/95/95
f 187/87/87 267/86/86 339/92/92 32/97/97
f 268/95/95 187/87/87 32/97/97 340/98/98
f 57/99/99 212/100/100 269/101/101 184/102/102
f 212/100/100 58/103/103 185/104/104 269/101/101
f 186/96/96 268/95/95 340/98/98 34/105/105
f 269/101/101 185/104/104 36/106/106 341/107/107
f 56/108/108 211/109/109 270/110/110 183/111/111
f 211/109/109 57/99/99 184/102/102 270/110/110
f 184/102/102 269/101/101 341/107/107 38/112/112
f 270/110/110 184/102/102 38/112/112 342/113/113
f 58/103/103 210/114/114 271/115/115 185/104/104
f 210/114/114 59/93/93 186/96/96 271/115/115
f 183/111/111 270/110/110 342/113/113 40/116/116
f 271/115/115 186/96/96 34/105/105 343/117/117
f 67/118/118 209/119/119 272/120/120 175/121/121
f 209/119/119 68/122/122 176/123/123 272/120/120
f 185/104/104 271/115/115 343/117/117 36/106/106
f 272/120/120 176/123/123 344/124/124 345/125/125
f 68/122/122 208/126/126 273/127/127 176/123/123
f 208/126/126 62/128/128 189/129/129 273/127/127
f 175/121/121 272/120/120 345/125/125 346/130/130
f 273/127/127 189/129/129 347/131/131 348/132/132
f 62/128/128 207/133/133 274/134/134 189/129/129
f 207/133/133 63/16/16 190/19/19 274/134/134
f 176/123/123 273/127/127 348/132/132 344/124/124
f 274/134/134 190/19/19 28/90/90 349/135/135
f 65/136/136 206/137/137 275/138/138 164/139/139
f 206/137/137 69/140/140 177/141/141 275/138/138
f 189/129/129 274/134/134 349/135/135 347/131/131
f 275/138/138 177/141/141 350/142/142 351/143/143
f 55/144/144 205/145/145 276/146/146 182/147/147
f 205/145/145 56/108/108 183/111/111 276/146/146
f 164/139/139 275/138/138 351/143/143 352/148/148
f 276/146/146 183/111/111 40/116/116 353/149/149
f 69/140/140 204/150/150 277/151/151 177/141/141
f 204/150/150 70/152/152 178/153/153 277/151/151
f 182/147/147 276/146/146 353/149/149 47/154/154
f 277/151/151 178/153/153 49/155/155 354/156/156
f 70/152/152 203/157/157 278/158/158 178/153/153
f 203/157/157 55/144/144 182/147/147 278/158/158
f 177/141/141 277/151/151 354/156/156 350/142/142
f 278/158/158 182/147/147 47/154/154 355/159/159
f 53/160/160 202/161/161 279/162/162 180/163/163
f 202/161/161 54/164/164 181/165/165 279/162/162
f 178/153/153 278/158/158 355/159/159 49/155/155
f 279/162/162 181/165/165 356/166/166 357/167/167
f 66/168/168 201/169/169 280/170/170 167/171/171
f 201/169/169 53/160/160 180/163/163 280/170/170
f 180/163/163 279/162/162 357/167/167 358/172/172
f 280/170/170 180/163/163 358/172/172 359/173/173
f 54/164/164 200/174/174 281/175/175 181/165/165
f 200/174/174 67/118/118 175/121/121 281/175/175
f 167/171/171 280/170/170 359/173/173 360/176/176
f 281/175/175 175/121/121 346/130/130 361/177/177
f 61/88/88 199/178/178 282/179/179 188/89/89
f 199/178/178 66/168/168 167/171/171 282/179/179
f 181/165/165 281/175/175 361/177/177 356/166/166
f 282/179/179 167/171/171 360/176/176 362/180/180
f 64/20/20 198/181/181 283/182/182 163/21/21
f 198/181/181 65/136/136 164/139/139 283/182/182
f 188/89/89 282/179/179 362/180/180 30/91/91
f 283/182/182 164/139/139 352/148/148 363/183/183
f 2/1/1 124/4/4 284/184/184 156/185/185
f 124/4/4 1/9/9 154/186/186 284/184/184
f 284/184/184 154/186/186 50/187/187 161/188/188
f 156/185/185 284/184/184 161/188/188 51/189/189
f 6/37/37 105/36/36 285/190/190 166/191/191
f 105/36/36 17/35/35 148/192/192 285/190/190
f 285/190/190 148/192/192 45/193/193 160/194/194
f 166/191/191 285/190/190 160/194/194 46/195/195
f 12/44/44 96/50/50 286/196/196 130/197/197
f 96/50/50 9/54/54 165/198/198 286/196/196
f 286/196/196 165/198/198 48/199/199 143/200/200
f 130/197/197 286/196/196 143/200/200 31/201/201
f 16/24/24 104/27/27 287/202/202 174/203/203
f 104/27/27 10/32/32 132/204/204 287/202/202
f 287/202/202 132/204/204 33/205/205 159/206/206
f 174/203/203 287/202/202 159/206/206 35/207/207
f 11/64/64 89/70/70 288/208/208 162/209/209
f 89/70/70 2/1/1 156/185/185 288/208/208
f 288/208/208 156/185/185 51/189/189 128/210/210
f 162/209/209 288/208/208 128/210/210 52/211/211
f 8/47/47 90/46/46 289/212/212 168/213/213
f 90/46/46 6/37/37 166/191/191 289/212/212
f 289/212/212 166/191/191 46/195/195 131/214/214
f 168/213/213 289/212/212 131/214/214 44/215/215
f 5/14/14 93/13/13 290/216/216 172/217/217
f 93/13/13 4/12/12 171/218/218 290/216/216
f 290/216/216 171/218/218 41/219/219 138/220/220
f 172/217/217 290/216/216 138/220/220 39/221/221
f 3/57/57 91/56/56 291/222/222 169/223/223
f 91/56/56 8/47/47 168/213/213 291/222/222
f 291/222/222 168/213/213 44/215/215 133/224/224
f 169/223/223 291/222/222 133/224/224 43/225/225
f 4/12/12 92/73/73 292/226/226 171/218/218
f 92/73/73 7/67/67 170/227/227 292/226/226
f 292/226/226 170/227/227 42/228/228 136/229/229
f 171/218/218 292/226/226 136/229/229 41/219/219
f 1/9/9 98/75/75 293/230/230 154/186/186
f 98/75/75 13/79/79 129/231/231 293/230/230
f 293/230/230 129/231/231 29/232/232 147/233/233
f 154/186/186 293/230/230 147/233/233 50/187/187
f 17/35/35 103/33/33 294/234/234 148/192/192
f 103/33/33 18/28/28 179/235/235 294/234/234
f 294/234/234 179/235/235 25/236/236 158/237/237
f 148/192/192 294/234/234 158/237/237 45/193/193
f 7/67/67 94/66/66 295/238/238 170/227/227
f 94/66/66 3/57/57 169/223/223 295/238/238
f 295/238/238 169/223/223 43/225/225 139/239/239
f 170/227/227 295/238/238 139/239/239 42/228/228
f 10/32/32 95/40/40 296/240/240 132/204/204
f 95/40/40 12/44/44 130/197/197 296/240/240
f 296/240/240 130/197/197 31/201/201 141/241/241
f 132/204/204 296/240/240 141/241/241 33/205/205
f 9/54/54 97/60/60 297/242/242 165/198/198
f 97/60/60 11/64/64 162/209/209 297/242/242
f 297/242/242 162/209/209 52/211/211 145/243/243
f 165/198/198 297/242/242 145/243/243 48/199/199
f 15/82/82 99/81/81 298/244/244 173/245/245
f 99/81/81 5/14/14 172/217/217 298/244/244
f 298/244/244 172/217/217 39/221/221 150/246/246
f 173/245/245 298/244/244 150/246/246 37/247/247
f 13/79/79 100/78/78 299/248/248 129/231/231
f 100/78/78 14/77/77 127/249/249 299/248/248
f 299/248/248 127/249/249 27/250/250 152/251/251
f 129/231/231 299/248/248 152/251/251 29/232/232
f 14/77/77 101/83/83 300/252/252 127/249/249
f 101/83/83 15/82/82 173/245/245 300/252/252
f 300/252/252 173/245/245 37/247/247 153/253/253
f 127/249/249 300/252/252 153/253/253 27/250/250
f 18/28/28 102/25/25 301/254/254 179/235/235
f 102/25/25 16/24/24 174/203/203 301/254/254
f 301/254/254 174/203/203 35/207/207 155/255/255
f 179/235/235 301/254/254 155/255/255 25/236/236
f 82/256/256 251/257/257 302/258/258 191/259/259
f 251/257/257 83/260/260 192/261/261 302/258/258
f 302/258/258 192/261/261 65/136/136 198/181/181
f 191/259/259 302/258/258 198/181/181 64/20/20
f 79/262/262 250/263/263 303/264/264 224/265/265
f 250/263/263 84/266/266 193/267/267 303/264/264
f 303/264/264 193/267/267 66/168/168 199/178/178
f 224/265/265 303/264/264 199/178/178 61/88/88
f 72/268/268 249/269/269 304/270/270 217/271/271
f 249/269/269 85/272/272 194/273/273 304/270/270
f 304/270/270 194/273/273 67/118/118 200/174/174
f 217/271/271 304/270/270 200/174/174 54/164/164
f 84/266/266 248/274/274 305/275/275 193/267/267
f 248/274/274 71/276/276 216/277/277 305/275/275
f 305/275/275 216/277/277 53/160/160 201/169/169
f 193/267/267 305/275/275 201/169/169 66/168/168
f 71/276/276 247/278/278 306/279/279 216/277/277
f 247/278/278 72/268/268 217/271/271 306/279/279
f 306/279/279 217/271/271 54/164/164 202/161/161
f 216/277/277 306/279/279 202/161/161 53/160/160
f 88/280/280 246/281/281 307/282/282 197/283/283
f 246/281/281 73/284/284 218/285/285 307/282/282
f 307/282/282 218/285/285 55/144/144 203/157/157
f 197/283/283 307/282/282 203/157/157 70/152/152
f 87/286/286 245/287/287 308/288/288 196/289/289
f 245/287/287 88/280/280 197/283/283 308/288/288
f 308/288/288 197/283/283 70/152/152 204/150/150
f 196/289/289 308/288/288 204/150/150 69/140/140
f 73/284/284 244/290/290 309/291/291 218/285/285
f 244/290/290 74/292/292 219/293/293 309/291/291
f 309/291/291 219/293/293 56/108/108 205/145/145
f 218/285/285 309/291/291 205/145/145 55/144/144
f 83/260/260 243/294/294 310/295/295 192/261/261
f 243/294/294 87/286/286 196/289/289 310/295/295
f 310/295/295 196/289/289 69/140/140 206/137/137
f 192/261/261 310/295/295 206/137/137 65/136/136
f 80/296/296 242/297/297 311/298/298 225/299/299
f 242/297/297 81/300/300 226/301/301 311/298/298
f 311/298/298 226/301/301 63/16/16 207/133/133
f 225/299/299 311/298/298 207/133/133 62/128/128
f 86/302/302 241/303/303 312/304/304 195/305/305
f 241/303/303 80/296/296 225/299/299 312/304/304
f 312/304/304 225/299/299 62/128/128 208/126/126
f 195/305/305 312/304/304 208/126/126 68/122/122
f 85/272/272 240/306/306 313/307/307 194/273/273
f 240/306/306 86/302/302 195/305/305 313/307/307
f 313/307/307 195/305/305 68/122/122 209/119/119
f 194/273/273 313/307/307 209/119/119 67/118/118
f 76/308/308 239/309/309 314/310/310 221/311/311
f 239/309/309 77/312/312 222/313/313 314/310/310
f 314/310/310 222/313/313 59/93/93 210/114/114
f 221/311/311 314/310/310 210/114/114 58/103/103
f 74/292/292 238/314/314 315/315/315 219/293/293
f 238/314/314 75/316/316 220/317/317 315/315/315
f 315/315/315 220/317/317 57/99/99 211/109/109
f 219/293/293 315/315/315 211/109/109 56/108/108
f 75/316/316 237/318/318 316/319/319 220/317/317
f 237/318/318 76/308/308 221/311/311 316/319/319
f 316/319/319 221/311/311 58/103/103 212/100/100
f 220/317/317 316/319/319 212/100/100 57/99/99
f 77/312/312 236/320/320 317/321/321 222/313/313
f 236/320/320 78/322/322 223/323/323 317/321/321
f 317/321/321 223/323/323 60/84/84 213/94/94
f 222/313/313 317/321/321 213/94/94 59/93/93
f 78/322/322 235/324/324 318/325/325 223/323/323
f 235/324/324 79/262/262 224/265/265 318/325/325
f 318/325/325 224/265/265 61/88/88 214/85/85
f 223/323/323 318/325/325 214/85/85 60/84/84
f 81/300/300 234/326/326 319/327/327 226/301/301
f 234/326/326 82/256/256 191/259/259 319/327/327
f 319/327/327 191/259/259 64/20/20 215/17/17
f 226/301/301 319/327/327 215/17/17 63/16/16
f 52/211/211 128/210/210 320/328/328 157/329/329
f 128/210/210 51/189/189 227/330/330 320/328/328
f 320/328/328 227/330/330 82/256/256 234/326/326
f 157/329/329 320/328/328 234/326/326 81/300/300
f 44/215/215 131/214/214 321/331/331 146/332/332
f 131/214/214 46/195/195 149/333/333 321/331/331
f 321/331/331 149/333/333 79/262/262 235/324/324
f 146/332/332 321/331/331 235/324/324 78/322/322
f 43/225/225 133/224/224 322/334/334 144/335/335
f 133/224/224 44/215/215 146/332/332 322/334/334
f 322/334/334 146/332/332 78/322/322 236/320/320
f 144/335/335 322/334/334 236/320/320 77/312/312
f 41/219/219 136/229/229 323/336/336 140/337/337
f 136/229/229 42/228/228 142/338/338 323/336/336
f 323/336/336 142/338/338 76/308/308 237/318/318
f 140/337/337 323/336/336 237/318/318 75/316/316
f 39/221/221 138/220/220 324/339/339 137/340/340
f 138/220/220 41/219/219 140/337/337 324/339/339
f 324/339/339 140/337/337 75/316/316 238/314/314
f 137/340/340 324/339/339 238/314/314 74/292/292
f 42/228/228 139/239/239 325/341/341 142/338/338
f 139/239/239 43/225/225 144/335/335 325/341/341
f 325/341/341 144/335/335 77/312/312 239/309/309
f 142/338/338 325/341/341 239/309/309 76/308/308
f 33/205/205 141/241/241 326/342/342 230/343/343
f 141/241/241 31/201/201 231/344/344 326/342/342
f 326/342/342 231/344/344 86/302/302 240/306/306
f 230/343/343 326/342/342 240/306/306 85/272/272
f 31/201/201 143/200/200 327/345/345 231/344/344
f 143/200/200 48/199/199 151/346/346 327/345/345
f 327/345/345 151/346/346 80/296/296 241/303/303
f 231/344/344 327/345/345 241/303/303 86/302/302
f 48/199/199 145/243/243 328/347/347 151/346/346
f 145/243/243 52/211/211 157/329/329 328/347/347
f 328/347/347 157/329/329 81/300/300 242/297/297
f 151/346/346 328/347/347 242/297/297 80/296/296
f 50/187/187 147/233/233 329/348/348 228/349/349
f 147/233/233 29/232/232 232/350/350 329/348/348
f 329/348/348 232/350/350 87/286/286 243/294/294
f 228/349/349 329/348/348 243/294/294 83/260/260
f 37/247/247 150/246/246 330/351/351 135/352/352
f 150/246/246 39/221/221 137/340/340 330/351/351
f 330/351/351 137/340/340 74/292/292 244/290/290
f 135/352/352 330/351/351 244/290/290 73/284/284
f 29/232/232 152/251/251 331/353/353 232/350/350
f 152/251/251 27/250/250 233/354/354 331/353/353
f 331/353/353 233/354/354 88/280/280 245/287/287
f 232/350/350 331/353/353 245/287/287 87/286/286
f 27/250/250 153/253/253 332/355/355 233/354/354
f 153/253/253 37/247/247 135/352/352 332/355/355
f 332/355/355 135/352/352 73/284/284 246/281/281
f 233/354/354 332/355/355 246/281/281 88/280/280
f 25/236/236 155/255/255 333/356/356 126/357/357
f 155/255/255 35/207/207 134/358/358 333/356/356
f 333/356/356 134/358/358 72/268/268 247/278/278
f 126/357/357 333/356/356 247/278/278 71/276/276
f 45/193/193 158/237/237 334/359/359 229/360/360
f 158/237/237 25/236/236 126/357/357 334/359/359
f 334/359/359 126/357/357 71/276/276 248/274/274
f 229/360/360 334/359/359 248/274/274 84/266/266
f 35/207/207 159/206/206 335/361/361 134/358/358
f 159/206/206 33/205/205 230/343/343 335/361/361
f 335/361/361 230/343/343 85/272/272 249/269/269
f 134/358/358 335/361/361 249/269/269 72/268/268
f 46/195/195 160/194/194 336/362/362 149/333/333
f 160/194/194 45/193/193 229/360/360 336/362/362
f 336/362/362 229/360/360 84/266/266 250/263/263
f 149/333/333 336/362/362 250/263/263 79/262/262
f 51/189/189 161/188/188 337/363/363 227/330/330
f 161/188/188 50/187/187 228/349/349 337/363/363
f 337/363/363 228/349/349 83/260/260 251/257/257
f 227/330/330 337/363/363 251/257/257 82/256/256
f 163/21/21 283/182/182 363/183/183 26/22/22
