# Blender 5.2.0 LTS
# www.blender.org
mtllib throttle.mtl
o throttle
v 0.027388 0.238539 0.407909
v 0.027384 0.241091 0.402988
v 0.028295 0.245661 0.405356
v 0.028299 0.243110 0.410278
v 0.028299 0.243110 0.410278
v 0.027378 0.239869 0.416525
v 0.026291 0.235025 0.414331
v 0.027388 0.238539 0.407909
v 0.028299 0.243110 0.410278
v 0.028241 0.260828 0.419462
v 0.027330 0.254485 0.424103
v 0.027378 0.239869 0.416525
v 0.028232 0.264734 0.415644
v 0.028241 0.260828 0.419462
v 0.028299 0.243110 0.410278
v 0.028295 0.245661 0.405356
v 0.027250 0.267885 0.417047
v 0.027570 0.263987 0.421100
v 0.028241 0.260828 0.419462
v 0.028232 0.264734 0.415644
v 0.027570 0.263987 0.421100
v 0.026678 0.257768 0.425641
v 0.027330 0.254485 0.424103
v 0.028241 0.260828 0.419462
v 0.028232 0.264734 0.415644
v 0.028228 0.267255 0.411678
v 0.027244 0.270451 0.413336
v 0.027250 0.267885 0.417047
v 0.028232 0.264734 0.415644
v 0.028295 0.245661 0.405356
v 0.028292 0.247652 0.401517
v 0.028228 0.267255 0.411678
v 0.028435 0.284227 0.378938
v 0.027451 0.287424 0.380595
v 0.027244 0.270451 0.413336
v 0.028228 0.267255 0.411678
v 0.028500 0.264624 0.368776
v 0.028435 0.284227 0.378938
v 0.028228 0.267255 0.411678
v 0.028292 0.247652 0.401517
v 0.028435 0.284227 0.378938
v 0.028500 0.264624 0.368776
v 0.028497 0.266614 0.364936
v 0.028433 0.286015 0.374591
v 0.028433 0.286015 0.374591
v 0.027451 0.288976 0.376359
v 0.027451 0.287424 0.380595
v 0.028435 0.284227 0.378938
v 0.027586 0.262043 0.362568
v 0.028497 0.266614 0.364936
v 0.028500 0.264624 0.368776
v 0.027589 0.260053 0.366407
v 0.027589 0.260053 0.366407
v 0.028500 0.264624 0.368776
v 0.028292 0.247652 0.401517
v 0.027381 0.243081 0.399148
v 0.024881 0.257774 0.360357
v 0.027586 0.262043 0.362568
v 0.027589 0.260053 0.366407
v 0.024884 0.255784 0.364197
v 0.024884 0.255784 0.364197
v 0.027589 0.260053 0.366407
v 0.027381 0.243081 0.399148
v 0.024676 0.238812 0.396937
v 0.024676 0.238812 0.396937
v 0.027381 0.243081 0.399148
v 0.027384 0.241091 0.402988
v 0.024679 0.236822 0.400777
v 0.027381 0.243081 0.399148
v 0.028292 0.247652 0.401517
v 0.028295 0.245661 0.405356
v 0.027384 0.241091 0.402988
v 0.020367 0.235144 0.395040
v 0.024676 0.238812 0.396937
v 0.024679 0.236822 0.400777
v 0.020370 0.233154 0.398879
v 0.020575 0.252116 0.362299
v 0.024884 0.255784 0.364197
v 0.024676 0.238812 0.396937
v 0.020367 0.235144 0.395040
v 0.014746 0.232323 0.393582
v 0.020367 0.235144 0.395040
v 0.020370 0.233154 0.398879
v 0.014749 0.230333 0.397421
v 0.014953 0.249295 0.360841
v 0.020575 0.252116 0.362299
v 0.020367 0.235144 0.395040
v 0.014746 0.232323 0.393582
v 0.014950 0.251285 0.357001
v 0.020572 0.254107 0.358459
v 0.020575 0.252116 0.362299
v 0.014953 0.249295 0.360841
v 0.020572 0.254107 0.358459
v 0.024881 0.257774 0.360357
v 0.024884 0.255784 0.364197
v 0.020575 0.252116 0.362299
v 0.008392 0.249501 0.356082
v 0.014950 0.251285 0.357001
v 0.014953 0.249295 0.360841
v 0.008395 0.247511 0.359921
v 0.008395 0.247511 0.359921
v 0.014953 0.249295 0.360841
v 0.014746 0.232323 0.393582
v 0.008187 0.230539 0.392662
v 0.000325 0.248877 0.355764
v 0.008392 0.249501 0.356082
v 0.008395 0.247511 0.359921
v 0.000328 0.246886 0.359604
v 0.000328 0.246886 0.359604
v 0.008395 0.247511 0.359921
v 0.008187 0.230539 0.392662
v 0.000121 0.229914 0.392345
v 0.000121 0.229914 0.392345
v 0.008187 0.230539 0.392662
v 0.008190 0.228548 0.396502
v 0.000124 0.227924 0.396184
v 0.008187 0.230539 0.392662
v 0.014746 0.232323 0.393582
v 0.014749 0.230333 0.397421
v 0.008190 0.228548 0.396502
v 0.000124 0.227924 0.396184
v -0.007947 0.228501 0.396490
v -0.007950 0.230492 0.392651
v 0.000121 0.229914 0.392345
v -0.007743 0.247464 0.359910
v 0.000328 0.246886 0.359604
v 0.000121 0.229914 0.392345
v -0.007950 0.230492 0.392651
v -0.007947 0.228501 0.396490
v -0.014517 0.230247 0.397400
v -0.014520 0.232238 0.393561
v -0.007950 0.230492 0.392651
v -0.014313 0.249210 0.360820
v -0.007743 0.247464 0.359910
v -0.007950 0.230492 0.392651
v -0.014520 0.232238 0.393561
v 0.000328 0.246886 0.359604
v -0.007743 0.247464 0.359910
v -0.007746 0.249454 0.356070
v 0.000325 0.248877 0.355764
v -0.007743 0.247464 0.359910
v -0.014313 0.249210 0.360820
v -0.014316 0.251200 0.356980
v -0.007746 0.249454 0.356070
v -0.014313 0.249210 0.360820
v -0.019953 0.251998 0.362270
v -0.019956 0.253988 0.358430
v -0.014316 0.251200 0.356980
v -0.019953 0.251998 0.362270
v -0.014313 0.249210 0.360820
v -0.014520 0.232238 0.393561
v -0.020160 0.235026 0.395011
v -0.019953 0.251998 0.362270
v -0.024286 0.255641 0.364162
v -0.024289 0.257631 0.360322
v -0.019956 0.253988 0.358430
v -0.024286 0.255641 0.364162
v -0.019953 0.251998 0.362270
v -0.020160 0.235026 0.395011
v -0.024493 0.238668 0.396902
v -0.014517 0.230247 0.397400
v -0.020157 0.233036 0.398850
v -0.020160 0.235026 0.395011
v -0.014520 0.232238 0.393561
v -0.020157 0.233036 0.398850
v -0.024490 0.236678 0.400742
v -0.024493 0.238668 0.396902
v -0.020160 0.235026 0.395011
v -0.024490 0.236678 0.400742
v -0.027223 0.240931 0.402949
v -0.027226 0.242922 0.399109
v -0.024493 0.238668 0.396902
v -0.027019 0.259894 0.366368
v -0.024286 0.255641 0.364162
v -0.024493 0.238668 0.396902
v -0.027226 0.242922 0.399109
v -0.027223 0.240931 0.402949
v -0.028164 0.245496 0.405316
v -0.028167 0.247487 0.401476
v -0.027226 0.242922 0.399109
v -0.027960 0.264459 0.368736
v -0.027019 0.259894 0.366368
v -0.027226 0.242922 0.399109
v -0.028167 0.247487 0.401476
v -0.024286 0.255641 0.364162
v -0.027019 0.259894 0.366368
v -0.027022 0.261884 0.362529
v -0.024289 0.257631 0.360322
v -0.027019 0.259894 0.366368
v -0.027960 0.264459 0.368736
v -0.027963 0.266449 0.364896
v -0.027022 0.261884 0.362529
v -0.028026 0.285850 0.374551
v -0.027963 0.266449 0.364896
v -0.027960 0.264459 0.368736
v -0.028024 0.284063 0.378897
v -0.028024 0.284063 0.378897
v -0.027960 0.264459 0.368736
v -0.028167 0.247487 0.401476
v -0.028232 0.267090 0.411638
v -0.028026 0.285850 0.374551
v -0.028024 0.284063 0.378897
v -0.027061 0.287265 0.380556
v -0.027064 0.288817 0.376320
v -0.027061 0.287265 0.380556
v -0.028024 0.284063 0.378897
v -0.028232 0.267090 0.411638
v -0.027269 0.270292 0.413297
v -0.028232 0.267090 0.411638
v -0.028167 0.247487 0.401476
v -0.028164 0.245496 0.405316
v -0.028227 0.264569 0.415604
v -0.028227 0.264569 0.415604
v -0.027265 0.267725 0.417008
v -0.027269 0.270292 0.413297
v -0.028232 0.267090 0.411638
v -0.027265 0.267725 0.417008
v -0.025702 0.270358 0.418404
v -0.025706 0.272951 0.414674
v -0.027269 0.270292 0.413297
v -0.025499 0.289924 0.381933
v -0.027061 0.287265 0.380556
v -0.027269 0.270292 0.413297
v -0.025706 0.272951 0.414674
v -0.022940 0.272063 0.419044
v -0.022944 0.274524 0.415487
v -0.025706 0.272951 0.414674
v -0.025702 0.270358 0.418404
v -0.022736 0.291496 0.382746
v -0.025499 0.289924 0.381933
v -0.025706 0.272951 0.414674
v -0.022944 0.274524 0.415487
v -0.027064 0.288817 0.376320
v -0.027061 0.287265 0.380556
v -0.025499 0.289924 0.381933
v -0.025501 0.291476 0.377664
v -0.022738 0.292984 0.378685
v -0.025501 0.291476 0.377664
v -0.025499 0.289924 0.381933
v -0.022736 0.291496 0.382746
v -0.019376 0.294160 0.379305
v -0.022738 0.292984 0.378685
v -0.022736 0.291496 0.382746
v -0.019374 0.292526 0.383277
v -0.019374 0.292526 0.383277
v -0.022736 0.291496 0.382746
v -0.022944 0.274524 0.415487
v -0.019581 0.275554 0.416018
v -0.019374 0.292526 0.383277
v 0.000178 0.292583 0.383291
v 0.000176 0.294217 0.379319
v -0.019376 0.294160 0.379305
v 0.000178 0.292583 0.383291
v -0.019374 0.292526 0.383277
v -0.019581 0.275554 0.416018
v -0.000030 0.275611 0.416032
v -0.019577 0.273249 0.419643
v -0.000025 0.273306 0.419657
v -0.000030 0.275611 0.416032
v -0.019581 0.275554 0.416018
v -0.019577 0.273249 0.419643
v -0.019581 0.275554 0.416018
v -0.022944 0.274524 0.415487
v -0.022940 0.272063 0.419044
v -0.000025 0.273306 0.419657
v 0.019526 0.273363 0.419671
v 0.019522 0.275668 0.416046
v -0.000030 0.275611 0.416032
v 0.019730 0.292640 0.383305
v 0.000178 0.292583 0.383291
v -0.000030 0.275611 0.416032
v 0.019522 0.275668 0.416046
v 0.019526 0.273363 0.419671
v 0.022896 0.272197 0.419076
v 0.022891 0.274658 0.415520
v 0.019522 0.275668 0.416046
v 0.023099 0.291630 0.382779
v 0.019730 0.292640 0.383305
v 0.019522 0.275668 0.416046
v 0.022891 0.274658 0.415520
v 0.000178 0.292583 0.383291
v 0.019730 0.292640 0.383305
v 0.019728 0.294274 0.379333
v 0.000176 0.294217 0.379319
v 0.019728 0.294274 0.379333
v 0.019730 0.292640 0.383305
v 0.023099 0.291630 0.382779
v 0.023098 0.293117 0.378718
v 0.023098 0.293117 0.378718
v 0.023099 0.291630 0.382779
v 0.025871 0.290073 0.381970
v 0.025871 0.291626 0.377701
v 0.025871 0.290073 0.381970
v 0.023099 0.291630 0.382779
v 0.022891 0.274658 0.415520
v 0.025664 0.273101 0.414711
v 0.027451 0.288976 0.376359
v 0.025871 0.291626 0.377701
v 0.025871 0.290073 0.381970
v 0.027451 0.287424 0.380595
v 0.027451 0.287424 0.380595
v 0.025871 0.290073 0.381970
v 0.025664 0.273101 0.414711
v 0.027244 0.270451 0.413336
v 0.027250 0.267885 0.417047
v 0.027244 0.270451 0.413336
v 0.025664 0.273101 0.414711
v 0.025670 0.270508 0.418441
v 0.022896 0.272197 0.419076
v 0.025670 0.270508 0.418441
v 0.025664 0.273101 0.414711
v 0.022891 0.274658 0.415520
v 0.025670 0.270508 0.418441
v 0.025680 0.266662 0.422488
v 0.027570 0.263987 0.421100
v 0.027250 0.267885 0.417047
v 0.022896 0.272197 0.419076
v 0.022858 0.268444 0.423415
v 0.025680 0.266662 0.422488
v 0.025670 0.270508 0.418441
v 0.022858 0.268444 0.423415
v 0.022100 0.263154 0.427264
v 0.024841 0.260812 0.426750
v 0.025680 0.266662 0.422488
v 0.025680 0.266662 0.422488
v 0.024841 0.260812 0.426750
v 0.026678 0.257768 0.425641
v 0.027570 0.263987 0.421100
v 0.022100 0.263154 0.427264
v 0.019820 0.258148 0.430903
v 0.022339 0.255327 0.430750
v 0.024841 0.260812 0.426750
v 0.024841 0.260812 0.426750
v 0.022339 0.255327 0.430750
v 0.024026 0.251971 0.429885
v 0.026678 0.257768 0.425641
v 0.019820 0.258148 0.430903
v 0.016278 0.253956 0.433947
v 0.018393 0.250670 0.434147
v 0.022339 0.255327 0.430750
v 0.022339 0.255327 0.430750
v 0.018393 0.250670 0.434147
v 0.019811 0.247013 0.433523
v 0.024026 0.251971 0.429885
v 0.016278 0.253956 0.433947
v 0.011744 0.250797 0.436238
v 0.013287 0.247122 0.436733
v 0.018393 0.250670 0.434147
v 0.018393 0.250670 0.434147
v 0.013287 0.247122 0.436733
v 0.014323 0.243215 0.436311
v 0.019811 0.247013 0.433523
v 0.011744 0.250797 0.436238
v 0.006608 0.248859 0.437636
v 0.007405 0.244911 0.438338
v 0.013287 0.247122 0.436733
v 0.013287 0.247122 0.436733
v 0.007405 0.244911 0.438338
v 0.007942 0.240828 0.438058
v 0.014323 0.243215 0.436311
v 0.006608 0.248859 0.437636
v 0.000035 0.248158 0.438129
v 0.000046 0.244129 0.438891
v 0.007405 0.244911 0.438338
v 0.007405 0.244911 0.438338
v 0.000046 0.244129 0.438891
v 0.000058 0.239995 0.438652
v 0.007942 0.240828 0.438058
v 0.000035 0.248158 0.438129
v -0.006541 0.248821 0.437627
v -0.007317 0.244868 0.438328
v 0.000046 0.244129 0.438891
v 0.000046 0.244129 0.438891
v -0.007317 0.244868 0.438328
v -0.007830 0.240782 0.438047
v 0.000058 0.239995 0.438652
v 0.000058 0.239995 0.438652
v -0.007830 0.240782 0.438047
v -0.008002 0.237185 0.436827
v 0.000070 0.236385 0.437449
v 0.007942 0.240828 0.438058
v 0.000058 0.239995 0.438652
v 0.000070 0.236385 0.437449
v 0.008137 0.237232 0.436839
v 0.000089 0.230511 0.434405
v 0.000070 0.236385 0.437449
v -0.008002 0.237185 0.436827
v -0.007980 0.230914 0.433577
v 0.008137 0.237232 0.436839
v 0.000070 0.236385 0.437449
v 0.000089 0.230511 0.434405
v 0.008157 0.230961 0.433588
v -0.008247 0.226709 0.430155
v 0.000103 0.226369 0.431215
v 0.000089 0.230511 0.434405
v -0.007980 0.230914 0.433577
v 0.000103 0.226369 0.431215
v 0.008393 0.226718 0.430147
v 0.008157 0.230961 0.433588
v 0.000089 0.230511 0.434405
v -0.008098 0.223833 0.425547
v 0.000115 0.223359 0.426592
v 0.000103 0.226369 0.431215
v -0.008247 0.226709 0.430155
v 0.000115 0.223359 0.426592
v 0.008286 0.223878 0.425577
v 0.008393 0.226718 0.430147
v 0.000103 0.226369 0.431215
v -0.007903 0.222385 0.420488
v 0.000124 0.221693 0.420861
v 0.000115 0.223359 0.426592
v -0.008098 0.223833 0.425547
v 0.000124 0.221693 0.420861
v 0.008148 0.222435 0.420521
v 0.008286 0.223878 0.425577
v 0.000115 0.223359 0.426592
v -0.008045 0.222172 0.414821
v 0.000130 0.221479 0.414408
v 0.000124 0.221693 0.420861
v -0.007903 0.222385 0.420488
v 0.000130 0.221479 0.414408
v 0.008340 0.222228 0.414845
v 0.008148 0.222435 0.420521
v 0.000124 0.221693 0.420861
v -0.008162 0.223297 0.408280
v 0.000131 0.222735 0.407665
v 0.000130 0.221479 0.414408
v -0.008045 0.222172 0.414821
v 0.000131 0.222735 0.407665
v 0.008478 0.223373 0.408239
v 0.008340 0.222228 0.414845
v 0.000130 0.221479 0.414408
v -0.007943 0.225950 0.401412
v 0.000128 0.225373 0.401106
v 0.000131 0.222735 0.407665
v -0.008162 0.223297 0.408280
v 0.000128 0.225373 0.401106
v 0.008194 0.225997 0.401423
v 0.008478 0.223373 0.408239
v 0.000131 0.222735 0.407665
v 0.000128 0.225373 0.401106
v 0.000124 0.227924 0.396184
v 0.008190 0.228548 0.396502
v 0.008194 0.225997 0.401423
v 0.000124 0.227924 0.396184
v 0.000128 0.225373 0.401106
v -0.007943 0.225950 0.401412
v -0.007947 0.228501 0.396490
v -0.007943 0.225950 0.401412
v -0.008162 0.223297 0.408280
v -0.014560 0.225138 0.409085
v -0.014513 0.227696 0.402322
v -0.007947 0.228501 0.396490
v -0.007943 0.225950 0.401412
v -0.014513 0.227696 0.402322
v -0.014517 0.230247 0.397400
v -0.014513 0.227696 0.402322
v -0.014560 0.225138 0.409085
v -0.019511 0.227693 0.410202
v -0.020153 0.230484 0.403772
v -0.014517 0.230247 0.397400
v -0.014513 0.227696 0.402322
v -0.020153 0.230484 0.403772
v -0.020157 0.233036 0.398850
v -0.024486 0.234127 0.405664
v -0.020153 0.230484 0.403772
v -0.019511 0.227693 0.410202
v -0.023347 0.230817 0.411989
v -0.020157 0.233036 0.398850
v -0.020153 0.230484 0.403772
v -0.024486 0.234127 0.405664
v -0.024490 0.236678 0.400742
v -0.024490 0.236678 0.400742
v -0.024486 0.234127 0.405664
v -0.027219 0.238380 0.407871
v -0.027223 0.240931 0.402949
v -0.027219 0.238380 0.407871
v -0.024486 0.234127 0.405664
v -0.023347 0.230817 0.411989
v -0.026111 0.234860 0.414221
v -0.026111 0.234860 0.414221
v -0.023347 0.230817 0.411989
v -0.021022 0.228590 0.417383
v -0.023339 0.232016 0.419944
v -0.023347 0.230817 0.411989
v -0.019511 0.227693 0.410202
v -0.018040 0.226161 0.415480
v -0.021022 0.228590 0.417383
v -0.023339 0.232016 0.419944
v -0.021022 0.228590 0.417383
v -0.018045 0.227055 0.421279
v -0.019511 0.229873 0.424398
v -0.021022 0.228590 0.417383
v -0.018040 0.226161 0.415480
v -0.016620 0.225559 0.418903
v -0.018045 0.227055 0.421279
v -0.014574 0.228033 0.427749
v -0.019511 0.229873 0.424398
v -0.018045 0.227055 0.421279
v -0.013882 0.225328 0.423731
v -0.013882 0.225328 0.423731
v -0.018045 0.227055 0.421279
v -0.016620 0.225559 0.418903
v -0.013299 0.223994 0.419687
v -0.013866 0.223976 0.414993
v -0.013299 0.223994 0.419687
v -0.016620 0.225559 0.418903
v -0.018040 0.226161 0.415480
v -0.008098 0.223833 0.425547
v -0.013882 0.225328 0.423731
v -0.013299 0.223994 0.419687
v -0.007903 0.222385 0.420488
v -0.008045 0.222172 0.414821
v -0.007903 0.222385 0.420488
v -0.013299 0.223994 0.419687
v -0.013866 0.223976 0.414993
v -0.008162 0.223297 0.408280
v -0.008045 0.222172 0.414821
v -0.013866 0.223976 0.414993
v -0.014560 0.225138 0.409085
v -0.014560 0.225138 0.409085
v -0.013866 0.223976 0.414993
v -0.018040 0.226161 0.415480
v -0.019511 0.227693 0.410202
v -0.008247 0.226709 0.430155
v -0.014574 0.228033 0.427749
v -0.013882 0.225328 0.423731
v -0.008098 0.223833 0.425547
v -0.014547 0.232146 0.431158
v -0.020180 0.234118 0.427318
v -0.019511 0.229873 0.424398
v -0.014574 0.228033 0.427749
v -0.007980 0.230914 0.433577
v -0.014547 0.232146 0.431158
v -0.014574 0.228033 0.427749
v -0.008247 0.226709 0.430155
v -0.014570 0.239586 0.435015
v -0.014547 0.232146 0.431158
v -0.007980 0.230914 0.433577
v -0.008002 0.237185 0.436827
v -0.020211 0.243423 0.432141
v -0.020180 0.234118 0.427318
v -0.014547 0.232146 0.431158
v -0.014570 0.239586 0.435015
v -0.007830 0.240782 0.438047
v -0.014221 0.243132 0.436290
v -0.014570 0.239586 0.435015
v -0.008002 0.237185 0.436827
v -0.014221 0.243132 0.436290
v -0.019728 0.246897 0.433495
v -0.020211 0.243423 0.432141
v -0.014570 0.239586 0.435015
v -0.019728 0.246897 0.433495
v -0.023967 0.251831 0.429851
v -0.024545 0.248447 0.428405
v -0.020211 0.243423 0.432141
v -0.024545 0.248447 0.428405
v -0.024505 0.236697 0.422316
v -0.020180 0.234118 0.427318
v -0.020211 0.243423 0.432141
v -0.023967 0.251831 0.429851
v -0.026646 0.257612 0.425603
v -0.027277 0.254326 0.424064
v -0.024545 0.248447 0.428405
v -0.027277 0.254326 0.424064
v -0.027229 0.239710 0.416486
v -0.024505 0.236697 0.422316
v -0.024545 0.248447 0.428405
v -0.027229 0.239710 0.416486
v -0.026111 0.234860 0.414221
v -0.023339 0.232016 0.419944
v -0.024505 0.236697 0.422316
v -0.024505 0.236697 0.422316
v -0.023339 0.232016 0.419944
v -0.019511 0.229873 0.424398
v -0.020180 0.234118 0.427318
v -0.028219 0.260663 0.419422
v -0.028160 0.242945 0.410238
v -0.027229 0.239710 0.416486
v -0.027277 0.254326 0.424064
v -0.028160 0.242945 0.410238
v -0.027219 0.238380 0.407871
v -0.026111 0.234860 0.414221
v -0.027229 0.239710 0.416486
v -0.027223 0.240931 0.402949
v -0.027219 0.238380 0.407871
v -0.028160 0.242945 0.410238
v -0.028164 0.245496 0.405316
v -0.028160 0.242945 0.410238
v -0.028219 0.260663 0.419422
v -0.028227 0.264569 0.415604
v -0.028164 0.245496 0.405316
v -0.026646 0.257612 0.425603
v -0.027568 0.263826 0.421061
v -0.028219 0.260663 0.419422
v -0.027277 0.254326 0.424064
v -0.028227 0.264569 0.415604
v -0.028219 0.260663 0.419422
v -0.027568 0.263826 0.421061
v -0.027265 0.267725 0.417008
v -0.024829 0.260667 0.426715
v -0.025696 0.266512 0.422452
v -0.027568 0.263826 0.421061
v -0.026646 0.257612 0.425603
v -0.027265 0.267725 0.417008
v -0.027568 0.263826 0.421061
v -0.025696 0.266512 0.422452
v -0.025702 0.270358 0.418404
v -0.022300 0.255197 0.430718
v -0.024829 0.260667 0.426715
v -0.026646 0.257612 0.425603
v -0.023967 0.251831 0.429851
v -0.019798 0.258032 0.430875
v -0.022102 0.263025 0.427232
v -0.024829 0.260667 0.426715
v -0.022300 0.255197 0.430718
v -0.022102 0.263025 0.427232
v -0.022886 0.268311 0.423382
v -0.025696 0.266512 0.422452
v -0.024829 0.260667 0.426715
v -0.016236 0.253861 0.433924
v -0.019798 0.258032 0.430875
v -0.022300 0.255197 0.430718
v -0.018332 0.250562 0.434121
v -0.018332 0.250562 0.434121
v -0.022300 0.255197 0.430718
v -0.023967 0.251831 0.429851
v -0.019728 0.246897 0.433495
v -0.011687 0.250728 0.436221
v -0.016236 0.253861 0.433924
v -0.018332 0.250562 0.434121
v -0.013209 0.247045 0.436714
v -0.013209 0.247045 0.436714
v -0.018332 0.250562 0.434121
v -0.019728 0.246897 0.433495
v -0.014221 0.243132 0.436290
v -0.006541 0.248821 0.437627
v -0.011687 0.250728 0.436221
v -0.013209 0.247045 0.436714
v -0.007317 0.244868 0.438328
v -0.007317 0.244868 0.438328
v -0.013209 0.247045 0.436714
v -0.014221 0.243132 0.436290
v -0.007830 0.240782 0.438047
v -0.005622 0.252038 0.436052
v -0.009887 0.253622 0.434888
v -0.011687 0.250728 0.436221
v -0.006541 0.248821 0.437627
v -0.009887 0.253622 0.434888
v -0.013758 0.256291 0.432935
v -0.016236 0.253861 0.433924
v -0.011687 0.250728 0.436221
v 0.000026 0.251468 0.436483
v -0.005622 0.252038 0.436052
v -0.006541 0.248821 0.437627
v 0.000035 0.248158 0.438129
v -0.000016 0.269007 0.423724
v -0.019566 0.268949 0.423710
v -0.018881 0.264327 0.427075
v -0.016842 0.259905 0.430297
v -0.013758 0.256291 0.432935
v -0.009887 0.253622 0.434888
v -0.005622 0.252038 0.436052
v 0.000026 0.251468 0.436483
v 0.005672 0.252071 0.436060
v 0.000026 0.251468 0.436483
v 0.000035 0.248158 0.438129
v 0.006608 0.248859 0.437636
v -0.000016 0.269007 0.423724
v 0.000026 0.251468 0.436483
v 0.005672 0.252071 0.436060
v 0.009930 0.253680 0.434902
v 0.013787 0.256372 0.432955
v 0.016854 0.260004 0.430321
v 0.018871 0.264437 0.427102
v 0.019535 0.269064 0.423738
v -0.019577 0.273249 0.419643
v -0.019566 0.268949 0.423710
v -0.000016 0.269007 0.423724
v -0.000025 0.273306 0.419657
v -0.000025 0.273306 0.419657
v -0.000016 0.269007 0.423724
v 0.019535 0.269064 0.423738
v 0.019526 0.273363 0.419671
v -0.018881 0.264327 0.427075
v -0.019566 0.268949 0.423710
v -0.022886 0.268311 0.423382
v -0.022102 0.263025 0.427232
v -0.022940 0.272063 0.419044
v -0.022886 0.268311 0.423382
v -0.019566 0.268949 0.423710
v -0.019577 0.273249 0.419643
v -0.025702 0.270358 0.418404
v -0.025696 0.266512 0.422452
v -0.022886 0.268311 0.423382
v -0.022940 0.272063 0.419044
v -0.016842 0.259905 0.430297
v -0.018881 0.264327 0.427075
v -0.022102 0.263025 0.427232
v -0.019798 0.258032 0.430875
v -0.013758 0.256291 0.432935
v -0.016842 0.259905 0.430297
v -0.019798 0.258032 0.430875
v -0.016236 0.253861 0.433924
v 0.019535 0.269064 0.423738
v 0.018871 0.264437 0.427102
v 0.022100 0.263154 0.427264
v 0.022858 0.268444 0.423415
v 0.019526 0.273363 0.419671
v 0.019535 0.269064 0.423738
v 0.022858 0.268444 0.423415
v 0.022896 0.272197 0.419076
v 0.018871 0.264437 0.427102
v 0.016854 0.260004 0.430321
v 0.019820 0.258148 0.430903
v 0.022100 0.263154 0.427264
v 0.016854 0.260004 0.430321
v 0.013787 0.256372 0.432955
v 0.016278 0.253956 0.433947
v 0.019820 0.258148 0.430903
v 0.013787 0.256372 0.432955
v 0.009930 0.253680 0.434902
v 0.011744 0.250797 0.436238
v 0.016278 0.253956 0.433947
v 0.009930 0.253680 0.434902
v 0.005672 0.252071 0.436060
v 0.006608 0.248859 0.437636
v 0.011744 0.250797 0.436238
v 0.008194 0.225997 0.401423
v 0.014753 0.227781 0.402343
v 0.014797 0.225232 0.409063
v 0.008478 0.223373 0.408239
v 0.008194 0.225997 0.401423
v 0.008190 0.228548 0.396502
v 0.014749 0.230333 0.397421
v 0.014753 0.227781 0.402343
v 0.014753 0.227781 0.402343
v 0.020374 0.230603 0.403801
v 0.019723 0.227796 0.410224
v 0.014797 0.225232 0.409063
v 0.014753 0.227781 0.402343
v 0.014749 0.230333 0.397421
v 0.020370 0.233154 0.398879
v 0.020374 0.230603 0.403801
v 0.024683 0.234270 0.405699
v 0.023537 0.230931 0.412057
v 0.019723 0.227796 0.410224
v 0.020374 0.230603 0.403801
v 0.020374 0.230603 0.403801
v 0.020370 0.233154 0.398879
v 0.024679 0.236822 0.400777
v 0.024683 0.234270 0.405699
v 0.024683 0.234270 0.405699
v 0.024679 0.236822 0.400777
v 0.027384 0.241091 0.402988
v 0.027388 0.238539 0.407909
v 0.027388 0.238539 0.407909
v 0.026291 0.235025 0.414331
v 0.023537 0.230931 0.412057
v 0.024683 0.234270 0.405699
v 0.026291 0.235025 0.414331
v 0.023546 0.232183 0.419984
v 0.021235 0.228714 0.417421
v 0.023537 0.230931 0.412057
v 0.023537 0.230931 0.412057
v 0.021235 0.228714 0.417421
v 0.018268 0.226266 0.415505
v 0.019723 0.227796 0.410224
v 0.023546 0.232183 0.419984
v 0.019723 0.229996 0.424411
v 0.018263 0.227162 0.421304
v 0.021235 0.228714 0.417421
v 0.021235 0.228714 0.417421
v 0.018263 0.227162 0.421304
v 0.016849 0.225657 0.418927
v 0.018268 0.226266 0.415505
v 0.014797 0.225232 0.409063
v 0.019723 0.227796 0.410224
v 0.018268 0.226266 0.415505
v 0.014115 0.224061 0.415007
v 0.014115 0.224061 0.415007
v 0.018268 0.226266 0.415505
v 0.016849 0.225657 0.418927
v 0.013536 0.224073 0.419708
v 0.014099 0.225406 0.423749
v 0.013536 0.224073 0.419708
v 0.016849 0.225657 0.418927
v 0.018263 0.227162 0.421304
v 0.008340 0.222228 0.414845
v 0.014115 0.224061 0.415007
v 0.013536 0.224073 0.419708
v 0.008148 0.222435 0.420521
v 0.008286 0.223878 0.425577
v 0.008148 0.222435 0.420521
v 0.013536 0.224073 0.419708
v 0.014099 0.225406 0.423749
v 0.008393 0.226718 0.430147
v 0.008286 0.223878 0.425577
v 0.014099 0.225406 0.423749
v 0.014783 0.228100 0.427740
v 0.014783 0.228100 0.427740
v 0.014099 0.225406 0.423749
v 0.018263 0.227162 0.421304
v 0.019723 0.229996 0.424411
v 0.008157 0.230961 0.433588
v 0.008393 0.226718 0.430147
v 0.014783 0.228100 0.427740
v 0.014719 0.232231 0.431179
v 0.014719 0.232231 0.431179
v 0.014783 0.228100 0.427740
v 0.019723 0.229996 0.424411
v 0.020347 0.234236 0.427347
v 0.024664 0.236840 0.422351
v 0.020347 0.234236 0.427347
v 0.019723 0.229996 0.424411
v 0.023546 0.232183 0.419984
v 0.024664 0.236840 0.422351
v 0.024626 0.248590 0.428440
v 0.020316 0.243542 0.432170
v 0.020347 0.234236 0.427347
v 0.020347 0.234236 0.427347
v 0.020316 0.243542 0.432170
v 0.014694 0.239671 0.435036
v 0.014719 0.232231 0.431179
v 0.019811 0.247013 0.433523
v 0.014323 0.243215 0.436311
v 0.014694 0.239671 0.435036
v 0.020316 0.243542 0.432170
v 0.024026 0.251971 0.429885
v 0.019811 0.247013 0.433523
v 0.020316 0.243542 0.432170
v 0.024626 0.248590 0.428440
v 0.014323 0.243215 0.436311
v 0.007942 0.240828 0.438058
v 0.008137 0.237232 0.436839
v 0.014694 0.239671 0.435036
v 0.014719 0.232231 0.431179
v 0.014694 0.239671 0.435036
v 0.008137 0.237232 0.436839
v 0.008157 0.230961 0.433588
v 0.026678 0.257768 0.425641
v 0.024026 0.251971 0.429885
v 0.024626 0.248590 0.428440
v 0.027330 0.254485 0.424103
v 0.027378 0.239869 0.416525
v 0.027330 0.254485 0.424103
v 0.024626 0.248590 0.428440
v 0.024664 0.236840 0.422351
v 0.027378 0.239869 0.416525
v 0.024664 0.236840 0.422351
v 0.023546 0.232183 0.419984
v 0.026291 0.235025 0.414331
v 0.008478 0.223373 0.408239
v 0.014797 0.225232 0.409063
v 0.014115 0.224061 0.415007
v 0.008340 0.222228 0.414845
v 0.025873 0.292717 0.372225
v 0.025871 0.291626 0.377701
v 0.027451 0.288976 0.376359
v 0.027764 0.290042 0.370837
v 0.023052 0.294500 0.373151
v 0.023098 0.293117 0.378718
v 0.025871 0.291626 0.377701
v 0.025873 0.292717 0.372225
v 0.022285 0.294595 0.366610
v 0.023052 0.294500 0.373151
v 0.025873 0.292717 0.372225
v 0.025025 0.292827 0.364989
v 0.025025 0.292827 0.364989
v 0.025873 0.292717 0.372225
v 0.027764 0.290042 0.370837
v 0.026861 0.290167 0.363139
v 0.026861 0.290167 0.363139
v 0.027764 0.290042 0.370837
v 0.028435 0.286883 0.369199
v 0.027513 0.287019 0.361342
v 0.027764 0.290042 0.370837
v 0.027451 0.288976 0.376359
v 0.028433 0.286015 0.374591
v 0.028435 0.286883 0.369199
v 0.028435 0.286883 0.369199
v 0.028493 0.269165 0.360015
v 0.027562 0.272401 0.353766
v 0.027513 0.287019 0.361342
v 0.028493 0.269165 0.360015
v 0.028435 0.286883 0.369199
v 0.028433 0.286015 0.374591
v 0.028497 0.266614 0.364936
v 0.028493 0.269165 0.360015
v 0.027582 0.264595 0.357646
v 0.026475 0.267749 0.351107
v 0.027562 0.272401 0.353766
v 0.027586 0.262043 0.362568
v 0.027582 0.264595 0.357646
v 0.028493 0.269165 0.360015
v 0.028497 0.266614 0.364936
v 0.027582 0.264595 0.357646
v 0.024877 0.260326 0.355435
v 0.023738 0.263581 0.349082
v 0.026475 0.267749 0.351107
v 0.024881 0.257774 0.360357
v 0.024877 0.260326 0.355435
v 0.027582 0.264595 0.357646
v 0.027586 0.262043 0.362568
v 0.024877 0.260326 0.355435
v 0.020568 0.256658 0.353538
v 0.019923 0.260300 0.347548
v 0.023738 0.263581 0.349082
v 0.020572 0.254107 0.358459
v 0.020568 0.256658 0.353538
v 0.024877 0.260326 0.355435
v 0.024881 0.257774 0.360357
v 0.014950 0.251285 0.357001
v 0.014946 0.253837 0.352080
v 0.020568 0.256658 0.353538
v 0.020572 0.254107 0.358459
v 0.014946 0.253837 0.352080
v 0.014988 0.257889 0.346092
v 0.019923 0.260300 0.347548
v 0.020568 0.256658 0.353538
v 0.014988 0.257889 0.346092
v 0.014284 0.262043 0.341734
v 0.018446 0.263722 0.343250
v 0.019923 0.260300 0.347548
v 0.023738 0.263581 0.349082
v 0.019923 0.260300 0.347548
v 0.018446 0.263722 0.343250
v 0.021410 0.266693 0.344146
v 0.014284 0.262043 0.341734
v 0.013705 0.265886 0.339042
v 0.017020 0.266165 0.340781
v 0.018446 0.263722 0.343250
v 0.021410 0.266693 0.344146
v 0.018446 0.263722 0.343250
v 0.017020 0.266165 0.340781
v 0.018430 0.268976 0.340638
v 0.026475 0.267749 0.351107
v 0.023738 0.263581 0.349082
v 0.021410 0.266693 0.344146
v 0.023702 0.270772 0.345476
v 0.023702 0.270772 0.345476
v 0.021410 0.266693 0.344146
v 0.018430 0.268976 0.340638
v 0.019873 0.273157 0.341147
v 0.014937 0.274809 0.337698
v 0.019873 0.273157 0.341147
v 0.018430 0.268976 0.340638
v 0.014270 0.269963 0.337803
v 0.014270 0.269963 0.337803
v 0.018430 0.268976 0.340638
v 0.017020 0.266165 0.340781
v 0.013705 0.265886 0.339042
v 0.008611 0.275979 0.335212
v 0.014937 0.274809 0.337698
v 0.014270 0.269963 0.337803
v 0.008489 0.270556 0.335519
v 0.008489 0.270556 0.335519
v 0.014270 0.269963 0.337803
v 0.013705 0.265886 0.339042
v 0.008315 0.265585 0.337251
v 0.008473 0.260832 0.340344
v 0.008315 0.265585 0.337251
v 0.013705 0.265886 0.339042
v 0.014284 0.262043 0.341734
v 0.008473 0.260832 0.340344
v 0.000304 0.260053 0.339994
v 0.000290 0.265449 0.336449
v 0.008315 0.265585 0.337251
v 0.008315 0.265585 0.337251
v 0.000290 0.265449 0.336449
v 0.000275 0.271093 0.334507
v 0.008489 0.270556 0.335519
v 0.000290 0.265449 0.336449
v -0.007736 0.265558 0.337230
v -0.007896 0.270520 0.335494
v 0.000275 0.271093 0.334507
v 0.000304 0.260053 0.339994
v -0.007912 0.260799 0.340332
v -0.007736 0.265558 0.337230
v 0.000290 0.265449 0.336449
v 0.008602 0.256137 0.345034
v 0.000314 0.255267 0.344907
v 0.000304 0.260053 0.339994
v 0.008473 0.260832 0.340344
v 0.000314 0.255267 0.344907
v -0.008039 0.256061 0.345075
v -0.007912 0.260799 0.340332
v 0.000304 0.260053 0.339994
v 0.008388 0.252052 0.351160
v 0.000321 0.251428 0.350843
v 0.000314 0.255267 0.344907
v 0.008602 0.256137 0.345034
v 0.000321 0.251428 0.350843
v -0.007750 0.252005 0.351149
v -0.008039 0.256061 0.345075
v 0.000314 0.255267 0.344907
v -0.007750 0.252005 0.351149
v 0.000321 0.251428 0.350843
v 0.000325 0.248877 0.355764
v -0.007746 0.249454 0.356070
v 0.000325 0.248877 0.355764
v 0.000321 0.251428 0.350843
v 0.008388 0.252052 0.351160
v 0.008392 0.249501 0.356082
v 0.008388 0.252052 0.351160
v 0.008602 0.256137 0.345034
v 0.014988 0.257889 0.346092
v 0.014946 0.253837 0.352080
v 0.008392 0.249501 0.356082
v 0.008388 0.252052 0.351160
v 0.014946 0.253837 0.352080
v 0.014950 0.251285 0.357001
v -0.007750 0.252005 0.351149
v -0.014320 0.253751 0.352059
v -0.014369 0.257773 0.346101
v -0.008039 0.256061 0.345075
v -0.007750 0.252005 0.351149
v -0.007746 0.249454 0.356070
v -0.014316 0.251200 0.356980
v -0.014320 0.253751 0.352059
v -0.014320 0.253751 0.352059
v -0.019960 0.256540 0.353509
v -0.019311 0.260174 0.347515
v -0.014369 0.257773 0.346101
v -0.014320 0.253751 0.352059
v -0.014316 0.251200 0.356980
v -0.019956 0.253988 0.358430
v -0.019960 0.256540 0.353509
v -0.024293 0.260182 0.355400
v -0.023147 0.263458 0.349009
v -0.019311 0.260174 0.347515
v -0.019960 0.256540 0.353509
v -0.019960 0.256540 0.353509
v -0.019956 0.253988 0.358430
v -0.024289 0.257631 0.360322
v -0.024293 0.260182 0.355400
v -0.024293 0.260182 0.355400
v -0.024289 0.257631 0.360322
v -0.027022 0.261884 0.362529
v -0.027026 0.264435 0.357607
v -0.027026 0.264435 0.357607
v -0.025928 0.267663 0.351036
v -0.023147 0.263458 0.349009
v -0.024293 0.260182 0.355400
v -0.025928 0.267663 0.351036
v -0.023183 0.270658 0.345463
v -0.020847 0.266577 0.344112
v -0.023147 0.263458 0.349009
v -0.023147 0.263458 0.349009
v -0.020847 0.266577 0.344112
v -0.017862 0.263615 0.343224
v -0.019311 0.260174 0.347515
v -0.023183 0.270658 0.345463
v -0.019361 0.273035 0.341135
v -0.017878 0.268869 0.340614
v -0.020847 0.266577 0.344112
v -0.020847 0.266577 0.344112
v -0.017878 0.268869 0.340614
v -0.016449 0.266067 0.340758
v -0.017862 0.263615 0.343224
v -0.014369 0.257773 0.346101
v -0.019311 0.260174 0.347515
v -0.017862 0.263615 0.343224
v -0.013697 0.261959 0.341720
v -0.013697 0.261959 0.341720
v -0.017862 0.263615 0.343224
v -0.016449 0.266067 0.340758
v -0.013130 0.265810 0.339022
v -0.013711 0.269877 0.337781
v -0.013130 0.265810 0.339022
v -0.016449 0.266067 0.340758
v -0.017878 0.268869 0.340614
v -0.007912 0.260799 0.340332
v -0.013697 0.261959 0.341720
v -0.013130 0.265810 0.339022
v -0.007736 0.265558 0.337230
v -0.007896 0.270520 0.335494
v -0.007736 0.265558 0.337230
v -0.013130 0.265810 0.339022
v -0.013711 0.269877 0.337781
v -0.008030 0.275891 0.335180
v -0.007896 0.270520 0.335494
v -0.013711 0.269877 0.337781
v -0.014420 0.274688 0.337679
v -0.014420 0.274688 0.337679
v -0.013711 0.269877 0.337781
v -0.017878 0.268869 0.340614
v -0.019361 0.273035 0.341135
v -0.007824 0.281150 0.336664
v -0.008030 0.275891 0.335180
v -0.014420 0.274688 0.337679
v -0.014387 0.279879 0.339073
v -0.014387 0.279879 0.339073
v -0.014420 0.274688 0.337679
v -0.019361 0.273035 0.341135
v -0.020014 0.277874 0.342906
v -0.024331 0.275271 0.347902
v -0.020014 0.277874 0.342906
v -0.019361 0.273035 0.341135
v -0.023183 0.270658 0.345463
v -0.020045 0.287180 0.347729
v -0.020014 0.277874 0.342906
v -0.024331 0.275271 0.347902
v -0.024371 0.287020 0.353993
v -0.014410 0.287320 0.342930
v -0.014387 0.279879 0.339073
v -0.020014 0.277874 0.342906
v -0.020045 0.287180 0.347729
v -0.023792 0.290152 0.355924
v -0.019561 0.290288 0.349787
v -0.020045 0.287180 0.347729
v -0.024371 0.287020 0.353993
v -0.019561 0.290288 0.349787
v -0.014061 0.290406 0.345092
v -0.014410 0.287320 0.342930
v -0.020045 0.287180 0.347729
v -0.026462 0.290011 0.363101
v -0.023792 0.290152 0.355924
v -0.024371 0.287020 0.353993
v -0.027093 0.286860 0.361303
v -0.024371 0.287020 0.353993
v -0.024331 0.275271 0.347902
v -0.027046 0.272242 0.353728
v -0.027093 0.286860 0.361303
v -0.027375 0.289882 0.370798
v -0.026462 0.290011 0.363101
v -0.027093 0.286860 0.361303
v -0.028025 0.286718 0.369159
v -0.027093 0.286860 0.361303
v -0.027046 0.272242 0.353728
v -0.027967 0.269000 0.359974
v -0.028025 0.286718 0.369159
v -0.027967 0.269000 0.359974
v -0.027046 0.272242 0.353728
v -0.025928 0.267663 0.351036
v -0.027026 0.264435 0.357607
v -0.027046 0.272242 0.353728
v -0.024331 0.275271 0.347902
v -0.023183 0.270658 0.345463
v -0.025928 0.267663 0.351036
v -0.027026 0.264435 0.357607
v -0.027022 0.261884 0.362529
v -0.027963 0.266449 0.364896
v -0.027967 0.269000 0.359974
v -0.028026 0.285850 0.374551
v -0.028025 0.286718 0.369159
v -0.027967 0.269000 0.359974
v -0.027963 0.266449 0.364896
v -0.028025 0.286718 0.369159
v -0.028026 0.285850 0.374551
v -0.027064 0.288817 0.376320
v -0.027375 0.289882 0.370798
v -0.025502 0.292567 0.372188
v -0.024645 0.292682 0.364954
v -0.026462 0.290011 0.363101
v -0.027375 0.289882 0.370798
v -0.027375 0.289882 0.370798
v -0.027064 0.288817 0.376320
v -0.025501 0.291476 0.377664
v -0.025502 0.292567 0.372188
v -0.022692 0.294366 0.373119
v -0.021917 0.294466 0.366579
v -0.024645 0.292682 0.364954
v -0.025502 0.292567 0.372188
v -0.025502 0.292567 0.372188
v -0.025501 0.291476 0.377664
v -0.022738 0.292984 0.378685
v -0.022692 0.294366 0.373119
v -0.021917 0.294466 0.366579
v -0.019621 0.294566 0.360396
v -0.022124 0.292802 0.358173
v -0.024645 0.292682 0.364954
v -0.024645 0.292682 0.364954
v -0.022124 0.292802 0.358173
v -0.023792 0.290152 0.355924
v -0.026462 0.290011 0.363101
v -0.019621 0.294566 0.360396
v -0.016065 0.294656 0.355226
v -0.018164 0.292914 0.352420
v -0.022124 0.292802 0.358173
v -0.022124 0.292802 0.358173
v -0.018164 0.292914 0.352420
v -0.019561 0.290288 0.349787
v -0.023792 0.290152 0.355924
v -0.016065 0.294656 0.355226
v -0.011522 0.294730 0.351336
v -0.013046 0.293008 0.348044
v -0.018164 0.292914 0.352420
v -0.018164 0.292914 0.352420
v -0.013046 0.293008 0.348044
v -0.014061 0.290406 0.345092
v -0.019561 0.290288 0.349787
v -0.011522 0.294730 0.351336
v -0.006379 0.294783 0.348960
v -0.007157 0.293076 0.345328
v -0.013046 0.293008 0.348044
v -0.013046 0.293008 0.348044
v -0.007157 0.293076 0.345328
v -0.007673 0.290491 0.342152
v -0.014061 0.290406 0.345092
v -0.014061 0.290406 0.345092
v -0.007673 0.290491 0.342152
v -0.007846 0.287421 0.339915
v -0.014410 0.287320 0.342930
v 0.000214 0.290537 0.341149
v -0.007673 0.290491 0.342152
v -0.007157 0.293076 0.345328
v 0.000204 0.293115 0.344390
v 0.000224 0.287473 0.338892
v -0.007846 0.287421 0.339915
v -0.007673 0.290491 0.342152
v 0.000214 0.290537 0.341149
v 0.008294 0.287468 0.339927
v 0.000224 0.287473 0.338892
v 0.000214 0.290537 0.341149
v 0.008099 0.290537 0.342163
v 0.008099 0.290537 0.342163
v 0.000214 0.290537 0.341149
v 0.000204 0.293115 0.344390
v 0.007564 0.293119 0.345338
v 0.007564 0.293119 0.345338
v 0.013450 0.293086 0.348063
v 0.014483 0.290489 0.345112
v 0.008099 0.290537 0.342163
v 0.008099 0.290537 0.342163
v 0.014483 0.290489 0.345112
v 0.014854 0.287405 0.342951
v 0.008294 0.287468 0.339927
v 0.014854 0.287405 0.342951
v 0.014879 0.279965 0.339094
v 0.008313 0.281197 0.336676
v 0.008294 0.287468 0.339927
v 0.000244 0.281600 0.335848
v 0.000224 0.287473 0.338892
v 0.008294 0.287468 0.339927
v 0.008313 0.281197 0.336676
v 0.008313 0.281197 0.336676
v 0.014879 0.279965 0.339094
v 0.014937 0.274809 0.337698
v 0.008611 0.275979 0.335212
v 0.008611 0.275979 0.335212
v 0.000259 0.276606 0.334302
v 0.000244 0.281600 0.335848
v 0.008313 0.281197 0.336676
v -0.007846 0.287421 0.339915
v 0.000224 0.287473 0.338892
v 0.000244 0.281600 0.335848
v -0.007824 0.281150 0.336664
v 0.000259 0.276606 0.334302
v -0.008030 0.275891 0.335180
v -0.007824 0.281150 0.336664
v 0.000244 0.281600 0.335848
v 0.008489 0.270556 0.335519
v 0.000275 0.271093 0.334507
v 0.000259 0.276606 0.334302
v 0.008611 0.275979 0.335212
v 0.000275 0.271093 0.334507
v -0.007896 0.270520 0.335494
v -0.008030 0.275891 0.335180
v 0.000259 0.276606 0.334302
v -0.007846 0.287421 0.339915
v -0.007824 0.281150 0.336664
v -0.014387 0.279879 0.339073
v -0.014410 0.287320 0.342930
v 0.014879 0.279965 0.339094
v 0.020513 0.277993 0.342935
v 0.019873 0.273157 0.341147
v 0.014937 0.274809 0.337698
v 0.020482 0.287298 0.347758
v 0.020513 0.277993 0.342935
v 0.014879 0.279965 0.339094
v 0.014854 0.287405 0.342951
v 0.024838 0.275414 0.347937
v 0.023702 0.270772 0.345476
v 0.019873 0.273157 0.341147
v 0.020513 0.277993 0.342935
v 0.024800 0.287163 0.354028
v 0.024838 0.275414 0.347937
v 0.020513 0.277993 0.342935
v 0.020482 0.287298 0.347758
v 0.014483 0.290489 0.345112
v 0.019978 0.290404 0.349815
v 0.020482 0.287298 0.347758
v 0.014854 0.287405 0.342951
v 0.019978 0.290404 0.349815
v 0.024201 0.290292 0.355959
v 0.024800 0.287163 0.354028
v 0.020482 0.287298 0.347758
v 0.024201 0.290292 0.355959
v 0.026861 0.290167 0.363139
v 0.027513 0.287019 0.361342
v 0.024800 0.287163 0.354028
v 0.027513 0.287019 0.361342
v 0.027562 0.272401 0.353766
v 0.024838 0.275414 0.347937
v 0.024800 0.287163 0.354028
v 0.018561 0.293021 0.352446
v 0.022514 0.292932 0.358205
v 0.024201 0.290292 0.355959
v 0.019978 0.290404 0.349815
v 0.022514 0.292932 0.358205
v 0.025025 0.292827 0.364989
v 0.026861 0.290167 0.363139
v 0.024201 0.290292 0.355959
v 0.016448 0.294751 0.355249
v 0.019997 0.294682 0.360425
v 0.022514 0.292932 0.358205
v 0.018561 0.293021 0.352446
v 0.019997 0.294682 0.360425
v 0.022285 0.294595 0.366610
v 0.025025 0.292827 0.364989
v 0.022514 0.292932 0.358205
v 0.011910 0.294799 0.351353
v 0.016448 0.294751 0.355249
v 0.018561 0.293021 0.352446
v 0.013450 0.293086 0.348063
v 0.013450 0.293086 0.348063
v 0.018561 0.293021 0.352446
v 0.019978 0.290404 0.349815
v 0.014483 0.290489 0.345112
v 0.006770 0.294821 0.348970
v 0.011910 0.294799 0.351353
v 0.013450 0.293086 0.348063
v 0.007564 0.293119 0.345338
v 0.005838 0.295384 0.352504
v 0.010099 0.295368 0.354481
v 0.011910 0.294799 0.351353
v 0.006770 0.294821 0.348970
v 0.010099 0.295368 0.354481
v 0.013961 0.295330 0.357798
v 0.016448 0.294751 0.355249
v 0.011910 0.294799 0.351353
v 0.006770 0.294821 0.348970
v 0.000196 0.294815 0.348122
v 0.000192 0.295378 0.351776
v 0.005838 0.295384 0.352504
v 0.007564 0.293119 0.345338
v 0.000204 0.293115 0.344390
v 0.000196 0.294815 0.348122
v 0.006770 0.294821 0.348970
v 0.000204 0.293115 0.344390
v -0.007157 0.293076 0.345328
v -0.006379 0.294783 0.348960
v 0.000196 0.294815 0.348122
v 0.000196 0.294815 0.348122
v -0.006379 0.294783 0.348960
v -0.005455 0.295351 0.352496
v 0.000192 0.295378 0.351776
v -0.005455 0.295351 0.352496
v -0.009718 0.295310 0.354467
v -0.013585 0.295250 0.357779
v -0.016663 0.295176 0.362256
v -0.018695 0.295090 0.367729
v -0.019373 0.295005 0.373447
v 0.000178 0.295062 0.373461
v 0.000192 0.295378 0.351776
v 0.000192 0.295378 0.351776
v 0.000178 0.295062 0.373461
v 0.019728 0.295119 0.373475
v 0.019057 0.295200 0.367756
v 0.017033 0.295274 0.362280
v 0.013961 0.295330 0.357798
v 0.010099 0.295368 0.354481
v 0.005838 0.295384 0.352504
v 0.000178 0.295062 0.373461
v 0.000176 0.294217 0.379319
v 0.019728 0.294274 0.379333
v 0.019728 0.295119 0.373475
v 0.000178 0.295062 0.373461
v -0.019373 0.295005 0.373447
v -0.019376 0.294160 0.379305
v 0.000176 0.294217 0.379319
v -0.019373 0.295005 0.373447
v -0.018695 0.295090 0.367729
v -0.021917 0.294466 0.366579
v -0.022692 0.294366 0.373119
v -0.022692 0.294366 0.373119
v -0.022738 0.292984 0.378685
v -0.019376 0.294160 0.379305
v -0.019373 0.295005 0.373447
v -0.018695 0.295090 0.367729
v -0.016663 0.295176 0.362256
v -0.019621 0.294566 0.360396
v -0.021917 0.294466 0.366579
v -0.016663 0.295176 0.362256
v -0.013585 0.295250 0.357779
v -0.016065 0.294656 0.355226
v -0.019621 0.294566 0.360396
v -0.013585 0.295250 0.357779
v -0.009718 0.295310 0.354467
v -0.011522 0.294730 0.351336
v -0.016065 0.294656 0.355226
v -0.009718 0.295310 0.354467
v -0.005455 0.295351 0.352496
v -0.006379 0.294783 0.348960
v -0.011522 0.294730 0.351336
v 0.019057 0.295200 0.367756
v 0.019728 0.295119 0.373475
v 0.023052 0.294500 0.373151
v 0.022285 0.294595 0.366610
v 0.019728 0.295119 0.373475
v 0.019728 0.294274 0.379333
v 0.023098 0.293117 0.378718
v 0.023052 0.294500 0.373151
v 0.017033 0.295274 0.362280
v 0.019057 0.295200 0.367756
v 0.022285 0.294595 0.366610
v 0.019997 0.294682 0.360425
v 0.013961 0.295330 0.357798
v 0.017033 0.295274 0.362280
v 0.019997 0.294682 0.360425
v 0.016448 0.294751 0.355249
v 0.027562 0.272401 0.353766
v 0.026475 0.267749 0.351107
v 0.023702 0.270772 0.345476
v 0.024838 0.275414 0.347937
v -0.008039 0.256061 0.345075
v -0.014369 0.257773 0.346101
v -0.013697 0.261959 0.341720
v -0.007912 0.260799 0.340332
v 0.008602 0.256137 0.345034
v 0.008473 0.260832 0.340344
v 0.014284 0.262043 0.341734
v 0.014988 0.257889 0.346092
vn 0.9355 -0.3412 -0.0924
vn 0.9399 -0.3028 -0.1577
vn 0.9995 -0.0282 -0.0154
vn 0.9968 -0.0657 0.0462
vn 0.9968 -0.0659 0.0462
vn 0.9674 -0.1526 0.2021
vn 0.9063 -0.4175 0.0654
vn 0.9961 -0.0069 0.0877
vn 0.9643 -0.0895 0.2491
vn 0.9992 0.0323 0.0218
vn 0.9280 0.2966 0.2255
vn 0.9125 0.2241 0.3421
vn 0.9992 0.0323 0.0219
vn 0.9125 0.2240 0.3423
vn 0.8533 0.1195 0.5076
vn 0.9991 0.0339 0.0237
vn 0.9317 0.3181 0.1754
vn 0.9995 -0.0298 -0.0099
vn 0.9991 0.0345 0.0228
vn 0.9317 0.3225 0.1670
vn 0.9991 0.0340 0.0237
vn 0.9992 0.0343 0.0228
vn 0.9992 0.0371 0.0126
vn 0.9992 0.0373 0.0126
vn 0.9279 0.3559 0.1112
vn 0.9399 -0.3053 -0.1530
vn 0.7867 -0.5478 -0.2846
vn 0.9399 -0.3029 -0.1577
vn 0.7867 -0.5499 -0.2807
vn 0.5927 -0.7164 -0.3681
vn 0.7866 -0.5480 -0.2846
vn 0.5926 -0.7149 -0.3711
vn 0.5926 -0.7165 -0.3681
vn 0.7866 -0.5499 -0.2807
vn 0.3916 -0.8178 -0.4217
vn 0.3915 -0.8168 -0.4237
vn 0.3917 -0.8178 -0.4217
vn 0.5925 -0.7165 -0.3681
vn 0.7866 -0.5479 -0.2846
vn 0.1821 -0.8729 -0.4526
vn 0.1821 -0.8734 -0.4517
vn 0.1820 -0.8734 -0.4517
vn 0.0029 -0.8878 -0.4602
vn 0.0027 -0.8878 -0.4602
vn 0.1821 -0.8729 -0.4527
vn -0.1763 -0.8740 -0.4529
vn -0.1763 -0.8735 -0.4538
vn -0.3862 -0.8190 -0.4243
vn -0.3861 -0.8181 -0.4262
vn -0.3862 -0.8181 -0.4262
vn -0.3862 -0.8191 -0.4242
vn -0.5879 -0.7168 -0.3749
vn -0.5879 -0.7184 -0.3719
vn -0.7830 -0.5504 -0.2897
vn -0.7831 -0.5524 -0.2857
vn -0.7830 -0.5505 -0.2897
vn -0.9379 -0.3084 -0.1590
vn -0.9379 -0.3058 -0.1638
vn -0.7831 -0.5503 -0.2897
vn -0.9379 -0.3082 -0.1590
vn -0.9993 -0.0340 -0.0168
vn -0.9993 -0.0305 -0.0213
vn -0.9993 -0.0304 -0.0213
vn -0.9379 -0.3059 -0.1638
vn -0.9379 -0.3083 -0.1592
vn -0.9379 -0.3083 -0.1590
vn -0.9994 0.0313 0.0111
vn -0.9994 0.0337 0.0114
vn -0.9994 0.0332 0.0122
vn -0.9994 0.0338 0.0114
vn -0.9338 0.3219 0.1563
vn -0.9301 0.3505 0.1099
vn -0.9994 0.0334 0.0122
vn -0.9338 0.3176 0.1647
vn -0.9994 0.0265 0.0204
vn -0.9300 0.2912 0.2242
vn -0.7311 0.5315 0.4278
vn -0.7407 0.5939 0.3142
vn -0.7405 0.6025 0.2977
vn -0.7406 0.5939 0.3142
vn -0.4269 0.6999 0.5726
vn -0.4327 0.7962 0.4229
vn -0.7405 0.5940 0.3142
vn -0.4326 0.8064 0.4031
vn -0.7406 0.5940 0.3142
vn -0.4326 0.7962 0.4229
vn -0.7313 0.6555 0.1886
vn -0.4271 0.8711 0.2424
vn -0.0502 0.9677 0.2472
vn -0.4326 0.8065 0.4031
vn -0.0537 0.8910 0.4509
vn -0.0535 0.8910 0.4509
vn -0.0535 0.8823 0.4677
vn -0.0029 0.8920 0.4520
vn -0.0030 0.9696 0.2445
vn -0.0501 0.9677 0.2472
vn -0.0534 0.8823 0.4677
vn -0.0027 0.8835 0.4684
vn -0.0498 0.7598 0.6483
vn -0.0027 0.7587 0.6514
vn -0.0498 0.7597 0.6483
vn 0.0446 0.7600 0.6484
vn 0.0476 0.8823 0.4683
vn 0.0476 0.8910 0.4514
vn 0.4220 0.7024 0.5732
vn 0.4274 0.7965 0.4278
vn 0.4274 0.8068 0.4080
vn 0.0477 0.8823 0.4683
vn 0.0441 0.9680 0.2472
vn 0.0476 0.8911 0.4514
vn 0.4217 0.8736 0.2430
vn 0.7366 0.6030 0.3062
vn 0.7272 0.6597 0.1897
vn 0.4275 0.7964 0.4278
vn 0.7366 0.5944 0.3227
vn 0.7367 0.6029 0.3062
vn 0.9317 0.3226 0.1670
vn 0.7367 0.5943 0.3227
vn 0.7274 0.5357 0.4289
vn 0.7273 0.5358 0.4289
vn 0.7366 0.5943 0.3227
vn 0.4274 0.7964 0.4278
vn 0.6984 0.4367 0.5671
vn 0.9124 0.2242 0.3423
vn 0.3905 0.5875 0.7088
vn 0.6983 0.4368 0.5671
vn 0.3508 0.4811 0.8034
vn 0.6374 0.3224 0.6998
vn 0.6983 0.4367 0.5672
vn 0.6984 0.4366 0.5671
vn 0.6375 0.3224 0.6998
vn 0.8532 0.1196 0.5076
vn 0.9124 0.2241 0.3424
vn 0.3077 0.4245 0.8515
vn 0.5500 0.2351 0.8014
vn 0.6374 0.3224 0.6999
vn 0.7416 0.0184 0.6706
vn 0.8532 0.1195 0.5077
vn 0.3077 0.4245 0.8516
vn 0.2491 0.3749 0.8930
vn 0.4382 0.1618 0.8842
vn 0.5500 0.2349 0.8014
vn 0.5922 -0.0664 0.8031
vn 0.7416 0.0183 0.6706
vn 0.1762 0.3359 0.9253
vn 0.3057 0.1059 0.9462
vn 0.4382 0.1617 0.8842
vn 0.4129 -0.1311 0.9013
vn 0.5922 -0.0666 0.8031
vn 0.0833 0.3105 0.9469
vn 0.1453 0.0697 0.9869
vn 0.1454 0.0696 0.9869
vn 0.1975 -0.1731 0.9649
vn -0.0015 0.3030 0.9530
vn -0.0009 0.0582 0.9983
vn 0.1453 0.0696 0.9869
vn -0.0009 0.0581 0.9983
vn -0.0002 -0.1861 0.9825
vn -0.0864 0.3100 0.9468
vn -0.1471 0.0687 0.9867
vn -0.1979 -0.1743 0.9646
vn -0.2400 -0.3987 0.8851
vn 0.0006 -0.4102 0.9120
vn -0.0002 -0.1862 0.9825
vn 0.2412 -0.3974 0.8854
vn 0.0009 -0.5324 0.8465
vn -0.2401 -0.3987 0.8851
vn -0.2474 -0.5152 0.8206
vn 0.2494 -0.5143 0.8206
vn -0.2322 -0.7250 0.6484
vn 0.0010 -0.7436 0.6686
vn 0.0010 -0.7437 0.6685
vn 0.2356 -0.7235 0.6489
vn -0.1991 -0.8947 0.3999
vn 0.0015 -0.9123 0.4095
vn 0.2035 -0.8938 0.3996
vn -0.1725 -0.9735 0.1501
vn 0.0028 -0.9883 0.1525
vn -0.1991 -0.8947 0.3998
vn 0.1780 -0.9725 0.1503
vn -0.1710 -0.9824 -0.0746
vn 0.0037 -0.9970 -0.0769
vn -0.1725 -0.9735 0.1500
vn 0.1770 -0.9814 -0.0748
vn -0.1784 -0.9461 -0.2704
vn 0.0036 -0.9612 -0.2758
vn 0.1842 -0.9451 -0.2700
vn -0.1789 -0.8988 -0.4003
vn 0.0030 -0.9129 -0.4081
vn 0.1845 -0.8975 -0.4005
vn -0.1789 -0.8987 -0.4003
vn -0.1791 -0.8987 -0.4003
vn -0.3816 -0.8901 -0.2493
vn -0.3862 -0.8437 -0.3728
vn -0.5771 -0.7927 -0.1965
vn -0.5867 -0.7439 -0.3201
vn -0.7804 -0.5825 -0.2274
vn -0.5867 -0.7438 -0.3201
vn -0.7616 -0.6421 -0.0878
vn -0.5868 -0.7438 -0.3201
vn -0.7804 -0.5824 -0.2274
vn -0.9335 -0.3460 -0.0941
vn -0.9040 -0.4227 0.0643
vn -0.7060 -0.7001 0.1070
vn -0.8180 -0.5048 0.2758
vn -0.5473 -0.8367 -0.0219
vn -0.5928 -0.7555 0.2790
vn -0.6727 -0.5805 0.4587
vn -0.5472 -0.8367 -0.0219
vn -0.5059 -0.8526 0.1309
vn -0.4756 -0.6611 0.5803
vn -0.6726 -0.5805 0.4589
vn -0.4148 -0.8331 0.3659
vn -0.4148 -0.8331 0.3658
vn -0.5059 -0.8526 0.1310
vn -0.3625 -0.9212 0.1414
vn -0.3649 -0.9287 -0.0668
vn -0.1992 -0.8947 0.3998
vn -0.3649 -0.9286 -0.0668
vn -0.5060 -0.4557 0.7323
vn -0.7127 -0.3720 0.5947
vn -0.6726 -0.5805 0.4590
vn -0.5060 -0.4558 0.7323
vn -0.4964 -0.3565 0.7915
vn -0.7033 -0.2898 0.6491
vn -0.4966 -0.3565 0.7914
vn -0.4134 -0.1336 0.9007
vn -0.4134 -0.1335 0.9007
vn -0.5929 -0.0700 0.8022
vn -0.4965 -0.3565 0.7915
vn -0.7426 0.0139 0.6696
vn -0.8630 -0.2008 0.4636
vn -0.7034 -0.2897 0.6491
vn -0.8695 -0.2724 0.4119
vn -0.7034 -0.2898 0.6490
vn -0.7426 0.0140 0.6696
vn -0.8547 0.1143 0.5064
vn -0.9642 -0.0951 0.2477
vn -0.8630 -0.2007 0.4636
vn -0.9667 -0.1587 0.2006
vn -0.8696 -0.2724 0.4118
vn -0.8696 -0.2724 0.4119
vn -0.8180 -0.5048 0.2759
vn -0.6727 -0.5804 0.4589
vn -0.9962 -0.0127 0.0863
vn -0.9964 -0.0715 0.0448
vn -0.9642 -0.0951 0.2476
vn -0.8547 0.1145 0.5064
vn -0.9143 0.2188 0.3410
vn -0.9642 -0.0949 0.2477
vn -0.9143 0.2188 0.3409
vn -0.6403 0.3187 0.6989
vn -0.7017 0.4325 0.5661
vn -0.9142 0.2188 0.3411
vn -0.9142 0.2188 0.3410
vn -0.7017 0.4326 0.5661
vn -0.5526 0.2319 0.8005
vn -0.6403 0.3186 0.6989
vn -0.3114 0.4227 0.8511
vn -0.3547 0.4791 0.8029
vn -0.5525 0.2319 0.8006
vn -0.3948 0.5852 0.7083
vn -0.2526 0.3734 0.8926
vn -0.4404 0.1592 0.8836
vn -0.1794 0.3349 0.9250
vn -0.3076 0.1041 0.9458
vn -0.4404 0.1591 0.8836
vn -0.4134 -0.1334 0.9007
vn -0.1471 0.0688 0.9867
vn -0.0072 0.5737 0.8190
vn -0.0120 0.5761 0.8173
vn -0.1794 0.3350 0.9250
vn -0.0864 0.3101 0.9468
vn -0.0164 0.5780 0.8159
vn -0.0023 0.5796 0.8149
vn -0.0015 0.3031 0.9530
vn -0.0024 0.6148 0.7887
vn -0.0220 0.6173 0.7864
vn -0.0224 0.5842 0.8113
vn -0.0202 0.5807 0.8139
vn 0.0027 0.5737 0.8191
vn 0.0179 0.5843 0.8113
vn 0.0173 0.6174 0.7865
vn 0.0027 0.5737 0.8190
vn 0.0074 0.5762 0.8173
vn 0.0119 0.5781 0.8159
vn 0.0156 0.5808 0.8139
vn -0.0498 0.7597 0.6484
vn -0.0220 0.6172 0.7865
vn -0.3947 0.5852 0.7083
vn -0.0499 0.7597 0.6483
vn -0.3113 0.4227 0.8511
vn -0.2526 0.3735 0.8926
vn 0.0174 0.6174 0.7865
vn 0.0181 0.5843 0.8113
vn 0.3507 0.4811 0.8035
vn 0.3904 0.5875 0.7088
vn 0.3076 0.4245 0.8516
vn 0.3506 0.4811 0.8035
vn 0.3920 -0.8410 -0.3728
vn 0.3876 -0.8876 -0.2488
vn 0.3921 -0.8410 -0.3728
vn 0.5917 -0.7403 -0.3191
vn 0.5818 -0.7894 -0.1957
vn 0.3877 -0.8876 -0.2488
vn 0.5918 -0.7403 -0.3191
vn 0.7843 -0.5780 -0.2254
vn 0.7657 -0.6373 -0.0862
vn 0.5820 -0.7893 -0.1957
vn 0.5918 -0.7402 -0.3191
vn 0.7843 -0.5779 -0.2254
vn 0.7844 -0.5779 -0.2254
vn 0.7867 -0.5477 -0.2846
vn 0.9354 -0.3412 -0.0925
vn 0.9354 -0.3412 -0.0924
vn 0.7658 -0.6373 -0.0862
vn 0.9063 -0.4176 0.0654
vn 0.8204 -0.4999 0.2776
vn 0.7099 -0.6959 0.1084
vn 0.7657 -0.6374 -0.0862
vn 0.5517 -0.8338 -0.0214
vn 0.5819 -0.7894 -0.1957
vn 0.6754 -0.5765 0.4598
vn 0.5971 -0.7519 0.2796
vn 0.5105 -0.8498 0.1314
vn 0.3706 -0.9264 -0.0664
vn 0.3677 -0.9190 0.1425
vn 0.4189 -0.8308 0.3664
vn 0.3678 -0.9189 0.1425
vn 0.4189 -0.8308 0.3665
vn 0.4781 -0.6588 0.5809
vn 0.4781 -0.6587 0.5809
vn 0.2494 -0.5143 0.8205
vn 0.5073 -0.4536 0.7327
vn 0.4782 -0.6587 0.5809
vn 0.7139 -0.3678 0.5959
vn 0.8704 -0.2668 0.4137
vn 0.6755 -0.5765 0.4598
vn 0.8704 -0.2668 0.4138
vn 0.8635 -0.1957 0.4649
vn 0.7041 -0.2857 0.6501
vn 0.4975 -0.3536 0.7921
vn 0.4975 -0.3535 0.7921
vn 0.5922 -0.0666 0.8030
vn 0.4129 -0.1312 0.9013
vn 0.1975 -0.1732 0.9649
vn 0.4974 -0.3536 0.7922
vn 0.8533 0.1194 0.5076
vn 0.9643 -0.0895 0.2492
vn 0.9674 -0.1526 0.2022
vn 0.8705 -0.2668 0.4137
vn 0.9063 -0.4175 0.0655
vn 0.6979 0.7156 0.0291
vn 0.9122 0.4095 -0.0154
vn 0.3899 0.9181 0.0710
vn 0.3501 0.9340 -0.0704
vn 0.6367 0.7582 -0.1408
vn 0.6368 0.7580 -0.1408
vn 0.8527 0.4842 -0.1960
vn 0.9960 0.0683 -0.0574
vn 0.9640 0.1526 -0.2179
vn 0.9122 0.4094 -0.0154
vn 0.9967 0.0005 -0.0815
vn 0.9670 0.0775 -0.2428
vn 0.9355 -0.2715 -0.2260
vn 0.9060 -0.1864 -0.3801
vn 0.9670 0.0773 -0.2428
vn 0.7840 -0.5175 -0.3428
vn 0.7652 -0.4378 -0.4721
vn 0.7867 -0.5479 -0.2846
vn 0.7840 -0.5176 -0.3428
vn 0.9355 -0.2716 -0.2260
vn 0.9399 -0.3028 -0.1578
vn 0.5915 -0.6872 -0.4218
vn 0.5817 -0.6145 -0.5329
vn 0.7651 -0.4380 -0.4721
vn 0.7839 -0.5177 -0.3428
vn 0.3916 -0.8168 -0.4237
vn 0.3916 -0.7889 -0.4736
vn 0.5914 -0.6872 -0.4218
vn 0.3870 -0.7147 -0.5826
vn 0.5816 -0.6145 -0.5330
vn 0.5914 -0.6872 -0.4219
vn 0.3699 -0.5879 -0.7194
vn 0.5516 -0.4973 -0.6696
vn 0.7651 -0.4378 -0.4721
vn 0.5817 -0.6144 -0.5330
vn 0.5517 -0.4973 -0.6696
vn 0.7093 -0.3125 -0.6319
vn 0.3669 -0.4135 -0.8333
vn 0.5099 -0.3819 -0.7708
vn 0.5516 -0.4973 -0.6697
vn 0.7093 -0.3124 -0.6319
vn 0.5958 -0.2044 -0.7767
vn 0.8198 -0.0614 -0.5693
vn 0.6744 0.0438 -0.7370
vn 0.4774 0.0956 -0.8735
vn 0.6744 0.0439 -0.7371
vn 0.4182 -0.1790 -0.8905
vn 0.2342 0.1131 -0.9656
vn 0.4773 0.0956 -0.8735
vn 0.4182 -0.1790 -0.8906
vn 0.2028 -0.1880 -0.9610
vn 0.1771 -0.4377 -0.8815
vn 0.1763 -0.6264 -0.7593
vn 0.0017 -0.6377 -0.7703
vn 0.0019 -0.4450 -0.8955
vn 0.0021 -0.1913 -0.9815
vn 0.2027 -0.1881 -0.9610
vn -0.1734 -0.4386 -0.8818
vn -0.1999 -0.1897 -0.9613
vn -0.1717 -0.6277 -0.7593
vn -0.1734 -0.4387 -0.8817
vn 0.1840 -0.7654 -0.6167
vn 0.0024 -0.7797 -0.6262
vn -0.1786 -0.7663 -0.6171
vn 0.1846 -0.8442 -0.5032
vn 0.0029 -0.8597 -0.5107
vn 0.0024 -0.7797 -0.6261
vn -0.1787 -0.8455 -0.5031
vn -0.1786 -0.7664 -0.6171
vn 0.0024 -0.7798 -0.6261
vn 0.0029 -0.8598 -0.5107
vn -0.3867 -0.7914 -0.4734
vn -0.3823 -0.7170 -0.5829
vn -0.5870 -0.6906 -0.4225
vn -0.5773 -0.6179 -0.5338
vn -0.7807 -0.5214 -0.3444
vn -0.7622 -0.4418 -0.4732
vn -0.5871 -0.6905 -0.4225
vn -0.7807 -0.5215 -0.3444
vn -0.9334 -0.2770 -0.2281
vn -0.9043 -0.1919 -0.3813
vn -0.7622 -0.4417 -0.4732
vn -0.8185 -0.0656 -0.5707
vn -0.7067 -0.3162 -0.6330
vn -0.7622 -0.4417 -0.4733
vn -0.7066 -0.3163 -0.6330
vn -0.5473 -0.5009 -0.6705
vn -0.6737 0.0398 -0.7380
vn -0.5939 -0.2080 -0.7772
vn -0.7066 -0.3162 -0.6330
vn -0.7065 -0.3162 -0.6331
vn -0.5066 -0.3848 -0.7716
vn -0.3656 -0.5902 -0.7197
vn -0.3634 -0.4151 -0.8340
vn -0.4156 -0.1817 -0.8912
vn -0.5066 -0.3847 -0.7716
vn -0.3634 -0.4152 -0.8340
vn -0.1734 -0.4387 -0.8818
vn -0.3634 -0.4150 -0.8341
vn -0.2336 0.1119 -0.9659
vn -0.4763 0.0926 -0.8744
vn -0.4157 -0.1817 -0.8912
vn -0.6736 0.0399 -0.7380
vn -0.2490 0.3728 -0.8939
vn -0.5069 0.3346 -0.7944
vn -0.6736 0.0400 -0.7380
vn -0.7135 0.2712 -0.6461
vn -0.8701 0.1798 -0.4589
vn -0.7136 0.2711 -0.6460
vn -0.6737 0.0399 -0.7379
vn -0.7044 0.3629 -0.6101
vn -0.7136 0.2712 -0.6459
vn -0.8702 0.1798 -0.4588
vn -0.8637 0.2626 -0.4302
vn -0.4977 0.4410 -0.7469
vn -0.7135 0.2712 -0.6460
vn -0.7435 0.5547 -0.3736
vn -0.5940 0.6148 -0.5189
vn -0.5940 0.6147 -0.5189
vn -0.4146 0.6588 -0.6277
vn -0.7043 0.3629 -0.6101
vn -0.8552 0.4793 -0.1972
vn -0.7435 0.5546 -0.3736
vn -0.9645 0.1470 -0.2193
vn -0.8702 0.1798 -0.4587
vn -0.9671 0.0722 -0.2438
vn -0.9645 0.1469 -0.2194
vn -0.9145 0.4042 -0.0167
vn -0.9645 0.1469 -0.2193
vn -0.9963 0.0627 -0.0588
vn -0.9965 -0.0053 -0.0830
vn -0.9963 0.0625 -0.0588
vn -0.9671 0.0720 -0.2438
vn -0.9334 -0.2769 -0.2281
vn -0.8702 0.1796 -0.4588
vn -0.9043 -0.1918 -0.3813
vn -0.9994 0.0315 0.0111
vn -0.7021 0.7115 0.0281
vn -0.6411 0.7543 -0.1417
vn -0.9145 0.4043 -0.0167
vn -0.3953 0.9158 0.0705
vn -0.3555 0.9320 -0.0709
vn -0.6409 0.7544 -0.1417
vn -0.7021 0.7115 0.0282
vn -0.3955 0.9158 0.0705
vn -0.3554 0.9320 -0.0709
vn -0.3121 0.9389 -0.1449
vn -0.5534 0.7875 -0.2713
vn -0.6410 0.7543 -0.1417
vn -0.2535 0.9445 -0.2090
vn -0.4414 0.8135 -0.3787
vn -0.5940 0.6148 -0.5188
vn -0.1804 0.9488 -0.2593
vn -0.3088 0.8327 -0.4597
vn -0.5939 0.6148 -0.5189
vn -0.0874 0.9523 -0.2923
vn -0.1483 0.8459 -0.5124
vn -0.3087 0.8327 -0.4597
vn -0.1483 0.8458 -0.5124
vn -0.1992 0.6877 -0.6981
vn -0.4146 0.6589 -0.6277
vn -0.4146 0.6588 -0.6278
vn -0.1993 0.6876 -0.6982
vn -0.2415 0.4932 -0.8357
vn -0.0015 0.6956 -0.7184
vn -0.1992 0.6877 -0.6982
vn -0.0021 0.8493 -0.5279
vn -0.0009 0.5088 -0.8609
vn -0.1992 0.6876 -0.6982
vn 0.2398 0.4946 -0.8354
vn 0.1962 0.6888 -0.6979
vn 0.1441 0.8467 -0.5122
vn 0.3045 0.8345 -0.4593
vn 0.4117 0.6613 -0.6271
vn 0.1963 0.6888 -0.6979
vn 0.4117 0.6612 -0.6271
vn 0.4961 0.4439 -0.7462
vn 0.4962 0.4439 -0.7462
vn 0.5064 0.3383 -0.7932
vn 0.2479 0.3749 -0.8933
vn -0.0004 0.3848 -0.9230
vn 0.2397 0.4946 -0.8354
vn 0.2480 0.3749 -0.8933
vn 0.0011 0.1175 -0.9931
vn -0.0010 0.5088 -0.8609
vn -0.2489 0.3728 -0.8939
vn 0.2027 -0.1880 -0.9610
vn 0.0021 -0.1912 -0.9816
vn 0.7130 0.2753 -0.6449
vn 0.6744 0.0440 -0.7370
vn 0.7031 0.3670 -0.6091
vn 0.8698 0.1841 -0.4577
vn 0.6745 0.0439 -0.7370
vn 0.8627 0.2676 -0.4291
vn 0.5911 0.6182 -0.5181
vn 0.4962 0.4439 -0.7461
vn 0.7407 0.5590 -0.3726
vn 0.8627 0.2676 -0.4290
vn 0.7408 0.5590 -0.3725
vn 0.8527 0.4842 -0.1961
vn 0.8628 0.2676 -0.4289
vn 0.8699 0.1841 -0.4577
vn 0.8628 0.2676 -0.4290
vn 0.4373 0.8160 -0.3780
vn 0.5492 0.7907 -0.2705
vn 0.7407 0.5591 -0.3725
vn 0.5493 0.7906 -0.2705
vn 0.6367 0.7581 -0.1408
vn 0.8527 0.4843 -0.1960
vn 0.2483 0.9459 -0.2087
vn 0.3069 0.9407 -0.1445
vn 0.4372 0.8161 -0.3780
vn 0.3071 0.9407 -0.1444
vn 0.3500 0.9341 -0.0704
vn 0.1752 0.9499 -0.2590
vn 0.3045 0.8345 -0.4592
vn 0.3046 0.8344 -0.4593
vn 0.0823 0.9528 -0.2922
vn 0.1752 0.9498 -0.2590
vn 0.3044 0.8345 -0.4593
vn 0.0020 1.0000 -0.0034
vn 0.0068 1.0000 -0.0004
vn 0.0068 1.0000 -0.0003
vn 0.0112 0.9999 0.0020
vn -0.0026 0.9534 -0.3016
vn -0.0029 1.0000 0.0040
vn 0.0020 1.0000 -0.0033
vn -0.0026 0.9534 -0.3017
vn -0.0078 1.0000 -0.0033
vn -0.0029 0.9989 0.0477
vn -0.0126 0.9999 -0.0003
vn -0.0171 0.9999 0.0020
vn -0.0208 0.9998 0.0054
vn -0.0231 0.9997 0.0097
vn -0.0226 0.9984 0.0511
vn 0.0167 0.9986 0.0511
vn 0.0172 0.9998 0.0098
vn 0.0150 0.9999 0.0054
vn -0.3952 0.9159 0.0705
vn -0.3121 0.9390 -0.1449
vn -0.0171 0.9999 0.0019
vn -0.1804 0.9488 -0.2592
vn -0.2534 0.9445 -0.2090
vn 0.3897 0.9182 0.0710
vn 0.3499 0.9341 -0.0704
vn 0.4216 0.8736 0.2430
vn 0.3898 0.9182 0.0710
vn 0.0173 0.9998 0.0098
vn 0.3069 0.9407 -0.1444
vn 0.9060 -0.1862 -0.3801
vt 0.886567 0.164180
vt 0.886567 0.167121
vt 0.889308 0.167131
vt 0.889321 0.164242
vt 0.889354 0.160569
vt 0.886567 0.160258
vt 0.899623 0.164189
vt 0.897760 0.160557
vt 0.900592 0.166885
vt 0.902502 0.166934
vt 0.901516 0.164116
vt 0.899668 0.160511
vt 0.900860 0.169359
vt 0.902844 0.169322
vt 0.889311 0.169389
vt 0.900918 0.188766
vt 0.902900 0.188773
vt 0.889339 0.188838
vt 0.889342 0.191110
vt 0.900696 0.191238
vt 0.902600 0.191155
vt 0.886567 0.191128
vt 0.886567 0.188832
vt 0.886567 0.169414
vt 0.886522 0.100560
vt 0.889913 0.100809
vt 0.890007 0.098060
vt 0.886674 0.097951
vt 0.890007 0.076089
vt 0.886673 0.076173
vt 0.889936 0.073342
vt 0.886544 0.073562
vt 0.883147 0.076288
vt 0.883025 0.073771
vt 0.883151 0.097803
vt 0.879415 0.076394
vt 0.879327 0.073941
vt 0.879423 0.097659
vt 0.879310 0.100109
vt 0.883004 0.100317
vt 0.875458 0.099961
vt 0.875527 0.097549
vt 0.875516 0.076462
vt 0.870952 0.099886
vt 0.870965 0.097488
vt 0.870953 0.076472
vt 0.875473 0.074049
vt 0.870966 0.074075
vt 0.866460 0.073999
vt 0.866391 0.076412
vt 0.866402 0.097498
vt 0.862608 0.073851
vt 0.862495 0.076301
vt 0.862503 0.097566
vt 0.866445 0.099912
vt 0.862591 0.100019
vt 0.858772 0.097672
vt 0.858894 0.100189
vt 0.858767 0.076157
vt 0.855246 0.097788
vt 0.855374 0.100399
vt 0.855245 0.076009
vt 0.858914 0.073643
vt 0.855397 0.073400
vt 0.852005 0.073151
vt 0.851911 0.075901
vt 0.851911 0.097872
vt 0.886567 0.275401
vt 0.889849 0.275390
vt 0.889849 0.272699
vt 0.886567 0.272674
vt 0.889832 0.249615
vt 0.886567 0.249653
vt 0.851982 0.100619
vt 0.889823 0.246935
vt 0.886567 0.246927
vt 0.903236 0.246627
vt 0.903552 0.249582
vt 0.903605 0.272664
vt 0.905918 0.249540
vt 0.905516 0.246688
vt 0.905968 0.272685
vt 0.903316 0.275616
vt 0.905593 0.275534
vt 0.907757 0.275612
vt 0.908115 0.272703
vt 0.908065 0.249502
vt 0.774745 0.074009
vt 0.774779 0.076532
vt 0.776706 0.076441
vt 0.776681 0.073653
vt 0.774771 0.097798
vt 0.776698 0.097869
vt 0.907683 0.246590
vt 0.774765 0.100321
vt 0.776706 0.100655
vt 0.772710 0.100170
vt 0.772721 0.097745
vt 0.772731 0.076608
vt 0.761528 0.097806
vt 0.761542 0.100265
vt 0.761537 0.076678
vt 0.772691 0.074184
vt 0.761523 0.074219
vt 0.750355 0.074315
vt 0.750344 0.076739
vt 0.750334 0.097876
vt 0.748299 0.074164
vt 0.748294 0.076686
vt 0.748286 0.097953
vt 0.750374 0.100300
vt 0.748320 0.100475
vt 0.746359 0.098044
vt 0.746384 0.100831
vt 0.746367 0.076616
vt 0.904406 0.191209
vt 0.904699 0.188782
vt 0.904645 0.169287
vt 0.904316 0.166847
vt 0.746359 0.073829
vt 0.903413 0.163925
vt 0.748360 0.070841
vt 0.746364 0.070428
vt 0.748691 0.067042
vt 0.746770 0.066073
vt 0.901653 0.160352
vt 0.749967 0.063417
vt 0.748230 0.062019
vt 0.900059 0.156725
vt 0.898010 0.156894
vt 0.752002 0.060384
vt 0.750559 0.058592
vt 0.898730 0.153143
vt 0.896622 0.153290
vt 0.754624 0.058098
vt 0.753577 0.055985
vt 0.897754 0.149604
vt 0.895598 0.149695
vt 0.757600 0.056692
vt 0.757055 0.054357
vt 0.897218 0.146118
vt 0.895016 0.146094
vt 0.761417 0.056173
vt 0.761403 0.053766
vt 0.897246 0.142079
vt 0.894993 0.141859
vt 0.765240 0.056648
vt 0.765758 0.054305
vt 0.899546 0.305564
vt 0.899485 0.300657
vt 0.896811 0.300701
vt 0.896810 0.305847
vt 0.894411 0.300772
vt 0.894307 0.305991
vt 0.892933 0.141750
vt 0.893039 0.146045
vt 0.889977 0.306036
vt 0.889989 0.300861
vt 0.889371 0.141731
vt 0.889399 0.145987
vt 0.886567 0.300503
vt 0.886567 0.305907
vt 0.886567 0.141850
vt 0.886567 0.146259
vt 0.866241 0.057281
vt 0.871059 0.056623
vt 0.871075 0.053234
vt 0.865755 0.053977
vt 0.875847 0.057319
vt 0.876350 0.054049
vt 0.866558 0.060277
vt 0.871041 0.060035
vt 0.875522 0.060313
vt 0.866582 0.063388
vt 0.871022 0.063559
vt 0.875487 0.063430
vt 0.866538 0.066962
vt 0.871003 0.067234
vt 0.875503 0.067042
vt 0.866566 0.070950
vt 0.870982 0.071041
vt 0.875400 0.070997
vt 0.862913 0.066767
vt 0.862796 0.070753
vt 0.859774 0.066503
vt 0.859176 0.070458
vt 0.855712 0.070079
vt 0.856796 0.065920
vt 0.852342 0.069618
vt 0.853583 0.065110
vt 0.858263 0.062498
vt 0.855571 0.061085
vt 0.860600 0.063387
vt 0.860075 0.059983
vt 0.858184 0.057897
vt 0.861330 0.061359
vt 0.861585 0.055569
vt 0.862735 0.058405
vt 0.863409 0.060813
vt 0.863252 0.063453
vt 0.889935 0.296425
vt 0.889885 0.292020
vt 0.886567 0.292045
vt 0.886567 0.296066
vt 0.895130 0.296339
vt 0.896366 0.291949
vt 0.897495 0.296329
vt 0.898706 0.291969
vt 0.900343 0.287609
vt 0.898029 0.287578
vt 0.889914 0.287631
vt 0.902291 0.283245
vt 0.900003 0.283211
vt 0.889929 0.283241
vt 0.886567 0.283578
vt 0.886567 0.288029
vt 0.902193 0.278845
vt 0.889872 0.278841
vt 0.886567 0.278913
vt 0.904455 0.278909
vt 0.904672 0.283409
vt 0.906723 0.279110
vt 0.902811 0.287787
vt 0.772952 0.063282
vt 0.774271 0.066892
vt 0.776181 0.065900
vt 0.774673 0.061864
vt 0.774646 0.070688
vt 0.776638 0.070251
vt 0.770881 0.060273
vt 0.772303 0.058465
vt 0.901254 0.292126
vt 0.768233 0.058018
vt 0.769256 0.055893
vt 0.900109 0.296421
vt 0.764702 0.058725
vt 0.767174 0.059859
vt 0.769417 0.061773
vt 0.761430 0.058321
vt 0.761503 0.070828
vt 0.772711 0.070822
vt 0.772356 0.067536
vt 0.771197 0.064367
vt 0.758163 0.058763
vt 0.750613 0.067663
vt 0.750297 0.070953
vt 0.755705 0.059926
vt 0.753485 0.061867
vt 0.751735 0.064481
vt 0.879171 0.070840
vt 0.879092 0.066877
vt 0.882794 0.070584
vt 0.882225 0.066624
vt 0.886260 0.070238
vt 0.885205 0.066049
vt 0.889631 0.069809
vt 0.888451 0.065252
vt 0.886518 0.061253
vt 0.883790 0.062633
vt 0.881443 0.063500
vt 0.883935 0.058051
vt 0.882009 0.060104
vt 0.880738 0.061464
vt 0.878797 0.063540
vt 0.878664 0.060893
vt 0.879361 0.058495
vt 0.880547 0.055693
vt 0.886567 0.149947
vt 0.889359 0.149641
vt 0.886567 0.153270
vt 0.889315 0.153279
vt 0.889338 0.156918
vt 0.886567 0.156593
vt 0.896087 0.156935
vt 0.894685 0.153319
vt 0.893646 0.149696
vt 0.903570 0.194129
vt 0.901675 0.193983
vt 0.748419 0.103797
vt 0.746427 0.104233
vt 0.748794 0.107592
vt 0.746884 0.108584
vt 0.901912 0.197738
vt 0.899915 0.197638
vt 0.899782 0.193950
vt 0.897988 0.197643
vt 0.889369 0.194026
vt 0.889432 0.197757
vt 0.886567 0.194095
vt 0.886567 0.198050
vt 0.889576 0.104342
vt 0.886206 0.103882
vt 0.885122 0.108040
vt 0.888335 0.108851
vt 0.882742 0.103502
vt 0.882144 0.107458
vt 0.879122 0.103208
vt 0.879005 0.107193
vt 0.878667 0.110507
vt 0.881318 0.110573
vt 0.883655 0.111462
vt 0.878509 0.113148
vt 0.880588 0.112601
vt 0.881843 0.113978
vt 0.886348 0.112875
vt 0.883735 0.116063
vt 0.880333 0.118392
vt 0.879183 0.115555
vt 0.876163 0.119983
vt 0.875677 0.116679
vt 0.875360 0.113683
vt 0.875336 0.110572
vt 0.870896 0.110401
vt 0.870877 0.113926
vt 0.870859 0.117338
vt 0.866396 0.113647
vt 0.866072 0.116641
vt 0.866432 0.110530
vt 0.875380 0.106998
vt 0.870916 0.106727
vt 0.866415 0.106918
vt 0.875353 0.103011
vt 0.870936 0.102920
vt 0.866518 0.102963
vt 0.862747 0.103120
vt 0.862826 0.107083
vt 0.859124 0.103377
vt 0.859693 0.107336
vt 0.855658 0.103722
vt 0.856713 0.107911
vt 0.852287 0.104151
vt 0.853467 0.108708
vt 0.855400 0.112708
vt 0.858128 0.111328
vt 0.860475 0.110460
vt 0.857983 0.115909
vt 0.859909 0.113857
vt 0.861181 0.112496
vt 0.863121 0.110420
vt 0.863254 0.113067
vt 0.862557 0.115465
vt 0.865568 0.119911
vt 0.861371 0.118268
vt 0.889742 0.222191
vt 0.886567 0.222502
vt 0.886567 0.226727
vt 0.889766 0.226350
vt 0.886567 0.230585
vt 0.889766 0.230573
vt 0.889825 0.234844
vt 0.886567 0.234480
vt 0.896067 0.230502
vt 0.897808 0.234768
vt 0.894722 0.226282
vt 0.900103 0.234687
vt 0.898364 0.230407
vt 0.897001 0.226184
vt 0.902125 0.239006
vt 0.899842 0.239074
vt 0.889863 0.239156
vt 0.904343 0.243317
vt 0.902080 0.243405
vt 0.889834 0.243507
vt 0.886567 0.238798
vt 0.886567 0.243438
vt 0.906614 0.243092
vt 0.904505 0.238806
vt 0.774705 0.103643
vt 0.774374 0.107442
vt 0.776295 0.108411
vt 0.776701 0.104056
vt 0.773098 0.111067
vt 0.774835 0.112465
vt 0.902562 0.234452
vt 0.771062 0.114101
vt 0.772506 0.115892
vt 0.900883 0.230160
vt 0.768441 0.116387
vt 0.769488 0.118499
vt 0.899549 0.225948
vt 0.765465 0.117792
vt 0.766010 0.120128
vt 0.898626 0.221854
vt 0.896084 0.222038
vt 0.893838 0.222123
vt 0.895622 0.217352
vt 0.898136 0.217213
vt 0.893415 0.217441
vt 0.893496 0.212868
vt 0.895626 0.212783
vt 0.898024 0.212703
vt 0.898424 0.208913
vt 0.896131 0.208909
vt 0.894060 0.208964
vt 0.889512 0.209095
vt 0.889590 0.212987
vt 0.889647 0.217531
vt 0.886567 0.208783
vt 0.886567 0.212694
vt 0.886567 0.217546
vt 0.870843 0.120726
vt 0.889440 0.205270
vt 0.886567 0.205292
vt 0.895046 0.205135
vt 0.889441 0.201499
vt 0.886567 0.201844
vt 0.896385 0.201367
vt 0.897062 0.205101
vt 0.898352 0.201348
vt 0.899252 0.205161
vt 0.900441 0.201442
vt 0.752184 0.114211
vt 0.750113 0.111202
vt 0.748392 0.112620
vt 0.750762 0.116019
vt 0.754832 0.116467
vt 0.753810 0.118591
vt 0.757824 0.117836
vt 0.757307 0.120179
vt 0.758363 0.115759
vt 0.755891 0.114625
vt 0.753648 0.112711
vt 0.761648 0.118311
vt 0.761635 0.116164
vt 0.761662 0.120718
vt 0.764902 0.115721
vt 0.761562 0.103656
vt 0.767360 0.114558
vt 0.769580 0.112617
vt 0.771330 0.110003
vt 0.772452 0.106821
vt 0.772768 0.103531
vt 0.750355 0.103662
vt 0.750709 0.106949
vt 0.751868 0.110117
s 1
f 1/1/1 2/2/2 3/3/3
f 1/1/1 3/3/3 4/4/4
f 5/4/5 6/5/6 7/6/7
f 5/4/5 7/6/7 8/1/1
f 9/4/4 10/7/8 11/8/9
f 9/4/4 11/8/9 12/5/6
f 13/9/10 14/7/8 15/4/4
f 13/9/10 15/4/4 16/3/3
f 17/10/11 18/11/12 19/7/8
f 17/10/11 19/7/8 20/9/13
f 21/11/14 22/12/15 23/8/9
f 21/11/14 23/8/9 24/7/8
f 25/9/10 26/13/16 27/14/17
f 25/9/10 27/14/17 28/10/11
f 29/9/10 30/3/3 31/15/18
f 29/9/10 31/15/18 32/13/16
f 33/16/19 34/17/20 35/14/17
f 33/16/19 35/14/17 36/13/21
f 37/18/18 38/16/22 39/13/16
f 37/18/18 39/13/16 40/15/18
f 41/16/22 42/18/18 43/19/3
f 41/16/22 43/19/3 44/20/23
f 45/20/24 46/21/25 47/17/20
f 45/20/24 47/17/20 48/16/19
f 49/22/2 50/19/3 51/18/18
f 49/22/2 51/18/18 52/23/26
f 53/23/26 54/18/18 55/15/18
f 53/23/26 55/15/18 56/24/26
f 57/25/27 58/26/28 59/27/26
f 57/25/27 59/27/26 60/28/29
f 61/28/29 62/27/26 63/29/26
f 61/28/29 63/29/26 64/30/29
f 65/30/29 66/29/26 67/31/28
f 65/30/29 67/31/28 68/32/27
f 69/24/26 70/15/18 71/3/3
f 69/24/26 71/3/3 72/2/2
f 73/33/30 74/30/29 75/32/31
f 73/33/30 75/32/31 76/34/32
f 77/35/33 78/28/34 79/30/34
f 77/35/33 79/30/34 80/33/30
f 81/36/35 82/33/33 83/34/32
f 81/36/35 83/34/32 84/37/36
f 85/38/37 86/35/33 87/33/38
f 85/38/37 87/33/38 88/36/35
f 89/39/36 90/40/32 91/35/33
f 89/39/36 91/35/33 92/38/35
f 93/40/32 94/25/39 95/28/29
f 93/40/32 95/28/29 96/35/33
f 97/41/40 98/39/36 99/38/35
f 97/41/40 99/38/35 100/42/41
f 101/42/42 102/38/35 103/36/35
f 101/42/42 103/36/35 104/43/41
f 105/44/43 106/41/40 107/42/42
f 105/44/43 107/42/42 108/45/44
f 109/45/44 110/42/42 111/43/41
f 109/45/44 111/43/41 112/46/44
f 113/46/44 114/43/41 115/47/45
f 113/46/44 115/47/45 116/48/43
f 117/43/41 118/36/35 119/37/36
f 117/43/41 119/37/36 120/47/45
f 121/48/43 122/49/46 123/50/47
f 121/48/43 123/50/47 124/46/44
f 125/51/47 126/45/44 127/46/44
f 125/51/47 127/46/44 128/50/47
f 129/49/46 130/52/48 131/53/49
f 129/49/46 131/53/49 132/50/47
f 133/54/50 134/51/47 135/50/47
f 133/54/50 135/50/47 136/53/49
f 137/45/44 138/51/47 139/55/46
f 137/45/44 139/55/46 140/44/43
f 141/51/47 142/54/50 143/56/51
f 141/51/47 143/56/51 144/55/46
f 145/54/50 146/57/52 147/58/53
f 145/54/50 147/58/53 148/56/51
f 149/57/52 150/54/50 151/53/49
f 149/57/52 151/53/49 152/59/52
f 153/57/52 154/60/54 155/61/55
f 153/57/52 155/61/55 156/58/53
f 157/60/54 158/57/52 159/59/52
f 157/60/54 159/59/52 160/62/54
f 161/52/48 162/63/53 163/59/52
f 161/52/48 163/59/52 164/53/49
f 165/63/53 166/64/55 167/62/56
f 165/63/53 167/62/56 168/59/52
f 169/64/55 170/65/57 171/66/58
f 169/64/55 171/66/58 172/62/59
f 173/67/58 174/60/59 175/62/54
f 173/67/58 175/62/54 176/66/58
f 177/68/60 178/69/61 179/70/62
f 177/68/60 179/70/62 180/71/58
f 181/72/63 182/73/58 183/71/58
f 181/72/63 183/71/58 184/70/63
f 185/60/59 186/67/64 187/74/65
f 185/60/59 187/74/65 188/61/55
f 189/73/58 190/72/63 191/75/61
f 189/73/58 191/75/61 192/76/66
f 193/77/67 194/75/61 195/72/63
f 193/77/67 195/72/63 196/78/68
f 197/78/68 198/72/63 199/70/63
f 197/78/68 199/70/63 200/79/69
f 201/77/67 202/78/70 203/80/71
f 201/77/67 203/80/71 204/81/72
f 205/80/71 206/78/68 207/79/73
f 205/80/71 207/79/73 208/82/74
f 209/79/69 210/70/63 211/69/61
f 209/79/69 211/69/61 212/83/75
f 213/83/75 214/84/76 215/82/74
f 213/83/75 215/82/74 216/79/69
f 217/84/76 218/85/77 219/86/78
f 217/84/76 219/86/78 220/82/74
f 221/87/79 222/80/71 223/82/74
f 221/87/79 223/82/74 224/86/80
f 225/88/81 226/89/82 227/90/83
f 225/88/81 227/90/83 228/91/77
f 229/92/84 230/93/79 231/90/85
f 229/92/84 231/90/85 232/89/86
f 233/81/72 234/80/71 235/87/79
f 233/81/72 235/87/79 236/94/87
f 237/95/88 238/96/87 239/93/79
f 237/95/88 239/93/79 240/92/84
f 241/97/89 242/95/88 243/92/90
f 241/97/89 243/92/90 244/98/91
f 245/98/92 246/92/90 247/89/86
f 245/98/92 247/89/86 248/99/93
f 249/98/92 250/100/94 251/101/95
f 249/98/92 251/101/95 252/97/96
f 253/100/94 254/98/92 255/99/97
f 253/100/94 255/99/97 256/102/98
f 257/103/99 258/104/100 259/102/98
f 257/103/99 259/102/98 260/99/97
f 261/103/101 262/99/93 263/89/86
f 261/103/101 263/89/86 264/88/81
f 265/104/100 266/105/102 267/106/103
f 265/104/100 267/106/103 268/102/98
f 269/107/104 270/100/94 271/102/98
f 269/107/104 271/102/98 272/106/103
f 273/105/102 274/108/105 275/109/106
f 273/105/102 275/109/106 276/106/103
f 277/110/107 278/107/104 279/106/108
f 277/110/107 279/106/108 280/109/106
f 281/100/94 282/107/104 283/111/109
f 281/100/94 283/111/109 284/101/95
f 285/111/109 286/107/110 287/110/107
f 285/111/109 287/110/107 288/112/111
f 289/112/111 290/110/107 291/113/112
f 289/112/111 291/113/112 292/114/113
f 293/113/112 294/110/107 295/109/114
f 293/113/112 295/109/114 296/115/115
f 297/21/25 298/116/113 299/117/116
f 297/21/25 299/117/116 300/17/117
f 301/17/20 302/117/116 303/118/118
f 301/17/20 303/118/118 304/14/17
f 305/10/11 306/14/17 307/118/118
f 305/10/11 307/118/118 308/119/119
f 309/108/105 310/120/120 311/115/121
f 309/108/105 311/115/121 312/109/122
f 313/119/119 314/121/123 315/11/124
f 313/119/119 315/11/124 316/10/11
f 317/108/105 318/122/125 319/123/126
f 317/108/105 319/123/126 320/120/119
f 321/122/125 322/124/127 323/125/128
f 321/122/125 323/125/128 324/123/129
f 325/121/130 326/126/131 327/12/132
f 325/121/130 327/12/132 328/11/133
f 329/124/127 330/127/134 331/128/135
f 329/124/127 331/128/135 332/125/136
f 333/126/128 334/129/135 335/130/137
f 333/126/128 335/130/137 336/12/138
f 337/127/139 338/131/140 339/132/141
f 337/127/139 339/132/141 340/128/135
f 341/129/142 342/133/141 343/134/143
f 341/129/142 343/134/143 344/130/144
f 345/131/140 346/135/145 347/136/146
f 345/131/140 347/136/146 348/132/141
f 349/133/147 350/137/146 351/138/148
f 349/133/147 351/138/148 352/134/149
f 353/135/145 354/139/150 355/140/151
f 353/135/145 355/140/151 356/136/146
f 357/137/146 358/141/152 359/142/153
f 357/137/146 359/142/153 360/138/148
f 361/139/150 362/143/154 363/144/155
f 361/139/150 363/144/155 364/140/156
f 365/141/156 366/145/157 367/146/158
f 365/141/156 367/146/158 368/142/153
f 369/143/154 370/147/159 371/148/160
f 369/143/154 371/148/160 372/144/155
f 373/149/155 374/150/160 375/151/161
f 373/149/155 375/151/161 376/152/158
f 377/152/158 378/151/161 379/153/162
f 377/152/158 379/153/162 380/154/163
f 381/142/153 382/146/164 383/155/163
f 381/142/153 383/155/163 384/156/165
f 385/157/166 386/154/163 387/153/167
f 385/157/166 387/153/167 388/158/168
f 389/156/165 390/155/163 391/159/166
f 389/156/165 391/159/166 392/160/169
f 393/161/170 394/162/171 395/157/166
f 393/161/170 395/157/166 396/158/168
f 397/163/172 398/164/173 399/160/169
f 397/163/172 399/160/169 400/159/166
f 401/165/174 402/166/175 403/167/172
f 401/165/174 403/167/172 404/168/170
f 405/166/175 406/169/176 407/170/173
f 405/166/175 407/170/173 408/167/172
f 409/171/177 410/172/178 411/166/175
f 409/171/177 411/166/175 412/165/179
f 413/172/178 414/173/180 415/169/176
f 413/172/178 415/169/176 416/166/175
f 417/174/181 418/175/182 419/172/178
f 417/174/181 419/172/178 420/171/183
f 421/175/182 422/176/184 423/173/180
f 421/175/182 423/173/180 424/172/178
f 425/177/185 426/178/186 427/175/182
f 425/177/185 427/175/182 428/174/181
f 429/178/186 430/179/187 431/176/184
f 429/178/186 431/176/184 432/175/182
f 433/180/188 434/181/189 435/178/186
f 433/180/188 435/178/186 436/177/185
f 437/181/189 438/182/190 439/179/187
f 437/181/189 439/179/187 440/178/186
f 441/181/189 442/48/43 443/47/45
f 441/181/189 443/47/45 444/182/190
f 445/48/43 446/181/189 447/180/191
f 445/48/43 447/180/191 448/49/46
f 449/180/192 450/177/185 451/183/193
f 449/180/192 451/183/193 452/184/194
f 453/49/46 454/180/191 455/184/194
f 453/49/46 455/184/194 456/52/48
f 457/184/194 458/183/193 459/185/195
f 457/184/194 459/185/195 460/186/196
f 461/52/48 462/184/194 463/186/196
f 461/52/48 463/186/196 464/63/53
f 465/187/197 466/186/198 467/185/195
f 465/187/197 467/185/195 468/188/199
f 469/63/53 470/186/200 471/187/197
f 469/63/53 471/187/197 472/64/55
f 473/64/55 474/187/201 475/189/202
f 473/64/55 475/189/202 476/65/66
f 477/189/202 478/187/197 479/188/199
f 477/189/202 479/188/199 480/190/203
f 481/190/203 482/188/199 483/191/204
f 481/190/203 483/191/204 484/192/205
f 485/188/199 486/185/195 487/193/206
f 485/188/199 487/193/206 488/191/204
f 489/192/205 490/191/204 491/194/207
f 489/192/205 491/194/207 492/195/208
f 493/191/204 494/193/209 495/196/210
f 493/191/204 495/196/210 496/194/207
f 497/197/211 498/195/212 499/194/207
f 497/197/211 499/194/207 500/198/213
f 501/198/214 502/194/207 503/196/215
f 501/198/214 503/196/215 504/199/216
f 505/200/217 506/199/216 507/196/210
f 505/200/217 507/196/210 508/193/209
f 509/165/218 510/198/213 511/199/216
f 509/165/218 511/199/216 512/171/183
f 513/174/181 514/171/183 515/199/216
f 513/174/181 515/199/216 516/200/217
f 517/177/185 518/174/181 519/200/217
f 517/177/185 519/200/217 520/183/193
f 521/183/193 522/200/219 523/193/209
f 521/183/193 523/193/209 524/185/195
f 525/168/170 526/197/211 527/198/213
f 525/168/170 527/198/213 528/165/179
f 529/201/220 530/202/221 531/203/222
f 529/201/220 531/203/222 532/204/211
f 533/158/168 534/201/223 535/204/211
f 533/158/168 535/204/211 536/161/170
f 537/205/224 538/201/220 539/158/168
f 537/205/224 539/158/168 540/153/167
f 541/206/225 542/202/221 543/201/220
f 541/206/225 543/201/220 544/205/226
f 545/151/161 546/207/227 547/205/224
f 545/151/161 547/205/224 548/153/167
f 549/207/228 550/208/229 551/206/225
f 549/207/228 551/206/225 552/205/230
f 553/208/229 554/209/231 555/210/232
f 553/208/229 555/210/232 556/206/233
f 557/210/232 558/211/234 559/202/221
f 557/210/232 559/202/221 560/206/235
f 561/209/236 562/212/237 563/213/238
f 561/209/236 563/213/238 564/210/239
f 565/213/238 566/214/240 567/211/241
f 565/213/238 567/211/241 568/210/232
f 569/214/240 570/215/203 571/216/205
f 569/214/240 571/216/205 572/211/242
f 573/211/234 574/216/243 575/203/244
f 573/211/234 575/203/244 576/202/221
f 577/217/245 578/218/246 579/214/240
f 577/217/245 579/214/240 580/213/247
f 581/218/246 582/219/202 583/215/203
f 581/218/246 583/215/203 584/214/240
f 585/68/60 586/219/202 587/218/246
f 585/68/60 587/218/246 588/69/61
f 589/218/246 590/217/245 591/83/75
f 589/218/246 591/83/75 592/69/61
f 593/212/248 594/220/249 595/217/245
f 593/212/248 595/217/245 596/213/250
f 597/83/75 598/217/245 599/220/251
f 597/83/75 599/220/251 600/84/76
f 601/221/252 602/222/253 603/220/254
f 601/221/252 603/220/254 604/212/248
f 605/84/76 606/220/255 607/222/256
f 605/84/76 607/222/256 608/85/77
f 609/223/257 610/221/258 611/212/248
f 609/223/257 611/212/248 612/209/236
f 613/224/259 614/225/260 615/226/252
f 613/224/259 615/226/252 616/227/261
f 617/225/260 618/228/262 619/229/256
f 617/225/260 619/229/256 620/226/252
f 621/230/263 622/224/259 623/227/261
f 621/230/263 623/227/261 624/231/264
f 625/232/264 626/223/261 627/209/236
f 625/232/264 627/209/236 628/208/229
f 629/233/265 630/230/263 631/231/264
f 629/233/265 631/231/264 632/234/266
f 633/235/266 634/232/267 635/208/229
f 633/235/266 635/208/229 636/207/268
f 637/147/159 638/233/265 639/234/266
f 637/147/159 639/234/266 640/148/269
f 641/150/160 642/235/266 643/207/228
f 641/150/160 643/207/228 644/151/161
f 645/236/270 646/237/271 647/233/272
f 645/236/270 647/233/272 648/147/273
f 649/237/271 650/238/274 651/230/263
f 649/237/271 651/230/263 652/233/265
f 653/239/275 654/236/270 655/147/159
f 653/239/275 655/147/159 656/143/276
f 663/236/270 664/239/275 657/240/277
f 657/240/277 658/241/278 659/242/279
f 659/242/279 660/243/280 661/238/274
f 661/238/274 662/237/271 663/236/270
f 663/236/270 657/240/277 659/242/279
f 659/242/279 661/238/274 663/236/270
f 665/244/281 666/239/275 667/143/154
f 665/244/281 667/143/154 668/139/150
f 675/245/282 676/246/283 669/240/277
f 669/240/277 670/239/275 671/244/284
f 671/244/284 672/247/285 673/248/286
f 673/248/286 674/249/287 675/245/282
f 675/245/282 669/240/277 671/244/284
f 671/244/284 673/248/286 675/245/282
f 677/103/288 678/241/278 679/240/277
f 677/103/288 679/240/277 680/104/100
f 681/104/100 682/240/277 683/246/283
f 681/104/100 683/246/283 684/105/102
f 685/242/279 686/241/289 687/228/290
f 685/242/279 687/228/290 688/225/260
f 689/88/81 690/228/262 691/241/278
f 689/88/81 691/241/278 692/103/291
f 693/91/77 694/229/256 695/228/262
f 693/91/77 695/228/262 696/88/81
f 697/243/280 698/242/279 699/225/260
f 697/243/280 699/225/260 700/224/259
f 701/238/274 702/243/280 703/224/292
f 701/238/274 703/224/292 704/230/293
f 705/246/294 706/245/295 707/124/296
f 705/246/294 707/124/296 708/122/297
f 709/105/102 710/246/294 711/122/297
f 709/105/102 711/122/297 712/108/105
f 713/245/282 714/249/287 715/127/298
f 713/245/282 715/127/298 716/124/299
f 717/249/287 718/248/286 719/131/140
f 717/249/287 719/131/140 720/127/298
f 721/248/286 722/247/285 723/135/145
f 721/248/286 723/135/145 724/131/140
f 725/247/285 726/244/281 727/139/150
f 725/247/285 727/139/150 728/135/145
f 729/182/190 730/250/300 731/251/301
f 729/182/190 731/251/301 732/179/187
f 733/182/190 734/47/45 735/37/36
f 733/182/190 735/37/36 736/250/300
f 737/250/302 738/252/303 739/253/304
f 737/250/302 739/253/304 740/251/305
f 741/250/302 742/37/36 743/34/32
f 741/250/302 743/34/32 744/252/306
f 745/254/307 746/255/308 747/253/309
f 745/254/307 747/253/309 748/252/306
f 749/252/310 750/34/32 751/32/39
f 749/252/310 751/32/39 752/254/311
f 753/254/312 754/32/313 755/31/2
f 753/254/312 755/31/2 756/256/314
f 757/256/315 758/257/7 759/255/316
f 757/256/315 759/255/316 760/254/312
f 761/257/317 762/258/318 763/259/319
f 761/257/317 763/259/319 764/255/316
f 765/255/320 766/259/319 767/260/321
f 765/255/320 767/260/321 768/253/322
f 769/258/318 770/261/323 771/262/324
f 769/258/318 771/262/324 772/259/319
f 773/259/319 774/262/324 775/263/325
f 773/259/319 775/263/325 776/260/321
f 777/251/301 778/253/304 779/260/321
f 777/251/301 779/260/321 780/264/326
f 781/264/326 782/260/321 783/263/325
f 781/264/326 783/263/325 784/265/327
f 785/266/328 786/265/329 787/263/325
f 785/266/328 787/263/325 788/262/324
f 789/176/184 790/264/326 791/265/327
f 789/176/184 791/265/327 792/173/180
f 793/169/176 794/173/180 795/265/327
f 793/169/176 795/265/327 796/266/328
f 797/170/173 798/169/176 799/266/330
f 797/170/173 799/266/330 800/267/331
f 801/267/332 802/266/328 803/262/324
f 801/267/332 803/262/324 804/261/323
f 805/160/333 806/164/173 807/268/332
f 805/160/333 807/268/332 808/269/334
f 809/269/334 810/268/335 811/270/323
f 809/269/334 811/270/323 812/271/336
f 813/272/337 814/271/336 815/270/338
f 813/272/337 815/270/338 816/273/318
f 817/272/339 818/274/340 819/275/341
f 817/272/339 819/275/341 820/271/336
f 821/271/336 822/275/341 823/276/342
f 821/271/336 823/276/342 824/269/334
f 825/134/149 826/138/148 827/276/343
f 825/134/149 827/276/343 828/275/341
f 829/130/144 830/134/344 831/275/341
f 829/130/144 831/275/341 832/274/340
f 833/138/345 834/142/346 835/156/165
f 833/138/345 835/156/165 836/276/347
f 837/269/334 838/276/347 839/156/165
f 837/269/334 839/156/165 840/160/169
f 841/12/348 842/130/144 843/274/340
f 841/12/348 843/274/340 844/8/349
f 845/5/350 846/8/9 847/274/340
f 845/5/350 847/274/340 848/272/351
f 849/5/6 850/272/351 851/273/318
f 849/5/6 851/273/318 852/6/352
f 853/179/187 854/251/301 855/264/326
f 853/179/187 855/264/326 856/176/184
f 857/277/353 858/116/113 859/21/25
f 857/277/353 859/21/25 860/278/354
f 861/279/355 862/112/111 863/114/113
f 861/279/355 863/114/113 864/280/353
f 865/281/356 866/279/355 867/280/353
f 865/281/356 867/280/353 868/282/357
f 869/283/358 870/277/353 871/278/354
f 869/283/358 871/278/354 872/284/359
f 873/284/359 874/278/354 875/285/360
f 873/284/359 875/285/360 876/286/361
f 877/278/362 878/21/25 879/20/23
f 877/278/362 879/20/23 880/285/360
f 881/285/360 882/287/363 883/288/364
f 881/285/360 883/288/364 884/286/361
f 885/287/363 886/285/360 887/20/23
f 885/287/363 887/20/23 888/19/3
f 889/287/363 890/289/365 891/290/366
f 889/287/363 891/290/366 892/288/367
f 893/22/2 894/289/365 895/287/363
f 893/22/2 895/287/363 896/19/3
f 897/291/365 898/292/368 899/293/369
f 897/291/365 899/293/369 900/294/366
f 901/25/370 902/292/371 903/291/372
f 901/25/370 903/291/372 904/26/373
f 905/292/371 906/295/374 907/296/375
f 905/292/371 907/296/375 908/293/376
f 909/40/32 910/295/374 911/292/377
f 909/40/32 911/292/377 912/25/39
f 913/39/378 914/297/379 915/295/380
f 913/39/378 915/295/380 916/40/32
f 917/297/379 918/298/381 919/296/382
f 917/297/379 919/296/382 920/295/383
f 921/298/381 922/299/384 923/300/385
f 921/298/381 923/300/385 924/296/382
f 925/293/386 926/296/387 927/300/388
f 925/293/386 927/300/388 928/301/389
f 929/299/384 930/302/390 931/303/391
f 929/299/384 931/303/391 932/300/392
f 933/301/393 934/300/385 935/303/391
f 933/301/393 935/303/391 936/304/394
f 937/294/366 938/293/386 939/301/393
f 937/294/366 939/301/393 940/305/395
f 941/305/395 942/301/393 943/304/394
f 941/305/395 943/304/394 944/306/396
f 945/307/397 946/306/398 947/304/394
f 945/307/397 947/304/394 948/308/399
f 949/308/399 950/304/394 951/303/391
f 949/308/399 951/303/391 952/302/390
f 953/309/400 954/307/401 955/308/402
f 953/309/400 955/308/402 956/310/403
f 957/310/403 958/308/402 959/302/390
f 957/310/403 959/302/390 960/311/404
f 961/312/405 962/311/404 963/302/390
f 961/312/405 963/302/390 964/299/384
f 965/312/405 966/313/406 967/314/407
f 965/312/405 967/314/407 968/311/404
f 969/311/404 970/314/407 971/315/408
f 969/311/404 971/315/408 972/310/409
f 973/314/407 974/316/410 975/317/411
f 973/314/407 975/317/411 976/315/408
f 977/313/406 978/318/412 979/316/413
f 977/313/406 979/316/413 980/314/407
f 981/319/414 982/320/415 983/313/406
f 981/319/414 983/313/406 984/312/405
f 985/320/415 986/321/416 987/318/412
f 985/320/415 987/318/412 988/313/406
f 989/322/417 990/323/418 991/320/419
f 989/322/417 991/320/419 992/319/414
f 993/323/418 994/324/420 995/321/421
f 993/323/418 995/321/421 996/320/422
f 997/324/420 998/323/418 999/44/43
f 997/324/420 999/44/43 1000/55/46
f 1001/44/43 1002/323/423 1003/322/417
f 1001/44/43 1003/322/417 1004/41/40
f 1005/322/417 1006/319/414 1007/298/381
f 1005/322/417 1007/298/381 1008/297/379
f 1009/41/40 1010/322/417 1011/297/379
f 1009/41/40 1011/297/379 1012/39/36
f 1013/324/420 1014/325/424 1015/326/425
f 1013/324/420 1015/326/425 1016/321/421
f 1017/324/420 1018/55/46 1019/56/51
f 1017/324/420 1019/56/51 1020/325/424
f 1021/325/424 1022/327/426 1023/328/427
f 1021/325/424 1023/328/427 1024/326/425
f 1025/325/424 1026/56/51 1027/58/53
f 1025/325/424 1027/58/53 1028/327/426
f 1029/329/428 1030/330/429 1031/328/427
f 1029/329/428 1031/328/427 1032/327/430
f 1033/327/430 1034/58/53 1035/61/55
f 1033/327/430 1035/61/55 1036/329/431
f 1037/329/428 1038/61/55 1039/74/57
f 1037/329/428 1039/74/57 1040/331/432
f 1041/331/432 1042/332/433 1043/330/434
f 1041/331/432 1043/330/434 1044/329/428
f 1045/332/433 1046/333/435 1047/334/436
f 1045/332/433 1047/334/436 1048/330/434
f 1049/330/437 1050/334/438 1051/335/439
f 1049/330/437 1051/335/439 1052/328/427
f 1053/333/435 1054/336/440 1055/337/441
f 1053/333/435 1055/337/441 1056/334/442
f 1057/334/443 1058/337/441 1059/338/444
f 1057/334/443 1059/338/444 1060/335/439
f 1061/326/425 1062/328/427 1063/335/439
f 1061/326/425 1063/335/439 1064/339/445
f 1065/339/445 1066/335/439 1067/338/444
f 1065/339/445 1067/338/444 1068/340/446
f 1069/341/447 1070/340/446 1071/338/448
f 1069/341/447 1071/338/448 1072/337/441
f 1073/318/412 1074/339/445 1075/340/449
f 1073/318/412 1075/340/449 1076/316/413
f 1077/317/411 1078/316/450 1079/340/451
f 1077/317/411 1079/340/451 1080/341/447
f 1081/342/452 1082/317/411 1083/341/447
f 1081/342/452 1083/341/447 1084/343/453
f 1085/343/453 1086/341/454 1087/337/441
f 1085/343/453 1087/337/441 1088/336/455
f 1089/344/456 1090/345/452 1091/346/453
f 1089/344/456 1091/346/453 1092/347/457
f 1093/347/457 1094/346/453 1095/348/458
f 1093/347/457 1095/348/458 1096/349/459
f 1097/350/460 1098/349/461 1099/348/462
f 1097/350/460 1099/348/462 1100/351/435
f 1101/352/463 1102/349/464 1103/350/465
f 1101/352/463 1103/350/465 1104/353/466
f 1105/354/467 1106/347/457 1107/349/468
f 1105/354/467 1107/349/468 1108/352/463
f 1109/355/469 1110/356/470 1111/352/463
f 1109/355/469 1111/352/463 1112/353/466
f 1113/356/471 1114/357/472 1115/354/467
f 1113/356/471 1115/354/467 1116/352/473
f 1117/358/474 1118/355/475 1119/353/466
f 1117/358/474 1119/353/466 1120/359/476
f 1121/353/466 1122/350/477 1123/360/478
f 1121/353/466 1123/360/478 1124/359/479
f 1125/361/480 1126/358/474 1127/359/481
f 1125/361/480 1127/359/481 1128/362/482
f 1129/359/481 1130/360/478 1131/363/483
f 1129/359/481 1131/363/483 1132/362/484
f 1133/363/483 1134/360/485 1135/364/433
f 1133/363/483 1135/364/433 1136/365/486
f 1137/360/478 1138/350/487 1139/351/435
f 1137/360/478 1139/351/435 1140/364/488
f 1141/365/432 1142/76/60 1143/75/61
f 1141/365/432 1143/75/61 1144/363/483
f 1145/77/67 1146/362/484 1147/363/483
f 1145/77/67 1147/363/483 1148/75/61
f 1149/362/484 1150/77/489 1151/81/72
f 1149/362/484 1151/81/72 1152/361/480
f 1153/366/490 1154/367/491 1155/358/474
f 1153/366/490 1155/358/474 1156/361/492
f 1157/361/480 1158/81/72 1159/94/87
f 1157/361/480 1159/94/87 1160/366/490
f 1161/368/493 1162/369/494 1163/370/495
f 1161/368/493 1163/370/495 1164/371/490
f 1165/371/496 1166/96/87 1167/95/88
f 1165/371/496 1167/95/88 1168/368/497
f 1169/369/498 1170/372/499 1171/373/500
f 1169/369/498 1171/373/500 1172/370/495
f 1173/367/501 1174/374/500 1175/355/469
f 1173/367/501 1175/355/469 1176/358/474
f 1177/372/499 1178/375/502 1179/376/503
f 1177/372/499 1179/376/503 1180/373/500
f 1181/374/500 1182/377/503 1183/356/504
f 1181/374/500 1183/356/504 1184/355/469
f 1185/375/502 1186/378/505 1187/379/506
f 1185/375/502 1187/379/506 1188/376/503
f 1189/377/503 1190/380/506 1191/357/472
f 1189/377/503 1191/357/472 1192/356/507
f 1193/378/505 1194/381/508 1195/382/509
f 1193/378/505 1195/382/509 1196/379/510
f 1197/380/506 1198/383/511 1199/384/512
f 1197/380/506 1199/384/512 1200/357/513
f 1201/357/514 1202/384/515 1203/385/516
f 1201/357/514 1203/385/516 1204/354/467
f 1205/386/517 1206/384/518 1207/383/511
f 1205/386/517 1207/383/511 1208/387/519
f 1209/388/520 1210/385/516 1211/384/521
f 1209/388/520 1211/384/521 1212/386/517
f 1213/389/522 1214/388/520 1215/386/517
f 1213/389/522 1215/386/517 1216/390/523
f 1217/390/523 1218/386/517 1219/387/519
f 1217/390/523 1219/387/519 1220/391/524
f 1221/391/524 1222/392/525 1223/393/526
f 1221/391/524 1223/393/526 1224/390/523
f 1225/390/527 1226/393/528 1227/394/529
f 1225/390/527 1227/394/529 1228/389/522
f 1229/394/530 1230/395/531 1231/396/532
f 1229/394/530 1231/396/532 1232/389/522
f 1233/397/533 1234/388/520 1235/389/534
f 1233/397/533 1235/389/534 1236/396/532
f 1237/396/535 1238/395/531 1239/398/397
f 1237/396/535 1239/398/397 1240/399/400
f 1241/399/400 1242/400/536 1243/397/533
f 1241/399/400 1243/397/533 1244/396/532
f 1245/385/516 1246/388/537 1247/397/533
f 1245/385/516 1247/397/533 1248/344/538
f 1249/400/536 1250/345/452 1251/344/456
f 1249/400/536 1251/344/456 1252/397/533
f 1253/310/539 1254/315/540 1255/401/536
f 1253/310/539 1255/401/536 1256/309/400
f 1257/315/540 1258/317/411 1259/342/452
f 1257/315/540 1259/342/452 1260/401/536
f 1261/385/516 1262/344/456 1263/347/457
f 1261/385/516 1263/347/457 1264/354/467
f 1265/395/531 1266/402/541 1267/403/542
f 1265/395/531 1267/403/542 1268/398/397
f 1269/404/543 1270/402/541 1271/395/531
f 1269/404/543 1271/395/531 1272/394/530
f 1273/405/544 1274/406/395 1275/403/545
f 1273/405/544 1275/403/545 1276/402/541
f 1277/407/546 1278/405/544 1279/402/541
f 1277/407/546 1279/402/541 1280/404/543
f 1281/393/528 1282/408/547 1283/404/543
f 1281/393/528 1283/404/543 1284/394/548
f 1285/408/547 1286/409/549 1287/407/550
f 1285/408/547 1287/407/550 1288/404/543
f 1289/409/551 1290/284/552 1291/286/361
f 1289/409/551 1291/286/361 1292/407/553
f 1293/286/361 1294/288/364 1295/405/554
f 1293/286/361 1295/405/554 1296/407/555
f 1297/410/556 1298/411/557 1299/409/558
f 1297/410/556 1299/409/558 1300/408/547
f 1301/411/559 1302/283/560 1303/284/561
f 1301/411/559 1303/284/561 1304/409/558
f 1305/412/562 1306/413/563 1307/414/557
f 1305/412/562 1307/414/557 1308/415/564
f 1309/413/565 1310/281/566 1311/282/357
f 1309/413/565 1311/282/357 1312/414/557
f 1313/416/567 1314/412/562 1315/415/564
f 1313/416/567 1315/415/564 1316/417/568
f 1317/392/569 1318/410/564 1319/408/547
f 1317/392/569 1319/408/547 1320/393/528
f 1321/418/570 1322/416/571 1323/417/572
f 1321/418/570 1323/417/572 1324/419/524
f 1325/420/573 1326/421/574 1327/416/567
f 1325/420/573 1327/416/567 1328/418/570
f 1329/421/575 1330/422/576 1331/412/562
f 1329/421/575 1331/412/562 1332/416/567
f 1333/418/570 1334/423/577 1335/424/578
f 1333/418/570 1335/424/578 1336/420/579
f 1337/419/524 1338/425/519 1339/423/580
f 1337/419/524 1339/423/580 1340/418/570
f 1341/425/519 1342/382/509 1343/381/508
f 1341/425/519 1343/381/508 1344/423/580
f 1345/423/580 1346/381/508 1347/426/581
f 1345/423/580 1347/426/581 1348/424/578
f 1355/427/582 1356/424/578 1349/426/581
f 1349/426/581 1350/428/583 1351/429/584
f 1351/429/584 1352/430/585 1353/431/586
f 1353/431/586 1354/432/587 1355/427/582
f 1355/427/582 1349/426/581 1351/429/584
f 1351/429/584 1353/431/586 1355/427/582
f 1363/421/575 1364/420/579 1357/424/578
f 1357/424/578 1358/427/582 1359/433/588
f 1359/433/588 1360/434/589 1361/435/590
f 1361/435/590 1362/422/576 1363/421/575
f 1363/421/575 1357/424/578 1359/433/588
f 1359/433/588 1361/435/590 1363/421/575
f 1365/427/582 1366/101/95 1367/111/109
f 1365/427/582 1367/111/109 1368/433/588
f 1369/427/582 1370/432/587 1371/97/96
f 1369/427/582 1371/97/96 1372/101/95
f 1373/432/587 1374/431/586 1375/369/498
f 1373/432/587 1375/369/498 1376/368/591
f 1377/368/493 1378/95/88 1379/97/96
f 1377/368/493 1379/97/96 1380/432/587
f 1381/431/586 1382/430/585 1383/372/592
f 1381/431/586 1383/372/592 1384/369/498
f 1385/430/585 1386/429/584 1387/375/502
f 1385/430/585 1387/375/502 1388/372/499
f 1389/429/593 1390/428/583 1391/378/594
f 1389/429/593 1391/378/594 1392/375/595
f 1393/428/583 1394/426/581 1395/381/508
f 1393/428/583 1395/381/508 1396/378/505
f 1397/434/589 1398/433/588 1399/279/596
f 1397/434/589 1399/279/596 1400/281/597
f 1401/433/588 1402/111/109 1403/112/598
f 1401/433/588 1403/112/598 1404/279/599
f 1405/435/590 1406/434/600 1407/281/566
f 1405/435/590 1407/281/566 1408/413/601
f 1409/422/576 1410/435/590 1411/413/601
f 1409/422/576 1411/413/601 1412/412/562
f 1413/288/364 1414/290/602 1415/406/395
f 1413/288/364 1415/406/395 1416/405/544
f 1417/321/416 1418/326/425 1419/339/445
f 1417/321/416 1419/339/445 1420/318/412
f 1421/319/414 1422/312/405 1423/299/384
f 1421/319/414 1423/299/384 1424/298/381
