v 0.329118 0.198753 -0.201536
v 0.32524 0.198576 -0.200242
v 0.326287 0.198422 -0.196263
v 0.330439 0.198549 -0.196296
v 0.326287 0.198422 -0.196263
v 0.326271 0.198163 -0.19079
v 0.330348 0.198258 -0.190024
v 0.330439 0.198549 -0.196296
v 0.329118 0.198753 -0.201536
v 0.326287 0.198422 -0.196263
v 0.328487 0.19792 -0.184089
v 0.330348 0.198258 -0.190024
v 0.325105 0.197923 -0.186529
v 0.330348 0.198258 -0.190024
v 0.326271 0.198163 -0.19079
v 0.325105 0.197923 -0.186529
v 0.325105 0.197923 -0.186529
v 0.323354 0.197749 -0.18409
v 0.328487 0.19792 -0.184089
v 0.323354 0.197749 -0.18409
v 0.320833 0.19759 -0.182502
v 0.325135 0.197635 -0.180421
v 0.323354 0.197749 -0.18409
v 0.325135 0.197635 -0.180421
v 0.328487 0.19792 -0.184089
v 0.325135 0.197635 -0.180421
v 0.320833 0.19759 -0.182502
v 0.321468 0.197431 -0.178684
v 0.320833 0.19759 -0.182502
v 0.317928 0.197369 -0.178354
v 0.321468 0.197431 -0.178684
v 0.317196 0.197578 -0.182337
v 0.314699 0.197495 -0.178942
v 0.317928 0.197369 -0.178354
v 0.317196 0.197578 -0.182337
v 0.317928 0.197369 -0.178354
v 0.320833 0.19759 -0.182502
v 0.314647 0.1977 -0.183363
v 0.314699 0.197495 -0.178942
v 0.317196 0.197578 -0.182337
v 0.312476 0.19788 -0.185704
v 0.311196 0.197702 -0.180916
v 0.314647 0.1977 -0.183363
v 0.314647 0.1977 -0.183363
v 0.311196 0.197702 -0.180916
v 0.314699 0.197495 -0.178942
v 0.312476 0.19788 -0.185704
v 0.308103 0.197989 -0.184901
v 0.311196 0.197702 -0.180916
v 0.308103 0.197989 -0.184901
v 0.310906 0.198148 -0.190402
v 0.30655 0.19831 -0.190745
v 0.308103 0.197989 -0.184901
v 0.312476 0.19788 -0.185704
v 0.310906 0.198148 -0.190402
v 0.306641 0.198595 -0.197017
v 0.30655 0.19831 -0.190745
v 0.310906 0.198148 -0.190402
v 0.310874 0.198426 -0.196407
v 0.311945 0.198581 -0.200423
v 0.308503 0.198806 -0.202952
v 0.306641 0.198595 -0.197017
v 0.310874 0.198426 -0.196407
v 0.314194 0.198666 -0.203557
v 0.311854 0.198876 -0.20662
v 0.308503 0.198806 -0.202952
v 0.308503 0.198806 -0.202952
v 0.311945 0.198581 -0.200423
v 0.314194 0.198666 -0.203557
v 0.314194 0.198666 -0.203557
v 0.317241 0.198642 -0.204861
v 0.315521 0.198855 -0.208357
v 0.314194 0.198666 -0.203557
v 0.315521 0.198855 -0.208357
v 0.311854 0.198876 -0.20662
v 0.317241 0.198642 -0.204861
v 0.319061 0.198771 -0.208687
v 0.315521 0.198855 -0.208357
v 0.320477 0.19863 -0.204763
v 0.322549 0.198854 -0.208023
v 0.319061 0.198771 -0.208687
v 0.317241 0.198642 -0.204861
v 0.320477 0.19863 -0.204763
v 0.319061 0.198771 -0.208687
v 0.320477 0.19863 -0.204763
v 0.323249 0.198651 -0.203244
v 0.322549 0.198854 -0.208023
v 0.32524 0.198576 -0.200242
v 0.329118 0.198753 -0.201536
v 0.326412 0.198863 -0.205589
v 0.323249 0.198651 -0.203244
v 0.323249 0.198651 -0.203244
v 0.326412 0.198863 -0.205589
v 0.322549 0.198854 -0.208023
vn -0.0301 0.9985 0.0464
vn -0.0301 0.9985 0.0464
vn -0.0301 0.9985 0.0464
vn -0.031 0.9984 0.0465
vn -0.031 0.9984 0.0465
vn -0.031 0.9984 0.0465
vn -0.031 0.9984 0.0465
vn -0.03 0.9985 0.0464
vn -0.03 0.9985 0.0464
vn -0.03 0.9985 0.0464
vn -0.0328 0.9984 0.0465
vn -0.0328 0.9984 0.0465
vn -0.0328 0.9984 0.0465
vn -0.0321 0.9984 0.0475
vn -0.0321 0.9984 0.0475
vn -0.0321 0.9984 0.0475
vn -0.0333 0.9983 0.0472
vn -0.0333 0.9983 0.0472
vn -0.0333 0.9983 0.0472
vn -0.0333 0.9983 0.0472
vn -0.0333 0.9983 0.0472
vn -0.0333 0.9983 0.0472
vn -0.0333 0.9983 0.0472
vn -0.0333 0.9983 0.0472
vn -0.0333 0.9983 0.0472
vn -0.0333 0.9983 0.0472
vn -0.0333 0.9983 0.0472
vn -0.0333 0.9983 0.0472
vn -0.0132 0.9989 0.0439
vn -0.0132 0.9989 0.0439
vn -0.0132 0.9989 0.0439
vn 0.0303 0.9984 0.0468
vn 0.0303 0.9984 0.0468
vn 0.0303 0.9984 0.0468
vn -0.0009 0.9986 0.0525
vn -0.0009 0.9986 0.0525
vn -0.0009 0.9986 0.0525
vn 0.0292 0.9985 0.046
vn 0.0292 0.9985 0.046
vn 0.0292 0.9985 0.046
vn 0.0333 0.9984 0.0459
vn 0.0333 0.9984 0.0459
vn 0.0333 0.9984 0.0459
vn 0.0333 0.9984 0.0459
vn 0.0333 0.9984 0.0459
vn 0.0333 0.9984 0.0459
vn 0.0333 0.9984 0.0459
vn 0.0333 0.9984 0.0459
vn 0.0333 0.9984 0.0459
vn 0.0333 0.9984 0.0459
vn 0.0333 0.9984 0.0459
vn 0.0333 0.9984 0.0459
vn 0.0333 0.9984 0.0459
vn 0.0333 0.9984 0.0459
vn 0.0333 0.9984 0.0459
vn 0.0333 0.9984 0.0459
vn 0.0333 0.9984 0.0459
vn 0.0333 0.9984 0.0459
vn 0.0333 0.9984 0.0459
vn 0.0323 0.9984 0.0463
vn 0.0323 0.9984 0.0463
vn 0.0323 0.9984 0.0463
vn 0.0323 0.9984 0.0463
vn 0.0295 0.9985 0.0462
vn 0.0295 0.9985 0.0462
vn 0.0295 0.9985 0.0462
vn 0.0297 0.9984 0.0483
vn 0.0297 0.9984 0.0483
vn 0.0297 0.9984 0.0483
vn 0.0281 0.9985 0.0472
vn 0.0281 0.9985 0.0472
vn 0.0281 0.9985 0.0472
vn 0.0281 0.9985 0.0472
vn 0.0281 0.9985 0.0472
vn 0.0281 0.9985 0.0472
vn 0.0281 0.9985 0.0472
vn 0.0281 0.9985 0.0472
vn 0.0281 0.9985 0.0472
vn -0.0326 0.9983 0.0476
vn -0.0326 0.9983 0.0476
vn -0.0326 0.9983 0.0476
vn 0.0024 0.9994 0.035
vn 0.0024 0.9994 0.035
vn 0.0024 0.9994 0.035
vn -0.0333 0.9983 0.0472
vn -0.0333 0.9983 0.0472
vn -0.0333 0.9983 0.0472
vn -0.0309 0.9984 0.0469
vn -0.0309 0.9984 0.0469
vn -0.0309 0.9984 0.0469
vn -0.0309 0.9984 0.0469
vn -0.032 0.9984 0.047
vn -0.032 0.9984 0.047
vn -0.032 0.9984 0.047
vt 0.662936 0.477674
vt 0.661043 0.478306
vt 0.661554 0.480249
vt 0.663581 0.480233
vt 0.661554 0.480249
vt 0.661546 0.482922
vt 0.663537 0.483296
vt 0.663581 0.480233
vt 0.662936 0.477674
vt 0.661554 0.480249
vt 0.662628 0.486194
vt 0.663537 0.483296
vt 0.660977 0.485003
vt 0.663537 0.483296
vt 0.661546 0.482922
vt 0.660977 0.485003
vt 0.660977 0.485003
vt 0.660122 0.486194
vt 0.662628 0.486194
vt 0.660122 0.486194
vt 0.65889 0.486969
vt 0.660991 0.487985
vt 0.660122 0.486194
vt 0.660991 0.487985
vt 0.662628 0.486194
vt 0.660991 0.487985
vt 0.65889 0.486969
vt 0.659201 0.488834
vt 0.65889 0.486969
vt 0.657472 0.488995
vt 0.659201 0.488834
vt 0.657115 0.48705
vt 0.655895 0.488708
vt 0.657472 0.488995
vt 0.657115 0.48705
vt 0.657472 0.488995
vt 0.65889 0.486969
vt 0.65587 0.486549
vt 0.655895 0.488708
vt 0.657115 0.48705
vt 0.65481 0.485405
vt 0.654184 0.487744
vt 0.65587 0.486549
vt 0.65587 0.486549
vt 0.654184 0.487744
vt 0.655895 0.488708
vt 0.65481 0.485405
vt 0.652674 0.485797
vt 0.654184 0.487744
vt 0.652674 0.485797
vt 0.654043 0.483111
vt 0.651916 0.482944
vt 0.652674 0.485797
vt 0.65481 0.485405
vt 0.654043 0.483111
vt 0.65196 0.479881
vt 0.651916 0.482944
vt 0.654043 0.483111
vt 0.654027 0.480179
vt 0.65455 0.478217
vt 0.652869 0.476982
vt 0.65196 0.479881
vt 0.654027 0.480179
vt 0.655648 0.476687
vt 0.654506 0.475191
vt 0.652869 0.476982
vt 0.652869 0.476982
vt 0.65455 0.478217
vt 0.655648 0.476687
vt 0.655648 0.476687
vt 0.657137 0.47605
vt 0.656296 0.474343
vt 0.655648 0.476687
vt 0.656296 0.474343
vt 0.654506 0.475191
vt 0.657137 0.47605
vt 0.658025 0.474182
vt 0.656296 0.474343
vt 0.658717 0.476098
vt 0.659729 0.474506
vt 0.658025 0.474182
vt 0.657137 0.47605
vt 0.658717 0.476098
vt 0.658025 0.474182
vt 0.658717 0.476098
vt 0.66007 0.47684
vt 0.659729 0.474506
vt 0.661043 0.478306
vt 0.662936 0.477674
vt 0.661615 0.475695
vt 0.66007 0.47684
vt 0.66007 0.47684
vt 0.661615 0.475695
vt 0.659729 0.474506
s off
f 1/1/1 2/2/2 3/3/3
f 4/4/4 5/5/5 6/6/6
f 4/4/4 6/6/6 7/7/7
f 8/8/8 9/9/9 10/10/10
f 11/11/11 12/12/12 13/13/13
f 14/14/14 15/15/15 16/16/16
f 17/17/17 18/18/18 19/19/19
f 20/20/20 21/21/21 22/22/22
f 23/23/23 24/24/24 25/25/25
f 26/26/26 27/27/27 28/28/28
f 29/29/29 30/30/30 31/31/31
f 32/32/32 33/33/33 34/34/34
f 35/35/35 36/36/36 37/37/37
f 38/38/38 39/39/39 40/40/40
f 41/41/41 42/42/42 43/43/43
f 44/44/44 45/45/45 46/46/46
f 47/47/47 48/48/48 49/49/49
f 50/50/50 51/51/51 52/52/52
f 53/53/53 54/54/54 55/55/55
f 56/56/56 57/57/57 58/58/58
f 56/56/56 58/58/58 59/59/59
f 60/60/60 61/61/61 62/62/62
f 60/60/60 62/62/62 63/63/63
f 64/64/64 65/65/65 66/66/66
f 67/67/67 68/68/68 69/69/69
f 70/70/70 71/71/71 72/72/72
f 73/73/73 74/74/74 75/75/75
f 76/76/76 77/77/77 78/78/78
f 79/79/79 80/80/80 81/81/81
f 82/82/82 83/83/83 84/84/84
f 85/85/85 86/86/86 87/87/87
f 88/88/88 89/89/89 90/90/90
f 88/88/88 90/90/90 91/91/91
f 92/92/92 93/93/93 94/94/94
