v -0.842386 0.198956 -0.20469
v -0.835669 0.19875 -0.20469
v -0.842386 0.199125 -0.208361
v -0.835669 0.19875 -0.20469
v -0.831529 0.198807 -0.208361
v -0.842386 0.199125 -0.208361
v -0.835669 0.19875 -0.20469
v -0.831529 0.197411 -0.178836
v -0.831529 0.198807 -0.208361
v -0.835669 0.197543 -0.178836
v -0.831529 0.197411 -0.178836
v -0.835669 0.19875 -0.20469
vn 0.0307 0.9985 0.0459
vn 0.0307 0.9985 0.0459
vn 0.0307 0.9985 0.0459
vn 0.0292 0.9984 0.0485
vn 0.0292 0.9984 0.0485
vn 0.0292 0.9984 0.0485
vn 0.0281 0.9985 0.0472
vn 0.0281 0.9985 0.0472
vn 0.0281 0.9985 0.0472
vn 0.0318 0.9984 0.0466
vn 0.0318 0.9984 0.0466
vn 0.0318 0.9984 0.0466
vt 0.09084 0.476134
vt 0.094121 0.476134
vt 0.09084 0.474341
vt 0.094121 0.476134
vt 0.096143 0.474341
vt 0.09084 0.474341
vt 0.094121 0.476134
vt 0.096143 0.48876
vt 0.096143 0.474341
vt 0.094121 0.48876
vt 0.096143 0.48876
vt 0.094121 0.476134
s off
f 1/1/1 2/2/2 3/3/3
f 4/4/4 5/5/5 6/6/6
f 7/7/7 8/8/8 9/9/9
f 10/10/10 11/11/11 12/12/12
