v -0.723475 0.133186 -0.127516
v -0.752001 0.133186 -0.127516
v -0.752005 0.121924 -0.127886
v -0.723475 0.121924 -0.127886
v -0.723475 0.133186 -0.127516
v -0.723475 0.121924 -0.127886
v -0.702029 0.121924 -0.127886
v -0.702029 0.133186 -0.127516
v -0.76078 0.122046 -0.1316
v -0.752005 0.121924 -0.127886
v -0.752001 0.133186 -0.127516
v -0.760779 0.133308 -0.131234
v -0.760779 0.133308 -0.131234
v -0.752001 0.133186 -0.127516
v -0.744763 0.197607 -0.150438
v -0.744763 0.197607 -0.150438
v -0.752001 0.133186 -0.127516
v -0.723475 0.133186 -0.127516
v -0.723331 0.194871 -0.149464
v -0.742728 0.200101 -0.154006
v -0.747228 0.201268 -0.159444
v -0.750455 0.199006 -0.157213
v -0.744763 0.197607 -0.150438
v -0.722464 0.197526 -0.153094
v -0.742728 0.200101 -0.154006
v -0.744763 0.197607 -0.150438
v -0.723331 0.194871 -0.149464
v -0.764415 0.133603 -0.140212
v -0.760779 0.133308 -0.131234
v -0.744763 0.197607 -0.150438
v -0.750455 0.199006 -0.157213
v -0.702029 0.196676 -0.152788
v -0.722464 0.197526 -0.153094
v -0.723331 0.194871 -0.149464
v -0.702029 0.193963 -0.149141
v -0.723331 0.194871 -0.149464
v -0.723475 0.133186 -0.127516
v -0.702029 0.133186 -0.127516
v -0.702029 0.193963 -0.149141
v -0.681594 0.197526 -0.153094
v -0.702029 0.196676 -0.152788
v -0.702029 0.193963 -0.149141
v -0.680726 0.194871 -0.149464
v -0.702029 0.193963 -0.149141
v -0.702029 0.133186 -0.127516
v -0.680583 0.133186 -0.127516
v -0.680726 0.194871 -0.149464
v -0.702029 0.133186 -0.127516
v -0.702029 0.121924 -0.127886
v -0.680583 0.121924 -0.127886
v -0.680583 0.133186 -0.127516
v -0.652052 0.121924 -0.127886
v -0.652057 0.133186 -0.127516
v -0.680583 0.133186 -0.127516
v -0.680583 0.121924 -0.127886
v -0.680583 0.133186 -0.127516
v -0.652057 0.133186 -0.127516
v -0.659294 0.197607 -0.150438
v -0.680726 0.194871 -0.149464
v -0.652052 0.121924 -0.127886
v -0.643278 0.122046 -0.1316
v -0.643279 0.133308 -0.131234
v -0.652057 0.133186 -0.127516
v -0.652057 0.133186 -0.127516
v -0.643279 0.133308 -0.131234
v -0.659294 0.197607 -0.150438
v -0.656829 0.201268 -0.159443
v -0.66133 0.200101 -0.154006
v -0.659294 0.197607 -0.150438
v -0.653602 0.199006 -0.157213
v -0.66133 0.200101 -0.154006
v -0.681594 0.197526 -0.153094
v -0.680726 0.194871 -0.149464
v -0.659294 0.197607 -0.150438
v -0.643279 0.133308 -0.131234
v -0.639643 0.133603 -0.140212
v -0.653602 0.199006 -0.157213
v -0.659294 0.197607 -0.150438
v -0.656834 0.204001 -0.240082
v -0.656829 0.201268 -0.159443
v -0.653602 0.199006 -0.157213
v -0.653596 0.201754 -0.241732
v -0.653602 0.199006 -0.157213
v -0.639643 0.133603 -0.140212
v -0.639643 0.13688 -0.239929
v -0.653596 0.201754 -0.241732
v -0.643278 0.122046 -0.1316
v -0.639643 0.122341 -0.140566
v -0.639643 0.133603 -0.140212
v -0.643279 0.133308 -0.131234
v -0.639643 0.125618 -0.240299
v -0.639643 0.13688 -0.239929
v -0.639643 0.133603 -0.140212
v -0.639643 0.122341 -0.140566
v -0.643284 0.137165 -0.24862
v -0.639643 0.13688 -0.239929
v -0.639643 0.125618 -0.240299
v -0.643282 0.125903 -0.248991
v -0.653596 0.201754 -0.241732
v -0.639643 0.13688 -0.239929
v -0.643284 0.137165 -0.24862
v -0.652074 0.137284 -0.252221
v -0.643284 0.137165 -0.24862
v -0.643282 0.125903 -0.248991
v -0.652069 0.126022 -0.252591
v -0.680583 0.137284 -0.252221
v -0.652074 0.137284 -0.252221
v -0.652069 0.126022 -0.252591
v -0.680583 0.126022 -0.252591
v -0.680583 0.137284 -0.252221
v -0.680583 0.126022 -0.252591
v -0.702029 0.126022 -0.252591
v -0.702029 0.137284 -0.252221
v -0.68082 0.199108 -0.247865
v -0.680583 0.137284 -0.252221
v -0.702029 0.137284 -0.252221
v -0.702029 0.198471 -0.24791
v -0.659388 0.201035 -0.247729
v -0.652074 0.137284 -0.252221
v -0.680583 0.137284 -0.252221
v -0.68082 0.199108 -0.247865
v -0.702029 0.200997 -0.245033
v -0.681684 0.201602 -0.244994
v -0.68082 0.199108 -0.247865
v -0.702029 0.198471 -0.24791
v -0.681684 0.201602 -0.244994
v -0.661417 0.20344 -0.244876
v -0.659388 0.201035 -0.247729
v -0.68082 0.199108 -0.247865
v -0.661417 0.20344 -0.244876
v -0.656834 0.204001 -0.240082
v -0.653596 0.201754 -0.241732
v -0.659388 0.201035 -0.247729
v -0.659388 0.201035 -0.247729
v -0.653596 0.201754 -0.241732
v -0.643284 0.137165 -0.24862
v -0.652074 0.137284 -0.252221
v -0.67003 0.201687 -0.231507
v -0.656834 0.204001 -0.240082
v -0.661417 0.20344 -0.244876
v -0.67003 0.201687 -0.231507
v -0.661417 0.20344 -0.244876
v -0.681684 0.201602 -0.244994
v -0.685993 0.200155 -0.231496
v -0.669971 0.199077 -0.167019
v -0.67003 0.201687 -0.231507
v -0.685993 0.200155 -0.231496
v -0.685948 0.197169 -0.166538
v -0.669971 0.199077 -0.167019
v -0.656829 0.201268 -0.159443
v -0.656834 0.204001 -0.240082
v -0.67003 0.201687 -0.231507
v -0.66133 0.200101 -0.154006
v -0.669971 0.199077 -0.167019
v -0.685948 0.197169 -0.166538
v -0.681594 0.197526 -0.153094
v -0.66133 0.200101 -0.154006
v -0.656829 0.201268 -0.159443
v -0.669971 0.199077 -0.167019
v -0.685948 0.197169 -0.166538
v -0.685993 0.200155 -0.231496
v -0.702029 0.199703 -0.231491
v -0.702029 0.196626 -0.166406
v -0.681594 0.197526 -0.153094
v -0.685948 0.197169 -0.166538
v -0.702029 0.196626 -0.166406
v -0.702029 0.196676 -0.152788
v -0.702029 0.196626 -0.166406
v -0.702029 0.199703 -0.231491
v -0.718065 0.200155 -0.231496
v -0.718109 0.197169 -0.166538
v -0.702029 0.196676 -0.152788
v -0.702029 0.196626 -0.166406
v -0.718109 0.197169 -0.166538
v -0.722464 0.197526 -0.153094
v -0.685993 0.200155 -0.231496
v -0.681684 0.201602 -0.244994
v -0.702029 0.200997 -0.245033
v -0.702029 0.199703 -0.231491
v -0.702029 0.199703 -0.231491
v -0.702029 0.200997 -0.245033
v -0.722373 0.201602 -0.244994
v -0.718065 0.200155 -0.231496
v -0.722373 0.201602 -0.244994
v -0.702029 0.200997 -0.245033
v -0.702029 0.198471 -0.24791
v -0.723237 0.199108 -0.247865
v -0.742641 0.20344 -0.244876
v -0.722373 0.201602 -0.244994
v -0.723237 0.199108 -0.247865
v -0.74467 0.201035 -0.247729
v -0.718065 0.200155 -0.231496
v -0.722373 0.201602 -0.244994
v -0.742641 0.20344 -0.244876
v -0.734027 0.201687 -0.231507
v -0.747224 0.204001 -0.240082
v -0.742641 0.20344 -0.244876
v -0.74467 0.201035 -0.247729
v -0.750462 0.201754 -0.241732
v -0.747224 0.204001 -0.240082
v -0.734027 0.201687 -0.231507
v -0.742641 0.20344 -0.244876
v -0.718109 0.197169 -0.166538
v -0.718065 0.200155 -0.231496
v -0.734027 0.201687 -0.231507
v -0.734086 0.199077 -0.167019
v -0.747224 0.204001 -0.240082
v -0.747228 0.201268 -0.159444
v -0.734086 0.199077 -0.167019
v -0.734027 0.201687 -0.231507
v -0.722464 0.197526 -0.153094
v -0.718109 0.197169 -0.166538
v -0.734086 0.199077 -0.167019
v -0.742728 0.200101 -0.154006
v -0.747228 0.201268 -0.159444
v -0.742728 0.200101 -0.154006
v -0.734086 0.199077 -0.167019
v -0.750462 0.201754 -0.241732
v -0.750455 0.199006 -0.157213
v -0.747228 0.201268 -0.159444
v -0.747224 0.204001 -0.240082
v -0.751983 0.137284 -0.252221
v -0.760773 0.137165 -0.24862
v -0.750462 0.201754 -0.241732
v -0.74467 0.201035 -0.247729
v -0.764415 0.13688 -0.239929
v -0.764415 0.133603 -0.140212
v -0.750455 0.199006 -0.157213
v -0.750462 0.201754 -0.241732
v -0.760773 0.137165 -0.24862
v -0.764415 0.13688 -0.239929
v -0.750462 0.201754 -0.241732
v -0.751988 0.126022 -0.252591
v -0.760775 0.125903 -0.248991
v -0.760773 0.137165 -0.24862
v -0.751983 0.137284 -0.252221
v -0.760775 0.125903 -0.248991
v -0.764415 0.125618 -0.240299
v -0.764415 0.13688 -0.239929
v -0.760773 0.137165 -0.24862
v -0.764415 0.125618 -0.240299
v -0.764415 0.122341 -0.140566
v -0.764415 0.133603 -0.140212
v -0.764415 0.13688 -0.239929
v -0.764415 0.122341 -0.140566
v -0.76078 0.122046 -0.1316
v -0.760779 0.133308 -0.131234
v -0.764415 0.133603 -0.140212
v -0.751988 0.126022 -0.252591
v -0.751983 0.137284 -0.252221
v -0.723474 0.137284 -0.252221
v -0.723474 0.126022 -0.252591
v -0.702029 0.137284 -0.252221
v -0.702029 0.126022 -0.252591
v -0.723474 0.126022 -0.252591
v -0.723474 0.137284 -0.252221
v -0.702029 0.198471 -0.24791
v -0.702029 0.137284 -0.252221
v -0.723474 0.137284 -0.252221
v -0.723237 0.199108 -0.247865
v -0.723474 0.137284 -0.252221
v -0.751983 0.137284 -0.252221
v -0.74467 0.201035 -0.247729
v -0.723237 0.199108 -0.247865
vn -0 -0.0328 0.9995
vn -0.0992 -0.0327 0.9945
vn -0.0993 -0.0325 0.9945
vn -0 -0.0328 0.9995
vn -0 -0.0328 0.9995
vn -0 -0.0328 0.9995
vn -0 -0.0328 0.9995
vn -0 -0.0328 0.9995
vn -0.7149 -0.0226 0.6988
vn -0.0993 -0.0325 0.9945
vn -0.0992 -0.0327 0.9945
vn -0.7151 -0.0226 0.6987
vn -0.6747 0.3388 0.6558
vn -0.0868 0.3429 0.9353
vn -0.0798 0.3719 0.9248
vn -0.0798 0.3719 0.9248
vn -0.0868 0.3429 0.9353
vn -0 0.3352 0.9421
vn 0.0033 0.3694 0.9293
vn 0.1667 0.9853 0.0383
vn 0.1842 0.9819 0.0448
vn -0.9776 0.2104 0.007
vn -0.0798 0.3719 0.9248
vn 0.088 0.9961 0.0052
vn 0.1667 0.9853 0.0383
vn -0.0798 0.3719 0.9248
vn 0.0033 0.3694 0.9293
vn -0.9775 0.2107 0.0076
vn -0.6747 0.3388 0.6558
vn -0.0798 0.3719 0.9248
vn -0.9776 0.2104 0.007
vn -0 1 -0.005
vn 0.088 0.9961 0.0052
vn 0.0033 0.3694 0.9293
vn 0.0003 0.3725 0.9281
vn 0.0033 0.3694 0.9293
vn -0 0.3352 0.9421
vn -0 0.3352 0.9421
vn 0.0003 0.3725 0.9281
vn -0.088 0.9961 0.0052
vn -0 1 -0.005
vn 0.0003 0.3725 0.9281
vn -0.0033 0.3694 0.9293
vn 0.0003 0.3725 0.9281
vn -0 0.3352 0.9421
vn -0 0.3352 0.9421
vn -0.0033 0.3694 0.9293
vn -0 -0.0328 0.9995
vn -0 -0.0328 0.9995
vn -0 -0.0328 0.9995
vn -0 -0.0328 0.9995
vn 0.0994 -0.0326 0.9945
vn 0.0992 -0.0325 0.9945
vn -0 -0.0328 0.9995
vn -0 -0.0328 0.9995
vn -0 0.3352 0.9421
vn 0.0867 0.3429 0.9354
vn 0.0795 0.3718 0.9249
vn -0.0033 0.3694 0.9293
vn 0.0994 -0.0326 0.9945
vn 0.715 -0.0226 0.6987
vn 0.7151 -0.0226 0.6987
vn 0.0992 -0.0325 0.9945
vn 0.0867 0.3429 0.9354
vn 0.6747 0.3388 0.6558
vn 0.0795 0.3718 0.9249
vn -0.1842 0.9819 0.0447
vn -0.1666 0.9853 0.0382
vn 0.0795 0.3718 0.9249
vn 0.9776 0.2105 0.0069
vn -0.1666 0.9853 0.0382
vn -0.088 0.9961 0.0052
vn -0.0033 0.3694 0.9293
vn 0.0795 0.3718 0.9249
vn 0.6747 0.3388 0.6558
vn 0.9775 0.2107 0.0076
vn 0.9776 0.2105 0.0069
vn 0.0795 0.3718 0.9249
vn -0.1593 0.9866 0.0342
vn -0.1842 0.9819 0.0447
vn 0.9776 0.2105 0.0069
vn 0.9776 0.2105 0.0069
vn 0.9776 0.2105 0.0069
vn 0.9775 0.2107 0.0076
vn 0.9776 0.2105 0.0031
vn 0.9776 0.2105 0.0069
vn 0.715 -0.0226 0.6987
vn 0.9993 -0.001 0.0372
vn 0.9993 -0.0012 0.0372
vn 0.7151 -0.0226 0.6987
vn 0.9993 0.001 -0.0374
vn 0.9993 0.0013 -0.0373
vn 0.9993 -0.0012 0.0372
vn 0.9993 -0.001 0.0372
vn 0.7044 0.0234 -0.7094
vn 0.9993 0.0013 -0.0373
vn 0.9993 0.001 -0.0374
vn 0.7034 0.0234 -0.7104
vn 0.9776 0.2105 0.0069
vn 0.9776 0.2105 0.0031
vn 0.6994 0.1592 -0.6968
vn 0.0962 0.0326 -0.9948
vn 0.7044 0.0234 -0.7094
vn 0.7034 0.0234 -0.7104
vn 0.0962 0.0328 -0.9948
vn -0 0.0328 -0.9995
vn 0.0962 0.0326 -0.9948
vn 0.0962 0.0328 -0.9948
vn -0 0.0328 -0.9995
vn -0 0.0328 -0.9995
vn -0 0.0328 -0.9995
vn -0 0.0328 -0.9995
vn -0 0.0328 -0.9995
vn -0.0025 0.1113 -0.9938
vn -0 0.0703 -0.9975
vn -0 0.0703 -0.9975
vn -0.0003 0.1147 -0.9934
vn 0.0814 0.1123 -0.9903
vn 0.0896 0.0806 -0.9927
vn -0 0.0703 -0.9975
vn -0.0025 0.1113 -0.9938
vn -0 0.9957 0.0923
vn -0.0671 0.9946 0.0789
vn -0.0025 0.1113 -0.9938
vn -0.0003 0.1147 -0.9934
vn -0.0671 0.9946 0.0789
vn -0.1337 0.9899 0.0471
vn 0.0814 0.1123 -0.9903
vn -0.0025 0.1113 -0.9938
vn -0.1337 0.9899 0.0471
vn -0.1593 0.9866 0.0342
vn 0.9776 0.2105 0.0069
vn 0.0814 0.1123 -0.9903
vn 0.0814 0.1123 -0.9903
vn 0.9776 0.2105 0.0069
vn 0.6994 0.1592 -0.6968
vn 0.0896 0.0806 -0.9927
vn -0.1256 0.9908 0.0505
vn -0.1593 0.9866 0.0342
vn -0.1337 0.9899 0.0471
vn -0.1256 0.9908 0.0505
vn -0.1337 0.9899 0.0471
vn -0.0671 0.9946 0.0789
vn -0.0616 0.9959 0.066
vn -0.1384 0.9899 0.0297
vn -0.1256 0.9908 0.0505
vn -0.0616 0.9959 0.066
vn -0.0703 0.9973 0.0213
vn -0.1384 0.9899 0.0297
vn -0.1842 0.9819 0.0447
vn -0.1593 0.9866 0.0342
vn -0.1256 0.9908 0.0505
vn -0.1666 0.9853 0.0382
vn -0.1384 0.9899 0.0297
vn -0.0703 0.9973 0.0213
vn -0.088 0.9961 0.0052
vn -0.1666 0.9853 0.0382
vn -0.1842 0.9819 0.0447
vn -0.1384 0.9899 0.0297
vn -0.0703 0.9973 0.0213
vn -0.0616 0.9959 0.066
vn -0 0.9974 0.0714
vn -0 0.9998 0.0187
vn -0.088 0.9961 0.0052
vn -0.0703 0.9973 0.0213
vn -0 0.9998 0.0187
vn -0 1 -0.005
vn -0 0.9998 0.0187
vn -0 0.9974 0.0714
vn 0.0616 0.9959 0.066
vn 0.0703 0.9973 0.0213
vn -0 1 -0.005
vn -0 0.9998 0.0187
vn 0.0703 0.9973 0.0213
vn 0.088 0.9961 0.0052
vn -0.0616 0.9959 0.066
vn -0.0671 0.9946 0.0789
vn -0 0.9957 0.0923
vn -0 0.9974 0.0714
vn -0 0.9974 0.0714
vn -0 0.9957 0.0923
vn 0.067 0.9946 0.0789
vn 0.0616 0.9959 0.066
vn 0.067 0.9946 0.0789
vn -0 0.9957 0.0923
vn -0.0003 0.1147 -0.9934
vn 0.0025 0.1113 -0.9938
vn 0.1337 0.9899 0.0471
vn 0.067 0.9946 0.0789
vn 0.0025 0.1113 -0.9938
vn -0.0815 0.1123 -0.9903
vn 0.0616 0.9959 0.066
vn 0.067 0.9946 0.0789
vn 0.1337 0.9899 0.0471
vn 0.1256 0.9908 0.0505
vn 0.1593 0.9866 0.0342
vn 0.1337 0.9899 0.0471
vn -0.0815 0.1123 -0.9903
vn -0.9776 0.2104 0.0068
vn 0.1593 0.9866 0.0342
vn 0.1256 0.9908 0.0505
vn 0.1337 0.9899 0.0471
vn 0.0703 0.9973 0.0213
vn 0.0616 0.9959 0.066
vn 0.1256 0.9908 0.0505
vn 0.1384 0.9899 0.0297
vn 0.1593 0.9866 0.0342
vn 0.1842 0.9819 0.0448
vn 0.1384 0.9899 0.0297
vn 0.1256 0.9908 0.0505
vn 0.088 0.9961 0.0052
vn 0.0703 0.9973 0.0213
vn 0.1384 0.9899 0.0297
vn 0.1667 0.9853 0.0383
vn 0.1842 0.9819 0.0448
vn 0.1667 0.9853 0.0383
vn 0.1384 0.9899 0.0297
vn -0.9776 0.2104 0.0068
vn -0.9776 0.2104 0.007
vn 0.1842 0.9819 0.0448
vn 0.1593 0.9866 0.0342
vn -0.0896 0.0806 -0.9927
vn -0.6994 0.1592 -0.6968
vn -0.9776 0.2104 0.0068
vn -0.0815 0.1123 -0.9903
vn -0.9782 0.2076 0.003
vn -0.9775 0.2107 0.0076
vn -0.9776 0.2104 0.007
vn -0.9776 0.2104 0.0068
vn -0.6994 0.1592 -0.6968
vn -0.9782 0.2076 0.003
vn -0.9776 0.2104 0.0068
vn -0.0962 0.0327 -0.9948
vn -0.7033 0.0234 -0.7105
vn -0.7035 0.0234 -0.7103
vn -0.0961 0.0327 -0.9948
vn -0.7033 0.0234 -0.7105
vn -0.9993 0.0013 -0.0374
vn -0.9993 0.0009 -0.0374
vn -0.7035 0.0234 -0.7103
vn -0.9993 0.0013 -0.0374
vn -0.9993 -0.0012 0.0372
vn -0.9993 -0.001 0.0372
vn -0.9993 0.0009 -0.0374
vn -0.9993 -0.0012 0.0372
vn -0.7149 -0.0226 0.6988
vn -0.7151 -0.0226 0.6987
vn -0.9993 -0.001 0.0372
vn -0.0962 0.0327 -0.9948
vn -0.0961 0.0327 -0.9948
vn -0 0.0328 -0.9995
vn -0 0.0328 -0.9995
vn -0 0.0328 -0.9995
vn -0 0.0328 -0.9995
vn -0 0.0328 -0.9995
vn -0 0.0328 -0.9995
vn -0.0003 0.1147 -0.9934
vn -0 0.0703 -0.9975
vn -0 0.0703 -0.9975
vn 0.0025 0.1113 -0.9938
vn -0 0.0703 -0.9975
vn -0.0896 0.0806 -0.9927
vn -0.0815 0.1123 -0.9903
vn 0.0025 0.1113 -0.9938
vt 0.145251 0.121955
vt 0.131648 0.121994
vt 0.131261 0.123702
vt 0.145251 0.123702
vt 0.145251 0.121955
vt 0.145251 0.123702
vt 0.155766 0.123702
vt 0.155766 0.121955
vt 0.126958 0.121881
vt 0.131261 0.123702
vt 0.131648 0.121994
vt 0.128265 0.120644
vt 0.128265 0.120644
vt 0.131648 0.121994
vt 0.138112 0.113096
vt 0.138112 0.113096
vt 0.131648 0.121994
vt 0.145251 0.121955
vt 0.146966 0.113499
vt 0.138953 0.111622
vt 0.137094 0.109376
vt 0.135761 0.110298
vt 0.138112 0.113096
vt 0.147325 0.111999
vt 0.138953 0.111622
vt 0.138112 0.113096
vt 0.146966 0.113499
vt 0.127046 0.117169
vt 0.128265 0.120644
vt 0.138112 0.113096
vt 0.135761 0.110298
vt 0.155766 0.112126
vt 0.147325 0.111999
vt 0.146966 0.113499
vt 0.155766 0.113632
vt 0.146966 0.113499
vt 0.145251 0.121955
vt 0.155766 0.121955
vt 0.155766 0.113632
vt 0.164208 0.111999
vt 0.155766 0.112126
vt 0.155766 0.113632
vt 0.164567 0.113499
vt 0.155766 0.113632
vt 0.155766 0.121955
vt 0.166282 0.121955
vt 0.164567 0.113499
vt 0.155766 0.121955
vt 0.155766 0.123702
vt 0.166282 0.123702
vt 0.166282 0.121955
vt 0.180272 0.123702
vt 0.179885 0.121994
vt 0.166282 0.121955
vt 0.166282 0.123702
vt 0.166282 0.121955
vt 0.179885 0.121994
vt 0.173421 0.113096
vt 0.164567 0.113499
vt 0.180272 0.123702
vt 0.184575 0.121881
vt 0.183268 0.120644
vt 0.179885 0.121994
vt 0.179885 0.121994
vt 0.183268 0.120644
vt 0.173421 0.113096
vt 0.174439 0.109376
vt 0.17258 0.111622
vt 0.173421 0.113096
vt 0.175772 0.110298
vt 0.17258 0.111622
vt 0.164208 0.111999
vt 0.164567 0.113499
vt 0.173421 0.113096
vt 0.183268 0.120644
vt 0.184487 0.117169
vt 0.175772 0.110298
vt 0.173421 0.113096
vt 0.174437 0.076063
vt 0.174439 0.109376
vt 0.175772 0.110298
vt 0.175775 0.075382
vt 0.175772 0.110298
vt 0.184487 0.117169
vt 0.18445 0.069128
vt 0.175775 0.075382
vt 0.184575 0.121881
vt 0.186357 0.117484
vt 0.184487 0.117169
vt 0.183268 0.120644
vt 0.186357 0.068581
vt 0.18445 0.069128
vt 0.184487 0.117169
vt 0.186357 0.117484
vt 0.183132 0.065805
vt 0.18445 0.069128
vt 0.186357 0.068581
vt 0.184572 0.064319
vt 0.175775 0.075382
vt 0.18445 0.069128
vt 0.183132 0.065805
vt 0.17978 0.064622
vt 0.183132 0.065805
vt 0.184572 0.064319
vt 0.180264 0.062554
vt 0.166282 0.064685
vt 0.17978 0.064622
vt 0.180264 0.062554
vt 0.166282 0.062554
vt 0.166282 0.064685
vt 0.166282 0.062554
vt 0.155766 0.062554
vt 0.155766 0.064685
vt 0.164528 0.072848
vt 0.166282 0.064685
vt 0.155766 0.064685
vt 0.155766 0.072829
vt 0.173382 0.072904
vt 0.17978 0.064622
vt 0.166282 0.064685
vt 0.164528 0.072848
vt 0.155766 0.074018
vt 0.164171 0.074034
vt 0.164528 0.072848
vt 0.155766 0.072829
vt 0.164171 0.074034
vt 0.172544 0.074083
vt 0.173382 0.072904
vt 0.164528 0.072848
vt 0.172544 0.074083
vt 0.174437 0.076063
vt 0.175775 0.075382
vt 0.173382 0.072904
vt 0.173382 0.072904
vt 0.175775 0.075382
vt 0.183132 0.065805
vt 0.17978 0.064622
vt 0.168985 0.079606
vt 0.174437 0.076063
vt 0.172544 0.074083
vt 0.168985 0.079606
vt 0.172544 0.074083
vt 0.164171 0.074034
vt 0.162391 0.07961
vt 0.16901 0.106247
vt 0.168985 0.079606
vt 0.162391 0.07961
vt 0.16241 0.106445
vt 0.16901 0.106247
vt 0.174439 0.109376
vt 0.174437 0.076063
vt 0.168985 0.079606
vt 0.17258 0.111622
vt 0.16901 0.106247
vt 0.16241 0.106445
vt 0.164208 0.111999
vt 0.17258 0.111622
vt 0.174439 0.109376
vt 0.16901 0.106247
vt 0.16241 0.106445
vt 0.162391 0.07961
vt 0.155766 0.079612
vt 0.155766 0.1065
vt 0.164208 0.111999
vt 0.16241 0.106445
vt 0.155766 0.1065
vt 0.155766 0.112126
vt 0.155766 0.1065
vt 0.155766 0.079612
vt 0.149142 0.07961
vt 0.149123 0.106445
vt 0.155766 0.112126
vt 0.155766 0.1065
vt 0.149123 0.106445
vt 0.147325 0.111999
vt 0.162391 0.07961
vt 0.164171 0.074034
vt 0.155766 0.074018
vt 0.155766 0.079612
vt 0.155766 0.079612
vt 0.155766 0.074018
vt 0.147362 0.074034
vt 0.149142 0.07961
vt 0.147362 0.074034
vt 0.155766 0.074018
vt 0.155766 0.072829
vt 0.147005 0.072848
vt 0.138989 0.074083
vt 0.147362 0.074034
vt 0.147005 0.072848
vt 0.138151 0.072904
vt 0.149142 0.07961
vt 0.147362 0.074034
vt 0.138989 0.074083
vt 0.142547 0.079606
vt 0.137096 0.076063
vt 0.138989 0.074083
vt 0.138151 0.072904
vt 0.135758 0.075382
vt 0.137096 0.076063
vt 0.142547 0.079606
vt 0.138989 0.074083
vt 0.149123 0.106445
vt 0.149142 0.07961
vt 0.142547 0.079606
vt 0.142523 0.106247
vt 0.137096 0.076063
vt 0.137094 0.109376
vt 0.142523 0.106247
vt 0.142547 0.079606
vt 0.147325 0.111999
vt 0.149123 0.106445
vt 0.142523 0.106247
vt 0.138953 0.111622
vt 0.137094 0.109376
vt 0.138953 0.111622
vt 0.142523 0.106247
vt 0.135758 0.075382
vt 0.135761 0.110298
vt 0.137094 0.109376
vt 0.137096 0.076063
vt 0.131753 0.064622
vt 0.128401 0.065805
vt 0.135758 0.075382
vt 0.138151 0.072904
vt 0.127083 0.069128
vt 0.127046 0.117169
vt 0.135761 0.110298
vt 0.135758 0.075382
vt 0.128401 0.065805
vt 0.127083 0.069128
vt 0.135758 0.075382
vt 0.131269 0.062554
vt 0.126961 0.064319
vt 0.128401 0.065805
vt 0.131753 0.064622
vt 0.126961 0.064319
vt 0.125176 0.068581
vt 0.127083 0.069128
vt 0.128401 0.065805
vt 0.125176 0.068581
vt 0.125176 0.117484
vt 0.127046 0.117169
vt 0.127083 0.069128
vt 0.125176 0.117484
vt 0.126958 0.121881
vt 0.128265 0.120644
vt 0.127046 0.117169
vt 0.131269 0.062554
vt 0.131753 0.064622
vt 0.145251 0.064685
vt 0.145251 0.062554
vt 0.155766 0.064685
vt 0.155766 0.062554
vt 0.145251 0.062554
vt 0.145251 0.064685
vt 0.155766 0.072829
vt 0.155766 0.064685
vt 0.145251 0.064685
vt 0.147005 0.072848
vt 0.145251 0.064685
vt 0.131753 0.064622
vt 0.138151 0.072904
vt 0.147005 0.072848
s off
f 1/1/1 2/2/2 3/3/3
f 1/1/1 3/3/3 4/4/4
f 5/5/5 6/6/6 7/7/7
f 5/5/5 7/7/7 8/8/8
f 9/9/9 10/10/10 11/11/11
f 9/9/9 11/11/11 12/12/12
f 13/13/13 14/14/14 15/15/15
f 16/16/16 17/17/17 18/18/18
f 16/16/16 18/18/18 19/19/19
f 20/20/20 21/21/21 22/22/22
f 20/20/20 22/22/22 23/23/23
f 24/24/24 25/25/25 26/26/26
f 24/24/24 26/26/26 27/27/27
f 28/28/28 29/29/29 30/30/30
f 28/28/28 30/30/30 31/31/31
f 32/32/32 33/33/33 34/34/34
f 32/32/32 34/34/34 35/35/35
f 36/36/36 37/37/37 38/38/38
f 36/36/36 38/38/38 39/39/39
f 40/40/40 41/41/41 42/42/42
f 40/40/40 42/42/42 43/43/43
f 44/44/44 45/45/45 46/46/46
f 44/44/44 46/46/46 47/47/47
f 48/48/48 49/49/49 50/50/50
f 48/48/48 50/50/50 51/51/51
f 52/52/52 53/53/53 54/54/54
f 52/52/52 54/54/54 55/55/55
f 56/56/56 57/57/57 58/58/58
f 56/56/56 58/58/58 59/59/59
f 60/60/60 61/61/61 62/62/62
f 60/60/60 62/62/62 63/63/63
f 64/64/64 65/65/65 66/66/66
f 67/67/67 68/68/68 69/69/69
f 67/67/67 69/69/69 70/70/70
f 71/71/71 72/72/72 73/73/73
f 71/71/71 73/73/73 74/74/74
f 75/75/75 76/76/76 77/77/77
f 75/75/75 77/77/77 78/78/78
f 79/79/79 80/80/80 81/81/81
f 79/79/79 81/81/81 82/82/82
f 83/83/83 84/84/84 85/85/85
f 83/83/83 85/85/85 86/86/86
f 87/87/87 88/88/88 89/89/89
f 87/87/87 89/89/89 90/90/90
f 91/91/91 92/92/92 93/93/93
f 91/91/91 93/93/93 94/94/94
f 95/95/95 96/96/96 97/97/97
f 95/95/95 97/97/97 98/98/98
f 99/99/99 100/100/100 101/101/101
f 102/102/102 103/103/103 104/104/104
f 102/102/102 104/104/104 105/105/105
f 106/106/106 107/107/107 108/108/108
f 106/106/106 108/108/108 109/109/109
f 110/110/110 111/111/111 112/112/112
f 110/110/110 112/112/112 113/113/113
f 114/114/114 115/115/115 116/116/116
f 114/114/114 116/116/116 117/117/117
f 118/118/118 119/119/119 120/120/120
f 118/118/118 120/120/120 121/121/121
f 122/122/122 123/123/123 124/124/124
f 122/122/122 124/124/124 125/125/125
f 126/126/126 127/127/127 128/128/128
f 126/126/126 128/128/128 129/129/129
f 130/130/130 131/131/131 132/132/132
f 130/130/130 132/132/132 133/133/133
f 134/134/134 135/135/135 136/136/136
f 134/134/134 136/136/136 137/137/137
f 138/138/138 139/139/139 140/140/140
f 141/141/141 142/142/142 143/143/143
f 141/141/141 143/143/143 144/144/144
f 145/145/145 146/146/146 147/147/147
f 145/145/145 147/147/147 148/148/148
f 149/149/149 150/150/150 151/151/151
f 149/149/149 151/151/151 152/152/152
f 153/153/153 154/154/154 155/155/155
f 153/153/153 155/155/155 156/156/156
f 157/157/157 158/158/158 159/159/159
f 160/160/160 161/161/161 162/162/162
f 160/160/160 162/162/162 163/163/163
f 164/164/164 165/165/165 166/166/166
f 164/164/164 166/166/166 167/167/167
f 168/168/168 169/169/169 170/170/170
f 168/168/168 170/170/170 171/171/171
f 172/172/172 173/173/173 174/174/174
f 172/172/172 174/174/174 175/175/175
f 176/176/176 177/177/177 178/178/178
f 176/176/176 178/178/178 179/179/179
f 180/180/180 181/181/181 182/182/182
f 180/180/180 182/182/182 183/183/183
f 184/184/184 185/185/185 186/186/186
f 184/184/184 186/186/186 187/187/187
f 188/188/188 189/189/189 190/190/190
f 188/188/188 190/190/190 191/191/191
f 192/192/192 193/193/193 194/194/194
f 192/192/192 194/194/194 195/195/195
f 196/196/196 197/197/197 198/198/198
f 196/196/196 198/198/198 199/199/199
f 200/200/200 201/201/201 202/202/202
f 203/203/203 204/204/204 205/205/205
f 203/203/203 205/205/205 206/206/206
f 207/207/207 208/208/208 209/209/209
f 207/207/207 209/209/209 210/210/210
f 211/211/211 212/212/212 213/213/213
f 211/211/211 213/213/213 214/214/214
f 215/215/215 216/216/216 217/217/217
f 218/218/218 219/219/219 220/220/220
f 218/218/218 220/220/220 221/221/221
f 222/222/222 223/223/223 224/224/224
f 222/222/222 224/224/224 225/225/225
f 226/226/226 227/227/227 228/228/228
f 226/226/226 228/228/228 229/229/229
f 230/230/230 231/231/231 232/232/232
f 233/233/233 234/234/234 235/235/235
f 233/233/233 235/235/235 236/236/236
f 237/237/237 238/238/238 239/239/239
f 237/237/237 239/239/239 240/240/240
f 241/241/241 242/242/242 243/243/243
f 241/241/241 243/243/243 244/244/244
f 245/245/245 246/246/246 247/247/247
f 245/245/245 247/247/247 248/248/248
f 249/249/249 250/250/250 251/251/251
f 249/249/249 251/251/251 252/252/252
f 253/253/253 254/254/254 255/255/255
f 253/253/253 255/255/255 256/256/256
f 257/257/257 258/258/258 259/259/259
f 257/257/257 259/259/259 260/260/260
f 261/261/261 262/262/262 263/263/263
f 261/261/261 263/263/263 264/264/264
