v -0.70056 0.198144 -0.194396
v -0.696087 0.198262 -0.193745
v -0.698699 0.198318 -0.196784
v -0.713738 0.197863 -0.181647
v -0.707645 0.197696 -0.182429
v -0.70056 0.198144 -0.194396
v -0.696087 0.198262 -0.193745
v -0.70056 0.198144 -0.194396
v -0.707645 0.197696 -0.182429
v -0.698699 0.198318 -0.196784
v -0.696087 0.198262 -0.193745
v -0.694134 0.198514 -0.197694
v -0.697987 0.198452 -0.199111
v -0.694134 0.198514 -0.197694
v -0.693813 0.198711 -0.201732
v -0.698699 0.198318 -0.196784
v -0.694134 0.198514 -0.197694
v -0.697987 0.198452 -0.199111
v -0.693813 0.198711 -0.201732
v -0.698141 0.198564 -0.201587
v -0.697987 0.198452 -0.199111
v -0.698141 0.198564 -0.201587
v -0.695115 0.198821 -0.204921
v -0.699664 0.198611 -0.20365
v -0.698141 0.198564 -0.201587
v -0.693813 0.198711 -0.201732
v -0.695115 0.198821 -0.204921
v -0.699664 0.198611 -0.20365
v -0.695115 0.198821 -0.204921
v -0.69731 0.198847 -0.206974
v -0.699664 0.198611 -0.20365
v -0.69731 0.198847 -0.206974
v -0.700375 0.198803 -0.208214
v -0.702513 0.198598 -0.204766
v -0.700375 0.198803 -0.208214
v -0.704259 0.198831 -0.208638
v -0.699664 0.198611 -0.20365
v -0.700375 0.198803 -0.208214
v -0.702513 0.198598 -0.204766
v -0.706124 0.1987 -0.204764
v -0.702513 0.198598 -0.204766
v -0.704259 0.198831 -0.208638
v -0.708822 0.198928 -0.207985
v -0.709527 0.198745 -0.203694
v -0.706124 0.1987 -0.204764
v -0.706124 0.1987 -0.204764
v -0.704259 0.198831 -0.208638
v -0.708822 0.198928 -0.207985
v -0.71268 0.198955 -0.206153
v -0.709527 0.198745 -0.203694
v -0.708822 0.198928 -0.207985
v -0.709527 0.198745 -0.203694
v -0.71268 0.198955 -0.206153
v -0.71477 0.198933 -0.204158
v -0.71477 0.198933 -0.204158
v -0.711873 0.198721 -0.201653
v -0.709527 0.198745 -0.203694
v -0.707645 0.197696 -0.182429
v -0.713738 0.19773 -0.178758
v -0.692492 0.197673 -0.178758
v -0.692492 0.197847 -0.182429
v -0.707645 0.197696 -0.182429
v -0.713738 0.197863 -0.181647
v -0.713738 0.19773 -0.178758
vn -0.0333 0.9983 0.0472
vn -0.0333 0.9983 0.0472
vn -0.0333 0.9983 0.0472
vn 0.0348 0.9977 0.058
vn 0.0348 0.9977 0.058
vn 0.0348 0.9977 0.058
vn -0.0294 0.9994 0.02
vn -0.0294 0.9994 0.02
vn -0.0294 0.9994 0.02
vn -0.0333 0.9983 0.0472
vn -0.0333 0.9983 0.0472
vn -0.0333 0.9983 0.0472
vn -0.0329 0.9984 0.0462
vn -0.0329 0.9984 0.0462
vn -0.0329 0.9984 0.0462
vn -0.0333 0.9983 0.0472
vn -0.0333 0.9983 0.0472
vn -0.0333 0.9983 0.0472
vn -0.0323 0.9984 0.0471
vn -0.0323 0.9984 0.0471
vn -0.0323 0.9984 0.0471
vn -0.033 0.9984 0.047
vn -0.033 0.9984 0.047
vn -0.033 0.9984 0.047
vn -0.0323 0.9983 0.0476
vn -0.0323 0.9983 0.0476
vn -0.0323 0.9983 0.0476
vn -0.0328 0.9983 0.0475
vn -0.0328 0.9983 0.0475
vn -0.0328 0.9983 0.0475
vn -0.0333 0.9983 0.0472
vn -0.0333 0.9983 0.0472
vn -0.0333 0.9983 0.0472
vn 0.0006 0.9982 0.0596
vn 0.0006 0.9982 0.0596
vn 0.0006 0.9982 0.0596
vn -0.0222 0.9987 0.0455
vn -0.0222 0.9987 0.0455
vn -0.0222 0.9987 0.0455
vn 0.0281 0.9985 0.0472
vn 0.0281 0.9985 0.0472
vn 0.0281 0.9985 0.0472
vn 0.0281 0.9985 0.0472
vn 0.0281 0.9985 0.0472
vn 0.0281 0.9985 0.0472
vn 0.0281 0.9985 0.0472
vn 0.0281 0.9985 0.0472
vn 0.0281 0.9985 0.0472
vn 0.0294 0.9984 0.0474
vn 0.0294 0.9984 0.0474
vn 0.0294 0.9984 0.0474
vn 0.0318 0.9985 0.0443
vn 0.0318 0.9985 0.0443
vn 0.0318 0.9985 0.0443
vn 0.0314 0.9983 0.0481
vn 0.0314 0.9983 0.0481
vn 0.0314 0.9983 0.0481
vn -0.0026 0.9999 0.0168
vn -0.0026 0.9999 0.0168
vn -0.0026 0.9999 0.0168
vn -0.0026 0.9999 0.0168
vn 0.0333 0.9984 0.0459
vn 0.0333 0.9984 0.0459
vn 0.0333 0.9984 0.0459
vt 0.1601 0.48116
vt 0.162285 0.481479
vt 0.161009 0.479995
vt 0.153665 0.487386
vt 0.15664 0.487005
vt 0.1601 0.48116
vt 0.162285 0.481479
vt 0.1601 0.48116
vt 0.15664 0.487005
vt 0.161009 0.479995
vt 0.162285 0.481479
vt 0.163238 0.47955
vt 0.161357 0.478858
vt 0.163238 0.47955
vt 0.163395 0.477579
vt 0.161009 0.479995
vt 0.163238 0.47955
vt 0.161357 0.478858
vt 0.163395 0.477579
vt 0.161282 0.477649
vt 0.161357 0.478858
vt 0.161282 0.477649
vt 0.162759 0.476021
vt 0.160538 0.476642
vt 0.161282 0.477649
vt 0.163395 0.477579
vt 0.162759 0.476021
vt 0.160538 0.476642
vt 0.162759 0.476021
vt 0.161687 0.475018
vt 0.160538 0.476642
vt 0.161687 0.475018
vt 0.160191 0.474413
vt 0.159146 0.476097
vt 0.160191 0.474413
vt 0.158294 0.474206
vt 0.160538 0.476642
vt 0.160191 0.474413
vt 0.159146 0.476097
vt 0.157383 0.476098
vt 0.159146 0.476097
vt 0.158294 0.474206
vt 0.156066 0.474525
vt 0.155721 0.47662
vt 0.157383 0.476098
vt 0.157383 0.476098
vt 0.158294 0.474206
vt 0.156066 0.474525
vt 0.154182 0.475419
vt 0.155721 0.47662
vt 0.156066 0.474525
vt 0.155721 0.47662
vt 0.154182 0.475419
vt 0.153161 0.476393
vt 0.153161 0.476393
vt 0.154576 0.477617
vt 0.155721 0.47662
vt 0.15664 0.487005
vt 0.153665 0.488798
vt 0.16404 0.488798
vt 0.16404 0.487005
vt 0.15664 0.487005
vt 0.153665 0.487386
vt 0.153665 0.488798
s off
f 1/1/1 2/2/2 3/3/3
f 4/4/4 5/5/5 6/6/6
f 7/7/7 8/8/8 9/9/9
f 10/10/10 11/11/11 12/12/12
f 13/13/13 14/14/14 15/15/15
f 16/16/16 17/17/17 18/18/18
f 19/19/19 20/20/20 21/21/21
f 22/22/22 23/23/23 24/24/24
f 25/25/25 26/26/26 27/27/27
f 28/28/28 29/29/29 30/30/30
f 31/31/31 32/32/32 33/33/33
f 34/34/34 35/35/35 36/36/36
f 37/37/37 38/38/38 39/39/39
f 40/40/40 41/41/41 42/42/42
f 43/43/43 44/44/44 45/45/45
f 46/46/46 47/47/47 48/48/48
f 49/49/49 50/50/50 51/51/51
f 52/52/52 53/53/53 54/54/54
f 55/55/55 56/56/56 57/57/57
f 58/58/58 59/59/59 60/60/60
f 58/58/58 60/60/60 61/61/61
f 62/62/62 63/63/63 64/64/64
