v -0.566919 0.197787 -0.182612
v -0.565707 0.197958 -0.185383
v -0.569796 0.197862 -0.186242
v -0.570998 0.197711 -0.183891
v -0.565524 0.198143 -0.189167
v -0.569793 0.197983 -0.18879
v -0.569796 0.197862 -0.186242
v -0.565707 0.197958 -0.185383
v -0.570998 0.197711 -0.183891
v -0.57427 0.197529 -0.182355
v -0.573287 0.197386 -0.178622
v -0.570998 0.197711 -0.183891
v -0.569121 0.197606 -0.180347
v -0.566919 0.197787 -0.182612
v -0.570998 0.197711 -0.183891
v -0.573287 0.197386 -0.178622
v -0.569121 0.197606 -0.180347
v -0.579838 0.197689 -0.182401
v -0.57902 0.197484 -0.178543
v -0.573287 0.197386 -0.178622
v -0.579838 0.197689 -0.182401
v -0.573287 0.197386 -0.178622
v -0.57427 0.197529 -0.182355
v -0.585452 0.197996 -0.185019
v -0.584322 0.197722 -0.179861
v -0.579838 0.197689 -0.182401
v -0.579838 0.197689 -0.182401
v -0.584322 0.197722 -0.179861
v -0.57902 0.197484 -0.178543
v -0.584322 0.197722 -0.179861
v -0.585452 0.197996 -0.185019
v -0.587519 0.197924 -0.181946
v -0.569793 0.197983 -0.18879
v -0.566924 0.198247 -0.192351
v -0.571362 0.198047 -0.191253
v -0.569793 0.197983 -0.18879
v -0.565524 0.198143 -0.189167
v -0.566924 0.198247 -0.192351
v -0.571362 0.198047 -0.191253
v -0.566924 0.198247 -0.192351
v -0.569503 0.19827 -0.194662
v -0.571362 0.198047 -0.191253
v -0.569503 0.19827 -0.194662
v -0.574317 0.198174 -0.196025
v -0.566656 0.198869 -0.205471
v -0.571889 0.198664 -0.20469
v -0.574317 0.198174 -0.196025
v -0.574317 0.198174 -0.196025
v -0.57931 0.198288 -0.195552
v -0.57499 0.198024 -0.19255
v -0.57499 0.198024 -0.19255
v -0.571362 0.198047 -0.191253
v -0.574317 0.198174 -0.196025
v -0.57931 0.198288 -0.195552
v -0.574317 0.198174 -0.196025
v -0.571889 0.198664 -0.20469
v -0.586105 0.198923 -0.20469
v -0.571889 0.198664 -0.20469
v -0.586105 0.199092 -0.208361
v -0.571889 0.198664 -0.20469
v -0.566656 0.198869 -0.205471
v -0.566656 0.199002 -0.208361
v -0.571889 0.198664 -0.20469
v -0.566656 0.199002 -0.208361
v -0.586105 0.199092 -0.208361
v -0.57931 0.198288 -0.195552
v -0.57931 0.198147 -0.192583
v -0.57499 0.198024 -0.19255
vn -0.0333 0.9983 0.0472
vn -0.0333 0.9983 0.0472
vn -0.0333 0.9983 0.0472
vn -0.0333 0.9983 0.0472
vn -0.0333 0.9983 0.0472
vn -0.0333 0.9983 0.0472
vn -0.0333 0.9983 0.0472
vn -0.0333 0.9983 0.0472
vn -0.0333 0.9983 0.0472
vn -0.0333 0.9983 0.0472
vn -0.0333 0.9983 0.0472
vn -0.0333 0.9983 0.0472
vn -0.0333 0.9983 0.0472
vn -0.0333 0.9983 0.0472
vn -0.0333 0.9983 0.0472
vn -0.0333 0.9983 0.0472
vn -0.0333 0.9983 0.0472
vn 0.0178 0.9986 0.0492
vn 0.0178 0.9986 0.0492
vn 0.0178 0.9986 0.0492
vn 0.0284 0.9991 0.031
vn 0.0284 0.9991 0.031
vn 0.0284 0.9991 0.031
vn 0.0333 0.9984 0.0459
vn 0.0333 0.9984 0.0459
vn 0.0333 0.9984 0.0459
vn 0.0333 0.9984 0.0459
vn 0.0333 0.9984 0.0459
vn 0.0333 0.9984 0.0459
vn 0.0333 0.9984 0.0459
vn 0.0333 0.9984 0.0459
vn 0.0333 0.9984 0.0459
vn -0.0333 0.9983 0.0472
vn -0.0333 0.9983 0.0472
vn -0.0333 0.9983 0.0472
vn -0.0333 0.9983 0.0472
vn -0.0333 0.9983 0.0472
vn -0.0333 0.9983 0.0472
vn -0.0333 0.9983 0.0472
vn -0.0333 0.9983 0.0472
vn -0.0333 0.9983 0.0472
vn -0.0333 0.9983 0.0472
vn -0.0333 0.9983 0.0472
vn -0.0333 0.9983 0.0472
vn -0.032 0.9984 0.0476
vn -0.032 0.9984 0.0476
vn -0.032 0.9984 0.0476
vn 0.0273 0.9985 0.0483
vn 0.0273 0.9985 0.0483
vn 0.0273 0.9985 0.0483
vn -0.0202 0.999 0.0391
vn -0.0202 0.999 0.0391
vn -0.0202 0.999 0.0391
vn 0.0289 0.9975 0.0646
vn 0.0289 0.9975 0.0646
vn 0.0289 0.9975 0.0646
vn 0.0182 0.9988 0.0459
vn 0.0182 0.9988 0.0459
vn 0.0182 0.9988 0.0459
vn -0.0322 0.9984 0.0459
vn -0.0322 0.9984 0.0459
vn -0.0322 0.9984 0.0459
vn 0.0046 0.9952 0.0981
vn 0.0046 0.9952 0.0981
vn 0.0046 0.9952 0.0981
vn 0.0281 0.9985 0.0472
vn 0.0281 0.9985 0.0472
vn 0.0281 0.9985 0.0472
vt 0.225363 0.486915
vt 0.225955 0.485562
vt 0.223958 0.485143
vt 0.223371 0.486291
vt 0.226044 0.483714
vt 0.22396 0.483898
vt 0.223958 0.485143
vt 0.225955 0.485562
vt 0.223371 0.486291
vt 0.221773 0.487041
vt 0.222253 0.488864
vt 0.223371 0.486291
vt 0.224288 0.488021
vt 0.225363 0.486915
vt 0.223371 0.486291
vt 0.222253 0.488864
vt 0.224288 0.488021
vt 0.219054 0.487019
vt 0.219454 0.488902
vt 0.222253 0.488864
vt 0.219054 0.487019
vt 0.222253 0.488864
vt 0.221773 0.487041
vt 0.216312 0.48574
vt 0.216864 0.488259
vt 0.219054 0.487019
vt 0.219054 0.487019
vt 0.216864 0.488259
vt 0.219454 0.488902
vt 0.216864 0.488259
vt 0.216312 0.48574
vt 0.215303 0.48724
vt 0.22396 0.483898
vt 0.225361 0.482159
vt 0.223193 0.482696
vt 0.22396 0.483898
vt 0.226044 0.483714
vt 0.225361 0.482159
vt 0.223193 0.482696
vt 0.225361 0.482159
vt 0.224101 0.481031
vt 0.223193 0.482696
vt 0.224101 0.481031
vt 0.22175 0.480365
vt 0.225492 0.475752
vt 0.222936 0.476134
vt 0.22175 0.480365
vt 0.22175 0.480365
vt 0.219312 0.480596
vt 0.221422 0.482062
vt 0.221422 0.482062
vt 0.223193 0.482696
vt 0.22175 0.480365
vt 0.219312 0.480596
vt 0.22175 0.480365
vt 0.222936 0.476134
vt 0.215994 0.476134
vt 0.222936 0.476134
vt 0.215994 0.474341
vt 0.222936 0.476134
vt 0.225492 0.475752
vt 0.225492 0.474341
vt 0.222936 0.476134
vt 0.225492 0.474341
vt 0.215994 0.474341
vt 0.219312 0.480596
vt 0.219312 0.482046
vt 0.221422 0.482062
s off
f 1/1/1 2/2/2 3/3/3
f 1/1/1 3/3/3 4/4/4
f 5/5/5 6/6/6 7/7/7
f 5/5/5 7/7/7 8/8/8
f 9/9/9 10/10/10 11/11/11
f 12/12/12 13/13/13 14/14/14
f 15/15/15 16/16/16 17/17/17
f 18/18/18 19/19/19 20/20/20
f 21/21/21 22/22/22 23/23/23
f 24/24/24 25/25/25 26/26/26
f 27/27/27 28/28/28 29/29/29
f 30/30/30 31/31/31 32/32/32
f 33/33/33 34/34/34 35/35/35
f 36/36/36 37/37/37 38/38/38
f 39/39/39 40/40/40 41/41/41
f 42/42/42 43/43/43 44/44/44
f 45/45/45 46/46/46 47/47/47
f 48/48/48 49/49/49 50/50/50
f 51/51/51 52/52/52 53/53/53
f 54/54/54 55/55/55 56/56/56
f 57/57/57 58/58/58 59/59/59
f 60/60/60 61/61/61 62/62/62
f 63/63/63 64/64/64 65/65/65
f 66/66/66 67/67/67 68/68/68
