v -0.442303 0.197507 -0.178836
v -0.438242 0.197643 -0.178836
v -0.438242 0.197986 -0.1861
v -0.442303 0.197507 -0.178836
v -0.438242 0.197986 -0.1861
v -0.442303 0.19785 -0.1861
v -0.442303 0.19785 -0.1861
v -0.453473 0.198067 -0.189693
v -0.458707 0.198076 -0.1861
v -0.442147 0.198026 -0.189693
v -0.442303 0.19785 -0.1861
v -0.438242 0.197986 -0.1861
v -0.438242 0.198156 -0.189693
v -0.442147 0.198026 -0.189693
v -0.453473 0.198067 -0.189693
v -0.442303 0.19785 -0.1861
v -0.442147 0.198026 -0.189693
v -0.438242 0.198459 -0.196098
v -0.442147 0.198328 -0.196098
v -0.442147 0.198026 -0.189693
v -0.438242 0.198156 -0.189693
v -0.438242 0.198459 -0.196098
v -0.432618 0.198324 -0.189693
v -0.438242 0.198156 -0.189693
v -0.438242 0.197986 -0.1861
v -0.438242 0.197986 -0.1861
v -0.432618 0.198159 -0.1861
v -0.432618 0.198324 -0.189693
v -0.443631 0.198859 -0.208361
v -0.453473 0.198067 -0.189693
v -0.439023 0.199002 -0.208361
v -0.458707 0.198209 -0.18899
v -0.458707 0.198076 -0.1861
v -0.453473 0.198067 -0.189693
v -0.458707 0.198209 -0.18899
v -0.453473 0.198067 -0.189693
v -0.443631 0.198859 -0.208361
vn -0.0333 0.9983 0.0472
vn -0.0333 0.9983 0.0472
vn -0.0333 0.9983 0.0472
vn -0.0333 0.9983 0.0472
vn -0.0333 0.9983 0.0472
vn -0.0333 0.9983 0.0472
vn 0.0138 0.9998 0.0174
vn 0.0138 0.9998 0.0174
vn 0.0138 0.9998 0.0174
vn -0.0333 0.9983 0.0472
vn -0.0333 0.9983 0.0472
vn -0.0333 0.9983 0.0472
vn -0.0333 0.9983 0.0472
vn 0.0036 0.9988 0.0488
vn 0.0036 0.9988 0.0488
vn 0.0036 0.9988 0.0488
vn -0.0333 0.9983 0.0472
vn -0.0333 0.9983 0.0472
vn -0.0333 0.9983 0.0472
vn -0.0333 0.9983 0.0472
vn -0.0333 0.9983 0.0472
vn -0.0333 0.9983 0.0472
vn -0.0298 0.9984 0.0472
vn -0.0298 0.9984 0.0472
vn -0.0298 0.9984 0.0472
vn -0.0306 0.9985 0.0459
vn -0.0306 0.9985 0.0459
vn -0.0306 0.9985 0.0459
vn -0.0311 0.9992 0.026
vn -0.0311 0.9992 0.026
vn -0.0311 0.9992 0.026
vn 0.0333 0.9984 0.0459
vn 0.0333 0.9984 0.0459
vn 0.0333 0.9984 0.0459
vn 0.0353 0.9975 0.0609
vn 0.0353 0.9975 0.0609
vn 0.0353 0.9975 0.0609
vt 0.286218 0.48876
vt 0.288202 0.48876
vt 0.288202 0.485212
vt 0.286218 0.48876
vt 0.288202 0.485212
vt 0.286218 0.485212
vt 0.286218 0.485212
vt 0.280763 0.483457
vt 0.278208 0.485212
vt 0.286294 0.483457
vt 0.286218 0.485212
vt 0.288202 0.485212
vt 0.288202 0.483457
vt 0.286294 0.483457
vt 0.280763 0.483457
vt 0.286218 0.485212
vt 0.286294 0.483457
vt 0.288202 0.48033
vt 0.286294 0.48033
vt 0.286294 0.483457
vt 0.288202 0.483457
vt 0.288202 0.48033
vt 0.290948 0.483457
vt 0.288202 0.483457
vt 0.288202 0.485212
vt 0.288202 0.485212
vt 0.290948 0.485212
vt 0.290948 0.483457
vt 0.28557 0.474341
vt 0.280763 0.483457
vt 0.28782 0.474341
vt 0.278208 0.483801
vt 0.278208 0.485212
vt 0.280763 0.483457
vt 0.278208 0.483801
vt 0.280763 0.483457
vt 0.28557 0.474341
s off
f 1/1/1 2/2/2 3/3/3
f 4/4/4 5/5/5 6/6/6
f 7/7/7 8/8/8 9/9/9
f 10/10/10 11/11/11 12/12/12
f 10/10/10 12/12/12 13/13/13
f 14/14/14 15/15/15 16/16/16
f 17/17/17 18/18/18 19/19/19
f 20/20/20 21/21/21 22/22/22
f 23/23/23 24/24/24 25/25/25
f 26/26/26 27/27/27 28/28/28
f 29/29/29 30/30/30 31/31/31
f 32/32/32 33/33/33 34/34/34
f 35/35/35 36/36/36 37/37/37
