v -0.309991 0.198069 -0.187433
v -0.314314 0.197923 -0.187387
v -0.310967 0.197854 -0.183575
v -0.309991 0.198069 -0.187433
v -0.310926 0.198247 -0.191857
v -0.315068 0.198047 -0.190538
v -0.314314 0.197923 -0.187387
v -0.314314 0.197923 -0.187387
v -0.314998 0.19778 -0.184853
v -0.310967 0.197854 -0.183575
v -0.314998 0.19778 -0.184853
v -0.317845 0.19758 -0.182623
v -0.313378 0.197637 -0.18067
v -0.310967 0.197854 -0.183575
v -0.314998 0.19778 -0.184853
v -0.313378 0.197637 -0.18067
v -0.317845 0.19758 -0.182623
v -0.31834 0.197374 -0.178622
v -0.313378 0.197637 -0.18067
v -0.324405 0.197687 -0.182473
v -0.324104 0.197503 -0.178687
v -0.31834 0.197374 -0.178622
v -0.324405 0.197687 -0.182473
v -0.31834 0.197374 -0.178622
v -0.317845 0.19758 -0.182623
v -0.330157 0.198003 -0.18518
v -0.328124 0.197684 -0.179697
v -0.324405 0.197687 -0.182473
v -0.324405 0.197687 -0.182473
v -0.328124 0.197684 -0.179697
v -0.324104 0.197503 -0.178687
v -0.330157 0.198003 -0.18518
v -0.332141 0.197921 -0.181941
v -0.328124 0.197684 -0.179697
v -0.315068 0.198047 -0.190538
v -0.313644 0.19829 -0.194675
v -0.317584 0.198041 -0.192197
v -0.315068 0.198047 -0.190538
v -0.310926 0.198247 -0.191857
v -0.313644 0.19829 -0.194675
v -0.317327 0.198236 -0.196133
v -0.317584 0.198041 -0.192197
v -0.313644 0.19829 -0.194675
v -0.321123 0.19808 -0.192878
v -0.317327 0.198236 -0.196133
v -0.32559 0.198382 -0.196606
v -0.317327 0.198236 -0.196133
v -0.321123 0.19808 -0.192878
v -0.317584 0.198041 -0.192197
v -0.32998 0.198352 -0.192896
v -0.321123 0.19808 -0.192878
v -0.32559 0.198382 -0.196606
v -0.328418 0.199017 -0.208361
v -0.32998 0.198352 -0.192896
v -0.324825 0.198742 -0.20469
v -0.32998 0.198352 -0.192896
v -0.32559 0.198382 -0.196606
v -0.324825 0.198742 -0.20469
v -0.328418 0.199017 -0.208361
v -0.324825 0.198742 -0.20469
v -0.311781 0.198822 -0.20469
v -0.311781 0.198822 -0.20469
v -0.311781 0.198991 -0.208361
v -0.328418 0.199017 -0.208361
vn -0.0333 0.9983 0.0472
vn -0.0333 0.9983 0.0472
vn -0.0333 0.9983 0.0472
vn -0.0333 0.9983 0.0472
vn -0.0333 0.9983 0.0472
vn -0.0333 0.9983 0.0472
vn -0.0333 0.9983 0.0472
vn -0.0333 0.9983 0.0472
vn -0.0333 0.9983 0.0472
vn -0.0333 0.9983 0.0472
vn -0.0333 0.9983 0.0472
vn -0.0333 0.9983 0.0472
vn -0.0333 0.9983 0.0472
vn -0.0333 0.9983 0.0472
vn -0.0333 0.9983 0.0472
vn -0.0333 0.9983 0.0472
vn -0.0333 0.9983 0.0472
vn -0.0333 0.9983 0.0472
vn -0.0333 0.9983 0.0472
vn 0.0218 0.9987 0.0468
vn 0.0218 0.9987 0.0468
vn 0.0218 0.9987 0.0468
vn 0.0175 0.9984 0.0535
vn 0.0175 0.9984 0.0535
vn 0.0175 0.9984 0.0535
vn 0.0333 0.9984 0.0459
vn 0.0333 0.9984 0.0459
vn 0.0333 0.9984 0.0459
vn 0.0333 0.9984 0.0459
vn 0.0333 0.9984 0.0459
vn 0.0333 0.9984 0.0459
vn 0.0333 0.9984 0.0459
vn 0.0333 0.9984 0.0459
vn 0.0333 0.9984 0.0459
vn -0.0333 0.9983 0.0472
vn -0.0333 0.9983 0.0472
vn -0.0333 0.9983 0.0472
vn -0.0333 0.9983 0.0472
vn -0.0333 0.9983 0.0472
vn -0.0333 0.9983 0.0472
vn -0.0333 0.9983 0.0472
vn -0.0333 0.9983 0.0472
vn -0.0333 0.9983 0.0472
vn 0.0139 0.9978 0.0642
vn 0.0139 0.9978 0.0642
vn 0.0139 0.9978 0.0642
vn 0.0013 0.9988 0.0495
vn 0.0013 0.9988 0.0495
vn 0.0013 0.9988 0.0495
vn 0.0307 0.9986 0.0441
vn 0.0307 0.9986 0.0441
vn 0.0307 0.9986 0.0441
vn 0.0295 0.9985 0.0459
vn 0.0295 0.9985 0.0459
vn 0.0295 0.9985 0.0459
vn 0.0337 0.9983 0.0477
vn 0.0337 0.9983 0.0477
vn 0.0337 0.9983 0.0477
vn -0.0061 0.9967 0.0805
vn -0.0061 0.9967 0.0805
vn -0.0061 0.9967 0.0805
vn 0.0016 0.9989 0.0459
vn 0.0016 0.9989 0.0459
vn 0.0016 0.9989 0.0459
vt 0.350832 0.484561
vt 0.348721 0.484583
vt 0.350355 0.486445
vt 0.350832 0.484561
vt 0.350375 0.4824
vt 0.348353 0.483045
vt 0.348721 0.484583
vt 0.348721 0.484583
vt 0.348387 0.485821
vt 0.350355 0.486445
vt 0.348387 0.485821
vt 0.346997 0.48691
vt 0.349178 0.487864
vt 0.350355 0.486445
vt 0.348387 0.485821
vt 0.349178 0.487864
vt 0.346997 0.48691
vt 0.346755 0.488864
vt 0.349178 0.487864
vt 0.343793 0.486983
vt 0.34394 0.488832
vt 0.346755 0.488864
vt 0.343793 0.486983
vt 0.346755 0.488864
vt 0.346997 0.48691
vt 0.340984 0.485662
vt 0.341977 0.488339
vt 0.343793 0.486983
vt 0.343793 0.486983
vt 0.341977 0.488339
vt 0.34394 0.488832
vt 0.340984 0.485662
vt 0.340015 0.487243
vt 0.341977 0.488339
vt 0.348353 0.483045
vt 0.349048 0.481024
vt 0.347124 0.482235
vt 0.348353 0.483045
vt 0.350375 0.4824
vt 0.349048 0.481024
vt 0.34725 0.480313
vt 0.347124 0.482235
vt 0.349048 0.481024
vt 0.345396 0.481902
vt 0.34725 0.480313
vt 0.343215 0.480081
vt 0.34725 0.480313
vt 0.345396 0.481902
vt 0.347124 0.482235
vt 0.34107 0.481893
vt 0.345396 0.481902
vt 0.343215 0.480081
vt 0.341833 0.474341
vt 0.34107 0.481893
vt 0.343588 0.476134
vt 0.34107 0.481893
vt 0.343215 0.480081
vt 0.343588 0.476134
vt 0.341833 0.474341
vt 0.343588 0.476134
vt 0.349958 0.476134
vt 0.349958 0.476134
vt 0.349958 0.474341
vt 0.341833 0.474341
s off
f 1/1/1 2/2/2 3/3/3
f 4/4/4 5/5/5 6/6/6
f 4/4/4 6/6/6 7/7/7
f 8/8/8 9/9/9 10/10/10
f 11/11/11 12/12/12 13/13/13
f 14/14/14 15/15/15 16/16/16
f 17/17/17 18/18/18 19/19/19
f 20/20/20 21/21/21 22/22/22
f 23/23/23 24/24/24 25/25/25
f 26/26/26 27/27/27 28/28/28
f 29/29/29 30/30/30 31/31/31
f 32/32/32 33/33/33 34/34/34
f 35/35/35 36/36/36 37/37/37
f 38/38/38 39/39/39 40/40/40
f 41/41/41 42/42/42 43/43/43
f 44/44/44 45/45/45 46/46/46
f 47/47/47 48/48/48 49/49/49
f 50/50/50 51/51/51 52/52/52
f 53/53/53 54/54/54 55/55/55
f 56/56/56 57/57/57 58/58/58
f 59/59/59 60/60/60 61/61/61
f 62/62/62 63/63/63 64/64/64
