v -0.190758 0.197369 -0.178549
v -0.188544 0.197616 -0.182208
v -0.191301 0.197507 -0.181855
v -0.191301 0.197507 -0.181855
v -0.195031 0.197636 -0.182566
v -0.196246 0.197531 -0.179458
v -0.190758 0.197369 -0.178549
v -0.190758 0.197369 -0.178549
v -0.187155 0.197515 -0.179095
v -0.188544 0.197616 -0.182208
v -0.185705 0.197797 -0.184043
v -0.188544 0.197616 -0.182208
v -0.187155 0.197515 -0.179095
v -0.18423 0.197676 -0.180436
v -0.185705 0.197797 -0.184043
v -0.18423 0.197676 -0.180436
v -0.181924 0.197862 -0.182742
v -0.181924 0.197862 -0.182742
v -0.180629 0.198047 -0.185758
v -0.184582 0.197959 -0.186675
v -0.185705 0.197797 -0.184043
v -0.180547 0.198219 -0.189378
v -0.184885 0.19811 -0.190079
v -0.184582 0.197959 -0.186675
v -0.184582 0.197959 -0.186675
v -0.180629 0.198047 -0.185758
v -0.180547 0.198219 -0.189378
v -0.184885 0.19811 -0.190079
v -0.180547 0.198219 -0.189378
v -0.182021 0.198348 -0.193094
v -0.187411 0.198145 -0.192612
v -0.182021 0.198348 -0.193094
v -0.185035 0.198364 -0.195561
v -0.184885 0.19811 -0.190079
v -0.182021 0.198348 -0.193094
v -0.187411 0.198145 -0.192612
v -0.190786 0.19807 -0.193408
v -0.187411 0.198145 -0.192612
v -0.189369 0.198282 -0.196879
v -0.187411 0.198145 -0.192612
v -0.185035 0.198364 -0.195561
v -0.189369 0.198282 -0.196879
v -0.190786 0.19807 -0.193408
v -0.189369 0.198282 -0.196879
v -0.194592 0.198272 -0.196281
v -0.194592 0.198272 -0.196281
v -0.197458 0.198281 -0.194775
v -0.196271 0.198104 -0.191733
v -0.193533 0.19809 -0.193073
v -0.193533 0.19809 -0.193073
v -0.190786 0.19807 -0.193408
v -0.194592 0.198272 -0.196281
v -0.196271 0.198104 -0.191733
v -0.19906 0.198252 -0.193094
v -0.198094 0.198012 -0.188568
v -0.19906 0.198252 -0.193094
v -0.196271 0.198104 -0.191733
v -0.197458 0.198281 -0.194775
v -0.203348 0.198392 -0.193035
v -0.19906 0.198252 -0.193094
v -0.198999 0.19843 -0.197001
v -0.203348 0.198392 -0.193035
v -0.198094 0.198012 -0.188568
v -0.19906 0.198252 -0.193094
v -0.203348 0.198392 -0.193035
v -0.198999 0.19843 -0.197001
v -0.202627 0.198645 -0.199042
v -0.202661 0.198118 -0.187554
v -0.198094 0.198012 -0.188568
v -0.203348 0.198392 -0.193035
v -0.200606 0.19784 -0.183005
v -0.198094 0.198012 -0.188568
v -0.202661 0.198118 -0.187554
v -0.196246 0.197531 -0.179458
v -0.195031 0.197636 -0.182566
v -0.200606 0.19784 -0.183005
v -0.200606 0.19784 -0.183005
v -0.197577 0.197839 -0.185191
v -0.198094 0.198012 -0.188568
v -0.200606 0.19784 -0.183005
v -0.195031 0.197636 -0.182566
v -0.197577 0.197839 -0.185191
v -0.200208 0.198797 -0.204041
v -0.202627 0.198645 -0.199042
v -0.198999 0.19843 -0.197001
v -0.196585 0.198621 -0.202478
v -0.196585 0.198621 -0.202478
v -0.196411 0.198839 -0.207203
v -0.200208 0.198797 -0.204041
v -0.192149 0.198615 -0.204988
v -0.196411 0.198839 -0.207203
v -0.196585 0.198621 -0.202478
v -0.187011 0.198752 -0.205153
v -0.187972 0.198895 -0.208858
v -0.192149 0.198615 -0.204988
v -0.192575 0.198794 -0.208534
v -0.192149 0.198615 -0.204988
v -0.187972 0.198895 -0.208858
v -0.192149 0.198615 -0.204988
v -0.192575 0.198794 -0.208534
v -0.196411 0.198839 -0.207203
v -0.187011 0.198752 -0.205153
v -0.183713 0.198987 -0.20803
v -0.187972 0.198895 -0.208858
v -0.183628 0.198801 -0.203932
v -0.181959 0.198995 -0.207115
v -0.183713 0.198987 -0.20803
v -0.183713 0.198987 -0.20803
v -0.187011 0.198752 -0.205153
v -0.183628 0.198801 -0.203932
vn -0.0333 0.9983 0.0472
vn -0.0333 0.9983 0.0472
vn -0.0333 0.9983 0.0472
vn 0.0244 0.9989 0.0404
vn 0.0244 0.9989 0.0404
vn 0.0244 0.9989 0.0404
vn 0.0244 0.9989 0.0404
vn -0.0333 0.9983 0.0472
vn -0.0333 0.9983 0.0472
vn -0.0333 0.9983 0.0472
vn -0.0333 0.9983 0.0472
vn -0.0333 0.9983 0.0472
vn -0.0333 0.9983 0.0472
vn -0.0333 0.9983 0.0472
vn -0.0333 0.9983 0.0472
vn -0.0333 0.9983 0.0472
vn -0.0333 0.9983 0.0472
vn -0.0333 0.9983 0.0472
vn -0.0333 0.9983 0.0472
vn -0.0333 0.9983 0.0472
vn -0.0333 0.9983 0.0472
vn -0.0327 0.9984 0.0471
vn -0.0327 0.9984 0.0471
vn -0.0327 0.9984 0.0471
vn -0.0331 0.9984 0.0465
vn -0.0331 0.9984 0.0465
vn -0.0331 0.9984 0.0465
vn -0.0328 0.9983 0.0477
vn -0.0328 0.9983 0.0477
vn -0.0328 0.9983 0.0477
vn -0.0333 0.9983 0.0472
vn -0.0333 0.9983 0.0472
vn -0.0333 0.9983 0.0472
vn -0.0333 0.9983 0.0472
vn -0.0333 0.9983 0.0472
vn -0.0333 0.9983 0.0472
vn -0.0333 0.9983 0.0472
vn -0.0333 0.9983 0.0472
vn -0.0333 0.9983 0.0472
vn -0.0333 0.9983 0.0472
vn -0.0333 0.9983 0.0472
vn -0.0333 0.9983 0.0472
vn 0.0053 0.998 0.0629
vn 0.0053 0.998 0.0629
vn 0.0053 0.998 0.0629
vn 0.0281 0.9985 0.0472
vn 0.0281 0.9985 0.0472
vn 0.0281 0.9985 0.0472
vn 0.0281 0.9985 0.0472
vn 0.0136 0.9986 0.052
vn 0.0136 0.9986 0.052
vn 0.0136 0.9986 0.052
vn 0.0303 0.9985 0.0466
vn 0.0303 0.9985 0.0466
vn 0.0303 0.9985 0.0466
vn 0.0305 0.9985 0.0463
vn 0.0305 0.9985 0.0463
vn 0.0305 0.9985 0.0463
vn 0.0333 0.9984 0.0459
vn 0.0333 0.9984 0.0459
vn 0.0333 0.9984 0.0459
vn 0.0333 0.9984 0.0459
vn 0.0333 0.9984 0.0459
vn 0.0333 0.9984 0.0459
vn 0.0333 0.9984 0.0459
vn 0.0333 0.9984 0.0459
vn 0.0333 0.9984 0.0459
vn 0.0333 0.9984 0.0459
vn 0.0333 0.9984 0.0459
vn 0.0333 0.9984 0.0459
vn 0.0333 0.9984 0.0459
vn 0.0333 0.9984 0.0459
vn 0.0333 0.9984 0.0459
vn 0.0329 0.9984 0.0465
vn 0.0329 0.9984 0.0465
vn 0.0329 0.9984 0.0465
vn 0.0333 0.9984 0.0459
vn 0.0333 0.9984 0.0459
vn 0.0333 0.9984 0.0459
vn 0.033 0.9984 0.0454
vn 0.033 0.9984 0.0454
vn 0.033 0.9984 0.0454
vn 0.0306 0.9984 0.0468
vn 0.0306 0.9984 0.0468
vn 0.0306 0.9984 0.0468
vn 0.0306 0.9984 0.0468
vn 0.0281 0.9985 0.0472
vn 0.0281 0.9985 0.0472
vn 0.0281 0.9985 0.0472
vn 0.0281 0.9985 0.0472
vn 0.0281 0.9985 0.0472
vn 0.0281 0.9985 0.0472
vn -0.0252 0.9987 0.0451
vn -0.0252 0.9987 0.0451
vn -0.0252 0.9987 0.0451
vn -0.0181 0.9984 0.0528
vn -0.0181 0.9984 0.0528
vn -0.0181 0.9984 0.0528
vn 0.0281 0.9985 0.0472
vn 0.0281 0.9985 0.0472
vn 0.0281 0.9985 0.0472
vn -0.0308 0.9984 0.0466
vn -0.0308 0.9984 0.0466
vn -0.0308 0.9984 0.0466
vn -0.0281 0.9986 0.0459
vn -0.0281 0.9986 0.0459
vn -0.0281 0.9986 0.0459
vn -0.0313 0.9985 0.046
vn -0.0313 0.9985 0.046
vn -0.0313 0.9985 0.046
vt 0.409059 0.488899
vt 0.41014 0.487113
vt 0.408794 0.487285
vt 0.408794 0.487285
vt 0.406972 0.486938
vt 0.406379 0.488456
vt 0.409059 0.488899
vt 0.409059 0.488899
vt 0.410818 0.488633
vt 0.41014 0.487113
vt 0.411526 0.486217
vt 0.41014 0.487113
vt 0.410818 0.488633
vt 0.412247 0.487978
vt 0.411526 0.486217
vt 0.412247 0.487978
vt 0.413373 0.486852
vt 0.413373 0.486852
vt 0.414005 0.485379
vt 0.412075 0.484931
vt 0.411526 0.486217
vt 0.414045 0.483611
vt 0.411927 0.483269
vt 0.412075 0.484931
vt 0.412075 0.484931
vt 0.414005 0.485379
vt 0.414045 0.483611
vt 0.411927 0.483269
vt 0.414045 0.483611
vt 0.413325 0.481797
vt 0.410693 0.482032
vt 0.413325 0.481797
vt 0.411854 0.480592
vt 0.411927 0.483269
vt 0.413325 0.481797
vt 0.410693 0.482032
vt 0.409045 0.481643
vt 0.410693 0.482032
vt 0.409737 0.479948
vt 0.410693 0.482032
vt 0.411854 0.480592
vt 0.409737 0.479948
vt 0.409045 0.481643
vt 0.409737 0.479948
vt 0.407187 0.48024
vt 0.407187 0.48024
vt 0.405787 0.480976
vt 0.406366 0.482461
vt 0.407704 0.481807
vt 0.407704 0.481807
vt 0.409045 0.481643
vt 0.407187 0.48024
vt 0.406366 0.482461
vt 0.405005 0.481796
vt 0.405476 0.484007
vt 0.405005 0.481796
vt 0.406366 0.482461
vt 0.405787 0.480976
vt 0.402911 0.481825
vt 0.405005 0.481796
vt 0.405034 0.479889
vt 0.402911 0.481825
vt 0.405476 0.484007
vt 0.405005 0.481796
vt 0.402911 0.481825
vt 0.405034 0.479889
vt 0.403262 0.478892
vt 0.403246 0.484502
vt 0.405476 0.484007
vt 0.402911 0.481825
vt 0.404249 0.486724
vt 0.405476 0.484007
vt 0.403246 0.484502
vt 0.406379 0.488456
vt 0.406972 0.486938
vt 0.404249 0.486724
vt 0.404249 0.486724
vt 0.405729 0.485656
vt 0.405476 0.484007
vt 0.404249 0.486724
vt 0.406972 0.486938
vt 0.405729 0.485656
vt 0.404444 0.476451
vt 0.403262 0.478892
vt 0.405034 0.479889
vt 0.406213 0.477214
vt 0.406213 0.477214
vt 0.406298 0.474906
vt 0.404444 0.476451
vt 0.408379 0.475988
vt 0.406298 0.474906
vt 0.406213 0.477214
vt 0.410888 0.475908
vt 0.410419 0.474099
vt 0.408379 0.475988
vt 0.408171 0.474257
vt 0.408379 0.475988
vt 0.410419 0.474099
vt 0.408379 0.475988
vt 0.408171 0.474257
vt 0.406298 0.474906
vt 0.410888 0.475908
vt 0.412499 0.474503
vt 0.410419 0.474099
vt 0.41254 0.476504
vt 0.413356 0.474949
vt 0.412499 0.474503
vt 0.412499 0.474503
vt 0.410888 0.475908
vt 0.41254 0.476504
s off
f 1/1/1 2/2/2 3/3/3
f 4/4/4 5/5/5 6/6/6
f 4/4/4 6/6/6 7/7/7
f 8/8/8 9/9/9 10/10/10
f 11/11/11 12/12/12 13/13/13
f 11/11/11 13/13/13 14/14/14
f 15/15/15 16/16/16 17/17/17
f 18/18/18 19/19/19 20/20/20
f 18/18/18 20/20/20 21/21/21
f 22/22/22 23/23/23 24/24/24
f 25/25/25 26/26/26 27/27/27
f 28/28/28 29/29/29 30/30/30
f 31/31/31 32/32/32 33/33/33
f 34/34/34 35/35/35 36/36/36
f 37/37/37 38/38/38 39/39/39
f 40/40/40 41/41/41 42/42/42
f 43/43/43 44/44/44 45/45/45
f 46/46/46 47/47/47 48/48/48
f 46/46/46 48/48/48 49/49/49
f 50/50/50 51/51/51 52/52/52
f 53/53/53 54/54/54 55/55/55
f 56/56/56 57/57/57 58/58/58
f 59/59/59 60/60/60 61/61/61
f 62/62/62 63/63/63 64/64/64
f 65/65/65 66/66/66 67/67/67
f 68/68/68 69/69/69 70/70/70
f 71/71/71 72/72/72 73/73/73
f 74/74/74 75/75/75 76/76/76
f 77/77/77 78/78/78 79/79/79
f 80/80/80 81/81/81 82/82/82
f 83/83/83 84/84/84 85/85/85
f 83/83/83 85/85/85 86/86/86
f 87/87/87 88/88/88 89/89/89
f 90/90/90 91/91/91 92/92/92
f 93/93/93 94/94/94 95/95/95
f 96/96/96 97/97/97 98/98/98
f 99/99/99 100/100/100 101/101/101
f 102/102/102 103/103/103 104/104/104
f 105/105/105 106/106/106 107/107/107
f 108/108/108 109/109/109 110/110/110
