v -0.076667 0.199129 -0.208361
v -0.072606 0.198828 -0.20469
v -0.054406 0.19905 -0.208361
v -0.059171 0.198736 -0.20469
v -0.054406 0.198917 -0.205471
v -0.054406 0.19905 -0.208361
v -0.059171 0.198736 -0.20469
v -0.054406 0.19905 -0.208361
v -0.072606 0.198828 -0.20469
v -0.070809 0.197576 -0.178836
v -0.066357 0.19743 -0.178836
v -0.059171 0.198736 -0.20469
v -0.059171 0.198736 -0.20469
v -0.066357 0.19743 -0.178836
v -0.054406 0.198917 -0.205471
v -0.072606 0.198828 -0.20469
v -0.076667 0.198716 -0.199379
v -0.072606 0.198581 -0.199379
v -0.076667 0.198716 -0.199379
v -0.072606 0.198828 -0.20469
v -0.076667 0.199129 -0.208361
vn 0.0036 0.997 0.0778
vn 0.0036 0.997 0.0778
vn 0.0036 0.997 0.0778
vn -0.0303 0.9985 0.0459
vn -0.0303 0.9985 0.0459
vn -0.0303 0.9985 0.0459
vn 0.0068 0.9956 0.0938
vn 0.0068 0.9956 0.0938
vn 0.0068 0.9956 0.0938
vn 0.0327 0.9977 0.0595
vn 0.0327 0.9977 0.0595
vn 0.0327 0.9977 0.0595
vn -0.0309 0.9986 0.0418
vn -0.0309 0.9986 0.0418
vn -0.0309 0.9986 0.0418
vn 0.0333 0.9984 0.0465
vn 0.0333 0.9984 0.0465
vn 0.0333 0.9984 0.0465
vn 0.0325 0.9984 0.0459
vn 0.0325 0.9984 0.0459
vn 0.0325 0.9984 0.0459
vt 0.464774 0.474341
vt 0.466758 0.476134
vt 0.475645 0.474341
vt 0.473318 0.476134
vt 0.475645 0.475752
vt 0.475645 0.474341
vt 0.473318 0.476134
vt 0.475645 0.474341
vt 0.466758 0.476134
vt 0.467635 0.48876
vt 0.469809 0.48876
vt 0.473318 0.476134
vt 0.473318 0.476134
vt 0.469809 0.48876
vt 0.475645 0.475752
vt 0.466758 0.476134
vt 0.464774 0.478727
vt 0.466758 0.478727
vt 0.464774 0.478727
vt 0.466758 0.476134
vt 0.464774 0.474341
s off
f 1/1/1 2/2/2 3/3/3
f 4/4/4 5/5/5 6/6/6
f 7/7/7 8/8/8 9/9/9
f 10/10/10 11/11/11 12/12/12
f 13/13/13 14/14/14 15/15/15
f 16/16/16 17/17/17 18/18/18
f 19/19/19 20/20/20 21/21/21
