v 0.055677 0.198068 -0.188686
v 0.057257 0.198121 -0.190991
v 0.052904 0.198318 -0.19211
v 0.060453 0.198092 -0.192344
v 0.056419 0.198306 -0.194403
v 0.057257 0.198121 -0.190991
v 0.057257 0.198121 -0.190991
v 0.056419 0.198306 -0.194403
v 0.052904 0.198318 -0.19211
v 0.056419 0.198306 -0.194403
v 0.060847 0.198251 -0.195926
v 0.058082 0.198385 -0.197124
v 0.058082 0.198385 -0.197124
v 0.054057 0.198457 -0.195972
v 0.056419 0.198306 -0.194403
v 0.060453 0.198092 -0.192344
v 0.060847 0.198251 -0.195926
v 0.056419 0.198306 -0.194403
v 0.065061 0.198043 -0.192425
v 0.064891 0.198199 -0.195856
v 0.060847 0.198251 -0.195926
v 0.060453 0.198092 -0.192344
v 0.067831 0.198346 -0.196894
v 0.064891 0.198199 -0.195856
v 0.065061 0.198043 -0.192425
v 0.065061 0.198043 -0.192425
v 0.068464 0.1981 -0.191241
v 0.069644 0.198289 -0.194405
v 0.067831 0.198346 -0.196894
v 0.070429 0.19805 -0.188797
v 0.073163 0.198298 -0.19211
v 0.068464 0.1981 -0.191241
v 0.068464 0.1981 -0.191241
v 0.073163 0.198298 -0.19211
v 0.069644 0.198289 -0.194405
v 0.0711 0.198377 -0.195239
v 0.067831 0.198346 -0.196894
v 0.069644 0.198289 -0.194405
v 0.073012 0.198539 -0.197402
v 0.069237 0.19847 -0.198506
v 0.0711 0.198377 -0.195239
v 0.069237 0.19847 -0.198506
v 0.067831 0.198346 -0.196894
v 0.0711 0.198377 -0.195239
v 0.069699 0.198588 -0.200692
v 0.069237 0.19847 -0.198506
v 0.073012 0.198539 -0.197402
v 0.068884 0.198672 -0.203031
v 0.069699 0.198588 -0.200692
v 0.072998 0.198851 -0.204183
v 0.073744 0.198704 -0.20053
v 0.069699 0.198588 -0.200692
v 0.073012 0.198539 -0.197402
v 0.069699 0.198588 -0.200692
v 0.073744 0.198704 -0.20053
v 0.072998 0.198851 -0.204183
v 0.068884 0.198672 -0.203031
v 0.072998 0.198851 -0.204183
v 0.069817 0.198905 -0.207298
v 0.066656 0.198677 -0.204721
v 0.069817 0.198905 -0.207298
v 0.065371 0.198816 -0.208571
v 0.068884 0.198672 -0.203031
v 0.069817 0.198905 -0.207298
v 0.066656 0.198677 -0.204721
v 0.066656 0.198677 -0.204721
v 0.065371 0.198816 -0.208571
v 0.062792 0.198638 -0.205283
v 0.062792 0.198638 -0.205283
v 0.059847 0.198874 -0.208513
v 0.059614 0.198701 -0.204713
v 0.062792 0.198638 -0.205283
v 0.065371 0.198816 -0.208571
v 0.059847 0.198874 -0.208513
v 0.059614 0.198701 -0.204713
v 0.059847 0.198874 -0.208513
v 0.055612 0.198915 -0.206861
v 0.057422 0.198689 -0.203165
v 0.055612 0.198915 -0.206861
v 0.053457 0.198879 -0.204725
v 0.057422 0.198689 -0.203165
v 0.059614 0.198701 -0.204713
v 0.055612 0.198915 -0.206861
v 0.052443 0.198794 -0.202133
v 0.056656 0.198626 -0.201375
v 0.057422 0.198689 -0.203165
v 0.053457 0.198879 -0.204725
v 0.052443 0.198794 -0.202133
v 0.056679 0.198525 -0.199243
v 0.056656 0.198626 -0.201375
v 0.052443 0.198794 -0.202133
v 0.052507 0.198645 -0.198945
v 0.056679 0.198525 -0.199243
v 0.056679 0.198525 -0.199243
v 0.052507 0.198645 -0.198945
v 0.054057 0.198457 -0.195972
v 0.056679 0.198525 -0.199243
v 0.054057 0.198457 -0.195972
v 0.058082 0.198385 -0.197124
v 0.070429 0.19805 -0.188797
v 0.074715 0.198187 -0.188692
v 0.073163 0.198298 -0.19211
v 0.074489 0.197981 -0.184473
v 0.074715 0.198187 -0.188692
v 0.070429 0.19805 -0.188797
v 0.070467 0.197923 -0.186078
v 0.074489 0.197981 -0.184473
v 0.069167 0.197768 -0.183722
v 0.071926 0.197728 -0.180914
v 0.070467 0.197923 -0.186078
v 0.069167 0.197768 -0.183722
v 0.074489 0.197981 -0.184473
v 0.069167 0.197768 -0.183722
v 0.065515 0.197568 -0.182057
v 0.06825 0.19752 -0.179124
v 0.071926 0.197728 -0.180914
v 0.069167 0.197768 -0.183722
v 0.06825 0.19752 -0.179124
v 0.065515 0.197568 -0.182057
v 0.06379 0.19734 -0.17842
v 0.06825 0.19752 -0.179124
v 0.059819 0.197627 -0.182107
v 0.059007 0.197501 -0.178787
v 0.06379 0.19734 -0.17842
v 0.059819 0.197627 -0.182107
v 0.06379 0.19734 -0.17842
v 0.065515 0.197568 -0.182057
v 0.056491 0.197838 -0.184274
v 0.054611 0.19773 -0.180572
v 0.059819 0.197627 -0.182107
v 0.059819 0.197627 -0.182107
v 0.054611 0.19773 -0.180572
v 0.059007 0.197501 -0.178787
v 0.056491 0.197838 -0.184274
v 0.051627 0.198 -0.184271
v 0.054611 0.19773 -0.180572
v 0.055648 0.197958 -0.186275
v 0.051627 0.198 -0.184271
v 0.056491 0.197838 -0.184274
v 0.051627 0.198 -0.184271
v 0.055648 0.197958 -0.186275
v 0.055677 0.198068 -0.188686
v 0.051352 0.198212 -0.188692
v 0.051352 0.198212 -0.188692
v 0.055677 0.198068 -0.188686
v 0.052904 0.198318 -0.19211
vn 0.0333 0.9984 0.0459
vn 0.0333 0.9984 0.0459
vn 0.0333 0.9984 0.0459
vn 0.0288 0.9985 0.047
vn 0.0288 0.9985 0.047
vn 0.0288 0.9985 0.047
vn 0.0333 0.9984 0.0459
vn 0.0333 0.9984 0.0459
vn 0.0333 0.9984 0.0459
vn 0.0284 0.9985 0.0464
vn 0.0284 0.9985 0.0464
vn 0.0284 0.9985 0.0464
vn 0.0317 0.9983 0.0484
vn 0.0317 0.9983 0.0484
vn 0.0317 0.9983 0.0484
vn 0.0287 0.9985 0.0473
vn 0.0287 0.9985 0.0473
vn 0.0287 0.9985 0.0473
vn 0.0117 0.9989 0.0452
vn 0.0117 0.9989 0.0452
vn 0.0117 0.9989 0.0452
vn 0.0117 0.9989 0.0452
vn -0.0333 0.9983 0.0472
vn -0.0333 0.9983 0.0472
vn -0.0333 0.9983 0.0472
vn -0.0333 0.9983 0.0472
vn -0.0333 0.9983 0.0472
vn -0.0333 0.9983 0.0472
vn -0.0333 0.9983 0.0472
vn -0.0333 0.9983 0.0472
vn -0.0333 0.9983 0.0472
vn -0.0333 0.9983 0.0472
vn -0.0333 0.9983 0.0472
vn -0.0333 0.9983 0.0472
vn -0.0333 0.9983 0.0472
vn -0.0333 0.9983 0.0472
vn -0.0333 0.9983 0.0472
vn -0.0333 0.9983 0.0472
vn -0.0321 0.9984 0.0465
vn -0.0321 0.9984 0.0465
vn -0.0321 0.9984 0.0465
vn -0.0333 0.9983 0.0472
vn -0.0333 0.9983 0.0472
vn -0.0333 0.9983 0.0472
vn -0.0323 0.9984 0.0474
vn -0.0323 0.9984 0.0474
vn -0.0323 0.9984 0.0474
vn -0.0305 0.9985 0.0462
vn -0.0305 0.9985 0.0462
vn -0.0305 0.9985 0.0462
vn -0.0303 0.9985 0.0454
vn -0.0303 0.9985 0.0454
vn -0.0303 0.9985 0.0454
vn -0.0304 0.9985 0.0464
vn -0.0304 0.9985 0.0464
vn -0.0304 0.9985 0.0464
vn -0.03 0.9984 0.0479
vn -0.03 0.9984 0.0479
vn -0.03 0.9984 0.0479
vn -0.0333 0.9983 0.0472
vn -0.0333 0.9983 0.0472
vn -0.0333 0.9983 0.0472
vn -0.0333 0.9983 0.0472
vn -0.0333 0.9983 0.0472
vn -0.0333 0.9983 0.0472
vn -0.0161 0.999 0.0415
vn -0.0161 0.999 0.0415
vn -0.0161 0.999 0.0415
vn 0.0281 0.9985 0.0472
vn 0.0281 0.9985 0.0472
vn 0.0281 0.9985 0.0472
vn 0.011 0.998 0.0627
vn 0.011 0.998 0.0627
vn 0.011 0.998 0.0627
vn 0.0281 0.9985 0.0472
vn 0.0281 0.9985 0.0472
vn 0.0281 0.9985 0.0472
vn 0.0296 0.9985 0.0465
vn 0.0296 0.9985 0.0465
vn 0.0296 0.9985 0.0465
vn 0.0281 0.9985 0.0472
vn 0.0281 0.9985 0.0472
vn 0.0281 0.9985 0.0472
vn 0.0306 0.9985 0.0463
vn 0.0306 0.9985 0.0463
vn 0.0306 0.9985 0.0463
vn 0.0306 0.9985 0.0463
vn 0.0313 0.9984 0.0472
vn 0.0313 0.9984 0.0472
vn 0.0313 0.9984 0.0472
vn 0.0321 0.9984 0.0459
vn 0.0321 0.9984 0.0459
vn 0.0321 0.9984 0.0459
vn 0.0322 0.9984 0.0465
vn 0.0322 0.9984 0.0465
vn 0.0322 0.9984 0.0465
vn 0.0308 0.9985 0.0454
vn 0.0308 0.9985 0.0454
vn 0.0308 0.9985 0.0454
vn -0.033 0.9983 0.0475
vn -0.033 0.9983 0.0475
vn -0.033 0.9983 0.0475
vn -0.0331 0.9983 0.047
vn -0.0331 0.9983 0.047
vn -0.0331 0.9983 0.047
vn -0.0331 0.9983 0.047
vn -0.0333 0.9983 0.0472
vn -0.0333 0.9983 0.0472
vn -0.0333 0.9983 0.0472
vn -0.0333 0.9983 0.0472
vn -0.0333 0.9983 0.0472
vn -0.0333 0.9983 0.0472
vn -0.0333 0.9983 0.0472
vn -0.0333 0.9983 0.0472
vn -0.0333 0.9983 0.0472
vn -0.0333 0.9983 0.0472
vn -0.0333 0.9983 0.0472
vn -0.0333 0.9983 0.0472
vn -0.0329 0.9984 0.0468
vn -0.0329 0.9984 0.0468
vn -0.0329 0.9984 0.0468
vn 0.0302 0.9985 0.0452
vn 0.0302 0.9985 0.0452
vn 0.0302 0.9985 0.0452
vn 0.0098 0.9977 0.0671
vn 0.0098 0.9977 0.0671
vn 0.0098 0.9977 0.0671
vn 0.0333 0.9984 0.0459
vn 0.0333 0.9984 0.0459
vn 0.0333 0.9984 0.0459
vn 0.0333 0.9984 0.0459
vn 0.0333 0.9984 0.0459
vn 0.0333 0.9984 0.0459
vn 0.0333 0.9984 0.0459
vn 0.0333 0.9984 0.0459
vn 0.0333 0.9984 0.0459
vn 0.0333 0.9984 0.0459
vn 0.0333 0.9984 0.0459
vn 0.0333 0.9984 0.0459
vn 0.0333 0.9984 0.0459
vn 0.0333 0.9984 0.0459
vn 0.0333 0.9984 0.0459
vn 0.0333 0.9984 0.0459
vn 0.0333 0.9984 0.0459
vn 0.0333 0.9984 0.0459
vn 0.0333 0.9984 0.0459
vt 0.529403 0.483949
vt 0.530175 0.482823
vt 0.528049 0.482277
vt 0.531736 0.482163
vt 0.529766 0.481157
vt 0.530175 0.482823
vt 0.530175 0.482823
vt 0.529766 0.481157
vt 0.528049 0.482277
vt 0.529766 0.481157
vt 0.531928 0.480414
vt 0.530578 0.479829
vt 0.530578 0.479829
vt 0.528612 0.480391
vt 0.529766 0.481157
vt 0.531736 0.482163
vt 0.531928 0.480414
vt 0.529766 0.481157
vt 0.533986 0.482123
vt 0.533903 0.480448
vt 0.531928 0.480414
vt 0.531736 0.482163
vt 0.535339 0.479941
vt 0.533903 0.480448
vt 0.533986 0.482123
vt 0.533986 0.482123
vt 0.535648 0.482702
vt 0.536224 0.481156
vt 0.535339 0.479941
vt 0.536607 0.483895
vt 0.537943 0.482277
vt 0.535648 0.482702
vt 0.535648 0.482702
vt 0.537943 0.482277
vt 0.536224 0.481156
vt 0.536935 0.480749
vt 0.535339 0.479941
vt 0.536224 0.481156
vt 0.537869 0.479693
vt 0.536026 0.479154
vt 0.536935 0.480749
vt 0.536026 0.479154
vt 0.535339 0.479941
vt 0.536935 0.480749
vt 0.536251 0.478086
vt 0.536026 0.479154
vt 0.537869 0.479693
vt 0.535853 0.476944
vt 0.536251 0.478086
vt 0.537862 0.476381
vt 0.538226 0.478165
vt 0.536251 0.478086
vt 0.537869 0.479693
vt 0.536251 0.478086
vt 0.538226 0.478165
vt 0.537862 0.476381
vt 0.535853 0.476944
vt 0.537862 0.476381
vt 0.536309 0.47486
vt 0.534765 0.476119
vt 0.536309 0.47486
vt 0.534137 0.474238
vt 0.535853 0.476944
vt 0.536309 0.47486
vt 0.534765 0.476119
vt 0.534765 0.476119
vt 0.534137 0.474238
vt 0.532878 0.475844
vt 0.532878 0.475844
vt 0.53144 0.474267
vt 0.531326 0.476123
vt 0.532878 0.475844
vt 0.534137 0.474238
vt 0.53144 0.474267
vt 0.531326 0.476123
vt 0.53144 0.474267
vt 0.529372 0.475073
vt 0.530256 0.476878
vt 0.529372 0.475073
vt 0.52832 0.476117
vt 0.530256 0.476878
vt 0.531326 0.476123
vt 0.529372 0.475073
vt 0.527824 0.477383
vt 0.529881 0.477753
vt 0.530256 0.476878
vt 0.52832 0.476117
vt 0.527824 0.477383
vt 0.529893 0.478794
vt 0.529881 0.477753
vt 0.527824 0.477383
vt 0.527855 0.478939
vt 0.529893 0.478794
vt 0.529893 0.478794
vt 0.527855 0.478939
vt 0.528612 0.480391
vt 0.529893 0.478794
vt 0.528612 0.480391
vt 0.530578 0.479829
vt 0.536607 0.483895
vt 0.538701 0.483946
vt 0.537943 0.482277
vt 0.53859 0.486006
vt 0.538701 0.483946
vt 0.536607 0.483895
vt 0.536626 0.485223
vt 0.53859 0.486006
vt 0.535991 0.486373
vt 0.537338 0.487745
vt 0.536626 0.485223
vt 0.535991 0.486373
vt 0.53859 0.486006
vt 0.535991 0.486373
vt 0.534208 0.487186
vt 0.535543 0.488619
vt 0.537338 0.487745
vt 0.535991 0.486373
vt 0.535543 0.488619
vt 0.534208 0.487186
vt 0.533365 0.488962
vt 0.535543 0.488619
vt 0.531426 0.487162
vt 0.531029 0.488783
vt 0.533365 0.488962
vt 0.531426 0.487162
vt 0.533365 0.488962
vt 0.534208 0.487186
vt 0.529801 0.486104
vt 0.528883 0.487912
vt 0.531426 0.487162
vt 0.531426 0.487162
vt 0.528883 0.487912
vt 0.531029 0.488783
vt 0.529801 0.486104
vt 0.527426 0.486105
vt 0.528883 0.487912
vt 0.529389 0.485127
vt 0.527426 0.486105
vt 0.529801 0.486104
vt 0.527426 0.486105
vt 0.529389 0.485127
vt 0.529403 0.483949
vt 0.527291 0.483946
vt 0.527291 0.483946
vt 0.529403 0.483949
vt 0.528049 0.482277
s off
f 1/1/1 2/2/2 3/3/3
f 4/4/4 5/5/5 6/6/6
f 7/7/7 8/8/8 9/9/9
f 10/10/10 11/11/11 12/12/12
f 13/13/13 14/14/14 15/15/15
f 16/16/16 17/17/17 18/18/18
f 19/19/19 20/20/20 21/21/21
f 19/19/19 21/21/21 22/22/22
f 23/23/23 24/24/24 25/25/25
f 26/26/26 27/27/27 28/28/28
f 26/26/26 28/28/28 29/29/29
f 30/30/30 31/31/31 32/32/32
f 33/33/33 34/34/34 35/35/35
f 36/36/36 37/37/37 38/38/38
f 39/39/39 40/40/40 41/41/41
f 42/42/42 43/43/43 44/44/44
f 45/45/45 46/46/46 47/47/47
f 48/48/48 49/49/49 50/50/50
f 51/51/51 52/52/52 53/53/53
f 54/54/54 55/55/55 56/56/56
f 57/57/57 58/58/58 59/59/59
f 60/60/60 61/61/61 62/62/62
f 63/63/63 64/64/64 65/65/65
f 66/66/66 67/67/67 68/68/68
f 69/69/69 70/70/70 71/71/71
f 72/72/72 73/73/73 74/74/74
f 75/75/75 76/76/76 77/77/77
f 78/78/78 79/79/79 80/80/80
f 81/81/81 82/82/82 83/83/83
f 84/84/84 85/85/85 86/86/86
f 84/84/84 86/86/86 87/87/87
f 88/88/88 89/89/89 90/90/90
f 91/91/91 92/92/92 93/93/93
f 94/94/94 95/95/95 96/96/96
f 97/97/97 98/98/98 99/99/99
f 100/100/100 101/101/101 102/102/102
f 103/103/103 104/104/104 105/105/105
f 103/103/103 105/105/105 106/106/106
f 107/107/107 108/108/108 109/109/109
f 110/110/110 111/111/111 112/112/112
f 113/113/113 114/114/114 115/115/115
f 116/116/116 117/117/117 118/118/118
f 119/119/119 120/120/120 121/121/121
f 122/122/122 123/123/123 124/124/124
f 125/125/125 126/126/126 127/127/127
f 128/128/128 129/129/129 130/130/130
f 131/131/131 132/132/132 133/133/133
f 134/134/134 135/135/135 136/136/136
f 137/137/137 138/138/138 139/139/139
f 140/140/140 141/141/141 142/142/142
f 140/140/140 142/142/142 143/143/143
f 144/144/144 145/145/145 146/146/146
