v 0.188452 0.198151 -0.19379
v 0.192275 0.197958 -0.190928
v 0.191261 0.198087 -0.194124
v 0.195428 0.198144 -0.192643
v 0.194003 0.19823 -0.195464
v 0.191261 0.198087 -0.194124
v 0.192275 0.197958 -0.190928
v 0.188452 0.198151 -0.19379
v 0.18573 0.198254 -0.194358
v 0.18699 0.198028 -0.19032
v 0.188452 0.198151 -0.19379
v 0.18699 0.198028 -0.19032
v 0.192275 0.197958 -0.190928
v 0.18573 0.198254 -0.194358
v 0.182686 0.198224 -0.191637
v 0.18699 0.198028 -0.19032
v 0.183669 0.198375 -0.195613
v 0.179674 0.198438 -0.194103
v 0.182686 0.198224 -0.191637
v 0.183669 0.198375 -0.195613
v 0.182686 0.198224 -0.191637
v 0.18573 0.198254 -0.194358
v 0.183669 0.198375 -0.195613
v 0.182352 0.198523 -0.19788
v 0.179674 0.198438 -0.194103
v 0.182352 0.198523 -0.19788
v 0.182306 0.19867 -0.201059
v 0.1782 0.198659 -0.197819
v 0.182352 0.198523 -0.19788
v 0.1782 0.198659 -0.197819
v 0.179674 0.198438 -0.194103
v 0.182306 0.19867 -0.201059
v 0.178316 0.198831 -0.20166
v 0.1782 0.198659 -0.197819
v 0.182306 0.19867 -0.201059
v 0.180296 0.19894 -0.205451
v 0.178316 0.198831 -0.20166
v 0.180296 0.19894 -0.205451
v 0.18369 0.198741 -0.203452
v 0.183651 0.198944 -0.207708
v 0.182306 0.19867 -0.201059
v 0.18369 0.198741 -0.203452
v 0.180296 0.19894 -0.205451
v 0.183651 0.198944 -0.207708
v 0.18369 0.198741 -0.203452
v 0.186501 0.198739 -0.205069
v 0.186906 0.198895 -0.208614
v 0.186501 0.198739 -0.205069
v 0.191474 0.198596 -0.205001
v 0.192199 0.198781 -0.208398
v 0.186906 0.198895 -0.208614
v 0.183651 0.198944 -0.207708
v 0.186501 0.198739 -0.205069
v 0.196782 0.198823 -0.206049
v 0.192199 0.198781 -0.208398
v 0.191474 0.198596 -0.205001
v 0.199511 0.198735 -0.202347
v 0.196782 0.198823 -0.206049
v 0.194534 0.198605 -0.203027
v 0.196782 0.198823 -0.206049
v 0.191474 0.198596 -0.205001
v 0.194534 0.198605 -0.203027
v 0.199511 0.198735 -0.202347
v 0.194534 0.198605 -0.203027
v 0.195572 0.198544 -0.200994
v 0.199511 0.198735 -0.202347
v 0.195572 0.198544 -0.200994
v 0.195679 0.198415 -0.19821
v 0.194003 0.19823 -0.195464
v 0.19672 0.198261 -0.194211
v 0.195679 0.198415 -0.19821
v 0.200859 0.198547 -0.197436
v 0.195679 0.198415 -0.19821
v 0.19672 0.198261 -0.194211
v 0.199511 0.198735 -0.202347
v 0.195679 0.198415 -0.19821
v 0.200859 0.198547 -0.197436
v 0.200916 0.198253 -0.191069
v 0.200859 0.198547 -0.197436
v 0.19672 0.198261 -0.194211
v 0.196661 0.198075 -0.190307
v 0.199534 0.197967 -0.185998
v 0.200916 0.198253 -0.191069
v 0.200916 0.198253 -0.191069
v 0.19672 0.198261 -0.194211
v 0.196661 0.198075 -0.190307
v 0.196661 0.198075 -0.190307
v 0.194241 0.197734 -0.184802
v 0.199534 0.197967 -0.185998
v 0.189266 0.197575 -0.182107
v 0.192049 0.197392 -0.179114
v 0.194241 0.197734 -0.184802
v 0.194241 0.197734 -0.184802
v 0.196907 0.197696 -0.182133
v 0.199534 0.197967 -0.185998
v 0.194241 0.197734 -0.184802
v 0.192049 0.197392 -0.179114
v 0.196907 0.197696 -0.182133
v 0.192049 0.197392 -0.179114
v 0.189266 0.197575 -0.182107
v 0.184511 0.197558 -0.178458
v 0.184511 0.197558 -0.178458
v 0.184492 0.197729 -0.182184
v 0.181284 0.19789 -0.183338
v 0.179575 0.197797 -0.180078
v 0.184511 0.197558 -0.178458
v 0.189266 0.197575 -0.182107
v 0.184492 0.197729 -0.182184
v 0.194003 0.19823 -0.195464
v 0.195428 0.198144 -0.192643
v 0.19672 0.198261 -0.194211
vn 0.0263 0.9991 0.0322
vn 0.0263 0.9991 0.0322
vn 0.0263 0.9991 0.0322
vn -0.0307 0.9984 0.0482
vn -0.0307 0.9984 0.0482
vn -0.0307 0.9984 0.0482
vn -0.0307 0.9984 0.0482
vn 0.0281 0.9985 0.0472
vn 0.0281 0.9985 0.0472
vn 0.0281 0.9985 0.0472
vn 0.0182 0.9989 0.043
vn 0.0182 0.9989 0.043
vn 0.0182 0.9989 0.043
vn 0.0315 0.9984 0.0461
vn 0.0315 0.9984 0.0461
vn 0.0315 0.9984 0.0461
vn 0.0333 0.9984 0.0459
vn 0.0333 0.9984 0.0459
vn 0.0333 0.9984 0.0459
vn 0.0308 0.9985 0.0453
vn 0.0308 0.9985 0.0453
vn 0.0308 0.9985 0.0453
vn 0.0333 0.9984 0.0459
vn 0.0333 0.9984 0.0459
vn 0.0333 0.9984 0.0459
vn 0.0333 0.9984 0.0459
vn 0.0333 0.9984 0.0459
vn 0.0333 0.9984 0.0459
vn 0.0333 0.9984 0.0459
vn 0.0333 0.9984 0.0459
vn 0.0333 0.9984 0.0459
vn 0.0333 0.9984 0.0459
vn 0.0333 0.9984 0.0459
vn 0.0333 0.9984 0.0459
vn 0.0333 0.9984 0.0459
vn 0.0333 0.9984 0.0459
vn 0.0333 0.9984 0.0459
vn 0.0305 0.9984 0.0472
vn 0.0305 0.9984 0.0472
vn 0.0305 0.9984 0.0472
vn 0.0305 0.9984 0.0472
vn 0.0305 0.9984 0.0472
vn 0.0305 0.9984 0.0472
vn 0.0281 0.9985 0.0472
vn 0.0281 0.9985 0.0472
vn 0.0281 0.9985 0.0472
vn 0.0235 0.9983 0.0529
vn 0.0235 0.9983 0.0529
vn 0.0235 0.9983 0.0529
vn 0.0235 0.9983 0.0529
vn 0.0281 0.9985 0.0472
vn 0.0281 0.9985 0.0472
vn 0.0281 0.9985 0.0472
vn -0.0333 0.9983 0.0472
vn -0.0333 0.9983 0.0472
vn -0.0333 0.9983 0.0472
vn -0.0325 0.9983 0.0478
vn -0.0325 0.9983 0.0478
vn -0.0325 0.9983 0.0478
vn -0.0333 0.9983 0.0472
vn -0.0333 0.9983 0.0472
vn -0.0333 0.9983 0.0472
vn -0.0324 0.9984 0.0467
vn -0.0324 0.9984 0.0467
vn -0.0324 0.9984 0.0467
vn -0.0322 0.9984 0.0472
vn -0.0322 0.9984 0.0472
vn -0.0322 0.9984 0.0472
vn -0.0333 0.9983 0.0472
vn -0.0333 0.9983 0.0472
vn -0.0333 0.9983 0.0472
vn -0.0323 0.9984 0.0469
vn -0.0323 0.9984 0.0469
vn -0.0323 0.9984 0.0469
vn -0.0323 0.9984 0.0471
vn -0.0323 0.9984 0.0471
vn -0.0323 0.9984 0.0471
vn -0.0327 0.9984 0.0464
vn -0.0327 0.9984 0.0464
vn -0.0327 0.9984 0.0464
vn -0.0333 0.9983 0.0472
vn -0.0333 0.9983 0.0472
vn -0.0333 0.9983 0.0472
vn -0.0333 0.9983 0.0472
vn -0.0333 0.9983 0.0472
vn -0.0333 0.9983 0.0472
vn -0.0333 0.9983 0.0472
vn -0.0333 0.9983 0.0472
vn -0.0333 0.9983 0.0472
vn 0.001 0.9982 0.0604
vn 0.001 0.9982 0.0604
vn 0.001 0.9982 0.0604
vn -0.0333 0.9983 0.0472
vn -0.0333 0.9983 0.0472
vn -0.0333 0.9983 0.0472
vn -0.0333 0.9983 0.0472
vn -0.0333 0.9983 0.0472
vn -0.0333 0.9983 0.0472
vn 0.0253 0.999 0.0378
vn 0.0253 0.999 0.0378
vn 0.0253 0.999 0.0378
vn 0.0333 0.9984 0.0459
vn 0.0333 0.9984 0.0459
vn 0.0333 0.9984 0.0459
vn 0.0333 0.9984 0.0459
vn 0.0315 0.9984 0.0459
vn 0.0315 0.9984 0.0459
vn 0.0315 0.9984 0.0459
vn -0.0333 0.9983 0.0472
vn -0.0333 0.9983 0.0472
vn -0.0333 0.9983 0.0472
vt 0.594243 0.481457
vt 0.59611 0.482854
vt 0.595615 0.481294
vt 0.59765 0.482017
vt 0.596954 0.480639
vt 0.595615 0.481294
vt 0.59611 0.482854
vt 0.594243 0.481457
vt 0.592914 0.481179
vt 0.593529 0.483151
vt 0.594243 0.481457
vt 0.593529 0.483151
vt 0.59611 0.482854
vt 0.592914 0.481179
vt 0.591427 0.482508
vt 0.593529 0.483151
vt 0.591907 0.480566
vt 0.589957 0.481304
vt 0.591427 0.482508
vt 0.591907 0.480566
vt 0.591427 0.482508
vt 0.592914 0.481179
vt 0.591907 0.480566
vt 0.591264 0.479459
vt 0.589957 0.481304
vt 0.591264 0.479459
vt 0.591242 0.477907
vt 0.589237 0.479489
vt 0.591264 0.479459
vt 0.589237 0.479489
vt 0.589957 0.481304
vt 0.591242 0.477907
vt 0.589293 0.477613
vt 0.589237 0.479489
vt 0.591242 0.477907
vt 0.59026 0.475762
vt 0.589293 0.477613
vt 0.59026 0.475762
vt 0.591918 0.476738
vt 0.591899 0.47466
vt 0.591242 0.477907
vt 0.591918 0.476738
vt 0.59026 0.475762
vt 0.591899 0.47466
vt 0.591918 0.476738
vt 0.59329 0.475949
vt 0.593488 0.474217
vt 0.59329 0.475949
vt 0.595719 0.475982
vt 0.596073 0.474323
vt 0.593488 0.474217
vt 0.591899 0.47466
vt 0.59329 0.475949
vt 0.598311 0.47547
vt 0.596073 0.474323
vt 0.595719 0.475982
vt 0.599644 0.477278
vt 0.598311 0.47547
vt 0.597213 0.476946
vt 0.598311 0.47547
vt 0.595719 0.475982
vt 0.597213 0.476946
vt 0.599644 0.477278
vt 0.597213 0.476946
vt 0.59772 0.477939
vt 0.599644 0.477278
vt 0.59772 0.477939
vt 0.597773 0.479298
vt 0.596954 0.480639
vt 0.598281 0.481251
vt 0.597773 0.479298
vt 0.600302 0.479676
vt 0.597773 0.479298
vt 0.598281 0.481251
vt 0.599644 0.477278
vt 0.597773 0.479298
vt 0.600302 0.479676
vt 0.60033 0.482786
vt 0.600302 0.479676
vt 0.598281 0.481251
vt 0.598252 0.483157
vt 0.599655 0.485262
vt 0.60033 0.482786
vt 0.60033 0.482786
vt 0.598281 0.481251
vt 0.598252 0.483157
vt 0.598252 0.483157
vt 0.59707 0.485846
vt 0.599655 0.485262
vt 0.594641 0.487162
vt 0.596 0.488623
vt 0.59707 0.485846
vt 0.59707 0.485846
vt 0.598372 0.487149
vt 0.599655 0.485262
vt 0.59707 0.485846
vt 0.596 0.488623
vt 0.598372 0.487149
vt 0.596 0.488623
vt 0.594641 0.487162
vt 0.592319 0.488944
vt 0.592319 0.488944
vt 0.592309 0.487124
vt 0.590743 0.486561
vt 0.589908 0.488153
vt 0.592319 0.488944
vt 0.594641 0.487162
vt 0.592309 0.487124
vt 0.596954 0.480639
vt 0.59765 0.482017
vt 0.598281 0.481251
s off
f 1/1/1 2/2/2 3/3/3
f 4/4/4 5/5/5 6/6/6
f 4/4/4 6/6/6 7/7/7
f 8/8/8 9/9/9 10/10/10
f 11/11/11 12/12/12 13/13/13
f 14/14/14 15/15/15 16/16/16
f 17/17/17 18/18/18 19/19/19
f 20/20/20 21/21/21 22/22/22
f 23/23/23 24/24/24 25/25/25
f 26/26/26 27/27/27 28/28/28
f 29/29/29 30/30/30 31/31/31
f 32/32/32 33/33/33 34/34/34
f 35/35/35 36/36/36 37/37/37
f 38/38/38 39/39/39 40/40/40
f 41/41/41 42/42/42 43/43/43
f 44/44/44 45/45/45 46/46/46
f 47/47/47 48/48/48 49/49/49
f 47/47/47 49/49/49 50/50/50
f 51/51/51 52/52/52 53/53/53
f 54/54/54 55/55/55 56/56/56
f 57/57/57 58/58/58 59/59/59
f 60/60/60 61/61/61 62/62/62
f 63/63/63 64/64/64 65/65/65
f 66/66/66 67/67/67 68/68/68
f 69/69/69 70/70/70 71/71/71
f 72/72/72 73/73/73 74/74/74
f 75/75/75 76/76/76 77/77/77
f 78/78/78 79/79/79 80/80/80
f 81/81/81 82/82/82 83/83/83
f 84/84/84 85/85/85 86/86/86
f 87/87/87 88/88/88 89/89/89
f 90/90/90 91/91/91 92/92/92
f 93/93/93 94/94/94 95/95/95
f 96/96/96 97/97/97 98/98/98
f 99/99/99 100/100/100 101/101/101
f 102/102/102 103/103/103 104/104/104
f 102/102/102 104/104/104 105/105/105
f 106/106/106 107/107/107 108/108/108
f 109/109/109 110/110/110 111/111/111
