v 0.732834 0.128994 5.7e-05
v 0.732834 0.117732 -0.000313
v 0.765269 0.117732 -0.000313
v 0.765269 0.128994 5.7e-05
v 0.732834 0.117732 -0.000313
v 0.732834 0.128994 5.7e-05
v 0.715854 0.128994 5.7e-05
v 0.715846 0.117732 -0.000313
v 0.70701 0.117853 -0.003998
v 0.715846 0.117732 -0.000313
v 0.715854 0.128994 5.7e-05
v 0.707012 0.129116 -0.003631
v 0.707012 0.129116 -0.003631
v 0.715854 0.128994 5.7e-05
v 0.723064 0.177652 -0.014729
v 0.74379 0.175542 -0.014088
v 0.723064 0.177652 -0.014729
v 0.715854 0.128994 5.7e-05
v 0.732834 0.128994 5.7e-05
v 0.723853 0.18038 -0.018316
v 0.720607 0.180821 -0.022657
v 0.717138 0.178431 -0.021224
v 0.723064 0.177652 -0.014729
v 0.744411 0.178236 -0.01768
v 0.723853 0.18038 -0.018316
v 0.723064 0.177652 -0.014729
v 0.74379 0.175542 -0.014088
v 0.70335 0.129408 -0.012535
v 0.707012 0.129116 -0.003631
v 0.723064 0.177652 -0.014729
v 0.717138 0.178431 -0.021224
v 0.771028 0.176489 -0.017159
v 0.744411 0.178236 -0.01768
v 0.74379 0.175542 -0.014088
v 0.770706 0.173808 -0.013561
v 0.74379 0.175542 -0.014088
v 0.732834 0.128994 5.7e-05
v 0.765269 0.128994 5.7e-05
v 0.770706 0.173808 -0.013561
v 0.797703 0.176 -0.017013
v 0.771028 0.176489 -0.017159
v 0.770706 0.173808 -0.013561
v 0.797703 0.173324 -0.013414
v 0.770706 0.173808 -0.013561
v 0.765269 0.128994 5.7e-05
v 0.797703 0.128994 5.7e-05
v 0.797703 0.173324 -0.013414
v 0.765269 0.128994 5.7e-05
v 0.765269 0.117732 -0.000313
v 0.797703 0.117732 -0.000313
v 0.797703 0.128994 5.7e-05
v 0.797703 0.128994 5.7e-05
v 0.797703 0.117732 -0.000313
v 0.830138 0.117732 -0.000313
v 0.830138 0.128994 5.7e-05
v 0.797703 0.173324 -0.013414
v 0.797703 0.128994 5.7e-05
v 0.830138 0.128994 5.7e-05
v 0.824701 0.173808 -0.013561
v 0.830138 0.128994 5.7e-05
v 0.830138 0.117732 -0.000313
v 0.862573 0.117732 -0.000313
v 0.862573 0.128994 5.7e-05
v 0.879561 0.117732 -0.000313
v 0.879553 0.128994 5.7e-05
v 0.862573 0.128994 5.7e-05
v 0.862573 0.117732 -0.000313
v 0.879561 0.117732 -0.000313
v 0.888397 0.117853 -0.003998
v 0.888394 0.129116 -0.003631
v 0.879553 0.128994 5.7e-05
v 0.888397 0.117853 -0.003998
v 0.892057 0.118146 -0.012893
v 0.892057 0.129408 -0.012535
v 0.888394 0.129116 -0.003631
v 0.892057 0.118146 -0.012893
v 0.892057 0.121422 -0.112595
v 0.892057 0.132684 -0.11222
v 0.892057 0.129408 -0.012535
v 0.888391 0.132972 -0.121008
v 0.892057 0.132684 -0.11222
v 0.892057 0.121422 -0.112595
v 0.888394 0.12171 -0.121379
v 0.878274 0.181194 -0.1059
v 0.892057 0.132684 -0.11222
v 0.888391 0.132972 -0.121008
v 0.892057 0.132684 -0.11222
v 0.878274 0.181194 -0.1059
v 0.878269 0.178431 -0.021224
v 0.892057 0.129408 -0.012535
v 0.871507 0.183567 -0.108678
v 0.874795 0.183578 -0.10454
v 0.878274 0.181194 -0.1059
v 0.872239 0.181006 -0.112154
v 0.8748 0.180821 -0.022657
v 0.878269 0.178431 -0.021224
v 0.878274 0.181194 -0.1059
v 0.874795 0.183578 -0.10454
v 0.872239 0.181006 -0.112154
v 0.878274 0.181194 -0.1059
v 0.888391 0.132972 -0.121008
v 0.879541 0.133092 -0.124648
v 0.8748 0.180821 -0.022657
v 0.871554 0.18038 -0.018316
v 0.872343 0.177652 -0.014729
v 0.878269 0.178431 -0.021224
v 0.879553 0.128994 5.7e-05
v 0.888394 0.129116 -0.003631
v 0.878269 0.178431 -0.021224
v 0.872343 0.177652 -0.014729
v 0.888394 0.129116 -0.003631
v 0.892057 0.129408 -0.012535
v 0.878269 0.178431 -0.021224
v 0.871554 0.18038 -0.018316
v 0.850996 0.178236 -0.01768
v 0.851617 0.175542 -0.014088
v 0.872343 0.177652 -0.014729
v 0.872343 0.177652 -0.014729
v 0.851617 0.175542 -0.014088
v 0.862573 0.128994 5.7e-05
v 0.879553 0.128994 5.7e-05
v 0.850996 0.178236 -0.01768
v 0.824379 0.176489 -0.017159
v 0.824701 0.173808 -0.013561
v 0.851617 0.175542 -0.014088
v 0.824701 0.173808 -0.013561
v 0.830138 0.128994 5.7e-05
v 0.862573 0.128994 5.7e-05
v 0.851617 0.175542 -0.014088
v 0.824379 0.176489 -0.017159
v 0.797703 0.176 -0.017013
v 0.797703 0.173324 -0.013414
v 0.824701 0.173808 -0.013561
v 0.824379 0.176489 -0.017159
v 0.824387 0.176552 -0.030683
v 0.797703 0.176014 -0.030581
v 0.797703 0.176 -0.017013
v 0.850996 0.178236 -0.01768
v 0.851008 0.178446 -0.031061
v 0.824387 0.176552 -0.030683
v 0.824379 0.176489 -0.017159
v 0.824355 0.179779 -0.09584
v 0.824387 0.176552 -0.030683
v 0.851008 0.178446 -0.031061
v 0.850968 0.18122 -0.095673
v 0.797703 0.17936 -0.095885
v 0.797703 0.176014 -0.030581
v 0.824387 0.176552 -0.030683
v 0.824355 0.179779 -0.09584
v 0.771052 0.179779 -0.09584
v 0.77102 0.176552 -0.030683
v 0.797703 0.176014 -0.030581
v 0.797703 0.17936 -0.095885
v 0.797703 0.176 -0.017013
v 0.797703 0.176014 -0.030581
v 0.77102 0.176552 -0.030683
v 0.771028 0.176489 -0.017159
v 0.824355 0.179779 -0.09584
v 0.824338 0.181031 -0.109306
v 0.797703 0.180714 -0.109385
v 0.797703 0.17936 -0.095885
v 0.797703 0.17936 -0.095885
v 0.797703 0.180714 -0.109385
v 0.771069 0.181031 -0.109306
v 0.771052 0.179779 -0.09584
v 0.797703 0.180714 -0.109385
v 0.824338 0.181031 -0.109306
v 0.824657 0.178614 -0.112778
v 0.797703 0.178313 -0.112856
v 0.771069 0.181031 -0.109306
v 0.797703 0.180714 -0.109385
v 0.797703 0.178313 -0.112856
v 0.77075 0.178614 -0.112778
v 0.744458 0.182159 -0.109023
v 0.771069 0.181031 -0.109306
v 0.77075 0.178614 -0.112778
v 0.743834 0.179694 -0.112496
v 0.771052 0.179779 -0.09584
v 0.771069 0.181031 -0.109306
v 0.744458 0.182159 -0.109023
v 0.744439 0.18122 -0.095673
v 0.7239 0.183566 -0.108678
v 0.744458 0.182159 -0.109023
v 0.743834 0.179694 -0.112496
v 0.723168 0.181006 -0.112154
v 0.720612 0.183578 -0.10454
v 0.744439 0.18122 -0.095673
v 0.744458 0.182159 -0.109023
v 0.7239 0.183566 -0.108678
v 0.744439 0.18122 -0.095673
v 0.744399 0.178446 -0.031061
v 0.77102 0.176552 -0.030683
v 0.771052 0.179779 -0.09584
v 0.744439 0.18122 -0.095673
v 0.720612 0.183578 -0.10454
v 0.720607 0.180821 -0.022657
v 0.744399 0.178446 -0.031061
v 0.717133 0.181194 -0.1059
v 0.717138 0.178431 -0.021224
v 0.720607 0.180821 -0.022657
v 0.720612 0.183578 -0.10454
v 0.720612 0.183578 -0.10454
v 0.7239 0.183566 -0.108678
v 0.723168 0.181006 -0.112154
v 0.717133 0.181194 -0.1059
v 0.720607 0.180821 -0.022657
v 0.723853 0.18038 -0.018316
v 0.744411 0.178236 -0.01768
v 0.744399 0.178446 -0.031061
v 0.717133 0.181194 -0.1059
v 0.70335 0.132684 -0.11222
v 0.70335 0.129408 -0.012535
v 0.717138 0.178431 -0.021224
v 0.715866 0.133092 -0.124648
v 0.707016 0.132972 -0.121008
v 0.717133 0.181194 -0.1059
v 0.723168 0.181006 -0.112154
v 0.707016 0.132972 -0.121008
v 0.70335 0.132684 -0.11222
v 0.717133 0.181194 -0.1059
v 0.715857 0.12183 -0.125018
v 0.707014 0.12171 -0.121379
v 0.707016 0.132972 -0.121008
v 0.715866 0.133092 -0.124648
v 0.707014 0.12171 -0.121379
v 0.70335 0.121422 -0.112596
v 0.70335 0.132684 -0.11222
v 0.707016 0.132972 -0.121008
v 0.70335 0.121422 -0.112596
v 0.70335 0.118146 -0.012893
v 0.70335 0.129408 -0.012535
v 0.70335 0.132684 -0.11222
v 0.70335 0.118146 -0.012893
v 0.70701 0.117853 -0.003998
v 0.707012 0.129116 -0.003631
v 0.70335 0.129408 -0.012535
v 0.715857 0.12183 -0.125018
v 0.715866 0.133092 -0.124648
v 0.732834 0.133092 -0.124648
v 0.732834 0.12183 -0.125018
v 0.765269 0.133092 -0.124648
v 0.765269 0.12183 -0.125018
v 0.732834 0.12183 -0.125018
v 0.732834 0.133092 -0.124648
v 0.77075 0.178614 -0.112778
v 0.765269 0.133092 -0.124648
v 0.732834 0.133092 -0.124648
v 0.743834 0.179694 -0.112496
v 0.723168 0.181006 -0.112154
v 0.743834 0.179694 -0.112496
v 0.732834 0.133092 -0.124648
v 0.715866 0.133092 -0.124648
v 0.797703 0.133092 -0.124648
v 0.797703 0.12183 -0.125018
v 0.765269 0.12183 -0.125018
v 0.765269 0.133092 -0.124648
v 0.797703 0.178313 -0.112856
v 0.797703 0.133092 -0.124648
v 0.765269 0.133092 -0.124648
v 0.77075 0.178614 -0.112778
v 0.830138 0.133092 -0.124648
v 0.830138 0.12183 -0.125018
v 0.797703 0.12183 -0.125018
v 0.797703 0.133092 -0.124648
v 0.824657 0.178614 -0.112778
v 0.830138 0.133092 -0.124648
v 0.797703 0.133092 -0.124648
v 0.797703 0.178313 -0.112856
v 0.862573 0.133092 -0.124648
v 0.862573 0.12183 -0.125018
v 0.830138 0.12183 -0.125018
v 0.830138 0.133092 -0.124648
v 0.862573 0.12183 -0.125018
v 0.862573 0.133092 -0.124648
v 0.879541 0.133092 -0.124648
v 0.879549 0.12183 -0.125018
v 0.879541 0.133092 -0.124648
v 0.888391 0.132972 -0.121008
v 0.888394 0.12171 -0.121379
v 0.879549 0.12183 -0.125018
v 0.851573 0.179694 -0.112496
v 0.872239 0.181006 -0.112154
v 0.879541 0.133092 -0.124648
v 0.862573 0.133092 -0.124648
v 0.851573 0.179694 -0.112496
v 0.862573 0.133092 -0.124648
v 0.830138 0.133092 -0.124648
v 0.824657 0.178614 -0.112778
v 0.824338 0.181031 -0.109306
v 0.850949 0.182159 -0.109023
v 0.851573 0.179694 -0.112496
v 0.824657 0.178614 -0.112778
v 0.850949 0.182159 -0.109023
v 0.871507 0.183567 -0.108678
v 0.872239 0.181006 -0.112154
v 0.851573 0.179694 -0.112496
v 0.850968 0.18122 -0.095673
v 0.850949 0.182159 -0.109023
v 0.824338 0.181031 -0.109306
v 0.824355 0.179779 -0.09584
v 0.850968 0.18122 -0.095673
v 0.874795 0.183578 -0.10454
v 0.871507 0.183567 -0.108678
v 0.850949 0.182159 -0.109023
v 0.874795 0.183578 -0.10454
v 0.850968 0.18122 -0.095673
v 0.851008 0.178446 -0.031061
v 0.8748 0.180821 -0.022657
v 0.771028 0.176489 -0.017159
v 0.77102 0.176552 -0.030683
v 0.744399 0.178446 -0.031061
v 0.744411 0.178236 -0.01768
v 0.850996 0.178236 -0.01768
v 0.871554 0.18038 -0.018316
v 0.8748 0.180821 -0.022657
v 0.851008 0.178446 -0.031061
vn -0 -0.0328 0.9995
vn -0 -0.0328 0.9995
vn -0 -0.0328 0.9995
vn -0 -0.0328 0.9995
vn -0 -0.0328 0.9995
vn -0 -0.0328 0.9995
vn -0.1414 -0.0324 0.9894
vn -0.1414 -0.0323 0.9894
vn -0.7097 -0.0228 0.7041
vn -0.1414 -0.0323 0.9894
vn -0.1414 -0.0324 0.9894
vn -0.709 -0.0228 0.7049
vn -0.6673 0.3385 0.6634
vn -0.1055 0.3039 0.9469
vn -0.0971 0.3495 0.9319
vn 0.0046 0.3412 0.94
vn -0.0971 0.3495 0.9319
vn -0.1055 0.3039 0.9469
vn -0 0.2908 0.9568
vn 0.1024 0.9945 0.0209
vn 0.0981 0.9948 0.0275
vn -0.9622 0.2723 0.009
vn -0.0971 0.3495 0.9319
vn 0.0857 0.9962 0.0175
vn 0.1024 0.9945 0.0209
vn -0.0971 0.3495 0.9319
vn 0.0046 0.3412 0.94
vn -0.9619 0.273 0.0126
vn -0.6673 0.3385 0.6634
vn -0.0971 0.3495 0.9319
vn -0.9622 0.2723 0.009
vn 0.0434 0.999 0.0103
vn 0.0857 0.9962 0.0175
vn 0.0046 0.3412 0.94
vn 0.0022 0.3395 0.9406
vn 0.0046 0.3412 0.94
vn -0 0.2908 0.9568
vn -0 0.2908 0.9568
vn 0.0022 0.3395 0.9406
vn -0 1 0.0067
vn 0.0434 0.999 0.0103
vn 0.0022 0.3395 0.9406
vn 0.0005 0.3402 0.9404
vn 0.0022 0.3395 0.9406
vn -0 0.2908 0.9568
vn -0 0.2908 0.9568
vn 0.0005 0.3402 0.9404
vn -0 -0.0328 0.9995
vn -0 -0.0328 0.9995
vn -0 -0.0328 0.9995
vn -0 -0.0328 0.9995
vn -0 -0.0328 0.9995
vn -0 -0.0328 0.9995
vn -0 -0.0328 0.9995
vn -0 -0.0328 0.9995
vn 0.0005 0.3402 0.9404
vn -0 0.2908 0.9568
vn -0 0.2908 0.9568
vn -0.0022 0.3395 0.9406
vn -0 -0.0328 0.9995
vn -0 -0.0328 0.9995
vn -0 -0.0328 0.9995
vn -0 -0.0328 0.9995
vn 0.1414 -0.0324 0.9894
vn 0.1414 -0.0323 0.9894
vn -0 -0.0328 0.9995
vn -0 -0.0328 0.9995
vn 0.1414 -0.0324 0.9894
vn 0.7094 -0.0228 0.7045
vn 0.709 -0.0228 0.7049
vn 0.1414 -0.0323 0.9894
vn 0.7094 -0.0228 0.7045
vn 0.9993 -0.001 0.0375
vn 0.9993 -0.0012 0.0375
vn 0.709 -0.0228 0.7049
vn 0.9993 -0.001 0.0375
vn 0.9993 0.0012 -0.0375
vn 0.9993 0.0014 -0.0376
vn 0.9993 -0.0012 0.0375
vn 0.7047 0.0236 -0.7091
vn 0.9993 0.0014 -0.0376
vn 0.9993 0.0012 -0.0375
vn 0.7049 0.0236 -0.7089
vn 0.9621 0.2724 0.0089
vn 0.9621 0.2728 0.0052
vn 0.6762 0.3147 -0.6661
vn 0.9621 0.2728 0.0052
vn 0.9621 0.2724 0.0089
vn 0.9622 0.2723 0.0089
vn 0.9619 0.273 0.0126
vn -0.0717 0.9952 0.0661
vn -0.0794 0.9955 0.0525
vn 0.9621 0.2724 0.0089
vn 0.0997 0.3155 -0.9437
vn -0.0981 0.9948 0.0275
vn 0.9622 0.2723 0.0089
vn 0.9621 0.2724 0.0089
vn -0.0794 0.9955 0.0525
vn 0.0997 0.3155 -0.9437
vn 0.9621 0.2724 0.0089
vn 0.6762 0.3147 -0.6661
vn 0.1081 0.2667 -0.9577
vn -0.0981 0.9948 0.0275
vn -0.1024 0.9945 0.0208
vn 0.0968 0.3497 0.9318
vn 0.9622 0.2723 0.0089
vn 0.1072 0.3042 0.9466
vn 0.6674 0.3385 0.6634
vn 0.9622 0.2723 0.0089
vn 0.0968 0.3497 0.9318
vn 0.6674 0.3385 0.6634
vn 0.9619 0.273 0.0126
vn 0.9622 0.2723 0.0089
vn -0.1024 0.9945 0.0208
vn -0.0858 0.9962 0.0175
vn -0.0046 0.3412 0.94
vn 0.0968 0.3497 0.9318
vn 0.0968 0.3497 0.9318
vn -0.0046 0.3412 0.94
vn -0 0.2908 0.9568
vn 0.1072 0.3042 0.9466
vn -0.0858 0.9962 0.0175
vn -0.0434 0.999 0.0103
vn -0.0022 0.3395 0.9406
vn -0.0046 0.3412 0.94
vn -0.0022 0.3395 0.9406
vn -0 0.2908 0.9568
vn -0 0.2908 0.9568
vn -0.0046 0.3412 0.94
vn -0.0434 0.999 0.0103
vn -0 1 0.0067
vn 0.0005 0.3402 0.9404
vn -0.0022 0.3395 0.9406
vn -0.0434 0.999 0.0103
vn -0.0419 0.9987 0.0273
vn -0 0.9996 0.0265
vn -0 1 0.0067
vn -0.0858 0.9962 0.0175
vn -0.083 0.9961 0.029
vn -0.0419 0.9987 0.0273
vn -0.0434 0.999 0.0103
vn -0.0357 0.997 0.0686
vn -0.0419 0.9987 0.0273
vn -0.083 0.9961 0.029
vn -0.0719 0.9958 0.0562
vn -0 0.9973 0.0733
vn -0 0.9996 0.0265
vn -0.0419 0.9987 0.0273
vn -0.0357 0.997 0.0686
vn 0.0357 0.997 0.0686
vn 0.0419 0.9987 0.0273
vn -0 0.9996 0.0265
vn -0 0.9973 0.0733
vn -0 1 0.0067
vn -0 0.9996 0.0265
vn 0.0419 0.9987 0.0273
vn 0.0434 0.999 0.0103
vn -0.0357 0.997 0.0686
vn -0.0312 0.9959 0.085
vn -0 0.9957 0.0923
vn -0 0.9973 0.0733
vn -0 0.9973 0.0733
vn -0 0.9957 0.0923
vn 0.0271 0.996 0.085
vn 0.0357 0.997 0.0686
vn -0 0.9957 0.0923
vn -0.0312 0.9959 0.085
vn -0.0015 0.3034 -0.9529
vn -0.0001 0.3039 -0.9527
vn 0.0271 0.996 0.085
vn -0 0.9957 0.0923
vn -0.0001 0.3039 -0.9527
vn 0.0015 0.3034 -0.9529
vn 0.0601 0.9957 0.0699
vn 0.0271 0.996 0.085
vn 0.0015 0.3034 -0.9529
vn 0.003 0.3059 -0.9521
vn 0.0357 0.997 0.0686
vn 0.0271 0.996 0.085
vn 0.0601 0.9957 0.0699
vn 0.0719 0.9958 0.0562
vn 0.0717 0.9952 0.066
vn 0.0601 0.9957 0.0699
vn 0.003 0.3059 -0.9521
vn -0.0997 0.3155 -0.9437
vn 0.0794 0.9955 0.0525
vn 0.0719 0.9958 0.0562
vn 0.0601 0.9957 0.0699
vn 0.0717 0.9952 0.066
vn 0.0719 0.9958 0.0562
vn 0.083 0.9961 0.029
vn 0.0419 0.9987 0.0273
vn 0.0357 0.997 0.0686
vn 0.0719 0.9958 0.0562
vn 0.0794 0.9955 0.0525
vn 0.0981 0.9948 0.0275
vn 0.083 0.9961 0.029
vn -0.9622 0.2724 0.0089
vn -0.9622 0.2723 0.009
vn 0.0981 0.9948 0.0275
vn 0.0794 0.9955 0.0525
vn 0.0794 0.9955 0.0525
vn 0.0717 0.9952 0.066
vn -0.0997 0.3155 -0.9437
vn -0.9622 0.2724 0.0089
vn 0.0981 0.9948 0.0275
vn 0.1024 0.9945 0.0209
vn 0.0857 0.9962 0.0175
vn 0.083 0.9961 0.029
vn -0.9622 0.2724 0.0089
vn -0.9621 0.2728 0.0052
vn -0.9619 0.273 0.0126
vn -0.9622 0.2723 0.009
vn -0.1081 0.2667 -0.9577
vn -0.6762 0.3147 -0.6662
vn -0.9622 0.2724 0.0089
vn -0.0997 0.3155 -0.9437
vn -0.6762 0.3147 -0.6662
vn -0.9621 0.2728 0.0052
vn -0.9622 0.2724 0.0089
vn -0.1397 0.0326 -0.9897
vn -0.7047 0.0236 -0.7091
vn -0.7049 0.0235 -0.7089
vn -0.1396 0.0326 -0.9897
vn -0.7047 0.0236 -0.7091
vn -0.9993 0.0013 -0.0375
vn -0.9993 0.0011 -0.0376
vn -0.7049 0.0235 -0.7089
vn -0.9993 0.0013 -0.0375
vn -0.9993 -0.0011 0.0375
vn -0.9993 -0.0011 0.0375
vn -0.9993 0.0011 -0.0376
vn -0.9993 -0.0011 0.0375
vn -0.7097 -0.0228 0.7041
vn -0.709 -0.0228 0.7049
vn -0.9993 -0.0011 0.0375
vn -0.1397 0.0326 -0.9897
vn -0.1396 0.0326 -0.9897
vn -0 0.0328 -0.9995
vn -0 0.0328 -0.9995
vn -0 0.0328 -0.9995
vn -0 0.0328 -0.9995
vn -0 0.0328 -0.9995
vn -0 0.0328 -0.9995
vn 0.0015 0.3034 -0.9529
vn -0 0.2523 -0.9676
vn -0 0.2523 -0.9676
vn 0.003 0.3059 -0.9521
vn -0.0997 0.3155 -0.9437
vn 0.003 0.3059 -0.9521
vn -0 0.2523 -0.9676
vn -0.1081 0.2667 -0.9577
vn -0 0.0328 -0.9995
vn -0 0.0328 -0.9995
vn -0 0.0328 -0.9995
vn -0 0.0328 -0.9995
vn -0.0001 0.3039 -0.9527
vn -0 0.2523 -0.9676
vn -0 0.2523 -0.9676
vn 0.0015 0.3034 -0.9529
vn -0 0.0328 -0.9995
vn -0 0.0328 -0.9995
vn -0 0.0328 -0.9995
vn -0 0.0328 -0.9995
vn -0.0015 0.3034 -0.9529
vn -0 0.2523 -0.9676
vn -0 0.2523 -0.9676
vn -0.0001 0.3039 -0.9527
vn -0 0.0328 -0.9995
vn -0 0.0328 -0.9995
vn -0 0.0328 -0.9995
vn -0 0.0328 -0.9995
vn -0 0.0328 -0.9995
vn -0 0.0328 -0.9995
vn 0.1396 0.0326 -0.9897
vn 0.1397 0.0326 -0.9897
vn 0.1396 0.0326 -0.9897
vn 0.7047 0.0236 -0.7091
vn 0.7049 0.0236 -0.7089
vn 0.1397 0.0326 -0.9897
vn -0.0031 0.3059 -0.9521
vn 0.0997 0.3155 -0.9437
vn 0.1081 0.2667 -0.9577
vn -0 0.2523 -0.9676
vn -0.0031 0.3059 -0.9521
vn -0 0.2523 -0.9676
vn -0 0.2523 -0.9676
vn -0.0015 0.3034 -0.9529
vn -0.0312 0.9959 0.085
vn -0.0601 0.9957 0.0699
vn -0.0031 0.3059 -0.9521
vn -0.0015 0.3034 -0.9529
vn -0.0601 0.9957 0.0699
vn -0.0717 0.9952 0.0661
vn 0.0997 0.3155 -0.9437
vn -0.0031 0.3059 -0.9521
vn -0.0719 0.9958 0.0562
vn -0.0601 0.9957 0.0699
vn -0.0312 0.9959 0.085
vn -0.0357 0.997 0.0686
vn -0.0719 0.9958 0.0562
vn -0.0794 0.9955 0.0525
vn -0.0717 0.9952 0.0661
vn -0.0601 0.9957 0.0699
vn -0.0794 0.9955 0.0525
vn -0.0719 0.9958 0.0562
vn -0.083 0.9961 0.029
vn -0.0981 0.9948 0.0275
vn 0.0434 0.999 0.0103
vn 0.0419 0.9987 0.0273
vn 0.083 0.9961 0.029
vn 0.0857 0.9962 0.0175
vn -0.0858 0.9962 0.0175
vn -0.1024 0.9945 0.0208
vn -0.0981 0.9948 0.0275
vn -0.083 0.9961 0.029
vt 0.859339 0.184502
vt 0.859339 0.186256
vt 0.875243 0.186256
vt 0.875243 0.184502
vt 0.859339 0.186256
vt 0.859339 0.184502
vt 0.851398 0.184543
vt 0.851009 0.186256
vt 0.846676 0.184449
vt 0.851009 0.186256
vt 0.851398 0.184543
vt 0.847986 0.183215
vt 0.847986 0.183215
vt 0.851398 0.184543
vt 0.860313 0.175432
vt 0.868875 0.175697
vt 0.860313 0.175432
vt 0.851398 0.184543
vt 0.859339 0.184502
vt 0.860638 0.173951
vt 0.859298 0.172157
vt 0.857864 0.172749
vt 0.860313 0.175432
vt 0.869131 0.174213
vt 0.860638 0.173951
vt 0.860313 0.175432
vt 0.868875 0.175697
vt 0.846748 0.179781
vt 0.847986 0.183215
vt 0.860313 0.175432
vt 0.857864 0.172749
vt 0.880127 0.174429
vt 0.869131 0.174213
vt 0.868875 0.175697
vt 0.879994 0.175915
vt 0.868875 0.175697
vt 0.859339 0.184502
vt 0.875243 0.184502
vt 0.879994 0.175915
vt 0.891147 0.174489
vt 0.880127 0.174429
vt 0.879994 0.175915
vt 0.891147 0.175976
vt 0.879994 0.175915
vt 0.875243 0.184502
vt 0.891147 0.184502
vt 0.891147 0.175976
vt 0.875243 0.184502
vt 0.875243 0.186256
vt 0.891147 0.186256
vt 0.891147 0.184502
vt 0.891147 0.184502
vt 0.891147 0.186256
vt 0.907051 0.186256
vt 0.907051 0.184502
vt 0.891147 0.175976
vt 0.891147 0.184502
vt 0.907051 0.184502
vt 0.9023 0.175915
vt 0.907051 0.184502
vt 0.907051 0.186256
vt 0.922955 0.186256
vt 0.922955 0.184502
vt 0.931285 0.186256
vt 0.930808 0.184566
vt 0.922955 0.184502
vt 0.922955 0.186256
vt 0.931285 0.186256
vt 0.935618 0.184449
vt 0.934208 0.183314
vt 0.930808 0.184566
vt 0.935618 0.184449
vt 0.937412 0.180088
vt 0.935523 0.179865
vt 0.934208 0.183314
vt 0.937412 0.180088
vt 0.937412 0.131199
vt 0.935518 0.131757
vt 0.935523 0.179865
vt 0.934199 0.128375
vt 0.935518 0.131757
vt 0.937412 0.131199
vt 0.935616 0.126892
vt 0.924432 0.137769
vt 0.935518 0.131757
vt 0.934199 0.128375
vt 0.935518 0.131757
vt 0.924432 0.137769
vt 0.92443 0.172749
vt 0.935523 0.179865
vt 0.921636 0.136621
vt 0.922995 0.13833
vt 0.924432 0.137769
vt 0.921939 0.135185
vt 0.922997 0.172157
vt 0.92443 0.172749
vt 0.924432 0.137769
vt 0.922995 0.13833
vt 0.921939 0.135185
vt 0.924432 0.137769
vt 0.934199 0.128375
vt 0.9308 0.127155
vt 0.922997 0.172157
vt 0.921656 0.173951
vt 0.921982 0.175432
vt 0.92443 0.172749
vt 0.930808 0.184566
vt 0.934208 0.183314
vt 0.92443 0.172749
vt 0.921982 0.175432
vt 0.934208 0.183314
vt 0.935523 0.179865
vt 0.92443 0.172749
vt 0.921656 0.173951
vt 0.913163 0.174213
vt 0.913419 0.175697
vt 0.921982 0.175432
vt 0.921982 0.175432
vt 0.913419 0.175697
vt 0.922955 0.184502
vt 0.930808 0.184566
vt 0.913163 0.174213
vt 0.902167 0.174429
vt 0.9023 0.175915
vt 0.913419 0.175697
vt 0.9023 0.175915
vt 0.907051 0.184502
vt 0.922955 0.184502
vt 0.913419 0.175697
vt 0.902167 0.174429
vt 0.891147 0.174489
vt 0.891147 0.175976
vt 0.9023 0.175915
vt 0.902167 0.174429
vt 0.90217 0.168842
vt 0.891147 0.168884
vt 0.891147 0.174489
vt 0.913163 0.174213
vt 0.913168 0.168686
vt 0.90217 0.168842
vt 0.902167 0.174429
vt 0.902157 0.141925
vt 0.90217 0.168842
vt 0.913168 0.168686
vt 0.913152 0.141993
vt 0.891147 0.141906
vt 0.891147 0.168884
vt 0.90217 0.168842
vt 0.902157 0.141925
vt 0.880137 0.141925
vt 0.880124 0.168842
vt 0.891147 0.168884
vt 0.891147 0.141906
vt 0.891147 0.174489
vt 0.891147 0.168884
vt 0.880124 0.168842
vt 0.880127 0.174429
vt 0.902157 0.141925
vt 0.90215 0.136362
vt 0.891147 0.136329
vt 0.891147 0.141906
vt 0.891147 0.141906
vt 0.891147 0.136329
vt 0.880144 0.136362
vt 0.880137 0.141925
vt 0.891147 0.136329
vt 0.90215 0.136362
vt 0.902282 0.134927
vt 0.891147 0.134895
vt 0.880144 0.136362
vt 0.891147 0.136329
vt 0.891147 0.134895
vt 0.880012 0.134927
vt 0.869151 0.136479
vt 0.880144 0.136362
vt 0.880012 0.134927
vt 0.868893 0.135044
vt 0.880137 0.141925
vt 0.880144 0.136362
vt 0.869151 0.136479
vt 0.869143 0.141993
vt 0.860658 0.136621
vt 0.869151 0.136479
vt 0.868893 0.135044
vt 0.860355 0.135185
vt 0.859299 0.13833
vt 0.869143 0.141993
vt 0.869151 0.136479
vt 0.860658 0.136621
vt 0.869143 0.141993
vt 0.869126 0.168686
vt 0.880124 0.168842
vt 0.880137 0.141925
vt 0.869143 0.141993
vt 0.859299 0.13833
vt 0.859298 0.172157
vt 0.869126 0.168686
vt 0.857862 0.137769
vt 0.857864 0.172749
vt 0.859298 0.172157
vt 0.859299 0.13833
vt 0.859299 0.13833
vt 0.860658 0.136621
vt 0.860355 0.135185
vt 0.857862 0.137769
vt 0.859298 0.172157
vt 0.860638 0.173951
vt 0.869131 0.174213
vt 0.869126 0.168686
vt 0.857862 0.137769
vt 0.846776 0.131757
vt 0.846748 0.179781
vt 0.857864 0.172749
vt 0.851494 0.127155
vt 0.848095 0.128375
vt 0.857862 0.137769
vt 0.860355 0.135185
vt 0.848095 0.128375
vt 0.846776 0.131757
vt 0.857862 0.137769
vt 0.851014 0.125108
vt 0.846678 0.126892
vt 0.848095 0.128375
vt 0.851494 0.127155
vt 0.846678 0.126892
vt 0.844882 0.131199
vt 0.846776 0.131757
vt 0.848095 0.128375
vt 0.844882 0.131199
vt 0.844882 0.180088
vt 0.846748 0.179781
vt 0.846776 0.131757
vt 0.844882 0.180088
vt 0.846676 0.184449
vt 0.847986 0.183215
vt 0.846748 0.179781
vt 0.851014 0.125108
vt 0.851494 0.127155
vt 0.859339 0.127221
vt 0.859339 0.125108
vt 0.875243 0.127221
vt 0.875243 0.125108
vt 0.859339 0.125108
vt 0.859339 0.127221
vt 0.880012 0.134927
vt 0.875243 0.127221
vt 0.859339 0.127221
vt 0.868893 0.135044
vt 0.860355 0.135185
vt 0.868893 0.135044
vt 0.859339 0.127221
vt 0.851494 0.127155
vt 0.891147 0.127221
vt 0.891147 0.125108
vt 0.875243 0.125108
vt 0.875243 0.127221
vt 0.891147 0.134895
vt 0.891147 0.127221
vt 0.875243 0.127221
vt 0.880012 0.134927
vt 0.907051 0.127221
vt 0.907051 0.125108
vt 0.891147 0.125108
vt 0.891147 0.127221
vt 0.902282 0.134927
vt 0.907051 0.127221
vt 0.891147 0.127221
vt 0.891147 0.134895
vt 0.922955 0.127221
vt 0.922955 0.125108
vt 0.907051 0.125108
vt 0.907051 0.127221
vt 0.922955 0.125108
vt 0.922955 0.127221
vt 0.9308 0.127155
vt 0.93128 0.125108
vt 0.9308 0.127155
vt 0.934199 0.128375
vt 0.935616 0.126892
vt 0.93128 0.125108
vt 0.913401 0.135044
vt 0.921939 0.135185
vt 0.9308 0.127155
vt 0.922955 0.127221
vt 0.913401 0.135044
vt 0.922955 0.127221
vt 0.907051 0.127221
vt 0.902282 0.134927
vt 0.90215 0.136362
vt 0.913144 0.136479
vt 0.913401 0.135044
vt 0.902282 0.134927
vt 0.913144 0.136479
vt 0.921636 0.136621
vt 0.921939 0.135185
vt 0.913401 0.135044
vt 0.913152 0.141993
vt 0.913144 0.136479
vt 0.90215 0.136362
vt 0.902157 0.141925
vt 0.913152 0.141993
vt 0.922995 0.13833
vt 0.921636 0.136621
vt 0.913144 0.136479
vt 0.922995 0.13833
vt 0.913152 0.141993
vt 0.913168 0.168686
vt 0.922997 0.172157
vt 0.880127 0.174429
vt 0.880124 0.168842
vt 0.869126 0.168686
vt 0.869131 0.174213
vt 0.913163 0.174213
vt 0.921656 0.173951
vt 0.922997 0.172157
vt 0.913168 0.168686
s off
f 1/1/1 2/2/2 3/3/3
f 1/1/1 3/3/3 4/4/4
f 5/5/5 6/6/6 7/7/7
f 5/5/5 7/7/7 8/8/8
f 9/9/9 10/10/10 11/11/11
f 9/9/9 11/11/11 12/12/12
f 13/13/13 14/14/14 15/15/15
f 16/16/16 17/17/17 18/18/18
f 16/16/16 18/18/18 19/19/19
f 20/20/20 21/21/21 22/22/22
f 20/20/20 22/22/22 23/23/23
f 24/24/24 25/25/25 26/26/26
f 24/24/24 26/26/26 27/27/27
f 28/28/28 29/29/29 30/30/30
f 28/28/28 30/30/30 31/31/31
f 32/32/32 33/33/33 34/34/34
f 32/32/32 34/34/34 35/35/35
f 36/36/36 37/37/37 38/38/38
f 36/36/36 38/38/38 39/39/39
f 40/40/40 41/41/41 42/42/42
f 40/40/40 42/42/42 43/43/43
f 44/44/44 45/45/45 46/46/46
f 44/44/44 46/46/46 47/47/47
f 48/48/48 49/49/49 50/50/50
f 48/48/48 50/50/50 51/51/51
f 52/52/52 53/53/53 54/54/54
f 52/52/52 54/54/54 55/55/55
f 56/56/56 57/57/57 58/58/58
f 56/56/56 58/58/58 59/59/59
f 60/60/60 61/61/61 62/62/62
f 60/60/60 62/62/62 63/63/63
f 64/64/64 65/65/65 66/66/66
f 64/64/64 66/66/66 67/67/67
f 68/68/68 69/69/69 70/70/70
f 68/68/68 70/70/70 71/71/71
f 72/72/72 73/73/73 74/74/74
f 72/72/72 74/74/74 75/75/75
f 76/76/76 77/77/77 78/78/78
f 76/76/76 78/78/78 79/79/79
f 80/80/80 81/81/81 82/82/82
f 80/80/80 82/82/82 83/83/83
f 84/84/84 85/85/85 86/86/86
f 87/87/87 88/88/88 89/89/89
f 87/87/87 89/89/89 90/90/90
f 91/91/91 92/92/92 93/93/93
f 91/91/91 93/93/93 94/94/94
f 95/95/95 96/96/96 97/97/97
f 95/95/95 97/97/97 98/98/98
f 99/99/99 100/100/100 101/101/101
f 99/99/99 101/101/101 102/102/102
f 103/103/103 104/104/104 105/105/105
f 103/103/103 105/105/105 106/106/106
f 107/107/107 108/108/108 109/109/109
f 107/107/107 109/109/109 110/110/110
f 111/111/111 112/112/112 113/113/113
f 114/114/114 115/115/115 116/116/116
f 114/114/114 116/116/116 117/117/117
f 118/118/118 119/119/119 120/120/120
f 118/118/118 120/120/120 121/121/121
f 122/122/122 123/123/123 124/124/124
f 122/122/122 124/124/124 125/125/125
f 126/126/126 127/127/127 128/128/128
f 126/126/126 128/128/128 129/129/129
f 130/130/130 131/131/131 132/132/132
f 130/130/130 132/132/132 133/133/133
f 134/134/134 135/135/135 136/136/136
f 134/134/134 136/136/136 137/137/137
f 138/138/138 139/139/139 140/140/140
f 138/138/138 140/140/140 141/141/141
f 142/142/142 143/143/143 144/144/144
f 142/142/142 144/144/144 145/145/145
f 146/146/146 147/147/147 148/148/148
f 146/146/146 148/148/148 149/149/149
f 150/150/150 151/151/151 152/152/152
f 150/150/150 152/152/152 153/153/153
f 154/154/154 155/155/155 156/156/156
f 154/154/154 156/156/156 157/157/157
f 158/158/158 159/159/159 160/160/160
f 158/158/158 160/160/160 161/161/161
f 162/162/162 163/163/163 164/164/164
f 162/162/162 164/164/164 165/165/165
f 166/166/166 167/167/167 168/168/168
f 166/166/166 168/168/168 169/169/169
f 170/170/170 171/171/171 172/172/172
f 170/170/170 172/172/172 173/173/173
f 174/174/174 175/175/175 176/176/176
f 174/174/174 176/176/176 177/177/177
f 178/178/178 179/179/179 180/180/180
f 178/178/178 180/180/180 181/181/181
f 182/182/182 183/183/183 184/184/184
f 182/182/182 184/184/184 185/185/185
f 186/186/186 187/187/187 188/188/188
f 186/186/186 188/188/188 189/189/189
f 190/190/190 191/191/191 192/192/192
f 190/190/190 192/192/192 193/193/193
f 194/194/194 195/195/195 196/196/196
f 194/194/194 196/196/196 197/197/197
f 198/198/198 199/199/199 200/200/200
f 198/198/198 200/200/200 201/201/201
f 202/202/202 203/203/203 204/204/204
f 202/202/202 204/204/204 205/205/205
f 206/206/206 207/207/207 208/208/208
f 206/206/206 208/208/208 209/209/209
f 210/210/210 211/211/211 212/212/212
f 210/210/210 212/212/212 213/213/213
f 214/214/214 215/215/215 216/216/216
f 214/214/214 216/216/216 217/217/217
f 218/218/218 219/219/219 220/220/220
f 221/221/221 222/222/222 223/223/223
f 221/221/221 223/223/223 224/224/224
f 225/225/225 226/226/226 227/227/227
f 225/225/225 227/227/227 228/228/228
f 229/229/229 230/230/230 231/231/231
f 229/229/229 231/231/231 232/232/232
f 233/233/233 234/234/234 235/235/235
f 233/233/233 235/235/235 236/236/236
f 237/237/237 238/238/238 239/239/239
f 237/237/237 239/239/239 240/240/240
f 241/241/241 242/242/242 243/243/243
f 241/241/241 243/243/243 244/244/244
f 245/245/245 246/246/246 247/247/247
f 245/245/245 247/247/247 248/248/248
f 249/249/249 250/250/250 251/251/251
f 249/249/249 251/251/251 252/252/252
f 253/253/253 254/254/254 255/255/255
f 253/253/253 255/255/255 256/256/256
f 257/257/257 258/258/258 259/259/259
f 257/257/257 259/259/259 260/260/260
f 261/261/261 262/262/262 263/263/263
f 261/261/261 263/263/263 264/264/264
f 265/265/265 266/266/266 267/267/267
f 265/265/265 267/267/267 268/268/268
f 269/269/269 270/270/270 271/271/271
f 269/269/269 271/271/271 272/272/272
f 273/273/273 274/274/274 275/275/275
f 273/273/273 275/275/275 276/276/276
f 277/277/277 278/278/278 279/279/279
f 277/277/277 279/279/279 280/280/280
f 281/281/281 282/282/282 283/283/283
f 281/281/281 283/283/283 284/284/284
f 285/285/285 286/286/286 287/287/287
f 285/285/285 287/287/287 288/288/288
f 289/289/289 290/290/290 291/291/291
f 289/289/289 291/291/291 292/292/292
f 293/293/293 294/294/294 295/295/295
f 293/293/293 295/295/295 296/296/296
f 297/297/297 298/298/298 299/299/299
f 297/297/297 299/299/299 300/300/300
f 301/301/301 302/302/302 303/303/303
f 301/301/301 303/303/303 304/304/304
f 305/305/305 306/306/306 307/307/307
f 305/305/305 307/307/307 308/308/308
f 309/309/309 310/310/310 311/311/311
f 309/309/309 311/311/311 312/312/312
f 313/313/313 314/314/314 315/315/315
f 313/313/313 315/315/315 316/316/316
