v 0.742245 0.182134 -0.104318
v 0.739433 0.182338 -0.104318
v 0.742245 0.180733 -0.075105
v 0.745291 0.178665 -0.034253
v 0.748025 0.178472 -0.034253
v 0.734981 0.181078 -0.0637
v 0.742245 0.180733 -0.075105
v 0.739433 0.182338 -0.104318
v 0.739433 0.181056 -0.075105
v 0.734981 0.181078 -0.0637
v 0.748025 0.178472 -0.034253
v 0.737636 0.180772 -0.0637
vn 0.0725 0.9962 0.0478
vn 0.0725 0.9962 0.0478
vn 0.0725 0.9962 0.0478
vn 0.0703 0.9959 0.057
vn 0.0703 0.9959 0.057
vn 0.0703 0.9959 0.057
vn 0.1142 0.9925 0.0436
vn 0.1142 0.9925 0.0436
vn 0.1142 0.9925 0.0436
vn 0.1142 0.9928 0.0373
vn 0.1142 0.9928 0.0373
vn 0.1142 0.9928 0.0373
vt 0.864684 0.52515
vt 0.863311 0.52515
vt 0.864684 0.539416
vt 0.866172 0.559366
vt 0.867507 0.559366
vt 0.861137 0.544985
vt 0.864684 0.539416
vt 0.863311 0.52515
vt 0.863311 0.539416
vt 0.861137 0.544985
vt 0.867507 0.559366
vt 0.862434 0.544985
s off
f 1/1/1 2/2/2 3/3/3
f 4/4/4 5/5/5 6/6/6
f 7/7/7 8/8/8 9/9/9
f 10/10/10 11/11/11 12/12/12
