v -0.754121 0.16835 0.030267
v -0.757714 0.168563 0.045889
v -0.752403 0.168125 0.033781
v -0.739515 0.167246 0.054872
v -0.752403 0.168125 0.033781
v -0.747091 0.167583 0.045889
v -0.750684 0.167985 0.030267
v -0.752403 0.168125 0.033781
v -0.739515 0.167246 0.054872
v -0.754121 0.16835 0.030267
v -0.752403 0.168125 0.033781
v -0.750684 0.167985 0.030267
v -0.758964 0.168667 0.048701
v -0.754121 0.16835 0.030267
v -0.765291 0.169382 0.054872
v -0.761698 0.168931 0.054872
v -0.754121 0.16835 0.030267
v -0.758964 0.168667 0.048701
v -0.757714 0.168563 0.045889
v -0.74592 0.167514 0.048701
v -0.747091 0.167583 0.045889
v -0.757714 0.168563 0.045889
v -0.758964 0.168667 0.048701
v -0.739515 0.167246 0.054872
v -0.74592 0.167514 0.048701
v -0.743186 0.167358 0.054872
v -0.739515 0.167246 0.054872
v -0.747091 0.167583 0.045889
v -0.74592 0.167514 0.048701
vn 0.1072 0.9942 0.0111
vn 0.1072 0.9942 0.0111
vn 0.1072 0.9942 0.0111
vn -0.018 0.9985 0.0526
vn -0.018 0.9985 0.0526
vn -0.018 0.9985 0.0526
vn 0.0739 0.9973 -0.0036
vn 0.0739 0.9973 -0.0036
vn 0.0739 0.9973 -0.0036
vn 0.1054 0.9944 0.0119
vn 0.1054 0.9944 0.0119
vn 0.1054 0.9944 0.0119
vn 0.1275 0.9917 0.0158
vn 0.1275 0.9917 0.0158
vn 0.1275 0.9917 0.0158
vn 0.1275 0.9917 0.0158
vn 0.1071 0.9942 0.011
vn 0.1071 0.9942 0.011
vn 0.1071 0.9942 0.011
vn 0.0897 0.996 -0.0049
vn 0.0897 0.996 -0.0049
vn 0.0897 0.996 -0.0049
vn 0.0897 0.996 -0.0049
vn 0.0305 0.9995 0.0118
vn 0.0305 0.9995 0.0118
vn 0.0305 0.9995 0.0118
vn 0.0306 0.9995 0.0116
vn 0.0306 0.9995 0.0116
vn 0.0306 0.9995 0.0116
vt 0.133944 0.590873
vt 0.132189 0.598502
vt 0.134783 0.59259
vt 0.141077 0.602889
vt 0.134783 0.59259
vt 0.137377 0.598502
vt 0.135622 0.590873
vt 0.134783 0.59259
vt 0.141077 0.602889
vt 0.133944 0.590873
vt 0.134783 0.59259
vt 0.135622 0.590873
vt 0.131579 0.599875
vt 0.133944 0.590873
vt 0.128489 0.602889
vt 0.130244 0.602889
vt 0.133944 0.590873
vt 0.131579 0.599875
vt 0.132189 0.598502
vt 0.137949 0.599875
vt 0.137377 0.598502
vt 0.132189 0.598502
vt 0.131579 0.599875
vt 0.141077 0.602889
vt 0.137949 0.599875
vt 0.139284 0.602889
vt 0.141077 0.602889
vt 0.137377 0.598502
vt 0.137949 0.599875
s off
f 1/1/1 2/2/2 3/3/3
f 4/4/4 5/5/5 6/6/6
f 7/7/7 8/8/8 9/9/9
f 10/10/10 11/11/11 12/12/12
f 13/13/13 14/14/14 15/15/15
f 13/13/13 15/15/15 16/16/16
f 17/17/17 18/18/18 19/19/19
f 20/20/20 21/21/21 22/22/22
f 20/20/20 22/22/22 23/23/23
f 24/24/24 25/25/25 26/26/26
f 27/27/27 28/28/28 29/29/29
