v 0.312949 0.166741 0.325916
v 0.306856 0.165866 0.318729
v 0.307793 0.166175 0.320916
v 0.307793 0.166175 0.320916
v 0.306856 0.165866 0.318729
v 0.297248 0.166921 0.320916
v 0.297248 0.166921 0.320916
v 0.292171 0.168216 0.325916
v 0.295061 0.167941 0.325916
v 0.30256 0.164559 0.308966
v 0.306856 0.165866 0.318729
v 0.312949 0.166741 0.325916
v 0.301154 0.164239 0.306075
v 0.30256 0.164559 0.308966
v 0.303888 0.164064 0.306075
v 0.318807 0.166136 0.323494
v 0.315917 0.166637 0.325916
v 0.329508 0.166549 0.323494
v 0.33771 0.164692 0.308575
v 0.344505 0.165337 0.308575
v 0.344505 0.164966 0.306075
v 0.318807 0.166136 0.323494
v 0.315917 0.163531 0.306075
v 0.315917 0.166637 0.325916
v 0.312949 0.166741 0.325916
v 0.307793 0.166175 0.320916
v 0.309981 0.16688 0.325916
v 0.344505 0.164966 0.306075
v 0.334898 0.164485 0.308575
v 0.33771 0.164692 0.308575
v 0.301154 0.164239 0.306075
v 0.298264 0.166469 0.318729
v 0.30256 0.164559 0.308966
v 0.306856 0.165866 0.318729
v 0.298264 0.166469 0.318729
v 0.297248 0.166921 0.320916
v 0.303888 0.164064 0.306075
v 0.30256 0.164559 0.308966
v 0.312949 0.166741 0.325916
v 0.33771 0.164692 0.308575
v 0.334898 0.164485 0.308575
v 0.334898 0.167191 0.325916
v 0.33771 0.16746 0.325916
v 0.315917 0.163531 0.306075
v 0.318807 0.166136 0.323494
v 0.318807 0.163463 0.306075
v 0.344505 0.164966 0.306075
v 0.328102 0.163876 0.306075
v 0.334898 0.164485 0.308575
v 0.298264 0.166469 0.318729
v 0.301154 0.164239 0.306075
v 0.292171 0.168216 0.325916
v 0.297248 0.166921 0.320916
v 0.328102 0.163876 0.306075
v 0.328102 0.164221 0.308575
v 0.334898 0.164485 0.308575
v 0.315917 0.166637 0.325916
v 0.329508 0.166939 0.325916
v 0.329508 0.166549 0.323494
vn 0.0461 0.9862 -0.1591
vn 0.0461 0.9862 -0.1591
vn 0.0461 0.9862 -0.1591
vn 0.0695 0.9832 -0.1687
vn 0.0695 0.9832 -0.1687
vn 0.0695 0.9832 -0.1687
vn 0.0935 0.9827 -0.1596
vn 0.0935 0.9827 -0.1596
vn 0.0935 0.9827 -0.1596
vn 0.0295 0.9889 -0.1454
vn 0.0295 0.9889 -0.1454
vn 0.0295 0.9889 -0.1454
vn 0.0631 0.9881 -0.14
vn 0.0631 0.9881 -0.14
vn 0.0631 0.9881 -0.14
vn -0.0374 0.9688 -0.2452
vn -0.0374 0.9688 -0.2452
vn -0.0374 0.9688 -0.2452
vn -0.0935 0.9848 -0.1463
vn -0.0935 0.9848 -0.1463
vn -0.0935 0.9848 -0.1463
vn 0.0417 0.9871 -0.1545
vn 0.0417 0.9871 -0.1545
vn 0.0417 0.9871 -0.1545
vn 0.0461 0.9862 -0.1591
vn 0.0461 0.9862 -0.1591
vn 0.0461 0.9862 -0.1591
vn -0.0732 0.9932 -0.0902
vn -0.0732 0.9932 -0.0902
vn -0.0732 0.9932 -0.0902
vn 0.0903 0.9841 -0.1528
vn 0.0903 0.9841 -0.1528
vn 0.0903 0.9841 -0.1528
vn 0.069 0.9828 -0.171
vn 0.069 0.9828 -0.171
vn 0.069 0.9828 -0.171
vn 0.039 0.9878 -0.1511
vn 0.039 0.9878 -0.1511
vn 0.039 0.9878 -0.1511
vn -0.0834 0.9843 -0.1554
vn -0.0834 0.9843 -0.1554
vn -0.0834 0.9843 -0.1554
vn -0.0834 0.9843 -0.1554
vn 0.023 0.9882 -0.1516
vn 0.023 0.9882 -0.1516
vn 0.023 0.9882 -0.1516
vn -0.0662 0.9958 -0.0628
vn -0.0662 0.9958 -0.0628
vn -0.0662 0.9958 -0.0628
vn 0.1049 0.9831 -0.15
vn 0.1049 0.9831 -0.15
vn 0.1049 0.9831 -0.15
vn 0.1049 0.9831 -0.15
vn -0.0385 0.9899 -0.1366
vn -0.0385 0.9899 -0.1366
vn -0.0385 0.9899 -0.1366
vn -0.022 0.987 -0.1593
vn -0.022 0.987 -0.1593
vn -0.022 0.987 -0.1593
vt 0.65504 0.735251
vt 0.652065 0.731742
vt 0.652523 0.73281
vt 0.652523 0.73281
vt 0.652065 0.731742
vt 0.647373 0.73281
vt 0.647373 0.73281
vt 0.644894 0.735251
vt 0.646305 0.735251
vt 0.649967 0.726974
vt 0.652065 0.731742
vt 0.65504 0.735251
vt 0.649281 0.725563
vt 0.649967 0.726974
vt 0.650616 0.725563
vt 0.657901 0.734069
vt 0.65649 0.735251
vt 0.663127 0.734069
vt 0.667132 0.726783
vt 0.670451 0.726783
vt 0.670451 0.725563
vt 0.657901 0.734069
vt 0.65649 0.725563
vt 0.65649 0.735251
vt 0.65504 0.735251
vt 0.652523 0.73281
vt 0.653591 0.735251
vt 0.670451 0.725563
vt 0.665759 0.726783
vt 0.667132 0.726783
vt 0.649281 0.725563
vt 0.647869 0.731742
vt 0.649967 0.726974
vt 0.652065 0.731742
vt 0.647869 0.731742
vt 0.647373 0.73281
vt 0.650616 0.725563
vt 0.649967 0.726974
vt 0.65504 0.735251
vt 0.667132 0.726783
vt 0.665759 0.726783
vt 0.665759 0.735251
vt 0.667132 0.735251
vt 0.65649 0.725563
vt 0.657901 0.734069
vt 0.657901 0.725563
vt 0.670451 0.725563
vt 0.66244 0.725563
vt 0.665759 0.726783
vt 0.647869 0.731742
vt 0.649281 0.725563
vt 0.644894 0.735251
vt 0.647373 0.73281
vt 0.66244 0.725563
vt 0.66244 0.726783
vt 0.665759 0.726783
vt 0.65649 0.735251
vt 0.663127 0.735251
vt 0.663127 0.734069
s off
f 1/1/1 2/2/2 3/3/3
f 4/4/4 5/5/5 6/6/6
f 7/7/7 8/8/8 9/9/9
f 10/10/10 11/11/11 12/12/12
f 13/13/13 14/14/14 15/15/15
f 16/16/16 17/17/17 18/18/18
f 19/19/19 20/20/20 21/21/21
f 22/22/22 23/23/23 24/24/24
f 25/25/25 26/26/26 27/27/27
f 28/28/28 29/29/29 30/30/30
f 31/31/31 32/32/32 33/33/33
f 34/34/34 35/35/35 36/36/36
f 37/37/37 38/38/38 39/39/39
f 40/40/40 41/41/41 42/42/42
f 40/40/40 42/42/42 43/43/43
f 44/44/44 45/45/45 46/46/46
f 47/47/47 48/48/48 49/49/49
f 50/50/50 51/51/51 52/52/52
f 50/50/50 52/52/52 53/53/53
f 54/54/54 55/55/55 56/56/56
f 57/57/57 58/58/58 59/59/59
