v -0.613053 0.167106 0.325916
v -0.613053 0.166735 0.323494
v -0.626645 0.166913 0.325916
v -0.644298 0.166191 0.318729
v -0.645313 0.166568 0.320916
v -0.634768 0.166304 0.320916
v -0.638674 0.164089 0.306075
v -0.635706 0.165986 0.318729
v -0.629613 0.166964 0.325916
v -0.598056 0.164572 0.306075
v -0.607664 0.16453 0.308575
v -0.604852 0.164578 0.308575
v -0.629613 0.166964 0.325916
v -0.634768 0.166304 0.320916
v -0.632581 0.167029 0.325916
v -0.629613 0.166964 0.325916
v -0.635706 0.165986 0.318729
v -0.634768 0.166304 0.320916
v -0.644298 0.166191 0.318729
v -0.634768 0.166304 0.320916
v -0.635706 0.165986 0.318729
v -0.641407 0.164154 0.306075
v -0.644298 0.166191 0.318729
v -0.640002 0.16457 0.308965
v -0.640002 0.16457 0.308965
v -0.635706 0.165986 0.318729
v -0.638674 0.164089 0.306075
v -0.641407 0.164154 0.306075
v -0.640002 0.16457 0.308965
v -0.638674 0.164089 0.306075
v -0.623755 0.166492 0.323494
v -0.626645 0.166913 0.325916
v -0.613053 0.166735 0.323494
v -0.607664 0.167226 0.325916
v -0.604852 0.167274 0.325916
v -0.607664 0.16453 0.308575
v -0.607664 0.16453 0.308575
v -0.614459 0.164024 0.306075
v -0.614459 0.164412 0.308575
v -0.604852 0.164578 0.308575
v -0.598056 0.16496 0.308575
v -0.598056 0.164572 0.306075
v -0.626645 0.166913 0.325916
v -0.623755 0.166492 0.323494
v -0.626645 0.163871 0.306075
v -0.65039 0.167651 0.325916
v -0.6475 0.167477 0.325916
v -0.645313 0.166568 0.320916
v -0.644298 0.166191 0.318729
v -0.641407 0.164154 0.306075
v -0.65039 0.167651 0.325916
v -0.645313 0.166568 0.320916
v -0.598056 0.164572 0.306075
v -0.614459 0.164024 0.306075
v -0.607664 0.16453 0.308575
v -0.607664 0.16453 0.308575
v -0.604852 0.167274 0.325916
v -0.604852 0.164578 0.308575
v -0.623755 0.166492 0.323494
v -0.623755 0.163821 0.306075
v -0.626645 0.163871 0.306075
v -0.598056 0.16496 0.308575
v -0.598056 0.16496 0.308575
vn -0.0141 0.9884 -0.1515
vn -0.0141 0.9884 -0.1515
vn -0.0141 0.9884 -0.1515
vn 0.0247 0.987 -0.1589
vn 0.0247 0.987 -0.1589
vn 0.0247 0.987 -0.1589
vn 0.0223 0.9879 -0.1533
vn 0.0223 0.9879 -0.1533
vn 0.0223 0.9879 -0.1533
vn -0.0173 0.9986 -0.0497
vn -0.0173 0.9986 -0.0497
vn -0.0173 0.9986 -0.0497
vn 0.0216 0.988 -0.1528
vn 0.0216 0.988 -0.1528
vn 0.0216 0.988 -0.1528
vn 0.0215 0.988 -0.1527
vn 0.0215 0.988 -0.1527
vn 0.0215 0.988 -0.1527
vn 0.0235 0.9879 -0.1535
vn 0.0235 0.9879 -0.1535
vn 0.0235 0.9879 -0.1535
vn 0.0235 0.9879 -0.1536
vn 0.0235 0.9879 -0.1536
vn 0.0235 0.9879 -0.1536
vn 0.0235 0.9879 -0.1536
vn 0.0235 0.9879 -0.1536
vn 0.0235 0.9879 -0.1536
vn 0.0235 0.9879 -0.1536
vn 0.0235 0.9879 -0.1536
vn 0.0235 0.9879 -0.1536
vn -0.0223 0.9801 -0.1971
vn -0.0223 0.9801 -0.1971
vn -0.0223 0.9801 -0.1971
vn -0.0171 0.988 -0.1536
vn -0.0171 0.988 -0.1536
vn -0.0171 0.988 -0.1536
vn -0.0171 0.988 -0.1536
vn -0.0171 0.988 -0.1536
vn -0.0171 0.988 -0.1536
vn -0.0554 0.9866 -0.1533
vn -0.0554 0.9866 -0.1533
vn -0.0554 0.9866 -0.1533
vn 0.0171 0.9883 -0.1515
vn 0.0171 0.9883 -0.1515
vn 0.0171 0.9883 -0.1515
vn 0.0593 0.9864 -0.1533
vn 0.0593 0.9864 -0.1533
vn 0.0593 0.9864 -0.1533
vn 0.0685 0.9874 -0.1426
vn 0.0685 0.9874 -0.1426
vn 0.0685 0.9874 -0.1426
vn 0.0685 0.9874 -0.1426
vn -0.0332 0.9933 -0.1109
vn -0.0332 0.9933 -0.1109
vn -0.0332 0.9933 -0.1109
vn -0.0171 0.988 -0.1536
vn -0.0171 0.988 -0.1536
vn -0.0171 0.988 -0.1536
vn 0.0171 0.9883 -0.1515
vn 0.0171 0.9883 -0.1515
vn 0.0171 0.9883 -0.1515
vn 0 0 0
vn 0 0 0
vt 0.202834 0.735251
vt 0.202834 0.734069
vt 0.196196 0.735251
vt 0.187576 0.731742
vt 0.18708 0.73281
vt 0.192229 0.73281
vt 0.190322 0.725563
vt 0.191772 0.731742
vt 0.194747 0.735251
vt 0.210157 0.725563
vt 0.205466 0.726783
vt 0.206839 0.726783
vt 0.194747 0.735251
vt 0.192229 0.73281
vt 0.193297 0.735251
vt 0.194747 0.735251
vt 0.191772 0.731742
vt 0.192229 0.73281
vt 0.187576 0.731742
vt 0.192229 0.73281
vt 0.191772 0.731742
vt 0.188987 0.725563
vt 0.187576 0.731742
vt 0.189674 0.726974
vt 0.189674 0.726974
vt 0.191772 0.731742
vt 0.190322 0.725563
vt 0.188987 0.725563
vt 0.189674 0.726974
vt 0.190322 0.725563
vt 0.197608 0.734069
vt 0.196196 0.735251
vt 0.202834 0.734069
vt 0.205466 0.735251
vt 0.206839 0.735251
vt 0.205466 0.726783
vt 0.205466 0.726783
vt 0.202147 0.725563
vt 0.202147 0.726783
vt 0.206839 0.726783
vt 0.210157 0.726783
vt 0.210157 0.725563
vt 0.196196 0.735251
vt 0.197608 0.734069
vt 0.196196 0.725563
vt 0.1846 0.735251
vt 0.186012 0.735251
vt 0.18708 0.73281
vt 0.187576 0.731742
vt 0.188987 0.725563
vt 0.1846 0.735251
vt 0.18708 0.73281
vt 0.210157 0.725563
vt 0.202147 0.725563
vt 0.205466 0.726783
vt 0.205466 0.726783
vt 0.206839 0.735251
vt 0.206839 0.726783
vt 0.197608 0.734069
vt 0.197608 0.725563
vt 0.196196 0.725563
vt 0 1
vt 0 1
s off
f 1/1/1 2/2/2 3/3/3
f 4/4/4 5/5/5 6/6/6
f 7/7/7 8/8/8 9/9/9
f 10/10/10 11/11/11 12/12/12
f 13/13/13 14/14/14 15/15/15
f 16/16/16 17/17/17 18/18/18
f 19/19/19 20/20/20 21/21/21
f 22/22/22 23/23/23 24/24/24
f 25/25/25 26/26/26 27/27/27
f 28/28/28 29/29/29 30/30/30
f 31/31/31 32/32/32 33/33/33
f 34/34/34 35/35/35 36/36/36
f 37/37/37 38/38/38 39/39/39
f 40/40/40 41/41/41 42/42/42
f 43/43/43 44/44/44 45/45/45
f 46/46/46 47/47/47 48/48/48
f 49/49/49 50/50/50 51/51/51
f 49/49/49 51/51/51 52/52/52
f 53/53/53 54/54/54 55/55/55
f 56/56/56 57/57/57 58/58/58
f 59/59/59 60/60/60 61/61/61
