v -0.569411 0.120517 0.258071
v -0.569411 0.109254 0.2577
v -0.596449 0.109254 0.2577
v -0.596449 0.120517 0.258071
v -0.569411 0.109254 0.2577
v -0.569411 0.120517 0.258071
v -0.557456 0.120517 0.258071
v -0.557443 0.109254 0.2577
v -0.557456 0.120517 0.258071
v -0.548519 0.120397 0.261697
v -0.548515 0.109135 0.261326
v -0.557443 0.109254 0.2577
v -0.548519 0.120397 0.261697
v -0.544817 0.12011 0.270452
v -0.544817 0.108848 0.270078
v -0.548515 0.109135 0.261326
v -0.544817 0.105573 0.369738
v -0.544817 0.108848 0.270078
v -0.544817 0.12011 0.270452
v -0.544817 0.116836 0.370093
v -0.54846 0.105279 0.378695
v -0.544817 0.105573 0.369738
v -0.544817 0.116836 0.370093
v -0.548462 0.116541 0.379061
v -0.548462 0.116541 0.379061
v -0.544817 0.116836 0.370093
v -0.558716 0.174061 0.356608
v -0.564543 0.174315 0.36248
v -0.544817 0.12011 0.270452
v -0.558436 0.159511 0.273239
v -0.558716 0.174061 0.356608
v -0.544817 0.116836 0.370093
v -0.562046 0.176111 0.35477
v -0.565202 0.176408 0.358833
v -0.564543 0.174315 0.36248
v -0.558716 0.174061 0.356608
v -0.562046 0.176111 0.35477
v -0.558716 0.174061 0.356608
v -0.558436 0.159511 0.273239
v -0.562064 0.162112 0.274605
v -0.565453 0.161048 0.269705
v -0.562064 0.162112 0.274605
v -0.558436 0.159511 0.273239
v -0.564537 0.157878 0.266364
v -0.564537 0.157878 0.266364
v -0.558436 0.159511 0.273239
v -0.548519 0.120397 0.261697
v -0.557456 0.120517 0.258071
v -0.558436 0.159511 0.273239
v -0.544817 0.12011 0.270452
v -0.548519 0.120397 0.261697
v -0.580678 0.159771 0.269449
v -0.565453 0.161048 0.269705
v -0.564537 0.157878 0.266364
v -0.579911 0.156664 0.266095
v -0.579911 0.156664 0.266095
v -0.564537 0.157878 0.266364
v -0.557456 0.120517 0.258071
v -0.569411 0.120517 0.258071
v -0.579911 0.156664 0.266095
v -0.601673 0.155576 0.265853
v -0.60207 0.158659 0.269218
v -0.580678 0.159771 0.269449
v -0.579911 0.156664 0.266095
v -0.569411 0.120517 0.258071
v -0.596449 0.120517 0.258071
v -0.601673 0.155576 0.265853
v -0.601673 0.155576 0.265853
v -0.623486 0.155273 0.265786
v -0.623486 0.158347 0.269154
v -0.60207 0.158659 0.269218
v -0.601673 0.155576 0.265853
v -0.596449 0.120517 0.258071
v -0.623486 0.120517 0.258071
v -0.623486 0.155273 0.265786
v -0.596449 0.120517 0.258071
v -0.596449 0.109254 0.2577
v -0.623486 0.109254 0.2577
v -0.623486 0.120517 0.258071
v -0.623486 0.120517 0.258071
v -0.623486 0.109254 0.2577
v -0.650523 0.109254 0.2577
v -0.650523 0.120517 0.25807
v -0.623486 0.155273 0.265786
v -0.623486 0.120517 0.258071
v -0.650523 0.120517 0.25807
v -0.645299 0.155576 0.265853
v -0.650523 0.120517 0.25807
v -0.650523 0.109254 0.2577
v -0.677561 0.109254 0.2577
v -0.677561 0.120517 0.25807
v -0.689529 0.109254 0.2577
v -0.689516 0.120517 0.25807
v -0.677561 0.120517 0.25807
v -0.677561 0.109254 0.2577
v -0.689529 0.109254 0.2577
v -0.698457 0.109135 0.261326
v -0.698453 0.120397 0.261697
v -0.689516 0.120517 0.25807
v -0.698457 0.109135 0.261326
v -0.702154 0.108848 0.270078
v -0.702154 0.12011 0.270452
v -0.698453 0.120397 0.261697
v -0.702154 0.105573 0.369738
v -0.702154 0.116836 0.370093
v -0.702154 0.12011 0.270452
v -0.702154 0.108848 0.270078
v -0.702154 0.105573 0.369738
v -0.698512 0.105279 0.378695
v -0.69851 0.116541 0.379061
v -0.702154 0.116836 0.370093
v -0.698512 0.105279 0.378695
v -0.689717 0.105157 0.382405
v -0.689712 0.116419 0.382775
v -0.69851 0.116541 0.379061
v -0.677561 0.105157 0.382405
v -0.677561 0.116419 0.382775
v -0.689712 0.116419 0.382775
v -0.689717 0.105157 0.382405
v -0.677561 0.116419 0.382775
v -0.677561 0.105157 0.382405
v -0.650523 0.105157 0.382405
v -0.650523 0.116419 0.382775
v -0.650523 0.116419 0.382775
v -0.650523 0.105157 0.382405
v -0.623486 0.105157 0.382405
v -0.623486 0.116419 0.382775
v -0.623486 0.116419 0.382775
v -0.623486 0.105157 0.382405
v -0.596449 0.105157 0.382405
v -0.596449 0.116419 0.382775
v -0.596449 0.116419 0.382775
v -0.596449 0.105157 0.382405
v -0.569411 0.105157 0.382405
v -0.569411 0.116419 0.382775
v -0.557254 0.105157 0.382405
v -0.55726 0.116419 0.382775
v -0.569411 0.116419 0.382775
v -0.569411 0.105157 0.382405
v -0.557254 0.105157 0.382405
v -0.54846 0.105279 0.378695
v -0.548462 0.116541 0.379061
v -0.55726 0.116419 0.382775
v -0.55726 0.116419 0.382775
v -0.548462 0.116541 0.379061
v -0.564543 0.174315 0.36248
v -0.564543 0.174315 0.36248
v -0.580136 0.172363 0.363164
v -0.569411 0.116419 0.382775
v -0.55726 0.116419 0.382775
v -0.601768 0.170647 0.363766
v -0.596449 0.116419 0.382775
v -0.569411 0.116419 0.382775
v -0.580136 0.172363 0.363164
v -0.580633 0.174474 0.35951
v -0.602024 0.172778 0.360105
v -0.601768 0.170647 0.363766
v -0.580136 0.172363 0.363164
v -0.565202 0.176408 0.358833
v -0.580633 0.174474 0.35951
v -0.580136 0.172363 0.363164
v -0.564543 0.174315 0.36248
v -0.602024 0.172778 0.360105
v -0.623486 0.172303 0.360271
v -0.623486 0.170168 0.363934
v -0.601768 0.170647 0.363766
v -0.623486 0.170168 0.363934
v -0.623486 0.116419 0.382775
v -0.596449 0.116419 0.382775
v -0.601768 0.170647 0.363766
v -0.623486 0.172303 0.360271
v -0.644948 0.172778 0.360105
v -0.645204 0.170647 0.363766
v -0.623486 0.170168 0.363934
v -0.645204 0.170647 0.363766
v -0.650523 0.116419 0.382775
v -0.623486 0.116419 0.382775
v -0.623486 0.170168 0.363934
v -0.644948 0.172778 0.360105
v -0.666339 0.174474 0.35951
v -0.666836 0.172363 0.363164
v -0.645204 0.170647 0.363766
v -0.666836 0.172363 0.363164
v -0.677561 0.116419 0.382775
v -0.650523 0.116419 0.382775
v -0.645204 0.170647 0.363766
v -0.666339 0.174474 0.35951
v -0.68177 0.176408 0.358833
v -0.682429 0.174315 0.36248
v -0.666836 0.172363 0.363164
v -0.666836 0.172363 0.363164
v -0.682429 0.174315 0.36248
v -0.689712 0.116419 0.382775
v -0.677561 0.116419 0.382775
v -0.68177 0.176408 0.358833
v -0.684926 0.176111 0.35477
v -0.688256 0.174061 0.356608
v -0.682429 0.174315 0.36248
v -0.702154 0.116836 0.370093
v -0.69851 0.116541 0.379061
v -0.682429 0.174315 0.36248
v -0.688256 0.174061 0.356608
v -0.69851 0.116541 0.379061
v -0.689712 0.116419 0.382775
v -0.682429 0.174315 0.36248
v -0.688536 0.159511 0.273239
v -0.688256 0.174061 0.356608
v -0.684926 0.176111 0.35477
v -0.684908 0.162112 0.274605
v -0.688536 0.159511 0.273239
v -0.702154 0.12011 0.270452
v -0.702154 0.116836 0.370093
v -0.688256 0.174061 0.356608
v -0.684908 0.162112 0.274605
v -0.681519 0.161048 0.269705
v -0.682435 0.157878 0.266364
v -0.688536 0.159511 0.273239
v -0.689516 0.120517 0.25807
v -0.698453 0.120397 0.261697
v -0.688536 0.159511 0.273239
v -0.682435 0.157878 0.266364
v -0.698453 0.120397 0.261697
v -0.702154 0.12011 0.270452
v -0.688536 0.159511 0.273239
v -0.681519 0.161048 0.269705
v -0.666294 0.159771 0.269449
v -0.66706 0.156664 0.266094
v -0.682435 0.157878 0.266364
v -0.682435 0.157878 0.266364
v -0.66706 0.156664 0.266094
v -0.677561 0.120517 0.25807
v -0.689516 0.120517 0.25807
v -0.645299 0.155576 0.265853
v -0.66706 0.156664 0.266094
v -0.666294 0.159771 0.269449
v -0.644902 0.158659 0.269218
v -0.645299 0.155576 0.265853
v -0.650523 0.120517 0.25807
v -0.677561 0.120517 0.25807
v -0.66706 0.156664 0.266094
v -0.644935 0.16044 0.282575
v -0.644902 0.158659 0.269218
v -0.666294 0.159771 0.269449
v -0.666374 0.161742 0.28266
v -0.684908 0.162112 0.274605
v -0.666374 0.161742 0.28266
v -0.666294 0.159771 0.269449
v -0.681519 0.161048 0.269705
v -0.666374 0.161742 0.28266
v -0.666343 0.172148 0.346352
v -0.644949 0.170431 0.346834
v -0.644935 0.16044 0.282575
v -0.666374 0.161742 0.28266
v -0.684908 0.162112 0.274605
v -0.684926 0.176111 0.35477
v -0.666343 0.172148 0.346352
v -0.644948 0.172778 0.360105
v -0.644949 0.170431 0.346834
v -0.666343 0.172148 0.346352
v -0.666339 0.174474 0.35951
v -0.684926 0.176111 0.35477
v -0.68177 0.176408 0.358833
v -0.666339 0.174474 0.35951
v -0.666343 0.172148 0.346352
v -0.644935 0.16044 0.282575
v -0.644949 0.170431 0.346834
v -0.623486 0.169941 0.346971
v -0.623486 0.160065 0.282552
v -0.623486 0.172303 0.360271
v -0.623486 0.169941 0.346971
v -0.644949 0.170431 0.346834
v -0.644948 0.172778 0.360105
v -0.623486 0.160065 0.282552
v -0.623486 0.169941 0.346971
v -0.602023 0.170431 0.346834
v -0.602037 0.16044 0.282575
v -0.602024 0.172778 0.360105
v -0.602023 0.170431 0.346834
v -0.623486 0.169941 0.346971
v -0.623486 0.172303 0.360271
v -0.602037 0.16044 0.282575
v -0.602023 0.170431 0.346834
v -0.580629 0.172148 0.346352
v -0.580597 0.161742 0.28266
v -0.580633 0.174474 0.35951
v -0.580629 0.172148 0.346352
v -0.602023 0.170431 0.346834
v -0.602024 0.172778 0.360105
v -0.580597 0.161742 0.28266
v -0.580678 0.159771 0.269449
v -0.60207 0.158659 0.269218
v -0.602037 0.16044 0.282575
v -0.602037 0.16044 0.282575
v -0.60207 0.158659 0.269218
v -0.623486 0.158347 0.269154
v -0.623486 0.160065 0.282552
v -0.562064 0.162112 0.274605
v -0.580597 0.161742 0.28266
v -0.580629 0.172148 0.346352
v -0.562046 0.176111 0.35477
v -0.580597 0.161742 0.28266
v -0.562064 0.162112 0.274605
v -0.565453 0.161048 0.269705
v -0.580678 0.159771 0.269449
v -0.580633 0.174474 0.35951
v -0.565202 0.176408 0.358833
v -0.562046 0.176111 0.35477
v -0.580629 0.172148 0.346352
v -0.623486 0.160065 0.282552
v -0.623486 0.158347 0.269154
v -0.644902 0.158659 0.269218
v -0.644935 0.16044 0.282575
v -0.623486 0.155273 0.265786
v -0.645299 0.155576 0.265853
v -0.644902 0.158659 0.269218
v -0.623486 0.158347 0.269154
vn -0 0.0328 -0.9995
vn -0 0.0328 -0.9995
vn -0 0.0328 -0.9995
vn -0 0.0328 -0.9995
vn -0 0.0328 -0.9995
vn -0 0.0328 -0.9995
vn 0.1711 0.0325 -0.9847
vn 0.1711 0.0325 -0.9847
vn 0.1711 0.0325 -0.9847
vn 0.7002 0.0238 -0.7136
vn 0.7001 0.0238 -0.7136
vn 0.1711 0.0325 -0.9847
vn 0.7002 0.0238 -0.7136
vn 0.9993 0.0014 -0.0379
vn 0.9993 0.0014 -0.0379
vn 0.7001 0.0238 -0.7136
vn 0.9993 -0.001 0.0373
vn 0.9993 0.0014 -0.0379
vn 0.9993 0.0014 -0.0379
vn 0.9993 -0.001 0.0373
vn 0.7139 -0.0226 0.6999
vn 0.9993 -0.001 0.0373
vn 0.9993 -0.001 0.0373
vn 0.7138 -0.0226 0.7
vn 0.6658 0.3476 0.6602
vn 0.9619 0.273 -0.0118
vn 0.9621 0.2724 -0.0153
vn 0.1165 0.3789 0.9181
vn 0.9618 0.2731 -0.019
vn 0.9621 0.2724 -0.0153
vn 0.9621 0.2724 -0.0153
vn 0.9619 0.273 -0.0118
vn -0.1231 0.9777 -0.17
vn -0.13 0.9764 -0.1725
vn 0.1165 0.3789 0.9181
vn 0.9621 0.2724 -0.0153
vn -0.1231 0.9777 -0.17
vn 0.9621 0.2724 -0.0153
vn 0.9621 0.2724 -0.0153
vn -0.0911 0.9833 -0.1576
vn -0.0805 0.985 -0.1528
vn -0.0911 0.9833 -0.1576
vn 0.9621 0.2724 -0.0153
vn 0.1235 0.296 -0.9472
vn 0.1235 0.296 -0.9472
vn 0.9621 0.2724 -0.0153
vn 0.6726 0.3216 -0.6665
vn 0.1368 0.2403 -0.961
vn 0.9621 0.2724 -0.0153
vn 0.9618 0.2731 -0.019
vn 0.6726 0.3216 -0.6665
vn -0.0682 0.9866 -0.1482
vn -0.0805 0.985 -0.1528
vn 0.1235 0.296 -0.9472
vn -0.0043 0.2801 -0.96
vn -0.0043 0.2801 -0.96
vn 0.1235 0.296 -0.9472
vn 0.1368 0.2403 -0.961
vn -0 0.2167 -0.9762
vn -0.0043 0.2801 -0.96
vn -0.0021 0.2771 -0.9609
vn -0.0349 0.9898 -0.1384
vn -0.0682 0.9866 -0.1482
vn -0.0043 0.2801 -0.96
vn -0 0.2167 -0.9762
vn -0 0.2167 -0.9762
vn -0.0021 0.2771 -0.9609
vn -0.0021 0.2771 -0.9609
vn -0.0001 0.2779 -0.9606
vn -0 0.991 -0.1335
vn -0.0349 0.9898 -0.1384
vn -0.0021 0.2771 -0.9609
vn -0 0.2167 -0.9762
vn -0 0.2167 -0.9762
vn -0.0001 0.2779 -0.9606
vn -0 0.0328 -0.9995
vn -0 0.0328 -0.9995
vn -0 0.0328 -0.9995
vn -0 0.0328 -0.9995
vn -0 0.0328 -0.9995
vn -0 0.0328 -0.9995
vn -0 0.0328 -0.9995
vn -0 0.0328 -0.9995
vn -0.0001 0.2779 -0.9606
vn -0 0.2167 -0.9762
vn -0 0.2167 -0.9762
vn 0.0021 0.2771 -0.9609
vn -0 0.0328 -0.9995
vn -0 0.0328 -0.9995
vn -0 0.0328 -0.9995
vn -0 0.0328 -0.9995
vn -0.1711 0.0325 -0.9847
vn -0.1711 0.0325 -0.9847
vn -0 0.0328 -0.9995
vn -0 0.0328 -0.9995
vn -0.1711 0.0325 -0.9847
vn -0.7002 0.0238 -0.7135
vn -0.7001 0.0238 -0.7136
vn -0.1711 0.0325 -0.9847
vn -0.7002 0.0238 -0.7135
vn -0.9993 0.0014 -0.0379
vn -0.9993 0.0012 -0.0379
vn -0.7001 0.0238 -0.7136
vn -0.9993 -0.0013 0.0373
vn -0.9993 -0.001 0.0373
vn -0.9993 0.0012 -0.0379
vn -0.9993 0.0014 -0.0379
vn -0.9993 -0.0013 0.0373
vn -0.7139 -0.0226 0.6999
vn -0.7138 -0.0226 0.7
vn -0.9993 -0.001 0.0373
vn -0.7139 -0.0226 0.6999
vn -0.1746 -0.0322 0.9841
vn -0.1746 -0.0322 0.9841
vn -0.7138 -0.0226 0.7
vn -0 -0.0328 0.9995
vn -0 -0.0328 0.9995
vn -0.1746 -0.0322 0.9841
vn -0.1746 -0.0322 0.9841
vn -0 -0.0328 0.9995
vn -0 -0.0328 0.9995
vn -0 -0.0328 0.9995
vn -0 -0.0328 0.9995
vn -0 -0.0328 0.9995
vn -0 -0.0328 0.9995
vn -0 -0.0328 0.9995
vn -0 -0.0328 0.9995
vn -0 -0.0328 0.9995
vn -0 -0.0328 0.9995
vn -0 -0.0328 0.9995
vn -0 -0.0328 0.9995
vn -0 -0.0328 0.9995
vn -0 -0.0328 0.9995
vn -0 -0.0328 0.9995
vn -0 -0.0328 0.9995
vn 0.1746 -0.0322 0.9841
vn 0.1746 -0.0322 0.9841
vn -0 -0.0328 0.9995
vn -0 -0.0328 0.9995
vn 0.1746 -0.0322 0.9841
vn 0.7139 -0.0226 0.6999
vn 0.7138 -0.0226 0.7
vn 0.1746 -0.0322 0.9841
vn 0.125 0.3423 0.9312
vn 0.6658 0.3476 0.6602
vn 0.1165 0.3789 0.9181
vn 0.1165 0.3789 0.9181
vn -0.0048 0.3742 0.9273
vn -0 0.3308 0.9437
vn 0.125 0.3423 0.9312
vn -0.0024 0.3719 0.9283
vn -0 0.3308 0.9437
vn -0 0.3308 0.9437
vn -0.0048 0.3742 0.9273
vn -0.106 0.9798 -0.1693
vn -0.0528 0.984 -0.1703
vn -0.0024 0.3719 0.9283
vn -0.0048 0.3742 0.9273
vn -0.13 0.9764 -0.1725
vn -0.106 0.9798 -0.1693
vn -0.0048 0.3742 0.9273
vn 0.1165 0.3789 0.9181
vn -0.0528 0.984 -0.1703
vn -0 0.9853 -0.1707
vn 0.0003 0.3724 0.9281
vn -0.0024 0.3719 0.9283
vn 0.0003 0.3724 0.9281
vn -0 0.3308 0.9437
vn -0 0.3308 0.9437
vn -0.0024 0.3719 0.9283
vn -0 0.9853 -0.1707
vn 0.0528 0.984 -0.1703
vn 0.0024 0.3719 0.9283
vn 0.0003 0.3724 0.9281
vn 0.0024 0.3719 0.9283
vn -0 0.3308 0.9437
vn -0 0.3308 0.9437
vn 0.0003 0.3724 0.9281
vn 0.0528 0.984 -0.1703
vn 0.106 0.9798 -0.1693
vn 0.0049 0.3742 0.9273
vn 0.0024 0.3719 0.9283
vn 0.0049 0.3742 0.9273
vn -0 0.3308 0.9437
vn -0 0.3308 0.9437
vn 0.0024 0.3719 0.9283
vn 0.106 0.9798 -0.1693
vn 0.13 0.9764 -0.1725
vn -0.1165 0.379 0.918
vn 0.0049 0.3742 0.9273
vn 0.0049 0.3742 0.9273
vn -0.1165 0.379 0.918
vn -0.1251 0.3423 0.9312
vn -0 0.3308 0.9437
vn 0.13 0.9764 -0.1725
vn 0.1231 0.9777 -0.1701
vn -0.9621 0.2724 -0.0153
vn -0.1165 0.379 0.918
vn -0.9619 0.273 -0.0119
vn -0.6658 0.3476 0.6602
vn -0.1165 0.379 0.918
vn -0.9621 0.2724 -0.0153
vn -0.6658 0.3476 0.6602
vn -0.1251 0.3423 0.9312
vn -0.1165 0.379 0.918
vn -0.9621 0.2723 -0.0153
vn -0.9621 0.2724 -0.0153
vn 0.1231 0.9777 -0.1701
vn 0.0911 0.9833 -0.1576
vn -0.9621 0.2723 -0.0153
vn -0.9618 0.2731 -0.019
vn -0.9619 0.273 -0.0119
vn -0.9621 0.2724 -0.0153
vn 0.0911 0.9833 -0.1576
vn 0.0805 0.985 -0.1528
vn -0.1236 0.296 -0.9472
vn -0.9621 0.2723 -0.0153
vn -0.1368 0.2403 -0.961
vn -0.6726 0.3216 -0.6665
vn -0.9621 0.2723 -0.0153
vn -0.1236 0.296 -0.9472
vn -0.6726 0.3216 -0.6665
vn -0.9618 0.2731 -0.019
vn -0.9621 0.2723 -0.0153
vn 0.0805 0.985 -0.1528
vn 0.0682 0.9866 -0.1482
vn 0.0043 0.2801 -0.96
vn -0.1236 0.296 -0.9472
vn -0.1236 0.296 -0.9472
vn 0.0043 0.2801 -0.96
vn -0 0.2167 -0.9762
vn -0.1368 0.2403 -0.961
vn 0.0021 0.2771 -0.9609
vn 0.0043 0.2801 -0.96
vn 0.0682 0.9866 -0.1482
vn 0.0349 0.9898 -0.1384
vn 0.0021 0.2771 -0.9609
vn -0 0.2167 -0.9762
vn -0 0.2167 -0.9762
vn 0.0043 0.2801 -0.96
vn 0.0404 0.9887 -0.1447
vn 0.0349 0.9898 -0.1384
vn 0.0682 0.9866 -0.1482
vn 0.0822 0.9846 -0.1542
vn 0.0911 0.9833 -0.1576
vn 0.0822 0.9846 -0.1542
vn 0.0682 0.9866 -0.1482
vn 0.0805 0.985 -0.1528
vn 0.0822 0.9846 -0.1542
vn 0.0978 0.9811 -0.1669
vn 0.0493 0.9851 -0.1645
vn 0.0404 0.9887 -0.1447
vn 0.0822 0.9846 -0.1542
vn 0.0911 0.9833 -0.1576
vn 0.1231 0.9777 -0.1701
vn 0.0978 0.9811 -0.1669
vn 0.0528 0.984 -0.1703
vn 0.0493 0.9851 -0.1645
vn 0.0978 0.9811 -0.1669
vn 0.106 0.9798 -0.1693
vn 0.1231 0.9777 -0.1701
vn 0.13 0.9764 -0.1725
vn 0.106 0.9798 -0.1693
vn 0.0978 0.9811 -0.1669
vn 0.0404 0.9887 -0.1447
vn 0.0493 0.9851 -0.1645
vn -0 0.9865 -0.1636
vn -0 0.99 -0.1411
vn -0 0.9853 -0.1707
vn -0 0.9865 -0.1636
vn 0.0493 0.9851 -0.1645
vn 0.0528 0.984 -0.1703
vn -0 0.99 -0.1411
vn -0 0.9865 -0.1636
vn -0.0493 0.9851 -0.1645
vn -0.0404 0.9887 -0.1447
vn -0.0528 0.984 -0.1703
vn -0.0493 0.9851 -0.1645
vn -0 0.9865 -0.1636
vn -0 0.9853 -0.1707
vn -0.0404 0.9887 -0.1447
vn -0.0493 0.9851 -0.1645
vn -0.0978 0.9811 -0.1669
vn -0.0822 0.9846 -0.1542
vn -0.106 0.9798 -0.1693
vn -0.0978 0.9811 -0.1669
vn -0.0493 0.9851 -0.1645
vn -0.0528 0.984 -0.1703
vn -0.0822 0.9846 -0.1542
vn -0.0682 0.9866 -0.1482
vn -0.0349 0.9898 -0.1384
vn -0.0404 0.9887 -0.1447
vn -0.0404 0.9887 -0.1447
vn -0.0349 0.9898 -0.1384
vn -0 0.991 -0.1335
vn -0 0.99 -0.1411
vn -0.0911 0.9833 -0.1576
vn -0.0822 0.9846 -0.1542
vn -0.0978 0.9811 -0.1669
vn -0.1231 0.9777 -0.17
vn -0.0822 0.9846 -0.1542
vn -0.0911 0.9833 -0.1576
vn -0.0805 0.985 -0.1528
vn -0.0682 0.9866 -0.1482
vn -0.106 0.9798 -0.1693
vn -0.13 0.9764 -0.1725
vn -0.1231 0.9777 -0.17
vn -0.0978 0.9811 -0.1669
vn -0 0.99 -0.1411
vn -0 0.991 -0.1335
vn 0.0349 0.9898 -0.1384
vn 0.0404 0.9887 -0.1447
vn -0.0001 0.2779 -0.9606
vn 0.0021 0.2771 -0.9609
vn 0.0349 0.9898 -0.1384
vn -0 0.991 -0.1335
vt 0.220794 0.314889
vt 0.220794 0.312771
vt 0.207537 0.312771
vt 0.207537 0.314889
vt 0.220794 0.312771
vt 0.220794 0.314889
vt 0.226178 0.31482
vt 0.226663 0.312771
vt 0.226178 0.31482
vt 0.229626 0.316031
vt 0.23104 0.314548
vt 0.226663 0.312771
vt 0.229626 0.316031
vt 0.230963 0.319404
vt 0.232854 0.31884
vt 0.23104 0.314548
vt 0.232854 0.367708
vt 0.232854 0.31884
vt 0.230963 0.319404
vt 0.230986 0.367405
vt 0.231067 0.3721
vt 0.232854 0.367708
vt 0.230986 0.367405
vt 0.22976 0.370865
vt 0.22976 0.370865
vt 0.230986 0.367405
vt 0.221036 0.359177
vt 0.218629 0.361603
vt 0.230963 0.319404
vt 0.221152 0.324736
vt 0.221036 0.359177
vt 0.230986 0.367405
vt 0.219661 0.358418
vt 0.218357 0.360096
vt 0.218629 0.361603
vt 0.221036 0.359177
vt 0.219661 0.358418
vt 0.221036 0.359177
vt 0.221152 0.324736
vt 0.219654 0.325301
vt 0.218253 0.323277
vt 0.219654 0.325301
vt 0.221152 0.324736
vt 0.218632 0.321896
vt 0.218632 0.321896
vt 0.221152 0.324736
vt 0.229626 0.316031
vt 0.226178 0.31482
vt 0.221152 0.324736
vt 0.230963 0.319404
vt 0.229626 0.316031
vt 0.211964 0.323171
vt 0.218253 0.323277
vt 0.218632 0.321896
vt 0.21228 0.321785
vt 0.21228 0.321785
vt 0.218632 0.321896
vt 0.226178 0.31482
vt 0.220794 0.314889
vt 0.21228 0.321785
vt 0.203291 0.321685
vt 0.203126 0.323075
vt 0.211964 0.323171
vt 0.21228 0.321785
vt 0.220794 0.314889
vt 0.207537 0.314889
vt 0.203291 0.321685
vt 0.203291 0.321685
vt 0.194279 0.321657
vt 0.194279 0.323049
vt 0.203126 0.323075
vt 0.203291 0.321685
vt 0.207537 0.314889
vt 0.194279 0.314889
vt 0.194279 0.321657
vt 0.207537 0.314889
vt 0.207537 0.312771
vt 0.194279 0.312771
vt 0.194279 0.314889
vt 0.194279 0.314889
vt 0.194279 0.312771
vt 0.181022 0.312771
vt 0.181022 0.314889
vt 0.194279 0.321657
vt 0.194279 0.314889
vt 0.181022 0.314889
vt 0.185268 0.321685
vt 0.181022 0.314889
vt 0.181022 0.312771
vt 0.167764 0.312771
vt 0.167764 0.314889
vt 0.161896 0.312771
vt 0.16238 0.31482
vt 0.167764 0.314889
vt 0.167764 0.312771
vt 0.161896 0.312771
vt 0.157518 0.314548
vt 0.158933 0.316031
vt 0.16238 0.31482
vt 0.157518 0.314548
vt 0.155705 0.31884
vt 0.157595 0.319404
vt 0.158933 0.316031
vt 0.155705 0.367708
vt 0.157573 0.367405
vt 0.157595 0.319404
vt 0.155705 0.31884
vt 0.155705 0.367708
vt 0.157491 0.372099
vt 0.158798 0.370865
vt 0.157573 0.367405
vt 0.157491 0.372099
vt 0.161803 0.373919
vt 0.162191 0.372211
vt 0.158798 0.370865
vt 0.167764 0.373919
vt 0.167764 0.372171
vt 0.162191 0.372211
vt 0.161803 0.373919
vt 0.167764 0.372171
vt 0.167764 0.373919
vt 0.181022 0.373919
vt 0.181022 0.372171
vt 0.181022 0.372171
vt 0.181022 0.373919
vt 0.194279 0.373919
vt 0.194279 0.372171
vt 0.194279 0.372171
vt 0.194279 0.373919
vt 0.207537 0.373919
vt 0.207537 0.372171
vt 0.207537 0.372171
vt 0.207537 0.373919
vt 0.220794 0.373919
vt 0.220794 0.372171
vt 0.226755 0.373919
vt 0.226367 0.372211
vt 0.220794 0.372171
vt 0.220794 0.373919
vt 0.226755 0.373919
vt 0.231067 0.3721
vt 0.22976 0.370865
vt 0.226367 0.372211
vt 0.226367 0.372211
vt 0.22976 0.370865
vt 0.218629 0.361603
vt 0.218629 0.361603
vt 0.212188 0.361886
vt 0.220794 0.372171
vt 0.226367 0.372211
vt 0.203251 0.362134
vt 0.207537 0.372171
vt 0.220794 0.372171
vt 0.212188 0.361886
vt 0.211982 0.360376
vt 0.203145 0.360622
vt 0.203251 0.362134
vt 0.212188 0.361886
vt 0.218357 0.360096
vt 0.211982 0.360376
vt 0.212188 0.361886
vt 0.218629 0.361603
vt 0.203145 0.360622
vt 0.194279 0.360691
vt 0.194279 0.362204
vt 0.203251 0.362134
vt 0.194279 0.362204
vt 0.194279 0.372171
vt 0.207537 0.372171
vt 0.203251 0.362134
vt 0.194279 0.360691
vt 0.185413 0.360622
vt 0.185307 0.362134
vt 0.194279 0.362204
vt 0.185307 0.362134
vt 0.181022 0.372171
vt 0.194279 0.372171
vt 0.194279 0.362204
vt 0.185413 0.360622
vt 0.176576 0.360376
vt 0.176371 0.361886
vt 0.185307 0.362134
vt 0.176371 0.361886
vt 0.167764 0.372171
vt 0.181022 0.372171
vt 0.185307 0.362134
vt 0.176576 0.360376
vt 0.170201 0.360096
vt 0.169929 0.361603
vt 0.176371 0.361886
vt 0.176371 0.361886
vt 0.169929 0.361603
vt 0.162191 0.372211
vt 0.167764 0.372171
vt 0.170201 0.360096
vt 0.168898 0.358418
vt 0.167522 0.359177
vt 0.169929 0.361603
vt 0.157573 0.367405
vt 0.158798 0.370865
vt 0.169929 0.361603
vt 0.167522 0.359177
vt 0.158798 0.370865
vt 0.162191 0.372211
vt 0.169929 0.361603
vt 0.167406 0.324736
vt 0.167522 0.359177
vt 0.168898 0.358418
vt 0.168905 0.325301
vt 0.167406 0.324736
vt 0.157595 0.319404
vt 0.157573 0.367405
vt 0.167522 0.359177
vt 0.168905 0.325301
vt 0.170305 0.323277
vt 0.169926 0.321896
vt 0.167406 0.324736
vt 0.16238 0.31482
vt 0.158933 0.316031
vt 0.167406 0.324736
vt 0.169926 0.321896
vt 0.158933 0.316031
vt 0.157595 0.319404
vt 0.167406 0.324736
vt 0.170305 0.323277
vt 0.176595 0.323171
vt 0.176278 0.321785
vt 0.169926 0.321896
vt 0.169926 0.321896
vt 0.176278 0.321785
vt 0.167764 0.314889
vt 0.16238 0.31482
vt 0.185268 0.321685
vt 0.176278 0.321785
vt 0.176595 0.323171
vt 0.185432 0.323075
vt 0.185268 0.321685
vt 0.181022 0.314889
vt 0.167764 0.314889
vt 0.176278 0.321785
vt 0.185418 0.328593
vt 0.185432 0.323075
vt 0.176595 0.323171
vt 0.176561 0.328629
vt 0.168905 0.325301
vt 0.176561 0.328629
vt 0.176595 0.323171
vt 0.170305 0.323277
vt 0.176561 0.328629
vt 0.176574 0.354941
vt 0.185413 0.355139
vt 0.185418 0.328593
vt 0.176561 0.328629
vt 0.168905 0.325301
vt 0.168898 0.358418
vt 0.176574 0.354941
vt 0.185413 0.360622
vt 0.185413 0.355139
vt 0.176574 0.354941
vt 0.176576 0.360376
vt 0.168898 0.358418
vt 0.170201 0.360096
vt 0.176576 0.360376
vt 0.176574 0.354941
vt 0.185418 0.328593
vt 0.185413 0.355139
vt 0.194279 0.355196
vt 0.194279 0.328584
vt 0.194279 0.360691
vt 0.194279 0.355196
vt 0.185413 0.355139
vt 0.185413 0.360622
vt 0.194279 0.328584
vt 0.194279 0.355196
vt 0.203146 0.355139
vt 0.20314 0.328593
vt 0.203145 0.360622
vt 0.203146 0.355139
vt 0.194279 0.355196
vt 0.194279 0.360691
vt 0.20314 0.328593
vt 0.203146 0.355139
vt 0.211984 0.354941
vt 0.211997 0.328629
vt 0.211982 0.360376
vt 0.211984 0.354941
vt 0.203146 0.355139
vt 0.203145 0.360622
vt 0.211997 0.328629
vt 0.211964 0.323171
vt 0.203126 0.323075
vt 0.20314 0.328593
vt 0.20314 0.328593
vt 0.203126 0.323075
vt 0.194279 0.323049
vt 0.194279 0.328584
vt 0.219654 0.325301
vt 0.211997 0.328629
vt 0.211984 0.354941
vt 0.219661 0.358418
vt 0.211997 0.328629
vt 0.219654 0.325301
vt 0.218253 0.323277
vt 0.211964 0.323171
vt 0.211982 0.360376
vt 0.218357 0.360096
vt 0.219661 0.358418
vt 0.211984 0.354941
vt 0.194279 0.328584
vt 0.194279 0.323049
vt 0.185432 0.323075
vt 0.185418 0.328593
vt 0.194279 0.321657
vt 0.185268 0.321685
vt 0.185432 0.323075
vt 0.194279 0.323049
s off
f 1/1/1 2/2/2 3/3/3
f 1/1/1 3/3/3 4/4/4
f 5/5/5 6/6/6 7/7/7
f 5/5/5 7/7/7 8/8/8
f 9/9/9 10/10/10 11/11/11
f 9/9/9 11/11/11 12/12/12
f 13/13/13 14/14/14 15/15/15
f 13/13/13 15/15/15 16/16/16
f 17/17/17 18/18/18 19/19/19
f 17/17/17 19/19/19 20/20/20
f 21/21/21 22/22/22 23/23/23
f 21/21/21 23/23/23 24/24/24
f 25/25/25 26/26/26 27/27/27
f 25/25/25 27/27/27 28/28/28
f 29/29/29 30/30/30 31/31/31
f 29/29/29 31/31/31 32/32/32
f 33/33/33 34/34/34 35/35/35
f 33/33/33 35/35/35 36/36/36
f 37/37/37 38/38/38 39/39/39
f 37/37/37 39/39/39 40/40/40
f 41/41/41 42/42/42 43/43/43
f 41/41/41 43/43/43 44/44/44
f 45/45/45 46/46/46 47/47/47
f 45/45/45 47/47/47 48/48/48
f 49/49/49 50/50/50 51/51/51
f 52/52/52 53/53/53 54/54/54
f 52/52/52 54/54/54 55/55/55
f 56/56/56 57/57/57 58/58/58
f 56/56/56 58/58/58 59/59/59
f 60/60/60 61/61/61 62/62/62
f 60/60/60 62/62/62 63/63/63
f 64/64/64 65/65/65 66/66/66
f 64/64/64 66/66/66 67/67/67
f 68/68/68 69/69/69 70/70/70
f 68/68/68 70/70/70 71/71/71
f 72/72/72 73/73/73 74/74/74
f 72/72/72 74/74/74 75/75/75
f 76/76/76 77/77/77 78/78/78
f 76/76/76 78/78/78 79/79/79
f 80/80/80 81/81/81 82/82/82
f 80/80/80 82/82/82 83/83/83
f 84/84/84 85/85/85 86/86/86
f 84/84/84 86/86/86 87/87/87
f 88/88/88 89/89/89 90/90/90
f 88/88/88 90/90/90 91/91/91
f 92/92/92 93/93/93 94/94/94
f 92/92/92 94/94/94 95/95/95
f 96/96/96 97/97/97 98/98/98
f 96/96/96 98/98/98 99/99/99
f 100/100/100 101/101/101 102/102/102
f 100/100/100 102/102/102 103/103/103
f 104/104/104 105/105/105 106/106/106
f 104/104/104 106/106/106 107/107/107
f 108/108/108 109/109/109 110/110/110
f 108/108/108 110/110/110 111/111/111
f 112/112/112 113/113/113 114/114/114
f 112/112/112 114/114/114 115/115/115
f 116/116/116 117/117/117 118/118/118
f 116/116/116 118/118/118 119/119/119
f 120/120/120 121/121/121 122/122/122
f 120/120/120 122/122/122 123/123/123
f 124/124/124 125/125/125 126/126/126
f 124/124/124 126/126/126 127/127/127
f 128/128/128 129/129/129 130/130/130
f 128/128/128 130/130/130 131/131/131
f 132/132/132 133/133/133 134/134/134
f 132/132/132 134/134/134 135/135/135
f 136/136/136 137/137/137 138/138/138
f 136/136/136 138/138/138 139/139/139
f 140/140/140 141/141/141 142/142/142
f 140/140/140 142/142/142 143/143/143
f 144/144/144 145/145/145 146/146/146
f 147/147/147 148/148/148 149/149/149
f 147/147/147 149/149/149 150/150/150
f 151/151/151 152/152/152 153/153/153
f 151/151/151 153/153/153 154/154/154
f 155/155/155 156/156/156 157/157/157
f 155/155/155 157/157/157 158/158/158
f 159/159/159 160/160/160 161/161/161
f 159/159/159 161/161/161 162/162/162
f 163/163/163 164/164/164 165/165/165
f 163/163/163 165/165/165 166/166/166
f 167/167/167 168/168/168 169/169/169
f 167/167/167 169/169/169 170/170/170
f 171/171/171 172/172/172 173/173/173
f 171/171/171 173/173/173 174/174/174
f 175/175/175 176/176/176 177/177/177
f 175/175/175 177/177/177 178/178/178
f 179/179/179 180/180/180 181/181/181
f 179/179/179 181/181/181 182/182/182
f 183/183/183 184/184/184 185/185/185
f 183/183/183 185/185/185 186/186/186
f 187/187/187 188/188/188 189/189/189
f 187/187/187 189/189/189 190/190/190
f 191/191/191 192/192/192 193/193/193
f 191/191/191 193/193/193 194/194/194
f 195/195/195 196/196/196 197/197/197
f 195/195/195 197/197/197 198/198/198
f 199/199/199 200/200/200 201/201/201
f 199/199/199 201/201/201 202/202/202
f 203/203/203 204/204/204 205/205/205
f 206/206/206 207/207/207 208/208/208
f 206/206/206 208/208/208 209/209/209
f 210/210/210 211/211/211 212/212/212
f 210/210/210 212/212/212 213/213/213
f 214/214/214 215/215/215 216/216/216
f 214/214/214 216/216/216 217/217/217
f 218/218/218 219/219/219 220/220/220
f 218/218/218 220/220/220 221/221/221
f 222/222/222 223/223/223 224/224/224
f 225/225/225 226/226/226 227/227/227
f 225/225/225 227/227/227 228/228/228
f 229/229/229 230/230/230 231/231/231
f 229/229/229 231/231/231 232/232/232
f 233/233/233 234/234/234 235/235/235
f 233/233/233 235/235/235 236/236/236
f 237/237/237 238/238/238 239/239/239
f 237/237/237 239/239/239 240/240/240
f 241/241/241 242/242/242 243/243/243
f 241/241/241 243/243/243 244/244/244
f 245/245/245 246/246/246 247/247/247
f 245/245/245 247/247/247 248/248/248
f 249/249/249 250/250/250 251/251/251
f 249/249/249 251/251/251 252/252/252
f 253/253/253 254/254/254 255/255/255
f 253/253/253 255/255/255 256/256/256
f 257/257/257 258/258/258 259/259/259
f 257/257/257 259/259/259 260/260/260
f 261/261/261 262/262/262 263/263/263
f 261/261/261 263/263/263 264/264/264
f 265/265/265 266/266/266 267/267/267
f 265/265/265 267/267/267 268/268/268
f 269/269/269 270/270/270 271/271/271
f 269/269/269 271/271/271 272/272/272
f 273/273/273 274/274/274 275/275/275
f 273/273/273 275/275/275 276/276/276
f 277/277/277 278/278/278 279/279/279
f 277/277/277 279/279/279 280/280/280
f 281/281/281 282/282/282 283/283/283
f 281/281/281 283/283/283 284/284/284
f 285/285/285 286/286/286 287/287/287
f 285/285/285 287/287/287 288/288/288
f 289/289/289 290/290/290 291/291/291
f 289/289/289 291/291/291 292/292/292
f 293/293/293 294/294/294 295/295/295
f 293/293/293 295/295/295 296/296/296
f 297/297/297 298/298/298 299/299/299
f 297/297/297 299/299/299 300/300/300
f 301/301/301 302/302/302 303/303/303
f 301/301/301 303/303/303 304/304/304
f 305/305/305 306/306/306 307/307/307
f 305/305/305 307/307/307 308/308/308
f 309/309/309 310/310/310 311/311/311
f 309/309/309 311/311/311 312/312/312
f 313/313/313 314/314/314 315/315/315
f 313/313/313 315/315/315 316/316/316
