v -0.158587 0.124708 0.130498
v -0.158587 0.113446 0.130128
v -0.180033 0.113446 0.130128
v -0.180033 0.124708 0.130498
v -0.208309 0.113446 0.130128
v -0.208294 0.124708 0.130498
v -0.180033 0.124708 0.130498
v -0.180033 0.113446 0.130128
v -0.208309 0.113446 0.130128
v -0.217264 0.113327 0.13376
v -0.21726 0.124589 0.134131
v -0.208294 0.124708 0.130498
v -0.217264 0.113327 0.13376
v -0.220973 0.113039 0.142529
v -0.220973 0.124301 0.142904
v -0.21726 0.124589 0.134131
v -0.220973 0.113039 0.142529
v -0.220973 0.109766 0.24212
v -0.220973 0.121029 0.242473
v -0.220973 0.124301 0.142904
v -0.220973 0.109766 0.24212
v -0.217319 0.109471 0.251109
v -0.217317 0.120733 0.251474
v -0.220973 0.121029 0.242473
v -0.217319 0.109471 0.251109
v -0.208498 0.109349 0.254832
v -0.20849 0.120611 0.255202
v -0.217317 0.120733 0.251474
v -0.180033 0.120611 0.255202
v -0.20849 0.120611 0.255202
v -0.208498 0.109349 0.254832
v -0.180033 0.109349 0.254832
v -0.180033 0.120611 0.255202
v -0.180033 0.109349 0.254832
v -0.158587 0.109349 0.254832
v -0.158587 0.120611 0.255202
v -0.158587 0.120611 0.255202
v -0.158587 0.109349 0.254832
v -0.137142 0.109349 0.254832
v -0.137142 0.120611 0.255202
v -0.108677 0.109349 0.254832
v -0.108684 0.120611 0.255202
v -0.137142 0.120611 0.255202
v -0.137142 0.109349 0.254832
v -0.108677 0.109349 0.254832
v -0.099855 0.109471 0.251109
v -0.099858 0.120733 0.251474
v -0.108684 0.120611 0.255202
v -0.099855 0.109471 0.251109
v -0.096201 0.109766 0.24212
v -0.096201 0.121029 0.242473
v -0.099858 0.120733 0.251474
v -0.096201 0.109766 0.24212
v -0.096201 0.113039 0.142529
v -0.096201 0.124301 0.142904
v -0.096201 0.121029 0.242473
v -0.099915 0.124589 0.134131
v -0.096201 0.124301 0.142904
v -0.096201 0.113039 0.142529
v -0.099911 0.113327 0.13376
v -0.109766 0.16078 0.145937
v -0.096201 0.124301 0.142904
v -0.099915 0.124589 0.134131
v -0.096201 0.124301 0.142904
v -0.109766 0.16078 0.145937
v -0.110017 0.17091 0.230059
v -0.096201 0.121029 0.242473
v -0.117978 0.161797 0.142319
v -0.113403 0.16317 0.147735
v -0.109766 0.16078 0.145937
v -0.11573 0.159045 0.139019
v -0.11338 0.172807 0.227817
v -0.110017 0.17091 0.230059
v -0.109766 0.16078 0.145937
v -0.113403 0.16317 0.147735
v -0.11573 0.159045 0.139019
v -0.109766 0.16078 0.145937
v -0.099915 0.124589 0.134131
v -0.10888 0.124708 0.130498
v -0.11338 0.172807 0.227817
v -0.117847 0.172379 0.232787
v -0.115745 0.170375 0.23635
v -0.110017 0.17091 0.230059
v -0.099858 0.120733 0.251474
v -0.096201 0.121029 0.242473
v -0.110017 0.17091 0.230059
v -0.115745 0.170375 0.23635
v -0.117847 0.172379 0.232787
v -0.13814 0.16982 0.233748
v -0.137085 0.167661 0.237378
v -0.115745 0.170375 0.23635
v -0.137142 0.120611 0.255202
v -0.108684 0.120611 0.255202
v -0.115745 0.170375 0.23635
v -0.137085 0.167661 0.237378
v -0.108684 0.120611 0.255202
v -0.099858 0.120733 0.251474
v -0.115745 0.170375 0.23635
v -0.13814 0.16982 0.233748
v -0.158587 0.168977 0.234064
v -0.158587 0.16675 0.237724
v -0.137085 0.167661 0.237378
v -0.158587 0.16675 0.237724
v -0.158587 0.120611 0.255202
v -0.137142 0.120611 0.255202
v -0.137085 0.167661 0.237378
v -0.158587 0.168977 0.234064
v -0.179034 0.16982 0.233748
v -0.18009 0.167661 0.237378
v -0.158587 0.16675 0.237724
v -0.18009 0.167661 0.237378
v -0.180033 0.120611 0.255202
v -0.158587 0.120611 0.255202
v -0.158587 0.16675 0.237724
v -0.179034 0.16982 0.233748
v -0.199327 0.172379 0.232787
v -0.20143 0.170375 0.23635
v -0.18009 0.167661 0.237378
v -0.20143 0.170375 0.23635
v -0.20849 0.120611 0.255202
v -0.180033 0.120611 0.255202
v -0.18009 0.167661 0.237378
v -0.199327 0.172379 0.232787
v -0.203794 0.172807 0.227817
v -0.207157 0.17091 0.230059
v -0.20143 0.170375 0.23635
v -0.220973 0.121029 0.242473
v -0.217317 0.120733 0.251474
v -0.20143 0.170375 0.23635
v -0.207157 0.17091 0.230059
v -0.217317 0.120733 0.251474
v -0.20849 0.120611 0.255202
v -0.20143 0.170375 0.23635
v -0.207408 0.16078 0.145937
v -0.207157 0.17091 0.230059
v -0.203794 0.172807 0.227817
v -0.203772 0.16317 0.147735
v -0.207408 0.16078 0.145937
v -0.220973 0.124301 0.142904
v -0.220973 0.121029 0.242473
v -0.207157 0.17091 0.230059
v -0.203772 0.16317 0.147735
v -0.199197 0.161797 0.142319
v -0.201445 0.159045 0.139019
v -0.207408 0.16078 0.145937
v -0.208294 0.124708 0.130498
v -0.21726 0.124589 0.134131
v -0.207408 0.16078 0.145937
v -0.201445 0.159045 0.139019
v -0.21726 0.124589 0.134131
v -0.220973 0.124301 0.142904
v -0.207408 0.16078 0.145937
v -0.199197 0.161797 0.142319
v -0.178931 0.159903 0.141869
v -0.180056 0.157068 0.138528
v -0.201445 0.159045 0.139019
v -0.180033 0.124708 0.130498
v -0.208294 0.124708 0.130498
v -0.201445 0.159045 0.139019
v -0.180056 0.157068 0.138528
v -0.178931 0.159903 0.141869
v -0.158587 0.159279 0.141723
v -0.158587 0.156407 0.138364
v -0.180056 0.157068 0.138528
v -0.158587 0.156407 0.138364
v -0.158587 0.124708 0.130498
v -0.180033 0.124708 0.130498
v -0.180056 0.157068 0.138528
v -0.158587 0.159279 0.141723
v -0.138243 0.159903 0.141869
v -0.137118 0.157068 0.138528
v -0.158587 0.156407 0.138364
v -0.137118 0.157068 0.138528
v -0.137142 0.124708 0.130498
v -0.158587 0.124708 0.130498
v -0.158587 0.156407 0.138364
v -0.137142 0.124708 0.130498
v -0.137142 0.113446 0.130128
v -0.158587 0.113446 0.130128
v -0.158587 0.124708 0.130498
v -0.137142 0.124708 0.130498
v -0.10888 0.124708 0.130498
v -0.108866 0.113446 0.130128
v -0.137142 0.113446 0.130128
v -0.11573 0.159045 0.139019
v -0.10888 0.124708 0.130498
v -0.137142 0.124708 0.130498
v -0.137118 0.157068 0.138528
v -0.10888 0.124708 0.130498
v -0.099915 0.124589 0.134131
v -0.099911 0.113327 0.13376
v -0.108866 0.113446 0.130128
v -0.138243 0.159903 0.141869
v -0.117978 0.161797 0.142319
v -0.11573 0.159045 0.139019
v -0.137118 0.157068 0.138528
v -0.142549 0.160487 0.155429
v -0.138243 0.159903 0.141869
v -0.158587 0.159279 0.141723
v -0.158587 0.160031 0.155397
v -0.126583 0.162074 0.155555
v -0.117978 0.161797 0.142319
v -0.138243 0.159903 0.141869
v -0.142549 0.160487 0.155429
v -0.142549 0.160487 0.155429
v -0.142504 0.16742 0.220394
v -0.126533 0.169308 0.219879
v -0.126583 0.162074 0.155555
v -0.158587 0.160031 0.155397
v -0.158587 0.166875 0.220536
v -0.142504 0.16742 0.220394
v -0.142549 0.160487 0.155429
v -0.117847 0.172379 0.232787
v -0.126533 0.169308 0.219879
v -0.142504 0.16742 0.220394
v -0.13814 0.16982 0.233748
v -0.13814 0.16982 0.233748
v -0.142504 0.16742 0.220394
v -0.158587 0.166875 0.220536
v -0.158587 0.168977 0.234064
v -0.174626 0.160487 0.155429
v -0.174671 0.16742 0.220394
v -0.158587 0.166875 0.220536
v -0.158587 0.160031 0.155397
v -0.158587 0.168977 0.234064
v -0.158587 0.166875 0.220536
v -0.174671 0.16742 0.220394
v -0.179034 0.16982 0.233748
v -0.190591 0.162074 0.155555
v -0.190642 0.169308 0.219879
v -0.174671 0.16742 0.220394
v -0.174626 0.160487 0.155429
v -0.179034 0.16982 0.233748
v -0.174671 0.16742 0.220394
v -0.190642 0.169308 0.219879
v -0.199327 0.172379 0.232787
v -0.174626 0.160487 0.155429
v -0.178931 0.159903 0.141869
v -0.199197 0.161797 0.142319
v -0.190591 0.162074 0.155555
v -0.158587 0.160031 0.155397
v -0.158587 0.159279 0.141723
v -0.178931 0.159903 0.141869
v -0.174626 0.160487 0.155429
v -0.203772 0.16317 0.147735
v -0.203794 0.172807 0.227817
v -0.190642 0.169308 0.219879
v -0.190591 0.162074 0.155555
v -0.203772 0.16317 0.147735
v -0.190591 0.162074 0.155555
v -0.199197 0.161797 0.142319
v -0.203794 0.172807 0.227817
v -0.199327 0.172379 0.232787
v -0.190642 0.169308 0.219879
v -0.113403 0.16317 0.147735
v -0.126583 0.162074 0.155555
v -0.126533 0.169308 0.219879
v -0.11338 0.172807 0.227817
v -0.117847 0.172379 0.232787
v -0.11338 0.172807 0.227817
v -0.126533 0.169308 0.219879
v -0.126583 0.162074 0.155555
v -0.113403 0.16317 0.147735
v -0.117978 0.161797 0.142319
vn -0 0.0328 -0.9995
vn -0 0.0328 -0.9995
vn -0 0.0328 -0.9995
vn -0 0.0328 -0.9995
vn -0.0972 0.0328 -0.9947
vn -0.0972 0.0329 -0.9947
vn -0 0.0328 -0.9995
vn -0 0.0328 -0.9995
vn -0.0972 0.0328 -0.9947
vn -0.6997 0.0238 -0.7141
vn -0.6998 0.0238 -0.714
vn -0.0972 0.0329 -0.9947
vn -0.6997 0.0238 -0.7141
vn -0.9993 0.0014 -0.038
vn -0.9993 0.0014 -0.038
vn -0.6998 0.0238 -0.714
vn -0.9993 0.0014 -0.038
vn -0.9993 -0.0013 0.0374
vn -0.9993 -0.001 0.0374
vn -0.9993 0.0014 -0.038
vn -0.9993 -0.0013 0.0374
vn -0.7141 -0.0225 0.6997
vn -0.7141 -0.0225 0.6997
vn -0.9993 -0.001 0.0374
vn -0.7141 -0.0225 0.6997
vn -0.0997 -0.0325 0.9945
vn -0.0997 -0.0325 0.9945
vn -0.7141 -0.0225 0.6997
vn -0 -0.0328 0.9995
vn -0.0997 -0.0325 0.9945
vn -0.0997 -0.0325 0.9945
vn -0 -0.0328 0.9995
vn -0 -0.0328 0.9995
vn -0 -0.0328 0.9995
vn -0 -0.0328 0.9995
vn -0 -0.0328 0.9995
vn -0 -0.0328 0.9995
vn -0 -0.0328 0.9995
vn -0 -0.0328 0.9995
vn -0 -0.0328 0.9995
vn 0.0996 -0.0326 0.9945
vn 0.0997 -0.0325 0.9945
vn -0 -0.0328 0.9995
vn -0 -0.0328 0.9995
vn 0.0996 -0.0326 0.9945
vn 0.714 -0.0226 0.6998
vn 0.7141 -0.0226 0.6997
vn 0.0997 -0.0325 0.9945
vn 0.714 -0.0226 0.6998
vn 0.9993 -0.001 0.0374
vn 0.9993 -0.0011 0.0374
vn 0.7141 -0.0226 0.6997
vn 0.9993 -0.001 0.0374
vn 0.9993 0.0013 -0.038
vn 0.9993 0.0014 -0.038
vn 0.9993 -0.0011 0.0374
vn 0.6997 0.0238 -0.7141
vn 0.9993 0.0014 -0.038
vn 0.9993 0.0013 -0.038
vn 0.6997 0.0238 -0.714
vn 0.9535 0.3012 -0.0099
vn 0.9532 0.302 -0.0137
vn 0.6677 0.3476 -0.6583
vn 0.9532 0.302 -0.0137
vn 0.9535 0.3012 -0.0099
vn 0.9535 0.3013 -0.01
vn 0.9533 0.3019 -0.0074
vn -0.1315 0.9856 -0.1064
vn -0.1565 0.9806 -0.1177
vn 0.9535 0.3012 -0.0099
vn 0.0756 0.3131 -0.9467
vn -0.1877 0.9768 -0.1029
vn 0.9535 0.3013 -0.01
vn 0.9535 0.3012 -0.0099
vn -0.1565 0.9806 -0.1177
vn 0.0756 0.3131 -0.9467
vn 0.9535 0.3012 -0.0099
vn 0.6677 0.3476 -0.6583
vn 0.0869 0.257 -0.9625
vn -0.1877 0.9768 -0.1029
vn -0.1748 0.9783 -0.111
vn 0.0706 0.401 0.9133
vn 0.9535 0.3013 -0.01
vn 0.66 0.3775 0.6496
vn 0.9533 0.3019 -0.0074
vn 0.9535 0.3013 -0.01
vn 0.0706 0.401 0.9133
vn -0.1748 0.9783 -0.111
vn -0.0889 0.9854 -0.145
vn 0.0291 0.4032 0.9146
vn 0.0706 0.401 0.9133
vn -0 0.3543 0.9351
vn 0.0821 0.3634 0.928
vn 0.0706 0.401 0.9133
vn 0.0291 0.4032 0.9146
vn 0.0821 0.3634 0.928
vn 0.66 0.3775 0.6496
vn 0.0706 0.401 0.9133
vn -0.0889 0.9854 -0.145
vn 0.0013 0.9884 -0.1521
vn 0.0003 0.3991 0.9169
vn 0.0291 0.4032 0.9146
vn 0.0003 0.3991 0.9169
vn -0 0.3543 0.9351
vn -0 0.3543 0.9351
vn 0.0291 0.4032 0.9146
vn 0.0013 0.9884 -0.1521
vn 0.1331 0.9811 -0.1406
vn 0.0052 0.3985 0.9172
vn 0.0003 0.3991 0.9169
vn 0.0052 0.3985 0.9172
vn -0 0.3543 0.9351
vn -0 0.3543 0.9351
vn 0.0003 0.3991 0.9169
vn 0.1331 0.9811 -0.1406
vn 0.175 0.9783 -0.111
vn -0.0705 0.4009 0.9134
vn 0.0052 0.3985 0.9172
vn -0.0705 0.4009 0.9134
vn -0.0821 0.3634 0.928
vn -0 0.3543 0.9351
vn 0.0052 0.3985 0.9172
vn 0.175 0.9783 -0.111
vn 0.1877 0.9768 -0.1028
vn -0.9535 0.3013 -0.01
vn -0.0705 0.4009 0.9134
vn -0.9533 0.3019 -0.0072
vn -0.6599 0.3775 0.6496
vn -0.0705 0.4009 0.9134
vn -0.9535 0.3013 -0.01
vn -0.6599 0.3775 0.6496
vn -0.0821 0.3634 0.928
vn -0.0705 0.4009 0.9134
vn -0.9535 0.3012 -0.0099
vn -0.9535 0.3013 -0.01
vn 0.1877 0.9768 -0.1028
vn 0.1566 0.9806 -0.1178
vn -0.9535 0.3012 -0.0099
vn -0.9532 0.302 -0.0137
vn -0.9533 0.3019 -0.0072
vn -0.9535 0.3013 -0.01
vn 0.1566 0.9806 -0.1178
vn 0.1314 0.9856 -0.1064
vn -0.0755 0.313 -0.9467
vn -0.9535 0.3012 -0.0099
vn -0.087 0.257 -0.9625
vn -0.6677 0.3476 -0.6583
vn -0.9535 0.3012 -0.0099
vn -0.0755 0.313 -0.9467
vn -0.6677 0.3476 -0.6583
vn -0.9532 0.302 -0.0137
vn -0.9535 0.3012 -0.0099
vn 0.1314 0.9856 -0.1064
vn 0.066 0.9953 -0.0712
vn -0.0231 0.3073 -0.9513
vn -0.0755 0.313 -0.9467
vn -0 0.2409 -0.9706
vn -0.087 0.257 -0.9625
vn -0.0755 0.313 -0.9467
vn -0.0231 0.3073 -0.9513
vn 0.066 0.9953 -0.0712
vn -0.0009 0.9982 -0.0598
vn -0 0.3055 -0.9522
vn -0.0231 0.3073 -0.9513
vn -0 0.3055 -0.9522
vn -0 0.2409 -0.9706
vn -0 0.2409 -0.9706
vn -0.0231 0.3073 -0.9513
vn -0.0009 0.9982 -0.0598
vn -0.1045 0.9917 -0.0743
vn -0.0049 0.3041 -0.9526
vn -0 0.3055 -0.9522
vn -0.0049 0.3041 -0.9526
vn -0 0.2409 -0.9706
vn -0 0.2409 -0.9706
vn -0 0.3055 -0.9522
vn -0 0.0328 -0.9995
vn -0 0.0328 -0.9995
vn -0 0.0328 -0.9995
vn -0 0.0328 -0.9995
vn -0 0.0328 -0.9995
vn 0.0972 0.0328 -0.9947
vn 0.0972 0.0329 -0.9947
vn -0 0.0328 -0.9995
vn 0.0756 0.3131 -0.9467
vn 0.0869 0.257 -0.9625
vn -0 0.2409 -0.9706
vn -0.0049 0.3041 -0.9526
vn 0.0972 0.0328 -0.9947
vn 0.6997 0.0238 -0.7141
vn 0.6997 0.0238 -0.714
vn 0.0972 0.0329 -0.9947
vn -0.1045 0.9917 -0.0743
vn -0.1315 0.9856 -0.1064
vn 0.0756 0.3131 -0.9467
vn -0.0049 0.3041 -0.9526
vn -0.0627 0.9944 -0.0849
vn -0.1045 0.9917 -0.0743
vn -0.0009 0.9982 -0.0598
vn -0 0.9968 -0.0794
vn -0.1276 0.9867 -0.1006
vn -0.1315 0.9856 -0.1064
vn -0.1045 0.9917 -0.0743
vn -0.0627 0.9944 -0.0849
vn -0.0627 0.9944 -0.0849
vn -0.0722 0.9889 -0.1296
vn -0.1419 0.9825 -0.121
vn -0.1276 0.9867 -0.1006
vn -0 0.9968 -0.0794
vn -0 0.9912 -0.1322
vn -0.0722 0.9889 -0.1296
vn -0.0627 0.9944 -0.0849
vn -0.1748 0.9783 -0.111
vn -0.1419 0.9825 -0.121
vn -0.0722 0.9889 -0.1296
vn -0.0889 0.9854 -0.145
vn -0.0889 0.9854 -0.145
vn -0.0722 0.9889 -0.1296
vn -0 0.9912 -0.1322
vn 0.0013 0.9884 -0.1521
vn 0.0627 0.9944 -0.0849
vn 0.0722 0.9889 -0.1296
vn -0 0.9912 -0.1322
vn -0 0.9968 -0.0794
vn 0.0013 0.9884 -0.1521
vn -0 0.9912 -0.1322
vn 0.0722 0.9889 -0.1296
vn 0.1331 0.9811 -0.1406
vn 0.1276 0.9867 -0.1006
vn 0.1419 0.9825 -0.121
vn 0.0722 0.9889 -0.1296
vn 0.0627 0.9944 -0.0849
vn 0.1331 0.9811 -0.1406
vn 0.0722 0.9889 -0.1296
vn 0.1419 0.9825 -0.121
vn 0.175 0.9783 -0.111
vn 0.0627 0.9944 -0.0849
vn 0.066 0.9953 -0.0712
vn 0.1314 0.9856 -0.1064
vn 0.1276 0.9867 -0.1006
vn -0 0.9968 -0.0794
vn -0.0009 0.9982 -0.0598
vn 0.066 0.9953 -0.0712
vn 0.0627 0.9944 -0.0849
vn 0.1566 0.9806 -0.1178
vn 0.1877 0.9768 -0.1028
vn 0.1419 0.9825 -0.121
vn 0.1276 0.9867 -0.1006
vn 0.1566 0.9806 -0.1178
vn 0.1276 0.9867 -0.1006
vn 0.1314 0.9856 -0.1064
vn 0.1877 0.9768 -0.1028
vn 0.175 0.9783 -0.111
vn 0.1419 0.9825 -0.121
vn -0.1565 0.9806 -0.1177
vn -0.1276 0.9867 -0.1006
vn -0.1419 0.9825 -0.121
vn -0.1877 0.9768 -0.1029
vn -0.1748 0.9783 -0.111
vn -0.1877 0.9768 -0.1029
vn -0.1419 0.9825 -0.121
vn -0.1276 0.9867 -0.1006
vn -0.1565 0.9806 -0.1177
vn -0.1315 0.9856 -0.1064
vt 0.422238 0.252331
vt 0.422238 0.250217
vt 0.411722 0.250217
vt 0.411722 0.252331
vt 0.397858 0.250217
vt 0.398342 0.252261
vt 0.411722 0.252331
vt 0.411722 0.250217
vt 0.397858 0.250217
vt 0.393467 0.251998
vt 0.394877 0.253478
vt 0.398342 0.252261
vt 0.393467 0.251998
vt 0.391648 0.256298
vt 0.393534 0.256859
vt 0.394877 0.253478
vt 0.391648 0.256298
vt 0.391648 0.305131
vt 0.39351 0.304827
vt 0.393534 0.256859
vt 0.391648 0.305131
vt 0.39344 0.309539
vt 0.394746 0.30831
vt 0.39351 0.304827
vt 0.39344 0.309539
vt 0.397765 0.311364
vt 0.398154 0.309661
vt 0.394746 0.30831
vt 0.411722 0.30962
vt 0.398154 0.309661
vt 0.397765 0.311364
vt 0.411722 0.311364
vt 0.411722 0.30962
vt 0.411722 0.311364
vt 0.422238 0.311364
vt 0.422238 0.30962
vt 0.422238 0.30962
vt 0.422238 0.311364
vt 0.432754 0.311364
vt 0.432754 0.30962
vt 0.446711 0.311364
vt 0.446323 0.309661
vt 0.432754 0.30962
vt 0.432754 0.311364
vt 0.446711 0.311364
vt 0.451037 0.309539
vt 0.44973 0.30831
vt 0.446323 0.309661
vt 0.451037 0.309539
vt 0.452829 0.305131
vt 0.450966 0.304827
vt 0.44973 0.30831
vt 0.452829 0.305131
vt 0.452829 0.256298
vt 0.450942 0.256859
vt 0.450966 0.304827
vt 0.4496 0.253478
vt 0.450942 0.256859
vt 0.452829 0.256298
vt 0.45101 0.251998
vt 0.442407 0.262251
vt 0.450942 0.256859
vt 0.4496 0.253478
vt 0.450942 0.256859
vt 0.442407 0.262251
vt 0.442303 0.297003
vt 0.450966 0.304827
vt 0.439014 0.260756
vt 0.440904 0.262994
vt 0.442407 0.262251
vt 0.439943 0.259393
vt 0.440914 0.296076
vt 0.442303 0.297003
vt 0.442407 0.262251
vt 0.440904 0.262994
vt 0.439943 0.259393
vt 0.442407 0.262251
vt 0.4496 0.253478
vt 0.446135 0.252261
vt 0.440914 0.296076
vt 0.439068 0.298129
vt 0.439937 0.299602
vt 0.442303 0.297003
vt 0.44973 0.30831
vt 0.450966 0.304827
vt 0.442303 0.297003
vt 0.439937 0.299602
vt 0.439068 0.298129
vt 0.430685 0.298527
vt 0.431121 0.300026
vt 0.439937 0.299602
vt 0.432754 0.30962
vt 0.446323 0.309661
vt 0.439937 0.299602
vt 0.431121 0.300026
vt 0.446323 0.309661
vt 0.44973 0.30831
vt 0.439937 0.299602
vt 0.430685 0.298527
vt 0.422238 0.298657
vt 0.422238 0.300169
vt 0.431121 0.300026
vt 0.422238 0.300169
vt 0.422238 0.30962
vt 0.432754 0.30962
vt 0.431121 0.300026
vt 0.422238 0.298657
vt 0.413791 0.298527
vt 0.413355 0.300026
vt 0.422238 0.300169
vt 0.413355 0.300026
vt 0.411722 0.30962
vt 0.422238 0.30962
vt 0.422238 0.300169
vt 0.413791 0.298527
vt 0.405408 0.298129
vt 0.404539 0.299602
vt 0.413355 0.300026
vt 0.404539 0.299602
vt 0.398154 0.309661
vt 0.411722 0.30962
vt 0.413355 0.300026
vt 0.405408 0.298129
vt 0.403563 0.296076
vt 0.402173 0.297003
vt 0.404539 0.299602
vt 0.39351 0.304827
vt 0.394746 0.30831
vt 0.404539 0.299602
vt 0.402173 0.297003
vt 0.394746 0.30831
vt 0.398154 0.309661
vt 0.404539 0.299602
vt 0.40207 0.262251
vt 0.402173 0.297003
vt 0.403563 0.296076
vt 0.403572 0.262994
vt 0.40207 0.262251
vt 0.393534 0.256859
vt 0.39351 0.304827
vt 0.402173 0.297003
vt 0.403572 0.262994
vt 0.405462 0.260756
vt 0.404533 0.259393
vt 0.40207 0.262251
vt 0.398342 0.252261
vt 0.394877 0.253478
vt 0.40207 0.262251
vt 0.404533 0.259393
vt 0.394877 0.253478
vt 0.393534 0.256859
vt 0.40207 0.262251
vt 0.405462 0.260756
vt 0.413834 0.26057
vt 0.413369 0.25919
vt 0.404533 0.259393
vt 0.411722 0.252331
vt 0.398342 0.252261
vt 0.404533 0.259393
vt 0.413369 0.25919
vt 0.413834 0.26057
vt 0.422238 0.26051
vt 0.422238 0.259122
vt 0.413369 0.25919
vt 0.422238 0.259122
vt 0.422238 0.252331
vt 0.411722 0.252331
vt 0.413369 0.25919
vt 0.422238 0.26051
vt 0.430643 0.26057
vt 0.431107 0.25919
vt 0.422238 0.259122
vt 0.431107 0.25919
vt 0.432754 0.252331
vt 0.422238 0.252331
vt 0.422238 0.259122
vt 0.432754 0.252331
vt 0.432754 0.250217
vt 0.422238 0.250217
vt 0.422238 0.252331
vt 0.432754 0.252331
vt 0.446135 0.252261
vt 0.446619 0.250217
vt 0.432754 0.250217
vt 0.439943 0.259393
vt 0.446135 0.252261
vt 0.432754 0.252331
vt 0.431107 0.25919
vt 0.446135 0.252261
vt 0.4496 0.253478
vt 0.45101 0.251998
vt 0.446619 0.250217
vt 0.430643 0.26057
vt 0.439014 0.260756
vt 0.439943 0.259393
vt 0.431107 0.25919
vt 0.428864 0.266172
vt 0.430643 0.26057
vt 0.422238 0.26051
vt 0.422238 0.266159
vt 0.435459 0.266224
vt 0.439014 0.260756
vt 0.430643 0.26057
vt 0.428864 0.266172
vt 0.428864 0.266172
vt 0.428882 0.29301
vt 0.43548 0.292797
vt 0.435459 0.266224
vt 0.422238 0.266159
vt 0.422238 0.293069
vt 0.428882 0.29301
vt 0.428864 0.266172
vt 0.439068 0.298129
vt 0.43548 0.292797
vt 0.428882 0.29301
vt 0.430685 0.298527
vt 0.430685 0.298527
vt 0.428882 0.29301
vt 0.422238 0.293069
vt 0.422238 0.298657
vt 0.415612 0.266172
vt 0.415594 0.29301
vt 0.422238 0.293069
vt 0.422238 0.266159
vt 0.422238 0.298657
vt 0.422238 0.293069
vt 0.415594 0.29301
vt 0.413791 0.298527
vt 0.409017 0.266224
vt 0.408996 0.292797
vt 0.415594 0.29301
vt 0.415612 0.266172
vt 0.413791 0.298527
vt 0.415594 0.29301
vt 0.408996 0.292797
vt 0.405408 0.298129
vt 0.415612 0.266172
vt 0.413834 0.26057
vt 0.405462 0.260756
vt 0.409017 0.266224
vt 0.422238 0.266159
vt 0.422238 0.26051
vt 0.413834 0.26057
vt 0.415612 0.266172
vt 0.403572 0.262994
vt 0.403563 0.296076
vt 0.408996 0.292797
vt 0.409017 0.266224
vt 0.403572 0.262994
vt 0.409017 0.266224
vt 0.405462 0.260756
vt 0.403563 0.296076
vt 0.405408 0.298129
vt 0.408996 0.292797
vt 0.440904 0.262994
vt 0.435459 0.266224
vt 0.43548 0.292797
vt 0.440914 0.296076
vt 0.439068 0.298129
vt 0.440914 0.296076
vt 0.43548 0.292797
vt 0.435459 0.266224
vt 0.440904 0.262994
vt 0.439014 0.260756
s off
f 1/1/1 2/2/2 3/3/3
f 1/1/1 3/3/3 4/4/4
f 5/5/5 6/6/6 7/7/7
f 5/5/5 7/7/7 8/8/8
f 9/9/9 10/10/10 11/11/11
f 9/9/9 11/11/11 12/12/12
f 13/13/13 14/14/14 15/15/15
f 13/13/13 15/15/15 16/16/16
f 17/17/17 18/18/18 19/19/19
f 17/17/17 19/19/19 20/20/20
f 21/21/21 22/22/22 23/23/23
f 21/21/21 23/23/23 24/24/24
f 25/25/25 26/26/26 27/27/27
f 25/25/25 27/27/27 28/28/28
f 29/29/29 30/30/30 31/31/31
f 29/29/29 31/31/31 32/32/32
f 33/33/33 34/34/34 35/35/35
f 33/33/33 35/35/35 36/36/36
f 37/37/37 38/38/38 39/39/39
f 37/37/37 39/39/39 40/40/40
f 41/41/41 42/42/42 43/43/43
f 41/41/41 43/43/43 44/44/44
f 45/45/45 46/46/46 47/47/47
f 45/45/45 47/47/47 48/48/48
f 49/49/49 50/50/50 51/51/51
f 49/49/49 51/51/51 52/52/52
f 53/53/53 54/54/54 55/55/55
f 53/53/53 55/55/55 56/56/56
f 57/57/57 58/58/58 59/59/59
f 57/57/57 59/59/59 60/60/60
f 61/61/61 62/62/62 63/63/63
f 64/64/64 65/65/65 66/66/66
f 64/64/64 66/66/66 67/67/67
f 68/68/68 69/69/69 70/70/70
f 68/68/68 70/70/70 71/71/71
f 72/72/72 73/73/73 74/74/74
f 72/72/72 74/74/74 75/75/75
f 76/76/76 77/77/77 78/78/78
f 76/76/76 78/78/78 79/79/79
f 80/80/80 81/81/81 82/82/82
f 80/80/80 82/82/82 83/83/83
f 84/84/84 85/85/85 86/86/86
f 84/84/84 86/86/86 87/87/87
f 88/88/88 89/89/89 90/90/90
f 88/88/88 90/90/90 91/91/91
f 92/92/92 93/93/93 94/94/94
f 92/92/92 94/94/94 95/95/95
f 96/96/96 97/97/97 98/98/98
f 99/99/99 100/100/100 101/101/101
f 99/99/99 101/101/101 102/102/102
f 103/103/103 104/104/104 105/105/105
f 103/103/103 105/105/105 106/106/106
f 107/107/107 108/108/108 109/109/109
f 107/107/107 109/109/109 110/110/110
f 111/111/111 112/112/112 113/113/113
f 111/111/111 113/113/113 114/114/114
f 115/115/115 116/116/116 117/117/117
f 115/115/115 117/117/117 118/118/118
f 119/119/119 120/120/120 121/121/121
f 119/119/119 121/121/121 122/122/122
f 123/123/123 124/124/124 125/125/125
f 123/123/123 125/125/125 126/126/126
f 127/127/127 128/128/128 129/129/129
f 127/127/127 129/129/129 130/130/130
f 131/131/131 132/132/132 133/133/133
f 134/134/134 135/135/135 136/136/136
f 134/134/134 136/136/136 137/137/137
f 138/138/138 139/139/139 140/140/140
f 138/138/138 140/140/140 141/141/141
f 142/142/142 143/143/143 144/144/144
f 142/142/142 144/144/144 145/145/145
f 146/146/146 147/147/147 148/148/148
f 146/146/146 148/148/148 149/149/149
f 150/150/150 151/151/151 152/152/152
f 153/153/153 154/154/154 155/155/155
f 153/153/153 155/155/155 156/156/156
f 157/157/157 158/158/158 159/159/159
f 157/157/157 159/159/159 160/160/160
f 161/161/161 162/162/162 163/163/163
f 161/161/161 163/163/163 164/164/164
f 165/165/165 166/166/166 167/167/167
f 165/165/165 167/167/167 168/168/168
f 169/169/169 170/170/170 171/171/171
f 169/169/169 171/171/171 172/172/172
f 173/173/173 174/174/174 175/175/175
f 173/173/173 175/175/175 176/176/176
f 177/177/177 178/178/178 179/179/179
f 177/177/177 179/179/179 180/180/180
f 181/181/181 182/182/182 183/183/183
f 181/181/181 183/183/183 184/184/184
f 185/185/185 186/186/186 187/187/187
f 185/185/185 187/187/187 188/188/188
f 189/189/189 190/190/190 191/191/191
f 189/189/189 191/191/191 192/192/192
f 193/193/193 194/194/194 195/195/195
f 193/193/193 195/195/195 196/196/196
f 197/197/197 198/198/198 199/199/199
f 197/197/197 199/199/199 200/200/200
f 201/201/201 202/202/202 203/203/203
f 201/201/201 203/203/203 204/204/204
f 205/205/205 206/206/206 207/207/207
f 205/205/205 207/207/207 208/208/208
f 209/209/209 210/210/210 211/211/211
f 209/209/209 211/211/211 212/212/212
f 213/213/213 214/214/214 215/215/215
f 213/213/213 215/215/215 216/216/216
f 217/217/217 218/218/218 219/219/219
f 217/217/217 219/219/219 220/220/220
f 221/221/221 222/222/222 223/223/223
f 221/221/221 223/223/223 224/224/224
f 225/225/225 226/226/226 227/227/227
f 225/225/225 227/227/227 228/228/228
f 229/229/229 230/230/230 231/231/231
f 229/229/229 231/231/231 232/232/232
f 233/233/233 234/234/234 235/235/235
f 233/233/233 235/235/235 236/236/236
f 237/237/237 238/238/238 239/239/239
f 237/237/237 239/239/239 240/240/240
f 241/241/241 242/242/242 243/243/243
f 241/241/241 243/243/243 244/244/244
f 245/245/245 246/246/246 247/247/247
f 245/245/245 247/247/247 248/248/248
f 249/249/249 250/250/250 251/251/251
f 252/252/252 253/253/253 254/254/254
f 255/255/255 256/256/256 257/257/257
f 255/255/255 257/257/257 258/258/258
f 259/259/259 260/260/260 261/261/261
f 262/262/262 263/263/263 264/264/264
