v -0.174996 0.163246 0.179597
v -0.185476 0.164307 0.179692
v -0.174824 0.163536 0.182473
v -0.170134 0.163189 0.180857
v -0.172404 0.162999 0.178336
v -0.174996 0.163246 0.179597
v -0.174824 0.163536 0.182473
v -0.170134 0.163189 0.180857
v -0.174996 0.163246 0.179597
v -0.171426 0.162799 0.176786
v -0.170134 0.163189 0.180857
v -0.168034 0.162786 0.177703
v -0.171426 0.162799 0.176786
v -0.172404 0.162999 0.178336
v -0.170134 0.163189 0.180857
v -0.168005 0.16243 0.174324
v -0.171695 0.162463 0.173545
v -0.171426 0.162799 0.176786
v -0.168034 0.162786 0.177703
v -0.168005 0.16243 0.174324
v -0.171426 0.162799 0.176786
v -0.171695 0.162463 0.173545
v -0.168005 0.16243 0.174324
v -0.16918 0.162193 0.171745
v -0.171695 0.162463 0.173545
v -0.16918 0.162193 0.171745
v -0.172268 0.162079 0.169761
v -0.172268 0.162079 0.169761
v -0.170781 0.161914 0.168662
v -0.17286 0.161723 0.166232
v -0.17409 0.161917 0.167646
v -0.17409 0.161917 0.167646
v -0.176573 0.162232 0.168631
v -0.172268 0.162079 0.169761
v -0.171695 0.162463 0.173545
v -0.172268 0.162079 0.169761
v -0.174824 0.162375 0.17159
v -0.172268 0.162079 0.169761
v -0.176573 0.162232 0.168631
v -0.174824 0.162375 0.17159
v -0.185476 0.163414 0.171491
v -0.174824 0.162375 0.17159
v -0.176573 0.162232 0.168631
v -0.18899 0.165052 0.182504
v -0.185476 0.164307 0.179692
v -0.185476 0.163414 0.171491
v -0.185476 0.163414 0.171491
v -0.18899 0.162311 0.157899
v -0.18899 0.165052 0.182504
v -0.185476 0.163114 0.168679
v -0.18899 0.162311 0.157899
v -0.185476 0.163414 0.171491
v -0.185476 0.163414 0.171491
v -0.176573 0.162232 0.168631
v -0.185476 0.163114 0.168679
v -0.185476 0.162264 0.160711
v -0.18899 0.162311 0.157899
v -0.185476 0.163114 0.168679
v -0.176081 0.161347 0.160784
v -0.17572 0.161007 0.157933
v -0.185476 0.162264 0.160711
v -0.18899 0.162311 0.157899
v -0.185476 0.162264 0.160711
v -0.17572 0.161007 0.157933
v -0.176081 0.161347 0.160784
v -0.171731 0.160958 0.15931
v -0.17572 0.161007 0.157933
v -0.173623 0.161309 0.1621
v -0.169363 0.161193 0.162181
v -0.171731 0.160958 0.15931
v -0.176081 0.161347 0.160784
v -0.173623 0.161309 0.1621
v -0.171731 0.160958 0.15931
v -0.172748 0.161431 0.163526
v -0.169363 0.161193 0.162181
v -0.173623 0.161309 0.1621
v -0.17286 0.161723 0.166232
v -0.169337 0.161637 0.166417
v -0.172748 0.161431 0.163526
v -0.169337 0.161637 0.166417
v -0.169363 0.161193 0.162181
v -0.172748 0.161431 0.163526
v -0.17286 0.161723 0.166232
v -0.170781 0.161914 0.168662
v -0.169337 0.161637 0.166417
v -0.185476 0.164307 0.179692
v -0.18899 0.165052 0.182504
v -0.174824 0.163536 0.182473
vn 0.0993 0.9894 -0.1056
vn 0.0993 0.9894 -0.1056
vn 0.0993 0.9894 -0.1056
vn 0.0406 0.993 -0.1113
vn 0.0406 0.993 -0.1113
vn 0.0406 0.993 -0.1113
vn 0.0383 0.994 -0.1024
vn 0.0383 0.994 -0.1024
vn 0.0383 0.994 -0.1024
vn 0.0323 0.9939 -0.1053
vn 0.0323 0.9939 -0.1053
vn 0.0323 0.9939 -0.1053
vn 0.0346 0.9938 -0.106
vn 0.0346 0.9938 -0.106
vn 0.0346 0.9938 -0.106
vn 0.0311 0.9939 -0.1057
vn 0.0311 0.9939 -0.1057
vn 0.0311 0.9939 -0.1057
vn 0.032 0.994 -0.1044
vn 0.032 0.994 -0.1044
vn 0.032 0.994 -0.1044
vn 0.0311 0.9939 -0.1058
vn 0.0311 0.9939 -0.1058
vn 0.0311 0.9939 -0.1058
vn 0.0312 0.9939 -0.1055
vn 0.0312 0.9939 -0.1055
vn 0.0312 0.9939 -0.1055
vn 0.0334 0.9938 -0.1058
vn 0.0334 0.9938 -0.1058
vn 0.0334 0.9938 -0.1058
vn 0.0334 0.9938 -0.1058
vn 0.071 0.988 -0.1369
vn 0.071 0.988 -0.1369
vn 0.071 0.988 -0.1369
vn 0.0388 0.9935 -0.1066
vn 0.0388 0.9935 -0.1066
vn 0.0388 0.9935 -0.1066
vn 0.0568 0.995 -0.0817
vn 0.0568 0.995 -0.0817
vn 0.0568 0.995 -0.0817
vn 0.0975 0.9896 -0.1055
vn 0.0975 0.9896 -0.1055
vn 0.0975 0.9896 -0.1055
vn 0.123 0.9866 -0.1075
vn 0.123 0.9866 -0.1075
vn 0.123 0.9866 -0.1075
vn 0.1154 0.9872 -0.11
vn 0.1154 0.9872 -0.11
vn 0.1154 0.9872 -0.11
vn 0.0975 0.9896 -0.1055
vn 0.0975 0.9896 -0.1055
vn 0.0975 0.9896 -0.1055
vn 0.0975 0.9896 -0.1055
vn 0.0975 0.9896 -0.1055
vn 0.0975 0.9896 -0.1055
vn 0.0975 0.9896 -0.1055
vn 0.0975 0.9896 -0.1055
vn 0.0975 0.9896 -0.1055
vn 0.0975 0.9896 -0.1055
vn 0.0975 0.9896 -0.1055
vn 0.0975 0.9896 -0.1055
vn 0.0975 0.9896 -0.1055
vn 0.0975 0.9896 -0.1055
vn 0.0975 0.9896 -0.1055
vn 0.0507 0.9924 -0.1118
vn 0.0507 0.9924 -0.1118
vn 0.0507 0.9924 -0.1118
vn 0.0291 0.994 -0.1052
vn 0.0291 0.994 -0.1052
vn 0.0291 0.994 -0.1052
vn 0.0603 0.9946 -0.0842
vn 0.0603 0.9946 -0.0842
vn 0.0603 0.9946 -0.0842
vn 0.029 0.9943 -0.1027
vn 0.029 0.9943 -0.1027
vn 0.029 0.9943 -0.1027
vn 0.0298 0.9939 -0.1062
vn 0.0298 0.9939 -0.1062
vn 0.0298 0.9939 -0.1062
vn 0.0283 0.9941 -0.1045
vn 0.0283 0.9941 -0.1045
vn 0.0283 0.9941 -0.1045
vn 0.0297 0.9942 -0.1034
vn 0.0297 0.9942 -0.1034
vn 0.0297 0.9942 -0.1034
vn 0.1052 0.986 -0.1295
vn 0.1052 0.986 -0.1295
vn 0.1052 0.986 -0.1295
vt 0.416756 0.663798
vt 0.411638 0.663844
vt 0.41684 0.665202
vt 0.41913 0.664413
vt 0.418022 0.663182
vt 0.416756 0.663798
vt 0.41684 0.665202
vt 0.41913 0.664413
vt 0.416756 0.663798
vt 0.418499 0.662425
vt 0.41913 0.664413
vt 0.420156 0.662873
vt 0.418499 0.662425
vt 0.418022 0.663182
vt 0.41913 0.664413
vt 0.42017 0.661223
vt 0.418368 0.660842
vt 0.418499 0.662425
vt 0.420156 0.662873
vt 0.42017 0.661223
vt 0.418499 0.662425
vt 0.418368 0.660842
vt 0.42017 0.661223
vt 0.419596 0.659963
vt 0.418368 0.660842
vt 0.419596 0.659963
vt 0.418088 0.658994
vt 0.418088 0.658994
vt 0.418814 0.658458
vt 0.417799 0.657271
vt 0.417198 0.657962
vt 0.417198 0.657962
vt 0.415986 0.658443
vt 0.418088 0.658994
vt 0.418368 0.660842
vt 0.418088 0.658994
vt 0.41684 0.659888
vt 0.418088 0.658994
vt 0.415986 0.658443
vt 0.41684 0.659888
vt 0.411638 0.659839
vt 0.41684 0.659888
vt 0.415986 0.658443
vt 0.409922 0.665217
vt 0.411638 0.663844
vt 0.411638 0.659839
vt 0.411638 0.659839
vt 0.409922 0.653202
vt 0.409922 0.665217
vt 0.411638 0.658466
vt 0.409922 0.653202
vt 0.411638 0.659839
vt 0.411638 0.659839
vt 0.415986 0.658443
vt 0.411638 0.658466
vt 0.411638 0.654575
vt 0.409922 0.653202
vt 0.411638 0.658466
vt 0.416226 0.654611
vt 0.416402 0.653218
vt 0.411638 0.654575
vt 0.409922 0.653202
vt 0.411638 0.654575
vt 0.416402 0.653218
vt 0.416226 0.654611
vt 0.41835 0.653891
vt 0.416402 0.653218
vt 0.417426 0.655253
vt 0.419507 0.655292
vt 0.41835 0.653891
vt 0.416226 0.654611
vt 0.417426 0.655253
vt 0.41835 0.653891
vt 0.417854 0.65595
vt 0.419507 0.655292
vt 0.417426 0.655253
vt 0.417799 0.657271
vt 0.41952 0.657361
vt 0.417854 0.65595
vt 0.41952 0.657361
vt 0.419507 0.655292
vt 0.417854 0.65595
vt 0.417799 0.657271
vt 0.418814 0.658458
vt 0.41952 0.657361
vt 0.411638 0.663844
vt 0.409922 0.665217
vt 0.41684 0.665202
s off
f 1/1/1 2/2/2 3/3/3
f 4/4/4 5/5/5 6/6/6
f 7/7/7 8/8/8 9/9/9
f 10/10/10 11/11/11 12/12/12
f 13/13/13 14/14/14 15/15/15
f 16/16/16 17/17/17 18/18/18
f 19/19/19 20/20/20 21/21/21
f 22/22/22 23/23/23 24/24/24
f 25/25/25 26/26/26 27/27/27
f 28/28/28 29/29/29 30/30/30
f 28/28/28 30/30/30 31/31/31
f 32/32/32 33/33/33 34/34/34
f 35/35/35 36/36/36 37/37/37
f 38/38/38 39/39/39 40/40/40
f 41/41/41 42/42/42 43/43/43
f 44/44/44 45/45/45 46/46/46
f 47/47/47 48/48/48 49/49/49
f 50/50/50 51/51/51 52/52/52
f 53/53/53 54/54/54 55/55/55
f 56/56/56 57/57/57 58/58/58
f 59/59/59 60/60/60 61/61/61
f 62/62/62 63/63/63 64/64/64
f 65/65/65 66/66/66 67/67/67
f 68/68/68 69/69/69 70/70/70
f 71/71/71 72/72/72 73/73/73
f 74/74/74 75/75/75 76/76/76
f 77/77/77 78/78/78 79/79/79
f 80/80/80 81/81/81 82/82/82
f 83/83/83 84/84/84 85/85/85
f 86/86/86 87/87/87 88/88/88
