v 0.67908 0.133186 -0.127515
v 0.67908 0.121924 -0.127885
v 0.722465 0.121924 -0.127885
v 0.722465 0.133186 -0.127515
v 0.690852 0.196199 -0.149936
v 0.67908 0.133186 -0.127515
v 0.722465 0.133186 -0.127515
v 0.728324 0.194504 -0.149333
v 0.67908 0.133186 -0.127515
v 0.652057 0.133186 -0.127515
v 0.652052 0.121924 -0.127885
v 0.67908 0.121924 -0.127885
v 0.690852 0.196199 -0.149936
v 0.659498 0.198441 -0.150734
v 0.652057 0.133186 -0.127515
v 0.67908 0.133186 -0.127515
v 0.728576 0.197157 -0.153063
v 0.691344 0.198881 -0.153664
v 0.690852 0.196199 -0.149936
v 0.728324 0.194504 -0.149333
v 0.691344 0.198881 -0.153664
v 0.660181 0.201171 -0.154458
v 0.659498 0.198441 -0.150734
v 0.690852 0.196199 -0.149936
v 0.660181 0.201171 -0.154458
v 0.656927 0.201514 -0.158588
v 0.653603 0.199012 -0.157214
v 0.659498 0.198441 -0.150734
v 0.639643 0.133603 -0.140211
v 0.643279 0.133308 -0.131234
v 0.659498 0.198441 -0.150734
v 0.653603 0.199012 -0.157214
v 0.643279 0.133308 -0.131234
v 0.652057 0.133186 -0.127515
v 0.659498 0.198441 -0.150734
v 0.639643 0.122341 -0.140565
v 0.643278 0.122046 -0.131599
v 0.643279 0.133308 -0.131234
v 0.639643 0.133603 -0.140211
v 0.643278 0.122046 -0.131599
v 0.652052 0.121924 -0.127885
v 0.652057 0.133186 -0.127515
v 0.643279 0.133308 -0.131234
v 0.639643 0.125618 -0.240299
v 0.639643 0.122341 -0.140565
v 0.639643 0.133603 -0.140211
v 0.639643 0.13688 -0.239928
v 0.643282 0.125903 -0.24899
v 0.639643 0.125618 -0.240299
v 0.639643 0.13688 -0.239928
v 0.643284 0.137165 -0.24862
v 0.643284 0.137165 -0.24862
v 0.639643 0.13688 -0.239928
v 0.653594 0.201745 -0.241731
v 0.653594 0.201745 -0.241731
v 0.639643 0.13688 -0.239928
v 0.639643 0.133603 -0.140211
v 0.653603 0.199012 -0.157214
v 0.656927 0.20426 -0.241045
v 0.660147 0.20426 -0.24471
v 0.659543 0.201614 -0.247688
v 0.653594 0.201745 -0.241731
v 0.653603 0.199012 -0.157214
v 0.656927 0.201514 -0.158588
v 0.656927 0.20426 -0.241045
v 0.653594 0.201745 -0.241731
v 0.652075 0.137284 -0.25222
v 0.643284 0.137165 -0.24862
v 0.653594 0.201745 -0.241731
v 0.659543 0.201614 -0.247688
v 0.660147 0.20426 -0.24471
v 0.691375 0.202583 -0.244826
v 0.690862 0.200027 -0.2478
v 0.659543 0.201614 -0.247688
v 0.67908 0.137284 -0.25222
v 0.652075 0.137284 -0.25222
v 0.659543 0.201614 -0.247688
v 0.690862 0.200027 -0.2478
v 0.652069 0.126022 -0.25259
v 0.643282 0.125903 -0.24899
v 0.643284 0.137165 -0.24862
v 0.652075 0.137284 -0.25222
v 0.67908 0.126022 -0.25259
v 0.652069 0.126022 -0.25259
v 0.652075 0.137284 -0.25222
v 0.67908 0.137284 -0.25222
v 0.67908 0.126022 -0.25259
v 0.67908 0.137284 -0.25222
v 0.722465 0.137284 -0.25222
v 0.722465 0.126022 -0.25259
v 0.67908 0.137284 -0.25222
v 0.690862 0.200027 -0.2478
v 0.728342 0.198828 -0.247884
v 0.722465 0.137284 -0.25222
v 0.722465 0.126022 -0.25259
v 0.722465 0.137284 -0.25222
v 0.76585 0.137284 -0.25222
v 0.76585 0.126022 -0.25259
v 0.76585 0.126022 -0.25259
v 0.76585 0.137284 -0.25222
v 0.809234 0.137284 -0.25222
v 0.809234 0.126022 -0.25259
v 0.809234 0.126022 -0.25259
v 0.809234 0.137284 -0.25222
v 0.852619 0.137284 -0.25222
v 0.852619 0.126022 -0.25259
v 0.87963 0.126022 -0.25259
v 0.852619 0.126022 -0.25259
v 0.852619 0.137284 -0.25222
v 0.879625 0.137284 -0.25222
v 0.879625 0.137284 -0.25222
v 0.888415 0.137165 -0.24862
v 0.888417 0.125903 -0.24899
v 0.87963 0.126022 -0.25259
v 0.888415 0.137165 -0.24862
v 0.892056 0.13688 -0.239928
v 0.892056 0.125618 -0.240298
v 0.888417 0.125903 -0.24899
v 0.892056 0.122341 -0.140565
v 0.892056 0.125618 -0.240298
v 0.892056 0.13688 -0.239928
v 0.892056 0.133603 -0.140211
v 0.888422 0.122046 -0.131599
v 0.892056 0.122341 -0.140565
v 0.892056 0.133603 -0.140211
v 0.88842 0.133308 -0.131234
v 0.88842 0.133308 -0.131234
v 0.892056 0.133603 -0.140211
v 0.878096 0.199012 -0.157214
v 0.872201 0.198441 -0.150734
v 0.878096 0.199012 -0.157214
v 0.892056 0.133603 -0.140211
v 0.892056 0.13688 -0.239928
v 0.878106 0.201745 -0.241731
v 0.878096 0.199012 -0.157214
v 0.878106 0.201745 -0.241731
v 0.874772 0.20426 -0.241045
v 0.874772 0.201514 -0.158588
v 0.874772 0.201514 -0.158588
v 0.871518 0.201171 -0.154458
v 0.872201 0.198441 -0.150734
v 0.878096 0.199012 -0.157214
v 0.871518 0.201171 -0.154458
v 0.840355 0.198881 -0.153664
v 0.840847 0.196199 -0.149936
v 0.872201 0.198441 -0.150734
v 0.872201 0.198441 -0.150734
v 0.840847 0.196199 -0.149936
v 0.852619 0.133186 -0.127515
v 0.879642 0.133186 -0.127515
v 0.879642 0.133186 -0.127515
v 0.88842 0.133308 -0.131234
v 0.872201 0.198441 -0.150734
v 0.879647 0.121924 -0.127885
v 0.888422 0.122046 -0.131599
v 0.88842 0.133308 -0.131234
v 0.879642 0.133186 -0.127515
v 0.879642 0.133186 -0.127515
v 0.852619 0.133186 -0.127515
v 0.852619 0.121924 -0.127885
v 0.879647 0.121924 -0.127885
v 0.809234 0.133186 -0.127515
v 0.809234 0.121924 -0.127885
v 0.852619 0.121924 -0.127885
v 0.852619 0.133186 -0.127515
v 0.803375 0.194504 -0.149333
v 0.809234 0.133186 -0.127515
v 0.852619 0.133186 -0.127515
v 0.840847 0.196199 -0.149936
v 0.76585 0.133186 -0.127515
v 0.76585 0.121924 -0.127885
v 0.809234 0.121924 -0.127885
v 0.809234 0.133186 -0.127515
v 0.722465 0.133186 -0.127515
v 0.722465 0.121924 -0.127885
v 0.76585 0.121924 -0.127885
v 0.76585 0.133186 -0.127515
v 0.728324 0.194504 -0.149333
v 0.722465 0.133186 -0.127515
v 0.76585 0.133186 -0.127515
v 0.76585 0.194032 -0.149165
v 0.76585 0.194032 -0.149165
v 0.76585 0.133186 -0.127515
v 0.809234 0.133186 -0.127515
v 0.803375 0.194504 -0.149333
v 0.76585 0.196676 -0.152896
v 0.728576 0.197157 -0.153063
v 0.728324 0.194504 -0.149333
v 0.76585 0.194032 -0.149165
v 0.803123 0.197157 -0.153063
v 0.76585 0.196676 -0.152896
v 0.76585 0.194032 -0.149165
v 0.803375 0.194504 -0.149333
v 0.840355 0.198881 -0.153664
v 0.803123 0.197157 -0.153063
v 0.803375 0.194504 -0.149333
v 0.840847 0.196199 -0.149936
v 0.76585 0.196626 -0.166406
v 0.76585 0.196676 -0.152896
v 0.803123 0.197157 -0.153063
v 0.803129 0.197161 -0.166535
v 0.803129 0.197161 -0.166535
v 0.803123 0.197157 -0.153063
v 0.840355 0.198881 -0.153664
v 0.840365 0.199057 -0.167014
v 0.840365 0.199057 -0.167014
v 0.84034 0.201677 -0.231506
v 0.80311 0.20015 -0.231495
v 0.803129 0.197161 -0.166535
v 0.803129 0.197161 -0.166535
v 0.80311 0.20015 -0.231495
v 0.76585 0.199703 -0.231491
v 0.76585 0.196626 -0.166406
v 0.803097 0.201338 -0.244915
v 0.80311 0.20015 -0.231495
v 0.84034 0.201677 -0.231506
v 0.840325 0.202583 -0.244826
v 0.76585 0.200988 -0.24494
v 0.76585 0.199703 -0.231491
v 0.80311 0.20015 -0.231495
v 0.803097 0.201338 -0.244915
v 0.76585 0.200988 -0.24494
v 0.803097 0.201338 -0.244915
v 0.803358 0.198828 -0.247884
v 0.76585 0.198494 -0.247908
v 0.803097 0.201338 -0.244915
v 0.840325 0.202583 -0.244826
v 0.840837 0.200027 -0.2478
v 0.803358 0.198828 -0.247884
v 0.840325 0.202583 -0.244826
v 0.871552 0.204259 -0.24471
v 0.872156 0.201614 -0.247688
v 0.840837 0.200027 -0.2478
v 0.874772 0.20426 -0.241045
v 0.871552 0.204259 -0.24471
v 0.840325 0.202583 -0.244826
v 0.84034 0.201677 -0.231506
v 0.871552 0.204259 -0.24471
v 0.874772 0.20426 -0.241045
v 0.878106 0.201745 -0.241731
v 0.872156 0.201614 -0.247688
v 0.840365 0.199057 -0.167014
v 0.874772 0.201514 -0.158588
v 0.874772 0.20426 -0.241045
v 0.84034 0.201677 -0.231506
v 0.872156 0.201614 -0.247688
v 0.878106 0.201745 -0.241731
v 0.892056 0.13688 -0.239928
v 0.888415 0.137165 -0.24862
v 0.879625 0.137284 -0.25222
v 0.852619 0.137284 -0.25222
v 0.840837 0.200027 -0.2478
v 0.872156 0.201614 -0.247688
v 0.879625 0.137284 -0.25222
v 0.872156 0.201614 -0.247688
v 0.888415 0.137165 -0.24862
v 0.809234 0.137284 -0.25222
v 0.803358 0.198828 -0.247884
v 0.840837 0.200027 -0.2478
v 0.852619 0.137284 -0.25222
v 0.76585 0.137284 -0.25222
v 0.76585 0.198494 -0.247908
v 0.803358 0.198828 -0.247884
v 0.809234 0.137284 -0.25222
v 0.728602 0.201338 -0.244915
v 0.76585 0.200988 -0.24494
v 0.76585 0.198494 -0.247908
v 0.728342 0.198828 -0.247884
v 0.722465 0.137284 -0.25222
v 0.728342 0.198828 -0.247884
v 0.76585 0.198494 -0.247908
v 0.76585 0.137284 -0.25222
v 0.691375 0.202583 -0.244826
v 0.728602 0.201338 -0.244915
v 0.728342 0.198828 -0.247884
v 0.690862 0.200027 -0.2478
v 0.691375 0.202583 -0.244826
v 0.69136 0.201677 -0.231506
v 0.728589 0.20015 -0.231495
v 0.728602 0.201338 -0.244915
v 0.728602 0.201338 -0.244915
v 0.728589 0.20015 -0.231495
v 0.76585 0.199703 -0.231491
v 0.76585 0.200988 -0.24494
v 0.72857 0.197161 -0.166535
v 0.728589 0.20015 -0.231495
v 0.69136 0.201677 -0.231506
v 0.691334 0.199057 -0.167014
v 0.76585 0.196626 -0.166406
v 0.76585 0.199703 -0.231491
v 0.728589 0.20015 -0.231495
v 0.72857 0.197161 -0.166535
v 0.691334 0.199057 -0.167014
v 0.691344 0.198881 -0.153664
v 0.728576 0.197157 -0.153063
v 0.72857 0.197161 -0.166535
v 0.72857 0.197161 -0.166535
v 0.728576 0.197157 -0.153063
v 0.76585 0.196676 -0.152896
v 0.76585 0.196626 -0.166406
v 0.691334 0.199057 -0.167014
v 0.69136 0.201677 -0.231506
v 0.656927 0.20426 -0.241045
v 0.656927 0.201514 -0.158588
v 0.691334 0.199057 -0.167014
v 0.656927 0.201514 -0.158588
v 0.660181 0.201171 -0.154458
v 0.691344 0.198881 -0.153664
v 0.691375 0.202583 -0.244826
v 0.660147 0.20426 -0.24471
v 0.656927 0.20426 -0.241045
v 0.69136 0.201677 -0.231506
v 0.874772 0.201514 -0.158588
v 0.840365 0.199057 -0.167014
v 0.840355 0.198881 -0.153664
v 0.871518 0.201171 -0.154458
vn -0 -0.0328 0.9995
vn -0 -0.0328 0.9995
vn -0 -0.0328 0.9995
vn -0 -0.0328 0.9995
vn 0.0003 0.3389 0.9408
vn -0 0.3352 0.9421
vn -0 0.3352 0.9421
vn 0.0001 0.3389 0.9408
vn -0 -0.0328 0.9995
vn -0.1033 -0.0326 0.9941
vn -0.1033 -0.0325 0.9941
vn -0 -0.0328 0.9995
vn 0.0003 0.3389 0.9408
vn -0.0748 0.3437 0.9361
vn -0.077 0.3423 0.9364
vn -0 0.3352 0.9421
vn 0.0309 0.9995 0.0063
vn 0.061 0.998 0.0151
vn 0.0003 0.3389 0.9408
vn 0.0001 0.3389 0.9408
vn 0.061 0.998 0.0151
vn 0.072 0.9972 0.0192
vn -0.0748 0.3437 0.9361
vn 0.0003 0.3389 0.9408
vn 0.072 0.9972 0.0192
vn 0.0695 0.9972 0.0268
vn -0.9776 0.2106 0.007
vn -0.0748 0.3437 0.9361
vn -0.9775 0.2109 0.0084
vn -0.672 0.3395 0.6582
vn -0.0748 0.3437 0.9361
vn -0.9776 0.2106 0.007
vn -0.672 0.3395 0.6582
vn -0.077 0.3423 0.9364
vn -0.0748 0.3437 0.9361
vn -0.9993 -0.0011 0.0372
vn -0.715 -0.0226 0.6987
vn -0.715 -0.0226 0.6987
vn -0.9993 -0.001 0.0372
vn -0.715 -0.0226 0.6987
vn -0.1033 -0.0325 0.9941
vn -0.1033 -0.0326 0.9941
vn -0.715 -0.0226 0.6987
vn -0.9993 0.0013 -0.0374
vn -0.9993 -0.0011 0.0372
vn -0.9993 -0.001 0.0372
vn -0.9993 0.0014 -0.0373
vn -0.7034 0.0234 -0.7104
vn -0.9993 0.0013 -0.0374
vn -0.9993 0.0014 -0.0373
vn -0.7032 0.0235 -0.7106
vn -0.6973 0.1591 -0.6989
vn -0.9782 0.2077 0.003
vn -0.9776 0.2106 0.0069
vn -0.9776 0.2106 0.0069
vn -0.9782 0.2077 0.003
vn -0.9775 0.2109 0.0084
vn -0.9776 0.2106 0.007
vn 0.0632 0.9967 0.051
vn 0.0555 0.9964 0.0636
vn -0.0714 0.1163 -0.9906
vn -0.9776 0.2106 0.0069
vn -0.9776 0.2106 0.007
vn 0.0695 0.9972 0.0268
vn 0.0632 0.9967 0.051
vn -0.9776 0.2106 0.0069
vn -0.079 0.0795 -0.9937
vn -0.6973 0.1591 -0.6989
vn -0.9776 0.2106 0.0069
vn -0.0714 0.1163 -0.9906
vn 0.0555 0.9964 0.0636
vn 0.0463 0.9967 0.067
vn 0.0001 0.0742 -0.9972
vn -0.0714 0.1163 -0.9906
vn -0 0.0703 -0.9975
vn -0.079 0.0795 -0.9937
vn -0.0714 0.1163 -0.9906
vn 0.0001 0.0742 -0.9972
vn -0.1001 0.0327 -0.9944
vn -0.7034 0.0234 -0.7104
vn -0.7032 0.0235 -0.7106
vn -0.1001 0.0327 -0.9944
vn -0 0.0328 -0.9995
vn -0.1001 0.0327 -0.9944
vn -0.1001 0.0327 -0.9944
vn -0 0.0328 -0.9995
vn -0 0.0328 -0.9995
vn -0 0.0328 -0.9995
vn -0 0.0328 -0.9995
vn -0 0.0328 -0.9995
vn -0 0.0703 -0.9975
vn 0.0001 0.0742 -0.9972
vn -0 0.0742 -0.9972
vn -0 0.0703 -0.9975
vn -0 0.0328 -0.9995
vn -0 0.0328 -0.9995
vn -0 0.0328 -0.9995
vn -0 0.0328 -0.9995
vn -0 0.0328 -0.9995
vn -0 0.0328 -0.9995
vn -0 0.0328 -0.9995
vn -0 0.0328 -0.9995
vn -0 0.0328 -0.9995
vn -0 0.0328 -0.9995
vn -0 0.0328 -0.9995
vn -0 0.0328 -0.9995
vn 0.1001 0.0327 -0.9944
vn -0 0.0328 -0.9995
vn -0 0.0328 -0.9995
vn 0.1001 0.0328 -0.9944
vn 0.1001 0.0328 -0.9944
vn 0.7032 0.0234 -0.7106
vn 0.7037 0.0234 -0.7101
vn 0.1001 0.0327 -0.9944
vn 0.7032 0.0234 -0.7106
vn 0.9993 0.0013 -0.0373
vn 0.9993 0.001 -0.0374
vn 0.7037 0.0234 -0.7101
vn 0.9993 -0.001 0.0372
vn 0.9993 0.001 -0.0374
vn 0.9993 0.0013 -0.0373
vn 0.9993 -0.0011 0.0372
vn 0.715 -0.0226 0.6987
vn 0.9993 -0.001 0.0372
vn 0.9993 -0.0011 0.0372
vn 0.715 -0.0226 0.6987
vn 0.672 0.3395 0.6582
vn 0.9775 0.211 0.0085
vn 0.9775 0.2106 0.0069
vn 0.0747 0.3437 0.9361
vn 0.9775 0.2106 0.0069
vn 0.9775 0.211 0.0085
vn 0.9776 0.2105 0.0031
vn 0.9776 0.2106 0.0069
vn 0.9775 0.2106 0.0069
vn 0.9776 0.2106 0.0069
vn -0.0632 0.9967 0.051
vn -0.0695 0.9972 0.0268
vn -0.0695 0.9972 0.0268
vn -0.072 0.9972 0.0192
vn 0.0747 0.3437 0.9361
vn 0.9775 0.2106 0.0069
vn -0.072 0.9972 0.0192
vn -0.061 0.998 0.0151
vn -0.0003 0.3389 0.9408
vn 0.0747 0.3437 0.9361
vn 0.0747 0.3437 0.9361
vn -0.0003 0.3389 0.9408
vn -0 0.3352 0.9421
vn 0.077 0.3423 0.9364
vn 0.077 0.3423 0.9364
vn 0.672 0.3395 0.6582
vn 0.0747 0.3437 0.9361
vn 0.1033 -0.0326 0.9941
vn 0.715 -0.0226 0.6987
vn 0.715 -0.0226 0.6987
vn 0.1034 -0.0325 0.9941
vn 0.1034 -0.0325 0.9941
vn -0 -0.0328 0.9995
vn -0 -0.0328 0.9995
vn 0.1033 -0.0326 0.9941
vn -0 -0.0328 0.9995
vn -0 -0.0328 0.9995
vn -0 -0.0328 0.9995
vn -0 -0.0328 0.9995
vn -0.0001 0.3389 0.9408
vn -0 0.3352 0.9421
vn -0 0.3352 0.9421
vn -0.0003 0.3389 0.9408
vn -0 -0.0328 0.9995
vn -0 -0.0328 0.9995
vn -0 -0.0328 0.9995
vn -0 -0.0328 0.9995
vn -0 -0.0328 0.9995
vn -0 -0.0328 0.9995
vn -0 -0.0328 0.9995
vn -0 -0.0328 0.9995
vn 0.0001 0.3389 0.9408
vn -0 0.3352 0.9421
vn -0 0.3352 0.9421
vn 0.0003 0.3389 0.9408
vn 0.0003 0.3389 0.9408
vn -0 0.3352 0.9421
vn -0 0.3352 0.9421
vn -0.0001 0.3389 0.9408
vn 0.0001 1 0.0022
vn 0.0309 0.9995 0.0063
vn 0.0001 0.3389 0.9408
vn 0.0003 0.3389 0.9408
vn -0.0309 0.9995 0.0064
vn 0.0001 1 0.0022
vn 0.0003 0.3389 0.9408
vn -0.0001 0.3389 0.9408
vn -0.061 0.998 0.0151
vn -0.0309 0.9995 0.0064
vn -0.0001 0.3389 0.9408
vn -0.0003 0.3389 0.9408
vn -0 0.9997 0.0224
vn 0.0001 1 0.0022
vn -0.0309 0.9995 0.0064
vn -0.0302 0.9993 0.0237
vn -0.0302 0.9993 0.0237
vn -0.0309 0.9995 0.0064
vn -0.061 0.998 0.0151
vn -0.0601 0.9978 0.0264
vn -0.0601 0.9978 0.0264
vn -0.0534 0.9971 0.0542
vn -0.0266 0.9975 0.0649
vn -0.0302 0.9993 0.0237
vn -0.0302 0.9993 0.0237
vn -0.0266 0.9975 0.0649
vn -0 0.9976 0.0691
vn -0 0.9997 0.0224
vn -0.0223 0.9965 0.0809
vn -0.0266 0.9975 0.0649
vn -0.0534 0.9971 0.0542
vn -0.0463 0.9967 0.0669
vn -0 0.9962 0.0877
vn -0 0.9976 0.0691
vn -0.0266 0.9975 0.0649
vn -0.0223 0.9965 0.0809
vn -0 0.9962 0.0877
vn -0.0223 0.9965 0.0809
vn -0.0001 0.0742 -0.9972
vn -0 0.0743 -0.9972
vn -0.0223 0.9965 0.0809
vn -0.0463 0.9967 0.0669
vn -0.0002 0.0742 -0.9972
vn -0.0001 0.0742 -0.9972
vn -0.0463 0.9967 0.0669
vn -0.0554 0.9964 0.0636
vn 0.0706 0.115 -0.9909
vn -0.0002 0.0742 -0.9972
vn -0.0632 0.9967 0.051
vn -0.0554 0.9964 0.0636
vn -0.0463 0.9967 0.0669
vn -0.0534 0.9971 0.0542
vn -0.0554 0.9964 0.0636
vn -0.0632 0.9967 0.051
vn 0.9776 0.2106 0.0069
vn 0.0706 0.115 -0.9909
vn -0.0601 0.9978 0.0264
vn -0.0695 0.9972 0.0268
vn -0.0632 0.9967 0.051
vn -0.0534 0.9971 0.0542
vn 0.0706 0.115 -0.9909
vn 0.9776 0.2106 0.0069
vn 0.9776 0.2105 0.0031
vn 0.6972 0.1591 -0.699
vn 0.079 0.0794 -0.9937
vn -0 0.0703 -0.9975
vn -0.0002 0.0742 -0.9972
vn 0.0706 0.115 -0.9909
vn 0.079 0.0794 -0.9937
vn 0.0706 0.115 -0.9909
vn 0.6972 0.1591 -0.699
vn -0 0.0703 -0.9975
vn -0.0001 0.0742 -0.9972
vn -0.0002 0.0742 -0.9972
vn -0 0.0703 -0.9975
vn -0 0.0703 -0.9975
vn -0 0.0743 -0.9972
vn -0.0001 0.0742 -0.9972
vn -0 0.0703 -0.9975
vn 0.0239 0.9964 0.0809
vn -0 0.9962 0.0877
vn -0 0.0743 -0.9972
vn -0 0.0742 -0.9972
vn -0 0.0703 -0.9975
vn -0 0.0742 -0.9972
vn -0 0.0743 -0.9972
vn -0 0.0703 -0.9975
vn 0.0463 0.9967 0.067
vn 0.0239 0.9964 0.0809
vn -0 0.0742 -0.9972
vn 0.0001 0.0742 -0.9972
vn 0.0463 0.9967 0.067
vn 0.0534 0.9971 0.0542
vn 0.0266 0.9975 0.0649
vn 0.0239 0.9964 0.0809
vn 0.0239 0.9964 0.0809
vn 0.0266 0.9975 0.0649
vn -0 0.9976 0.0691
vn -0 0.9962 0.0877
vn 0.0302 0.9993 0.0237
vn 0.0266 0.9975 0.0649
vn 0.0534 0.9971 0.0542
vn 0.0601 0.9978 0.0264
vn -0 0.9997 0.0224
vn -0 0.9976 0.0691
vn 0.0266 0.9975 0.0649
vn 0.0302 0.9993 0.0237
vn 0.0601 0.9978 0.0264
vn 0.061 0.998 0.0151
vn 0.0309 0.9995 0.0063
vn 0.0302 0.9993 0.0237
vn 0.0302 0.9993 0.0237
vn 0.0309 0.9995 0.0063
vn 0.0001 1 0.0022
vn -0 0.9997 0.0224
vn 0.0601 0.9978 0.0264
vn 0.0534 0.9971 0.0542
vn 0.0632 0.9967 0.051
vn 0.0695 0.9972 0.0268
vn 0.0601 0.9978 0.0264
vn 0.0695 0.9972 0.0268
vn 0.072 0.9972 0.0192
vn 0.061 0.998 0.0151
vn 0.0463 0.9967 0.067
vn 0.0555 0.9964 0.0636
vn 0.0632 0.9967 0.051
vn 0.0534 0.9971 0.0542
vn -0.0695 0.9972 0.0268
vn -0.0601 0.9978 0.0264
vn -0.061 0.998 0.0151
vn -0.072 0.9972 0.0192
vt 0.832981 0.121955
vt 0.832981 0.123702
vt 0.854255 0.123702
vt 0.854255 0.121955
vt 0.844545 0.113304
vt 0.832981 0.121955
vt 0.854255 0.121955
vt 0.860026 0.113553
vt 0.832981 0.121955
vt 0.820115 0.121995
vt 0.819728 0.123702
vt 0.832981 0.123702
vt 0.844545 0.113304
vt 0.831593 0.112975
vt 0.820115 0.121995
vt 0.832981 0.121955
vt 0.86013 0.112012
vt 0.844749 0.111764
vt 0.844545 0.113304
vt 0.860026 0.113553
vt 0.844749 0.111764
vt 0.831875 0.111436
vt 0.831593 0.112975
vt 0.844545 0.113304
vt 0.831875 0.111436
vt 0.830531 0.10973
vt 0.829158 0.110298
vt 0.831593 0.112975
vt 0.815513 0.117168
vt 0.816731 0.120644
vt 0.831593 0.112975
vt 0.829158 0.110298
vt 0.816731 0.120644
vt 0.820115 0.121995
vt 0.831593 0.112975
vt 0.813643 0.117485
vt 0.815426 0.121881
vt 0.816731 0.120644
vt 0.815513 0.117168
vt 0.815426 0.121881
vt 0.819728 0.123702
vt 0.820115 0.121995
vt 0.816731 0.120644
vt 0.813643 0.068581
vt 0.813643 0.117485
vt 0.815513 0.117168
vt 0.81555 0.069128
vt 0.815428 0.06432
vt 0.813643 0.068581
vt 0.81555 0.069128
vt 0.816868 0.065806
vt 0.816868 0.065806
vt 0.81555 0.069128
vt 0.829154 0.075382
vt 0.829154 0.075382
vt 0.81555 0.069128
vt 0.815513 0.117168
vt 0.829158 0.110298
vt 0.83053 0.075666
vt 0.83186 0.074152
vt 0.831611 0.072922
vt 0.829154 0.075382
vt 0.829158 0.110298
vt 0.830531 0.10973
vt 0.83053 0.075666
vt 0.829154 0.075382
vt 0.820219 0.064622
vt 0.816868 0.065806
vt 0.829154 0.075382
vt 0.831611 0.072922
vt 0.83186 0.074152
vt 0.844761 0.074104
vt 0.84455 0.072875
vt 0.831611 0.072922
vt 0.832981 0.064685
vt 0.820219 0.064622
vt 0.831611 0.072922
vt 0.84455 0.072875
vt 0.819737 0.062554
vt 0.815428 0.06432
vt 0.816868 0.065806
vt 0.820219 0.064622
vt 0.832981 0.062554
vt 0.819737 0.062554
vt 0.820219 0.064622
vt 0.832981 0.064685
vt 0.832981 0.062554
vt 0.832981 0.064685
vt 0.854255 0.064685
vt 0.854255 0.062554
vt 0.832981 0.064685
vt 0.84455 0.072875
vt 0.860033 0.072841
vt 0.854255 0.064685
vt 0.854255 0.062554
vt 0.854255 0.064685
vt 0.875528 0.064685
vt 0.875528 0.062554
vt 0.875528 0.062554
vt 0.875528 0.064685
vt 0.896801 0.064685
vt 0.896801 0.062554
vt 0.896801 0.062554
vt 0.896801 0.064685
vt 0.918074 0.064685
vt 0.918074 0.062554
vt 0.931319 0.062554
vt 0.918074 0.062554
vt 0.918074 0.064685
vt 0.930927 0.064645
vt 0.930927 0.064645
vt 0.934296 0.065918
vt 0.935628 0.06432
vt 0.931319 0.062554
vt 0.934296 0.065918
vt 0.935523 0.069208
vt 0.937412 0.068581
vt 0.935628 0.06432
vt 0.937412 0.117485
vt 0.937412 0.068581
vt 0.935523 0.069208
vt 0.935542 0.117168
vt 0.93563 0.121881
vt 0.937412 0.117485
vt 0.935542 0.117168
vt 0.934324 0.120644
vt 0.934324 0.120644
vt 0.935542 0.117168
vt 0.921898 0.110298
vt 0.919463 0.112975
vt 0.921898 0.110298
vt 0.935542 0.117168
vt 0.935523 0.069208
vt 0.921902 0.075382
vt 0.921898 0.110298
vt 0.921902 0.075382
vt 0.920525 0.075666
vt 0.920525 0.10973
vt 0.920525 0.10973
vt 0.919181 0.111436
vt 0.919463 0.112975
vt 0.921898 0.110298
vt 0.919181 0.111436
vt 0.906307 0.111764
vt 0.90651 0.113304
vt 0.919463 0.112975
vt 0.919463 0.112975
vt 0.90651 0.113304
vt 0.918074 0.121955
vt 0.93094 0.121995
vt 0.93094 0.121995
vt 0.934324 0.120644
vt 0.919463 0.112975
vt 0.931327 0.123702
vt 0.93563 0.121881
vt 0.934324 0.120644
vt 0.93094 0.121995
vt 0.93094 0.121995
vt 0.918074 0.121955
vt 0.918074 0.123702
vt 0.931327 0.123702
vt 0.896801 0.121955
vt 0.896801 0.123702
vt 0.918074 0.123702
vt 0.918074 0.121955
vt 0.89103 0.113553
vt 0.896801 0.121955
vt 0.918074 0.121955
vt 0.90651 0.113304
vt 0.875528 0.121955
vt 0.875528 0.123702
vt 0.896801 0.123702
vt 0.896801 0.121955
vt 0.854255 0.121955
vt 0.854255 0.123702
vt 0.875528 0.123702
vt 0.875528 0.121955
vt 0.860026 0.113553
vt 0.854255 0.121955
vt 0.875528 0.121955
vt 0.875528 0.113623
vt 0.875528 0.113623
vt 0.875528 0.121955
vt 0.896801 0.121955
vt 0.89103 0.113553
vt 0.875528 0.112081
vt 0.86013 0.112012
vt 0.860026 0.113553
vt 0.875528 0.113623
vt 0.890926 0.112012
vt 0.875528 0.112081
vt 0.875528 0.113623
vt 0.89103 0.113553
vt 0.906307 0.111764
vt 0.890926 0.112012
vt 0.89103 0.113553
vt 0.90651 0.113304
vt 0.875528 0.1065
vt 0.875528 0.112081
vt 0.890926 0.112012
vt 0.890929 0.106447
vt 0.890929 0.106447
vt 0.890926 0.112012
vt 0.906307 0.111764
vt 0.906311 0.106249
vt 0.906311 0.106249
vt 0.906301 0.079607
vt 0.890921 0.079611
vt 0.890929 0.106447
vt 0.890929 0.106447
vt 0.890921 0.079611
vt 0.875528 0.079613
vt 0.875528 0.1065
vt 0.890915 0.074067
vt 0.890921 0.079611
vt 0.906301 0.079607
vt 0.906294 0.074104
vt 0.875528 0.074057
vt 0.875528 0.079613
vt 0.890921 0.079611
vt 0.890915 0.074067
vt 0.875528 0.074057
vt 0.890915 0.074067
vt 0.891023 0.072841
vt 0.875528 0.072831
vt 0.890915 0.074067
vt 0.906294 0.074104
vt 0.906506 0.072876
vt 0.891023 0.072841
vt 0.906294 0.074104
vt 0.919195 0.074152
vt 0.919444 0.072922
vt 0.906506 0.072876
vt 0.920525 0.075666
vt 0.919195 0.074152
vt 0.906294 0.074104
vt 0.906301 0.079607
vt 0.919195 0.074152
vt 0.920525 0.075666
vt 0.921902 0.075382
vt 0.919444 0.072922
vt 0.906311 0.106249
vt 0.920525 0.10973
vt 0.920525 0.075666
vt 0.906301 0.079607
vt 0.919444 0.072922
vt 0.921902 0.075382
vt 0.935523 0.069208
vt 0.934296 0.065918
vt 0.930927 0.064645
vt 0.918074 0.064685
vt 0.906506 0.072876
vt 0.919444 0.072922
vt 0.930927 0.064645
vt 0.919444 0.072922
vt 0.934296 0.065918
vt 0.896801 0.064685
vt 0.891023 0.072841
vt 0.906506 0.072876
vt 0.918074 0.064685
vt 0.875528 0.064685
vt 0.875528 0.072831
vt 0.891023 0.072841
vt 0.896801 0.064685
vt 0.86014 0.074067
vt 0.875528 0.074057
vt 0.875528 0.072831
vt 0.860033 0.072841
vt 0.854255 0.064685
vt 0.860033 0.072841
vt 0.875528 0.072831
vt 0.875528 0.064685
vt 0.844761 0.074104
vt 0.86014 0.074067
vt 0.860033 0.072841
vt 0.84455 0.072875
vt 0.844761 0.074104
vt 0.844755 0.079607
vt 0.860135 0.079611
vt 0.86014 0.074067
vt 0.86014 0.074067
vt 0.860135 0.079611
vt 0.875528 0.079613
vt 0.875528 0.074057
vt 0.860127 0.106447
vt 0.860135 0.079611
vt 0.844755 0.079607
vt 0.844744 0.106249
vt 0.875528 0.1065
vt 0.875528 0.079613
vt 0.860135 0.079611
vt 0.860127 0.106447
vt 0.844744 0.106249
vt 0.844749 0.111764
vt 0.86013 0.112012
vt 0.860127 0.106447
vt 0.860127 0.106447
vt 0.86013 0.112012
vt 0.875528 0.112081
vt 0.875528 0.1065
vt 0.844744 0.106249
vt 0.844755 0.079607
vt 0.83053 0.075666
vt 0.830531 0.10973
vt 0.844744 0.106249
vt 0.830531 0.10973
vt 0.831875 0.111436
vt 0.844749 0.111764
vt 0.844761 0.074104
vt 0.83186 0.074152
vt 0.83053 0.075666
vt 0.844755 0.079607
vt 0.920525 0.10973
vt 0.906311 0.106249
vt 0.906307 0.111764
vt 0.919181 0.111436
s off
f 1/1/1 2/2/2 3/3/3
f 1/1/1 3/3/3 4/4/4
f 5/5/5 6/6/6 7/7/7
f 5/5/5 7/7/7 8/8/8
f 9/9/9 10/10/10 11/11/11
f 9/9/9 11/11/11 12/12/12
f 13/13/13 14/14/14 15/15/15
f 13/13/13 15/15/15 16/16/16
f 17/17/17 18/18/18 19/19/19
f 17/17/17 19/19/19 20/20/20
f 21/21/21 22/22/22 23/23/23
f 21/21/21 23/23/23 24/24/24
f 25/25/25 26/26/26 27/27/27
f 25/25/25 27/27/27 28/28/28
f 29/29/29 30/30/30 31/31/31
f 29/29/29 31/31/31 32/32/32
f 33/33/33 34/34/34 35/35/35
f 36/36/36 37/37/37 38/38/38
f 36/36/36 38/38/38 39/39/39
f 40/40/40 41/41/41 42/42/42
f 40/40/40 42/42/42 43/43/43
f 44/44/44 45/45/45 46/46/46
f 44/44/44 46/46/46 47/47/47
f 48/48/48 49/49/49 50/50/50
f 48/48/48 50/50/50 51/51/51
f 52/52/52 53/53/53 54/54/54
f 55/55/55 56/56/56 57/57/57
f 55/55/55 57/57/57 58/58/58
f 59/59/59 60/60/60 61/61/61
f 59/59/59 61/61/61 62/62/62
f 63/63/63 64/64/64 65/65/65
f 63/63/63 65/65/65 66/66/66
f 67/67/67 68/68/68 69/69/69
f 67/67/67 69/69/69 70/70/70
f 71/71/71 72/72/72 73/73/73
f 71/71/71 73/73/73 74/74/74
f 75/75/75 76/76/76 77/77/77
f 75/75/75 77/77/77 78/78/78
f 79/79/79 80/80/80 81/81/81
f 79/79/79 81/81/81 82/82/82
f 83/83/83 84/84/84 85/85/85
f 83/83/83 85/85/85 86/86/86
f 87/87/87 88/88/88 89/89/89
f 87/87/87 89/89/89 90/90/90
f 91/91/91 92/92/92 93/93/93
f 91/91/91 93/93/93 94/94/94
f 95/95/95 96/96/96 97/97/97
f 95/95/95 97/97/97 98/98/98
f 99/99/99 100/100/100 101/101/101
f 99/99/99 101/101/101 102/102/102
f 103/103/103 104/104/104 105/105/105
f 103/103/103 105/105/105 106/106/106
f 107/107/107 108/108/108 109/109/109
f 107/107/107 109/109/109 110/110/110
f 111/111/111 112/112/112 113/113/113
f 111/111/111 113/113/113 114/114/114
f 115/115/115 116/116/116 117/117/117
f 115/115/115 117/117/117 118/118/118
f 119/119/119 120/120/120 121/121/121
f 119/119/119 121/121/121 122/122/122
f 123/123/123 124/124/124 125/125/125
f 123/123/123 125/125/125 126/126/126
f 127/127/127 128/128/128 129/129/129
f 127/127/127 129/129/129 130/130/130
f 131/131/131 132/132/132 133/133/133
f 131/131/131 133/133/133 134/134/134
f 135/135/135 136/136/136 137/137/137
f 135/135/135 137/137/137 138/138/138
f 139/139/139 140/140/140 141/141/141
f 139/139/139 141/141/141 142/142/142
f 143/143/143 144/144/144 145/145/145
f 143/143/143 145/145/145 146/146/146
f 147/147/147 148/148/148 149/149/149
f 147/147/147 149/149/149 150/150/150
f 151/151/151 152/152/152 153/153/153
f 154/154/154 155/155/155 156/156/156
f 154/154/154 156/156/156 157/157/157
f 158/158/158 159/159/159 160/160/160
f 158/158/158 160/160/160 161/161/161
f 162/162/162 163/163/163 164/164/164
f 162/162/162 164/164/164 165/165/165
f 166/166/166 167/167/167 168/168/168
f 166/166/166 168/168/168 169/169/169
f 170/170/170 171/171/171 172/172/172
f 170/170/170 172/172/172 173/173/173
f 174/174/174 175/175/175 176/176/176
f 174/174/174 176/176/176 177/177/177
f 178/178/178 179/179/179 180/180/180
f 178/178/178 180/180/180 181/181/181
f 182/182/182 183/183/183 184/184/184
f 182/182/182 184/184/184 185/185/185
f 186/186/186 187/187/187 188/188/188
f 186/186/186 188/188/188 189/189/189
f 190/190/190 191/191/191 192/192/192
f 190/190/190 192/192/192 193/193/193
f 194/194/194 195/195/195 196/196/196
f 194/194/194 196/196/196 197/197/197
f 198/198/198 199/199/199 200/200/200
f 198/198/198 200/200/200 201/201/201
f 202/202/202 203/203/203 204/204/204
f 202/202/202 204/204/204 205/205/205
f 206/206/206 207/207/207 208/208/208
f 206/206/206 208/208/208 209/209/209
f 210/210/210 211/211/211 212/212/212
f 210/210/210 212/212/212 213/213/213
f 214/214/214 215/215/215 216/216/216
f 214/214/214 216/216/216 217/217/217
f 218/218/218 219/219/219 220/220/220
f 218/218/218 220/220/220 221/221/221
f 222/222/222 223/223/223 224/224/224
f 222/222/222 224/224/224 225/225/225
f 226/226/226 227/227/227 228/228/228
f 226/226/226 228/228/228 229/229/229
f 230/230/230 231/231/231 232/232/232
f 230/230/230 232/232/232 233/233/233
f 234/234/234 235/235/235 236/236/236
f 234/234/234 236/236/236 237/237/237
f 238/238/238 239/239/239 240/240/240
f 238/238/238 240/240/240 241/241/241
f 242/242/242 243/243/243 244/244/244
f 242/242/242 244/244/244 245/245/245
f 246/246/246 247/247/247 248/248/248
f 246/246/246 248/248/248 249/249/249
f 250/250/250 251/251/251 252/252/252
f 250/250/250 252/252/252 253/253/253
f 254/254/254 255/255/255 256/256/256
f 257/257/257 258/258/258 259/259/259
f 257/257/257 259/259/259 260/260/260
f 261/261/261 262/262/262 263/263/263
f 261/261/261 263/263/263 264/264/264
f 265/265/265 266/266/266 267/267/267
f 265/265/265 267/267/267 268/268/268
f 269/269/269 270/270/270 271/271/271
f 269/269/269 271/271/271 272/272/272
f 273/273/273 274/274/274 275/275/275
f 273/273/273 275/275/275 276/276/276
f 277/277/277 278/278/278 279/279/279
f 277/277/277 279/279/279 280/280/280
f 281/281/281 282/282/282 283/283/283
f 281/281/281 283/283/283 284/284/284
f 285/285/285 286/286/286 287/287/287
f 285/285/285 287/287/287 288/288/288
f 289/289/289 290/290/290 291/291/291
f 289/289/289 291/291/291 292/292/292
f 293/293/293 294/294/294 295/295/295
f 293/293/293 295/295/295 296/296/296
f 297/297/297 298/298/298 299/299/299
f 297/297/297 299/299/299 300/300/300
f 301/301/301 302/302/302 303/303/303
f 301/301/301 303/303/303 304/304/304
f 305/305/305 306/306/306 307/307/307
f 305/305/305 307/307/307 308/308/308
f 309/309/309 310/310/310 311/311/311
f 309/309/309 311/311/311 312/312/312
f 313/313/313 314/314/314 315/315/315
f 313/313/313 315/315/315 316/316/316
