v 0.727889 0.200033 -0.225174
v 0.727781 0.200199 -0.228684
v 0.726072 0.200173 -0.226594
v 0.758154 0.199475 -0.22164
v 0.755359 0.199417 -0.219709
v 0.761543 0.199258 -0.217909
v 0.683232 0.201948 -0.22187
v 0.684521 0.201805 -0.220371
v 0.685761 0.201751 -0.220996
v 0.844336 0.201662 -0.221328
v 0.834338 0.201063 -0.218906
v 0.844336 0.201564 -0.218906
v 0.681844 0.20165 -0.212358
v 0.674054 0.202146 -0.212345
v 0.681492 0.20158 -0.210083
v 0.674054 0.202146 -0.212345
v 0.671164 0.202241 -0.21008
v 0.681492 0.20158 -0.210083
v 0.671164 0.202241 -0.21008
v 0.674054 0.202146 -0.212345
v 0.674054 0.202416 -0.218985
v 0.685391 0.201596 -0.216585
v 0.688159 0.201312 -0.213958
v 0.688186 0.201424 -0.216762
v 0.674132 0.2025 -0.221172
v 0.671164 0.203045 -0.22992
v 0.674054 0.202416 -0.218985
v 0.681095 0.202057 -0.221187
v 0.674132 0.2025 -0.221172
v 0.681851 0.201918 -0.218971
v 0.671164 0.203045 -0.22992
v 0.674132 0.2025 -0.221172
v 0.674132 0.202757 -0.227499
v 0.680072 0.202382 -0.227586
v 0.671164 0.203045 -0.22992
v 0.674132 0.202757 -0.227499
v 0.705377 0.200487 -0.215001
v 0.707564 0.200168 -0.210002
v 0.710532 0.200046 -0.210002
v 0.698659 0.201446 -0.229842
v 0.695847 0.201013 -0.217188
v 0.700143 0.201252 -0.226952
v 0.698659 0.201446 -0.229842
v 0.700143 0.201252 -0.226952
v 0.701472 0.20133 -0.229842
v 0.727889 0.200033 -0.225174
v 0.72975 0.20007 -0.226955
v 0.727781 0.200199 -0.228684
v 0.815233 0.200576 -0.226174
v 0.818084 0.200742 -0.227381
v 0.81437 0.200644 -0.228721
v 0.736543 0.199193 -0.210002
v 0.736543 0.199431 -0.215157
v 0.733731 0.199233 -0.210002
v 0.740214 0.199557 -0.218828
v 0.736543 0.199597 -0.21875
v 0.736543 0.199431 -0.215157
v 0.733731 0.200155 -0.229842
v 0.736543 0.199597 -0.21875
v 0.736543 0.200122 -0.229842
v 0.758165 0.198904 -0.209565
v 0.762165 0.198986 -0.212321
v 0.758629 0.199015 -0.212029
v 0.784573 0.199428 -0.217491
v 0.786574 0.199553 -0.219678
v 0.783547 0.199532 -0.220014
v 0.755203 0.199093 -0.212816
v 0.752865 0.199191 -0.214292
v 0.751838 0.199098 -0.212077
v 0.771302 0.199841 -0.22992
v 0.774114 0.199346 -0.218438
v 0.774114 0.199756 -0.227342
v 0.803171 0.199539 -0.215001
v 0.805358 0.199419 -0.210002
v 0.808326 0.199568 -0.210002
v 0.792626 0.19941 -0.215001
v 0.796532 0.20014 -0.229842
v 0.790439 0.199154 -0.210002
v 0.796532 0.20014 -0.229842
v 0.793642 0.199527 -0.217266
v 0.797938 0.200028 -0.22703
v 0.796532 0.20014 -0.229842
v 0.797938 0.200028 -0.22703
v 0.799266 0.200173 -0.229842
v 0.71563 0.200668 -0.228058
v 0.718235 0.200495 -0.226614
v 0.718647 0.200614 -0.229569
v 0.831525 0.200586 -0.210002
v 0.834338 0.200803 -0.212501
v 0.834338 0.201063 -0.218906
v 0.831525 0.201393 -0.229842
v 0.834338 0.201162 -0.221328
v 0.834338 0.201409 -0.227421
v 0.774114 0.199237 -0.216094
v 0.781161 0.199435 -0.218516
v 0.774114 0.199346 -0.218438
v 0.845507 0.201985 -0.227421
v 0.845507 0.202083 -0.229842
v 0.834338 0.201409 -0.227421
v 0.845898 0.201302 -0.210002
v 0.834338 0.200803 -0.212501
v 0.831525 0.200586 -0.210002
v 0.714901 0.20045 -0.222661
v 0.713189 0.200651 -0.225505
v 0.711974 0.200566 -0.222582
v 0.718235 0.200495 -0.226614
v 0.71563 0.200668 -0.228058
v 0.716142 0.200502 -0.224899
v 0.684356 0.201935 -0.223315
v 0.686931 0.201746 -0.222696
v 0.687299 0.201851 -0.225867
v 0.764297 0.199124 -0.215773
v 0.767008 0.199182 -0.217043
v 0.766013 0.199248 -0.218754
v 0.802234 0.19963 -0.217266
v 0.793642 0.199527 -0.217266
v 0.792626 0.19941 -0.215001
v 0.845898 0.201302 -0.210002
v 0.845898 0.201403 -0.212501
v 0.834338 0.200803 -0.212501
v 0.771302 0.198913 -0.21008
v 0.774114 0.198953 -0.21008
v 0.774114 0.199237 -0.216094
v 0.711676 0.200409 -0.218913
v 0.714461 0.200305 -0.219123
v 0.711974 0.200566 -0.222582
v 0.751838 0.199098 -0.212077
v 0.753937 0.199011 -0.210753
v 0.755203 0.199093 -0.212816
v 0.823603 0.201056 -0.22956
v 0.821535 0.200885 -0.227424
v 0.823789 0.200943 -0.226593
v 0.787365 0.199716 -0.223009
v 0.784232 0.199763 -0.224856
v 0.784425 0.199619 -0.221671
v 0.674132 0.2025 -0.221172
v 0.674054 0.202416 -0.218985
v 0.681851 0.201918 -0.218971
v 0.784232 0.199763 -0.224856
v 0.785844 0.199903 -0.227465
v 0.782621 0.199821 -0.226537
v 0.763544 0.19934 -0.220154
v 0.761543 0.199258 -0.217909
v 0.763518 0.199185 -0.216875
v 0.755186 0.199614 -0.223836
v 0.752425 0.19974 -0.225795
v 0.752356 0.199636 -0.223582
v 0.784573 0.199428 -0.217491
v 0.783547 0.199532 -0.220014
v 0.781161 0.199435 -0.218516
v 0.681851 0.201918 -0.218971
v 0.683232 0.201948 -0.22187
v 0.681095 0.202057 -0.221187
v 0.752356 0.199636 -0.223582
v 0.752889 0.199543 -0.221753
v 0.755186 0.199614 -0.223836
v 0.753607 0.199825 -0.227893
v 0.752425 0.19974 -0.225795
v 0.755288 0.199699 -0.225661
v 0.782621 0.199821 -0.226537
v 0.785844 0.199903 -0.227465
v 0.783843 0.199946 -0.228926
v 0.753937 0.199011 -0.210753
v 0.758165 0.198904 -0.209565
v 0.755203 0.199093 -0.212816
v 0.736543 0.199597 -0.21875
v 0.742089 0.199634 -0.220937
v 0.747322 0.199992 -0.229842
v 0.820936 0.200245 -0.212294
v 0.818084 0.20003 -0.209862
v 0.823301 0.200252 -0.210067
v 0.813197 0.200406 -0.224055
v 0.811138 0.200397 -0.225905
v 0.809377 0.20014 -0.221344
v 0.710532 0.200046 -0.210002
v 0.704439 0.200626 -0.217188
v 0.705377 0.200487 -0.215001
v 0.701472 0.20133 -0.229842
v 0.704439 0.200626 -0.217188
v 0.710532 0.200046 -0.210002
v 0.787549 0.199119 -0.210002
v 0.790439 0.199154 -0.210002
v 0.796532 0.20014 -0.229842
v 0.808326 0.199568 -0.210002
v 0.802234 0.19963 -0.217266
v 0.803171 0.199539 -0.215001
v 0.825601 0.20096 -0.225178
v 0.827581 0.201119 -0.227081
v 0.823789 0.200943 -0.226593
v 0.718647 0.200614 -0.229569
v 0.718235 0.200495 -0.226614
v 0.720925 0.200423 -0.227442
v 0.784232 0.199763 -0.224856
v 0.786946 0.199827 -0.225524
v 0.785844 0.199903 -0.227465
v 0.685322 0.201511 -0.214397
v 0.688159 0.201312 -0.213958
v 0.685391 0.201596 -0.216585
v 0.684356 0.201935 -0.223315
v 0.685761 0.201751 -0.220996
v 0.686931 0.201746 -0.222696
v 0.753607 0.199825 -0.227893
v 0.755288 0.199699 -0.225661
v 0.757087 0.199756 -0.227324
v 0.727842 0.199389 -0.21115
v 0.729845 0.19942 -0.212873
v 0.727963 0.199546 -0.214666
v 0.760604 0.19973 -0.22767
v 0.763865 0.199778 -0.229495
v 0.760753 0.199842 -0.23007
v 0.684521 0.201805 -0.220371
v 0.681851 0.201918 -0.218971
v 0.684298 0.201732 -0.218216
v 0.799266 0.200173 -0.229842
v 0.797938 0.200028 -0.22703
v 0.808326 0.199568 -0.210002
v 0.818932 0.200889 -0.230156
v 0.821535 0.200885 -0.227424
v 0.823603 0.201056 -0.22956
v 0.834338 0.201409 -0.227421
v 0.845507 0.202083 -0.229842
v 0.831525 0.201393 -0.229842
v 0.781051 0.199324 -0.216147
v 0.784573 0.199428 -0.217491
v 0.781161 0.199435 -0.218516
v 0.783547 0.199532 -0.220014
v 0.786574 0.199553 -0.219678
v 0.784425 0.199619 -0.221671
v 0.765465 0.198902 -0.211372
v 0.767231 0.199049 -0.214179
v 0.764161 0.199036 -0.213887
v 0.758165 0.198904 -0.209565
v 0.762921 0.198867 -0.209995
v 0.762165 0.198986 -0.212321
v 0.716998 0.199971 -0.21412
v 0.712962 0.200162 -0.214696
v 0.715536 0.199926 -0.211856
v 0.823789 0.200401 -0.21325
v 0.823301 0.200252 -0.210067
v 0.827535 0.200537 -0.212817
v 0.684191 0.201529 -0.213058
v 0.684715 0.201395 -0.210601
v 0.686963 0.201308 -0.211982
v 0.716142 0.200502 -0.224899
v 0.71563 0.200668 -0.228058
v 0.713189 0.200651 -0.225505
v 0.723858 0.199488 -0.209748
v 0.725202 0.199569 -0.212709
v 0.720516 0.199747 -0.212404
v 0.727963 0.199546 -0.214666
v 0.725202 0.199569 -0.212709
v 0.727842 0.199389 -0.21115
v 0.757087 0.199756 -0.227324
v 0.760604 0.19973 -0.22767
v 0.756383 0.199879 -0.22974
v 0.685391 0.201596 -0.216585
v 0.687283 0.201562 -0.218732
v 0.684298 0.201732 -0.218216
v 0.812528 0.200101 -0.217225
v 0.809923 0.199942 -0.216372
v 0.813881 0.200061 -0.214879
v 0.714461 0.200305 -0.219123
v 0.712962 0.200162 -0.214696
v 0.715349 0.200134 -0.216207
v 0.685322 0.201511 -0.214397
v 0.686963 0.201308 -0.211982
v 0.688159 0.201312 -0.213958
v 0.687299 0.201851 -0.225867
v 0.684312 0.202028 -0.225526
v 0.684356 0.201935 -0.223315
v 0.716998 0.199971 -0.21412
v 0.715536 0.199926 -0.211856
v 0.718574 0.19973 -0.210287
v 0.76631 0.199704 -0.228297
v 0.763409 0.199667 -0.22704
v 0.765371 0.199596 -0.226031
v 0.684312 0.202028 -0.225526
v 0.687299 0.201851 -0.225867
v 0.685293 0.202093 -0.228666
v 0.711974 0.200566 -0.222582
v 0.714461 0.200305 -0.219123
v 0.714901 0.20045 -0.222661
v 0.765465 0.198902 -0.211372
v 0.764161 0.199036 -0.213887
v 0.762165 0.198986 -0.212321
v 0.716998 0.199971 -0.21412
v 0.715349 0.200134 -0.216207
v 0.712962 0.200162 -0.214696
v 0.784425 0.199619 -0.221671
v 0.786574 0.199553 -0.219678
v 0.787365 0.199716 -0.223009
v 0.684521 0.201805 -0.220371
v 0.683232 0.201948 -0.22187
v 0.681851 0.201918 -0.218971
v 0.683229 0.202152 -0.226881
v 0.684312 0.202028 -0.225526
v 0.685293 0.202093 -0.228666
v 0.813881 0.200061 -0.214879
v 0.811498 0.199895 -0.213629
v 0.813881 0.19991 -0.211352
v 0.780713 0.199952 -0.229883
v 0.774114 0.199756 -0.227342
v 0.78037 0.19983 -0.227316
v 0.823301 0.200252 -0.210067
v 0.823789 0.200401 -0.21325
v 0.820936 0.200245 -0.212294
v 0.723819 0.200303 -0.227424
v 0.726072 0.200173 -0.226594
v 0.727781 0.200199 -0.228684
v 0.723282 0.200451 -0.230156
v 0.682153 0.20234 -0.22983
v 0.680072 0.202382 -0.227586
v 0.683229 0.202152 -0.226881
v 0.714901 0.20045 -0.222661
v 0.716142 0.200502 -0.224899
v 0.713189 0.200651 -0.225505
v 0.720516 0.199747 -0.212404
v 0.716998 0.199971 -0.21412
v 0.718574 0.19973 -0.210287
v 0.809377 0.20014 -0.221344
v 0.809923 0.199942 -0.216372
v 0.812099 0.200226 -0.22072
v 0.844336 0.201662 -0.221328
v 0.834338 0.201162 -0.221328
v 0.834338 0.201063 -0.218906
v 0.813197 0.200406 -0.224055
v 0.815233 0.200576 -0.226174
v 0.811138 0.200397 -0.225905
v 0.774114 0.199237 -0.216094
v 0.781051 0.199324 -0.216147
v 0.781161 0.199435 -0.218516
v 0.752889 0.199543 -0.221753
v 0.756262 0.199536 -0.22245
v 0.755186 0.199614 -0.223836
v 0.725202 0.199569 -0.212709
v 0.723858 0.199488 -0.209748
v 0.727842 0.199389 -0.21115
v 0.681492 0.20158 -0.210083
v 0.684715 0.201395 -0.210601
v 0.681844 0.20165 -0.212358
v 0.695847 0.201013 -0.217188
v 0.694754 0.20098 -0.215001
v 0.705377 0.200487 -0.215001
v 0.756262 0.199536 -0.22245
v 0.755359 0.199417 -0.219709
v 0.758154 0.199475 -0.22164
v 0.684356 0.201935 -0.223315
v 0.683232 0.201948 -0.22187
v 0.685761 0.201751 -0.220996
v 0.816612 0.200093 -0.212897
v 0.813881 0.200061 -0.214879
v 0.813881 0.19991 -0.211352
v 0.685391 0.201596 -0.216585
v 0.688186 0.201424 -0.216762
v 0.687283 0.201562 -0.218732
v 0.831525 0.201393 -0.229842
v 0.834338 0.201063 -0.218906
v 0.834338 0.201162 -0.221328
v 0.75115 0.199009 -0.210002
v 0.740214 0.199557 -0.218828
v 0.747791 0.199049 -0.210002
v 0.818084 0.200742 -0.227381
v 0.821535 0.200885 -0.227424
v 0.818932 0.200889 -0.230156
v 0.818084 0.20003 -0.209862
v 0.820936 0.200245 -0.212294
v 0.816612 0.200093 -0.212897
v 0.684298 0.201732 -0.218216
v 0.687283 0.201562 -0.218732
v 0.68539 0.201739 -0.220111
v 0.756383 0.199879 -0.22974
v 0.760604 0.19973 -0.22767
v 0.760753 0.199842 -0.23007
v 0.825601 0.200533 -0.214666
v 0.823789 0.200401 -0.21325
v 0.827535 0.200537 -0.212817
v 0.747322 0.199992 -0.229842
v 0.742089 0.199634 -0.220937
v 0.750603 0.199953 -0.229842
v 0.720925 0.200423 -0.227442
v 0.723819 0.200303 -0.227424
v 0.723282 0.200451 -0.230156
v 0.758154 0.199475 -0.22164
v 0.761543 0.199258 -0.217909
v 0.763544 0.19934 -0.220154
v 0.684298 0.201732 -0.218216
v 0.68539 0.201739 -0.220111
v 0.684521 0.201805 -0.220371
v 0.753607 0.199825 -0.227893
v 0.757087 0.199756 -0.227324
v 0.756383 0.199879 -0.22974
v 0.771302 0.198913 -0.21008
v 0.774114 0.199237 -0.216094
v 0.774114 0.199346 -0.218438
v 0.812528 0.200101 -0.217225
v 0.812099 0.200226 -0.22072
v 0.809923 0.199942 -0.216372
v 0.812099 0.200226 -0.22072
v 0.813197 0.200406 -0.224055
v 0.809377 0.20014 -0.221344
v 0.802234 0.19963 -0.217266
v 0.792626 0.19941 -0.215001
v 0.803171 0.199539 -0.215001
v 0.685322 0.201511 -0.214397
v 0.684191 0.201529 -0.213058
v 0.686963 0.201308 -0.211982
v 0.767231 0.199049 -0.214179
v 0.764297 0.199124 -0.215773
v 0.764161 0.199036 -0.213887
v 0.736543 0.199597 -0.21875
v 0.733731 0.200155 -0.229842
v 0.733731 0.199233 -0.210002
v 0.736543 0.199431 -0.215157
v 0.689676 0.201055 -0.210002
v 0.692566 0.200887 -0.210002
v 0.694754 0.20098 -0.215001
v 0.796532 0.20014 -0.229842
v 0.792626 0.19941 -0.215001
v 0.793642 0.199527 -0.217266
v 0.75115 0.199009 -0.210002
v 0.742089 0.199634 -0.220937
v 0.740214 0.199557 -0.218828
v 0.758165 0.198904 -0.209565
v 0.758629 0.199015 -0.212029
v 0.755203 0.199093 -0.212816
v 0.714461 0.200305 -0.219123
v 0.711676 0.200409 -0.218913
v 0.712962 0.200162 -0.214696
v 0.684715 0.201395 -0.210601
v 0.684191 0.201529 -0.213058
v 0.681844 0.20165 -0.212358
v 0.815233 0.200576 -0.226174
v 0.81437 0.200644 -0.228721
v 0.811138 0.200397 -0.225905
v 0.823789 0.200943 -0.226593
v 0.827581 0.201119 -0.227081
v 0.823603 0.201056 -0.22956
v 0.771302 0.199841 -0.22992
v 0.771302 0.198913 -0.21008
v 0.774114 0.199346 -0.218438
v 0.813881 0.19991 -0.211352
v 0.818084 0.20003 -0.209862
v 0.816612 0.200093 -0.212897
v 0.695847 0.201013 -0.217188
v 0.698659 0.201446 -0.229842
v 0.689676 0.201055 -0.210002
v 0.694754 0.20098 -0.215001
v 0.680072 0.202382 -0.227586
v 0.682153 0.20234 -0.22983
v 0.671164 0.203045 -0.22992
v 0.767008 0.199182 -0.217043
v 0.764297 0.199124 -0.215773
v 0.767231 0.199049 -0.214179
v 0.755288 0.199699 -0.225661
v 0.752425 0.19974 -0.225795
v 0.755186 0.199614 -0.223836
v 0.674054 0.202416 -0.218985
v 0.671164 0.203045 -0.22992
v 0.671164 0.202241 -0.21008
v 0.808326 0.199568 -0.210002
v 0.797938 0.200028 -0.22703
v 0.802234 0.19963 -0.217266
v 0.762165 0.198986 -0.212321
v 0.762921 0.198867 -0.209995
v 0.765465 0.198902 -0.211372
v 0.818932 0.200889 -0.230156
v 0.81437 0.200644 -0.228721
v 0.818084 0.200742 -0.227381
v 0.723282 0.200451 -0.230156
v 0.718647 0.200614 -0.229569
v 0.720925 0.200423 -0.227442
v 0.763865 0.199778 -0.229495
v 0.763409 0.199667 -0.22704
v 0.76631 0.199704 -0.228297
v 0.783843 0.199946 -0.228926
v 0.780713 0.199952 -0.229883
v 0.78037 0.19983 -0.227316
v 0.782621 0.199821 -0.226537
v 0.736543 0.199597 -0.21875
v 0.740214 0.199557 -0.218828
v 0.742089 0.199634 -0.220937
v 0.701472 0.20133 -0.229842
v 0.700143 0.201252 -0.226952
v 0.704439 0.200626 -0.217188
v 0.763544 0.19934 -0.220154
v 0.763518 0.199185 -0.216875
v 0.766013 0.199248 -0.218754
v 0.755359 0.199417 -0.219709
v 0.756262 0.199536 -0.22245
v 0.752889 0.199543 -0.221753
v 0.763409 0.199667 -0.22704
v 0.763865 0.199778 -0.229495
v 0.760604 0.19973 -0.22767
v 0.834338 0.201063 -0.218906
v 0.831525 0.201393 -0.229842
v 0.831525 0.200586 -0.210002
v 0.813881 0.200061 -0.214879
v 0.809923 0.199942 -0.216372
v 0.811498 0.199895 -0.213629
v 0.780713 0.199952 -0.229883
v 0.771302 0.199841 -0.22992
v 0.774114 0.199756 -0.227342
v 0.683229 0.202152 -0.226881
v 0.685293 0.202093 -0.228666
v 0.682153 0.20234 -0.22983
v 0.784232 0.199763 -0.224856
v 0.787365 0.199716 -0.223009
v 0.786946 0.199827 -0.225524
v 0.704439 0.200626 -0.217188
v 0.695847 0.201013 -0.217188
v 0.705377 0.200487 -0.215001
v 0.766013 0.199248 -0.218754
v 0.763518 0.199185 -0.216875
v 0.764297 0.199124 -0.215773
v 0.718574 0.19973 -0.210287
v 0.723858 0.199488 -0.209748
v 0.720516 0.199747 -0.212404
v 0.684521 0.201805 -0.220371
v 0.684443 0.201811 -0.220391
vn 0.0409 0.9981 0.046
vn 0.0409 0.9981 0.046
vn 0.0409 0.9981 0.046
vn 0.012 0.9988 0.0472
vn 0.012 0.9988 0.0472
vn 0.012 0.9988 0.0472
vn 0.0636 0.9972 0.0405
vn 0.0636 0.9972 0.0405
vn 0.0636 0.9972 0.0405
vn -0.05 0.9979 0.0406
vn -0.05 0.9979 0.0406
vn -0.05 0.9979 0.0406
vn 0.0636 0.9972 0.0405
vn 0.0636 0.9972 0.0405
vn 0.0636 0.9972 0.0405
vn 0.0638 0.9972 0.0398
vn 0.0638 0.9972 0.0398
vn 0.0638 0.9972 0.0398
vn 0.0644 0.9971 0.0405
vn 0.0644 0.9971 0.0405
vn 0.0644 0.9971 0.0405
vn 0.0636 0.9972 0.0405
vn 0.0636 0.9972 0.0405
vn 0.0636 0.9972 0.0405
vn 0.0636 0.9972 0.0405
vn 0.0636 0.9972 0.0405
vn 0.0636 0.9972 0.0405
vn 0.0636 0.9972 0.0405
vn 0.0636 0.9972 0.0405
vn 0.0636 0.9972 0.0405
vn 0.0636 0.9972 0.0405
vn 0.0636 0.9972 0.0405
vn 0.0636 0.9972 0.0405
vn 0.0636 0.9972 0.0406
vn 0.0636 0.9972 0.0406
vn 0.0636 0.9972 0.0406
vn 0.0409 0.9981 0.046
vn 0.0409 0.9981 0.046
vn 0.0409 0.9981 0.046
vn 0.0446 0.998 0.044
vn 0.0446 0.998 0.044
vn 0.0446 0.998 0.044
vn 0.0409 0.9981 0.0459
vn 0.0409 0.9981 0.0459
vn 0.0409 0.9981 0.0459
vn 0.0247 0.9986 0.0465
vn 0.0247 0.9986 0.0465
vn 0.0247 0.9986 0.0465
vn -0.0409 0.9983 0.0405
vn -0.0409 0.9983 0.0405
vn -0.0409 0.9983 0.0405
vn 0.0142 0.9988 0.046
vn 0.0142 0.9988 0.046
vn 0.0142 0.9988 0.046
vn 0.012 0.9989 0.0464
vn 0.012 0.9989 0.0464
vn 0.012 0.9989 0.0464
vn 0.012 0.9988 0.0472
vn 0.012 0.9988 0.0472
vn 0.012 0.9988 0.0472
vn 0.012 0.9988 0.0472
vn 0.012 0.9988 0.0472
vn 0.012 0.9988 0.0472
vn -0.012 0.9989 0.046
vn -0.012 0.9989 0.046
vn -0.012 0.9989 0.046
vn 0.012 0.9988 0.0472
vn 0.012 0.9988 0.0472
vn 0.012 0.9988 0.0472
vn -0.012 0.9989 0.046
vn -0.012 0.9989 0.046
vn -0.012 0.9989 0.046
vn -0.0502 0.9977 0.0459
vn -0.0502 0.9977 0.0459
vn -0.0502 0.9977 0.0459
vn -0.012 0.9989 0.046
vn -0.012 0.9989 0.046
vn -0.012 0.9989 0.046
vn -0.012 0.9989 0.046
vn -0.012 0.9989 0.046
vn -0.012 0.9989 0.046
vn -0.012 0.9989 0.046
vn -0.012 0.9989 0.046
vn -0.012 0.9989 0.046
vn 0.0409 0.9981 0.0459
vn 0.0409 0.9981 0.0459
vn 0.0409 0.9981 0.0459
vn -0.0409 0.9983 0.0406
vn -0.0409 0.9983 0.0406
vn -0.0409 0.9983 0.0406
vn -0.0409 0.9983 0.0406
vn -0.0409 0.9983 0.0406
vn -0.0409 0.9983 0.0406
vn -0.012 0.9988 0.0465
vn -0.012 0.9988 0.0465
vn -0.012 0.9988 0.0465
vn -0.0514 0.9979 0.0405
vn -0.0514 0.9979 0.0405
vn -0.0514 0.9979 0.0405
vn -0.0497 0.9983 0.0307
vn -0.0497 0.9983 0.0307
vn -0.0497 0.9983 0.0307
vn 0.0409 0.9981 0.0459
vn 0.0409 0.9981 0.0459
vn 0.0409 0.9981 0.0459
vn 0.0409 0.9981 0.046
vn 0.0409 0.9981 0.046
vn 0.0409 0.9981 0.046
vn 0.0636 0.9972 0.0405
vn 0.0636 0.9972 0.0405
vn 0.0636 0.9972 0.0405
vn -0.0024 0.9992 0.0404
vn -0.0024 0.9992 0.0404
vn -0.0024 0.9992 0.0404
vn -0.012 0.9989 0.046
vn -0.012 0.9989 0.046
vn -0.012 0.9989 0.046
vn -0.0518 0.9978 0.0406
vn -0.0518 0.9978 0.0406
vn -0.0518 0.9978 0.0406
vn -0.0141 0.9988 0.0472
vn -0.0141 0.9988 0.0472
vn -0.0141 0.9988 0.0472
vn 0.0409 0.9981 0.0459
vn 0.0409 0.9981 0.0459
vn 0.0409 0.9981 0.0459
vn 0.012 0.9988 0.0473
vn 0.012 0.9988 0.0473
vn 0.012 0.9988 0.0473
vn -0.0409 0.9983 0.0406
vn -0.0409 0.9983 0.0406
vn -0.0409 0.9983 0.0406
vn -0.012 0.9989 0.046
vn -0.012 0.9989 0.046
vn -0.012 0.9989 0.046
vn 0.0636 0.9972 0.0405
vn 0.0636 0.9972 0.0405
vn 0.0636 0.9972 0.0405
vn -0.012 0.9989 0.046
vn -0.012 0.9989 0.046
vn -0.012 0.9989 0.046
vn 0.012 0.9988 0.0472
vn 0.012 0.9988 0.0472
vn 0.012 0.9988 0.0472
vn 0.012 0.9988 0.0472
vn 0.012 0.9988 0.0472
vn 0.012 0.9988 0.0472
vn -0.012 0.9989 0.046
vn -0.012 0.9989 0.046
vn -0.012 0.9989 0.046
vn 0.0636 0.9972 0.0405
vn 0.0636 0.9972 0.0405
vn 0.0636 0.9972 0.0405
vn 0.012 0.9988 0.0472
vn 0.012 0.9988 0.0472
vn 0.012 0.9988 0.0472
vn 0.012 0.9988 0.0472
vn 0.012 0.9988 0.0472
vn 0.012 0.9988 0.0472
vn -0.012 0.9989 0.0459
vn -0.012 0.9989 0.0459
vn -0.012 0.9989 0.0459
vn 0.012 0.9988 0.0472
vn 0.012 0.9988 0.0472
vn 0.012 0.9988 0.0472
vn 0.012 0.9988 0.0472
vn 0.012 0.9988 0.0472
vn 0.012 0.9988 0.0472
vn -0.0409 0.9983 0.0406
vn -0.0409 0.9983 0.0406
vn -0.0409 0.9983 0.0406
vn -0.0409 0.9983 0.0406
vn -0.0409 0.9983 0.0406
vn -0.0409 0.9983 0.0406
vn 0.0409 0.9981 0.0459
vn 0.0409 0.9981 0.0459
vn 0.0409 0.9981 0.0459
vn 0.0409 0.9981 0.0459
vn 0.0409 0.9981 0.0459
vn 0.0409 0.9981 0.0459
vn -0.012 0.9989 0.046
vn -0.012 0.9989 0.046
vn -0.012 0.9989 0.046
vn -0.074 0.9948 0.0705
vn -0.074 0.9948 0.0705
vn -0.074 0.9948 0.0705
vn -0.0409 0.9983 0.0406
vn -0.0409 0.9983 0.0406
vn -0.0409 0.9983 0.0406
vn 0.0409 0.9981 0.0459
vn 0.0409 0.9981 0.0459
vn 0.0409 0.9981 0.0459
vn -0.012 0.9989 0.046
vn -0.012 0.9989 0.046
vn -0.012 0.9989 0.046
vn 0.0636 0.9972 0.0406
vn 0.0636 0.9972 0.0406
vn 0.0636 0.9972 0.0406
vn 0.0636 0.9972 0.0406
vn 0.0636 0.9972 0.0406
vn 0.0636 0.9972 0.0406
vn 0.012 0.9988 0.0472
vn 0.012 0.9988 0.0472
vn 0.012 0.9988 0.0472
vn 0.0235 0.9987 0.0454
vn 0.0235 0.9987 0.0454
vn 0.0235 0.9987 0.0454
vn 0.012 0.9988 0.0472
vn 0.012 0.9988 0.0472
vn 0.012 0.9988 0.0472
vn 0.0636 0.9972 0.0405
vn 0.0636 0.9972 0.0405
vn 0.0636 0.9972 0.0405
vn -0.0228 0.9989 0.0409
vn -0.0228 0.9989 0.0409
vn -0.0228 0.9989 0.0409
vn -0.0409 0.9983 0.0406
vn -0.0409 0.9983 0.0406
vn -0.0409 0.9983 0.0406
vn -0.0493 0.9975 0.0503
vn -0.0493 0.9975 0.0503
vn -0.0493 0.9975 0.0503
vn -0.012 0.9989 0.046
vn -0.012 0.9989 0.046
vn -0.012 0.9989 0.046
vn -0.012 0.9989 0.046
vn -0.012 0.9989 0.046
vn -0.012 0.9989 0.046
vn 0.0008 0.9986 0.053
vn 0.0008 0.9986 0.053
vn 0.0008 0.9986 0.053
vn 0.012 0.9988 0.0472
vn 0.012 0.9988 0.0472
vn 0.012 0.9988 0.0472
vn 0.0409 0.9981 0.046
vn 0.0409 0.9981 0.046
vn 0.0409 0.9981 0.046
vn -0.0409 0.9983 0.0406
vn -0.0409 0.9983 0.0406
vn -0.0409 0.9983 0.0406
vn 0.0636 0.9971 0.0406
vn 0.0636 0.9971 0.0406
vn 0.0636 0.9971 0.0406
vn 0.0409 0.9981 0.046
vn 0.0409 0.9981 0.046
vn 0.0409 0.9981 0.046
vn 0.0409 0.9981 0.0459
vn 0.0409 0.9981 0.0459
vn 0.0409 0.9981 0.0459
vn 0.0409 0.9981 0.0459
vn 0.0409 0.9981 0.0459
vn 0.0409 0.9981 0.0459
vn 0.012 0.9988 0.0472
vn 0.012 0.9988 0.0472
vn 0.012 0.9988 0.0472
vn 0.0636 0.9972 0.0405
vn 0.0636 0.9972 0.0405
vn 0.0636 0.9972 0.0405
vn -0.0467 0.9979 0.0439
vn -0.0467 0.9979 0.0439
vn -0.0467 0.9979 0.0439
vn 0.0409 0.9981 0.0459
vn 0.0409 0.9981 0.0459
vn 0.0409 0.9981 0.0459
vn 0.0636 0.9972 0.0405
vn 0.0636 0.9972 0.0405
vn 0.0636 0.9972 0.0405
vn 0.0636 0.9972 0.0406
vn 0.0636 0.9972 0.0406
vn 0.0636 0.9972 0.0406
vn 0.0409 0.9981 0.0459
vn 0.0409 0.9981 0.0459
vn 0.0409 0.9981 0.0459
vn 0.0097 0.9986 0.0516
vn 0.0097 0.9986 0.0516
vn 0.0097 0.9986 0.0516
vn 0.0636 0.9972 0.0405
vn 0.0636 0.9972 0.0405
vn 0.0636 0.9972 0.0405
vn 0.0409 0.9981 0.0459
vn 0.0409 0.9981 0.0459
vn 0.0409 0.9981 0.0459
vn 0.012 0.9988 0.0472
vn 0.012 0.9988 0.0472
vn 0.012 0.9988 0.0472
vn 0.0409 0.9981 0.0459
vn 0.0409 0.9981 0.0459
vn 0.0409 0.9981 0.0459
vn -0.012 0.9989 0.046
vn -0.012 0.9989 0.046
vn -0.012 0.9989 0.046
vn 0.0636 0.9972 0.0405
vn 0.0636 0.9972 0.0405
vn 0.0636 0.9972 0.0405
vn 0.0636 0.9972 0.0405
vn 0.0636 0.9972 0.0405
vn 0.0636 0.9972 0.0405
vn -0.0473 0.998 0.0429
vn -0.0473 0.998 0.0429
vn -0.0473 0.998 0.0429
vn -0.012 0.9989 0.046
vn -0.012 0.9989 0.046
vn -0.012 0.9989 0.046
vn -0.0409 0.9983 0.0406
vn -0.0409 0.9983 0.0406
vn -0.0409 0.9983 0.0406
vn 0.0409 0.9981 0.0459
vn 0.0409 0.9981 0.0459
vn 0.0409 0.9981 0.0459
vn 0.0409 0.9981 0.0459
vn 0.0636 0.9972 0.0405
vn 0.0636 0.9972 0.0405
vn 0.0636 0.9972 0.0405
vn 0.0409 0.9981 0.0459
vn 0.0409 0.9981 0.0459
vn 0.0409 0.9981 0.0459
vn 0.0409 0.9981 0.0459
vn 0.0409 0.9981 0.0459
vn 0.0409 0.9981 0.0459
vn -0.0418 0.9981 0.0443
vn -0.0418 0.9981 0.0443
vn -0.0418 0.9981 0.0443
vn -0.05 0.9979 0.0406
vn -0.05 0.9979 0.0406
vn -0.05 0.9979 0.0406
vn -0.0409 0.9983 0.0406
vn -0.0409 0.9983 0.0406
vn -0.0409 0.9983 0.0406
vn -0.0122 0.9989 0.046
vn -0.0122 0.9989 0.046
vn -0.0122 0.9989 0.046
vn 0.012 0.9988 0.0472
vn 0.012 0.9988 0.0472
vn 0.012 0.9988 0.0472
vn 0.0409 0.9981 0.046
vn 0.0409 0.9981 0.046
vn 0.0409 0.9981 0.046
vn 0.0636 0.9972 0.0406
vn 0.0636 0.9972 0.0406
vn 0.0636 0.9972 0.0406
vn 0.0463 0.9982 0.0385
vn 0.0463 0.9982 0.0385
vn 0.0463 0.9982 0.0385
vn 0.012 0.9988 0.0472
vn 0.012 0.9988 0.0472
vn 0.012 0.9988 0.0472
vn 0.0636 0.9972 0.0405
vn 0.0636 0.9972 0.0405
vn 0.0636 0.9972 0.0405
vn -0.0426 0.9982 0.0429
vn -0.0426 0.9982 0.0429
vn -0.0426 0.9982 0.0429
vn 0.0636 0.9972 0.0405
vn 0.0636 0.9972 0.0405
vn 0.0636 0.9972 0.0405
vn -0.041 0.9983 0.0406
vn -0.041 0.9983 0.0406
vn -0.041 0.9983 0.0406
vn 0.012 0.9988 0.0472
vn 0.012 0.9988 0.0472
vn 0.012 0.9988 0.0472
vn -0.0409 0.9983 0.0406
vn -0.0409 0.9983 0.0406
vn -0.0409 0.9983 0.0406
vn -0.0409 0.9983 0.0406
vn -0.0409 0.9983 0.0406
vn -0.0409 0.9983 0.0406
vn 0.0636 0.9972 0.0406
vn 0.0636 0.9972 0.0406
vn 0.0636 0.9972 0.0406
vn 0.012 0.9988 0.0472
vn 0.012 0.9988 0.0472
vn 0.012 0.9988 0.0472
vn -0.0409 0.9983 0.0406
vn -0.0409 0.9983 0.0406
vn -0.0409 0.9983 0.0406
vn 0.012 0.9988 0.0472
vn 0.012 0.9988 0.0472
vn 0.012 0.9988 0.0472
vn 0.0409 0.9981 0.0459
vn 0.0409 0.9981 0.0459
vn 0.0409 0.9981 0.0459
vn 0.012 0.9988 0.0472
vn 0.012 0.9988 0.0472
vn 0.012 0.9988 0.0472
vn 0.0636 0.9972 0.0405
vn 0.0636 0.9972 0.0405
vn 0.0636 0.9972 0.0405
vn 0.012 0.9988 0.0472
vn 0.012 0.9988 0.0472
vn 0.012 0.9988 0.0472
vn -0.0158 0.9988 0.0465
vn -0.0158 0.9988 0.0465
vn -0.0158 0.9988 0.0465
vn -0.0475 0.998 0.0414
vn -0.0475 0.998 0.0414
vn -0.0475 0.998 0.0414
vn -0.0409 0.9983 0.0406
vn -0.0409 0.9983 0.0406
vn -0.0409 0.9983 0.0406
vn -0.0122 0.9989 0.0451
vn -0.0122 0.9989 0.0451
vn -0.0122 0.9989 0.0451
vn 0.0637 0.9972 0.0405
vn 0.0637 0.9972 0.0405
vn 0.0637 0.9972 0.0405
vn 0.0001 0.9989 0.0464
vn 0.0001 0.9989 0.0464
vn 0.0001 0.9989 0.0464
vn 0.0151 0.9988 0.0464
vn 0.0151 0.9988 0.0464
vn 0.0151 0.9988 0.0464
vn 0.0151 0.9988 0.0464
vn 0.058 0.9973 0.0439
vn 0.058 0.9973 0.0439
vn 0.058 0.9973 0.0439
vn -0.0119 0.9989 0.046
vn -0.0119 0.9989 0.046
vn -0.0119 0.9989 0.046
vn 0.012 0.9988 0.0472
vn 0.012 0.9988 0.0472
vn 0.012 0.9988 0.0472
vn 0.012 0.9988 0.0472
vn 0.012 0.9988 0.0472
vn 0.012 0.9988 0.0472
vn 0.0409 0.9981 0.0459
vn 0.0409 0.9981 0.0459
vn 0.0409 0.9981 0.0459
vn 0.0636 0.9972 0.0406
vn 0.0636 0.9972 0.0406
vn 0.0636 0.9972 0.0406
vn -0.0409 0.9983 0.0406
vn -0.0409 0.9983 0.0406
vn -0.0409 0.9983 0.0406
vn -0.0409 0.9983 0.0406
vn -0.0409 0.9983 0.0406
vn -0.0409 0.9983 0.0406
vn -0.015 0.9988 0.0467
vn -0.015 0.9988 0.0467
vn -0.015 0.9988 0.0467
vn -0.0432 0.9982 0.0417
vn -0.0432 0.9982 0.0417
vn -0.0432 0.9982 0.0417
vn 0.0622 0.9969 0.0477
vn 0.0622 0.9969 0.0477
vn 0.0622 0.9969 0.0477
vn 0.0622 0.9969 0.0477
vn 0.0636 0.9972 0.0405
vn 0.0636 0.9972 0.0405
vn 0.0636 0.9972 0.0405
vn 0.0003 0.9989 0.0461
vn 0.0003 0.9989 0.0461
vn 0.0003 0.9989 0.0461
vn 0.012 0.9988 0.0472
vn 0.012 0.9988 0.0472
vn 0.012 0.9988 0.0472
vn 0.0641 0.9971 0.0404
vn 0.0641 0.9971 0.0404
vn 0.0641 0.9971 0.0404
vn -0.0805 0.9939 0.0759
vn -0.0805 0.9939 0.0759
vn -0.0805 0.9939 0.0759
vn 0.012 0.9988 0.0472
vn 0.012 0.9988 0.0472
vn 0.012 0.9988 0.0472
vn -0.0409 0.9983 0.0406
vn -0.0409 0.9983 0.0406
vn -0.0409 0.9983 0.0406
vn 0.0409 0.9981 0.0459
vn 0.0409 0.9981 0.0459
vn 0.0409 0.9981 0.0459
vn 0.0075 0.9989 0.0464
vn 0.0075 0.9989 0.0464
vn 0.0075 0.9989 0.0464
vn -0.012 0.9989 0.046
vn -0.012 0.9989 0.046
vn -0.012 0.9989 0.046
vn -0.012 0.9989 0.046
vn 0.012 0.9988 0.0472
vn 0.012 0.9988 0.0472
vn 0.012 0.9988 0.0472
vn 0.0409 0.9981 0.0459
vn 0.0409 0.9981 0.0459
vn 0.0409 0.9981 0.0459
vn 0.0102 0.9988 0.0472
vn 0.0102 0.9988 0.0472
vn 0.0102 0.9988 0.0472
vn 0.012 0.9988 0.0472
vn 0.012 0.9988 0.0472
vn 0.012 0.9988 0.0472
vn 0.012 0.9988 0.0472
vn 0.012 0.9988 0.0472
vn 0.012 0.9988 0.0472
vn -0.0409 0.9983 0.0406
vn -0.0409 0.9983 0.0406
vn -0.0409 0.9983 0.0406
vn -0.0467 0.9979 0.0439
vn -0.0467 0.9979 0.0439
vn -0.0467 0.9979 0.0439
vn -0.012 0.9989 0.046
vn -0.012 0.9989 0.046
vn -0.012 0.9989 0.046
vn 0.0636 0.9972 0.0405
vn 0.0636 0.9972 0.0405
vn 0.0636 0.9972 0.0405
vn -0.012 0.9989 0.046
vn -0.012 0.9989 0.046
vn -0.012 0.9989 0.046
vn 0.045 0.998 0.0442
vn 0.045 0.998 0.0442
vn 0.045 0.998 0.0442
vn 0.0108 0.9988 0.048
vn 0.0108 0.9988 0.048
vn 0.0108 0.9988 0.048
vn 0.0409 0.9981 0.0459
vn 0.0409 0.9981 0.0459
vn 0.0409 0.9981 0.0459
vn 0 0 0
vn 0 0 0
vt 0.857673 0.46613
vt 0.857621 0.464416
vt 0.856786 0.465437
vt 0.872453 0.467856
vt 0.871088 0.468799
vt 0.874108 0.469678
vt 0.835866 0.467744
vt 0.836495 0.468476
vt 0.837101 0.468171
vt 0.91454 0.468009
vt 0.909657 0.469191
vt 0.91454 0.469191
vt 0.835188 0.472389
vt 0.831384 0.472395
vt 0.835016 0.4735
vt 0.831384 0.472395
vt 0.829972 0.473502
vt 0.835016 0.4735
vt 0.829972 0.473502
vt 0.831384 0.472395
vt 0.831384 0.469153
vt 0.83692 0.470325
vt 0.838272 0.471608
vt 0.838285 0.470238
vt 0.831422 0.468085
vt 0.829972 0.463813
vt 0.831384 0.469153
vt 0.834822 0.468077
vt 0.831422 0.468085
vt 0.835191 0.46916
vt 0.829972 0.463813
vt 0.831422 0.468085
vt 0.831422 0.464995
vt 0.834323 0.464953
vt 0.829972 0.463813
vt 0.831422 0.464995
vt 0.84668 0.471099
vt 0.847748 0.47354
vt 0.849198 0.47354
vt 0.843399 0.463851
vt 0.842026 0.47003
vt 0.844124 0.465262
vt 0.843399 0.463851
vt 0.844124 0.465262
vt 0.844773 0.463851
vt 0.857673 0.46613
vt 0.858582 0.465261
vt 0.857621 0.464416
vt 0.900327 0.465642
vt 0.90172 0.465053
vt 0.899906 0.464398
vt 0.8619 0.47354
vt 0.8619 0.471022
vt 0.860526 0.47354
vt 0.863693 0.469229
vt 0.8619 0.469268
vt 0.8619 0.471022
vt 0.860526 0.463851
vt 0.8619 0.469268
vt 0.8619 0.463851
vt 0.872459 0.473753
vt 0.874412 0.472407
vt 0.872686 0.47255
vt 0.885355 0.469882
vt 0.886332 0.468814
vt 0.884854 0.46865
vt 0.871012 0.472166
vt 0.869871 0.471445
vt 0.869369 0.472526
vt 0.878874 0.463813
vt 0.880247 0.46942
vt 0.880247 0.465072
vt 0.894437 0.471099
vt 0.895505 0.47354
vt 0.896955 0.47354
vt 0.889288 0.471099
vt 0.891195 0.463851
vt 0.88822 0.47354
vt 0.891195 0.463851
vt 0.889784 0.469992
vt 0.891881 0.465224
vt 0.891195 0.463851
vt 0.891881 0.465224
vt 0.89253 0.463851
vt 0.851687 0.464722
vt 0.852959 0.465428
vt 0.85316 0.463984
vt 0.908284 0.47354
vt 0.909657 0.472319
vt 0.909657 0.469191
vt 0.908284 0.463851
vt 0.909657 0.468009
vt 0.909657 0.465033
vt 0.880247 0.470565
vt 0.883689 0.469382
vt 0.880247 0.46942
vt 0.915112 0.465033
vt 0.915112 0.463851
vt 0.909657 0.465033
vt 0.915302 0.47354
vt 0.909657 0.472319
vt 0.908284 0.47354
vt 0.851331 0.467358
vt 0.850495 0.465969
vt 0.849902 0.467396
vt 0.852959 0.465428
vt 0.851687 0.464722
vt 0.851937 0.466265
vt 0.836414 0.467038
vt 0.837672 0.467341
vt 0.837852 0.465792
vt 0.875453 0.470721
vt 0.876777 0.470101
vt 0.876291 0.469266
vt 0.893979 0.469992
vt 0.889784 0.469992
vt 0.889288 0.471099
vt 0.915302 0.47354
vt 0.915302 0.472319
vt 0.909657 0.472319
vt 0.878874 0.473502
vt 0.880247 0.473502
vt 0.880247 0.470565
vt 0.849756 0.469188
vt 0.851116 0.469085
vt 0.849902 0.467396
vt 0.869369 0.472526
vt 0.870394 0.473173
vt 0.871012 0.472166
vt 0.904415 0.463988
vt 0.903405 0.465032
vt 0.904506 0.465437
vt 0.886718 0.467188
vt 0.885188 0.466286
vt 0.885283 0.467841
vt 0.831422 0.468085
vt 0.831384 0.469153
vt 0.835191 0.46916
vt 0.885188 0.466286
vt 0.885976 0.465012
vt 0.884401 0.465465
vt 0.875086 0.468582
vt 0.874108 0.469678
vt 0.875073 0.470183
vt 0.871004 0.466784
vt 0.869656 0.465827
vt 0.869622 0.466908
vt 0.885355 0.469882
vt 0.884854 0.46865
vt 0.883689 0.469382
vt 0.835191 0.46916
vt 0.835866 0.467744
vt 0.834822 0.468077
vt 0.869622 0.466908
vt 0.869882 0.467801
vt 0.871004 0.466784
vt 0.870233 0.464803
vt 0.869656 0.465827
vt 0.871054 0.465893
vt 0.884401 0.465465
vt 0.885976 0.465012
vt 0.884998 0.464298
vt 0.870394 0.473173
vt 0.872459 0.473753
vt 0.871012 0.472166
vt 0.8619 0.469268
vt 0.864608 0.468199
vt 0.867164 0.463851
vt 0.903112 0.47242
vt 0.90172 0.473608
vt 0.904267 0.473508
vt 0.899333 0.466677
vt 0.898328 0.465773
vt 0.897468 0.468001
vt 0.849198 0.47354
vt 0.846222 0.47003
vt 0.84668 0.471099
vt 0.844773 0.463851
vt 0.846222 0.47003
vt 0.849198 0.47354
vt 0.886808 0.47354
vt 0.88822 0.47354
vt 0.891195 0.463851
vt 0.896955 0.47354
vt 0.893979 0.469992
vt 0.894437 0.471099
vt 0.905391 0.466129
vt 0.906357 0.465199
vt 0.904506 0.465437
vt 0.85316 0.463984
vt 0.852959 0.465428
vt 0.854273 0.465023
vt 0.885188 0.466286
vt 0.886513 0.465959
vt 0.885976 0.465012
vt 0.836886 0.471394
vt 0.838272 0.471608
vt 0.83692 0.470325
vt 0.836414 0.467038
vt 0.837101 0.468171
vt 0.837672 0.467341
vt 0.870233 0.464803
vt 0.871054 0.465893
vt 0.871932 0.46508
vt 0.857651 0.472979
vt 0.858629 0.472138
vt 0.85771 0.471262
vt 0.87365 0.464911
vt 0.875242 0.46402
vt 0.873722 0.46374
vt 0.836495 0.468476
vt 0.835191 0.46916
vt 0.836386 0.469528
vt 0.89253 0.463851
vt 0.891881 0.465224
vt 0.896955 0.47354
vt 0.902134 0.463698
vt 0.903405 0.465032
vt 0.904415 0.463988
vt 0.909657 0.465033
vt 0.915112 0.463851
vt 0.908284 0.463851
vt 0.883635 0.470539
vt 0.885355 0.469882
vt 0.883689 0.469382
vt 0.884854 0.46865
vt 0.886332 0.468814
vt 0.885283 0.467841
vt 0.876023 0.472871
vt 0.876886 0.4715
vt 0.875387 0.471642
vt 0.872459 0.473753
vt 0.874781 0.473543
vt 0.874412 0.472407
vt 0.852355 0.471529
vt 0.850384 0.471247
vt 0.851641 0.472634
vt 0.904506 0.471953
vt 0.904267 0.473508
vt 0.906335 0.472165
vt 0.836334 0.472047
vt 0.83659 0.473247
vt 0.837688 0.472573
vt 0.851937 0.466265
vt 0.851687 0.464722
vt 0.850495 0.465969
vt 0.855705 0.473664
vt 0.856362 0.472218
vt 0.854073 0.472367
vt 0.85771 0.471262
vt 0.856362 0.472218
vt 0.857651 0.472979
vt 0.871932 0.46508
vt 0.87365 0.464911
vt 0.871589 0.463901
vt 0.83692 0.470325
vt 0.837844 0.469276
vt 0.836386 0.469528
vt 0.899006 0.470012
vt 0.897734 0.470429
vt 0.899668 0.471158
vt 0.851116 0.469085
vt 0.850384 0.471247
vt 0.85155 0.47051
vt 0.836886 0.471394
vt 0.837688 0.472573
vt 0.838272 0.471608
vt 0.837852 0.465792
vt 0.836393 0.465958
vt 0.836414 0.467038
vt 0.852355 0.471529
vt 0.851641 0.472634
vt 0.853125 0.4734
vt 0.876436 0.464605
vt 0.875019 0.465219
vt 0.875978 0.465712
vt 0.836393 0.465958
vt 0.837852 0.465792
vt 0.836872 0.464425
vt 0.849902 0.467396
vt 0.851116 0.469085
vt 0.851331 0.467358
vt 0.876023 0.472871
vt 0.875387 0.471642
vt 0.874412 0.472407
vt 0.852355 0.471529
vt 0.85155 0.47051
vt 0.850384 0.471247
vt 0.885283 0.467841
vt 0.886332 0.468814
vt 0.886718 0.467188
vt 0.836495 0.468476
vt 0.835866 0.467744
vt 0.835191 0.46916
vt 0.835864 0.465297
vt 0.836393 0.465958
vt 0.836872 0.464425
vt 0.899668 0.471158
vt 0.898504 0.471768
vt 0.899667 0.47288
vt 0.88347 0.463831
vt 0.880247 0.465072
vt 0.883302 0.465084
vt 0.904267 0.473508
vt 0.904506 0.471953
vt 0.903112 0.47242
vt 0.855686 0.465032
vt 0.856786 0.465437
vt 0.857621 0.464416
vt 0.855424 0.463698
vt 0.835339 0.463857
vt 0.834323 0.464953
vt 0.835864 0.465297
vt 0.851331 0.467358
vt 0.851937 0.466265
vt 0.850495 0.465969
vt 0.854073 0.472367
vt 0.852355 0.471529
vt 0.853125 0.4734
vt 0.897468 0.468001
vt 0.897734 0.470429
vt 0.898797 0.468305
vt 0.91454 0.468009
vt 0.909657 0.468009
vt 0.909657 0.469191
vt 0.899333 0.466677
vt 0.900327 0.465642
vt 0.898328 0.465773
vt 0.880247 0.470565
vt 0.883635 0.470539
vt 0.883689 0.469382
vt 0.869882 0.467801
vt 0.871529 0.467461
vt 0.871004 0.466784
vt 0.856362 0.472218
vt 0.855705 0.473664
vt 0.857651 0.472979
vt 0.835016 0.4735
vt 0.83659 0.473247
vt 0.835188 0.472389
vt 0.842026 0.47003
vt 0.841492 0.471099
vt 0.84668 0.471099
vt 0.871529 0.467461
vt 0.871088 0.468799
vt 0.872453 0.467856
vt 0.836414 0.467038
vt 0.835866 0.467744
vt 0.837101 0.468171
vt 0.901001 0.472126
vt 0.899668 0.471158
vt 0.899667 0.47288
vt 0.83692 0.470325
vt 0.838285 0.470238
vt 0.837844 0.469276
vt 0.908284 0.463851
vt 0.909657 0.469191
vt 0.909657 0.468009
vt 0.869033 0.47354
vt 0.863693 0.469229
vt 0.867392 0.47354
vt 0.90172 0.465053
vt 0.903405 0.465032
vt 0.902134 0.463698
vt 0.90172 0.473608
vt 0.903112 0.47242
vt 0.901001 0.472126
vt 0.836386 0.469528
vt 0.837844 0.469276
vt 0.83692 0.468603
vt 0.871589 0.463901
vt 0.87365 0.464911
vt 0.873722 0.46374
vt 0.905391 0.471262
vt 0.904506 0.471953
vt 0.906335 0.472165
vt 0.867164 0.463851
vt 0.864608 0.468199
vt 0.868766 0.463851
vt 0.854273 0.465023
vt 0.855686 0.465032
vt 0.855424 0.463698
vt 0.872453 0.467856
vt 0.874108 0.469678
vt 0.875086 0.468582
vt 0.836386 0.469528
vt 0.83692 0.468603
vt 0.836495 0.468476
vt 0.870233 0.464803
vt 0.871932 0.46508
vt 0.871589 0.463901
vt 0.878874 0.473502
vt 0.880247 0.470565
vt 0.880247 0.46942
vt 0.899006 0.470012
vt 0.898797 0.468305
vt 0.897734 0.470429
vt 0.898797 0.468305
vt 0.899333 0.466677
vt 0.897468 0.468001
vt 0.893979 0.469992
vt 0.889288 0.471099
vt 0.894437 0.471099
vt 0.836886 0.471394
vt 0.836334 0.472047
vt 0.837688 0.472573
vt 0.876886 0.4715
vt 0.875453 0.470721
vt 0.875387 0.471642
vt 0.8619 0.469268
vt 0.860526 0.463851
vt 0.860526 0.47354
vt 0.8619 0.471022
vt 0.839013 0.47354
vt 0.840424 0.47354
vt 0.841492 0.471099
vt 0.891195 0.463851
vt 0.889288 0.471099
vt 0.889784 0.469992
vt 0.869033 0.47354
vt 0.864608 0.468199
vt 0.863693 0.469229
vt 0.872459 0.473753
vt 0.872686 0.47255
vt 0.871012 0.472166
vt 0.851116 0.469085
vt 0.849756 0.469188
vt 0.850384 0.471247
vt 0.83659 0.473247
vt 0.836334 0.472047
vt 0.835188 0.472389
vt 0.900327 0.465642
vt 0.899906 0.464398
vt 0.898328 0.465773
vt 0.904506 0.465437
vt 0.906357 0.465199
vt 0.904415 0.463988
vt 0.878874 0.463813
vt 0.878874 0.473502
vt 0.880247 0.46942
vt 0.899667 0.47288
vt 0.90172 0.473608
vt 0.901001 0.472126
vt 0.842026 0.47003
vt 0.843399 0.463851
vt 0.839013 0.47354
vt 0.841492 0.471099
vt 0.834323 0.464953
vt 0.835339 0.463857
vt 0.829972 0.463813
vt 0.876777 0.470101
vt 0.875453 0.470721
vt 0.876886 0.4715
vt 0.871054 0.465893
vt 0.869656 0.465827
vt 0.871004 0.466784
vt 0.831384 0.469153
vt 0.829972 0.463813
vt 0.829972 0.473502
vt 0.896955 0.47354
vt 0.891881 0.465224
vt 0.893979 0.469992
vt 0.874412 0.472407
vt 0.874781 0.473543
vt 0.876023 0.472871
vt 0.902134 0.463698
vt 0.899906 0.464398
vt 0.90172 0.465053
vt 0.855424 0.463698
vt 0.85316 0.463984
vt 0.854273 0.465023
vt 0.875242 0.46402
vt 0.875019 0.465219
vt 0.876436 0.464605
vt 0.884998 0.464298
vt 0.88347 0.463831
vt 0.883302 0.465084
vt 0.884401 0.465465
vt 0.8619 0.469268
vt 0.863693 0.469229
vt 0.864608 0.468199
vt 0.844773 0.463851
vt 0.844124 0.465262
vt 0.846222 0.47003
vt 0.875086 0.468582
vt 0.875073 0.470183
vt 0.876291 0.469266
vt 0.871088 0.468799
vt 0.871529 0.467461
vt 0.869882 0.467801
vt 0.875019 0.465219
vt 0.875242 0.46402
vt 0.87365 0.464911
vt 0.909657 0.469191
vt 0.908284 0.463851
vt 0.908284 0.47354
vt 0.899668 0.471158
vt 0.897734 0.470429
vt 0.898504 0.471768
vt 0.88347 0.463831
vt 0.878874 0.463813
vt 0.880247 0.465072
vt 0.835864 0.465297
vt 0.836872 0.464425
vt 0.835339 0.463857
vt 0.885188 0.466286
vt 0.886718 0.467188
vt 0.886513 0.465959
vt 0.846222 0.47003
vt 0.842026 0.47003
vt 0.84668 0.471099
vt 0.876291 0.469266
vt 0.875073 0.470183
vt 0.875453 0.470721
vt 0.853125 0.4734
vt 0.855705 0.473664
vt 0.854073 0.472367
vt 0 1
vt 0 1
s off
f 1/1/1 2/2/2 3/3/3
f 4/4/4 5/5/5 6/6/6
f 7/7/7 8/8/8 9/9/9
f 10/10/10 11/11/11 12/12/12
f 13/13/13 14/14/14 15/15/15
f 16/16/16 17/17/17 18/18/18
f 19/19/19 20/20/20 21/21/21
f 22/22/22 23/23/23 24/24/24
f 25/25/25 26/26/26 27/27/27
f 28/28/28 29/29/29 30/30/30
f 31/31/31 32/32/32 33/33/33
f 34/34/34 35/35/35 36/36/36
f 37/37/37 38/38/38 39/39/39
f 40/40/40 41/41/41 42/42/42
f 43/43/43 44/44/44 45/45/45
f 46/46/46 47/47/47 48/48/48
f 49/49/49 50/50/50 51/51/51
f 52/52/52 53/53/53 54/54/54
f 55/55/55 56/56/56 57/57/57
f 58/58/58 59/59/59 60/60/60
f 61/61/61 62/62/62 63/63/63
f 64/64/64 65/65/65 66/66/66
f 67/67/67 68/68/68 69/69/69
f 70/70/70 71/71/71 72/72/72
f 73/73/73 74/74/74 75/75/75
f 76/76/76 77/77/77 78/78/78
f 79/79/79 80/80/80 81/81/81
f 82/82/82 83/83/83 84/84/84
f 85/85/85 86/86/86 87/87/87
f 88/88/88 89/89/89 90/90/90
f 91/91/91 92/92/92 93/93/93
f 94/94/94 95/95/95 96/96/96
f 97/97/97 98/98/98 99/99/99
f 100/100/100 101/101/101 102/102/102
f 103/103/103 104/104/104 105/105/105
f 106/106/106 107/107/107 108/108/108
f 109/109/109 110/110/110 111/111/111
f 112/112/112 113/113/113 114/114/114
f 115/115/115 116/116/116 117/117/117
f 118/118/118 119/119/119 120/120/120
f 121/121/121 122/122/122 123/123/123
f 124/124/124 125/125/125 126/126/126
f 127/127/127 128/128/128 129/129/129
f 130/130/130 131/131/131 132/132/132
f 133/133/133 134/134/134 135/135/135
f 136/136/136 137/137/137 138/138/138
f 139/139/139 140/140/140 141/141/141
f 142/142/142 143/143/143 144/144/144
f 145/145/145 146/146/146 147/147/147
f 148/148/148 149/149/149 150/150/150
f 151/151/151 152/152/152 153/153/153
f 154/154/154 155/155/155 156/156/156
f 157/157/157 158/158/158 159/159/159
f 160/160/160 161/161/161 162/162/162
f 163/163/163 164/164/164 165/165/165
f 166/166/166 167/167/167 168/168/168
f 169/169/169 170/170/170 171/171/171
f 172/172/172 173/173/173 174/174/174
f 175/175/175 176/176/176 177/177/177
f 178/178/178 179/179/179 180/180/180
f 181/181/181 182/182/182 183/183/183
f 184/184/184 185/185/185 186/186/186
f 187/187/187 188/188/188 189/189/189
f 190/190/190 191/191/191 192/192/192
f 193/193/193 194/194/194 195/195/195
f 196/196/196 197/197/197 198/198/198
f 199/199/199 200/200/200 201/201/201
f 202/202/202 203/203/203 204/204/204
f 205/205/205 206/206/206 207/207/207
f 208/208/208 209/209/209 210/210/210
f 211/211/211 212/212/212 213/213/213
f 214/214/214 215/215/215 216/216/216
f 217/217/217 218/218/218 219/219/219
f 220/220/220 221/221/221 222/222/222
f 223/223/223 224/224/224 225/225/225
f 226/226/226 227/227/227 228/228/228
f 229/229/229 230/230/230 231/231/231
f 232/232/232 233/233/233 234/234/234
f 235/235/235 236/236/236 237/237/237
f 238/238/238 239/239/239 240/240/240
f 241/241/241 242/242/242 243/243/243
f 244/244/244 245/245/245 246/246/246
f 247/247/247 248/248/248 249/249/249
f 250/250/250 251/251/251 252/252/252
f 253/253/253 254/254/254 255/255/255
f 256/256/256 257/257/257 258/258/258
f 259/259/259 260/260/260 261/261/261
f 262/262/262 263/263/263 264/264/264
f 265/265/265 266/266/266 267/267/267
f 268/268/268 269/269/269 270/270/270
f 271/271/271 272/272/272 273/273/273
f 274/274/274 275/275/275 276/276/276
f 277/277/277 278/278/278 279/279/279
f 280/280/280 281/281/281 282/282/282
f 283/283/283 284/284/284 285/285/285
f 286/286/286 287/287/287 288/288/288
f 289/289/289 290/290/290 291/291/291
f 292/292/292 293/293/293 294/294/294
f 295/295/295 296/296/296 297/297/297
f 298/298/298 299/299/299 300/300/300
f 301/301/301 302/302/302 303/303/303
f 304/304/304 305/305/305 306/306/306
f 307/307/307 308/308/308 309/309/309
f 307/307/307 309/309/309 310/310/310
f 311/311/311 312/312/312 313/313/313
f 314/314/314 315/315/315 316/316/316
f 317/317/317 318/318/318 319/319/319
f 320/320/320 321/321/321 322/322/322
f 323/323/323 324/324/324 325/325/325
f 326/326/326 327/327/327 328/328/328
f 329/329/329 330/330/330 331/331/331
f 332/332/332 333/333/333 334/334/334
f 335/335/335 336/336/336 337/337/337
f 338/338/338 339/339/339 340/340/340
f 341/341/341 342/342/342 343/343/343
f 344/344/344 345/345/345 346/346/346
f 347/347/347 348/348/348 349/349/349
f 350/350/350 351/351/351 352/352/352
f 353/353/353 354/354/354 355/355/355
f 356/356/356 357/357/357 358/358/358
f 359/359/359 360/360/360 361/361/361
f 362/362/362 363/363/363 364/364/364
f 365/365/365 366/366/366 367/367/367
f 368/368/368 369/369/369 370/370/370
f 371/371/371 372/372/372 373/373/373
f 374/374/374 375/375/375 376/376/376
f 377/377/377 378/378/378 379/379/379
f 380/380/380 381/381/381 382/382/382
f 383/383/383 384/384/384 385/385/385
f 386/386/386 387/387/387 388/388/388
f 389/389/389 390/390/390 391/391/391
f 392/392/392 393/393/393 394/394/394
f 395/395/395 396/396/396 397/397/397
f 398/398/398 399/399/399 400/400/400
f 401/401/401 402/402/402 403/403/403
f 404/404/404 405/405/405 406/406/406
f 407/407/407 408/408/408 409/409/409
f 410/410/410 411/411/411 412/412/412
f 410/410/410 412/412/412 413/413/413
f 414/414/414 415/415/415 416/416/416
f 417/417/417 418/418/418 419/419/419
f 420/420/420 421/421/421 422/422/422
f 423/423/423 424/424/424 425/425/425
f 426/426/426 427/427/427 428/428/428
f 429/429/429 430/430/430 431/431/431
f 432/432/432 433/433/433 434/434/434
f 435/435/435 436/436/436 437/437/437
f 438/438/438 439/439/439 440/440/440
f 441/441/441 442/442/442 443/443/443
f 444/444/444 445/445/445 446/446/446
f 444/444/444 446/446/446 447/447/447
f 448/448/448 449/449/449 450/450/450
f 451/451/451 452/452/452 453/453/453
f 454/454/454 455/455/455 456/456/456
f 457/457/457 458/458/458 459/459/459
f 460/460/460 461/461/461 462/462/462
f 463/463/463 464/464/464 465/465/465
f 466/466/466 467/467/467 468/468/468
f 469/469/469 470/470/470 471/471/471
f 472/472/472 473/473/473 474/474/474
f 475/475/475 476/476/476 477/477/477
f 475/475/475 477/477/477 478/478/478
f 479/479/479 480/480/480 481/481/481
f 482/482/482 483/483/483 484/484/484
f 485/485/485 486/486/486 487/487/487
f 488/488/488 489/489/489 490/490/490
f 491/491/491 492/492/492 493/493/493
f 494/494/494 495/495/495 496/496/496
f 497/497/497 498/498/498 499/499/499
f 500/500/500 501/501/501 502/502/502
f 503/503/503 504/504/504 505/505/505
f 506/506/506 507/507/507 508/508/508
f 509/509/509 510/510/510 511/511/511
f 512/512/512 513/513/513 514/514/514
f 515/515/515 516/516/516 517/517/517
