v 0.609696 0.18167 -0.104352
v 0.609715 0.181467 -0.101839
v 0.612146 0.181219 -0.101404
v 0.612146 0.179939 -0.077862
v 0.615761 0.179637 -0.078405
v 0.612803 0.179947 -0.079227
v 0.612146 0.179939 -0.077862
v 0.614321 0.179633 -0.075675
v 0.615761 0.179637 -0.078405
v 0.616587 0.180185 -0.090991
v 0.616687 0.180042 -0.088283
v 0.618283 0.179898 -0.088305
v 0.612146 0.181219 -0.101404
v 0.615762 0.180877 -0.100921
v 0.615007 0.181092 -0.102743
v 0.61582 0.180079 -0.087426
v 0.614475 0.180309 -0.089614
v 0.613715 0.180364 -0.089326
v 0.612803 0.179947 -0.079227
v 0.615761 0.179637 -0.078405
v 0.612857 0.180379 -0.088037
v 0.609691 0.178359 -0.035346
v 0.609691 0.178255 -0.032925
v 0.613206 0.177944 -0.035346
v 0.615821 0.180298 -0.091852
v 0.61284 0.180548 -0.091419
v 0.613645 0.180403 -0.089981
v 0.612857 0.180379 -0.088037
v 0.61582 0.180079 -0.087426
v 0.613715 0.180364 -0.089326
v 0.618283 0.180029 -0.090961
v 0.616587 0.180185 -0.090991
v 0.618283 0.179898 -0.088305
v 0.612146 0.179939 -0.077862
v 0.609697 0.180057 -0.074914
v 0.614321 0.179633 -0.075675
v 0.616587 0.180185 -0.090991
v 0.614475 0.180309 -0.089614
v 0.616687 0.180042 -0.088283
v 0.61582 0.180079 -0.087426
v 0.616687 0.180042 -0.088283
v 0.614475 0.180309 -0.089614
v 0.613206 0.177944 -0.035346
v 0.609691 0.178255 -0.032925
v 0.616174 0.177489 -0.032925
v 0.615762 0.180877 -0.100921
v 0.612799 0.181063 -0.100056
v 0.61284 0.180548 -0.091419
v 0.609691 0.179402 -0.059639
v 0.613206 0.178986 -0.059639
v 0.609691 0.179509 -0.062138
v 0.613206 0.178986 -0.059639
v 0.616174 0.178793 -0.062138
v 0.609691 0.179509 -0.062138
v 0.609697 0.180057 -0.074914
v 0.612146 0.179939 -0.077862
v 0.609705 0.180164 -0.077427
v 0.612146 0.181219 -0.101404
v 0.613643 0.181301 -0.103887
v 0.609696 0.18167 -0.104352
v 0.612857 0.180379 -0.088037
v 0.615761 0.179637 -0.078405
v 0.61582 0.180079 -0.087426
v 0.612146 0.181219 -0.101404
v 0.615007 0.181092 -0.102743
v 0.613643 0.181301 -0.103887
v 0.616174 0.178793 -0.062138
v 0.613206 0.178986 -0.059639
v 0.613206 0.177944 -0.035346
v 0.616174 0.177489 -0.032925
v 0.612146 0.181219 -0.101404
v 0.612799 0.181063 -0.100056
v 0.615762 0.180877 -0.100921
v 0.616587 0.180185 -0.090991
v 0.615821 0.180298 -0.091852
v 0.613645 0.180403 -0.089981
v 0.614475 0.180309 -0.089614
v 0.615821 0.180298 -0.091852
v 0.615762 0.180877 -0.100921
v 0.61284 0.180548 -0.091419
v 0.614534 0.180305 -0.089633
v 0.614475 0.180309 -0.089614
vn 0.087 0.993 0.0795
vn 0.087 0.993 0.0795
vn 0.087 0.993 0.0795
vn 0.0906 0.9947 0.0493
vn 0.0906 0.9947 0.0493
vn 0.0906 0.9947 0.0493
vn 0.0906 0.9947 0.0493
vn 0.0906 0.9947 0.0493
vn 0.0906 0.9947 0.0493
vn 0.0906 0.9947 0.0493
vn 0.0906 0.9947 0.0493
vn 0.0906 0.9947 0.0493
vn 0.0829 0.9931 0.0829
vn 0.0829 0.9931 0.0829
vn 0.0829 0.9931 0.0829
vn 0.0906 0.9947 0.0493
vn 0.0906 0.9947 0.0493
vn 0.0906 0.9947 0.0493
vn 0.0906 0.9947 0.0493
vn 0.0906 0.9947 0.0493
vn 0.0906 0.9947 0.0493
vn 0.1172 0.9922 0.0426
vn 0.1172 0.9922 0.0426
vn 0.1172 0.9922 0.0426
vn 0.0906 0.9947 0.0493
vn 0.0906 0.9947 0.0493
vn 0.0906 0.9947 0.0493
vn 0.0906 0.9947 0.0493
vn 0.0906 0.9947 0.0493
vn 0.0906 0.9947 0.0493
vn 0.0906 0.9947 0.0493
vn 0.0906 0.9947 0.0493
vn 0.0906 0.9947 0.0493
vn 0.098 0.9943 0.0419
vn 0.098 0.9943 0.0419
vn 0.098 0.9943 0.0419
vn 0.0906 0.9947 0.0493
vn 0.0906 0.9947 0.0493
vn 0.0906 0.9947 0.0493
vn 0.0906 0.9947 0.0493
vn 0.0906 0.9947 0.0493
vn 0.0906 0.9947 0.0493
vn 0.1172 0.9922 0.0426
vn 0.1172 0.9922 0.0426
vn 0.1172 0.9922 0.0426
vn 0.0796 0.9951 0.0589
vn 0.0796 0.9951 0.0589
vn 0.0796 0.9951 0.0589
vn 0.1172 0.9922 0.0426
vn 0.1172 0.9922 0.0426
vn 0.1172 0.9922 0.0426
vn 0.1096 0.9925 0.0535
vn 0.1096 0.9925 0.0535
vn 0.1096 0.9925 0.0535
vn 0.0989 0.9942 0.0426
vn 0.0989 0.9942 0.0426
vn 0.0989 0.9942 0.0426
vn 0.0829 0.9931 0.0829
vn 0.0829 0.9931 0.0829
vn 0.0829 0.9931 0.0829
vn 0.0906 0.9947 0.0493
vn 0.0906 0.9947 0.0493
vn 0.0906 0.9947 0.0493
vn 0.0829 0.9931 0.0829
vn 0.0829 0.9931 0.0829
vn 0.0829 0.9931 0.0829
vn 0.1089 0.9931 0.0436
vn 0.1089 0.9931 0.0436
vn 0.1089 0.9931 0.0436
vn 0.1089 0.9931 0.0436
vn 0.084 0.9937 0.0746
vn 0.084 0.9937 0.0746
vn 0.084 0.9937 0.0746
vn 0.0906 0.9947 0.0493
vn 0.0906 0.9947 0.0493
vn 0.0906 0.9947 0.0493
vn 0.0906 0.9947 0.0493
vn 0.0925 0.9937 0.0628
vn 0.0925 0.9937 0.0628
vn 0.0925 0.9937 0.0628
vn 0 0 0
vn 0 0 0
vt 0.799955 0.525133
vt 0.799964 0.52636
vt 0.801151 0.526573
vt 0.801151 0.538069
vt 0.802917 0.537804
vt 0.801472 0.537403
vt 0.801151 0.538069
vt 0.802213 0.539137
vt 0.802917 0.537804
vt 0.80332 0.531658
vt 0.803369 0.53298
vt 0.804148 0.532969
vt 0.801151 0.526573
vt 0.802917 0.526809
vt 0.802548 0.525919
vt 0.802945 0.533399
vt 0.802289 0.53233
vt 0.801917 0.532471
vt 0.801472 0.537403
vt 0.802917 0.537804
vt 0.801499 0.533101
vt 0.799952 0.558832
vt 0.799952 0.560014
vt 0.801669 0.558832
vt 0.802946 0.531237
vt 0.80149 0.531449
vt 0.801883 0.532151
vt 0.801499 0.533101
vt 0.802945 0.533399
vt 0.801917 0.532471
vt 0.804148 0.531673
vt 0.80332 0.531658
vt 0.804148 0.532969
vt 0.801151 0.538069
vt 0.799955 0.539509
vt 0.802213 0.539137
vt 0.80332 0.531658
vt 0.802289 0.53233
vt 0.803369 0.53298
vt 0.802945 0.533399
vt 0.803369 0.53298
vt 0.802289 0.53233
vt 0.801669 0.558832
vt 0.799952 0.560014
vt 0.803119 0.560014
vt 0.802917 0.526809
vt 0.80147 0.527231
vt 0.80149 0.531449
vt 0.799952 0.546969
vt 0.801669 0.546969
vt 0.799952 0.545748
vt 0.801669 0.546969
vt 0.803119 0.545748
vt 0.799952 0.545748
vt 0.799955 0.539509
vt 0.801151 0.538069
vt 0.799959 0.538282
vt 0.801151 0.526573
vt 0.801882 0.52536
vt 0.799955 0.525133
vt 0.801499 0.533101
vt 0.802917 0.537804
vt 0.802945 0.533399
vt 0.801151 0.526573
vt 0.802548 0.525919
vt 0.801882 0.52536
vt 0.803119 0.545748
vt 0.801669 0.546969
vt 0.801669 0.558832
vt 0.803119 0.560014
vt 0.801151 0.526573
vt 0.80147 0.527231
vt 0.802917 0.526809
vt 0.80332 0.531658
vt 0.802946 0.531237
vt 0.801883 0.532151
vt 0.802289 0.53233
vt 0.802946 0.531237
vt 0.802917 0.526809
vt 0.80149 0.531449
vt 0 1
vt 0 1
s off
f 1/1/1 2/2/2 3/3/3
f 4/4/4 5/5/5 6/6/6
f 7/7/7 8/8/8 9/9/9
f 10/10/10 11/11/11 12/12/12
f 13/13/13 14/14/14 15/15/15
f 16/16/16 17/17/17 18/18/18
f 19/19/19 20/20/20 21/21/21
f 22/22/22 23/23/23 24/24/24
f 25/25/25 26/26/26 27/27/27
f 28/28/28 29/29/29 30/30/30
f 31/31/31 32/32/32 33/33/33
f 34/34/34 35/35/35 36/36/36
f 37/37/37 38/38/38 39/39/39
f 40/40/40 41/41/41 42/42/42
f 43/43/43 44/44/44 45/45/45
f 46/46/46 47/47/47 48/48/48
f 49/49/49 50/50/50 51/51/51
f 52/52/52 53/53/53 54/54/54
f 55/55/55 56/56/56 57/57/57
f 58/58/58 59/59/59 60/60/60
f 61/61/61 62/62/62 63/63/63
f 64/64/64 65/65/65 66/66/66
f 67/67/67 68/68/68 69/69/69
f 67/67/67 69/69/69 70/70/70
f 71/71/71 72/72/72 73/73/73
f 74/74/74 75/75/75 76/76/76
f 74/74/74 76/76/76 77/77/77
f 78/78/78 79/79/79 80/80/80
