v 0.484839 0.181204 -0.101563
v 0.485122 0.181422 -0.104451
v 0.482784 0.181545 -0.10359
v 0.483074 0.178238 -0.035346
v 0.486589 0.177719 -0.032925
v 0.486589 0.177823 -0.035346
v 0.480218 0.180854 -0.088439
v 0.481085 0.180732 -0.087582
v 0.482429 0.180718 -0.08977
v 0.484839 0.181204 -0.101563
v 0.482784 0.181545 -0.10359
v 0.481196 0.181524 -0.101514
v 0.484839 0.181204 -0.101563
v 0.481196 0.181524 -0.101514
v 0.484176 0.181161 -0.100182
v 0.485122 0.181422 -0.104451
v 0.484839 0.181204 -0.101563
v 0.487198 0.181044 -0.101996
v 0.487207 0.179555 -0.075071
v 0.487203 0.17968 -0.077583
v 0.484839 0.179916 -0.078016
v 0.484176 0.181161 -0.100182
v 0.481196 0.181524 -0.101514
v 0.481059 0.180938 -0.091689
v 0.478621 0.181044 -0.088462
v 0.480218 0.180854 -0.088439
v 0.478621 0.181151 -0.090961
v 0.480218 0.180854 -0.088439
v 0.480049 0.180995 -0.090971
v 0.478621 0.181151 -0.090961
v 0.481059 0.180938 -0.091689
v 0.480049 0.180995 -0.090971
v 0.482429 0.180718 -0.08977
v 0.483787 0.180642 -0.090719
v 0.481059 0.180938 -0.091689
v 0.482755 0.180696 -0.089914
v 0.484102 0.180494 -0.088325
v 0.481085 0.180732 -0.087582
v 0.481144 0.180321 -0.07856
v 0.485122 0.181422 -0.104451
v 0.487198 0.181044 -0.101996
v 0.487213 0.181249 -0.104474
v 0.480106 0.178485 -0.032925
v 0.483074 0.178238 -0.035346
v 0.480106 0.179739 -0.062138
v 0.481059 0.180938 -0.091689
v 0.483787 0.180642 -0.090719
v 0.484163 0.180684 -0.092264
v 0.482429 0.180718 -0.08977
v 0.480049 0.180995 -0.090971
v 0.480218 0.180854 -0.088439
v 0.481085 0.180732 -0.087582
v 0.484102 0.180494 -0.088325
v 0.483022 0.180654 -0.089557
v 0.484839 0.179916 -0.078016
v 0.481144 0.180321 -0.07856
v 0.482584 0.180034 -0.075831
v 0.483074 0.179281 -0.059639
v 0.486589 0.178973 -0.062138
v 0.480106 0.179739 -0.062138
v 0.484163 0.180684 -0.092264
v 0.484176 0.181161 -0.100182
v 0.481059 0.180938 -0.091689
v 0.484839 0.179916 -0.078016
v 0.482584 0.180034 -0.075831
v 0.487207 0.179555 -0.075071
v 0.484839 0.179916 -0.078016
v 0.484181 0.180044 -0.079376
v 0.481144 0.180321 -0.07856
v 0.484181 0.180044 -0.079376
v 0.484102 0.180494 -0.088325
v 0.481144 0.180321 -0.07856
v 0.483074 0.178238 -0.035346
v 0.480106 0.178485 -0.032925
v 0.486589 0.177719 -0.032925
v 0.483074 0.179281 -0.059639
v 0.486589 0.178865 -0.059639
v 0.486589 0.178973 -0.062138
v 0.482429 0.180718 -0.08977
v 0.482755 0.180696 -0.089914
v 0.481059 0.180938 -0.091689
v 0.483074 0.178238 -0.035346
v 0.483074 0.179281 -0.059639
v 0.480106 0.179739 -0.062138
v 0.481085 0.180732 -0.087582
v 0.483022 0.180654 -0.089557
v 0.482429 0.180718 -0.08977
v 0.482429 0.180718 -0.08977
v 0.482371 0.180725 -0.089789
vn 0.0829 0.9931 0.0829
vn 0.0829 0.9931 0.0829
vn 0.0829 0.9931 0.0829
vn 0.1172 0.9922 0.0426
vn 0.1172 0.9922 0.0426
vn 0.1172 0.9922 0.0426
vn 0.091 0.9946 0.0495
vn 0.091 0.9946 0.0495
vn 0.091 0.9946 0.0495
vn 0.0883 0.9931 0.0773
vn 0.0883 0.9931 0.0773
vn 0.0883 0.9931 0.0773
vn 0.0883 0.9934 0.0737
vn 0.0883 0.9934 0.0737
vn 0.0883 0.9934 0.0737
vn 0.0829 0.9931 0.0829
vn 0.0829 0.9931 0.0829
vn 0.0829 0.9931 0.0829
vn 0.0906 0.9947 0.0493
vn 0.0906 0.9947 0.0493
vn 0.0906 0.9947 0.0493
vn 0.0942 0.9937 0.0606
vn 0.0942 0.9937 0.0606
vn 0.0942 0.9937 0.0606
vn 0.1172 0.9922 0.0426
vn 0.1172 0.9922 0.0426
vn 0.1172 0.9922 0.0426
vn 0.1092 0.9929 0.0478
vn 0.1092 0.9929 0.0478
vn 0.1092 0.9929 0.0478
vn 0.0906 0.9947 0.0493
vn 0.0906 0.9947 0.0493
vn 0.0906 0.9947 0.0493
vn 0.0906 0.9947 0.0493
vn 0.0906 0.9947 0.0493
vn 0.0906 0.9947 0.0493
vn 0.0895 0.995 0.0448
vn 0.0895 0.995 0.0448
vn 0.0895 0.995 0.0448
vn 0.0829 0.9931 0.0829
vn 0.0829 0.9931 0.0829
vn 0.0829 0.9931 0.0829
vn 0.1172 0.9922 0.0426
vn 0.1172 0.9922 0.0426
vn 0.1172 0.9922 0.0426
vn 0.0906 0.9947 0.0493
vn 0.0906 0.9947 0.0493
vn 0.0906 0.9947 0.0493
vn 0.0907 0.9947 0.0491
vn 0.0907 0.9947 0.0491
vn 0.0907 0.9947 0.0491
vn 0.0906 0.9947 0.0492
vn 0.0906 0.9947 0.0492
vn 0.0906 0.9947 0.0492
vn 0.1012 0.9935 0.0512
vn 0.1012 0.9935 0.0512
vn 0.1012 0.9935 0.0512
vn 0.1172 0.9922 0.0426
vn 0.1172 0.9922 0.0426
vn 0.1172 0.9922 0.0426
vn 0.0925 0.9939 0.06
vn 0.0925 0.9939 0.06
vn 0.0925 0.9939 0.06
vn 0.0955 0.9944 0.0453
vn 0.0955 0.9944 0.0453
vn 0.0955 0.9944 0.0453
vn 0.1023 0.9938 0.0436
vn 0.1023 0.9938 0.0436
vn 0.1023 0.9938 0.0436
vn 0.1038 0.9934 0.0491
vn 0.1038 0.9934 0.0491
vn 0.1038 0.9934 0.0491
vn 0.1172 0.9922 0.0426
vn 0.1172 0.9922 0.0426
vn 0.1172 0.9922 0.0426
vn 0.1172 0.9922 0.0426
vn 0.1172 0.9922 0.0426
vn 0.1172 0.9922 0.0426
vn 0.0906 0.9947 0.0493
vn 0.0906 0.9947 0.0493
vn 0.0906 0.9947 0.0493
vn 0.1172 0.9922 0.0426
vn 0.1172 0.9922 0.0426
vn 0.1172 0.9922 0.0426
vn 0.0906 0.9947 0.0493
vn 0.0906 0.9947 0.0493
vn 0.0906 0.9947 0.0493
vn 0 0 0
vn 0 0 0
vt 0.738982 0.526495
vt 0.73912 0.525085
vt 0.737978 0.525505
vt 0.73812 0.558832
vt 0.739836 0.560014
vt 0.739836 0.558832
vt 0.736725 0.532904
vt 0.737149 0.533323
vt 0.737805 0.532254
vt 0.738982 0.526495
vt 0.737978 0.525505
vt 0.737203 0.526519
vt 0.738982 0.526495
vt 0.737203 0.526519
vt 0.738658 0.527169
vt 0.73912 0.525085
vt 0.738982 0.526495
vt 0.740134 0.526284
vt 0.740138 0.539432
vt 0.740136 0.538206
vt 0.738982 0.537994
vt 0.738658 0.527169
vt 0.737203 0.526519
vt 0.737136 0.531317
vt 0.735945 0.532893
vt 0.736725 0.532904
vt 0.735945 0.531673
vt 0.736725 0.532904
vt 0.736643 0.531668
vt 0.735945 0.531673
vt 0.737136 0.531317
vt 0.736643 0.531668
vt 0.737805 0.532254
vt 0.738468 0.53179
vt 0.737136 0.531317
vt 0.737964 0.532184
vt 0.738622 0.53296
vt 0.737149 0.533323
vt 0.737177 0.537728
vt 0.73912 0.525085
vt 0.740134 0.526284
vt 0.740141 0.525073
vt 0.73667 0.560014
vt 0.73812 0.558832
vt 0.73667 0.545748
vt 0.737136 0.531317
vt 0.738468 0.53179
vt 0.738652 0.531036
vt 0.737805 0.532254
vt 0.736643 0.531668
vt 0.736725 0.532904
vt 0.737149 0.533323
vt 0.738622 0.53296
vt 0.738094 0.532358
vt 0.738982 0.537994
vt 0.737177 0.537728
vt 0.737881 0.539061
vt 0.73812 0.546969
vt 0.739836 0.545748
vt 0.73667 0.545748
vt 0.738652 0.531036
vt 0.738658 0.527169
vt 0.737136 0.531317
vt 0.738982 0.537994
vt 0.737881 0.539061
vt 0.740138 0.539432
vt 0.738982 0.537994
vt 0.738661 0.53733
vt 0.737177 0.537728
vt 0.738661 0.53733
vt 0.738622 0.53296
vt 0.737177 0.537728
vt 0.73812 0.558832
vt 0.73667 0.560014
vt 0.739836 0.560014
vt 0.73812 0.546969
vt 0.739836 0.546969
vt 0.739836 0.545748
vt 0.737805 0.532254
vt 0.737964 0.532184
vt 0.737136 0.531317
vt 0.73812 0.558832
vt 0.73812 0.546969
vt 0.73667 0.545748
vt 0.737149 0.533323
vt 0.738094 0.532358
vt 0.737805 0.532254
vt 0 1
vt 0 1
s off
f 1/1/1 2/2/2 3/3/3
f 4/4/4 5/5/5 6/6/6
f 7/7/7 8/8/8 9/9/9
f 10/10/10 11/11/11 12/12/12
f 13/13/13 14/14/14 15/15/15
f 16/16/16 17/17/17 18/18/18
f 19/19/19 20/20/20 21/21/21
f 22/22/22 23/23/23 24/24/24
f 25/25/25 26/26/26 27/27/27
f 28/28/28 29/29/29 30/30/30
f 31/31/31 32/32/32 33/33/33
f 34/34/34 35/35/35 36/36/36
f 37/37/37 38/38/38 39/39/39
f 40/40/40 41/41/41 42/42/42
f 43/43/43 44/44/44 45/45/45
f 46/46/46 47/47/47 48/48/48
f 49/49/49 50/50/50 51/51/51
f 52/52/52 53/53/53 54/54/54
f 55/55/55 56/56/56 57/57/57
f 58/58/58 59/59/59 60/60/60
f 61/61/61 62/62/62 63/63/63
f 64/64/64 65/65/65 66/66/66
f 67/67/67 68/68/68 69/69/69
f 70/70/70 71/71/71 72/72/72
f 73/73/73 74/74/74 75/75/75
f 76/76/76 77/77/77 78/78/78
f 79/79/79 80/80/80 81/81/81
f 82/82/82 83/83/83 84/84/84
f 85/85/85 86/86/86 87/87/87
