v -0.432447 0.161444 0.160695
v -0.435396 0.161427 0.157817
v -0.437371 0.162054 0.161871
v -0.437371 0.162054 0.161871
v -0.440293 0.162124 0.159824
v -0.440527 0.162669 0.164717
v -0.437371 0.162054 0.161871
v -0.435396 0.161427 0.157817
v -0.440293 0.162124 0.159824
v -0.432447 0.161444 0.160695
v -0.430322 0.160924 0.157787
v -0.435396 0.161427 0.157817
v -0.430322 0.160924 0.157787
v -0.428224 0.161237 0.161635
v -0.425922 0.160918 0.159223
v -0.430322 0.160924 0.157787
v -0.432447 0.161444 0.160695
v -0.428224 0.161237 0.161635
v -0.42557 0.161374 0.163658
v -0.425922 0.160918 0.159223
v -0.428224 0.161237 0.161635
v -0.42557 0.161374 0.163658
v -0.423318 0.161083 0.161488
v -0.425922 0.160918 0.159223
v -0.443723 0.162837 0.163345
v -0.440527 0.162669 0.164717
v -0.440293 0.162124 0.159824
v -0.443723 0.162837 0.163345
v -0.445295 0.163445 0.167103
v -0.441805 0.163152 0.168066
v -0.440527 0.162669 0.164717
v -0.443723 0.162837 0.163345
v -0.441805 0.163152 0.168066
v -0.4457 0.163867 0.170419
v -0.44199 0.163482 0.17099
v -0.441805 0.163152 0.168066
v -0.4457 0.163867 0.170419
v -0.441805 0.163152 0.168066
v -0.445295 0.163445 0.167103
v -0.445032 0.164248 0.174529
v -0.44199 0.163482 0.17099
v -0.4457 0.163867 0.170419
v -0.441318 0.163759 0.174205
v -0.445032 0.164248 0.174529
v -0.442482 0.164413 0.178766
v -0.44199 0.163482 0.17099
v -0.445032 0.164248 0.174529
v -0.441318 0.163759 0.174205
v -0.438539 0.163869 0.177807
v -0.441318 0.163759 0.174205
v -0.442482 0.164413 0.178766
v -0.438539 0.163869 0.177807
v -0.439183 0.164303 0.181287
v -0.435902 0.164108 0.18249
v -0.434577 0.163663 0.179542
v -0.438539 0.163869 0.177807
v -0.442482 0.164413 0.178766
v -0.439183 0.164303 0.181287
v -0.435902 0.164108 0.18249
v -0.430807 0.163644 0.182838
v -0.434577 0.163663 0.179542
v -0.430807 0.163644 0.182838
v -0.425987 0.163249 0.18124
v -0.427931 0.16305 0.17874
v -0.430807 0.163644 0.182838
v -0.427931 0.16305 0.17874
v -0.431221 0.163345 0.179657
v -0.431221 0.163345 0.179657
v -0.434577 0.163663 0.179542
v -0.430807 0.163644 0.182838
v -0.425507 0.162751 0.176728
v -0.427931 0.16305 0.17874
v -0.423209 0.162914 0.178947
v -0.425987 0.163249 0.18124
v -0.423209 0.162914 0.178947
v -0.427931 0.16305 0.17874
vn 0.0975 0.9896 -0.1055
vn 0.0975 0.9896 -0.1055
vn 0.0975 0.9896 -0.1055
vn 0.0975 0.9896 -0.1055
vn 0.0975 0.9896 -0.1055
vn 0.0975 0.9896 -0.1055
vn 0.0975 0.9896 -0.1055
vn 0.0975 0.9896 -0.1055
vn 0.0975 0.9896 -0.1055
vn 0.0975 0.9896 -0.1055
vn 0.0975 0.9896 -0.1055
vn 0.0975 0.9896 -0.1055
vn 0.0337 0.9945 -0.0991
vn 0.0337 0.9945 -0.0991
vn 0.0337 0.9945 -0.0991
vn 0.0756 0.9897 -0.1216
vn 0.0756 0.9897 -0.1216
vn 0.0756 0.9897 -0.1216
vn 0.0281 0.9941 -0.1045
vn 0.0281 0.9941 -0.1045
vn 0.0281 0.9941 -0.1045
vn 0.0281 0.9941 -0.1045
vn 0.0281 0.9941 -0.1045
vn 0.0281 0.9941 -0.1045
vn 0.0975 0.9896 -0.1055
vn 0.0975 0.9896 -0.1055
vn 0.0975 0.9896 -0.1055
vn 0.114 0.9871 -0.1121
vn 0.114 0.9871 -0.1121
vn 0.114 0.9871 -0.1121
vn 0.0975 0.9896 -0.1055
vn 0.0975 0.9896 -0.1055
vn 0.0975 0.9896 -0.1055
vn 0.1187 0.9875 -0.1039
vn 0.1187 0.9875 -0.1039
vn 0.1187 0.9875 -0.1039
vn 0.1139 0.9872 -0.1117
vn 0.1139 0.9872 -0.1117
vn 0.1139 0.9872 -0.1117
vn 0.1196 0.9866 -0.1108
vn 0.1196 0.9866 -0.1108
vn 0.1196 0.9866 -0.1108
vn 0.1202 0.9865 -0.1109
vn 0.1202 0.9865 -0.1109
vn 0.1202 0.9865 -0.1109
vn 0.1203 0.9866 -0.1102
vn 0.1203 0.9866 -0.1102
vn 0.1203 0.9866 -0.1102
vn 0.1087 0.9875 -0.1139
vn 0.1087 0.9875 -0.1139
vn 0.1087 0.9875 -0.1139
vn 0.0975 0.9896 -0.1055
vn 0.0975 0.9896 -0.1055
vn 0.0975 0.9896 -0.1055
vn 0.0975 0.9896 -0.1055
vn 0.1115 0.9884 -0.1028
vn 0.1115 0.9884 -0.1028
vn 0.1115 0.9884 -0.1028
vn 0.0975 0.9896 -0.1055
vn 0.0975 0.9896 -0.1055
vn 0.0975 0.9896 -0.1055
vn 0.0437 0.9926 -0.113
vn 0.0437 0.9926 -0.113
vn 0.0437 0.9926 -0.113
vn 0.0608 0.993 -0.1011
vn 0.0608 0.993 -0.1011
vn 0.0608 0.993 -0.1011
vn 0.0975 0.9896 -0.1055
vn 0.0975 0.9896 -0.1055
vn 0.0975 0.9896 -0.1055
vn 0.0334 0.9936 -0.1074
vn 0.0334 0.9936 -0.1074
vn 0.0334 0.9936 -0.1074
vn 0.0333 0.9939 -0.105
vn 0.0333 0.9939 -0.105
vn 0.0333 0.9939 -0.105
vt 0.291031 0.654567
vt 0.289591 0.653162
vt 0.288627 0.655141
vt 0.288627 0.655141
vt 0.2872 0.654142
vt 0.287086 0.656531
vt 0.288627 0.655141
vt 0.289591 0.653162
vt 0.2872 0.654142
vt 0.291031 0.654567
vt 0.292069 0.653147
vt 0.289591 0.653162
vt 0.292069 0.653147
vt 0.293094 0.655026
vt 0.294218 0.653848
vt 0.292069 0.653147
vt 0.291031 0.654567
vt 0.293094 0.655026
vt 0.29439 0.656014
vt 0.294218 0.653848
vt 0.293094 0.655026
vt 0.29439 0.656014
vt 0.295489 0.654954
vt 0.294218 0.653848
vt 0.285525 0.655861
vt 0.287086 0.656531
vt 0.2872 0.654142
vt 0.285525 0.655861
vt 0.284757 0.657697
vt 0.286462 0.658166
vt 0.287086 0.656531
vt 0.285525 0.655861
vt 0.286462 0.658166
vt 0.284559 0.659316
vt 0.286371 0.659595
vt 0.286462 0.658166
vt 0.284559 0.659316
vt 0.286462 0.658166
vt 0.284757 0.657697
vt 0.284886 0.661323
vt 0.286371 0.659595
vt 0.284559 0.659316
vt 0.2867 0.661164
vt 0.284886 0.661323
vt 0.286131 0.663392
vt 0.286371 0.659595
vt 0.284886 0.661323
vt 0.2867 0.661164
vt 0.288056 0.662923
vt 0.2867 0.661164
vt 0.286131 0.663392
vt 0.288056 0.662923
vt 0.287742 0.664623
vt 0.289344 0.66521
vt 0.289991 0.663771
vt 0.288056 0.662923
vt 0.286131 0.663392
vt 0.287742 0.664623
vt 0.289344 0.66521
vt 0.291832 0.66538
vt 0.289991 0.663771
vt 0.291832 0.66538
vt 0.294186 0.6646
vt 0.293237 0.663379
vt 0.291832 0.66538
vt 0.293237 0.663379
vt 0.29163 0.663827
vt 0.29163 0.663827
vt 0.289991 0.663771
vt 0.291832 0.66538
vt 0.294421 0.662396
vt 0.293237 0.663379
vt 0.295543 0.66348
vt 0.294186 0.6646
vt 0.295543 0.66348
vt 0.293237 0.663379
s off
f 1/1/1 2/2/2 3/3/3
f 4/4/4 5/5/5 6/6/6
f 7/7/7 8/8/8 9/9/9
f 10/10/10 11/11/11 12/12/12
f 13/13/13 14/14/14 15/15/15
f 16/16/16 17/17/17 18/18/18
f 19/19/19 20/20/20 21/21/21
f 22/22/22 23/23/23 24/24/24
f 25/25/25 26/26/26 27/27/27
f 28/28/28 29/29/29 30/30/30
f 31/31/31 32/32/32 33/33/33
f 34/34/34 35/35/35 36/36/36
f 37/37/37 38/38/38 39/39/39
f 40/40/40 41/41/41 42/42/42
f 43/43/43 44/44/44 45/45/45
f 46/46/46 47/47/47 48/48/48
f 49/49/49 50/50/50 51/51/51
f 52/52/52 53/53/53 54/54/54
f 52/52/52 54/54/54 55/55/55
f 56/56/56 57/57/57 58/58/58
f 59/59/59 60/60/60 61/61/61
f 62/62/62 63/63/63 64/64/64
f 65/65/65 66/66/66 67/67/67
f 68/68/68 69/69/69 70/70/70
f 71/71/71 72/72/72 73/73/73
f 74/74/74 75/75/75 76/76/76
