v -0.833045 0.1289 0.002925
v -0.833045 0.117638 0.002555
v -0.871295 0.117638 0.002555
v -0.871295 0.1289 0.002925
v -0.833045 0.117638 0.002555
v -0.833045 0.1289 0.002925
v -0.810868 0.1289 0.002925
v -0.810857 0.117638 0.002555
v -0.810868 0.1289 0.002925
v -0.801963 0.12878 0.006571
v -0.80196 0.117518 0.006199
v -0.810857 0.117638 0.002555
v -0.801963 0.12878 0.006571
v -0.798274 0.128491 0.015374
v -0.798274 0.117229 0.014998
v -0.80196 0.117518 0.006199
v -0.798274 0.117229 0.014998
v -0.798274 0.128491 0.015374
v -0.798274 0.125219 0.114948
v -0.798274 0.113957 0.114593
v -0.801944 0.113662 0.12355
v -0.798274 0.113957 0.114593
v -0.798274 0.125219 0.114948
v -0.801947 0.124925 0.123915
v -0.801947 0.124925 0.123915
v -0.798274 0.125219 0.114948
v -0.811994 0.169291 0.105417
v -0.818014 0.168813 0.111896
v -0.811994 0.169291 0.105417
v -0.798274 0.125219 0.114948
v -0.798274 0.128491 0.015374
v -0.811935 0.16938 0.020679
v -0.81555 0.171774 0.021843
v -0.815548 0.171658 0.104057
v -0.811994 0.169291 0.105417
v -0.811935 0.16938 0.020679
v -0.815548 0.171658 0.104057
v -0.818819 0.171413 0.108181
v -0.818014 0.168813 0.111896
v -0.811994 0.169291 0.105417
v -0.81887 0.171605 0.017764
v -0.81555 0.171774 0.021843
v -0.811935 0.16938 0.020679
v -0.818054 0.168977 0.014235
v -0.818054 0.168977 0.014235
v -0.811935 0.16938 0.020679
v -0.801963 0.12878 0.006571
v -0.810868 0.1289 0.002925
v -0.811935 0.16938 0.020679
v -0.798274 0.128491 0.015374
v -0.801963 0.12878 0.006571
v -0.845012 0.169788 0.017275
v -0.81887 0.171605 0.017764
v -0.818054 0.168977 0.014235
v -0.844246 0.167245 0.013746
v -0.844246 0.167245 0.013746
v -0.818054 0.168977 0.014235
v -0.810868 0.1289 0.002925
v -0.833045 0.1289 0.002925
v -0.844246 0.167245 0.013746
v -0.876866 0.165882 0.013361
v -0.877263 0.168387 0.016893
v -0.845012 0.169788 0.017275
v -0.844246 0.167245 0.013746
v -0.833045 0.1289 0.002925
v -0.871295 0.1289 0.002925
v -0.876866 0.165882 0.013361
v -0.908986 0.165545 0.013267
v -0.908986 0.16804 0.016799
v -0.877263 0.168387 0.016893
v -0.876866 0.165882 0.013361
v -0.908986 0.1289 0.002925
v -0.908986 0.165545 0.013267
v -0.876866 0.165882 0.013361
v -0.871295 0.1289 0.002925
v -0.940709 0.168387 0.016893
v -0.908986 0.16804 0.016799
v -0.908986 0.165545 0.013267
v -0.941106 0.165882 0.013361
v -0.941106 0.165882 0.013361
v -0.908986 0.165545 0.013267
v -0.908986 0.1289 0.002925
v -0.946677 0.1289 0.002925
v -0.941106 0.165882 0.013361
v -0.973727 0.167245 0.013746
v -0.97296 0.169788 0.017275
v -0.940709 0.168387 0.016893
v -0.941106 0.165882 0.013361
v -0.946677 0.1289 0.002925
v -0.984927 0.1289 0.002925
v -0.973727 0.167245 0.013746
v -0.946677 0.1289 0.002925
v -0.946677 0.117638 0.002555
v -0.984927 0.117638 0.002555
v -0.984927 0.1289 0.002925
v -0.946677 0.1289 0.002925
v -0.908986 0.1289 0.002925
v -0.908986 0.117638 0.002555
v -0.946677 0.117638 0.002555
v -0.908986 0.117638 0.002555
v -0.908986 0.1289 0.002925
v -0.871295 0.1289 0.002925
v -0.871295 0.117638 0.002555
v -1.00712 0.117638 0.002555
v -1.0071 0.1289 0.002925
v -0.984927 0.1289 0.002925
v -0.984927 0.117638 0.002555
v -1.00712 0.117638 0.002555
v -1.01601 0.117518 0.006199
v -1.01601 0.12878 0.006571
v -1.0071 0.1289 0.002925
v -1.01601 0.117518 0.006199
v -1.0197 0.117229 0.014998
v -1.0197 0.128491 0.015374
v -1.01601 0.12878 0.006571
v -1.0197 0.117229 0.014998
v -1.0197 0.113957 0.114593
v -1.0197 0.125219 0.114948
v -1.0197 0.128491 0.015374
v -1.0197 0.113957 0.114593
v -1.01603 0.113662 0.12355
v -1.01603 0.124925 0.123915
v -1.0197 0.125219 0.114948
v -1.01603 0.113662 0.12355
v -1.00717 0.113541 0.127259
v -1.00716 0.124803 0.127629
v -1.01603 0.124925 0.123915
v -0.984928 0.113541 0.127259
v -0.984928 0.124803 0.127629
v -1.00716 0.124803 0.127629
v -1.00717 0.113541 0.127259
v -0.984928 0.124803 0.127629
v -0.984928 0.113541 0.127259
v -0.946677 0.113541 0.127259
v -0.946677 0.124803 0.127629
v -0.946677 0.113541 0.127259
v -0.908986 0.113541 0.127259
v -0.908986 0.124803 0.127629
v -0.946677 0.124803 0.127629
v -0.908986 0.124803 0.127629
v -0.908986 0.113541 0.127259
v -0.871295 0.113541 0.127259
v -0.871295 0.124803 0.127629
v -0.871295 0.124803 0.127629
v -0.871295 0.113541 0.127259
v -0.833045 0.113541 0.127259
v -0.833045 0.124803 0.127629
v -0.810803 0.113541 0.127259
v -0.810812 0.124803 0.127629
v -0.833045 0.124803 0.127629
v -0.833045 0.113541 0.127259
v -0.810803 0.113541 0.127259
v -0.801944 0.113662 0.12355
v -0.801947 0.124925 0.123915
v -0.810812 0.124803 0.127629
v -0.810812 0.124803 0.127629
v -0.801947 0.124925 0.123915
v -0.818014 0.168813 0.111896
v -0.818014 0.168813 0.111896
v -0.844291 0.166641 0.112672
v -0.833045 0.124803 0.127629
v -0.810812 0.124803 0.127629
v -0.87688 0.164936 0.113282
v -0.871295 0.124803 0.127629
v -0.833045 0.124803 0.127629
v -0.844291 0.166641 0.112672
v -0.844988 0.169187 0.108956
v -0.877243 0.16746 0.10956
v -0.87688 0.164936 0.113282
v -0.844291 0.166641 0.112672
v -0.818819 0.171413 0.108181
v -0.844988 0.169187 0.108956
v -0.844291 0.166641 0.112672
v -0.818014 0.168813 0.111896
v -0.908986 0.167033 0.109709
v -0.908986 0.164515 0.113433
v -0.87688 0.164936 0.113282
v -0.877243 0.16746 0.10956
v -0.908986 0.164515 0.113433
v -0.908986 0.124803 0.127629
v -0.871295 0.124803 0.127629
v -0.87688 0.164936 0.113282
v -0.941093 0.164936 0.113282
v -0.908986 0.164515 0.113433
v -0.908986 0.167033 0.109709
v -0.94073 0.16746 0.10956
v -0.946677 0.124803 0.127629
v -0.908986 0.124803 0.127629
v -0.908986 0.164515 0.113433
v -0.941093 0.164936 0.113282
v -0.94073 0.16746 0.10956
v -0.972984 0.169187 0.108955
v -0.973681 0.166641 0.112672
v -0.941093 0.164936 0.113282
v -0.973681 0.166641 0.112672
v -0.984928 0.124803 0.127629
v -0.946677 0.124803 0.127629
v -0.941093 0.164936 0.113282
v -0.972984 0.169187 0.108955
v -0.999153 0.171413 0.10818
v -0.999959 0.168813 0.111896
v -0.973681 0.166641 0.112672
v -0.973681 0.166641 0.112672
v -0.999959 0.168813 0.111896
v -1.00716 0.124803 0.127629
v -0.984928 0.124803 0.127629
v -0.999153 0.171413 0.10818
v -1.00242 0.171658 0.104057
v -1.00598 0.169291 0.105417
v -0.999959 0.168813 0.111896
v -1.0197 0.125219 0.114948
v -1.01603 0.124925 0.123915
v -0.999959 0.168813 0.111896
v -1.00598 0.169291 0.105417
v -1.01603 0.124925 0.123915
v -1.00716 0.124803 0.127629
v -0.999959 0.168813 0.111896
v -1.00604 0.16938 0.020679
v -1.00598 0.169291 0.105417
v -1.00242 0.171658 0.104057
v -1.00242 0.171774 0.021843
v -1.0197 0.128491 0.015374
v -1.0197 0.125219 0.114948
v -1.00598 0.169291 0.105417
v -1.00604 0.16938 0.020679
v -1.00242 0.171774 0.021843
v -0.999102 0.171605 0.017764
v -0.999918 0.168977 0.014235
v -1.00604 0.16938 0.020679
v -1.0071 0.1289 0.002925
v -1.01601 0.12878 0.006571
v -1.00604 0.16938 0.020679
v -0.999918 0.168977 0.014235
v -1.01601 0.12878 0.006571
v -1.0197 0.128491 0.015374
v -1.00604 0.16938 0.020679
v -0.999102 0.171605 0.017764
v -0.97296 0.169788 0.017275
v -0.973727 0.167245 0.013746
v -0.999918 0.168977 0.014235
v -0.999918 0.168977 0.014235
v -0.973727 0.167245 0.013746
v -0.984927 0.1289 0.002925
v -1.0071 0.1289 0.002925
v -1.00242 0.171774 0.021843
v -0.972976 0.169334 0.030693
v -0.97296 0.169788 0.017275
v -0.999102 0.171605 0.017764
v -0.940723 0.167657 0.030466
v -0.940709 0.168387 0.016893
v -0.97296 0.169788 0.017275
v -0.972976 0.169334 0.030693
v -0.940739 0.166992 0.095976
v -0.940723 0.167657 0.030466
v -0.972976 0.169334 0.030693
v -0.972997 0.168909 0.095533
v -1.00242 0.171774 0.021843
v -1.00242 0.171658 0.104057
v -0.972997 0.168909 0.095533
v -0.972976 0.169334 0.030693
v -0.94073 0.16746 0.10956
v -0.940739 0.166992 0.095976
v -0.972997 0.168909 0.095533
v -0.972984 0.169187 0.108955
v -1.00242 0.171658 0.104057
v -0.999153 0.171413 0.10818
v -0.972984 0.169187 0.108955
v -0.972997 0.168909 0.095533
v -0.940739 0.166992 0.095976
v -0.908986 0.16651 0.096082
v -0.908986 0.16723 0.030413
v -0.940723 0.167657 0.030466
v -0.94073 0.16746 0.10956
v -0.908986 0.167033 0.109709
v -0.908986 0.16651 0.096082
v -0.940739 0.166992 0.095976
v -0.908986 0.16651 0.096082
v -0.908986 0.167033 0.109709
v -0.877243 0.16746 0.10956
v -0.877234 0.166992 0.095976
v -0.908986 0.16723 0.030413
v -0.908986 0.16651 0.096082
v -0.877234 0.166992 0.095976
v -0.87725 0.167657 0.030466
v -0.940723 0.167657 0.030466
v -0.908986 0.16723 0.030413
v -0.908986 0.16804 0.016799
v -0.940709 0.168387 0.016893
v -0.908986 0.16804 0.016799
v -0.908986 0.16723 0.030413
v -0.87725 0.167657 0.030466
v -0.877263 0.168387 0.016893
v -0.844976 0.168909 0.095533
v -0.844996 0.169334 0.030693
v -0.87725 0.167657 0.030466
v -0.877234 0.166992 0.095976
v -0.844996 0.169334 0.030693
v -0.845012 0.169788 0.017275
v -0.877263 0.168387 0.016893
v -0.87725 0.167657 0.030466
v -0.844976 0.168909 0.095533
v -0.815548 0.171658 0.104057
v -0.81555 0.171774 0.021843
v -0.844996 0.169334 0.030693
v -0.844996 0.169334 0.030693
v -0.81555 0.171774 0.021843
v -0.81887 0.171605 0.017764
v -0.845012 0.169788 0.017275
v -0.844988 0.169187 0.108956
v -0.844976 0.168909 0.095533
v -0.877234 0.166992 0.095976
v -0.877243 0.16746 0.10956
v -0.844988 0.169187 0.108956
v -0.818819 0.171413 0.108181
v -0.815548 0.171658 0.104057
v -0.844976 0.168909 0.095533
vn -0 0.0328 -0.9995
vn -0 0.0328 -0.9995
vn -0 0.0328 -0.9995
vn -0.0432 -0.0104 -0.999
vn -0 0.0328 -0.9995
vn -0 0.0328 -0.9995
vn 0.1166 0.0327 -0.9926
vn 0.1166 0.0328 -0.9926
vn 0.1166 0.0327 -0.9926
vn 0.7044 0.0236 -0.7094
vn 0.7034 0.0237 -0.7104
vn 0.1166 0.0328 -0.9926
vn 0.7044 0.0236 -0.7094
vn 0.9993 0.0014 -0.0378
vn 0.9993 0.0012 -0.0378
vn 0.7034 0.0237 -0.7104
vn 0.9993 0.0012 -0.0378
vn 0.9993 0.0014 -0.0378
vn 0.9993 -0.0011 0.0376
vn 0.9993 -0.001 0.0376
vn 0.7111 -0.0226 0.7027
vn 0.9993 -0.001 0.0376
vn 0.9993 -0.0011 0.0376
vn 0.7113 -0.0226 0.7026
vn 0.6556 0.3814 0.6517
vn 0.9514 0.308 0.0095
vn 0.9517 0.3071 0.006
vn 0.0791 0.3972 0.9143
vn 0.9517 0.3071 0.006
vn 0.9514 0.308 0.0095
vn 0.9515 0.3077 0.0022
vn 0.9516 0.3072 0.0059
vn -0.0755 0.997 0.0164
vn -0.0834 0.9965 -0.0068
vn 0.9517 0.3071 0.006
vn 0.9516 0.3072 0.0059
vn -0.0834 0.9965 -0.0068
vn -0.0847 0.9963 -0.0146
vn 0.0791 0.3972 0.9143
vn 0.9517 0.3071 0.006
vn -0.0717 0.997 0.0294
vn -0.0755 0.997 0.0164
vn 0.9516 0.3072 0.0059
vn 0.0814 0.3425 -0.936
vn 0.0814 0.3425 -0.936
vn 0.9516 0.3072 0.0059
vn 0.6671 0.3495 -0.6579
vn 0.0907 0.286 -0.9539
vn 0.9516 0.3072 0.0059
vn 0.9515 0.3077 0.0022
vn 0.6671 0.3495 -0.6579
vn -0.0598 0.9977 0.033
vn -0.0717 0.997 0.0294
vn 0.0814 0.3425 -0.936
vn -0.0036 0.3336 -0.9427
vn -0.0036 0.3336 -0.9427
vn 0.0814 0.3425 -0.936
vn 0.0907 0.286 -0.9539
vn -0 0.2716 -0.9624
vn -0.0036 0.3336 -0.9427
vn -0.0017 0.3318 -0.9434
vn -0.03 0.9985 0.0463
vn -0.0598 0.9977 0.033
vn -0.0036 0.3336 -0.9427
vn -0 0.2716 -0.9624
vn 0.0432 0.3127 -0.9489
vn -0.0017 0.3318 -0.9434
vn -0 0.3326 -0.9431
vn -0 0.9986 0.0526
vn -0.03 0.9985 0.0463
vn -0.0017 0.3318 -0.9434
vn 0.0428 0.3123 -0.949
vn -0 0.3326 -0.9431
vn -0.0017 0.3318 -0.9434
vn 0.0432 0.3127 -0.9489
vn 0.0301 0.9985 0.0463
vn -0 0.9986 0.0526
vn -0 0.3326 -0.9431
vn 0.0018 0.3318 -0.9434
vn 0.0018 0.3318 -0.9434
vn -0 0.3326 -0.9431
vn 0.0428 0.3123 -0.949
vn -0.0432 0.3127 -0.9489
vn 0.0018 0.3318 -0.9434
vn 0.0037 0.3336 -0.9427
vn 0.0597 0.9977 0.033
vn 0.0301 0.9985 0.0463
vn 0.0018 0.3318 -0.9434
vn -0.0432 0.3127 -0.9489
vn -0 0.2716 -0.9624
vn 0.0037 0.3336 -0.9427
vn 0.0432 -0.0104 -0.999
vn -0 0.0328 -0.9995
vn -0 0.0328 -0.9995
vn -0 0.0328 -0.9995
vn 0.0432 -0.0104 -0.999
vn -0.0428 -0.01 -0.999
vn -0 0.0328 -0.9995
vn -0 0.0328 -0.9995
vn -0 0.0328 -0.9995
vn -0.0428 -0.01 -0.999
vn -0.0432 -0.0104 -0.999
vn -0 0.0328 -0.9995
vn -0.1166 0.0327 -0.9926
vn -0.1166 0.0328 -0.9926
vn -0 0.0328 -0.9995
vn -0 0.0328 -0.9995
vn -0.1166 0.0327 -0.9926
vn -0.7035 0.0237 -0.7103
vn -0.7033 0.0237 -0.7105
vn -0.1166 0.0328 -0.9926
vn -0.7035 0.0237 -0.7103
vn -0.9993 0.0014 -0.0378
vn -0.9993 0.001 -0.0378
vn -0.7033 0.0237 -0.7105
vn -0.9993 0.0014 -0.0378
vn -0.9993 -0.001 0.0376
vn -0.9993 -0.001 0.0376
vn -0.9993 0.001 -0.0378
vn -0.9993 -0.001 0.0376
vn -0.7111 -0.0226 0.7027
vn -0.7113 -0.0226 0.7026
vn -0.9993 -0.001 0.0376
vn -0.7111 -0.0226 0.7027
vn -0.1186 -0.0324 0.9924
vn -0.1186 -0.0324 0.9924
vn -0.7113 -0.0226 0.7026
vn -0 -0.0328 0.9995
vn -0 -0.0328 0.9995
vn -0.1186 -0.0324 0.9924
vn -0.1186 -0.0324 0.9924
vn -0 -0.0328 0.9995
vn -0 -0.0328 0.9995
vn -0 -0.0328 0.9995
vn 0.0682 -0.1008 0.9926
vn -0 -0.0328 0.9995
vn -0 -0.0328 0.9995
vn -0.0677 -0.1003 0.9927
vn 0.0682 -0.1008 0.9926
vn -0.0677 -0.1003 0.9927
vn -0 -0.0328 0.9995
vn -0 -0.0328 0.9995
vn -0.0682 -0.1009 0.9926
vn -0.0682 -0.1009 0.9926
vn -0 -0.0328 0.9995
vn -0 -0.0328 0.9995
vn -0 -0.0328 0.9995
vn 0.1186 -0.0325 0.9924
vn 0.1186 -0.0324 0.9924
vn -0 -0.0328 0.9995
vn -0 -0.0328 0.9995
vn 0.1186 -0.0325 0.9924
vn 0.7111 -0.0226 0.7027
vn 0.7113 -0.0226 0.7026
vn 0.1186 -0.0324 0.9924
vn 0.088 0.3485 0.9332
vn 0.6556 0.3814 0.6517
vn 0.0791 0.3972 0.9143
vn 0.0791 0.3972 0.9143
vn -0.0041 0.3902 0.9207
vn -0 0.3366 0.9416
vn 0.088 0.3485 0.9332
vn -0.002 0.3889 0.9213
vn 0.0683 0.3993 0.9143
vn -0 0.3366 0.9416
vn -0.0041 0.3902 0.9207
vn -0.0714 0.9973 -0.019
vn -0.0354 0.999 -0.0282
vn -0.002 0.3889 0.9213
vn -0.0041 0.3902 0.9207
vn -0.0847 0.9963 -0.0146
vn -0.0714 0.9973 -0.019
vn -0.0041 0.3902 0.9207
vn 0.0791 0.3972 0.9143
vn -0 0.9995 -0.0325
vn -0 0.3897 0.9209
vn -0.002 0.3889 0.9213
vn -0.0354 0.999 -0.0282
vn -0 0.3897 0.9209
vn 0.0676 0.3987 0.9146
vn 0.0683 0.3993 0.9143
vn -0.002 0.3889 0.9213
vn 0.002 0.3889 0.9213
vn -0 0.3897 0.9209
vn -0 0.9995 -0.0325
vn 0.0354 0.999 -0.0282
vn -0.0694 0.4004 0.9137
vn 0.0676 0.3987 0.9146
vn -0 0.3897 0.9209
vn 0.002 0.3889 0.9213
vn 0.0354 0.999 -0.0282
vn 0.0714 0.9973 -0.019
vn 0.0041 0.3902 0.9207
vn 0.002 0.3889 0.9213
vn 0.0041 0.3902 0.9207
vn -0 0.3366 0.9416
vn -0.0694 0.4004 0.9137
vn 0.002 0.3889 0.9213
vn 0.0714 0.9973 -0.019
vn 0.0847 0.9963 -0.0146
vn -0.0792 0.3972 0.9143
vn 0.0041 0.3902 0.9207
vn 0.0041 0.3902 0.9207
vn -0.0792 0.3972 0.9143
vn -0.0885 0.3486 0.9331
vn -0 0.3366 0.9416
vn 0.0847 0.9963 -0.0146
vn 0.0834 0.9965 -0.0067
vn -0.9516 0.3071 0.0059
vn -0.0792 0.3972 0.9143
vn -0.9514 0.3079 0.0095
vn -0.6556 0.3814 0.6517
vn -0.0792 0.3972 0.9143
vn -0.9516 0.3071 0.0059
vn -0.6556 0.3814 0.6517
vn -0.0885 0.3486 0.9331
vn -0.0792 0.3972 0.9143
vn -0.9517 0.307 0.0058
vn -0.9516 0.3071 0.0059
vn 0.0834 0.9965 -0.0067
vn 0.0754 0.997 0.0165
vn -0.9515 0.3077 0.0022
vn -0.9514 0.3079 0.0095
vn -0.9516 0.3071 0.0059
vn -0.9517 0.307 0.0058
vn 0.0754 0.997 0.0165
vn 0.07 0.9972 0.0263
vn -0.0814 0.3424 -0.936
vn -0.9517 0.307 0.0058
vn -0.0907 0.2861 -0.9539
vn -0.6671 0.3495 -0.6578
vn -0.9517 0.307 0.0058
vn -0.0814 0.3424 -0.936
vn -0.6671 0.3495 -0.6578
vn -0.9515 0.3077 0.0022
vn -0.9517 0.307 0.0058
vn 0.07 0.9972 0.0263
vn 0.0597 0.9977 0.033
vn 0.0037 0.3336 -0.9427
vn -0.0814 0.3424 -0.936
vn -0.0814 0.3424 -0.936
vn 0.0037 0.3336 -0.9427
vn -0 0.2716 -0.9624
vn -0.0907 0.2861 -0.9539
vn 0.0754 0.997 0.0165
vn 0.0666 0.9976 0.0202
vn 0.0597 0.9977 0.033
vn 0.07 0.9972 0.0263
vn 0.0326 0.999 0.0298
vn 0.0301 0.9985 0.0463
vn 0.0597 0.9977 0.033
vn 0.0666 0.9976 0.0202
vn 0.0353 0.9993 -0.0113
vn 0.0326 0.999 0.0298
vn 0.0666 0.9976 0.0202
vn 0.0718 0.9974 -0.0074
vn 0.0754 0.997 0.0165
vn 0.0834 0.9965 -0.0067
vn 0.0718 0.9974 -0.0074
vn 0.0666 0.9976 0.0202
vn 0.0354 0.999 -0.0282
vn 0.0353 0.9993 -0.0113
vn 0.0718 0.9974 -0.0074
vn 0.0714 0.9973 -0.019
vn 0.0834 0.9965 -0.0067
vn 0.0847 0.9963 -0.0146
vn 0.0714 0.9973 -0.019
vn 0.0718 0.9974 -0.0074
vn 0.0353 0.9993 -0.0113
vn -0 0.9999 -0.013
vn -0 0.9994 0.0336
vn 0.0326 0.999 0.0298
vn 0.0354 0.999 -0.0282
vn -0 0.9995 -0.0325
vn -0 0.9999 -0.013
vn 0.0353 0.9993 -0.0113
vn -0 0.9999 -0.013
vn -0 0.9995 -0.0325
vn -0.0354 0.999 -0.0282
vn -0.0353 0.9993 -0.0113
vn -0 0.9994 0.0336
vn -0 0.9999 -0.013
vn -0.0353 0.9993 -0.0113
vn -0.0326 0.999 0.0298
vn 0.0326 0.999 0.0298
vn -0 0.9994 0.0336
vn -0 0.9986 0.0526
vn 0.0301 0.9985 0.0463
vn -0 0.9986 0.0526
vn -0 0.9994 0.0336
vn -0.0326 0.999 0.0298
vn -0.03 0.9985 0.0463
vn -0.0718 0.9974 -0.0074
vn -0.0666 0.9976 0.0202
vn -0.0326 0.999 0.0298
vn -0.0353 0.9993 -0.0113
vn -0.0666 0.9976 0.0202
vn -0.0598 0.9977 0.033
vn -0.03 0.9985 0.0463
vn -0.0326 0.999 0.0298
vn -0.0718 0.9974 -0.0074
vn -0.0834 0.9965 -0.0068
vn -0.0755 0.997 0.0164
vn -0.0666 0.9976 0.0202
vn -0.0666 0.9976 0.0202
vn -0.0755 0.997 0.0164
vn -0.0717 0.997 0.0294
vn -0.0598 0.9977 0.033
vn -0.0714 0.9973 -0.019
vn -0.0718 0.9974 -0.0074
vn -0.0353 0.9993 -0.0113
vn -0.0354 0.999 -0.0282
vn -0.0714 0.9973 -0.019
vn -0.0847 0.9963 -0.0146
vn -0.0834 0.9965 -0.0068
vn -0.0718 0.9974 -0.0074
vt 0.091524 0.189773
vt 0.091524 0.187662
vt 0.072768 0.187662
vt 0.072768 0.189773
vt 0.091524 0.187662
vt 0.091524 0.189773
vt 0.101923 0.189704
vt 0.102404 0.187662
vt 0.101923 0.189704
vt 0.105355 0.19093
vt 0.106766 0.189449
vt 0.102404 0.187662
vt 0.105355 0.19093
vt 0.106685 0.194322
vt 0.108573 0.193764
vt 0.106766 0.189449
vt 0.108573 0.193764
vt 0.106685 0.194322
vt 0.106713 0.242292
vt 0.108573 0.242599
vt 0.106774 0.246991
vt 0.108573 0.242599
vt 0.106713 0.242292
vt 0.105467 0.245763
vt 0.105467 0.245763
vt 0.106713 0.242292
vt 0.094355 0.234835
vt 0.091869 0.237512
vt 0.094355 0.234835
vt 0.106713 0.242292
vt 0.106685 0.194322
vt 0.09438 0.199829
vt 0.092886 0.20031
vt 0.092887 0.234274
vt 0.094355 0.234835
vt 0.09438 0.199829
vt 0.092887 0.234274
vt 0.091536 0.235977
vt 0.091869 0.237512
vt 0.094355 0.234835
vt 0.091515 0.198625
vt 0.092886 0.20031
vt 0.09438 0.199829
vt 0.091852 0.197167
vt 0.091852 0.197167
vt 0.09438 0.199829
vt 0.105355 0.19093
vt 0.101923 0.189704
vt 0.09438 0.199829
vt 0.106685 0.194322
vt 0.105355 0.19093
vt 0.080715 0.198423
vt 0.091515 0.198625
vt 0.091852 0.197167
vt 0.081032 0.196965
vt 0.081032 0.196965
vt 0.091852 0.197167
vt 0.101923 0.189704
vt 0.091524 0.189773
vt 0.081032 0.196965
vt 0.067556 0.196806
vt 0.067392 0.198265
vt 0.080715 0.198423
vt 0.081032 0.196965
vt 0.091524 0.189773
vt 0.072768 0.189773
vt 0.067556 0.196806
vt 0.054287 0.196767
vt 0.054287 0.198226
vt 0.067392 0.198265
vt 0.067556 0.196806
vt 0.054287 0.189773
vt 0.054287 0.196767
vt 0.067556 0.196806
vt 0.072768 0.189773
vt 0.041182 0.198265
vt 0.054287 0.198226
vt 0.054287 0.196767
vt 0.041018 0.196806
vt 0.041018 0.196806
vt 0.054287 0.196767
vt 0.054287 0.189773
vt 0.035805 0.189773
vt 0.041018 0.196806
vt 0.027542 0.196965
vt 0.027858 0.198423
vt 0.041182 0.198265
vt 0.041018 0.196806
vt 0.035805 0.189773
vt 0.01705 0.189773
vt 0.027542 0.196965
vt 0.035805 0.189773
vt 0.035805 0.187662
vt 0.01705 0.187662
vt 0.01705 0.189773
vt 0.035805 0.189773
vt 0.054287 0.189773
vt 0.054287 0.187662
vt 0.035805 0.187662
vt 0.054287 0.187662
vt 0.054287 0.189773
vt 0.072768 0.189773
vt 0.072768 0.187662
vt 0.00617 0.187662
vt 0.00665 0.189704
vt 0.01705 0.189773
vt 0.01705 0.187662
vt 0.00617 0.187662
vt 0.001807 0.189449
vt 0.003218 0.19093
vt 0.00665 0.189704
vt 0.001807 0.189449
vt 0 0.193764
vt 0.001888 0.194322
vt 0.003218 0.19093
vt 0 0.193764
vt 0 0.242599
vt 0.00186 0.242292
vt 0.001888 0.194322
vt 0 0.242599
vt 0.001799 0.246991
vt 0.003106 0.245763
vt 0.00186 0.242292
vt 0.001799 0.246991
vt 0.006143 0.24881
vt 0.006533 0.247104
vt 0.003106 0.245763
vt 0.017049 0.24881
vt 0.017049 0.247063
vt 0.006533 0.247104
vt 0.006143 0.24881
vt 0.017049 0.247063
vt 0.017049 0.24881
vt 0.035805 0.24881
vt 0.035805 0.247063
vt 0.035805 0.24881
vt 0.054287 0.24881
vt 0.054287 0.247063
vt 0.035805 0.247063
vt 0.054287 0.247063
vt 0.054287 0.24881
vt 0.072768 0.24881
vt 0.072768 0.247063
vt 0.072768 0.247063
vt 0.072768 0.24881
vt 0.091524 0.24881
vt 0.091524 0.247063
vt 0.10243 0.24881
vt 0.10204 0.247104
vt 0.091524 0.247063
vt 0.091524 0.24881
vt 0.10243 0.24881
vt 0.106774 0.246991
vt 0.105467 0.245763
vt 0.10204 0.247104
vt 0.10204 0.247104
vt 0.105467 0.245763
vt 0.091869 0.237512
vt 0.091869 0.237512
vt 0.081013 0.237833
vt 0.091524 0.247063
vt 0.10204 0.247104
vt 0.06755 0.238085
vt 0.072768 0.247063
vt 0.091524 0.247063
vt 0.081013 0.237833
vt 0.080725 0.236297
vt 0.0674 0.236547
vt 0.06755 0.238085
vt 0.081013 0.237833
vt 0.091536 0.235977
vt 0.080725 0.236297
vt 0.081013 0.237833
vt 0.091869 0.237512
vt 0.054287 0.236609
vt 0.054287 0.238147
vt 0.06755 0.238085
vt 0.0674 0.236547
vt 0.054287 0.238147
vt 0.054287 0.247063
vt 0.072768 0.247063
vt 0.06755 0.238085
vt 0.041023 0.238085
vt 0.054287 0.238147
vt 0.054287 0.236609
vt 0.041173 0.236547
vt 0.035805 0.247063
vt 0.054287 0.247063
vt 0.054287 0.238147
vt 0.041023 0.238085
vt 0.041173 0.236547
vt 0.027848 0.236297
vt 0.02756 0.237833
vt 0.041023 0.238085
vt 0.02756 0.237833
vt 0.017049 0.247063
vt 0.035805 0.247063
vt 0.041023 0.238085
vt 0.027848 0.236297
vt 0.017038 0.235977
vt 0.016705 0.237512
vt 0.02756 0.237833
vt 0.02756 0.237833
vt 0.016705 0.237512
vt 0.006533 0.247104
vt 0.017049 0.247063
vt 0.017038 0.235977
vt 0.015686 0.234274
vt 0.014218 0.234835
vt 0.016705 0.237512
vt 0.00186 0.242292
vt 0.003106 0.245763
vt 0.016705 0.237512
vt 0.014218 0.234835
vt 0.003106 0.245763
vt 0.006533 0.247104
vt 0.016705 0.237512
vt 0.014193 0.199829
vt 0.014218 0.234835
vt 0.015686 0.234274
vt 0.015687 0.20031
vt 0.001888 0.194322
vt 0.00186 0.242292
vt 0.014218 0.234835
vt 0.014193 0.199829
vt 0.015687 0.20031
vt 0.017059 0.198625
vt 0.016722 0.197167
vt 0.014193 0.199829
vt 0.00665 0.189704
vt 0.003218 0.19093
vt 0.014193 0.199829
vt 0.016722 0.197167
vt 0.003218 0.19093
vt 0.001888 0.194322
vt 0.014193 0.199829
vt 0.017059 0.198625
vt 0.027858 0.198423
vt 0.027542 0.196965
vt 0.016722 0.197167
vt 0.016722 0.197167
vt 0.027542 0.196965
vt 0.01705 0.189773
vt 0.00665 0.189704
vt 0.015687 0.20031
vt 0.027852 0.203966
vt 0.027858 0.198423
vt 0.017059 0.198625
vt 0.041176 0.203872
vt 0.041182 0.198265
vt 0.027858 0.198423
vt 0.027852 0.203966
vt 0.041169 0.230935
vt 0.041176 0.203872
vt 0.027852 0.203966
vt 0.027843 0.230752
vt 0.015687 0.20031
vt 0.015686 0.234274
vt 0.027843 0.230752
vt 0.027852 0.203966
vt 0.041173 0.236547
vt 0.041169 0.230935
vt 0.027843 0.230752
vt 0.027848 0.236297
vt 0.015686 0.234274
vt 0.017038 0.235977
vt 0.027848 0.236297
vt 0.027843 0.230752
vt 0.041169 0.230935
vt 0.054287 0.230979
vt 0.054287 0.20385
vt 0.041176 0.203872
vt 0.041173 0.236547
vt 0.054287 0.236609
vt 0.054287 0.230979
vt 0.041169 0.230935
vt 0.054287 0.230979
vt 0.054287 0.236609
vt 0.0674 0.236547
vt 0.067404 0.230935
vt 0.054287 0.20385
vt 0.054287 0.230979
vt 0.067404 0.230935
vt 0.067398 0.203872
vt 0.041176 0.203872
vt 0.054287 0.20385
vt 0.054287 0.198226
vt 0.041182 0.198265
vt 0.054287 0.198226
vt 0.054287 0.20385
vt 0.067398 0.203872
vt 0.067392 0.198265
vt 0.08073 0.230752
vt 0.080722 0.203966
vt 0.067398 0.203872
vt 0.067404 0.230935
vt 0.080722 0.203966
vt 0.080715 0.198423
vt 0.067392 0.198265
vt 0.067398 0.203872
vt 0.08073 0.230752
vt 0.092887 0.234274
vt 0.092886 0.20031
vt 0.080722 0.203966
vt 0.080722 0.203966
vt 0.092886 0.20031
vt 0.091515 0.198625
vt 0.080715 0.198423
vt 0.080725 0.236297
vt 0.08073 0.230752
vt 0.067404 0.230935
vt 0.0674 0.236547
vt 0.080725 0.236297
vt 0.091536 0.235977
vt 0.092887 0.234274
vt 0.08073 0.230752
s off
f 1/1/1 2/2/2 3/3/3
f 1/1/1 3/3/3 4/4/4
f 5/5/5 6/6/6 7/7/7
f 5/5/5 7/7/7 8/8/8
f 9/9/9 10/10/10 11/11/11
f 9/9/9 11/11/11 12/12/12
f 13/13/13 14/14/14 15/15/15
f 13/13/13 15/15/15 16/16/16
f 17/17/17 18/18/18 19/19/19
f 17/17/17 19/19/19 20/20/20
f 21/21/21 22/22/22 23/23/23
f 21/21/21 23/23/23 24/24/24
f 25/25/25 26/26/26 27/27/27
f 25/25/25 27/27/27 28/28/28
f 29/29/29 30/30/30 31/31/31
f 29/29/29 31/31/31 32/32/32
f 33/33/33 34/34/34 35/35/35
f 33/33/33 35/35/35 36/36/36
f 37/37/37 38/38/38 39/39/39
f 37/37/37 39/39/39 40/40/40
f 41/41/41 42/42/42 43/43/43
f 41/41/41 43/43/43 44/44/44
f 45/45/45 46/46/46 47/47/47
f 45/45/45 47/47/47 48/48/48
f 49/49/49 50/50/50 51/51/51
f 52/52/52 53/53/53 54/54/54
f 52/52/52 54/54/54 55/55/55
f 56/56/56 57/57/57 58/58/58
f 56/56/56 58/58/58 59/59/59
f 60/60/60 61/61/61 62/62/62
f 60/60/60 62/62/62 63/63/63
f 64/64/64 65/65/65 66/66/66
f 64/64/64 66/66/66 67/67/67
f 68/68/68 69/69/69 70/70/70
f 68/68/68 70/70/70 71/71/71
f 72/72/72 73/73/73 74/74/74
f 72/72/72 74/74/74 75/75/75
f 76/76/76 77/77/77 78/78/78
f 76/76/76 78/78/78 79/79/79
f 80/80/80 81/81/81 82/82/82
f 80/80/80 82/82/82 83/83/83
f 84/84/84 85/85/85 86/86/86
f 84/84/84 86/86/86 87/87/87
f 88/88/88 89/89/89 90/90/90
f 88/88/88 90/90/90 91/91/91
f 92/92/92 93/93/93 94/94/94
f 92/92/92 94/94/94 95/95/95
f 96/96/96 97/97/97 98/98/98
f 96/96/96 98/98/98 99/99/99
f 100/100/100 101/101/101 102/102/102
f 100/100/100 102/102/102 103/103/103
f 104/104/104 105/105/105 106/106/106
f 104/104/104 106/106/106 107/107/107
f 108/108/108 109/109/109 110/110/110
f 108/108/108 110/110/110 111/111/111
f 112/112/112 113/113/113 114/114/114
f 112/112/112 114/114/114 115/115/115
f 116/116/116 117/117/117 118/118/118
f 116/116/116 118/118/118 119/119/119
f 120/120/120 121/121/121 122/122/122
f 120/120/120 122/122/122 123/123/123
f 124/124/124 125/125/125 126/126/126
f 124/124/124 126/126/126 127/127/127
f 128/128/128 129/129/129 130/130/130
f 128/128/128 130/130/130 131/131/131
f 132/132/132 133/133/133 134/134/134
f 132/132/132 134/134/134 135/135/135
f 136/136/136 137/137/137 138/138/138
f 136/136/136 138/138/138 139/139/139
f 140/140/140 141/141/141 142/142/142
f 140/140/140 142/142/142 143/143/143
f 144/144/144 145/145/145 146/146/146
f 144/144/144 146/146/146 147/147/147
f 148/148/148 149/149/149 150/150/150
f 148/148/148 150/150/150 151/151/151
f 152/152/152 153/153/153 154/154/154
f 152/152/152 154/154/154 155/155/155
f 156/156/156 157/157/157 158/158/158
f 159/159/159 160/160/160 161/161/161
f 159/159/159 161/161/161 162/162/162
f 163/163/163 164/164/164 165/165/165
f 163/163/163 165/165/165 166/166/166
f 167/167/167 168/168/168 169/169/169
f 167/167/167 169/169/169 170/170/170
f 171/171/171 172/172/172 173/173/173
f 171/171/171 173/173/173 174/174/174
f 175/175/175 176/176/176 177/177/177
f 175/175/175 177/177/177 178/178/178
f 179/179/179 180/180/180 181/181/181
f 179/179/179 181/181/181 182/182/182
f 183/183/183 184/184/184 185/185/185
f 183/183/183 185/185/185 186/186/186
f 187/187/187 188/188/188 189/189/189
f 187/187/187 189/189/189 190/190/190
f 191/191/191 192/192/192 193/193/193
f 191/191/191 193/193/193 194/194/194
f 195/195/195 196/196/196 197/197/197
f 195/195/195 197/197/197 198/198/198
f 199/199/199 200/200/200 201/201/201
f 199/199/199 201/201/201 202/202/202
f 203/203/203 204/204/204 205/205/205
f 203/203/203 205/205/205 206/206/206
f 207/207/207 208/208/208 209/209/209
f 207/207/207 209/209/209 210/210/210
f 211/211/211 212/212/212 213/213/213
f 211/211/211 213/213/213 214/214/214
f 215/215/215 216/216/216 217/217/217
f 218/218/218 219/219/219 220/220/220
f 218/218/218 220/220/220 221/221/221
f 222/222/222 223/223/223 224/224/224
f 222/222/222 224/224/224 225/225/225
f 226/226/226 227/227/227 228/228/228
f 226/226/226 228/228/228 229/229/229
f 230/230/230 231/231/231 232/232/232
f 230/230/230 232/232/232 233/233/233
f 234/234/234 235/235/235 236/236/236
f 237/237/237 238/238/238 239/239/239
f 237/237/237 239/239/239 240/240/240
f 241/241/241 242/242/242 243/243/243
f 241/241/241 243/243/243 244/244/244
f 245/245/245 246/246/246 247/247/247
f 245/245/245 247/247/247 248/248/248
f 249/249/249 250/250/250 251/251/251
f 249/249/249 251/251/251 252/252/252
f 253/253/253 254/254/254 255/255/255
f 253/253/253 255/255/255 256/256/256
f 257/257/257 258/258/258 259/259/259
f 257/257/257 259/259/259 260/260/260
f 261/261/261 262/262/262 263/263/263
f 261/261/261 263/263/263 264/264/264
f 265/265/265 266/266/266 267/267/267
f 265/265/265 267/267/267 268/268/268
f 269/269/269 270/270/270 271/271/271
f 269/269/269 271/271/271 272/272/272
f 273/273/273 274/274/274 275/275/275
f 273/273/273 275/275/275 276/276/276
f 277/277/277 278/278/278 279/279/279
f 277/277/277 279/279/279 280/280/280
f 281/281/281 282/282/282 283/283/283
f 281/281/281 283/283/283 284/284/284
f 285/285/285 286/286/286 287/287/287
f 285/285/285 287/287/287 288/288/288
f 289/289/289 290/290/290 291/291/291
f 289/289/289 291/291/291 292/292/292
f 293/293/293 294/294/294 295/295/295
f 293/293/293 295/295/295 296/296/296
f 297/297/297 298/298/298 299/299/299
f 297/297/297 299/299/299 300/300/300
f 301/301/301 302/302/302 303/303/303
f 301/301/301 303/303/303 304/304/304
f 305/305/305 306/306/306 307/307/307
f 305/305/305 307/307/307 308/308/308
f 309/309/309 310/310/310 311/311/311
f 309/309/309 311/311/311 312/312/312
f 313/313/313 314/314/314 315/315/315
f 313/313/313 315/315/315 316/316/316
