v -0.992077 0.170983 0.03699
v -0.989046 0.170755 0.034353
v -0.990895 0.170924 0.03135
v -0.945851 0.167809 0.05604
v -0.942999 0.167673 0.054833
v -0.94472 0.167784 0.052644
v -0.918262 0.167389 0.041332
v -0.915546 0.167345 0.042048
v -0.91582 0.167383 0.038705
v -0.968425 0.168955 0.069317
v -0.972636 0.169203 0.069607
v -0.968776 0.168959 0.071872
v -0.926668 0.167277 0.063464
v -0.929558 0.167429 0.052372
v -0.929558 0.167227 0.07229
v -0.957755 0.168348 0.065207
v -0.954495 0.168176 0.06413
v -0.957237 0.168335 0.062609
v -0.935471 0.167461 0.057028
v -0.935586 0.167498 0.053529
v -0.938639 0.167525 0.054921
v -0.956084 0.168229 0.068239
v -0.959151 0.168416 0.067512
v -0.959347 0.168404 0.071092
v -0.919817 0.167361 0.04613
v -0.920277 0.167393 0.043651
v -0.922489 0.167418 0.044088
v -0.9309 0.167532 0.044048
v -0.928802 0.16749 0.045372
v -0.929881 0.167539 0.041936
v -0.936625 0.167738 0.031347
v -0.933473 0.167668 0.034045
v -0.933958 0.167709 0.030678
v -0.929933 0.167618 0.034239
v -0.927085 0.167591 0.033177
v -0.927515 0.167621 0.030814
v -0.989243 0.17075 0.037432
v -0.992077 0.170983 0.03699
v -0.9906 0.170832 0.04174
v -0.938236 0.167816 0.029666
v -0.935131 0.167829 0.028746
v -0.937216 0.167939 0.027191
v -0.947737 0.167926 0.054156
v -0.945851 0.167809 0.05604
v -0.94472 0.167784 0.052644
v -0.967207 0.169094 0.039015
v -0.968223 0.169127 0.041202
v -0.957677 0.168575 0.041202
v -0.928802 0.16749 0.045372
v -0.925966 0.167468 0.043831
v -0.929881 0.167539 0.041936
v -0.918771 0.167383 0.042613
v -0.920277 0.167393 0.043651
v -0.917273 0.167341 0.044752
v -0.943169 0.167503 0.072344
v -0.940307 0.167395 0.069922
v -0.943852 0.167568 0.069506
v -0.936625 0.167738 0.031347
v -0.935131 0.167829 0.028746
v -0.938236 0.167816 0.029666
v -0.975798 0.169635 0.041594
v -0.977404 0.169756 0.042947
v -0.973837 0.169464 0.043482
v -0.988401 0.170665 0.040074
v -0.9906 0.170832 0.04174
v -0.986827 0.170524 0.042088
v -0.975776 0.169702 0.031095
v -0.973922 0.169594 0.029327
v -0.975891 0.169795 0.027597
v -0.9733 0.169403 0.046201
v -0.97041 0.169224 0.046201
v -0.968223 0.169127 0.041202
v -0.957677 0.168575 0.041202
v -0.955491 0.168411 0.046201
v -0.952522 0.168256 0.046201
v -0.961505 0.169026 0.026361
v -0.958615 0.168646 0.039015
v -0.952522 0.168256 0.046201
v -0.964317 0.169173 0.026361
v -0.962911 0.169002 0.029251
v -0.961505 0.169026 0.026361
v -0.936284 0.167657 0.038868
v -0.939712 0.167715 0.037694
v -0.939805 0.167691 0.040212
v -0.934665 0.167652 0.037236
v -0.93731 0.167698 0.036189
v -0.936284 0.167657 0.038868
v -0.977404 0.169756 0.042947
v -0.978239 0.169802 0.046227
v -0.973837 0.169464 0.043482
v -0.949554 0.168412 0.026361
v -0.946742 0.168041 0.037765
v -0.946742 0.168171 0.028861
v -0.94047 0.167884 0.028891
v -0.940207 0.168015 0.026394
v -0.946742 0.168171 0.028861
v -0.930329 0.167658 0.030875
v -0.929933 0.167618 0.034239
v -0.927515 0.167621 0.030814
v -0.971447 0.169152 0.066622
v -0.975346 0.169446 0.064856
v -0.972636 0.169203 0.069607
v -0.987516 0.170452 0.069791
v -0.976815 0.169515 0.07229
v -0.976815 0.169532 0.069791
v -0.961337 0.168625 0.055419
v -0.958319 0.168477 0.054159
v -0.96226 0.168701 0.052335
v -0.975346 0.169446 0.064856
v -0.972652 0.169246 0.06309
v -0.975303 0.169474 0.059932
v -0.957237 0.168335 0.062609
v -0.954495 0.168176 0.06413
v -0.954611 0.168228 0.059603
v -0.961337 0.168535 0.069165
v -0.959347 0.168404 0.071092
v -0.959151 0.168416 0.067512
v -0.959151 0.168416 0.067512
v -0.956084 0.168229 0.068239
v -0.957755 0.168348 0.065207
v -0.933517 0.167309 0.069433
v -0.937098 0.167363 0.06888
v -0.937992 0.167341 0.07217
v -0.935492 0.167355 0.067527
v -0.937098 0.167363 0.06888
v -0.933517 0.167309 0.069433
v -0.935471 0.167461 0.057028
v -0.933617 0.167454 0.05526
v -0.935586 0.167498 0.053529
v -0.929558 0.167227 0.07229
v -0.926668 0.167183 0.07229
v -0.926668 0.16724 0.067135
v -0.923075 0.167227 0.063386
v -0.926668 0.167277 0.063464
v -0.926668 0.16724 0.067135
v -0.929558 0.167429 0.052372
v -0.926668 0.167277 0.063464
v -0.926668 0.16739 0.052372
v -0.928802 0.16749 0.045372
v -0.924572 0.167421 0.04656
v -0.925966 0.167468 0.043831
v -0.951541 0.168017 0.064704
v -0.948957 0.167918 0.061197
v -0.951479 0.168062 0.059932
v -0.922056 0.167664 0.028533
v -0.918795 0.167728 0.026708
v -0.921907 0.167805 0.026133
v -0.989243 0.17075 0.037432
v -0.9906 0.170832 0.04174
v -0.988401 0.170665 0.040074
v -0.975776 0.169702 0.031095
v -0.975891 0.169795 0.027597
v -0.978944 0.169973 0.028988
v -0.943852 0.167568 0.069506
v -0.94722 0.167729 0.070851
v -0.943169 0.167503 0.072344
v -0.959347 0.168404 0.071092
v -0.961337 0.168535 0.069165
v -0.963909 0.168665 0.072526
v -0.929189 0.167769 0.0284
v -0.927515 0.167621 0.030814
v -0.925573 0.167691 0.028879
v -0.924765 0.167546 0.034489
v -0.927274 0.167559 0.036533
v -0.9205 0.167449 0.038454
v -0.972652 0.169246 0.06309
v -0.975346 0.169446 0.064856
v -0.971447 0.169152 0.066622
v -0.939712 0.167715 0.037694
v -0.936284 0.167657 0.038868
v -0.93731 0.167698 0.036189
v -0.986156 0.170549 0.030107
v -0.983304 0.170326 0.0289
v -0.985025 0.170489 0.026712
v -0.916351 0.167624 0.027906
v -0.919251 0.167589 0.029163
v -0.917289 0.167502 0.030172
v -0.929189 0.167769 0.0284
v -0.930329 0.167658 0.030875
v -0.927515 0.167621 0.030814
v -0.972223 0.169244 0.059595
v -0.973614 0.169363 0.05606
v -0.975303 0.169474 0.059932
v -0.949789 0.167889 0.068337
v -0.948599 0.167862 0.064883
v -0.951541 0.168017 0.064704
v -0.917273 0.167341 0.044752
v -0.915546 0.167345 0.042048
v -0.918771 0.167383 0.042613
v -0.946742 0.168016 0.040265
v -0.949554 0.168102 0.046201
v -0.946742 0.167955 0.046201
v -0.936431 0.167703 0.034532
v -0.934665 0.167652 0.037236
v -0.933473 0.167668 0.034045
v -0.970965 0.169184 0.057377
v -0.973614 0.169363 0.05606
v -0.972223 0.169244 0.059595
v -0.988042 0.170714 0.028223
v -0.986156 0.170549 0.030107
v -0.985025 0.170489 0.026712
v -0.925573 0.167691 0.028879
v -0.922056 0.167664 0.028533
v -0.92623 0.167844 0.026452
v -0.952522 0.168256 0.046201
v -0.958615 0.168646 0.039015
v -0.957677 0.168575 0.041202
v -0.963743 0.168773 0.054651
v -0.96226 0.168701 0.052335
v -0.966711 0.168965 0.05222
v -0.984019 0.170269 0.046341
v -0.980612 0.170009 0.043989
v -0.984157 0.170298 0.043574
v -0.966701 0.168948 0.054774
v -0.969806 0.169143 0.053151
v -0.96887 0.169071 0.055575
v -0.948599 0.167862 0.064883
v -0.949789 0.167889 0.068337
v -0.946857 0.167742 0.06777
v -0.951541 0.168017 0.064704
v -0.948599 0.167862 0.064883
v -0.948957 0.167918 0.061197
v -0.959151 0.168491 0.057072
v -0.956271 0.168349 0.056247
v -0.958319 0.168477 0.054159
v -0.936431 0.167703 0.034532
v -0.933473 0.167668 0.034045
v -0.936625 0.167738 0.031347
v -0.96226 0.168701 0.052335
v -0.963743 0.168773 0.054651
v -0.961337 0.168625 0.055419
v -0.961337 0.168625 0.055419
v -0.959151 0.168491 0.057072
v -0.958319 0.168477 0.054159
v -0.943852 0.167568 0.069506
v -0.946857 0.167742 0.06777
v -0.94722 0.167729 0.070851
v -0.942999 0.167673 0.054833
v -0.938639 0.167525 0.054921
v -0.940085 0.167574 0.052058
v -0.956084 0.168229 0.068239
v -0.954495 0.168176 0.06413
v -0.957755 0.168348 0.065207
v -0.968425 0.168955 0.069317
v -0.968776 0.168959 0.071872
v -0.963909 0.168665 0.072526
v -0.964143 0.168696 0.070002
v -0.966701 0.168948 0.054774
v -0.966711 0.168965 0.05222
v -0.969806 0.169143 0.053151
v -0.917131 0.167417 0.037118
v -0.918632 0.167409 0.039859
v -0.91582 0.167383 0.038705
v -0.924572 0.167421 0.04656
v -0.922489 0.167418 0.044088
v -0.925966 0.167468 0.043831
v -0.959151 0.168491 0.057072
v -0.957661 0.168387 0.059595
v -0.956271 0.168349 0.056247
v -0.915888 0.167239 0.052372
v -0.9212 0.167221 0.061354
v -0.912686 0.16719 0.052372
v -0.988042 0.170714 0.028223
v -0.990895 0.170924 0.03135
v -0.988112 0.170694 0.03212
v -0.986156 0.170549 0.030107
v -0.969806 0.169143 0.053151
v -0.973614 0.169363 0.05606
v -0.970965 0.169184 0.057377
v -0.96887 0.169071 0.055575
v -0.992077 0.170983 0.03699
v -0.989243 0.17075 0.037432
v -0.989046 0.170755 0.034353
v -0.918795 0.167728 0.026708
v -0.919251 0.167589 0.029163
v -0.916351 0.167624 0.027906
v -0.940207 0.168015 0.026394
v -0.94047 0.167884 0.028891
v -0.938236 0.167816 0.029666
v -0.937216 0.167939 0.027191
v -0.980612 0.170009 0.043989
v -0.984019 0.170269 0.046341
v -0.978239 0.169802 0.046227
v -0.912139 0.166964 0.07229
v -0.9212 0.167221 0.061354
v -0.915498 0.167014 0.07229
v -0.983304 0.170326 0.0289
v -0.978944 0.169973 0.028988
v -0.98039 0.170172 0.026125
v -0.967207 0.169094 0.039015
v -0.962911 0.169002 0.029251
v -0.964317 0.169173 0.026361
v -0.9733 0.169403 0.046201
v -0.919147 0.167455 0.036035
v -0.9205 0.167449 0.038454
v -0.917131 0.167417 0.037118
v -0.929558 0.167227 0.07229
v -0.926668 0.16724 0.067135
v -0.926668 0.167277 0.063464
v -0.978239 0.169802 0.046227
v -0.977404 0.169756 0.042947
v -0.980612 0.170009 0.043989
v -0.98039 0.170172 0.026125
v -0.985025 0.170489 0.026712
v -0.983304 0.170326 0.0289
v -0.936625 0.167738 0.031347
v -0.933958 0.167709 0.030678
v -0.935131 0.167829 0.028746
v -0.929189 0.167769 0.0284
v -0.925573 0.167691 0.028879
v -0.92623 0.167844 0.026452
v -0.989046 0.170755 0.034353
v -0.988112 0.170694 0.03212
v -0.990895 0.170924 0.03135
v -0.922489 0.167418 0.044088
v -0.924572 0.167421 0.04656
v -0.919817 0.167361 0.04613
v -0.927274 0.167559 0.036533
v -0.924765 0.167546 0.034489
v -0.927085 0.167591 0.033177
v -0.937992 0.167341 0.07217
v -0.937098 0.167363 0.06888
v -0.940307 0.167395 0.069922
v -0.961505 0.169026 0.026361
v -0.962911 0.169002 0.029251
v -0.958615 0.168646 0.039015
v -0.950178 0.168027 0.056709
v -0.951479 0.168062 0.059932
v -0.948957 0.167918 0.061197
v -0.947807 0.16789 0.058053
v -0.915546 0.167345 0.042048
v -0.918262 0.167389 0.041332
v -0.918771 0.167383 0.042613
v -0.975303 0.169474 0.059932
v -0.972652 0.169246 0.06309
v -0.972223 0.169244 0.059595
v -0.975891 0.169795 0.027597
v -0.98039 0.170172 0.026125
v -0.978944 0.169973 0.028988
v -0.935586 0.167498 0.053529
v -0.940085 0.167574 0.052058
v -0.938639 0.167525 0.054921
v -0.91582 0.167383 0.038705
v -0.918632 0.167409 0.039859
v -0.918262 0.167389 0.041332
v -0.940307 0.167395 0.069922
v -0.943169 0.167503 0.072344
v -0.937992 0.167341 0.07217
v -0.957661 0.168387 0.059595
v -0.957237 0.168335 0.062609
v -0.954611 0.168228 0.059603
v -0.958615 0.168646 0.039015
v -0.967207 0.169094 0.039015
v -0.957677 0.168575 0.041202
v -0.9879 0.170594 0.044624
v -0.984019 0.170269 0.046341
v -0.984157 0.170298 0.043574
v -0.986827 0.170524 0.042088
v -0.919251 0.167589 0.029163
v -0.918795 0.167728 0.026708
v -0.922056 0.167664 0.028533
v -0.946742 0.168016 0.040265
v -0.939805 0.167691 0.040212
v -0.939712 0.167715 0.037694
v -0.9212 0.167221 0.061354
v -0.923075 0.167227 0.063386
v -0.915498 0.167014 0.07229
v -0.947737 0.167926 0.054156
v -0.950178 0.168027 0.056709
v -0.947807 0.16789 0.058053
v -0.945851 0.167809 0.05604
v -0.946857 0.167742 0.06777
v -0.949789 0.167889 0.068337
v -0.94722 0.167729 0.070851
v -0.917131 0.167417 0.037118
v -0.9205 0.167449 0.038454
v -0.918632 0.167409 0.039859
v -0.92623 0.167844 0.026452
v -0.922056 0.167664 0.028533
v -0.921907 0.167805 0.026133
v -0.963909 0.168665 0.072526
v -0.961337 0.168535 0.069165
v -0.964143 0.168696 0.070002
v -0.940207 0.168015 0.026394
v -0.949554 0.168412 0.026361
v -0.946742 0.168171 0.028861
v -0.927274 0.167559 0.036533
v -0.927085 0.167591 0.033177
v -0.929933 0.167618 0.034239
v -0.939712 0.167715 0.037694
v -0.946742 0.168041 0.037765
v -0.946742 0.168016 0.040265
v -0.920277 0.167393 0.043651
v -0.919817 0.167361 0.04613
v -0.917273 0.167341 0.044752
v -0.966701 0.168948 0.054774
v -0.963743 0.168773 0.054651
v -0.966711 0.168965 0.05222
v -0.986827 0.170524 0.042088
v -0.9906 0.170832 0.04174
v -0.9879 0.170594 0.044624
v -0.946742 0.168041 0.037765
v -0.949554 0.168412 0.026361
v -0.949554 0.168102 0.046201
v -0.946742 0.168016 0.040265
v -0.957661 0.168387 0.059595
v -0.954611 0.168228 0.059603
v -0.956271 0.168349 0.056247
v -0.936431 0.167703 0.034532
v -0.93731 0.167698 0.036189
v -0.934665 0.167652 0.037236
v -0.968425 0.168955 0.069317
v -0.971447 0.169152 0.066622
v -0.972636 0.169203 0.069607
v -0.9733 0.169403 0.046201
v -0.968223 0.169127 0.041202
v -0.967207 0.169094 0.039015
v -0.915888 0.167239 0.052372
v -0.926668 0.167277 0.063464
v -0.923075 0.167227 0.063386
v -0.9212 0.167221 0.061354
v -0.987516 0.170452 0.069791
v -0.990406 0.17072 0.07229
v -0.976815 0.169515 0.07229
v -0.987516 0.170452 0.069791
v -0.990406 0.170748 0.052372
v -0.990406 0.17072 0.07229
v -0.924765 0.167546 0.034489
v -0.9205 0.167449 0.038454
v -0.919147 0.167455 0.036035
v -0.940085 0.167574 0.052058
v -0.94472 0.167784 0.052644
v -0.942999 0.167673 0.054833
v -0.990406 0.170748 0.052372
v -0.987516 0.170452 0.069791
v -0.987516 0.170512 0.052372
vn 0.0806 0.9967 0.0065
vn 0.0806 0.9967 0.0065
vn 0.0806 0.9967 0.0065
vn 0.052 0.9986 0.0102
vn 0.052 0.9986 0.0102
vn 0.052 0.9986 0.0102
vn 0.0135 0.9999 0.0101
vn 0.0135 0.9999 0.0101
vn 0.0135 0.9999 0.0101
vn 0.0592 0.9982 0.0066
vn 0.0592 0.9982 0.0066
vn 0.0592 0.9982 0.0066
vn 0.0135 0.9999 0.0102
vn 0.0135 0.9999 0.0102
vn 0.0135 0.9999 0.0102
vn 0.0546 0.9985 0.0056
vn 0.0546 0.9985 0.0056
vn 0.0546 0.9985 0.0056
vn 0.0135 0.9999 0.0101
vn 0.0135 0.9999 0.0101
vn 0.0135 0.9999 0.0101
vn 0.0592 0.9982 0.0066
vn 0.0592 0.9982 0.0066
vn 0.0592 0.9982 0.0066
vn 0.0135 0.9999 0.0102
vn 0.0135 0.9999 0.0102
vn 0.0135 0.9999 0.0102
vn 0.0135 0.9999 0.0102
vn 0.0135 0.9999 0.0102
vn 0.0135 0.9999 0.0102
vn 0.0135 0.9999 0.0102
vn 0.0135 0.9999 0.0102
vn 0.0135 0.9999 0.0102
vn 0.0135 0.9999 0.0102
vn 0.0135 0.9999 0.0102
vn 0.0135 0.9999 0.0102
vn 0.0807 0.9967 0.0066
vn 0.0807 0.9967 0.0066
vn 0.0807 0.9967 0.0066
vn 0.0122 0.9984 0.0547
vn 0.0122 0.9984 0.0547
vn 0.0122 0.9984 0.0547
vn 0.052 0.9986 0.0102
vn 0.052 0.9986 0.0102
vn 0.052 0.9986 0.0102
vn 0.0523 0.9986 0.0089
vn 0.0523 0.9986 0.0089
vn 0.0523 0.9986 0.0089
vn 0.0134 0.9999 0.0102
vn 0.0134 0.9999 0.0102
vn 0.0134 0.9999 0.0102
vn 0.0135 0.9999 0.0102
vn 0.0135 0.9999 0.0102
vn 0.0135 0.9999 0.0102
vn 0.0472 0.9988 0.0113
vn 0.0472 0.9988 0.0113
vn 0.0472 0.9988 0.0113
vn 0.0076 0.9992 0.0391
vn 0.0076 0.9992 0.0391
vn 0.0076 0.9992 0.0391
vn 0.0807 0.9967 0.0065
vn 0.0807 0.9967 0.0065
vn 0.0807 0.9967 0.0065
vn 0.0806 0.9967 0.0066
vn 0.0806 0.9967 0.0066
vn 0.0806 0.9967 0.0066
vn 0.0812 0.9964 0.0238
vn 0.0812 0.9964 0.0238
vn 0.0812 0.9964 0.0238
vn 0.0616 0.9981 0.0076
vn 0.0616 0.9981 0.0076
vn 0.0616 0.9981 0.0076
vn 0.052 0.9986 0.0102
vn 0.052 0.9986 0.0102
vn 0.052 0.9986 0.0102
vn 0.0391 0.999 0.0211
vn 0.0391 0.999 0.0211
vn 0.0391 0.999 0.0211
vn 0.0521 0.9981 0.0339
vn 0.0521 0.9981 0.0339
vn 0.0521 0.9981 0.0339
vn 0.0135 0.9999 0.0102
vn 0.0135 0.9999 0.0102
vn 0.0135 0.9999 0.0102
vn 0.0134 0.9999 0.0102
vn 0.0134 0.9999 0.0102
vn 0.0134 0.9999 0.0102
vn 0.0806 0.9967 0.0065
vn 0.0806 0.9967 0.0065
vn 0.0806 0.9967 0.0065
vn 0.0727 0.9972 0.0145
vn 0.0727 0.9972 0.0145
vn 0.0727 0.9972 0.0145
vn 0.0454 0.9973 0.0572
vn 0.0454 0.9973 0.0572
vn 0.0454 0.9973 0.0572
vn 0.0135 0.9999 0.0101
vn 0.0135 0.9999 0.0101
vn 0.0135 0.9999 0.0101
vn 0.0702 0.9975 0.011
vn 0.0702 0.9975 0.011
vn 0.0702 0.9975 0.011
vn 0.0857 0.9963 0.0065
vn 0.0857 0.9963 0.0065
vn 0.0857 0.9963 0.0065
vn 0.0527 0.9986 0.0086
vn 0.0527 0.9986 0.0086
vn 0.0527 0.9986 0.0086
vn 0.078 0.9969 0.0065
vn 0.078 0.9969 0.0065
vn 0.078 0.9969 0.0065
vn 0.052 0.9986 0.0102
vn 0.052 0.9986 0.0102
vn 0.052 0.9986 0.0102
vn 0.0592 0.9982 0.0066
vn 0.0592 0.9982 0.0066
vn 0.0592 0.9982 0.0066
vn 0.0592 0.9982 0.0066
vn 0.0592 0.9982 0.0066
vn 0.0592 0.9982 0.0066
vn 0.0135 0.9999 0.0102
vn 0.0135 0.9999 0.0102
vn 0.0135 0.9999 0.0102
vn 0.0135 0.9999 0.0102
vn 0.0135 0.9999 0.0102
vn 0.0135 0.9999 0.0102
vn 0.0134 0.9999 0.0101
vn 0.0134 0.9999 0.0101
vn 0.0134 0.9999 0.0101
vn 0.0149 0.9998 0.011
vn 0.0149 0.9998 0.011
vn 0.0149 0.9998 0.011
vn 0.0144 0.9998 0.0102
vn 0.0144 0.9998 0.0102
vn 0.0144 0.9998 0.0102
vn 0.0134 0.9999 0.0102
vn 0.0134 0.9999 0.0102
vn 0.0134 0.9999 0.0102
vn 0.0134 0.9999 0.0102
vn 0.0134 0.9999 0.0102
vn 0.0134 0.9999 0.0102
vn 0.052 0.9986 0.0102
vn 0.052 0.9986 0.0102
vn 0.052 0.9986 0.0102
vn 0.0135 0.9981 0.0594
vn 0.0135 0.9981 0.0594
vn 0.0135 0.9981 0.0594
vn 0.0807 0.9967 0.0065
vn 0.0807 0.9967 0.0065
vn 0.0807 0.9967 0.0065
vn 0.069 0.9973 0.0242
vn 0.069 0.9973 0.0242
vn 0.069 0.9973 0.0242
vn 0.052 0.9986 0.0101
vn 0.052 0.9986 0.0101
vn 0.052 0.9986 0.0101
vn 0.0593 0.9982 0.0066
vn 0.0593 0.9982 0.0066
vn 0.0593 0.9982 0.0066
vn 0.0146 0.9986 0.051
vn 0.0146 0.9986 0.051
vn 0.0146 0.9986 0.051
vn 0.0135 0.9999 0.0102
vn 0.0135 0.9999 0.0102
vn 0.0135 0.9999 0.0102
vn 0.0746 0.9972 0.0013
vn 0.0746 0.9972 0.0013
vn 0.0746 0.9972 0.0013
vn 0.0135 0.9999 0.0102
vn 0.0135 0.9999 0.0102
vn 0.0135 0.9999 0.0102
vn 0.082 0.9966 0.0099
vn 0.082 0.9966 0.0099
vn 0.082 0.9966 0.0099
vn 0.0135 0.9981 0.0593
vn 0.0135 0.9981 0.0593
vn 0.0135 0.9981 0.0593
vn 0.0143 0.9986 0.0512
vn 0.0143 0.9986 0.0512
vn 0.0143 0.9986 0.0512
vn 0.0751 0.9972 0.0041
vn 0.0751 0.9972 0.0041
vn 0.0751 0.9972 0.0041
vn 0.052 0.9986 0.0102
vn 0.052 0.9986 0.0102
vn 0.052 0.9986 0.0102
vn 0.0134 0.9999 0.0102
vn 0.0134 0.9999 0.0102
vn 0.0134 0.9999 0.0102
vn 0.052 0.9986 0.0102
vn 0.052 0.9986 0.0102
vn 0.052 0.9986 0.0102
vn 0.0135 0.9999 0.0102
vn 0.0135 0.9999 0.0102
vn 0.0135 0.9999 0.0102
vn 0.0632 0.998 0.0088
vn 0.0632 0.998 0.0088
vn 0.0632 0.998 0.0088
vn 0.0785 0.9969 0.0087
vn 0.0785 0.9969 0.0087
vn 0.0785 0.9969 0.0087
vn 0.0135 0.9981 0.0593
vn 0.0135 0.9981 0.0593
vn 0.0135 0.9981 0.0593
vn 0.052 0.9986 0.0101
vn 0.052 0.9986 0.0101
vn 0.052 0.9986 0.0101
vn 0.0592 0.9982 0.0066
vn 0.0592 0.9982 0.0066
vn 0.0592 0.9982 0.0066
vn 0.0806 0.9967 0.0066
vn 0.0806 0.9967 0.0066
vn 0.0806 0.9967 0.0066
vn 0.0592 0.9982 0.0066
vn 0.0592 0.9982 0.0066
vn 0.0592 0.9982 0.0066
vn 0.052 0.9986 0.0102
vn 0.052 0.9986 0.0102
vn 0.052 0.9986 0.0102
vn 0.052 0.9986 0.0102
vn 0.052 0.9986 0.0102
vn 0.052 0.9986 0.0102
vn 0.052 0.9986 0.0102
vn 0.052 0.9986 0.0102
vn 0.052 0.9986 0.0102
vn 0.0135 0.9999 0.0102
vn 0.0135 0.9999 0.0102
vn 0.0135 0.9999 0.0102
vn 0.0592 0.9982 0.0066
vn 0.0592 0.9982 0.0066
vn 0.0592 0.9982 0.0066
vn 0.0535 0.9985 0.0106
vn 0.0535 0.9985 0.0106
vn 0.0535 0.9985 0.0106
vn 0.052 0.9986 0.0102
vn 0.052 0.9986 0.0102
vn 0.052 0.9986 0.0102
vn 0.0337 0.9994 -0.0001
vn 0.0337 0.9994 -0.0001
vn 0.0337 0.9994 -0.0001
vn 0.0555 0.9984 0.0086
vn 0.0555 0.9984 0.0086
vn 0.0555 0.9984 0.0086
vn 0.0592 0.9982 0.0066
vn 0.0592 0.9982 0.0066
vn 0.0592 0.9982 0.0066
vn 0.0592 0.9982 0.0066
vn 0.0593 0.9982 0.0065
vn 0.0593 0.9982 0.0065
vn 0.0593 0.9982 0.0065
vn 0.0135 0.9999 0.0102
vn 0.0135 0.9999 0.0102
vn 0.0135 0.9999 0.0102
vn 0.0135 0.9999 0.0102
vn 0.0135 0.9999 0.0102
vn 0.0135 0.9999 0.0102
vn 0.052 0.9986 0.0101
vn 0.052 0.9986 0.0101
vn 0.052 0.9986 0.0101
vn 0.0151 0.9998 0.011
vn 0.0151 0.9998 0.011
vn 0.0151 0.9998 0.011
vn 0.0806 0.9967 0.0066
vn 0.0806 0.9967 0.0066
vn 0.0806 0.9967 0.0066
vn 0.0806 0.9967 0.0066
vn 0.0622 0.998 0.0074
vn 0.0622 0.998 0.0074
vn 0.0622 0.998 0.0074
vn 0.0622 0.998 0.0074
vn 0.0807 0.9967 0.0066
vn 0.0807 0.9967 0.0066
vn 0.0807 0.9967 0.0066
vn 0.0135 0.9981 0.0593
vn 0.0135 0.9981 0.0593
vn 0.0135 0.9981 0.0593
vn 0.0113 0.9985 0.054
vn 0.0113 0.9985 0.054
vn 0.0113 0.9985 0.054
vn 0.0113 0.9985 0.054
vn 0.0806 0.9967 0.0066
vn 0.0806 0.9967 0.0066
vn 0.0806 0.9967 0.0066
vn 0.0151 0.9998 0.011
vn 0.0151 0.9998 0.011
vn 0.0151 0.9998 0.011
vn 0.0802 0.9964 0.029
vn 0.0802 0.9964 0.029
vn 0.0802 0.9964 0.029
vn 0.0776 0.9967 0.024
vn 0.0776 0.9967 0.024
vn 0.0776 0.9967 0.024
vn 0.0776 0.9967 0.024
vn 0.0135 0.9999 0.0102
vn 0.0135 0.9999 0.0102
vn 0.0135 0.9999 0.0102
vn 0.0137 0.9999 0.0102
vn 0.0137 0.9999 0.0102
vn 0.0137 0.9999 0.0102
vn 0.0806 0.9967 0.0065
vn 0.0806 0.9967 0.0065
vn 0.0806 0.9967 0.0065
vn 0.0706 0.9973 0.019
vn 0.0706 0.9973 0.019
vn 0.0706 0.9973 0.019
vn 0.0229 0.9986 0.0479
vn 0.0229 0.9986 0.0479
vn 0.0229 0.9986 0.0479
vn 0.0135 0.9981 0.0593
vn 0.0135 0.9981 0.0593
vn 0.0135 0.9981 0.0593
vn 0.0806 0.9967 0.0066
vn 0.0806 0.9967 0.0066
vn 0.0806 0.9967 0.0066
vn 0.0135 0.9999 0.0101
vn 0.0135 0.9999 0.0101
vn 0.0135 0.9999 0.0101
vn 0.0135 0.9999 0.0102
vn 0.0135 0.9999 0.0102
vn 0.0135 0.9999 0.0102
vn 0.0135 0.9999 0.0101
vn 0.0135 0.9999 0.0101
vn 0.0135 0.9999 0.0101
vn 0.0301 0.9993 0.0231
vn 0.0301 0.9993 0.0231
vn 0.0301 0.9993 0.0231
vn 0.052 0.9986 0.0102
vn 0.052 0.9986 0.0102
vn 0.052 0.9986 0.0102
vn 0.052 0.9986 0.0102
vn 0.0135 0.9999 0.0101
vn 0.0135 0.9999 0.0101
vn 0.0135 0.9999 0.0101
vn 0.0756 0.9971 0.0086
vn 0.0756 0.9971 0.0086
vn 0.0756 0.9971 0.0086
vn 0.0728 0.9968 0.0328
vn 0.0728 0.9968 0.0328
vn 0.0728 0.9968 0.0328
vn 0.0135 0.9999 0.0102
vn 0.0135 0.9999 0.0102
vn 0.0135 0.9999 0.0102
vn 0.0134 0.9999 0.0101
vn 0.0134 0.9999 0.0101
vn 0.0134 0.9999 0.0101
vn 0.031 0.9995 -0.0079
vn 0.031 0.9995 -0.0079
vn 0.031 0.9995 -0.0079
vn 0.052 0.9986 0.0101
vn 0.052 0.9986 0.0101
vn 0.052 0.9986 0.0101
vn 0.052 0.9986 0.0102
vn 0.052 0.9986 0.0102
vn 0.052 0.9986 0.0102
vn 0.0807 0.9967 0.0066
vn 0.0807 0.9967 0.0066
vn 0.0807 0.9967 0.0066
vn 0.0807 0.9967 0.0066
vn 0.0135 0.9981 0.0593
vn 0.0135 0.9981 0.0593
vn 0.0135 0.9981 0.0593
vn 0.0469 0.9988 0.0114
vn 0.0469 0.9988 0.0114
vn 0.0469 0.9988 0.0114
vn 0.0151 0.9998 0.011
vn 0.0151 0.9998 0.011
vn 0.0151 0.9998 0.011
vn 0.052 0.9986 0.0101
vn 0.052 0.9986 0.0101
vn 0.052 0.9986 0.0101
vn 0.052 0.9986 0.0101
vn 0.052 0.9986 0.0102
vn 0.052 0.9986 0.0102
vn 0.052 0.9986 0.0102
vn 0.0135 0.9999 0.0102
vn 0.0135 0.9999 0.0102
vn 0.0135 0.9999 0.0102
vn 0.0135 0.9981 0.0594
vn 0.0135 0.9981 0.0594
vn 0.0135 0.9981 0.0594
vn 0.0592 0.9982 0.0066
vn 0.0592 0.9982 0.0066
vn 0.0592 0.9982 0.0066
vn 0.0422 0.9979 0.0489
vn 0.0422 0.9979 0.0489
vn 0.0422 0.9979 0.0489
vn 0.0135 0.9999 0.0102
vn 0.0135 0.9999 0.0102
vn 0.0135 0.9999 0.0102
vn 0.0464 0.9989 0.0102
vn 0.0464 0.9989 0.0102
vn 0.0464 0.9989 0.0102
vn 0.0135 0.9999 0.0102
vn 0.0135 0.9999 0.0102
vn 0.0135 0.9999 0.0102
vn 0.0592 0.9982 0.0065
vn 0.0592 0.9982 0.0065
vn 0.0592 0.9982 0.0065
vn 0.0807 0.9967 0.0065
vn 0.0807 0.9967 0.0065
vn 0.0807 0.9967 0.0065
vn 0.0665 0.9977 0.015
vn 0.0665 0.9977 0.015
vn 0.0665 0.9977 0.015
vn 0.0665 0.9977 0.015
vn 0.052 0.9986 0.0101
vn 0.052 0.9986 0.0101
vn 0.052 0.9986 0.0101
vn 0.0134 0.9999 0.0102
vn 0.0134 0.9999 0.0102
vn 0.0134 0.9999 0.0102
vn 0.0592 0.9982 0.0066
vn 0.0592 0.9982 0.0066
vn 0.0592 0.9982 0.0066
vn 0.0717 0.9973 0.0179
vn 0.0717 0.9973 0.0179
vn 0.0717 0.9973 0.0179
vn 0.0145 0.9998 0.0105
vn 0.0145 0.9998 0.0105
vn 0.0145 0.9998 0.0105
vn 0.0145 0.9998 0.0105
vn 0.0883 0.9961 -0.0046
vn 0.0883 0.9961 -0.0046
vn 0.0883 0.9961 -0.0046
vn 0.0934 0.9956 0.0014
vn 0.0934 0.9956 0.0014
vn 0.0934 0.9956 0.0014
vn 0.0135 0.9999 0.0102
vn 0.0135 0.9999 0.0102
vn 0.0135 0.9999 0.0102
vn 0.0471 0.9988 0.014
vn 0.0471 0.9988 0.014
vn 0.0471 0.9988 0.014
vn 0.0814 0.9967 0.0034
vn 0.0814 0.9967 0.0034
vn 0.0814 0.9967 0.0034
vt 0.01774 0.594156
vt 0.01922 0.592869
vt 0.018317 0.591402
vt 0.040314 0.603459
vt 0.041707 0.60287
vt 0.040866 0.601801
vt 0.053787 0.596277
vt 0.055113 0.596627
vt 0.05498 0.594994
vt 0.02929 0.609943
vt 0.027234 0.610085
vt 0.029119 0.611191
vt 0.049682 0.607085
vt 0.048271 0.601668
vt 0.048271 0.611395
vt 0.034501 0.607936
vt 0.036093 0.60741
vt 0.034754 0.606667
vt 0.045383 0.603942
vt 0.045327 0.602233
vt 0.043836 0.602913
vt 0.035317 0.609417
vt 0.033819 0.609061
vt 0.033723 0.61081
vt 0.053028 0.59862
vt 0.052803 0.597409
vt 0.051723 0.597623
vt 0.047615 0.597603
vt 0.04864 0.59825
vt 0.048113 0.596572
vt 0.04482 0.591401
vt 0.046359 0.592718
vt 0.046122 0.591074
vt 0.048087 0.592813
vt 0.049478 0.592295
vt 0.049268 0.591141
vt 0.019124 0.594372
vt 0.01774 0.594156
vt 0.018461 0.596476
vt 0.044033 0.59058
vt 0.045549 0.590131
vt 0.044531 0.589371
vt 0.039393 0.602539
vt 0.040314 0.603459
vt 0.040866 0.601801
vt 0.029885 0.595145
vt 0.029389 0.596214
vt 0.034539 0.596214
vt 0.04864 0.59825
vt 0.050025 0.597497
vt 0.048113 0.596572
vt 0.053538 0.596902
vt 0.052803 0.597409
vt 0.05427 0.597947
vt 0.041624 0.611421
vt 0.043022 0.610239
vt 0.041291 0.610036
vt 0.04482 0.591401
vt 0.045549 0.590131
vt 0.044033 0.59058
vt 0.02569 0.596405
vt 0.024906 0.597066
vt 0.026647 0.597327
vt 0.019535 0.595662
vt 0.018461 0.596476
vt 0.020304 0.596646
vt 0.0257 0.591278
vt 0.026606 0.590414
vt 0.025644 0.589569
vt 0.02691 0.598655
vt 0.028321 0.598655
vt 0.029389 0.596214
vt 0.034539 0.596214
vt 0.035607 0.598655
vt 0.037056 0.598655
vt 0.032669 0.588966
vt 0.034081 0.595145
vt 0.037056 0.598655
vt 0.031296 0.588966
vt 0.031983 0.590377
vt 0.032669 0.588966
vt 0.044986 0.595074
vt 0.043312 0.5945
vt 0.043267 0.59573
vt 0.045777 0.594277
vt 0.044485 0.593765
vt 0.044986 0.595074
vt 0.024906 0.597066
vt 0.024498 0.598668
vt 0.026647 0.597327
vt 0.038506 0.588966
vt 0.039879 0.594535
vt 0.039879 0.590187
vt 0.042942 0.590201
vt 0.04307 0.588982
vt 0.039879 0.590187
vt 0.047894 0.59117
vt 0.048087 0.592813
vt 0.049268 0.591141
vt 0.027815 0.608627
vt 0.025911 0.607764
vt 0.027234 0.610085
vt 0.019967 0.610174
vt 0.025193 0.611395
vt 0.025193 0.610174
vt 0.032751 0.603156
vt 0.034226 0.602541
vt 0.032301 0.60165
vt 0.025911 0.607764
vt 0.027226 0.606902
vt 0.025931 0.60536
vt 0.034754 0.606667
vt 0.036093 0.60741
vt 0.036036 0.605199
vt 0.032751 0.609869
vt 0.033723 0.61081
vt 0.033819 0.609061
vt 0.033819 0.609061
vt 0.035317 0.609417
vt 0.034501 0.607936
vt 0.046338 0.61
vt 0.044588 0.60973
vt 0.044152 0.611337
vt 0.045373 0.609069
vt 0.044588 0.60973
vt 0.046338 0.61
vt 0.045383 0.603942
vt 0.046289 0.603078
vt 0.045327 0.602233
vt 0.048271 0.611395
vt 0.049682 0.611395
vt 0.049682 0.608878
vt 0.051437 0.607047
vt 0.049682 0.607085
vt 0.049682 0.608878
vt 0.048271 0.601668
vt 0.049682 0.607085
vt 0.049682 0.601668
vt 0.04864 0.59825
vt 0.050705 0.59883
vt 0.050025 0.597497
vt 0.037535 0.607691
vt 0.038797 0.605978
vt 0.037566 0.60536
vt 0.051934 0.590026
vt 0.053527 0.589135
vt 0.052007 0.588855
vt 0.019124 0.594372
vt 0.018461 0.596476
vt 0.019535 0.595662
vt 0.0257 0.591278
vt 0.025644 0.589569
vt 0.024153 0.590249
vt 0.041291 0.610036
vt 0.039646 0.610692
vt 0.041624 0.611421
vt 0.033723 0.61081
vt 0.032751 0.609869
vt 0.031496 0.61151
vt 0.048451 0.589961
vt 0.049268 0.591141
vt 0.050217 0.590196
vt 0.050611 0.592935
vt 0.049386 0.593933
vt 0.052694 0.594872
vt 0.027226 0.606902
vt 0.025911 0.607764
vt 0.027815 0.608627
vt 0.043312 0.5945
vt 0.044986 0.595074
vt 0.044485 0.593765
vt 0.020631 0.590795
vt 0.022024 0.590206
vt 0.021184 0.589137
vt 0.054721 0.58972
vt 0.053304 0.590334
vt 0.054262 0.590827
vt 0.048451 0.589961
vt 0.047894 0.59117
vt 0.049268 0.591141
vt 0.027436 0.605196
vt 0.026756 0.603469
vt 0.025931 0.60536
vt 0.038391 0.609465
vt 0.038972 0.607778
vt 0.037535 0.607691
vt 0.05427 0.597947
vt 0.055113 0.596627
vt 0.053538 0.596902
vt 0.039879 0.595756
vt 0.038506 0.598655
vt 0.039879 0.598655
vt 0.044914 0.592956
vt 0.045777 0.594277
vt 0.046359 0.592718
vt 0.02805 0.604112
vt 0.026756 0.603469
vt 0.027436 0.605196
vt 0.01971 0.589875
vt 0.020631 0.590795
vt 0.021184 0.589137
vt 0.050217 0.590196
vt 0.051934 0.590026
vt 0.049896 0.589011
vt 0.037056 0.598655
vt 0.034081 0.595145
vt 0.034539 0.596214
vt 0.031577 0.602781
vt 0.032301 0.60165
vt 0.030127 0.601594
vt 0.021675 0.598723
vt 0.023339 0.597575
vt 0.021608 0.597371
vt 0.030132 0.602841
vt 0.028616 0.602049
vt 0.029073 0.603232
vt 0.038972 0.607778
vt 0.038391 0.609465
vt 0.039823 0.609188
vt 0.037535 0.607691
vt 0.038972 0.607778
vt 0.038797 0.605978
vt 0.033819 0.603964
vt 0.035225 0.603561
vt 0.034226 0.602541
vt 0.044914 0.592956
vt 0.046359 0.592718
vt 0.04482 0.591401
vt 0.032301 0.60165
vt 0.031577 0.602781
vt 0.032751 0.603156
vt 0.032751 0.603156
vt 0.033819 0.603964
vt 0.034226 0.602541
vt 0.041291 0.610036
vt 0.039823 0.609188
vt 0.039646 0.610692
vt 0.041707 0.60287
vt 0.043836 0.602913
vt 0.04313 0.601515
vt 0.035317 0.609417
vt 0.036093 0.60741
vt 0.034501 0.607936
vt 0.02929 0.609943
vt 0.029119 0.611191
vt 0.031496 0.61151
vt 0.031381 0.610278
vt 0.030132 0.602841
vt 0.030127 0.601594
vt 0.028616 0.602049
vt 0.054339 0.594219
vt 0.053607 0.595558
vt 0.05498 0.594994
vt 0.050705 0.59883
vt 0.051723 0.597623
vt 0.050025 0.597497
vt 0.033819 0.603964
vt 0.034547 0.605195
vt 0.035225 0.603561
vt 0.054946 0.601668
vt 0.052352 0.606055
vt 0.05651 0.601668
vt 0.01971 0.589875
vt 0.018317 0.591402
vt 0.019676 0.591778
vt 0.020631 0.590795
vt 0.028616 0.602049
vt 0.026756 0.603469
vt 0.02805 0.604112
vt 0.029073 0.603232
vt 0.01774 0.594156
vt 0.019124 0.594372
vt 0.01922 0.592869
vt 0.053527 0.589135
vt 0.053304 0.590334
vt 0.054721 0.58972
vt 0.04307 0.588982
vt 0.042942 0.590201
vt 0.044033 0.59058
vt 0.044531 0.589371
vt 0.023339 0.597575
vt 0.021675 0.598723
vt 0.024498 0.598668
vt 0.056777 0.611395
vt 0.052352 0.606055
vt 0.055137 0.611395
vt 0.022024 0.590206
vt 0.024153 0.590249
vt 0.023447 0.588851
vt 0.029885 0.595145
vt 0.031983 0.590377
vt 0.031296 0.588966
vt 0.02691 0.598655
vt 0.053355 0.59369
vt 0.052694 0.594872
vt 0.054339 0.594219
vt 0.048271 0.611395
vt 0.049682 0.608878
vt 0.049682 0.607085
vt 0.024498 0.598668
vt 0.024906 0.597066
vt 0.023339 0.597575
vt 0.023447 0.588851
vt 0.021184 0.589137
vt 0.022024 0.590206
vt 0.04482 0.591401
vt 0.046122 0.591074
vt 0.045549 0.590131
vt 0.048451 0.589961
vt 0.050217 0.590196
vt 0.049896 0.589011
vt 0.01922 0.592869
vt 0.019676 0.591778
vt 0.018317 0.591402
vt 0.051723 0.597623
vt 0.050705 0.59883
vt 0.053028 0.59862
vt 0.049386 0.593933
vt 0.050611 0.592935
vt 0.049478 0.592295
vt 0.044152 0.611337
vt 0.044588 0.60973
vt 0.043022 0.610239
vt 0.032669 0.588966
vt 0.031983 0.590377
vt 0.034081 0.595145
vt 0.038201 0.603786
vt 0.037566 0.60536
vt 0.038797 0.605978
vt 0.039359 0.604442
vt 0.055113 0.596627
vt 0.053787 0.596277
vt 0.053538 0.596902
vt 0.025931 0.60536
vt 0.027226 0.606902
vt 0.027436 0.605196
vt 0.025644 0.589569
vt 0.023447 0.588851
vt 0.024153 0.590249
vt 0.045327 0.602233
vt 0.04313 0.601515
vt 0.043836 0.602913
vt 0.05498 0.594994
vt 0.053607 0.595558
vt 0.053787 0.596277
vt 0.043022 0.610239
vt 0.041624 0.611421
vt 0.044152 0.611337
vt 0.034547 0.605195
vt 0.034754 0.606667
vt 0.036036 0.605199
vt 0.034081 0.595145
vt 0.029885 0.595145
vt 0.034539 0.596214
vt 0.01978 0.597884
vt 0.021675 0.598723
vt 0.021608 0.597371
vt 0.020304 0.596646
vt 0.053304 0.590334
vt 0.053527 0.589135
vt 0.051934 0.590026
vt 0.039879 0.595756
vt 0.043267 0.59573
vt 0.043312 0.5945
vt 0.052352 0.606055
vt 0.051437 0.607047
vt 0.055137 0.611395
vt 0.039393 0.602539
vt 0.038201 0.603786
vt 0.039359 0.604442
vt 0.040314 0.603459
vt 0.039823 0.609188
vt 0.038391 0.609465
vt 0.039646 0.610692
vt 0.054339 0.594219
vt 0.052694 0.594872
vt 0.053607 0.595558
vt 0.049896 0.589011
vt 0.051934 0.590026
vt 0.052007 0.588855
vt 0.031496 0.61151
vt 0.032751 0.609869
vt 0.031381 0.610278
vt 0.04307 0.588982
vt 0.038506 0.588966
vt 0.039879 0.590187
vt 0.049386 0.593933
vt 0.049478 0.592295
vt 0.048087 0.592813
vt 0.043312 0.5945
vt 0.039879 0.594535
vt 0.039879 0.595756
vt 0.052803 0.597409
vt 0.053028 0.59862
vt 0.05427 0.597947
vt 0.030132 0.602841
vt 0.031577 0.602781
vt 0.030127 0.601594
vt 0.020304 0.596646
vt 0.018461 0.596476
vt 0.01978 0.597884
vt 0.039879 0.594535
vt 0.038506 0.588966
vt 0.038506 0.598655
vt 0.039879 0.595756
vt 0.034547 0.605195
vt 0.036036 0.605199
vt 0.035225 0.603561
vt 0.044914 0.592956
vt 0.044485 0.593765
vt 0.045777 0.594277
vt 0.02929 0.609943
vt 0.027815 0.608627
vt 0.027234 0.610085
vt 0.02691 0.598655
vt 0.029389 0.596214
vt 0.029885 0.595145
vt 0.054946 0.601668
vt 0.049682 0.607085
vt 0.051437 0.607047
vt 0.052352 0.606055
vt 0.019967 0.610174
vt 0.018556 0.611395
vt 0.025193 0.611395
vt 0.019967 0.610174
vt 0.018556 0.601668
vt 0.018556 0.611395
vt 0.050611 0.592935
vt 0.052694 0.594872
vt 0.053355 0.59369
vt 0.04313 0.601515
vt 0.040866 0.601801
vt 0.041707 0.60287
vt 0.018556 0.601668
vt 0.019967 0.610174
vt 0.019967 0.601668
s off
f 1/1/1 2/2/2 3/3/3
f 4/4/4 5/5/5 6/6/6
f 7/7/7 8/8/8 9/9/9
f 10/10/10 11/11/11 12/12/12
f 13/13/13 14/14/14 15/15/15
f 16/16/16 17/17/17 18/18/18
f 19/19/19 20/20/20 21/21/21
f 22/22/22 23/23/23 24/24/24
f 25/25/25 26/26/26 27/27/27
f 28/28/28 29/29/29 30/30/30
f 31/31/31 32/32/32 33/33/33
f 34/34/34 35/35/35 36/36/36
f 37/37/37 38/38/38 39/39/39
f 40/40/40 41/41/41 42/42/42
f 43/43/43 44/44/44 45/45/45
f 46/46/46 47/47/47 48/48/48
f 49/49/49 50/50/50 51/51/51
f 52/52/52 53/53/53 54/54/54
f 55/55/55 56/56/56 57/57/57
f 58/58/58 59/59/59 60/60/60
f 61/61/61 62/62/62 63/63/63
f 64/64/64 65/65/65 66/66/66
f 67/67/67 68/68/68 69/69/69
f 70/70/70 71/71/71 72/72/72
f 73/73/73 74/74/74 75/75/75
f 76/76/76 77/77/77 78/78/78
f 79/79/79 80/80/80 81/81/81
f 82/82/82 83/83/83 84/84/84
f 85/85/85 86/86/86 87/87/87
f 88/88/88 89/89/89 90/90/90
f 91/91/91 92/92/92 93/93/93
f 94/94/94 95/95/95 96/96/96
f 97/97/97 98/98/98 99/99/99
f 100/100/100 101/101/101 102/102/102
f 103/103/103 104/104/104 105/105/105
f 106/106/106 107/107/107 108/108/108
f 109/109/109 110/110/110 111/111/111
f 112/112/112 113/113/113 114/114/114
f 115/115/115 116/116/116 117/117/117
f 118/118/118 119/119/119 120/120/120
f 121/121/121 122/122/122 123/123/123
f 124/124/124 125/125/125 126/126/126
f 127/127/127 128/128/128 129/129/129
f 130/130/130 131/131/131 132/132/132
f 133/133/133 134/134/134 135/135/135
f 136/136/136 137/137/137 138/138/138
f 139/139/139 140/140/140 141/141/141
f 142/142/142 143/143/143 144/144/144
f 145/145/145 146/146/146 147/147/147
f 148/148/148 149/149/149 150/150/150
f 151/151/151 152/152/152 153/153/153
f 154/154/154 155/155/155 156/156/156
f 157/157/157 158/158/158 159/159/159
f 160/160/160 161/161/161 162/162/162
f 163/163/163 164/164/164 165/165/165
f 166/166/166 167/167/167 168/168/168
f 169/169/169 170/170/170 171/171/171
f 172/172/172 173/173/173 174/174/174
f 175/175/175 176/176/176 177/177/177
f 178/178/178 179/179/179 180/180/180
f 181/181/181 182/182/182 183/183/183
f 184/184/184 185/185/185 186/186/186
f 187/187/187 188/188/188 189/189/189
f 190/190/190 191/191/191 192/192/192
f 193/193/193 194/194/194 195/195/195
f 196/196/196 197/197/197 198/198/198
f 199/199/199 200/200/200 201/201/201
f 202/202/202 203/203/203 204/204/204
f 205/205/205 206/206/206 207/207/207
f 208/208/208 209/209/209 210/210/210
f 211/211/211 212/212/212 213/213/213
f 214/214/214 215/215/215 216/216/216
f 217/217/217 218/218/218 219/219/219
f 220/220/220 221/221/221 222/222/222
f 223/223/223 224/224/224 225/225/225
f 226/226/226 227/227/227 228/228/228
f 229/229/229 230/230/230 231/231/231
f 232/232/232 233/233/233 234/234/234
f 235/235/235 236/236/236 237/237/237
f 238/238/238 239/239/239 240/240/240
f 241/241/241 242/242/242 243/243/243
f 244/244/244 245/245/245 246/246/246
f 244/244/244 246/246/246 247/247/247
f 248/248/248 249/249/249 250/250/250
f 251/251/251 252/252/252 253/253/253
f 254/254/254 255/255/255 256/256/256
f 257/257/257 258/258/258 259/259/259
f 260/260/260 261/261/261 262/262/262
f 263/263/263 264/264/264 265/265/265
f 263/263/263 265/265/265 266/266/266
f 267/267/267 268/268/268 269/269/269
f 267/267/267 269/269/269 270/270/270
f 271/271/271 272/272/272 273/273/273
f 274/274/274 275/275/275 276/276/276
f 277/277/277 278/278/278 279/279/279
f 277/277/277 279/279/279 280/280/280
f 281/281/281 282/282/282 283/283/283
f 284/284/284 285/285/285 286/286/286
f 287/287/287 288/288/288 289/289/289
f 290/290/290 291/291/291 292/292/292
f 290/290/290 292/292/292 293/293/293
f 294/294/294 295/295/295 296/296/296
f 297/297/297 298/298/298 299/299/299
f 300/300/300 301/301/301 302/302/302
f 303/303/303 304/304/304 305/305/305
f 306/306/306 307/307/307 308/308/308
f 309/309/309 310/310/310 311/311/311
f 312/312/312 313/313/313 314/314/314
f 315/315/315 316/316/316 317/317/317
f 318/318/318 319/319/319 320/320/320
f 321/321/321 322/322/322 323/323/323
f 324/324/324 325/325/325 326/326/326
f 327/327/327 328/328/328 329/329/329
f 327/327/327 329/329/329 330/330/330
f 331/331/331 332/332/332 333/333/333
f 334/334/334 335/335/335 336/336/336
f 337/337/337 338/338/338 339/339/339
f 340/340/340 341/341/341 342/342/342
f 343/343/343 344/344/344 345/345/345
f 346/346/346 347/347/347 348/348/348
f 349/349/349 350/350/350 351/351/351
f 352/352/352 353/353/353 354/354/354
f 355/355/355 356/356/356 357/357/357
f 355/355/355 357/357/357 358/358/358
f 359/359/359 360/360/360 361/361/361
f 362/362/362 363/363/363 364/364/364
f 365/365/365 366/366/366 367/367/367
f 368/368/368 369/369/369 370/370/370
f 368/368/368 370/370/370 371/371/371
f 372/372/372 373/373/373 374/374/374
f 375/375/375 376/376/376 377/377/377
f 378/378/378 379/379/379 380/380/380
f 381/381/381 382/382/382 383/383/383
f 384/384/384 385/385/385 386/386/386
f 387/387/387 388/388/388 389/389/389
f 390/390/390 391/391/391 392/392/392
f 393/393/393 394/394/394 395/395/395
f 396/396/396 397/397/397 398/398/398
f 399/399/399 400/400/400 401/401/401
f 402/402/402 403/403/403 404/404/404
f 402/402/402 404/404/404 405/405/405
f 406/406/406 407/407/407 408/408/408
f 409/409/409 410/410/410 411/411/411
f 412/412/412 413/413/413 414/414/414
f 415/415/415 416/416/416 417/417/417
f 418/418/418 419/419/419 420/420/420
f 418/418/418 420/420/420 421/421/421
f 422/422/422 423/423/423 424/424/424
f 425/425/425 426/426/426 427/427/427
f 428/428/428 429/429/429 430/430/430
f 431/431/431 432/432/432 433/433/433
f 434/434/434 435/435/435 436/436/436
