v 0.19554 0.168125 0.211597
v 0.193434 0.168076 0.208872
v 0.191814 0.168372 0.209631
v 0.192729 0.168633 0.21307
v 0.191396 0.168633 0.211404
v 0.191896 0.168687 0.212547
v 0.194923 0.162421 0.159852
v 0.192033 0.162895 0.16118
v 0.206015 0.162062 0.166726
v 0.192729 0.168633 0.21307
v 0.193517 0.169052 0.217654
v 0.19554 0.168125 0.211597
v 0.19554 0.168125 0.211597
v 0.191814 0.168372 0.209631
v 0.191396 0.168633 0.211404
v 0.194923 0.162421 0.159852
v 0.206015 0.162062 0.166726
v 0.206015 0.161787 0.164148
v 0.192033 0.162597 0.158524
v 0.192033 0.162895 0.16118
v 0.194923 0.162421 0.159852
v 0.193517 0.169052 0.217654
v 0.192729 0.168633 0.21307
v 0.191565 0.169324 0.217654
v 0.206015 0.160871 0.155556
v 0.206015 0.160665 0.152978
v 0.194923 0.162421 0.159852
v 0.192033 0.162597 0.158524
v 0.194923 0.162421 0.159852
v 0.206015 0.160665 0.152978
v 0.19554 0.168125 0.211597
v 0.195036 0.167942 0.209423
v 0.193434 0.168076 0.208872
v 0.19554 0.168125 0.211597
v 0.191396 0.168633 0.211404
v 0.192729 0.168633 0.21307
vn 0.126 0.9853 -0.1153
vn 0.126 0.9853 -0.1153
vn 0.126 0.9853 -0.1153
vn 0.1277 0.9865 -0.1021
vn 0.1277 0.9865 -0.1021
vn 0.1277 0.9865 -0.1021
vn 0.1066 0.987 -0.1203
vn 0.1066 0.987 -0.1203
vn 0.1066 0.987 -0.1203
vn 0.1202 0.9865 -0.1109
vn 0.1202 0.9865 -0.1109
vn 0.1202 0.9865 -0.1109
vn 0.1262 0.9852 -0.1157
vn 0.1262 0.9852 -0.1157
vn 0.1262 0.9852 -0.1157
vn 0.0975 0.9896 -0.1055
vn 0.0975 0.9896 -0.1055
vn 0.0975 0.9896 -0.1055
vn 0.1109 0.9876 -0.111
vn 0.1109 0.9876 -0.111
vn 0.1109 0.9876 -0.111
vn 0.1369 0.9841 -0.1135
vn 0.1369 0.9841 -0.1135
vn 0.1369 0.9841 -0.1135
vn 0.1079 0.991 -0.0791
vn 0.1079 0.991 -0.0791
vn 0.1079 0.991 -0.0791
vn 0.1013 0.9908 -0.0897
vn 0.1013 0.9908 -0.0897
vn 0.1013 0.9908 -0.0897
vn 0.1202 0.9865 -0.1109
vn 0.1202 0.9865 -0.1109
vn 0.1202 0.9865 -0.1109
vn 0.1257 0.987 -0.1005
vn 0.1257 0.987 -0.1005
vn 0.1257 0.987 -0.1005
vt 0.597705 0.679425
vt 0.596676 0.678094
vt 0.595885 0.678465
vt 0.596332 0.680144
vt 0.595681 0.67933
vt 0.595925 0.679889
vt 0.597403 0.654155
vt 0.595992 0.654804
vt 0.60282 0.657512
vt 0.596332 0.680144
vt 0.596717 0.682383
vt 0.597705 0.679425
vt 0.597705 0.679425
vt 0.595885 0.678465
vt 0.595681 0.67933
vt 0.597403 0.654155
vt 0.60282 0.657512
vt 0.60282 0.656253
vt 0.595992 0.653507
vt 0.595992 0.654804
vt 0.597403 0.654155
vt 0.596717 0.682383
vt 0.596332 0.680144
vt 0.595763 0.682383
vt 0.60282 0.652057
vt 0.60282 0.650799
vt 0.597403 0.654155
vt 0.595992 0.653507
vt 0.597403 0.654155
vt 0.60282 0.650799
vt 0.597705 0.679425
vt 0.597458 0.678363
vt 0.596676 0.678094
vt 0.597705 0.679425
vt 0.595681 0.67933
vt 0.596332 0.680144
s off
f 1/1/1 2/2/2 3/3/3
f 4/4/4 5/5/5 6/6/6
f 7/7/7 8/8/8 9/9/9
f 10/10/10 11/11/11 12/12/12
f 13/13/13 14/14/14 15/15/15
f 16/16/16 17/17/17 18/18/18
f 19/19/19 20/20/20 21/21/21
f 22/22/22 23/23/23 24/24/24
f 25/25/25 26/26/26 27/27/27
f 28/28/28 29/29/29 30/30/30
f 31/31/31 32/32/32 33/33/33
f 34/34/34 35/35/35 36/36/36
