v 0.595828 0.120517 0.25807
v 0.595828 0.109254 0.2577
v 0.574387 0.109254 0.2577
v 0.574387 0.120517 0.25807
v 0.595828 0.120517 0.25807
v 0.624134 0.120517 0.25807
v 0.624147 0.109254 0.2577
v 0.595828 0.109254 0.2577
v 0.624134 0.120517 0.25807
v 0.633071 0.120397 0.261697
v 0.633075 0.109135 0.261326
v 0.624147 0.109254 0.2577
v 0.633071 0.120397 0.261697
v 0.636773 0.12011 0.270452
v 0.636773 0.108848 0.270078
v 0.633075 0.109135 0.261326
v 0.636773 0.118468 0.320423
v 0.636773 0.107206 0.320053
v 0.636773 0.108848 0.270078
v 0.636773 0.12011 0.270452
v 0.636773 0.107206 0.320053
v 0.636773 0.118468 0.320423
v 0.636773 0.116836 0.370093
v 0.636773 0.105573 0.369738
v 0.63313 0.105279 0.378695
v 0.636773 0.105573 0.369738
v 0.636773 0.116836 0.370093
v 0.633128 0.116541 0.379061
v 0.633128 0.116541 0.379061
v 0.636773 0.116836 0.370093
v 0.622873 0.174067 0.356607
v 0.617166 0.173793 0.362663
v 0.622873 0.174067 0.356607
v 0.636773 0.116836 0.370093
v 0.636773 0.118468 0.320423
v 0.622989 0.166788 0.315004
v 0.619571 0.168954 0.314672
v 0.619591 0.175928 0.354376
v 0.622873 0.174067 0.356607
v 0.622989 0.166788 0.315004
v 0.619591 0.175928 0.354376
v 0.615104 0.175711 0.359179
v 0.617166 0.173793 0.362663
v 0.622873 0.174067 0.356607
v 0.619562 0.162096 0.274992
v 0.619571 0.168954 0.314672
v 0.622989 0.166788 0.315004
v 0.623153 0.159515 0.273239
v 0.636773 0.118468 0.320423
v 0.636773 0.12011 0.270452
v 0.623153 0.159515 0.273239
v 0.622989 0.166788 0.315004
v 0.614959 0.160511 0.269515
v 0.619562 0.162096 0.274992
v 0.623153 0.159515 0.273239
v 0.617167 0.157537 0.266288
v 0.617167 0.157537 0.266288
v 0.623153 0.159515 0.273239
v 0.633071 0.120397 0.261697
v 0.624134 0.120517 0.25807
v 0.623153 0.159515 0.273239
v 0.636773 0.12011 0.270452
v 0.633071 0.120397 0.261697
v 0.617167 0.157537 0.266288
v 0.595571 0.1558 0.265903
v 0.594706 0.158872 0.269166
v 0.614959 0.160511 0.269515
v 0.617167 0.157537 0.266288
v 0.624134 0.120517 0.25807
v 0.595828 0.120517 0.25807
v 0.595571 0.1558 0.265903
v 0.595571 0.1558 0.265903
v 0.574387 0.155231 0.265776
v 0.574387 0.158334 0.269048
v 0.594706 0.158872 0.269166
v 0.595571 0.1558 0.265903
v 0.595828 0.120517 0.25807
v 0.574387 0.120517 0.25807
v 0.574387 0.155231 0.265776
v 0.554068 0.158872 0.269166
v 0.574387 0.158334 0.269048
v 0.574387 0.155231 0.265776
v 0.553204 0.1558 0.265903
v 0.553204 0.1558 0.265903
v 0.574387 0.155231 0.265776
v 0.574387 0.120517 0.25807
v 0.552946 0.120517 0.25807
v 0.552946 0.120517 0.25807
v 0.574387 0.120517 0.25807
v 0.574387 0.109254 0.2577
v 0.552946 0.109254 0.2577
v 0.552946 0.109254 0.2577
v 0.524627 0.109254 0.2577
v 0.52464 0.120517 0.25807
v 0.552946 0.120517 0.25807
v 0.552946 0.120517 0.25807
v 0.52464 0.120517 0.25807
v 0.531607 0.157537 0.266288
v 0.553204 0.1558 0.265903
v 0.524627 0.109254 0.2577
v 0.515699 0.109135 0.261326
v 0.515703 0.120397 0.261697
v 0.52464 0.120517 0.25807
v 0.52464 0.120517 0.25807
v 0.515703 0.120397 0.261697
v 0.525621 0.159515 0.273239
v 0.531607 0.157537 0.266288
v 0.533815 0.160511 0.269515
v 0.554068 0.158872 0.269166
v 0.553204 0.1558 0.265903
v 0.531607 0.157537 0.266288
v 0.531607 0.157537 0.266288
v 0.525621 0.159515 0.273239
v 0.529212 0.162096 0.274992
v 0.533815 0.160511 0.269515
v 0.525621 0.159515 0.273239
v 0.525785 0.166788 0.315004
v 0.529203 0.168954 0.314672
v 0.529212 0.162096 0.274992
v 0.525621 0.159515 0.273239
v 0.512001 0.12011 0.270452
v 0.512001 0.118468 0.320423
v 0.525785 0.166788 0.315004
v 0.515703 0.120397 0.261697
v 0.512001 0.12011 0.270452
v 0.525621 0.159515 0.273239
v 0.515699 0.109135 0.261326
v 0.512001 0.108848 0.270078
v 0.512001 0.12011 0.270452
v 0.515703 0.120397 0.261697
v 0.512001 0.118468 0.320423
v 0.512001 0.12011 0.270452
v 0.512001 0.108848 0.270078
v 0.512001 0.107206 0.320053
v 0.512001 0.118468 0.320423
v 0.512001 0.107206 0.320053
v 0.512001 0.105573 0.369738
v 0.512001 0.116836 0.370093
v 0.512001 0.118468 0.320423
v 0.512001 0.116836 0.370093
v 0.525901 0.174067 0.356607
v 0.525785 0.166788 0.315004
v 0.515646 0.116541 0.379061
v 0.512001 0.116836 0.370093
v 0.512001 0.105573 0.369738
v 0.515644 0.105279 0.378695
v 0.531608 0.173793 0.362663
v 0.525901 0.174067 0.356607
v 0.512001 0.116836 0.370093
v 0.515646 0.116541 0.379061
v 0.525785 0.166788 0.315004
v 0.525901 0.174067 0.356607
v 0.529183 0.175928 0.354376
v 0.529203 0.168954 0.314672
v 0.525901 0.174067 0.356607
v 0.531608 0.173793 0.362663
v 0.53367 0.175711 0.359179
v 0.529183 0.175928 0.354376
v 0.531608 0.173793 0.362663
v 0.553075 0.171038 0.363629
v 0.553948 0.173163 0.36007
v 0.53367 0.175711 0.359179
v 0.531608 0.173793 0.362663
v 0.524444 0.116419 0.382775
v 0.552946 0.116419 0.382775
v 0.553075 0.171038 0.363629
v 0.524444 0.116419 0.382775
v 0.531608 0.173793 0.362663
v 0.515646 0.116541 0.379061
v 0.524444 0.116419 0.382775
v 0.515646 0.116541 0.379061
v 0.515644 0.105279 0.378695
v 0.524438 0.105157 0.382405
v 0.524438 0.105157 0.382405
v 0.552946 0.105157 0.382405
v 0.552946 0.116419 0.382775
v 0.524444 0.116419 0.382775
v 0.574387 0.116419 0.382775
v 0.552946 0.116419 0.382775
v 0.552946 0.105157 0.382405
v 0.574387 0.105157 0.382405
v 0.574387 0.170126 0.363949
v 0.553075 0.171038 0.363629
v 0.552946 0.116419 0.382775
v 0.574387 0.116419 0.382775
v 0.574387 0.116419 0.382775
v 0.574387 0.105157 0.382405
v 0.595828 0.105157 0.382405
v 0.595828 0.116419 0.382775
v 0.624336 0.105157 0.382405
v 0.62433 0.116419 0.382775
v 0.595828 0.116419 0.382775
v 0.595828 0.105157 0.382405
v 0.624336 0.105157 0.382405
v 0.63313 0.105279 0.378695
v 0.633128 0.116541 0.379061
v 0.62433 0.116419 0.382775
v 0.62433 0.116419 0.382775
v 0.633128 0.116541 0.379061
v 0.617166 0.173793 0.362663
v 0.595828 0.116419 0.382775
v 0.62433 0.116419 0.382775
v 0.617166 0.173793 0.362663
v 0.5957 0.171038 0.363629
v 0.574387 0.170126 0.363949
v 0.574387 0.116419 0.382775
v 0.595828 0.116419 0.382775
v 0.5957 0.171038 0.363629
v 0.594826 0.173163 0.36007
v 0.574387 0.17232 0.360368
v 0.574387 0.170126 0.363949
v 0.5957 0.171038 0.363629
v 0.615104 0.175711 0.359179
v 0.594826 0.173163 0.36007
v 0.5957 0.171038 0.363629
v 0.617166 0.173793 0.362663
v 0.553075 0.171038 0.363629
v 0.574387 0.170126 0.363949
v 0.574387 0.17232 0.360368
v 0.553948 0.173163 0.36007
v 0.594826 0.173163 0.36007
v 0.590451 0.170434 0.34683
v 0.574387 0.169941 0.346971
v 0.574387 0.17232 0.360368
v 0.553948 0.173163 0.36007
v 0.574387 0.17232 0.360368
v 0.574387 0.169941 0.346971
v 0.558323 0.170434 0.34683
v 0.590451 0.170434 0.34683
v 0.591153 0.165285 0.314719
v 0.574387 0.164521 0.314835
v 0.574387 0.169941 0.346971
v 0.574387 0.164521 0.314835
v 0.557621 0.165285 0.314719
v 0.558323 0.170434 0.34683
v 0.574387 0.169941 0.346971
v 0.574387 0.160065 0.282552
v 0.574387 0.164521 0.314835
v 0.591153 0.165285 0.314719
v 0.590432 0.160442 0.282577
v 0.558342 0.160442 0.282577
v 0.557621 0.165285 0.314719
v 0.574387 0.164521 0.314835
v 0.574387 0.160065 0.282552
v 0.542317 0.161751 0.282662
v 0.541414 0.166793 0.314508
v 0.557621 0.165285 0.314719
v 0.558342 0.160442 0.282577
v 0.558323 0.170434 0.34683
v 0.557621 0.165285 0.314719
v 0.541414 0.166793 0.314508
v 0.542351 0.172156 0.346345
v 0.529212 0.162096 0.274992
v 0.529203 0.168954 0.314672
v 0.541414 0.166793 0.314508
v 0.542317 0.161751 0.282662
v 0.529203 0.168954 0.314672
v 0.529183 0.175928 0.354376
v 0.542351 0.172156 0.346345
v 0.541414 0.166793 0.314508
v 0.53367 0.175711 0.359179
v 0.553948 0.173163 0.36007
v 0.558323 0.170434 0.34683
v 0.542351 0.172156 0.346345
v 0.53367 0.175711 0.359179
v 0.542351 0.172156 0.346345
v 0.529183 0.175928 0.354376
v 0.542317 0.161751 0.282662
v 0.558342 0.160442 0.282577
v 0.554068 0.158872 0.269166
v 0.533815 0.160511 0.269515
v 0.542317 0.161751 0.282662
v 0.533815 0.160511 0.269515
v 0.529212 0.162096 0.274992
v 0.558342 0.160442 0.282577
v 0.574387 0.160065 0.282552
v 0.574387 0.158334 0.269048
v 0.554068 0.158872 0.269166
v 0.590432 0.160442 0.282577
v 0.594706 0.158872 0.269166
v 0.574387 0.158334 0.269048
v 0.574387 0.160065 0.282552
v 0.606457 0.161751 0.282662
v 0.614959 0.160511 0.269515
v 0.594706 0.158872 0.269166
v 0.590432 0.160442 0.282577
v 0.590432 0.160442 0.282577
v 0.591153 0.165285 0.314719
v 0.60736 0.166793 0.314508
v 0.606457 0.161751 0.282662
v 0.619562 0.162096 0.274992
v 0.606457 0.161751 0.282662
v 0.60736 0.166793 0.314508
v 0.619571 0.168954 0.314672
v 0.606457 0.161751 0.282662
v 0.619562 0.162096 0.274992
v 0.614959 0.160511 0.269515
v 0.606423 0.172156 0.346345
v 0.60736 0.166793 0.314508
v 0.591153 0.165285 0.314719
v 0.590451 0.170434 0.34683
v 0.606423 0.172156 0.346345
v 0.619591 0.175928 0.354376
v 0.619571 0.168954 0.314672
v 0.60736 0.166793 0.314508
v 0.615104 0.175711 0.359179
v 0.606423 0.172156 0.346345
v 0.590451 0.170434 0.34683
v 0.594826 0.173163 0.36007
v 0.615104 0.175711 0.359179
v 0.619591 0.175928 0.354376
v 0.606423 0.172156 0.346345
vn -0 0.0328 -0.9995
vn -0 0.0328 -0.9995
vn -0 0.0328 -0.9995
vn -0 0.0328 -0.9995
vn -0 0.0328 -0.9995
vn 0.097 0.0327 -0.9947
vn 0.097 0.0329 -0.9947
vn -0 0.0328 -0.9995
vn 0.097 0.0327 -0.9947
vn 0.7001 0.0238 -0.7136
vn 0.7003 0.0237 -0.7135
vn 0.097 0.0329 -0.9947
vn 0.7001 0.0238 -0.7136
vn 0.9978 0.0023 -0.0666
vn 0.9978 0.0022 -0.0666
vn 0.7003 0.0237 -0.7135
vn 1 -0 -0
vn 1 -0 -0
vn 0.9978 0.0022 -0.0666
vn 0.9978 0.0023 -0.0666
vn 1 -0 -0
vn 1 -0 -0
vn 0.9978 -0.0022 0.0658
vn 0.9978 -0.002 0.0658
vn 0.7138 -0.0226 0.7
vn 0.9978 -0.002 0.0658
vn 0.9978 -0.0022 0.0658
vn 0.7138 -0.0226 0.6999
vn 0.6673 0.3473 0.6589
vn 0.9677 0.2518 -0.0121
vn 0.9678 0.2513 -0.0142
vn 0.0757 0.3704 0.9258
vn 0.9678 0.2513 -0.0142
vn 0.9677 0.2518 -0.0121
vn 0.962 0.2725 -0.0153
vn 0.961 0.2762 -0.0161
vn -0.1547 0.974 -0.1653
vn -0.1874 0.9708 -0.1496
vn 0.9678 0.2513 -0.0142
vn 0.961 0.2762 -0.0161
vn -0.1874 0.9708 -0.1496
vn -0.1684 0.9746 -0.1479
vn 0.0757 0.3704 0.9258
vn 0.9678 0.2513 -0.0142
vn -0.1311 0.9767 -0.1699
vn -0.1547 0.974 -0.1653
vn 0.961 0.2762 -0.0161
vn 0.9508 0.3039 -0.0607
vn 0.962 0.2725 -0.0153
vn 0.9504 0.3043 -0.0644
vn 0.9508 0.3039 -0.0607
vn 0.961 0.2762 -0.0161
vn -0.1093 0.9801 -0.1657
vn -0.1311 0.9767 -0.1699
vn 0.9508 0.3039 -0.0607
vn 0.0818 0.2822 -0.9559
vn 0.0818 0.2822 -0.9559
vn 0.9508 0.3039 -0.0607
vn 0.6739 0.3216 -0.6651
vn 0.091 0.2328 -0.9682
vn 0.9508 0.3039 -0.0607
vn 0.9504 0.3043 -0.0644
vn 0.6739 0.3216 -0.6651
vn 0.0818 0.2822 -0.9559
vn -0.0034 0.2754 -0.9613
vn -0.0564 0.9887 -0.1393
vn -0.1093 0.9801 -0.1657
vn 0.0818 0.2822 -0.9559
vn 0.091 0.2328 -0.9682
vn -0 0.2167 -0.9762
vn -0.0034 0.2754 -0.9613
vn -0.0034 0.2754 -0.9613
vn -0.0001 0.2805 -0.9598
vn -0 0.9916 -0.1295
vn -0.0564 0.9887 -0.1393
vn -0.0034 0.2754 -0.9613
vn -0 0.2167 -0.9762
vn -0 0.2167 -0.9762
vn -0.0001 0.2805 -0.9598
vn 0.0563 0.9887 -0.1392
vn -0 0.9916 -0.1295
vn -0.0001 0.2805 -0.9598
vn 0.0034 0.2754 -0.9613
vn 0.0034 0.2754 -0.9613
vn -0.0001 0.2805 -0.9598
vn -0 0.2167 -0.9762
vn -0 0.2167 -0.9762
vn -0 0.0328 -0.9995
vn -0 0.0328 -0.9995
vn -0 0.0328 -0.9995
vn -0 0.0328 -0.9995
vn -0 0.0328 -0.9995
vn -0.097 0.0327 -0.9947
vn -0.097 0.0329 -0.9947
vn -0 0.0328 -0.9995
vn -0 0.2167 -0.9762
vn -0.091 0.2328 -0.9683
vn -0.0818 0.2822 -0.9559
vn 0.0034 0.2754 -0.9613
vn -0.097 0.0327 -0.9947
vn -0.7001 0.0238 -0.7136
vn -0.7001 0.0238 -0.7136
vn -0.097 0.0329 -0.9947
vn -0.091 0.2328 -0.9683
vn -0.674 0.3216 -0.6651
vn -0.9508 0.3039 -0.0607
vn -0.0818 0.2822 -0.9559
vn 0.1093 0.9801 -0.1658
vn 0.0563 0.9887 -0.1392
vn 0.0034 0.2754 -0.9613
vn -0.0818 0.2822 -0.9559
vn -0.0818 0.2822 -0.9559
vn -0.9508 0.3039 -0.0607
vn 0.1311 0.9767 -0.17
vn 0.1093 0.9801 -0.1658
vn -0.9508 0.3039 -0.0607
vn -0.961 0.2762 -0.0162
vn 0.1547 0.974 -0.1654
vn 0.1311 0.9767 -0.17
vn -0.9508 0.3039 -0.0607
vn -0.9504 0.3043 -0.0644
vn -0.962 0.2725 -0.0153
vn -0.961 0.2762 -0.0162
vn -0.674 0.3216 -0.6651
vn -0.9504 0.3043 -0.0644
vn -0.9508 0.3039 -0.0607
vn -0.7001 0.0238 -0.7136
vn -0.9978 0.0023 -0.0666
vn -0.9978 0.0022 -0.0666
vn -0.7001 0.0238 -0.7136
vn -1 -0 -0
vn -0.9978 0.0022 -0.0666
vn -0.9978 0.0023 -0.0666
vn -1 -0 -0
vn -1 -0 -0
vn -1 -0 -0
vn -0.9978 -0.002 0.0658
vn -0.9978 -0.002 0.0658
vn -0.962 0.2725 -0.0153
vn -0.9677 0.2518 -0.0122
vn -0.9678 0.2514 -0.0143
vn -0.961 0.2762 -0.0162
vn -0.7138 -0.0226 0.6999
vn -0.9978 -0.002 0.0658
vn -0.9978 -0.002 0.0658
vn -0.7138 -0.0226 0.7
vn -0.0757 0.3704 0.9258
vn -0.9678 0.2514 -0.0143
vn -0.9677 0.2518 -0.0122
vn -0.6673 0.3473 0.6589
vn -0.961 0.2762 -0.0162
vn -0.9678 0.2514 -0.0143
vn 0.1874 0.9708 -0.1495
vn 0.1547 0.974 -0.1654
vn -0.9678 0.2514 -0.0143
vn -0.0757 0.3704 0.9258
vn 0.1683 0.9746 -0.1479
vn 0.1874 0.9708 -0.1495
vn -0.0757 0.3704 0.9258
vn 0.0038 0.3708 0.9287
vn 0.088 0.9808 -0.1739
vn 0.1683 0.9746 -0.1479
vn -0.0757 0.3704 0.9258
vn -0.0853 0.3392 0.9368
vn -0 0.3308 0.9437
vn 0.0038 0.3708 0.9287
vn -0.0853 0.3392 0.9368
vn -0.0757 0.3704 0.9258
vn -0.6673 0.3473 0.6589
vn -0.0991 -0.0326 0.9945
vn -0.7138 -0.0226 0.6999
vn -0.7138 -0.0226 0.7
vn -0.0991 -0.0325 0.9945
vn -0.0991 -0.0325 0.9945
vn -0 -0.0328 0.9995
vn -0 -0.0328 0.9995
vn -0.0991 -0.0326 0.9945
vn -0 -0.0328 0.9995
vn -0 -0.0328 0.9995
vn -0 -0.0328 0.9995
vn -0 -0.0328 0.9995
vn -0 0.3745 0.9272
vn 0.0038 0.3708 0.9287
vn -0 0.3308 0.9437
vn -0 0.3308 0.9437
vn -0 -0.0328 0.9995
vn -0 -0.0328 0.9995
vn -0 -0.0328 0.9995
vn -0 -0.0328 0.9995
vn 0.0991 -0.0325 0.9945
vn 0.0991 -0.0325 0.9945
vn -0 -0.0328 0.9995
vn -0 -0.0328 0.9995
vn 0.0991 -0.0325 0.9945
vn 0.7138 -0.0226 0.7
vn 0.7138 -0.0226 0.6999
vn 0.0991 -0.0325 0.9945
vn 0.0858 0.3393 0.9368
vn 0.6673 0.3473 0.6589
vn 0.0757 0.3704 0.9258
vn -0 0.3308 0.9437
vn 0.0858 0.3393 0.9368
vn 0.0757 0.3704 0.9258
vn -0.0038 0.3708 0.9287
vn -0 0.3745 0.9272
vn -0 0.3308 0.9437
vn -0 0.3308 0.9437
vn -0.0038 0.3708 0.9287
vn -0.0879 0.9808 -0.1739
vn -0.0004 0.9839 -0.1785
vn -0 0.3745 0.9272
vn -0.0038 0.3708 0.9287
vn -0.1684 0.9746 -0.1479
vn -0.0879 0.9808 -0.1739
vn -0.0038 0.3708 0.9287
vn 0.0757 0.3704 0.9258
vn 0.0038 0.3708 0.9287
vn -0 0.3745 0.9272
vn -0.0004 0.9839 -0.1785
vn 0.088 0.9808 -0.1739
vn -0.0879 0.9808 -0.1739
vn -0.0709 0.9827 -0.1713
vn -0 0.985 -0.1725
vn -0.0004 0.9839 -0.1785
vn 0.088 0.9808 -0.1739
vn -0.0004 0.9839 -0.1785
vn -0 0.985 -0.1725
vn 0.0709 0.9827 -0.1713
vn -0.0709 0.9827 -0.1713
vn -0.066 0.9857 -0.1548
vn -0 0.9883 -0.1526
vn -0 0.985 -0.1725
vn -0 0.9883 -0.1526
vn 0.066 0.9857 -0.1548
vn 0.0709 0.9827 -0.1713
vn -0 0.985 -0.1725
vn -0 0.991 -0.134
vn -0 0.9883 -0.1526
vn -0.066 0.9857 -0.1548
vn -0.0533 0.9888 -0.1392
vn 0.0533 0.9888 -0.1392
vn 0.066 0.9857 -0.1548
vn -0 0.9883 -0.1526
vn -0 0.991 -0.134
vn 0.106 0.9826 -0.1528
vn 0.1267 0.9788 -0.1611
vn 0.066 0.9857 -0.1548
vn 0.0533 0.9888 -0.1392
vn 0.0709 0.9827 -0.1713
vn 0.066 0.9857 -0.1548
vn 0.1267 0.9788 -0.1611
vn 0.1385 0.9761 -0.1678
vn 0.1311 0.9767 -0.17
vn 0.1547 0.974 -0.1654
vn 0.1267 0.9788 -0.1611
vn 0.106 0.9826 -0.1528
vn 0.1547 0.974 -0.1654
vn 0.1874 0.9708 -0.1495
vn 0.1385 0.9761 -0.1678
vn 0.1267 0.9788 -0.1611
vn 0.1683 0.9746 -0.1479
vn 0.088 0.9808 -0.1739
vn 0.0709 0.9827 -0.1713
vn 0.1385 0.9761 -0.1678
vn 0.1683 0.9746 -0.1479
vn 0.1385 0.9761 -0.1678
vn 0.1874 0.9708 -0.1495
vn 0.106 0.9826 -0.1528
vn 0.0533 0.9888 -0.1392
vn 0.0563 0.9887 -0.1392
vn 0.1093 0.9801 -0.1658
vn 0.106 0.9826 -0.1528
vn 0.1093 0.9801 -0.1658
vn 0.1311 0.9767 -0.17
vn 0.0533 0.9888 -0.1392
vn -0 0.991 -0.134
vn -0 0.9916 -0.1295
vn 0.0563 0.9887 -0.1392
vn -0.0533 0.9888 -0.1392
vn -0.0564 0.9887 -0.1393
vn -0 0.9916 -0.1295
vn -0 0.991 -0.134
vn -0.106 0.9826 -0.1528
vn -0.1093 0.9801 -0.1657
vn -0.0564 0.9887 -0.1393
vn -0.0533 0.9888 -0.1392
vn -0.0533 0.9888 -0.1392
vn -0.066 0.9857 -0.1548
vn -0.1267 0.9788 -0.1611
vn -0.106 0.9826 -0.1528
vn -0.1311 0.9767 -0.1699
vn -0.106 0.9826 -0.1528
vn -0.1267 0.9788 -0.1611
vn -0.1547 0.974 -0.1653
vn -0.106 0.9826 -0.1528
vn -0.1311 0.9767 -0.1699
vn -0.1093 0.9801 -0.1657
vn -0.1385 0.9761 -0.1678
vn -0.1267 0.9788 -0.1611
vn -0.066 0.9857 -0.1548
vn -0.0709 0.9827 -0.1713
vn -0.1385 0.9761 -0.1678
vn -0.1874 0.9708 -0.1496
vn -0.1547 0.974 -0.1653
vn -0.1267 0.9788 -0.1611
vn -0.1684 0.9746 -0.1479
vn -0.1385 0.9761 -0.1678
vn -0.0709 0.9827 -0.1713
vn -0.0879 0.9808 -0.1739
vn -0.1684 0.9746 -0.1479
vn -0.1874 0.9708 -0.1496
vn -0.1385 0.9761 -0.1678
vt 0.792159 0.314889
vt 0.792159 0.312771
vt 0.781646 0.312771
vt 0.781646 0.314889
vt 0.792159 0.314889
vt 0.805561 0.31482
vt 0.806045 0.312771
vt 0.792159 0.312771
vt 0.805561 0.31482
vt 0.809008 0.316031
vt 0.810423 0.314548
vt 0.806045 0.312771
vt 0.809008 0.316031
vt 0.810348 0.319405
vt 0.812236 0.31884
vt 0.810423 0.314548
vt 0.810303 0.343541
vt 0.812236 0.343345
vt 0.812236 0.31884
vt 0.810348 0.319405
vt 0.812236 0.343345
vt 0.810303 0.343541
vt 0.810367 0.367405
vt 0.812236 0.367708
vt 0.81045 0.3721
vt 0.812236 0.367708
vt 0.810367 0.367405
vt 0.809142 0.370865
vt 0.809142 0.370865
vt 0.810367 0.367405
vt 0.801676 0.359179
vt 0.799318 0.361681
vt 0.801676 0.359179
vt 0.810367 0.367405
vt 0.810303 0.343541
vt 0.801724 0.341992
vt 0.800312 0.341855
vt 0.80032 0.358257
vt 0.801676 0.359179
vt 0.801724 0.341992
vt 0.80032 0.358257
vt 0.798467 0.360242
vt 0.799318 0.361681
vt 0.801676 0.359179
vt 0.800308 0.325463
vt 0.800312 0.341855
vt 0.801724 0.341992
vt 0.801792 0.324739
vt 0.810303 0.343541
vt 0.810348 0.319405
vt 0.801792 0.324739
vt 0.801724 0.341992
vt 0.798406 0.3232
vt 0.800308 0.325463
vt 0.801792 0.324739
vt 0.799319 0.321867
vt 0.799319 0.321867
vt 0.801792 0.324739
vt 0.809008 0.316031
vt 0.805561 0.31482
vt 0.801792 0.324739
vt 0.810348 0.319405
vt 0.809008 0.316031
vt 0.799319 0.321867
vt 0.790397 0.321708
vt 0.79004 0.323056
vt 0.798406 0.3232
vt 0.799319 0.321867
vt 0.805561 0.31482
vt 0.792159 0.314889
vt 0.790397 0.321708
vt 0.790397 0.321708
vt 0.781646 0.321656
vt 0.781646 0.323007
vt 0.79004 0.323056
vt 0.790397 0.321708
vt 0.792159 0.314889
vt 0.781646 0.314889
vt 0.781646 0.321656
vt 0.773252 0.323056
vt 0.781646 0.323007
vt 0.781646 0.321656
vt 0.772895 0.321708
vt 0.772895 0.321708
vt 0.781646 0.321656
vt 0.781646 0.314889
vt 0.771132 0.314889
vt 0.771132 0.314889
vt 0.781646 0.314889
vt 0.781646 0.312771
vt 0.771132 0.312771
vt 0.771132 0.312771
vt 0.757246 0.312771
vt 0.757731 0.31482
vt 0.771132 0.314889
vt 0.771132 0.314889
vt 0.757731 0.31482
vt 0.763973 0.321867
vt 0.772895 0.321708
vt 0.757246 0.312771
vt 0.752869 0.314548
vt 0.754283 0.316031
vt 0.757731 0.31482
vt 0.757731 0.31482
vt 0.754283 0.316031
vt 0.7615 0.324739
vt 0.763973 0.321867
vt 0.764885 0.3232
vt 0.773252 0.323056
vt 0.772895 0.321708
vt 0.763973 0.321867
vt 0.763973 0.321867
vt 0.7615 0.324739
vt 0.762983 0.325463
vt 0.764885 0.3232
vt 0.7615 0.324739
vt 0.761568 0.341992
vt 0.76298 0.341855
vt 0.762983 0.325463
vt 0.7615 0.324739
vt 0.752944 0.319405
vt 0.752989 0.343541
vt 0.761568 0.341992
vt 0.754283 0.316031
vt 0.752944 0.319405
vt 0.7615 0.324739
vt 0.752869 0.314548
vt 0.751055 0.31884
vt 0.752944 0.319405
vt 0.754283 0.316031
vt 0.752989 0.343541
vt 0.752944 0.319405
vt 0.751055 0.31884
vt 0.751055 0.343345
vt 0.752989 0.343541
vt 0.751055 0.343345
vt 0.751055 0.367708
vt 0.752925 0.367405
vt 0.752989 0.343541
vt 0.752925 0.367405
vt 0.761616 0.359179
vt 0.761568 0.341992
vt 0.754149 0.370865
vt 0.752925 0.367405
vt 0.751055 0.367708
vt 0.752842 0.372099
vt 0.763973 0.361681
vt 0.761616 0.359179
vt 0.752925 0.367405
vt 0.754149 0.370865
vt 0.761568 0.341992
vt 0.761616 0.359179
vt 0.762971 0.358257
vt 0.76298 0.341855
vt 0.761616 0.359179
vt 0.763973 0.361681
vt 0.764825 0.360242
vt 0.762971 0.358257
vt 0.763973 0.361681
vt 0.772841 0.36208
vt 0.773202 0.36061
vt 0.764825 0.360242
vt 0.763973 0.361681
vt 0.757542 0.372211
vt 0.771132 0.372171
vt 0.772841 0.36208
vt 0.757542 0.372211
vt 0.763973 0.361681
vt 0.754149 0.370865
vt 0.757542 0.372211
vt 0.754149 0.370865
vt 0.752842 0.372099
vt 0.757154 0.373919
vt 0.757154 0.373919
vt 0.771132 0.373919
vt 0.771132 0.372171
vt 0.757542 0.372211
vt 0.781646 0.372171
vt 0.771132 0.372171
vt 0.771132 0.373919
vt 0.781646 0.373919
vt 0.781646 0.362212
vt 0.772841 0.36208
vt 0.771132 0.372171
vt 0.781646 0.372171
vt 0.781646 0.372171
vt 0.781646 0.373919
vt 0.792159 0.373919
vt 0.792159 0.372171
vt 0.806138 0.373919
vt 0.80575 0.372211
vt 0.792159 0.372171
vt 0.792159 0.373919
vt 0.806138 0.373919
vt 0.81045 0.3721
vt 0.809142 0.370865
vt 0.80575 0.372211
vt 0.80575 0.372211
vt 0.809142 0.370865
vt 0.799318 0.361681
vt 0.792159 0.372171
vt 0.80575 0.372211
vt 0.799318 0.361681
vt 0.79045 0.36208
vt 0.781646 0.362212
vt 0.781646 0.372171
vt 0.792159 0.372171
vt 0.79045 0.36208
vt 0.790089 0.36061
vt 0.781646 0.360732
vt 0.781646 0.362212
vt 0.79045 0.36208
vt 0.798467 0.360242
vt 0.790089 0.36061
vt 0.79045 0.36208
vt 0.799318 0.361681
vt 0.772841 0.36208
vt 0.781646 0.362212
vt 0.781646 0.360732
vt 0.773202 0.36061
vt 0.790089 0.36061
vt 0.788282 0.35514
vt 0.781646 0.355198
vt 0.781646 0.360732
vt 0.773202 0.36061
vt 0.781646 0.360732
vt 0.781646 0.355198
vt 0.77501 0.35514
vt 0.788282 0.35514
vt 0.788572 0.341874
vt 0.781646 0.341922
vt 0.781646 0.355198
vt 0.781646 0.341922
vt 0.774719 0.341874
vt 0.77501 0.35514
vt 0.781646 0.355198
vt 0.781646 0.328586
vt 0.781646 0.341922
vt 0.788572 0.341874
vt 0.788274 0.328596
vt 0.775017 0.328596
vt 0.774719 0.341874
vt 0.781646 0.341922
vt 0.781646 0.328586
vt 0.768397 0.328631
vt 0.768024 0.341787
vt 0.774719 0.341874
vt 0.775017 0.328596
vt 0.77501 0.35514
vt 0.774719 0.341874
vt 0.768024 0.341787
vt 0.768411 0.354939
vt 0.762983 0.325463
vt 0.76298 0.341855
vt 0.768024 0.341787
vt 0.768397 0.328631
vt 0.76298 0.341855
vt 0.762971 0.358257
vt 0.768411 0.354939
vt 0.768024 0.341787
vt 0.764825 0.360242
vt 0.773202 0.36061
vt 0.77501 0.35514
vt 0.768411 0.354939
vt 0.764825 0.360242
vt 0.768411 0.354939
vt 0.762971 0.358257
vt 0.768397 0.328631
vt 0.775017 0.328596
vt 0.773252 0.323056
vt 0.764885 0.3232
vt 0.768397 0.328631
vt 0.764885 0.3232
vt 0.762983 0.325463
vt 0.775017 0.328596
vt 0.781646 0.328586
vt 0.781646 0.323007
vt 0.773252 0.323056
vt 0.788274 0.328596
vt 0.79004 0.323056
vt 0.781646 0.323007
vt 0.781646 0.328586
vt 0.794894 0.328631
vt 0.798406 0.3232
vt 0.79004 0.323056
vt 0.788274 0.328596
vt 0.788274 0.328596
vt 0.788572 0.341874
vt 0.795268 0.341787
vt 0.794894 0.328631
vt 0.800308 0.325463
vt 0.794894 0.328631
vt 0.795268 0.341787
vt 0.800312 0.341855
vt 0.794894 0.328631
vt 0.800308 0.325463
vt 0.798406 0.3232
vt 0.79488 0.354939
vt 0.795268 0.341787
vt 0.788572 0.341874
vt 0.788282 0.35514
vt 0.79488 0.354939
vt 0.80032 0.358257
vt 0.800312 0.341855
vt 0.795268 0.341787
vt 0.798467 0.360242
vt 0.79488 0.354939
vt 0.788282 0.35514
vt 0.790089 0.36061
vt 0.798467 0.360242
vt 0.80032 0.358257
vt 0.79488 0.354939
s off
f 1/1/1 2/2/2 3/3/3
f 1/1/1 3/3/3 4/4/4
f 5/5/5 6/6/6 7/7/7
f 5/5/5 7/7/7 8/8/8
f 9/9/9 10/10/10 11/11/11
f 9/9/9 11/11/11 12/12/12
f 13/13/13 14/14/14 15/15/15
f 13/13/13 15/15/15 16/16/16
f 17/17/17 18/18/18 19/19/19
f 17/17/17 19/19/19 20/20/20
f 21/21/21 22/22/22 23/23/23
f 21/21/21 23/23/23 24/24/24
f 25/25/25 26/26/26 27/27/27
f 25/25/25 27/27/27 28/28/28
f 29/29/29 30/30/30 31/31/31
f 29/29/29 31/31/31 32/32/32
f 33/33/33 34/34/34 35/35/35
f 33/33/33 35/35/35 36/36/36
f 37/37/37 38/38/38 39/39/39
f 37/37/37 39/39/39 40/40/40
f 41/41/41 42/42/42 43/43/43
f 41/41/41 43/43/43 44/44/44
f 45/45/45 46/46/46 47/47/47
f 45/45/45 47/47/47 48/48/48
f 49/49/49 50/50/50 51/51/51
f 49/49/49 51/51/51 52/52/52
f 53/53/53 54/54/54 55/55/55
f 53/53/53 55/55/55 56/56/56
f 57/57/57 58/58/58 59/59/59
f 57/57/57 59/59/59 60/60/60
f 61/61/61 62/62/62 63/63/63
f 64/64/64 65/65/65 66/66/66
f 64/64/64 66/66/66 67/67/67
f 68/68/68 69/69/69 70/70/70
f 68/68/68 70/70/70 71/71/71
f 72/72/72 73/73/73 74/74/74
f 72/72/72 74/74/74 75/75/75
f 76/76/76 77/77/77 78/78/78
f 76/76/76 78/78/78 79/79/79
f 80/80/80 81/81/81 82/82/82
f 80/80/80 82/82/82 83/83/83
f 84/84/84 85/85/85 86/86/86
f 84/84/84 86/86/86 87/87/87
f 88/88/88 89/89/89 90/90/90
f 88/88/88 90/90/90 91/91/91
f 92/92/92 93/93/93 94/94/94
f 92/92/92 94/94/94 95/95/95
f 96/96/96 97/97/97 98/98/98
f 96/96/96 98/98/98 99/99/99
f 100/100/100 101/101/101 102/102/102
f 100/100/100 102/102/102 103/103/103
f 104/104/104 105/105/105 106/106/106
f 104/104/104 106/106/106 107/107/107
f 108/108/108 109/109/109 110/110/110
f 108/108/108 110/110/110 111/111/111
f 112/112/112 113/113/113 114/114/114
f 112/112/112 114/114/114 115/115/115
f 116/116/116 117/117/117 118/118/118
f 116/116/116 118/118/118 119/119/119
f 120/120/120 121/121/121 122/122/122
f 120/120/120 122/122/122 123/123/123
f 124/124/124 125/125/125 126/126/126
f 127/127/127 128/128/128 129/129/129
f 127/127/127 129/129/129 130/130/130
f 131/131/131 132/132/132 133/133/133
f 131/131/131 133/133/133 134/134/134
f 135/135/135 136/136/136 137/137/137
f 135/135/135 137/137/137 138/138/138
f 139/139/139 140/140/140 141/141/141
f 139/139/139 141/141/141 142/142/142
f 143/143/143 144/144/144 145/145/145
f 143/143/143 145/145/145 146/146/146
f 147/147/147 148/148/148 149/149/149
f 147/147/147 149/149/149 150/150/150
f 151/151/151 152/152/152 153/153/153
f 151/151/151 153/153/153 154/154/154
f 155/155/155 156/156/156 157/157/157
f 155/155/155 157/157/157 158/158/158
f 159/159/159 160/160/160 161/161/161
f 159/159/159 161/161/161 162/162/162
f 163/163/163 164/164/164 165/165/165
f 163/163/163 165/165/165 166/166/166
f 167/167/167 168/168/168 169/169/169
f 170/170/170 171/171/171 172/172/172
f 170/170/170 172/172/172 173/173/173
f 174/174/174 175/175/175 176/176/176
f 174/174/174 176/176/176 177/177/177
f 178/178/178 179/179/179 180/180/180
f 178/178/178 180/180/180 181/181/181
f 182/182/182 183/183/183 184/184/184
f 182/182/182 184/184/184 185/185/185
f 186/186/186 187/187/187 188/188/188
f 186/186/186 188/188/188 189/189/189
f 190/190/190 191/191/191 192/192/192
f 190/190/190 192/192/192 193/193/193
f 194/194/194 195/195/195 196/196/196
f 194/194/194 196/196/196 197/197/197
f 198/198/198 199/199/199 200/200/200
f 201/201/201 202/202/202 203/203/203
f 201/201/201 203/203/203 204/204/204
f 205/205/205 206/206/206 207/207/207
f 205/205/205 207/207/207 208/208/208
f 209/209/209 210/210/210 211/211/211
f 209/209/209 211/211/211 212/212/212
f 213/213/213 214/214/214 215/215/215
f 213/213/213 215/215/215 216/216/216
f 217/217/217 218/218/218 219/219/219
f 217/217/217 219/219/219 220/220/220
f 221/221/221 222/222/222 223/223/223
f 221/221/221 223/223/223 224/224/224
f 225/225/225 226/226/226 227/227/227
f 225/225/225 227/227/227 228/228/228
f 229/229/229 230/230/230 231/231/231
f 229/229/229 231/231/231 232/232/232
f 233/233/233 234/234/234 235/235/235
f 233/233/233 235/235/235 236/236/236
f 237/237/237 238/238/238 239/239/239
f 237/237/237 239/239/239 240/240/240
f 241/241/241 242/242/242 243/243/243
f 241/241/241 243/243/243 244/244/244
f 245/245/245 246/246/246 247/247/247
f 245/245/245 247/247/247 248/248/248
f 249/249/249 250/250/250 251/251/251
f 249/249/249 251/251/251 252/252/252
f 253/253/253 254/254/254 255/255/255
f 253/253/253 255/255/255 256/256/256
f 257/257/257 258/258/258 259/259/259
f 257/257/257 259/259/259 260/260/260
f 261/261/261 262/262/262 263/263/263
f 261/261/261 263/263/263 264/264/264
f 265/265/265 266/266/266 267/267/267
f 268/268/268 269/269/269 270/270/270
f 268/268/268 270/270/270 271/271/271
f 272/272/272 273/273/273 274/274/274
f 275/275/275 276/276/276 277/277/277
f 275/275/275 277/277/277 278/278/278
f 279/279/279 280/280/280 281/281/281
f 279/279/279 281/281/281 282/282/282
f 283/283/283 284/284/284 285/285/285
f 283/283/283 285/285/285 286/286/286
f 287/287/287 288/288/288 289/289/289
f 287/287/287 289/289/289 290/290/290
f 291/291/291 292/292/292 293/293/293
f 291/291/291 293/293/293 294/294/294
f 295/295/295 296/296/296 297/297/297
f 298/298/298 299/299/299 300/300/300
f 298/298/298 300/300/300 301/301/301
f 302/302/302 303/303/303 304/304/304
f 302/302/302 304/304/304 305/305/305
f 306/306/306 307/307/307 308/308/308
f 306/306/306 308/308/308 309/309/309
f 310/310/310 311/311/311 312/312/312
