v 0.545178 0.167975 0.323021
v 0.540648 0.16857 0.323138
v 0.544348 0.168497 0.325516
v 0.544348 0.168497 0.325516
v 0.549342 0.167664 0.323625
v 0.545178 0.167975 0.323021
v 0.55681 0.164209 0.306075
v 0.563684 0.164228 0.308575
v 0.566418 0.1641 0.308575
v 0.554089 0.165146 0.310739
v 0.555954 0.164708 0.308963
v 0.553985 0.164611 0.307233
v 0.563684 0.166953 0.325916
v 0.566418 0.1641 0.308575
v 0.563684 0.164228 0.308575
v 0.566418 0.1641 0.308575
v 0.573291 0.163827 0.308575
v 0.55681 0.164209 0.306075
v 0.576338 0.166597 0.325916
v 0.57915 0.166687 0.325916
v 0.57915 0.165705 0.319901
v 0.576338 0.163547 0.306076
v 0.57915 0.165315 0.31748
v 0.57915 0.164023 0.308575
v 0.599849 0.167761 0.323494
v 0.596959 0.167901 0.325916
v 0.61055 0.169055 0.323494
v 0.554089 0.165146 0.310739
v 0.553985 0.164611 0.307233
v 0.552276 0.165098 0.309324
v 0.541093 0.16772 0.318692
v 0.538286 0.168308 0.319258
v 0.542447 0.167943 0.321039
v 0.554046 0.167402 0.324767
v 0.55224 0.167245 0.322739
v 0.550062 0.168009 0.32617
v 0.586242 0.165632 0.317394
v 0.57915 0.165705 0.319901
v 0.585341 0.165988 0.319862
v 0.586242 0.165632 0.317394
v 0.588062 0.166022 0.319281
v 0.589849 0.165966 0.318418
v 0.54372 0.165977 0.309743
v 0.546571 0.165518 0.308536
v 0.54485 0.165341 0.306348
v 0.589592 0.165098 0.312837
v 0.591755 0.165737 0.316189
v 0.592389 0.165286 0.312961
v 0.57915 0.165315 0.31748
v 0.576338 0.166597 0.325916
v 0.57915 0.165705 0.319901
v 0.589592 0.165098 0.312837
v 0.592389 0.165286 0.312961
v 0.591934 0.164873 0.31047
v 0.55681 0.164209 0.306075
v 0.55681 0.164581 0.308575
v 0.563684 0.164228 0.308575
v 0.588974 0.165449 0.315468
v 0.591755 0.165737 0.316189
v 0.589592 0.165098 0.312837
v 0.58857 0.164655 0.30997
v 0.591934 0.164873 0.31047
v 0.590441 0.164429 0.308161
v 0.541834 0.165863 0.307859
v 0.54372 0.165977 0.309743
v 0.54485 0.165341 0.306348
v 0.596959 0.167901 0.325916
v 0.599849 0.167761 0.323494
v 0.596959 0.164698 0.306075
v 0.554167 0.16682 0.321252
v 0.55224 0.167245 0.322739
v 0.554046 0.167402 0.324767
v 0.58857 0.164655 0.30997
v 0.590441 0.164429 0.308161
v 0.586629 0.164039 0.306162
v 0.588062 0.166022 0.319281
v 0.589616 0.167165 0.325916
v 0.592741 0.167432 0.325916
v 0.541745 0.166483 0.311791
v 0.539806 0.166422 0.309898
v 0.538435 0.167102 0.312445
v 0.554046 0.167402 0.324767
v 0.556049 0.166932 0.323045
v 0.554167 0.16682 0.321252
v 0.537892 0.167707 0.315399
v 0.540664 0.167188 0.315197
v 0.538435 0.167102 0.312445
v 0.537892 0.167707 0.315399
v 0.538286 0.168308 0.319258
v 0.540664 0.167188 0.315197
v 0.57915 0.165315 0.31748
v 0.576338 0.163547 0.306076
v 0.576338 0.166597 0.325916
v 0.61055 0.169055 0.323494
v 0.596959 0.167901 0.325916
v 0.61055 0.169475 0.325916
v 0.563684 0.166953 0.325916
v 0.566418 0.166826 0.325916
v 0.566418 0.1641 0.308575
v 0.588974 0.165449 0.315468
v 0.589849 0.165966 0.318418
v 0.591755 0.165737 0.316189
v 0.586242 0.165632 0.317394
v 0.57915 0.165315 0.31748
v 0.57915 0.165705 0.319901
v 0.550062 0.168009 0.32617
v 0.55224 0.167245 0.322739
v 0.549342 0.167664 0.323625
v 0.549485 0.164809 0.305762
v 0.54485 0.165341 0.306348
v 0.546571 0.165518 0.308536
v 0.57915 0.164023 0.308575
v 0.585393 0.164317 0.308598
v 0.586629 0.164039 0.306162
v 0.576338 0.163547 0.306076
v 0.596959 0.164698 0.306075
v 0.599849 0.167761 0.323494
v 0.599849 0.164972 0.306075
v 0.544348 0.168497 0.325516
v 0.550062 0.168009 0.32617
v 0.549342 0.167664 0.323625
v 0.546571 0.165518 0.308536
v 0.550023 0.165183 0.308494
v 0.549485 0.164809 0.305762
v 0.541093 0.16772 0.318692
v 0.540664 0.167188 0.315197
v 0.538286 0.168308 0.319258
v 0.541834 0.165863 0.307859
v 0.539806 0.166422 0.309898
v 0.541745 0.166483 0.311791
v 0.54372 0.165977 0.309743
v 0.550023 0.165183 0.308494
v 0.552276 0.165098 0.309324
v 0.553985 0.164611 0.307233
v 0.549485 0.164809 0.305762
v 0.58857 0.164655 0.30997
v 0.589592 0.165098 0.312837
v 0.591934 0.164873 0.31047
v 0.588062 0.166022 0.319281
v 0.585341 0.165988 0.319862
v 0.589616 0.167165 0.325916
v 0.589849 0.165966 0.318418
v 0.588974 0.165449 0.315468
v 0.586242 0.165632 0.317394
v 0.573291 0.163482 0.306075
v 0.55681 0.164209 0.306075
v 0.573291 0.163827 0.308575
v 0.540664 0.167188 0.315197
v 0.541745 0.166483 0.311791
v 0.538435 0.167102 0.312445
v 0.585393 0.164317 0.308598
v 0.58857 0.164655 0.30997
v 0.586629 0.164039 0.306162
v 0.542447 0.167943 0.321039
v 0.538286 0.168308 0.319258
v 0.540648 0.16857 0.323138
v 0.545178 0.167975 0.323021
v 0.542447 0.167943 0.321039
v 0.540648 0.16857 0.323138
v 0.588062 0.166022 0.319281
v 0.586242 0.165632 0.317394
v 0.585341 0.165988 0.319862
v 0.61055 0.169475 0.325916
v 0.61055 0.169475 0.325916
vn 0.1243 0.9787 -0.1635
vn 0.1243 0.9787 -0.1635
vn 0.1243 0.9787 -0.1635
vn 0.0981 0.9801 -0.1726
vn 0.0981 0.9801 -0.1726
vn 0.0981 0.9801 -0.1726
vn 0.0462 0.9898 -0.1345
vn 0.0462 0.9898 -0.1345
vn 0.0462 0.9898 -0.1345
vn 0.0857 0.9845 -0.153
vn 0.0857 0.9845 -0.153
vn 0.0857 0.9845 -0.153
vn 0.046 0.9868 -0.1551
vn 0.046 0.9868 -0.1551
vn 0.046 0.9868 -0.1551
vn 0.0395 0.9933 -0.1088
vn 0.0395 0.9933 -0.1088
vn 0.0395 0.9933 -0.1088
vn -0.0317 0.9864 -0.1611
vn -0.0317 0.9864 -0.1611
vn -0.0317 0.9864 -0.1611
vn -0.0399 0.9889 -0.1434
vn -0.0399 0.9889 -0.1434
vn -0.0399 0.9889 -0.1434
vn -0.1177 0.9734 -0.1965
vn -0.1177 0.9734 -0.1965
vn -0.1177 0.9734 -0.1965
vn 0.0935 0.9838 -0.1531
vn 0.0935 0.9838 -0.1531
vn 0.0935 0.9838 -0.1531
vn 0.1652 0.9683 -0.1872
vn 0.1652 0.9683 -0.1872
vn 0.1652 0.9683 -0.1872
vn 0.0935 0.9827 -0.1596
vn 0.0935 0.9827 -0.1596
vn 0.0935 0.9827 -0.1596
vn -0.0461 0.9862 -0.1591
vn -0.0461 0.9862 -0.1591
vn -0.0461 0.9862 -0.1591
vn -0.0461 0.9862 -0.1592
vn -0.0461 0.9862 -0.1592
vn -0.0461 0.9862 -0.1592
vn 0.0935 0.9838 -0.1531
vn 0.0935 0.9838 -0.1531
vn 0.0935 0.9838 -0.1531
vn -0.0599 0.9869 -0.1496
vn -0.0599 0.9869 -0.1496
vn -0.0599 0.9869 -0.1496
vn -0.0276 0.9869 -0.1592
vn -0.0276 0.9869 -0.1592
vn -0.0276 0.9869 -0.1592
vn -0.0598 0.9865 -0.1527
vn -0.0598 0.9865 -0.1527
vn -0.0598 0.9865 -0.1527
vn 0.0508 0.9878 -0.1471
vn 0.0508 0.9878 -0.1471
vn 0.0508 0.9878 -0.1471
vn -0.0642 0.9871 -0.1469
vn -0.0642 0.9871 -0.1469
vn -0.0642 0.9871 -0.1469
vn -0.0397 0.9857 -0.164
vn -0.0397 0.9857 -0.164
vn -0.0397 0.9857 -0.164
vn 0.0935 0.9838 -0.1531
vn 0.0935 0.9838 -0.1531
vn 0.0935 0.9838 -0.1531
vn -0.0856 0.9836 -0.1588
vn -0.0856 0.9836 -0.1588
vn -0.0856 0.9836 -0.1588
vn 0.0935 0.9827 -0.1596
vn 0.0935 0.9827 -0.1596
vn 0.0935 0.9827 -0.1596
vn -0.0237 0.9887 -0.1478
vn -0.0237 0.9887 -0.1478
vn -0.0237 0.9887 -0.1478
vn -0.0842 0.9851 -0.15
vn -0.0842 0.9851 -0.15
vn -0.0842 0.9851 -0.15
vn 0.1459 0.9726 -0.181
vn 0.1459 0.9726 -0.181
vn 0.1459 0.9726 -0.181
vn 0.0935 0.9827 -0.1596
vn 0.0935 0.9827 -0.1596
vn 0.0935 0.9827 -0.1596
vn 0.1696 0.9711 -0.168
vn 0.1696 0.9711 -0.168
vn 0.1696 0.9711 -0.168
vn 0.1696 0.971 -0.1685
vn 0.1696 0.971 -0.1685
vn 0.1696 0.971 -0.1685
vn -0.005 0.9884 -0.1519
vn -0.005 0.9884 -0.1519
vn -0.005 0.9884 -0.1519
vn -0.1134 0.9789 -0.1699
vn -0.1134 0.9789 -0.1699
vn -0.1134 0.9789 -0.1699
vn 0.0461 0.9868 -0.1551
vn 0.0461 0.9868 -0.1551
vn 0.0461 0.9868 -0.1551
vn -0.0622 0.9861 -0.1543
vn -0.0622 0.9861 -0.1543
vn -0.0622 0.9861 -0.1543
vn -0.0461 0.9862 -0.1591
vn -0.0461 0.9862 -0.1591
vn -0.0461 0.9862 -0.1591
vn 0.0935 0.9827 -0.1596
vn 0.0935 0.9827 -0.1596
vn 0.0935 0.9827 -0.1596
vn 0.0935 0.9838 -0.1531
vn 0.0935 0.9838 -0.1531
vn 0.0935 0.9838 -0.1531
vn -0.0461 0.9896 -0.1366
vn -0.0461 0.9896 -0.1366
vn -0.0461 0.9896 -0.1366
vn -0.0461 0.9896 -0.1366
vn -0.0934 0.9831 -0.1574
vn -0.0934 0.9831 -0.1574
vn -0.0934 0.9831 -0.1574
vn 0.1024 0.9815 -0.1619
vn 0.1024 0.9815 -0.1619
vn 0.1024 0.9815 -0.1619
vn 0.0935 0.9838 -0.1531
vn 0.0935 0.9838 -0.1531
vn 0.0935 0.9838 -0.1531
vn 0.1695 0.971 -0.1686
vn 0.1695 0.971 -0.1686
vn 0.1695 0.971 -0.1686
vn 0.1057 0.9826 -0.1526
vn 0.1057 0.9826 -0.1526
vn 0.1057 0.9826 -0.1526
vn 0.1057 0.9826 -0.1526
vn 0.0935 0.9838 -0.1531
vn 0.0935 0.9838 -0.1531
vn 0.0935 0.9838 -0.1531
vn 0.0935 0.9838 -0.1531
vn -0.0439 0.9895 -0.1373
vn -0.0439 0.9895 -0.1373
vn -0.0439 0.9895 -0.1373
vn -0.0461 0.9862 -0.1591
vn -0.0461 0.9862 -0.1591
vn -0.0461 0.9862 -0.1591
vn -0.0461 0.9862 -0.1591
vn -0.0461 0.9862 -0.1591
vn -0.0461 0.9862 -0.1591
vn 0.0437 0.9897 -0.1366
vn 0.0437 0.9897 -0.1366
vn 0.0437 0.9897 -0.1366
vn 0.152 0.9763 -0.1539
vn 0.152 0.9763 -0.1539
vn 0.152 0.9763 -0.1539
vn -0.0461 0.9896 -0.1365
vn -0.0461 0.9896 -0.1365
vn -0.0461 0.9896 -0.1365
vn 0.1539 0.9752 -0.1593
vn 0.1539 0.9752 -0.1593
vn 0.1539 0.9752 -0.1593
vn 0.1233 0.9749 -0.1855
vn 0.1233 0.9749 -0.1855
vn 0.1233 0.9749 -0.1855
vn -0.0461 0.9862 -0.1591
vn -0.0461 0.9862 -0.1591
vn -0.0461 0.9862 -0.1591
vn 0 0 0
vn 0 0 0
vt 0.768448 0.733838
vt 0.766236 0.733895
vt 0.768043 0.735056
vt 0.768043 0.735056
vt 0.770481 0.734133
vt 0.768448 0.733838
vt 0.774128 0.725563
vt 0.777485 0.726783
vt 0.77882 0.726783
vt 0.772799 0.72784
vt 0.77371 0.726972
vt 0.772749 0.726128
vt 0.777485 0.735251
vt 0.77882 0.726783
vt 0.777485 0.726783
vt 0.77882 0.726783
vt 0.782177 0.726783
vt 0.774128 0.725563
vt 0.783665 0.735251
vt 0.785038 0.735251
vt 0.785038 0.732314
vt 0.783665 0.725563
vt 0.785038 0.731132
vt 0.785038 0.726783
vt 0.795146 0.734069
vt 0.793735 0.735251
vt 0.800372 0.734069
vt 0.772799 0.72784
vt 0.772749 0.726128
vt 0.771914 0.727149
vt 0.766453 0.731724
vt 0.765082 0.732
vt 0.767114 0.73287
vt 0.772779 0.73469
vt 0.771896 0.7337
vt 0.770833 0.735376
vt 0.788501 0.73109
vt 0.785038 0.732314
vt 0.788061 0.732295
vt 0.788501 0.73109
vt 0.78939 0.732012
vt 0.790263 0.73159
vt 0.767736 0.727354
vt 0.769128 0.726764
vt 0.768288 0.725696
vt 0.790137 0.728864
vt 0.791194 0.730501
vt 0.791503 0.728925
vt 0.785038 0.731132
vt 0.783665 0.735251
vt 0.785038 0.732314
vt 0.790137 0.728864
vt 0.791503 0.728925
vt 0.791281 0.727708
vt 0.774128 0.725563
vt 0.774128 0.726783
vt 0.777485 0.726783
vt 0.789835 0.730149
vt 0.791194 0.730501
vt 0.790137 0.728864
vt 0.789638 0.727464
vt 0.791281 0.727708
vt 0.790552 0.726581
vt 0.766815 0.726434
vt 0.767736 0.727354
vt 0.768288 0.725696
vt 0.793735 0.735251
vt 0.795146 0.734069
vt 0.793735 0.725563
vt 0.772838 0.732974
vt 0.771896 0.7337
vt 0.772779 0.73469
vt 0.789638 0.727464
vt 0.790552 0.726581
vt 0.78869 0.725605
vt 0.78939 0.732012
vt 0.790149 0.735251
vt 0.791675 0.735251
vt 0.766771 0.728354
vt 0.765824 0.727429
vt 0.765155 0.728673
vt 0.772779 0.73469
vt 0.773757 0.733849
vt 0.772838 0.732974
vt 0.76489 0.730116
vt 0.766244 0.730017
vt 0.765155 0.728673
vt 0.76489 0.730116
vt 0.765082 0.732
vt 0.766244 0.730017
vt 0.785038 0.731132
vt 0.783665 0.725563
vt 0.783665 0.735251
vt 0.800372 0.734069
vt 0.793735 0.735251
vt 0.800372 0.735251
vt 0.777485 0.735251
vt 0.77882 0.735251
vt 0.77882 0.726783
vt 0.789835 0.730149
vt 0.790263 0.73159
vt 0.791194 0.730501
vt 0.788501 0.73109
vt 0.785038 0.731132
vt 0.785038 0.732314
vt 0.770833 0.735376
vt 0.771896 0.7337
vt 0.770481 0.734133
vt 0.770551 0.725409
vt 0.768288 0.725696
vt 0.769128 0.726764
vt 0.785038 0.726783
vt 0.788087 0.726794
vt 0.78869 0.725605
vt 0.783665 0.725563
vt 0.793735 0.725563
vt 0.795146 0.734069
vt 0.795146 0.725563
vt 0.768043 0.735056
vt 0.770833 0.735376
vt 0.770481 0.734133
vt 0.769128 0.726764
vt 0.770814 0.726744
vt 0.770551 0.725409
vt 0.766453 0.731724
vt 0.766244 0.730017
vt 0.765082 0.732
vt 0.766815 0.726434
vt 0.765824 0.727429
vt 0.766771 0.728354
vt 0.767736 0.727354
vt 0.770814 0.726744
vt 0.771914 0.727149
vt 0.772749 0.726128
vt 0.770551 0.725409
vt 0.789638 0.727464
vt 0.790137 0.728864
vt 0.791281 0.727708
vt 0.78939 0.732012
vt 0.788061 0.732295
vt 0.790149 0.735251
vt 0.790263 0.73159
vt 0.789835 0.730149
vt 0.788501 0.73109
vt 0.782177 0.725563
vt 0.774128 0.725563
vt 0.782177 0.726783
vt 0.766244 0.730017
vt 0.766771 0.728354
vt 0.765155 0.728673
vt 0.788087 0.726794
vt 0.789638 0.727464
vt 0.78869 0.725605
vt 0.767114 0.73287
vt 0.765082 0.732
vt 0.766236 0.733895
vt 0.768448 0.733838
vt 0.767114 0.73287
vt 0.766236 0.733895
vt 0.78939 0.732012
vt 0.788501 0.73109
vt 0.788061 0.732295
vt 0 1
vt 0 1
s off
f 1/1/1 2/2/2 3/3/3
f 4/4/4 5/5/5 6/6/6
f 7/7/7 8/8/8 9/9/9
f 10/10/10 11/11/11 12/12/12
f 13/13/13 14/14/14 15/15/15
f 16/16/16 17/17/17 18/18/18
f 19/19/19 20/20/20 21/21/21
f 22/22/22 23/23/23 24/24/24
f 25/25/25 26/26/26 27/27/27
f 28/28/28 29/29/29 30/30/30
f 31/31/31 32/32/32 33/33/33
f 34/34/34 35/35/35 36/36/36
f 37/37/37 38/38/38 39/39/39
f 40/40/40 41/41/41 42/42/42
f 43/43/43 44/44/44 45/45/45
f 46/46/46 47/47/47 48/48/48
f 49/49/49 50/50/50 51/51/51
f 52/52/52 53/53/53 54/54/54
f 55/55/55 56/56/56 57/57/57
f 58/58/58 59/59/59 60/60/60
f 61/61/61 62/62/62 63/63/63
f 64/64/64 65/65/65 66/66/66
f 67/67/67 68/68/68 69/69/69
f 70/70/70 71/71/71 72/72/72
f 73/73/73 74/74/74 75/75/75
f 76/76/76 77/77/77 78/78/78
f 79/79/79 80/80/80 81/81/81
f 82/82/82 83/83/83 84/84/84
f 85/85/85 86/86/86 87/87/87
f 88/88/88 89/89/89 90/90/90
f 91/91/91 92/92/92 93/93/93
f 94/94/94 95/95/95 96/96/96
f 97/97/97 98/98/98 99/99/99
f 100/100/100 101/101/101 102/102/102
f 103/103/103 104/104/104 105/105/105
f 106/106/106 107/107/107 108/108/108
f 109/109/109 110/110/110 111/111/111
f 112/112/112 113/113/113 114/114/114
f 112/112/112 114/114/114 115/115/115
f 116/116/116 117/117/117 118/118/118
f 119/119/119 120/120/120 121/121/121
f 122/122/122 123/123/123 124/124/124
f 125/125/125 126/126/126 127/127/127
f 128/128/128 129/129/129 130/130/130
f 128/128/128 130/130/130 131/131/131
f 132/132/132 133/133/133 134/134/134
f 132/132/132 134/134/134 135/135/135
f 136/136/136 137/137/137 138/138/138
f 139/139/139 140/140/140 141/141/141
f 142/142/142 143/143/143 144/144/144
f 145/145/145 146/146/146 147/147/147
f 148/148/148 149/149/149 150/150/150
f 151/151/151 152/152/152 153/153/153
f 154/154/154 155/155/155 156/156/156
f 157/157/157 158/158/158 159/159/159
f 160/160/160 161/161/161 162/162/162
