v -0.962551 0.167135 0.324767
v -0.960548 0.166819 0.323045
v -0.96243 0.166585 0.321252
v -0.931875 0.165802 0.317477
v -0.937291 0.166043 0.319901
v -0.931096 0.166186 0.319861
v -0.96243 0.166585 0.321252
v -0.964357 0.166914 0.322739
v -0.962551 0.167135 0.324767
v -0.928863 0.164607 0.30938
v -0.928377 0.164197 0.306692
v -0.931135 0.164445 0.308596
v -0.97208 0.165295 0.309304
v -0.974685 0.165229 0.30786
v -0.974146 0.165682 0.310988
v -0.927137 0.165439 0.31454
v -0.924626 0.165714 0.316025
v -0.924051 0.165248 0.312962
v -0.943227 0.163842 0.306075
v -0.952835 0.164394 0.308575
v -0.950023 0.164344 0.308575
v -0.927181 0.164915 0.311177
v -0.924051 0.165248 0.312962
v -0.924507 0.164852 0.31047
v -0.978626 0.166767 0.315397
v -0.975606 0.166201 0.313498
v -0.978084 0.166239 0.312445
v -0.971797 0.167862 0.325645
v -0.967254 0.167228 0.323625
v -0.9708 0.16738 0.32321
v -0.962426 0.164951 0.310743
v -0.960565 0.16463 0.308963
v -0.962534 0.164408 0.307233
v -0.971668 0.16481 0.306348
v -0.97208 0.165295 0.309304
v -0.96939 0.165003 0.308475
v -0.952835 0.167079 0.325916
v -0.950023 0.167012 0.325916
v -0.952835 0.164394 0.308575
v -0.943227 0.164226 0.308575
v -0.943227 0.163842 0.306075
v -0.950023 0.164344 0.308575
v -0.923699 0.167268 0.325916
v -0.928379 0.166154 0.31928
v -0.926824 0.167213 0.325916
v -0.937291 0.166965 0.325916
v -0.937291 0.166043 0.319901
v -0.940103 0.166898 0.325916
v -0.928883 0.165762 0.316814
v -0.931875 0.165802 0.317477
v -0.931096 0.166186 0.319861
v -0.924626 0.165714 0.316025
v -0.928883 0.165762 0.316814
v -0.926241 0.166014 0.318134
v -0.940103 0.163856 0.306076
v -0.937369 0.16567 0.31748
v -0.937369 0.164305 0.308575
v -0.931135 0.164445 0.308596
v -0.931435 0.164049 0.306082
v -0.937369 0.164305 0.308575
v -0.91667 0.167274 0.323494
v -0.91956 0.167405 0.325916
v -0.905968 0.168157 0.323494
v -0.905968 0.168552 0.325916
v -0.905968 0.168157 0.323494
v -0.91956 0.167405 0.325916
v -0.975606 0.166201 0.313498
v -0.976713 0.165706 0.309897
v -0.978084 0.166239 0.312445
v -0.974685 0.165229 0.30786
v -0.97208 0.165295 0.309304
v -0.971668 0.16481 0.306348
v -0.928863 0.164607 0.30938
v -0.92584 0.164498 0.308344
v -0.928377 0.164197 0.306692
v -0.973805 0.167351 0.321473
v -0.975653 0.167822 0.323393
v -0.971797 0.167862 0.325645
v -0.927181 0.164915 0.311177
v -0.924507 0.164852 0.31047
v -0.92584 0.164498 0.308344
v -0.962426 0.164951 0.310743
v -0.962534 0.164408 0.307233
v -0.964243 0.164821 0.309324
v -0.974146 0.165682 0.310988
v -0.974685 0.165229 0.30786
v -0.976713 0.165706 0.309897
v -0.928379 0.166154 0.31928
v -0.926241 0.166014 0.318134
v -0.928883 0.165762 0.316814
v -0.927137 0.165439 0.31454
v -0.924051 0.165248 0.312962
v -0.927181 0.164915 0.311177
v -0.962551 0.167135 0.324767
v -0.964357 0.166914 0.322739
v -0.966529 0.167579 0.326169
v -0.928883 0.165762 0.316814
v -0.931096 0.166186 0.319861
v -0.928379 0.166154 0.31928
v -0.975805 0.166933 0.317877
v -0.978233 0.167365 0.319258
v -0.973805 0.167351 0.321473
v -0.928379 0.166154 0.31928
v -0.931096 0.166186 0.319861
v -0.926824 0.167213 0.325916
v -0.931875 0.165802 0.317477
v -0.937369 0.16567 0.31748
v -0.937291 0.166043 0.319901
v -0.96939 0.165003 0.308475
v -0.966496 0.164829 0.308494
v -0.967034 0.164437 0.305762
v -0.91956 0.164321 0.306075
v -0.91956 0.167405 0.325916
v -0.91667 0.167274 0.323494
v -0.91667 0.164566 0.306075
v -0.927137 0.165439 0.31454
v -0.928883 0.165762 0.316814
v -0.924626 0.165714 0.316025
v -0.966496 0.164829 0.308494
v -0.964243 0.164821 0.309324
v -0.962534 0.164408 0.307233
v -0.967034 0.164437 0.305762
v -0.928863 0.164607 0.30938
v -0.927181 0.164915 0.311177
v -0.92584 0.164498 0.308344
v -0.967034 0.164437 0.305762
v -0.971668 0.16481 0.306348
v -0.96939 0.165003 0.308475
v -0.978626 0.166767 0.315397
v -0.975805 0.166933 0.317877
v -0.975606 0.166201 0.313498
v -0.931435 0.164049 0.306082
v -0.940103 0.163856 0.306076
v -0.937369 0.164305 0.308575
v -0.978626 0.166767 0.315397
v -0.978233 0.167365 0.319258
v -0.975805 0.166933 0.317877
v -0.952835 0.164394 0.308575
v -0.950023 0.167012 0.325916
v -0.950023 0.164344 0.308575
v -0.959631 0.164158 0.306075
v -0.959631 0.164547 0.308575
v -0.952835 0.164394 0.308575
v -0.943227 0.163842 0.306075
v -0.959631 0.164158 0.306075
v -0.952835 0.164394 0.308575
v -0.940103 0.166898 0.325916
v -0.937291 0.166043 0.319901
v -0.937369 0.16567 0.31748
v -0.940103 0.163856 0.306076
v -0.973805 0.167351 0.321473
v -0.978233 0.167365 0.319258
v -0.975653 0.167822 0.323393
v -0.966529 0.167579 0.326169
v -0.964357 0.166914 0.322739
v -0.967254 0.167228 0.323625
v -0.971797 0.167862 0.325645
v -0.966529 0.167579 0.326169
v -0.967254 0.167228 0.323625
v -0.931135 0.164445 0.308596
v -0.928377 0.164197 0.306692
v -0.931435 0.164049 0.306082
v -0.9708 0.16738 0.32321
v -0.973805 0.167351 0.321473
v -0.971797 0.167862 0.325645
v -0.975606 0.166201 0.313498
v -0.974146 0.165682 0.310988
v -0.976713 0.165706 0.309897
v -0.923699 0.167268 0.325916
v -0.923699 0.167268 0.325916
vn 0.0238 0.9878 -0.1536
vn 0.0238 0.9878 -0.1536
vn 0.0238 0.9878 -0.1536
vn -0.0238 0.9882 -0.1515
vn -0.0238 0.9882 -0.1515
vn -0.0238 0.9882 -0.1515
vn 0.0506 0.987 -0.1525
vn 0.0506 0.987 -0.1525
vn 0.0506 0.987 -0.1525
vn -0.0173 0.988 -0.1536
vn -0.0173 0.988 -0.1536
vn -0.0173 0.988 -0.1536
vn 0.06 0.9864 -0.1533
vn 0.06 0.9864 -0.1533
vn 0.06 0.9864 -0.1533
vn -0.0173 0.988 -0.1536
vn -0.0173 0.988 -0.1536
vn -0.0173 0.988 -0.1536
vn 0.0173 0.9883 -0.1514
vn 0.0173 0.9883 -0.1514
vn 0.0173 0.9883 -0.1514
vn -0.0173 0.988 -0.1536
vn -0.0173 0.988 -0.1536
vn -0.0173 0.988 -0.1536
vn 0.0835 0.9835 -0.1607
vn 0.0835 0.9835 -0.1607
vn 0.0835 0.9835 -0.1607
vn 0.062 0.9836 -0.1695
vn 0.062 0.9836 -0.1695
vn 0.062 0.9836 -0.1695
vn 0.0238 0.9878 -0.1536
vn 0.0238 0.9878 -0.1536
vn 0.0238 0.9878 -0.1536
vn 0.06 0.9863 -0.1534
vn 0.06 0.9863 -0.1534
vn 0.06 0.9863 -0.1534
vn 0.0238 0.9879 -0.153
vn 0.0238 0.9879 -0.153
vn 0.0238 0.9879 -0.153
vn 0.0173 0.9883 -0.1515
vn 0.0173 0.9883 -0.1515
vn 0.0173 0.9883 -0.1515
vn -0.0173 0.988 -0.1536
vn -0.0173 0.988 -0.1536
vn -0.0173 0.988 -0.1536
vn -0.0238 0.9882 -0.1515
vn -0.0238 0.9882 -0.1515
vn -0.0238 0.9882 -0.1515
vn -0.0207 0.9881 -0.1525
vn -0.0207 0.9881 -0.1525
vn -0.0207 0.9881 -0.1525
vn -0.0173 0.988 -0.1536
vn -0.0173 0.988 -0.1536
vn -0.0173 0.988 -0.1536
vn -0.0238 0.9882 -0.1515
vn -0.0238 0.9882 -0.1515
vn -0.0238 0.9882 -0.1515
vn -0.0217 0.988 -0.1531
vn -0.0217 0.988 -0.1531
vn -0.0217 0.988 -0.1531
vn -0.0813 0.9853 -0.1506
vn -0.0813 0.9853 -0.1506
vn -0.0813 0.9853 -0.1506
vn -0.083 0.9835 -0.1607
vn -0.083 0.9835 -0.1607
vn -0.083 0.9835 -0.1607
vn 0.0835 0.9835 -0.1607
vn 0.0835 0.9835 -0.1607
vn 0.0835 0.9835 -0.1607
vn 0.06 0.9863 -0.1534
vn 0.06 0.9863 -0.1534
vn 0.06 0.9863 -0.1534
vn -0.0173 0.988 -0.1536
vn -0.0173 0.988 -0.1536
vn -0.0173 0.988 -0.1536
vn 0.0835 0.9835 -0.1607
vn 0.0835 0.9835 -0.1607
vn 0.0835 0.9835 -0.1607
vn -0.0173 0.988 -0.1536
vn -0.0173 0.988 -0.1536
vn -0.0173 0.988 -0.1536
vn 0.0499 0.9868 -0.1542
vn 0.0499 0.9868 -0.1542
vn 0.0499 0.9868 -0.1542
vn 0.0753 0.9849 -0.1558
vn 0.0753 0.9849 -0.1558
vn 0.0753 0.9849 -0.1558
vn -0.0173 0.988 -0.1536
vn -0.0173 0.988 -0.1536
vn -0.0173 0.988 -0.1536
vn -0.0173 0.988 -0.1536
vn -0.0173 0.988 -0.1536
vn -0.0173 0.988 -0.1536
vn 0.0551 0.9862 -0.1564
vn 0.0551 0.9862 -0.1564
vn 0.0551 0.9862 -0.1564
vn -0.0211 0.988 -0.1528
vn -0.0211 0.988 -0.1528
vn -0.0211 0.988 -0.1528
vn 0.0835 0.9835 -0.1607
vn 0.0835 0.9835 -0.1607
vn 0.0835 0.9835 -0.1607
vn -0.021 0.988 -0.1527
vn -0.021 0.988 -0.1527
vn -0.021 0.988 -0.1527
vn -0.0238 0.9882 -0.1515
vn -0.0238 0.9882 -0.1515
vn -0.0238 0.9882 -0.1515
vn 0.06 0.9863 -0.1534
vn 0.06 0.9863 -0.1534
vn 0.06 0.9863 -0.1534
vn -0.0834 0.9847 -0.1531
vn -0.0834 0.9847 -0.1531
vn -0.0834 0.9847 -0.1531
vn -0.0834 0.9847 -0.1531
vn -0.0173 0.988 -0.1536
vn -0.0173 0.988 -0.1536
vn -0.0173 0.988 -0.1536
vn 0.0569 0.9869 -0.151
vn 0.0569 0.9869 -0.151
vn 0.0569 0.9869 -0.151
vn 0.0569 0.9869 -0.151
vn -0.0173 0.988 -0.1536
vn -0.0173 0.988 -0.1536
vn -0.0173 0.988 -0.1536
vn 0.06 0.9863 -0.1534
vn 0.06 0.9863 -0.1534
vn 0.06 0.9863 -0.1534
vn 0.0835 0.9835 -0.1607
vn 0.0835 0.9835 -0.1607
vn 0.0835 0.9835 -0.1607
vn -0.0219 0.9879 -0.1535
vn -0.0219 0.9879 -0.1535
vn -0.0219 0.9879 -0.1535
vn 0.0835 0.9835 -0.1607
vn 0.0835 0.9835 -0.1607
vn 0.0835 0.9835 -0.1607
vn 0.0173 0.9882 -0.152
vn 0.0173 0.9882 -0.152
vn 0.0173 0.9882 -0.152
vn 0.0223 0.9879 -0.1536
vn 0.0223 0.9879 -0.1536
vn 0.0223 0.9879 -0.1536
vn 0.0191 0.9893 -0.145
vn 0.0191 0.9893 -0.145
vn 0.0191 0.9893 -0.145
vn -0.0238 0.9882 -0.1515
vn -0.0238 0.9882 -0.1515
vn -0.0238 0.9882 -0.1515
vn -0.0238 0.9882 -0.1515
vn 0.0835 0.9835 -0.1607
vn 0.0835 0.9835 -0.1607
vn 0.0835 0.9835 -0.1607
vn 0.06 0.9864 -0.1533
vn 0.06 0.9864 -0.1533
vn 0.06 0.9864 -0.1533
vn 0.0684 0.9854 -0.1556
vn 0.0684 0.9854 -0.1556
vn 0.0684 0.9854 -0.1556
vn -0.0173 0.988 -0.1536
vn -0.0173 0.988 -0.1536
vn -0.0173 0.988 -0.1536
vn 0.0835 0.9835 -0.1607
vn 0.0835 0.9835 -0.1607
vn 0.0835 0.9835 -0.1607
vn 0.0766 0.9844 -0.1587
vn 0.0766 0.9844 -0.1587
vn 0.0766 0.9844 -0.1587
vn 0 0 0
vn 0 0 0
vt 0.032159 0.734691
vt 0.033137 0.733849
vt 0.032218 0.732974
vt 0.047139 0.731131
vt 0.044494 0.732314
vt 0.047519 0.732295
vt 0.032218 0.732974
vt 0.031277 0.7337
vt 0.032159 0.734691
vt 0.04861 0.727176
vt 0.048848 0.725864
vt 0.0475 0.726793
vt 0.027506 0.727139
vt 0.026233 0.726434
vt 0.026497 0.727962
vt 0.049453 0.729696
vt 0.050679 0.730421
vt 0.05096 0.728925
vt 0.041595 0.725563
vt 0.036904 0.726783
vt 0.038277 0.726783
vt 0.049431 0.728054
vt 0.05096 0.728925
vt 0.050738 0.727709
vt 0.024309 0.730115
vt 0.025784 0.729187
vt 0.024573 0.728673
vt 0.027644 0.735119
vt 0.029862 0.734133
vt 0.028131 0.73393
vt 0.03222 0.727842
vt 0.033129 0.726973
vt 0.032167 0.726128
vt 0.027706 0.725696
vt 0.027506 0.727139
vt 0.028819 0.726735
vt 0.036904 0.735251
vt 0.038277 0.735251
vt 0.036904 0.726783
vt 0.041595 0.726783
vt 0.041595 0.725563
vt 0.038277 0.726783
vt 0.051132 0.735251
vt 0.048846 0.732011
vt 0.049606 0.735251
vt 0.044494 0.735251
vt 0.044494 0.732314
vt 0.043121 0.735251
vt 0.0486 0.730806
vt 0.047139 0.731131
vt 0.047519 0.732295
vt 0.050679 0.730421
vt 0.0486 0.730806
vt 0.049891 0.731452
vt 0.043121 0.725563
vt 0.044456 0.731132
vt 0.044456 0.726783
vt 0.0475 0.726793
vt 0.047354 0.725566
vt 0.044456 0.726783
vt 0.054565 0.734069
vt 0.053153 0.735251
vt 0.059791 0.734069
vt 0.059791 0.735251
vt 0.059791 0.734069
vt 0.053153 0.735251
vt 0.025784 0.729187
vt 0.025243 0.727429
vt 0.024573 0.728673
vt 0.026233 0.726434
vt 0.027506 0.727139
vt 0.027706 0.725696
vt 0.04861 0.727176
vt 0.050086 0.72667
vt 0.048848 0.725864
vt 0.026663 0.733082
vt 0.025761 0.73402
vt 0.027644 0.735119
vt 0.049431 0.728054
vt 0.050738 0.727709
vt 0.050086 0.72667
vt 0.03222 0.727842
vt 0.032167 0.726128
vt 0.031332 0.727149
vt 0.026497 0.727962
vt 0.026233 0.726434
vt 0.025243 0.727429
vt 0.048846 0.732011
vt 0.049891 0.731452
vt 0.0486 0.730806
vt 0.049453 0.729696
vt 0.05096 0.728925
vt 0.049431 0.728054
vt 0.032159 0.734691
vt 0.031277 0.7337
vt 0.030216 0.735375
vt 0.0486 0.730806
vt 0.047519 0.732295
vt 0.048846 0.732011
vt 0.025686 0.731326
vt 0.024501 0.732
vt 0.026663 0.733082
vt 0.048846 0.732011
vt 0.047519 0.732295
vt 0.049606 0.735251
vt 0.047139 0.731131
vt 0.044456 0.731132
vt 0.044494 0.732314
vt 0.028819 0.726735
vt 0.030232 0.726744
vt 0.02997 0.725409
vt 0.053153 0.725563
vt 0.053153 0.735251
vt 0.054565 0.734069
vt 0.054565 0.725563
vt 0.049453 0.729696
vt 0.0486 0.730806
vt 0.050679 0.730421
vt 0.030232 0.726744
vt 0.031332 0.727149
vt 0.032167 0.726128
vt 0.02997 0.725409
vt 0.04861 0.727176
vt 0.049431 0.728054
vt 0.050086 0.72667
vt 0.02997 0.725409
vt 0.027706 0.725696
vt 0.028819 0.726735
vt 0.024309 0.730115
vt 0.025686 0.731326
vt 0.025784 0.729187
vt 0.047354 0.725566
vt 0.043121 0.725563
vt 0.044456 0.726783
vt 0.024309 0.730115
vt 0.024501 0.732
vt 0.025686 0.731326
vt 0.036904 0.726783
vt 0.038277 0.735251
vt 0.038277 0.726783
vt 0.033585 0.725563
vt 0.033585 0.726783
vt 0.036904 0.726783
vt 0.041595 0.725563
vt 0.033585 0.725563
vt 0.036904 0.726783
vt 0.043121 0.735251
vt 0.044494 0.732314
vt 0.044456 0.731132
vt 0.043121 0.725563
vt 0.026663 0.733082
vt 0.024501 0.732
vt 0.025761 0.73402
vt 0.030216 0.735375
vt 0.031277 0.7337
vt 0.029862 0.734133
vt 0.027644 0.735119
vt 0.030216 0.735375
vt 0.029862 0.734133
vt 0.0475 0.726793
vt 0.048848 0.725864
vt 0.047354 0.725566
vt 0.028131 0.73393
vt 0.026663 0.733082
vt 0.027644 0.735119
vt 0.025784 0.729187
vt 0.026497 0.727962
vt 0.025243 0.727429
vt 0 1
vt 0 1
s off
f 1/1/1 2/2/2 3/3/3
f 4/4/4 5/5/5 6/6/6
f 7/7/7 8/8/8 9/9/9
f 10/10/10 11/11/11 12/12/12
f 13/13/13 14/14/14 15/15/15
f 16/16/16 17/17/17 18/18/18
f 19/19/19 20/20/20 21/21/21
f 22/22/22 23/23/23 24/24/24
f 25/25/25 26/26/26 27/27/27
f 28/28/28 29/29/29 30/30/30
f 31/31/31 32/32/32 33/33/33
f 34/34/34 35/35/35 36/36/36
f 37/37/37 38/38/38 39/39/39
f 40/40/40 41/41/41 42/42/42
f 43/43/43 44/44/44 45/45/45
f 46/46/46 47/47/47 48/48/48
f 49/49/49 50/50/50 51/51/51
f 52/52/52 53/53/53 54/54/54
f 55/55/55 56/56/56 57/57/57
f 58/58/58 59/59/59 60/60/60
f 61/61/61 62/62/62 63/63/63
f 64/64/64 65/65/65 66/66/66
f 67/67/67 68/68/68 69/69/69
f 70/70/70 71/71/71 72/72/72
f 73/73/73 74/74/74 75/75/75
f 76/76/76 77/77/77 78/78/78
f 79/79/79 80/80/80 81/81/81
f 82/82/82 83/83/83 84/84/84
f 85/85/85 86/86/86 87/87/87
f 88/88/88 89/89/89 90/90/90
f 91/91/91 92/92/92 93/93/93
f 94/94/94 95/95/95 96/96/96
f 97/97/97 98/98/98 99/99/99
f 100/100/100 101/101/101 102/102/102
f 103/103/103 104/104/104 105/105/105
f 106/106/106 107/107/107 108/108/108
f 109/109/109 110/110/110 111/111/111
f 112/112/112 113/113/113 114/114/114
f 112/112/112 114/114/114 115/115/115
f 116/116/116 117/117/117 118/118/118
f 119/119/119 120/120/120 121/121/121
f 119/119/119 121/121/121 122/122/122
f 123/123/123 124/124/124 125/125/125
f 126/126/126 127/127/127 128/128/128
f 129/129/129 130/130/130 131/131/131
f 132/132/132 133/133/133 134/134/134
f 135/135/135 136/136/136 137/137/137
f 138/138/138 139/139/139 140/140/140
f 141/141/141 142/142/142 143/143/143
f 144/144/144 145/145/145 146/146/146
f 147/147/147 148/148/148 149/149/149
f 147/147/147 149/149/149 150/150/150
f 151/151/151 152/152/152 153/153/153
f 154/154/154 155/155/155 156/156/156
f 157/157/157 158/158/158 159/159/159
f 160/160/160 161/161/161 162/162/162
f 163/163/163 164/164/164 165/165/165
f 166/166/166 167/167/167 168/168/168
