v -0.493789 0.167611 0.049858
v -0.491238 0.167502 0.051982
v -0.491559 0.167562 0.047101
v -0.495766 0.167774 0.054231
v -0.493789 0.167611 0.049858
v -0.498277 0.168065 0.051778
v -0.491238 0.167502 0.051982
v -0.493789 0.167611 0.049858
v -0.495766 0.167774 0.054231
v -0.491559 0.167562 0.047101
v -0.491238 0.167502 0.051982
v -0.488545 0.167445 0.048737
v -0.491559 0.167562 0.047101
v -0.488545 0.167445 0.048737
v -0.487238 0.167445 0.045186
v -0.490563 0.167559 0.044052
v -0.487238 0.167445 0.045186
v -0.487147 0.167495 0.040398
v -0.490563 0.167559 0.044052
v -0.491559 0.167562 0.047101
v -0.487238 0.167445 0.045186
v -0.487147 0.167495 0.040398
v -0.49061 0.167597 0.040753
v -0.490563 0.167559 0.044052
v -0.488158 0.167563 0.037085
v -0.491648 0.167661 0.03777
v -0.49061 0.167597 0.040753
v -0.487147 0.167495 0.040398
v -0.494406 0.167829 0.034785
v -0.491648 0.167661 0.03777
v -0.489895 0.167645 0.034386
v -0.491648 0.167661 0.03777
v -0.488158 0.167563 0.037085
v -0.489895 0.167645 0.034386
v -0.494406 0.167829 0.034785
v -0.489895 0.167645 0.034386
v -0.492926 0.167765 0.03195
v -0.494406 0.167829 0.034785
v -0.492926 0.167765 0.03195
v -0.497844 0.168246 0.03023
v -0.507135 0.169188 0.033313
v -0.497844 0.168246 0.03023
v -0.510728 0.169655 0.030188
v -0.498897 0.168318 0.03334
v -0.497844 0.168246 0.03023
v -0.507135 0.169188 0.033313
v -0.498897 0.168318 0.03334
v -0.494406 0.167829 0.034785
v -0.497844 0.168246 0.03023
v -0.507135 0.169038 0.051825
v -0.507135 0.169188 0.033313
v -0.510728 0.169521 0.054793
v -0.507135 0.169188 0.033313
v -0.510728 0.169655 0.030188
v -0.510728 0.169521 0.054793
v -0.507135 0.169038 0.051825
v -0.510728 0.169521 0.054793
v -0.499425 0.168155 0.05479
v -0.498277 0.168065 0.051778
v -0.499425 0.168155 0.05479
v -0.495766 0.167774 0.054231
v -0.498277 0.168065 0.051778
v -0.507135 0.169038 0.051825
v -0.499425 0.168155 0.05479
vn 0.0342 0.9994 0.0101
vn 0.0342 0.9994 0.0101
vn 0.0342 0.9994 0.0101
vn 0.105 0.9944 0.0102
vn 0.105 0.9944 0.0102
vn 0.105 0.9944 0.0102
vn 0.0536 0.9985 -0.0132
vn 0.0536 0.9985 -0.0132
vn 0.0536 0.9985 -0.0132
vn 0.0332 0.9994 0.0102
vn 0.0332 0.9994 0.0102
vn 0.0332 0.9994 0.0102
vn 0.0323 0.9994 0.0118
vn 0.0323 0.9994 0.0118
vn 0.0323 0.9994 0.0118
vn 0.0305 0.9995 0.0111
vn 0.0305 0.9995 0.0111
vn 0.0305 0.9995 0.0111
vn 0.0311 0.9995 0.0092
vn 0.0311 0.9995 0.0092
vn 0.0311 0.9995 0.0092
vn 0.0304 0.9995 0.011
vn 0.0304 0.9995 0.011
vn 0.0304 0.9995 0.011
vn 0.0304 0.9995 0.0111
vn 0.0304 0.9995 0.0111
vn 0.0304 0.9995 0.0111
vn 0.0304 0.9995 0.0111
vn 0.0421 0.999 0.0171
vn 0.0421 0.999 0.0171
vn 0.0421 0.999 0.0171
vn 0.0304 0.9995 0.0111
vn 0.0304 0.9995 0.0111
vn 0.0304 0.9995 0.0111
vn 0.0404 0.9992 -0.0015
vn 0.0404 0.9992 -0.0015
vn 0.0404 0.9992 -0.0015
vn 0.089 0.9957 0.024
vn 0.089 0.9957 0.024
vn 0.089 0.9957 0.024
vn 0.1086 0.9938 0.0235
vn 0.1086 0.9938 0.0235
vn 0.1086 0.9938 0.0235
vn 0.105 0.9944 0.0125
vn 0.105 0.9944 0.0125
vn 0.105 0.9944 0.0125
vn 0.1043 0.9945 0.0123
vn 0.1043 0.9945 0.0123
vn 0.1043 0.9945 0.0123
vn 0.1398 0.9901 0.008
vn 0.1398 0.9901 0.008
vn 0.1398 0.9901 0.008
vn 0.1242 0.9922 0.0054
vn 0.1242 0.9922 0.0054
vn 0.1242 0.9922 0.0054
vn 0.1199 0.9926 -0.0164
vn 0.1199 0.9926 -0.0164
vn 0.1199 0.9926 -0.0164
vn 0.1051 0.9944 0.0101
vn 0.1051 0.9944 0.0101
vn 0.1051 0.9944 0.0101
vn 0.1093 0.9939 0.0117
vn 0.1093 0.9939 0.0117
vn 0.1093 0.9939 0.0117
vt 0.261075 0.600441
vt 0.262321 0.601478
vt 0.262164 0.599094
vt 0.26011 0.602576
vt 0.261075 0.600441
vt 0.258884 0.601378
vt 0.262321 0.601478
vt 0.261075 0.600441
vt 0.26011 0.602576
vt 0.262164 0.599094
vt 0.262321 0.601478
vt 0.263637 0.599893
vt 0.262164 0.599094
vt 0.263637 0.599893
vt 0.264275 0.598159
vt 0.262651 0.597605
vt 0.264275 0.598159
vt 0.264319 0.595821
vt 0.262651 0.597605
vt 0.262164 0.599094
vt 0.264275 0.598159
vt 0.264319 0.595821
vt 0.262628 0.595994
vt 0.262651 0.597605
vt 0.263825 0.594203
vt 0.262121 0.594538
vt 0.262628 0.595994
vt 0.264319 0.595821
vt 0.260774 0.59308
vt 0.262121 0.594538
vt 0.262977 0.592885
vt 0.262121 0.594538
vt 0.263825 0.594203
vt 0.262977 0.592885
vt 0.260774 0.59308
vt 0.262977 0.592885
vt 0.261497 0.591695
vt 0.260774 0.59308
vt 0.261497 0.591695
vt 0.259095 0.590855
vt 0.254558 0.592361
vt 0.259095 0.590855
vt 0.252803 0.590835
vt 0.258581 0.592374
vt 0.259095 0.590855
vt 0.254558 0.592361
vt 0.258581 0.592374
vt 0.260774 0.59308
vt 0.259095 0.590855
vt 0.254558 0.601401
vt 0.254558 0.592361
vt 0.252803 0.602851
vt 0.254558 0.592361
vt 0.252803 0.590835
vt 0.252803 0.602851
vt 0.254558 0.601401
vt 0.252803 0.602851
vt 0.258323 0.602849
vt 0.258884 0.601378
vt 0.258323 0.602849
vt 0.26011 0.602576
vt 0.258884 0.601378
vt 0.254558 0.601401
vt 0.258323 0.602849
s off
f 1/1/1 2/2/2 3/3/3
f 4/4/4 5/5/5 6/6/6
f 7/7/7 8/8/8 9/9/9
f 10/10/10 11/11/11 12/12/12
f 13/13/13 14/14/14 15/15/15
f 16/16/16 17/17/17 18/18/18
f 19/19/19 20/20/20 21/21/21
f 22/22/22 23/23/23 24/24/24
f 25/25/25 26/26/26 27/27/27
f 25/25/25 27/27/27 28/28/28
f 29/29/29 30/30/30 31/31/31
f 32/32/32 33/33/33 34/34/34
f 35/35/35 36/36/36 37/37/37
f 38/38/38 39/39/39 40/40/40
f 41/41/41 42/42/42 43/43/43
f 44/44/44 45/45/45 46/46/46
f 47/47/47 48/48/48 49/49/49
f 50/50/50 51/51/51 52/52/52
f 53/53/53 54/54/54 55/55/55
f 56/56/56 57/57/57 58/58/58
f 59/59/59 60/60/60 61/61/61
f 62/62/62 63/63/63 64/64/64
