v 0.974473 0.20243 -0.29954
v 0.969235 0.202094 -0.297798
v 0.97424 0.202322 -0.297722
v 0.935022 0.205629 -0.3581
v 0.94502 0.204846 -0.356381
v 0.94502 0.205015 -0.3581
v 0.927619 0.205733 -0.346503
v 0.929114 0.205528 -0.34525
v 0.929334 0.205644 -0.348402
v 0.979076 0.205464 -0.356381
v 0.983997 0.206089 -0.3581
v 0.977124 0.205267 -0.356381
v 0.947522 0.201706 -0.29082
v 0.949598 0.201675 -0.291729
v 0.947907 0.201775 -0.292688
v 0.976482 0.202516 -0.296059
v 0.978701 0.202703 -0.294328
v 0.978445 0.202765 -0.296412
v 0.942594 0.201803 -0.285329
v 0.946172 0.201655 -0.286855
v 0.942879 0.201766 -0.287172
v 0.941974 0.202115 -0.295873
v 0.940313 0.202284 -0.297031
v 0.940104 0.202202 -0.294685
v 0.943425 0.202227 -0.299537
v 0.942514 0.202153 -0.297153
v 0.944239 0.202127 -0.297896
v 0.925005 0.206008 -0.345618
v 0.918228 0.207002 -0.343962
v 0.925758 0.205843 -0.343972
v 0.974366 0.202062 -0.291441
v 0.969235 0.201729 -0.289675
v 0.973687 0.201903 -0.289675
v 0.967204 0.202107 -0.299595
v 0.969235 0.202094 -0.297798
v 0.974473 0.20243 -0.29954
v 0.974366 0.202062 -0.291441
v 0.976904 0.202332 -0.290736
v 0.976442 0.202381 -0.293094
v 0.962673 0.204631 -0.356381
v 0.970719 0.20487 -0.356381
v 0.960642 0.204733 -0.3581
v 0.976482 0.202516 -0.296059
v 0.978445 0.202765 -0.296412
v 0.977272 0.202703 -0.298183
v 0.920259 0.207174 -0.356381
v 0.918228 0.207558 -0.358178
v 0.918228 0.207002 -0.343962
v 0.97424 0.202322 -0.297722
v 0.977272 0.202703 -0.298183
v 0.974473 0.20243 -0.29954
v 0.962673 0.204213 -0.350288
v 0.960642 0.203873 -0.343883
v 0.962673 0.204011 -0.34568
v 0.944161 0.204438 -0.350288
v 0.944161 0.204515 -0.352007
v 0.937053 0.20495 -0.350288
v 0.9351 0.202514 -0.2853
v 0.93471 0.202611 -0.288972
v 0.926508 0.20386 -0.295923
v 0.918228 0.207558 -0.358178
v 0.925593 0.206448 -0.35634
v 0.926396 0.206488 -0.35809
v 0.988216 0.206035 -0.350288
v 0.995324 0.207084 -0.350288
v 0.995324 0.207151 -0.352007
v 0.942594 0.201803 -0.285329
v 0.942879 0.201766 -0.287172
v 0.9404 0.201914 -0.288443
v 0.925005 0.206008 -0.345618
v 0.920259 0.206749 -0.345602
v 0.918228 0.207002 -0.343962
v 0.918228 0.207002 -0.343962
v 0.920259 0.206749 -0.345602
v 0.920259 0.207174 -0.356381
v 0.935022 0.204873 -0.343883
v 0.937053 0.204748 -0.34568
v 0.937053 0.20495 -0.350288
v 0.935022 0.205629 -0.3581
v 0.937053 0.205026 -0.352007
v 0.937053 0.205301 -0.356381
v 0.988216 0.20638 -0.356381
v 0.996261 0.20747 -0.356381
v 0.996261 0.207533 -0.3581
v 0.977124 0.204666 -0.343883
v 0.979076 0.205464 -0.356381
v 0.977124 0.205267 -0.356381
v 0.979076 0.205464 -0.356381
v 0.983997 0.205961 -0.356381
v 0.983997 0.206089 -0.3581
v 0.963923 0.201545 -0.2853
v 0.963923 0.201514 -0.287097
v 0.953612 0.20141 -0.2853
v 0.986184 0.206306 -0.3581
v 0.988216 0.205853 -0.34568
v 0.988216 0.206035 -0.350288
v 0.920259 0.205028 -0.299517
v 0.918228 0.205409 -0.299517
v 0.918228 0.20493 -0.2853
v 0.949644 0.201538 -0.28664
v 0.948373 0.201574 -0.287859
v 0.947573 0.201615 -0.285346
v 0.953612 0.20141 -0.2853
v 0.955643 0.201331 -0.287097
v 0.955643 0.20147 -0.291705
v 0.953612 0.201881 -0.299517
v 0.955643 0.201545 -0.293424
v 0.955643 0.20174 -0.297798
v 0.960642 0.204733 -0.3581
v 0.962673 0.204289 -0.352007
v 0.962673 0.204631 -0.356381
v 0.967204 0.201655 -0.285379
v 0.969235 0.201725 -0.285379
v 0.969235 0.201729 -0.289675
v 0.948373 0.201574 -0.287859
v 0.946172 0.201655 -0.286855
v 0.947573 0.201615 -0.285346
v 0.978701 0.202703 -0.294328
v 0.976442 0.202381 -0.293094
v 0.978226 0.202556 -0.292266
v 0.984622 0.20316 -0.2853
v 0.986653 0.203404 -0.2853
v 0.984622 0.203559 -0.297798
v 0.991496 0.204489 -0.299517
v 0.979701 0.20305 -0.299517
v 0.991496 0.204431 -0.297798
v 0.942162 0.202061 -0.294777
v 0.940104 0.202202 -0.294685
v 0.941146 0.202023 -0.29301
v 0.979701 0.20305 -0.299517
v 0.986653 0.203801 -0.297798
v 0.991496 0.204431 -0.297798
v 0.931407 0.205418 -0.348008
v 0.929946 0.205728 -0.351723
v 0.929334 0.205644 -0.348402
v 0.972203 0.205084 -0.3581
v 0.977124 0.205267 -0.356381
v 0.983997 0.206089 -0.3581
v 0.948792 0.201606 -0.289531
v 0.950567 0.201498 -0.288255
v 0.950541 0.201582 -0.290333
v 0.979701 0.20305 -0.299517
v 0.979701 0.202975 -0.297798
v 0.984622 0.203559 -0.297798
v 0.950034 0.201956 -0.298461
v 0.94693 0.202034 -0.297844
v 0.949321 0.201907 -0.296795
v 0.948613 0.204019 -0.343883
v 0.950644 0.204041 -0.34568
v 0.948613 0.204909 -0.3581
v 0.975563 0.202143 -0.290064
v 0.973687 0.201903 -0.289675
v 0.97892 0.202474 -0.2853
v 0.948792 0.201606 -0.289531
v 0.950541 0.201582 -0.290333
v 0.949598 0.201675 -0.291729
v 0.925005 0.206008 -0.345618
v 0.925758 0.205843 -0.343972
v 0.927619 0.205733 -0.346503
v 0.988216 0.20638 -0.356381
v 0.986184 0.206306 -0.3581
v 0.988216 0.206102 -0.352007
v 0.962673 0.204213 -0.350288
v 0.969859 0.204499 -0.352007
v 0.962673 0.204289 -0.352007
v 0.950034 0.201956 -0.298461
v 0.947198 0.202101 -0.299588
v 0.94693 0.202034 -0.297844
v 0.967204 0.201655 -0.285379
v 0.969235 0.201729 -0.289675
v 0.967204 0.202107 -0.299595
v 0.950567 0.201498 -0.288255
v 0.948792 0.201606 -0.289531
v 0.948373 0.201574 -0.287859
v 0.972203 0.204917 -0.356381
v 0.977124 0.205267 -0.356381
v 0.972203 0.205084 -0.3581
v 0.979701 0.20305 -0.299517
v 0.984622 0.203559 -0.297798
v 0.986653 0.203801 -0.297798
v 0.974366 0.202062 -0.291441
v 0.973687 0.201903 -0.289675
v 0.975563 0.202143 -0.290064
v 0.976482 0.202516 -0.296059
v 0.977272 0.202703 -0.298183
v 0.97424 0.202322 -0.297722
v 0.941146 0.202023 -0.29301
v 0.943507 0.201974 -0.293834
v 0.942162 0.202061 -0.294777
v 0.943507 0.201974 -0.293834
v 0.941146 0.202023 -0.29301
v 0.942827 0.201919 -0.292055
v 0.969859 0.204499 -0.352007
v 0.962673 0.204213 -0.350288
v 0.969859 0.204424 -0.350288
v 0.940313 0.202284 -0.297031
v 0.942514 0.202153 -0.297153
v 0.941256 0.202251 -0.298427
v 0.976482 0.202516 -0.296059
v 0.976442 0.202381 -0.293094
v 0.978701 0.202703 -0.294328
v 0.920259 0.20454 -0.2853
v 0.920259 0.205028 -0.299517
v 0.918228 0.20493 -0.2853
v 0.94693 0.202034 -0.297844
v 0.947198 0.202101 -0.299588
v 0.943425 0.202227 -0.299537
v 0.944239 0.202127 -0.297896
v 0.947573 0.201615 -0.285346
v 0.946172 0.201655 -0.286855
v 0.942594 0.201803 -0.285329
v 0.930181 0.205963 -0.35602
v 0.926396 0.206488 -0.35809
v 0.928562 0.206035 -0.354701
v 0.926508 0.20386 -0.295923
v 0.924477 0.204273 -0.299517
v 0.924477 0.203811 -0.2853
v 0.926508 0.203553 -0.2853
v 0.940104 0.202202 -0.294685
v 0.942162 0.202061 -0.294777
v 0.941974 0.202115 -0.295873
v 0.948613 0.204909 -0.3581
v 0.950644 0.204041 -0.34568
v 0.950644 0.204848 -0.3581
v 0.925593 0.206448 -0.35634
v 0.928562 0.206035 -0.354701
v 0.926396 0.206488 -0.35809
v 0.974366 0.202062 -0.291441
v 0.969235 0.201806 -0.291393
v 0.969235 0.201729 -0.289675
v 0.926508 0.20386 -0.295923
v 0.93471 0.202611 -0.288972
v 0.926195 0.204039 -0.299517
v 0.941256 0.202251 -0.298427
v 0.942514 0.202153 -0.297153
v 0.943425 0.202227 -0.299537
v 0.970953 0.204175 -0.343883
v 0.970953 0.204254 -0.34568
v 0.962673 0.204011 -0.34568
v 0.967204 0.202107 -0.299595
v 0.969235 0.201729 -0.289675
v 0.969235 0.201806 -0.291393
v 0.942594 0.201803 -0.285329
v 0.9404 0.201914 -0.288443
v 0.93961 0.201992 -0.286896
v 0.927619 0.205733 -0.346503
v 0.925758 0.205843 -0.343972
v 0.929114 0.205528 -0.34525
v 0.986184 0.205578 -0.343883
v 0.996495 0.207014 -0.343883
v 0.988216 0.205853 -0.34568
v 0.963923 0.201514 -0.287097
v 0.955643 0.201331 -0.287097
v 0.953612 0.20141 -0.2853
v 0.962751 0.201678 -0.293424
v 0.955643 0.201545 -0.293424
v 0.962751 0.201601 -0.291705
v 0.963611 0.201982 -0.299517
v 0.955643 0.20174 -0.297798
v 0.963611 0.201904 -0.297798
v 0.931407 0.205418 -0.348008
v 0.931947 0.205549 -0.35223
v 0.929946 0.205728 -0.351723
v 0.950644 0.204041 -0.34568
v 0.948613 0.204019 -0.343883
v 0.958299 0.203798 -0.343883
v 0.958299 0.203798 -0.343883
v 0.958299 0.203879 -0.34568
v 0.950644 0.204041 -0.34568
v 0.962673 0.204289 -0.352007
v 0.960642 0.204733 -0.3581
v 0.960642 0.203873 -0.343883
v 0.962673 0.204213 -0.350288
v 0.953612 0.201881 -0.299517
v 0.955643 0.20147 -0.291705
v 0.955643 0.201545 -0.293424
v 0.937053 0.20495 -0.350288
v 0.944161 0.204515 -0.352007
v 0.937053 0.205026 -0.352007
v 0.955643 0.20174 -0.297798
v 0.963611 0.201982 -0.299517
v 0.953612 0.201881 -0.299517
v 0.996495 0.207014 -0.343883
v 0.996495 0.207085 -0.34568
v 0.988216 0.205853 -0.34568
v 0.955643 0.20147 -0.291705
v 0.953612 0.201881 -0.299517
v 0.953612 0.20141 -0.2853
v 0.970719 0.20487 -0.356381
v 0.970719 0.205037 -0.3581
v 0.960642 0.204733 -0.3581
v 0.977124 0.204666 -0.343883
v 0.979076 0.204863 -0.343883
v 0.979076 0.205464 -0.356381
v 0.988216 0.205853 -0.34568
v 0.986184 0.206306 -0.3581
v 0.986184 0.205578 -0.343883
v 0.995324 0.207151 -0.352007
v 0.988216 0.206102 -0.352007
v 0.988216 0.206035 -0.350288
v 0.93674 0.202318 -0.2853
v 0.93674 0.202785 -0.299517
v 0.93471 0.203026 -0.299517
v 0.93471 0.202611 -0.288972
v 0.986184 0.206306 -0.3581
v 0.988216 0.206035 -0.350288
v 0.988216 0.206102 -0.352007
v 0.955643 0.20147 -0.291705
v 0.962751 0.201601 -0.291705
v 0.955643 0.201545 -0.293424
v 0.918228 0.207558 -0.358178
v 0.920259 0.207174 -0.356381
v 0.925593 0.206448 -0.35634
v 0.960642 0.203873 -0.343883
v 0.970953 0.204175 -0.343883
v 0.962673 0.204011 -0.34568
v 0.984622 0.203559 -0.297798
v 0.986653 0.203404 -0.2853
v 0.986653 0.203801 -0.297798
v 0.940313 0.202284 -0.297031
v 0.941974 0.202115 -0.295873
v 0.942514 0.202153 -0.297153
v 0.947522 0.201706 -0.29082
v 0.947907 0.201775 -0.292688
v 0.943507 0.201974 -0.293834
v 0.943507 0.201974 -0.293834
v 0.942827 0.201919 -0.292055
v 0.947522 0.201706 -0.29082
v 0.945333 0.204196 -0.34568
v 0.937053 0.204748 -0.34568
v 0.935022 0.204873 -0.343883
v 0.945333 0.204115 -0.343883
v 0.937053 0.205301 -0.356381
v 0.94502 0.204846 -0.356381
v 0.935022 0.205629 -0.3581
v 0.9351 0.202514 -0.2853
v 0.93674 0.202318 -0.2853
v 0.93471 0.202611 -0.288972
v 0.929334 0.205644 -0.348402
v 0.929114 0.205528 -0.34525
v 0.931407 0.205418 -0.348008
v 0.949598 0.201675 -0.291729
v 0.947522 0.201706 -0.29082
v 0.948792 0.201606 -0.289531
v 0.935022 0.204873 -0.343883
v 0.937053 0.20495 -0.350288
v 0.937053 0.205026 -0.352007
v 0.97892 0.202474 -0.2853
v 0.973687 0.201903 -0.289675
v 0.976733 0.202197 -0.2853
v 0.974366 0.202062 -0.291441
v 0.975563 0.202143 -0.290064
v 0.976904 0.202332 -0.290736
v 0.937053 0.205026 -0.352007
v 0.935022 0.205629 -0.3581
v 0.935022 0.204873 -0.343883
v 0.930181 0.205963 -0.35602
v 0.928562 0.206035 -0.354701
v 0.929946 0.205728 -0.351723
v 0.931947 0.205549 -0.35223
v 0.976442 0.202381 -0.293094
v 0.976904 0.202332 -0.290736
v 0.978226 0.202556 -0.292266
v 0.969235 0.201806 -0.291393
v 0.969235 0.202094 -0.297798
v 0.967204 0.202107 -0.299595
v 0.948373 0.201574 -0.287859
v 0.949644 0.201538 -0.28664
v 0.950567 0.201498 -0.288255
v 0.988216 0.20638 -0.356381
v 0.996261 0.207533 -0.3581
v 0.986184 0.206306 -0.3581
v 0.926195 0.204039 -0.299517
v 0.924477 0.204273 -0.299517
v 0.926508 0.20386 -0.295923
vn -0.0462 0.9975 0.0531
vn -0.0462 0.9975 0.0531
vn -0.0462 0.9975 0.0531
vn 0.061 0.9934 0.0971
vn 0.061 0.9934 0.0971
vn 0.061 0.9934 0.0971
vn 0.1 0.994 0.0437
vn 0.1 0.994 0.0437
vn 0.1 0.994 0.0437
vn -0.1001 0.9922 0.0744
vn -0.1001 0.9922 0.0744
vn -0.1001 0.9922 0.0744
vn 0.0337 0.9985 0.0438
vn 0.0337 0.9985 0.0438
vn 0.0337 0.9985 0.0438
vn -0.1179 0.9921 0.0436
vn -0.1179 0.9921 0.0436
vn -0.1179 0.9921 0.0436
vn 0.035 0.9993 -0.015
vn 0.035 0.9993 -0.015
vn 0.035 0.9993 -0.015
vn 0.0725 0.9965 0.0413
vn 0.0725 0.9965 0.0413
vn 0.0725 0.9965 0.0413
vn 0.0338 0.9985 0.0438
vn 0.0338 0.9985 0.0438
vn 0.0338 0.9985 0.0438
vn 0.1521 0.9879 0.0297
vn 0.1521 0.9879 0.0297
vn 0.1521 0.9879 0.0297
vn -0.039 0.9965 0.0742
vn -0.039 0.9965 0.0742
vn -0.039 0.9965 0.0742
vn -0.0448 0.9973 0.0574
vn -0.0448 0.9973 0.0574
vn -0.0448 0.9973 0.0574
vn -0.1179 0.9921 0.0436
vn -0.1179 0.9921 0.0436
vn -0.1179 0.9921 0.0436
vn -0.0295 0.9951 0.0938
vn -0.0295 0.9951 0.0938
vn -0.0295 0.9951 0.0938
vn -0.1179 0.9921 0.0436
vn -0.1179 0.9921 0.0436
vn -0.1179 0.9921 0.0436
vn 0.1523 0.9876 0.0386
vn 0.1523 0.9876 0.0386
vn 0.1523 0.9876 0.0386
vn -0.1179 0.9921 0.0436
vn -0.1179 0.9921 0.0436
vn -0.1179 0.9921 0.0436
vn -0.0292 0.9986 0.0438
vn -0.0292 0.9986 0.0438
vn -0.0292 0.9986 0.0438
vn 0.0718 0.9964 0.0449
vn 0.0718 0.9964 0.0449
vn 0.0718 0.9964 0.0449
vn 0.1414 0.9899 0.011
vn 0.1414 0.9899 0.011
vn 0.1414 0.9899 0.011
vn 0.1285 0.9883 0.0818
vn 0.1285 0.9883 0.0818
vn 0.1285 0.9883 0.0818
vn -0.1459 0.9885 0.039
vn -0.1459 0.9885 0.039
vn -0.1459 0.9885 0.039
vn 0.0651 0.9978 -0.0103
vn 0.0651 0.9978 -0.0103
vn 0.0651 0.9978 -0.0103
vn 0.1542 0.9873 0.0389
vn 0.1542 0.9873 0.0389
vn 0.1542 0.9873 0.0389
vn 0.1542 0.9873 0.0389
vn 0.1542 0.9873 0.0389
vn 0.1542 0.9873 0.0389
vn 0.1 0.994 0.0436
vn 0.1 0.994 0.0436
vn 0.1 0.994 0.0436
vn 0.1076 0.9922 0.0624
vn 0.1076 0.9922 0.0624
vn 0.1076 0.9922 0.0624
vn -0.1342 0.9903 0.0364
vn -0.1342 0.9903 0.0364
vn -0.1342 0.9903 0.0364
vn -0.1002 0.9938 0.0478
vn -0.1002 0.9938 0.0478
vn -0.1002 0.9938 0.0478
vn -0.1001 0.9922 0.0744
vn -0.1001 0.9922 0.0744
vn -0.1001 0.9922 0.0744
vn -0.0131 0.9998 -0.0169
vn -0.0131 0.9998 -0.0169
vn -0.0131 0.9998 -0.0169
vn -0.0179 0.9991 0.0394
vn -0.0179 0.9991 0.0394
vn -0.0179 0.9991 0.0394
vn 0.1844 0.9823 0.0331
vn 0.1844 0.9823 0.0331
vn 0.1844 0.9823 0.0331
vn 0.034 0.9994 -0.0055
vn 0.034 0.9994 -0.0055
vn 0.034 0.9994 -0.0055
vn 0.0655 0.9974 0.0301
vn 0.0655 0.9974 0.0301
vn 0.0655 0.9974 0.0301
vn 0.0317 0.9985 0.0445
vn 0.0317 0.9985 0.0445
vn 0.0317 0.9985 0.0445
vn -0.0161 0.9968 0.078
vn -0.0161 0.9968 0.078
vn -0.0161 0.9968 0.078
vn -0.0341 0.9994 0.001
vn -0.0341 0.9994 0.001
vn -0.0341 0.9994 0.001
vn 0.0341 0.9994 -0.0054
vn 0.0341 0.9994 -0.0054
vn 0.0341 0.9994 -0.0054
vn -0.1178 0.9921 0.0436
vn -0.1178 0.9921 0.0436
vn -0.1178 0.9921 0.0436
vn -0.1188 0.9924 0.0317
vn -0.1188 0.9924 0.0317
vn -0.1188 0.9924 0.0317
vn -0.1211 0.9921 0.0335
vn -0.1211 0.9921 0.0335
vn -0.1211 0.9921 0.0335
vn 0.0711 0.9956 0.0618
vn 0.0711 0.9956 0.0618
vn 0.0711 0.9956 0.0618
vn -0.1287 0.9877 0.0891
vn -0.1287 0.9877 0.0891
vn -0.1287 0.9877 0.0891
vn 0.1001 0.994 0.0436
vn 0.1001 0.994 0.0436
vn 0.1001 0.994 0.0436
vn -0.0841 0.9872 0.1356
vn -0.0841 0.9872 0.1356
vn -0.0841 0.9872 0.1356
vn 0.0322 0.9987 0.0403
vn 0.0322 0.9987 0.0403
vn 0.0322 0.9987 0.0403
vn -0.1179 0.9921 0.0436
vn -0.1179 0.9921 0.0436
vn -0.1179 0.9921 0.0436
vn 0.0338 0.9985 0.0438
vn 0.0338 0.9985 0.0438
vn 0.0338 0.9985 0.0438
vn 0.0447 0.997 0.0624
vn 0.0447 0.997 0.0624
vn 0.0447 0.997 0.0624
vn -0.1232 0.9922 0.018
vn -0.1232 0.9922 0.018
vn -0.1232 0.9922 0.018
vn 0.0338 0.9985 0.0438
vn 0.0338 0.9985 0.0438
vn 0.0338 0.9985 0.0438
vn 0.1195 0.9918 0.045
vn 0.1195 0.9918 0.045
vn 0.1195 0.9918 0.045
vn -0.0896 0.994 0.0631
vn -0.0896 0.994 0.0631
vn -0.0896 0.994 0.0631
vn -0.0292 0.9986 0.0438
vn -0.0292 0.9986 0.0438
vn -0.0292 0.9986 0.0438
vn 0.0338 0.9985 0.0438
vn 0.0338 0.9985 0.0438
vn 0.0338 0.9985 0.0438
vn 0.0309 0.999 0.0317
vn 0.0309 0.999 0.0317
vn 0.0309 0.999 0.0317
vn 0.0402 0.9988 0.0291
vn 0.0402 0.9988 0.0291
vn 0.0402 0.9988 0.0291
vn -0.0707 0.9928 0.0964
vn -0.0707 0.9928 0.0964
vn -0.0707 0.9928 0.0964
vn -0.1178 0.9921 0.0435
vn -0.1178 0.9921 0.0435
vn -0.1178 0.9921 0.0435
vn -0.1178 0.9921 0.0435
vn -0.1178 0.9921 0.0435
vn -0.1178 0.9921 0.0435
vn -0.1179 0.9921 0.0436
vn -0.1179 0.9921 0.0436
vn -0.1179 0.9921 0.0436
vn 0.0355 0.9985 0.0414
vn 0.0355 0.9985 0.0414
vn 0.0355 0.9985 0.0414
vn 0.0367 0.9983 0.0449
vn 0.0367 0.9983 0.0449
vn 0.0367 0.9983 0.0449
vn -0.0292 0.9986 0.0438
vn -0.0292 0.9986 0.0438
vn -0.0292 0.9986 0.0438
vn 0.0603 0.998 0.0176
vn 0.0603 0.998 0.0176
vn 0.0603 0.998 0.0176
vn -0.1179 0.9921 0.0436
vn -0.1179 0.9921 0.0436
vn -0.1179 0.9921 0.0436
vn 0.1885 0.9815 0.0337
vn 0.1885 0.9815 0.0337
vn 0.1885 0.9815 0.0337
vn 0.0338 0.9985 0.0438
vn 0.0338 0.9985 0.0438
vn 0.0338 0.9985 0.0438
vn 0.0338 0.9985 0.0438
vn 0.0376 0.9993 -0.0087
vn 0.0376 0.9993 -0.0087
vn 0.0376 0.9993 -0.0087
vn 0.1001 0.9926 0.0688
vn 0.1001 0.9926 0.0688
vn 0.1001 0.9926 0.0688
vn 0.1363 0.9902 0.0306
vn 0.1363 0.9902 0.0306
vn 0.1363 0.9902 0.0306
vn 0.1363 0.9902 0.0306
vn 0.0701 0.9968 0.0375
vn 0.0701 0.9968 0.0375
vn 0.0701 0.9968 0.0375
vn 0.0299 0.9974 0.0648
vn 0.0299 0.9974 0.0648
vn 0.0299 0.9974 0.0648
vn 0.1001 0.9926 0.0688
vn 0.1001 0.9926 0.0688
vn 0.1001 0.9926 0.0688
vn -0.0492 0.9978 0.0449
vn -0.0492 0.9978 0.0449
vn -0.0492 0.9978 0.0449
vn 0.118 0.9922 0.0391
vn 0.118 0.9922 0.0391
vn 0.118 0.9922 0.0391
vn 0.0338 0.9985 0.0438
vn 0.0338 0.9985 0.0438
vn 0.0338 0.9985 0.0438
vn -0.0292 0.9986 0.0438
vn -0.0292 0.9986 0.0438
vn -0.0292 0.9986 0.0438
vn -0.0335 0.9984 0.0449
vn -0.0335 0.9984 0.0449
vn -0.0335 0.9984 0.0449
vn 0.0706 0.9974 -0.0142
vn 0.0706 0.9974 -0.0142
vn 0.0706 0.9974 -0.0142
vn 0.1068 0.9936 0.0355
vn 0.1068 0.9936 0.0355
vn 0.1068 0.9936 0.0355
vn -0.1379 0.9904 -0.0043
vn -0.1379 0.9904 -0.0043
vn -0.1379 0.9904 -0.0043
vn -0.0221 0.9974 -0.0689
vn -0.0221 0.9974 -0.0689
vn -0.0221 0.9974 -0.0689
vn -0.0187 0.9988 0.0449
vn -0.0187 0.9988 0.0449
vn -0.0187 0.9988 0.0449
vn -0.0206 0.9988 0.0449
vn -0.0206 0.9988 0.0449
vn -0.0206 0.9988 0.0449
vn 0.1 0.994 0.0436
vn 0.1 0.994 0.0436
vn 0.1 0.994 0.0436
vn 0.0228 0.999 0.0377
vn 0.0228 0.999 0.0377
vn 0.0228 0.999 0.0377
vn 0.0211 0.9988 0.0449
vn 0.0211 0.9988 0.0449
vn 0.0211 0.9988 0.0449
vn 0.03 0.9978 0.0586
vn 0.03 0.9978 0.0586
vn 0.03 0.9978 0.0586
vn 0.03 0.9978 0.0586
vn 0.0338 0.9985 0.0438
vn 0.0338 0.9985 0.0438
vn 0.0338 0.9985 0.0438
vn 0.0716 0.9965 0.0438
vn 0.0716 0.9965 0.0438
vn 0.0716 0.9965 0.0438
vn -0.01 0.9956 0.0936
vn -0.01 0.9956 0.0936
vn -0.01 0.9956 0.0936
vn -0.147 0.9884 0.039
vn -0.147 0.9884 0.039
vn -0.147 0.9884 0.039
vn 0.0747 0.9967 0.0331
vn 0.0747 0.9967 0.0331
vn 0.0747 0.9967 0.0331
vn -0.03 0.9949 0.0965
vn -0.03 0.9949 0.0965
vn -0.03 0.9949 0.0965
vn -0.1 0.9938 0.0478
vn -0.1 0.9938 0.0478
vn -0.1 0.9938 0.0478
vn -0.0897 0.9947 0.0509
vn -0.0897 0.9947 0.0509
vn -0.0897 0.9947 0.0509
vn -0.1459 0.9885 0.039
vn -0.1459 0.9885 0.039
vn -0.1459 0.9885 0.039
vn 0.0987 0.9945 0.0354
vn 0.0987 0.9945 0.0354
vn 0.0987 0.9945 0.0354
vn 0.0987 0.9945 0.0354
vn -0.0181 0.9991 0.0394
vn -0.0181 0.9991 0.0394
vn -0.0181 0.9991 0.0394
vn -0.0184 0.9989 0.0438
vn -0.0184 0.9989 0.0438
vn -0.0184 0.9989 0.0438
vn 0.1342 0.9892 0.0594
vn 0.1342 0.9892 0.0594
vn 0.1342 0.9892 0.0594
vn -0.0292 0.9986 0.0438
vn -0.0292 0.9986 0.0438
vn -0.0292 0.9986 0.0438
vn -0.1179 0.9925 0.0315
vn -0.1179 0.9925 0.0315
vn -0.1179 0.9925 0.0315
vn 0.0623 0.9965 0.0558
vn 0.0623 0.9965 0.0558
vn 0.0623 0.9965 0.0558
vn 0.0338 0.9985 0.0438
vn 0.0338 0.9985 0.0438
vn 0.0338 0.9985 0.0438
vn 0.0338 0.9985 0.0438
vn 0.0338 0.9985 0.0438
vn 0.0338 0.9985 0.0438
vn 0.0702 0.9972 0.0273
vn 0.0702 0.9972 0.0273
vn 0.0702 0.9972 0.0273
vn 0.0702 0.9972 0.0273
vn 0.0565 0.9909 0.1225
vn 0.0565 0.9909 0.1225
vn 0.0565 0.9909 0.1225
vn 0.1186 0.9928 0.0135
vn 0.1186 0.9928 0.0135
vn 0.1186 0.9928 0.0135
vn 0.1001 0.994 0.0437
vn 0.1001 0.994 0.0437
vn 0.1001 0.994 0.0437
vn 0.0337 0.9985 0.0438
vn 0.0337 0.9985 0.0438
vn 0.0337 0.9985 0.0438
vn 0.1 0.994 0.0437
vn 0.1 0.994 0.0437
vn 0.1 0.994 0.0437
vn -0.1256 0.9919 0.0209
vn -0.1256 0.9919 0.0209
vn -0.1256 0.9919 0.0209
vn -0.1179 0.9921 0.0435
vn -0.1179 0.9921 0.0435
vn -0.1179 0.9921 0.0435
vn 0.1361 0.9893 0.0526
vn 0.1361 0.9893 0.0526
vn 0.1361 0.9893 0.0526
vn 0.0989 0.9933 0.0597
vn 0.0989 0.9933 0.0597
vn 0.0989 0.9933 0.0597
vn 0.0989 0.9933 0.0597
vn -0.1179 0.9921 0.0436
vn -0.1179 0.9921 0.0436
vn -0.1179 0.9921 0.0436
vn -0.0338 0.9984 0.0449
vn -0.0338 0.9984 0.0449
vn -0.0338 0.9984 0.0449
vn 0.034 0.9994 -0.0055
vn 0.034 0.9994 -0.0055
vn 0.034 0.9994 -0.0055
vn -0.1203 0.9877 0.0997
vn -0.1203 0.9877 0.0997
vn -0.1203 0.9877 0.0997
vn 0.1347 0.9902 0.0376
vn 0.1347 0.9902 0.0376
vn 0.1347 0.9902 0.0376
vt 0.978091 0.429815
vt 0.975533 0.430665
vt 0.977977 0.430702
vt 0.958826 0.401217
vt 0.963708 0.402056
vt 0.963708 0.401217
vt 0.95521 0.40688
vt 0.95594 0.407492
vt 0.956048 0.405953
vt 0.980339 0.402056
vt 0.982743 0.401217
vt 0.979386 0.402056
vt 0.96493 0.434073
vt 0.965944 0.433629
vt 0.965118 0.43316
vt 0.979072 0.431514
vt 0.980156 0.432359
vt 0.980031 0.431342
vt 0.962523 0.436754
vt 0.96427 0.436009
vt 0.962662 0.435854
vt 0.96222 0.431605
vt 0.96141 0.43104
vt 0.961307 0.432185
vt 0.962929 0.429816
vt 0.962484 0.43098
vt 0.963327 0.430617
vt 0.953934 0.407312
vt 0.950625 0.408121
vt 0.954302 0.408116
vt 0.978039 0.433769
vt 0.975533 0.434632
vt 0.977707 0.434632
vt 0.974541 0.429788
vt 0.975533 0.430665
vt 0.978091 0.429815
vt 0.978039 0.433769
vt 0.979278 0.434114
vt 0.979053 0.432962
vt 0.972329 0.402056
vt 0.976258 0.402056
vt 0.971337 0.401217
vt 0.979072 0.431514
vt 0.980031 0.431342
vt 0.979458 0.430477
vt 0.951616 0.402056
vt 0.950625 0.401179
vt 0.950625 0.408121
vt 0.977977 0.430702
vt 0.979458 0.430477
vt 0.978091 0.429815
vt 0.972329 0.405032
vt 0.971337 0.408159
vt 0.972329 0.407282
vt 0.963289 0.405032
vt 0.963289 0.404193
vt 0.959818 0.405032
vt 0.958864 0.436768
vt 0.958673 0.434975
vt 0.954668 0.43158
vt 0.950625 0.401179
vt 0.954221 0.402077
vt 0.954613 0.401222
vt 0.984802 0.405032
vt 0.988274 0.405032
vt 0.988274 0.404193
vt 0.962523 0.436754
vt 0.962662 0.435854
vt 0.961452 0.435234
vt 0.953934 0.407312
vt 0.951616 0.40732
vt 0.950625 0.408121
vt 0.950625 0.408121
vt 0.951616 0.40732
vt 0.951616 0.402056
vt 0.958826 0.408159
vt 0.959818 0.407282
vt 0.959818 0.405032
vt 0.958826 0.401217
vt 0.959818 0.404193
vt 0.959818 0.402056
vt 0.984802 0.402056
vt 0.988731 0.402056
vt 0.988731 0.401217
vt 0.979386 0.408159
vt 0.980339 0.402056
vt 0.979386 0.402056
vt 0.980339 0.402056
vt 0.982743 0.402056
vt 0.982743 0.401217
vt 0.972939 0.436768
vt 0.972939 0.435891
vt 0.967904 0.436768
vt 0.98381 0.401217
vt 0.984802 0.407282
vt 0.984802 0.405032
vt 0.951616 0.429826
vt 0.950625 0.429826
vt 0.950625 0.436768
vt 0.965966 0.436114
vt 0.965346 0.435519
vt 0.964955 0.436746
vt 0.967904 0.436768
vt 0.968896 0.435891
vt 0.968896 0.43364
vt 0.967904 0.429826
vt 0.968896 0.432801
vt 0.968896 0.430665
vt 0.971337 0.401217
vt 0.972329 0.404193
vt 0.972329 0.402056
vt 0.974541 0.43673
vt 0.975533 0.43673
vt 0.975533 0.434632
vt 0.965346 0.435519
vt 0.96427 0.436009
vt 0.964955 0.436746
vt 0.980156 0.432359
vt 0.979053 0.432962
vt 0.979924 0.433367
vt 0.983048 0.436768
vt 0.984039 0.436768
vt 0.983048 0.430665
vt 0.986404 0.429826
vt 0.980644 0.429826
vt 0.986404 0.430665
vt 0.962312 0.432141
vt 0.961307 0.432185
vt 0.961816 0.433003
vt 0.980644 0.429826
vt 0.984039 0.430665
vt 0.986404 0.430665
vt 0.957061 0.406145
vt 0.956347 0.404331
vt 0.956048 0.405953
vt 0.976983 0.401217
vt 0.979386 0.402056
vt 0.982743 0.401217
vt 0.96555 0.434702
vt 0.966417 0.435325
vt 0.966404 0.43431
vt 0.980644 0.429826
vt 0.980644 0.430665
vt 0.983048 0.430665
vt 0.966157 0.430341
vt 0.964641 0.430643
vt 0.965808 0.431155
vt 0.965463 0.408159
vt 0.966455 0.407282
vt 0.965463 0.401217
vt 0.978624 0.434442
vt 0.977707 0.434632
vt 0.980263 0.436768
vt 0.96555 0.434702
vt 0.966404 0.43431
vt 0.965944 0.433629
vt 0.953934 0.407312
vt 0.954302 0.408116
vt 0.95521 0.40688
vt 0.984802 0.402056
vt 0.98381 0.401217
vt 0.984802 0.404193
vt 0.972329 0.405032
vt 0.975838 0.404193
vt 0.972329 0.404193
vt 0.966157 0.430341
vt 0.964772 0.429791
vt 0.964641 0.430643
vt 0.974541 0.43673
vt 0.975533 0.434632
vt 0.974541 0.429788
vt 0.966417 0.435325
vt 0.96555 0.434702
vt 0.965346 0.435519
vt 0.976983 0.402056
vt 0.979386 0.402056
vt 0.976983 0.401217
vt 0.980644 0.429826
vt 0.983048 0.430665
vt 0.984039 0.430665
vt 0.978039 0.433769
vt 0.977707 0.434632
vt 0.978624 0.434442
vt 0.979072 0.431514
vt 0.979458 0.430477
vt 0.977977 0.430702
vt 0.961816 0.433003
vt 0.962969 0.432601
vt 0.962312 0.432141
vt 0.962969 0.432601
vt 0.961816 0.433003
vt 0.962637 0.43347
vt 0.975838 0.404193
vt 0.972329 0.405032
vt 0.975838 0.405032
vt 0.96141 0.43104
vt 0.962484 0.43098
vt 0.96187 0.430358
vt 0.979072 0.431514
vt 0.979053 0.432962
vt 0.980156 0.432359
vt 0.951616 0.436768
vt 0.951616 0.429826
vt 0.950625 0.436768
vt 0.964641 0.430643
vt 0.964772 0.429791
vt 0.962929 0.429816
vt 0.963327 0.430617
vt 0.964955 0.436746
vt 0.96427 0.436009
vt 0.962523 0.436754
vt 0.956462 0.402233
vt 0.954613 0.401222
vt 0.955671 0.402877
vt 0.954668 0.43158
vt 0.953676 0.429826
vt 0.953676 0.436768
vt 0.954668 0.436768
vt 0.961307 0.432185
vt 0.962312 0.432141
vt 0.96222 0.431605
vt 0.965463 0.401217
vt 0.966455 0.407282
vt 0.966455 0.401217
vt 0.954221 0.402077
vt 0.955671 0.402877
vt 0.954613 0.401222
vt 0.978039 0.433769
vt 0.975533 0.433793
vt 0.975533 0.434632
vt 0.954668 0.43158
vt 0.958673 0.434975
vt 0.954515 0.429826
vt 0.96187 0.430358
vt 0.962484 0.43098
vt 0.962929 0.429816
vt 0.976372 0.408159
vt 0.976372 0.407282
vt 0.972329 0.407282
vt 0.974541 0.429788
vt 0.975533 0.434632
vt 0.975533 0.433793
vt 0.962523 0.436754
vt 0.961452 0.435234
vt 0.961066 0.435989
vt 0.95521 0.40688
vt 0.954302 0.408116
vt 0.95594 0.407492
vt 0.98381 0.408159
vt 0.988845 0.408159
vt 0.984802 0.407282
vt 0.972939 0.435891
vt 0.968896 0.435891
vt 0.967904 0.436768
vt 0.972367 0.432801
vt 0.968896 0.432801
vt 0.972367 0.43364
vt 0.972787 0.429826
vt 0.968896 0.430665
vt 0.972787 0.430665
vt 0.957061 0.406145
vt 0.957324 0.404084
vt 0.956347 0.404331
vt 0.966455 0.407282
vt 0.965463 0.408159
vt 0.970193 0.408159
vt 0.970193 0.408159
vt 0.970193 0.407282
vt 0.966455 0.407282
vt 0.972329 0.404193
vt 0.971337 0.401217
vt 0.971337 0.408159
vt 0.972329 0.405032
vt 0.967904 0.429826
vt 0.968896 0.43364
vt 0.968896 0.432801
vt 0.959818 0.405032
vt 0.963289 0.404193
vt 0.959818 0.404193
vt 0.968896 0.430665
vt 0.972787 0.429826
vt 0.967904 0.429826
vt 0.988845 0.408159
vt 0.988845 0.407282
vt 0.984802 0.407282
vt 0.968896 0.43364
vt 0.967904 0.429826
vt 0.967904 0.436768
vt 0.976258 0.402056
vt 0.976258 0.401217
vt 0.971337 0.401217
vt 0.979386 0.408159
vt 0.980339 0.408159
vt 0.980339 0.402056
vt 0.984802 0.407282
vt 0.98381 0.401217
vt 0.98381 0.408159
vt 0.988274 0.404193
vt 0.984802 0.404193
vt 0.984802 0.405032
vt 0.959665 0.436768
vt 0.959665 0.429826
vt 0.958673 0.429826
vt 0.958673 0.434975
vt 0.98381 0.401217
vt 0.984802 0.405032
vt 0.984802 0.404193
vt 0.968896 0.43364
vt 0.972367 0.43364
vt 0.968896 0.432801
vt 0.950625 0.401179
vt 0.951616 0.402056
vt 0.954221 0.402077
vt 0.971337 0.408159
vt 0.976372 0.408159
vt 0.972329 0.407282
vt 0.983048 0.430665
vt 0.984039 0.436768
vt 0.984039 0.430665
vt 0.96141 0.43104
vt 0.96222 0.431605
vt 0.962484 0.43098
vt 0.96493 0.434073
vt 0.965118 0.43316
vt 0.962969 0.432601
vt 0.962969 0.432601
vt 0.962637 0.43347
vt 0.96493 0.434073
vt 0.963861 0.407282
vt 0.959818 0.407282
vt 0.958826 0.408159
vt 0.963861 0.408159
vt 0.959818 0.402056
vt 0.963708 0.402056
vt 0.958826 0.401217
vt 0.958864 0.436768
vt 0.959665 0.436768
vt 0.958673 0.434975
vt 0.956048 0.405953
vt 0.95594 0.407492
vt 0.957061 0.406145
vt 0.965944 0.433629
vt 0.96493 0.434073
vt 0.96555 0.434702
vt 0.958826 0.408159
vt 0.959818 0.405032
vt 0.959818 0.404193
vt 0.980263 0.436768
vt 0.977707 0.434632
vt 0.979195 0.436768
vt 0.978039 0.433769
vt 0.978624 0.434442
vt 0.979278 0.434114
vt 0.959818 0.404193
vt 0.958826 0.401217
vt 0.958826 0.408159
vt 0.956462 0.402233
vt 0.955671 0.402877
vt 0.956347 0.404331
vt 0.957324 0.404084
vt 0.979053 0.432962
vt 0.979278 0.434114
vt 0.979924 0.433367
vt 0.975533 0.433793
vt 0.975533 0.430665
vt 0.974541 0.429788
vt 0.965346 0.435519
vt 0.965966 0.436114
vt 0.966417 0.435325
vt 0.984802 0.402056
vt 0.988731 0.401217
vt 0.98381 0.401217
vt 0.954515 0.429826
vt 0.953676 0.429826
vt 0.954668 0.43158
s off
f 1/1/1 2/2/2 3/3/3
f 4/4/4 5/5/5 6/6/6
f 7/7/7 8/8/8 9/9/9
f 10/10/10 11/11/11 12/12/12
f 13/13/13 14/14/14 15/15/15
f 16/16/16 17/17/17 18/18/18
f 19/19/19 20/20/20 21/21/21
f 22/22/22 23/23/23 24/24/24
f 25/25/25 26/26/26 27/27/27
f 28/28/28 29/29/29 30/30/30
f 31/31/31 32/32/32 33/33/33
f 34/34/34 35/35/35 36/36/36
f 37/37/37 38/38/38 39/39/39
f 40/40/40 41/41/41 42/42/42
f 43/43/43 44/44/44 45/45/45
f 46/46/46 47/47/47 48/48/48
f 49/49/49 50/50/50 51/51/51
f 52/52/52 53/53/53 54/54/54
f 55/55/55 56/56/56 57/57/57
f 58/58/58 59/59/59 60/60/60
f 61/61/61 62/62/62 63/63/63
f 64/64/64 65/65/65 66/66/66
f 67/67/67 68/68/68 69/69/69
f 70/70/70 71/71/71 72/72/72
f 73/73/73 74/74/74 75/75/75
f 76/76/76 77/77/77 78/78/78
f 79/79/79 80/80/80 81/81/81
f 82/82/82 83/83/83 84/84/84
f 85/85/85 86/86/86 87/87/87
f 88/88/88 89/89/89 90/90/90
f 91/91/91 92/92/92 93/93/93
f 94/94/94 95/95/95 96/96/96
f 97/97/97 98/98/98 99/99/99
f 100/100/100 101/101/101 102/102/102
f 103/103/103 104/104/104 105/105/105
f 106/106/106 107/107/107 108/108/108
f 109/109/109 110/110/110 111/111/111
f 112/112/112 113/113/113 114/114/114
f 115/115/115 116/116/116 117/117/117
f 118/118/118 119/119/119 120/120/120
f 121/121/121 122/122/122 123/123/123
f 124/124/124 125/125/125 126/126/126
f 127/127/127 128/128/128 129/129/129
f 130/130/130 131/131/131 132/132/132
f 133/133/133 134/134/134 135/135/135
f 136/136/136 137/137/137 138/138/138
f 139/139/139 140/140/140 141/141/141
f 142/142/142 143/143/143 144/144/144
f 145/145/145 146/146/146 147/147/147
f 148/148/148 149/149/149 150/150/150
f 151/151/151 152/152/152 153/153/153
f 154/154/154 155/155/155 156/156/156
f 157/157/157 158/158/158 159/159/159
f 160/160/160 161/161/161 162/162/162
f 163/163/163 164/164/164 165/165/165
f 166/166/166 167/167/167 168/168/168
f 169/169/169 170/170/170 171/171/171
f 172/172/172 173/173/173 174/174/174
f 175/175/175 176/176/176 177/177/177
f 178/178/178 179/179/179 180/180/180
f 181/181/181 182/182/182 183/183/183
f 184/184/184 185/185/185 186/186/186
f 187/187/187 188/188/188 189/189/189
f 190/190/190 191/191/191 192/192/192
f 193/193/193 194/194/194 195/195/195
f 196/196/196 197/197/197 198/198/198
f 199/199/199 200/200/200 201/201/201
f 202/202/202 203/203/203 204/204/204
f 205/205/205 206/206/206 207/207/207
f 205/205/205 207/207/207 208/208/208
f 209/209/209 210/210/210 211/211/211
f 212/212/212 213/213/213 214/214/214
f 215/215/215 216/216/216 217/217/217
f 215/215/215 217/217/217 218/218/218
f 219/219/219 220/220/220 221/221/221
f 222/222/222 223/223/223 224/224/224
f 225/225/225 226/226/226 227/227/227
f 228/228/228 229/229/229 230/230/230
f 231/231/231 232/232/232 233/233/233
f 234/234/234 235/235/235 236/236/236
f 237/237/237 238/238/238 239/239/239
f 240/240/240 241/241/241 242/242/242
f 243/243/243 244/244/244 245/245/245
f 246/246/246 247/247/247 248/248/248
f 249/249/249 250/250/250 251/251/251
f 252/252/252 253/253/253 254/254/254
f 255/255/255 256/256/256 257/257/257
f 258/258/258 259/259/259 260/260/260
f 261/261/261 262/262/262 263/263/263
f 264/264/264 265/265/265 266/266/266
f 267/267/267 268/268/268 269/269/269
f 270/270/270 271/271/271 272/272/272
f 270/270/270 272/272/272 273/273/273
f 274/274/274 275/275/275 276/276/276
f 277/277/277 278/278/278 279/279/279
f 280/280/280 281/281/281 282/282/282
f 283/283/283 284/284/284 285/285/285
f 286/286/286 287/287/287 288/288/288
f 289/289/289 290/290/290 291/291/291
f 292/292/292 293/293/293 294/294/294
f 295/295/295 296/296/296 297/297/297
f 298/298/298 299/299/299 300/300/300
f 301/301/301 302/302/302 303/303/303
f 301/301/301 303/303/303 304/304/304
f 305/305/305 306/306/306 307/307/307
f 308/308/308 309/309/309 310/310/310
f 311/311/311 312/312/312 313/313/313
f 314/314/314 315/315/315 316/316/316
f 317/317/317 318/318/318 319/319/319
f 320/320/320 321/321/321 322/322/322
f 323/323/323 324/324/324 325/325/325
f 326/326/326 327/327/327 328/328/328
f 329/329/329 330/330/330 331/331/331
f 329/329/329 331/331/331 332/332/332
f 333/333/333 334/334/334 335/335/335
f 336/336/336 337/337/337 338/338/338
f 339/339/339 340/340/340 341/341/341
f 342/342/342 343/343/343 344/344/344
f 345/345/345 346/346/346 347/347/347
f 348/348/348 349/349/349 350/350/350
f 351/351/351 352/352/352 353/353/353
f 354/354/354 355/355/355 356/356/356
f 357/357/357 358/358/358 359/359/359
f 357/357/357 359/359/359 360/360/360
f 361/361/361 362/362/362 363/363/363
f 364/364/364 365/365/365 366/366/366
f 367/367/367 368/368/368 369/369/369
f 370/370/370 371/371/371 372/372/372
f 373/373/373 374/374/374 375/375/375
