v -0.536505 0.180229 -0.083931
v -0.524163 0.179252 -0.083931
v -0.536505 0.180376 -0.086899
v -0.524163 0.179252 -0.083931
v -0.524163 0.179401 -0.086899
v -0.536505 0.180376 -0.086899
v -0.54002 0.181257 -0.097522
v -0.536505 0.180376 -0.086899
v -0.536505 0.180751 -0.094476
v -0.54002 0.181257 -0.097522
v -0.536505 0.180229 -0.083931
v -0.536505 0.180376 -0.086899
v -0.536505 0.180751 -0.094476
v -0.522679 0.17999 -0.097522
v -0.54002 0.181257 -0.097522
v -0.536505 0.180229 -0.083931
v -0.54002 0.181257 -0.097522
v -0.54002 0.180082 -0.072918
v -0.536505 0.179834 -0.075964
v -0.54002 0.180082 -0.072918
v -0.522211 0.178641 -0.072918
v -0.54002 0.180082 -0.072918
v -0.536505 0.179834 -0.075964
v -0.536505 0.180229 -0.083931
v -0.522211 0.178641 -0.072918
v -0.522211 0.178792 -0.075964
v -0.536505 0.179834 -0.075964
v -0.536505 0.180751 -0.094476
v -0.522679 0.17975 -0.094476
v -0.522679 0.17999 -0.097522
vn 0.0788 0.9957 0.0494
vn 0.0788 0.9957 0.0494
vn 0.0788 0.9957 0.0494
vn 0.0786 0.9956 0.0501
vn 0.0786 0.9956 0.0501
vn 0.0786 0.9956 0.0501
vn 0.1004 0.9937 0.0492
vn 0.1004 0.9937 0.0492
vn 0.1004 0.9937 0.0492
vn 0.1004 0.9937 0.0493
vn 0.1004 0.9937 0.0493
vn 0.1004 0.9937 0.0493
vn 0.0726 0.994 0.0813
vn 0.0726 0.994 0.0813
vn 0.0726 0.994 0.0813
vn 0.1072 0.9931 0.0474
vn 0.1072 0.9931 0.0474
vn 0.1072 0.9931 0.0474
vn 0.0807 0.9967 0.0118
vn 0.0807 0.9967 0.0118
vn 0.0807 0.9967 0.0118
vn 0.1128 0.9924 0.0492
vn 0.1128 0.9924 0.0492
vn 0.1128 0.9924 0.0492
vn 0.0726 0.9961 0.0493
vn 0.0726 0.9961 0.0493
vn 0.0726 0.9961 0.0493
vn 0.072 0.9943 0.0784
vn 0.072 0.9943 0.0784
vn 0.072 0.9943 0.0784
vt 0.240216 0.535106
vt 0.246242 0.535106
vt 0.240216 0.533656
vt 0.246242 0.535106
vt 0.246242 0.533656
vt 0.240216 0.533656
vt 0.238499 0.528468
vt 0.240216 0.533656
vt 0.240216 0.529956
vt 0.238499 0.528468
vt 0.240216 0.535106
vt 0.240216 0.533656
vt 0.240216 0.529956
vt 0.246967 0.528468
vt 0.238499 0.528468
vt 0.240216 0.535106
vt 0.238499 0.528468
vt 0.238499 0.540484
vt 0.240216 0.538996
vt 0.238499 0.540484
vt 0.247196 0.540484
vt 0.238499 0.540484
vt 0.240216 0.538996
vt 0.240216 0.535106
vt 0.247196 0.540484
vt 0.247196 0.538996
vt 0.240216 0.538996
vt 0.240216 0.529956
vt 0.246967 0.529956
vt 0.246967 0.528468
s off
f 1/1/1 2/2/2 3/3/3
f 4/4/4 5/5/5 6/6/6
f 7/7/7 8/8/8 9/9/9
f 10/10/10 11/11/11 12/12/12
f 13/13/13 14/14/14 15/15/15
f 16/16/16 17/17/17 18/18/18
f 19/19/19 20/20/20 21/21/21
f 22/22/22 23/23/23 24/24/24
f 25/25/25 26/26/26 27/27/27
f 28/28/28 29/29/29 30/30/30
