v 0.97275 0.163295 0.180552
v 0.970016 0.162952 0.178052
v 0.970016 0.165068 0.197892
v 0.942365 0.165133 0.19797
v 0.930804 0.166034 0.195471
v 0.927914 0.166667 0.19797
v 0.927914 0.166667 0.19797
v 0.930804 0.165042 0.186644
v 0.930804 0.164358 0.180552
v 0.946973 0.162848 0.178052
v 0.949785 0.164874 0.19797
v 0.949785 0.163302 0.183129
v 0.97275 0.164887 0.195471
v 0.980007 0.165968 0.197873
v 0.980379 0.165748 0.195386
v 0.940724 0.164273 0.189066
v 0.930804 0.165042 0.186644
v 0.930804 0.165314 0.189066
v 0.942365 0.164866 0.195471
v 0.930804 0.166034 0.195471
v 0.942365 0.165133 0.19797
v 0.97275 0.164887 0.195471
v 0.970016 0.165068 0.197892
v 0.980007 0.165968 0.197873
v 0.986223 0.164746 0.180753
v 0.983935 0.164704 0.182386
v 0.985794 0.165185 0.185036
v 0.949785 0.164874 0.19797
v 0.946973 0.162848 0.178052
v 0.946973 0.164972 0.19797
v 0.983935 0.164704 0.182386
v 0.986223 0.164746 0.180753
v 0.981023 0.16394 0.17814
v 0.989142 0.165845 0.187972
v 0.986298 0.165542 0.18777
v 0.985874 0.165832 0.190725
v 0.930804 0.164358 0.180552
v 0.941974 0.163021 0.178052
v 0.927914 0.164429 0.178052
v 0.985874 0.165832 0.190725
v 0.988219 0.166256 0.192438
v 0.989142 0.165845 0.187972
v 0.984878 0.166361 0.196299
v 0.98411 0.165966 0.193459
v 0.980379 0.165748 0.195386
v 0.981023 0.16394 0.17814
v 0.97275 0.163295 0.180552
v 0.980127 0.16413 0.180616
v 0.930804 0.165314 0.189066
v 0.927914 0.166667 0.19797
v 0.930804 0.166034 0.195471
v 0.985794 0.165185 0.185036
v 0.988509 0.165377 0.184366
v 0.986223 0.164746 0.180753
v 0.970016 0.162952 0.178052
v 0.97275 0.163295 0.180552
v 0.981023 0.16394 0.17814
v 0.98411 0.165966 0.193459
v 0.988219 0.166256 0.192438
v 0.985874 0.165832 0.190725
v 0.961189 0.16425 0.192893
v 0.949785 0.163302 0.183129
v 0.961736 0.164803 0.19797
v 0.927914 0.164429 0.178052
v 0.927914 0.166667 0.19797
v 0.930804 0.164358 0.180552
v 0.964001 0.162782 0.178052
v 0.961189 0.162691 0.178052
v 0.961189 0.16425 0.192893
v 0.964001 0.164882 0.19797
v 0.940724 0.164273 0.189066
v 0.940724 0.164015 0.186644
v 0.930804 0.165042 0.186644
v 0.941974 0.163021 0.178052
v 0.930804 0.164358 0.180552
v 0.941974 0.163288 0.180552
v 0.980127 0.16413 0.180616
v 0.983935 0.164704 0.182386
v 0.981023 0.16394 0.17814
v 0.970016 0.165068 0.197892
v 0.97275 0.164887 0.195471
v 0.97275 0.163295 0.180552
v 0.986298 0.165542 0.18777
v 0.989142 0.165845 0.187972
v 0.988509 0.165377 0.184366
v 0.985794 0.165185 0.185036
v 0.927914 0.166667 0.19797
v 0.930804 0.165314 0.189066
v 0.930804 0.165042 0.186644
v 0.949316 0.162782 0.178052
v 0.946973 0.162848 0.178052
v 0.949785 0.163302 0.183129
v 0.961736 0.164803 0.19797
v 0.964001 0.164882 0.19797
v 0.961189 0.16425 0.192893
v 0.98411 0.165966 0.193459
v 0.984878 0.166361 0.196299
v 0.988219 0.166256 0.192438
v 0.949785 0.163302 0.183129
v 0.961189 0.16425 0.192893
v 0.949316 0.162782 0.178052
v 0.980379 0.165748 0.195386
v 0.980007 0.165968 0.197873
v 0.984878 0.166361 0.196299
vn -0.028 0.994 -0.106
vn -0.028 0.994 -0.106
vn -0.028 0.994 -0.106
vn 0.1047 0.9861 -0.1287
vn 0.1047 0.9861 -0.1287
vn 0.1047 0.9861 -0.1287
vn 0.1203 0.9865 -0.1109
vn 0.1203 0.9865 -0.1109
vn 0.1203 0.9865 -0.1109
vn 0.0296 0.994 -0.1053
vn 0.0296 0.994 -0.1053
vn 0.0296 0.994 -0.1053
vn -0.1126 0.9882 -0.1042
vn -0.1126 0.9882 -0.1042
vn -0.1126 0.9882 -0.1042
vn 0.1037 0.9884 -0.1111
vn 0.1037 0.9884 -0.1111
vn 0.1037 0.9884 -0.1111
vn 0.1 0.9894 -0.1056
vn 0.1 0.9894 -0.1056
vn 0.1 0.9894 -0.1056
vn -0.0886 0.9808 -0.1735
vn -0.0886 0.9808 -0.1735
vn -0.0886 0.9808 -0.1735
vn -0.0974 0.989 -0.1112
vn -0.0974 0.989 -0.1112
vn -0.0974 0.989 -0.1112
vn 0.0346 0.9938 -0.106
vn 0.0346 0.9938 -0.106
vn 0.0346 0.9938 -0.106
vn -0.0974 0.989 -0.1112
vn -0.0974 0.989 -0.1112
vn -0.0974 0.989 -0.1112
vn -0.0974 0.989 -0.1112
vn -0.0974 0.989 -0.1112
vn -0.0974 0.989 -0.1112
vn 0.0992 0.9913 -0.0865
vn 0.0992 0.9913 -0.0865
vn 0.0992 0.9913 -0.0865
vn -0.0974 0.989 -0.1112
vn -0.0974 0.989 -0.1112
vn -0.0974 0.989 -0.1112
vn -0.1129 0.9878 -0.1068
vn -0.1129 0.9878 -0.1068
vn -0.1129 0.9878 -0.1068
vn -0.1107 0.9871 -0.1158
vn -0.1107 0.9871 -0.1158
vn -0.1107 0.9871 -0.1158
vn 0.1202 0.9865 -0.1108
vn 0.1202 0.9865 -0.1108
vn 0.1202 0.9865 -0.1108
vn -0.0974 0.989 -0.1112
vn -0.0974 0.989 -0.1112
vn -0.0974 0.989 -0.1112
vn -0.0891 0.9952 -0.0395
vn -0.0891 0.9952 -0.0395
vn -0.0891 0.9952 -0.0395
vn -0.0974 0.989 -0.1111
vn -0.0974 0.989 -0.1111
vn -0.0974 0.989 -0.1111
vn 0.011 0.9939 -0.1093
vn 0.011 0.9939 -0.1093
vn 0.011 0.9939 -0.1093
vn 0.1202 0.9865 -0.1109
vn 0.1202 0.9865 -0.1109
vn 0.1202 0.9865 -0.1109
vn -0.0331 0.994 -0.1046
vn -0.0331 0.994 -0.1046
vn -0.0331 0.994 -0.1046
vn -0.0331 0.994 -0.1046
vn 0.1024 0.9891 -0.1055
vn 0.1024 0.9891 -0.1055
vn 0.1024 0.9891 -0.1055
vn 0.0948 0.9899 -0.1056
vn 0.0948 0.9899 -0.1056
vn 0.0948 0.9899 -0.1056
vn -0.0974 0.989 -0.1111
vn -0.0974 0.989 -0.1111
vn -0.0974 0.989 -0.1111
vn -0.028 0.994 -0.106
vn -0.028 0.994 -0.106
vn -0.028 0.994 -0.106
vn -0.0974 0.989 -0.1112
vn -0.0974 0.989 -0.1112
vn -0.0974 0.989 -0.1112
vn -0.0974 0.989 -0.1112
vn 0.1201 0.9865 -0.1109
vn 0.1201 0.9865 -0.1109
vn 0.1201 0.9865 -0.1109
vn 0.0281 0.9941 -0.1044
vn 0.0281 0.9941 -0.1044
vn 0.0281 0.9941 -0.1044
vn -0.0346 0.9939 -0.1044
vn -0.0346 0.9939 -0.1044
vn -0.0346 0.9939 -0.1044
vn -0.0974 0.989 -0.1112
vn -0.0974 0.989 -0.1112
vn -0.0974 0.989 -0.1112
vn 0.0049 0.9947 -0.1024
vn 0.0049 0.9947 -0.1024
vn 0.0049 0.9947 -0.1024
vn -0.1134 0.9881 -0.1043
vn -0.1134 0.9881 -0.1043
vn -0.1134 0.9881 -0.1043
vt 0.977249 0.664264
vt 0.975914 0.663043
vt 0.975914 0.672732
vt 0.962411 0.67277
vt 0.956766 0.67155
vt 0.955354 0.67277
vt 0.955354 0.67277
vt 0.956766 0.667239
vt 0.956766 0.664264
vt 0.964662 0.663043
vt 0.966035 0.67277
vt 0.966035 0.665523
vt 0.977249 0.67155
vt 0.980794 0.672723
vt 0.980976 0.671508
vt 0.96161 0.668422
vt 0.956766 0.667239
vt 0.956766 0.668422
vt 0.962411 0.67155
vt 0.956766 0.67155
vt 0.962411 0.67277
vt 0.977249 0.67155
vt 0.975914 0.672732
vt 0.980794 0.672723
vt 0.983829 0.664362
vt 0.982712 0.66516
vt 0.98362 0.666454
vt 0.966035 0.67277
vt 0.964662 0.663043
vt 0.964662 0.67277
vt 0.982712 0.66516
vt 0.983829 0.664362
vt 0.98129 0.663086
vt 0.985255 0.667888
vt 0.983866 0.667789
vt 0.983659 0.669232
vt 0.956766 0.664264
vt 0.96222 0.663043
vt 0.955354 0.663043
vt 0.983659 0.669232
vt 0.984804 0.670069
vt 0.985255 0.667888
vt 0.983172 0.671954
vt 0.982797 0.670567
vt 0.980976 0.671508
vt 0.98129 0.663086
vt 0.977249 0.664264
vt 0.980852 0.664295
vt 0.956766 0.668422
vt 0.955354 0.67277
vt 0.956766 0.67155
vt 0.98362 0.666454
vt 0.984946 0.666127
vt 0.983829 0.664362
vt 0.975914 0.663043
vt 0.977249 0.664264
vt 0.98129 0.663086
vt 0.982797 0.670567
vt 0.984804 0.670069
vt 0.983659 0.669232
vt 0.971604 0.670291
vt 0.966035 0.665523
vt 0.971871 0.67277
vt 0.955354 0.663043
vt 0.955354 0.67277
vt 0.956766 0.664264
vt 0.972977 0.663043
vt 0.971604 0.663043
vt 0.971604 0.670291
vt 0.972977 0.67277
vt 0.96161 0.668422
vt 0.96161 0.667239
vt 0.956766 0.667239
vt 0.96222 0.663043
vt 0.956766 0.664264
vt 0.96222 0.664264
vt 0.980852 0.664295
vt 0.982712 0.66516
vt 0.98129 0.663086
vt 0.975914 0.672732
vt 0.977249 0.67155
vt 0.977249 0.664264
vt 0.983866 0.667789
vt 0.985255 0.667888
vt 0.984946 0.666127
vt 0.98362 0.666454
vt 0.955354 0.67277
vt 0.956766 0.668422
vt 0.956766 0.667239
vt 0.965806 0.663043
vt 0.964662 0.663043
vt 0.966035 0.665523
vt 0.971871 0.67277
vt 0.972977 0.67277
vt 0.971604 0.670291
vt 0.982797 0.670567
vt 0.983172 0.671954
vt 0.984804 0.670069
vt 0.966035 0.665523
vt 0.971604 0.670291
vt 0.965806 0.663043
vt 0.980976 0.671508
vt 0.980794 0.672723
vt 0.983172 0.671954
s off
f 1/1/1 2/2/2 3/3/3
f 4/4/4 5/5/5 6/6/6
f 7/7/7 8/8/8 9/9/9
f 10/10/10 11/11/11 12/12/12
f 13/13/13 14/14/14 15/15/15
f 16/16/16 17/17/17 18/18/18
f 19/19/19 20/20/20 21/21/21
f 22/22/22 23/23/23 24/24/24
f 25/25/25 26/26/26 27/27/27
f 28/28/28 29/29/29 30/30/30
f 31/31/31 32/32/32 33/33/33
f 34/34/34 35/35/35 36/36/36
f 37/37/37 38/38/38 39/39/39
f 40/40/40 41/41/41 42/42/42
f 43/43/43 44/44/44 45/45/45
f 46/46/46 47/47/47 48/48/48
f 49/49/49 50/50/50 51/51/51
f 52/52/52 53/53/53 54/54/54
f 55/55/55 56/56/56 57/57/57
f 58/58/58 59/59/59 60/60/60
f 61/61/61 62/62/62 63/63/63
f 64/64/64 65/65/65 66/66/66
f 67/67/67 68/68/68 69/69/69
f 67/67/67 69/69/69 70/70/70
f 71/71/71 72/72/72 73/73/73
f 74/74/74 75/75/75 76/76/76
f 77/77/77 78/78/78 79/79/79
f 80/80/80 81/81/81 82/82/82
f 83/83/83 84/84/84 85/85/85
f 83/83/83 85/85/85 86/86/86
f 87/87/87 88/88/88 89/89/89
f 90/90/90 91/91/91 92/92/92
f 93/93/93 94/94/94 95/95/95
f 96/96/96 97/97/97 98/98/98
f 99/99/99 100/100/100 101/101/101
f 102/102/102 103/103/103 104/104/104
