v 0.847777 0.1289 0.002925
v 0.847777 0.117638 0.002555
v 0.799066 0.117638 0.002555
v 0.799066 0.1289 0.002925
v 0.847777 0.117638 0.002555
v 0.847777 0.1289 0.002925
v 0.879463 0.1289 0.002925
v 0.879474 0.117638 0.002555
v 0.879463 0.1289 0.002925
v 0.888367 0.12878 0.006571
v 0.888371 0.117518 0.0062
v 0.879474 0.117638 0.002555
v 0.888367 0.12878 0.006571
v 0.892056 0.128491 0.015374
v 0.892056 0.117229 0.014998
v 0.888371 0.117518 0.0062
v 0.892056 0.113957 0.114593
v 0.892056 0.117229 0.014998
v 0.892056 0.128491 0.015374
v 0.892056 0.125219 0.114948
v 0.888387 0.113662 0.12355
v 0.892056 0.113957 0.114593
v 0.892056 0.125219 0.114948
v 0.888384 0.124925 0.123915
v 0.888384 0.124925 0.123915
v 0.892056 0.125219 0.114948
v 0.878337 0.169289 0.105418
v 0.892056 0.128491 0.015374
v 0.878396 0.169377 0.020679
v 0.878337 0.169289 0.105418
v 0.892056 0.125219 0.114948
v 0.874764 0.171718 0.104244
v 0.871471 0.17153 0.108139
v 0.872256 0.168923 0.111857
v 0.878337 0.169289 0.105418
v 0.874764 0.171718 0.104244
v 0.878337 0.169289 0.105418
v 0.878396 0.169377 0.020679
v 0.874763 0.171828 0.021649
v 0.879518 0.124803 0.12763
v 0.888384 0.124925 0.123915
v 0.878337 0.169289 0.105418
v 0.872256 0.168923 0.111857
v 0.871417 0.171698 0.01779
v 0.874763 0.171828 0.021649
v 0.878396 0.169377 0.020679
v 0.87222 0.169065 0.01426
v 0.87222 0.169065 0.01426
v 0.878396 0.169377 0.020679
v 0.888367 0.12878 0.006571
v 0.879463 0.1289 0.002925
v 0.878396 0.169377 0.020679
v 0.892056 0.128491 0.015374
v 0.888367 0.12878 0.006571
v 0.835164 0.169787 0.017275
v 0.871417 0.171698 0.01779
v 0.87222 0.169065 0.01426
v 0.835974 0.167242 0.013746
v 0.835974 0.167242 0.013746
v 0.87222 0.169065 0.01426
v 0.879463 0.1289 0.002925
v 0.847777 0.1289 0.002925
v 0.835974 0.167242 0.013746
v 0.79319 0.165882 0.013362
v 0.792771 0.168386 0.016893
v 0.835164 0.169787 0.017275
v 0.835974 0.167242 0.013746
v 0.847777 0.1289 0.002925
v 0.799066 0.1289 0.002925
v 0.79319 0.165882 0.013362
v 0.79319 0.165882 0.013362
v 0.750354 0.165503 0.013255
v 0.750354 0.167994 0.016786
v 0.792771 0.168386 0.016893
v 0.79319 0.165882 0.013362
v 0.799066 0.1289 0.002925
v 0.750354 0.1289 0.002925
v 0.750354 0.165503 0.013255
v 0.799066 0.1289 0.002925
v 0.799066 0.117638 0.002555
v 0.750354 0.117638 0.002555
v 0.750354 0.1289 0.002925
v 0.750354 0.1289 0.002925
v 0.750354 0.117638 0.002555
v 0.701643 0.117638 0.002555
v 0.701643 0.1289 0.002925
v 0.750354 0.165503 0.013255
v 0.750354 0.1289 0.002925
v 0.701643 0.1289 0.002925
v 0.707519 0.165882 0.013362
v 0.701643 0.1289 0.002925
v 0.701643 0.117638 0.002555
v 0.652932 0.117638 0.002555
v 0.652932 0.1289 0.002925
v 0.621235 0.117638 0.002555
v 0.621247 0.1289 0.002925
v 0.652932 0.1289 0.002925
v 0.652932 0.117638 0.002555
v 0.621235 0.117638 0.002555
v 0.612338 0.117518 0.0062
v 0.612342 0.12878 0.006571
v 0.621247 0.1289 0.002925
v 0.612338 0.117518 0.0062
v 0.608653 0.117229 0.014998
v 0.608653 0.128491 0.015374
v 0.612342 0.12878 0.006571
v 0.608653 0.113957 0.114593
v 0.608653 0.125219 0.114948
v 0.608653 0.128491 0.015374
v 0.608653 0.117229 0.014998
v 0.608653 0.113957 0.114593
v 0.612323 0.113662 0.12355
v 0.612325 0.124925 0.123915
v 0.608653 0.125219 0.114948
v 0.612323 0.113662 0.12355
v 0.621182 0.113541 0.12726
v 0.621191 0.124803 0.12763
v 0.612325 0.124925 0.123915
v 0.652932 0.113541 0.12726
v 0.652932 0.124803 0.12763
v 0.621191 0.124803 0.12763
v 0.621182 0.113541 0.12726
v 0.652932 0.124803 0.12763
v 0.652932 0.113541 0.12726
v 0.701643 0.113541 0.12726
v 0.701643 0.124803 0.12763
v 0.701643 0.124803 0.12763
v 0.701643 0.113541 0.12726
v 0.750354 0.113541 0.12726
v 0.750354 0.124803 0.12763
v 0.750354 0.124803 0.12763
v 0.750354 0.113541 0.12726
v 0.799065 0.113541 0.12726
v 0.799065 0.124803 0.12763
v 0.799065 0.124803 0.12763
v 0.799065 0.113541 0.12726
v 0.847776 0.113541 0.12726
v 0.847776 0.124803 0.12763
v 0.879528 0.113541 0.12726
v 0.879518 0.124803 0.12763
v 0.847776 0.124803 0.12763
v 0.847776 0.113541 0.12726
v 0.879528 0.113541 0.12726
v 0.888387 0.113662 0.12355
v 0.888384 0.124925 0.123915
v 0.879518 0.124803 0.12763
v 0.872256 0.168923 0.111857
v 0.835919 0.166637 0.112674
v 0.847776 0.124803 0.12763
v 0.879518 0.124803 0.12763
v 0.79317 0.164937 0.113282
v 0.799065 0.124803 0.12763
v 0.847776 0.124803 0.12763
v 0.835919 0.166637 0.112674
v 0.835183 0.169184 0.108957
v 0.792787 0.167459 0.109561
v 0.79317 0.164937 0.113282
v 0.835919 0.166637 0.112674
v 0.871471 0.17153 0.108139
v 0.835183 0.169184 0.108957
v 0.835919 0.166637 0.112674
v 0.872256 0.168923 0.111857
v 0.792787 0.167459 0.109561
v 0.750355 0.166978 0.109729
v 0.750355 0.164463 0.113451
v 0.79317 0.164937 0.113282
v 0.750355 0.164463 0.113451
v 0.750354 0.124803 0.12763
v 0.799065 0.124803 0.12763
v 0.79317 0.164937 0.113282
v 0.750355 0.166978 0.109729
v 0.707922 0.167459 0.109561
v 0.707539 0.164937 0.113282
v 0.750355 0.164463 0.113451
v 0.707539 0.164937 0.113282
v 0.701643 0.124803 0.12763
v 0.750354 0.124803 0.12763
v 0.750355 0.164463 0.113451
v 0.707922 0.167459 0.109561
v 0.665526 0.169184 0.108957
v 0.66479 0.166637 0.112674
v 0.707539 0.164937 0.113282
v 0.66479 0.166637 0.112674
v 0.652932 0.124803 0.12763
v 0.701643 0.124803 0.12763
v 0.707539 0.164937 0.113282
v 0.665526 0.169184 0.108957
v 0.629238 0.171529 0.108139
v 0.628453 0.168923 0.111856
v 0.66479 0.166637 0.112674
v 0.66479 0.166637 0.112674
v 0.628453 0.168923 0.111856
v 0.621191 0.124803 0.12763
v 0.652932 0.124803 0.12763
v 0.629238 0.171529 0.108139
v 0.625945 0.171718 0.104244
v 0.622372 0.169289 0.105418
v 0.628453 0.168923 0.111856
v 0.608653 0.125219 0.114948
v 0.612325 0.124925 0.123915
v 0.628453 0.168923 0.111856
v 0.622372 0.169289 0.105418
v 0.612325 0.124925 0.123915
v 0.621191 0.124803 0.12763
v 0.628453 0.168923 0.111856
v 0.622313 0.169377 0.020679
v 0.622372 0.169289 0.105418
v 0.625945 0.171718 0.104244
v 0.625946 0.171828 0.021649
v 0.622313 0.169377 0.020679
v 0.608653 0.128491 0.015374
v 0.608653 0.125219 0.114948
v 0.622372 0.169289 0.105418
v 0.665532 0.169332 0.030693
v 0.625946 0.171828 0.021649
v 0.625945 0.171718 0.104244
v 0.665517 0.168906 0.095534
v 0.625945 0.171718 0.104244
v 0.629238 0.171529 0.108139
v 0.665526 0.169184 0.108957
v 0.665517 0.168906 0.095534
v 0.665532 0.169332 0.030693
v 0.665517 0.168906 0.095534
v 0.707915 0.166991 0.095976
v 0.707927 0.167656 0.030466
v 0.707922 0.167459 0.109561
v 0.707915 0.166991 0.095976
v 0.665517 0.168906 0.095534
v 0.665526 0.169184 0.108957
v 0.707927 0.167656 0.030466
v 0.707938 0.168386 0.016893
v 0.665545 0.169787 0.017275
v 0.665532 0.169332 0.030693
v 0.625946 0.171828 0.021649
v 0.665532 0.169332 0.030693
v 0.665545 0.169787 0.017275
v 0.629293 0.171698 0.01779
v 0.707519 0.165882 0.013362
v 0.664735 0.167242 0.013746
v 0.665545 0.169787 0.017275
v 0.707938 0.168386 0.016893
v 0.629293 0.171698 0.01779
v 0.665545 0.169787 0.017275
v 0.664735 0.167242 0.013746
v 0.628489 0.169065 0.01426
v 0.625946 0.171828 0.021649
v 0.629293 0.171698 0.01779
v 0.628489 0.169065 0.01426
v 0.622313 0.169377 0.020679
v 0.621247 0.1289 0.002925
v 0.612342 0.12878 0.006571
v 0.622313 0.169377 0.020679
v 0.628489 0.169065 0.01426
v 0.628489 0.169065 0.01426
v 0.664735 0.167242 0.013746
v 0.652932 0.1289 0.002925
v 0.621247 0.1289 0.002925
v 0.750354 0.165503 0.013255
v 0.707519 0.165882 0.013362
v 0.707938 0.168386 0.016893
v 0.750354 0.167994 0.016786
v 0.750354 0.167175 0.030406
v 0.750354 0.167994 0.016786
v 0.707938 0.168386 0.016893
v 0.707927 0.167656 0.030466
v 0.792782 0.167656 0.030466
v 0.792771 0.168386 0.016893
v 0.750354 0.167994 0.016786
v 0.750354 0.167175 0.030406
v 0.750354 0.167175 0.030406
v 0.750354 0.166447 0.096096
v 0.792794 0.166991 0.095976
v 0.792782 0.167656 0.030466
v 0.707927 0.167656 0.030466
v 0.707915 0.166991 0.095976
v 0.750354 0.166447 0.096096
v 0.750354 0.167175 0.030406
v 0.750355 0.166978 0.109729
v 0.750354 0.166447 0.096096
v 0.707915 0.166991 0.095976
v 0.707922 0.167459 0.109561
v 0.792787 0.167459 0.109561
v 0.792794 0.166991 0.095976
v 0.750354 0.166447 0.096096
v 0.750355 0.166978 0.109729
v 0.792782 0.167656 0.030466
v 0.792794 0.166991 0.095976
v 0.835192 0.168906 0.095534
v 0.835177 0.169332 0.030693
v 0.835183 0.169184 0.108957
v 0.835192 0.168906 0.095534
v 0.792794 0.166991 0.095976
v 0.792787 0.167459 0.109561
v 0.874763 0.171828 0.021649
v 0.835177 0.169332 0.030693
v 0.835192 0.168906 0.095534
v 0.874764 0.171718 0.104244
v 0.835183 0.169184 0.108957
v 0.871471 0.17153 0.108139
v 0.874764 0.171718 0.104244
v 0.835192 0.168906 0.095534
v 0.835177 0.169332 0.030693
v 0.835164 0.169787 0.017275
v 0.792771 0.168386 0.016893
v 0.792782 0.167656 0.030466
v 0.835177 0.169332 0.030693
v 0.874763 0.171828 0.021649
v 0.871417 0.171698 0.01779
v 0.835164 0.169787 0.017275
v 0.707519 0.165882 0.013362
v 0.701643 0.1289 0.002925
v 0.652932 0.1289 0.002925
v 0.664735 0.167242 0.013746
v 0.612342 0.12878 0.006571
v 0.608653 0.128491 0.015374
v 0.622313 0.169377 0.020679
vn -0 0.0328 -0.9995
vn -0 0.0328 -0.9995
vn -0 0.0328 -0.9995
vn -0 0.0328 -0.9995
vn -0 0.0328 -0.9995
vn -0 0.0328 -0.9995
vn 0.0905 0.0329 -0.9954
vn 0.0899 0.0329 -0.9954
vn 0.0905 0.0329 -0.9954
vn 0.7033 0.0237 -0.7105
vn 0.7036 0.0237 -0.7102
vn 0.0899 0.0329 -0.9954
vn 0.7033 0.0237 -0.7105
vn 0.9993 0.0014 -0.0378
vn 0.9993 0.0012 -0.0378
vn 0.7036 0.0237 -0.7102
vn 0.9993 -0.001 0.0376
vn 0.9993 0.0012 -0.0378
vn 0.9993 0.0014 -0.0378
vn 0.9993 -0.001 0.0376
vn 0.7112 -0.0226 0.7026
vn 0.9993 -0.001 0.0376
vn 0.9993 -0.001 0.0376
vn 0.7111 -0.0226 0.7027
vn 0.6547 0.3816 0.6525
vn 0.9514 0.3078 0.0096
vn 0.9516 0.3071 0.0059
vn 0.9515 0.3077 0.0022
vn 0.9517 0.3071 0.0058
vn 0.9516 0.3071 0.0059
vn 0.9514 0.3078 0.0096
vn -0.0627 0.998 -0.0059
vn -0.0641 0.9978 -0.0142
vn 0.0608 0.3959 0.9163
vn 0.9516 0.3071 0.0059
vn -0.0627 0.998 -0.0059
vn 0.9516 0.3071 0.0059
vn 0.9517 0.3071 0.0058
vn -0.0569 0.9983 0.0154
vn 0.0684 0.3463 0.9356
vn 0.6547 0.3816 0.6525
vn 0.9516 0.3071 0.0059
vn 0.0608 0.3959 0.9163
vn -0.0529 0.9983 0.0258
vn -0.0569 0.9983 0.0154
vn 0.9517 0.3071 0.0058
vn 0.0627 0.3407 -0.9381
vn 0.0627 0.3407 -0.9381
vn 0.9517 0.3071 0.0058
vn 0.6663 0.3496 -0.6586
vn 0.0701 0.2831 -0.9565
vn 0.9517 0.3071 0.0058
vn 0.9515 0.3077 0.0022
vn 0.6663 0.3496 -0.6586
vn -0.0455 0.9984 0.0328
vn -0.0529 0.9983 0.0258
vn 0.0627 0.3407 -0.9381
vn -0.0028 0.3339 -0.9426
vn -0.0028 0.3339 -0.9426
vn 0.0627 0.3407 -0.9381
vn 0.0701 0.2831 -0.9565
vn -0 0.2716 -0.9624
vn -0.0028 0.3339 -0.9426
vn -0.0014 0.3328 -0.943
vn -0.0234 0.9986 0.0465
vn -0.0455 0.9984 0.0328
vn -0.0028 0.3339 -0.9426
vn -0 0.2716 -0.9624
vn -0 0.2716 -0.9624
vn -0.0014 0.3328 -0.943
vn -0.0014 0.3328 -0.943
vn -0.0001 0.3336 -0.9427
vn -0 0.9986 0.053
vn -0.0234 0.9986 0.0465
vn -0.0014 0.3328 -0.943
vn -0 0.2716 -0.9624
vn -0 0.2716 -0.9624
vn -0.0001 0.3336 -0.9427
vn -0 0.0328 -0.9995
vn -0 0.0328 -0.9995
vn -0 0.0328 -0.9995
vn -0 0.0328 -0.9995
vn -0 0.0328 -0.9995
vn -0 0.0328 -0.9995
vn -0 0.0328 -0.9995
vn -0 0.0328 -0.9995
vn -0.0001 0.3336 -0.9427
vn -0 0.2716 -0.9624
vn -0 0.2716 -0.9624
vn 0.0014 0.3328 -0.943
vn -0 0.0328 -0.9995
vn -0 0.0328 -0.9995
vn -0 0.0328 -0.9995
vn -0 0.0328 -0.9995
vn -0.0925 0.0328 -0.9952
vn -0.0899 0.0329 -0.9954
vn -0 0.0328 -0.9995
vn -0 0.0328 -0.9995
vn -0.0925 0.0328 -0.9952
vn -0.7033 0.0237 -0.7105
vn -0.7036 0.0237 -0.7102
vn -0.0899 0.0329 -0.9954
vn -0.7033 0.0237 -0.7105
vn -0.9993 0.0014 -0.0378
vn -0.9993 0.0013 -0.0378
vn -0.7036 0.0237 -0.7102
vn -0.9993 -0.0014 0.0376
vn -0.9993 -0.001 0.0376
vn -0.9993 0.0013 -0.0378
vn -0.9993 0.0014 -0.0378
vn -0.9993 -0.0014 0.0376
vn -0.7111 -0.0226 0.7027
vn -0.7112 -0.0226 0.7026
vn -0.9993 -0.001 0.0376
vn -0.7111 -0.0226 0.7027
vn -0.0948 -0.0325 0.995
vn -0.0936 -0.0326 0.9951
vn -0.7112 -0.0226 0.7026
vn -0 -0.0328 0.9995
vn -0 -0.0328 0.9995
vn -0.0936 -0.0326 0.9951
vn -0.0948 -0.0325 0.995
vn -0 -0.0328 0.9995
vn -0 -0.0328 0.9995
vn -0 -0.0328 0.9995
vn -0 -0.0328 0.9995
vn -0 -0.0328 0.9995
vn -0 -0.0328 0.9995
vn -0 -0.0328 0.9995
vn -0 -0.0328 0.9995
vn -0 -0.0328 0.9995
vn -0 -0.0328 0.9995
vn -0 -0.0328 0.9995
vn -0 -0.0328 0.9995
vn -0 -0.0328 0.9995
vn -0 -0.0328 0.9995
vn -0 -0.0328 0.9995
vn -0 -0.0328 0.9995
vn 0.0949 -0.0326 0.995
vn 0.0949 -0.0325 0.995
vn -0 -0.0328 0.9995
vn -0 -0.0328 0.9995
vn 0.0949 -0.0326 0.995
vn 0.7112 -0.0226 0.7026
vn 0.7111 -0.0226 0.7027
vn 0.0949 -0.0325 0.995
vn 0.0608 0.3959 0.9163
vn -0.0032 0.3905 0.9206
vn -0 0.3366 0.9416
vn 0.0684 0.3463 0.9356
vn -0.0016 0.3897 0.9209
vn -0 0.3366 0.9416
vn -0 0.3366 0.9416
vn -0.0032 0.3905 0.9206
vn -0.0544 0.9983 -0.0189
vn -0.0276 0.9992 -0.0283
vn -0.0016 0.3897 0.9209
vn -0.0032 0.3905 0.9206
vn -0.0641 0.9978 -0.0142
vn -0.0544 0.9983 -0.0189
vn -0.0032 0.3905 0.9206
vn 0.0608 0.3959 0.9163
vn -0.0276 0.9992 -0.0283
vn -0.0001 0.9995 -0.0328
vn 0.0001 0.3906 0.9206
vn -0.0016 0.3897 0.9209
vn 0.0001 0.3906 0.9206
vn -0 0.3366 0.9416
vn -0 0.3366 0.9416
vn -0.0016 0.3897 0.9209
vn -0.0001 0.9995 -0.0328
vn 0.0276 0.9992 -0.0283
vn 0.0016 0.3897 0.9209
vn 0.0001 0.3906 0.9206
vn 0.0016 0.3897 0.9209
vn -0 0.3366 0.9416
vn -0 0.3366 0.9416
vn 0.0001 0.3906 0.9206
vn 0.0276 0.9992 -0.0283
vn 0.0544 0.9983 -0.0189
vn 0.0032 0.3905 0.9206
vn 0.0016 0.3897 0.9209
vn 0.0032 0.3905 0.9206
vn -0 0.3366 0.9416
vn -0 0.3366 0.9416
vn 0.0016 0.3897 0.9209
vn 0.0544 0.9983 -0.0189
vn 0.0641 0.9978 -0.0142
vn -0.061 0.3957 0.9164
vn 0.0032 0.3905 0.9206
vn 0.0032 0.3905 0.9206
vn -0.061 0.3957 0.9164
vn -0.0685 0.3461 0.9357
vn -0 0.3366 0.9416
vn 0.0641 0.9978 -0.0142
vn 0.0627 0.998 -0.006
vn -0.9516 0.3071 0.0059
vn -0.061 0.3957 0.9164
vn -0.9514 0.3079 0.0096
vn -0.6547 0.3816 0.6525
vn -0.061 0.3957 0.9164
vn -0.9516 0.3071 0.0059
vn -0.6547 0.3816 0.6525
vn -0.0685 0.3461 0.9357
vn -0.061 0.3957 0.9164
vn -0.9517 0.3071 0.0059
vn -0.9516 0.3071 0.0059
vn 0.0627 0.998 -0.006
vn 0.0568 0.9983 0.0154
vn -0.9517 0.3071 0.0059
vn -0.9515 0.3077 0.0022
vn -0.9514 0.3079 0.0096
vn -0.9516 0.3071 0.0059
vn 0.0505 0.9985 0.0204
vn 0.0568 0.9983 0.0154
vn 0.0627 0.998 -0.006
vn 0.0546 0.9985 -0.0076
vn 0.0627 0.998 -0.006
vn 0.0641 0.9978 -0.0142
vn 0.0544 0.9983 -0.0189
vn 0.0546 0.9985 -0.0076
vn 0.0505 0.9985 0.0204
vn 0.0546 0.9985 -0.0076
vn 0.0274 0.9996 -0.0114
vn 0.0253 0.9992 0.03
vn 0.0276 0.9992 -0.0283
vn 0.0274 0.9996 -0.0114
vn 0.0546 0.9985 -0.0076
vn 0.0544 0.9983 -0.0189
vn 0.0253 0.9992 0.03
vn 0.0234 0.9986 0.0465
vn 0.0455 0.9984 0.0328
vn 0.0505 0.9985 0.0204
vn 0.0568 0.9983 0.0154
vn 0.0505 0.9985 0.0204
vn 0.0455 0.9984 0.0328
vn 0.0529 0.9983 0.0258
vn 0.0014 0.3328 -0.943
vn 0.0027 0.3339 -0.9426
vn 0.0455 0.9984 0.0328
vn 0.0234 0.9986 0.0465
vn 0.0529 0.9983 0.0258
vn 0.0455 0.9984 0.0328
vn 0.0027 0.3339 -0.9426
vn -0.0627 0.3407 -0.9381
vn 0.0568 0.9983 0.0154
vn 0.0529 0.9983 0.0258
vn -0.0627 0.3407 -0.9381
vn -0.9517 0.3071 0.0059
vn -0.0701 0.2831 -0.9565
vn -0.6663 0.3496 -0.6586
vn -0.9517 0.3071 0.0059
vn -0.0627 0.3407 -0.9381
vn -0.0627 0.3407 -0.9381
vn 0.0027 0.3339 -0.9426
vn -0 0.2716 -0.9624
vn -0.0701 0.2831 -0.9565
vn -0.0001 0.3336 -0.9427
vn 0.0014 0.3328 -0.943
vn 0.0234 0.9986 0.0465
vn -0 0.9986 0.053
vn -0 0.9994 0.0338
vn -0 0.9986 0.053
vn 0.0234 0.9986 0.0465
vn 0.0253 0.9992 0.03
vn -0.0253 0.9992 0.03
vn -0.0234 0.9986 0.0465
vn -0 0.9986 0.053
vn -0 0.9994 0.0338
vn -0 0.9994 0.0338
vn -0 0.9999 -0.0131
vn -0.0274 0.9996 -0.0114
vn -0.0253 0.9992 0.03
vn 0.0253 0.9992 0.03
vn 0.0274 0.9996 -0.0114
vn -0 0.9999 -0.0131
vn -0 0.9994 0.0338
vn -0.0001 0.9995 -0.0328
vn -0 0.9999 -0.0131
vn 0.0274 0.9996 -0.0114
vn 0.0276 0.9992 -0.0283
vn -0.0276 0.9992 -0.0283
vn -0.0274 0.9996 -0.0114
vn -0 0.9999 -0.0131
vn -0.0001 0.9995 -0.0328
vn -0.0253 0.9992 0.03
vn -0.0274 0.9996 -0.0114
vn -0.0546 0.9985 -0.0076
vn -0.0505 0.9985 0.0204
vn -0.0544 0.9983 -0.0189
vn -0.0546 0.9985 -0.0076
vn -0.0274 0.9996 -0.0114
vn -0.0276 0.9992 -0.0283
vn -0.0569 0.9983 0.0154
vn -0.0505 0.9985 0.0204
vn -0.0546 0.9985 -0.0076
vn -0.0627 0.998 -0.0059
vn -0.0544 0.9983 -0.0189
vn -0.0641 0.9978 -0.0142
vn -0.0627 0.998 -0.0059
vn -0.0546 0.9985 -0.0076
vn -0.0505 0.9985 0.0204
vn -0.0455 0.9984 0.0328
vn -0.0234 0.9986 0.0465
vn -0.0253 0.9992 0.03
vn -0.0505 0.9985 0.0204
vn -0.0569 0.9983 0.0154
vn -0.0529 0.9983 0.0258
vn -0.0455 0.9984 0.0328
vn 0.0014 0.3328 -0.943
vn -0 0.2716 -0.9624
vn -0 0.2716 -0.9624
vn 0.0027 0.3339 -0.9426
vn -0.6663 0.3496 -0.6586
vn -0.9515 0.3077 0.0022
vn -0.9517 0.3071 0.0059
vt 0.9157 0.189773
vt 0.9157 0.187662
vt 0.891815 0.187662
vt 0.891815 0.189773
vt 0.9157 0.187662
vt 0.9157 0.189773
vt 0.930762 0.189705
vt 0.931243 0.187662
vt 0.930762 0.189705
vt 0.934194 0.19093
vt 0.935605 0.18945
vt 0.931243 0.187662
vt 0.934194 0.19093
vt 0.935524 0.194322
vt 0.937412 0.193764
vt 0.935605 0.18945
vt 0.937412 0.242599
vt 0.937412 0.193764
vt 0.935524 0.194322
vt 0.935528 0.242375
vt 0.935613 0.246991
vt 0.937412 0.242599
vt 0.935528 0.242375
vt 0.934209 0.245858
vt 0.934209 0.245858
vt 0.935528 0.242375
vt 0.920801 0.234836
vt 0.935524 0.194322
vt 0.920826 0.199829
vt 0.920801 0.234836
vt 0.935528 0.242375
vt 0.919325 0.234351
vt 0.917964 0.23596
vt 0.918289 0.237496
vt 0.920801 0.234836
vt 0.919325 0.234351
vt 0.920801 0.234836
vt 0.920826 0.199829
vt 0.919325 0.20023
vt 0.930793 0.247128
vt 0.934209 0.245858
vt 0.920801 0.234836
vt 0.918289 0.237496
vt 0.917942 0.198636
vt 0.919325 0.20023
vt 0.920826 0.199829
vt 0.918274 0.197177
vt 0.918274 0.197177
vt 0.920826 0.199829
vt 0.934194 0.19093
vt 0.930762 0.189705
vt 0.920826 0.199829
vt 0.935524 0.194322
vt 0.934194 0.19093
vt 0.902966 0.198423
vt 0.917942 0.198636
vt 0.918274 0.197177
vt 0.9033 0.196965
vt 0.9033 0.196965
vt 0.918274 0.197177
vt 0.930762 0.189705
vt 0.9157 0.189773
vt 0.9033 0.196965
vt 0.885626 0.196806
vt 0.885453 0.198265
vt 0.902966 0.198423
vt 0.9033 0.196965
vt 0.9157 0.189773
vt 0.891815 0.189773
vt 0.885626 0.196806
vt 0.885626 0.196806
vt 0.86793 0.196762
vt 0.86793 0.198221
vt 0.885453 0.198265
vt 0.885626 0.196806
vt 0.891815 0.189773
vt 0.86793 0.189773
vt 0.86793 0.196762
vt 0.891815 0.189773
vt 0.891815 0.187662
vt 0.86793 0.187662
vt 0.86793 0.189773
vt 0.86793 0.189773
vt 0.86793 0.187662
vt 0.844045 0.187662
vt 0.844045 0.189773
vt 0.86793 0.196762
vt 0.86793 0.189773
vt 0.844045 0.189773
vt 0.850234 0.196806
vt 0.844045 0.189773
vt 0.844045 0.187662
vt 0.82016 0.187662
vt 0.82016 0.189773
vt 0.804617 0.187662
vt 0.805098 0.189705
vt 0.82016 0.189773
vt 0.82016 0.187662
vt 0.804617 0.187662
vt 0.800255 0.189449
vt 0.801666 0.19093
vt 0.805098 0.189705
vt 0.800255 0.189449
vt 0.798448 0.193764
vt 0.800336 0.194322
vt 0.801666 0.19093
vt 0.798448 0.242599
vt 0.800308 0.242291
vt 0.800336 0.194322
vt 0.798448 0.193764
vt 0.798448 0.242599
vt 0.800247 0.246991
vt 0.801553 0.245762
vt 0.800308 0.242291
vt 0.800247 0.246991
vt 0.804591 0.24881
vt 0.804981 0.247105
vt 0.801553 0.245762
vt 0.82016 0.24881
vt 0.82016 0.247063
vt 0.804981 0.247105
vt 0.804591 0.24881
vt 0.82016 0.247063
vt 0.82016 0.24881
vt 0.844045 0.24881
vt 0.844045 0.247063
vt 0.844045 0.247063
vt 0.844045 0.24881
vt 0.86793 0.24881
vt 0.86793 0.247063
vt 0.86793 0.247063
vt 0.86793 0.24881
vt 0.891815 0.24881
vt 0.891815 0.247063
vt 0.891815 0.247063
vt 0.891815 0.24881
vt 0.9157 0.24881
vt 0.9157 0.247063
vt 0.931269 0.24881
vt 0.930793 0.247128
vt 0.9157 0.247063
vt 0.9157 0.24881
vt 0.931269 0.24881
vt 0.935613 0.246991
vt 0.934209 0.245858
vt 0.930793 0.247128
vt 0.918289 0.237496
vt 0.903278 0.237833
vt 0.9157 0.247063
vt 0.930793 0.247128
vt 0.885618 0.238084
vt 0.891815 0.247063
vt 0.9157 0.247063
vt 0.903278 0.237833
vt 0.902974 0.236298
vt 0.885459 0.236547
vt 0.885618 0.238084
vt 0.903278 0.237833
vt 0.917964 0.23596
vt 0.902974 0.236298
vt 0.903278 0.237833
vt 0.918289 0.237496
vt 0.885459 0.236547
vt 0.86793 0.236617
vt 0.86793 0.238154
vt 0.885618 0.238084
vt 0.86793 0.238154
vt 0.86793 0.247063
vt 0.891815 0.247063
vt 0.885618 0.238084
vt 0.86793 0.236617
vt 0.8504 0.236547
vt 0.850242 0.238084
vt 0.86793 0.238154
vt 0.850242 0.238084
vt 0.844045 0.247063
vt 0.86793 0.247063
vt 0.86793 0.238154
vt 0.8504 0.236547
vt 0.832886 0.236298
vt 0.832582 0.237833
vt 0.850242 0.238084
vt 0.832582 0.237833
vt 0.82016 0.247063
vt 0.844045 0.247063
vt 0.850242 0.238084
vt 0.832886 0.236298
vt 0.817895 0.23596
vt 0.817571 0.237496
vt 0.832582 0.237833
vt 0.832582 0.237833
vt 0.817571 0.237496
vt 0.804981 0.247105
vt 0.82016 0.247063
vt 0.817895 0.23596
vt 0.816535 0.234351
vt 0.815059 0.234836
vt 0.817571 0.237496
vt 0.800308 0.242291
vt 0.801553 0.245762
vt 0.817571 0.237496
vt 0.815059 0.234836
vt 0.801553 0.245762
vt 0.804981 0.247105
vt 0.817571 0.237496
vt 0.815034 0.199829
vt 0.815059 0.234836
vt 0.816535 0.234351
vt 0.816535 0.20023
vt 0.815034 0.199829
vt 0.800336 0.194322
vt 0.800308 0.242291
vt 0.815059 0.234836
vt 0.832889 0.203966
vt 0.816535 0.20023
vt 0.816535 0.234351
vt 0.832882 0.230753
vt 0.816535 0.234351
vt 0.817895 0.23596
vt 0.832886 0.236298
vt 0.832882 0.230753
vt 0.832889 0.203966
vt 0.832882 0.230753
vt 0.850398 0.230935
vt 0.850403 0.203872
vt 0.8504 0.236547
vt 0.850398 0.230935
vt 0.832882 0.230753
vt 0.832886 0.236298
vt 0.850403 0.203872
vt 0.850407 0.198265
vt 0.832894 0.198423
vt 0.832889 0.203966
vt 0.816535 0.20023
vt 0.832889 0.203966
vt 0.832894 0.198423
vt 0.817918 0.198636
vt 0.850234 0.196806
vt 0.832559 0.196965
vt 0.832894 0.198423
vt 0.850407 0.198265
vt 0.817918 0.198636
vt 0.832894 0.198423
vt 0.832559 0.196965
vt 0.817586 0.197177
vt 0.816535 0.20023
vt 0.817918 0.198636
vt 0.817586 0.197177
vt 0.815034 0.199829
vt 0.805098 0.189705
vt 0.801666 0.19093
vt 0.815034 0.199829
vt 0.817586 0.197177
vt 0.817586 0.197177
vt 0.832559 0.196965
vt 0.82016 0.189773
vt 0.805098 0.189705
vt 0.86793 0.196762
vt 0.850234 0.196806
vt 0.850407 0.198265
vt 0.86793 0.198221
vt 0.86793 0.203847
vt 0.86793 0.198221
vt 0.850407 0.198265
vt 0.850403 0.203872
vt 0.885457 0.203872
vt 0.885453 0.198265
vt 0.86793 0.198221
vt 0.86793 0.203847
vt 0.86793 0.203847
vt 0.86793 0.230985
vt 0.885462 0.230935
vt 0.885457 0.203872
vt 0.850403 0.203872
vt 0.850398 0.230935
vt 0.86793 0.230985
vt 0.86793 0.203847
vt 0.86793 0.236617
vt 0.86793 0.230985
vt 0.850398 0.230935
vt 0.8504 0.236547
vt 0.885459 0.236547
vt 0.885462 0.230935
vt 0.86793 0.230985
vt 0.86793 0.236617
vt 0.885457 0.203872
vt 0.885462 0.230935
vt 0.902978 0.230753
vt 0.902971 0.203966
vt 0.902974 0.236298
vt 0.902978 0.230753
vt 0.885462 0.230935
vt 0.885459 0.236547
vt 0.919325 0.20023
vt 0.902971 0.203966
vt 0.902978 0.230753
vt 0.919325 0.234351
vt 0.902974 0.236298
vt 0.917964 0.23596
vt 0.919325 0.234351
vt 0.902978 0.230753
vt 0.902971 0.203966
vt 0.902966 0.198423
vt 0.885453 0.198265
vt 0.885457 0.203872
vt 0.902971 0.203966
vt 0.919325 0.20023
vt 0.917942 0.198636
vt 0.902966 0.198423
vt 0.850234 0.196806
vt 0.844045 0.189773
vt 0.82016 0.189773
vt 0.832559 0.196965
vt 0.801666 0.19093
vt 0.800336 0.194322
vt 0.815034 0.199829
s off
f 1/1/1 2/2/2 3/3/3
f 1/1/1 3/3/3 4/4/4
f 5/5/5 6/6/6 7/7/7
f 5/5/5 7/7/7 8/8/8
f 9/9/9 10/10/10 11/11/11
f 9/9/9 11/11/11 12/12/12
f 13/13/13 14/14/14 15/15/15
f 13/13/13 15/15/15 16/16/16
f 17/17/17 18/18/18 19/19/19
f 17/17/17 19/19/19 20/20/20
f 21/21/21 22/22/22 23/23/23
f 21/21/21 23/23/23 24/24/24
f 25/25/25 26/26/26 27/27/27
f 28/28/28 29/29/29 30/30/30
f 28/28/28 30/30/30 31/31/31
f 32/32/32 33/33/33 34/34/34
f 32/32/32 34/34/34 35/35/35
f 36/36/36 37/37/37 38/38/38
f 36/36/36 38/38/38 39/39/39
f 40/40/40 41/41/41 42/42/42
f 40/40/40 42/42/42 43/43/43
f 44/44/44 45/45/45 46/46/46
f 44/44/44 46/46/46 47/47/47
f 48/48/48 49/49/49 50/50/50
f 48/48/48 50/50/50 51/51/51
f 52/52/52 53/53/53 54/54/54
f 55/55/55 56/56/56 57/57/57
f 55/55/55 57/57/57 58/58/58
f 59/59/59 60/60/60 61/61/61
f 59/59/59 61/61/61 62/62/62
f 63/63/63 64/64/64 65/65/65
f 63/63/63 65/65/65 66/66/66
f 67/67/67 68/68/68 69/69/69
f 67/67/67 69/69/69 70/70/70
f 71/71/71 72/72/72 73/73/73
f 71/71/71 73/73/73 74/74/74
f 75/75/75 76/76/76 77/77/77
f 75/75/75 77/77/77 78/78/78
f 79/79/79 80/80/80 81/81/81
f 79/79/79 81/81/81 82/82/82
f 83/83/83 84/84/84 85/85/85
f 83/83/83 85/85/85 86/86/86
f 87/87/87 88/88/88 89/89/89
f 87/87/87 89/89/89 90/90/90
f 91/91/91 92/92/92 93/93/93
f 91/91/91 93/93/93 94/94/94
f 95/95/95 96/96/96 97/97/97
f 95/95/95 97/97/97 98/98/98
f 99/99/99 100/100/100 101/101/101
f 99/99/99 101/101/101 102/102/102
f 103/103/103 104/104/104 105/105/105
f 103/103/103 105/105/105 106/106/106
f 107/107/107 108/108/108 109/109/109
f 107/107/107 109/109/109 110/110/110
f 111/111/111 112/112/112 113/113/113
f 111/111/111 113/113/113 114/114/114
f 115/115/115 116/116/116 117/117/117
f 115/115/115 117/117/117 118/118/118
f 119/119/119 120/120/120 121/121/121
f 119/119/119 121/121/121 122/122/122
f 123/123/123 124/124/124 125/125/125
f 123/123/123 125/125/125 126/126/126
f 127/127/127 128/128/128 129/129/129
f 127/127/127 129/129/129 130/130/130
f 131/131/131 132/132/132 133/133/133
f 131/131/131 133/133/133 134/134/134
f 135/135/135 136/136/136 137/137/137
f 135/135/135 137/137/137 138/138/138
f 139/139/139 140/140/140 141/141/141
f 139/139/139 141/141/141 142/142/142
f 143/143/143 144/144/144 145/145/145
f 143/143/143 145/145/145 146/146/146
f 147/147/147 148/148/148 149/149/149
f 147/147/147 149/149/149 150/150/150
f 151/151/151 152/152/152 153/153/153
f 151/151/151 153/153/153 154/154/154
f 155/155/155 156/156/156 157/157/157
f 155/155/155 157/157/157 158/158/158
f 159/159/159 160/160/160 161/161/161
f 159/159/159 161/161/161 162/162/162
f 163/163/163 164/164/164 165/165/165
f 163/163/163 165/165/165 166/166/166
f 167/167/167 168/168/168 169/169/169
f 167/167/167 169/169/169 170/170/170
f 171/171/171 172/172/172 173/173/173
f 171/171/171 173/173/173 174/174/174
f 175/175/175 176/176/176 177/177/177
f 175/175/175 177/177/177 178/178/178
f 179/179/179 180/180/180 181/181/181
f 179/179/179 181/181/181 182/182/182
f 183/183/183 184/184/184 185/185/185
f 183/183/183 185/185/185 186/186/186
f 187/187/187 188/188/188 189/189/189
f 187/187/187 189/189/189 190/190/190
f 191/191/191 192/192/192 193/193/193
f 191/191/191 193/193/193 194/194/194
f 195/195/195 196/196/196 197/197/197
f 195/195/195 197/197/197 198/198/198
f 199/199/199 200/200/200 201/201/201
f 199/199/199 201/201/201 202/202/202
f 203/203/203 204/204/204 205/205/205
f 206/206/206 207/207/207 208/208/208
f 206/206/206 208/208/208 209/209/209
f 210/210/210 211/211/211 212/212/212
f 210/210/210 212/212/212 213/213/213
f 214/214/214 215/215/215 216/216/216
f 214/214/214 216/216/216 217/217/217
f 218/218/218 219/219/219 220/220/220
f 218/218/218 220/220/220 221/221/221
f 222/222/222 223/223/223 224/224/224
f 222/222/222 224/224/224 225/225/225
f 226/226/226 227/227/227 228/228/228
f 226/226/226 228/228/228 229/229/229
f 230/230/230 231/231/231 232/232/232
f 230/230/230 232/232/232 233/233/233
f 234/234/234 235/235/235 236/236/236
f 234/234/234 236/236/236 237/237/237
f 238/238/238 239/239/239 240/240/240
f 238/238/238 240/240/240 241/241/241
f 242/242/242 243/243/243 244/244/244
f 242/242/242 244/244/244 245/245/245
f 246/246/246 247/247/247 248/248/248
f 246/246/246 248/248/248 249/249/249
f 250/250/250 251/251/251 252/252/252
f 250/250/250 252/252/252 253/253/253
f 254/254/254 255/255/255 256/256/256
f 254/254/254 256/256/256 257/257/257
f 258/258/258 259/259/259 260/260/260
f 258/258/258 260/260/260 261/261/261
f 262/262/262 263/263/263 264/264/264
f 262/262/262 264/264/264 265/265/265
f 266/266/266 267/267/267 268/268/268
f 266/266/266 268/268/268 269/269/269
f 270/270/270 271/271/271 272/272/272
f 270/270/270 272/272/272 273/273/273
f 274/274/274 275/275/275 276/276/276
f 274/274/274 276/276/276 277/277/277
f 278/278/278 279/279/279 280/280/280
f 278/278/278 280/280/280 281/281/281
f 282/282/282 283/283/283 284/284/284
f 282/282/282 284/284/284 285/285/285
f 286/286/286 287/287/287 288/288/288
f 286/286/286 288/288/288 289/289/289
f 290/290/290 291/291/291 292/292/292
f 290/290/290 292/292/292 293/293/293
f 294/294/294 295/295/295 296/296/296
f 294/294/294 296/296/296 297/297/297
f 298/298/298 299/299/299 300/300/300
f 298/298/298 300/300/300 301/301/301
f 302/302/302 303/303/303 304/304/304
f 302/302/302 304/304/304 305/305/305
f 306/306/306 307/307/307 308/308/308
f 306/306/306 308/308/308 309/309/309
f 310/310/310 311/311/311 312/312/312
f 310/310/310 312/312/312 313/313/313
f 314/314/314 315/315/315 316/316/316
