v 0.708579 0.167632 0.046279
v 0.697019 0.168098 0.04378
v 0.694207 0.168183 0.046279
v 0.723091 0.167709 0.028959
v 0.727292 0.167689 0.028447
v 0.723452 0.16784 0.026439
v 0.635468 0.171342 0.046279
v 0.638358 0.171164 0.04378
v 0.638358 0.171173 0.037375
v 0.635468 0.171369 0.026361
v 0.638358 0.171176 0.034953
v 0.638358 0.171184 0.028861
v 0.638358 0.171184 0.028861
v 0.649527 0.170483 0.028861
v 0.649527 0.170509 0.026361
v 0.657339 0.169968 0.046279
v 0.654527 0.170232 0.026361
v 0.654527 0.170146 0.046279
v 0.694207 0.168485 0.026361
v 0.697019 0.168187 0.034953
v 0.697019 0.168289 0.028861
v 0.713188 0.167962 0.026361
v 0.716 0.167629 0.037765
v 0.716 0.167795 0.028861
v 0.723091 0.167709 0.028959
v 0.723452 0.16784 0.026439
v 0.716 0.167795 0.028861
v 0.691082 0.168609 0.026361
v 0.681475 0.168906 0.028861
v 0.684287 0.168794 0.028861
v 0.708189 0.167885 0.028861
v 0.694207 0.168485 0.026361
v 0.697019 0.168289 0.028861
v 0.716 0.167602 0.040187
v 0.713188 0.167574 0.046201
v 0.716 0.167538 0.046201
v 0.726311 0.167574 0.032093
v 0.728784 0.167561 0.030756
v 0.727292 0.167689 0.028447
v 0.726232 0.167545 0.034825
v 0.729239 0.167528 0.033246
v 0.726311 0.167574 0.032093
v 0.726232 0.167545 0.034825
v 0.728605 0.1675 0.036475
v 0.729239 0.167528 0.033246
v 0.724485 0.16754 0.037099
v 0.721522 0.167566 0.03776
v 0.722194 0.167532 0.04015
v 0.697019 0.168163 0.037375
v 0.694207 0.168183 0.046279
v 0.697019 0.168098 0.04378
v 0.721522 0.167566 0.03776
v 0.716 0.167602 0.040187
v 0.722194 0.167532 0.04015
v 0.726311 0.167574 0.032093
v 0.729239 0.167528 0.033246
v 0.728784 0.167561 0.030756
v 0.638358 0.171184 0.028861
v 0.649527 0.170509 0.026361
v 0.635468 0.171369 0.026361
v 0.691082 0.168609 0.026361
v 0.684287 0.168794 0.028861
v 0.691082 0.168525 0.028861
v 0.724485 0.16754 0.037099
v 0.724912 0.167507 0.039567
v 0.7267 0.167497 0.038704
v 0.708189 0.167885 0.028861
v 0.708189 0.168019 0.026361
v 0.694207 0.168485 0.026361
v 0.668743 0.169263 0.041202
v 0.671555 0.169385 0.026361
v 0.668743 0.169496 0.026361
v 0.708579 0.167632 0.046279
v 0.708579 0.167658 0.04378
v 0.697019 0.168098 0.04378
v 0.713188 0.167574 0.046201
v 0.716 0.167602 0.040187
v 0.716 0.167629 0.037765
v 0.713188 0.167962 0.026361
v 0.669289 0.169205 0.046279
v 0.671555 0.169103 0.046279
v 0.668743 0.169263 0.041202
v 0.638358 0.171176 0.034953
v 0.635468 0.171369 0.026361
v 0.635468 0.171342 0.046279
v 0.638358 0.171173 0.037375
v 0.649918 0.170439 0.04378
v 0.638358 0.171164 0.04378
v 0.635468 0.171342 0.046279
v 0.649918 0.170436 0.046279
v 0.657339 0.16999 0.031438
v 0.668743 0.169263 0.041202
v 0.65687 0.170103 0.026361
v 0.638358 0.171176 0.034953
v 0.638358 0.171173 0.037375
v 0.648278 0.17055 0.037375
v 0.648278 0.170554 0.034953
v 0.654527 0.170232 0.026361
v 0.657339 0.169968 0.046279
v 0.657339 0.16999 0.031438
v 0.668743 0.169263 0.041202
v 0.657339 0.16999 0.031438
v 0.669289 0.169205 0.046279
v 0.707017 0.167767 0.037375
v 0.707017 0.167792 0.034953
v 0.697019 0.168187 0.034953
v 0.697019 0.168187 0.034953
v 0.694207 0.168485 0.026361
v 0.694207 0.168183 0.046279
v 0.697019 0.168163 0.037375
v 0.724912 0.167507 0.039567
v 0.724485 0.16754 0.037099
v 0.722194 0.167532 0.04015
v 0.723091 0.167709 0.028959
v 0.725432 0.167603 0.030437
v 0.727292 0.167689 0.028447
v 0.725432 0.167603 0.030437
v 0.726311 0.167574 0.032093
v 0.727292 0.167689 0.028447
v 0.726466 0.167416 0.046201
v 0.729591 0.167381 0.046201
v 0.724912 0.167507 0.039567
v 0.722194 0.167532 0.04015
v 0.721522 0.167566 0.03776
v 0.716 0.167629 0.037765
v 0.716 0.167602 0.040187
v 0.674679 0.169176 0.028861
v 0.681475 0.168906 0.028861
v 0.691082 0.168609 0.026361
v 0.674679 0.169261 0.026361
v 0.724485 0.16754 0.037099
v 0.7267 0.167497 0.038704
v 0.728605 0.1675 0.036475
v 0.726232 0.167545 0.034825
v 0.724485 0.16754 0.037099
v 0.728605 0.1675 0.036475
v 0.684287 0.168576 0.046279
v 0.681475 0.168906 0.028861
v 0.681475 0.168687 0.046279
v 0.668743 0.169263 0.041202
v 0.671555 0.169103 0.046279
v 0.671555 0.169385 0.026361
v 0.723452 0.16784 0.026439
v 0.713188 0.167962 0.026361
v 0.716 0.167795 0.028861
v 0.65687 0.170103 0.026361
v 0.654527 0.170232 0.026361
v 0.657339 0.16999 0.031438
v 0.684287 0.168576 0.046279
v 0.684287 0.168794 0.028861
v 0.681475 0.168906 0.028861
v 0.697019 0.168187 0.034953
v 0.697019 0.168163 0.037375
v 0.707017 0.167767 0.037375
vn 0.0383 0.9992 0.0088
vn 0.0383 0.9992 0.0088
vn 0.0383 0.9992 0.0088
vn 0.0114 0.9985 0.0537
vn 0.0114 0.9985 0.0537
vn 0.0114 0.9985 0.0537
vn 0.0626 0.998 0.0013
vn 0.0626 0.998 0.0013
vn 0.0626 0.998 0.0013
vn 0.0626 0.998 0.0013
vn 0.0626 0.998 0.0013
vn 0.0626 0.998 0.0013
vn 0.0626 0.998 0.0101
vn 0.0626 0.998 0.0101
vn 0.0626 0.998 0.0101
vn 0.0633 0.998 0.0043
vn 0.0633 0.998 0.0043
vn 0.0633 0.998 0.0043
vn 0.0549 0.9984 0.0166
vn 0.0549 0.9984 0.0166
vn 0.0549 0.9984 0.0166
vn 0.0426 0.9989 0.0187
vn 0.0426 0.9989 0.0187
vn 0.0426 0.9989 0.0187
vn 0.0114 0.9985 0.0537
vn 0.0114 0.9985 0.0537
vn 0.0114 0.9985 0.0537
vn 0.0397 0.9986 0.034
vn 0.0397 0.9986 0.034
vn 0.0397 0.9986 0.034
vn 0.0361 0.9986 0.0378
vn 0.0361 0.9986 0.0378
vn 0.0361 0.9986 0.0378
vn 0.0128 0.9999 0.0106
vn 0.0128 0.9999 0.0106
vn 0.0128 0.9999 0.0106
vn 0.0261 0.9989 0.0383
vn 0.0261 0.9989 0.0383
vn 0.0261 0.9989 0.0383
vn 0.0114 0.9999 0.0111
vn 0.0114 0.9999 0.0111
vn 0.0114 0.9999 0.0111
vn 0.0114 0.9999 0.0111
vn 0.0114 0.9999 0.0111
vn 0.0114 0.9999 0.0111
vn 0.0114 0.9999 0.0111
vn 0.0114 0.9999 0.0111
vn 0.0114 0.9999 0.0111
vn 0.0396 0.9992 0.0102
vn 0.0396 0.9992 0.0102
vn 0.0396 0.9992 0.0102
vn 0.0114 0.9999 0.0111
vn 0.0114 0.9999 0.0111
vn 0.0114 0.9999 0.0111
vn 0.0114 0.9999 0.0111
vn 0.0114 0.9999 0.0111
vn 0.0114 0.9999 0.0111
vn 0.0611 0.9981 0.0032
vn 0.0611 0.9981 0.0032
vn 0.0611 0.9981 0.0032
vn 0.0396 0.9986 0.0339
vn 0.0396 0.9986 0.0339
vn 0.0396 0.9986 0.0339
vn 0.0114 0.9999 0.0111
vn 0.0114 0.9999 0.0111
vn 0.0114 0.9999 0.0111
vn 0.0333 0.998 0.0537
vn 0.0333 0.998 0.0537
vn 0.0333 0.998 0.0537
vn 0.0396 0.9991 0.0157
vn 0.0396 0.9991 0.0157
vn 0.0396 0.9991 0.0157
vn 0.038 0.9992 0.0102
vn 0.038 0.9992 0.0102
vn 0.038 0.9992 0.0102
vn 0.0364 0.9992 0.0186
vn 0.0364 0.9992 0.0186
vn 0.0364 0.9992 0.0186
vn 0.0364 0.9992 0.0186
vn 0.0451 0.999 0.0066
vn 0.0451 0.999 0.0066
vn 0.0451 0.999 0.0066
vn 0.0626 0.998 0.0013
vn 0.0626 0.998 0.0013
vn 0.0626 0.998 0.0013
vn 0.0626 0.998 0.0013
vn 0.0626 0.998 0.0013
vn 0.0626 0.998 0.0013
vn 0.0626 0.998 0.0013
vn 0.0626 0.998 0.0013
vn 0.0485 0.9987 0.0177
vn 0.0485 0.9987 0.0177
vn 0.0485 0.9987 0.0177
vn 0.0626 0.998 0.0013
vn 0.0626 0.998 0.0013
vn 0.0626 0.998 0.0013
vn 0.0626 0.998 0.0013
vn 0.0833 0.9965 0.0015
vn 0.0833 0.9965 0.0015
vn 0.0833 0.9965 0.0015
vn 0.0593 0.9982 0.005
vn 0.0593 0.9982 0.005
vn 0.0593 0.9982 0.005
vn 0.0395 0.9992 0.0102
vn 0.0395 0.9992 0.0102
vn 0.0395 0.9992 0.0102
vn 0.0574 0.9982 0.0146
vn 0.0574 0.9982 0.0146
vn 0.0574 0.9982 0.0146
vn 0.0574 0.9982 0.0146
vn 0.0113 0.9999 0.0111
vn 0.0113 0.9999 0.0111
vn 0.0113 0.9999 0.0111
vn 0.0114 0.9985 0.0537
vn 0.0114 0.9985 0.0537
vn 0.0114 0.9985 0.0537
vn -0.0177 0.9995 0.0265
vn -0.0177 0.9995 0.0265
vn -0.0177 0.9995 0.0265
vn 0.0113 0.9999 0.0111
vn 0.0113 0.9999 0.0111
vn 0.0113 0.9999 0.0111
vn 0.0113 0.9999 0.0111
vn 0.0114 0.9999 0.0111
vn 0.0114 0.9999 0.0111
vn 0.0114 0.9999 0.0111
vn 0.0396 0.9986 0.0339
vn 0.0396 0.9986 0.0339
vn 0.0396 0.9986 0.0339
vn 0.0396 0.9986 0.0339
vn 0.0114 0.9999 0.0111
vn 0.0114 0.9999 0.0111
vn 0.0114 0.9999 0.0111
vn 0.0114 0.9999 0.0111
vn 0.0114 0.9999 0.0111
vn 0.0114 0.9999 0.0111
vn 0.0396 0.9991 0.0125
vn 0.0396 0.9991 0.0125
vn 0.0396 0.9991 0.0125
vn 0.0314 0.9994 0.0142
vn 0.0314 0.9994 0.0142
vn 0.0314 0.9994 0.0142
vn 0.0114 0.9985 0.0537
vn 0.0114 0.9985 0.0537
vn 0.0114 0.9985 0.0537
vn 0.0552 0.9983 0.0171
vn 0.0552 0.9983 0.0171
vn 0.0552 0.9983 0.0171
vn 0.0397 0.9991 0.0125
vn 0.0397 0.9991 0.0125
vn 0.0397 0.9991 0.0125
vn 0.0395 0.9992 0.0102
vn 0.0395 0.9992 0.0102
vn 0.0395 0.9992 0.0102
vt 0.848244 0.598693
vt 0.842598 0.597472
vt 0.841225 0.598693
vt 0.855331 0.590234
vt 0.857382 0.589984
vt 0.855507 0.589004
vt 0.81254 0.598693
vt 0.813952 0.597472
vt 0.813952 0.594344
vt 0.81254 0.588966
vt 0.813952 0.593162
vt 0.813952 0.590187
vt 0.813952 0.590187
vt 0.819406 0.590187
vt 0.819406 0.588966
vt 0.823221 0.598693
vt 0.821848 0.588966
vt 0.821848 0.598693
vt 0.841225 0.588966
vt 0.842598 0.593162
vt 0.842598 0.590187
vt 0.850495 0.588966
vt 0.851868 0.594535
vt 0.851868 0.590187
vt 0.855331 0.590234
vt 0.855507 0.589004
vt 0.851868 0.590187
vt 0.839699 0.588966
vt 0.835007 0.590187
vt 0.836381 0.590187
vt 0.848053 0.590187
vt 0.841225 0.588966
vt 0.842598 0.590187
vt 0.851868 0.595718
vt 0.850495 0.598655
vt 0.851868 0.598655
vt 0.856903 0.591765
vt 0.858111 0.591112
vt 0.857382 0.589984
vt 0.856864 0.593099
vt 0.858333 0.592328
vt 0.856903 0.591765
vt 0.856864 0.593099
vt 0.858023 0.593905
vt 0.858333 0.592328
vt 0.856011 0.59421
vt 0.854564 0.594533
vt 0.854892 0.5957
vt 0.842598 0.594344
vt 0.841225 0.598693
vt 0.842598 0.597472
vt 0.854564 0.594533
vt 0.851868 0.595718
vt 0.854892 0.5957
vt 0.856903 0.591765
vt 0.858333 0.592328
vt 0.858111 0.591112
vt 0.813952 0.590187
vt 0.819406 0.588966
vt 0.81254 0.588966
vt 0.839699 0.588966
vt 0.836381 0.590187
vt 0.839699 0.590187
vt 0.856011 0.59421
vt 0.85622 0.595415
vt 0.857093 0.594993
vt 0.848053 0.590187
vt 0.848053 0.588966
vt 0.841225 0.588966
vt 0.82879 0.596213
vt 0.830163 0.588966
vt 0.82879 0.588966
vt 0.848244 0.598693
vt 0.848244 0.597472
vt 0.842598 0.597472
vt 0.850495 0.598655
vt 0.851868 0.595718
vt 0.851868 0.594535
vt 0.850495 0.588966
vt 0.829057 0.598693
vt 0.830163 0.598693
vt 0.82879 0.596213
vt 0.813952 0.593162
vt 0.81254 0.588966
vt 0.81254 0.598693
vt 0.813952 0.594344
vt 0.819597 0.597472
vt 0.813952 0.597472
vt 0.81254 0.598693
vt 0.819597 0.598693
vt 0.823221 0.591446
vt 0.82879 0.596213
vt 0.822992 0.588966
vt 0.813952 0.593162
vt 0.813952 0.594344
vt 0.818796 0.594344
vt 0.818796 0.593162
vt 0.821848 0.588966
vt 0.823221 0.598693
vt 0.823221 0.591446
vt 0.82879 0.596213
vt 0.823221 0.591446
vt 0.829057 0.598693
vt 0.847481 0.594344
vt 0.847481 0.593162
vt 0.842598 0.593162
vt 0.842598 0.593162
vt 0.841225 0.588966
vt 0.841225 0.598693
vt 0.842598 0.594344
vt 0.85622 0.595415
vt 0.856011 0.59421
vt 0.854892 0.5957
vt 0.855331 0.590234
vt 0.856474 0.590956
vt 0.857382 0.589984
vt 0.856474 0.590956
vt 0.856903 0.591765
vt 0.857382 0.589984
vt 0.856979 0.598655
vt 0.858505 0.598655
vt 0.85622 0.595415
vt 0.854892 0.5957
vt 0.854564 0.594533
vt 0.851868 0.594535
vt 0.851868 0.595718
vt 0.831689 0.590187
vt 0.835007 0.590187
vt 0.839699 0.588966
vt 0.831689 0.588966
vt 0.856011 0.59421
vt 0.857093 0.594993
vt 0.858023 0.593905
vt 0.856864 0.593099
vt 0.856011 0.59421
vt 0.858023 0.593905
vt 0.836381 0.598693
vt 0.835007 0.590187
vt 0.835007 0.598693
vt 0.82879 0.596213
vt 0.830163 0.598693
vt 0.830163 0.588966
vt 0.855507 0.589004
vt 0.850495 0.588966
vt 0.851868 0.590187
vt 0.822992 0.588966
vt 0.821848 0.588966
vt 0.823221 0.591446
vt 0.836381 0.598693
vt 0.836381 0.590187
vt 0.835007 0.590187
vt 0.842598 0.593162
vt 0.842598 0.594344
vt 0.847481 0.594344
s off
f 1/1/1 2/2/2 3/3/3
f 4/4/4 5/5/5 6/6/6
f 7/7/7 8/8/8 9/9/9
f 10/10/10 11/11/11 12/12/12
f 13/13/13 14/14/14 15/15/15
f 16/16/16 17/17/17 18/18/18
f 19/19/19 20/20/20 21/21/21
f 22/22/22 23/23/23 24/24/24
f 25/25/25 26/26/26 27/27/27
f 28/28/28 29/29/29 30/30/30
f 31/31/31 32/32/32 33/33/33
f 34/34/34 35/35/35 36/36/36
f 37/37/37 38/38/38 39/39/39
f 40/40/40 41/41/41 42/42/42
f 43/43/43 44/44/44 45/45/45
f 46/46/46 47/47/47 48/48/48
f 49/49/49 50/50/50 51/51/51
f 52/52/52 53/53/53 54/54/54
f 55/55/55 56/56/56 57/57/57
f 58/58/58 59/59/59 60/60/60
f 61/61/61 62/62/62 63/63/63
f 64/64/64 65/65/65 66/66/66
f 67/67/67 68/68/68 69/69/69
f 70/70/70 71/71/71 72/72/72
f 73/73/73 74/74/74 75/75/75
f 76/76/76 77/77/77 78/78/78
f 76/76/76 78/78/78 79/79/79
f 80/80/80 81/81/81 82/82/82
f 83/83/83 84/84/84 85/85/85
f 83/83/83 85/85/85 86/86/86
f 87/87/87 88/88/88 89/89/89
f 87/87/87 89/89/89 90/90/90
f 91/91/91 92/92/92 93/93/93
f 94/94/94 95/95/95 96/96/96
f 94/94/94 96/96/96 97/97/97
f 98/98/98 99/99/99 100/100/100
f 101/101/101 102/102/102 103/103/103
f 104/104/104 105/105/105 106/106/106
f 107/107/107 108/108/108 109/109/109
f 107/107/107 109/109/109 110/110/110
f 111/111/111 112/112/112 113/113/113
f 114/114/114 115/115/115 116/116/116
f 117/117/117 118/118/118 119/119/119
f 120/120/120 121/121/121 122/122/122
f 120/120/120 122/122/122 123/123/123
f 124/124/124 125/125/125 126/126/126
f 127/127/127 128/128/128 129/129/129
f 127/127/127 129/129/129 130/130/130
f 131/131/131 132/132/132 133/133/133
f 134/134/134 135/135/135 136/136/136
f 137/137/137 138/138/138 139/139/139
f 140/140/140 141/141/141 142/142/142
f 143/143/143 144/144/144 145/145/145
f 146/146/146 147/147/147 148/148/148
f 149/149/149 150/150/150 151/151/151
f 152/152/152 153/153/153 154/154/154
