v -0.9466 0.202772 -0.31387
v -0.950608 0.202588 -0.31268
v -0.94684 0.202654 -0.311336
v -0.964165 0.203413 -0.331614
v -0.964314 0.20331 -0.329214
v -0.961053 0.203296 -0.331039
v -0.951409 0.203318 -0.329524
v -0.950158 0.203255 -0.32725
v -0.948391 0.203473 -0.331035
v -0.952194 0.203052 -0.324198
v -0.953436 0.203158 -0.327485
v -0.954807 0.202997 -0.324939
v -0.953473 0.202607 -0.315262
v -0.951767 0.202773 -0.317673
v -0.955079 0.202708 -0.318715
v -0.969735 0.203382 -0.327011
v -0.971446 0.203543 -0.329348
v -0.972587 0.203473 -0.326872
v -0.950158 0.203255 -0.32725
v -0.94667 0.203427 -0.328847
v -0.948391 0.203473 -0.331035
v -0.975956 0.203083 -0.311468
v -0.975956 0.203189 -0.313889
v -0.987516 0.204497 -0.313889
v -0.976346 0.203884 -0.328808
v -0.976346 0.203994 -0.331308
v -0.990406 0.205567 -0.331308
v -0.966496 0.202688 -0.313668
v -0.968115 0.202642 -0.311383
v -0.963534 0.202484 -0.31132
v -0.939153 0.203277 -0.316132
v -0.941914 0.202923 -0.314175
v -0.937225 0.203425 -0.314289
v -0.958608 0.203171 -0.329841
v -0.961509 0.203199 -0.328584
v -0.959547 0.203096 -0.327575
v -0.939149 0.203739 -0.32664
v -0.939257 0.203881 -0.33015
v -0.940966 0.203586 -0.328059
v -0.960908 0.202704 -0.317961
v -0.960377 0.202841 -0.321353
v -0.963123 0.202834 -0.319407
v -0.987516 0.204845 -0.322716
v -0.977596 0.203636 -0.320294
v -0.977596 0.203742 -0.322716
v -0.960544 0.202631 -0.316581
v -0.958308 0.202471 -0.314474
v -0.957727 0.202567 -0.317
v -0.975956 0.203083 -0.311468
v -0.987516 0.204497 -0.313889
v -0.990406 0.204784 -0.311468
v -0.960596 0.202437 -0.312244
v -0.960964 0.202579 -0.315151
v -0.963076 0.202583 -0.313876
v -0.960908 0.202704 -0.317961
v -0.957727 0.202567 -0.317
v -0.958206 0.202685 -0.319306
v -0.990406 0.204784 -0.311468
v -0.987516 0.204497 -0.313889
v -0.987516 0.204749 -0.320294
v -0.969794 0.202833 -0.314438
v -0.97213 0.202977 -0.315913
v -0.973199 0.202911 -0.31359
v -0.967831 0.2034 -0.328868
v -0.971446 0.203543 -0.329348
v -0.969735 0.203382 -0.327011
v -0.94021 0.202976 -0.312123
v -0.941914 0.202923 -0.314175
v -0.943107 0.202763 -0.311314
v -0.939149 0.203739 -0.32664
v -0.937288 0.204039 -0.32842
v -0.939257 0.203881 -0.33015
v -0.941914 0.202923 -0.314175
v -0.94021 0.202976 -0.312123
v -0.937225 0.203425 -0.314289
v -0.963076 0.202583 -0.313876
v -0.966496 0.202688 -0.313668
v -0.963534 0.202484 -0.31132
v -0.950158 0.203255 -0.32725
v -0.951409 0.203318 -0.329524
v -0.953436 0.203158 -0.327485
v -0.969516 0.20328 -0.324837
v -0.969532 0.203121 -0.321214
v -0.967571 0.203152 -0.323423
v -0.990406 0.205567 -0.331308
v -0.987516 0.204845 -0.322716
v -0.987516 0.205085 -0.328808
v -0.960596 0.202437 -0.312244
v -0.963076 0.202583 -0.313876
v -0.963534 0.202484 -0.31132
v -0.968488 0.203528 -0.331294
v -0.967831 0.2034 -0.328868
v -0.964314 0.20331 -0.329214
v -0.943107 0.202763 -0.311314
v -0.941914 0.202923 -0.314175
v -0.9466 0.202772 -0.31387
v -0.951767 0.202773 -0.317673
v -0.953473 0.202607 -0.315262
v -0.950119 0.202735 -0.315586
v -0.963123 0.202834 -0.319407
v -0.967571 0.203152 -0.323423
v -0.969532 0.203121 -0.321214
v -0.952656 0.202874 -0.32059
v -0.955079 0.202708 -0.318715
v -0.951767 0.202773 -0.317673
v -0.963123 0.202834 -0.319407
v -0.960377 0.202841 -0.321353
v -0.967571 0.203152 -0.323423
v -0.964314 0.20331 -0.329214
v -0.964165 0.203413 -0.331614
v -0.968488 0.203528 -0.331294
v -0.969516 0.20328 -0.324837
v -0.972191 0.203312 -0.323508
v -0.969532 0.203121 -0.321214
v -0.952194 0.203052 -0.324198
v -0.950158 0.203255 -0.32725
v -0.953436 0.203158 -0.327485
v -0.943757 0.203634 -0.331622
v -0.948391 0.203473 -0.331035
v -0.94667 0.203427 -0.328847
v -0.967831 0.2034 -0.328868
v -0.968488 0.203528 -0.331294
v -0.971446 0.203543 -0.329348
v -0.960544 0.202631 -0.316581
v -0.960964 0.202579 -0.315151
v -0.958308 0.202471 -0.314474
v -0.961053 0.203296 -0.331039
v -0.964314 0.20331 -0.329214
v -0.961509 0.203199 -0.328584
v -0.966496 0.202688 -0.313668
v -0.969794 0.202833 -0.314438
v -0.968115 0.202642 -0.311383
v -0.987516 0.205085 -0.328808
v -0.976346 0.203884 -0.328808
v -0.990406 0.205567 -0.331308
v -0.987516 0.204749 -0.320294
v -0.977596 0.203636 -0.320294
v -0.987516 0.204845 -0.322716
v -0.960596 0.202437 -0.312244
v -0.958308 0.202471 -0.314474
v -0.960964 0.202579 -0.315151
v -0.987516 0.204749 -0.320294
v -0.990406 0.205567 -0.331308
v -0.990406 0.204784 -0.311468
v -0.9466 0.202772 -0.31387
v -0.94684 0.202654 -0.311336
v -0.943107 0.202763 -0.311314
v -0.955349 0.202846 -0.321985
v -0.955079 0.202708 -0.318715
v -0.952656 0.202874 -0.32059
v -0.952194 0.203052 -0.324198
v -0.954807 0.202997 -0.324939
v -0.955349 0.202846 -0.321985
v -0.952656 0.202874 -0.32059
v -0.990406 0.205567 -0.331308
v -0.987516 0.204749 -0.320294
v -0.987516 0.204845 -0.322716
v -0.953473 0.202607 -0.315262
v -0.950608 0.202588 -0.31268
v -0.950119 0.202735 -0.315586
v -0.94667 0.203427 -0.328847
v -0.943219 0.20353 -0.328889
v -0.943757 0.203634 -0.331622
v -0.961509 0.203199 -0.328584
v -0.958608 0.203171 -0.329841
v -0.961053 0.203296 -0.331039
v -0.960908 0.202704 -0.317961
v -0.958206 0.202685 -0.319306
v -0.960377 0.202841 -0.321353
v -0.960908 0.202704 -0.317961
v -0.960544 0.202631 -0.316581
v -0.957727 0.202567 -0.317
v -0.972587 0.203473 -0.326872
v -0.972191 0.203312 -0.323508
v -0.969516 0.20328 -0.324837
v -0.969735 0.203382 -0.327011
v -0.943219 0.20353 -0.328889
v -0.940966 0.203586 -0.328059
v -0.939257 0.203881 -0.33015
v -0.943757 0.203634 -0.331622
v -0.9466 0.202772 -0.31387
v -0.950119 0.202735 -0.315586
v -0.950608 0.202588 -0.31268
v -0.969794 0.202833 -0.314438
v -0.973199 0.202911 -0.31359
v -0.968115 0.202642 -0.311383
v -0.975956 0.203189 -0.313889
v -0.975956 0.203189 -0.313889
v -0.977596 0.203742 -0.322716
v -0.977596 0.203742 -0.322716
vn -0.0331 0.9985 0.0434
vn -0.0331 0.9985 0.0434
vn -0.0331 0.9985 0.0434
vn 0.0292 0.9986 0.0449
vn 0.0292 0.9986 0.0449
vn 0.0292 0.9986 0.0449
vn -0.0292 0.9986 0.0438
vn -0.0292 0.9986 0.0438
vn -0.0292 0.9986 0.0438
vn -0.0338 0.9984 0.0449
vn -0.0338 0.9984 0.0449
vn -0.0338 0.9984 0.0449
vn -0.0338 0.9984 0.0449
vn -0.0338 0.9984 0.0449
vn -0.0338 0.9984 0.0449
vn 0.0338 0.9985 0.0438
vn 0.0338 0.9985 0.0438
vn 0.0338 0.9985 0.0438
vn -0.0292 0.9986 0.0438
vn -0.0292 0.9986 0.0438
vn -0.0292 0.9986 0.0438
vn 0.1123 0.9927 0.0436
vn 0.1123 0.9927 0.0436
vn 0.1123 0.9927 0.0436
vn 0.1111 0.9929 0.0436
vn 0.1111 0.9929 0.0436
vn 0.1111 0.9929 0.0436
vn 0.0338 0.9985 0.0438
vn 0.0338 0.9985 0.0438
vn 0.0338 0.9985 0.0438
vn -0.1057 0.9939 0.0307
vn -0.1057 0.9939 0.0307
vn -0.1057 0.9939 0.0307
vn 0.0293 0.9986 0.045
vn 0.0293 0.9986 0.045
vn 0.0293 0.9986 0.045
vn -0.1179 0.9921 0.0436
vn -0.1179 0.9921 0.0436
vn -0.1179 0.9921 0.0436
vn 0.0292 0.9986 0.0449
vn 0.0292 0.9986 0.0449
vn 0.0292 0.9986 0.0449
vn 0.1104 0.9929 0.0436
vn 0.1104 0.9929 0.0436
vn 0.1104 0.9929 0.0436
vn 0.0292 0.9986 0.0449
vn 0.0292 0.9986 0.0449
vn 0.0292 0.9986 0.0449
vn 0.1169 0.9929 0.0216
vn 0.1169 0.9929 0.0216
vn 0.1169 0.9929 0.0216
vn 0.0292 0.9986 0.0449
vn 0.0292 0.9986 0.0449
vn 0.0292 0.9986 0.0449
vn 0.0292 0.9986 0.0449
vn 0.0292 0.9986 0.0449
vn 0.0292 0.9986 0.0449
vn 0.1313 0.9906 0.039
vn 0.1313 0.9906 0.039
vn 0.1313 0.9906 0.039
vn 0.0338 0.9985 0.0438
vn 0.0338 0.9985 0.0438
vn 0.0338 0.9985 0.0438
vn 0.0338 0.9985 0.0438
vn 0.0338 0.9985 0.0438
vn 0.0338 0.9985 0.0438
vn -0.0653 0.9975 0.0287
vn -0.0653 0.9975 0.0287
vn -0.0653 0.9975 0.0287
vn -0.1179 0.9921 0.0436
vn -0.1179 0.9921 0.0436
vn -0.1179 0.9921 0.0436
vn -0.1048 0.9926 0.0616
vn -0.1048 0.9926 0.0616
vn -0.1048 0.9926 0.0616
vn 0.0331 0.9985 0.0446
vn 0.0331 0.9985 0.0446
vn 0.0331 0.9985 0.0446
vn -0.0329 0.9984 0.0458
vn -0.0329 0.9984 0.0458
vn -0.0329 0.9984 0.0458
vn 0.0338 0.9985 0.0438
vn 0.0338 0.9985 0.0438
vn 0.0338 0.9985 0.0438
vn 0.1315 0.9906 0.039
vn 0.1315 0.9906 0.039
vn 0.1315 0.9906 0.039
vn 0.0298 0.9986 0.0441
vn 0.0298 0.9986 0.0441
vn 0.0298 0.9986 0.0441
vn 0.0299 0.9985 0.0448
vn 0.0299 0.9985 0.0448
vn 0.0299 0.9985 0.0448
vn -0.0292 0.9986 0.0438
vn -0.0292 0.9986 0.0438
vn -0.0292 0.9986 0.0438
vn -0.0337 0.9984 0.0449
vn -0.0337 0.9984 0.0449
vn -0.0337 0.9984 0.0449
vn 0.0327 0.9985 0.0429
vn 0.0327 0.9985 0.0429
vn 0.0327 0.9985 0.0429
vn -0.0338 0.9984 0.0449
vn -0.0338 0.9984 0.0449
vn -0.0338 0.9984 0.0449
vn 0.03 0.9985 0.0459
vn 0.03 0.9985 0.0459
vn 0.03 0.9985 0.0459
vn 0.0298 0.9985 0.0449
vn 0.0298 0.9985 0.0449
vn 0.0298 0.9985 0.0449
vn 0.0338 0.9985 0.0438
vn 0.0338 0.9985 0.0438
vn 0.0338 0.9985 0.0438
vn -0.0328 0.9985 0.0446
vn -0.0328 0.9985 0.0446
vn -0.0328 0.9985 0.0446
vn -0.0292 0.9986 0.0438
vn -0.0292 0.9986 0.0438
vn -0.0292 0.9986 0.0438
vn 0.0338 0.9985 0.0438
vn 0.0338 0.9985 0.0438
vn 0.0338 0.9985 0.0438
vn 0.0292 0.9986 0.0449
vn 0.0292 0.9986 0.0449
vn 0.0292 0.9986 0.0449
vn 0.0292 0.9986 0.0449
vn 0.0292 0.9986 0.0449
vn 0.0292 0.9986 0.0449
vn 0.0338 0.9985 0.0438
vn 0.0338 0.9985 0.0438
vn 0.0338 0.9985 0.0438
vn 0.1066 0.992 0.068
vn 0.1066 0.992 0.068
vn 0.1066 0.992 0.068
vn 0.1114 0.993 0.0391
vn 0.1114 0.993 0.0391
vn 0.1114 0.993 0.0391
vn 0.0292 0.9986 0.0449
vn 0.0292 0.9986 0.0449
vn 0.0292 0.9986 0.0449
vn 0.1314 0.9906 0.0391
vn 0.1314 0.9906 0.0391
vn 0.1314 0.9906 0.0391
vn -0.0292 0.9986 0.0438
vn -0.0292 0.9986 0.0438
vn -0.0292 0.9986 0.0438
vn -0.0338 0.9984 0.0449
vn -0.0338 0.9984 0.0449
vn -0.0338 0.9984 0.0449
vn -0.0338 0.9984 0.0449
vn -0.0338 0.9984 0.0449
vn -0.0338 0.9984 0.0449
vn -0.0338 0.9984 0.0449
vn 0.1315 0.9905 0.0391
vn 0.1315 0.9905 0.0391
vn 0.1315 0.9905 0.0391
vn -0.0337 0.9984 0.0449
vn -0.0337 0.9984 0.0449
vn -0.0337 0.9984 0.0449
vn -0.0292 0.9986 0.0438
vn -0.0292 0.9986 0.0438
vn -0.0292 0.9986 0.0438
vn 0.0292 0.9986 0.0449
vn 0.0292 0.9986 0.0449
vn 0.0292 0.9986 0.0449
vn 0.0292 0.9986 0.0449
vn 0.0292 0.9986 0.0449
vn 0.0292 0.9986 0.0449
vn 0.0292 0.9986 0.0449
vn 0.0292 0.9986 0.0449
vn 0.0292 0.9986 0.0449
vn 0.0337 0.9985 0.0438
vn 0.0337 0.9985 0.0438
vn 0.0337 0.9985 0.0438
vn 0.0337 0.9985 0.0438
vn -0.067 0.9956 0.0661
vn -0.067 0.9956 0.0661
vn -0.067 0.9956 0.0661
vn -0.067 0.9956 0.0661
vn -0.0326 0.9984 0.0451
vn -0.0326 0.9984 0.0451
vn -0.0326 0.9984 0.0451
vn 0.0338 0.9985 0.0438
vn 0.0338 0.9985 0.0438
vn 0.0338 0.9985 0.0438
vn 0 0 0
vn 0 0 0
vn 0 0 0
vn 0 0 0
vt 0.039948 0.422816
vt 0.037991 0.423397
vt 0.039831 0.424054
vt 0.03137 0.414151
vt 0.031298 0.415323
vt 0.032891 0.414432
vt 0.0376 0.415172
vt 0.038211 0.416282
vt 0.039074 0.414434
vt 0.037216 0.417773
vt 0.03661 0.416167
vt 0.035941 0.417411
vt 0.036592 0.422137
vt 0.037425 0.420959
vt 0.035808 0.42045
vt 0.028651 0.416399
vt 0.027815 0.415258
vt 0.027258 0.416467
vt 0.038211 0.416282
vt 0.039914 0.415502
vt 0.039074 0.414434
vt 0.025613 0.42399
vt 0.025613 0.422807
vt 0.019967 0.422807
vt 0.025422 0.415522
vt 0.025422 0.414301
vt 0.018556 0.414301
vt 0.030232 0.422915
vt 0.029442 0.424031
vt 0.031679 0.424062
vt 0.043585 0.421712
vt 0.042237 0.422668
vt 0.044527 0.422612
vt 0.034084 0.415017
vt 0.032668 0.415631
vt 0.033626 0.416123
vt 0.043587 0.41658
vt 0.043534 0.414866
vt 0.0427 0.415887
vt 0.032961 0.420819
vt 0.03322 0.419162
vt 0.03188 0.420113
vt 0.019967 0.418497
vt 0.024812 0.419679
vt 0.024812 0.418497
vt 0.033139 0.421492
vt 0.034231 0.422521
vt 0.034515 0.421288
vt 0.025613 0.42399
vt 0.019967 0.422807
vt 0.018556 0.42399
vt 0.033113 0.423611
vt 0.032934 0.422191
vt 0.031902 0.422814
vt 0.032961 0.420819
vt 0.034515 0.421288
vt 0.034281 0.420162
vt 0.018556 0.42399
vt 0.019967 0.422807
vt 0.019967 0.419679
vt 0.028622 0.422539
vt 0.027481 0.421819
vt 0.026959 0.422953
vt 0.02958 0.415492
vt 0.027815 0.415258
vt 0.028651 0.416399
vt 0.043069 0.42367
vt 0.042237 0.422668
vt 0.041654 0.424064
vt 0.043587 0.41658
vt 0.044496 0.415711
vt 0.043534 0.414866
vt 0.042237 0.422668
vt 0.043069 0.42367
vt 0.044527 0.422612
vt 0.031902 0.422814
vt 0.030232 0.422915
vt 0.031679 0.424062
vt 0.038211 0.416282
vt 0.0376 0.415172
vt 0.03661 0.416167
vt 0.028757 0.417461
vt 0.02875 0.41923
vt 0.029707 0.418151
vt 0.018556 0.414301
vt 0.019967 0.418497
vt 0.019967 0.415522
vt 0.033113 0.423611
vt 0.031902 0.422814
vt 0.031679 0.424062
vt 0.02926 0.414307
vt 0.02958 0.415492
vt 0.031298 0.415323
vt 0.041654 0.424064
vt 0.042237 0.422668
vt 0.039948 0.422816
vt 0.037425 0.420959
vt 0.036592 0.422137
vt 0.03823 0.421978
vt 0.03188 0.420113
vt 0.029707 0.418151
vt 0.02875 0.41923
vt 0.036991 0.419535
vt 0.035808 0.42045
vt 0.037425 0.420959
vt 0.03188 0.420113
vt 0.03322 0.419162
vt 0.029707 0.418151
vt 0.031298 0.415323
vt 0.03137 0.414151
vt 0.02926 0.414307
vt 0.028757 0.417461
vt 0.027451 0.41811
vt 0.02875 0.41923
vt 0.037216 0.417773
vt 0.038211 0.416282
vt 0.03661 0.416167
vt 0.041337 0.414148
vt 0.039074 0.414434
vt 0.039914 0.415502
vt 0.02958 0.415492
vt 0.02926 0.414307
vt 0.027815 0.415258
vt 0.033139 0.421492
vt 0.032934 0.422191
vt 0.034231 0.422521
vt 0.032891 0.414432
vt 0.031298 0.415323
vt 0.032668 0.415631
vt 0.030232 0.422915
vt 0.028622 0.422539
vt 0.029442 0.424031
vt 0.019967 0.415522
vt 0.025422 0.415522
vt 0.018556 0.414301
vt 0.019967 0.419679
vt 0.024812 0.419679
vt 0.019967 0.418497
vt 0.033113 0.423611
vt 0.034231 0.422521
vt 0.032934 0.422191
vt 0.019967 0.419679
vt 0.018556 0.414301
vt 0.018556 0.42399
vt 0.039948 0.422816
vt 0.039831 0.424054
vt 0.041654 0.424064
vt 0.035676 0.418854
vt 0.035808 0.42045
vt 0.036991 0.419535
vt 0.037216 0.417773
vt 0.035941 0.417411
vt 0.035676 0.418854
vt 0.036991 0.419535
vt 0.018556 0.414301
vt 0.019967 0.419679
vt 0.019967 0.418497
vt 0.036592 0.422137
vt 0.037991 0.423397
vt 0.03823 0.421978
vt 0.039914 0.415502
vt 0.0416 0.415482
vt 0.041337 0.414148
vt 0.032668 0.415631
vt 0.034084 0.415017
vt 0.032891 0.414432
vt 0.032961 0.420819
vt 0.034281 0.420162
vt 0.03322 0.419162
vt 0.032961 0.420819
vt 0.033139 0.421492
vt 0.034515 0.421288
vt 0.027258 0.416467
vt 0.027451 0.41811
vt 0.028757 0.417461
vt 0.028651 0.416399
vt 0.0416 0.415482
vt 0.0427 0.415887
vt 0.043534 0.414866
vt 0.041337 0.414148
vt 0.039948 0.422816
vt 0.03823 0.421978
vt 0.037991 0.423397
vt 0.028622 0.422539
vt 0.026959 0.422953
vt 0.029442 0.424031
vt 0 1
vt 0 1
vt 0 1
vt 0 1
s off
f 1/1/1 2/2/2 3/3/3
f 4/4/4 5/5/5 6/6/6
f 7/7/7 8/8/8 9/9/9
f 10/10/10 11/11/11 12/12/12
f 13/13/13 14/14/14 15/15/15
f 16/16/16 17/17/17 18/18/18
f 19/19/19 20/20/20 21/21/21
f 22/22/22 23/23/23 24/24/24
f 25/25/25 26/26/26 27/27/27
f 28/28/28 29/29/29 30/30/30
f 31/31/31 32/32/32 33/33/33
f 34/34/34 35/35/35 36/36/36
f 37/37/37 38/38/38 39/39/39
f 40/40/40 41/41/41 42/42/42
f 43/43/43 44/44/44 45/45/45
f 46/46/46 47/47/47 48/48/48
f 49/49/49 50/50/50 51/51/51
f 52/52/52 53/53/53 54/54/54
f 55/55/55 56/56/56 57/57/57
f 58/58/58 59/59/59 60/60/60
f 61/61/61 62/62/62 63/63/63
f 64/64/64 65/65/65 66/66/66
f 67/67/67 68/68/68 69/69/69
f 70/70/70 71/71/71 72/72/72
f 73/73/73 74/74/74 75/75/75
f 76/76/76 77/77/77 78/78/78
f 79/79/79 80/80/80 81/81/81
f 82/82/82 83/83/83 84/84/84
f 85/85/85 86/86/86 87/87/87
f 88/88/88 89/89/89 90/90/90
f 91/91/91 92/92/92 93/93/93
f 94/94/94 95/95/95 96/96/96
f 97/97/97 98/98/98 99/99/99
f 100/100/100 101/101/101 102/102/102
f 103/103/103 104/104/104 105/105/105
f 106/106/106 107/107/107 108/108/108
f 109/109/109 110/110/110 111/111/111
f 112/112/112 113/113/113 114/114/114
f 115/115/115 116/116/116 117/117/117
f 118/118/118 119/119/119 120/120/120
f 121/121/121 122/122/122 123/123/123
f 124/124/124 125/125/125 126/126/126
f 127/127/127 128/128/128 129/129/129
f 130/130/130 131/131/131 132/132/132
f 133/133/133 134/134/134 135/135/135
f 136/136/136 137/137/137 138/138/138
f 139/139/139 140/140/140 141/141/141
f 142/142/142 143/143/143 144/144/144
f 145/145/145 146/146/146 147/147/147
f 148/148/148 149/149/149 150/150/150
f 151/151/151 152/152/152 153/153/153
f 151/151/151 153/153/153 154/154/154
f 155/155/155 156/156/156 157/157/157
f 158/158/158 159/159/159 160/160/160
f 161/161/161 162/162/162 163/163/163
f 164/164/164 165/165/165 166/166/166
f 167/167/167 168/168/168 169/169/169
f 170/170/170 171/171/171 172/172/172
f 173/173/173 174/174/174 175/175/175
f 173/173/173 175/175/175 176/176/176
f 177/177/177 178/178/178 179/179/179
f 177/177/177 179/179/179 180/180/180
f 181/181/181 182/182/182 183/183/183
f 184/184/184 185/185/185 186/186/186
f 187/187/187 188/188/188 189/189/189
