v 0.329458 0.202773 -0.314126
v 0.33175 0.202903 -0.315552
v 0.327755 0.202861 -0.317304
v 0.313808 0.203372 -0.331698
v 0.302482 0.203655 -0.329121
v 0.313808 0.203256 -0.329121
v 0.333728 0.202901 -0.314197
v 0.334161 0.20279 -0.311371
v 0.336064 0.203035 -0.313849
v 0.328243 0.203309 -0.32716
v 0.332371 0.203481 -0.328329
v 0.331071 0.203541 -0.330544
v 0.339296 0.204026 -0.327692
v 0.341816 0.204361 -0.328732
v 0.339633 0.2042 -0.330727
v 0.340665 0.203544 -0.313013
v 0.340641 0.203772 -0.318247
v 0.338675 0.203391 -0.314915
v 0.320057 0.203133 -0.329121
v 0.322869 0.203344 -0.331698
v 0.315526 0.203321 -0.331698
v 0.337317 0.203851 -0.329047
v 0.336884 0.203917 -0.331716
v 0.334981 0.203605 -0.329395
v 0.327195 0.203057 -0.322112
v 0.330404 0.203278 -0.324997
v 0.328243 0.203309 -0.32716
v 0.299592 0.203174 -0.311546
v 0.302482 0.202883 -0.311546
v 0.302482 0.20324 -0.319669
v 0.302482 0.20335 -0.322169
v 0.302482 0.20324 -0.319669
v 0.312558 0.202867 -0.319669
v 0.299592 0.204059 -0.331698
v 0.302482 0.20335 -0.322169
v 0.302482 0.203655 -0.329121
v 0.315526 0.203205 -0.329121
v 0.320057 0.203133 -0.329121
v 0.315526 0.203321 -0.331698
v 0.320057 0.202342 -0.311546
v 0.322869 0.202437 -0.311546
v 0.320057 0.203133 -0.329121
v 0.336064 0.203035 -0.313849
v 0.337245 0.203069 -0.311437
v 0.338675 0.203391 -0.314915
v 0.302482 0.20324 -0.319669
v 0.302482 0.20335 -0.322169
v 0.299592 0.203174 -0.311546
v 0.334981 0.203605 -0.329395
v 0.336884 0.203917 -0.331716
v 0.333987 0.203676 -0.331676
v 0.336064 0.203035 -0.313849
v 0.334161 0.20279 -0.311371
v 0.337245 0.203069 -0.311437
v 0.337317 0.203851 -0.329047
v 0.339633 0.2042 -0.330727
v 0.336884 0.203917 -0.331716
v 0.333728 0.202901 -0.314197
v 0.33175 0.202903 -0.315552
v 0.331552 0.202754 -0.31229
v 0.343613 0.204384 -0.324714
v 0.340789 0.204048 -0.324139
v 0.340641 0.203772 -0.318247
v 0.343653 0.20416 -0.318951
v 0.339633 0.2042 -0.330727
v 0.337317 0.203851 -0.329047
v 0.339296 0.204026 -0.327692
v 0.329458 0.202773 -0.314126
v 0.331552 0.202754 -0.31229
v 0.33175 0.202903 -0.315552
v 0.339296 0.204026 -0.327692
v 0.340789 0.204048 -0.324139
v 0.343613 0.204384 -0.324714
v 0.341816 0.204361 -0.328732
v 0.330257 0.203015 -0.319105
v 0.330404 0.203278 -0.324997
v 0.327195 0.203057 -0.322112
v 0.333728 0.202901 -0.314197
v 0.331552 0.202754 -0.31229
v 0.334161 0.20279 -0.311371
v 0.342731 0.203921 -0.316008
v 0.343653 0.20416 -0.318951
v 0.340641 0.203772 -0.318247
v 0.338675 0.203391 -0.314915
v 0.337245 0.203069 -0.311437
v 0.340665 0.203544 -0.313013
v 0.333987 0.203676 -0.331676
v 0.331071 0.203541 -0.330544
v 0.332371 0.203481 -0.328329
v 0.334981 0.203605 -0.329395
v 0.299592 0.204059 -0.331698
v 0.302482 0.203655 -0.329121
v 0.313808 0.203372 -0.331698
v 0.302482 0.20335 -0.322169
v 0.312558 0.202867 -0.319669
v 0.312558 0.202979 -0.322169
v 0.328243 0.203309 -0.32716
v 0.330404 0.203278 -0.324997
v 0.332371 0.203481 -0.328329
v 0.322869 0.202437 -0.311546
v 0.322869 0.203344 -0.331698
v 0.320057 0.203133 -0.329121
v 0.340665 0.203544 -0.313013
v 0.342731 0.203921 -0.316008
v 0.340641 0.203772 -0.318247
v 0.327195 0.203057 -0.322112
v 0.327755 0.202861 -0.317304
v 0.330257 0.203015 -0.319105
v 0.327755 0.202861 -0.317304
v 0.33175 0.202903 -0.315552
v 0.330257 0.203015 -0.319105
v 0.299592 0.203174 -0.311546
v 0.302482 0.20335 -0.322169
v 0.299592 0.204059 -0.331698
vn -0.0294 0.9986 0.0435
vn -0.0294 0.9986 0.0435
vn -0.0294 0.9986 0.0435
vn 0.0352 0.9984 0.0449
vn 0.0352 0.9984 0.0449
vn 0.0352 0.9984 0.0449
vn -0.0641 0.9967 0.0491
vn -0.0641 0.9967 0.0491
vn -0.0641 0.9967 0.0491
vn -0.0292 0.9986 0.0438
vn -0.0292 0.9986 0.0438
vn -0.0292 0.9986 0.0438
vn -0.1137 0.9925 0.0441
vn -0.1137 0.9925 0.0441
vn -0.1137 0.9925 0.0441
vn -0.1179 0.9921 0.0436
vn -0.1179 0.9921 0.0436
vn -0.1179 0.9921 0.0436
vn -0.0031 0.9969 0.0783
vn -0.0031 0.9969 0.0783
vn -0.0031 0.9969 0.0783
vn -0.1109 0.9929 0.0425
vn -0.1109 0.9929 0.0425
vn -0.1109 0.9929 0.0425
vn -0.0293 0.9986 0.0438
vn -0.0293 0.9986 0.0438
vn -0.0293 0.9986 0.0438
vn 0.1001 0.994 0.0436
vn 0.1001 0.994 0.0436
vn 0.1001 0.994 0.0436
vn 0.0369 0.9984 0.0438
vn 0.0369 0.9984 0.0438
vn 0.0369 0.9984 0.0438
vn 0.1 0.994 0.0437
vn 0.1 0.994 0.0437
vn 0.1 0.994 0.0437
vn 0.016 0.9989 0.0449
vn 0.016 0.9989 0.0449
vn 0.016 0.9989 0.0449
vn -0.0337 0.9984 0.0449
vn -0.0337 0.9984 0.0449
vn -0.0337 0.9984 0.0449
vn -0.1178 0.9921 0.0436
vn -0.1178 0.9921 0.0436
vn -0.1178 0.9921 0.0436
vn 0.1 0.994 0.0436
vn 0.1 0.994 0.0436
vn 0.1 0.994 0.0436
vn -0.0818 0.9944 0.0666
vn -0.0818 0.9944 0.0666
vn -0.0818 0.9944 0.0666
vn -0.0894 0.9956 0.0296
vn -0.0894 0.9956 0.0296
vn -0.0894 0.9956 0.0296
vn -0.1179 0.9921 0.0436
vn -0.1179 0.9921 0.0436
vn -0.1179 0.9921 0.0436
vn -0.0292 0.9986 0.0438
vn -0.0292 0.9986 0.0438
vn -0.0292 0.9986 0.0438
vn -0.1142 0.9926 0.0415
vn -0.1142 0.9926 0.0415
vn -0.1142 0.9926 0.0415
vn -0.1142 0.9926 0.0415
vn -0.1179 0.9921 0.0436
vn -0.1179 0.9921 0.0436
vn -0.1179 0.9921 0.0436
vn -0.0293 0.9986 0.0438
vn -0.0293 0.9986 0.0438
vn -0.0293 0.9986 0.0438
vn -0.1117 0.9928 0.0428
vn -0.1117 0.9928 0.0428
vn -0.1117 0.9928 0.0428
vn -0.1117 0.9928 0.0428
vn -0.0292 0.9986 0.0438
vn -0.0292 0.9986 0.0438
vn -0.0292 0.9986 0.0438
vn -0.0292 0.9986 0.0438
vn -0.0292 0.9986 0.0438
vn -0.0292 0.9986 0.0438
vn -0.1179 0.9921 0.0436
vn -0.1179 0.9921 0.0436
vn -0.1179 0.9921 0.0436
vn -0.1179 0.9921 0.0436
vn -0.1179 0.9921 0.0436
vn -0.1179 0.9921 0.0436
vn -0.0293 0.9986 0.0438
vn -0.0293 0.9986 0.0438
vn -0.0293 0.9986 0.0438
vn -0.0293 0.9986 0.0438
vn 0.048 0.9936 0.1019
vn 0.048 0.9936 0.1019
vn 0.048 0.9936 0.1019
vn 0.0367 0.9983 0.0449
vn 0.0367 0.9983 0.0449
vn 0.0367 0.9983 0.0449
vn -0.0292 0.9986 0.0438
vn -0.0292 0.9986 0.0438
vn -0.0292 0.9986 0.0438
vn -0.0338 0.9984 0.0449
vn -0.0338 0.9984 0.0449
vn -0.0338 0.9984 0.0449
vn -0.1178 0.9921 0.0436
vn -0.1178 0.9921 0.0436
vn -0.1178 0.9921 0.0436
vn -0.0295 0.9986 0.0441
vn -0.0295 0.9986 0.0441
vn -0.0295 0.9986 0.0441
vn -0.0296 0.9986 0.044
vn -0.0296 0.9986 0.044
vn -0.0296 0.9986 0.044
vn 0.1001 0.994 0.0436
vn 0.1001 0.994 0.0436
vn 0.1001 0.994 0.0436
vt 0.663102 0.422691
vt 0.664222 0.421995
vt 0.662271 0.421139
vt 0.65546 0.41411
vt 0.649929 0.415369
vt 0.65546 0.415369
vt 0.665188 0.422657
vt 0.665399 0.424037
vt 0.666328 0.422827
vt 0.662509 0.416326
vt 0.664525 0.415755
vt 0.66389 0.414674
vt 0.667907 0.416067
vt 0.669137 0.415559
vt 0.668071 0.414585
vt 0.668575 0.423235
vt 0.668564 0.420679
vt 0.667603 0.422306
vt 0.658512 0.415369
vt 0.659885 0.41411
vt 0.656299 0.41411
vt 0.66694 0.415405
vt 0.666729 0.414101
vt 0.6658 0.415235
vt 0.661998 0.418791
vt 0.663564 0.417383
vt 0.662509 0.416326
vt 0.648517 0.423951
vt 0.649929 0.423951
vt 0.649929 0.419984
vt 0.649929 0.418764
vt 0.649929 0.419984
vt 0.65485 0.419984
vt 0.648517 0.41411
vt 0.649929 0.418764
vt 0.649929 0.415369
vt 0.656299 0.415369
vt 0.658512 0.415369
vt 0.656299 0.41411
vt 0.658512 0.423951
vt 0.659885 0.423951
vt 0.658512 0.415369
vt 0.666328 0.422827
vt 0.666906 0.424005
vt 0.667603 0.422306
vt 0.649929 0.419984
vt 0.649929 0.418764
vt 0.648517 0.423951
vt 0.6658 0.415235
vt 0.666729 0.414101
vt 0.665314 0.414121
vt 0.666328 0.422827
vt 0.665399 0.424037
vt 0.666906 0.424005
vt 0.66694 0.415405
vt 0.668071 0.414585
vt 0.666729 0.414101
vt 0.665188 0.422657
vt 0.664222 0.421995
vt 0.664125 0.423588
vt 0.670015 0.417521
vt 0.668636 0.417802
vt 0.668564 0.420679
vt 0.670034 0.420335
vt 0.668071 0.414585
vt 0.66694 0.415405
vt 0.667907 0.416067
vt 0.663102 0.422691
vt 0.664125 0.423588
vt 0.664222 0.421995
vt 0.667907 0.416067
vt 0.668636 0.417802
vt 0.670015 0.417521
vt 0.669137 0.415559
vt 0.663493 0.42026
vt 0.663564 0.417383
vt 0.661998 0.418791
vt 0.665188 0.422657
vt 0.664125 0.423588
vt 0.665399 0.424037
vt 0.669584 0.421772
vt 0.670034 0.420335
vt 0.668564 0.420679
vt 0.667603 0.422306
vt 0.666906 0.424005
vt 0.668575 0.423235
vt 0.665314 0.414121
vt 0.66389 0.414674
vt 0.664525 0.415755
vt 0.6658 0.415235
vt 0.648517 0.41411
vt 0.649929 0.415369
vt 0.65546 0.41411
vt 0.649929 0.418764
vt 0.65485 0.419984
vt 0.65485 0.418764
vt 0.662509 0.416326
vt 0.663564 0.417383
vt 0.664525 0.415755
vt 0.659885 0.423951
vt 0.659885 0.41411
vt 0.658512 0.415369
vt 0.668575 0.423235
vt 0.669584 0.421772
vt 0.668564 0.420679
vt 0.661998 0.418791
vt 0.662271 0.421139
vt 0.663493 0.42026
vt 0.662271 0.421139
vt 0.664222 0.421995
vt 0.663493 0.42026
vt 0.648517 0.423951
vt 0.649929 0.418764
vt 0.648517 0.41411
s off
f 1/1/1 2/2/2 3/3/3
f 4/4/4 5/5/5 6/6/6
f 7/7/7 8/8/8 9/9/9
f 10/10/10 11/11/11 12/12/12
f 13/13/13 14/14/14 15/15/15
f 16/16/16 17/17/17 18/18/18
f 19/19/19 20/20/20 21/21/21
f 22/22/22 23/23/23 24/24/24
f 25/25/25 26/26/26 27/27/27
f 28/28/28 29/29/29 30/30/30
f 31/31/31 32/32/32 33/33/33
f 34/34/34 35/35/35 36/36/36
f 37/37/37 38/38/38 39/39/39
f 40/40/40 41/41/41 42/42/42
f 43/43/43 44/44/44 45/45/45
f 46/46/46 47/47/47 48/48/48
f 49/49/49 50/50/50 51/51/51
f 52/52/52 53/53/53 54/54/54
f 55/55/55 56/56/56 57/57/57
f 58/58/58 59/59/59 60/60/60
f 61/61/61 62/62/62 63/63/63
f 61/61/61 63/63/63 64/64/64
f 65/65/65 66/66/66 67/67/67
f 68/68/68 69/69/69 70/70/70
f 71/71/71 72/72/72 73/73/73
f 71/71/71 73/73/73 74/74/74
f 75/75/75 76/76/76 77/77/77
f 78/78/78 79/79/79 80/80/80
f 81/81/81 82/82/82 83/83/83
f 84/84/84 85/85/85 86/86/86
f 87/87/87 88/88/88 89/89/89
f 87/87/87 89/89/89 90/90/90
f 91/91/91 92/92/92 93/93/93
f 94/94/94 95/95/95 96/96/96
f 97/97/97 98/98/98 99/99/99
f 100/100/100 101/101/101 102/102/102
f 103/103/103 104/104/104 105/105/105
f 106/106/106 107/107/107 108/108/108
f 109/109/109 110/110/110 111/111/111
f 112/112/112 113/113/113 114/114/114
