v 0.297658 0.137378 -0.255089
v 0.269137 0.137378 -0.255089
v 0.269132 0.126116 -0.255459
v 0.297658 0.126116 -0.255459
v 0.297658 0.137378 -0.255089
v 0.297658 0.126116 -0.255459
v 0.319104 0.126116 -0.255459
v 0.319104 0.137378 -0.255089
v 0.260354 0.126236 -0.259128
v 0.269132 0.126116 -0.255459
v 0.269137 0.137378 -0.255089
v 0.260356 0.137499 -0.258761
v 0.260356 0.137499 -0.258761
v 0.269137 0.137378 -0.255089
v 0.276371 0.202094 -0.272322
v 0.270678 0.203516 -0.278833
v 0.276371 0.202094 -0.272322
v 0.269137 0.137378 -0.255089
v 0.297658 0.137378 -0.255089
v 0.297807 0.199356 -0.271593
v 0.278407 0.204621 -0.275675
v 0.273901 0.205785 -0.280886
v 0.270678 0.203516 -0.278833
v 0.276371 0.202094 -0.272322
v 0.298675 0.202046 -0.274996
v 0.278407 0.204621 -0.275675
v 0.276371 0.202094 -0.272322
v 0.297807 0.199356 -0.271593
v 0.319104 0.201196 -0.274768
v 0.298675 0.202046 -0.274996
v 0.297807 0.199356 -0.271593
v 0.319104 0.198448 -0.271351
v 0.297807 0.199356 -0.271593
v 0.297658 0.137378 -0.255089
v 0.319104 0.137378 -0.255089
v 0.319104 0.198448 -0.271351
v 0.339533 0.202046 -0.274996
v 0.319104 0.201196 -0.274768
v 0.319104 0.198448 -0.271351
v 0.340401 0.199356 -0.271593
v 0.319104 0.198448 -0.271351
v 0.319104 0.137378 -0.255089
v 0.34055 0.137378 -0.255089
v 0.340401 0.199356 -0.271593
v 0.319104 0.137378 -0.255089
v 0.319104 0.126116 -0.255459
v 0.34055 0.126116 -0.255459
v 0.34055 0.137378 -0.255089
v 0.369076 0.126116 -0.255459
v 0.369071 0.137378 -0.255089
v 0.34055 0.137378 -0.255089
v 0.34055 0.126116 -0.255459
v 0.34055 0.137378 -0.255089
v 0.369071 0.137378 -0.255089
v 0.361837 0.202094 -0.272322
v 0.340401 0.199356 -0.271593
v 0.369076 0.126116 -0.255459
v 0.377854 0.126236 -0.259128
v 0.377852 0.137499 -0.258761
v 0.369071 0.137378 -0.255089
v 0.369071 0.137378 -0.255089
v 0.377852 0.137499 -0.258761
v 0.36753 0.203516 -0.278833
v 0.361837 0.202094 -0.272322
v 0.364307 0.205785 -0.280886
v 0.359801 0.204621 -0.275675
v 0.361837 0.202094 -0.272322
v 0.36753 0.203516 -0.278833
v 0.359801 0.204621 -0.275675
v 0.339533 0.202046 -0.274996
v 0.340401 0.199356 -0.271593
v 0.361837 0.202094 -0.272322
v 0.364301 0.208508 -0.361623
v 0.364307 0.205785 -0.280886
v 0.36753 0.203516 -0.278833
v 0.367533 0.206283 -0.363474
v 0.36753 0.203516 -0.278833
v 0.38149 0.13779 -0.267627
v 0.38149 0.14107 -0.36746
v 0.367533 0.206283 -0.363474
v 0.377852 0.137499 -0.258761
v 0.38149 0.13779 -0.267627
v 0.36753 0.203516 -0.278833
v 0.377854 0.126236 -0.259128
v 0.38149 0.126527 -0.267988
v 0.38149 0.13779 -0.267627
v 0.377852 0.137499 -0.258761
v 0.38149 0.129808 -0.367832
v 0.38149 0.14107 -0.36746
v 0.38149 0.13779 -0.267627
v 0.38149 0.126527 -0.267988
v 0.37785 0.141357 -0.376181
v 0.38149 0.14107 -0.36746
v 0.38149 0.129808 -0.367832
v 0.377851 0.130095 -0.376551
v 0.367533 0.206283 -0.363474
v 0.38149 0.14107 -0.36746
v 0.37785 0.141357 -0.376181
v 0.369062 0.141475 -0.379793
v 0.37785 0.141357 -0.376181
v 0.377851 0.130095 -0.376551
v 0.369067 0.130213 -0.380163
v 0.34055 0.141475 -0.379793
v 0.369062 0.141475 -0.379793
v 0.369067 0.130213 -0.380163
v 0.34055 0.130213 -0.380163
v 0.34055 0.141475 -0.379793
v 0.34055 0.130213 -0.380163
v 0.319104 0.130213 -0.380163
v 0.319104 0.141475 -0.379793
v 0.340326 0.203479 -0.369926
v 0.34055 0.141475 -0.379793
v 0.319104 0.141475 -0.379793
v 0.319104 0.202804 -0.370033
v 0.361758 0.205524 -0.3696
v 0.369062 0.141475 -0.379793
v 0.34055 0.141475 -0.379793
v 0.340326 0.203479 -0.369926
v 0.319104 0.205319 -0.366914
v 0.33946 0.205959 -0.366816
v 0.340326 0.203479 -0.369926
v 0.319104 0.202804 -0.370033
v 0.33946 0.205959 -0.366816
v 0.359729 0.207906 -0.366519
v 0.361758 0.205524 -0.3696
v 0.340326 0.203479 -0.369926
v 0.359729 0.207906 -0.366519
v 0.364301 0.208508 -0.361623
v 0.367533 0.206283 -0.363474
v 0.361758 0.205524 -0.3696
v 0.361758 0.205524 -0.3696
v 0.367533 0.206283 -0.363474
v 0.37785 0.141357 -0.376181
v 0.369062 0.141475 -0.379793
v 0.351111 0.206117 -0.353244
v 0.364301 0.208508 -0.361623
v 0.359729 0.207906 -0.366519
v 0.351111 0.206117 -0.353244
v 0.359729 0.207906 -0.366519
v 0.33946 0.205959 -0.366816
v 0.335147 0.204516 -0.353356
v 0.351157 0.203582 -0.288791
v 0.351111 0.206117 -0.353244
v 0.335147 0.204516 -0.353356
v 0.335184 0.20167 -0.288455
v 0.351157 0.203582 -0.288791
v 0.364307 0.205785 -0.280886
v 0.364301 0.208508 -0.361623
v 0.351111 0.206117 -0.353244
v 0.359801 0.204621 -0.275675
v 0.351157 0.203582 -0.288791
v 0.335184 0.20167 -0.288455
v 0.339533 0.202046 -0.274996
v 0.359801 0.204621 -0.275675
v 0.364307 0.205785 -0.280886
v 0.351157 0.203582 -0.288791
v 0.335184 0.20167 -0.288455
v 0.335147 0.204516 -0.353356
v 0.319104 0.204047 -0.353386
v 0.319104 0.201122 -0.288365
v 0.339533 0.202046 -0.274996
v 0.335184 0.20167 -0.288455
v 0.319104 0.201122 -0.288365
v 0.319104 0.201196 -0.274768
v 0.319104 0.201122 -0.288365
v 0.319104 0.204047 -0.353386
v 0.303061 0.204516 -0.353356
v 0.303024 0.20167 -0.288455
v 0.319104 0.201196 -0.274768
v 0.319104 0.201122 -0.288365
v 0.303024 0.20167 -0.288455
v 0.298675 0.202046 -0.274996
v 0.335147 0.204516 -0.353356
v 0.33946 0.205959 -0.366816
v 0.319104 0.205319 -0.366914
v 0.319104 0.204047 -0.353386
v 0.319104 0.204047 -0.353386
v 0.319104 0.205319 -0.366914
v 0.298748 0.205959 -0.366816
v 0.303061 0.204516 -0.353356
v 0.298748 0.205959 -0.366816
v 0.319104 0.205319 -0.366914
v 0.319104 0.202804 -0.370033
v 0.297882 0.203479 -0.369926
v 0.27848 0.207906 -0.366519
v 0.298748 0.205959 -0.366816
v 0.297882 0.203479 -0.369926
v 0.27645 0.205524 -0.3696
v 0.303061 0.204516 -0.353356
v 0.298748 0.205959 -0.366816
v 0.27848 0.207906 -0.366519
v 0.287097 0.206117 -0.353244
v 0.273908 0.208508 -0.361623
v 0.27848 0.207906 -0.366519
v 0.27645 0.205524 -0.3696
v 0.270675 0.206283 -0.363474
v 0.273908 0.208508 -0.361623
v 0.287097 0.206117 -0.353244
v 0.27848 0.207906 -0.366519
v 0.303024 0.20167 -0.288455
v 0.303061 0.204516 -0.353356
v 0.287097 0.206117 -0.353244
v 0.287051 0.203582 -0.288791
v 0.273908 0.208508 -0.361623
v 0.273901 0.205785 -0.280886
v 0.287051 0.203582 -0.288791
v 0.287097 0.206117 -0.353244
v 0.298675 0.202046 -0.274996
v 0.303024 0.20167 -0.288455
v 0.287051 0.203582 -0.288791
v 0.278407 0.204621 -0.275675
v 0.273901 0.205785 -0.280886
v 0.278407 0.204621 -0.275675
v 0.287051 0.203582 -0.288791
v 0.270675 0.206283 -0.363474
v 0.270678 0.203516 -0.278833
v 0.273901 0.205785 -0.280886
v 0.273908 0.208508 -0.361623
v 0.269146 0.141475 -0.379793
v 0.260358 0.141357 -0.376181
v 0.270675 0.206283 -0.363474
v 0.27645 0.205524 -0.3696
v 0.256718 0.14107 -0.36746
v 0.256718 0.13779 -0.267627
v 0.270678 0.203516 -0.278833
v 0.270675 0.206283 -0.363474
v 0.260358 0.141357 -0.376181
v 0.256718 0.14107 -0.36746
v 0.270675 0.206283 -0.363474
v 0.269141 0.130213 -0.380163
v 0.260357 0.130095 -0.376552
v 0.260358 0.141357 -0.376181
v 0.269146 0.141475 -0.379793
v 0.260357 0.130095 -0.376552
v 0.256718 0.129808 -0.367832
v 0.256718 0.14107 -0.36746
v 0.260358 0.141357 -0.376181
v 0.256718 0.129808 -0.367832
v 0.256718 0.126527 -0.267988
v 0.256718 0.13779 -0.267627
v 0.256718 0.14107 -0.36746
v 0.256718 0.126527 -0.267988
v 0.260354 0.126236 -0.259128
v 0.260356 0.137499 -0.258761
v 0.256718 0.13779 -0.267627
v 0.256718 0.13779 -0.267627
v 0.260356 0.137499 -0.258761
v 0.270678 0.203516 -0.278833
v 0.269141 0.130213 -0.380163
v 0.269146 0.141475 -0.379793
v 0.297658 0.141475 -0.379793
v 0.297658 0.130213 -0.380163
v 0.319104 0.141475 -0.379793
v 0.319104 0.130213 -0.380163
v 0.297658 0.130213 -0.380163
v 0.297658 0.141475 -0.379793
v 0.319104 0.202804 -0.370033
v 0.319104 0.141475 -0.379793
v 0.297658 0.141475 -0.379793
v 0.297882 0.203479 -0.369926
v 0.297658 0.141475 -0.379793
v 0.269146 0.141475 -0.379793
v 0.27645 0.205524 -0.3696
v 0.297882 0.203479 -0.369926
vn -0 -0.0328 0.9995
vn -0.098 -0.0327 0.9946
vn -0.0981 -0.0326 0.9946
vn -0 -0.0328 0.9995
vn -0 -0.0328 0.9995
vn -0 -0.0328 0.9995
vn -0 -0.0328 0.9995
vn -0 -0.0328 0.9995
vn -0.7103 -0.0228 0.7035
vn -0.0981 -0.0326 0.9946
vn -0.098 -0.0327 0.9946
vn -0.7105 -0.0228 0.7034
vn -0.6825 0.285 0.673
vn -0.0881 0.2659 0.96
vn -0.0808 0.2971 0.9514
vn -0.9779 0.2089 0.0069
vn -0.0808 0.2971 0.9514
vn -0.0881 0.2659 0.96
vn -0 0.2573 0.9663
vn 0.0034 0.294 0.9558
vn 0.1684 0.985 0.0376
vn 0.187 0.9814 0.0443
vn -0.9779 0.2089 0.0069
vn -0.0808 0.2971 0.9514
vn 0.0883 0.9961 0.0039
vn 0.1684 0.985 0.0376
vn -0.0808 0.2971 0.9514
vn 0.0034 0.294 0.9558
vn -0 1 -0.0066
vn 0.0883 0.9961 0.0039
vn 0.0034 0.294 0.9558
vn 0.0002 0.2973 0.9548
vn 0.0034 0.294 0.9558
vn -0 0.2573 0.9663
vn -0 0.2573 0.9663
vn 0.0002 0.2973 0.9548
vn -0.0883 0.9961 0.0039
vn -0 1 -0.0066
vn 0.0002 0.2973 0.9548
vn -0.0034 0.294 0.9558
vn 0.0002 0.2973 0.9548
vn -0 0.2573 0.9663
vn -0 0.2573 0.9663
vn -0.0034 0.294 0.9558
vn -0 -0.0328 0.9995
vn -0 -0.0328 0.9995
vn -0 -0.0328 0.9995
vn -0 -0.0328 0.9995
vn 0.0982 -0.0326 0.9946
vn 0.098 -0.0326 0.9947
vn -0 -0.0328 0.9995
vn -0 -0.0328 0.9995
vn -0 0.2573 0.9663
vn 0.0881 0.2659 0.96
vn 0.0808 0.2971 0.9514
vn -0.0034 0.294 0.9558
vn 0.0982 -0.0326 0.9946
vn 0.7105 -0.0228 0.7034
vn 0.7107 -0.0228 0.7032
vn 0.098 -0.0326 0.9947
vn 0.0881 0.2659 0.96
vn 0.6825 0.285 0.673
vn 0.9779 0.2089 0.0069
vn 0.0808 0.2971 0.9514
vn -0.187 0.9814 0.0443
vn -0.1684 0.985 0.0377
vn 0.0808 0.2971 0.9514
vn 0.9779 0.2089 0.0069
vn -0.1684 0.985 0.0377
vn -0.0883 0.9961 0.0039
vn -0.0034 0.294 0.9558
vn 0.0808 0.2971 0.9514
vn -0.1656 0.9857 0.0325
vn -0.187 0.9814 0.0443
vn 0.9779 0.2089 0.0069
vn 0.9779 0.2089 0.0069
vn 0.9779 0.2089 0.0069
vn 0.9777 0.2097 0.0106
vn 0.9778 0.2093 0.0031
vn 0.9779 0.2089 0.0069
vn 0.6825 0.285 0.673
vn 0.9777 0.2097 0.0106
vn 0.9779 0.2089 0.0069
vn 0.7105 -0.0228 0.7034
vn 0.9993 -0.0011 0.0372
vn 0.9993 -0.0011 0.0372
vn 0.7107 -0.0228 0.7032
vn 0.9993 0.001 -0.0373
vn 0.9993 0.0013 -0.0373
vn 0.9993 -0.0011 0.0372
vn 0.9993 -0.0011 0.0372
vn 0.7048 0.0234 -0.709
vn 0.9993 0.0013 -0.0373
vn 0.9993 0.001 -0.0373
vn 0.705 0.0234 -0.7088
vn 0.9779 0.2089 0.0069
vn 0.9778 0.2093 0.0031
vn 0.6943 0.2179 -0.6859
vn 0.0966 0.0326 -0.9948
vn 0.7048 0.0234 -0.709
vn 0.705 0.0234 -0.7088
vn 0.0965 0.0328 -0.9948
vn -0 0.0328 -0.9995
vn 0.0966 0.0326 -0.9948
vn 0.0965 0.0328 -0.9948
vn -0 0.0328 -0.9995
vn -0 0.0328 -0.9995
vn -0 0.0328 -0.9995
vn -0 0.0328 -0.9995
vn -0 0.0328 -0.9995
vn -0.0026 0.197 -0.9804
vn -0 0.1572 -0.9876
vn -0 0.1572 -0.9876
vn -0 0.2004 -0.9797
vn 0.081 0.1979 -0.9769
vn 0.0892 0.1668 -0.982
vn -0 0.1572 -0.9876
vn -0.0026 0.197 -0.9804
vn -0 0.9958 0.0913
vn -0.0709 0.9944 0.0778
vn -0.0026 0.197 -0.9804
vn -0 0.2004 -0.9797
vn -0.0709 0.9944 0.0778
vn -0.1403 0.9891 0.0454
vn 0.081 0.1979 -0.9769
vn -0.0026 0.197 -0.9804
vn -0.1403 0.9891 0.0454
vn -0.1656 0.9857 0.0325
vn 0.9779 0.2089 0.0069
vn 0.081 0.1979 -0.9769
vn 0.081 0.1979 -0.9769
vn 0.9779 0.2089 0.0069
vn 0.6943 0.2179 -0.6859
vn 0.0892 0.1668 -0.982
vn -0.1302 0.9903 0.0495
vn -0.1656 0.9857 0.0325
vn -0.1403 0.9891 0.0454
vn -0.1302 0.9903 0.0495
vn -0.1403 0.9891 0.0454
vn -0.0709 0.9944 0.0778
vn -0.064 0.9959 0.0646
vn -0.1406 0.9897 0.0285
vn -0.1302 0.9903 0.0495
vn -0.064 0.9959 0.0646
vn -0.0713 0.9973 0.0197
vn -0.1406 0.9897 0.0285
vn -0.187 0.9814 0.0443
vn -0.1656 0.9857 0.0325
vn -0.1302 0.9903 0.0495
vn -0.1684 0.985 0.0377
vn -0.1406 0.9897 0.0285
vn -0.0713 0.9973 0.0197
vn -0.0883 0.9961 0.0039
vn -0.1684 0.985 0.0377
vn -0.187 0.9814 0.0443
vn -0.1406 0.9897 0.0285
vn -0.0713 0.9973 0.0197
vn -0.064 0.9959 0.0646
vn -0 0.9976 0.0698
vn -0 0.9999 0.0169
vn -0.0883 0.9961 0.0039
vn -0.0713 0.9973 0.0197
vn -0 0.9999 0.0169
vn -0 1 -0.0066
vn -0 0.9999 0.0169
vn -0 0.9976 0.0698
vn 0.064 0.9959 0.0646
vn 0.0713 0.9973 0.0197
vn -0 1 -0.0066
vn -0 0.9999 0.0169
vn 0.0713 0.9973 0.0197
vn 0.0883 0.9961 0.0039
vn -0.064 0.9959 0.0646
vn -0.0709 0.9944 0.0778
vn -0 0.9958 0.0913
vn -0 0.9976 0.0698
vn -0 0.9976 0.0698
vn -0 0.9958 0.0913
vn 0.0709 0.9944 0.0778
vn 0.064 0.9959 0.0646
vn 0.0709 0.9944 0.0778
vn -0 0.9958 0.0913
vn -0 0.2004 -0.9797
vn 0.0026 0.197 -0.9804
vn 0.1403 0.9891 0.0453
vn 0.0709 0.9944 0.0778
vn 0.0026 0.197 -0.9804
vn -0.081 0.1979 -0.9769
vn 0.064 0.9959 0.0646
vn 0.0709 0.9944 0.0778
vn 0.1403 0.9891 0.0453
vn 0.1299 0.9903 0.0493
vn 0.1656 0.9857 0.0325
vn 0.1403 0.9891 0.0453
vn -0.081 0.1979 -0.9769
vn -0.9779 0.209 0.007
vn 0.1656 0.9857 0.0325
vn 0.1299 0.9903 0.0493
vn 0.1403 0.9891 0.0453
vn 0.0713 0.9973 0.0197
vn 0.064 0.9959 0.0646
vn 0.1299 0.9903 0.0493
vn 0.1406 0.9897 0.0285
vn 0.1656 0.9857 0.0325
vn 0.187 0.9814 0.0443
vn 0.1406 0.9897 0.0285
vn 0.1299 0.9903 0.0493
vn 0.0883 0.9961 0.0039
vn 0.0713 0.9973 0.0197
vn 0.1406 0.9897 0.0285
vn 0.1684 0.985 0.0376
vn 0.187 0.9814 0.0443
vn 0.1684 0.985 0.0376
vn 0.1406 0.9897 0.0285
vn -0.9779 0.209 0.007
vn -0.9779 0.2089 0.0069
vn 0.187 0.9814 0.0443
vn 0.1656 0.9857 0.0325
vn -0.0892 0.1668 -0.982
vn -0.6943 0.2179 -0.6859
vn -0.9779 0.209 0.007
vn -0.081 0.1979 -0.9769
vn -0.9778 0.2093 0.0031
vn -0.9777 0.2097 0.0106
vn -0.9779 0.2089 0.0069
vn -0.9779 0.209 0.007
vn -0.6943 0.2179 -0.6859
vn -0.9778 0.2093 0.0031
vn -0.9779 0.209 0.007
vn -0.0965 0.0327 -0.9948
vn -0.7054 0.0234 -0.7084
vn -0.7048 0.0234 -0.709
vn -0.0964 0.0328 -0.9948
vn -0.7054 0.0234 -0.7084
vn -0.9993 0.0013 -0.0373
vn -0.9993 0.0014 -0.0373
vn -0.7048 0.0234 -0.709
vn -0.9993 0.0013 -0.0373
vn -0.9993 -0.0013 0.0372
vn -0.9993 -0.0011 0.0372
vn -0.9993 0.0014 -0.0373
vn -0.9993 -0.0013 0.0372
vn -0.7103 -0.0228 0.7035
vn -0.7105 -0.0228 0.7034
vn -0.9993 -0.0011 0.0372
vn -0.9777 0.2097 0.0106
vn -0.6825 0.285 0.673
vn -0.9779 0.2089 0.0069
vn -0.0965 0.0327 -0.9948
vn -0.0964 0.0328 -0.9948
vn -0 0.0328 -0.9995
vn -0 0.0328 -0.9995
vn -0 0.0328 -0.9995
vn -0 0.0328 -0.9995
vn -0 0.0328 -0.9995
vn -0 0.0328 -0.9995
vn -0 0.2004 -0.9797
vn -0 0.1572 -0.9876
vn -0 0.1572 -0.9876
vn 0.0026 0.197 -0.9804
vn -0 0.1572 -0.9876
vn -0.0892 0.1668 -0.982
vn -0.081 0.1979 -0.9769
vn 0.0026 0.197 -0.9804
vt 0.645954 0.05939
vt 0.632442 0.059451
vt 0.631967 0.061148
vt 0.645954 0.061148
vt 0.645954 0.05939
vt 0.645954 0.061148
vt 0.65647 0.061148
vt 0.65647 0.05939
vt 0.627662 0.059348
vt 0.631967 0.061148
vt 0.632442 0.059451
vt 0.629081 0.058211
vt 0.629081 0.058211
vt 0.632442 0.059451
vt 0.638817 0.051727
vt 0.636465 0.049038
vt 0.638817 0.051727
vt 0.632442 0.059451
vt 0.645954 0.05939
vt 0.647672 0.052029
vt 0.639658 0.050342
vt 0.637796 0.04819
vt 0.636465 0.049038
vt 0.638817 0.051727
vt 0.648031 0.050623
vt 0.639658 0.050342
vt 0.638817 0.051727
vt 0.647672 0.052029
vt 0.65647 0.050717
vt 0.648031 0.050623
vt 0.647672 0.052029
vt 0.65647 0.052129
vt 0.647672 0.052029
vt 0.645954 0.05939
vt 0.65647 0.05939
vt 0.65647 0.052129
vt 0.664909 0.050623
vt 0.65647 0.050717
vt 0.65647 0.052129
vt 0.665268 0.052029
vt 0.65647 0.052129
vt 0.65647 0.05939
vt 0.666986 0.05939
vt 0.665268 0.052029
vt 0.65647 0.05939
vt 0.65647 0.061148
vt 0.666986 0.061148
vt 0.666986 0.05939
vt 0.680973 0.061148
vt 0.680498 0.059451
vt 0.666986 0.05939
vt 0.666986 0.061148
vt 0.666986 0.05939
vt 0.680498 0.059451
vt 0.674123 0.051727
vt 0.665268 0.052029
vt 0.680973 0.061148
vt 0.685277 0.059348
vt 0.683859 0.058211
vt 0.680498 0.059451
vt 0.680498 0.059451
vt 0.683859 0.058211
vt 0.676475 0.049038
vt 0.674123 0.051727
vt 0.675144 0.04819
vt 0.673282 0.050342
vt 0.674123 0.051727
vt 0.676475 0.049038
vt 0.673282 0.050342
vt 0.664909 0.050623
vt 0.665268 0.052029
vt 0.674123 0.051727
vt 0.675141 0.014836
vt 0.675144 0.04819
vt 0.676475 0.049038
vt 0.676477 0.014072
vt 0.676475 0.049038
vt 0.685163 0.054782
vt 0.685157 0.00660098
vt 0.676477 0.014072
vt 0.683859 0.058211
vt 0.685163 0.054782
vt 0.676475 0.049038
vt 0.685277 0.059348
vt 0.68706 0.055004
vt 0.685163 0.054782
vt 0.683859 0.058211
vt 0.68706 0.006046
vt 0.685157 0.00660098
vt 0.685163 0.054782
vt 0.68706 0.055004
vt 0.683845 0.00325799
vt 0.685157 0.00660098
vt 0.68706 0.006046
vt 0.685276 0.00177097
vt 0.676477 0.014072
vt 0.685157 0.00660098
vt 0.683845 0.00325799
vt 0.68049 0.00206101
vt 0.683845 0.00325799
vt 0.685276 0.00177097
vt 0.680969 0
vt 0.666986 0.00212401
vt 0.68049 0.00206101
vt 0.680969 0
vt 0.666986 0
vt 0.666986 0.00212401
vt 0.666986 0
vt 0.65647 0
vt 0.65647 0.00212401
vt 0.665237 0.011406
vt 0.666986 0.00212401
vt 0.65647 0.00212401
vt 0.65647 0.011362
vt 0.674091 0.01154
vt 0.68049 0.00206101
vt 0.666986 0.00212401
vt 0.665237 0.011406
vt 0.65647 0.01265
vt 0.66488 0.012691
vt 0.665237 0.011406
vt 0.65647 0.011362
vt 0.66488 0.012691
vt 0.673253 0.012814
vt 0.674091 0.01154
vt 0.665237 0.011406
vt 0.673253 0.012814
vt 0.675141 0.014836
vt 0.676477 0.014072
vt 0.674091 0.01154
vt 0.674091 0.01154
vt 0.676477 0.014072
vt 0.683845 0.00325799
vt 0.68049 0.00206101
vt 0.669693 0.018298
vt 0.675141 0.014836
vt 0.673253 0.012814
vt 0.669693 0.018298
vt 0.673253 0.012814
vt 0.66488 0.012691
vt 0.663098 0.018251
vt 0.669711 0.044924
vt 0.669693 0.018298
vt 0.663098 0.018251
vt 0.663113 0.045062
vt 0.669711 0.044924
vt 0.675144 0.04819
vt 0.675141 0.014836
vt 0.669693 0.018298
vt 0.673282 0.050342
vt 0.669711 0.044924
vt 0.663113 0.045062
vt 0.664909 0.050623
vt 0.673282 0.050342
vt 0.675144 0.04819
vt 0.669711 0.044924
vt 0.663113 0.045062
vt 0.663098 0.018251
vt 0.65647 0.018239
vt 0.65647 0.0451
vt 0.664909 0.050623
vt 0.663113 0.045062
vt 0.65647 0.0451
vt 0.65647 0.050717
vt 0.65647 0.0451
vt 0.65647 0.018239
vt 0.649842 0.018251
vt 0.649827 0.045062
vt 0.65647 0.050717
vt 0.65647 0.0451
vt 0.649827 0.045062
vt 0.648031 0.050623
vt 0.663098 0.018251
vt 0.66488 0.012691
vt 0.65647 0.01265
vt 0.65647 0.018239
vt 0.65647 0.018239
vt 0.65647 0.01265
vt 0.64806 0.012691
vt 0.649842 0.018251
vt 0.64806 0.012691
vt 0.65647 0.01265
vt 0.65647 0.011362
vt 0.647703 0.011406
vt 0.639687 0.012814
vt 0.64806 0.012691
vt 0.647703 0.011406
vt 0.638849 0.01154
vt 0.649842 0.018251
vt 0.64806 0.012691
vt 0.639687 0.012814
vt 0.643247 0.018297
vt 0.637799 0.014836
vt 0.639687 0.012814
vt 0.638849 0.01154
vt 0.636463 0.014071
vt 0.637799 0.014836
vt 0.643247 0.018297
vt 0.639687 0.012814
vt 0.649827 0.045062
vt 0.649842 0.018251
vt 0.643247 0.018297
vt 0.643229 0.044924
vt 0.637799 0.014836
vt 0.637796 0.04819
vt 0.643229 0.044924
vt 0.643247 0.018297
vt 0.648031 0.050623
vt 0.649827 0.045062
vt 0.643229 0.044924
vt 0.639658 0.050342
vt 0.637796 0.04819
vt 0.639658 0.050342
vt 0.643229 0.044924
vt 0.636463 0.014071
vt 0.636465 0.049038
vt 0.637796 0.04819
vt 0.637799 0.014836
vt 0.632451 0.00206101
vt 0.629095 0.00325799
vt 0.636463 0.014071
vt 0.638849 0.01154
vt 0.627783 0.00660098
vt 0.627777 0.054782
vt 0.636465 0.049038
vt 0.636463 0.014071
vt 0.629095 0.00325799
vt 0.627783 0.00660098
vt 0.636463 0.014071
vt 0.631971 0
vt 0.627664 0.00177097
vt 0.629095 0.00325799
vt 0.632451 0.00206101
vt 0.627664 0.00177097
vt 0.62588 0.006046
vt 0.627783 0.00660098
vt 0.629095 0.00325799
vt 0.62588 0.006046
vt 0.62588 0.055004
vt 0.627777 0.054782
vt 0.627783 0.00660098
vt 0.62588 0.055004
vt 0.627662 0.059348
vt 0.629081 0.058211
vt 0.627777 0.054782
vt 0.627777 0.054782
vt 0.629081 0.058211
vt 0.636465 0.049038
vt 0.631971 0
vt 0.632451 0.00206101
vt 0.645954 0.00212401
vt 0.645954 0
vt 0.65647 0.00212401
vt 0.65647 0
vt 0.645954 0
vt 0.645954 0.00212401
vt 0.65647 0.011362
vt 0.65647 0.00212401
vt 0.645954 0.00212401
vt 0.647703 0.011406
vt 0.645954 0.00212401
vt 0.632451 0.00206101
vt 0.638849 0.01154
vt 0.647703 0.011406
s off
f 1/1/1 2/2/2 3/3/3
f 1/1/1 3/3/3 4/4/4
f 5/5/5 6/6/6 7/7/7
f 5/5/5 7/7/7 8/8/8
f 9/9/9 10/10/10 11/11/11
f 9/9/9 11/11/11 12/12/12
f 13/13/13 14/14/14 15/15/15
f 13/13/13 15/15/15 16/16/16
f 17/17/17 18/18/18 19/19/19
f 17/17/17 19/19/19 20/20/20
f 21/21/21 22/22/22 23/23/23
f 21/21/21 23/23/23 24/24/24
f 25/25/25 26/26/26 27/27/27
f 25/25/25 27/27/27 28/28/28
f 29/29/29 30/30/30 31/31/31
f 29/29/29 31/31/31 32/32/32
f 33/33/33 34/34/34 35/35/35
f 33/33/33 35/35/35 36/36/36
f 37/37/37 38/38/38 39/39/39
f 37/37/37 39/39/39 40/40/40
f 41/41/41 42/42/42 43/43/43
f 41/41/41 43/43/43 44/44/44
f 45/45/45 46/46/46 47/47/47
f 45/45/45 47/47/47 48/48/48
f 49/49/49 50/50/50 51/51/51
f 49/49/49 51/51/51 52/52/52
f 53/53/53 54/54/54 55/55/55
f 53/53/53 55/55/55 56/56/56
f 57/57/57 58/58/58 59/59/59
f 57/57/57 59/59/59 60/60/60
f 61/61/61 62/62/62 63/63/63
f 61/61/61 63/63/63 64/64/64
f 65/65/65 66/66/66 67/67/67
f 65/65/65 67/67/67 68/68/68
f 69/69/69 70/70/70 71/71/71
f 69/69/69 71/71/71 72/72/72
f 73/73/73 74/74/74 75/75/75
f 73/73/73 75/75/75 76/76/76
f 77/77/77 78/78/78 79/79/79
f 77/77/77 79/79/79 80/80/80
f 81/81/81 82/82/82 83/83/83
f 84/84/84 85/85/85 86/86/86
f 84/84/84 86/86/86 87/87/87
f 88/88/88 89/89/89 90/90/90
f 88/88/88 90/90/90 91/91/91
f 92/92/92 93/93/93 94/94/94
f 92/92/92 94/94/94 95/95/95
f 96/96/96 97/97/97 98/98/98
f 99/99/99 100/100/100 101/101/101
f 99/99/99 101/101/101 102/102/102
f 103/103/103 104/104/104 105/105/105
f 103/103/103 105/105/105 106/106/106
f 107/107/107 108/108/108 109/109/109
f 107/107/107 109/109/109 110/110/110
f 111/111/111 112/112/112 113/113/113
f 111/111/111 113/113/113 114/114/114
f 115/115/115 116/116/116 117/117/117
f 115/115/115 117/117/117 118/118/118
f 119/119/119 120/120/120 121/121/121
f 119/119/119 121/121/121 122/122/122
f 123/123/123 124/124/124 125/125/125
f 123/123/123 125/125/125 126/126/126
f 127/127/127 128/128/128 129/129/129
f 127/127/127 129/129/129 130/130/130
f 131/131/131 132/132/132 133/133/133
f 131/131/131 133/133/133 134/134/134
f 135/135/135 136/136/136 137/137/137
f 138/138/138 139/139/139 140/140/140
f 138/138/138 140/140/140 141/141/141
f 142/142/142 143/143/143 144/144/144
f 142/142/142 144/144/144 145/145/145
f 146/146/146 147/147/147 148/148/148
f 146/146/146 148/148/148 149/149/149
f 150/150/150 151/151/151 152/152/152
f 150/150/150 152/152/152 153/153/153
f 154/154/154 155/155/155 156/156/156
f 157/157/157 158/158/158 159/159/159
f 157/157/157 159/159/159 160/160/160
f 161/161/161 162/162/162 163/163/163
f 161/161/161 163/163/163 164/164/164
f 165/165/165 166/166/166 167/167/167
f 165/165/165 167/167/167 168/168/168
f 169/169/169 170/170/170 171/171/171
f 169/169/169 171/171/171 172/172/172
f 173/173/173 174/174/174 175/175/175
f 173/173/173 175/175/175 176/176/176
f 177/177/177 178/178/178 179/179/179
f 177/177/177 179/179/179 180/180/180
f 181/181/181 182/182/182 183/183/183
f 181/181/181 183/183/183 184/184/184
f 185/185/185 186/186/186 187/187/187
f 185/185/185 187/187/187 188/188/188
f 189/189/189 190/190/190 191/191/191
f 189/189/189 191/191/191 192/192/192
f 193/193/193 194/194/194 195/195/195
f 193/193/193 195/195/195 196/196/196
f 197/197/197 198/198/198 199/199/199
f 200/200/200 201/201/201 202/202/202
f 200/200/200 202/202/202 203/203/203
f 204/204/204 205/205/205 206/206/206
f 204/204/204 206/206/206 207/207/207
f 208/208/208 209/209/209 210/210/210
f 208/208/208 210/210/210 211/211/211
f 212/212/212 213/213/213 214/214/214
f 215/215/215 216/216/216 217/217/217
f 215/215/215 217/217/217 218/218/218
f 219/219/219 220/220/220 221/221/221
f 219/219/219 221/221/221 222/222/222
f 223/223/223 224/224/224 225/225/225
f 223/223/223 225/225/225 226/226/226
f 227/227/227 228/228/228 229/229/229
f 230/230/230 231/231/231 232/232/232
f 230/230/230 232/232/232 233/233/233
f 234/234/234 235/235/235 236/236/236
f 234/234/234 236/236/236 237/237/237
f 238/238/238 239/239/239 240/240/240
f 238/238/238 240/240/240 241/241/241
f 242/242/242 243/243/243 244/244/244
f 242/242/242 244/244/244 245/245/245
f 246/246/246 247/247/247 248/248/248
f 249/249/249 250/250/250 251/251/251
f 249/249/249 251/251/251 252/252/252
f 253/253/253 254/254/254 255/255/255
f 253/253/253 255/255/255 256/256/256
f 257/257/257 258/258/258 259/259/259
f 257/257/257 259/259/259 260/260/260
f 261/261/261 262/262/262 263/263/263
f 261/261/261 263/263/263 264/264/264
