v 0.442456 0.203226 -0.329121
v 0.446987 0.203109 -0.329121
v 0.442456 0.203342 -0.331698
v 0.42949 0.203304 -0.319669
v 0.439566 0.202886 -0.319669
v 0.42949 0.203413 -0.322169
v 0.42949 0.203304 -0.319669
v 0.42949 0.203413 -0.322169
v 0.4266 0.204123 -0.331698
v 0.440816 0.20339 -0.331698
v 0.42949 0.203719 -0.329121
v 0.440816 0.203274 -0.329121
v 0.440816 0.20339 -0.331698
v 0.4266 0.204123 -0.331698
v 0.42949 0.203719 -0.329121
v 0.453157 0.203315 -0.329121
v 0.457688 0.203448 -0.329121
v 0.453157 0.203429 -0.331698
v 0.4266 0.203238 -0.311546
v 0.42949 0.202947 -0.311546
v 0.42949 0.203304 -0.319669
v 0.4266 0.204123 -0.331698
v 0.42949 0.203413 -0.322169
v 0.42949 0.203719 -0.329121
v 0.446987 0.202318 -0.311546
v 0.449877 0.203322 -0.331698
v 0.446987 0.203109 -0.329121
v 0.457688 0.202677 -0.311546
v 0.4605 0.202759 -0.311546
v 0.457688 0.203448 -0.329121
v 0.439566 0.202886 -0.319669
v 0.439566 0.202998 -0.322169
v 0.42949 0.203413 -0.322169
v 0.457688 0.203448 -0.329121
v 0.4605 0.203644 -0.331698
v 0.453157 0.203429 -0.331698
v 0.446987 0.203109 -0.329121
v 0.449877 0.203322 -0.331698
v 0.442456 0.203342 -0.331698
v 0.4266 0.203238 -0.311546
v 0.42949 0.203304 -0.319669
v 0.4266 0.204123 -0.331698
v 0.446987 0.202318 -0.311546
v 0.449877 0.202416 -0.311546
v 0.449877 0.203322 -0.331698
v 0.4605 0.202759 -0.311546
v 0.4605 0.203644 -0.331698
v 0.457688 0.203448 -0.329121
vn 0.0259 0.9987 0.0449
vn 0.0259 0.9987 0.0449
vn 0.0259 0.9987 0.0449
vn 0.0414 0.9982 0.0438
vn 0.0414 0.9982 0.0438
vn 0.0414 0.9982 0.0438
vn 0.1 0.994 0.0436
vn 0.1 0.994 0.0436
vn 0.1 0.994 0.0436
vn 0.0392 0.9982 0.0449
vn 0.0392 0.9982 0.0449
vn 0.0392 0.9982 0.0449
vn 0.0512 0.9938 0.0984
vn 0.0512 0.9938 0.0984
vn 0.0512 0.9938 0.0984
vn -0.0292 0.9986 0.0438
vn -0.0292 0.9986 0.0438
vn -0.0292 0.9986 0.0438
vn 0.1 0.994 0.0436
vn 0.1 0.994 0.0436
vn 0.1 0.994 0.0436
vn 0.1001 0.994 0.0436
vn 0.1001 0.994 0.0436
vn 0.1001 0.994 0.0436
vn -0.0338 0.9984 0.0449
vn -0.0338 0.9984 0.0449
vn -0.0338 0.9984 0.0449
vn -0.0292 0.9986 0.0438
vn -0.0292 0.9986 0.0438
vn -0.0292 0.9986 0.0438
vn 0.0411 0.9981 0.0449
vn 0.0411 0.9981 0.0449
vn 0.0411 0.9981 0.0449
vn -0.0292 0.9986 0.0438
vn -0.0292 0.9986 0.0438
vn -0.0292 0.9986 0.0438
vn 0.0027 0.9963 0.0856
vn 0.0027 0.9963 0.0856
vn 0.0027 0.9963 0.0856
vn 0.1 0.994 0.0436
vn 0.1 0.994 0.0436
vn 0.1 0.994 0.0436
vn -0.0337 0.9984 0.0449
vn -0.0337 0.9984 0.0449
vn -0.0337 0.9984 0.0449
vn -0.0292 0.9986 0.0438
vn -0.0292 0.9986 0.0438
vn -0.0292 0.9986 0.0438
vt 0.718284 0.415369
vt 0.720497 0.415369
vt 0.718284 0.41411
vt 0.711952 0.419984
vt 0.716873 0.419984
vt 0.711952 0.418764
vt 0.711952 0.419984
vt 0.711952 0.418764
vt 0.710541 0.41411
vt 0.717483 0.41411
vt 0.711952 0.415369
vt 0.717483 0.415369
vt 0.717483 0.41411
vt 0.710541 0.41411
vt 0.711952 0.415369
vt 0.72351 0.415369
vt 0.725723 0.415369
vt 0.72351 0.41411
vt 0.710541 0.423951
vt 0.711952 0.423951
vt 0.711952 0.419984
vt 0.710541 0.41411
vt 0.711952 0.418764
vt 0.711952 0.415369
vt 0.720497 0.423951
vt 0.721908 0.41411
vt 0.720497 0.415369
vt 0.725723 0.423951
vt 0.727096 0.423951
vt 0.725723 0.415369
vt 0.716873 0.419984
vt 0.716873 0.418764
vt 0.711952 0.418764
vt 0.725723 0.415369
vt 0.727096 0.41411
vt 0.72351 0.41411
vt 0.720497 0.415369
vt 0.721908 0.41411
vt 0.718284 0.41411
vt 0.710541 0.423951
vt 0.711952 0.419984
vt 0.710541 0.41411
vt 0.720497 0.423951
vt 0.721908 0.423951
vt 0.721908 0.41411
vt 0.727096 0.423951
vt 0.727096 0.41411
vt 0.725723 0.415369
s off
f 1/1/1 2/2/2 3/3/3
f 4/4/4 5/5/5 6/6/6
f 7/7/7 8/8/8 9/9/9
f 10/10/10 11/11/11 12/12/12
f 13/13/13 14/14/14 15/15/15
f 16/16/16 17/17/17 18/18/18
f 19/19/19 20/20/20 21/21/21
f 22/22/22 23/23/23 24/24/24
f 25/25/25 26/26/26 27/27/27
f 28/28/28 29/29/29 30/30/30
f 31/31/31 32/32/32 33/33/33
f 34/34/34 35/35/35 36/36/36
f 37/37/37 38/38/38 39/39/39
f 40/40/40 41/41/41 42/42/42
f 43/43/43 44/44/44 45/45/45
f 46/46/46 47/47/47 48/48/48
