v 0.573995 0.203112 -0.329121
v 0.576885 0.203301 -0.331698
v 0.569464 0.203361 -0.331698
v 0.594345 0.203857 -0.324462
v 0.591493 0.203529 -0.324725
v 0.590534 0.203331 -0.322795
v 0.591493 0.203529 -0.324725
v 0.594345 0.203857 -0.324462
v 0.591662 0.203645 -0.326899
v 0.591662 0.203645 -0.326899
v 0.593088 0.203961 -0.330243
v 0.590424 0.203576 -0.328634
v 0.591662 0.203645 -0.326899
v 0.594482 0.204019 -0.327788
v 0.593088 0.203961 -0.330243
v 0.594345 0.203857 -0.324462
v 0.590534 0.203331 -0.322795
v 0.592463 0.203492 -0.321243
v 0.590424 0.203576 -0.328634
v 0.590098 0.20371 -0.331902
v 0.58858 0.203551 -0.329302
v 0.580946 0.202623 -0.313577
v 0.585086 0.202783 -0.314123
v 0.590534 0.203331 -0.322795
v 0.55642 0.203375 -0.319669
v 0.55642 0.203485 -0.322169
v 0.553608 0.203302 -0.311546
v 0.595397 0.203418 -0.311624
v 0.595397 0.203528 -0.314123
v 0.580946 0.202535 -0.311624
v 0.569464 0.203361 -0.331698
v 0.569464 0.203245 -0.329121
v 0.573995 0.203112 -0.329121
v 0.553608 0.203302 -0.311546
v 0.55642 0.203019 -0.311546
v 0.55642 0.203375 -0.319669
v 0.553608 0.204186 -0.331698
v 0.55642 0.203485 -0.322169
v 0.55642 0.20379 -0.329121
v 0.55642 0.20379 -0.329121
v 0.567746 0.203295 -0.329121
v 0.567746 0.203411 -0.331698
v 0.594482 0.204019 -0.327788
v 0.591662 0.203645 -0.326899
v 0.594345 0.203857 -0.324462
v 0.58487 0.203434 -0.329107
v 0.580066 0.203294 -0.329142
v 0.582119 0.203275 -0.327324
v 0.58858 0.203551 -0.329302
v 0.590098 0.20371 -0.331902
v 0.584347 0.203537 -0.331806
v 0.58487 0.203434 -0.329107
v 0.584347 0.203537 -0.331806
v 0.580066 0.203294 -0.329142
v 0.58487 0.203434 -0.329107
v 0.58858 0.203551 -0.329302
v 0.584347 0.203537 -0.331806
v 0.590424 0.203576 -0.328634
v 0.593088 0.203961 -0.330243
v 0.590098 0.20371 -0.331902
v 0.590534 0.203331 -0.322795
v 0.585086 0.202783 -0.314123
v 0.592463 0.203492 -0.321243
v 0.573995 0.203112 -0.329121
v 0.573995 0.202321 -0.311546
v 0.576885 0.202394 -0.311546
v 0.576885 0.203301 -0.331698
v 0.566574 0.202904 -0.319669
v 0.566574 0.203017 -0.322169
v 0.55642 0.203375 -0.319669
v 0.553608 0.203302 -0.311546
v 0.55642 0.203485 -0.322169
v 0.553608 0.204186 -0.331698
v 0.553608 0.204186 -0.331698
v 0.55642 0.20379 -0.329121
v 0.567746 0.203411 -0.331698
v 0.585086 0.202783 -0.314123
v 0.580946 0.202623 -0.313577
v 0.580946 0.202535 -0.311624
v 0.55642 0.203485 -0.322169
v 0.55642 0.203375 -0.319669
v 0.566574 0.203017 -0.322169
v 0.580946 0.202535 -0.311624
v 0.595397 0.203528 -0.314123
v 0.585086 0.202783 -0.314123
vn 0.008 0.9966 0.082
vn 0.008 0.9966 0.082
vn 0.008 0.9966 0.082
vn -0.1179 0.9921 0.0436
vn -0.1179 0.9921 0.0436
vn -0.1179 0.9921 0.0436
vn -0.1179 0.9921 0.0436
vn -0.1179 0.9921 0.0436
vn -0.1179 0.9921 0.0436
vn -0.117 0.9922 0.0439
vn -0.117 0.9922 0.0439
vn -0.117 0.9922 0.0439
vn -0.1179 0.9921 0.0436
vn -0.1179 0.9921 0.0436
vn -0.1179 0.9921 0.0436
vn -0.1179 0.9921 0.0436
vn -0.1179 0.9921 0.0436
vn -0.1179 0.9921 0.0436
vn -0.0292 0.9986 0.0438
vn -0.0292 0.9986 0.0438
vn -0.0292 0.9986 0.0438
vn -0.033 0.9986 0.0423
vn -0.033 0.9986 0.0423
vn -0.033 0.9986 0.0423
vn 0.1001 0.994 0.0436
vn 0.1001 0.994 0.0436
vn 0.1001 0.994 0.0436
vn -0.0609 0.9972 0.0438
vn -0.0609 0.9972 0.0438
vn -0.0609 0.9972 0.0438
vn 0.0292 0.9986 0.0449
vn 0.0292 0.9986 0.0449
vn 0.0292 0.9986 0.0449
vn 0.1 0.994 0.0436
vn 0.1 0.994 0.0436
vn 0.1 0.994 0.0436
vn 0.1 0.994 0.0436
vn 0.1 0.994 0.0436
vn 0.1 0.994 0.0436
vn 0.0436 0.998 0.0449
vn 0.0436 0.998 0.0449
vn 0.0436 0.998 0.0449
vn -0.1179 0.9921 0.0436
vn -0.1179 0.9921 0.0436
vn -0.1179 0.9921 0.0436
vn -0.0295 0.9986 0.0434
vn -0.0295 0.9986 0.0434
vn -0.0295 0.9986 0.0434
vn -0.0292 0.9986 0.0438
vn -0.0292 0.9986 0.0438
vn -0.0292 0.9986 0.0438
vn -0.0295 0.9986 0.0439
vn -0.0295 0.9986 0.0439
vn -0.0295 0.9986 0.0439
vn -0.0292 0.9986 0.0438
vn -0.0292 0.9986 0.0438
vn -0.0292 0.9986 0.0438
vn -0.1122 0.9923 0.0519
vn -0.1122 0.9923 0.0519
vn -0.1122 0.9923 0.0519
vn -0.0889 0.996 0.0071
vn -0.0889 0.996 0.0071
vn -0.0889 0.996 0.0071
vn -0.0252 0.9987 0.0449
vn -0.0252 0.9987 0.0449
vn -0.0252 0.9987 0.0449
vn -0.0252 0.9987 0.0449
vn 0.0463 0.9979 0.0448
vn 0.0463 0.9979 0.0448
vn 0.0463 0.9979 0.0448
vn 0.1 0.994 0.0436
vn 0.1 0.994 0.0436
vn 0.1 0.994 0.0436
vn 0.0545 0.9941 0.0933
vn 0.0545 0.9941 0.0933
vn 0.0545 0.9941 0.0933
vn -0.0327 0.9985 0.0449
vn -0.0327 0.9985 0.0449
vn -0.0327 0.9985 0.0449
vn 0.046 0.998 0.0438
vn 0.046 0.998 0.0438
vn 0.046 0.998 0.0438
vn -0.072 0.9972 -0.0203
vn -0.072 0.9972 -0.0203
vn -0.072 0.9972 -0.0203
vt 0.78252 0.415369
vt 0.783932 0.41411
vt 0.780308 0.41411
vt 0.792459 0.417644
vt 0.791066 0.417516
vt 0.790597 0.418458
vt 0.791066 0.417516
vt 0.792459 0.417644
vt 0.791148 0.416454
vt 0.791148 0.416454
vt 0.791844 0.414821
vt 0.790544 0.415607
vt 0.791148 0.416454
vt 0.792525 0.41602
vt 0.791844 0.414821
vt 0.792459 0.417644
vt 0.790597 0.418458
vt 0.791539 0.419216
vt 0.790544 0.415607
vt 0.790384 0.41401
vt 0.789643 0.41528
vt 0.785915 0.42296
vt 0.787937 0.422693
vt 0.790597 0.418458
vt 0.773938 0.419984
vt 0.773938 0.418764
vt 0.772565 0.423951
vt 0.792972 0.423913
vt 0.792972 0.422693
vt 0.785915 0.423913
vt 0.780308 0.41411
vt 0.780308 0.415369
vt 0.78252 0.415369
vt 0.772565 0.423951
vt 0.773938 0.423951
vt 0.773938 0.419984
vt 0.772565 0.41411
vt 0.773938 0.418764
vt 0.773938 0.415369
vt 0.773938 0.415369
vt 0.779469 0.415369
vt 0.779469 0.41411
vt 0.792525 0.41602
vt 0.791148 0.416454
vt 0.792459 0.417644
vt 0.787831 0.415376
vt 0.785485 0.415359
vt 0.786488 0.416246
vt 0.789643 0.41528
vt 0.790384 0.41401
vt 0.787576 0.414058
vt 0.787831 0.415376
vt 0.787576 0.414058
vt 0.785485 0.415359
vt 0.787831 0.415376
vt 0.789643 0.41528
vt 0.787576 0.414058
vt 0.790544 0.415607
vt 0.791844 0.414821
vt 0.790384 0.41401
vt 0.790597 0.418458
vt 0.787937 0.422693
vt 0.791539 0.419216
vt 0.78252 0.415369
vt 0.78252 0.423951
vt 0.783932 0.423951
vt 0.783932 0.41411
vt 0.778897 0.419984
vt 0.778897 0.418764
vt 0.773938 0.419984
vt 0.772565 0.423951
vt 0.773938 0.418764
vt 0.772565 0.41411
vt 0.772565 0.41411
vt 0.773938 0.415369
vt 0.779469 0.41411
vt 0.787937 0.422693
vt 0.785915 0.42296
vt 0.785915 0.423913
vt 0.773938 0.418764
vt 0.773938 0.419984
vt 0.778897 0.418764
vt 0.785915 0.423913
vt 0.792972 0.422693
vt 0.787937 0.422693
s off
f 1/1/1 2/2/2 3/3/3
f 4/4/4 5/5/5 6/6/6
f 7/7/7 8/8/8 9/9/9
f 10/10/10 11/11/11 12/12/12
f 13/13/13 14/14/14 15/15/15
f 16/16/16 17/17/17 18/18/18
f 19/19/19 20/20/20 21/21/21
f 22/22/22 23/23/23 24/24/24
f 25/25/25 26/26/26 27/27/27
f 28/28/28 29/29/29 30/30/30
f 31/31/31 32/32/32 33/33/33
f 34/34/34 35/35/35 36/36/36
f 37/37/37 38/38/38 39/39/39
f 40/40/40 41/41/41 42/42/42
f 43/43/43 44/44/44 45/45/45
f 46/46/46 47/47/47 48/48/48
f 49/49/49 50/50/50 51/51/51
f 52/52/52 53/53/53 54/54/54
f 55/55/55 56/56/56 57/57/57
f 58/58/58 59/59/59 60/60/60
f 61/61/61 62/62/62 63/63/63
f 64/64/64 65/65/65 66/66/66
f 64/64/64 66/66/66 67/67/67
f 68/68/68 69/69/69 70/70/70
f 71/71/71 72/72/72 73/73/73
f 74/74/74 75/75/75 76/76/76
f 77/77/77 78/78/78 79/79/79
f 80/80/80 81/81/81 82/82/82
f 83/83/83 84/84/84 85/85/85
