v -0.820047 0.203523 -0.331698
v -0.827467 0.203291 -0.331698
v -0.822937 0.203325 -0.329121
v -0.840434 0.203004 -0.319669
v -0.843324 0.202746 -0.311546
v -0.840434 0.202648 -0.311546
v -0.840434 0.203004 -0.319669
v -0.830357 0.202695 -0.319669
v -0.830357 0.202808 -0.322169
v -0.843324 0.202746 -0.311546
v -0.840434 0.203004 -0.319669
v -0.840434 0.203114 -0.322169
v -0.822937 0.203325 -0.329121
v -0.827467 0.203291 -0.331698
v -0.827467 0.203175 -0.329121
v -0.840434 0.203419 -0.329121
v -0.843324 0.20363 -0.331698
v -0.840434 0.203114 -0.322169
v -0.822937 0.202538 -0.311546
v -0.820047 0.202635 -0.311546
v -0.822937 0.203325 -0.329121
v -0.829107 0.203236 -0.331698
v -0.843324 0.20363 -0.331698
v -0.840434 0.203419 -0.329121
v -0.822937 0.203325 -0.329121
v -0.820047 0.202635 -0.311546
v -0.820047 0.203523 -0.331698
v -0.840434 0.203114 -0.322169
v -0.843324 0.20363 -0.331698
v -0.843324 0.202746 -0.311546
v -0.830357 0.202808 -0.322169
v -0.840434 0.203114 -0.322169
v -0.840434 0.203004 -0.319669
v -0.840434 0.203419 -0.329121
v -0.829107 0.20312 -0.329121
v -0.829107 0.203236 -0.331698
vn -0.0312 0.9986 0.0417
vn -0.0312 0.9986 0.0417
vn -0.0312 0.9986 0.0417
vn 0.0337 0.9985 0.0438
vn 0.0337 0.9985 0.0438
vn 0.0337 0.9985 0.0438
vn 0.0306 0.9985 0.0449
vn 0.0306 0.9985 0.0449
vn 0.0306 0.9985 0.0449
vn 0.0338 0.9985 0.0438
vn 0.0338 0.9985 0.0438
vn 0.0338 0.9985 0.0438
vn -0.033 0.9984 0.0449
vn -0.033 0.9984 0.0449
vn -0.033 0.9984 0.0449
vn 0.0338 0.9985 0.0438
vn 0.0338 0.9985 0.0438
vn 0.0338 0.9985 0.0438
vn -0.0338 0.9984 0.0447
vn -0.0338 0.9984 0.0447
vn -0.0338 0.9984 0.0447
vn 0.0277 0.9983 0.0506
vn 0.0277 0.9983 0.0506
vn 0.0277 0.9983 0.0506
vn -0.0291 0.9986 0.044
vn -0.0291 0.9986 0.044
vn -0.0291 0.9986 0.044
vn 0.0338 0.9985 0.0438
vn 0.0338 0.9985 0.0438
vn 0.0338 0.9985 0.0438
vn 0.0303 0.9986 0.0438
vn 0.0303 0.9986 0.0438
vn 0.0303 0.9986 0.0438
vn 0.0264 0.9986 0.0449
vn 0.0264 0.9986 0.0449
vn 0.0264 0.9986 0.0449
vt 0.10175 0.41411
vt 0.098126 0.41411
vt 0.100338 0.415369
vt 0.091794 0.419984
vt 0.090383 0.423951
vt 0.091794 0.423951
vt 0.091794 0.419984
vt 0.096715 0.419984
vt 0.096715 0.418764
vt 0.090383 0.423951
vt 0.091794 0.419984
vt 0.091794 0.418764
vt 0.100338 0.415369
vt 0.098126 0.41411
vt 0.098126 0.415369
vt 0.091794 0.415369
vt 0.090383 0.41411
vt 0.091794 0.418764
vt 0.100338 0.423951
vt 0.10175 0.423951
vt 0.100338 0.415369
vt 0.097325 0.41411
vt 0.090383 0.41411
vt 0.091794 0.415369
vt 0.100338 0.415369
vt 0.10175 0.423951
vt 0.10175 0.41411
vt 0.091794 0.418764
vt 0.090383 0.41411
vt 0.090383 0.423951
vt 0.096715 0.418764
vt 0.091794 0.418764
vt 0.091794 0.419984
vt 0.091794 0.415369
vt 0.097325 0.415369
vt 0.097325 0.41411
s off
f 1/1/1 2/2/2 3/3/3
f 4/4/4 5/5/5 6/6/6
f 7/7/7 8/8/8 9/9/9
f 10/10/10 11/11/11 12/12/12
f 13/13/13 14/14/14 15/15/15
f 16/16/16 17/17/17 18/18/18
f 19/19/19 20/20/20 21/21/21
f 22/22/22 23/23/23 24/24/24
f 25/25/25 26/26/26 27/27/27
f 28/28/28 29/29/29 30/30/30
f 31/31/31 32/32/32 33/33/33
f 34/34/34 35/35/35 36/36/36
