v -0.713504 0.203138 -0.322169
v -0.703349 0.202714 -0.319669
v -0.703349 0.202826 -0.322169
v -0.689353 0.203401 -0.326899
v -0.687793 0.203593 -0.330228
v -0.690591 0.203441 -0.328634
v -0.689535 0.203298 -0.324655
v -0.68667 0.203373 -0.324462
v -0.689353 0.203401 -0.326899
v -0.716316 0.203651 -0.331698
v -0.713504 0.203443 -0.329121
v -0.702178 0.203105 -0.329121
v -0.716316 0.202767 -0.311546
v -0.713504 0.203028 -0.319669
v -0.713504 0.203138 -0.322169
v -0.716316 0.203651 -0.331698
v -0.713504 0.203138 -0.322169
v -0.713504 0.203443 -0.329121
v -0.68649 0.203503 -0.327307
v -0.689353 0.203401 -0.326899
v -0.68667 0.203373 -0.324462
v -0.696145 0.203299 -0.329107
v -0.70095 0.203138 -0.329142
v -0.698897 0.203126 -0.327324
v -0.713504 0.203028 -0.319669
v -0.716316 0.202767 -0.311546
v -0.713504 0.202672 -0.311546
v -0.695929 0.202632 -0.314123
v -0.700069 0.20238 -0.311624
v -0.685618 0.202981 -0.314123
v -0.700069 0.202467 -0.313577
v -0.695929 0.202632 -0.314123
v -0.690579 0.203181 -0.322694
v -0.690591 0.203441 -0.328634
v -0.691339 0.203566 -0.331969
v -0.692435 0.203417 -0.329302
v -0.692435 0.203417 -0.329302
v -0.691339 0.203566 -0.331969
v -0.696669 0.203403 -0.331806
v -0.700069 0.20238 -0.311624
v -0.685618 0.202872 -0.311624
v -0.685618 0.202981 -0.314123
v -0.690591 0.203441 -0.328634
v -0.687793 0.203593 -0.330228
v -0.691339 0.203566 -0.331969
v -0.695929 0.202632 -0.314123
v -0.700069 0.202467 -0.313577
v -0.700069 0.20238 -0.311624
v -0.690579 0.203181 -0.322694
v -0.695929 0.202632 -0.314123
v -0.688552 0.203177 -0.321243
v -0.696145 0.203299 -0.329107
v -0.692435 0.203417 -0.329302
v -0.696669 0.203403 -0.331806
v -0.713504 0.203138 -0.322169
v -0.713504 0.203028 -0.319669
v -0.703349 0.202714 -0.319669
v -0.690579 0.203181 -0.322694
v -0.688552 0.203177 -0.321243
v -0.68667 0.203373 -0.324462
v -0.689535 0.203298 -0.324655
v -0.702178 0.203105 -0.329121
v -0.702178 0.203221 -0.331698
v -0.716316 0.203651 -0.331698
v -0.713504 0.203138 -0.322169
v -0.716316 0.203651 -0.331698
v -0.716316 0.202767 -0.311546
v -0.696145 0.203299 -0.329107
v -0.696669 0.203403 -0.331806
v -0.70095 0.203138 -0.329142
v -0.689353 0.203401 -0.326899
v -0.68649 0.203503 -0.327307
v -0.687793 0.203593 -0.330228
vn 0.0306 0.9985 0.0449
vn 0.0306 0.9985 0.0449
vn 0.0306 0.9985 0.0449
vn -0.0293 0.9986 0.0438
vn -0.0293 0.9986 0.0438
vn -0.0293 0.9986 0.0438
vn -0.0292 0.9986 0.0438
vn -0.0292 0.9986 0.0438
vn -0.0292 0.9986 0.0438
vn 0.0298 0.9984 0.0482
vn 0.0298 0.9984 0.0482
vn 0.0298 0.9984 0.0482
vn 0.0338 0.9985 0.0438
vn 0.0338 0.9985 0.0438
vn 0.0338 0.9985 0.0438
vn 0.0338 0.9985 0.0438
vn 0.0338 0.9985 0.0438
vn 0.0338 0.9985 0.0438
vn -0.0293 0.9986 0.0438
vn -0.0293 0.9986 0.0438
vn -0.0293 0.9986 0.0438
vn -0.0338 0.9984 0.0449
vn -0.0338 0.9984 0.0449
vn -0.0338 0.9984 0.0449
vn 0.0338 0.9985 0.0438
vn 0.0338 0.9985 0.0438
vn 0.0338 0.9985 0.0438
vn -0.0338 0.9984 0.0449
vn -0.0338 0.9984 0.0449
vn -0.0338 0.9984 0.0449
vn -0.0341 0.9985 0.0427
vn -0.0341 0.9985 0.0427
vn -0.0341 0.9985 0.0427
vn -0.0292 0.9986 0.0438
vn -0.0292 0.9986 0.0438
vn -0.0292 0.9986 0.0438
vn -0.0292 0.9986 0.0438
vn -0.0292 0.9986 0.0438
vn -0.0292 0.9986 0.0438
vn -0.034 0.9985 0.0438
vn -0.034 0.9985 0.0438
vn -0.034 0.9985 0.0438
vn -0.0292 0.9986 0.0438
vn -0.0292 0.9986 0.0438
vn -0.0292 0.9986 0.0438
vn -0.0338 0.9984 0.0449
vn -0.0338 0.9984 0.0449
vn -0.0338 0.9984 0.0449
vn -0.0302 0.9985 0.0451
vn -0.0302 0.9985 0.0451
vn -0.0302 0.9985 0.0451
vn -0.0294 0.9986 0.044
vn -0.0294 0.9986 0.044
vn -0.0294 0.9986 0.044
vn 0.0309 0.9986 0.0438
vn 0.0309 0.9986 0.0438
vn 0.0309 0.9986 0.0438
vn -0.0292 0.9986 0.0438
vn -0.0292 0.9986 0.0438
vn -0.0292 0.9986 0.0438
vn -0.0292 0.9986 0.0438
vn 0.0304 0.9985 0.0449
vn 0.0304 0.9985 0.0449
vn 0.0304 0.9985 0.0449
vn 0.0338 0.9985 0.0438
vn 0.0338 0.9985 0.0438
vn 0.0338 0.9985 0.0438
vn -0.0338 0.9984 0.0449
vn -0.0338 0.9984 0.0449
vn -0.0338 0.9984 0.0449
vn -0.0293 0.9986 0.0438
vn -0.0293 0.9986 0.0438
vn -0.0293 0.9986 0.0438
vt 0.153779 0.418764
vt 0.158738 0.419984
vt 0.158738 0.418764
vt 0.165573 0.416454
vt 0.166335 0.414828
vt 0.164969 0.415607
vt 0.165484 0.41755
vt 0.166884 0.417644
vt 0.165573 0.416454
vt 0.152406 0.41411
vt 0.153779 0.415369
vt 0.15931 0.415369
vt 0.152406 0.423951
vt 0.153779 0.419984
vt 0.153779 0.418764
vt 0.152406 0.41411
vt 0.153779 0.418764
vt 0.153779 0.415369
vt 0.166971 0.416255
vt 0.165573 0.416454
vt 0.166884 0.417644
vt 0.162256 0.415376
vt 0.15991 0.415359
vt 0.160913 0.416246
vt 0.153779 0.419984
vt 0.152406 0.423951
vt 0.153779 0.423951
vt 0.162362 0.422693
vt 0.16034 0.423913
vt 0.167397 0.422693
vt 0.16034 0.42296
vt 0.162362 0.422693
vt 0.164974 0.418507
vt 0.164969 0.415607
vt 0.164603 0.413978
vt 0.164068 0.41528
vt 0.164068 0.41528
vt 0.164603 0.413978
vt 0.162001 0.414058
vt 0.16034 0.423913
vt 0.167397 0.423913
vt 0.167397 0.422693
vt 0.164969 0.415607
vt 0.166335 0.414828
vt 0.164603 0.413978
vt 0.162362 0.422693
vt 0.16034 0.42296
vt 0.16034 0.423913
vt 0.164974 0.418507
vt 0.162362 0.422693
vt 0.165964 0.419216
vt 0.162256 0.415376
vt 0.164068 0.41528
vt 0.162001 0.414058
vt 0.153779 0.418764
vt 0.153779 0.419984
vt 0.158738 0.419984
vt 0.164974 0.418507
vt 0.165964 0.419216
vt 0.166884 0.417644
vt 0.165484 0.41755
vt 0.15931 0.415369
vt 0.15931 0.41411
vt 0.152406 0.41411
vt 0.153779 0.418764
vt 0.152406 0.41411
vt 0.152406 0.423951
vt 0.162256 0.415376
vt 0.162001 0.414058
vt 0.15991 0.415359
vt 0.165573 0.416454
vt 0.166971 0.416255
vt 0.166335 0.414828
s off
f 1/1/1 2/2/2 3/3/3
f 4/4/4 5/5/5 6/6/6
f 7/7/7 8/8/8 9/9/9
f 10/10/10 11/11/11 12/12/12
f 13/13/13 14/14/14 15/15/15
f 16/16/16 17/17/17 18/18/18
f 19/19/19 20/20/20 21/21/21
f 22/22/22 23/23/23 24/24/24
f 25/25/25 26/26/26 27/27/27
f 28/28/28 29/29/29 30/30/30
f 31/31/31 32/32/32 33/33/33
f 34/34/34 35/35/35 36/36/36
f 37/37/37 38/38/38 39/39/39
f 40/40/40 41/41/41 42/42/42
f 43/43/43 44/44/44 45/45/45
f 46/46/46 47/47/47 48/48/48
f 49/49/49 50/50/50 51/51/51
f 52/52/52 53/53/53 54/54/54
f 55/55/55 56/56/56 57/57/57
f 58/58/58 59/59/59 60/60/60
f 58/58/58 60/60/60 61/61/61
f 62/62/62 63/63/63 64/64/64
f 65/65/65 66/66/66 67/67/67
f 68/68/68 69/69/69 70/70/70
f 71/71/71 72/72/72 73/73/73
