v -0.559548 0.20359 -0.329746
v -0.563141 0.20346 -0.329199
v -0.564812 0.203153 -0.323315
v -0.564812 0.203153 -0.323315
v -0.568218 0.203035 -0.323028
v -0.565232 0.203039 -0.320978
v -0.56176 0.203033 -0.318534
v -0.559478 0.20318 -0.320362
v -0.56279 0.203072 -0.320111
v -0.586496 0.203464 -0.329121
v -0.57517 0.203239 -0.331698
v -0.589386 0.203675 -0.331698
v -0.558779 0.203042 -0.316739
v -0.56176 0.203033 -0.318534
v -0.561792 0.202948 -0.316618
v -0.565487 0.202715 -0.313869
v -0.569397 0.202479 -0.311554
v -0.563744 0.20267 -0.311574
v -0.56279 0.203072 -0.320111
v -0.559478 0.20318 -0.320362
v -0.56154 0.20321 -0.322423
v -0.565487 0.202715 -0.313869
v -0.563744 0.20267 -0.311574
v -0.562951 0.202837 -0.314857
v -0.589386 0.203675 -0.331698
v -0.586496 0.203159 -0.322169
v -0.586496 0.203464 -0.329121
v -0.57002 0.202587 -0.314417
v -0.57397 0.202422 -0.313715
v -0.569397 0.202479 -0.311554
v -0.565232 0.203039 -0.320978
v -0.568218 0.203035 -0.323028
v -0.568218 0.202944 -0.320997
v -0.559548 0.203675 -0.331698
v -0.572826 0.203269 -0.331698
v -0.559548 0.20359 -0.329746
v -0.57642 0.202735 -0.319669
v -0.57642 0.202847 -0.322169
v -0.586496 0.203159 -0.322169
v -0.586496 0.20305 -0.319669
v -0.589386 0.202791 -0.311546
v -0.586496 0.202693 -0.311546
v -0.586496 0.203159 -0.322169
v -0.586496 0.20305 -0.319669
v -0.57642 0.202735 -0.319669
v -0.57517 0.203123 -0.329121
v -0.57517 0.203239 -0.331698
v -0.586496 0.203464 -0.329121
v -0.57397 0.202422 -0.313715
v -0.57002 0.202587 -0.314417
v -0.572604 0.202573 -0.316047
v -0.561792 0.202948 -0.316618
v -0.560448 0.202841 -0.31328
v -0.558779 0.203042 -0.316739
v -0.56279 0.203072 -0.320111
v -0.56154 0.20321 -0.322423
v -0.564812 0.203153 -0.323315
v -0.572826 0.203269 -0.331698
v -0.572826 0.203157 -0.329199
v -0.563141 0.20346 -0.329199
v -0.562951 0.202837 -0.314857
v -0.563744 0.20267 -0.311574
v -0.560448 0.202841 -0.31328
v -0.563141 0.20346 -0.329199
v -0.559548 0.20359 -0.329746
v -0.572826 0.203269 -0.331698
v -0.561792 0.202948 -0.316618
v -0.562951 0.202837 -0.314857
v -0.560448 0.202841 -0.31328
v -0.564812 0.203153 -0.323315
v -0.563141 0.20346 -0.329199
v -0.568218 0.203035 -0.323028
v -0.565232 0.203039 -0.320978
v -0.56279 0.203072 -0.320111
v -0.564812 0.203153 -0.323315
v -0.586496 0.20305 -0.319669
v -0.586496 0.203159 -0.322169
v -0.589386 0.203675 -0.331698
v -0.589386 0.202791 -0.311546
v -0.56176 0.203033 -0.318534
v -0.558779 0.203042 -0.316739
v -0.559478 0.20318 -0.320362
v -0.565487 0.202715 -0.313869
v -0.57002 0.202587 -0.314417
v -0.569397 0.202479 -0.311554
v -0.572826 0.203157 -0.329199
v -0.572826 0.203157 -0.329199
vn -0.0293 0.9986 0.0438
vn -0.0293 0.9986 0.0438
vn -0.0293 0.9986 0.0438
vn -0.0311 0.9986 0.0435
vn -0.0311 0.9986 0.0435
vn -0.0311 0.9986 0.0435
vn -0.0292 0.9986 0.0438
vn -0.0292 0.9986 0.0438
vn -0.0292 0.9986 0.0438
vn 0.0306 0.9984 0.0474
vn 0.0306 0.9984 0.0474
vn 0.0306 0.9984 0.0474
vn -0.0293 0.9986 0.0438
vn -0.0293 0.9986 0.0438
vn -0.0293 0.9986 0.0438
vn -0.0335 0.9984 0.0453
vn -0.0335 0.9984 0.0453
vn -0.0335 0.9984 0.0453
vn -0.0292 0.9986 0.0438
vn -0.0292 0.9986 0.0438
vn -0.0292 0.9986 0.0438
vn -0.031 0.9986 0.0434
vn -0.031 0.9986 0.0434
vn -0.031 0.9986 0.0434
vn 0.0338 0.9985 0.0438
vn 0.0338 0.9985 0.0438
vn 0.0338 0.9985 0.0438
vn -0.0338 0.9984 0.0449
vn -0.0338 0.9984 0.0449
vn -0.0338 0.9984 0.0449
vn -0.032 0.9985 0.0449
vn -0.032 0.9985 0.0449
vn -0.032 0.9985 0.0449
vn -0.0305 0.9986 0.0438
vn -0.0305 0.9986 0.0438
vn -0.0305 0.9986 0.0438
vn 0.0309 0.9985 0.0449
vn 0.0309 0.9985 0.0449
vn 0.0309 0.9985 0.0449
vn 0.0338 0.9985 0.0438
vn 0.0338 0.9985 0.0438
vn 0.0338 0.9985 0.0438
vn 0.0312 0.9986 0.0438
vn 0.0312 0.9986 0.0438
vn 0.0312 0.9986 0.0438
vn 0.0301 0.9985 0.0449
vn 0.0301 0.9985 0.0449
vn 0.0301 0.9985 0.0449
vn -0.0338 0.9984 0.0449
vn -0.0338 0.9984 0.0449
vn -0.0338 0.9984 0.0449
vn -0.0293 0.9986 0.0438
vn -0.0293 0.9986 0.0438
vn -0.0293 0.9986 0.0438
vn -0.0292 0.9986 0.0438
vn -0.0292 0.9986 0.0438
vn -0.0292 0.9986 0.0438
vn -0.0313 0.9985 0.0449
vn -0.0313 0.9985 0.0449
vn -0.0313 0.9985 0.0449
vn -0.0292 0.9986 0.0438
vn -0.0292 0.9986 0.0438
vn -0.0292 0.9986 0.0438
vn -0.0299 0.9988 0.0395
vn -0.0299 0.9988 0.0395
vn -0.0299 0.9988 0.0395
vn -0.0292 0.9986 0.0438
vn -0.0292 0.9986 0.0438
vn -0.0292 0.9986 0.0438
vn -0.0311 0.9986 0.0433
vn -0.0311 0.9986 0.0433
vn -0.0311 0.9986 0.0433
vn -0.0293 0.9986 0.0438
vn -0.0293 0.9986 0.0438
vn -0.0293 0.9986 0.0438
vn 0.0337 0.9985 0.0438
vn 0.0337 0.9985 0.0438
vn 0.0337 0.9985 0.0438
vn 0.0337 0.9985 0.0438
vn -0.0293 0.9986 0.0438
vn -0.0293 0.9986 0.0438
vn -0.0293 0.9986 0.0438
vn -0.0337 0.9984 0.0449
vn -0.0337 0.9984 0.0449
vn -0.0337 0.9984 0.0449
vn 0 0 0
vn 0 0 0
vt 0.228963 0.415064
vt 0.227208 0.415331
vt 0.226392 0.418204
vt 0.226392 0.418204
vt 0.224729 0.418344
vt 0.226187 0.419346
vt 0.227883 0.420539
vt 0.228997 0.419646
vt 0.22738 0.419769
vt 0.215803 0.415369
vt 0.221334 0.41411
vt 0.214391 0.41411
vt 0.229338 0.421415
vt 0.227883 0.420539
vt 0.227867 0.421475
vt 0.226062 0.422817
vt 0.224153 0.423948
vt 0.226913 0.423938
vt 0.22738 0.419769
vt 0.228997 0.419646
vt 0.22799 0.41864
vt 0.226062 0.422817
vt 0.226913 0.423938
vt 0.227301 0.422334
vt 0.214391 0.41411
vt 0.215803 0.418764
vt 0.215803 0.415369
vt 0.223849 0.422549
vt 0.22192 0.422892
vt 0.224153 0.423948
vt 0.226187 0.419346
vt 0.224729 0.418344
vt 0.224729 0.419336
vt 0.228963 0.41411
vt 0.222478 0.41411
vt 0.228963 0.415064
vt 0.220724 0.419984
vt 0.220724 0.418764
vt 0.215803 0.418764
vt 0.215803 0.419984
vt 0.214391 0.423951
vt 0.215803 0.423951
vt 0.215803 0.418764
vt 0.215803 0.419984
vt 0.220724 0.419984
vt 0.221334 0.415369
vt 0.221334 0.41411
vt 0.215803 0.415369
vt 0.22192 0.422892
vt 0.223849 0.422549
vt 0.222587 0.421753
vt 0.227867 0.421475
vt 0.228523 0.423105
vt 0.229338 0.421415
vt 0.22738 0.419769
vt 0.22799 0.41864
vt 0.226392 0.418204
vt 0.222478 0.41411
vt 0.222478 0.415331
vt 0.227208 0.415331
vt 0.227301 0.422334
vt 0.226913 0.423938
vt 0.228523 0.423105
vt 0.227208 0.415331
vt 0.228963 0.415064
vt 0.222478 0.41411
vt 0.227867 0.421475
vt 0.227301 0.422334
vt 0.228523 0.423105
vt 0.226392 0.418204
vt 0.227208 0.415331
vt 0.224729 0.418344
vt 0.226187 0.419346
vt 0.22738 0.419769
vt 0.226392 0.418204
vt 0.215803 0.419984
vt 0.215803 0.418764
vt 0.214391 0.41411
vt 0.214391 0.423951
vt 0.227883 0.420539
vt 0.229338 0.421415
vt 0.228997 0.419646
vt 0.226062 0.422817
vt 0.223849 0.422549
vt 0.224153 0.423948
vt 0 1
vt 0 1
s off
f 1/1/1 2/2/2 3/3/3
f 4/4/4 5/5/5 6/6/6
f 7/7/7 8/8/8 9/9/9
f 10/10/10 11/11/11 12/12/12
f 13/13/13 14/14/14 15/15/15
f 16/16/16 17/17/17 18/18/18
f 19/19/19 20/20/20 21/21/21
f 22/22/22 23/23/23 24/24/24
f 25/25/25 26/26/26 27/27/27
f 28/28/28 29/29/29 30/30/30
f 31/31/31 32/32/32 33/33/33
f 34/34/34 35/35/35 36/36/36
f 37/37/37 38/38/38 39/39/39
f 40/40/40 41/41/41 42/42/42
f 43/43/43 44/44/44 45/45/45
f 46/46/46 47/47/47 48/48/48
f 49/49/49 50/50/50 51/51/51
f 52/52/52 53/53/53 54/54/54
f 55/55/55 56/56/56 57/57/57
f 58/58/58 59/59/59 60/60/60
f 61/61/61 62/62/62 63/63/63
f 64/64/64 65/65/65 66/66/66
f 67/67/67 68/68/68 69/69/69
f 70/70/70 71/71/71 72/72/72
f 73/73/73 74/74/74 75/75/75
f 76/76/76 77/77/77 78/78/78
f 76/76/76 78/78/78 79/79/79
f 80/80/80 81/81/81 82/82/82
f 83/83/83 84/84/84 85/85/85
