v -0.447381 0.202641 -0.318498
v -0.443866 0.202741 -0.318966
v -0.43707 0.203524 -0.331698
v -0.436211 0.202881 -0.316467
v -0.443866 0.202741 -0.318966
v -0.447381 0.20255 -0.316467
v -0.433399 0.202963 -0.316467
v -0.429571 0.203285 -0.318966
v -0.433399 0.203073 -0.318966
v -0.459488 0.203071 -0.319669
v -0.462378 0.202813 -0.311546
v -0.459488 0.202715 -0.311546
v -0.462378 0.203697 -0.331698
v -0.459488 0.203181 -0.322169
v -0.459488 0.203486 -0.329121
v -0.433399 0.202963 -0.316467
v -0.436211 0.202881 -0.316467
v -0.436211 0.202665 -0.311546
v -0.433399 0.202963 -0.316467
v -0.429571 0.203175 -0.316467
v -0.429571 0.203285 -0.318966
v -0.433399 0.203265 -0.32334
v -0.436133 0.203185 -0.32334
v -0.433399 0.203073 -0.318966
v -0.434024 0.203613 -0.331698
v -0.43707 0.203524 -0.331698
v -0.443866 0.202741 -0.318966
v -0.459488 0.203181 -0.322169
v -0.459488 0.203071 -0.319669
v -0.449412 0.202753 -0.319669
v -0.462378 0.203697 -0.331698
v -0.459488 0.203071 -0.319669
v -0.459488 0.203181 -0.322169
v -0.436133 0.203185 -0.32334
v -0.436133 0.202993 -0.318966
v -0.433399 0.203073 -0.318966
v -0.443866 0.202741 -0.318966
v -0.436211 0.202881 -0.316467
v -0.436133 0.202993 -0.318966
v -0.447381 0.20255 -0.316467
v -0.443866 0.202741 -0.318966
v -0.447381 0.202641 -0.318498
v -0.433399 0.202748 -0.311546
v -0.433399 0.202963 -0.316467
v -0.436211 0.202665 -0.311546
v -0.448162 0.203258 -0.331698
v -0.459488 0.203486 -0.329121
v -0.448162 0.203142 -0.329121
v -0.448162 0.203258 -0.331698
v -0.462378 0.203697 -0.331698
v -0.459488 0.203486 -0.329121
v -0.449412 0.202866 -0.322169
v -0.459488 0.203181 -0.322169
v -0.449412 0.202753 -0.319669
v -0.459488 0.203071 -0.319669
v -0.462378 0.203697 -0.331698
v -0.462378 0.202813 -0.311546
v -0.436133 0.202993 -0.318966
v -0.436211 0.202881 -0.316467
v -0.433399 0.202963 -0.316467
v -0.433399 0.203073 -0.318966
vn -0.0217 0.9985 0.0498
vn -0.0217 0.9985 0.0498
vn -0.0217 0.9985 0.0498
vn -0.0296 0.999 0.0348
vn -0.0296 0.999 0.0348
vn -0.0296 0.999 0.0348
vn -0.0552 0.9975 0.0438
vn -0.0552 0.9975 0.0438
vn -0.0552 0.9975 0.0438
vn 0.0338 0.9985 0.0438
vn 0.0338 0.9985 0.0438
vn 0.0338 0.9985 0.0438
vn 0.0338 0.9985 0.0438
vn 0.0338 0.9985 0.0438
vn 0.0338 0.9985 0.0438
vn -0.0292 0.9986 0.0438
vn -0.0292 0.9986 0.0438
vn -0.0292 0.9986 0.0438
vn -0.0551 0.9975 0.0438
vn -0.0551 0.9975 0.0438
vn -0.0551 0.9975 0.0438
vn -0.0293 0.9986 0.0438
vn -0.0293 0.9986 0.0438
vn -0.0293 0.9986 0.0438
vn -0.0292 0.9985 0.0458
vn -0.0292 0.9985 0.0458
vn -0.0292 0.9985 0.0458
vn 0.0315 0.9985 0.0438
vn 0.0315 0.9985 0.0438
vn 0.0315 0.9985 0.0438
vn 0.0337 0.9985 0.0438
vn 0.0337 0.9985 0.0438
vn 0.0337 0.9985 0.0438
vn -0.0293 0.9986 0.0438
vn -0.0293 0.9986 0.0438
vn -0.0293 0.9986 0.0438
vn -0.0325 0.9985 0.0437
vn -0.0325 0.9985 0.0437
vn -0.0325 0.9985 0.0437
vn -0.0224 0.9987 0.0449
vn -0.0224 0.9987 0.0449
vn -0.0224 0.9987 0.0449
vn -0.0292 0.9986 0.0438
vn -0.0292 0.9986 0.0438
vn -0.0292 0.9986 0.0438
vn 0.0303 0.9985 0.0449
vn 0.0303 0.9985 0.0449
vn 0.0303 0.9985 0.0449
vn 0.0308 0.9984 0.0471
vn 0.0308 0.9984 0.0471
vn 0.0308 0.9984 0.0471
vn 0.0312 0.9985 0.0449
vn 0.0312 0.9985 0.0449
vn 0.0312 0.9985 0.0449
vn 0.0338 0.9985 0.0438
vn 0.0338 0.9985 0.0438
vn 0.0338 0.9985 0.0438
vn -0.0292 0.9986 0.0438
vn -0.0292 0.9986 0.0438
vn -0.0292 0.9986 0.0438
vn -0.0292 0.9986 0.0438
vt 0.283739 0.420557
vt 0.285455 0.420328
vt 0.288774 0.41411
vt 0.289193 0.421548
vt 0.285455 0.420328
vt 0.283739 0.421548
vt 0.290567 0.421548
vt 0.292436 0.420328
vt 0.290567 0.420328
vt 0.277826 0.419984
vt 0.276415 0.423951
vt 0.277826 0.423951
vt 0.276415 0.41411
vt 0.277826 0.418764
vt 0.277826 0.415369
vt 0.290567 0.421548
vt 0.289193 0.421548
vt 0.289193 0.423951
vt 0.290567 0.421548
vt 0.292436 0.421548
vt 0.292436 0.420328
vt 0.290567 0.418192
vt 0.289232 0.418192
vt 0.290567 0.420328
vt 0.290262 0.41411
vt 0.288774 0.41411
vt 0.285455 0.420328
vt 0.277826 0.418764
vt 0.277826 0.419984
vt 0.282747 0.419984
vt 0.276415 0.41411
vt 0.277826 0.419984
vt 0.277826 0.418764
vt 0.289232 0.418192
vt 0.289232 0.420328
vt 0.290567 0.420328
vt 0.285455 0.420328
vt 0.289193 0.421548
vt 0.289232 0.420328
vt 0.283739 0.421548
vt 0.285455 0.420328
vt 0.283739 0.420557
vt 0.290567 0.423951
vt 0.290567 0.421548
vt 0.289193 0.423951
vt 0.283357 0.41411
vt 0.277826 0.415369
vt 0.283357 0.415369
vt 0.283357 0.41411
vt 0.276415 0.41411
vt 0.277826 0.415369
vt 0.282747 0.418764
vt 0.277826 0.418764
vt 0.282747 0.419984
vt 0.277826 0.419984
vt 0.276415 0.41411
vt 0.276415 0.423951
vt 0.289232 0.420328
vt 0.289193 0.421548
vt 0.290567 0.421548
vt 0.290567 0.420328
s off
f 1/1/1 2/2/2 3/3/3
f 4/4/4 5/5/5 6/6/6
f 7/7/7 8/8/8 9/9/9
f 10/10/10 11/11/11 12/12/12
f 13/13/13 14/14/14 15/15/15
f 16/16/16 17/17/17 18/18/18
f 19/19/19 20/20/20 21/21/21
f 22/22/22 23/23/23 24/24/24
f 25/25/25 26/26/26 27/27/27
f 28/28/28 29/29/29 30/30/30
f 31/31/31 32/32/32 33/33/33
f 34/34/34 35/35/35 36/36/36
f 37/37/37 38/38/38 39/39/39
f 40/40/40 41/41/41 42/42/42
f 43/43/43 44/44/44 45/45/45
f 46/46/46 47/47/47 48/48/48
f 49/49/49 50/50/50 51/51/51
f 52/52/52 53/53/53 54/54/54
f 55/55/55 56/56/56 57/57/57
f 58/58/58 59/59/59 60/60/60
f 58/58/58 60/60/60 61/61/61
