v -0.308741 0.203015 -0.319636
v -0.305361 0.203114 -0.319642
v -0.30696 0.20317 -0.321985
v -0.312409 0.202633 -0.313701
v -0.311415 0.20256 -0.311332
v -0.308648 0.202685 -0.312037
v -0.318733 0.202751 -0.321075
v -0.315686 0.202967 -0.323575
v -0.317639 0.203263 -0.33162
v -0.317146 0.202519 -0.314732
v -0.320188 0.202436 -0.313637
v -0.316024 0.202417 -0.31162
v -0.312409 0.202633 -0.313701
v -0.316024 0.202417 -0.31162
v -0.311415 0.20256 -0.311332
v -0.308088 0.202974 -0.318269
v -0.305088 0.202978 -0.316349
v -0.305361 0.203114 -0.319642
v -0.308101 0.202894 -0.316437
v -0.306607 0.202805 -0.31343
v -0.305088 0.202978 -0.316349
v -0.33248 0.203093 -0.319669
v -0.322404 0.202884 -0.322169
v -0.33248 0.203202 -0.322169
v -0.33248 0.203093 -0.319669
v -0.33537 0.202847 -0.311546
v -0.33248 0.202736 -0.311546
v -0.33248 0.203507 -0.329121
v -0.33537 0.203732 -0.331698
v -0.33248 0.203202 -0.322169
v -0.306607 0.202805 -0.31343
v -0.309167 0.202792 -0.314838
v -0.308648 0.202685 -0.312037
v -0.317146 0.202519 -0.314732
v -0.318812 0.20252 -0.315995
v -0.320188 0.202436 -0.313637
v -0.315686 0.202967 -0.323575
v -0.311459 0.202994 -0.321003
v -0.310877 0.203123 -0.323518
v -0.317639 0.203263 -0.33162
v -0.315686 0.202967 -0.323575
v -0.315139 0.203235 -0.329121
v -0.308101 0.202894 -0.316437
v -0.305088 0.202978 -0.316349
v -0.308088 0.202974 -0.318269
v -0.318733 0.202751 -0.321075
v -0.311459 0.202994 -0.321003
v -0.315686 0.202967 -0.323575
v -0.306235 0.203614 -0.33162
v -0.315139 0.203235 -0.329121
v -0.306235 0.203505 -0.329121
v -0.309167 0.202792 -0.314838
v -0.312409 0.202633 -0.313701
v -0.308648 0.202685 -0.312037
v -0.312409 0.202633 -0.313701
v -0.317146 0.202519 -0.314732
v -0.316024 0.202417 -0.31162
v -0.308101 0.202894 -0.316437
v -0.309167 0.202792 -0.314838
v -0.306607 0.202805 -0.31343
v -0.33248 0.203507 -0.329121
v -0.321154 0.203277 -0.331698
v -0.33537 0.203732 -0.331698
v -0.321154 0.203277 -0.331698
v -0.33248 0.203507 -0.329121
v -0.321154 0.203161 -0.329121
v -0.33248 0.203093 -0.319669
v -0.322404 0.202772 -0.319669
v -0.322404 0.202884 -0.322169
v -0.308741 0.203015 -0.319636
v -0.308088 0.202974 -0.318269
v -0.305361 0.203114 -0.319642
v -0.311459 0.202994 -0.321003
v -0.30696 0.20317 -0.321985
v -0.310877 0.203123 -0.323518
v -0.33248 0.203093 -0.319669
v -0.33248 0.203202 -0.322169
v -0.33537 0.203732 -0.331698
v -0.33537 0.202847 -0.311546
v -0.306235 0.203614 -0.33162
v -0.317639 0.203263 -0.33162
v -0.315139 0.203235 -0.329121
v -0.311459 0.202994 -0.321003
v -0.308741 0.203015 -0.319636
v -0.30696 0.20317 -0.321985
vn -0.0292 0.9986 0.0438
vn -0.0292 0.9986 0.0438
vn -0.0292 0.9986 0.0438
vn -0.0334 0.9984 0.0448
vn -0.0334 0.9984 0.0448
vn -0.0334 0.9984 0.0448
vn -0.0338 0.9984 0.0449
vn -0.0338 0.9984 0.0449
vn -0.0338 0.9984 0.0449
vn -0.0139 0.9992 0.0378
vn -0.0139 0.9992 0.0378
vn -0.0139 0.9992 0.0378
vn -0.0338 0.9984 0.0449
vn -0.0338 0.9984 0.0449
vn -0.0338 0.9984 0.0449
vn -0.0292 0.9986 0.0438
vn -0.0292 0.9986 0.0438
vn -0.0292 0.9986 0.0438
vn -0.0292 0.9986 0.0438
vn -0.0292 0.9986 0.0438
vn -0.0292 0.9986 0.0438
vn 0.0315 0.9985 0.0438
vn 0.0315 0.9985 0.0438
vn 0.0315 0.9985 0.0438
vn 0.0384 0.9983 0.0438
vn 0.0384 0.9983 0.0438
vn 0.0384 0.9983 0.0438
vn 0.0386 0.9983 0.0438
vn 0.0386 0.9983 0.0438
vn 0.0386 0.9983 0.0438
vn -0.0292 0.9986 0.0438
vn -0.0292 0.9986 0.0438
vn -0.0292 0.9986 0.0438
vn -0.0186 0.9995 0.0249
vn -0.0186 0.9995 0.0249
vn -0.0186 0.9995 0.0249
vn -0.033 0.9985 0.0436
vn -0.033 0.9985 0.0436
vn -0.033 0.9985 0.0436
vn -0.0338 0.9984 0.0449
vn -0.0338 0.9984 0.0449
vn -0.0338 0.9984 0.0449
vn -0.0292 0.9986 0.0438
vn -0.0292 0.9986 0.0438
vn -0.0292 0.9986 0.0438
vn -0.0338 0.9984 0.0449
vn -0.0338 0.9984 0.0449
vn -0.0338 0.9984 0.0449
vn -0.0303 0.9986 0.0438
vn -0.0303 0.9986 0.0438
vn -0.0303 0.9986 0.0438
vn -0.0334 0.9984 0.0446
vn -0.0334 0.9984 0.0446
vn -0.0334 0.9984 0.0446
vn -0.0338 0.9984 0.0449
vn -0.0338 0.9984 0.0449
vn -0.0338 0.9984 0.0449
vn -0.0292 0.9986 0.0438
vn -0.0292 0.9986 0.0438
vn -0.0292 0.9986 0.0438
vn 0.032 0.9982 0.0512
vn 0.032 0.9982 0.0512
vn 0.032 0.9982 0.0512
vn 0.0306 0.9985 0.0449
vn 0.0306 0.9985 0.0449
vn 0.0306 0.9985 0.0449
vn 0.0318 0.9985 0.0449
vn 0.0318 0.9985 0.0449
vn 0.0318 0.9985 0.0449
vn -0.0292 0.9986 0.0438
vn -0.0292 0.9986 0.0438
vn -0.0292 0.9986 0.0438
vn -0.0295 0.9986 0.0444
vn -0.0295 0.9986 0.0444
vn -0.0295 0.9986 0.0444
vn 0.0385 0.9983 0.0438
vn 0.0385 0.9983 0.0438
vn 0.0385 0.9983 0.0438
vn 0.0385 0.9983 0.0438
vn -0.0308 0.9986 0.042
vn -0.0308 0.9986 0.042
vn -0.0308 0.9986 0.042
vn -0.0297 0.9986 0.0435
vn -0.0297 0.9986 0.0435
vn -0.0297 0.9986 0.0435
vt 0.351442 0.420001
vt 0.353093 0.419998
vt 0.352312 0.418853
vt 0.349651 0.422899
vt 0.350136 0.424056
vt 0.351488 0.423712
vt 0.346563 0.419298
vt 0.348051 0.418077
vt 0.347097 0.414148
vt 0.347338 0.422395
vt 0.345852 0.42293
vt 0.347886 0.423915
vt 0.349651 0.422899
vt 0.347886 0.423915
vt 0.350136 0.424056
vt 0.351761 0.420668
vt 0.353226 0.421606
vt 0.353093 0.419998
vt 0.351755 0.421563
vt 0.352485 0.423031
vt 0.353226 0.421606
vt 0.33985 0.419984
vt 0.34477 0.418764
vt 0.33985 0.418764
vt 0.33985 0.419984
vt 0.338438 0.423951
vt 0.33985 0.423951
vt 0.33985 0.415369
vt 0.338438 0.41411
vt 0.33985 0.418764
vt 0.352485 0.423031
vt 0.351235 0.422344
vt 0.351488 0.423712
vt 0.347338 0.422395
vt 0.346524 0.421779
vt 0.345852 0.42293
vt 0.348051 0.418077
vt 0.350115 0.419333
vt 0.350399 0.418105
vt 0.347097 0.414148
vt 0.348051 0.418077
vt 0.348318 0.415369
vt 0.351755 0.421563
vt 0.353226 0.421606
vt 0.351761 0.420668
vt 0.346563 0.419298
vt 0.350115 0.419333
vt 0.348051 0.418077
vt 0.352666 0.414148
vt 0.348318 0.415369
vt 0.352666 0.415369
vt 0.351235 0.422344
vt 0.349651 0.422899
vt 0.351488 0.423712
vt 0.349651 0.422899
vt 0.347338 0.422395
vt 0.347886 0.423915
vt 0.351755 0.421563
vt 0.351235 0.422344
vt 0.352485 0.423031
vt 0.33985 0.415369
vt 0.345381 0.41411
vt 0.338438 0.41411
vt 0.345381 0.41411
vt 0.33985 0.415369
vt 0.345381 0.415369
vt 0.33985 0.419984
vt 0.34477 0.419984
vt 0.34477 0.418764
vt 0.351442 0.420001
vt 0.351761 0.420668
vt 0.353093 0.419998
vt 0.350115 0.419333
vt 0.352312 0.418853
vt 0.350399 0.418105
vt 0.33985 0.419984
vt 0.33985 0.418764
vt 0.338438 0.41411
vt 0.338438 0.423951
vt 0.352666 0.414148
vt 0.347097 0.414148
vt 0.348318 0.415369
vt 0.350115 0.419333
vt 0.351442 0.420001
vt 0.352312 0.418853
s off
f 1/1/1 2/2/2 3/3/3
f 4/4/4 5/5/5 6/6/6
f 7/7/7 8/8/8 9/9/9
f 10/10/10 11/11/11 12/12/12
f 13/13/13 14/14/14 15/15/15
f 16/16/16 17/17/17 18/18/18
f 19/19/19 20/20/20 21/21/21
f 22/22/22 23/23/23 24/24/24
f 25/25/25 26/26/26 27/27/27
f 28/28/28 29/29/29 30/30/30
f 31/31/31 32/32/32 33/33/33
f 34/34/34 35/35/35 36/36/36
f 37/37/37 38/38/38 39/39/39
f 40/40/40 41/41/41 42/42/42
f 43/43/43 44/44/44 45/45/45
f 46/46/46 47/47/47 48/48/48
f 49/49/49 50/50/50 51/51/51
f 52/52/52 53/53/53 54/54/54
f 55/55/55 56/56/56 57/57/57
f 58/58/58 59/59/59 60/60/60
f 61/61/61 62/62/62 63/63/63
f 64/64/64 65/65/65 66/66/66
f 67/67/67 68/68/68 69/69/69
f 70/70/70 71/71/71 72/72/72
f 73/73/73 74/74/74 75/75/75
f 76/76/76 77/77/77 78/78/78
f 76/76/76 78/78/78 79/79/79
f 80/80/80 81/81/81 82/82/82
f 83/83/83 84/84/84 85/85/85
