v -0.186452 0.202899 -0.320871
v -0.188242 0.202901 -0.322267
v -0.187904 0.202796 -0.319685
v -0.179374 0.203024 -0.318677
v -0.178197 0.203202 -0.32196
v -0.180401 0.203069 -0.320389
v -0.179363 0.202939 -0.316742
v -0.176473 0.203091 -0.318277
v -0.179374 0.203024 -0.318677
v -0.179374 0.203024 -0.318677
v -0.176473 0.203091 -0.318277
v -0.178197 0.203202 -0.32196
v -0.1775 0.203606 -0.330701
v -0.180775 0.20345 -0.329335
v -0.178603 0.203475 -0.328454
v -0.182088 0.202734 -0.313938
v -0.185267 0.202512 -0.311376
v -0.181381 0.202649 -0.311502
v -0.18001 0.202858 -0.315324
v -0.178679 0.202793 -0.31295
v -0.177178 0.202915 -0.314746
v -0.190336 0.202477 -0.31442
v -0.188347 0.202628 -0.316285
v -0.191986 0.202674 -0.319293
v -0.191986 0.202674 -0.319293
v -0.188347 0.202628 -0.316285
v -0.188536 0.202709 -0.318222
v -0.185267 0.202512 -0.311376
v -0.186698 0.202605 -0.314519
v -0.188178 0.202457 -0.312354
v -0.184625 0.202988 -0.32147
v -0.181688 0.203173 -0.323625
v -0.185185 0.203065 -0.323612
v -0.205472 0.203529 -0.329121
v -0.208362 0.203796 -0.331698
v -0.205472 0.203224 -0.322169
v -0.178679 0.202793 -0.31295
v -0.18001 0.202858 -0.315324
v -0.182088 0.202734 -0.313938
v -0.191986 0.202674 -0.319293
v -0.189142 0.202946 -0.323944
v -0.191359 0.202963 -0.325979
v -0.205472 0.203114 -0.319669
v -0.208362 0.202911 -0.311546
v -0.205472 0.202758 -0.311546
v -0.205472 0.203114 -0.319669
v -0.195396 0.202903 -0.322169
v -0.205472 0.203224 -0.322169
v -0.195396 0.202903 -0.322169
v -0.205472 0.203114 -0.319669
v -0.195396 0.20279 -0.319669
v -0.188536 0.202709 -0.318222
v -0.187904 0.202796 -0.319685
v -0.189225 0.202814 -0.321076
v -0.191986 0.202674 -0.319293
v -0.189225 0.202814 -0.321076
v -0.189142 0.202946 -0.323944
v -0.188242 0.202901 -0.322267
v -0.184625 0.202988 -0.32147
v -0.185185 0.203065 -0.323612
v -0.180775 0.20345 -0.329335
v -0.1775 0.203606 -0.330701
v -0.180047 0.203574 -0.331674
v -0.185267 0.202512 -0.311376
v -0.184906 0.202636 -0.313869
v -0.186698 0.202605 -0.314519
v -0.176473 0.203091 -0.318277
v -0.179363 0.202939 -0.316742
v -0.177178 0.202915 -0.314746
v -0.182088 0.202734 -0.313938
v -0.184906 0.202636 -0.313869
v -0.185267 0.202512 -0.311376
v -0.179363 0.202939 -0.316742
v -0.18001 0.202858 -0.315324
v -0.177178 0.202915 -0.314746
v -0.180401 0.203069 -0.320389
v -0.178197 0.203202 -0.32196
v -0.181688 0.203173 -0.323625
v -0.181381 0.202649 -0.311502
v -0.178679 0.202793 -0.31295
v -0.182088 0.202734 -0.313938
v -0.186452 0.202899 -0.320871
v -0.184625 0.202988 -0.32147
v -0.188242 0.202901 -0.322267
v -0.187724 0.203146 -0.32731
v -0.189223 0.203188 -0.329381
v -0.191359 0.202963 -0.325979
v -0.182083 0.203058 -0.321271
v -0.180401 0.203069 -0.320389
v -0.181688 0.203173 -0.323625
v -0.185686 0.203403 -0.331548
v -0.185021 0.203319 -0.329174
v -0.180775 0.20345 -0.329335
v -0.180047 0.203574 -0.331674
v -0.189223 0.203188 -0.329381
v -0.187724 0.203146 -0.32731
v -0.185021 0.203319 -0.329174
v -0.185686 0.203403 -0.331548
v -0.190336 0.202477 -0.31442
v -0.186698 0.202605 -0.314519
v -0.188347 0.202628 -0.316285
v -0.205472 0.203114 -0.319669
v -0.205472 0.203224 -0.322169
v -0.208362 0.203796 -0.331698
v -0.208362 0.202911 -0.311546
v -0.184625 0.202988 -0.32147
v -0.182083 0.203058 -0.321271
v -0.181688 0.203173 -0.323625
v -0.194146 0.203295 -0.331698
v -0.205472 0.203529 -0.329121
v -0.194146 0.203179 -0.329121
v -0.205472 0.203529 -0.329121
v -0.194146 0.203295 -0.331698
v -0.208362 0.203796 -0.331698
v -0.187904 0.202796 -0.319685
v -0.188242 0.202901 -0.322267
v -0.189225 0.202814 -0.321076
v -0.189142 0.202946 -0.323944
v -0.187724 0.203146 -0.32731
v -0.191359 0.202963 -0.325979
v -0.190336 0.202477 -0.31442
v -0.188178 0.202457 -0.312354
v -0.186698 0.202605 -0.314519
v -0.191986 0.202674 -0.319293
v -0.188536 0.202709 -0.318222
v -0.189225 0.202814 -0.321076
vn -0.0338 0.9984 0.0449
vn -0.0338 0.9984 0.0449
vn -0.0338 0.9984 0.0449
vn -0.0292 0.9986 0.0438
vn -0.0292 0.9986 0.0438
vn -0.0292 0.9986 0.0438
vn -0.0292 0.9986 0.0438
vn -0.0292 0.9986 0.0438
vn -0.0292 0.9986 0.0438
vn -0.0292 0.9986 0.0438
vn -0.0292 0.9986 0.0438
vn -0.0292 0.9986 0.0438
vn -0.0293 0.9986 0.0438
vn -0.0293 0.9986 0.0438
vn -0.0293 0.9986 0.0438
vn -0.0338 0.9984 0.0449
vn -0.0338 0.9984 0.0449
vn -0.0338 0.9984 0.0449
vn -0.0292 0.9986 0.0438
vn -0.0292 0.9986 0.0438
vn -0.0292 0.9986 0.0438
vn -0.0289 0.9983 0.0501
vn -0.0289 0.9983 0.0501
vn -0.0289 0.9983 0.0501
vn -0.0239 0.9987 0.044
vn -0.0239 0.9987 0.044
vn -0.0239 0.9987 0.044
vn -0.0337 0.9984 0.0449
vn -0.0337 0.9984 0.0449
vn -0.0337 0.9984 0.0449
vn -0.0307 0.9986 0.0441
vn -0.0307 0.9986 0.0441
vn -0.0307 0.9986 0.0441
vn 0.0532 0.9976 0.0438
vn 0.0532 0.9976 0.0438
vn 0.0532 0.9976 0.0438
vn -0.0299 0.9986 0.0442
vn -0.0299 0.9986 0.0442
vn -0.0299 0.9986 0.0442
vn -0.0296 0.9987 0.0404
vn -0.0296 0.9987 0.0404
vn -0.0296 0.9987 0.0404
vn 0.053 0.9976 0.0438
vn 0.053 0.9976 0.0438
vn 0.053 0.9976 0.0438
vn 0.0318 0.9985 0.0438
vn 0.0318 0.9985 0.0438
vn 0.0318 0.9985 0.0438
vn 0.0321 0.9985 0.0449
vn 0.0321 0.9985 0.0449
vn 0.0321 0.9985 0.0449
vn -0.0337 0.9984 0.0449
vn -0.0337 0.9984 0.0449
vn -0.0337 0.9984 0.0449
vn -0.0216 0.9987 0.0453
vn -0.0216 0.9987 0.0453
vn -0.0216 0.9987 0.0453
vn -0.0338 0.9984 0.0449
vn -0.0338 0.9984 0.0449
vn -0.0338 0.9984 0.0449
vn -0.0292 0.9986 0.0438
vn -0.0292 0.9986 0.0438
vn -0.0292 0.9986 0.0438
vn -0.0338 0.9984 0.0449
vn -0.0338 0.9984 0.0449
vn -0.0338 0.9984 0.0449
vn -0.0293 0.9986 0.0438
vn -0.0293 0.9986 0.0438
vn -0.0293 0.9986 0.0438
vn -0.0338 0.9984 0.0449
vn -0.0338 0.9984 0.0449
vn -0.0338 0.9984 0.0449
vn -0.0292 0.9986 0.0438
vn -0.0292 0.9986 0.0438
vn -0.0292 0.9986 0.0438
vn -0.0292 0.9986 0.0438
vn -0.0292 0.9986 0.0438
vn -0.0292 0.9986 0.0438
vn -0.0297 0.9986 0.0438
vn -0.0297 0.9986 0.0438
vn -0.0297 0.9986 0.0438
vn -0.0338 0.9984 0.0449
vn -0.0338 0.9984 0.0449
vn -0.0338 0.9984 0.0449
vn -0.0338 0.9984 0.0449
vn -0.0338 0.9984 0.0449
vn -0.0338 0.9984 0.0449
vn -0.0292 0.9986 0.0438
vn -0.0292 0.9986 0.0438
vn -0.0292 0.9986 0.0438
vn -0.0292 0.9986 0.0438
vn -0.0292 0.9986 0.0438
vn -0.0292 0.9986 0.0438
vn -0.0292 0.9986 0.0438
vn -0.0333 0.9984 0.0448
vn -0.0333 0.9984 0.0448
vn -0.0333 0.9984 0.0448
vn -0.0333 0.9984 0.0448
vn -0.0338 0.9984 0.0449
vn -0.0338 0.9984 0.0449
vn -0.0338 0.9984 0.0449
vn 0.0531 0.9976 0.0438
vn 0.0531 0.9976 0.0438
vn 0.0531 0.9976 0.0438
vn 0.0531 0.9976 0.0438
vn -0.0311 0.9986 0.0435
vn -0.0311 0.9986 0.0435
vn -0.0311 0.9986 0.0435
vn 0.0308 0.9985 0.045
vn 0.0308 0.9985 0.045
vn 0.0308 0.9985 0.045
vn 0.0351 0.9973 0.064
vn 0.0351 0.9973 0.064
vn 0.0351 0.9973 0.064
vn -0.0337 0.9984 0.0449
vn -0.0337 0.9984 0.0449
vn -0.0337 0.9984 0.0449
vn -0.0338 0.9984 0.0449
vn -0.0338 0.9984 0.0449
vn -0.0338 0.9984 0.0449
vn -0.0338 0.9984 0.0449
vn -0.0338 0.9984 0.0449
vn -0.0338 0.9984 0.0449
vn -0.0234 0.9988 0.0424
vn -0.0234 0.9988 0.0424
vn -0.0234 0.9988 0.0424
vt 0.411161 0.419398
vt 0.410287 0.418716
vt 0.410453 0.419977
vt 0.414618 0.420469
vt 0.415193 0.418866
vt 0.414116 0.419633
vt 0.414623 0.421414
vt 0.416035 0.420664
vt 0.414618 0.420469
vt 0.414618 0.420469
vt 0.416035 0.420664
vt 0.415193 0.418866
vt 0.415533 0.414597
vt 0.413934 0.415264
vt 0.414994 0.415694
vt 0.413293 0.422783
vt 0.41174 0.424035
vt 0.413638 0.423973
vt 0.414307 0.422106
vt 0.414958 0.423265
vt 0.41569 0.422388
vt 0.409265 0.422548
vt 0.410236 0.421637
vt 0.408459 0.420168
vt 0.408459 0.420168
vt 0.410236 0.421637
vt 0.410144 0.420691
vt 0.41174 0.424035
vt 0.411041 0.4225
vt 0.410319 0.423557
vt 0.412054 0.419105
vt 0.413488 0.418053
vt 0.41178 0.418059
vt 0.401873 0.415369
vt 0.400462 0.41411
vt 0.401873 0.418764
vt 0.414958 0.423265
vt 0.414307 0.422106
vt 0.413293 0.422783
vt 0.408459 0.420168
vt 0.409848 0.417897
vt 0.408765 0.416903
vt 0.401873 0.419984
vt 0.400462 0.423951
vt 0.401873 0.423951
vt 0.401873 0.419984
vt 0.406794 0.418764
vt 0.401873 0.418764
vt 0.406794 0.418764
vt 0.401873 0.419984
vt 0.406794 0.419984
vt 0.410144 0.420691
vt 0.410453 0.419977
vt 0.409807 0.419298
vt 0.408459 0.420168
vt 0.409807 0.419298
vt 0.409848 0.417897
vt 0.410287 0.418716
vt 0.412054 0.419105
vt 0.41178 0.418059
vt 0.413934 0.415264
vt 0.415533 0.414597
vt 0.414289 0.414122
vt 0.41174 0.424035
vt 0.411916 0.422817
vt 0.411041 0.4225
vt 0.416035 0.420664
vt 0.414623 0.421414
vt 0.41569 0.422388
vt 0.413293 0.422783
vt 0.411916 0.422817
vt 0.41174 0.424035
vt 0.414623 0.421414
vt 0.414307 0.422106
vt 0.41569 0.422388
vt 0.414116 0.419633
vt 0.415193 0.418866
vt 0.413488 0.418053
vt 0.413638 0.423973
vt 0.414958 0.423265
vt 0.413293 0.422783
vt 0.411161 0.419398
vt 0.412054 0.419105
vt 0.410287 0.418716
vt 0.41054 0.416253
vt 0.409808 0.415242
vt 0.408765 0.416903
vt 0.413295 0.419202
vt 0.414116 0.419633
vt 0.413488 0.418053
vt 0.411536 0.414183
vt 0.41186 0.415343
vt 0.413934 0.415264
vt 0.414289 0.414122
vt 0.409808 0.415242
vt 0.41054 0.416253
vt 0.41186 0.415343
vt 0.411536 0.414183
vt 0.409265 0.422548
vt 0.411041 0.4225
vt 0.410236 0.421637
vt 0.401873 0.419984
vt 0.401873 0.418764
vt 0.400462 0.41411
vt 0.400462 0.423951
vt 0.412054 0.419105
vt 0.413295 0.419202
vt 0.413488 0.418053
vt 0.407404 0.41411
vt 0.401873 0.415369
vt 0.407404 0.415369
vt 0.401873 0.415369
vt 0.407404 0.41411
vt 0.400462 0.41411
vt 0.410453 0.419977
vt 0.410287 0.418716
vt 0.409807 0.419298
vt 0.409848 0.417897
vt 0.41054 0.416253
vt 0.408765 0.416903
vt 0.409265 0.422548
vt 0.410319 0.423557
vt 0.411041 0.4225
vt 0.408459 0.420168
vt 0.410144 0.420691
vt 0.409807 0.419298
s off
f 1/1/1 2/2/2 3/3/3
f 4/4/4 5/5/5 6/6/6
f 7/7/7 8/8/8 9/9/9
f 10/10/10 11/11/11 12/12/12
f 13/13/13 14/14/14 15/15/15
f 16/16/16 17/17/17 18/18/18
f 19/19/19 20/20/20 21/21/21
f 22/22/22 23/23/23 24/24/24
f 25/25/25 26/26/26 27/27/27
f 28/28/28 29/29/29 30/30/30
f 31/31/31 32/32/32 33/33/33
f 34/34/34 35/35/35 36/36/36
f 37/37/37 38/38/38 39/39/39
f 40/40/40 41/41/41 42/42/42
f 43/43/43 44/44/44 45/45/45
f 46/46/46 47/47/47 48/48/48
f 49/49/49 50/50/50 51/51/51
f 52/52/52 53/53/53 54/54/54
f 55/55/55 56/56/56 57/57/57
f 58/58/58 59/59/59 60/60/60
f 61/61/61 62/62/62 63/63/63
f 64/64/64 65/65/65 66/66/66
f 67/67/67 68/68/68 69/69/69
f 70/70/70 71/71/71 72/72/72
f 73/73/73 74/74/74 75/75/75
f 76/76/76 77/77/77 78/78/78
f 79/79/79 80/80/80 81/81/81
f 82/82/82 83/83/83 84/84/84
f 85/85/85 86/86/86 87/87/87
f 88/88/88 89/89/89 90/90/90
f 91/91/91 92/92/92 93/93/93
f 91/91/91 93/93/93 94/94/94
f 95/95/95 96/96/96 97/97/97
f 95/95/95 97/97/97 98/98/98
f 99/99/99 100/100/100 101/101/101
f 102/102/102 103/103/103 104/104/104
f 102/102/102 104/104/104 105/105/105
f 106/106/106 107/107/107 108/108/108
f 109/109/109 110/110/110 111/111/111
f 112/112/112 113/113/113 114/114/114
f 115/115/115 116/116/116 117/117/117
f 118/118/118 119/119/119 120/120/120
f 121/121/121 122/122/122 123/123/123
f 124/124/124 125/125/125 126/126/126
