v -0.081354 0.20386 -0.331698
v -0.078542 0.203138 -0.319669
v -0.078542 0.203248 -0.322169
v -0.060967 0.202406 -0.311546
v -0.057921 0.202509 -0.311546
v -0.053078 0.203442 -0.329121
v -0.078542 0.203138 -0.319669
v -0.081354 0.202975 -0.311546
v -0.078542 0.202782 -0.311546
v -0.081354 0.20386 -0.331698
v -0.078542 0.203248 -0.322169
v -0.078542 0.203553 -0.329121
v -0.078542 0.203553 -0.329121
v -0.067216 0.2032 -0.329121
v -0.067216 0.203316 -0.331698
v -0.053078 0.203442 -0.329121
v -0.065029 0.203252 -0.331698
v -0.062217 0.203155 -0.329121
v -0.062217 0.202993 -0.325527
v -0.062217 0.203155 -0.329121
v -0.065029 0.202974 -0.325527
v -0.078542 0.203248 -0.322169
v -0.078542 0.203138 -0.319669
v -0.068388 0.202809 -0.319669
v -0.068388 0.202921 -0.322169
v -0.078542 0.203138 -0.319669
v -0.081354 0.20386 -0.331698
v -0.081354 0.202975 -0.311546
v -0.049797 0.203651 -0.331698
v -0.065029 0.203252 -0.331698
v -0.053078 0.203442 -0.329121
v -0.062217 0.203155 -0.329121
v -0.065029 0.203252 -0.331698
v -0.065029 0.202974 -0.325527
v -0.067216 0.203316 -0.331698
v -0.081354 0.20386 -0.331698
v -0.078542 0.203553 -0.329121
v -0.053078 0.203442 -0.329121
v -0.057921 0.202509 -0.311546
v -0.049797 0.203562 -0.329667
v -0.053078 0.203442 -0.329121
v -0.049797 0.203562 -0.329667
v -0.049797 0.203651 -0.331698
vn 0.0687 0.9967 0.0437
vn 0.0687 0.9967 0.0437
vn 0.0687 0.9967 0.0437
vn -0.0338 0.9985 0.0437
vn -0.0338 0.9985 0.0437
vn -0.0338 0.9985 0.0437
vn 0.0685 0.9967 0.0437
vn 0.0685 0.9967 0.0437
vn 0.0685 0.9967 0.0437
vn 0.0687 0.9967 0.0437
vn 0.0687 0.9967 0.0437
vn 0.0687 0.9967 0.0437
vn 0.0311 0.9985 0.0449
vn 0.0311 0.9985 0.0449
vn 0.0311 0.9985 0.0449
vn -0.0314 0.9969 0.0718
vn -0.0314 0.9969 0.0718
vn -0.0314 0.9969 0.0718
vn -0.0067 0.999 0.0449
vn -0.0067 0.999 0.0449
vn -0.0067 0.999 0.0449
vn 0.0322 0.9985 0.0444
vn 0.0322 0.9985 0.0444
vn 0.0322 0.9985 0.0444
vn 0.0322 0.9985 0.0444
vn 0.0686 0.9967 0.0438
vn 0.0686 0.9967 0.0438
vn 0.0686 0.9967 0.0438
vn -0.0262 0.9985 0.0477
vn -0.0262 0.9985 0.0477
vn -0.0262 0.9985 0.0477
vn -0.0067 0.999 0.045
vn -0.0067 0.999 0.045
vn -0.0067 0.999 0.045
vn 0.0383 0.9963 0.0768
vn 0.0383 0.9963 0.0768
vn 0.0383 0.9963 0.0768
vn -0.029 0.9986 0.045
vn -0.029 0.9986 0.045
vn -0.029 0.9986 0.045
vn -0.0292 0.9986 0.0438
vn -0.0292 0.9986 0.0438
vn -0.0292 0.9986 0.0438
vt 0.462485 0.41411
vt 0.463859 0.419984
vt 0.463859 0.418764
vt 0.472441 0.423951
vt 0.473929 0.423951
vt 0.476294 0.415369
vt 0.463859 0.419984
vt 0.462485 0.423951
vt 0.463859 0.423951
vt 0.462485 0.41411
vt 0.463859 0.418764
vt 0.463859 0.415369
vt 0.463859 0.415369
vt 0.469389 0.415369
vt 0.469389 0.41411
vt 0.476294 0.415369
vt 0.470458 0.41411
vt 0.471831 0.415369
vt 0.471831 0.417123
vt 0.471831 0.415369
vt 0.470458 0.417123
vt 0.463859 0.418764
vt 0.463859 0.419984
vt 0.468817 0.419984
vt 0.468817 0.418764
vt 0.463859 0.419984
vt 0.462485 0.41411
vt 0.462485 0.423951
vt 0.477896 0.41411
vt 0.470458 0.41411
vt 0.476294 0.415369
vt 0.471831 0.415369
vt 0.470458 0.41411
vt 0.470458 0.417123
vt 0.469389 0.41411
vt 0.462485 0.41411
vt 0.463859 0.415369
vt 0.476294 0.415369
vt 0.473929 0.423951
vt 0.477896 0.415102
vt 0.476294 0.415369
vt 0.477896 0.415102
vt 0.477896 0.41411
s off
f 1/1/1 2/2/2 3/3/3
f 4/4/4 5/5/5 6/6/6
f 7/7/7 8/8/8 9/9/9
f 10/10/10 11/11/11 12/12/12
f 13/13/13 14/14/14 15/15/15
f 16/16/16 17/17/17 18/18/18
f 19/19/19 20/20/20 21/21/21
f 22/22/22 23/23/23 24/24/24
f 22/22/22 24/24/24 25/25/25
f 26/26/26 27/27/27 28/28/28
f 29/29/29 30/30/30 31/31/31
f 32/32/32 33/33/33 34/34/34
f 35/35/35 36/36/36 37/37/37
f 38/38/38 39/39/39 40/40/40
f 41/41/41 42/42/42 43/43/43
