v 0.073419 0.203195 -0.324238
v 0.070843 0.20307 -0.323156
v 0.070999 0.202972 -0.320864
v 0.064759 0.202525 -0.315621
v 0.062071 0.20251 -0.314854
v 0.064252 0.202368 -0.31251
v 0.065389 0.202978 -0.325225
v 0.062766 0.202899 -0.323959
v 0.066445 0.202955 -0.323904
v 0.064759 0.202525 -0.315621
v 0.061521 0.202668 -0.318014
v 0.062071 0.20251 -0.314854
v 0.074131 0.203312 -0.326448
v 0.076932 0.203405 -0.326689
v 0.076329 0.20349 -0.32902
v 0.073516 0.203372 -0.328205
v 0.074559 0.203512 -0.330719
v 0.071429 0.203364 -0.329418
v 0.066279 0.203167 -0.328741
v 0.065101 0.203233 -0.331105
v 0.062889 0.203131 -0.329182
v 0.065389 0.202978 -0.325225
v 0.062194 0.203051 -0.326969
v 0.062766 0.202899 -0.323959
v 0.071234 0.20266 -0.313755
v 0.072192 0.202592 -0.311536
v 0.073555 0.202785 -0.314817
v 0.074521 0.202973 -0.318457
v 0.077477 0.203069 -0.31867
v 0.076381 0.203126 -0.320701
v 0.066445 0.202955 -0.323904
v 0.062766 0.202899 -0.323959
v 0.064966 0.202827 -0.322173
v 0.059792 0.203334 -0.331698
v 0.045576 0.203931 -0.331698
v 0.059792 0.203218 -0.329121
v 0.074131 0.203312 -0.326448
v 0.076315 0.203268 -0.32397
v 0.076932 0.203405 -0.326689
v 0.076315 0.203268 -0.32397
v 0.073419 0.203195 -0.324238
v 0.07418 0.203126 -0.322164
v 0.061521 0.202668 -0.318014
v 0.06455 0.202636 -0.318248
v 0.062795 0.202751 -0.320684
v 0.073516 0.203372 -0.328205
v 0.076329 0.20349 -0.32902
v 0.074559 0.203512 -0.330719
v 0.071429 0.203364 -0.329418
v 0.074559 0.203512 -0.330719
v 0.071993 0.203484 -0.331795
v 0.062194 0.203051 -0.326969
v 0.065277 0.203064 -0.327206
v 0.062889 0.203131 -0.329182
v 0.06728 0.202531 -0.313856
v 0.064252 0.202368 -0.31251
v 0.067744 0.202439 -0.311468
v 0.074131 0.203312 -0.326448
v 0.076329 0.20349 -0.32902
v 0.073516 0.203372 -0.328205
v 0.064966 0.202827 -0.322173
v 0.067633 0.202855 -0.320788
v 0.066445 0.202955 -0.323904
v 0.074521 0.202973 -0.318457
v 0.076381 0.203126 -0.320701
v 0.07342 0.203008 -0.319984
v 0.045576 0.203047 -0.311546
v 0.048466 0.202803 -0.311546
v 0.048466 0.20316 -0.319669
v 0.058542 0.202942 -0.322169
v 0.048466 0.203269 -0.322169
v 0.058542 0.20283 -0.319669
v 0.045576 0.203931 -0.331698
v 0.048466 0.203269 -0.322169
v 0.048466 0.203574 -0.329121
v 0.07456 0.202883 -0.316379
v 0.077546 0.202965 -0.316251
v 0.077477 0.203069 -0.31867
v 0.067633 0.202855 -0.320788
v 0.064966 0.202827 -0.322173
v 0.065618 0.202745 -0.319876
v 0.065277 0.203064 -0.327206
v 0.062194 0.203051 -0.326969
v 0.065389 0.202978 -0.325225
v 0.07456 0.202883 -0.316379
v 0.076226 0.202807 -0.313532
v 0.077546 0.202965 -0.316251
v 0.073555 0.202785 -0.314817
v 0.072192 0.202592 -0.311536
v 0.076226 0.202807 -0.313532
v 0.065618 0.202745 -0.319876
v 0.064966 0.202827 -0.322173
v 0.062795 0.202751 -0.320684
v 0.077477 0.203069 -0.31867
v 0.074521 0.202973 -0.318457
v 0.07456 0.202883 -0.316379
v 0.065277 0.203064 -0.327206
v 0.066279 0.203167 -0.328741
v 0.062889 0.203131 -0.329182
v 0.064759 0.202525 -0.315621
v 0.06455 0.202636 -0.318248
v 0.061521 0.202668 -0.318014
v 0.07342 0.203008 -0.319984
v 0.076381 0.203126 -0.320701
v 0.07418 0.203126 -0.322164
v 0.06455 0.202636 -0.318248
v 0.065618 0.202745 -0.319876
v 0.062795 0.202751 -0.320684
v 0.065101 0.203233 -0.331105
v 0.066279 0.203167 -0.328741
v 0.068409 0.203275 -0.32954
v 0.068169 0.203372 -0.331887
v 0.074131 0.203312 -0.326448
v 0.073419 0.203195 -0.324238
v 0.076315 0.203268 -0.32397
v 0.067633 0.202855 -0.320788
v 0.068308 0.202985 -0.323187
v 0.066445 0.202955 -0.323904
v 0.045576 0.203931 -0.331698
v 0.045576 0.203047 -0.311546
v 0.048466 0.20316 -0.319669
v 0.048466 0.203269 -0.322169
v 0.048466 0.203269 -0.322169
v 0.048466 0.20316 -0.319669
v 0.058542 0.20283 -0.319669
v 0.070999 0.202972 -0.320864
v 0.07342 0.203008 -0.319984
v 0.07418 0.203126 -0.322164
v 0.073419 0.203195 -0.324238
v 0.045576 0.203931 -0.331698
v 0.048466 0.203574 -0.329121
v 0.059792 0.203218 -0.329121
v 0.06728 0.202531 -0.313856
v 0.064759 0.202525 -0.315621
v 0.064252 0.202368 -0.31251
v 0.071993 0.203484 -0.331795
v 0.068169 0.203372 -0.331887
v 0.068409 0.203275 -0.32954
v 0.071429 0.203364 -0.329418
v 0.070999 0.202972 -0.320864
v 0.070843 0.20307 -0.323156
v 0.068308 0.202985 -0.323187
v 0.067633 0.202855 -0.320788
v 0.067744 0.202439 -0.311468
v 0.072192 0.202592 -0.311536
v 0.071234 0.20266 -0.313755
v 0.06728 0.202531 -0.313856
v 0.07456 0.202883 -0.316379
v 0.073555 0.202785 -0.314817
v 0.076226 0.202807 -0.313532
vn -0.0297 0.9986 0.0447
vn -0.0297 0.9986 0.0447
vn -0.0297 0.9986 0.0447
vn 0.0093 0.9986 0.0519
vn 0.0093 0.9986 0.0519
vn 0.0093 0.9986 0.0519
vn -0.0155 0.9994 0.0303
vn -0.0155 0.9994 0.0303
vn -0.0155 0.9994 0.0303
vn 0.0083 0.9988 0.0486
vn 0.0083 0.9988 0.0486
vn 0.0083 0.9988 0.0486
vn -0.0292 0.9986 0.0438
vn -0.0292 0.9986 0.0438
vn -0.0292 0.9986 0.0438
vn -0.0292 0.9986 0.0438
vn -0.0292 0.9986 0.0438
vn -0.0292 0.9986 0.0438
vn -0.0153 0.9992 0.0357
vn -0.0153 0.9992 0.0357
vn -0.0153 0.9992 0.0357
vn -0.0052 0.9987 0.0515
vn -0.0052 0.9987 0.0515
vn -0.0052 0.9987 0.0515
vn -0.0335 0.9984 0.0448
vn -0.0335 0.9984 0.0448
vn -0.0335 0.9984 0.0448
vn -0.0292 0.9986 0.0438
vn -0.0292 0.9986 0.0438
vn -0.0292 0.9986 0.0438
vn -0.0159 0.9981 0.0601
vn -0.0159 0.9981 0.0601
vn -0.0159 0.9981 0.0601
vn 0.0419 0.9981 0.0449
vn 0.0419 0.9981 0.0449
vn 0.0419 0.9981 0.0449
vn -0.0293 0.9986 0.0438
vn -0.0293 0.9986 0.0438
vn -0.0293 0.9986 0.0438
vn -0.0292 0.9986 0.0438
vn -0.0292 0.9986 0.0438
vn -0.0292 0.9986 0.0438
vn 0.0135 0.9992 0.0374
vn 0.0135 0.9992 0.0374
vn 0.0135 0.9992 0.0374
vn -0.0292 0.9986 0.0438
vn -0.0292 0.9986 0.0438
vn -0.0292 0.9986 0.0438
vn -0.0292 0.9986 0.0438
vn -0.0292 0.9986 0.0438
vn -0.0292 0.9986 0.0438
vn -0.0013 0.9994 0.0354
vn -0.0013 0.9994 0.0354
vn -0.0013 0.9994 0.0354
vn -0.0338 0.9984 0.0449
vn -0.0338 0.9984 0.0449
vn -0.0338 0.9984 0.0449
vn -0.0292 0.9986 0.0438
vn -0.0292 0.9986 0.0438
vn -0.0292 0.9986 0.0438
vn -0.0338 0.9984 0.0449
vn -0.0338 0.9984 0.0449
vn -0.0338 0.9984 0.0449
vn -0.0292 0.9986 0.0438
vn -0.0292 0.9986 0.0438
vn -0.0292 0.9986 0.0438
vn 0.0838 0.9955 0.0437
vn 0.0838 0.9955 0.0437
vn 0.0838 0.9955 0.0437
vn 0.0324 0.9985 0.0449
vn 0.0324 0.9985 0.0449
vn 0.0324 0.9985 0.0449
vn 0.0841 0.9955 0.0437
vn 0.0841 0.9955 0.0437
vn 0.0841 0.9955 0.0437
vn -0.0292 0.9986 0.0438
vn -0.0292 0.9986 0.0438
vn -0.0292 0.9986 0.0438
vn -0.0338 0.9984 0.0449
vn -0.0338 0.9984 0.0449
vn -0.0338 0.9984 0.0449
vn -0.0007 0.9991 0.0431
vn -0.0007 0.9991 0.0431
vn -0.0007 0.9991 0.0431
vn -0.0293 0.9986 0.0438
vn -0.0293 0.9986 0.0438
vn -0.0293 0.9986 0.0438
vn -0.0304 0.9985 0.0461
vn -0.0304 0.9985 0.0461
vn -0.0304 0.9985 0.0461
vn -0.0088 0.9992 0.0379
vn -0.0088 0.9992 0.0379
vn -0.0088 0.9992 0.0379
vn -0.0292 0.9986 0.0438
vn -0.0292 0.9986 0.0438
vn -0.0292 0.9986 0.0438
vn -0.0178 0.9983 0.0553
vn -0.0178 0.9983 0.0553
vn -0.0178 0.9983 0.0553
vn 0.0138 0.9991 0.0412
vn 0.0138 0.9991 0.0412
vn 0.0138 0.9991 0.0412
vn -0.0292 0.9986 0.0438
vn -0.0292 0.9986 0.0438
vn -0.0292 0.9986 0.0438
vn -0.0145 0.9982 0.0576
vn -0.0145 0.9982 0.0576
vn -0.0145 0.9982 0.0576
vn -0.0338 0.9984 0.0449
vn -0.0338 0.9984 0.0449
vn -0.0338 0.9984 0.0449
vn -0.0338 0.9984 0.0449
vn -0.0292 0.9986 0.0438
vn -0.0292 0.9986 0.0438
vn -0.0292 0.9986 0.0438
vn -0.0337 0.9984 0.0449
vn -0.0337 0.9984 0.0449
vn -0.0337 0.9984 0.0449
vn 0.0839 0.9955 0.0437
vn 0.0839 0.9955 0.0437
vn 0.0839 0.9955 0.0437
vn 0.0839 0.9955 0.0437
vn 0.0327 0.9985 0.0438
vn 0.0327 0.9985 0.0438
vn 0.0327 0.9985 0.0438
vn -0.0305 0.9986 0.0438
vn -0.0305 0.9986 0.0438
vn -0.0305 0.9986 0.0438
vn -0.0305 0.9986 0.0438
vn 0.0312 0.9942 0.1028
vn 0.0312 0.9942 0.1028
vn 0.0312 0.9942 0.1028
vn -0.0338 0.9984 0.0449
vn -0.0338 0.9984 0.0449
vn -0.0338 0.9984 0.0449
vn -0.0308 0.9986 0.044
vn -0.0308 0.9986 0.044
vn -0.0308 0.9986 0.044
vn -0.0308 0.9986 0.044
vn -0.0338 0.9984 0.0449
vn -0.0338 0.9984 0.0449
vn -0.0338 0.9984 0.0449
vn -0.0338 0.9984 0.0449
vn -0.0337 0.9984 0.0449
vn -0.0337 0.9984 0.0449
vn -0.0337 0.9984 0.0449
vn -0.0337 0.9984 0.0449
vn -0.0293 0.9986 0.0438
vn -0.0293 0.9986 0.0438
vn -0.0293 0.9986 0.0438
vt 0.538068 0.417753
vt 0.53681 0.418282
vt 0.536886 0.419401
vt 0.533839 0.421962
vt 0.532526 0.422336
vt 0.533591 0.42348
vt 0.534146 0.417271
vt 0.532865 0.417889
vt 0.534662 0.417916
vt 0.533839 0.421962
vt 0.532257 0.420793
vt 0.532526 0.422336
vt 0.538415 0.416674
vt 0.539783 0.416557
vt 0.539489 0.415418
vt 0.538115 0.415816
vt 0.538624 0.414588
vt 0.537096 0.415224
vt 0.534581 0.415555
vt 0.534006 0.4144
vt 0.532925 0.415339
vt 0.534146 0.417271
vt 0.532586 0.41642
vt 0.532865 0.417889
vt 0.537001 0.422873
vt 0.537469 0.423956
vt 0.538134 0.422354
vt 0.538606 0.420576
vt 0.540049 0.420473
vt 0.539514 0.419481
vt 0.534662 0.417916
vt 0.532865 0.417889
vt 0.53394 0.418762
vt 0.531413 0.41411
vt 0.524471 0.41411
vt 0.531413 0.415369
vt 0.538415 0.416674
vt 0.539482 0.417884
vt 0.539783 0.416557
vt 0.539482 0.417884
vt 0.538068 0.417753
vt 0.538439 0.418766
vt 0.532257 0.420793
vt 0.533736 0.420678
vt 0.532879 0.419489
vt 0.538115 0.415816
vt 0.539489 0.415418
vt 0.538624 0.414588
vt 0.537096 0.415224
vt 0.538624 0.414588
vt 0.537371 0.414063
vt 0.532586 0.41642
vt 0.534091 0.416304
vt 0.532925 0.415339
vt 0.53507 0.422823
vt 0.533591 0.42348
vt 0.535296 0.42399
vt 0.538415 0.416674
vt 0.539489 0.415418
vt 0.538115 0.415816
vt 0.53394 0.418762
vt 0.535242 0.419438
vt 0.534662 0.417916
vt 0.538606 0.420576
vt 0.539514 0.419481
vt 0.538068 0.419831
vt 0.524471 0.423951
vt 0.525882 0.423951
vt 0.525882 0.419984
vt 0.530803 0.418764
vt 0.525882 0.418764
vt 0.530803 0.419984
vt 0.524471 0.41411
vt 0.525882 0.418764
vt 0.525882 0.415369
vt 0.538625 0.421591
vt 0.540083 0.421654
vt 0.540049 0.420473
vt 0.535242 0.419438
vt 0.53394 0.418762
vt 0.534258 0.419883
vt 0.534091 0.416304
vt 0.532586 0.41642
vt 0.534146 0.417271
vt 0.538625 0.421591
vt 0.539438 0.422981
vt 0.540083 0.421654
vt 0.538134 0.422354
vt 0.537469 0.423956
vt 0.539438 0.422981
vt 0.534258 0.419883
vt 0.53394 0.418762
vt 0.532879 0.419489
vt 0.540049 0.420473
vt 0.538606 0.420576
vt 0.538625 0.421591
vt 0.534091 0.416304
vt 0.534581 0.415555
vt 0.532925 0.415339
vt 0.533839 0.421962
vt 0.533736 0.420678
vt 0.532257 0.420793
vt 0.538068 0.419831
vt 0.539514 0.419481
vt 0.538439 0.418766
vt 0.533736 0.420678
vt 0.534258 0.419883
vt 0.532879 0.419489
vt 0.534006 0.4144
vt 0.534581 0.415555
vt 0.535621 0.415164
vt 0.535504 0.414018
vt 0.538415 0.416674
vt 0.538068 0.417753
vt 0.539482 0.417884
vt 0.535242 0.419438
vt 0.535572 0.418267
vt 0.534662 0.417916
vt 0.524471 0.41411
vt 0.524471 0.423951
vt 0.525882 0.419984
vt 0.525882 0.418764
vt 0.525882 0.418764
vt 0.525882 0.419984
vt 0.530803 0.419984
vt 0.536886 0.419401
vt 0.538068 0.419831
vt 0.538439 0.418766
vt 0.538068 0.417753
vt 0.524471 0.41411
vt 0.525882 0.415369
vt 0.531413 0.415369
vt 0.53507 0.422823
vt 0.533839 0.421962
vt 0.533591 0.42348
vt 0.537371 0.414063
vt 0.535504 0.414018
vt 0.535621 0.415164
vt 0.537096 0.415224
vt 0.536886 0.419401
vt 0.53681 0.418282
vt 0.535572 0.418267
vt 0.535242 0.419438
vt 0.535296 0.42399
vt 0.537469 0.423956
vt 0.537001 0.422873
vt 0.53507 0.422823
vt 0.538625 0.421591
vt 0.538134 0.422354
vt 0.539438 0.422981
s off
f 1/1/1 2/2/2 3/3/3
f 4/4/4 5/5/5 6/6/6
f 7/7/7 8/8/8 9/9/9
f 10/10/10 11/11/11 12/12/12
f 13/13/13 14/14/14 15/15/15
f 16/16/16 17/17/17 18/18/18
f 19/19/19 20/20/20 21/21/21
f 22/22/22 23/23/23 24/24/24
f 25/25/25 26/26/26 27/27/27
f 28/28/28 29/29/29 30/30/30
f 31/31/31 32/32/32 33/33/33
f 34/34/34 35/35/35 36/36/36
f 37/37/37 38/38/38 39/39/39
f 40/40/40 41/41/41 42/42/42
f 43/43/43 44/44/44 45/45/45
f 46/46/46 47/47/47 48/48/48
f 49/49/49 50/50/50 51/51/51
f 52/52/52 53/53/53 54/54/54
f 55/55/55 56/56/56 57/57/57
f 58/58/58 59/59/59 60/60/60
f 61/61/61 62/62/62 63/63/63
f 64/64/64 65/65/65 66/66/66
f 67/67/67 68/68/68 69/69/69
f 70/70/70 71/71/71 72/72/72
f 73/73/73 74/74/74 75/75/75
f 76/76/76 77/77/77 78/78/78
f 79/79/79 80/80/80 81/81/81
f 82/82/82 83/83/83 84/84/84
f 85/85/85 86/86/86 87/87/87
f 88/88/88 89/89/89 90/90/90
f 91/91/91 92/92/92 93/93/93
f 94/94/94 95/95/95 96/96/96
f 97/97/97 98/98/98 99/99/99
f 100/100/100 101/101/101 102/102/102
f 103/103/103 104/104/104 105/105/105
f 106/106/106 107/107/107 108/108/108
f 109/109/109 110/110/110 111/111/111
f 109/109/109 111/111/111 112/112/112
f 113/113/113 114/114/114 115/115/115
f 116/116/116 117/117/117 118/118/118
f 119/119/119 120/120/120 121/121/121
f 119/119/119 121/121/121 122/122/122
f 123/123/123 124/124/124 125/125/125
f 126/126/126 127/127/127 128/128/128
f 126/126/126 128/128/128 129/129/129
f 130/130/130 131/131/131 132/132/132
f 133/133/133 134/134/134 135/135/135
f 136/136/136 137/137/137 138/138/138
f 136/136/136 138/138/138 139/139/139
f 140/140/140 141/141/141 142/142/142
f 140/140/140 142/142/142 143/143/143
f 144/144/144 145/145/145 146/146/146
f 144/144/144 146/146/146 147/147/147
f 148/148/148 149/149/149 150/150/150
