v 0.188766 0.203044 -0.326108
v 0.191837 0.203023 -0.327125
v 0.189643 0.203141 -0.32884
v 0.195257 0.203248 -0.329537
v 0.197527 0.203426 -0.331868
v 0.19382 0.203299 -0.331766
v 0.200898 0.202886 -0.317322
v 0.200951 0.202696 -0.313001
v 0.203836 0.202964 -0.317121
v 0.192945 0.203127 -0.328604
v 0.189643 0.203141 -0.32884
v 0.191837 0.203023 -0.327125
v 0.199512 0.203084 -0.322747
v 0.199391 0.202967 -0.320191
v 0.201578 0.203113 -0.322021
v 0.191024 0.202465 -0.314706
v 0.191328 0.202325 -0.311792
v 0.192869 0.202469 -0.314019
v 0.1868 0.203353 -0.331698
v 0.175474 0.203596 -0.329121
v 0.1868 0.203237 -0.329121
v 0.195897 0.202445 -0.311222
v 0.192869 0.202469 -0.314019
v 0.191328 0.202325 -0.311792
v 0.195159 0.20289 -0.321672
v 0.196329 0.202828 -0.319401
v 0.197713 0.202987 -0.321903
v 0.192766 0.202856 -0.322704
v 0.193428 0.202744 -0.319726
v 0.195159 0.20289 -0.321672
v 0.192766 0.202856 -0.322704
v 0.190801 0.202754 -0.320993
v 0.193428 0.202744 -0.319726
v 0.192945 0.203127 -0.328604
v 0.191158 0.20317 -0.330464
v 0.189643 0.203141 -0.32884
v 0.172584 0.20311 -0.311546
v 0.175474 0.202825 -0.311546
v 0.175474 0.203181 -0.319669
v 0.18555 0.202848 -0.319669
v 0.18555 0.202961 -0.322169
v 0.175474 0.203291 -0.322169
v 0.175474 0.203291 -0.322169
v 0.175474 0.203181 -0.319669
v 0.18555 0.202848 -0.319669
v 0.172584 0.203995 -0.331698
v 0.175474 0.203291 -0.322169
v 0.175474 0.203596 -0.329121
v 0.200951 0.202696 -0.313001
v 0.198719 0.202698 -0.314711
v 0.195897 0.202445 -0.311222
v 0.197527 0.203426 -0.331868
v 0.198674 0.203336 -0.329063
v 0.200571 0.203469 -0.330822
v 0.201578 0.203113 -0.322021
v 0.203836 0.202964 -0.317121
v 0.204493 0.203199 -0.322056
v 0.199391 0.202967 -0.320191
v 0.197713 0.202987 -0.321903
v 0.196329 0.202828 -0.319401
v 0.197713 0.202987 -0.321903
v 0.199391 0.202967 -0.320191
v 0.199512 0.203084 -0.322747
v 0.199512 0.203084 -0.322747
v 0.201578 0.203113 -0.322021
v 0.200878 0.203217 -0.324872
v 0.175474 0.203181 -0.319669
v 0.175474 0.203291 -0.322169
v 0.172584 0.203995 -0.331698
v 0.191024 0.202465 -0.314706
v 0.189923 0.202397 -0.312481
v 0.191328 0.202325 -0.311792
v 0.188766 0.203044 -0.326108
v 0.191556 0.202901 -0.324618
v 0.191837 0.203023 -0.327125
v 0.192945 0.203127 -0.328604
v 0.19382 0.203299 -0.331766
v 0.191158 0.20317 -0.330464
v 0.204025 0.20335 -0.325812
v 0.200878 0.203217 -0.324872
v 0.204493 0.203199 -0.322056
v 0.19382 0.203299 -0.331766
v 0.192945 0.203127 -0.328604
v 0.195257 0.203248 -0.329537
v 0.191556 0.202901 -0.324618
v 0.188766 0.203044 -0.326108
v 0.189241 0.202899 -0.323201
v 0.195159 0.20289 -0.321672
v 0.193428 0.202744 -0.319726
v 0.196329 0.202828 -0.319401
v 0.198719 0.202698 -0.314711
v 0.195424 0.202544 -0.313766
v 0.195897 0.202445 -0.311222
v 0.192766 0.202856 -0.322704
v 0.191556 0.202901 -0.324618
v 0.190801 0.202754 -0.320993
v 0.195897 0.202445 -0.311222
v 0.195424 0.202544 -0.313766
v 0.192869 0.202469 -0.314019
v 0.197527 0.203426 -0.331868
v 0.195257 0.203248 -0.329537
v 0.198674 0.203336 -0.329063
v 0.201578 0.203113 -0.322021
v 0.200898 0.202886 -0.317322
v 0.203836 0.202964 -0.317121
v 0.204493 0.203199 -0.322056
v 0.200878 0.203217 -0.324872
v 0.201578 0.203113 -0.322021
v 0.200898 0.202886 -0.317322
v 0.198719 0.202698 -0.314711
v 0.200951 0.202696 -0.313001
v 0.200878 0.203217 -0.324872
v 0.204025 0.20335 -0.325812
v 0.202798 0.203438 -0.328624
v 0.200539 0.203312 -0.327272
v 0.172584 0.20311 -0.311546
v 0.175474 0.203181 -0.319669
v 0.172584 0.203995 -0.331698
v 0.172584 0.203995 -0.331698
v 0.175474 0.203596 -0.329121
v 0.1868 0.203353 -0.331698
v 0.191556 0.202901 -0.324618
v 0.189241 0.202899 -0.323201
v 0.190801 0.202754 -0.320993
v 0.200539 0.203312 -0.327272
v 0.202798 0.203438 -0.328624
v 0.200571 0.203469 -0.330822
v 0.198674 0.203336 -0.329063
vn 0.0206 0.9989 0.0422
vn 0.0206 0.9989 0.0422
vn 0.0206 0.9989 0.0422
vn -0.0329 0.9985 0.0444
vn -0.0329 0.9985 0.0444
vn -0.0329 0.9985 0.0444
vn -0.0293 0.9986 0.0443
vn -0.0293 0.9986 0.0443
vn -0.0293 0.9986 0.0443
vn -0.0008 0.9976 0.0696
vn -0.0008 0.9976 0.0696
vn -0.0008 0.9976 0.0696
vn -0.0294 0.9986 0.0443
vn -0.0294 0.9986 0.0443
vn -0.0294 0.9986 0.0443
vn -0.0207 0.9985 0.0501
vn -0.0207 0.9985 0.0501
vn -0.0207 0.9985 0.0501
vn 0.0316 0.9985 0.0449
vn 0.0316 0.9985 0.0449
vn 0.0316 0.9985 0.0449
vn -0.0316 0.9986 0.0426
vn -0.0316 0.9986 0.0426
vn -0.0316 0.9986 0.0426
vn -0.0338 0.9984 0.0449
vn -0.0338 0.9984 0.0449
vn -0.0338 0.9984 0.0449
vn -0.0338 0.9984 0.0449
vn -0.0338 0.9984 0.0449
vn -0.0338 0.9984 0.0449
vn -0.016 0.999 0.041
vn -0.016 0.999 0.041
vn -0.016 0.999 0.041
vn 0.0027 0.9998 0.0202
vn 0.0027 0.9998 0.0202
vn 0.0027 0.9998 0.0202
vn 0.0982 0.9942 0.0436
vn 0.0982 0.9942 0.0436
vn 0.0982 0.9942 0.0436
vn 0.0327 0.9985 0.0449
vn 0.0327 0.9985 0.0449
vn 0.0327 0.9985 0.0449
vn 0.0329 0.9985 0.0438
vn 0.0329 0.9985 0.0438
vn 0.0329 0.9985 0.0438
vn 0.0985 0.9942 0.0436
vn 0.0985 0.9942 0.0436
vn 0.0985 0.9942 0.0436
vn -0.0338 0.9984 0.0449
vn -0.0338 0.9984 0.0449
vn -0.0338 0.9984 0.0449
vn -0.0292 0.9986 0.0438
vn -0.0292 0.9986 0.0438
vn -0.0292 0.9986 0.0438
vn -0.0293 0.9986 0.0438
vn -0.0293 0.9986 0.0438
vn -0.0293 0.9986 0.0438
vn -0.0338 0.9984 0.0449
vn -0.0338 0.9984 0.0449
vn -0.0338 0.9984 0.0449
vn -0.033 0.9985 0.0441
vn -0.033 0.9985 0.0441
vn -0.033 0.9985 0.0441
vn -0.0292 0.9986 0.0438
vn -0.0292 0.9986 0.0438
vn -0.0292 0.9986 0.0438
vn 0.0986 0.9942 0.0436
vn 0.0986 0.9942 0.0436
vn 0.0986 0.9942 0.0436
vn 0.0293 0.9986 0.0449
vn 0.0293 0.9986 0.0449
vn 0.0293 0.9986 0.0449
vn 0.0237 0.9984 0.0513
vn 0.0237 0.9984 0.0513
vn 0.0237 0.9984 0.0513
vn -0.0254 0.9986 0.0472
vn -0.0254 0.9986 0.0472
vn -0.0254 0.9986 0.0472
vn -0.0292 0.9986 0.0438
vn -0.0292 0.9986 0.0438
vn -0.0292 0.9986 0.0438
vn -0.0338 0.9984 0.0449
vn -0.0338 0.9984 0.0449
vn -0.0338 0.9984 0.0449
vn 0.0269 0.9986 0.0453
vn 0.0269 0.9986 0.0453
vn 0.0269 0.9986 0.0453
vn -0.0337 0.9984 0.0449
vn -0.0337 0.9984 0.0449
vn -0.0337 0.9984 0.0449
vn -0.0338 0.9984 0.0449
vn -0.0338 0.9984 0.0449
vn -0.0338 0.9984 0.0449
vn -0.0201 0.9991 0.0363
vn -0.0201 0.9991 0.0363
vn -0.0201 0.9991 0.0363
vn -0.0338 0.9984 0.0449
vn -0.0338 0.9984 0.0449
vn -0.0338 0.9984 0.0449
vn -0.0322 0.9985 0.045
vn -0.0322 0.9985 0.045
vn -0.0322 0.9985 0.045
vn -0.0292 0.9986 0.0438
vn -0.0292 0.9986 0.0438
vn -0.0292 0.9986 0.0438
vn -0.0293 0.9986 0.0438
vn -0.0293 0.9986 0.0438
vn -0.0293 0.9986 0.0438
vn -0.0333 0.9985 0.0444
vn -0.0333 0.9985 0.0444
vn -0.0333 0.9985 0.0444
vn -0.0292 0.9986 0.0438
vn -0.0292 0.9986 0.0438
vn -0.0292 0.9986 0.0438
vn -0.0292 0.9986 0.0438
vn 0.0984 0.9942 0.0437
vn 0.0984 0.9942 0.0437
vn 0.0984 0.9942 0.0437
vn 0.0449 0.9936 0.1037
vn 0.0449 0.9936 0.1037
vn 0.0449 0.9936 0.1037
vn 0.0274 0.9986 0.0462
vn 0.0274 0.9986 0.0462
vn 0.0274 0.9986 0.0462
vn -0.0292 0.9986 0.0438
vn -0.0292 0.9986 0.0438
vn -0.0292 0.9986 0.0438
vn -0.0292 0.9986 0.0438
vt 0.594397 0.41684
vt 0.595896 0.416343
vt 0.594825 0.415506
vt 0.597566 0.415165
vt 0.598675 0.414027
vt 0.596865 0.414077
vt 0.600321 0.421131
vt 0.600347 0.423241
vt 0.601756 0.421229
vt 0.596438 0.415621
vt 0.594825 0.415506
vt 0.595896 0.416343
vt 0.599644 0.418482
vt 0.599585 0.41973
vt 0.600653 0.418836
vt 0.595499 0.422408
vt 0.595648 0.423831
vt 0.5964 0.422744
vt 0.593436 0.41411
vt 0.587905 0.415369
vt 0.593436 0.415369
vt 0.597879 0.42411
vt 0.5964 0.422744
vt 0.595648 0.423831
vt 0.597519 0.419007
vt 0.59809 0.420116
vt 0.598766 0.418894
vt 0.59635 0.418502
vt 0.596673 0.419957
vt 0.597519 0.419007
vt 0.59635 0.418502
vt 0.59539 0.419338
vt 0.596673 0.419957
vt 0.596438 0.415621
vt 0.595565 0.414713
vt 0.594825 0.415506
vt 0.586494 0.423951
vt 0.587905 0.423951
vt 0.587905 0.419984
vt 0.592826 0.419984
vt 0.592826 0.418764
vt 0.587905 0.418764
vt 0.587905 0.418764
vt 0.587905 0.419984
vt 0.592826 0.419984
vt 0.586494 0.41411
vt 0.587905 0.418764
vt 0.587905 0.415369
vt 0.600347 0.423241
vt 0.599257 0.422405
vt 0.597879 0.42411
vt 0.598675 0.414027
vt 0.599235 0.415397
vt 0.600162 0.414538
vt 0.600653 0.418836
vt 0.601756 0.421229
vt 0.602077 0.418819
vt 0.599585 0.41973
vt 0.598766 0.418894
vt 0.59809 0.420116
vt 0.598766 0.418894
vt 0.599585 0.41973
vt 0.599644 0.418482
vt 0.599644 0.418482
vt 0.600653 0.418836
vt 0.600312 0.417443
vt 0.587905 0.419984
vt 0.587905 0.418764
vt 0.586494 0.41411
vt 0.595499 0.422408
vt 0.594962 0.423495
vt 0.595648 0.423831
vt 0.594397 0.41684
vt 0.595759 0.417568
vt 0.595896 0.416343
vt 0.596438 0.415621
vt 0.596865 0.414077
vt 0.595565 0.414713
vt 0.601848 0.416985
vt 0.600312 0.417443
vt 0.602077 0.418819
vt 0.596865 0.414077
vt 0.596438 0.415621
vt 0.597566 0.415165
vt 0.595759 0.417568
vt 0.594397 0.41684
vt 0.594629 0.418259
vt 0.597519 0.419007
vt 0.596673 0.419957
vt 0.59809 0.420116
vt 0.599257 0.422405
vt 0.597648 0.422867
vt 0.597879 0.42411
vt 0.59635 0.418502
vt 0.595759 0.417568
vt 0.59539 0.419338
vt 0.597879 0.42411
vt 0.597648 0.422867
vt 0.5964 0.422744
vt 0.598675 0.414027
vt 0.597566 0.415165
vt 0.599235 0.415397
vt 0.600653 0.418836
vt 0.600321 0.421131
vt 0.601756 0.421229
vt 0.602077 0.418819
vt 0.600312 0.417443
vt 0.600653 0.418836
vt 0.600321 0.421131
vt 0.599257 0.422405
vt 0.600347 0.423241
vt 0.600312 0.417443
vt 0.601848 0.416985
vt 0.601249 0.415612
vt 0.600146 0.416272
vt 0.586494 0.423951
vt 0.587905 0.419984
vt 0.586494 0.41411
vt 0.586494 0.41411
vt 0.587905 0.415369
vt 0.593436 0.41411
vt 0.595759 0.417568
vt 0.594629 0.418259
vt 0.59539 0.419338
vt 0.600146 0.416272
vt 0.601249 0.415612
vt 0.600162 0.414538
vt 0.599235 0.415397
s off
f 1/1/1 2/2/2 3/3/3
f 4/4/4 5/5/5 6/6/6
f 7/7/7 8/8/8 9/9/9
f 10/10/10 11/11/11 12/12/12
f 13/13/13 14/14/14 15/15/15
f 16/16/16 17/17/17 18/18/18
f 19/19/19 20/20/20 21/21/21
f 22/22/22 23/23/23 24/24/24
f 25/25/25 26/26/26 27/27/27
f 28/28/28 29/29/29 30/30/30
f 31/31/31 32/32/32 33/33/33
f 34/34/34 35/35/35 36/36/36
f 37/37/37 38/38/38 39/39/39
f 40/40/40 41/41/41 42/42/42
f 43/43/43 44/44/44 45/45/45
f 46/46/46 47/47/47 48/48/48
f 49/49/49 50/50/50 51/51/51
f 52/52/52 53/53/53 54/54/54
f 55/55/55 56/56/56 57/57/57
f 58/58/58 59/59/59 60/60/60
f 61/61/61 62/62/62 63/63/63
f 64/64/64 65/65/65 66/66/66
f 67/67/67 68/68/68 69/69/69
f 70/70/70 71/71/71 72/72/72
f 73/73/73 74/74/74 75/75/75
f 76/76/76 77/77/77 78/78/78
f 79/79/79 80/80/80 81/81/81
f 82/82/82 83/83/83 84/84/84
f 85/85/85 86/86/86 87/87/87
f 88/88/88 89/89/89 90/90/90
f 91/91/91 92/92/92 93/93/93
f 94/94/94 95/95/95 96/96/96
f 97/97/97 98/98/98 99/99/99
f 100/100/100 101/101/101 102/102/102
f 103/103/103 104/104/104 105/105/105
f 106/106/106 107/107/107 108/108/108
f 109/109/109 110/110/110 111/111/111
f 112/112/112 113/113/113 114/114/114
f 112/112/112 114/114/114 115/115/115
f 116/116/116 117/117/117 118/118/118
f 119/119/119 120/120/120 121/121/121
f 122/122/122 123/123/123 124/124/124
f 125/125/125 126/126/126 127/127/127
f 125/125/125 127/127/127 128/128/128
