v -0.379893 0.169066 0.054872
v -0.376378 0.168642 0.054872
v -0.376378 0.168742 0.044873
v -0.376378 0.168772 0.041905
v -0.379893 0.169272 0.030267
v -0.379893 0.169066 0.054872
v -0.379893 0.169066 0.054872
v -0.376378 0.168742 0.044873
v -0.376378 0.168772 0.041905
v -0.364037 0.167619 0.041905
v -0.376378 0.168772 0.041905
v -0.376378 0.168742 0.044873
v -0.364037 0.167589 0.044873
v -0.379893 0.169272 0.030267
v -0.376378 0.168772 0.041905
v -0.376378 0.168859 0.033313
v -0.362552 0.167666 0.033313
v -0.379893 0.169272 0.030267
v -0.376378 0.168859 0.033313
v -0.362552 0.167666 0.033313
v -0.362552 0.16771 0.030267
v -0.379893 0.169272 0.030267
vn 0.1197 0.9928 0.0099
vn 0.1197 0.9928 0.0099
vn 0.1197 0.9928 0.0099
vn 0.1138 0.9935 0.0083
vn 0.1138 0.9935 0.0083
vn 0.1138 0.9935 0.0083
vn 0.1203 0.9927 0.0101
vn 0.1203 0.9927 0.0101
vn 0.1203 0.9927 0.0101
vn 0.093 0.9956 0.0101
vn 0.093 0.9956 0.0101
vn 0.093 0.9956 0.0101
vn 0.093 0.9956 0.0101
vn 0.1079 0.9941 0.0101
vn 0.1079 0.9941 0.0101
vn 0.1079 0.9941 0.0101
vn 0.0859 0.9957 0.0357
vn 0.0859 0.9957 0.0357
vn 0.0859 0.9957 0.0357
vn 0.0897 0.9959 0.0143
vn 0.0897 0.9959 0.0143
vn 0.0897 0.9959 0.0143
vt 0.316696 0.602889
vt 0.318412 0.602889
vt 0.318412 0.598006
vt 0.318412 0.596557
vt 0.316696 0.590873
vt 0.316696 0.602889
vt 0.316696 0.602889
vt 0.318412 0.598006
vt 0.318412 0.596557
vt 0.324439 0.596557
vt 0.318412 0.596557
vt 0.318412 0.598006
vt 0.324439 0.598006
vt 0.316696 0.590873
vt 0.318412 0.596557
vt 0.318412 0.592361
vt 0.325164 0.592361
vt 0.316696 0.590873
vt 0.318412 0.592361
vt 0.325164 0.592361
vt 0.325164 0.590873
vt 0.316696 0.590873
s off
f 1/1/1 2/2/2 3/3/3
f 4/4/4 5/5/5 6/6/6
f 7/7/7 8/8/8 9/9/9
f 10/10/10 11/11/11 12/12/12
f 10/10/10 12/12/12 13/13/13
f 14/14/14 15/15/15 16/16/16
f 17/17/17 18/18/18 19/19/19
f 20/20/20 21/21/21 22/22/22
