v 0.430661 0.165516 0.315449
v 0.44066 0.165452 0.317948
v 0.44066 0.165049 0.315449
v 0.427849 0.164316 0.306075
v 0.430661 0.165516 0.315449
v 0.430661 0.164479 0.308575
v 0.44066 0.165452 0.317948
v 0.430661 0.165516 0.315449
v 0.430661 0.165919 0.317948
v 0.445815 0.166564 0.325916
v 0.448705 0.164248 0.311153
v 0.445815 0.163478 0.306075
v 0.427849 0.164316 0.306075
v 0.430661 0.165919 0.317948
v 0.430661 0.165516 0.315449
v 0.430661 0.165919 0.317948
v 0.427849 0.167451 0.325916
v 0.430661 0.167205 0.325916
v 0.460109 0.164053 0.306075
v 0.460109 0.166271 0.320917
v 0.462921 0.164119 0.306075
v 0.427849 0.164316 0.306075
v 0.430661 0.164479 0.308575
v 0.441831 0.163958 0.308575
v 0.441831 0.163584 0.306075
v 0.448158 0.163522 0.306075
v 0.445815 0.163478 0.306075
v 0.448705 0.164248 0.311153
v 0.460109 0.166271 0.320917
v 0.448705 0.164248 0.311153
v 0.460578 0.1671 0.325916
v 0.448705 0.166597 0.325916
v 0.448705 0.164248 0.311153
v 0.445815 0.166564 0.325916
v 0.448705 0.164248 0.311153
v 0.460109 0.166271 0.320917
v 0.448158 0.163522 0.306075
v 0.462921 0.167209 0.325916
v 0.462921 0.164119 0.306075
v 0.460109 0.166271 0.320917
v 0.430661 0.165919 0.317948
v 0.427849 0.164316 0.306075
v 0.427849 0.167451 0.325916
v 0.460578 0.1671 0.325916
v 0.462921 0.167209 0.325916
v 0.460109 0.166271 0.320917
vn 0.0461 0.9862 -0.1591
vn 0.0461 0.9862 -0.1591
vn 0.0461 0.9862 -0.1591
vn 0.075 0.986 -0.1488
vn 0.075 0.986 -0.1488
vn 0.075 0.986 -0.1488
vn 0.0461 0.9862 -0.1591
vn 0.0461 0.9862 -0.1591
vn 0.0461 0.9862 -0.1591
vn 0.0067 0.9881 -0.1537
vn 0.0067 0.9881 -0.1537
vn 0.0067 0.9881 -0.1537
vn 0.1088 0.9814 -0.1583
vn 0.1088 0.9814 -0.1583
vn 0.1088 0.9814 -0.1583
vn 0.0862 0.9836 -0.1587
vn 0.0862 0.9836 -0.1587
vn 0.0862 0.9836 -0.1587
vn -0.023 0.9888 -0.1478
vn -0.023 0.9888 -0.1478
vn -0.023 0.9888 -0.1478
vn 0.0493 0.9897 -0.1341
vn 0.0493 0.9897 -0.1341
vn 0.0493 0.9897 -0.1341
vn 0.0493 0.9897 -0.1341
vn -0.0186 0.99 -0.1396
vn -0.0186 0.99 -0.1396
vn -0.0186 0.99 -0.1396
vn -0.038 0.9864 -0.1599
vn -0.038 0.9864 -0.1599
vn -0.038 0.9864 -0.1599
vn -0.0113 0.9875 -0.1571
vn -0.0113 0.9875 -0.1571
vn -0.0113 0.9875 -0.1571
vn -0.0598 0.989 -0.135
vn -0.0598 0.989 -0.135
vn -0.0598 0.989 -0.135
vn -0.0559 0.9865 -0.1537
vn -0.0559 0.9865 -0.1537
vn -0.0559 0.9865 -0.1537
vn 0.0954 0.9832 -0.1554
vn 0.0954 0.9832 -0.1554
vn 0.0954 0.9832 -0.1554
vn -0.0461 0.9862 -0.1591
vn -0.0461 0.9862 -0.1591
vn -0.0461 0.9862 -0.1591
vt 0.712524 0.73014
vt 0.717407 0.731361
vt 0.717407 0.73014
vt 0.711151 0.725563
vt 0.712524 0.73014
vt 0.712524 0.726783
vt 0.717407 0.731361
vt 0.712524 0.73014
vt 0.712524 0.731361
vt 0.719925 0.735251
vt 0.721336 0.728042
vt 0.719925 0.725563
vt 0.711151 0.725563
vt 0.712524 0.731361
vt 0.712524 0.73014
vt 0.712524 0.731361
vt 0.711151 0.735251
vt 0.712524 0.735251
vt 0.726905 0.725563
vt 0.726905 0.73281
vt 0.728278 0.725563
vt 0.711151 0.725563
vt 0.712524 0.726783
vt 0.717979 0.726783
vt 0.717979 0.725563
vt 0.721069 0.725563
vt 0.719925 0.725563
vt 0.721336 0.728042
vt 0.726905 0.73281
vt 0.721336 0.728042
vt 0.727134 0.735251
vt 0.721336 0.735251
vt 0.721336 0.728042
vt 0.719925 0.735251
vt 0.721336 0.728042
vt 0.726905 0.73281
vt 0.721069 0.725563
vt 0.728278 0.735251
vt 0.728278 0.725563
vt 0.726905 0.73281
vt 0.712524 0.731361
vt 0.711151 0.725563
vt 0.711151 0.735251
vt 0.727134 0.735251
vt 0.728278 0.735251
vt 0.726905 0.73281
s off
f 1/1/1 2/2/2 3/3/3
f 4/4/4 5/5/5 6/6/6
f 7/7/7 8/8/8 9/9/9
f 10/10/10 11/11/11 12/12/12
f 13/13/13 14/14/14 15/15/15
f 16/16/16 17/17/17 18/18/18
f 19/19/19 20/20/20 21/21/21
f 22/22/22 23/23/23 24/24/24
f 22/22/22 24/24/24 25/25/25
f 26/26/26 27/27/27 28/28/28
f 29/29/29 30/30/30 31/31/31
f 32/32/32 33/33/33 34/34/34
f 35/35/35 36/36/36 37/37/37
f 38/38/38 39/39/39 40/40/40
f 41/41/41 42/42/42 43/43/43
f 44/44/44 45/45/45 46/46/46
