v -0.247673 0.168732 0.034725
v -0.243911 0.168351 0.033194
v -0.245479 0.168552 0.030305
v -0.243911 0.168351 0.033194
v -0.240247 0.167964 0.033154
v -0.240301 0.168012 0.03008
v -0.243911 0.168351 0.033194
v -0.240301 0.168012 0.03008
v -0.245479 0.168552 0.030305
v -0.240301 0.168012 0.03008
v -0.240247 0.167964 0.033154
v -0.235886 0.16772 0.031183
v -0.237042 0.167722 0.034124
v -0.232457 0.167587 0.033739
v -0.235886 0.16772 0.031183
v -0.235886 0.16772 0.031183
v -0.240247 0.167964 0.033154
v -0.237042 0.167722 0.034124
v -0.232457 0.167587 0.033739
v -0.237042 0.167722 0.034124
v -0.234678 0.16763 0.035959
v -0.245479 0.168552 0.030305
v -0.250073 0.169009 0.032423
v -0.247673 0.168732 0.034725
v -0.250191 0.168972 0.037353
v -0.250073 0.169009 0.032423
v -0.253211 0.169307 0.035712
v -0.247673 0.168732 0.034725
v -0.250073 0.169009 0.032423
v -0.250191 0.168972 0.037353
v -0.251576 0.16907 0.042068
v -0.250191 0.168972 0.037353
v -0.255023 0.169535 0.040338
v -0.253211 0.169307 0.035712
v -0.255023 0.169535 0.040338
v -0.250191 0.168972 0.037353
v -0.251576 0.16907 0.042068
v -0.255023 0.169535 0.040338
v -0.254898 0.169475 0.045764
v -0.250499 0.168905 0.04725
v -0.254898 0.169475 0.045764
v -0.252898 0.169176 0.049948
v -0.251576 0.16907 0.042068
v -0.254898 0.169475 0.045764
v -0.250499 0.168905 0.04725
v -0.249861 0.16879 0.05298
v -0.247595 0.168565 0.050414
v -0.250499 0.168905 0.04725
v -0.250499 0.168905 0.04725
v -0.252898 0.169176 0.049948
v -0.249861 0.16879 0.05298
v -0.244884 0.168231 0.055027
v -0.247595 0.168565 0.050414
v -0.249861 0.16879 0.05298
v -0.244884 0.168231 0.055027
v -0.23825 0.167551 0.054898
v -0.238828 0.167624 0.051823
v -0.243984 0.168168 0.051904
v -0.247595 0.168565 0.050414
v -0.244884 0.168231 0.055027
v -0.243984 0.168168 0.051904
v -0.236013 0.167519 0.050427
v -0.238828 0.167624 0.051823
v -0.23825 0.167551 0.054898
v -0.232667 0.167389 0.052208
v -0.236013 0.1676 0.042452
v -0.236013 0.167519 0.050427
v -0.232654 0.167497 0.042452
v -0.232667 0.167389 0.052208
v -0.232654 0.167497 0.042452
v -0.236013 0.167519 0.050427
vn 0.1058 0.9943 0.012
vn 0.1058 0.9943 0.012
vn 0.1058 0.9943 0.012
vn 0.1051 0.9944 0.0136
vn 0.1051 0.9944 0.0136
vn 0.1051 0.9944 0.0136
vn 0.1044 0.9945 0.0128
vn 0.1044 0.9945 0.0128
vn 0.1044 0.9945 0.0128
vn 0.0624 0.9979 0.0144
vn 0.0624 0.9979 0.0144
vn 0.0624 0.9979 0.0144
vn 0.0304 0.9995 0.011
vn 0.0304 0.9995 0.011
vn 0.0304 0.9995 0.011
vn 0.0675 0.9974 0.0256
vn 0.0675 0.9974 0.0256
vn 0.0675 0.9974 0.0256
vn 0.0304 0.9995 0.0111
vn 0.0304 0.9995 0.0111
vn 0.0304 0.9995 0.0111
vn 0.1041 0.9945 0.0111
vn 0.1041 0.9945 0.0111
vn 0.1041 0.9945 0.0111
vn 0.105 0.9944 0.0101
vn 0.105 0.9944 0.0101
vn 0.105 0.9944 0.0101
vn 0.105 0.9944 0.0101
vn 0.105 0.9944 0.0101
vn 0.105 0.9944 0.0101
vn 0.1256 0.992 0.0162
vn 0.1256 0.992 0.0162
vn 0.1256 0.992 0.0162
vn 0.1129 0.9936 -0.0046
vn 0.1129 0.9936 -0.0046
vn 0.1129 0.9936 -0.0046
vn 0.1297 0.9915 0.0079
vn 0.1297 0.9915 0.0079
vn 0.1297 0.9915 0.0079
vn 0.1249 0.9921 0.0111
vn 0.1249 0.9921 0.0111
vn 0.1249 0.9921 0.0111
vn 0.1268 0.9919 0.0053
vn 0.1268 0.9919 0.0053
vn 0.1268 0.9919 0.0053
vn 0.1079 0.9941 0.0078
vn 0.1079 0.9941 0.0078
vn 0.1079 0.9941 0.0078
vn 0.1197 0.9928 0.0065
vn 0.1197 0.9928 0.0065
vn 0.1197 0.9928 0.0065
vn 0.1083 0.9941 0.0082
vn 0.1083 0.9941 0.0082
vn 0.1083 0.9941 0.0082
vn 0.1034 0.9946 0.007
vn 0.1034 0.9946 0.007
vn 0.1034 0.9946 0.007
vn 0.1034 0.9946 0.007
vn 0.105 0.9944 0.0101
vn 0.105 0.9944 0.0101
vn 0.105 0.9944 0.0101
vn 0.0374 0.9992 0.0117
vn 0.0374 0.9992 0.0117
vn 0.0374 0.9992 0.0117
vn 0.0374 0.9992 0.0117
vn 0.0309 0.9995 0.0101
vn 0.0309 0.9995 0.0101
vn 0.0309 0.9995 0.0101
vn 0.0331 0.9994 0.0111
vn 0.0331 0.9994 0.0111
vn 0.0331 0.9994 0.0111
vt 0.381265 0.59305
vt 0.383102 0.592303
vt 0.382336 0.590892
vt 0.383102 0.592303
vt 0.384891 0.592283
vt 0.384865 0.590782
vt 0.383102 0.592303
vt 0.384865 0.590782
vt 0.382336 0.590892
vt 0.384865 0.590782
vt 0.384891 0.592283
vt 0.387021 0.591321
vt 0.386456 0.592757
vt 0.388695 0.592569
vt 0.387021 0.591321
vt 0.387021 0.591321
vt 0.384891 0.592283
vt 0.386456 0.592757
vt 0.388695 0.592569
vt 0.386456 0.592757
vt 0.387611 0.593653
vt 0.382336 0.590892
vt 0.380093 0.591926
vt 0.381265 0.59305
vt 0.380035 0.594334
vt 0.380093 0.591926
vt 0.37856 0.593532
vt 0.381265 0.59305
vt 0.380093 0.591926
vt 0.380035 0.594334
vt 0.379358 0.596637
vt 0.380035 0.594334
vt 0.377675 0.595791
vt 0.37856 0.593532
vt 0.377675 0.595791
vt 0.380035 0.594334
vt 0.379358 0.596637
vt 0.377675 0.595791
vt 0.377736 0.598441
vt 0.379884 0.599167
vt 0.377736 0.598441
vt 0.378713 0.600485
vt 0.379358 0.596637
vt 0.377736 0.598441
vt 0.379884 0.599167
vt 0.380196 0.601965
vt 0.381303 0.600712
vt 0.379884 0.599167
vt 0.379884 0.599167
vt 0.378713 0.600485
vt 0.380196 0.601965
vt 0.382626 0.602965
vt 0.381303 0.600712
vt 0.380196 0.601965
vt 0.382626 0.602965
vt 0.385866 0.602902
vt 0.385584 0.6014
vt 0.383066 0.60144
vt 0.381303 0.600712
vt 0.382626 0.602965
vt 0.383066 0.60144
vt 0.386959 0.600718
vt 0.385584 0.6014
vt 0.385866 0.602902
vt 0.388593 0.601588
vt 0.386959 0.596824
vt 0.386959 0.600718
vt 0.388599 0.596824
vt 0.388593 0.601588
vt 0.388599 0.596824
vt 0.386959 0.600718
s off
f 1/1/1 2/2/2 3/3/3
f 4/4/4 5/5/5 6/6/6
f 7/7/7 8/8/8 9/9/9
f 10/10/10 11/11/11 12/12/12
f 13/13/13 14/14/14 15/15/15
f 16/16/16 17/17/17 18/18/18
f 19/19/19 20/20/20 21/21/21
f 22/22/22 23/23/23 24/24/24
f 25/25/25 26/26/26 27/27/27
f 28/28/28 29/29/29 30/30/30
f 31/31/31 32/32/32 33/33/33
f 34/34/34 35/35/35 36/36/36
f 37/37/37 38/38/38 39/39/39
f 40/40/40 41/41/41 42/42/42
f 43/43/43 44/44/44 45/45/45
f 46/46/46 47/47/47 48/48/48
f 49/49/49 50/50/50 51/51/51
f 52/52/52 53/53/53 54/54/54
f 55/55/55 56/56/56 57/57/57
f 55/55/55 57/57/57 58/58/58
f 59/59/59 60/60/60 61/61/61
f 62/62/62 63/63/63 64/64/64
f 62/62/62 64/64/64 65/65/65
f 66/66/66 67/67/67 68/68/68
f 69/69/69 70/70/70 71/71/71
