v -0.124081 0.169098 0.040812
v -0.124081 0.169074 0.043858
v -0.109943 0.167671 0.040812
v -0.127596 0.16962 0.030267
v -0.124081 0.169098 0.040812
v -0.124081 0.169216 0.030267
v -0.127596 0.16962 0.030267
v -0.124081 0.169074 0.043858
v -0.124081 0.169098 0.040812
v -0.124081 0.169074 0.043858
v -0.127596 0.16962 0.030267
v -0.127596 0.169481 0.054872
v -0.124081 0.169002 0.054872
v -0.124081 0.169074 0.043858
v -0.127596 0.169481 0.054872
v -0.109943 0.16764 0.043858
v -0.109943 0.167671 0.040812
v -0.124081 0.169074 0.043858
v -0.109943 0.16764 0.043858
v -0.109943 0.167528 0.054872
v -0.106428 0.167408 0.054872
v -0.106428 0.167408 0.054872
v -0.109943 0.167671 0.040812
v -0.109943 0.16764 0.043858
v -0.109943 0.167671 0.040812
v -0.106428 0.167408 0.054872
v -0.106428 0.167684 0.030267
v -0.109943 0.167792 0.030267
v -0.109943 0.167671 0.040812
v -0.106428 0.167684 0.030267
vn 0.1004 0.9949 0.0078
vn 0.1004 0.9949 0.0078
vn 0.1004 0.9949 0.0078
vn 0.1143 0.9934 0.0111
vn 0.1143 0.9934 0.0111
vn 0.1143 0.9934 0.0111
vn 0.1238 0.9923 0.0078
vn 0.1238 0.9923 0.0078
vn 0.1238 0.9923 0.0078
vn 0.1322 0.9912 0.0056
vn 0.1322 0.9912 0.0056
vn 0.1322 0.9912 0.0056
vn 0.1348 0.9909 0.0065
vn 0.1348 0.9909 0.0065
vn 0.1348 0.9909 0.0065
vn 0.1009 0.9948 0.0101
vn 0.1009 0.9948 0.0101
vn 0.1009 0.9948 0.0101
vn 0.0342 0.9994 0.0101
vn 0.0342 0.9994 0.0101
vn 0.0342 0.9994 0.0101
vn 0.0341 0.9994 0.0101
vn 0.0341 0.9994 0.0101
vn 0.0341 0.9994 0.0101
vn 0.0298 0.9995 0.0112
vn 0.0298 0.9995 0.0112
vn 0.0298 0.9995 0.0112
vn 0.0306 0.9995 0.0115
vn 0.0306 0.9995 0.0115
vn 0.0306 0.9995 0.0115
vt 0.44162 0.596023
vt 0.44162 0.59751
vt 0.448524 0.596023
vt 0.439904 0.590873
vt 0.44162 0.596023
vt 0.44162 0.590873
vt 0.439904 0.590873
vt 0.44162 0.59751
vt 0.44162 0.596023
vt 0.44162 0.59751
vt 0.439904 0.590873
vt 0.439904 0.602889
vt 0.44162 0.602889
vt 0.44162 0.59751
vt 0.439904 0.602889
vt 0.448524 0.59751
vt 0.448524 0.596023
vt 0.44162 0.59751
vt 0.448524 0.59751
vt 0.448524 0.602889
vt 0.450241 0.602889
vt 0.450241 0.602889
vt 0.448524 0.596023
vt 0.448524 0.59751
vt 0.448524 0.596023
vt 0.450241 0.602889
vt 0.450241 0.590873
vt 0.448524 0.590873
vt 0.448524 0.596023
vt 0.450241 0.590873
s off
f 1/1/1 2/2/2 3/3/3
f 4/4/4 5/5/5 6/6/6
f 7/7/7 8/8/8 9/9/9
f 10/10/10 11/11/11 12/12/12
f 13/13/13 14/14/14 15/15/15
f 16/16/16 17/17/17 18/18/18
f 19/19/19 20/20/20 21/21/21
f 22/22/22 23/23/23 24/24/24
f 25/25/25 26/26/26 27/27/27
f 28/28/28 29/29/29 30/30/30
