v 0.941162 0.198552 -0.193286
v 0.94419 0.198392 -0.192133
v 0.943157 0.198515 -0.194042
v 0.966188 0.198201 -0.190396
v 0.967125 0.198233 -0.190396
v 0.966657 0.198335 -0.192896
v 0.966657 0.198335 -0.192896
v 0.961033 0.198436 -0.198988
v 0.966188 0.198201 -0.190396
v 0.955619 0.19832 -0.19815
v 0.952693 0.198462 -0.19941
v 0.953991 0.198288 -0.196504
v 0.953297 0.198131 -0.192773
v 0.954856 0.198028 -0.191531
v 0.95601 0.198157 -0.194938
v 0.925571 0.200064 -0.188678
v 0.927602 0.199824 -0.188678
v 0.927602 0.20008 -0.195005
v 0.966657 0.198335 -0.192896
v 0.972281 0.198775 -0.198988
v 0.972515 0.198961 -0.202894
v 0.935725 0.199153 -0.195005
v 0.935725 0.199232 -0.196723
v 0.927602 0.20008 -0.195005
v 0.937756 0.199321 -0.202894
v 0.935725 0.199232 -0.196723
v 0.935725 0.199153 -0.195005
v 0.927602 0.20015 -0.196723
v 0.927602 0.20008 -0.195005
v 0.935725 0.199232 -0.196723
v 0.935725 0.199516 -0.202894
v 0.935725 0.199232 -0.196723
v 0.937756 0.199321 -0.202894
v 0.972281 0.198301 -0.188678
v 0.974234 0.199087 -0.202894
v 0.972281 0.198775 -0.198988
v 0.95908 0.197883 -0.188678
v 0.961033 0.197948 -0.188678
v 0.961033 0.198436 -0.198988
v 0.978452 0.198931 -0.188678
v 0.980482 0.19925 -0.190396
v 0.980482 0.199462 -0.195005
v 0.978452 0.199585 -0.202894
v 0.980482 0.199541 -0.196723
v 0.980482 0.199742 -0.201097
v 0.948814 0.19815 -0.190222
v 0.950517 0.198017 -0.188554
v 0.950985 0.198102 -0.190743
v 0.942974 0.198627 -0.196354
v 0.940915 0.198752 -0.197123
v 0.941162 0.198552 -0.193286
v 0.944839 0.198729 -0.199923
v 0.942542 0.19884 -0.200666
v 0.943597 0.198702 -0.198441
v 0.980482 0.199462 -0.195005
v 0.987669 0.200264 -0.196723
v 0.980482 0.199541 -0.196723
v 0.935725 0.198863 -0.188678
v 0.937756 0.198667 -0.188678
v 0.935725 0.199153 -0.195005
v 0.947263 0.198704 -0.201147
v 0.949816 0.198711 -0.202978
v 0.946232 0.198818 -0.202869
v 0.935725 0.199153 -0.195005
v 0.937756 0.198667 -0.188678
v 0.937756 0.199321 -0.202894
v 0.94419 0.198392 -0.192133
v 0.94289 0.198362 -0.190537
v 0.944901 0.198229 -0.189109
v 0.927602 0.200401 -0.202894
v 0.925571 0.200641 -0.202894
v 0.927602 0.20015 -0.196723
v 0.946239 0.198252 -0.190576
v 0.947408 0.198112 -0.188371
v 0.948814 0.19815 -0.190222
v 0.953991 0.198288 -0.196504
v 0.95601 0.198157 -0.194938
v 0.955619 0.19832 -0.19815
v 0.954856 0.198028 -0.191531
v 0.953297 0.198131 -0.192773
v 0.952892 0.197994 -0.189646
v 0.980482 0.19925 -0.190396
v 0.978452 0.198931 -0.188678
v 0.98884 0.20005 -0.188678
v 0.943597 0.198702 -0.198441
v 0.942542 0.19884 -0.200666
v 0.940915 0.198752 -0.197123
v 0.950455 0.198594 -0.20089
v 0.952118 0.19861 -0.202198
v 0.949816 0.198711 -0.202978
v 0.943157 0.198515 -0.194042
v 0.942974 0.198627 -0.196354
v 0.941162 0.198552 -0.193286
v 0.972281 0.198301 -0.188678
v 0.974234 0.198433 -0.188678
v 0.974234 0.199087 -0.202894
v 0.949816 0.198711 -0.202978
v 0.947263 0.198704 -0.201147
v 0.950455 0.198594 -0.20089
v 0.942974 0.198627 -0.196354
v 0.943597 0.198702 -0.198441
v 0.940915 0.198752 -0.197123
v 0.980482 0.199462 -0.195005
v 0.978452 0.199585 -0.202894
v 0.978452 0.198931 -0.188678
v 0.925571 0.200641 -0.202894
v 0.927602 0.20008 -0.195005
v 0.927602 0.20015 -0.196723
v 0.952693 0.198462 -0.19941
v 0.954135 0.198482 -0.200701
v 0.952118 0.19861 -0.202198
v 0.952892 0.197994 -0.189646
v 0.953297 0.198131 -0.192773
v 0.950985 0.198102 -0.190743
v 0.950455 0.198594 -0.20089
v 0.952693 0.198462 -0.19941
v 0.952118 0.19861 -0.202198
v 0.944901 0.198229 -0.189109
v 0.947408 0.198112 -0.188371
v 0.946239 0.198252 -0.190576
v 0.98884 0.20005 -0.188678
v 0.98884 0.20012 -0.190396
v 0.980482 0.19925 -0.190396
v 0.946239 0.198252 -0.190576
v 0.94419 0.198392 -0.192133
v 0.944901 0.198229 -0.189109
v 0.95601 0.198157 -0.194938
v 0.953991 0.198288 -0.196504
v 0.953297 0.198131 -0.192773
v 0.95908 0.198555 -0.202894
v 0.95908 0.197883 -0.188678
v 0.961033 0.198436 -0.198988
v 0.96072 0.19861 -0.202894
v 0.955619 0.19832 -0.19815
v 0.954135 0.198482 -0.200701
v 0.952693 0.198462 -0.19941
v 0.966657 0.198335 -0.192896
v 0.967125 0.198233 -0.190396
v 0.972281 0.198775 -0.198988
v 0.941162 0.198552 -0.193286
v 0.94289 0.198362 -0.190537
v 0.94419 0.198392 -0.192133
v 0.944839 0.198729 -0.199923
v 0.946232 0.198818 -0.202869
v 0.942542 0.19884 -0.200666
v 0.978452 0.199585 -0.202894
v 0.980482 0.199462 -0.195005
v 0.980482 0.199541 -0.196723
v 0.966657 0.198335 -0.192896
v 0.96072 0.19861 -0.202894
v 0.961033 0.198436 -0.198988
v 0.947408 0.198112 -0.188371
v 0.950517 0.198017 -0.188554
v 0.948814 0.19815 -0.190222
v 0.988528 0.200597 -0.202894
v 0.978452 0.199585 -0.202894
v 0.980482 0.199742 -0.201097
v 0.988528 0.200524 -0.201097
v 0.974234 0.199087 -0.202894
v 0.972515 0.198961 -0.202894
v 0.972281 0.198775 -0.198988
v 0.927602 0.20008 -0.195005
v 0.925571 0.200641 -0.202894
v 0.925571 0.200064 -0.188678
v 0.987669 0.200264 -0.196723
v 0.980482 0.199462 -0.195005
v 0.987669 0.200194 -0.195005
v 0.946232 0.198818 -0.202869
v 0.944839 0.198729 -0.199923
v 0.947263 0.198704 -0.201147
v 0.950517 0.198017 -0.188554
v 0.952892 0.197994 -0.189646
v 0.950985 0.198102 -0.190743
vn 0.0356 0.9984 0.0447
vn 0.0356 0.9984 0.0447
vn 0.0356 0.9984 0.0447
vn -0.0333 0.9983 0.0472
vn -0.0333 0.9983 0.0472
vn -0.0333 0.9983 0.0472
vn -0.0333 0.9983 0.0472
vn -0.0333 0.9983 0.0472
vn -0.0333 0.9983 0.0472
vn 0.0281 0.9985 0.0472
vn 0.0281 0.9985 0.0472
vn 0.0281 0.9985 0.0472
vn 0.0281 0.9985 0.0472
vn 0.0281 0.9985 0.0472
vn 0.0281 0.9985 0.0472
vn 0.1173 0.9923 0.0403
vn 0.1173 0.9923 0.0403
vn 0.1173 0.9923 0.0403
vn -0.0283 0.9985 0.0459
vn -0.0283 0.9985 0.0459
vn -0.0283 0.9985 0.0459
vn 0.1133 0.9925 0.0457
vn 0.1133 0.9925 0.0457
vn 0.1133 0.9925 0.0457
vn 0.0955 0.9944 0.0458
vn 0.0955 0.9944 0.0458
vn 0.0955 0.9944 0.0458
vn 0.1122 0.9929 0.0403
vn 0.1122 0.9929 0.0403
vn 0.1122 0.9929 0.0403
vn 0.0954 0.9944 0.0458
vn 0.0954 0.9944 0.0458
vn 0.0954 0.9944 0.0458
vn -0.0678 0.9966 0.0458
vn -0.0678 0.9966 0.0458
vn -0.0678 0.9966 0.0458
vn -0.0333 0.9983 0.0472
vn -0.0333 0.9983 0.0472
vn -0.0333 0.9983 0.0472
vn -0.1171 0.9921 0.0457
vn -0.1171 0.9921 0.0457
vn -0.1171 0.9921 0.0457
vn -0.1172 0.9921 0.0457
vn -0.1172 0.9921 0.0457
vn -0.1172 0.9921 0.0457
vn 0.0333 0.9984 0.0459
vn 0.0333 0.9984 0.0459
vn 0.0333 0.9984 0.0459
vn 0.0423 0.9979 0.0494
vn 0.0423 0.9979 0.0494
vn 0.0423 0.9979 0.0494
vn 0.0333 0.9984 0.0459
vn 0.0333 0.9984 0.0459
vn 0.0333 0.9984 0.0459
vn -0.1 0.9939 0.0457
vn -0.1 0.9939 0.0457
vn -0.1 0.9939 0.0457
vn 0.0963 0.9943 0.0455
vn 0.0963 0.9943 0.0455
vn 0.0963 0.9943 0.0455
vn 0.0311 0.9984 0.0472
vn 0.0311 0.9984 0.0472
vn 0.0311 0.9984 0.0472
vn 0.0954 0.9944 0.0458
vn 0.0954 0.9944 0.0458
vn 0.0954 0.9944 0.0458
vn 0.0333 0.9984 0.0459
vn 0.0333 0.9984 0.0459
vn 0.0333 0.9984 0.0459
vn 0.1173 0.9923 0.0403
vn 0.1173 0.9923 0.0403
vn 0.1173 0.9923 0.0403
vn 0.0333 0.9984 0.0459
vn 0.0333 0.9984 0.0459
vn 0.0333 0.9984 0.0459
vn 0.0282 0.9985 0.0472
vn 0.0282 0.9985 0.0472
vn 0.0282 0.9985 0.0472
vn 0.0281 0.9985 0.0472
vn 0.0281 0.9985 0.0472
vn 0.0281 0.9985 0.0472
vn -0.1069 0.9926 0.0578
vn -0.1069 0.9926 0.0578
vn -0.1069 0.9926 0.0578
vn 0.0397 0.9983 0.0429
vn 0.0397 0.9983 0.0429
vn 0.0397 0.9983 0.0429
vn 0.0281 0.9985 0.0472
vn 0.0281 0.9985 0.0472
vn 0.0281 0.9985 0.0472
vn 0.0359 0.9983 0.0457
vn 0.0359 0.9983 0.0457
vn 0.0359 0.9983 0.0457
vn -0.0674 0.9967 0.0459
vn -0.0674 0.9967 0.0459
vn -0.0674 0.9967 0.0459
vn 0.0306 0.9985 0.0464
vn 0.0306 0.9985 0.0464
vn 0.0306 0.9985 0.0464
vn 0.0425 0.9979 0.0487
vn 0.0425 0.9979 0.0487
vn 0.0425 0.9979 0.0487
vn -0.1171 0.9921 0.0457
vn -0.1171 0.9921 0.0457
vn -0.1171 0.9921 0.0457
vn 0.1172 0.9923 0.0403
vn 0.1172 0.9923 0.0403
vn 0.1172 0.9923 0.0403
vn 0.0281 0.9985 0.0472
vn 0.0281 0.9985 0.0472
vn 0.0281 0.9985 0.0472
vn 0.029 0.9985 0.0473
vn 0.029 0.9985 0.0473
vn 0.029 0.9985 0.0473
vn 0.0281 0.9985 0.0472
vn 0.0281 0.9985 0.0472
vn 0.0281 0.9985 0.0472
vn 0.0333 0.9984 0.0459
vn 0.0333 0.9984 0.0459
vn 0.0333 0.9984 0.0459
vn -0.1035 0.9938 0.0403
vn -0.1035 0.9938 0.0403
vn -0.1035 0.9938 0.0403
vn 0.0333 0.9984 0.0459
vn 0.0333 0.9984 0.0459
vn 0.0333 0.9984 0.0459
vn 0.0281 0.9985 0.0472
vn 0.0281 0.9985 0.0472
vn 0.0281 0.9985 0.0472
vn -0.0333 0.9983 0.0472
vn -0.0333 0.9983 0.0472
vn -0.0333 0.9983 0.0472
vn -0.0333 0.9983 0.0472
vn 0.0281 0.9985 0.0472
vn 0.0281 0.9985 0.0472
vn 0.0281 0.9985 0.0472
vn -0.028 0.9985 0.0462
vn -0.028 0.9985 0.0462
vn -0.028 0.9985 0.0462
vn 0.0347 0.9983 0.047
vn 0.0347 0.9983 0.047
vn 0.0347 0.9983 0.047
vn 0.0333 0.9984 0.0459
vn 0.0333 0.9984 0.0459
vn 0.0333 0.9984 0.0459
vn -0.1171 0.9921 0.0457
vn -0.1171 0.9921 0.0457
vn -0.1171 0.9921 0.0457
vn -0.0333 0.9983 0.0472
vn -0.0333 0.9983 0.0472
vn -0.0333 0.9983 0.0472
vn 0.0333 0.9984 0.046
vn 0.0333 0.9984 0.046
vn 0.0333 0.9984 0.046
vn -0.0984 0.9946 0.0323
vn -0.0984 0.9946 0.0323
vn -0.0984 0.9946 0.0323
vn -0.0984 0.9946 0.0323
vn -0.0732 0.9964 0.0431
vn -0.0732 0.9964 0.0431
vn -0.0732 0.9964 0.0431
vn 0.1174 0.9923 0.0403
vn 0.1174 0.9923 0.0403
vn 0.1174 0.9923 0.0403
vn -0.1013 0.994 0.0403
vn -0.1013 0.994 0.0403
vn -0.1013 0.994 0.0403
vn 0.0334 0.9984 0.0459
vn 0.0334 0.9984 0.0459
vn 0.0334 0.9984 0.0459
vn 0.0301 0.9985 0.0453
vn 0.0301 0.9985 0.0453
vn 0.0301 0.9985 0.0453
vt 0.961824 0.481703
vt 0.963303 0.482266
vt 0.962798 0.481334
vt 0.974046 0.483114
vt 0.974503 0.483114
vt 0.974274 0.481893
vt 0.974274 0.481893
vt 0.971528 0.478918
vt 0.974046 0.483114
vt 0.968884 0.479327
vt 0.967455 0.478712
vt 0.968089 0.480131
vt 0.96775 0.481953
vt 0.968511 0.48256
vt 0.969075 0.480896
vt 0.95421 0.483953
vt 0.955202 0.483953
vt 0.955202 0.480864
vt 0.974274 0.481893
vt 0.977021 0.478918
vt 0.977135 0.477011
vt 0.959169 0.480864
vt 0.959169 0.480024
vt 0.955202 0.480864
vt 0.960161 0.477011
vt 0.959169 0.480024
vt 0.959169 0.480864
vt 0.955202 0.480024
vt 0.955202 0.480864
vt 0.959169 0.480024
vt 0.959169 0.477011
vt 0.959169 0.480024
vt 0.960161 0.477011
vt 0.977021 0.483953
vt 0.977974 0.477011
vt 0.977021 0.478918
vt 0.970574 0.483953
vt 0.971528 0.483953
vt 0.971528 0.478918
vt 0.980034 0.483953
vt 0.981026 0.483114
vt 0.981026 0.480864
vt 0.980034 0.477011
vt 0.981026 0.480024
vt 0.981026 0.477888
vt 0.965561 0.483199
vt 0.966393 0.484014
vt 0.966621 0.482945
vt 0.962709 0.480204
vt 0.961703 0.479829
vt 0.961824 0.481703
vt 0.96362 0.478462
vt 0.962498 0.478099
vt 0.963013 0.479186
vt 0.981026 0.480864
vt 0.984535 0.480024
vt 0.981026 0.480024
vt 0.959169 0.483953
vt 0.960161 0.483953
vt 0.959169 0.480864
vt 0.964803 0.477864
vt 0.96605 0.47697
vt 0.9643 0.477023
vt 0.959169 0.480864
vt 0.960161 0.483953
vt 0.960161 0.477011
vt 0.963303 0.482266
vt 0.962668 0.483045
vt 0.96365 0.483743
vt 0.955202 0.477011
vt 0.95421 0.477011
vt 0.955202 0.480024
vt 0.964304 0.483026
vt 0.964874 0.484103
vt 0.965561 0.483199
vt 0.968089 0.480131
vt 0.969075 0.480896
vt 0.968884 0.479327
vt 0.968511 0.48256
vt 0.96775 0.481953
vt 0.967552 0.48348
vt 0.981026 0.483114
vt 0.980034 0.483953
vt 0.985107 0.483953
vt 0.963013 0.479186
vt 0.962498 0.478099
vt 0.961703 0.479829
vt 0.966362 0.477989
vt 0.967174 0.477351
vt 0.96605 0.47697
vt 0.962798 0.481334
vt 0.962709 0.480204
vt 0.961824 0.481703
vt 0.977021 0.483953
vt 0.977974 0.483953
vt 0.977974 0.477011
vt 0.96605 0.47697
vt 0.964803 0.477864
vt 0.966362 0.477989
vt 0.962709 0.480204
vt 0.963013 0.479186
vt 0.961703 0.479829
vt 0.981026 0.480864
vt 0.980034 0.477011
vt 0.980034 0.483953
vt 0.95421 0.477011
vt 0.955202 0.480864
vt 0.955202 0.480024
vt 0.967455 0.478712
vt 0.968159 0.478082
vt 0.967174 0.477351
vt 0.967552 0.48348
vt 0.96775 0.481953
vt 0.966621 0.482945
vt 0.966362 0.477989
vt 0.967455 0.478712
vt 0.967174 0.477351
vt 0.96365 0.483743
vt 0.964874 0.484103
vt 0.964304 0.483026
vt 0.985107 0.483953
vt 0.985107 0.483114
vt 0.981026 0.483114
vt 0.964304 0.483026
vt 0.963303 0.482266
vt 0.96365 0.483743
vt 0.969075 0.480896
vt 0.968089 0.480131
vt 0.96775 0.481953
vt 0.970574 0.477011
vt 0.970574 0.483953
vt 0.971528 0.478918
vt 0.971375 0.477011
vt 0.968884 0.479327
vt 0.968159 0.478082
vt 0.967455 0.478712
vt 0.974274 0.481893
vt 0.974503 0.483114
vt 0.977021 0.478918
vt 0.961824 0.481703
vt 0.962668 0.483045
vt 0.963303 0.482266
vt 0.96362 0.478462
vt 0.9643 0.477023
vt 0.962498 0.478099
vt 0.980034 0.477011
vt 0.981026 0.480864
vt 0.981026 0.480024
vt 0.974274 0.481893
vt 0.971375 0.477011
vt 0.971528 0.478918
vt 0.964874 0.484103
vt 0.966393 0.484014
vt 0.965561 0.483199
vt 0.984955 0.477011
vt 0.980034 0.477011
vt 0.981026 0.477888
vt 0.984955 0.477888
vt 0.977974 0.477011
vt 0.977135 0.477011
vt 0.977021 0.478918
vt 0.955202 0.480864
vt 0.95421 0.477011
vt 0.95421 0.483953
vt 0.984535 0.480024
vt 0.981026 0.480864
vt 0.984535 0.480864
vt 0.9643 0.477023
vt 0.96362 0.478462
vt 0.964803 0.477864
vt 0.966393 0.484014
vt 0.967552 0.48348
vt 0.966621 0.482945
s off
f 1/1/1 2/2/2 3/3/3
f 4/4/4 5/5/5 6/6/6
f 7/7/7 8/8/8 9/9/9
f 10/10/10 11/11/11 12/12/12
f 13/13/13 14/14/14 15/15/15
f 16/16/16 17/17/17 18/18/18
f 19/19/19 20/20/20 21/21/21
f 22/22/22 23/23/23 24/24/24
f 25/25/25 26/26/26 27/27/27
f 28/28/28 29/29/29 30/30/30
f 31/31/31 32/32/32 33/33/33
f 34/34/34 35/35/35 36/36/36
f 37/37/37 38/38/38 39/39/39
f 40/40/40 41/41/41 42/42/42
f 43/43/43 44/44/44 45/45/45
f 46/46/46 47/47/47 48/48/48
f 49/49/49 50/50/50 51/51/51
f 52/52/52 53/53/53 54/54/54
f 55/55/55 56/56/56 57/57/57
f 58/58/58 59/59/59 60/60/60
f 61/61/61 62/62/62 63/63/63
f 64/64/64 65/65/65 66/66/66
f 67/67/67 68/68/68 69/69/69
f 70/70/70 71/71/71 72/72/72
f 73/73/73 74/74/74 75/75/75
f 76/76/76 77/77/77 78/78/78
f 79/79/79 80/80/80 81/81/81
f 82/82/82 83/83/83 84/84/84
f 85/85/85 86/86/86 87/87/87
f 88/88/88 89/89/89 90/90/90
f 91/91/91 92/92/92 93/93/93
f 94/94/94 95/95/95 96/96/96
f 97/97/97 98/98/98 99/99/99
f 100/100/100 101/101/101 102/102/102
f 103/103/103 104/104/104 105/105/105
f 106/106/106 107/107/107 108/108/108
f 109/109/109 110/110/110 111/111/111
f 112/112/112 113/113/113 114/114/114
f 115/115/115 116/116/116 117/117/117
f 118/118/118 119/119/119 120/120/120
f 121/121/121 122/122/122 123/123/123
f 124/124/124 125/125/125 126/126/126
f 127/127/127 128/128/128 129/129/129
f 130/130/130 131/131/131 132/132/132
f 130/130/130 132/132/132 133/133/133
f 134/134/134 135/135/135 136/136/136
f 137/137/137 138/138/138 139/139/139
f 140/140/140 141/141/141 142/142/142
f 143/143/143 144/144/144 145/145/145
f 146/146/146 147/147/147 148/148/148
f 149/149/149 150/150/150 151/151/151
f 152/152/152 153/153/153 154/154/154
f 155/155/155 156/156/156 157/157/157
f 155/155/155 157/157/157 158/158/158
f 159/159/159 160/160/160 161/161/161
f 162/162/162 163/163/163 164/164/164
f 165/165/165 166/166/166 167/167/167
f 168/168/168 169/169/169 170/170/170
f 171/171/171 172/172/172 173/173/173
