v 0.054276 0.1289 0.002925
v 0.082623 0.1289 0.002925
v 0.082635 0.117638 0.002555
v 0.054276 0.117638 0.002555
v 0.054276 0.1289 0.002925
v 0.054276 0.117638 0.002555
v 0.032831 0.117638 0.002555
v 0.032831 0.1289 0.002925
v 0.082623 0.1289 0.002925
v 0.091528 0.12878 0.006571
v 0.091531 0.117518 0.006199
v 0.082635 0.117638 0.002555
v 0.091528 0.12878 0.006571
v 0.095217 0.128491 0.015374
v 0.095217 0.117229 0.014998
v 0.091531 0.117518 0.006199
v 0.095217 0.113957 0.114593
v 0.095217 0.117229 0.014998
v 0.095217 0.128491 0.015374
v 0.095217 0.125219 0.114948
v 0.091547 0.113662 0.12355
v 0.095217 0.113957 0.114593
v 0.095217 0.125219 0.114948
v 0.091544 0.124925 0.123915
v 0.091544 0.124925 0.123915
v 0.095217 0.125219 0.114948
v 0.081495 0.169298 0.105416
v 0.095217 0.128491 0.015374
v 0.081552 0.169392 0.020681
v 0.081495 0.169298 0.105416
v 0.095217 0.125219 0.114948
v 0.078031 0.171413 0.103286
v 0.073592 0.170395 0.10862
v 0.07575 0.168034 0.112174
v 0.081495 0.169298 0.105416
v 0.078031 0.171413 0.103286
v 0.081495 0.169298 0.105416
v 0.081552 0.169392 0.020681
v 0.078023 0.171556 0.022644
v 0.082679 0.124803 0.127629
v 0.091544 0.124925 0.123915
v 0.081495 0.169298 0.105416
v 0.07575 0.168034 0.112174
v 0.073497 0.170741 0.017441
v 0.078023 0.171556 0.022644
v 0.081552 0.169392 0.020681
v 0.075682 0.168353 0.014059
v 0.075682 0.168353 0.014059
v 0.081552 0.169392 0.020681
v 0.091528 0.12878 0.006571
v 0.082623 0.1289 0.002925
v 0.081552 0.169392 0.020681
v 0.095217 0.128491 0.015374
v 0.091528 0.12878 0.006571
v 0.075682 0.168353 0.014059
v 0.054082 0.166169 0.013442
v 0.053218 0.168678 0.016874
v 0.073497 0.170741 0.017441
v 0.075682 0.168353 0.014059
v 0.082623 0.1289 0.002925
v 0.054276 0.1289 0.002925
v 0.054082 0.166169 0.013442
v 0.054082 0.166169 0.013442
v 0.032831 0.165454 0.013241
v 0.032831 0.168 0.016684
v 0.053218 0.168678 0.016874
v 0.054082 0.166169 0.013442
v 0.054276 0.1289 0.002925
v 0.032831 0.1289 0.002925
v 0.032831 0.165454 0.013241
v 0.032831 0.165454 0.013241
v 0.011579 0.166169 0.013442
v 0.012444 0.168678 0.016874
v 0.032831 0.168 0.016684
v 0.032831 0.165454 0.013241
v 0.032831 0.1289 0.002925
v 0.011385 0.1289 0.002925
v 0.011579 0.166169 0.013442
v 0.032831 0.1289 0.002925
v 0.032831 0.117638 0.002555
v 0.011385 0.117638 0.002555
v 0.011385 0.1289 0.002925
v -0.016973 0.117638 0.002555
v -0.016961 0.1289 0.002925
v 0.011385 0.1289 0.002925
v 0.011385 0.117638 0.002555
v 0.011385 0.1289 0.002925
v -0.016961 0.1289 0.002925
v -0.010021 0.168353 0.014059
v 0.011579 0.166169 0.013442
v -0.016973 0.117638 0.002555
v -0.02587 0.117518 0.006199
v -0.025866 0.12878 0.006571
v -0.016961 0.1289 0.002925
v -0.016961 0.1289 0.002925
v -0.025866 0.12878 0.006571
v -0.015891 0.169392 0.020681
v -0.010021 0.168353 0.014059
v -0.012361 0.171556 0.022644
v -0.007835 0.170741 0.017441
v -0.010021 0.168353 0.014059
v -0.015891 0.169392 0.020681
v 0.011579 0.166169 0.013442
v -0.010021 0.168353 0.014059
v -0.007835 0.170741 0.017441
v 0.012444 0.168678 0.016874
v -0.015891 0.169392 0.020681
v -0.015833 0.169298 0.105416
v -0.012369 0.171413 0.103286
v -0.012361 0.171556 0.022644
v -0.015891 0.169392 0.020681
v -0.029555 0.128491 0.015374
v -0.029555 0.125219 0.114948
v -0.015833 0.169298 0.105416
v -0.025866 0.12878 0.006571
v -0.029555 0.128491 0.015374
v -0.015891 0.169392 0.020681
v -0.02587 0.117518 0.006199
v -0.029555 0.117229 0.014998
v -0.029555 0.128491 0.015374
v -0.025866 0.12878 0.006571
v -0.029555 0.113957 0.114593
v -0.029555 0.125219 0.114948
v -0.029555 0.128491 0.015374
v -0.029555 0.117229 0.014998
v -0.029555 0.113957 0.114593
v -0.025886 0.113662 0.12355
v -0.025883 0.124925 0.123915
v -0.029555 0.125219 0.114948
v -0.029555 0.125219 0.114948
v -0.025883 0.124925 0.123915
v -0.010089 0.168034 0.112174
v -0.015833 0.169298 0.105416
v -0.025886 0.113662 0.12355
v -0.017027 0.113541 0.127259
v -0.017017 0.124803 0.127629
v -0.025883 0.124925 0.123915
v 0.011385 0.124803 0.127629
v -0.017017 0.124803 0.127629
v -0.017027 0.113541 0.127259
v 0.011385 0.113541 0.127259
v 0.011385 0.124803 0.127629
v 0.011385 0.113541 0.127259
v 0.032831 0.113541 0.127259
v 0.032831 0.124803 0.127629
v 0.032831 0.124803 0.127629
v 0.032831 0.113541 0.127259
v 0.054276 0.113541 0.127259
v 0.054276 0.124803 0.127629
v 0.082688 0.113541 0.127259
v 0.082679 0.124803 0.127629
v 0.054276 0.124803 0.127629
v 0.054276 0.113541 0.127259
v 0.082688 0.113541 0.127259
v 0.091547 0.113662 0.12355
v 0.091544 0.124925 0.123915
v 0.082679 0.124803 0.127629
v 0.054276 0.124803 0.127629
v 0.082679 0.124803 0.127629
v 0.07575 0.168034 0.112174
v 0.054162 0.165292 0.113155
v 0.032831 0.16439 0.113477
v 0.032831 0.124803 0.127629
v 0.054276 0.124803 0.127629
v 0.054162 0.165292 0.113155
v 0.053295 0.167828 0.109531
v 0.032831 0.166982 0.109836
v 0.032831 0.16439 0.113477
v 0.054162 0.165292 0.113155
v 0.073592 0.170395 0.10862
v 0.053295 0.167828 0.109531
v 0.054162 0.165292 0.113155
v 0.07575 0.168034 0.112174
v 0.032831 0.166982 0.109836
v 0.012367 0.167828 0.109531
v 0.0115 0.165292 0.113155
v 0.032831 0.16439 0.113477
v 0.0115 0.165292 0.113155
v 0.011385 0.124803 0.127629
v 0.032831 0.124803 0.127629
v 0.032831 0.16439 0.113477
v 0.012367 0.167828 0.109531
v -0.007931 0.170395 0.10862
v -0.010089 0.168034 0.112174
v 0.0115 0.165292 0.113155
v -0.010089 0.168034 0.112174
v -0.017017 0.124803 0.127629
v 0.011385 0.124803 0.127629
v 0.0115 0.165292 0.113155
v -0.007931 0.170395 0.10862
v -0.012369 0.171413 0.103286
v -0.015833 0.169298 0.105416
v -0.010089 0.168034 0.112174
v -0.025883 0.124925 0.123915
v -0.017017 0.124803 0.127629
v -0.010089 0.168034 0.112174
v -0.012369 0.171413 0.103286
v -0.007931 0.170395 0.10862
v 0.000772 0.168928 0.095529
v 0.012367 0.167828 0.109531
v 0.016747 0.166999 0.095974
v 0.000772 0.168928 0.095529
v -0.007931 0.170395 0.10862
v 0.000813 0.169347 0.030694
v 0.000772 0.168928 0.095529
v 0.016747 0.166999 0.095974
v 0.016779 0.167662 0.030467
v 0.000813 0.169347 0.030694
v -0.012361 0.171556 0.022644
v -0.012369 0.171413 0.103286
v 0.000772 0.168928 0.095529
v 0.016779 0.167662 0.030467
v 0.012444 0.168678 0.016874
v -0.007835 0.170741 0.017441
v 0.000813 0.169347 0.030694
v -0.012361 0.171556 0.022644
v 0.000813 0.169347 0.030694
v -0.007835 0.170741 0.017441
v 0.016779 0.167662 0.030467
v 0.016747 0.166999 0.095974
v 0.032831 0.166447 0.096095
v 0.032831 0.167175 0.030406
v 0.032831 0.167175 0.030406
v 0.032831 0.168 0.016684
v 0.012444 0.168678 0.016874
v 0.016779 0.167662 0.030467
v 0.032831 0.167175 0.030406
v 0.032831 0.166447 0.096095
v 0.048915 0.166999 0.095974
v 0.048883 0.167662 0.030467
v 0.048883 0.167662 0.030467
v 0.053218 0.168678 0.016874
v 0.032831 0.168 0.016684
v 0.032831 0.167175 0.030406
v 0.032831 0.166982 0.109836
v 0.032831 0.166447 0.096095
v 0.016747 0.166999 0.095974
v 0.012367 0.167828 0.109531
v 0.053295 0.167828 0.109531
v 0.048915 0.166999 0.095974
v 0.032831 0.166447 0.096095
v 0.032831 0.166982 0.109836
v 0.048883 0.167662 0.030467
v 0.048915 0.166999 0.095974
v 0.064889 0.168928 0.09553
v 0.064849 0.169347 0.030694
v 0.073592 0.170395 0.10862
v 0.064889 0.168928 0.09553
v 0.048915 0.166999 0.095974
v 0.053295 0.167828 0.109531
v 0.078023 0.171556 0.022644
v 0.064849 0.169347 0.030694
v 0.064889 0.168928 0.09553
v 0.078031 0.171413 0.103286
v 0.073592 0.170395 0.10862
v 0.078031 0.171413 0.103286
v 0.064889 0.168928 0.09553
v 0.064849 0.169347 0.030694
v 0.073497 0.170741 0.017441
v 0.053218 0.168678 0.016874
v 0.048883 0.167662 0.030467
v 0.064849 0.169347 0.030694
v 0.078023 0.171556 0.022644
v 0.073497 0.170741 0.017441
vn -0 0.0328 -0.9995
vn 0.0975 0.0327 -0.9947
vn 0.0975 0.0329 -0.9947
vn -0 0.0328 -0.9995
vn -0 0.0328 -0.9995
vn -0 0.0328 -0.9995
vn -0 0.0328 -0.9995
vn -0 0.0328 -0.9995
vn 0.0975 0.0327 -0.9947
vn 0.7035 0.0237 -0.7103
vn 0.7034 0.0237 -0.7104
vn 0.0975 0.0329 -0.9947
vn 0.7035 0.0237 -0.7103
vn 0.9993 0.0014 -0.0378
vn 0.9993 0.0012 -0.0378
vn 0.7034 0.0237 -0.7104
vn 0.9993 -0.001 0.0376
vn 0.9993 0.0012 -0.0378
vn 0.9993 0.0014 -0.0378
vn 0.9993 -0.001 0.0376
vn 0.7112 -0.0226 0.7026
vn 0.9993 -0.001 0.0376
vn 0.9993 -0.001 0.0376
vn 0.7111 -0.0226 0.7027
vn 0.6591 0.3807 0.6486
vn 0.9514 0.3078 0.0095
vn 0.9517 0.3071 0.0059
vn 0.9515 0.3077 0.0022
vn 0.9517 0.3071 0.0058
vn 0.9517 0.3071 0.0059
vn 0.9514 0.3078 0.0095
vn -0.1874 0.9822 0.0155
vn -0.1711 0.9852 0.0078
vn 0.077 0.3897 0.9177
vn 0.9517 0.3071 0.0059
vn -0.1874 0.9822 0.0155
vn 0.9517 0.3071 0.0059
vn 0.9517 0.3071 0.0058
vn -0.1693 0.9856 -0.003
vn 0.0873 0.3483 0.9333
vn 0.6591 0.3807 0.6486
vn 0.9517 0.3071 0.0059
vn 0.077 0.3897 0.9177
vn -0.1459 0.9893 0.007
vn -0.1693 0.9856 -0.003
vn 0.9517 0.3071 0.0058
vn 0.0797 0.3335 -0.9394
vn 0.0797 0.3335 -0.9394
vn 0.9517 0.3071 0.0058
vn 0.6703 0.3491 -0.6548
vn 0.0894 0.2857 -0.9541
vn 0.9517 0.3071 0.0058
vn 0.9515 0.3077 0.0022
vn 0.6703 0.3491 -0.6548
vn 0.0797 0.3335 -0.9394
vn -0.0042 0.3284 -0.9445
vn -0.0746 0.9962 0.0446
vn -0.1459 0.9893 0.007
vn 0.0797 0.3335 -0.9394
vn 0.0894 0.2857 -0.9541
vn -0 0.2716 -0.9624
vn -0.0042 0.3284 -0.9445
vn -0.0042 0.3284 -0.9445
vn -0.0005 0.3337 -0.9427
vn -0 0.9983 0.0583
vn -0.0746 0.9962 0.0446
vn -0.0042 0.3284 -0.9445
vn -0 0.2716 -0.9624
vn -0 0.2716 -0.9624
vn -0.0005 0.3337 -0.9427
vn -0.0005 0.3337 -0.9427
vn 0.0042 0.3284 -0.9445
vn 0.0746 0.9962 0.0446
vn -0 0.9983 0.0583
vn -0.0005 0.3337 -0.9427
vn -0 0.2716 -0.9624
vn -0 0.2716 -0.9624
vn 0.0042 0.3284 -0.9445
vn -0 0.0328 -0.9995
vn -0 0.0328 -0.9995
vn -0 0.0328 -0.9995
vn -0 0.0328 -0.9995
vn -0.0975 0.0329 -0.9947
vn -0.0974 0.0329 -0.9947
vn -0 0.0328 -0.9995
vn -0 0.0328 -0.9995
vn -0 0.2716 -0.9624
vn -0.0894 0.2857 -0.9541
vn -0.0797 0.3335 -0.9394
vn 0.0042 0.3284 -0.9445
vn -0.0975 0.0329 -0.9947
vn -0.7044 0.0236 -0.7094
vn -0.7032 0.0237 -0.7106
vn -0.0974 0.0329 -0.9947
vn -0.0894 0.2857 -0.9541
vn -0.6703 0.3491 -0.6548
vn -0.9517 0.3071 0.0059
vn -0.0797 0.3335 -0.9394
vn 0.1693 0.9856 -0.003
vn 0.146 0.9893 0.007
vn -0.0797 0.3335 -0.9394
vn -0.9517 0.3071 0.0059
vn 0.0042 0.3284 -0.9445
vn -0.0797 0.3335 -0.9394
vn 0.146 0.9893 0.007
vn 0.0746 0.9962 0.0446
vn -0.9517 0.3071 0.0059
vn -0.9517 0.3071 0.0058
vn 0.1874 0.9822 0.0156
vn 0.1693 0.9856 -0.003
vn -0.9517 0.3071 0.0059
vn -0.9515 0.3077 0.0022
vn -0.9514 0.3079 0.0095
vn -0.9517 0.3071 0.0058
vn -0.6703 0.3491 -0.6548
vn -0.9515 0.3077 0.0022
vn -0.9517 0.3071 0.0059
vn -0.7044 0.0236 -0.7094
vn -0.9993 0.0014 -0.0378
vn -0.9993 0.0014 -0.0378
vn -0.7032 0.0237 -0.7106
vn -0.9993 -0.0013 0.0376
vn -0.9993 -0.001 0.0376
vn -0.9993 0.0014 -0.0378
vn -0.9993 0.0014 -0.0378
vn -0.9993 -0.0013 0.0376
vn -0.7113 -0.0226 0.7025
vn -0.7113 -0.0226 0.7026
vn -0.9993 -0.001 0.0376
vn -0.9514 0.3079 0.0095
vn -0.6591 0.3807 0.6486
vn -0.0771 0.3895 0.9178
vn -0.9517 0.3071 0.0058
vn -0.7113 -0.0226 0.7025
vn -0.0992 -0.0325 0.9945
vn -0.0993 -0.0325 0.9945
vn -0.7113 -0.0226 0.7026
vn -0 -0.0328 0.9995
vn -0.0993 -0.0325 0.9945
vn -0.0992 -0.0325 0.9945
vn -0 -0.0328 0.9995
vn -0 -0.0328 0.9995
vn -0 -0.0328 0.9995
vn -0 -0.0328 0.9995
vn -0 -0.0328 0.9995
vn -0 -0.0328 0.9995
vn -0 -0.0328 0.9995
vn -0 -0.0328 0.9995
vn -0 -0.0328 0.9995
vn 0.0993 -0.0326 0.9945
vn 0.0998 -0.0325 0.9945
vn -0 -0.0328 0.9995
vn -0 -0.0328 0.9995
vn 0.0993 -0.0326 0.9945
vn 0.7112 -0.0226 0.7026
vn 0.7111 -0.0226 0.7027
vn 0.0998 -0.0325 0.9945
vn -0 0.3366 0.9416
vn 0.0873 0.3483 0.9333
vn 0.077 0.3897 0.9177
vn -0.0047 0.3859 0.9225
vn -0 0.3907 0.9205
vn -0 0.3366 0.9416
vn -0 0.3366 0.9416
vn -0.0047 0.3859 0.9225
vn -0.089 0.9956 -0.0285
vn -0.0001 0.9992 -0.0398
vn -0 0.3907 0.9205
vn -0.0047 0.3859 0.9225
vn -0.1711 0.9852 0.0078
vn -0.089 0.9956 -0.0285
vn -0.0047 0.3859 0.9225
vn 0.077 0.3897 0.9177
vn -0.0001 0.9992 -0.0398
vn 0.0891 0.9956 -0.0285
vn 0.0047 0.3859 0.9225
vn -0 0.3907 0.9205
vn 0.0047 0.3859 0.9225
vn -0 0.3366 0.9416
vn -0 0.3366 0.9416
vn -0 0.3907 0.9205
vn 0.0891 0.9956 -0.0285
vn 0.1711 0.9852 0.0078
vn -0.0771 0.3895 0.9178
vn 0.0047 0.3859 0.9225
vn -0.0771 0.3895 0.9178
vn -0.0869 0.3481 0.9334
vn -0 0.3366 0.9416
vn 0.0047 0.3859 0.9225
vn 0.1711 0.9852 0.0078
vn 0.1874 0.9822 0.0156
vn -0.9517 0.3071 0.0058
vn -0.0771 0.3895 0.9178
vn -0.6591 0.3807 0.6486
vn -0.0869 0.3481 0.9334
vn -0.0771 0.3895 0.9178
vn 0.1874 0.9822 0.0156
vn 0.1711 0.9852 0.0078
vn 0.1436 0.9896 -0.0034
vn 0.0891 0.9956 -0.0285
vn 0.0726 0.9973 -0.0134
vn 0.1436 0.9896 -0.0034
vn 0.1711 0.9852 0.0078
vn 0.1353 0.9907 0.0167
vn 0.1436 0.9896 -0.0034
vn 0.0726 0.9973 -0.0134
vn 0.0667 0.9973 0.0312
vn 0.1353 0.9907 0.0167
vn 0.1693 0.9856 -0.003
vn 0.1874 0.9822 0.0156
vn 0.1436 0.9896 -0.0034
vn 0.0667 0.9973 0.0312
vn 0.0746 0.9962 0.0446
vn 0.146 0.9893 0.007
vn 0.1353 0.9907 0.0167
vn 0.1693 0.9856 -0.003
vn 0.1353 0.9907 0.0167
vn 0.146 0.9893 0.007
vn 0.0667 0.9973 0.0312
vn 0.0726 0.9973 -0.0134
vn -0 0.9999 -0.0167
vn -0 0.9993 0.0364
vn -0 0.9993 0.0364
vn -0 0.9983 0.0583
vn 0.0746 0.9962 0.0446
vn 0.0667 0.9973 0.0312
vn -0 0.9993 0.0364
vn -0 0.9999 -0.0167
vn -0.0726 0.9973 -0.0134
vn -0.0667 0.9973 0.0312
vn -0.0667 0.9973 0.0312
vn -0.0746 0.9962 0.0446
vn -0 0.9983 0.0583
vn -0 0.9993 0.0364
vn -0.0001 0.9992 -0.0398
vn -0 0.9999 -0.0167
vn 0.0726 0.9973 -0.0134
vn 0.0891 0.9956 -0.0285
vn -0.089 0.9956 -0.0285
vn -0.0726 0.9973 -0.0134
vn -0 0.9999 -0.0167
vn -0.0001 0.9992 -0.0398
vn -0.0667 0.9973 0.0312
vn -0.0726 0.9973 -0.0134
vn -0.1436 0.9896 -0.0034
vn -0.1348 0.9907 0.0162
vn -0.1711 0.9852 0.0078
vn -0.1436 0.9896 -0.0034
vn -0.0726 0.9973 -0.0134
vn -0.089 0.9956 -0.0285
vn -0.1693 0.9856 -0.003
vn -0.1348 0.9907 0.0162
vn -0.1436 0.9896 -0.0034
vn -0.1874 0.9822 0.0155
vn -0.1711 0.9852 0.0078
vn -0.1874 0.9822 0.0155
vn -0.1436 0.9896 -0.0034
vn -0.1348 0.9907 0.0162
vn -0.1459 0.9893 0.007
vn -0.0746 0.9962 0.0446
vn -0.0667 0.9973 0.0312
vn -0.1348 0.9907 0.0162
vn -0.1693 0.9856 -0.003
vn -0.1459 0.9893 0.007
vt 0.526614 0.189773
vt 0.540038 0.189704
vt 0.540519 0.187662
vt 0.526614 0.187662
vt 0.526614 0.189773
vt 0.526614 0.187662
vt 0.516098 0.187662
vt 0.516098 0.189773
vt 0.540038 0.189704
vt 0.54347 0.190929
vt 0.544882 0.189449
vt 0.540519 0.187662
vt 0.54347 0.190929
vt 0.544801 0.194322
vt 0.546689 0.193764
vt 0.544882 0.189449
vt 0.546689 0.242599
vt 0.546689 0.193764
vt 0.544801 0.194322
vt 0.544805 0.242375
vt 0.54489 0.246991
vt 0.546689 0.242599
vt 0.544805 0.242375
vt 0.543485 0.24586
vt 0.543485 0.24586
vt 0.544805 0.242375
vt 0.536202 0.234835
vt 0.544801 0.194322
vt 0.536226 0.19983
vt 0.536202 0.234835
vt 0.544805 0.242375
vt 0.534771 0.233955
vt 0.532938 0.236159
vt 0.533829 0.237627
vt 0.536202 0.234835
vt 0.534771 0.233955
vt 0.536202 0.234835
vt 0.536226 0.19983
vt 0.534768 0.200641
vt 0.540069 0.247128
vt 0.543485 0.24586
vt 0.536202 0.234835
vt 0.533829 0.237627
vt 0.532898 0.198492
vt 0.534768 0.200641
vt 0.536226 0.19983
vt 0.533801 0.197094
vt 0.533801 0.197094
vt 0.536226 0.19983
vt 0.54347 0.190929
vt 0.540038 0.189704
vt 0.536226 0.19983
vt 0.544801 0.194322
vt 0.54347 0.190929
vt 0.533801 0.197094
vt 0.524878 0.19684
vt 0.524521 0.198257
vt 0.532898 0.198492
vt 0.533801 0.197094
vt 0.540038 0.189704
vt 0.526614 0.189773
vt 0.524878 0.19684
vt 0.524878 0.19684
vt 0.516098 0.196756
vt 0.516098 0.198179
vt 0.524521 0.198257
vt 0.524878 0.19684
vt 0.526614 0.189773
vt 0.516098 0.189773
vt 0.516098 0.196756
vt 0.516098 0.196756
vt 0.507319 0.19684
vt 0.507676 0.198257
vt 0.516098 0.198179
vt 0.516098 0.196756
vt 0.516098 0.189773
vt 0.505583 0.189773
vt 0.507319 0.19684
vt 0.516098 0.189773
vt 0.516098 0.187662
vt 0.505583 0.187662
vt 0.505583 0.189773
vt 0.491678 0.187662
vt 0.492159 0.189704
vt 0.505583 0.189773
vt 0.505583 0.187662
vt 0.505583 0.189773
vt 0.492159 0.189704
vt 0.498396 0.197094
vt 0.507319 0.19684
vt 0.491678 0.187662
vt 0.487315 0.189449
vt 0.488727 0.190929
vt 0.492159 0.189704
vt 0.492159 0.189704
vt 0.488727 0.190929
vt 0.495971 0.19983
vt 0.498396 0.197094
vt 0.497429 0.200641
vt 0.499299 0.198492
vt 0.498396 0.197094
vt 0.495971 0.19983
vt 0.507319 0.19684
vt 0.498396 0.197094
vt 0.499299 0.198492
vt 0.507676 0.198257
vt 0.495971 0.19983
vt 0.495995 0.234835
vt 0.497426 0.233955
vt 0.497429 0.200641
vt 0.495971 0.19983
vt 0.487396 0.194322
vt 0.487368 0.242293
vt 0.495995 0.234835
vt 0.488727 0.190929
vt 0.487396 0.194322
vt 0.495971 0.19983
vt 0.487315 0.189449
vt 0.485508 0.193764
vt 0.487396 0.194322
vt 0.488727 0.190929
vt 0.485508 0.242599
vt 0.487368 0.242293
vt 0.487396 0.194322
vt 0.485508 0.193764
vt 0.485508 0.242599
vt 0.487307 0.246991
vt 0.488615 0.245764
vt 0.487368 0.242293
vt 0.487368 0.242293
vt 0.488615 0.245764
vt 0.498368 0.237627
vt 0.495995 0.234835
vt 0.487307 0.246991
vt 0.491651 0.24881
vt 0.492041 0.247104
vt 0.488615 0.245764
vt 0.505583 0.247063
vt 0.492041 0.247104
vt 0.491651 0.24881
vt 0.505583 0.24881
vt 0.505583 0.247063
vt 0.505583 0.24881
vt 0.516098 0.24881
vt 0.516098 0.247063
vt 0.516098 0.247063
vt 0.516098 0.24881
vt 0.526614 0.24881
vt 0.526614 0.247063
vt 0.540546 0.24881
vt 0.540069 0.247128
vt 0.526614 0.247063
vt 0.526614 0.24881
vt 0.540546 0.24881
vt 0.54489 0.246991
vt 0.543485 0.24586
vt 0.540069 0.247128
vt 0.526614 0.247063
vt 0.540069 0.247128
vt 0.533829 0.237627
vt 0.524911 0.238032
vt 0.516098 0.238165
vt 0.516098 0.247063
vt 0.526614 0.247063
vt 0.524911 0.238032
vt 0.524552 0.236535
vt 0.516098 0.236661
vt 0.516098 0.238165
vt 0.524911 0.238032
vt 0.532938 0.236159
vt 0.524552 0.236535
vt 0.524911 0.238032
vt 0.533829 0.237627
vt 0.516098 0.236661
vt 0.507644 0.236535
vt 0.507286 0.238032
vt 0.516098 0.238165
vt 0.507286 0.238032
vt 0.505583 0.247063
vt 0.516098 0.247063
vt 0.516098 0.238165
vt 0.507644 0.236535
vt 0.499259 0.236159
vt 0.498368 0.237627
vt 0.507286 0.238032
vt 0.498368 0.237627
vt 0.492041 0.247104
vt 0.505583 0.247063
vt 0.507286 0.238032
vt 0.499259 0.236159
vt 0.497426 0.233955
vt 0.495995 0.234835
vt 0.498368 0.237627
vt 0.488615 0.245764
vt 0.492041 0.247104
vt 0.498368 0.237627
vt 0.497426 0.233955
vt 0.499259 0.236159
vt 0.502855 0.230751
vt 0.507644 0.236535
vt 0.509454 0.230935
vt 0.502855 0.230751
vt 0.499259 0.236159
vt 0.502871 0.203966
vt 0.502855 0.230751
vt 0.509454 0.230935
vt 0.509467 0.203873
vt 0.502871 0.203966
vt 0.497429 0.200641
vt 0.497426 0.233955
vt 0.502855 0.230751
vt 0.509467 0.203873
vt 0.507676 0.198257
vt 0.499299 0.198492
vt 0.502871 0.203966
vt 0.497429 0.200641
vt 0.502871 0.203966
vt 0.499299 0.198492
vt 0.509467 0.203873
vt 0.509454 0.230935
vt 0.516098 0.230985
vt 0.516098 0.203847
vt 0.516098 0.203847
vt 0.516098 0.198179
vt 0.507676 0.198257
vt 0.509467 0.203873
vt 0.516098 0.203847
vt 0.516098 0.230985
vt 0.522743 0.230935
vt 0.52273 0.203873
vt 0.52273 0.203873
vt 0.524521 0.198257
vt 0.516098 0.198179
vt 0.516098 0.203847
vt 0.516098 0.236661
vt 0.516098 0.230985
vt 0.509454 0.230935
vt 0.507644 0.236535
vt 0.524552 0.236535
vt 0.522743 0.230935
vt 0.516098 0.230985
vt 0.516098 0.236661
vt 0.52273 0.203873
vt 0.522743 0.230935
vt 0.529342 0.230751
vt 0.529325 0.203966
vt 0.532938 0.236159
vt 0.529342 0.230751
vt 0.522743 0.230935
vt 0.524552 0.236535
vt 0.534768 0.200641
vt 0.529325 0.203966
vt 0.529342 0.230751
vt 0.534771 0.233955
vt 0.532938 0.236159
vt 0.534771 0.233955
vt 0.529342 0.230751
vt 0.529325 0.203966
vt 0.532898 0.198492
vt 0.524521 0.198257
vt 0.52273 0.203873
vt 0.529325 0.203966
vt 0.534768 0.200641
vt 0.532898 0.198492
s off
f 1/1/1 2/2/2 3/3/3
f 1/1/1 3/3/3 4/4/4
f 5/5/5 6/6/6 7/7/7
f 5/5/5 7/7/7 8/8/8
f 9/9/9 10/10/10 11/11/11
f 9/9/9 11/11/11 12/12/12
f 13/13/13 14/14/14 15/15/15
f 13/13/13 15/15/15 16/16/16
f 17/17/17 18/18/18 19/19/19
f 17/17/17 19/19/19 20/20/20
f 21/21/21 22/22/22 23/23/23
f 21/21/21 23/23/23 24/24/24
f 25/25/25 26/26/26 27/27/27
f 28/28/28 29/29/29 30/30/30
f 28/28/28 30/30/30 31/31/31
f 32/32/32 33/33/33 34/34/34
f 32/32/32 34/34/34 35/35/35
f 36/36/36 37/37/37 38/38/38
f 36/36/36 38/38/38 39/39/39
f 40/40/40 41/41/41 42/42/42
f 40/40/40 42/42/42 43/43/43
f 44/44/44 45/45/45 46/46/46
f 44/44/44 46/46/46 47/47/47
f 48/48/48 49/49/49 50/50/50
f 48/48/48 50/50/50 51/51/51
f 52/52/52 53/53/53 54/54/54
f 55/55/55 56/56/56 57/57/57
f 55/55/55 57/57/57 58/58/58
f 59/59/59 60/60/60 61/61/61
f 59/59/59 61/61/61 62/62/62
f 63/63/63 64/64/64 65/65/65
f 63/63/63 65/65/65 66/66/66
f 67/67/67 68/68/68 69/69/69
f 67/67/67 69/69/69 70/70/70
f 71/71/71 72/72/72 73/73/73
f 71/71/71 73/73/73 74/74/74
f 75/75/75 76/76/76 77/77/77
f 75/75/75 77/77/77 78/78/78
f 79/79/79 80/80/80 81/81/81
f 79/79/79 81/81/81 82/82/82
f 83/83/83 84/84/84 85/85/85
f 83/83/83 85/85/85 86/86/86
f 87/87/87 88/88/88 89/89/89
f 87/87/87 89/89/89 90/90/90
f 91/91/91 92/92/92 93/93/93
f 91/91/91 93/93/93 94/94/94
f 95/95/95 96/96/96 97/97/97
f 95/95/95 97/97/97 98/98/98
f 99/99/99 100/100/100 101/101/101
f 99/99/99 101/101/101 102/102/102
f 103/103/103 104/104/104 105/105/105
f 103/103/103 105/105/105 106/106/106
f 107/107/107 108/108/108 109/109/109
f 107/107/107 109/109/109 110/110/110
f 111/111/111 112/112/112 113/113/113
f 111/111/111 113/113/113 114/114/114
f 115/115/115 116/116/116 117/117/117
f 118/118/118 119/119/119 120/120/120
f 118/118/118 120/120/120 121/121/121
f 122/122/122 123/123/123 124/124/124
f 122/122/122 124/124/124 125/125/125
f 126/126/126 127/127/127 128/128/128
f 126/126/126 128/128/128 129/129/129
f 130/130/130 131/131/131 132/132/132
f 130/130/130 132/132/132 133/133/133
f 134/134/134 135/135/135 136/136/136
f 134/134/134 136/136/136 137/137/137
f 138/138/138 139/139/139 140/140/140
f 138/138/138 140/140/140 141/141/141
f 142/142/142 143/143/143 144/144/144
f 142/142/142 144/144/144 145/145/145
f 146/146/146 147/147/147 148/148/148
f 146/146/146 148/148/148 149/149/149
f 150/150/150 151/151/151 152/152/152
f 150/150/150 152/152/152 153/153/153
f 154/154/154 155/155/155 156/156/156
f 154/154/154 156/156/156 157/157/157
f 158/158/158 159/159/159 160/160/160
f 158/158/158 160/160/160 161/161/161
f 162/162/162 163/163/163 164/164/164
f 162/162/162 164/164/164 165/165/165
f 166/166/166 167/167/167 168/168/168
f 166/166/166 168/168/168 169/169/169
f 170/170/170 171/171/171 172/172/172
f 170/170/170 172/172/172 173/173/173
f 174/174/174 175/175/175 176/176/176
f 174/174/174 176/176/176 177/177/177
f 178/178/178 179/179/179 180/180/180
f 178/178/178 180/180/180 181/181/181
f 182/182/182 183/183/183 184/184/184
f 182/182/182 184/184/184 185/185/185
f 186/186/186 187/187/187 188/188/188
f 186/186/186 188/188/188 189/189/189
f 190/190/190 191/191/191 192/192/192
f 190/190/190 192/192/192 193/193/193
f 194/194/194 195/195/195 196/196/196
f 197/197/197 198/198/198 199/199/199
f 200/200/200 201/201/201 202/202/202
f 200/200/200 202/202/202 203/203/203
f 204/204/204 205/205/205 206/206/206
f 204/204/204 206/206/206 207/207/207
f 208/208/208 209/209/209 210/210/210
f 208/208/208 210/210/210 211/211/211
f 212/212/212 213/213/213 214/214/214
f 212/212/212 214/214/214 215/215/215
f 216/216/216 217/217/217 218/218/218
f 219/219/219 220/220/220 221/221/221
f 219/219/219 221/221/221 222/222/222
f 223/223/223 224/224/224 225/225/225
f 223/223/223 225/225/225 226/226/226
f 227/227/227 228/228/228 229/229/229
f 227/227/227 229/229/229 230/230/230
f 231/231/231 232/232/232 233/233/233
f 231/231/231 233/233/233 234/234/234
f 235/235/235 236/236/236 237/237/237
f 235/235/235 237/237/237 238/238/238
f 239/239/239 240/240/240 241/241/241
f 239/239/239 241/241/241 242/242/242
f 243/243/243 244/244/244 245/245/245
f 243/243/243 245/245/245 246/246/246
f 247/247/247 248/248/248 249/249/249
f 247/247/247 249/249/249 250/250/250
f 251/251/251 252/252/252 253/253/253
f 251/251/251 253/253/253 254/254/254
f 255/255/255 256/256/256 257/257/257
f 258/258/258 259/259/259 260/260/260
f 258/258/258 260/260/260 261/261/261
f 262/262/262 263/263/263 264/264/264
