v 0.00723 0.168787 0.033313
v 0.015738 0.167888 0.033313
v 0.007024 0.168848 0.030284
v 0.015717 0.167737 0.048371
v 0.019324 0.167543 0.047965
v 0.015738 0.167888 0.033313
v 0.019331 0.167742 0.030267
v 0.007024 0.168848 0.030284
v 0.015738 0.167888 0.033313
v 0.015738 0.167888 0.033313
v 0.019324 0.167543 0.047965
v 0.019331 0.167742 0.030267
v 0.019324 0.167543 0.047965
v 0.015717 0.167737 0.048371
v 0.018701 0.167531 0.051236
v 0.018701 0.167531 0.051236
v 0.014869 0.167803 0.050747
v 0.016581 0.167589 0.05394
v 0.014869 0.167803 0.050747
v 0.018701 0.167531 0.051236
v 0.015717 0.167737 0.048371
v 0.014869 0.167803 0.050747
v 0.013178 0.167969 0.051949
v 0.016581 0.167589 0.05394
v 0.010124 0.168291 0.052042
v 0.012536 0.168003 0.055237
v 0.013178 0.167969 0.051949
v 0.013178 0.167969 0.051949
v 0.012536 0.168003 0.055237
v 0.016581 0.167589 0.05394
v 0.010124 0.168291 0.052042
v 0.009051 0.168375 0.054857
v 0.012536 0.168003 0.055237
v 0.010124 0.168291 0.052042
v 0.006395 0.168669 0.053648
v 0.009051 0.168375 0.054857
v 0.006395 0.168669 0.053648
v 0.007944 0.168533 0.050877
v 0.004377 0.168925 0.051634
v 0.010124 0.168291 0.052042
v 0.007944 0.168533 0.050877
v 0.006395 0.168669 0.053648
v 0.004377 0.168925 0.051634
v 0.007944 0.168533 0.050877
v 0.006424 0.16871 0.049198
v 0.006833 0.168829 0.033313
v 0.00723 0.168787 0.033313
vn 0.105 0.9944 0.0129
vn 0.105 0.9944 0.0129
vn 0.105 0.9944 0.0129
vn 0.055 0.9984 0.0101
vn 0.055 0.9984 0.0101
vn 0.055 0.9984 0.0101
vn 0.0894 0.9943 0.0578
vn 0.0894 0.9943 0.0578
vn 0.0894 0.9943 0.0578
vn 0.0502 0.9987 0.0113
vn 0.0502 0.9987 0.0113
vn 0.0502 0.9987 0.0113
vn 0.0554 0.9984 0.0142
vn 0.0554 0.9984 0.0142
vn 0.0554 0.9984 0.0142
vn 0.0668 0.9973 0.0308
vn 0.0668 0.9973 0.0308
vn 0.0668 0.9973 0.0308
vn 0.071 0.9975 -0.0021
vn 0.071 0.9975 -0.0021
vn 0.071 0.9975 -0.0021
vn 0.1051 0.9944 0.0101
vn 0.1051 0.9944 0.0101
vn 0.1051 0.9944 0.0101
vn 0.105 0.9944 0.0101
vn 0.105 0.9944 0.0101
vn 0.105 0.9944 0.0101
vn 0.1051 0.9944 0.0101
vn 0.1051 0.9944 0.0101
vn 0.1051 0.9944 0.0101
vn 0.105 0.9944 0.0101
vn 0.105 0.9944 0.0101
vn 0.105 0.9944 0.0101
vn 0.1051 0.9944 0.0102
vn 0.1051 0.9944 0.0102
vn 0.1051 0.9944 0.0102
vn 0.1122 0.9936 0.0141
vn 0.1122 0.9936 0.0141
vn 0.1122 0.9936 0.0141
vn 0.1051 0.9944 0.01
vn 0.1051 0.9944 0.01
vn 0.1051 0.9944 0.01
vn 0.1104 0.9939 0.0052
vn 0.1104 0.9939 0.0052
vn 0.1104 0.9939 0.0052
vn 0 0 0
vn 0 0 0
vt 0.505745 0.592361
vt 0.509899 0.592361
vt 0.505644 0.590881
vt 0.509889 0.599714
vt 0.511651 0.599516
vt 0.509899 0.592361
vt 0.511654 0.590873
vt 0.505644 0.590881
vt 0.509899 0.592361
vt 0.509899 0.592361
vt 0.511651 0.599516
vt 0.511654 0.590873
vt 0.511651 0.599516
vt 0.509889 0.599714
vt 0.511346 0.601113
vt 0.511346 0.601113
vt 0.509475 0.600875
vt 0.510311 0.602434
vt 0.509475 0.600875
vt 0.511346 0.601113
vt 0.509889 0.599714
vt 0.509475 0.600875
vt 0.50865 0.601462
vt 0.510311 0.602434
vt 0.507158 0.601507
vt 0.508336 0.603067
vt 0.50865 0.601462
vt 0.50865 0.601462
vt 0.508336 0.603067
vt 0.510311 0.602434
vt 0.507158 0.601507
vt 0.506634 0.602882
vt 0.508336 0.603067
vt 0.507158 0.601507
vt 0.505337 0.602291
vt 0.506634 0.602882
vt 0.505337 0.602291
vt 0.506093 0.600938
vt 0.504351 0.601308
vt 0.507158 0.601507
vt 0.506093 0.600938
vt 0.505337 0.602291
vt 0.504351 0.601308
vt 0.506093 0.600938
vt 0.505351 0.600118
vt 0 1
vt 0 1
s off
f 1/1/1 2/2/2 3/3/3
f 4/4/4 5/5/5 6/6/6
f 7/7/7 8/8/8 9/9/9
f 10/10/10 11/11/11 12/12/12
f 13/13/13 14/14/14 15/15/15
f 16/16/16 17/17/17 18/18/18
f 19/19/19 20/20/20 21/21/21
f 22/22/22 23/23/23 24/24/24
f 25/25/25 26/26/26 27/27/27
f 28/28/28 29/29/29 30/30/30
f 31/31/31 32/32/32 33/33/33
f 34/34/34 35/35/35 36/36/36
f 37/37/37 38/38/38 39/39/39
f 40/40/40 41/41/41 42/42/42
f 43/43/43 44/44/44 45/45/45
