v 0.133138 0.168861 0.044014
v 0.139933 0.168171 0.04128
v 0.146495 0.167757 0.030267
v 0.146495 0.167757 0.030267
v 0.139933 0.168171 0.04128
v 0.150478 0.167635 0.030267
v 0.151103 0.167334 0.054872
v 0.139933 0.168171 0.04128
v 0.147042 0.16747 0.054872
v 0.13759 0.168393 0.043858
v 0.139933 0.168171 0.04128
v 0.133138 0.168861 0.044014
v 0.139933 0.168171 0.04128
v 0.13759 0.168393 0.043858
v 0.147042 0.16747 0.054872
v 0.13759 0.168393 0.043858
v 0.133138 0.168861 0.044014
v 0.133138 0.168816 0.048466
v 0.129623 0.169193 0.054872
v 0.133138 0.168769 0.054872
v 0.133138 0.168816 0.048466
v 0.133138 0.168861 0.044014
v 0.129623 0.169383 0.030267
v 0.129623 0.169193 0.054872
v 0.133138 0.168816 0.048466
v 0.133138 0.16901 0.030267
v 0.129623 0.169383 0.030267
v 0.133138 0.168861 0.044014
v 0.151103 0.167334 0.054872
v 0.151103 0.167334 0.054872
vn 0.1129 0.9932 0.0299
vn 0.1129 0.9932 0.0299
vn 0.1129 0.9932 0.0299
vn 0.0306 0.9993 -0.0194
vn 0.0306 0.9993 -0.0194
vn 0.0306 0.9993 -0.0194
vn 0.0335 0.9989 0.034
vn 0.0335 0.9989 0.034
vn 0.0335 0.9989 0.034
vn 0.105 0.9944 0.0101
vn 0.105 0.9944 0.0101
vn 0.105 0.9944 0.0101
vn 0.0955 0.9954 0.0014
vn 0.0955 0.9954 0.0014
vn 0.0955 0.9954 0.0014
vn 0.105 0.9944 0.0101
vn 0.105 0.9944 0.0101
vn 0.105 0.9944 0.0101
vn 0.1197 0.9928 0.0073
vn 0.1197 0.9928 0.0073
vn 0.1197 0.9928 0.0073
vn 0.1185 0.9929 0.008
vn 0.1185 0.9929 0.008
vn 0.1185 0.9929 0.008
vn 0.1185 0.9929 0.008
vn 0.1054 0.9944 0.0108
vn 0.1054 0.9944 0.0108
vn 0.1054 0.9944 0.0108
vn 0 0 0
vn 0 0 0
vt 0.567231 0.597587
vt 0.57055 0.596252
vt 0.573754 0.590873
vt 0.573754 0.590873
vt 0.57055 0.596252
vt 0.575699 0.590873
vt 0.576004 0.602889
vt 0.57055 0.596252
vt 0.574021 0.602889
vt 0.569405 0.59751
vt 0.57055 0.596252
vt 0.567231 0.597587
vt 0.57055 0.596252
vt 0.569405 0.59751
vt 0.574021 0.602889
vt 0.569405 0.59751
vt 0.567231 0.597587
vt 0.567231 0.599761
vt 0.565514 0.602889
vt 0.567231 0.602889
vt 0.567231 0.599761
vt 0.567231 0.597587
vt 0.565514 0.590873
vt 0.565514 0.602889
vt 0.567231 0.599761
vt 0.567231 0.590873
vt 0.565514 0.590873
vt 0.567231 0.597587
vt 0 1
vt 0 1
s off
f 1/1/1 2/2/2 3/3/3
f 4/4/4 5/5/5 6/6/6
f 7/7/7 8/8/8 9/9/9
f 10/10/10 11/11/11 12/12/12
f 13/13/13 14/14/14 15/15/15
f 16/16/16 17/17/17 18/18/18
f 19/19/19 20/20/20 21/21/21
f 22/22/22 23/23/23 24/24/24
f 22/22/22 24/24/24 25/25/25
f 26/26/26 27/27/27 28/28/28
