v 0.262724 0.168804 0.030267
v 0.259209 0.169177 0.030267
v 0.259209 0.168958 0.054872
v 0.262724 0.168577 0.051747
v 0.262724 0.168804 0.030267
v 0.259209 0.168958 0.054872
v 0.276002 0.167457 0.051747
v 0.262724 0.168577 0.051747
v 0.259209 0.168958 0.054872
v 0.276002 0.167425 0.054872
vn 0.1054 0.9944 0.0088
vn 0.1054 0.9944 0.0088
vn 0.1054 0.9944 0.0088
vn 0.117 0.9931 0.0105
vn 0.117 0.9931 0.0105
vn 0.117 0.9931 0.0105
vn 0.0879 0.9961 -0.0063
vn 0.0879 0.9961 -0.0063
vn 0.0879 0.9961 -0.0063
vn 0.0879 0.9961 -0.0063
vt 0.630513 0.590873
vt 0.628797 0.590873
vt 0.628797 0.602889
vt 0.630513 0.601363
vt 0.630513 0.590873
vt 0.628797 0.602889
vt 0.636998 0.601363
vt 0.630513 0.601363
vt 0.628797 0.602889
vt 0.636998 0.602889
s off
f 1/1/1 2/2/2 3/3/3
f 4/4/4 5/5/5 6/6/6
f 7/7/7 8/8/8 9/9/9
f 7/7/7 9/9/9 10/10/10
