v 0.074633 0.16333 0.175162
v 0.084241 0.161488 0.164539
v 0.084787 0.160775 0.157899
v 0.084241 0.161488 0.164539
v 0.087677 0.163279 0.182504
v 0.087677 0.160694 0.157899
v 0.084787 0.160775 0.157899
v 0.084319 0.163393 0.182504
v 0.087677 0.163279 0.182504
v 0.084241 0.161488 0.164539
v 0.074633 0.16333 0.175162
v 0.075414 0.163719 0.179536
v 0.084241 0.161488 0.164539
v 0.073774 0.163881 0.179536
v 0.075414 0.163719 0.179536
v 0.074633 0.16333 0.175162
v 0.074633 0.16333 0.175162
v 0.064869 0.163224 0.164695
v 0.073774 0.163881 0.179536
v 0.06151 0.165723 0.182504
v 0.064869 0.165225 0.182504
v 0.064869 0.163224 0.164695
v 0.074633 0.16333 0.175162
v 0.064401 0.162525 0.157899
v 0.064869 0.163224 0.164695
v 0.064869 0.163224 0.164695
v 0.064401 0.162525 0.157899
v 0.06151 0.165723 0.182504
v 0.064401 0.162525 0.157899
v 0.06151 0.162958 0.157899
v 0.06151 0.165723 0.182504
vn 0.0796 0.9918 -0.0999
vn 0.0796 0.9918 -0.0999
vn 0.0796 0.9918 -0.0999
vn 0.028 0.9941 -0.1044
vn 0.028 0.9941 -0.1044
vn 0.028 0.9941 -0.1044
vn 0.028 0.9941 -0.1044
vn 0.0339 0.9938 -0.1055
vn 0.0339 0.9938 -0.1055
vn 0.0339 0.9938 -0.1055
vn 0.0772 0.9918 -0.1021
vn 0.0772 0.9918 -0.1021
vn 0.0772 0.9918 -0.1021
vn 0.0975 0.9896 -0.1055
vn 0.0975 0.9896 -0.1055
vn 0.0975 0.9896 -0.1055
vn 0.1015 0.9893 -0.1047
vn 0.1015 0.9893 -0.1047
vn 0.1015 0.9893 -0.1047
vn 0.1457 0.9831 -0.1105
vn 0.1457 0.9831 -0.1105
vn 0.1457 0.9831 -0.1105
vn 0.106 0.9884 -0.1089
vn 0.106 0.9884 -0.1089
vn 0.106 0.9884 -0.1089
vn 0.1434 0.9834 -0.111
vn 0.1434 0.9834 -0.111
vn 0.1434 0.9834 -0.111
vn 0.1473 0.9829 -0.1104
vn 0.1473 0.9829 -0.1104
vn 0.1473 0.9829 -0.1104
vt 0.538661 0.661632
vt 0.543352 0.656444
vt 0.543619 0.653202
vt 0.543352 0.656444
vt 0.545031 0.665217
vt 0.545031 0.653202
vt 0.543619 0.653202
vt 0.54339 0.665217
vt 0.545031 0.665217
vt 0.543352 0.656444
vt 0.538661 0.661632
vt 0.539042 0.663768
vt 0.543352 0.656444
vt 0.538241 0.663768
vt 0.539042 0.663768
vt 0.538661 0.661632
vt 0.538661 0.661632
vt 0.533893 0.65652
vt 0.538241 0.663768
vt 0.532252 0.665217
vt 0.533893 0.665217
vt 0.533893 0.65652
vt 0.538661 0.661632
vt 0.533664 0.653202
vt 0.533893 0.65652
vt 0.533893 0.65652
vt 0.533664 0.653202
vt 0.532252 0.665217
vt 0.533664 0.653202
vt 0.532252 0.653202
vt 0.532252 0.665217
s off
f 1/1/1 2/2/2 3/3/3
f 4/4/4 5/5/5 6/6/6
f 4/4/4 6/6/6 7/7/7
f 8/8/8 9/9/9 10/10/10
f 11/11/11 12/12/12 13/13/13
f 14/14/14 15/15/15 16/16/16
f 17/17/17 18/18/18 19/19/19
f 20/20/20 21/21/21 22/22/22
f 23/23/23 24/24/24 25/25/25
f 26/26/26 27/27/27 28/28/28
f 29/29/29 30/30/30 31/31/31
