v 0.435973 0.197268 -0.169384
v 0.457063 0.197378 -0.171962
v 0.435973 0.197386 -0.171962
v 0.440816 0.199306 -0.216485
v 0.440816 0.199139 -0.21297
v 0.452142 0.199148 -0.21297
v 0.452142 0.199148 -0.21297
v 0.452142 0.19931 -0.216485
v 0.440816 0.199306 -0.216485
v 0.435973 0.197268 -0.169384
v 0.457063 0.197256 -0.169384
v 0.457063 0.197378 -0.171962
vn 0.0004 0.9989 0.0459
vn 0.0004 0.9989 0.0459
vn 0.0004 0.9989 0.0459
vn -0.0008 0.9989 0.0472
vn -0.0008 0.9989 0.0472
vn -0.0008 0.9989 0.0472
vn -0.0004 0.9989 0.0459
vn -0.0004 0.9989 0.0459
vn -0.0004 0.9989 0.0459
vn 0.0005 0.9989 0.0472
vn 0.0005 0.9989 0.0472
vn 0.0005 0.9989 0.0472
vt 0.715118 0.493375
vt 0.725418 0.492116
vt 0.715118 0.492116
vt 0.717483 0.470374
vt 0.717483 0.47209
vt 0.723014 0.47209
vt 0.723014 0.47209
vt 0.723014 0.470374
vt 0.717483 0.470374
vt 0.715118 0.493375
vt 0.725418 0.493375
vt 0.725418 0.492116
s off
f 1/1/1 2/2/2 3/3/3
f 4/4/4 5/5/5 6/6/6
f 7/7/7 8/8/8 9/9/9
f 10/10/10 11/11/11 12/12/12
