v -0.060889 0.162265 0.157899
v -0.060186 0.162863 0.164148
v -0.046126 0.162824 0.176256
v -0.060889 0.162265 0.157899
v -0.063701 0.162594 0.157899
v -0.060186 0.162863 0.164148
v -0.060186 0.162863 0.164148
v -0.063701 0.162594 0.157899
v -0.063701 0.165359 0.182504
v -0.060186 0.16491 0.182504
v -0.060186 0.162863 0.164148
v -0.063701 0.165359 0.182504
v -0.046126 0.162824 0.176256
v -0.060186 0.162863 0.164148
v -0.045423 0.163466 0.182504
v -0.045423 0.163466 0.182504
v -0.042611 0.163368 0.182504
v -0.046126 0.162824 0.176256
v -0.042611 0.163368 0.182504
v -0.042611 0.160768 0.157899
v -0.046126 0.162824 0.176256
v -0.046126 0.162824 0.176256
v -0.042611 0.160768 0.157899
v -0.046126 0.160867 0.157899
vn 0.0932 0.9901 -0.1051
vn 0.0932 0.9901 -0.1051
vn 0.0932 0.9901 -0.1051
vn 0.1155 0.9875 -0.1074
vn 0.1155 0.9875 -0.1074
vn 0.1155 0.9875 -0.1074
vn 0.1217 0.9864 -0.1108
vn 0.1217 0.9864 -0.1108
vn 0.1217 0.9864 -0.1108
vn 0.1259 0.9859 -0.11
vn 0.1259 0.9859 -0.11
vn 0.1259 0.9859 -0.11
vn 0.0999 0.9886 -0.1128
vn 0.0999 0.9886 -0.1128
vn 0.0999 0.9886 -0.1128
vn 0.0346 0.9938 -0.106
vn 0.0346 0.9938 -0.106
vn 0.0346 0.9938 -0.106
vn 0.0328 0.9939 -0.105
vn 0.0328 0.9939 -0.105
vn 0.0328 0.9939 -0.105
vn 0.028 0.994 -0.106
vn 0.028 0.994 -0.106
vn 0.028 0.994 -0.106
vt 0.472479 0.653202
vt 0.472823 0.656253
vt 0.479689 0.662166
vt 0.472479 0.653202
vt 0.471106 0.653202
vt 0.472823 0.656253
vt 0.472823 0.656253
vt 0.471106 0.653202
vt 0.471106 0.665217
vt 0.472823 0.665217
vt 0.472823 0.656253
vt 0.471106 0.665217
vt 0.479689 0.662166
vt 0.472823 0.656253
vt 0.480032 0.665217
vt 0.480032 0.665217
vt 0.481405 0.665217
vt 0.479689 0.662166
vt 0.481405 0.665217
vt 0.481405 0.653202
vt 0.479689 0.662166
vt 0.479689 0.662166
vt 0.481405 0.653202
vt 0.479689 0.653202
s off
f 1/1/1 2/2/2 3/3/3
f 4/4/4 5/5/5 6/6/6
f 7/7/7 8/8/8 9/9/9
f 10/10/10 11/11/11 12/12/12
f 13/13/13 14/14/14 15/15/15
f 16/16/16 17/17/17 18/18/18
f 19/19/19 20/20/20 21/21/21
f 22/22/22 23/23/23 24/24/24
