v 0.247608 0.178914 -0.080444
v 0.244836 0.179111 -0.082868
v 0.243218 0.178979 -0.079447
v 0.246025 0.178814 -0.077673
v 0.240314 0.17895 -0.076903
v 0.243139 0.178753 -0.074843
v 0.243218 0.178979 -0.079447
v 0.246025 0.178814 -0.077673
v 0.243218 0.178979 -0.079447
v 0.243139 0.178753 -0.074843
v 0.244836 0.179111 -0.082868
v 0.247608 0.178914 -0.080444
v 0.248494 0.179101 -0.084552
v 0.248494 0.179101 -0.084552
v 0.247801 0.179382 -0.089681
v 0.244918 0.179303 -0.086659
v 0.248494 0.179101 -0.084552
v 0.244918 0.179303 -0.086659
v 0.244836 0.179111 -0.082868
v 0.244132 0.179463 -0.089373
v 0.244918 0.179303 -0.086659
v 0.247801 0.179382 -0.089681
v 0.244132 0.179463 -0.089373
v 0.244878 0.179697 -0.094321
v 0.24216 0.179652 -0.092035
v 0.244132 0.179463 -0.089373
v 0.247801 0.179382 -0.089681
v 0.244878 0.179697 -0.094321
v 0.239658 0.179805 -0.093727
v 0.244878 0.179697 -0.094321
v 0.239998 0.180043 -0.09721
v 0.239658 0.179805 -0.093727
v 0.24216 0.179652 -0.092035
v 0.244878 0.179697 -0.094321
v 0.239658 0.179805 -0.093727
v 0.239998 0.180043 -0.09721
v 0.235264 0.180221 -0.094663
v 0.230401 0.1806 -0.093372
v 0.235264 0.180221 -0.094663
v 0.231805 0.180707 -0.097453
v 0.235712 0.180382 -0.097868
v 0.235264 0.180221 -0.094663
v 0.239998 0.180043 -0.09721
v 0.235712 0.180382 -0.097868
v 0.231805 0.180707 -0.097453
v 0.235264 0.180221 -0.094663
v 0.230401 0.1806 -0.093372
v 0.231805 0.180707 -0.097453
v 0.227709 0.18096 -0.095675
v 0.22428 0.181098 -0.092156
v 0.227724 0.180728 -0.091022
v 0.227709 0.18096 -0.095675
v 0.227724 0.180728 -0.091022
v 0.230401 0.1806 -0.093372
v 0.227709 0.18096 -0.095675
v 0.226425 0.18073 -0.088684
v 0.227724 0.180728 -0.091022
v 0.22428 0.181098 -0.092156
v 0.222468 0.181159 -0.087529
v 0.225797 0.180623 -0.085359
v 0.226425 0.18073 -0.088684
v 0.222468 0.181159 -0.087529
v 0.226425 0.18073 -0.088684
v 0.22428 0.181098 -0.092156
v 0.225797 0.180623 -0.085359
v 0.222468 0.181159 -0.087529
v 0.222594 0.180903 -0.082131
v 0.226655 0.180329 -0.08093
v 0.222594 0.180903 -0.082131
v 0.224592 0.180443 -0.077919
v 0.225797 0.180623 -0.085359
v 0.222594 0.180903 -0.082131
v 0.226655 0.180329 -0.08093
v 0.229653 0.179881 -0.077482
v 0.226655 0.180329 -0.08093
v 0.227351 0.179997 -0.075115
v 0.226655 0.180329 -0.08093
v 0.224592 0.180443 -0.077919
v 0.227351 0.179997 -0.075115
v 0.227351 0.179997 -0.075115
v 0.232212 0.179421 -0.072895
v 0.229653 0.179881 -0.077482
v 0.236625 0.179165 -0.075843
v 0.232212 0.179421 -0.072895
v 0.23844 0.178853 -0.072888
v 0.233269 0.179476 -0.075959
v 0.232212 0.179421 -0.072895
v 0.236625 0.179165 -0.075843
v 0.233269 0.179476 -0.075959
v 0.229653 0.179881 -0.077482
v 0.232212 0.179421 -0.072895
v 0.23844 0.178853 -0.072888
v 0.240314 0.17895 -0.076903
v 0.236625 0.179165 -0.075843
v 0.243139 0.178753 -0.074843
v 0.240314 0.17895 -0.076903
v 0.23844 0.178853 -0.072888
vn 0.0264 0.9983 0.0512
vn 0.0264 0.9983 0.0512
vn 0.0264 0.9983 0.0512
vn 0.0264 0.9983 0.0512
vn 0.0334 0.9982 0.0495
vn 0.0334 0.9982 0.0495
vn 0.0334 0.9982 0.0495
vn 0.0275 0.9984 0.0494
vn 0.0275 0.9984 0.0494
vn 0.0275 0.9984 0.0494
vn 0.0264 0.9983 0.0512
vn 0.0264 0.9983 0.0512
vn 0.0264 0.9983 0.0512
vn 0.0264 0.9983 0.0512
vn 0.0264 0.9983 0.0512
vn 0.0264 0.9983 0.0512
vn 0.0264 0.9983 0.0511
vn 0.0264 0.9983 0.0511
vn 0.0264 0.9983 0.0511
vn 0.0264 0.9983 0.0512
vn 0.0264 0.9983 0.0512
vn 0.0264 0.9983 0.0512
vn 0.0264 0.9983 0.0512
vn 0.0264 0.9983 0.0512
vn 0.0264 0.9983 0.0512
vn 0.0264 0.9983 0.0512
vn 0.0264 0.9983 0.0512
vn 0.0264 0.9983 0.0512
vn 0.0286 0.9971 0.071
vn 0.0286 0.9971 0.071
vn 0.0286 0.9971 0.071
vn 0.0264 0.9983 0.0512
vn 0.0264 0.9983 0.0512
vn 0.0264 0.9983 0.0512
vn 0.0782 0.9941 0.0756
vn 0.0782 0.9941 0.0756
vn 0.0782 0.9941 0.0756
vn 0.0929 0.994 0.058
vn 0.0929 0.994 0.058
vn 0.0929 0.994 0.058
vn 0.0697 0.9958 0.0597
vn 0.0697 0.9958 0.0597
vn 0.0697 0.9958 0.0597
vn 0.0893 0.994 0.0623
vn 0.0893 0.994 0.0623
vn 0.0893 0.994 0.0623
vn 0.0854 0.9948 0.0554
vn 0.0854 0.9948 0.0554
vn 0.0854 0.9948 0.0554
vn 0.0906 0.9947 0.0493
vn 0.0906 0.9947 0.0493
vn 0.0906 0.9947 0.0493
vn 0.0906 0.9947 0.0493
vn 0.0906 0.9947 0.0493
vn 0.0906 0.9947 0.0493
vn 0.0906 0.9947 0.0493
vn 0.0906 0.9947 0.0493
vn 0.0906 0.9947 0.0493
vn 0.1235 0.9908 0.0554
vn 0.1235 0.9908 0.0554
vn 0.1235 0.9908 0.0554
vn 0.1171 0.9926 0.0327
vn 0.1171 0.9926 0.0327
vn 0.1171 0.9926 0.0327
vn 0.1308 0.9904 0.044
vn 0.1308 0.9904 0.044
vn 0.1308 0.9904 0.044
vn 0.1257 0.9909 0.0484
vn 0.1257 0.9909 0.0484
vn 0.1257 0.9909 0.0484
vn 0.1279 0.9909 0.041
vn 0.1279 0.9909 0.041
vn 0.1279 0.9909 0.041
vn 0.0965 0.9943 0.0452
vn 0.0965 0.9943 0.0452
vn 0.0965 0.9943 0.0452
vn 0.1172 0.9922 0.0426
vn 0.1172 0.9922 0.0426
vn 0.1172 0.9922 0.0426
vn 0.0969 0.9942 0.0457
vn 0.0969 0.9942 0.0457
vn 0.0969 0.9942 0.0457
vn 0.0906 0.9947 0.0493
vn 0.0906 0.9947 0.0493
vn 0.0906 0.9947 0.0493
vn 0.0906 0.9947 0.0493
vn 0.0906 0.9947 0.0493
vn 0.0906 0.9947 0.0493
vn 0.0906 0.9947 0.0493
vn 0.0906 0.9947 0.0493
vn 0.0906 0.9947 0.0493
vn 0.075 0.9954 0.059
vn 0.075 0.9954 0.059
vn 0.075 0.9954 0.059
vn 0.0388 0.9984 0.0421
vn 0.0388 0.9984 0.0421
vn 0.0388 0.9984 0.0421
vt 0.623132 0.536808
vt 0.621778 0.535625
vt 0.620988 0.537295
vt 0.622359 0.538161
vt 0.61957 0.538538
vt 0.620949 0.539544
vt 0.620988 0.537295
vt 0.622359 0.538161
vt 0.620988 0.537295
vt 0.620949 0.539544
vt 0.621778 0.535625
vt 0.623132 0.536808
vt 0.623564 0.534802
vt 0.623564 0.534802
vt 0.623226 0.532298
vt 0.621818 0.533773
vt 0.623564 0.534802
vt 0.621818 0.533773
vt 0.621778 0.535625
vt 0.621434 0.532448
vt 0.621818 0.533773
vt 0.623226 0.532298
vt 0.621434 0.532448
vt 0.621799 0.530032
vt 0.620471 0.531148
vt 0.621434 0.532448
vt 0.623226 0.532298
vt 0.621799 0.530032
vt 0.61925 0.530322
vt 0.621799 0.530032
vt 0.619416 0.528621
vt 0.61925 0.530322
vt 0.620471 0.531148
vt 0.621799 0.530032
vt 0.61925 0.530322
vt 0.619416 0.528621
vt 0.617104 0.529864
vt 0.614729 0.530495
vt 0.617104 0.529864
vt 0.615415 0.528502
vt 0.617322 0.528299
vt 0.617104 0.529864
vt 0.619416 0.528621
vt 0.617322 0.528299
vt 0.615415 0.528502
vt 0.617104 0.529864
vt 0.614729 0.530495
vt 0.615415 0.528502
vt 0.613414 0.52937
vt 0.611739 0.531089
vt 0.613422 0.531643
vt 0.613414 0.52937
vt 0.613422 0.531643
vt 0.614729 0.530495
vt 0.613414 0.52937
vt 0.612787 0.532785
vt 0.613422 0.531643
vt 0.611739 0.531089
vt 0.610855 0.533349
vt 0.61248 0.534408
vt 0.612787 0.532785
vt 0.610855 0.533349
vt 0.612787 0.532785
vt 0.611739 0.531089
vt 0.61248 0.534408
vt 0.610855 0.533349
vt 0.610916 0.535985
vt 0.612899 0.536571
vt 0.610916 0.535985
vt 0.611892 0.538042
vt 0.61248 0.534408
vt 0.610916 0.535985
vt 0.612899 0.536571
vt 0.614363 0.538255
vt 0.612899 0.536571
vt 0.613239 0.539411
vt 0.612899 0.536571
vt 0.611892 0.538042
vt 0.613239 0.539411
vt 0.613239 0.539411
vt 0.615613 0.540495
vt 0.614363 0.538255
vt 0.617768 0.539055
vt 0.615613 0.540495
vt 0.618655 0.540498
vt 0.616129 0.538999
vt 0.615613 0.540495
vt 0.617768 0.539055
vt 0.616129 0.538999
vt 0.614363 0.538255
vt 0.615613 0.540495
vt 0.618655 0.540498
vt 0.61957 0.538538
vt 0.617768 0.539055
vt 0.620949 0.539544
vt 0.61957 0.538538
vt 0.618655 0.540498
s off
f 1/1/1 2/2/2 3/3/3
f 1/1/1 3/3/3 4/4/4
f 5/5/5 6/6/6 7/7/7
f 8/8/8 9/9/9 10/10/10
f 11/11/11 12/12/12 13/13/13
f 14/14/14 15/15/15 16/16/16
f 17/17/17 18/18/18 19/19/19
f 20/20/20 21/21/21 22/22/22
f 23/23/23 24/24/24 25/25/25
f 26/26/26 27/27/27 28/28/28
f 29/29/29 30/30/30 31/31/31
f 32/32/32 33/33/33 34/34/34
f 35/35/35 36/36/36 37/37/37
f 38/38/38 39/39/39 40/40/40
f 41/41/41 42/42/42 43/43/43
f 44/44/44 45/45/45 46/46/46
f 47/47/47 48/48/48 49/49/49
f 50/50/50 51/51/51 52/52/52
f 53/53/53 54/54/54 55/55/55
f 56/56/56 57/57/57 58/58/58
f 59/59/59 60/60/60 61/61/61
f 62/62/62 63/63/63 64/64/64
f 65/65/65 66/66/66 67/67/67
f 68/68/68 69/69/69 70/70/70
f 71/71/71 72/72/72 73/73/73
f 74/74/74 75/75/75 76/76/76
f 77/77/77 78/78/78 79/79/79
f 80/80/80 81/81/81 82/82/82
f 83/83/83 84/84/84 85/85/85
f 86/86/86 87/87/87 88/88/88
f 89/89/89 90/90/90 91/91/91
f 92/92/92 93/93/93 94/94/94
f 95/95/95 96/96/96 97/97/97
