v 0.361365 0.128994 5.7e-05
v 0.332929 0.128994 5.7e-05
v 0.332921 0.117732 -0.000313
v 0.361365 0.117732 -0.000313
v 0.361365 0.128994 5.7e-05
v 0.361365 0.117732 -0.000313
v 0.382811 0.117732 -0.000313
v 0.382811 0.128994 5.7e-05
v 0.324085 0.117853 -0.003998
v 0.332921 0.117732 -0.000313
v 0.332929 0.128994 5.7e-05
v 0.324087 0.129116 -0.003631
v 0.324087 0.129116 -0.003631
v 0.332929 0.128994 5.7e-05
v 0.339938 0.176984 -0.014527
v 0.334214 0.178434 -0.021225
v 0.320425 0.129408 -0.012535
v 0.339938 0.176984 -0.014527
v 0.332929 0.128994 5.7e-05
v 0.361365 0.128994 5.7e-05
v 0.361483 0.174184 -0.013676
v 0.342067 0.179479 -0.017963
v 0.337611 0.180651 -0.023267
v 0.334214 0.178434 -0.021225
v 0.339938 0.176984 -0.014527
v 0.362353 0.176864 -0.017171
v 0.342067 0.179479 -0.017963
v 0.339938 0.176984 -0.014527
v 0.361483 0.174184 -0.013676
v 0.382811 0.176 -0.016905
v 0.362353 0.176864 -0.017171
v 0.361483 0.174184 -0.013676
v 0.382811 0.173259 -0.013395
v 0.361483 0.174184 -0.013676
v 0.361365 0.128994 5.7e-05
v 0.382811 0.128994 5.7e-05
v 0.382811 0.173259 -0.013395
v 0.403269 0.176864 -0.017171
v 0.382811 0.176 -0.016905
v 0.382811 0.173259 -0.013395
v 0.404139 0.174184 -0.013676
v 0.382811 0.173259 -0.013395
v 0.382811 0.128994 5.7e-05
v 0.404257 0.128994 5.7e-05
v 0.404139 0.174184 -0.013676
v 0.382811 0.128994 5.7e-05
v 0.382811 0.117732 -0.000313
v 0.404257 0.117732 -0.000313
v 0.404257 0.128994 5.7e-05
v 0.432702 0.117732 -0.000313
v 0.432694 0.128994 5.7e-05
v 0.404257 0.128994 5.7e-05
v 0.404257 0.117732 -0.000313
v 0.404257 0.128994 5.7e-05
v 0.432694 0.128994 5.7e-05
v 0.425685 0.176984 -0.014527
v 0.404139 0.174184 -0.013676
v 0.432702 0.117732 -0.000313
v 0.441537 0.117853 -0.003998
v 0.441535 0.129116 -0.003631
v 0.432694 0.128994 5.7e-05
v 0.441535 0.129116 -0.003631
v 0.445197 0.129408 -0.012535
v 0.431408 0.178434 -0.021224
v 0.425685 0.176984 -0.014527
v 0.432694 0.128994 5.7e-05
v 0.428011 0.180651 -0.023267
v 0.423555 0.179479 -0.017963
v 0.425685 0.176984 -0.014527
v 0.431408 0.178434 -0.021224
v 0.423555 0.179479 -0.017963
v 0.403269 0.176864 -0.017171
v 0.404139 0.174184 -0.013676
v 0.425685 0.176984 -0.014527
v 0.428011 0.180651 -0.023267
v 0.431408 0.178434 -0.021224
v 0.431413 0.181201 -0.105899
v 0.427998 0.183408 -0.103896
v 0.445197 0.132684 -0.11222
v 0.431413 0.181201 -0.105899
v 0.431408 0.178434 -0.021224
v 0.445197 0.129408 -0.012535
v 0.441537 0.117853 -0.003998
v 0.445197 0.118146 -0.012893
v 0.445197 0.129408 -0.012535
v 0.441535 0.129116 -0.003631
v 0.445197 0.118146 -0.012893
v 0.445197 0.121422 -0.112596
v 0.445197 0.132684 -0.11222
v 0.445197 0.129408 -0.012535
v 0.441531 0.132972 -0.121008
v 0.445197 0.132684 -0.11222
v 0.445197 0.121422 -0.112596
v 0.441534 0.12171 -0.121379
v 0.425514 0.180584 -0.112264
v 0.431413 0.181201 -0.105899
v 0.445197 0.132684 -0.11222
v 0.441531 0.132972 -0.121008
v 0.432681 0.133092 -0.124648
v 0.432681 0.133092 -0.124648
v 0.441531 0.132972 -0.121008
v 0.441534 0.12171 -0.121379
v 0.43269 0.12183 -0.125018
v 0.404257 0.133092 -0.124648
v 0.432681 0.133092 -0.124648
v 0.43269 0.12183 -0.125018
v 0.404257 0.12183 -0.125018
v 0.404257 0.133092 -0.124648
v 0.404257 0.12183 -0.125018
v 0.382811 0.12183 -0.125018
v 0.382811 0.133092 -0.124648
v 0.404006 0.178853 -0.112715
v 0.404257 0.133092 -0.124648
v 0.382811 0.133092 -0.124648
v 0.382811 0.178285 -0.112864
v 0.425514 0.180584 -0.112264
v 0.432681 0.133092 -0.124648
v 0.404257 0.133092 -0.124648
v 0.404006 0.178853 -0.112715
v 0.382811 0.180724 -0.109482
v 0.403142 0.181268 -0.109344
v 0.404006 0.178853 -0.112715
v 0.382811 0.178285 -0.112864
v 0.403142 0.181268 -0.109344
v 0.423399 0.182924 -0.108929
v 0.425514 0.180584 -0.112264
v 0.404006 0.178853 -0.112715
v 0.423399 0.182924 -0.108929
v 0.427998 0.183408 -0.103896
v 0.431413 0.181201 -0.105899
v 0.425514 0.180584 -0.112264
v 0.414799 0.181227 -0.095673
v 0.427998 0.183408 -0.103896
v 0.423399 0.182924 -0.108929
v 0.414799 0.181227 -0.095673
v 0.423399 0.182924 -0.108929
v 0.403142 0.181268 -0.109344
v 0.398838 0.179782 -0.09584
v 0.398838 0.179782 -0.09584
v 0.39889 0.176558 -0.030684
v 0.414864 0.178461 -0.031064
v 0.414799 0.181227 -0.095673
v 0.427998 0.183408 -0.103896
v 0.414799 0.181227 -0.095673
v 0.414864 0.178461 -0.031064
v 0.428011 0.180651 -0.023267
v 0.423555 0.179479 -0.017963
v 0.414864 0.178461 -0.031064
v 0.39889 0.176558 -0.030684
v 0.403269 0.176864 -0.017171
v 0.423555 0.179479 -0.017963
v 0.428011 0.180651 -0.023267
v 0.414864 0.178461 -0.031064
v 0.382811 0.17936 -0.095885
v 0.382811 0.176014 -0.030581
v 0.39889 0.176558 -0.030684
v 0.398838 0.179782 -0.09584
v 0.403269 0.176864 -0.017171
v 0.39889 0.176558 -0.030684
v 0.382811 0.176014 -0.030581
v 0.382811 0.176 -0.016905
v 0.366784 0.179782 -0.09584
v 0.366732 0.176558 -0.030684
v 0.382811 0.176014 -0.030581
v 0.382811 0.17936 -0.095885
v 0.382811 0.176 -0.016905
v 0.382811 0.176014 -0.030581
v 0.366732 0.176558 -0.030684
v 0.362353 0.176864 -0.017171
v 0.398838 0.179782 -0.09584
v 0.403142 0.181268 -0.109344
v 0.382811 0.180724 -0.109482
v 0.382811 0.17936 -0.095885
v 0.382811 0.17936 -0.095885
v 0.382811 0.180724 -0.109482
v 0.362481 0.181268 -0.109344
v 0.366784 0.179782 -0.09584
v 0.362481 0.181268 -0.109344
v 0.382811 0.180724 -0.109482
v 0.382811 0.178285 -0.112864
v 0.361617 0.178853 -0.112715
v 0.342223 0.182924 -0.108929
v 0.362481 0.181268 -0.109344
v 0.361617 0.178853 -0.112715
v 0.340108 0.180584 -0.112264
v 0.366784 0.179782 -0.09584
v 0.362481 0.181268 -0.109344
v 0.342223 0.182924 -0.108929
v 0.350823 0.181227 -0.095673
v 0.337624 0.183408 -0.103896
v 0.342223 0.182924 -0.108929
v 0.340108 0.180584 -0.112264
v 0.33421 0.181201 -0.105899
v 0.337624 0.183408 -0.103896
v 0.350823 0.181227 -0.095673
v 0.342223 0.182924 -0.108929
v 0.350823 0.181227 -0.095673
v 0.350758 0.178461 -0.031064
v 0.366732 0.176558 -0.030684
v 0.366784 0.179782 -0.09584
v 0.350823 0.181227 -0.095673
v 0.337624 0.183408 -0.103896
v 0.337611 0.180651 -0.023267
v 0.350758 0.178461 -0.031064
v 0.362353 0.176864 -0.017171
v 0.366732 0.176558 -0.030684
v 0.350758 0.178461 -0.031064
v 0.342067 0.179479 -0.017963
v 0.337611 0.180651 -0.023267
v 0.342067 0.179479 -0.017963
v 0.350758 0.178461 -0.031064
v 0.33421 0.181201 -0.105899
v 0.334214 0.178434 -0.021225
v 0.337611 0.180651 -0.023267
v 0.337624 0.183408 -0.103896
v 0.33421 0.181201 -0.105899
v 0.320425 0.132684 -0.11222
v 0.320425 0.129408 -0.012535
v 0.334214 0.178434 -0.021225
v 0.324091 0.132972 -0.121008
v 0.320425 0.132684 -0.11222
v 0.33421 0.181201 -0.105899
v 0.340108 0.180584 -0.112264
v 0.332941 0.133092 -0.124648
v 0.324089 0.12171 -0.121379
v 0.320425 0.121422 -0.112596
v 0.320425 0.132684 -0.11222
v 0.324091 0.132972 -0.121008
v 0.320425 0.121422 -0.112596
v 0.320425 0.118146 -0.012893
v 0.320425 0.129408 -0.012535
v 0.320425 0.132684 -0.11222
v 0.320425 0.118146 -0.012893
v 0.324085 0.117853 -0.003998
v 0.324087 0.129116 -0.003631
v 0.320425 0.129408 -0.012535
v 0.332932 0.12183 -0.125018
v 0.324089 0.12171 -0.121379
v 0.324091 0.132972 -0.121008
v 0.332941 0.133092 -0.124648
v 0.332932 0.12183 -0.125018
v 0.332941 0.133092 -0.124648
v 0.361365 0.133092 -0.124648
v 0.361365 0.12183 -0.125018
v 0.382811 0.133092 -0.124648
v 0.382811 0.12183 -0.125018
v 0.361365 0.12183 -0.125018
v 0.361365 0.133092 -0.124648
v 0.382811 0.178285 -0.112864
v 0.382811 0.133092 -0.124648
v 0.361365 0.133092 -0.124648
v 0.361617 0.178853 -0.112715
v 0.361365 0.133092 -0.124648
v 0.332941 0.133092 -0.124648
v 0.340108 0.180584 -0.112264
v 0.361617 0.178853 -0.112715
vn -0 -0.0328 0.9995
vn -0.0986 -0.0326 0.9946
vn -0.0986 -0.0325 0.9946
vn -0 -0.0328 0.9995
vn -0 -0.0328 0.9995
vn -0 -0.0328 0.9995
vn -0 -0.0328 0.9995
vn -0 -0.0328 0.9995
vn -0.709 -0.0228 0.7049
vn -0.0986 -0.0325 0.9946
vn -0.0986 -0.0326 0.9946
vn -0.7098 -0.0228 0.7041
vn -0.6699 0.338 0.6611
vn -0.0882 0.3019 0.9492
vn -0.0789 0.3411 0.9367
vn -0.9622 0.2723 0.0089
vn -0.9619 0.273 0.0126
vn -0.0789 0.3411 0.9367
vn -0.0882 0.3019 0.9492
vn -0 0.2908 0.9568
vn 0.0044 0.3372 0.9414
vn 0.1684 0.9849 0.0407
vn 0.1803 0.9825 0.0477
vn -0.9622 0.2723 0.0089
vn -0.0789 0.3411 0.9367
vn 0.0887 0.996 0.0086
vn 0.1684 0.9849 0.0407
vn -0.0789 0.3411 0.9367
vn 0.0044 0.3372 0.9414
vn -0 1 -0.0007
vn 0.0887 0.996 0.0086
vn 0.0044 0.3372 0.9414
vn 0.0003 0.3416 0.9398
vn 0.0044 0.3372 0.9414
vn -0 0.2908 0.9568
vn -0 0.2908 0.9568
vn 0.0003 0.3416 0.9398
vn -0.0887 0.996 0.0086
vn -0 1 -0.0007
vn 0.0003 0.3416 0.9398
vn -0.0044 0.3372 0.9414
vn 0.0003 0.3416 0.9398
vn -0 0.2908 0.9568
vn -0 0.2908 0.9568
vn -0.0044 0.3372 0.9414
vn -0 -0.0328 0.9995
vn -0 -0.0328 0.9995
vn -0 -0.0328 0.9995
vn -0 -0.0328 0.9995
vn 0.0986 -0.0327 0.9946
vn 0.0986 -0.0325 0.9946
vn -0 -0.0328 0.9995
vn -0 -0.0328 0.9995
vn -0 0.2908 0.9568
vn 0.0882 0.3019 0.9492
vn 0.0788 0.3411 0.9367
vn -0.0044 0.3372 0.9414
vn 0.0986 -0.0327 0.9946
vn 0.7097 -0.0228 0.7041
vn 0.7093 -0.0228 0.7045
vn 0.0986 -0.0325 0.9946
vn 0.6699 0.338 0.6611
vn 0.9619 0.273 0.0126
vn 0.9622 0.2723 0.0089
vn 0.0788 0.3411 0.9367
vn 0.0882 0.3019 0.9492
vn -0.1803 0.9825 0.0477
vn -0.1684 0.9849 0.0407
vn 0.0788 0.3411 0.9367
vn 0.9622 0.2723 0.0089
vn -0.1684 0.9849 0.0407
vn -0.0887 0.996 0.0086
vn -0.0044 0.3372 0.9414
vn 0.0788 0.3411 0.9367
vn -0.1803 0.9825 0.0477
vn 0.9622 0.2723 0.0089
vn 0.9622 0.2723 0.0089
vn -0.147 0.9885 0.0357
vn 0.962 0.2729 0.0052
vn 0.9622 0.2723 0.0089
vn 0.9622 0.2723 0.0089
vn 0.9619 0.273 0.0126
vn 0.7097 -0.0228 0.7041
vn 0.9993 -0.001 0.0375
vn 0.9993 -0.0012 0.0375
vn 0.7093 -0.0228 0.7045
vn 0.9993 -0.001 0.0375
vn 0.9993 0.0012 -0.0375
vn 0.9993 0.0013 -0.0376
vn 0.9993 -0.0012 0.0375
vn 0.7055 0.0235 -0.7083
vn 0.9993 0.0013 -0.0376
vn 0.9993 0.0012 -0.0375
vn 0.7053 0.0235 -0.7085
vn 0.0792 0.3028 -0.9498
vn 0.9622 0.2723 0.0089
vn 0.962 0.2729 0.0052
vn 0.6779 0.3144 -0.6646
vn 0.0887 0.2643 -0.9604
vn 0.0973 0.0327 -0.9947
vn 0.7055 0.0235 -0.7083
vn 0.7053 0.0235 -0.7085
vn 0.0973 0.0328 -0.9947
vn -0 0.0328 -0.9995
vn 0.0973 0.0327 -0.9947
vn 0.0973 0.0328 -0.9947
vn -0 0.0328 -0.9995
vn -0 0.0328 -0.9995
vn -0 0.0328 -0.9995
vn -0 0.0328 -0.9995
vn -0 0.0328 -0.9995
vn -0.0029 0.3013 -0.9535
vn -0 0.2523 -0.9676
vn -0 0.2523 -0.9676
vn -0.0003 0.3055 -0.9522
vn 0.0792 0.3028 -0.9498
vn 0.0887 0.2643 -0.9604
vn -0 0.2523 -0.9676
vn -0.0029 0.3013 -0.9535
vn -0 0.9953 0.0965
vn -0.0622 0.9947 0.0823
vn -0.0029 0.3013 -0.9535
vn -0.0003 0.3055 -0.9522
vn -0.0622 0.9947 0.0823
vn -0.1223 0.9914 0.0471
vn 0.0792 0.3028 -0.9498
vn -0.0029 0.3013 -0.9535
vn -0.1223 0.9914 0.0471
vn -0.147 0.9885 0.0357
vn 0.9622 0.2723 0.0089
vn 0.0792 0.3028 -0.9498
vn -0.1206 0.9913 0.0528
vn -0.147 0.9885 0.0357
vn -0.1223 0.9914 0.0471
vn -0.1206 0.9913 0.0528
vn -0.1223 0.9914 0.0471
vn -0.0622 0.9947 0.0823
vn -0.0588 0.9958 0.0695
vn -0.0588 0.9958 0.0695
vn -0.0698 0.9973 0.0249
vn -0.1368 0.9901 0.0319
vn -0.1206 0.9913 0.0528
vn -0.147 0.9885 0.0357
vn -0.1206 0.9913 0.0528
vn -0.1368 0.9901 0.0319
vn -0.1803 0.9825 0.0477
vn -0.1684 0.9849 0.0407
vn -0.1368 0.9901 0.0319
vn -0.0698 0.9973 0.0249
vn -0.0887 0.996 0.0086
vn -0.1684 0.9849 0.0407
vn -0.1803 0.9825 0.0477
vn -0.1368 0.9901 0.0319
vn -0 0.9972 0.0754
vn -0 0.9997 0.0228
vn -0.0698 0.9973 0.0249
vn -0.0588 0.9958 0.0695
vn -0.0887 0.996 0.0086
vn -0.0698 0.9973 0.0249
vn -0 0.9997 0.0228
vn -0 1 -0.0007
vn 0.0588 0.9958 0.0695
vn 0.0698 0.9973 0.0249
vn -0 0.9997 0.0228
vn -0 0.9972 0.0754
vn -0 1 -0.0007
vn -0 0.9997 0.0228
vn 0.0698 0.9973 0.0249
vn 0.0887 0.996 0.0086
vn -0.0588 0.9958 0.0695
vn -0.0622 0.9947 0.0823
vn -0 0.9953 0.0965
vn -0 0.9972 0.0754
vn -0 0.9972 0.0754
vn -0 0.9953 0.0965
vn 0.0622 0.9947 0.0823
vn 0.0588 0.9958 0.0695
vn 0.0622 0.9947 0.0823
vn -0 0.9953 0.0965
vn -0.0003 0.3055 -0.9522
vn 0.0029 0.3013 -0.9535
vn 0.1223 0.9914 0.0471
vn 0.0622 0.9947 0.0823
vn 0.0029 0.3013 -0.9535
vn -0.0792 0.3027 -0.9498
vn 0.0588 0.9958 0.0695
vn 0.0622 0.9947 0.0823
vn 0.1223 0.9914 0.0471
vn 0.1206 0.9913 0.0528
vn 0.147 0.9885 0.0358
vn 0.1223 0.9914 0.0471
vn -0.0792 0.3027 -0.9498
vn -0.9622 0.2723 0.0089
vn 0.147 0.9885 0.0358
vn 0.1206 0.9913 0.0528
vn 0.1223 0.9914 0.0471
vn 0.1206 0.9913 0.0528
vn 0.1368 0.9901 0.0319
vn 0.0698 0.9973 0.0249
vn 0.0588 0.9958 0.0695
vn 0.1206 0.9913 0.0528
vn 0.147 0.9885 0.0358
vn 0.1803 0.9825 0.0477
vn 0.1368 0.9901 0.0319
vn 0.0887 0.996 0.0086
vn 0.0698 0.9973 0.0249
vn 0.1368 0.9901 0.0319
vn 0.1684 0.9849 0.0407
vn 0.1803 0.9825 0.0477
vn 0.1684 0.9849 0.0407
vn 0.1368 0.9901 0.0319
vn -0.9622 0.2723 0.0089
vn -0.9622 0.2723 0.0089
vn 0.1803 0.9825 0.0477
vn 0.147 0.9885 0.0358
vn -0.9622 0.2723 0.0089
vn -0.962 0.2729 0.0052
vn -0.9619 0.273 0.0126
vn -0.9622 0.2723 0.0089
vn -0.6779 0.3144 -0.6646
vn -0.962 0.2729 0.0052
vn -0.9622 0.2723 0.0089
vn -0.0792 0.3027 -0.9498
vn -0.0887 0.2643 -0.9604
vn -0.7047 0.0236 -0.7091
vn -0.9993 0.0013 -0.0375
vn -0.9993 0.0012 -0.0376
vn -0.7048 0.0235 -0.709
vn -0.9993 0.0013 -0.0375
vn -0.9993 -0.0012 0.0375
vn -0.9993 -0.001 0.0375
vn -0.9993 0.0012 -0.0376
vn -0.9993 -0.0012 0.0375
vn -0.709 -0.0228 0.7049
vn -0.7098 -0.0228 0.7041
vn -0.9993 -0.001 0.0375
vn -0.0973 0.0328 -0.9947
vn -0.7047 0.0236 -0.7091
vn -0.7048 0.0235 -0.709
vn -0.0973 0.0328 -0.9947
vn -0.0973 0.0328 -0.9947
vn -0.0973 0.0328 -0.9947
vn -0 0.0328 -0.9995
vn -0 0.0328 -0.9995
vn -0 0.0328 -0.9995
vn -0 0.0328 -0.9995
vn -0 0.0328 -0.9995
vn -0 0.0328 -0.9995
vn -0.0003 0.3055 -0.9522
vn -0 0.2523 -0.9676
vn -0 0.2523 -0.9676
vn 0.0029 0.3013 -0.9535
vn -0 0.2523 -0.9676
vn -0.0887 0.2643 -0.9604
vn -0.0792 0.3027 -0.9498
vn 0.0029 0.3013 -0.9535
vt 0.677192 0.184502
vt 0.663811 0.184592
vt 0.663245 0.186256
vt 0.677192 0.186256
vt 0.677192 0.184502
vt 0.677192 0.186256
vt 0.687708 0.186256
vt 0.687708 0.184502
vt 0.658912 0.184449
vt 0.663245 0.186256
vt 0.663811 0.184592
vt 0.660284 0.183269
vt 0.660284 0.183269
vt 0.663811 0.184592
vt 0.669997 0.175516
vt 0.667632 0.172749
vt 0.658957 0.179689
vt 0.669997 0.175516
vt 0.663811 0.184592
vt 0.677192 0.184502
vt 0.678897 0.175867
vt 0.670876 0.174096
vt 0.669036 0.171905
vt 0.667632 0.172749
vt 0.669997 0.175516
vt 0.679257 0.174423
vt 0.670876 0.174096
vt 0.669997 0.175516
vt 0.678897 0.175867
vt 0.687708 0.174533
vt 0.679257 0.174423
vt 0.678897 0.175867
vt 0.687708 0.175984
vt 0.678897 0.175867
vt 0.677192 0.184502
vt 0.687708 0.184502
vt 0.687708 0.175984
vt 0.69616 0.174423
vt 0.687708 0.174533
vt 0.687708 0.175984
vt 0.696519 0.175867
vt 0.687708 0.175984
vt 0.687708 0.184502
vt 0.698224 0.184502
vt 0.696519 0.175867
vt 0.687708 0.184502
vt 0.687708 0.186256
vt 0.698224 0.186256
vt 0.698224 0.184502
vt 0.712172 0.186256
vt 0.711605 0.184592
vt 0.698224 0.184502
vt 0.698224 0.186256
vt 0.698224 0.184502
vt 0.711605 0.184592
vt 0.70542 0.175516
vt 0.696519 0.175867
vt 0.712172 0.186256
vt 0.716504 0.184449
vt 0.715133 0.183269
vt 0.711605 0.184592
vt 0.715133 0.183269
vt 0.71646 0.179689
vt 0.707784 0.172749
vt 0.70542 0.175516
vt 0.711605 0.184592
vt 0.706381 0.171905
vt 0.70454 0.174096
vt 0.70542 0.175516
vt 0.707784 0.172749
vt 0.70454 0.174096
vt 0.69616 0.174423
vt 0.696519 0.175867
vt 0.70542 0.175516
vt 0.706381 0.171905
vt 0.707784 0.172749
vt 0.707786 0.137769
vt 0.706375 0.138596
vt 0.716451 0.131929
vt 0.707786 0.137769
vt 0.707784 0.172749
vt 0.71646 0.179689
vt 0.716504 0.184449
vt 0.718299 0.180088
vt 0.71646 0.179689
vt 0.715133 0.183269
vt 0.718299 0.180088
vt 0.718299 0.131199
vt 0.716451 0.131929
vt 0.71646 0.179689
vt 0.715135 0.128433
vt 0.716451 0.131929
vt 0.718299 0.131199
vt 0.716502 0.126892
vt 0.705349 0.135139
vt 0.707786 0.137769
vt 0.716451 0.131929
vt 0.715135 0.128433
vt 0.711594 0.127128
vt 0.711594 0.127128
vt 0.715135 0.128433
vt 0.716502 0.126892
vt 0.712166 0.125108
vt 0.698224 0.127221
vt 0.711594 0.127128
vt 0.712166 0.125108
vt 0.698224 0.125108
vt 0.698224 0.127221
vt 0.698224 0.125108
vt 0.687708 0.125108
vt 0.687708 0.127221
vt 0.696464 0.134953
vt 0.698224 0.127221
vt 0.687708 0.127221
vt 0.687708 0.134892
vt 0.705349 0.135139
vt 0.711594 0.127128
vt 0.698224 0.127221
vt 0.696464 0.134953
vt 0.687708 0.136288
vt 0.696107 0.136346
vt 0.696464 0.134953
vt 0.687708 0.134892
vt 0.696107 0.136346
vt 0.704476 0.136517
vt 0.705349 0.135139
vt 0.696464 0.134953
vt 0.704476 0.136517
vt 0.706375 0.138596
vt 0.707786 0.137769
vt 0.705349 0.135139
vt 0.700923 0.141993
vt 0.706375 0.138596
vt 0.704476 0.136517
vt 0.700923 0.141993
vt 0.704476 0.136517
vt 0.696107 0.136346
vt 0.694329 0.141924
vt 0.694329 0.141924
vt 0.694351 0.168841
vt 0.70095 0.168684
vt 0.700923 0.141993
vt 0.706375 0.138596
vt 0.700923 0.141993
vt 0.70095 0.168684
vt 0.706381 0.171905
vt 0.70454 0.174096
vt 0.70095 0.168684
vt 0.694351 0.168841
vt 0.69616 0.174423
vt 0.70454 0.174096
vt 0.706381 0.171905
vt 0.70095 0.168684
vt 0.687708 0.141906
vt 0.687708 0.168884
vt 0.694351 0.168841
vt 0.694329 0.141924
vt 0.69616 0.174423
vt 0.694351 0.168841
vt 0.687708 0.168884
vt 0.687708 0.174533
vt 0.681087 0.141924
vt 0.681066 0.168841
vt 0.687708 0.168884
vt 0.687708 0.141906
vt 0.687708 0.174533
vt 0.687708 0.168884
vt 0.681066 0.168841
vt 0.679257 0.174423
vt 0.694329 0.141924
vt 0.696107 0.136346
vt 0.687708 0.136288
vt 0.687708 0.141906
vt 0.687708 0.141906
vt 0.687708 0.136288
vt 0.679309 0.136346
vt 0.681087 0.141924
vt 0.679309 0.136346
vt 0.687708 0.136288
vt 0.687708 0.134892
vt 0.678952 0.134953
vt 0.670941 0.136517
vt 0.679309 0.136346
vt 0.678952 0.134953
vt 0.670067 0.135139
vt 0.681087 0.141924
vt 0.679309 0.136346
vt 0.670941 0.136517
vt 0.674493 0.141993
vt 0.669041 0.138596
vt 0.670941 0.136517
vt 0.670067 0.135139
vt 0.66763 0.137769
vt 0.669041 0.138596
vt 0.674493 0.141993
vt 0.670941 0.136517
vt 0.674493 0.141993
vt 0.674467 0.168684
vt 0.681066 0.168841
vt 0.681087 0.141924
vt 0.674493 0.141993
vt 0.669041 0.138596
vt 0.669036 0.171905
vt 0.674467 0.168684
vt 0.679257 0.174423
vt 0.681066 0.168841
vt 0.674467 0.168684
vt 0.670876 0.174096
vt 0.669036 0.171905
vt 0.670876 0.174096
vt 0.674467 0.168684
vt 0.66763 0.137769
vt 0.667632 0.172749
vt 0.669036 0.171905
vt 0.669041 0.138596
vt 0.66763 0.137769
vt 0.658966 0.131929
vt 0.658957 0.179689
vt 0.667632 0.172749
vt 0.660281 0.128433
vt 0.658966 0.131929
vt 0.66763 0.137769
vt 0.670067 0.135139
vt 0.663822 0.127128
vt 0.658914 0.126892
vt 0.657118 0.131199
vt 0.658966 0.131929
vt 0.660281 0.128433
vt 0.657118 0.131199
vt 0.657118 0.180088
vt 0.658957 0.179689
vt 0.658966 0.131929
vt 0.657118 0.180088
vt 0.658912 0.184449
vt 0.660284 0.183269
vt 0.658957 0.179689
vt 0.663251 0.125108
vt 0.658914 0.126892
vt 0.660281 0.128433
vt 0.663822 0.127128
vt 0.663251 0.125108
vt 0.663822 0.127128
vt 0.677193 0.127221
vt 0.677193 0.125108
vt 0.687708 0.127221
vt 0.687708 0.125108
vt 0.677193 0.125108
vt 0.677193 0.127221
vt 0.687708 0.134892
vt 0.687708 0.127221
vt 0.677193 0.127221
vt 0.678952 0.134953
vt 0.677193 0.127221
vt 0.663822 0.127128
vt 0.670067 0.135139
vt 0.678952 0.134953
s off
f 1/1/1 2/2/2 3/3/3
f 1/1/1 3/3/3 4/4/4
f 5/5/5 6/6/6 7/7/7
f 5/5/5 7/7/7 8/8/8
f 9/9/9 10/10/10 11/11/11
f 9/9/9 11/11/11 12/12/12
f 16/16/16 17/17/17 13/13/13
f 13/13/13 14/14/14 15/15/15
f 15/15/15 16/16/16 13/13/13
f 18/18/18 19/19/19 20/20/20
f 18/18/18 20/20/20 21/21/21
f 22/22/22 23/23/23 24/24/24
f 22/22/22 24/24/24 25/25/25
f 26/26/26 27/27/27 28/28/28
f 26/26/26 28/28/28 29/29/29
f 30/30/30 31/31/31 32/32/32
f 30/30/30 32/32/32 33/33/33
f 34/34/34 35/35/35 36/36/36
f 34/34/34 36/36/36 37/37/37
f 38/38/38 39/39/39 40/40/40
f 38/38/38 40/40/40 41/41/41
f 42/42/42 43/43/43 44/44/44
f 42/42/42 44/44/44 45/45/45
f 46/46/46 47/47/47 48/48/48
f 46/46/46 48/48/48 49/49/49
f 50/50/50 51/51/51 52/52/52
f 50/50/50 52/52/52 53/53/53
f 54/54/54 55/55/55 56/56/56
f 54/54/54 56/56/56 57/57/57
f 58/58/58 59/59/59 60/60/60
f 58/58/58 60/60/60 61/61/61
f 65/65/65 66/66/66 62/62/62
f 62/62/62 63/63/63 64/64/64
f 64/64/64 65/65/65 62/62/62
f 67/67/67 68/68/68 69/69/69
f 67/67/67 69/69/69 70/70/70
f 71/71/71 72/72/72 73/73/73
f 71/71/71 73/73/73 74/74/74
f 75/75/75 76/76/76 77/77/77
f 75/75/75 77/77/77 78/78/78
f 79/79/79 80/80/80 81/81/81
f 79/79/79 81/81/81 82/82/82
f 83/83/83 84/84/84 85/85/85
f 83/83/83 85/85/85 86/86/86
f 87/87/87 88/88/88 89/89/89
f 87/87/87 89/89/89 90/90/90
f 91/91/91 92/92/92 93/93/93
f 91/91/91 93/93/93 94/94/94
f 98/98/98 99/99/99 95/95/95
f 95/95/95 96/96/96 97/97/97
f 97/97/97 98/98/98 95/95/95
f 100/100/100 101/101/101 102/102/102
f 100/100/100 102/102/102 103/103/103
f 104/104/104 105/105/105 106/106/106
f 104/104/104 106/106/106 107/107/107
f 108/108/108 109/109/109 110/110/110
f 108/108/108 110/110/110 111/111/111
f 112/112/112 113/113/113 114/114/114
f 112/112/112 114/114/114 115/115/115
f 116/116/116 117/117/117 118/118/118
f 116/116/116 118/118/118 119/119/119
f 120/120/120 121/121/121 122/122/122
f 120/120/120 122/122/122 123/123/123
f 124/124/124 125/125/125 126/126/126
f 124/124/124 126/126/126 127/127/127
f 128/128/128 129/129/129 130/130/130
f 128/128/128 130/130/130 131/131/131
f 132/132/132 133/133/133 134/134/134
f 135/135/135 136/136/136 137/137/137
f 135/135/135 137/137/137 138/138/138
f 139/139/139 140/140/140 141/141/141
f 139/139/139 141/141/141 142/142/142
f 143/143/143 144/144/144 145/145/145
f 143/143/143 145/145/145 146/146/146
f 147/147/147 148/148/148 149/149/149
f 147/147/147 149/149/149 150/150/150
f 151/151/151 152/152/152 153/153/153
f 154/154/154 155/155/155 156/156/156
f 154/154/154 156/156/156 157/157/157
f 158/158/158 159/159/159 160/160/160
f 158/158/158 160/160/160 161/161/161
f 162/162/162 163/163/163 164/164/164
f 162/162/162 164/164/164 165/165/165
f 166/166/166 167/167/167 168/168/168
f 166/166/166 168/168/168 169/169/169
f 170/170/170 171/171/171 172/172/172
f 170/170/170 172/172/172 173/173/173
f 174/174/174 175/175/175 176/176/176
f 174/174/174 176/176/176 177/177/177
f 178/178/178 179/179/179 180/180/180
f 178/178/178 180/180/180 181/181/181
f 182/182/182 183/183/183 184/184/184
f 182/182/182 184/184/184 185/185/185
f 186/186/186 187/187/187 188/188/188
f 186/186/186 188/188/188 189/189/189
f 190/190/190 191/191/191 192/192/192
f 190/190/190 192/192/192 193/193/193
f 194/194/194 195/195/195 196/196/196
f 197/197/197 198/198/198 199/199/199
f 197/197/197 199/199/199 200/200/200
f 201/201/201 202/202/202 203/203/203
f 201/201/201 203/203/203 204/204/204
f 205/205/205 206/206/206 207/207/207
f 205/205/205 207/207/207 208/208/208
f 209/209/209 210/210/210 211/211/211
f 212/212/212 213/213/213 214/214/214
f 212/212/212 214/214/214 215/215/215
f 216/216/216 217/217/217 218/218/218
f 216/216/216 218/218/218 219/219/219
f 223/223/223 224/224/224 220/220/220
f 220/220/220 221/221/221 222/222/222
f 222/222/222 223/223/223 220/220/220
f 225/225/225 226/226/226 227/227/227
f 225/225/225 227/227/227 228/228/228
f 229/229/229 230/230/230 231/231/231
f 229/229/229 231/231/231 232/232/232
f 233/233/233 234/234/234 235/235/235
f 233/233/233 235/235/235 236/236/236
f 237/237/237 238/238/238 239/239/239
f 237/237/237 239/239/239 240/240/240
f 241/241/241 242/242/242 243/243/243
f 241/241/241 243/243/243 244/244/244
f 245/245/245 246/246/246 247/247/247
f 245/245/245 247/247/247 248/248/248
f 249/249/249 250/250/250 251/251/251
f 249/249/249 251/251/251 252/252/252
f 253/253/253 254/254/254 255/255/255
f 253/253/253 255/255/255 256/256/256
