v 0.366044 0.179406 -0.083985
v 0.363155 0.179644 -0.083466
v 0.36422 0.179393 -0.080362
v 0.368485 0.179376 -0.085866
v 0.366044 0.179406 -0.083985
v 0.370218 0.179163 -0.08272
v 0.367656 0.179171 -0.08116
v 0.370218 0.179163 -0.08272
v 0.366044 0.179406 -0.083985
v 0.367656 0.179171 -0.08116
v 0.366044 0.179406 -0.083985
v 0.36422 0.179393 -0.080362
v 0.363155 0.179644 -0.083466
v 0.356378 0.180106 -0.080338
v 0.36422 0.179393 -0.080362
v 0.356378 0.179739 -0.072918
v 0.356378 0.180106 -0.080338
v 0.352863 0.180154 -0.072918
v 0.352863 0.180154 -0.072918
v 0.356378 0.180106 -0.080338
v 0.356378 0.180261 -0.083463
v 0.363155 0.179644 -0.083466
v 0.356378 0.180261 -0.083463
v 0.356378 0.180106 -0.080338
v 0.356378 0.180261 -0.083463
v 0.356378 0.180807 -0.094476
v 0.352863 0.181313 -0.097522
v 0.356378 0.180261 -0.083463
v 0.352863 0.181313 -0.097522
v 0.352863 0.180154 -0.072918
v 0.364171 0.180284 -0.097506
v 0.352863 0.181313 -0.097522
v 0.356378 0.180807 -0.094476
v 0.364164 0.180096 -0.094448
v 0.367656 0.179991 -0.096701
v 0.364171 0.180284 -0.097506
v 0.364164 0.180096 -0.094448
v 0.364171 0.180284 -0.097506
v 0.356378 0.180807 -0.094476
v 0.364164 0.180096 -0.094448
v 0.366874 0.179809 -0.09353
v 0.367656 0.179991 -0.096701
v 0.366874 0.179809 -0.09353
v 0.368471 0.179687 -0.092039
v 0.370218 0.1798 -0.09514
v 0.366874 0.179809 -0.09353
v 0.370218 0.1798 -0.09514
v 0.367656 0.179991 -0.096701
v 0.368471 0.179687 -0.092039
v 0.372471 0.179574 -0.091898
v 0.370218 0.1798 -0.09514
v 0.369251 0.179524 -0.089253
v 0.372712 0.179337 -0.087397
v 0.372471 0.179574 -0.091898
v 0.368471 0.179687 -0.092039
v 0.369251 0.179524 -0.089253
v 0.372471 0.179574 -0.091898
v 0.368485 0.179376 -0.085866
v 0.372712 0.179337 -0.087397
v 0.369251 0.179524 -0.089253
v 0.372712 0.179337 -0.087397
v 0.368485 0.179376 -0.085866
v 0.371811 0.179225 -0.084745
v 0.368485 0.179376 -0.085866
v 0.370218 0.179163 -0.08272
v 0.371811 0.179225 -0.084745
vn 0.0906 0.9947 0.0493
vn 0.0906 0.9947 0.0493
vn 0.0906 0.9947 0.0493
vn 0.0452 0.9981 0.0424
vn 0.0452 0.9981 0.0424
vn 0.0452 0.9981 0.0424
vn 0.0397 0.9974 0.0606
vn 0.0397 0.9974 0.0606
vn 0.0397 0.9974 0.0606
vn 0.0741 0.9964 0.041
vn 0.0741 0.9964 0.041
vn 0.0741 0.9964 0.041
vn 0.0906 0.9947 0.0493
vn 0.0906 0.9947 0.0493
vn 0.0906 0.9947 0.0493
vn 0.1172 0.9919 0.0491
vn 0.1172 0.9919 0.0491
vn 0.1172 0.9919 0.0491
vn 0.1173 0.9919 0.0492
vn 0.1173 0.9919 0.0492
vn 0.1173 0.9919 0.0492
vn 0.0906 0.9947 0.0493
vn 0.0906 0.9947 0.0493
vn 0.0906 0.9947 0.0493
vn 0.1004 0.9937 0.0492
vn 0.1004 0.9937 0.0492
vn 0.1004 0.9937 0.0492
vn 0.1101 0.9928 0.0468
vn 0.1101 0.9928 0.0468
vn 0.1101 0.9928 0.0468
vn 0.0904 0.994 0.0609
vn 0.0904 0.994 0.0609
vn 0.0904 0.994 0.0609
vn 0.0695 0.9957 0.0612
vn 0.0695 0.9957 0.0612
vn 0.0695 0.9957 0.0612
vn 0.0905 0.994 0.0611
vn 0.0905 0.994 0.0611
vn 0.0905 0.994 0.0611
vn 0.0794 0.9939 0.0765
vn 0.0794 0.9939 0.0765
vn 0.0794 0.9939 0.0765
vn 0.0278 0.9983 0.0519
vn 0.0278 0.9983 0.0519
vn 0.0278 0.9983 0.0519
vn 0.0343 0.9973 0.0656
vn 0.0343 0.9973 0.0656
vn 0.0343 0.9973 0.0656
vn 0.0264 0.9983 0.0512
vn 0.0264 0.9983 0.0512
vn 0.0264 0.9983 0.0512
vn 0.0264 0.9983 0.0512
vn 0.0264 0.9983 0.0512
vn 0.0264 0.9983 0.0512
vn 0.0264 0.9983 0.0511
vn 0.0264 0.9983 0.0511
vn 0.0264 0.9983 0.0511
vn 0.0271 0.9984 0.0498
vn 0.0271 0.9984 0.0498
vn 0.0271 0.9984 0.0498
vn 0.0278 0.9983 0.0516
vn 0.0278 0.9983 0.0516
vn 0.0278 0.9983 0.0516
vn 0.0276 0.9983 0.0521
vn 0.0276 0.9983 0.0521
vn 0.0276 0.9983 0.0521
vt 0.680969 0.535079
vt 0.679558 0.535333
vt 0.680078 0.536848
vt 0.682161 0.534161
vt 0.680969 0.535079
vt 0.683007 0.535697
vt 0.681756 0.536459
vt 0.683007 0.535697
vt 0.680969 0.535079
vt 0.681756 0.536459
vt 0.680969 0.535079
vt 0.680078 0.536848
vt 0.679558 0.535333
vt 0.676249 0.53686
vt 0.680078 0.536848
vt 0.676249 0.540484
vt 0.676249 0.53686
vt 0.674532 0.540484
vt 0.674532 0.540484
vt 0.676249 0.53686
vt 0.676249 0.535334
vt 0.679558 0.535333
vt 0.676249 0.535334
vt 0.676249 0.53686
vt 0.676249 0.535334
vt 0.676249 0.529956
vt 0.674532 0.528468
vt 0.676249 0.535334
vt 0.674532 0.528468
vt 0.674532 0.540484
vt 0.680055 0.528476
vt 0.674532 0.528468
vt 0.676249 0.529956
vt 0.680051 0.52997
vt 0.681756 0.52887
vt 0.680055 0.528476
vt 0.680051 0.52997
vt 0.680055 0.528476
vt 0.676249 0.529956
vt 0.680051 0.52997
vt 0.681374 0.530418
vt 0.681756 0.52887
vt 0.681374 0.530418
vt 0.682154 0.531146
vt 0.683008 0.529632
vt 0.681374 0.530418
vt 0.683008 0.529632
vt 0.681756 0.52887
vt 0.682154 0.531146
vt 0.684108 0.531215
vt 0.683008 0.529632
vt 0.682535 0.532506
vt 0.684225 0.533413
vt 0.684108 0.531215
vt 0.682154 0.531146
vt 0.682535 0.532506
vt 0.684108 0.531215
vt 0.682161 0.534161
vt 0.684225 0.533413
vt 0.682535 0.532506
vt 0.684225 0.533413
vt 0.682161 0.534161
vt 0.683785 0.534708
vt 0.682161 0.534161
vt 0.683007 0.535697
vt 0.683785 0.534708
s off
f 1/1/1 2/2/2 3/3/3
f 4/4/4 5/5/5 6/6/6
f 7/7/7 8/8/8 9/9/9
f 10/10/10 11/11/11 12/12/12
f 13/13/13 14/14/14 15/15/15
f 16/16/16 17/17/17 18/18/18
f 19/19/19 20/20/20 21/21/21
f 22/22/22 23/23/23 24/24/24
f 25/25/25 26/26/26 27/27/27
f 28/28/28 29/29/29 30/30/30
f 31/31/31 32/32/32 33/33/33
f 34/34/34 35/35/35 36/36/36
f 37/37/37 38/38/38 39/39/39
f 40/40/40 41/41/41 42/42/42
f 43/43/43 44/44/44 45/45/45
f 46/46/46 47/47/47 48/48/48
f 49/49/49 50/50/50 51/51/51
f 52/52/52 53/53/53 54/54/54
f 55/55/55 56/56/56 57/57/57
f 58/58/58 59/59/59 60/60/60
f 61/61/61 62/62/62 63/63/63
f 64/64/64 65/65/65 66/66/66
