v 0.846601 0.201938 -0.288972
v 0.84457 0.201828 -0.2853
v 0.846601 0.201897 -0.2853
v 0.843804 0.204957 -0.357044
v 0.840699 0.204802 -0.356427
v 0.84309 0.204774 -0.355378
v 0.799437 0.203892 -0.298461
v 0.796601 0.204312 -0.299588
v 0.796333 0.204285 -0.297844
v 0.833353 0.20395 -0.345412
v 0.836649 0.204062 -0.345755
v 0.834196 0.204045 -0.347008
v 0.843884 0.204453 -0.349854
v 0.841017 0.204353 -0.349483
v 0.842385 0.20435 -0.348506
v 0.791564 0.205066 -0.294777
v 0.789477 0.20551 -0.296328
v 0.789758 0.205381 -0.294058
v 0.79978 0.205998 -0.352074
v 0.800833 0.205794 -0.349852
v 0.801846 0.20579 -0.352074
v 0.809372 0.2023 -0.286689
v 0.807067 0.20258 -0.287096
v 0.81058 0.202137 -0.284965
v 0.807067 0.20258 -0.287096
v 0.805076 0.202834 -0.288595
v 0.804351 0.202901 -0.286729
v 0.83497 0.204683 -0.356956
v 0.835954 0.20455 -0.355231
v 0.837407 0.204701 -0.35638
v 0.832541 0.201403 -0.2853
v 0.834572 0.201934 -0.299517
v 0.832541 0.201866 -0.299517
v 0.825864 0.201787 -0.297286
v 0.824546 0.201932 -0.299567
v 0.823702 0.201882 -0.297796
v 0.824814 0.201567 -0.291469
v 0.824261 0.201507 -0.289675
v 0.826137 0.201461 -0.290064
v 0.823652 0.204021 -0.345663
v 0.826285 0.203861 -0.343818
v 0.826221 0.20395 -0.345757
v 0.824814 0.201567 -0.291469
v 0.826137 0.201461 -0.290064
v 0.827478 0.201445 -0.290736
v 0.844441 0.20435 -0.347131
v 0.843884 0.204453 -0.349854
v 0.842385 0.20435 -0.348506
v 0.820746 0.204916 -0.3581
v 0.818715 0.204975 -0.3581
v 0.818719 0.204331 -0.349344
v 0.799437 0.203892 -0.298461
v 0.796333 0.204285 -0.297844
v 0.798723 0.203911 -0.296795
v 0.826221 0.20395 -0.345757
v 0.826285 0.203861 -0.343818
v 0.829206 0.203844 -0.345331
v 0.804351 0.202901 -0.286729
v 0.806998 0.202569 -0.285275
v 0.807067 0.20258 -0.287096
v 0.797847 0.203751 -0.290085
v 0.799891 0.203522 -0.290451
v 0.799001 0.203679 -0.291729
v 0.789832 0.205105 -0.286307
v 0.792448 0.204572 -0.285268
v 0.792282 0.204675 -0.287172
v 0.792448 0.204572 -0.285268
v 0.79512 0.204122 -0.286832
v 0.792282 0.204675 -0.287172
v 0.833353 0.20395 -0.345412
v 0.836815 0.203983 -0.343851
v 0.836649 0.204062 -0.345755
v 0.796904 0.206555 -0.356368
v 0.790439 0.207582 -0.358178
v 0.79247 0.207197 -0.356381
v 0.802078 0.20541 -0.343962
v 0.804186 0.205198 -0.343962
v 0.805749 0.205195 -0.347477
v 0.829495 0.20129 -0.2853
v 0.826137 0.201461 -0.290064
v 0.827307 0.201364 -0.2853
v 0.808483 0.205528 -0.358178
v 0.806452 0.205197 -0.349117
v 0.809498 0.205268 -0.356069
v 0.843413 0.204237 -0.345223
v 0.841479 0.204211 -0.345939
v 0.841343 0.204119 -0.343929
v 0.806802 0.20305 -0.299308
v 0.805063 0.203125 -0.295981
v 0.807795 0.202868 -0.297703
v 0.803584 0.203353 -0.29729
v 0.801956 0.203407 -0.293746
v 0.805063 0.203125 -0.295981
v 0.82871 0.204049 -0.349566
v 0.830642 0.204003 -0.348461
v 0.828713 0.204666 -0.3581
v 0.84746 0.204452 -0.343883
v 0.849491 0.204738 -0.34568
v 0.849491 0.20492 -0.350288
v 0.856599 0.205635 -0.350288
v 0.856599 0.205703 -0.352007
v 0.849491 0.204987 -0.352007
v 0.84746 0.205192 -0.3581
v 0.849491 0.204987 -0.352007
v 0.849491 0.205268 -0.356381
v 0.798943 0.206292 -0.355541
v 0.800508 0.20622 -0.356766
v 0.797727 0.206594 -0.358117
v 0.799047 0.203536 -0.28664
v 0.797507 0.203736 -0.287568
v 0.796976 0.203793 -0.285346
v 0.789829 0.205178 -0.288425
v 0.789031 0.205277 -0.286936
v 0.789832 0.205105 -0.286307
v 0.837342 0.204866 -0.358155
v 0.837407 0.204701 -0.35638
v 0.840699 0.204802 -0.356427
v 0.811529 0.202046 -0.286997
v 0.813616 0.201847 -0.286151
v 0.813412 0.201836 -0.288411
v 0.817778 0.201689 -0.285379
v 0.819809 0.201619 -0.285379
v 0.819809 0.201658 -0.289675
v 0.846601 0.202055 -0.291627
v 0.84457 0.202265 -0.299517
v 0.84457 0.201828 -0.2853
v 0.817778 0.202162 -0.299595
v 0.819809 0.201733 -0.291393
v 0.819809 0.202014 -0.297798
v 0.823702 0.201882 -0.297796
v 0.817778 0.202162 -0.299595
v 0.819809 0.202014 -0.297798
v 0.834572 0.201456 -0.287097
v 0.832541 0.201403 -0.2853
v 0.842227 0.201717 -0.287097
v 0.849257 0.202371 -0.291627
v 0.846601 0.202055 -0.291627
v 0.846601 0.201938 -0.288972
v 0.835954 0.20455 -0.355231
v 0.834058 0.204522 -0.355524
v 0.833874 0.20431 -0.353268
v 0.827119 0.201675 -0.295701
v 0.829329 0.201569 -0.294867
v 0.828469 0.201713 -0.297495
v 0.827119 0.201675 -0.295701
v 0.828469 0.201713 -0.297495
v 0.825864 0.201787 -0.297286
v 0.819809 0.201733 -0.291393
v 0.817778 0.202162 -0.299595
v 0.817778 0.201689 -0.285379
v 0.826137 0.201461 -0.290064
v 0.824261 0.201507 -0.289675
v 0.827307 0.201364 -0.2853
v 0.798223 0.203665 -0.289041
v 0.800023 0.203436 -0.288398
v 0.799891 0.203522 -0.290451
v 0.792484 0.204799 -0.291979
v 0.796817 0.203947 -0.290847
v 0.792909 0.204782 -0.293835
v 0.825864 0.201787 -0.297286
v 0.828469 0.201713 -0.297495
v 0.82688 0.20182 -0.298825
v 0.844441 0.20435 -0.347131
v 0.842385 0.20435 -0.348506
v 0.842439 0.204283 -0.346926
v 0.836652 0.204363 -0.352617
v 0.834916 0.204267 -0.351592
v 0.836613 0.204275 -0.350631
v 0.850584 0.202594 -0.293112
v 0.856677 0.203599 -0.299517
v 0.854334 0.20332 -0.299517
v 0.792889 0.204978 -0.299545
v 0.791916 0.20508 -0.297152
v 0.793643 0.204781 -0.297896
v 0.816997 0.204139 -0.343962
v 0.813326 0.204433 -0.347477
v 0.814888 0.204206 -0.343962
v 0.791564 0.205066 -0.294777
v 0.789758 0.205381 -0.294058
v 0.790797 0.205143 -0.292796
v 0.846601 0.202055 -0.291627
v 0.849257 0.202371 -0.291627
v 0.854334 0.20332 -0.299517
v 0.836613 0.204275 -0.350631
v 0.841017 0.204353 -0.349483
v 0.836652 0.204363 -0.352617
v 0.828203 0.203957 -0.347195
v 0.830642 0.204003 -0.348461
v 0.82871 0.204049 -0.349566
v 0.79247 0.206874 -0.348179
v 0.790439 0.207025 -0.343962
v 0.79247 0.206707 -0.343962
v 0.814734 0.201786 -0.287173
v 0.813412 0.201836 -0.288411
v 0.813616 0.201847 -0.286151
v 0.79247 0.206945 -0.349976
v 0.79247 0.206874 -0.348179
v 0.797694 0.206061 -0.34823
v 0.830642 0.204003 -0.348461
v 0.828203 0.203957 -0.347195
v 0.829206 0.203844 -0.345331
v 0.841479 0.204211 -0.345939
v 0.839487 0.20413 -0.345415
v 0.841343 0.204119 -0.343929
v 0.796817 0.203947 -0.290847
v 0.799001 0.203679 -0.291729
v 0.797311 0.203929 -0.292688
v 0.789832 0.205105 -0.286307
v 0.792282 0.204675 -0.287172
v 0.789829 0.205178 -0.288425
v 0.857771 0.2055 -0.343883
v 0.857771 0.205571 -0.34568
v 0.849491 0.204738 -0.34568
v 0.846601 0.202402 -0.299517
v 0.84457 0.202265 -0.299517
v 0.846601 0.202055 -0.291627
v 0.812955 0.202342 -0.298998
v 0.813484 0.20217 -0.296301
v 0.814817 0.20217 -0.297492
v 0.841017 0.204353 -0.349483
v 0.843884 0.204453 -0.349854
v 0.841687 0.204451 -0.351267
v 0.802078 0.20541 -0.343962
v 0.805749 0.205195 -0.347477
v 0.808483 0.205528 -0.358178
v 0.836815 0.203983 -0.343851
v 0.839487 0.20413 -0.345415
v 0.836649 0.204062 -0.345755
v 0.790797 0.205143 -0.292796
v 0.792909 0.204782 -0.293835
v 0.791564 0.205066 -0.294777
v 0.836652 0.204363 -0.352617
v 0.833874 0.20431 -0.353268
v 0.834916 0.204267 -0.351592
v 0.809498 0.205268 -0.356069
v 0.810513 0.20533 -0.358178
v 0.808483 0.205528 -0.358178
v 0.797507 0.203736 -0.287568
v 0.79512 0.204122 -0.286832
v 0.796976 0.203793 -0.285346
v 0.811153 0.20247 -0.297729
v 0.812955 0.202342 -0.298998
v 0.809572 0.202736 -0.299718
v 0.81058 0.202137 -0.284965
v 0.813616 0.201847 -0.286151
v 0.811529 0.202046 -0.286997
v 0.824814 0.201567 -0.291469
v 0.819809 0.201658 -0.289675
v 0.824261 0.201507 -0.289675
v 0.833874 0.20431 -0.353268
v 0.836652 0.204363 -0.352617
v 0.835752 0.204421 -0.35392
v 0.843804 0.204957 -0.357044
v 0.841044 0.204977 -0.35815
v 0.840699 0.204802 -0.356427
v 0.812955 0.202342 -0.298998
v 0.811153 0.20247 -0.297729
v 0.813484 0.20217 -0.296301
v 0.802246 0.203214 -0.289737
v 0.804045 0.203032 -0.290532
v 0.803858 0.203144 -0.292815
v 0.791916 0.20508 -0.297152
v 0.792889 0.204978 -0.299545
v 0.790603 0.205368 -0.298373
v 0.799891 0.203522 -0.290451
v 0.797847 0.203751 -0.290085
v 0.798223 0.203665 -0.289041
v 0.79978 0.205998 -0.352074
v 0.798526 0.206054 -0.350489
v 0.800833 0.205794 -0.349852
v 0.827056 0.201564 -0.293133
v 0.827478 0.201445 -0.290736
v 0.82874 0.201465 -0.292169
v 0.841343 0.204119 -0.343929
v 0.839487 0.20413 -0.345415
v 0.836815 0.203983 -0.343851
v 0.796904 0.206555 -0.356368
v 0.798943 0.206292 -0.355541
v 0.797727 0.206594 -0.358117
v 0.835954 0.20455 -0.355231
v 0.833874 0.20431 -0.353268
v 0.835752 0.204421 -0.35392
v 0.821673 0.204125 -0.34669
v 0.819313 0.204195 -0.346714
v 0.821816 0.204005 -0.344103
v 0.796333 0.204285 -0.297844
v 0.796601 0.204312 -0.299588
v 0.792889 0.204978 -0.299545
v 0.793643 0.204781 -0.297896
v 0.837407 0.204701 -0.35638
v 0.837342 0.204866 -0.358155
v 0.83497 0.204683 -0.356956
v 0.823652 0.204021 -0.345663
v 0.821673 0.204125 -0.34669
v 0.821816 0.204005 -0.344103
v 0.821673 0.204125 -0.34669
v 0.820769 0.20425 -0.348872
v 0.819313 0.204195 -0.346714
v 0.789477 0.20551 -0.296328
v 0.791916 0.20508 -0.297152
v 0.790603 0.205368 -0.298373
v 0.798526 0.206054 -0.350489
v 0.797694 0.206061 -0.34823
v 0.800833 0.205794 -0.349852
v 0.818719 0.204331 -0.349344
v 0.819313 0.204195 -0.346714
v 0.820769 0.20425 -0.348872
v 0.790439 0.207582 -0.358178
v 0.790439 0.207025 -0.343962
v 0.79247 0.206945 -0.349976
v 0.79247 0.207197 -0.356381
v 0.841017 0.204353 -0.349483
v 0.841687 0.204451 -0.351267
v 0.836652 0.204363 -0.352617
v 0.799001 0.203679 -0.291729
v 0.796817 0.203947 -0.290847
v 0.797847 0.203751 -0.290085
v 0.817778 0.201689 -0.285379
v 0.819809 0.201658 -0.289675
v 0.819809 0.201733 -0.291393
v 0.803584 0.203353 -0.29729
v 0.805063 0.203125 -0.295981
v 0.806802 0.20305 -0.299308
v 0.812545 0.204583 -0.349117
v 0.816997 0.204139 -0.343962
v 0.810513 0.20533 -0.358178
v 0.809498 0.205268 -0.356069
v 0.812545 0.204583 -0.349117
v 0.806452 0.205197 -0.349117
v 0.813326 0.204433 -0.347477
v 0.843413 0.204237 -0.345223
v 0.842439 0.204283 -0.346926
v 0.841479 0.204211 -0.345939
v 0.796817 0.203947 -0.290847
v 0.797311 0.203929 -0.292688
v 0.792909 0.204782 -0.293835
v 0.808483 0.205528 -0.358178
v 0.805749 0.205195 -0.347477
v 0.806452 0.205197 -0.349117
v 0.834058 0.204522 -0.355524
v 0.835954 0.20455 -0.355231
v 0.83497 0.204683 -0.356956
v 0.820769 0.20425 -0.348872
v 0.820746 0.204916 -0.3581
v 0.818719 0.204331 -0.349344
v 0.857068 0.203171 -0.2853
v 0.850584 0.202594 -0.293112
v 0.849257 0.202371 -0.291627
v 0.849491 0.20492 -0.350288
v 0.856599 0.205635 -0.350288
v 0.849491 0.204987 -0.352007
v 0.824814 0.201567 -0.291469
v 0.819809 0.201733 -0.291393
v 0.819809 0.201658 -0.289675
v 0.827056 0.201564 -0.293133
v 0.82874 0.201465 -0.292169
v 0.829329 0.201569 -0.294867
v 0.803858 0.203144 -0.292815
v 0.801956 0.203407 -0.293746
v 0.802246 0.203214 -0.289737
v 0.84457 0.201828 -0.2853
v 0.846601 0.201938 -0.288972
v 0.846601 0.202055 -0.291627
v 0.849491 0.204738 -0.34568
v 0.84746 0.204452 -0.343883
v 0.857771 0.2055 -0.343883
v 0.84746 0.204452 -0.343883
v 0.849491 0.20492 -0.350288
v 0.849491 0.204987 -0.352007
v 0.812545 0.204583 -0.349117
v 0.813326 0.204433 -0.347477
v 0.816997 0.204139 -0.343962
v 0.801846 0.20579 -0.352074
v 0.801801 0.205947 -0.354712
v 0.799835 0.206101 -0.354075
v 0.79978 0.205998 -0.352074
v 0.797727 0.206594 -0.358117
v 0.790439 0.207582 -0.358178
v 0.796904 0.206555 -0.356368
v 0.805076 0.202834 -0.288595
v 0.802246 0.203214 -0.289737
v 0.804351 0.202901 -0.286729
v 0.809572 0.202736 -0.299718
v 0.807795 0.202868 -0.297703
v 0.811153 0.20247 -0.297729
v 0.832541 0.201403 -0.2853
v 0.842227 0.201748 -0.2853
v 0.842227 0.201717 -0.287097
v 0.829329 0.201569 -0.294867
v 0.827119 0.201675 -0.295701
v 0.827056 0.201564 -0.293133
v 0.790439 0.207025 -0.343962
v 0.79247 0.206874 -0.348179
v 0.79247 0.206945 -0.349976
v 0.806802 0.20305 -0.299308
v 0.807795 0.202868 -0.297703
v 0.809572 0.202736 -0.299718
v 0.825864 0.201787 -0.297286
v 0.82688 0.20182 -0.298825
v 0.824546 0.201932 -0.299567
v 0.857068 0.203171 -0.2853
v 0.849257 0.202371 -0.291627
v 0.854646 0.202881 -0.2853
v 0.824546 0.201932 -0.299567
v 0.817778 0.202162 -0.299595
v 0.823702 0.201882 -0.297796
v 0.832541 0.201403 -0.2853
v 0.834572 0.201456 -0.287097
v 0.834572 0.201934 -0.299517
v 0.796976 0.203793 -0.285346
v 0.79512 0.204122 -0.286832
v 0.792448 0.204572 -0.285268
v 0.849491 0.205268 -0.356381
v 0.857458 0.206072 -0.356381
v 0.857458 0.206201 -0.3581
v 0.849491 0.204987 -0.352007
v 0.84746 0.205192 -0.3581
v 0.84746 0.204452 -0.343883
v 0.849491 0.205268 -0.356381
v 0.857458 0.206201 -0.3581
v 0.84746 0.205192 -0.3581
v 0.800023 0.203436 -0.288398
v 0.798223 0.203665 -0.289041
v 0.797507 0.203736 -0.287568
v 0.796366 0.206336 -0.349978
v 0.79247 0.206945 -0.349976
v 0.797694 0.206061 -0.34823
v 0.801801 0.205947 -0.354712
v 0.800508 0.20622 -0.356766
v 0.798943 0.206292 -0.355541
v 0.799835 0.206101 -0.354075
v 0.807067 0.20258 -0.287096
v 0.806998 0.202569 -0.285275
v 0.81058 0.202137 -0.284965
v 0.823652 0.204021 -0.345663
v 0.821816 0.204005 -0.344103
v 0.826285 0.203861 -0.343818
v 0.797507 0.203736 -0.287568
v 0.799047 0.203536 -0.28664
v 0.800023 0.203436 -0.288398
v 0.801956 0.203407 -0.293746
v 0.803858 0.203144 -0.292815
v 0.805063 0.203125 -0.295981
v 0.805749 0.205195 -0.347477
v 0.813326 0.204433 -0.347477
v 0.806452 0.205197 -0.349117
v 0.792484 0.204799 -0.291979
v 0.792909 0.204782 -0.293835
v 0.790797 0.205143 -0.292796
v 0.827056 0.201564 -0.293133
v 0.824814 0.201567 -0.291469
v 0.827478 0.201445 -0.290736
v 0.828203 0.203957 -0.347195
v 0.826221 0.20395 -0.345757
v 0.829206 0.203844 -0.345331
v 0.81058 0.202137 -0.284965
v 0.811529 0.202046 -0.286997
v 0.809372 0.2023 -0.286689
v 0.789477 0.20551 -0.296328
v 0.791377 0.205138 -0.295873
v 0.791916 0.20508 -0.297152
v 0.804045 0.203032 -0.290532
v 0.802246 0.203214 -0.289737
v 0.805076 0.202834 -0.288595
v 0.842439 0.204283 -0.346926
v 0.843413 0.204237 -0.345223
v 0.844441 0.20435 -0.347131
v 0.837342 0.204866 -0.358155
v 0.840699 0.204802 -0.356427
v 0.841044 0.204977 -0.35815
v 0.798526 0.206054 -0.350489
v 0.796366 0.206336 -0.349978
v 0.797694 0.206061 -0.34823
v 0.828713 0.204666 -0.3581
v 0.830642 0.204003 -0.348461
v 0.830666 0.204664 -0.3581
v 0.789477 0.20551 -0.296328
v 0.791564 0.205066 -0.294777
v 0.791377 0.205138 -0.295873
v 0.854334 0.20332 -0.299517
v 0.849257 0.202371 -0.291627
v 0.850584 0.202594 -0.293112
v 0.789031 0.205277 -0.286936
v 0.789033 0.205277 -0.286941
v 0.829495 0.20129 -0.2853
v 0.829495 0.20129 -0.2853
v 0.842227 0.201748 -0.2853
v 0.842227 0.201748 -0.2853
v 0.856677 0.203599 -0.299517
v 0.856677 0.203599 -0.299517
vn -0.0342 0.9994 0.0112
vn -0.0342 0.9994 0.0112
vn -0.0342 0.9994 0.0112
vn -0.0306 0.9948 0.0967
vn -0.0306 0.9948 0.0967
vn -0.0306 0.9948 0.0967
vn 0.1325 0.9905 0.0356
vn 0.1325 0.9905 0.0356
vn 0.1325 0.9905 0.0356
vn -0.0292 0.9986 0.0438
vn -0.0292 0.9986 0.0438
vn -0.0292 0.9986 0.0438
vn -0.0293 0.9986 0.0438
vn -0.0293 0.9986 0.0438
vn -0.0293 0.9986 0.0438
vn 0.1845 0.9823 0.0331
vn 0.1845 0.9823 0.0331
vn 0.1845 0.9823 0.0331
vn 0.1 0.994 0.0436
vn 0.1 0.994 0.0436
vn 0.1 0.994 0.0436
vn 0.1187 0.9929 0.0106
vn 0.1187 0.9929 0.0106
vn 0.1187 0.9929 0.0106
vn 0.1187 0.9929 0.0105
vn 0.1187 0.9929 0.0105
vn 0.1187 0.9929 0.0105
vn -0.0292 0.9952 0.0935
vn -0.0292 0.9952 0.0935
vn -0.0292 0.9952 0.0935
vn -0.0338 0.9989 0.0325
vn -0.0338 0.9989 0.0325
vn -0.0338 0.9989 0.0325
vn 0.0338 0.9985 0.0438
vn 0.0338 0.9985 0.0438
vn 0.0338 0.9985 0.0438
vn 0.0338 0.9985 0.0438
vn 0.0338 0.9985 0.0438
vn 0.0338 0.9985 0.0438
vn 0.0293 0.9986 0.0449
vn 0.0293 0.9986 0.0449
vn 0.0293 0.9986 0.0449
vn 0.0338 0.9985 0.0438
vn 0.0338 0.9985 0.0438
vn 0.0338 0.9985 0.0438
vn -0.0292 0.9986 0.0438
vn -0.0292 0.9986 0.0438
vn -0.0292 0.9986 0.0438
vn 0.0293 0.9969 0.0733
vn 0.0293 0.9969 0.0733
vn 0.0293 0.9969 0.0733
vn 0.1345 0.9898 0.0462
vn 0.1345 0.9898 0.0462
vn 0.1345 0.9898 0.0462
vn 0.0292 0.9986 0.0449
vn 0.0292 0.9986 0.0449
vn 0.0292 0.9986 0.0449
vn 0.1187 0.9929 0.0106
vn 0.1187 0.9929 0.0106
vn 0.1187 0.9929 0.0106
vn 0.118 0.9922 0.0391
vn 0.118 0.9922 0.0391
vn 0.118 0.9922 0.0391
vn 0.1857 0.9819 0.0369
vn 0.1857 0.9819 0.0369
vn 0.1857 0.9819 0.0369
vn 0.1868 0.9817 0.0368
vn 0.1868 0.9817 0.0368
vn 0.1868 0.9817 0.0368
vn -0.0292 0.9986 0.0438
vn -0.0292 0.9986 0.0438
vn -0.0292 0.9986 0.0438
vn 0.1429 0.9885 0.05
vn 0.1429 0.9885 0.05
vn 0.1429 0.9885 0.05
vn 0.1 0.994 0.0437
vn 0.1 0.994 0.0437
vn 0.1 0.994 0.0437
vn 0.0341 0.9993 0.0119
vn 0.0341 0.9993 0.0119
vn 0.0341 0.9993 0.0119
vn 0.1213 0.9906 0.0634
vn 0.1213 0.9906 0.0634
vn 0.1213 0.9906 0.0634
vn -0.0292 0.9986 0.0438
vn -0.0292 0.9986 0.0438
vn -0.0292 0.9986 0.0438
vn 0.118 0.9922 0.0391
vn 0.118 0.9922 0.0391
vn 0.118 0.9922 0.0391
vn 0.118 0.9922 0.0391
vn 0.118 0.9922 0.0391
vn 0.118 0.9922 0.0391
vn -0.018 0.9972 0.0721
vn -0.018 0.9972 0.0721
vn -0.018 0.9972 0.0721
vn -0.1053 0.9937 0.0392
vn -0.1053 0.9937 0.0392
vn -0.1053 0.9937 0.0392
vn -0.1 0.9942 0.0392
vn -0.1 0.9942 0.0392
vn -0.1 0.9942 0.0392
vn -0.0912 0.9938 0.0638
vn -0.0912 0.9938 0.0638
vn -0.0912 0.9938 0.0638
vn 0.1001 0.9926 0.0688
vn 0.1001 0.9926 0.0688
vn 0.1001 0.9926 0.0688
vn 0.1259 0.992 0.0044
vn 0.1259 0.992 0.0044
vn 0.1259 0.992 0.0044
vn 0.1845 0.9823 0.0331
vn 0.1845 0.9823 0.0331
vn 0.1845 0.9823 0.0331
vn -0.0292 0.9952 0.0935
vn -0.0292 0.9952 0.0935
vn -0.0292 0.9952 0.0935
vn 0.1004 0.9948 -0.0141
vn 0.1004 0.9948 -0.0141
vn 0.1004 0.9948 -0.0141
vn 0.0341 0.9994 0.009
vn 0.0341 0.9994 0.009
vn 0.0341 0.9994 0.009
vn -0.016 0.9994 0.0308
vn -0.016 0.9994 0.0308
vn -0.016 0.9994 0.0308
vn 0.0338 0.9985 0.0438
vn 0.0338 0.9985 0.0438
vn 0.0338 0.9985 0.0438
vn 0.0338 0.9985 0.0438
vn 0.0338 0.9985 0.0438
vn 0.0338 0.9985 0.0438
vn -0.0341 0.9994 -0.0093
vn -0.0341 0.9994 -0.0093
vn -0.0341 0.9994 -0.0093
vn -0.1179 0.9921 0.0436
vn -0.1179 0.9921 0.0436
vn -0.1179 0.9921 0.0436
vn -0.0288 0.9954 0.0911
vn -0.0288 0.9954 0.0911
vn -0.0288 0.9954 0.0911
vn 0.0309 0.9985 0.0443
vn 0.0309 0.9985 0.0443
vn 0.0309 0.9985 0.0443
vn 0.0321 0.9985 0.0452
vn 0.0321 0.9985 0.0452
vn 0.0321 0.9985 0.0452
vn 0.0764 0.9965 0.0332
vn 0.0764 0.9965 0.0332
vn 0.0764 0.9965 0.0332
vn 0.0275 0.9995 0.0135
vn 0.0275 0.9995 0.0135
vn 0.0275 0.9995 0.0135
vn 0.1142 0.9929 0.0346
vn 0.1142 0.9929 0.0346
vn 0.1142 0.9929 0.0346
vn 0.1845 0.9823 0.0331
vn 0.1845 0.9823 0.0331
vn 0.1845 0.9823 0.0331
vn 0.0319 0.9986 0.0426
vn 0.0319 0.9986 0.0426
vn 0.0319 0.9986 0.0426
vn -0.0292 0.9986 0.0438
vn -0.0292 0.9986 0.0438
vn -0.0292 0.9986 0.0438
vn -0.0292 0.9986 0.0438
vn -0.0292 0.9986 0.0438
vn -0.0292 0.9986 0.0438
vn -0.1179 0.9921 0.0436
vn -0.1179 0.9921 0.0436
vn -0.1179 0.9921 0.0436
vn 0.1845 0.9823 0.0331
vn 0.1845 0.9823 0.0331
vn 0.1845 0.9823 0.0331
vn 0.0315 0.9982 0.0505
vn 0.0315 0.9982 0.0505
vn 0.0315 0.9982 0.0505
vn 0.1845 0.9823 0.0331
vn 0.1845 0.9823 0.0331
vn 0.1845 0.9823 0.0331
vn -0.1179 0.9921 0.0436
vn -0.1179 0.9921 0.0436
vn -0.1179 0.9921 0.0436
vn -0.0292 0.9986 0.0438
vn -0.0292 0.9986 0.0438
vn -0.0292 0.9986 0.0438
vn 0.001 0.9992 0.0389
vn 0.001 0.9992 0.0389
vn 0.001 0.9992 0.0389
vn 0.1542 0.9873 0.0389
vn 0.1542 0.9873 0.0389
vn 0.1542 0.9873 0.0389
vn 0.0465 0.9989 -0.0093
vn 0.0465 0.9989 -0.0093
vn 0.0465 0.9989 -0.0093
vn 0.154 0.9873 0.0389
vn 0.154 0.9873 0.0389
vn 0.154 0.9873 0.0389
vn 0.0096 0.9984 0.0555
vn 0.0096 0.9984 0.0555
vn 0.0096 0.9984 0.0555
vn -0.0292 0.9986 0.0438
vn -0.0292 0.9986 0.0438
vn -0.0292 0.9986 0.0438
vn 0.1321 0.9909 0.0257
vn 0.1321 0.9909 0.0257
vn 0.1321 0.9909 0.0257
vn 0.1845 0.9823 0.0331
vn 0.1845 0.9823 0.0331
vn 0.1845 0.9823 0.0331
vn -0.1 0.9942 0.0392
vn -0.1 0.9942 0.0392
vn -0.1 0.9942 0.0392
vn -0.0669 0.9968 0.0438
vn -0.0669 0.9968 0.0438
vn -0.0669 0.9968 0.0438
vn 0.0485 0.9974 0.054
vn 0.0485 0.9974 0.054
vn 0.0485 0.9974 0.054
vn -0.0292 0.9986 0.0438
vn -0.0292 0.9986 0.0438
vn -0.0292 0.9986 0.0438
vn 0.1159 0.9914 0.0604
vn 0.1159 0.9914 0.0604
vn 0.1159 0.9914 0.0604
vn -0.0293 0.9986 0.0438
vn -0.0293 0.9986 0.0438
vn -0.0293 0.9986 0.0438
vn 0.1845 0.9823 0.0331
vn 0.1845 0.9823 0.0331
vn 0.1845 0.9823 0.0331
vn -0.0292 0.9986 0.0438
vn -0.0292 0.9986 0.0438
vn -0.0292 0.9986 0.0438
vn 0.0964 0.9925 0.0755
vn 0.0964 0.9925 0.0755
vn 0.0964 0.9925 0.0755
vn 0.1637 0.9864 0.0136
vn 0.1637 0.9864 0.0136
vn 0.1637 0.9864 0.0136
vn 0.1055 0.9932 0.0492
vn 0.1055 0.9932 0.0492
vn 0.1055 0.9932 0.0492
vn 0.095 0.9955 -0.0006
vn 0.095 0.9955 -0.0006
vn 0.095 0.9955 -0.0006
vn 0.0338 0.9985 0.0438
vn 0.0338 0.9985 0.0438
vn 0.0338 0.9985 0.0438
vn -0.035 0.997 0.0687
vn -0.035 0.997 0.0687
vn -0.035 0.997 0.0687
vn -0.0311 0.995 0.0947
vn -0.0311 0.995 0.0947
vn -0.0311 0.995 0.0947
vn 0.1014 0.9939 0.0434
vn 0.1014 0.9939 0.0434
vn 0.1014 0.9939 0.0434
vn 0.118 0.9922 0.0391
vn 0.118 0.9922 0.0391
vn 0.118 0.9922 0.0391
vn 0.1845 0.9823 0.0331
vn 0.1845 0.9823 0.0331
vn 0.1845 0.9823 0.0331
vn 0.118 0.9922 0.0392
vn 0.118 0.9922 0.0392
vn 0.118 0.9922 0.0392
vn 0.1 0.994 0.0437
vn 0.1 0.994 0.0437
vn 0.1 0.994 0.0437
vn 0.0337 0.9985 0.0438
vn 0.0337 0.9985 0.0438
vn 0.0337 0.9985 0.0438
vn -0.0292 0.9986 0.0438
vn -0.0292 0.9986 0.0438
vn -0.0292 0.9986 0.0438
vn 0.1001 0.9926 0.0688
vn 0.1001 0.9926 0.0688
vn 0.1001 0.9926 0.0688
vn -0.0261 0.9952 0.094
vn -0.0261 0.9952 0.094
vn -0.0261 0.9952 0.094
vn 0.0292 0.9986 0.0449
vn 0.0292 0.9986 0.0449
vn 0.0292 0.9986 0.0449
vn 0.1784 0.9832 0.0394
vn 0.1784 0.9832 0.0394
vn 0.1784 0.9832 0.0394
vn 0.1784 0.9832 0.0394
vn -0.0292 0.9952 0.0935
vn -0.0292 0.9952 0.0935
vn -0.0292 0.9952 0.0935
vn 0.0293 0.9986 0.0449
vn 0.0293 0.9986 0.0449
vn 0.0293 0.9986 0.0449
vn 0.0292 0.9986 0.0449
vn 0.0292 0.9986 0.0449
vn 0.0292 0.9986 0.0449
vn 0.1845 0.9823 0.0332
vn 0.1845 0.9823 0.0332
vn 0.1845 0.9823 0.0332
vn 0.1025 0.9941 0.0349
vn 0.1025 0.9941 0.0349
vn 0.1025 0.9941 0.0349
vn 0.0292 0.9986 0.0449
vn 0.0292 0.9986 0.0449
vn 0.0292 0.9986 0.0449
vn 0.1532 0.9874 0.0388
vn 0.1532 0.9874 0.0388
vn 0.1532 0.9874 0.0388
vn 0.1532 0.9874 0.0388
vn -0.0293 0.9986 0.0438
vn -0.0293 0.9986 0.0438
vn -0.0293 0.9986 0.0438
vn 0.1449 0.9877 0.0582
vn 0.1449 0.9877 0.0582
vn 0.1449 0.9877 0.0582
vn 0.1071 0.9933 0.0435
vn 0.1071 0.9933 0.0435
vn 0.1071 0.9933 0.0435
vn 0.118 0.9922 0.0391
vn 0.118 0.9922 0.0391
vn 0.118 0.9922 0.0391
vn 0.0273 0.9967 0.076
vn 0.0273 0.9967 0.076
vn 0.0273 0.9967 0.076
vn 0.0273 0.9967 0.076
vn 0.1 0.994 0.0437
vn 0.1 0.994 0.0437
vn 0.1 0.994 0.0437
vn -0.0292 0.9986 0.0438
vn -0.0292 0.9986 0.0438
vn -0.0292 0.9986 0.0438
vn 0.1803 0.9828 0.0387
vn 0.1803 0.9828 0.0387
vn 0.1803 0.9828 0.0387
vn 0.1718 0.9823 0.0744
vn 0.1718 0.9823 0.0744
vn 0.1718 0.9823 0.0744
vn -0.0292 0.9952 0.0935
vn -0.0292 0.9952 0.0935
vn -0.0292 0.9952 0.0935
vn 0.023 0.9971 0.0719
vn 0.023 0.9971 0.0719
vn 0.023 0.9971 0.0719
vn -0.1288 0.9911 0.0337
vn -0.1288 0.9911 0.0337
vn -0.1288 0.9911 0.0337
vn -0.1 0.9942 0.0392
vn -0.1 0.9942 0.0392
vn -0.1 0.9942 0.0392
vn 0.0338 0.9985 0.0438
vn 0.0338 0.9985 0.0438
vn 0.0338 0.9985 0.0438
vn 0.0326 0.9984 0.0457
vn 0.0326 0.9984 0.0457
vn 0.0326 0.9984 0.0457
vn 0.118 0.9922 0.0391
vn 0.118 0.9922 0.0391
vn 0.118 0.9922 0.0391
vn 0.0249 0.9987 0.0439
vn 0.0249 0.9987 0.0439
vn 0.0249 0.9987 0.0439
vn -0.101 0.9939 0.044
vn -0.101 0.9939 0.044
vn -0.101 0.9939 0.044
vn -0.1053 0.9937 0.0391
vn -0.1053 0.9937 0.0391
vn -0.1053 0.9937 0.0391
vn -0.0146 0.995 0.0983
vn -0.0146 0.995 0.0983
vn -0.0146 0.995 0.0983
vn 0.098 0.9936 0.0559
vn 0.098 0.9936 0.0559
vn 0.098 0.9936 0.0559
vn 0.098 0.9936 0.0559
vn 0.1332 0.9875 0.0843
vn 0.1332 0.9875 0.0843
vn 0.1332 0.9875 0.0843
vn 0.1276 0.9917 0.0141
vn 0.1276 0.9917 0.0141
vn 0.1276 0.9917 0.0141
vn 0.118 0.9922 0.0391
vn 0.118 0.9922 0.0391
vn 0.118 0.9922 0.0391
vn -0.0355 0.9992 -0.0169
vn -0.0355 0.9992 -0.0169
vn -0.0355 0.9992 -0.0169
vn 0.0312 0.9986 0.0437
vn 0.0312 0.9986 0.0437
vn 0.0312 0.9986 0.0437
vn 0.1543 0.9873 0.0389
vn 0.1543 0.9873 0.0389
vn 0.1543 0.9873 0.0389
vn 0.118 0.9922 0.0391
vn 0.118 0.9922 0.0391
vn 0.118 0.9922 0.0391
vn 0.0337 0.9985 0.0438
vn 0.0337 0.9985 0.0438
vn 0.0337 0.9985 0.0438
vn -0.1189 0.9927 0.0212
vn -0.1189 0.9927 0.0212
vn -0.1189 0.9927 0.0212
vn 0.0338 0.9985 0.0438
vn 0.0338 0.9985 0.0438
vn 0.0338 0.9985 0.0438
vn 0.0082 0.9992 0.0385
vn 0.0082 0.9992 0.0385
vn 0.0082 0.9992 0.0385
vn 0.1695 0.9855 0.0062
vn 0.1695 0.9855 0.0062
vn 0.1695 0.9855 0.0062
vn -0.1001 0.9922 0.0744
vn -0.1001 0.9922 0.0744
vn -0.1001 0.9922 0.0744
vn -0.0552 0.9971 0.0519
vn -0.0552 0.9971 0.0519
vn -0.0552 0.9971 0.0519
vn -0.1001 0.9922 0.0744
vn -0.1001 0.9922 0.0744
vn -0.1001 0.9922 0.0744
vn 0.1223 0.9924 0.0118
vn 0.1223 0.9924 0.0118
vn 0.1223 0.9924 0.0118
vn 0.1542 0.9873 0.0382
vn 0.1542 0.9873 0.0382
vn 0.1542 0.9873 0.0382
vn 0.1 0.9926 0.0688
vn 0.1 0.9926 0.0688
vn 0.1 0.9926 0.0688
vn 0.1 0.9926 0.0688
vn 0.1187 0.9929 0.0106
vn 0.1187 0.9929 0.0106
vn 0.1187 0.9929 0.0106
vn 0.0292 0.9986 0.0449
vn 0.0292 0.9986 0.0449
vn 0.0292 0.9986 0.0449
vn 0.122 0.9925 0.0109
vn 0.122 0.9925 0.0109
vn 0.122 0.9925 0.0109
vn 0.118 0.9922 0.0391
vn 0.118 0.9922 0.0391
vn 0.118 0.9922 0.0391
vn 0.1 0.994 0.0436
vn 0.1 0.994 0.0436
vn 0.1 0.994 0.0436
vn 0.1844 0.9823 0.0331
vn 0.1844 0.9823 0.0331
vn 0.1844 0.9823 0.0331
vn 0.0338 0.9985 0.0438
vn 0.0338 0.9985 0.0438
vn 0.0338 0.9985 0.0438
vn 0.0292 0.9986 0.0449
vn 0.0292 0.9986 0.0449
vn 0.0292 0.9986 0.0449
vn 0.1186 0.9929 0.0106
vn 0.1186 0.9929 0.0106
vn 0.1186 0.9929 0.0106
vn 0.1845 0.9823 0.0332
vn 0.1845 0.9823 0.0332
vn 0.1845 0.9823 0.0332
vn 0.1178 0.9923 0.0386
vn 0.1178 0.9923 0.0386
vn 0.1178 0.9923 0.0386
vn -0.0292 0.9986 0.0438
vn -0.0292 0.9986 0.0438
vn -0.0292 0.9986 0.0438
vn -0.0299 0.995 0.0949
vn -0.0299 0.995 0.0949
vn -0.0299 0.995 0.0949
vn 0.1405 0.9889 0.0489
vn 0.1405 0.9889 0.0489
vn 0.1405 0.9889 0.0489
vn 0.0007 0.9977 0.0684
vn 0.0007 0.9977 0.0684
vn 0.0007 0.9977 0.0684
vn 0.1845 0.9823 0.0331
vn 0.1845 0.9823 0.0331
vn 0.1845 0.9823 0.0331
vn -0.1178 0.9921 0.0436
vn -0.1178 0.9921 0.0436
vn -0.1178 0.9921 0.0436
vn 0 0 0
vn 0 0 0
vn 0 0 0
vn 0 0 0
vn 0 0 0
vn 0 0 0
vn 0 0 0
vn 0 0 0
vt 0.915646 0.434975
vt 0.914654 0.436768
vt 0.915646 0.436768
vt 0.91428 0.401733
vt 0.912764 0.402034
vt 0.913931 0.402546
vt 0.892614 0.430341
vt 0.891229 0.429791
vt 0.891098 0.430643
vt 0.909176 0.407413
vt 0.910786 0.407246
vt 0.909588 0.406634
vt 0.914319 0.405244
vt 0.912919 0.405425
vt 0.913587 0.405902
vt 0.888769 0.432141
vt 0.88775 0.431383
vt 0.887887 0.432491
vt 0.892781 0.40416
vt 0.893295 0.405245
vt 0.89379 0.40416
vt 0.897466 0.43609
vt 0.896339 0.435891
vt 0.898055 0.436932
vt 0.896339 0.435891
vt 0.895367 0.435159
vt 0.895013 0.43607
vt 0.909966 0.401776
vt 0.910446 0.402618
vt 0.911156 0.402057
vt 0.90878 0.436768
vt 0.909771 0.429826
vt 0.90878 0.429826
vt 0.905519 0.430915
vt 0.904876 0.429801
vt 0.904464 0.430666
vt 0.905006 0.433756
vt 0.904736 0.434632
vt 0.905652 0.434442
vt 0.904439 0.40729
vt 0.905725 0.408192
vt 0.905693 0.407245
vt 0.905006 0.433756
vt 0.905652 0.434442
vt 0.906307 0.434114
vt 0.914591 0.406574
vt 0.914319 0.405244
vt 0.913587 0.405902
vt 0.90302 0.401217
vt 0.902028 0.401217
vt 0.90203 0.405493
vt 0.892614 0.430341
vt 0.891098 0.430643
vt 0.892265 0.431155
vt 0.905693 0.407245
vt 0.905725 0.408192
vt 0.907151 0.407452
vt 0.895013 0.43607
vt 0.896306 0.436781
vt 0.896339 0.435891
vt 0.891837 0.434432
vt 0.892835 0.434253
vt 0.892401 0.433629
vt 0.887923 0.436276
vt 0.889201 0.436784
vt 0.889119 0.435854
vt 0.889201 0.436784
vt 0.890505 0.43602
vt 0.889119 0.435854
vt 0.909176 0.407413
vt 0.910867 0.408176
vt 0.910786 0.407246
vt 0.891377 0.402063
vt 0.88822 0.401179
vt 0.889211 0.402056
vt 0.893903 0.408121
vt 0.894933 0.408121
vt 0.895696 0.406405
vt 0.907292 0.436768
vt 0.905652 0.434442
vt 0.906224 0.436768
vt 0.897031 0.401179
vt 0.896039 0.405604
vt 0.897527 0.402209
vt 0.914089 0.407505
vt 0.913145 0.407156
vt 0.913078 0.408137
vt 0.89621 0.429928
vt 0.895361 0.431552
vt 0.896695 0.430711
vt 0.894639 0.430913
vt 0.893844 0.432644
vt 0.895361 0.431552
vt 0.906909 0.405385
vt 0.907852 0.405924
vt 0.906911 0.401217
vt 0.916065 0.408159
vt 0.917057 0.407282
vt 0.917057 0.405032
vt 0.920528 0.405032
vt 0.920528 0.404193
vt 0.917057 0.404193
vt 0.916065 0.401217
vt 0.917057 0.404193
vt 0.917057 0.402056
vt 0.892372 0.402467
vt 0.893136 0.401869
vt 0.891779 0.401209
vt 0.892423 0.436114
vt 0.891671 0.435661
vt 0.891412 0.436746
vt 0.887922 0.435242
vt 0.887532 0.43597
vt 0.887923 0.436276
vt 0.911124 0.40119
vt 0.911156 0.402057
vt 0.912764 0.402034
vt 0.898518 0.43594
vt 0.899538 0.436353
vt 0.899438 0.435249
vt 0.90157 0.43673
vt 0.902562 0.43673
vt 0.902562 0.434632
vt 0.915646 0.433679
vt 0.914654 0.429826
vt 0.914654 0.436768
vt 0.90157 0.429788
vt 0.902562 0.433793
vt 0.902562 0.430665
vt 0.904464 0.430666
vt 0.90157 0.429788
vt 0.902562 0.430665
vt 0.909771 0.435891
vt 0.90878 0.436768
vt 0.91351 0.435891
vt 0.916943 0.433679
vt 0.915646 0.433679
vt 0.915646 0.434975
vt 0.910446 0.402618
vt 0.90952 0.402475
vt 0.909431 0.403577
vt 0.906132 0.431689
vt 0.907211 0.432096
vt 0.906791 0.430813
vt 0.906132 0.431689
vt 0.906791 0.430813
vt 0.905519 0.430915
vt 0.902562 0.433793
vt 0.90157 0.429788
vt 0.90157 0.43673
vt 0.905652 0.434442
vt 0.904736 0.434632
vt 0.906224 0.436768
vt 0.892021 0.434942
vt 0.8929 0.435255
vt 0.892835 0.434253
vt 0.889218 0.433507
vt 0.891334 0.434059
vt 0.889426 0.432601
vt 0.905519 0.430915
vt 0.906791 0.430813
vt 0.906015 0.430164
vt 0.914591 0.406574
vt 0.913587 0.405902
vt 0.913613 0.406674
vt 0.910787 0.403895
vt 0.909939 0.404395
vt 0.910768 0.404865
vt 0.917591 0.432954
vt 0.920566 0.429826
vt 0.919422 0.429826
vt 0.889416 0.429812
vt 0.888941 0.43098
vt 0.889784 0.430617
vt 0.901189 0.408121
vt 0.899396 0.406405
vt 0.900159 0.408121
vt 0.888769 0.432141
vt 0.887887 0.432491
vt 0.888394 0.433108
vt 0.915646 0.433679
vt 0.916943 0.433679
vt 0.919422 0.429826
vt 0.910768 0.404865
vt 0.912919 0.405425
vt 0.910787 0.403895
vt 0.906661 0.406542
vt 0.907852 0.405924
vt 0.906909 0.405385
vt 0.889211 0.406062
vt 0.88822 0.408121
vt 0.889211 0.408121
vt 0.900084 0.435854
vt 0.899438 0.435249
vt 0.899538 0.436353
vt 0.889211 0.405184
vt 0.889211 0.406062
vt 0.891762 0.406037
vt 0.907852 0.405924
vt 0.906661 0.406542
vt 0.907151 0.407452
vt 0.913145 0.407156
vt 0.912172 0.407412
vt 0.913078 0.408137
vt 0.891334 0.434059
vt 0.892401 0.433629
vt 0.891575 0.43316
vt 0.887923 0.436276
vt 0.889119 0.435854
vt 0.887922 0.435242
vt 0.9211 0.408159
vt 0.9211 0.407282
vt 0.917057 0.407282
vt 0.915646 0.429826
vt 0.914654 0.429826
vt 0.915646 0.433679
vt 0.899215 0.430079
vt 0.899474 0.431396
vt 0.900124 0.430815
vt 0.912919 0.405425
vt 0.914319 0.405244
vt 0.913246 0.404554
vt 0.893903 0.408121
vt 0.895696 0.406405
vt 0.897031 0.401179
vt 0.910867 0.408176
vt 0.912172 0.407412
vt 0.910786 0.407246
vt 0.888394 0.433108
vt 0.889426 0.432601
vt 0.888769 0.432141
vt 0.910787 0.403895
vt 0.909431 0.403577
vt 0.909939 0.404395
vt 0.897527 0.402209
vt 0.898023 0.401179
vt 0.897031 0.401179
vt 0.891671 0.435661
vt 0.890505 0.43602
vt 0.891412 0.436746
vt 0.898335 0.430699
vt 0.899215 0.430079
vt 0.897563 0.429728
vt 0.898055 0.436932
vt 0.899538 0.436353
vt 0.898518 0.43594
vt 0.905006 0.433756
vt 0.902562 0.434632
vt 0.904736 0.434632
vt 0.909431 0.403577
vt 0.910787 0.403895
vt 0.910348 0.403258
vt 0.91428 0.401733
vt 0.912932 0.401192
vt 0.912764 0.402034
vt 0.899215 0.430079
vt 0.898335 0.430699
vt 0.899474 0.431396
vt 0.893985 0.434601
vt 0.894864 0.434213
vt 0.894772 0.433099
vt 0.888941 0.43098
vt 0.889416 0.429812
vt 0.8883 0.430384
vt 0.892835 0.434253
vt 0.891837 0.434432
vt 0.892021 0.434942
vt 0.892781 0.40416
vt 0.892169 0.404934
vt 0.893295 0.405245
vt 0.906101 0.432943
vt 0.906307 0.434114
vt 0.906924 0.433414
vt 0.913078 0.408137
vt 0.912172 0.407412
vt 0.910867 0.408176
vt 0.891377 0.402063
vt 0.892372 0.402467
vt 0.891779 0.401209
vt 0.910446 0.402618
vt 0.909431 0.403577
vt 0.910348 0.403258
vt 0.903473 0.406789
vt 0.90232 0.406777
vt 0.903542 0.408052
vt 0.891098 0.430643
vt 0.891229 0.429791
vt 0.889416 0.429812
vt 0.889784 0.430617
vt 0.911156 0.402057
vt 0.911124 0.40119
vt 0.909966 0.401776
vt 0.904439 0.40729
vt 0.903473 0.406789
vt 0.903542 0.408052
vt 0.903473 0.406789
vt 0.903031 0.405723
vt 0.90232 0.406777
vt 0.88775 0.431383
vt 0.888941 0.43098
vt 0.8883 0.430384
vt 0.892169 0.404934
vt 0.891762 0.406037
vt 0.893295 0.405245
vt 0.90203 0.405493
vt 0.90232 0.406777
vt 0.903031 0.405723
vt 0.88822 0.401179
vt 0.88822 0.408121
vt 0.889211 0.405184
vt 0.889211 0.402056
vt 0.912919 0.405425
vt 0.913246 0.404554
vt 0.910787 0.403895
vt 0.892401 0.433629
vt 0.891334 0.434059
vt 0.891837 0.434432
vt 0.90157 0.43673
vt 0.902562 0.434632
vt 0.902562 0.433793
vt 0.894639 0.430913
vt 0.895361 0.431552
vt 0.89621 0.429928
vt 0.899015 0.405604
vt 0.901189 0.408121
vt 0.898023 0.401179
vt 0.897527 0.402209
vt 0.899015 0.405604
vt 0.896039 0.405604
vt 0.899396 0.406405
vt 0.914089 0.407505
vt 0.913613 0.406674
vt 0.913145 0.407156
vt 0.891334 0.434059
vt 0.891575 0.43316
vt 0.889426 0.432601
vt 0.897031 0.401179
vt 0.895696 0.406405
vt 0.896039 0.405604
vt 0.90952 0.402475
vt 0.910446 0.402618
vt 0.909966 0.401776
vt 0.903031 0.405723
vt 0.90302 0.401217
vt 0.90203 0.405493
vt 0.920757 0.436768
vt 0.917591 0.432954
vt 0.916943 0.433679
vt 0.917057 0.405032
vt 0.920528 0.405032
vt 0.917057 0.404193
vt 0.905006 0.433756
vt 0.902562 0.433793
vt 0.902562 0.434632
vt 0.906101 0.432943
vt 0.906924 0.433414
vt 0.907211 0.432096
vt 0.894772 0.433099
vt 0.893844 0.432644
vt 0.893985 0.434601
vt 0.914654 0.436768
vt 0.915646 0.434975
vt 0.915646 0.433679
vt 0.917057 0.407282
vt 0.916065 0.408159
vt 0.9211 0.408159
vt 0.916065 0.408159
vt 0.917057 0.405032
vt 0.917057 0.404193
vt 0.899015 0.405604
vt 0.899396 0.406405
vt 0.901189 0.408121
vt 0.89379 0.40416
vt 0.893768 0.402872
vt 0.892808 0.403182
vt 0.892781 0.40416
vt 0.891779 0.401209
vt 0.88822 0.401179
vt 0.891377 0.402063
vt 0.895367 0.435159
vt 0.893985 0.434601
vt 0.895013 0.43607
vt 0.897563 0.429728
vt 0.896695 0.430711
vt 0.898335 0.430699
vt 0.90878 0.436768
vt 0.91351 0.436768
vt 0.91351 0.435891
vt 0.907211 0.432096
vt 0.906132 0.431689
vt 0.906101 0.432943
vt 0.88822 0.408121
vt 0.889211 0.406062
vt 0.889211 0.405184
vt 0.89621 0.429928
vt 0.896695 0.430711
vt 0.897563 0.429728
vt 0.905519 0.430915
vt 0.906015 0.430164
vt 0.904876 0.429801
vt 0.920757 0.436768
vt 0.916943 0.433679
vt 0.919575 0.436768
vt 0.904876 0.429801
vt 0.90157 0.429788
vt 0.904464 0.430666
vt 0.90878 0.436768
vt 0.909771 0.435891
vt 0.909771 0.429826
vt 0.891412 0.436746
vt 0.890505 0.43602
vt 0.889201 0.436784
vt 0.917057 0.402056
vt 0.920948 0.402056
vt 0.920948 0.401217
vt 0.917057 0.404193
vt 0.916065 0.401217
vt 0.916065 0.408159
vt 0.917057 0.402056
vt 0.920948 0.401217
vt 0.916065 0.401217
vt 0.8929 0.435255
vt 0.892021 0.434942
vt 0.891671 0.435661
vt 0.891114 0.405183
vt 0.889211 0.405184
vt 0.891762 0.406037
vt 0.893768 0.402872
vt 0.893136 0.401869
vt 0.892372 0.402467
vt 0.892808 0.403182
vt 0.896339 0.435891
vt 0.896306 0.436781
vt 0.898055 0.436932
vt 0.904439 0.40729
vt 0.903542 0.408052
vt 0.905725 0.408192
vt 0.891671 0.435661
vt 0.892423 0.436114
vt 0.8929 0.435255
vt 0.893844 0.432644
vt 0.894772 0.433099
vt 0.895361 0.431552
vt 0.895696 0.406405
vt 0.899396 0.406405
vt 0.896039 0.405604
vt 0.889218 0.433507
vt 0.889426 0.432601
vt 0.888394 0.433108
vt 0.906101 0.432943
vt 0.905006 0.433756
vt 0.906307 0.434114
vt 0.906661 0.406542
vt 0.905693 0.407245
vt 0.907151 0.407452
vt 0.898055 0.436932
vt 0.898518 0.43594
vt 0.897466 0.43609
vt 0.88775 0.431383
vt 0.888677 0.431605
vt 0.888941 0.43098
vt 0.894864 0.434213
vt 0.893985 0.434601
vt 0.895367 0.435159
vt 0.913613 0.406674
vt 0.914089 0.407505
vt 0.914591 0.406574
vt 0.911124 0.40119
vt 0.912764 0.402034
vt 0.912932 0.401192
vt 0.892169 0.404934
vt 0.891114 0.405183
vt 0.891762 0.406037
vt 0.906911 0.401217
vt 0.907852 0.405924
vt 0.907864 0.401217
vt 0.88775 0.431383
vt 0.888769 0.432141
vt 0.888677 0.431605
vt 0.919422 0.429826
vt 0.916943 0.433679
vt 0.917591 0.432954
vt 0 1
vt 0 1
vt 0 1
vt 0 1
vt 0 1
vt 0 1
vt 0 1
vt 0 1
s off
f 1/1/1 2/2/2 3/3/3
f 4/4/4 5/5/5 6/6/6
f 7/7/7 8/8/8 9/9/9
f 10/10/10 11/11/11 12/12/12
f 13/13/13 14/14/14 15/15/15
f 16/16/16 17/17/17 18/18/18
f 19/19/19 20/20/20 21/21/21
f 22/22/22 23/23/23 24/24/24
f 25/25/25 26/26/26 27/27/27
f 28/28/28 29/29/29 30/30/30
f 31/31/31 32/32/32 33/33/33
f 34/34/34 35/35/35 36/36/36
f 37/37/37 38/38/38 39/39/39
f 40/40/40 41/41/41 42/42/42
f 43/43/43 44/44/44 45/45/45
f 46/46/46 47/47/47 48/48/48
f 49/49/49 50/50/50 51/51/51
f 52/52/52 53/53/53 54/54/54
f 55/55/55 56/56/56 57/57/57
f 58/58/58 59/59/59 60/60/60
f 61/61/61 62/62/62 63/63/63
f 64/64/64 65/65/65 66/66/66
f 67/67/67 68/68/68 69/69/69
f 70/70/70 71/71/71 72/72/72
f 73/73/73 74/74/74 75/75/75
f 76/76/76 77/77/77 78/78/78
f 79/79/79 80/80/80 81/81/81
f 82/82/82 83/83/83 84/84/84
f 85/85/85 86/86/86 87/87/87
f 88/88/88 89/89/89 90/90/90
f 91/91/91 92/92/92 93/93/93
f 94/94/94 95/95/95 96/96/96
f 97/97/97 98/98/98 99/99/99
f 100/100/100 101/101/101 102/102/102
f 103/103/103 104/104/104 105/105/105
f 106/106/106 107/107/107 108/108/108
f 109/109/109 110/110/110 111/111/111
f 112/112/112 113/113/113 114/114/114
f 115/115/115 116/116/116 117/117/117
f 118/118/118 119/119/119 120/120/120
f 121/121/121 122/122/122 123/123/123
f 124/124/124 125/125/125 126/126/126
f 127/127/127 128/128/128 129/129/129
f 130/130/130 131/131/131 132/132/132
f 133/133/133 134/134/134 135/135/135
f 136/136/136 137/137/137 138/138/138
f 139/139/139 140/140/140 141/141/141
f 142/142/142 143/143/143 144/144/144
f 145/145/145 146/146/146 147/147/147
f 148/148/148 149/149/149 150/150/150
f 151/151/151 152/152/152 153/153/153
f 154/154/154 155/155/155 156/156/156
f 157/157/157 158/158/158 159/159/159
f 160/160/160 161/161/161 162/162/162
f 163/163/163 164/164/164 165/165/165
f 166/166/166 167/167/167 168/168/168
f 169/169/169 170/170/170 171/171/171
f 172/172/172 173/173/173 174/174/174
f 175/175/175 176/176/176 177/177/177
f 178/178/178 179/179/179 180/180/180
f 181/181/181 182/182/182 183/183/183
f 184/184/184 185/185/185 186/186/186
f 187/187/187 188/188/188 189/189/189
f 190/190/190 191/191/191 192/192/192
f 193/193/193 194/194/194 195/195/195
f 196/196/196 197/197/197 198/198/198
f 199/199/199 200/200/200 201/201/201
f 202/202/202 203/203/203 204/204/204
f 205/205/205 206/206/206 207/207/207
f 208/208/208 209/209/209 210/210/210
f 211/211/211 212/212/212 213/213/213
f 214/214/214 215/215/215 216/216/216
f 217/217/217 218/218/218 219/219/219
f 220/220/220 221/221/221 222/222/222
f 223/223/223 224/224/224 225/225/225
f 226/226/226 227/227/227 228/228/228
f 229/229/229 230/230/230 231/231/231
f 232/232/232 233/233/233 234/234/234
f 235/235/235 236/236/236 237/237/237
f 238/238/238 239/239/239 240/240/240
f 241/241/241 242/242/242 243/243/243
f 244/244/244 245/245/245 246/246/246
f 247/247/247 248/248/248 249/249/249
f 250/250/250 251/251/251 252/252/252
f 253/253/253 254/254/254 255/255/255
f 256/256/256 257/257/257 258/258/258
f 259/259/259 260/260/260 261/261/261
f 262/262/262 263/263/263 264/264/264
f 265/265/265 266/266/266 267/267/267
f 268/268/268 269/269/269 270/270/270
f 271/271/271 272/272/272 273/273/273
f 274/274/274 275/275/275 276/276/276
f 277/277/277 278/278/278 279/279/279
f 280/280/280 281/281/281 282/282/282
f 283/283/283 284/284/284 285/285/285
f 286/286/286 287/287/287 288/288/288
f 286/286/286 288/288/288 289/289/289
f 290/290/290 291/291/291 292/292/292
f 293/293/293 294/294/294 295/295/295
f 296/296/296 297/297/297 298/298/298
f 299/299/299 300/300/300 301/301/301
f 302/302/302 303/303/303 304/304/304
f 305/305/305 306/306/306 307/307/307
f 308/308/308 309/309/309 310/310/310
f 308/308/308 310/310/310 311/311/311
f 312/312/312 313/313/313 314/314/314
f 315/315/315 316/316/316 317/317/317
f 318/318/318 319/319/319 320/320/320
f 321/321/321 322/322/322 323/323/323
f 324/324/324 325/325/325 326/326/326
f 324/324/324 326/326/326 327/327/327
f 328/328/328 329/329/329 330/330/330
f 331/331/331 332/332/332 333/333/333
f 334/334/334 335/335/335 336/336/336
f 337/337/337 338/338/338 339/339/339
f 340/340/340 341/341/341 342/342/342
f 343/343/343 344/344/344 345/345/345
f 346/346/346 347/347/347 348/348/348
f 349/349/349 350/350/350 351/351/351
f 352/352/352 353/353/353 354/354/354
f 355/355/355 356/356/356 357/357/357
f 358/358/358 359/359/359 360/360/360
f 361/361/361 362/362/362 363/363/363
f 364/364/364 365/365/365 366/366/366
f 367/367/367 368/368/368 369/369/369
f 370/370/370 371/371/371 372/372/372
f 373/373/373 374/374/374 375/375/375
f 373/373/373 375/375/375 376/376/376
f 377/377/377 378/378/378 379/379/379
f 380/380/380 381/381/381 382/382/382
f 383/383/383 384/384/384 385/385/385
f 386/386/386 387/387/387 388/388/388
f 389/389/389 390/390/390 391/391/391
f 392/392/392 393/393/393 394/394/394
f 395/395/395 396/396/396 397/397/397
f 398/398/398 399/399/399 400/400/400
f 401/401/401 402/402/402 403/403/403
f 404/404/404 405/405/405 406/406/406
f 407/407/407 408/408/408 409/409/409
f 410/410/410 411/411/411 412/412/412
f 413/413/413 414/414/414 415/415/415
f 416/416/416 417/417/417 418/418/418
f 419/419/419 420/420/420 421/421/421
f 422/422/422 423/423/423 424/424/424
f 425/425/425 426/426/426 427/427/427
f 428/428/428 429/429/429 430/430/430
f 428/428/428 430/430/430 431/431/431
f 432/432/432 433/433/433 434/434/434
f 435/435/435 436/436/436 437/437/437
f 438/438/438 439/439/439 440/440/440
f 441/441/441 442/442/442 443/443/443
f 444/444/444 445/445/445 446/446/446
f 447/447/447 448/448/448 449/449/449
f 450/450/450 451/451/451 452/452/452
f 453/453/453 454/454/454 455/455/455
f 456/456/456 457/457/457 458/458/458
f 459/459/459 460/460/460 461/461/461
f 462/462/462 463/463/463 464/464/464
f 465/465/465 466/466/466 467/467/467
f 468/468/468 469/469/469 470/470/470
f 471/471/471 472/472/472 473/473/473
f 474/474/474 475/475/475 476/476/476
f 477/477/477 478/478/478 479/479/479
f 480/480/480 481/481/481 482/482/482
f 483/483/483 484/484/484 485/485/485
f 486/486/486 487/487/487 488/488/488
