v 0.323116 0.16796 0.210059
v 0.322149 0.167965 0.209052
v 0.320947 0.168084 0.208808
v 0.319231 0.168684 0.212111
v 0.320477 0.168626 0.213116
v 0.321709 0.168479 0.213152
v 0.323116 0.16796 0.210059
v 0.319227 0.168432 0.209862
v 0.323101 0.16819 0.212087
v 0.330836 0.161607 0.159852
v 0.333726 0.161464 0.16118
v 0.333726 0.16118 0.158524
v 0.319744 0.162253 0.155556
v 0.330836 0.161607 0.159852
v 0.333726 0.16118 0.158524
v 0.323116 0.16796 0.210059
v 0.320947 0.168084 0.208808
v 0.319227 0.168432 0.209862
v 0.333726 0.16118 0.158524
v 0.319744 0.162022 0.152978
v 0.319744 0.162253 0.155556
v 0.330836 0.161607 0.159852
v 0.319744 0.163218 0.164148
v 0.319744 0.163508 0.166726
v 0.323101 0.16819 0.212087
v 0.319227 0.168432 0.209862
v 0.319231 0.168684 0.212111
v 0.330836 0.161607 0.159852
v 0.319744 0.163508 0.166726
v 0.333726 0.161464 0.16118
v 0.321709 0.168479 0.213152
v 0.323101 0.16819 0.212087
v 0.319231 0.168684 0.212111
vn 0.1202 0.9866 -0.1108
vn 0.1202 0.9866 -0.1108
vn 0.1202 0.9866 -0.1108
vn 0.1199 0.9886 -0.0911
vn 0.1199 0.9886 -0.0911
vn 0.1199 0.9886 -0.0911
vn 0.1252 0.9859 -0.1108
vn 0.1252 0.9859 -0.1108
vn 0.1252 0.9859 -0.1108
vn 0.0975 0.9896 -0.1055
vn 0.0975 0.9896 -0.1055
vn 0.0975 0.9896 -0.1055
vn 0.0981 0.9897 -0.1043
vn 0.0981 0.9897 -0.1043
vn 0.0981 0.9897 -0.1043
vn 0.1255 0.9848 -0.1202
vn 0.1255 0.9848 -0.1202
vn 0.1255 0.9848 -0.1202
vn 0.0949 0.9915 -0.0889
vn 0.0949 0.9915 -0.0889
vn 0.0949 0.9915 -0.0889
vn 0.1006 0.9887 -0.1111
vn 0.1006 0.9887 -0.1111
vn 0.1006 0.9887 -0.1111
vn 0.1251 0.9859 -0.1107
vn 0.1251 0.9859 -0.1107
vn 0.1251 0.9859 -0.1107
vn 0.1003 0.9887 -0.1117
vn 0.1003 0.9887 -0.1117
vn 0.1003 0.9887 -0.1117
vn 0.1252 0.9866 -0.1043
vn 0.1252 0.9866 -0.1043
vn 0.1252 0.9866 -0.1043
vt 0.660006 0.678674
vt 0.659533 0.678182
vt 0.658946 0.678063
vt 0.658108 0.679675
vt 0.658717 0.680167
vt 0.659318 0.680184
vt 0.660006 0.678674
vt 0.658106 0.678578
vt 0.659998 0.679664
vt 0.663776 0.654155
vt 0.665187 0.654804
vt 0.665187 0.653507
vt 0.658359 0.652057
vt 0.663776 0.654155
vt 0.665187 0.653507
vt 0.660006 0.678674
vt 0.658946 0.678063
vt 0.658106 0.678578
vt 0.665187 0.653507
vt 0.658359 0.650799
vt 0.658359 0.652057
vt 0.663776 0.654155
vt 0.658359 0.656253
vt 0.658359 0.657512
vt 0.659998 0.679664
vt 0.658106 0.678578
vt 0.658108 0.679675
vt 0.663776 0.654155
vt 0.658359 0.657512
vt 0.665187 0.654804
vt 0.659318 0.680184
vt 0.659998 0.679664
vt 0.658108 0.679675
s off
f 1/1/1 2/2/2 3/3/3
f 4/4/4 5/5/5 6/6/6
f 7/7/7 8/8/8 9/9/9
f 10/10/10 11/11/11 12/12/12
f 13/13/13 14/14/14 15/15/15
f 16/16/16 17/17/17 18/18/18
f 19/19/19 20/20/20 21/21/21
f 22/22/22 23/23/23 24/24/24
f 25/25/25 26/26/26 27/27/27
f 28/28/28 29/29/29 30/30/30
f 31/31/31 32/32/32 33/33/33
