v 0.936321 0.167887 0.073864
v 0.934127 0.168146 0.073642
v 0.934051 0.168133 0.077044
v 0.953664 0.167303 0.041918
v 0.950784 0.167387 0.042231
v 0.951962 0.167325 0.044627
v 0.929573 0.168936 0.04086
v 0.93184 0.168707 0.039811
v 0.929091 0.169006 0.039028
v 0.938537 0.167916 0.048076
v 0.934241 0.168317 0.053231
v 0.937912 0.167965 0.049716
v 0.940646 0.167785 0.039015
v 0.938537 0.167916 0.048076
v 0.941583 0.167688 0.041124
v 0.966266 0.167211 0.067916
v 0.96447 0.167149 0.067916
v 0.965329 0.167147 0.070806
v 0.976733 0.168096 0.040812
v 0.976733 0.168107 0.039015
v 0.968688 0.16756 0.040812
v 0.966657 0.167372 0.053231
v 0.976967 0.168027 0.051513
v 0.968688 0.167452 0.051513
v 0.924633 0.169471 0.053231
v 0.924633 0.169499 0.048935
v 0.922602 0.169863 0.053231
v 0.922602 0.169925 0.039015
v 0.924633 0.16951 0.047217
v 0.924633 0.169552 0.040812
v 0.929573 0.168936 0.04086
v 0.929091 0.169006 0.039028
v 0.924633 0.169552 0.040812
v 0.937912 0.167965 0.049716
v 0.934241 0.168317 0.053231
v 0.93635 0.168094 0.053231
v 0.938537 0.167916 0.048076
v 0.945489 0.167467 0.049716
v 0.94463 0.167513 0.048076
v 0.940646 0.167785 0.039015
v 0.941583 0.167688 0.041124
v 0.942677 0.167672 0.039015
v 0.960064 0.167161 0.053241
v 0.962751 0.167268 0.051763
v 0.96076 0.16721 0.050953
v 0.951332 0.167012 0.074887
v 0.953266 0.166967 0.073341
v 0.950763 0.167055 0.072527
v 0.968688 0.167516 0.045186
v 0.968688 0.16756 0.040812
v 0.966657 0.167517 0.039015
v 0.929799 0.168613 0.082121
v 0.924633 0.169292 0.080492
v 0.922602 0.169673 0.082132
v 0.922602 0.169673 0.082132
v 0.924633 0.169292 0.080492
v 0.924633 0.169362 0.069713
v 0.931993 0.168365 0.079591
v 0.935586 0.167938 0.078601
v 0.934051 0.168133 0.077044
v 0.961424 0.166888 0.082132
v 0.960408 0.166882 0.079477
v 0.959236 0.166813 0.082132
v 0.988762 0.16912 0.078539
v 0.980561 0.168256 0.071587
v 0.989074 0.169129 0.082132
v 0.956516 0.16723 0.040704
v 0.959552 0.16728 0.040892
v 0.959746 0.167306 0.039054
v 0.948196 0.167067 0.080103
v 0.951043 0.166965 0.080477
v 0.950713 0.167005 0.07768
v 0.940917 0.167418 0.072312
v 0.939458 0.167588 0.07071
v 0.938199 0.167688 0.073962
v 0.945084 0.167169 0.080506
v 0.944752 0.167161 0.08236
v 0.948014 0.167052 0.082148
v 0.942245 0.167255 0.081622
v 0.945084 0.167169 0.080506
v 0.94251 0.167266 0.07958
v 0.932671 0.168541 0.047524
v 0.931657 0.168666 0.045772
v 0.929668 0.168862 0.047127
v 0.94916 0.167315 0.053231
v 0.945489 0.167467 0.049716
v 0.947051 0.167379 0.053231
v 0.924633 0.16951 0.047217
v 0.924633 0.169499 0.048935
v 0.929891 0.168821 0.048874
v 0.955659 0.167275 0.038948
v 0.953664 0.167303 0.041918
v 0.956516 0.16723 0.040704
v 0.924633 0.169362 0.069713
v 0.930665 0.1686 0.067968
v 0.922602 0.169766 0.067916
v 0.990793 0.169487 0.067916
v 0.988762 0.169189 0.067916
v 0.988762 0.16912 0.078539
v 0.980561 0.168148 0.082132
v 0.97853 0.168048 0.067916
v 0.97853 0.167904 0.082132
v 0.97025 0.167215 0.079554
v 0.969157 0.167152 0.082132
v 0.971344 0.167222 0.082132
v 0.931993 0.168365 0.079591
v 0.93271 0.168267 0.081283
v 0.935586 0.167938 0.078601
v 0.97025 0.167215 0.079554
v 0.965329 0.167147 0.070806
v 0.969157 0.167152 0.082132
v 0.953664 0.167303 0.041918
v 0.955659 0.167275 0.038948
v 0.952828 0.167348 0.040138
v 0.940271 0.167457 0.075161
v 0.938199 0.167688 0.073962
v 0.9385 0.167622 0.077282
v 0.950784 0.167387 0.042231
v 0.949665 0.16738 0.045988
v 0.951962 0.167325 0.044627
v 0.94251 0.167266 0.07958
v 0.939972 0.16744 0.079946
v 0.942245 0.167255 0.081622
v 0.97025 0.167215 0.079554
v 0.971344 0.167222 0.082132
v 0.976108 0.167757 0.067916
v 0.960408 0.166882 0.079477
v 0.965329 0.167147 0.070806
v 0.96447 0.167149 0.067916
v 0.961591 0.167329 0.042281
v 0.962886 0.167382 0.040983
v 0.959552 0.16728 0.040892
v 0.939458 0.167588 0.07071
v 0.940917 0.167418 0.072312
v 0.941917 0.167399 0.068524
v 0.931593 0.168709 0.042182
v 0.93184 0.168707 0.039811
v 0.929573 0.168936 0.04086
v 0.939972 0.16744 0.079946
v 0.94251 0.167266 0.07958
v 0.940803 0.167378 0.077442
v 0.952723 0.167218 0.052217
v 0.954126 0.167189 0.050914
v 0.952716 0.167249 0.049428
v 0.950713 0.167005 0.07768
v 0.951043 0.166965 0.080477
v 0.952914 0.166929 0.077749
v 0.957125 0.167088 0.051821
v 0.960064 0.167161 0.053241
v 0.96076 0.16721 0.050953
v 0.941917 0.167399 0.068524
v 0.943185 0.167339 0.070097
v 0.945344 0.16729 0.067645
v 0.929368 0.168675 0.080478
v 0.929799 0.168613 0.082121
v 0.931993 0.168365 0.079591
v 0.968688 0.167498 0.046904
v 0.966657 0.167372 0.053231
v 0.968688 0.167452 0.051513
v 0.940271 0.167457 0.075161
v 0.9385 0.167622 0.077282
v 0.940803 0.167378 0.077442
v 0.932671 0.168541 0.047524
v 0.929668 0.168862 0.047127
v 0.929891 0.168821 0.048874
v 0.945084 0.167169 0.080506
v 0.948014 0.167052 0.082148
v 0.948196 0.167067 0.080103
v 0.980248 0.168255 0.067916
v 0.980561 0.168256 0.071587
v 0.988762 0.16912 0.078539
v 0.924633 0.169362 0.069713
v 0.922602 0.169766 0.067916
v 0.922602 0.169673 0.082132
v 0.932091 0.168639 0.043871
v 0.934079 0.168416 0.04516
v 0.933691 0.168493 0.041688
v 0.929891 0.168821 0.048874
v 0.929668 0.168862 0.047127
v 0.924633 0.16951 0.047217
v 0.931593 0.168709 0.042182
v 0.932091 0.168639 0.043871
v 0.933691 0.168493 0.041688
v 0.9385 0.167622 0.077282
v 0.939972 0.16744 0.079946
v 0.940803 0.167378 0.077442
v 0.949665 0.16738 0.045988
v 0.951909 0.167292 0.047726
v 0.951962 0.167325 0.044627
v 0.960408 0.166882 0.079477
v 0.961424 0.166888 0.082132
v 0.965329 0.167147 0.070806
v 0.974156 0.167521 0.067916
v 0.97025 0.167215 0.079554
v 0.976108 0.167757 0.067916
v 0.956516 0.16723 0.040704
v 0.959746 0.167306 0.039054
v 0.955659 0.167275 0.038948
v 0.948878 0.167164 0.068177
v 0.945801 0.167256 0.069502
v 0.948822 0.167145 0.070238
v 0.940271 0.167457 0.075161
v 0.940917 0.167418 0.072312
v 0.938199 0.167688 0.073962
v 0.931593 0.168709 0.042182
v 0.933691 0.168493 0.041688
v 0.93184 0.168707 0.039811
v 0.929967 0.168673 0.069754
v 0.932936 0.168304 0.071393
v 0.930665 0.1686 0.067968
v 0.980561 0.168148 0.082132
v 0.980561 0.168256 0.071587
v 0.97853 0.168048 0.067916
v 0.948822 0.167145 0.070238
v 0.951454 0.167059 0.070025
v 0.948878 0.167164 0.068177
v 0.968688 0.16756 0.040812
v 0.976733 0.168107 0.039015
v 0.966657 0.167517 0.039015
v 0.922602 0.169925 0.039015
v 0.922602 0.169863 0.053231
v 0.924633 0.16951 0.047217
v 0.968688 0.167516 0.045186
v 0.966657 0.167517 0.039015
v 0.966657 0.167372 0.053231
v 0.968688 0.167498 0.046904
v 0.975874 0.16796 0.045186
v 0.968688 0.167516 0.045186
v 0.968688 0.167498 0.046904
v 0.97025 0.167215 0.079554
v 0.966266 0.167211 0.067916
v 0.965329 0.167147 0.070806
v 0.968688 0.167498 0.046904
v 0.975874 0.167942 0.046904
v 0.975874 0.16796 0.045186
v 0.957125 0.167088 0.051821
v 0.956049 0.167102 0.053507
v 0.960064 0.167161 0.053241
v 0.945344 0.16729 0.067645
v 0.943185 0.167339 0.070097
v 0.945801 0.167256 0.069502
v 0.950524 0.167314 0.049591
v 0.952723 0.167218 0.052217
v 0.952716 0.167249 0.049428
v 0.951332 0.167012 0.074887
v 0.952914 0.166929 0.077749
v 0.953266 0.166967 0.073341
v 0.954126 0.167189 0.050914
v 0.952723 0.167218 0.052217
v 0.956049 0.167102 0.053507
v 0.957125 0.167088 0.051821
v 0.934555 0.168118 0.070074
v 0.930665 0.1686 0.067968
v 0.932936 0.168304 0.071393
v 0.930665 0.1686 0.067968
v 0.924633 0.169362 0.069713
v 0.929967 0.168673 0.069754
v 0.922602 0.169863 0.053231
v 0.924633 0.169499 0.048935
v 0.924633 0.16951 0.047217
v 0.931993 0.168365 0.079591
v 0.929799 0.168613 0.082121
v 0.93271 0.168267 0.081283
v 0.945801 0.167256 0.069502
v 0.948878 0.167164 0.068177
v 0.945344 0.16729 0.067645
v 0.929091 0.169006 0.039028
v 0.922602 0.169925 0.039015
v 0.924633 0.169552 0.040812
v 0.962751 0.167325 0.046201
v 0.960798 0.167264 0.046201
v 0.96076 0.16721 0.050953
v 0.962751 0.167268 0.051763
v 0.931657 0.168666 0.045772
v 0.932671 0.168541 0.047524
v 0.934079 0.168416 0.04516
v 0.942677 0.167672 0.039015
v 0.941583 0.167688 0.041124
v 0.94463 0.167513 0.048076
v 0.951454 0.167059 0.070025
v 0.948822 0.167145 0.070238
v 0.950763 0.167055 0.072527
v 0.929368 0.168675 0.080478
v 0.924633 0.169292 0.080492
v 0.929799 0.168613 0.082121
v 0.937912 0.167965 0.049716
v 0.945489 0.167467 0.049716
v 0.938537 0.167916 0.048076
v 0.952914 0.166929 0.077749
v 0.951332 0.167012 0.074887
v 0.950713 0.167005 0.07768
v 0.980248 0.168255 0.067916
v 0.97853 0.168048 0.067916
v 0.980561 0.168256 0.071587
v 0.952716 0.167249 0.049428
v 0.951909 0.167292 0.047726
v 0.950524 0.167314 0.049591
v 0.941917 0.167399 0.068524
v 0.940917 0.167418 0.072312
v 0.943185 0.167339 0.070097
v 0.953266 0.166967 0.073341
v 0.951454 0.167059 0.070025
v 0.950763 0.167055 0.072527
v 0.976967 0.168027 0.051513
v 0.966657 0.167372 0.053231
v 0.976967 0.16801 0.053231
v 0.935586 0.167938 0.078601
v 0.936321 0.167887 0.073864
v 0.934051 0.168133 0.077044
v 0.942245 0.167255 0.081622
v 0.944752 0.167161 0.08236
v 0.945084 0.167169 0.080506
v 0.94916 0.167315 0.053231
v 0.942677 0.167672 0.039015
v 0.94463 0.167513 0.048076
v 0.945489 0.167467 0.049716
v 0.948014 0.167052 0.082148
v 0.951043 0.166965 0.080477
v 0.948196 0.167067 0.080103
v 0.960408 0.166882 0.079477
v 0.956581 0.166927 0.067916
v 0.954472 0.166991 0.067916
v 0.959236 0.166813 0.082132
v 0.952828 0.167348 0.040138
v 0.950784 0.167387 0.042231
v 0.953664 0.167303 0.041918
v 0.989074 0.169129 0.082132
v 0.990793 0.169394 0.082132
v 0.988762 0.16912 0.078539
v 0.988762 0.16912 0.078539
v 0.990793 0.169394 0.082132
v 0.990793 0.169487 0.067916
v 0.951909 0.167292 0.047726
v 0.949665 0.16738 0.045988
v 0.950524 0.167314 0.049591
v 0.934555 0.168118 0.070074
v 0.932936 0.168304 0.071393
v 0.934127 0.168146 0.073642
v 0.936321 0.167887 0.073864
v 0.940646 0.167785 0.039015
v 0.934241 0.168317 0.053231
v 0.938537 0.167916 0.048076
v 0.959552 0.16728 0.040892
v 0.962886 0.167382 0.040983
v 0.959746 0.167306 0.039054
v 0.932091 0.168639 0.043871
v 0.931657 0.168666 0.045772
v 0.934079 0.168416 0.04516
vn 0.1165 0.9932 0.0064
vn 0.1165 0.9932 0.0064
vn 0.1165 0.9932 0.0064
vn 0.0304 0.9995 0.0111
vn 0.0304 0.9995 0.0111
vn 0.0304 0.9995 0.0111
vn 0.1051 0.9944 0.0101
vn 0.1051 0.9944 0.0101
vn 0.1051 0.9944 0.0101
vn 0.1052 0.9944 0.0102
vn 0.1052 0.9944 0.0102
vn 0.1052 0.9944 0.0102
vn 0.0888 0.996 0.0063
vn 0.0888 0.996 0.0063
vn 0.0888 0.996 0.0063
vn -0.0342 0.9994 0.0111
vn -0.0342 0.9994 0.0111
vn -0.0342 0.9994 0.0111
vn -0.0664 0.9978 0.0065
vn -0.0664 0.9978 0.0065
vn -0.0664 0.9978 0.0065
vn -0.0693 0.9969 -0.0359
vn -0.0693 0.9969 -0.0359
vn -0.0693 0.9969 -0.0359
vn 0.1894 0.9819 0.0064
vn 0.1894 0.9819 0.0064
vn 0.1894 0.9819 0.0064
vn 0.1748 0.9846 0.0065
vn 0.1748 0.9846 0.0065
vn 0.1748 0.9846 0.0065
vn 0.1238 0.9923 0.0051
vn 0.1238 0.9923 0.0051
vn 0.1238 0.9923 0.0051
vn 0.1051 0.9944 0.0101
vn 0.1051 0.9944 0.0101
vn 0.1051 0.9944 0.0101
vn 0.0659 0.9978 -0.0066
vn 0.0659 0.9978 -0.0066
vn 0.0659 0.9978 -0.0066
vn 0.0555 0.9982 0.0212
vn 0.0555 0.9982 0.0212
vn 0.0555 0.9982 0.0212
vn -0.0339 0.9994 0.0112
vn -0.0339 0.9994 0.0112
vn -0.0339 0.9994 0.0112
vn 0.0317 0.9994 0.0108
vn 0.0317 0.9994 0.0108
vn 0.0317 0.9994 0.0108
vn -0.0304 0.9995 0.0101
vn -0.0304 0.9995 0.0101
vn -0.0304 0.9995 0.0101
vn 0.1455 0.9881 -0.0494
vn 0.1455 0.9881 -0.0494
vn 0.1455 0.9881 -0.0494
vn 0.1894 0.9819 0.0065
vn 0.1894 0.9819 0.0065
vn 0.1894 0.9819 0.0065
vn 0.1197 0.9928 0.0065
vn 0.1197 0.9928 0.0065
vn 0.1197 0.9928 0.0065
vn -0.0342 0.9994 0.0111
vn -0.0342 0.9994 0.0111
vn -0.0342 0.9994 0.0111
vn -0.1106 0.9938 0.007
vn -0.1106 0.9938 0.007
vn -0.1106 0.9938 0.007
vn -0.0174 0.9998 0.0122
vn -0.0174 0.9998 0.0122
vn -0.0174 0.9998 0.0122
vn 0.0342 0.9994 0.0101
vn 0.0342 0.9994 0.0101
vn 0.0342 0.9994 0.0101
vn 0.105 0.9944 0.0101
vn 0.105 0.9944 0.0101
vn 0.105 0.9944 0.0101
vn 0.0342 0.9994 0.0101
vn 0.0342 0.9994 0.0101
vn 0.0342 0.9994 0.0101
vn 0.0342 0.9994 0.0101
vn 0.0342 0.9994 0.0101
vn 0.0342 0.9994 0.0101
vn 0.1051 0.9944 0.0101
vn 0.1051 0.9944 0.0101
vn 0.1051 0.9944 0.0101
vn 0.0304 0.9995 0.0116
vn 0.0304 0.9995 0.0116
vn 0.0304 0.9995 0.0116
vn 0.128 0.9918 0.0065
vn 0.128 0.9918 0.0065
vn 0.128 0.9918 0.0065
vn 0.0304 0.9995 0.0111
vn 0.0304 0.9995 0.0111
vn 0.0304 0.9995 0.0111
vn 0.1424 0.9879 0.0609
vn 0.1424 0.9879 0.0609
vn 0.1424 0.9879 0.0609
vn -0.1452 0.9894 0.0065
vn -0.1452 0.9894 0.0065
vn -0.1452 0.9894 0.0065
vn -0.1196 0.9928 0.0101
vn -0.1196 0.9928 0.0101
vn -0.1196 0.9928 0.0101
vn -0.0318 0.9994 0.0108
vn -0.0318 0.9994 0.0108
vn -0.0318 0.9994 0.0108
vn 0.1197 0.9928 0.0065
vn 0.1197 0.9928 0.0065
vn 0.1197 0.9928 0.0065
vn -0.0325 0.9994 0.0105
vn -0.0325 0.9994 0.0105
vn -0.0325 0.9994 0.0105
vn 0.0304 0.9995 0.0111
vn 0.0304 0.9995 0.0111
vn 0.0304 0.9995 0.0111
vn 0.105 0.9944 0.0101
vn 0.105 0.9944 0.0101
vn 0.105 0.9944 0.0101
vn 0.0304 0.9995 0.0111
vn 0.0304 0.9995 0.0111
vn 0.0304 0.9995 0.0111
vn 0.0703 0.9974 0.0148
vn 0.0703 0.9974 0.0148
vn 0.0703 0.9974 0.0148
vn -0.053 0.9984 0.0198
vn -0.053 0.9984 0.0198
vn -0.053 0.9984 0.0198
vn -0.0342 0.9994 0.0111
vn -0.0342 0.9994 0.0111
vn -0.0342 0.9994 0.0111
vn -0.0308 0.9995 0.0098
vn -0.0308 0.9995 0.0098
vn -0.0308 0.9995 0.0098
vn 0.0943 0.9953 0.0199
vn 0.0943 0.9953 0.0199
vn 0.0943 0.9953 0.0199
vn 0.1051 0.9944 0.0101
vn 0.1051 0.9944 0.0101
vn 0.1051 0.9944 0.0101
vn 0.0678 0.9977 -0.0023
vn 0.0678 0.9977 -0.0023
vn 0.0678 0.9977 -0.0023
vn 0.0304 0.9995 0.0111
vn 0.0304 0.9995 0.0111
vn 0.0304 0.9995 0.0111
vn 0.0341 0.9994 0.0102
vn 0.0341 0.9994 0.0102
vn 0.0341 0.9994 0.0102
vn -0.0306 0.9995 0.0122
vn -0.0306 0.9995 0.0122
vn -0.0306 0.9995 0.0122
vn 0.0342 0.9994 0.0102
vn 0.0342 0.9994 0.0102
vn 0.0342 0.9994 0.0102
vn 0.1197 0.9928 0.0065
vn 0.1197 0.9928 0.0065
vn 0.1197 0.9928 0.0065
vn -0.0304 0.9995 0.0101
vn -0.0304 0.9995 0.0101
vn -0.0304 0.9995 0.0101
vn 0.105 0.9944 0.0101
vn 0.105 0.9944 0.0101
vn 0.105 0.9944 0.0101
vn 0.1051 0.9944 0.0102
vn 0.1051 0.9944 0.0102
vn 0.1051 0.9944 0.0102
vn 0.0342 0.9994 0.0102
vn 0.0342 0.9994 0.0102
vn 0.0342 0.9994 0.0102
vn -0.1128 0.9936 0.0095
vn -0.1128 0.9936 0.0095
vn -0.1128 0.9936 0.0095
vn 0.1894 0.9819 0.0064
vn 0.1894 0.9819 0.0064
vn 0.1894 0.9819 0.0064
vn 0.105 0.9944 0.0101
vn 0.105 0.9944 0.0101
vn 0.105 0.9944 0.0101
vn 0.1278 0.9918 0.0072
vn 0.1278 0.9918 0.0072
vn 0.1278 0.9918 0.0072
vn 0.1051 0.9944 0.0101
vn 0.1051 0.9944 0.0101
vn 0.1051 0.9944 0.0101
vn 0.105 0.9944 0.0102
vn 0.105 0.9944 0.0102
vn 0.105 0.9944 0.0102
vn 0.0304 0.9995 0.0111
vn 0.0304 0.9995 0.0111
vn 0.0304 0.9995 0.0111
vn -0.0342 0.9994 0.011
vn -0.0342 0.9994 0.011
vn -0.0342 0.9994 0.011
vn -0.1196 0.9927 -0.014
vn -0.1196 0.9927 -0.014
vn -0.1196 0.9927 -0.014
vn -0.0083 0.9995 0.0299
vn -0.0083 0.9995 0.0299
vn -0.0083 0.9995 0.0299
vn 0.0342 0.9994 0.0101
vn 0.0342 0.9994 0.0101
vn 0.0342 0.9994 0.0101
vn 0.105 0.9944 0.0101
vn 0.105 0.9944 0.0101
vn 0.105 0.9944 0.0101
vn 0.105 0.9944 0.0101
vn 0.105 0.9944 0.0101
vn 0.105 0.9944 0.0101
vn 0.1197 0.9928 0.0065
vn 0.1197 0.9928 0.0065
vn 0.1197 0.9928 0.0065
vn -0.1196 0.9928 0.0101
vn -0.1196 0.9928 0.0101
vn -0.1196 0.9928 0.0101
vn 0.0335 0.9994 0.0101
vn 0.0335 0.9994 0.0101
vn 0.0335 0.9994 0.0101
vn -0.0585 0.9974 0.0419
vn -0.0585 0.9974 0.0419
vn -0.0585 0.9974 0.0419
vn 0.1833 0.9831 0.0043
vn 0.1833 0.9831 0.0043
vn 0.1833 0.9831 0.0043
vn -0.0304 0.9995 0.0101
vn -0.0304 0.9995 0.0101
vn -0.0304 0.9995 0.0101
vn -0.0304 0.9995 0.0101
vn -0.0617 0.998 0.0102
vn -0.0617 0.998 0.0102
vn -0.0617 0.998 0.0102
vn -0.0338 0.9994 0.0112
vn -0.0338 0.9994 0.0112
vn -0.0338 0.9994 0.0112
vn -0.0617 0.998 0.0101
vn -0.0617 0.998 0.0101
vn -0.0617 0.998 0.0101
vn -0.0158 0.9997 -0.0184
vn -0.0158 0.9997 -0.0184
vn -0.0158 0.9997 -0.0184
vn 0.0342 0.9994 0.0101
vn 0.0342 0.9994 0.0101
vn 0.0342 0.9994 0.0101
vn 0.0304 0.9995 0.0111
vn 0.0304 0.9995 0.0111
vn 0.0304 0.9995 0.0111
vn 0.0321 0.9994 0.0112
vn 0.0321 0.9994 0.0112
vn 0.0321 0.9994 0.0112
vn 0.0304 0.9995 0.0111
vn 0.0304 0.9995 0.0111
vn 0.0304 0.9995 0.0111
vn 0.0304 0.9995 0.0111
vn 0.1197 0.9928 0.0065
vn 0.1197 0.9928 0.0065
vn 0.1197 0.9928 0.0065
vn 0.1281 0.9917 0.0098
vn 0.1281 0.9917 0.0098
vn 0.1281 0.9917 0.0098
vn 0.1894 0.9819 0.0064
vn 0.1894 0.9819 0.0064
vn 0.1894 0.9819 0.0064
vn 0.1197 0.9928 0.0065
vn 0.1197 0.9928 0.0065
vn 0.1197 0.9928 0.0065
vn 0.0342 0.9994 0.0101
vn 0.0342 0.9994 0.0101
vn 0.0342 0.9994 0.0101
vn 0.14 0.989 0.0467
vn 0.14 0.989 0.0467
vn 0.14 0.989 0.0467
vn -0.0324 0.9994 0.0106
vn -0.0324 0.9994 0.0106
vn -0.0324 0.9994 0.0106
vn -0.0324 0.9994 0.0106
vn 0.105 0.9944 0.0101
vn 0.105 0.9944 0.0101
vn 0.105 0.9944 0.0101
vn 0.0342 0.9994 0.0101
vn 0.0342 0.9994 0.0101
vn 0.0342 0.9994 0.0101
vn 0.0335 0.9994 0.0107
vn 0.0335 0.9994 0.0107
vn 0.0335 0.9994 0.0107
vn 0.1291 0.9916 0.004
vn 0.1291 0.9916 0.004
vn 0.1291 0.9916 0.004
vn 0.0655 0.9978 -0.005
vn 0.0655 0.9978 -0.005
vn 0.0655 0.9978 -0.005
vn 0.0341 0.9994 0.0101
vn 0.0341 0.9994 0.0101
vn 0.0341 0.9994 0.0101
vn -0.1196 0.9928 0.0101
vn -0.1196 0.9928 0.0101
vn -0.1196 0.9928 0.0101
vn 0.0304 0.9995 0.0111
vn 0.0304 0.9995 0.0111
vn 0.0304 0.9995 0.0111
vn 0.0399 0.9992 0.0056
vn 0.0399 0.9992 0.0056
vn 0.0399 0.9992 0.0056
vn 0.0319 0.9994 0.0103
vn 0.0319 0.9994 0.0103
vn 0.0319 0.9994 0.0103
vn -0.0617 0.998 0.0102
vn -0.0617 0.998 0.0102
vn -0.0617 0.998 0.0102
vn 0.1184 0.9929 0.0078
vn 0.1184 0.9929 0.0078
vn 0.1184 0.9929 0.0078
vn 0.0342 0.9994 0.0101
vn 0.0342 0.9994 0.0101
vn 0.0342 0.9994 0.0101
vn 0.0314 0.9994 0.0109
vn 0.0314 0.9994 0.0109
vn 0.0314 0.9994 0.0109
vn 0.0314 0.9994 0.0109
vn 0.0342 0.9994 0.0102
vn 0.0342 0.9994 0.0102
vn 0.0342 0.9994 0.0102
vn 0.0042 1 0.0072
vn 0.0042 1 0.0072
vn 0.0042 1 0.0072
vn 0.0042 1 0.0072
vn 0.0304 0.9995 0.0111
vn 0.0304 0.9995 0.0111
vn 0.0304 0.9995 0.0111
vn -0.1522 0.9883 0.0106
vn -0.1522 0.9883 0.0106
vn -0.1522 0.9883 0.0106
vn -0.1451 0.9894 0.0065
vn -0.1451 0.9894 0.0065
vn -0.1451 0.9894 0.0065
vn 0.0304 0.9995 0.0111
vn 0.0304 0.9995 0.0111
vn 0.0304 0.9995 0.0111
vn 0.1178 0.993 0.0062
vn 0.1178 0.993 0.0062
vn 0.1178 0.993 0.0062
vn 0.1178 0.993 0.0062
vn 0.105 0.9944 0.0101
vn 0.105 0.9944 0.0101
vn 0.105 0.9944 0.0101
vn -0.0308 0.9995 0.0108
vn -0.0308 0.9995 0.0108
vn -0.0308 0.9995 0.0108
vn 0.105 0.9944 0.0101
vn 0.105 0.9944 0.0101
vn 0.105 0.9944 0.0101
vt 0.95946 0.612163
vt 0.958388 0.612055
vt 0.958351 0.613716
vt 0.967929 0.596563
vt 0.966523 0.596716
vt 0.967098 0.597886
vt 0.956165 0.596046
vt 0.957272 0.595534
vt 0.955929 0.595152
vt 0.960542 0.59957
vt 0.958444 0.602088
vt 0.960237 0.600371
vt 0.961572 0.595145
vt 0.960542 0.59957
vt 0.96203 0.596175
vt 0.974084 0.609259
vt 0.973206 0.609259
vt 0.973626 0.610671
vt 0.979195 0.596023
vt 0.979195 0.595145
vt 0.975266 0.596023
vt 0.974274 0.602088
vt 0.979309 0.601249
vt 0.975266 0.601249
vt 0.953752 0.602088
vt 0.953752 0.59999
vt 0.952761 0.602088
vt 0.952761 0.595145
vt 0.953752 0.599151
vt 0.953752 0.596023
vt 0.956165 0.596046
vt 0.955929 0.595152
vt 0.953752 0.596023
vt 0.960237 0.600371
vt 0.958444 0.602088
vt 0.959474 0.602088
vt 0.960542 0.59957
vt 0.963937 0.600371
vt 0.963517 0.59957
vt 0.961572 0.595145
vt 0.96203 0.596175
vt 0.962564 0.595145
vt 0.971055 0.602093
vt 0.972367 0.601371
vt 0.971394 0.600975
vt 0.96679 0.612663
vt 0.967735 0.611908
vt 0.966513 0.611511
vt 0.975266 0.598159
vt 0.975266 0.596023
vt 0.974274 0.595145
vt 0.956275 0.616196
vt 0.953752 0.6154
vt 0.952761 0.616201
vt 0.952761 0.616201
vt 0.953752 0.6154
vt 0.953752 0.610136
vt 0.957346 0.61496
vt 0.959101 0.614477
vt 0.958351 0.613716
vt 0.971719 0.616201
vt 0.971223 0.614905
vt 0.97065 0.616201
vt 0.985069 0.614447
vt 0.981064 0.611052
vt 0.985222 0.616201
vt 0.969322 0.59597
vt 0.970805 0.596062
vt 0.9709 0.595164
vt 0.965259 0.615211
vt 0.966649 0.615393
vt 0.966488 0.614027
vt 0.961704 0.611406
vt 0.960992 0.610624
vt 0.960377 0.612211
vt 0.963739 0.615407
vt 0.963577 0.616313
vt 0.96517 0.616209
vt 0.962353 0.615952
vt 0.963739 0.615407
vt 0.962482 0.614955
vt 0.957677 0.599301
vt 0.957182 0.598445
vt 0.956211 0.599107
vt 0.96573 0.602088
vt 0.963937 0.600371
vt 0.9647 0.602088
vt 0.953752 0.599151
vt 0.953752 0.59999
vt 0.95632 0.59996
vt 0.968904 0.595113
vt 0.967929 0.596563
vt 0.969322 0.59597
vt 0.953752 0.610136
vt 0.956698 0.609284
vt 0.952761 0.609259
vt 0.986061 0.609259
vt 0.985069 0.609259
vt 0.985069 0.614447
vt 0.981064 0.616201
vt 0.980072 0.609259
vt 0.980072 0.616201
vt 0.976029 0.614942
vt 0.975495 0.616201
vt 0.976563 0.616201
vt 0.957346 0.61496
vt 0.957697 0.615787
vt 0.959101 0.614477
vt 0.976029 0.614942
vt 0.973626 0.610671
vt 0.975495 0.616201
vt 0.967929 0.596563
vt 0.968904 0.595113
vt 0.967521 0.595694
vt 0.961389 0.612797
vt 0.960377 0.612211
vt 0.960524 0.613833
vt 0.966523 0.596716
vt 0.965976 0.59855
vt 0.967098 0.597886
vt 0.962482 0.614955
vt 0.961243 0.615134
vt 0.962353 0.615952
vt 0.976029 0.614942
vt 0.976563 0.616201
vt 0.97889 0.609259
vt 0.971223 0.614905
vt 0.973626 0.610671
vt 0.973206 0.609259
vt 0.9718 0.59674
vt 0.972433 0.596107
vt 0.970805 0.596062
vt 0.960992 0.610624
vt 0.961704 0.611406
vt 0.962193 0.609556
vt 0.957151 0.596692
vt 0.957272 0.595534
vt 0.956165 0.596046
vt 0.961243 0.615134
vt 0.962482 0.614955
vt 0.961649 0.613911
vt 0.96747 0.601592
vt 0.968155 0.600956
vt 0.967466 0.60023
vt 0.966488 0.614027
vt 0.966649 0.615393
vt 0.967563 0.614061
vt 0.969619 0.601399
vt 0.971055 0.602093
vt 0.971394 0.600975
vt 0.962193 0.609556
vt 0.962812 0.610324
vt 0.963866 0.609127
vt 0.956065 0.615394
vt 0.956275 0.616196
vt 0.957346 0.61496
vt 0.975266 0.598998
vt 0.974274 0.602088
vt 0.975266 0.601249
vt 0.961389 0.612797
vt 0.960524 0.613833
vt 0.961649 0.613911
vt 0.957677 0.599301
vt 0.956211 0.599107
vt 0.95632 0.59996
vt 0.963739 0.615407
vt 0.96517 0.616209
vt 0.965259 0.615211
vt 0.980911 0.609259
vt 0.981064 0.611052
vt 0.985069 0.614447
vt 0.953752 0.610136
vt 0.952761 0.609259
vt 0.952761 0.616201
vt 0.957395 0.597517
vt 0.958365 0.598146
vt 0.958176 0.596451
vt 0.95632 0.59996
vt 0.956211 0.599107
vt 0.953752 0.599151
vt 0.957151 0.596692
vt 0.957395 0.597517
vt 0.958176 0.596451
vt 0.960524 0.613833
vt 0.961243 0.615134
vt 0.961649 0.613911
vt 0.965976 0.59855
vt 0.967072 0.599399
vt 0.967098 0.597886
vt 0.971223 0.614905
vt 0.971719 0.616201
vt 0.973626 0.610671
vt 0.977936 0.609259
vt 0.976029 0.614942
vt 0.97889 0.609259
vt 0.969322 0.59597
vt 0.9709 0.595164
vt 0.968904 0.595113
vt 0.965592 0.609387
vt 0.96409 0.610034
vt 0.965565 0.610393
vt 0.961389 0.612797
vt 0.961704 0.611406
vt 0.960377 0.612211
vt 0.957151 0.596692
vt 0.958176 0.596451
vt 0.957272 0.595534
vt 0.956357 0.610156
vt 0.957807 0.610957
vt 0.956698 0.609284
vt 0.981064 0.616201
vt 0.981064 0.611052
vt 0.980072 0.609259
vt 0.965565 0.610393
vt 0.96685 0.610289
vt 0.965592 0.609387
vt 0.975266 0.596023
vt 0.979195 0.595145
vt 0.974274 0.595145
vt 0.952761 0.595145
vt 0.952761 0.602088
vt 0.953752 0.599151
vt 0.975266 0.598159
vt 0.974274 0.595145
vt 0.974274 0.602088
vt 0.975266 0.598998
vt 0.978776 0.598159
vt 0.975266 0.598159
vt 0.975266 0.598998
vt 0.976029 0.614942
vt 0.974084 0.609259
vt 0.973626 0.610671
vt 0.975266 0.598998
vt 0.978776 0.598998
vt 0.978776 0.598159
vt 0.969619 0.601399
vt 0.969094 0.602222
vt 0.971055 0.602093
vt 0.963866 0.609127
vt 0.962812 0.610324
vt 0.96409 0.610034
vt 0.966396 0.60031
vt 0.96747 0.601592
vt 0.967466 0.60023
vt 0.96679 0.612663
vt 0.967563 0.614061
vt 0.967735 0.611908
vt 0.968155 0.600956
vt 0.96747 0.601592
vt 0.969094 0.602222
vt 0.969619 0.601399
vt 0.958598 0.610313
vt 0.956698 0.609284
vt 0.957807 0.610957
vt 0.956698 0.609284
vt 0.953752 0.610136
vt 0.956357 0.610156
vt 0.952761 0.602088
vt 0.953752 0.59999
vt 0.953752 0.599151
vt 0.957346 0.61496
vt 0.956275 0.616196
vt 0.957697 0.615787
vt 0.96409 0.610034
vt 0.965592 0.609387
vt 0.963866 0.609127
vt 0.955929 0.595152
vt 0.952761 0.595145
vt 0.953752 0.596023
vt 0.972367 0.598655
vt 0.971413 0.598655
vt 0.971394 0.600975
vt 0.972367 0.601371
vt 0.957182 0.598445
vt 0.957677 0.599301
vt 0.958365 0.598146
vt 0.962564 0.595145
vt 0.96203 0.596175
vt 0.963517 0.59957
vt 0.96685 0.610289
vt 0.965565 0.610393
vt 0.966513 0.611511
vt 0.956065 0.615394
vt 0.953752 0.6154
vt 0.956275 0.616196
vt 0.960237 0.600371
vt 0.963937 0.600371
vt 0.960542 0.59957
vt 0.967563 0.614061
vt 0.96679 0.612663
vt 0.966488 0.614027
vt 0.980911 0.609259
vt 0.980072 0.609259
vt 0.981064 0.611052
vt 0.967466 0.60023
vt 0.967072 0.599399
vt 0.966396 0.60031
vt 0.962193 0.609556
vt 0.961704 0.611406
vt 0.962812 0.610324
vt 0.967735 0.611908
vt 0.96685 0.610289
vt 0.966513 0.611511
vt 0.979309 0.601249
vt 0.974274 0.602088
vt 0.979309 0.602088
vt 0.959101 0.614477
vt 0.95946 0.612163
vt 0.958351 0.613716
vt 0.962353 0.615952
vt 0.963577 0.616313
vt 0.963739 0.615407
vt 0.96573 0.602088
vt 0.962564 0.595145
vt 0.963517 0.59957
vt 0.963937 0.600371
vt 0.96517 0.616209
vt 0.966649 0.615393
vt 0.965259 0.615211
vt 0.971223 0.614905
vt 0.969354 0.609259
vt 0.968324 0.609259
vt 0.97065 0.616201
vt 0.967521 0.595694
vt 0.966523 0.596716
vt 0.967929 0.596563
vt 0.985222 0.616201
vt 0.986061 0.616201
vt 0.985069 0.614447
vt 0.985069 0.614447
vt 0.986061 0.616201
vt 0.986061 0.609259
vt 0.967072 0.599399
vt 0.965976 0.59855
vt 0.966396 0.60031
vt 0.958598 0.610313
vt 0.957807 0.610957
vt 0.958388 0.612055
vt 0.95946 0.612163
vt 0.961572 0.595145
vt 0.958444 0.602088
vt 0.960542 0.59957
vt 0.970805 0.596062
vt 0.972433 0.596107
vt 0.9709 0.595164
vt 0.957395 0.597517
vt 0.957182 0.598445
vt 0.958365 0.598146
s off
f 1/1/1 2/2/2 3/3/3
f 4/4/4 5/5/5 6/6/6
f 7/7/7 8/8/8 9/9/9
f 10/10/10 11/11/11 12/12/12
f 13/13/13 14/14/14 15/15/15
f 16/16/16 17/17/17 18/18/18
f 19/19/19 20/20/20 21/21/21
f 22/22/22 23/23/23 24/24/24
f 25/25/25 26/26/26 27/27/27
f 28/28/28 29/29/29 30/30/30
f 31/31/31 32/32/32 33/33/33
f 34/34/34 35/35/35 36/36/36
f 37/37/37 38/38/38 39/39/39
f 40/40/40 41/41/41 42/42/42
f 43/43/43 44/44/44 45/45/45
f 46/46/46 47/47/47 48/48/48
f 49/49/49 50/50/50 51/51/51
f 52/52/52 53/53/53 54/54/54
f 55/55/55 56/56/56 57/57/57
f 58/58/58 59/59/59 60/60/60
f 61/61/61 62/62/62 63/63/63
f 64/64/64 65/65/65 66/66/66
f 67/67/67 68/68/68 69/69/69
f 70/70/70 71/71/71 72/72/72
f 73/73/73 74/74/74 75/75/75
f 76/76/76 77/77/77 78/78/78
f 79/79/79 80/80/80 81/81/81
f 82/82/82 83/83/83 84/84/84
f 85/85/85 86/86/86 87/87/87
f 88/88/88 89/89/89 90/90/90
f 91/91/91 92/92/92 93/93/93
f 94/94/94 95/95/95 96/96/96
f 97/97/97 98/98/98 99/99/99
f 100/100/100 101/101/101 102/102/102
f 103/103/103 104/104/104 105/105/105
f 106/106/106 107/107/107 108/108/108
f 109/109/109 110/110/110 111/111/111
f 112/112/112 113/113/113 114/114/114
f 115/115/115 116/116/116 117/117/117
f 118/118/118 119/119/119 120/120/120
f 121/121/121 122/122/122 123/123/123
f 124/124/124 125/125/125 126/126/126
f 127/127/127 128/128/128 129/129/129
f 130/130/130 131/131/131 132/132/132
f 133/133/133 134/134/134 135/135/135
f 136/136/136 137/137/137 138/138/138
f 139/139/139 140/140/140 141/141/141
f 142/142/142 143/143/143 144/144/144
f 145/145/145 146/146/146 147/147/147
f 148/148/148 149/149/149 150/150/150
f 151/151/151 152/152/152 153/153/153
f 154/154/154 155/155/155 156/156/156
f 157/157/157 158/158/158 159/159/159
f 160/160/160 161/161/161 162/162/162
f 163/163/163 164/164/164 165/165/165
f 166/166/166 167/167/167 168/168/168
f 169/169/169 170/170/170 171/171/171
f 172/172/172 173/173/173 174/174/174
f 175/175/175 176/176/176 177/177/177
f 178/178/178 179/179/179 180/180/180
f 181/181/181 182/182/182 183/183/183
f 184/184/184 185/185/185 186/186/186
f 187/187/187 188/188/188 189/189/189
f 190/190/190 191/191/191 192/192/192
f 193/193/193 194/194/194 195/195/195
f 196/196/196 197/197/197 198/198/198
f 199/199/199 200/200/200 201/201/201
f 202/202/202 203/203/203 204/204/204
f 205/205/205 206/206/206 207/207/207
f 208/208/208 209/209/209 210/210/210
f 211/211/211 212/212/212 213/213/213
f 214/214/214 215/215/215 216/216/216
f 217/217/217 218/218/218 219/219/219
f 220/220/220 221/221/221 222/222/222
f 223/223/223 224/224/224 225/225/225
f 223/223/223 225/225/225 226/226/226
f 227/227/227 228/228/228 229/229/229
f 230/230/230 231/231/231 232/232/232
f 233/233/233 234/234/234 235/235/235
f 236/236/236 237/237/237 238/238/238
f 239/239/239 240/240/240 241/241/241
f 242/242/242 243/243/243 244/244/244
f 245/245/245 246/246/246 247/247/247
f 248/248/248 249/249/249 250/250/250
f 248/248/248 250/250/250 251/251/251
f 252/252/252 253/253/253 254/254/254
f 255/255/255 256/256/256 257/257/257
f 258/258/258 259/259/259 260/260/260
f 261/261/261 262/262/262 263/263/263
f 264/264/264 265/265/265 266/266/266
f 267/267/267 268/268/268 269/269/269
f 270/270/270 271/271/271 272/272/272
f 270/270/270 272/272/272 273/273/273
f 274/274/274 275/275/275 276/276/276
f 277/277/277 278/278/278 279/279/279
f 280/280/280 281/281/281 282/282/282
f 283/283/283 284/284/284 285/285/285
f 286/286/286 287/287/287 288/288/288
f 289/289/289 290/290/290 291/291/291
f 292/292/292 293/293/293 294/294/294
f 295/295/295 296/296/296 297/297/297
f 298/298/298 299/299/299 300/300/300
f 301/301/301 302/302/302 303/303/303
f 304/304/304 305/305/305 306/306/306
f 307/307/307 308/308/308 309/309/309
f 310/310/310 311/311/311 312/312/312
f 313/313/313 314/314/314 315/315/315
f 313/313/313 315/315/315 316/316/316
f 317/317/317 318/318/318 319/319/319
f 320/320/320 321/321/321 322/322/322
f 320/320/320 322/322/322 323/323/323
f 324/324/324 325/325/325 326/326/326
f 327/327/327 328/328/328 329/329/329
f 330/330/330 331/331/331 332/332/332
f 333/333/333 334/334/334 335/335/335
f 336/336/336 337/337/337 338/338/338
f 336/336/336 338/338/338 339/339/339
f 340/340/340 341/341/341 342/342/342
f 343/343/343 344/344/344 345/345/345
f 346/346/346 347/347/347 348/348/348
