v 0.932996 0.179911 -0.080293
v 0.929585 0.180227 -0.080391
v 0.929872 0.180115 -0.078675
v 0.938615 0.179359 -0.079479
v 0.937834 0.179349 -0.077838
v 0.945411 0.178897 -0.077838
v 0.952544 0.179042 -0.084382
v 0.951776 0.179175 -0.086594
v 0.949856 0.179048 -0.083116
v 0.954126 0.178603 -0.07664
v 0.951795 0.178641 -0.076183
v 0.953684 0.178522 -0.074826
v 0.975874 0.179473 -0.080651
v 0.975874 0.179558 -0.082369
v 0.968688 0.179137 -0.082369
v 0.924633 0.180587 -0.074323
v 0.924633 0.180771 -0.07862
v 0.922602 0.180977 -0.074323
v 0.934111 0.179942 -0.082958
v 0.931657 0.180107 -0.081783
v 0.932996 0.179911 -0.080293
v 0.922602 0.180977 -0.074323
v 0.924633 0.180845 -0.080338
v 0.924633 0.181121 -0.086743
v 0.945411 0.178897 -0.077838
v 0.946973 0.178674 -0.074324
v 0.949082 0.178618 -0.074324
v 0.940568 0.17963 -0.08854
v 0.938615 0.179359 -0.079479
v 0.941661 0.179448 -0.086431
v 0.940568 0.17963 -0.08854
v 0.941661 0.179448 -0.086431
v 0.942598 0.179521 -0.08854
v 0.960063 0.178492 -0.074313
v 0.962751 0.178654 -0.075791
v 0.960775 0.178633 -0.076608
v 0.929638 0.180533 -0.086667
v 0.93184 0.180385 -0.087743
v 0.929103 0.180674 -0.088525
v 0.966657 0.178685 -0.074324
v 0.968688 0.178824 -0.076042
v 0.968688 0.179052 -0.080651
v 0.968688 0.179137 -0.082369
v 0.968688 0.179353 -0.086743
v 0.966657 0.179389 -0.08854
v 0.938615 0.177671 -0.045423
v 0.940646 0.177486 -0.045423
v 0.940646 0.177699 -0.049719
v 0.944952 0.177521 -0.049724
v 0.947417 0.177467 -0.050314
v 0.94515 0.1776 -0.051452
v 0.950008 0.177531 -0.053354
v 0.948046 0.177607 -0.053566
v 0.949024 0.177473 -0.051509
v 0.938615 0.178376 -0.059639
v 0.940724 0.177777 -0.051437
v 0.940724 0.178095 -0.057842
v 0.931593 0.180291 -0.085372
v 0.93184 0.180385 -0.087743
v 0.929638 0.180533 -0.086667
v 0.929103 0.180674 -0.088525
v 0.924633 0.181121 -0.086743
v 0.929638 0.180533 -0.086667
v 0.968688 0.178824 -0.076042
v 0.976967 0.179288 -0.074324
v 0.976967 0.179373 -0.076042
v 0.951797 0.178921 -0.081632
v 0.950067 0.178828 -0.07893
v 0.952213 0.178767 -0.078855
v 0.932504 0.178578 -0.050352
v 0.934475 0.178749 -0.059561
v 0.932523 0.178971 -0.059561
v 0.932091 0.180161 -0.083684
v 0.934111 0.179942 -0.082958
v 0.933691 0.180124 -0.085867
v 0.938615 0.178376 -0.059639
v 0.940724 0.178095 -0.057842
v 0.945116 0.178005 -0.059624
v 0.961591 0.179093 -0.085273
v 0.962886 0.179191 -0.086572
v 0.960202 0.179109 -0.08633
v 0.951795 0.178641 -0.076183
v 0.954126 0.178603 -0.07664
v 0.952213 0.178767 -0.078855
v 0.927461 0.179035 -0.047124
v 0.930094 0.178645 -0.045279
v 0.929887 0.178752 -0.047189
v 0.962751 0.17893 -0.081353
v 0.960798 0.178877 -0.081353
v 0.960775 0.178633 -0.076608
v 0.957125 0.178478 -0.075734
v 0.960063 0.178492 -0.074313
v 0.960775 0.178633 -0.076608
v 0.954954 0.179083 -0.086422
v 0.955233 0.179184 -0.08855
v 0.951776 0.179175 -0.086594
v 0.932996 0.179911 -0.080293
v 0.931657 0.180107 -0.081783
v 0.929585 0.180227 -0.080391
v 0.955233 0.179184 -0.08855
v 0.954954 0.179083 -0.086422
v 0.957713 0.179062 -0.086964
v 0.940724 0.177777 -0.051437
v 0.938615 0.178376 -0.059639
v 0.938615 0.177671 -0.045423
v 0.951776 0.179175 -0.086594
v 0.952544 0.179042 -0.084382
v 0.954954 0.179083 -0.086422
v 0.925482 0.179313 -0.048151
v 0.925694 0.179177 -0.045554
v 0.927461 0.179035 -0.047124
v 0.952213 0.178767 -0.078855
v 0.950067 0.178828 -0.07893
v 0.951795 0.178641 -0.076183
v 0.94701 0.177573 -0.052167
v 0.947417 0.177467 -0.050314
v 0.949024 0.177473 -0.051509
v 0.922524 0.180357 -0.059561
v 0.922527 0.17998 -0.050816
v 0.924555 0.179967 -0.059561
v 0.945411 0.178897 -0.077838
v 0.944708 0.179002 -0.079479
v 0.938615 0.179359 -0.079479
v 0.940724 0.177777 -0.051437
v 0.944952 0.177521 -0.049724
v 0.94515 0.1776 -0.051452
v 0.929887 0.178752 -0.047189
v 0.930094 0.178645 -0.045279
v 0.933015 0.178365 -0.046792
v 0.946779 0.177836 -0.05733
v 0.949895 0.177689 -0.056468
v 0.94801 0.177866 -0.058768
v 0.944628 0.177933 -0.057839
v 0.946779 0.177836 -0.05733
v 0.945116 0.178005 -0.059624
v 0.957713 0.179062 -0.086964
v 0.959747 0.179204 -0.088501
v 0.955233 0.179184 -0.08855
v 0.922602 0.180977 -0.074323
v 0.924633 0.180771 -0.07862
v 0.924633 0.180845 -0.080338
v 0.962751 0.178654 -0.075791
v 0.962751 0.17893 -0.081353
v 0.960775 0.178633 -0.076608
v 0.966657 0.178685 -0.074324
v 0.976967 0.179288 -0.074324
v 0.968688 0.178824 -0.076042
v 0.940724 0.177777 -0.051437
v 0.940646 0.177699 -0.049719
v 0.944952 0.177521 -0.049724
v 0.949856 0.179048 -0.083116
v 0.951797 0.178921 -0.081632
v 0.952544 0.179042 -0.084382
v 0.968688 0.179137 -0.082369
v 0.966657 0.179389 -0.08854
v 0.966657 0.178685 -0.074324
v 0.968688 0.179052 -0.080651
v 0.948046 0.177607 -0.053566
v 0.94701 0.177573 -0.052167
v 0.949024 0.177473 -0.051509
v 0.931593 0.180291 -0.085372
v 0.933691 0.180124 -0.085867
v 0.93184 0.180385 -0.087743
v 0.924633 0.180771 -0.07862
v 0.929872 0.180115 -0.078675
v 0.929585 0.180227 -0.080391
v 0.924633 0.180845 -0.080338
v 0.957125 0.178478 -0.075734
v 0.956049 0.17842 -0.074048
v 0.960063 0.178492 -0.074313
v 0.966657 0.179389 -0.08854
v 0.968688 0.179353 -0.086743
v 0.976733 0.179845 -0.086743
v 0.976733 0.179922 -0.08854
v 0.932504 0.178578 -0.050352
v 0.934445 0.178329 -0.049902
v 0.934475 0.178749 -0.059561
v 0.968688 0.179052 -0.080651
v 0.975874 0.179473 -0.080651
v 0.968688 0.179137 -0.082369
v 0.942598 0.179521 -0.08854
v 0.941661 0.179448 -0.086431
v 0.944708 0.179002 -0.079479
v 0.927461 0.179035 -0.047124
v 0.925694 0.179177 -0.045554
v 0.930094 0.178645 -0.045279
v 0.929103 0.180674 -0.088525
v 0.922602 0.18152 -0.08854
v 0.924633 0.181121 -0.086743
v 0.946779 0.177836 -0.05733
v 0.94801 0.177866 -0.058768
v 0.945116 0.178005 -0.059624
v 0.925482 0.179313 -0.048151
v 0.924593 0.17956 -0.050274
v 0.923122 0.179752 -0.048175
v 0.922527 0.17998 -0.050816
v 0.923122 0.179752 -0.048175
v 0.924593 0.17956 -0.050274
v 0.925482 0.179313 -0.048151
v 0.923122 0.179752 -0.048175
v 0.925694 0.179177 -0.045554
v 0.960202 0.179109 -0.08633
v 0.962886 0.179191 -0.086572
v 0.959747 0.179204 -0.088501
v 0.931661 0.178587 -0.048243
v 0.929887 0.178752 -0.047189
v 0.933015 0.178365 -0.046792
v 0.938615 0.177671 -0.045423
v 0.940646 0.177699 -0.049719
v 0.940724 0.177777 -0.051437
v 0.951797 0.178921 -0.081632
v 0.949856 0.179048 -0.083116
v 0.950067 0.178828 -0.07893
v 0.949082 0.178618 -0.074324
v 0.942598 0.179521 -0.08854
v 0.944708 0.179002 -0.079479
v 0.945411 0.178897 -0.077838
v 0.934163 0.179509 -0.074324
v 0.936272 0.179317 -0.074324
v 0.937834 0.179349 -0.077838
v 0.947417 0.177467 -0.050314
v 0.94701 0.177573 -0.052167
v 0.94515 0.1776 -0.051452
v 0.924593 0.17956 -0.050274
v 0.924555 0.179967 -0.059561
v 0.922527 0.17998 -0.050816
v 0.931593 0.180291 -0.085372
v 0.932091 0.180161 -0.083684
v 0.933691 0.180124 -0.085867
v 0.959747 0.179204 -0.088501
v 0.957713 0.179062 -0.086964
v 0.960202 0.179109 -0.08633
v 0.945116 0.178005 -0.059624
v 0.940724 0.178095 -0.057842
v 0.944628 0.177933 -0.057839
v 0.924633 0.181121 -0.086743
v 0.922602 0.18152 -0.08854
v 0.922602 0.180977 -0.074323
v 0.954126 0.178603 -0.07664
v 0.953684 0.178522 -0.074826
v 0.956049 0.17842 -0.074048
v 0.957125 0.178478 -0.075734
v 0.931661 0.178587 -0.048243
v 0.933015 0.178365 -0.046792
v 0.934445 0.178329 -0.049902
v 0.932504 0.178578 -0.050352
v 0.934163 0.179509 -0.074324
v 0.937834 0.179349 -0.077838
v 0.938615 0.179359 -0.079479
v 0.940568 0.17963 -0.08854
v 0.948046 0.177607 -0.053566
v 0.950008 0.177531 -0.053354
v 0.949895 0.177689 -0.056468
v 0.948034 0.177715 -0.055745
v 0.932091 0.180161 -0.083684
v 0.931657 0.180107 -0.081783
v 0.934111 0.179942 -0.082958
v 0.946779 0.177836 -0.05733
v 0.948034 0.177715 -0.055745
v 0.949895 0.177689 -0.056468
vn 0.0906 0.9947 0.0493
vn 0.0906 0.9947 0.0493
vn 0.0906 0.9947 0.0493
vn 0.0595 0.9976 0.0345
vn 0.0595 0.9976 0.0345
vn 0.0595 0.9976 0.0345
vn 0.0264 0.9983 0.0511
vn 0.0264 0.9983 0.0511
vn 0.0264 0.9983 0.0511
vn 0.0264 0.9983 0.0512
vn 0.0264 0.9983 0.0512
vn 0.0264 0.9983 0.0512
vn -0.0584 0.9971 0.0494
vn -0.0584 0.9971 0.0494
vn -0.0584 0.9971 0.0494
vn 0.1884 0.9812 0.0422
vn 0.1884 0.9812 0.0422
vn 0.1884 0.9812 0.0422
vn 0.0906 0.9947 0.0493
vn 0.0906 0.9947 0.0493
vn 0.0906 0.9947 0.0493
vn 0.1885 0.9812 0.0422
vn 0.1885 0.9812 0.0422
vn 0.1885 0.9812 0.0422
vn 0.0264 0.9983 0.0517
vn 0.0264 0.9983 0.0517
vn 0.0264 0.9983 0.0517
vn 0.0765 0.996 0.0463
vn 0.0765 0.996 0.0463
vn 0.0765 0.996 0.0463
vn 0.0535 0.9969 0.0583
vn 0.0535 0.9969 0.0583
vn 0.0535 0.9969 0.0583
vn -0.0319 0.9982 0.0516
vn -0.0319 0.9982 0.0516
vn -0.0319 0.9982 0.0516
vn 0.0906 0.9947 0.0493
vn 0.0906 0.9947 0.0493
vn 0.0906 0.9947 0.0493
vn -0.0264 0.9984 0.0494
vn -0.0264 0.9984 0.0494
vn -0.0264 0.9984 0.0494
vn -0.0264 0.9984 0.0494
vn -0.0264 0.9984 0.0494
vn -0.0264 0.9984 0.0494
vn 0.0906 0.9947 0.0493
vn 0.0906 0.9947 0.0493
vn 0.0906 0.9947 0.0493
vn 0.0334 0.9982 0.0494
vn 0.0334 0.9982 0.0494
vn 0.0334 0.9982 0.0494
vn 0.0334 0.9982 0.0494
vn 0.0334 0.9982 0.0494
vn 0.0334 0.9982 0.0494
vn 0.0905 0.9947 0.0493
vn 0.0905 0.9947 0.0493
vn 0.0905 0.9947 0.0493
vn 0.0906 0.9947 0.0493
vn 0.0906 0.9947 0.0493
vn 0.0906 0.9947 0.0493
vn 0.1159 0.9924 0.0418
vn 0.1159 0.9924 0.0418
vn 0.1159 0.9924 0.0418
vn -0.0661 0.9966 0.0494
vn -0.0661 0.9966 0.0494
vn -0.0661 0.9966 0.0494
vn 0.0264 0.9983 0.0512
vn 0.0264 0.9983 0.0512
vn 0.0264 0.9983 0.0512
vn 0.113 0.9927 0.0426
vn 0.113 0.9927 0.0426
vn 0.113 0.9927 0.0426
vn 0.0906 0.9947 0.0493
vn 0.0906 0.9947 0.0493
vn 0.0906 0.9947 0.0493
vn 0.0565 0.9944 0.0893
vn 0.0565 0.9944 0.0893
vn 0.0565 0.9944 0.0893
vn -0.0264 0.9984 0.0494
vn -0.0264 0.9984 0.0494
vn -0.0264 0.9984 0.0494
vn 0.0264 0.9983 0.0511
vn 0.0264 0.9983 0.0511
vn 0.0264 0.9983 0.0511
vn 0.1172 0.9922 0.0426
vn 0.1172 0.9922 0.0426
vn 0.1172 0.9922 0.0426
vn -0.0268 0.9983 0.0512
vn -0.0268 0.9983 0.0512
vn -0.0268 0.9983 0.0512
vn -0.0301 0.9982 0.0522
vn -0.0301 0.9982 0.0522
vn -0.0301 0.9982 0.0522
vn 0.0264 0.9983 0.0511
vn 0.0264 0.9983 0.0511
vn 0.0264 0.9983 0.0511
vn 0.0906 0.9947 0.0493
vn 0.0906 0.9947 0.0493
vn 0.0906 0.9947 0.0493
vn 0.0174 0.9986 0.05
vn 0.0174 0.9986 0.05
vn 0.0174 0.9986 0.05
vn 0.0906 0.9947 0.0493
vn 0.0906 0.9947 0.0493
vn 0.0906 0.9947 0.0493
vn 0.0264 0.9983 0.0512
vn 0.0264 0.9983 0.0512
vn 0.0264 0.9983 0.0512
vn 0.1172 0.9922 0.0426
vn 0.1172 0.9922 0.0426
vn 0.1172 0.9922 0.0426
vn 0.0264 0.9983 0.0512
vn 0.0264 0.9983 0.0512
vn 0.0264 0.9983 0.0512
vn 0.0335 0.9982 0.0494
vn 0.0335 0.9982 0.0494
vn 0.0335 0.9982 0.0494
vn 0.1885 0.9812 0.0422
vn 0.1885 0.9812 0.0422
vn 0.1885 0.9812 0.0422
vn 0.0585 0.9975 0.0386
vn 0.0585 0.9975 0.0386
vn 0.0585 0.9975 0.0386
vn 0.0402 0.9979 0.0502
vn 0.0402 0.9979 0.0502
vn 0.0402 0.9979 0.0502
vn 0.1173 0.9922 0.0426
vn 0.1173 0.9922 0.0426
vn 0.1173 0.9922 0.0426
vn 0.0334 0.9982 0.0494
vn 0.0334 0.9982 0.0494
vn 0.0334 0.9982 0.0494
vn 0.0334 0.9982 0.0494
vn 0.0334 0.9982 0.0494
vn 0.0334 0.9982 0.0494
vn -0.0053 0.9963 0.0854
vn -0.0053 0.9963 0.0854
vn -0.0053 0.9963 0.0854
vn 0.1886 0.9812 0.0422
vn 0.1886 0.9812 0.0422
vn 0.1886 0.9812 0.0422
vn -0.031 0.9983 0.0494
vn -0.031 0.9983 0.0494
vn -0.031 0.9983 0.0494
vn -0.0584 0.9982 0.0116
vn -0.0584 0.9982 0.0116
vn -0.0584 0.9982 0.0116
vn 0.0415 0.998 0.0472
vn 0.0415 0.998 0.0472
vn 0.0415 0.998 0.0472
vn 0.0264 0.9983 0.0512
vn 0.0264 0.9983 0.0512
vn 0.0264 0.9983 0.0512
vn -0.0264 0.9984 0.0494
vn -0.0264 0.9984 0.0494
vn -0.0264 0.9984 0.0494
vn -0.0264 0.9984 0.0494
vn 0.0334 0.9982 0.0494
vn 0.0334 0.9982 0.0494
vn 0.0334 0.9982 0.0494
vn 0.0906 0.9947 0.0493
vn 0.0906 0.9947 0.0493
vn 0.0906 0.9947 0.0493
vn 0.1244 0.9913 0.043
vn 0.1244 0.9913 0.043
vn 0.1244 0.9913 0.043
vn 0.1244 0.9913 0.043
vn -0.0164 0.9996 0.0239
vn -0.0164 0.9996 0.0239
vn -0.0164 0.9996 0.0239
vn -0.0564 0.9964 0.063
vn -0.0564 0.9964 0.063
vn -0.0564 0.9964 0.063
vn -0.0564 0.9964 0.063
vn 0.117 0.9922 0.0435
vn 0.117 0.9922 0.0435
vn 0.117 0.9922 0.0435
vn -0.0584 0.9971 0.0494
vn -0.0584 0.9971 0.0494
vn -0.0584 0.9971 0.0494
vn 0.0334 0.9982 0.0494
vn 0.0334 0.9982 0.0494
vn 0.0334 0.9982 0.0494
vn 0.1172 0.9922 0.0426
vn 0.1172 0.9922 0.0426
vn 0.1172 0.9922 0.0426
vn 0.1285 0.9889 0.0743
vn 0.1285 0.9889 0.0743
vn 0.1285 0.9889 0.0743
vn 0.0334 0.9982 0.0494
vn 0.0334 0.9982 0.0494
vn 0.0334 0.9982 0.0494
vn 0.1824 0.9825 0.0378
vn 0.1824 0.9825 0.0378
vn 0.1824 0.9825 0.0378
vn 0.1885 0.9812 0.0422
vn 0.1885 0.9812 0.0422
vn 0.1885 0.9812 0.0422
vn 0.1824 0.9825 0.0368
vn 0.1824 0.9825 0.0368
vn 0.1824 0.9825 0.0368
vn -0.0264 0.9984 0.0494
vn -0.0264 0.9984 0.0494
vn -0.0264 0.9984 0.0494
vn 0.1172 0.9922 0.0426
vn 0.1172 0.9922 0.0426
vn 0.1172 0.9922 0.0426
vn 0.0905 0.9947 0.0492
vn 0.0905 0.9947 0.0492
vn 0.0905 0.9947 0.0492
vn 0.0264 0.9983 0.0512
vn 0.0264 0.9983 0.0512
vn 0.0264 0.9983 0.0512
vn 0.0276 0.9983 0.051
vn 0.0276 0.9983 0.051
vn 0.0276 0.9983 0.051
vn 0.0276 0.9983 0.051
vn 0.0906 0.9947 0.0493
vn 0.0906 0.9947 0.0493
vn 0.0906 0.9947 0.0493
vn 0.0334 0.9982 0.0494
vn 0.0334 0.9982 0.0494
vn 0.0334 0.9982 0.0494
vn 0.1885 0.9812 0.0422
vn 0.1885 0.9812 0.0422
vn 0.1885 0.9812 0.0422
vn 0.0906 0.9947 0.0493
vn 0.0906 0.9947 0.0493
vn 0.0906 0.9947 0.0493
vn -0.0318 0.9982 0.0505
vn -0.0318 0.9982 0.0505
vn -0.0318 0.9982 0.0505
vn 0.0412 0.9978 0.0515
vn 0.0412 0.9978 0.0515
vn 0.0412 0.9978 0.0515
vn 0.1604 0.9863 0.0377
vn 0.1604 0.9863 0.0377
vn 0.1604 0.9863 0.0377
vn 0.0264 0.9983 0.0512
vn 0.0264 0.9983 0.0512
vn 0.0264 0.9983 0.0512
vn 0.0264 0.9983 0.0512
vn 0.1172 0.9922 0.0426
vn 0.1172 0.9922 0.0426
vn 0.1172 0.9922 0.0426
vn 0.1172 0.9922 0.0426
vn 0.0906 0.9947 0.0493
vn 0.0906 0.9947 0.0493
vn 0.0906 0.9947 0.0493
vn 0.0906 0.9947 0.0493
vn 0.0334 0.9982 0.0494
vn 0.0334 0.9982 0.0494
vn 0.0334 0.9982 0.0494
vn 0.0334 0.9982 0.0494
vn 0.0906 0.9947 0.0493
vn 0.0906 0.9947 0.0493
vn 0.0906 0.9947 0.0493
vn 0.0334 0.9982 0.0494
vn 0.0334 0.9982 0.0494
vn 0.0334 0.9982 0.0494
vt 0.957836 0.536882
vt 0.95617 0.536834
vt 0.956311 0.537672
vt 0.96058 0.53728
vt 0.960199 0.538081
vt 0.963899 0.538081
vt 0.967382 0.534885
vt 0.967007 0.533805
vt 0.966069 0.535504
vt 0.968155 0.538666
vt 0.967016 0.538889
vt 0.967939 0.539552
vt 0.978776 0.536708
vt 0.978776 0.535868
vt 0.975266 0.535868
vt 0.953752 0.539797
vt 0.953752 0.537699
vt 0.952761 0.539797
vt 0.958381 0.535581
vt 0.957182 0.536154
vt 0.957836 0.536882
vt 0.952761 0.539797
vt 0.953752 0.53686
vt 0.953752 0.533732
vt 0.963899 0.538081
vt 0.964662 0.539797
vt 0.965692 0.539797
vt 0.961534 0.532855
vt 0.96058 0.53728
vt 0.962068 0.533885
vt 0.961534 0.532855
vt 0.962068 0.533885
vt 0.962526 0.532855
vt 0.971054 0.539802
vt 0.972367 0.53908
vt 0.971402 0.538682
vt 0.956197 0.53377
vt 0.957272 0.533244
vt 0.955935 0.532862
vt 0.974274 0.539797
vt 0.975266 0.538958
vt 0.975266 0.536708
vt 0.975266 0.535868
vt 0.975266 0.533732
vt 0.974274 0.532855
vt 0.96058 0.553911
vt 0.961572 0.553911
vt 0.961572 0.551813
vt 0.963675 0.55181
vt 0.964878 0.551522
vt 0.963771 0.550966
vt 0.966144 0.550038
vt 0.965186 0.549934
vt 0.965663 0.550938
vt 0.96058 0.546969
vt 0.96161 0.550974
vt 0.96161 0.547846
vt 0.957151 0.534402
vt 0.957272 0.533244
vt 0.956197 0.53377
vt 0.955935 0.532862
vt 0.953752 0.533732
vt 0.956197 0.53377
vt 0.975266 0.538958
vt 0.979309 0.539797
vt 0.979309 0.538958
vt 0.967018 0.536228
vt 0.966173 0.537548
vt 0.967221 0.537585
vt 0.957596 0.551504
vt 0.958559 0.547007
vt 0.957605 0.547007
vt 0.957395 0.535226
vt 0.958381 0.535581
vt 0.958176 0.53416
vt 0.96058 0.546969
vt 0.96161 0.547846
vt 0.963755 0.546976
vt 0.9718 0.53445
vt 0.972433 0.533816
vt 0.971122 0.533934
vt 0.967016 0.538889
vt 0.968155 0.538666
vt 0.967221 0.537585
vt 0.955133 0.55308
vt 0.956419 0.553981
vt 0.956318 0.553048
vt 0.972367 0.536364
vt 0.971413 0.536364
vt 0.971402 0.538682
vt 0.969619 0.539109
vt 0.971054 0.539802
vt 0.971402 0.538682
vt 0.968559 0.533889
vt 0.968696 0.53285
vt 0.967007 0.533805
vt 0.957836 0.536882
vt 0.957182 0.536154
vt 0.95617 0.536834
vt 0.968696 0.53285
vt 0.968559 0.533889
vt 0.969907 0.533624
vt 0.96161 0.550974
vt 0.96058 0.546969
vt 0.96058 0.553911
vt 0.967007 0.533805
vt 0.967382 0.534885
vt 0.968559 0.533889
vt 0.954167 0.552579
vt 0.95427 0.553847
vt 0.955133 0.55308
vt 0.967221 0.537585
vt 0.966173 0.537548
vt 0.967016 0.538889
vt 0.96468 0.550617
vt 0.964878 0.551522
vt 0.965663 0.550938
vt 0.952722 0.547007
vt 0.952724 0.551277
vt 0.953714 0.547007
vt 0.963899 0.538081
vt 0.963556 0.53728
vt 0.96058 0.53728
vt 0.96161 0.550974
vt 0.963675 0.55181
vt 0.963771 0.550966
vt 0.956318 0.553048
vt 0.956419 0.553981
vt 0.957846 0.553242
vt 0.964567 0.548096
vt 0.966089 0.548517
vt 0.965168 0.547394
vt 0.963517 0.547848
vt 0.964567 0.548096
vt 0.963755 0.546976
vt 0.969907 0.533624
vt 0.9709 0.532874
vt 0.968696 0.53285
vt 0.952761 0.539797
vt 0.953752 0.537699
vt 0.953752 0.53686
vt 0.972367 0.53908
vt 0.972367 0.536364
vt 0.971402 0.538682
vt 0.974274 0.539797
vt 0.979309 0.539797
vt 0.975266 0.538958
vt 0.96161 0.550974
vt 0.961572 0.551813
vt 0.963675 0.55181
vt 0.966069 0.535504
vt 0.967018 0.536228
vt 0.967382 0.534885
vt 0.975266 0.535868
vt 0.974274 0.532855
vt 0.974274 0.539797
vt 0.975266 0.536708
vt 0.965186 0.549934
vt 0.96468 0.550617
vt 0.965663 0.550938
vt 0.957151 0.534402
vt 0.958176 0.53416
vt 0.957272 0.533244
vt 0.953752 0.537699
vt 0.956311 0.537672
vt 0.95617 0.536834
vt 0.953752 0.53686
vt 0.969619 0.539109
vt 0.969094 0.539932
vt 0.971054 0.539802
vt 0.974274 0.532855
vt 0.975266 0.533732
vt 0.979195 0.533732
vt 0.979195 0.532855
vt 0.957596 0.551504
vt 0.958544 0.551723
vt 0.958559 0.547007
vt 0.975266 0.536708
vt 0.978776 0.536708
vt 0.975266 0.535868
vt 0.962526 0.532855
vt 0.962068 0.533885
vt 0.963556 0.53728
vt 0.955133 0.55308
vt 0.95427 0.553847
vt 0.956419 0.553981
vt 0.955935 0.532862
vt 0.952761 0.532855
vt 0.953752 0.533732
vt 0.964567 0.548096
vt 0.965168 0.547394
vt 0.963755 0.546976
vt 0.954167 0.552579
vt 0.953733 0.551542
vt 0.953014 0.552567
vt 0.952724 0.551277
vt 0.953014 0.552567
vt 0.953733 0.551542
vt 0.954167 0.552579
vt 0.953014 0.552567
vt 0.95427 0.553847
vt 0.971122 0.533934
vt 0.972433 0.533816
vt 0.9709 0.532874
vt 0.957184 0.552534
vt 0.956318 0.553048
vt 0.957846 0.553242
vt 0.96058 0.553911
vt 0.961572 0.551813
vt 0.96161 0.550974
vt 0.967018 0.536228
vt 0.966069 0.535504
vt 0.966173 0.537548
vt 0.965692 0.539797
vt 0.962526 0.532855
vt 0.963556 0.53728
vt 0.963899 0.538081
vt 0.958406 0.539797
vt 0.959436 0.539797
vt 0.960199 0.538081
vt 0.964878 0.551522
vt 0.96468 0.550617
vt 0.963771 0.550966
vt 0.953733 0.551542
vt 0.953714 0.547007
vt 0.952724 0.551277
vt 0.957151 0.534402
vt 0.957395 0.535226
vt 0.958176 0.53416
vt 0.9709 0.532874
vt 0.969907 0.533624
vt 0.971122 0.533934
vt 0.963755 0.546976
vt 0.96161 0.547846
vt 0.963517 0.547848
vt 0.953752 0.533732
vt 0.952761 0.532855
vt 0.952761 0.539797
vt 0.968155 0.538666
vt 0.967939 0.539552
vt 0.969094 0.539932
vt 0.969619 0.539109
vt 0.957184 0.552534
vt 0.957846 0.553242
vt 0.958544 0.551723
vt 0.957596 0.551504
vt 0.958406 0.539797
vt 0.960199 0.538081
vt 0.96058 0.53728
vt 0.961534 0.532855
vt 0.965186 0.549934
vt 0.966144 0.550038
vt 0.966089 0.548517
vt 0.96518 0.54887
vt 0.957395 0.535226
vt 0.957182 0.536154
vt 0.958381 0.535581
vt 0.964567 0.548096
vt 0.96518 0.54887
vt 0.966089 0.548517
s off
f 1/1/1 2/2/2 3/3/3
f 4/4/4 5/5/5 6/6/6
f 7/7/7 8/8/8 9/9/9
f 10/10/10 11/11/11 12/12/12
f 13/13/13 14/14/14 15/15/15
f 16/16/16 17/17/17 18/18/18
f 19/19/19 20/20/20 21/21/21
f 22/22/22 23/23/23 24/24/24
f 25/25/25 26/26/26 27/27/27
f 28/28/28 29/29/29 30/30/30
f 31/31/31 32/32/32 33/33/33
f 34/34/34 35/35/35 36/36/36
f 37/37/37 38/38/38 39/39/39
f 40/40/40 41/41/41 42/42/42
f 43/43/43 44/44/44 45/45/45
f 46/46/46 47/47/47 48/48/48
f 49/49/49 50/50/50 51/51/51
f 52/52/52 53/53/53 54/54/54
f 55/55/55 56/56/56 57/57/57
f 58/58/58 59/59/59 60/60/60
f 61/61/61 62/62/62 63/63/63
f 64/64/64 65/65/65 66/66/66
f 67/67/67 68/68/68 69/69/69
f 70/70/70 71/71/71 72/72/72
f 73/73/73 74/74/74 75/75/75
f 76/76/76 77/77/77 78/78/78
f 79/79/79 80/80/80 81/81/81
f 82/82/82 83/83/83 84/84/84
f 85/85/85 86/86/86 87/87/87
f 88/88/88 89/89/89 90/90/90
f 91/91/91 92/92/92 93/93/93
f 94/94/94 95/95/95 96/96/96
f 97/97/97 98/98/98 99/99/99
f 100/100/100 101/101/101 102/102/102
f 103/103/103 104/104/104 105/105/105
f 106/106/106 107/107/107 108/108/108
f 109/109/109 110/110/110 111/111/111
f 112/112/112 113/113/113 114/114/114
f 115/115/115 116/116/116 117/117/117
f 118/118/118 119/119/119 120/120/120
f 121/121/121 122/122/122 123/123/123
f 124/124/124 125/125/125 126/126/126
f 127/127/127 128/128/128 129/129/129
f 130/130/130 131/131/131 132/132/132
f 133/133/133 134/134/134 135/135/135
f 136/136/136 137/137/137 138/138/138
f 139/139/139 140/140/140 141/141/141
f 142/142/142 143/143/143 144/144/144
f 145/145/145 146/146/146 147/147/147
f 148/148/148 149/149/149 150/150/150
f 151/151/151 152/152/152 153/153/153
f 154/154/154 155/155/155 156/156/156
f 154/154/154 156/156/156 157/157/157
f 158/158/158 159/159/159 160/160/160
f 161/161/161 162/162/162 163/163/163
f 164/164/164 165/165/165 166/166/166
f 164/164/164 166/166/166 167/167/167
f 168/168/168 169/169/169 170/170/170
f 171/171/171 172/172/172 173/173/173
f 171/171/171 173/173/173 174/174/174
f 175/175/175 176/176/176 177/177/177
f 178/178/178 179/179/179 180/180/180
f 181/181/181 182/182/182 183/183/183
f 184/184/184 185/185/185 186/186/186
f 187/187/187 188/188/188 189/189/189
f 190/190/190 191/191/191 192/192/192
f 193/193/193 194/194/194 195/195/195
f 196/196/196 197/197/197 198/198/198
f 199/199/199 200/200/200 201/201/201
f 202/202/202 203/203/203 204/204/204
f 205/205/205 206/206/206 207/207/207
f 208/208/208 209/209/209 210/210/210
f 211/211/211 212/212/212 213/213/213
f 214/214/214 215/215/215 216/216/216
f 214/214/214 216/216/216 217/217/217
f 218/218/218 219/219/219 220/220/220
f 221/221/221 222/222/222 223/223/223
f 224/224/224 225/225/225 226/226/226
f 227/227/227 228/228/228 229/229/229
f 230/230/230 231/231/231 232/232/232
f 233/233/233 234/234/234 235/235/235
f 236/236/236 237/237/237 238/238/238
f 239/239/239 240/240/240 241/241/241
f 239/239/239 241/241/241 242/242/242
f 243/243/243 244/244/244 245/245/245
f 243/243/243 245/245/245 246/246/246
f 247/247/247 248/248/248 249/249/249
f 247/247/247 249/249/249 250/250/250
f 251/251/251 252/252/252 253/253/253
f 251/251/251 253/253/253 254/254/254
f 255/255/255 256/256/256 257/257/257
f 258/258/258 259/259/259 260/260/260
