v 0.583524 0.199279 -0.213517
v 0.575791 0.199204 -0.216876
v 0.575791 0.199045 -0.213517
v 0.583524 0.197546 -0.176336
v 0.583524 0.197704 -0.179695
v 0.564621 0.197708 -0.179695
v 0.572276 0.1987 -0.20594
v 0.575791 0.199045 -0.213517
v 0.572276 0.199058 -0.213517
v 0.575791 0.199562 -0.224452
v 0.572276 0.199575 -0.224452
v 0.572276 0.199217 -0.216876
v 0.564621 0.197708 -0.179695
v 0.564621 0.197554 -0.176336
v 0.583524 0.197546 -0.176336
v 0.564621 0.199273 -0.213517
v 0.572276 0.199217 -0.216876
v 0.564621 0.199432 -0.216876
v 0.575791 0.199045 -0.213517
v 0.575791 0.199204 -0.216876
v 0.572276 0.199217 -0.216876
v 0.572276 0.199058 -0.213517
v 0.583524 0.199279 -0.213517
v 0.583524 0.199433 -0.216876
v 0.575791 0.199204 -0.216876
v 0.572276 0.1987 -0.20594
v 0.575791 0.198687 -0.20594
v 0.575791 0.199045 -0.213517
v 0.575791 0.199204 -0.216876
v 0.575791 0.199562 -0.224452
v 0.572276 0.199217 -0.216876
v 0.583524 0.197232 -0.169697
v 0.564621 0.197249 -0.169697
v 0.564621 0.197101 -0.166338
v 0.564621 0.197101 -0.166338
v 0.583524 0.197082 -0.166338
v 0.583524 0.197232 -0.169697
v 0.564621 0.199273 -0.213517
v 0.572276 0.199058 -0.213517
v 0.572276 0.199217 -0.216876
vn -0.0301 0.9984 0.0472
vn -0.0301 0.9984 0.0472
vn -0.0301 0.9984 0.0472
vn 0.0002 0.9989 0.0472
vn 0.0002 0.9989 0.0472
vn 0.0002 0.9989 0.0472
vn 0.0036 0.9989 0.0472
vn 0.0036 0.9989 0.0472
vn 0.0036 0.9989 0.0472
vn 0.0036 0.9989 0.0472
vn 0.0036 0.9989 0.0472
vn 0.0036 0.9989 0.0472
vn 0.0004 0.9989 0.0459
vn 0.0004 0.9989 0.0459
vn 0.0004 0.9989 0.0459
vn 0.0281 0.9985 0.0472
vn 0.0281 0.9985 0.0472
vn 0.0281 0.9985 0.0472
vn 0.0036 0.9989 0.0472
vn 0.0036 0.9989 0.0472
vn 0.0036 0.9989 0.0472
vn 0.0036 0.9989 0.0472
vn -0.0296 0.9985 0.0459
vn -0.0296 0.9985 0.0459
vn -0.0296 0.9985 0.0459
vn 0.0036 0.9989 0.0472
vn 0.0036 0.9989 0.0472
vn 0.0036 0.9989 0.0472
vn 0.0036 0.9989 0.0472
vn 0.0036 0.9989 0.0472
vn 0.0036 0.9989 0.0472
vn 0.0009 0.999 0.0438
vn 0.0009 0.999 0.0438
vn 0.0009 0.999 0.0438
vn 0.001 0.999 0.0445
vn 0.001 0.999 0.0445
vn 0.001 0.999 0.0445
vn 0.0281 0.9985 0.0472
vn 0.0281 0.9985 0.0472
vn 0.0281 0.9985 0.0472
vt 0.787174 0.471823
vt 0.783398 0.470183
vt 0.783398 0.471823
vt 0.787174 0.48998
vt 0.787174 0.48834
vt 0.777943 0.48834
vt 0.781681 0.475523
vt 0.783398 0.471823
vt 0.781681 0.471823
vt 0.783398 0.466483
vt 0.781681 0.466483
vt 0.781681 0.470183
vt 0.777943 0.48834
vt 0.777943 0.48998
vt 0.787174 0.48998
vt 0.777943 0.471823
vt 0.781681 0.470183
vt 0.777943 0.470183
vt 0.783398 0.471823
vt 0.783398 0.470183
vt 0.781681 0.470183
vt 0.781681 0.471823
vt 0.787174 0.471823
vt 0.787174 0.470183
vt 0.783398 0.470183
vt 0.781681 0.475523
vt 0.783398 0.475523
vt 0.783398 0.471823
vt 0.783398 0.470183
vt 0.783398 0.466483
vt 0.781681 0.470183
vt 0.787174 0.493222
vt 0.777943 0.493222
vt 0.777943 0.494863
vt 0.777943 0.494863
vt 0.787174 0.494863
vt 0.787174 0.493222
vt 0.777943 0.471823
vt 0.781681 0.471823
vt 0.781681 0.470183
s off
f 1/1/1 2/2/2 3/3/3
f 4/4/4 5/5/5 6/6/6
f 7/7/7 8/8/8 9/9/9
f 10/10/10 11/11/11 12/12/12
f 13/13/13 14/14/14 15/15/15
f 16/16/16 17/17/17 18/18/18
f 19/19/19 20/20/20 21/21/21
f 19/19/19 21/21/21 22/22/22
f 23/23/23 24/24/24 25/25/25
f 26/26/26 27/27/27 28/28/28
f 29/29/29 30/30/30 31/31/31
f 32/32/32 33/33/33 34/34/34
f 35/35/35 36/36/36 37/37/37
f 38/38/38 39/39/39 40/40/40
