v 0.686396 0.201817 -0.287019
v 0.687333 0.201778 -0.287019
v 0.686942 0.201828 -0.289519
v 0.672147 0.205997 -0.352074
v 0.673419 0.205786 -0.350187
v 0.674213 0.205789 -0.352074
v 0.662807 0.207023 -0.343962
v 0.664837 0.206706 -0.343962
v 0.664837 0.206872 -0.34818
v 0.673419 0.205786 -0.350187
v 0.671148 0.206037 -0.350699
v 0.671908 0.205884 -0.34895
v 0.662807 0.207023 -0.343962
v 0.664837 0.206943 -0.349976
v 0.664837 0.207196 -0.356381
v 0.669282 0.206553 -0.356365
v 0.670094 0.206593 -0.358117
v 0.664837 0.207196 -0.356381
v 0.677257 0.205127 -0.343962
v 0.679288 0.204922 -0.343962
v 0.679288 0.205111 -0.348258
v 0.688765 0.204565 -0.35304
v 0.686598 0.204585 -0.352074
v 0.688279 0.204481 -0.350849
v 0.671309 0.206292 -0.355541
v 0.672875 0.206219 -0.356766
v 0.670094 0.206593 -0.358117
v 0.683733 0.205109 -0.356365
v 0.683972 0.205222 -0.358162
v 0.679288 0.205546 -0.356381
v 0.694675 0.204701 -0.356381
v 0.689833 0.205012 -0.3581
v 0.689833 0.204844 -0.356381
v 0.696706 0.204642 -0.356381
v 0.701549 0.204489 -0.356381
v 0.701549 0.20465 -0.3581
v 0.71054 0.20412 -0.346065
v 0.707545 0.204003 -0.34538
v 0.710117 0.204014 -0.343929
v 0.705589 0.203878 -0.343851
v 0.707545 0.204003 -0.34538
v 0.704973 0.203951 -0.345931
v 0.698737 0.201867 -0.299517
v 0.700768 0.201317 -0.287097
v 0.700768 0.201806 -0.299517
v 0.723186 0.202417 -0.2853
v 0.716781 0.201979 -0.293111
v 0.720843 0.20212 -0.2853
v 0.712797 0.201687 -0.2853
v 0.712797 0.201658 -0.288972
v 0.710766 0.201617 -0.2853
v 0.715375 0.201865 -0.291627
v 0.712797 0.201778 -0.291627
v 0.712797 0.201658 -0.288972
v 0.710766 0.202064 -0.299517
v 0.712797 0.201778 -0.291627
v 0.712797 0.202133 -0.299517
v 0.72053 0.202588 -0.299517
v 0.716781 0.201979 -0.293111
v 0.722873 0.202867 -0.299517
v 0.673351 0.203287 -0.2853
v 0.673039 0.20337 -0.288972
v 0.664837 0.204933 -0.295924
v 0.692488 0.201911 -0.295689
v 0.694441 0.201542 -0.2853
v 0.694441 0.202013 -0.299517
v 0.72053 0.202588 -0.299517
v 0.712797 0.201778 -0.291627
v 0.716781 0.201979 -0.293111
v 0.664837 0.204567 -0.2853
v 0.662806 0.205436 -0.299517
v 0.662806 0.204956 -0.2853
v 0.679288 0.202577 -0.2853
v 0.68124 0.202344 -0.2853
v 0.679288 0.203043 -0.299517
v 0.713215 0.204245 -0.347131
v 0.712658 0.204349 -0.349854
v 0.711373 0.204216 -0.347683
v 0.709473 0.204697 -0.356427
v 0.712564 0.204842 -0.357008
v 0.710341 0.204877 -0.358073
v 0.718087 0.204767 -0.354451
v 0.716151 0.204757 -0.354987
v 0.714938 0.204509 -0.351996
v 0.704439 0.204313 -0.35392
v 0.702648 0.204205 -0.353268
v 0.703689 0.204162 -0.351592
v 0.720857 0.205155 -0.356208
v 0.717898 0.204991 -0.356823
v 0.718087 0.204767 -0.354451
v 0.726546 0.205266 -0.347091
v 0.725411 0.205038 -0.344186
v 0.727931 0.205357 -0.345853
v 0.708423 0.201537 -0.2853
v 0.708423 0.201507 -0.287097
v 0.700768 0.201317 -0.287097
v 0.727875 0.205847 -0.355993
v 0.726756 0.205811 -0.357015
v 0.726556 0.205621 -0.354754
v 0.685343 0.204599 -0.350489
v 0.68374 0.204663 -0.348258
v 0.685616 0.204491 -0.348647
v 0.712797 0.201778 -0.291627
v 0.710766 0.202064 -0.299517
v 0.710766 0.201617 -0.2853
v 0.694675 0.20398 -0.343884
v 0.696706 0.204642 -0.356381
v 0.694675 0.204701 -0.356381
v 0.673039 0.20337 -0.288972
v 0.67507 0.203544 -0.299517
v 0.673039 0.203786 -0.299517
v 0.702127 0.203837 -0.345411
v 0.704973 0.203951 -0.345931
v 0.70297 0.203937 -0.347008
v 0.71041 0.204258 -0.349283
v 0.712658 0.204349 -0.349854
v 0.710452 0.204346 -0.351271
v 0.718087 0.204767 -0.354451
v 0.717898 0.204991 -0.356823
v 0.716151 0.204757 -0.354987
v 0.712658 0.204349 -0.349854
v 0.71041 0.204258 -0.349283
v 0.711373 0.204216 -0.347683
v 0.685616 0.204491 -0.348647
v 0.68374 0.204663 -0.348258
v 0.686786 0.204218 -0.343884
v 0.716998 0.20455 -0.351554
v 0.714938 0.204509 -0.351996
v 0.717186 0.204455 -0.349271
v 0.702127 0.203837 -0.345411
v 0.705589 0.203878 -0.343851
v 0.704973 0.203951 -0.345931
v 0.716929 0.204306 -0.346027
v 0.718217 0.204413 -0.347335
v 0.715372 0.204356 -0.348216
v 0.696706 0.204642 -0.356381
v 0.701549 0.20465 -0.3581
v 0.694675 0.204701 -0.356381
v 0.685616 0.204491 -0.348647
v 0.686786 0.204218 -0.343884
v 0.688973 0.204147 -0.343884
v 0.721098 0.205327 -0.35817
v 0.724469 0.205518 -0.356188
v 0.724617 0.205666 -0.357965
v 0.721996 0.204673 -0.343653
v 0.723852 0.20493 -0.345443
v 0.720208 0.204579 -0.345836
v 0.706116 0.20476 -0.358155
v 0.706622 0.204616 -0.356459
v 0.709473 0.204697 -0.356427
v 0.724469 0.205518 -0.356188
v 0.726556 0.205621 -0.354754
v 0.726756 0.205811 -0.357015
v 0.685343 0.204599 -0.350489
v 0.685616 0.204491 -0.348647
v 0.686957 0.204451 -0.349319
v 0.694441 0.201542 -0.2853
v 0.692488 0.201911 -0.295689
v 0.692488 0.201609 -0.2853
v 0.712564 0.204842 -0.357008
v 0.709473 0.204697 -0.356427
v 0.711864 0.204668 -0.355378
v 0.704439 0.204313 -0.35392
v 0.702832 0.204417 -0.355524
v 0.702648 0.204205 -0.353268
v 0.679288 0.205546 -0.356381
v 0.677257 0.205876 -0.358178
v 0.679288 0.205186 -0.349976
v 0.705759 0.204263 -0.352506
v 0.703689 0.204162 -0.351592
v 0.70538 0.20417 -0.350634
v 0.671148 0.206037 -0.350699
v 0.669529 0.20614 -0.348197
v 0.671908 0.205884 -0.34895
v 0.719116 0.204393 -0.344432
v 0.720208 0.204579 -0.345836
v 0.718217 0.204413 -0.347335
v 0.715372 0.204356 -0.348216
v 0.718217 0.204413 -0.347335
v 0.717186 0.204455 -0.349271
v 0.68124 0.202344 -0.2853
v 0.68124 0.202657 -0.295611
v 0.679288 0.203043 -0.299517
v 0.664837 0.207196 -0.356381
v 0.662807 0.20758 -0.358178
v 0.662807 0.207023 -0.343962
v 0.694675 0.20398 -0.343884
v 0.696706 0.203921 -0.343884
v 0.696706 0.204642 -0.356381
v 0.717186 0.204455 -0.349271
v 0.714938 0.204509 -0.351996
v 0.715372 0.204356 -0.348216
v 0.706116 0.20476 -0.358155
v 0.709473 0.204697 -0.356427
v 0.710341 0.204877 -0.358073
v 0.721996 0.204673 -0.343653
v 0.725411 0.205038 -0.344186
v 0.723852 0.20493 -0.345443
v 0.713215 0.204245 -0.347131
v 0.711373 0.204216 -0.347683
v 0.71054 0.20412 -0.346065
v 0.716929 0.204306 -0.346027
v 0.719116 0.204393 -0.344432
v 0.718217 0.204413 -0.347335
v 0.715375 0.201865 -0.291627
v 0.716781 0.201979 -0.293111
v 0.712797 0.201778 -0.291627
v 0.688456 0.204757 -0.355086
v 0.687045 0.204991 -0.357047
v 0.68576 0.204881 -0.355541
v 0.686653 0.204711 -0.354076
v 0.686653 0.204711 -0.354076
v 0.688765 0.204565 -0.35304
v 0.688456 0.204757 -0.355086
v 0.726546 0.205266 -0.347091
v 0.723852 0.20493 -0.345443
v 0.725411 0.205038 -0.344186
v 0.670094 0.206593 -0.358117
v 0.662807 0.20758 -0.358178
v 0.664837 0.207196 -0.356381
v 0.720857 0.205155 -0.356208
v 0.724469 0.205518 -0.356188
v 0.721098 0.205327 -0.35817
v 0.67507 0.203081 -0.2853
v 0.67507 0.203544 -0.299517
v 0.673039 0.20337 -0.288972
v 0.662806 0.205436 -0.299517
v 0.664837 0.204567 -0.2853
v 0.664837 0.204933 -0.295924
v 0.664837 0.204933 -0.295924
v 0.673039 0.20337 -0.288972
v 0.664525 0.205113 -0.299517
v 0.724469 0.205518 -0.356188
v 0.726756 0.205811 -0.357015
v 0.724617 0.205666 -0.357965
v 0.662807 0.207023 -0.343962
v 0.664837 0.206872 -0.34818
v 0.664837 0.206943 -0.349976
v 0.677257 0.205876 -0.358178
v 0.677257 0.205127 -0.343962
v 0.679288 0.205186 -0.349976
v 0.702832 0.204417 -0.355524
v 0.704439 0.204313 -0.35392
v 0.705033 0.204494 -0.35566
v 0.679288 0.205546 -0.356381
v 0.683972 0.205222 -0.358162
v 0.677257 0.205876 -0.358178
v 0.719116 0.204393 -0.344432
v 0.721996 0.204673 -0.343653
v 0.720208 0.204579 -0.345836
v 0.683192 0.204794 -0.349979
v 0.679288 0.205111 -0.348258
v 0.68374 0.204663 -0.348258
v 0.68374 0.204663 -0.348258
v 0.685343 0.204599 -0.350489
v 0.683192 0.204794 -0.349979
v 0.712187 0.204132 -0.345223
v 0.71054 0.20412 -0.346065
v 0.710117 0.204014 -0.343929
v 0.671148 0.206037 -0.350699
v 0.669125 0.206274 -0.349986
v 0.669529 0.20614 -0.348197
v 0.669125 0.206274 -0.349986
v 0.664837 0.206943 -0.349976
v 0.664837 0.206872 -0.34818
v 0.669529 0.20614 -0.348197
v 0.702832 0.204417 -0.355524
v 0.705033 0.204494 -0.35566
v 0.703743 0.204578 -0.356956
v 0.685343 0.204599 -0.350489
v 0.686957 0.204451 -0.349319
v 0.688279 0.204481 -0.350849
v 0.705759 0.204263 -0.352506
v 0.70538 0.20417 -0.350634
v 0.71041 0.204258 -0.349283
v 0.700768 0.201317 -0.287097
v 0.698737 0.201867 -0.299517
v 0.698737 0.201396 -0.2853
v 0.673351 0.203287 -0.2853
v 0.67507 0.203081 -0.2853
v 0.673039 0.20337 -0.288972
v 0.687045 0.204991 -0.357047
v 0.683972 0.205222 -0.358162
v 0.683733 0.205109 -0.356365
v 0.68576 0.204881 -0.355541
v 0.703689 0.204162 -0.351592
v 0.705759 0.204263 -0.352506
v 0.704439 0.204313 -0.35392
v 0.720857 0.205155 -0.356208
v 0.721098 0.205327 -0.35817
v 0.717898 0.204991 -0.356823
v 0.664525 0.205113 -0.299517
v 0.662806 0.205436 -0.299517
v 0.664837 0.204933 -0.295924
v 0.686598 0.204585 -0.352074
v 0.685343 0.204599 -0.350489
v 0.688279 0.204481 -0.350849
v 0.686942 0.201828 -0.289519
v 0.687333 0.201778 -0.287019
v 0.692488 0.201911 -0.295689
v 0.692723 0.202071 -0.299517
v 0.686942 0.201828 -0.289519
v 0.692488 0.201911 -0.295689
v 0.706116 0.20476 -0.358155
v 0.703743 0.204578 -0.356956
v 0.705033 0.204494 -0.35566
v 0.706622 0.204616 -0.356459
v 0.716998 0.20455 -0.351554
v 0.718087 0.204767 -0.354451
v 0.714938 0.204509 -0.351996
v 0.710766 0.201617 -0.2853
v 0.712797 0.201658 -0.288972
v 0.712797 0.201778 -0.291627
v 0.669282 0.206553 -0.356365
v 0.671309 0.206292 -0.355541
v 0.670094 0.206593 -0.358117
v 0.68124 0.202657 -0.295611
v 0.681006 0.202838 -0.299517
v 0.679288 0.203043 -0.299517
v 0.710117 0.204014 -0.343929
v 0.707545 0.204003 -0.34538
v 0.705589 0.203878 -0.343851
v 0.701549 0.20465 -0.3581
v 0.689833 0.205012 -0.3581
v 0.694675 0.204701 -0.356381
v 0.686653 0.204711 -0.354076
v 0.686598 0.204585 -0.352074
v 0.688765 0.204565 -0.35304
v 0.716781 0.201979 -0.293111
v 0.715375 0.201865 -0.291627
v 0.720843 0.20212 -0.2853
v 0.71054 0.20412 -0.346065
v 0.712187 0.204132 -0.345223
v 0.713215 0.204245 -0.347131
v 0.71041 0.204258 -0.349283
v 0.710452 0.204346 -0.351271
v 0.705759 0.204263 -0.352506
v 0.674168 0.205946 -0.354712
v 0.672875 0.206219 -0.356766
v 0.671309 0.206292 -0.355541
v 0.672202 0.2061 -0.354076
v 0.683192 0.204794 -0.349979
v 0.679288 0.205186 -0.349976
v 0.679288 0.205111 -0.348258
v 0.677257 0.205127 -0.343962
v 0.679288 0.205111 -0.348258
v 0.679288 0.205186 -0.349976
v 0.698737 0.201396 -0.2853
v 0.708423 0.201537 -0.2853
v 0.700768 0.201317 -0.287097
v 0.686942 0.201828 -0.289519
v 0.68124 0.202657 -0.295611
v 0.686396 0.201817 -0.287019
v 0.686942 0.201828 -0.289519
v 0.681006 0.202838 -0.299517
v 0.68124 0.202657 -0.295611
v 0.672147 0.205997 -0.352074
v 0.671148 0.206037 -0.350699
v 0.673419 0.205786 -0.350187
v 0.694441 0.202013 -0.299517
v 0.692723 0.202071 -0.299517
v 0.692488 0.201911 -0.295689
v 0.674213 0.205789 -0.352074
v 0.674168 0.205946 -0.354712
v 0.672202 0.2061 -0.354076
v 0.672147 0.205997 -0.352074
v 0.688973 0.204147 -0.343884
v 0.688973 0.204147 -0.343884
v 0.688973 0.204147 -0.343884
v 0.688973 0.204147 -0.343884
v 0.712564 0.204842 -0.357008
v 0.712563 0.204842 -0.357006
v 0.723186 0.202417 -0.2853
v 0.723186 0.202417 -0.2853
v 0.722873 0.202867 -0.299517
v 0.722874 0.202867 -0.299517
vn 0.0418 0.999 0.0135
vn 0.0418 0.999 0.0135
vn 0.0418 0.999 0.0135
vn 0.1001 0.994 0.0436
vn 0.1001 0.994 0.0436
vn 0.1001 0.994 0.0436
vn 0.1542 0.9873 0.0389
vn 0.1542 0.9873 0.0389
vn 0.1542 0.9873 0.0389
vn 0.1 0.994 0.0437
vn 0.1 0.994 0.0437
vn 0.1 0.994 0.0437
vn 0.1541 0.9873 0.0389
vn 0.1541 0.9873 0.0389
vn 0.1541 0.9873 0.0389
vn 0.1422 0.9859 0.0882
vn 0.1422 0.9859 0.0882
vn 0.1422 0.9859 0.0882
vn 0.1 0.994 0.0436
vn 0.1 0.994 0.0436
vn 0.1 0.994 0.0436
vn 0.0293 0.9986 0.0449
vn 0.0293 0.9986 0.0449
vn 0.0293 0.9986 0.0449
vn 0.1001 0.9926 0.0688
vn 0.1001 0.9926 0.0688
vn 0.1001 0.9926 0.0688
vn 0.0973 0.9924 0.0757
vn 0.0973 0.9924 0.0757
vn 0.0973 0.9924 0.0757
vn 0.0292 0.9948 0.0974
vn 0.0292 0.9948 0.0974
vn 0.0292 0.9948 0.0974
vn 0.0314 0.9951 0.0935
vn 0.0314 0.9951 0.0935
vn 0.0314 0.9951 0.0935
vn -0.0292 0.9986 0.0438
vn -0.0292 0.9986 0.0438
vn -0.0292 0.9986 0.0438
vn -0.0292 0.9986 0.0438
vn -0.0292 0.9986 0.0438
vn -0.0292 0.9986 0.0438
vn 0.0304 0.9988 0.0393
vn 0.0304 0.9988 0.0393
vn 0.0304 0.9988 0.0393
vn -0.1254 0.991 0.0474
vn -0.1254 0.991 0.0474
vn -0.1254 0.991 0.0474
vn -0.0341 0.9994 -0.0077
vn -0.0341 0.9994 -0.0077
vn -0.0341 0.9994 -0.0077
vn -0.0338 0.9984 0.0449
vn -0.0338 0.9984 0.0449
vn -0.0338 0.9984 0.0449
vn -0.0338 0.9984 0.0449
vn -0.0338 0.9984 0.0449
vn -0.0338 0.9984 0.0449
vn -0.118 0.9927 0.0253
vn -0.118 0.9927 0.0253
vn -0.118 0.9927 0.0253
vn 0.1815 0.9834 0.0069
vn 0.1815 0.9834 0.0069
vn 0.1815 0.9834 0.0069
vn 0.0127 0.9994 0.0331
vn 0.0127 0.9994 0.0331
vn 0.0127 0.9994 0.0331
vn -0.0193 0.9963 0.0834
vn -0.0193 0.9963 0.0834
vn -0.0193 0.9963 0.0834
vn 0.1878 0.9816 0.0331
vn 0.1878 0.9816 0.0331
vn 0.1878 0.9816 0.0331
vn 0.1186 0.9924 0.0325
vn 0.1186 0.9924 0.0325
vn 0.1186 0.9924 0.0325
vn -0.0292 0.9986 0.0438
vn -0.0292 0.9986 0.0438
vn -0.0292 0.9986 0.0438
vn -0.0292 0.9952 0.0935
vn -0.0292 0.9952 0.0935
vn -0.0292 0.9952 0.0935
vn -0.0252 0.997 0.0726
vn -0.0252 0.997 0.0726
vn -0.0252 0.997 0.0726
vn -0.0415 0.9978 0.0514
vn -0.0415 0.9978 0.0514
vn -0.0415 0.9978 0.0514
vn -0.0757 0.9921 0.0997
vn -0.0757 0.9921 0.0997
vn -0.0757 0.9921 0.0997
vn -0.1 0.9942 0.0392
vn -0.1 0.9942 0.0392
vn -0.1 0.9942 0.0392
vn -0.0248 0.9995 -0.0169
vn -0.0248 0.9995 -0.0169
vn -0.0248 0.9995 -0.0169
vn -0.1 0.9922 0.0744
vn -0.1 0.9922 0.0744
vn -0.1 0.9922 0.0744
vn 0.1 0.994 0.0436
vn 0.1 0.994 0.0436
vn 0.1 0.994 0.0436
vn 0.0189 0.9993 0.0314
vn 0.0189 0.9993 0.0314
vn 0.0189 0.9993 0.0314
vn 0.0293 0.9979 0.0576
vn 0.0293 0.9979 0.0576
vn 0.0293 0.9979 0.0576
vn 0.118 0.9922 0.0391
vn 0.118 0.9922 0.0391
vn 0.118 0.9922 0.0391
vn -0.0319 0.9984 0.0459
vn -0.0319 0.9984 0.0459
vn -0.0319 0.9984 0.0459
vn -0.0293 0.9986 0.0438
vn -0.0293 0.9986 0.0438
vn -0.0293 0.9986 0.0438
vn -0.0318 0.9948 0.0965
vn -0.0318 0.9948 0.0965
vn -0.0318 0.9948 0.0965
vn -0.0292 0.9986 0.0438
vn -0.0292 0.9986 0.0438
vn -0.0292 0.9986 0.0438
vn 0.0979 0.9946 0.033
vn 0.0979 0.9946 0.033
vn 0.0979 0.9946 0.033
vn -0.0293 0.9986 0.0439
vn -0.0293 0.9986 0.0439
vn -0.0293 0.9986 0.0439
vn -0.0321 0.9985 0.0447
vn -0.0321 0.9985 0.0447
vn -0.0321 0.9985 0.0447
vn -0.0349 0.9982 0.0478
vn -0.0349 0.9982 0.0478
vn -0.0349 0.9982 0.0478
vn 0.0292 0.9957 0.0874
vn 0.0292 0.9957 0.0874
vn 0.0292 0.9957 0.0874
vn 0.0324 0.9983 0.0493
vn 0.0324 0.9983 0.0493
vn 0.0324 0.9983 0.0493
vn -0.1001 0.9922 0.0743
vn -0.1001 0.9922 0.0743
vn -0.1001 0.9922 0.0743
vn -0.1 0.9942 0.0392
vn -0.1 0.9942 0.0392
vn -0.1 0.9942 0.0392
vn -0.0292 0.9952 0.0935
vn -0.0292 0.9952 0.0935
vn -0.0292 0.9952 0.0935
vn -0.1001 0.9922 0.0744
vn -0.1001 0.9922 0.0744
vn -0.1001 0.9922 0.0744
vn 0.0554 0.9972 0.0504
vn 0.0554 0.9972 0.0504
vn 0.0554 0.9972 0.0504
vn 0.0341 0.999 0.029
vn 0.0341 0.999 0.029
vn 0.0341 0.999 0.029
vn -0.0292 0.9952 0.0935
vn -0.0292 0.9952 0.0935
vn -0.0292 0.9952 0.0935
vn -0.0269 0.9955 0.0912
vn -0.0269 0.9955 0.0912
vn -0.0269 0.9955 0.0912
vn 0.1121 0.9921 0.0557
vn 0.1121 0.9921 0.0557
vn 0.1121 0.9921 0.0557
vn -0.0292 0.9986 0.0438
vn -0.0292 0.9986 0.0438
vn -0.0292 0.9986 0.0438
vn 0.1182 0.9924 0.0356
vn 0.1182 0.9924 0.0356
vn 0.1182 0.9924 0.0356
vn -0.1147 0.9925 0.0426
vn -0.1147 0.9925 0.0426
vn -0.1147 0.9925 0.0426
vn -0.0321 0.9987 0.0388
vn -0.0321 0.9987 0.0388
vn -0.0321 0.9987 0.0388
vn 0.1358 0.9903 0.03
vn 0.1358 0.9903 0.03
vn 0.1358 0.9903 0.03
vn 0.1528 0.9875 0.0387
vn 0.1528 0.9875 0.0387
vn 0.1528 0.9875 0.0387
vn 0.0292 0.9979 0.0576
vn 0.0292 0.9979 0.0576
vn 0.0292 0.9979 0.0576
vn -0.0292 0.9986 0.0438
vn -0.0292 0.9986 0.0438
vn -0.0292 0.9986 0.0438
vn -0.0292 0.9952 0.0935
vn -0.0292 0.9952 0.0935
vn -0.0292 0.9952 0.0935
vn -0.1 0.9942 0.0392
vn -0.1 0.9942 0.0392
vn -0.1 0.9942 0.0392
vn -0.0292 0.9986 0.0438
vn -0.0292 0.9986 0.0438
vn -0.0292 0.9986 0.0438
vn -0.0581 0.998 0.0251
vn -0.0581 0.998 0.0251
vn -0.0581 0.998 0.0251
vn -0.0338 0.9984 0.0449
vn -0.0338 0.9984 0.0449
vn -0.0338 0.9984 0.0449
vn 0.0292 0.9948 0.0973
vn 0.0292 0.9948 0.0973
vn 0.0292 0.9948 0.0973
vn 0.0292 0.9948 0.0973
vn 0.025 0.9956 0.0898
vn 0.025 0.9956 0.0898
vn 0.025 0.9956 0.0898
vn -0.1 0.9942 0.0392
vn -0.1 0.9942 0.0392
vn -0.1 0.9942 0.0392
vn 0.1335 0.9892 0.0608
vn 0.1335 0.9892 0.0608
vn 0.1335 0.9892 0.0608
vn -0.1001 0.9922 0.0744
vn -0.1001 0.9922 0.0744
vn -0.1001 0.9922 0.0744
vn 0.083 0.996 0.0324
vn 0.083 0.996 0.0324
vn 0.083 0.996 0.0324
vn 0.1833 0.9825 0.0338
vn 0.1833 0.9825 0.0338
vn 0.1833 0.9825 0.0338
vn 0.1578 0.9868 0.0357
vn 0.1578 0.9868 0.0357
vn 0.1578 0.9868 0.0357
vn -0.1001 0.9922 0.0743
vn -0.1001 0.9922 0.0743
vn -0.1001 0.9922 0.0743
vn 0.1543 0.9873 0.039
vn 0.1543 0.9873 0.039
vn 0.1543 0.9873 0.039
vn 0.1255 0.9907 0.0522
vn 0.1255 0.9907 0.0522
vn 0.1255 0.9907 0.0522
vn -0.0292 0.9952 0.0935
vn -0.0292 0.9952 0.0935
vn -0.0292 0.9952 0.0935
vn 0.0965 0.9926 0.0734
vn 0.0965 0.9926 0.0734
vn 0.0965 0.9926 0.0734
vn -0.1093 0.9929 0.0468
vn -0.1093 0.9929 0.0468
vn -0.1093 0.9929 0.0468
vn 0.1 0.994 0.0436
vn 0.1 0.994 0.0436
vn 0.1 0.994 0.0436
vn 0.1 0.994 0.0436
vn 0.1 0.994 0.0436
vn 0.1 0.994 0.0436
vn -0.0293 0.9986 0.0438
vn -0.0293 0.9986 0.0438
vn -0.0293 0.9986 0.0438
vn 0.1314 0.9903 0.0443
vn 0.1314 0.9903 0.0443
vn 0.1314 0.9903 0.0443
vn 0.1542 0.9873 0.0389
vn 0.1542 0.9873 0.0389
vn 0.1542 0.9873 0.0389
vn 0.1542 0.9873 0.0389
vn -0.0293 0.9952 0.0935
vn -0.0293 0.9952 0.0935
vn -0.0293 0.9952 0.0935
vn 0.0478 0.997 0.0609
vn 0.0478 0.997 0.0609
vn 0.0478 0.997 0.0609
vn -0.0292 0.9986 0.0438
vn -0.0292 0.9986 0.0438
vn -0.0292 0.9986 0.0438
vn 0.0681 0.9971 0.0331
vn 0.0681 0.9971 0.0331
vn 0.0681 0.9971 0.0331
vn 0.1187 0.9929 0.0125
vn 0.1187 0.9929 0.0125
vn 0.1187 0.9929 0.0125
vn 0.0544 0.9942 0.0923
vn 0.0544 0.9942 0.0923
vn 0.0544 0.9942 0.0923
vn 0.0544 0.9942 0.0923
vn -0.0233 0.9981 0.0573
vn -0.0233 0.9981 0.0573
vn -0.0233 0.9981 0.0573
vn -0.0713 0.9944 0.0781
vn -0.0713 0.9944 0.0781
vn -0.0713 0.9944 0.0781
vn 0.1845 0.9823 0.0331
vn 0.1845 0.9823 0.0331
vn 0.1845 0.9823 0.0331
vn 0.0435 0.9987 0.0254
vn 0.0435 0.9987 0.0254
vn 0.0435 0.9987 0.0254
vn 0.0062 0.9998 0.019
vn 0.0062 0.9998 0.019
vn 0.0062 0.9998 0.019
vn 0.0338 0.9985 0.0438
vn 0.0338 0.9985 0.0438
vn 0.0338 0.9985 0.0438
vn -0.0292 0.9952 0.0935
vn -0.0292 0.9952 0.0935
vn -0.0292 0.9952 0.0935
vn -0.0292 0.9952 0.0935
vn -0.0332 0.9975 0.0623
vn -0.0332 0.9975 0.0623
vn -0.0332 0.9975 0.0623
vn 0.061 0.9971 0.0449
vn 0.061 0.9971 0.0449
vn 0.061 0.9971 0.0449
vn 0.1001 0.9926 0.0688
vn 0.1001 0.9926 0.0688
vn 0.1001 0.9926 0.0688
vn 0.118 0.9922 0.0391
vn 0.118 0.9922 0.0391
vn 0.118 0.9922 0.0391
vn -0.0292 0.9986 0.0438
vn -0.0292 0.9986 0.0438
vn -0.0292 0.9986 0.0438
vn 0.0307 0.9952 0.0933
vn 0.0307 0.9952 0.0933
vn 0.0307 0.9952 0.0933
vn 0.0378 0.9972 0.064
vn 0.0378 0.9972 0.064
vn 0.0378 0.9972 0.064
vn -0.0646 0.9978 0.0156
vn -0.0646 0.9978 0.0156
vn -0.0646 0.9978 0.0156
vn -0.0293 0.9986 0.0438
vn -0.0293 0.9986 0.0438
vn -0.0293 0.9986 0.0438
vn -0.0292 0.9986 0.0438
vn -0.0292 0.9986 0.0438
vn -0.0292 0.9986 0.0438
vn 0.1 0.9926 0.0688
vn 0.1 0.9926 0.0688
vn 0.1 0.9926 0.0688
vn 0.1 0.9926 0.0688
vn 0.1 0.994 0.0436
vn 0.1 0.994 0.0436
vn 0.1 0.994 0.0436
vn 0.1001 0.994 0.0437
vn 0.1001 0.994 0.0437
vn 0.1001 0.994 0.0437
vn -0.0146 0.9981 -0.0604
vn -0.0146 0.9981 -0.0604
vn -0.0146 0.9981 -0.0604
vn 0.1133 0.9931 0.0291
vn 0.1133 0.9931 0.0291
vn 0.1133 0.9931 0.0291
vn 0.1016 0.994 0.0402
vn 0.1016 0.994 0.0402
vn 0.1016 0.994 0.0402
vn 0.1 0.994 0.0436
vn 0.1 0.994 0.0436
vn 0.1 0.994 0.0436
vn 0.0338 0.9985 0.0438
vn 0.0338 0.9985 0.0438
vn 0.0338 0.9985 0.0438
vn 0.098 0.9936 0.0559
vn 0.098 0.9936 0.0559
vn 0.098 0.9936 0.0559
vn 0.098 0.9936 0.0559
vn 0 0 0
vn 0 0 0
vn 0 0 0
vn 0 0 0
vn 0 0 0
vn 0 0 0
vn 0 0 0
vn 0 0 0
vn 0 0 0
vn 0 0 0
vt 0.837411 0.435929
vt 0.837868 0.435929
vt 0.837678 0.434708
vt 0.830453 0.40416
vt 0.831073 0.405081
vt 0.831461 0.40416
vt 0.825891 0.408121
vt 0.826883 0.408121
vt 0.826883 0.406062
vt 0.831073 0.405081
vt 0.829965 0.404831
vt 0.830336 0.405686
vt 0.825891 0.408121
vt 0.826883 0.405184
vt 0.826883 0.402056
vt 0.829054 0.402064
vt 0.82945 0.401209
vt 0.826883 0.402056
vt 0.832948 0.408121
vt 0.83394 0.408121
vt 0.83394 0.406023
vt 0.838568 0.403688
vt 0.837509 0.40416
vt 0.838331 0.404758
vt 0.830043 0.402467
vt 0.830808 0.401869
vt 0.82945 0.401209
vt 0.83611 0.402064
vt 0.836227 0.401187
vt 0.833939 0.402056
vt 0.841454 0.402056
vt 0.839089 0.401217
vt 0.839089 0.402056
vt 0.842446 0.402056
vt 0.844811 0.402056
vt 0.844811 0.401217
vt 0.849201 0.407094
vt 0.847739 0.407429
vt 0.848995 0.408137
vt 0.846784 0.408176
vt 0.847739 0.407429
vt 0.846483 0.40716
vt 0.843437 0.429826
vt 0.844429 0.435891
vt 0.844429 0.429826
vt 0.855377 0.436768
vt 0.852249 0.432954
vt 0.854233 0.436768
vt 0.850304 0.436768
vt 0.850304 0.434975
vt 0.849312 0.436768
vt 0.851562 0.433679
vt 0.850304 0.433679
vt 0.850304 0.434975
vt 0.849312 0.429826
vt 0.850304 0.433679
vt 0.850304 0.429826
vt 0.85408 0.429826
vt 0.852249 0.432954
vt 0.855224 0.429826
vt 0.831041 0.436768
vt 0.830888 0.434975
vt 0.826883 0.43158
vt 0.840386 0.431695
vt 0.84134 0.436768
vt 0.84134 0.429826
vt 0.85408 0.429826
vt 0.850304 0.433679
vt 0.852249 0.432954
vt 0.826883 0.436768
vt 0.825891 0.429826
vt 0.825891 0.436768
vt 0.83394 0.436768
vt 0.834893 0.436768
vt 0.83394 0.429826
vt 0.850508 0.406574
vt 0.850236 0.405244
vt 0.849608 0.406304
vt 0.84868 0.402034
vt 0.85019 0.40175
vt 0.849104 0.40123
vt 0.852887 0.402999
vt 0.851941 0.402737
vt 0.851349 0.404198
vt 0.846222 0.403258
vt 0.845347 0.403577
vt 0.845856 0.404395
vt 0.85424 0.402141
vt 0.852795 0.401841
vt 0.852887 0.402999
vt 0.857018 0.406593
vt 0.856464 0.408012
vt 0.857694 0.407198
vt 0.848168 0.436768
vt 0.848168 0.435891
vt 0.844429 0.435891
vt 0.857667 0.402246
vt 0.85712 0.401747
vt 0.857023 0.402851
vt 0.836897 0.404934
vt 0.836114 0.406023
vt 0.83703 0.405833
vt 0.850304 0.433679
vt 0.849312 0.429826
vt 0.849312 0.436768
vt 0.841454 0.408159
vt 0.842446 0.402056
vt 0.841454 0.402056
vt 0.830888 0.434975
vt 0.83188 0.429826
vt 0.830888 0.429826
vt 0.845093 0.407413
vt 0.846483 0.40716
vt 0.845505 0.406634
vt 0.849138 0.405523
vt 0.850236 0.405244
vt 0.849158 0.404552
vt 0.852887 0.402999
vt 0.852795 0.401841
vt 0.851941 0.402737
vt 0.850236 0.405244
vt 0.849138 0.405523
vt 0.849608 0.406304
vt 0.83703 0.405833
vt 0.836114 0.406023
vt 0.837601 0.408159
vt 0.852355 0.404414
vt 0.851349 0.404198
vt 0.852447 0.405529
vt 0.845093 0.407413
vt 0.846784 0.408176
vt 0.846483 0.40716
vt 0.852321 0.407113
vt 0.85295 0.406474
vt 0.851561 0.406044
vt 0.842446 0.402056
vt 0.844811 0.401217
vt 0.841454 0.402056
vt 0.83703 0.405833
vt 0.837601 0.408159
vt 0.83867 0.408159
vt 0.854357 0.401183
vt 0.856003 0.402151
vt 0.856076 0.401283
vt 0.854796 0.408272
vt 0.855702 0.407398
vt 0.853923 0.407206
vt 0.847041 0.40119
vt 0.847288 0.402018
vt 0.84868 0.402034
vt 0.856003 0.402151
vt 0.857023 0.402851
vt 0.85712 0.401747
vt 0.836897 0.404934
vt 0.83703 0.405833
vt 0.837685 0.405505
vt 0.84134 0.436768
vt 0.840386 0.431695
vt 0.840386 0.436768
vt 0.85019 0.40175
vt 0.84868 0.402034
vt 0.849848 0.402546
vt 0.846222 0.403258
vt 0.845437 0.402475
vt 0.845347 0.403577
vt 0.833939 0.402056
vt 0.832948 0.401179
vt 0.833939 0.405184
vt 0.846866 0.403949
vt 0.845856 0.404395
vt 0.846681 0.404863
vt 0.829965 0.404831
vt 0.829174 0.406053
vt 0.830336 0.405686
vt 0.85339 0.407892
vt 0.853923 0.407206
vt 0.85295 0.406474
vt 0.851561 0.406044
vt 0.85295 0.406474
vt 0.852447 0.405529
vt 0.834893 0.436768
vt 0.834893 0.431733
vt 0.83394 0.429826
vt 0.826883 0.402056
vt 0.825891 0.401179
vt 0.825891 0.408121
vt 0.841454 0.408159
vt 0.842446 0.408159
vt 0.842446 0.402056
vt 0.852447 0.405529
vt 0.851349 0.404198
vt 0.851561 0.406044
vt 0.847041 0.40119
vt 0.84868 0.402034
vt 0.849104 0.40123
vt 0.854796 0.408272
vt 0.856464 0.408012
vt 0.855702 0.407398
vt 0.850508 0.406574
vt 0.849608 0.406304
vt 0.849201 0.407094
vt 0.852321 0.407113
vt 0.85339 0.407892
vt 0.85295 0.406474
vt 0.851562 0.433679
vt 0.852249 0.432954
vt 0.850304 0.433679
vt 0.838417 0.402689
vt 0.837728 0.401731
vt 0.8371 0.402467
vt 0.837536 0.403182
vt 0.837536 0.403182
vt 0.838568 0.403688
vt 0.838417 0.402689
vt 0.857018 0.406593
vt 0.855702 0.407398
vt 0.856464 0.408012
vt 0.82945 0.401209
vt 0.825891 0.401179
vt 0.826883 0.402056
vt 0.85424 0.402141
vt 0.856003 0.402151
vt 0.854357 0.401183
vt 0.83188 0.436768
vt 0.83188 0.429826
vt 0.830888 0.434975
vt 0.825891 0.429826
vt 0.826883 0.436768
vt 0.826883 0.43158
vt 0.826883 0.43158
vt 0.830888 0.434975
vt 0.82673 0.429826
vt 0.856003 0.402151
vt 0.85712 0.401747
vt 0.856076 0.401283
vt 0.825891 0.408121
vt 0.826883 0.406062
vt 0.826883 0.405184
vt 0.832948 0.401179
vt 0.832948 0.408121
vt 0.833939 0.405184
vt 0.845437 0.402475
vt 0.846222 0.403258
vt 0.846512 0.402408
vt 0.833939 0.402056
vt 0.836227 0.401187
vt 0.832948 0.401179
vt 0.85339 0.407892
vt 0.854796 0.408272
vt 0.853923 0.407206
vt 0.835846 0.405183
vt 0.83394 0.406023
vt 0.836114 0.406023
vt 0.836114 0.406023
vt 0.836897 0.404934
vt 0.835846 0.405183
vt 0.850006 0.407505
vt 0.849201 0.407094
vt 0.848995 0.408137
vt 0.829965 0.404831
vt 0.828977 0.40518
vt 0.829174 0.406053
vt 0.828977 0.40518
vt 0.826883 0.405184
vt 0.826883 0.406062
vt 0.829174 0.406053
vt 0.845437 0.402475
vt 0.846512 0.402408
vt 0.845882 0.401776
vt 0.836897 0.404934
vt 0.837685 0.405505
vt 0.838331 0.404758
vt 0.846866 0.403949
vt 0.846681 0.404863
vt 0.849138 0.405523
vt 0.844429 0.435891
vt 0.843437 0.429826
vt 0.843437 0.436768
vt 0.831041 0.436768
vt 0.83188 0.436768
vt 0.830888 0.434975
vt 0.837728 0.401731
vt 0.836227 0.401187
vt 0.83611 0.402064
vt 0.8371 0.402467
vt 0.845856 0.404395
vt 0.846866 0.403949
vt 0.846222 0.403258
vt 0.85424 0.402141
vt 0.854357 0.401183
vt 0.852795 0.401841
vt 0.82673 0.429826
vt 0.825891 0.429826
vt 0.826883 0.43158
vt 0.837509 0.40416
vt 0.836897 0.404934
vt 0.838331 0.404758
vt 0.837678 0.434708
vt 0.837868 0.435929
vt 0.840386 0.431695
vt 0.8405 0.429826
vt 0.837678 0.434708
vt 0.840386 0.431695
vt 0.847041 0.40119
vt 0.845882 0.401776
vt 0.846512 0.402408
vt 0.847288 0.402018
vt 0.852355 0.404414
vt 0.852887 0.402999
vt 0.851349 0.404198
vt 0.849312 0.436768
vt 0.850304 0.434975
vt 0.850304 0.433679
vt 0.829054 0.402064
vt 0.830043 0.402467
vt 0.82945 0.401209
vt 0.834893 0.431733
vt 0.834779 0.429826
vt 0.83394 0.429826
vt 0.848995 0.408137
vt 0.847739 0.407429
vt 0.846784 0.408176
vt 0.844811 0.401217
vt 0.839089 0.401217
vt 0.841454 0.402056
vt 0.837536 0.403182
vt 0.837509 0.40416
vt 0.838568 0.403688
vt 0.852249 0.432954
vt 0.851562 0.433679
vt 0.854233 0.436768
vt 0.849201 0.407094
vt 0.850006 0.407505
vt 0.850508 0.406574
vt 0.849138 0.405523
vt 0.849158 0.404552
vt 0.846866 0.403949
vt 0.831439 0.402872
vt 0.830808 0.401869
vt 0.830043 0.402467
vt 0.830479 0.403182
vt 0.835846 0.405183
vt 0.833939 0.405184
vt 0.83394 0.406023
vt 0.832948 0.408121
vt 0.83394 0.406023
vt 0.833939 0.405184
vt 0.843437 0.436768
vt 0.848168 0.436768
vt 0.844429 0.435891
vt 0.837678 0.434708
vt 0.834893 0.431733
vt 0.837411 0.435929
vt 0.837678 0.434708
vt 0.834779 0.429826
vt 0.834893 0.431733
vt 0.830453 0.40416
vt 0.829965 0.404831
vt 0.831073 0.405081
vt 0.84134 0.429826
vt 0.8405 0.429826
vt 0.840386 0.431695
vt 0.831461 0.40416
vt 0.831439 0.402872
vt 0.830479 0.403182
vt 0.830453 0.40416
vt 0 1
vt 0 1
vt 0 1
vt 0 1
vt 0 1
vt 0 1
vt 0 1
vt 0 1
vt 0 1
vt 0 1
s off
f 1/1/1 2/2/2 3/3/3
f 4/4/4 5/5/5 6/6/6
f 7/7/7 8/8/8 9/9/9
f 10/10/10 11/11/11 12/12/12
f 13/13/13 14/14/14 15/15/15
f 16/16/16 17/17/17 18/18/18
f 19/19/19 20/20/20 21/21/21
f 22/22/22 23/23/23 24/24/24
f 25/25/25 26/26/26 27/27/27
f 28/28/28 29/29/29 30/30/30
f 31/31/31 32/32/32 33/33/33
f 34/34/34 35/35/35 36/36/36
f 37/37/37 38/38/38 39/39/39
f 40/40/40 41/41/41 42/42/42
f 43/43/43 44/44/44 45/45/45
f 46/46/46 47/47/47 48/48/48
f 49/49/49 50/50/50 51/51/51
f 52/52/52 53/53/53 54/54/54
f 55/55/55 56/56/56 57/57/57
f 58/58/58 59/59/59 60/60/60
f 61/61/61 62/62/62 63/63/63
f 64/64/64 65/65/65 66/66/66
f 67/67/67 68/68/68 69/69/69
f 70/70/70 71/71/71 72/72/72
f 73/73/73 74/74/74 75/75/75
f 76/76/76 77/77/77 78/78/78
f 79/79/79 80/80/80 81/81/81
f 82/82/82 83/83/83 84/84/84
f 85/85/85 86/86/86 87/87/87
f 88/88/88 89/89/89 90/90/90
f 91/91/91 92/92/92 93/93/93
f 94/94/94 95/95/95 96/96/96
f 97/97/97 98/98/98 99/99/99
f 100/100/100 101/101/101 102/102/102
f 103/103/103 104/104/104 105/105/105
f 106/106/106 107/107/107 108/108/108
f 109/109/109 110/110/110 111/111/111
f 112/112/112 113/113/113 114/114/114
f 115/115/115 116/116/116 117/117/117
f 118/118/118 119/119/119 120/120/120
f 121/121/121 122/122/122 123/123/123
f 124/124/124 125/125/125 126/126/126
f 127/127/127 128/128/128 129/129/129
f 130/130/130 131/131/131 132/132/132
f 133/133/133 134/134/134 135/135/135
f 136/136/136 137/137/137 138/138/138
f 139/139/139 140/140/140 141/141/141
f 142/142/142 143/143/143 144/144/144
f 145/145/145 146/146/146 147/147/147
f 148/148/148 149/149/149 150/150/150
f 151/151/151 152/152/152 153/153/153
f 154/154/154 155/155/155 156/156/156
f 157/157/157 158/158/158 159/159/159
f 160/160/160 161/161/161 162/162/162
f 163/163/163 164/164/164 165/165/165
f 166/166/166 167/167/167 168/168/168
f 169/169/169 170/170/170 171/171/171
f 172/172/172 173/173/173 174/174/174
f 175/175/175 176/176/176 177/177/177
f 178/178/178 179/179/179 180/180/180
f 181/181/181 182/182/182 183/183/183
f 184/184/184 185/185/185 186/186/186
f 187/187/187 188/188/188 189/189/189
f 190/190/190 191/191/191 192/192/192
f 193/193/193 194/194/194 195/195/195
f 196/196/196 197/197/197 198/198/198
f 199/199/199 200/200/200 201/201/201
f 202/202/202 203/203/203 204/204/204
f 205/205/205 206/206/206 207/207/207
f 208/208/208 209/209/209 210/210/210
f 208/208/208 210/210/210 211/211/211
f 212/212/212 213/213/213 214/214/214
f 215/215/215 216/216/216 217/217/217
f 218/218/218 219/219/219 220/220/220
f 221/221/221 222/222/222 223/223/223
f 224/224/224 225/225/225 226/226/226
f 227/227/227 228/228/228 229/229/229
f 230/230/230 231/231/231 232/232/232
f 233/233/233 234/234/234 235/235/235
f 236/236/236 237/237/237 238/238/238
f 239/239/239 240/240/240 241/241/241
f 242/242/242 243/243/243 244/244/244
f 245/245/245 246/246/246 247/247/247
f 248/248/248 249/249/249 250/250/250
f 251/251/251 252/252/252 253/253/253
f 254/254/254 255/255/255 256/256/256
f 257/257/257 258/258/258 259/259/259
f 260/260/260 261/261/261 262/262/262
f 263/263/263 264/264/264 265/265/265
f 263/263/263 265/265/265 266/266/266
f 267/267/267 268/268/268 269/269/269
f 270/270/270 271/271/271 272/272/272
f 273/273/273 274/274/274 275/275/275
f 276/276/276 277/277/277 278/278/278
f 279/279/279 280/280/280 281/281/281
f 282/282/282 283/283/283 284/284/284
f 282/282/282 284/284/284 285/285/285
f 286/286/286 287/287/287 288/288/288
f 289/289/289 290/290/290 291/291/291
f 292/292/292 293/293/293 294/294/294
f 295/295/295 296/296/296 297/297/297
f 298/298/298 299/299/299 300/300/300
f 301/301/301 302/302/302 303/303/303
f 304/304/304 305/305/305 306/306/306
f 304/304/304 306/306/306 307/307/307
f 308/308/308 309/309/309 310/310/310
f 311/311/311 312/312/312 313/313/313
f 314/314/314 315/315/315 316/316/316
f 317/317/317 318/318/318 319/319/319
f 320/320/320 321/321/321 322/322/322
f 323/323/323 324/324/324 325/325/325
f 326/326/326 327/327/327 328/328/328
f 329/329/329 330/330/330 331/331/331
f 332/332/332 333/333/333 334/334/334
f 335/335/335 336/336/336 337/337/337
f 338/338/338 339/339/339 340/340/340
f 338/338/338 340/340/340 341/341/341
f 342/342/342 343/343/343 344/344/344
f 345/345/345 346/346/346 347/347/347
f 348/348/348 349/349/349 350/350/350
f 351/351/351 352/352/352 353/353/353
f 354/354/354 355/355/355 356/356/356
f 357/357/357 358/358/358 359/359/359
f 360/360/360 361/361/361 362/362/362
f 363/363/363 364/364/364 365/365/365
f 363/363/363 365/365/365 366/366/366
f 367/367/367 368/368/368 369/369/369
f 370/370/370 371/371/371 372/372/372
f 373/373/373 374/374/374 375/375/375
