v -0.789646 0.179497 -0.073099
v -0.786823 0.179372 -0.075766
v -0.789753 0.179676 -0.076512
v -0.789753 0.179676 -0.076512
v -0.793105 0.180104 -0.078992
v -0.793433 0.179942 -0.074809
v -0.789753 0.179676 -0.076512
v -0.793433 0.179942 -0.074809
v -0.789646 0.179497 -0.073099
v -0.786823 0.179372 -0.075766
v -0.789646 0.179497 -0.073099
v -0.786622 0.179195 -0.072566
v -0.782095 0.178598 -0.06884
v -0.782222 0.178813 -0.07294
v -0.786622 0.179195 -0.072566
v -0.786622 0.179195 -0.072566
v -0.783405 0.179066 -0.075882
v -0.786823 0.179372 -0.075766
v -0.786622 0.179195 -0.072566
v -0.782222 0.178813 -0.07294
v -0.783405 0.179066 -0.075882
v -0.782222 0.178813 -0.07294
v -0.77984 0.178945 -0.077462
v -0.783405 0.179066 -0.075882
v -0.77984 0.178945 -0.077462
v -0.782222 0.178813 -0.07294
v -0.777924 0.178747 -0.074764
v -0.780136 0.17865 -0.071306
v -0.782222 0.178813 -0.07294
v -0.782095 0.178598 -0.06884
v -0.777924 0.178747 -0.074764
v -0.774376 0.178834 -0.078443
v -0.77984 0.178945 -0.077462
v -0.776203 0.179122 -0.083117
v -0.774376 0.178834 -0.078443
v -0.772881 0.178992 -0.082304
v -0.77984 0.178945 -0.077462
v -0.774376 0.178834 -0.078443
v -0.777523 0.178997 -0.080001
v -0.776203 0.179122 -0.083117
v -0.777523 0.178997 -0.080001
v -0.774376 0.178834 -0.078443
v -0.776203 0.179122 -0.083117
v -0.772614 0.179168 -0.085872
v -0.776145 0.179305 -0.086736
v -0.776203 0.179122 -0.083117
v -0.772881 0.178992 -0.082304
v -0.772614 0.179168 -0.085872
v -0.773231 0.179365 -0.089403
v -0.776145 0.179305 -0.086736
v -0.772614 0.179168 -0.085872
v -0.773231 0.179365 -0.089403
v -0.774808 0.179567 -0.092521
v -0.776931 0.179465 -0.089451
v -0.776145 0.179305 -0.086736
v -0.773231 0.179365 -0.089403
v -0.776931 0.179465 -0.089451
v -0.778902 0.179654 -0.092113
v -0.776931 0.179465 -0.089451
v -0.774808 0.179567 -0.092521
v -0.781404 0.179807 -0.093805
v -0.778902 0.179654 -0.092113
v -0.777845 0.179802 -0.095553
v -0.778902 0.179654 -0.092113
v -0.774808 0.179567 -0.092521
v -0.777845 0.179802 -0.095553
v -0.777845 0.179802 -0.095553
v -0.782623 0.180122 -0.097552
v -0.781404 0.179807 -0.093805
v -0.785799 0.180219 -0.094742
v -0.782623 0.180122 -0.097552
v -0.788451 0.180637 -0.097601
v -0.781404 0.179807 -0.093805
v -0.782623 0.180122 -0.097552
v -0.785799 0.180219 -0.094742
v -0.785799 0.180219 -0.094742
v -0.788451 0.180637 -0.097601
v -0.790661 0.180598 -0.09345
v -0.790661 0.180598 -0.09345
v -0.793354 0.180949 -0.095597
v -0.793338 0.180725 -0.091101
v -0.793354 0.180949 -0.095597
v -0.790661 0.180598 -0.09345
v -0.788451 0.180637 -0.097601
v -0.796783 0.181087 -0.092078
v -0.793338 0.180725 -0.091101
v -0.793354 0.180949 -0.095597
v -0.796783 0.181087 -0.092078
v -0.798595 0.181142 -0.087451
v -0.794923 0.180718 -0.088037
v -0.793338 0.180725 -0.091101
v -0.796783 0.181087 -0.092078
v -0.794923 0.180718 -0.088037
v -0.798595 0.181142 -0.087451
v -0.795117 0.180505 -0.083267
v -0.794923 0.180718 -0.088037
v -0.793105 0.180104 -0.078992
v -0.795117 0.180505 -0.083267
v -0.798469 0.180886 -0.082053
v -0.795117 0.180505 -0.083267
v -0.798595 0.181142 -0.087451
v -0.798469 0.180886 -0.082053
v -0.793105 0.180104 -0.078992
v -0.798469 0.180886 -0.082053
v -0.79647 0.180431 -0.077841
v -0.793105 0.180104 -0.078992
v -0.79647 0.180431 -0.077841
v -0.793433 0.179942 -0.074809
v -0.780136 0.17865 -0.071306
v -0.778999 0.178435 -0.067745
v -0.777579 0.178523 -0.070479
v -0.780136 0.17865 -0.071306
v -0.782095 0.178598 -0.06884
v -0.778999 0.178435 -0.067745
v -0.777579 0.178523 -0.070479
v -0.778999 0.178435 -0.067745
v -0.775987 0.178339 -0.067833
v -0.773083 0.178314 -0.06897
v -0.774283 0.178472 -0.071437
v -0.777579 0.178523 -0.070479
v -0.775987 0.178339 -0.067833
v -0.771306 0.178353 -0.070652
v -0.774283 0.178472 -0.071437
v -0.773083 0.178314 -0.06897
v -0.772946 0.178501 -0.072683
v -0.774283 0.178472 -0.071437
v -0.771306 0.178353 -0.070652
vn 0.0906 0.9947 0.0493
vn 0.0906 0.9947 0.0493
vn 0.0906 0.9947 0.0493
vn 0.0932 0.9946 0.0457
vn 0.0932 0.9946 0.0457
vn 0.0932 0.9946 0.0457
vn 0.0948 0.9943 0.0491
vn 0.0948 0.9943 0.0491
vn 0.0948 0.9943 0.0491
vn 0.0906 0.9947 0.0493
vn 0.0906 0.9947 0.0493
vn 0.0906 0.9947 0.0493
vn 0.0906 0.9947 0.0493
vn 0.0906 0.9947 0.0493
vn 0.0906 0.9947 0.0493
vn 0.0906 0.9947 0.0493
vn 0.0906 0.9947 0.0493
vn 0.0906 0.9947 0.0493
vn 0.0906 0.9947 0.0493
vn 0.0906 0.9947 0.0493
vn 0.0906 0.9947 0.0493
vn 0.0612 0.9962 0.0613
vn 0.0612 0.9962 0.0613
vn 0.0612 0.9962 0.0613
vn 0.0356 0.9982 0.0478
vn 0.0356 0.9982 0.0478
vn 0.0356 0.9982 0.0478
vn 0.038 0.998 0.0511
vn 0.038 0.998 0.0511
vn 0.038 0.998 0.0511
vn 0.0296 0.9982 0.0521
vn 0.0296 0.9982 0.0521
vn 0.0296 0.9982 0.0521
vn 0.0264 0.9983 0.0512
vn 0.0264 0.9983 0.0512
vn 0.0264 0.9983 0.0512
vn 0.0286 0.9985 0.0466
vn 0.0286 0.9985 0.0466
vn 0.0286 0.9985 0.0466
vn 0.0264 0.9983 0.0512
vn 0.0264 0.9983 0.0512
vn 0.0264 0.9983 0.0512
vn 0.0264 0.9983 0.0511
vn 0.0264 0.9983 0.0511
vn 0.0264 0.9983 0.0511
vn 0.0264 0.9983 0.0512
vn 0.0264 0.9983 0.0512
vn 0.0264 0.9983 0.0512
vn 0.0264 0.9983 0.0511
vn 0.0264 0.9983 0.0511
vn 0.0264 0.9983 0.0511
vn 0.0264 0.9983 0.0512
vn 0.0264 0.9983 0.0512
vn 0.0264 0.9983 0.0512
vn 0.0264 0.9983 0.0512
vn 0.0264 0.9983 0.0512
vn 0.0264 0.9983 0.0512
vn 0.0264 0.9983 0.0512
vn 0.0264 0.9983 0.0512
vn 0.0264 0.9983 0.0512
vn 0.0264 0.9983 0.0512
vn 0.0264 0.9983 0.0512
vn 0.0264 0.9983 0.0512
vn 0.0264 0.9983 0.0512
vn 0.0264 0.9983 0.0512
vn 0.0264 0.9983 0.0512
vn 0.0366 0.9967 0.072
vn 0.0366 0.9967 0.072
vn 0.0366 0.9967 0.072
vn 0.0873 0.9941 0.0645
vn 0.0873 0.9941 0.0645
vn 0.0873 0.9941 0.0645
vn 0.0811 0.9951 0.0574
vn 0.0811 0.9951 0.0574
vn 0.0811 0.9951 0.0574
vn 0.0931 0.9939 0.0591
vn 0.0931 0.9939 0.0591
vn 0.0931 0.9939 0.0591
vn 0.0906 0.9947 0.0493
vn 0.0906 0.9947 0.0493
vn 0.0906 0.9947 0.0493
vn 0.0859 0.9948 0.0552
vn 0.0859 0.9948 0.0552
vn 0.0859 0.9948 0.0552
vn 0.0906 0.9947 0.0493
vn 0.0906 0.9947 0.0493
vn 0.0906 0.9947 0.0493
vn 0.1203 0.9921 0.0354
vn 0.1203 0.9921 0.0354
vn 0.1203 0.9921 0.0354
vn 0.0906 0.9947 0.0493
vn 0.0906 0.9947 0.0493
vn 0.0906 0.9947 0.0493
vn 0.1224 0.9913 0.0493
vn 0.1224 0.9913 0.0493
vn 0.1224 0.9913 0.0493
vn 0.1251 0.9916 0.0341
vn 0.1251 0.9916 0.0341
vn 0.1251 0.9916 0.0341
vn 0.1286 0.9907 0.044
vn 0.1286 0.9907 0.044
vn 0.1286 0.9907 0.044
vn 0.1146 0.992 0.0526
vn 0.1146 0.992 0.0526
vn 0.1146 0.992 0.0526
vn 0.1127 0.9925 0.0471
vn 0.1127 0.9925 0.0471
vn 0.1127 0.9925 0.0471
vn 0.0334 0.9982 0.0494
vn 0.0334 0.9982 0.0494
vn 0.0334 0.9982 0.0494
vn 0.0352 0.9982 0.0489
vn 0.0352 0.9982 0.0489
vn 0.0352 0.9982 0.0489
vn 0.0334 0.9982 0.0494
vn 0.0334 0.9982 0.0494
vn 0.0334 0.9982 0.0494
vn 0.0293 0.9983 0.0508
vn 0.0293 0.9983 0.0508
vn 0.0293 0.9983 0.0508
vn 0.0293 0.9983 0.0508
vn 0.0264 0.9983 0.0511
vn 0.0264 0.9983 0.0511
vn 0.0264 0.9983 0.0511
vn 0.0264 0.9983 0.0511
vn 0.0264 0.9983 0.0511
vn 0.0264 0.9983 0.0511
vt 0.116596 0.540395
vt 0.117974 0.539093
vt 0.116544 0.538729
vt 0.116544 0.538729
vt 0.114907 0.537517
vt 0.114746 0.53956
vt 0.116544 0.538729
vt 0.114746 0.53956
vt 0.116596 0.540395
vt 0.117974 0.539093
vt 0.116596 0.540395
vt 0.118072 0.540656
vt 0.120283 0.542475
vt 0.120221 0.540473
vt 0.118072 0.540656
vt 0.118072 0.540656
vt 0.119643 0.539036
vt 0.117974 0.539093
vt 0.118072 0.540656
vt 0.120221 0.540473
vt 0.119643 0.539036
vt 0.120221 0.540473
vt 0.121384 0.538265
vt 0.119643 0.539036
vt 0.121384 0.538265
vt 0.120221 0.540473
vt 0.12232 0.539582
vt 0.12124 0.541271
vt 0.120221 0.540473
vt 0.120283 0.542475
vt 0.12232 0.539582
vt 0.124053 0.537786
vt 0.121384 0.538265
vt 0.12316 0.535503
vt 0.124053 0.537786
vt 0.124783 0.5359
vt 0.121384 0.538265
vt 0.124053 0.537786
vt 0.122516 0.537025
vt 0.12316 0.535503
vt 0.122516 0.537025
vt 0.124053 0.537786
vt 0.12316 0.535503
vt 0.124913 0.534158
vt 0.123189 0.533736
vt 0.12316 0.535503
vt 0.124783 0.5359
vt 0.124913 0.534158
vt 0.124612 0.532433
vt 0.123189 0.533736
vt 0.124913 0.534158
vt 0.124612 0.532433
vt 0.123842 0.53091
vt 0.122805 0.53241
vt 0.123189 0.533736
vt 0.124612 0.532433
vt 0.122805 0.53241
vt 0.121842 0.53111
vt 0.122805 0.53241
vt 0.123842 0.53091
vt 0.120621 0.530284
vt 0.121842 0.53111
vt 0.122359 0.52943
vt 0.121842 0.53111
vt 0.123842 0.53091
vt 0.122359 0.52943
vt 0.122359 0.52943
vt 0.120026 0.528454
vt 0.120621 0.530284
vt 0.118475 0.529826
vt 0.120026 0.528454
vt 0.117179 0.52843
vt 0.120621 0.530284
vt 0.120026 0.528454
vt 0.118475 0.529826
vt 0.118475 0.529826
vt 0.117179 0.52843
vt 0.1161 0.530457
vt 0.1161 0.530457
vt 0.114785 0.529408
vt 0.114793 0.531604
vt 0.114785 0.529408
vt 0.1161 0.530457
vt 0.117179 0.52843
vt 0.11311 0.531127
vt 0.114793 0.531604
vt 0.114785 0.529408
vt 0.11311 0.531127
vt 0.112226 0.533387
vt 0.114019 0.533101
vt 0.114793 0.531604
vt 0.11311 0.531127
vt 0.114019 0.533101
vt 0.112226 0.533387
vt 0.113924 0.53543
vt 0.114019 0.533101
vt 0.114907 0.537517
vt 0.113924 0.53543
vt 0.112287 0.536023
vt 0.113924 0.53543
vt 0.112226 0.533387
vt 0.112287 0.536023
vt 0.114907 0.537517
vt 0.112287 0.536023
vt 0.113263 0.53808
vt 0.114907 0.537517
vt 0.113263 0.53808
vt 0.114746 0.53956
vt 0.12124 0.541271
vt 0.121795 0.54301
vt 0.122489 0.541675
vt 0.12124 0.541271
vt 0.120283 0.542475
vt 0.121795 0.54301
vt 0.122489 0.541675
vt 0.121795 0.54301
vt 0.123266 0.542967
vt 0.124684 0.542412
vt 0.124098 0.541207
vt 0.122489 0.541675
vt 0.123266 0.542967
vt 0.125552 0.54159
vt 0.124098 0.541207
vt 0.124684 0.542412
vt 0.124751 0.540598
vt 0.124098 0.541207
vt 0.125552 0.54159
s off
f 1/1/1 2/2/2 3/3/3
f 4/4/4 5/5/5 6/6/6
f 7/7/7 8/8/8 9/9/9
f 10/10/10 11/11/11 12/12/12
f 13/13/13 14/14/14 15/15/15
f 16/16/16 17/17/17 18/18/18
f 19/19/19 20/20/20 21/21/21
f 22/22/22 23/23/23 24/24/24
f 25/25/25 26/26/26 27/27/27
f 28/28/28 29/29/29 30/30/30
f 31/31/31 32/32/32 33/33/33
f 34/34/34 35/35/35 36/36/36
f 37/37/37 38/38/38 39/39/39
f 40/40/40 41/41/41 42/42/42
f 43/43/43 44/44/44 45/45/45
f 46/46/46 47/47/47 48/48/48
f 49/49/49 50/50/50 51/51/51
f 52/52/52 53/53/53 54/54/54
f 55/55/55 56/56/56 57/57/57
f 58/58/58 59/59/59 60/60/60
f 61/61/61 62/62/62 63/63/63
f 64/64/64 65/65/65 66/66/66
f 67/67/67 68/68/68 69/69/69
f 70/70/70 71/71/71 72/72/72
f 73/73/73 74/74/74 75/75/75
f 76/76/76 77/77/77 78/78/78
f 79/79/79 80/80/80 81/81/81
f 82/82/82 83/83/83 84/84/84
f 85/85/85 86/86/86 87/87/87
f 88/88/88 89/89/89 90/90/90
f 91/91/91 92/92/92 93/93/93
f 94/94/94 95/95/95 96/96/96
f 97/97/97 98/98/98 99/99/99
f 100/100/100 101/101/101 102/102/102
f 103/103/103 104/104/104 105/105/105
f 106/106/106 107/107/107 108/108/108
f 109/109/109 110/110/110 111/111/111
f 112/112/112 113/113/113 114/114/114
f 115/115/115 116/116/116 117/117/117
f 118/118/118 119/119/119 120/120/120
f 118/118/118 120/120/120 121/121/121
f 122/122/122 123/123/123 124/124/124
f 125/125/125 126/126/126 127/127/127
