v 0.516661 0.168603 0.069244
v 0.514318 0.168886 0.069244
v 0.511886 0.169131 0.07653
v 0.523613 0.168334 0.027064
v 0.52127 0.168575 0.027064
v 0.518838 0.168666 0.03435
v 0.515337 0.169055 0.032521
v 0.514318 0.169311 0.027064
v 0.511886 0.169406 0.03435
v 0.523558 0.168149 0.036149
v 0.523655 0.168163 0.033852
v 0.522371 0.168313 0.032442
v 0.512475 0.169321 0.036593
v 0.514935 0.169048 0.037372
v 0.511886 0.169406 0.03435
v 0.51666 0.168881 0.035905
v 0.511886 0.169406 0.03435
v 0.514935 0.169048 0.037372
v 0.515337 0.169055 0.032521
v 0.51678 0.168885 0.03418
v 0.51608 0.168972 0.032905
v 0.519178 0.168612 0.036164
v 0.520306 0.168483 0.037168
v 0.518838 0.168666 0.03435
v 0.520306 0.168483 0.037168
v 0.521951 0.168308 0.037259
v 0.523558 0.168149 0.036149
v 0.523558 0.168149 0.036149
v 0.518838 0.168666 0.03435
v 0.520306 0.168483 0.037168
v 0.512475 0.169046 0.078773
v 0.514935 0.168744 0.079551
v 0.511886 0.169131 0.07653
v 0.51666 0.168545 0.078085
v 0.511886 0.169131 0.07653
v 0.514935 0.168744 0.079551
v 0.515337 0.168727 0.074701
v 0.51678 0.168542 0.076359
v 0.51608 0.168635 0.075085
v 0.518838 0.168666 0.03435
v 0.523558 0.168149 0.036149
v 0.522371 0.168313 0.032442
v 0.511886 0.169406 0.03435
v 0.51666 0.168881 0.035905
v 0.51678 0.168885 0.03418
v 0.522371 0.168313 0.032442
v 0.523613 0.168334 0.027064
v 0.518838 0.168666 0.03435
v 0.511886 0.169131 0.07653
v 0.51666 0.168545 0.078085
v 0.51678 0.168542 0.076359
v 0.515337 0.168727 0.074701
v 0.516661 0.168603 0.069244
v 0.511886 0.169131 0.07653
v 0.511886 0.169131 0.07653
v 0.51678 0.168542 0.076359
v 0.515337 0.168727 0.074701
v 0.515337 0.169055 0.032521
v 0.516661 0.169062 0.027064
v 0.514318 0.169311 0.027064
v 0.511886 0.169406 0.03435
v 0.51678 0.168885 0.03418
v 0.515337 0.169055 0.032521
vn 0.1197 0.9928 0.0065
vn 0.1197 0.9928 0.0065
vn 0.1197 0.9928 0.0065
vn 0.1024 0.9945 0.0217
vn 0.1024 0.9945 0.0217
vn 0.1024 0.9945 0.0217
vn 0.1145 0.9931 0.0252
vn 0.1145 0.9931 0.0252
vn 0.1145 0.9931 0.0252
vn 0.105 0.9944 0.0101
vn 0.105 0.9944 0.0101
vn 0.105 0.9944 0.0101
vn 0.1072 0.9942 0.0098
vn 0.1072 0.9942 0.0098
vn 0.1072 0.9942 0.0098
vn 0.1059 0.9943 0.0112
vn 0.1059 0.9943 0.0112
vn 0.1059 0.9943 0.0112
vn 0.1052 0.9944 0.0101
vn 0.1052 0.9944 0.0101
vn 0.1052 0.9944 0.0101
vn 0.1051 0.9944 0.0101
vn 0.1051 0.9944 0.0101
vn 0.1051 0.9944 0.0101
vn 0.1051 0.9944 0.0101
vn 0.1051 0.9944 0.0101
vn 0.1051 0.9944 0.0101
vn 0.105 0.9944 0.0101
vn 0.105 0.9944 0.0101
vn 0.105 0.9944 0.0101
vn 0.1197 0.9928 0.0065
vn 0.1197 0.9928 0.0065
vn 0.1197 0.9928 0.0065
vn 0.1197 0.9928 0.0065
vn 0.1197 0.9928 0.0065
vn 0.1197 0.9928 0.0065
vn 0.1197 0.9928 0.0066
vn 0.1197 0.9928 0.0066
vn 0.1197 0.9928 0.0066
vn 0.105 0.9944 0.0101
vn 0.105 0.9944 0.0101
vn 0.105 0.9944 0.0101
vn 0.1062 0.9943 0.0102
vn 0.1062 0.9943 0.0102
vn 0.1062 0.9943 0.0102
vn 0.116 0.9928 0.0307
vn 0.116 0.9928 0.0307
vn 0.116 0.9928 0.0307
vn 0.1197 0.9928 0.0065
vn 0.1197 0.9928 0.0065
vn 0.1197 0.9928 0.0065
vn 0.1197 0.9928 0.0065
vn 0.1197 0.9928 0.0065
vn 0.1197 0.9928 0.0065
vn 0.1197 0.9928 0.0065
vn 0.1197 0.9928 0.0065
vn 0.1197 0.9928 0.0065
vn 0.1054 0.9941 0.0269
vn 0.1054 0.9941 0.0269
vn 0.1054 0.9941 0.0269
vn 0.1062 0.9943 0.0092
vn 0.1062 0.9943 0.0092
vn 0.1062 0.9943 0.0092
vt 0.754522 0.609907
vt 0.753378 0.609907
vt 0.75219 0.613465
vt 0.757917 0.589309
vt 0.756773 0.589309
vt 0.755585 0.592867
vt 0.753875 0.591974
vt 0.753378 0.589309
vt 0.75219 0.592867
vt 0.75789 0.593746
vt 0.757938 0.592624
vt 0.75731 0.591935
vt 0.752478 0.593963
vt 0.753679 0.594343
vt 0.75219 0.592867
vt 0.754521 0.593627
vt 0.75219 0.592867
vt 0.753679 0.594343
vt 0.753875 0.591974
vt 0.75458 0.592784
vt 0.754238 0.592162
vt 0.755751 0.593753
vt 0.756302 0.594243
vt 0.755585 0.592867
vt 0.756302 0.594243
vt 0.757105 0.594288
vt 0.75789 0.593746
vt 0.75789 0.593746
vt 0.755585 0.592867
vt 0.756302 0.594243
vt 0.752478 0.614561
vt 0.753679 0.614941
vt 0.75219 0.613465
vt 0.754521 0.614225
vt 0.75219 0.613465
vt 0.753679 0.614941
vt 0.753875 0.612572
vt 0.75458 0.613382
vt 0.754238 0.61276
vt 0.755585 0.592867
vt 0.75789 0.593746
vt 0.75731 0.591935
vt 0.75219 0.592867
vt 0.754521 0.593627
vt 0.75458 0.592784
vt 0.75731 0.591935
vt 0.757917 0.589309
vt 0.755585 0.592867
vt 0.75219 0.613465
vt 0.754521 0.614225
vt 0.75458 0.613382
vt 0.753875 0.612572
vt 0.754522 0.609907
vt 0.75219 0.613465
vt 0.75219 0.613465
vt 0.75458 0.613382
vt 0.753875 0.612572
vt 0.753875 0.591974
vt 0.754522 0.589309
vt 0.753378 0.589309
vt 0.75219 0.592867
vt 0.75458 0.592784
vt 0.753875 0.591974
s off
f 1/1/1 2/2/2 3/3/3
f 4/4/4 5/5/5 6/6/6
f 7/7/7 8/8/8 9/9/9
f 10/10/10 11/11/11 12/12/12
f 13/13/13 14/14/14 15/15/15
f 16/16/16 17/17/17 18/18/18
f 19/19/19 20/20/20 21/21/21
f 22/22/22 23/23/23 24/24/24
f 25/25/25 26/26/26 27/27/27
f 28/28/28 29/29/29 30/30/30
f 31/31/31 32/32/32 33/33/33
f 34/34/34 35/35/35 36/36/36
f 37/37/37 38/38/38 39/39/39
f 40/40/40 41/41/41 42/42/42
f 43/43/43 44/44/44 45/45/45
f 46/46/46 47/47/47 48/48/48
f 49/49/49 50/50/50 51/51/51
f 52/52/52 53/53/53 54/54/54
f 55/55/55 56/56/56 57/57/57
f 58/58/58 59/59/59 60/60/60
f 61/61/61 62/62/62 63/63/63
