v -0.402042 0.179582 -0.08342
v -0.409809 0.180288 -0.083384
v -0.409809 0.180145 -0.080494
v -0.409809 0.180837 -0.094476
v -0.413324 0.180197 -0.072996
v -0.409809 0.180288 -0.083384
v -0.409809 0.180288 -0.083384
v -0.413324 0.180197 -0.072996
v -0.409809 0.180145 -0.080494
v -0.413324 0.180197 -0.072996
v -0.409809 0.179782 -0.072996
v -0.409809 0.180145 -0.080494
v -0.402042 0.179582 -0.08342
v -0.409809 0.180145 -0.080494
v -0.40213 0.179447 -0.080533
v -0.39883 0.179195 -0.081229
v -0.40213 0.179447 -0.080533
v -0.396843 0.178721 -0.072996
v -0.39883 0.179195 -0.081229
v -0.402042 0.179582 -0.08342
v -0.40213 0.179447 -0.080533
v -0.398745 0.179372 -0.084847
v -0.39883 0.179195 -0.081229
v -0.396048 0.17918 -0.082798
v -0.39883 0.179195 -0.081229
v -0.396843 0.178721 -0.072996
v -0.393016 0.178596 -0.072996
v -0.402042 0.179582 -0.08342
v -0.39883 0.179195 -0.081229
v -0.398745 0.179372 -0.084847
v -0.397172 0.179449 -0.087485
v -0.398745 0.179372 -0.084847
v -0.394455 0.17924 -0.084824
v -0.398745 0.179372 -0.084847
v -0.396048 0.17918 -0.082798
v -0.394455 0.17924 -0.084824
v -0.393553 0.179352 -0.087475
v -0.397172 0.179449 -0.087485
v -0.394455 0.17924 -0.084824
v -0.393647 0.179545 -0.091187
v -0.397414 0.17966 -0.091491
v -0.397172 0.179449 -0.087485
v -0.393553 0.179352 -0.087475
v -0.397414 0.17966 -0.091491
v -0.393647 0.179545 -0.091187
v -0.395065 0.179735 -0.09417
v -0.398048 0.179974 -0.09657
v -0.399391 0.179842 -0.09353
v -0.397414 0.17966 -0.091491
v -0.395065 0.179735 -0.09417
v -0.402125 0.180136 -0.094453
v -0.399391 0.179842 -0.09353
v -0.398048 0.179974 -0.09657
v -0.402125 0.180136 -0.094453
v -0.398048 0.179974 -0.09657
v -0.402018 0.180318 -0.097572
v -0.413324 0.181349 -0.097601
v -0.402125 0.180136 -0.094453
v -0.402018 0.180318 -0.097572
v -0.409809 0.180837 -0.094476
v -0.413324 0.181349 -0.097601
v -0.413324 0.180197 -0.072996
v -0.413324 0.181349 -0.097601
v -0.409809 0.180837 -0.094476
v -0.402125 0.180136 -0.094453
v -0.393016 0.178596 -0.072996
v -0.393016 0.178596 -0.072996
vn 0.0906 0.9947 0.0493
vn 0.0906 0.9947 0.0493
vn 0.0906 0.9947 0.0493
vn 0.1197 0.9916 0.0491
vn 0.1197 0.9916 0.0491
vn 0.1197 0.9916 0.0491
vn 0.1197 0.9916 0.0491
vn 0.1197 0.9916 0.0491
vn 0.1197 0.9916 0.0491
vn 0.1172 0.992 0.048
vn 0.1172 0.992 0.048
vn 0.1172 0.992 0.048
vn 0.0906 0.9947 0.0493
vn 0.0906 0.9947 0.0493
vn 0.0906 0.9947 0.0493
vn 0.0838 0.9958 0.0371
vn 0.0838 0.9958 0.0371
vn 0.0838 0.9958 0.0371
vn 0.0863 0.9951 0.0492
vn 0.0863 0.9951 0.0492
vn 0.0863 0.9951 0.0492
vn 0.0335 0.9982 0.0494
vn 0.0335 0.9982 0.0494
vn 0.0335 0.9982 0.0494
vn 0.0326 0.9982 0.0496
vn 0.0326 0.9982 0.0496
vn 0.0326 0.9982 0.0496
vn 0.0854 0.9951 0.0505
vn 0.0854 0.9951 0.0505
vn 0.0854 0.9951 0.0505
vn 0.0303 0.9984 0.0476
vn 0.0303 0.9984 0.0476
vn 0.0303 0.9984 0.0476
vn 0.0303 0.9981 0.0536
vn 0.0303 0.9981 0.0536
vn 0.0303 0.9981 0.0536
vn 0.0267 0.9983 0.0513
vn 0.0267 0.9983 0.0513
vn 0.0267 0.9983 0.0513
vn 0.0266 0.9983 0.051
vn 0.0266 0.9983 0.051
vn 0.0266 0.9983 0.051
vn 0.0266 0.9983 0.051
vn 0.0264 0.9983 0.0512
vn 0.0264 0.9983 0.0512
vn 0.0264 0.9983 0.0512
vn 0.033 0.9978 0.0575
vn 0.033 0.9978 0.0575
vn 0.033 0.9978 0.0575
vn 0.033 0.9978 0.0575
vn 0.0805 0.9936 0.0787
vn 0.0805 0.9936 0.0787
vn 0.0805 0.9936 0.0787
vn 0.071 0.9957 0.0603
vn 0.071 0.9957 0.0603
vn 0.071 0.9957 0.0603
vn 0.0905 0.994 0.0608
vn 0.0905 0.994 0.0608
vn 0.0905 0.994 0.0608
vn 0.1033 0.9936 0.0465
vn 0.1033 0.9936 0.0465
vn 0.1033 0.9936 0.0465
vn 0.0905 0.994 0.061
vn 0.0905 0.994 0.061
vn 0.0905 0.994 0.061
vn 0 0 0
vn 0 0 0
vt 0.305879 0.535355
vt 0.302086 0.535372
vt 0.302086 0.536784
vt 0.302086 0.529956
vt 0.30037 0.540446
vt 0.302086 0.535372
vt 0.302086 0.535372
vt 0.30037 0.540446
vt 0.302086 0.536784
vt 0.30037 0.540446
vt 0.302086 0.540446
vt 0.302086 0.536784
vt 0.305879 0.535355
vt 0.302086 0.536784
vt 0.305836 0.536765
vt 0.307448 0.536425
vt 0.305836 0.536765
vt 0.308418 0.540446
vt 0.307448 0.536425
vt 0.305879 0.535355
vt 0.305836 0.536765
vt 0.30749 0.534658
vt 0.307448 0.536425
vt 0.308807 0.535659
vt 0.307448 0.536425
vt 0.308418 0.540446
vt 0.310287 0.540446
vt 0.305879 0.535355
vt 0.307448 0.536425
vt 0.30749 0.534658
vt 0.308258 0.53337
vt 0.30749 0.534658
vt 0.309585 0.53467
vt 0.30749 0.534658
vt 0.308807 0.535659
vt 0.309585 0.53467
vt 0.310025 0.533375
vt 0.308258 0.53337
vt 0.309585 0.53467
vt 0.309979 0.531562
vt 0.308139 0.531414
vt 0.308258 0.53337
vt 0.310025 0.533375
vt 0.308139 0.531414
vt 0.309979 0.531562
vt 0.309287 0.530105
vt 0.30783 0.528933
vt 0.307174 0.530418
vt 0.308139 0.531414
vt 0.309287 0.530105
vt 0.305839 0.529967
vt 0.307174 0.530418
vt 0.30783 0.528933
vt 0.305839 0.529967
vt 0.30783 0.528933
vt 0.305891 0.528444
vt 0.30037 0.52843
vt 0.305839 0.529967
vt 0.305891 0.528444
vt 0.302086 0.529956
vt 0.30037 0.52843
vt 0.30037 0.540446
vt 0.30037 0.52843
vt 0.302086 0.529956
vt 0.305839 0.529967
vt 0 1
vt 0 1
s off
f 1/1/1 2/2/2 3/3/3
f 4/4/4 5/5/5 6/6/6
f 7/7/7 8/8/8 9/9/9
f 10/10/10 11/11/11 12/12/12
f 13/13/13 14/14/14 15/15/15
f 16/16/16 17/17/17 18/18/18
f 19/19/19 20/20/20 21/21/21
f 22/22/22 23/23/23 24/24/24
f 25/25/25 26/26/26 27/27/27
f 28/28/28 29/29/29 30/30/30
f 31/31/31 32/32/32 33/33/33
f 34/34/34 35/35/35 36/36/36
f 37/37/37 38/38/38 39/39/39
f 40/40/40 41/41/41 42/42/42
f 40/40/40 42/42/42 43/43/43
f 44/44/44 45/45/45 46/46/46
f 47/47/47 48/48/48 49/49/49
f 47/47/47 49/49/49 50/50/50
f 51/51/51 52/52/52 53/53/53
f 54/54/54 55/55/55 56/56/56
f 57/57/57 58/58/58 59/59/59
f 60/60/60 61/61/61 62/62/62
f 63/63/63 64/64/64 65/65/65
