v -0.629372 0.168397 0.054975
v -0.623406 0.167766 0.055056
v -0.623255 0.167781 0.051967
v -0.628215 0.168305 0.052035
v -0.628215 0.168305 0.052035
v -0.631781 0.168693 0.050865
v -0.629372 0.168397 0.054975
v -0.631781 0.168693 0.050865
v -0.635545 0.169128 0.052243
v -0.629372 0.168397 0.054975
v -0.623406 0.167766 0.055056
v -0.619166 0.167495 0.053579
v -0.623255 0.167781 0.051967
v -0.620331 0.167567 0.05042
v -0.619166 0.167495 0.053579
v -0.616658 0.167444 0.050132
v -0.619166 0.167495 0.053579
v -0.620331 0.167567 0.05042
v -0.623255 0.167781 0.051967
v -0.619852 0.167577 0.047817
v -0.620331 0.167567 0.05042
v -0.616658 0.167444 0.050132
v -0.618395 0.167569 0.04376
v -0.62119 0.167642 0.045919
v -0.619852 0.167577 0.047817
v -0.616675 0.167488 0.046189
v -0.616658 0.167444 0.050132
v -0.616675 0.167488 0.046189
v -0.619852 0.167577 0.047817
v -0.62119 0.167642 0.045919
v -0.618395 0.167569 0.04376
v -0.621364 0.167686 0.042244
v -0.624439 0.167981 0.04463
v -0.621364 0.167686 0.042244
v -0.627552 0.168351 0.040583
v -0.624439 0.167981 0.04463
v -0.62119 0.167642 0.045919
v -0.621364 0.167686 0.042244
v -0.627552 0.168351 0.040583
v -0.628342 0.168403 0.04366
v -0.624439 0.167981 0.04463
v -0.631968 0.168801 0.04219
v -0.628342 0.168403 0.04366
v -0.627552 0.168351 0.040583
v -0.627552 0.168351 0.040583
v -0.630703 0.1687 0.038946
v -0.631968 0.168801 0.04219
v -0.630703 0.1687 0.038946
v -0.634402 0.169084 0.039646
v -0.631968 0.168801 0.04219
v -0.631361 0.168791 0.036883
v -0.634638 0.169147 0.035943
v -0.634402 0.169084 0.039646
v -0.630703 0.1687 0.038946
v -0.631361 0.168791 0.036883
v -0.634402 0.169084 0.039646
v -0.631361 0.168791 0.036883
v -0.630865 0.168757 0.03509
v -0.634638 0.169147 0.035943
v -0.630865 0.168757 0.03509
v -0.628847 0.16856 0.033484
v -0.632023 0.168913 0.031755
v -0.634638 0.169147 0.035943
v -0.630865 0.168757 0.03509
v -0.633788 0.16908 0.033648
v -0.630865 0.168757 0.03509
v -0.632023 0.168913 0.031755
v -0.633788 0.16908 0.033648
v -0.632023 0.168913 0.031755
v -0.628847 0.16856 0.033484
v -0.628416 0.168557 0.030201
v -0.624583 0.168115 0.032976
v -0.622151 0.167892 0.030225
v -0.628416 0.168557 0.030201
v -0.628847 0.16856 0.033484
v -0.624583 0.168115 0.032976
v -0.628416 0.168557 0.030201
v -0.621129 0.167764 0.033668
v -0.622151 0.167892 0.030225
v -0.624583 0.168115 0.032976
v -0.617318 0.167664 0.032135
v -0.621129 0.167764 0.033668
v -0.618514 0.167668 0.03501
v -0.621129 0.167764 0.033668
v -0.617318 0.167664 0.032135
v -0.622151 0.167892 0.030225
v -0.635545 0.169128 0.052243
v -0.631781 0.168693 0.050865
v -0.634154 0.168979 0.049355
vn 0.1051 0.9944 0.0101
vn 0.1051 0.9944 0.0101
vn 0.1051 0.9944 0.0101
vn 0.1051 0.9944 0.0101
vn 0.1051 0.9944 0.0101
vn 0.1051 0.9944 0.0101
vn 0.1051 0.9944 0.0101
vn 0.116 0.9932 0.0036
vn 0.116 0.9932 0.0036
vn 0.116 0.9932 0.0036
vn 0.0665 0.9978 0.0082
vn 0.0665 0.9978 0.0082
vn 0.0665 0.9978 0.0082
vn 0.0342 0.9994 0.0101
vn 0.0342 0.9994 0.0101
vn 0.0342 0.9994 0.0101
vn 0.0711 0.9975 -0.0035
vn 0.0711 0.9975 -0.0035
vn 0.0711 0.9975 -0.0035
vn 0.0342 0.9994 0.0101
vn 0.0342 0.9994 0.0101
vn 0.0342 0.9994 0.0101
vn 0.0335 0.9994 0.0099
vn 0.0335 0.9994 0.0099
vn 0.0335 0.9994 0.0099
vn 0.0335 0.9994 0.0099
vn 0.0336 0.9994 0.011
vn 0.0336 0.9994 0.011
vn 0.0336 0.9994 0.011
vn 0.0342 0.9994 0.0101
vn 0.0342 0.9994 0.0101
vn 0.0342 0.9994 0.0101
vn 0.104 0.9945 0.0109
vn 0.104 0.9945 0.0109
vn 0.104 0.9945 0.0109
vn 0.1009 0.9949 0.0069
vn 0.1009 0.9949 0.0069
vn 0.1009 0.9949 0.0069
vn 0.1051 0.9944 0.0101
vn 0.1051 0.9944 0.0101
vn 0.1051 0.9944 0.0101
vn 0.1051 0.9944 0.0101
vn 0.1051 0.9944 0.0101
vn 0.1051 0.9944 0.0101
vn 0.105 0.9944 0.0101
vn 0.105 0.9944 0.0101
vn 0.105 0.9944 0.0101
vn 0.1051 0.9944 0.0101
vn 0.1051 0.9944 0.0101
vn 0.1051 0.9944 0.0101
vn 0.1051 0.9944 0.0101
vn 0.1051 0.9944 0.0101
vn 0.1051 0.9944 0.0101
vn 0.1051 0.9944 0.0101
vn 0.1051 0.9944 0.0101
vn 0.1051 0.9944 0.0101
vn 0.1051 0.9944 0.0101
vn 0.1051 0.9944 0.0101
vn 0.1051 0.9944 0.0101
vn 0.1051 0.9944 0.0101
vn 0.1051 0.9944 0.0101
vn 0.1051 0.9944 0.0101
vn 0.1051 0.9944 0.0101
vn 0.1051 0.9944 0.0101
vn 0.1051 0.9944 0.0101
vn 0.1051 0.9944 0.0101
vn 0.1051 0.9944 0.0101
vn 0.1051 0.9944 0.0101
vn 0.1036 0.9945 0.0128
vn 0.1036 0.9945 0.0128
vn 0.1036 0.9945 0.0128
vn 0.1055 0.9943 0.0129
vn 0.1055 0.9943 0.0129
vn 0.1055 0.9943 0.0129
vn 0.1054 0.9943 0.013
vn 0.1054 0.9943 0.013
vn 0.1054 0.9943 0.013
vn 0.0994 0.995 0.0075
vn 0.0994 0.995 0.0075
vn 0.0994 0.995 0.0075
vn 0.031 0.9995 0.0113
vn 0.031 0.9995 0.0113
vn 0.031 0.9995 0.0113
vn 0.0369 0.999 0.0262
vn 0.0369 0.999 0.0262
vn 0.0369 0.999 0.0262
vn 0.1164 0.9932 0.0049
vn 0.1164 0.9932 0.0049
vn 0.1164 0.9932 0.0049
vt 0.194864 0.602939
vt 0.197778 0.602979
vt 0.197852 0.601471
vt 0.195429 0.601504
vt 0.195429 0.601504
vt 0.193688 0.600932
vt 0.194864 0.602939
vt 0.193688 0.600932
vt 0.19185 0.601605
vt 0.194864 0.602939
vt 0.197778 0.602979
vt 0.199849 0.602258
vt 0.197852 0.601471
vt 0.19928 0.600715
vt 0.199849 0.602258
vt 0.201073 0.600574
vt 0.199849 0.602258
vt 0.19928 0.600715
vt 0.197852 0.601471
vt 0.199513 0.599444
vt 0.19928 0.600715
vt 0.201073 0.600574
vt 0.200225 0.597463
vt 0.19886 0.598517
vt 0.199513 0.599444
vt 0.201065 0.598649
vt 0.201073 0.600574
vt 0.201065 0.598649
vt 0.199513 0.599444
vt 0.19886 0.598517
vt 0.200225 0.597463
vt 0.198775 0.596722
vt 0.197274 0.597888
vt 0.198775 0.596722
vt 0.195754 0.595911
vt 0.197274 0.597888
vt 0.19886 0.598517
vt 0.198775 0.596722
vt 0.195754 0.595911
vt 0.195368 0.597414
vt 0.197274 0.597888
vt 0.193597 0.596696
vt 0.195368 0.597414
vt 0.195754 0.595911
vt 0.195754 0.595911
vt 0.194215 0.595111
vt 0.193597 0.596696
vt 0.194215 0.595111
vt 0.192408 0.595454
vt 0.193597 0.596696
vt 0.193893 0.594104
vt 0.192293 0.593645
vt 0.192408 0.595454
vt 0.194215 0.595111
vt 0.193893 0.594104
vt 0.192408 0.595454
vt 0.193893 0.594104
vt 0.194136 0.593228
vt 0.192293 0.593645
vt 0.194136 0.593228
vt 0.195121 0.592444
vt 0.19357 0.5916
vt 0.192293 0.593645
vt 0.194136 0.593228
vt 0.192708 0.592525
vt 0.194136 0.593228
vt 0.19357 0.5916
vt 0.192708 0.592525
vt 0.19357 0.5916
vt 0.195121 0.592444
vt 0.195331 0.590841
vt 0.197203 0.592196
vt 0.198391 0.590853
vt 0.195331 0.590841
vt 0.195121 0.592444
vt 0.197203 0.592196
vt 0.195331 0.590841
vt 0.19889 0.592534
vt 0.198391 0.590853
vt 0.197203 0.592196
vt 0.200751 0.591785
vt 0.19889 0.592534
vt 0.200167 0.59319
vt 0.19889 0.592534
vt 0.200751 0.591785
vt 0.198391 0.590853
vt 0.19185 0.601605
vt 0.193688 0.600932
vt 0.192529 0.600195
s off
f 1/1/1 2/2/2 3/3/3
f 1/1/1 3/3/3 4/4/4
f 5/5/5 6/6/6 7/7/7
f 8/8/8 9/9/9 10/10/10
f 11/11/11 12/12/12 13/13/13
f 14/14/14 15/15/15 16/16/16
f 17/17/17 18/18/18 19/19/19
f 20/20/20 21/21/21 22/22/22
f 23/23/23 24/24/24 25/25/25
f 23/23/23 25/25/25 26/26/26
f 27/27/27 28/28/28 29/29/29
f 30/30/30 31/31/31 32/32/32
f 33/33/33 34/34/34 35/35/35
f 36/36/36 37/37/37 38/38/38
f 39/39/39 40/40/40 41/41/41
f 42/42/42 43/43/43 44/44/44
f 45/45/45 46/46/46 47/47/47
f 48/48/48 49/49/49 50/50/50
f 51/51/51 52/52/52 53/53/53
f 54/54/54 55/55/55 56/56/56
f 57/57/57 58/58/58 59/59/59
f 60/60/60 61/61/61 62/62/62
f 63/63/63 64/64/64 65/65/65
f 66/66/66 67/67/67 68/68/68
f 69/69/69 70/70/70 71/71/71
f 72/72/72 73/73/73 74/74/74
f 75/75/75 76/76/76 77/77/77
f 78/78/78 79/79/79 80/80/80
f 81/81/81 82/82/82 83/83/83
f 84/84/84 85/85/85 86/86/86
f 87/87/87 88/88/88 89/89/89
