v 0.388062 0.168719 0.069231
v 0.385817 0.16899 0.06913
v 0.389297 0.168554 0.071606
v 0.386653 0.169171 0.031938
v 0.388967 0.168939 0.0307
v 0.384455 0.169418 0.030622
v 0.384498 0.168986 0.094083
v 0.386841 0.168704 0.094083
v 0.389052 0.168479 0.087601
v 0.389297 0.168554 0.071606
v 0.38443 0.169149 0.070375
v 0.384455 0.16913 0.072802
v 0.387979 0.16893 0.041863
v 0.385817 0.169168 0.041791
v 0.389297 0.168768 0.044073
v 0.389297 0.168768 0.044073
v 0.386653 0.169035 0.046779
v 0.388512 0.168832 0.045989
v 0.389228 0.16847 0.085817
v 0.38446 0.169048 0.085308
v 0.384471 0.169033 0.087392
v 0.384455 0.169418 0.030622
v 0.388967 0.168939 0.0307
v 0.384535 0.169508 0.027889
v 0.385789 0.168866 0.088672
v 0.389052 0.168479 0.087601
v 0.389228 0.16847 0.085817
v 0.386653 0.169035 0.046779
v 0.389297 0.168768 0.044073
v 0.384455 0.169309 0.045463
v 0.384455 0.169309 0.045463
v 0.389297 0.168768 0.044073
v 0.38443 0.169327 0.043037
v 0.384535 0.169508 0.027889
v 0.388967 0.168939 0.0307
v 0.388916 0.169043 0.0279
v 0.388916 0.169043 0.0279
v 0.386746 0.169315 0.026734
v 0.384535 0.169508 0.027889
v 0.385986 0.168938 0.073932
v 0.389297 0.168554 0.071606
v 0.384455 0.16913 0.072802
v 0.389297 0.168768 0.044073
v 0.385817 0.169168 0.041791
v 0.38443 0.169327 0.043037
v 0.38446 0.169048 0.085308
v 0.389228 0.16847 0.085817
v 0.386147 0.168854 0.083807
v 0.389228 0.16847 0.085817
v 0.388138 0.168612 0.084208
v 0.386147 0.168854 0.083807
v 0.385986 0.168938 0.073932
v 0.387979 0.168699 0.073817
v 0.389297 0.168554 0.071606
v 0.389297 0.168554 0.071606
v 0.385817 0.16899 0.06913
v 0.38443 0.169149 0.070375
v 0.389228 0.16847 0.085817
v 0.384471 0.169033 0.087392
v 0.385789 0.168866 0.088672
v 0.385789 0.168866 0.088672
v 0.384498 0.168986 0.094083
v 0.389052 0.168479 0.087601
vn 0.1197 0.9928 0.0065
vn 0.1197 0.9928 0.0065
vn 0.1197 0.9928 0.0065
vn 0.1054 0.9944 0.0107
vn 0.1054 0.9944 0.0107
vn 0.1054 0.9944 0.0107
vn 0.1197 0.9928 0.0065
vn 0.1197 0.9928 0.0065
vn 0.1197 0.9928 0.0065
vn 0.1197 0.9928 0.0065
vn 0.1197 0.9928 0.0065
vn 0.1197 0.9928 0.0065
vn 0.1094 0.994 0.0075
vn 0.1094 0.994 0.0075
vn 0.1094 0.994 0.0075
vn 0.1146 0.9933 0.0141
vn 0.1146 0.9933 0.0141
vn 0.1146 0.9933 0.0141
vn 0.1197 0.9928 0.0065
vn 0.1197 0.9928 0.0065
vn 0.1197 0.9928 0.0065
vn 0.1049 0.9938 0.0358
vn 0.1049 0.9938 0.0358
vn 0.1049 0.9938 0.0358
vn 0.1197 0.9928 0.0064
vn 0.1197 0.9928 0.0064
vn 0.1197 0.9928 0.0064
vn 0.115 0.9933 0.0144
vn 0.115 0.9933 0.0144
vn 0.115 0.9933 0.0144
vn 0.1128 0.9936 0.0065
vn 0.1128 0.9936 0.0065
vn 0.1128 0.9936 0.0065
vn 0.1054 0.9938 0.035
vn 0.1054 0.9938 0.035
vn 0.1054 0.9938 0.035
vn 0.1054 0.9938 0.0358
vn 0.1054 0.9938 0.0358
vn 0.1054 0.9938 0.0358
vn 0.1197 0.9928 0.0065
vn 0.1197 0.9928 0.0065
vn 0.1197 0.9928 0.0065
vn 0.1141 0.9935 0.0002
vn 0.1141 0.9935 0.0002
vn 0.1141 0.9935 0.0002
vn 0.1197 0.9928 0.0065
vn 0.1197 0.9928 0.0065
vn 0.1197 0.9928 0.0065
vn 0.1197 0.9928 0.0065
vn 0.1197 0.9928 0.0065
vn 0.1197 0.9928 0.0065
vn 0.1197 0.9928 0.0064
vn 0.1197 0.9928 0.0064
vn 0.1197 0.9928 0.0064
vn 0.1197 0.9928 0.0065
vn 0.1197 0.9928 0.0065
vn 0.1197 0.9928 0.0065
vn 0.1197 0.9928 0.0065
vn 0.1197 0.9928 0.0065
vn 0.1197 0.9928 0.0065
vn 0.1197 0.9928 0.0065
vn 0.1197 0.9928 0.0065
vn 0.1197 0.9928 0.0065
vt 0.691721 0.609901
vt 0.690625 0.609852
vt 0.692324 0.611061
vt 0.691033 0.591689
vt 0.692163 0.591085
vt 0.68996 0.591047
vt 0.689981 0.622038
vt 0.691125 0.622038
vt 0.692205 0.618872
vt 0.692324 0.611061
vt 0.689948 0.61046
vt 0.68996 0.611645
vt 0.691681 0.596536
vt 0.690625 0.596501
vt 0.692324 0.597616
vt 0.692324 0.597616
vt 0.691033 0.598937
vt 0.691941 0.598551
vt 0.692291 0.618001
vt 0.689963 0.617752
vt 0.689968 0.61877
vt 0.68996 0.591047
vt 0.692163 0.591085
vt 0.689999 0.589712
vt 0.690611 0.619395
vt 0.692205 0.618872
vt 0.692291 0.618001
vt 0.691033 0.598937
vt 0.692324 0.597616
vt 0.68996 0.598294
vt 0.68996 0.598294
vt 0.692324 0.597616
vt 0.689948 0.597109
vt 0.689999 0.589712
vt 0.692163 0.591085
vt 0.692139 0.589718
vt 0.692139 0.589718
vt 0.691079 0.589148
vt 0.689999 0.589712
vt 0.690707 0.612197
vt 0.692324 0.611061
vt 0.68996 0.611645
vt 0.692324 0.597616
vt 0.690625 0.596501
vt 0.689948 0.597109
vt 0.689963 0.617752
vt 0.692291 0.618001
vt 0.690786 0.617019
vt 0.692291 0.618001
vt 0.691759 0.617215
vt 0.690786 0.617019
vt 0.690707 0.612197
vt 0.691681 0.612141
vt 0.692324 0.611061
vt 0.692324 0.611061
vt 0.690625 0.609852
vt 0.689948 0.61046
vt 0.692291 0.618001
vt 0.689968 0.61877
vt 0.690611 0.619395
vt 0.690611 0.619395
vt 0.689981 0.622038
vt 0.692205 0.618872
s off
f 1/1/1 2/2/2 3/3/3
f 4/4/4 5/5/5 6/6/6
f 7/7/7 8/8/8 9/9/9
f 10/10/10 11/11/11 12/12/12
f 13/13/13 14/14/14 15/15/15
f 16/16/16 17/17/17 18/18/18
f 19/19/19 20/20/20 21/21/21
f 22/22/22 23/23/23 24/24/24
f 25/25/25 26/26/26 27/27/27
f 28/28/28 29/29/29 30/30/30
f 31/31/31 32/32/32 33/33/33
f 34/34/34 35/35/35 36/36/36
f 37/37/37 38/38/38 39/39/39
f 40/40/40 41/41/41 42/42/42
f 43/43/43 44/44/44 45/45/45
f 46/46/46 47/47/47 48/48/48
f 49/49/49 50/50/50 51/51/51
f 52/52/52 53/53/53 54/54/54
f 55/55/55 56/56/56 57/57/57
f 58/58/58 59/59/59 60/60/60
f 61/61/61 62/62/62 63/63/63
