v -0.991198 0.16552 0.169647
v -0.992257 0.165861 0.171869
v -0.987598 0.165474 0.171442
v -0.987038 0.16432 0.161847
v -0.982817 0.164525 0.165825
v -0.980146 0.164143 0.163793
v -0.972753 0.164856 0.173912
v -0.969941 0.164695 0.173912
v -0.969941 0.163703 0.165086
v -0.958537 0.163132 0.165086
v -0.958537 0.164123 0.173912
v -0.955647 0.164017 0.173912
v -0.969941 0.163423 0.162586
v -0.958537 0.163132 0.165086
v -0.958537 0.162851 0.162586
v -0.958537 0.161964 0.154072
v -0.958537 0.162851 0.162586
v -0.955647 0.161862 0.154072
v -0.940884 0.163476 0.173912
v -0.938072 0.163373 0.173912
v -0.938072 0.16247 0.165867
v -0.916045 0.160702 0.156493
v -0.918779 0.16073 0.156493
v -0.918779 0.162588 0.173912
v -0.925652 0.160759 0.154072
v -0.925652 0.160962 0.156493
v -0.918779 0.16073 0.156493
v -0.916045 0.160702 0.156493
v -0.909171 0.16063 0.156493
v -0.909171 0.160441 0.154072
v -0.988933 0.164229 0.160071
v -0.989989 0.164681 0.163324
v -0.987038 0.16432 0.161847
v -0.988933 0.164229 0.160071
v -0.991614 0.164157 0.157937
v -0.991555 0.164545 0.161236
v -0.94971 0.163799 0.173912
v -0.946898 0.163697 0.173912
v -0.946898 0.161541 0.154072
v -0.94971 0.161644 0.154072
v -0.928152 0.162106 0.165867
v -0.928152 0.161834 0.163445
v -0.938072 0.162198 0.163445
v -0.982817 0.164525 0.165825
v -0.987038 0.16432 0.161847
v -0.987058 0.164644 0.164723
v -0.938072 0.161417 0.156493
v -0.926902 0.160805 0.154072
v -0.940884 0.16132 0.154072
v -0.984424 0.165291 0.171827
v -0.987173 0.165757 0.174075
v -0.981699 0.165382 0.174032
v -0.916045 0.160702 0.156493
v -0.909171 0.160441 0.154072
v -0.918779 0.16073 0.156493
v -0.979745 0.164609 0.168143
v -0.976864 0.164592 0.169462
v -0.977507 0.164204 0.165684
v -0.977745 0.163079 0.155539
v -0.980646 0.163386 0.156796
v -0.978684 0.163387 0.157804
v -0.979868 0.16481 0.169871
v -0.976864 0.164592 0.169462
v -0.979745 0.164609 0.168143
v -0.986968 0.163717 0.156512
v -0.990364 0.163834 0.155825
v -0.988615 0.163971 0.157935
v -0.926902 0.161008 0.156493
v -0.926902 0.160805 0.154072
v -0.938072 0.161417 0.156493
v -0.987625 0.163482 0.154085
v -0.986968 0.163717 0.156512
v -0.983451 0.163476 0.156166
v -0.938072 0.161417 0.156493
v -0.940884 0.16132 0.154072
v -0.938072 0.162198 0.163445
v -0.983302 0.16321 0.153766
v -0.983451 0.163476 0.156166
v -0.98019 0.163086 0.154341
v -0.978687 0.165031 0.172446
v -0.981571 0.165078 0.171385
v -0.981699 0.165382 0.174032
v -0.940884 0.163476 0.173912
v -0.938072 0.16247 0.165867
v -0.938072 0.162198 0.163445
v -0.938072 0.162198 0.163445
v -0.940884 0.16132 0.154072
v -0.940884 0.163476 0.173912
v -0.988933 0.164229 0.160071
v -0.991555 0.164545 0.161236
v -0.989989 0.164681 0.163324
v -0.972753 0.16265 0.154072
v -0.969941 0.163423 0.162586
v -0.969941 0.162494 0.154072
v -0.979868 0.16481 0.169871
v -0.978687 0.165031 0.172446
v -0.976864 0.164592 0.169462
v -0.98019 0.163086 0.154341
v -0.983451 0.163476 0.156166
v -0.980646 0.163386 0.156796
v -0.938072 0.16247 0.165867
v -0.928152 0.162106 0.165867
v -0.938072 0.162198 0.163445
v -0.916045 0.162559 0.173912
v -0.916045 0.160702 0.156493
v -0.918779 0.162588 0.173912
v -0.909171 0.160441 0.154072
v -0.925652 0.160759 0.154072
v -0.918779 0.16073 0.156493
v -0.986968 0.163717 0.156512
v -0.987625 0.163482 0.154085
v -0.990364 0.163834 0.155825
v -0.969941 0.163423 0.162586
v -0.972753 0.16265 0.154072
v -0.972753 0.164856 0.173912
v -0.969941 0.163703 0.165086
v -0.955647 0.164017 0.173912
v -0.955647 0.161862 0.154072
v -0.958537 0.163132 0.165086
v -0.969941 0.163423 0.162586
v -0.969941 0.163703 0.165086
v -0.958537 0.163132 0.165086
v -0.980516 0.164519 0.166951
v -0.977507 0.164204 0.165684
v -0.980146 0.164143 0.163793
v -0.981571 0.165078 0.171385
v -0.984424 0.165291 0.171827
v -0.981699 0.165382 0.174032
v -0.987598 0.165474 0.171442
v -0.992257 0.165861 0.171869
v -0.987173 0.165757 0.174075
v -0.988933 0.164229 0.160071
v -0.988615 0.163971 0.157935
v -0.991614 0.164157 0.157937
v -0.980516 0.164519 0.166951
v -0.979745 0.164609 0.168143
v -0.977507 0.164204 0.165684
v -0.980646 0.163386 0.156796
v -0.977745 0.163079 0.155539
v -0.98019 0.163086 0.154341
v -0.987038 0.16432 0.161847
v -0.989989 0.164681 0.163324
v -0.987058 0.164644 0.164723
v -0.984424 0.165291 0.171827
v -0.987598 0.165474 0.171442
v -0.987173 0.165757 0.174075
v -0.990364 0.163834 0.155825
v -0.991614 0.164157 0.157937
v -0.988615 0.163971 0.157935
v -0.979868 0.16481 0.169871
v -0.981571 0.165078 0.171385
v -0.978687 0.165031 0.172446
v -0.983451 0.163476 0.156166
v -0.983302 0.16321 0.153766
v -0.987625 0.163482 0.154085
v -0.982817 0.164525 0.165825
v -0.980516 0.164519 0.166951
v -0.980146 0.164143 0.163793
v -0.958537 0.162851 0.162586
v -0.958537 0.163132 0.165086
v -0.955647 0.161862 0.154072
vn 0.0714 0.9905 -0.1178
vn 0.0714 0.9905 -0.1178
vn 0.0714 0.9905 -0.1178
vn 0.0569 0.9921 -0.1114
vn 0.0569 0.9921 -0.1114
vn 0.0569 0.9921 -0.1114
vn 0.0569 0.9921 -0.1114
vn 0.0569 0.9921 -0.1114
vn 0.0569 0.9921 -0.1114
vn 0.0364 0.9931 -0.1115
vn 0.0364 0.9931 -0.1115
vn 0.0364 0.9931 -0.1115
vn 0.0498 0.9925 -0.1114
vn 0.0498 0.9925 -0.1114
vn 0.0498 0.9925 -0.1114
vn 0.0349 0.994 -0.1036
vn 0.0349 0.994 -0.1036
vn 0.0349 0.994 -0.1036
vn 0.0364 0.9931 -0.1115
vn 0.0364 0.9931 -0.1115
vn 0.0364 0.9931 -0.1115
vn 0.0104 0.9943 -0.106
vn 0.0104 0.9943 -0.106
vn 0.0104 0.9943 -0.106
vn 0.0336 0.996 -0.0834
vn 0.0336 0.996 -0.0834
vn 0.0336 0.996 -0.0834
vn 0.0104 0.9969 -0.0776
vn 0.0104 0.9969 -0.0776
vn 0.0104 0.9969 -0.0776
vn 0.0624 0.9911 -0.1173
vn 0.0624 0.9911 -0.1173
vn 0.0624 0.9911 -0.1173
vn 0.0669 0.9908 -0.1178
vn 0.0669 0.9908 -0.1178
vn 0.0669 0.9908 -0.1178
vn 0.0365 0.9935 -0.1079
vn 0.0365 0.9935 -0.1079
vn 0.0365 0.9935 -0.1079
vn 0.0365 0.9935 -0.1079
vn 0.0364 0.9931 -0.1115
vn 0.0364 0.9931 -0.1115
vn 0.0364 0.9931 -0.1115
vn 0.0569 0.9921 -0.1114
vn 0.0569 0.9921 -0.1114
vn 0.0569 0.9921 -0.1114
vn 0.0366 0.9959 -0.0826
vn 0.0366 0.9959 -0.0826
vn 0.0366 0.9959 -0.0826
vn 0.0668 0.9901 -0.1234
vn 0.0668 0.9901 -0.1234
vn 0.0668 0.9901 -0.1234
vn 0.0105 0.9969 -0.0776
vn 0.0105 0.9969 -0.0776
vn 0.0105 0.9969 -0.0776
vn 0.0569 0.9921 -0.1114
vn 0.0569 0.9921 -0.1114
vn 0.0569 0.9921 -0.1114
vn 0.0569 0.9921 -0.1115
vn 0.0569 0.9921 -0.1115
vn 0.0569 0.9921 -0.1115
vn 0.0569 0.9921 -0.1114
vn 0.0569 0.9921 -0.1114
vn 0.0569 0.9921 -0.1114
vn 0.0569 0.9921 -0.1114
vn 0.0569 0.9921 -0.1114
vn 0.0569 0.9921 -0.1114
vn 0.0365 0.9959 -0.0833
vn 0.0365 0.9959 -0.0833
vn 0.0365 0.9959 -0.0833
vn 0.0569 0.9921 -0.1114
vn 0.0569 0.9921 -0.1114
vn 0.0569 0.9921 -0.1114
vn 0.0616 0.9919 -0.1114
vn 0.0616 0.9919 -0.1114
vn 0.0616 0.9919 -0.1114
vn 0.0593 0.9925 -0.1066
vn 0.0593 0.9925 -0.1066
vn 0.0593 0.9925 -0.1066
vn 0.0569 0.9921 -0.1114
vn 0.0569 0.9921 -0.1114
vn 0.0569 0.9921 -0.1114
vn 0.0364 0.9931 -0.1115
vn 0.0364 0.9931 -0.1115
vn 0.0364 0.9931 -0.1115
vn 0.0497 0.9929 -0.1079
vn 0.0497 0.9929 -0.1079
vn 0.0497 0.9929 -0.1079
vn 0.0681 0.991 -0.1154
vn 0.0681 0.991 -0.1154
vn 0.0681 0.991 -0.1154
vn 0.0551 0.9926 -0.1083
vn 0.0551 0.9926 -0.1083
vn 0.0551 0.9926 -0.1083
vn 0.0569 0.9921 -0.1114
vn 0.0569 0.9921 -0.1114
vn 0.0569 0.9921 -0.1114
vn 0.0568 0.9922 -0.111
vn 0.0568 0.9922 -0.111
vn 0.0568 0.9922 -0.111
vn 0.0364 0.9931 -0.1115
vn 0.0364 0.9931 -0.1115
vn 0.0364 0.9931 -0.1115
vn 0.0104 0.9943 -0.106
vn 0.0104 0.9943 -0.106
vn 0.0104 0.9943 -0.106
vn 0.0193 0.9989 -0.0428
vn 0.0193 0.9989 -0.0428
vn 0.0193 0.9989 -0.0428
vn 0.0569 0.9921 -0.1114
vn 0.0569 0.9921 -0.1114
vn 0.0569 0.9921 -0.1114
vn 0.0609 0.992 -0.1104
vn 0.0609 0.992 -0.1104
vn 0.0609 0.992 -0.1104
vn 0.0609 0.992 -0.1104
vn 0.0251 0.9938 -0.1079
vn 0.0251 0.9938 -0.1079
vn 0.0251 0.9938 -0.1079
vn 0.0498 0.9925 -0.1115
vn 0.0498 0.9925 -0.1115
vn 0.0498 0.9925 -0.1115
vn 0.0569 0.9921 -0.1114
vn 0.0569 0.9921 -0.1114
vn 0.0569 0.9921 -0.1114
vn 0.0571 0.9921 -0.1114
vn 0.0571 0.9921 -0.1114
vn 0.0571 0.9921 -0.1114
vn 0.0714 0.9905 -0.1179
vn 0.0714 0.9905 -0.1179
vn 0.0714 0.9905 -0.1179
vn 0.0613 0.992 -0.1107
vn 0.0613 0.992 -0.1107
vn 0.0613 0.992 -0.1107
vn 0.0569 0.9921 -0.1114
vn 0.0569 0.9921 -0.1114
vn 0.0569 0.9921 -0.1114
vn 0.0571 0.9922 -0.1109
vn 0.0571 0.9922 -0.1109
vn 0.0571 0.9922 -0.1109
vn 0.0654 0.9916 -0.1113
vn 0.0654 0.9916 -0.1113
vn 0.0654 0.9916 -0.1113
vn 0.0714 0.9905 -0.1179
vn 0.0714 0.9905 -0.1179
vn 0.0714 0.9905 -0.1179
vn 0.0612 0.9915 -0.115
vn 0.0612 0.9915 -0.115
vn 0.0612 0.9915 -0.115
vn 0.0569 0.9921 -0.1114
vn 0.0569 0.9921 -0.1114
vn 0.0569 0.9921 -0.1114
vn 0.0546 0.9928 -0.1069
vn 0.0546 0.9928 -0.1069
vn 0.0546 0.9928 -0.1069
vn 0.0569 0.9921 -0.1114
vn 0.0569 0.9921 -0.1114
vn 0.0569 0.9921 -0.1114
vn 0.0111 0.9937 -0.1116
vn 0.0111 0.9937 -0.1116
vn 0.0111 0.9937 -0.1116
vt 0.018169 0.658939
vt 0.017652 0.660024
vt 0.019927 0.659815
vt 0.020201 0.65513
vt 0.022262 0.657072
vt 0.023566 0.65608
vt 0.027177 0.661021
vt 0.02855 0.661021
vt 0.02855 0.656711
vt 0.034119 0.656711
vt 0.034119 0.661021
vt 0.035531 0.661021
vt 0.02855 0.655491
vt 0.034119 0.656711
vt 0.034119 0.655491
vt 0.034119 0.651333
vt 0.034119 0.655491
vt 0.035531 0.651333
vt 0.04274 0.661021
vt 0.044113 0.661021
vt 0.044113 0.657093
vt 0.05487 0.652515
vt 0.053535 0.652515
vt 0.053535 0.661021
vt 0.050178 0.651333
vt 0.050178 0.652515
vt 0.053535 0.652515
vt 0.05487 0.652515
vt 0.058227 0.652515
vt 0.058227 0.651333
vt 0.019275 0.654262
vt 0.01876 0.655851
vt 0.020201 0.65513
vt 0.019275 0.654262
vt 0.017966 0.65322
vt 0.017995 0.654831
vt 0.038429 0.661021
vt 0.039803 0.661021
vt 0.039803 0.651333
vt 0.038429 0.651333
vt 0.048957 0.657093
vt 0.048957 0.65591
vt 0.044113 0.65591
vt 0.022262 0.657072
vt 0.020201 0.65513
vt 0.020191 0.656534
vt 0.044113 0.652515
vt 0.049568 0.651333
vt 0.04274 0.651333
vt 0.021477 0.660003
vt 0.020135 0.661101
vt 0.022808 0.66108
vt 0.05487 0.652515
vt 0.058227 0.651333
vt 0.053535 0.652515
vt 0.023762 0.658204
vt 0.025169 0.658848
vt 0.024855 0.657003
vt 0.024739 0.652049
vt 0.023322 0.652663
vt 0.02428 0.653155
vt 0.023702 0.659048
vt 0.025169 0.658848
vt 0.023762 0.658204
vt 0.020235 0.652524
vt 0.018577 0.652189
vt 0.01943 0.653219
vt 0.049568 0.652515
vt 0.049568 0.651333
vt 0.044113 0.652515
vt 0.019914 0.651339
vt 0.020235 0.652524
vt 0.021952 0.652355
vt 0.044113 0.652515
vt 0.04274 0.651333
vt 0.044113 0.65591
vt 0.022025 0.651183
vt 0.021952 0.652355
vt 0.023545 0.651464
vt 0.024279 0.660305
vt 0.02287 0.659788
vt 0.022808 0.66108
vt 0.04274 0.661021
vt 0.044113 0.657093
vt 0.044113 0.65591
vt 0.044113 0.65591
vt 0.04274 0.651333
vt 0.04274 0.661021
vt 0.019275 0.654262
vt 0.017995 0.654831
vt 0.01876 0.655851
vt 0.027177 0.651333
vt 0.02855 0.655491
vt 0.02855 0.651333
vt 0.023702 0.659048
vt 0.024279 0.660305
vt 0.025169 0.658848
vt 0.023545 0.651464
vt 0.021952 0.652355
vt 0.023322 0.652663
vt 0.044113 0.657093
vt 0.048957 0.657093
vt 0.044113 0.65591
vt 0.05487 0.661021
vt 0.05487 0.652515
vt 0.053535 0.661021
vt 0.058227 0.651333
vt 0.050178 0.651333
vt 0.053535 0.652515
vt 0.020235 0.652524
vt 0.019914 0.651339
vt 0.018577 0.652189
vt 0.02855 0.655491
vt 0.027177 0.651333
vt 0.027177 0.661021
vt 0.02855 0.656711
vt 0.035531 0.661021
vt 0.035531 0.651333
vt 0.034119 0.656711
vt 0.02855 0.655491
vt 0.02855 0.656711
vt 0.034119 0.656711
vt 0.023386 0.657622
vt 0.024855 0.657003
vt 0.023566 0.65608
vt 0.02287 0.659788
vt 0.021477 0.660003
vt 0.022808 0.66108
vt 0.019927 0.659815
vt 0.017652 0.660024
vt 0.020135 0.661101
vt 0.019275 0.654262
vt 0.01943 0.653219
vt 0.017966 0.65322
vt 0.023386 0.657622
vt 0.023762 0.658204
vt 0.024855 0.657003
vt 0.023322 0.652663
vt 0.024739 0.652049
vt 0.023545 0.651464
vt 0.020201 0.65513
vt 0.01876 0.655851
vt 0.020191 0.656534
vt 0.021477 0.660003
vt 0.019927 0.659815
vt 0.020135 0.661101
vt 0.018577 0.652189
vt 0.017966 0.65322
vt 0.01943 0.653219
vt 0.023702 0.659048
vt 0.02287 0.659788
vt 0.024279 0.660305
vt 0.021952 0.652355
vt 0.022025 0.651183
vt 0.019914 0.651339
vt 0.022262 0.657072
vt 0.023386 0.657622
vt 0.023566 0.65608
vt 0.034119 0.655491
vt 0.034119 0.656711
vt 0.035531 0.651333
s off
f 1/1/1 2/2/2 3/3/3
f 4/4/4 5/5/5 6/6/6
f 7/7/7 8/8/8 9/9/9
f 10/10/10 11/11/11 12/12/12
f 13/13/13 14/14/14 15/15/15
f 16/16/16 17/17/17 18/18/18
f 19/19/19 20/20/20 21/21/21
f 22/22/22 23/23/23 24/24/24
f 25/25/25 26/26/26 27/27/27
f 28/28/28 29/29/29 30/30/30
f 31/31/31 32/32/32 33/33/33
f 34/34/34 35/35/35 36/36/36
f 37/37/37 38/38/38 39/39/39
f 37/37/37 39/39/39 40/40/40
f 41/41/41 42/42/42 43/43/43
f 44/44/44 45/45/45 46/46/46
f 47/47/47 48/48/48 49/49/49
f 50/50/50 51/51/51 52/52/52
f 53/53/53 54/54/54 55/55/55
f 56/56/56 57/57/57 58/58/58
f 59/59/59 60/60/60 61/61/61
f 62/62/62 63/63/63 64/64/64
f 65/65/65 66/66/66 67/67/67
f 68/68/68 69/69/69 70/70/70
f 71/71/71 72/72/72 73/73/73
f 74/74/74 75/75/75 76/76/76
f 77/77/77 78/78/78 79/79/79
f 80/80/80 81/81/81 82/82/82
f 83/83/83 84/84/84 85/85/85
f 86/86/86 87/87/87 88/88/88
f 89/89/89 90/90/90 91/91/91
f 92/92/92 93/93/93 94/94/94
f 95/95/95 96/96/96 97/97/97
f 98/98/98 99/99/99 100/100/100
f 101/101/101 102/102/102 103/103/103
f 104/104/104 105/105/105 106/106/106
f 107/107/107 108/108/108 109/109/109
f 110/110/110 111/111/111 112/112/112
f 113/113/113 114/114/114 115/115/115
f 113/113/113 115/115/115 116/116/116
f 117/117/117 118/118/118 119/119/119
f 120/120/120 121/121/121 122/122/122
f 123/123/123 124/124/124 125/125/125
f 126/126/126 127/127/127 128/128/128
f 129/129/129 130/130/130 131/131/131
f 132/132/132 133/133/133 134/134/134
f 135/135/135 136/136/136 137/137/137
f 138/138/138 139/139/139 140/140/140
f 141/141/141 142/142/142 143/143/143
f 144/144/144 145/145/145 146/146/146
f 147/147/147 148/148/148 149/149/149
f 150/150/150 151/151/151 152/152/152
f 153/153/153 154/154/154 155/155/155
f 156/156/156 157/157/157 158/158/158
f 159/159/159 160/160/160 161/161/161
