v -0.778956 0.124708 0.130498
v -0.778956 0.113446 0.130128
v -0.827997 0.113446 0.130128
v -0.827997 0.124708 0.130498
v -0.778956 0.113446 0.130128
v -0.778956 0.124708 0.130498
v -0.747056 0.124708 0.130498
v -0.747041 0.113446 0.130128
v -0.747056 0.124708 0.130498
v -0.73809 0.124589 0.134131
v -0.738086 0.113327 0.13376
v -0.747041 0.113446 0.130128
v -0.73809 0.124589 0.134131
v -0.734377 0.124301 0.142904
v -0.734377 0.113039 0.142529
v -0.738086 0.113327 0.13376
v -0.734377 0.124301 0.142904
v -0.734377 0.121029 0.242473
v -0.734377 0.109766 0.24212
v -0.734377 0.113039 0.142529
v -0.738031 0.109471 0.251109
v -0.734377 0.109766 0.24212
v -0.734377 0.121029 0.242473
v -0.738033 0.120733 0.251474
v -0.738033 0.120733 0.251474
v -0.734377 0.121029 0.242473
v -0.74819 0.1709 0.230062
v -0.734377 0.124301 0.142904
v -0.747937 0.160767 0.145936
v -0.74819 0.1709 0.230062
v -0.734377 0.121029 0.242473
v -0.74819 0.1709 0.230062
v -0.747937 0.160767 0.145936
v -0.751599 0.16343 0.147751
v -0.751592 0.173121 0.227795
v -0.751592 0.173121 0.227795
v -0.755948 0.173394 0.23236
v -0.754207 0.171234 0.236025
v -0.74819 0.1709 0.230062
v -0.74686 0.120611 0.255202
v -0.738033 0.120733 0.251474
v -0.74819 0.1709 0.230062
v -0.754207 0.171234 0.236025
v -0.756073 0.162604 0.14255
v -0.751599 0.16343 0.147751
v -0.747937 0.160767 0.145936
v -0.754222 0.159685 0.139178
v -0.754222 0.159685 0.139178
v -0.747937 0.160767 0.145936
v -0.73809 0.124589 0.134131
v -0.747056 0.124708 0.130498
v -0.747937 0.160767 0.145936
v -0.734377 0.124301 0.142904
v -0.73809 0.124589 0.134131
v -0.791594 0.160928 0.142167
v -0.756073 0.162604 0.14255
v -0.754222 0.159685 0.139178
v -0.79066 0.15803 0.138767
v -0.79066 0.15803 0.138767
v -0.754222 0.159685 0.139178
v -0.747056 0.124708 0.130498
v -0.778956 0.124708 0.130498
v -0.834306 0.159643 0.141876
v -0.791594 0.160928 0.142167
v -0.79066 0.15803 0.138767
v -0.833821 0.156791 0.13846
v -0.79066 0.15803 0.138767
v -0.778956 0.124708 0.130498
v -0.827997 0.124708 0.130498
v -0.833821 0.156791 0.13846
v -0.877037 0.159283 0.141798
v -0.834306 0.159643 0.141876
v -0.833821 0.156791 0.13846
v -0.877037 0.156446 0.138374
v -0.833821 0.156791 0.13846
v -0.827997 0.124708 0.130498
v -0.877037 0.124708 0.130498
v -0.877037 0.156446 0.138374
v -0.920253 0.156791 0.13846
v -0.877037 0.156446 0.138374
v -0.877037 0.124708 0.130498
v -0.926078 0.124708 0.130498
v -0.877037 0.159283 0.141798
v -0.877037 0.156446 0.138374
v -0.920253 0.156791 0.13846
v -0.919769 0.159643 0.141876
v -0.919769 0.159643 0.141876
v -0.920253 0.156791 0.13846
v -0.963415 0.15803 0.138767
v -0.962481 0.160928 0.142167
v -0.963415 0.15803 0.138767
v -0.920253 0.156791 0.13846
v -0.926078 0.124708 0.130498
v -0.975119 0.124708 0.130498
v -0.926078 0.124708 0.130498
v -0.877037 0.124708 0.130498
v -0.877037 0.113446 0.130128
v -0.926078 0.113446 0.130128
v -0.975119 0.124708 0.130498
v -0.926078 0.124708 0.130498
v -0.926078 0.113446 0.130128
v -0.975119 0.113446 0.130128
v -0.827997 0.124708 0.130498
v -0.827997 0.113446 0.130128
v -0.877037 0.113446 0.130128
v -0.877037 0.124708 0.130498
v -0.975119 0.113446 0.130128
v -1.00703 0.113446 0.130128
v -1.00702 0.124708 0.130498
v -0.975119 0.124708 0.130498
v -1.00702 0.124708 0.130498
v -1.00703 0.113446 0.130128
v -1.01599 0.113327 0.13376
v -1.01598 0.124589 0.134131
v -1.01598 0.124589 0.134131
v -1.01599 0.113327 0.13376
v -1.0197 0.113039 0.142529
v -1.0197 0.124301 0.142904
v -1.0197 0.124301 0.142904
v -1.0197 0.113039 0.142529
v -1.0197 0.109766 0.24212
v -1.0197 0.121029 0.242473
v -1.01604 0.109471 0.251109
v -1.01604 0.120733 0.251474
v -1.0197 0.121029 0.242473
v -1.0197 0.109766 0.24212
v -1.00589 0.1709 0.230062
v -1.0197 0.121029 0.242473
v -1.01604 0.120733 0.251474
v -1.0197 0.124301 0.142904
v -1.0197 0.121029 0.242473
v -1.00589 0.1709 0.230062
v -1.00614 0.160767 0.145936
v -1.00589 0.1709 0.230062
v -1.00248 0.173121 0.227795
v -1.00248 0.16343 0.147751
v -1.00614 0.160767 0.145936
v -1.00248 0.173121 0.227795
v -1.00589 0.1709 0.230062
v -0.999868 0.171234 0.236025
v -0.998127 0.173394 0.23236
v -0.999868 0.171234 0.236025
v -1.00589 0.1709 0.230062
v -1.01604 0.120733 0.251474
v -1.00722 0.120611 0.255202
v -0.999853 0.159685 0.139178
v -1.00614 0.160767 0.145936
v -1.00248 0.16343 0.147751
v -0.998002 0.162604 0.14255
v -0.999853 0.159685 0.139178
v -1.00702 0.124708 0.130498
v -1.01598 0.124589 0.134131
v -1.00614 0.160767 0.145936
v -1.00614 0.160767 0.145936
v -1.01598 0.124589 0.134131
v -1.0197 0.124301 0.142904
v -0.962481 0.160928 0.142167
v -0.963415 0.15803 0.138767
v -0.999853 0.159685 0.139178
v -0.998002 0.162604 0.14255
v -0.963415 0.15803 0.138767
v -0.975119 0.124708 0.130498
v -1.00702 0.124708 0.130498
v -0.999853 0.159685 0.139178
v -1.00248 0.16343 0.147751
v -0.992708 0.163569 0.153557
v -0.998002 0.162604 0.14255
v -0.992708 0.163569 0.153557
v -0.962493 0.162061 0.155556
v -0.962481 0.160928 0.142167
v -0.998002 0.162604 0.14255
v -0.992708 0.163569 0.153557
v -0.992849 0.171722 0.221981
v -0.962513 0.169287 0.219884
v -0.962493 0.162061 0.155556
v -1.00248 0.173121 0.227795
v -0.992849 0.171722 0.221981
v -0.992708 0.163569 0.153557
v -1.00248 0.16343 0.147751
v -0.992849 0.171722 0.221981
v -0.998127 0.173394 0.23236
v -0.962504 0.17115 0.23319
v -0.962513 0.169287 0.219884
v -1.00248 0.173121 0.227795
v -0.998127 0.173394 0.23236
v -0.992849 0.171722 0.221981
v -0.963141 0.168954 0.236888
v -0.962504 0.17115 0.23319
v -0.998127 0.173394 0.23236
v -0.999868 0.171234 0.236025
v -0.962504 0.17115 0.23319
v -0.963141 0.168954 0.236888
v -0.920119 0.167266 0.237528
v -0.919789 0.169444 0.233821
v -0.919796 0.167411 0.220396
v -0.962513 0.169287 0.219884
v -0.962504 0.17115 0.23319
v -0.919789 0.169444 0.233821
v -0.919789 0.169444 0.233821
v -0.920119 0.167266 0.237528
v -0.877037 0.166796 0.237706
v -0.877037 0.168966 0.233994
v -0.877037 0.166875 0.220536
v -0.919796 0.167411 0.220396
v -0.919789 0.169444 0.233821
v -0.877037 0.168966 0.233994
v -0.919779 0.160482 0.155429
v -0.962493 0.162061 0.155556
v -0.962513 0.169287 0.219884
v -0.919796 0.167411 0.220396
v -0.877037 0.160031 0.155397
v -0.919779 0.160482 0.155429
v -0.919796 0.167411 0.220396
v -0.877037 0.166875 0.220536
v -0.877037 0.159283 0.141798
v -0.919769 0.159643 0.141876
v -0.919779 0.160482 0.155429
v -0.877037 0.160031 0.155397
v -0.919769 0.159643 0.141876
v -0.962481 0.160928 0.142167
v -0.962493 0.162061 0.155556
v -0.919779 0.160482 0.155429
v -0.877037 0.160031 0.155397
v -0.877037 0.166875 0.220536
v -0.834279 0.167411 0.220396
v -0.834296 0.160482 0.155429
v -0.877037 0.159283 0.141798
v -0.877037 0.160031 0.155397
v -0.834296 0.160482 0.155429
v -0.834306 0.159643 0.141876
v -0.834296 0.160482 0.155429
v -0.834279 0.167411 0.220396
v -0.791562 0.169287 0.219884
v -0.791581 0.162061 0.155556
v -0.834306 0.159643 0.141876
v -0.834296 0.160482 0.155429
v -0.791581 0.162061 0.155556
v -0.791594 0.160928 0.142167
v -0.834279 0.167411 0.220396
v -0.834286 0.169444 0.233821
v -0.79157 0.17115 0.23319
v -0.791562 0.169287 0.219884
v -0.877037 0.166875 0.220536
v -0.877037 0.168966 0.233994
v -0.834286 0.169444 0.233821
v -0.834279 0.167411 0.220396
v -0.834286 0.169444 0.233821
v -0.877037 0.168966 0.233994
v -0.877037 0.166796 0.237706
v -0.833956 0.167266 0.237528
v -0.79157 0.17115 0.23319
v -0.834286 0.169444 0.233821
v -0.833956 0.167266 0.237528
v -0.790933 0.168954 0.236888
v -0.790933 0.168954 0.236888
v -0.754207 0.171234 0.236025
v -0.755948 0.173394 0.23236
v -0.79157 0.17115 0.23319
v -0.761226 0.171722 0.221981
v -0.791562 0.169287 0.219884
v -0.79157 0.17115 0.23319
v -0.755948 0.173394 0.23236
v -0.751592 0.173121 0.227795
v -0.761226 0.171722 0.221981
v -0.755948 0.173394 0.23236
v -0.761366 0.163569 0.153557
v -0.791581 0.162061 0.155556
v -0.791562 0.169287 0.219884
v -0.761226 0.171722 0.221981
v -0.751592 0.173121 0.227795
v -0.751599 0.16343 0.147751
v -0.761366 0.163569 0.153557
v -0.761226 0.171722 0.221981
v -0.761366 0.163569 0.153557
v -0.756073 0.162604 0.14255
v -0.791594 0.160928 0.142167
v -0.791581 0.162061 0.155556
v -0.751599 0.16343 0.147751
v -0.756073 0.162604 0.14255
v -0.761366 0.163569 0.153557
v -0.833956 0.167266 0.237528
v -0.827997 0.120611 0.255202
v -0.778956 0.120611 0.255202
v -0.790933 0.168954 0.236888
v -0.754207 0.171234 0.236025
v -0.790933 0.168954 0.236888
v -0.778956 0.120611 0.255202
v -0.74686 0.120611 0.255202
v -0.827997 0.120611 0.255202
v -0.827997 0.109349 0.254832
v -0.778956 0.109349 0.254832
v -0.778956 0.120611 0.255202
v -0.746852 0.109349 0.254832
v -0.74686 0.120611 0.255202
v -0.778956 0.120611 0.255202
v -0.778956 0.109349 0.254832
v -0.746852 0.109349 0.254832
v -0.738031 0.109471 0.251109
v -0.738033 0.120733 0.251474
v -0.74686 0.120611 0.255202
v -0.877037 0.120611 0.255202
v -0.877037 0.109349 0.254832
v -0.827997 0.109349 0.254832
v -0.827997 0.120611 0.255202
v -0.877037 0.120611 0.255202
v -0.926078 0.120611 0.255202
v -0.926078 0.109349 0.254832
v -0.877037 0.109349 0.254832
v -0.926078 0.120611 0.255202
v -0.975119 0.120611 0.255202
v -0.975119 0.109349 0.254832
v -0.926078 0.109349 0.254832
v -1.00722 0.109349 0.254832
v -0.975119 0.109349 0.254832
v -0.975119 0.120611 0.255202
v -1.00722 0.120611 0.255202
v -1.00722 0.109349 0.254832
v -1.00722 0.120611 0.255202
v -1.01604 0.120733 0.251474
v -1.01604 0.109471 0.251109
v -0.999868 0.171234 0.236025
v -1.00722 0.120611 0.255202
v -0.975119 0.120611 0.255202
v -0.963141 0.168954 0.236888
v -0.920119 0.167266 0.237528
v -0.963141 0.168954 0.236888
v -0.975119 0.120611 0.255202
v -0.926078 0.120611 0.255202
v -0.877037 0.166796 0.237706
v -0.920119 0.167266 0.237528
v -0.926078 0.120611 0.255202
v -0.877037 0.120611 0.255202
v -0.877037 0.166796 0.237706
v -0.877037 0.120611 0.255202
v -0.827997 0.120611 0.255202
v -0.833956 0.167266 0.237528
vn -0 0.0328 -0.9995
vn -0 0.0328 -0.9995
vn -0 0.0328 -0.9995
vn -0 0.0328 -0.9995
vn -0 0.0328 -0.9995
vn -0 0.0328 -0.9995
vn 0.0889 0.0328 -0.9955
vn 0.0922 0.0329 -0.9952
vn 0.0889 0.0328 -0.9955
vn 0.6998 0.0238 -0.7139
vn 0.6997 0.0238 -0.7141
vn 0.0922 0.0329 -0.9952
vn 0.6998 0.0238 -0.7139
vn 0.9993 0.0014 -0.038
vn 0.9993 0.0013 -0.038
vn 0.6997 0.0238 -0.7141
vn 0.9993 0.0014 -0.038
vn 0.9993 -0.0009 0.0374
vn 0.9993 -0.001 0.0375
vn 0.9993 0.0013 -0.038
vn 0.714 -0.0225 0.6998
vn 0.9993 -0.001 0.0375
vn 0.9993 -0.0009 0.0374
vn 0.7139 -0.0226 0.6999
vn 0.6561 0.3783 0.653
vn 0.9534 0.3016 -0.0071
vn 0.9535 0.3013 -0.0098
vn 0.9532 0.302 -0.0136
vn 0.9535 0.3013 -0.01
vn 0.9535 0.3013 -0.0098
vn 0.9534 0.3016 -0.0071
vn 0.9535 0.3013 -0.0098
vn 0.9535 0.3013 -0.01
vn -0.0535 0.9919 -0.1156
vn -0.0635 0.9905 -0.1216
vn -0.0635 0.9905 -0.1216
vn -0.067 0.99 -0.1243
vn 0.0599 0.4071 0.9114
vn 0.9535 0.3013 -0.0098
vn 0.0667 0.3622 0.9297
vn 0.6561 0.3783 0.653
vn 0.9535 0.3013 -0.0098
vn 0.0599 0.4071 0.9114
vn -0.0505 0.9927 -0.1091
vn -0.0535 0.9919 -0.1156
vn 0.9535 0.3013 -0.01
vn 0.0626 0.3176 -0.9462
vn 0.0626 0.3176 -0.9462
vn 0.9535 0.3013 -0.01
vn 0.6635 0.348 -0.6623
vn 0.0708 0.2545 -0.9645
vn 0.9535 0.3013 -0.01
vn 0.9532 0.302 -0.0136
vn 0.6635 0.348 -0.6623
vn -0.0416 0.9952 -0.0885
vn -0.0505 0.9927 -0.1091
vn 0.0626 0.3176 -0.9462
vn -0.0027 0.309 -0.9511
vn -0.0027 0.309 -0.9511
vn 0.0626 0.3176 -0.9462
vn 0.0708 0.2545 -0.9645
vn -0 0.2409 -0.9706
vn -0.0212 0.9974 -0.0696
vn -0.0416 0.9952 -0.0885
vn -0.0027 0.309 -0.9511
vn -0.0014 0.3085 -0.9512
vn -0.0027 0.309 -0.9511
vn -0 0.2409 -0.9706
vn -0 0.2409 -0.9706
vn -0.0014 0.3085 -0.9512
vn -0 0.9981 -0.0623
vn -0.0212 0.9974 -0.0696
vn -0.0014 0.3085 -0.9512
vn -0.0003 0.3096 -0.9509
vn -0.0014 0.3085 -0.9512
vn -0 0.2409 -0.9706
vn -0 0.2409 -0.9706
vn -0.0003 0.3096 -0.9509
vn 0.0014 0.3085 -0.9512
vn -0.0003 0.3096 -0.9509
vn -0 0.2409 -0.9706
vn -0 0.2409 -0.9706
vn -0 0.9981 -0.0623
vn -0.0003 0.3096 -0.9509
vn 0.0014 0.3085 -0.9512
vn 0.0211 0.9974 -0.0696
vn 0.0211 0.9974 -0.0696
vn 0.0014 0.3085 -0.9512
vn 0.0027 0.309 -0.9511
vn 0.0416 0.9952 -0.0885
vn 0.0027 0.309 -0.9511
vn 0.0014 0.3085 -0.9512
vn -0 0.2409 -0.9706
vn -0 0.2409 -0.9706
vn -0 0.0328 -0.9995
vn -0 0.0328 -0.9995
vn -0 0.0328 -0.9995
vn -0 0.0328 -0.9995
vn -0 0.0328 -0.9995
vn -0 0.0328 -0.9995
vn -0 0.0328 -0.9995
vn -0 0.0328 -0.9995
vn -0 0.0328 -0.9995
vn -0 0.0328 -0.9995
vn -0 0.0328 -0.9995
vn -0 0.0328 -0.9995
vn -0 0.0328 -0.9995
vn -0.0887 0.0328 -0.9955
vn -0.0891 0.0329 -0.9955
vn -0 0.0328 -0.9995
vn -0.0891 0.0329 -0.9955
vn -0.0887 0.0328 -0.9955
vn -0.6997 0.0238 -0.7141
vn -0.6998 0.0238 -0.714
vn -0.6998 0.0238 -0.714
vn -0.6997 0.0238 -0.7141
vn -0.9993 0.0014 -0.038
vn -0.9993 0.0014 -0.038
vn -0.9993 0.0014 -0.038
vn -0.9993 0.0014 -0.038
vn -0.9993 -0.0011 0.0374
vn -0.9993 -0.001 0.0374
vn -0.714 -0.0226 0.6998
vn -0.714 -0.0226 0.6998
vn -0.9993 -0.001 0.0374
vn -0.9993 -0.0011 0.0374
vn -0.9535 0.3013 -0.0099
vn -0.9534 0.3017 -0.0069
vn -0.6561 0.3783 0.653
vn -0.9532 0.302 -0.0136
vn -0.9534 0.3017 -0.0069
vn -0.9535 0.3013 -0.0099
vn -0.9535 0.3014 -0.01
vn -0.9535 0.3013 -0.0099
vn 0.0635 0.9905 -0.1216
vn 0.0535 0.9919 -0.1156
vn -0.9535 0.3014 -0.01
vn 0.0635 0.9905 -0.1216
vn -0.9535 0.3013 -0.0099
vn -0.0599 0.4071 0.9114
vn 0.0669 0.99 -0.1243
vn -0.0599 0.4071 0.9114
vn -0.9535 0.3013 -0.0099
vn -0.6561 0.3783 0.653
vn -0.0666 0.3623 0.9297
vn -0.0626 0.3176 -0.9461
vn -0.9535 0.3014 -0.01
vn 0.0535 0.9919 -0.1156
vn 0.0505 0.9927 -0.1091
vn -0.0626 0.3176 -0.9461
vn -0.0708 0.2545 -0.9645
vn -0.6635 0.348 -0.6623
vn -0.9535 0.3014 -0.01
vn -0.9535 0.3014 -0.01
vn -0.6635 0.348 -0.6623
vn -0.9532 0.302 -0.0136
vn 0.0416 0.9952 -0.0885
vn 0.0027 0.309 -0.9511
vn -0.0626 0.3176 -0.9461
vn 0.0505 0.9927 -0.1091
vn 0.0027 0.309 -0.9511
vn -0 0.2409 -0.9706
vn -0.0708 0.2545 -0.9645
vn -0.0626 0.3176 -0.9461
vn 0.0535 0.9919 -0.1156
vn 0.0587 0.9922 -0.1099
vn 0.0505 0.9927 -0.1091
vn 0.0587 0.9922 -0.1099
vn 0.0473 0.994 -0.0985
vn 0.0416 0.9952 -0.0885
vn 0.0505 0.9927 -0.1091
vn 0.0587 0.9922 -0.1099
vn 0.0658 0.9902 -0.1231
vn 0.054 0.9907 -0.1248
vn 0.0473 0.994 -0.0985
vn 0.0635 0.9905 -0.1216
vn 0.0658 0.9902 -0.1231
vn 0.0587 0.9922 -0.1099
vn 0.0535 0.9919 -0.1156
vn 0.0658 0.9902 -0.1231
vn 0.0669 0.99 -0.1243
vn 0.0553 0.9894 -0.1346
vn 0.054 0.9907 -0.1248
vn 0.0635 0.9905 -0.1216
vn 0.0669 0.99 -0.1243
vn 0.0658 0.9902 -0.1231
vn 0.0003 0.3579 0.9338
vn 0.0553 0.9894 -0.1346
vn 0.0669 0.99 -0.1243
vn -0.0599 0.4071 0.9114
vn 0.0553 0.9894 -0.1346
vn 0.0003 0.3579 0.9338
vn 0.0001 0.3579 0.9338
vn 0.0277 0.9892 -0.144
vn 0.027 0.9915 -0.1275
vn 0.054 0.9907 -0.1248
vn 0.0553 0.9894 -0.1346
vn 0.0277 0.9892 -0.144
vn 0.0277 0.9892 -0.144
vn 0.0001 0.3579 0.9338
vn -0 0.3579 0.9338
vn -0 0.989 -0.1477
vn -0 0.9917 -0.1285
vn 0.027 0.9915 -0.1275
vn 0.0277 0.9892 -0.144
vn -0 0.989 -0.1477
vn 0.0237 0.996 -0.0863
vn 0.0473 0.994 -0.0985
vn 0.054 0.9907 -0.1248
vn 0.027 0.9915 -0.1275
vn -0 0.9966 -0.0818
vn 0.0237 0.996 -0.0863
vn 0.027 0.9915 -0.1275
vn -0 0.9917 -0.1285
vn -0 0.9981 -0.0623
vn 0.0211 0.9974 -0.0696
vn 0.0237 0.996 -0.0863
vn -0 0.9966 -0.0818
vn 0.0211 0.9974 -0.0696
vn 0.0416 0.9952 -0.0885
vn 0.0473 0.994 -0.0985
vn 0.0237 0.996 -0.0863
vn -0 0.9966 -0.0818
vn -0 0.9917 -0.1285
vn -0.027 0.9915 -0.1275
vn -0.0237 0.996 -0.0863
vn -0 0.9981 -0.0623
vn -0 0.9966 -0.0818
vn -0.0237 0.996 -0.0863
vn -0.0212 0.9974 -0.0696
vn -0.0237 0.996 -0.0863
vn -0.027 0.9915 -0.1275
vn -0.054 0.9907 -0.1248
vn -0.0473 0.994 -0.0985
vn -0.0212 0.9974 -0.0696
vn -0.0237 0.996 -0.0863
vn -0.0473 0.994 -0.0985
vn -0.0416 0.9952 -0.0885
vn -0.027 0.9915 -0.1275
vn -0.0277 0.9892 -0.144
vn -0.0553 0.9894 -0.1346
vn -0.054 0.9907 -0.1248
vn -0 0.9917 -0.1285
vn -0 0.989 -0.1477
vn -0.0277 0.9892 -0.144
vn -0.027 0.9915 -0.1275
vn -0.0277 0.9892 -0.144
vn -0 0.989 -0.1477
vn -0 0.3579 0.9338
vn -0.0001 0.3579 0.9338
vn -0.0553 0.9894 -0.1346
vn -0.0277 0.9892 -0.144
vn -0.0001 0.3579 0.9338
vn -0.0002 0.3579 0.9338
vn -0.0002 0.3579 0.9338
vn 0.0599 0.4071 0.9114
vn -0.067 0.99 -0.1243
vn -0.0553 0.9894 -0.1346
vn -0.0658 0.9902 -0.1231
vn -0.054 0.9907 -0.1248
vn -0.0553 0.9894 -0.1346
vn -0.067 0.99 -0.1243
vn -0.0635 0.9905 -0.1216
vn -0.0658 0.9902 -0.1231
vn -0.067 0.99 -0.1243
vn -0.0587 0.9922 -0.1099
vn -0.0473 0.994 -0.0985
vn -0.054 0.9907 -0.1248
vn -0.0658 0.9902 -0.1231
vn -0.0635 0.9905 -0.1216
vn -0.0535 0.9919 -0.1156
vn -0.0587 0.9922 -0.1099
vn -0.0658 0.9902 -0.1231
vn -0.0587 0.9922 -0.1099
vn -0.0505 0.9927 -0.1091
vn -0.0416 0.9952 -0.0885
vn -0.0473 0.994 -0.0985
vn -0.0535 0.9919 -0.1156
vn -0.0505 0.9927 -0.1091
vn -0.0587 0.9922 -0.1099
vn -0.0001 0.3579 0.9338
vn -0 0.3543 0.9351
vn -0 0.3543 0.9351
vn -0.0002 0.3579 0.9338
vn 0.0599 0.4071 0.9114
vn -0.0002 0.3579 0.9338
vn -0 0.3543 0.9351
vn 0.0667 0.3622 0.9297
vn -0 -0.0328 0.9995
vn -0 -0.0328 0.9995
vn -0 -0.0328 0.9995
vn -0 -0.0328 0.9995
vn 0.0945 -0.0325 0.995
vn 0.0945 -0.0325 0.995
vn -0 -0.0328 0.9995
vn -0 -0.0328 0.9995
vn 0.0945 -0.0325 0.995
vn 0.714 -0.0225 0.6998
vn 0.7139 -0.0226 0.6999
vn 0.0945 -0.0325 0.995
vn -0 -0.0328 0.9995
vn -0 -0.0328 0.9995
vn -0 -0.0328 0.9995
vn -0 -0.0328 0.9995
vn -0 -0.0328 0.9995
vn -0 -0.0328 0.9995
vn -0 -0.0328 0.9995
vn -0 -0.0328 0.9995
vn -0 -0.0328 0.9995
vn -0 -0.0328 0.9995
vn -0 -0.0328 0.9995
vn -0 -0.0328 0.9995
vn -0.0945 -0.0325 0.995
vn -0 -0.0328 0.9995
vn -0 -0.0328 0.9995
vn -0.0945 -0.0326 0.995
vn -0.0945 -0.0325 0.995
vn -0.0945 -0.0326 0.995
vn -0.714 -0.0226 0.6998
vn -0.714 -0.0226 0.6998
vn -0.0599 0.4071 0.9114
vn -0.0666 0.3623 0.9297
vn -0 0.3543 0.9351
vn 0.0003 0.3579 0.9338
vn 0.0001 0.3579 0.9338
vn 0.0003 0.3579 0.9338
vn -0 0.3543 0.9351
vn -0 0.3543 0.9351
vn -0 0.3579 0.9338
vn 0.0001 0.3579 0.9338
vn -0 0.3543 0.9351
vn -0 0.3543 0.9351
vn -0 0.3579 0.9338
vn -0 0.3543 0.9351
vn -0 0.3543 0.9351
vn -0.0001 0.3579 0.9338
vt 0.118046 0.252331
vt 0.118046 0.250217
vt 0.093999 0.250217
vt 0.093999 0.252331
vt 0.118046 0.250217
vt 0.118046 0.252331
vt 0.133212 0.252261
vt 0.133695 0.250217
vt 0.133212 0.252261
vt 0.136677 0.25348
vt 0.138086 0.251998
vt 0.133695 0.250217
vt 0.136677 0.25348
vt 0.138018 0.256859
vt 0.139905 0.256298
vt 0.138086 0.251998
vt 0.138018 0.256859
vt 0.138018 0.30491
vt 0.139905 0.305131
vt 0.139905 0.256298
vt 0.138113 0.309539
vt 0.139905 0.305131
vt 0.138018 0.30491
vt 0.136709 0.308405
vt 0.136709 0.308405
vt 0.138018 0.30491
vt 0.123181 0.297002
vt 0.138018 0.256859
vt 0.123285 0.262248
vt 0.123181 0.297002
vt 0.138018 0.30491
vt 0.123181 0.297002
vt 0.123285 0.262248
vt 0.121773 0.262998
vt 0.121776 0.296065
vt 0.121776 0.296065
vt 0.119976 0.297951
vt 0.120695 0.299465
vt 0.123181 0.297002
vt 0.133316 0.309682
vt 0.136709 0.308405
vt 0.123181 0.297002
vt 0.120695 0.299465
vt 0.119925 0.26085
vt 0.121773 0.262998
vt 0.123285 0.262248
vt 0.120689 0.259457
vt 0.120689 0.259457
vt 0.123285 0.262248
vt 0.136677 0.25348
vt 0.133212 0.252261
vt 0.123285 0.262248
vt 0.138018 0.256859
vt 0.136677 0.25348
vt 0.10525 0.260692
vt 0.119925 0.26085
vt 0.120689 0.259457
vt 0.105636 0.259287
vt 0.105636 0.259287
vt 0.120689 0.259457
vt 0.133212 0.252261
vt 0.118046 0.252331
vt 0.087605 0.260571
vt 0.10525 0.260692
vt 0.105636 0.259287
vt 0.087806 0.25916
vt 0.105636 0.259287
vt 0.118046 0.252331
vt 0.093999 0.252331
vt 0.087806 0.25916
vt 0.069952 0.260539
vt 0.087605 0.260571
vt 0.087806 0.25916
vt 0.069952 0.259124
vt 0.087806 0.25916
vt 0.093999 0.252331
vt 0.069952 0.252331
vt 0.069952 0.259124
vt 0.052099 0.25916
vt 0.069952 0.259124
vt 0.069952 0.252331
vt 0.045906 0.252331
vt 0.069952 0.260539
vt 0.069952 0.259124
vt 0.052099 0.25916
vt 0.0523 0.260571
vt 0.0523 0.260571
vt 0.052099 0.25916
vt 0.034269 0.259287
vt 0.034655 0.260692
vt 0.034269 0.259287
vt 0.052099 0.25916
vt 0.045906 0.252331
vt 0.021859 0.252331
vt 0.045906 0.252331
vt 0.069952 0.252331
vt 0.069952 0.250217
vt 0.045906 0.250217
vt 0.021859 0.252331
vt 0.045906 0.252331
vt 0.045906 0.250217
vt 0.021859 0.250217
vt 0.093999 0.252331
vt 0.093999 0.250217
vt 0.069952 0.250217
vt 0.069952 0.252331
vt 0.021859 0.250217
vt 0.00621 0.250217
vt 0.006693 0.252261
vt 0.021859 0.252331
vt 0.006693 0.252261
vt 0.00621 0.250217
vt 0.001819 0.251998
vt 0.003228 0.25348
vt 0.003228 0.25348
vt 0.001819 0.251998
vt 0 0.256298
vt 0.001887 0.256859
vt 0.001887 0.256859
vt 0 0.256298
vt 0 0.305131
vt 0.001887 0.30491
vt 0.001792 0.309539
vt 0.003196 0.308405
vt 0.001887 0.30491
vt 0 0.305131
vt 0.016724 0.297002
vt 0.001887 0.30491
vt 0.003196 0.308405
vt 0.001887 0.256859
vt 0.001887 0.30491
vt 0.016724 0.297002
vt 0.016619 0.262248
vt 0.016724 0.297002
vt 0.018129 0.296065
vt 0.018132 0.262998
vt 0.016619 0.262248
vt 0.018129 0.296065
vt 0.016724 0.297002
vt 0.01921 0.299465
vt 0.019929 0.297951
vt 0.01921 0.299465
vt 0.016724 0.297002
vt 0.003196 0.308405
vt 0.006589 0.309682
vt 0.019216 0.259457
vt 0.016619 0.262248
vt 0.018132 0.262998
vt 0.01998 0.26085
vt 0.019216 0.259457
vt 0.006693 0.252261
vt 0.003228 0.25348
vt 0.016619 0.262248
vt 0.016619 0.262248
vt 0.003228 0.25348
vt 0.001887 0.256859
vt 0.034655 0.260692
vt 0.034269 0.259287
vt 0.019216 0.259457
vt 0.01998 0.26085
vt 0.034269 0.259287
vt 0.021859 0.252331
vt 0.006693 0.252261
vt 0.019216 0.259457
vt 0.018132 0.262998
vt 0.022167 0.265397
vt 0.01998 0.26085
vt 0.022167 0.265397
vt 0.03465 0.266222
vt 0.034655 0.260692
vt 0.01998 0.26085
vt 0.022167 0.265397
vt 0.022109 0.293664
vt 0.034641 0.292797
vt 0.03465 0.266222
vt 0.018129 0.296065
vt 0.022109 0.293664
vt 0.022167 0.265397
vt 0.018132 0.262998
vt 0.022109 0.293664
vt 0.019929 0.297951
vt 0.034645 0.298294
vt 0.034641 0.292797
vt 0.018129 0.296065
vt 0.019929 0.297951
vt 0.022109 0.293664
vt 0.034382 0.299822
vt 0.034645 0.298294
vt 0.019929 0.297951
vt 0.01921 0.299465
vt 0.034645 0.298294
vt 0.034382 0.299822
vt 0.052155 0.300086
vt 0.052291 0.298555
vt 0.052288 0.293009
vt 0.034641 0.292797
vt 0.034645 0.298294
vt 0.052291 0.298555
vt 0.052291 0.298555
vt 0.052155 0.300086
vt 0.069952 0.30016
vt 0.069952 0.298626
vt 0.069952 0.293067
vt 0.052288 0.293009
vt 0.052291 0.298555
vt 0.069952 0.298626
vt 0.052295 0.26617
vt 0.03465 0.266222
vt 0.034641 0.292797
vt 0.052288 0.293009
vt 0.069952 0.266157
vt 0.052295 0.26617
vt 0.052288 0.293009
vt 0.069952 0.293067
vt 0.069952 0.260539
vt 0.0523 0.260571
vt 0.052295 0.26617
vt 0.069952 0.266157
vt 0.0523 0.260571
vt 0.034655 0.260692
vt 0.03465 0.266222
vt 0.052295 0.26617
vt 0.069952 0.266157
vt 0.069952 0.293067
vt 0.087617 0.293009
vt 0.08761 0.26617
vt 0.069952 0.260539
vt 0.069952 0.266157
vt 0.08761 0.26617
vt 0.087605 0.260571
vt 0.08761 0.26617
vt 0.087617 0.293009
vt 0.105263 0.292797
vt 0.105255 0.266222
vt 0.087605 0.260571
vt 0.08761 0.26617
vt 0.105255 0.266222
vt 0.10525 0.260692
vt 0.087617 0.293009
vt 0.087614 0.298555
vt 0.10526 0.298294
vt 0.105263 0.292797
vt 0.069952 0.293067
vt 0.069952 0.298626
vt 0.087614 0.298555
vt 0.087617 0.293009
vt 0.087614 0.298555
vt 0.069952 0.298626
vt 0.069952 0.30016
vt 0.08775 0.300086
vt 0.10526 0.298294
vt 0.087614 0.298555
vt 0.08775 0.300086
vt 0.105523 0.299822
vt 0.105523 0.299822
vt 0.120695 0.299465
vt 0.119976 0.297951
vt 0.10526 0.298294
vt 0.117796 0.293664
vt 0.105263 0.292797
vt 0.10526 0.298294
vt 0.119976 0.297951
vt 0.121776 0.296065
vt 0.117796 0.293664
vt 0.119976 0.297951
vt 0.117738 0.265397
vt 0.105255 0.266222
vt 0.105263 0.292797
vt 0.117796 0.293664
vt 0.121776 0.296065
vt 0.121773 0.262998
vt 0.117738 0.265397
vt 0.117796 0.293664
vt 0.117738 0.265397
vt 0.119925 0.26085
vt 0.10525 0.260692
vt 0.105255 0.266222
vt 0.121773 0.262998
vt 0.119925 0.26085
vt 0.117738 0.265397
vt 0.08775 0.300086
vt 0.093999 0.30962
vt 0.118046 0.30962
vt 0.105523 0.299822
vt 0.120695 0.299465
vt 0.105523 0.299822
vt 0.118046 0.30962
vt 0.133316 0.309682
vt 0.093999 0.30962
vt 0.093999 0.311364
vt 0.118046 0.311364
vt 0.118046 0.30962
vt 0.133788 0.311364
vt 0.133316 0.309682
vt 0.118046 0.30962
vt 0.118046 0.311364
vt 0.133788 0.311364
vt 0.138113 0.309539
vt 0.136709 0.308405
vt 0.133316 0.309682
vt 0.069952 0.30962
vt 0.069952 0.311364
vt 0.093999 0.311364
vt 0.093999 0.30962
vt 0.069952 0.30962
vt 0.045906 0.30962
vt 0.045906 0.311364
vt 0.069952 0.311364
vt 0.045906 0.30962
vt 0.021859 0.30962
vt 0.021859 0.311364
vt 0.045906 0.311364
vt 0.006117 0.311364
vt 0.021859 0.311364
vt 0.021859 0.30962
vt 0.006589 0.309682
vt 0.006117 0.311364
vt 0.006589 0.309682
vt 0.003196 0.308405
vt 0.001792 0.309539
vt 0.01921 0.299465
vt 0.006589 0.309682
vt 0.021859 0.30962
vt 0.034382 0.299822
vt 0.052155 0.300086
vt 0.034382 0.299822
vt 0.021859 0.30962
vt 0.045906 0.30962
vt 0.069952 0.30016
vt 0.052155 0.300086
vt 0.045906 0.30962
vt 0.069952 0.30962
vt 0.069952 0.30016
vt 0.069952 0.30962
vt 0.093999 0.30962
vt 0.08775 0.300086
s off
f 1/1/1 2/2/2 3/3/3
f 1/1/1 3/3/3 4/4/4
f 5/5/5 6/6/6 7/7/7
f 5/5/5 7/7/7 8/8/8
f 9/9/9 10/10/10 11/11/11
f 9/9/9 11/11/11 12/12/12
f 13/13/13 14/14/14 15/15/15
f 13/13/13 15/15/15 16/16/16
f 17/17/17 18/18/18 19/19/19
f 17/17/17 19/19/19 20/20/20
f 21/21/21 22/22/22 23/23/23
f 21/21/21 23/23/23 24/24/24
f 25/25/25 26/26/26 27/27/27
f 28/28/28 29/29/29 30/30/30
f 28/28/28 30/30/30 31/31/31
f 32/32/32 33/33/33 34/34/34
f 32/32/32 34/34/34 35/35/35
f 36/36/36 37/37/37 38/38/38
f 36/36/36 38/38/38 39/39/39
f 40/40/40 41/41/41 42/42/42
f 40/40/40 42/42/42 43/43/43
f 44/44/44 45/45/45 46/46/46
f 44/44/44 46/46/46 47/47/47
f 48/48/48 49/49/49 50/50/50
f 48/48/48 50/50/50 51/51/51
f 52/52/52 53/53/53 54/54/54
f 55/55/55 56/56/56 57/57/57
f 55/55/55 57/57/57 58/58/58
f 59/59/59 60/60/60 61/61/61
f 59/59/59 61/61/61 62/62/62
f 63/63/63 64/64/64 65/65/65
f 63/63/63 65/65/65 66/66/66
f 67/67/67 68/68/68 69/69/69
f 67/67/67 69/69/69 70/70/70
f 71/71/71 72/72/72 73/73/73
f 71/71/71 73/73/73 74/74/74
f 75/75/75 76/76/76 77/77/77
f 75/75/75 77/77/77 78/78/78
f 79/79/79 80/80/80 81/81/81
f 79/79/79 81/81/81 82/82/82
f 83/83/83 84/84/84 85/85/85
f 83/83/83 85/85/85 86/86/86
f 87/87/87 88/88/88 89/89/89
f 87/87/87 89/89/89 90/90/90
f 91/91/91 92/92/92 93/93/93
f 91/91/91 93/93/93 94/94/94
f 95/95/95 96/96/96 97/97/97
f 95/95/95 97/97/97 98/98/98
f 99/99/99 100/100/100 101/101/101
f 99/99/99 101/101/101 102/102/102
f 103/103/103 104/104/104 105/105/105
f 103/103/103 105/105/105 106/106/106
f 107/107/107 108/108/108 109/109/109
f 107/107/107 109/109/109 110/110/110
f 111/111/111 112/112/112 113/113/113
f 111/111/111 113/113/113 114/114/114
f 115/115/115 116/116/116 117/117/117
f 115/115/115 117/117/117 118/118/118
f 119/119/119 120/120/120 121/121/121
f 119/119/119 121/121/121 122/122/122
f 123/123/123 124/124/124 125/125/125
f 123/123/123 125/125/125 126/126/126
f 127/127/127 128/128/128 129/129/129
f 130/130/130 131/131/131 132/132/132
f 130/130/130 132/132/132 133/133/133
f 134/134/134 135/135/135 136/136/136
f 134/134/134 136/136/136 137/137/137
f 138/138/138 139/139/139 140/140/140
f 138/138/138 140/140/140 141/141/141
f 142/142/142 143/143/143 144/144/144
f 142/142/142 144/144/144 145/145/145
f 146/146/146 147/147/147 148/148/148
f 146/146/146 148/148/148 149/149/149
f 150/150/150 151/151/151 152/152/152
f 150/150/150 152/152/152 153/153/153
f 154/154/154 155/155/155 156/156/156
f 157/157/157 158/158/158 159/159/159
f 157/157/157 159/159/159 160/160/160
f 161/161/161 162/162/162 163/163/163
f 161/161/161 163/163/163 164/164/164
f 165/165/165 166/166/166 167/167/167
f 168/168/168 169/169/169 170/170/170
f 168/168/168 170/170/170 171/171/171
f 172/172/172 173/173/173 174/174/174
f 172/172/172 174/174/174 175/175/175
f 176/176/176 177/177/177 178/178/178
f 176/176/176 178/178/178 179/179/179
f 180/180/180 181/181/181 182/182/182
f 180/180/180 182/182/182 183/183/183
f 184/184/184 185/185/185 186/186/186
f 187/187/187 188/188/188 189/189/189
f 187/187/187 189/189/189 190/190/190
f 191/191/191 192/192/192 193/193/193
f 191/191/191 193/193/193 194/194/194
f 195/195/195 196/196/196 197/197/197
f 195/195/195 197/197/197 198/198/198
f 199/199/199 200/200/200 201/201/201
f 199/199/199 201/201/201 202/202/202
f 203/203/203 204/204/204 205/205/205
f 203/203/203 205/205/205 206/206/206
f 207/207/207 208/208/208 209/209/209
f 207/207/207 209/209/209 210/210/210
f 211/211/211 212/212/212 213/213/213
f 211/211/211 213/213/213 214/214/214
f 215/215/215 216/216/216 217/217/217
f 215/215/215 217/217/217 218/218/218
f 219/219/219 220/220/220 221/221/221
f 219/219/219 221/221/221 222/222/222
f 223/223/223 224/224/224 225/225/225
f 223/223/223 225/225/225 226/226/226
f 227/227/227 228/228/228 229/229/229
f 227/227/227 229/229/229 230/230/230
f 231/231/231 232/232/232 233/233/233
f 231/231/231 233/233/233 234/234/234
f 235/235/235 236/236/236 237/237/237
f 235/235/235 237/237/237 238/238/238
f 239/239/239 240/240/240 241/241/241
f 239/239/239 241/241/241 242/242/242
f 243/243/243 244/244/244 245/245/245
f 243/243/243 245/245/245 246/246/246
f 247/247/247 248/248/248 249/249/249
f 247/247/247 249/249/249 250/250/250
f 251/251/251 252/252/252 253/253/253
f 251/251/251 253/253/253 254/254/254
f 255/255/255 256/256/256 257/257/257
f 255/255/255 257/257/257 258/258/258
f 259/259/259 260/260/260 261/261/261
f 259/259/259 261/261/261 262/262/262
f 263/263/263 264/264/264 265/265/265
f 266/266/266 267/267/267 268/268/268
f 266/266/266 268/268/268 269/269/269
f 270/270/270 271/271/271 272/272/272
f 270/270/270 272/272/272 273/273/273
f 274/274/274 275/275/275 276/276/276
f 274/274/274 276/276/276 277/277/277
f 278/278/278 279/279/279 280/280/280
f 281/281/281 282/282/282 283/283/283
f 281/281/281 283/283/283 284/284/284
f 285/285/285 286/286/286 287/287/287
f 285/285/285 287/287/287 288/288/288
f 289/289/289 290/290/290 291/291/291
f 289/289/289 291/291/291 292/292/292
f 293/293/293 294/294/294 295/295/295
f 293/293/293 295/295/295 296/296/296
f 297/297/297 298/298/298 299/299/299
f 297/297/297 299/299/299 300/300/300
f 301/301/301 302/302/302 303/303/303
f 301/301/301 303/303/303 304/304/304
f 305/305/305 306/306/306 307/307/307
f 305/305/305 307/307/307 308/308/308
f 309/309/309 310/310/310 311/311/311
f 309/309/309 311/311/311 312/312/312
f 313/313/313 314/314/314 315/315/315
f 313/313/313 315/315/315 316/316/316
f 317/317/317 318/318/318 319/319/319
f 317/317/317 319/319/319 320/320/320
f 321/321/321 322/322/322 323/323/323
f 321/321/321 323/323/323 324/324/324
f 325/325/325 326/326/326 327/327/327
f 325/325/325 327/327/327 328/328/328
f 329/329/329 330/330/330 331/331/331
f 329/329/329 331/331/331 332/332/332
f 333/333/333 334/334/334 335/335/335
f 333/333/333 335/335/335 336/336/336
