v 0.578073 0.163925 0.162122
v 0.57438 0.164351 0.163437
v 0.577035 0.164287 0.164649
v 0.605629 0.162507 0.165086
v 0.605629 0.163449 0.173912
v 0.608441 0.16331 0.173912
v 0.591413 0.164251 0.173912
v 0.594225 0.163088 0.165086
v 0.591413 0.162067 0.154072
v 0.605629 0.161364 0.154072
v 0.605629 0.162241 0.162586
v 0.608441 0.16331 0.173912
v 0.636014 0.161539 0.165867
v 0.636014 0.161284 0.163445
v 0.626094 0.161685 0.165867
v 0.575638 0.165118 0.171106
v 0.574126 0.165453 0.173083
v 0.578169 0.165279 0.174238
v 0.57662 0.163132 0.154085
v 0.577277 0.163355 0.156512
v 0.580793 0.163052 0.156166
v 0.580942 0.162771 0.153766
v 0.580793 0.163052 0.156166
v 0.584054 0.162602 0.154341
v 0.575741 0.16395 0.160775
v 0.572856 0.164257 0.16158
v 0.57438 0.164351 0.163437
v 0.584376 0.164322 0.169871
v 0.587364 0.163984 0.168862
v 0.584499 0.164118 0.168144
v 0.586499 0.162552 0.155539
v 0.583598 0.162912 0.156796
v 0.58556 0.162877 0.157804
v 0.638514 0.160322 0.154072
v 0.64531 0.160423 0.156493
v 0.648122 0.160383 0.156493
v 0.575334 0.163719 0.158447
v 0.57248 0.163923 0.158356
v 0.575741 0.16395 0.160775
v 0.575638 0.165118 0.171106
v 0.572027 0.165463 0.171758
v 0.574126 0.165453 0.173083
v 0.584376 0.164322 0.169871
v 0.586705 0.164273 0.171002
v 0.587364 0.163984 0.168862
v 0.626094 0.161685 0.165867
v 0.623204 0.162593 0.173912
v 0.626094 0.162543 0.173912
v 0.594225 0.163088 0.165086
v 0.591413 0.164251 0.173912
v 0.594225 0.164079 0.173912
v 0.617268 0.160789 0.154072
v 0.614456 0.160928 0.154072
v 0.617268 0.162875 0.173912
v 0.623204 0.160539 0.154072
v 0.626094 0.161427 0.163445
v 0.626094 0.160694 0.156493
v 0.648122 0.162213 0.173912
v 0.64531 0.160423 0.156493
v 0.64531 0.162253 0.173912
v 0.638514 0.160322 0.154072
v 0.638514 0.160519 0.156493
v 0.64531 0.160423 0.156493
v 0.648122 0.160383 0.156493
v 0.654917 0.160296 0.156493
v 0.638514 0.160322 0.154072
v 0.654917 0.160296 0.156493
v 0.654917 0.160107 0.154072
v 0.638514 0.160322 0.154072
v 0.623204 0.160539 0.154072
v 0.626094 0.161685 0.165867
v 0.626094 0.161427 0.163445
v 0.583811 0.164046 0.167035
v 0.583676 0.163676 0.163656
v 0.581363 0.16409 0.165786
v 0.581363 0.16409 0.165786
v 0.583676 0.163676 0.163656
v 0.578073 0.163925 0.162122
v 0.626094 0.160694 0.156493
v 0.637264 0.16034 0.154072
v 0.623204 0.160539 0.154072
v 0.581363 0.16409 0.165786
v 0.578073 0.163925 0.162122
v 0.577035 0.164287 0.164649
v 0.584499 0.164118 0.168144
v 0.587364 0.163984 0.168862
v 0.587029 0.163725 0.166338
v 0.575741 0.16395 0.160775
v 0.57248 0.163923 0.158356
v 0.572856 0.164257 0.16158
v 0.572027 0.165463 0.171758
v 0.575638 0.165118 0.171106
v 0.573053 0.165139 0.169562
v 0.577277 0.163355 0.156512
v 0.573881 0.163534 0.155825
v 0.575334 0.163719 0.158447
v 0.584927 0.164617 0.172871
v 0.582538 0.164638 0.171454
v 0.582275 0.164936 0.173935
v 0.605629 0.162241 0.162586
v 0.605629 0.162507 0.165086
v 0.608441 0.16331 0.173912
v 0.591413 0.162067 0.154072
v 0.594225 0.162807 0.162586
v 0.594225 0.161928 0.154072
v 0.583811 0.164046 0.167035
v 0.587029 0.163725 0.166338
v 0.585718 0.163646 0.164751
v 0.584376 0.164322 0.169871
v 0.584927 0.164617 0.172871
v 0.586705 0.164273 0.171002
v 0.578073 0.163925 0.162122
v 0.575741 0.16395 0.160775
v 0.57438 0.164351 0.163437
v 0.637264 0.16034 0.154072
v 0.626094 0.160694 0.156493
v 0.637264 0.160536 0.156493
v 0.584376 0.164322 0.169871
v 0.582538 0.164638 0.171454
v 0.584927 0.164617 0.172871
v 0.591413 0.162067 0.154072
v 0.594225 0.163088 0.165086
v 0.594225 0.162807 0.162586
v 0.605629 0.161364 0.154072
v 0.608441 0.16331 0.173912
v 0.608441 0.161225 0.154072
v 0.617268 0.162875 0.173912
v 0.614456 0.160928 0.154072
v 0.614456 0.163013 0.173912
v 0.626094 0.161685 0.165867
v 0.636014 0.161284 0.163445
v 0.626094 0.161427 0.163445
v 0.648122 0.162213 0.173912
v 0.648122 0.160383 0.156493
v 0.64531 0.160423 0.156493
v 0.583598 0.162912 0.156796
v 0.586499 0.162552 0.155539
v 0.584054 0.162602 0.154341
v 0.605629 0.162507 0.165086
v 0.605629 0.162241 0.162586
v 0.594225 0.162807 0.162586
v 0.594225 0.163088 0.165086
v 0.582275 0.164936 0.173935
v 0.582538 0.164638 0.171454
v 0.578948 0.164949 0.171822
v 0.578169 0.165279 0.174238
v 0.573881 0.163534 0.155825
v 0.57248 0.163923 0.158356
v 0.575334 0.163719 0.158447
v 0.577277 0.163355 0.156512
v 0.57662 0.163132 0.154085
v 0.573881 0.163534 0.155825
v 0.583811 0.164046 0.167035
v 0.585718 0.163646 0.164751
v 0.583676 0.163676 0.163656
v 0.626094 0.161685 0.165867
v 0.623204 0.160539 0.154072
v 0.623204 0.162593 0.173912
v 0.583811 0.164046 0.167035
v 0.584499 0.164118 0.168144
v 0.587029 0.163725 0.166338
v 0.584054 0.162602 0.154341
v 0.580793 0.163052 0.156166
v 0.583598 0.162912 0.156796
v 0.578948 0.164949 0.171822
v 0.575638 0.165118 0.171106
v 0.578169 0.165279 0.174238
v 0.580793 0.163052 0.156166
v 0.580942 0.162771 0.153766
v 0.57662 0.163132 0.154085
v 0.654917 0.160107 0.154072
v 0.654917 0.160107 0.154072
vn 0.0746 0.991 -0.1113
vn 0.0746 0.991 -0.1113
vn 0.0746 0.991 -0.1113
vn 0.049 0.9932 -0.1059
vn 0.049 0.9932 -0.1059
vn 0.049 0.9932 -0.1059
vn 0.0674 0.9917 -0.1091
vn 0.0674 0.9917 -0.1091
vn 0.0674 0.9917 -0.1091
vn 0.0343 0.9942 -0.1024
vn 0.0343 0.9942 -0.1024
vn 0.0343 0.9942 -0.1024
vn 0.0146 0.9944 -0.1045
vn 0.0146 0.9944 -0.1045
vn 0.0146 0.9944 -0.1045
vn 0.0746 0.991 -0.1113
vn 0.0746 0.991 -0.1113
vn 0.0746 0.991 -0.1113
vn 0.0745 0.991 -0.1113
vn 0.0745 0.991 -0.1113
vn 0.0745 0.991 -0.1113
vn 0.0746 0.991 -0.1113
vn 0.0746 0.991 -0.1113
vn 0.0746 0.991 -0.1113
vn 0.0745 0.991 -0.1113
vn 0.0745 0.991 -0.1113
vn 0.0745 0.991 -0.1113
vn 0.0746 0.991 -0.1113
vn 0.0746 0.991 -0.1113
vn 0.0746 0.991 -0.1113
vn 0.0745 0.991 -0.1113
vn 0.0745 0.991 -0.1113
vn 0.0745 0.991 -0.1113
vn 0.0141 0.9966 -0.081
vn 0.0141 0.9966 -0.081
vn 0.0141 0.9966 -0.081
vn 0.0745 0.991 -0.1113
vn 0.0745 0.991 -0.1113
vn 0.0745 0.991 -0.1113
vn 0.0746 0.991 -0.1113
vn 0.0746 0.991 -0.1113
vn 0.0746 0.991 -0.1113
vn 0.0746 0.991 -0.1113
vn 0.0746 0.991 -0.1113
vn 0.0746 0.991 -0.1113
vn 0.0173 0.9942 -0.106
vn 0.0173 0.9942 -0.106
vn 0.0173 0.9942 -0.106
vn 0.0604 0.9919 -0.1114
vn 0.0604 0.9919 -0.1114
vn 0.0604 0.9919 -0.1114
vn 0.0491 0.9933 -0.1044
vn 0.0491 0.9933 -0.1044
vn 0.0491 0.9933 -0.1044
vn 0.0344 0.9939 -0.1047
vn 0.0344 0.9939 -0.1047
vn 0.0344 0.9939 -0.1047
vn 0.014 0.9944 -0.1045
vn 0.014 0.9944 -0.1045
vn 0.014 0.9944 -0.1045
vn 0.014 0.9966 -0.0809
vn 0.014 0.9966 -0.0809
vn 0.014 0.9966 -0.0809
vn 0.0128 0.997 -0.076
vn 0.0128 0.997 -0.076
vn 0.0128 0.997 -0.076
vn 0.0131 0.9969 -0.0778
vn 0.0131 0.9969 -0.0778
vn 0.0131 0.9969 -0.0778
vn 0.0385 0.9936 -0.106
vn 0.0385 0.9936 -0.106
vn 0.0385 0.9936 -0.106
vn 0.0746 0.991 -0.1113
vn 0.0746 0.991 -0.1113
vn 0.0746 0.991 -0.1113
vn 0.0746 0.991 -0.1113
vn 0.0746 0.991 -0.1113
vn 0.0746 0.991 -0.1113
vn 0.0141 0.9966 -0.0807
vn 0.0141 0.9966 -0.0807
vn 0.0141 0.9966 -0.0807
vn 0.0746 0.991 -0.1113
vn 0.0746 0.991 -0.1113
vn 0.0746 0.991 -0.1113
vn 0.0746 0.991 -0.1113
vn 0.0746 0.991 -0.1113
vn 0.0746 0.991 -0.1113
vn 0.0746 0.991 -0.1113
vn 0.0746 0.991 -0.1113
vn 0.0746 0.991 -0.1113
vn 0.0746 0.991 -0.1113
vn 0.0746 0.991 -0.1113
vn 0.0746 0.991 -0.1113
vn 0.0745 0.991 -0.1113
vn 0.0745 0.991 -0.1113
vn 0.0745 0.991 -0.1113
vn 0.0746 0.991 -0.1113
vn 0.0746 0.991 -0.1113
vn 0.0746 0.991 -0.1113
vn 0.0489 0.9932 -0.1059
vn 0.0489 0.9932 -0.1059
vn 0.0489 0.9932 -0.1059
vn 0.0491 0.9935 -0.1026
vn 0.0491 0.9935 -0.1026
vn 0.0491 0.9935 -0.1026
vn 0.0746 0.991 -0.1113
vn 0.0746 0.991 -0.1113
vn 0.0746 0.991 -0.1113
vn 0.0745 0.991 -0.1113
vn 0.0745 0.991 -0.1113
vn 0.0745 0.991 -0.1113
vn 0.0746 0.991 -0.1113
vn 0.0746 0.991 -0.1113
vn 0.0746 0.991 -0.1113
vn 0.0141 0.9966 -0.0809
vn 0.0141 0.9966 -0.0809
vn 0.0141 0.9966 -0.0809
vn 0.0746 0.991 -0.1113
vn 0.0746 0.991 -0.1113
vn 0.0746 0.991 -0.1113
vn 0.0761 0.9909 -0.1113
vn 0.0761 0.9909 -0.1113
vn 0.0761 0.9909 -0.1113
vn 0.0491 0.9933 -0.1044
vn 0.0491 0.9933 -0.1044
vn 0.0491 0.9933 -0.1044
vn 0.049 0.9933 -0.1044
vn 0.049 0.9933 -0.1044
vn 0.049 0.9933 -0.1044
vn 0.0142 0.9943 -0.106
vn 0.0142 0.9943 -0.106
vn 0.0142 0.9943 -0.106
vn 0.014 0.9944 -0.1045
vn 0.014 0.9944 -0.1045
vn 0.014 0.9944 -0.1045
vn 0.0745 0.991 -0.1113
vn 0.0745 0.991 -0.1113
vn 0.0745 0.991 -0.1113
vn 0.0499 0.9928 -0.1087
vn 0.0499 0.9928 -0.1087
vn 0.0499 0.9928 -0.1087
vn 0.0499 0.9928 -0.1087
vn 0.0745 0.991 -0.1113
vn 0.0745 0.991 -0.1113
vn 0.0745 0.991 -0.1113
vn 0.0745 0.991 -0.1113
vn 0.0745 0.991 -0.1113
vn 0.0745 0.991 -0.1113
vn 0.0745 0.991 -0.1113
vn 0.0745 0.991 -0.1113
vn 0.0745 0.991 -0.1113
vn 0.0745 0.991 -0.1113
vn 0.0745 0.991 -0.1113
vn 0.0745 0.991 -0.1113
vn 0.0745 0.991 -0.1113
vn 0.0259 0.9943 -0.103
vn 0.0259 0.9943 -0.103
vn 0.0259 0.9943 -0.103
vn 0.0746 0.991 -0.1113
vn 0.0746 0.991 -0.1113
vn 0.0746 0.991 -0.1113
vn 0.0746 0.991 -0.1113
vn 0.0746 0.991 -0.1113
vn 0.0746 0.991 -0.1113
vn 0.0745 0.991 -0.1113
vn 0.0745 0.991 -0.1113
vn 0.0745 0.991 -0.1113
vn 0.0746 0.991 -0.1113
vn 0.0746 0.991 -0.1113
vn 0.0746 0.991 -0.1113
vn 0 0 0
vn 0 0 0
vt 0.784512 0.655264
vt 0.782709 0.655906
vt 0.784005 0.656498
vt 0.797969 0.656711
vt 0.797969 0.661022
vt 0.799342 0.661022
vt 0.791027 0.661022
vt 0.7924 0.656711
vt 0.791027 0.651333
vt 0.797969 0.651333
vt 0.797969 0.655491
vt 0.799342 0.661022
vt 0.812807 0.657093
vt 0.812807 0.65591
vt 0.807963 0.657093
vt 0.783323 0.659651
vt 0.782585 0.660617
vt 0.784559 0.661181
vt 0.783802 0.651339
vt 0.784123 0.652524
vt 0.78584 0.652355
vt 0.785913 0.651183
vt 0.78584 0.652355
vt 0.787433 0.651464
vt 0.783373 0.654606
vt 0.781964 0.654999
vt 0.782709 0.655906
vt 0.78759 0.659048
vt 0.789049 0.658555
vt 0.78765 0.658205
vt 0.788627 0.652049
vt 0.78721 0.652663
vt 0.788168 0.653155
vt 0.814028 0.651333
vt 0.817347 0.652515
vt 0.81872 0.652515
vt 0.783174 0.653469
vt 0.781781 0.653425
vt 0.783373 0.654606
vt 0.783323 0.659651
vt 0.781559 0.65997
vt 0.782585 0.660617
vt 0.78759 0.659048
vt 0.788727 0.6596
vt 0.789049 0.658555
vt 0.807963 0.657093
vt 0.806552 0.661022
vt 0.807963 0.661022
vt 0.7924 0.656711
vt 0.791027 0.661022
vt 0.7924 0.661022
vt 0.803653 0.651333
vt 0.802279 0.651333
vt 0.803653 0.661022
vt 0.806552 0.651333
vt 0.807963 0.65591
vt 0.807963 0.652515
vt 0.81872 0.661022
vt 0.817347 0.652515
vt 0.817347 0.661022
vt 0.814028 0.651333
vt 0.814028 0.652515
vt 0.817347 0.652515
vt 0.81872 0.652515
vt 0.822038 0.652515
vt 0.814028 0.651333
vt 0.822038 0.652515
vt 0.822038 0.651333
vt 0.814028 0.651333
vt 0.806552 0.651333
vt 0.807963 0.657093
vt 0.807963 0.65591
vt 0.787314 0.657663
vt 0.787248 0.656013
vt 0.786118 0.657053
vt 0.786118 0.657053
vt 0.787248 0.656013
vt 0.784512 0.655264
vt 0.807963 0.652515
vt 0.813417 0.651333
vt 0.806552 0.651333
vt 0.786118 0.657053
vt 0.784512 0.655264
vt 0.784005 0.656498
vt 0.78765 0.658205
vt 0.789049 0.658555
vt 0.788886 0.657323
vt 0.783373 0.654606
vt 0.781781 0.653425
vt 0.781964 0.654999
vt 0.781559 0.65997
vt 0.783323 0.659651
vt 0.782061 0.658897
vt 0.784123 0.652524
vt 0.782465 0.652189
vt 0.783174 0.653469
vt 0.787859 0.660513
vt 0.786692 0.659821
vt 0.786564 0.661033
vt 0.797969 0.655491
vt 0.797969 0.656711
vt 0.799342 0.661022
vt 0.791027 0.651333
vt 0.7924 0.655491
vt 0.7924 0.651333
vt 0.787314 0.657663
vt 0.788886 0.657323
vt 0.788245 0.656548
vt 0.78759 0.659048
vt 0.787859 0.660513
vt 0.788727 0.6596
vt 0.784512 0.655264
vt 0.783373 0.654606
vt 0.782709 0.655906
vt 0.813417 0.651333
vt 0.807963 0.652515
vt 0.813417 0.652515
vt 0.78759 0.659048
vt 0.786692 0.659821
vt 0.787859 0.660513
vt 0.791027 0.651333
vt 0.7924 0.656711
vt 0.7924 0.655491
vt 0.797969 0.651333
vt 0.799342 0.661022
vt 0.799342 0.651333
vt 0.803653 0.661022
vt 0.802279 0.651333
vt 0.802279 0.661022
vt 0.807963 0.657093
vt 0.812807 0.65591
vt 0.807963 0.65591
vt 0.81872 0.661022
vt 0.81872 0.652515
vt 0.817347 0.652515
vt 0.78721 0.652663
vt 0.788627 0.652049
vt 0.787433 0.651464
vt 0.797969 0.656711
vt 0.797969 0.655491
vt 0.7924 0.655491
vt 0.7924 0.656711
vt 0.786564 0.661033
vt 0.786692 0.659821
vt 0.784939 0.660001
vt 0.784559 0.661181
vt 0.782465 0.652189
vt 0.781781 0.653425
vt 0.783174 0.653469
vt 0.784123 0.652524
vt 0.783802 0.651339
vt 0.782465 0.652189
vt 0.787314 0.657663
vt 0.788245 0.656548
vt 0.787248 0.656013
vt 0.807963 0.657093
vt 0.806552 0.651333
vt 0.806552 0.661022
vt 0.787314 0.657663
vt 0.78765 0.658205
vt 0.788886 0.657323
vt 0.787433 0.651464
vt 0.78584 0.652355
vt 0.78721 0.652663
vt 0.784939 0.660001
vt 0.783323 0.659651
vt 0.784559 0.661181
vt 0.78584 0.652355
vt 0.785913 0.651183
vt 0.783802 0.651339
vt 0 1
vt 0 1
s off
f 1/1/1 2/2/2 3/3/3
f 4/4/4 5/5/5 6/6/6
f 7/7/7 8/8/8 9/9/9
f 10/10/10 11/11/11 12/12/12
f 13/13/13 14/14/14 15/15/15
f 16/16/16 17/17/17 18/18/18
f 19/19/19 20/20/20 21/21/21
f 22/22/22 23/23/23 24/24/24
f 25/25/25 26/26/26 27/27/27
f 28/28/28 29/29/29 30/30/30
f 31/31/31 32/32/32 33/33/33
f 34/34/34 35/35/35 36/36/36
f 37/37/37 38/38/38 39/39/39
f 40/40/40 41/41/41 42/42/42
f 43/43/43 44/44/44 45/45/45
f 46/46/46 47/47/47 48/48/48
f 49/49/49 50/50/50 51/51/51
f 52/52/52 53/53/53 54/54/54
f 55/55/55 56/56/56 57/57/57
f 58/58/58 59/59/59 60/60/60
f 61/61/61 62/62/62 63/63/63
f 64/64/64 65/65/65 66/66/66
f 67/67/67 68/68/68 69/69/69
f 70/70/70 71/71/71 72/72/72
f 73/73/73 74/74/74 75/75/75
f 76/76/76 77/77/77 78/78/78
f 79/79/79 80/80/80 81/81/81
f 82/82/82 83/83/83 84/84/84
f 85/85/85 86/86/86 87/87/87
f 88/88/88 89/89/89 90/90/90
f 91/91/91 92/92/92 93/93/93
f 94/94/94 95/95/95 96/96/96
f 97/97/97 98/98/98 99/99/99
f 100/100/100 101/101/101 102/102/102
f 103/103/103 104/104/104 105/105/105
f 106/106/106 107/107/107 108/108/108
f 109/109/109 110/110/110 111/111/111
f 112/112/112 113/113/113 114/114/114
f 115/115/115 116/116/116 117/117/117
f 118/118/118 119/119/119 120/120/120
f 121/121/121 122/122/122 123/123/123
f 124/124/124 125/125/125 126/126/126
f 127/127/127 128/128/128 129/129/129
f 130/130/130 131/131/131 132/132/132
f 133/133/133 134/134/134 135/135/135
f 136/136/136 137/137/137 138/138/138
f 139/139/139 140/140/140 141/141/141
f 139/139/139 141/141/141 142/142/142
f 143/143/143 144/144/144 145/145/145
f 143/143/143 145/145/145 146/146/146
f 147/147/147 148/148/148 149/149/149
f 150/150/150 151/151/151 152/152/152
f 153/153/153 154/154/154 155/155/155
f 156/156/156 157/157/157 158/158/158
f 159/159/159 160/160/160 161/161/161
f 162/162/162 163/163/163 164/164/164
f 165/165/165 166/166/166 167/167/167
f 168/168/168 169/169/169 170/170/170
