v 0.730114 0.124708 0.130498
v 0.730114 0.113446 0.130128
v 0.69238 0.113446 0.130128
v 0.69238 0.124708 0.130498
v 0.730114 0.113446 0.130128
v 0.730114 0.124708 0.130498
v 0.751736 0.124708 0.130498
v 0.751751 0.113446 0.130128
v 0.751736 0.124708 0.130498
v 0.760701 0.124589 0.134132
v 0.760705 0.113327 0.13376
v 0.751751 0.113446 0.130128
v 0.760701 0.124589 0.134132
v 0.764415 0.124301 0.142904
v 0.764415 0.113039 0.142529
v 0.760705 0.113327 0.13376
v 0.764415 0.109766 0.24212
v 0.764415 0.113039 0.142529
v 0.764415 0.124301 0.142904
v 0.764415 0.121029 0.242473
v 0.760761 0.109471 0.251109
v 0.764415 0.109766 0.24212
v 0.764415 0.121029 0.242473
v 0.760758 0.120733 0.251474
v 0.760758 0.120733 0.251474
v 0.764415 0.121029 0.242473
v 0.750601 0.170902 0.230061
v 0.744641 0.171115 0.23607
v 0.764415 0.124301 0.142904
v 0.750853 0.16077 0.145936
v 0.750601 0.170902 0.230061
v 0.764415 0.121029 0.242473
v 0.747145 0.173146 0.228589
v 0.743933 0.173346 0.232331
v 0.744641 0.171115 0.23607
v 0.750601 0.170902 0.230061
v 0.747145 0.173146 0.228589
v 0.750601 0.170902 0.230061
v 0.750853 0.16077 0.145936
v 0.747138 0.163276 0.146967
v 0.743723 0.162593 0.142582
v 0.747138 0.163276 0.146967
v 0.750853 0.16077 0.145936
v 0.744634 0.159596 0.139156
v 0.744634 0.159596 0.139156
v 0.750853 0.16077 0.145936
v 0.760701 0.124589 0.134132
v 0.751736 0.124708 0.130498
v 0.750853 0.16077 0.145936
v 0.764415 0.124301 0.142904
v 0.760701 0.124589 0.134132
v 0.71817 0.160932 0.142206
v 0.743723 0.162593 0.142582
v 0.744634 0.159596 0.139156
v 0.719051 0.158033 0.138768
v 0.719051 0.158033 0.138768
v 0.744634 0.159596 0.139156
v 0.751736 0.124708 0.130498
v 0.730114 0.124708 0.130498
v 0.719051 0.158033 0.138768
v 0.686878 0.15679 0.138459
v 0.686421 0.159645 0.141906
v 0.71817 0.160932 0.142206
v 0.719051 0.158033 0.138768
v 0.730114 0.124708 0.130498
v 0.69238 0.124708 0.130498
v 0.686878 0.15679 0.138459
v 0.686878 0.15679 0.138459
v 0.654645 0.156444 0.138374
v 0.654645 0.159285 0.141823
v 0.686421 0.159645 0.141906
v 0.686878 0.15679 0.138459
v 0.69238 0.124708 0.130498
v 0.654646 0.124708 0.130498
v 0.654645 0.156444 0.138374
v 0.69238 0.124708 0.130498
v 0.69238 0.113446 0.130128
v 0.654646 0.113446 0.130128
v 0.654646 0.124708 0.130498
v 0.654646 0.124708 0.130498
v 0.654646 0.113446 0.130128
v 0.616911 0.113446 0.130128
v 0.616911 0.124708 0.130498
v 0.654645 0.156444 0.138374
v 0.654646 0.124708 0.130498
v 0.616911 0.124708 0.130498
v 0.622413 0.15679 0.138459
v 0.616911 0.124708 0.130498
v 0.616911 0.113446 0.130128
v 0.579177 0.113446 0.130128
v 0.579177 0.124708 0.130498
v 0.557541 0.113446 0.130128
v 0.557555 0.124708 0.130498
v 0.579177 0.124708 0.130498
v 0.579177 0.113446 0.130128
v 0.557541 0.113446 0.130128
v 0.548586 0.113327 0.13376
v 0.54859 0.124589 0.134131
v 0.557555 0.124708 0.130498
v 0.548586 0.113327 0.13376
v 0.544876 0.113039 0.142529
v 0.544876 0.124301 0.142904
v 0.54859 0.124589 0.134131
v 0.544876 0.109766 0.24212
v 0.544876 0.121029 0.242473
v 0.544876 0.124301 0.142904
v 0.544876 0.113039 0.142529
v 0.544876 0.109766 0.24212
v 0.54853 0.109471 0.251109
v 0.548532 0.120733 0.251474
v 0.544876 0.121029 0.242473
v 0.54853 0.109471 0.251109
v 0.557352 0.109349 0.254832
v 0.557359 0.120611 0.255202
v 0.548532 0.120733 0.251474
v 0.579177 0.109349 0.254832
v 0.579177 0.120611 0.255202
v 0.557359 0.120611 0.255202
v 0.557352 0.109349 0.254832
v 0.579177 0.120611 0.255202
v 0.579177 0.109349 0.254832
v 0.616911 0.109349 0.254832
v 0.616911 0.120611 0.255202
v 0.616911 0.120611 0.255202
v 0.616911 0.109349 0.254832
v 0.654645 0.109349 0.254832
v 0.654645 0.120611 0.255202
v 0.654645 0.120611 0.255202
v 0.654645 0.109349 0.254832
v 0.692379 0.109349 0.254832
v 0.692379 0.120611 0.255202
v 0.692379 0.120611 0.255202
v 0.692379 0.109349 0.254832
v 0.730113 0.109349 0.254832
v 0.730113 0.120611 0.255202
v 0.751939 0.109349 0.254832
v 0.751932 0.120611 0.255202
v 0.730113 0.120611 0.255202
v 0.730113 0.109349 0.254832
v 0.751939 0.109349 0.254832
v 0.760761 0.109471 0.251109
v 0.760758 0.120733 0.251474
v 0.751932 0.120611 0.255202
v 0.751932 0.120611 0.255202
v 0.760758 0.120733 0.251474
v 0.744641 0.171115 0.23607
v 0.744641 0.171115 0.23607
v 0.718803 0.168958 0.236887
v 0.730113 0.120611 0.255202
v 0.751932 0.120611 0.255202
v 0.686759 0.167265 0.237529
v 0.692379 0.120611 0.255202
v 0.730113 0.120611 0.255202
v 0.718803 0.168958 0.236887
v 0.718202 0.171147 0.233152
v 0.686449 0.16944 0.233792
v 0.686759 0.167265 0.237529
v 0.718803 0.168958 0.236887
v 0.743933 0.173346 0.232331
v 0.718202 0.171147 0.233152
v 0.718803 0.168958 0.236887
v 0.744641 0.171115 0.23607
v 0.686449 0.16944 0.233792
v 0.654645 0.168962 0.23397
v 0.654645 0.166793 0.237707
v 0.686759 0.167265 0.237529
v 0.654645 0.166793 0.237707
v 0.654645 0.120611 0.255202
v 0.692379 0.120611 0.255202
v 0.686759 0.167265 0.237529
v 0.654645 0.168962 0.23397
v 0.622842 0.16944 0.233792
v 0.622532 0.167265 0.237529
v 0.654645 0.166793 0.237707
v 0.622532 0.167265 0.237529
v 0.616911 0.120611 0.255202
v 0.654645 0.120611 0.255202
v 0.654645 0.166793 0.237707
v 0.622842 0.16944 0.233792
v 0.591089 0.171147 0.233152
v 0.590488 0.168958 0.236887
v 0.622532 0.167265 0.237529
v 0.590488 0.168958 0.236887
v 0.579177 0.120611 0.255202
v 0.616911 0.120611 0.255202
v 0.622532 0.167265 0.237529
v 0.591089 0.171147 0.233152
v 0.565358 0.173346 0.232331
v 0.56465 0.171115 0.23607
v 0.590488 0.168958 0.236887
v 0.590488 0.168958 0.236887
v 0.56465 0.171115 0.23607
v 0.557359 0.120611 0.255202
v 0.579177 0.120611 0.255202
v 0.565358 0.173346 0.232331
v 0.562146 0.173146 0.228589
v 0.55869 0.170902 0.230061
v 0.56465 0.171115 0.23607
v 0.544876 0.121029 0.242473
v 0.548532 0.120733 0.251474
v 0.56465 0.171115 0.23607
v 0.55869 0.170902 0.230061
v 0.548532 0.120733 0.251474
v 0.557359 0.120611 0.255202
v 0.56465 0.171115 0.23607
v 0.558438 0.16077 0.145936
v 0.55869 0.170902 0.230061
v 0.562146 0.173146 0.228589
v 0.562153 0.163276 0.146967
v 0.558438 0.16077 0.145936
v 0.544876 0.124301 0.142904
v 0.544876 0.121029 0.242473
v 0.55869 0.170902 0.230061
v 0.562153 0.163276 0.146967
v 0.565568 0.162593 0.142582
v 0.564657 0.159596 0.139156
v 0.558438 0.16077 0.145936
v 0.557555 0.124708 0.130498
v 0.54859 0.124589 0.134131
v 0.558438 0.16077 0.145936
v 0.564657 0.159596 0.139156
v 0.54859 0.124589 0.134131
v 0.544876 0.124301 0.142904
v 0.558438 0.16077 0.145936
v 0.565568 0.162593 0.142582
v 0.591121 0.160932 0.142206
v 0.59024 0.158033 0.138768
v 0.564657 0.159596 0.139156
v 0.564657 0.159596 0.139156
v 0.59024 0.158033 0.138768
v 0.579177 0.124708 0.130498
v 0.557555 0.124708 0.130498
v 0.622413 0.15679 0.138459
v 0.59024 0.158033 0.138768
v 0.591121 0.160932 0.142206
v 0.62287 0.159645 0.141906
v 0.622413 0.15679 0.138459
v 0.616911 0.124708 0.130498
v 0.579177 0.124708 0.130498
v 0.59024 0.158033 0.138768
v 0.622856 0.160483 0.155429
v 0.62287 0.159645 0.141906
v 0.591121 0.160932 0.142206
v 0.591104 0.162063 0.155556
v 0.562153 0.163276 0.146967
v 0.591104 0.162063 0.155556
v 0.591121 0.160932 0.142206
v 0.565568 0.162593 0.142582
v 0.591104 0.162063 0.155556
v 0.591078 0.169289 0.219884
v 0.622834 0.167412 0.220396
v 0.622856 0.160483 0.155429
v 0.562153 0.163276 0.146967
v 0.562146 0.173146 0.228589
v 0.591078 0.169289 0.219884
v 0.591104 0.162063 0.155556
v 0.622842 0.16944 0.233792
v 0.622834 0.167412 0.220396
v 0.591078 0.169289 0.219884
v 0.591089 0.171147 0.233152
v 0.562146 0.173146 0.228589
v 0.565358 0.173346 0.232331
v 0.591089 0.171147 0.233152
v 0.591078 0.169289 0.219884
v 0.622856 0.160483 0.155429
v 0.622834 0.167412 0.220396
v 0.654645 0.166875 0.220537
v 0.654645 0.160031 0.155397
v 0.654645 0.168962 0.23397
v 0.654645 0.166875 0.220537
v 0.622834 0.167412 0.220396
v 0.622842 0.16944 0.233792
v 0.654645 0.160031 0.155397
v 0.654645 0.166875 0.220537
v 0.686457 0.167412 0.220396
v 0.686435 0.160483 0.155429
v 0.686449 0.16944 0.233792
v 0.686457 0.167412 0.220396
v 0.654645 0.166875 0.220537
v 0.654645 0.168962 0.23397
v 0.686435 0.160483 0.155429
v 0.686457 0.167412 0.220396
v 0.718213 0.169289 0.219884
v 0.718187 0.162063 0.155556
v 0.718202 0.171147 0.233152
v 0.718213 0.169289 0.219884
v 0.686457 0.167412 0.220396
v 0.686449 0.16944 0.233792
v 0.718187 0.162063 0.155556
v 0.71817 0.160932 0.142206
v 0.686421 0.159645 0.141906
v 0.686435 0.160483 0.155429
v 0.686435 0.160483 0.155429
v 0.686421 0.159645 0.141906
v 0.654645 0.159285 0.141823
v 0.654645 0.160031 0.155397
v 0.747138 0.163276 0.146967
v 0.718187 0.162063 0.155556
v 0.718213 0.169289 0.219884
v 0.747145 0.173146 0.228589
v 0.718187 0.162063 0.155556
v 0.747138 0.163276 0.146967
v 0.743723 0.162593 0.142582
v 0.71817 0.160932 0.142206
v 0.718202 0.171147 0.233152
v 0.743933 0.173346 0.232331
v 0.747145 0.173146 0.228589
v 0.718213 0.169289 0.219884
v 0.654645 0.160031 0.155397
v 0.654645 0.159285 0.141823
v 0.62287 0.159645 0.141906
v 0.622856 0.160483 0.155429
v 0.654645 0.156444 0.138374
v 0.622413 0.15679 0.138459
v 0.62287 0.159645 0.141906
v 0.654645 0.159285 0.141823
vn -0 0.0328 -0.9995
vn -0 0.0328 -0.9995
vn -0 0.0328 -0.9995
vn -0 0.0328 -0.9995
vn -0 0.0328 -0.9995
vn -0 0.0328 -0.9995
vn 0.118 0.0327 -0.9925
vn 0.118 0.0328 -0.9925
vn 0.118 0.0327 -0.9925
vn 0.6998 0.0238 -0.714
vn 0.6997 0.0238 -0.714
vn 0.118 0.0328 -0.9925
vn 0.6998 0.0238 -0.714
vn 0.9993 0.0014 -0.038
vn 0.9993 0.0011 -0.038
vn 0.6997 0.0238 -0.714
vn 0.9993 -0.001 0.0375
vn 0.9993 0.0011 -0.038
vn 0.9993 0.0014 -0.038
vn 0.9993 -0.0014 0.0374
vn 0.7139 -0.0226 0.6999
vn 0.9993 -0.001 0.0375
vn 0.9993 -0.0014 0.0374
vn 0.714 -0.0225 0.6997
vn 0.6569 0.3782 0.6522
vn 0.9534 0.3018 -0.0078
vn 0.9535 0.3014 -0.0099
vn 0.0799 0.4085 0.9093
vn 0.9532 0.302 -0.0137
vn 0.9535 0.3013 -0.0101
vn 0.9535 0.3014 -0.0099
vn 0.9534 0.3018 -0.0078
vn -0.0845 0.9885 -0.1256
vn -0.0896 0.9866 -0.1361
vn 0.0799 0.4085 0.9093
vn 0.9535 0.3014 -0.0099
vn -0.0845 0.9885 -0.1256
vn 0.9535 0.3014 -0.0099
vn 0.9535 0.3013 -0.0101
vn -0.0715 0.9921 -0.1027
vn -0.0639 0.9937 -0.0926
vn -0.0715 0.9921 -0.1027
vn 0.9535 0.3013 -0.0101
vn 0.0832 0.3204 -0.9436
vn 0.0832 0.3204 -0.9436
vn 0.9535 0.3013 -0.0101
vn 0.6644 0.3479 -0.6614
vn 0.0937 0.2584 -0.9615
vn 0.9535 0.3013 -0.0101
vn 0.9532 0.302 -0.0137
vn 0.6644 0.3479 -0.6614
vn -0.055 0.9949 -0.0848
vn -0.0639 0.9937 -0.0926
vn 0.0832 0.3204 -0.9436
vn -0.0038 0.3097 -0.9508
vn -0.0038 0.3097 -0.9508
vn 0.0832 0.3204 -0.9436
vn 0.0937 0.2584 -0.9615
vn -0 0.2409 -0.9706
vn -0.0038 0.3097 -0.9508
vn -0.0018 0.3081 -0.9513
vn -0.0284 0.9972 -0.0695
vn -0.055 0.9949 -0.0848
vn -0.0038 0.3097 -0.9508
vn -0 0.2409 -0.9706
vn -0 0.2409 -0.9706
vn -0.0018 0.3081 -0.9513
vn -0.0018 0.3081 -0.9513
vn -0 0.3092 -0.951
vn -0 0.9981 -0.0622
vn -0.0284 0.9972 -0.0695
vn -0.0018 0.3081 -0.9513
vn -0 0.2409 -0.9706
vn -0 0.2409 -0.9706
vn -0 0.3092 -0.951
vn -0 0.0328 -0.9995
vn -0 0.0328 -0.9995
vn -0 0.0328 -0.9995
vn -0 0.0328 -0.9995
vn -0 0.0328 -0.9995
vn -0 0.0328 -0.9995
vn -0 0.0328 -0.9995
vn -0 0.0328 -0.9995
vn -0 0.3092 -0.951
vn -0 0.2409 -0.9706
vn -0 0.2409 -0.9706
vn 0.0018 0.3081 -0.9513
vn -0 0.0328 -0.9995
vn -0 0.0328 -0.9995
vn -0 0.0328 -0.9995
vn -0 0.0328 -0.9995
vn -0.118 0.0327 -0.9925
vn -0.118 0.0328 -0.9925
vn -0 0.0328 -0.9995
vn -0 0.0328 -0.9995
vn -0.118 0.0327 -0.9925
vn -0.6997 0.0238 -0.714
vn -0.6997 0.0238 -0.714
vn -0.118 0.0328 -0.9925
vn -0.6997 0.0238 -0.714
vn -0.9993 0.0014 -0.038
vn -0.9993 0.0015 -0.038
vn -0.6997 0.0238 -0.714
vn -0.9993 -0.0011 0.0374
vn -0.9993 -0.001 0.0374
vn -0.9993 0.0015 -0.038
vn -0.9993 0.0014 -0.038
vn -0.9993 -0.0011 0.0374
vn -0.714 -0.0226 0.6998
vn -0.714 -0.0226 0.6998
vn -0.9993 -0.001 0.0374
vn -0.714 -0.0226 0.6998
vn -0.1208 -0.0324 0.9922
vn -0.1208 -0.0325 0.9921
vn -0.714 -0.0226 0.6998
vn -0 -0.0328 0.9995
vn -0 -0.0328 0.9995
vn -0.1208 -0.0325 0.9921
vn -0.1208 -0.0324 0.9922
vn -0 -0.0328 0.9995
vn -0 -0.0328 0.9995
vn -0 -0.0328 0.9995
vn -0 -0.0328 0.9995
vn -0 -0.0328 0.9995
vn -0 -0.0328 0.9995
vn -0 -0.0328 0.9995
vn -0 -0.0328 0.9995
vn -0 -0.0328 0.9995
vn -0 -0.0328 0.9995
vn -0 -0.0328 0.9995
vn -0 -0.0328 0.9995
vn -0 -0.0328 0.9995
vn -0 -0.0328 0.9995
vn -0 -0.0328 0.9995
vn -0 -0.0328 0.9995
vn 0.1208 -0.0325 0.9922
vn 0.1207 -0.0324 0.9922
vn -0 -0.0328 0.9995
vn -0 -0.0328 0.9995
vn 0.1208 -0.0325 0.9922
vn 0.7139 -0.0226 0.6999
vn 0.714 -0.0225 0.6997
vn 0.1207 -0.0324 0.9922
vn 0.0866 0.364 0.9274
vn 0.6569 0.3782 0.6522
vn 0.0799 0.4085 0.9093
vn 0.0799 0.4085 0.9093
vn -0.0038 0.4025 0.9154
vn -0 0.3543 0.9351
vn 0.0866 0.364 0.9274
vn -0.0019 0.401 0.9161
vn -0 0.3543 0.9351
vn -0 0.3543 0.9351
vn -0.0038 0.4025 0.9154
vn -0.0738 0.9879 -0.1363
vn -0.0373 0.9889 -0.144
vn -0.0019 0.401 0.9161
vn -0.0038 0.4025 0.9154
vn -0.0896 0.9866 -0.1361
vn -0.0738 0.9879 -0.1363
vn -0.0038 0.4025 0.9154
vn 0.0799 0.4085 0.9093
vn -0.0373 0.9889 -0.144
vn -0 0.989 -0.1478
vn 0.0003 0.4016 0.9158
vn -0.0019 0.401 0.9161
vn 0.0003 0.4016 0.9158
vn -0 0.3543 0.9351
vn -0 0.3543 0.9351
vn -0.0019 0.401 0.9161
vn -0 0.989 -0.1478
vn 0.0373 0.9889 -0.144
vn 0.0018 0.401 0.9161
vn 0.0003 0.4016 0.9158
vn 0.0018 0.401 0.9161
vn -0 0.3543 0.9351
vn -0 0.3543 0.9351
vn 0.0003 0.4016 0.9158
vn 0.0373 0.9889 -0.144
vn 0.0738 0.9879 -0.1363
vn 0.0037 0.4025 0.9154
vn 0.0018 0.401 0.9161
vn 0.0037 0.4025 0.9154
vn -0 0.3543 0.9351
vn -0 0.3543 0.9351
vn 0.0018 0.401 0.9161
vn 0.0738 0.9879 -0.1363
vn 0.0896 0.9866 -0.1361
vn -0.08 0.4085 0.9093
vn 0.0037 0.4025 0.9154
vn 0.0037 0.4025 0.9154
vn -0.08 0.4085 0.9093
vn -0.0872 0.3641 0.9273
vn -0 0.3543 0.9351
vn 0.0896 0.9866 -0.1361
vn 0.0845 0.9885 -0.1256
vn -0.9535 0.3014 -0.0099
vn -0.08 0.4085 0.9093
vn -0.9534 0.3017 -0.0078
vn -0.6569 0.3782 0.6522
vn -0.08 0.4085 0.9093
vn -0.9535 0.3014 -0.0099
vn -0.6569 0.3782 0.6522
vn -0.0872 0.3641 0.9273
vn -0.08 0.4085 0.9093
vn -0.9534 0.3014 -0.01
vn -0.9535 0.3014 -0.0099
vn 0.0845 0.9885 -0.1256
vn 0.0715 0.9921 -0.1027
vn -0.9534 0.3014 -0.01
vn -0.9532 0.302 -0.0137
vn -0.9534 0.3017 -0.0078
vn -0.9535 0.3014 -0.0099
vn 0.0715 0.9921 -0.1027
vn 0.0639 0.9937 -0.0926
vn -0.0831 0.3205 -0.9436
vn -0.9534 0.3014 -0.01
vn -0.0936 0.2584 -0.9615
vn -0.6644 0.3479 -0.6614
vn -0.9534 0.3014 -0.01
vn -0.0831 0.3205 -0.9436
vn -0.6644 0.3479 -0.6614
vn -0.9532 0.302 -0.0137
vn -0.9534 0.3014 -0.01
vn 0.0639 0.9937 -0.0926
vn 0.055 0.9949 -0.0848
vn 0.0037 0.3098 -0.9508
vn -0.0831 0.3205 -0.9436
vn -0.0831 0.3205 -0.9436
vn 0.0037 0.3098 -0.9508
vn -0 0.2409 -0.9706
vn -0.0936 0.2584 -0.9615
vn 0.0018 0.3081 -0.9513
vn 0.0037 0.3098 -0.9508
vn 0.055 0.9949 -0.0848
vn 0.0285 0.9972 -0.0695
vn 0.0018 0.3081 -0.9513
vn -0 0.2409 -0.9706
vn -0 0.2409 -0.9706
vn 0.0037 0.3098 -0.9508
vn 0.0319 0.9958 -0.0863
vn 0.0285 0.9972 -0.0695
vn 0.055 0.9949 -0.0848
vn 0.0638 0.9931 -0.0979
vn 0.0715 0.9921 -0.1027
vn 0.0638 0.9931 -0.0979
vn 0.055 0.9949 -0.0848
vn 0.0639 0.9937 -0.0926
vn 0.0638 0.9931 -0.0979
vn 0.0721 0.9895 -0.1252
vn 0.0363 0.9912 -0.1275
vn 0.0319 0.9958 -0.0863
vn 0.0715 0.9921 -0.1027
vn 0.0845 0.9885 -0.1256
vn 0.0721 0.9895 -0.1252
vn 0.0638 0.9931 -0.0979
vn 0.0373 0.9889 -0.144
vn 0.0363 0.9912 -0.1275
vn 0.0721 0.9895 -0.1252
vn 0.0738 0.9879 -0.1363
vn 0.0845 0.9885 -0.1256
vn 0.0896 0.9866 -0.1361
vn 0.0738 0.9879 -0.1363
vn 0.0721 0.9895 -0.1252
vn 0.0319 0.9958 -0.0863
vn 0.0363 0.9912 -0.1275
vn -0 0.9917 -0.1285
vn -0 0.9966 -0.0818
vn -0 0.989 -0.1478
vn -0 0.9917 -0.1285
vn 0.0363 0.9912 -0.1275
vn 0.0373 0.9889 -0.144
vn -0 0.9966 -0.0818
vn -0 0.9917 -0.1285
vn -0.0363 0.9912 -0.1275
vn -0.0319 0.9958 -0.0863
vn -0.0373 0.9889 -0.144
vn -0.0363 0.9912 -0.1275
vn -0 0.9917 -0.1285
vn -0 0.989 -0.1478
vn -0.0319 0.9958 -0.0863
vn -0.0363 0.9912 -0.1275
vn -0.0721 0.9895 -0.1252
vn -0.0638 0.9931 -0.0979
vn -0.0738 0.9879 -0.1363
vn -0.0721 0.9895 -0.1252
vn -0.0363 0.9912 -0.1275
vn -0.0373 0.9889 -0.144
vn -0.0638 0.9931 -0.0979
vn -0.055 0.9949 -0.0848
vn -0.0284 0.9972 -0.0695
vn -0.0319 0.9958 -0.0863
vn -0.0319 0.9958 -0.0863
vn -0.0284 0.9972 -0.0695
vn -0 0.9981 -0.0622
vn -0 0.9966 -0.0818
vn -0.0715 0.9921 -0.1027
vn -0.0638 0.9931 -0.0979
vn -0.0721 0.9895 -0.1252
vn -0.0845 0.9885 -0.1256
vn -0.0638 0.9931 -0.0979
vn -0.0715 0.9921 -0.1027
vn -0.0639 0.9937 -0.0926
vn -0.055 0.9949 -0.0848
vn -0.0738 0.9879 -0.1363
vn -0.0896 0.9866 -0.1361
vn -0.0845 0.9885 -0.1256
vn -0.0721 0.9895 -0.1252
vn -0 0.9966 -0.0818
vn -0 0.9981 -0.0622
vn 0.0285 0.9972 -0.0695
vn 0.0319 0.9958 -0.0863
vn -0 0.3092 -0.951
vn 0.0018 0.3081 -0.9513
vn 0.0285 0.9972 -0.0695
vn -0 0.9981 -0.0622
vt 0.858005 0.252331
vt 0.858005 0.250217
vt 0.839502 0.250217
vt 0.839502 0.252331
vt 0.858005 0.250217
vt 0.858005 0.252331
vt 0.868131 0.252261
vt 0.868614 0.250217
vt 0.868131 0.252261
vt 0.871596 0.253479
vt 0.873005 0.251998
vt 0.868614 0.250217
vt 0.871596 0.253479
vt 0.872938 0.256859
vt 0.874824 0.256298
vt 0.873005 0.251998
vt 0.874824 0.305131
vt 0.874824 0.256298
vt 0.872938 0.256859
vt 0.872962 0.304826
vt 0.873032 0.309539
vt 0.874824 0.305131
vt 0.872962 0.304826
vt 0.871727 0.308309
vt 0.871727 0.308309
vt 0.872962 0.304826
vt 0.86064 0.297003
vt 0.858178 0.299485
vt 0.872938 0.256859
vt 0.860744 0.262249
vt 0.86064 0.297003
vt 0.872962 0.304826
vt 0.859212 0.296395
vt 0.857885 0.297941
vt 0.858178 0.299485
vt 0.86064 0.297003
vt 0.859212 0.296395
vt 0.86064 0.297003
vt 0.860744 0.262249
vt 0.85921 0.262675
vt 0.857799 0.260864
vt 0.85921 0.262675
vt 0.860744 0.262249
vt 0.858175 0.259448
vt 0.858175 0.259448
vt 0.860744 0.262249
vt 0.871596 0.253479
vt 0.868131 0.252261
vt 0.860744 0.262249
vt 0.872938 0.256859
vt 0.871596 0.253479
vt 0.847243 0.260708
vt 0.857799 0.260864
vt 0.858175 0.259448
vt 0.847607 0.259288
vt 0.847607 0.259288
vt 0.858175 0.259448
vt 0.868131 0.252261
vt 0.858005 0.252331
vt 0.847607 0.259288
vt 0.834316 0.259161
vt 0.834127 0.260585
vt 0.847243 0.260708
vt 0.847607 0.259288
vt 0.858005 0.252331
vt 0.839502 0.252331
vt 0.834316 0.259161
vt 0.834316 0.259161
vt 0.821 0.259125
vt 0.821 0.26055
vt 0.834127 0.260585
vt 0.834316 0.259161
vt 0.839502 0.252331
vt 0.821 0.252331
vt 0.821 0.259125
vt 0.839502 0.252331
vt 0.839502 0.250217
vt 0.821 0.250217
vt 0.821 0.252331
vt 0.821 0.252331
vt 0.821 0.250217
vt 0.802497 0.250217
vt 0.802497 0.252331
vt 0.821 0.259125
vt 0.821 0.252331
vt 0.802497 0.252331
vt 0.807684 0.259161
vt 0.802497 0.252331
vt 0.802497 0.250217
vt 0.783995 0.250217
vt 0.783995 0.252331
vt 0.773385 0.250217
vt 0.773869 0.252261
vt 0.783995 0.252331
vt 0.783995 0.250217
vt 0.773385 0.250217
vt 0.768994 0.251998
vt 0.770404 0.253479
vt 0.773869 0.252261
vt 0.768994 0.251998
vt 0.767175 0.256298
vt 0.769062 0.256859
vt 0.770404 0.253479
vt 0.767175 0.305131
vt 0.769038 0.304826
vt 0.769062 0.256859
vt 0.767175 0.256298
vt 0.767175 0.305131
vt 0.768967 0.309539
vt 0.770273 0.308309
vt 0.769038 0.304826
vt 0.768967 0.309539
vt 0.773293 0.311365
vt 0.773682 0.309661
vt 0.770273 0.308309
vt 0.783995 0.311365
vt 0.783995 0.30962
vt 0.773682 0.309661
vt 0.773293 0.311365
vt 0.783995 0.30962
vt 0.783995 0.311365
vt 0.802497 0.311365
vt 0.802497 0.30962
vt 0.802497 0.30962
vt 0.802497 0.311365
vt 0.821 0.311365
vt 0.821 0.30962
vt 0.821 0.30962
vt 0.821 0.311365
vt 0.839502 0.311365
vt 0.839502 0.30962
vt 0.839502 0.30962
vt 0.839502 0.311365
vt 0.858005 0.311365
vt 0.858005 0.30962
vt 0.868707 0.311365
vt 0.868318 0.309661
vt 0.858005 0.30962
vt 0.858005 0.311365
vt 0.868707 0.311365
vt 0.873032 0.309539
vt 0.871727 0.308309
vt 0.868318 0.309661
vt 0.868318 0.309661
vt 0.871727 0.308309
vt 0.858178 0.299485
vt 0.858178 0.299485
vt 0.847504 0.299823
vt 0.858005 0.30962
vt 0.868318 0.309661
vt 0.834266 0.300088
vt 0.839502 0.30962
vt 0.858005 0.30962
vt 0.847504 0.299823
vt 0.847256 0.298279
vt 0.834138 0.298544
vt 0.834266 0.300088
vt 0.847504 0.299823
vt 0.857885 0.297941
vt 0.847256 0.298279
vt 0.847504 0.299823
vt 0.858178 0.299485
vt 0.834138 0.298544
vt 0.821 0.298617
vt 0.821 0.300161
vt 0.834266 0.300088
vt 0.821 0.300161
vt 0.821 0.30962
vt 0.839502 0.30962
vt 0.834266 0.300088
vt 0.821 0.298617
vt 0.807862 0.298544
vt 0.807733 0.300088
vt 0.821 0.300161
vt 0.807733 0.300088
vt 0.802497 0.30962
vt 0.821 0.30962
vt 0.821 0.300161
vt 0.807862 0.298544
vt 0.794743 0.298279
vt 0.794496 0.299823
vt 0.807733 0.300088
vt 0.794496 0.299823
vt 0.783995 0.30962
vt 0.802497 0.30962
vt 0.807733 0.300088
vt 0.794743 0.298279
vt 0.784114 0.297941
vt 0.783821 0.299485
vt 0.794496 0.299823
vt 0.794496 0.299823
vt 0.783821 0.299485
vt 0.773682 0.309661
vt 0.783995 0.30962
vt 0.784114 0.297941
vt 0.782787 0.296395
vt 0.78136 0.297002
vt 0.783821 0.299485
vt 0.769038 0.304826
vt 0.770273 0.308309
vt 0.783821 0.299485
vt 0.78136 0.297002
vt 0.770273 0.308309
vt 0.773682 0.309661
vt 0.783821 0.299485
vt 0.781255 0.262249
vt 0.78136 0.297002
vt 0.782787 0.296395
vt 0.78279 0.262675
vt 0.781255 0.262249
vt 0.769062 0.256859
vt 0.769038 0.304826
vt 0.78136 0.297002
vt 0.78279 0.262675
vt 0.7842 0.260864
vt 0.783824 0.259448
vt 0.781255 0.262249
vt 0.773869 0.252261
vt 0.770404 0.253479
vt 0.781255 0.262249
vt 0.783824 0.259448
vt 0.770404 0.253479
vt 0.769062 0.256859
vt 0.781255 0.262249
vt 0.7842 0.260864
vt 0.794757 0.260708
vt 0.794393 0.259288
vt 0.783824 0.259448
vt 0.783824 0.259448
vt 0.794393 0.259288
vt 0.783995 0.252331
vt 0.773869 0.252261
vt 0.807684 0.259161
vt 0.794393 0.259288
vt 0.794757 0.260708
vt 0.807873 0.260585
vt 0.807684 0.259161
vt 0.802497 0.252331
vt 0.783995 0.252331
vt 0.794393 0.259288
vt 0.807867 0.266171
vt 0.807873 0.260585
vt 0.794757 0.260708
vt 0.79475 0.266223
vt 0.78279 0.262675
vt 0.79475 0.266223
vt 0.794757 0.260708
vt 0.7842 0.260864
vt 0.79475 0.266223
vt 0.794739 0.292798
vt 0.807858 0.29301
vt 0.807867 0.266171
vt 0.78279 0.262675
vt 0.782787 0.296395
vt 0.794739 0.292798
vt 0.79475 0.266223
vt 0.807862 0.298544
vt 0.807858 0.29301
vt 0.794739 0.292798
vt 0.794743 0.298279
vt 0.782787 0.296395
vt 0.784114 0.297941
vt 0.794743 0.298279
vt 0.794739 0.292798
vt 0.807867 0.266171
vt 0.807858 0.29301
vt 0.821 0.293068
vt 0.821 0.266158
vt 0.821 0.298617
vt 0.821 0.293068
vt 0.807858 0.29301
vt 0.807862 0.298544
vt 0.821 0.266158
vt 0.821 0.293068
vt 0.834142 0.29301
vt 0.834132 0.266171
vt 0.834138 0.298544
vt 0.834142 0.29301
vt 0.821 0.293068
vt 0.821 0.298617
vt 0.834132 0.266171
vt 0.834142 0.29301
vt 0.847261 0.292798
vt 0.84725 0.266223
vt 0.847256 0.298279
vt 0.847261 0.292798
vt 0.834142 0.29301
vt 0.834138 0.298544
vt 0.84725 0.266223
vt 0.847243 0.260708
vt 0.834127 0.260585
vt 0.834132 0.266171
vt 0.834132 0.266171
vt 0.834127 0.260585
vt 0.821 0.26055
vt 0.821 0.266158
vt 0.85921 0.262675
vt 0.84725 0.266223
vt 0.847261 0.292798
vt 0.859212 0.296395
vt 0.84725 0.266223
vt 0.85921 0.262675
vt 0.857799 0.260864
vt 0.847243 0.260708
vt 0.847256 0.298279
vt 0.857885 0.297941
vt 0.859212 0.296395
vt 0.847261 0.292798
vt 0.821 0.266158
vt 0.821 0.26055
vt 0.807873 0.260585
vt 0.807867 0.266171
vt 0.821 0.259125
vt 0.807684 0.259161
vt 0.807873 0.260585
vt 0.821 0.26055
s off
f 1/1/1 2/2/2 3/3/3
f 1/1/1 3/3/3 4/4/4
f 5/5/5 6/6/6 7/7/7
f 5/5/5 7/7/7 8/8/8
f 9/9/9 10/10/10 11/11/11
f 9/9/9 11/11/11 12/12/12
f 13/13/13 14/14/14 15/15/15
f 13/13/13 15/15/15 16/16/16
f 17/17/17 18/18/18 19/19/19
f 17/17/17 19/19/19 20/20/20
f 21/21/21 22/22/22 23/23/23
f 21/21/21 23/23/23 24/24/24
f 25/25/25 26/26/26 27/27/27
f 25/25/25 27/27/27 28/28/28
f 29/29/29 30/30/30 31/31/31
f 29/29/29 31/31/31 32/32/32
f 33/33/33 34/34/34 35/35/35
f 33/33/33 35/35/35 36/36/36
f 37/37/37 38/38/38 39/39/39
f 37/37/37 39/39/39 40/40/40
f 41/41/41 42/42/42 43/43/43
f 41/41/41 43/43/43 44/44/44
f 45/45/45 46/46/46 47/47/47
f 45/45/45 47/47/47 48/48/48
f 49/49/49 50/50/50 51/51/51
f 52/52/52 53/53/53 54/54/54
f 52/52/52 54/54/54 55/55/55
f 56/56/56 57/57/57 58/58/58
f 56/56/56 58/58/58 59/59/59
f 60/60/60 61/61/61 62/62/62
f 60/60/60 62/62/62 63/63/63
f 64/64/64 65/65/65 66/66/66
f 64/64/64 66/66/66 67/67/67
f 68/68/68 69/69/69 70/70/70
f 68/68/68 70/70/70 71/71/71
f 72/72/72 73/73/73 74/74/74
f 72/72/72 74/74/74 75/75/75
f 76/76/76 77/77/77 78/78/78
f 76/76/76 78/78/78 79/79/79
f 80/80/80 81/81/81 82/82/82
f 80/80/80 82/82/82 83/83/83
f 84/84/84 85/85/85 86/86/86
f 84/84/84 86/86/86 87/87/87
f 88/88/88 89/89/89 90/90/90
f 88/88/88 90/90/90 91/91/91
f 92/92/92 93/93/93 94/94/94
f 92/92/92 94/94/94 95/95/95
f 96/96/96 97/97/97 98/98/98
f 96/96/96 98/98/98 99/99/99
f 100/100/100 101/101/101 102/102/102
f 100/100/100 102/102/102 103/103/103
f 104/104/104 105/105/105 106/106/106
f 104/104/104 106/106/106 107/107/107
f 108/108/108 109/109/109 110/110/110
f 108/108/108 110/110/110 111/111/111
f 112/112/112 113/113/113 114/114/114
f 112/112/112 114/114/114 115/115/115
f 116/116/116 117/117/117 118/118/118
f 116/116/116 118/118/118 119/119/119
f 120/120/120 121/121/121 122/122/122
f 120/120/120 122/122/122 123/123/123
f 124/124/124 125/125/125 126/126/126
f 124/124/124 126/126/126 127/127/127
f 128/128/128 129/129/129 130/130/130
f 128/128/128 130/130/130 131/131/131
f 132/132/132 133/133/133 134/134/134
f 132/132/132 134/134/134 135/135/135
f 136/136/136 137/137/137 138/138/138
f 136/136/136 138/138/138 139/139/139
f 140/140/140 141/141/141 142/142/142
f 140/140/140 142/142/142 143/143/143
f 144/144/144 145/145/145 146/146/146
f 147/147/147 148/148/148 149/149/149
f 147/147/147 149/149/149 150/150/150
f 151/151/151 152/152/152 153/153/153
f 151/151/151 153/153/153 154/154/154
f 155/155/155 156/156/156 157/157/157
f 155/155/155 157/157/157 158/158/158
f 159/159/159 160/160/160 161/161/161
f 159/159/159 161/161/161 162/162/162
f 163/163/163 164/164/164 165/165/165
f 163/163/163 165/165/165 166/166/166
f 167/167/167 168/168/168 169/169/169
f 167/167/167 169/169/169 170/170/170
f 171/171/171 172/172/172 173/173/173
f 171/171/171 173/173/173 174/174/174
f 175/175/175 176/176/176 177/177/177
f 175/175/175 177/177/177 178/178/178
f 179/179/179 180/180/180 181/181/181
f 179/179/179 181/181/181 182/182/182
f 183/183/183 184/184/184 185/185/185
f 183/183/183 185/185/185 186/186/186
f 187/187/187 188/188/188 189/189/189
f 187/187/187 189/189/189 190/190/190
f 191/191/191 192/192/192 193/193/193
f 191/191/191 193/193/193 194/194/194
f 195/195/195 196/196/196 197/197/197
f 195/195/195 197/197/197 198/198/198
f 199/199/199 200/200/200 201/201/201
f 199/199/199 201/201/201 202/202/202
f 203/203/203 204/204/204 205/205/205
f 206/206/206 207/207/207 208/208/208
f 206/206/206 208/208/208 209/209/209
f 210/210/210 211/211/211 212/212/212
f 210/210/210 212/212/212 213/213/213
f 214/214/214 215/215/215 216/216/216
f 214/214/214 216/216/216 217/217/217
f 218/218/218 219/219/219 220/220/220
f 218/218/218 220/220/220 221/221/221
f 222/222/222 223/223/223 224/224/224
f 225/225/225 226/226/226 227/227/227
f 225/225/225 227/227/227 228/228/228
f 229/229/229 230/230/230 231/231/231
f 229/229/229 231/231/231 232/232/232
f 233/233/233 234/234/234 235/235/235
f 233/233/233 235/235/235 236/236/236
f 237/237/237 238/238/238 239/239/239
f 237/237/237 239/239/239 240/240/240
f 241/241/241 242/242/242 243/243/243
f 241/241/241 243/243/243 244/244/244
f 245/245/245 246/246/246 247/247/247
f 245/245/245 247/247/247 248/248/248
f 249/249/249 250/250/250 251/251/251
f 249/249/249 251/251/251 252/252/252
f 253/253/253 254/254/254 255/255/255
f 253/253/253 255/255/255 256/256/256
f 257/257/257 258/258/258 259/259/259
f 257/257/257 259/259/259 260/260/260
f 261/261/261 262/262/262 263/263/263
f 261/261/261 263/263/263 264/264/264
f 265/265/265 266/266/266 267/267/267
f 265/265/265 267/267/267 268/268/268
f 269/269/269 270/270/270 271/271/271
f 269/269/269 271/271/271 272/272/272
f 273/273/273 274/274/274 275/275/275
f 273/273/273 275/275/275 276/276/276
f 277/277/277 278/278/278 279/279/279
f 277/277/277 279/279/279 280/280/280
f 281/281/281 282/282/282 283/283/283
f 281/281/281 283/283/283 284/284/284
f 285/285/285 286/286/286 287/287/287
f 285/285/285 287/287/287 288/288/288
f 289/289/289 290/290/290 291/291/291
f 289/289/289 291/291/291 292/292/292
f 293/293/293 294/294/294 295/295/295
f 293/293/293 295/295/295 296/296/296
f 297/297/297 298/298/298 299/299/299
f 297/297/297 299/299/299 300/300/300
f 301/301/301 302/302/302 303/303/303
f 301/301/301 303/303/303 304/304/304
f 305/305/305 306/306/306 307/307/307
f 305/305/305 307/307/307 308/308/308
f 309/309/309 310/310/310 311/311/311
f 309/309/309 311/311/311 312/312/312
f 313/313/313 314/314/314 315/315/315
f 313/313/313 315/315/315 316/316/316
