v 0.454574 0.162628 0.165823
v 0.454327 0.162857 0.167741
v 0.457403 0.162548 0.167683
v 0.457294 0.161241 0.155292
v 0.460676 0.160782 0.153812
v 0.457958 0.160953 0.152672
v 0.457294 0.161241 0.155292
v 0.457958 0.160953 0.152672
v 0.453156 0.161424 0.152639
v 0.459817 0.161347 0.158653
v 0.462607 0.161245 0.16028
v 0.462941 0.160943 0.157748
v 0.458187 0.162205 0.165193
v 0.454574 0.162628 0.165823
v 0.457403 0.162548 0.167683
v 0.453972 0.163518 0.173617
v 0.456432 0.16299 0.170932
v 0.454357 0.163249 0.171442
v 0.453156 0.161424 0.152639
v 0.449624 0.161891 0.154032
v 0.451377 0.161906 0.156101
v 0.457294 0.161241 0.155292
v 0.453156 0.161424 0.152639
v 0.45372 0.161593 0.155282
v 0.453156 0.161424 0.152639
v 0.451377 0.161906 0.156101
v 0.45372 0.161593 0.155282
v 0.459458 0.161202 0.156961
v 0.462941 0.160943 0.157748
v 0.462375 0.160764 0.15555
v 0.457724 0.163181 0.173916
v 0.457863 0.162964 0.17201
v 0.456429 0.163413 0.1749
v 0.459458 0.161202 0.156961
v 0.460676 0.160782 0.153812
v 0.457294 0.161241 0.155292
v 0.457863 0.162964 0.17201
v 0.456432 0.16299 0.170932
v 0.456429 0.163413 0.1749
v 0.454574 0.162628 0.165823
v 0.458187 0.162205 0.165193
v 0.456059 0.162243 0.163587
v 0.455028 0.163534 0.174741
v 0.456429 0.163413 0.1749
v 0.453972 0.163518 0.173617
v 0.461206 0.161605 0.162354
v 0.459262 0.161595 0.160471
v 0.458187 0.162205 0.165193
v 0.462607 0.161245 0.16028
v 0.459262 0.161595 0.160471
v 0.461206 0.161605 0.162354
v 0.447417 0.162298 0.155996
v 0.449714 0.162236 0.157659
v 0.451377 0.161906 0.156101
v 0.451377 0.161906 0.156101
v 0.449624 0.161891 0.154032
v 0.447417 0.162298 0.155996
v 0.456672 0.165311 0.192893
v 0.449096 0.169614 0.222341
v 0.459406 0.165039 0.192893
v 0.458187 0.162205 0.165193
v 0.459262 0.161595 0.160471
v 0.456059 0.162243 0.163587
v 0.459458 0.161202 0.156961
v 0.459817 0.161347 0.158653
v 0.462941 0.160943 0.157748
v 0.459458 0.161202 0.156961
v 0.462375 0.160764 0.15555
v 0.460676 0.160782 0.153812
v 0.459817 0.161347 0.158653
v 0.459262 0.161595 0.160471
v 0.462607 0.161245 0.16028
v 0.456672 0.165311 0.192893
v 0.446362 0.169978 0.222341
v 0.449096 0.169614 0.222341
v 0.456429 0.163413 0.1749
v 0.456432 0.16299 0.170932
v 0.453972 0.163518 0.173617
vn 0.0975 0.9896 -0.1056
vn 0.0975 0.9896 -0.1056
vn 0.0975 0.9896 -0.1056
vn 0.0976 0.9916 -0.0844
vn 0.0976 0.9916 -0.0844
vn 0.0976 0.9916 -0.0844
vn 0.0979 0.9916 -0.0843
vn 0.0979 0.9916 -0.0843
vn 0.0979 0.9916 -0.0843
vn 0.0975 0.9896 -0.1055
vn 0.0975 0.9896 -0.1055
vn 0.0975 0.9896 -0.1055
vn 0.0975 0.9896 -0.1055
vn 0.0975 0.9896 -0.1055
vn 0.0975 0.9896 -0.1055
vn 0.0975 0.9896 -0.1055
vn 0.0975 0.9896 -0.1055
vn 0.0975 0.9896 -0.1055
vn 0.0961 0.9914 -0.0888
vn 0.0961 0.9914 -0.0888
vn 0.0961 0.9914 -0.0888
vn 0.0979 0.9916 -0.0843
vn 0.0979 0.9916 -0.0843
vn 0.0979 0.9916 -0.0843
vn 0.1027 0.991 -0.0853
vn 0.1027 0.991 -0.0853
vn 0.1027 0.991 -0.0853
vn 0.0975 0.9896 -0.1055
vn 0.0975 0.9896 -0.1055
vn 0.0975 0.9896 -0.1055
vn 0.0975 0.9896 -0.1055
vn 0.0975 0.9896 -0.1055
vn 0.0975 0.9896 -0.1055
vn 0.0923 0.9911 -0.0963
vn 0.0923 0.9911 -0.0963
vn 0.0923 0.9911 -0.0963
vn 0.0975 0.9896 -0.1056
vn 0.0975 0.9896 -0.1056
vn 0.0975 0.9896 -0.1056
vn 0.0975 0.9896 -0.1055
vn 0.0975 0.9896 -0.1055
vn 0.0975 0.9896 -0.1055
vn 0.0975 0.9896 -0.1055
vn 0.0975 0.9896 -0.1055
vn 0.0975 0.9896 -0.1055
vn 0.0975 0.9896 -0.1055
vn 0.0975 0.9896 -0.1055
vn 0.0975 0.9896 -0.1055
vn 0.0975 0.9896 -0.1055
vn 0.0975 0.9896 -0.1055
vn 0.0975 0.9896 -0.1055
vn 0.1006 0.9897 -0.1022
vn 0.1006 0.9897 -0.1022
vn 0.1006 0.9897 -0.1022
vn 0.1004 0.9906 -0.0925
vn 0.1004 0.9906 -0.0925
vn 0.1004 0.9906 -0.0925
vn 0.0983 0.988 -0.1191
vn 0.0983 0.988 -0.1191
vn 0.0983 0.988 -0.1191
vn 0.0975 0.9896 -0.1055
vn 0.0975 0.9896 -0.1055
vn 0.0975 0.9896 -0.1055
vn 0.0975 0.9896 -0.1055
vn 0.0975 0.9896 -0.1055
vn 0.0975 0.9896 -0.1055
vn 0.1044 0.9903 -0.0916
vn 0.1044 0.9903 -0.0916
vn 0.1044 0.9903 -0.0916
vn 0.0975 0.9896 -0.1055
vn 0.0975 0.9896 -0.1055
vn 0.0975 0.9896 -0.1055
vn 0.1311 0.9852 -0.1102
vn 0.1311 0.9852 -0.1102
vn 0.1311 0.9852 -0.1102
vn 0.0975 0.9896 -0.1056
vn 0.0975 0.9896 -0.1056
vn 0.0975 0.9896 -0.1056
vt 0.724202 0.657071
vt 0.724081 0.658008
vt 0.725584 0.65798
vt 0.725531 0.651929
vt 0.727182 0.651206
vt 0.725855 0.650649
vt 0.725531 0.651929
vt 0.725855 0.650649
vt 0.72351 0.650633
vt 0.726763 0.65357
vt 0.728125 0.654364
vt 0.728288 0.653128
vt 0.725967 0.656764
vt 0.724202 0.657071
vt 0.725584 0.65798
vt 0.723908 0.660877
vt 0.72511 0.659566
vt 0.724096 0.659815
vt 0.72351 0.650633
vt 0.721785 0.651313
vt 0.722641 0.652324
vt 0.725531 0.651929
vt 0.72351 0.650633
vt 0.723785 0.651924
vt 0.72351 0.650633
vt 0.722641 0.652324
vt 0.723785 0.651924
vt 0.726587 0.652743
vt 0.728288 0.653128
vt 0.728012 0.652054
vt 0.72574 0.661024
vt 0.725808 0.660093
vt 0.725108 0.661504
vt 0.726587 0.652743
vt 0.727182 0.651206
vt 0.725531 0.651929
vt 0.725808 0.660093
vt 0.72511 0.659566
vt 0.725108 0.661504
vt 0.724202 0.657071
vt 0.725967 0.656764
vt 0.724927 0.655979
vt 0.724424 0.661426
vt 0.725108 0.661504
vt 0.723908 0.660877
vt 0.727441 0.655377
vt 0.726492 0.654458
vt 0.725967 0.656764
vt 0.728125 0.654364
vt 0.726492 0.654458
vt 0.727441 0.655377
vt 0.720707 0.652272
vt 0.721829 0.653084
vt 0.722641 0.652324
vt 0.722641 0.652324
vt 0.721785 0.651313
vt 0.720707 0.652272
vt 0.725227 0.670291
vt 0.721527 0.684671
vt 0.726562 0.670291
vt 0.725967 0.656764
vt 0.726492 0.654458
vt 0.724927 0.655979
vt 0.726587 0.652743
vt 0.726763 0.65357
vt 0.728288 0.653128
vt 0.726587 0.652743
vt 0.728012 0.652054
vt 0.727182 0.651206
vt 0.726763 0.65357
vt 0.726492 0.654458
vt 0.728125 0.654364
vt 0.725227 0.670291
vt 0.720192 0.684671
vt 0.721527 0.684671
vt 0.725108 0.661504
vt 0.72511 0.659566
vt 0.723908 0.660877
s off
f 1/1/1 2/2/2 3/3/3
f 4/4/4 5/5/5 6/6/6
f 7/7/7 8/8/8 9/9/9
f 10/10/10 11/11/11 12/12/12
f 13/13/13 14/14/14 15/15/15
f 16/16/16 17/17/17 18/18/18
f 19/19/19 20/20/20 21/21/21
f 22/22/22 23/23/23 24/24/24
f 25/25/25 26/26/26 27/27/27
f 28/28/28 29/29/29 30/30/30
f 31/31/31 32/32/32 33/33/33
f 34/34/34 35/35/35 36/36/36
f 37/37/37 38/38/38 39/39/39
f 40/40/40 41/41/41 42/42/42
f 43/43/43 44/44/44 45/45/45
f 46/46/46 47/47/47 48/48/48
f 49/49/49 50/50/50 51/51/51
f 52/52/52 53/53/53 54/54/54
f 55/55/55 56/56/56 57/57/57
f 58/58/58 59/59/59 60/60/60
f 61/61/61 62/62/62 63/63/63
f 64/64/64 65/65/65 66/66/66
f 67/67/67 68/68/68 69/69/69
f 70/70/70 71/71/71 72/72/72
f 73/73/73 74/74/74 75/75/75
f 76/76/76 77/77/77 78/78/78
