v 0.253848 0.117772 0.341589
v 0.253848 0.116836 0.370093
v 0.253848 0.105573 0.369739
v 0.253848 0.10651 0.341219
v 0.253848 0.117772 0.341589
v 0.253848 0.10651 0.341219
v 0.253848 0.107206 0.320053
v 0.253848 0.118468 0.320423
v 0.250205 0.105279 0.378695
v 0.253848 0.105573 0.369739
v 0.253848 0.116836 0.370093
v 0.250204 0.116541 0.379061
v 0.250204 0.116541 0.379061
v 0.253848 0.116836 0.370093
v 0.242764 0.162497 0.360031
v 0.237023 0.161157 0.367093
v 0.242764 0.162497 0.360031
v 0.253848 0.116836 0.370093
v 0.253848 0.117772 0.341589
v 0.241597 0.164956 0.338173
v 0.239313 0.165202 0.359365
v 0.236415 0.16465 0.363464
v 0.237023 0.161157 0.367093
v 0.242764 0.162497 0.360031
v 0.238114 0.167607 0.33793
v 0.239313 0.165202 0.359365
v 0.242764 0.162497 0.360031
v 0.241597 0.164956 0.338173
v 0.237219 0.168119 0.316383
v 0.238114 0.167607 0.33793
v 0.241597 0.164956 0.338173
v 0.240749 0.165481 0.316614
v 0.241597 0.164956 0.338173
v 0.253848 0.117772 0.341589
v 0.253848 0.118468 0.320423
v 0.240749 0.165481 0.316614
v 0.236651 0.166635 0.294869
v 0.237219 0.168119 0.316383
v 0.240749 0.165481 0.316614
v 0.24024 0.164014 0.29509
v 0.240749 0.165481 0.316614
v 0.253848 0.118468 0.320423
v 0.253848 0.119163 0.299257
v 0.24024 0.164014 0.29509
v 0.253848 0.118468 0.320423
v 0.253848 0.107206 0.320053
v 0.253848 0.107901 0.298887
v 0.253848 0.119163 0.299257
v 0.253848 0.108848 0.270078
v 0.253848 0.12011 0.270452
v 0.253848 0.119163 0.299257
v 0.253848 0.107901 0.298887
v 0.253848 0.119163 0.299257
v 0.253848 0.12011 0.270452
v 0.24015 0.160293 0.273354
v 0.24024 0.164014 0.29509
v 0.250146 0.120397 0.261697
v 0.253848 0.12011 0.270452
v 0.253848 0.108848 0.270078
v 0.25015 0.109135 0.261326
v 0.24015 0.160293 0.273354
v 0.253848 0.12011 0.270452
v 0.250146 0.120397 0.261697
v 0.232961 0.162125 0.269637
v 0.23645 0.162956 0.273617
v 0.24015 0.160293 0.273354
v 0.233819 0.158321 0.266462
v 0.23645 0.162956 0.273617
v 0.236651 0.166635 0.294869
v 0.24024 0.164014 0.29509
v 0.24015 0.160293 0.273354
v 0.233819 0.158321 0.266462
v 0.24015 0.160293 0.273354
v 0.250146 0.120397 0.261697
v 0.241209 0.120517 0.258071
v -0.52106 0.162125 0.269637
v 0.232961 0.162125 0.269637
v 0.233819 0.158321 0.266462
v -0.521919 0.158321 0.266462
v -0.521919 0.158321 0.266462
v 0.233819 0.158321 0.266462
v 0.241209 0.120517 0.258071
v -0.529309 0.120517 0.258071
v 0.241209 0.120517 0.258071
v 0.250146 0.120397 0.261697
v 0.25015 0.109135 0.261326
v 0.241223 0.109254 0.257701
v -0.529309 0.120517 0.258071
v 0.241209 0.120517 0.258071
v 0.241223 0.109254 0.257701
v -0.529322 0.109254 0.2577
v -0.529322 0.109254 0.2577
v -0.53825 0.109135 0.261326
v -0.538246 0.120397 0.261697
v -0.529309 0.120517 0.258071
v -0.529309 0.120517 0.258071
v -0.538246 0.120397 0.261697
v -0.528249 0.160293 0.273354
v -0.521919 0.158321 0.266462
v -0.53825 0.109135 0.261326
v -0.541948 0.108848 0.270078
v -0.541948 0.12011 0.270452
v -0.538246 0.120397 0.261697
v -0.538246 0.120397 0.261697
v -0.541948 0.12011 0.270452
v -0.528249 0.160293 0.273354
v -0.528249 0.160293 0.273354
v -0.528339 0.164015 0.29509
v -0.52475 0.166635 0.294869
v -0.52455 0.162956 0.273617
v -0.52455 0.162956 0.273617
v -0.52106 0.162125 0.269637
v -0.521919 0.158321 0.266462
v -0.528249 0.160293 0.273354
v -0.528249 0.160293 0.273354
v -0.541948 0.12011 0.270452
v -0.541948 0.119163 0.299257
v -0.528339 0.164015 0.29509
v -0.528339 0.164015 0.29509
v -0.528848 0.165481 0.316614
v -0.525318 0.168119 0.316383
v -0.52475 0.166635 0.294869
v -0.528339 0.164015 0.29509
v -0.541948 0.119163 0.299257
v -0.541948 0.118468 0.320423
v -0.528848 0.165481 0.316614
v -0.541948 0.119163 0.299257
v -0.541948 0.107901 0.298887
v -0.541948 0.107206 0.320053
v -0.541948 0.118468 0.320423
v -0.541948 0.119163 0.299257
v -0.541948 0.12011 0.270452
v -0.541948 0.108848 0.270078
v -0.541948 0.107901 0.298887
v -0.541948 0.118468 0.320423
v -0.541948 0.107206 0.320053
v -0.541948 0.10651 0.341219
v -0.541948 0.117772 0.341589
v -0.541948 0.105573 0.369738
v -0.541948 0.116836 0.370093
v -0.541948 0.117772 0.341589
v -0.541948 0.10651 0.341219
v -0.541948 0.105573 0.369738
v -0.538305 0.105279 0.378695
v -0.538303 0.116541 0.379061
v -0.541948 0.116836 0.370093
v -0.538305 0.105279 0.378695
v -0.529511 0.105157 0.382405
v -0.529505 0.116419 0.382775
v -0.538303 0.116541 0.379061
v 0.241405 0.116419 0.382775
v -0.529505 0.116419 0.382775
v -0.529511 0.105157 0.382405
v 0.241411 0.105157 0.382405
v 0.241411 0.105157 0.382405
v 0.250205 0.105279 0.378695
v 0.250204 0.116541 0.379061
v 0.241405 0.116419 0.382775
v 0.241405 0.116419 0.382775
v 0.250204 0.116541 0.379061
v 0.237023 0.161157 0.367093
v 0.237023 0.161157 0.367093
v -0.525122 0.161157 0.367093
v -0.529505 0.116419 0.382775
v 0.241405 0.116419 0.382775
v -0.538303 0.116541 0.379061
v -0.529505 0.116419 0.382775
v -0.525122 0.161157 0.367093
v -0.530864 0.162497 0.360031
v -0.524515 0.16465 0.363464
v -0.527412 0.165202 0.359365
v -0.530864 0.162497 0.360031
v -0.525122 0.161157 0.367093
v 0.236415 0.16465 0.363464
v -0.524515 0.16465 0.363464
v -0.525122 0.161157 0.367093
v 0.237023 0.161157 0.367093
v -0.529696 0.164956 0.338173
v -0.530864 0.162497 0.360031
v -0.527412 0.165202 0.359365
v -0.526213 0.167607 0.33793
v -0.541948 0.117772 0.341589
v -0.541948 0.116836 0.370093
v -0.530864 0.162497 0.360031
v -0.529696 0.164956 0.338173
v -0.541948 0.116836 0.370093
v -0.538303 0.116541 0.379061
v -0.530864 0.162497 0.360031
v 0.238114 0.167607 0.33793
v -0.526213 0.167607 0.33793
v -0.527412 0.165202 0.359365
v 0.239313 0.165202 0.359365
v -0.524515 0.16465 0.363464
v 0.236415 0.16465 0.363464
v 0.239313 0.165202 0.359365
v -0.527412 0.165202 0.359365
v -0.528848 0.165481 0.316614
v -0.529696 0.164956 0.338173
v -0.526213 0.167607 0.33793
v -0.525318 0.168119 0.316383
v 0.237219 0.168119 0.316383
v -0.525318 0.168119 0.316383
v -0.526213 0.167607 0.33793
v 0.238114 0.167607 0.33793
v 0.236651 0.166635 0.294869
v -0.52475 0.166635 0.294869
v -0.525318 0.168119 0.316383
v 0.237219 0.168119 0.316383
v -0.528848 0.165481 0.316614
v -0.541948 0.118468 0.320423
v -0.541948 0.117772 0.341589
v -0.529696 0.164956 0.338173
v 0.23645 0.162956 0.273617
v -0.52455 0.162956 0.273617
v -0.52475 0.166635 0.294869
v 0.236651 0.166635 0.294869
v 0.232961 0.162125 0.269637
v -0.52106 0.162125 0.269637
v -0.52455 0.162956 0.273617
v 0.23645 0.162956 0.273617
vn 1 -0 -0
vn 0.9953 -0.0031 0.0967
vn 0.9953 -0.003 0.0967
vn 1 -0 -0
vn 1 -0 -0
vn 1 -0 -0
vn 1 -0 -0
vn 1 -0 -0
vn 0.7138 -0.0226 0.7
vn 0.9953 -0.003 0.0967
vn 0.9953 -0.0031 0.0967
vn 0.7138 -0.0226 0.6999
vn 0.679 0.3387 0.6513
vn 0.9629 0.2577 0.0797
vn 0.9502 0.3008 0.0811
vn 0.0002 0.3309 0.9437
vn 0.9502 0.3008 0.0811
vn 0.9629 0.2577 0.0797
vn 0.9681 0.2505 -0.0088
vn 0.9535 0.3013 -0.006
vn 0.0031 0.992 0.1263
vn 0.0011 0.989 0.1479
vn 0.0002 0.3309 0.9437
vn 0.9502 0.3008 0.0811
vn 0.0038 0.9979 0.0641
vn 0.0031 0.992 0.1263
vn 0.9502 0.3008 0.0811
vn 0.9535 0.3013 -0.006
vn 0.0042 0.9997 -0.0245
vn 0.0038 0.9979 0.0641
vn 0.9535 0.3013 -0.006
vn 0.9466 0.322 -0.0165
vn 0.9535 0.3013 -0.006
vn 0.9681 0.2505 -0.0088
vn 0.9634 0.2678 -0.014
vn 0.9466 0.322 -0.0165
vn 0.004 0.993 -0.1182
vn 0.0042 0.9997 -0.0245
vn 0.9466 0.322 -0.0165
vn 0.9389 0.3431 -0.0258
vn 0.9466 0.322 -0.0165
vn 0.9634 0.2678 -0.014
vn 0.9562 0.2922 -0.0175
vn 0.9389 0.3431 -0.0258
vn 1 -0 -0
vn 1 -0 -0
vn 1 -0 -0
vn 1 -0 -0
vn 0.9952 0.0033 -0.0982
vn 0.9951 0.0034 -0.0989
vn 1 -0 -0
vn 1 -0 -0
vn 0.9562 0.2922 -0.0175
vn 0.9445 0.3139 -0.0974
vn 0.9276 0.3578 -0.1073
vn 0.9389 0.3431 -0.0258
vn 0.7001 0.0238 -0.7136
vn 0.9951 0.0034 -0.0989
vn 0.9952 0.0033 -0.0982
vn 0.7002 0.0238 -0.7136
vn 0.9276 0.3578 -0.1073
vn 0.9445 0.3139 -0.0974
vn 0.6672 0.3202 -0.6726
vn 0.0005 0.9751 -0.2219
vn 0.0029 0.9813 -0.1925
vn 0.9276 0.3578 -0.1073
vn 0.0018 0.2186 -0.9758
vn 0.0029 0.9813 -0.1925
vn 0.004 0.993 -0.1182
vn 0.9389 0.3431 -0.0258
vn 0.9276 0.3578 -0.1073
vn 0.0018 0.2186 -0.9758
vn 0.9276 0.3578 -0.1073
vn 0.6672 0.3202 -0.6726
vn 0.0036 0.2177 -0.976
vn -0.0006 0.9751 -0.2219
vn 0.0005 0.9751 -0.2219
vn 0.0018 0.2186 -0.9758
vn -0.002 0.2187 -0.9758
vn -0.002 0.2187 -0.9758
vn 0.0018 0.2186 -0.9758
vn 0.0036 0.2177 -0.976
vn -0.0036 0.2177 -0.976
vn 0.0038 0.033 -0.9994
vn 0.7001 0.0238 -0.7136
vn 0.7002 0.0238 -0.7136
vn 0.0038 0.033 -0.9994
vn -0.0038 0.033 -0.9994
vn 0.0038 0.033 -0.9994
vn 0.0038 0.033 -0.9994
vn -0.0038 0.0328 -0.9995
vn -0.0038 0.0328 -0.9995
vn -0.7002 0.0238 -0.7135
vn -0.7021 0.0237 -0.7116
vn -0.0038 0.033 -0.9994
vn -0.0036 0.2177 -0.976
vn -0.6672 0.3202 -0.6725
vn -0.9276 0.3578 -0.1073
vn -0.002 0.2187 -0.9758
vn -0.7002 0.0238 -0.7135
vn -0.9952 0.0033 -0.0981
vn -0.9951 0.0033 -0.099
vn -0.7021 0.0237 -0.7116
vn -0.6672 0.3202 -0.6725
vn -0.9445 0.3139 -0.0972
vn -0.9276 0.3578 -0.1073
vn -0.9276 0.3578 -0.1073
vn -0.9389 0.3431 -0.0259
vn -0.004 0.993 -0.1182
vn -0.0029 0.9813 -0.1925
vn -0.0029 0.9813 -0.1925
vn -0.0006 0.9751 -0.2219
vn -0.002 0.2187 -0.9758
vn -0.9276 0.3578 -0.1073
vn -0.9276 0.3578 -0.1073
vn -0.9445 0.3139 -0.0972
vn -0.9562 0.2922 -0.0175
vn -0.9389 0.3431 -0.0259
vn -0.9389 0.3431 -0.0259
vn -0.9466 0.3221 -0.0165
vn -0.0042 0.9997 -0.0246
vn -0.004 0.993 -0.1182
vn -0.9389 0.3431 -0.0259
vn -0.9562 0.2922 -0.0175
vn -0.9634 0.2678 -0.014
vn -0.9466 0.3221 -0.0165
vn -1 -0 -0
vn -1 -0 -0
vn -1 -0 -0
vn -1 -0 -0
vn -1 -0 -0
vn -0.9951 0.0033 -0.099
vn -0.9952 0.0033 -0.0981
vn -1 -0 -0
vn -1 -0 -0
vn -1 -0 -0
vn -1 -0 -0
vn -1 -0 -0
vn -0.9953 -0.0031 0.0967
vn -0.9953 -0.003 0.0967
vn -1 -0 -0
vn -1 -0 -0
vn -0.9953 -0.0031 0.0967
vn -0.7139 -0.0226 0.6999
vn -0.7138 -0.0226 0.6999
vn -0.9953 -0.003 0.0967
vn -0.7139 -0.0226 0.6999
vn -0.0038 -0.0327 0.9995
vn -0.0039 -0.0327 0.9995
vn -0.7138 -0.0226 0.6999
vn 0.0039 -0.0327 0.9995
vn -0.0039 -0.0327 0.9995
vn -0.0038 -0.0327 0.9995
vn 0.0038 -0.0327 0.9995
vn 0.0038 -0.0327 0.9995
vn 0.7138 -0.0226 0.7
vn 0.7138 -0.0226 0.6999
vn 0.0039 -0.0327 0.9995
vn 0.0038 0.3312 0.9435
vn 0.679 0.3387 0.6513
vn 0.0002 0.3309 0.9437
vn 0.0002 0.3309 0.9437
vn -0.0021 0.3326 0.9431
vn -0.0037 0.3314 0.9435
vn 0.0038 0.3312 0.9435
vn -0.6791 0.3387 0.6513
vn -0.0037 0.3314 0.9435
vn -0.0021 0.3326 0.9431
vn -0.9503 0.3005 0.0813
vn -0.0011 0.989 0.1479
vn -0.003 0.992 0.1263
vn -0.9503 0.3005 0.0813
vn -0.0021 0.3326 0.9431
vn 0.0011 0.989 0.1479
vn -0.0011 0.989 0.1479
vn -0.0021 0.3326 0.9431
vn 0.0002 0.3309 0.9437
vn -0.9535 0.3013 -0.006
vn -0.9503 0.3005 0.0813
vn -0.003 0.992 0.1263
vn -0.0039 0.9979 0.0641
vn -0.9681 0.2505 -0.0088
vn -0.963 0.2575 0.0797
vn -0.9503 0.3005 0.0813
vn -0.9535 0.3013 -0.006
vn -0.963 0.2575 0.0797
vn -0.6791 0.3387 0.6513
vn -0.9503 0.3005 0.0813
vn 0.0038 0.9979 0.0641
vn -0.0039 0.9979 0.0641
vn -0.003 0.992 0.1263
vn 0.0031 0.992 0.1263
vn -0.0011 0.989 0.1479
vn 0.0011 0.989 0.1479
vn 0.0031 0.992 0.1263
vn -0.003 0.992 0.1263
vn -0.9466 0.3221 -0.0165
vn -0.9535 0.3013 -0.006
vn -0.0039 0.9979 0.0641
vn -0.0042 0.9997 -0.0246
vn 0.0042 0.9997 -0.0245
vn -0.0042 0.9997 -0.0246
vn -0.0039 0.9979 0.0641
vn 0.0038 0.9979 0.0641
vn 0.004 0.993 -0.1182
vn -0.004 0.993 -0.1182
vn -0.0042 0.9997 -0.0246
vn 0.0042 0.9997 -0.0245
vn -0.9466 0.3221 -0.0165
vn -0.9634 0.2678 -0.014
vn -0.9681 0.2505 -0.0088
vn -0.9535 0.3013 -0.006
vn 0.0029 0.9813 -0.1925
vn -0.0029 0.9813 -0.1925
vn -0.004 0.993 -0.1182
vn 0.004 0.993 -0.1182
vn 0.0005 0.9751 -0.2219
vn -0.0006 0.9751 -0.2219
vn -0.0029 0.9813 -0.1925
vn 0.0029 0.9813 -0.1925
vt 0.622536 0.353914
vt 0.622601 0.367408
vt 0.624472 0.367708
vt 0.624472 0.353723
vt 0.622536 0.353914
vt 0.624472 0.353723
vt 0.624472 0.343345
vt 0.622538 0.34354
vt 0.622686 0.3721
vt 0.624472 0.367708
vt 0.622601 0.367408
vt 0.621373 0.370869
vt 0.621373 0.370869
vt 0.622601 0.367408
vt 0.589165 0.360741
vt 0.586793 0.363658
vt 0.589165 0.360741
vt 0.622601 0.367408
vt 0.622536 0.353914
vt 0.588682 0.351711
vt 0.587739 0.360466
vt 0.586542 0.362159
vt 0.586793 0.363658
vt 0.589165 0.360741
vt 0.587243 0.35161
vt 0.587739 0.360466
vt 0.589165 0.360741
vt 0.588682 0.351711
vt 0.586874 0.342709
vt 0.587243 0.35161
vt 0.588682 0.351711
vt 0.588332 0.342804
vt 0.588682 0.351711
vt 0.622536 0.353914
vt 0.622538 0.34354
vt 0.588332 0.342804
vt 0.586639 0.333821
vt 0.586874 0.342709
vt 0.588332 0.342804
vt 0.588122 0.333913
vt 0.588332 0.342804
vt 0.622538 0.34354
vt 0.622542 0.333165
vt 0.588122 0.333913
vt 0.622538 0.34354
vt 0.624472 0.343345
vt 0.624472 0.332966
vt 0.622542 0.333165
vt 0.624472 0.31884
vt 0.622585 0.319406
vt 0.622542 0.333165
vt 0.624472 0.332966
vt 0.622542 0.333165
vt 0.622585 0.319406
vt 0.588084 0.324933
vt 0.588122 0.333913
vt 0.621248 0.316035
vt 0.622585 0.319406
vt 0.624472 0.31884
vt 0.622659 0.314549
vt 0.588084 0.324933
vt 0.622585 0.319406
vt 0.621248 0.316035
vt 0.585115 0.323398
vt 0.586556 0.325042
vt 0.588084 0.324933
vt 0.585469 0.322086
vt 0.586556 0.325042
vt 0.586639 0.333821
vt 0.588122 0.333913
vt 0.588084 0.324933
vt 0.585469 0.322086
vt 0.588084 0.324933
vt 0.621248 0.316035
vt 0.617802 0.314821
vt 0.273619 0.323398
vt 0.585115 0.323398
vt 0.585469 0.322086
vt 0.273264 0.322086
vt 0.273264 0.322086
vt 0.585469 0.322086
vt 0.617802 0.314821
vt 0.240932 0.314821
vt 0.617802 0.314821
vt 0.621248 0.316035
vt 0.622659 0.314549
vt 0.618281 0.312771
vt 0.240932 0.314821
vt 0.617802 0.314821
vt 0.618281 0.312771
vt 0.240452 0.312771
vt 0.240452 0.312771
vt 0.236074 0.314549
vt 0.237485 0.316035
vt 0.240932 0.314821
vt 0.240932 0.314821
vt 0.237485 0.316035
vt 0.270649 0.324933
vt 0.273264 0.322086
vt 0.236074 0.314549
vt 0.234261 0.31884
vt 0.236148 0.319406
vt 0.237485 0.316035
vt 0.237485 0.316035
vt 0.236148 0.319406
vt 0.270649 0.324933
vt 0.270649 0.324933
vt 0.270611 0.333913
vt 0.272094 0.333821
vt 0.272177 0.325042
vt 0.272177 0.325042
vt 0.273619 0.323398
vt 0.273264 0.322086
vt 0.270649 0.324933
vt 0.270649 0.324933
vt 0.236148 0.319406
vt 0.236191 0.333165
vt 0.270611 0.333913
vt 0.270611 0.333913
vt 0.270401 0.342804
vt 0.271859 0.342709
vt 0.272094 0.333821
vt 0.270611 0.333913
vt 0.236191 0.333165
vt 0.236195 0.34354
vt 0.270401 0.342804
vt 0.236191 0.333165
vt 0.234261 0.332966
vt 0.234261 0.343345
vt 0.236195 0.34354
vt 0.236191 0.333165
vt 0.236148 0.319406
vt 0.234261 0.31884
vt 0.234261 0.332966
vt 0.236195 0.34354
vt 0.234261 0.343345
vt 0.234261 0.353723
vt 0.236197 0.353913
vt 0.234261 0.367708
vt 0.236154 0.367488
vt 0.236197 0.353913
vt 0.234261 0.353723
vt 0.234261 0.367708
vt 0.236047 0.3721
vt 0.237461 0.370969
vt 0.236154 0.367488
vt 0.236047 0.3721
vt 0.240359 0.373919
vt 0.240836 0.372233
vt 0.237461 0.370969
vt 0.617988 0.37221
vt 0.240836 0.372233
vt 0.240359 0.373919
vt 0.618374 0.373919
vt 0.618374 0.373919
vt 0.622686 0.3721
vt 0.621373 0.370869
vt 0.617988 0.37221
vt 0.617988 0.37221
vt 0.621373 0.370869
vt 0.586793 0.363658
vt 0.586793 0.363658
vt 0.27194 0.363658
vt 0.240836 0.372233
vt 0.617988 0.37221
vt 0.237461 0.370969
vt 0.240836 0.372233
vt 0.27194 0.363658
vt 0.269569 0.360741
vt 0.272192 0.362159
vt 0.270994 0.360465
vt 0.269569 0.360741
vt 0.27194 0.363658
vt 0.586542 0.362159
vt 0.272192 0.362159
vt 0.27194 0.363658
vt 0.586793 0.363658
vt 0.270051 0.351711
vt 0.269569 0.360741
vt 0.270994 0.360465
vt 0.27149 0.35161
vt 0.236197 0.353913
vt 0.236154 0.367488
vt 0.269569 0.360741
vt 0.270051 0.351711
vt 0.236154 0.367488
vt 0.237461 0.370969
vt 0.269569 0.360741
vt 0.587243 0.35161
vt 0.27149 0.35161
vt 0.270994 0.360465
vt 0.587739 0.360466
vt 0.272192 0.362159
vt 0.586542 0.362159
vt 0.587739 0.360466
vt 0.270994 0.360465
vt 0.270401 0.342804
vt 0.270051 0.351711
vt 0.27149 0.35161
vt 0.271859 0.342709
vt 0.586874 0.342709
vt 0.271859 0.342709
vt 0.27149 0.35161
vt 0.587243 0.35161
vt 0.586639 0.333821
vt 0.272094 0.333821
vt 0.271859 0.342709
vt 0.586874 0.342709
vt 0.270401 0.342804
vt 0.236195 0.34354
vt 0.236197 0.353913
vt 0.270051 0.351711
vt 0.586556 0.325042
vt 0.272177 0.325042
vt 0.272094 0.333821
vt 0.586639 0.333821
vt 0.585115 0.323398
vt 0.273619 0.323398
vt 0.272177 0.325042
vt 0.586556 0.325042
s off
f 1/1/1 2/2/2 3/3/3
f 1/1/1 3/3/3 4/4/4
f 5/5/5 6/6/6 7/7/7
f 5/5/5 7/7/7 8/8/8
f 9/9/9 10/10/10 11/11/11
f 9/9/9 11/11/11 12/12/12
f 13/13/13 14/14/14 15/15/15
f 13/13/13 15/15/15 16/16/16
f 17/17/17 18/18/18 19/19/19
f 17/17/17 19/19/19 20/20/20
f 21/21/21 22/22/22 23/23/23
f 21/21/21 23/23/23 24/24/24
f 25/25/25 26/26/26 27/27/27
f 25/25/25 27/27/27 28/28/28
f 29/29/29 30/30/30 31/31/31
f 29/29/29 31/31/31 32/32/32
f 33/33/33 34/34/34 35/35/35
f 33/33/33 35/35/35 36/36/36
f 37/37/37 38/38/38 39/39/39
f 37/37/37 39/39/39 40/40/40
f 41/41/41 42/42/42 43/43/43
f 41/41/41 43/43/43 44/44/44
f 45/45/45 46/46/46 47/47/47
f 45/45/45 47/47/47 48/48/48
f 49/49/49 50/50/50 51/51/51
f 49/49/49 51/51/51 52/52/52
f 53/53/53 54/54/54 55/55/55
f 53/53/53 55/55/55 56/56/56
f 57/57/57 58/58/58 59/59/59
f 57/57/57 59/59/59 60/60/60
f 61/61/61 62/62/62 63/63/63
f 64/64/64 65/65/65 66/66/66
f 64/64/64 66/66/66 67/67/67
f 68/68/68 69/69/69 70/70/70
f 68/68/68 70/70/70 71/71/71
f 72/72/72 73/73/73 74/74/74
f 72/72/72 74/74/74 75/75/75
f 76/76/76 77/77/77 78/78/78
f 76/76/76 78/78/78 79/79/79
f 80/80/80 81/81/81 82/82/82
f 80/80/80 82/82/82 83/83/83
f 84/84/84 85/85/85 86/86/86
f 84/84/84 86/86/86 87/87/87
f 88/88/88 89/89/89 90/90/90
f 88/88/88 90/90/90 91/91/91
f 92/92/92 93/93/93 94/94/94
f 92/92/92 94/94/94 95/95/95
f 96/96/96 97/97/97 98/98/98
f 96/96/96 98/98/98 99/99/99
f 100/100/100 101/101/101 102/102/102
f 100/100/100 102/102/102 103/103/103
f 104/104/104 105/105/105 106/106/106
f 107/107/107 108/108/108 109/109/109
f 107/107/107 109/109/109 110/110/110
f 111/111/111 112/112/112 113/113/113
f 111/111/111 113/113/113 114/114/114
f 115/115/115 116/116/116 117/117/117
f 115/115/115 117/117/117 118/118/118
f 119/119/119 120/120/120 121/121/121
f 119/119/119 121/121/121 122/122/122
f 123/123/123 124/124/124 125/125/125
f 123/123/123 125/125/125 126/126/126
f 127/127/127 128/128/128 129/129/129
f 127/127/127 129/129/129 130/130/130
f 131/131/131 132/132/132 133/133/133
f 131/131/131 133/133/133 134/134/134
f 135/135/135 136/136/136 137/137/137
f 135/135/135 137/137/137 138/138/138
f 139/139/139 140/140/140 141/141/141
f 139/139/139 141/141/141 142/142/142
f 143/143/143 144/144/144 145/145/145
f 143/143/143 145/145/145 146/146/146
f 147/147/147 148/148/148 149/149/149
f 147/147/147 149/149/149 150/150/150
f 151/151/151 152/152/152 153/153/153
f 151/151/151 153/153/153 154/154/154
f 155/155/155 156/156/156 157/157/157
f 155/155/155 157/157/157 158/158/158
f 159/159/159 160/160/160 161/161/161
f 162/162/162 163/163/163 164/164/164
f 162/162/162 164/164/164 165/165/165
f 166/166/166 167/167/167 168/168/168
f 166/166/166 168/168/168 169/169/169
f 170/170/170 171/171/171 172/172/172
f 170/170/170 172/172/172 173/173/173
f 174/174/174 175/175/175 176/176/176
f 174/174/174 176/176/176 177/177/177
f 178/178/178 179/179/179 180/180/180
f 178/178/178 180/180/180 181/181/181
f 182/182/182 183/183/183 184/184/184
f 182/182/182 184/184/184 185/185/185
f 186/186/186 187/187/187 188/188/188
f 189/189/189 190/190/190 191/191/191
f 189/189/189 191/191/191 192/192/192
f 193/193/193 194/194/194 195/195/195
f 193/193/193 195/195/195 196/196/196
f 197/197/197 198/198/198 199/199/199
f 197/197/197 199/199/199 200/200/200
f 201/201/201 202/202/202 203/203/203
f 201/201/201 203/203/203 204/204/204
f 205/205/205 206/206/206 207/207/207
f 205/205/205 207/207/207 208/208/208
f 209/209/209 210/210/210 211/211/211
f 209/209/209 211/211/211 212/212/212
f 213/213/213 214/214/214 215/215/215
f 213/213/213 215/215/215 216/216/216
f 217/217/217 218/218/218 219/219/219
f 217/217/217 219/219/219 220/220/220
