v -0.284207 0.181209 -0.097522
v -0.284207 0.181023 -0.094476
v -0.275772 0.180255 -0.094476
v -0.275772 0.179187 -0.072918
v -0.272256 0.179935 -0.094476
v -0.275772 0.180255 -0.094476
v -0.272256 0.179935 -0.094476
v -0.284207 0.181209 -0.097522
v -0.275772 0.180255 -0.094476
v -0.272256 0.179935 -0.094476
v -0.263821 0.179895 -0.097522
v -0.284207 0.181209 -0.097522
v -0.263821 0.179656 -0.094476
v -0.263821 0.179895 -0.097522
v -0.272256 0.179935 -0.094476
v -0.275772 0.179187 -0.072918
v -0.272256 0.178866 -0.072918
v -0.272256 0.179935 -0.094476
vn 0.0905 0.994 0.0607
vn 0.0905 0.994 0.0607
vn 0.0905 0.994 0.0607
vn 0.0906 0.9947 0.0493
vn 0.0906 0.9947 0.0493
vn 0.0906 0.9947 0.0493
vn 0.0906 0.994 0.0606
vn 0.0906 0.994 0.0606
vn 0.0906 0.994 0.0606
vn 0.0634 0.9846 0.163
vn 0.0634 0.9846 0.163
vn 0.0634 0.9846 0.163
vn 0.033 0.9964 0.0784
vn 0.033 0.9964 0.0784
vn 0.033 0.9964 0.0784
vn 0.0906 0.9947 0.0493
vn 0.0906 0.9947 0.0493
vn 0.0906 0.9947 0.0493
vt 0.363423 0.528468
vt 0.363423 0.529956
vt 0.367543 0.529956
vt 0.367543 0.540484
vt 0.369259 0.529956
vt 0.367543 0.529956
vt 0.369259 0.529956
vt 0.363423 0.528468
vt 0.367543 0.529956
vt 0.369259 0.529956
vt 0.373379 0.528468
vt 0.363423 0.528468
vt 0.373379 0.529956
vt 0.373379 0.528468
vt 0.369259 0.529956
vt 0.367543 0.540484
vt 0.369259 0.540484
vt 0.369259 0.529956
s off
f 1/1/1 2/2/2 3/3/3
f 4/4/4 5/5/5 6/6/6
f 7/7/7 8/8/8 9/9/9
f 10/10/10 11/11/11 12/12/12
f 13/13/13 14/14/14 15/15/15
f 16/16/16 17/17/17 18/18/18
