v -0.940858 0.179707 -0.09473
v -0.938175 0.179646 -0.094295
v -0.937912 0.179866 -0.097404
v -0.956896 0.179481 -0.08151
v -0.962989 0.180173 -0.088774
v -0.962052 0.18001 -0.086509
v -0.940844 0.17945 -0.08971
v -0.937877 0.17943 -0.090146
v -0.939764 0.179525 -0.091484
v -0.939781 0.179357 -0.088179
v -0.937877 0.17943 -0.090146
v -0.940844 0.17945 -0.08971
v -0.940858 0.179707 -0.09473
v -0.937912 0.179866 -0.097404
v -0.940793 0.179853 -0.09682
v -0.940571 0.179549 -0.091723
v -0.943311 0.179525 -0.090477
v -0.940844 0.17945 -0.08971
v -0.939781 0.179357 -0.088179
v -0.936984 0.179317 -0.088192
v -0.937877 0.17943 -0.090146
v -0.98361 0.181959 -0.098928
v -0.986422 0.182163 -0.098928
v -0.986422 0.181405 -0.08151
v -0.968691 0.181224 -0.10135
v -0.971581 0.180641 -0.088774
v -0.967285 0.180949 -0.098538
v -0.98361 0.181959 -0.098928
v -0.976815 0.181497 -0.098928
v -0.976815 0.181667 -0.10135
v -0.968691 0.181224 -0.10135
v -0.967285 0.180949 -0.098538
v -0.965957 0.181075 -0.10135
v -0.937088 0.179158 -0.085053
v -0.939855 0.17924 -0.085877
v -0.939101 0.179066 -0.082681
v -0.943286 0.179187 -0.083873
v -0.951116 0.179314 -0.083853
v -0.942546 0.179058 -0.081552
v -0.941939 0.179653 -0.093378
v -0.940571 0.179549 -0.091723
v -0.939274 0.179573 -0.092562
v -0.944076 0.179649 -0.092695
v -0.951038 0.17975 -0.09268
v -0.951116 0.179643 -0.090492
v -0.938175 0.179646 -0.094295
v -0.940858 0.179707 -0.09473
v -0.939274 0.179573 -0.092562
v -0.951038 0.17975 -0.09268
v -0.951038 0.180205 -0.099007
v -0.954007 0.180525 -0.10135
v -0.940571 0.179549 -0.091723
v -0.941939 0.179653 -0.093378
v -0.943311 0.179525 -0.090477
v -0.951116 0.179643 -0.090492
v -0.954007 0.179324 -0.08151
v -0.951116 0.179314 -0.083853
v -0.940941 0.17919 -0.084586
v -0.939101 0.179066 -0.082681
v -0.939855 0.17924 -0.085877
v -0.951116 0.179314 -0.083853
v -0.954007 0.179324 -0.08151
v -0.942546 0.179058 -0.081552
v -0.956896 0.179481 -0.08151
v -0.962052 0.18001 -0.086509
v -0.959864 0.179643 -0.08151
v -0.98361 0.181959 -0.098928
v -0.976815 0.181667 -0.10135
v -0.993218 0.182828 -0.10135
v -0.954007 0.180525 -0.10135
v -0.951038 0.180205 -0.099007
v -0.945124 0.18013 -0.099128
v -0.942546 0.179058 -0.081552
v -0.939101 0.179066 -0.082681
v -0.940941 0.17919 -0.084586
v -0.940858 0.179707 -0.09473
v -0.941939 0.179653 -0.093378
v -0.939274 0.179573 -0.092562
v -0.954007 0.180525 -0.10135
v -0.951116 0.179643 -0.090492
v -0.951038 0.17975 -0.09268
v -0.939878 0.180145 -0.100096
v -0.941829 0.180008 -0.098328
v -0.940793 0.179853 -0.09682
v -0.937912 0.179866 -0.097404
v -0.951116 0.179643 -0.090492
v -0.954007 0.180525 -0.10135
v -0.954007 0.179324 -0.08151
v -0.941829 0.180008 -0.098328
v -0.939878 0.180145 -0.100096
v -0.943018 0.180298 -0.10126
v -0.993218 0.182828 -0.10135
v -0.993218 0.182718 -0.098928
v -0.986422 0.182163 -0.098928
v -0.971581 0.180641 -0.088774
v -0.968691 0.181224 -0.10135
v -0.977674 0.180691 -0.08151
v -0.972597 0.180584 -0.086509
v -0.977674 0.180691 -0.08151
v -0.974784 0.180487 -0.08151
v -0.972597 0.180584 -0.086509
v -0.945124 0.18013 -0.099128
v -0.943018 0.180298 -0.10126
v -0.954007 0.180525 -0.10135
v -0.993218 0.182828 -0.10135
v -0.986422 0.182163 -0.098928
v -0.98361 0.181959 -0.098928
v -0.98361 0.181172 -0.08151
v -0.98361 0.181959 -0.098928
v -0.986422 0.181405 -0.08151
v -0.962989 0.180173 -0.088774
v -0.956896 0.179481 -0.08151
v -0.965957 0.181075 -0.10135
v -0.967285 0.180949 -0.098538
v -0.943018 0.180298 -0.10126
v -0.945124 0.18013 -0.099128
v -0.941829 0.180008 -0.098328
v -0.942546 0.179058 -0.081552
v -0.940941 0.17919 -0.084586
v -0.943286 0.179187 -0.083873
v -0.944076 0.179649 -0.092695
v -0.951116 0.179643 -0.090492
v -0.943311 0.179525 -0.090477
v -0.940844 0.17945 -0.08971
v -0.939764 0.179525 -0.091484
v -0.940571 0.179549 -0.091723
v -0.962052 0.18001 -0.086509
v -0.962989 0.180173 -0.088774
v -0.971581 0.180641 -0.088774
v -0.972597 0.180584 -0.086509
v -0.941939 0.179653 -0.093378
v -0.944076 0.179649 -0.092695
v -0.943311 0.179525 -0.090477
v -0.936984 0.179317 -0.088192
v -0.939781 0.179357 -0.088179
v -0.939855 0.17924 -0.085877
v -0.937088 0.179158 -0.085053
v -0.976815 0.181667 -0.10135
v -0.976815 0.181667 -0.10135
v -0.940571 0.179549 -0.091723
v -0.940648 0.179551 -0.091742
vn 0.011 0.9974 0.0714
vn 0.011 0.9974 0.0714
vn 0.011 0.9974 0.0714
vn 0.0543 0.9973 0.0494
vn 0.0543 0.9973 0.0494
vn 0.0543 0.9973 0.0494
vn 0.0144 0.9986 0.0511
vn 0.0144 0.9986 0.0511
vn 0.0144 0.9986 0.0511
vn 0.0144 0.9986 0.051
vn 0.0144 0.9986 0.051
vn 0.0144 0.9986 0.051
vn 0.0098 0.9975 0.0701
vn 0.0098 0.9975 0.0701
vn 0.0098 0.9975 0.0701
vn 0.0144 0.9986 0.051
vn 0.0144 0.9986 0.051
vn 0.0144 0.9986 0.051
vn 0.0144 0.9986 0.051
vn 0.0144 0.9986 0.051
vn 0.0144 0.9986 0.051
vn 0.0724 0.9964 0.0434
vn 0.0724 0.9964 0.0434
vn 0.0724 0.9964 0.0434
vn 0.0701 0.9956 0.0623
vn 0.0701 0.9956 0.0623
vn 0.0701 0.9956 0.0623
vn 0.0677 0.9952 0.0701
vn 0.0677 0.9952 0.0701
vn 0.0677 0.9952 0.0701
vn 0.0543 0.9961 0.0702
vn 0.0543 0.9961 0.0702
vn 0.0543 0.9961 0.0702
vn 0.0144 0.9986 0.051
vn 0.0144 0.9986 0.051
vn 0.0144 0.9986 0.051
vn 0.0163 0.9986 0.0504
vn 0.0163 0.9986 0.0504
vn 0.0163 0.9986 0.0504
vn 0.0143 0.9986 0.051
vn 0.0143 0.9986 0.051
vn 0.0143 0.9986 0.051
vn 0.0146 0.9987 0.0494
vn 0.0146 0.9987 0.0494
vn 0.0146 0.9987 0.0494
vn 0.0144 0.9986 0.051
vn 0.0144 0.9986 0.051
vn 0.0144 0.9986 0.051
vn 0.0509 0.9961 0.0716
vn 0.0509 0.9961 0.0716
vn 0.0509 0.9961 0.0716
vn 0.0144 0.9986 0.051
vn 0.0144 0.9986 0.051
vn 0.0144 0.9986 0.051
vn 0.0435 0.9978 0.0494
vn 0.0435 0.9978 0.0494
vn 0.0435 0.9978 0.0494
vn 0.0143 0.9986 0.051
vn 0.0143 0.9986 0.051
vn 0.0143 0.9986 0.051
vn 0.0233 0.9994 0.0245
vn 0.0233 0.9994 0.0245
vn 0.0233 0.9994 0.0245
vn 0.0543 0.9973 0.0494
vn 0.0543 0.9973 0.0494
vn 0.0543 0.9973 0.0494
vn 0.0704 0.9945 0.0778
vn 0.0704 0.9945 0.0778
vn 0.0704 0.9945 0.0778
vn 0.0148 0.993 0.1168
vn 0.0148 0.993 0.1168
vn 0.0148 0.993 0.1168
vn 0.0143 0.9986 0.051
vn 0.0143 0.9986 0.051
vn 0.0143 0.9986 0.051
vn 0.0144 0.9986 0.051
vn 0.0144 0.9986 0.051
vn 0.0144 0.9986 0.051
vn 0.1062 0.993 0.0524
vn 0.1062 0.993 0.0524
vn 0.1062 0.993 0.0524
vn 0.0144 0.9956 0.0926
vn 0.0144 0.9956 0.0926
vn 0.0144 0.9956 0.0926
vn 0.0144 0.9956 0.0926
vn 0.0773 0.9952 0.0602
vn 0.0773 0.9952 0.0602
vn 0.0773 0.9952 0.0602
vn 0.0144 0.9956 0.0926
vn 0.0144 0.9956 0.0926
vn 0.0144 0.9956 0.0926
vn 0.0812 0.9957 0.0455
vn 0.0812 0.9957 0.0455
vn 0.0812 0.9957 0.0455
vn 0.0864 0.9941 0.0656
vn 0.0864 0.9941 0.0656
vn 0.0864 0.9941 0.0656
vn 0.0864 0.9941 0.0656
vn 0.0702 0.9963 0.05
vn 0.0702 0.9963 0.05
vn 0.0702 0.9963 0.05
vn 0.0197 0.995 0.0978
vn 0.0197 0.995 0.0978
vn 0.0197 0.995 0.0978
vn 0.0723 0.9949 0.0702
vn 0.0723 0.9949 0.0702
vn 0.0723 0.9949 0.0702
vn 0.0825 0.9956 0.045
vn 0.0825 0.9956 0.045
vn 0.0825 0.9956 0.045
vn 0.0386 0.9973 0.0624
vn 0.0386 0.9973 0.0624
vn 0.0386 0.9973 0.0624
vn 0.0386 0.9973 0.0624
vn 0.0144 0.9956 0.0926
vn 0.0144 0.9956 0.0926
vn 0.0144 0.9956 0.0926
vn 0.0144 0.9986 0.051
vn 0.0144 0.9986 0.051
vn 0.0144 0.9986 0.051
vn 0.015 0.9986 0.0508
vn 0.015 0.9986 0.0508
vn 0.015 0.9986 0.0508
vn 0.0143 0.9986 0.051
vn 0.0143 0.9986 0.051
vn 0.0143 0.9986 0.051
vn 0.0543 0.9973 0.0494
vn 0.0543 0.9973 0.0494
vn 0.0543 0.9973 0.0494
vn 0.0543 0.9973 0.0494
vn 0.0144 0.9986 0.051
vn 0.0144 0.9986 0.051
vn 0.0144 0.9986 0.051
vn 0.0144 0.9986 0.051
vn 0.0144 0.9986 0.051
vn 0.0144 0.9986 0.051
vn 0.0144 0.9986 0.051
vn 0 0 0
vn 0 0 0
vn 0 0 0
vn 0 0 0
vt 0.042752 0.529832
vt 0.044063 0.530044
vt 0.044191 0.528526
vt 0.03492 0.536288
vt 0.031945 0.53274
vt 0.032403 0.533847
vt 0.042759 0.532284
vt 0.044208 0.532071
vt 0.043287 0.531417
vt 0.043278 0.533031
vt 0.044208 0.532071
vt 0.042759 0.532284
vt 0.042752 0.529832
vt 0.044191 0.528526
vt 0.042784 0.528811
vt 0.042893 0.531301
vt 0.041555 0.531909
vt 0.042759 0.532284
vt 0.043278 0.533031
vt 0.044644 0.533025
vt 0.044208 0.532071
vt 0.021875 0.527782
vt 0.020501 0.527782
vt 0.020501 0.536288
vt 0.02916 0.526599
vt 0.027749 0.53274
vt 0.029847 0.527972
vt 0.021875 0.527782
vt 0.025193 0.527782
vt 0.025193 0.526599
vt 0.02916 0.526599
vt 0.029847 0.527972
vt 0.030496 0.526599
vt 0.044593 0.534557
vt 0.043242 0.534155
vt 0.043611 0.535716
vt 0.041567 0.535134
vt 0.037743 0.535144
vt 0.041928 0.536267
vt 0.042224 0.530492
vt 0.042893 0.531301
vt 0.043526 0.530891
vt 0.041181 0.530826
vt 0.037781 0.530833
vt 0.037743 0.531901
vt 0.044063 0.530044
vt 0.042752 0.529832
vt 0.043526 0.530891
vt 0.037781 0.530833
vt 0.037781 0.527744
vt 0.036331 0.526599
vt 0.042893 0.531301
vt 0.042224 0.530492
vt 0.041555 0.531909
vt 0.037743 0.531901
vt 0.036331 0.536288
vt 0.037743 0.535144
vt 0.042712 0.534786
vt 0.043611 0.535716
vt 0.043242 0.534155
vt 0.037743 0.535144
vt 0.036331 0.536288
vt 0.041928 0.536267
vt 0.03492 0.536288
vt 0.032403 0.533847
vt 0.033471 0.536288
vt 0.021875 0.527782
vt 0.025193 0.526599
vt 0.017183 0.526599
vt 0.036331 0.526599
vt 0.037781 0.527744
vt 0.040669 0.527684
vt 0.041928 0.536267
vt 0.043611 0.535716
vt 0.042712 0.534786
vt 0.042752 0.529832
vt 0.042224 0.530492
vt 0.043526 0.530891
vt 0.036331 0.526599
vt 0.037743 0.531901
vt 0.037781 0.530833
vt 0.043231 0.527212
vt 0.042278 0.528075
vt 0.042784 0.528811
vt 0.044191 0.528526
vt 0.037743 0.531901
vt 0.036331 0.526599
vt 0.036331 0.536288
vt 0.042278 0.528075
vt 0.043231 0.527212
vt 0.041698 0.526643
vt 0.017183 0.526599
vt 0.017183 0.527782
vt 0.020501 0.527782
vt 0.027749 0.53274
vt 0.02916 0.526599
vt 0.024774 0.536288
vt 0.027253 0.533847
vt 0.024774 0.536288
vt 0.026185 0.536288
vt 0.027253 0.533847
vt 0.040669 0.527684
vt 0.041698 0.526643
vt 0.036331 0.526599
vt 0.017183 0.526599
vt 0.020501 0.527782
vt 0.021875 0.527782
vt 0.021875 0.536288
vt 0.021875 0.527782
vt 0.020501 0.536288
vt 0.031945 0.53274
vt 0.03492 0.536288
vt 0.030496 0.526599
vt 0.029847 0.527972
vt 0.041698 0.526643
vt 0.040669 0.527684
vt 0.042278 0.528075
vt 0.041928 0.536267
vt 0.042712 0.534786
vt 0.041567 0.535134
vt 0.041181 0.530826
vt 0.037743 0.531901
vt 0.041555 0.531909
vt 0.042759 0.532284
vt 0.043287 0.531417
vt 0.042893 0.531301
vt 0.032403 0.533847
vt 0.031945 0.53274
vt 0.027749 0.53274
vt 0.027253 0.533847
vt 0.042224 0.530492
vt 0.041181 0.530826
vt 0.041555 0.531909
vt 0.044644 0.533025
vt 0.043278 0.533031
vt 0.043242 0.534155
vt 0.044593 0.534557
vt 0 1
vt 0 1
vt 0 1
vt 0 1
s off
f 1/1/1 2/2/2 3/3/3
f 4/4/4 5/5/5 6/6/6
f 7/7/7 8/8/8 9/9/9
f 10/10/10 11/11/11 12/12/12
f 13/13/13 14/14/14 15/15/15
f 16/16/16 17/17/17 18/18/18
f 19/19/19 20/20/20 21/21/21
f 22/22/22 23/23/23 24/24/24
f 25/25/25 26/26/26 27/27/27
f 28/28/28 29/29/29 30/30/30
f 31/31/31 32/32/32 33/33/33
f 34/34/34 35/35/35 36/36/36
f 37/37/37 38/38/38 39/39/39
f 40/40/40 41/41/41 42/42/42
f 43/43/43 44/44/44 45/45/45
f 46/46/46 47/47/47 48/48/48
f 49/49/49 50/50/50 51/51/51
f 52/52/52 53/53/53 54/54/54
f 55/55/55 56/56/56 57/57/57
f 58/58/58 59/59/59 60/60/60
f 61/61/61 62/62/62 63/63/63
f 64/64/64 65/65/65 66/66/66
f 67/67/67 68/68/68 69/69/69
f 70/70/70 71/71/71 72/72/72
f 73/73/73 74/74/74 75/75/75
f 76/76/76 77/77/77 78/78/78
f 79/79/79 80/80/80 81/81/81
f 82/82/82 83/83/83 84/84/84
f 82/82/82 84/84/84 85/85/85
f 86/86/86 87/87/87 88/88/88
f 89/89/89 90/90/90 91/91/91
f 92/92/92 93/93/93 94/94/94
f 95/95/95 96/96/96 97/97/97
f 95/95/95 97/97/97 98/98/98
f 99/99/99 100/100/100 101/101/101
f 102/102/102 103/103/103 104/104/104
f 105/105/105 106/106/106 107/107/107
f 108/108/108 109/109/109 110/110/110
f 111/111/111 112/112/112 113/113/113
f 111/111/111 113/113/113 114/114/114
f 115/115/115 116/116/116 117/117/117
f 118/118/118 119/119/119 120/120/120
f 121/121/121 122/122/122 123/123/123
f 124/124/124 125/125/125 126/126/126
f 127/127/127 128/128/128 129/129/129
f 127/127/127 129/129/129 130/130/130
f 131/131/131 132/132/132 133/133/133
f 134/134/134 135/135/135 136/136/136
f 134/134/134 136/136/136 137/137/137
f 138/138/138 139/139/139 140/140/140
