v -0.990202 0.128994 5.7e-05
v -0.990202 0.117732 -0.000313
v -0.957755 0.117732 -0.000313
v -0.957755 0.128994 5.7e-05
v -0.990202 0.117732 -0.000313
v -0.990202 0.128994 5.7e-05
v -1.00719 0.128994 5.7e-05
v -1.0072 0.117732 -0.000313
v -1.01604 0.117853 -0.003998
v -1.0072 0.117732 -0.000313
v -1.00719 0.128994 5.7e-05
v -1.01604 0.129116 -0.003631
v -1.01604 0.129116 -0.003631
v -1.00719 0.128994 5.7e-05
v -0.999984 0.177652 -0.01473
v -0.979246 0.175542 -0.014089
v -0.999984 0.177652 -0.01473
v -1.00719 0.128994 5.7e-05
v -0.990202 0.128994 5.7e-05
v -0.999195 0.18038 -0.018316
v -1.00244 0.180821 -0.022656
v -1.00591 0.178431 -0.021224
v -0.999984 0.177652 -0.01473
v -0.978625 0.178236 -0.01768
v -0.999195 0.18038 -0.018316
v -0.999984 0.177652 -0.01473
v -0.979246 0.175542 -0.014089
v -1.0197 0.129408 -0.012535
v -1.01604 0.129116 -0.003631
v -0.999984 0.177652 -0.01473
v -1.00591 0.178431 -0.021224
v -0.951995 0.176489 -0.017159
v -0.978625 0.178236 -0.01768
v -0.979246 0.175542 -0.014089
v -0.952317 0.173808 -0.013561
v -0.979246 0.175542 -0.014089
v -0.990202 0.128994 5.7e-05
v -0.957755 0.128994 5.7e-05
v -0.952317 0.173808 -0.013561
v -0.951995 0.176489 -0.017159
v -0.952317 0.173808 -0.013561
v -0.925458 0.173368 -0.013428
v -0.925458 0.176046 -0.017027
v -0.952317 0.173808 -0.013561
v -0.957755 0.128994 5.7e-05
v -0.925458 0.128994 5.7e-05
v -0.925458 0.173368 -0.013428
v -0.898922 0.176489 -0.017159
v -0.925458 0.176046 -0.017027
v -0.925458 0.173368 -0.013428
v -0.8986 0.173808 -0.013561
v -0.925458 0.128994 5.7e-05
v -0.893162 0.128994 5.7e-05
v -0.8986 0.173808 -0.013561
v -0.925458 0.173368 -0.013428
v -0.925458 0.117732 -0.000313
v -0.893162 0.117732 -0.000313
v -0.893162 0.128994 5.7e-05
v -0.925458 0.128994 5.7e-05
v -0.957755 0.128994 5.7e-05
v -0.957755 0.117732 -0.000313
v -0.925458 0.117732 -0.000313
v -0.925458 0.128994 5.7e-05
v -0.893162 0.128994 5.7e-05
v -0.893162 0.117732 -0.000313
v -0.860714 0.117732 -0.000313
v -0.860714 0.128994 5.7e-05
v -0.843714 0.117732 -0.000313
v -0.843722 0.128994 5.7e-05
v -0.860714 0.128994 5.7e-05
v -0.860714 0.117732 -0.000313
v -0.843714 0.117732 -0.000313
v -0.834879 0.117853 -0.003998
v -0.834881 0.129116 -0.003631
v -0.843722 0.128994 5.7e-05
v -0.834879 0.117853 -0.003998
v -0.831219 0.118146 -0.012893
v -0.831219 0.129408 -0.012535
v -0.834881 0.129116 -0.003631
v -0.831219 0.121422 -0.112596
v -0.831219 0.132684 -0.11222
v -0.831219 0.129408 -0.012535
v -0.831219 0.118146 -0.012893
v -0.834885 0.132972 -0.121008
v -0.831219 0.132684 -0.11222
v -0.831219 0.121422 -0.112596
v -0.834882 0.12171 -0.121379
v -0.845001 0.181194 -0.1059
v -0.831219 0.132684 -0.11222
v -0.834885 0.132972 -0.121008
v -0.845007 0.178431 -0.021224
v -0.831219 0.129408 -0.012535
v -0.831219 0.132684 -0.11222
v -0.845001 0.181194 -0.1059
v -0.84848 0.183579 -0.104541
v -0.848476 0.180821 -0.022656
v -0.845007 0.178431 -0.021224
v -0.845001 0.181194 -0.1059
v -0.851768 0.183567 -0.108678
v -0.84848 0.183579 -0.104541
v -0.845001 0.181194 -0.1059
v -0.851036 0.181006 -0.112154
v -0.851036 0.181006 -0.112154
v -0.845001 0.181194 -0.1059
v -0.834885 0.132972 -0.121008
v -0.843734 0.133092 -0.124648
v -0.848476 0.180821 -0.022656
v -0.851722 0.18038 -0.018316
v -0.850933 0.177652 -0.01473
v -0.845007 0.178431 -0.021224
v -0.834881 0.129116 -0.003631
v -0.831219 0.129408 -0.012535
v -0.845007 0.178431 -0.021224
v -0.850933 0.177652 -0.01473
v -0.851722 0.18038 -0.018316
v -0.872292 0.178236 -0.017681
v -0.871671 0.175542 -0.014089
v -0.850933 0.177652 -0.01473
v -0.850933 0.177652 -0.01473
v -0.871671 0.175542 -0.014089
v -0.860714 0.128994 5.7e-05
v -0.843722 0.128994 5.7e-05
v -0.843722 0.128994 5.7e-05
v -0.834881 0.129116 -0.003631
v -0.850933 0.177652 -0.01473
v -0.872292 0.178236 -0.017681
v -0.898922 0.176489 -0.017159
v -0.8986 0.173808 -0.013561
v -0.871671 0.175542 -0.014089
v -0.8986 0.173808 -0.013561
v -0.893162 0.128994 5.7e-05
v -0.860714 0.128994 5.7e-05
v -0.871671 0.175542 -0.014089
v -0.872292 0.178236 -0.017681
v -0.87228 0.178446 -0.031061
v -0.898913 0.176552 -0.030683
v -0.898922 0.176489 -0.017159
v -0.872292 0.178236 -0.017681
v -0.851722 0.18038 -0.018316
v -0.848476 0.180821 -0.022656
v -0.87228 0.178446 -0.031061
v -0.87228 0.178446 -0.031061
v -0.87232 0.18122 -0.095673
v -0.898945 0.179779 -0.09584
v -0.898913 0.176552 -0.030683
v -0.87228 0.178446 -0.031061
v -0.848476 0.180821 -0.022656
v -0.84848 0.183579 -0.104541
v -0.87232 0.18122 -0.095673
v -0.87232 0.18122 -0.095673
v -0.872339 0.182159 -0.109023
v -0.898962 0.181031 -0.109306
v -0.898945 0.179779 -0.09584
v -0.87232 0.18122 -0.095673
v -0.84848 0.183579 -0.104541
v -0.851768 0.183567 -0.108678
v -0.872339 0.182159 -0.109023
v -0.898962 0.181031 -0.109306
v -0.872339 0.182159 -0.109023
v -0.871715 0.179694 -0.112496
v -0.898643 0.178614 -0.112778
v -0.872339 0.182159 -0.109023
v -0.851768 0.183567 -0.108678
v -0.851036 0.181006 -0.112154
v -0.871715 0.179694 -0.112496
v -0.871715 0.179694 -0.112496
v -0.860714 0.133092 -0.124648
v -0.893162 0.133092 -0.124648
v -0.898643 0.178614 -0.112778
v -0.871715 0.179694 -0.112496
v -0.851036 0.181006 -0.112154
v -0.843734 0.133092 -0.124648
v -0.860714 0.133092 -0.124648
v -0.860714 0.133092 -0.124648
v -0.860714 0.12183 -0.125018
v -0.893162 0.12183 -0.125018
v -0.893162 0.133092 -0.124648
v -0.860714 0.12183 -0.125018
v -0.860714 0.133092 -0.124648
v -0.843734 0.133092 -0.124648
v -0.843726 0.12183 -0.125018
v -0.843734 0.133092 -0.124648
v -0.834885 0.132972 -0.121008
v -0.834882 0.12171 -0.121379
v -0.843726 0.12183 -0.125018
v -0.893162 0.133092 -0.124648
v -0.893162 0.12183 -0.125018
v -0.925458 0.12183 -0.125018
v -0.925458 0.133092 -0.124648
v -0.925458 0.12183 -0.125018
v -0.957755 0.12183 -0.125018
v -0.957755 0.133092 -0.124648
v -0.925458 0.133092 -0.124648
v -0.898643 0.178614 -0.112778
v -0.893162 0.133092 -0.124648
v -0.925458 0.133092 -0.124648
v -0.925458 0.178341 -0.112849
v -0.957755 0.133092 -0.124648
v -0.952273 0.178614 -0.112778
v -0.925458 0.178341 -0.112849
v -0.925458 0.133092 -0.124648
v -0.925458 0.180744 -0.109378
v -0.898962 0.181031 -0.109306
v -0.898643 0.178614 -0.112778
v -0.925458 0.178341 -0.112849
v -0.951955 0.181031 -0.109306
v -0.925458 0.180744 -0.109378
v -0.925458 0.178341 -0.112849
v -0.952273 0.178614 -0.112778
v -0.898945 0.179779 -0.09584
v -0.898962 0.181031 -0.109306
v -0.925458 0.180744 -0.109378
v -0.925458 0.179399 -0.095881
v -0.951955 0.181031 -0.109306
v -0.951972 0.179779 -0.09584
v -0.925458 0.179399 -0.095881
v -0.925458 0.180744 -0.109378
v -0.898913 0.176552 -0.030683
v -0.898945 0.179779 -0.09584
v -0.925458 0.179399 -0.095881
v -0.925458 0.176064 -0.030591
v -0.951972 0.179779 -0.09584
v -0.952003 0.176552 -0.030683
v -0.925458 0.176064 -0.030591
v -0.925458 0.179399 -0.095881
v -0.898922 0.176489 -0.017159
v -0.898913 0.176552 -0.030683
v -0.925458 0.176064 -0.030591
v -0.925458 0.176046 -0.017027
v -0.952003 0.176552 -0.030683
v -0.951995 0.176489 -0.017159
v -0.925458 0.176046 -0.017027
v -0.925458 0.176064 -0.030591
v -0.952003 0.176552 -0.030683
v -0.951972 0.179779 -0.09584
v -0.978597 0.18122 -0.095673
v -0.978637 0.178446 -0.031061
v -0.951995 0.176489 -0.017159
v -0.952003 0.176552 -0.030683
v -0.978637 0.178446 -0.031061
v -0.978625 0.178236 -0.01768
v -1.00244 0.183579 -0.104541
v -1.00244 0.180821 -0.022656
v -0.978637 0.178446 -0.031061
v -0.978597 0.18122 -0.095673
v -1.00244 0.180821 -0.022656
v -0.999195 0.18038 -0.018316
v -0.978625 0.178236 -0.01768
v -0.978637 0.178446 -0.031061
v -1.00592 0.181194 -0.1059
v -1.00591 0.178431 -0.021224
v -1.00244 0.180821 -0.022656
v -1.00244 0.183579 -0.104541
v -1.00244 0.183579 -0.104541
v -0.999148 0.183567 -0.108678
v -0.99988 0.181006 -0.112154
v -1.00592 0.181194 -0.1059
v -1.00244 0.183579 -0.104541
v -0.978597 0.18122 -0.095673
v -0.978577 0.182159 -0.109023
v -0.999148 0.183567 -0.108678
v -0.999148 0.183567 -0.108678
v -0.978577 0.182159 -0.109023
v -0.979202 0.179694 -0.112496
v -0.99988 0.181006 -0.112154
v -0.978577 0.182159 -0.109023
v -0.951955 0.181031 -0.109306
v -0.952273 0.178614 -0.112778
v -0.979202 0.179694 -0.112496
v -0.951972 0.179779 -0.09584
v -0.951955 0.181031 -0.109306
v -0.978577 0.182159 -0.109023
v -0.978597 0.18122 -0.095673
v -0.952273 0.178614 -0.112778
v -0.957755 0.133092 -0.124648
v -0.990202 0.133092 -0.124648
v -0.979202 0.179694 -0.112496
v -0.99988 0.181006 -0.112154
v -0.979202 0.179694 -0.112496
v -0.990202 0.133092 -0.124648
v -1.00718 0.133092 -0.124648
v -0.957755 0.133092 -0.124648
v -0.957755 0.12183 -0.125018
v -0.990202 0.12183 -0.125018
v -0.990202 0.133092 -0.124648
v -1.00719 0.12183 -0.125018
v -1.00718 0.133092 -0.124648
v -0.990202 0.133092 -0.124648
v -0.990202 0.12183 -0.125018
v -1.00719 0.12183 -0.125018
v -1.01603 0.12171 -0.121379
v -1.01603 0.132972 -0.121008
v -1.00718 0.133092 -0.124648
v -1.00718 0.133092 -0.124648
v -1.01603 0.132972 -0.121008
v -1.00592 0.181194 -0.1059
v -0.99988 0.181006 -0.112154
v -1.01603 0.12171 -0.121379
v -1.0197 0.121422 -0.112596
v -1.0197 0.132684 -0.11222
v -1.01603 0.132972 -0.121008
v -1.01603 0.132972 -0.121008
v -1.0197 0.132684 -0.11222
v -1.00592 0.181194 -0.1059
v -1.0197 0.121422 -0.112596
v -1.0197 0.118146 -0.012893
v -1.0197 0.129408 -0.012535
v -1.0197 0.132684 -0.11222
v -1.0197 0.132684 -0.11222
v -1.0197 0.129408 -0.012535
v -1.00591 0.178431 -0.021224
v -1.00592 0.181194 -0.1059
v -1.0197 0.118146 -0.012893
v -1.01604 0.117853 -0.003998
v -1.01604 0.129116 -0.003631
v -1.0197 0.129408 -0.012535
vn -0 -0.0328 0.9995
vn -0 -0.0328 0.9995
vn -0 -0.0328 0.9995
vn 0.065 -0.0976 0.9931
vn -0 -0.0328 0.9995
vn -0 -0.0328 0.9995
vn -0.1413 -0.0324 0.9894
vn -0.1414 -0.0323 0.9894
vn -0.709 -0.0228 0.7049
vn -0.1414 -0.0323 0.9894
vn -0.1413 -0.0324 0.9894
vn -0.7094 -0.0228 0.7044
vn -0.6673 0.3385 0.6634
vn -0.1063 0.304 0.9467
vn -0.097 0.3496 0.9319
vn 0.0046 0.3412 0.94
vn -0.097 0.3496 0.9319
vn -0.1063 0.304 0.9467
vn -0 0.2908 0.9568
vn 0.1023 0.9945 0.0209
vn 0.0981 0.9948 0.0275
vn -0.9622 0.2723 0.009
vn -0.097 0.3496 0.9319
vn 0.0858 0.9962 0.0175
vn 0.1023 0.9945 0.0209
vn -0.097 0.3496 0.9319
vn 0.0046 0.3412 0.94
vn -0.9619 0.273 0.0126
vn -0.6673 0.3385 0.6634
vn -0.097 0.3496 0.9319
vn -0.9622 0.2723 0.009
vn 0.0425 0.999 0.0103
vn 0.0858 0.9962 0.0175
vn 0.0046 0.3412 0.94
vn 0.0022 0.3394 0.9406
vn 0.0046 0.3412 0.94
vn -0 0.2908 0.9568
vn -0.0648 0.3516 0.9339
vn 0.0022 0.3394 0.9406
vn 0.0425 0.999 0.0103
vn 0.0022 0.3394 0.9406
vn 0.0005 0.3402 0.9404
vn -0 1 0.0069
vn 0.0022 0.3394 0.9406
vn -0.0648 0.3516 0.9339
vn -0 0.2252 0.9743
vn 0.0005 0.3402 0.9404
vn -0.0425 0.999 0.0103
vn -0 1 0.0069
vn 0.0005 0.3402 0.9404
vn -0.0022 0.3394 0.9406
vn -0 0.2252 0.9743
vn -0 0.2258 0.9742
vn -0.0022 0.3394 0.9406
vn 0.0005 0.3402 0.9404
vn -0 -0.0328 0.9995
vn -0 -0.0328 0.9995
vn -0 0.2258 0.9742
vn -0 0.2252 0.9743
vn 0.065 -0.0976 0.9931
vn -0 -0.0328 0.9995
vn -0 -0.0328 0.9995
vn -0 0.2252 0.9743
vn -0 0.2258 0.9742
vn -0 -0.0328 0.9995
vn -0 -0.0328 0.9995
vn -0 -0.0328 0.9995
vn 0.1414 -0.0324 0.9894
vn 0.1414 -0.0324 0.9894
vn -0 -0.0328 0.9995
vn -0 -0.0328 0.9995
vn 0.1414 -0.0324 0.9894
vn 0.709 -0.0228 0.7049
vn 0.709 -0.0228 0.7049
vn 0.1414 -0.0324 0.9894
vn 0.709 -0.0228 0.7049
vn 0.9993 -0.0011 0.0375
vn 0.9993 -0.001 0.0375
vn 0.709 -0.0228 0.7049
vn 0.9993 0.0012 -0.0375
vn 0.9993 0.0014 -0.0376
vn 0.9993 -0.001 0.0375
vn 0.9993 -0.0011 0.0375
vn 0.7049 0.0236 -0.709
vn 0.9993 0.0014 -0.0376
vn 0.9993 0.0012 -0.0375
vn 0.7055 0.0235 -0.7083
vn 0.9621 0.2724 0.0089
vn 0.962 0.2728 0.0052
vn 0.6762 0.3147 -0.6662
vn 0.9622 0.2723 0.009
vn 0.9619 0.2731 0.0126
vn 0.962 0.2728 0.0052
vn 0.9621 0.2724 0.0089
vn -0.0794 0.9955 0.0525
vn -0.0981 0.9948 0.0275
vn 0.9622 0.2723 0.009
vn 0.9621 0.2724 0.0089
vn -0.0716 0.9952 0.0661
vn -0.0794 0.9955 0.0525
vn 0.9621 0.2724 0.0089
vn -0 0.2525 -0.9676
vn -0 0.2525 -0.9676
vn 0.9621 0.2724 0.0089
vn 0.6762 0.3147 -0.6662
vn 0.0037 0.2531 -0.9674
vn -0.0981 0.9948 0.0275
vn -0.1023 0.9945 0.0209
vn 0.0969 0.3496 0.9319
vn 0.9622 0.2723 0.009
vn 0.6673 0.3385 0.6634
vn 0.9619 0.2731 0.0126
vn 0.9622 0.2723 0.009
vn 0.0969 0.3496 0.9319
vn -0.1023 0.9945 0.0209
vn -0.0857 0.9962 0.0175
vn -0.0046 0.3412 0.94
vn 0.0969 0.3496 0.9319
vn 0.0969 0.3496 0.9319
vn -0.0046 0.3412 0.94
vn -0 0.2908 0.9568
vn 0.1064 0.304 0.9467
vn 0.1064 0.304 0.9467
vn 0.6673 0.3385 0.6634
vn 0.0969 0.3496 0.9319
vn -0.0857 0.9962 0.0175
vn -0.0425 0.999 0.0103
vn -0.0022 0.3394 0.9406
vn -0.0046 0.3412 0.94
vn -0.0022 0.3394 0.9406
vn -0 0.2258 0.9742
vn -0 0.2908 0.9568
vn -0.0046 0.3412 0.94
vn -0.0857 0.9962 0.0175
vn -0.083 0.9961 0.029
vn -0.041 0.9988 0.0273
vn -0.0425 0.999 0.0103
vn -0.0857 0.9962 0.0175
vn -0.1023 0.9945 0.0209
vn -0.0981 0.9948 0.0275
vn -0.083 0.9961 0.029
vn -0.083 0.9961 0.029
vn -0.0718 0.9958 0.0562
vn -0.035 0.997 0.0685
vn -0.041 0.9988 0.0273
vn -0.083 0.9961 0.029
vn -0.0981 0.9948 0.0275
vn -0.0794 0.9955 0.0525
vn -0.0718 0.9958 0.0562
vn -0.0718 0.9958 0.0562
vn -0.0601 0.9957 0.0699
vn -0.0266 0.996 0.0848
vn -0.035 0.997 0.0685
vn -0.0718 0.9958 0.0562
vn -0.0794 0.9955 0.0525
vn -0.0716 0.9952 0.0661
vn -0.0601 0.9957 0.0699
vn -0.0266 0.996 0.0848
vn -0.0601 0.9957 0.0699
vn -0.0002 0.2561 -0.9667
vn -0.0001 0.2561 -0.9667
vn -0.0601 0.9957 0.0699
vn -0.0716 0.9952 0.0661
vn -0 0.2525 -0.9676
vn -0.0002 0.2561 -0.9667
vn -0.0002 0.2561 -0.9667
vn -0 0.2523 -0.9676
vn -0 0.2488 -0.9686
vn -0.0001 0.2561 -0.9667
vn -0.0002 0.2561 -0.9667
vn -0 0.2525 -0.9676
vn 0.0037 0.2531 -0.9674
vn -0 0.2523 -0.9676
vn -0 0.2489 -0.9685
vn -0 0.0328 -0.9995
vn -0 0.0328 -0.9995
vn -0 0.2488 -0.9686
vn -0 0.0328 -0.9995
vn -0 0.2489 -0.9685
vn 0.0026 0.2496 -0.9684
vn 0.1396 0.0326 -0.9897
vn 0.0026 0.2496 -0.9684
vn 0.7049 0.0236 -0.709
vn 0.7055 0.0235 -0.7083
vn 0.1396 0.0326 -0.9897
vn -0 0.2488 -0.9686
vn -0 0.0328 -0.9995
vn -0 0.0328 -0.9995
vn -0 0.2488 -0.9686
vn -0 0.0328 -0.9995
vn -0 0.0328 -0.9995
vn -0 0.2489 -0.9685
vn -0 0.2488 -0.9686
vn -0.0001 0.2561 -0.9667
vn -0 0.2488 -0.9686
vn -0 0.2488 -0.9686
vn -0 0.2561 -0.9667
vn -0 0.2523 -0.9676
vn 0.0001 0.2561 -0.9667
vn -0 0.2561 -0.9667
vn -0 0.2488 -0.9686
vn -0 0.9958 0.092
vn -0.0266 0.996 0.0848
vn -0.0001 0.2561 -0.9667
vn -0 0.2561 -0.9667
vn 0.0307 0.9959 0.0848
vn -0 0.9958 0.092
vn -0 0.2561 -0.9667
vn 0.0001 0.2561 -0.9667
vn -0.035 0.997 0.0685
vn -0.0266 0.996 0.0848
vn -0 0.9958 0.092
vn -0 0.9973 0.0731
vn 0.0307 0.9959 0.0848
vn 0.035 0.997 0.0685
vn -0 0.9973 0.0731
vn -0 0.9958 0.092
vn -0.041 0.9988 0.0273
vn -0.035 0.997 0.0685
vn -0 0.9973 0.0731
vn -0 0.9996 0.0266
vn 0.035 0.997 0.0685
vn 0.041 0.9988 0.0273
vn -0 0.9996 0.0266
vn -0 0.9973 0.0731
vn -0.0425 0.999 0.0103
vn -0.041 0.9988 0.0273
vn -0 0.9996 0.0266
vn -0 1 0.0069
vn 0.041 0.9988 0.0273
vn 0.0425 0.999 0.0103
vn -0 1 0.0069
vn -0 0.9996 0.0266
vn 0.041 0.9988 0.0273
vn 0.035 0.997 0.0685
vn 0.0718 0.9958 0.0562
vn 0.083 0.9961 0.029
vn 0.0425 0.999 0.0103
vn 0.041 0.9988 0.0273
vn 0.083 0.9961 0.029
vn 0.0858 0.9962 0.0175
vn 0.0794 0.9955 0.0524
vn 0.0981 0.9948 0.0275
vn 0.083 0.9961 0.029
vn 0.0718 0.9958 0.0562
vn 0.0981 0.9948 0.0275
vn 0.1023 0.9945 0.0209
vn 0.0858 0.9962 0.0175
vn 0.083 0.9961 0.029
vn -0.9622 0.2724 0.0089
vn -0.9622 0.2723 0.009
vn 0.0981 0.9948 0.0275
vn 0.0794 0.9955 0.0524
vn 0.0794 0.9955 0.0524
vn 0.0716 0.9952 0.0661
vn -0.0001 0.2524 -0.9676
vn -0.9622 0.2724 0.0089
vn 0.0794 0.9955 0.0524
vn 0.0718 0.9958 0.0562
vn 0.0601 0.9957 0.0699
vn 0.0716 0.9952 0.0661
vn 0.0716 0.9952 0.0661
vn 0.0601 0.9957 0.0699
vn 0.0003 0.2561 -0.9667
vn -0.0001 0.2524 -0.9676
vn 0.0601 0.9957 0.0699
vn 0.0307 0.9959 0.0848
vn 0.0001 0.2561 -0.9667
vn 0.0003 0.2561 -0.9667
vn 0.035 0.997 0.0685
vn 0.0307 0.9959 0.0848
vn 0.0601 0.9957 0.0699
vn 0.0718 0.9958 0.0562
vn 0.0001 0.2561 -0.9667
vn -0 0.2523 -0.9676
vn -0 0.2523 -0.9676
vn 0.0003 0.2561 -0.9667
vn -0.0001 0.2524 -0.9676
vn 0.0003 0.2561 -0.9667
vn -0 0.2523 -0.9676
vn -0.0037 0.2531 -0.9674
vn -0 0.2489 -0.9685
vn -0 0.0328 -0.9995
vn -0 0.0328 -0.9995
vn -0 0.2489 -0.9685
vn -0.1396 0.0326 -0.9897
vn -0.0026 0.2496 -0.9684
vn -0 0.2489 -0.9685
vn -0 0.0328 -0.9995
vn -0.1396 0.0326 -0.9897
vn -0.7053 0.0235 -0.7085
vn -0.7047 0.0236 -0.7091
vn -0.0026 0.2496 -0.9684
vn -0.0037 0.2531 -0.9674
vn -0.6762 0.3147 -0.6662
vn -0.9622 0.2724 0.0089
vn -0.0001 0.2524 -0.9676
vn -0.7053 0.0235 -0.7085
vn -0.9993 0.0014 -0.0375
vn -0.9993 0.0011 -0.0376
vn -0.7047 0.0236 -0.7091
vn -0.6762 0.3147 -0.6662
vn -0.962 0.2729 0.0052
vn -0.9622 0.2724 0.0089
vn -0.9993 0.0014 -0.0375
vn -0.9993 -0.001 0.0375
vn -0.9993 -0.001 0.0375
vn -0.9993 0.0011 -0.0376
vn -0.962 0.2729 0.0052
vn -0.9619 0.273 0.0126
vn -0.9622 0.2723 0.009
vn -0.9622 0.2724 0.0089
vn -0.9993 -0.001 0.0375
vn -0.709 -0.0228 0.7049
vn -0.7094 -0.0228 0.7044
vn -0.9993 -0.001 0.0375
vt 0.014463 0.184502
vt 0.014463 0.186256
vt 0.030373 0.186256
vt 0.030373 0.184502
vt 0.014463 0.186256
vt 0.014463 0.184502
vt 0.006517 0.184543
vt 0.006127 0.186256
vt 0.001795 0.184449
vt 0.006127 0.186256
vt 0.006517 0.184543
vt 0.003105 0.183215
vt 0.003105 0.183215
vt 0.006517 0.184543
vt 0.015422 0.175432
vt 0.023989 0.175697
vt 0.015422 0.175432
vt 0.006517 0.184543
vt 0.014463 0.184502
vt 0.015748 0.17395
vt 0.014407 0.172158
vt 0.012974 0.172749
vt 0.015422 0.175432
vt 0.024246 0.174213
vt 0.015748 0.17395
vt 0.015422 0.175432
vt 0.023989 0.175697
vt 0.001867 0.179781
vt 0.003105 0.183215
vt 0.015422 0.175432
vt 0.012974 0.172749
vt 0.035247 0.174429
vt 0.024246 0.174213
vt 0.023989 0.175697
vt 0.035114 0.175915
vt 0.023989 0.175697
vt 0.014463 0.184502
vt 0.030373 0.184502
vt 0.035114 0.175915
vt 0.035247 0.174429
vt 0.035114 0.175915
vt 0.04621 0.17597
vt 0.04621 0.174483
vt 0.035114 0.175915
vt 0.030373 0.184502
vt 0.04621 0.184502
vt 0.04621 0.17597
vt 0.057172 0.174429
vt 0.04621 0.174483
vt 0.04621 0.17597
vt 0.057305 0.175915
vt 0.04621 0.184502
vt 0.062046 0.184502
vt 0.057305 0.175915
vt 0.04621 0.17597
vt 0.04621 0.186256
vt 0.062046 0.186256
vt 0.062046 0.184502
vt 0.04621 0.184502
vt 0.030373 0.184502
vt 0.030373 0.186256
vt 0.04621 0.186256
vt 0.04621 0.184502
vt 0.062046 0.184502
vt 0.062046 0.186256
vt 0.077956 0.186256
vt 0.077956 0.184502
vt 0.086292 0.186256
vt 0.085903 0.184543
vt 0.077956 0.184502
vt 0.077956 0.186256
vt 0.086292 0.186256
vt 0.090625 0.184449
vt 0.089315 0.183215
vt 0.085903 0.184543
vt 0.090625 0.184449
vt 0.092419 0.180088
vt 0.090553 0.179781
vt 0.089315 0.183215
vt 0.092419 0.131199
vt 0.090525 0.131757
vt 0.090553 0.179781
vt 0.092419 0.180088
vt 0.089205 0.128375
vt 0.090525 0.131757
vt 0.092419 0.131199
vt 0.090623 0.126892
vt 0.079448 0.137768
vt 0.090525 0.131757
vt 0.089205 0.128375
vt 0.079445 0.172749
vt 0.090553 0.179781
vt 0.090525 0.131757
vt 0.079448 0.137768
vt 0.07801 0.13833
vt 0.078012 0.172158
vt 0.079445 0.172749
vt 0.079448 0.137768
vt 0.076652 0.136621
vt 0.07801 0.13833
vt 0.079448 0.137768
vt 0.076954 0.135185
vt 0.076954 0.135185
vt 0.079448 0.137768
vt 0.089205 0.128375
vt 0.085807 0.127155
vt 0.078012 0.172158
vt 0.076671 0.17395
vt 0.076997 0.175432
vt 0.079445 0.172749
vt 0.089315 0.183215
vt 0.090553 0.179781
vt 0.079445 0.172749
vt 0.076997 0.175432
vt 0.076671 0.17395
vt 0.068173 0.174213
vt 0.06843 0.175697
vt 0.076997 0.175432
vt 0.076997 0.175432
vt 0.06843 0.175697
vt 0.077956 0.184502
vt 0.085903 0.184543
vt 0.085903 0.184543
vt 0.089315 0.183215
vt 0.076997 0.175432
vt 0.068173 0.174213
vt 0.057172 0.174429
vt 0.057305 0.175915
vt 0.06843 0.175697
vt 0.057305 0.175915
vt 0.062046 0.184502
vt 0.077956 0.184502
vt 0.06843 0.175697
vt 0.068173 0.174213
vt 0.068178 0.168686
vt 0.057176 0.168842
vt 0.057172 0.174429
vt 0.068173 0.174213
vt 0.076671 0.17395
vt 0.078012 0.172158
vt 0.068178 0.168686
vt 0.068178 0.168686
vt 0.068162 0.141993
vt 0.057163 0.141924
vt 0.057176 0.168842
vt 0.068178 0.168686
vt 0.078012 0.172158
vt 0.07801 0.13833
vt 0.068162 0.141993
vt 0.068162 0.141993
vt 0.068154 0.136478
vt 0.057156 0.136361
vt 0.057163 0.141924
vt 0.068162 0.141993
vt 0.07801 0.13833
vt 0.076652 0.136621
vt 0.068154 0.136478
vt 0.057156 0.136361
vt 0.068154 0.136478
vt 0.068412 0.135043
vt 0.057287 0.134927
vt 0.068154 0.136478
vt 0.076652 0.136621
vt 0.076954 0.135185
vt 0.068412 0.135043
vt 0.068412 0.135043
vt 0.077956 0.127221
vt 0.062046 0.127221
vt 0.057287 0.134927
vt 0.068412 0.135043
vt 0.076954 0.135185
vt 0.085807 0.127155
vt 0.077956 0.127221
vt 0.077956 0.127221
vt 0.077956 0.125108
vt 0.062046 0.125108
vt 0.062046 0.127221
vt 0.077956 0.125108
vt 0.077956 0.127221
vt 0.085807 0.127155
vt 0.086286 0.125108
vt 0.085807 0.127155
vt 0.089205 0.128375
vt 0.090623 0.126892
vt 0.086286 0.125108
vt 0.062046 0.127221
vt 0.062046 0.125108
vt 0.04621 0.125108
vt 0.04621 0.127221
vt 0.04621 0.125108
vt 0.030373 0.125108
vt 0.030373 0.127221
vt 0.04621 0.127221
vt 0.057287 0.134927
vt 0.062046 0.127221
vt 0.04621 0.127221
vt 0.04621 0.134898
vt 0.030373 0.127221
vt 0.035132 0.134927
vt 0.04621 0.134898
vt 0.04621 0.127221
vt 0.04621 0.136332
vt 0.057156 0.136361
vt 0.057287 0.134927
vt 0.04621 0.134898
vt 0.035264 0.136361
vt 0.04621 0.136332
vt 0.04621 0.134898
vt 0.035132 0.134927
vt 0.057163 0.141924
vt 0.057156 0.136361
vt 0.04621 0.136332
vt 0.04621 0.141908
vt 0.035264 0.136361
vt 0.035257 0.141924
vt 0.04621 0.141908
vt 0.04621 0.136332
vt 0.057176 0.168842
vt 0.057163 0.141924
vt 0.04621 0.141908
vt 0.04621 0.16888
vt 0.035257 0.141924
vt 0.035244 0.168842
vt 0.04621 0.16888
vt 0.04621 0.141908
vt 0.057172 0.174429
vt 0.057176 0.168842
vt 0.04621 0.16888
vt 0.04621 0.174483
vt 0.035244 0.168842
vt 0.035247 0.174429
vt 0.04621 0.174483
vt 0.04621 0.16888
vt 0.035244 0.168842
vt 0.035257 0.141924
vt 0.024257 0.141993
vt 0.024241 0.168686
vt 0.035247 0.174429
vt 0.035244 0.168842
vt 0.024241 0.168686
vt 0.024246 0.174213
vt 0.014409 0.13833
vt 0.014407 0.172158
vt 0.024241 0.168686
vt 0.024257 0.141993
vt 0.014407 0.172158
vt 0.015748 0.17395
vt 0.024246 0.174213
vt 0.024241 0.168686
vt 0.012972 0.137768
vt 0.012974 0.172749
vt 0.014407 0.172158
vt 0.014409 0.13833
vt 0.014409 0.13833
vt 0.015767 0.136621
vt 0.015465 0.135185
vt 0.012972 0.137768
vt 0.014409 0.13833
vt 0.024257 0.141993
vt 0.024265 0.136478
vt 0.015767 0.136621
vt 0.015767 0.136621
vt 0.024265 0.136478
vt 0.024008 0.135043
vt 0.015465 0.135185
vt 0.024265 0.136478
vt 0.035264 0.136361
vt 0.035132 0.134927
vt 0.024008 0.135043
vt 0.035257 0.141924
vt 0.035264 0.136361
vt 0.024265 0.136478
vt 0.024257 0.141993
vt 0.035132 0.134927
vt 0.030373 0.127221
vt 0.014463 0.127221
vt 0.024008 0.135043
vt 0.015465 0.135185
vt 0.024008 0.135043
vt 0.014463 0.127221
vt 0.006612 0.127155
vt 0.030373 0.127221
vt 0.030373 0.125108
vt 0.014463 0.125108
vt 0.014463 0.127221
vt 0.006133 0.125108
vt 0.006612 0.127155
vt 0.014463 0.127221
vt 0.014463 0.125108
vt 0.006133 0.125108
vt 0.001796 0.126892
vt 0.003214 0.128375
vt 0.006612 0.127155
vt 0.006612 0.127155
vt 0.003214 0.128375
vt 0.012972 0.137768
vt 0.015465 0.135185
vt 0.001796 0.126892
vt 0 0.131199
vt 0.001894 0.131757
vt 0.003214 0.128375
vt 0.003214 0.128375
vt 0.001894 0.131757
vt 0.012972 0.137768
vt 0 0.131199
vt 0 0.180088
vt 0.001867 0.179781
vt 0.001894 0.131757
vt 0.001894 0.131757
vt 0.001867 0.179781
vt 0.012974 0.172749
vt 0.012972 0.137768
vt 0 0.180088
vt 0.001795 0.184449
vt 0.003105 0.183215
vt 0.001867 0.179781
s off
f 1/1/1 2/2/2 3/3/3
f 1/1/1 3/3/3 4/4/4
f 5/5/5 6/6/6 7/7/7
f 5/5/5 7/7/7 8/8/8
f 9/9/9 10/10/10 11/11/11
f 9/9/9 11/11/11 12/12/12
f 13/13/13 14/14/14 15/15/15
f 16/16/16 17/17/17 18/18/18
f 16/16/16 18/18/18 19/19/19
f 20/20/20 21/21/21 22/22/22
f 20/20/20 22/22/22 23/23/23
f 24/24/24 25/25/25 26/26/26
f 24/24/24 26/26/26 27/27/27
f 28/28/28 29/29/29 30/30/30
f 28/28/28 30/30/30 31/31/31
f 32/32/32 33/33/33 34/34/34
f 32/32/32 34/34/34 35/35/35
f 36/36/36 37/37/37 38/38/38
f 36/36/36 38/38/38 39/39/39
f 40/40/40 41/41/41 42/42/42
f 40/40/40 42/42/42 43/43/43
f 44/44/44 45/45/45 46/46/46
f 44/44/44 46/46/46 47/47/47
f 48/48/48 49/49/49 50/50/50
f 48/48/48 50/50/50 51/51/51
f 52/52/52 53/53/53 54/54/54
f 52/52/52 54/54/54 55/55/55
f 56/56/56 57/57/57 58/58/58
f 56/56/56 58/58/58 59/59/59
f 60/60/60 61/61/61 62/62/62
f 60/60/60 62/62/62 63/63/63
f 64/64/64 65/65/65 66/66/66
f 64/64/64 66/66/66 67/67/67
f 68/68/68 69/69/69 70/70/70
f 68/68/68 70/70/70 71/71/71
f 72/72/72 73/73/73 74/74/74
f 72/72/72 74/74/74 75/75/75
f 76/76/76 77/77/77 78/78/78
f 76/76/76 78/78/78 79/79/79
f 80/80/80 81/81/81 82/82/82
f 80/80/80 82/82/82 83/83/83
f 84/84/84 85/85/85 86/86/86
f 84/84/84 86/86/86 87/87/87
f 88/88/88 89/89/89 90/90/90
f 91/91/91 92/92/92 93/93/93
f 91/91/91 93/93/93 94/94/94
f 95/95/95 96/96/96 97/97/97
f 95/95/95 97/97/97 98/98/98
f 99/99/99 100/100/100 101/101/101
f 99/99/99 101/101/101 102/102/102
f 103/103/103 104/104/104 105/105/105
f 103/103/103 105/105/105 106/106/106
f 107/107/107 108/108/108 109/109/109
f 107/107/107 109/109/109 110/110/110
f 111/111/111 112/112/112 113/113/113
f 111/111/111 113/113/113 114/114/114
f 115/115/115 116/116/116 117/117/117
f 115/115/115 117/117/117 118/118/118
f 119/119/119 120/120/120 121/121/121
f 119/119/119 121/121/121 122/122/122
f 123/123/123 124/124/124 125/125/125
f 126/126/126 127/127/127 128/128/128
f 126/126/126 128/128/128 129/129/129
f 130/130/130 131/131/131 132/132/132
f 130/130/130 132/132/132 133/133/133
f 134/134/134 135/135/135 136/136/136
f 134/134/134 136/136/136 137/137/137
f 138/138/138 139/139/139 140/140/140
f 138/138/138 140/140/140 141/141/141
f 142/142/142 143/143/143 144/144/144
f 142/142/142 144/144/144 145/145/145
f 146/146/146 147/147/147 148/148/148
f 146/146/146 148/148/148 149/149/149
f 150/150/150 151/151/151 152/152/152
f 150/150/150 152/152/152 153/153/153
f 154/154/154 155/155/155 156/156/156
f 154/154/154 156/156/156 157/157/157
f 158/158/158 159/159/159 160/160/160
f 158/158/158 160/160/160 161/161/161
f 162/162/162 163/163/163 164/164/164
f 162/162/162 164/164/164 165/165/165
f 166/166/166 167/167/167 168/168/168
f 166/166/166 168/168/168 169/169/169
f 170/170/170 171/171/171 172/172/172
f 170/170/170 172/172/172 173/173/173
f 174/174/174 175/175/175 176/176/176
f 174/174/174 176/176/176 177/177/177
f 178/178/178 179/179/179 180/180/180
f 178/178/178 180/180/180 181/181/181
f 182/182/182 183/183/183 184/184/184
f 182/182/182 184/184/184 185/185/185
f 186/186/186 187/187/187 188/188/188
f 186/186/186 188/188/188 189/189/189
f 190/190/190 191/191/191 192/192/192
f 190/190/190 192/192/192 193/193/193
f 194/194/194 195/195/195 196/196/196
f 194/194/194 196/196/196 197/197/197
f 198/198/198 199/199/199 200/200/200
f 198/198/198 200/200/200 201/201/201
f 202/202/202 203/203/203 204/204/204
f 202/202/202 204/204/204 205/205/205
f 206/206/206 207/207/207 208/208/208
f 206/206/206 208/208/208 209/209/209
f 210/210/210 211/211/211 212/212/212
f 210/210/210 212/212/212 213/213/213
f 214/214/214 215/215/215 216/216/216
f 214/214/214 216/216/216 217/217/217
f 218/218/218 219/219/219 220/220/220
f 218/218/218 220/220/220 221/221/221
f 222/222/222 223/223/223 224/224/224
f 222/222/222 224/224/224 225/225/225
f 226/226/226 227/227/227 228/228/228
f 226/226/226 228/228/228 229/229/229
f 230/230/230 231/231/231 232/232/232
f 230/230/230 232/232/232 233/233/233
f 234/234/234 235/235/235 236/236/236
f 234/234/234 236/236/236 237/237/237
f 238/238/238 239/239/239 240/240/240
f 238/238/238 240/240/240 241/241/241
f 242/242/242 243/243/243 244/244/244
f 242/242/242 244/244/244 245/245/245
f 246/246/246 247/247/247 248/248/248
f 246/246/246 248/248/248 249/249/249
f 250/250/250 251/251/251 252/252/252
f 250/250/250 252/252/252 253/253/253
f 254/254/254 255/255/255 256/256/256
f 254/254/254 256/256/256 257/257/257
f 258/258/258 259/259/259 260/260/260
f 258/258/258 260/260/260 261/261/261
f 262/262/262 263/263/263 264/264/264
f 262/262/262 264/264/264 265/265/265
f 266/266/266 267/267/267 268/268/268
f 266/266/266 268/268/268 269/269/269
f 270/270/270 271/271/271 272/272/272
f 270/270/270 272/272/272 273/273/273
f 274/274/274 275/275/275 276/276/276
f 274/274/274 276/276/276 277/277/277
f 278/278/278 279/279/279 280/280/280
f 278/278/278 280/280/280 281/281/281
f 282/282/282 283/283/283 284/284/284
f 282/282/282 284/284/284 285/285/285
f 286/286/286 287/287/287 288/288/288
f 286/286/286 288/288/288 289/289/289
f 290/290/290 291/291/291 292/292/292
f 290/290/290 292/292/292 293/293/293
f 294/294/294 295/295/295 296/296/296
f 294/294/294 296/296/296 297/297/297
f 298/298/298 299/299/299 300/300/300
f 298/298/298 300/300/300 301/301/301
f 302/302/302 303/303/303 304/304/304
f 305/305/305 306/306/306 307/307/307
f 305/305/305 307/307/307 308/308/308
f 309/309/309 310/310/310 311/311/311
f 309/309/309 311/311/311 312/312/312
f 313/313/313 314/314/314 315/315/315
f 313/313/313 315/315/315 316/316/316
