v -0.010639 0.179007 -0.080728
v -0.014052 0.179219 -0.082972
v -0.015075 0.179038 -0.078614
v -0.015075 0.179038 -0.078614
v -0.018107 0.179129 -0.076126
v -0.015345 0.178808 -0.073783
v -0.010639 0.179007 -0.080728
v -0.015075 0.179038 -0.078614
v -0.012425 0.178839 -0.07639
v -0.015075 0.179038 -0.078614
v -0.015345 0.178808 -0.073783
v -0.012425 0.178839 -0.07639
v -0.018107 0.179129 -0.076126
v -0.018969 0.179038 -0.072708
v -0.015345 0.178808 -0.073783
v -0.023819 0.179482 -0.072762
v -0.018969 0.179038 -0.072708
v -0.018107 0.179129 -0.076126
v -0.022969 0.179561 -0.075914
v -0.023819 0.179482 -0.072762
v -0.022969 0.179561 -0.075914
v -0.026224 0.179942 -0.077615
v -0.028777 0.180106 -0.075334
v -0.031386 0.180648 -0.080773
v -0.028777 0.180106 -0.075334
v -0.026224 0.179942 -0.077615
v -0.027889 0.18029 -0.081583
v -0.031441 0.181439 -0.097522
v -0.031386 0.180648 -0.080773
v -0.027889 0.18029 -0.081583
v -0.027926 0.181118 -0.097522
v -0.014023 0.180041 -0.097522
v -0.010639 0.179007 -0.080728
v -0.010586 0.17995 -0.097522
v -0.014052 0.179219 -0.082972
v -0.010639 0.179007 -0.080728
v -0.014023 0.180041 -0.097522
vn 0.0302 0.9984 0.0487
vn 0.0302 0.9984 0.0487
vn 0.0302 0.9984 0.0487
vn 0.072 0.9961 0.0515
vn 0.072 0.9961 0.0515
vn 0.072 0.9961 0.0515
vn 0.0316 0.9982 0.0516
vn 0.0316 0.9982 0.0516
vn 0.0316 0.9982 0.0516
vn 0.0334 0.9982 0.0494
vn 0.0334 0.9982 0.0494
vn 0.0334 0.9982 0.0494
vn 0.0768 0.996 0.0458
vn 0.0768 0.996 0.0458
vn 0.0768 0.996 0.0458
vn 0.0906 0.9947 0.0493
vn 0.0906 0.9947 0.0493
vn 0.0906 0.9947 0.0493
vn 0.0906 0.9947 0.0493
vn 0.0979 0.9942 0.0456
vn 0.0979 0.9942 0.0456
vn 0.0979 0.9942 0.0456
vn 0.0979 0.9942 0.0456
vn 0.1085 0.9931 0.0447
vn 0.1085 0.9931 0.0447
vn 0.1085 0.9931 0.0447
vn 0.1085 0.9931 0.0447
vn 0.1018 0.9936 0.0489
vn 0.1018 0.9936 0.0489
vn 0.1018 0.9936 0.0489
vn 0.1018 0.9936 0.0489
vn 0.0265 0.9981 0.0561
vn 0.0265 0.9981 0.0561
vn 0.0265 0.9981 0.0561
vn 0.0251 0.9981 0.0564
vn 0.0251 0.9981 0.0564
vn 0.0251 0.9981 0.0564
vt 0.497018 0.53667
vt 0.495352 0.535574
vt 0.494852 0.537702
vt 0.494852 0.537702
vt 0.493371 0.538917
vt 0.494721 0.540061
vt 0.497018 0.53667
vt 0.494852 0.537702
vt 0.496146 0.538788
vt 0.494852 0.537702
vt 0.494721 0.540061
vt 0.496146 0.538788
vt 0.493371 0.538917
vt 0.492951 0.540586
vt 0.494721 0.540061
vt 0.490582 0.54056
vt 0.492951 0.540586
vt 0.493371 0.538917
vt 0.490997 0.539021
vt 0.490582 0.54056
vt 0.490997 0.539021
vt 0.489408 0.53819
vt 0.488161 0.539304
vt 0.486887 0.536648
vt 0.488161 0.539304
vt 0.489408 0.53819
vt 0.488594 0.536252
vt 0.48686 0.528468
vt 0.486887 0.536648
vt 0.488594 0.536252
vt 0.488576 0.528468
vt 0.495366 0.528468
vt 0.497018 0.53667
vt 0.497045 0.528468
vt 0.495352 0.535574
vt 0.497018 0.53667
vt 0.495366 0.528468
s off
f 1/1/1 2/2/2 3/3/3
f 4/4/4 5/5/5 6/6/6
f 7/7/7 8/8/8 9/9/9
f 10/10/10 11/11/11 12/12/12
f 13/13/13 14/14/14 15/15/15
f 16/16/16 17/17/17 18/18/18
f 16/16/16 18/18/18 19/19/19
f 20/20/20 21/21/21 22/22/22
f 20/20/20 22/22/22 23/23/23
f 24/24/24 25/25/25 26/26/26
f 24/24/24 26/26/26 27/27/27
f 28/28/28 29/29/29 30/30/30
f 28/28/28 30/30/30 31/31/31
f 32/32/32 33/33/33 34/34/34
f 35/35/35 36/36/36 37/37/37
