v -0.318107 0.162466 0.157899
v -0.305454 0.163367 0.17813
v -0.31428 0.162079 0.157899
v -0.305454 0.163367 0.17813
v -0.318107 0.162466 0.157899
v -0.30725 0.16401 0.182504
v -0.303813 0.163672 0.182504
v -0.305454 0.163367 0.17813
v -0.30725 0.16401 0.182504
v -0.296471 0.160728 0.157899
v -0.303813 0.163672 0.182504
v -0.292956 0.160629 0.157899
v -0.305454 0.163367 0.17813
v -0.303813 0.163672 0.182504
v -0.296471 0.160728 0.157899
vn 0.1002 0.9892 -0.1067
vn 0.1002 0.9892 -0.1067
vn 0.1002 0.9892 -0.1067
vn 0.098 0.9896 -0.1053
vn 0.098 0.9896 -0.1053
vn 0.098 0.9896 -0.1053
vn 0.0975 0.9896 -0.1055
vn 0.0975 0.9896 -0.1055
vn 0.0975 0.9896 -0.1055
vn 0.028 0.9935 -0.1105
vn 0.028 0.9935 -0.1105
vn 0.028 0.9935 -0.1105
vn 0.0736 0.9926 -0.0968
vn 0.0736 0.9926 -0.0968
vn 0.0736 0.9926 -0.0968
vt 0.346868 0.653202
vt 0.353048 0.663081
vt 0.348738 0.653202
vt 0.353048 0.663081
vt 0.346868 0.653202
vt 0.352171 0.665217
vt 0.353849 0.665217
vt 0.353048 0.663081
vt 0.352171 0.665217
vt 0.357435 0.653202
vt 0.353849 0.665217
vt 0.359151 0.653202
vt 0.353048 0.663081
vt 0.353849 0.665217
vt 0.357435 0.653202
s off
f 1/1/1 2/2/2 3/3/3
f 4/4/4 5/5/5 6/6/6
f 7/7/7 8/8/8 9/9/9
f 10/10/10 11/11/11 12/12/12
f 13/13/13 14/14/14 15/15/15
