v -0.641954 0.179768 -0.097522
v -0.64875 0.178836 -0.077448
v -0.646875 0.178554 -0.072918
v -0.641954 0.179768 -0.097522
v -0.646875 0.178554 -0.072918
v -0.638673 0.179679 -0.097522
v -0.646875 0.178554 -0.072918
v -0.64875 0.178836 -0.077448
v -0.650547 0.178664 -0.072918
v -0.64875 0.178836 -0.077448
v -0.657264 0.180032 -0.092602
v -0.650547 0.178664 -0.072918
v -0.658748 0.180444 -0.097522
v -0.663981 0.179668 -0.072918
v -0.657264 0.180032 -0.092602
v -0.655546 0.180167 -0.097522
v -0.658748 0.180444 -0.097522
v -0.657264 0.180032 -0.092602
v -0.64875 0.178836 -0.077448
v -0.655546 0.180167 -0.097522
v -0.657264 0.180032 -0.092602
v -0.6657 0.180053 -0.077526
v -0.663981 0.179668 -0.072918
v -0.658748 0.180444 -0.097522
v -0.6657 0.180053 -0.077526
v -0.672339 0.181728 -0.097522
v -0.676011 0.182256 -0.097522
v -0.663981 0.179668 -0.072918
v -0.6657 0.180053 -0.077526
v -0.667731 0.18009 -0.072918
v -0.6657 0.180053 -0.077526
v -0.676011 0.182256 -0.097522
v -0.667731 0.18009 -0.072918
vn 0.0209 0.9984 0.0534
vn 0.0209 0.9984 0.0534
vn 0.0209 0.9984 0.0534
vn 0.0271 0.9981 0.0546
vn 0.0271 0.9981 0.0546
vn 0.0271 0.9981 0.0546
vn 0.0299 0.9983 0.0497
vn 0.0299 0.9983 0.0497
vn 0.0299 0.9983 0.0497
vn 0.0427 0.9976 0.0547
vn 0.0427 0.9976 0.0547
vn 0.0427 0.9976 0.0547
vn 0.1009 0.9935 0.0528
vn 0.1009 0.9935 0.0528
vn 0.1009 0.9935 0.0528
vn 0.086 0.9946 0.0574
vn 0.086 0.9946 0.0574
vn 0.086 0.9946 0.0574
vn 0.0563 0.9973 0.0471
vn 0.0563 0.9973 0.0471
vn 0.0563 0.9973 0.0471
vn 0.0883 0.9948 0.0502
vn 0.0883 0.9948 0.0502
vn 0.0883 0.9948 0.0502
vn 0.1423 0.9892 0.0356
vn 0.1423 0.9892 0.0356
vn 0.1423 0.9892 0.0356
vn 0.1119 0.9929 0.0412
vn 0.1119 0.9929 0.0412
vn 0.1119 0.9929 0.0412
vn 0.1227 0.9914 0.046
vn 0.1227 0.9914 0.046
vn 0.1227 0.9914 0.046
vt 0.18872 0.528468
vt 0.185401 0.538272
vt 0.186317 0.540484
vt 0.18872 0.528468
vt 0.186317 0.540484
vt 0.190322 0.528468
vt 0.186317 0.540484
vt 0.185401 0.538272
vt 0.184524 0.540484
vt 0.185401 0.538272
vt 0.181244 0.530871
vt 0.184524 0.540484
vt 0.180519 0.528468
vt 0.177963 0.540484
vt 0.181244 0.530871
vt 0.182083 0.528468
vt 0.180519 0.528468
vt 0.181244 0.530871
vt 0.185401 0.538272
vt 0.182083 0.528468
vt 0.181244 0.530871
vt 0.177124 0.538234
vt 0.177963 0.540484
vt 0.180519 0.528468
vt 0.177124 0.538234
vt 0.173882 0.528468
vt 0.172089 0.528468
vt 0.177963 0.540484
vt 0.177124 0.538234
vt 0.176132 0.540484
vt 0.177124 0.538234
vt 0.172089 0.528468
vt 0.176132 0.540484
s off
f 1/1/1 2/2/2 3/3/3
f 4/4/4 5/5/5 6/6/6
f 7/7/7 8/8/8 9/9/9
f 10/10/10 11/11/11 12/12/12
f 13/13/13 14/14/14 15/15/15
f 16/16/16 17/17/17 18/18/18
f 19/19/19 20/20/20 21/21/21
f 22/22/22 23/23/23 24/24/24
f 25/25/25 26/26/26 27/27/27
f 28/28/28 29/29/29 30/30/30
f 31/31/31 32/32/32 33/33/33
