v -0.798879 0.164111 0.306075
v -0.801534 0.164175 0.306075
v -0.800285 0.164764 0.310059
v -0.755918 0.167818 0.325916
v -0.75873 0.164495 0.306075
v -0.75873 0.166802 0.320916
v -0.793411 0.166505 0.322322
v -0.800285 0.164764 0.310059
v -0.794895 0.167099 0.325916
v -0.770134 0.167167 0.325916
v -0.773024 0.164042 0.306075
v -0.773024 0.167098 0.325916
v -0.787943 0.163903 0.306075
v -0.793411 0.166505 0.322322
v -0.791927 0.167028 0.325916
v -0.781772 0.166887 0.325916
v -0.77896 0.163913 0.306075
v -0.781772 0.163845 0.306075
v -0.770681 0.164083 0.306075
v -0.758261 0.167619 0.325916
v -0.75873 0.166802 0.320916
v -0.787943 0.163903 0.306075
v -0.791927 0.167028 0.325916
v -0.785287 0.163857 0.306075
v -0.791927 0.167028 0.325916
v -0.793411 0.166505 0.322322
v -0.794895 0.167099 0.325916
v -0.80708 0.166928 0.322244
v -0.805674 0.167413 0.325916
v -0.801534 0.164175 0.306075
v -0.80708 0.166928 0.322244
v -0.808721 0.167598 0.325916
v -0.805674 0.167413 0.325916
v -0.770134 0.167167 0.325916
v -0.770134 0.164881 0.311153
v -0.773024 0.164042 0.306075
v -0.770681 0.164083 0.306075
v -0.770134 0.164881 0.311153
v -0.758261 0.167619 0.325916
v -0.801534 0.164175 0.306075
v -0.805674 0.167413 0.325916
v -0.800285 0.164764 0.310059
v -0.75873 0.164495 0.306075
v -0.755918 0.167818 0.325916
v -0.755918 0.164733 0.306075
v -0.793411 0.166505 0.322322
v -0.798879 0.164111 0.306075
v -0.800285 0.164764 0.310059
v -0.781772 0.166887 0.325916
v -0.77896 0.166955 0.325916
v -0.77896 0.163913 0.306075
v -0.770681 0.164083 0.306075
v -0.773024 0.164042 0.306075
v -0.770134 0.164881 0.311153
v -0.80708 0.166928 0.322244
v -0.81536 0.164918 0.306075
v -0.808721 0.167598 0.325916
v -0.80708 0.166928 0.322244
v -0.81247 0.164742 0.306075
v -0.81536 0.164918 0.306075
v -0.758261 0.167619 0.325916
v -0.755918 0.167818 0.325916
v -0.75873 0.166802 0.320916
vn 0.0238 0.9878 -0.1536
vn 0.0238 0.9878 -0.1536
vn 0.0238 0.9878 -0.1536
vn -0.0834 0.9847 -0.1531
vn -0.0834 0.9847 -0.1531
vn -0.0834 0.9847 -0.1531
vn 0.0238 0.9879 -0.1536
vn 0.0238 0.9879 -0.1536
vn 0.0238 0.9879 -0.1536
vn -0.0238 0.9881 -0.1522
vn -0.0238 0.9881 -0.1522
vn -0.0238 0.9881 -0.1522
vn 0.0193 0.9882 -0.1518
vn 0.0193 0.9882 -0.1518
vn 0.0193 0.9882 -0.1518
vn -0.0238 0.9882 -0.1515
vn -0.0238 0.9882 -0.1515
vn -0.0238 0.9882 -0.1515
vn -0.0275 0.9869 -0.1587
vn -0.0275 0.9869 -0.1587
vn -0.0275 0.9869 -0.1587
vn 0.0173 0.9882 -0.1522
vn 0.0173 0.9882 -0.1522
vn 0.0173 0.9882 -0.1522
vn 0.0238 0.9879 -0.1536
vn 0.0238 0.9879 -0.1536
vn 0.0238 0.9879 -0.1536
vn 0.0518 0.9873 -0.1503
vn 0.0518 0.9873 -0.1503
vn 0.0518 0.9873 -0.1503
vn 0.06 0.9864 -0.1533
vn 0.06 0.9864 -0.1533
vn 0.06 0.9864 -0.1533
vn -0.0184 0.9881 -0.153
vn -0.0184 0.9881 -0.153
vn -0.0184 0.9881 -0.153
vn -0.0398 0.9877 -0.1511
vn -0.0398 0.9877 -0.1511
vn -0.0398 0.9877 -0.1511
vn 0.029 0.9875 -0.1551
vn 0.029 0.9875 -0.1551
vn 0.029 0.9875 -0.1551
vn -0.0834 0.9847 -0.1531
vn -0.0834 0.9847 -0.1531
vn -0.0834 0.9847 -0.1531
vn 0.0238 0.9878 -0.1536
vn 0.0238 0.9878 -0.1536
vn 0.0238 0.9878 -0.1536
vn -0.0238 0.9882 -0.1515
vn -0.0238 0.9882 -0.1515
vn -0.0238 0.9882 -0.1515
vn -0.0173 0.988 -0.1536
vn -0.0173 0.988 -0.1536
vn -0.0173 0.988 -0.1536
vn 0.06 0.9864 -0.1533
vn 0.06 0.9864 -0.1533
vn 0.06 0.9864 -0.1533
vn 0.06 0.9864 -0.1533
vn 0.06 0.9864 -0.1533
vn 0.06 0.9864 -0.1533
vn -0.0834 0.9847 -0.1531
vn -0.0834 0.9847 -0.1531
vn -0.0834 0.9847 -0.1531
vt 0.112087 0.725563
vt 0.11079 0.725563
vt 0.1114 0.727508
vt 0.133067 0.735251
vt 0.131694 0.725563
vt 0.131694 0.73281
vt 0.114757 0.733497
vt 0.1114 0.727508
vt 0.114033 0.735251
vt 0.126124 0.735251
vt 0.124713 0.725563
vt 0.124713 0.735251
vt 0.117427 0.725563
vt 0.114757 0.733497
vt 0.115482 0.735251
vt 0.120441 0.735251
vt 0.121814 0.725563
vt 0.120441 0.725563
vt 0.125857 0.725563
vt 0.131922 0.735251
vt 0.131694 0.73281
vt 0.117427 0.725563
vt 0.115482 0.735251
vt 0.118724 0.725563
vt 0.115482 0.735251
vt 0.114757 0.733497
vt 0.114033 0.735251
vt 0.108082 0.733458
vt 0.108768 0.735251
vt 0.11079 0.725563
vt 0.108082 0.733458
vt 0.107281 0.735251
vt 0.108768 0.735251
vt 0.126124 0.735251
vt 0.126124 0.728042
vt 0.124713 0.725563
vt 0.125857 0.725563
vt 0.126124 0.728042
vt 0.131922 0.735251
vt 0.11079 0.725563
vt 0.108768 0.735251
vt 0.1114 0.727508
vt 0.131694 0.725563
vt 0.133067 0.735251
vt 0.133067 0.725563
vt 0.114757 0.733497
vt 0.112087 0.725563
vt 0.1114 0.727508
vt 0.120441 0.735251
vt 0.121814 0.735251
vt 0.121814 0.725563
vt 0.125857 0.725563
vt 0.124713 0.725563
vt 0.126124 0.728042
vt 0.108082 0.733458
vt 0.104038 0.725563
vt 0.107281 0.735251
vt 0.108082 0.733458
vt 0.10545 0.725563
vt 0.104038 0.725563
vt 0.131922 0.735251
vt 0.133067 0.735251
vt 0.131694 0.73281
s off
f 1/1/1 2/2/2 3/3/3
f 4/4/4 5/5/5 6/6/6
f 7/7/7 8/8/8 9/9/9
f 10/10/10 11/11/11 12/12/12
f 13/13/13 14/14/14 15/15/15
f 16/16/16 17/17/17 18/18/18
f 19/19/19 20/20/20 21/21/21
f 22/22/22 23/23/23 24/24/24
f 25/25/25 26/26/26 27/27/27
f 28/28/28 29/29/29 30/30/30
f 31/31/31 32/32/32 33/33/33
f 34/34/34 35/35/35 36/36/36
f 37/37/37 38/38/38 39/39/39
f 40/40/40 41/41/41 42/42/42
f 43/43/43 44/44/44 45/45/45
f 46/46/46 47/47/47 48/48/48
f 49/49/49 50/50/50 51/51/51
f 52/52/52 53/53/53 54/54/54
f 55/55/55 56/56/56 57/57/57
f 58/58/58 59/59/59 60/60/60
f 61/61/61 62/62/62 63/63/63
