v -0.729394 0.120517 0.25807
v -0.729394 0.109254 0.2577
v -0.756184 0.109254 0.2577
v -0.756184 0.120517 0.25807
v -0.729394 0.109254 0.2577
v -0.729394 0.120517 0.25807
v -0.717663 0.120517 0.25807
v -0.71765 0.109254 0.2577
v -0.717663 0.120517 0.25807
v -0.708726 0.120397 0.261697
v -0.708722 0.109135 0.261326
v -0.71765 0.109254 0.2577
v -0.708726 0.120397 0.261697
v -0.705024 0.12011 0.270452
v -0.705024 0.108848 0.270078
v -0.708722 0.109135 0.261326
v -0.705024 0.105573 0.369738
v -0.705024 0.108848 0.270078
v -0.705024 0.12011 0.270452
v -0.705024 0.116836 0.370093
v -0.708667 0.105279 0.378695
v -0.705024 0.105573 0.369738
v -0.705024 0.116836 0.370093
v -0.708669 0.116541 0.379061
v -0.708669 0.116541 0.379061
v -0.705024 0.116836 0.370093
v -0.718923 0.174061 0.356608
v -0.724748 0.174308 0.362483
v -0.705024 0.12011 0.270452
v -0.718643 0.159511 0.273239
v -0.718923 0.174061 0.356608
v -0.705024 0.116836 0.370093
v -0.722251 0.176105 0.354757
v -0.725407 0.1764 0.358836
v -0.724748 0.174308 0.362483
v -0.718923 0.174061 0.356608
v -0.722251 0.176105 0.354757
v -0.718923 0.174061 0.356608
v -0.718643 0.159511 0.273239
v -0.722269 0.162111 0.274618
v -0.725657 0.161043 0.269704
v -0.722269 0.162111 0.274618
v -0.718643 0.159511 0.273239
v -0.72474 0.157873 0.266363
v -0.72474 0.157873 0.266363
v -0.718643 0.159511 0.273239
v -0.708726 0.120397 0.261697
v -0.717663 0.120517 0.25807
v -0.718643 0.159511 0.273239
v -0.705024 0.12011 0.270452
v -0.708726 0.120397 0.261697
v -0.740645 0.159771 0.269449
v -0.725657 0.161043 0.269704
v -0.72474 0.157873 0.266363
v -0.73988 0.156664 0.266094
v -0.73988 0.156664 0.266094
v -0.72474 0.157873 0.266363
v -0.717663 0.120517 0.25807
v -0.729394 0.120517 0.25807
v -0.73988 0.156664 0.266094
v -0.761401 0.155576 0.265853
v -0.761798 0.158659 0.269218
v -0.740645 0.159771 0.269449
v -0.73988 0.156664 0.266094
v -0.729394 0.120517 0.25807
v -0.756184 0.120517 0.25807
v -0.761401 0.155576 0.265853
v -0.761401 0.155576 0.265853
v -0.782975 0.155272 0.265785
v -0.782975 0.158347 0.269153
v -0.761798 0.158659 0.269218
v -0.761401 0.155576 0.265853
v -0.756184 0.120517 0.25807
v -0.782975 0.120517 0.25807
v -0.782975 0.155272 0.265785
v -0.756184 0.120517 0.25807
v -0.756184 0.109254 0.2577
v -0.782975 0.109254 0.2577
v -0.782975 0.120517 0.25807
v -0.782975 0.120517 0.25807
v -0.782975 0.109254 0.2577
v -0.809766 0.109254 0.2577
v -0.809766 0.120517 0.25807
v -0.782975 0.155272 0.265785
v -0.782975 0.120517 0.25807
v -0.809766 0.120517 0.25807
v -0.804549 0.155576 0.265853
v -0.809766 0.120517 0.25807
v -0.809766 0.109254 0.2577
v -0.836557 0.109254 0.2577
v -0.836557 0.120517 0.25807
v -0.848301 0.109254 0.2577
v -0.848287 0.120517 0.25807
v -0.836557 0.120517 0.25807
v -0.836557 0.109254 0.2577
v -0.848301 0.109254 0.2577
v -0.857228 0.109135 0.261326
v -0.857224 0.120397 0.261697
v -0.848287 0.120517 0.25807
v -0.857228 0.109135 0.261326
v -0.860926 0.108848 0.270078
v -0.860926 0.12011 0.270452
v -0.857224 0.120397 0.261697
v -0.860926 0.105573 0.369738
v -0.860926 0.116836 0.370093
v -0.860926 0.12011 0.270452
v -0.860926 0.108848 0.270078
v -0.860926 0.105573 0.369738
v -0.857283 0.105279 0.378695
v -0.857282 0.116541 0.379061
v -0.860926 0.116836 0.370093
v -0.857283 0.105279 0.378695
v -0.848489 0.105157 0.382405
v -0.848483 0.116419 0.382775
v -0.857282 0.116541 0.379061
v -0.836557 0.105157 0.382405
v -0.836557 0.116419 0.382775
v -0.848483 0.116419 0.382775
v -0.848489 0.105157 0.382405
v -0.836557 0.116419 0.382775
v -0.836557 0.105157 0.382405
v -0.809766 0.105157 0.382405
v -0.809766 0.116419 0.382775
v -0.809766 0.116419 0.382775
v -0.809766 0.105157 0.382405
v -0.782975 0.105157 0.382405
v -0.782975 0.116419 0.382775
v -0.782975 0.116419 0.382775
v -0.782975 0.105157 0.382405
v -0.756184 0.105157 0.382405
v -0.756184 0.116419 0.382775
v -0.756184 0.116419 0.382775
v -0.756184 0.105157 0.382405
v -0.729394 0.105157 0.382405
v -0.729394 0.116419 0.382775
v -0.717461 0.105157 0.382405
v -0.717467 0.116419 0.382775
v -0.729394 0.116419 0.382775
v -0.729394 0.105157 0.382405
v -0.717461 0.105157 0.382405
v -0.708667 0.105279 0.378695
v -0.708669 0.116541 0.379061
v -0.717467 0.116419 0.382775
v -0.717467 0.116419 0.382775
v -0.708669 0.116541 0.379061
v -0.724748 0.174308 0.362483
v -0.724748 0.174308 0.362483
v -0.740103 0.172363 0.363164
v -0.729394 0.116419 0.382775
v -0.717467 0.116419 0.382775
v -0.761495 0.170647 0.363766
v -0.756184 0.116419 0.382775
v -0.729394 0.116419 0.382775
v -0.740103 0.172363 0.363164
v -0.740599 0.174475 0.35951
v -0.761752 0.172778 0.360105
v -0.761495 0.170647 0.363766
v -0.740103 0.172363 0.363164
v -0.725407 0.1764 0.358836
v -0.740599 0.174475 0.35951
v -0.740103 0.172363 0.363164
v -0.724748 0.174308 0.362483
v -0.761752 0.172778 0.360105
v -0.782975 0.172303 0.360271
v -0.782975 0.170168 0.363934
v -0.761495 0.170647 0.363766
v -0.782975 0.170168 0.363934
v -0.782975 0.116419 0.382775
v -0.756184 0.116419 0.382775
v -0.761495 0.170647 0.363766
v -0.782975 0.172303 0.360271
v -0.804199 0.172778 0.360105
v -0.804455 0.170647 0.363766
v -0.782975 0.170168 0.363934
v -0.804455 0.170647 0.363766
v -0.809766 0.116419 0.382775
v -0.782975 0.116419 0.382775
v -0.782975 0.170168 0.363934
v -0.804199 0.172778 0.360105
v -0.825351 0.174475 0.35951
v -0.825847 0.172363 0.363164
v -0.804455 0.170647 0.363766
v -0.825847 0.172363 0.363164
v -0.836557 0.116419 0.382775
v -0.809766 0.116419 0.382775
v -0.804455 0.170647 0.363766
v -0.825351 0.174475 0.35951
v -0.840544 0.1764 0.358836
v -0.841203 0.174308 0.362483
v -0.825847 0.172363 0.363164
v -0.825847 0.172363 0.363164
v -0.841203 0.174308 0.362483
v -0.848483 0.116419 0.382775
v -0.836557 0.116419 0.382775
v -0.840544 0.1764 0.358836
v -0.843699 0.176105 0.354757
v -0.847027 0.174061 0.356608
v -0.841203 0.174308 0.362483
v -0.860926 0.116836 0.370093
v -0.857282 0.116541 0.379061
v -0.841203 0.174308 0.362483
v -0.847027 0.174061 0.356608
v -0.857282 0.116541 0.379061
v -0.848483 0.116419 0.382775
v -0.841203 0.174308 0.362483
v -0.847308 0.159511 0.273239
v -0.847027 0.174061 0.356608
v -0.843699 0.176105 0.354757
v -0.843681 0.162111 0.274618
v -0.847308 0.159511 0.273239
v -0.860926 0.12011 0.270452
v -0.860926 0.116836 0.370093
v -0.847027 0.174061 0.356608
v -0.825387 0.161743 0.28266
v -0.843681 0.162111 0.274618
v -0.843699 0.176105 0.354757
v -0.825355 0.172148 0.346352
v -0.843699 0.176105 0.354757
v -0.840544 0.1764 0.358836
v -0.825351 0.174475 0.35951
v -0.825355 0.172148 0.346352
v -0.825387 0.161743 0.28266
v -0.825355 0.172148 0.346352
v -0.8042 0.170431 0.346834
v -0.804186 0.16044 0.282575
v -0.804199 0.172778 0.360105
v -0.8042 0.170431 0.346834
v -0.825355 0.172148 0.346352
v -0.825351 0.174475 0.35951
v -0.804186 0.16044 0.282575
v -0.804152 0.158659 0.269218
v -0.825306 0.159771 0.269449
v -0.825387 0.161743 0.28266
v -0.843681 0.162111 0.274618
v -0.825387 0.161743 0.28266
v -0.825306 0.159771 0.269449
v -0.840293 0.161043 0.269704
v -0.804549 0.155576 0.265853
v -0.826071 0.156664 0.266094
v -0.825306 0.159771 0.269449
v -0.804152 0.158659 0.269218
v -0.840293 0.161043 0.269704
v -0.825306 0.159771 0.269449
v -0.826071 0.156664 0.266094
v -0.84121 0.157873 0.266363
v -0.843681 0.162111 0.274618
v -0.840293 0.161043 0.269704
v -0.84121 0.157873 0.266363
v -0.847308 0.159511 0.273239
v -0.848287 0.120517 0.25807
v -0.857224 0.120397 0.261697
v -0.847308 0.159511 0.273239
v -0.84121 0.157873 0.266363
v -0.84121 0.157873 0.266363
v -0.826071 0.156664 0.266094
v -0.836557 0.120517 0.25807
v -0.848287 0.120517 0.25807
v -0.782975 0.155272 0.265785
v -0.804549 0.155576 0.265853
v -0.804152 0.158659 0.269218
v -0.782975 0.158347 0.269153
v -0.782975 0.160065 0.282552
v -0.782975 0.158347 0.269153
v -0.804152 0.158659 0.269218
v -0.804186 0.16044 0.282575
v -0.761765 0.16044 0.282575
v -0.761798 0.158659 0.269218
v -0.782975 0.158347 0.269153
v -0.782975 0.160065 0.282552
v -0.782975 0.160065 0.282552
v -0.782975 0.169941 0.346971
v -0.761751 0.170431 0.346834
v -0.761765 0.16044 0.282575
v -0.804186 0.16044 0.282575
v -0.8042 0.170431 0.346834
v -0.782975 0.169941 0.346971
v -0.782975 0.160065 0.282552
v -0.782975 0.172303 0.360271
v -0.782975 0.169941 0.346971
v -0.8042 0.170431 0.346834
v -0.804199 0.172778 0.360105
v -0.761752 0.172778 0.360105
v -0.761751 0.170431 0.346834
v -0.782975 0.169941 0.346971
v -0.782975 0.172303 0.360271
v -0.761765 0.16044 0.282575
v -0.761751 0.170431 0.346834
v -0.740595 0.172148 0.346352
v -0.740564 0.161743 0.28266
v -0.740599 0.174475 0.35951
v -0.740595 0.172148 0.346352
v -0.761751 0.170431 0.346834
v -0.761752 0.172778 0.360105
v -0.722269 0.162111 0.274618
v -0.740564 0.161743 0.28266
v -0.740595 0.172148 0.346352
v -0.722251 0.176105 0.354757
v -0.740599 0.174475 0.35951
v -0.725407 0.1764 0.358836
v -0.722251 0.176105 0.354757
v -0.740595 0.172148 0.346352
v -0.740564 0.161743 0.28266
v -0.740645 0.159771 0.269449
v -0.761798 0.158659 0.269218
v -0.761765 0.16044 0.282575
v -0.740564 0.161743 0.28266
v -0.722269 0.162111 0.274618
v -0.725657 0.161043 0.269704
v -0.740645 0.159771 0.269449
v -0.804549 0.155576 0.265853
v -0.809766 0.120517 0.25807
v -0.836557 0.120517 0.25807
v -0.826071 0.156664 0.266094
v -0.857224 0.120397 0.261697
v -0.860926 0.12011 0.270452
v -0.847308 0.159511 0.273239
vn -0 0.0328 -0.9995
vn -0 0.0328 -0.9995
vn -0 0.0328 -0.9995
vn -0 0.0328 -0.9995
vn -0 0.0328 -0.9995
vn -0 0.0328 -0.9995
vn 0.1729 0.0325 -0.9844
vn 0.1729 0.0325 -0.9844
vn 0.1729 0.0325 -0.9844
vn 0.7001 0.0238 -0.7136
vn 0.7001 0.0238 -0.7136
vn 0.1729 0.0325 -0.9844
vn 0.7001 0.0238 -0.7136
vn 0.9993 0.0014 -0.0379
vn 0.9993 0.0014 -0.0379
vn 0.7001 0.0238 -0.7136
vn 0.9993 -0.001 0.0373
vn 0.9993 0.0014 -0.0379
vn 0.9993 0.0014 -0.0379
vn 0.9993 -0.0011 0.0373
vn 0.7139 -0.0226 0.6999
vn 0.9993 -0.001 0.0373
vn 0.9993 -0.0011 0.0373
vn 0.7138 -0.0226 0.7
vn 0.6659 0.3476 0.6601
vn 0.9619 0.273 -0.012
vn 0.9621 0.2724 -0.0153
vn 0.1178 0.3791 0.9178
vn 0.9618 0.2731 -0.0191
vn 0.9621 0.2724 -0.0153
vn 0.9621 0.2724 -0.0153
vn 0.9619 0.273 -0.012
vn -0.1245 0.9775 -0.1701
vn -0.1313 0.9762 -0.1725
vn 0.1178 0.3791 0.9178
vn 0.9621 0.2724 -0.0153
vn -0.1245 0.9775 -0.1701
vn 0.9621 0.2724 -0.0153
vn 0.9621 0.2724 -0.0153
vn -0.0921 0.9832 -0.1575
vn -0.0815 0.9849 -0.1528
vn -0.0921 0.9832 -0.1575
vn 0.9621 0.2724 -0.0153
vn 0.1249 0.2962 -0.9469
vn 0.1249 0.2962 -0.9469
vn 0.9621 0.2724 -0.0153
vn 0.6726 0.3216 -0.6664
vn 0.1382 0.2405 -0.9608
vn 0.9621 0.2724 -0.0153
vn 0.9618 0.2731 -0.0191
vn 0.6726 0.3216 -0.6664
vn -0.069 0.9865 -0.1482
vn -0.0815 0.9849 -0.1528
vn 0.1249 0.2962 -0.9469
vn -0.0044 0.2801 -0.96
vn -0.0044 0.2801 -0.96
vn 0.1249 0.2962 -0.9469
vn 0.1382 0.2405 -0.9608
vn -0 0.2167 -0.9762
vn -0.0044 0.2801 -0.96
vn -0.0021 0.277 -0.9609
vn -0.0353 0.9898 -0.1384
vn -0.069 0.9865 -0.1482
vn -0.0044 0.2801 -0.96
vn -0 0.2167 -0.9762
vn -0 0.2167 -0.9762
vn -0.0021 0.277 -0.9609
vn -0.0021 0.277 -0.9609
vn -0.0003 0.2778 -0.9606
vn -0 0.991 -0.1335
vn -0.0353 0.9898 -0.1384
vn -0.0021 0.277 -0.9609
vn -0 0.2167 -0.9762
vn -0 0.2167 -0.9762
vn -0.0003 0.2778 -0.9606
vn -0 0.0328 -0.9995
vn -0 0.0328 -0.9995
vn -0 0.0328 -0.9995
vn -0 0.0328 -0.9995
vn -0 0.0328 -0.9995
vn -0 0.0328 -0.9995
vn -0 0.0328 -0.9995
vn -0 0.0328 -0.9995
vn -0.0003 0.2778 -0.9606
vn -0 0.2167 -0.9762
vn -0 0.2167 -0.9762
vn 0.0021 0.277 -0.9609
vn -0 0.0328 -0.9995
vn -0 0.0328 -0.9995
vn -0 0.0328 -0.9995
vn -0 0.0328 -0.9995
vn -0.1729 0.0325 -0.9844
vn -0.1729 0.0325 -0.9844
vn -0 0.0328 -0.9995
vn -0 0.0328 -0.9995
vn -0.1729 0.0325 -0.9844
vn -0.7002 0.0238 -0.7135
vn -0.7021 0.0237 -0.7116
vn -0.1729 0.0325 -0.9844
vn -0.7002 0.0238 -0.7135
vn -0.9993 0.0014 -0.0379
vn -0.9993 0.0012 -0.0379
vn -0.7021 0.0237 -0.7116
vn -0.9993 -0.0012 0.0373
vn -0.9993 -0.001 0.0373
vn -0.9993 0.0012 -0.0379
vn -0.9993 0.0014 -0.0379
vn -0.9993 -0.0012 0.0373
vn -0.7139 -0.0226 0.6999
vn -0.7139 -0.0226 0.6999
vn -0.9993 -0.001 0.0373
vn -0.7139 -0.0226 0.6999
vn -0.1764 -0.0322 0.9838
vn -0.1764 -0.0322 0.9838
vn -0.7139 -0.0226 0.6999
vn -0 -0.0328 0.9995
vn -0 -0.0328 0.9995
vn -0.1764 -0.0322 0.9838
vn -0.1764 -0.0322 0.9838
vn -0 -0.0328 0.9995
vn -0 -0.0328 0.9995
vn -0 -0.0328 0.9995
vn -0 -0.0328 0.9995
vn -0 -0.0328 0.9995
vn -0 -0.0328 0.9995
vn -0 -0.0328 0.9995
vn -0 -0.0328 0.9995
vn -0 -0.0328 0.9995
vn -0 -0.0328 0.9995
vn -0 -0.0328 0.9995
vn -0 -0.0328 0.9995
vn -0 -0.0328 0.9995
vn -0 -0.0328 0.9995
vn -0 -0.0328 0.9995
vn -0 -0.0328 0.9995
vn 0.1764 -0.0322 0.9838
vn 0.1764 -0.0322 0.9838
vn -0 -0.0328 0.9995
vn -0 -0.0328 0.9995
vn 0.1764 -0.0322 0.9838
vn 0.7139 -0.0226 0.6999
vn 0.7138 -0.0226 0.7
vn 0.1764 -0.0322 0.9838
vn 0.1265 0.3424 0.931
vn 0.6659 0.3476 0.6601
vn 0.1178 0.3791 0.9178
vn 0.1178 0.3791 0.9178
vn -0.0049 0.3742 0.9273
vn -0 0.3308 0.9437
vn 0.1265 0.3424 0.931
vn -0.0024 0.3718 0.9283
vn -0 0.3308 0.9437
vn -0 0.3308 0.9437
vn -0.0049 0.3742 0.9273
vn -0.1072 0.9797 -0.1693
vn -0.0534 0.984 -0.1703
vn -0.0024 0.3718 0.9283
vn -0.0049 0.3742 0.9273
vn -0.1313 0.9762 -0.1725
vn -0.1072 0.9797 -0.1693
vn -0.0049 0.3742 0.9273
vn 0.1178 0.3791 0.9178
vn -0.0534 0.984 -0.1703
vn -0 0.9853 -0.1707
vn 0.0003 0.3724 0.9281
vn -0.0024 0.3718 0.9283
vn 0.0003 0.3724 0.9281
vn -0 0.3308 0.9437
vn -0 0.3308 0.9437
vn -0.0024 0.3718 0.9283
vn -0 0.9853 -0.1707
vn 0.0534 0.9839 -0.1703
vn 0.0024 0.3718 0.9283
vn 0.0003 0.3724 0.9281
vn 0.0024 0.3718 0.9283
vn -0 0.3308 0.9437
vn -0 0.3308 0.9437
vn 0.0003 0.3724 0.9281
vn 0.0534 0.9839 -0.1703
vn 0.1072 0.9797 -0.1693
vn 0.0049 0.3742 0.9273
vn 0.0024 0.3718 0.9283
vn 0.0049 0.3742 0.9273
vn -0 0.3308 0.9437
vn -0 0.3308 0.9437
vn 0.0024 0.3718 0.9283
vn 0.1072 0.9797 -0.1693
vn 0.1314 0.9762 -0.1725
vn -0.1178 0.3792 0.9178
vn 0.0049 0.3742 0.9273
vn 0.0049 0.3742 0.9273
vn -0.1178 0.3792 0.9178
vn -0.1266 0.3424 0.931
vn -0 0.3308 0.9437
vn 0.1314 0.9762 -0.1725
vn 0.1245 0.9775 -0.17
vn -0.9621 0.2724 -0.0153
vn -0.1178 0.3792 0.9178
vn -0.9619 0.273 -0.012
vn -0.6659 0.3476 0.6601
vn -0.1178 0.3792 0.9178
vn -0.9621 0.2724 -0.0153
vn -0.6659 0.3476 0.6601
vn -0.1266 0.3424 0.931
vn -0.1178 0.3792 0.9178
vn -0.9621 0.2724 -0.0153
vn -0.9621 0.2724 -0.0153
vn 0.1245 0.9775 -0.17
vn 0.0921 0.9832 -0.1575
vn -0.9621 0.2724 -0.0153
vn -0.9618 0.2731 -0.019
vn -0.9619 0.273 -0.012
vn -0.9621 0.2724 -0.0153
vn 0.0832 0.9845 -0.1542
vn 0.0921 0.9832 -0.1575
vn 0.1245 0.9775 -0.17
vn 0.0989 0.981 -0.1669
vn 0.1245 0.9775 -0.17
vn 0.1314 0.9762 -0.1725
vn 0.1072 0.9797 -0.1693
vn 0.0989 0.981 -0.1669
vn 0.0832 0.9845 -0.1542
vn 0.0989 0.981 -0.1669
vn 0.0499 0.9851 -0.1645
vn 0.0408 0.9886 -0.1447
vn 0.0534 0.9839 -0.1703
vn 0.0499 0.9851 -0.1645
vn 0.0989 0.981 -0.1669
vn 0.1072 0.9797 -0.1693
vn 0.0408 0.9886 -0.1447
vn 0.0353 0.9898 -0.1384
vn 0.069 0.9865 -0.1482
vn 0.0832 0.9845 -0.1542
vn 0.0921 0.9832 -0.1575
vn 0.0832 0.9845 -0.1542
vn 0.069 0.9865 -0.1482
vn 0.0815 0.9849 -0.1528
vn 0.0021 0.277 -0.9609
vn 0.0044 0.2801 -0.96
vn 0.069 0.9865 -0.1482
vn 0.0353 0.9898 -0.1384
vn 0.0815 0.9849 -0.1528
vn 0.069 0.9865 -0.1482
vn 0.0044 0.2801 -0.96
vn -0.125 0.2961 -0.9469
vn 0.0921 0.9832 -0.1575
vn 0.0815 0.9849 -0.1528
vn -0.125 0.2961 -0.9469
vn -0.9621 0.2724 -0.0153
vn -0.1382 0.2405 -0.9607
vn -0.6726 0.3216 -0.6664
vn -0.9621 0.2724 -0.0153
vn -0.125 0.2961 -0.9469
vn -0.125 0.2961 -0.9469
vn 0.0044 0.2801 -0.96
vn -0 0.2167 -0.9762
vn -0.1382 0.2405 -0.9607
vn -0.0003 0.2778 -0.9606
vn 0.0021 0.277 -0.9609
vn 0.0353 0.9898 -0.1384
vn -0 0.991 -0.1335
vn -0 0.99 -0.1411
vn -0 0.991 -0.1335
vn 0.0353 0.9898 -0.1384
vn 0.0408 0.9886 -0.1447
vn -0.0408 0.9886 -0.1447
vn -0.0353 0.9898 -0.1384
vn -0 0.991 -0.1335
vn -0 0.99 -0.1411
vn -0 0.99 -0.1411
vn -0 0.9865 -0.1636
vn -0.0499 0.9851 -0.1645
vn -0.0408 0.9886 -0.1447
vn 0.0408 0.9886 -0.1447
vn 0.0499 0.9851 -0.1645
vn -0 0.9865 -0.1636
vn -0 0.99 -0.1411
vn -0 0.9853 -0.1707
vn -0 0.9865 -0.1636
vn 0.0499 0.9851 -0.1645
vn 0.0534 0.9839 -0.1703
vn -0.0534 0.984 -0.1703
vn -0.0499 0.9851 -0.1645
vn -0 0.9865 -0.1636
vn -0 0.9853 -0.1707
vn -0.0408 0.9886 -0.1447
vn -0.0499 0.9851 -0.1645
vn -0.0989 0.981 -0.1669
vn -0.0832 0.9845 -0.1542
vn -0.1072 0.9797 -0.1693
vn -0.0989 0.981 -0.1669
vn -0.0499 0.9851 -0.1645
vn -0.0534 0.984 -0.1703
vn -0.0921 0.9832 -0.1575
vn -0.0832 0.9845 -0.1542
vn -0.0989 0.981 -0.1669
vn -0.1245 0.9775 -0.1701
vn -0.1072 0.9797 -0.1693
vn -0.1313 0.9762 -0.1725
vn -0.1245 0.9775 -0.1701
vn -0.0989 0.981 -0.1669
vn -0.0832 0.9845 -0.1542
vn -0.069 0.9865 -0.1482
vn -0.0353 0.9898 -0.1384
vn -0.0408 0.9886 -0.1447
vn -0.0832 0.9845 -0.1542
vn -0.0921 0.9832 -0.1575
vn -0.0815 0.9849 -0.1528
vn -0.069 0.9865 -0.1482
vn 0.0021 0.277 -0.9609
vn -0 0.2167 -0.9762
vn -0 0.2167 -0.9762
vn 0.0044 0.2801 -0.96
vn -0.6726 0.3216 -0.6664
vn -0.9618 0.2731 -0.019
vn -0.9621 0.2724 -0.0153
vt 0.142348 0.314889
vt 0.142348 0.312771
vt 0.129212 0.312771
vt 0.129212 0.314889
vt 0.142348 0.312771
vt 0.142348 0.314889
vt 0.147622 0.31482
vt 0.148107 0.312771
vt 0.147622 0.31482
vt 0.15107 0.316031
vt 0.152484 0.314548
vt 0.148107 0.312771
vt 0.15107 0.316031
vt 0.152407 0.319404
vt 0.154298 0.31884
vt 0.152484 0.314548
vt 0.154298 0.367708
vt 0.154298 0.31884
vt 0.152407 0.319404
vt 0.15243 0.367405
vt 0.152511 0.372099
vt 0.154298 0.367708
vt 0.15243 0.367405
vt 0.151204 0.370865
vt 0.151204 0.370865
vt 0.15243 0.367405
vt 0.142536 0.359177
vt 0.14013 0.361604
vt 0.152407 0.319404
vt 0.142652 0.324736
vt 0.142536 0.359177
vt 0.15243 0.367405
vt 0.141161 0.358413
vt 0.139857 0.360098
vt 0.14013 0.361604
vt 0.142536 0.359177
vt 0.141161 0.358413
vt 0.142536 0.359177
vt 0.142652 0.324736
vt 0.141153 0.325306
vt 0.139754 0.323276
vt 0.141153 0.325306
vt 0.142652 0.324736
vt 0.140133 0.321896
vt 0.140133 0.321896
vt 0.142652 0.324736
vt 0.15107 0.316031
vt 0.147622 0.31482
vt 0.142652 0.324736
vt 0.152407 0.319404
vt 0.15107 0.316031
vt 0.133562 0.323171
vt 0.139754 0.323276
vt 0.140133 0.321896
vt 0.133878 0.321785
vt 0.133878 0.321785
vt 0.140133 0.321896
vt 0.147622 0.31482
vt 0.142348 0.314889
vt 0.133878 0.321785
vt 0.124988 0.321685
vt 0.124824 0.323075
vt 0.133562 0.323171
vt 0.133878 0.321785
vt 0.142348 0.314889
vt 0.129212 0.314889
vt 0.124988 0.321685
vt 0.124988 0.321685
vt 0.116075 0.321657
vt 0.116075 0.323049
vt 0.124824 0.323075
vt 0.124988 0.321685
vt 0.129212 0.314889
vt 0.116075 0.314889
vt 0.116075 0.321657
vt 0.129212 0.314889
vt 0.129212 0.312771
vt 0.116075 0.312771
vt 0.116075 0.314889
vt 0.116075 0.314889
vt 0.116075 0.312771
vt 0.102938 0.312771
vt 0.102938 0.314889
vt 0.116075 0.321657
vt 0.116075 0.314889
vt 0.102938 0.314889
vt 0.107162 0.321685
vt 0.102938 0.314889
vt 0.102938 0.312771
vt 0.089802 0.312771
vt 0.089802 0.314889
vt 0.084043 0.312771
vt 0.084528 0.31482
vt 0.089802 0.314889
vt 0.089802 0.312771
vt 0.084043 0.312771
vt 0.079666 0.314548
vt 0.08108 0.316031
vt 0.084528 0.31482
vt 0.079666 0.314548
vt 0.077852 0.31884
vt 0.079743 0.319404
vt 0.08108 0.316031
vt 0.077852 0.367708
vt 0.079721 0.367405
vt 0.079743 0.319404
vt 0.077852 0.31884
vt 0.077852 0.367708
vt 0.079639 0.372099
vt 0.080946 0.370865
vt 0.079721 0.367405
vt 0.079639 0.372099
vt 0.083951 0.373919
vt 0.084339 0.372211
vt 0.080946 0.370865
vt 0.089802 0.373919
vt 0.089802 0.372171
vt 0.084339 0.372211
vt 0.083951 0.373919
vt 0.089802 0.372171
vt 0.089802 0.373919
vt 0.102938 0.373919
vt 0.102938 0.372171
vt 0.102938 0.372171
vt 0.102938 0.373919
vt 0.116075 0.373919
vt 0.116075 0.372171
vt 0.116075 0.372171
vt 0.116075 0.373919
vt 0.129212 0.373919
vt 0.129212 0.372171
vt 0.129212 0.372171
vt 0.129212 0.373919
vt 0.142348 0.373919
vt 0.142348 0.372171
vt 0.148199 0.373919
vt 0.147811 0.372211
vt 0.142348 0.372171
vt 0.142348 0.373919
vt 0.148199 0.373919
vt 0.152511 0.372099
vt 0.151204 0.370865
vt 0.147811 0.372211
vt 0.147811 0.372211
vt 0.151204 0.370865
vt 0.14013 0.361604
vt 0.14013 0.361604
vt 0.133786 0.361886
vt 0.142348 0.372171
vt 0.147811 0.372211
vt 0.124949 0.362134
vt 0.129212 0.372171
vt 0.142348 0.372171
vt 0.133786 0.361886
vt 0.133581 0.360376
vt 0.124843 0.360622
vt 0.124949 0.362134
vt 0.133786 0.361886
vt 0.139857 0.360098
vt 0.133581 0.360376
vt 0.133786 0.361886
vt 0.14013 0.361604
vt 0.124843 0.360622
vt 0.116075 0.360691
vt 0.116075 0.362204
vt 0.124949 0.362134
vt 0.116075 0.362204
vt 0.116075 0.372171
vt 0.129212 0.372171
vt 0.124949 0.362134
vt 0.116075 0.360691
vt 0.107307 0.360622
vt 0.107201 0.362134
vt 0.116075 0.362204
vt 0.107201 0.362134
vt 0.102938 0.372171
vt 0.116075 0.372171
vt 0.116075 0.362204
vt 0.107307 0.360622
vt 0.098569 0.360376
vt 0.098364 0.361886
vt 0.107201 0.362134
vt 0.098364 0.361886
vt 0.089802 0.372171
vt 0.102938 0.372171
vt 0.107201 0.362134
vt 0.098569 0.360376
vt 0.092293 0.360098
vt 0.09202 0.361604
vt 0.098364 0.361886
vt 0.098364 0.361886
vt 0.09202 0.361604
vt 0.084339 0.372211
vt 0.089802 0.372171
vt 0.092293 0.360098
vt 0.090989 0.358413
vt 0.089614 0.359177
vt 0.09202 0.361604
vt 0.079721 0.367405
vt 0.080946 0.370865
vt 0.09202 0.361604
vt 0.089614 0.359177
vt 0.080946 0.370865
vt 0.084339 0.372211
vt 0.09202 0.361604
vt 0.089498 0.324736
vt 0.089614 0.359177
vt 0.090989 0.358413
vt 0.090997 0.325306
vt 0.089498 0.324736
vt 0.079743 0.319404
vt 0.079721 0.367405
vt 0.089614 0.359177
vt 0.098554 0.328629
vt 0.090997 0.325306
vt 0.090989 0.358413
vt 0.098567 0.35494
vt 0.090989 0.358413
vt 0.092293 0.360098
vt 0.098569 0.360376
vt 0.098567 0.35494
vt 0.098554 0.328629
vt 0.098567 0.35494
vt 0.107307 0.355139
vt 0.107313 0.328593
vt 0.107307 0.360622
vt 0.107307 0.355139
vt 0.098567 0.35494
vt 0.098569 0.360376
vt 0.107313 0.328593
vt 0.107326 0.323075
vt 0.098588 0.323171
vt 0.098554 0.328629
vt 0.090997 0.325306
vt 0.098554 0.328629
vt 0.098588 0.323171
vt 0.092396 0.323276
vt 0.107162 0.321685
vt 0.098272 0.321785
vt 0.098588 0.323171
vt 0.107326 0.323075
vt 0.092396 0.323276
vt 0.098588 0.323171
vt 0.098272 0.321785
vt 0.092017 0.321896
vt 0.090997 0.325306
vt 0.092396 0.323276
vt 0.092017 0.321896
vt 0.089498 0.324736
vt 0.084528 0.31482
vt 0.08108 0.316031
vt 0.089498 0.324736
vt 0.092017 0.321896
vt 0.092017 0.321896
vt 0.098272 0.321785
vt 0.089802 0.314889
vt 0.084528 0.31482
vt 0.116075 0.321657
vt 0.107162 0.321685
vt 0.107326 0.323075
vt 0.116075 0.323049
vt 0.116075 0.328584
vt 0.116075 0.323049
vt 0.107326 0.323075
vt 0.107313 0.328593
vt 0.124837 0.328593
vt 0.124824 0.323075
vt 0.116075 0.323049
vt 0.116075 0.328584
vt 0.116075 0.328584
vt 0.116075 0.355196
vt 0.124843 0.355139
vt 0.124837 0.328593
vt 0.107313 0.328593
vt 0.107307 0.355139
vt 0.116075 0.355196
vt 0.116075 0.328584
vt 0.116075 0.360691
vt 0.116075 0.355196
vt 0.107307 0.355139
vt 0.107307 0.360622
vt 0.124843 0.360622
vt 0.124843 0.355139
vt 0.116075 0.355196
vt 0.116075 0.360691
vt 0.124837 0.328593
vt 0.124843 0.355139
vt 0.133583 0.35494
vt 0.133596 0.328629
vt 0.133581 0.360376
vt 0.133583 0.35494
vt 0.124843 0.355139
vt 0.124843 0.360622
vt 0.141153 0.325306
vt 0.133596 0.328629
vt 0.133583 0.35494
vt 0.141161 0.358413
vt 0.133581 0.360376
vt 0.139857 0.360098
vt 0.141161 0.358413
vt 0.133583 0.35494
vt 0.133596 0.328629
vt 0.133562 0.323171
vt 0.124824 0.323075
vt 0.124837 0.328593
vt 0.133596 0.328629
vt 0.141153 0.325306
vt 0.139754 0.323276
vt 0.133562 0.323171
vt 0.107162 0.321685
vt 0.102938 0.314889
vt 0.089802 0.314889
vt 0.098272 0.321785
vt 0.08108 0.316031
vt 0.079743 0.319404
vt 0.089498 0.324736
s off
f 1/1/1 2/2/2 3/3/3
f 1/1/1 3/3/3 4/4/4
f 5/5/5 6/6/6 7/7/7
f 5/5/5 7/7/7 8/8/8
f 9/9/9 10/10/10 11/11/11
f 9/9/9 11/11/11 12/12/12
f 13/13/13 14/14/14 15/15/15
f 13/13/13 15/15/15 16/16/16
f 17/17/17 18/18/18 19/19/19
f 17/17/17 19/19/19 20/20/20
f 21/21/21 22/22/22 23/23/23
f 21/21/21 23/23/23 24/24/24
f 25/25/25 26/26/26 27/27/27
f 25/25/25 27/27/27 28/28/28
f 29/29/29 30/30/30 31/31/31
f 29/29/29 31/31/31 32/32/32
f 33/33/33 34/34/34 35/35/35
f 33/33/33 35/35/35 36/36/36
f 37/37/37 38/38/38 39/39/39
f 37/37/37 39/39/39 40/40/40
f 41/41/41 42/42/42 43/43/43
f 41/41/41 43/43/43 44/44/44
f 45/45/45 46/46/46 47/47/47
f 45/45/45 47/47/47 48/48/48
f 49/49/49 50/50/50 51/51/51
f 52/52/52 53/53/53 54/54/54
f 52/52/52 54/54/54 55/55/55
f 56/56/56 57/57/57 58/58/58
f 56/56/56 58/58/58 59/59/59
f 60/60/60 61/61/61 62/62/62
f 60/60/60 62/62/62 63/63/63
f 64/64/64 65/65/65 66/66/66
f 64/64/64 66/66/66 67/67/67
f 68/68/68 69/69/69 70/70/70
f 68/68/68 70/70/70 71/71/71
f 72/72/72 73/73/73 74/74/74
f 72/72/72 74/74/74 75/75/75
f 76/76/76 77/77/77 78/78/78
f 76/76/76 78/78/78 79/79/79
f 80/80/80 81/81/81 82/82/82
f 80/80/80 82/82/82 83/83/83
f 84/84/84 85/85/85 86/86/86
f 84/84/84 86/86/86 87/87/87
f 88/88/88 89/89/89 90/90/90
f 88/88/88 90/90/90 91/91/91
f 92/92/92 93/93/93 94/94/94
f 92/92/92 94/94/94 95/95/95
f 96/96/96 97/97/97 98/98/98
f 96/96/96 98/98/98 99/99/99
f 100/100/100 101/101/101 102/102/102
f 100/100/100 102/102/102 103/103/103
f 104/104/104 105/105/105 106/106/106
f 104/104/104 106/106/106 107/107/107
f 108/108/108 109/109/109 110/110/110
f 108/108/108 110/110/110 111/111/111
f 112/112/112 113/113/113 114/114/114
f 112/112/112 114/114/114 115/115/115
f 116/116/116 117/117/117 118/118/118
f 116/116/116 118/118/118 119/119/119
f 120/120/120 121/121/121 122/122/122
f 120/120/120 122/122/122 123/123/123
f 124/124/124 125/125/125 126/126/126
f 124/124/124 126/126/126 127/127/127
f 128/128/128 129/129/129 130/130/130
f 128/128/128 130/130/130 131/131/131
f 132/132/132 133/133/133 134/134/134
f 132/132/132 134/134/134 135/135/135
f 136/136/136 137/137/137 138/138/138
f 136/136/136 138/138/138 139/139/139
f 140/140/140 141/141/141 142/142/142
f 140/140/140 142/142/142 143/143/143
f 144/144/144 145/145/145 146/146/146
f 147/147/147 148/148/148 149/149/149
f 147/147/147 149/149/149 150/150/150
f 151/151/151 152/152/152 153/153/153
f 151/151/151 153/153/153 154/154/154
f 155/155/155 156/156/156 157/157/157
f 155/155/155 157/157/157 158/158/158
f 159/159/159 160/160/160 161/161/161
f 159/159/159 161/161/161 162/162/162
f 163/163/163 164/164/164 165/165/165
f 163/163/163 165/165/165 166/166/166
f 167/167/167 168/168/168 169/169/169
f 167/167/167 169/169/169 170/170/170
f 171/171/171 172/172/172 173/173/173
f 171/171/171 173/173/173 174/174/174
f 175/175/175 176/176/176 177/177/177
f 175/175/175 177/177/177 178/178/178
f 179/179/179 180/180/180 181/181/181
f 179/179/179 181/181/181 182/182/182
f 183/183/183 184/184/184 185/185/185
f 183/183/183 185/185/185 186/186/186
f 187/187/187 188/188/188 189/189/189
f 187/187/187 189/189/189 190/190/190
f 191/191/191 192/192/192 193/193/193
f 191/191/191 193/193/193 194/194/194
f 195/195/195 196/196/196 197/197/197
f 195/195/195 197/197/197 198/198/198
f 199/199/199 200/200/200 201/201/201
f 199/199/199 201/201/201 202/202/202
f 203/203/203 204/204/204 205/205/205
f 206/206/206 207/207/207 208/208/208
f 206/206/206 208/208/208 209/209/209
f 210/210/210 211/211/211 212/212/212
f 210/210/210 212/212/212 213/213/213
f 214/214/214 215/215/215 216/216/216
f 214/214/214 216/216/216 217/217/217
f 218/218/218 219/219/219 220/220/220
f 218/218/218 220/220/220 221/221/221
f 222/222/222 223/223/223 224/224/224
f 222/222/222 224/224/224 225/225/225
f 226/226/226 227/227/227 228/228/228
f 226/226/226 228/228/228 229/229/229
f 230/230/230 231/231/231 232/232/232
f 230/230/230 232/232/232 233/233/233
f 234/234/234 235/235/235 236/236/236
f 234/234/234 236/236/236 237/237/237
f 238/238/238 239/239/239 240/240/240
f 238/238/238 240/240/240 241/241/241
f 242/242/242 243/243/243 244/244/244
f 242/242/242 244/244/244 245/245/245
f 246/246/246 247/247/247 248/248/248
f 246/246/246 248/248/248 249/249/249
f 250/250/250 251/251/251 252/252/252
f 250/250/250 252/252/252 253/253/253
f 254/254/254 255/255/255 256/256/256
f 254/254/254 256/256/256 257/257/257
f 258/258/258 259/259/259 260/260/260
f 258/258/258 260/260/260 261/261/261
f 262/262/262 263/263/263 264/264/264
f 262/262/262 264/264/264 265/265/265
f 266/266/266 267/267/267 268/268/268
f 266/266/266 268/268/268 269/269/269
f 270/270/270 271/271/271 272/272/272
f 270/270/270 272/272/272 273/273/273
f 274/274/274 275/275/275 276/276/276
f 274/274/274 276/276/276 277/277/277
f 278/278/278 279/279/279 280/280/280
f 278/278/278 280/280/280 281/281/281
f 282/282/282 283/283/283 284/284/284
f 282/282/282 284/284/284 285/285/285
f 286/286/286 287/287/287 288/288/288
f 286/286/286 288/288/288 289/289/289
f 290/290/290 291/291/291 292/292/292
f 290/290/290 292/292/292 293/293/293
f 294/294/294 295/295/295 296/296/296
f 294/294/294 296/296/296 297/297/297
f 298/298/298 299/299/299 300/300/300
f 298/298/298 300/300/300 301/301/301
f 302/302/302 303/303/303 304/304/304
f 302/302/302 304/304/304 305/305/305
f 306/306/306 307/307/307 308/308/308
f 306/306/306 308/308/308 309/309/309
f 310/310/310 311/311/311 312/312/312
f 310/310/310 312/312/312 313/313/313
f 314/314/314 315/315/315 316/316/316
