v -0.561188 0.162262 0.167351
v -0.559157 0.16232 0.169772
v -0.554314 0.1608 0.157899
v -0.559157 0.16232 0.169772
v -0.550487 0.160692 0.157899
v -0.554314 0.1608 0.157899
v -0.549862 0.16326 0.182504
v -0.559157 0.16232 0.169772
v -0.561266 0.162803 0.17235
v -0.563375 0.162752 0.169928
v -0.561266 0.162803 0.17235
v -0.559157 0.16232 0.169772
v -0.561188 0.162262 0.167351
v -0.572592 0.165134 0.182504
v -0.56853 0.164639 0.182504
v -0.561266 0.162803 0.17235
v -0.549862 0.16326 0.182504
v -0.561266 0.162803 0.17235
v -0.553924 0.163394 0.182504
v -0.572592 0.165134 0.182504
v -0.561266 0.162803 0.17235
v -0.563375 0.162752 0.169928
v -0.561188 0.162262 0.167351
v -0.568062 0.161931 0.157899
v -0.572045 0.162323 0.157899
v -0.563375 0.162752 0.169928
vn 0.0827 0.9922 -0.0932
vn 0.0827 0.9922 -0.0932
vn 0.0827 0.9922 -0.0932
vn 0.028 0.9929 -0.1157
vn 0.028 0.9929 -0.1157
vn 0.028 0.9929 -0.1157
vn 0.0725 0.9894 -0.1259
vn 0.0725 0.9894 -0.1259
vn 0.0725 0.9894 -0.1259
vn 0.0975 0.9896 -0.1055
vn 0.0975 0.9896 -0.1055
vn 0.0975 0.9896 -0.1055
vn 0.0975 0.9896 -0.1055
vn 0.1204 0.9884 -0.0926
vn 0.1204 0.9884 -0.0926
vn 0.1204 0.9884 -0.0926
vn 0.033 0.9961 -0.0819
vn 0.033 0.9961 -0.0819
vn 0.033 0.9961 -0.0819
vn 0.1039 0.9884 -0.1111
vn 0.1039 0.9884 -0.1111
vn 0.1039 0.9884 -0.1111
vn 0.0975 0.9896 -0.1055
vn 0.0975 0.9896 -0.1055
vn 0.0975 0.9896 -0.1055
vn 0.0975 0.9896 -0.1055
vt 0.228162 0.657817
vt 0.229154 0.659
vt 0.231518 0.653202
vt 0.229154 0.659
vt 0.233388 0.653202
vt 0.231518 0.653202
vt 0.233693 0.665217
vt 0.229154 0.659
vt 0.228124 0.660259
vt 0.227094 0.659076
vt 0.228124 0.660259
vt 0.229154 0.659
vt 0.228162 0.657817
vt 0.222592 0.665217
vt 0.224576 0.665217
vt 0.228124 0.660259
vt 0.233693 0.665217
vt 0.228124 0.660259
vt 0.231709 0.665217
vt 0.222592 0.665217
vt 0.228124 0.660259
vt 0.227094 0.659076
vt 0.228162 0.657817
vt 0.224805 0.653202
vt 0.22286 0.653202
vt 0.227094 0.659076
s off
f 1/1/1 2/2/2 3/3/3
f 4/4/4 5/5/5 6/6/6
f 7/7/7 8/8/8 9/9/9
f 10/10/10 11/11/11 12/12/12
f 10/10/10 12/12/12 13/13/13
f 14/14/14 15/15/15 16/16/16
f 17/17/17 18/18/18 19/19/19
f 20/20/20 21/21/21 22/22/22
f 23/23/23 24/24/24 25/25/25
f 23/23/23 25/25/25 26/26/26
