v -0.157434 0.181288 -0.097522
v -0.145795 0.179551 -0.084556
v -0.153685 0.180946 -0.097522
v -0.145795 0.179551 -0.084556
v -0.157434 0.181288 -0.097522
v -0.14767 0.17957 -0.08151
v -0.14767 0.17957 -0.08151
v -0.144233 0.179254 -0.081432
v -0.145795 0.179551 -0.084556
v -0.14767 0.179145 -0.072918
v -0.144233 0.178832 -0.072918
v -0.14767 0.17957 -0.08151
v -0.14767 0.17957 -0.08151
v -0.144233 0.178832 -0.072918
v -0.144233 0.179254 -0.081432
v -0.144233 0.179254 -0.081432
v -0.137906 0.179941 -0.097522
v -0.145795 0.179551 -0.084556
v -0.137906 0.179941 -0.097522
v -0.144233 0.179254 -0.081432
v -0.134469 0.17985 -0.097522
vn 0.0908 0.9945 0.0518
vn 0.0908 0.9945 0.0518
vn 0.0908 0.9945 0.0518
vn 0.0924 0.9945 0.0504
vn 0.0924 0.9945 0.0504
vn 0.0924 0.9945 0.0504
vn 0.0906 0.9947 0.0493
vn 0.0906 0.9947 0.0493
vn 0.0906 0.9947 0.0493
vn 0.0906 0.9947 0.0493
vn 0.0906 0.9947 0.0493
vn 0.0906 0.9947 0.0493
vn 0.0906 0.9947 0.0493
vn 0.0906 0.9947 0.0493
vn 0.0906 0.9947 0.0493
vn 0.0584 0.9961 0.0655
vn 0.0584 0.9961 0.0655
vn 0.0584 0.9961 0.0655
vn 0.0265 0.9982 0.0531
vn 0.0265 0.9982 0.0531
vn 0.0265 0.9982 0.0531
vt 0.425332 0.528468
vt 0.431016 0.5348
vt 0.427163 0.528468
vt 0.431016 0.5348
vt 0.425332 0.528468
vt 0.4301 0.536288
vt 0.4301 0.536288
vt 0.431779 0.536326
vt 0.431016 0.5348
vt 0.4301 0.540484
vt 0.431779 0.540484
vt 0.4301 0.536288
vt 0.4301 0.536288
vt 0.431779 0.540484
vt 0.431779 0.536326
vt 0.431779 0.536326
vt 0.434868 0.528468
vt 0.431016 0.5348
vt 0.434868 0.528468
vt 0.431779 0.536326
vt 0.436547 0.528468
s off
f 1/1/1 2/2/2 3/3/3
f 4/4/4 5/5/5 6/6/6
f 7/7/7 8/8/8 9/9/9
f 10/10/10 11/11/11 12/12/12
f 13/13/13 14/14/14 15/15/15
f 16/16/16 17/17/17 18/18/18
f 19/19/19 20/20/20 21/21/21
