v -0.6996 0.162315 0.157899
v -0.684368 0.161192 0.160946
v -0.679682 0.160736 0.157899
v -0.679682 0.160736 0.157899
v -0.684368 0.161192 0.160946
v -0.679682 0.160991 0.160321
v -0.6996 0.162315 0.157899
v -0.6996 0.16264 0.160946
v -0.684368 0.161192 0.160946
v -0.699834 0.164813 0.180083
v -0.69507 0.164168 0.179458
v -0.684368 0.161192 0.160946
v -0.684368 0.161192 0.160946
v -0.69507 0.164168 0.179458
v -0.679682 0.160991 0.160321
v -0.679213 0.163313 0.182504
v -0.679213 0.162988 0.179458
v -0.69507 0.164168 0.179458
v -0.699834 0.164813 0.180083
v -0.699834 0.165085 0.182504
v -0.69507 0.164168 0.179458
v -0.69507 0.164168 0.179458
v -0.699834 0.165085 0.182504
v -0.679213 0.163313 0.182504
vn 0.079 0.9965 -0.0276
vn 0.079 0.9965 -0.0276
vn 0.079 0.9965 -0.0276
vn 0.0288 0.9941 -0.1044
vn 0.0288 0.9941 -0.1044
vn 0.0288 0.9941 -0.1044
vn 0.0941 0.9899 -0.1056
vn 0.0941 0.9899 -0.1056
vn 0.0941 0.9899 -0.1056
vn 0.1224 0.9886 -0.0881
vn 0.1224 0.9886 -0.0881
vn 0.1224 0.9886 -0.0881
vn 0.0231 0.9891 -0.1456
vn 0.0231 0.9891 -0.1456
vn 0.0231 0.9891 -0.1456
vn 0.0738 0.9917 -0.1057
vn 0.0738 0.9917 -0.1057
vn 0.0738 0.9917 -0.1057
vn 0.1192 0.9867 -0.1109
vn 0.1192 0.9867 -0.1109
vn 0.1192 0.9867 -0.1109
vn 0.0845 0.9828 -0.164
vn 0.0845 0.9828 -0.164
vn 0.0845 0.9828 -0.164
vt 0.160569 0.653202
vt 0.168007 0.654689
vt 0.170296 0.653202
vt 0.170296 0.653202
vt 0.168007 0.654689
vt 0.170296 0.654384
vt 0.160569 0.653202
vt 0.160569 0.654689
vt 0.168007 0.654689
vt 0.160455 0.664035
vt 0.162781 0.66373
vt 0.168007 0.654689
vt 0.168007 0.654689
vt 0.162781 0.66373
vt 0.170296 0.654384
vt 0.170525 0.665217
vt 0.170525 0.66373
vt 0.162781 0.66373
vt 0.160455 0.664035
vt 0.160455 0.665217
vt 0.162781 0.66373
vt 0.162781 0.66373
vt 0.160455 0.665217
vt 0.170525 0.665217
s off
f 1/1/1 2/2/2 3/3/3
f 4/4/4 5/5/5 6/6/6
f 7/7/7 8/8/8 9/9/9
f 10/10/10 11/11/11 12/12/12
f 13/13/13 14/14/14 15/15/15
f 16/16/16 17/17/17 18/18/18
f 19/19/19 20/20/20 21/21/21
f 22/22/22 23/23/23 24/24/24
