v -0.981267 0.198427 -0.171025
v -0.983063 0.198845 -0.176102
v -0.987828 0.199409 -0.176102
v -0.983581 0.200424 -0.212862
v -0.983859 0.200592 -0.215927
v -0.985555 0.200637 -0.212996
v -0.976821 0.199739 -0.212071
v -0.975063 0.199456 -0.20958
v -0.975267 0.199631 -0.212958
v -0.976821 0.199739 -0.212071
v -0.97821 0.199742 -0.209232
v -0.975063 0.199456 -0.20958
v -0.985555 0.200637 -0.212996
v -0.983859 0.200592 -0.215927
v -0.986647 0.200875 -0.215681
v -0.972875 0.199359 -0.211394
v -0.974359 0.199663 -0.215564
v -0.975267 0.199631 -0.212958
v -0.983581 0.200424 -0.212862
v -0.980941 0.200237 -0.214298
v -0.983859 0.200592 -0.215927
v -0.981267 0.198427 -0.171025
v -0.977752 0.198011 -0.171025
v -0.983063 0.198845 -0.176102
v -0.985555 0.200637 -0.212996
v -0.988981 0.201085 -0.214049
v -0.987052 0.200771 -0.211933
v -0.972875 0.199359 -0.211394
v -0.971888 0.199521 -0.215623
v -0.974359 0.199663 -0.215564
v -0.983581 0.200424 -0.212862
v -0.981125 0.200096 -0.210861
v -0.97872 0.199939 -0.212455
v -0.985555 0.200637 -0.212996
v -0.986647 0.200875 -0.215681
v -0.988981 0.201085 -0.214049
v -0.97872 0.199939 -0.212455
v -0.981125 0.200096 -0.210861
v -0.97821 0.199742 -0.209232
v -0.99017 0.201068 -0.209535
v -0.987703 0.200751 -0.209538
v -0.987052 0.200771 -0.211933
v -0.988981 0.201085 -0.214049
v -0.99017 0.201068 -0.209535
v -0.987052 0.200771 -0.211933
v -0.976821 0.199739 -0.212071
v -0.97872 0.199939 -0.212455
v -0.97821 0.199742 -0.209232
v -0.975267 0.199631 -0.212958
v -0.975063 0.199456 -0.20958
v -0.972875 0.199359 -0.211394
v -0.97872 0.199939 -0.212455
v -0.980941 0.200237 -0.214298
v -0.983581 0.200424 -0.212862
v -0.987828 0.199409 -0.176102
v -0.987828 0.199409 -0.176102
v -0.987828 0.199409 -0.176102
v -0.987828 0.199409 -0.176102
vn 0.1173 0.9923 0.0403
vn 0.1173 0.9923 0.0403
vn 0.1173 0.9923 0.0403
vn 0.1041 0.9935 0.0449
vn 0.1041 0.9935 0.0449
vn 0.1041 0.9935 0.0449
vn 0.0955 0.9944 0.0458
vn 0.0955 0.9944 0.0458
vn 0.0955 0.9944 0.0458
vn 0.0955 0.9944 0.0458
vn 0.0955 0.9944 0.0458
vn 0.0955 0.9944 0.0458
vn 0.1049 0.9934 0.0454
vn 0.1049 0.9934 0.0454
vn 0.1049 0.9934 0.0454
vn 0.0852 0.9955 0.0422
vn 0.0852 0.9955 0.0422
vn 0.0852 0.9955 0.0422
vn 0.0954 0.9944 0.0458
vn 0.0954 0.9944 0.0458
vn 0.0954 0.9944 0.0458
vn 0.1173 0.9923 0.0403
vn 0.1173 0.9923 0.0403
vn 0.1173 0.9923 0.0403
vn 0.1173 0.9923 0.0403
vn 0.1173 0.9923 0.0403
vn 0.1173 0.9923 0.0403
vn 0.0587 0.9969 0.0518
vn 0.0587 0.9969 0.0518
vn 0.0587 0.9969 0.0518
vn 0.0954 0.9944 0.0458
vn 0.0954 0.9944 0.0458
vn 0.0954 0.9944 0.0458
vn 0.1173 0.9923 0.0403
vn 0.1173 0.9923 0.0403
vn 0.1173 0.9923 0.0403
vn 0.0954 0.9944 0.0458
vn 0.0954 0.9944 0.0458
vn 0.0954 0.9944 0.0458
vn 0.1275 0.9909 0.043
vn 0.1275 0.9909 0.043
vn 0.1275 0.9909 0.043
vn 0.1221 0.9919 0.0358
vn 0.1221 0.9919 0.0358
vn 0.1221 0.9919 0.0358
vn 0.0954 0.9944 0.0458
vn 0.0954 0.9944 0.0458
vn 0.0954 0.9944 0.0458
vn 0.0824 0.9955 0.0466
vn 0.0824 0.9955 0.0466
vn 0.0824 0.9955 0.0466
vn 0.0954 0.9944 0.0458
vn 0.0954 0.9944 0.0458
vn 0.0954 0.9944 0.0458
vn 0 0 0
vn 0 0 0
vn 0 0 0
vn 0 0 0
vt 0.023019 0.492574
vt 0.022142 0.490095
vt 0.019815 0.490095
vt 0.021889 0.472143
vt 0.021753 0.470646
vt 0.020925 0.472077
vt 0.02519 0.472529
vt 0.026048 0.473746
vt 0.025949 0.472096
vt 0.02519 0.472529
vt 0.024512 0.473915
vt 0.026048 0.473746
vt 0.020925 0.472077
vt 0.021753 0.470646
vt 0.020392 0.470767
vt 0.027117 0.47286
vt 0.026392 0.470823
vt 0.025949 0.472096
vt 0.021889 0.472143
vt 0.023178 0.471442
vt 0.021753 0.470646
vt 0.023019 0.492574
vt 0.024736 0.492574
vt 0.022142 0.490095
vt 0.020925 0.472077
vt 0.019252 0.471563
vt 0.020194 0.472597
vt 0.027117 0.47286
vt 0.027599 0.470794
vt 0.026392 0.470823
vt 0.021889 0.472143
vt 0.023089 0.47312
vt 0.024263 0.472342
vt 0.020925 0.472077
vt 0.020392 0.470767
vt 0.019252 0.471563
vt 0.024263 0.472342
vt 0.023089 0.47312
vt 0.024512 0.473915
vt 0.018671 0.473768
vt 0.019876 0.473766
vt 0.020194 0.472597
vt 0.019252 0.471563
vt 0.018671 0.473768
vt 0.020194 0.472597
vt 0.02519 0.472529
vt 0.024263 0.472342
vt 0.024512 0.473915
vt 0.025949 0.472096
vt 0.026048 0.473746
vt 0.027117 0.47286
vt 0.024263 0.472342
vt 0.023178 0.471442
vt 0.021889 0.472143
vt 0 1
vt 0 1
vt 0 1
vt 0 1
s off
f 1/1/1 2/2/2 3/3/3
f 4/4/4 5/5/5 6/6/6
f 7/7/7 8/8/8 9/9/9
f 10/10/10 11/11/11 12/12/12
f 13/13/13 14/14/14 15/15/15
f 16/16/16 17/17/17 18/18/18
f 19/19/19 20/20/20 21/21/21
f 22/22/22 23/23/23 24/24/24
f 25/25/25 26/26/26 27/27/27
f 28/28/28 29/29/29 30/30/30
f 31/31/31 32/32/32 33/33/33
f 34/34/34 35/35/35 36/36/36
f 37/37/37 38/38/38 39/39/39
f 40/40/40 41/41/41 42/42/42
f 43/43/43 44/44/44 45/45/45
f 46/46/46 47/47/47 48/48/48
f 49/49/49 50/50/50 51/51/51
f 52/52/52 53/53/53 54/54/54
f 55/55/55 56/56/56 57/57/57
