# Blender 4.5.0
# www.blender.org
mtllib button_3.mtl
o button_3
v -0.400242 0.380976 -0.282439
v -0.397636 0.361191 -0.263671
v -0.401223 0.396534 -0.285959
v -0.401765 0.401513 -0.273295
v -0.400941 0.391852 -0.289158
v -0.398846 0.345409 -0.243566
v -0.398652 0.343909 -0.236219
v -0.398029 0.453886 -0.007642
v -0.400878 0.444438 -0.059353
v -0.402864 0.431835 -0.130387
v -0.401565 0.371927 -0.011703
v -0.402980 0.417431 -0.201765
v -0.402497 0.351535 -0.180976
v -0.401448 0.376003 -0.231564
v -0.403779 0.358117 -0.121488
v -0.398323 0.453039 -0.004428
v -0.403563 0.367343 -0.066166
v -0.356749 0.406084 -0.279868
v -0.356498 0.399513 -0.293576
v -0.356325 0.393734 -0.297747
v -0.356079 0.386310 -0.297364
v -0.355574 0.373304 -0.289540
v -0.354716 0.352847 -0.272573
v -0.353345 0.325373 -0.246306
v -0.353470 0.322694 -0.242788
v -0.353650 0.322010 -0.238485
v -0.356727 0.328538 -0.181643
v -0.357772 0.334672 -0.132690
v -0.357526 0.339519 -0.094794
v -0.356264 0.345297 -0.051676
v -0.353478 0.353565 0.002146
v -0.353353 0.357500 0.003451
v -0.349103 0.459653 0.013414
v -0.348933 0.463806 0.012822
v -0.352804 0.453518 -0.053542
v -0.355987 0.439144 -0.128706
v -0.357116 0.424357 -0.200567
vn -0.1572 0.9757 -0.1524
vn -0.1516 0.9745 -0.1654
vn -0.1509 0.9716 -0.1825
vn -0.2155 -0.4282 -0.8776
vn -0.1864 -0.0568 -0.9808
vn -0.2154 -0.4277 -0.8779
vn -0.3899 -0.7146 -0.5809
vn -0.3123 -0.6990 -0.6433
vn -0.3588 -0.7364 -0.5735
vn -0.9986 -0.0483 -0.0224
vn -0.9970 -0.0715 -0.0297
vn -0.9987 -0.0427 -0.0280
vn -0.9986 0.0366 0.0371
vn -0.9989 0.0344 0.0304
vn -0.9994 0.0226 0.0253
vn -0.4425 -0.8940 0.0705
vn -0.4390 -0.8939 0.0905
vn -0.4330 -0.8947 0.1098
vn -0.2950 -0.6765 -0.6748
vn -0.2597 -0.6619 -0.7031
vn -1.0000 -0.0025 -0.0044
vn -0.9993 0.0137 0.0355
vn -0.9962 -0.0773 -0.0403
vn -0.9624 -0.2701 -0.0297
vn -0.9997 -0.0160 -0.0176
vn -0.1891 0.9678 -0.1664
vn -0.9940 -0.0961 -0.0522
vn -0.4115 -0.9015 0.1342
vn -0.4159 -0.8994 0.1342
vn -0.3919 -0.9061 0.1595
vn -0.1461 0.9813 -0.1253
vn -0.2806 0.9342 0.2204
vn -0.4388 -0.8833 -0.1650
vn -0.4388 -0.8833 -0.1652
vn -0.1560 0.8250 -0.5432
vn -0.1362 0.9589 -0.2490
vn -0.1560 0.8248 -0.5435
vn -0.4300 -0.8962 0.1095
vn -0.4315 -0.8934 0.1253
vn -0.9999 -0.0073 -0.0131
vn -0.9995 -0.0250 -0.0204
vn -0.3263 -0.0801 0.9419
vn -0.3224 -0.0872 0.9426
vn -0.3262 -0.0700 0.9427
vn -0.4358 -0.8992 0.0374
vn -0.9999 0.0129 0.0025
vn -0.3545 0.1463 0.9236
vn -0.3330 -0.0603 0.9410
vn -0.9500 0.3122 -0.0047
vn -0.1436 0.9711 -0.1907
vn -0.4936 -0.8655 0.0851
vn -0.3636 -0.2829 0.8876
vn -0.1390 0.9681 -0.2086
vn -0.2398 -0.6092 -0.7559
vn -0.2589 -0.6097 -0.7492
vn -0.1772 0.5617 -0.8082
vn -0.1389 0.9680 -0.2088
vt 0.513383 0.560414
vt 0.526080 0.572184
vt 0.513151 0.593266
vt 0.323129 0.022407
vt 0.310235 0.022838
vt 0.310235 0.021290
vt 0.323094 0.002364
vt 0.310235 0.003096
vt 0.310235 0.001953
vt 0.052561 0.095763
vt 0.053745 0.094809
vt 0.061245 0.108545
vt 0.050489 0.172932
vt 0.050879 0.159159
vt 0.070105 0.151808
vt 0.511968 0.003783
vt 0.525294 0.018656
vt 0.511713 0.036025
vt 0.322686 0.010065
vt 0.310235 0.011890
vt 0.069778 0.136381
vt 0.071476 0.167251
vt 0.067947 0.104766
vt 0.068780 0.108275
vt 0.068821 0.119733
vt 0.513085 0.572614
vt 0.057590 0.096461
vt 0.511515 0.065919
vt 0.525294 0.053324
vt 0.525294 0.065953
vt 0.526340 0.553917
vt 0.513265 0.559594
vt 0.525294 0.001953
vt 0.511577 0.002165
vt 0.514457 0.637021
vt 0.526403 0.634692
vt 0.526392 0.638790
vt 0.525294 0.031969
vt 0.525294 0.042214
vt 0.050854 0.120571
vt 0.051875 0.099465
vt 0.201428 0.028303
vt 0.187654 0.031451
vt 0.187617 0.003727
vt 0.525294 0.003122
vt 0.050685 0.138725
vt 0.187655 0.002839
vt 0.201464 0.006760
vt 0.050161 0.172403
vt 0.525817 0.592874
vt 0.511443 0.018611
vt 0.187719 0.032459
vt 0.525965 0.612694
vt 0.310235 0.017922
vt 0.322746 0.017853
vt 0.514358 0.638251
vt 0.526258 0.640709
vt 0.514344 0.633431
vt 0.513676 0.615114
s 1
usemtl mouse_tex
f 8/1/1 35/2/2 10/3/3
f 5/4/4 20/5/5 21/6/6
f 6/7/7 24/8/8 25/9/9
f 3/10/10 5/11/11 14/12/12
f 16/13/13 9/14/14 17/15/15
f 7/16/16 27/17/17 15/18/18
f 2/19/19 23/20/20 24/8/8
f 17/15/15 15/21/21 11/22/22
f 6/23/23 7/24/24 13/25/25
f 10/3/3 9/26/26 8/1/1
f 5/11/11 1/27/27 6/23/23
f 11/28/28 30/29/29 31/30/30
f 35/2/2 8/1/1 34/31/31
f 16/32/32 34/31/31 8/1/1
f 25/33/33 7/16/16 6/34/34
f 3/35/35 18/36/36 19/37/37
f 15/18/18 28/38/38 29/39/39
f 12/40/40 14/12/12 13/25/25
f 4/41/41 3/10/10 14/12/12
f 11/28/28 15/18/18 30/29/29
f 11/42/42 32/43/43 33/44/44
f 6/23/23 13/25/25 14/12/12
f 7/16/16 26/45/45 27/17/17
f 15/21/21 17/15/15 10/46/46
f 17/15/15 9/14/14 10/46/46
f 15/18/18 27/17/17 28/38/38
f 33/44/44 34/47/47 16/48/48
f 16/13/13 8/49/49 9/14/14
f 10/3/3 35/2/2 36/50/50
f 10/46/46 13/25/25 15/21/21
f 13/51/51 7/16/16 15/18/18
f 11/42/42 31/52/52 32/43/43
f 37/53/53 10/3/3 36/50/50
f 22/54/54 2/19/19 1/55/55
f 15/18/18 29/39/39 30/29/29
f 5/56/56 19/37/37 20/57/56
f 6/7/7 2/19/19 24/8/8
f 14/12/12 5/11/11 6/23/23
f 6/7/7 1/55/55 2/19/19
f 37/53/53 4/58/36 12/59/57
f 16/48/48 11/42/42 33/44/44
f 11/22/22 16/13/13 17/15/15
f 1/55/55 21/6/6 22/54/54
f 25/33/33 26/45/45 7/16/16
f 3/35/35 4/58/36 18/36/36
f 12/40/40 4/41/41 14/12/12
f 10/46/46 12/40/40 13/25/25
f 37/53/53 12/59/57 10/3/3
f 22/54/54 23/20/20 2/19/19
f 5/56/56 3/35/35 19/37/37
f 37/53/53 18/36/36 4/58/36
f 1/55/55 5/4/4 21/6/6
