# Blender 4.5.0
# www.blender.org
mtllib button_6.mtl
o button_6
v -0.402087 0.245993 -0.411861
v -0.395973 0.173310 -0.359955
v -0.399698 0.172067 -0.217232
v -0.401191 0.183117 -0.201405
v -0.409922 0.264894 -0.201072
v -0.410715 0.277916 -0.205599
v -0.411798 0.289122 -0.226095
v -0.405234 0.273834 -0.404430
v -0.404157 0.267115 -0.410693
v -0.408827 0.264994 -0.198761
v -0.401089 0.190651 -0.198252
v -0.410458 0.284139 -0.211305
v -0.410741 0.289017 -0.219531
v -0.410806 0.291703 -0.230120
v -0.398583 0.169925 -0.217807
v -0.394921 0.169645 -0.351473
v -0.399063 0.174396 -0.208217
v -0.395400 0.179406 -0.368599
v -0.394745 0.172415 -0.360465
v -0.404764 0.277682 -0.397588
v -0.402562 0.260123 -0.413830
v -0.401755 0.252187 -0.414103
v -0.376019 0.263303 -0.198274
v -0.375353 0.263680 -0.208096
v -0.375422 0.274513 -0.214452
v -0.376026 0.287231 -0.215083
v -0.375430 0.282132 -0.229625
v -0.376097 0.291791 -0.229611
v -0.375959 0.169370 -0.220843
v -0.375436 0.179186 -0.218990
v -0.375388 0.190700 -0.208044
v -0.376046 0.188968 -0.198523
v -0.375724 0.179136 -0.356725
v -0.376018 0.169577 -0.352762
v -0.376110 0.277113 -0.399494
v -0.375965 0.270271 -0.408437
v -0.375720 0.254149 -0.406237
v -0.376077 0.248255 -0.413268
v -0.334013 0.260876 -0.208110
v -0.334014 0.270914 -0.211894
v -0.334014 0.281193 -0.225136
v -0.334014 0.179331 -0.221060
v -0.375072 0.182069 -0.213989
v -0.334014 0.183631 -0.212506
v -0.334014 0.192129 -0.208186
v -0.375058 0.183029 -0.359073
v -0.334014 0.184451 -0.360061
v -0.334014 0.179621 -0.352342
v -0.375065 0.179167 -0.350795
v -0.375406 0.268167 -0.395262
v -0.334014 0.267737 -0.395610
v -0.334014 0.262104 -0.402234
v -0.375064 0.257902 -0.403945
v -0.334014 0.252632 -0.404077
v -0.375054 0.251293 -0.403803
v -0.376144 0.175357 -0.365404
v -0.376218 0.277039 -0.203795
v -0.375963 0.171927 -0.211991
v -0.376498 0.179363 -0.202935
v -0.376135 0.261452 -0.413367
v -0.375059 0.280145 -0.222987
v -0.375325 0.263793 -0.401427
vn -0.0016 0.5385 -0.8426
vn 0.0048 0.6703 -0.7420
vn 0.0070 0.4549 -0.8905
vn -0.9932 -0.1124 -0.0295
vn -0.9303 -0.2678 -0.2505
vn -0.6427 -0.6732 -0.3657
vn -0.9946 0.0293 0.0999
vn -0.9947 -0.1013 0.0167
vn -0.9335 -0.0850 0.3483
vn 0.9950 0.0406 -0.0910
vn 0.9981 0.0332 -0.0514
vn 0.9974 0.0716 -0.0076
vn -0.9953 -0.0934 -0.0270
vn 0.9976 -0.0107 0.0678
vn 0.9971 -0.0523 0.0558
vn 0.9972 -0.0753 0.0028
vn 0.9969 -0.0699 -0.0364
vn 0.9991 -0.0423 -0.0023
vn 0.9991 -0.0246 -0.0346
vn 0.9948 -0.0485 -0.0899
vn -0.9215 -0.3873 -0.0297
vn 0.0060 -0.4952 -0.8687
vn 0.0103 0.1049 -0.9944
vn 0.0214 0.1910 -0.9814
vn 0.0205 0.9995 -0.0258
vn 0.0123 0.7244 0.6893
vn 0.0169 0.6003 0.7996
vn 0.0072 -0.9994 -0.0325
vn 0.0055 -0.5856 -0.8106
vn 0.0061 -0.5643 -0.8256
vn 0.0030 -0.0294 0.9996
vn 0.0023 -0.0649 0.9979
vn 0.0047 -0.5139 0.8578
vn -0.0082 -0.5674 0.8234
vn 0.0025 0.0626 0.9980
vn 0.0035 0.0252 0.9997
vn 0.9012 0.0998 -0.4218
vn -0.0097 -0.8865 -0.4625
vn -0.0132 -0.9995 -0.0275
vn -0.0153 -0.9998 -0.0096
vn -0.0059 0.0812 0.9967
vn -0.0098 0.5647 0.8253
vn -0.0299 0.5460 0.8372
vn -0.0461 -0.6218 0.7818
vn -0.0239 -0.4863 0.8735
vn -0.0239 -0.4863 0.8734
vn -0.9667 0.2503 -0.0526
vn -0.9565 0.2496 0.1510
vn -0.0085 0.7641 0.6450
vn -0.0000 0.8947 0.4467
vn -0.0030 0.9398 0.3417
vn 0.9975 -0.0091 0.0703
vn 0.9812 -0.1167 0.1537
vn 0.9973 0.0727 -0.0028
vn 0.9979 0.0553 0.0331
vn 0.9966 0.0582 0.0582
vn -0.0124 -0.9995 0.0275
vn 0.0025 -0.8847 0.4661
vn -0.0022 -0.8429 0.5381
vn 0.5146 -0.4568 -0.7256
vn 0.0099 -0.5855 -0.8106
vn -0.0044 0.7848 -0.6197
vn 0.0055 0.9940 -0.1091
vn 0.2765 -0.9607 -0.0256
vn 0.5476 -0.4784 -0.6865
vn -0.9810 -0.0877 -0.1733
vn -0.9901 -0.1226 -0.0686
vn -0.9951 -0.0945 -0.0284
vn 0.9991 -0.0220 -0.0360
vn 0.9986 0.0063 -0.0516
vn -0.9934 -0.1114 -0.0264
vn -0.9346 -0.0982 0.3419
vn -0.0044 -0.0390 0.9992
vn 0.9991 -0.0427 -0.0007
vn 0.9974 0.0718 -0.0069
vn 0.0100 -0.5378 -0.8430
vn 0.0145 -0.0742 -0.9971
vn 0.0122 -0.4790 -0.8777
vn 0.0053 0.9956 -0.0936
vn -0.9096 -0.3823 0.1629
vn -0.9937 -0.1107 0.0158
vn -0.9680 0.2447 -0.0560
vn -0.9706 0.1873 0.1510
vn -0.0027 0.0400 0.9992
vn 0.0041 0.9984 -0.0563
vn 0.0080 0.6938 -0.7201
vn -0.0019 0.3929 -0.9196
vn 0.0080 0.6937 -0.7202
vn 0.0007 0.8937 0.4487
vn 0.0050 -0.5274 -0.8496
vn 0.0199 0.9971 -0.0736
vn 0.0081 -0.9996 0.0254
vn 0.0216 -0.8836 0.4677
vn 0.0077 -0.9999 0.0103
vn 0.0177 -0.8933 0.4490
vn 0.0068 -0.9999 -0.0156
vn 0.0202 0.9940 -0.1071
vn 0.0175 0.9941 -0.1070
vn 0.9977 0.0063 0.0680
vn 0.9968 0.0455 0.0659
vn 0.9974 0.0720 -0.0051
vn 0.0082 -0.5589 -0.8292
vn -0.0140 -0.9998 0.0106
vn -0.9244 -0.3814 -0.0083
vn -0.0045 0.4085 -0.9127
vn 0.0254 0.0093 -0.9996
vn 0.0213 -0.7721 0.6352
vn -0.9783 -0.1407 0.1522
vn -0.9563 0.2611 0.1316
vn -0.9422 -0.0772 -0.3260
vn 0.0055 0.9984 -0.0563
vt 0.725597 0.811675
vt 0.718331 0.812735
vt 0.718437 0.810470
vt 0.336153 0.144958
vt 0.335099 0.142412
vt 0.336536 0.144028
vt 0.308517 0.186196
vt 0.311970 0.187398
vt 0.311971 0.187939
vt 0.097866 0.446345
vt 0.095942 0.447961
vt 0.096480 0.444529
vt 0.305621 0.180783
vt 0.117472 0.394216
vt 0.122351 0.395247
vt 0.120508 0.397152
vt 0.120164 0.433999
vt 0.123002 0.433109
vt 0.121369 0.436392
vt 0.100264 0.447167
vt 0.337577 0.146637
vt 0.627845 0.004334
vt 0.616746 0.002548
vt 0.627900 0.002644
vt 0.598863 0.051324
vt 0.609813 0.054763
vt 0.598863 0.055874
vt 0.627423 0.028485
vt 0.616307 0.026450
vt 0.627433 0.026049
vt 0.598863 0.077311
vt 0.609929 0.077668
vt 0.598863 0.079501
vt 0.609933 0.079557
vt 0.609925 0.058062
vt 0.598863 0.058780
vt 0.099242 0.446962
vt 0.566137 0.923746
vt 0.561414 0.921509
vt 0.566346 0.921276
vt 0.726825 0.873707
vt 0.718288 0.870216
vt 0.727103 0.870008
vt 0.724481 0.898043
vt 0.718464 0.897147
vt 0.724671 0.896309
vt 0.304833 0.179732
vt 0.305518 0.182563
vt 0.727240 0.867411
vt 0.718124 0.866219
vt 0.727316 0.864814
vt 0.117949 0.391784
vt 0.120827 0.393189
vt 0.092811 0.399951
vt 0.091673 0.396073
vt 0.094877 0.395900
vt 0.567980 0.884995
vt 0.562104 0.883288
vt 0.568038 0.882203
vt 0.101075 0.446846
vt 0.561399 0.925342
vt 0.725775 0.813869
vt 0.718318 0.815884
vt 0.120509 0.432656
vt 0.119420 0.434789
vt 0.311495 0.131176
vt 0.317000 0.130758
vt 0.309652 0.132833
vt 0.101797 0.449268
vt 0.099044 0.449536
vt 0.336932 0.183088
vt 0.332029 0.188116
vt 0.718316 0.894428
vt 0.123085 0.397567
vt 0.094278 0.445561
vt 0.567967 0.947979
vt 0.568120 0.949891
vt 0.561332 0.948721
vt 0.725924 0.816382
vt 0.336035 0.185867
vt 0.333901 0.187022
vt 0.308644 0.134623
vt 0.306823 0.184746
vt 0.718153 0.874066
vt 0.724893 0.893773
vt 0.718211 0.861825
vt 0.598863 0.002879
vt 0.609922 0.001953
vt 0.609903 0.003428
vt 0.609828 0.051995
vt 0.616675 0.004376
vt 0.609955 0.049881
vt 0.627832 0.063587
vt 0.616846 0.065770
vt 0.616757 0.063810
vt 0.627881 0.065460
vt 0.616308 0.028872
vt 0.598863 0.005248
vt 0.609941 0.005476
vt 0.097822 0.394305
vt 0.094335 0.393151
vt 0.097806 0.391711
vt 0.090402 0.399188
vt 0.566504 0.926609
vt 0.562044 0.885912
vt 0.337427 0.183174
vt 0.725468 0.809968
vt 0.561430 0.952041
vt 0.568346 0.952038
vt 0.562178 0.881090
vt 0.119583 0.395674
vt 0.093622 0.397689
vt 0.313275 0.130280
vt 0.727314 0.861822
vt 0.315384 0.130202
s 1
usemtl mouse_tex
f 9/1/1 36/2/2 60/3/3
f 2/4/4 18/5/5 19/6/6
f 6/7/7 5/8/8 10/9/9
f 62/10/10 36/11/11 50/12/12
f 5/8/8 6/7/7 7/13/13
f 31/14/14 58/15/15 30/16/16
f 33/17/17 34/18/18 56/19/19
f 37/20/20 36/11/11 62/10/10
f 2/4/4 19/6/6 16/21/21
f 54/22/22 53/23/23 52/24/24
f 41/25/25 25/26/26 40/27/27
f 48/28/28 46/29/29 47/30/30
f 45/31/31 31/32/32 44/33/33
f 44/33/33 31/32/32 43/34/34
f 40/27/27 24/35/35 39/36/36
f 53/37/37 37/20/20 62/10/10
f 19/38/38 34/39/39 16/40/40
f 10/41/41 57/42/42 6/43/43
f 17/44/44 59/45/45 4/46/46
f 14/47/47 7/13/13 13/48/48
f 12/49/49 26/50/50 13/51/51
f 6/43/43 57/42/42 12/49/49
f 32/52/52 59/53/53 58/15/15
f 27/54/54 26/55/55 25/56/56
f 15/57/57 58/58/58 17/59/59
f 55/60/60 37/20/20 53/37/37
f 19/38/38 56/61/61 34/39/39
f 8/62/62 35/63/63 36/2/2
f 49/64/64 30/16/16 33/17/17
f 49/64/64 33/17/17 46/65/65
f 9/66/66 1/67/67 8/68/68
f 37/20/20 38/69/69 60/70/70
f 2/4/4 7/13/13 8/68/68
f 3/71/71 5/8/8 7/13/13
f 5/8/8 11/72/72 10/9/9
f 1/67/67 18/5/5 2/4/4
f 32/73/73 4/46/46 59/45/45
f 30/16/16 58/15/15 29/74/74
f 31/14/14 32/52/52 58/15/15
f 50/12/12 36/11/11 35/75/75
f 1/76/76 22/77/77 38/78/78
f 8/62/62 20/79/79 35/63/63
f 3/71/71 17/80/80 4/81/81
f 9/1/1 8/62/62 36/2/2
f 20/82/82 7/13/13 14/47/47
f 12/83/83 7/13/13 6/7/7
f 10/41/41 23/84/84 57/42/42
f 46/65/65 37/20/20 55/60/60
f 37/20/20 60/70/70 36/11/11
f 37/20/20 56/19/19 38/69/69
f 23/84/84 11/85/73 32/73/73
f 28/86/85 13/51/51 26/50/50
f 31/32/32 39/36/36 24/35/35
f 52/87/86 53/88/87 62/89/88
f 41/25/25 61/90/89 25/26/26
f 55/91/90 47/30/30 46/29/29
f 41/25/25 27/92/91 61/90/89
f 42/93/92 43/94/93 30/95/94
f 54/22/22 55/91/90 53/23/23
f 42/93/92 44/96/95 43/94/93
f 40/27/27 25/26/26 24/35/35
f 48/28/28 49/97/96 46/29/29
f 62/89/88 51/98/97 52/87/86
f 27/92/91 51/98/97 50/99/98
f 24/100/99 57/101/100 23/102/99
f 20/79/79 28/86/85 35/63/63
f 27/54/54 28/103/101 26/55/55
f 12/49/49 57/42/42 26/50/50
f 18/104/102 38/78/78 56/61/61
f 29/105/103 16/40/40 34/39/39
f 3/71/71 16/21/21 15/106/104
f 21/107/105 9/1/1 60/3/3
f 60/108/106 22/77/77 21/109/106
f 15/57/57 29/105/103 58/58/58
f 17/59/59 58/58/58 59/110/107
f 19/38/38 18/104/102 56/61/61
f 31/14/14 30/16/16 43/111/108
f 25/56/56 26/55/55 57/101/100
f 23/102/99 31/14/14 24/100/99
f 27/54/54 25/56/56 61/112/109
f 34/18/18 30/16/16 29/74/74
f 28/103/101 50/12/12 35/75/75
f 8/68/68 1/67/67 2/4/4
f 49/97/96 42/93/92 30/95/94
f 21/113/110 1/67/67 9/66/66
f 2/4/4 3/71/71 7/13/13
f 3/71/71 4/81/81 5/8/8
f 5/8/8 4/81/81 11/72/72
f 32/73/73 11/85/73 4/46/46
f 3/71/71 15/106/104 17/80/80
f 20/82/82 8/68/68 7/13/13
f 12/83/83 13/48/48 7/13/13
f 46/65/65 33/17/17 37/20/20
f 37/20/20 33/17/17 56/19/19
f 23/84/84 10/41/41 11/85/73
f 28/86/85 14/114/111 13/51/51
f 31/32/32 45/31/31 39/36/36
f 55/91/90 54/22/22 47/30/30
f 62/89/88 50/99/98 51/98/97
f 27/92/91 41/25/25 51/98/97
f 24/100/99 25/56/56 57/101/100
f 20/79/79 14/114/111 28/86/85
f 18/104/102 1/76/76 38/78/78
f 29/105/103 15/57/57 16/40/40
f 3/71/71 2/4/4 16/21/21
f 60/108/106 38/78/78 22/77/77
f 23/102/99 32/52/52 31/14/14
f 34/18/18 33/17/17 30/16/16
f 28/103/101 27/54/54 50/12/12
f 49/97/96 48/28/28 42/93/92
f 21/113/110 22/115/110 1/67/67
