# Blender 4.5.0
# www.blender.org
mtllib dpi_-.mtl
o dpi_-
v 0.108017 0.500005 -0.101282
v 0.107535 0.587411 -0.101395
v 0.020643 0.500006 -0.101326
v 0.021190 0.588096 -0.101215
v 0.020971 0.599791 -0.091479
v 0.107504 0.599895 -0.091744
v 0.035429 0.617137 -0.006382
v 0.033321 0.500007 -0.005824
v 0.029266 0.618795 -0.007917
v 0.024137 0.500006 -0.010063
v 0.024338 0.617575 -0.010349
v 0.020544 0.500005 -0.016289
v 0.021039 0.616843 -0.016201
v 0.107472 0.500002 -0.043123
v 0.105067 0.610809 -0.040837
v 0.036135 0.618620 -0.007573
v 0.105358 0.611223 -0.043396
v 0.107723 0.609951 -0.044732
vn -0.9995 0.0062 -0.0299
vn -1.0000 0.0039 -0.0022
vn -1.0000 0.0039 -0.0020
vn -0.3736 0.0074 0.9276
vn 0.4233 -0.0021 0.9060
vn 0.3944 0.4538 0.7990
vn 0.7612 -0.0038 0.6485
vn 0.9996 0.0014 0.0289
vn 0.4589 -0.0027 0.8885
vn -0.0031 0.9753 -0.2209
vn -0.2492 0.9683 0.0194
vn -0.0043 0.9752 -0.2215
vn 0.0138 0.9785 -0.2060
vn 0.0968 0.9951 -0.0184
vn 0.2095 0.9612 0.1793
vn 0.3577 -0.0022 0.9338
vn -0.0006 0.9413 -0.3377
vn -0.0016 0.1717 -0.9851
vn 0.0029 0.0514 -0.9987
vn -0.0008 -0.0000 -1.0000
vn 0.0005 -0.0013 -1.0000
vn -0.6649 0.0026 0.7470
vn -0.6649 0.0027 0.7469
vn -0.0028 0.9518 -0.3066
vn -0.9991 0.0038 0.0431
vn 0.3876 0.9050 -0.1754
vn 1.0000 0.0055 -0.0039
vn 1.0000 0.0015 0.0024
vn 1.0000 0.0014 0.0026
vt 0.241523 0.551464
vt 0.217916 0.551857
vt 0.244587 0.548887
vt 0.249527 0.525205
vt 0.249150 0.523585
vt 0.249581 0.523336
vt 0.217915 0.501442
vt 0.247380 0.501331
vt 0.247588 0.502628
vt 0.316093 0.197231
vt 0.316761 0.195681
vt 0.318196 0.194838
vt 0.338776 0.204629
vt 0.320033 0.194688
vt 0.338793 0.203925
vt 0.217757 0.524130
vt 0.339233 0.217906
vt 0.316434 0.221967
vt 0.339249 0.222023
vt 0.316044 0.245685
vt 0.339655 0.245612
vt 0.249253 0.526947
vt 0.217757 0.526849
vt 0.316383 0.217871
vt 0.217759 0.528795
vt 0.249015 0.528802
vt 0.339457 0.204965
vt 0.241686 0.486152
vt 0.244747 0.488730
vt 0.218108 0.485728
s 1
usemtl mouse_tex
f 4/1/1 3/2/2 5/3/3
f 9/4/4 7/5/5 16/6/6
f 14/7/7 18/8/8 15/9/9
f 13/10/10 11/11/11 9/12/12
f 17/13/13 16/14/14 15/15/15
f 9/4/4 8/16/16 7/5/5
f 17/13/13 6/17/17 9/12/12
f 4/18/18 6/17/17 2/19/19
f 3/20/20 2/19/19 1/21/21
f 8/16/16 11/22/22 10/23/23
f 4/18/18 5/24/24 6/17/17
f 9/12/12 16/14/14 17/13/13
f 5/3/3 12/25/25 13/26/25
f 6/17/17 17/13/13 18/27/26
f 15/9/9 8/16/16 14/7/7
f 2/28/27 6/29/28 1/30/29
f 10/23/23 13/26/25 12/25/25
f 15/9/9 16/6/6 7/5/5
f 14/7/7 6/29/28 18/8/8
f 9/12/12 5/24/24 13/10/10
f 15/15/15 18/27/26 17/13/13
f 4/18/18 2/19/19 3/20/20
f 8/16/16 9/4/4 11/22/22
f 5/3/3 3/2/2 12/25/25
f 15/9/9 7/5/5 8/16/16
f 10/23/23 11/22/22 13/26/25
f 14/7/7 1/30/29 6/29/28
f 9/12/12 6/17/17 5/24/24
