# Blender 4.5.0
# www.blender.org
mtllib dpi_+.mtl
o dpi_+
v 0.066218 0.590969 -0.158572
v 0.021915 0.579637 -0.181904
v 0.064421 0.573960 -0.194437
v 0.020987 0.590339 -0.156109
v 0.021907 0.598446 -0.129969
v 0.106868 0.578968 -0.183255
v 0.025726 0.558024 -0.219321
v 0.024726 0.559495 -0.218349
v 0.107990 0.596089 -0.128754
v 0.106735 0.598470 -0.129747
v 0.083258 0.598108 -0.126343
v 0.020497 0.484733 -0.128671
v 0.108137 0.484733 -0.128658
v 0.020279 0.559833 -0.212681
v 0.108038 0.484733 -0.215942
v 0.107816 0.589711 -0.157783
v 0.107685 0.559559 -0.215789
v 0.102432 0.484733 -0.219633
v 0.102949 0.558273 -0.219306
v 0.026166 0.484733 -0.219630
v 0.020629 0.484733 -0.215951
v 0.020687 0.596079 -0.128616
v 0.064477 0.484733 -0.216784
v 0.064470 0.484733 -0.124862
v 0.050811 0.598396 -0.126112
v 0.069239 0.599330 -0.128303
v 0.104485 0.560282 -0.217128
v 0.062784 0.560322 -0.216641
v 0.021477 0.559645 -0.216272
v 0.084244 0.559071 -0.217608
vn -0.0186 0.9662 -0.2572
vn 0.0005 0.9365 -0.3508
vn -0.0316 0.9398 -0.3402
vn 0.0349 0.9389 -0.3423
vn 0.0308 0.8971 -0.4408
vn -0.0007 0.8812 -0.4727
vn -0.0277 0.8978 -0.4395
vn 0.0007 0.9780 -0.2086
vn 0.0240 0.9654 -0.2595
vn 0.9999 0.0127 -0.0088
vn 1.0000 0.0081 -0.0051
vn 0.8968 0.4310 -0.1001
vn -0.0260 0.8607 -0.5084
vn -0.2691 0.8340 -0.4817
vn 0.0001 0.8384 -0.5450
vn 0.0293 0.8575 -0.5136
vn -0.0193 0.6302 -0.7762
vn -0.0126 0.9535 0.3010
vn 0.9984 0.0034 -0.0568
vn 0.9869 0.0146 -0.1608
vn 0.3822 0.7829 -0.4910
vn 0.0387 0.7208 -0.6921
vn 1.0000 0.0025 -0.0020
vn -0.5661 0.0027 -0.8243
vn -0.5217 0.1943 -0.8307
vn -0.0148 0.0040 -0.9999
vn -0.0701 0.0057 -0.9975
vn 0.0126 0.0049 -0.9999
vn 0.0292 0.0026 -0.9996
vn -0.0150 0.0023 0.9999
vn 0.0640 0.0059 0.9979
vn -0.0573 0.0073 0.9983
vn -0.0823 0.0041 -0.9966
vn 0.0903 -0.0005 0.9959
vn 0.0980 0.0112 0.9951
vn 0.9275 0.3309 -0.1741
vn -0.9389 0.1275 -0.3198
vn -0.9999 0.0099 -0.0075
vn -0.8872 0.4080 -0.2154
vn -1.0000 0.0015 -0.0029
vn -0.8984 0.0013 0.4392
vn 0.0403 0.0045 -0.9992
vn 0.1878 0.0041 -0.9822
vn -0.4180 0.0091 0.9084
vn -1.0000 0.0076 -0.0017
vn -0.6411 0.6022 0.4757
vn -0.5663 0.0015 -0.8242
vn 0.0246 0.9178 0.3964
vn 0.0248 0.5631 -0.8260
vn 0.1225 0.4361 0.8915
vt 0.056071 0.003053
vt 0.067612 0.010936
vt 0.056188 0.010257
vt 0.078668 0.010312
vt 0.078597 0.018341
vt 0.067113 0.021902
vt 0.056199 0.017985
vt 0.068734 0.002665
vt 0.078779 0.003077
vt 0.464322 0.054773
vt 0.464334 0.047572
vt 0.464920 0.054960
vt 0.056828 0.028887
vt 0.055861 0.028293
vt 0.067223 0.028731
vt 0.077993 0.028557
vt 0.073477 0.029032
vt 0.063430 0.002097
vt 0.440218 0.025645
vt 0.459732 0.029967
vt 0.078912 0.028281
vt 0.077867 0.029313
vt 0.435207 0.048499
vt 0.464674 0.007089
vt 0.464475 0.007977
vt 0.463931 0.007850
vt 0.461060 0.023418
vt 0.442816 0.013854
vt 0.462597 0.017841
vt 0.472766 0.013647
vt 0.503087 0.008719
vt 0.503168 0.017489
vt 0.445047 0.003733
vt 0.472767 0.002143
vt 0.502606 0.002090
vt 0.462806 0.039358
vt 0.492983 0.049109
vt 0.492926 0.048163
vt 0.498325 0.039546
vt 0.472766 0.048988
vt 0.472778 0.025489
vt 0.440605 0.023884
vt 0.459859 0.028365
vt 0.502428 0.025423
vt 0.501459 0.031860
vt 0.503044 0.025403
vt 0.445251 0.002808
vt 0.072046 0.002126
vt 0.061220 0.028994
vt 0.503199 0.002241
s 1
usemtl mouse_tex
f 5/1/1 1/2/2 4/3/3
f 1/2/2 16/4/4 6/5/5
f 3/6/6 2/7/7 1/2/2
f 1/2/2 26/8/8 10/9/9
f 9/10/10 16/11/11 10/12/12
f 8/13/13 29/14/14 2/7/7
f 28/15/15 27/16/16 30/17/17
f 5/1/1 25/18/18 26/8/8
f 15/19/19 17/20/20 16/11/11
f 27/16/16 17/21/21 19/22/22
f 13/23/23 16/11/11 9/10/10
f 29/24/24 8/25/25 7/26/26
f 30/27/27 23/28/28 28/29/29
f 24/30/30 11/31/31 25/32/32
f 7/26/26 23/28/28 20/33/33
f 13/34/34 9/35/35 11/31/31
f 27/16/16 28/15/15 3/6/6
f 2/7/7 3/6/6 8/13/13
f 6/36/36 16/11/11 17/20/20
f 29/37/37 14/38/38 2/39/39
f 29/37/37 21/40/40 14/38/38
f 27/16/16 6/5/5 17/21/21
f 2/7/7 4/3/3 1/2/2
f 30/17/17 27/16/16 19/22/22
f 25/32/32 12/41/41 24/30/30
f 3/6/6 1/2/2 6/5/5
f 30/27/27 18/42/42 23/28/28
f 10/9/9 16/4/4 1/2/2
f 8/13/13 3/6/6 28/15/15
f 15/19/19 19/43/43 17/20/20
f 12/41/41 22/44/44 4/45/45
f 22/44/44 5/46/46 4/45/45
f 7/26/26 28/29/29 23/28/28
f 18/42/42 30/27/27 19/43/43
f 1/2/2 5/1/1 26/8/8
f 2/39/39 14/38/38 4/45/45
f 14/38/38 12/41/41 4/45/45
f 13/23/23 15/19/19 16/11/11
f 21/47/47 7/26/26 20/33/33
f 25/18/18 11/48/48 26/8/8
f 11/48/48 10/9/9 26/8/8
f 8/13/13 28/15/15 7/49/49
f 6/5/5 27/16/16 3/6/6
f 11/31/31 9/35/35 10/50/50
f 22/44/44 25/32/32 5/46/46
f 24/30/30 13/34/34 11/31/31
f 25/32/32 22/44/44 12/41/41
f 15/19/19 18/42/42 19/43/43
f 14/38/38 21/40/40 12/41/41
f 21/47/47 29/24/24 7/26/26
