# Blender 4.5.0
# www.blender.org
mtllib right_click.mtl
o right_click
v 0.133975 0.223540 -0.915694
v 0.141875 0.194997 -0.948237
v 0.142617 0.188718 -0.958046
v 0.155131 0.184894 -0.950305
v 0.176895 0.187633 -0.925894
v 0.264122 0.180160 -0.861155
v 0.156701 0.202216 -0.922884
v 0.348029 0.165369 -0.815847
v 0.384017 0.161977 -0.788723
v 0.403388 0.187148 -0.729189
v 0.198637 0.203421 -0.879493
v 0.166468 0.221168 -0.882155
v 0.253582 0.238334 -0.764071
v 0.227779 0.247674 -0.771793
v 0.183043 0.259379 -0.798481
v 0.371154 0.198276 -0.737703
v 0.395470 0.223853 -0.674760
v 0.422195 0.211305 -0.673462
v 0.429601 0.203181 -0.678411
v 0.295366 0.216884 -0.766528
v 0.440230 0.220745 -0.634605
v 0.448806 0.241446 -0.581957
v 0.439292 0.247955 -0.582168
v 0.419632 0.231180 -0.638636
v 0.385774 0.251226 -0.628443
v 0.462105 0.207382 -0.580223
v 0.321722 0.242775 -0.694436
v 0.274919 0.266825 -0.686646
v 0.186232 0.297511 -0.723513
v 0.136678 0.358809 -0.669017
v 0.479495 0.245837 -0.460764
v 0.486729 0.282775 -0.343083
v 0.434393 0.153956 -0.728013
v 0.450252 0.205976 -0.632451
v 0.461379 0.218721 -0.579895
v 0.434627 0.181422 -0.702260
v 0.476708 0.274219 -0.443063
v 0.480880 0.269930 -0.429957
v 0.479900 0.250618 -0.459069
v 0.484234 0.265760 -0.411354
v 0.485854 0.293322 -0.332034
v 0.481269 0.306588 -0.319605
v 0.466144 0.288090 -0.447816
v 0.457117 0.296211 -0.445292
v 0.454747 0.277086 -0.495921
v 0.458703 0.338880 -0.290177
v 0.468243 0.327880 -0.300276
v 0.412814 0.386259 -0.252816
v 0.385056 0.412643 -0.231500
v 0.238532 0.522068 -0.127604
v 0.158977 0.565249 -0.073854
v 0.277690 0.497464 -0.154049
v 0.323765 0.464276 -0.186443
v 0.143378 0.476507 -0.394516
v 0.137033 0.445263 -0.483246
v 0.181537 0.447105 -0.410979
v 0.144617 0.506460 -0.308819
v 0.140096 0.396380 -0.587559
v 0.135196 0.415854 -0.553937
v 0.359068 0.435565 -0.211974
v 0.473682 0.248430 -0.495913
v 0.472178 0.230858 -0.519922
v 0.457806 0.263267 -0.520461
v 0.438329 0.280416 -0.509670
v 0.405089 0.287431 -0.530281
v 0.386580 0.352760 -0.392821
v 0.342900 0.328836 -0.492623
v 0.289375 0.325547 -0.550259
v 0.307640 0.380840 -0.408667
v 0.225657 0.370537 -0.525802
v 0.198042 0.413816 -0.466249
v 0.270168 0.389724 -0.430562
v 0.195180 0.461533 -0.355493
v 0.148867 0.534800 -0.209765
v 0.171081 0.498288 -0.290388
v 0.214163 0.493431 -0.243419
v 0.246226 0.423358 -0.381868
v 0.336969 0.411705 -0.303898
v 0.238431 0.461249 -0.298754
v 0.380000 0.370836 -0.354430
v 0.453011 0.320604 -0.382908
v 0.468443 0.309380 -0.383535
v 0.484838 0.284237 -0.376121
v 0.486560 0.278439 -0.368579
v 0.485067 0.266757 -0.394773
v 0.420256 0.263933 -0.568031
v 0.311272 0.285313 -0.615256
v 0.245237 0.319510 -0.609925
v 0.186230 0.358835 -0.602226
v 0.482413 0.298144 -0.355842
v 0.454269 0.338541 -0.318597
v 0.400292 0.390415 -0.270827
v 0.391556 0.377717 -0.320084
v 0.190348 0.524281 -0.180515
v 0.442399 0.180218 -0.681567
v 0.421707 0.165371 -0.744986
v 0.447154 0.213364 -0.631467
v 0.458922 0.237121 -0.565172
v 0.468196 0.261402 -0.496891
v 0.472336 0.284097 -0.438659
v 0.479021 0.292005 -0.394331
v 0.473713 0.313997 -0.349076
v 0.476765 0.315553 -0.311573
v 0.475486 0.318183 -0.317075
v 0.146347 0.277102 -0.857284
v 0.151569 0.322577 -0.770356
v 0.134281 0.282111 -0.857346
v 0.145745 0.233550 -0.931294
v 0.144855 0.221337 -0.950993
v 0.140346 0.210890 -0.968303
v 0.157923 0.209286 -0.957465
v 0.204554 0.201244 -0.926597
v 0.202632 0.195281 -0.936284
v 0.291939 0.186752 -0.873662
v 0.374914 0.185169 -0.809103
v 0.366894 0.181769 -0.820792
v 0.417934 0.176703 -0.782273
v 0.176680 0.219488 -0.923484
v 0.233332 0.207068 -0.891493
v 0.215958 0.253339 -0.826100
v 0.382550 0.214353 -0.750894
v 0.398583 0.240926 -0.692386
v 0.320242 0.248201 -0.738404
v 0.427462 0.221674 -0.702019
v 0.435191 0.209187 -0.714166
v 0.432704 0.235093 -0.673796
v 0.450183 0.228454 -0.664938
v 0.450348 0.206688 -0.697449
v 0.275789 0.243058 -0.787469
v 0.284854 0.196550 -0.864880
v 0.452795 0.252545 -0.616799
v 0.429071 0.264104 -0.619283
v 0.393405 0.268919 -0.641477
v 0.482353 0.202078 -0.597609
v 0.480641 0.197559 -0.603471
v 0.465445 0.169237 -0.683455
v 0.322138 0.284476 -0.664221
v 0.264518 0.302694 -0.681039
v 0.219848 0.316703 -0.702015
v 0.134900 0.347943 -0.738479
v 0.505202 0.254790 -0.430593
v 0.509253 0.280909 -0.341662
v 0.475085 0.210215 -0.627892
v 0.458795 0.200367 -0.687803
v 0.473272 0.227626 -0.615200
v 0.498899 0.267186 -0.466033
v 0.504438 0.261001 -0.441126
v 0.495648 0.286523 -0.446982
v 0.498423 0.242950 -0.495034
v 0.504774 0.307466 -0.323555
v 0.482025 0.305329 -0.449132
v 0.472870 0.290598 -0.503550
v 0.465381 0.317993 -0.447796
v 0.483131 0.278117 -0.505532
v 0.477558 0.351217 -0.291543
v 0.487491 0.339445 -0.300105
v 0.430045 0.400652 -0.258112
v 0.403262 0.425991 -0.239842
v 0.249596 0.540724 -0.135288
v 0.203006 0.566835 -0.104196
v 0.170952 0.582956 -0.082155
v 0.287312 0.516888 -0.160623
v 0.323308 0.491509 -0.184986
v 0.160436 0.587822 -0.076682
v 0.149420 0.493891 -0.409144
v 0.150325 0.522636 -0.328199
v 0.153901 0.460809 -0.484737
v 0.149455 0.431417 -0.557314
v 0.136291 0.459493 -0.506151
v 0.357602 0.465113 -0.207944
v 0.499193 0.237642 -0.489113
v 0.494596 0.226480 -0.522098
v 0.487390 0.238593 -0.551718
v 0.487922 0.257947 -0.524748
v 0.491688 0.227276 -0.542357
v 0.455980 0.293773 -0.521752
v 0.419228 0.313455 -0.516439
v 0.399371 0.302466 -0.562376
v 0.359335 0.415728 -0.334318
v 0.323729 0.338718 -0.547399
v 0.332007 0.394915 -0.413465
v 0.303156 0.378113 -0.480849
v 0.264017 0.369081 -0.543918
v 0.290670 0.325471 -0.607707
v 0.221789 0.363038 -0.606970
v 0.223909 0.406198 -0.513012
v 0.233914 0.436834 -0.430811
v 0.288064 0.426913 -0.387836
v 0.224483 0.474306 -0.353682
v 0.149979 0.548959 -0.245168
v 0.272853 0.469006 -0.305371
v 0.416802 0.359207 -0.407119
v 0.475449 0.322524 -0.418000
v 0.424086 0.380118 -0.339847
v 0.482242 0.325476 -0.394610
v 0.482118 0.336894 -0.355526
v 0.502291 0.291808 -0.404845
v 0.508248 0.287897 -0.368918
v 0.508548 0.277580 -0.386537
v 0.503679 0.303820 -0.365489
v 0.508717 0.272573 -0.370650
v 0.464795 0.265068 -0.573668
v 0.158683 0.381406 -0.650294
v 0.145723 0.394173 -0.639371
v 0.505671 0.306450 -0.334146
v 0.482319 0.345947 -0.315133
v 0.492327 0.326167 -0.355852
v 0.413588 0.408594 -0.274605
v 0.436649 0.388579 -0.288800
v 0.343116 0.467314 -0.223818
v 0.226793 0.507133 -0.263213
v 0.203154 0.535462 -0.211645
v 0.189902 0.556574 -0.159754
v 0.142750 0.569105 -0.178337
v 0.462920 0.185374 -0.690881
v 0.440808 0.171302 -0.762995
v 0.462211 0.230233 -0.639921
v 0.474290 0.253920 -0.572501
v 0.489894 0.297329 -0.445048
v 0.495500 0.306966 -0.401410
v 0.498805 0.316673 -0.355134
v 0.496243 0.326363 -0.309999
v 0.134480 0.231661 -0.941053
v 0.136162 0.217318 -0.961604
v 0.145477 0.207317 -0.970091
v 0.152215 0.204209 -0.968802
v 0.166857 0.200410 -0.961049
v 0.434366 0.173413 -0.768997
v 0.452562 0.148898 -0.736708
v 0.454527 0.149151 -0.737148
v 0.509143 0.288724 -0.336426
v 0.144372 0.593613 -0.065127
v 0.145061 0.593032 -0.064762
v 0.137005 0.488478 -0.435029
v 0.138645 0.517877 -0.353927
v 0.135483 0.427752 -0.577934
v 0.140076 0.537759 -0.292448
v 0.141889 0.559043 -0.217647
v 0.135059 0.386717 -0.663162
v 0.144458 0.572341 -0.063898
v 0.198474 0.544923 -0.099915
v 0.406822 0.422363 -0.241236
v 0.448286 0.381942 -0.270042
v 0.497037 0.290848 -0.334509
v 0.486994 0.286199 -0.339301
v 0.449424 0.162732 -0.751633
v 0.427296 0.157690 -0.756827
v 0.137840 0.191626 -0.959756
v 0.135142 0.194749 -0.957517
v 0.133790 0.203562 -0.945955
v 0.133902 0.267832 -0.840888
v 0.134675 0.325168 -0.736499
v 0.135148 0.382881 -0.624187
v 0.137246 0.476804 -0.406702
v 0.139670 0.512966 -0.300380
v 0.141927 0.538265 -0.211576
v 0.143738 0.558446 -0.126649
v 0.144282 0.566143 -0.092724
v 0.441490 0.167927 -0.692142
v 0.431948 0.147931 -0.740003
v 0.427270 0.152444 -0.750288
v 0.424178 0.154688 -0.754815
v 0.418046 0.156869 -0.761220
v 0.283257 0.169930 -0.861307
v 0.195094 0.178645 -0.922235
v 0.444957 0.168572 -0.758618
v 0.495913 0.328466 -0.319961
v 0.481863 0.347580 -0.301214
v 0.381554 0.439346 -0.242621
v 0.144358 0.590090 -0.084327
v 0.466797 0.330189 -0.308038
v 0.481696 0.306058 -0.327454
v 0.453030 0.155040 -0.743322
v 0.471426 0.187793 -0.657116
v 0.509632 0.287471 -0.343234
v 0.472924 0.229392 -0.513774
v 0.456550 0.199992 -0.613557
v 0.430808 0.149363 -0.743333
vn 0.3610 0.8309 -0.4235
vn 0.3825 0.8032 -0.4567
vn 0.3979 0.8083 -0.4340
vn 0.9750 0.0645 -0.2126
vn 0.9798 -0.0151 -0.1996
vn 0.9641 0.0999 -0.2458
vn 0.3121 0.8952 -0.3183
vn 0.4180 0.8581 -0.2982
vn 0.4430 0.8356 -0.3247
vn -0.4989 -0.7186 0.4845
vn -0.5302 -0.7056 0.4701
vn -0.5736 -0.6989 0.4272
vn -0.4777 -0.7410 0.4719
vn 0.4432 0.7732 -0.4536
vn 0.4364 0.7514 -0.4949
vn 0.4538 0.7406 -0.4955
vn -0.8902 -0.4394 0.1202
vn -0.9598 -0.2731 0.0652
vn -0.8854 -0.4575 0.0824
vn -0.3758 -0.8844 0.2767
vn -0.3822 -0.8700 0.3115
vn -0.3461 -0.9000 0.2650
vn -0.9914 0.0434 0.1232
vn -0.9770 -0.1086 0.1834
vn -0.9864 0.0775 0.1447
vn -0.4366 -0.8276 0.3529
vn -0.4915 -0.7950 0.3555
vn -0.4639 -0.8056 0.3686
vn -0.4112 -0.8050 0.4276
vn -0.4462 -0.8044 0.3922
vn -0.4541 -0.7860 0.4195
vn 0.7628 0.5436 -0.3500
vn 0.5924 0.6942 -0.4089
vn 0.5880 0.7268 -0.3549
vn -0.8331 -0.4837 0.2684
vn -0.7232 -0.6170 0.3103
vn -0.8533 -0.4360 0.2860
vn -0.3711 -0.8130 0.4486
vn -0.3740 -0.8206 0.4320
vn -0.3942 -0.8006 0.4512
vn -0.4610 -0.8044 0.3749
vn -0.5909 -0.7016 0.3983
vn -0.6619 -0.6635 0.3488
vn 0.7003 0.6611 -0.2691
vn 0.5916 0.7406 -0.3185
vn 0.4989 0.8158 -0.2924
vn 0.5544 0.0135 0.8321
vn 0.5628 0.0437 0.8255
vn 0.4144 0.7399 0.5299
vn -0.4261 -0.7737 0.4688
vn -0.3571 -0.8188 0.4495
vn -0.3431 -0.8360 0.4283
vn -0.3853 -0.8279 0.4076
vn 0.2919 0.8139 -0.5023
vn 0.3679 0.7704 -0.5208
vn 0.3048 0.7834 -0.5417
vn -0.9858 -0.0956 0.1380
vn 0.4797 0.7971 -0.3667
vn 0.4600 0.8154 -0.3515
vn 0.4389 0.8152 -0.3779
vn 0.4377 0.7674 -0.4685
vn 0.3887 0.8005 -0.4562
vn 0.4183 0.8331 -0.3619
vn -0.9708 -0.1045 0.2158
vn -0.9774 -0.0454 0.2066
vn 0.9859 0.1325 -0.1018
vn 0.9316 0.3272 -0.1583
vn 0.9632 0.2522 -0.0929
vn 0.3965 0.8336 -0.3846
vn 0.3498 0.8567 -0.3790
vn 0.3862 0.8507 -0.3566
vn 0.4100 0.8460 -0.3409
vn 0.4217 0.8464 -0.3252
vn 0.3982 0.8487 -0.3481
vn -0.9336 -0.3572 -0.0266
vn -0.8772 -0.4791 -0.0303
vn 0.4825 0.7846 -0.3894
vn 0.4613 0.7822 -0.4188
vn 0.4067 0.8158 -0.4112
vn 0.5936 0.7661 -0.2465
vn 0.7631 0.6248 -0.1655
vn 0.8150 0.5431 -0.2022
vn -0.4728 -0.7320 0.4905
vn -0.5235 -0.7377 0.4264
vn 0.4183 0.8124 -0.4062
vn -0.5230 -0.7807 0.3419
vn -0.9325 -0.2866 0.2199
vn -0.9384 -0.2500 0.2388
vn 0.4403 0.8356 -0.3284
vn -0.4536 -0.8323 0.3186
vn -0.4116 -0.8496 0.3298
vn -0.4269 -0.8558 0.2920
vn -0.3359 -0.8533 0.3987
vn -0.3419 -0.8505 0.3996
vn -0.4897 -0.7752 0.3990
vn -0.4971 -0.7830 0.3739
vn -0.5170 -0.7643 0.3854
vn -0.4766 -0.8135 0.3334
vn 0.2945 0.9121 -0.2853
vn 0.3659 0.8930 -0.2621
vn -0.7870 -0.4875 0.3782
vn -0.9076 -0.3076 0.2858
vn -0.7960 -0.5005 0.3405
vn -0.0033 -0.5884 0.8086
vn 0.1547 -0.5625 0.8122
vn 0.0733 -0.6254 0.7768
vn 0.2681 0.9274 -0.2610
vn 0.3146 0.9204 -0.2321
vn 0.6170 0.7619 -0.1969
vn 0.6644 0.7335 -0.1434
vn -0.7467 -0.6434 0.1689
vn -0.6516 -0.7213 0.2347
vn -0.8432 -0.5026 0.1911
vn -0.9291 -0.2370 0.2838
vn 0.3754 0.8511 -0.3670
vn -0.9901 -0.0958 0.1024
vn -0.9499 -0.2663 0.1639
vn -0.3518 -0.8559 0.3791
vn -0.4407 -0.7572 0.4821
vn 0.6290 0.7633 -0.1474
vn 0.7360 0.6768 -0.0124
vn 0.2250 -0.7221 -0.6542
vn 0.1817 -0.7984 -0.5740
vn 0.2711 -0.7376 -0.6184
vn -0.7545 -0.5096 0.4135
vn -0.5291 -0.7082 0.4674
vn 0.3886 0.8772 -0.2819
vn -0.8248 -0.5581 0.0903
vn -0.6799 -0.7238 0.1179
vn -0.2783 -0.4302 -0.8588
vn -0.3202 -0.4314 -0.8434
vn -0.7482 -0.1608 -0.6437
vn -0.8933 -0.3105 0.3251
vn -0.9151 -0.2736 0.2962
vn -0.9291 -0.2310 0.2887
vn 0.2684 -0.5058 0.8198
vn 0.2898 -0.4452 0.8472
vn 0.3386 -0.3515 0.8728
vn -0.5188 -0.7756 0.3597
vn -0.6160 -0.7173 0.3257
vn -0.5829 -0.7291 0.3588
vn 0.4606 0.8160 -0.3491
vn -0.4309 -0.8657 0.2548
vn -0.7928 -0.5609 0.2385
vn -0.7046 -0.6550 0.2730
vn 0.2434 -0.8613 -0.4460
vn 0.4011 -0.6641 -0.6309
vn 0.3877 -0.6728 -0.6301
vn 0.3906 0.8001 -0.4554
vn 0.9943 0.1059 -0.0152
vn -0.3897 -0.8388 0.3802
vn -0.4190 -0.8396 0.3457
vn -0.3758 -0.8535 0.3610
vn 0.4871 0.8256 -0.2848
vn 0.4821 0.8265 -0.2906
vn 0.3834 0.8133 -0.4376
vn 0.4392 0.7790 -0.4475
vn 0.4131 0.8551 -0.3132
vn -0.4366 -0.7447 0.5048
vn -0.4079 -0.7702 0.4903
vn -0.3644 -0.8991 0.2428
vn -0.3362 -0.9137 0.2282
vn 0.7838 0.5523 -0.2840
vn -0.5201 -0.8129 0.2621
vn -0.6131 -0.7715 0.1701
vn -0.5524 -0.7990 0.2376
vn -0.4573 -0.7545 0.4708
vn 0.0058 -0.6939 0.7200
vn 0.1263 -0.6186 0.7755
vn -0.4823 -0.8446 0.2325
vn 0.8525 0.5193 -0.0594
vn 0.8708 0.4738 -0.1313
vn 0.4594 0.7892 -0.4076
vn 0.4485 0.7852 -0.4270
vn 0.3902 0.8317 -0.3950
vn 0.3448 0.8540 -0.3896
vn 0.3327 0.8481 -0.4123
vn -0.5028 -0.7611 0.4098
vn -0.5011 -0.7505 0.4309
vn -0.4882 -0.7622 0.4252
vn -0.8945 -0.3917 0.2157
vn 0.4322 0.8316 -0.3490
vn 0.4825 0.7845 -0.3895
vn 0.3346 0.8510 -0.4047
vn -0.9997 -0.0072 0.0216
vn -0.9998 0.0106 0.0186
vn -0.9999 0.0156 0.0076
vn -0.4073 -0.8194 0.4033
vn -0.3994 -0.8496 0.3446
vn -0.4310 -0.8440 0.3191
vn -0.4088 -0.8450 0.3448
vn -0.3887 -0.8359 0.3875
vn 0.8036 0.5107 -0.3057
vn 0.3556 0.8974 -0.2611
vn 0.9759 0.1383 -0.1686
vn 0.9412 0.2499 -0.2272
vn 0.9451 0.2682 -0.1869
vn -0.4236 -0.8256 0.3727
vn -0.3824 -0.8473 0.3686
vn 0.4496 0.7181 -0.5313
vn 0.4222 0.7494 -0.5100
vn 0.4722 0.6999 -0.5359
vn 0.3941 -0.6640 -0.6354
vn 0.3795 -0.6763 -0.6313
vn 0.5642 0.7943 -0.2252
vn -0.5873 -0.7815 0.2107
vn -0.4900 -0.8238 0.2851
vn -0.4276 -0.7863 0.4459
vn 0.3462 0.8300 -0.4373
vn 0.4182 0.7788 -0.4676
vn 0.8842 0.3919 -0.2542
vn 0.8824 0.3698 -0.2908
vn 0.3985 0.8353 -0.3787
vn 0.4294 0.8421 -0.3263
vn 0.4652 0.8278 -0.3137
vn -0.4466 -0.8348 0.3219
vn -0.9997 0.0207 -0.0101
vn -0.9999 0.0114 -0.0025
vn -0.9999 0.0120 -0.0019
vn -0.9997 0.0190 -0.0120
vn 0.3267 0.8179 -0.4736
vn 0.9751 0.1042 -0.1956
vn 0.9933 -0.0520 -0.1031
vn 0.9846 -0.1383 -0.1070
vn 0.3682 -0.6816 -0.6323
vn 0.4067 -0.6574 -0.6344
vn 0.4013 -0.6530 -0.6424
vn 0.7662 0.6344 0.1024
vn 0.7371 0.6739 0.0511
vn 0.3452 0.8502 -0.3976
vn 0.3648 0.8556 -0.3672
vn 0.4696 0.8009 -0.3717
vn -0.3269 -0.9212 0.2109
vn -0.3150 -0.9275 0.2013
vn -0.4355 -0.7799 0.4496
vn 0.4034 0.8576 -0.3191
vn -0.4498 -0.8370 0.3116
vn -0.4774 -0.7578 0.4447
vn -0.0772 -0.9310 0.3568
vn -0.0691 -0.9332 0.3525
vn -0.0561 -0.9394 0.3383
vn -1.0000 0.0010 0.0074
vn -0.9998 0.0222 -0.0013
vn -0.9997 0.0077 0.0213
vn -0.9997 0.0120 0.0201
vn -0.9997 0.0097 0.0208
vn 0.4091 0.7802 -0.4733
vn 0.3759 0.8773 -0.2984
vn -0.9998 0.0021 0.0207
vn -0.9997 0.0020 0.0229
vn -0.9998 -0.0008 0.0186
vn 0.3494 0.8967 -0.2717
vn 0.5582 0.7999 -0.2204
vn 0.5389 0.8046 -0.2493
vn 0.4114 0.7931 -0.4491
vn 0.5383 -0.0544 0.8410
vn 0.5555 -0.0190 0.8313
vn 0.5360 -0.0817 0.8403
vn 0.5063 -0.1159 0.8545
vn -0.0184 -0.9539 0.2994
vn -0.0272 -0.9545 0.2970
vn -0.0487 -0.9538 0.2965
vn -0.4731 -0.8288 0.2988
vn -0.9990 0.0244 -0.0376
vn -0.9972 0.0312 -0.0675
vn 0.9962 -0.0789 0.0363
vn -1.0000 -0.0020 0.0056
vn -0.0657 -0.6240 0.7787
vn -0.0421 -0.6601 0.7500
vn -0.1032 -0.7338 0.6714
vn -0.6330 -0.2054 -0.7464
vn 0.5645 0.0136 0.8253
vn 0.8777 0.4238 -0.2237
vn 0.4575 0.7027 -0.5450
vn 0.3868 0.7484 -0.5388
vn 0.1473 -0.6289 -0.7634
vn 0.1882 -0.6441 -0.7414
vn 0.2951 -0.6812 -0.6700
vn 0.3117 -0.6853 -0.6582
vn 0.3521 -0.6926 -0.6296
vn 0.9980 -0.0581 -0.0241
vn 0.9958 -0.0614 -0.0673
vn 0.3468 0.8394 -0.4185
vn 0.4732 0.7931 -0.3834
vn -0.3961 -0.7950 0.4594
vn -0.4931 -0.8130 0.3096
vn -0.9939 -0.0945 0.0575
vn -0.9558 -0.2698 0.1167
vn 0.2903 0.9313 -0.2202
vn 0.3117 0.9238 -0.2223
vn 0.3269 0.9149 -0.2367
vn 0.9416 0.2228 -0.2525
vn -0.5884 -0.7570 0.2843
vn -0.5125 -0.7867 0.3440
vn -0.9712 0.0007 -0.2383
vn 0.4871 0.7364 -0.4694
vn 0.5526 0.6942 -0.4612
vn 0.4088 0.8100 -0.4205
vn 0.7028 0.5828 -0.4081
vn 0.6876 0.5938 -0.4179
vn -0.5153 -0.7308 0.4476
vn 0.8308 0.5519 0.0721
vn 0.3317 -0.7581 -0.5615
vn 0.5730 0.0371 0.8187
vn 0.6322 0.2581 0.7306
vn 0.5712 0.0422 0.8197
vn -0.3937 -0.8680 0.3026
vn -0.9999 -0.0032 0.0139
vn -1.0000 -0.0012 0.0038
vn -1.0000 -0.0040 0.0015
vn 0.3372 -0.6420 -0.6885
vn 0.6046 -0.2778 -0.7465
vn -0.5507 -0.7000 0.4547
vn 0.8587 0.3900 -0.3324
vn 0.9255 0.2470 -0.2870
vn 0.9155 0.2656 -0.3023
vn -0.6391 -0.5409 -0.5467
vn 0.2892 -0.6696 -0.6841
vn 0.7829 0.5728 -0.2427
vn 0.9116 0.3936 -0.1182
vn -0.9879 0.1538 -0.0196
vn -0.9953 -0.0886 0.0387
vn 0.2333 0.9497 -0.2089
vn 0.2192 0.9596 -0.1762
vn 0.7349 0.6579 0.1649
vn -0.5531 -0.7905 0.2629
vn 0.9822 -0.1056 -0.1554
vn -0.5750 -0.7427 0.3432
vn 0.9796 0.1491 -0.1345
vn -0.4138 -0.8495 0.3272
vn -0.5342 -0.6934 0.4836
vn 0.8488 0.3993 -0.3466
vn 0.4968 -0.1144 0.8603
vn 0.7350 0.5997 0.3165
vn 0.1540 -0.7772 -0.6102
vn 0.0986 -0.9164 -0.3878
vn 0.3467 0.8710 -0.3479
vn 0.5652 0.0084 0.8249
vn 0.4434 -0.2060 0.8723
vn 0.4802 0.8314 -0.2795
vn -0.4796 -0.8297 0.2856
vn 0.5619 0.0068 0.8272
vn -0.9961 0.0792 -0.0387
vn 0.9860 0.1563 0.0574
vn 0.9993 -0.0378 -0.0060
vn -0.3233 -0.9116 0.2539
vn 0.9626 -0.2580 -0.0824
vn 0.9860 -0.0635 -0.1544
vn 0.0788 -0.9752 -0.2067
vn -0.9536 -0.1416 0.2656
vn -0.9802 0.0184 -0.1974
vn 0.9067 0.4182 0.0551
vn -0.0761 -0.9204 0.3836
vn -0.0307 -0.8906 0.4538
vn -0.0629 -0.9226 0.3806
vn 0.9396 0.3397 -0.0417
vn -0.9999 -0.0009 0.0117
vn -0.0273 -0.9487 0.3149
vn 0.3962 -0.2643 0.8793
vn 0.3587 -0.3191 0.8772
vn 0.2396 -0.5077 0.8275
vn -0.0700 -0.9548 0.2888
vn -0.0967 -0.9561 0.2767
vn -0.0788 -0.9538 0.2901
vn -0.9994 0.0351 -0.0043
vn 0.2106 -0.5481 0.8095
vn 0.3439 -0.3326 0.8781
vn -0.0125 -0.9528 0.3033
vn -0.0649 -0.9367 0.3440
vn 0.7551 0.4100 0.5116
vn 0.4189 0.7507 -0.5109
vn -0.9944 0.1009 0.0325
vn 0.1552 -0.9135 0.3760
vn 0.1890 -0.9317 0.3101
vn -0.7208 -0.6931 0.0106
vn -0.9939 0.0836 0.0718
vn 0.5345 0.7675 0.3540
vn 0.5277 -0.3961 -0.7514
vn 0.9509 0.3055 0.0492
vn -0.3909 0.6900 0.6091
vn -0.8110 -0.5837 -0.0391
vn 0.3258 0.7695 -0.5492
vt 0.257426 0.871253
vt 0.275809 0.879225
vt 0.243948 0.882736
vt 0.307743 0.860627
vt 0.303179 0.885238
vt 0.300943 0.885500
vt 0.202619 0.750380
vt 0.206207 0.742335
vt 0.205979 0.764025
vt 0.435527 0.973014
vt 0.437865 0.971339
vt 0.437607 0.974897
vt 0.431123 0.965897
vt 0.213693 0.917661
vt 0.222360 0.921925
vt 0.209032 0.927943
vt 0.331335 0.817401
vt 0.328316 0.811420
vt 0.330976 0.809060
vt 0.422403 0.755339
vt 0.399768 0.746899
vt 0.411752 0.738372
vt 0.331403 0.866018
vt 0.332932 0.866895
vt 0.335227 0.884186
vt 0.405190 0.811901
vt 0.418015 0.835125
vt 0.412079 0.851910
vt 0.402406 0.928535
vt 0.404968 0.878415
vt 0.410912 0.925950
vt 0.299527 0.850448
vt 0.294591 0.856713
vt 0.299721 0.829984
vt 0.337671 0.857557
vt 0.341853 0.863076
vt 0.340654 0.877261
vt 0.366918 0.924480
vt 0.389716 0.928142
vt 0.398226 0.954250
vt 0.348162 0.880326
vt 0.348386 0.897054
vt 0.345019 0.881145
vt 0.305768 0.794205
vt 0.302112 0.809492
vt 0.303066 0.784451
vt 0.953608 0.326468
vt 0.947848 0.326444
vt 0.947739 0.326332
vt 0.360502 0.923975
vt 0.361685 0.906235
vt 0.381250 0.908383
vt 0.395400 0.903752
vt 0.202743 0.919011
vt 0.204991 0.924678
vt 0.202756 0.927529
vt 0.329768 0.848938
vt 0.227568 0.799516
vt 0.230604 0.775173
vt 0.240109 0.810767
vt 0.285489 0.890788
vt 0.273519 0.895830
vt 0.247063 0.765936
vt 0.338636 0.894235
vt 0.343979 0.917148
vt 0.321568 0.780804
vt 0.314798 0.784218
vt 0.319826 0.774535
vt 0.287707 0.840696
vt 0.278055 0.822663
vt 0.285058 0.809850
vt 0.242283 0.742751
vt 0.260754 0.721514
vt 0.266173 0.753799
vt 0.330145 0.807381
vt 0.332264 0.804268
vt 0.211141 0.835475
vt 0.208127 0.870998
vt 0.205259 0.831768
vt 0.306148 0.777930
vt 0.310157 0.768035
vt 0.311210 0.781540
vt 0.431695 0.974654
vt 0.435347 0.975924
vt 0.241750 0.852062
vt 0.342978 0.855136
vt 0.333932 0.858526
vt 0.338009 0.883219
vt 0.228044 0.753080
vt 0.421334 0.802123
vt 0.408161 0.786974
vt 0.427592 0.781561
vt 0.364923 0.891331
vt 0.385769 0.883237
vt 0.422523 0.908169
vt 0.423283 0.872537
vt 0.437228 0.888049
vt 0.423751 0.819020
vt 0.202665 0.733269
vt 0.205816 0.719792
vt 0.347436 0.917424
vt 0.342993 0.897968
vt 0.344807 0.896580
vt 0.947781 0.472960
vt 0.947782 0.467347
vt 0.951542 0.471414
vt 0.202768 0.712836
vt 0.202894 0.701271
vt 0.306626 0.766643
vt 0.307929 0.754732
vt 0.334958 0.813222
vt 0.337607 0.822994
vt 0.333692 0.828005
vt 0.344920 0.913183
vt 0.259048 0.775652
vt 0.328353 0.834998
vt 0.331187 0.839167
vt 0.375640 0.850055
vt 0.425216 0.968951
vt 0.291085 0.736205
vt 0.307941 0.752287
vt 0.939594 0.367516
vt 0.934131 0.367629
vt 0.934030 0.365393
vt 0.351274 0.934108
vt 0.352618 0.930322
vt 0.221845 0.713515
vt 0.333453 0.805093
vt 0.337027 0.801523
vt 0.939587 0.266062
vt 0.933872 0.265919
vt 0.939585 0.264543
vt 0.349280 0.933128
vt 0.347774 0.932162
vt 0.346210 0.927961
vt 0.953298 0.457290
vt 0.947676 0.456955
vt 0.953542 0.451562
vt 0.436232 0.864682
vt 0.437799 0.855279
vt 0.437933 0.875277
vt 0.208136 0.785200
vt 0.436352 0.760774
vt 0.336495 0.839955
vt 0.339155 0.841876
vt 0.933819 0.348999
vt 0.934021 0.336720
vt 0.936104 0.361797
vt 0.246114 0.907566
vt 0.322279 0.768291
vt 0.354049 0.874532
vt 0.348279 0.858353
vt 0.360831 0.861944
vt 0.275168 0.729047
vt 0.289257 0.760369
vt 0.203435 0.860405
vt 0.205876 0.895722
vt 0.229250 0.729374
vt 0.419473 0.969198
vt 0.393595 0.956546
vt 0.437403 0.736060
vt 0.436556 0.727583
vt 0.306509 0.810905
vt 0.358417 0.785932
vt 0.353694 0.782094
vt 0.362704 0.774262
vt 0.362722 0.940090
vt 0.953529 0.469664
vt 0.953486 0.465177
vt 0.437772 0.759438
vt 0.312901 0.758683
vt 0.313194 0.768780
vt 0.226722 0.855111
vt 0.222348 0.891983
vt 0.249213 0.831404
vt 0.257351 0.815370
vt 0.259493 0.848982
vt 0.437651 0.908162
vt 0.437698 0.940295
vt 0.423131 0.930987
vt 0.334356 0.842168
vt 0.296585 0.813816
vt 0.295437 0.842033
vt 0.277395 0.845433
vt 0.933834 0.097789
vt 0.939548 0.080609
vt 0.939572 0.100225
vt 0.354185 0.895933
vt 0.361414 0.823872
vt 0.368238 0.807176
vt 0.380650 0.792678
vt 0.393118 0.862449
vt 0.303547 0.830981
vt 0.216294 0.697458
vt 0.317275 0.812751
vt 0.310884 0.827425
vt 0.314762 0.802486
vt 0.397972 0.827077
vt 0.386437 0.825753
vt 0.222631 0.924928
vt 0.241126 0.915826
vt 0.211865 0.929961
vt 0.939520 0.318330
vt 0.933918 0.312104
vt 0.293756 0.745563
vt 0.341810 0.803801
vt 0.342278 0.820373
vt 0.418243 0.956730
vt 0.279588 0.862375
vt 0.288073 0.866758
vt 0.309567 0.818440
vt 0.304104 0.844961
vt 0.251800 0.794980
vt 0.285722 0.777957
vt 0.299965 0.792432
vt 0.343014 0.835634
vt 0.939415 0.222608
vt 0.934313 0.221565
vt 0.939582 0.170743
vt 0.933836 0.249083
vt 0.202682 0.898953
vt 0.315114 0.826936
vt 0.319581 0.811752
vt 0.317351 0.824873
vt 0.939330 0.285541
vt 0.939581 0.337749
vt 0.939619 0.359337
vt 0.307529 0.749899
vt 0.301523 0.743805
vt 0.202667 0.812530
vt 0.202594 0.792440
vt 0.207403 0.807090
vt 0.434351 0.723225
vt 0.437872 0.720488
vt 0.353589 0.907131
vt 0.254659 0.708992
vt 0.361455 0.799787
vt 0.427280 0.955568
vt 0.947699 0.880131
vt 0.953581 0.884965
vt 0.947739 0.910990
vt 0.934416 0.142077
vt 0.939561 0.144674
vt 0.934244 0.067223
vt 0.939553 0.042187
vt 0.939540 0.063429
vt 0.205836 0.917421
vt 0.243077 0.699951
vt 0.937094 0.020010
vt 0.933826 0.043472
vt 0.933957 0.021961
vt 0.231547 0.692295
vt 0.281431 0.728957
vt 0.285029 0.739436
vt 0.233259 0.912451
vt 0.947097 0.407918
vt 0.953633 0.374428
vt 0.953666 0.395133
vt 0.953624 0.408848
vt 0.947701 0.948675
vt 0.953404 0.955546
vt 0.947674 0.965789
vt 0.371944 0.766459
vt 0.939557 0.255279
vt 0.934041 0.260378
vt 0.933831 0.159111
vt 0.933898 0.193261
vt 0.947786 0.475382
vt 0.952990 0.473802
vt 0.953660 0.475304
vt 0.953700 0.360378
vt 0.953452 0.346536
vt 0.311796 0.795435
vt 0.207399 0.931288
vt 0.205411 0.931091
vt 0.939573 0.267686
vt 0.933853 0.267650
vt 0.933864 0.271572
vt 0.939560 0.272052
vt 0.933860 0.284813
vt 0.323495 0.775414
vt 0.321914 0.795041
vt 0.202626 0.837094
vt 0.228131 0.827903
vt 0.374835 0.946448
vt 0.435818 0.810091
vt 0.327342 0.822562
vt 0.329270 0.823787
vt 0.205404 0.675501
vt 0.210304 0.677365
vt 0.217716 0.683476
vt 0.307118 0.850108
vt 0.437916 0.814343
vt 0.436330 0.835195
vt 0.933850 0.264254
vt 0.291347 0.871983
vt 0.291528 0.888847
vt 0.289291 0.857969
vt 0.295990 0.866832
vt 0.293689 0.887787
vt 0.437245 0.960728
vt 0.310625 0.753026
vt 0.933844 0.360246
vt 0.947707 0.359996
vt 0.947792 0.346198
vt 0.947719 0.334276
vt 0.415333 0.770635
vt 0.939543 0.006761
vt 0.933837 0.002320
vt 0.939555 0.002036
vt 0.939651 0.362754
vt 0.939626 0.361396
vt 0.351198 0.909778
vt 0.299644 0.865441
vt 0.302962 0.868776
vt 0.297793 0.886257
vt 0.953730 0.331657
vt 0.939559 0.365482
vt 0.308796 0.793769
vt 0.315936 0.772582
vt 0.325818 0.815240
vt 0.326667 0.813626
vt 0.202758 0.676358
vt 0.202586 0.671681
vt 0.283680 0.729051
vt 0.437870 0.781099
vt 0.307203 0.870871
vt 0.436838 0.975892
vt 0.319493 0.796825
vt 0.384078 0.758601
vt 0.353547 0.935369
vt 0.295267 0.887056
vt 0.947579 0.422255
vt 0.947665 0.415928
vt 0.939583 0.369418
vt 0.933847 0.369351
vt 0.202665 0.772957
vt 0.947677 0.374512
vt 0.953806 0.419715
vt 0.266541 0.717343
vt 0.436053 0.787901
vt 0.947373 0.394051
vt 0.939636 0.200572
vt 0.322276 0.766193
vt 0.324080 0.768352
vt 0.423560 0.730571
vt 0.313500 0.845470
vt 0.312798 0.844508
vt 0.936713 0.369452
vt 0.346878 0.931435
vt 0.939588 0.262013
vt 0.314374 0.756786
vt 0.947692 0.871508
vt 0.947706 0.868413
vt 0.953219 0.868548
vt 0.318035 0.764224
vt 0.933714 0.005649
vt 0.953496 0.932365
vt 0.948390 0.439629
vt 0.953602 0.433363
vt 0.947687 0.461440
vt 0.952965 0.970756
vt 0.953627 0.981983
vt 0.947677 0.982073
vt 0.939591 0.124148
vt 0.953325 0.460976
vt 0.947510 0.452166
vt 0.947659 0.933546
vt 0.953674 0.908037
vt 0.947214 0.433846
vt 0.269478 0.900967
vt 0.326819 0.830349
vt 0.933812 0.123733
vt 0.953640 0.868426
vt 0.340127 0.794874
vt 0.328845 0.849727
vt 0.947665 0.330074
vt 0.939625 0.352908
vt 0.318251 0.761318
vt 0.933812 0.363021
vt 0.335596 0.799975
vt 0.203836 0.930120
s 1
usemtl mouse_tex
f 123/1/1 121/2/2 129/3/3
f 274/4/4 230/5/5 273/6/6
f 235/7/7 166/8/8 165/9/9
f 2/10/10 250/11/11 249/12/12
f 7/13/13 250/11/11 2/10/10
f 118/14/14 112/15/15 111/16/16
f 90/17/17 41/18/18 272/19/19
f 94/20/20 52/21/21 50/22/22
f 276/23/23 62/24/24 26/25/25
f 77/26/26 71/27/27 70/28/28
f 13/29/29 88/30/30 14/31/31
f 217/32/32 127/33/33 202/34/34
f 99/35/35 63/36/36 98/37/37
f 16/38/38 20/39/39 6/40/40
f 23/41/41 21/42/42 22/43/43
f 151/44/44 152/45/45 193/46/46
f 240/47/47 233/48/48 232/49/49
f 10/50/50 17/51/51 16/38/38
f 27/52/52 28/53/53 20/39/39
f 223/54/54 109/55/55 224/56/56
f 39/57/57 62/24/24 276/23/23
f 186/58/58 187/59/59 183/60/60
f 121/2/2 117/61/61 115/62/62
f 187/59/59 188/63/63 183/60/60
f 277/64/64 259/65/65 26/25/25
f 199/66/66 197/67/67 198/68/68
f 132/69/69 178/70/70 177/71/71
f 191/72/72 210/73/73 179/74/74
f 272/19/19 42/75/75 103/76/76
f 6/40/40 20/39/39 13/29/29
f 203/77/77 106/78/78 204/79/79
f 195/80/80 207/81/81 220/82/82
f 4/83/83 2/10/10 3/84/84
f 138/85/85 123/1/1 129/3/3
f 45/86/86 23/41/41 22/43/43
f 61/87/87 98/37/37 35/88/88
f 189/89/89 191/72/72 188/63/63
f 73/90/90 79/91/91 75/92/92
f 25/93/93 87/94/94 27/52/52
f 29/95/95 88/30/30 89/96/96
f 29/95/95 89/96/96 30/97/97
f 73/90/90 56/98/98 77/26/26
f 237/99/99 190/100/100 166/8/8
f 36/101/101 34/102/102 97/103/103
f 231/104/104 150/105/105 244/106/106
f 238/107/107 214/108/108 190/100/100
f 207/81/81 196/109/109 206/110/110
f 102/111/111 82/112/112 101/113/113
f 36/101/101 97/103/103 21/42/42
f 95/114/114 259/65/65 277/64/64
f 181/115/115 179/74/74 177/71/71
f 40/116/116 38/117/117 39/57/57
f 67/118/118 87/94/94 25/93/93
f 62/24/24 35/88/88 277/64/64
f 2/10/10 4/83/83 5/119/119
f 157/120/120 268/121/121 206/110/110
f 273/122/122 278/123/123 261/124/124
f 262/125/125 36/101/101 96/126/126
f 98/37/37 97/103/103 34/102/102
f 21/42/42 97/103/103 22/43/43
f 3/84/84 2/10/10 249/12/12
f 212/127/127 166/8/8 190/100/100
f 102/111/111 104/128/128 271/129/129
f 225/130/130 248/131/131 110/132/132
f 261/133/133 278/134/134 33/135/135
f 47/136/136 156/137/137 46/138/138
f 58/139/139 59/140/140 253/141/141
f 167/142/142 187/59/59 186/58/58
f 94/20/20 74/143/143 75/92/92
f 100/144/144 43/145/145 99/35/35
f 9/146/146 8/147/147 247/148/148
f 130/149/149 129/3/3 115/62/62
f 198/68/68 275/150/150 199/66/66
f 86/151/151 64/152/152 65/153/153
f 64/152/152 23/41/41 45/86/86
f 210/73/73 269/154/154 194/155/155
f 70/28/28 89/96/96 88/30/30
f 140/156/156 106/78/78 105/157/157
f 166/8/8 212/127/127 211/158/158
f 6/40/40 265/159/159 264/160/160
f 257/161/161 50/22/22 258/162/162
f 154/163/163 152/45/45 151/44/44
f 257/161/161 74/143/143 94/20/20
f 92/164/164 48/165/165 49/166/166
f 96/126/126 10/50/50 9/167/167
f 41/168/168 244/106/106 42/169/169
f 257/161/161 256/170/170 74/143/143
f 207/81/81 267/171/171 221/172/172
f 106/78/78 139/173/173 120/174/174
f 184/175/175 180/176/176 137/177/177
f 252/178/178 251/179/179 15/180/180
f 37/181/181 99/35/35 61/87/87
f 132/69/69 177/71/71 176/182/182
f 131/183/183 132/69/69 202/34/34
f 132/69/69 133/184/184 178/70/70
f 254/185/185 235/186/186 234/187/187
f 181/115/115 177/71/71 178/70/70
f 23/41/41 86/151/151 24/188/188
f 66/189/189 80/190/190 78/191/191
f 87/94/94 68/192/192 28/53/53
f 202/34/34 154/163/163 218/193/193
f 213/194/194 190/100/100 214/108/108
f 95/114/114 277/64/64 34/102/102
f 149/195/195 173/196/196 146/197/197
f 78/191/191 72/198/198 69/199/199
f 180/176/176 178/70/70 133/184/184
f 113/200/200 112/15/15 114/201/201
f 113/200/200 227/202/202 112/15/15
f 16/38/38 27/52/52 20/39/39
f 114/203/203 8/147/147 264/204/204
f 209/205/205 206/110/110 196/109/109
f 194/155/155 195/80/80 193/46/46
f 15/180/180 14/31/31 29/95/95
f 91/206/206 81/207/207 82/112/112
f 6/40/40 13/29/29 11/208/208
f 36/101/101 95/114/114 34/102/102
f 122/209/209 124/210/210 121/2/2
f 73/90/90 77/26/26 79/91/91
f 218/193/193 174/211/211 145/212/212
f 218/193/193 154/163/163 174/211/211
f 137/177/177 122/209/209 123/1/1
f 182/213/213 181/115/115 180/176/176
f 86/151/151 65/153/153 25/93/93
f 192/214/214 153/215/215 176/182/182
f 64/152/152 45/86/86 44/216/216
f 107/217/217 251/218/218 239/219/219
f 251/218/218 107/217/217 1/220/220
f 140/156/156 105/157/157 107/221/221
f 175/222/222 171/223/223 172/224/224
f 118/14/14 105/157/157 120/174/174
f 264/204/204 113/225/225 114/203/203
f 247/148/148 116/226/226 228/227/227
f 155/228/228 268/121/121 243/229/229
f 236/230/230 169/231/231 168/232/232
f 258/162/162 51/233/233 240/234/234
f 271/129/129 91/206/206 102/111/111
f 24/188/188 18/235/235 21/42/42
f 211/158/158 163/236/236 210/73/73
f 66/189/189 93/237/237 80/190/190
f 15/180/180 12/238/238 14/31/31
f 259/239/239 136/240/240 26/241/241
f 59/242/242 234/187/187 236/243/243
f 255/244/244 238/245/245 237/246/246
f 265/159/159 5/119/119 4/83/83
f 107/221/221 105/157/157 108/247/247
f 91/206/206 271/129/129 48/165/165
f 212/127/127 162/248/248 211/158/158
f 214/249/249 256/250/250 257/251/251
f 213/194/194 159/252/252 162/248/248
f 269/154/154 158/253/253 208/254/254
f 112/15/15 118/14/14 119/255/255
f 170/256/256 52/257/257 53/258/258
f 170/256/256 53/258/258 60/259/259
f 45/86/86 43/145/145 44/216/216
f 31/260/260 141/261/261 85/262/262
f 30/97/97 253/141/141 252/178/178
f 93/237/237 92/164/164 60/263/263
f 116/226/226 247/148/148 8/147/147
f 223/264/264 250/265/265 1/220/220
f 253/266/266 59/242/242 252/267/267
f 142/268/268 245/269/269 32/270/270
f 207/81/81 195/80/80 196/109/109
f 50/271/271 52/257/257 241/272/272
f 194/155/155 209/205/205 195/80/80
f 101/113/113 100/144/144 37/181/181
f 262/125/125 261/133/133 36/101/101
f 179/74/74 210/73/73 192/214/214
f 272/19/19 41/18/18 42/75/75
f 107/221/221 108/247/247 223/54/54
f 169/231/231 167/142/142 168/232/232
f 154/163/163 148/273/273 174/211/211
f 7/13/13 2/10/10 5/119/119
f 226/274/274 225/275/275 111/16/16
f 44/216/216 82/112/112 81/207/207
f 248/131/131 226/276/276 3/277/277
f 4/278/278 227/279/279 265/280/280
f 199/66/66 201/281/281 141/282/282
f 140/156/156 239/283/283 204/79/79
f 185/284/284 183/60/60 138/85/85
f 10/50/50 16/38/38 8/285/285
f 119/255/255 118/14/14 129/3/3
f 73/90/90 54/286/286 56/98/98
f 211/158/158 210/73/73 191/72/72
f 84/287/287 83/288/288 40/116/116
f 164/289/289 161/290/290 160/291/291
f 183/60/60 182/213/213 184/175/175
f 111/16/16 108/247/247 118/14/14
f 175/222/222 143/292/292 173/196/196
f 112/15/15 119/255/255 130/149/149
f 54/286/286 254/293/293 55/294/294
f 249/295/295 110/132/132 248/131/131
f 125/296/296 228/297/297 117/61/61
f 98/37/37 22/43/43 97/103/103
f 38/117/117 37/181/181 61/87/87
f 62/24/24 277/64/64 26/25/25
f 113/225/225 264/204/204 265/280/280
f 127/33/33 126/298/298 131/183/183
f 125/296/296 128/299/299 216/300/300
f 77/26/26 78/191/191 79/91/91
f 12/238/238 1/301/301 250/11/11
f 28/53/53 88/30/30 13/29/29
f 124/210/210 127/33/33 125/296/296
f 156/302/302 268/121/121 155/228/228
f 157/120/120 243/229/229 268/121/121
f 88/30/30 68/192/192 72/198/198
f 12/238/238 7/13/13 11/208/208
f 184/175/175 182/213/213 180/176/176
f 267/171/171 206/110/110 268/121/121
f 247/148/148 261/124/124 263/303/303
f 95/114/114 33/135/135 259/65/65
f 159/304/304 160/305/305 161/306/306
f 75/92/92 76/307/307 94/20/20
f 270/308/308 240/309/309 232/310/310
f 39/57/57 61/87/87 62/24/24
f 266/311/311 228/227/227 216/312/312
f 91/206/206 92/164/164 81/207/207
f 19/313/313 10/50/50 96/126/126
f 203/77/77 185/284/284 139/173/173
f 217/32/32 145/212/212 144/314/314
f 215/315/315 273/6/6 246/316/316
f 146/197/197 174/211/211 148/273/273
f 173/196/196 145/212/212 174/211/211
f 89/96/96 70/28/28 71/27/27
f 152/45/45 176/182/182 153/215/215
f 51/317/317 241/272/272 240/47/47
f 36/101/101 261/133/133 95/114/114
f 266/311/311 246/318/318 247/148/148
f 219/319/319 220/82/82 148/273/273
f 207/81/81 221/172/172 220/82/82
f 198/68/68 197/67/67 200/320/320
f 165/9/9 189/89/89 187/59/59
f 146/197/197 173/196/196 174/211/211
f 93/237/237 78/191/191 80/190/190
f 84/287/287 32/321/321 245/322/322
f 92/164/164 91/206/206 48/165/165
f 270/323/323 232/324/324 164/289/289
f 209/205/205 157/120/120 206/110/110
f 168/232/232 167/142/142 186/58/58
f 59/140/140 58/139/139 55/294/294
f 217/32/32 218/193/193 145/212/212
f 183/60/60 188/63/63 182/213/213
f 158/253/253 242/325/325 157/120/120
f 267/171/171 207/81/81 206/110/110
f 44/216/216 43/145/145 82/112/112
f 27/52/52 87/94/94 28/53/53
f 215/315/315 274/4/4 273/6/6
f 83/288/288 90/17/17 101/113/113
f 106/78/78 203/77/77 139/173/173
f 74/143/143 256/170/170 255/326/326
f 252/178/178 15/180/180 29/95/95
f 274/4/4 136/327/327 230/5/5
f 115/62/62 129/3/3 121/2/2
f 128/299/299 127/33/33 217/32/32
f 248/328/328 3/84/84 249/12/12
f 213/194/194 212/127/127 190/100/100
f 197/67/67 147/329/329 146/197/197
f 53/330/330 93/237/237 60/263/263
f 60/263/263 92/164/164 49/166/166
f 96/126/126 263/331/331 262/125/125
f 266/332/332 215/315/315 246/316/316
f 242/333/333 158/334/334 170/256/256
f 278/123/123 230/335/335 260/336/336
f 165/9/9 167/142/142 234/337/337
f 15/180/180 251/179/179 12/238/238
f 45/86/86 63/36/36 43/145/145
f 241/272/272 162/338/338 159/304/304
f 242/333/333 170/256/256 60/259/259
f 23/41/41 64/152/152 86/151/151
f 60/259/259 49/339/339 242/333/333
f 23/41/41 24/188/188 21/42/42
f 189/89/89 211/158/158 191/72/72
f 77/26/26 72/198/198 78/191/191
f 7/13/13 12/238/238 250/11/11
f 61/87/87 99/35/35 98/37/37
f 202/34/34 132/69/69 176/182/182
f 6/40/40 11/208/208 5/119/119
f 70/28/28 88/30/30 72/198/198
f 109/55/55 108/247/247 111/16/16
f 126/298/298 133/184/184 132/69/69
f 152/45/45 202/34/34 176/182/182
f 210/73/73 163/236/236 170/340/340
f 37/181/181 100/144/144 99/35/35
f 187/59/59 189/89/89 188/63/63
f 57/341/341 74/143/143 255/326/326
f 177/71/71 192/214/214 176/182/182
f 63/36/36 45/86/86 22/43/43
f 54/286/286 255/326/326 254/293/293
f 163/342/342 162/338/338 52/257/257
f 140/343/343 107/217/217 239/219/219
f 34/102/102 277/64/64 35/88/88
f 65/153/153 44/216/216 66/189/189
f 35/88/88 98/37/37 34/102/102
f 266/332/332 128/299/299 144/314/314
f 71/27/27 58/139/139 89/96/96
f 14/31/31 88/30/30 29/95/95
f 11/208/208 14/31/31 12/238/238
f 147/329/329 199/66/66 141/282/282
f 102/111/111 91/206/206 82/112/112
f 246/318/318 273/122/122 261/124/124
f 275/150/150 231/344/344 142/345/345
f 51/233/233 258/162/162 241/346/346
f 52/21/21 94/20/20 76/307/307
f 75/92/92 79/91/91 76/307/307
f 160/291/291 213/194/194 214/108/108
f 98/37/37 63/36/36 22/43/43
f 83/288/288 101/113/113 38/117/117
f 129/3/3 118/14/14 120/174/174
f 43/145/145 101/113/113 82/112/112
f 167/142/142 165/9/9 187/59/59
f 172/224/224 135/347/347 134/348/348
f 229/349/349 260/336/336 230/335/335
f 269/154/154 170/340/340 158/253/253
f 192/214/214 210/73/73 194/155/155
f 156/302/302 267/171/171 268/121/121
f 33/135/135 278/134/134 260/350/350
f 273/122/122 230/335/335 278/123/123
f 184/175/175 137/177/177 123/1/1
f 77/26/26 56/98/98 71/27/27
f 112/15/15 227/202/202 111/16/16
f 75/92/92 74/143/143 57/341/341
f 125/296/296 127/33/33 128/299/299
f 10/50/50 18/235/235 17/51/51
f 67/118/118 65/153/153 66/189/189
f 28/53/53 68/192/192 88/30/30
f 170/256/256 163/342/342 52/257/257
f 69/199/199 66/189/189 78/191/191
f 55/294/294 71/27/27 56/98/98
f 123/1/1 122/209/209 121/2/2
f 79/91/91 52/21/21 76/307/307
f 140/156/156 204/79/79 106/78/78
f 249/295/295 224/351/351 110/132/132
f 24/188/188 86/151/151 25/93/93
f 195/80/80 151/44/44 193/46/46
f 267/171/171 156/302/302 222/352/352
f 200/320/320 220/82/82 221/172/172
f 90/17/17 102/111/111 101/113/113
f 168/232/232 203/77/77 204/79/79
f 62/24/24 61/87/87 35/88/88
f 81/207/207 66/189/189 44/216/216
f 41/168/168 245/269/269 244/106/106
f 263/303/303 9/146/146 247/148/148
f 138/85/85 184/175/175 123/1/1
f 234/337/337 235/7/7 165/9/9
f 120/174/174 105/157/157 106/78/78
f 33/353/353 260/354/354 229/355/355
f 177/71/71 179/74/74 192/214/214
f 193/46/46 152/45/45 153/215/215
f 121/2/2 124/210/210 125/296/296
f 66/189/189 69/199/199 67/118/118
f 132/69/69 131/183/183 126/298/298
f 195/80/80 209/205/205 196/109/109
f 205/356/356 221/172/172 267/171/171
f 185/284/284 186/58/58 183/60/60
f 252/178/178 29/95/95 30/97/97
f 105/157/157 118/14/14 108/247/247
f 173/196/196 143/292/292 145/212/212
f 202/34/34 127/33/33 131/183/183
f 154/163/163 202/34/34 152/45/45
f 137/177/177 133/184/184 122/209/209
f 133/184/184 137/177/177 180/176/176
f 138/85/85 183/60/60 184/175/175
f 6/40/40 5/119/119 265/159/159
f 134/348/348 175/222/222 172/224/224
f 214/108/108 164/289/289 160/291/291
f 254/185/185 255/244/244 235/186/186
f 220/82/82 151/44/44 195/80/80
f 213/194/194 160/291/291 159/252/252
f 4/278/278 226/276/276 227/279/279
f 270/308/308 258/357/357 240/309/309
f 180/176/176 181/115/115 178/70/70
f 217/32/32 202/34/34 218/193/193
f 73/90/90 57/341/341 54/286/286
f 68/192/192 67/118/118 69/199/199
f 197/67/67 146/197/197 148/273/273
f 72/198/198 77/26/26 70/28/28
f 130/149/149 119/255/255 129/3/3
f 31/260/260 172/358/358 141/261/261
f 30/97/97 58/139/139 253/141/141
f 236/243/243 239/219/219 59/242/242
f 129/3/3 139/173/173 138/85/85
f 194/155/155 208/254/254 209/205/205
f 159/304/304 161/306/306 241/272/272
f 46/138/138 243/359/359 48/360/360
f 211/158/158 162/248/248 163/236/236
f 222/361/361 156/137/137 47/136/136
f 40/116/116 83/288/288 38/117/117
f 114/203/203 116/226/226 8/147/147
f 201/362/362 142/363/363 32/364/364
f 236/243/243 234/187/187 169/365/365
f 210/73/73 170/340/340 269/154/154
f 134/348/348 135/347/347 136/327/327
f 65/153/153 67/118/118 25/93/93
f 103/366/366 42/169/169 150/105/105
f 59/242/242 254/185/185 234/187/187
f 59/242/242 239/219/219 252/267/267
f 244/106/106 245/269/269 231/104/104
f 270/308/308 214/249/249 257/251/251
f 214/249/249 255/244/244 256/250/250
f 251/179/179 1/301/301 12/238/238
f 179/74/74 188/63/63 191/72/72
f 49/339/339 48/360/360 243/359/359
f 243/359/359 242/333/333 49/339/339
f 205/356/356 198/68/68 200/320/320
f 46/138/138 156/137/137 155/367/367
f 227/202/202 226/274/274 111/16/16
f 142/268/268 231/104/104 245/269/269
f 32/364/364 85/262/262 201/362/362
f 245/322/322 83/288/288 84/287/287
f 257/251/251 258/357/357 270/308/308
f 85/262/262 141/261/261 201/362/362
f 204/79/79 239/283/283 236/230/230
f 26/241/241 172/358/358 276/368/368
f 26/241/241 136/240/240 135/369/369
f 243/359/359 157/370/370 242/333/333
f 247/148/148 246/318/318 261/124/124
f 18/235/235 24/188/188 17/51/51
f 154/163/163 151/44/44 219/319/319
f 117/61/61 116/371/371 115/62/62
f 248/131/131 225/130/130 226/276/276
f 204/79/79 236/230/230 168/232/232
f 85/372/372 84/287/287 40/116/116
f 18/235/235 19/313/313 21/42/42
f 17/51/51 24/188/188 25/93/93
f 20/39/39 28/53/53 13/29/29
f 214/108/108 270/323/323 164/289/289
f 259/239/239 229/355/355 136/240/240
f 275/150/150 198/68/68 205/356/356
f 19/313/313 18/235/235 10/50/50
f 93/237/237 81/207/207 92/164/164
f 244/106/106 150/105/105 42/169/169
f 149/195/195 175/222/222 173/196/196
f 141/282/282 172/224/224 171/223/223
f 214/249/249 238/245/245 255/244/244
f 26/241/241 135/369/369 172/358/358
f 55/373/373 254/185/185 59/242/242
f 240/47/47 161/306/306 233/48/48
f 193/46/46 192/214/214 194/155/155
f 157/120/120 208/254/254 158/253/253
f 148/273/273 220/82/82 197/67/67
f 154/163/163 219/319/319 148/273/273
f 227/279/279 113/225/225 265/280/280
f 103/366/366 150/105/105 222/361/361
f 136/240/240 229/355/355 230/374/374
f 128/299/299 217/32/32 144/314/314
f 235/7/7 237/99/99 166/8/8
f 111/16/16 225/275/275 109/55/55
f 189/89/89 166/8/8 211/158/158
f 11/208/208 7/13/13 5/119/119
f 19/313/313 96/126/126 36/101/101
f 48/165/165 271/129/129 46/375/375
f 89/96/96 58/139/139 30/97/97
f 31/376/376 39/57/57 276/23/23
f 274/4/4 134/348/348 136/327/327
f 175/222/222 149/195/195 171/223/223
f 147/329/329 149/195/195 146/197/197
f 233/48/48 164/377/377 232/49/49
f 228/227/227 116/226/226 117/378/378
f 224/351/351 250/265/265 223/264/264
f 125/296/296 216/300/300 228/297/297
f 50/22/22 257/161/161 94/20/20
f 185/284/284 168/232/232 186/58/58
f 225/275/275 224/56/56 109/55/55
f 150/379/379 267/171/171 222/352/352
f 258/162/162 50/22/22 241/346/346
f 95/114/114 261/133/133 33/135/135
f 116/371/371 130/149/149 115/62/62
f 237/99/99 238/107/107 190/100/100
f 67/118/118 68/192/192 87/94/94
f 72/198/198 68/192/192 69/199/199
f 47/136/136 103/366/366 222/361/361
f 175/222/222 274/4/4 143/292/292
f 162/338/338 241/272/272 52/257/257
f 228/227/227 266/311/311 247/148/148
f 169/231/231 234/337/337 167/142/142
f 117/61/61 121/2/2 125/296/296
f 16/38/38 17/51/51 27/52/52
f 182/213/213 188/63/63 181/115/115
f 205/356/356 231/344/344 275/150/150
f 201/281/281 275/150/150 142/345/345
f 263/331/331 96/126/126 9/167/167
f 122/209/209 126/298/298 124/210/210
f 251/218/218 252/267/267 239/219/219
f 194/155/155 269/154/154 208/254/254
f 99/35/35 43/145/145 63/36/36
f 171/223/223 147/329/329 141/282/282
f 19/313/313 36/101/101 21/42/42
f 272/19/19 102/111/111 90/17/17
f 114/201/201 112/15/15 130/149/149
f 143/292/292 274/4/4 215/315/315
f 262/380/380 263/303/303 261/124/124
f 78/191/191 53/330/330 79/91/91
f 53/330/330 52/21/21 79/91/91
f 93/237/237 53/330/330 78/191/191
f 107/217/217 223/264/264 1/220/220
f 90/17/17 83/288/288 41/18/18
f 143/292/292 144/314/314 145/212/212
f 271/129/129 104/128/128 47/381/381
f 124/210/210 126/298/298 127/33/33
f 104/128/128 272/19/19 103/76/76
f 237/246/246 235/186/186 255/244/244
f 8/285/285 6/40/40 264/160/160
f 57/341/341 73/90/90 75/92/92
f 223/54/54 108/247/247 109/55/55
f 138/85/85 139/173/173 185/284/284
f 274/4/4 175/222/222 134/348/348
f 9/167/167 10/50/50 8/285/285
f 38/117/117 101/113/113 37/181/181
f 31/376/376 40/116/116 39/57/57
f 212/127/127 213/194/194 162/248/248
f 17/51/51 25/93/93 27/52/52
f 56/98/98 54/286/286 55/294/294
f 8/285/285 16/38/38 6/40/40
f 39/57/57 38/117/117 61/87/87
f 47/381/381 104/128/128 103/76/76
f 47/381/381 46/375/375 271/129/129
f 84/287/287 85/372/372 32/321/321
f 197/67/67 199/66/66 147/329/329
f 266/332/332 144/314/314 215/315/315
f 126/298/298 122/209/209 133/184/184
f 54/286/286 57/341/341 255/326/326
f 65/153/153 64/152/152 44/216/216
f 266/332/332 216/300/300 128/299/299
f 71/27/27 55/294/294 58/139/139
f 11/208/208 13/29/29 14/31/31
f 43/145/145 100/144/144 101/113/113
f 200/320/320 197/67/67 220/82/82
f 81/207/207 93/237/237 66/189/189
f 205/356/356 200/320/320 221/172/172
f 220/82/82 219/319/319 151/44/44
f 4/278/278 3/277/277 226/276/276
f 31/260/260 276/368/368 172/358/358
f 129/3/3 120/174/174 139/173/173
f 46/138/138 155/367/367 243/359/359
f 179/74/74 181/115/115 188/63/63
f 245/322/322 41/18/18 83/288/288
f 259/239/239 33/353/353 229/355/355
f 240/47/47 241/272/272 161/306/306
f 193/46/46 153/215/215 192/214/214
f 157/120/120 209/205/205 208/254/254
f 189/89/89 165/9/9 166/8/8
f 233/48/48 161/306/306 164/377/377
f 224/351/351 249/295/295 250/265/265
f 185/284/284 203/77/77 168/232/232
f 225/275/275 110/382/382 224/56/56
f 150/379/379 205/356/356 267/171/171
f 116/371/371 114/201/201 130/149/149
f 205/356/356 150/379/379 231/344/344
f 201/281/281 199/66/66 275/150/150
f 171/223/223 149/195/195 147/329/329
f 272/19/19 104/128/128 102/111/111
f 143/292/292 215/315/315 144/314/314
f 31/376/376 85/372/372 40/116/116
