# Blender 5.2.0 LTS
# www.blender.org
mtllib Base_top.mtl
o Base_top
v 0.074757 0.342546 0.180480
v 0.104460 0.342546 0.138509
v 0.000000 0.342546 0.138509
v 0.129085 0.333123 -0.000000
v 0.138509 0.342546 -0.000000
v 0.138509 0.342546 -0.104460
v 0.129085 0.333123 -0.103997
v 0.104460 0.342546 -0.138509
v 0.000000 0.342546 -0.138509
v 0.000000 0.333123 -0.129085
v 0.103997 0.333123 -0.129085
v 0.103997 0.333123 0.129085
v 0.000000 0.333123 0.129085
v 0.000000 0.342546 0.138509
v 0.104460 0.342546 0.138509
v 0.138509 0.342546 0.104460
v 0.138509 0.342546 -0.000000
v 0.129085 0.333123 -0.000000
v 0.129085 0.333123 0.103997
v 0.127175 0.333123 0.113598
v 0.121737 0.333123 0.121737
v 0.128433 0.342546 0.128433
v 0.135924 0.342546 0.117222
v 0.121737 0.333123 0.121737
v 0.113598 0.333123 0.127175
v 0.117222 0.342546 0.135924
v 0.128433 0.342546 0.128433
v 0.113598 0.333123 0.127175
v 0.103997 0.333123 0.129085
v 0.104460 0.342546 0.138509
v 0.117222 0.342546 0.135924
v 0.113598 0.333123 -0.127175
v 0.121737 0.333123 -0.121737
v 0.128433 0.342546 -0.128433
v 0.117222 0.342546 -0.135924
v 0.121737 0.333123 -0.121737
v 0.127175 0.333123 -0.113598
v 0.135924 0.342546 -0.117222
v 0.128433 0.342546 -0.128433
v 0.127175 0.333123 -0.113598
v 0.129085 0.333123 -0.103997
v 0.138509 0.342546 -0.104460
v 0.135924 0.342546 -0.117222
v -0.138509 0.342546 0.104460
v -0.135924 0.342546 0.117222
v -0.127175 0.333123 0.113598
v -0.129085 0.333123 0.103997
v 0.129085 0.333123 0.103997
v 0.127175 0.333123 0.113598
v 0.135924 0.342546 0.117222
v 0.138509 0.342546 0.104460
v -0.074757 0.342546 -0.180480
v -0.104460 0.342546 -0.138509
v 0.000000 0.342546 -0.138509
v -0.138509 0.342546 -0.000000
v -0.129085 0.333123 -0.000000
v -0.129085 0.333123 -0.103997
v -0.138509 0.342546 -0.104460
v -0.104460 0.342546 -0.138509
v -0.103997 0.333123 -0.129085
v 0.000000 0.333123 -0.129085
v 0.000000 0.342546 -0.138509
v -0.104460 0.342546 0.138509
v 0.000000 0.342546 0.138509
v 0.000000 0.333123 0.129085
v -0.103997 0.333123 0.129085
v -0.138509 0.342546 0.104460
v -0.129085 0.333123 0.103997
v -0.129085 0.333123 -0.000000
v -0.138509 0.342546 -0.000000
v -0.135924 0.342546 0.117222
v -0.128433 0.342546 0.128433
v -0.121737 0.333123 0.121737
v -0.127175 0.333123 0.113598
v -0.128433 0.342546 0.128433
v -0.117222 0.342546 0.135924
v -0.113598 0.333123 0.127175
v -0.121737 0.333123 0.121737
v -0.117222 0.342546 0.135924
v -0.104460 0.342546 0.138509
v -0.103997 0.333123 0.129085
v -0.113598 0.333123 0.127175
v -0.117222 0.342546 -0.135924
v -0.128433 0.342546 -0.128433
v -0.121737 0.333123 -0.121737
v -0.113598 0.333123 -0.127175
v -0.128433 0.342546 -0.128433
v -0.135924 0.342546 -0.117222
v -0.127175 0.333123 -0.113598
v -0.121737 0.333123 -0.121737
v -0.135924 0.342546 -0.117222
v -0.138509 0.342546 -0.104460
v -0.129085 0.333123 -0.103997
v -0.127175 0.333123 -0.113598
v -0.104460 0.342546 -0.138509
v -0.117222 0.342546 -0.135924
v -0.113598 0.333123 -0.127175
v -0.103997 0.333123 -0.129085
v 0.103997 0.333123 -0.129085
v 0.113598 0.333123 -0.127175
v 0.117222 0.342546 -0.135924
v 0.104460 0.342546 -0.138509
v 0.138509 0.342546 -0.104460
v 0.138509 0.342546 -0.000000
v 0.180480 0.342546 -0.074757
v 0.138509 0.342546 -0.000000
v 0.138509 0.342546 0.104460
v 0.180480 0.342546 0.074757
v -0.138133 0.342546 0.138133
v -0.128433 0.342546 0.128433
v -0.135924 0.342546 0.117222
v -0.151007 0.342546 0.123928
v 0.162427 0.342546 0.108531
v 0.172283 0.342546 0.092087
v 0.138509 0.342546 0.104460
v 0.172283 0.342546 0.092087
v 0.180480 0.342546 0.074757
v 0.138509 0.342546 0.104460
v 0.180480 0.342546 0.074757
v 0.186937 0.342546 0.056707
v 0.138509 0.342546 -0.000000
v 0.186937 0.342546 0.056707
v 0.191596 0.342546 0.038111
v 0.138509 0.342546 -0.000000
v 0.191596 0.342546 0.038111
v 0.194409 0.342546 0.019148
v 0.138509 0.342546 -0.000000
v 0.194409 0.342546 0.019148
v 0.195350 0.342546 -0.000000
v 0.138509 0.342546 -0.000000
v 0.195350 0.342546 -0.000000
v 0.194409 0.342546 -0.019148
v 0.138509 0.342546 -0.000000
v 0.194409 0.342546 -0.019148
v 0.191596 0.342546 -0.038111
v 0.138509 0.342546 -0.000000
v 0.191596 0.342546 -0.038111
v 0.186937 0.342546 -0.056707
v 0.138509 0.342546 -0.000000
v 0.186937 0.342546 -0.056707
v 0.180480 0.342546 -0.074757
v 0.138509 0.342546 -0.000000
v 0.180480 0.342546 -0.074757
v 0.172283 0.342546 -0.092087
v 0.138509 0.342546 -0.104460
v 0.172283 0.342546 -0.092087
v 0.162428 0.342546 -0.108531
v 0.138509 0.342546 -0.104460
v -0.151007 0.342546 -0.123928
v -0.162428 0.342546 -0.108531
v -0.138509 0.342546 -0.104460
v -0.135924 0.342546 -0.117222
v -0.138127 0.342546 -0.138127
v -0.128433 0.342546 -0.128433
v -0.117222 0.342546 -0.135924
v -0.123928 0.342546 -0.151007
v 0.138133 0.342546 0.138133
v 0.128433 0.342546 0.128433
v 0.117222 0.342546 0.135924
v 0.123928 0.342546 0.151007
v 0.151007 0.342546 -0.123928
v 0.135924 0.342546 -0.117222
v 0.138509 0.342546 -0.104460
v 0.162428 0.342546 -0.108531
v -0.108531 0.342546 0.162428
v -0.092087 0.342546 0.172283
v -0.104460 0.342546 0.138509
v -0.092087 0.342546 0.172283
v -0.074757 0.342546 0.180480
v -0.104460 0.342546 0.138509
v -0.074757 0.342546 0.180480
v -0.056707 0.342546 0.186938
v 0.000000 0.342546 0.138509
v -0.056707 0.342546 0.186938
v -0.038111 0.342546 0.191596
v 0.000000 0.342546 0.138509
v -0.038111 0.342546 0.191596
v -0.019148 0.342546 0.194409
v 0.000000 0.342546 0.138509
v -0.019148 0.342546 0.194409
v 0.000000 0.342546 0.195350
v 0.000000 0.342546 0.138509
v 0.000000 0.342546 0.195350
v 0.019148 0.342546 0.194409
v 0.000000 0.342546 0.138509
v 0.019148 0.342546 0.194409
v 0.038111 0.342546 0.191596
v 0.000000 0.342546 0.138509
v 0.038111 0.342546 0.191596
v 0.056707 0.342546 0.186938
v 0.000000 0.342546 0.138509
v 0.056707 0.342546 0.186938
v 0.074757 0.342546 0.180480
v 0.000000 0.342546 0.138509
v 0.074757 0.342546 0.180480
v 0.092087 0.342546 0.172283
v 0.104460 0.342546 0.138509
v 0.092087 0.342546 0.172283
v 0.108531 0.342546 0.162428
v 0.104460 0.342546 0.138509
v -0.104460 0.342546 0.138509
v -0.117222 0.342546 0.135924
v -0.123928 0.342546 0.151007
v -0.108531 0.342546 0.162428
v 0.138133 0.342546 0.138133
v 0.151007 0.342546 0.123928
v 0.135924 0.342546 0.117222
v 0.128433 0.342546 0.128433
v 0.000000 0.342546 0.138509
v -0.104460 0.342546 0.138509
v -0.074757 0.342546 0.180480
v -0.138509 0.342546 0.104460
v -0.138509 0.342546 -0.000000
v -0.180480 0.342546 0.074757
v -0.138509 0.342546 -0.000000
v -0.138509 0.342546 -0.104460
v -0.180480 0.342546 -0.074757
v 0.138127 0.342546 -0.138127
v 0.128433 0.342546 -0.128433
v 0.135924 0.342546 -0.117222
v 0.151007 0.342546 -0.123928
v -0.123928 0.342546 -0.151007
v -0.117222 0.342546 -0.135924
v -0.104460 0.342546 -0.138509
v -0.108531 0.342546 -0.162428
v -0.162428 0.342546 -0.108531
v -0.172283 0.342546 -0.092087
v -0.138509 0.342546 -0.104460
v -0.172283 0.342546 -0.092087
v -0.180480 0.342546 -0.074757
v -0.138509 0.342546 -0.104460
v -0.180480 0.342546 -0.074757
v -0.186937 0.342546 -0.056707
v -0.138509 0.342546 -0.000000
v -0.186937 0.342546 -0.056707
v -0.191596 0.342546 -0.038111
v -0.138509 0.342546 -0.000000
v -0.191596 0.342546 -0.038111
v -0.194409 0.342546 -0.019148
v -0.138509 0.342546 -0.000000
v -0.194409 0.342546 -0.019148
v -0.195350 0.342546 -0.000000
v -0.138509 0.342546 -0.000000
v -0.195350 0.342546 -0.000000
v -0.194409 0.342546 0.019148
v -0.138509 0.342546 -0.000000
v -0.194409 0.342546 0.019148
v -0.191596 0.342546 0.038111
v -0.138509 0.342546 -0.000000
v -0.191596 0.342546 0.038111
v -0.186937 0.342546 0.056707
v -0.138509 0.342546 -0.000000
v -0.186937 0.342546 0.056707
v -0.180480 0.342546 0.074757
v -0.138509 0.342546 -0.000000
v -0.180480 0.342546 0.074757
v -0.172283 0.342546 0.092087
v -0.138509 0.342546 0.104460
v -0.172283 0.342546 0.092087
v -0.162427 0.342546 0.108531
v -0.138509 0.342546 0.104460
v 0.151007 0.342546 0.123928
v 0.162427 0.342546 0.108531
v 0.138509 0.342546 0.104460
v 0.135924 0.342546 0.117222
v -0.138127 0.342546 -0.138127
v -0.151007 0.342546 -0.123928
v -0.135924 0.342546 -0.117222
v -0.128433 0.342546 -0.128433
v 0.123928 0.342546 0.151007
v 0.117222 0.342546 0.135924
v 0.104460 0.342546 0.138509
v 0.108531 0.342546 0.162428
v -0.151007 0.342546 0.123928
v -0.135924 0.342546 0.117222
v -0.138509 0.342546 0.104460
v -0.162427 0.342546 0.108531
v 0.108531 0.342546 -0.162428
v 0.092087 0.342546 -0.172283
v 0.104460 0.342546 -0.138509
v 0.092087 0.342546 -0.172283
v 0.074757 0.342546 -0.180480
v 0.104460 0.342546 -0.138509
v 0.074757 0.342546 -0.180480
v 0.056707 0.342546 -0.186937
v 0.000000 0.342546 -0.138509
v 0.056707 0.342546 -0.186937
v 0.038111 0.342546 -0.191596
v 0.000000 0.342546 -0.138509
v 0.038111 0.342546 -0.191596
v 0.019148 0.342546 -0.194409
v 0.000000 0.342546 -0.138509
v 0.019148 0.342546 -0.194409
v 0.000000 0.342546 -0.195350
v 0.000000 0.342546 -0.138509
v 0.000000 0.342546 -0.195350
v -0.019148 0.342546 -0.194409
v 0.000000 0.342546 -0.138509
v -0.019148 0.342546 -0.194409
v -0.038111 0.342546 -0.191596
v 0.000000 0.342546 -0.138509
v -0.038111 0.342546 -0.191596
v -0.056707 0.342546 -0.186937
v 0.000000 0.342546 -0.138509
v -0.056707 0.342546 -0.186937
v -0.074757 0.342546 -0.180480
v 0.000000 0.342546 -0.138509
v -0.074757 0.342546 -0.180480
v -0.092087 0.342546 -0.172283
v -0.104460 0.342546 -0.138509
v -0.092087 0.342546 -0.172283
v -0.108531 0.342546 -0.162428
v -0.104460 0.342546 -0.138509
v 0.104460 0.342546 -0.138509
v 0.117222 0.342546 -0.135924
v 0.123928 0.342546 -0.151007
v 0.108531 0.342546 -0.162428
v 0.138127 0.342546 -0.138127
v 0.123928 0.342546 -0.151007
v 0.117222 0.342546 -0.135924
v 0.128433 0.342546 -0.128433
v 0.000000 0.342546 -0.138509
v 0.104460 0.342546 -0.138509
v 0.074757 0.342546 -0.180480
v -0.138133 0.342546 0.138133
v -0.123928 0.342546 0.151007
v -0.117222 0.342546 0.135924
v -0.128433 0.342546 0.128433
vn -0.0000 1.0000 -0.0000
vn -0.7071 0.7071 -0.0000
vn -0.7061 0.7075 0.0299
vn -0.0299 0.7075 0.7061
vn -0.0000 0.7071 0.7071
vn -0.0299 0.7075 -0.7061
vn -0.0000 0.7071 -0.7071
vn -0.7061 0.7075 -0.0299
vn -0.7061 0.7075 -0.0300
vn -0.6517 0.7088 -0.2700
vn -0.4989 0.7088 -0.4987
vn -0.4988 0.7089 -0.4986
vn -0.6518 0.7087 -0.2699
vn -0.4987 0.7088 -0.4989
vn -0.2701 0.7088 -0.6517
vn -0.2705 0.7092 -0.6511
vn -0.4986 0.7089 -0.4988
vn -0.2698 0.7088 -0.6518
vn -0.0300 0.7075 -0.7061
vn -0.2703 0.7092 -0.6511
vn -0.2699 0.7088 0.6518
vn -0.4987 0.7088 0.4988
vn -0.4987 0.7088 0.4989
vn -0.2705 0.7092 0.6511
vn -0.4989 0.7088 0.4987
vn -0.6517 0.7088 0.2700
vn -0.6514 0.7090 0.2703
vn -0.6518 0.7088 0.2698
vn -0.7061 0.7075 0.0300
vn -0.6514 0.7090 0.2701
vn 0.7061 0.7075 -0.0300
vn 0.6518 0.7088 -0.2698
vn 0.6516 0.7089 -0.2699
vn -0.7061 0.7075 -0.0301
vn -0.6517 0.7088 -0.2698
vn -0.6519 0.7087 -0.2697
vn 0.7071 0.7071 -0.0000
vn 0.7061 0.7075 0.0299
vn 0.0299 0.7075 0.7061
vn 0.0299 0.7075 -0.7061
vn 0.7061 0.7075 -0.0299
vn 0.6518 0.7088 -0.2699
vn 0.4989 0.7088 -0.4987
vn 0.6516 0.7089 -0.2701
vn 0.4986 0.7089 -0.4988
vn 0.2705 0.7092 -0.6511
vn 0.2700 0.7088 -0.6517
vn 0.2703 0.7092 -0.6511
vn 0.0300 0.7075 -0.7061
vn 0.2698 0.7088 -0.6517
vn 0.2702 0.7089 0.6515
vn 0.4986 0.7089 0.4988
vn 0.4987 0.7088 0.4989
vn 0.2700 0.7088 0.6517
vn 0.4988 0.7089 0.4986
vn 0.6511 0.7092 0.2705
vn 0.6517 0.7088 0.2700
vn 0.4989 0.7088 0.4987
vn 0.6511 0.7092 0.2703
vn 0.7061 0.7075 0.0300
vn 0.6517 0.7088 0.2698
vn 0.0300 0.7075 0.7061
vn 0.2699 0.7089 0.6516
vn 0.2698 0.7088 0.6518
vn -0.0300 0.7075 0.7061
vn -0.2698 0.7088 0.6518
vn -0.2703 0.7092 0.6511
vt 0.402847 0.818936
vt 0.424284 0.813973
vt 0.391012 0.784281
vt 0.471711 0.776027
vt 0.475941 0.779837
vt 0.505717 0.746521
vt 0.501156 0.743174
vt 0.504625 0.724661
vt 0.471654 0.694608
vt 0.467827 0.698841
vt 0.500428 0.728442
vt 0.427643 0.809424
vt 0.394821 0.780041
vt 0.445939 0.812844
vt 0.442123 0.808671
vt 0.438881 0.810981
vt 0.435035 0.811949
vt 0.435330 0.817594
vt 0.441203 0.816135
vt 0.431109 0.811385
vt 0.429336 0.816753
vt 0.502688 0.731759
vt 0.503633 0.735659
vt 0.509347 0.735374
vt 0.507901 0.729445
vt 0.503064 0.739636
vt 0.508497 0.741422
vt 0.356788 0.732675
vt 0.354010 0.737748
vt 0.359396 0.739517
vt 0.361359 0.736036
vt 0.459901 0.659879
vt 0.438423 0.664804
vt 0.386470 0.699225
vt 0.390718 0.703034
vt 0.420340 0.670194
vt 0.416520 0.665997
vt 0.435093 0.669363
vt 0.357946 0.754368
vt 0.362113 0.750550
vt 0.353178 0.743756
vt 0.358834 0.743454
vt 0.354648 0.749635
vt 0.359804 0.747305
vt 0.433317 0.662035
vt 0.427254 0.661207
vt 0.427565 0.666939
vt 0.431552 0.667471
vt 0.421310 0.662685
vt 0.423657 0.667905
vt 0.510670 0.768015
vt 0.467786 0.815543
vt 0.347079 0.744088
vt 0.347039 0.735521
vt 0.452374 0.821168
vt 0.460243 0.818713
vt 0.475022 0.811686
vt 0.481846 0.807133
vt 0.488191 0.801924
vt 0.493992 0.796109
vt 0.499188 0.789743
vt 0.503728 0.782892
vt 0.507566 0.775624
vt 0.513057 0.760174
vt 0.514701 0.752072
vt 0.418321 0.655942
vt 0.410031 0.657624
vt 0.426926 0.655052
vt 0.435571 0.655024
vt 0.435646 0.823684
vt 0.427098 0.823701
vt 0.515494 0.743681
vt 0.349637 0.760819
vt 0.352110 0.768679
vt 0.355296 0.776209
vt 0.359165 0.783430
vt 0.363725 0.790241
vt 0.368940 0.796575
vt 0.374761 0.802368
vt 0.381141 0.807539
vt 0.387995 0.812049
vt 0.395254 0.815858
vt 0.410676 0.821299
vt 0.418753 0.822919
vt 0.347970 0.752600
vt 0.444152 0.822815
vt 0.351752 0.711186
vt 0.394560 0.663343
vt 0.515482 0.735064
vt 0.443972 0.655820
vt 0.402125 0.660128
vt 0.387302 0.667247
vt 0.380463 0.671849
vt 0.374113 0.677107
vt 0.368320 0.682969
vt 0.363141 0.689376
vt 0.358628 0.696262
vt 0.354821 0.703556
vt 0.349403 0.719045
vt 0.347801 0.727152
vt 0.512989 0.718238
vt 0.510532 0.710356
vt 0.507366 0.702811
vt 0.503521 0.695569
vt 0.498981 0.688735
vt 0.493785 0.682376
vt 0.487977 0.676555
vt 0.481605 0.671357
vt 0.474755 0.666819
vt 0.467497 0.662983
vt 0.452072 0.657479
vt 0.514627 0.726495
s 1
f 1/1/1 2/2/1 3/3/1
f 4/4/2 5/5/2 6/6/3
f 4/4/2 6/6/3 7/7/3
f 8/8/4 9/9/5 10/10/5
f 8/8/4 10/10/5 11/11/4
f 12/12/6 13/13/7 14/3/7
f 12/12/6 14/3/7 15/2/6
f 16/14/8 17/5/2 18/4/2
f 16/14/8 18/4/2 19/15/9
f 20/16/10 21/17/11 22/18/12
f 20/16/10 22/18/12 23/19/13
f 24/17/14 25/20/15 26/21/16
f 24/17/14 26/21/16 27/18/17
f 28/20/18 29/12/19 30/2/19
f 28/20/18 30/2/19 31/21/20
f 32/22/21 33/23/22 34/24/23
f 32/22/21 34/24/23 35/25/24
f 36/23/25 37/26/26 38/27/27
f 36/23/25 38/27/27 39/24/25
f 40/26/28 41/7/29 42/6/29
f 40/26/28 42/6/29 43/27/30
f 44/28/31 45/29/32 46/30/33
f 44/28/31 46/30/33 47/31/31
f 48/15/34 49/16/35 50/19/36
f 48/15/34 50/19/36 51/14/9
f 52/32/1 53/33/1 54/9/1
f 55/34/37 56/35/37 57/36/38
f 55/34/37 57/36/38 58/37/38
f 59/33/39 60/38/39 61/10/5
f 59/33/39 61/10/5 62/9/5
f 63/39/40 64/3/7 65/13/7
f 63/39/40 65/13/7 66/40/40
f 67/28/41 68/31/41 69/35/37
f 67/28/41 69/35/37 70/34/37
f 71/29/42 72/41/43 73/42/43
f 71/29/42 73/42/43 74/30/44
f 75/41/45 76/43/46 77/44/47
f 75/41/45 77/44/47 78/42/45
f 79/43/48 80/39/49 81/40/49
f 79/43/48 81/40/49 82/44/50
f 83/45/51 84/46/52 85/47/53
f 83/45/51 85/47/53 86/48/54
f 87/46/55 88/49/56 89/50/57
f 87/46/55 89/50/57 90/47/58
f 91/49/59 92/37/60 93/36/60
f 91/49/59 93/36/60 94/50/61
f 95/33/62 96/45/63 97/48/64
f 95/33/62 97/48/64 98/38/62
f 99/11/65 100/22/66 101/25/67
f 99/11/65 101/25/67 102/8/65
f 103/6/1 104/5/1 105/51/1
f 106/5/1 107/14/1 108/52/1
f 109/53/1 110/41/1 111/29/1
f 109/53/1 111/29/1 112/54/1
f 113/55/1 114/56/1 115/14/1
f 116/56/1 117/52/1 118/14/1
f 119/52/1 120/57/1 121/5/1
f 122/57/1 123/58/1 124/5/1
f 125/58/1 126/59/1 127/5/1
f 128/59/1 129/60/1 130/5/1
f 131/60/1 132/61/1 133/5/1
f 134/61/1 135/62/1 136/5/1
f 137/62/1 138/63/1 139/5/1
f 140/63/1 141/51/1 142/5/1
f 143/51/1 144/64/1 145/6/1
f 146/64/1 147/65/1 148/6/1
f 149/66/1 150/67/1 151/37/1
f 149/66/1 151/37/1 152/49/1
f 153/68/1 154/46/1 155/45/1
f 153/68/1 155/45/1 156/69/1
f 157/70/1 158/18/1 159/21/1
f 157/70/1 159/21/1 160/71/1
f 161/72/1 162/27/1 163/6/1
f 161/72/1 163/6/1 164/65/1
f 165/73/1 166/74/1 167/39/1
f 168/74/1 169/75/1 170/39/1
f 171/75/1 172/76/1 173/3/1
f 174/76/1 175/77/1 176/3/1
f 177/77/1 178/78/1 179/3/1
f 180/78/1 181/79/1 182/3/1
f 183/79/1 184/80/1 185/3/1
f 186/80/1 187/81/1 188/3/1
f 189/81/1 190/82/1 191/3/1
f 192/82/1 193/1/1 194/3/1
f 195/1/1 196/83/1 197/2/1
f 198/83/1 199/84/1 200/2/1
f 201/39/1 202/43/1 203/85/1
f 201/39/1 203/85/1 204/73/1
f 205/70/1 206/86/1 207/19/1
f 205/70/1 207/19/1 208/18/1
f 209/3/1 210/39/1 211/75/1
f 212/28/1 213/34/1 214/87/1
f 215/34/1 216/37/1 217/88/1
f 218/89/1 219/24/1 220/27/1
f 218/89/1 220/27/1 221/72/1
f 222/69/1 223/45/1 224/33/1
f 222/69/1 224/33/1 225/90/1
f 226/67/1 227/91/1 228/37/1
f 229/91/1 230/88/1 231/37/1
f 232/88/1 233/92/1 234/34/1
f 235/92/1 236/93/1 237/34/1
f 238/93/1 239/94/1 240/34/1
f 241/94/1 242/95/1 243/34/1
f 244/95/1 245/96/1 246/34/1
f 247/96/1 248/97/1 249/34/1
f 250/97/1 251/98/1 252/34/1
f 253/98/1 254/87/1 255/34/1
f 256/87/1 257/99/1 258/28/1
f 259/99/1 260/100/1 261/28/1
f 262/86/1 263/55/1 264/14/1
f 262/86/1 264/14/1 265/19/1
f 266/68/1 267/66/1 268/49/1
f 266/68/1 268/49/1 269/46/1
f 270/71/1 271/21/1 272/2/1
f 270/71/1 272/2/1 273/84/1
f 274/54/1 275/29/1 276/28/1
f 274/54/1 276/28/1 277/100/1
f 278/101/1 279/102/1 280/8/1
f 281/102/1 282/103/1 283/8/1
f 284/103/1 285/104/1 286/9/1
f 287/104/1 288/105/1 289/9/1
f 290/105/1 291/106/1 292/9/1
f 293/106/1 294/107/1 295/9/1
f 296/107/1 297/108/1 298/9/1
f 299/108/1 300/109/1 301/9/1
f 302/109/1 303/110/1 304/9/1
f 305/110/1 306/32/1 307/9/1
f 308/32/1 309/111/1 310/33/1
f 311/111/1 312/90/1 313/33/1
f 314/8/1 315/25/1 316/112/1
f 314/8/1 316/112/1 317/101/1
f 318/89/1 319/112/1 320/25/1
f 318/89/1 320/25/1 321/24/1
f 322/9/1 323/8/1 324/103/1
f 325/53/1 326/85/1 327/43/1
f 325/53/1 327/43/1 328/41/1
