# Blender 5.2.0 LTS
# www.blender.org
mtllib button_13.mtl
o button_13
v -0.306617 0.287704 -0.100529
v -0.316417 0.306607 -0.100529
v -0.294084 0.318185 -0.100529
v -0.284284 0.299282 -0.100529
v -0.284284 0.299282 -0.100529
v -0.294084 0.318185 -0.100529
v -0.289539 0.320541 -0.099511
v -0.279739 0.301638 -0.099511
v -0.294084 0.318185 -0.100529
v -0.316417 0.306607 -0.100529
v -0.318612 0.310841 -0.098554
v -0.296451 0.322330 -0.098554
v -0.289539 0.320541 -0.099511
v -0.294084 0.318185 -0.100529
v -0.296451 0.322330 -0.098554
v -0.292419 0.324420 -0.097650
v -0.285687 0.322538 -0.096611
v -0.289539 0.320541 -0.099511
v -0.292419 0.324420 -0.097650
v -0.289146 0.326117 -0.095187
v -0.279739 0.301638 -0.099511
v -0.289539 0.320541 -0.099511
v -0.285687 0.322538 -0.096611
v -0.275887 0.303635 -0.096611
v -0.283113 0.323873 -0.092272
v -0.285687 0.322538 -0.096611
v -0.289146 0.326117 -0.095187
v -0.286960 0.327250 -0.091501
v -0.275887 0.303635 -0.096611
v -0.285687 0.322538 -0.096611
v -0.283113 0.323873 -0.092272
v -0.273313 0.304970 -0.092272
v -0.273313 0.304970 -0.092272
v -0.283113 0.323873 -0.092272
v -0.282209 0.324341 -0.087153
v -0.272409 0.305438 -0.087153
v -0.272409 0.305438 -0.087153
v -0.282209 0.324341 -0.087153
v -0.282209 0.324341 -0.052304
v -0.272409 0.305438 -0.052304
v -0.272409 0.305438 -0.052304
v -0.282209 0.324341 -0.052304
v -0.282209 0.324341 -0.017455
v -0.272409 0.305438 -0.017455
v -0.282209 0.324341 -0.017455
v -0.282209 0.324341 -0.052304
v -0.286158 0.327666 -0.052304
v -0.286158 0.327666 -0.017649
v -0.282209 0.324341 -0.087153
v -0.286158 0.327666 -0.086959
v -0.286158 0.327666 -0.052304
v -0.282209 0.324341 -0.052304
v -0.286158 0.327666 -0.086959
v -0.291301 0.327225 -0.086489
v -0.291301 0.327225 -0.052304
v -0.286158 0.327666 -0.052304
v -0.286158 0.327666 -0.017649
v -0.286158 0.327666 -0.052304
v -0.291301 0.327225 -0.052304
v -0.291301 0.327225 -0.018119
v -0.293205 0.326238 -0.052304
v -0.291301 0.327225 -0.052304
v -0.291301 0.327225 -0.086489
v -0.294102 0.325773 -0.059976
v -0.294102 0.325773 -0.044632
v -0.291301 0.327225 -0.018119
v -0.291301 0.327225 -0.052304
v -0.293205 0.326238 -0.052304
v -0.296577 0.323170 -0.052304
v -0.299578 0.321614 -0.039686
v -0.296731 0.324410 -0.037483
v -0.294102 0.325773 -0.044632
v -0.293205 0.326238 -0.052304
v -0.294102 0.325773 -0.059976
v -0.296731 0.324410 -0.067125
v -0.299578 0.321614 -0.064923
v -0.296577 0.323170 -0.052304
v -0.293205 0.326238 -0.052304
v -0.296731 0.324410 -0.037483
v -0.291857 0.326936 -0.014968
v -0.291301 0.327225 -0.018119
v -0.294102 0.325773 -0.044632
v -0.300913 0.322242 -0.031344
v -0.296731 0.324410 -0.037483
v -0.299578 0.321614 -0.039686
v -0.307779 0.317363 -0.030448
v -0.306363 0.319416 -0.026633
v -0.300913 0.322242 -0.031344
v -0.293108 0.326288 -0.012859
v -0.291857 0.326936 -0.014968
v -0.296731 0.324410 -0.037483
v -0.289146 0.326117 -0.009421
v -0.286960 0.327250 -0.013107
v -0.291857 0.326936 -0.014968
v -0.293108 0.326288 -0.012859
v -0.286960 0.327250 -0.013107
v -0.286158 0.327666 -0.017649
v -0.291301 0.327225 -0.018119
v -0.291857 0.326936 -0.014968
v -0.292419 0.324420 -0.006958
v -0.289146 0.326117 -0.009421
v -0.293108 0.326288 -0.012859
v -0.294980 0.325318 -0.011450
v -0.306363 0.319416 -0.026633
v -0.294980 0.325318 -0.011450
v -0.293108 0.326288 -0.012859
v -0.300913 0.322242 -0.031344
v -0.296451 0.322330 -0.006054
v -0.292419 0.324420 -0.006958
v -0.294980 0.325318 -0.011450
v -0.297777 0.323867 -0.010824
v -0.312710 0.316126 -0.023672
v -0.297777 0.323867 -0.010824
v -0.294980 0.325318 -0.011450
v -0.306363 0.319416 -0.026633
v -0.307779 0.317363 -0.030448
v -0.318982 0.311555 -0.027067
v -0.319521 0.312595 -0.022662
v -0.312710 0.316126 -0.023672
v -0.306363 0.319416 -0.026633
v -0.319521 0.312595 -0.022662
v -0.319521 0.312595 -0.010824
v -0.297777 0.323867 -0.010824
v -0.312710 0.316126 -0.023672
v -0.318982 0.311555 -0.027067
v -0.330184 0.305747 -0.030448
v -0.332679 0.305773 -0.026633
v -0.326332 0.309064 -0.023672
v -0.319521 0.312595 -0.022662
v -0.326332 0.309064 -0.023672
v -0.341264 0.301322 -0.010824
v -0.319521 0.312595 -0.010824
v -0.319521 0.312595 -0.022662
v -0.296451 0.322330 -0.006054
v -0.297777 0.323867 -0.010824
v -0.319521 0.312595 -0.010824
v -0.318612 0.310841 -0.006054
v -0.340772 0.299352 -0.006054
v -0.318612 0.310841 -0.006054
v -0.319521 0.312595 -0.010824
v -0.341264 0.301322 -0.010824
v -0.294084 0.318185 -0.004079
v -0.296451 0.322330 -0.006054
v -0.318612 0.310841 -0.006054
v -0.316417 0.306607 -0.004079
v -0.338750 0.295029 -0.004079
v -0.316417 0.306607 -0.004079
v -0.318612 0.310841 -0.006054
v -0.340772 0.299352 -0.006054
v -0.306617 0.287704 -0.004079
v -0.316417 0.306607 -0.004079
v -0.338750 0.295029 -0.004079
v -0.328950 0.276126 -0.004079
v -0.284284 0.299282 -0.004079
v -0.294084 0.318185 -0.004079
v -0.316417 0.306607 -0.004079
v -0.306617 0.287704 -0.004079
v -0.279739 0.301638 -0.005097
v -0.289539 0.320541 -0.005097
v -0.294084 0.318185 -0.004079
v -0.284284 0.299282 -0.004079
v -0.275887 0.303635 -0.007997
v -0.285687 0.322538 -0.007997
v -0.289539 0.320541 -0.005097
v -0.279739 0.301638 -0.005097
v -0.289539 0.320541 -0.005097
v -0.285687 0.322538 -0.007997
v -0.289146 0.326117 -0.009421
v -0.292419 0.324420 -0.006958
v -0.294084 0.318185 -0.004079
v -0.289539 0.320541 -0.005097
v -0.292419 0.324420 -0.006958
v -0.296451 0.322330 -0.006054
v -0.273313 0.304970 -0.012336
v -0.283113 0.323873 -0.012336
v -0.285687 0.322538 -0.007997
v -0.275887 0.303635 -0.007997
v -0.285687 0.322538 -0.007997
v -0.283113 0.323873 -0.012336
v -0.286960 0.327250 -0.013107
v -0.289146 0.326117 -0.009421
v -0.283113 0.323873 -0.012336
v -0.282209 0.324341 -0.017455
v -0.286158 0.327666 -0.017649
v -0.286960 0.327250 -0.013107
v -0.272409 0.305438 -0.017455
v -0.282209 0.324341 -0.017455
v -0.283113 0.323873 -0.012336
v -0.273313 0.304970 -0.012336
v -0.328950 0.276126 -0.004079
v -0.338750 0.295029 -0.004079
v -0.343294 0.292673 -0.005097
v -0.333494 0.273770 -0.005097
v -0.333494 0.273770 -0.005097
v -0.343294 0.292673 -0.005097
v -0.347146 0.290676 -0.007997
v -0.337346 0.271773 -0.007997
v -0.343294 0.292673 -0.005097
v -0.338750 0.295029 -0.004079
v -0.340772 0.299352 -0.006054
v -0.344805 0.297262 -0.006958
v -0.347146 0.290676 -0.007997
v -0.343294 0.292673 -0.005097
v -0.344805 0.297262 -0.006958
v -0.348077 0.295565 -0.009421
v -0.349721 0.289341 -0.012336
v -0.347146 0.290676 -0.007997
v -0.348077 0.295565 -0.009421
v -0.350264 0.294432 -0.013107
v -0.337346 0.271773 -0.007997
v -0.347146 0.290676 -0.007997
v -0.349721 0.289341 -0.012336
v -0.339921 0.270438 -0.012336
v -0.350624 0.288873 -0.017455
v -0.349721 0.289341 -0.012336
v -0.350264 0.294432 -0.013107
v -0.351066 0.294016 -0.017649
v -0.339921 0.270438 -0.012336
v -0.349721 0.289341 -0.012336
v -0.350624 0.288873 -0.017455
v -0.340824 0.269970 -0.017455
v -0.340824 0.269970 -0.017455
v -0.350624 0.288873 -0.017455
v -0.350624 0.288873 -0.052304
v -0.340824 0.269970 -0.052304
v -0.340824 0.269970 -0.052304
v -0.350624 0.288873 -0.052304
v -0.350624 0.288873 -0.087153
v -0.340824 0.269970 -0.087153
v -0.350624 0.288873 -0.087153
v -0.350624 0.288873 -0.052304
v -0.351066 0.294016 -0.052304
v -0.351066 0.294016 -0.086959
v -0.350624 0.288873 -0.017455
v -0.351066 0.294016 -0.017649
v -0.351066 0.294016 -0.052304
v -0.350624 0.288873 -0.052304
v -0.351066 0.294016 -0.017649
v -0.347741 0.297965 -0.018119
v -0.347741 0.297965 -0.052304
v -0.351066 0.294016 -0.052304
v -0.351066 0.294016 -0.086959
v -0.351066 0.294016 -0.052304
v -0.347741 0.297965 -0.052304
v -0.347741 0.297965 -0.086489
v -0.345837 0.298952 -0.052304
v -0.347741 0.297965 -0.052304
v -0.347741 0.297965 -0.018119
v -0.344940 0.299417 -0.044632
v -0.344940 0.299417 -0.059976
v -0.347741 0.297965 -0.086489
v -0.347741 0.297965 -0.052304
v -0.345837 0.298952 -0.052304
v -0.341387 0.299940 -0.052304
v -0.338385 0.301496 -0.064923
v -0.342311 0.300780 -0.067125
v -0.344940 0.299417 -0.059976
v -0.345837 0.298952 -0.052304
v -0.344940 0.299417 -0.044632
v -0.342311 0.300780 -0.037483
v -0.338385 0.301496 -0.039686
v -0.341387 0.299940 -0.052304
v -0.345837 0.298952 -0.052304
v -0.342311 0.300780 -0.067125
v -0.347184 0.298253 -0.089640
v -0.347741 0.297965 -0.086489
v -0.344940 0.299417 -0.059976
v -0.338129 0.302948 -0.073264
v -0.342311 0.300780 -0.067125
v -0.338385 0.301496 -0.064923
v -0.330184 0.305747 -0.074160
v -0.332679 0.305773 -0.077975
v -0.338129 0.302948 -0.073264
v -0.345934 0.298902 -0.091749
v -0.347184 0.298253 -0.089640
v -0.342311 0.300780 -0.067125
v -0.348077 0.295565 -0.095187
v -0.350264 0.294432 -0.091501
v -0.347184 0.298253 -0.089640
v -0.345934 0.298902 -0.091749
v -0.350264 0.294432 -0.091501
v -0.351066 0.294016 -0.086959
v -0.347741 0.297965 -0.086489
v -0.347184 0.298253 -0.089640
v -0.344805 0.297262 -0.097650
v -0.348077 0.295565 -0.095187
v -0.345934 0.298902 -0.091749
v -0.344062 0.299872 -0.093158
v -0.332679 0.305773 -0.077975
v -0.344062 0.299872 -0.093158
v -0.345934 0.298902 -0.091749
v -0.338129 0.302948 -0.073264
v -0.340772 0.299352 -0.098554
v -0.344805 0.297262 -0.097650
v -0.344062 0.299872 -0.093158
v -0.341264 0.301322 -0.093785
v -0.326332 0.309064 -0.080936
v -0.341264 0.301322 -0.093785
v -0.344062 0.299872 -0.093158
v -0.332679 0.305773 -0.077975
v -0.326332 0.309064 -0.080936
v -0.332679 0.305773 -0.077975
v -0.330184 0.305747 -0.074160
v -0.318982 0.311555 -0.077541
v -0.319521 0.312595 -0.081946
v -0.319521 0.312595 -0.081946
v -0.319521 0.312595 -0.093785
v -0.341264 0.301322 -0.093785
v -0.326332 0.309064 -0.080936
v -0.318982 0.311555 -0.077541
v -0.307779 0.317363 -0.074160
v -0.306363 0.319416 -0.077975
v -0.312710 0.316126 -0.080936
v -0.319521 0.312595 -0.081946
v -0.312710 0.316126 -0.080936
v -0.297777 0.323867 -0.093785
v -0.319521 0.312595 -0.093785
v -0.319521 0.312595 -0.081946
v -0.340772 0.299352 -0.098554
v -0.341264 0.301322 -0.093785
v -0.319521 0.312595 -0.093785
v -0.318612 0.310841 -0.098554
v -0.296451 0.322330 -0.098554
v -0.318612 0.310841 -0.098554
v -0.319521 0.312595 -0.093785
v -0.297777 0.323867 -0.093785
v -0.338750 0.295029 -0.100529
v -0.340772 0.299352 -0.098554
v -0.318612 0.310841 -0.098554
v -0.316417 0.306607 -0.100529
v -0.338750 0.295029 -0.100529
v -0.343294 0.292673 -0.099511
v -0.344805 0.297262 -0.097650
v -0.340772 0.299352 -0.098554
v -0.333494 0.273770 -0.099511
v -0.343294 0.292673 -0.099511
v -0.338750 0.295029 -0.100529
v -0.328950 0.276126 -0.100529
v -0.328950 0.276126 -0.100529
v -0.338750 0.295029 -0.100529
v -0.316417 0.306607 -0.100529
v -0.306617 0.287704 -0.100529
v -0.337346 0.271773 -0.096611
v -0.347146 0.290676 -0.096611
v -0.343294 0.292673 -0.099511
v -0.333494 0.273770 -0.099511
v -0.339921 0.270438 -0.092272
v -0.349721 0.289341 -0.092272
v -0.347146 0.290676 -0.096611
v -0.337346 0.271773 -0.096611
v -0.347146 0.290676 -0.096611
v -0.349721 0.289341 -0.092272
v -0.350264 0.294432 -0.091501
v -0.348077 0.295565 -0.095187
v -0.343294 0.292673 -0.099511
v -0.347146 0.290676 -0.096611
v -0.348077 0.295565 -0.095187
v -0.344805 0.297262 -0.097650
v -0.349721 0.289341 -0.092272
v -0.350624 0.288873 -0.087153
v -0.351066 0.294016 -0.086959
v -0.350264 0.294432 -0.091501
v -0.340824 0.269970 -0.087153
v -0.350624 0.288873 -0.087153
v -0.349721 0.289341 -0.092272
v -0.339921 0.270438 -0.092272
v -0.292419 0.324420 -0.097650
v -0.296451 0.322330 -0.098554
v -0.297777 0.323867 -0.093785
v -0.294980 0.325318 -0.093158
v -0.306363 0.319416 -0.077975
v -0.294980 0.325318 -0.093158
v -0.297777 0.323867 -0.093785
v -0.312710 0.316126 -0.080936
v -0.289146 0.326117 -0.095187
v -0.292419 0.324420 -0.097650
v -0.294980 0.325318 -0.093158
v -0.293108 0.326288 -0.091749
v -0.300913 0.322242 -0.073264
v -0.293108 0.326288 -0.091749
v -0.294980 0.325318 -0.093158
v -0.306363 0.319416 -0.077975
v -0.300913 0.322242 -0.073264
v -0.306363 0.319416 -0.077975
v -0.307779 0.317363 -0.074160
v -0.299578 0.321614 -0.064923
v -0.296731 0.324410 -0.067125
v -0.296731 0.324410 -0.067125
v -0.291857 0.326936 -0.089640
v -0.293108 0.326288 -0.091749
v -0.300913 0.322242 -0.073264
v -0.294102 0.325773 -0.059976
v -0.291301 0.327225 -0.086489
v -0.291857 0.326936 -0.089640
v -0.296731 0.324410 -0.067125
v -0.286158 0.327666 -0.086959
v -0.286960 0.327250 -0.091501
v -0.291857 0.326936 -0.089640
v -0.291301 0.327225 -0.086489
v -0.286960 0.327250 -0.091501
v -0.289146 0.326117 -0.095187
v -0.293108 0.326288 -0.091749
v -0.291857 0.326936 -0.089640
v -0.282209 0.324341 -0.087153
v -0.283113 0.323873 -0.092272
v -0.286960 0.327250 -0.091501
v -0.286158 0.327666 -0.086959
v -0.301854 0.316556 -0.062412
v -0.299578 0.321614 -0.064923
v -0.307779 0.317363 -0.074160
v -0.308423 0.313150 -0.069811
v -0.299450 0.317802 -0.052304
v -0.296577 0.323170 -0.052304
v -0.299578 0.321614 -0.064923
v -0.301854 0.316556 -0.062412
v -0.299450 0.317802 -0.052304
v -0.301854 0.316556 -0.062412
v -0.315563 0.304961 -0.052304
v -0.301854 0.316556 -0.062412
v -0.308423 0.313150 -0.069811
v -0.315563 0.304961 -0.052304
v -0.317397 0.308498 -0.032089
v -0.308423 0.313150 -0.034797
v -0.315563 0.304961 -0.052304
v -0.317397 0.308498 -0.032089
v -0.315563 0.304961 -0.052304
v -0.326370 0.303846 -0.034797
v -0.332939 0.300440 -0.042196
v -0.326370 0.303846 -0.034797
v -0.315563 0.304961 -0.052304
v -0.335344 0.299194 -0.052304
v -0.332939 0.300440 -0.042196
v -0.315563 0.304961 -0.052304
v -0.332939 0.300440 -0.062412
v -0.335344 0.299194 -0.052304
v -0.315563 0.304961 -0.052304
v -0.326370 0.303846 -0.069811
v -0.332939 0.300440 -0.062412
v -0.315563 0.304961 -0.052304
v -0.317397 0.308498 -0.072519
v -0.326370 0.303846 -0.069811
v -0.315563 0.304961 -0.052304
v -0.315563 0.304961 -0.052304
v -0.308423 0.313150 -0.069811
v -0.317397 0.308498 -0.072519
v -0.301854 0.316556 -0.042196
v -0.299450 0.317802 -0.052304
v -0.315563 0.304961 -0.052304
v -0.308423 0.313150 -0.034797
v -0.301854 0.316556 -0.042196
v -0.315563 0.304961 -0.052304
v -0.308423 0.313150 -0.034797
v -0.307779 0.317363 -0.030448
v -0.299578 0.321614 -0.039686
v -0.301854 0.316556 -0.042196
v -0.308423 0.313150 -0.034797
v -0.317397 0.308498 -0.032089
v -0.318982 0.311555 -0.027067
v -0.307779 0.317363 -0.030448
v -0.299450 0.317802 -0.052304
v -0.301854 0.316556 -0.042196
v -0.299578 0.321614 -0.039686
v -0.296577 0.323170 -0.052304
v -0.317397 0.308498 -0.072519
v -0.308423 0.313150 -0.069811
v -0.307779 0.317363 -0.074160
v -0.318982 0.311555 -0.077541
v -0.317397 0.308498 -0.072519
v -0.318982 0.311555 -0.077541
v -0.330184 0.305747 -0.074160
v -0.326370 0.303846 -0.069811
v -0.326370 0.303846 -0.069811
v -0.330184 0.305747 -0.074160
v -0.338385 0.301496 -0.064923
v -0.332939 0.300440 -0.062412
v -0.335344 0.299194 -0.052304
v -0.332939 0.300440 -0.062412
v -0.338385 0.301496 -0.064923
v -0.341387 0.299940 -0.052304
v -0.335344 0.299194 -0.052304
v -0.341387 0.299940 -0.052304
v -0.338385 0.301496 -0.039686
v -0.332939 0.300440 -0.042196
v -0.332939 0.300440 -0.042196
v -0.338385 0.301496 -0.039686
v -0.330184 0.305747 -0.030448
v -0.326370 0.303846 -0.034797
v -0.338129 0.302948 -0.031344
v -0.332679 0.305773 -0.026633
v -0.330184 0.305747 -0.030448
v -0.338385 0.301496 -0.039686
v -0.342311 0.300780 -0.037483
v -0.342311 0.300780 -0.037483
v -0.347184 0.298253 -0.014968
v -0.345934 0.298902 -0.012859
v -0.338129 0.302948 -0.031344
v -0.344940 0.299417 -0.044632
v -0.347741 0.297965 -0.018119
v -0.347184 0.298253 -0.014968
v -0.342311 0.300780 -0.037483
v -0.351066 0.294016 -0.017649
v -0.350264 0.294432 -0.013107
v -0.347184 0.298253 -0.014968
v -0.347741 0.297965 -0.018119
v -0.350264 0.294432 -0.013107
v -0.348077 0.295565 -0.009421
v -0.345934 0.298902 -0.012859
v -0.347184 0.298253 -0.014968
v -0.348077 0.295565 -0.009421
v -0.344805 0.297262 -0.006958
v -0.344062 0.299872 -0.011450
v -0.345934 0.298902 -0.012859
v -0.338129 0.302948 -0.031344
v -0.345934 0.298902 -0.012859
v -0.344062 0.299872 -0.011450
v -0.332679 0.305773 -0.026633
v -0.344805 0.297262 -0.006958
v -0.340772 0.299352 -0.006054
v -0.341264 0.301322 -0.010824
v -0.344062 0.299872 -0.011450
v -0.332679 0.305773 -0.026633
v -0.344062 0.299872 -0.011450
v -0.341264 0.301322 -0.010824
v -0.326332 0.309064 -0.023672
v -0.317397 0.308498 -0.032089
v -0.326370 0.303846 -0.034797
v -0.330184 0.305747 -0.030448
v -0.318982 0.311555 -0.027067
vn -0.0000 -0.0000 -1.0000
vn 0.0001 0.0001 -1.0000
vn -0.0000 0.0003 -1.0000
vn 0.3052 0.2406 -0.9214
vn 0.3398 0.1761 -0.9239
vn -0.0001 0.0002 -1.0000
vn -0.3246 0.6260 -0.7090
vn -0.3034 0.6327 -0.7125
vn -0.0613 0.7265 -0.6844
vn 0.5928 0.3889 -0.7052
vn 0.1622 0.8338 -0.5277
vn 0.3398 0.1762 -0.9238
vn 0.6278 0.3255 -0.7071
vn 0.7845 0.4890 -0.3814
vn 0.2978 0.9126 -0.2800
vn 0.8202 0.4252 -0.3827
vn 0.8877 0.4605 -0.0001
vn 0.8878 0.4602 -0.0001
vn 0.8878 0.4603 -0.0000
vn 0.8876 0.4605 0.0001
vn 0.8877 0.4605 0.0001
vn 0.8877 0.4604 -0.0000
vn 0.3041 0.9526 -0.0000
vn 0.3079 0.9513 0.0164
vn 0.8876 0.4605 -0.0001
vn 0.3079 0.9513 -0.0164
vn 0.3078 0.9513 -0.0164
vn -0.4601 0.8879 -0.0000
vn -0.4600 0.8879 -0.0001
vn -0.4600 0.8879 -0.0000
vn -0.4606 0.8876 -0.0000
vn -0.4602 0.8878 -0.0000
vn -0.4605 0.8877 -0.0002
vn -0.4604 0.8877 -0.0001
vn -0.4604 0.8877 -0.0000
vn -0.7792 0.6268 -0.0000
vn -0.7313 0.6516 -0.2016
vn -0.4605 0.8877 -0.0001
vn -0.4604 0.8877 0.0001
vn -0.7312 0.6517 0.2016
vn -0.4603 0.8878 -0.0000
vn -0.4601 0.8879 0.0001
vn -0.6002 0.7196 -0.3493
vn -0.4603 0.8878 -0.0001
vn -0.4601 0.8879 -0.0001
vn 0.1622 0.8338 0.5277
vn 0.2978 0.9126 0.2800
vn -0.4600 0.8879 0.0001
vn -0.4602 0.8878 0.0002
vn 0.2978 0.9127 0.2800
vn 0.3078 0.9513 0.0164
vn -0.0613 0.7265 0.6844
vn -0.4602 0.8878 0.0003
vn -0.4603 0.8878 0.0003
vn -0.4602 0.8878 -0.0001
vn -0.3034 0.6327 0.7125
vn -0.4604 0.8877 0.0003
vn -0.4604 0.8877 0.0002
vn -0.4603 0.8878 -0.0003
vn -0.4603 0.8878 -0.0002
vn -0.6002 0.7196 -0.3492
vn -0.4212 0.8124 -0.4033
vn -0.4604 0.8877 0.0005
vn -0.4602 0.8878 -0.0002
vn -0.2422 0.9052 -0.3493
vn -0.3246 0.6261 0.7089
vn -0.3422 0.6126 0.7125
vn -0.4603 0.8877 0.0003
vn -0.4603 0.8878 0.0002
vn -0.0000 0.0003 1.0000
vn -0.3246 0.6261 0.7090
vn -0.0001 0.0002 1.0000
vn -0.0002 0.0001 1.0000
vn -0.0000 -0.0000 1.0000
vn 0.3398 0.1762 0.9239
vn 0.3049 0.2404 0.9216
vn 0.0001 0.0001 1.0000
vn 0.6278 0.3255 0.7071
vn 0.5928 0.3889 0.7053
vn 0.3049 0.2404 0.9215
vn 0.3398 0.1762 0.9238
vn 0.3049 0.2405 0.9215
vn 0.5927 0.3889 0.7053
vn -0.3033 0.6327 0.7125
vn 0.8202 0.4252 0.3827
vn 0.7845 0.4890 0.3814
vn 0.5928 0.3889 0.7052
vn 0.8878 0.4603 0.0001
vn -0.3725 -0.1108 0.9214
vn -0.3398 -0.1761 0.9239
vn -0.3398 -0.1762 0.9238
vn -0.3725 -0.1109 0.9214
vn -0.6594 -0.2602 0.7053
vn -0.6277 -0.3254 0.7072
vn -0.5584 0.4688 0.6844
vn -0.6595 -0.2601 0.7053
vn -0.7749 0.3480 0.5277
vn -0.8518 -0.3592 0.3813
vn -0.6595 -0.2602 0.7052
vn -0.9174 0.2827 0.2800
vn -0.6278 -0.3254 0.7071
vn -0.8202 -0.4251 0.3827
vn -0.8879 -0.4601 0.0001
vn -0.9549 0.2966 0.0165
vn -0.8202 -0.4252 0.3827
vn -0.8879 -0.4601 0.0002
vn -0.8878 -0.4602 0.0002
vn -0.8878 -0.4603 -0.0000
vn -0.8879 -0.4600 -0.0002
vn -0.8879 -0.4601 -0.0001
vn -0.8879 -0.4601 -0.0000
vn -0.9538 0.3005 -0.0000
vn -0.9549 0.2966 -0.0164
vn -0.9549 0.2966 0.0164
vn -0.4605 0.8877 -0.0000
vn -0.9537 0.3006 -0.0000
vn -0.4605 0.8877 0.0001
vn -0.4605 0.8876 0.0001
vn -0.0631 0.9980 -0.0000
vn -0.1111 0.9731 0.2016
vn -0.1111 0.9731 -0.2016
vn -0.4599 0.8880 0.0002
vn -0.4603 0.8878 0.0001
vn -0.2421 0.9052 0.3493
vn -0.4602 0.8878 0.0001
vn -0.4603 0.8878 -0.0004
vn -0.7749 0.3480 -0.5277
vn -0.9174 0.2827 -0.2800
vn -0.4604 0.8877 -0.0003
vn -0.5584 0.4688 -0.6844
vn -0.3422 0.6126 -0.7125
vn -0.4601 0.8878 0.0003
vn -0.4212 0.8124 0.4033
vn -0.4602 0.8878 -0.0003
vn -0.4212 0.8124 0.4032
vn -0.6002 0.7196 0.3493
vn -0.3246 0.6261 -0.7090
vn -0.0002 0.0001 -1.0000
vn -0.3247 0.6260 -0.7090
vn -0.3722 -0.1106 -0.9215
vn -0.3398 -0.1762 -0.9239
vn -0.0001 -0.0001 -1.0000
vn -0.6277 -0.3254 -0.7072
vn -0.6594 -0.2603 -0.7053
vn -0.3399 -0.1762 -0.9238
vn -0.8202 -0.4252 -0.3827
vn -0.8518 -0.3592 -0.3814
vn -0.6277 -0.3254 -0.7071
vn -0.8518 -0.3591 -0.3814
vn -0.8878 -0.4603 -0.0001
vn -0.8879 -0.4601 -0.0002
vn -0.4601 0.8878 -0.0002
vn -0.4601 0.8878 -0.0000
vn -0.4605 0.8877 0.0002
vn 0.2978 0.9127 -0.2800
vn 0.2978 0.9127 -0.2799
vn -0.6995 0.6930 0.1744
vn -0.7313 0.6516 0.2016
vn -0.5862 0.7517 0.3021
vn -0.7410 0.6715 -0.0000
vn -0.5862 0.7518 0.3020
vn -0.4313 0.8320 -0.3489
vn -0.5861 0.7518 -0.3021
vn -0.2765 0.9123 -0.3021
vn -0.1632 0.9711 -0.1744
vn -0.1217 0.9926 -0.0000
vn -0.1632 0.9711 0.1744
vn -0.2765 0.9123 0.3021
vn -0.4314 0.8320 0.3488
vn -0.5862 0.7518 0.3021
vn -0.6995 0.6930 -0.1744
vn -0.5862 0.7518 -0.3020
vn -0.5862 0.7517 -0.3021
vn -0.6002 0.7195 -0.3493
vn -0.6995 0.6930 -0.1745
vn -0.6996 0.6930 -0.1744
vn -0.4314 0.8320 0.3489
vn -0.2764 0.9123 0.3021
vn -0.2420 0.9052 0.3493
vn -0.1216 0.9926 -0.0000
vn -0.1111 0.9732 0.2016
vn -0.1110 0.9732 -0.2016
vn -0.1631 0.9711 -0.1744
vn -0.1111 0.9731 -0.2017
vn -0.2421 0.9052 -0.3493
vn -0.1112 0.9731 -0.2016
vn -0.2422 0.9052 -0.3492
vn -0.4607 0.8876 -0.0001
vn -0.4605 0.8876 -0.0001
vn -0.4599 0.8880 -0.0002
vn -0.4605 0.8876 -0.0000
vn -0.4601 0.8878 0.0001
vn -0.4313 0.8320 -0.3490
vt 0.792723 0.193186
vt 0.780384 0.193186
vt 0.780384 0.207726
vt 0.792723 0.207726
vt 0.780384 0.210636
vt 0.792723 0.210636
vt 0.777387 0.193186
vt 0.777387 0.207726
vt 0.777387 0.210636
vt 0.780384 0.213509
vt 0.777387 0.213509
vt 0.792723 0.213509
vt 0.780384 0.216381
vt 0.777387 0.216381
vt 0.792723 0.216381
vt 0.780384 0.219292
vt 0.792723 0.219292
vt 0.780384 0.239449
vt 0.792723 0.239449
vt 0.780384 0.259607
vt 0.792723 0.259607
vt 0.777387 0.239449
vt 0.777387 0.259607
vt 0.777387 0.219292
vt 0.993949 0.212036
vt 0.990915 0.212353
vt 0.990964 0.232390
vt 0.993992 0.232387
vt 0.993992 0.252700
vt 0.990965 0.252391
vt 0.989704 0.232391
vt 0.989104 0.227897
vt 0.989114 0.236883
vt 0.987040 0.232394
vt 0.985088 0.239744
vt 0.987387 0.241069
vt 0.987364 0.223712
vt 0.985067 0.225045
vt 0.990593 0.254216
vt 0.979721 0.245116
vt 0.981053 0.247413
vt 0.984633 0.244655
vt 0.989780 0.255433
vt 0.991972 0.257604
vt 0.993441 0.255402
vt 0.989777 0.259087
vt 0.988567 0.256250
vt 0.987076 0.259661
vt 0.986747 0.256634
vt 0.976872 0.249156
vt 0.972377 0.247097
vt 0.972383 0.249760
vt 0.972403 0.256706
vt 0.967887 0.249175
vt 0.965020 0.245145
vt 0.963695 0.247449
vt 0.958026 0.256723
vt 0.972413 0.259742
vt 0.957709 0.259769
vt 0.780384 0.271173
vt 0.777387 0.271173
vt 0.777387 0.285713
vt 0.780384 0.285713
vt 0.780384 0.300253
vt 0.777387 0.300253
vt 0.792723 0.285713
vt 0.792723 0.300253
vt 0.792723 0.271173
vt 0.792723 0.268262
vt 0.780384 0.268262
vt 0.792723 0.265390
vt 0.780384 0.265390
vt 0.777387 0.265390
vt 0.777387 0.268262
vt 0.792723 0.262517
vt 0.780384 0.262517
vt 0.777387 0.262517
vt 0.780384 0.303164
vt 0.792723 0.303164
vt 0.780384 0.306036
vt 0.792723 0.306036
vt 0.777387 0.303164
vt 0.777387 0.306036
vt 0.780384 0.123854
vt 0.780384 0.120981
vt 0.777387 0.120981
vt 0.777387 0.123854
vt 0.792723 0.120981
vt 0.792723 0.123854
vt 0.780384 0.126765
vt 0.777387 0.126765
vt 0.792723 0.126765
vt 0.780384 0.146922
vt 0.792723 0.146922
vt 0.780384 0.167079
vt 0.792723 0.167079
vt 0.777387 0.146922
vt 0.777387 0.167079
vt 0.950749 0.252788
vt 0.953783 0.252469
vt 0.953729 0.232440
vt 0.950702 0.232444
vt 0.950708 0.212134
vt 0.953735 0.212445
vt 0.954987 0.232439
vt 0.955591 0.236931
vt 0.955581 0.227950
vt 0.957646 0.232437
vt 0.959614 0.225095
vt 0.957313 0.223766
vt 0.957333 0.241114
vt 0.959633 0.239778
vt 0.954106 0.210620
vt 0.964979 0.219714
vt 0.963646 0.217418
vt 0.960067 0.220179
vt 0.954918 0.209404
vt 0.952730 0.207232
vt 0.951260 0.209433
vt 0.954920 0.205744
vt 0.956127 0.208582
vt 0.957619 0.205172
vt 0.957948 0.208199
vt 0.967825 0.215673
vt 0.972318 0.217726
vt 0.972312 0.215066
vt 0.972291 0.208122
vt 0.976806 0.215653
vt 0.979672 0.219687
vt 0.980999 0.217380
vt 0.986665 0.208105
vt 0.972280 0.205087
vt 0.986984 0.205059
vt 0.780384 0.178646
vt 0.777387 0.178646
vt 0.780384 0.175735
vt 0.777387 0.175735
vt 0.792723 0.175735
vt 0.792723 0.178646
vt 0.792723 0.172862
vt 0.780384 0.172862
vt 0.792723 0.169990
vt 0.780384 0.169990
vt 0.777387 0.169990
vt 0.777387 0.172862
vt 0.989703 0.205629
vt 0.988494 0.208485
vt 0.991913 0.207115
vt 0.989715 0.209303
vt 0.984595 0.220128
vt 0.990536 0.210523
vt 0.993392 0.209326
vt 0.982066 0.226787
vt 0.977947 0.222692
vt 0.983572 0.232399
vt 0.972352 0.232415
vt 0.972370 0.243631
vt 0.977974 0.242125
vt 0.966760 0.242145
vt 0.962640 0.238048
vt 0.961120 0.232432
vt 0.962624 0.226813
vt 0.966731 0.222703
vt 0.972339 0.221194
vt 0.982082 0.238015
vt 0.960101 0.244698
vt 0.954162 0.254298
vt 0.954977 0.255520
vt 0.951309 0.255499
vt 0.952785 0.257712
vt 0.954991 0.259202
vt 0.956195 0.256343
s 1
f 1/1/1 2/2/1 3/3/1
f 1/1/1 3/3/1 4/4/1
f 5/4/2 6/3/3 7/5/4
f 5/4/2 7/5/4 8/6/5
f 9/3/3 10/2/6 11/7/7
f 9/3/3 11/7/7 12/8/8
f 13/5/4 14/3/3 15/8/8
f 13/5/4 15/8/8 16/9/9
f 17/10/10 18/5/4 19/9/9
f 17/10/10 19/9/9 20/11/11
f 21/6/12 22/5/4 23/10/10
f 21/6/12 23/10/10 24/12/13
f 25/13/14 26/10/10 27/11/11
f 25/13/14 27/11/11 28/14/15
f 29/12/13 30/10/10 31/13/14
f 29/12/13 31/13/14 32/15/16
f 33/15/16 34/13/14 35/16/17
f 33/15/16 35/16/17 36/17/18
f 37/17/19 38/16/19 39/18/19
f 37/17/19 39/18/19 40/19/19
f 41/19/19 42/18/19 43/20/20
f 41/19/19 43/20/20 44/21/19
f 45/20/21 46/18/22 47/22/23
f 45/20/21 47/22/23 48/23/24
f 49/16/25 50/24/26 51/22/23
f 49/16/25 51/22/23 52/18/22
f 53/25/27 54/26/28 55/27/29
f 53/25/27 55/27/29 56/28/23
f 57/29/24 58/28/23 59/27/30
f 57/29/24 59/27/30 60/30/28
f 61/31/31 62/27/32 63/26/32
f 61/31/31 63/26/32 64/32/32
f 65/33/33 66/30/32 67/27/32
f 65/33/33 67/27/32 68/31/31
f 72/33/34 73/31/35 69/34/36
f 69/34/36 70/35/37 71/36/38
f 71/36/38 72/33/34 69/34/36
f 77/34/36 78/31/35 74/32/35
f 74/32/35 75/37/39 76/38/40
f 76/38/40 77/34/36 74/32/35
f 79/36/41 80/39/42 81/30/32
f 79/36/41 81/30/32 82/33/41
f 86/40/43 87/41/44 83/42/34
f 83/42/34 84/36/34 85/35/37
f 85/35/37 86/40/43 83/42/34
f 88/42/32 89/43/45 90/39/45
f 88/42/32 90/39/45 91/36/32
f 92/44/46 93/45/47 94/39/48
f 92/44/46 94/39/48 95/43/49
f 96/45/50 97/29/51 98/30/28
f 96/45/50 98/30/28 99/39/48
f 100/46/52 101/44/46 102/43/49
f 100/46/52 102/43/49 103/47/53
f 104/41/41 105/47/54 106/43/55
f 104/41/41 106/43/55 107/42/33
f 108/48/56 109/46/52 110/47/54
f 108/48/56 110/47/54 111/49/54
f 112/50/41 113/49/57 114/47/58
f 112/50/41 114/47/58 115/41/55
f 119/50/59 120/41/60 116/40/61
f 116/40/61 117/51/62 118/52/59
f 118/52/59 119/50/59 116/40/61
f 121/52/32 122/53/63 123/49/54
f 121/52/32 123/49/54 124/50/32
f 128/54/64 129/52/60 125/51/62
f 125/51/62 126/55/65 127/56/55
f 127/56/55 128/54/64 125/51/62
f 130/54/41 131/57/41 132/53/41
f 130/54/41 132/53/41 133/52/41
f 134/48/56 135/49/54 136/53/57
f 134/48/56 136/53/57 137/58/66
f 138/59/67 139/58/66 140/53/68
f 138/59/67 140/53/68 141/57/69
f 142/60/70 143/61/56 144/62/71
f 142/60/70 144/62/71 145/63/72
f 146/64/73 147/63/72 148/62/71
f 146/64/73 148/62/71 149/65/67
f 150/66/74 151/63/74 152/64/74
f 150/66/74 152/64/74 153/67/74
f 154/68/74 155/60/74 156/63/74
f 154/68/74 156/63/74 157/66/74
f 158/69/75 159/70/76 160/60/70
f 158/69/75 160/60/70 161/68/77
f 162/71/78 163/72/79 164/70/80
f 162/71/78 164/70/80 165/69/81
f 166/70/82 167/72/83 168/73/46
f 166/70/82 168/73/46 169/74/52
f 170/60/70 171/70/80 172/74/52
f 170/60/70 172/74/52 173/61/84
f 174/75/85 175/76/86 176/72/87
f 174/75/85 176/72/87 177/71/78
f 178/72/87 179/76/86 180/77/47
f 178/72/87 180/77/47 181/73/46
f 182/76/86 183/20/21 184/23/24
f 182/76/86 184/23/24 185/77/47
f 186/21/88 187/20/21 188/76/86
f 186/21/88 188/76/86 189/75/85
f 190/67/74 191/64/73 192/78/89
f 190/67/74 192/78/89 193/79/90
f 194/79/91 195/78/92 196/80/93
f 194/79/91 196/80/93 197/81/94
f 198/78/89 199/64/73 200/65/67
f 198/78/89 200/65/67 201/82/95
f 202/80/96 203/78/89 204/82/95
f 202/80/96 204/82/95 205/83/97
f 206/84/98 207/85/99 208/86/97
f 206/84/98 208/86/97 209/87/100
f 210/88/101 211/85/99 212/84/98
f 210/88/101 212/84/98 213/89/102
f 214/90/103 215/84/98 216/87/100
f 214/90/103 216/87/100 217/91/104
f 218/89/105 219/84/98 220/90/106
f 218/89/105 220/90/106 221/92/107
f 222/92/108 223/90/108 224/93/108
f 222/92/108 224/93/108 225/94/108
f 226/94/108 227/93/108 228/95/109
f 226/94/108 228/95/109 229/96/108
f 230/95/110 231/93/111 232/97/112
f 230/95/110 232/97/112 233/98/113
f 234/90/103 235/91/114 236/97/112
f 234/90/103 236/97/112 237/93/111
f 238/99/114 239/100/35 240/101/115
f 238/99/114 240/101/115 241/102/116
f 242/103/113 243/102/116 244/101/117
f 242/103/113 244/101/117 245/104/39
f 246/105/32 247/101/118 248/100/32
f 246/105/32 248/100/32 249/106/32
f 250/107/32 251/104/32 252/101/117
f 250/107/32 252/101/117 253/105/32
f 257/107/28 258/105/32 254/108/119
f 254/108/119 255/109/120 256/110/42
f 256/110/42 257/107/28 254/108/119
f 262/108/119 263/105/32 259/106/30
f 259/106/30 260/111/29 261/112/121
f 261/112/121 262/108/119 259/106/30
f 264/110/122 265/113/34 266/104/123
f 264/110/122 266/104/123 267/107/30
f 271/114/124 272/115/125 268/116/125
f 268/116/125 269/110/42 270/109/120
f 270/109/120 271/114/124 268/116/125
f 273/116/41 274/117/126 275/113/34
f 273/116/41 275/113/34 276/110/48
f 277/118/127 278/119/128 279/113/34
f 277/118/127 279/113/34 280/117/129
f 281/119/128 282/103/113 283/104/39
f 281/119/128 283/104/39 284/113/34
f 285/120/130 286/118/127 287/117/129
f 285/120/130 287/117/129 288/121/59
f 289/115/32 290/121/45 291/117/129
f 289/115/32 291/117/129 292/116/32
f 293/122/131 294/120/130 295/121/59
f 293/122/131 295/121/59 296/123/64
f 297/124/132 298/123/64 299/121/55
f 297/124/132 299/121/55 300/115/123
f 304/125/133 305/126/53 301/124/53
f 301/124/53 302/115/125 303/114/124
f 303/114/124 304/125/133 301/124/53
f 306/126/41 307/127/134 308/123/41
f 306/126/41 308/123/41 309/124/53
f 313/128/69 314/126/53 310/125/135
f 310/125/135 311/129/136 312/130/54
f 312/130/54 313/128/69 310/125/135
f 315/128/32 316/131/32 317/127/32
f 315/128/32 317/127/32 318/126/32
f 319/122/131 320/123/64 321/127/134
f 319/122/131 321/127/134 322/132/137
f 323/133/8 324/132/137 325/127/64
f 323/133/8 325/127/64 326/131/64
f 327/134/138 328/135/131 329/7/139
f 327/134/138 329/7/139 330/2/6
f 331/134/138 332/136/140 333/137/130
f 331/134/138 333/137/130 334/135/131
f 335/138/141 336/136/140 337/134/138
f 335/138/141 337/134/138 338/139/142
f 339/139/1 340/134/1 341/2/1
f 339/139/1 341/2/1 342/1/1
f 343/140/143 344/141/144 345/136/140
f 343/140/143 345/136/140 346/138/145
f 347/142/146 348/143/147 349/141/144
f 347/142/146 349/141/144 350/140/148
f 351/141/144 352/143/149 353/144/128
f 351/141/144 353/144/128 354/145/127
f 355/136/140 356/141/144 357/145/127
f 355/136/140 357/145/127 358/137/130
f 359/143/147 360/95/110 361/98/113
f 359/143/147 361/98/113 362/144/128
f 363/96/150 364/95/151 365/143/147
f 363/96/150 365/143/147 366/142/146
f 367/146/9 368/133/8 369/131/64
f 367/146/9 369/131/64 370/147/64
f 371/130/32 372/147/33 373/131/152
f 371/130/32 373/131/152 374/128/32
f 375/148/11 376/146/9 377/147/64
f 375/148/11 377/147/64 378/149/29
f 379/150/41 380/149/42 381/147/153
f 379/150/41 381/147/153 382/130/41
f 386/38/40 387/37/117 383/150/39
f 383/150/39 384/130/69 385/129/136
f 385/129/136 386/38/40 383/150/39
f 388/37/32 389/151/30 390/149/28
f 388/37/32 390/149/28 391/150/154
f 392/32/41 393/26/28 394/151/32
f 392/32/41 394/151/32 395/37/32
f 396/25/26 397/152/155 398/151/30
f 396/25/26 398/151/30 399/26/28
f 400/152/156 401/148/11 402/149/29
f 400/152/156 402/149/29 403/151/29
f 404/16/17 405/13/14 406/14/15
f 404/16/17 406/14/15 407/24/26
f 408/153/157 409/38/158 410/129/136
f 408/153/157 410/129/136 411/154/159
f 412/155/160 413/34/36 414/38/158
f 412/155/160 414/38/158 415/153/157
f 416/155/160 417/153/157 418/156/41
f 419/153/157 420/154/161 421/156/41
f 422/157/162 423/158/163 424/156/41
f 425/157/162 426/156/41 427/159/164
f 428/160/165 429/159/164 430/156/41
f 431/161/166 432/160/165 433/156/32
f 434/162/167 435/161/166 436/156/32
f 437/163/168 438/162/167 439/156/41
f 440/164/169 441/163/168 442/156/41
f 443/156/41 444/154/170 445/164/169
f 446/165/171 447/155/160 448/156/41
f 449/158/172 450/165/171 451/156/41
f 452/158/173 453/40/174 454/35/37
f 452/158/173 454/35/37 455/165/175
f 456/158/173 457/157/162 458/51/62
f 456/158/173 458/51/62 459/40/43
f 460/155/160 461/165/176 462/35/37
f 460/155/160 462/35/37 463/34/36
f 464/164/177 465/154/170 466/129/136
f 464/164/177 466/129/136 467/125/133
f 468/164/169 469/125/133 470/114/124
f 468/164/169 470/114/124 471/163/168
f 472/163/178 473/114/179 474/109/120
f 472/163/178 474/109/120 475/162/167
f 476/161/180 477/162/167 478/109/181
f 476/161/180 478/109/181 479/108/119
f 480/161/166 481/108/119 482/112/182
f 480/161/166 482/112/182 483/160/183
f 484/160/165 485/112/184 486/55/185
f 484/160/165 486/55/185 487/159/164
f 491/112/186 492/111/45 488/166/45
f 488/166/45 489/56/55 490/55/187
f 490/55/187 491/112/186 488/166/45
f 493/111/41 494/167/188 495/168/189
f 493/111/41 495/168/189 496/166/32
f 497/106/30 498/100/35 499/167/41
f 497/106/30 499/167/41 500/111/190
f 501/99/114 502/169/100 503/167/191
f 501/99/114 503/167/191 504/100/35
f 505/169/100 506/170/97 507/168/58
f 505/169/100 507/168/58 508/167/31
f 509/170/97 510/171/95 511/172/69
f 509/170/97 511/172/69 512/168/58
f 513/166/32 514/168/42 515/172/192
f 513/166/32 515/172/192 516/56/32
f 517/171/95 518/59/67 519/57/54
f 517/171/95 519/57/54 520/172/69
f 521/56/41 522/172/42 523/57/125
f 521/56/41 523/57/125 524/54/41
f 525/157/193 526/159/164 527/55/65
f 525/157/193 527/55/65 528/51/62
