# Blender 5.2.0 LTS
# www.blender.org
mtllib button_10.mtl
o button_10
v 0.435600 0.220835 0.100529
v 0.480266 0.197679 0.100529
v 0.490066 0.216582 0.100529
v 0.445400 0.239738 0.100529
v 0.480266 0.197679 0.100529
v 0.484810 0.195323 0.099511
v 0.494610 0.214226 0.099511
v 0.490066 0.216582 0.100529
v 0.490066 0.216582 0.100529
v 0.492088 0.220905 0.098554
v 0.447768 0.243883 0.098554
v 0.445400 0.239738 0.100529
v 0.494610 0.214226 0.099511
v 0.496121 0.218815 0.097650
v 0.492088 0.220905 0.098554
v 0.490066 0.216582 0.100529
v 0.498463 0.212229 0.096611
v 0.499393 0.217118 0.095187
v 0.496121 0.218815 0.097650
v 0.494610 0.214226 0.099511
v 0.484810 0.195323 0.099511
v 0.488663 0.193326 0.096611
v 0.498463 0.212229 0.096611
v 0.494610 0.214226 0.099511
v 0.501037 0.210894 0.092272
v 0.501580 0.215985 0.091501
v 0.499393 0.217118 0.095187
v 0.498463 0.212229 0.096611
v 0.488663 0.193326 0.096611
v 0.491237 0.191991 0.092272
v 0.501037 0.210894 0.092272
v 0.498463 0.212229 0.096611
v 0.491237 0.191991 0.092272
v 0.492141 0.191523 0.087154
v 0.501941 0.210426 0.087154
v 0.501037 0.210894 0.092272
v 0.492141 0.191523 0.087154
v 0.492141 0.191523 0.017455
v 0.501941 0.210426 0.017455
v 0.501941 0.210426 0.087154
v 0.501941 0.210426 0.087154
v 0.502382 0.215569 0.086959
v 0.501580 0.215985 0.091501
v 0.501037 0.210894 0.092272
v 0.501941 0.210426 0.017455
v 0.502382 0.215569 0.017649
v 0.502382 0.215569 0.086959
v 0.501941 0.210426 0.087154
v 0.501037 0.210894 0.012336
v 0.501580 0.215985 0.013107
v 0.502382 0.215569 0.017649
v 0.501941 0.210426 0.017455
v 0.492141 0.191523 0.017455
v 0.491237 0.191991 0.012336
v 0.501037 0.210894 0.012336
v 0.501941 0.210426 0.017455
v 0.498463 0.212229 0.007997
v 0.499393 0.217118 0.009421
v 0.501580 0.215985 0.013107
v 0.501037 0.210894 0.012336
v 0.491237 0.191991 0.012336
v 0.488663 0.193326 0.007997
v 0.498463 0.212229 0.007997
v 0.501037 0.210894 0.012336
v 0.488663 0.193326 0.007997
v 0.484810 0.195323 0.005097
v 0.494610 0.214226 0.005097
v 0.498463 0.212229 0.007997
v 0.484810 0.195323 0.005097
v 0.480266 0.197679 0.004079
v 0.490066 0.216582 0.004079
v 0.494610 0.214226 0.005097
v 0.494610 0.214226 0.005097
v 0.496121 0.218815 0.006958
v 0.499393 0.217118 0.009421
v 0.498463 0.212229 0.007997
v 0.490066 0.216582 0.004079
v 0.492088 0.220905 0.006055
v 0.496121 0.218815 0.006958
v 0.494610 0.214226 0.005097
v 0.445400 0.239738 0.004079
v 0.447768 0.243883 0.006055
v 0.492088 0.220905 0.006055
v 0.490066 0.216582 0.004079
v 0.480266 0.197679 0.004079
v 0.435600 0.220835 0.004079
v 0.445400 0.239738 0.004079
v 0.490066 0.216582 0.004079
v 0.440856 0.242094 0.005097
v 0.443735 0.245973 0.006958
v 0.447768 0.243883 0.006055
v 0.445400 0.239738 0.004079
v 0.435600 0.220835 0.004079
v 0.431056 0.223191 0.005097
v 0.440856 0.242094 0.005097
v 0.445400 0.239738 0.004079
v 0.431056 0.223191 0.005097
v 0.427203 0.225188 0.007997
v 0.437003 0.244091 0.007997
v 0.440856 0.242094 0.005097
v 0.427203 0.225188 0.007997
v 0.424629 0.226523 0.012336
v 0.434429 0.245426 0.012336
v 0.437003 0.244091 0.007997
v 0.437003 0.244091 0.007997
v 0.440463 0.247670 0.009421
v 0.443735 0.245973 0.006958
v 0.440856 0.242094 0.005097
v 0.434429 0.245426 0.012336
v 0.438276 0.248803 0.013107
v 0.440463 0.247670 0.009421
v 0.437003 0.244091 0.007997
v 0.433525 0.245895 0.017455
v 0.437474 0.249219 0.017649
v 0.438276 0.248803 0.013107
v 0.434429 0.245426 0.012336
v 0.424629 0.226523 0.012336
v 0.423725 0.226991 0.017455
v 0.433525 0.245895 0.017455
v 0.434429 0.245426 0.012336
v 0.433525 0.245895 0.087154
v 0.437474 0.249219 0.086959
v 0.437474 0.249219 0.017649
v 0.433525 0.245895 0.017455
v 0.423725 0.226991 0.017455
v 0.423725 0.226991 0.087154
v 0.433525 0.245895 0.087154
v 0.433525 0.245895 0.017455
v 0.423725 0.226991 0.087154
v 0.424629 0.226523 0.092272
v 0.434429 0.245426 0.092272
v 0.433525 0.245895 0.087154
v 0.424629 0.226523 0.092272
v 0.427203 0.225188 0.096611
v 0.437003 0.244091 0.096611
v 0.434429 0.245426 0.092272
v 0.434429 0.245426 0.092272
v 0.438276 0.248803 0.091501
v 0.437474 0.249219 0.086959
v 0.433525 0.245895 0.087154
v 0.437003 0.244091 0.096611
v 0.440463 0.247670 0.095187
v 0.438276 0.248803 0.091501
v 0.434429 0.245426 0.092272
v 0.440856 0.242094 0.099511
v 0.443735 0.245973 0.097650
v 0.440463 0.247670 0.095187
v 0.437003 0.244091 0.096611
v 0.427203 0.225188 0.096611
v 0.431056 0.223191 0.099511
v 0.440856 0.242094 0.099511
v 0.437003 0.244091 0.096611
v 0.445400 0.239738 0.100529
v 0.447768 0.243883 0.098554
v 0.443735 0.245973 0.097650
v 0.440856 0.242094 0.099511
v 0.431056 0.223191 0.099511
v 0.435600 0.220835 0.100529
v 0.445400 0.239738 0.100529
v 0.440856 0.242094 0.099511
v 0.443735 0.245973 0.097650
v 0.446296 0.246871 0.093158
v 0.444424 0.247841 0.091749
v 0.440463 0.247670 0.095187
v 0.447768 0.243883 0.098554
v 0.449094 0.245420 0.093785
v 0.446296 0.246871 0.093158
v 0.443735 0.245973 0.097650
v 0.492088 0.220905 0.098554
v 0.492581 0.222875 0.093785
v 0.449094 0.245420 0.093785
v 0.447768 0.243883 0.098554
v 0.470837 0.234148 0.056540
v 0.468178 0.235527 0.055300
v 0.449094 0.245420 0.093785
v 0.492581 0.222875 0.093785
v 0.473497 0.232769 0.055300
v 0.468178 0.235527 0.055300
v 0.442617 0.248778 0.086489
v 0.443174 0.248489 0.089641
v 0.444424 0.247841 0.091749
v 0.446296 0.246871 0.093158
v 0.449094 0.245420 0.093785
v 0.468178 0.235527 0.055300
v 0.469792 0.237445 0.054750
v 0.469557 0.238186 0.052304
v 0.467077 0.236098 0.052304
v 0.470837 0.234148 0.056540
v 0.472216 0.236807 0.055300
v 0.469792 0.237445 0.054750
v 0.468178 0.235527 0.055300
v 0.468178 0.235527 0.055300
v 0.467077 0.236098 0.052304
v 0.468178 0.235527 0.049309
v 0.442617 0.248778 0.018119
v 0.442617 0.248778 0.086489
v 0.438276 0.248803 0.091501
v 0.443174 0.248489 0.089641
v 0.442617 0.248778 0.086489
v 0.437474 0.249219 0.086959
v 0.437474 0.249219 0.086959
v 0.442617 0.248778 0.086489
v 0.442617 0.248778 0.018119
v 0.437474 0.249219 0.017649
v 0.440463 0.247670 0.095187
v 0.444424 0.247841 0.091749
v 0.443174 0.248489 0.089641
v 0.438276 0.248803 0.091501
v 0.437474 0.249219 0.017649
v 0.442617 0.248778 0.018119
v 0.443174 0.248489 0.014968
v 0.438276 0.248803 0.013107
v 0.442617 0.248778 0.018119
v 0.468178 0.235527 0.049309
v 0.449094 0.245420 0.010824
v 0.446296 0.246871 0.011450
v 0.444424 0.247841 0.012859
v 0.443174 0.248489 0.014968
v 0.468178 0.235527 0.049309
v 0.469792 0.237445 0.049858
v 0.472216 0.236807 0.049309
v 0.470837 0.234148 0.048068
v 0.467077 0.236098 0.052304
v 0.469557 0.238186 0.052304
v 0.469792 0.237445 0.049858
v 0.468178 0.235527 0.049309
v 0.468178 0.235527 0.049309
v 0.470837 0.234148 0.048068
v 0.473497 0.232769 0.049309
v 0.492581 0.222875 0.010824
v 0.449094 0.245420 0.010824
v 0.443735 0.245973 0.006958
v 0.446296 0.246871 0.011450
v 0.449094 0.245420 0.010824
v 0.447768 0.243883 0.006055
v 0.447768 0.243883 0.006055
v 0.449094 0.245420 0.010824
v 0.492581 0.222875 0.010824
v 0.492088 0.220905 0.006055
v 0.440463 0.247670 0.009421
v 0.444424 0.247841 0.012859
v 0.446296 0.246871 0.011450
v 0.443735 0.245973 0.006958
v 0.438276 0.248803 0.013107
v 0.443174 0.248489 0.014968
v 0.444424 0.247841 0.012859
v 0.440463 0.247670 0.009421
v 0.492088 0.220905 0.006055
v 0.492581 0.222875 0.010824
v 0.495378 0.221425 0.011450
v 0.496121 0.218815 0.006958
v 0.492581 0.222875 0.010824
v 0.473497 0.232769 0.049309
v 0.499057 0.219518 0.018119
v 0.498501 0.219806 0.014968
v 0.497250 0.220455 0.012859
v 0.495378 0.221425 0.011450
v 0.473497 0.232769 0.049309
v 0.474134 0.235193 0.049858
v 0.474875 0.235428 0.052304
v 0.474598 0.232198 0.052304
v 0.470837 0.234148 0.048068
v 0.472216 0.236807 0.049309
v 0.474134 0.235193 0.049858
v 0.473497 0.232769 0.049309
v 0.473497 0.232769 0.055300
v 0.499057 0.219518 0.086489
v 0.499057 0.219518 0.018119
v 0.473497 0.232769 0.049309
v 0.474598 0.232198 0.052304
v 0.501580 0.215985 0.013107
v 0.498501 0.219806 0.014968
v 0.499057 0.219518 0.018119
v 0.502382 0.215569 0.017649
v 0.502382 0.215569 0.017649
v 0.499057 0.219518 0.018119
v 0.499057 0.219518 0.086489
v 0.502382 0.215569 0.086959
v 0.499393 0.217118 0.009421
v 0.497250 0.220455 0.012859
v 0.498501 0.219806 0.014968
v 0.501580 0.215985 0.013107
v 0.496121 0.218815 0.006958
v 0.495378 0.221425 0.011450
v 0.497250 0.220455 0.012859
v 0.499393 0.217118 0.009421
v 0.502382 0.215569 0.086959
v 0.499057 0.219518 0.086489
v 0.498501 0.219806 0.089641
v 0.501580 0.215985 0.091501
v 0.473497 0.232769 0.055300
v 0.492581 0.222875 0.093785
v 0.495378 0.221425 0.093158
v 0.497250 0.220455 0.091749
v 0.498501 0.219806 0.089641
v 0.499057 0.219518 0.086489
v 0.474598 0.232198 0.052304
v 0.474875 0.235428 0.052304
v 0.474134 0.235193 0.054750
v 0.473497 0.232769 0.055300
v 0.473497 0.232769 0.055300
v 0.474134 0.235193 0.054750
v 0.472216 0.236807 0.055300
v 0.470837 0.234148 0.056540
v 0.472787 0.237909 0.052304
v 0.472216 0.236807 0.055300
v 0.474134 0.235193 0.054750
v 0.474875 0.235428 0.052304
v 0.472216 0.236807 0.049309
v 0.472787 0.237909 0.052304
v 0.474875 0.235428 0.052304
v 0.474134 0.235193 0.049858
v 0.469557 0.238186 0.052304
v 0.469792 0.237445 0.054750
v 0.472216 0.236807 0.055300
v 0.472787 0.237909 0.052304
v 0.469792 0.237445 0.049858
v 0.469557 0.238186 0.052304
v 0.472787 0.237909 0.052304
v 0.472216 0.236807 0.049309
v 0.501580 0.215985 0.091501
v 0.498501 0.219806 0.089641
v 0.497250 0.220455 0.091749
v 0.499393 0.217118 0.095187
v 0.499393 0.217118 0.095187
v 0.497250 0.220455 0.091749
v 0.495378 0.221425 0.093158
v 0.496121 0.218815 0.097650
v 0.496121 0.218815 0.097650
v 0.495378 0.221425 0.093158
v 0.492581 0.222875 0.093785
v 0.492088 0.220905 0.098554
vn -0.0000 -0.0000 1.0000
vn 0.0001 -0.0000 1.0000
vn 0.3397 -0.1761 0.9239
vn 0.3722 -0.1107 0.9215
vn 0.0002 0.0001 1.0000
vn 0.3341 0.6188 0.7110
vn 0.3131 0.6296 0.7110
vn -0.0000 0.0003 1.0000
vn 0.5584 0.4688 0.6844
vn 0.6594 -0.2603 0.7053
vn 0.7749 0.3480 0.5277
vn 0.3723 -0.1107 0.9215
vn 0.6278 -0.3254 0.7071
vn 0.8518 -0.3593 0.3813
vn 0.9174 0.2827 0.2800
vn 0.6278 -0.3255 0.7071
vn 0.8202 -0.4252 0.3827
vn 0.8878 -0.4603 -0.0000
vn 0.8879 -0.4601 0.0001
vn 0.9538 0.3004 -0.0000
vn 0.8518 -0.3592 0.3813
vn 0.8879 -0.4600 -0.0001
vn 0.8879 -0.4600 0.0001
vn 0.8517 -0.3593 -0.3814
vn 0.9174 0.2827 -0.2800
vn 0.9538 0.3004 -0.0001
vn 0.8879 -0.4601 -0.0001
vn 0.8878 -0.4602 -0.0000
vn 0.8202 -0.4252 -0.3827
vn 0.6594 -0.2603 -0.7053
vn 0.7749 0.3479 -0.5277
vn 0.8202 -0.4251 -0.3827
vn 0.6278 -0.3254 -0.7071
vn 0.3397 -0.1761 -0.9239
vn 0.3722 -0.1107 -0.9215
vn 0.3396 -0.1761 -0.9239
vn -0.0000 -0.0000 -1.0000
vn 0.0001 0.0001 -1.0000
vn 0.3723 -0.1107 -0.9215
vn 0.5584 0.4688 -0.6844
vn 0.3341 0.6188 -0.7110
vn -0.0000 0.0002 -1.0000
vn 0.3131 0.6297 -0.7110
vn -0.3049 0.2403 -0.9216
vn 0.0613 0.7265 -0.6844
vn 0.3130 0.6297 -0.7110
vn -0.3397 0.1761 -0.9239
vn -0.3049 0.2402 -0.9216
vn -0.6278 0.3254 -0.7071
vn -0.5928 0.3889 -0.7052
vn -0.6278 0.3255 -0.7071
vn -0.8202 0.4252 -0.3827
vn -0.7845 0.4890 -0.3814
vn -0.1622 0.8338 -0.5277
vn -0.2978 0.9126 -0.2800
vn -0.8877 0.4604 -0.0001
vn -0.3042 0.9526 -0.0000
vn -0.8878 0.4602 -0.0000
vn -0.8877 0.4604 -0.0002
vn -0.8877 0.4604 0.0001
vn -0.8878 0.4601 0.0003
vn -0.8876 0.4606 0.0002
vn -0.8878 0.4602 0.0001
vn -0.8202 0.4252 0.3827
vn -0.7845 0.4890 0.3813
vn -0.8877 0.4604 0.0002
vn -0.6278 0.3254 0.7071
vn -0.5928 0.3889 0.7052
vn -0.7845 0.4891 0.3813
vn -0.2978 0.9126 0.2800
vn -0.1622 0.8338 0.5277
vn -0.3049 0.2405 0.9215
vn 0.0613 0.7265 0.6844
vn -0.5928 0.3889 0.7053
vn -0.6277 0.3254 0.7071
vn -0.3397 0.1761 0.9239
vn -0.3050 0.2404 0.9215
vn -0.5927 0.3889 0.7053
vn 0.3131 0.6297 0.7110
vn -0.3049 0.2404 0.9215
vn -0.3396 0.1761 0.9239
vn -0.3049 0.2404 0.9216
vn 0.4602 0.8878 0.0001
vn 0.4602 0.8878 0.0002
vn 0.3341 0.6188 0.7109
vn 0.4603 0.8878 0.0002
vn 0.4603 0.8878 -0.0000
vn 0.4602 0.8878 -0.0000
vn 0.4604 0.8877 0.0001
vn 0.4603 0.8877 0.0001
vn 0.4603 0.8878 0.0001
vn 0.4601 0.8878 0.0001
vn -0.2468 0.7783 0.5773
vn -0.3023 0.9532 -0.0000
vn 0.3255 0.6277 0.7071
vn 0.4603 0.8878 -0.0001
vn -0.2978 0.9127 0.2800
vn 0.4600 0.8879 0.0001
vn 0.4601 0.8879 -0.0000
vn 0.4601 0.8879 0.0001
vn 0.4600 0.8879 -0.0000
vn 0.4602 0.8878 -0.0001
vn -0.2978 0.9127 -0.2800
vn 0.4601 0.8878 -0.0003
vn 0.4601 0.8879 -0.0001
vn 0.4599 0.8879 -0.0000
vn -0.2468 0.7783 -0.5774
vn 0.3255 0.6277 -0.7071
vn 0.4603 0.8877 -0.0000
vn 0.4603 0.8877 -0.0005
vn 0.4603 0.8878 -0.0002
vn 0.3131 0.6297 -0.7109
vn 0.4603 0.8878 -0.0004
vn 0.4606 0.8876 -0.0000
vn 0.4607 0.8876 -0.0002
vn 0.4604 0.8877 -0.0000
vn 0.7783 0.2468 -0.5774
vn 0.9532 0.3023 -0.0000
vn 0.4604 0.8877 -0.0001
vn 0.4605 0.8876 -0.0001
vn 0.4605 0.8876 -0.0000
vn 0.4605 0.8877 -0.0000
vn 0.7749 0.3480 -0.5277
vn 0.4603 0.8877 -0.0001
vn 0.4604 0.8877 0.0002
vn 0.9532 0.3023 0.0001
vn 0.7783 0.2468 0.5773
vt 0.870708 0.207729
vt 0.870708 0.178651
vt 0.858370 0.178651
vt 0.858370 0.207729
vt 0.870708 0.175740
vt 0.858370 0.175740
vt 0.855372 0.178651
vt 0.855372 0.207729
vt 0.855372 0.175740
vt 0.858370 0.172868
vt 0.855372 0.172868
vt 0.870708 0.172868
vt 0.858370 0.169995
vt 0.855372 0.169995
vt 0.870708 0.169995
vt 0.870708 0.167085
vt 0.858370 0.167085
vt 0.870708 0.126772
vt 0.858370 0.126772
vt 0.855372 0.167085
vt 0.855372 0.126772
vt 0.858370 0.123861
vt 0.855372 0.123861
vt 0.870708 0.123861
vt 0.858370 0.120989
vt 0.855372 0.120989
vt 0.870708 0.120989
vt 0.870708 0.306036
vt 0.870708 0.303164
vt 0.858370 0.303164
vt 0.858370 0.306036
vt 0.870708 0.300253
vt 0.858370 0.300253
vt 0.855372 0.303164
vt 0.855372 0.306036
vt 0.855372 0.300253
vt 0.858370 0.271174
vt 0.855372 0.271174
vt 0.870708 0.271174
vt 0.858370 0.268264
vt 0.855372 0.268264
vt 0.870708 0.268264
vt 0.870708 0.265391
vt 0.858370 0.265391
vt 0.870708 0.262519
vt 0.858370 0.262519
vt 0.855372 0.265391
vt 0.855372 0.262519
vt 0.858370 0.259608
vt 0.855372 0.259608
vt 0.870708 0.259608
vt 0.858370 0.219296
vt 0.855372 0.219296
vt 0.870708 0.219296
vt 0.870708 0.216385
vt 0.858370 0.216385
vt 0.870708 0.213512
vt 0.858370 0.213512
vt 0.855372 0.216385
vt 0.855372 0.213512
vt 0.858370 0.210640
vt 0.855372 0.210640
vt 0.870708 0.210640
vt 0.850967 0.012384
vt 0.849772 0.015195
vt 0.850966 0.016012
vt 0.853136 0.013860
vt 0.848292 0.011816
vt 0.847972 0.014813
vt 0.819285 0.011732
vt 0.819594 0.014761
vt 0.832099 0.037116
vt 0.833761 0.036416
vt 0.835432 0.037114
vt 0.852145 0.019019
vt 0.851774 0.017215
vt 0.834642 0.037905
vt 0.834757 0.038782
vt 0.836137 0.038782
vt 0.833765 0.037792
vt 0.852145 0.058545
vt 0.835432 0.040450
vt 0.854591 0.016039
vt 0.855138 0.018713
vt 0.855138 0.058851
vt 0.851774 0.060351
vt 0.854594 0.061525
vt 0.850968 0.061556
vt 0.847971 0.062751
vt 0.849770 0.062367
vt 0.834642 0.039659
vt 0.833765 0.039772
vt 0.833761 0.041147
vt 0.819594 0.062802
vt 0.832099 0.040447
vt 0.850969 0.065176
vt 0.848293 0.065747
vt 0.819286 0.065831
vt 0.853141 0.063706
vt 0.817781 0.062425
vt 0.816584 0.065264
vt 0.816575 0.061607
vt 0.815391 0.058587
vt 0.815768 0.060397
vt 0.832889 0.039658
vt 0.832776 0.038782
vt 0.831402 0.038782
vt 0.815391 0.018977
vt 0.812938 0.061584
vt 0.812388 0.058897
vt 0.812388 0.018667
vt 0.814397 0.063781
vt 0.815768 0.017166
vt 0.812938 0.015980
vt 0.817781 0.015138
vt 0.816575 0.015956
vt 0.832889 0.037906
vt 0.833766 0.038782
vt 0.814397 0.013783
vt 0.816584 0.012299
s 1
f 1/1/1 2/2/1 3/3/1
f 1/1/1 3/3/1 4/4/1
f 5/2/2 6/5/3 7/6/4
f 5/2/2 7/6/4 8/3/5
f 9/3/5 10/7/6 11/8/7
f 9/3/5 11/8/7 12/4/8
f 13/6/4 14/9/9 15/7/6
f 13/6/4 15/7/6 16/3/5
f 17/10/10 18/11/11 19/9/9
f 17/10/10 19/9/9 20/6/12
f 21/5/3 22/12/13 23/10/10
f 21/5/3 23/10/10 24/6/4
f 25/13/14 26/14/15 27/11/11
f 25/13/14 27/11/11 28/10/10
f 29/12/16 30/15/17 31/13/14
f 29/12/16 31/13/14 32/10/10
f 33/15/17 34/16/18 35/17/19
f 33/15/17 35/17/19 36/13/14
f 37/16/18 38/18/18 39/19/18
f 37/16/18 39/19/18 40/17/18
f 41/17/19 42/20/20 43/14/15
f 41/17/19 43/14/15 44/13/21
f 45/19/22 46/21/20 47/20/20
f 45/19/22 47/20/20 48/17/23
f 49/22/24 50/23/25 51/21/26
f 49/22/24 51/21/26 52/19/27
f 53/18/28 54/24/29 55/22/24
f 53/18/28 55/22/24 56/19/27
f 57/25/30 58/26/31 59/23/25
f 57/25/30 59/23/25 60/22/24
f 61/24/32 62/27/33 63/25/30
f 61/24/32 63/25/30 64/22/24
f 65/28/33 66/29/34 67/30/35
f 65/28/33 67/30/35 68/31/30
f 69/29/36 70/32/37 71/33/38
f 69/29/36 71/33/38 72/30/35
f 73/30/39 74/34/40 75/35/31
f 73/30/39 75/35/31 76/31/30
f 77/33/38 78/36/41 79/34/40
f 77/33/38 79/34/40 80/30/35
f 81/37/42 82/38/43 83/36/41
f 81/37/42 83/36/41 84/33/38
f 85/32/37 86/39/37 87/37/37
f 85/32/37 87/37/37 88/33/37
f 89/40/44 90/41/45 91/38/46
f 89/40/44 91/38/46 92/37/42
f 93/39/37 94/42/47 95/40/48
f 93/39/37 95/40/48 96/37/42
f 97/42/47 98/43/49 99/44/50
f 97/42/47 99/44/50 100/40/44
f 101/43/51 102/45/52 103/46/53
f 101/43/51 103/46/53 104/44/50
f 105/44/50 106/47/54 107/41/45
f 105/44/50 107/41/45 108/40/44
f 109/46/53 110/48/55 111/47/54
f 109/46/53 111/47/54 112/44/50
f 113/49/56 114/50/57 115/48/55
f 113/49/56 115/48/55 116/46/53
f 117/45/52 118/51/58 119/49/59
f 117/45/52 119/49/59 120/46/53
f 121/52/60 122/53/57 123/50/57
f 121/52/60 123/50/57 124/49/56
f 125/51/58 126/54/61 127/52/62
f 125/51/58 127/52/62 128/49/58
f 129/54/63 130/55/64 131/56/65
f 129/54/63 131/56/65 132/52/66
f 133/55/64 134/57/67 135/58/68
f 133/55/64 135/58/68 136/56/65
f 137/56/69 138/59/70 139/53/57
f 137/56/69 139/53/57 140/52/60
f 141/58/68 142/60/71 143/59/70
f 141/58/68 143/59/70 144/56/65
f 145/61/72 146/62/73 147/60/71
f 145/61/72 147/60/71 148/58/74
f 149/57/75 150/63/76 151/61/77
f 149/57/75 151/61/77 152/58/78
f 153/4/8 154/8/79 155/62/73
f 153/4/8 155/62/73 156/61/80
f 157/63/81 158/1/1 159/4/8
f 157/63/81 159/4/8 160/61/82
f 161/64/73 162/65/83 163/66/83
f 161/64/73 163/66/83 164/67/71
f 165/68/79 166/69/84 167/65/83
f 165/68/79 167/65/83 168/64/73
f 169/70/85 170/71/86 171/69/84
f 169/70/85 171/69/84 172/68/79
f 176/71/87 177/72/88 173/73/87
f 173/73/87 174/74/89 175/69/87
f 175/69/87 176/71/87 173/73/87
f 182/65/88 183/69/90 178/74/87
f 178/74/87 179/75/91 180/76/88
f 180/76/88 181/66/83 182/65/88
f 182/65/88 178/74/87 180/76/88
f 184/74/92 185/77/93 186/78/94
f 184/74/92 186/78/94 187/79/88
f 188/73/83 189/80/95 190/77/93
f 188/73/83 190/77/93 191/74/84
f 195/81/88 196/75/88 192/74/88
f 193/79/92 194/82/96 195/81/88
f 195/81/88 192/74/88 193/79/92
f 197/83/97 198/76/98 199/75/99
f 197/83/97 199/75/99 200/84/57
f 201/84/57 202/75/99 203/81/99
f 201/84/57 203/81/99 204/85/57
f 205/67/71 206/66/83 207/76/100
f 205/67/71 207/76/100 208/83/97
f 209/85/57 210/81/101 211/86/102
f 209/85/57 211/86/102 212/87/103
f 217/88/104 218/86/105 213/81/106
f 213/81/106 214/82/87 215/89/87
f 215/89/87 216/90/102 217/88/104
f 217/88/104 213/81/106 215/89/87
f 219/82/87 220/91/107 221/92/108
f 219/82/87 221/92/108 222/93/109
f 223/79/102 224/78/94 225/91/107
f 223/79/102 225/91/107 226/82/87
f 230/94/87 231/89/110 227/82/87
f 228/93/89 229/95/88 230/94/87
f 230/94/87 227/82/87 228/93/89
f 232/96/45 233/90/102 234/89/111
f 232/96/45 234/89/111 235/97/112
f 236/97/112 237/89/111 238/94/111
f 236/97/112 238/94/111 239/98/41
f 240/99/54 241/88/102 242/90/102
f 240/99/54 242/90/102 243/96/45
f 244/87/55 245/86/102 246/88/102
f 244/87/55 246/88/102 247/99/54
f 248/98/41 249/94/111 250/100/96
f 248/98/41 250/100/96 251/101/40
f 256/102/88 257/100/113 252/94/88
f 252/94/88 253/95/88 254/103/114
f 254/103/114 255/104/115 256/102/88
f 256/102/88 252/94/88 254/103/114
f 258/95/116 259/105/117 260/106/118
f 258/95/116 260/106/118 261/107/116
f 262/93/87 263/92/108 264/105/117
f 262/93/87 264/105/117 265/95/119
f 270/107/120 266/72/87 267/108/87
f 267/108/87 268/103/114 269/95/88
f 269/95/88 270/107/120 267/108/87
f 271/109/25 272/104/119 273/103/121
f 271/109/25 273/103/121 274/110/20
f 275/110/20 276/103/122 277/108/122
f 275/110/20 277/108/122 278/111/20
f 279/112/123 280/102/119 281/104/119
f 279/112/123 281/104/119 282/109/25
f 283/101/40 284/100/96 285/102/124
f 283/101/40 285/102/124 286/112/123
f 287/111/20 288/108/116 289/113/125
f 287/111/20 289/113/125 290/114/15
f 295/113/88 296/108/83 291/72/88
f 291/72/88 292/71/88 293/115/88
f 293/115/88 294/116/89 295/113/88
f 295/113/88 291/72/88 293/115/88
f 297/107/90 298/106/126 299/117/127
f 297/107/90 299/117/127 300/72/83
f 301/72/83 302/117/127 303/80/95
f 301/72/83 303/80/95 304/73/83
f 305/118/87 306/80/95 307/117/127
f 305/118/87 307/117/127 308/106/118
f 309/92/108 310/118/109 311/106/118
f 309/92/108 311/106/118 312/105/117
f 313/78/94 314/77/93 315/80/95
f 313/78/94 315/80/95 316/118/87
f 317/91/107 318/78/94 319/118/87
f 317/91/107 319/118/87 320/92/108
f 321/114/15 322/113/125 323/116/89
f 321/114/15 323/116/89 324/119/11
f 325/119/11 326/116/89 327/115/86
f 325/119/11 327/115/86 328/120/9
f 329/120/9 330/115/86 331/71/86
f 329/120/9 331/71/86 332/70/6
