# Blender 5.2.0 LTS
# www.blender.org
mtllib button_16.mtl
o button_16
v -0.435600 0.220835 0.100529
v -0.445400 0.239738 0.100529
v -0.490066 0.216582 0.100529
v -0.480266 0.197679 0.100529
v -0.480266 0.197679 0.100529
v -0.490066 0.216582 0.100529
v -0.494610 0.214226 0.099511
v -0.484810 0.195323 0.099511
v -0.490066 0.216582 0.100529
v -0.445400 0.239738 0.100529
v -0.447768 0.243883 0.098554
v -0.492088 0.220905 0.098554
v -0.494610 0.214226 0.099511
v -0.490066 0.216582 0.100529
v -0.492088 0.220905 0.098554
v -0.496121 0.218815 0.097650
v -0.498463 0.212229 0.096611
v -0.494610 0.214226 0.099511
v -0.496121 0.218815 0.097650
v -0.499393 0.217118 0.095187
v -0.484810 0.195323 0.099511
v -0.494610 0.214226 0.099511
v -0.498463 0.212229 0.096611
v -0.488663 0.193326 0.096611
v -0.501037 0.210894 0.092272
v -0.498463 0.212229 0.096611
v -0.499393 0.217118 0.095187
v -0.501580 0.215985 0.091501
v -0.488663 0.193326 0.096611
v -0.498463 0.212229 0.096611
v -0.501037 0.210894 0.092272
v -0.491237 0.191991 0.092272
v -0.491237 0.191991 0.092272
v -0.501037 0.210894 0.092272
v -0.501941 0.210426 0.087154
v -0.492141 0.191523 0.087154
v -0.492141 0.191523 0.087154
v -0.501941 0.210426 0.087154
v -0.501941 0.210426 0.017455
v -0.492141 0.191523 0.017455
v -0.501941 0.210426 0.087154
v -0.501037 0.210894 0.092272
v -0.501580 0.215985 0.091501
v -0.502382 0.215569 0.086959
v -0.501941 0.210426 0.017455
v -0.501941 0.210426 0.087154
v -0.502382 0.215569 0.086959
v -0.502382 0.215569 0.017649
v -0.501037 0.210894 0.012336
v -0.501941 0.210426 0.017455
v -0.502382 0.215569 0.017649
v -0.501580 0.215985 0.013107
v -0.492141 0.191523 0.017455
v -0.501941 0.210426 0.017455
v -0.501037 0.210894 0.012336
v -0.491237 0.191991 0.012336
v -0.498463 0.212229 0.007997
v -0.501037 0.210894 0.012336
v -0.501580 0.215985 0.013107
v -0.499393 0.217118 0.009421
v -0.491237 0.191991 0.012336
v -0.501037 0.210894 0.012336
v -0.498463 0.212229 0.007997
v -0.488663 0.193326 0.007997
v -0.488663 0.193326 0.007997
v -0.498463 0.212229 0.007997
v -0.494610 0.214226 0.005097
v -0.484810 0.195323 0.005097
v -0.484810 0.195323 0.005097
v -0.494610 0.214226 0.005097
v -0.490066 0.216582 0.004079
v -0.480266 0.197679 0.004079
v -0.494610 0.214226 0.005097
v -0.498463 0.212229 0.007997
v -0.499393 0.217118 0.009421
v -0.496121 0.218815 0.006958
v -0.490066 0.216582 0.004079
v -0.494610 0.214226 0.005097
v -0.496121 0.218815 0.006958
v -0.492088 0.220905 0.006055
v -0.445400 0.239738 0.004079
v -0.490066 0.216582 0.004079
v -0.492088 0.220905 0.006055
v -0.447768 0.243883 0.006055
v -0.480266 0.197679 0.004079
v -0.490066 0.216582 0.004079
v -0.445400 0.239738 0.004079
v -0.435600 0.220835 0.004079
v -0.440856 0.242094 0.005097
v -0.445400 0.239738 0.004079
v -0.447768 0.243883 0.006055
v -0.443735 0.245973 0.006958
v -0.435600 0.220835 0.004079
v -0.445400 0.239738 0.004079
v -0.440856 0.242094 0.005097
v -0.431056 0.223191 0.005097
v -0.431056 0.223191 0.005097
v -0.440856 0.242094 0.005097
v -0.437003 0.244091 0.007997
v -0.427203 0.225188 0.007997
v -0.427203 0.225188 0.007997
v -0.437003 0.244091 0.007997
v -0.434429 0.245426 0.012336
v -0.424629 0.226523 0.012336
v -0.437003 0.244091 0.007997
v -0.440856 0.242094 0.005097
v -0.443735 0.245973 0.006958
v -0.440463 0.247670 0.009421
v -0.434429 0.245426 0.012336
v -0.437003 0.244091 0.007997
v -0.440463 0.247670 0.009421
v -0.438276 0.248803 0.013107
v -0.433525 0.245895 0.017455
v -0.434429 0.245426 0.012336
v -0.438276 0.248803 0.013107
v -0.437474 0.249219 0.017649
v -0.424629 0.226523 0.012336
v -0.434429 0.245426 0.012336
v -0.433525 0.245895 0.017455
v -0.423725 0.226991 0.017455
v -0.433525 0.245895 0.087154
v -0.433525 0.245895 0.017455
v -0.437474 0.249219 0.017649
v -0.437474 0.249219 0.086959
v -0.423725 0.226991 0.017455
v -0.433525 0.245895 0.017455
v -0.433525 0.245895 0.087154
v -0.423725 0.226991 0.087154
v -0.423725 0.226991 0.087154
v -0.433525 0.245895 0.087154
v -0.434429 0.245426 0.092272
v -0.424629 0.226523 0.092272
v -0.424629 0.226523 0.092272
v -0.434429 0.245426 0.092272
v -0.437003 0.244091 0.096611
v -0.427203 0.225188 0.096611
v -0.434429 0.245426 0.092272
v -0.433525 0.245895 0.087154
v -0.437474 0.249219 0.086959
v -0.438276 0.248803 0.091501
v -0.437003 0.244091 0.096611
v -0.434429 0.245426 0.092272
v -0.438276 0.248803 0.091501
v -0.440463 0.247670 0.095187
v -0.440856 0.242094 0.099511
v -0.437003 0.244091 0.096611
v -0.440463 0.247670 0.095187
v -0.443735 0.245973 0.097650
v -0.427203 0.225188 0.096611
v -0.437003 0.244091 0.096611
v -0.440856 0.242094 0.099511
v -0.431056 0.223191 0.099511
v -0.445400 0.239738 0.100529
v -0.440856 0.242094 0.099511
v -0.443735 0.245973 0.097650
v -0.447768 0.243883 0.098554
v -0.431056 0.223191 0.099511
v -0.440856 0.242094 0.099511
v -0.445400 0.239738 0.100529
v -0.435600 0.220835 0.100529
v -0.443735 0.245973 0.097650
v -0.440463 0.247670 0.095187
v -0.444424 0.247841 0.091749
v -0.446296 0.246871 0.093158
v -0.447768 0.243883 0.098554
v -0.443735 0.245973 0.097650
v -0.446296 0.246871 0.093158
v -0.449094 0.245420 0.093785
v -0.492088 0.220905 0.098554
v -0.447768 0.243883 0.098554
v -0.449094 0.245420 0.093785
v -0.492581 0.222875 0.093785
v -0.470837 0.234148 0.056540
v -0.473497 0.232769 0.055300
v -0.492581 0.222875 0.093785
v -0.449094 0.245420 0.093785
v -0.468178 0.235527 0.055300
v -0.468178 0.235527 0.055300
v -0.449094 0.245420 0.093785
v -0.446296 0.246871 0.093158
v -0.444424 0.247841 0.091749
v -0.443174 0.248489 0.089641
v -0.442617 0.248778 0.086489
v -0.468178 0.235527 0.055300
v -0.467077 0.236098 0.052304
v -0.469557 0.238186 0.052304
v -0.469792 0.237445 0.054750
v -0.470837 0.234148 0.056540
v -0.468178 0.235527 0.055300
v -0.469792 0.237445 0.054750
v -0.472216 0.236807 0.055300
v -0.468178 0.235527 0.055300
v -0.442617 0.248778 0.086489
v -0.442617 0.248778 0.018119
v -0.468178 0.235527 0.049309
v -0.467077 0.236098 0.052304
v -0.438276 0.248803 0.091501
v -0.437474 0.249219 0.086959
v -0.442617 0.248778 0.086489
v -0.443174 0.248489 0.089641
v -0.437474 0.249219 0.086959
v -0.437474 0.249219 0.017649
v -0.442617 0.248778 0.018119
v -0.442617 0.248778 0.086489
v -0.440463 0.247670 0.095187
v -0.438276 0.248803 0.091501
v -0.443174 0.248489 0.089641
v -0.444424 0.247841 0.091749
v -0.437474 0.249219 0.017649
v -0.438276 0.248803 0.013107
v -0.443174 0.248489 0.014968
v -0.442617 0.248778 0.018119
v -0.442617 0.248778 0.018119
v -0.443174 0.248489 0.014968
v -0.444424 0.247841 0.012859
v -0.446296 0.246871 0.011450
v -0.449094 0.245420 0.010824
v -0.468178 0.235527 0.049309
v -0.468178 0.235527 0.049309
v -0.470837 0.234148 0.048068
v -0.472216 0.236807 0.049309
v -0.469792 0.237445 0.049858
v -0.467077 0.236098 0.052304
v -0.468178 0.235527 0.049309
v -0.469792 0.237445 0.049858
v -0.469557 0.238186 0.052304
v -0.468178 0.235527 0.049309
v -0.449094 0.245420 0.010824
v -0.492581 0.222875 0.010824
v -0.473497 0.232769 0.049309
v -0.470837 0.234148 0.048068
v -0.443735 0.245973 0.006958
v -0.447768 0.243883 0.006055
v -0.449094 0.245420 0.010824
v -0.446296 0.246871 0.011450
v -0.447768 0.243883 0.006055
v -0.492088 0.220905 0.006055
v -0.492581 0.222875 0.010824
v -0.449094 0.245420 0.010824
v -0.440463 0.247670 0.009421
v -0.443735 0.245973 0.006958
v -0.446296 0.246871 0.011450
v -0.444424 0.247841 0.012859
v -0.438276 0.248803 0.013107
v -0.440463 0.247670 0.009421
v -0.444424 0.247841 0.012859
v -0.443174 0.248489 0.014968
v -0.492088 0.220905 0.006055
v -0.496121 0.218815 0.006958
v -0.495378 0.221425 0.011450
v -0.492581 0.222875 0.010824
v -0.492581 0.222875 0.010824
v -0.495378 0.221425 0.011450
v -0.497250 0.220455 0.012859
v -0.498501 0.219806 0.014968
v -0.499057 0.219518 0.018119
v -0.473497 0.232769 0.049309
v -0.473497 0.232769 0.049309
v -0.474598 0.232198 0.052304
v -0.474875 0.235428 0.052304
v -0.474134 0.235193 0.049858
v -0.470837 0.234148 0.048068
v -0.473497 0.232769 0.049309
v -0.474134 0.235193 0.049858
v -0.472216 0.236807 0.049309
v -0.473497 0.232769 0.055300
v -0.474598 0.232198 0.052304
v -0.473497 0.232769 0.049309
v -0.499057 0.219518 0.018119
v -0.499057 0.219518 0.086489
v -0.501580 0.215985 0.013107
v -0.502382 0.215569 0.017649
v -0.499057 0.219518 0.018119
v -0.498501 0.219806 0.014968
v -0.502382 0.215569 0.017649
v -0.502382 0.215569 0.086959
v -0.499057 0.219518 0.086489
v -0.499057 0.219518 0.018119
v -0.499393 0.217118 0.009421
v -0.501580 0.215985 0.013107
v -0.498501 0.219806 0.014968
v -0.497250 0.220455 0.012859
v -0.496121 0.218815 0.006958
v -0.499393 0.217118 0.009421
v -0.497250 0.220455 0.012859
v -0.495378 0.221425 0.011450
v -0.502382 0.215569 0.086959
v -0.501580 0.215985 0.091501
v -0.498501 0.219806 0.089641
v -0.499057 0.219518 0.086489
v -0.473497 0.232769 0.055300
v -0.499057 0.219518 0.086489
v -0.498501 0.219806 0.089641
v -0.497250 0.220455 0.091749
v -0.495378 0.221425 0.093158
v -0.492581 0.222875 0.093785
v -0.474598 0.232198 0.052304
v -0.473497 0.232769 0.055300
v -0.474134 0.235193 0.054750
v -0.474875 0.235428 0.052304
v -0.473497 0.232769 0.055300
v -0.470837 0.234148 0.056540
v -0.472216 0.236807 0.055300
v -0.474134 0.235193 0.054750
v -0.472787 0.237909 0.052304
v -0.474875 0.235428 0.052304
v -0.474134 0.235193 0.054750
v -0.472216 0.236807 0.055300
v -0.472216 0.236807 0.049309
v -0.474134 0.235193 0.049858
v -0.474875 0.235428 0.052304
v -0.472787 0.237909 0.052304
v -0.469557 0.238186 0.052304
v -0.472787 0.237909 0.052304
v -0.472216 0.236807 0.055300
v -0.469792 0.237445 0.054750
v -0.469792 0.237445 0.049858
v -0.472216 0.236807 0.049309
v -0.472787 0.237909 0.052304
v -0.469557 0.238186 0.052304
v -0.501580 0.215985 0.091501
v -0.499393 0.217118 0.095187
v -0.497250 0.220455 0.091749
v -0.498501 0.219806 0.089641
v -0.499393 0.217118 0.095187
v -0.496121 0.218815 0.097650
v -0.495378 0.221425 0.093158
v -0.497250 0.220455 0.091749
v -0.496121 0.218815 0.097650
v -0.492088 0.220905 0.098554
v -0.492581 0.222875 0.093785
v -0.495378 0.221425 0.093158
vn -0.0000 -0.0000 1.0000
vn -0.0001 -0.0001 1.0000
vn -0.0002 0.0001 1.0000
vn -0.3725 -0.1107 0.9214
vn -0.3396 -0.1761 0.9239
vn -0.0000 0.0003 1.0000
vn -0.3131 0.6296 0.7110
vn -0.3341 0.6188 0.7110
vn -0.5584 0.4688 0.6844
vn -0.6594 -0.2603 0.7053
vn -0.7748 0.3480 0.5278
vn -0.3397 -0.1761 0.9239
vn -0.6277 -0.3254 0.7071
vn -0.8518 -0.3592 0.3813
vn -0.7749 0.3480 0.5277
vn -0.9174 0.2827 0.2800
vn -0.6278 -0.3254 0.7071
vn -0.8518 -0.3593 0.3813
vn -0.8202 -0.4252 0.3827
vn -0.8879 -0.4601 0.0001
vn -0.8878 -0.4602 0.0001
vn -0.8878 -0.4603 -0.0000
vn -0.9538 0.3004 -0.0000
vn -0.8879 -0.4600 -0.0001
vn -0.8879 -0.4600 0.0001
vn -0.8518 -0.3593 -0.3813
vn -0.8879 -0.4601 -0.0001
vn -0.9174 0.2827 -0.2800
vn -0.8878 -0.4603 -0.0001
vn -0.8518 -0.3593 -0.3812
vn -0.8202 -0.4252 -0.3827
vn -0.6594 -0.2603 -0.7053
vn -0.8518 -0.3592 -0.3813
vn -0.7749 0.3480 -0.5277
vn -0.6278 -0.3255 -0.7071
vn -0.6278 -0.3254 -0.7071
vn -0.3725 -0.1108 -0.9214
vn -0.3397 -0.1762 -0.9239
vn -0.3397 -0.1761 -0.9239
vn -0.0002 0.0001 -1.0000
vn -0.0000 -0.0001 -1.0000
vn -0.5584 0.4688 -0.6844
vn -0.3341 0.6188 -0.7110
vn -0.0000 0.0002 -1.0000
vn -0.3131 0.6297 -0.7110
vn -0.0000 -0.0000 -1.0000
vn 0.3049 0.2404 -0.9215
vn -0.3131 0.6296 -0.7110
vn -0.0613 0.7265 -0.6844
vn 0.3049 0.2404 -0.9216
vn 0.3397 0.1760 -0.9239
vn 0.3397 0.1761 -0.9239
vn 0.3050 0.2404 -0.9215
vn 0.5928 0.3889 -0.7053
vn 0.6278 0.3254 -0.7071
vn 0.5928 0.3889 -0.7052
vn 0.7843 0.4890 -0.3818
vn 0.8202 0.4252 -0.3827
vn 0.1622 0.8338 -0.5277
vn 0.7843 0.4890 -0.3817
vn 0.2978 0.9126 -0.2800
vn 0.8877 0.4605 -0.0001
vn 0.7843 0.4891 -0.3817
vn 0.3042 0.9526 -0.0000
vn 0.7844 0.4890 -0.3817
vn 0.8877 0.4604 -0.0002
vn 0.8878 0.4603 -0.0000
vn 0.8877 0.4604 0.0001
vn 0.8877 0.4604 -0.0001
vn 0.8878 0.4602 -0.0000
vn 0.8876 0.4606 0.0002
vn 0.8878 0.4601 0.0003
vn 0.8878 0.4602 0.0001
vn 0.8877 0.4604 0.0002
vn 0.7843 0.4890 0.3817
vn 0.8202 0.4252 0.3827
vn 0.5928 0.3889 0.7052
vn 0.6278 0.3255 0.7071
vn 0.2978 0.9127 0.2800
vn 0.5927 0.3889 0.7053
vn 0.2978 0.9126 0.2800
vn 0.1622 0.8338 0.5277
vn 0.3049 0.2406 0.9215
vn 0.5928 0.3889 0.7053
vn -0.0613 0.7265 0.6844
vn 0.6278 0.3254 0.7071
vn 0.3049 0.2405 0.9215
vn 0.3397 0.1761 0.9239
vn -0.3131 0.6297 0.7110
vn 0.0001 -0.0000 1.0000
vn -0.4601 0.8879 0.0001
vn -0.4602 0.8878 0.0002
vn -0.3341 0.6188 0.7109
vn -0.4603 0.8878 -0.0000
vn -0.4602 0.8878 -0.0000
vn -0.4600 0.8879 -0.0000
vn -0.4603 0.8877 0.0001
vn -0.4600 0.8879 0.0002
vn -0.4602 0.8878 0.0001
vn 0.3023 0.9532 -0.0000
vn 0.2468 0.7783 0.5773
vn -0.4603 0.8878 0.0002
vn -0.3253 0.6279 0.7070
vn -0.4601 0.8879 -0.0001
vn -0.4603 0.8878 0.0001
vn 0.2977 0.9127 0.2800
vn -0.4600 0.8879 0.0001
vn -0.4601 0.8879 -0.0000
vn 0.2978 0.9127 -0.2800
vn -0.4600 0.8879 -0.0001
vn -0.4603 0.8878 -0.0002
vn -0.4602 0.8878 -0.0001
vn -0.4603 0.8878 -0.0001
vn -0.3255 0.6277 -0.7071
vn 0.2468 0.7783 -0.5774
vn -0.4603 0.8877 -0.0001
vn -0.3131 0.6297 -0.7109
vn -0.4602 0.8878 -0.0002
vn -0.4603 0.8878 -0.0004
vn -0.4604 0.8877 -0.0001
vn -0.4603 0.8877 -0.0000
vn -0.9532 0.3023 -0.0000
vn -0.7783 0.2468 -0.5774
vn -0.4605 0.8876 0.0001
vn -0.9174 0.2828 -0.2800
vn -0.4605 0.8876 -0.0000
vn -0.4605 0.8877 -0.0000
vn -0.7748 0.3480 -0.5277
vn -0.4604 0.8877 -0.0002
vn -0.4603 0.8877 -0.0002
vn -0.4604 0.8877 0.0001
vn -0.4601 0.8878 0.0005
vn -0.4604 0.8877 -0.0000
vn -0.7783 0.2468 0.5773
vn -0.3253 0.6280 0.7070
vn -0.4602 0.8878 0.0003
vt 0.839513 0.219295
vt 0.827175 0.219295
vt 0.827175 0.248374
vt 0.839513 0.248374
vt 0.827175 0.251285
vt 0.839513 0.251285
vt 0.824178 0.219295
vt 0.824178 0.248374
vt 0.824178 0.251285
vt 0.827175 0.254157
vt 0.824178 0.254157
vt 0.839513 0.254157
vt 0.827175 0.257029
vt 0.824178 0.257029
vt 0.839513 0.257029
vt 0.827175 0.259940
vt 0.839513 0.259940
vt 0.827175 0.300253
vt 0.839513 0.300253
vt 0.824178 0.259940
vt 0.824178 0.300253
vt 0.827175 0.303164
vt 0.824178 0.303164
vt 0.839513 0.303164
vt 0.827175 0.306036
vt 0.824178 0.306036
vt 0.839513 0.306036
vt 0.839513 0.120988
vt 0.827175 0.120988
vt 0.827175 0.123861
vt 0.839513 0.123861
vt 0.827175 0.126771
vt 0.839513 0.126771
vt 0.824178 0.120988
vt 0.824178 0.123861
vt 0.824178 0.126771
vt 0.827175 0.155850
vt 0.824178 0.155850
vt 0.839513 0.155850
vt 0.827175 0.158761
vt 0.824178 0.158761
vt 0.839513 0.158761
vt 0.827175 0.161633
vt 0.839513 0.161633
vt 0.827175 0.164506
vt 0.839513 0.164506
vt 0.824178 0.161633
vt 0.824178 0.164506
vt 0.827175 0.167416
vt 0.824178 0.167416
vt 0.839513 0.167416
vt 0.827175 0.207729
vt 0.824178 0.207729
vt 0.839513 0.207729
vt 0.827175 0.210640
vt 0.839513 0.210640
vt 0.827175 0.213512
vt 0.839513 0.213512
vt 0.824178 0.210640
vt 0.824178 0.213512
vt 0.827175 0.216385
vt 0.824178 0.216385
vt 0.839513 0.216385
vt 0.807169 0.058080
vt 0.809337 0.056604
vt 0.807168 0.054451
vt 0.805973 0.055268
vt 0.804494 0.058647
vt 0.804173 0.055651
vt 0.775486 0.058731
vt 0.775795 0.055702
vt 0.791633 0.033349
vt 0.789963 0.034047
vt 0.788301 0.033347
vt 0.807975 0.053248
vt 0.808346 0.051444
vt 0.792338 0.031681
vt 0.790958 0.031681
vt 0.790844 0.032558
vt 0.789966 0.032671
vt 0.808346 0.011919
vt 0.791633 0.030014
vt 0.810793 0.054424
vt 0.811339 0.051751
vt 0.811340 0.011613
vt 0.810795 0.008939
vt 0.807976 0.010113
vt 0.804173 0.007713
vt 0.807169 0.008908
vt 0.805971 0.008096
vt 0.789963 0.029316
vt 0.789966 0.030691
vt 0.790844 0.030804
vt 0.775796 0.007661
vt 0.788301 0.030016
vt 0.807170 0.005287
vt 0.804495 0.004716
vt 0.775487 0.004633
vt 0.809343 0.006758
vt 0.772786 0.005201
vt 0.773984 0.008038
vt 0.771592 0.011876
vt 0.772781 0.008857
vt 0.771967 0.010064
vt 0.787604 0.031681
vt 0.788977 0.031681
vt 0.789090 0.030805
vt 0.771592 0.051487
vt 0.769136 0.008881
vt 0.768589 0.011567
vt 0.768589 0.051797
vt 0.770600 0.006688
vt 0.769139 0.054483
vt 0.771969 0.053297
vt 0.773981 0.055325
vt 0.772776 0.054507
vt 0.789090 0.032557
vt 0.789967 0.031681
vt 0.770598 0.056681
vt 0.772785 0.058164
s 1
f 1/1/1 2/2/1 3/3/1
f 1/1/1 3/3/1 4/4/1
f 5/4/2 6/3/3 7/5/4
f 5/4/2 7/5/4 8/6/5
f 9/3/3 10/2/6 11/7/7
f 9/3/3 11/7/7 12/8/8
f 13/5/4 14/3/3 15/8/8
f 13/5/4 15/8/8 16/9/9
f 17/10/10 18/5/4 19/9/9
f 17/10/10 19/9/9 20/11/11
f 21/6/12 22/5/4 23/10/10
f 21/6/12 23/10/10 24/12/13
f 25/13/14 26/10/10 27/11/15
f 25/13/14 27/11/15 28/14/16
f 29/12/17 30/10/10 31/13/18
f 29/12/17 31/13/18 32/15/19
f 33/15/19 34/13/18 35/16/20
f 33/15/19 35/16/20 36/17/21
f 37/17/22 38/16/22 39/18/22
f 37/17/22 39/18/22 40/19/22
f 41/16/20 42/13/18 43/14/16
f 41/16/20 43/14/16 44/20/23
f 45/18/24 46/16/25 47/20/23
f 45/18/24 47/20/23 48/21/23
f 49/22/26 50/18/27 51/21/23
f 49/22/26 51/21/23 52/23/28
f 53/19/29 54/18/27 55/22/30
f 53/19/29 55/22/30 56/24/31
f 57/25/32 58/22/33 59/23/28
f 57/25/32 59/23/28 60/26/34
f 61/24/31 62/22/26 63/25/32
f 61/24/31 63/25/32 64/27/35
f 65/28/36 66/29/32 67/30/37
f 65/28/36 67/30/37 68/31/38
f 69/31/39 70/30/37 71/32/40
f 69/31/39 71/32/40 72/33/41
f 73/30/37 74/29/32 75/34/34
f 73/30/37 75/34/34 76/35/42
f 77/32/40 78/30/37 79/35/42
f 77/32/40 79/35/42 80/36/43
f 81/37/44 82/32/40 83/36/43
f 81/37/44 83/36/43 84/38/45
f 85/33/46 86/32/46 87/37/46
f 85/33/46 87/37/46 88/39/46
f 89/40/47 90/37/44 91/38/48
f 89/40/47 91/38/48 92/41/49
f 93/39/46 94/37/44 95/40/50
f 93/39/46 95/40/50 96/42/51
f 97/42/52 98/40/53 99/43/54
f 97/42/52 99/43/54 100/44/55
f 101/44/55 102/43/56 103/45/57
f 101/44/55 103/45/57 104/46/58
f 105/43/54 106/40/47 107/41/49
f 105/43/54 107/41/49 108/47/59
f 109/45/60 110/43/54 111/47/59
f 109/45/60 111/47/59 112/48/61
f 113/49/62 114/45/63 115/48/61
f 113/49/62 115/48/61 116/50/64
f 117/46/58 118/45/65 119/49/66
f 117/46/58 119/49/66 120/51/67
f 121/52/68 122/49/69 123/50/64
f 121/52/68 123/50/64 124/53/64
f 125/51/70 126/49/70 127/52/71
f 125/51/70 127/52/71 128/54/72
f 129/54/73 130/52/74 131/55/75
f 129/54/73 131/55/75 132/56/76
f 133/56/76 134/55/75 135/57/77
f 133/56/76 135/57/77 136/58/78
f 137/55/75 138/52/68 139/53/64
f 137/55/75 139/53/64 140/59/79
f 141/57/80 142/55/75 143/59/81
f 141/57/80 143/59/81 144/60/82
f 145/61/83 146/57/84 147/60/82
f 145/61/83 147/60/82 148/62/85
f 149/58/86 150/57/84 151/61/87
f 149/58/86 151/61/87 152/63/88
f 153/2/6 154/61/87 155/62/85
f 153/2/6 155/62/85 156/7/89
f 157/63/88 158/61/87 159/2/6
f 157/63/88 159/2/6 160/1/90
f 161/64/85 162/65/82 163/66/91
f 161/64/85 163/66/91 164/67/92
f 165/68/89 166/64/85 167/67/92
f 165/68/89 167/67/92 168/69/92
f 169/70/93 170/68/89 171/69/92
f 169/70/93 171/69/92 172/71/92
f 176/69/94 177/72/91 173/73/94
f 173/73/94 174/74/95 175/71/94
f 175/71/94 176/69/94 173/73/94
f 182/75/95 183/76/96 178/72/94
f 178/72/94 179/69/97 180/67/95
f 180/67/95 181/66/98 182/75/95
f 182/75/95 178/72/94 180/67/95
f 184/72/99 185/77/95 186/78/100
f 184/72/99 186/78/100 187/79/101
f 188/73/99 189/72/102 190/79/101
f 188/73/99 190/79/101 191/80/103
f 196/77/104 192/72/105 193/76/95
f 193/76/95 194/81/95 195/82/95
f 195/82/95 196/77/104 193/76/95
f 197/83/106 198/84/64 199/76/96
f 197/83/106 199/76/96 200/75/107
f 201/84/64 202/85/64 203/81/91
f 201/84/64 203/81/91 204/76/108
f 205/65/82 206/83/106 207/75/91
f 205/65/82 207/75/91 208/66/107
f 209/85/64 210/86/109 211/87/110
f 209/85/64 211/87/110 212/81/91
f 217/88/94 218/82/94 213/81/98
f 213/81/98 214/87/104 215/89/95
f 215/89/95 216/90/111 217/88/94
f 217/88/94 213/81/98 215/89/95
f 219/82/112 220/91/113 221/92/114
f 219/82/112 221/92/114 222/93/115
f 223/77/99 224/82/112 225/93/115
f 223/77/99 225/93/115 226/78/100
f 231/91/94 227/82/116 228/88/94
f 228/88/94 229/94/94 230/95/94
f 230/95/94 231/91/94 228/88/94
f 232/96/49 233/97/117 234/88/118
f 232/96/49 234/88/118 235/90/111
f 236/97/117 237/98/43 238/94/118
f 236/97/117 238/94/118 239/88/118
f 240/99/59 241/96/49 242/90/111
f 240/99/59 242/90/111 243/89/110
f 244/86/109 245/99/59 246/89/110
f 244/86/109 246/89/110 247/87/110
f 248/98/43 249/100/42 250/101/111
f 248/98/43 250/101/111 251/94/118
f 256/102/94 257/95/95 252/94/95
f 252/94/95 253/101/119 254/103/95
f 254/103/95 255/104/120 256/102/94
f 256/102/94 252/94/95 254/103/95
f 258/95/113 259/105/121 260/106/122
f 258/95/113 260/106/122 261/107/123
f 262/91/113 263/95/111 264/107/123
f 262/91/113 264/107/123 265/92/114
f 269/102/94 270/108/94 266/74/95
f 267/105/124 268/95/94 269/102/94
f 269/102/94 266/74/95 267/105/124
f 271/109/125 272/110/23 273/102/126
f 271/109/125 273/102/126 274/104/120
f 275/110/23 276/111/23 277/108/127
f 275/110/23 277/108/127 278/102/127
f 279/112/128 280/109/28 281/104/120
f 279/112/128 281/104/120 282/103/129
f 283/100/42 284/112/128 285/103/129
f 283/100/42 285/103/129 286/101/130
f 287/111/23 288/113/16 289/114/131
f 287/111/23 289/114/131 290/108/127
f 295/115/95 296/71/132 291/74/95
f 291/74/95 292/108/99 293/114/95
f 293/114/95 294/116/131 295/115/95
f 295/115/95 291/74/95 293/114/95
f 297/105/131 298/74/133 299/117/134
f 297/105/131 299/117/134 300/106/122
f 301/74/102 302/73/105 303/80/103
f 301/74/102 303/80/103 304/117/134
f 305/118/121 306/106/122 307/117/134
f 305/118/121 307/117/134 308/80/135
f 309/92/114 310/107/123 311/106/122
f 309/92/114 311/106/122 312/118/94
f 313/78/100 314/118/121 315/80/103
f 313/78/100 315/80/103 316/79/101
f 317/93/115 318/92/114 319/118/94
f 317/93/115 319/118/94 320/78/100
f 321/113/16 322/119/15 323/116/131
f 321/113/16 323/116/131 324/114/131
f 325/119/15 326/120/9 327/115/102
f 325/119/15 327/115/102 328/116/131
f 329/120/9 330/70/8 331/71/136
f 329/120/9 331/71/136 332/115/102
