# Blender 5.2.0 LTS
# www.blender.org
mtllib button_08.mtl
o button_08
v 0.318612 0.310841 0.148431
v 0.319521 0.312595 0.143623
v 0.312043 0.316471 0.142543
v 0.310036 0.315287 0.147193
v 0.325448 0.301925 0.149119
v 0.327188 0.306395 0.147193
v 0.318612 0.310841 0.148431
v 0.316417 0.306607 0.150422
v 0.327188 0.306395 0.147193
v 0.326998 0.308718 0.142543
v 0.319521 0.312595 0.143623
v 0.318612 0.310841 0.148431
v 0.333640 0.297678 0.145296
v 0.334951 0.302370 0.143571
v 0.327188 0.306395 0.147193
v 0.325448 0.301925 0.149119
v 0.334951 0.302370 0.143571
v 0.333725 0.305231 0.139405
v 0.326998 0.308718 0.142543
v 0.327188 0.306395 0.147193
v 0.340675 0.294031 0.139216
v 0.341619 0.298913 0.137807
v 0.334951 0.302370 0.143571
v 0.333640 0.297678 0.145296
v 0.341619 0.298913 0.137807
v 0.339509 0.302232 0.134406
v 0.333725 0.305231 0.139405
v 0.334951 0.302370 0.143571
v 0.346073 0.291232 0.131292
v 0.346737 0.296260 0.130295
v 0.341619 0.298913 0.137807
v 0.340675 0.294031 0.139216
v 0.346737 0.296260 0.130295
v 0.343947 0.299931 0.127890
v 0.339509 0.302232 0.134406
v 0.341619 0.298913 0.137807
v 0.349467 0.289473 0.122063
v 0.349964 0.294587 0.121519
v 0.346737 0.296260 0.130295
v 0.346073 0.291232 0.131292
v 0.349964 0.294587 0.121519
v 0.346774 0.298466 0.120203
v 0.343947 0.299931 0.127890
v 0.346737 0.296260 0.130295
v 0.350624 0.288873 0.112161
v 0.351058 0.294020 0.112161
v 0.349964 0.294587 0.121519
v 0.349467 0.289473 0.122063
v 0.351058 0.294020 0.112161
v 0.347715 0.297978 0.112161
v 0.346774 0.298466 0.120203
v 0.349964 0.294587 0.121519
v 0.283366 0.323741 0.122063
v 0.287259 0.327095 0.121519
v 0.286165 0.327662 0.112161
v 0.282209 0.324341 0.112161
v 0.287259 0.327095 0.121519
v 0.292267 0.326724 0.120203
v 0.291326 0.327212 0.112161
v 0.286165 0.327662 0.112161
v 0.286760 0.321982 0.131292
v 0.290487 0.325422 0.130295
v 0.287259 0.327095 0.121519
v 0.283366 0.323741 0.122063
v 0.290487 0.325422 0.130295
v 0.295094 0.325258 0.127890
v 0.292267 0.326724 0.120203
v 0.287259 0.327095 0.121519
v 0.292158 0.319184 0.139216
v 0.295604 0.322769 0.137807
v 0.290487 0.325422 0.130295
v 0.286760 0.321982 0.131292
v 0.295604 0.322769 0.137807
v 0.299533 0.322957 0.134406
v 0.295094 0.325258 0.127890
v 0.290487 0.325422 0.130295
v 0.299193 0.315536 0.145296
v 0.302272 0.319312 0.143571
v 0.295604 0.322769 0.137807
v 0.292158 0.319184 0.139216
v 0.302272 0.319312 0.143571
v 0.305317 0.319959 0.139405
v 0.299533 0.322957 0.134406
v 0.295604 0.322769 0.137807
v 0.307386 0.311289 0.149119
v 0.310036 0.315287 0.147193
v 0.302272 0.319312 0.143571
v 0.299193 0.315536 0.145296
v 0.310036 0.315287 0.147193
v 0.312043 0.316471 0.142543
v 0.305317 0.319959 0.139405
v 0.302272 0.319312 0.143571
v 0.282209 0.324341 0.017455
v 0.282209 0.324341 0.086489
v 0.286165 0.327662 0.086489
v 0.286165 0.327662 0.017608
v 0.286165 0.327662 0.112161
v 0.291326 0.327212 0.112161
v 0.291326 0.327212 0.086489
v 0.286165 0.327662 0.086489
v 0.350624 0.288873 0.017455
v 0.351058 0.294020 0.017608
v 0.351058 0.294020 0.086489
v 0.350624 0.288873 0.086489
v 0.351058 0.294020 0.017608
v 0.347716 0.297977 0.017980
v 0.347716 0.297978 0.086489
v 0.351058 0.294020 0.086489
v 0.350264 0.294432 0.013107
v 0.347184 0.298253 0.014968
v 0.347716 0.297977 0.017980
v 0.351058 0.294020 0.017608
v 0.347146 0.290676 0.007997
v 0.348077 0.295565 0.009421
v 0.350264 0.294432 0.013107
v 0.349721 0.289341 0.012336
v 0.348077 0.295565 0.009421
v 0.345934 0.298902 0.012859
v 0.347184 0.298253 0.014968
v 0.350264 0.294432 0.013107
v 0.343294 0.292673 0.005097
v 0.344805 0.297262 0.006958
v 0.348077 0.295565 0.009421
v 0.347146 0.290676 0.007997
v 0.344805 0.297262 0.006958
v 0.344062 0.299872 0.011450
v 0.345934 0.298902 0.012859
v 0.348077 0.295565 0.009421
v 0.338750 0.295029 0.004079
v 0.340772 0.299352 0.006055
v 0.344805 0.297262 0.006958
v 0.343294 0.292673 0.005097
v 0.340772 0.299352 0.006055
v 0.341264 0.301322 0.010824
v 0.344062 0.299872 0.011450
v 0.344805 0.297262 0.006958
v 0.294084 0.318185 0.004079
v 0.296451 0.322330 0.006055
v 0.340772 0.299352 0.006055
v 0.338750 0.295029 0.004079
v 0.296451 0.322330 0.006055
v 0.297777 0.323867 0.010824
v 0.341264 0.301322 0.010824
v 0.340772 0.299352 0.006055
v 0.289539 0.320541 0.005097
v 0.292419 0.324420 0.006958
v 0.296451 0.322330 0.006055
v 0.294084 0.318185 0.004079
v 0.292419 0.324420 0.006958
v 0.294980 0.325318 0.011450
v 0.297777 0.323867 0.010824
v 0.296451 0.322330 0.006055
v 0.285687 0.322538 0.007997
v 0.289146 0.326117 0.009421
v 0.292419 0.324420 0.006958
v 0.289539 0.320541 0.005097
v 0.289146 0.326117 0.009421
v 0.293108 0.326288 0.012859
v 0.294980 0.325318 0.011450
v 0.292419 0.324420 0.006958
v 0.283113 0.323873 0.012336
v 0.286960 0.327250 0.013107
v 0.289146 0.326117 0.009421
v 0.285687 0.322538 0.007997
v 0.286960 0.327250 0.013107
v 0.291857 0.326936 0.014968
v 0.293108 0.326288 0.012859
v 0.289146 0.326117 0.009421
v 0.282209 0.324341 0.017455
v 0.286165 0.327662 0.017608
v 0.286960 0.327250 0.013107
v 0.283113 0.323873 0.012336
v 0.286165 0.327662 0.017608
v 0.291325 0.327212 0.017979
v 0.291857 0.326936 0.014968
v 0.286960 0.327250 0.013107
v 0.282209 0.324341 0.112161
v 0.286165 0.327662 0.112161
v 0.286165 0.327662 0.086489
v 0.282209 0.324341 0.086489
v 0.297586 0.292386 0.149119
v 0.306617 0.287704 0.150422
v 0.316417 0.306607 0.150422
v 0.307386 0.311289 0.149119
v 0.319521 0.312595 0.143623
v 0.326998 0.308718 0.142543
v 0.333725 0.305231 0.139405
v 0.339509 0.302232 0.134406
v 0.343947 0.299931 0.127890
v 0.346774 0.298466 0.120203
v 0.347715 0.297978 0.112161
v 0.291326 0.327212 0.112161
v 0.292267 0.326724 0.120203
v 0.295094 0.325258 0.127890
v 0.299533 0.322957 0.134406
v 0.305317 0.319959 0.139405
v 0.312043 0.316471 0.142543
v 0.289393 0.296633 0.145296
v 0.297586 0.292386 0.149119
v 0.307386 0.311289 0.149119
v 0.299193 0.315536 0.145296
v 0.306617 0.287704 0.150422
v 0.315648 0.283022 0.149119
v 0.325448 0.301925 0.149119
v 0.316417 0.306607 0.150422
v 0.291325 0.327212 0.017979
v 0.347716 0.297977 0.017980
v 0.347184 0.298253 0.014968
v 0.345934 0.298902 0.012859
v 0.344062 0.299872 0.011450
v 0.341264 0.301322 0.010824
v 0.297777 0.323867 0.010824
v 0.294980 0.325318 0.011450
v 0.293108 0.326288 0.012859
v 0.291857 0.326936 0.014968
v 0.340824 0.269970 0.086489
v 0.340824 0.269970 0.017455
v 0.350624 0.288873 0.017455
v 0.350624 0.288873 0.086489
v 0.339667 0.270570 0.122063
v 0.340824 0.269970 0.112161
v 0.350624 0.288873 0.112161
v 0.349467 0.289473 0.122063
v 0.272409 0.305438 0.086489
v 0.272409 0.305438 0.112161
v 0.282209 0.324341 0.112161
v 0.282209 0.324341 0.086489
v 0.272409 0.305438 0.112161
v 0.273566 0.304838 0.122063
v 0.283366 0.323741 0.122063
v 0.282209 0.324341 0.112161
v 0.315648 0.283022 0.149119
v 0.323840 0.278775 0.145296
v 0.333640 0.297678 0.145296
v 0.325448 0.301925 0.149119
v 0.323840 0.278775 0.145296
v 0.330875 0.275128 0.139216
v 0.340675 0.294031 0.139216
v 0.333640 0.297678 0.145296
v 0.330875 0.275128 0.139216
v 0.336274 0.272329 0.131292
v 0.346073 0.291232 0.131292
v 0.340675 0.294031 0.139216
v 0.336274 0.272329 0.131292
v 0.339667 0.270570 0.122063
v 0.349467 0.289473 0.122063
v 0.346073 0.291232 0.131292
v 0.273566 0.304838 0.122063
v 0.276960 0.303079 0.131292
v 0.286760 0.321982 0.131292
v 0.283366 0.323741 0.122063
v 0.276960 0.303079 0.131292
v 0.282358 0.300280 0.139216
v 0.292158 0.319184 0.139216
v 0.286760 0.321982 0.131292
v 0.282358 0.300280 0.139216
v 0.289393 0.296633 0.145296
v 0.299193 0.315536 0.145296
v 0.292158 0.319184 0.139216
v 0.273313 0.304970 0.012336
v 0.272409 0.305438 0.017455
v 0.282209 0.324341 0.017455
v 0.283113 0.323873 0.012336
v 0.340824 0.269970 0.017455
v 0.339921 0.270438 0.012336
v 0.349721 0.289341 0.012336
v 0.350624 0.288873 0.017455
v 0.339921 0.270438 0.012336
v 0.337346 0.271773 0.007997
v 0.347146 0.290676 0.007997
v 0.349721 0.289341 0.012336
v 0.337346 0.271773 0.007997
v 0.333494 0.273770 0.005097
v 0.343294 0.292673 0.005097
v 0.347146 0.290676 0.007997
v 0.333494 0.273770 0.005097
v 0.328950 0.276126 0.004079
v 0.338750 0.295029 0.004079
v 0.343294 0.292673 0.005097
v 0.328950 0.276126 0.004079
v 0.284284 0.299282 0.004079
v 0.294084 0.318185 0.004079
v 0.338750 0.295029 0.004079
v 0.284284 0.299282 0.004079
v 0.279739 0.301638 0.005097
v 0.289539 0.320541 0.005097
v 0.294084 0.318185 0.004079
v 0.279739 0.301638 0.005097
v 0.275887 0.303635 0.007997
v 0.285687 0.322538 0.007997
v 0.289539 0.320541 0.005097
v 0.275887 0.303635 0.007997
v 0.273313 0.304970 0.012336
v 0.283113 0.323873 0.012336
v 0.285687 0.322538 0.007997
v 0.316417 0.306607 0.150422
v 0.318612 0.310841 0.148431
v 0.310036 0.315287 0.147193
v 0.307386 0.311289 0.149119
v 0.319521 0.312595 0.047998
v 0.347716 0.297977 0.017980
v 0.291325 0.327212 0.017979
v 0.291326 0.327212 0.112161
v 0.347715 0.297978 0.112161
v 0.347716 0.297978 0.086489
v 0.291326 0.327212 0.086489
v 0.272409 0.305438 0.017455
v 0.272409 0.305438 0.086489
v 0.282209 0.324341 0.086489
v 0.282209 0.324341 0.017455
v 0.340824 0.269970 0.112161
v 0.340824 0.269970 0.086489
v 0.350624 0.288873 0.086489
v 0.350624 0.288873 0.112161
v 0.349721 0.289341 0.012336
v 0.350264 0.294432 0.013107
v 0.351058 0.294020 0.017608
v 0.350624 0.288873 0.017455
v 0.351058 0.294020 0.112161
v 0.351058 0.294020 0.086489
v 0.347716 0.297978 0.086489
v 0.347715 0.297978 0.112161
v 0.350624 0.288873 0.112161
v 0.350624 0.288873 0.086489
v 0.351058 0.294020 0.086489
v 0.351058 0.294020 0.112161
v 0.286165 0.327662 0.017608
v 0.286165 0.327662 0.086489
v 0.291326 0.327212 0.086489
v 0.291325 0.327212 0.017979
v 0.322180 0.311216 0.055230
v 0.322818 0.313640 0.054680
v 0.320900 0.315254 0.055230
v 0.319521 0.312595 0.056471
v 0.319521 0.312595 0.056471
v 0.320900 0.315254 0.055230
v 0.318475 0.315892 0.054680
v 0.316862 0.313974 0.055230
v 0.316862 0.313974 0.055230
v 0.318475 0.315892 0.054680
v 0.318240 0.316633 0.052234
v 0.315760 0.314545 0.052234
v 0.315760 0.314545 0.052234
v 0.318240 0.316633 0.052234
v 0.318475 0.315892 0.049789
v 0.316862 0.313974 0.049239
v 0.316862 0.313974 0.049239
v 0.318475 0.315892 0.049789
v 0.320900 0.315254 0.049239
v 0.319521 0.312595 0.047998
v 0.319521 0.312595 0.047998
v 0.320900 0.315254 0.049239
v 0.322818 0.313640 0.049789
v 0.322180 0.311216 0.049239
v 0.322180 0.311216 0.049239
v 0.322818 0.313640 0.049789
v 0.323559 0.313875 0.052234
v 0.323282 0.310645 0.052234
v 0.323282 0.310645 0.052234
v 0.323559 0.313875 0.052234
v 0.322818 0.313640 0.054680
v 0.322180 0.311216 0.055230
v 0.318475 0.315892 0.049789
v 0.318240 0.316633 0.052234
v 0.321471 0.316356 0.052234
v 0.320900 0.315254 0.049239
v 0.318240 0.316633 0.052234
v 0.318475 0.315892 0.054680
v 0.320900 0.315254 0.055230
v 0.321471 0.316356 0.052234
v 0.321471 0.316356 0.052234
v 0.320900 0.315254 0.055230
v 0.322818 0.313640 0.054680
v 0.323559 0.313875 0.052234
v 0.320900 0.315254 0.049239
v 0.321471 0.316356 0.052234
v 0.323559 0.313875 0.052234
v 0.322818 0.313640 0.049789
v 0.347716 0.297977 0.017980
v 0.323282 0.310645 0.052234
v 0.347716 0.297978 0.086489
v 0.347716 0.297978 0.086489
v 0.319521 0.312595 0.056471
v 0.291326 0.327212 0.086489
v 0.316862 0.313974 0.049239
v 0.319521 0.312595 0.047998
v 0.291325 0.327212 0.017979
v 0.316862 0.313974 0.055230
v 0.315760 0.314545 0.052234
v 0.291326 0.327212 0.086489
v 0.319521 0.312595 0.056471
v 0.316862 0.313974 0.055230
v 0.291326 0.327212 0.086489
v 0.347716 0.297978 0.086489
v 0.322180 0.311216 0.055230
v 0.319521 0.312595 0.056471
v 0.322180 0.311216 0.049239
v 0.347716 0.297977 0.017980
v 0.319521 0.312595 0.047998
v 0.347716 0.297978 0.086489
v 0.323282 0.310645 0.052234
v 0.322180 0.311216 0.055230
v 0.323282 0.310645 0.052234
v 0.347716 0.297977 0.017980
v 0.322180 0.311216 0.049239
v 0.315760 0.314545 0.052234
v 0.316862 0.313974 0.049239
v 0.291325 0.327212 0.017979
v 0.291325 0.327212 0.017979
v 0.291326 0.327212 0.086489
v 0.315760 0.314545 0.052234
vn 0.3205 0.6182 0.7177
vn 0.4603 0.8878 0.0002
vn 0.4602 0.8878 0.0001
vn 0.1578 0.7025 0.6939
vn 0.2605 -0.0509 0.9641
vn 0.4832 0.5338 0.6939
vn 0.0344 0.0663 0.9972
vn 0.4603 0.8878 0.0001
vn 0.4771 -0.1631 0.8636
vn 0.6391 0.4526 0.6218
vn 0.4832 0.5338 0.6940
vn 0.6604 -0.2582 0.7051
vn 0.7711 0.3842 0.5077
vn 0.4771 -0.1632 0.8636
vn 0.4604 0.8877 0.0001
vn 0.8011 -0.3311 0.4986
vn 0.8723 0.3323 0.3586
vn 0.6604 -0.2581 0.7051
vn 0.8894 -0.3772 0.2581
vn 0.9363 0.2978 0.1863
vn 0.8724 0.3323 0.3586
vn 0.4604 0.8877 -0.0000
vn 0.4605 0.8877 0.0001
vn 0.8723 0.3324 0.3586
vn 0.8879 -0.4601 -0.0000
vn 0.9539 0.2990 0.0250
vn 0.9539 0.2991 0.0250
vn 0.4605 0.8877 -0.0000
vn -0.8208 0.5096 0.2581
vn -0.2962 0.9368 0.1863
vn -0.3055 0.9519 0.0250
vn -0.8877 0.4605 -0.0000
vn 0.4602 0.8878 -0.0000
vn -0.7323 0.4638 0.4986
vn -0.2312 0.9044 0.3587
vn -0.2962 0.9368 0.1864
vn -0.5916 0.3909 0.7051
vn -0.1303 0.8516 0.5077
vn -0.2311 0.9044 0.3587
vn -0.4082 0.2958 0.8636
vn 0.0015 0.7831 0.6219
vn -0.1918 0.1837 0.9641
vn 0.1578 0.7026 0.6939
vn 0.4602 0.8878 0.0002
vn -0.8877 0.4604 -0.0000
vn -0.3010 0.9536 -0.0000
vn -0.3011 0.9536 -0.0000
vn -0.3054 0.9519 0.0250
vn 0.8878 -0.4602 -0.0001
vn 0.9528 0.3035 -0.0000
vn 0.9528 0.3037 -0.0000
vn 0.9528 0.3036 -0.0000
vn 0.9177 0.2808 -0.2812
vn 0.4603 0.8877 -0.0000
vn 0.6594 -0.2604 -0.7053
vn 0.7749 0.3480 -0.5277
vn 0.9177 0.2807 -0.2812
vn 0.8516 -0.3595 -0.3815
vn 0.7749 0.3480 -0.5276
vn 0.4603 0.8878 -0.0001
vn 0.9176 0.2808 -0.2812
vn 0.3721 -0.1107 -0.9216
vn 0.5584 0.4688 -0.6844
vn 0.4603 0.8878 -0.0002
vn 0.0001 0.0001 -1.0000
vn 0.3341 0.6188 -0.7110
vn -0.0000 0.0001 -1.0000
vn 0.3131 0.6297 -0.7110
vn 0.3131 0.6297 -0.7109
vn 0.4602 0.8878 -0.0002
vn -0.3050 0.2403 -0.9215
vn 0.0613 0.7265 -0.6844
vn 0.4602 0.8878 -0.0001
vn 0.4602 0.8878 -0.0003
vn -0.5928 0.3888 -0.7053
vn -0.1622 0.8338 -0.5277
vn -0.3050 0.2404 -0.9215
vn -0.7846 0.4888 -0.3814
vn -0.2994 0.9117 -0.2812
vn -0.2994 0.9118 -0.2812
vn -0.8877 0.4603 -0.0000
vn -0.8877 0.4604 -0.0001
vn -0.2269 0.1176 0.9668
vn -0.0000 -0.0000 1.0000
vn -0.1918 0.1836 0.9641
vn 0.4603 0.8878 -0.0000
vn -0.4439 0.2301 0.8660
vn -0.4082 0.2958 0.8637
vn 0.2268 -0.1176 0.9668
vn 0.4601 0.8879 -0.0000
vn 0.4604 0.8877 -0.0001
vn 0.8878 -0.4603 -0.0000
vn 0.8575 -0.4446 0.2588
vn -0.8878 0.4603 -0.0000
vn -0.8877 0.4605 -0.0002
vn -0.8575 0.4446 0.2588
vn 0.4439 -0.2301 0.8660
vn 0.4770 -0.1632 0.8636
vn 0.6277 -0.3254 0.7072
vn 0.6277 -0.3254 0.7071
vn 0.7688 -0.3986 0.5000
vn 0.7689 -0.3986 0.5000
vn 0.8575 -0.4446 0.2589
vn -0.7688 0.3986 0.5000
vn -0.6277 0.3254 0.7071
vn -0.6277 0.3254 0.7072
vn -0.4083 0.2958 0.8636
vn -0.8202 0.4252 -0.3827
vn -0.8878 0.4603 -0.0001
vn 0.8202 -0.4252 -0.3827
vn 0.8516 -0.3596 -0.3814
vn 0.8878 -0.4602 -0.0002
vn 0.6277 -0.3254 -0.7071
vn 0.8516 -0.3595 -0.3814
vn 0.6277 -0.3254 -0.7072
vn 0.3398 -0.1762 -0.9238
vn 0.3721 -0.1108 -0.9216
vn 0.3398 -0.1761 -0.9239
vn -0.0000 -0.0000 -1.0000
vn 0.3720 -0.1107 -0.9216
vn -0.0001 -0.0000 -1.0000
vn -0.3398 0.1762 -0.9239
vn -0.3398 0.1762 -0.9238
vn -0.6278 0.3255 -0.7071
vn -0.3051 0.2403 -0.9215
vn -0.8876 0.4606 -0.0003
vn 0.4603 0.8877 0.0001
vn 0.7784 0.2467 0.5773
vn 0.3256 0.6277 0.7071
vn -0.2468 0.7783 0.5773
vn 0.4601 0.8878 -0.0001
vn -0.3023 0.9532 -0.0001
vn -0.2468 0.7783 -0.5774
vn 0.3255 0.6277 -0.7071
vn 0.7783 0.2467 -0.5774
vn 0.9532 0.3025 0.0001
vn 0.9531 0.3025 0.0001
vn 0.7784 0.2467 -0.5773
vn 0.4604 0.8877 0.0003
vn 0.4603 0.8877 -0.0001
vn 0.4606 0.8876 0.0001
vt 0.921330 0.078790
vt 0.921337 0.081835
vt 0.926217 0.082457
vt 0.926998 0.079526
vt 0.702425 0.164762
vt 0.699432 0.164762
vt 0.699432 0.170600
vt 0.702425 0.170600
vt 0.915669 0.079544
vt 0.916459 0.082471
vt 0.702425 0.159080
vt 0.699432 0.159080
vt 0.910556 0.081679
vt 0.912077 0.084297
vt 0.702425 0.153397
vt 0.699432 0.153397
vt 0.906170 0.085065
vt 0.908315 0.087199
vt 0.702425 0.147715
vt 0.699432 0.147715
vt 0.902811 0.089470
vt 0.905434 0.090975
vt 0.702425 0.142026
vt 0.699432 0.142026
vt 0.900699 0.094608
vt 0.903603 0.095425
vt 0.702425 0.136349
vt 0.699432 0.136349
vt 0.899987 0.100067
vt 0.902992 0.100079
vt 0.702425 0.199175
vt 0.699432 0.199175
vt 0.699432 0.204852
vt 0.702425 0.204852
vt 0.942014 0.094555
vt 0.939112 0.095381
vt 0.939735 0.100034
vt 0.942741 0.100014
vt 0.702425 0.193486
vt 0.699432 0.193486
vt 0.939890 0.089423
vt 0.937269 0.090933
vt 0.702425 0.187803
vt 0.699432 0.187803
vt 0.936518 0.085025
vt 0.934375 0.087164
vt 0.702425 0.182120
vt 0.699432 0.182120
vt 0.932121 0.081649
vt 0.930604 0.084272
vt 0.702425 0.176439
vt 0.699432 0.176439
vt 0.702425 0.259655
vt 0.702425 0.219715
vt 0.699432 0.219715
vt 0.699432 0.259655
vt 0.939742 0.114895
vt 0.942741 0.114895
vt 0.702425 0.081545
vt 0.699432 0.081545
vt 0.699432 0.121486
vt 0.702425 0.121486
vt 0.900088 0.154731
vt 0.903087 0.154474
vt 0.903023 0.114935
vt 0.900026 0.114940
vt 0.900636 0.157382
vt 0.903451 0.156198
vt 0.702425 0.075775
vt 0.699432 0.075775
vt 0.699432 0.078645
vt 0.702425 0.078645
vt 0.902100 0.159560
vt 0.904265 0.157399
vt 0.702425 0.303166
vt 0.699432 0.303166
vt 0.699432 0.306036
vt 0.702425 0.306036
vt 0.904276 0.161030
vt 0.905464 0.158216
vt 0.702425 0.300258
vt 0.699432 0.300258
vt 0.906953 0.161588
vt 0.907268 0.158596
vt 0.702425 0.271204
vt 0.699432 0.271204
vt 0.935871 0.161622
vt 0.935554 0.158612
vt 0.702425 0.268295
vt 0.699432 0.268295
vt 0.938561 0.161054
vt 0.937362 0.158229
vt 0.702425 0.265425
vt 0.699432 0.265425
vt 0.940740 0.159570
vt 0.938562 0.157409
vt 0.702425 0.262555
vt 0.699432 0.262555
vt 0.942200 0.157380
vt 0.939375 0.156202
vt 0.942739 0.154724
vt 0.939735 0.154472
vt 0.714753 0.176439
vt 0.714753 0.170600
vt 0.714753 0.182120
vt 0.714753 0.164762
vt 0.714753 0.121486
vt 0.714753 0.081545
vt 0.714753 0.142026
vt 0.714753 0.136349
vt 0.714753 0.219715
vt 0.714753 0.204852
vt 0.714753 0.199175
vt 0.714753 0.159080
vt 0.714753 0.153397
vt 0.714753 0.147715
vt 0.714753 0.193486
vt 0.714753 0.187803
vt 0.714753 0.262555
vt 0.714753 0.259655
vt 0.714753 0.078645
vt 0.714753 0.075775
vt 0.714753 0.306036
vt 0.714753 0.303166
vt 0.714753 0.300258
vt 0.714753 0.271204
vt 0.714753 0.268295
vt 0.714753 0.265425
vt 0.921401 0.137066
vt 0.919731 0.133031
vt 0.920520 0.133819
vt 0.921397 0.133705
vt 0.921397 0.132331
vt 0.922273 0.133819
vt 0.923061 0.133030
vt 0.922388 0.134694
vt 0.923765 0.134691
vt 0.922275 0.135571
vt 0.923065 0.136359
vt 0.921399 0.135686
vt 0.920521 0.135572
vt 0.919733 0.136361
vt 0.920406 0.134695
vt 0.919027 0.134693
vt 0.921397 0.134695
s 1
f 1/1/1 2/2/2 3/3/3
f 1/1/1 3/3/3 4/4/4
f 5/5/5 6/6/6 7/7/1
f 5/5/5 7/7/1 8/8/7
f 9/9/6 10/10/8 11/2/2
f 9/9/6 11/2/2 12/1/1
f 13/11/9 14/12/10 15/6/11
f 13/11/9 15/6/11 16/5/5
f 17/13/10 18/14/8 19/10/8
f 17/13/10 19/10/8 20/9/6
f 21/15/12 22/16/13 23/12/10
f 21/15/12 23/12/10 24/11/14
f 25/17/13 26/18/15 27/14/8
f 25/17/13 27/14/8 28/13/10
f 29/19/16 30/20/17 31/16/13
f 29/19/16 31/16/13 32/15/18
f 33/21/17 34/22/15 35/18/15
f 33/21/17 35/18/15 36/17/13
f 37/23/19 38/24/20 39/20/21
f 37/23/19 39/20/21 40/19/16
f 41/25/20 42/26/22 43/22/23
f 41/25/20 43/22/23 44/21/24
f 45/27/25 46/28/26 47/24/20
f 45/27/25 47/24/20 48/23/19
f 49/29/27 50/30/22 51/26/28
f 49/29/27 51/26/28 52/25/20
f 53/31/29 54/32/30 55/33/31
f 53/31/29 55/33/31 56/34/32
f 57/35/30 58/36/33 59/37/33
f 57/35/30 59/37/33 60/38/31
f 61/39/34 62/40/35 63/32/36
f 61/39/34 63/32/36 64/31/29
f 65/41/35 66/42/3 67/36/33
f 65/41/35 67/36/33 68/35/30
f 69/43/37 70/44/38 71/40/35
f 69/43/37 71/40/35 72/39/34
f 73/45/38 74/46/3 75/42/3
f 73/45/38 75/42/3 76/41/39
f 77/47/40 78/48/41 79/44/38
f 77/47/40 79/44/38 80/43/37
f 81/49/41 82/50/3 83/46/3
f 81/49/41 83/46/3 84/45/38
f 85/51/42 86/52/4 87/48/41
f 85/51/42 87/48/41 88/47/40
f 89/4/43 90/3/3 91/50/44
f 89/4/43 91/50/44 92/49/41
f 93/53/45 94/54/45 95/55/46
f 93/53/45 95/55/46 96/56/47
f 97/38/48 98/37/33 99/57/33
f 97/38/48 99/57/33 100/58/46
f 101/59/49 102/60/50 103/61/51
f 101/59/49 103/61/51 104/62/25
f 105/63/52 106/64/22 107/65/15
f 105/63/52 107/65/15 108/66/51
f 109/67/53 110/68/54 111/64/22
f 109/67/53 111/64/22 112/63/52
f 113/69/55 114/70/56 115/71/57
f 113/69/55 115/71/57 116/72/58
f 117/73/59 118/74/60 119/68/54
f 117/73/59 119/68/54 120/67/61
f 121/75/62 122/76/63 123/77/56
f 121/75/62 123/77/56 124/78/55
f 125/79/63 126/80/64 127/74/60
f 125/79/63 127/74/60 128/73/56
f 129/81/65 130/82/66 131/76/63
f 129/81/65 131/76/63 132/75/62
f 133/83/66 134/84/60 135/80/64
f 133/83/66 135/80/64 136/79/63
f 137/85/67 138/86/68 139/82/66
f 137/85/67 139/82/66 140/81/65
f 141/87/69 142/88/70 143/84/60
f 141/87/69 143/84/60 144/83/66
f 145/89/71 146/90/72 147/86/68
f 145/89/71 147/86/68 148/85/67
f 149/91/72 150/92/73 151/88/74
f 149/91/72 151/88/74 152/87/69
f 153/93/75 154/94/76 155/90/72
f 153/93/75 155/90/72 156/89/77
f 157/95/76 158/96/73 159/92/73
f 157/95/76 159/92/73 160/91/72
f 161/97/78 162/98/79 163/94/76
f 161/97/78 163/94/76 164/93/75
f 165/99/80 166/100/33 167/96/73
f 165/99/80 167/96/73 168/95/76
f 169/53/81 170/56/47 171/98/80
f 169/53/81 171/98/80 172/97/78
f 173/101/47 174/102/33 175/100/33
f 173/101/47 175/100/33 176/99/80
f 177/34/32 178/33/31 179/55/46
f 177/34/32 179/55/46 180/54/82
f 181/103/83 182/104/84 183/8/7
f 181/103/83 183/8/7 184/51/85
f 196/50/60 197/3/3 185/2/86
f 185/2/86 186/10/86 187/14/86
f 187/14/86 188/18/22 189/22/86
f 189/22/86 190/26/28 191/30/33
f 191/30/33 192/37/86 193/36/33
f 193/36/33 194/42/8 195/46/33
f 195/46/33 196/50/60 185/2/86
f 185/2/86 187/14/86 189/22/86
f 189/22/86 191/30/33 193/36/33
f 193/36/33 195/46/33 185/2/86
f 185/2/86 189/22/86 193/36/33
f 198/105/87 199/103/83 200/51/85
f 198/105/87 200/51/85 201/47/88
f 202/104/84 203/106/89 204/5/5
f 202/104/84 204/5/5 205/8/7
f 214/96/70 215/100/90 206/102/33
f 206/102/33 207/64/8 208/68/91
f 208/68/91 209/74/60 210/80/3
f 210/80/3 211/84/64 212/88/60
f 212/88/60 213/92/73 214/96/70
f 214/96/70 206/102/33 208/68/91
f 208/68/91 210/80/3 212/88/60
f 212/88/60 214/96/70 208/68/91
f 216/107/92 217/108/92 218/59/92
f 216/107/92 218/59/92 219/62/92
f 220/109/93 221/110/92 222/27/25
f 220/109/93 222/27/25 223/23/19
f 224/111/94 225/112/94 226/34/94
f 224/111/94 226/34/94 227/54/95
f 228/112/94 229/113/96 230/31/29
f 228/112/94 230/31/29 231/34/32
f 232/106/89 233/114/97 234/11/98
f 232/106/89 234/11/98 235/5/5
f 236/114/97 237/115/99 238/15/12
f 236/114/97 238/15/12 239/11/14
f 240/115/100 241/116/101 242/19/16
f 240/115/100 242/19/16 243/15/12
f 244/116/102 245/109/103 246/23/19
f 244/116/102 246/23/19 247/19/16
f 248/113/96 249/117/104 250/39/34
f 248/113/96 250/39/34 251/31/29
f 252/117/104 253/118/105 254/43/37
f 252/117/104 254/43/37 255/39/34
f 256/118/106 257/105/87 258/47/107
f 256/118/106 258/47/107 259/43/37
f 260/119/108 261/120/109 262/53/94
f 260/119/108 262/53/94 263/97/78
f 264/108/49 265/121/110 266/72/111
f 264/108/49 266/72/111 267/59/112
f 268/121/110 269/122/113 270/69/55
f 268/121/110 270/69/55 271/72/114
f 272/123/115 273/124/116 274/75/117
f 272/123/115 274/75/117 275/78/55
f 276/124/118 277/125/119 278/81/65
f 276/124/118 278/81/65 279/75/120
f 280/125/119 281/126/119 282/85/119
f 280/125/119 282/85/119 283/81/119
f 284/126/121 285/127/122 286/89/71
f 284/126/121 286/89/71 287/85/67
f 288/127/123 289/128/124 290/93/75
f 288/127/123 290/93/75 291/89/125
f 292/128/124 293/119/108 294/97/78
f 292/128/124 294/97/78 295/93/75
f 296/8/7 297/7/1 298/52/4
f 296/8/7 298/52/4 299/51/85
f 300/129/86 301/64/86 302/102/86
f 303/37/86 304/30/86 305/65/86
f 303/37/86 305/65/86 306/57/86
f 307/120/94 308/111/94 309/54/126
f 307/120/94 309/54/126 310/53/94
f 311/110/92 312/107/92 313/62/92
f 311/110/92 313/62/92 314/27/92
f 315/72/114 316/71/57 317/60/50
f 315/72/114 317/60/50 318/59/49
f 319/29/26 320/66/51 321/65/127
f 319/29/26 321/65/127 322/30/22
f 323/27/25 324/62/25 325/61/51
f 323/27/25 325/61/51 326/28/26
f 327/101/46 328/58/46 329/57/33
f 327/101/46 329/57/33 330/102/33
f 331/130/91 332/131/128 333/132/129
f 331/130/91 333/132/129 334/133/127
f 335/133/3 336/132/129 337/134/130
f 335/133/3 337/134/130 338/135/3
f 339/135/131 340/134/130 341/136/132
f 339/135/131 341/136/132 342/137/33
f 343/137/33 344/136/132 345/138/133
f 343/137/33 345/138/133 346/139/33
f 347/139/60 348/138/133 349/140/134
f 347/139/60 349/140/134 350/129/60
f 351/129/60 352/140/134 353/141/135
f 351/129/60 353/141/135 354/142/86
f 355/142/86 356/141/135 357/143/136
f 355/142/86 357/143/136 358/144/54
f 359/144/22 360/143/137 361/131/128
f 359/144/22 361/131/128 362/130/91
f 363/138/133 364/136/132 365/145/60
f 363/138/133 365/145/60 366/140/134
f 367/136/132 368/134/130 369/132/129
f 367/136/132 369/132/129 370/145/60
f 371/145/60 372/132/129 373/131/128
f 371/145/60 373/131/128 374/143/137
f 375/140/134 376/145/60 377/143/136
f 375/140/134 377/143/136 378/141/138
f 379/64/86 380/144/86 381/65/86
f 382/65/139 383/133/86 384/57/86
f 385/139/140 386/129/140 387/102/140
f 388/135/73 389/137/73 390/57/73
f 391/133/127 392/135/127 393/57/127
f 394/65/2 395/130/140 396/133/140
f 397/142/127 398/64/127 399/129/127
f 400/65/23 401/144/3 402/130/91
f 403/144/73 404/64/141 405/142/73
f 406/137/33 407/139/33 408/102/33
f 409/102/33 410/57/33 411/137/33
