# Blender 5.2.0 LTS
# www.blender.org
mtllib button_07.mtl
o button_07
v 0.306617 0.287704 -0.100529
v 0.284284 0.299282 -0.100529
v 0.294084 0.318185 -0.100529
v 0.316417 0.306607 -0.100529
v 0.284284 0.299282 -0.100529
v 0.279739 0.301638 -0.099511
v 0.289539 0.320541 -0.099511
v 0.294084 0.318185 -0.100529
v 0.294084 0.318185 -0.100529
v 0.296451 0.322330 -0.098554
v 0.318612 0.310841 -0.098554
v 0.316417 0.306607 -0.100529
v 0.289539 0.320541 -0.099511
v 0.292419 0.324420 -0.097650
v 0.296451 0.322330 -0.098554
v 0.294084 0.318185 -0.100529
v 0.285687 0.322538 -0.096611
v 0.289146 0.326117 -0.095187
v 0.292419 0.324420 -0.097650
v 0.289539 0.320541 -0.099511
v 0.279739 0.301638 -0.099511
v 0.275887 0.303635 -0.096611
v 0.285687 0.322538 -0.096611
v 0.289539 0.320541 -0.099511
v 0.283113 0.323873 -0.092272
v 0.286960 0.327250 -0.091501
v 0.289146 0.326117 -0.095187
v 0.285687 0.322538 -0.096611
v 0.275887 0.303635 -0.096611
v 0.273313 0.304970 -0.092272
v 0.283113 0.323873 -0.092272
v 0.285687 0.322538 -0.096611
v 0.273313 0.304970 -0.092272
v 0.272409 0.305438 -0.087153
v 0.282209 0.324341 -0.087153
v 0.283113 0.323873 -0.092272
v 0.272409 0.305438 -0.087153
v 0.272409 0.305438 -0.052304
v 0.282209 0.324341 -0.052304
v 0.282209 0.324341 -0.087153
v 0.272409 0.305438 -0.052304
v 0.272409 0.305438 -0.017455
v 0.282209 0.324341 -0.017455
v 0.282209 0.324341 -0.052304
v 0.282209 0.324341 -0.017455
v 0.286158 0.327666 -0.017649
v 0.286158 0.327666 -0.052304
v 0.282209 0.324341 -0.052304
v 0.282209 0.324341 -0.087153
v 0.282209 0.324341 -0.052304
v 0.286158 0.327666 -0.052304
v 0.286158 0.327666 -0.086959
v 0.286158 0.327666 -0.086959
v 0.286158 0.327666 -0.052304
v 0.291301 0.327225 -0.052304
v 0.291301 0.327225 -0.086489
v 0.286158 0.327666 -0.017649
v 0.291301 0.327225 -0.018119
v 0.291301 0.327225 -0.052304
v 0.286158 0.327666 -0.052304
v 0.293205 0.326238 -0.052304
v 0.294102 0.325773 -0.059976
v 0.291301 0.327225 -0.086489
v 0.291301 0.327225 -0.052304
v 0.294102 0.325773 -0.044632
v 0.293205 0.326238 -0.052304
v 0.291301 0.327225 -0.052304
v 0.291301 0.327225 -0.018119
v 0.296577 0.323170 -0.052304
v 0.293205 0.326238 -0.052304
v 0.294102 0.325773 -0.044632
v 0.296731 0.324410 -0.037483
v 0.299578 0.321614 -0.039686
v 0.294102 0.325773 -0.059976
v 0.293205 0.326238 -0.052304
v 0.296577 0.323170 -0.052304
v 0.299578 0.321614 -0.064923
v 0.296731 0.324410 -0.067125
v 0.296731 0.324410 -0.037483
v 0.294102 0.325773 -0.044632
v 0.291301 0.327225 -0.018119
v 0.291857 0.326936 -0.014968
v 0.300913 0.322242 -0.031344
v 0.306363 0.319416 -0.026633
v 0.307779 0.317363 -0.030448
v 0.299578 0.321614 -0.039686
v 0.296731 0.324410 -0.037483
v 0.300913 0.322242 -0.031344
v 0.296731 0.324410 -0.037483
v 0.291857 0.326936 -0.014968
v 0.293108 0.326288 -0.012859
v 0.289146 0.326117 -0.009421
v 0.293108 0.326288 -0.012859
v 0.291857 0.326936 -0.014968
v 0.286960 0.327250 -0.013107
v 0.286960 0.327250 -0.013107
v 0.291857 0.326936 -0.014968
v 0.291301 0.327225 -0.018119
v 0.286158 0.327666 -0.017649
v 0.292419 0.324420 -0.006958
v 0.294980 0.325318 -0.011450
v 0.293108 0.326288 -0.012859
v 0.289146 0.326117 -0.009421
v 0.306363 0.319416 -0.026633
v 0.300913 0.322242 -0.031344
v 0.293108 0.326288 -0.012859
v 0.294980 0.325318 -0.011450
v 0.296451 0.322330 -0.006054
v 0.297777 0.323867 -0.010824
v 0.294980 0.325318 -0.011450
v 0.292419 0.324420 -0.006958
v 0.312710 0.316126 -0.023672
v 0.306363 0.319416 -0.026633
v 0.294980 0.325318 -0.011450
v 0.297777 0.323867 -0.010824
v 0.307779 0.317363 -0.030448
v 0.306363 0.319416 -0.026633
v 0.312710 0.316126 -0.023672
v 0.319521 0.312595 -0.022662
v 0.318982 0.311555 -0.027067
v 0.319521 0.312595 -0.022662
v 0.312710 0.316126 -0.023672
v 0.297777 0.323867 -0.010824
v 0.319521 0.312595 -0.010824
v 0.318982 0.311555 -0.027067
v 0.319521 0.312595 -0.022662
v 0.326332 0.309064 -0.023672
v 0.332679 0.305773 -0.026633
v 0.330184 0.305747 -0.030448
v 0.326332 0.309064 -0.023672
v 0.319521 0.312595 -0.022662
v 0.319521 0.312595 -0.010824
v 0.341264 0.301322 -0.010824
v 0.296451 0.322330 -0.006054
v 0.318612 0.310841 -0.006054
v 0.319521 0.312595 -0.010824
v 0.297777 0.323867 -0.010824
v 0.340772 0.299352 -0.006054
v 0.341264 0.301322 -0.010824
v 0.319521 0.312595 -0.010824
v 0.318612 0.310841 -0.006054
v 0.294084 0.318185 -0.004079
v 0.316417 0.306607 -0.004079
v 0.318612 0.310841 -0.006054
v 0.296451 0.322330 -0.006054
v 0.338750 0.295029 -0.004079
v 0.340772 0.299352 -0.006054
v 0.318612 0.310841 -0.006054
v 0.316417 0.306607 -0.004079
v 0.306617 0.287704 -0.004079
v 0.328950 0.276126 -0.004079
v 0.338750 0.295029 -0.004079
v 0.316417 0.306607 -0.004079
v 0.284284 0.299282 -0.004079
v 0.306617 0.287704 -0.004079
v 0.316417 0.306607 -0.004079
v 0.294084 0.318185 -0.004079
v 0.279739 0.301638 -0.005097
v 0.284284 0.299282 -0.004079
v 0.294084 0.318185 -0.004079
v 0.289539 0.320541 -0.005097
v 0.275887 0.303635 -0.007997
v 0.279739 0.301638 -0.005097
v 0.289539 0.320541 -0.005097
v 0.285687 0.322538 -0.007997
v 0.289539 0.320541 -0.005097
v 0.292419 0.324420 -0.006958
v 0.289146 0.326117 -0.009421
v 0.285687 0.322538 -0.007997
v 0.294084 0.318185 -0.004079
v 0.296451 0.322330 -0.006054
v 0.292419 0.324420 -0.006958
v 0.289539 0.320541 -0.005097
v 0.273313 0.304970 -0.012336
v 0.275887 0.303635 -0.007997
v 0.285687 0.322538 -0.007997
v 0.283113 0.323873 -0.012336
v 0.285687 0.322538 -0.007997
v 0.289146 0.326117 -0.009421
v 0.286960 0.327250 -0.013107
v 0.283113 0.323873 -0.012336
v 0.283113 0.323873 -0.012336
v 0.286960 0.327250 -0.013107
v 0.286158 0.327666 -0.017649
v 0.282209 0.324341 -0.017455
v 0.272409 0.305438 -0.017455
v 0.273313 0.304970 -0.012336
v 0.283113 0.323873 -0.012336
v 0.282209 0.324341 -0.017455
v 0.328950 0.276126 -0.004079
v 0.333494 0.273770 -0.005097
v 0.343294 0.292673 -0.005097
v 0.338750 0.295029 -0.004079
v 0.333494 0.273770 -0.005097
v 0.337346 0.271773 -0.007997
v 0.347146 0.290676 -0.007997
v 0.343294 0.292673 -0.005097
v 0.343294 0.292673 -0.005097
v 0.344805 0.297262 -0.006958
v 0.340772 0.299352 -0.006054
v 0.338750 0.295029 -0.004079
v 0.347146 0.290676 -0.007997
v 0.348077 0.295565 -0.009421
v 0.344805 0.297262 -0.006958
v 0.343294 0.292673 -0.005097
v 0.349721 0.289341 -0.012336
v 0.350264 0.294432 -0.013107
v 0.348077 0.295565 -0.009421
v 0.347146 0.290676 -0.007997
v 0.337346 0.271773 -0.007997
v 0.339921 0.270438 -0.012336
v 0.349721 0.289341 -0.012336
v 0.347146 0.290676 -0.007997
v 0.350624 0.288873 -0.017455
v 0.351066 0.294016 -0.017649
v 0.350264 0.294432 -0.013107
v 0.349721 0.289341 -0.012336
v 0.339921 0.270438 -0.012336
v 0.340824 0.269970 -0.017455
v 0.350624 0.288873 -0.017455
v 0.349721 0.289341 -0.012336
v 0.340824 0.269970 -0.017455
v 0.340824 0.269970 -0.052304
v 0.350624 0.288873 -0.052304
v 0.350624 0.288873 -0.017455
v 0.340824 0.269970 -0.052304
v 0.340824 0.269970 -0.087153
v 0.350624 0.288873 -0.087153
v 0.350624 0.288873 -0.052304
v 0.350624 0.288873 -0.087153
v 0.351066 0.294016 -0.086959
v 0.351066 0.294016 -0.052304
v 0.350624 0.288873 -0.052304
v 0.350624 0.288873 -0.017455
v 0.350624 0.288873 -0.052304
v 0.351066 0.294016 -0.052304
v 0.351066 0.294016 -0.017649
v 0.351066 0.294016 -0.017649
v 0.351066 0.294016 -0.052304
v 0.347741 0.297965 -0.052304
v 0.347741 0.297965 -0.018119
v 0.351066 0.294016 -0.086959
v 0.347741 0.297965 -0.086489
v 0.347741 0.297965 -0.052304
v 0.351066 0.294016 -0.052304
v 0.345837 0.298952 -0.052304
v 0.344940 0.299417 -0.044632
v 0.347741 0.297965 -0.018119
v 0.347741 0.297965 -0.052304
v 0.344940 0.299417 -0.059976
v 0.345837 0.298952 -0.052304
v 0.347741 0.297965 -0.052304
v 0.347741 0.297965 -0.086489
v 0.341387 0.299940 -0.052304
v 0.345837 0.298952 -0.052304
v 0.344940 0.299417 -0.059976
v 0.342311 0.300780 -0.067125
v 0.338385 0.301496 -0.064923
v 0.344940 0.299417 -0.044632
v 0.345837 0.298952 -0.052304
v 0.341387 0.299940 -0.052304
v 0.338385 0.301496 -0.039686
v 0.342311 0.300780 -0.037483
v 0.342311 0.300780 -0.067125
v 0.344940 0.299417 -0.059976
v 0.347741 0.297965 -0.086489
v 0.347184 0.298253 -0.089640
v 0.338129 0.302948 -0.073264
v 0.332679 0.305773 -0.077975
v 0.330184 0.305747 -0.074160
v 0.338385 0.301496 -0.064923
v 0.342311 0.300780 -0.067125
v 0.338129 0.302948 -0.073264
v 0.342311 0.300780 -0.067125
v 0.347184 0.298253 -0.089640
v 0.345934 0.298902 -0.091749
v 0.348077 0.295565 -0.095187
v 0.345934 0.298902 -0.091749
v 0.347184 0.298253 -0.089640
v 0.350264 0.294432 -0.091501
v 0.350264 0.294432 -0.091501
v 0.347184 0.298253 -0.089640
v 0.347741 0.297965 -0.086489
v 0.351066 0.294016 -0.086959
v 0.344805 0.297262 -0.097650
v 0.344062 0.299872 -0.093158
v 0.345934 0.298902 -0.091749
v 0.348077 0.295565 -0.095187
v 0.332679 0.305773 -0.077975
v 0.338129 0.302948 -0.073264
v 0.345934 0.298902 -0.091749
v 0.344062 0.299872 -0.093158
v 0.340772 0.299352 -0.098554
v 0.341264 0.301322 -0.093785
v 0.344062 0.299872 -0.093158
v 0.344805 0.297262 -0.097650
v 0.326332 0.309064 -0.080936
v 0.332679 0.305773 -0.077975
v 0.344062 0.299872 -0.093158
v 0.341264 0.301322 -0.093785
v 0.326332 0.309064 -0.080936
v 0.319521 0.312595 -0.081946
v 0.318982 0.311555 -0.077541
v 0.330184 0.305747 -0.074160
v 0.332679 0.305773 -0.077975
v 0.319521 0.312595 -0.081946
v 0.326332 0.309064 -0.080936
v 0.341264 0.301322 -0.093785
v 0.319521 0.312595 -0.093785
v 0.318982 0.311555 -0.077541
v 0.319521 0.312595 -0.081946
v 0.312710 0.316126 -0.080936
v 0.306363 0.319416 -0.077975
v 0.307779 0.317363 -0.074160
v 0.312710 0.316126 -0.080936
v 0.319521 0.312595 -0.081946
v 0.319521 0.312595 -0.093785
v 0.297777 0.323867 -0.093785
v 0.340772 0.299352 -0.098554
v 0.318612 0.310841 -0.098554
v 0.319521 0.312595 -0.093785
v 0.341264 0.301322 -0.093785
v 0.296451 0.322330 -0.098554
v 0.297777 0.323867 -0.093785
v 0.319521 0.312595 -0.093785
v 0.318612 0.310841 -0.098554
v 0.338750 0.295029 -0.100529
v 0.316417 0.306607 -0.100529
v 0.318612 0.310841 -0.098554
v 0.340772 0.299352 -0.098554
v 0.338750 0.295029 -0.100529
v 0.340772 0.299352 -0.098554
v 0.344805 0.297262 -0.097650
v 0.343294 0.292673 -0.099511
v 0.333494 0.273770 -0.099511
v 0.328950 0.276126 -0.100529
v 0.338750 0.295029 -0.100529
v 0.343294 0.292673 -0.099511
v 0.328950 0.276126 -0.100529
v 0.306617 0.287704 -0.100529
v 0.316417 0.306607 -0.100529
v 0.338750 0.295029 -0.100529
v 0.337346 0.271773 -0.096611
v 0.333494 0.273770 -0.099511
v 0.343294 0.292673 -0.099511
v 0.347146 0.290676 -0.096611
v 0.339921 0.270438 -0.092272
v 0.337346 0.271773 -0.096611
v 0.347146 0.290676 -0.096611
v 0.349721 0.289341 -0.092272
v 0.347146 0.290676 -0.096611
v 0.348077 0.295565 -0.095187
v 0.350264 0.294432 -0.091501
v 0.349721 0.289341 -0.092272
v 0.343294 0.292673 -0.099511
v 0.344805 0.297262 -0.097650
v 0.348077 0.295565 -0.095187
v 0.347146 0.290676 -0.096611
v 0.349721 0.289341 -0.092272
v 0.350264 0.294432 -0.091501
v 0.351066 0.294016 -0.086959
v 0.350624 0.288873 -0.087153
v 0.340824 0.269970 -0.087153
v 0.339921 0.270438 -0.092272
v 0.349721 0.289341 -0.092272
v 0.350624 0.288873 -0.087153
v 0.292419 0.324420 -0.097650
v 0.294980 0.325318 -0.093158
v 0.297777 0.323867 -0.093785
v 0.296451 0.322330 -0.098554
v 0.306363 0.319416 -0.077975
v 0.312710 0.316126 -0.080936
v 0.297777 0.323867 -0.093785
v 0.294980 0.325318 -0.093158
v 0.289146 0.326117 -0.095187
v 0.293108 0.326288 -0.091749
v 0.294980 0.325318 -0.093158
v 0.292419 0.324420 -0.097650
v 0.300913 0.322242 -0.073264
v 0.306363 0.319416 -0.077975
v 0.294980 0.325318 -0.093158
v 0.293108 0.326288 -0.091749
v 0.300913 0.322242 -0.073264
v 0.296731 0.324410 -0.067125
v 0.299578 0.321614 -0.064923
v 0.307779 0.317363 -0.074160
v 0.306363 0.319416 -0.077975
v 0.296731 0.324410 -0.067125
v 0.300913 0.322242 -0.073264
v 0.293108 0.326288 -0.091749
v 0.291857 0.326936 -0.089640
v 0.294102 0.325773 -0.059976
v 0.296731 0.324410 -0.067125
v 0.291857 0.326936 -0.089640
v 0.291301 0.327225 -0.086489
v 0.286158 0.327666 -0.086959
v 0.291301 0.327225 -0.086489
v 0.291857 0.326936 -0.089640
v 0.286960 0.327250 -0.091501
v 0.286960 0.327250 -0.091501
v 0.291857 0.326936 -0.089640
v 0.293108 0.326288 -0.091749
v 0.289146 0.326117 -0.095187
v 0.282209 0.324341 -0.087153
v 0.286158 0.327666 -0.086959
v 0.286960 0.327250 -0.091501
v 0.283113 0.323873 -0.092272
v 0.301854 0.316556 -0.062412
v 0.308423 0.313150 -0.069811
v 0.307779 0.317363 -0.074160
v 0.299578 0.321614 -0.064923
v 0.299450 0.317802 -0.052304
v 0.301854 0.316556 -0.062412
v 0.299578 0.321614 -0.064923
v 0.296577 0.323170 -0.052304
v 0.299450 0.317802 -0.052304
v 0.315563 0.304961 -0.052304
v 0.301854 0.316556 -0.062412
v 0.301854 0.316556 -0.062412
v 0.315563 0.304961 -0.052304
v 0.308423 0.313150 -0.069811
v 0.317397 0.308498 -0.032089
v 0.315563 0.304961 -0.052304
v 0.308423 0.313150 -0.034797
v 0.317397 0.308498 -0.032089
v 0.326370 0.303846 -0.034797
v 0.315563 0.304961 -0.052304
v 0.332939 0.300440 -0.042196
v 0.315563 0.304961 -0.052304
v 0.326370 0.303846 -0.034797
v 0.335344 0.299194 -0.052304
v 0.315563 0.304961 -0.052304
v 0.332939 0.300440 -0.042196
v 0.332939 0.300440 -0.062412
v 0.315563 0.304961 -0.052304
v 0.335344 0.299194 -0.052304
v 0.326370 0.303846 -0.069811
v 0.315563 0.304961 -0.052304
v 0.332939 0.300440 -0.062412
v 0.317397 0.308498 -0.072519
v 0.315563 0.304961 -0.052304
v 0.326370 0.303846 -0.069811
v 0.315563 0.304961 -0.052304
v 0.317397 0.308498 -0.072519
v 0.308423 0.313150 -0.069811
v 0.301854 0.316556 -0.042196
v 0.315563 0.304961 -0.052304
v 0.299450 0.317802 -0.052304
v 0.308423 0.313150 -0.034797
v 0.315563 0.304961 -0.052304
v 0.301854 0.316556 -0.042196
v 0.308423 0.313150 -0.034797
v 0.301854 0.316556 -0.042196
v 0.299578 0.321614 -0.039686
v 0.307779 0.317363 -0.030448
v 0.308423 0.313150 -0.034797
v 0.307779 0.317363 -0.030448
v 0.318982 0.311555 -0.027067
v 0.317397 0.308498 -0.032089
v 0.299450 0.317802 -0.052304
v 0.296577 0.323170 -0.052304
v 0.299578 0.321614 -0.039686
v 0.301854 0.316556 -0.042196
v 0.317397 0.308498 -0.072519
v 0.318982 0.311555 -0.077541
v 0.307779 0.317363 -0.074160
v 0.308423 0.313150 -0.069811
v 0.317397 0.308498 -0.072519
v 0.326370 0.303846 -0.069811
v 0.330184 0.305747 -0.074160
v 0.318982 0.311555 -0.077541
v 0.326370 0.303846 -0.069811
v 0.332939 0.300440 -0.062412
v 0.338385 0.301496 -0.064923
v 0.330184 0.305747 -0.074160
v 0.335344 0.299194 -0.052304
v 0.341387 0.299940 -0.052304
v 0.338385 0.301496 -0.064923
v 0.332939 0.300440 -0.062412
v 0.335344 0.299194 -0.052304
v 0.332939 0.300440 -0.042196
v 0.338385 0.301496 -0.039686
v 0.341387 0.299940 -0.052304
v 0.332939 0.300440 -0.042196
v 0.326370 0.303846 -0.034797
v 0.330184 0.305747 -0.030448
v 0.338385 0.301496 -0.039686
v 0.338129 0.302948 -0.031344
v 0.342311 0.300780 -0.037483
v 0.338385 0.301496 -0.039686
v 0.330184 0.305747 -0.030448
v 0.332679 0.305773 -0.026633
v 0.342311 0.300780 -0.037483
v 0.338129 0.302948 -0.031344
v 0.345934 0.298902 -0.012859
v 0.347184 0.298253 -0.014968
v 0.344940 0.299417 -0.044632
v 0.342311 0.300780 -0.037483
v 0.347184 0.298253 -0.014968
v 0.347741 0.297965 -0.018119
v 0.351066 0.294016 -0.017649
v 0.347741 0.297965 -0.018119
v 0.347184 0.298253 -0.014968
v 0.350264 0.294432 -0.013107
v 0.350264 0.294432 -0.013107
v 0.347184 0.298253 -0.014968
v 0.345934 0.298902 -0.012859
v 0.348077 0.295565 -0.009421
v 0.348077 0.295565 -0.009421
v 0.345934 0.298902 -0.012859
v 0.344062 0.299872 -0.011450
v 0.344805 0.297262 -0.006958
v 0.338129 0.302948 -0.031344
v 0.332679 0.305773 -0.026633
v 0.344062 0.299872 -0.011450
v 0.345934 0.298902 -0.012859
v 0.344805 0.297262 -0.006958
v 0.344062 0.299872 -0.011450
v 0.341264 0.301322 -0.010824
v 0.340772 0.299352 -0.006054
v 0.332679 0.305773 -0.026633
v 0.326332 0.309064 -0.023672
v 0.341264 0.301322 -0.010824
v 0.344062 0.299872 -0.011450
v 0.317397 0.308498 -0.032089
v 0.318982 0.311555 -0.027067
v 0.330184 0.305747 -0.030448
v 0.326370 0.303846 -0.034797
vn -0.0000 -0.0000 -1.0000
vn -0.0001 0.0001 -1.0000
vn -0.3398 0.1762 -0.9239
vn -0.3049 0.2403 -0.9216
vn -0.0000 0.0003 -1.0000
vn 0.3034 0.6327 -0.7125
vn 0.3245 0.6260 -0.7091
vn 0.0001 0.0001 -1.0000
vn 0.0613 0.7265 -0.6844
vn -0.5928 0.3889 -0.7052
vn -0.1622 0.8338 -0.5277
vn -0.3398 0.1762 -0.9238
vn -0.6277 0.3255 -0.7071
vn -0.7845 0.4890 -0.3813
vn -0.2978 0.9126 -0.2800
vn -0.6278 0.3255 -0.7071
vn -0.8202 0.4252 -0.3827
vn -0.8878 0.4603 -0.0001
vn -0.8877 0.4605 -0.0001
vn -0.8878 0.4603 -0.0000
vn -0.8876 0.4605 0.0001
vn -0.8877 0.4605 0.0001
vn -0.3079 0.9513 0.0164
vn -0.3041 0.9526 -0.0000
vn -0.8877 0.4604 -0.0000
vn -0.8876 0.4605 -0.0001
vn -0.3079 0.9513 -0.0164
vn -0.3041 0.9526 -0.0001
vn 0.4600 0.8879 -0.0000
vn 0.4601 0.8879 -0.0001
vn 0.4601 0.8879 -0.0000
vn 0.4600 0.8879 0.0001
vn 0.4606 0.8876 -0.0000
vn 0.4602 0.8878 -0.0000
vn 0.4604 0.8877 -0.0001
vn 0.7313 0.6516 -0.2016
vn 0.7792 0.6268 -0.0000
vn 0.4604 0.8877 -0.0000
vn 0.4603 0.8877 -0.0000
vn 0.7312 0.6517 0.2016
vn 0.4604 0.8877 0.0001
vn 0.4603 0.8878 -0.0000
vn 0.4601 0.8879 0.0001
vn 0.6002 0.7196 -0.3493
vn -0.1622 0.8338 0.5277
vn 0.4602 0.8878 0.0001
vn -0.2978 0.9127 0.2800
vn -0.3078 0.9513 0.0164
vn 0.0613 0.7265 0.6844
vn 0.4605 0.8877 -0.0002
vn 0.4602 0.8878 -0.0001
vn 0.3034 0.6327 0.7125
vn 0.4603 0.8878 0.0003
vn 0.4604 0.8877 0.0002
vn 0.4604 0.8877 0.0003
vn 0.4603 0.8878 -0.0002
vn 0.4212 0.8124 -0.4033
vn 0.6001 0.7196 -0.3493
vn 0.2421 0.9052 -0.3493
vn 0.4603 0.8878 -0.0001
vn 0.3246 0.6261 0.7089
vn 0.3422 0.6126 0.7125
vn 0.4603 0.8878 0.0002
vn 0.4602 0.8878 0.0003
vn -0.0000 0.0003 1.0000
vn 0.0001 0.0001 1.0000
vn 0.3246 0.6260 0.7090
vn 0.0002 0.0001 1.0000
vn 0.3246 0.6261 0.7090
vn -0.0000 -0.0000 1.0000
vn -0.3398 0.1761 0.9239
vn -0.3052 0.2406 0.9214
vn -0.6278 0.3255 0.7071
vn -0.3398 0.1762 0.9238
vn -0.5928 0.3889 0.7053
vn -0.5928 0.3889 0.7052
vn 0.3034 0.6326 0.7125
vn -0.8202 0.4252 0.3827
vn -0.7844 0.4889 0.3818
vn -0.2978 0.9126 0.2800
vn -0.7844 0.4889 0.3817
vn -0.8878 0.4602 0.0001
vn 0.3398 -0.1762 0.9239
vn 0.3722 -0.1107 0.9215
vn 0.3398 -0.1763 0.9238
vn 0.6277 -0.3254 0.7072
vn 0.6595 -0.2603 0.7052
vn 0.5584 0.4688 0.6844
vn 0.7749 0.3479 0.5277
vn 0.8518 -0.3593 0.3813
vn 0.9174 0.2827 0.2800
vn 0.7749 0.3480 0.5277
vn 0.6278 -0.3254 0.7071
vn 0.8202 -0.4252 0.3827
vn 0.8879 -0.4601 0.0001
vn 0.9549 0.2965 0.0164
vn 0.8878 -0.4603 -0.0000
vn 0.8879 -0.4601 0.0002
vn 0.8518 -0.3593 0.3812
vn 0.8879 -0.4600 -0.0002
vn 0.8879 -0.4601 -0.0001
vn 0.9549 0.2966 -0.0164
vn 0.9538 0.3004 -0.0001
vn 0.8879 -0.4601 -0.0000
vn 0.9538 0.3004 -0.0000
vn 0.9549 0.2966 0.0164
vn 0.9538 0.3005 -0.0000
vn 0.4605 0.8877 -0.0000
vn 0.4605 0.8876 -0.0000
vn 0.4601 0.8878 0.0001
vn 0.1111 0.9731 0.2016
vn 0.0631 0.9980 -0.0000
vn 0.1111 0.9731 -0.2017
vn 0.2421 0.9052 0.3493
vn 0.4603 0.8877 -0.0002
vn 0.7749 0.3480 -0.5276
vn 0.9174 0.2827 -0.2800
vn 0.5584 0.4688 -0.6844
vn 0.7749 0.3480 -0.5277
vn 0.3422 0.6126 -0.7125
vn 0.4603 0.8878 0.0001
vn 0.4602 0.8878 -0.0002
vn 0.4602 0.8878 0.0002
vn 0.4212 0.8124 0.4033
vn 0.6002 0.7196 0.3493
vn 0.4212 0.8124 0.4032
vn 0.3246 0.6261 -0.7090
vn 0.4603 0.8878 -0.0003
vn 0.0002 0.0001 -1.0000
vn 0.3246 0.6260 -0.7090
vn 0.3721 -0.1107 -0.9216
vn 0.3398 -0.1761 -0.9239
vn 0.0001 -0.0000 -1.0000
vn 0.3720 -0.1107 -0.9216
vn 0.6277 -0.3254 -0.7072
vn 0.3398 -0.1762 -0.9238
vn 0.6594 -0.2603 -0.7053
vn 0.8202 -0.4252 -0.3827
vn 0.6277 -0.3254 -0.7071
vn 0.8516 -0.3592 -0.3817
vn 0.8517 -0.3591 -0.3817
vn 0.8878 -0.4602 -0.0002
vn 0.8517 -0.3592 -0.3816
vn 0.8879 -0.4601 -0.0002
vn 0.4601 0.8878 -0.0002
vn 0.4601 0.8878 -0.0000
vn 0.4603 0.8877 0.0001
vn 0.4600 0.8879 -0.0001
vn -0.2978 0.9127 -0.2800
vn 0.6995 0.6930 0.1744
vn 0.5862 0.7517 0.3021
vn 0.7313 0.6516 0.2016
vn 0.7410 0.6715 -0.0000
vn 0.5862 0.7518 0.3020
vn 0.4314 0.8320 -0.3488
vn 0.5862 0.7518 -0.3021
vn 0.2765 0.9123 -0.3021
vn 0.1632 0.9711 -0.1744
vn 0.1217 0.9926 -0.0000
vn 0.1632 0.9711 0.1744
vn 0.2765 0.9123 0.3021
vn 0.4313 0.8320 0.3489
vn 0.4313 0.8320 0.3488
vn 0.5861 0.7518 0.3021
vn 0.6996 0.6929 -0.1744
vn 0.5862 0.7518 -0.3020
vn 0.5862 0.7517 -0.3021
vn 0.6002 0.7195 -0.3493
vn 0.6997 0.6929 -0.1744
vn 0.4313 0.8320 0.3490
vn 0.2420 0.9052 0.3493
vn 0.1216 0.9926 -0.0000
vn 0.1111 0.9732 0.2016
vn 0.1631 0.9711 -0.1744
vn 0.1111 0.9731 -0.2018
vn 0.4605 0.8876 -0.0001
vn 0.4607 0.8876 -0.0001
vn 0.4601 0.8879 -0.0002
vn 0.4605 0.8877 0.0001
vn 0.5584 0.4689 0.6844
vt 0.808581 0.193187
vt 0.808581 0.207727
vt 0.820920 0.207727
vt 0.820920 0.193187
vt 0.808581 0.210637
vt 0.820920 0.210637
vt 0.823916 0.207727
vt 0.823916 0.193187
vt 0.823916 0.210637
vt 0.820920 0.213510
vt 0.823916 0.213510
vt 0.808581 0.213510
vt 0.820920 0.216382
vt 0.823916 0.216382
vt 0.808581 0.216382
vt 0.808581 0.219293
vt 0.820920 0.219293
vt 0.808581 0.239450
vt 0.820920 0.239450
vt 0.808581 0.259607
vt 0.820920 0.259607
vt 0.823916 0.259607
vt 0.823916 0.239450
vt 0.823916 0.219293
vt 0.742739 0.068365
vt 0.742732 0.048112
vt 0.739715 0.048112
vt 0.739721 0.068058
vt 0.742739 0.027857
vt 0.739720 0.028165
vt 0.738462 0.048112
vt 0.737869 0.052590
vt 0.737870 0.043633
vt 0.736143 0.039459
vt 0.733847 0.040783
vt 0.735809 0.048112
vt 0.733847 0.055441
vt 0.736143 0.056765
vt 0.739352 0.026343
vt 0.733396 0.035877
vt 0.729824 0.033120
vt 0.728491 0.035411
vt 0.738543 0.025129
vt 0.740730 0.022965
vt 0.742193 0.025163
vt 0.738548 0.021477
vt 0.737339 0.024307
vt 0.735856 0.020902
vt 0.735523 0.023922
vt 0.725652 0.031374
vt 0.721168 0.030765
vt 0.721160 0.033424
vt 0.721202 0.023825
vt 0.712476 0.033073
vt 0.713803 0.035383
vt 0.716672 0.031348
vt 0.706824 0.023773
vt 0.721220 0.020792
vt 0.706519 0.020719
vt 0.820920 0.271174
vt 0.820920 0.285713
vt 0.823916 0.285713
vt 0.823916 0.271174
vt 0.820920 0.300253
vt 0.823916 0.300253
vt 0.808581 0.285713
vt 0.808581 0.300253
vt 0.808581 0.271174
vt 0.808581 0.268263
vt 0.820920 0.268263
vt 0.808581 0.265390
vt 0.820920 0.265390
vt 0.823916 0.268263
vt 0.823916 0.265390
vt 0.808581 0.262518
vt 0.820920 0.262518
vt 0.823916 0.262518
vt 0.808581 0.303164
vt 0.820920 0.303164
vt 0.808581 0.306036
vt 0.820920 0.306036
vt 0.823916 0.303164
vt 0.823916 0.306036
vt 0.820920 0.123856
vt 0.823916 0.123856
vt 0.823916 0.120983
vt 0.820920 0.120983
vt 0.808581 0.120983
vt 0.808581 0.123856
vt 0.820920 0.126767
vt 0.823916 0.126767
vt 0.808581 0.126767
vt 0.808581 0.146924
vt 0.820920 0.146924
vt 0.808581 0.167081
vt 0.820920 0.167081
vt 0.823916 0.167081
vt 0.823916 0.146924
vt 0.699504 0.027696
vt 0.699432 0.048123
vt 0.702473 0.048122
vt 0.702548 0.028021
vt 0.699519 0.068543
vt 0.702561 0.068215
vt 0.703738 0.048121
vt 0.704343 0.043613
vt 0.704347 0.052628
vt 0.706098 0.056824
vt 0.708402 0.055482
vt 0.706409 0.048120
vt 0.708397 0.040757
vt 0.706093 0.039416
vt 0.702948 0.070047
vt 0.708877 0.060412
vt 0.712480 0.063163
vt 0.713804 0.060854
vt 0.703771 0.071268
vt 0.701582 0.073477
vt 0.700091 0.071263
vt 0.703804 0.074960
vt 0.704996 0.072088
vt 0.706532 0.075514
vt 0.706834 0.072461
vt 0.716675 0.064884
vt 0.721170 0.065463
vt 0.721160 0.062803
vt 0.721207 0.072401
vt 0.729825 0.063104
vt 0.728491 0.060813
vt 0.725653 0.064852
vt 0.735525 0.072299
vt 0.721226 0.075433
vt 0.735858 0.075319
vt 0.820920 0.178647
vt 0.823916 0.178647
vt 0.823916 0.175736
vt 0.820920 0.175736
vt 0.808581 0.175736
vt 0.808581 0.178647
vt 0.808581 0.172864
vt 0.820920 0.172864
vt 0.808581 0.169991
vt 0.820920 0.169991
vt 0.823916 0.172864
vt 0.823916 0.169991
vt 0.738550 0.074743
vt 0.737341 0.071914
vt 0.740731 0.073255
vt 0.738545 0.071093
vt 0.733396 0.060347
vt 0.739353 0.069879
vt 0.742193 0.071059
vt 0.730858 0.053700
vt 0.726767 0.057813
vt 0.732350 0.048096
vt 0.721138 0.048111
vt 0.721137 0.036891
vt 0.726742 0.038396
vt 0.715530 0.038391
vt 0.711410 0.042491
vt 0.709893 0.048119
vt 0.711416 0.053747
vt 0.715545 0.057850
vt 0.721165 0.059335
vt 0.730843 0.042497
vt 0.708872 0.035825
vt 0.703762 0.024969
vt 0.702934 0.026187
vt 0.700073 0.024976
vt 0.701569 0.022763
vt 0.704986 0.024147
vt 0.703790 0.021276
s 1
f 1/1/1 2/2/1 3/3/1
f 1/1/1 3/3/1 4/4/1
f 5/2/2 6/5/3 7/6/4
f 5/2/2 7/6/4 8/3/5
f 9/3/5 10/7/6 11/8/7
f 9/3/5 11/8/7 12/4/8
f 13/6/4 14/9/9 15/7/6
f 13/6/4 15/7/6 16/3/5
f 17/10/10 18/11/11 19/9/9
f 17/10/10 19/9/9 20/6/4
f 21/5/12 22/12/13 23/10/10
f 21/5/12 23/10/10 24/6/4
f 25/13/14 26/14/15 27/11/11
f 25/13/14 27/11/11 28/10/10
f 29/12/16 30/15/17 31/13/14
f 29/12/16 31/13/14 32/10/10
f 33/15/17 34/16/18 35/17/19
f 33/15/17 35/17/19 36/13/14
f 37/16/20 38/18/20 39/19/20
f 37/16/20 39/19/20 40/17/20
f 41/18/20 42/20/20 43/21/21
f 41/18/20 43/21/21 44/19/20
f 45/21/22 46/22/23 47/23/24
f 45/21/22 47/23/24 48/19/25
f 49/17/26 50/19/25 51/23/24
f 49/17/26 51/23/24 52/24/27
f 53/25/27 54/26/28 55/27/29
f 53/25/27 55/27/29 56/28/30
f 57/29/23 58/30/31 59/27/32
f 57/29/23 59/27/32 60/26/24
f 61/31/33 62/32/34 63/28/34
f 61/31/33 63/28/34 64/27/34
f 65/33/34 66/31/33 67/27/34
f 65/33/34 67/27/34 68/30/34
f 72/34/35 73/35/36 69/36/37
f 69/36/37 70/31/38 71/33/39
f 71/33/39 72/34/35 69/36/37
f 77/37/40 78/38/41 74/32/39
f 74/32/39 75/31/38 76/36/37
f 76/36/37 77/37/40 74/32/39
f 79/34/42 80/33/42 81/30/34
f 79/34/42 81/30/34 82/39/43
f 86/35/36 87/34/35 83/40/35
f 83/40/35 84/41/35 85/42/44
f 85/42/44 86/35/36 83/40/35
f 88/40/34 89/34/34 90/39/30
f 88/40/34 90/39/30 91/43/30
f 92/44/45 93/43/46 94/39/32
f 92/44/45 94/39/32 95/45/47
f 96/45/47 97/39/32 98/30/31
f 96/45/47 98/30/31 99/29/48
f 100/46/49 101/47/46 102/43/46
f 100/46/49 102/43/46 103/44/45
f 104/41/42 105/40/50 106/43/51
f 104/41/42 106/43/51 107/47/51
f 108/48/52 109/49/53 110/47/46
f 108/48/52 110/47/46 111/46/49
f 112/50/42 113/41/51 114/47/54
f 112/50/42 114/47/54 115/49/55
f 119/51/56 120/52/57 116/42/58
f 116/42/58 117/41/35 118/50/56
f 118/50/56 119/51/56 116/42/58
f 121/51/34 122/50/34 123/49/53
f 121/51/34 123/49/53 124/53/53
f 128/54/51 129/55/59 125/52/57
f 125/52/57 126/51/60 127/56/51
f 127/56/51 128/54/51 125/52/57
f 130/56/42 131/51/42 132/53/53
f 130/56/42 132/53/53 133/57/42
f 134/48/52 135/58/61 136/53/53
f 134/48/52 136/53/53 137/49/53
f 138/59/62 139/57/63 140/53/64
f 138/59/62 140/53/64 141/58/61
f 142/60/65 143/61/66 144/62/67
f 142/60/65 144/62/67 145/63/52
f 146/64/68 147/65/62 148/62/69
f 146/64/68 148/62/69 149/61/66
f 150/66/70 151/67/70 152/64/70
f 150/66/70 152/64/70 153/61/70
f 154/68/70 155/66/70 156/61/70
f 154/68/70 156/61/70 157/60/70
f 158/69/71 159/68/70 160/60/65
f 158/69/71 160/60/65 161/70/72
f 162/71/73 163/69/74 164/70/72
f 162/71/73 164/70/72 165/72/75
f 166/70/72 167/73/49 168/74/45
f 166/70/72 168/74/45 169/72/76
f 170/60/65 171/63/77 172/73/49
f 170/60/65 172/73/49 173/70/72
f 174/75/78 175/71/73 176/72/76
f 174/75/78 176/72/76 177/76/79
f 178/72/76 179/74/45 180/77/80
f 178/72/76 180/77/80 181/76/81
f 182/76/81 183/77/80 184/22/23
f 182/76/81 184/22/23 185/21/22
f 186/20/82 187/75/78 188/76/81
f 186/20/82 188/76/81 189/21/22
f 190/67/70 191/78/83 192/79/84
f 190/67/70 192/79/84 193/64/68
f 194/78/85 195/80/86 196/81/87
f 194/78/85 196/81/87 197/79/84
f 198/79/84 199/82/88 200/65/62
f 198/79/84 200/65/62 201/64/68
f 202/81/87 203/83/89 204/82/88
f 202/81/87 204/82/88 205/79/84
f 206/84/90 207/85/91 208/86/92
f 206/84/90 208/86/92 209/87/87
f 210/88/93 211/89/94 212/84/90
f 210/88/93 212/84/90 213/87/87
f 214/90/95 215/91/96 216/85/91
f 214/90/95 216/85/91 217/84/90
f 218/89/94 219/92/97 220/90/98
f 218/89/94 220/90/98 221/84/99
f 222/92/97 223/93/97 224/94/97
f 222/92/97 224/94/97 225/90/97
f 226/93/97 227/95/97 228/96/100
f 226/93/97 228/96/100 229/94/97
f 230/96/101 231/97/102 232/98/103
f 230/96/101 232/98/103 233/94/104
f 234/90/95 235/94/104 236/98/105
f 234/90/95 236/98/105 237/91/106
f 238/99/106 239/100/107 240/101/108
f 238/99/106 240/101/108 241/102/38
f 242/103/102 243/104/38 244/101/108
f 242/103/102 244/101/108 245/100/107
f 246/105/34 247/106/34 248/102/34
f 246/105/34 248/102/34 249/101/33
f 250/107/34 251/105/34 252/101/109
f 250/107/34 252/101/109 253/104/34
f 257/108/110 258/109/111 254/110/112
f 254/110/112 255/105/34 256/107/34
f 256/107/34 257/108/110 254/110/112
f 262/111/113 263/112/51 259/106/34
f 259/106/34 260/105/34 261/110/112
f 261/110/112 262/111/113 259/106/34
f 264/108/42 265/107/42 266/104/39
f 264/108/42 266/104/39 267/113/35
f 271/109/111 272/108/46 268/114/46
f 268/114/46 269/115/46 270/116/114
f 270/116/114 271/109/111 268/114/46
f 273/114/42 274/108/42 275/113/35
f 273/114/42 275/113/35 276/117/115
f 277/118/116 278/117/35 279/113/35
f 277/118/116 279/113/35 280/119/117
f 281/119/117 282/113/35 283/104/38
f 281/119/117 283/104/38 284/103/102
f 285/120/118 286/121/60 287/117/35
f 285/120/118 287/117/35 288/118/119
f 289/115/34 290/114/34 291/117/35
f 289/115/34 291/117/35 292/121/30
f 293/122/120 294/123/56 295/121/60
f 293/122/120 295/121/60 296/120/118
f 297/124/42 298/115/121 299/121/51
f 297/124/42 299/121/51 300/123/122
f 304/116/114 305/115/46 301/124/123
f 301/124/123 302/125/123 303/126/124
f 303/126/124 304/116/114 301/124/123
f 306/125/42 307/124/64 308/123/42
f 306/125/42 308/123/42 309/127/42
f 313/128/63 314/129/125 310/126/126
f 310/126/126 311/125/123 312/130/121
f 312/130/121 313/128/63 310/126/126
f 315/130/34 316/125/34 317/127/34
f 315/130/34 317/127/34 318/131/34
f 319/122/120 320/132/127 321/127/128
f 319/122/120 321/127/128 322/123/56
f 323/133/6 324/131/122 325/127/122
f 323/133/6 325/127/122 326/132/127
f 327/134/129 328/4/8 329/8/130
f 327/134/129 329/8/130 330/135/120
f 331/134/129 332/135/120 333/136/118
f 331/134/129 333/136/118 334/137/131
f 335/138/132 336/139/133 337/134/129
f 335/138/132 337/134/129 338/137/134
f 339/139/1 340/1/1 341/4/1
f 339/139/1 341/4/1 342/134/1
f 343/140/135 344/138/136 345/137/131
f 343/140/135 345/137/131 346/141/137
f 347/142/138 348/140/139 349/141/137
f 347/142/138 349/141/137 350/143/140
f 351/141/137 352/144/119 353/145/117
f 351/141/137 353/145/117 354/143/140
f 355/137/131 356/136/118 357/144/119
f 355/137/131 357/144/119 358/141/137
f 359/143/141 360/145/117 361/97/102
f 359/143/141 361/97/102 362/96/101
f 363/95/142 364/142/138 365/143/143
f 363/95/142 365/143/143 366/96/144
f 367/146/9 368/147/122 369/131/122
f 367/146/9 369/131/122 370/133/6
f 371/128/34 372/130/34 373/131/145
f 371/128/34 373/131/145 374/147/51
f 375/148/11 376/149/51 377/147/51
f 375/148/11 377/147/51 378/146/9
f 379/150/42 380/128/42 381/147/146
f 379/150/42 381/147/146 382/149/43
f 386/129/125 387/128/121 383/150/121
f 383/150/121 384/38/147 385/37/40
f 385/37/40 386/129/125 383/150/121
f 388/38/34 389/150/55 390/149/31
f 388/38/34 390/149/31 391/151/29
f 392/32/42 393/38/34 394/151/51
f 392/32/42 394/151/51 395/28/30
f 396/25/27 397/28/30 398/151/148
f 396/25/27 398/151/148 399/152/149
f 400/152/149 401/151/148 402/149/51
f 400/152/149 402/149/51 403/148/11
f 404/17/19 405/24/27 406/14/15
f 404/17/19 406/14/15 407/13/14
f 408/153/150 409/154/151 410/129/125
f 408/153/150 410/129/125 411/37/152
f 412/155/153 413/153/150 414/37/152
f 412/155/153 414/37/152 415/36/37
f 416/155/153 417/156/42 418/153/150
f 419/153/150 420/156/42 421/154/154
f 422/157/155 423/156/42 424/158/156
f 425/157/155 426/159/157 427/156/42
f 428/160/158 429/156/42 430/159/157
f 431/161/159 432/156/34 433/160/158
f 434/162/160 435/156/34 436/161/159
f 437/163/161 438/156/42 439/162/160
f 440/164/162 441/156/42 442/163/161
f 443/156/42 444/164/163 445/154/164
f 446/165/165 447/156/42 448/155/153
f 449/158/166 450/156/42 451/165/165
f 452/158/167 453/165/165 454/35/36
f 452/158/167 454/35/36 455/42/168
f 456/158/156 457/42/44 458/52/57
f 456/158/156 458/52/57 459/157/155
f 460/155/153 461/36/37 462/35/36
f 460/155/153 462/35/36 463/165/169
f 464/164/162 465/126/124 466/129/125
f 464/164/162 466/129/125 467/154/151
f 468/164/170 469/163/161 470/116/114
f 468/164/170 470/116/114 471/126/124
f 472/163/161 473/162/160 474/109/111
f 472/163/161 474/109/111 475/116/171
f 476/161/172 477/110/112 478/109/173
f 476/161/172 478/109/173 479/162/160
f 480/161/159 481/160/174 482/111/113
f 480/161/159 482/111/113 483/110/112
f 484/160/158 485/159/157 486/55/59
f 484/160/158 486/55/59 487/111/175
f 491/55/59 492/54/51 488/166/51
f 488/166/51 489/112/51 490/111/113
f 490/111/113 491/55/59 488/166/51
f 493/112/42 494/166/34 495/167/176
f 493/112/42 495/167/176 496/168/177
f 497/106/42 498/112/178 499/168/121
f 497/106/42 499/168/121 500/102/38
f 501/99/106 502/102/38 503/168/41
f 501/99/106 503/168/41 504/169/91
f 505/169/91 506/168/41 507/167/179
f 505/169/91 507/167/179 508/170/92
f 509/170/92 510/167/179 511/171/121
f 509/170/92 511/171/121 512/172/180
f 513/166/34 514/54/34 515/171/110
f 513/166/34 515/171/110 516/167/43
f 517/172/88 518/171/121 519/57/53
f 517/172/88 519/57/53 520/59/62
f 521/54/42 522/56/42 523/57/46
f 521/54/42 523/57/46 524/171/43
f 525/157/155 526/52/57 527/55/59
f 525/157/155 527/55/59 528/159/157
