# Blender 5.2.0 LTS
# www.blender.org
mtllib joystick_thumb_L.mtl
o joystick_thumb_L
v 0.200436 1.070980 -0.097575
v 0.201313 1.089070 -0.118715
v 0.209489 1.091550 -0.111959
v 0.208307 1.073560 -0.091091
v 0.208307 1.073560 -0.091091
v 0.209489 1.091550 -0.111959
v 0.213330 1.094750 -0.103947
v 0.212058 1.076860 -0.083278
v 0.209489 1.091550 -0.111959
v 0.205591 1.104490 -0.127997
v 0.209207 1.107510 -0.120605
v 0.213330 1.094750 -0.103947
v 0.201313 1.089070 -0.118715
v 0.197825 1.102100 -0.134340
v 0.205591 1.104490 -0.127997
v 0.209489 1.091550 -0.111959
v 0.212058 1.076860 -0.083278
v 0.213330 1.094750 -0.103947
v 0.213930 1.098330 -0.095225
v 0.212530 1.080490 -0.074773
v 0.212530 1.080490 -0.074773
v 0.213930 1.098330 -0.095225
v 0.211271 1.101900 -0.086680
v 0.209668 1.083910 -0.066280
v 0.213930 1.098330 -0.095225
v 0.210200 1.110740 -0.112351
v 0.208157 1.114160 -0.104432
v 0.211271 1.101900 -0.086680
v 0.213330 1.094750 -0.103947
v 0.209207 1.107510 -0.120605
v 0.210200 1.110740 -0.112351
v 0.213930 1.098330 -0.095225
v 0.135775 1.008990 -0.056306
v 0.128275 1.006860 -0.059358
v 0.128940 1.037640 -0.089143
v 0.137850 1.039820 -0.085845
v 0.137850 1.039820 -0.085845
v 0.128940 1.037640 -0.089143
v 0.126616 1.063820 -0.119416
v 0.136541 1.065680 -0.115792
v 0.128940 1.037640 -0.089143
v 0.119674 1.034980 -0.093001
v 0.116349 1.061530 -0.123529
v 0.126616 1.063820 -0.119416
v 0.108998 0.826024 0.031790
v 0.110603 0.829468 0.029759
v 0.110617 0.831157 0.033050
v 0.108405 0.826232 0.034400
v 0.108405 0.826232 0.034400
v 0.110617 0.831157 0.033050
v 0.109982 0.832722 0.037165
v 0.107479 0.827131 0.037981
v 0.110617 0.831157 0.033050
v 0.114837 0.841393 0.030859
v 0.114470 0.843446 0.035764
v 0.109982 0.832722 0.037165
v 0.110603 0.829468 0.029759
v 0.114316 0.839180 0.026801
v 0.114837 0.841393 0.030859
v 0.110617 0.831157 0.033050
v 0.107479 0.827131 0.037981
v 0.109982 0.832722 0.037165
v 0.108817 0.834157 0.041153
v 0.106522 0.828726 0.041466
v 0.106522 0.828726 0.041466
v 0.108817 0.834157 0.041153
v 0.107189 0.834879 0.044556
v 0.105860 0.830359 0.043914
v 0.108817 0.834157 0.041153
v 0.113026 0.844912 0.040509
v 0.110676 0.845528 0.044656
v 0.107189 0.834879 0.044556
v 0.109982 0.832722 0.037165
v 0.114470 0.843446 0.035764
v 0.113026 0.844912 0.040509
v 0.108817 0.834157 0.041153
v 0.114316 0.839180 0.026801
v 0.121108 0.857918 0.022993
v 0.122168 0.860027 0.027684
v 0.114837 0.841393 0.030859
v 0.114837 0.841393 0.030859
v 0.122168 0.860027 0.027684
v 0.121983 0.862122 0.033319
v 0.114470 0.843446 0.035764
v 0.122168 0.860027 0.027684
v 0.132372 0.885506 0.022364
v 0.132378 0.887511 0.028518
v 0.121983 0.862122 0.033319
v 0.121108 0.857918 0.022993
v 0.130663 0.883674 0.017291
v 0.132372 0.885506 0.022364
v 0.122168 0.860027 0.027684
v 0.114470 0.843446 0.035764
v 0.121983 0.862122 0.033319
v 0.120235 0.863626 0.038730
v 0.113026 0.844912 0.040509
v 0.113026 0.844912 0.040509
v 0.120235 0.863626 0.038730
v 0.117145 0.864405 0.043432
v 0.110676 0.845528 0.044656
v 0.120235 0.863626 0.038730
v 0.130358 0.889160 0.034507
v 0.126587 0.890284 0.039711
v 0.117145 0.864405 0.043432
v 0.121983 0.862122 0.033319
v 0.132378 0.887511 0.028518
v 0.130358 0.889160 0.034507
v 0.120235 0.863626 0.038730
v 0.130663 0.883674 0.017291
v 0.142394 0.913616 0.008491
v 0.144945 0.915423 0.013622
v 0.132372 0.885506 0.022364
v 0.132372 0.885506 0.022364
v 0.144945 0.915423 0.013622
v 0.145266 0.917563 0.020011
v 0.132378 0.887511 0.028518
v 0.144945 0.915423 0.013622
v 0.159643 0.948565 0.000706
v 0.160454 0.951024 0.007138
v 0.145266 0.917563 0.020011
v 0.142394 0.913616 0.008491
v 0.156081 0.946556 -0.004320
v 0.159643 0.948565 0.000706
v 0.144945 0.915423 0.013622
v 0.132378 0.887511 0.028518
v 0.145266 0.917563 0.020011
v 0.143098 0.919581 0.026533
v 0.130358 0.889160 0.034507
v 0.130358 0.889160 0.034507
v 0.143098 0.919581 0.026533
v 0.138847 0.921176 0.032298
v 0.126587 0.890284 0.039711
v 0.143098 0.919581 0.026533
v 0.158434 0.953524 0.014071
v 0.154050 0.955612 0.020425
v 0.138847 0.921176 0.032298
v 0.145266 0.917563 0.020011
v 0.160454 0.951024 0.007138
v 0.158434 0.953524 0.014071
v 0.143098 0.919581 0.026533
v 0.156081 0.946556 -0.004320
v 0.171106 0.981358 -0.021872
v 0.175795 0.983655 -0.016896
v 0.159643 0.948565 0.000706
v 0.159643 0.948565 0.000706
v 0.175795 0.983655 -0.016896
v 0.177296 0.986486 -0.010453
v 0.160454 0.951024 0.007138
v 0.175795 0.983655 -0.016896
v 0.190786 1.017980 -0.039252
v 0.193113 1.021110 -0.032594
v 0.177296 0.986486 -0.010453
v 0.171106 0.981358 -0.021872
v 0.184912 1.015440 -0.044458
v 0.190786 1.017980 -0.039252
v 0.175795 0.983655 -0.016896
v 0.160454 0.951024 0.007138
v 0.177296 0.986486 -0.010453
v 0.175831 0.989434 -0.003278
v 0.158434 0.953524 0.014071
v 0.158434 0.953524 0.014071
v 0.175831 0.989434 -0.003278
v 0.171734 0.991941 0.003642
v 0.154050 0.955612 0.020425
v 0.175831 0.989434 -0.003278
v 0.192417 1.024420 -0.025131
v 0.188811 1.027270 -0.017641
v 0.171734 0.991941 0.003642
v 0.177296 0.986486 -0.010453
v 0.193113 1.021110 -0.032594
v 0.192417 1.024420 -0.025131
v 0.175831 0.989434 -0.003278
v 0.184912 1.015440 -0.044458
v 0.194923 1.046030 -0.071272
v 0.201940 1.048650 -0.065448
v 0.190786 1.017980 -0.039252
v 0.190786 1.017980 -0.039252
v 0.201940 1.048650 -0.065448
v 0.205112 1.051940 -0.058229
v 0.193113 1.021110 -0.032594
v 0.201940 1.048650 -0.065448
v 0.208307 1.073560 -0.091091
v 0.212058 1.076860 -0.083278
v 0.205112 1.051940 -0.058229
v 0.194923 1.046030 -0.071272
v 0.200436 1.070980 -0.097575
v 0.208307 1.073560 -0.091091
v 0.201940 1.048650 -0.065448
v 0.193113 1.021110 -0.032594
v 0.205112 1.051940 -0.058229
v 0.205135 1.055470 -0.050252
v 0.192417 1.024420 -0.025131
v 0.192417 1.024420 -0.025131
v 0.205135 1.055470 -0.050252
v 0.201975 1.058630 -0.042184
v 0.188811 1.027270 -0.017641
v 0.205135 1.055470 -0.050252
v 0.212530 1.080490 -0.074773
v 0.209668 1.083910 -0.066280
v 0.201975 1.058630 -0.042184
v 0.205112 1.051940 -0.058229
v 0.212058 1.076860 -0.083278
v 0.212530 1.080490 -0.074773
v 0.205135 1.055470 -0.050252
v 0.197825 1.102100 -0.134340
v 0.190868 1.112050 -0.145053
v 0.197207 1.114470 -0.140100
v 0.205591 1.104490 -0.127997
v 0.205591 1.104490 -0.127997
v 0.197207 1.114470 -0.140100
v 0.200491 1.117360 -0.134307
v 0.209207 1.107510 -0.120605
v 0.197207 1.114470 -0.140100
v 0.186218 1.121410 -0.148940
v 0.189180 1.124600 -0.144675
v 0.200491 1.117360 -0.134307
v 0.190868 1.112050 -0.145053
v 0.184137 1.118090 -0.150683
v 0.186218 1.121410 -0.148940
v 0.197207 1.114470 -0.140100
v 0.209207 1.107510 -0.120605
v 0.200491 1.117360 -0.134307
v 0.202680 1.119850 -0.127230
v 0.210200 1.110740 -0.112351
v 0.210200 1.110740 -0.112351
v 0.202680 1.119850 -0.127230
v 0.202130 1.122560 -0.120558
v 0.208157 1.114160 -0.104432
v 0.202680 1.119850 -0.127230
v 0.193124 1.126530 -0.138124
v 0.195735 1.127200 -0.131235
v 0.202130 1.122560 -0.120558
v 0.200491 1.117360 -0.134307
v 0.189180 1.124600 -0.144675
v 0.193124 1.126530 -0.138124
v 0.202680 1.119850 -0.127230
v 0.099932 0.890897 0.052675
v 0.095976 0.891036 0.055067
v 0.094550 0.862014 0.058082
v 0.097494 0.862397 0.056067
v 0.097494 0.862397 0.056067
v 0.094550 0.862014 0.058082
v 0.094424 0.839852 0.057744
v 0.096548 0.840746 0.056017
v 0.128275 1.006860 -0.059358
v 0.120529 1.004290 -0.062984
v 0.119674 1.034980 -0.093001
v 0.128940 1.037640 -0.089143
v 0.094550 0.862014 0.058082
v 0.091643 0.861666 0.060422
v 0.092228 0.838972 0.059657
v 0.094424 0.839852 0.057744
v 0.109491 0.958512 0.032398
v 0.103009 0.959700 0.036715
v 0.098787 0.924197 0.047923
v 0.103904 0.923564 0.044844
v 0.103904 0.923564 0.044844
v 0.098787 0.924197 0.047923
v 0.095976 0.891036 0.055067
v 0.099932 0.890897 0.052675
v 0.095976 0.891036 0.055067
v 0.092074 0.891239 0.057885
v 0.091643 0.861666 0.060422
v 0.094550 0.862014 0.058082
v 0.098787 0.924197 0.047923
v 0.093960 0.924944 0.051725
v 0.092074 0.891239 0.057885
v 0.095976 0.891036 0.055067
v 0.143506 1.085400 -0.051024
v 0.134405 1.090430 -0.042283
v 0.125507 1.063400 -0.019332
v 0.135050 1.059530 -0.028058
v 0.135050 1.059530 -0.028058
v 0.125507 1.063400 -0.019332
v 0.116247 1.031130 0.002821
v 0.125447 1.028340 -0.005053
v 0.103009 0.959700 0.036715
v 0.097193 0.961116 0.042284
v 0.093960 0.924944 0.051725
v 0.098787 0.924197 0.047923
v 0.125507 1.063400 -0.019332
v 0.117442 1.068330 -0.007774
v 0.108399 1.034670 0.013275
v 0.116247 1.031130 0.002821
v 0.151221 1.118420 -0.092341
v 0.144368 1.125220 -0.085947
v 0.140803 1.110590 -0.063947
v 0.148895 1.104450 -0.071991
v 0.148895 1.104450 -0.071991
v 0.140803 1.110590 -0.063947
v 0.134405 1.090430 -0.042283
v 0.143506 1.085400 -0.051024
v 0.134405 1.090430 -0.042283
v 0.126813 1.096890 -0.030763
v 0.117442 1.068330 -0.007774
v 0.125507 1.063400 -0.019332
v 0.140803 1.110590 -0.063947
v 0.134235 1.118570 -0.053387
v 0.126813 1.096890 -0.030763
v 0.134405 1.090430 -0.042283
v 0.125447 1.028340 -0.005053
v 0.116247 1.031130 0.002821
v 0.108716 0.995935 0.021668
v 0.116730 0.994032 0.015509
v 0.116730 0.994032 0.015509
v 0.108716 0.995935 0.021668
v 0.103009 0.959700 0.036715
v 0.109491 0.958512 0.032398
v 0.144368 1.125220 -0.085947
v 0.138997 1.134180 -0.077576
v 0.134235 1.118570 -0.053387
v 0.140803 1.110590 -0.063947
v 0.108716 0.995935 0.021668
v 0.101759 0.998286 0.029793
v 0.097193 0.961116 0.042284
v 0.103009 0.959700 0.036715
v 0.108286 0.830226 0.018775
v 0.107447 0.828777 0.017408
v 0.110010 0.850414 0.011825
v 0.111359 0.851464 0.013509
v 0.111359 0.851464 0.013509
v 0.110010 0.850414 0.011825
v 0.113269 0.878451 0.004948
v 0.115384 0.879246 0.006904
v 0.116247 1.031130 0.002821
v 0.108399 1.034670 0.013275
v 0.101759 0.998286 0.029793
v 0.108716 0.995935 0.021668
v 0.110010 0.850414 0.011825
v 0.109027 0.849206 0.009082
v 0.111367 0.877509 0.002087
v 0.113269 0.878451 0.004948
v 0.115384 0.879246 0.006904
v 0.113269 0.878451 0.004948
v 0.116992 0.908695 -0.004283
v 0.120098 0.909548 -0.002132
v 0.120098 0.909548 -0.002132
v 0.116992 0.908695 -0.004283
v 0.121079 0.940515 -0.017238
v 0.125445 0.941714 -0.014864
v 0.107447 0.828777 0.017408
v 0.106791 0.826918 0.014840
v 0.109027 0.849206 0.009082
v 0.110010 0.850414 0.011825
v 0.116992 0.908695 -0.004283
v 0.113913 0.907910 -0.007293
v 0.116697 0.939129 -0.019979
v 0.121079 0.940515 -0.017238
v 0.125445 0.941714 -0.014864
v 0.121079 0.940515 -0.017238
v 0.125237 0.973786 -0.035274
v 0.131137 0.975506 -0.032562
v 0.131137 0.975506 -0.032562
v 0.125237 0.973786 -0.035274
v 0.128275 1.006860 -0.059358
v 0.135775 1.008990 -0.056306
v 0.113269 0.878451 0.004948
v 0.111367 0.877509 0.002087
v 0.113913 0.907910 -0.007293
v 0.116992 0.908695 -0.004283
v 0.125237 0.973786 -0.035274
v 0.119221 0.971752 -0.038477
v 0.120529 1.004290 -0.062984
v 0.128275 1.006860 -0.059358
v 0.127438 1.100090 -0.158603
v 0.116628 1.099990 -0.164075
v 0.115000 1.114310 -0.176907
v 0.126170 1.112940 -0.169736
v 0.126170 1.112940 -0.169736
v 0.115000 1.114310 -0.176907
v 0.117556 1.126900 -0.182081
v 0.128239 1.123900 -0.173910
v 0.121079 0.940515 -0.017238
v 0.116697 0.939129 -0.019979
v 0.119221 0.971752 -0.038477
v 0.125237 0.973786 -0.035274
v 0.115000 1.114310 -0.176907
v 0.103064 1.115990 -0.185435
v 0.105722 1.130660 -0.192144
v 0.117556 1.126900 -0.182081
v 0.148396 1.136540 -0.133595
v 0.143310 1.142890 -0.133175
v 0.145200 1.135990 -0.109834
v 0.150938 1.129250 -0.113484
v 0.150938 1.129250 -0.113484
v 0.145200 1.135990 -0.109834
v 0.144368 1.125220 -0.085947
v 0.151221 1.118420 -0.092341
v 0.116628 1.099990 -0.164075
v 0.105570 1.099800 -0.170263
v 0.103064 1.115990 -0.185435
v 0.115000 1.114310 -0.176907
v 0.145200 1.135990 -0.109834
v 0.140775 1.145000 -0.105070
v 0.138997 1.134180 -0.077576
v 0.144368 1.125220 -0.085947
v 0.128239 1.123900 -0.173910
v 0.117556 1.126900 -0.182081
v 0.124082 1.137050 -0.178761
v 0.132791 1.132570 -0.171383
v 0.132791 1.132570 -0.171383
v 0.124082 1.137050 -0.178761
v 0.132049 1.143610 -0.168469
v 0.138494 1.138050 -0.163190
v 0.143310 1.142890 -0.133175
v 0.139221 1.151420 -0.132602
v 0.140775 1.145000 -0.105070
v 0.145200 1.135990 -0.109834
v 0.124082 1.137050 -0.178761
v 0.114550 1.142700 -0.187983
v 0.125494 1.150690 -0.175105
v 0.132049 1.143610 -0.168469
v 0.138494 1.138050 -0.163190
v 0.132049 1.143610 -0.168469
v 0.138779 1.145540 -0.153033
v 0.144003 1.139480 -0.150418
v 0.144003 1.139480 -0.150418
v 0.138779 1.145540 -0.153033
v 0.143310 1.142890 -0.133175
v 0.148396 1.136540 -0.133595
v 0.117556 1.126900 -0.182081
v 0.105722 1.130660 -0.192144
v 0.114550 1.142700 -0.187983
v 0.124082 1.137050 -0.178761
v 0.138779 1.145540 -0.153033
v 0.134080 1.153490 -0.156330
v 0.139221 1.151420 -0.132602
v 0.143310 1.142890 -0.133175
v 0.101996 0.813152 0.038512
v 0.101323 0.811079 0.038554
v 0.102996 0.810487 0.032898
v 0.103574 0.812608 0.033258
v 0.103574 0.812608 0.033258
v 0.102996 0.810487 0.032898
v 0.104384 0.812188 0.027636
v 0.104938 0.814226 0.028362
v 0.132049 1.143610 -0.168469
v 0.125494 1.150690 -0.175105
v 0.134080 1.153490 -0.156330
v 0.138779 1.145540 -0.153033
v 0.102996 0.810487 0.032898
v 0.102389 0.808238 0.032563
v 0.103810 0.810033 0.026909
v 0.104384 0.812188 0.027636
v 0.098348 0.820454 0.049463
v 0.097208 0.818778 0.050384
v 0.099298 0.813875 0.044627
v 0.100156 0.815798 0.044152
v 0.100156 0.815798 0.044152
v 0.099298 0.813875 0.044627
v 0.101323 0.811079 0.038554
v 0.101996 0.813152 0.038512
v 0.101323 0.811079 0.038554
v 0.100615 0.808894 0.038641
v 0.102389 0.808238 0.032563
v 0.102996 0.810487 0.032898
v 0.099298 0.813875 0.044627
v 0.098403 0.811885 0.045178
v 0.100615 0.808894 0.038641
v 0.101323 0.811079 0.038554
v 0.104938 0.814226 0.028362
v 0.104384 0.812188 0.027636
v 0.105708 0.817016 0.022554
v 0.106315 0.818820 0.023607
v 0.106315 0.818820 0.023607
v 0.105708 0.817016 0.022554
v 0.107447 0.828777 0.017408
v 0.108286 0.830226 0.018775
v 0.097208 0.818778 0.050384
v 0.096026 0.817083 0.051420
v 0.098403 0.811885 0.045178
v 0.099298 0.813875 0.044627
v 0.105708 0.817016 0.022554
v 0.105093 0.815120 0.021445
v 0.106791 0.826918 0.014840
v 0.107447 0.828777 0.017408
v 0.096548 0.840746 0.056017
v 0.094424 0.839852 0.057744
v 0.095439 0.826359 0.054965
v 0.096980 0.827690 0.053609
v 0.096980 0.827690 0.053609
v 0.095439 0.826359 0.054965
v 0.097208 0.818778 0.050384
v 0.098348 0.820454 0.049463
v 0.104384 0.812188 0.027636
v 0.103810 0.810033 0.026909
v 0.105093 0.815120 0.021445
v 0.105708 0.817016 0.022554
v 0.095439 0.826359 0.054965
v 0.093844 0.825031 0.056471
v 0.096026 0.817083 0.051420
v 0.097208 0.818778 0.050384
v 0.136541 1.065680 -0.115792
v 0.126616 1.063820 -0.119416
v 0.121528 1.083930 -0.144791
v 0.131980 1.085100 -0.140520
v 0.131980 1.085100 -0.140520
v 0.121528 1.083930 -0.144791
v 0.116628 1.099990 -0.164075
v 0.127438 1.100090 -0.158603
v 0.094424 0.839852 0.057744
v 0.092228 0.838972 0.059657
v 0.093844 0.825031 0.056471
v 0.095439 0.826359 0.054965
v 0.121528 1.083930 -0.144791
v 0.110890 1.082440 -0.149527
v 0.105570 1.099800 -0.170263
v 0.116628 1.099990 -0.164075
v 0.200436 1.070980 -0.097575
v 0.188259 1.069370 -0.102312
v 0.188407 1.087510 -0.123910
v 0.201313 1.089070 -0.118715
v 0.201313 1.089070 -0.118715
v 0.188407 1.087510 -0.123910
v 0.185015 1.100720 -0.139694
v 0.197825 1.102100 -0.134340
v 0.188407 1.087510 -0.123910
v 0.174273 1.086670 -0.127885
v 0.170717 1.100110 -0.144099
v 0.185015 1.100720 -0.139694
v 0.188259 1.069370 -0.102312
v 0.175104 1.068460 -0.105717
v 0.174273 1.086670 -0.127885
v 0.188407 1.087510 -0.123910
v 0.110676 0.845528 0.044656
v 0.107750 0.845203 0.047966
v 0.105109 0.834235 0.047193
v 0.107189 0.834879 0.044556
v 0.107189 0.834879 0.044556
v 0.105109 0.834235 0.047193
v 0.104429 0.828755 0.045199
v 0.105860 0.830359 0.043914
v 0.105109 0.834235 0.047193
v 0.103017 0.832943 0.049160
v 0.102848 0.826938 0.046510
v 0.104429 0.828755 0.045199
v 0.107750 0.845203 0.047966
v 0.104854 0.844363 0.050415
v 0.103017 0.832943 0.049160
v 0.105109 0.834235 0.047193
v 0.130663 0.883674 0.017291
v 0.127803 0.882473 0.014274
v 0.138200 0.912489 0.005417
v 0.142394 0.913616 0.008491
v 0.142394 0.913616 0.008491
v 0.138200 0.912489 0.005417
v 0.150287 0.945270 -0.007382
v 0.156081 0.946556 -0.004320
v 0.138200 0.912489 0.005417
v 0.133621 0.911815 0.003662
v 0.143967 0.944473 -0.009161
v 0.150287 0.945270 -0.007382
v 0.127803 0.882473 0.014274
v 0.124675 0.881712 0.012573
v 0.133621 0.911815 0.003662
v 0.138200 0.912489 0.005417
v 0.108998 0.826024 0.031790
v 0.108218 0.823885 0.031383
v 0.109892 0.827417 0.028009
v 0.110603 0.829468 0.029759
v 0.110603 0.829468 0.029759
v 0.109892 0.827417 0.028009
v 0.113216 0.837201 0.024393
v 0.114316 0.839180 0.026801
v 0.109892 0.827417 0.028009
v 0.108937 0.825365 0.027092
v 0.111958 0.835519 0.023052
v 0.113216 0.837201 0.024393
v 0.108218 0.823885 0.031383
v 0.107276 0.821531 0.030963
v 0.108937 0.825365 0.027092
v 0.109892 0.827417 0.028009
v 0.184912 1.015440 -0.044458
v 0.175527 1.013790 -0.047829
v 0.183969 1.044370 -0.075291
v 0.194923 1.046030 -0.071272
v 0.194923 1.046030 -0.071272
v 0.183969 1.044370 -0.075291
v 0.188259 1.069370 -0.102312
v 0.200436 1.070980 -0.097575
v 0.183969 1.044370 -0.075291
v 0.172139 1.043370 -0.077984
v 0.175104 1.068460 -0.105717
v 0.188259 1.069370 -0.102312
v 0.175527 1.013790 -0.047829
v 0.165322 1.012760 -0.049920
v 0.172139 1.043370 -0.077984
v 0.183969 1.044370 -0.075291
v 0.126587 0.890284 0.039711
v 0.121607 0.890850 0.043754
v 0.113169 0.864493 0.047170
v 0.117145 0.864405 0.043432
v 0.117145 0.864405 0.043432
v 0.113169 0.864493 0.047170
v 0.107750 0.845203 0.047966
v 0.110676 0.845528 0.044656
v 0.113169 0.864493 0.047170
v 0.109172 0.864177 0.049912
v 0.104854 0.844363 0.050415
v 0.107750 0.845203 0.047966
v 0.121607 0.890850 0.043754
v 0.116438 0.891026 0.046606
v 0.109172 0.864177 0.049912
v 0.113169 0.864493 0.047170
v 0.208157 1.114160 -0.104432
v 0.202488 1.117520 -0.098223
v 0.205193 1.104870 -0.079424
v 0.211271 1.101900 -0.086680
v 0.211271 1.101900 -0.086680
v 0.205193 1.104870 -0.079424
v 0.203317 1.086460 -0.058768
v 0.209668 1.083910 -0.066280
v 0.205193 1.104870 -0.079424
v 0.196065 1.105870 -0.075143
v 0.193797 1.087090 -0.054214
v 0.203317 1.086460 -0.058768
v 0.202488 1.117520 -0.098223
v 0.193821 1.119130 -0.094814
v 0.196065 1.105870 -0.075143
v 0.205193 1.104870 -0.079424
v 0.154050 0.955612 0.020425
v 0.147927 0.956925 0.025236
v 0.133156 0.922161 0.036629
v 0.138847 0.921176 0.032298
v 0.138847 0.921176 0.032298
v 0.133156 0.922161 0.036629
v 0.121607 0.890850 0.043754
v 0.126587 0.890284 0.039711
v 0.133156 0.922161 0.036629
v 0.126958 0.922642 0.039463
v 0.116438 0.891026 0.046606
v 0.121607 0.890850 0.043754
v 0.147927 0.956925 0.025236
v 0.140750 0.957489 0.028155
v 0.126958 0.922642 0.039463
v 0.133156 0.922161 0.036629
v 0.209668 1.083910 -0.066280
v 0.203317 1.086460 -0.058768
v 0.195510 1.060780 -0.034969
v 0.201975 1.058630 -0.042184
v 0.201975 1.058630 -0.042184
v 0.195510 1.060780 -0.034969
v 0.182355 1.029090 -0.011114
v 0.188811 1.027270 -0.017641
v 0.195510 1.060780 -0.034969
v 0.185994 1.061190 -0.030627
v 0.173298 1.029440 -0.007265
v 0.182355 1.029090 -0.011114
v 0.203317 1.086460 -0.058768
v 0.193797 1.087090 -0.054214
v 0.185994 1.061190 -0.030627
v 0.195510 1.060780 -0.034969
v 0.197825 1.102100 -0.134340
v 0.185015 1.100720 -0.139694
v 0.179310 1.111230 -0.150265
v 0.190868 1.112050 -0.145053
v 0.190868 1.112050 -0.145053
v 0.179310 1.111230 -0.150265
v 0.174602 1.119310 -0.155550
v 0.184137 1.118090 -0.150683
v 0.179310 1.111230 -0.150265
v 0.166004 1.111190 -0.154984
v 0.162670 1.120210 -0.160363
v 0.174602 1.119310 -0.155550
v 0.185015 1.100720 -0.139694
v 0.170717 1.100110 -0.144099
v 0.166004 1.111190 -0.154984
v 0.179310 1.111230 -0.150265
v 0.105860 0.830359 0.043914
v 0.104429 0.828755 0.045199
v 0.104857 0.825413 0.042093
v 0.106522 0.828726 0.041466
v 0.106522 0.828726 0.041466
v 0.104857 0.825413 0.042093
v 0.105823 0.823425 0.038430
v 0.107479 0.827131 0.037981
v 0.104857 0.825413 0.042093
v 0.103541 0.823004 0.042765
v 0.104661 0.820688 0.038629
v 0.105823 0.823425 0.038430
v 0.104429 0.828755 0.045199
v 0.102848 0.826938 0.046510
v 0.103541 0.823004 0.042765
v 0.104857 0.825413 0.042093
v 0.188811 1.027270 -0.017641
v 0.182355 1.029090 -0.011114
v 0.165378 0.993502 0.009266
v 0.171734 0.991941 0.003642
v 0.171734 0.991941 0.003642
v 0.165378 0.993502 0.009266
v 0.147927 0.956925 0.025236
v 0.154050 0.955612 0.020425
v 0.165378 0.993502 0.009266
v 0.157179 0.993961 0.012568
v 0.140750 0.957489 0.028155
v 0.147927 0.956925 0.025236
v 0.182355 1.029090 -0.011114
v 0.173298 1.029440 -0.007265
v 0.157179 0.993961 0.012568
v 0.165378 0.993502 0.009266
v 0.114316 0.839180 0.026801
v 0.113216 0.837201 0.024393
v 0.119287 0.856324 0.020185
v 0.121108 0.857918 0.022993
v 0.121108 0.857918 0.022993
v 0.119287 0.856324 0.020185
v 0.127803 0.882473 0.014274
v 0.130663 0.883674 0.017291
v 0.119287 0.856324 0.020185
v 0.117292 0.855152 0.018599
v 0.124675 0.881712 0.012573
v 0.127803 0.882473 0.014274
v 0.113216 0.837201 0.024393
v 0.111958 0.835519 0.023052
v 0.117292 0.855152 0.018599
v 0.119287 0.856324 0.020185
v 0.156081 0.946556 -0.004320
v 0.150287 0.945270 -0.007382
v 0.163514 0.979853 -0.024965
v 0.171106 0.981358 -0.021872
v 0.171106 0.981358 -0.021872
v 0.163514 0.979853 -0.024965
v 0.175527 1.013790 -0.047829
v 0.184912 1.015440 -0.044458
v 0.163514 0.979853 -0.024965
v 0.155230 0.978904 -0.026795
v 0.165322 1.012760 -0.049920
v 0.175527 1.013790 -0.047829
v 0.150287 0.945270 -0.007382
v 0.143967 0.944473 -0.009161
v 0.155230 0.978904 -0.026795
v 0.163514 0.979853 -0.024965
v 0.195735 1.127200 -0.131235
v 0.189982 1.130870 -0.132316
v 0.196935 1.126180 -0.116583
v 0.202130 1.122560 -0.120558
v 0.202130 1.122560 -0.120558
v 0.196935 1.126180 -0.116583
v 0.202488 1.117520 -0.098223
v 0.208157 1.114160 -0.104432
v 0.196935 1.126180 -0.116583
v 0.188464 1.128640 -0.114753
v 0.193821 1.119130 -0.094814
v 0.202488 1.117520 -0.098223
v 0.189982 1.130870 -0.132316
v 0.181231 1.133960 -0.132698
v 0.188464 1.128640 -0.114753
v 0.196935 1.126180 -0.116583
v 0.184137 1.118090 -0.150683
v 0.174602 1.119310 -0.155550
v 0.174228 1.125170 -0.155511
v 0.186218 1.121410 -0.148940
v 0.186218 1.121410 -0.148940
v 0.174228 1.125170 -0.155511
v 0.177426 1.129220 -0.151301
v 0.189180 1.124600 -0.144675
v 0.174228 1.125170 -0.155511
v 0.162935 1.127000 -0.160109
v 0.166783 1.131790 -0.155090
v 0.177426 1.129220 -0.151301
v 0.174602 1.119310 -0.155550
v 0.162670 1.120210 -0.160363
v 0.162935 1.127000 -0.160109
v 0.174228 1.125170 -0.155511
v 0.189180 1.124600 -0.144675
v 0.177426 1.129220 -0.151301
v 0.183180 1.131460 -0.143716
v 0.193124 1.126530 -0.138124
v 0.193124 1.126530 -0.138124
v 0.183180 1.131460 -0.143716
v 0.189982 1.130870 -0.132316
v 0.195735 1.127200 -0.131235
v 0.183180 1.131460 -0.143716
v 0.173426 1.134580 -0.146106
v 0.181231 1.133960 -0.132698
v 0.189982 1.130870 -0.132316
v 0.177426 1.129220 -0.151301
v 0.166783 1.131790 -0.155090
v 0.173426 1.134580 -0.146106
v 0.183180 1.131460 -0.143716
v 0.107479 0.827131 0.037981
v 0.105823 0.823425 0.038430
v 0.106974 0.822880 0.034808
v 0.108405 0.826232 0.034400
v 0.108405 0.826232 0.034400
v 0.106974 0.822880 0.034808
v 0.108218 0.823885 0.031383
v 0.108998 0.826024 0.031790
v 0.106974 0.822880 0.034808
v 0.105923 0.820204 0.034729
v 0.107276 0.821531 0.030963
v 0.108218 0.823885 0.031383
v 0.105823 0.823425 0.038430
v 0.104661 0.820688 0.038629
v 0.105923 0.820204 0.034729
v 0.106974 0.822880 0.034808
v 0.154935 1.067420 -0.110664
v 0.145901 1.066790 -0.112983
v 0.142126 1.085730 -0.137029
v 0.152108 1.086010 -0.134039
v 0.152108 1.086010 -0.134039
v 0.142126 1.085730 -0.137029
v 0.137843 1.100040 -0.154343
v 0.148050 1.099930 -0.150903
v 0.142126 1.085730 -0.137029
v 0.131980 1.085100 -0.140520
v 0.127438 1.100090 -0.158603
v 0.137843 1.100040 -0.154343
v 0.145901 1.066790 -0.112983
v 0.136541 1.065680 -0.115792
v 0.131980 1.085100 -0.140520
v 0.142126 1.085730 -0.137029
v 0.100495 0.842570 0.053372
v 0.098554 0.841658 0.054602
v 0.098433 0.829021 0.052500
v 0.099843 0.830335 0.051532
v 0.099843 0.830335 0.051532
v 0.098433 0.829021 0.052500
v 0.099422 0.822093 0.048732
v 0.100467 0.823693 0.048104
v 0.098433 0.829021 0.052500
v 0.096980 0.827690 0.053609
v 0.098348 0.820454 0.049463
v 0.099422 0.822093 0.048732
v 0.098554 0.841658 0.054602
v 0.096548 0.840746 0.056017
v 0.096980 0.827690 0.053609
v 0.098433 0.829021 0.052500
v 0.105979 0.817795 0.029779
v 0.105461 0.816069 0.029083
v 0.106910 0.820468 0.024563
v 0.107509 0.822025 0.025444
v 0.107509 0.822025 0.025444
v 0.106910 0.820468 0.024563
v 0.109134 0.831558 0.019942
v 0.109995 0.832821 0.020979
v 0.106910 0.820468 0.024563
v 0.106315 0.818820 0.023607
v 0.108286 0.830226 0.018775
v 0.109134 0.831558 0.019942
v 0.105461 0.816069 0.029083
v 0.104938 0.814226 0.028362
v 0.106315 0.818820 0.023607
v 0.106910 0.820468 0.024563
v 0.100467 0.823693 0.048104
v 0.099422 0.822093 0.048732
v 0.100953 0.817607 0.043803
v 0.101726 0.819335 0.043524
v 0.101726 0.819335 0.043524
v 0.100953 0.817607 0.043803
v 0.102611 0.815036 0.038542
v 0.103203 0.816800 0.038611
v 0.100953 0.817607 0.043803
v 0.100156 0.815798 0.044152
v 0.101996 0.813152 0.038512
v 0.102611 0.815036 0.038542
v 0.099422 0.822093 0.048732
v 0.098348 0.820454 0.049463
v 0.100156 0.815798 0.044152
v 0.100953 0.817607 0.043803
v 0.103203 0.816800 0.038611
v 0.102611 0.815036 0.038542
v 0.104103 0.814515 0.033660
v 0.104618 0.816292 0.034072
v 0.104618 0.816292 0.034072
v 0.104103 0.814515 0.033660
v 0.105461 0.816069 0.029083
v 0.105979 0.817795 0.029779
v 0.104103 0.814515 0.033660
v 0.103574 0.812608 0.033258
v 0.104938 0.814226 0.028362
v 0.105461 0.816069 0.029083
v 0.102611 0.815036 0.038542
v 0.101996 0.813152 0.038512
v 0.103574 0.812608 0.033258
v 0.104103 0.814515 0.033660
v 0.151227 1.133830 -0.158597
v 0.144795 1.135080 -0.160183
v 0.150150 1.136610 -0.148935
v 0.157114 1.135870 -0.148124
v 0.157114 1.135870 -0.148124
v 0.150150 1.136610 -0.148935
v 0.155194 1.133860 -0.133734
v 0.163300 1.133770 -0.133560
v 0.150150 1.136610 -0.148935
v 0.144003 1.139480 -0.150418
v 0.148396 1.136540 -0.133595
v 0.155194 1.133860 -0.133734
v 0.144795 1.135080 -0.160183
v 0.138494 1.138050 -0.163190
v 0.144003 1.139480 -0.150418
v 0.150150 1.136610 -0.148935
v 0.144796 1.121340 -0.166029
v 0.137025 1.122180 -0.168927
v 0.140159 1.130040 -0.167103
v 0.146893 1.128830 -0.164809
v 0.146893 1.128830 -0.164809
v 0.140159 1.130040 -0.167103
v 0.144795 1.135080 -0.160183
v 0.151227 1.133830 -0.158597
v 0.140159 1.130040 -0.167103
v 0.132791 1.132570 -0.171383
v 0.138494 1.138050 -0.163190
v 0.144795 1.135080 -0.160183
v 0.137025 1.122180 -0.168927
v 0.128239 1.123900 -0.173910
v 0.132791 1.132570 -0.171383
v 0.140159 1.130040 -0.167103
v 0.163300 1.133770 -0.133560
v 0.155194 1.133860 -0.133734
v 0.158910 1.126430 -0.115200
v 0.168473 1.126640 -0.115351
v 0.168473 1.126640 -0.115351
v 0.158910 1.126430 -0.115200
v 0.160581 1.115420 -0.095321
v 0.171641 1.115670 -0.095587
v 0.158910 1.126430 -0.115200
v 0.150938 1.129250 -0.113484
v 0.151221 1.118420 -0.092341
v 0.160581 1.115420 -0.095321
v 0.155194 1.133860 -0.133734
v 0.148396 1.136540 -0.133595
v 0.150938 1.129250 -0.113484
v 0.158910 1.126430 -0.115200
v 0.148050 1.099930 -0.150903
v 0.137843 1.100040 -0.154343
v 0.136074 1.112080 -0.164854
v 0.145300 1.111620 -0.161497
v 0.145300 1.111620 -0.161497
v 0.136074 1.112080 -0.164854
v 0.137025 1.122180 -0.168927
v 0.144796 1.121340 -0.166029
v 0.136074 1.112080 -0.164854
v 0.126170 1.112940 -0.169736
v 0.128239 1.123900 -0.173910
v 0.137025 1.122180 -0.168927
v 0.137843 1.100040 -0.154343
v 0.127438 1.100090 -0.158603
v 0.126170 1.112940 -0.169736
v 0.136074 1.112080 -0.164854
v 0.134145 0.943258 -0.011759
v 0.129788 0.942595 -0.013108
v 0.136850 0.976691 -0.030677
v 0.142486 0.977504 -0.029336
v 0.142486 0.977504 -0.029336
v 0.136850 0.976691 -0.030677
v 0.142869 1.010400 -0.054220
v 0.149758 1.011290 -0.052760
v 0.136850 0.976691 -0.030677
v 0.131137 0.975506 -0.032562
v 0.135775 1.008990 -0.056306
v 0.142869 1.010400 -0.054220
v 0.129788 0.942595 -0.013108
v 0.125445 0.941714 -0.014864
v 0.131137 0.975506 -0.032562
v 0.136850 0.976691 -0.030677
v 0.119739 0.880511 0.009876
v 0.117541 0.879917 0.008504
v 0.123247 0.910217 -0.000440
v 0.126440 0.910763 0.000952
v 0.126440 0.910763 0.000952
v 0.123247 0.910217 -0.000440
v 0.129788 0.942595 -0.013108
v 0.134145 0.943258 -0.011759
v 0.123247 0.910217 -0.000440
v 0.120098 0.909548 -0.002132
v 0.125445 0.941714 -0.014864
v 0.129788 0.942595 -0.013108
v 0.117541 0.879917 0.008504
v 0.115384 0.879246 0.006904
v 0.120098 0.909548 -0.002132
v 0.123247 0.910217 -0.000440
v 0.109995 0.832821 0.020979
v 0.109134 0.831558 0.019942
v 0.112735 0.852410 0.014914
v 0.114138 0.853293 0.016141
v 0.114138 0.853293 0.016141
v 0.112735 0.852410 0.014914
v 0.117541 0.879917 0.008504
v 0.119739 0.880511 0.009876
v 0.112735 0.852410 0.014914
v 0.111359 0.851464 0.013509
v 0.115384 0.879246 0.006904
v 0.117541 0.879917 0.008504
v 0.109134 0.831558 0.019942
v 0.108286 0.830226 0.018775
v 0.111359 0.851464 0.013509
v 0.112735 0.852410 0.014914
v 0.149552 1.026960 -0.008528
v 0.136881 1.026900 -0.008489
v 0.126479 0.992956 0.012715
v 0.137132 0.992808 0.012421
v 0.137132 0.992808 0.012421
v 0.126479 0.992956 0.012715
v 0.117058 0.957744 0.030207
v 0.125156 0.957437 0.029506
v 0.126479 0.992956 0.012715
v 0.116730 0.994032 0.015509
v 0.109491 0.958512 0.032398
v 0.117058 0.957744 0.030207
v 0.136881 1.026900 -0.008489
v 0.125447 1.028340 -0.005053
v 0.116730 0.994032 0.015509
v 0.126479 0.992956 0.012715
v 0.171641 1.115670 -0.095587
v 0.160581 1.115420 -0.095321
v 0.159556 1.101600 -0.075696
v 0.171898 1.101830 -0.076000
v 0.171898 1.101830 -0.076000
v 0.159556 1.101600 -0.075696
v 0.155133 1.082970 -0.054979
v 0.168347 1.083160 -0.055224
v 0.159556 1.101600 -0.075696
v 0.148895 1.104450 -0.071991
v 0.143506 1.085400 -0.051024
v 0.155133 1.082970 -0.054979
v 0.160581 1.115420 -0.095321
v 0.151221 1.118420 -0.092341
v 0.148895 1.104450 -0.071991
v 0.159556 1.101600 -0.075696
v 0.168347 1.083160 -0.055224
v 0.155133 1.082970 -0.054979
v 0.147053 1.057610 -0.031907
v 0.160507 1.057770 -0.031992
v 0.160507 1.057770 -0.031992
v 0.147053 1.057610 -0.031907
v 0.136881 1.026900 -0.008489
v 0.149552 1.026960 -0.008528
v 0.147053 1.057610 -0.031907
v 0.135050 1.059530 -0.028058
v 0.125447 1.028340 -0.005053
v 0.136881 1.026900 -0.008489
v 0.155133 1.082970 -0.054979
v 0.143506 1.085400 -0.051024
v 0.135050 1.059530 -0.028058
v 0.147053 1.057610 -0.031907
v 0.125156 0.957437 0.029506
v 0.117058 0.957744 0.030207
v 0.109488 0.923134 0.042984
v 0.115282 0.922904 0.041927
v 0.115282 0.922904 0.041927
v 0.109488 0.923134 0.042984
v 0.103921 0.890867 0.050960
v 0.107911 0.890921 0.049677
v 0.109488 0.923134 0.042984
v 0.103904 0.923564 0.044844
v 0.099932 0.890897 0.052675
v 0.103921 0.890867 0.050960
v 0.117058 0.957744 0.030207
v 0.109491 0.958512 0.032398
v 0.103904 0.923564 0.044844
v 0.109488 0.923134 0.042984
v 0.107911 0.890921 0.049677
v 0.103921 0.890867 0.050960
v 0.100314 0.862834 0.054469
v 0.103061 0.863297 0.053127
v 0.103061 0.863297 0.053127
v 0.100314 0.862834 0.054469
v 0.098554 0.841658 0.054602
v 0.100495 0.842570 0.053372
v 0.100314 0.862834 0.054469
v 0.097494 0.862397 0.056067
v 0.096548 0.840746 0.056017
v 0.098554 0.841658 0.054602
v 0.103921 0.890867 0.050960
v 0.099932 0.890897 0.052675
v 0.097494 0.862397 0.056067
v 0.100314 0.862834 0.054469
v 0.149758 1.011290 -0.052760
v 0.142869 1.010400 -0.054220
v 0.146173 1.041210 -0.083484
v 0.154168 1.042040 -0.081700
v 0.154168 1.042040 -0.081700
v 0.146173 1.041210 -0.083484
v 0.145901 1.066790 -0.112983
v 0.154935 1.067420 -0.110664
v 0.146173 1.041210 -0.083484
v 0.137850 1.039820 -0.085845
v 0.136541 1.065680 -0.115792
v 0.145901 1.066790 -0.112983
v 0.142869 1.010400 -0.054220
v 0.135775 1.008990 -0.056306
v 0.137850 1.039820 -0.085845
v 0.146173 1.041210 -0.083484
v 0.165322 1.012760 -0.049920
v 0.156886 1.012000 -0.051438
v 0.162397 1.042680 -0.079989
v 0.172139 1.043370 -0.077984
v 0.172139 1.043370 -0.077984
v 0.162397 1.042680 -0.079989
v 0.164206 1.067890 -0.108368
v 0.175104 1.068460 -0.105717
v 0.162397 1.042680 -0.079989
v 0.154168 1.042040 -0.081700
v 0.154935 1.067420 -0.110664
v 0.164206 1.067890 -0.108368
v 0.156886 1.012000 -0.051438
v 0.149758 1.011290 -0.052760
v 0.154168 1.042040 -0.081700
v 0.162397 1.042680 -0.079989
v 0.116438 0.891026 0.046606
v 0.111947 0.891007 0.048412
v 0.105880 0.863753 0.051759
v 0.109172 0.864177 0.049912
v 0.109172 0.864177 0.049912
v 0.105880 0.863753 0.051759
v 0.102495 0.843464 0.052101
v 0.104854 0.844363 0.050415
v 0.105880 0.863753 0.051759
v 0.103061 0.863297 0.053127
v 0.100495 0.842570 0.053372
v 0.102495 0.843464 0.052101
v 0.111947 0.891007 0.048412
v 0.107911 0.890921 0.049677
v 0.103061 0.863297 0.053127
v 0.105880 0.863753 0.051759
v 0.140750 0.957489 0.028155
v 0.133109 0.957502 0.029234
v 0.121035 0.922810 0.041007
v 0.126958 0.922642 0.039463
v 0.126958 0.922642 0.039463
v 0.121035 0.922810 0.041007
v 0.111947 0.891007 0.048412
v 0.116438 0.891026 0.046606
v 0.121035 0.922810 0.041007
v 0.115282 0.922904 0.041927
v 0.107911 0.890921 0.049677
v 0.111947 0.891007 0.048412
v 0.133109 0.957502 0.029234
v 0.125156 0.957437 0.029506
v 0.115282 0.922904 0.041927
v 0.121035 0.922810 0.041007
v 0.193797 1.087090 -0.054214
v 0.181715 1.085300 -0.053888
v 0.173939 1.059600 -0.030484
v 0.185994 1.061190 -0.030627
v 0.185994 1.061190 -0.030627
v 0.173939 1.059600 -0.030484
v 0.162060 1.028280 -0.007160
v 0.173298 1.029440 -0.007265
v 0.173939 1.059600 -0.030484
v 0.160507 1.057770 -0.031992
v 0.149552 1.026960 -0.008528
v 0.162060 1.028280 -0.007160
v 0.181715 1.085300 -0.053888
v 0.168347 1.083160 -0.055224
v 0.160507 1.057770 -0.031992
v 0.173939 1.059600 -0.030484
v 0.193821 1.119130 -0.094814
v 0.183139 1.117800 -0.094615
v 0.184541 1.104110 -0.074813
v 0.196065 1.105870 -0.075143
v 0.196065 1.105870 -0.075143
v 0.184541 1.104110 -0.074813
v 0.181715 1.085300 -0.053888
v 0.193797 1.087090 -0.054214
v 0.184541 1.104110 -0.074813
v 0.171898 1.101830 -0.076000
v 0.168347 1.083160 -0.055224
v 0.181715 1.085300 -0.053888
v 0.183139 1.117800 -0.094615
v 0.171641 1.115670 -0.095587
v 0.171898 1.101830 -0.076000
v 0.184541 1.104110 -0.074813
v 0.173298 1.029440 -0.007265
v 0.162060 1.028280 -0.007160
v 0.147586 0.993437 0.013064
v 0.157179 0.993961 0.012568
v 0.157179 0.993961 0.012568
v 0.147586 0.993437 0.013064
v 0.133109 0.957502 0.029234
v 0.140750 0.957489 0.028155
v 0.147586 0.993437 0.013064
v 0.137132 0.992808 0.012421
v 0.125156 0.957437 0.029506
v 0.133109 0.957502 0.029234
v 0.162060 1.028280 -0.007160
v 0.149552 1.026960 -0.008528
v 0.137132 0.992808 0.012421
v 0.147586 0.993437 0.013064
v 0.111958 0.835519 0.023052
v 0.110898 0.834099 0.021988
v 0.115599 0.854180 0.017335
v 0.117292 0.855152 0.018599
v 0.117292 0.855152 0.018599
v 0.115599 0.854180 0.017335
v 0.122025 0.881092 0.011197
v 0.124675 0.881712 0.012573
v 0.115599 0.854180 0.017335
v 0.114138 0.853293 0.016141
v 0.119739 0.880511 0.009876
v 0.122025 0.881092 0.011197
v 0.110898 0.834099 0.021988
v 0.109995 0.832821 0.020979
v 0.114138 0.853293 0.016141
v 0.115599 0.854180 0.017335
v 0.124675 0.881712 0.012573
v 0.122025 0.881092 0.011197
v 0.129760 0.911276 0.002271
v 0.133621 0.911815 0.003662
v 0.133621 0.911815 0.003662
v 0.129760 0.911276 0.002271
v 0.138672 0.943849 -0.010513
v 0.143967 0.944473 -0.009161
v 0.129760 0.911276 0.002271
v 0.126440 0.910763 0.000952
v 0.134145 0.943258 -0.011759
v 0.138672 0.943849 -0.010513
v 0.122025 0.881092 0.011197
v 0.119739 0.880511 0.009876
v 0.126440 0.910763 0.000952
v 0.129760 0.911276 0.002271
v 0.143967 0.944473 -0.009161
v 0.138672 0.943849 -0.010513
v 0.148338 0.978184 -0.028134
v 0.155230 0.978904 -0.026795
v 0.155230 0.978904 -0.026795
v 0.148338 0.978184 -0.028134
v 0.156886 1.012000 -0.051438
v 0.165322 1.012760 -0.049920
v 0.148338 0.978184 -0.028134
v 0.142486 0.977504 -0.029336
v 0.149758 1.011290 -0.052760
v 0.156886 1.012000 -0.051438
v 0.138672 0.943849 -0.010513
v 0.134145 0.943258 -0.011759
v 0.142486 0.977504 -0.029336
v 0.148338 0.978184 -0.028134
v 0.170717 1.100110 -0.144099
v 0.158564 1.099910 -0.147678
v 0.154811 1.111340 -0.158526
v 0.166004 1.111190 -0.154984
v 0.166004 1.111190 -0.154984
v 0.154811 1.111340 -0.158526
v 0.152866 1.120790 -0.163599
v 0.162670 1.120210 -0.160363
v 0.154811 1.111340 -0.158526
v 0.145300 1.111620 -0.161497
v 0.144796 1.121340 -0.166029
v 0.152866 1.120790 -0.163599
v 0.158564 1.099910 -0.147678
v 0.148050 1.099930 -0.150903
v 0.145300 1.111620 -0.161497
v 0.154811 1.111340 -0.158526
v 0.181231 1.133960 -0.132698
v 0.172096 1.134480 -0.133121
v 0.178621 1.128200 -0.114744
v 0.188464 1.128640 -0.114753
v 0.188464 1.128640 -0.114753
v 0.178621 1.128200 -0.114744
v 0.183139 1.117800 -0.094615
v 0.193821 1.119130 -0.094814
v 0.178621 1.128200 -0.114744
v 0.168473 1.126640 -0.115351
v 0.171641 1.115670 -0.095587
v 0.183139 1.117800 -0.094615
v 0.172096 1.134480 -0.133121
v 0.163300 1.133770 -0.133560
v 0.168473 1.126640 -0.115351
v 0.178621 1.128200 -0.114744
v 0.162670 1.120210 -0.160363
v 0.152866 1.120790 -0.163599
v 0.154056 1.128010 -0.162893
v 0.162935 1.127000 -0.160109
v 0.162935 1.127000 -0.160109
v 0.154056 1.128010 -0.162893
v 0.158254 1.133050 -0.157213
v 0.166783 1.131790 -0.155090
v 0.154056 1.128010 -0.162893
v 0.146893 1.128830 -0.164809
v 0.151227 1.133830 -0.158597
v 0.158254 1.133050 -0.157213
v 0.152866 1.120790 -0.163599
v 0.144796 1.121340 -0.166029
v 0.146893 1.128830 -0.164809
v 0.154056 1.128010 -0.162893
v 0.166783 1.131790 -0.155090
v 0.158254 1.133050 -0.157213
v 0.164770 1.135690 -0.147337
v 0.173426 1.134580 -0.146106
v 0.173426 1.134580 -0.146106
v 0.164770 1.135690 -0.147337
v 0.172096 1.134480 -0.133121
v 0.181231 1.133960 -0.132698
v 0.164770 1.135690 -0.147337
v 0.157114 1.135870 -0.148124
v 0.163300 1.133770 -0.133560
v 0.172096 1.134480 -0.133121
v 0.158254 1.133050 -0.157213
v 0.151227 1.133830 -0.158597
v 0.157114 1.135870 -0.148124
v 0.164770 1.135690 -0.147337
v 0.104661 0.820688 0.038629
v 0.103840 0.818588 0.038664
v 0.105180 0.818096 0.034451
v 0.105923 0.820204 0.034729
v 0.105923 0.820204 0.034729
v 0.105180 0.818096 0.034451
v 0.106544 0.819543 0.030425
v 0.107276 0.821531 0.030963
v 0.105180 0.818096 0.034451
v 0.104618 0.816292 0.034072
v 0.105979 0.817795 0.029779
v 0.106544 0.819543 0.030425
v 0.103840 0.818588 0.038664
v 0.103203 0.816800 0.038611
v 0.104618 0.816292 0.034072
v 0.105180 0.818096 0.034451
v 0.102848 0.826938 0.046510
v 0.101557 0.825274 0.047434
v 0.102542 0.821065 0.043219
v 0.103541 0.823004 0.042765
v 0.103541 0.823004 0.042765
v 0.102542 0.821065 0.043219
v 0.103840 0.818588 0.038664
v 0.104661 0.820688 0.038629
v 0.102542 0.821065 0.043219
v 0.101726 0.819335 0.043524
v 0.103203 0.816800 0.038611
v 0.103840 0.818588 0.038664
v 0.101557 0.825274 0.047434
v 0.100467 0.823693 0.048104
v 0.101726 0.819335 0.043524
v 0.102542 0.821065 0.043219
v 0.107276 0.821531 0.030963
v 0.106544 0.819543 0.030425
v 0.108150 0.823601 0.026283
v 0.108937 0.825365 0.027092
v 0.108937 0.825365 0.027092
v 0.108150 0.823601 0.026283
v 0.110898 0.834099 0.021988
v 0.111958 0.835519 0.023052
v 0.108150 0.823601 0.026283
v 0.107509 0.822025 0.025444
v 0.109995 0.832821 0.020979
v 0.110898 0.834099 0.021988
v 0.106544 0.819543 0.030425
v 0.105979 0.817795 0.029779
v 0.107509 0.822025 0.025444
v 0.108150 0.823601 0.026283
v 0.104854 0.844363 0.050415
v 0.102495 0.843464 0.052101
v 0.101300 0.831625 0.050518
v 0.103017 0.832943 0.049160
v 0.103017 0.832943 0.049160
v 0.101300 0.831625 0.050518
v 0.101557 0.825274 0.047434
v 0.102848 0.826938 0.046510
v 0.101300 0.831625 0.050518
v 0.099843 0.830335 0.051532
v 0.100467 0.823693 0.048104
v 0.101557 0.825274 0.047434
v 0.102495 0.843464 0.052101
v 0.100495 0.842570 0.053372
v 0.099843 0.830335 0.051532
v 0.101300 0.831625 0.050518
v 0.175104 1.068460 -0.105717
v 0.164206 1.067890 -0.108368
v 0.162368 1.086250 -0.131124
v 0.174273 1.086670 -0.127885
v 0.174273 1.086670 -0.127885
v 0.162368 1.086250 -0.131124
v 0.158564 1.099910 -0.147678
v 0.170717 1.100110 -0.144099
v 0.162368 1.086250 -0.131124
v 0.152108 1.086010 -0.134039
v 0.148050 1.099930 -0.150903
v 0.158564 1.099910 -0.147678
v 0.164206 1.067890 -0.108368
v 0.154935 1.067420 -0.110664
v 0.152108 1.086010 -0.134039
v 0.162368 1.086250 -0.131124
v 0.126616 1.063820 -0.119416
v 0.116349 1.061530 -0.123529
v 0.110890 1.082440 -0.149527
v 0.121528 1.083930 -0.144791
vn 0.4824 -0.6797 -0.5526
vn 0.4947 -0.6377 -0.5905
vn 0.7930 -0.4215 -0.4398
vn 0.7688 -0.5227 -0.3685
vn 0.9703 -0.1307 -0.2034
vn 0.9537 -0.2804 -0.1086
vn 0.7931 -0.4215 -0.4398
vn 0.8019 -0.2216 -0.5548
vn 0.9383 0.0812 -0.3361
vn 0.9703 -0.1306 -0.2034
vn 0.4946 -0.6377 -0.5905
vn 0.5237 -0.5078 -0.6840
vn 0.9704 -0.1306 -0.2034
vn 0.9872 0.1529 0.0451
vn 0.9876 -0.0177 0.1561
vn 0.9872 0.1529 0.0452
vn 0.8588 0.4232 0.2888
vn 0.8767 0.2517 0.4099
vn 0.9872 0.1530 0.0451
vn 0.9359 0.3369 -0.1027
vn 0.7996 0.5846 0.1371
vn 0.9872 0.1529 0.0450
vn 0.3837 -0.6119 -0.6916
vn 0.4640 -0.5867 -0.6637
vn 0.4201 -0.6538 -0.6293
vn 0.3481 -0.6818 -0.6435
vn 0.3814 -0.6856 -0.6201
vn 0.3178 -0.7136 -0.6243
vn 0.4422 -0.6433 -0.6250
vn 0.4008 -0.6744 -0.6201
vn 0.9192 -0.3593 0.1611
vn 0.9329 -0.3537 0.0682
vn 0.9170 -0.3408 0.2071
vn 0.8997 -0.3484 0.2629
vn 0.8872 -0.3343 0.3180
vn 0.8724 -0.3415 0.3498
vn 0.9296 -0.3451 0.1297
vn 0.9005 -0.3268 0.2869
vn 0.9320 -0.3566 -0.0646
vn 0.8723 -0.3415 0.3498
vn 0.8502 -0.3144 0.4223
vn 0.8422 -0.3343 0.4231
vn 0.8020 -0.2823 0.5264
vn 0.8138 -0.3168 0.4871
vn 0.8491 -0.2898 0.4416
vn 0.7755 -0.2380 0.5848
vn 0.9007 -0.3759 -0.2177
vn 0.9323 -0.3582 0.0509
vn 0.9085 -0.3226 0.2658
vn 0.9232 -0.3835 -0.0237
vn 0.9134 -0.3211 0.2503
vn 0.9085 -0.3226 0.2657
vn 0.8359 -0.4141 -0.3604
vn 0.8423 -0.2633 0.4703
vn 0.7377 -0.1886 0.6483
vn 0.8381 -0.2332 0.4932
vn 0.7082 -0.1330 0.6934
vn 0.8358 -0.4141 -0.3604
vn 0.7486 -0.4667 -0.4710
vn 0.9021 -0.4211 -0.0946
vn 0.9167 -0.3260 0.2311
vn 0.8702 -0.4657 -0.1607
vn 0.9194 -0.3405 0.1970
vn 0.6583 -0.5246 -0.5398
vn 0.8702 -0.4657 -0.1608
vn 0.8424 -0.2094 0.4965
vn 0.8381 -0.2332 0.4931
vn 0.8424 -0.2094 0.4966
vn 0.7014 -0.0850 0.7077
vn 0.8423 -0.2094 0.4966
vn 0.8578 -0.2007 0.4731
vn 0.7213 -0.0554 0.6904
vn 0.5829 -0.5812 -0.5679
vn 0.8343 -0.5050 -0.2214
vn 0.8343 -0.5050 -0.2213
vn 0.9249 -0.3543 0.1377
vn 0.8006 -0.5322 -0.2754
vn 0.9329 -0.3558 0.0558
vn 0.5829 -0.5812 -0.5678
vn 0.5290 -0.6336 -0.5645
vn 0.8874 -0.1937 0.4184
vn 0.8578 -0.2007 0.4732
vn 0.7637 -0.0257 0.6450
vn 0.9266 -0.1666 0.3372
vn 0.8147 0.0360 0.5788
vn 0.7638 -0.0257 0.6450
vn 0.4947 -0.6715 -0.5517
vn 0.7735 -0.5454 -0.3229
vn 0.9394 -0.3415 -0.0302
vn 0.9329 -0.3558 0.0557
vn 0.9394 -0.3414 -0.0302
vn 0.4946 -0.6715 -0.5517
vn 0.4823 -0.6797 -0.5526
vn 0.9621 -0.1162 0.2466
vn 0.8564 0.1266 0.5005
vn 0.8767 0.2516 0.4099
vn 0.9537 -0.2804 -0.1085
vn 0.5336 -0.2983 -0.7914
vn 0.7388 0.0149 -0.6737
vn 0.7389 0.0150 -0.6736
vn 0.8274 0.2761 -0.4891
vn 0.7389 0.0150 -0.6737
vn 0.6013 0.2053 -0.7722
vn 0.6555 0.4410 -0.6130
vn 0.8273 0.2762 -0.4891
vn 0.4941 -0.1186 -0.8613
vn 0.7388 0.0150 -0.6737
vn 0.8274 0.2762 -0.4890
vn 0.8434 0.4582 -0.2806
vn 0.9359 0.3370 -0.1027
vn 0.8434 0.4583 -0.2805
vn 0.7297 0.6834 -0.0233
vn 0.7996 0.5847 0.1370
vn 0.8433 0.4583 -0.2806
vn 0.6803 0.6079 -0.4095
vn 0.6612 0.7317 -0.1658
vn 0.8274 0.2762 -0.4891
vn 0.6803 0.6078 -0.4095
vn 0.4657 0.1073 0.8784
vn 0.5690 0.0910 0.8173
vn 0.5969 0.0197 0.8021
vn 0.5302 0.0160 0.8477
vn 0.6561 -0.0573 0.7525
vn 0.6165 -0.0722 0.7840
vn 0.4901 -0.5760 -0.6542
vn 0.6239 0.0197 0.7812
vn 0.6722 -0.0545 0.7383
vn 0.4488 0.2666 0.8529
vn 0.6467 0.1766 0.7420
vn 0.5906 0.1465 0.7935
vn 0.4392 0.1949 0.8770
vn 0.6053 0.0838 0.7916
vn 0.6384 0.1264 0.7593
vn 0.5739 0.4786 0.6645
vn 0.8107 0.2441 0.5321
vn 0.7800 0.2090 0.5898
vn 0.5404 0.4172 0.7307
vn 0.5403 0.4172 0.7307
vn 0.7487 0.1952 0.6335
vn 0.5092 0.3701 0.7770
vn 0.7052 0.1410 0.6949
vn 0.8362 0.1337 0.5319
vn 0.8086 0.1325 0.5732
vn 0.6161 0.6627 0.4257
vn 0.8620 0.4043 0.3057
vn 0.8430 0.3132 0.4373
vn 0.6047 0.5664 0.5600
vn 0.6046 0.5664 0.5600
vn 0.8616 0.1563 0.4830
vn 0.8902 0.2137 0.4023
vn 0.7052 0.1888 0.6834
vn 0.4773 0.3231 0.8172
vn 0.9115 0.3009 0.2803
vn 0.7670 0.1385 0.6265
vn 0.9026 -0.2521 -0.3489
vn 0.9493 -0.2090 -0.2349
vn 0.8880 -0.2058 -0.4113
vn 0.7952 -0.2492 -0.5527
vn 0.7784 -0.2500 -0.5758
vn 0.6675 -0.2856 -0.6876
vn 0.8880 -0.2047 -0.4117
vn 0.9416 -0.1716 -0.2897
vn 0.8463 -0.2217 -0.4844
vn 0.6556 -0.3232 -0.6824
vn 0.5533 -0.3517 -0.7551
vn 0.5584 -0.4114 -0.7204
vn 0.4716 -0.4320 -0.7687
vn 0.9695 -0.1861 -0.1593
vn 0.8880 -0.2058 -0.4112
vn 0.7068 -0.3053 -0.6381
vn 0.5950 -0.3970 -0.6988
vn 0.5042 -0.5002 -0.7040
vn 0.4209 -0.5204 -0.7430
vn 0.4209 -0.5204 -0.7429
vn 0.3837 -0.6119 -0.6917
vn 0.7784 -0.2507 -0.5756
vn 0.5324 -0.4895 -0.6906
vn 0.3240 -0.6463 -0.6909
vn 0.3774 -0.6290 -0.6796
vn 0.4419 -0.5041 -0.7420
vn 0.3912 -0.5003 -0.7724
vn 0.3912 -0.5002 -0.7725
vn 0.5536 -0.2853 -0.7824
vn 0.5043 -0.2384 -0.8300
vn 0.5323 -0.4895 -0.6907
vn 0.4669 -0.4840 -0.7401
vn 0.5608 -0.3037 -0.7702
vn 0.6028 0.7926 0.0921
vn 0.8471 0.5310 -0.0194
vn 0.8594 0.4859 0.1593
vn 0.6062 0.7439 0.2814
vn 0.3991 -0.6120 -0.6828
vn 0.9127 0.3871 0.1313
vn 0.5536 -0.2852 -0.7824
vn 0.6769 0.0007 -0.7360
vn 0.6168 0.1217 -0.7777
vn 0.6168 0.1218 -0.7776
vn 0.6770 0.0008 -0.7360
vn 0.7817 0.2894 -0.5524
vn 0.6723 0.4960 -0.5496
vn 0.8472 0.5310 -0.0194
vn 0.8969 0.4384 -0.0580
vn 0.6770 0.0007 -0.7360
vn 0.6636 -0.0835 -0.7434
vn 0.7777 0.1765 -0.6033
vn 0.7818 0.2893 -0.5524
vn 0.7818 0.2894 -0.5523
vn 0.8325 0.4827 -0.2719
vn 0.6423 0.7389 -0.2035
vn 0.6424 0.7389 -0.2035
vn 0.6028 0.7925 0.0921
vn 0.5609 -0.3036 -0.7703
vn 0.8615 0.3855 -0.3305
vn 0.8860 -0.2928 0.3595
vn 0.8901 -0.2823 0.3578
vn 0.9291 -0.2923 0.2267
vn 0.9246 -0.3024 0.2316
vn 0.9555 -0.2867 0.0690
vn 0.9511 -0.2992 0.0763
vn 0.9302 -0.2890 0.2261
vn 0.9554 -0.2841 0.0810
vn 0.7851 -0.2432 0.5696
vn 0.7944 -0.2231 0.5650
vn 0.8463 -0.2622 0.4638
vn 0.8416 -0.2765 0.4640
vn 0.8930 -0.2796 0.3527
vn 0.8495 -0.2585 0.4599
vn 0.9645 -0.2500 -0.0854
vn 0.9530 -0.2782 -0.1202
vn 0.7990 -0.2180 0.5605
vn 0.9667 -0.2492 -0.0580
vn 0.7276 -0.1466 0.6702
vn 0.7080 -0.1681 0.6859
vn 0.7364 -0.1429 0.6613
vn 0.3622 -0.6813 -0.6361
vn 0.3045 -0.7075 -0.6377
vn 0.3812 -0.6683 -0.6388
vn 0.2763 -0.7323 -0.6224
vn 0.2837 -0.7195 -0.6339
vn 0.3065 -0.6419 -0.7029
vn 0.5236 -0.5078 -0.6841
vn 0.2117 -0.7397 -0.6388
vn 0.2317 -0.6762 -0.6993
vn 0.2044 -0.7445 -0.6356
vn 0.6922 -0.1853 0.6975
vn 0.7493 -0.2534 0.6118
vn 0.7948 -0.3137 0.5196
vn 0.7103 -0.2336 0.6640
vn 0.7791 -0.3043 0.5481
vn 0.6236 -0.1453 0.7681
vn 0.7103 -0.2336 0.6641
vn 0.6372 -0.3918 -0.6637
vn 0.5021 -0.4392 -0.7450
vn 0.7485 -0.4667 -0.4711
vn 0.3997 -0.4991 -0.7689
vn 0.6583 -0.5246 -0.5399
vn 0.3742 -0.4033 -0.8351
vn 0.2857 -0.4699 -0.8352
vn 0.6371 -0.3918 -0.6638
vn 0.5089 -0.3538 -0.7848
vn 0.9154 -0.3825 0.1257
vn 0.9213 -0.3806 -0.0802
vn 0.8821 -0.3644 -0.2985
vn 0.9212 -0.3806 -0.0802
vn 0.9156 -0.3814 -0.1273
vn 0.8391 -0.3552 -0.4120
vn 0.9190 -0.3798 0.1059
vn 0.2959 -0.6463 -0.7034
vn 0.2796 -0.7063 -0.6504
vn 0.2027 -0.7119 -0.6724
vn 0.2093 -0.6413 -0.7382
vn 0.5567 -0.0395 0.8298
vn 0.6205 -0.1165 0.7755
vn 0.5237 -0.0612 0.8497
vn 0.4232 0.0348 0.9054
vn 0.7996 0.5847 0.1371
vn 0.5168 0.7852 0.3412
vn 0.5662 0.6556 0.4996
vn 0.5899 0.5110 0.6252
vn 0.8767 0.2518 0.4099
vn 0.1415 0.7778 0.6124
vn 0.1543 0.6817 0.7152
vn 0.1297 0.8690 0.4776
vn 0.7212 -0.0554 0.6905
vn 0.5098 0.1013 0.8543
vn 0.5179 0.0362 0.8547
vn 0.5178 0.0362 0.8547
vn 0.3323 0.1410 0.9326
vn 0.5097 0.1013 0.8544
vn 0.2554 0.2495 0.9341
vn 0.5836 0.3872 0.7138
vn 0.5602 0.2709 0.7828
vn 0.1605 0.5892 0.7919
vn 0.1729 0.4798 0.8602
vn 0.1542 0.6817 0.7152
vn 0.3065 -0.6418 -0.7029
vn 0.3387 -0.4786 -0.8101
vn 0.3970 -0.1614 -0.9035
vn 0.4940 -0.1186 -0.8613
vn 0.2702 -0.5172 -0.8121
vn 0.3213 -0.1930 -0.9271
vn 0.8326 -0.3362 0.4402
vn 0.8639 -0.3441 0.3678
vn 0.8274 -0.3296 0.4548
vn 0.8631 -0.3412 0.3724
vn 0.5295 0.1713 0.8308
vn 0.7637 -0.0257 0.6451
vn 0.5296 0.1713 0.8308
vn 0.2013 0.3615 0.9104
vn 0.7796 -0.3657 -0.5085
vn 0.9007 -0.3759 -0.2178
vn 0.7796 -0.3657 -0.5084
vn 0.8358 -0.4141 -0.3605
vn 0.7795 -0.3657 -0.5085
vn 0.6828 -0.3362 -0.6486
vn 0.6371 -0.3918 -0.6637
vn 0.8391 -0.3552 -0.4121
vn 0.3997 -0.4991 -0.7688
vn 0.3326 -0.5695 -0.7517
vn 0.5290 -0.6336 -0.5646
vn 0.2335 -0.5509 -0.8013
vn 0.3996 -0.4991 -0.7689
vn 0.4498 0.8898 -0.0774
vn 0.4671 0.8670 0.1737
vn 0.7296 0.6834 -0.0233
vn 0.7995 0.5847 0.1371
vn 0.1447 0.9373 0.3169
vn 0.5167 0.7852 0.3412
vn 0.1890 0.9789 0.0771
vn 0.1448 0.9374 0.3169
vn 0.4670 0.8670 0.1737
vn 0.4446 0.2681 -0.8547
vn 0.4447 0.2681 -0.8546
vn 0.4693 0.5938 -0.6536
vn 0.6555 0.4410 -0.6131
vn 0.4446 0.2682 -0.8546
vn 0.3458 0.3077 -0.8864
vn 0.3129 0.7196 -0.6198
vn 0.4692 0.5938 -0.6536
vn 0.3213 -0.1929 -0.9271
vn 0.4693 0.5939 -0.6535
vn 0.4730 0.7896 -0.3908
vn 0.6611 0.7317 -0.1658
vn 0.4730 0.7897 -0.3908
vn 0.2512 0.9300 -0.2683
vn 0.4692 0.5939 -0.6535
vn 0.3129 0.7197 -0.6198
vn 0.2512 0.9300 -0.2684
vn 0.4730 0.7896 -0.3909
vn 0.8920 -0.3608 0.2722
vn 0.8952 -0.3599 0.2629
vn 0.2039 -0.7464 -0.6335
vn 0.2447 -0.7369 -0.6301
vn 0.2394 -0.7313 -0.6387
vn 0.2046 -0.7421 -0.6384
vn 0.2046 -0.7420 -0.6384
vn 0.2581 -0.6664 -0.6995
vn 0.2198 -0.6790 -0.7005
vn 0.5524 -0.1001 0.8275
vn 0.5719 -0.0866 0.8157
vn 0.6815 -0.1901 0.7067
vn 0.6692 -0.2061 0.7139
vn 0.7719 -0.2664 0.5772
vn 0.7647 -0.2840 0.5784
vn 0.9377 -0.3351 0.0919
vn 0.9449 -0.3165 0.0835
vn 0.9452 -0.3020 -0.1239
vn 0.9373 -0.3261 -0.1232
vn 0.8812 -0.2797 -0.3810
vn 0.8640 -0.3054 -0.4002
vn 0.8813 -0.2797 -0.3810
vn 0.7648 -0.2840 0.5784
vn 0.8343 -0.2946 0.4660
vn 0.8285 -0.3100 0.4663
vn 0.8796 -0.3074 0.3630
vn 0.8729 -0.3213 0.3672
vn 0.9181 -0.3170 0.2380
vn 0.9107 -0.3321 0.2457
vn 0.2246 0.8307 -0.5093
vn 0.4215 0.7409 -0.5229
vn 0.2876 0.9529 -0.0961
vn 0.0742 0.9949 -0.0677
vn 0.1986 0.9554 0.2186
vn -0.0345 0.9656 0.2576
vn 0.6027 0.7926 0.0921
vn 0.1987 0.9554 0.2186
vn 0.4215 0.7409 -0.5228
vn 0.3040 -0.1728 -0.9369
vn 0.3999 -0.1902 -0.8966
vn 0.4671 0.2803 -0.8386
vn 0.3201 0.3667 -0.8735
vn 0.3201 0.3668 -0.8735
vn 0.4671 0.2804 -0.8386
vn 0.2246 0.8307 -0.5094
vn 0.6168 0.1218 -0.7777
vn 0.6722 0.4960 -0.5496
vn 0.3999 -0.1901 -0.8966
vn 0.1839 0.8987 0.3981
vn -0.0843 0.8973 0.4333
vn 0.1838 0.8987 0.3981
vn 0.1924 0.8335 0.5180
vn -0.1021 0.8399 0.5331
vn 0.6061 0.7440 0.2814
vn 0.1925 0.8334 0.5180
vn 0.3117 -0.5045 -0.8052
vn 0.2538 -0.5164 -0.8179
vn 0.2538 -0.5163 -0.8179
vn 0.3040 -0.1729 -0.9369
vn 0.3912 -0.5003 -0.7725
vn 0.3137 -0.4526 -0.8347
vn 0.3747 -0.4451 -0.8133
vn 0.3188 -0.5345 -0.7827
vn 0.2542 -0.5404 -0.8021
vn 0.2852 -0.6307 -0.7217
vn 0.2237 -0.6377 -0.7371
vn 0.5486 -0.3210 -0.7720
vn 0.5952 -0.3053 -0.7433
vn 0.4664 -0.3677 -0.8046
vn 0.4116 -0.3792 -0.8287
vn 0.7460 -0.2734 -0.6072
vn 0.7127 -0.2940 -0.6369
vn -0.0664 0.5777 0.8136
vn 0.1635 0.5227 0.8367
vn 0.1719 0.4394 0.8817
vn -0.0181 0.4816 0.8762
vn 0.1718 0.4394 0.8817
vn 0.2023 0.3435 0.9171
vn 0.0626 0.3685 0.9275
vn 0.4772 0.3231 0.8173
vn 0.1636 0.5227 0.8367
vn 0.4772 0.3232 0.8172
vn 0.1943 0.7540 0.6274
vn -0.1016 0.7809 0.6163
vn 0.1944 0.7540 0.6274
vn 0.1855 0.6694 0.7194
vn -0.0939 0.7180 0.6897
vn 0.5739 0.4787 0.6645
vn 0.1925 0.8334 0.5181
vn 0.1945 0.7540 0.6274
vn 0.1714 0.5957 0.7847
vn -0.0858 0.6542 0.7514
vn 0.1634 0.5227 0.8367
vn 0.5403 0.4173 0.7307
vn 0.2596 0.2358 0.9365
vn 0.1677 0.2441 0.9551
vn 0.3481 0.1209 0.9296
vn 0.2920 0.1172 0.9492
vn 0.4586 0.0121 0.8886
vn 0.4259 0.0017 0.9048
vn 0.2616 -0.7039 -0.6604
vn 0.2099 -0.7124 -0.6696
vn 0.3480 -0.6818 -0.6435
vn 0.2016 -0.6397 -0.7417
vn 0.1937 -0.7135 -0.6733
vn 0.1936 -0.7475 -0.6354
vn 0.3246 0.0887 0.9417
vn 0.4534 -0.0220 0.8910
vn 0.5738 -0.1179 0.8105
vn 0.6236 -0.1453 0.7682
vn 0.0774 0.3418 0.9366
vn 0.1974 0.2138 0.9567
vn 0.1541 0.6817 0.7152
vn -0.1335 0.7173 0.6838
vn -0.1194 0.6543 0.7467
vn -0.0881 0.5705 0.8165
vn -0.1355 0.8417 0.5226
vn -0.1427 0.7782 0.6116
vn 0.1414 0.7778 0.6124
vn -0.0228 0.4632 0.8860
vn 0.2012 0.3615 0.9104
vn 0.8484 -0.3312 -0.4130
vn 0.6880 -0.3137 -0.6544
vn 0.5165 -0.3355 -0.7878
vn 0.3794 -0.3896 -0.8392
vn 0.2847 -0.4596 -0.8412
vn 0.2847 -0.4596 -0.8413
vn 0.2281 -0.5444 -0.8072
vn 0.2335 -0.5509 -0.8012
vn 0.2281 -0.5445 -0.8072
vn 0.2137 -0.6830 -0.6985
vn 0.2437 -0.5259 -0.8149
vn 0.2826 -0.1863 -0.9410
vn 0.2826 -0.1864 -0.9410
vn 0.1890 0.9789 0.0772
vn -0.0178 0.9786 0.2051
vn -0.0938 0.9081 0.4081
vn 0.2900 0.3557 -0.8885
vn 0.2115 0.8052 -0.5540
vn 0.2900 0.3556 -0.8885
vn 0.0895 0.9861 -0.1402
vn 0.0895 0.9861 -0.1400
vn 0.1890 0.9790 0.0771
vn 0.0895 0.9861 -0.1401
vn 0.8670 -0.3328 0.3709
vn 0.9027 -0.3471 0.2542
vn 0.9288 -0.3571 0.0994
vn 0.7678 -0.2951 0.5687
vn 0.8262 -0.3211 0.4630
vn 0.9270 -0.3539 -0.1239
vn 0.6808 -0.2184 0.6992
vn 0.6808 -0.2184 0.6991
vn 0.1982 -0.7439 -0.6382
vn 0.1982 -0.7438 -0.6383
vn 0.1982 -0.7439 -0.6383
vt 0.087038 0.056700
vt 0.076273 0.057632
vt 0.077898 0.061108
vt 0.088124 0.060815
vt 0.079353 0.063959
vt 0.089323 0.064250
vt 0.070882 0.061049
vt 0.072336 0.063425
vt 0.068967 0.058225
vt 0.080697 0.066849
vt 0.090605 0.067618
vt 0.081832 0.069954
vt 0.091962 0.071140
vt 0.073637 0.065941
vt 0.074520 0.068678
vt 0.129137 0.023117
vt 0.129259 0.017440
vt 0.101270 0.017483
vt 0.102025 0.023469
vt 0.076749 0.018877
vt 0.078783 0.024918
vt 0.100285 0.010885
vt 0.074432 0.012230
vt 0.322166 0.032778
vt 0.316633 0.031519
vt 0.315817 0.036211
vt 0.323061 0.036210
vt 0.315629 0.041845
vt 0.323525 0.041167
vt 0.301788 0.037364
vt 0.301402 0.043748
vt 0.302938 0.031804
vt 0.315719 0.047325
vt 0.323083 0.046238
vt 0.316590 0.051965
vt 0.322139 0.049949
vt 0.301972 0.049827
vt 0.303584 0.055211
vt 0.279138 0.035184
vt 0.278421 0.041043
vt 0.278450 0.047707
vt 0.248989 0.045942
vt 0.249502 0.052452
vt 0.249218 0.040169
vt 0.279514 0.054056
vt 0.281539 0.059887
vt 0.250924 0.058814
vt 0.253134 0.064897
vt 0.217113 0.045098
vt 0.216963 0.050606
vt 0.217628 0.056687
vt 0.184332 0.054620
vt 0.184908 0.060126
vt 0.184630 0.049398
vt 0.219169 0.062938
vt 0.221403 0.069104
vt 0.186360 0.065999
vt 0.188488 0.071936
vt 0.153510 0.052828
vt 0.153135 0.057781
vt 0.153595 0.062650
vt 0.125932 0.059717
vt 0.126459 0.064078
vt 0.126082 0.054948
vt 0.154835 0.067828
vt 0.156758 0.073162
vt 0.127576 0.068558
vt 0.129297 0.073203
vt 0.103572 0.055871
vt 0.103990 0.060434
vt 0.104823 0.064393
vt 0.105995 0.068315
vt 0.107547 0.072380
vt 0.063293 0.058411
vt 0.065059 0.060676
vt 0.066260 0.062724
vt 0.059649 0.059958
vt 0.060575 0.061946
vt 0.059427 0.058389
vt 0.067594 0.064862
vt 0.068383 0.067061
vt 0.062374 0.064000
vt 0.064132 0.065772
vt 0.266890 0.091232
vt 0.268868 0.095390
vt 0.297262 0.084742
vt 0.295228 0.081443
vt 0.319844 0.074485
vt 0.317650 0.071977
vt 0.129237 0.011220
vt 0.299295 0.088225
vt 0.322056 0.077202
vt 0.204079 0.106881
vt 0.206499 0.112945
vt 0.237944 0.104966
vt 0.235842 0.099923
vt 0.270846 0.099744
vt 0.240048 0.110173
vt 0.095089 0.106762
vt 0.095708 0.115287
vt 0.118976 0.119789
vt 0.117046 0.111171
vt 0.146288 0.121262
vt 0.143558 0.113024
vt 0.208955 0.119251
vt 0.121062 0.129573
vt 0.149198 0.130403
vt 0.064994 0.094460
vt 0.062678 0.101253
vt 0.077539 0.109114
vt 0.078404 0.101120
vt 0.096391 0.125129
vt 0.076599 0.118521
vt 0.175744 0.118747
vt 0.172951 0.111478
vt 0.060093 0.109451
vt 0.178650 0.126553
vt 0.312209 0.017353
vt 0.313653 0.014906
vt 0.285581 0.015877
vt 0.284783 0.018595
vt 0.253126 0.017339
vt 0.252698 0.020476
vt 0.286139 0.012182
vt 0.253373 0.013561
vt 0.221123 0.018085
vt 0.220713 0.021753
vt 0.189807 0.018086
vt 0.189268 0.022420
vt 0.315069 0.010885
vt 0.221149 0.013891
vt 0.190301 0.013500
vt 0.158964 0.017797
vt 0.158431 0.022873
vt 0.159427 0.012321
vt 0.045828 0.029850
vt 0.040427 0.023968
vt 0.027961 0.028688
vt 0.035358 0.034478
vt 0.020613 0.035482
vt 0.029349 0.040650
vt 0.019720 0.022246
vt 0.010629 0.029618
vt 0.043214 0.076510
vt 0.038172 0.079054
vt 0.049446 0.091062
vt 0.053141 0.086206
vt 0.034627 0.017613
vt 0.045205 0.097083
vt 0.019169 0.044649
vt 0.027833 0.048188
vt 0.022447 0.055312
vt 0.030172 0.056880
vt 0.032297 0.082401
vt 0.009267 0.040734
vt 0.013673 0.053763
vt 0.029050 0.066778
vt 0.035525 0.066445
vt 0.021494 0.067524
vt 0.344057 0.038162
vt 0.347226 0.037739
vt 0.345847 0.028879
vt 0.342655 0.030125
vt 0.340762 0.021691
vt 0.337986 0.023599
vt 0.349372 0.027610
vt 0.343753 0.019661
vt 0.338493 0.056040
vt 0.341175 0.057122
vt 0.345523 0.047563
vt 0.342565 0.047209
vt 0.350629 0.037405
vt 0.348607 0.048063
vt 0.331394 0.016710
vt 0.329264 0.018969
vt 0.343895 0.058389
vt 0.333620 0.014281
vt 0.333736 0.065725
vt 0.331323 0.063936
vt 0.336158 0.067709
vt 0.056747 0.021007
vt 0.060342 0.026960
vt 0.052870 0.014544
vt 0.085942 0.051183
vt 0.074199 0.052708
vt 0.066061 0.054022
vt 0.071646 0.047025
vt 0.062293 0.048986
vt 0.084665 0.045078
vt 0.306134 0.059683
vt 0.318922 0.055425
vt 0.324969 0.051364
vt 0.321778 0.057998
vt 0.328120 0.052837
vt 0.308932 0.063212
vt 0.249923 0.035758
vt 0.217838 0.040221
vt 0.185577 0.044027
vt 0.218654 0.035672
vt 0.186632 0.038675
vt 0.250680 0.032047
vt 0.325004 0.031457
vt 0.318728 0.028511
vt 0.304642 0.028078
vt 0.321284 0.026457
vt 0.306475 0.025537
vt 0.328238 0.030034
vt 0.126809 0.048998
vt 0.103505 0.049963
vt 0.103440 0.043590
vt 0.127621 0.042667
vt 0.255885 0.070642
vt 0.284257 0.065128
vt 0.287040 0.069579
vt 0.258648 0.075791
vt 0.074610 0.071746
vt 0.082610 0.073403
vt 0.093351 0.075022
vt 0.082857 0.077240
vt 0.094531 0.079382
vt 0.073887 0.075093
vt 0.191086 0.077607
vt 0.224087 0.074960
vt 0.226843 0.080417
vt 0.193896 0.083109
vt 0.109492 0.076740
vt 0.131620 0.078001
vt 0.111530 0.081541
vt 0.134256 0.083097
vt 0.059789 0.055114
vt 0.055521 0.056498
vt 0.055044 0.051082
vt 0.050163 0.053627
vt 0.327950 0.046280
vt 0.328918 0.040713
vt 0.331648 0.046668
vt 0.332934 0.040248
vt 0.159269 0.078439
vt 0.162129 0.083801
vt 0.280254 0.031116
vt 0.281397 0.028104
vt 0.154552 0.047082
vt 0.155700 0.041106
vt 0.061934 0.066729
vt 0.067630 0.069457
vt 0.065752 0.072126
vt 0.058853 0.068382
vt 0.054147 0.058643
vt 0.055151 0.061247
vt 0.048577 0.056795
vt 0.049966 0.060606
vt 0.057881 0.063990
vt 0.053594 0.064539
vt 0.327961 0.035639
vt 0.331809 0.034676
vt 0.081955 0.035041
vt 0.080483 0.030217
vt 0.063534 0.032299
vt 0.066387 0.037186
vt 0.050527 0.035099
vt 0.054657 0.039828
vt 0.313443 0.067829
vt 0.315523 0.069806
vt 0.328965 0.062458
vt 0.326656 0.061156
vt 0.335903 0.055228
vt 0.333391 0.054564
vt 0.333250 0.027012
vt 0.335527 0.025365
vt 0.327297 0.020993
vt 0.325420 0.022851
vt 0.310821 0.019511
vt 0.309460 0.021486
vt 0.339818 0.047045
vt 0.337217 0.046980
vt 0.341236 0.038672
vt 0.338634 0.039217
vt 0.339880 0.031341
vt 0.337352 0.032510
vt 0.040757 0.059155
vt 0.035972 0.058215
vt 0.040603 0.066203
vt 0.045165 0.065687
vt 0.047444 0.074429
vt 0.051544 0.072251
vt 0.040636 0.047873
vt 0.035741 0.044652
vt 0.034135 0.050931
vt 0.039017 0.053083
vt 0.056474 0.082315
vt 0.059906 0.078594
vt 0.067332 0.088988
vt 0.069900 0.083852
vt 0.041200 0.039305
vt 0.045976 0.043434
vt 0.188104 0.030261
vt 0.188701 0.026423
vt 0.157855 0.027431
vt 0.157244 0.031721
vt 0.128896 0.028097
vt 0.128574 0.032693
vt 0.251789 0.026125
vt 0.252253 0.023366
vt 0.220275 0.025176
vt 0.219808 0.028477
vt 0.283990 0.021034
vt 0.283192 0.023312
vt 0.139153 0.097049
vt 0.141275 0.105135
vt 0.170406 0.104274
vt 0.167844 0.096869
vt 0.201732 0.100773
vt 0.199288 0.094563
vt 0.079573 0.094412
vt 0.081065 0.088024
vt 0.094937 0.099251
vt 0.095133 0.091888
vt 0.115636 0.103239
vt 0.114531 0.095244
vt 0.233757 0.094975
vt 0.231605 0.090077
vt 0.264950 0.087363
vt 0.263003 0.083671
vt 0.293262 0.078500
vt 0.291331 0.075766
vt 0.102545 0.028682
vt 0.102918 0.033436
vt 0.128180 0.037319
vt 0.103221 0.038166
vt 0.083316 0.039767
vt 0.260975 0.079988
vt 0.289345 0.072977
vt 0.311329 0.065790
vt 0.196663 0.088656
vt 0.229334 0.085326
vt 0.095116 0.084984
vt 0.113238 0.087696
vt 0.136828 0.089411
vt 0.072260 0.079080
vt 0.082321 0.082089
vt 0.165059 0.089871
vt 0.308061 0.023433
vt 0.282357 0.025591
vt 0.251287 0.028917
vt 0.219294 0.031840
vt 0.187451 0.034172
vt 0.156568 0.036074
vt 0.058468 0.044281
vt 0.050398 0.047215
vt 0.045192 0.050749
vt 0.055394 0.070195
vt 0.063133 0.075117
vt 0.043586 0.054950
vt 0.045241 0.059899
vt 0.049432 0.065112
vt 0.336016 0.039750
vt 0.334808 0.033622
vt 0.330936 0.028565
vt 0.330875 0.053856
vt 0.334608 0.046898
vt 0.323495 0.024640
vt 0.324333 0.059797
vt 0.069027 0.041893
s 1
f 1/1/1 2/2/2 3/3/3
f 1/1/1 3/3/3 4/4/4
f 5/4/4 6/3/3 7/5/5
f 5/4/4 7/5/5 8/6/6
f 9/3/7 10/7/8 11/8/9
f 9/3/7 11/8/9 12/5/10
f 13/2/11 14/9/12 15/7/8
f 13/2/11 15/7/8 16/3/3
f 17/6/6 18/5/13 19/10/14
f 17/6/6 19/10/14 20/11/15
f 21/11/15 22/10/16 23/12/17
f 21/11/15 23/12/17 24/13/18
f 25/10/19 26/14/20 27/15/21
f 25/10/19 27/15/21 28/12/17
f 29/5/13 30/8/9 31/14/20
f 29/5/13 31/14/20 32/10/22
f 33/16/23 34/17/24 35/18/25
f 33/16/23 35/18/25 36/19/26
f 37/19/26 38/18/25 39/20/27
f 37/19/26 39/20/27 40/21/28
f 41/18/25 42/22/29 43/23/30
f 41/18/25 43/23/30 44/20/27
f 45/24/31 46/25/32 47/26/33
f 45/24/31 47/26/33 48/27/34
f 49/27/34 50/26/33 51/28/35
f 49/27/34 51/28/35 52/29/36
f 53/26/33 54/30/37 55/31/38
f 53/26/33 55/31/38 56/28/35
f 57/25/32 58/32/39 59/30/37
f 57/25/32 59/30/37 60/26/33
f 61/29/40 62/28/35 63/33/41
f 61/29/40 63/33/41 64/34/42
f 65/34/42 66/33/41 67/35/43
f 65/34/42 67/35/43 68/36/44
f 69/33/41 70/37/45 71/38/46
f 69/33/41 71/38/46 72/35/43
f 73/28/35 74/31/38 75/37/45
f 73/28/35 75/37/45 76/33/41
f 77/32/39 78/39/47 79/40/48
f 77/32/39 79/40/48 80/30/37
f 81/30/37 82/40/48 83/41/49
f 81/30/37 83/41/49 84/31/38
f 85/40/48 86/42/50 87/43/51
f 85/40/48 87/43/51 88/41/52
f 89/39/47 90/44/53 91/42/50
f 89/39/47 91/42/50 92/40/48
f 93/31/38 94/41/49 95/45/54
f 93/31/38 95/45/54 96/37/45
f 97/37/45 98/45/54 99/46/55
f 97/37/45 99/46/55 100/38/46
f 101/45/54 102/47/56 103/48/57
f 101/45/54 103/48/57 104/46/55
f 105/41/49 106/43/51 107/47/56
f 105/41/49 107/47/56 108/45/54
f 109/44/58 110/49/59 111/50/60
f 109/44/58 111/50/60 112/42/50
f 113/42/50 114/50/60 115/51/61
f 113/42/50 115/51/61 116/43/51
f 117/50/60 118/52/62 119/53/63
f 117/50/60 119/53/63 120/51/61
f 121/49/59 122/54/64 123/52/65
f 121/49/59 123/52/65 124/50/60
f 125/43/51 126/51/61 127/55/66
f 125/43/51 127/55/66 128/47/67
f 129/47/56 130/55/68 131/56/69
f 129/47/56 131/56/69 132/48/57
f 133/55/70 134/57/71 135/58/72
f 133/55/70 135/58/72 136/56/69
f 137/51/61 138/53/63 139/57/71
f 137/51/61 139/57/71 140/55/68
f 141/54/64 142/59/73 143/60/74
f 141/54/64 143/60/74 144/52/62
f 145/52/62 146/60/75 147/61/76
f 145/52/62 147/61/76 148/53/63
f 149/60/75 150/62/77 151/63/78
f 149/60/75 151/63/78 152/61/76
f 153/59/79 154/64/80 155/62/77
f 153/59/79 155/62/77 156/60/74
f 157/53/63 158/61/76 159/65/81
f 157/53/63 159/65/81 160/57/71
f 161/57/82 162/65/81 163/66/83
f 161/57/82 163/66/83 164/58/72
f 165/65/81 166/67/84 167/68/85
f 165/65/81 167/68/85 168/66/86
f 169/61/76 170/63/78 171/67/84
f 169/61/76 171/67/84 172/65/81
f 173/64/80 174/69/87 175/70/88
f 173/64/80 175/70/88 176/62/77
f 177/62/77 178/70/88 179/71/89
f 177/62/77 179/71/89 180/63/90
f 181/70/88 182/4/4 183/6/6
f 181/70/88 183/6/6 184/71/91
f 185/69/92 186/1/93 187/4/4
f 185/69/92 187/4/4 188/70/88
f 189/63/78 190/71/91 191/72/94
f 189/63/78 191/72/94 192/67/84
f 193/67/84 194/72/94 195/73/95
f 193/67/84 195/73/95 196/68/85
f 197/72/94 198/11/15 199/13/96
f 197/72/94 199/13/96 200/73/95
f 201/71/91 202/6/97 203/11/15
f 201/71/91 203/11/15 204/72/94
f 205/9/12 206/74/98 207/75/99
f 205/9/12 207/75/99 208/7/8
f 209/7/8 210/75/100 211/76/101
f 209/7/8 211/76/101 212/8/9
f 213/75/102 214/77/103 215/78/104
f 213/75/102 215/78/104 216/76/105
f 217/74/98 218/79/106 219/77/103
f 217/74/98 219/77/103 220/75/107
f 221/8/9 222/76/108 223/80/109
f 221/8/9 223/80/109 224/14/20
f 225/14/110 226/80/111 227/81/112
f 225/14/110 227/81/112 228/15/113
f 229/80/114 230/82/115 231/83/116
f 229/80/114 231/83/116 232/81/112
f 233/76/117 234/78/104 235/82/118
f 233/76/117 235/82/118 236/80/114
f 237/84/119 238/85/120 239/86/121
f 237/84/119 239/86/121 240/87/122
f 241/87/122 242/86/121 243/88/123
f 241/87/122 243/88/123 244/89/124
f 245/17/24 246/90/125 247/22/29
f 245/17/24 247/22/29 248/18/25
f 249/86/121 250/91/126 251/92/127
f 249/86/121 251/92/127 252/88/123
f 253/93/128 254/94/129 255/95/130
f 253/93/128 255/95/130 256/96/131
f 257/96/131 258/95/130 259/85/120
f 257/96/131 259/85/120 260/84/119
f 261/85/120 262/97/132 263/91/126
f 261/85/120 263/91/126 264/86/121
f 265/95/130 266/98/133 267/97/132
f 265/95/130 267/97/132 268/85/120
f 269/99/134 270/100/135 271/101/136
f 269/99/134 271/101/136 272/102/137
f 273/102/138 274/101/136 275/103/139
f 273/102/138 275/103/139 276/104/140
f 277/94/129 278/105/141 279/98/133
f 277/94/129 279/98/133 280/95/130
f 281/101/136 282/106/142 283/107/143
f 281/101/136 283/107/143 284/103/139
f 285/108/144 286/109/145 287/110/146
f 285/108/144 287/110/146 288/111/147
f 289/111/148 290/110/146 291/100/135
f 289/111/148 291/100/135 292/99/134
f 293/100/135 294/112/149 295/106/142
f 293/100/135 295/106/142 296/101/136
f 297/110/146 298/113/150 299/112/149
f 297/110/146 299/112/149 300/100/135
f 301/104/140 302/103/139 303/114/151
f 301/104/140 303/114/151 304/115/152
f 305/115/152 306/114/151 307/94/129
f 305/115/152 307/94/129 308/93/128
f 309/109/145 310/116/153 311/113/150
f 309/109/145 311/113/150 312/110/146
f 313/114/151 314/117/154 315/105/141
f 313/114/151 315/105/141 316/94/129
f 317/118/155 318/119/156 319/120/157
f 317/118/155 319/120/157 320/121/158
f 321/121/158 322/120/157 323/122/159
f 321/121/158 323/122/159 324/123/160
f 325/103/139 326/107/143 327/117/154
f 325/103/139 327/117/154 328/114/151
f 329/120/161 330/124/162 331/125/163
f 329/120/161 331/125/163 332/122/159
f 333/123/160 334/122/159 335/126/164
f 333/123/160 335/126/164 336/127/165
f 337/127/165 338/126/164 339/128/166
f 337/127/165 339/128/166 340/129/167
f 341/119/156 342/130/168 343/124/162
f 341/119/156 343/124/162 344/120/169
f 345/126/164 346/131/170 347/132/171
f 345/126/164 347/132/171 348/128/166
f 349/129/167 350/128/166 351/133/172
f 349/129/167 351/133/172 352/134/173
f 353/134/174 354/133/172 355/17/24
f 353/134/174 355/17/24 356/16/175
f 357/122/176 358/125/163 359/131/170
f 357/122/176 359/131/170 360/126/164
f 361/133/172 362/135/177 363/90/125
f 361/133/172 363/90/125 364/17/24
f 365/136/178 366/137/179 367/138/180
f 365/136/178 367/138/180 368/139/181
f 369/139/182 370/138/180 371/140/183
f 369/139/182 371/140/183 372/141/184
f 373/128/166 374/132/171 375/135/185
f 373/128/166 375/135/185 376/133/172
f 377/138/180 378/142/186 379/143/187
f 377/138/180 379/143/187 380/140/183
f 381/144/188 382/145/189 383/146/190
f 381/144/188 383/146/190 384/147/191
f 385/147/191 386/146/190 387/109/145
f 385/147/191 387/109/145 388/108/144
f 389/137/179 390/148/192 391/142/186
f 389/137/179 391/142/186 392/138/180
f 393/146/190 394/149/193 395/116/153
f 393/146/190 395/116/153 396/109/145
f 397/141/184 398/140/194 399/150/195
f 397/141/184 399/150/195 400/151/196
f 401/151/197 402/150/198 403/152/199
f 401/151/197 403/152/199 404/153/200
f 405/145/201 406/154/202 407/149/193
f 405/145/201 407/149/193 408/146/190
f 409/150/203 410/155/204 411/156/205
f 409/150/203 411/156/205 412/152/206
f 413/153/200 414/152/207 415/157/208
f 413/153/200 415/157/208 416/158/209
f 417/158/210 418/157/208 419/145/189
f 417/158/210 419/145/189 420/144/211
f 421/140/183 422/143/212 423/155/204
f 421/140/183 423/155/204 424/150/195
f 425/157/208 426/159/213 427/154/202
f 425/157/208 427/154/202 428/145/189
f 429/160/214 430/161/215 431/162/216
f 429/160/214 431/162/216 432/163/217
f 433/163/217 434/162/216 435/164/218
f 433/163/217 435/164/218 436/165/219
f 437/152/207 438/156/205 439/159/213
f 437/152/207 439/159/213 440/157/208
f 441/162/216 442/166/220 443/167/221
f 441/162/216 443/167/221 444/164/218
f 445/168/222 446/169/223 447/170/224
f 445/168/222 447/170/224 448/171/225
f 449/171/225 450/170/224 451/161/215
f 449/171/225 451/161/215 452/160/214
f 453/161/215 454/172/226 455/166/220
f 453/161/215 455/166/220 456/162/216
f 457/170/224 458/173/227 459/172/226
f 457/170/224 459/172/226 460/161/215
f 461/165/219 462/164/218 463/174/228
f 461/165/219 463/174/228 464/175/229
f 465/175/229 466/174/228 467/119/156
f 465/175/229 467/119/156 468/118/155
f 469/169/223 470/176/230 471/173/227
f 469/169/223 471/173/227 472/170/224
f 473/174/228 474/177/231 475/130/168
f 473/174/228 475/130/168 476/119/156
f 477/89/124 478/88/123 479/178/232
f 477/89/124 479/178/232 480/179/233
f 481/179/233 482/178/232 483/169/223
f 481/179/233 483/169/223 484/168/222
f 485/164/218 486/167/221 487/177/231
f 485/164/218 487/177/231 488/174/228
f 489/178/232 490/180/234 491/176/230
f 489/178/232 491/176/230 492/169/223
f 493/21/28 494/20/27 495/181/235
f 493/21/28 495/181/235 496/182/236
f 497/182/236 498/181/235 499/137/179
f 497/182/236 499/137/179 500/136/178
f 501/88/123 502/92/127 503/180/234
f 501/88/123 503/180/234 504/178/232
f 505/181/235 506/183/237 507/148/192
f 505/181/235 507/148/192 508/137/179
f 509/1/93 510/184/238 511/185/239
f 509/1/93 511/185/239 512/2/11
f 513/2/11 514/185/239 515/186/240
f 513/2/11 515/186/240 516/9/241
f 517/185/239 518/187/242 519/188/243
f 517/185/239 519/188/243 520/186/240
f 521/184/238 522/189/244 523/187/242
f 521/184/238 523/187/242 524/185/239
f 525/38/46 526/190/245 527/191/246
f 525/38/46 527/191/246 528/35/43
f 529/35/43 530/191/246 531/192/247
f 529/35/43 531/192/247 532/36/44
f 533/191/246 534/193/248 535/194/249
f 533/191/246 535/194/249 536/192/247
f 537/190/245 538/195/250 539/193/251
f 537/190/245 539/193/251 540/191/246
f 541/44/58 542/196/252 543/197/253
f 541/44/58 543/197/253 544/49/254
f 545/49/254 546/197/253 547/198/255
f 545/49/254 547/198/255 548/54/256
f 549/197/253 550/199/257 551/200/258
f 549/197/253 551/200/258 552/198/255
f 553/196/259 554/201/260 555/199/257
f 553/196/259 555/199/257 556/197/253
f 557/24/31 558/202/261 559/203/262
f 557/24/31 559/203/262 560/25/32
f 561/25/32 562/203/262 563/204/263
f 561/25/32 563/204/263 564/32/39
f 565/203/264 566/205/265 567/206/266
f 565/203/264 567/206/266 568/204/263
f 569/202/261 570/207/267 571/205/265
f 569/202/261 571/205/265 572/203/264
f 573/64/80 574/208/268 575/209/269
f 573/64/80 575/209/269 576/69/92
f 577/69/92 578/209/269 579/184/238
f 577/69/92 579/184/238 580/1/93
f 581/209/269 582/210/270 583/189/244
f 581/209/269 583/189/244 584/184/238
f 585/208/268 586/211/271 587/210/270
f 585/208/268 587/210/270 588/209/269
f 589/48/57 590/212/272 591/213/273
f 589/48/57 591/213/273 592/46/55
f 593/46/55 594/213/273 595/190/245
f 593/46/55 595/190/245 596/38/46
f 597/213/273 598/214/274 599/195/250
f 597/213/273 599/195/250 600/190/245
f 601/212/272 602/215/275 603/214/274
f 601/212/272 603/214/274 604/213/273
f 605/15/276 606/216/277 607/217/278
f 605/15/276 607/217/278 608/12/17
f 609/12/17 610/217/278 611/218/279
f 609/12/17 611/218/279 612/13/280
f 613/217/278 614/219/281 615/220/282
f 613/217/278 615/220/282 616/218/279
f 617/216/277 618/221/283 619/219/281
f 617/216/277 619/219/281 620/217/278
f 621/58/284 622/222/285 623/223/286
f 621/58/284 623/223/286 624/56/69
f 625/56/69 626/223/287 627/212/272
f 625/56/69 627/212/272 628/48/57
f 629/223/287 630/224/288 631/215/275
f 629/223/287 631/215/275 632/212/272
f 633/222/289 634/225/290 635/224/288
f 633/222/289 635/224/288 636/223/287
f 637/13/18 638/218/279 639/226/291
f 637/13/18 639/226/291 640/73/95
f 641/73/95 642/226/291 643/227/292
f 641/73/95 643/227/292 644/68/85
f 645/226/291 646/228/293 647/229/294
f 645/226/291 647/229/294 648/227/292
f 649/218/279 650/220/295 651/228/293
f 649/218/279 651/228/293 652/226/291
f 653/9/241 654/186/296 655/230/297
f 653/9/241 655/230/297 656/74/98
f 657/74/98 658/230/297 659/231/298
f 657/74/98 659/231/298 660/79/299
f 661/230/297 662/232/300 663/233/301
f 661/230/297 663/233/301 664/231/298
f 665/186/240 666/188/243 667/232/300
f 665/186/240 667/232/300 668/230/297
f 669/36/44 670/192/247 671/234/302
f 669/36/44 671/234/302 672/34/42
f 673/34/42 674/234/302 675/235/303
f 673/34/42 675/235/303 676/29/36
f 677/234/302 678/236/304 679/237/305
f 677/234/302 679/237/305 680/235/303
f 681/192/247 682/194/249 683/236/304
f 681/192/247 683/236/304 684/234/302
f 685/68/85 686/227/292 687/238/306
f 685/68/85 687/238/306 688/66/307
f 689/66/307 690/238/308 691/222/285
f 689/66/307 691/222/285 692/58/284
f 693/238/306 694/239/309 695/225/290
f 693/238/306 695/225/290 696/222/289
f 697/227/292 698/229/294 699/239/309
f 697/227/292 699/239/309 700/238/306
f 701/32/39 702/204/263 703/240/310
f 701/32/39 703/240/310 704/39/47
f 705/39/311 706/240/312 707/196/252
f 705/39/311 707/196/252 708/44/313
f 709/240/314 710/241/315 711/201/260
f 709/240/314 711/201/260 712/196/316
f 713/204/263 714/206/317 715/241/315
f 713/204/263 715/241/315 716/240/310
f 717/54/256 718/198/318 719/242/319
f 717/54/256 719/242/319 720/59/73
f 721/59/73 722/242/319 723/208/268
f 721/59/73 723/208/268 724/64/320
f 725/242/319 726/243/321 727/211/271
f 725/242/319 727/211/271 728/208/268
f 729/198/322 730/200/258 731/243/321
f 729/198/322 731/243/321 732/242/319
f 733/83/116 734/244/323 735/245/324
f 733/83/116 735/245/324 736/81/325
f 737/81/112 738/245/324 739/216/277
f 737/81/112 739/216/277 740/15/326
f 741/245/324 742/246/327 743/221/283
f 741/245/324 743/221/283 744/216/328
f 745/244/323 746/247/329 747/246/330
f 745/244/323 747/246/330 748/245/331
f 749/79/299 750/231/298 751/248/332
f 749/79/299 751/248/332 752/77/103
f 753/77/103 754/248/333 755/249/334
f 753/77/103 755/249/334 756/78/335
f 757/248/336 758/250/337 759/251/338
f 757/248/336 759/251/338 760/249/339
f 761/231/298 762/233/340 763/250/337
f 761/231/298 763/250/337 764/248/332
f 765/78/104 766/249/341 767/252/342
f 765/78/104 767/252/342 768/82/115
f 769/82/115 770/252/342 771/244/323
f 769/82/115 771/244/323 772/83/343
f 773/252/344 774/253/345 775/247/329
f 773/252/344 775/247/329 776/244/323
f 777/249/346 778/251/347 779/253/348
f 777/249/346 779/253/348 780/252/349
f 781/29/36 782/235/303 783/254/350
f 781/29/36 783/254/350 784/27/34
f 785/27/34 786/254/350 787/202/261
f 785/27/34 787/202/261 788/24/31
f 789/254/350 790/255/351 791/207/267
f 789/254/350 791/207/267 792/202/261
f 793/235/303 794/237/305 795/255/351
f 793/235/303 795/255/351 796/254/350
f 797/256/352 798/257/353 799/258/354
f 797/256/352 799/258/354 800/259/355
f 801/259/356 802/258/354 803/260/357
f 801/259/356 803/260/357 804/261/358
f 805/258/354 806/182/236 807/136/178
f 805/258/354 807/136/178 808/260/357
f 809/257/353 810/21/28 811/182/236
f 809/257/353 811/182/236 812/258/354
f 813/262/359 814/263/360 815/264/361
f 813/262/359 815/264/361 816/265/362
f 817/265/362 818/264/361 819/266/363
f 817/265/362 819/266/363 820/267/364
f 821/264/361 822/179/233 823/168/222
f 821/264/361 823/168/222 824/266/363
f 825/263/360 826/89/124 827/179/233
f 825/263/360 827/179/233 828/264/361
f 829/268/365 830/269/366 831/270/367
f 829/268/365 831/270/367 832/271/368
f 833/271/368 834/270/367 835/272/369
f 833/271/368 835/272/369 836/273/370
f 837/270/367 838/175/229 839/118/155
f 837/270/367 839/118/155 840/272/371
f 841/269/366 842/165/219 843/175/229
f 841/269/366 843/175/229 844/270/367
f 845/267/372 846/266/363 847/274/373
f 845/267/372 847/274/373 848/275/374
f 849/275/374 850/274/373 851/276/375
f 849/275/374 851/276/375 852/277/376
f 853/274/373 854/171/225 855/160/214
f 853/274/373 855/160/214 856/276/375
f 857/266/363 858/168/222 859/171/225
f 857/266/363 859/171/225 860/274/373
f 861/277/376 862/276/375 863/278/377
f 861/277/376 863/278/377 864/279/378
f 865/279/378 866/278/377 867/269/366
f 865/279/378 867/269/366 868/268/365
f 869/278/377 870/163/217 871/165/219
f 869/278/377 871/165/219 872/269/366
f 873/276/375 874/160/214 875/163/217
f 873/276/375 875/163/217 876/278/377
f 877/280/379 878/281/380 879/282/381
f 877/280/379 879/282/381 880/283/382
f 881/283/382 882/282/381 883/284/383
f 881/283/382 883/284/383 884/285/384
f 885/282/381 886/158/209 887/144/385
f 885/282/381 887/144/385 888/284/386
f 889/281/387 890/153/200 891/158/209
f 889/281/387 891/158/209 892/282/381
f 893/286/388 894/287/389 895/288/390
f 893/286/388 895/288/390 896/289/391
f 897/289/392 898/288/393 899/281/380
f 897/289/392 899/281/380 900/280/394
f 901/288/393 902/151/395 903/153/396
f 901/288/393 903/153/396 904/281/380
f 905/287/397 906/141/184 907/151/395
f 905/287/397 907/151/395 908/288/390
f 909/285/384 910/284/383 911/290/398
f 909/285/384 911/290/398 912/291/399
f 913/291/399 914/290/400 915/292/401
f 913/291/399 915/292/401 916/293/402
f 917/290/398 918/147/403 919/108/144
f 917/290/398 919/108/144 920/292/404
f 921/284/386 922/144/385 923/147/403
f 921/284/386 923/147/403 924/290/398
f 925/261/358 926/260/357 927/294/405
f 925/261/358 927/294/405 928/295/406
f 929/295/407 930/294/405 931/287/389
f 929/295/407 931/287/389 932/286/408
f 933/294/405 934/139/409 935/141/184
f 933/294/405 935/141/184 936/287/389
f 937/260/357 938/136/178 939/139/409
f 937/260/357 939/139/409 940/294/405
f 941/296/410 942/297/411 943/298/412
f 941/296/410 943/298/412 944/299/413
f 945/299/413 946/298/412 947/300/414
f 945/299/413 947/300/414 948/301/415
f 949/298/412 950/134/174 951/16/175
f 949/298/412 951/16/175 952/300/414
f 953/297/411 954/129/167 955/134/173
f 953/297/411 955/134/173 956/298/412
f 957/302/416 958/303/417 959/304/418
f 957/302/416 959/304/418 960/305/419
f 961/305/419 962/304/418 963/297/411
f 961/305/419 963/297/411 964/296/410
f 965/304/418 966/127/165 967/129/167
f 965/304/418 967/129/167 968/297/411
f 969/303/417 970/123/160 971/127/165
f 969/303/417 971/127/165 972/304/418
f 973/273/370 974/272/369 975/306/420
f 973/273/370 975/306/420 976/307/421
f 977/307/421 978/306/420 979/303/417
f 977/307/421 979/303/417 980/302/416
f 981/306/420 982/121/158 983/123/160
f 981/306/420 983/123/160 984/303/417
f 985/272/369 986/118/155 987/121/158
f 985/272/369 987/121/158 988/306/420
f 989/308/422 990/309/423 991/310/424
f 989/308/422 991/310/424 992/311/425
f 993/311/425 994/310/426 995/312/427
f 993/311/425 995/312/427 996/313/428
f 997/310/424 998/115/429 999/93/128
f 997/310/424 999/93/128 1000/312/427
f 1001/309/430 1002/104/140 1003/115/431
f 1001/309/430 1003/115/431 1004/310/424
f 1005/293/402 1006/292/401 1007/314/432
f 1005/293/402 1007/314/432 1008/315/433
f 1009/315/433 1010/314/434 1011/316/435
f 1009/315/433 1011/316/435 1012/317/436
f 1013/314/434 1014/111/148 1015/99/437
f 1013/314/434 1015/99/437 1016/316/435
f 1017/292/438 1018/108/144 1019/111/148
f 1017/292/438 1019/111/148 1020/314/439
f 1021/317/436 1022/316/435 1023/318/440
f 1021/317/436 1023/318/440 1024/319/441
f 1025/319/441 1026/318/440 1027/309/442
f 1025/319/441 1027/309/442 1028/308/422
f 1029/318/440 1030/102/138 1031/104/140
f 1029/318/440 1031/104/140 1032/309/423
f 1033/316/435 1034/99/134 1035/102/443
f 1033/316/435 1035/102/443 1036/318/440
f 1037/313/428 1038/312/427 1039/320/444
f 1037/313/428 1039/320/444 1040/321/445
f 1041/321/445 1042/320/444 1043/322/446
f 1041/321/445 1043/322/446 1044/323/447
f 1045/320/444 1046/96/131 1047/84/119
f 1045/320/444 1047/84/119 1048/322/446
f 1049/312/427 1050/93/128 1051/96/131
f 1049/312/427 1051/96/131 1052/320/444
f 1053/323/447 1054/322/446 1055/324/448
f 1053/323/447 1055/324/448 1056/325/449
f 1057/325/449 1058/324/448 1059/263/360
f 1057/325/449 1059/263/360 1060/262/359
f 1061/324/448 1062/87/122 1063/89/124
f 1061/324/448 1063/89/124 1064/263/360
f 1065/322/446 1066/84/119 1067/87/122
f 1065/322/446 1067/87/122 1068/324/448
f 1069/301/415 1070/300/414 1071/326/450
f 1069/301/415 1071/326/450 1072/327/451
f 1073/327/451 1074/326/450 1075/257/353
f 1073/327/451 1075/257/353 1076/256/352
f 1077/326/450 1078/19/452 1079/21/28
f 1077/326/450 1079/21/28 1080/257/353
f 1081/300/414 1082/16/175 1083/19/26
f 1081/300/414 1083/19/26 1084/326/450
f 1085/211/271 1086/328/453 1087/329/454
f 1085/211/271 1087/329/454 1088/210/270
f 1089/210/270 1090/329/454 1091/330/455
f 1089/210/270 1091/330/455 1092/189/244
f 1093/329/454 1094/327/451 1095/256/352
f 1093/329/454 1095/256/352 1096/330/455
f 1097/328/453 1098/301/415 1099/327/451
f 1097/328/453 1099/327/451 1100/329/454
f 1101/215/275 1102/331/456 1103/332/457
f 1101/215/275 1103/332/457 1104/214/274
f 1105/214/274 1106/332/457 1107/333/458
f 1105/214/274 1107/333/458 1108/195/459
f 1109/332/457 1110/325/449 1111/262/359
f 1109/332/457 1111/262/359 1112/333/458
f 1113/331/456 1114/323/447 1115/325/449
f 1113/331/456 1115/325/449 1116/332/457
f 1117/225/290 1118/334/460 1119/335/461
f 1117/225/290 1119/335/461 1120/224/288
f 1121/224/288 1122/335/461 1123/331/456
f 1121/224/288 1123/331/456 1124/215/275
f 1125/335/461 1126/321/445 1127/323/447
f 1125/335/461 1127/323/447 1128/331/456
f 1129/334/460 1130/313/428 1131/321/445
f 1129/334/460 1131/321/445 1132/335/461
f 1133/220/462 1134/336/463 1135/337/464
f 1133/220/462 1135/337/464 1136/228/293
f 1137/228/293 1138/337/464 1139/338/465
f 1137/228/293 1139/338/465 1140/229/294
f 1141/337/464 1142/319/441 1143/308/422
f 1141/337/464 1143/308/422 1144/338/465
f 1145/336/463 1146/317/436 1147/319/441
f 1145/336/463 1147/319/441 1148/337/464
f 1149/221/283 1150/339/466 1151/340/467
f 1149/221/283 1151/340/467 1152/219/281
f 1153/219/468 1154/340/467 1155/336/463
f 1153/219/468 1155/336/463 1156/220/295
f 1157/340/467 1158/315/433 1159/317/436
f 1157/340/467 1159/317/436 1160/336/463
f 1161/339/466 1162/293/402 1163/315/433
f 1161/339/466 1163/315/433 1164/340/467
f 1165/229/294 1166/338/465 1167/341/469
f 1165/229/294 1167/341/469 1168/239/309
f 1169/239/470 1170/341/469 1171/334/460
f 1169/239/470 1171/334/460 1172/225/290
f 1173/341/469 1174/311/425 1175/313/428
f 1173/341/469 1175/313/428 1176/334/460
f 1177/338/465 1178/308/422 1179/311/425
f 1177/338/465 1179/311/425 1180/341/469
f 1181/206/317 1182/342/471 1183/343/472
f 1181/206/317 1183/343/472 1184/241/315
f 1185/241/315 1186/343/472 1187/344/473
f 1185/241/315 1187/344/473 1188/201/260
f 1189/343/472 1190/307/421 1191/302/416
f 1189/343/472 1191/302/416 1192/344/473
f 1193/342/471 1194/273/370 1195/307/421
f 1193/342/471 1195/307/421 1196/343/472
f 1197/201/260 1198/344/473 1199/345/474
f 1197/201/260 1199/345/474 1200/199/257
f 1201/199/257 1202/345/474 1203/346/475
f 1201/199/257 1203/346/475 1204/200/258
f 1205/345/474 1206/305/419 1207/296/410
f 1205/345/474 1207/296/410 1208/346/476
f 1209/344/473 1210/302/416 1211/305/419
f 1209/344/473 1211/305/419 1212/345/474
f 1213/200/258 1214/346/475 1215/347/477
f 1213/200/258 1215/347/477 1216/243/321
f 1217/243/478 1218/347/479 1219/328/453
f 1217/243/478 1219/328/453 1220/211/271
f 1221/347/479 1222/299/413 1223/301/415
f 1221/347/479 1223/301/415 1224/328/453
f 1225/346/475 1226/296/410 1227/299/413
f 1225/346/475 1227/299/413 1228/347/479
f 1229/188/243 1230/348/480 1231/349/481
f 1229/188/243 1231/349/481 1232/232/300
f 1233/232/300 1234/349/481 1235/350/482
f 1233/232/300 1235/350/482 1236/233/340
f 1237/349/481 1238/295/407 1239/286/408
f 1237/349/481 1239/286/408 1240/350/483
f 1241/348/480 1242/261/358 1243/295/406
f 1241/348/480 1243/295/406 1244/349/481
f 1245/247/484 1246/351/485 1247/352/486
f 1245/247/484 1247/352/486 1248/246/327
f 1249/246/327 1250/352/486 1251/339/466
f 1249/246/327 1251/339/466 1252/221/283
f 1253/352/486 1254/291/399 1255/293/402
f 1253/352/486 1255/293/402 1256/339/466
f 1257/351/485 1258/285/384 1259/291/399
f 1257/351/485 1259/291/399 1260/352/486
f 1261/233/340 1262/350/482 1263/353/487
f 1261/233/340 1263/353/487 1264/250/337
f 1265/250/337 1266/353/487 1267/354/488
f 1265/250/337 1267/354/488 1268/251/347
f 1269/353/487 1270/289/392 1271/280/394
f 1269/353/487 1271/280/394 1272/354/488
f 1273/350/482 1274/286/388 1275/289/392
f 1273/350/482 1275/289/392 1276/353/489
f 1277/251/347 1278/354/488 1279/355/490
f 1277/251/347 1279/355/490 1280/253/345
f 1281/253/345 1282/355/491 1283/351/485
f 1281/253/345 1283/351/485 1284/247/492
f 1285/355/493 1286/283/382 1287/285/384
f 1285/355/493 1287/285/384 1288/351/485
f 1289/354/488 1290/280/394 1291/283/382
f 1289/354/488 1291/283/382 1292/355/493
f 1293/237/305 1294/356/494 1295/357/495
f 1293/237/305 1295/357/495 1296/255/351
f 1297/255/351 1298/357/495 1299/358/496
f 1297/255/351 1299/358/496 1300/207/267
f 1301/357/495 1302/279/378 1303/268/365
f 1301/357/495 1303/268/365 1304/358/496
f 1305/356/494 1306/277/376 1307/279/378
f 1305/356/494 1307/279/378 1308/357/495
f 1309/194/249 1310/359/497 1311/360/498
f 1309/194/249 1311/360/498 1312/236/304
f 1313/236/304 1314/360/498 1315/356/494
f 1313/236/304 1315/356/494 1316/237/305
f 1317/360/498 1318/275/374 1319/277/376
f 1317/360/498 1319/277/376 1320/356/494
f 1321/359/497 1322/267/372 1323/275/374
f 1321/359/497 1323/275/374 1324/360/498
f 1325/207/267 1326/358/496 1327/361/499
f 1325/207/267 1327/361/499 1328/205/265
f 1329/205/265 1330/361/499 1331/342/471
f 1329/205/265 1331/342/471 1332/206/317
f 1333/361/499 1334/271/368 1335/273/370
f 1333/361/499 1335/273/370 1336/342/471
f 1337/358/496 1338/268/365 1339/271/368
f 1337/358/496 1339/271/368 1340/361/499
f 1341/195/459 1342/333/458 1343/362/500
f 1341/195/459 1343/362/500 1344/193/251
f 1345/193/248 1346/362/501 1347/359/497
f 1345/193/248 1347/359/497 1348/194/249
f 1349/362/500 1350/265/362 1351/267/364
f 1349/362/500 1351/267/364 1352/359/497
f 1353/333/458 1354/262/359 1355/265/362
f 1353/333/458 1355/265/362 1356/362/500
f 1357/189/244 1358/330/455 1359/363/502
f 1357/189/244 1359/363/502 1360/187/242
f 1361/187/242 1362/363/503 1363/348/480
f 1361/187/242 1363/348/480 1364/188/243
f 1365/363/504 1366/259/356 1367/261/358
f 1365/363/504 1367/261/358 1368/348/480
f 1369/330/455 1370/256/352 1371/259/355
f 1369/330/455 1371/259/355 1372/363/504
f 1373/20/27 1374/23/30 1375/183/237
f 1373/20/27 1375/183/237 1376/181/235
