v -0 0.119843 0.325583
v 0 0.115696 0.321273
v -0.940472 0.115696 0.321273
v -0.941471 0.119843 0.325583
v -0.973748 0.140961 -0.316936
v -0.977722 0.136744 -0.319114
v -0.980353 0.136309 -0.305894
v -0.976161 0.14056 -0.304745
v -0.977384 0.041521 -0.305976
v -0.980353 0.048469 -0.308731
v -0.977718 0.048904 -0.32197
v -0.974779 0.041985 -0.319251
v -0.967034 0.141291 -0.326989
v -0.970229 0.137112 -0.330322
v -0.977722 0.136744 -0.319114
v -0.973748 0.140961 -0.316936
v -0.974779 0.041985 -0.319251
v -0.977718 0.048904 -0.32197
v -0.970214 0.049273 -0.333194
v -0.967285 0.042365 -0.330491
v -0.956977 0.141512 -0.333698
v -0.959015 0.137358 -0.337811
v -0.970229 0.137112 -0.330322
v -0.967034 0.141291 -0.326989
v -0.967285 0.042365 -0.330491
v -0.970214 0.049273 -0.333194
v -0.958984 0.04952 -0.340694
v -0.956039 0.0426 -0.337981
v -0.944778 0.141591 -0.336111
v -0.945787 0.137445 -0.340441
v -0.959015 0.137358 -0.337811
v -0.956977 0.141512 -0.333698
v -0.956039 0.0426 -0.337981
v -0.958984 0.04952 -0.340694
v -0.945737 0.049606 -0.343328
v -0.942756 0.042659 -0.340585
v -0.974779 0.02111 0.315912
v -0.977718 0.027835 0.319084
v -0.980353 0.02827 0.305844
v -0.977384 0.021519 0.302633
v -0.976161 0.120424 0.307913
v -0.980353 0.116107 0.308781
v -0.977722 0.115672 0.322001
v -0.973748 0.120023 0.320105
v -0.967283 0.020751 0.327155
v -0.970214 0.027466 0.330308
v -0.977718 0.027835 0.319084
v -0.974779 0.02111 0.315912
v -0.973748 0.120023 0.320105
v -0.977722 0.115672 0.322001
v -0.970229 0.115304 0.333209
v -0.967034 0.119693 0.330157
v -0.956035 0.020494 0.334646
v -0.958984 0.02722 0.337807
v -0.970214 0.027466 0.330308
v -0.967283 0.020751 0.327155
v -0.967034 0.119693 0.330157
v -0.970229 0.115304 0.333209
v -0.959015 0.115058 0.340698
v -0.956977 0.119473 0.336867
v -0.942749 0.020381 0.337248
v -0.945737 0.027133 0.340441
v -0.958984 0.02722 0.337807
v -0.956035 0.020494 0.334646
v -0.956977 0.119473 0.336867
v -0.959015 0.115058 0.340698
v -0.945787 0.114972 0.343328
v -0.944778 0.119393 0.339279
v -0.917663 3e-05 0.307773
v -0.921117 0.002536 0.315129
v -0.934303 0.002514 0.312366
v -0.929577 3e-05 0.305306
v -0.929577 3e-05 0.305306
v -0.934303 0.002514 0.312366
v -0.94532 0.002511 0.304569
v -0.939155 3e-05 0.298535
v -0.939155 3e-05 0.298535
v -0.94532 0.002511 0.304569
v -0.952498 0.00253 0.292931
v -0.945408 3e-05 0.288343
v -0.945408 3e-05 0.288343
v -0.952498 0.00253 0.292931
v -0.954742 0.002569 0.279224
v -0.947407 2.9e-05 0.275826
v -0.909996 1.1e-05 -0.290859
v -0.914515 0.002604 -0.29775
v -0.901164 0.002637 -0.30035
v -0.897805 1.1e-05 -0.293193
v -0.920132 1.1e-05 -0.284434
v -0.926012 0.002587 -0.29043
v -0.914515 0.002604 -0.29775
v -0.909996 1.1e-05 -0.290859
v -0.927045 1.2e-05 -0.274863
v -0.933907 0.002589 -0.279506
v -0.926012 0.002587 -0.29043
v -0.920132 1.1e-05 -0.284434
v -0.929816 1.2e-05 -0.263219
v -0.936991 0.002605 -0.266633
v -0.933907 0.002589 -0.279506
v -0.927045 1.2e-05 -0.274863
v -0.940472 0.13672 -0.318386
v -0.941471 0.141141 -0.322414
v -0.950574 0.141102 -0.321232
v -0.948516 0.136686 -0.317356
v -0.948516 0.136686 -0.317356
v -0.950574 0.141102 -0.321232
v -0.957349 0.140973 -0.317309
v -0.954055 0.136581 -0.314157
v -0.954055 0.136581 -0.314157
v -0.957349 0.140973 -0.317309
v -0.961274 0.14075 -0.310538
v -0.957256 0.136399 -0.308621
v -0.957256 0.136399 -0.308621
v -0.961274 0.14075 -0.310538
v -0.962457 0.140451 -0.301439
v -0.958286 0.136135 -0.300581
v -0.948516 0.11573 0.320243
v -0.950574 0.119882 0.3244
v -0.941471 0.119843 0.325583
v -0.940472 0.115696 0.321273
v -0.954055 0.115835 0.317044
v -0.957349 0.120011 0.320477
v -0.950574 0.119882 0.3244
v -0.948516 0.11573 0.320243
v -0.957256 0.116017 0.311508
v -0.961274 0.120234 0.313706
v -0.957349 0.120011 0.320477
v -0.954055 0.115835 0.317044
v -0.958286 0.116282 0.303468
v -0.962457 0.120533 0.304608
v -0.961274 0.120234 0.313706
v -0.957256 0.116017 0.311508
v -0.962469 0.135251 -0.143221
v -0.958286 0.130899 -0.141292
v -0.958286 0.136135 -0.300581
v -0.962457 0.140451 -0.301439
v -0 0.141591 -0.336111
v 0 0.137445 -0.340441
v -0.945787 0.137445 -0.340441
v -0.944778 0.141591 -0.336111
v -0.980353 0.131259 -0.152225
v -0.976151 0.135474 -0.150003
v -0.976161 0.14056 -0.304745
v -0.980353 0.136309 -0.305894
v -0.934207 1.6e-05 -0.128679
v -0.941441 0.002621 -0.130692
v -0.936991 0.002605 -0.266633
v -0.929816 1.2e-05 -0.263219
v -0.980353 0.03332 0.1522
v -0.977355 0.026475 0.151067
v -0.977384 0.021519 0.302633
v -0.980353 0.02827 0.305844
v -0 0.049606 -0.343328
v 0 0.042659 -0.340585
v -0.942756 0.042659 -0.340585
v -0.945737 0.049606 -0.343328
v -0.962469 0.125733 0.14639
v -0.958286 0.121517 0.144179
v -0.958286 0.126208 0.001443
v -0.962473 0.130492 0.001584
v -0.980353 0.121158 0.155112
v -0.976151 0.12551 0.153172
v -0.976148 0.130492 0.001584
v -0.980353 0.126208 0.001443
v -0.943016 2.5e-05 0.141265
v -0.950313 0.002603 0.142109
v -0.94588 0.00262 0.005524
v -0.938611 2.1e-05 0.006293
v -0.980353 0.043419 -0.155087
v -0.977355 0.03648 -0.153335
v -0.977345 0.031464 -0.000963
v -0.980353 0.03837 -0.001443
v -0 0.020381 0.337248
v 0 0.027133 0.340441
v -0.945737 0.027133 0.340441
v -0.942749 0.020381 0.337248
v -0 0.13672 -0.318386
v 0 0.141141 -0.322414
v -0.941471 0.141141 -0.322414
v -0.940472 0.13672 -0.318386
v -0 0.114972 0.343328
v -0.945787 0.114972 0.343328
v -0.945737 0.027133 0.340441
v 0 0.027133 0.340441
v 0 0.002536 0.315129
v -0 0.020381 0.337248
v -0.942749 0.020381 0.337248
v -0.921117 0.002536 0.315129
v 0 0.002536 0.315129
v 0 3e-05 0.307773
v 0.917663 3e-05 0.307773
v 0.921117 0.002536 0.315129
v 0 1.1e-05 -0.293193
v 0 0.002637 -0.30035
v 0.901164 0.002637 -0.30035
v 0.897805 1.1e-05 -0.293193
v 0.898795 1.2e-05 -0.263219
v 0.897805 1.1e-05 -0.293193
v 0.909996 1.1e-05 -0.290859
v 0.920132 1.1e-05 -0.284434
v 0.927045 1.2e-05 -0.274863
v 0.929816 1.2e-05 -0.263219
v 0 0.137445 -0.340441
v -0 0.049606 -0.343328
v -0.945737 0.049606 -0.343328
v -0.945787 0.137445 -0.340441
v 0 2.9e-05 0.275826
v 0.916608 2.9e-05 0.275826
v 0.917663 3e-05 0.307773
v 0 3e-05 0.307773
v 0 0.002637 -0.30035
v -0.901164 0.002637 -0.30035
v -0.942756 0.042659 -0.340585
v 0 0.042659 -0.340585
v -0.980353 0.03837 -0.001443
v -0.977345 0.031464 -0.000963
v -0.977355 0.026475 0.151067
v -0.980353 0.03332 0.1522
v -0.962457 0.120533 0.304608
v -0.958286 0.116282 0.303468
v -0.958286 0.121517 0.144179
v -0.962469 0.125733 0.14639
v -0.980353 0.116107 0.308781
v -0.976161 0.120424 0.307913
v -0.976151 0.12551 0.153172
v -0.980353 0.121158 0.155112
v -0.947407 2.9e-05 0.275826
v -0.954742 0.002569 0.279224
v -0.950313 0.002603 0.142109
v -0.943016 2.5e-05 0.141265
v -0.962473 0.130492 0.001584
v -0.958286 0.126208 0.001443
v -0.958286 0.130899 -0.141292
v -0.962469 0.135251 -0.143221
v -0.980353 0.126208 0.001443
v -0.976148 0.130492 0.001584
v -0.976151 0.135474 -0.150003
v -0.980353 0.131259 -0.152225
v -0.938611 2.1e-05 0.006293
v -0.94588 0.00262 0.005524
v -0.941441 0.002621 -0.130692
v -0.934207 1.6e-05 -0.128679
v -0.980353 0.048469 -0.308731
v -0.977384 0.041521 -0.305976
v -0.977355 0.03648 -0.153335
v -0.980353 0.043419 -0.155087
v 0.977722 0.136744 -0.319114
v 0.973748 0.140961 -0.316936
v 0.976161 0.14056 -0.304745
v 0.980353 0.136309 -0.305894
v 0.980353 0.048469 -0.308731
v 0.977384 0.041521 -0.305976
v 0.974779 0.041985 -0.319251
v 0.977718 0.048904 -0.32197
v 0.970229 0.137112 -0.330322
v 0.967034 0.141291 -0.326989
v 0.973748 0.140961 -0.316936
v 0.977722 0.136744 -0.319114
v 0.977718 0.048904 -0.32197
v 0.974779 0.041985 -0.319251
v 0.967285 0.042365 -0.330491
v 0.970214 0.049273 -0.333194
v 0.959015 0.137358 -0.337811
v 0.956977 0.141512 -0.333698
v 0.967034 0.141291 -0.326989
v 0.970229 0.137112 -0.330322
v 0.970214 0.049273 -0.333194
v 0.967285 0.042365 -0.330491
v 0.956039 0.0426 -0.337981
v 0.958984 0.04952 -0.340694
v 0.945787 0.137445 -0.340441
v 0.944778 0.141591 -0.336111
v 0.956977 0.141512 -0.333698
v 0.959015 0.137358 -0.337811
v 0.958984 0.04952 -0.340694
v 0.956039 0.0426 -0.337981
v 0.942756 0.042659 -0.340585
v 0.945737 0.049606 -0.343328
v 0.977718 0.027835 0.319084
v 0.974779 0.02111 0.315912
v 0.977384 0.021519 0.302633
v 0.980353 0.02827 0.305844
v 0.980353 0.116107 0.308781
v 0.976161 0.120424 0.307913
v 0.973748 0.120023 0.320105
v 0.977722 0.115672 0.322001
v 0.970214 0.027466 0.330308
v 0.967283 0.020751 0.327155
v 0.974779 0.02111 0.315912
v 0.977718 0.027835 0.319084
v 0.977722 0.115672 0.322001
v 0.973748 0.120023 0.320105
v 0.967034 0.119693 0.330157
v 0.970229 0.115304 0.333209
v 0.958984 0.02722 0.337807
v 0.956035 0.020494 0.334646
v 0.967283 0.020751 0.327155
v 0.970214 0.027466 0.330308
v 0.970229 0.115304 0.333209
v 0.967034 0.119693 0.330157
v 0.956977 0.119473 0.336867
v 0.959015 0.115058 0.340698
v 0.945737 0.027133 0.340441
v 0.942749 0.020381 0.337248
v 0.956035 0.020494 0.334646
v 0.958984 0.02722 0.337807
v 0.959015 0.115058 0.340698
v 0.956977 0.119473 0.336867
v 0.944778 0.119393 0.339279
v 0.945787 0.114972 0.343328
v 0.921117 0.002536 0.315129
v 0.917663 3e-05 0.307773
v 0.929577 3e-05 0.305306
v 0.934303 0.002514 0.312366
v 0.934303 0.002514 0.312366
v 0.929577 3e-05 0.305306
v 0.939155 3e-05 0.298535
v 0.945321 0.002511 0.304569
v 0.945321 0.002511 0.304569
v 0.939155 3e-05 0.298535
v 0.945408 3e-05 0.288343
v 0.952498 0.00253 0.292931
v 0.952498 0.00253 0.292931
v 0.945408 3e-05 0.288343
v 0.947407 2.9e-05 0.275826
v 0.954742 0.002569 0.279224
v 0.914515 0.002604 -0.29775
v 0.909996 1.1e-05 -0.290859
v 0.897805 1.1e-05 -0.293193
v 0.901164 0.002637 -0.30035
v 0.926013 0.002587 -0.29043
v 0.920132 1.1e-05 -0.284434
v 0.909996 1.1e-05 -0.290859
v 0.914515 0.002604 -0.29775
v 0.933907 0.002589 -0.279506
v 0.927045 1.2e-05 -0.274863
v 0.920132 1.1e-05 -0.284434
v 0.926013 0.002587 -0.29043
v 0.936991 0.002605 -0.266633
v 0.929816 1.2e-05 -0.263219
v 0.927045 1.2e-05 -0.274863
v 0.933907 0.002589 -0.279506
v 0.941471 0.141141 -0.322414
v 0.940472 0.13672 -0.318386
v 0.948516 0.136686 -0.317356
v 0.950574 0.141102 -0.321232
v 0.950574 0.141102 -0.321232
v 0.948516 0.136686 -0.317356
v 0.954055 0.136581 -0.314157
v 0.957349 0.140973 -0.317309
v 0.957349 0.140973 -0.317309
v 0.954055 0.136581 -0.314157
v 0.957256 0.136399 -0.308621
v 0.961274 0.14075 -0.310538
v 0.961274 0.14075 -0.310538
v 0.957256 0.136399 -0.308621
v 0.958286 0.136135 -0.300581
v 0.962457 0.140451 -0.301439
v 0.950574 0.119882 0.3244
v 0.948516 0.11573 0.320243
v 0.940472 0.115696 0.321273
v 0.941471 0.119843 0.325583
v 0.957349 0.120011 0.320477
v 0.954055 0.115835 0.317044
v 0.948516 0.11573 0.320243
v 0.950574 0.119882 0.3244
v 0.961274 0.120234 0.313706
v 0.957256 0.116017 0.311508
v 0.954055 0.115835 0.317044
v 0.957349 0.120011 0.320477
v 0.962457 0.120533 0.304608
v 0.958286 0.116282 0.303468
v 0.957256 0.116017 0.311508
v 0.961274 0.120234 0.313706
v 0.958286 0.130899 -0.141292
v 0.962469 0.135251 -0.143221
v 0.962457 0.140451 -0.301439
v 0.958286 0.136135 -0.300581
v 0 1.2e-05 -0.263219
v -0.898795 1.2e-05 -0.263219
v -0.897805 1.1e-05 -0.293193
v 0 1.1e-05 -0.293193
v 0.976151 0.135474 -0.150003
v 0.980353 0.131259 -0.152225
v 0.980353 0.136309 -0.305894
v 0.976161 0.14056 -0.304745
v 0.941441 0.002621 -0.130692
v 0.934207 1.6e-05 -0.128679
v 0.929816 1.2e-05 -0.263219
v 0.936991 0.002605 -0.266633
v 0.977355 0.026475 0.151067
v 0.980353 0.03332 0.1522
v 0.980353 0.02827 0.305844
v 0.977384 0.021519 0.302633
v 0.941471 0.119843 0.325583
v 0.940472 0.115696 0.321273
v 0 0.115696 0.321273
v -0 0.119843 0.325583
v 0.958286 0.121517 0.144179
v 0.962469 0.125733 0.14639
v 0.962473 0.130492 0.001584
v 0.958286 0.126208 0.001443
v 0.976151 0.12551 0.153172
v 0.980353 0.121158 0.155112
v 0.980353 0.126208 0.001443
v 0.976148 0.130492 0.001584
v 0.950313 0.002603 0.142109
v 0.943016 2.5e-05 0.141265
v 0.938611 2.1e-05 0.006293
v 0.94588 0.00262 0.005524
v 0.977355 0.03648 -0.153335
v 0.980353 0.043419 -0.155087
v 0.980353 0.03837 -0.001443
v 0.977345 0.031464 -0.000963
v 0.944778 0.141591 -0.336111
v 0.945787 0.137445 -0.340441
v 0 0.137445 -0.340441
v -0 0.141591 -0.336111
v 0.945737 0.049606 -0.343328
v 0.942756 0.042659 -0.340585
v 0 0.042659 -0.340585
v -0 0.049606 -0.343328
v 0.942749 0.020381 0.337248
v 0.945737 0.027133 0.340441
v 0 0.027133 0.340441
v -0 0.020381 0.337248
v 0.940472 0.13672 -0.318386
v 0.941471 0.141141 -0.322414
v 0 0.141141 -0.322414
v -0 0.13672 -0.318386
v -0 0.114972 0.343328
v 0.945787 0.114972 0.343328
v 0.944778 0.119393 0.339279
v 0 0.119393 0.339279
v -0 0.119843 0.325583
v -0.941471 0.119843 0.325583
v -0.944778 0.119393 0.339279
v 0 0.119393 0.339279
v 0.977345 0.031464 -0.000963
v 0.980353 0.03837 -0.001443
v 0.980353 0.03332 0.1522
v 0.977355 0.026475 0.151067
v 0.958286 0.116282 0.303468
v 0.962457 0.120533 0.304608
v 0.962469 0.125733 0.14639
v 0.958286 0.121517 0.144179
v 0.976161 0.120424 0.307913
v 0.980353 0.116107 0.308781
v 0.980353 0.121158 0.155112
v 0.976151 0.12551 0.153172
v 0.954742 0.002569 0.279224
v 0.947407 2.9e-05 0.275826
v 0.943016 2.5e-05 0.141265
v 0.950313 0.002603 0.142109
v 0.958286 0.126208 0.001443
v 0.962473 0.130492 0.001584
v 0.962469 0.135251 -0.143221
v 0.958286 0.130899 -0.141292
v 0.976148 0.130492 0.001584
v 0.980353 0.126208 0.001443
v 0.980353 0.131259 -0.152225
v 0.976151 0.135474 -0.150003
v 0.94588 0.00262 0.005524
v 0.938611 2.1e-05 0.006293
v 0.934207 1.6e-05 -0.128679
v 0.941441 0.002621 -0.130692
v 0.977384 0.041521 -0.305976
v 0.980353 0.048469 -0.308731
v 0.980353 0.043419 -0.155087
v 0.977355 0.03648 -0.153335
v -0.957263 0.042605 0.309165
v -0.958286 0.042867 0.301183
v -0.958286 0.116282 0.303468
v -0.957256 0.116017 0.311508
v -0.958286 0.116282 0.303468
v -0.958286 0.042867 0.301183
v -0.958286 0.048105 0.14183
v -0.958286 0.121517 0.144179
v -0.961274 0.120234 0.313706
v -0.962457 0.120533 0.304608
v -0.976161 0.120424 0.307913
v -0.973748 0.120023 0.320105
v -0.962469 0.125733 0.14639
v -0.976151 0.12551 0.153172
v -0.976161 0.120424 0.307913
v -0.962457 0.120533 0.304608
v -0.940599 0.042286 0.31886
v -0.948586 0.04232 0.317838
v -0.948516 0.11573 0.320243
v -0.940472 0.115696 0.321273
v -0.941471 0.119843 0.325583
v -0.950574 0.119882 0.3244
v -0.956977 0.119473 0.336867
v -0.944778 0.119393 0.339279
v 0.945787 0.137445 -0.340441
v 0.945737 0.049606 -0.343328
v -0 0.049606 -0.343328
v 0 0.137445 -0.340441
v -0.954085 0.042424 0.314662
v -0.957263 0.042605 0.309165
v -0.957256 0.116017 0.311508
v -0.954055 0.115835 0.317044
v -0.957349 0.120011 0.320477
v -0.961274 0.120234 0.313706
v -0.973748 0.120023 0.320105
v -0.967034 0.119693 0.330157
v -0.948586 0.04232 0.317838
v -0.954085 0.042424 0.314662
v -0.954055 0.115835 0.317044
v -0.948516 0.11573 0.320243
v -0.950574 0.119882 0.3244
v -0.957349 0.120011 0.320477
v -0.967034 0.119693 0.330157
v -0.956977 0.119473 0.336867
v -0.944778 0.141591 -0.336111
v -0.956977 0.141512 -0.333698
v -0.950574 0.141102 -0.321232
v -0.941471 0.141141 -0.322414
v -0.940472 0.13672 -0.318386
v -0.948516 0.136686 -0.317356
v -0.948586 0.063276 -0.319776
v -0.940599 0.06331 -0.320798
v 0.945787 0.114972 0.343328
v -0 0.114972 0.343328
v 0 0.027133 0.340441
v 0.945737 0.027133 0.340441
v -0.957256 0.136399 -0.308621
v -0.958286 0.136135 -0.300581
v -0.958286 0.062729 -0.303121
v -0.957263 0.062991 -0.311103
v -0.973748 0.140961 -0.316936
v -0.976161 0.14056 -0.304745
v -0.962457 0.140451 -0.301439
v -0.961274 0.14075 -0.310538
v -0.958286 0.130899 -0.141292
v -0.958286 0.057491 -0.143769
v -0.958286 0.062729 -0.303121
v -0.958286 0.136135 -0.300581
v -0.962457 0.140451 -0.301439
v -0.976161 0.14056 -0.304745
v -0.976151 0.135474 -0.150003
v -0.962469 0.135251 -0.143221
v -0.956977 0.141512 -0.333698
v -0.967034 0.141291 -0.326989
v -0.957349 0.140973 -0.317309
v -0.950574 0.141102 -0.321232
v -0.948516 0.136686 -0.317356
v -0.954055 0.136581 -0.314157
v -0.954085 0.063172 -0.3166
v -0.948586 0.063276 -0.319776
v -0.967034 0.141291 -0.326989
v -0.973748 0.140961 -0.316936
v -0.961274 0.14075 -0.310538
v -0.957349 0.140973 -0.317309
v -0.954055 0.136581 -0.314157
v -0.957256 0.136399 -0.308621
v -0.957263 0.062991 -0.311103
v -0.954085 0.063172 -0.3166
v -0.942749 0.020381 0.337248
v -0.956035 0.020494 0.334646
v -0.934303 0.002514 0.312366
v -0.921117 0.002536 0.315129
v 0 0.141141 -0.322414
v -0 0.141591 -0.336111
v -0.944778 0.141591 -0.336111
v -0.941471 0.141141 -0.322414
v -0.958984 0.02722 0.337807
v -0.945737 0.027133 0.340441
v -0.945787 0.114972 0.343328
v -0.959015 0.115058 0.340698
v -0.974779 0.02111 0.315912
v -0.977384 0.021519 0.302633
v -0.954742 0.002569 0.279224
v -0.952498 0.00253 0.292931
v -0.980353 0.02827 0.305844
v -0.977718 0.027835 0.319084
v -0.977722 0.115672 0.322001
v -0.980353 0.116107 0.308781
v -0.954742 0.002569 0.279224
v -0.977384 0.021519 0.302633
v -0.977355 0.026475 0.151067
v -0.950313 0.002603 0.142109
v -0.980353 0.121158 0.155112
v -0.980353 0.03332 0.1522
v -0.980353 0.02827 0.305844
v -0.980353 0.116107 0.308781
v -0.956035 0.020494 0.334646
v -0.967283 0.020751 0.327155
v -0.94532 0.002511 0.304569
v -0.934303 0.002514 0.312366
v -0.970214 0.027466 0.330308
v -0.958984 0.02722 0.337807
v -0.959015 0.115058 0.340698
v -0.970229 0.115304 0.333209
v -0.967283 0.020751 0.327155
v -0.974779 0.02111 0.315912
v -0.952498 0.00253 0.292931
v -0.94532 0.002511 0.304569
v -0.977718 0.027835 0.319084
v -0.970214 0.027466 0.330308
v -0.970229 0.115304 0.333209
v -0.977722 0.115672 0.322001
v -0.980353 0.136309 -0.305894
v -0.980353 0.048469 -0.308731
v -0.980353 0.043419 -0.155087
v -0.980353 0.131259 -0.152225
v -0.980353 0.136309 -0.305894
v -0.977722 0.136744 -0.319114
v -0.977718 0.048904 -0.32197
v -0.980353 0.048469 -0.308731
v -0.933907 0.002589 -0.279506
v -0.936991 0.002605 -0.266633
v -0.977384 0.041521 -0.305976
v -0.974779 0.041985 -0.319251
v -0.941441 0.002621 -0.130692
v -0.977355 0.03648 -0.153335
v -0.977384 0.041521 -0.305976
v -0.936991 0.002605 -0.266633
v -0.901164 0.002637 -0.30035
v -0.914515 0.002604 -0.29775
v -0.956039 0.0426 -0.337981
v -0.942756 0.042659 -0.340585
v -0.959015 0.137358 -0.337811
v -0.945787 0.137445 -0.340441
v -0.945737 0.049606 -0.343328
v -0.958984 0.04952 -0.340694
v 0.921117 0.002536 0.315129
v 0.942749 0.020381 0.337248
v -0 0.020381 0.337248
v 0 0.002536 0.315129
v -0 0.13672 -0.318386
v -0.940472 0.13672 -0.318386
v -0.940599 0.06331 -0.320798
v 0 0.06331 -0.320798
v -0.977722 0.136744 -0.319114
v -0.970229 0.137112 -0.330322
v -0.970214 0.049273 -0.333194
v -0.977718 0.048904 -0.32197
v -0.926012 0.002587 -0.29043
v -0.933907 0.002589 -0.279506
v -0.974779 0.041985 -0.319251
v -0.967285 0.042365 -0.330491
v -0.970229 0.137112 -0.330322
v -0.959015 0.137358 -0.337811
v -0.958984 0.04952 -0.340694
v -0.970214 0.049273 -0.333194
v -0.914515 0.002604 -0.29775
v -0.926012 0.002587 -0.29043
v -0.967285 0.042365 -0.330491
v -0.956039 0.0426 -0.337981
v 0 0.042286 0.31886
v -0.940599 0.042286 0.31886
v -0.940472 0.115696 0.321273
v 0 0.115696 0.321273
v -0.962473 0.130492 0.001584
v -0.976148 0.130492 0.001584
v -0.976151 0.12551 0.153172
v -0.962469 0.125733 0.14639
v -0.962469 0.135251 -0.143221
v -0.976151 0.135474 -0.150003
v -0.976148 0.130492 0.001584
v -0.962473 0.130492 0.001584
v -0.958286 0.121517 0.144179
v -0.958286 0.048105 0.14183
v -0.958286 0.052798 -0.000969
v -0.958286 0.126208 0.001443
v -0.958286 0.126208 0.001443
v -0.958286 0.052798 -0.000969
v -0.958286 0.057491 -0.143769
v -0.958286 0.130899 -0.141292
v -0.980353 0.126208 0.001443
v -0.980353 0.03837 -0.001443
v -0.980353 0.03332 0.1522
v -0.980353 0.121158 0.155112
v -0.980353 0.131259 -0.152225
v -0.980353 0.043419 -0.155087
v -0.980353 0.03837 -0.001443
v -0.980353 0.126208 0.001443
v -0.950313 0.002603 0.142109
v -0.977355 0.026475 0.151067
v -0.977345 0.031464 -0.000963
v -0.94588 0.00262 0.005524
v -0.94588 0.00262 0.005524
v -0.977345 0.031464 -0.000963
v -0.977355 0.03648 -0.153335
v -0.941441 0.002621 -0.130692
v -0.916607 2.9e-05 0.275826
v 0 2.9e-05 0.275826
v 0 3e-05 0.307773
v -0.917663 3e-05 0.307773
v 0.901164 0.002637 -0.30035
v 0 0.002637 -0.30035
v 0 0.042659 -0.340585
v 0.942756 0.042659 -0.340585
v 0.898795 1.2e-05 -0.263219
v 0 1.2e-05 -0.263219
v 0 1.1e-05 -0.293193
v 0.897805 1.1e-05 -0.293193
v -0.945787 0.114972 0.343328
v -0 0.114972 0.343328
v 0 0.119393 0.339279
v -0.944778 0.119393 0.339279
v 0 1.2e-05 -0.263219
v 0.898795 1.2e-05 -0.263219
v 0.916608 2.9e-05 0.275826
v 0 2.9e-05 0.275826
v 0.941471 0.119843 0.325583
v -0 0.119843 0.325583
v 0 0.119393 0.339279
v 0.944778 0.119393 0.339279
v 0.941471 0.141141 -0.322414
v 0.944778 0.141591 -0.336111
v -0 0.141591 -0.336111
v 0 0.141141 -0.322414
v 0.940472 0.13672 -0.318386
v -0 0.13672 -0.318386
v 0 0.06331 -0.320798
v 0.940599 0.06331 -0.320798
v 0.940599 0.042286 0.31886
v 0.948586 0.04232 0.317838
v 0.954085 0.042424 0.314662
v 0.957263 0.042605 0.309165
v 0.958286 0.042867 0.301183
v 0.958286 0.048105 0.14183
v 0.958286 0.052798 -0.000969
v 0.958286 0.057491 -0.143769
v 0.958286 0.062729 -0.303121
v 0.957263 0.062991 -0.311103
v 0.954085 0.063172 -0.3166
v 0.948586 0.063276 -0.319776
v 0.940599 0.06331 -0.320798
v 0 0.06331 -0.320798
v 0 0.042286 0.31886
v 0.957263 0.042605 0.309165
v 0.957256 0.116017 0.311508
v 0.958286 0.116282 0.303468
v 0.958286 0.042867 0.301183
v 0.961274 0.120234 0.313706
v 0.973748 0.120023 0.320105
v 0.976161 0.120424 0.307913
v 0.962457 0.120533 0.304608
v 0.958286 0.116282 0.303468
v 0.958286 0.121517 0.144179
v 0.958286 0.048105 0.14183
v 0.958286 0.042867 0.301183
v 0.962469 0.125733 0.14639
v 0.962457 0.120533 0.304608
v 0.976161 0.120424 0.307913
v 0.976151 0.12551 0.153172
v 0.940599 0.042286 0.31886
v 0.940472 0.115696 0.321273
v 0.948516 0.11573 0.320243
v 0.948586 0.04232 0.317838
v 0.941471 0.119843 0.325583
v 0.944778 0.119393 0.339279
v 0.956977 0.119473 0.336867
v 0.950574 0.119882 0.3244
v 0.954085 0.042424 0.314662
v 0.954055 0.115835 0.317044
v 0.957256 0.116017 0.311508
v 0.957263 0.042605 0.309165
v 0.957349 0.120011 0.320477
v 0.967034 0.119693 0.330157
v 0.973748 0.120023 0.320105
v 0.961274 0.120234 0.313706
v 0.948586 0.04232 0.317838
v 0.948516 0.11573 0.320243
v 0.954055 0.115835 0.317044
v 0.954085 0.042424 0.314662
v 0.950574 0.119882 0.3244
v 0.956977 0.119473 0.336867
v 0.967034 0.119693 0.330157
v 0.957349 0.120011 0.320477
v 0.944778 0.141591 -0.336111
v 0.941471 0.141141 -0.322414
v 0.950574 0.141102 -0.321232
v 0.956977 0.141512 -0.333698
v 0.940472 0.13672 -0.318386
v 0.940599 0.06331 -0.320798
v 0.948586 0.063276 -0.319776
v 0.948516 0.136686 -0.317356
v 0.957256 0.136399 -0.308621
v 0.957263 0.062991 -0.311103
v 0.958286 0.062729 -0.303121
v 0.958286 0.136135 -0.300581
v 0.958286 0.130899 -0.141292
v 0.958286 0.136135 -0.300581
v 0.958286 0.062729 -0.303121
v 0.958286 0.057491 -0.143769
v 0.973748 0.140961 -0.316936
v 0.961274 0.14075 -0.310538
v 0.962457 0.140451 -0.301439
v 0.976161 0.14056 -0.304745
v 0.962457 0.140451 -0.301439
v 0.962469 0.135251 -0.143221
v 0.976151 0.135474 -0.150003
v 0.976161 0.14056 -0.304745
v 0.956977 0.141512 -0.333698
v 0.950574 0.141102 -0.321232
v 0.957349 0.140973 -0.317309
v 0.967034 0.141291 -0.326989
v 0.948516 0.136686 -0.317356
v 0.948586 0.063276 -0.319776
v 0.954085 0.063172 -0.3166
v 0.954055 0.136581 -0.314157
v 0.967034 0.141291 -0.326989
v 0.957349 0.140973 -0.317309
v 0.961274 0.14075 -0.310538
v 0.973748 0.140961 -0.316936
v 0.954055 0.136581 -0.314157
v 0.954085 0.063172 -0.3166
v 0.957263 0.062991 -0.311103
v 0.957256 0.136399 -0.308621
v 0.942749 0.020381 0.337248
v 0.921117 0.002536 0.315129
v 0.934303 0.002514 0.312366
v 0.956035 0.020494 0.334646
v 0.958984 0.02722 0.337807
v 0.959015 0.115058 0.340698
v 0.945787 0.114972 0.343328
v 0.945737 0.027133 0.340441
v 0.974779 0.02111 0.315912
v 0.952498 0.00253 0.292931
v 0.954742 0.002569 0.279224
v 0.977384 0.021519 0.302633
v 0.954742 0.002569 0.279224
v 0.950313 0.002603 0.142109
v 0.977355 0.026475 0.151067
v 0.977384 0.021519 0.302633
v 0.980353 0.02827 0.305844
v 0.980353 0.116107 0.308781
v 0.977722 0.115672 0.322001
v 0.977718 0.027835 0.319084
v 0.980353 0.121158 0.155112
v 0.980353 0.116107 0.308781
v 0.980353 0.02827 0.305844
v 0.980353 0.03332 0.1522
v 0.956035 0.020494 0.334646
v 0.934303 0.002514 0.312366
v 0.945321 0.002511 0.304569
v 0.967283 0.020751 0.327155
v 0.970214 0.027466 0.330308
v 0.970229 0.115304 0.333209
v 0.959015 0.115058 0.340698
v 0.958984 0.02722 0.337807
v 0.967283 0.020751 0.327155
v 0.945321 0.002511 0.304569
v 0.952498 0.00253 0.292931
v 0.974779 0.02111 0.315912
v 0.977718 0.027835 0.319084
v 0.977722 0.115672 0.322001
v 0.970229 0.115304 0.333209
v 0.970214 0.027466 0.330308
v 0.980353 0.136309 -0.305894
v 0.980353 0.131259 -0.152225
v 0.980353 0.043419 -0.155087
v 0.980353 0.048469 -0.308731
v 0.980353 0.136309 -0.305894
v 0.980353 0.048469 -0.308731
v 0.977718 0.048904 -0.32197
v 0.977722 0.136744 -0.319114
v 0.933907 0.002589 -0.279506
v 0.974779 0.041985 -0.319251
v 0.977384 0.041521 -0.305976
v 0.936991 0.002605 -0.266633
v 0.941441 0.002621 -0.130692
v 0.936991 0.002605 -0.266633
v 0.977384 0.041521 -0.305976
v 0.977355 0.03648 -0.153335
v 0.901164 0.002637 -0.30035
v 0.942756 0.042659 -0.340585
v 0.956039 0.0426 -0.337981
v 0.914515 0.002604 -0.29775
v 0.959015 0.137358 -0.337811
v 0.958984 0.04952 -0.340694
v 0.945737 0.049606 -0.343328
v 0.945787 0.137445 -0.340441
v 0.977722 0.136744 -0.319114
v 0.977718 0.048904 -0.32197
v 0.970214 0.049273 -0.333194
v 0.970229 0.137112 -0.330322
v 0.926013 0.002587 -0.29043
v 0.967285 0.042365 -0.330491
v 0.974779 0.041985 -0.319251
v 0.933907 0.002589 -0.279506
v 0.970229 0.137112 -0.330322
v 0.970214 0.049273 -0.333194
v 0.958984 0.04952 -0.340694
v 0.959015 0.137358 -0.337811
v 0.914515 0.002604 -0.29775
v 0.956039 0.0426 -0.337981
v 0.967285 0.042365 -0.330491
v 0.926013 0.002587 -0.29043
v 0.962473 0.130492 0.001584
v 0.962469 0.125733 0.14639
v 0.976151 0.12551 0.153172
v 0.976148 0.130492 0.001584
v 0.958286 0.126208 0.001443
v 0.958286 0.130899 -0.141292
v 0.958286 0.057491 -0.143769
v 0.958286 0.052798 -0.000969
v 0.962469 0.135251 -0.143221
v 0.962473 0.130492 0.001584
v 0.976148 0.130492 0.001584
v 0.976151 0.135474 -0.150003
v 0.958286 0.121517 0.144179
v 0.958286 0.126208 0.001443
v 0.958286 0.052798 -0.000969
v 0.958286 0.048105 0.14183
v 0.980353 0.126208 0.001443
v 0.980353 0.121158 0.155112
v 0.980353 0.03332 0.1522
v 0.980353 0.03837 -0.001443
v 0.980353 0.131259 -0.152225
v 0.980353 0.126208 0.001443
v 0.980353 0.03837 -0.001443
v 0.980353 0.043419 -0.155087
v 0.950313 0.002603 0.142109
v 0.94588 0.00262 0.005524
v 0.977345 0.031464 -0.000963
v 0.977355 0.026475 0.151067
v 0.94588 0.00262 0.005524
v 0.941441 0.002621 -0.130692
v 0.977355 0.03648 -0.153335
v 0.977345 0.031464 -0.000963
v -0.898795 1.2e-05 -0.263219
v 0 1.2e-05 -0.263219
v 0 2.9e-05 0.275826
v -0.916607 2.9e-05 0.275826
v 0.945408 3e-05 0.288343
v 0.939155 3e-05 0.298535
v 0.929577 3e-05 0.305306
v 0.917663 3e-05 0.307773
v 0.916608 2.9e-05 0.275826
v 0.947407 2.9e-05 0.275826
v 0.940599 0.042286 0.31886
v 0 0.042286 0.31886
v 0 0.115696 0.321273
v 0.940472 0.115696 0.321273
v -0.929816 1.2e-05 -0.263219
v -0.927045 1.2e-05 -0.274863
v -0.920132 1.1e-05 -0.284434
v -0.909996 1.1e-05 -0.290859
v -0.897805 1.1e-05 -0.293193
v -0.898795 1.2e-05 -0.263219
v -0.947407 2.9e-05 0.275826
v -0.916607 2.9e-05 0.275826
v -0.917663 3e-05 0.307773
v -0.929577 3e-05 0.305306
v -0.939155 3e-05 0.298535
v -0.945408 3e-05 0.288343
v -0.897805 1.1e-05 -0.293193
v -0.901164 0.002637 -0.30035
v 0 0.002637 -0.30035
v 0 1.1e-05 -0.293193
v 0.947407 2.9e-05 0.275826
v 0.916608 2.9e-05 0.275826
v 0.898795 1.2e-05 -0.263219
v 0.929816 1.2e-05 -0.263219
v 0.934207 1.6e-05 -0.128679
v 0.938611 2.1e-05 0.006293
v 0.943016 2.5e-05 0.141265
v -0.943016 2.5e-05 0.141265
v -0.938611 2.1e-05 0.006293
v -0.934207 1.6e-05 -0.128679
v -0.929816 1.2e-05 -0.263219
v -0.898795 1.2e-05 -0.263219
v -0.916607 2.9e-05 0.275826
v -0.947407 2.9e-05 0.275826
v -0.921117 0.002536 0.315129
v -0.917663 3e-05 0.307773
v 0 3e-05 0.307773
v 0 0.002536 0.315129
v 0 0.042286 0.31886
v 0 0.06331 -0.320798
v -0.940599 0.06331 -0.320798
v -0.948586 0.063276 -0.319776
v -0.954085 0.063172 -0.3166
v -0.957263 0.062991 -0.311103
v -0.958286 0.062729 -0.303121
v -0.958286 0.057491 -0.143769
v -0.958286 0.052798 -0.000969
v -0.958286 0.048105 0.14183
v -0.958286 0.042867 0.301183
v -0.957263 0.042605 0.309165
v -0.954085 0.042424 0.314662
v -0.948586 0.04232 0.317838
v -0.940599 0.042286 0.31886
vn -0 0.9995 0.0328
vn -0 0.0329 -0.9995
vn 0.0001 0.0329 -0.9995
vn -0 0.9995 0.0328
vn -0 0.9995 0.0329
vn -0.9239 0.0125 -0.3825
vn -1 -0 -0
vn -0 0.9995 0.0329
vn -0.6801 -0.7328 -0.0232
vn -1 -0 -0
vn -0.9239 0.0124 -0.3825
vn -0.5233 -0.81 -0.2648
vn -0.0002 0.9995 0.033
vn -0.7071 0.023 -0.7067
vn -0.9239 0.0125 -0.3825
vn -0 0.9995 0.0329
vn -0.5233 -0.81 -0.2648
vn -0.9239 0.0124 -0.3825
vn -0.7071 0.023 -0.7068
vn -0.3891 -0.8221 -0.4155
vn -0 0.9995 0.0328
vn -0.3827 0.0302 -0.9234
vn -0.7071 0.023 -0.7067
vn -0.0002 0.9995 0.033
vn -0.3891 -0.8221 -0.4155
vn -0.7071 0.023 -0.7068
vn -0.3827 0.0302 -0.9234
vn -0.2391 -0.8007 -0.5493
vn -0 0.9995 0.0328
vn -0 0.0329 -0.9995
vn -0.3827 0.0302 -0.9234
vn -0 0.9995 0.0328
vn -0.2391 -0.8007 -0.5493
vn -0.3827 0.0302 -0.9234
vn -0 0.0328 -0.9995
vn -0 -0.709 -0.7053
vn -0.4964 -0.8444 0.2013
vn -0.9239 -0.0128 0.3824
vn -1 -0 -0
vn -0.6613 -0.7497 -0.0232
vn -0 0.9995 0.0328
vn -1 -0 -0
vn -0.9239 -0.0127 0.3825
vn -0 0.9995 0.0329
vn -0.3676 -0.8651 0.3414
vn -0.7071 -0.0235 0.7067
vn -0.9239 -0.0128 0.3824
vn -0.4964 -0.8444 0.2013
vn -0 0.9995 0.0329
vn -0.9239 -0.0127 0.3825
vn -0.7071 -0.0234 0.7067
vn -0 0.9995 0.0329
vn -0.2263 -0.8539 0.4687
vn -0.3827 -0.0306 0.9234
vn -0.7071 -0.0235 0.7067
vn -0.3676 -0.8651 0.3414
vn -0 0.9995 0.0329
vn -0.7071 -0.0234 0.7067
vn -0.3827 -0.0305 0.9234
vn -0 0.9995 0.0329
vn -0 -0.7783 0.6279
vn -0 -0.0329 0.9995
vn -0.3827 -0.0306 0.9234
vn -0.2263 -0.8539 0.4687
vn -0 0.9995 0.0329
vn -0.3827 -0.0305 0.9234
vn -0 -0.0328 0.9995
vn -0 0.9995 0.0329
vn -0 -1 0.0001
vn -0 -0.7783 0.6279
vn -0.1893 -0.8461 0.4983
vn -0 -1 0.0001
vn -0 -1 0.0001
vn -0.1893 -0.8461 0.4983
vn -0.3692 -0.865 0.3397
vn -0 -1 0.0001
vn -0 -1 0.0001
vn -0.3692 -0.865 0.3397
vn -0.529 -0.8332 0.161
vn -0 -1 0.0001
vn -0 -1 0.0001
vn -0.529 -0.8332 0.161
vn -0.6613 -0.7498 -0.0232
vn -0.0001 -1 -0
vn -0 -1 -0
vn -0.1984 -0.7898 -0.5804
vn -0 -0.709 -0.7052
vn -0 -1 -0
vn -0 -1 -0
vn -0.3875 -0.8222 -0.417
vn -0.1984 -0.7898 -0.5804
vn -0 -1 -0
vn -0.0001 -1 -0
vn -0.5521 -0.8022 -0.2274
vn -0.3875 -0.8222 -0.417
vn -0 -1 -0
vn -0 -1 -0
vn -0.68 -0.7328 -0.0232
vn -0.5521 -0.8022 -0.2274
vn -0.0001 -1 -0
vn 0.0001 -0.0328 0.9995
vn -0 0.9995 0.0329
vn -0 0.9995 0.0329
vn 0.2971 0.0304 0.9544
vn 0.2971 0.0304 0.9544
vn -0 0.9995 0.0329
vn 0.0001 0.9995 0.0328
vn 0.7056 0.0426 0.7074
vn 0.7056 0.0426 0.7074
vn 0.0001 0.9995 0.0328
vn -0 0.9995 0.0329
vn 0.9529 0.0519 0.299
vn 0.9529 0.0519 0.299
vn -0 0.9995 0.0329
vn -0 0.9995 0.0328
vn 1 -0 -0
vn 0.2971 0.093 -0.9503
vn -0 0.9995 0.0328
vn -0 0.9995 0.0328
vn 0.0001 0.0329 -0.9995
vn 0.7056 0.089 -0.703
vn -0 0.9995 0.0328
vn -0 0.9995 0.0328
vn 0.2971 0.093 -0.9503
vn 0.9528 0.0715 -0.2949
vn -0 0.9995 0.0328
vn -0 0.9995 0.0328
vn 0.7056 0.089 -0.703
vn 1 -0 -0
vn -0 0.9995 0.0329
vn -0 0.9995 0.0328
vn 0.9528 0.0715 -0.2949
vn -0 0.9995 0.0328
vn 1 -0 -0
vn 1 -0 -0
vn -0 0.9995 0.0328
vn -0 0.9995 0.0328
vn -0 0.0329 -0.9995
vn -0 0.0329 -0.9995
vn -0 0.9995 0.0328
vn -1 -0 -0
vn -0 0.9995 0.0329
vn -0 0.9995 0.0329
vn -1 -0 -0
vn -0 -1 -0
vn -0.6773 -0.7354 -0.0232
vn -0.68 -0.7328 -0.0232
vn -0 -1 -0
vn -1 -0 -0
vn -0.665 -0.7465 -0.0232
vn -0.6613 -0.7497 -0.0232
vn -1 -0 -0
vn -0 0.0328 -0.9995
vn -0 -0.709 -0.7052
vn -0 -0.709 -0.7053
vn -0 0.0328 -0.9995
vn -0 0.9995 0.0329
vn 1 -0 -0
vn 0.9985 0.0541 0.0017
vn -0 0.9995 0.0328
vn -1 -0 -0
vn -0 0.9995 0.0329
vn -0 0.9995 0.0327
vn -1 -0 -0
vn -0 -1 -0
vn -0.6662 -0.7454 -0.0232
vn -0.6724 -0.7398 -0.0232
vn -0.0001 -1 -0
vn -1 -0.0001 -0
vn -0.6785 -0.7342 -0.0232
vn -0.6731 -0.7392 -0.0232
vn -1 -0 -0
vn -0 -0.7783 0.6279
vn -0 -0.0329 0.9995
vn -0 -0.0329 0.9995
vn -0 -0.7783 0.6279
vn -0 -0.0328 0.9995
vn -0 0.9995 0.0329
vn -0 0.9995 0.0329
vn 0.0001 -0.0328 0.9995
vn -0 -0.0328 0.9995
vn -0 -0.0328 0.9995
vn -0 -0.0329 0.9995
vn -0 -0.0329 0.9995
vn -0 -0.7783 0.6279
vn -0 -0.7783 0.6279
vn -0 -0.7783 0.6279
vn -0 -0.7783 0.6279
vn -0 -0.7783 0.6279
vn -0 -1 0.0001
vn -0 -1 0.0001
vn -0 -0.7783 0.6279
vn 0.0001 -1 -0
vn -0 -0.709 -0.7052
vn -0 -0.709 -0.7052
vn -0 -1 -0
vn -0 -1 -0
vn -0 -1 -0
vn -0 -1 -0
vn -0 -1 -0
vn 0.0001 -1 -0
vn -0 -1 -0
vn -0 0.0329 -0.9995
vn -0 0.0328 -0.9995
vn -0 0.0328 -0.9995
vn -0 0.0329 -0.9995
vn -0 -1 -0
vn -0 -1 -0
vn -0 -1 0.0001
vn -0 -1 0.0001
vn -0 -0.709 -0.7052
vn -0 -0.709 -0.7052
vn -0 -0.709 -0.7053
vn -0 -0.709 -0.7052
vn -1 -0 -0
vn -0.6731 -0.7392 -0.0232
vn -0.665 -0.7465 -0.0232
vn -1 -0 -0
vn -0 0.9995 0.0329
vn 1 -0 -0
vn 1 -0 -0
vn -0 0.9995 0.0329
vn -1 -0 -0
vn -0 0.9995 0.0328
vn -0 0.9995 0.0329
vn -1 -0 -0
vn -0.0001 -1 -0
vn -0.6613 -0.7498 -0.0232
vn -0.6662 -0.7454 -0.0232
vn -0 -1 -0
vn -0 0.9995 0.0328
vn 0.9985 0.0541 0.0017
vn 1 -0 -0
vn -0 0.9995 0.0328
vn -1 -0 -0
vn -0 0.9995 0.0327
vn -0 0.9995 0.0329
vn -1 -0 -0
vn -0.0001 -1 -0
vn -0.6724 -0.7398 -0.0232
vn -0.6773 -0.7354 -0.0232
vn -0 -1 -0
vn -1 -0 -0
vn -0.6801 -0.7328 -0.0232
vn -0.6785 -0.7342 -0.0232
vn -1 -0.0001 -0
vn 0.9239 0.0125 -0.3825
vn -0 0.9995 0.0328
vn -0 0.9995 0.0328
vn 1 -0 -0
vn 1 -0 -0
vn 0.6801 -0.7328 -0.0232
vn 0.5233 -0.81 -0.2648
vn 0.9239 0.0124 -0.3825
vn 0.7071 0.023 -0.7068
vn -0 0.9995 0.0328
vn -0 0.9995 0.0328
vn 0.9239 0.0125 -0.3825
vn 0.9239 0.0124 -0.3825
vn 0.5233 -0.81 -0.2648
vn 0.3892 -0.8221 -0.4155
vn 0.7071 0.023 -0.7067
vn 0.3827 0.0302 -0.9234
vn -0 0.9995 0.0328
vn -0 0.9995 0.0328
vn 0.7071 0.023 -0.7068
vn 0.7071 0.023 -0.7067
vn 0.3892 -0.8221 -0.4155
vn 0.2391 -0.8007 -0.5493
vn 0.3827 0.0302 -0.9234
vn -0 0.0329 -0.9995
vn -0 0.9995 0.0328
vn -0 0.9995 0.0328
vn 0.3827 0.0302 -0.9234
vn 0.3827 0.0302 -0.9234
vn 0.2391 -0.8007 -0.5493
vn -0 -0.709 -0.7052
vn -0 0.0328 -0.9995
vn 0.9239 -0.0128 0.3824
vn 0.4964 -0.8444 0.2014
vn 0.6613 -0.7497 -0.0232
vn 1 -0 -0
vn 1 -0 -0
vn -0 0.9995 0.0328
vn -0 0.9995 0.0328
vn 0.9239 -0.0127 0.3825
vn 0.7071 -0.0235 0.7067
vn 0.3676 -0.8651 0.3414
vn 0.4964 -0.8444 0.2014
vn 0.9239 -0.0128 0.3824
vn 0.9239 -0.0127 0.3825
vn -0 0.9995 0.0328
vn -0 0.9995 0.0329
vn 0.7071 -0.0234 0.7067
vn 0.3827 -0.0306 0.9234
vn 0.2263 -0.8539 0.4687
vn 0.3676 -0.8651 0.3414
vn 0.7071 -0.0235 0.7067
vn 0.7071 -0.0234 0.7067
vn -0 0.9995 0.0329
vn -0 0.9995 0.0329
vn 0.3827 -0.0305 0.9234
vn -0 -0.0329 0.9995
vn -0 -0.7783 0.6279
vn 0.2263 -0.8539 0.4687
vn 0.3827 -0.0306 0.9234
vn 0.3827 -0.0305 0.9234
vn -0 0.9995 0.0329
vn -0 0.9995 0.0329
vn -0 -0.0328 0.9995
vn -0 -0.7783 0.6279
vn -0 -1 0.0001
vn -0 -1 0.0001
vn 0.1892 -0.8461 0.4983
vn 0.1892 -0.8461 0.4983
vn -0 -1 0.0001
vn -0 -1 0.0001
vn 0.3692 -0.865 0.3397
vn 0.3692 -0.865 0.3397
vn -0 -1 0.0001
vn -0 -1 0.0001
vn 0.529 -0.8332 0.161
vn 0.529 -0.8332 0.161
vn -0 -1 0.0001
vn 0.0001 -1 -0
vn 0.6613 -0.7498 -0.0232
vn 0.1984 -0.7898 -0.5804
vn -0 -1 -0
vn -0 -1 -0
vn -0 -0.709 -0.7052
vn 0.3875 -0.8222 -0.417
vn -0 -1 -0
vn -0 -1 -0
vn 0.1984 -0.7898 -0.5804
vn 0.5521 -0.8022 -0.2274
vn 0.0001 -1 -0
vn -0 -1 -0
vn 0.3875 -0.8222 -0.417
vn 0.68 -0.7328 -0.0232
vn -0 -1 -0
vn 0.0001 -1 -0
vn 0.5521 -0.8022 -0.2274
vn -0 0.9995 0.0329
vn -0 -0.0328 0.9995
vn -0.2971 0.0304 0.9544
vn -0 0.9995 0.0329
vn -0 0.9995 0.0329
vn -0.2971 0.0304 0.9544
vn -0.7055 0.0426 0.7074
vn -0 0.9995 0.0329
vn -0 0.9995 0.0329
vn -0.7055 0.0426 0.7074
vn -0.9528 0.0519 0.299
vn -0 0.9995 0.0329
vn -0 0.9995 0.0329
vn -0.9528 0.0519 0.299
vn -1 -0 -0
vn -0 0.9995 0.0328
vn -0 0.9995 0.0328
vn -0.2971 0.093 -0.9503
vn -0.0001 0.0329 -0.9995
vn -0 0.9995 0.0328
vn -0.0001 0.9995 0.0329
vn -0.7056 0.089 -0.703
vn -0.2971 0.093 -0.9503
vn -0 0.9995 0.0328
vn -0 0.9995 0.0328
vn -0.9529 0.0715 -0.2949
vn -0.7056 0.089 -0.703
vn -0.0001 0.9995 0.0329
vn -0 0.9995 0.0328
vn -1 -0 -0
vn -0.9529 0.0715 -0.2949
vn -0 0.9995 0.0328
vn -1 -0 -0
vn -0 0.9995 0.0328
vn -0 0.9995 0.0328
vn -1 -0 -0
vn -0 -1 -0
vn -0 -1 -0
vn -0 -1 -0
vn 0.0001 -1 -0
vn -0 0.9995 0.0329
vn 1 -0 -0
vn 1 -0 -0
vn -0 0.9995 0.0328
vn 0.6773 -0.7354 -0.0232
vn -0 -1 -0
vn -0 -1 -0
vn 0.68 -0.7328 -0.0232
vn 0.665 -0.7465 -0.0232
vn 1 -0 -0
vn 1 -0 -0
vn 0.6613 -0.7497 -0.0232
vn -0 0.9995 0.0328
vn -0.0001 0.0329 -0.9995
vn -0 0.0329 -0.9995
vn -0 0.9995 0.0328
vn -1 -0 -0
vn -0 0.9995 0.0329
vn -0 0.9995 0.0328
vn -0.9985 0.0541 0.0018
vn -0 0.9995 0.0328
vn 1 -0 -0
vn 1 -0 0.0002
vn -0 0.9995 0.0328
vn 0.6662 -0.7454 -0.0232
vn -0 -1 -0
vn 0.0001 -1 -0
vn 0.6724 -0.7398 -0.0232
vn 0.6785 -0.7342 -0.0232
vn 1 -0.0001 -0
vn 1 -0 -0
vn 0.6731 -0.7392 -0.0232
vn -0 0.9995 0.0328
vn -0 0.0329 -0.9995
vn -0 0.0329 -0.9995
vn -0 0.9995 0.0328
vn -0 0.0328 -0.9995
vn -0 -0.709 -0.7052
vn -0 -0.709 -0.7052
vn -0 0.0328 -0.9995
vn -0 -0.7783 0.6279
vn -0 -0.0329 0.9995
vn -0 -0.0329 0.9995
vn -0 -0.7783 0.6279
vn -0 -0.0328 0.9995
vn -0 0.9995 0.0329
vn -0 0.9995 0.0329
vn -0 -0.0328 0.9995
vn -0 -0.0328 0.9995
vn -0 -0.0328 0.9995
vn -0 0.9995 0.0329
vn -0 0.9995 0.0329
vn -0 0.9995 0.0328
vn -0 0.9995 0.0328
vn -0 0.9995 0.0329
vn -0 0.9995 0.0329
vn 0.6731 -0.7392 -0.0232
vn 1 -0 -0
vn 1 -0 -0
vn 0.665 -0.7465 -0.0232
vn -1 -0 -0
vn -0 0.9995 0.0328
vn -0 0.9995 0.0329
vn -1 -0 -0
vn -0 0.9995 0.0328
vn 1 -0 -0
vn 1 -0 -0
vn -0 0.9995 0.0328
vn 0.6613 -0.7498 -0.0232
vn 0.0001 -1 -0
vn -0 -1 -0
vn 0.6662 -0.7454 -0.0232
vn -0.9985 0.0541 0.0018
vn -0 0.9995 0.0328
vn -0 0.9995 0.0328
vn -1 -0 -0
vn -0 0.9995 0.0328
vn 1 -0 0.0002
vn 1 -0 -0
vn -0 0.9995 0.0329
vn 0.6724 -0.7398 -0.0232
vn 0.0001 -1 -0
vn -0 -1 -0
vn 0.6773 -0.7354 -0.0232
vn 0.6801 -0.7328 -0.0232
vn 1 -0 -0
vn 1 -0.0001 -0
vn 0.6785 -0.7342 -0.0232
vn 0.9548 0.0094 -0.2972
vn 1 -0 -0
vn 1 -0 -0
vn 0.9528 0.0715 -0.2949
vn 1 -0 -0
vn 1 -0 -0
vn 1 -0 -0
vn 1 -0 -0
vn -0 0.9995 0.0328
vn -0 0.9995 0.0329
vn -0 0.9995 0.0328
vn -0 0.9995 0.0329
vn -0 0.9995 0.0329
vn -0 0.9995 0.0329
vn -0 0.9995 0.0328
vn -0 0.9995 0.0329
vn -0 0.0327 -0.9995
vn 0.2974 0.031 -0.9543
vn 0.2971 0.093 -0.9503
vn 0.0001 0.0329 -0.9995
vn -0 0.9995 0.0328
vn -0 0.9995 0.0328
vn -0 0.9995 0.0329
vn -0 0.9995 0.0329
vn -0 0.0329 -0.9995
vn -0 0.0328 -0.9995
vn -0 0.0328 -0.9995
vn -0 0.0329 -0.9995
vn 0.7071 0.0226 -0.7067
vn 0.9548 0.0094 -0.2972
vn 0.9528 0.0715 -0.2949
vn 0.7056 0.089 -0.703
vn -0 0.9995 0.0328
vn -0 0.9995 0.0328
vn -0 0.9995 0.0329
vn -0 0.9995 0.0329
vn 0.2974 0.031 -0.9543
vn 0.7071 0.0226 -0.7067
vn 0.7056 0.089 -0.703
vn 0.2971 0.093 -0.9503
vn -0 0.9995 0.0328
vn -0 0.9995 0.0328
vn -0 0.9995 0.0329
vn -0 0.9995 0.0329
vn -0 0.9995 0.0328
vn -0 0.9995 0.0328
vn -0 0.9995 0.0329
vn -0 0.9995 0.0329
vn 0.0001 -0.0328 0.9995
vn 0.2971 0.0304 0.9544
vn 0.2974 -0.0317 0.9542
vn -0 -0.0328 0.9995
vn -0 -0.0328 0.9995
vn -0 -0.0328 0.9995
vn -0 -0.0329 0.9995
vn -0 -0.0329 0.9995
vn 0.9529 0.0519 0.299
vn 1 -0 -0
vn 1 -0.0001 -0
vn 0.9548 -0.0102 0.2972
vn -0 0.9995 0.0329
vn -0 0.9995 0.0329
vn -0 0.9995 0.0328
vn -0 0.9995 0.0329
vn 1 -0 -0
vn 1 -0 -0
vn 1 -0.0001 -0
vn 1 -0 -0
vn -0 0.9995 0.0328
vn -0 0.9995 0.0329
vn -0 0.9995 0.0329
vn -0 0.9995 0.0328
vn -0 0.9995 0.0328
vn -0.0002 0.9995 0.033
vn 0.0001 0.9995 0.0328
vn -0 0.9995 0.0329
vn 0.2971 0.0304 0.9544
vn 0.7056 0.0426 0.7074
vn 0.7071 -0.0238 0.7067
vn 0.2974 -0.0317 0.9542
vn -0.0002 0.9995 0.033
vn -0 0.9995 0.0329
vn -0 0.9995 0.0329
vn 0.0001 0.9995 0.0328
vn 0.7056 0.0426 0.7074
vn 0.9529 0.0519 0.299
vn 0.9548 -0.0102 0.2972
vn 0.7071 -0.0238 0.7067
vn -0 -0.7783 0.6279
vn -0.2263 -0.8539 0.4687
vn -0.1893 -0.8461 0.4983
vn -0 -0.7783 0.6279
vn -0 0.9995 0.0329
vn -0 0.9995 0.0328
vn -0 0.9995 0.0328
vn -0 0.9995 0.0329
vn -0.3827 -0.0306 0.9234
vn -0 -0.0329 0.9995
vn -0 -0.0328 0.9995
vn -0.3827 -0.0305 0.9234
vn -0.4964 -0.8444 0.2013
vn -0.6613 -0.7497 -0.0232
vn -0.6613 -0.7498 -0.0232
vn -0.529 -0.8332 0.161
vn -1 -0 -0
vn -0.9239 -0.0128 0.3824
vn -0.9239 -0.0127 0.3825
vn -1 -0 -0
vn -0.6613 -0.7498 -0.0232
vn -0.6613 -0.7497 -0.0232
vn -0.665 -0.7465 -0.0232
vn -0.6662 -0.7454 -0.0232
vn -1 -0 -0
vn -1 -0 -0
vn -1 -0 -0
vn -1 -0 -0
vn -0.2263 -0.8539 0.4687
vn -0.3676 -0.8651 0.3414
vn -0.3692 -0.865 0.3397
vn -0.1893 -0.8461 0.4983
vn -0.7071 -0.0235 0.7067
vn -0.3827 -0.0306 0.9234
vn -0.3827 -0.0305 0.9234
vn -0.7071 -0.0234 0.7067
vn -0.3676 -0.8651 0.3414
vn -0.4964 -0.8444 0.2013
vn -0.529 -0.8332 0.161
vn -0.3692 -0.865 0.3397
vn -0.9239 -0.0128 0.3824
vn -0.7071 -0.0235 0.7067
vn -0.7071 -0.0234 0.7067
vn -0.9239 -0.0127 0.3825
vn -1 -0 -0
vn -1 -0 -0
vn -1 -0.0001 -0
vn -1 -0 -0
vn -1 -0 -0
vn -0.9239 0.0125 -0.3825
vn -0.9239 0.0124 -0.3825
vn -1 -0 -0
vn -0.5521 -0.8022 -0.2274
vn -0.68 -0.7328 -0.0232
vn -0.6801 -0.7328 -0.0232
vn -0.5233 -0.81 -0.2648
vn -0.6773 -0.7354 -0.0232
vn -0.6785 -0.7342 -0.0232
vn -0.6801 -0.7328 -0.0232
vn -0.68 -0.7328 -0.0232
vn -0 -0.709 -0.7052
vn -0.1984 -0.7898 -0.5804
vn -0.2391 -0.8007 -0.5493
vn -0 -0.709 -0.7053
vn -0.3827 0.0302 -0.9234
vn -0 0.0329 -0.9995
vn -0 0.0328 -0.9995
vn -0.3827 0.0302 -0.9234
vn -0 -0.7783 0.6279
vn -0 -0.7783 0.6279
vn -0 -0.7783 0.6279
vn -0 -0.7783 0.6279
vn -0 -0.0328 0.9995
vn 0.0001 -0.0328 0.9995
vn -0 -0.0328 0.9995
vn -0 -0.0328 0.9995
vn -0.9239 0.0125 -0.3825
vn -0.7071 0.023 -0.7067
vn -0.7071 0.023 -0.7068
vn -0.9239 0.0124 -0.3825
vn -0.3875 -0.8222 -0.417
vn -0.5521 -0.8022 -0.2274
vn -0.5233 -0.81 -0.2648
vn -0.3891 -0.8221 -0.4155
vn -0.7071 0.023 -0.7067
vn -0.3827 0.0302 -0.9234
vn -0.3827 0.0302 -0.9234
vn -0.7071 0.023 -0.7068
vn -0.1984 -0.7898 -0.5804
vn -0.3875 -0.8222 -0.417
vn -0.3891 -0.8221 -0.4155
vn -0.2391 -0.8007 -0.5493
vn -0 0.0328 -0.9995
vn -0 0.0327 -0.9995
vn 0.0001 0.0329 -0.9995
vn -0 0.0329 -0.9995
vn -0 0.9995 0.0328
vn -0 0.9995 0.0327
vn -0 0.9995 0.0329
vn -0 0.9995 0.0329
vn -0 0.9995 0.0328
vn -0 0.9995 0.0329
vn -0 0.9995 0.0327
vn -0 0.9995 0.0328
vn 1 -0 -0
vn 1 -0 -0
vn 1 -0 -0
vn 0.9985 0.0541 0.0017
vn 0.9985 0.0541 0.0017
vn 1 -0 -0
vn 1 -0 -0
vn 1 -0 -0
vn -1 -0 -0
vn -1 -0 -0
vn -1 -0 -0
vn -1 -0 -0
vn -1 -0 -0
vn -1 -0.0001 -0
vn -1 -0 -0
vn -1 -0 -0
vn -0.6662 -0.7454 -0.0232
vn -0.665 -0.7465 -0.0232
vn -0.6731 -0.7392 -0.0232
vn -0.6724 -0.7398 -0.0232
vn -0.6724 -0.7398 -0.0232
vn -0.6731 -0.7392 -0.0232
vn -0.6785 -0.7342 -0.0232
vn -0.6773 -0.7354 -0.0232
vn -0 -1 -0
vn -0 -1 -0
vn -0 -1 0.0001
vn -0 -1 0.0001
vn -0 -0.709 -0.7052
vn -0 -0.709 -0.7052
vn -0 -0.709 -0.7052
vn -0 -0.709 -0.7052
vn -0 -1 -0
vn -0 -1 -0
vn 0.0001 -1 -0
vn -0 -1 -0
vn -0 -0.0328 0.9995
vn -0 -0.0328 0.9995
vn -0 0.9995 0.0329
vn -0 0.9995 0.0329
vn -0 -1 -0
vn -0 -1 -0
vn -0 -1 -0
vn -0 -1 -0
vn -0 0.9995 0.0328
vn -0 0.9995 0.0328
vn -0 0.9995 0.0329
vn -0 0.9995 0.0329
vn -0 0.9995 0.0329
vn -0 0.9995 0.0328
vn -0 0.9995 0.0328
vn -0 0.9995 0.0329
vn -0 -0.0328 0.9995
vn -0 -0.0328 0.9995
vn -0 -0.0328 0.9995
vn -0 -0.033 0.9995
vn -0 0.9995 0.0328
vn -0 0.9995 0.0328
vn -0 0.9995 0.0328
vn -0 0.9995 0.0328
vn -0 0.9995 0.0328
vn -0 0.9995 0.0328
vn -0 0.9995 0.0328
vn -0 0.9995 0.0328
vn -0 0.9995 0.0328
vn -0 0.9995 0.0328
vn -0 0.9995 0.0328
vn -0 0.9995 0.0328
vn -0 0.9995 0.0328
vn -0 0.9995 0.0328
vn -0 0.9995 0.0328
vn -0.9548 0.0094 -0.2972
vn -0.9529 0.0715 -0.2949
vn -1 -0 -0
vn -1 -0.0001 -0
vn -0 0.9995 0.0328
vn -0 0.9995 0.0328
vn -0 0.9995 0.0328
vn -0 0.9995 0.0328
vn -1 -0 -0
vn -1 -0 -0
vn -1 -0 -0
vn -1 -0.0001 -0
vn -0 0.9995 0.0329
vn -0 0.9995 0.0328
vn -0 0.9995 0.0328
vn -0 0.9995 0.0328
vn -0 0.0328 -0.9995
vn -0.0001 0.0329 -0.9995
vn -0.2971 0.093 -0.9503
vn -0.2974 0.031 -0.9543
vn -0 0.9995 0.0328
vn -0 0.9995 0.0329
vn -0 0.9995 0.0329
vn -0 0.9995 0.0328
vn -0.7071 0.0226 -0.7067
vn -0.7056 0.089 -0.703
vn -0.9529 0.0715 -0.2949
vn -0.9548 0.0094 -0.2972
vn -0.0001 0.9995 0.0329
vn -0 0.9995 0.0329
vn -0 0.9995 0.0328
vn -0 0.9995 0.0328
vn -0.2974 0.031 -0.9543
vn -0.2971 0.093 -0.9503
vn -0.7056 0.089 -0.703
vn -0.7071 0.0226 -0.7067
vn -0 0.9995 0.0328
vn -0 0.9995 0.0329
vn -0 0.9995 0.0329
vn -0.0001 0.9995 0.0329
vn -0 0.9995 0.0328
vn -0 0.9995 0.0329
vn -0 0.9995 0.0329
vn -0 0.9995 0.0328
vn -0 -0.0328 0.9995
vn -0 -0.033 0.9995
vn -0.2974 -0.0318 0.9542
vn -0.2971 0.0304 0.9544
vn -0.9528 0.0519 0.299
vn -0.9548 -0.0101 0.2972
vn -1 -0 -0
vn -1 -0 -0
vn -1 -0 -0
vn -1 -0 -0
vn -1 -0 -0
vn -1 -0 -0
vn -0 0.9995 0.0328
vn -0 0.9995 0.0329
vn -0 0.9995 0.0328
vn -0 0.9995 0.0328
vn -0 0.9995 0.0328
vn -0 0.9995 0.0328
vn -0 0.9995 0.0329
vn -0 0.9995 0.0328
vn -0 0.9995 0.0328
vn -0 0.9995 0.0329
vn -0 0.9995 0.0329
vn -0 0.9995 0.0328
vn -0.2971 0.0304 0.9544
vn -0.2974 -0.0318 0.9542
vn -0.7071 -0.0238 0.7067
vn -0.7055 0.0426 0.7074
vn -0 0.9995 0.0328
vn -0 0.9995 0.0329
vn -0 0.9995 0.0329
vn -0 0.9995 0.0328
vn -0.7055 0.0426 0.7074
vn -0.7071 -0.0238 0.7067
vn -0.9548 -0.0101 0.2972
vn -0.9528 0.0519 0.299
vn -0 -0.7783 0.6279
vn -0 -0.7783 0.6279
vn 0.1892 -0.8461 0.4983
vn 0.2263 -0.8539 0.4687
vn 0.3827 -0.0306 0.9234
vn 0.3827 -0.0305 0.9234
vn -0 -0.0328 0.9995
vn -0 -0.0329 0.9995
vn 0.4964 -0.8444 0.2014
vn 0.529 -0.8332 0.161
vn 0.6613 -0.7498 -0.0232
vn 0.6613 -0.7497 -0.0232
vn 0.6613 -0.7498 -0.0232
vn 0.6662 -0.7454 -0.0232
vn 0.665 -0.7465 -0.0232
vn 0.6613 -0.7497 -0.0232
vn 1 -0 -0
vn 1 -0 -0
vn 0.9239 -0.0127 0.3825
vn 0.9239 -0.0128 0.3824
vn 1 -0 -0
vn 1 -0 -0
vn 1 -0 -0
vn 1 -0 -0
vn 0.2263 -0.8539 0.4687
vn 0.1892 -0.8461 0.4983
vn 0.3692 -0.865 0.3397
vn 0.3676 -0.8651 0.3414
vn 0.7071 -0.0235 0.7067
vn 0.7071 -0.0234 0.7067
vn 0.3827 -0.0305 0.9234
vn 0.3827 -0.0306 0.9234
vn 0.3676 -0.8651 0.3414
vn 0.3692 -0.865 0.3397
vn 0.529 -0.8332 0.161
vn 0.4964 -0.8444 0.2014
vn 0.9239 -0.0128 0.3824
vn 0.9239 -0.0127 0.3825
vn 0.7071 -0.0234 0.7067
vn 0.7071 -0.0235 0.7067
vn 1 -0 -0
vn 1 -0 -0
vn 1 -0.0001 -0
vn 1 -0 -0
vn 1 -0 -0
vn 1 -0 -0
vn 0.9239 0.0124 -0.3825
vn 0.9239 0.0125 -0.3825
vn 0.5521 -0.8022 -0.2274
vn 0.5233 -0.81 -0.2648
vn 0.6801 -0.7328 -0.0232
vn 0.68 -0.7328 -0.0232
vn 0.6773 -0.7354 -0.0232
vn 0.68 -0.7328 -0.0232
vn 0.6801 -0.7328 -0.0232
vn 0.6785 -0.7342 -0.0232
vn -0 -0.709 -0.7052
vn -0 -0.709 -0.7052
vn 0.2391 -0.8007 -0.5493
vn 0.1984 -0.7898 -0.5804
vn 0.3827 0.0302 -0.9234
vn 0.3827 0.0302 -0.9234
vn -0 0.0328 -0.9995
vn -0 0.0329 -0.9995
vn 0.9239 0.0125 -0.3825
vn 0.9239 0.0124 -0.3825
vn 0.7071 0.023 -0.7067
vn 0.7071 0.023 -0.7068
vn 0.3875 -0.8222 -0.417
vn 0.3892 -0.8221 -0.4155
vn 0.5233 -0.81 -0.2648
vn 0.5521 -0.8022 -0.2274
vn 0.7071 0.023 -0.7068
vn 0.7071 0.023 -0.7067
vn 0.3827 0.0302 -0.9234
vn 0.3827 0.0302 -0.9234
vn 0.1984 -0.7898 -0.5804
vn 0.2391 -0.8007 -0.5493
vn 0.3892 -0.8221 -0.4155
vn 0.3875 -0.8222 -0.417
vn -0 0.9995 0.0328
vn -0 0.9995 0.0329
vn -0 0.9995 0.0328
vn -0 0.9995 0.0328
vn -0.9985 0.0541 0.0018
vn -1 -0 -0
vn -1 -0 -0
vn -1 -0 -0
vn -0 0.9995 0.0328
vn -0 0.9995 0.0328
vn -0 0.9995 0.0328
vn -0 0.9995 0.0329
vn -1 -0 -0
vn -0.9985 0.0541 0.0018
vn -1 -0 -0
vn -1 -0 -0
vn 1 -0 0.0002
vn 1 -0 -0
vn 1 -0 -0
vn 1 -0 -0
vn 1 -0 -0
vn 1 -0 0.0002
vn 1 -0 -0
vn 1 -0.0001 -0
vn 0.6662 -0.7454 -0.0232
vn 0.6724 -0.7398 -0.0232
vn 0.6731 -0.7392 -0.0232
vn 0.665 -0.7465 -0.0232
vn 0.6724 -0.7398 -0.0232
vn 0.6773 -0.7354 -0.0232
vn 0.6785 -0.7342 -0.0232
vn 0.6731 -0.7392 -0.0232
vn -0 -1 -0
vn -0 -1 -0
vn -0 -1 -0
vn -0 -1 -0
vn -0 -1 0.0001
vn -0 -1 0.0001
vn -0 -1 0.0001
vn -0 -1 0.0001
vn -0 -1 -0
vn 0.0001 -1 -0
vn -0 0.0328 -0.9995
vn -0 0.0328 -0.9995
vn -0 0.0329 -0.9995
vn -0.0001 0.0329 -0.9995
vn -0 -1 -0
vn -0.0001 -1 -0
vn -0 -1 -0
vn -0 -1 -0
vn -0 -1 -0
vn -0 -1 -0
vn -0.0001 -1 -0
vn -0 -1 -0
vn -0 -1 0.0001
vn -0 -1 0.0001
vn -0 -1 0.0001
vn -0 -1 0.0001
vn -0 -1 -0
vn -0 -0.709 -0.7052
vn -0 -0.709 -0.7052
vn 0.0001 -1 -0
vn 0.0001 -1 -0
vn -0 -1 -0
vn -0 -1 -0
vn -0 -1 -0
vn -0 -1 -0
vn 0.0001 -1 -0
vn -0 -1 -0
vn -0 -1 -0
vn -0.0001 -1 -0
vn -0 -1 -0
vn -0 -1 -0
vn -0 -1 -0
vn -0 -1 -0
vn -0.0001 -1 -0
vn -0 -0.7783 0.6279
vn -0 -1 0.0001
vn -0 -1 0.0001
vn -0 -0.7783 0.6279
vn -0 0.9995 0.0328
vn -0 0.9995 0.0328
vn -0 0.9995 0.0328
vn -0 0.9995 0.0328
vn -0 0.9995 0.0328
vn -0 0.9995 0.0328
vn -0 0.9995 0.0328
vn -0 0.9995 0.0328
vn -0 0.9995 0.0328
vn -0 0.9995 0.0328
vn -0 0.9995 0.0328
vn -0 0.9995 0.0328
vn -0 0.9995 0.0328
vn -0 0.9995 0.0328
vn -0 0.9995 0.0328
vt 0.144165 0.38964
vt 0.141831 0.38964
vt 0.141831 0.74549
vt 0.144165 0.74549
vt 0.149485 0.995269
vt 0.15181 0.995269
vt 0.15181 0.991193
vt 0.149485 0.991193
vt 0.040438 0.011308
vt 0.043456 0.011308
vt 0.043456 0.00614297
vt 0.040438 0.00614297
vt 0.149485 0.999023
vt 0.15181 0.999023
vt 0.15181 0.995269
vt 0.149485 0.995269
vt 0.040438 0.00614297
vt 0.043456 0.00614297
vt 0.043456 0.000980973
vt 0.040438 0.000980973
vt 0.162308 0.029713
vt 0.164634 0.029713
vt 0.164634 0.025958
vt 0.162308 0.025958
vt 0.000977 0.999023
vt 0.003995 0.999023
vt 0.003995 0.993861
vt 0.000977 0.993861
vt 0.162308 0.033789
vt 0.164634 0.033789
vt 0.164634 0.029713
vt 0.162308 0.029713
vt 0.000977 0.993861
vt 0.003995 0.993861
vt 0.003995 0.988696
vt 0.000977 0.988696
vt 0.040438 0.250814
vt 0.043456 0.250814
vt 0.043456 0.245649
vt 0.040438 0.245649
vt 0.149485 0.761152
vt 0.15181 0.761152
vt 0.15181 0.757076
vt 0.149485 0.757076
vt 0.040438 0.255976
vt 0.043456 0.255976
vt 0.043456 0.250814
vt 0.040438 0.250814
vt 0.149485 0.757076
vt 0.15181 0.757076
vt 0.15181 0.753321
vt 0.149485 0.753321
vt 0.040438 0.261139
vt 0.043456 0.261139
vt 0.043456 0.255976
vt 0.040438 0.255976
vt 0.149485 0.753321
vt 0.15181 0.753321
vt 0.15181 0.749566
vt 0.149485 0.749566
vt 0.040438 0.266304
vt 0.043456 0.266304
vt 0.043456 0.261139
vt 0.040438 0.261139
vt 0.149485 0.749566
vt 0.15181 0.749566
vt 0.15181 0.74549
vt 0.149485 0.74549
vt 0.182233 0.970734
vt 0.179391 0.972143
vt 0.18047 0.976977
vt 0.18321 0.97516
vt 0.18321 0.97516
vt 0.18047 0.976977
vt 0.183407 0.981103
vt 0.185747 0.978713
vt 0.185747 0.978713
vt 0.183407 0.981103
vt 0.187767 0.983811
vt 0.189537 0.981056
vt 0.189537 0.981056
vt 0.187767 0.983811
vt 0.192813 0.984699
vt 0.194203 0.981869
vt 0.410912 0.966981
vt 0.41348 0.968624
vt 0.414392 0.964029
vt 0.411824 0.962646
vt 0.408643 0.970586
vt 0.410912 0.972732
vt 0.41348 0.968624
vt 0.410912 0.966981
vt 0.405273 0.973106
vt 0.407054 0.975611
vt 0.410912 0.972732
vt 0.408643 0.970586
vt 0.401116 0.974272
vt 0.402592 0.976787
vt 0.407054 0.975611
vt 0.405273 0.973106
vt 0.154654 0.033789
vt 0.156988 0.033789
vt 0.156988 0.029713
vt 0.154654 0.029713
vt 0.154654 0.029713
vt 0.156988 0.029713
vt 0.156988 0.025958
vt 0.154654 0.025958
vt 0.141831 0.999023
vt 0.144165 0.999023
vt 0.144165 0.995269
vt 0.141831 0.995269
vt 0.141831 0.995269
vt 0.144165 0.995269
vt 0.144165 0.991193
vt 0.141831 0.991193
vt 0.141831 0.749566
vt 0.144165 0.749566
vt 0.144165 0.74549
vt 0.141831 0.74549
vt 0.141831 0.753321
vt 0.144165 0.753321
vt 0.144165 0.749566
vt 0.141831 0.749566
vt 0.141831 0.757076
vt 0.144165 0.757076
vt 0.144165 0.753321
vt 0.141831 0.753321
vt 0.141831 0.761152
vt 0.144165 0.761152
vt 0.144165 0.757076
vt 0.141831 0.757076
vt 0.144165 0.93212
vt 0.141831 0.93212
vt 0.141831 0.991193
vt 0.144165 0.991193
vt 0.162308 0.38964
vt 0.164634 0.38964
vt 0.164634 0.033789
vt 0.162308 0.033789
vt 0.15181 0.93212
vt 0.149485 0.93212
vt 0.149485 0.991193
vt 0.15181 0.991193
vt 0.349596 0.976989
vt 0.350474 0.980038
vt 0.402592 0.976787
vt 0.401116 0.974272
vt 0.043456 0.187138
vt 0.040438 0.187138
vt 0.040438 0.245649
vt 0.043456 0.245649
vt 0.003995 0.627498
vt 0.000977 0.627498
vt 0.000977 0.988696
vt 0.003995 0.988696
vt 0.144165 0.820225
vt 0.141831 0.820225
vt 0.141831 0.876172
vt 0.144165 0.876172
vt 0.15181 0.820225
vt 0.149485 0.820225
vt 0.149485 0.876172
vt 0.15181 0.876172
vt 0.245835 0.980485
vt 0.245491 0.983495
vt 0.297967 0.981773
vt 0.297666 0.978737
vt 0.043456 0.069956
vt 0.040438 0.069956
vt 0.040438 0.128569
vt 0.043456 0.128569
vt 0.040438 0.6275
vt 0.043456 0.6275
vt 0.043456 0.266304
vt 0.040438 0.266304
vt 0.154654 0.38964
vt 0.156988 0.38964
vt 0.156988 0.033789
vt 0.154654 0.033789
vt 0.077057 0.6275
vt 0.077057 0.266304
vt 0.043456 0.266304
vt 0.043456 0.6275
vt 0.17839 0.618987
vt 0.167477 0.619006
vt 0.16872 0.980858
vt 0.179391 0.972143
vt 0.17839 0.618987
vt 0.181385 0.618982
vt 0.181024 0.267229
vt 0.178178 0.265829
vt 0.411788 0.618586
vt 0.414776 0.618581
vt 0.413205 0.273136
vt 0.410642 0.274528
vt 0.399612 0.274286
vt 0.410642 0.274528
vt 0.409715 0.270195
vt 0.407434 0.266599
vt 0.404054 0.26409
vt 0.399894 0.262938
vt 0.037595 0.627498
vt 0.003995 0.627498
vt 0.003995 0.988696
vt 0.037595 0.988696
vt 0.193647 0.61896
vt 0.193115 0.26768
vt 0.181024 0.267229
vt 0.181385 0.618982
vt 0.414776 0.618581
vt 0.414392 0.964029
vt 0.435559 0.980784
vt 0.4366 0.618543
vt 0.043456 0.128569
vt 0.040438 0.128569
vt 0.040438 0.187138
vt 0.043456 0.187138
vt 0.144165 0.761152
vt 0.141831 0.761152
vt 0.141831 0.820225
vt 0.144165 0.820225
vt 0.15181 0.761152
vt 0.149485 0.761152
vt 0.149485 0.820225
vt 0.15181 0.820225
vt 0.194203 0.981869
vt 0.192813 0.984699
vt 0.245491 0.983495
vt 0.245835 0.980485
vt 0.144165 0.876172
vt 0.141831 0.876172
vt 0.141831 0.93212
vt 0.144165 0.93212
vt 0.15181 0.876172
vt 0.149485 0.876172
vt 0.149485 0.93212
vt 0.15181 0.93212
vt 0.297666 0.978737
vt 0.297967 0.981773
vt 0.350474 0.980038
vt 0.349596 0.976989
vt 0.043456 0.011308
vt 0.040438 0.011308
vt 0.040438 0.069956
vt 0.043456 0.069956
vt 0.164634 0.757076
vt 0.162308 0.757076
vt 0.162308 0.761152
vt 0.164634 0.761152
vt 0.003995 0.245646
vt 0.000977 0.245646
vt 0.000977 0.250811
vt 0.003995 0.250811
vt 0.164634 0.753321
vt 0.162308 0.753321
vt 0.162308 0.757076
vt 0.164634 0.757076
vt 0.003995 0.250811
vt 0.000977 0.250811
vt 0.000977 0.255973
vt 0.003995 0.255973
vt 0.164634 0.749567
vt 0.162308 0.749567
vt 0.162308 0.753321
vt 0.164634 0.753321
vt 0.003995 0.255973
vt 0.000977 0.255973
vt 0.000977 0.261135
vt 0.003995 0.261135
vt 0.164634 0.745491
vt 0.162308 0.745491
vt 0.162308 0.749567
vt 0.164634 0.749567
vt 0.003995 0.261135
vt 0.000977 0.261135
vt 0.000977 0.2663
vt 0.003995 0.2663
vt 0.003995 0.00613898
vt 0.000977 0.00613898
vt 0.000977 0.011304
vt 0.003995 0.011304
vt 0.164634 0.991193
vt 0.162308 0.991193
vt 0.162308 0.995269
vt 0.164634 0.995269
vt 0.003995 0.00097698
vt 0.000977 0.00097698
vt 0.000977 0.00613898
vt 0.003995 0.00613898
vt 0.164634 0.995269
vt 0.162308 0.995269
vt 0.162308 0.999023
vt 0.164634 0.999023
vt 0.043456 0.993861
vt 0.040438 0.993861
vt 0.040438 0.999023
vt 0.043456 0.999023
vt 0.15181 0.025958
vt 0.149485 0.025958
vt 0.149485 0.029713
vt 0.15181 0.029713
vt 0.043456 0.988696
vt 0.040438 0.988696
vt 0.040438 0.993861
vt 0.043456 0.993861
vt 0.15181 0.029713
vt 0.149485 0.029713
vt 0.149485 0.033789
vt 0.15181 0.033789
vt 0.178178 0.265829
vt 0.181024 0.267229
vt 0.181986 0.262799
vt 0.17924 0.260991
vt 0.17924 0.260991
vt 0.181986 0.262799
vt 0.184511 0.259237
vt 0.182162 0.256856
vt 0.182162 0.256856
vt 0.184511 0.259237
vt 0.188293 0.256881
vt 0.186513 0.254133
vt 0.186513 0.254133
vt 0.188293 0.256881
vt 0.192956 0.256052
vt 0.191556 0.253227
vt 0.412278 0.268543
vt 0.409715 0.270195
vt 0.410642 0.274528
vt 0.413205 0.273136
vt 0.409695 0.264445
vt 0.407434 0.266599
vt 0.409715 0.270195
vt 0.412278 0.268543
vt 0.405827 0.261579
vt 0.404054 0.26409
vt 0.407434 0.266599
vt 0.409695 0.264445
vt 0.401361 0.260419
vt 0.399894 0.262938
vt 0.404054 0.26409
vt 0.405827 0.261579
vt 0.156988 0.745491
vt 0.154654 0.745491
vt 0.154654 0.749567
vt 0.156988 0.749567
vt 0.156988 0.749567
vt 0.154654 0.749567
vt 0.154654 0.753321
vt 0.156988 0.753321
vt 0.156988 0.753321
vt 0.154654 0.753321
vt 0.154654 0.757076
vt 0.156988 0.757076
vt 0.156988 0.757076
vt 0.154654 0.757076
vt 0.154654 0.761152
vt 0.156988 0.761152
vt 0.144165 0.029713
vt 0.141831 0.029713
vt 0.141831 0.033789
vt 0.144165 0.033789
vt 0.144165 0.025958
vt 0.141831 0.025958
vt 0.141831 0.029713
vt 0.144165 0.029713
vt 0.156988 0.995269
vt 0.154654 0.995269
vt 0.154654 0.999023
vt 0.156988 0.999023
vt 0.156988 0.991193
vt 0.154654 0.991193
vt 0.154654 0.995269
vt 0.156988 0.995269
vt 0.154654 0.820225
vt 0.156988 0.820225
vt 0.156988 0.761152
vt 0.154654 0.761152
vt 0.400234 0.618606
vt 0.400795 0.962925
vt 0.411824 0.962646
vt 0.411788 0.618586
vt 0.162308 0.820225
vt 0.164634 0.820225
vt 0.164634 0.761152
vt 0.162308 0.761152
vt 0.349232 0.257347
vt 0.348365 0.260398
vt 0.399894 0.262938
vt 0.401361 0.260419
vt 0.000977 0.069815
vt 0.003995 0.069815
vt 0.003995 0.011304
vt 0.000977 0.011304
vt 0.144165 0.033789
vt 0.141831 0.033789
vt 0.141831 0.38964
vt 0.144165 0.38964
vt 0.154654 0.93212
vt 0.156988 0.93212
vt 0.156988 0.876172
vt 0.154654 0.876172
vt 0.162308 0.93212
vt 0.164634 0.93212
vt 0.164634 0.876172
vt 0.162308 0.876172
vt 0.244238 0.25425
vt 0.244592 0.257259
vt 0.296429 0.258829
vt 0.29672 0.255792
vt 0.000977 0.186998
vt 0.003995 0.186998
vt 0.003995 0.128385
vt 0.000977 0.128385
vt 0.162308 0.745491
vt 0.164634 0.745491
vt 0.164634 0.38964
vt 0.162308 0.38964
vt 0.003995 0.2663
vt 0.000977 0.2663
vt 0.000977 0.627498
vt 0.003995 0.627498
vt 0.040438 0.988696
vt 0.043456 0.988696
vt 0.043456 0.6275
vt 0.040438 0.6275
vt 0.154654 0.745491
vt 0.156988 0.745491
vt 0.156988 0.38964
vt 0.154654 0.38964
vt 0.15181 0.38964
vt 0.15181 0.033789
vt 0.149485 0.033789
vt 0.149485 0.38964
vt 0.144165 0.38964
vt 0.144165 0.74549
vt 0.149485 0.74549
vt 0.149485 0.38964
vt 0.000977 0.128385
vt 0.003995 0.128385
vt 0.003995 0.069815
vt 0.000977 0.069815
vt 0.154654 0.991193
vt 0.156988 0.991193
vt 0.156988 0.93212
vt 0.154654 0.93212
vt 0.162308 0.991193
vt 0.164634 0.991193
vt 0.164634 0.93212
vt 0.162308 0.93212
vt 0.191556 0.253227
vt 0.192956 0.256052
vt 0.244592 0.257259
vt 0.244238 0.25425
vt 0.154654 0.876172
vt 0.156988 0.876172
vt 0.156988 0.820225
vt 0.154654 0.820225
vt 0.162308 0.876172
vt 0.164634 0.876172
vt 0.164634 0.820225
vt 0.162308 0.820225
vt 0.29672 0.255792
vt 0.296429 0.258829
vt 0.348365 0.260398
vt 0.349232 0.257347
vt 0.000977 0.245646
vt 0.003995 0.245646
vt 0.003995 0.186998
vt 0.000977 0.186998
vt 0.138987 0.265304
vt 0.138987 0.26221
vt 0.110865 0.26221
vt 0.110865 0.265304
vt 0.110865 0.26221
vt 0.138987 0.26221
vt 0.138987 0.201178
vt 0.110865 0.201178
vt 0.144165 0.757076
vt 0.144165 0.761152
vt 0.149485 0.761152
vt 0.149485 0.757076
vt 0.144165 0.820225
vt 0.149485 0.820225
vt 0.149485 0.761152
vt 0.144165 0.761152
vt 0.138987 0.273279
vt 0.138987 0.270185
vt 0.110865 0.270185
vt 0.110865 0.273279
vt 0.144165 0.74549
vt 0.144165 0.749566
vt 0.149485 0.749566
vt 0.149485 0.74549
vt 0.037595 0.2663
vt 0.003995 0.2663
vt 0.003995 0.627498
vt 0.037595 0.627498
vt 0.138987 0.267745
vt 0.138987 0.265304
vt 0.110865 0.265304
vt 0.110865 0.267745
vt 0.144165 0.753321
vt 0.144165 0.757076
vt 0.149485 0.757076
vt 0.149485 0.753321
vt 0.138987 0.270185
vt 0.138987 0.267745
vt 0.110865 0.267745
vt 0.110865 0.270185
vt 0.144165 0.749566
vt 0.144165 0.753321
vt 0.149485 0.753321
vt 0.149485 0.749566
vt 0.162308 0.033789
vt 0.162308 0.029713
vt 0.156988 0.029713
vt 0.156988 0.033789
vt 0.0799 0.993489
vt 0.0799 0.996583
vt 0.108022 0.996583
vt 0.108022 0.993489
vt 0.077057 0.988696
vt 0.077057 0.6275
vt 0.043456 0.6275
vt 0.043456 0.988696
vt 0.110865 0.027669
vt 0.110865 0.030763
vt 0.138987 0.030763
vt 0.138987 0.027669
vt 0.149485 0.995269
vt 0.149485 0.991193
vt 0.144165 0.991193
vt 0.144165 0.995269
vt 0.110865 0.091795
vt 0.138987 0.091795
vt 0.138987 0.030763
vt 0.110865 0.030763
vt 0.144165 0.991193
vt 0.149485 0.991193
vt 0.149485 0.93212
vt 0.144165 0.93212
vt 0.162308 0.029713
vt 0.162308 0.025958
vt 0.156988 0.025958
vt 0.156988 0.029713
vt 0.0799 0.996583
vt 0.0799 0.999023
vt 0.108022 0.999023
vt 0.108022 0.996583
vt 0.149485 0.999023
vt 0.149485 0.995269
vt 0.144165 0.995269
vt 0.144165 0.999023
vt 0.110865 0.025228
vt 0.110865 0.027669
vt 0.138987 0.027669
vt 0.138987 0.025228
vt 0.16872 0.980858
vt 0.170063 0.986402
vt 0.18047 0.976977
vt 0.179391 0.972143
vt 0.156988 0.38964
vt 0.162308 0.38964
vt 0.162308 0.033789
vt 0.156988 0.033789
vt 0.043456 0.261139
vt 0.043456 0.266304
vt 0.077057 0.266304
vt 0.077057 0.261139
vt 0.177831 0.994333
vt 0.183336 0.9958
vt 0.192813 0.984699
vt 0.187767 0.983811
vt 0.043456 0.245649
vt 0.043456 0.250814
vt 0.077057 0.250814
vt 0.077057 0.245649
vt 0.192813 0.984699
vt 0.183336 0.9958
vt 0.242084 0.997419
vt 0.245491 0.983495
vt 0.077057 0.187138
vt 0.043456 0.187138
vt 0.043456 0.245649
vt 0.077057 0.245649
vt 0.170063 0.986402
vt 0.173219 0.99108
vt 0.183407 0.981103
vt 0.18047 0.976977
vt 0.043456 0.255976
vt 0.043456 0.261139
vt 0.077057 0.261139
vt 0.077057 0.255976
vt 0.173219 0.99108
vt 0.177831 0.994333
vt 0.187767 0.983811
vt 0.183407 0.981103
vt 0.043456 0.250814
vt 0.043456 0.255976
vt 0.077057 0.255976
vt 0.077057 0.250814
vt 0.077057 0.011308
vt 0.043456 0.011308
vt 0.043456 0.069956
vt 0.077057 0.069956
vt 0.077057 0.011308
vt 0.077057 0.00614297
vt 0.043456 0.00614297
vt 0.043456 0.011308
vt 0.407054 0.975611
vt 0.402592 0.976787
vt 0.419744 0.997022
vt 0.425569 0.995204
vt 0.350474 0.980038
vt 0.359774 0.999023
vt 0.419744 0.997022
vt 0.402592 0.976787
vt 0.414392 0.964029
vt 0.41348 0.968624
vt 0.433892 0.986648
vt 0.435559 0.980784
vt 0.037595 0.993861
vt 0.037595 0.988696
vt 0.003995 0.988696
vt 0.003995 0.993861
vt 0.178178 0.265829
vt 0.167477 0.257151
vt 0.167477 0.619006
vt 0.17839 0.618987
vt 0.0799 0.633383
vt 0.0799 0.993489
vt 0.108022 0.993489
vt 0.108022 0.633383
vt 0.077057 0.00614297
vt 0.077057 0.000980973
vt 0.043456 0.000980973
vt 0.043456 0.00614297
vt 0.410912 0.972732
vt 0.407054 0.975611
vt 0.425569 0.995204
vt 0.43046 0.991636
vt 0.037595 0.999023
vt 0.037595 0.993861
vt 0.003995 0.993861
vt 0.003995 0.999023
vt 0.41348 0.968624
vt 0.410912 0.972732
vt 0.43046 0.991636
vt 0.433892 0.986648
vt 0.138987 0.633384
vt 0.138987 0.273279
vt 0.110865 0.273279
vt 0.110865 0.633384
vt 0.144165 0.876172
vt 0.149485 0.876172
vt 0.149485 0.820225
vt 0.144165 0.820225
vt 0.144165 0.93212
vt 0.149485 0.93212
vt 0.149485 0.876172
vt 0.144165 0.876172
vt 0.110865 0.201178
vt 0.138987 0.201178
vt 0.138987 0.146487
vt 0.110865 0.146487
vt 0.110865 0.146487
vt 0.138987 0.146487
vt 0.138987 0.091795
vt 0.110865 0.091795
vt 0.077057 0.128569
vt 0.043456 0.128569
vt 0.043456 0.187138
vt 0.077057 0.187138
vt 0.077057 0.069956
vt 0.043456 0.069956
vt 0.043456 0.128569
vt 0.077057 0.128569
vt 0.245491 0.983495
vt 0.242084 0.997419
vt 0.300603 0.998252
vt 0.297967 0.981773
vt 0.297967 0.981773
vt 0.300603 0.998252
vt 0.359774 0.999023
vt 0.350474 0.980038
vt 0.194322 0.97024
vt 0.193647 0.61896
vt 0.181385 0.618982
vt 0.182233 0.970734
vt 0.413205 0.273136
vt 0.414776 0.618581
vt 0.4366 0.618543
vt 0.434314 0.256308
vt 0.399612 0.274286
vt 0.400234 0.618606
vt 0.411788 0.618586
vt 0.410642 0.274528
vt 0.15181 0.74549
vt 0.15181 0.38964
vt 0.149485 0.38964
vt 0.149485 0.74549
vt 0.400234 0.618606
vt 0.399612 0.274286
vt 0.193115 0.26768
vt 0.193647 0.61896
vt 0.144165 0.033789
vt 0.144165 0.38964
vt 0.149485 0.38964
vt 0.149485 0.033789
vt 0.156988 0.745491
vt 0.162308 0.745491
vt 0.162308 0.38964
vt 0.156988 0.38964
vt 0.0799 0.273278
vt 0.0799 0.633383
vt 0.108022 0.633383
vt 0.108022 0.273278
vt 0.684483 0.271992
vt 0.684092 0.268934
vt 0.682875 0.266828
vt 0.68077 0.265612
vt 0.677712 0.26522
vt 0.616667 0.26522
vt 0.561963 0.26522
vt 0.50726 0.26522
vt 0.446215 0.26522
vt 0.443157 0.265612
vt 0.441052 0.266829
vt 0.439835 0.268934
vt 0.439443 0.271992
vt 0.439443 0.632122
vt 0.684483 0.632122
vt 0.108022 0.027667
vt 0.0799 0.027667
vt 0.0799 0.030761
vt 0.108022 0.030761
vt 0.156988 0.995269
vt 0.162308 0.995269
vt 0.162308 0.991193
vt 0.156988 0.991193
vt 0.0799 0.030761
vt 0.0799 0.091794
vt 0.108022 0.091794
vt 0.108022 0.030761
vt 0.156988 0.93212
vt 0.156988 0.991193
vt 0.162308 0.991193
vt 0.162308 0.93212
vt 0.138987 0.993489
vt 0.110865 0.993489
vt 0.110865 0.996583
vt 0.138987 0.996583
vt 0.144165 0.033789
vt 0.149485 0.033789
vt 0.149485 0.029713
vt 0.144165 0.029713
vt 0.108022 0.025227
vt 0.0799 0.025227
vt 0.0799 0.027667
vt 0.108022 0.027667
vt 0.156988 0.999023
vt 0.162308 0.999023
vt 0.162308 0.995269
vt 0.156988 0.995269
vt 0.138987 0.996583
vt 0.110865 0.996583
vt 0.110865 0.999023
vt 0.138987 0.999023
vt 0.144165 0.029713
vt 0.149485 0.029713
vt 0.149485 0.025958
vt 0.144165 0.025958
vt 0.162308 0.745491
vt 0.156988 0.745491
vt 0.156988 0.749567
vt 0.162308 0.749567
vt 0.0799 0.273278
vt 0.108022 0.273278
vt 0.108022 0.270184
vt 0.0799 0.270184
vt 0.0799 0.265303
vt 0.108022 0.265303
vt 0.108022 0.262209
vt 0.0799 0.262209
vt 0.0799 0.201176
vt 0.0799 0.262209
vt 0.108022 0.262209
vt 0.108022 0.201176
vt 0.162308 0.757076
vt 0.156988 0.757076
vt 0.156988 0.761152
vt 0.162308 0.761152
vt 0.156988 0.761152
vt 0.156988 0.820225
vt 0.162308 0.820225
vt 0.162308 0.761152
vt 0.162308 0.749567
vt 0.156988 0.749567
vt 0.156988 0.753321
vt 0.162308 0.753321
vt 0.0799 0.270184
vt 0.108022 0.270184
vt 0.108022 0.267744
vt 0.0799 0.267744
vt 0.162308 0.753321
vt 0.156988 0.753321
vt 0.156988 0.757076
vt 0.162308 0.757076
vt 0.0799 0.267744
vt 0.108022 0.267744
vt 0.108022 0.265303
vt 0.0799 0.265303
vt 0.167477 0.257151
vt 0.178178 0.265829
vt 0.17924 0.260991
vt 0.1688 0.251603
vt 0.043456 0.993861
vt 0.077057 0.993861
vt 0.077057 0.988696
vt 0.043456 0.988696
vt 0.176541 0.243644
vt 0.186513 0.254133
vt 0.191556 0.253227
vt 0.182041 0.242158
vt 0.191556 0.253227
vt 0.244238 0.25425
vt 0.240784 0.240338
vt 0.182041 0.242158
vt 0.003995 0.011304
vt 0.037595 0.011304
vt 0.037595 0.00613898
vt 0.003995 0.00613898
vt 0.037595 0.069815
vt 0.037595 0.011304
vt 0.003995 0.011304
vt 0.003995 0.069815
vt 0.1688 0.251603
vt 0.17924 0.260991
vt 0.182162 0.256856
vt 0.17194 0.246913
vt 0.043456 0.999023
vt 0.077057 0.999023
vt 0.077057 0.993861
vt 0.043456 0.993861
vt 0.17194 0.246913
vt 0.182162 0.256856
vt 0.186513 0.254133
vt 0.176541 0.243644
vt 0.003995 0.00613898
vt 0.037595 0.00613898
vt 0.037595 0.00097698
vt 0.003995 0.00097698
vt 0.037595 0.245646
vt 0.037595 0.186998
vt 0.003995 0.186998
vt 0.003995 0.245646
vt 0.037595 0.245646
vt 0.003995 0.245646
vt 0.003995 0.250811
vt 0.037595 0.250811
vt 0.405827 0.261579
vt 0.424275 0.241923
vt 0.418443 0.240124
vt 0.401361 0.260419
vt 0.349232 0.257347
vt 0.401361 0.260419
vt 0.418443 0.240124
vt 0.358468 0.238329
vt 0.413205 0.273136
vt 0.434314 0.256308
vt 0.432627 0.250449
vt 0.412278 0.268543
vt 0.037595 0.261135
vt 0.003995 0.261135
vt 0.003995 0.2663
vt 0.037595 0.2663
vt 0.037595 0.250811
vt 0.003995 0.250811
vt 0.003995 0.255973
vt 0.037595 0.255973
vt 0.409695 0.264445
vt 0.429178 0.245473
vt 0.424275 0.241923
vt 0.405827 0.261579
vt 0.037595 0.255973
vt 0.003995 0.255973
vt 0.003995 0.261135
vt 0.037595 0.261135
vt 0.412278 0.268543
vt 0.432627 0.250449
vt 0.429178 0.245473
vt 0.409695 0.264445
vt 0.156988 0.876172
vt 0.156988 0.93212
vt 0.162308 0.93212
vt 0.162308 0.876172
vt 0.0799 0.146485
vt 0.0799 0.201176
vt 0.108022 0.201176
vt 0.108022 0.146485
vt 0.156988 0.820225
vt 0.156988 0.876172
vt 0.162308 0.876172
vt 0.162308 0.820225
vt 0.0799 0.091794
vt 0.0799 0.146485
vt 0.108022 0.146485
vt 0.108022 0.091794
vt 0.037595 0.128385
vt 0.037595 0.069815
vt 0.003995 0.069815
vt 0.003995 0.128385
vt 0.037595 0.186998
vt 0.037595 0.128385
vt 0.003995 0.128385
vt 0.003995 0.186998
vt 0.244238 0.25425
vt 0.29672 0.255792
vt 0.299299 0.239304
vt 0.240784 0.240338
vt 0.29672 0.255792
vt 0.349232 0.257347
vt 0.358468 0.238329
vt 0.299299 0.239304
vt 0.400795 0.962925
vt 0.400234 0.618606
vt 0.193647 0.61896
vt 0.194322 0.97024
vt 0.188293 0.256881
vt 0.184511 0.259237
vt 0.181986 0.262799
vt 0.181024 0.267229
vt 0.193115 0.26768
vt 0.192956 0.256052
vt 0.138987 0.993489
vt 0.138987 0.633384
vt 0.110865 0.633384
vt 0.110865 0.993489
vt 0.401116 0.974272
vt 0.405273 0.973106
vt 0.408643 0.970586
vt 0.410912 0.966981
vt 0.411824 0.962646
vt 0.400795 0.962925
vt 0.194203 0.981869
vt 0.194322 0.97024
vt 0.182233 0.970734
vt 0.18321 0.97516
vt 0.185747 0.978713
vt 0.189537 0.981056
vt 0.411824 0.962646
vt 0.414392 0.964029
vt 0.414776 0.618581
vt 0.411788 0.618586
vt 0.192956 0.256052
vt 0.193115 0.26768
vt 0.399612 0.274286
vt 0.399894 0.262938
vt 0.348365 0.260398
vt 0.296429 0.258829
vt 0.244592 0.257259
vt 0.245835 0.980485
vt 0.297666 0.978737
vt 0.349596 0.976989
vt 0.401116 0.974272
vt 0.400795 0.962925
vt 0.194322 0.97024
vt 0.194203 0.981869
vt 0.179391 0.972143
vt 0.182233 0.970734
vt 0.181385 0.618982
vt 0.17839 0.618987
vt 0.684483 0.632122
vt 0.439443 0.632122
vt 0.439443 0.992252
vt 0.439835 0.99531
vt 0.441052 0.997415
vt 0.443157 0.998632
vt 0.446215 0.999023
vt 0.50726 0.999023
vt 0.561963 0.999023
vt 0.616667 0.999023
vt 0.677712 0.999023
vt 0.680769 0.998632
vt 0.682875 0.997415
vt 0.684092 0.99531
vt 0.684483 0.992252
s off
f 1/1/1 2/2/2 3/3/3
f 1/1/1 3/3/3 4/4/4
f 5/5/5 6/6/6 7/7/7
f 5/5/5 7/7/7 8/8/8
f 9/9/9 10/10/10 11/11/11
f 9/9/9 11/11/11 12/12/12
f 13/13/13 14/14/14 15/15/15
f 13/13/13 15/15/15 16/16/16
f 17/17/17 18/18/18 19/19/19
f 17/17/17 19/19/19 20/20/20
f 21/21/21 22/22/22 23/23/23
f 21/21/21 23/23/23 24/24/24
f 25/25/25 26/26/26 27/27/27
f 25/25/25 27/27/27 28/28/28
f 29/29/29 30/30/30 31/31/31
f 29/29/29 31/31/31 32/32/32
f 33/33/33 34/34/34 35/35/35
f 33/33/33 35/35/35 36/36/36
f 37/37/37 38/38/38 39/39/39
f 37/37/37 39/39/39 40/40/40
f 41/41/41 42/42/42 43/43/43
f 41/41/41 43/43/43 44/44/44
f 45/45/45 46/46/46 47/47/47
f 45/45/45 47/47/47 48/48/48
f 49/49/49 50/50/50 51/51/51
f 49/49/49 51/51/51 52/52/52
f 53/53/53 54/54/54 55/55/55
f 53/53/53 55/55/55 56/56/56
f 57/57/57 58/58/58 59/59/59
f 57/57/57 59/59/59 60/60/60
f 61/61/61 62/62/62 63/63/63
f 61/61/61 63/63/63 64/64/64
f 65/65/65 66/66/66 67/67/67
f 65/65/65 67/67/67 68/68/68
f 69/69/69 70/70/70 71/71/71
f 69/69/69 71/71/71 72/72/72
f 73/73/73 74/74/74 75/75/75
f 73/73/73 75/75/75 76/76/76
f 77/77/77 78/78/78 79/79/79
f 77/77/77 79/79/79 80/80/80
f 81/81/81 82/82/82 83/83/83
f 81/81/81 83/83/83 84/84/84
f 85/85/85 86/86/86 87/87/87
f 85/85/85 87/87/87 88/88/88
f 89/89/89 90/90/90 91/91/91
f 89/89/89 91/91/91 92/92/92
f 93/93/93 94/94/94 95/95/95
f 93/93/93 95/95/95 96/96/96
f 97/97/97 98/98/98 99/99/99
f 97/97/97 99/99/99 100/100/100
f 101/101/101 102/102/102 103/103/103
f 101/101/101 103/103/103 104/104/104
f 105/105/105 106/106/106 107/107/107
f 105/105/105 107/107/107 108/108/108
f 109/109/109 110/110/110 111/111/111
f 109/109/109 111/111/111 112/112/112
f 113/113/113 114/114/114 115/115/115
f 113/113/113 115/115/115 116/116/116
f 117/117/117 118/118/118 119/119/119
f 117/117/117 119/119/119 120/120/120
f 121/121/121 122/122/122 123/123/123
f 121/121/121 123/123/123 124/124/124
f 125/125/125 126/126/126 127/127/127
f 125/125/125 127/127/127 128/128/128
f 129/129/129 130/130/130 131/131/131
f 129/129/129 131/131/131 132/132/132
f 133/133/133 134/134/134 135/135/135
f 133/133/133 135/135/135 136/136/136
f 137/137/137 138/138/138 139/139/139
f 137/137/137 139/139/139 140/140/140
f 141/141/141 142/142/142 143/143/143
f 141/141/141 143/143/143 144/144/144
f 145/145/145 146/146/146 147/147/147
f 145/145/145 147/147/147 148/148/148
f 149/149/149 150/150/150 151/151/151
f 149/149/149 151/151/151 152/152/152
f 153/153/153 154/154/154 155/155/155
f 153/153/153 155/155/155 156/156/156
f 157/157/157 158/158/158 159/159/159
f 157/157/157 159/159/159 160/160/160
f 161/161/161 162/162/162 163/163/163
f 161/161/161 163/163/163 164/164/164
f 165/165/165 166/166/166 167/167/167
f 165/165/165 167/167/167 168/168/168
f 169/169/169 170/170/170 171/171/171
f 169/169/169 171/171/171 172/172/172
f 173/173/173 174/174/174 175/175/175
f 173/173/173 175/175/175 176/176/176
f 177/177/177 178/178/178 179/179/179
f 177/177/177 179/179/179 180/180/180
f 181/181/181 182/182/182 183/183/183
f 181/181/181 183/183/183 184/184/184
f 185/185/185 186/186/186 187/187/187
f 185/185/185 187/187/187 188/188/188
f 189/189/189 190/190/190 191/191/191
f 189/189/189 191/191/191 192/192/192
f 193/193/193 194/194/194 195/195/195
f 193/193/193 195/195/195 196/196/196
f 201/201/201 202/202/202 197/197/197
f 197/197/197 198/198/198 199/199/199
f 199/199/199 200/200/200 201/201/201
f 201/201/201 197/197/197 199/199/199
f 203/203/203 204/204/204 205/205/205
f 203/203/203 205/205/205 206/206/206
f 207/207/207 208/208/208 209/209/209
f 207/207/207 209/209/209 210/210/210
f 211/211/211 212/212/212 213/213/213
f 211/211/211 213/213/213 214/214/214
f 215/215/215 216/216/216 217/217/217
f 215/215/215 217/217/217 218/218/218
f 219/219/219 220/220/220 221/221/221
f 219/219/219 221/221/221 222/222/222
f 223/223/223 224/224/224 225/225/225
f 223/223/223 225/225/225 226/226/226
f 227/227/227 228/228/228 229/229/229
f 227/227/227 229/229/229 230/230/230
f 231/231/231 232/232/232 233/233/233
f 231/231/231 233/233/233 234/234/234
f 235/235/235 236/236/236 237/237/237
f 235/235/235 237/237/237 238/238/238
f 239/239/239 240/240/240 241/241/241
f 239/239/239 241/241/241 242/242/242
f 243/243/243 244/244/244 245/245/245
f 243/243/243 245/245/245 246/246/246
f 247/247/247 248/248/248 249/249/249
f 247/247/247 249/249/249 250/250/250
f 251/251/251 252/252/252 253/253/253
f 251/251/251 253/253/253 254/254/254
f 255/255/255 256/256/256 257/257/257
f 255/255/255 257/257/257 258/258/258
f 259/259/259 260/260/260 261/261/261
f 259/259/259 261/261/261 262/262/262
f 263/263/263 264/264/264 265/265/265
f 263/263/263 265/265/265 266/266/266
f 267/267/267 268/268/268 269/269/269
f 267/267/267 269/269/269 270/270/270
f 271/271/271 272/272/272 273/273/273
f 271/271/271 273/273/273 274/274/274
f 275/275/275 276/276/276 277/277/277
f 275/275/275 277/277/277 278/278/278
f 279/279/279 280/280/280 281/281/281
f 279/279/279 281/281/281 282/282/282
f 283/283/283 284/284/284 285/285/285
f 283/283/283 285/285/285 286/286/286
f 287/287/287 288/288/288 289/289/289
f 287/287/287 289/289/289 290/290/290
f 291/291/291 292/292/292 293/293/293
f 291/291/291 293/293/293 294/294/294
f 295/295/295 296/296/296 297/297/297
f 295/295/295 297/297/297 298/298/298
f 299/299/299 300/300/300 301/301/301
f 299/299/299 301/301/301 302/302/302
f 303/303/303 304/304/304 305/305/305
f 303/303/303 305/305/305 306/306/306
f 307/307/307 308/308/308 309/309/309
f 307/307/307 309/309/309 310/310/310
f 311/311/311 312/312/312 313/313/313
f 311/311/311 313/313/313 314/314/314
f 315/315/315 316/316/316 317/317/317
f 315/315/315 317/317/317 318/318/318
f 319/319/319 320/320/320 321/321/321
f 319/319/319 321/321/321 322/322/322
f 323/323/323 324/324/324 325/325/325
f 323/323/323 325/325/325 326/326/326
f 327/327/327 328/328/328 329/329/329
f 327/327/327 329/329/329 330/330/330
f 331/331/331 332/332/332 333/333/333
f 331/331/331 333/333/333 334/334/334
f 335/335/335 336/336/336 337/337/337
f 335/335/335 337/337/337 338/338/338
f 339/339/339 340/340/340 341/341/341
f 339/339/339 341/341/341 342/342/342
f 343/343/343 344/344/344 345/345/345
f 343/343/343 345/345/345 346/346/346
f 347/347/347 348/348/348 349/349/349
f 347/347/347 349/349/349 350/350/350
f 351/351/351 352/352/352 353/353/353
f 351/351/351 353/353/353 354/354/354
f 355/355/355 356/356/356 357/357/357
f 355/355/355 357/357/357 358/358/358
f 359/359/359 360/360/360 361/361/361
f 359/359/359 361/361/361 362/362/362
f 363/363/363 364/364/364 365/365/365
f 363/363/363 365/365/365 366/366/366
f 367/367/367 368/368/368 369/369/369
f 367/367/367 369/369/369 370/370/370
f 371/371/371 372/372/372 373/373/373
f 371/371/371 373/373/373 374/374/374
f 375/375/375 376/376/376 377/377/377
f 375/375/375 377/377/377 378/378/378
f 379/379/379 380/380/380 381/381/381
f 379/379/379 381/381/381 382/382/382
f 383/383/383 384/384/384 385/385/385
f 383/383/383 385/385/385 386/386/386
f 387/387/387 388/388/388 389/389/389
f 387/387/387 389/389/389 390/390/390
f 391/391/391 392/392/392 393/393/393
f 391/391/391 393/393/393 394/394/394
f 395/395/395 396/396/396 397/397/397
f 395/395/395 397/397/397 398/398/398
f 399/399/399 400/400/400 401/401/401
f 399/399/399 401/401/401 402/402/402
f 403/403/403 404/404/404 405/405/405
f 403/403/403 405/405/405 406/406/406
f 407/407/407 408/408/408 409/409/409
f 407/407/407 409/409/409 410/410/410
f 411/411/411 412/412/412 413/413/413
f 411/411/411 413/413/413 414/414/414
f 415/415/415 416/416/416 417/417/417
f 415/415/415 417/417/417 418/418/418
f 419/419/419 420/420/420 421/421/421
f 419/419/419 421/421/421 422/422/422
f 423/423/423 424/424/424 425/425/425
f 423/423/423 425/425/425 426/426/426
f 427/427/427 428/428/428 429/429/429
f 427/427/427 429/429/429 430/430/430
f 431/431/431 432/432/432 433/433/433
f 431/431/431 433/433/433 434/434/434
f 435/435/435 436/436/436 437/437/437
f 435/435/435 437/437/437 438/438/438
f 439/439/439 440/440/440 441/441/441
f 439/439/439 441/441/441 442/442/442
f 443/443/443 444/444/444 445/445/445
f 443/443/443 445/445/445 446/446/446
f 447/447/447 448/448/448 449/449/449
f 447/447/447 449/449/449 450/450/450
f 451/451/451 452/452/452 453/453/453
f 451/451/451 453/453/453 454/454/454
f 455/455/455 456/456/456 457/457/457
f 455/455/455 457/457/457 458/458/458
f 459/459/459 460/460/460 461/461/461
f 459/459/459 461/461/461 462/462/462
f 463/463/463 464/464/464 465/465/465
f 463/463/463 465/465/465 466/466/466
f 467/467/467 468/468/468 469/469/469
f 467/467/467 469/469/469 470/470/470
f 471/471/471 472/472/472 473/473/473
f 471/471/471 473/473/473 474/474/474
f 475/475/475 476/476/476 477/477/477
f 475/475/475 477/477/477 478/478/478
f 479/479/479 480/480/480 481/481/481
f 479/479/479 481/481/481 482/482/482
f 483/483/483 484/484/484 485/485/485
f 483/483/483 485/485/485 486/486/486
f 487/487/487 488/488/488 489/489/489
f 487/487/487 489/489/489 490/490/490
f 491/491/491 492/492/492 493/493/493
f 491/491/491 493/493/493 494/494/494
f 495/495/495 496/496/496 497/497/497
f 495/495/495 497/497/497 498/498/498
f 499/499/499 500/500/500 501/501/501
f 499/499/499 501/501/501 502/502/502
f 503/503/503 504/504/504 505/505/505
f 503/503/503 505/505/505 506/506/506
f 507/507/507 508/508/508 509/509/509
f 507/507/507 509/509/509 510/510/510
f 511/511/511 512/512/512 513/513/513
f 511/511/511 513/513/513 514/514/514
f 515/515/515 516/516/516 517/517/517
f 515/515/515 517/517/517 518/518/518
f 519/519/519 520/520/520 521/521/521
f 519/519/519 521/521/521 522/522/522
f 523/523/523 524/524/524 525/525/525
f 523/523/523 525/525/525 526/526/526
f 527/527/527 528/528/528 529/529/529
f 527/527/527 529/529/529 530/530/530
f 531/531/531 532/532/532 533/533/533
f 531/531/531 533/533/533 534/534/534
f 535/535/535 536/536/536 537/537/537
f 535/535/535 537/537/537 538/538/538
f 539/539/539 540/540/540 541/541/541
f 539/539/539 541/541/541 542/542/542
f 543/543/543 544/544/544 545/545/545
f 543/543/543 545/545/545 546/546/546
f 547/547/547 548/548/548 549/549/549
f 547/547/547 549/549/549 550/550/550
f 551/551/551 552/552/552 553/553/553
f 551/551/551 553/553/553 554/554/554
f 555/555/555 556/556/556 557/557/557
f 555/555/555 557/557/557 558/558/558
f 559/559/559 560/560/560 561/561/561
f 559/559/559 561/561/561 562/562/562
f 563/563/563 564/564/564 565/565/565
f 563/563/563 565/565/565 566/566/566
f 567/567/567 568/568/568 569/569/569
f 567/567/567 569/569/569 570/570/570
f 571/571/571 572/572/572 573/573/573
f 571/571/571 573/573/573 574/574/574
f 575/575/575 576/576/576 577/577/577
f 575/575/575 577/577/577 578/578/578
f 579/579/579 580/580/580 581/581/581
f 579/579/579 581/581/581 582/582/582
f 583/583/583 584/584/584 585/585/585
f 583/583/583 585/585/585 586/586/586
f 587/587/587 588/588/588 589/589/589
f 587/587/587 589/589/589 590/590/590
f 591/591/591 592/592/592 593/593/593
f 591/591/591 593/593/593 594/594/594
f 595/595/595 596/596/596 597/597/597
f 595/595/595 597/597/597 598/598/598
f 599/599/599 600/600/600 601/601/601
f 599/599/599 601/601/601 602/602/602
f 603/603/603 604/604/604 605/605/605
f 603/603/603 605/605/605 606/606/606
f 607/607/607 608/608/608 609/609/609
f 607/607/607 609/609/609 610/610/610
f 611/611/611 612/612/612 613/613/613
f 611/611/611 613/613/613 614/614/614
f 615/615/615 616/616/616 617/617/617
f 615/615/615 617/617/617 618/618/618
f 619/619/619 620/620/620 621/621/621
f 619/619/619 621/621/621 622/622/622
f 623/623/623 624/624/624 625/625/625
f 623/623/623 625/625/625 626/626/626
f 627/627/627 628/628/628 629/629/629
f 627/627/627 629/629/629 630/630/630
f 631/631/631 632/632/632 633/633/633
f 631/631/631 633/633/633 634/634/634
f 635/635/635 636/636/636 637/637/637
f 635/635/635 637/637/637 638/638/638
f 639/639/639 640/640/640 641/641/641
f 639/639/639 641/641/641 642/642/642
f 643/643/643 644/644/644 645/645/645
f 643/643/643 645/645/645 646/646/646
f 647/647/647 648/648/648 649/649/649
f 647/647/647 649/649/649 650/650/650
f 651/651/651 652/652/652 653/653/653
f 651/651/651 653/653/653 654/654/654
f 655/655/655 656/656/656 657/657/657
f 655/655/655 657/657/657 658/658/658
f 659/659/659 660/660/660 661/661/661
f 659/659/659 661/661/661 662/662/662
f 663/663/663 664/664/664 665/665/665
f 663/663/663 665/665/665 666/666/666
f 667/667/667 668/668/668 669/669/669
f 667/667/667 669/669/669 670/670/670
f 671/671/671 672/672/672 673/673/673
f 671/671/671 673/673/673 674/674/674
f 675/675/675 676/676/676 677/677/677
f 675/675/675 677/677/677 678/678/678
f 679/679/679 680/680/680 681/681/681
f 679/679/679 681/681/681 682/682/682
f 683/683/683 684/684/684 685/685/685
f 683/683/683 685/685/685 686/686/686
f 687/687/687 688/688/688 689/689/689
f 687/687/687 689/689/689 690/690/690
f 691/691/691 692/692/692 693/693/693
f 691/691/691 693/693/693 694/694/694
f 695/695/695 696/696/696 697/697/697
f 695/695/695 697/697/697 698/698/698
f 699/699/699 700/700/700 701/701/701
f 699/699/699 701/701/701 702/702/702
f 703/703/703 704/704/704 705/705/705
f 703/703/703 705/705/705 706/706/706
f 707/707/707 708/708/708 709/709/709
f 707/707/707 709/709/709 710/710/710
f 711/711/711 712/712/712 713/713/713
f 711/711/711 713/713/713 714/714/714
f 715/715/715 716/716/716 717/717/717
f 715/715/715 717/717/717 718/718/718
f 732/732/732 733/733/733 719/719/719
f 719/719/719 720/720/720 721/721/721
f 721/721/721 722/722/722 723/723/723
f 726/726/726 727/727/727 728/728/728
f 728/728/728 729/729/729 730/730/730
f 730/730/730 731/731/731 732/732/732
f 732/732/732 719/719/719 721/721/721
f 721/721/721 723/723/723 724/724/724
f 725/725/725 726/726/726 728/728/728
f 728/728/728 730/730/730 732/732/732
f 732/732/732 721/721/721 724/724/724
f 724/724/724 725/725/725 728/728/728
f 728/728/728 732/732/732 724/724/724
f 734/734/734 735/735/735 736/736/736
f 734/734/734 736/736/736 737/737/737
f 738/738/738 739/739/739 740/740/740
f 738/738/738 740/740/740 741/741/741
f 742/742/742 743/743/743 744/744/744
f 742/742/742 744/744/744 745/745/745
f 746/746/746 747/747/747 748/748/748
f 746/746/746 748/748/748 749/749/749
f 750/750/750 751/751/751 752/752/752
f 750/750/750 752/752/752 753/753/753
f 754/754/754 755/755/755 756/756/756
f 754/754/754 756/756/756 757/757/757
f 758/758/758 759/759/759 760/760/760
f 758/758/758 760/760/760 761/761/761
f 762/762/762 763/763/763 764/764/764
f 762/762/762 764/764/764 765/765/765
f 766/766/766 767/767/767 768/768/768
f 766/766/766 768/768/768 769/769/769
f 770/770/770 771/771/771 772/772/772
f 770/770/770 772/772/772 773/773/773
f 774/774/774 775/775/775 776/776/776
f 774/774/774 776/776/776 777/777/777
f 778/778/778 779/779/779 780/780/780
f 778/778/778 780/780/780 781/781/781
f 782/782/782 783/783/783 784/784/784
f 782/782/782 784/784/784 785/785/785
f 786/786/786 787/787/787 788/788/788
f 786/786/786 788/788/788 789/789/789
f 790/790/790 791/791/791 792/792/792
f 790/790/790 792/792/792 793/793/793
f 794/794/794 795/795/795 796/796/796
f 794/794/794 796/796/796 797/797/797
f 798/798/798 799/799/799 800/800/800
f 798/798/798 800/800/800 801/801/801
f 802/802/802 803/803/803 804/804/804
f 802/802/802 804/804/804 805/805/805
f 806/806/806 807/807/807 808/808/808
f 806/806/806 808/808/808 809/809/809
f 810/810/810 811/811/811 812/812/812
f 810/810/810 812/812/812 813/813/813
f 814/814/814 815/815/815 816/816/816
f 814/814/814 816/816/816 817/817/817
f 818/818/818 819/819/819 820/820/820
f 818/818/818 820/820/820 821/821/821
f 822/822/822 823/823/823 824/824/824
f 822/822/822 824/824/824 825/825/825
f 826/826/826 827/827/827 828/828/828
f 826/826/826 828/828/828 829/829/829
f 830/830/830 831/831/831 832/832/832
f 830/830/830 832/832/832 833/833/833
f 834/834/834 835/835/835 836/836/836
f 834/834/834 836/836/836 837/837/837
f 838/838/838 839/839/839 840/840/840
f 838/838/838 840/840/840 841/841/841
f 842/842/842 843/843/843 844/844/844
f 842/842/842 844/844/844 845/845/845
f 846/846/846 847/847/847 848/848/848
f 846/846/846 848/848/848 849/849/849
f 850/850/850 851/851/851 852/852/852
f 850/850/850 852/852/852 853/853/853
f 854/854/854 855/855/855 856/856/856
f 854/854/854 856/856/856 857/857/857
f 858/858/858 859/859/859 860/860/860
f 858/858/858 860/860/860 861/861/861
f 862/862/862 863/863/863 864/864/864
f 862/862/862 864/864/864 865/865/865
f 866/866/866 867/867/867 868/868/868
f 866/866/866 868/868/868 869/869/869
f 870/870/870 871/871/871 872/872/872
f 870/870/870 872/872/872 873/873/873
f 874/874/874 875/875/875 876/876/876
f 874/874/874 876/876/876 877/877/877
f 878/878/878 879/879/879 880/880/880
f 878/878/878 880/880/880 881/881/881
f 882/882/882 883/883/883 884/884/884
f 882/882/882 884/884/884 885/885/885
f 886/886/886 887/887/887 888/888/888
f 886/886/886 888/888/888 889/889/889
f 890/890/890 891/891/891 892/892/892
f 890/890/890 892/892/892 893/893/893
f 894/894/894 895/895/895 896/896/896
f 894/894/894 896/896/896 897/897/897
f 898/898/898 899/899/899 900/900/900
f 898/898/898 900/900/900 901/901/901
f 902/902/902 903/903/903 904/904/904
f 902/902/902 904/904/904 905/905/905
f 906/906/906 907/907/907 908/908/908
f 906/906/906 908/908/908 909/909/909
f 910/910/910 911/911/911 912/912/912
f 910/910/910 912/912/912 913/913/913
f 914/914/914 915/915/915 916/916/916
f 914/914/914 916/916/916 917/917/917
f 918/918/918 919/919/919 920/920/920
f 918/918/918 920/920/920 921/921/921
f 922/922/922 923/923/923 924/924/924
f 922/922/922 924/924/924 925/925/925
f 926/926/926 927/927/927 928/928/928
f 926/926/926 928/928/928 929/929/929
f 934/934/934 935/935/935 930/930/930
f 930/930/930 931/931/931 932/932/932
f 932/932/932 933/933/933 934/934/934
f 934/934/934 930/930/930 932/932/932
f 936/936/936 937/937/937 938/938/938
f 936/936/936 938/938/938 939/939/939
f 944/944/944 945/945/945 940/940/940
f 940/940/940 941/941/941 942/942/942
f 942/942/942 943/943/943 944/944/944
f 944/944/944 940/940/940 942/942/942
f 950/950/950 951/951/951 946/946/946
f 946/946/946 947/947/947 948/948/948
f 948/948/948 949/949/949 950/950/950
f 950/950/950 946/946/946 948/948/948
f 952/952/952 953/953/953 954/954/954
f 952/952/952 954/954/954 955/955/955
f 961/961/961 962/962/962 956/956/956
f 956/956/956 957/957/957 958/958/958
f 958/958/958 959/959/959 960/960/960
f 961/961/961 956/956/956 958/958/958
f 958/958/958 960/960/960 961/961/961
f 968/968/968 969/969/969 963/963/963
f 964/964/964 965/965/965 966/966/966
f 966/966/966 967/967/967 968/968/968
f 968/968/968 963/963/963 964/964/964
f 964/964/964 966/966/966 968/968/968
f 970/970/970 971/971/971 972/972/972
f 970/970/970 972/972/972 973/973/973
f 987/987/987 988/988/988 974/974/974
f 974/974/974 975/975/975 976/976/976
f 976/976/976 977/977/977 978/978/978
f 978/978/978 979/979/979 980/980/980
f 983/983/983 984/984/984 985/985/985
f 985/985/985 986/986/986 987/987/987
f 987/987/987 974/974/974 976/976/976
f 976/976/976 978/978/978 980/980/980
f 982/982/982 983/983/983 985/985/985
f 985/985/985 987/987/987 976/976/976
f 976/976/976 980/980/980 981/981/981
f 981/981/981 982/982/982 985/985/985
f 985/985/985 976/976/976 981/981/981
