v 0.392939 0.198762 -0.266256
v 0.389061 0.198585 -0.264962
v 0.390107 0.198431 -0.260983
v 0.394259 0.198558 -0.261016
v 0.390107 0.198431 -0.260983
v 0.390092 0.198172 -0.25551
v 0.394168 0.198267 -0.254744
v 0.394259 0.198558 -0.261016
v 0.392939 0.198762 -0.266256
v 0.390107 0.198431 -0.260983
v 0.392307 0.197929 -0.248809
v 0.394168 0.198267 -0.254744
v 0.388925 0.197932 -0.251249
v 0.394168 0.198267 -0.254744
v 0.390092 0.198172 -0.25551
v 0.388925 0.197932 -0.251249
v 0.388925 0.197932 -0.251249
v 0.387175 0.197758 -0.24881
v 0.392307 0.197929 -0.248809
v 0.387175 0.197758 -0.24881
v 0.384653 0.197599 -0.247223
v 0.388956 0.197644 -0.245141
v 0.387175 0.197758 -0.24881
v 0.388956 0.197644 -0.245141
v 0.392307 0.197929 -0.248809
v 0.388956 0.197644 -0.245141
v 0.384653 0.197599 -0.247223
v 0.385289 0.19744 -0.243404
v 0.384653 0.197599 -0.247223
v 0.381748 0.197378 -0.243074
v 0.385289 0.19744 -0.243404
v 0.381017 0.197587 -0.247057
v 0.37852 0.197504 -0.243662
v 0.381748 0.197378 -0.243074
v 0.381017 0.197587 -0.247057
v 0.381748 0.197378 -0.243074
v 0.384653 0.197599 -0.247223
v 0.378467 0.197709 -0.248083
v 0.37852 0.197504 -0.243662
v 0.381017 0.197587 -0.247057
v 0.376297 0.197889 -0.250424
v 0.375016 0.197711 -0.245636
v 0.378467 0.197709 -0.248083
v 0.378467 0.197709 -0.248083
v 0.375016 0.197711 -0.245636
v 0.37852 0.197504 -0.243662
v 0.376297 0.197889 -0.250424
v 0.371923 0.197998 -0.249621
v 0.375016 0.197711 -0.245636
v 0.371923 0.197998 -0.249621
v 0.374727 0.198157 -0.255122
v 0.370371 0.198319 -0.255465
v 0.371923 0.197998 -0.249621
v 0.376297 0.197889 -0.250424
v 0.374727 0.198157 -0.255122
v 0.370462 0.198604 -0.261737
v 0.370371 0.198319 -0.255465
v 0.374727 0.198157 -0.255122
v 0.374695 0.198435 -0.261127
v 0.375766 0.19859 -0.265143
v 0.372323 0.198815 -0.267672
v 0.370462 0.198604 -0.261737
v 0.374695 0.198435 -0.261127
v 0.378015 0.198675 -0.268277
v 0.375675 0.198885 -0.27134
v 0.372323 0.198815 -0.267672
v 0.372323 0.198815 -0.267672
v 0.375766 0.19859 -0.265143
v 0.378015 0.198675 -0.268277
v 0.378015 0.198675 -0.268277
v 0.381062 0.198651 -0.269581
v 0.379342 0.198864 -0.273077
v 0.378015 0.198675 -0.268277
v 0.379342 0.198864 -0.273077
v 0.375675 0.198885 -0.27134
v 0.381062 0.198651 -0.269581
v 0.382882 0.19878 -0.273407
v 0.379342 0.198864 -0.273077
v 0.384298 0.198639 -0.269483
v 0.38637 0.198863 -0.272743
v 0.382882 0.19878 -0.273407
v 0.381062 0.198651 -0.269581
v 0.384298 0.198639 -0.269483
v 0.382882 0.19878 -0.273407
v 0.384298 0.198639 -0.269483
v 0.387069 0.19866 -0.267964
v 0.38637 0.198863 -0.272743
v 0.389061 0.198585 -0.264962
v 0.392939 0.198762 -0.266256
v 0.390232 0.198872 -0.270309
v 0.387069 0.19866 -0.267964
v 0.387069 0.19866 -0.267964
v 0.390232 0.198872 -0.270309
v 0.38637 0.198863 -0.272743
vn -0.0301 0.9985 0.0464
vn -0.0301 0.9985 0.0464
vn -0.0301 0.9985 0.0464
vn -0.031 0.9984 0.0465
vn -0.031 0.9984 0.0465
vn -0.031 0.9984 0.0465
vn -0.031 0.9984 0.0465
vn -0.03 0.9985 0.0464
vn -0.03 0.9985 0.0464
vn -0.03 0.9985 0.0464
vn -0.0328 0.9984 0.0465
vn -0.0328 0.9984 0.0465
vn -0.0328 0.9984 0.0465
vn -0.0321 0.9984 0.0475
vn -0.0321 0.9984 0.0475
vn -0.0321 0.9984 0.0475
vn -0.0333 0.9983 0.0472
vn -0.0333 0.9983 0.0472
vn -0.0333 0.9983 0.0472
vn -0.0333 0.9983 0.0472
vn -0.0333 0.9983 0.0472
vn -0.0333 0.9983 0.0472
vn -0.0333 0.9983 0.0472
vn -0.0333 0.9983 0.0472
vn -0.0333 0.9983 0.0472
vn -0.0333 0.9983 0.0472
vn -0.0333 0.9983 0.0472
vn -0.0333 0.9983 0.0472
vn -0.0132 0.9989 0.0439
vn -0.0132 0.9989 0.0439
vn -0.0132 0.9989 0.0439
vn 0.0303 0.9984 0.0468
vn 0.0303 0.9984 0.0468
vn 0.0303 0.9984 0.0468
vn -0.0009 0.9986 0.0525
vn -0.0009 0.9986 0.0525
vn -0.0009 0.9986 0.0525
vn 0.0292 0.9985 0.046
vn 0.0292 0.9985 0.046
vn 0.0292 0.9985 0.046
vn 0.0333 0.9984 0.0459
vn 0.0333 0.9984 0.0459
vn 0.0333 0.9984 0.0459
vn 0.0333 0.9984 0.0459
vn 0.0333 0.9984 0.0459
vn 0.0333 0.9984 0.0459
vn 0.0333 0.9984 0.0459
vn 0.0333 0.9984 0.0459
vn 0.0333 0.9984 0.0459
vn 0.0333 0.9984 0.0459
vn 0.0333 0.9984 0.0459
vn 0.0333 0.9984 0.0459
vn 0.0333 0.9984 0.0459
vn 0.0333 0.9984 0.0459
vn 0.0333 0.9984 0.0459
vn 0.0333 0.9984 0.0459
vn 0.0333 0.9984 0.0459
vn 0.0333 0.9984 0.0459
vn 0.0333 0.9984 0.0459
vn 0.0323 0.9984 0.0463
vn 0.0323 0.9984 0.0463
vn 0.0323 0.9984 0.0463
vn 0.0323 0.9984 0.0463
vn 0.0294 0.9985 0.0462
vn 0.0294 0.9985 0.0462
vn 0.0294 0.9985 0.0462
vn 0.0297 0.9984 0.0483
vn 0.0297 0.9984 0.0483
vn 0.0297 0.9984 0.0483
vn 0.0281 0.9985 0.0472
vn 0.0281 0.9985 0.0472
vn 0.0281 0.9985 0.0472
vn 0.0281 0.9985 0.0472
vn 0.0281 0.9985 0.0472
vn 0.0281 0.9985 0.0472
vn 0.0281 0.9985 0.0472
vn 0.0281 0.9985 0.0472
vn 0.0281 0.9985 0.0472
vn -0.0326 0.9983 0.0476
vn -0.0326 0.9983 0.0476
vn -0.0326 0.9983 0.0476
vn 0.0024 0.9994 0.035
vn 0.0024 0.9994 0.035
vn 0.0024 0.9994 0.035
vn -0.0333 0.9983 0.0472
vn -0.0333 0.9983 0.0472
vn -0.0333 0.9983 0.0472
vn -0.0309 0.9984 0.0469
vn -0.0309 0.9984 0.0469
vn -0.0309 0.9984 0.0469
vn -0.0309 0.9984 0.0469
vn -0.032 0.9984 0.047
vn -0.032 0.9984 0.047
vn -0.032 0.9984 0.047
vt 0.705255 0.378214
vt 0.703229 0.37889
vt 0.703776 0.380968
vt 0.705945 0.380951
vt 0.703776 0.380968
vt 0.703768 0.383827
vt 0.705897 0.384227
vt 0.705945 0.380951
vt 0.705255 0.378214
vt 0.703776 0.380968
vt 0.704925 0.387327
vt 0.705897 0.384227
vt 0.703159 0.386053
vt 0.705897 0.384227
vt 0.703768 0.383827
vt 0.703159 0.386053
vt 0.703159 0.386053
vt 0.702244 0.387327
vt 0.704925 0.387327
vt 0.702244 0.387327
vt 0.700927 0.388156
vt 0.703174 0.389243
vt 0.702244 0.387327
vt 0.703174 0.389243
vt 0.704925 0.387327
vt 0.703174 0.389243
vt 0.700927 0.388156
vt 0.701259 0.390151
vt 0.700927 0.388156
vt 0.69941 0.390323
vt 0.701259 0.390151
vt 0.699028 0.388242
vt 0.697723 0.390016
vt 0.69941 0.390323
vt 0.699028 0.388242
vt 0.69941 0.390323
vt 0.700927 0.388156
vt 0.697696 0.387707
vt 0.697723 0.390016
vt 0.699028 0.388242
vt 0.696562 0.386484
vt 0.695893 0.388985
vt 0.697696 0.387707
vt 0.697696 0.387707
vt 0.695893 0.388985
vt 0.697723 0.390016
vt 0.696562 0.386484
vt 0.694278 0.386903
vt 0.695893 0.388985
vt 0.694278 0.386903
vt 0.695742 0.384029
vt 0.693467 0.38385
vt 0.694278 0.386903
vt 0.696562 0.386484
vt 0.695742 0.384029
vt 0.693514 0.380574
vt 0.693467 0.38385
vt 0.695742 0.384029
vt 0.695725 0.380893
vt 0.696285 0.378795
vt 0.694486 0.377474
vt 0.693514 0.380574
vt 0.695725 0.380893
vt 0.697459 0.377158
vt 0.696237 0.375558
vt 0.694486 0.377474
vt 0.694486 0.377474
vt 0.696285 0.378795
vt 0.697459 0.377158
vt 0.697459 0.377158
vt 0.699051 0.376477
vt 0.698152 0.374651
vt 0.697459 0.377158
vt 0.698152 0.374651
vt 0.696237 0.375558
vt 0.699051 0.376477
vt 0.700002 0.374478
vt 0.698152 0.374651
vt 0.700741 0.376528
vt 0.701824 0.374825
vt 0.700002 0.374478
vt 0.699051 0.376477
vt 0.700741 0.376528
vt 0.700002 0.374478
vt 0.700741 0.376528
vt 0.702189 0.377322
vt 0.701824 0.374825
vt 0.703229 0.37889
vt 0.705255 0.378214
vt 0.703841 0.376097
vt 0.702189 0.377322
vt 0.702189 0.377322
vt 0.703841 0.376097
vt 0.701824 0.374825
s off
f 1/1/1 2/2/2 3/3/3
f 4/4/4 5/5/5 6/6/6
f 4/4/4 6/6/6 7/7/7
f 8/8/8 9/9/9 10/10/10
f 11/11/11 12/12/12 13/13/13
f 14/14/14 15/15/15 16/16/16
f 17/17/17 18/18/18 19/19/19
f 20/20/20 21/21/21 22/22/22
f 23/23/23 24/24/24 25/25/25
f 26/26/26 27/27/27 28/28/28
f 29/29/29 30/30/30 31/31/31
f 32/32/32 33/33/33 34/34/34
f 35/35/35 36/36/36 37/37/37
f 38/38/38 39/39/39 40/40/40
f 41/41/41 42/42/42 43/43/43
f 44/44/44 45/45/45 46/46/46
f 47/47/47 48/48/48 49/49/49
f 50/50/50 51/51/51 52/52/52
f 53/53/53 54/54/54 55/55/55
f 56/56/56 57/57/57 58/58/58
f 56/56/56 58/58/58 59/59/59
f 60/60/60 61/61/61 62/62/62
f 60/60/60 62/62/62 63/63/63
f 64/64/64 65/65/65 66/66/66
f 67/67/67 68/68/68 69/69/69
f 70/70/70 71/71/71 72/72/72
f 73/73/73 74/74/74 75/75/75
f 76/76/76 77/77/77 78/78/78
f 79/79/79 80/80/80 81/81/81
f 82/82/82 83/83/83 84/84/84
f 85/85/85 86/86/86 87/87/87
f 88/88/88 89/89/89 90/90/90
f 88/88/88 90/90/90 91/91/91
f 92/92/92 93/93/93 94/94/94
