v -0.778566 0.198965 -0.26941
v -0.771848 0.198759 -0.26941
v -0.778566 0.199134 -0.273082
v -0.771848 0.198759 -0.26941
v -0.767708 0.198816 -0.273082
v -0.778566 0.199134 -0.273082
v -0.771848 0.198759 -0.26941
v -0.767708 0.19742 -0.243556
v -0.767708 0.198816 -0.273082
v -0.771848 0.197552 -0.243556
v -0.767708 0.19742 -0.243556
v -0.771848 0.198759 -0.26941
vn 0.0307 0.9985 0.0459
vn 0.0307 0.9985 0.0459
vn 0.0307 0.9985 0.0459
vn 0.0292 0.9984 0.0485
vn 0.0292 0.9984 0.0485
vn 0.0292 0.9984 0.0485
vn 0.0281 0.9985 0.0472
vn 0.0281 0.9985 0.0472
vn 0.0281 0.9985 0.0472
vn 0.0318 0.9984 0.0466
vn 0.0318 0.9984 0.0466
vn 0.0318 0.9984 0.0466
vt 0.09331 0.376566
vt 0.096819 0.376566
vt 0.09331 0.374648
vt 0.096819 0.376566
vt 0.098981 0.374648
vt 0.09331 0.374648
vt 0.096819 0.376566
vt 0.098981 0.390071
vt 0.098981 0.374648
vt 0.096819 0.390071
vt 0.098981 0.390071
vt 0.096819 0.376566
s off
f 1/1/1 2/2/2 3/3/3
f 4/4/4 5/5/5 6/6/6
f 7/7/7 8/8/8 9/9/9
f 10/10/10 11/11/11 12/12/12
