v -0.636739 0.198153 -0.259117
v -0.632266 0.198271 -0.258465
v -0.634879 0.198327 -0.261504
v -0.649917 0.197872 -0.246368
v -0.643825 0.197705 -0.247149
v -0.636739 0.198153 -0.259117
v -0.632266 0.198271 -0.258465
v -0.636739 0.198153 -0.259117
v -0.643825 0.197705 -0.247149
v -0.634879 0.198327 -0.261504
v -0.632266 0.198271 -0.258465
v -0.630313 0.198523 -0.262414
v -0.634167 0.198461 -0.263831
v -0.630313 0.198523 -0.262414
v -0.629992 0.19872 -0.266452
v -0.634879 0.198327 -0.261504
v -0.630313 0.198523 -0.262414
v -0.634167 0.198461 -0.263831
v -0.629992 0.19872 -0.266452
v -0.63432 0.198573 -0.266307
v -0.634167 0.198461 -0.263831
v -0.63432 0.198573 -0.266307
v -0.631294 0.19883 -0.269641
v -0.635844 0.19862 -0.26837
v -0.63432 0.198573 -0.266307
v -0.629992 0.19872 -0.266452
v -0.631294 0.19883 -0.269641
v -0.635844 0.19862 -0.26837
v -0.631294 0.19883 -0.269641
v -0.63349 0.198856 -0.271694
v -0.635844 0.19862 -0.26837
v -0.63349 0.198856 -0.271694
v -0.636555 0.198812 -0.272934
v -0.638693 0.198607 -0.269486
v -0.636555 0.198812 -0.272934
v -0.640438 0.19884 -0.273358
v -0.635844 0.19862 -0.26837
v -0.636555 0.198812 -0.272934
v -0.638693 0.198607 -0.269486
v -0.642304 0.198709 -0.269484
v -0.638693 0.198607 -0.269486
v -0.640438 0.19884 -0.273358
v -0.645001 0.198937 -0.272705
v -0.645707 0.198754 -0.268414
v -0.642304 0.198709 -0.269484
v -0.642304 0.198709 -0.269484
v -0.640438 0.19884 -0.273358
v -0.645001 0.198937 -0.272705
v -0.648859 0.198964 -0.270873
v -0.645707 0.198754 -0.268414
v -0.645001 0.198937 -0.272705
v -0.645707 0.198754 -0.268414
v -0.648859 0.198964 -0.270873
v -0.65095 0.198942 -0.268879
v -0.65095 0.198942 -0.268879
v -0.648052 0.19873 -0.266373
v -0.645707 0.198754 -0.268414
v -0.643825 0.197705 -0.247149
v -0.649917 0.197739 -0.243478
v -0.628671 0.197682 -0.243478
v -0.628671 0.197856 -0.247149
v -0.643825 0.197705 -0.247149
v -0.649917 0.197872 -0.246368
v -0.649917 0.197739 -0.243478
vn -0.0333 0.9983 0.0472
vn -0.0333 0.9983 0.0472
vn -0.0333 0.9983 0.0472
vn 0.0348 0.9977 0.058
vn 0.0348 0.9977 0.058
vn 0.0348 0.9977 0.058
vn -0.0294 0.9994 0.02
vn -0.0294 0.9994 0.02
vn -0.0294 0.9994 0.02
vn -0.0333 0.9983 0.0472
vn -0.0333 0.9983 0.0472
vn -0.0333 0.9983 0.0472
vn -0.0329 0.9984 0.0461
vn -0.0329 0.9984 0.0461
vn -0.0329 0.9984 0.0461
vn -0.0333 0.9983 0.0472
vn -0.0333 0.9983 0.0472
vn -0.0333 0.9983 0.0472
vn -0.0323 0.9984 0.0471
vn -0.0323 0.9984 0.0471
vn -0.0323 0.9984 0.0471
vn -0.033 0.9984 0.047
vn -0.033 0.9984 0.047
vn -0.033 0.9984 0.047
vn -0.0323 0.9983 0.0476
vn -0.0323 0.9983 0.0476
vn -0.0323 0.9983 0.0476
vn -0.0328 0.9983 0.0475
vn -0.0328 0.9983 0.0475
vn -0.0328 0.9983 0.0475
vn -0.0333 0.9983 0.0472
vn -0.0333 0.9983 0.0472
vn -0.0333 0.9983 0.0472
vn 0.0006 0.9982 0.0596
vn 0.0006 0.9982 0.0596
vn 0.0006 0.9982 0.0596
vn -0.0222 0.9987 0.0455
vn -0.0222 0.9987 0.0455
vn -0.0222 0.9987 0.0455
vn 0.0281 0.9985 0.0472
vn 0.0281 0.9985 0.0472
vn 0.0281 0.9985 0.0472
vn 0.0281 0.9985 0.0472
vn 0.0281 0.9985 0.0472
vn 0.0281 0.9985 0.0472
vn 0.0281 0.9985 0.0472
vn 0.0281 0.9985 0.0472
vn 0.0281 0.9985 0.0472
vn 0.0294 0.9984 0.0474
vn 0.0294 0.9984 0.0474
vn 0.0294 0.9984 0.0474
vn 0.0318 0.9985 0.0443
vn 0.0318 0.9985 0.0443
vn 0.0318 0.9985 0.0443
vn 0.0314 0.9983 0.0481
vn 0.0314 0.9983 0.0481
vn 0.0314 0.9983 0.0481
vn -0.0026 0.9999 0.0168
vn -0.0026 0.9999 0.0168
vn -0.0026 0.9999 0.0168
vn -0.0026 0.9999 0.0168
vn 0.0333 0.9984 0.0459
vn 0.0333 0.9984 0.0459
vn 0.0333 0.9984 0.0459
vt 0.167394 0.381943
vt 0.169731 0.382283
vt 0.168366 0.380696
vt 0.16051 0.388603
vt 0.163693 0.388195
vt 0.167394 0.381943
vt 0.169731 0.382283
vt 0.167394 0.381943
vt 0.163693 0.388195
vt 0.168366 0.380696
vt 0.169731 0.382283
vt 0.170751 0.380221
vt 0.168738 0.37948
vt 0.170751 0.380221
vt 0.170919 0.378112
vt 0.168366 0.380696
vt 0.170751 0.380221
vt 0.168738 0.37948
vt 0.170919 0.378112
vt 0.168658 0.378187
vt 0.168738 0.37948
vt 0.168658 0.378187
vt 0.170238 0.376445
vt 0.167862 0.37711
vt 0.168658 0.378187
vt 0.170919 0.378112
vt 0.170238 0.376445
vt 0.167862 0.37711
vt 0.170238 0.376445
vt 0.169091 0.375373
vt 0.167862 0.37711
vt 0.169091 0.375373
vt 0.16749 0.374725
vt 0.166374 0.376526
vt 0.16749 0.374725
vt 0.165462 0.374504
vt 0.167862 0.37711
vt 0.16749 0.374725
vt 0.166374 0.376526
vt 0.164487 0.376528
vt 0.166374 0.376526
vt 0.165462 0.374504
vt 0.163078 0.374845
vt 0.16271 0.377087
vt 0.164487 0.376528
vt 0.164487 0.376528
vt 0.165462 0.374504
vt 0.163078 0.374845
vt 0.161063 0.375802
vt 0.16271 0.377087
vt 0.163078 0.374845
vt 0.16271 0.377087
vt 0.161063 0.375802
vt 0.159971 0.376844
vt 0.159971 0.376844
vt 0.161485 0.378152
vt 0.16271 0.377087
vt 0.163693 0.388195
vt 0.16051 0.390112
vt 0.171608 0.390112
vt 0.171608 0.388195
vt 0.163693 0.388195
vt 0.16051 0.388603
vt 0.16051 0.390112
s off
f 1/1/1 2/2/2 3/3/3
f 4/4/4 5/5/5 6/6/6
f 7/7/7 8/8/8 9/9/9
f 10/10/10 11/11/11 12/12/12
f 13/13/13 14/14/14 15/15/15
f 16/16/16 17/17/17 18/18/18
f 19/19/19 20/20/20 21/21/21
f 22/22/22 23/23/23 24/24/24
f 25/25/25 26/26/26 27/27/27
f 28/28/28 29/29/29 30/30/30
f 31/31/31 32/32/32 33/33/33
f 34/34/34 35/35/35 36/36/36
f 37/37/37 38/38/38 39/39/39
f 40/40/40 41/41/41 42/42/42
f 43/43/43 44/44/44 45/45/45
f 46/46/46 47/47/47 48/48/48
f 49/49/49 50/50/50 51/51/51
f 52/52/52 53/53/53 54/54/54
f 55/55/55 56/56/56 57/57/57
f 58/58/58 59/59/59 60/60/60
f 58/58/58 60/60/60 61/61/61
f 62/62/62 63/63/63 64/64/64
