v -0.503098 0.197796 -0.247332
v -0.501887 0.197967 -0.250103
v -0.505975 0.197871 -0.250962
v -0.507177 0.19772 -0.248611
v -0.501703 0.198152 -0.253887
v -0.505972 0.197992 -0.253511
v -0.505975 0.197871 -0.250962
v -0.501887 0.197967 -0.250103
v -0.507177 0.19772 -0.248611
v -0.51045 0.197538 -0.247075
v -0.509466 0.197395 -0.243343
v -0.507177 0.19772 -0.248611
v -0.5053 0.197615 -0.245068
v -0.503098 0.197796 -0.247332
v -0.507177 0.19772 -0.248611
v -0.509466 0.197395 -0.243343
v -0.5053 0.197615 -0.245068
v -0.516017 0.197698 -0.247121
v -0.515199 0.197493 -0.243263
v -0.509466 0.197395 -0.243343
v -0.516017 0.197698 -0.247121
v -0.509466 0.197395 -0.243343
v -0.51045 0.197538 -0.247075
v -0.521631 0.198005 -0.249739
v -0.520501 0.197731 -0.244581
v -0.516017 0.197698 -0.247121
v -0.516017 0.197698 -0.247121
v -0.520501 0.197731 -0.244581
v -0.515199 0.197493 -0.243263
v -0.520501 0.197731 -0.244581
v -0.521631 0.198005 -0.249739
v -0.523699 0.197933 -0.246666
v -0.505972 0.197992 -0.253511
v -0.503103 0.198256 -0.257071
v -0.507541 0.198056 -0.255973
v -0.505972 0.197992 -0.253511
v -0.501703 0.198152 -0.253887
v -0.503103 0.198256 -0.257071
v -0.507541 0.198056 -0.255973
v -0.503103 0.198256 -0.257071
v -0.505682 0.198279 -0.259382
v -0.507541 0.198056 -0.255973
v -0.505682 0.198279 -0.259382
v -0.510496 0.198183 -0.260745
v -0.502835 0.198878 -0.270192
v -0.508068 0.198673 -0.26941
v -0.510496 0.198183 -0.260745
v -0.510496 0.198183 -0.260745
v -0.515489 0.198297 -0.260272
v -0.511169 0.198033 -0.257271
v -0.511169 0.198033 -0.257271
v -0.507541 0.198056 -0.255973
v -0.510496 0.198183 -0.260745
v -0.515489 0.198297 -0.260272
v -0.510496 0.198183 -0.260745
v -0.508068 0.198673 -0.26941
v -0.522285 0.198932 -0.26941
v -0.508068 0.198673 -0.26941
v -0.522285 0.199101 -0.273082
v -0.508068 0.198673 -0.26941
v -0.502835 0.198878 -0.270192
v -0.502835 0.199011 -0.273082
v -0.508068 0.198673 -0.26941
v -0.502835 0.199011 -0.273082
v -0.522285 0.199101 -0.273082
v -0.515489 0.198297 -0.260272
v -0.515489 0.198156 -0.257303
v -0.511169 0.198033 -0.257271
vn -0.0333 0.9983 0.0472
vn -0.0333 0.9983 0.0472
vn -0.0333 0.9983 0.0472
vn -0.0333 0.9983 0.0472
vn -0.0333 0.9983 0.0472
vn -0.0333 0.9983 0.0472
vn -0.0333 0.9983 0.0472
vn -0.0333 0.9983 0.0472
vn -0.0333 0.9983 0.0472
vn -0.0333 0.9983 0.0472
vn -0.0333 0.9983 0.0472
vn -0.0333 0.9983 0.0472
vn -0.0333 0.9983 0.0472
vn -0.0333 0.9983 0.0472
vn -0.0333 0.9983 0.0472
vn -0.0333 0.9983 0.0472
vn -0.0333 0.9983 0.0472
vn 0.0178 0.9986 0.0492
vn 0.0178 0.9986 0.0492
vn 0.0178 0.9986 0.0492
vn 0.0284 0.9991 0.031
vn 0.0284 0.9991 0.031
vn 0.0284 0.9991 0.031
vn 0.0333 0.9984 0.0459
vn 0.0333 0.9984 0.0459
vn 0.0333 0.9984 0.0459
vn 0.0333 0.9984 0.0459
vn 0.0333 0.9984 0.0459
vn 0.0333 0.9984 0.0459
vn 0.0333 0.9984 0.0459
vn 0.0333 0.9984 0.0459
vn 0.0333 0.9984 0.0459
vn -0.0333 0.9983 0.0472
vn -0.0333 0.9983 0.0472
vn -0.0333 0.9983 0.0472
vn -0.0333 0.9983 0.0472
vn -0.0333 0.9983 0.0472
vn -0.0333 0.9983 0.0472
vn -0.0333 0.9983 0.0472
vn -0.0333 0.9983 0.0472
vn -0.0333 0.9983 0.0472
vn -0.0333 0.9983 0.0472
vn -0.0333 0.9983 0.0472
vn -0.0333 0.9983 0.0472
vn -0.032 0.9984 0.0476
vn -0.032 0.9984 0.0476
vn -0.032 0.9984 0.0476
vn 0.0273 0.9985 0.0483
vn 0.0273 0.9985 0.0483
vn 0.0273 0.9985 0.0483
vn -0.0202 0.999 0.0391
vn -0.0202 0.999 0.0391
vn -0.0202 0.999 0.0391
vn 0.0289 0.9975 0.0646
vn 0.0289 0.9975 0.0646
vn 0.0289 0.9975 0.0646
vn 0.0182 0.9988 0.0459
vn 0.0182 0.9988 0.0459
vn 0.0182 0.9988 0.0459
vn -0.0322 0.9984 0.0459
vn -0.0322 0.9984 0.0459
vn -0.0322 0.9984 0.0459
vn 0.0046 0.9952 0.0981
vn 0.0046 0.9952 0.0981
vn 0.0046 0.9952 0.0981
vn 0.0281 0.9985 0.0472
vn 0.0281 0.9985 0.0472
vn 0.0281 0.9985 0.0472
vt 0.237203 0.388099
vt 0.237835 0.386651
vt 0.2357 0.386202
vt 0.235072 0.387431
vt 0.237931 0.384675
vt 0.235701 0.384871
vt 0.2357 0.386202
vt 0.237835 0.386651
vt 0.235072 0.387431
vt 0.233363 0.388233
vt 0.233876 0.390183
vt 0.235072 0.387431
vt 0.236052 0.389282
vt 0.237203 0.388099
vt 0.235072 0.387431
vt 0.233876 0.390183
vt 0.236052 0.389282
vt 0.230454 0.388209
vt 0.230882 0.390224
vt 0.233876 0.390183
vt 0.230454 0.388209
vt 0.233876 0.390183
vt 0.233363 0.388233
vt 0.227522 0.386842
vt 0.228112 0.389536
vt 0.230454 0.388209
vt 0.230454 0.388209
vt 0.228112 0.389536
vt 0.230882 0.390224
vt 0.228112 0.389536
vt 0.227522 0.386842
vt 0.226442 0.388447
vt 0.235701 0.384871
vt 0.2372 0.383012
vt 0.234882 0.383585
vt 0.235701 0.384871
vt 0.237931 0.384675
vt 0.2372 0.383012
vt 0.234882 0.383585
vt 0.2372 0.383012
vt 0.235853 0.381804
vt 0.234882 0.383585
vt 0.235853 0.381804
vt 0.233338 0.381092
vt 0.23734 0.376158
vt 0.234606 0.376566
vt 0.233338 0.381092
vt 0.233338 0.381092
vt 0.23073 0.38134
vt 0.232986 0.382907
vt 0.232986 0.382907
vt 0.234882 0.383585
vt 0.233338 0.381092
vt 0.23073 0.38134
vt 0.233338 0.381092
vt 0.234606 0.376566
vt 0.22718 0.376566
vt 0.234606 0.376566
vt 0.22718 0.374648
vt 0.234606 0.376566
vt 0.23734 0.376158
vt 0.23734 0.374648
vt 0.234606 0.376566
vt 0.23734 0.374648
vt 0.22718 0.374648
vt 0.23073 0.38134
vt 0.23073 0.38289
vt 0.232986 0.382907
s off
f 1/1/1 2/2/2 3/3/3
f 1/1/1 3/3/3 4/4/4
f 5/5/5 6/6/6 7/7/7
f 5/5/5 7/7/7 8/8/8
f 9/9/9 10/10/10 11/11/11
f 12/12/12 13/13/13 14/14/14
f 15/15/15 16/16/16 17/17/17
f 18/18/18 19/19/19 20/20/20
f 21/21/21 22/22/22 23/23/23
f 24/24/24 25/25/25 26/26/26
f 27/27/27 28/28/28 29/29/29
f 30/30/30 31/31/31 32/32/32
f 33/33/33 34/34/34 35/35/35
f 36/36/36 37/37/37 38/38/38
f 39/39/39 40/40/40 41/41/41
f 42/42/42 43/43/43 44/44/44
f 45/45/45 46/46/46 47/47/47
f 48/48/48 49/49/49 50/50/50
f 51/51/51 52/52/52 53/53/53
f 54/54/54 55/55/55 56/56/56
f 57/57/57 58/58/58 59/59/59
f 60/60/60 61/61/61 62/62/62
f 63/63/63 64/64/64 65/65/65
f 66/66/66 67/67/67 68/68/68
