v -0.378483 0.197516 -0.243556
v -0.374421 0.197652 -0.243556
v -0.374421 0.197995 -0.25082
v -0.378483 0.197516 -0.243556
v -0.374421 0.197995 -0.25082
v -0.378483 0.197859 -0.25082
v -0.378483 0.197859 -0.25082
v -0.389653 0.198076 -0.254413
v -0.394886 0.198085 -0.25082
v -0.378327 0.198035 -0.254413
v -0.378483 0.197859 -0.25082
v -0.374421 0.197995 -0.25082
v -0.374421 0.198165 -0.254413
v -0.378327 0.198035 -0.254413
v -0.389653 0.198076 -0.254413
v -0.378483 0.197859 -0.25082
v -0.378327 0.198035 -0.254413
v -0.374421 0.198468 -0.260818
v -0.378327 0.198337 -0.260818
v -0.378327 0.198035 -0.254413
v -0.374421 0.198165 -0.254413
v -0.374421 0.198468 -0.260818
v -0.368797 0.198333 -0.254413
v -0.374421 0.198165 -0.254413
v -0.374421 0.197995 -0.25082
v -0.374421 0.197995 -0.25082
v -0.368797 0.198168 -0.25082
v -0.368797 0.198333 -0.254413
v -0.379811 0.198868 -0.273082
v -0.389653 0.198076 -0.254413
v -0.375202 0.199011 -0.273082
v -0.394886 0.198218 -0.25371
v -0.394886 0.198085 -0.25082
v -0.389653 0.198076 -0.254413
v -0.394886 0.198218 -0.25371
v -0.389653 0.198076 -0.254413
v -0.379811 0.198868 -0.273082
vn -0.0333 0.9983 0.0472
vn -0.0333 0.9983 0.0472
vn -0.0333 0.9983 0.0472
vn -0.0333 0.9983 0.0472
vn -0.0333 0.9983 0.0472
vn -0.0333 0.9983 0.0472
vn 0.0138 0.9998 0.0174
vn 0.0138 0.9998 0.0174
vn 0.0138 0.9998 0.0174
vn -0.0333 0.9983 0.0472
vn -0.0333 0.9983 0.0472
vn -0.0333 0.9983 0.0472
vn -0.0333 0.9983 0.0472
vn 0.0036 0.9988 0.0488
vn 0.0036 0.9988 0.0488
vn 0.0036 0.9988 0.0488
vn -0.0333 0.9983 0.0472
vn -0.0333 0.9983 0.0472
vn -0.0333 0.9983 0.0472
vn -0.0333 0.9983 0.0472
vn -0.0333 0.9983 0.0472
vn -0.0333 0.9983 0.0472
vn -0.0298 0.9984 0.0472
vn -0.0298 0.9984 0.0472
vn -0.0298 0.9984 0.0472
vn -0.0306 0.9985 0.0459
vn -0.0306 0.9985 0.0459
vn -0.0306 0.9985 0.0459
vn -0.0311 0.9992 0.026
vn -0.0311 0.9992 0.026
vn -0.0311 0.9992 0.026
vn 0.0333 0.9984 0.0459
vn 0.0333 0.9984 0.0459
vn 0.0333 0.9984 0.0459
vn 0.0353 0.9975 0.0609
vn 0.0353 0.9975 0.0609
vn 0.0353 0.9975 0.0609
vt 0.302297 0.390071
vt 0.304418 0.390071
vt 0.304418 0.386277
vt 0.302297 0.390071
vt 0.304418 0.386277
vt 0.302297 0.386277
vt 0.302297 0.386277
vt 0.296462 0.3844
vt 0.293728 0.386277
vt 0.302378 0.3844
vt 0.302297 0.386277
vt 0.304418 0.386277
vt 0.304418 0.3844
vt 0.302378 0.3844
vt 0.296462 0.3844
vt 0.302297 0.386277
vt 0.302378 0.3844
vt 0.304418 0.381054
vt 0.302378 0.381054
vt 0.302378 0.3844
vt 0.304418 0.3844
vt 0.304418 0.381054
vt 0.307356 0.3844
vt 0.304418 0.3844
vt 0.304418 0.386277
vt 0.304418 0.386277
vt 0.307356 0.386277
vt 0.307356 0.3844
vt 0.301603 0.374648
vt 0.296462 0.3844
vt 0.30401 0.374648
vt 0.293728 0.384767
vt 0.293728 0.386277
vt 0.296462 0.3844
vt 0.293728 0.384767
vt 0.296462 0.3844
vt 0.301603 0.374648
s off
f 1/1/1 2/2/2 3/3/3
f 4/4/4 5/5/5 6/6/6
f 7/7/7 8/8/8 9/9/9
f 10/10/10 11/11/11 12/12/12
f 10/10/10 12/12/12 13/13/13
f 14/14/14 15/15/15 16/16/16
f 17/17/17 18/18/18 19/19/19
f 20/20/20 21/21/21 22/22/22
f 23/23/23 24/24/24 25/25/25
f 26/26/26 27/27/27 28/28/28
f 29/29/29 30/30/30 31/31/31
f 32/32/32 33/33/33 34/34/34
f 35/35/35 36/36/36 37/37/37
