v -0.246171 0.198078 -0.252153
v -0.250493 0.197932 -0.252108
v -0.247147 0.197863 -0.248295
v -0.246171 0.198078 -0.252153
v -0.247105 0.198256 -0.256578
v -0.251247 0.198056 -0.255258
v -0.250493 0.197932 -0.252108
v -0.250493 0.197932 -0.252108
v -0.251177 0.197789 -0.249573
v -0.247147 0.197863 -0.248295
v -0.251177 0.197789 -0.249573
v -0.254025 0.197589 -0.247343
v -0.249557 0.197646 -0.24539
v -0.247147 0.197863 -0.248295
v -0.251177 0.197789 -0.249573
v -0.249557 0.197646 -0.24539
v -0.254025 0.197589 -0.247343
v -0.254519 0.197383 -0.243342
v -0.249557 0.197646 -0.24539
v -0.260585 0.197696 -0.247193
v -0.260283 0.197512 -0.243407
v -0.254519 0.197383 -0.243342
v -0.260585 0.197696 -0.247193
v -0.254519 0.197383 -0.243342
v -0.254025 0.197589 -0.247343
v -0.266337 0.198012 -0.2499
v -0.264304 0.197693 -0.244417
v -0.260585 0.197696 -0.247193
v -0.260585 0.197696 -0.247193
v -0.264304 0.197693 -0.244417
v -0.260283 0.197512 -0.243407
v -0.266337 0.198012 -0.2499
v -0.26832 0.19793 -0.246662
v -0.264304 0.197693 -0.244417
v -0.251247 0.198056 -0.255258
v -0.249824 0.198299 -0.259395
v -0.253763 0.19805 -0.256917
v -0.251247 0.198056 -0.255258
v -0.247105 0.198256 -0.256578
v -0.249824 0.198299 -0.259395
v -0.253506 0.198245 -0.260853
v -0.253763 0.19805 -0.256917
v -0.249824 0.198299 -0.259395
v -0.257302 0.198089 -0.257598
v -0.253506 0.198245 -0.260853
v -0.261769 0.198391 -0.261327
v -0.253506 0.198245 -0.260853
v -0.257302 0.198089 -0.257598
v -0.253763 0.19805 -0.256917
v -0.26616 0.198361 -0.257616
v -0.257302 0.198089 -0.257598
v -0.261769 0.198391 -0.261327
v -0.264597 0.199026 -0.273082
v -0.26616 0.198361 -0.257616
v -0.261004 0.198751 -0.26941
v -0.26616 0.198361 -0.257616
v -0.261769 0.198391 -0.261327
v -0.261004 0.198751 -0.26941
v -0.264597 0.199026 -0.273082
v -0.261004 0.198751 -0.26941
v -0.24796 0.198831 -0.26941
v -0.24796 0.198831 -0.26941
v -0.24796 0.199 -0.273082
v -0.264597 0.199026 -0.273082
vn -0.0333 0.9983 0.0472
vn -0.0333 0.9983 0.0472
vn -0.0333 0.9983 0.0472
vn -0.0333 0.9983 0.0472
vn -0.0333 0.9983 0.0472
vn -0.0333 0.9983 0.0472
vn -0.0333 0.9983 0.0472
vn -0.0333 0.9983 0.0472
vn -0.0333 0.9983 0.0472
vn -0.0333 0.9983 0.0472
vn -0.0333 0.9983 0.0472
vn -0.0333 0.9983 0.0472
vn -0.0333 0.9983 0.0472
vn -0.0333 0.9983 0.0472
vn -0.0333 0.9983 0.0472
vn -0.0333 0.9983 0.0472
vn -0.0333 0.9983 0.0472
vn -0.0333 0.9983 0.0472
vn -0.0333 0.9983 0.0472
vn 0.0218 0.9987 0.0468
vn 0.0218 0.9987 0.0468
vn 0.0218 0.9987 0.0468
vn 0.0175 0.9984 0.0535
vn 0.0175 0.9984 0.0535
vn 0.0175 0.9984 0.0535
vn 0.0333 0.9984 0.0459
vn 0.0333 0.9984 0.0459
vn 0.0333 0.9984 0.0459
vn 0.0333 0.9984 0.0459
vn 0.0333 0.9984 0.0459
vn 0.0333 0.9984 0.0459
vn 0.0333 0.9984 0.0459
vn 0.0333 0.9984 0.0459
vn 0.0333 0.9984 0.0459
vn -0.0333 0.9983 0.0472
vn -0.0333 0.9983 0.0472
vn -0.0333 0.9983 0.0472
vn -0.0333 0.9983 0.0472
vn -0.0333 0.9983 0.0472
vn -0.0333 0.9983 0.0472
vn -0.0333 0.9983 0.0472
vn -0.0333 0.9983 0.0472
vn -0.0333 0.9983 0.0472
vn 0.0139 0.9978 0.0642
vn 0.0139 0.9978 0.0642
vn 0.0139 0.9978 0.0642
vn 0.0013 0.9988 0.0495
vn 0.0013 0.9988 0.0495
vn 0.0013 0.9988 0.0495
vn 0.0307 0.9986 0.0441
vn 0.0307 0.9986 0.0441
vn 0.0307 0.9986 0.0441
vn 0.0295 0.9985 0.0459
vn 0.0295 0.9985 0.0459
vn 0.0295 0.9985 0.0459
vn 0.0337 0.9983 0.0477
vn 0.0337 0.9983 0.0477
vn 0.0337 0.9983 0.0477
vn -0.0061 0.9967 0.0805
vn -0.0061 0.9967 0.0805
vn -0.0061 0.9967 0.0805
vn 0.0016 0.9989 0.0459
vn 0.0016 0.9989 0.0459
vn 0.0016 0.9989 0.0459
vt 0.371411 0.385581
vt 0.369153 0.385604
vt 0.370901 0.387596
vt 0.371411 0.385581
vt 0.370923 0.383269
vt 0.368759 0.383959
vt 0.369153 0.385604
vt 0.369153 0.385604
vt 0.368796 0.386928
vt 0.370901 0.387596
vt 0.368796 0.386928
vt 0.367308 0.388093
vt 0.369642 0.389113
vt 0.370901 0.387596
vt 0.368796 0.386928
vt 0.369642 0.389113
vt 0.367308 0.388093
vt 0.36705 0.390183
vt 0.369642 0.389113
vt 0.363882 0.388171
vt 0.364039 0.390149
vt 0.36705 0.390183
vt 0.363882 0.388171
vt 0.36705 0.390183
vt 0.367308 0.388093
vt 0.360877 0.386758
vt 0.361939 0.389621
vt 0.363882 0.388171
vt 0.363882 0.388171
vt 0.361939 0.389621
vt 0.364039 0.390149
vt 0.360877 0.386758
vt 0.359841 0.388449
vt 0.361939 0.389621
vt 0.368759 0.383959
vt 0.369503 0.381797
vt 0.367445 0.383092
vt 0.368759 0.383959
vt 0.370923 0.383269
vt 0.369503 0.381797
vt 0.367579 0.381036
vt 0.367445 0.383092
vt 0.369503 0.381797
vt 0.365596 0.382736
vt 0.367579 0.381036
vt 0.363263 0.380789
vt 0.367579 0.381036
vt 0.365596 0.382736
vt 0.367445 0.383092
vt 0.360969 0.382727
vt 0.365596 0.382736
vt 0.363263 0.380789
vt 0.361786 0.374648
vt 0.360969 0.382727
vt 0.363662 0.376566
vt 0.360969 0.382727
vt 0.363263 0.380789
vt 0.363662 0.376566
vt 0.361786 0.374648
vt 0.363662 0.376566
vt 0.370476 0.376566
vt 0.370476 0.376566
vt 0.370476 0.374648
vt 0.361786 0.374648
s off
f 1/1/1 2/2/2 3/3/3
f 4/4/4 5/5/5 6/6/6
f 4/4/4 6/6/6 7/7/7
f 8/8/8 9/9/9 10/10/10
f 11/11/11 12/12/12 13/13/13
f 14/14/14 15/15/15 16/16/16
f 17/17/17 18/18/18 19/19/19
f 20/20/20 21/21/21 22/22/22
f 23/23/23 24/24/24 25/25/25
f 26/26/26 27/27/27 28/28/28
f 29/29/29 30/30/30 31/31/31
f 32/32/32 33/33/33 34/34/34
f 35/35/35 36/36/36 37/37/37
f 38/38/38 39/39/39 40/40/40
f 41/41/41 42/42/42 43/43/43
f 44/44/44 45/45/45 46/46/46
f 47/47/47 48/48/48 49/49/49
f 50/50/50 51/51/51 52/52/52
f 53/53/53 54/54/54 55/55/55
f 56/56/56 57/57/57 58/58/58
f 59/59/59 60/60/60 61/61/61
f 62/62/62 63/63/63 64/64/64
