v -0.126937 0.197378 -0.243269
v -0.124724 0.197625 -0.246928
v -0.12748 0.197516 -0.246575
v -0.12748 0.197516 -0.246575
v -0.13121 0.197645 -0.247286
v -0.132426 0.19754 -0.244178
v -0.126937 0.197378 -0.243269
v -0.126937 0.197378 -0.243269
v -0.123334 0.197524 -0.243816
v -0.124724 0.197625 -0.246928
v -0.121885 0.197806 -0.248763
v -0.124724 0.197625 -0.246928
v -0.123334 0.197524 -0.243816
v -0.120409 0.197685 -0.245156
v -0.121885 0.197806 -0.248763
v -0.120409 0.197685 -0.245156
v -0.118103 0.197871 -0.247462
v -0.118103 0.197871 -0.247462
v -0.116808 0.198056 -0.250478
v -0.120761 0.197968 -0.251395
v -0.121885 0.197806 -0.248763
v -0.116726 0.198228 -0.254098
v -0.121064 0.198119 -0.254799
v -0.120761 0.197968 -0.251395
v -0.120761 0.197968 -0.251395
v -0.116808 0.198056 -0.250478
v -0.116726 0.198228 -0.254098
v -0.121064 0.198119 -0.254799
v -0.116726 0.198228 -0.254098
v -0.1182 0.198357 -0.257814
v -0.12359 0.198154 -0.257332
v -0.1182 0.198357 -0.257814
v -0.121214 0.198373 -0.260281
v -0.121064 0.198119 -0.254799
v -0.1182 0.198357 -0.257814
v -0.12359 0.198154 -0.257332
v -0.126966 0.198079 -0.258128
v -0.12359 0.198154 -0.257332
v -0.125548 0.198291 -0.2616
v -0.12359 0.198154 -0.257332
v -0.121214 0.198373 -0.260281
v -0.125548 0.198291 -0.2616
v -0.126966 0.198079 -0.258128
v -0.125548 0.198291 -0.2616
v -0.130771 0.198281 -0.261002
v -0.130771 0.198281 -0.261002
v -0.133637 0.19829 -0.259495
v -0.132451 0.198113 -0.256453
v -0.129712 0.198099 -0.257793
v -0.129712 0.198099 -0.257793
v -0.126966 0.198079 -0.258128
v -0.130771 0.198281 -0.261002
v -0.132451 0.198113 -0.256453
v -0.135239 0.198261 -0.257815
v -0.134273 0.198021 -0.253289
v -0.135239 0.198261 -0.257815
v -0.132451 0.198113 -0.256453
v -0.133637 0.19829 -0.259495
v -0.139527 0.198401 -0.257756
v -0.135239 0.198261 -0.257815
v -0.135178 0.198439 -0.261721
v -0.139527 0.198401 -0.257756
v -0.134273 0.198021 -0.253289
v -0.135239 0.198261 -0.257815
v -0.139527 0.198401 -0.257756
v -0.135178 0.198439 -0.261721
v -0.138806 0.198654 -0.263762
v -0.138841 0.198127 -0.252274
v -0.134273 0.198021 -0.253289
v -0.139527 0.198401 -0.257756
v -0.136786 0.197849 -0.247725
v -0.134273 0.198021 -0.253289
v -0.138841 0.198127 -0.252274
v -0.132426 0.19754 -0.244178
v -0.13121 0.197645 -0.247286
v -0.136786 0.197849 -0.247725
v -0.136786 0.197849 -0.247725
v -0.133756 0.197848 -0.249911
v -0.134273 0.198021 -0.253289
v -0.136786 0.197849 -0.247725
v -0.13121 0.197645 -0.247286
v -0.133756 0.197848 -0.249911
v -0.136388 0.198806 -0.268761
v -0.138806 0.198654 -0.263762
v -0.135178 0.198439 -0.261721
v -0.132764 0.19863 -0.267198
v -0.132764 0.19863 -0.267198
v -0.13259 0.198848 -0.271924
v -0.136388 0.198806 -0.268761
v -0.128328 0.198624 -0.269708
v -0.13259 0.198848 -0.271924
v -0.132764 0.19863 -0.267198
v -0.12319 0.198761 -0.269873
v -0.124152 0.198904 -0.273578
v -0.128328 0.198624 -0.269708
v -0.128754 0.198803 -0.273254
v -0.128328 0.198624 -0.269708
v -0.124152 0.198904 -0.273578
v -0.128328 0.198624 -0.269708
v -0.128754 0.198803 -0.273254
v -0.13259 0.198848 -0.271924
v -0.12319 0.198761 -0.269873
v -0.119892 0.198996 -0.27275
v -0.124152 0.198904 -0.273578
v -0.119808 0.19881 -0.268653
v -0.118138 0.199004 -0.271835
v -0.119892 0.198996 -0.27275
v -0.119892 0.198996 -0.27275
v -0.12319 0.198761 -0.269873
v -0.119808 0.19881 -0.268653
vn -0.0333 0.9983 0.0472
vn -0.0333 0.9983 0.0472
vn -0.0333 0.9983 0.0472
vn 0.0244 0.9989 0.0404
vn 0.0244 0.9989 0.0404
vn 0.0244 0.9989 0.0404
vn 0.0244 0.9989 0.0404
vn -0.0333 0.9983 0.0472
vn -0.0333 0.9983 0.0472
vn -0.0333 0.9983 0.0472
vn -0.0333 0.9983 0.0472
vn -0.0333 0.9983 0.0472
vn -0.0333 0.9983 0.0472
vn -0.0333 0.9983 0.0472
vn -0.0333 0.9983 0.0472
vn -0.0333 0.9983 0.0472
vn -0.0333 0.9983 0.0472
vn -0.0333 0.9983 0.0472
vn -0.0333 0.9983 0.0472
vn -0.0333 0.9983 0.0472
vn -0.0333 0.9983 0.0472
vn -0.0327 0.9984 0.0471
vn -0.0327 0.9984 0.0471
vn -0.0327 0.9984 0.0471
vn -0.0331 0.9984 0.0465
vn -0.0331 0.9984 0.0465
vn -0.0331 0.9984 0.0465
vn -0.0328 0.9983 0.0477
vn -0.0328 0.9983 0.0477
vn -0.0328 0.9983 0.0477
vn -0.0333 0.9983 0.0472
vn -0.0333 0.9983 0.0472
vn -0.0333 0.9983 0.0472
vn -0.0333 0.9983 0.0472
vn -0.0333 0.9983 0.0472
vn -0.0333 0.9983 0.0472
vn -0.0333 0.9983 0.0472
vn -0.0333 0.9983 0.0472
vn -0.0333 0.9983 0.0472
vn -0.0333 0.9983 0.0472
vn -0.0333 0.9983 0.0472
vn -0.0333 0.9983 0.0472
vn 0.0053 0.998 0.0629
vn 0.0053 0.998 0.0629
vn 0.0053 0.998 0.0629
vn 0.0281 0.9985 0.0472
vn 0.0281 0.9985 0.0472
vn 0.0281 0.9985 0.0472
vn 0.0281 0.9985 0.0472
vn 0.0136 0.9986 0.052
vn 0.0136 0.9986 0.052
vn 0.0136 0.9986 0.052
vn 0.0303 0.9985 0.0466
vn 0.0303 0.9985 0.0466
vn 0.0303 0.9985 0.0466
vn 0.0305 0.9985 0.0463
vn 0.0305 0.9985 0.0463
vn 0.0305 0.9985 0.0463
vn 0.0333 0.9984 0.0459
vn 0.0333 0.9984 0.0459
vn 0.0333 0.9984 0.0459
vn 0.0333 0.9984 0.0459
vn 0.0333 0.9984 0.0459
vn 0.0333 0.9984 0.0459
vn 0.0333 0.9984 0.0459
vn 0.0333 0.9984 0.0459
vn 0.0333 0.9984 0.0459
vn 0.0333 0.9984 0.0459
vn 0.0333 0.9984 0.0459
vn 0.0333 0.9984 0.0459
vn 0.0333 0.9984 0.0459
vn 0.0333 0.9984 0.0459
vn 0.0333 0.9984 0.0459
vn 0.0329 0.9984 0.0465
vn 0.0329 0.9984 0.0465
vn 0.0329 0.9984 0.0465
vn 0.0333 0.9984 0.0459
vn 0.0333 0.9984 0.0459
vn 0.0333 0.9984 0.0459
vn 0.033 0.9984 0.0454
vn 0.033 0.9984 0.0454
vn 0.033 0.9984 0.0454
vn 0.0306 0.9984 0.0468
vn 0.0306 0.9984 0.0468
vn 0.0306 0.9984 0.0468
vn 0.0306 0.9984 0.0468
vn 0.0281 0.9985 0.0472
vn 0.0281 0.9985 0.0472
vn 0.0281 0.9985 0.0472
vn 0.0281 0.9985 0.0472
vn 0.0281 0.9985 0.0472
vn 0.0281 0.9985 0.0472
vn -0.0252 0.9987 0.0451
vn -0.0252 0.9987 0.0451
vn -0.0252 0.9987 0.0451
vn -0.0181 0.9984 0.0528
vn -0.0181 0.9984 0.0528
vn -0.0181 0.9984 0.0528
vn 0.0281 0.9985 0.0472
vn 0.0281 0.9985 0.0472
vn 0.0281 0.9985 0.0472
vn -0.0308 0.9984 0.0466
vn -0.0308 0.9984 0.0466
vn -0.0308 0.9984 0.0466
vn -0.0281 0.9986 0.0459
vn -0.0281 0.9986 0.0459
vn -0.0281 0.9986 0.0459
vn -0.0313 0.9985 0.046
vn -0.0313 0.9985 0.046
vn -0.0313 0.9985 0.046
vt 0.433693 0.390221
vt 0.43485 0.38831
vt 0.43341 0.388494
vt 0.43341 0.388494
vt 0.431461 0.388123
vt 0.430827 0.389746
vt 0.433693 0.390221
vt 0.433693 0.390221
vt 0.435576 0.389936
vt 0.43485 0.38831
vt 0.436333 0.387351
vt 0.43485 0.38831
vt 0.435576 0.389936
vt 0.437104 0.389235
vt 0.436333 0.387351
vt 0.437104 0.389235
vt 0.438308 0.388031
vt 0.438308 0.388031
vt 0.438984 0.386456
vt 0.43692 0.385976
vt 0.436333 0.387351
vt 0.439027 0.384565
vt 0.436761 0.384198
vt 0.43692 0.385976
vt 0.43692 0.385976
vt 0.438984 0.386456
vt 0.439027 0.384565
vt 0.436761 0.384198
vt 0.439027 0.384565
vt 0.438257 0.382623
vt 0.435442 0.382875
vt 0.438257 0.382623
vt 0.436683 0.381335
vt 0.436761 0.384198
vt 0.438257 0.382623
vt 0.435442 0.382875
vt 0.433679 0.382459
vt 0.435442 0.382875
vt 0.434419 0.380646
vt 0.435442 0.382875
vt 0.436683 0.381335
vt 0.434419 0.380646
vt 0.433679 0.382459
vt 0.434419 0.380646
vt 0.431691 0.380958
vt 0.431691 0.380958
vt 0.430194 0.381745
vt 0.430813 0.383334
vt 0.432244 0.382634
vt 0.432244 0.382634
vt 0.433679 0.382459
vt 0.431691 0.380958
vt 0.430813 0.383334
vt 0.429357 0.382623
vt 0.429861 0.384987
vt 0.429357 0.382623
vt 0.430813 0.383334
vt 0.430194 0.381745
vt 0.427117 0.382654
vt 0.429357 0.382623
vt 0.429389 0.380583
vt 0.427117 0.382654
vt 0.429861 0.384987
vt 0.429357 0.382623
vt 0.427117 0.382654
vt 0.429389 0.380583
vt 0.427494 0.379516
vt 0.427475 0.385517
vt 0.429861 0.384987
vt 0.427117 0.382654
vt 0.428549 0.387894
vt 0.429861 0.384987
vt 0.427475 0.385517
vt 0.430827 0.389746
vt 0.431461 0.388123
vt 0.428549 0.387894
vt 0.428549 0.387894
vt 0.430132 0.386752
vt 0.429861 0.384987
vt 0.428549 0.387894
vt 0.431461 0.388123
vt 0.430132 0.386752
vt 0.428757 0.376905
vt 0.427494 0.379516
vt 0.429389 0.380583
vt 0.43065 0.377722
vt 0.43065 0.377722
vt 0.430741 0.375253
vt 0.428757 0.376905
vt 0.432967 0.37641
vt 0.430741 0.375253
vt 0.43065 0.377722
vt 0.435651 0.376324
vt 0.435149 0.374389
vt 0.432967 0.37641
vt 0.432744 0.374558
vt 0.432967 0.37641
vt 0.435149 0.374389
vt 0.432967 0.37641
vt 0.432744 0.374558
vt 0.430741 0.375253
vt 0.435651 0.376324
vt 0.437374 0.374822
vt 0.435149 0.374389
vt 0.437418 0.376962
vt 0.43829 0.375299
vt 0.437374 0.374822
vt 0.437374 0.374822
vt 0.435651 0.376324
vt 0.437418 0.376962
s off
f 1/1/1 2/2/2 3/3/3
f 4/4/4 5/5/5 6/6/6
f 4/4/4 6/6/6 7/7/7
f 8/8/8 9/9/9 10/10/10
f 11/11/11 12/12/12 13/13/13
f 11/11/11 13/13/13 14/14/14
f 15/15/15 16/16/16 17/17/17
f 18/18/18 19/19/19 20/20/20
f 18/18/18 20/20/20 21/21/21
f 22/22/22 23/23/23 24/24/24
f 25/25/25 26/26/26 27/27/27
f 28/28/28 29/29/29 30/30/30
f 31/31/31 32/32/32 33/33/33
f 34/34/34 35/35/35 36/36/36
f 37/37/37 38/38/38 39/39/39
f 40/40/40 41/41/41 42/42/42
f 43/43/43 44/44/44 45/45/45
f 46/46/46 47/47/47 48/48/48
f 46/46/46 48/48/48 49/49/49
f 50/50/50 51/51/51 52/52/52
f 53/53/53 54/54/54 55/55/55
f 56/56/56 57/57/57 58/58/58
f 59/59/59 60/60/60 61/61/61
f 62/62/62 63/63/63 64/64/64
f 65/65/65 66/66/66 67/67/67
f 68/68/68 69/69/69 70/70/70
f 71/71/71 72/72/72 73/73/73
f 74/74/74 75/75/75 76/76/76
f 77/77/77 78/78/78 79/79/79
f 80/80/80 81/81/81 82/82/82
f 83/83/83 84/84/84 85/85/85
f 83/83/83 85/85/85 86/86/86
f 87/87/87 88/88/88 89/89/89
f 90/90/90 91/91/91 92/92/92
f 93/93/93 94/94/94 95/95/95
f 96/96/96 97/97/97 98/98/98
f 99/99/99 100/100/100 101/101/101
f 102/102/102 103/103/103 104/104/104
f 105/105/105 106/106/106 107/107/107
f 108/108/108 109/109/109 110/110/110
