v -0.012847 0.199138 -0.273082
v -0.008785 0.198837 -0.26941
v 0.009415 0.199059 -0.273082
v 0.00465 0.198745 -0.26941
v 0.009415 0.198926 -0.270192
v 0.009415 0.199059 -0.273082
v 0.00465 0.198745 -0.26941
v 0.009415 0.199059 -0.273082
v -0.008785 0.198837 -0.26941
v -0.006988 0.197585 -0.243556
v -0.002536 0.197439 -0.243556
v 0.00465 0.198745 -0.26941
v 0.00465 0.198745 -0.26941
v -0.002536 0.197439 -0.243556
v 0.009415 0.198926 -0.270192
v -0.008785 0.198837 -0.26941
v -0.012847 0.198725 -0.264099
v -0.008785 0.19859 -0.264099
v -0.012847 0.198725 -0.264099
v -0.008785 0.198837 -0.26941
v -0.012847 0.199138 -0.273082
vn 0.0036 0.997 0.0778
vn 0.0036 0.997 0.0778
vn 0.0036 0.997 0.0778
vn -0.0303 0.9985 0.0459
vn -0.0303 0.9985 0.0459
vn -0.0303 0.9985 0.0459
vn 0.0068 0.9956 0.0938
vn 0.0068 0.9956 0.0938
vn 0.0068 0.9956 0.0938
vn 0.0327 0.9977 0.0595
vn 0.0327 0.9977 0.0595
vn 0.0327 0.9977 0.0595
vn -0.0309 0.9986 0.0418
vn -0.0309 0.9986 0.0418
vn -0.0309 0.9986 0.0418
vn 0.0333 0.9984 0.0465
vn 0.0333 0.9984 0.0465
vn 0.0333 0.9984 0.0465
vn 0.0325 0.9984 0.0459
vn 0.0325 0.9984 0.0459
vn 0.0325 0.9984 0.0459
vt 0.49329 0.374648
vt 0.495411 0.376566
vt 0.504918 0.374648
vt 0.502429 0.376566
vt 0.504918 0.376158
vt 0.504918 0.374648
vt 0.502429 0.376566
vt 0.504918 0.374648
vt 0.495411 0.376566
vt 0.49635 0.390071
vt 0.498675 0.390071
vt 0.502429 0.376566
vt 0.502429 0.376566
vt 0.498675 0.390071
vt 0.504918 0.376158
vt 0.495411 0.376566
vt 0.49329 0.379341
vt 0.495411 0.379341
vt 0.49329 0.379341
vt 0.495411 0.376566
vt 0.49329 0.374648
s off
f 1/1/1 2/2/2 3/3/3
f 4/4/4 5/5/5 6/6/6
f 7/7/7 8/8/8 9/9/9
f 10/10/10 11/11/11 12/12/12
f 13/13/13 14/14/14 15/15/15
f 16/16/16 17/17/17 18/18/18
f 19/19/19 20/20/20 21/21/21
