v 0.119498 0.198077 -0.253406
v 0.121078 0.19813 -0.255712
v 0.116725 0.198327 -0.256831
v 0.124274 0.198101 -0.257064
v 0.120239 0.198315 -0.259123
v 0.121078 0.19813 -0.255712
v 0.121078 0.19813 -0.255712
v 0.120239 0.198315 -0.259123
v 0.116725 0.198327 -0.256831
v 0.120239 0.198315 -0.259123
v 0.124668 0.19826 -0.260646
v 0.121902 0.198394 -0.261844
v 0.121902 0.198394 -0.261844
v 0.117877 0.198466 -0.260692
v 0.120239 0.198315 -0.259123
v 0.124274 0.198101 -0.257064
v 0.124668 0.19826 -0.260646
v 0.120239 0.198315 -0.259123
v 0.128882 0.198052 -0.257145
v 0.128712 0.198208 -0.260576
v 0.124668 0.19826 -0.260646
v 0.124274 0.198101 -0.257064
v 0.131652 0.198355 -0.261614
v 0.128712 0.198208 -0.260576
v 0.128882 0.198052 -0.257145
v 0.128882 0.198052 -0.257145
v 0.132284 0.198109 -0.255961
v 0.133465 0.198298 -0.259125
v 0.131652 0.198355 -0.261614
v 0.134249 0.198059 -0.253517
v 0.136984 0.198307 -0.256831
v 0.132284 0.198109 -0.255961
v 0.132284 0.198109 -0.255961
v 0.136984 0.198307 -0.256831
v 0.133465 0.198298 -0.259125
v 0.13492 0.198386 -0.259959
v 0.131652 0.198355 -0.261614
v 0.133465 0.198298 -0.259125
v 0.136833 0.198548 -0.262122
v 0.133058 0.198478 -0.263226
v 0.13492 0.198386 -0.259959
v 0.133058 0.198478 -0.263226
v 0.131652 0.198355 -0.261614
v 0.13492 0.198386 -0.259959
v 0.13352 0.198597 -0.265413
v 0.133058 0.198478 -0.263226
v 0.136833 0.198548 -0.262122
v 0.132705 0.198681 -0.267751
v 0.13352 0.198597 -0.265413
v 0.136819 0.19886 -0.268903
v 0.137564 0.198713 -0.26525
v 0.13352 0.198597 -0.265413
v 0.136833 0.198548 -0.262122
v 0.13352 0.198597 -0.265413
v 0.137564 0.198713 -0.26525
v 0.136819 0.19886 -0.268903
v 0.132705 0.198681 -0.267751
v 0.136819 0.19886 -0.268903
v 0.133638 0.198914 -0.272019
v 0.130476 0.198686 -0.269441
v 0.133638 0.198914 -0.272019
v 0.129191 0.198825 -0.273292
v 0.132705 0.198681 -0.267751
v 0.133638 0.198914 -0.272019
v 0.130476 0.198686 -0.269441
v 0.130476 0.198686 -0.269441
v 0.129191 0.198825 -0.273292
v 0.126612 0.198647 -0.270003
v 0.126612 0.198647 -0.270003
v 0.123667 0.198883 -0.273234
v 0.123435 0.19871 -0.269433
v 0.126612 0.198647 -0.270003
v 0.129191 0.198825 -0.273292
v 0.123667 0.198883 -0.273234
v 0.123435 0.19871 -0.269433
v 0.123667 0.198883 -0.273234
v 0.119433 0.198924 -0.271581
v 0.121243 0.198698 -0.267885
v 0.119433 0.198924 -0.271581
v 0.117278 0.198888 -0.269445
v 0.121243 0.198698 -0.267885
v 0.123435 0.19871 -0.269433
v 0.119433 0.198924 -0.271581
v 0.116264 0.198803 -0.266853
v 0.120476 0.198635 -0.266095
v 0.121243 0.198698 -0.267885
v 0.117278 0.198888 -0.269445
v 0.116264 0.198803 -0.266853
v 0.120499 0.198534 -0.263964
v 0.120476 0.198635 -0.266095
v 0.116264 0.198803 -0.266853
v 0.116327 0.198654 -0.263665
v 0.120499 0.198534 -0.263964
v 0.120499 0.198534 -0.263964
v 0.116327 0.198654 -0.263665
v 0.117877 0.198466 -0.260692
v 0.120499 0.198534 -0.263964
v 0.117877 0.198466 -0.260692
v 0.121902 0.198394 -0.261844
v 0.134249 0.198059 -0.253517
v 0.138536 0.198196 -0.253412
v 0.136984 0.198307 -0.256831
v 0.138309 0.19799 -0.249193
v 0.138536 0.198196 -0.253412
v 0.134249 0.198059 -0.253517
v 0.134287 0.197932 -0.250798
v 0.138309 0.19799 -0.249193
v 0.132988 0.197777 -0.248442
v 0.135746 0.197737 -0.245634
v 0.134287 0.197932 -0.250798
v 0.132988 0.197777 -0.248442
v 0.138309 0.19799 -0.249193
v 0.132988 0.197777 -0.248442
v 0.129336 0.197577 -0.246778
v 0.132071 0.197529 -0.243844
v 0.135746 0.197737 -0.245634
v 0.132988 0.197777 -0.248442
v 0.132071 0.197529 -0.243844
v 0.129336 0.197577 -0.246778
v 0.127611 0.197349 -0.243141
v 0.132071 0.197529 -0.243844
v 0.12364 0.197636 -0.246827
v 0.122827 0.19751 -0.243508
v 0.127611 0.197349 -0.243141
v 0.12364 0.197636 -0.246827
v 0.127611 0.197349 -0.243141
v 0.129336 0.197577 -0.246778
v 0.120312 0.197847 -0.248994
v 0.118431 0.197739 -0.245292
v 0.12364 0.197636 -0.246827
v 0.12364 0.197636 -0.246827
v 0.118431 0.197739 -0.245292
v 0.122827 0.19751 -0.243508
v 0.120312 0.197847 -0.248994
v 0.115447 0.198009 -0.248991
v 0.118431 0.197739 -0.245292
v 0.119468 0.197967 -0.250995
v 0.115447 0.198009 -0.248991
v 0.120312 0.197847 -0.248994
v 0.115447 0.198009 -0.248991
v 0.119468 0.197967 -0.250995
v 0.119498 0.198077 -0.253406
v 0.115173 0.198221 -0.253412
v 0.115173 0.198221 -0.253412
v 0.119498 0.198077 -0.253406
v 0.116725 0.198327 -0.256831
vn 0.0333 0.9984 0.0459
vn 0.0333 0.9984 0.0459
vn 0.0333 0.9984 0.0459
vn 0.0288 0.9985 0.047
vn 0.0288 0.9985 0.047
vn 0.0288 0.9985 0.047
vn 0.0333 0.9984 0.0459
vn 0.0333 0.9984 0.0459
vn 0.0333 0.9984 0.0459
vn 0.0284 0.9985 0.0464
vn 0.0284 0.9985 0.0464
vn 0.0284 0.9985 0.0464
vn 0.0316 0.9983 0.0484
vn 0.0316 0.9983 0.0484
vn 0.0316 0.9983 0.0484
vn 0.0287 0.9985 0.0473
vn 0.0287 0.9985 0.0473
vn 0.0287 0.9985 0.0473
vn 0.0117 0.9989 0.0452
vn 0.0117 0.9989 0.0452
vn 0.0117 0.9989 0.0452
vn 0.0117 0.9989 0.0452
vn -0.0333 0.9983 0.0472
vn -0.0333 0.9983 0.0472
vn -0.0333 0.9983 0.0472
vn -0.0333 0.9983 0.0472
vn -0.0333 0.9983 0.0472
vn -0.0333 0.9983 0.0472
vn -0.0333 0.9983 0.0472
vn -0.0333 0.9983 0.0472
vn -0.0333 0.9983 0.0472
vn -0.0333 0.9983 0.0472
vn -0.0333 0.9983 0.0472
vn -0.0333 0.9983 0.0472
vn -0.0333 0.9983 0.0472
vn -0.0333 0.9983 0.0472
vn -0.0333 0.9983 0.0472
vn -0.0333 0.9983 0.0472
vn -0.0321 0.9984 0.0465
vn -0.0321 0.9984 0.0465
vn -0.0321 0.9984 0.0465
vn -0.0333 0.9983 0.0472
vn -0.0333 0.9983 0.0472
vn -0.0333 0.9983 0.0472
vn -0.0323 0.9984 0.0474
vn -0.0323 0.9984 0.0474
vn -0.0323 0.9984 0.0474
vn -0.0305 0.9985 0.0462
vn -0.0305 0.9985 0.0462
vn -0.0305 0.9985 0.0462
vn -0.0304 0.9985 0.0454
vn -0.0304 0.9985 0.0454
vn -0.0304 0.9985 0.0454
vn -0.0304 0.9985 0.0464
vn -0.0304 0.9985 0.0464
vn -0.0304 0.9985 0.0464
vn -0.0301 0.9984 0.0479
vn -0.0301 0.9984 0.0479
vn -0.0301 0.9984 0.0479
vn -0.0333 0.9983 0.0472
vn -0.0333 0.9983 0.0472
vn -0.0333 0.9983 0.0472
vn -0.0333 0.9983 0.0472
vn -0.0333 0.9983 0.0472
vn -0.0333 0.9983 0.0472
vn -0.0161 0.999 0.0415
vn -0.0161 0.999 0.0415
vn -0.0161 0.999 0.0415
vn 0.0281 0.9985 0.0472
vn 0.0281 0.9985 0.0472
vn 0.0281 0.9985 0.0472
vn 0.011 0.998 0.0627
vn 0.011 0.998 0.0627
vn 0.011 0.998 0.0627
vn 0.0281 0.9985 0.0472
vn 0.0281 0.9985 0.0472
vn 0.0281 0.9985 0.0472
vn 0.0296 0.9985 0.0465
vn 0.0296 0.9985 0.0465
vn 0.0296 0.9985 0.0465
vn 0.0281 0.9985 0.0472
vn 0.0281 0.9985 0.0472
vn 0.0281 0.9985 0.0472
vn 0.0306 0.9985 0.0463
vn 0.0306 0.9985 0.0463
vn 0.0306 0.9985 0.0463
vn 0.0306 0.9985 0.0463
vn 0.0313 0.9984 0.0472
vn 0.0313 0.9984 0.0472
vn 0.0313 0.9984 0.0472
vn 0.0321 0.9984 0.0459
vn 0.0321 0.9984 0.0459
vn 0.0321 0.9984 0.0459
vn 0.0322 0.9984 0.0465
vn 0.0322 0.9984 0.0465
vn 0.0322 0.9984 0.0465
vn 0.0308 0.9985 0.0454
vn 0.0308 0.9985 0.0454
vn 0.0308 0.9985 0.0454
vn -0.033 0.9983 0.0475
vn -0.033 0.9983 0.0475
vn -0.033 0.9983 0.0475
vn -0.0331 0.9983 0.047
vn -0.0331 0.9983 0.047
vn -0.0331 0.9983 0.047
vn -0.0331 0.9983 0.047
vn -0.0333 0.9983 0.0472
vn -0.0333 0.9983 0.0472
vn -0.0333 0.9983 0.0472
vn -0.0333 0.9983 0.0472
vn -0.0333 0.9983 0.0472
vn -0.0333 0.9983 0.0472
vn -0.0333 0.9983 0.0472
vn -0.0333 0.9983 0.0472
vn -0.0333 0.9983 0.0472
vn -0.0333 0.9983 0.0472
vn -0.0333 0.9983 0.0472
vn -0.0333 0.9983 0.0472
vn -0.033 0.9984 0.0468
vn -0.033 0.9984 0.0468
vn -0.033 0.9984 0.0468
vn 0.0302 0.9985 0.0452
vn 0.0302 0.9985 0.0452
vn 0.0302 0.9985 0.0452
vn 0.0098 0.9977 0.0671
vn 0.0098 0.9977 0.0671
vn 0.0098 0.9977 0.0671
vn 0.0333 0.9984 0.0459
vn 0.0333 0.9984 0.0459
vn 0.0333 0.9984 0.0459
vn 0.0333 0.9984 0.0459
vn 0.0333 0.9984 0.0459
vn 0.0333 0.9984 0.0459
vn 0.0333 0.9984 0.0459
vn 0.0333 0.9984 0.0459
vn 0.0333 0.9984 0.0459
vn 0.0333 0.9984 0.0459
vn 0.0333 0.9984 0.0459
vn 0.0333 0.9984 0.0459
vn 0.0333 0.9984 0.0459
vn 0.0333 0.9984 0.0459
vn 0.0333 0.9984 0.0459
vn 0.0333 0.9984 0.0459
vn 0.0333 0.9984 0.0459
vn 0.0333 0.9984 0.0459
vn 0.0333 0.9984 0.0459
vt 0.562421 0.384926
vt 0.563246 0.383722
vt 0.560972 0.383137
vt 0.564916 0.383015
vt 0.562808 0.38194
vt 0.563246 0.383722
vt 0.563246 0.383722
vt 0.562808 0.38194
vt 0.560972 0.383137
vt 0.562808 0.38194
vt 0.565122 0.381144
vt 0.563677 0.380518
vt 0.563677 0.380518
vt 0.561574 0.38112
vt 0.562808 0.38194
vt 0.564916 0.383015
vt 0.565122 0.381144
vt 0.562808 0.38194
vt 0.567323 0.382973
vt 0.567234 0.381181
vt 0.565122 0.381144
vt 0.564916 0.383015
vt 0.56877 0.380638
vt 0.567234 0.381181
vt 0.567323 0.382973
vt 0.567323 0.382973
vt 0.5691 0.383591
vt 0.569717 0.381939
vt 0.56877 0.380638
vt 0.570126 0.384868
vt 0.571555 0.383137
vt 0.5691 0.383591
vt 0.5691 0.383591
vt 0.571555 0.383137
vt 0.569717 0.381939
vt 0.570477 0.381503
vt 0.56877 0.380638
vt 0.569717 0.381939
vt 0.571476 0.380373
vt 0.569504 0.379797
vt 0.570477 0.381503
vt 0.569504 0.379797
vt 0.56877 0.380638
vt 0.570477 0.381503
vt 0.569745 0.378654
vt 0.569504 0.379797
vt 0.571476 0.380373
vt 0.56932 0.377433
vt 0.569745 0.378654
vt 0.571469 0.376831
vt 0.571858 0.378739
vt 0.569745 0.378654
vt 0.571476 0.380373
vt 0.569745 0.378654
vt 0.571858 0.378739
vt 0.571469 0.376831
vt 0.56932 0.377433
vt 0.571469 0.376831
vt 0.569807 0.375204
vt 0.568156 0.37655
vt 0.569807 0.375204
vt 0.567484 0.374539
vt 0.56932 0.377433
vt 0.569807 0.375204
vt 0.568156 0.37655
vt 0.568156 0.37655
vt 0.567484 0.374539
vt 0.566137 0.376256
vt 0.566137 0.376256
vt 0.564599 0.374569
vt 0.564477 0.376554
vt 0.566137 0.376256
vt 0.567484 0.374539
vt 0.564599 0.374569
vt 0.564477 0.376554
vt 0.564599 0.374569
vt 0.562387 0.375432
vt 0.563332 0.377363
vt 0.562387 0.375432
vt 0.561261 0.376548
vt 0.563332 0.377363
vt 0.564477 0.376554
vt 0.562387 0.375432
vt 0.560731 0.377902
vt 0.562932 0.378298
vt 0.563332 0.377363
vt 0.561261 0.376548
vt 0.560731 0.377902
vt 0.562944 0.379411
vt 0.562932 0.378298
vt 0.560731 0.377902
vt 0.560765 0.379567
vt 0.562944 0.379411
vt 0.562944 0.379411
vt 0.560765 0.379567
vt 0.561574 0.38112
vt 0.562944 0.379411
vt 0.561574 0.38112
vt 0.563677 0.380518
vt 0.570126 0.384868
vt 0.572365 0.384923
vt 0.571555 0.383137
vt 0.572247 0.387127
vt 0.572365 0.384923
vt 0.570126 0.384868
vt 0.570146 0.386288
vt 0.572247 0.387127
vt 0.569467 0.387519
vt 0.570908 0.388986
vt 0.570146 0.386288
vt 0.569467 0.387519
vt 0.572247 0.387127
vt 0.569467 0.387519
vt 0.56756 0.388388
vt 0.568988 0.389921
vt 0.570908 0.388986
vt 0.569467 0.387519
vt 0.568988 0.389921
vt 0.56756 0.388388
vt 0.566659 0.390288
vt 0.568988 0.389921
vt 0.564584 0.388363
vt 0.56416 0.390097
vt 0.566659 0.390288
vt 0.564584 0.388363
vt 0.566659 0.390288
vt 0.56756 0.388388
vt 0.562846 0.387231
vt 0.561864 0.389165
vt 0.564584 0.388363
vt 0.564584 0.388363
vt 0.561864 0.389165
vt 0.56416 0.390097
vt 0.562846 0.387231
vt 0.560305 0.387232
vt 0.561864 0.389165
vt 0.562405 0.386185
vt 0.560305 0.387232
vt 0.562846 0.387231
vt 0.560305 0.387232
vt 0.562405 0.386185
vt 0.562421 0.384926
vt 0.560162 0.384923
vt 0.560162 0.384923
vt 0.562421 0.384926
vt 0.560972 0.383137
s off
f 1/1/1 2/2/2 3/3/3
f 4/4/4 5/5/5 6/6/6
f 7/7/7 8/8/8 9/9/9
f 10/10/10 11/11/11 12/12/12
f 13/13/13 14/14/14 15/15/15
f 16/16/16 17/17/17 18/18/18
f 19/19/19 20/20/20 21/21/21
f 19/19/19 21/21/21 22/22/22
f 23/23/23 24/24/24 25/25/25
f 26/26/26 27/27/27 28/28/28
f 26/26/26 28/28/28 29/29/29
f 30/30/30 31/31/31 32/32/32
f 33/33/33 34/34/34 35/35/35
f 36/36/36 37/37/37 38/38/38
f 39/39/39 40/40/40 41/41/41
f 42/42/42 43/43/43 44/44/44
f 45/45/45 46/46/46 47/47/47
f 48/48/48 49/49/49 50/50/50
f 51/51/51 52/52/52 53/53/53
f 54/54/54 55/55/55 56/56/56
f 57/57/57 58/58/58 59/59/59
f 60/60/60 61/61/61 62/62/62
f 63/63/63 64/64/64 65/65/65
f 66/66/66 67/67/67 68/68/68
f 69/69/69 70/70/70 71/71/71
f 72/72/72 73/73/73 74/74/74
f 75/75/75 76/76/76 77/77/77
f 78/78/78 79/79/79 80/80/80
f 81/81/81 82/82/82 83/83/83
f 84/84/84 85/85/85 86/86/86
f 84/84/84 86/86/86 87/87/87
f 88/88/88 89/89/89 90/90/90
f 91/91/91 92/92/92 93/93/93
f 94/94/94 95/95/95 96/96/96
f 97/97/97 98/98/98 99/99/99
f 100/100/100 101/101/101 102/102/102
f 103/103/103 104/104/104 105/105/105
f 103/103/103 105/105/105 106/106/106
f 107/107/107 108/108/108 109/109/109
f 110/110/110 111/111/111 112/112/112
f 113/113/113 114/114/114 115/115/115
f 116/116/116 117/117/117 118/118/118
f 119/119/119 120/120/120 121/121/121
f 122/122/122 123/123/123 124/124/124
f 125/125/125 126/126/126 127/127/127
f 128/128/128 129/129/129 130/130/130
f 131/131/131 132/132/132 133/133/133
f 134/134/134 135/135/135 136/136/136
f 137/137/137 138/138/138 139/139/139
f 140/140/140 141/141/141 142/142/142
f 140/140/140 142/142/142 143/143/143
f 144/144/144 145/145/145 146/146/146
