v 0.252273 0.19816 -0.258511
v 0.256096 0.197967 -0.255648
v 0.255081 0.198096 -0.258844
v 0.259249 0.198153 -0.257363
v 0.257823 0.198239 -0.260184
v 0.255081 0.198096 -0.258844
v 0.256096 0.197967 -0.255648
v 0.252273 0.19816 -0.258511
v 0.249551 0.198263 -0.259078
v 0.25081 0.198037 -0.25504
v 0.252273 0.19816 -0.258511
v 0.25081 0.198037 -0.25504
v 0.256096 0.197967 -0.255648
v 0.249551 0.198263 -0.259078
v 0.246507 0.198233 -0.256357
v 0.25081 0.198037 -0.25504
v 0.247489 0.198384 -0.260333
v 0.243494 0.198447 -0.258823
v 0.246507 0.198233 -0.256357
v 0.247489 0.198384 -0.260333
v 0.246507 0.198233 -0.256357
v 0.249551 0.198263 -0.259078
v 0.247489 0.198384 -0.260333
v 0.246173 0.198532 -0.2626
v 0.243494 0.198447 -0.258823
v 0.246173 0.198532 -0.2626
v 0.246127 0.198679 -0.26578
v 0.242021 0.198667 -0.26254
v 0.246173 0.198532 -0.2626
v 0.242021 0.198667 -0.26254
v 0.243494 0.198447 -0.258823
v 0.246127 0.198679 -0.26578
v 0.242137 0.19884 -0.26638
v 0.242021 0.198667 -0.26254
v 0.246127 0.198679 -0.26578
v 0.244116 0.198949 -0.270171
v 0.242137 0.19884 -0.26638
v 0.244116 0.198949 -0.270171
v 0.247511 0.19875 -0.268172
v 0.247471 0.198953 -0.272429
v 0.246127 0.198679 -0.26578
v 0.247511 0.19875 -0.268172
v 0.244116 0.198949 -0.270171
v 0.247471 0.198953 -0.272429
v 0.247511 0.19875 -0.268172
v 0.250321 0.198748 -0.269789
v 0.250727 0.198904 -0.273334
v 0.250321 0.198748 -0.269789
v 0.255295 0.198605 -0.269721
v 0.25602 0.19879 -0.273118
v 0.250727 0.198904 -0.273334
v 0.247471 0.198953 -0.272429
v 0.250321 0.198748 -0.269789
v 0.260603 0.198832 -0.270769
v 0.25602 0.19879 -0.273118
v 0.255295 0.198605 -0.269721
v 0.263332 0.198744 -0.267067
v 0.260603 0.198832 -0.270769
v 0.258354 0.198614 -0.267747
v 0.260603 0.198832 -0.270769
v 0.255295 0.198605 -0.269721
v 0.258354 0.198614 -0.267747
v 0.263332 0.198744 -0.267067
v 0.258354 0.198614 -0.267747
v 0.259393 0.198553 -0.265714
v 0.263332 0.198744 -0.267067
v 0.259393 0.198553 -0.265714
v 0.2595 0.198424 -0.26293
v 0.257823 0.198239 -0.260184
v 0.26054 0.19827 -0.258931
v 0.2595 0.198424 -0.26293
v 0.26468 0.198556 -0.262157
v 0.2595 0.198424 -0.26293
v 0.26054 0.19827 -0.258931
v 0.263332 0.198744 -0.267067
v 0.2595 0.198424 -0.26293
v 0.26468 0.198556 -0.262157
v 0.264737 0.198262 -0.255789
v 0.26468 0.198556 -0.262157
v 0.26054 0.19827 -0.258931
v 0.260482 0.198084 -0.255028
v 0.263355 0.197976 -0.250718
v 0.264737 0.198262 -0.255789
v 0.264737 0.198262 -0.255789
v 0.26054 0.19827 -0.258931
v 0.260482 0.198084 -0.255028
v 0.260482 0.198084 -0.255028
v 0.258062 0.197743 -0.249522
v 0.263355 0.197976 -0.250718
v 0.253086 0.197584 -0.246827
v 0.25587 0.197401 -0.243835
v 0.258062 0.197743 -0.249522
v 0.258062 0.197743 -0.249522
v 0.260728 0.197705 -0.246853
v 0.263355 0.197976 -0.250718
v 0.258062 0.197743 -0.249522
v 0.25587 0.197401 -0.243835
v 0.260728 0.197705 -0.246853
v 0.25587 0.197401 -0.243835
v 0.253086 0.197584 -0.246827
v 0.248332 0.197567 -0.243179
v 0.248332 0.197567 -0.243179
v 0.248313 0.197738 -0.246904
v 0.245104 0.197899 -0.248058
v 0.243396 0.197806 -0.244799
v 0.248332 0.197567 -0.243179
v 0.253086 0.197584 -0.246827
v 0.248313 0.197738 -0.246904
v 0.257823 0.198239 -0.260184
v 0.259249 0.198153 -0.257363
v 0.26054 0.19827 -0.258931
vn 0.0263 0.9991 0.0322
vn 0.0263 0.9991 0.0322
vn 0.0263 0.9991 0.0322
vn -0.0307 0.9984 0.0482
vn -0.0307 0.9984 0.0482
vn -0.0307 0.9984 0.0482
vn -0.0307 0.9984 0.0482
vn 0.0281 0.9985 0.0472
vn 0.0281 0.9985 0.0472
vn 0.0281 0.9985 0.0472
vn 0.0182 0.9989 0.043
vn 0.0182 0.9989 0.043
vn 0.0182 0.9989 0.043
vn 0.0315 0.9984 0.0461
vn 0.0315 0.9984 0.0461
vn 0.0315 0.9984 0.0461
vn 0.0333 0.9984 0.0459
vn 0.0333 0.9984 0.0459
vn 0.0333 0.9984 0.0459
vn 0.0308 0.9985 0.0453
vn 0.0308 0.9985 0.0453
vn 0.0308 0.9985 0.0453
vn 0.0333 0.9984 0.0459
vn 0.0333 0.9984 0.0459
vn 0.0333 0.9984 0.0459
vn 0.0333 0.9984 0.0459
vn 0.0333 0.9984 0.0459
vn 0.0333 0.9984 0.0459
vn 0.0333 0.9984 0.0459
vn 0.0333 0.9984 0.0459
vn 0.0333 0.9984 0.0459
vn 0.0333 0.9984 0.0459
vn 0.0333 0.9984 0.0459
vn 0.0333 0.9984 0.0459
vn 0.0333 0.9984 0.0459
vn 0.0333 0.9984 0.0459
vn 0.0333 0.9984 0.0459
vn 0.0305 0.9984 0.0472
vn 0.0305 0.9984 0.0472
vn 0.0305 0.9984 0.0472
vn 0.0305 0.9984 0.0472
vn 0.0305 0.9984 0.0472
vn 0.0305 0.9984 0.0472
vn 0.0281 0.9985 0.0472
vn 0.0281 0.9985 0.0472
vn 0.0281 0.9985 0.0472
vn 0.0235 0.9983 0.0528
vn 0.0235 0.9983 0.0528
vn 0.0235 0.9983 0.0528
vn 0.0235 0.9983 0.0528
vn 0.0281 0.9985 0.0472
vn 0.0281 0.9985 0.0472
vn 0.0281 0.9985 0.0472
vn -0.0333 0.9983 0.0472
vn -0.0333 0.9983 0.0472
vn -0.0333 0.9983 0.0472
vn -0.0325 0.9983 0.0478
vn -0.0325 0.9983 0.0478
vn -0.0325 0.9983 0.0478
vn -0.0333 0.9983 0.0472
vn -0.0333 0.9983 0.0472
vn -0.0333 0.9983 0.0472
vn -0.0324 0.9984 0.0467
vn -0.0324 0.9984 0.0467
vn -0.0324 0.9984 0.0467
vn -0.0322 0.9984 0.0472
vn -0.0322 0.9984 0.0472
vn -0.0322 0.9984 0.0472
vn -0.0333 0.9983 0.0472
vn -0.0333 0.9983 0.0472
vn -0.0333 0.9983 0.0472
vn -0.0323 0.9984 0.0469
vn -0.0323 0.9984 0.0469
vn -0.0323 0.9984 0.0469
vn -0.0323 0.9984 0.0471
vn -0.0323 0.9984 0.0471
vn -0.0323 0.9984 0.0471
vn -0.0327 0.9984 0.0464
vn -0.0327 0.9984 0.0464
vn -0.0327 0.9984 0.0464
vn -0.0333 0.9983 0.0472
vn -0.0333 0.9983 0.0472
vn -0.0333 0.9983 0.0472
vn -0.0333 0.9983 0.0472
vn -0.0333 0.9983 0.0472
vn -0.0333 0.9983 0.0472
vn -0.0333 0.9983 0.0472
vn -0.0333 0.9983 0.0472
vn -0.0333 0.9983 0.0472
vn 0.001 0.9982 0.0604
vn 0.001 0.9982 0.0604
vn 0.001 0.9982 0.0604
vn -0.0333 0.9983 0.0472
vn -0.0333 0.9983 0.0472
vn -0.0333 0.9983 0.0472
vn -0.0333 0.9983 0.0472
vn -0.0333 0.9983 0.0472
vn -0.0333 0.9983 0.0472
vn 0.0253 0.999 0.0378
vn 0.0253 0.999 0.0378
vn 0.0253 0.999 0.0378
vn 0.0333 0.9984 0.0459
vn 0.0333 0.9984 0.0459
vn 0.0333 0.9984 0.0459
vn 0.0333 0.9984 0.0459
vn 0.0315 0.9984 0.0459
vn 0.0315 0.9984 0.0459
vn 0.0315 0.9984 0.0459
vn -0.0333 0.9983 0.0472
vn -0.0333 0.9983 0.0472
vn -0.0333 0.9983 0.0472
vt 0.631777 0.38226
vt 0.633774 0.383755
vt 0.633244 0.382086
vt 0.635421 0.382859
vt 0.634676 0.381385
vt 0.633244 0.382086
vt 0.633774 0.383755
vt 0.631777 0.38226
vt 0.630355 0.381963
vt 0.631013 0.384072
vt 0.631777 0.38226
vt 0.631013 0.384072
vt 0.633774 0.383755
vt 0.630355 0.381963
vt 0.628765 0.383385
vt 0.631013 0.384072
vt 0.629278 0.381307
vt 0.627191 0.382096
vt 0.628765 0.383385
vt 0.629278 0.381307
vt 0.628765 0.383385
vt 0.630355 0.381963
vt 0.629278 0.381307
vt 0.62859 0.380123
vt 0.627191 0.382096
vt 0.62859 0.380123
vt 0.628566 0.378463
vt 0.626422 0.380155
vt 0.62859 0.380123
vt 0.626422 0.380155
vt 0.627191 0.382096
vt 0.628566 0.378463
vt 0.626482 0.378149
vt 0.626422 0.380155
vt 0.628566 0.378463
vt 0.627516 0.376169
vt 0.626482 0.378149
vt 0.627516 0.376169
vt 0.629289 0.377213
vt 0.629269 0.37499
vt 0.628566 0.378463
vt 0.629289 0.377213
vt 0.627516 0.376169
vt 0.629269 0.37499
vt 0.629289 0.377213
vt 0.630758 0.376368
vt 0.63097 0.374516
vt 0.630758 0.376368
vt 0.633356 0.376404
vt 0.633734 0.374629
vt 0.63097 0.374516
vt 0.629269 0.37499
vt 0.630758 0.376368
vt 0.636128 0.375856
vt 0.633734 0.374629
vt 0.633356 0.376404
vt 0.637554 0.37779
vt 0.636128 0.375856
vt 0.634954 0.377435
vt 0.636128 0.375856
vt 0.633356 0.376404
vt 0.634954 0.377435
vt 0.637554 0.37779
vt 0.634954 0.377435
vt 0.635496 0.378497
vt 0.637554 0.37779
vt 0.635496 0.378497
vt 0.635552 0.379951
vt 0.634676 0.381385
vt 0.636096 0.38204
vt 0.635552 0.379951
vt 0.638258 0.380355
vt 0.635552 0.379951
vt 0.636096 0.38204
vt 0.637554 0.37779
vt 0.635552 0.379951
vt 0.638258 0.380355
vt 0.638288 0.383681
vt 0.638258 0.380355
vt 0.636096 0.38204
vt 0.636065 0.384079
vt 0.637566 0.38633
vt 0.638288 0.383681
vt 0.638288 0.383681
vt 0.636096 0.38204
vt 0.636065 0.384079
vt 0.636065 0.384079
vt 0.634801 0.386955
vt 0.637566 0.38633
vt 0.632202 0.388362
vt 0.633656 0.389926
vt 0.634801 0.386955
vt 0.634801 0.386955
vt 0.636193 0.388349
vt 0.637566 0.38633
vt 0.634801 0.386955
vt 0.633656 0.389926
vt 0.636193 0.388349
vt 0.633656 0.389926
vt 0.632202 0.388362
vt 0.629718 0.390268
vt 0.629718 0.390268
vt 0.629708 0.388322
vt 0.628032 0.38772
vt 0.62714 0.389422
vt 0.629718 0.390268
vt 0.632202 0.388362
vt 0.629708 0.388322
vt 0.634676 0.381385
vt 0.635421 0.382859
vt 0.636096 0.38204
s off
f 1/1/1 2/2/2 3/3/3
f 4/4/4 5/5/5 6/6/6
f 4/4/4 6/6/6 7/7/7
f 8/8/8 9/9/9 10/10/10
f 11/11/11 12/12/12 13/13/13
f 14/14/14 15/15/15 16/16/16
f 17/17/17 18/18/18 19/19/19
f 20/20/20 21/21/21 22/22/22
f 23/23/23 24/24/24 25/25/25
f 26/26/26 27/27/27 28/28/28
f 29/29/29 30/30/30 31/31/31
f 32/32/32 33/33/33 34/34/34
f 35/35/35 36/36/36 37/37/37
f 38/38/38 39/39/39 40/40/40
f 41/41/41 42/42/42 43/43/43
f 44/44/44 45/45/45 46/46/46
f 47/47/47 48/48/48 49/49/49
f 47/47/47 49/49/49 50/50/50
f 51/51/51 52/52/52 53/53/53
f 54/54/54 55/55/55 56/56/56
f 57/57/57 58/58/58 59/59/59
f 60/60/60 61/61/61 62/62/62
f 63/63/63 64/64/64 65/65/65
f 66/66/66 67/67/67 68/68/68
f 69/69/69 70/70/70 71/71/71
f 72/72/72 73/73/73 74/74/74
f 75/75/75 76/76/76 77/77/77
f 78/78/78 79/79/79 80/80/80
f 81/81/81 82/82/82 83/83/83
f 84/84/84 85/85/85 86/86/86
f 87/87/87 88/88/88 89/89/89
f 90/90/90 91/91/91 92/92/92
f 93/93/93 94/94/94 95/95/95
f 96/96/96 97/97/97 98/98/98
f 99/99/99 100/100/100 101/101/101
f 102/102/102 103/103/103 104/104/104
f 102/102/102 104/104/104 105/105/105
f 106/106/106 107/107/107 108/108/108
f 109/109/109 110/110/110 111/111/111
