v -0.690301 0.168359 -0.034454
v -0.693894 0.168572 -0.018831
v -0.688582 0.168134 -0.030939
v -0.675694 0.167255 -0.009849
v -0.688582 0.168134 -0.030939
v -0.683271 0.167592 -0.018831
v -0.686864 0.167994 -0.034454
v -0.688582 0.168134 -0.030939
v -0.675694 0.167255 -0.009849
v -0.690301 0.168359 -0.034454
v -0.688582 0.168134 -0.030939
v -0.686864 0.167994 -0.034454
v -0.695144 0.168676 -0.016019
v -0.690301 0.168359 -0.034454
v -0.70147 0.169391 -0.009849
v -0.697877 0.16894 -0.009849
v -0.690301 0.168359 -0.034454
v -0.695144 0.168676 -0.016019
v -0.693894 0.168572 -0.018831
v -0.682099 0.167523 -0.016019
v -0.683271 0.167592 -0.018831
v -0.693894 0.168572 -0.018831
v -0.695144 0.168676 -0.016019
v -0.675694 0.167255 -0.009849
v -0.682099 0.167523 -0.016019
v -0.679365 0.167367 -0.009849
v -0.675694 0.167255 -0.009849
v -0.683271 0.167592 -0.018831
v -0.682099 0.167523 -0.016019
vn 0.1072 0.9942 0.0111
vn 0.1072 0.9942 0.0111
vn 0.1072 0.9942 0.0111
vn -0.018 0.9985 0.0526
vn -0.018 0.9985 0.0526
vn -0.018 0.9985 0.0526
vn 0.0739 0.9973 -0.0036
vn 0.0739 0.9973 -0.0036
vn 0.0739 0.9973 -0.0036
vn 0.1054 0.9944 0.0119
vn 0.1054 0.9944 0.0119
vn 0.1054 0.9944 0.0119
vn 0.1275 0.9917 0.0158
vn 0.1275 0.9917 0.0158
vn 0.1275 0.9917 0.0158
vn 0.1275 0.9917 0.0158
vn 0.1071 0.9942 0.011
vn 0.1071 0.9942 0.011
vn 0.1071 0.9942 0.011
vn 0.0897 0.996 -0.0049
vn 0.0897 0.996 -0.0049
vn 0.0897 0.996 -0.0049
vn 0.0897 0.996 -0.0049
vn 0.0305 0.9995 0.0118
vn 0.0305 0.9995 0.0118
vn 0.0305 0.9995 0.0118
vn 0.0307 0.9995 0.0116
vn 0.0307 0.9995 0.0116
vn 0.0307 0.9995 0.0116
vt 0.139416 0.499298
vt 0.137539 0.507458
vt 0.140314 0.501134
vt 0.147046 0.51215
vt 0.140314 0.501134
vt 0.143088 0.507458
vt 0.141211 0.499298
vt 0.140314 0.501134
vt 0.147046 0.51215
vt 0.139416 0.499298
vt 0.140314 0.501134
vt 0.141211 0.499298
vt 0.136886 0.508927
vt 0.139416 0.499298
vt 0.133581 0.51215
vt 0.135458 0.51215
vt 0.139416 0.499298
vt 0.136886 0.508927
vt 0.137539 0.507458
vt 0.1437 0.508927
vt 0.143088 0.507458
vt 0.137539 0.507458
vt 0.136886 0.508927
vt 0.147046 0.51215
vt 0.1437 0.508927
vt 0.145128 0.51215
vt 0.147046 0.51215
vt 0.143088 0.507458
vt 0.1437 0.508927
s off
f 1/1/1 2/2/2 3/3/3
f 4/4/4 5/5/5 6/6/6
f 7/7/7 8/8/8 9/9/9
f 10/10/10 11/11/11 12/12/12
f 13/13/13 14/14/14 15/15/15
f 13/13/13 15/15/15 16/16/16
f 17/17/17 18/18/18 19/19/19
f 20/20/20 21/21/21 22/22/22
f 20/20/20 22/22/22 23/23/23
f 24/24/24 25/25/25 26/26/26
f 27/27/27 28/28/28 29/29/29
