v -0.549233 0.167115 0.261195
v -0.549233 0.166744 0.258774
v -0.562824 0.166922 0.261195
v -0.580477 0.1662 0.254009
v -0.581492 0.166577 0.256196
v -0.570947 0.166313 0.256196
v -0.574853 0.164098 0.241355
v -0.571885 0.165995 0.254009
v -0.565792 0.166973 0.261195
v -0.534235 0.164581 0.241355
v -0.543843 0.164539 0.243855
v -0.541031 0.164587 0.243855
v -0.565792 0.166973 0.261195
v -0.570947 0.166313 0.256196
v -0.56876 0.167038 0.261195
v -0.565792 0.166973 0.261195
v -0.571885 0.165995 0.254009
v -0.570947 0.166313 0.256196
v -0.580477 0.1662 0.254009
v -0.570947 0.166313 0.256196
v -0.571885 0.165995 0.254009
v -0.577587 0.164163 0.241355
v -0.580477 0.1662 0.254009
v -0.576181 0.164579 0.244245
v -0.576181 0.164579 0.244245
v -0.571885 0.165995 0.254009
v -0.574853 0.164098 0.241355
v -0.577587 0.164163 0.241355
v -0.576181 0.164579 0.244245
v -0.574853 0.164098 0.241355
v -0.559934 0.166501 0.258774
v -0.562824 0.166922 0.261195
v -0.549233 0.166744 0.258774
v -0.543843 0.167235 0.261195
v -0.541031 0.167283 0.261195
v -0.543843 0.164539 0.243855
v -0.543843 0.164539 0.243855
v -0.550639 0.164033 0.241355
v -0.550639 0.164421 0.243855
v -0.541031 0.164587 0.243855
v -0.534235 0.164969 0.243855
v -0.534235 0.164581 0.241355
v -0.562824 0.166922 0.261195
v -0.559934 0.166501 0.258774
v -0.562824 0.16388 0.241355
v -0.58657 0.16766 0.261195
v -0.58368 0.167486 0.261195
v -0.581492 0.166577 0.256196
v -0.580477 0.1662 0.254009
v -0.577587 0.164163 0.241355
v -0.58657 0.16766 0.261195
v -0.581492 0.166577 0.256196
v -0.534235 0.164581 0.241355
v -0.550639 0.164033 0.241355
v -0.543843 0.164539 0.243855
v -0.543843 0.164539 0.243855
v -0.541031 0.167283 0.261195
v -0.541031 0.164587 0.243855
v -0.559934 0.166501 0.258774
v -0.559934 0.16383 0.241355
v -0.562824 0.16388 0.241355
v -0.534235 0.164969 0.243855
v -0.534235 0.164969 0.243855
vn -0.0141 0.9884 -0.1515
vn -0.0141 0.9884 -0.1515
vn -0.0141 0.9884 -0.1515
vn 0.0247 0.987 -0.1589
vn 0.0247 0.987 -0.1589
vn 0.0247 0.987 -0.1589
vn 0.0223 0.9879 -0.1533
vn 0.0223 0.9879 -0.1533
vn 0.0223 0.9879 -0.1533
vn -0.0173 0.9986 -0.0497
vn -0.0173 0.9986 -0.0497
vn -0.0173 0.9986 -0.0497
vn 0.0216 0.988 -0.1528
vn 0.0216 0.988 -0.1528
vn 0.0216 0.988 -0.1528
vn 0.0215 0.988 -0.1527
vn 0.0215 0.988 -0.1527
vn 0.0215 0.988 -0.1527
vn 0.0235 0.9879 -0.1535
vn 0.0235 0.9879 -0.1535
vn 0.0235 0.9879 -0.1535
vn 0.0235 0.9879 -0.1536
vn 0.0235 0.9879 -0.1536
vn 0.0235 0.9879 -0.1536
vn 0.0235 0.9879 -0.1536
vn 0.0235 0.9879 -0.1536
vn 0.0235 0.9879 -0.1536
vn 0.0235 0.9879 -0.1536
vn 0.0235 0.9879 -0.1536
vn 0.0235 0.9879 -0.1536
vn -0.0223 0.9801 -0.1971
vn -0.0223 0.9801 -0.1971
vn -0.0223 0.9801 -0.1971
vn -0.0171 0.988 -0.1536
vn -0.0171 0.988 -0.1536
vn -0.0171 0.988 -0.1536
vn -0.0171 0.988 -0.1536
vn -0.0171 0.988 -0.1536
vn -0.0171 0.988 -0.1536
vn -0.0554 0.9866 -0.1533
vn -0.0554 0.9866 -0.1533
vn -0.0554 0.9866 -0.1533
vn 0.0171 0.9883 -0.1515
vn 0.0171 0.9883 -0.1515
vn 0.0171 0.9883 -0.1515
vn 0.0593 0.9864 -0.1534
vn 0.0593 0.9864 -0.1534
vn 0.0593 0.9864 -0.1534
vn 0.0685 0.9874 -0.1426
vn 0.0685 0.9874 -0.1426
vn 0.0685 0.9874 -0.1426
vn 0.0685 0.9874 -0.1426
vn -0.0332 0.9933 -0.1109
vn -0.0332 0.9933 -0.1109
vn -0.0332 0.9933 -0.1109
vn -0.0171 0.988 -0.1536
vn -0.0171 0.988 -0.1536
vn -0.0171 0.988 -0.1536
vn 0.0171 0.9883 -0.1515
vn 0.0171 0.9883 -0.1515
vn 0.0171 0.9883 -0.1515
vn 0 0 0
vn 0 0 0
vt 0.213104 0.653732
vt 0.213104 0.652468
vt 0.206004 0.653732
vt 0.196783 0.649979
vt 0.196253 0.651121
vt 0.201761 0.651121
vt 0.199721 0.643369
vt 0.201271 0.649979
vt 0.204454 0.653732
vt 0.220938 0.643369
vt 0.215919 0.644674
vt 0.217388 0.644674
vt 0.204454 0.653732
vt 0.201761 0.651121
vt 0.202903 0.653732
vt 0.204454 0.653732
vt 0.201271 0.649979
vt 0.201761 0.651121
vt 0.196783 0.649979
vt 0.201761 0.651121
vt 0.201271 0.649979
vt 0.198293 0.643369
vt 0.196783 0.649979
vt 0.199027 0.644878
vt 0.199027 0.644878
vt 0.201271 0.649979
vt 0.199721 0.643369
vt 0.198293 0.643369
vt 0.199027 0.644878
vt 0.199721 0.643369
vt 0.207514 0.652468
vt 0.206004 0.653732
vt 0.213104 0.652468
vt 0.215919 0.653732
vt 0.217388 0.653732
vt 0.215919 0.644674
vt 0.215919 0.644674
vt 0.212369 0.643369
vt 0.212369 0.644674
vt 0.217388 0.644674
vt 0.220938 0.644674
vt 0.220938 0.643369
vt 0.206004 0.653732
vt 0.207514 0.652468
vt 0.206004 0.643369
vt 0.193601 0.653732
vt 0.19511 0.653732
vt 0.196253 0.651121
vt 0.196783 0.649979
vt 0.198293 0.643369
vt 0.193601 0.653732
vt 0.196253 0.651121
vt 0.220938 0.643369
vt 0.212369 0.643369
vt 0.215919 0.644674
vt 0.215919 0.644674
vt 0.217388 0.653732
vt 0.217388 0.644674
vt 0.207514 0.652468
vt 0.207514 0.643369
vt 0.206004 0.643369
vt 0 1
vt 0 1
s off
f 1/1/1 2/2/2 3/3/3
f 4/4/4 5/5/5 6/6/6
f 7/7/7 8/8/8 9/9/9
f 10/10/10 11/11/11 12/12/12
f 13/13/13 14/14/14 15/15/15
f 16/16/16 17/17/17 18/18/18
f 19/19/19 20/20/20 21/21/21
f 22/22/22 23/23/23 24/24/24
f 25/25/25 26/26/26 27/27/27
f 28/28/28 29/29/29 30/30/30
f 31/31/31 32/32/32 33/33/33
f 34/34/34 35/35/35 36/36/36
f 37/37/37 38/38/38 39/39/39
f 40/40/40 41/41/41 42/42/42
f 43/43/43 44/44/44 45/45/45
f 46/46/46 47/47/47 48/48/48
f 49/49/49 50/50/50 51/51/51
f 49/49/49 51/51/51 52/52/52
f 53/53/53 54/54/54 55/55/55
f 56/56/56 57/57/57 58/58/58
f 59/59/59 60/60/60 61/61/61
