v 0.376769 0.16675 0.261195
v 0.370677 0.165875 0.254009
v 0.371614 0.166184 0.256196
v 0.371614 0.166184 0.256196
v 0.370677 0.165875 0.254009
v 0.361069 0.16693 0.256196
v 0.361069 0.16693 0.256196
v 0.355992 0.168225 0.261195
v 0.358882 0.16795 0.261195
v 0.366381 0.164568 0.244245
v 0.370677 0.165875 0.254009
v 0.376769 0.16675 0.261195
v 0.364975 0.164248 0.241355
v 0.366381 0.164568 0.244245
v 0.367708 0.164073 0.241355
v 0.382628 0.166145 0.258774
v 0.379738 0.166646 0.261195
v 0.393329 0.166558 0.258774
v 0.40153 0.164701 0.243855
v 0.408326 0.165346 0.243855
v 0.408326 0.164975 0.241355
v 0.382628 0.166145 0.258774
v 0.379738 0.16354 0.241355
v 0.379738 0.166646 0.261195
v 0.376769 0.16675 0.261195
v 0.371614 0.166184 0.256196
v 0.373801 0.166889 0.261195
v 0.408326 0.164975 0.241355
v 0.398718 0.164494 0.243855
v 0.40153 0.164701 0.243855
v 0.364975 0.164248 0.241355
v 0.362084 0.166478 0.254009
v 0.366381 0.164568 0.244245
v 0.370677 0.165875 0.254009
v 0.362084 0.166478 0.254009
v 0.361069 0.16693 0.256196
v 0.367708 0.164073 0.241355
v 0.366381 0.164568 0.244245
v 0.376769 0.16675 0.261195
v 0.40153 0.164701 0.243855
v 0.398718 0.164494 0.243855
v 0.398718 0.1672 0.261195
v 0.40153 0.167469 0.261195
v 0.379738 0.16354 0.241355
v 0.382628 0.166145 0.258774
v 0.382628 0.163472 0.241355
v 0.408326 0.164975 0.241355
v 0.391923 0.163885 0.241355
v 0.398718 0.164494 0.243855
v 0.362084 0.166478 0.254009
v 0.364975 0.164248 0.241355
v 0.355992 0.168225 0.261195
v 0.361069 0.16693 0.256196
v 0.391923 0.163885 0.241355
v 0.391923 0.16423 0.243855
v 0.398718 0.164494 0.243855
v 0.379738 0.166646 0.261195
v 0.393329 0.166948 0.261195
v 0.393329 0.166558 0.258774
vn 0.0461 0.9862 -0.1591
vn 0.0461 0.9862 -0.1591
vn 0.0461 0.9862 -0.1591
vn 0.0695 0.9832 -0.1687
vn 0.0695 0.9832 -0.1687
vn 0.0695 0.9832 -0.1687
vn 0.0935 0.9827 -0.1596
vn 0.0935 0.9827 -0.1596
vn 0.0935 0.9827 -0.1596
vn 0.0295 0.9889 -0.1454
vn 0.0295 0.9889 -0.1454
vn 0.0295 0.9889 -0.1454
vn 0.0631 0.9881 -0.14
vn 0.0631 0.9881 -0.14
vn 0.0631 0.9881 -0.14
vn -0.0374 0.9688 -0.2452
vn -0.0374 0.9688 -0.2452
vn -0.0374 0.9688 -0.2452
vn -0.0935 0.9848 -0.1463
vn -0.0935 0.9848 -0.1463
vn -0.0935 0.9848 -0.1463
vn 0.0417 0.9871 -0.1545
vn 0.0417 0.9871 -0.1545
vn 0.0417 0.9871 -0.1545
vn 0.0461 0.9862 -0.1591
vn 0.0461 0.9862 -0.1591
vn 0.0461 0.9862 -0.1591
vn -0.0732 0.9932 -0.0902
vn -0.0732 0.9932 -0.0902
vn -0.0732 0.9932 -0.0902
vn 0.0903 0.9841 -0.1528
vn 0.0903 0.9841 -0.1528
vn 0.0903 0.9841 -0.1528
vn 0.069 0.9828 -0.171
vn 0.069 0.9828 -0.171
vn 0.069 0.9828 -0.171
vn 0.039 0.9878 -0.1511
vn 0.039 0.9878 -0.1511
vn 0.039 0.9878 -0.1511
vn -0.0833 0.9843 -0.1554
vn -0.0833 0.9843 -0.1554
vn -0.0833 0.9843 -0.1554
vn -0.0833 0.9843 -0.1554
vn 0.023 0.9882 -0.1516
vn 0.023 0.9882 -0.1516
vn 0.023 0.9882 -0.1516
vn -0.0662 0.9958 -0.0628
vn -0.0662 0.9958 -0.0628
vn -0.0662 0.9958 -0.0628
vn 0.1049 0.9831 -0.15
vn 0.1049 0.9831 -0.15
vn 0.1049 0.9831 -0.15
vn 0.1049 0.9831 -0.15
vn -0.0385 0.9899 -0.1366
vn -0.0385 0.9899 -0.1366
vn -0.0385 0.9899 -0.1366
vn -0.022 0.987 -0.1593
vn -0.022 0.987 -0.1593
vn -0.022 0.987 -0.1593
vt 0.696809 0.653732
vt 0.693626 0.649979
vt 0.694116 0.651121
vt 0.694116 0.651121
vt 0.693626 0.649979
vt 0.688608 0.651121
vt 0.688608 0.651121
vt 0.685955 0.653732
vt 0.687465 0.653732
vt 0.691382 0.644878
vt 0.693626 0.649979
vt 0.696809 0.653732
vt 0.690648 0.643369
vt 0.691382 0.644878
vt 0.692076 0.643369
vt 0.699869 0.652468
vt 0.698359 0.653732
vt 0.705459 0.652468
vt 0.709743 0.644674
vt 0.713293 0.644674
vt 0.713293 0.643369
vt 0.699869 0.652468
vt 0.698359 0.643369
vt 0.698359 0.653732
vt 0.696809 0.653732
vt 0.694116 0.651121
vt 0.695258 0.653732
vt 0.713293 0.643369
vt 0.708274 0.644674
vt 0.709743 0.644674
vt 0.690648 0.643369
vt 0.689138 0.649979
vt 0.691382 0.644878
vt 0.693626 0.649979
vt 0.689138 0.649979
vt 0.688608 0.651121
vt 0.692076 0.643369
vt 0.691382 0.644878
vt 0.696809 0.653732
vt 0.709743 0.644674
vt 0.708274 0.644674
vt 0.708274 0.653732
vt 0.709743 0.653732
vt 0.698359 0.643369
vt 0.699869 0.652468
vt 0.699869 0.643369
vt 0.713293 0.643369
vt 0.704724 0.643369
vt 0.708274 0.644674
vt 0.689138 0.649979
vt 0.690648 0.643369
vt 0.685955 0.653732
vt 0.688608 0.651121
vt 0.704724 0.643369
vt 0.704724 0.644674
vt 0.708274 0.644674
vt 0.698359 0.653732
vt 0.705459 0.653732
vt 0.705459 0.652468
s off
f 1/1/1 2/2/2 3/3/3
f 4/4/4 5/5/5 6/6/6
f 7/7/7 8/8/8 9/9/9
f 10/10/10 11/11/11 12/12/12
f 13/13/13 14/14/14 15/15/15
f 16/16/16 17/17/17 18/18/18
f 19/19/19 20/20/20 21/21/21
f 22/22/22 23/23/23 24/24/24
f 25/25/25 26/26/26 27/27/27
f 28/28/28 29/29/29 30/30/30
f 31/31/31 32/32/32 33/33/33
f 34/34/34 35/35/35 36/36/36
f 37/37/37 38/38/38 39/39/39
f 40/40/40 41/41/41 42/42/42
f 40/40/40 42/42/42 43/43/43
f 44/44/44 45/45/45 46/46/46
f 47/47/47 48/48/48 49/49/49
f 50/50/50 51/51/51 52/52/52
f 50/50/50 52/52/52 53/53/53
f 54/54/54 55/55/55 56/56/56
f 57/57/57 58/58/58 59/59/59
