v -0.516091 0.156673 0.201374
v -0.505591 0.120526 0.19335
v -0.532628 0.120526 0.19335
v -0.537852 0.155585 0.201133
v -0.516091 0.156673 0.201374
v -0.500716 0.157887 0.201644
v -0.493636 0.120526 0.19335
v -0.505591 0.120526 0.19335
v -0.500716 0.157887 0.201644
v -0.494615 0.15952 0.208519
v -0.484699 0.120406 0.196977
v -0.493636 0.120526 0.19335
v -0.494615 0.15952 0.208519
v -0.480997 0.120119 0.205732
v -0.484699 0.120406 0.196977
v -0.480997 0.120119 0.205732
v -0.494615 0.15952 0.208519
v -0.494896 0.17407 0.291888
v -0.480997 0.116845 0.305373
v -0.484641 0.11655 0.31434
v -0.480997 0.116845 0.305373
v -0.494896 0.17407 0.291888
v -0.500723 0.174324 0.29776
v -0.49344 0.116428 0.318055
v -0.484641 0.11655 0.31434
v -0.500723 0.174324 0.29776
v -0.500723 0.174324 0.29776
v -0.516315 0.172372 0.298444
v -0.505591 0.116428 0.318055
v -0.49344 0.116428 0.318055
v -0.537947 0.170657 0.299046
v -0.532628 0.116428 0.318055
v -0.505591 0.116428 0.318055
v -0.516315 0.172372 0.298444
v -0.559665 0.170177 0.299214
v -0.559665 0.116428 0.318055
v -0.532628 0.116428 0.318055
v -0.537947 0.170657 0.299046
v -0.581384 0.170657 0.299046
v -0.586703 0.116428 0.318055
v -0.559665 0.116428 0.318055
v -0.559665 0.170177 0.299214
v -0.603015 0.172372 0.298444
v -0.61374 0.116428 0.318055
v -0.586703 0.116428 0.318055
v -0.581384 0.170657 0.299046
v -0.603015 0.172372 0.298444
v -0.618608 0.174324 0.29776
v -0.625891 0.116428 0.318055
v -0.61374 0.116428 0.318055
v -0.634689 0.11655 0.31434
v -0.625891 0.116428 0.318055
v -0.618608 0.174324 0.29776
v -0.638334 0.116845 0.305373
v -0.634689 0.11655 0.31434
v -0.618608 0.174324 0.29776
v -0.624435 0.17407 0.291888
v -0.624715 0.15952 0.208519
v -0.638334 0.120119 0.205732
v -0.638334 0.116845 0.305373
v -0.624435 0.17407 0.291888
v -0.634632 0.120406 0.196977
v -0.638334 0.120119 0.205732
v -0.624715 0.15952 0.208519
v -0.625695 0.120526 0.19335
v -0.634632 0.120406 0.196977
v -0.624715 0.15952 0.208519
v -0.618615 0.157887 0.201644
v -0.618615 0.157887 0.201644
v -0.60324 0.156673 0.201374
v -0.61374 0.120526 0.19335
v -0.625695 0.120526 0.19335
v -0.581479 0.155585 0.201133
v -0.586703 0.120526 0.19335
v -0.61374 0.120526 0.19335
v -0.60324 0.156673 0.201374
v -0.559665 0.155282 0.201065
v -0.559665 0.120526 0.19335
v -0.586703 0.120526 0.19335
v -0.581479 0.155585 0.201133
v -0.537852 0.155585 0.201133
v -0.532628 0.120526 0.19335
v -0.559665 0.120526 0.19335
v -0.559665 0.155282 0.201065
v -0.537852 0.155585 0.201133
v -0.559665 0.155282 0.201065
v -0.559665 0.158356 0.204433
v -0.538249 0.158668 0.204498
v -0.559665 0.155282 0.201065
v -0.581479 0.155585 0.201133
v -0.581081 0.158668 0.204498
v -0.559665 0.158356 0.204433
v -0.559665 0.160074 0.217832
v -0.559665 0.158356 0.204433
v -0.581081 0.158668 0.204498
v -0.581114 0.160449 0.217855
v -0.538216 0.160449 0.217855
v -0.538249 0.158668 0.204498
v -0.559665 0.158356 0.204433
v -0.559665 0.160074 0.217832
v -0.581114 0.160449 0.217855
v -0.581081 0.158668 0.204498
v -0.602473 0.15978 0.204729
v -0.602554 0.161751 0.21794
v -0.581479 0.155585 0.201133
v -0.60324 0.156673 0.201374
v -0.602473 0.15978 0.204729
v -0.581081 0.158668 0.204498
v -0.602554 0.161751 0.21794
v -0.602523 0.172157 0.281632
v -0.581128 0.17044 0.282114
v -0.581114 0.160449 0.217855
v -0.581114 0.160449 0.217855
v -0.581128 0.17044 0.282114
v -0.559665 0.16995 0.282251
v -0.559665 0.160074 0.217832
v -0.581127 0.172787 0.295385
v -0.581128 0.17044 0.282114
v -0.602523 0.172157 0.281632
v -0.602518 0.174483 0.29479
v -0.559665 0.172312 0.295551
v -0.559665 0.16995 0.282251
v -0.581128 0.17044 0.282114
v -0.581127 0.172787 0.295385
v -0.581127 0.172787 0.295385
v -0.602518 0.174483 0.29479
v -0.603015 0.172372 0.298444
v -0.581384 0.170657 0.299046
v -0.559665 0.172312 0.295551
v -0.581127 0.172787 0.295385
v -0.581384 0.170657 0.299046
v -0.559665 0.170177 0.299214
v -0.538203 0.172787 0.295385
v -0.559665 0.172312 0.295551
v -0.559665 0.170177 0.299214
v -0.537947 0.170657 0.299046
v -0.538203 0.172787 0.295385
v -0.538202 0.17044 0.282114
v -0.559665 0.16995 0.282251
v -0.559665 0.172312 0.295551
v -0.516812 0.174483 0.29479
v -0.538203 0.172787 0.295385
v -0.537947 0.170657 0.299046
v -0.516315 0.172372 0.298444
v -0.516812 0.174483 0.29479
v -0.516808 0.172157 0.281632
v -0.538202 0.17044 0.282114
v -0.538203 0.172787 0.295385
v -0.501381 0.176417 0.294113
v -0.516812 0.174483 0.29479
v -0.516315 0.172372 0.298444
v -0.500723 0.174324 0.29776
v -0.516812 0.174483 0.29479
v -0.501381 0.176417 0.294113
v -0.498225 0.17612 0.29005
v -0.516808 0.172157 0.281632
v -0.498225 0.17612 0.29005
v -0.501381 0.176417 0.294113
v -0.500723 0.174324 0.29776
v -0.494896 0.17407 0.291888
v -0.498225 0.17612 0.29005
v -0.494896 0.17407 0.291888
v -0.494615 0.15952 0.208519
v -0.498243 0.162121 0.209885
v -0.498243 0.162121 0.209885
v -0.516777 0.161751 0.21794
v -0.516808 0.172157 0.281632
v -0.498225 0.17612 0.29005
v -0.501632 0.161057 0.204985
v -0.498243 0.162121 0.209885
v -0.494615 0.15952 0.208519
v -0.500716 0.157887 0.201644
v -0.516777 0.161751 0.21794
v -0.498243 0.162121 0.209885
v -0.501632 0.161057 0.204985
v -0.516857 0.15978 0.204729
v -0.516857 0.15978 0.204729
v -0.501632 0.161057 0.204985
v -0.500716 0.157887 0.201644
v -0.516091 0.156673 0.201374
v -0.516091 0.156673 0.201374
v -0.537852 0.155585 0.201133
v -0.538249 0.158668 0.204498
v -0.516857 0.15978 0.204729
v -0.516777 0.161751 0.21794
v -0.516857 0.15978 0.204729
v -0.538249 0.158668 0.204498
v -0.538216 0.160449 0.217855
v -0.538216 0.160449 0.217855
v -0.538202 0.17044 0.282114
v -0.516808 0.172157 0.281632
v -0.516777 0.161751 0.21794
v -0.559665 0.160074 0.217832
v -0.559665 0.16995 0.282251
v -0.538202 0.17044 0.282114
v -0.538216 0.160449 0.217855
v -0.602518 0.174483 0.29479
v -0.617949 0.176417 0.294113
v -0.618608 0.174324 0.29776
v -0.603015 0.172372 0.298444
v -0.621105 0.17612 0.29005
v -0.617949 0.176417 0.294113
v -0.602518 0.174483 0.29479
v -0.602523 0.172157 0.281632
v -0.617949 0.176417 0.294113
v -0.621105 0.17612 0.29005
v -0.624435 0.17407 0.291888
v -0.618608 0.174324 0.29776
v -0.624715 0.15952 0.208519
v -0.624435 0.17407 0.291888
v -0.621105 0.17612 0.29005
v -0.621087 0.162121 0.209884
v -0.602554 0.161751 0.21794
v -0.621087 0.162121 0.209884
v -0.621105 0.17612 0.29005
v -0.602523 0.172157 0.281632
v -0.621087 0.162121 0.209884
v -0.617698 0.161057 0.204985
v -0.618615 0.157887 0.201644
v -0.624715 0.15952 0.208519
v -0.621087 0.162121 0.209884
v -0.602554 0.161751 0.21794
v -0.602473 0.15978 0.204729
v -0.617698 0.161057 0.204985
v -0.617698 0.161057 0.204985
v -0.602473 0.15978 0.204729
v -0.60324 0.156673 0.201374
v -0.618615 0.157887 0.201644
v -0.505591 0.109263 0.19298
v -0.505591 0.120526 0.19335
v -0.493636 0.120526 0.19335
v -0.493622 0.109263 0.19298
v -0.505591 0.120526 0.19335
v -0.505591 0.109263 0.19298
v -0.532628 0.109263 0.19298
v -0.532628 0.120526 0.19335
v -0.493636 0.120526 0.19335
v -0.484699 0.120406 0.196977
v -0.484695 0.109144 0.196606
v -0.493622 0.109263 0.19298
v -0.484699 0.120406 0.196977
v -0.480997 0.120119 0.205732
v -0.480997 0.108857 0.205358
v -0.484695 0.109144 0.196606
v -0.480997 0.105582 0.305018
v -0.480997 0.108857 0.205358
v -0.480997 0.120119 0.205732
v -0.480997 0.116845 0.305373
v -0.48464 0.105288 0.313975
v -0.480997 0.105582 0.305018
v -0.480997 0.116845 0.305373
v -0.484641 0.11655 0.31434
v -0.493434 0.105166 0.317685
v -0.48464 0.105288 0.313975
v -0.484641 0.11655 0.31434
v -0.49344 0.116428 0.318055
v -0.493434 0.105166 0.317685
v -0.49344 0.116428 0.318055
v -0.505591 0.116428 0.318055
v -0.505591 0.105166 0.317685
v -0.532628 0.116428 0.318055
v -0.532628 0.105166 0.317685
v -0.505591 0.105166 0.317685
v -0.505591 0.116428 0.318055
v -0.559665 0.116428 0.318055
v -0.559665 0.105166 0.317685
v -0.532628 0.105166 0.317685
v -0.532628 0.116428 0.318055
v -0.586703 0.116428 0.318055
v -0.586703 0.105166 0.317685
v -0.559665 0.105166 0.317685
v -0.559665 0.116428 0.318055
v -0.61374 0.116428 0.318055
v -0.61374 0.105166 0.317685
v -0.586703 0.105166 0.317685
v -0.586703 0.116428 0.318055
v -0.61374 0.105166 0.317685
v -0.61374 0.116428 0.318055
v -0.625891 0.116428 0.318055
v -0.625897 0.105166 0.317685
v -0.634691 0.105288 0.313975
v -0.625897 0.105166 0.317685
v -0.625891 0.116428 0.318055
v -0.634689 0.11655 0.31434
v -0.638334 0.105582 0.305018
v -0.634691 0.105288 0.313975
v -0.634689 0.11655 0.31434
v -0.638334 0.116845 0.305373
v -0.638334 0.105582 0.305018
v -0.638334 0.116845 0.305373
v -0.638334 0.120119 0.205732
v -0.638334 0.108857 0.205358
v -0.634636 0.109144 0.196606
v -0.638334 0.108857 0.205358
v -0.638334 0.120119 0.205732
v -0.634632 0.120406 0.196977
v -0.625708 0.109263 0.19298
v -0.634636 0.109144 0.196606
v -0.634632 0.120406 0.196977
v -0.625695 0.120526 0.19335
v -0.625708 0.109263 0.19298
v -0.625695 0.120526 0.19335
v -0.61374 0.120526 0.19335
v -0.61374 0.109263 0.19298
v -0.586703 0.120526 0.19335
v -0.586703 0.109263 0.19298
v -0.61374 0.109263 0.19298
v -0.61374 0.120526 0.19335
v -0.559665 0.120526 0.19335
v -0.559665 0.109263 0.19298
v -0.586703 0.109263 0.19298
v -0.586703 0.120526 0.19335
v -0.532628 0.120526 0.19335
v -0.532628 0.109263 0.19298
v -0.559665 0.109263 0.19298
v -0.559665 0.120526 0.19335
vn -0 0.2168 -0.9762
vn -0 0.2167 -0.9762
vn -0 0.2167 -0.9762
vn -0 0.2168 -0.9762
vn -0 0.2168 -0.9762
vn -0 0.2168 -0.9762
vn 0.0001 0.2167 -0.9762
vn -0 0.2167 -0.9762
vn -0 0.2168 -0.9762
vn 0.9621 0.2723 -0.0153
vn 0.6726 0.3216 -0.6665
vn 0.0001 0.2167 -0.9762
vn 0.9621 0.2723 -0.0153
vn 0.9621 0.2723 -0.0154
vn 0.6726 0.3216 -0.6665
vn 0.9621 0.2723 -0.0154
vn 0.9621 0.2723 -0.0153
vn 0.9621 0.2723 -0.0153
vn 0.9621 0.2723 -0.0152
vn 0.6658 0.3476 0.6602
vn 0.9621 0.2723 -0.0152
vn 0.9621 0.2723 -0.0153
vn -0 0.3308 0.9437
vn 0.0001 0.3308 0.9437
vn 0.6658 0.3476 0.6602
vn -0 0.3308 0.9437
vn -0 0.3308 0.9437
vn -0 0.3309 0.9437
vn -0 0.3308 0.9437
vn 0.0001 0.3308 0.9437
vn -0 0.3309 0.9437
vn -0 0.3308 0.9437
vn -0 0.3308 0.9437
vn -0 0.3309 0.9437
vn -0 0.3309 0.9437
vn -0 0.3308 0.9437
vn -0 0.3308 0.9437
vn -0 0.3309 0.9437
vn -0 0.3309 0.9437
vn -0 0.3308 0.9437
vn -0 0.3308 0.9437
vn -0 0.3309 0.9437
vn -0 0.3309 0.9437
vn -0 0.3308 0.9437
vn -0 0.3308 0.9437
vn -0 0.3309 0.9437
vn -0 0.3309 0.9437
vn 0.0001 0.3308 0.9437
vn -0.0001 0.3308 0.9437
vn -0 0.3308 0.9437
vn -0.6658 0.3476 0.6602
vn -0.0001 0.3308 0.9437
vn 0.0001 0.3308 0.9437
vn -0.9621 0.2723 -0.0152
vn -0.6658 0.3476 0.6602
vn 0.0001 0.3308 0.9437
vn -0.9621 0.2723 -0.0153
vn -0.9621 0.2723 -0.0153
vn -0.9621 0.2723 -0.0154
vn -0.9621 0.2723 -0.0152
vn -0.9621 0.2723 -0.0153
vn -0.6726 0.3216 -0.6665
vn -0.9621 0.2723 -0.0154
vn -0.9621 0.2723 -0.0153
vn -0.0001 0.2168 -0.9762
vn -0.6726 0.3216 -0.6665
vn -0.9621 0.2723 -0.0153
vn -0 0.2168 -0.9762
vn -0 0.2168 -0.9762
vn -0 0.2168 -0.9762
vn -0 0.2167 -0.9762
vn -0.0001 0.2168 -0.9762
vn -0 0.2168 -0.9762
vn -0 0.2167 -0.9762
vn -0 0.2167 -0.9762
vn -0 0.2168 -0.9762
vn -0 0.2168 -0.9762
vn -0 0.2167 -0.9762
vn -0 0.2167 -0.9762
vn -0 0.2168 -0.9762
vn -0 0.2168 -0.9762
vn -0 0.2167 -0.9762
vn -0 0.2167 -0.9762
vn -0 0.2168 -0.9762
vn -0 0.2168 -0.9762
vn -0 0.2168 -0.9762
vn -0 0.991 -0.1336
vn -0.0349 0.9898 -0.1385
vn -0 0.2168 -0.9762
vn -0 0.2168 -0.9762
vn 0.0349 0.9898 -0.1385
vn -0 0.991 -0.1336
vn -0 0.99 -0.1411
vn -0 0.991 -0.1336
vn 0.0349 0.9898 -0.1385
vn 0.0404 0.9887 -0.1447
vn -0.0404 0.9887 -0.1447
vn -0.0349 0.9898 -0.1385
vn -0 0.991 -0.1336
vn -0 0.99 -0.1411
vn 0.0404 0.9887 -0.1447
vn 0.0349 0.9898 -0.1385
vn 0.0682 0.9866 -0.1483
vn 0.0822 0.9846 -0.1542
vn -0 0.2168 -0.9762
vn -0 0.2168 -0.9762
vn 0.0682 0.9866 -0.1483
vn 0.0349 0.9898 -0.1385
vn 0.0822 0.9846 -0.1542
vn 0.0978 0.9811 -0.1669
vn 0.0493 0.9851 -0.1645
vn 0.0404 0.9887 -0.1447
vn 0.0404 0.9887 -0.1447
vn 0.0493 0.9851 -0.1645
vn -0 0.9865 -0.1636
vn -0 0.99 -0.1411
vn 0.0495 0.9842 -0.1702
vn 0.0493 0.9851 -0.1645
vn 0.0978 0.9811 -0.1669
vn 0.106 0.9799 -0.1692
vn -0 0.9853 -0.1706
vn -0 0.9865 -0.1636
vn 0.0493 0.9851 -0.1645
vn 0.0495 0.9842 -0.1702
vn 0.0495 0.9842 -0.1702
vn 0.106 0.9799 -0.1692
vn -0 0.3309 0.9437
vn -0 0.3309 0.9437
vn -0 0.9853 -0.1706
vn 0.0495 0.9842 -0.1702
vn -0 0.3309 0.9437
vn -0 0.3309 0.9437
vn -0.0529 0.984 -0.1701
vn -0 0.9853 -0.1706
vn -0 0.3309 0.9437
vn -0 0.3309 0.9437
vn -0.0529 0.984 -0.1701
vn -0.0493 0.9851 -0.1645
vn -0 0.9865 -0.1636
vn -0 0.9853 -0.1706
vn -0.106 0.9799 -0.1692
vn -0.0529 0.984 -0.1701
vn -0 0.3309 0.9437
vn -0 0.3309 0.9437
vn -0.106 0.9799 -0.1692
vn -0.0978 0.9811 -0.1669
vn -0.0493 0.9851 -0.1645
vn -0.0529 0.984 -0.1701
vn -0.13 0.9764 -0.1725
vn -0.106 0.9799 -0.1692
vn -0 0.3309 0.9437
vn -0 0.3308 0.9437
vn -0.106 0.9799 -0.1692
vn -0.13 0.9764 -0.1725
vn -0.1231 0.9777 -0.17
vn -0.0978 0.9811 -0.1669
vn -0.1231 0.9777 -0.17
vn -0.13 0.9764 -0.1725
vn -0 0.3308 0.9437
vn 0.9621 0.2723 -0.0153
vn -0.1231 0.9777 -0.17
vn 0.9621 0.2723 -0.0153
vn 0.9621 0.2723 -0.0153
vn -0.091 0.9833 -0.1576
vn -0.091 0.9833 -0.1576
vn -0.0822 0.9846 -0.1542
vn -0.0978 0.9811 -0.1669
vn -0.1231 0.9777 -0.17
vn -0.0805 0.985 -0.1529
vn -0.091 0.9833 -0.1576
vn 0.9621 0.2723 -0.0153
vn -0 0.2168 -0.9762
vn -0.0822 0.9846 -0.1542
vn -0.091 0.9833 -0.1576
vn -0.0805 0.985 -0.1529
vn -0.0682 0.9866 -0.1483
vn -0.0682 0.9866 -0.1483
vn -0.0805 0.985 -0.1529
vn -0 0.2168 -0.9762
vn -0 0.2168 -0.9762
vn -0 0.2168 -0.9762
vn -0 0.2168 -0.9762
vn -0.0349 0.9898 -0.1385
vn -0.0682 0.9866 -0.1483
vn -0.0822 0.9846 -0.1542
vn -0.0682 0.9866 -0.1483
vn -0.0349 0.9898 -0.1385
vn -0.0404 0.9887 -0.1447
vn -0.0404 0.9887 -0.1447
vn -0.0493 0.9851 -0.1645
vn -0.0978 0.9811 -0.1669
vn -0.0822 0.9846 -0.1542
vn -0 0.99 -0.1411
vn -0 0.9865 -0.1636
vn -0.0493 0.9851 -0.1645
vn -0.0404 0.9887 -0.1447
vn 0.106 0.9799 -0.1692
vn 0.13 0.9764 -0.1725
vn 0.0001 0.3308 0.9437
vn -0 0.3309 0.9437
vn 0.1231 0.9777 -0.1701
vn 0.13 0.9764 -0.1725
vn 0.106 0.9799 -0.1692
vn 0.0978 0.9811 -0.1669
vn 0.13 0.9764 -0.1725
vn 0.1231 0.9777 -0.1701
vn -0.9621 0.2723 -0.0153
vn 0.0001 0.3308 0.9437
vn -0.9621 0.2723 -0.0153
vn -0.9621 0.2723 -0.0153
vn 0.1231 0.9777 -0.1701
vn 0.091 0.9833 -0.1576
vn 0.0822 0.9846 -0.1542
vn 0.091 0.9833 -0.1576
vn 0.1231 0.9777 -0.1701
vn 0.0978 0.9811 -0.1669
vn 0.091 0.9833 -0.1576
vn 0.0805 0.985 -0.1529
vn -0 0.2168 -0.9762
vn -0.9621 0.2723 -0.0153
vn 0.091 0.9833 -0.1576
vn 0.0822 0.9846 -0.1542
vn 0.0682 0.9866 -0.1483
vn 0.0805 0.985 -0.1529
vn 0.0805 0.985 -0.1529
vn 0.0682 0.9866 -0.1483
vn -0 0.2168 -0.9762
vn -0 0.2168 -0.9762
vn -0 0.0328 -0.9995
vn -0 0.0328 -0.9995
vn 0.0001 0.0329 -0.9995
vn 0.0001 0.033 -0.9995
vn -0 0.0328 -0.9995
vn -0 0.0328 -0.9995
vn -0 0.0328 -0.9995
vn -0 0.0328 -0.9995
vn 0.0001 0.0329 -0.9995
vn 0.7002 0.0238 -0.7136
vn 0.7001 0.0238 -0.7136
vn 0.0001 0.033 -0.9995
vn 0.7002 0.0238 -0.7136
vn 1 0.0001 -0.0001
vn 1 -0 -0.0001
vn 0.7001 0.0238 -0.7136
vn 1 0.0002 0.0001
vn 1 -0 -0.0001
vn 1 0.0001 -0.0001
vn 1 -0 0.0001
vn 0.7139 -0.0226 0.6999
vn 1 0.0002 0.0001
vn 1 -0 0.0001
vn 0.7138 -0.0226 0.7
vn 0.0001 -0.0329 0.9995
vn 0.7139 -0.0226 0.6999
vn 0.7138 -0.0226 0.7
vn 0.0001 -0.0327 0.9995
vn 0.0001 -0.0329 0.9995
vn 0.0001 -0.0327 0.9995
vn -0 -0.0328 0.9995
vn -0 -0.0328 0.9995
vn -0 -0.0328 0.9995
vn -0 -0.0328 0.9995
vn -0 -0.0328 0.9995
vn -0 -0.0328 0.9995
vn -0 -0.0328 0.9995
vn -0 -0.0328 0.9995
vn -0 -0.0328 0.9995
vn -0 -0.0328 0.9995
vn -0 -0.0328 0.9995
vn -0 -0.0328 0.9995
vn -0 -0.0328 0.9995
vn -0 -0.0328 0.9995
vn -0 -0.0328 0.9995
vn -0 -0.0328 0.9995
vn -0 -0.0328 0.9995
vn -0 -0.0328 0.9995
vn -0 -0.0328 0.9995
vn -0 -0.0328 0.9995
vn -0.0001 -0.0328 0.9995
vn -0.0001 -0.0327 0.9995
vn -0.7139 -0.0226 0.6999
vn -0.0001 -0.0327 0.9995
vn -0.0001 -0.0328 0.9995
vn -0.7138 -0.0226 0.7
vn -1 -0 0.0001
vn -0.7139 -0.0226 0.6999
vn -0.7138 -0.0226 0.7
vn -1 0.0002 0.0001
vn -1 -0 0.0001
vn -1 0.0002 0.0001
vn -1 -0 -0.0001
vn -1 0.0001 -0.0001
vn -0.7003 0.0238 -0.7135
vn -1 0.0001 -0.0001
vn -1 -0 -0.0001
vn -0.7002 0.0238 -0.7136
vn -0.0001 0.0329 -0.9995
vn -0.7003 0.0238 -0.7135
vn -0.7002 0.0238 -0.7136
vn -0.0001 0.033 -0.9995
vn -0.0001 0.0329 -0.9995
vn -0.0001 0.033 -0.9995
vn -0 0.0328 -0.9995
vn -0 0.0328 -0.9995
vn -0 0.0328 -0.9995
vn -0 0.0328 -0.9995
vn -0 0.0328 -0.9995
vn -0 0.0328 -0.9995
vn -0 0.0328 -0.9995
vn -0 0.0328 -0.9995
vn -0 0.0328 -0.9995
vn -0 0.0328 -0.9995
vn -0 0.0328 -0.9995
vn -0 0.0328 -0.9995
vn -0 0.0328 -0.9995
vn -0 0.0328 -0.9995
vt 0.227142 0.275288
vt 0.2359 0.268398
vt 0.221777 0.268398
vt 0.21741 0.27518
vt 0.227142 0.275288
vt 0.234019 0.275408
vt 0.24191 0.268362
vt 0.2359 0.268398
vt 0.234019 0.275408
vt 0.236747 0.278483
vt 0.246124 0.269978
vt 0.24191 0.268362
vt 0.236747 0.278483
vt 0.247823 0.274103
vt 0.246124 0.269978
vt 0.247823 0.274103
vt 0.236747 0.278483
vt 0.236622 0.315769
vt 0.247835 0.325731
vt 0.246207 0.32996
vt 0.247835 0.325731
vt 0.236622 0.315769
vt 0.234016 0.318395
vt 0.242059 0.331668
vt 0.246207 0.32996
vt 0.234016 0.318395
vt 0.234016 0.318395
vt 0.227042 0.318701
vt 0.2359 0.331648
vt 0.242059 0.331668
vt 0.217368 0.31897
vt 0.221777 0.331648
vt 0.2359 0.331648
vt 0.227042 0.318701
vt 0.207654 0.319045
vt 0.207654 0.331648
vt 0.221777 0.331648
vt 0.217368 0.31897
vt 0.197941 0.31897
vt 0.193531 0.331648
vt 0.207654 0.331648
vt 0.207654 0.319045
vt 0.188267 0.318701
vt 0.179408 0.331648
vt 0.193531 0.331648
vt 0.197941 0.31897
vt 0.188267 0.318701
vt 0.181293 0.318395
vt 0.17325 0.331668
vt 0.179408 0.331648
vt 0.169102 0.32996
vt 0.17325 0.331668
vt 0.181293 0.318395
vt 0.167473 0.325731
vt 0.169102 0.32996
vt 0.181293 0.318395
vt 0.178687 0.315769
vt 0.178561 0.278483
vt 0.167485 0.274103
vt 0.167473 0.325731
vt 0.178687 0.315769
vt 0.169184 0.269978
vt 0.167485 0.274103
vt 0.178561 0.278483
vt 0.173398 0.268362
vt 0.169184 0.269978
vt 0.178561 0.278483
vt 0.18129 0.275408
vt 0.18129 0.275408
vt 0.188166 0.275288
vt 0.179408 0.268398
vt 0.173398 0.268362
vt 0.197898 0.27518
vt 0.193531 0.268398
vt 0.179408 0.268398
vt 0.188166 0.275288
vt 0.207654 0.27515
vt 0.207654 0.268398
vt 0.193531 0.268398
vt 0.197898 0.27518
vt 0.21741 0.27518
vt 0.221777 0.268398
vt 0.207654 0.268398
vt 0.207654 0.27515
vt 0.21741 0.27518
vt 0.207654 0.27515
vt 0.207654 0.276656
vt 0.217232 0.276685
vt 0.207654 0.27515
vt 0.197898 0.27518
vt 0.198076 0.276685
vt 0.207654 0.276656
vt 0.207654 0.282648
vt 0.207654 0.276656
vt 0.198076 0.276685
vt 0.198062 0.282659
vt 0.217247 0.282659
vt 0.217232 0.276685
vt 0.207654 0.276656
vt 0.207654 0.282648
vt 0.198062 0.282659
vt 0.198076 0.276685
vt 0.188509 0.276788
vt 0.188473 0.282697
vt 0.197898 0.27518
vt 0.188166 0.275288
vt 0.188509 0.276788
vt 0.198076 0.276685
vt 0.188473 0.282697
vt 0.188487 0.311182
vt 0.198055 0.311398
vt 0.198062 0.282659
vt 0.198062 0.282659
vt 0.198055 0.311398
vt 0.207654 0.311459
vt 0.207654 0.282648
vt 0.198056 0.317333
vt 0.198055 0.311398
vt 0.188487 0.311182
vt 0.188489 0.317067
vt 0.207654 0.317407
vt 0.207654 0.311459
vt 0.198055 0.311398
vt 0.198056 0.317333
vt 0.198056 0.317333
vt 0.188489 0.317067
vt 0.188267 0.318701
vt 0.197941 0.31897
vt 0.207654 0.317407
vt 0.198056 0.317333
vt 0.197941 0.31897
vt 0.207654 0.319045
vt 0.217253 0.317333
vt 0.207654 0.317407
vt 0.207654 0.319045
vt 0.217368 0.31897
vt 0.217253 0.317333
vt 0.217253 0.311398
vt 0.207654 0.311459
vt 0.207654 0.317407
vt 0.22682 0.317067
vt 0.217253 0.317333
vt 0.217368 0.31897
vt 0.227042 0.318701
vt 0.22682 0.317067
vt 0.226822 0.311182
vt 0.217253 0.311398
vt 0.217253 0.317333
vt 0.233721 0.316764
vt 0.22682 0.317067
vt 0.227042 0.318701
vt 0.234016 0.318395
vt 0.22682 0.317067
vt 0.233721 0.316764
vt 0.235133 0.314947
vt 0.226822 0.311182
vt 0.235133 0.314947
vt 0.233721 0.316764
vt 0.234016 0.318395
vt 0.236622 0.315769
vt 0.235133 0.314947
vt 0.236622 0.315769
vt 0.236747 0.278483
vt 0.235125 0.279094
vt 0.235125 0.279094
vt 0.226836 0.282697
vt 0.226822 0.311182
vt 0.235133 0.314947
vt 0.233609 0.276903
vt 0.235125 0.279094
vt 0.236747 0.278483
vt 0.234019 0.275408
vt 0.226836 0.282697
vt 0.235125 0.279094
vt 0.233609 0.276903
vt 0.2268 0.276788
vt 0.2268 0.276788
vt 0.233609 0.276903
vt 0.234019 0.275408
vt 0.227142 0.275288
vt 0.227142 0.275288
vt 0.21741 0.27518
vt 0.217232 0.276685
vt 0.2268 0.276788
vt 0.226836 0.282697
vt 0.2268 0.276788
vt 0.217232 0.276685
vt 0.217247 0.282659
vt 0.217247 0.282659
vt 0.217253 0.311398
vt 0.226822 0.311182
vt 0.226836 0.282697
vt 0.207654 0.282648
vt 0.207654 0.311459
vt 0.217253 0.311398
vt 0.217247 0.282659
vt 0.188489 0.317067
vt 0.181588 0.316764
vt 0.181293 0.318395
vt 0.188267 0.318701
vt 0.180176 0.314947
vt 0.181588 0.316764
vt 0.188489 0.317067
vt 0.188487 0.311182
vt 0.181588 0.316764
vt 0.180176 0.314947
vt 0.178687 0.315769
vt 0.181293 0.318395
vt 0.178561 0.278483
vt 0.178687 0.315769
vt 0.180176 0.314947
vt 0.180184 0.279094
vt 0.188473 0.282697
vt 0.180184 0.279094
vt 0.180176 0.314947
vt 0.188487 0.311182
vt 0.180184 0.279094
vt 0.1817 0.276903
vt 0.18129 0.275408
vt 0.178561 0.278483
vt 0.180184 0.279094
vt 0.188473 0.282697
vt 0.188509 0.276788
vt 0.1817 0.276903
vt 0.1817 0.276903
vt 0.188509 0.276788
vt 0.188166 0.275288
vt 0.18129 0.275408
vt 0.235901 0.266555
vt 0.2359 0.268398
vt 0.24191 0.268362
vt 0.242287 0.266568
vt 0.2359 0.268398
vt 0.235901 0.266555
vt 0.221777 0.266555
vt 0.221777 0.268398
vt 0.24191 0.268362
vt 0.246124 0.269978
vt 0.247309 0.268651
vt 0.242287 0.266568
vt 0.246124 0.269978
vt 0.247823 0.274103
vt 0.249436 0.273583
vt 0.247309 0.268651
vt 0.249437 0.325916
vt 0.249436 0.273583
vt 0.247823 0.274103
vt 0.247835 0.325731
vt 0.247345 0.330953
vt 0.249437 0.325916
vt 0.247835 0.325731
vt 0.246207 0.32996
vt 0.24239 0.333086
vt 0.247345 0.330953
vt 0.246207 0.32996
vt 0.242059 0.331668
vt 0.24239 0.333086
vt 0.242059 0.331668
vt 0.2359 0.331648
vt 0.235901 0.3331
vt 0.221777 0.331648
vt 0.221777 0.3331
vt 0.235901 0.3331
vt 0.2359 0.331648
vt 0.207654 0.331648
vt 0.207654 0.3331
vt 0.221777 0.3331
vt 0.221777 0.331648
vt 0.193531 0.331648
vt 0.193531 0.3331
vt 0.207654 0.3331
vt 0.207654 0.331648
vt 0.179408 0.331648
vt 0.179408 0.3331
vt 0.193531 0.3331
vt 0.193531 0.331648
vt 0.179408 0.3331
vt 0.179408 0.331648
vt 0.17325 0.331668
vt 0.172918 0.333086
vt 0.167964 0.330953
vt 0.172918 0.333086
vt 0.17325 0.331668
vt 0.169102 0.32996
vt 0.165872 0.325916
vt 0.167964 0.330953
vt 0.169102 0.32996
vt 0.167473 0.325731
vt 0.165872 0.325916
vt 0.167473 0.325731
vt 0.167485 0.274103
vt 0.165873 0.273583
vt 0.167999 0.268651
vt 0.165873 0.273583
vt 0.167485 0.274103
vt 0.169184 0.269978
vt 0.173021 0.266568
vt 0.167999 0.268651
vt 0.169184 0.269978
vt 0.173398 0.268362
vt 0.173021 0.266568
vt 0.173398 0.268362
vt 0.179408 0.268398
vt 0.179408 0.266555
vt 0.193531 0.268398
vt 0.193531 0.266555
vt 0.179408 0.266555
vt 0.179408 0.268398
vt 0.207654 0.268398
vt 0.207654 0.266555
vt 0.193531 0.266555
vt 0.193531 0.268398
vt 0.221777 0.268398
vt 0.221777 0.266555
vt 0.207654 0.266555
vt 0.207654 0.268398
s off
f 1/1/1 2/2/2 3/3/3
f 1/1/1 3/3/3 4/4/4
f 5/5/5 6/6/6 7/7/7
f 5/5/5 7/7/7 8/8/8
f 9/9/9 10/10/10 11/11/11
f 9/9/9 11/11/11 12/12/12
f 13/13/13 14/14/14 15/15/15
f 16/16/16 17/17/17 18/18/18
f 16/16/16 18/18/18 19/19/19
f 20/20/20 21/21/21 22/22/22
f 20/20/20 22/22/22 23/23/23
f 24/24/24 25/25/25 26/26/26
f 27/27/27 28/28/28 29/29/29
f 27/27/27 29/29/29 30/30/30
f 31/31/31 32/32/32 33/33/33
f 31/31/31 33/33/33 34/34/34
f 35/35/35 36/36/36 37/37/37
f 35/35/35 37/37/37 38/38/38
f 39/39/39 40/40/40 41/41/41
f 39/39/39 41/41/41 42/42/42
f 43/43/43 44/44/44 45/45/45
f 43/43/43 45/45/45 46/46/46
f 47/47/47 48/48/48 49/49/49
f 47/47/47 49/49/49 50/50/50
f 51/51/51 52/52/52 53/53/53
f 54/54/54 55/55/55 56/56/56
f 54/54/54 56/56/56 57/57/57
f 58/58/58 59/59/59 60/60/60
f 58/58/58 60/60/60 61/61/61
f 62/62/62 63/63/63 64/64/64
f 65/65/65 66/66/66 67/67/67
f 65/65/65 67/67/67 68/68/68
f 69/69/69 70/70/70 71/71/71
f 69/69/69 71/71/71 72/72/72
f 73/73/73 74/74/74 75/75/75
f 73/73/73 75/75/75 76/76/76
f 77/77/77 78/78/78 79/79/79
f 77/77/77 79/79/79 80/80/80
f 81/81/81 82/82/82 83/83/83
f 81/81/81 83/83/83 84/84/84
f 85/85/85 86/86/86 87/87/87
f 85/85/85 87/87/87 88/88/88
f 89/89/89 90/90/90 91/91/91
f 89/89/89 91/91/91 92/92/92
f 93/93/93 94/94/94 95/95/95
f 93/93/93 95/95/95 96/96/96
f 97/97/97 98/98/98 99/99/99
f 97/97/97 99/99/99 100/100/100
f 101/101/101 102/102/102 103/103/103
f 101/101/101 103/103/103 104/104/104
f 105/105/105 106/106/106 107/107/107
f 105/105/105 107/107/107 108/108/108
f 109/109/109 110/110/110 111/111/111
f 109/109/109 111/111/111 112/112/112
f 113/113/113 114/114/114 115/115/115
f 113/113/113 115/115/115 116/116/116
f 117/117/117 118/118/118 119/119/119
f 117/117/117 119/119/119 120/120/120
f 121/121/121 122/122/122 123/123/123
f 121/121/121 123/123/123 124/124/124
f 125/125/125 126/126/126 127/127/127
f 125/125/125 127/127/127 128/128/128
f 129/129/129 130/130/130 131/131/131
f 129/129/129 131/131/131 132/132/132
f 133/133/133 134/134/134 135/135/135
f 133/133/133 135/135/135 136/136/136
f 137/137/137 138/138/138 139/139/139
f 137/137/137 139/139/139 140/140/140
f 141/141/141 142/142/142 143/143/143
f 141/141/141 143/143/143 144/144/144
f 145/145/145 146/146/146 147/147/147
f 145/145/145 147/147/147 148/148/148
f 149/149/149 150/150/150 151/151/151
f 149/149/149 151/151/151 152/152/152
f 153/153/153 154/154/154 155/155/155
f 153/153/153 155/155/155 156/156/156
f 157/157/157 158/158/158 159/159/159
f 157/157/157 159/159/159 160/160/160
f 161/161/161 162/162/162 163/163/163
f 161/161/161 163/163/163 164/164/164
f 165/165/165 166/166/166 167/167/167
f 165/165/165 167/167/167 168/168/168
f 169/169/169 170/170/170 171/171/171
f 169/169/169 171/171/171 172/172/172
f 173/173/173 174/174/174 175/175/175
f 173/173/173 175/175/175 176/176/176
f 177/177/177 178/178/178 179/179/179
f 177/177/177 179/179/179 180/180/180
f 181/181/181 182/182/182 183/183/183
f 181/181/181 183/183/183 184/184/184
f 185/185/185 186/186/186 187/187/187
f 185/185/185 187/187/187 188/188/188
f 189/189/189 190/190/190 191/191/191
f 189/189/189 191/191/191 192/192/192
f 193/193/193 194/194/194 195/195/195
f 193/193/193 195/195/195 196/196/196
f 197/197/197 198/198/198 199/199/199
f 197/197/197 199/199/199 200/200/200
f 201/201/201 202/202/202 203/203/203
f 201/201/201 203/203/203 204/204/204
f 205/205/205 206/206/206 207/207/207
f 205/205/205 207/207/207 208/208/208
f 209/209/209 210/210/210 211/211/211
f 209/209/209 211/211/211 212/212/212
f 213/213/213 214/214/214 215/215/215
f 213/213/213 215/215/215 216/216/216
f 217/217/217 218/218/218 219/219/219
f 217/217/217 219/219/219 220/220/220
f 221/221/221 222/222/222 223/223/223
f 221/221/221 223/223/223 224/224/224
f 225/225/225 226/226/226 227/227/227
f 225/225/225 227/227/227 228/228/228
f 229/229/229 230/230/230 231/231/231
f 229/229/229 231/231/231 232/232/232
f 233/233/233 234/234/234 235/235/235
f 233/233/233 235/235/235 236/236/236
f 237/237/237 238/238/238 239/239/239
f 237/237/237 239/239/239 240/240/240
f 241/241/241 242/242/242 243/243/243
f 241/241/241 243/243/243 244/244/244
f 245/245/245 246/246/246 247/247/247
f 245/245/245 247/247/247 248/248/248
f 249/249/249 250/250/250 251/251/251
f 249/249/249 251/251/251 252/252/252
f 253/253/253 254/254/254 255/255/255
f 253/253/253 255/255/255 256/256/256
f 257/257/257 258/258/258 259/259/259
f 257/257/257 259/259/259 260/260/260
f 261/261/261 262/262/262 263/263/263
f 261/261/261 263/263/263 264/264/264
f 265/265/265 266/266/266 267/267/267
f 265/265/265 267/267/267 268/268/268
f 269/269/269 270/270/270 271/271/271
f 269/269/269 271/271/271 272/272/272
f 273/273/273 274/274/274 275/275/275
f 273/273/273 275/275/275 276/276/276
f 277/277/277 278/278/278 279/279/279
f 277/277/277 279/279/279 280/280/280
f 281/281/281 282/282/282 283/283/283
f 281/281/281 283/283/283 284/284/284
f 285/285/285 286/286/286 287/287/287
f 285/285/285 287/287/287 288/288/288
f 289/289/289 290/290/290 291/291/291
f 289/289/289 291/291/291 292/292/292
f 293/293/293 294/294/294 295/295/295
f 293/293/293 295/295/295 296/296/296
f 297/297/297 298/298/298 299/299/299
f 297/297/297 299/299/299 300/300/300
f 301/301/301 302/302/302 303/303/303
f 301/301/301 303/303/303 304/304/304
f 305/305/305 306/306/306 307/307/307
f 305/305/305 307/307/307 308/308/308
f 309/309/309 310/310/310 311/311/311
f 309/309/309 311/311/311 312/312/312
f 313/313/313 314/314/314 315/315/315
f 313/313/313 315/315/315 316/316/316
