v -0.111175 0.163255 0.114877
v -0.121655 0.164316 0.114972
v -0.111004 0.163545 0.117753
v -0.106314 0.163198 0.116137
v -0.108583 0.163008 0.113616
v -0.111175 0.163255 0.114877
v -0.111004 0.163545 0.117753
v -0.106314 0.163198 0.116137
v -0.111175 0.163255 0.114877
v -0.107605 0.162808 0.112066
v -0.106314 0.163198 0.116137
v -0.104213 0.162795 0.112983
v -0.107605 0.162808 0.112066
v -0.108583 0.163008 0.113616
v -0.106314 0.163198 0.116137
v -0.104184 0.162439 0.109604
v -0.107875 0.162472 0.108824
v -0.107605 0.162808 0.112066
v -0.104213 0.162795 0.112983
v -0.104184 0.162439 0.109604
v -0.107605 0.162808 0.112066
v -0.107875 0.162472 0.108824
v -0.104184 0.162439 0.109604
v -0.105359 0.162202 0.107025
v -0.107875 0.162472 0.108824
v -0.105359 0.162202 0.107025
v -0.108448 0.162088 0.10504
v -0.108448 0.162088 0.10504
v -0.10696 0.161923 0.103942
v -0.10904 0.161732 0.101511
v -0.110269 0.161926 0.102926
v -0.110269 0.161926 0.102926
v -0.112752 0.162241 0.103911
v -0.108448 0.162088 0.10504
v -0.107875 0.162472 0.108824
v -0.108448 0.162088 0.10504
v -0.111003 0.162384 0.10687
v -0.108448 0.162088 0.10504
v -0.112752 0.162241 0.103911
v -0.111003 0.162384 0.10687
v -0.121655 0.163423 0.106771
v -0.111003 0.162384 0.10687
v -0.112752 0.162241 0.103911
v -0.12517 0.165061 0.117784
v -0.121655 0.164316 0.114972
v -0.121655 0.163423 0.106771
v -0.121655 0.163423 0.106771
v -0.12517 0.16232 0.093179
v -0.12517 0.165061 0.117784
v -0.121655 0.163123 0.103959
v -0.12517 0.16232 0.093179
v -0.121655 0.163423 0.106771
v -0.121655 0.163423 0.106771
v -0.112752 0.162241 0.103911
v -0.121655 0.163123 0.103959
v -0.121655 0.162273 0.095991
v -0.12517 0.16232 0.093179
v -0.121655 0.163123 0.103959
v -0.112261 0.161356 0.096064
v -0.1119 0.161016 0.093213
v -0.121655 0.162273 0.095991
v -0.12517 0.16232 0.093179
v -0.121655 0.162273 0.095991
v -0.1119 0.161016 0.093213
v -0.112261 0.161356 0.096064
v -0.107911 0.160967 0.09459
v -0.1119 0.161016 0.093213
v -0.109802 0.161318 0.09738
v -0.105543 0.161202 0.097461
v -0.107911 0.160967 0.09459
v -0.112261 0.161356 0.096064
v -0.109802 0.161318 0.09738
v -0.107911 0.160967 0.09459
v -0.108927 0.16144 0.098806
v -0.105543 0.161202 0.097461
v -0.109802 0.161318 0.09738
v -0.10904 0.161732 0.101511
v -0.105516 0.161646 0.101697
v -0.108927 0.16144 0.098806
v -0.105516 0.161646 0.101697
v -0.105543 0.161202 0.097461
v -0.108927 0.16144 0.098806
v -0.10904 0.161732 0.101511
v -0.10696 0.161923 0.103942
v -0.105516 0.161646 0.101697
v -0.121655 0.164316 0.114972
v -0.12517 0.165061 0.117784
v -0.111004 0.163545 0.117753
vn 0.0992 0.9894 -0.1056
vn 0.0992 0.9894 -0.1056
vn 0.0992 0.9894 -0.1056
vn 0.0406 0.993 -0.1113
vn 0.0406 0.993 -0.1113
vn 0.0406 0.993 -0.1113
vn 0.0383 0.994 -0.1024
vn 0.0383 0.994 -0.1024
vn 0.0383 0.994 -0.1024
vn 0.0323 0.9939 -0.1053
vn 0.0323 0.9939 -0.1053
vn 0.0323 0.9939 -0.1053
vn 0.0346 0.9938 -0.106
vn 0.0346 0.9938 -0.106
vn 0.0346 0.9938 -0.106
vn 0.0311 0.9939 -0.1057
vn 0.0311 0.9939 -0.1057
vn 0.0311 0.9939 -0.1057
vn 0.032 0.994 -0.1044
vn 0.032 0.994 -0.1044
vn 0.032 0.994 -0.1044
vn 0.0311 0.9939 -0.1058
vn 0.0311 0.9939 -0.1058
vn 0.0311 0.9939 -0.1058
vn 0.0312 0.9939 -0.1055
vn 0.0312 0.9939 -0.1055
vn 0.0312 0.9939 -0.1055
vn 0.0334 0.9938 -0.1058
vn 0.0334 0.9938 -0.1058
vn 0.0334 0.9938 -0.1058
vn 0.0334 0.9938 -0.1058
vn 0.071 0.988 -0.1369
vn 0.071 0.988 -0.1369
vn 0.071 0.988 -0.1369
vn 0.0387 0.9935 -0.1066
vn 0.0387 0.9935 -0.1066
vn 0.0387 0.9935 -0.1066
vn 0.0568 0.995 -0.0817
vn 0.0568 0.995 -0.0817
vn 0.0568 0.995 -0.0817
vn 0.0975 0.9896 -0.1055
vn 0.0975 0.9896 -0.1055
vn 0.0975 0.9896 -0.1055
vn 0.123 0.9866 -0.1075
vn 0.123 0.9866 -0.1075
vn 0.123 0.9866 -0.1075
vn 0.1154 0.9872 -0.11
vn 0.1154 0.9872 -0.11
vn 0.1154 0.9872 -0.11
vn 0.0975 0.9896 -0.1055
vn 0.0975 0.9896 -0.1055
vn 0.0975 0.9896 -0.1055
vn 0.0975 0.9896 -0.1055
vn 0.0975 0.9896 -0.1055
vn 0.0975 0.9896 -0.1055
vn 0.0975 0.9896 -0.1055
vn 0.0975 0.9896 -0.1055
vn 0.0975 0.9896 -0.1055
vn 0.0975 0.9896 -0.1055
vn 0.0975 0.9896 -0.1055
vn 0.0975 0.9896 -0.1055
vn 0.0975 0.9896 -0.1055
vn 0.0975 0.9896 -0.1055
vn 0.0975 0.9896 -0.1055
vn 0.0507 0.9924 -0.1118
vn 0.0507 0.9924 -0.1118
vn 0.0507 0.9924 -0.1118
vn 0.0291 0.994 -0.1053
vn 0.0291 0.994 -0.1053
vn 0.0291 0.994 -0.1053
vn 0.0603 0.9946 -0.0842
vn 0.0603 0.9946 -0.0842
vn 0.0603 0.9946 -0.0842
vn 0.029 0.9943 -0.1027
vn 0.029 0.9943 -0.1027
vn 0.029 0.9943 -0.1027
vn 0.0298 0.9939 -0.1062
vn 0.0298 0.9939 -0.1062
vn 0.0298 0.9939 -0.1062
vn 0.0283 0.9941 -0.1045
vn 0.0283 0.9941 -0.1045
vn 0.0283 0.9941 -0.1045
vn 0.0297 0.9942 -0.1034
vn 0.0297 0.9942 -0.1034
vn 0.0297 0.9942 -0.1034
vn 0.1052 0.986 -0.1295
vn 0.1052 0.986 -0.1295
vn 0.1052 0.986 -0.1295
vt 0.441927 0.577302
vt 0.436453 0.577352
vt 0.442016 0.578804
vt 0.444466 0.57796
vt 0.443281 0.576643
vt 0.441927 0.577302
vt 0.442016 0.578804
vt 0.444466 0.57796
vt 0.441927 0.577302
vt 0.443792 0.575834
vt 0.444466 0.57796
vt 0.445563 0.576312
vt 0.443792 0.575834
vt 0.443281 0.576643
vt 0.444466 0.57796
vt 0.445579 0.574547
vt 0.443651 0.57414
vt 0.443792 0.575834
vt 0.445563 0.576312
vt 0.445579 0.574547
vt 0.443792 0.575834
vt 0.443651 0.57414
vt 0.445579 0.574547
vt 0.444965 0.5732
vt 0.443651 0.57414
vt 0.444965 0.5732
vt 0.443352 0.572163
vt 0.443352 0.572163
vt 0.444129 0.57159
vt 0.443042 0.57032
vt 0.4424 0.571059
vt 0.4424 0.571059
vt 0.441103 0.571574
vt 0.443352 0.572163
vt 0.443651 0.57414
vt 0.443352 0.572163
vt 0.442017 0.573119
vt 0.443352 0.572163
vt 0.441103 0.571574
vt 0.442017 0.573119
vt 0.436453 0.573067
vt 0.442017 0.573119
vt 0.441103 0.571574
vt 0.434617 0.57882
vt 0.436453 0.577352
vt 0.436453 0.573067
vt 0.436453 0.573067
vt 0.434617 0.565968
vt 0.434617 0.57882
vt 0.436453 0.571598
vt 0.434617 0.565968
vt 0.436453 0.573067
vt 0.436453 0.573067
vt 0.441103 0.571574
vt 0.436453 0.571598
vt 0.436453 0.567437
vt 0.434617 0.565968
vt 0.436453 0.571598
vt 0.44136 0.567475
vt 0.441548 0.565985
vt 0.436453 0.567437
vt 0.434617 0.565968
vt 0.436453 0.567437
vt 0.441548 0.565985
vt 0.44136 0.567475
vt 0.443632 0.566705
vt 0.441548 0.565985
vt 0.442644 0.568162
vt 0.444869 0.568204
vt 0.443632 0.566705
vt 0.44136 0.567475
vt 0.442644 0.568162
vt 0.443632 0.566705
vt 0.443101 0.568907
vt 0.444869 0.568204
vt 0.442644 0.568162
vt 0.443042 0.57032
vt 0.444883 0.570417
vt 0.443101 0.568907
vt 0.444883 0.570417
vt 0.444869 0.568204
vt 0.443101 0.568907
vt 0.443042 0.57032
vt 0.444129 0.57159
vt 0.444883 0.570417
vt 0.436453 0.577352
vt 0.434617 0.57882
vt 0.442016 0.578804
s off
f 1/1/1 2/2/2 3/3/3
f 4/4/4 5/5/5 6/6/6
f 7/7/7 8/8/8 9/9/9
f 10/10/10 11/11/11 12/12/12
f 13/13/13 14/14/14 15/15/15
f 16/16/16 17/17/17 18/18/18
f 19/19/19 20/20/20 21/21/21
f 22/22/22 23/23/23 24/24/24
f 25/25/25 26/26/26 27/27/27
f 28/28/28 29/29/29 30/30/30
f 28/28/28 30/30/30 31/31/31
f 32/32/32 33/33/33 34/34/34
f 35/35/35 36/36/36 37/37/37
f 38/38/38 39/39/39 40/40/40
f 41/41/41 42/42/42 43/43/43
f 44/44/44 45/45/45 46/46/46
f 47/47/47 48/48/48 49/49/49
f 50/50/50 51/51/51 52/52/52
f 53/53/53 54/54/54 55/55/55
f 56/56/56 57/57/57 58/58/58
f 59/59/59 60/60/60 61/61/61
f 62/62/62 63/63/63 64/64/64
f 65/65/65 66/66/66 67/67/67
f 68/68/68 69/69/69 70/70/70
f 71/71/71 72/72/72 73/73/73
f 74/74/74 75/75/75 76/76/76
f 77/77/77 78/78/78 79/79/79
f 80/80/80 81/81/81 82/82/82
f 83/83/83 84/84/84 85/85/85
f 86/86/86 87/87/87 88/88/88
