v 0.79171 0.200042 -0.289895
v 0.791602 0.200208 -0.293405
v 0.789893 0.200182 -0.291314
v 0.821974 0.199484 -0.28636
v 0.819179 0.199426 -0.284429
v 0.825364 0.199267 -0.282629
v 0.747053 0.201957 -0.28659
v 0.748342 0.201814 -0.285091
v 0.749582 0.20176 -0.285716
v 0.908156 0.201671 -0.286048
v 0.898158 0.201072 -0.283627
v 0.908156 0.201573 -0.283627
v 0.745665 0.201659 -0.277078
v 0.737875 0.202155 -0.277065
v 0.745312 0.201589 -0.274804
v 0.737875 0.202155 -0.277065
v 0.734985 0.20225 -0.2748
v 0.745312 0.201589 -0.274804
v 0.734985 0.20225 -0.2748
v 0.737875 0.202155 -0.277065
v 0.737875 0.202425 -0.283705
v 0.749212 0.201605 -0.281305
v 0.75198 0.201321 -0.278679
v 0.752007 0.201433 -0.281483
v 0.737953 0.202509 -0.285892
v 0.734985 0.203054 -0.29464
v 0.737875 0.202425 -0.283705
v 0.744915 0.202066 -0.285907
v 0.737953 0.202509 -0.285892
v 0.745672 0.201927 -0.283691
v 0.734985 0.203054 -0.29464
v 0.737953 0.202509 -0.285892
v 0.737953 0.202766 -0.292219
v 0.743893 0.202391 -0.292306
v 0.734985 0.203054 -0.29464
v 0.737953 0.202766 -0.292219
v 0.769197 0.200496 -0.279721
v 0.771384 0.200177 -0.274722
v 0.774353 0.200055 -0.274722
v 0.76248 0.201455 -0.294562
v 0.759668 0.201022 -0.281908
v 0.763964 0.201261 -0.291672
v 0.76248 0.201455 -0.294562
v 0.763964 0.201261 -0.291672
v 0.765292 0.201339 -0.294562
v 0.79171 0.200042 -0.289895
v 0.793571 0.200079 -0.291675
v 0.791602 0.200208 -0.293405
v 0.879053 0.200585 -0.290894
v 0.881905 0.200751 -0.292102
v 0.878191 0.200653 -0.293442
v 0.800363 0.199202 -0.274722
v 0.800363 0.19944 -0.279877
v 0.797551 0.199242 -0.274722
v 0.804035 0.199566 -0.283548
v 0.800363 0.199606 -0.28347
v 0.800363 0.19944 -0.279877
v 0.797551 0.200164 -0.294562
v 0.800363 0.199606 -0.28347
v 0.800363 0.200131 -0.294562
v 0.821986 0.198913 -0.274285
v 0.825986 0.198995 -0.277041
v 0.82245 0.199024 -0.276749
v 0.848393 0.199437 -0.282211
v 0.850395 0.199562 -0.284398
v 0.847368 0.199541 -0.284734
v 0.819023 0.199102 -0.277536
v 0.816686 0.1992 -0.279012
v 0.815659 0.199107 -0.276798
v 0.835123 0.19985 -0.29464
v 0.837934 0.199355 -0.283158
v 0.837934 0.199765 -0.292062
v 0.866992 0.199548 -0.279721
v 0.869179 0.199428 -0.274722
v 0.872147 0.199577 -0.274722
v 0.856447 0.199419 -0.279721
v 0.860353 0.200149 -0.294562
v 0.85426 0.199163 -0.274722
v 0.860353 0.200149 -0.294562
v 0.857462 0.199536 -0.281986
v 0.861758 0.200037 -0.29175
v 0.860353 0.200149 -0.294562
v 0.861758 0.200037 -0.29175
v 0.863086 0.200182 -0.294562
v 0.77945 0.200677 -0.292778
v 0.782056 0.200504 -0.291334
v 0.782467 0.200623 -0.294289
v 0.895346 0.200595 -0.274722
v 0.898158 0.200812 -0.277222
v 0.898158 0.201072 -0.283627
v 0.895346 0.201402 -0.294562
v 0.898158 0.201171 -0.286048
v 0.898158 0.201418 -0.292141
v 0.837934 0.199246 -0.280815
v 0.844981 0.199444 -0.283237
v 0.837934 0.199355 -0.283158
v 0.909328 0.201994 -0.292141
v 0.909328 0.202092 -0.294562
v 0.898158 0.201418 -0.292141
v 0.909718 0.201311 -0.274722
v 0.898158 0.200812 -0.277222
v 0.895346 0.200595 -0.274722
v 0.778722 0.200459 -0.287381
v 0.77701 0.20066 -0.290225
v 0.775795 0.200575 -0.287303
v 0.782056 0.200504 -0.291334
v 0.77945 0.200677 -0.292778
v 0.779963 0.200511 -0.289619
v 0.748177 0.201944 -0.288035
v 0.750752 0.201755 -0.287416
v 0.75112 0.20186 -0.290587
v 0.828118 0.199133 -0.280493
v 0.830828 0.19919 -0.281763
v 0.829834 0.199257 -0.283474
v 0.866054 0.199639 -0.281986
v 0.857462 0.199536 -0.281986
v 0.856447 0.199419 -0.279721
v 0.909718 0.201311 -0.274722
v 0.909718 0.201412 -0.277222
v 0.898158 0.200812 -0.277222
v 0.835123 0.198922 -0.2748
v 0.837934 0.198962 -0.2748
v 0.837934 0.199246 -0.280815
v 0.775496 0.200418 -0.283633
v 0.778281 0.200314 -0.283844
v 0.775795 0.200575 -0.287303
v 0.815659 0.199107 -0.276798
v 0.817758 0.19902 -0.275473
v 0.819023 0.199102 -0.277536
v 0.887424 0.201065 -0.294281
v 0.885356 0.200894 -0.292144
v 0.887609 0.200952 -0.291314
v 0.851186 0.199725 -0.287729
v 0.848052 0.199772 -0.289576
v 0.848246 0.199628 -0.286391
v 0.737953 0.202509 -0.285892
v 0.737875 0.202425 -0.283705
v 0.745672 0.201927 -0.283691
v 0.848052 0.199772 -0.289576
v 0.849664 0.199912 -0.292185
v 0.846441 0.19983 -0.291257
v 0.827365 0.199349 -0.284874
v 0.825364 0.199267 -0.282629
v 0.827339 0.199194 -0.281595
v 0.819007 0.199623 -0.288556
v 0.816245 0.199749 -0.290515
v 0.816176 0.199645 -0.288302
v 0.848393 0.199437 -0.282211
v 0.847368 0.199541 -0.284734
v 0.844981 0.199444 -0.283237
v 0.745672 0.201927 -0.283691
v 0.747053 0.201957 -0.28659
v 0.744915 0.202066 -0.285907
v 0.816176 0.199645 -0.288302
v 0.81671 0.199552 -0.286473
v 0.819007 0.199623 -0.288556
v 0.817427 0.199834 -0.292613
v 0.816245 0.199749 -0.290515
v 0.819109 0.199708 -0.290381
v 0.846441 0.19983 -0.291257
v 0.849664 0.199912 -0.292185
v 0.847663 0.199955 -0.293646
v 0.817758 0.19902 -0.275473
v 0.821986 0.198913 -0.274285
v 0.819023 0.199102 -0.277536
v 0.800363 0.199606 -0.28347
v 0.805909 0.199643 -0.285657
v 0.811143 0.200001 -0.294562
v 0.884756 0.200254 -0.277014
v 0.881904 0.200039 -0.274583
v 0.887121 0.200261 -0.274787
v 0.877018 0.200415 -0.288775
v 0.874959 0.200406 -0.290625
v 0.873198 0.200149 -0.286064
v 0.774353 0.200055 -0.274722
v 0.76826 0.200635 -0.281908
v 0.769197 0.200496 -0.279721
v 0.765292 0.201339 -0.294562
v 0.76826 0.200635 -0.281908
v 0.774353 0.200055 -0.274722
v 0.85137 0.199128 -0.274722
v 0.85426 0.199163 -0.274722
v 0.860353 0.200149 -0.294562
v 0.872147 0.199577 -0.274722
v 0.866054 0.199639 -0.281986
v 0.866992 0.199548 -0.279721
v 0.889422 0.200969 -0.289898
v 0.891401 0.201128 -0.291801
v 0.887609 0.200952 -0.291314
v 0.782467 0.200623 -0.294289
v 0.782056 0.200504 -0.291334
v 0.784745 0.200432 -0.292162
v 0.848052 0.199772 -0.289576
v 0.850766 0.199836 -0.290245
v 0.849664 0.199912 -0.292185
v 0.749142 0.20152 -0.279117
v 0.75198 0.201321 -0.278679
v 0.749212 0.201605 -0.281305
v 0.748177 0.201944 -0.288035
v 0.749582 0.20176 -0.285716
v 0.750752 0.201755 -0.287416
v 0.817427 0.199834 -0.292613
v 0.819109 0.199708 -0.290381
v 0.820908 0.199765 -0.292044
v 0.791663 0.199398 -0.275871
v 0.793665 0.199429 -0.277593
v 0.791784 0.199555 -0.279386
v 0.824425 0.199739 -0.29239
v 0.827686 0.199787 -0.294215
v 0.824573 0.199851 -0.29479
v 0.748342 0.201814 -0.285091
v 0.745672 0.201927 -0.283691
v 0.748119 0.201741 -0.282937
v 0.863086 0.200182 -0.294562
v 0.861758 0.200037 -0.29175
v 0.872147 0.199577 -0.274722
v 0.882753 0.200898 -0.294876
v 0.885356 0.200894 -0.292144
v 0.887424 0.201065 -0.294281
v 0.898158 0.201418 -0.292141
v 0.909328 0.202092 -0.294562
v 0.895346 0.201402 -0.294562
v 0.844871 0.199333 -0.280868
v 0.848393 0.199437 -0.282211
v 0.844981 0.199444 -0.283237
v 0.847368 0.199541 -0.284734
v 0.850395 0.199562 -0.284398
v 0.848246 0.199628 -0.286391
v 0.829286 0.198911 -0.276092
v 0.831051 0.199058 -0.278899
v 0.827981 0.199045 -0.278608
v 0.821986 0.198913 -0.274285
v 0.826742 0.198876 -0.274715
v 0.825986 0.198995 -0.277041
v 0.780818 0.19998 -0.27884
v 0.776783 0.200171 -0.279417
v 0.779356 0.199935 -0.276576
v 0.887609 0.20041 -0.27797
v 0.887121 0.200261 -0.274787
v 0.891356 0.200546 -0.277538
v 0.748011 0.201538 -0.277778
v 0.748536 0.201404 -0.275321
v 0.750784 0.201317 -0.276702
v 0.779963 0.200511 -0.289619
v 0.77945 0.200677 -0.292778
v 0.77701 0.20066 -0.290225
v 0.787679 0.199497 -0.274468
v 0.789023 0.199578 -0.277429
v 0.784337 0.199756 -0.277124
v 0.791784 0.199555 -0.279386
v 0.789023 0.199578 -0.277429
v 0.791663 0.199398 -0.275871
v 0.820908 0.199765 -0.292044
v 0.824425 0.199739 -0.29239
v 0.820204 0.199888 -0.29446
v 0.749212 0.201605 -0.281305
v 0.751104 0.201571 -0.283452
v 0.748119 0.201741 -0.282937
v 0.876348 0.20011 -0.281945
v 0.873743 0.199951 -0.281092
v 0.877702 0.20007 -0.279599
v 0.778281 0.200314 -0.283844
v 0.776783 0.200171 -0.279417
v 0.779169 0.200143 -0.280927
v 0.749142 0.20152 -0.279117
v 0.750784 0.201317 -0.276702
v 0.75198 0.201321 -0.278679
v 0.75112 0.20186 -0.290587
v 0.748133 0.202037 -0.290247
v 0.748177 0.201944 -0.288035
v 0.780818 0.19998 -0.27884
v 0.779356 0.199935 -0.276576
v 0.782395 0.199739 -0.275008
v 0.830131 0.199713 -0.293017
v 0.82723 0.199676 -0.29176
v 0.829192 0.199605 -0.290752
v 0.748133 0.202037 -0.290247
v 0.75112 0.20186 -0.290587
v 0.749113 0.202102 -0.293386
v 0.775795 0.200575 -0.287303
v 0.778281 0.200314 -0.283844
v 0.778722 0.200459 -0.287381
v 0.829286 0.198911 -0.276092
v 0.827981 0.199045 -0.278608
v 0.825986 0.198995 -0.277041
v 0.780818 0.19998 -0.27884
v 0.779169 0.200143 -0.280927
v 0.776783 0.200171 -0.279417
v 0.848246 0.199628 -0.286391
v 0.850395 0.199562 -0.284398
v 0.851186 0.199725 -0.287729
v 0.748342 0.201814 -0.285091
v 0.747053 0.201957 -0.28659
v 0.745672 0.201927 -0.283691
v 0.747049 0.202161 -0.291601
v 0.748133 0.202037 -0.290247
v 0.749113 0.202102 -0.293386
v 0.877702 0.20007 -0.279599
v 0.875319 0.199904 -0.278349
v 0.877702 0.199919 -0.276073
v 0.844534 0.199961 -0.294603
v 0.837934 0.199765 -0.292062
v 0.844191 0.199839 -0.292036
v 0.887121 0.200261 -0.274787
v 0.887609 0.20041 -0.27797
v 0.884756 0.200254 -0.277014
v 0.78764 0.200312 -0.292144
v 0.789893 0.200182 -0.291314
v 0.791602 0.200208 -0.293405
v 0.787102 0.20046 -0.294876
v 0.745974 0.202349 -0.294551
v 0.743893 0.202391 -0.292306
v 0.747049 0.202161 -0.291601
v 0.778722 0.200459 -0.287381
v 0.779963 0.200511 -0.289619
v 0.77701 0.20066 -0.290225
v 0.784337 0.199756 -0.277124
v 0.780818 0.19998 -0.27884
v 0.782395 0.199739 -0.275008
v 0.873198 0.200149 -0.286064
v 0.873743 0.199951 -0.281092
v 0.87592 0.200235 -0.285441
v 0.908156 0.201671 -0.286048
v 0.898158 0.201171 -0.286048
v 0.898158 0.201072 -0.283627
v 0.877018 0.200415 -0.288775
v 0.879053 0.200585 -0.290894
v 0.874959 0.200406 -0.290625
v 0.837934 0.199246 -0.280815
v 0.844871 0.199333 -0.280868
v 0.844981 0.199444 -0.283237
v 0.81671 0.199552 -0.286473
v 0.820083 0.199545 -0.28717
v 0.819007 0.199623 -0.288556
v 0.789023 0.199578 -0.277429
v 0.787679 0.199497 -0.274468
v 0.791663 0.199398 -0.275871
v 0.745312 0.201589 -0.274804
v 0.748536 0.201404 -0.275321
v 0.745665 0.201659 -0.277078
v 0.759668 0.201022 -0.281908
v 0.758574 0.200989 -0.279721
v 0.769197 0.200496 -0.279721
v 0.820083 0.199545 -0.28717
v 0.819179 0.199426 -0.284429
v 0.821974 0.199484 -0.28636
v 0.748177 0.201944 -0.288035
v 0.747053 0.201957 -0.28659
v 0.749582 0.20176 -0.285716
v 0.880433 0.200102 -0.277617
v 0.877702 0.20007 -0.279599
v 0.877702 0.199919 -0.276073
v 0.749212 0.201605 -0.281305
v 0.752007 0.201433 -0.281483
v 0.751104 0.201571 -0.283452
v 0.895346 0.201402 -0.294562
v 0.898158 0.201072 -0.283627
v 0.898158 0.201171 -0.286048
v 0.81497 0.199018 -0.274722
v 0.804035 0.199566 -0.283548
v 0.811611 0.199058 -0.274722
v 0.881905 0.200751 -0.292102
v 0.885356 0.200894 -0.292144
v 0.882753 0.200898 -0.294876
v 0.881904 0.200039 -0.274583
v 0.884756 0.200254 -0.277014
v 0.880433 0.200102 -0.277617
v 0.748119 0.201741 -0.282937
v 0.751104 0.201571 -0.283452
v 0.749211 0.201748 -0.284831
v 0.820204 0.199888 -0.29446
v 0.824425 0.199739 -0.29239
v 0.824573 0.199851 -0.29479
v 0.889422 0.200542 -0.279386
v 0.887609 0.20041 -0.27797
v 0.891356 0.200546 -0.277538
v 0.811143 0.200001 -0.294562
v 0.805909 0.199643 -0.285657
v 0.814423 0.199962 -0.294562
v 0.784745 0.200432 -0.292162
v 0.78764 0.200312 -0.292144
v 0.787102 0.20046 -0.294876
v 0.821974 0.199484 -0.28636
v 0.825364 0.199267 -0.282629
v 0.827365 0.199349 -0.284874
v 0.748119 0.201741 -0.282937
v 0.749211 0.201748 -0.284831
v 0.748342 0.201814 -0.285091
v 0.817427 0.199834 -0.292613
v 0.820908 0.199765 -0.292044
v 0.820204 0.199888 -0.29446
v 0.835123 0.198922 -0.2748
v 0.837934 0.199246 -0.280815
v 0.837934 0.199355 -0.283158
v 0.876348 0.20011 -0.281945
v 0.87592 0.200235 -0.285441
v 0.873743 0.199951 -0.281092
v 0.87592 0.200235 -0.285441
v 0.877018 0.200415 -0.288775
v 0.873198 0.200149 -0.286064
v 0.866054 0.199639 -0.281986
v 0.856447 0.199419 -0.279721
v 0.866992 0.199548 -0.279721
v 0.749142 0.20152 -0.279117
v 0.748011 0.201538 -0.277778
v 0.750784 0.201317 -0.276702
v 0.831051 0.199058 -0.278899
v 0.828118 0.199133 -0.280493
v 0.827981 0.199045 -0.278608
v 0.800363 0.199606 -0.28347
v 0.797551 0.200164 -0.294562
v 0.797551 0.199242 -0.274722
v 0.800363 0.19944 -0.279877
v 0.753497 0.201064 -0.274722
v 0.756387 0.200896 -0.274722
v 0.758574 0.200989 -0.279721
v 0.860353 0.200149 -0.294562
v 0.856447 0.199419 -0.279721
v 0.857462 0.199536 -0.281986
v 0.81497 0.199018 -0.274722
v 0.805909 0.199643 -0.285657
v 0.804035 0.199566 -0.283548
v 0.821986 0.198913 -0.274285
v 0.82245 0.199024 -0.276749
v 0.819023 0.199102 -0.277536
v 0.778281 0.200314 -0.283844
v 0.775496 0.200418 -0.283633
v 0.776783 0.200171 -0.279417
v 0.748536 0.201404 -0.275321
v 0.748011 0.201538 -0.277778
v 0.745665 0.201659 -0.277078
v 0.879053 0.200585 -0.290894
v 0.878191 0.200653 -0.293442
v 0.874959 0.200406 -0.290625
v 0.887609 0.200952 -0.291314
v 0.891401 0.201128 -0.291801
v 0.887424 0.201065 -0.294281
v 0.835123 0.19985 -0.29464
v 0.835123 0.198922 -0.2748
v 0.837934 0.199355 -0.283158
v 0.877702 0.199919 -0.276073
v 0.881904 0.200039 -0.274583
v 0.880433 0.200102 -0.277617
v 0.759668 0.201022 -0.281908
v 0.76248 0.201455 -0.294562
v 0.753497 0.201064 -0.274722
v 0.758574 0.200989 -0.279721
v 0.743893 0.202391 -0.292306
v 0.745974 0.202349 -0.294551
v 0.734985 0.203054 -0.29464
v 0.830828 0.19919 -0.281763
v 0.828118 0.199133 -0.280493
v 0.831051 0.199058 -0.278899
v 0.819109 0.199708 -0.290381
v 0.816245 0.199749 -0.290515
v 0.819007 0.199623 -0.288556
v 0.737875 0.202425 -0.283705
v 0.734985 0.203054 -0.29464
v 0.734985 0.20225 -0.2748
v 0.872147 0.199577 -0.274722
v 0.861758 0.200037 -0.29175
v 0.866054 0.199639 -0.281986
v 0.825986 0.198995 -0.277041
v 0.826742 0.198876 -0.274715
v 0.829286 0.198911 -0.276092
v 0.882753 0.200898 -0.294876
v 0.878191 0.200653 -0.293442
v 0.881905 0.200751 -0.292102
v 0.787102 0.20046 -0.294876
v 0.782467 0.200623 -0.294289
v 0.784745 0.200432 -0.292162
v 0.827686 0.199787 -0.294215
v 0.82723 0.199676 -0.29176
v 0.830131 0.199713 -0.293017
v 0.847663 0.199955 -0.293646
v 0.844534 0.199961 -0.294603
v 0.844191 0.199839 -0.292036
v 0.846441 0.19983 -0.291257
v 0.800363 0.199606 -0.28347
v 0.804035 0.199566 -0.283548
v 0.805909 0.199643 -0.285657
v 0.765292 0.201339 -0.294562
v 0.763964 0.201261 -0.291672
v 0.76826 0.200635 -0.281908
v 0.827365 0.199349 -0.284874
v 0.827339 0.199194 -0.281595
v 0.829834 0.199257 -0.283474
v 0.819179 0.199426 -0.284429
v 0.820083 0.199545 -0.28717
v 0.81671 0.199552 -0.286473
v 0.82723 0.199676 -0.29176
v 0.827686 0.199787 -0.294215
v 0.824425 0.199739 -0.29239
v 0.898158 0.201072 -0.283627
v 0.895346 0.201402 -0.294562
v 0.895346 0.200595 -0.274722
v 0.877702 0.20007 -0.279599
v 0.873743 0.199951 -0.281092
v 0.875319 0.199904 -0.278349
v 0.844534 0.199961 -0.294603
v 0.835123 0.19985 -0.29464
v 0.837934 0.199765 -0.292062
v 0.747049 0.202161 -0.291601
v 0.749113 0.202102 -0.293386
v 0.745974 0.202349 -0.294551
v 0.848052 0.199772 -0.289576
v 0.851186 0.199725 -0.287729
v 0.850766 0.199836 -0.290245
v 0.76826 0.200635 -0.281908
v 0.759668 0.201022 -0.281908
v 0.769197 0.200496 -0.279721
v 0.829834 0.199257 -0.283474
v 0.827339 0.199194 -0.281595
v 0.828118 0.199133 -0.280493
v 0.782395 0.199739 -0.275008
v 0.787679 0.199497 -0.274468
v 0.784337 0.199756 -0.277124
v 0.748342 0.201814 -0.285091
v 0.748264 0.20182 -0.285111
vn 0.0409 0.9981 0.046
vn 0.0409 0.9981 0.046
vn 0.0409 0.9981 0.046
vn 0.012 0.9988 0.0472
vn 0.012 0.9988 0.0472
vn 0.012 0.9988 0.0472
vn 0.0636 0.9972 0.0405
vn 0.0636 0.9972 0.0405
vn 0.0636 0.9972 0.0405
vn -0.05 0.9979 0.0406
vn -0.05 0.9979 0.0406
vn -0.05 0.9979 0.0406
vn 0.0636 0.9972 0.0405
vn 0.0636 0.9972 0.0405
vn 0.0636 0.9972 0.0405
vn 0.0638 0.9972 0.0398
vn 0.0638 0.9972 0.0398
vn 0.0638 0.9972 0.0398
vn 0.0644 0.9971 0.0405
vn 0.0644 0.9971 0.0405
vn 0.0644 0.9971 0.0405
vn 0.0636 0.9972 0.0405
vn 0.0636 0.9972 0.0405
vn 0.0636 0.9972 0.0405
vn 0.0636 0.9972 0.0405
vn 0.0636 0.9972 0.0405
vn 0.0636 0.9972 0.0405
vn 0.0636 0.9972 0.0405
vn 0.0636 0.9972 0.0405
vn 0.0636 0.9972 0.0405
vn 0.0636 0.9972 0.0405
vn 0.0636 0.9972 0.0405
vn 0.0636 0.9972 0.0405
vn 0.0636 0.9972 0.0406
vn 0.0636 0.9972 0.0406
vn 0.0636 0.9972 0.0406
vn 0.0409 0.9981 0.046
vn 0.0409 0.9981 0.046
vn 0.0409 0.9981 0.046
vn 0.0446 0.998 0.044
vn 0.0446 0.998 0.044
vn 0.0446 0.998 0.044
vn 0.0409 0.9981 0.0459
vn 0.0409 0.9981 0.0459
vn 0.0409 0.9981 0.0459
vn 0.0247 0.9986 0.0465
vn 0.0247 0.9986 0.0465
vn 0.0247 0.9986 0.0465
vn -0.0409 0.9983 0.0405
vn -0.0409 0.9983 0.0405
vn -0.0409 0.9983 0.0405
vn 0.0142 0.9988 0.046
vn 0.0142 0.9988 0.046
vn 0.0142 0.9988 0.046
vn 0.012 0.9989 0.0464
vn 0.012 0.9989 0.0464
vn 0.012 0.9989 0.0464
vn 0.012 0.9988 0.0472
vn 0.012 0.9988 0.0472
vn 0.012 0.9988 0.0472
vn 0.012 0.9988 0.0472
vn 0.012 0.9988 0.0472
vn 0.012 0.9988 0.0472
vn -0.012 0.9989 0.0459
vn -0.012 0.9989 0.0459
vn -0.012 0.9989 0.0459
vn 0.012 0.9988 0.0472
vn 0.012 0.9988 0.0472
vn 0.012 0.9988 0.0472
vn -0.012 0.9989 0.046
vn -0.012 0.9989 0.046
vn -0.012 0.9989 0.046
vn -0.0502 0.9977 0.0459
vn -0.0502 0.9977 0.0459
vn -0.0502 0.9977 0.0459
vn -0.012 0.9989 0.046
vn -0.012 0.9989 0.046
vn -0.012 0.9989 0.046
vn -0.012 0.9989 0.046
vn -0.012 0.9989 0.046
vn -0.012 0.9989 0.046
vn -0.012 0.9989 0.046
vn -0.012 0.9989 0.046
vn -0.012 0.9989 0.046
vn 0.0409 0.9981 0.0459
vn 0.0409 0.9981 0.0459
vn 0.0409 0.9981 0.0459
vn -0.0409 0.9983 0.0406
vn -0.0409 0.9983 0.0406
vn -0.0409 0.9983 0.0406
vn -0.0409 0.9983 0.0406
vn -0.0409 0.9983 0.0406
vn -0.0409 0.9983 0.0406
vn -0.012 0.9988 0.0465
vn -0.012 0.9988 0.0465
vn -0.012 0.9988 0.0465
vn -0.0514 0.9979 0.0405
vn -0.0514 0.9979 0.0405
vn -0.0514 0.9979 0.0405
vn -0.0497 0.9983 0.0307
vn -0.0497 0.9983 0.0307
vn -0.0497 0.9983 0.0307
vn 0.0409 0.9981 0.0459
vn 0.0409 0.9981 0.0459
vn 0.0409 0.9981 0.0459
vn 0.0409 0.9981 0.046
vn 0.0409 0.9981 0.046
vn 0.0409 0.9981 0.046
vn 0.0636 0.9972 0.0405
vn 0.0636 0.9972 0.0405
vn 0.0636 0.9972 0.0405
vn -0.0024 0.9992 0.0404
vn -0.0024 0.9992 0.0404
vn -0.0024 0.9992 0.0404
vn -0.012 0.9989 0.046
vn -0.012 0.9989 0.046
vn -0.012 0.9989 0.046
vn -0.0518 0.9978 0.0406
vn -0.0518 0.9978 0.0406
vn -0.0518 0.9978 0.0406
vn -0.0141 0.9988 0.0472
vn -0.0141 0.9988 0.0472
vn -0.0141 0.9988 0.0472
vn 0.0409 0.9981 0.046
vn 0.0409 0.9981 0.046
vn 0.0409 0.9981 0.046
vn 0.012 0.9988 0.0472
vn 0.012 0.9988 0.0472
vn 0.012 0.9988 0.0472
vn -0.0409 0.9983 0.0406
vn -0.0409 0.9983 0.0406
vn -0.0409 0.9983 0.0406
vn -0.012 0.9989 0.046
vn -0.012 0.9989 0.046
vn -0.012 0.9989 0.046
vn 0.0636 0.9972 0.0405
vn 0.0636 0.9972 0.0405
vn 0.0636 0.9972 0.0405
vn -0.012 0.9989 0.046
vn -0.012 0.9989 0.046
vn -0.012 0.9989 0.046
vn 0.012 0.9988 0.0472
vn 0.012 0.9988 0.0472
vn 0.012 0.9988 0.0472
vn 0.012 0.9988 0.0472
vn 0.012 0.9988 0.0472
vn 0.012 0.9988 0.0472
vn -0.012 0.9989 0.0459
vn -0.012 0.9989 0.0459
vn -0.012 0.9989 0.0459
vn 0.0636 0.9972 0.0405
vn 0.0636 0.9972 0.0405
vn 0.0636 0.9972 0.0405
vn 0.012 0.9988 0.0472
vn 0.012 0.9988 0.0472
vn 0.012 0.9988 0.0472
vn 0.012 0.9988 0.0472
vn 0.012 0.9988 0.0472
vn 0.012 0.9988 0.0472
vn -0.012 0.9989 0.046
vn -0.012 0.9989 0.046
vn -0.012 0.9989 0.046
vn 0.012 0.9988 0.0472
vn 0.012 0.9988 0.0472
vn 0.012 0.9988 0.0472
vn 0.012 0.9988 0.0472
vn 0.012 0.9988 0.0472
vn 0.012 0.9988 0.0472
vn -0.0409 0.9983 0.0406
vn -0.0409 0.9983 0.0406
vn -0.0409 0.9983 0.0406
vn -0.0409 0.9983 0.0406
vn -0.0409 0.9983 0.0406
vn -0.0409 0.9983 0.0406
vn 0.0409 0.9981 0.0459
vn 0.0409 0.9981 0.0459
vn 0.0409 0.9981 0.0459
vn 0.0409 0.9981 0.0459
vn 0.0409 0.9981 0.0459
vn 0.0409 0.9981 0.0459
vn -0.012 0.9989 0.046
vn -0.012 0.9989 0.046
vn -0.012 0.9989 0.046
vn -0.074 0.9948 0.0705
vn -0.074 0.9948 0.0705
vn -0.074 0.9948 0.0705
vn -0.0409 0.9983 0.0406
vn -0.0409 0.9983 0.0406
vn -0.0409 0.9983 0.0406
vn 0.0409 0.9981 0.0459
vn 0.0409 0.9981 0.0459
vn 0.0409 0.9981 0.0459
vn -0.012 0.9989 0.046
vn -0.012 0.9989 0.046
vn -0.012 0.9989 0.046
vn 0.0636 0.9972 0.0406
vn 0.0636 0.9972 0.0406
vn 0.0636 0.9972 0.0406
vn 0.0636 0.9972 0.0406
vn 0.0636 0.9972 0.0406
vn 0.0636 0.9972 0.0406
vn 0.012 0.9988 0.0472
vn 0.012 0.9988 0.0472
vn 0.012 0.9988 0.0472
vn 0.0235 0.9987 0.0454
vn 0.0235 0.9987 0.0454
vn 0.0235 0.9987 0.0454
vn 0.012 0.9988 0.0472
vn 0.012 0.9988 0.0472
vn 0.012 0.9988 0.0472
vn 0.0636 0.9972 0.0405
vn 0.0636 0.9972 0.0405
vn 0.0636 0.9972 0.0405
vn -0.0228 0.9989 0.0409
vn -0.0228 0.9989 0.0409
vn -0.0228 0.9989 0.0409
vn -0.0409 0.9983 0.0406
vn -0.0409 0.9983 0.0406
vn -0.0409 0.9983 0.0406
vn -0.0493 0.9975 0.0503
vn -0.0493 0.9975 0.0503
vn -0.0493 0.9975 0.0503
vn -0.012 0.9989 0.046
vn -0.012 0.9989 0.046
vn -0.012 0.9989 0.046
vn -0.012 0.9989 0.046
vn -0.012 0.9989 0.046
vn -0.012 0.9989 0.046
vn 0.0008 0.9986 0.053
vn 0.0008 0.9986 0.053
vn 0.0008 0.9986 0.053
vn 0.012 0.9988 0.0472
vn 0.012 0.9988 0.0472
vn 0.012 0.9988 0.0472
vn 0.0409 0.9981 0.0459
vn 0.0409 0.9981 0.0459
vn 0.0409 0.9981 0.0459
vn -0.0409 0.9983 0.0406
vn -0.0409 0.9983 0.0406
vn -0.0409 0.9983 0.0406
vn 0.0636 0.9971 0.0406
vn 0.0636 0.9971 0.0406
vn 0.0636 0.9971 0.0406
vn 0.0409 0.9981 0.046
vn 0.0409 0.9981 0.046
vn 0.0409 0.9981 0.046
vn 0.0409 0.9981 0.0459
vn 0.0409 0.9981 0.0459
vn 0.0409 0.9981 0.0459
vn 0.0409 0.9981 0.0459
vn 0.0409 0.9981 0.0459
vn 0.0409 0.9981 0.0459
vn 0.012 0.9988 0.0472
vn 0.012 0.9988 0.0472
vn 0.012 0.9988 0.0472
vn 0.0636 0.9972 0.0405
vn 0.0636 0.9972 0.0405
vn 0.0636 0.9972 0.0405
vn -0.0467 0.9979 0.0439
vn -0.0467 0.9979 0.0439
vn -0.0467 0.9979 0.0439
vn 0.0409 0.9981 0.046
vn 0.0409 0.9981 0.046
vn 0.0409 0.9981 0.046
vn 0.0636 0.9972 0.0405
vn 0.0636 0.9972 0.0405
vn 0.0636 0.9972 0.0405
vn 0.0636 0.9972 0.0406
vn 0.0636 0.9972 0.0406
vn 0.0636 0.9972 0.0406
vn 0.0409 0.9981 0.0459
vn 0.0409 0.9981 0.0459
vn 0.0409 0.9981 0.0459
vn 0.0097 0.9986 0.0516
vn 0.0097 0.9986 0.0516
vn 0.0097 0.9986 0.0516
vn 0.0636 0.9972 0.0405
vn 0.0636 0.9972 0.0405
vn 0.0636 0.9972 0.0405
vn 0.0409 0.9981 0.0459
vn 0.0409 0.9981 0.0459
vn 0.0409 0.9981 0.0459
vn 0.012 0.9988 0.0472
vn 0.012 0.9988 0.0472
vn 0.012 0.9988 0.0472
vn 0.0409 0.9981 0.0459
vn 0.0409 0.9981 0.0459
vn 0.0409 0.9981 0.0459
vn -0.012 0.9989 0.046
vn -0.012 0.9989 0.046
vn -0.012 0.9989 0.046
vn 0.0636 0.9972 0.0405
vn 0.0636 0.9972 0.0405
vn 0.0636 0.9972 0.0405
vn 0.0636 0.9972 0.0405
vn 0.0636 0.9972 0.0405
vn 0.0636 0.9972 0.0405
vn -0.0472 0.998 0.0429
vn -0.0472 0.998 0.0429
vn -0.0472 0.998 0.0429
vn -0.012 0.9989 0.046
vn -0.012 0.9989 0.046
vn -0.012 0.9989 0.046
vn -0.0409 0.9983 0.0406
vn -0.0409 0.9983 0.0406
vn -0.0409 0.9983 0.0406
vn 0.0409 0.9981 0.0459
vn 0.0409 0.9981 0.0459
vn 0.0409 0.9981 0.0459
vn 0.0409 0.9981 0.0459
vn 0.0636 0.9972 0.0405
vn 0.0636 0.9972 0.0405
vn 0.0636 0.9972 0.0405
vn 0.0409 0.9981 0.0459
vn 0.0409 0.9981 0.0459
vn 0.0409 0.9981 0.0459
vn 0.0409 0.9981 0.0459
vn 0.0409 0.9981 0.0459
vn 0.0409 0.9981 0.0459
vn -0.0417 0.9981 0.0443
vn -0.0417 0.9981 0.0443
vn -0.0417 0.9981 0.0443
vn -0.05 0.9979 0.0406
vn -0.05 0.9979 0.0406
vn -0.05 0.9979 0.0406
vn -0.0409 0.9983 0.0406
vn -0.0409 0.9983 0.0406
vn -0.0409 0.9983 0.0406
vn -0.0122 0.9989 0.046
vn -0.0122 0.9989 0.046
vn -0.0122 0.9989 0.046
vn 0.012 0.9988 0.0472
vn 0.012 0.9988 0.0472
vn 0.012 0.9988 0.0472
vn 0.0409 0.9981 0.046
vn 0.0409 0.9981 0.046
vn 0.0409 0.9981 0.046
vn 0.0636 0.9972 0.0405
vn 0.0636 0.9972 0.0405
vn 0.0636 0.9972 0.0405
vn 0.0463 0.9982 0.0385
vn 0.0463 0.9982 0.0385
vn 0.0463 0.9982 0.0385
vn 0.012 0.9988 0.0472
vn 0.012 0.9988 0.0472
vn 0.012 0.9988 0.0472
vn 0.0636 0.9972 0.0405
vn 0.0636 0.9972 0.0405
vn 0.0636 0.9972 0.0405
vn -0.0426 0.9982 0.0429
vn -0.0426 0.9982 0.0429
vn -0.0426 0.9982 0.0429
vn 0.0636 0.9972 0.0405
vn 0.0636 0.9972 0.0405
vn 0.0636 0.9972 0.0405
vn -0.0409 0.9983 0.0406
vn -0.0409 0.9983 0.0406
vn -0.0409 0.9983 0.0406
vn 0.012 0.9988 0.0472
vn 0.012 0.9988 0.0472
vn 0.012 0.9988 0.0472
vn -0.0409 0.9983 0.0406
vn -0.0409 0.9983 0.0406
vn -0.0409 0.9983 0.0406
vn -0.0409 0.9983 0.0406
vn -0.0409 0.9983 0.0406
vn -0.0409 0.9983 0.0406
vn 0.0636 0.9972 0.0406
vn 0.0636 0.9972 0.0406
vn 0.0636 0.9972 0.0406
vn 0.012 0.9988 0.0472
vn 0.012 0.9988 0.0472
vn 0.012 0.9988 0.0472
vn -0.0409 0.9983 0.0405
vn -0.0409 0.9983 0.0405
vn -0.0409 0.9983 0.0405
vn 0.012 0.9988 0.0472
vn 0.012 0.9988 0.0472
vn 0.012 0.9988 0.0472
vn 0.0409 0.9981 0.0459
vn 0.0409 0.9981 0.0459
vn 0.0409 0.9981 0.0459
vn 0.012 0.9988 0.0472
vn 0.012 0.9988 0.0472
vn 0.012 0.9988 0.0472
vn 0.0635 0.9972 0.0405
vn 0.0635 0.9972 0.0405
vn 0.0635 0.9972 0.0405
vn 0.012 0.9988 0.0472
vn 0.012 0.9988 0.0472
vn 0.012 0.9988 0.0472
vn -0.0158 0.9988 0.0465
vn -0.0158 0.9988 0.0465
vn -0.0158 0.9988 0.0465
vn -0.0475 0.998 0.0414
vn -0.0475 0.998 0.0414
vn -0.0475 0.998 0.0414
vn -0.0409 0.9983 0.0406
vn -0.0409 0.9983 0.0406
vn -0.0409 0.9983 0.0406
vn -0.0122 0.9989 0.0451
vn -0.0122 0.9989 0.0451
vn -0.0122 0.9989 0.0451
vn 0.0637 0.9972 0.0405
vn 0.0637 0.9972 0.0405
vn 0.0637 0.9972 0.0405
vn 0.0002 0.9989 0.0464
vn 0.0002 0.9989 0.0464
vn 0.0002 0.9989 0.0464
vn 0.0151 0.9988 0.0464
vn 0.0151 0.9988 0.0464
vn 0.0151 0.9988 0.0464
vn 0.0151 0.9988 0.0464
vn 0.058 0.9973 0.0439
vn 0.058 0.9973 0.0439
vn 0.058 0.9973 0.0439
vn -0.0119 0.9989 0.046
vn -0.0119 0.9989 0.046
vn -0.0119 0.9989 0.046
vn 0.012 0.9988 0.0472
vn 0.012 0.9988 0.0472
vn 0.012 0.9988 0.0472
vn 0.012 0.9988 0.0472
vn 0.012 0.9988 0.0472
vn 0.012 0.9988 0.0472
vn 0.0409 0.9981 0.0459
vn 0.0409 0.9981 0.0459
vn 0.0409 0.9981 0.0459
vn 0.0636 0.9972 0.0406
vn 0.0636 0.9972 0.0406
vn 0.0636 0.9972 0.0406
vn -0.0409 0.9983 0.0405
vn -0.0409 0.9983 0.0405
vn -0.0409 0.9983 0.0405
vn -0.0409 0.9983 0.0406
vn -0.0409 0.9983 0.0406
vn -0.0409 0.9983 0.0406
vn -0.015 0.9988 0.0467
vn -0.015 0.9988 0.0467
vn -0.015 0.9988 0.0467
vn -0.0432 0.9982 0.0417
vn -0.0432 0.9982 0.0417
vn -0.0432 0.9982 0.0417
vn 0.0622 0.9969 0.0477
vn 0.0622 0.9969 0.0477
vn 0.0622 0.9969 0.0477
vn 0.0622 0.9969 0.0477
vn 0.0636 0.9972 0.0405
vn 0.0636 0.9972 0.0405
vn 0.0636 0.9972 0.0405
vn 0.0003 0.9989 0.0461
vn 0.0003 0.9989 0.0461
vn 0.0003 0.9989 0.0461
vn 0.012 0.9988 0.0472
vn 0.012 0.9988 0.0472
vn 0.012 0.9988 0.0472
vn 0.0641 0.9971 0.0404
vn 0.0641 0.9971 0.0404
vn 0.0641 0.9971 0.0404
vn -0.0804 0.9939 0.0759
vn -0.0804 0.9939 0.0759
vn -0.0804 0.9939 0.0759
vn 0.012 0.9988 0.0472
vn 0.012 0.9988 0.0472
vn 0.012 0.9988 0.0472
vn -0.0409 0.9983 0.0406
vn -0.0409 0.9983 0.0406
vn -0.0409 0.9983 0.0406
vn 0.0409 0.9981 0.0459
vn 0.0409 0.9981 0.0459
vn 0.0409 0.9981 0.0459
vn 0.0075 0.9989 0.0464
vn 0.0075 0.9989 0.0464
vn 0.0075 0.9989 0.0464
vn -0.012 0.9989 0.046
vn -0.012 0.9989 0.046
vn -0.012 0.9989 0.046
vn -0.012 0.9989 0.046
vn 0.012 0.9988 0.0472
vn 0.012 0.9988 0.0472
vn 0.012 0.9988 0.0472
vn 0.0409 0.9981 0.0459
vn 0.0409 0.9981 0.0459
vn 0.0409 0.9981 0.0459
vn 0.0102 0.9988 0.0472
vn 0.0102 0.9988 0.0472
vn 0.0102 0.9988 0.0472
vn 0.012 0.9988 0.0472
vn 0.012 0.9988 0.0472
vn 0.012 0.9988 0.0472
vn 0.012 0.9988 0.0472
vn 0.012 0.9988 0.0472
vn 0.012 0.9988 0.0472
vn -0.0409 0.9983 0.0406
vn -0.0409 0.9983 0.0406
vn -0.0409 0.9983 0.0406
vn -0.0467 0.9979 0.0439
vn -0.0467 0.9979 0.0439
vn -0.0467 0.9979 0.0439
vn -0.012 0.9989 0.046
vn -0.012 0.9989 0.046
vn -0.012 0.9989 0.046
vn 0.0636 0.9972 0.0405
vn 0.0636 0.9972 0.0405
vn 0.0636 0.9972 0.0405
vn -0.012 0.9989 0.046
vn -0.012 0.9989 0.046
vn -0.012 0.9989 0.046
vn 0.045 0.998 0.0442
vn 0.045 0.998 0.0442
vn 0.045 0.998 0.0442
vn 0.0108 0.9988 0.048
vn 0.0108 0.9988 0.048
vn 0.0108 0.9988 0.048
vn 0.0409 0.9981 0.0459
vn 0.0409 0.9981 0.0459
vn 0.0409 0.9981 0.0459
vn 0 0 0
vn 0 0 0
vt 0.913556 0.365866
vt 0.9135 0.364032
vt 0.912607 0.365125
vt 0.929365 0.367712
vt 0.927905 0.368721
vt 0.931136 0.369661
vt 0.890229 0.367592
vt 0.890903 0.368375
vt 0.89155 0.368049
vt 0.974383 0.367875
vt 0.969161 0.36914
vt 0.974383 0.36914
vt 0.889504 0.372561
vt 0.885435 0.372567
vt 0.88932 0.373749
vt 0.885435 0.372567
vt 0.883926 0.373751
vt 0.88932 0.373749
vt 0.883926 0.373751
vt 0.885435 0.372567
vt 0.885435 0.369099
vt 0.891357 0.370353
vt 0.892803 0.371725
vt 0.892817 0.37026
vt 0.885476 0.367957
vt 0.883926 0.363387
vt 0.885435 0.369099
vt 0.889113 0.367949
vt 0.885476 0.367957
vt 0.889508 0.369106
vt 0.883926 0.363387
vt 0.885476 0.367957
vt 0.885476 0.364652
vt 0.888579 0.364606
vt 0.883926 0.363387
vt 0.885476 0.364652
vt 0.901797 0.37118
vt 0.902939 0.373792
vt 0.90449 0.373792
vt 0.898288 0.363428
vt 0.896819 0.370038
vt 0.899063 0.364937
vt 0.898288 0.363428
vt 0.899063 0.364937
vt 0.899757 0.363428
vt 0.913556 0.365866
vt 0.914528 0.364936
vt 0.9135 0.364032
vt 0.959181 0.365344
vt 0.960671 0.364713
vt 0.958731 0.364013
vt 0.918077 0.373792
vt 0.918077 0.371099
vt 0.916608 0.373792
vt 0.919994 0.369181
vt 0.918077 0.369222
vt 0.918077 0.371099
vt 0.916608 0.363428
vt 0.918077 0.369222
vt 0.918077 0.363428
vt 0.929372 0.37402
vt 0.931461 0.37258
vt 0.929614 0.372732
vt 0.943166 0.369879
vt 0.944211 0.368737
vt 0.94263 0.368561
vt 0.927824 0.372322
vt 0.926603 0.371551
vt 0.926066 0.372707
vt 0.936233 0.363387
vt 0.937702 0.369385
vt 0.937702 0.364733
vt 0.952881 0.37118
vt 0.954023 0.373792
vt 0.955574 0.373792
vt 0.947372 0.37118
vt 0.949413 0.363428
vt 0.94623 0.373792
vt 0.949413 0.363428
vt 0.947903 0.369997
vt 0.950147 0.364897
vt 0.949413 0.363428
vt 0.950147 0.364897
vt 0.950841 0.363428
vt 0.907152 0.36436
vt 0.908514 0.365114
vt 0.908728 0.36357
vt 0.967692 0.373792
vt 0.969161 0.372486
vt 0.969161 0.36914
vt 0.967692 0.363428
vt 0.969161 0.367875
vt 0.969161 0.364693
vt 0.937702 0.370609
vt 0.941383 0.369344
vt 0.937702 0.369385
vt 0.974995 0.364693
vt 0.974995 0.363428
vt 0.969161 0.364693
vt 0.975199 0.373792
vt 0.969161 0.372486
vt 0.967692 0.373792
vt 0.906772 0.367179
vt 0.905878 0.365693
vt 0.905243 0.36722
vt 0.908514 0.365114
vt 0.907152 0.36436
vt 0.90742 0.36601
vt 0.890817 0.366837
vt 0.892162 0.36716
vt 0.892354 0.365504
vt 0.932575 0.370777
vt 0.93399 0.370114
vt 0.933471 0.36922
vt 0.952391 0.369997
vt 0.947903 0.369997
vt 0.947372 0.37118
vt 0.975199 0.373792
vt 0.975199 0.372486
vt 0.969161 0.372486
vt 0.936233 0.373751
vt 0.937702 0.373751
vt 0.937702 0.370609
vt 0.905087 0.369137
vt 0.906542 0.369027
vt 0.905243 0.36722
vt 0.926066 0.372707
vt 0.927163 0.373399
vt 0.927824 0.372322
vt 0.963553 0.363575
vt 0.962473 0.364691
vt 0.96365 0.365125
vt 0.944624 0.366997
vt 0.942988 0.366032
vt 0.943089 0.367696
vt 0.885476 0.367957
vt 0.885435 0.369099
vt 0.889508 0.369106
vt 0.942988 0.366032
vt 0.943829 0.36467
vt 0.942146 0.365154
vt 0.932181 0.368488
vt 0.931136 0.369661
vt 0.932168 0.370201
vt 0.927815 0.366565
vt 0.926373 0.365542
vt 0.926337 0.366698
vt 0.943166 0.369879
vt 0.94263 0.368561
vt 0.941383 0.369344
vt 0.889508 0.369106
vt 0.890229 0.367592
vt 0.889113 0.367949
vt 0.926337 0.366698
vt 0.926615 0.367653
vt 0.927815 0.366565
vt 0.92699 0.364446
vt 0.926373 0.365542
vt 0.927869 0.365612
vt 0.942146 0.365154
vt 0.943829 0.36467
vt 0.942784 0.363907
vt 0.927163 0.373399
vt 0.929372 0.37402
vt 0.927824 0.372322
vt 0.918077 0.369222
vt 0.920974 0.368079
vt 0.923707 0.363428
vt 0.96216 0.372594
vt 0.96067 0.373864
vt 0.963395 0.373757
vt 0.958118 0.366451
vt 0.957042 0.365484
vt 0.956122 0.367867
vt 0.90449 0.373792
vt 0.901307 0.370038
vt 0.901797 0.37118
vt 0.899757 0.363428
vt 0.901307 0.370038
vt 0.90449 0.373792
vt 0.94472 0.373792
vt 0.94623 0.373792
vt 0.949413 0.363428
vt 0.955574 0.373792
vt 0.952391 0.369997
vt 0.952881 0.37118
vt 0.964597 0.365864
vt 0.965631 0.36487
vt 0.96365 0.365125
vt 0.908728 0.36357
vt 0.908514 0.365114
vt 0.909919 0.364681
vt 0.942988 0.366032
vt 0.944405 0.365683
vt 0.943829 0.36467
vt 0.891321 0.371496
vt 0.892803 0.371725
vt 0.891357 0.370353
vt 0.890817 0.366837
vt 0.89155 0.368049
vt 0.892162 0.36716
vt 0.92699 0.364446
vt 0.927869 0.365612
vt 0.928808 0.364743
vt 0.913532 0.373191
vt 0.914578 0.372292
vt 0.913595 0.371355
vt 0.930645 0.364562
vt 0.932349 0.363609
vt 0.930723 0.363309
vt 0.890903 0.368375
vt 0.889508 0.369106
vt 0.890786 0.369501
vt 0.950841 0.363428
vt 0.950147 0.364897
vt 0.955574 0.373792
vt 0.961113 0.363264
vt 0.962473 0.364691
vt 0.963553 0.363575
vt 0.969161 0.364693
vt 0.974995 0.363428
vt 0.967692 0.363428
vt 0.941326 0.370581
vt 0.943166 0.369879
vt 0.941383 0.369344
vt 0.94263 0.368561
vt 0.944211 0.368737
vt 0.943089 0.367696
vt 0.933185 0.373076
vt 0.934107 0.371609
vt 0.932503 0.371762
vt 0.929372 0.37402
vt 0.931856 0.373795
vt 0.931461 0.37258
vt 0.907867 0.37164
vt 0.905759 0.371339
vt 0.907103 0.372823
vt 0.96365 0.372095
vt 0.963395 0.373757
vt 0.965607 0.372321
vt 0.89073 0.372195
vt 0.891004 0.373479
vt 0.892178 0.372757
vt 0.90742 0.36601
vt 0.907152 0.36436
vt 0.905878 0.365693
vt 0.911451 0.373924
vt 0.912153 0.372378
vt 0.909705 0.372537
vt 0.913595 0.371355
vt 0.912153 0.372378
vt 0.913532 0.373191
vt 0.928808 0.364743
vt 0.930645 0.364562
vt 0.928441 0.363481
vt 0.891357 0.370353
vt 0.892346 0.369231
vt 0.890786 0.369501
vt 0.957768 0.370018
vt 0.956407 0.370464
vt 0.958475 0.371244
vt 0.906542 0.369027
vt 0.905759 0.371339
vt 0.907006 0.37055
vt 0.891321 0.371496
vt 0.892178 0.372757
vt 0.892803 0.371725
vt 0.892354 0.365504
vt 0.890794 0.365682
vt 0.890817 0.366837
vt 0.907867 0.37164
vt 0.907103 0.372823
vt 0.908691 0.373642
vt 0.933626 0.364235
vt 0.93211 0.364891
vt 0.933136 0.365418
vt 0.890794 0.365682
vt 0.892354 0.365504
vt 0.891306 0.364042
vt 0.905243 0.36722
vt 0.906542 0.369027
vt 0.906772 0.367179
vt 0.933185 0.373076
vt 0.932503 0.371762
vt 0.931461 0.37258
vt 0.907867 0.37164
vt 0.907006 0.37055
vt 0.905759 0.371339
vt 0.943089 0.367696
vt 0.944211 0.368737
vt 0.944624 0.366997
vt 0.890903 0.368375
vt 0.890229 0.367592
vt 0.889508 0.369106
vt 0.890228 0.364975
vt 0.890794 0.365682
vt 0.891306 0.364042
vt 0.958475 0.371244
vt 0.95723 0.371897
vt 0.958475 0.373086
vt 0.94115 0.363406
vt 0.937702 0.364733
vt 0.94097 0.364747
vt 0.963395 0.373757
vt 0.96365 0.372095
vt 0.96216 0.372594
vt 0.91143 0.364691
vt 0.912607 0.365125
vt 0.9135 0.364032
vt 0.91115 0.363264
vt 0.889666 0.363434
vt 0.888579 0.364606
vt 0.890228 0.364975
vt 0.906772 0.367179
vt 0.90742 0.36601
vt 0.905878 0.365693
vt 0.909705 0.372537
vt 0.907867 0.37164
vt 0.908691 0.373642
vt 0.956122 0.367867
vt 0.956407 0.370464
vt 0.957544 0.368193
vt 0.974383 0.367875
vt 0.969161 0.367875
vt 0.969161 0.36914
vt 0.958118 0.366451
vt 0.959181 0.365344
vt 0.957042 0.365484
vt 0.937702 0.370609
vt 0.941326 0.370581
vt 0.941383 0.369344
vt 0.926615 0.367653
vt 0.928377 0.367289
vt 0.927815 0.366565
vt 0.912153 0.372378
vt 0.911451 0.373924
vt 0.913532 0.373191
vt 0.88932 0.373749
vt 0.891004 0.373479
vt 0.889504 0.372561
vt 0.896819 0.370038
vt 0.896248 0.37118
vt 0.901797 0.37118
vt 0.928377 0.367289
vt 0.927905 0.368721
vt 0.929365 0.367712
vt 0.890817 0.366837
vt 0.890229 0.367592
vt 0.89155 0.368049
vt 0.959902 0.372279
vt 0.958475 0.371244
vt 0.958475 0.373086
vt 0.891357 0.370353
vt 0.892817 0.37026
vt 0.892346 0.369231
vt 0.967692 0.363428
vt 0.969161 0.36914
vt 0.969161 0.367875
vt 0.925707 0.373792
vt 0.919994 0.369181
vt 0.923952 0.373792
vt 0.960671 0.364713
vt 0.962473 0.364691
vt 0.961113 0.363264
vt 0.96067 0.373864
vt 0.96216 0.372594
vt 0.959902 0.372279
vt 0.890786 0.369501
vt 0.892346 0.369231
vt 0.891357 0.368511
vt 0.928441 0.363481
vt 0.930645 0.364562
vt 0.930723 0.363309
vt 0.964597 0.371355
vt 0.96365 0.372095
vt 0.965607 0.372321
vt 0.923707 0.363428
vt 0.920974 0.368079
vt 0.925421 0.363428
vt 0.909919 0.364681
vt 0.91143 0.364691
vt 0.91115 0.363264
vt 0.929365 0.367712
vt 0.931136 0.369661
vt 0.932181 0.368488
vt 0.890786 0.369501
vt 0.891357 0.368511
vt 0.890903 0.368375
vt 0.92699 0.364446
vt 0.928808 0.364743
vt 0.928441 0.363481
vt 0.936233 0.373751
vt 0.937702 0.370609
vt 0.937702 0.369385
vt 0.957768 0.370018
vt 0.957544 0.368193
vt 0.956407 0.370464
vt 0.957544 0.368193
vt 0.958118 0.366451
vt 0.956122 0.367867
vt 0.952391 0.369997
vt 0.947372 0.37118
vt 0.952881 0.37118
vt 0.891321 0.371496
vt 0.89073 0.372195
vt 0.892178 0.372757
vt 0.934107 0.371609
vt 0.932575 0.370777
vt 0.932503 0.371762
vt 0.918077 0.369222
vt 0.916608 0.363428
vt 0.916608 0.373792
vt 0.918077 0.371099
vt 0.893596 0.373792
vt 0.895105 0.373792
vt 0.896248 0.37118
vt 0.949413 0.363428
vt 0.947372 0.37118
vt 0.947903 0.369997
vt 0.925707 0.373792
vt 0.920974 0.368079
vt 0.919994 0.369181
vt 0.929372 0.37402
vt 0.929614 0.372732
vt 0.927824 0.372322
vt 0.906542 0.369027
vt 0.905087 0.369137
vt 0.905759 0.371339
vt 0.891004 0.373479
vt 0.89073 0.372195
vt 0.889504 0.372561
vt 0.959181 0.365344
vt 0.958731 0.364013
vt 0.957042 0.365484
vt 0.96365 0.365125
vt 0.965631 0.36487
vt 0.963553 0.363575
vt 0.936233 0.363387
vt 0.936233 0.373751
vt 0.937702 0.369385
vt 0.958475 0.373086
vt 0.96067 0.373864
vt 0.959902 0.372279
vt 0.896819 0.370038
vt 0.898288 0.363428
vt 0.893596 0.373792
vt 0.896248 0.37118
vt 0.888579 0.364606
vt 0.889666 0.363434
vt 0.883926 0.363387
vt 0.93399 0.370114
vt 0.932575 0.370777
vt 0.934107 0.371609
vt 0.927869 0.365612
vt 0.926373 0.365542
vt 0.927815 0.366565
vt 0.885435 0.369099
vt 0.883926 0.363387
vt 0.883926 0.373751
vt 0.955574 0.373792
vt 0.950147 0.364897
vt 0.952391 0.369997
vt 0.931461 0.37258
vt 0.931856 0.373795
vt 0.933185 0.373076
vt 0.961113 0.363264
vt 0.958731 0.364013
vt 0.960671 0.364713
vt 0.91115 0.363264
vt 0.908728 0.36357
vt 0.909919 0.364681
vt 0.932349 0.363609
vt 0.93211 0.364891
vt 0.933626 0.364235
vt 0.942784 0.363907
vt 0.94115 0.363406
vt 0.94097 0.364747
vt 0.942146 0.365154
vt 0.918077 0.369222
vt 0.919994 0.369181
vt 0.920974 0.368079
vt 0.899757 0.363428
vt 0.899063 0.364937
vt 0.901307 0.370038
vt 0.932181 0.368488
vt 0.932168 0.370201
vt 0.933471 0.36922
vt 0.927905 0.368721
vt 0.928377 0.367289
vt 0.926615 0.367653
vt 0.93211 0.364891
vt 0.932349 0.363609
vt 0.930645 0.364562
vt 0.969161 0.36914
vt 0.967692 0.363428
vt 0.967692 0.373792
vt 0.958475 0.371244
vt 0.956407 0.370464
vt 0.95723 0.371897
vt 0.94115 0.363406
vt 0.936233 0.363387
vt 0.937702 0.364733
vt 0.890228 0.364975
vt 0.891306 0.364042
vt 0.889666 0.363434
vt 0.942988 0.366032
vt 0.944624 0.366997
vt 0.944405 0.365683
vt 0.901307 0.370038
vt 0.896819 0.370038
vt 0.901797 0.37118
vt 0.933471 0.36922
vt 0.932168 0.370201
vt 0.932575 0.370777
vt 0.908691 0.373642
vt 0.911451 0.373924
vt 0.909705 0.372537
vt 0 1
vt 0 1
s off
f 1/1/1 2/2/2 3/3/3
f 4/4/4 5/5/5 6/6/6
f 7/7/7 8/8/8 9/9/9
f 10/10/10 11/11/11 12/12/12
f 13/13/13 14/14/14 15/15/15
f 16/16/16 17/17/17 18/18/18
f 19/19/19 20/20/20 21/21/21
f 22/22/22 23/23/23 24/24/24
f 25/25/25 26/26/26 27/27/27
f 28/28/28 29/29/29 30/30/30
f 31/31/31 32/32/32 33/33/33
f 34/34/34 35/35/35 36/36/36
f 37/37/37 38/38/38 39/39/39
f 40/40/40 41/41/41 42/42/42
f 43/43/43 44/44/44 45/45/45
f 46/46/46 47/47/47 48/48/48
f 49/49/49 50/50/50 51/51/51
f 52/52/52 53/53/53 54/54/54
f 55/55/55 56/56/56 57/57/57
f 58/58/58 59/59/59 60/60/60
f 61/61/61 62/62/62 63/63/63
f 64/64/64 65/65/65 66/66/66
f 67/67/67 68/68/68 69/69/69
f 70/70/70 71/71/71 72/72/72
f 73/73/73 74/74/74 75/75/75
f 76/76/76 77/77/77 78/78/78
f 79/79/79 80/80/80 81/81/81
f 82/82/82 83/83/83 84/84/84
f 85/85/85 86/86/86 87/87/87
f 88/88/88 89/89/89 90/90/90
f 91/91/91 92/92/92 93/93/93
f 94/94/94 95/95/95 96/96/96
f 97/97/97 98/98/98 99/99/99
f 100/100/100 101/101/101 102/102/102
f 103/103/103 104/104/104 105/105/105
f 106/106/106 107/107/107 108/108/108
f 109/109/109 110/110/110 111/111/111
f 112/112/112 113/113/113 114/114/114
f 115/115/115 116/116/116 117/117/117
f 118/118/118 119/119/119 120/120/120
f 121/121/121 122/122/122 123/123/123
f 124/124/124 125/125/125 126/126/126
f 127/127/127 128/128/128 129/129/129
f 130/130/130 131/131/131 132/132/132
f 133/133/133 134/134/134 135/135/135
f 136/136/136 137/137/137 138/138/138
f 139/139/139 140/140/140 141/141/141
f 142/142/142 143/143/143 144/144/144
f 145/145/145 146/146/146 147/147/147
f 148/148/148 149/149/149 150/150/150
f 151/151/151 152/152/152 153/153/153
f 154/154/154 155/155/155 156/156/156
f 157/157/157 158/158/158 159/159/159
f 160/160/160 161/161/161 162/162/162
f 163/163/163 164/164/164 165/165/165
f 166/166/166 167/167/167 168/168/168
f 169/169/169 170/170/170 171/171/171
f 172/172/172 173/173/173 174/174/174
f 175/175/175 176/176/176 177/177/177
f 178/178/178 179/179/179 180/180/180
f 181/181/181 182/182/182 183/183/183
f 184/184/184 185/185/185 186/186/186
f 187/187/187 188/188/188 189/189/189
f 190/190/190 191/191/191 192/192/192
f 193/193/193 194/194/194 195/195/195
f 196/196/196 197/197/197 198/198/198
f 199/199/199 200/200/200 201/201/201
f 202/202/202 203/203/203 204/204/204
f 205/205/205 206/206/206 207/207/207
f 208/208/208 209/209/209 210/210/210
f 211/211/211 212/212/212 213/213/213
f 214/214/214 215/215/215 216/216/216
f 217/217/217 218/218/218 219/219/219
f 220/220/220 221/221/221 222/222/222
f 223/223/223 224/224/224 225/225/225
f 226/226/226 227/227/227 228/228/228
f 229/229/229 230/230/230 231/231/231
f 232/232/232 233/233/233 234/234/234
f 235/235/235 236/236/236 237/237/237
f 238/238/238 239/239/239 240/240/240
f 241/241/241 242/242/242 243/243/243
f 244/244/244 245/245/245 246/246/246
f 247/247/247 248/248/248 249/249/249
f 250/250/250 251/251/251 252/252/252
f 253/253/253 254/254/254 255/255/255
f 256/256/256 257/257/257 258/258/258
f 259/259/259 260/260/260 261/261/261
f 262/262/262 263/263/263 264/264/264
f 265/265/265 266/266/266 267/267/267
f 268/268/268 269/269/269 270/270/270
f 271/271/271 272/272/272 273/273/273
f 274/274/274 275/275/275 276/276/276
f 277/277/277 278/278/278 279/279/279
f 280/280/280 281/281/281 282/282/282
f 283/283/283 284/284/284 285/285/285
f 286/286/286 287/287/287 288/288/288
f 289/289/289 290/290/290 291/291/291
f 292/292/292 293/293/293 294/294/294
f 295/295/295 296/296/296 297/297/297
f 298/298/298 299/299/299 300/300/300
f 301/301/301 302/302/302 303/303/303
f 304/304/304 305/305/305 306/306/306
f 307/307/307 308/308/308 309/309/309
f 307/307/307 309/309/309 310/310/310
f 311/311/311 312/312/312 313/313/313
f 314/314/314 315/315/315 316/316/316
f 317/317/317 318/318/318 319/319/319
f 320/320/320 321/321/321 322/322/322
f 323/323/323 324/324/324 325/325/325
f 326/326/326 327/327/327 328/328/328
f 329/329/329 330/330/330 331/331/331
f 332/332/332 333/333/333 334/334/334
f 335/335/335 336/336/336 337/337/337
f 338/338/338 339/339/339 340/340/340
f 341/341/341 342/342/342 343/343/343
f 344/344/344 345/345/345 346/346/346
f 347/347/347 348/348/348 349/349/349
f 350/350/350 351/351/351 352/352/352
f 353/353/353 354/354/354 355/355/355
f 356/356/356 357/357/357 358/358/358
f 359/359/359 360/360/360 361/361/361
f 362/362/362 363/363/363 364/364/364
f 365/365/365 366/366/366 367/367/367
f 368/368/368 369/369/369 370/370/370
f 371/371/371 372/372/372 373/373/373
f 374/374/374 375/375/375 376/376/376
f 377/377/377 378/378/378 379/379/379
f 380/380/380 381/381/381 382/382/382
f 383/383/383 384/384/384 385/385/385
f 386/386/386 387/387/387 388/388/388
f 389/389/389 390/390/390 391/391/391
f 392/392/392 393/393/393 394/394/394
f 395/395/395 396/396/396 397/397/397
f 398/398/398 399/399/399 400/400/400
f 401/401/401 402/402/402 403/403/403
f 404/404/404 405/405/405 406/406/406
f 407/407/407 408/408/408 409/409/409
f 410/410/410 411/411/411 412/412/412
f 410/410/410 412/412/412 413/413/413
f 414/414/414 415/415/415 416/416/416
f 417/417/417 418/418/418 419/419/419
f 420/420/420 421/421/421 422/422/422
f 423/423/423 424/424/424 425/425/425
f 426/426/426 427/427/427 428/428/428
f 429/429/429 430/430/430 431/431/431
f 432/432/432 433/433/433 434/434/434
f 435/435/435 436/436/436 437/437/437
f 438/438/438 439/439/439 440/440/440
f 441/441/441 442/442/442 443/443/443
f 444/444/444 445/445/445 446/446/446
f 444/444/444 446/446/446 447/447/447
f 448/448/448 449/449/449 450/450/450
f 451/451/451 452/452/452 453/453/453
f 454/454/454 455/455/455 456/456/456
f 457/457/457 458/458/458 459/459/459
f 460/460/460 461/461/461 462/462/462
f 463/463/463 464/464/464 465/465/465
f 466/466/466 467/467/467 468/468/468
f 469/469/469 470/470/470 471/471/471
f 472/472/472 473/473/473 474/474/474
f 475/475/475 476/476/476 477/477/477
f 475/475/475 477/477/477 478/478/478
f 479/479/479 480/480/480 481/481/481
f 482/482/482 483/483/483 484/484/484
f 485/485/485 486/486/486 487/487/487
f 488/488/488 489/489/489 490/490/490
f 491/491/491 492/492/492 493/493/493
f 494/494/494 495/495/495 496/496/496
f 497/497/497 498/498/498 499/499/499
f 500/500/500 501/501/501 502/502/502
f 503/503/503 504/504/504 505/505/505
f 506/506/506 507/507/507 508/508/508
f 509/509/509 510/510/510 511/511/511
f 512/512/512 513/513/513 514/514/514
f 515/515/515 516/516/516 517/517/517
