v 0.754673 0.196208 -0.214657
v 0.723319 0.19845 -0.215454
v 0.715878 0.133195 -0.192236
v 0.742901 0.133195 -0.192236
v 0.754673 0.196208 -0.214657
v 0.742901 0.133195 -0.192236
v 0.786286 0.133195 -0.192235
v 0.792145 0.194513 -0.214053
v 0.7071 0.133317 -0.195954
v 0.715878 0.133195 -0.192236
v 0.723319 0.19845 -0.215454
v 0.703464 0.133612 -0.204931
v 0.7071 0.133317 -0.195954
v 0.723319 0.19845 -0.215454
v 0.717424 0.199021 -0.221934
v 0.717415 0.201754 -0.306451
v 0.703464 0.136889 -0.304649
v 0.703464 0.133612 -0.204931
v 0.717424 0.199021 -0.221934
v 0.707105 0.137174 -0.31334
v 0.703464 0.136889 -0.304649
v 0.717415 0.201754 -0.306451
v 0.715895 0.137293 -0.31694
v 0.707105 0.137174 -0.31334
v 0.717415 0.201754 -0.306451
v 0.723364 0.201623 -0.312408
v 0.742901 0.137293 -0.31694
v 0.715895 0.137293 -0.31694
v 0.723364 0.201623 -0.312408
v 0.754683 0.200036 -0.31252
v 0.742901 0.137293 -0.31694
v 0.754683 0.200036 -0.31252
v 0.792162 0.198837 -0.312604
v 0.786286 0.137293 -0.31694
v 0.786286 0.137293 -0.31694
v 0.792162 0.198837 -0.312604
v 0.82967 0.198503 -0.312628
v 0.82967 0.137293 -0.31694
v 0.82967 0.137293 -0.31694
v 0.82967 0.198503 -0.312628
v 0.867179 0.198837 -0.312604
v 0.873055 0.137293 -0.31694
v 0.873055 0.137293 -0.31694
v 0.867179 0.198837 -0.312604
v 0.904658 0.200036 -0.31252
v 0.916439 0.137293 -0.31694
v 0.943445 0.137293 -0.31694
v 0.916439 0.137293 -0.31694
v 0.904658 0.200036 -0.31252
v 0.935977 0.201623 -0.312408
v 0.943445 0.137293 -0.31694
v 0.935977 0.201623 -0.312408
v 0.952236 0.137174 -0.31334
v 0.935977 0.201623 -0.312408
v 0.941926 0.201754 -0.306451
v 0.955877 0.136889 -0.304648
v 0.952236 0.137174 -0.31334
v 0.941917 0.199021 -0.221934
v 0.955877 0.133612 -0.204931
v 0.955877 0.136889 -0.304648
v 0.941926 0.201754 -0.306451
v 0.952241 0.133317 -0.195954
v 0.955877 0.133612 -0.204931
v 0.941917 0.199021 -0.221934
v 0.936021 0.19845 -0.215454
v 0.943463 0.133195 -0.192235
v 0.952241 0.133317 -0.195954
v 0.936021 0.19845 -0.215454
v 0.936021 0.19845 -0.215454
v 0.904668 0.196208 -0.214657
v 0.916439 0.133195 -0.192235
v 0.943463 0.133195 -0.192235
v 0.867196 0.194513 -0.214053
v 0.873055 0.133195 -0.192235
v 0.916439 0.133195 -0.192235
v 0.904668 0.196208 -0.214657
v 0.82967 0.194041 -0.213885
v 0.82967 0.133195 -0.192235
v 0.873055 0.133195 -0.192235
v 0.867196 0.194513 -0.214053
v 0.792145 0.194513 -0.214053
v 0.786286 0.133195 -0.192235
v 0.82967 0.133195 -0.192235
v 0.82967 0.194041 -0.213885
v 0.866944 0.197166 -0.217784
v 0.82967 0.196685 -0.217616
v 0.82967 0.194041 -0.213885
v 0.867196 0.194513 -0.214053
v 0.82967 0.196685 -0.217616
v 0.792397 0.197166 -0.217784
v 0.792145 0.194513 -0.214053
v 0.82967 0.194041 -0.213885
v 0.792397 0.197166 -0.217784
v 0.755165 0.19889 -0.218384
v 0.754673 0.196208 -0.214657
v 0.792145 0.194513 -0.214053
v 0.79239 0.19717 -0.231255
v 0.792397 0.197166 -0.217784
v 0.82967 0.196685 -0.217616
v 0.82967 0.196635 -0.231126
v 0.755154 0.199066 -0.231734
v 0.755165 0.19889 -0.218384
v 0.792397 0.197166 -0.217784
v 0.79239 0.19717 -0.231255
v 0.755165 0.19889 -0.218384
v 0.724002 0.20118 -0.219178
v 0.723319 0.19845 -0.215454
v 0.754673 0.196208 -0.214657
v 0.755154 0.199066 -0.231734
v 0.720748 0.201523 -0.223308
v 0.724002 0.20118 -0.219178
v 0.755165 0.19889 -0.218384
v 0.724002 0.20118 -0.219178
v 0.720748 0.201523 -0.223308
v 0.717424 0.199021 -0.221934
v 0.723319 0.19845 -0.215454
v 0.755154 0.199066 -0.231734
v 0.75518 0.201686 -0.296226
v 0.720748 0.204269 -0.305766
v 0.720748 0.201523 -0.223308
v 0.717424 0.199021 -0.221934
v 0.720748 0.201523 -0.223308
v 0.720748 0.204269 -0.305766
v 0.717415 0.201754 -0.306451
v 0.720748 0.204269 -0.305766
v 0.723967 0.204269 -0.309431
v 0.723364 0.201623 -0.312408
v 0.717415 0.201754 -0.306451
v 0.755195 0.202592 -0.309547
v 0.723967 0.204269 -0.309431
v 0.720748 0.204269 -0.305766
v 0.75518 0.201686 -0.296226
v 0.723967 0.204269 -0.309431
v 0.755195 0.202592 -0.309547
v 0.754683 0.200036 -0.31252
v 0.723364 0.201623 -0.312408
v 0.755195 0.202592 -0.309547
v 0.75518 0.201686 -0.296226
v 0.79241 0.200159 -0.296215
v 0.792423 0.201347 -0.309635
v 0.755195 0.202592 -0.309547
v 0.792423 0.201347 -0.309635
v 0.792162 0.198837 -0.312604
v 0.754683 0.200036 -0.31252
v 0.792423 0.201347 -0.309635
v 0.82967 0.200997 -0.30966
v 0.82967 0.198503 -0.312628
v 0.792162 0.198837 -0.312604
v 0.792423 0.201347 -0.309635
v 0.79241 0.200159 -0.296215
v 0.82967 0.199712 -0.296211
v 0.82967 0.200997 -0.30966
v 0.79239 0.19717 -0.231255
v 0.79241 0.200159 -0.296215
v 0.75518 0.201686 -0.296226
v 0.755154 0.199066 -0.231734
v 0.82967 0.196635 -0.231126
v 0.82967 0.199712 -0.296211
v 0.79241 0.200159 -0.296215
v 0.79239 0.19717 -0.231255
v 0.82967 0.200997 -0.30966
v 0.82967 0.199712 -0.296211
v 0.866931 0.200159 -0.296215
v 0.866918 0.201347 -0.309635
v 0.86695 0.19717 -0.231255
v 0.866931 0.200159 -0.296215
v 0.82967 0.199712 -0.296211
v 0.82967 0.196635 -0.231126
v 0.82967 0.196635 -0.231126
v 0.82967 0.196685 -0.217616
v 0.866944 0.197166 -0.217784
v 0.86695 0.19717 -0.231255
v 0.86695 0.19717 -0.231255
v 0.866944 0.197166 -0.217784
v 0.904176 0.19889 -0.218384
v 0.904186 0.199066 -0.231734
v 0.904186 0.199066 -0.231734
v 0.90416 0.201686 -0.296226
v 0.866931 0.200159 -0.296215
v 0.86695 0.19717 -0.231255
v 0.904186 0.199066 -0.231734
v 0.938593 0.201523 -0.223308
v 0.938593 0.204269 -0.305765
v 0.90416 0.201686 -0.296226
v 0.938593 0.201523 -0.223308
v 0.904186 0.199066 -0.231734
v 0.904176 0.19889 -0.218384
v 0.935339 0.20118 -0.219178
v 0.938593 0.201523 -0.223308
v 0.935339 0.20118 -0.219178
v 0.936021 0.19845 -0.215454
v 0.941917 0.199021 -0.221934
v 0.941917 0.199021 -0.221934
v 0.941926 0.201754 -0.306451
v 0.938593 0.204269 -0.305765
v 0.938593 0.201523 -0.223308
v 0.935339 0.20118 -0.219178
v 0.904176 0.19889 -0.218384
v 0.904668 0.196208 -0.214657
v 0.936021 0.19845 -0.215454
v 0.935373 0.204269 -0.30943
v 0.938593 0.204269 -0.305765
v 0.941926 0.201754 -0.306451
v 0.935977 0.201623 -0.312408
v 0.938593 0.204269 -0.305765
v 0.935373 0.204269 -0.30943
v 0.904145 0.202592 -0.309547
v 0.90416 0.201686 -0.296226
v 0.904145 0.202592 -0.309547
v 0.935373 0.204269 -0.30943
v 0.935977 0.201623 -0.312408
v 0.904658 0.200036 -0.31252
v 0.866918 0.201347 -0.309635
v 0.904145 0.202592 -0.309547
v 0.904658 0.200036 -0.31252
v 0.867179 0.198837 -0.312604
v 0.866918 0.201347 -0.309635
v 0.866931 0.200159 -0.296215
v 0.90416 0.201686 -0.296226
v 0.904145 0.202592 -0.309547
v 0.82967 0.200997 -0.30966
v 0.866918 0.201347 -0.309635
v 0.867179 0.198837 -0.312604
v 0.82967 0.198503 -0.312628
v 0.904176 0.19889 -0.218384
v 0.866944 0.197166 -0.217784
v 0.867196 0.194513 -0.214053
v 0.904668 0.196208 -0.214657
v 0.742901 0.133195 -0.192236
v 0.715878 0.133195 -0.192236
v 0.715873 0.121933 -0.192606
v 0.742901 0.121933 -0.192606
v 0.742901 0.133195 -0.192236
v 0.742901 0.121933 -0.192606
v 0.786286 0.121933 -0.192606
v 0.786286 0.133195 -0.192235
v 0.786286 0.133195 -0.192235
v 0.786286 0.121933 -0.192606
v 0.82967 0.121933 -0.192606
v 0.82967 0.133195 -0.192235
v 0.82967 0.133195 -0.192235
v 0.82967 0.121933 -0.192606
v 0.873055 0.121933 -0.192606
v 0.873055 0.133195 -0.192235
v 0.873055 0.133195 -0.192235
v 0.873055 0.121933 -0.192606
v 0.916439 0.121933 -0.192605
v 0.916439 0.133195 -0.192235
v 0.943463 0.133195 -0.192235
v 0.916439 0.133195 -0.192235
v 0.916439 0.121933 -0.192605
v 0.943468 0.121933 -0.192605
v 0.943468 0.121933 -0.192605
v 0.952242 0.122055 -0.196319
v 0.952241 0.133317 -0.195954
v 0.943463 0.133195 -0.192235
v 0.952242 0.122055 -0.196319
v 0.955877 0.12235 -0.205285
v 0.955877 0.133612 -0.204931
v 0.952241 0.133317 -0.195954
v 0.955877 0.12235 -0.205285
v 0.955877 0.125627 -0.305019
v 0.955877 0.136889 -0.304648
v 0.955877 0.133612 -0.204931
v 0.952236 0.137174 -0.31334
v 0.955877 0.136889 -0.304648
v 0.955877 0.125627 -0.305019
v 0.952237 0.125912 -0.31371
v 0.943445 0.137293 -0.31694
v 0.952236 0.137174 -0.31334
v 0.952237 0.125912 -0.31371
v 0.943451 0.126031 -0.31731
v 0.943451 0.126031 -0.31731
v 0.916439 0.126031 -0.31731
v 0.916439 0.137293 -0.31694
v 0.943445 0.137293 -0.31694
v 0.873055 0.126031 -0.31731
v 0.873055 0.137293 -0.31694
v 0.916439 0.137293 -0.31694
v 0.916439 0.126031 -0.31731
v 0.82967 0.126031 -0.31731
v 0.82967 0.137293 -0.31694
v 0.873055 0.137293 -0.31694
v 0.873055 0.126031 -0.31731
v 0.786286 0.126031 -0.31731
v 0.786286 0.137293 -0.31694
v 0.82967 0.137293 -0.31694
v 0.82967 0.126031 -0.31731
v 0.742901 0.126031 -0.31731
v 0.742901 0.137293 -0.31694
v 0.786286 0.137293 -0.31694
v 0.786286 0.126031 -0.31731
v 0.742901 0.126031 -0.31731
v 0.71589 0.126031 -0.31731
v 0.715895 0.137293 -0.31694
v 0.742901 0.137293 -0.31694
v 0.71589 0.126031 -0.31731
v 0.707103 0.125912 -0.31371
v 0.707105 0.137174 -0.31334
v 0.715895 0.137293 -0.31694
v 0.707103 0.125912 -0.31371
v 0.703464 0.125627 -0.305019
v 0.703464 0.136889 -0.304649
v 0.707105 0.137174 -0.31334
v 0.703464 0.125627 -0.305019
v 0.703464 0.12235 -0.205286
v 0.703464 0.133612 -0.204931
v 0.703464 0.136889 -0.304649
v 0.703464 0.12235 -0.205286
v 0.707098 0.122055 -0.196319
v 0.7071 0.133317 -0.195954
v 0.703464 0.133612 -0.204931
v 0.707098 0.122055 -0.196319
v 0.715873 0.121933 -0.192606
v 0.715878 0.133195 -0.192236
v 0.7071 0.133317 -0.195954
vn -0 0.3353 0.9421
vn -0 0.3353 0.9421
vn -0.0001 0.3352 0.9421
vn -0 0.3352 0.9421
vn -0 0.3353 0.9421
vn -0 0.3352 0.9421
vn -0 0.3352 0.9421
vn -0 0.3353 0.9421
vn -0.672 0.3395 0.6582
vn -0.0001 0.3352 0.9421
vn -0 0.3353 0.9421
vn -0.9776 0.2105 0.007
vn -0.672 0.3395 0.6582
vn -0 0.3353 0.9421
vn -0.9776 0.2105 0.0069
vn -0.9776 0.2105 0.0069
vn -0.9776 0.2104 0.0068
vn -0.9776 0.2105 0.007
vn -0.9776 0.2105 0.0069
vn -0.6973 0.1591 -0.6989
vn -0.9776 0.2104 0.0068
vn -0.9776 0.2105 0.0069
vn -0.0001 0.0703 -0.9975
vn -0.6973 0.1591 -0.6989
vn -0.9776 0.2105 0.0069
vn 0.0001 0.0703 -0.9975
vn -0 0.0703 -0.9975
vn -0.0001 0.0703 -0.9975
vn 0.0001 0.0703 -0.9975
vn -0 0.0704 -0.9975
vn -0 0.0703 -0.9975
vn -0 0.0704 -0.9975
vn -0 0.0704 -0.9975
vn -0 0.0703 -0.9975
vn -0 0.0703 -0.9975
vn -0 0.0704 -0.9975
vn -0 0.0704 -0.9975
vn -0 0.0703 -0.9975
vn -0 0.0703 -0.9975
vn -0 0.0704 -0.9975
vn -0 0.0704 -0.9975
vn -0 0.0703 -0.9975
vn -0 0.0703 -0.9975
vn -0 0.0704 -0.9975
vn -0 0.0704 -0.9975
vn -0 0.0703 -0.9975
vn 0.0001 0.0703 -0.9975
vn -0 0.0703 -0.9975
vn -0 0.0704 -0.9975
vn -0 0.0703 -0.9975
vn 0.0001 0.0703 -0.9975
vn -0 0.0703 -0.9975
vn 0.6972 0.1591 -0.699
vn -0 0.0703 -0.9975
vn 0.9776 0.2105 0.0069
vn 0.9776 0.2104 0.0068
vn 0.6972 0.1591 -0.699
vn 0.9776 0.2105 0.0069
vn 0.9776 0.2105 0.007
vn 0.9776 0.2104 0.0068
vn 0.9776 0.2105 0.0069
vn 0.672 0.3395 0.6582
vn 0.9776 0.2105 0.007
vn 0.9776 0.2105 0.0069
vn -0 0.3352 0.9421
vn 0.0001 0.3352 0.9421
vn 0.672 0.3395 0.6582
vn -0 0.3352 0.9421
vn -0 0.3352 0.9421
vn -0 0.3353 0.9421
vn -0 0.3352 0.9421
vn 0.0001 0.3352 0.9421
vn -0 0.3353 0.9421
vn -0 0.3352 0.9421
vn -0 0.3352 0.9421
vn -0 0.3353 0.9421
vn -0 0.3353 0.9421
vn -0 0.3352 0.9421
vn -0 0.3352 0.9421
vn -0 0.3353 0.9421
vn -0 0.3353 0.9421
vn -0 0.3352 0.9421
vn -0 0.3352 0.9421
vn -0 0.3353 0.9421
vn -0.0309 0.9995 0.0065
vn 0.0002 1 0.0023
vn -0 0.3353 0.9421
vn -0 0.3353 0.9421
vn 0.0002 1 0.0023
vn 0.0309 0.9995 0.0064
vn -0 0.3353 0.9421
vn -0 0.3353 0.9421
vn 0.0309 0.9995 0.0064
vn 0.061 0.998 0.0152
vn -0 0.3353 0.9421
vn -0 0.3353 0.9421
vn 0.0302 0.9993 0.0237
vn 0.0309 0.9995 0.0064
vn 0.0002 1 0.0023
vn -0 0.9997 0.0224
vn 0.0601 0.9978 0.0264
vn 0.061 0.998 0.0152
vn 0.0309 0.9995 0.0064
vn 0.0302 0.9993 0.0237
vn 0.061 0.998 0.0152
vn 0.072 0.9972 0.0193
vn -0 0.3353 0.9421
vn -0 0.3353 0.9421
vn 0.0601 0.9978 0.0264
vn 0.0694 0.9972 0.0269
vn 0.072 0.9972 0.0193
vn 0.061 0.998 0.0152
vn 0.072 0.9972 0.0193
vn 0.0694 0.9972 0.0269
vn -0.9776 0.2105 0.0069
vn -0 0.3353 0.9421
vn 0.0601 0.9978 0.0264
vn 0.0534 0.9971 0.0542
vn 0.0632 0.9967 0.051
vn 0.0694 0.9972 0.0269
vn -0.9776 0.2105 0.0069
vn 0.0694 0.9972 0.0269
vn 0.0632 0.9967 0.051
vn -0.9776 0.2105 0.0069
vn 0.0632 0.9967 0.051
vn 0.0555 0.9964 0.0636
vn 0.0001 0.0703 -0.9975
vn -0.9776 0.2105 0.0069
vn 0.0463 0.9967 0.0668
vn 0.0555 0.9964 0.0636
vn 0.0632 0.9967 0.051
vn 0.0534 0.9971 0.0542
vn 0.0555 0.9964 0.0636
vn 0.0463 0.9967 0.0668
vn -0 0.0704 -0.9975
vn 0.0001 0.0703 -0.9975
vn 0.0463 0.9967 0.0668
vn 0.0534 0.9971 0.0542
vn 0.0266 0.9975 0.0649
vn 0.0239 0.9964 0.0808
vn 0.0463 0.9967 0.0668
vn 0.0239 0.9964 0.0808
vn -0 0.0704 -0.9975
vn -0 0.0704 -0.9975
vn 0.0239 0.9964 0.0808
vn -0 0.9962 0.0876
vn -0 0.0704 -0.9975
vn -0 0.0704 -0.9975
vn 0.0239 0.9964 0.0808
vn 0.0266 0.9975 0.0649
vn -0 0.9976 0.0691
vn -0 0.9962 0.0876
vn 0.0302 0.9993 0.0237
vn 0.0266 0.9975 0.0649
vn 0.0534 0.9971 0.0542
vn 0.0601 0.9978 0.0264
vn -0 0.9997 0.0224
vn -0 0.9976 0.0691
vn 0.0266 0.9975 0.0649
vn 0.0302 0.9993 0.0237
vn -0 0.9962 0.0876
vn -0 0.9976 0.0691
vn -0.0266 0.9975 0.0649
vn -0.0222 0.9965 0.0808
vn -0.0302 0.9993 0.0237
vn -0.0266 0.9975 0.0649
vn -0 0.9976 0.0691
vn -0 0.9997 0.0224
vn -0 0.9997 0.0224
vn 0.0002 1 0.0023
vn -0.0309 0.9995 0.0065
vn -0.0302 0.9993 0.0237
vn -0.0302 0.9993 0.0237
vn -0.0309 0.9995 0.0065
vn -0.061 0.998 0.0152
vn -0.0601 0.9978 0.0264
vn -0.0601 0.9978 0.0264
vn -0.0534 0.9971 0.0542
vn -0.0266 0.9975 0.0649
vn -0.0302 0.9993 0.0237
vn -0.0601 0.9978 0.0264
vn -0.0694 0.9972 0.0269
vn -0.0632 0.9967 0.0511
vn -0.0534 0.9971 0.0542
vn -0.0694 0.9972 0.0269
vn -0.0601 0.9978 0.0264
vn -0.061 0.998 0.0152
vn -0.0719 0.9972 0.0193
vn -0.0694 0.9972 0.0269
vn -0.0719 0.9972 0.0193
vn -0 0.3352 0.9421
vn 0.9776 0.2105 0.0069
vn 0.9776 0.2105 0.0069
vn 0.9776 0.2105 0.0069
vn -0.0632 0.9967 0.0511
vn -0.0694 0.9972 0.0269
vn -0.0719 0.9972 0.0193
vn -0.061 0.998 0.0152
vn -0 0.3353 0.9421
vn -0 0.3352 0.9421
vn -0.0554 0.9964 0.0636
vn -0.0632 0.9967 0.0511
vn 0.9776 0.2105 0.0069
vn -0 0.0703 -0.9975
vn -0.0632 0.9967 0.0511
vn -0.0554 0.9964 0.0636
vn -0.044 0.9968 0.0669
vn -0.0534 0.9971 0.0542
vn -0.044 0.9968 0.0669
vn -0.0554 0.9964 0.0636
vn -0 0.0703 -0.9975
vn -0 0.0704 -0.9975
vn -0.0222 0.9965 0.0808
vn -0.044 0.9968 0.0669
vn -0 0.0704 -0.9975
vn -0 0.0704 -0.9975
vn -0.0222 0.9965 0.0808
vn -0.0266 0.9975 0.0649
vn -0.0534 0.9971 0.0542
vn -0.044 0.9968 0.0669
vn -0 0.9962 0.0876
vn -0.0222 0.9965 0.0808
vn -0 0.0704 -0.9975
vn -0 0.0704 -0.9975
vn -0.061 0.998 0.0152
vn -0.0309 0.9995 0.0065
vn -0 0.3353 0.9421
vn -0 0.3353 0.9421
vn -0 -0.0328 0.9995
vn -0.0001 -0.0328 0.9995
vn -0.0001 -0.0327 0.9995
vn -0 -0.0328 0.9995
vn -0 -0.0328 0.9995
vn -0 -0.0328 0.9995
vn -0 -0.0328 0.9995
vn -0 -0.0328 0.9995
vn -0 -0.0328 0.9995
vn -0 -0.0328 0.9995
vn -0 -0.0328 0.9995
vn -0 -0.0328 0.9995
vn -0 -0.0328 0.9995
vn -0 -0.0328 0.9995
vn -0 -0.0328 0.9995
vn -0 -0.0328 0.9995
vn -0 -0.0328 0.9995
vn -0 -0.0328 0.9995
vn -0 -0.0328 0.9995
vn -0 -0.0328 0.9995
vn 0.0001 -0.0327 0.9995
vn -0 -0.0328 0.9995
vn -0 -0.0328 0.9995
vn 0.0001 -0.0328 0.9995
vn 0.0001 -0.0328 0.9995
vn 0.715 -0.0226 0.6988
vn 0.715 -0.0226 0.6987
vn 0.0001 -0.0327 0.9995
vn 0.715 -0.0226 0.6988
vn 1 0.0002 0.0001
vn 1 -0 0.0001
vn 0.715 -0.0226 0.6987
vn 1 0.0002 0.0001
vn 1 -0.0001 -0.0001
vn 1 -0 -0.0001
vn 1 -0 0.0001
vn 0.7032 0.0234 -0.7106
vn 1 -0 -0.0001
vn 1 -0.0001 -0.0001
vn 0.7037 0.0234 -0.7101
vn 0.0001 0.033 -0.9995
vn 0.7032 0.0234 -0.7106
vn 0.7037 0.0234 -0.7101
vn 0.0001 0.0329 -0.9995
vn 0.0001 0.0329 -0.9995
vn -0 0.0328 -0.9995
vn -0 0.0328 -0.9995
vn 0.0001 0.033 -0.9995
vn -0 0.0328 -0.9995
vn -0 0.0328 -0.9995
vn -0 0.0328 -0.9995
vn -0 0.0328 -0.9995
vn -0 0.0328 -0.9995
vn -0 0.0328 -0.9995
vn -0 0.0328 -0.9995
vn -0 0.0328 -0.9995
vn -0 0.0328 -0.9995
vn -0 0.0328 -0.9995
vn -0 0.0328 -0.9995
vn -0 0.0328 -0.9995
vn -0 0.0328 -0.9995
vn -0 0.0328 -0.9995
vn -0 0.0328 -0.9995
vn -0 0.0328 -0.9995
vn -0 0.0328 -0.9995
vn -0.0001 0.0329 -0.9995
vn -0.0001 0.0329 -0.9995
vn -0 0.0328 -0.9995
vn -0.0001 0.0329 -0.9995
vn -0.7033 0.0234 -0.7105
vn -0.7032 0.0235 -0.7106
vn -0.0001 0.0329 -0.9995
vn -0.7033 0.0234 -0.7105
vn -1 -0 -0.0001
vn -1 -0 -0.0001
vn -0.7032 0.0235 -0.7106
vn -1 -0 -0.0001
vn -1 -0 0.0001
vn -1 0.0002 0.0001
vn -1 -0 -0.0001
vn -1 -0 0.0001
vn -0.715 -0.0226 0.6987
vn -0.715 -0.0226 0.6988
vn -1 0.0002 0.0001
vn -0.715 -0.0226 0.6987
vn -0.0001 -0.0327 0.9995
vn -0.0001 -0.0328 0.9995
vn -0.715 -0.0226 0.6988
vt 0.899844 0.050627
vt 0.885821 0.05027
vt 0.874134 0.064752
vt 0.888061 0.064732
vt 0.899844 0.050627
vt 0.888061 0.064732
vt 0.910723 0.064732
vt 0.916603 0.050896
vt 0.869996 0.06304
vt 0.874134 0.064752
vt 0.885821 0.05027
vt 0.868374 0.058801
vt 0.869996 0.06304
vt 0.885821 0.05027
vt 0.883185 0.047372
vt 0.88318 0.00957298
vt 0.868395 0.00641
vt 0.868374 0.058801
vt 0.883185 0.047372
vt 0.870068 0.00233001
vt 0.868395 0.00641
vt 0.88318 0.00957298
vt 0.874191 0.000737011
vt 0.870068 0.00233001
vt 0.88318 0.00957298
vt 0.885841 0.00690901
vt 0.888061 0.000769973
vt 0.874191 0.000737011
vt 0.885841 0.00690901
vt 0.899848 0.00685799
vt 0.888061 0.000769973
vt 0.899848 0.00685799
vt 0.91661 0.00682098
vt 0.910723 0.000769973
vt 0.910723 0.000769973
vt 0.91661 0.00682098
vt 0.933385 0.00681001
vt 0.933385 0.000769973
vt 0.933385 0.000769973
vt 0.933385 0.00681001
vt 0.95016 0.00682098
vt 0.956048 0.000769973
vt 0.956048 0.000769973
vt 0.95016 0.00682098
vt 0.966923 0.00685799
vt 0.97871 0.000769973
vt 0.992624 0.000748992
vt 0.97871 0.000769973
vt 0.966923 0.00685799
vt 0.98093 0.00690901
vt 0.992624 0.000748992
vt 0.98093 0.00690901
vt 0.996755 0.00238502
vt 0.98093 0.00690901
vt 0.983591 0.00957298
vt 0.998384 0.00644898
vt 0.996755 0.00238502
vt 0.983586 0.047372
vt 0.998397 0.058801
vt 0.998384 0.00644898
vt 0.983591 0.00957298
vt 0.996775 0.06304
vt 0.998397 0.058801
vt 0.983586 0.047372
vt 0.98095 0.05027
vt 0.992637 0.064752
vt 0.996775 0.06304
vt 0.98095 0.05027
vt 0.98095 0.05027
vt 0.966927 0.050627
vt 0.97871 0.064732
vt 0.992637 0.064752
vt 0.950168 0.050896
vt 0.956048 0.064732
vt 0.97871 0.064732
vt 0.966927 0.050627
vt 0.933385 0.050972
vt 0.933385 0.064732
vt 0.956048 0.064732
vt 0.950168 0.050896
vt 0.916603 0.050896
vt 0.910723 0.064732
vt 0.933385 0.064732
vt 0.933385 0.050972
vt 0.950056 0.049228
vt 0.933385 0.049303
vt 0.933385 0.050972
vt 0.950168 0.050896
vt 0.933385 0.049303
vt 0.916716 0.049228
vt 0.916603 0.050896
vt 0.933385 0.050972
vt 0.916716 0.049228
vt 0.900064 0.048959
vt 0.899844 0.050627
vt 0.916603 0.050896
vt 0.916712 0.043203
vt 0.916716 0.049228
vt 0.933385 0.049303
vt 0.933385 0.043261
vt 0.900059 0.042989
vt 0.900064 0.048959
vt 0.916716 0.049228
vt 0.916712 0.043203
vt 0.900064 0.048959
vt 0.886127 0.048604
vt 0.885821 0.05027
vt 0.899844 0.050627
vt 0.900059 0.042989
vt 0.884671 0.046757
vt 0.886127 0.048604
vt 0.900064 0.048959
vt 0.886127 0.048604
vt 0.884671 0.046757
vt 0.883185 0.047372
vt 0.885821 0.05027
vt 0.900059 0.042989
vt 0.900071 0.014146
vt 0.884671 0.00987899
vt 0.884671 0.046757
vt 0.883185 0.047372
vt 0.884671 0.046757
vt 0.884671 0.00987899
vt 0.88318 0.00957298
vt 0.884671 0.00987899
vt 0.886111 0.00823998
vt 0.885841 0.00690901
vt 0.88318 0.00957298
vt 0.900077 0.00818801
vt 0.886111 0.00823998
vt 0.884671 0.00987899
vt 0.900071 0.014146
vt 0.886111 0.00823998
vt 0.900077 0.00818801
vt 0.899848 0.00685799
vt 0.885841 0.00690901
vt 0.900077 0.00818801
vt 0.900071 0.014146
vt 0.916721 0.014151
vt 0.916727 0.00814903
vt 0.900077 0.00818801
vt 0.916727 0.00814903
vt 0.91661 0.00682098
vt 0.899848 0.00685799
vt 0.916727 0.00814903
vt 0.933385 0.008138
vt 0.933385 0.00681001
vt 0.91661 0.00682098
vt 0.916727 0.00814903
vt 0.916721 0.014151
vt 0.933385 0.014153
vt 0.933385 0.008138
vt 0.916712 0.043203
vt 0.916721 0.014151
vt 0.900071 0.014146
vt 0.900059 0.042989
vt 0.933385 0.043261
vt 0.933385 0.014153
vt 0.916721 0.014151
vt 0.916712 0.043203
vt 0.933385 0.008138
vt 0.933385 0.014153
vt 0.95005 0.014151
vt 0.950044 0.00814903
vt 0.950058 0.043203
vt 0.95005 0.014151
vt 0.933385 0.014153
vt 0.933385 0.043261
vt 0.933385 0.043261
vt 0.933385 0.049303
vt 0.950056 0.049228
vt 0.950058 0.043203
vt 0.950058 0.043203
vt 0.950056 0.049228
vt 0.966707 0.048959
vt 0.966712 0.042989
vt 0.966712 0.042989
vt 0.9667 0.014146
vt 0.95005 0.014151
vt 0.950058 0.043203
vt 0.966712 0.042989
vt 0.9821 0.046757
vt 0.9821 0.00987899
vt 0.9667 0.014146
vt 0.9821 0.046757
vt 0.966712 0.042989
vt 0.966707 0.048959
vt 0.980644 0.048604
vt 0.9821 0.046757
vt 0.980644 0.048604
vt 0.98095 0.05027
vt 0.983586 0.047372
vt 0.983586 0.047372
vt 0.983591 0.00957298
vt 0.9821 0.00987899
vt 0.9821 0.046757
vt 0.980644 0.048604
vt 0.966707 0.048959
vt 0.966927 0.050627
vt 0.98095 0.05027
vt 0.98066 0.00823998
vt 0.9821 0.00987899
vt 0.983591 0.00957298
vt 0.98093 0.00690901
vt 0.9821 0.00987899
vt 0.98066 0.00823998
vt 0.966693 0.00818801
vt 0.9667 0.014146
vt 0.966693 0.00818801
vt 0.98066 0.00823998
vt 0.98093 0.00690901
vt 0.966923 0.00685799
vt 0.950044 0.00814903
vt 0.966693 0.00818801
vt 0.966923 0.00685799
vt 0.95016 0.00682098
vt 0.950044 0.00814903
vt 0.95005 0.014151
vt 0.9667 0.014146
vt 0.966693 0.00818801
vt 0.933385 0.008138
vt 0.950044 0.00814903
vt 0.95016 0.00682098
vt 0.933385 0.00681001
vt 0.966707 0.048959
vt 0.950056 0.049228
vt 0.950168 0.050896
vt 0.966927 0.050627
vt 0.888061 0.064732
vt 0.874134 0.064752
vt 0.873803 0.066531
vt 0.888061 0.066545
vt 0.888061 0.064732
vt 0.888061 0.066545
vt 0.910723 0.066545
vt 0.910723 0.064732
vt 0.910723 0.064732
vt 0.910723 0.066545
vt 0.933385 0.066545
vt 0.933385 0.064732
vt 0.933385 0.064732
vt 0.933385 0.066545
vt 0.956048 0.066545
vt 0.956048 0.064732
vt 0.956048 0.064732
vt 0.956048 0.066545
vt 0.97871 0.066545
vt 0.97871 0.064732
vt 0.992637 0.064752
vt 0.97871 0.064732
vt 0.97871 0.066545
vt 0.992968 0.066531
vt 0.992968 0.066531
vt 0.997913 0.064396
vt 0.996775 0.06304
vt 0.992637 0.064752
vt 0.997913 0.064396
vt 1 0.059354
vt 0.998397 0.058801
vt 0.996775 0.06304
vt 1 0.059354
vt 0.999999 0.00698501
vt 0.998384 0.00644898
vt 0.998397 0.058801
vt 0.996755 0.00238502
vt 0.998384 0.00644898
vt 0.999999 0.00698501
vt 0.997904 0.00208497
vt 0.992624 0.000748992
vt 0.996755 0.00238502
vt 0.997904 0.00208497
vt 0.992955 1.40071e-05
vt 0.992955 1.40071e-05
vt 0.97871 0
vt 0.97871 0.000769973
vt 0.992624 0.000748992
vt 0.956048 0
vt 0.956048 0.000769973
vt 0.97871 0.000769973
vt 0.97871 0
vt 0.933385 0
vt 0.933385 0.000769973
vt 0.956048 0.000769973
vt 0.956048 0
vt 0.910723 0
vt 0.910723 0.000769973
vt 0.933385 0.000769973
vt 0.933385 0
vt 0.888061 0
vt 0.888061 0.000769973
vt 0.910723 0.000769973
vt 0.910723 0
vt 0.888061 0
vt 0.873816 1.40071e-05
vt 0.874191 0.000737011
vt 0.888061 0.000769973
vt 0.873816 1.40071e-05
vt 0.868866 0.00208497
vt 0.870068 0.00233001
vt 0.874191 0.000737011
vt 0.868866 0.00208497
vt 0.866771 0.00698501
vt 0.868395 0.00641
vt 0.870068 0.00233001
vt 0.866771 0.00698501
vt 0.866771 0.059354
vt 0.868374 0.058801
vt 0.868395 0.00641
vt 0.866771 0.059354
vt 0.868858 0.064396
vt 0.869996 0.06304
vt 0.868374 0.058801
vt 0.868858 0.064396
vt 0.873803 0.066531
vt 0.874134 0.064752
vt 0.869996 0.06304
s off
f 1/1/1 2/2/2 3/3/3
f 1/1/1 3/3/3 4/4/4
f 5/5/5 6/6/6 7/7/7
f 5/5/5 7/7/7 8/8/8
f 9/9/9 10/10/10 11/11/11
f 12/12/12 13/13/13 14/14/14
f 12/12/12 14/14/14 15/15/15
f 16/16/16 17/17/17 18/18/18
f 16/16/16 18/18/18 19/19/19
f 20/20/20 21/21/21 22/22/22
f 23/23/23 24/24/24 25/25/25
f 23/23/23 25/25/25 26/26/26
f 27/27/27 28/28/28 29/29/29
f 27/27/27 29/29/29 30/30/30
f 31/31/31 32/32/32 33/33/33
f 31/31/31 33/33/33 34/34/34
f 35/35/35 36/36/36 37/37/37
f 35/35/35 37/37/37 38/38/38
f 39/39/39 40/40/40 41/41/41
f 39/39/39 41/41/41 42/42/42
f 43/43/43 44/44/44 45/45/45
f 43/43/43 45/45/45 46/46/46
f 47/47/47 48/48/48 49/49/49
f 47/47/47 49/49/49 50/50/50
f 51/51/51 52/52/52 53/53/53
f 54/54/54 55/55/55 56/56/56
f 54/54/54 56/56/56 57/57/57
f 58/58/58 59/59/59 60/60/60
f 58/58/58 60/60/60 61/61/61
f 62/62/62 63/63/63 64/64/64
f 62/62/62 64/64/64 65/65/65
f 66/66/66 67/67/67 68/68/68
f 69/69/69 70/70/70 71/71/71
f 69/69/69 71/71/71 72/72/72
f 73/73/73 74/74/74 75/75/75
f 73/73/73 75/75/75 76/76/76
f 77/77/77 78/78/78 79/79/79
f 77/77/77 79/79/79 80/80/80
f 81/81/81 82/82/82 83/83/83
f 81/81/81 83/83/83 84/84/84
f 85/85/85 86/86/86 87/87/87
f 85/85/85 87/87/87 88/88/88
f 89/89/89 90/90/90 91/91/91
f 89/89/89 91/91/91 92/92/92
f 93/93/93 94/94/94 95/95/95
f 93/93/93 95/95/95 96/96/96
f 97/97/97 98/98/98 99/99/99
f 97/97/97 99/99/99 100/100/100
f 101/101/101 102/102/102 103/103/103
f 101/101/101 103/103/103 104/104/104
f 105/105/105 106/106/106 107/107/107
f 105/105/105 107/107/107 108/108/108
f 109/109/109 110/110/110 111/111/111
f 109/109/109 111/111/111 112/112/112
f 113/113/113 114/114/114 115/115/115
f 113/113/113 115/115/115 116/116/116
f 117/117/117 118/118/118 119/119/119
f 117/117/117 119/119/119 120/120/120
f 121/121/121 122/122/122 123/123/123
f 121/121/121 123/123/123 124/124/124
f 125/125/125 126/126/126 127/127/127
f 125/125/125 127/127/127 128/128/128
f 129/129/129 130/130/130 131/131/131
f 129/129/129 131/131/131 132/132/132
f 133/133/133 134/134/134 135/135/135
f 133/133/133 135/135/135 136/136/136
f 137/137/137 138/138/138 139/139/139
f 137/137/137 139/139/139 140/140/140
f 141/141/141 142/142/142 143/143/143
f 141/141/141 143/143/143 144/144/144
f 145/145/145 146/146/146 147/147/147
f 145/145/145 147/147/147 148/148/148
f 149/149/149 150/150/150 151/151/151
f 149/149/149 151/151/151 152/152/152
f 153/153/153 154/154/154 155/155/155
f 153/153/153 155/155/155 156/156/156
f 157/157/157 158/158/158 159/159/159
f 157/157/157 159/159/159 160/160/160
f 161/161/161 162/162/162 163/163/163
f 161/161/161 163/163/163 164/164/164
f 165/165/165 166/166/166 167/167/167
f 165/165/165 167/167/167 168/168/168
f 169/169/169 170/170/170 171/171/171
f 169/169/169 171/171/171 172/172/172
f 173/173/173 174/174/174 175/175/175
f 173/173/173 175/175/175 176/176/176
f 177/177/177 178/178/178 179/179/179
f 177/177/177 179/179/179 180/180/180
f 181/181/181 182/182/182 183/183/183
f 181/181/181 183/183/183 184/184/184
f 185/185/185 186/186/186 187/187/187
f 185/185/185 187/187/187 188/188/188
f 189/189/189 190/190/190 191/191/191
f 189/189/189 191/191/191 192/192/192
f 193/193/193 194/194/194 195/195/195
f 193/193/193 195/195/195 196/196/196
f 197/197/197 198/198/198 199/199/199
f 197/197/197 199/199/199 200/200/200
f 201/201/201 202/202/202 203/203/203
f 201/201/201 203/203/203 204/204/204
f 205/205/205 206/206/206 207/207/207
f 205/205/205 207/207/207 208/208/208
f 209/209/209 210/210/210 211/211/211
f 209/209/209 211/211/211 212/212/212
f 213/213/213 214/214/214 215/215/215
f 213/213/213 215/215/215 216/216/216
f 217/217/217 218/218/218 219/219/219
f 217/217/217 219/219/219 220/220/220
f 221/221/221 222/222/222 223/223/223
f 221/221/221 223/223/223 224/224/224
f 225/225/225 226/226/226 227/227/227
f 225/225/225 227/227/227 228/228/228
f 229/229/229 230/230/230 231/231/231
f 229/229/229 231/231/231 232/232/232
f 233/233/233 234/234/234 235/235/235
f 233/233/233 235/235/235 236/236/236
f 237/237/237 238/238/238 239/239/239
f 237/237/237 239/239/239 240/240/240
f 241/241/241 242/242/242 243/243/243
f 241/241/241 243/243/243 244/244/244
f 245/245/245 246/246/246 247/247/247
f 245/245/245 247/247/247 248/248/248
f 249/249/249 250/250/250 251/251/251
f 249/249/249 251/251/251 252/252/252
f 253/253/253 254/254/254 255/255/255
f 253/253/253 255/255/255 256/256/256
f 257/257/257 258/258/258 259/259/259
f 257/257/257 259/259/259 260/260/260
f 261/261/261 262/262/262 263/263/263
f 261/261/261 263/263/263 264/264/264
f 265/265/265 266/266/266 267/267/267
f 265/265/265 267/267/267 268/268/268
f 269/269/269 270/270/270 271/271/271
f 269/269/269 271/271/271 272/272/272
f 273/273/273 274/274/274 275/275/275
f 273/273/273 275/275/275 276/276/276
f 277/277/277 278/278/278 279/279/279
f 277/277/277 279/279/279 280/280/280
f 281/281/281 282/282/282 283/283/283
f 281/281/281 283/283/283 284/284/284
f 285/285/285 286/286/286 287/287/287
f 285/285/285 287/287/287 288/288/288
f 289/289/289 290/290/290 291/291/291
f 289/289/289 291/291/291 292/292/292
f 293/293/293 294/294/294 295/295/295
f 293/293/293 295/295/295 296/296/296
f 297/297/297 298/298/298 299/299/299
f 297/297/297 299/299/299 300/300/300
f 301/301/301 302/302/302 303/303/303
f 301/301/301 303/303/303 304/304/304
f 305/305/305 306/306/306 307/307/307
f 305/305/305 307/307/307 308/308/308
f 309/309/309 310/310/310 311/311/311
f 309/309/309 311/311/311 312/312/312
f 313/313/313 314/314/314 315/315/315
f 313/313/313 315/315/315 316/316/316
