v 0.673517 0.181679 -0.169072
v 0.673535 0.181476 -0.166559
v 0.675967 0.181228 -0.166124
v 0.675967 0.179948 -0.142583
v 0.679582 0.179646 -0.143125
v 0.676624 0.179956 -0.143947
v 0.675967 0.179948 -0.142583
v 0.678141 0.179642 -0.140396
v 0.679582 0.179646 -0.143125
v 0.680408 0.180194 -0.155711
v 0.680508 0.180051 -0.153003
v 0.682104 0.179907 -0.153026
v 0.675967 0.181228 -0.166124
v 0.679583 0.180886 -0.165641
v 0.678827 0.181101 -0.167463
v 0.679641 0.180088 -0.152147
v 0.678296 0.180318 -0.154334
v 0.677535 0.180373 -0.154046
v 0.676624 0.179956 -0.143947
v 0.679582 0.179646 -0.143125
v 0.676678 0.180388 -0.152757
v 0.673512 0.178368 -0.100066
v 0.673512 0.178264 -0.097645
v 0.677027 0.177953 -0.100066
v 0.679641 0.180307 -0.156572
v 0.676661 0.180557 -0.15614
v 0.677466 0.180412 -0.154702
v 0.676678 0.180388 -0.152757
v 0.679641 0.180088 -0.152147
v 0.677535 0.180373 -0.154046
v 0.682104 0.180038 -0.155681
v 0.680408 0.180194 -0.155711
v 0.682104 0.179907 -0.153026
v 0.675967 0.179948 -0.142583
v 0.673517 0.180066 -0.139635
v 0.678141 0.179642 -0.140396
v 0.680408 0.180194 -0.155711
v 0.678296 0.180318 -0.154334
v 0.680508 0.180051 -0.153003
v 0.679641 0.180088 -0.152147
v 0.680508 0.180051 -0.153003
v 0.678296 0.180318 -0.154334
v 0.677027 0.177953 -0.100066
v 0.673512 0.178264 -0.097645
v 0.679995 0.177498 -0.097645
v 0.679583 0.180886 -0.165641
v 0.67662 0.181072 -0.164776
v 0.676661 0.180557 -0.15614
v 0.673512 0.179411 -0.124359
v 0.677027 0.178995 -0.124359
v 0.673512 0.179518 -0.126858
v 0.677027 0.178995 -0.124359
v 0.679995 0.178802 -0.126858
v 0.673512 0.179518 -0.126858
v 0.673517 0.180066 -0.139635
v 0.675967 0.179948 -0.142583
v 0.673526 0.180173 -0.142148
v 0.675967 0.181228 -0.166124
v 0.677463 0.18131 -0.168607
v 0.673517 0.181679 -0.169072
v 0.676678 0.180388 -0.152757
v 0.679582 0.179646 -0.143125
v 0.679641 0.180088 -0.152147
v 0.675967 0.181228 -0.166124
v 0.678827 0.181101 -0.167463
v 0.677463 0.18131 -0.168607
v 0.679995 0.178802 -0.126858
v 0.677027 0.178995 -0.124359
v 0.677027 0.177953 -0.100066
v 0.679995 0.177498 -0.097645
v 0.675967 0.181228 -0.166124
v 0.67662 0.181072 -0.164776
v 0.679583 0.180886 -0.165641
v 0.680408 0.180194 -0.155711
v 0.679641 0.180307 -0.156572
v 0.677466 0.180412 -0.154702
v 0.678296 0.180318 -0.154334
v 0.679641 0.180307 -0.156572
v 0.679583 0.180886 -0.165641
v 0.676661 0.180557 -0.15614
v 0.678355 0.180314 -0.154353
v 0.678296 0.180318 -0.154334
vn 0.087 0.993 0.0795
vn 0.087 0.993 0.0795
vn 0.087 0.993 0.0795
vn 0.0906 0.9947 0.0493
vn 0.0906 0.9947 0.0493
vn 0.0906 0.9947 0.0493
vn 0.0906 0.9947 0.0493
vn 0.0906 0.9947 0.0493
vn 0.0906 0.9947 0.0493
vn 0.0906 0.9947 0.0493
vn 0.0906 0.9947 0.0493
vn 0.0906 0.9947 0.0493
vn 0.0829 0.9931 0.0829
vn 0.0829 0.9931 0.0829
vn 0.0829 0.9931 0.0829
vn 0.0906 0.9947 0.0493
vn 0.0906 0.9947 0.0493
vn 0.0906 0.9947 0.0493
vn 0.0906 0.9947 0.0493
vn 0.0906 0.9947 0.0493
vn 0.0906 0.9947 0.0493
vn 0.1172 0.9922 0.0426
vn 0.1172 0.9922 0.0426
vn 0.1172 0.9922 0.0426
vn 0.0906 0.9947 0.0493
vn 0.0906 0.9947 0.0493
vn 0.0906 0.9947 0.0493
vn 0.0906 0.9947 0.0493
vn 0.0906 0.9947 0.0493
vn 0.0906 0.9947 0.0493
vn 0.0906 0.9947 0.0493
vn 0.0906 0.9947 0.0493
vn 0.0906 0.9947 0.0493
vn 0.098 0.9943 0.0419
vn 0.098 0.9943 0.0419
vn 0.098 0.9943 0.0419
vn 0.0906 0.9947 0.0493
vn 0.0906 0.9947 0.0493
vn 0.0906 0.9947 0.0493
vn 0.0906 0.9947 0.0493
vn 0.0906 0.9947 0.0493
vn 0.0906 0.9947 0.0493
vn 0.1172 0.9922 0.0426
vn 0.1172 0.9922 0.0426
vn 0.1172 0.9922 0.0426
vn 0.0796 0.9951 0.0589
vn 0.0796 0.9951 0.0589
vn 0.0796 0.9951 0.0589
vn 0.1172 0.9922 0.0426
vn 0.1172 0.9922 0.0426
vn 0.1172 0.9922 0.0426
vn 0.1096 0.9925 0.0535
vn 0.1096 0.9925 0.0535
vn 0.1096 0.9925 0.0535
vn 0.0989 0.9942 0.0426
vn 0.0989 0.9942 0.0426
vn 0.0989 0.9942 0.0426
vn 0.0829 0.9931 0.0829
vn 0.0829 0.9931 0.0829
vn 0.0829 0.9931 0.0829
vn 0.0906 0.9947 0.0493
vn 0.0906 0.9947 0.0493
vn 0.0906 0.9947 0.0493
vn 0.0829 0.9931 0.0829
vn 0.0829 0.9931 0.0829
vn 0.0829 0.9931 0.0829
vn 0.1089 0.9931 0.0436
vn 0.1089 0.9931 0.0436
vn 0.1089 0.9931 0.0436
vn 0.1089 0.9931 0.0436
vn 0.084 0.9937 0.0746
vn 0.084 0.9937 0.0746
vn 0.084 0.9937 0.0746
vn 0.0906 0.9947 0.0493
vn 0.0906 0.9947 0.0493
vn 0.0906 0.9947 0.0493
vn 0.0906 0.9947 0.0493
vn 0.0925 0.9937 0.0629
vn 0.0925 0.9937 0.0629
vn 0.0925 0.9937 0.0629
vn 0 0 0
vn 0 0 0
vt 0.851817 0.428979
vt 0.851827 0.430291
vt 0.853097 0.430518
vt 0.853097 0.442816
vt 0.854985 0.442532
vt 0.85344 0.442103
vt 0.853097 0.442816
vt 0.854233 0.443958
vt 0.854985 0.442532
vt 0.855417 0.435958
vt 0.855469 0.437372
vt 0.856303 0.437361
vt 0.853097 0.430518
vt 0.854986 0.430771
vt 0.854591 0.429819
vt 0.855016 0.43782
vt 0.854314 0.436677
vt 0.853916 0.436828
vt 0.85344 0.442103
vt 0.854985 0.442532
vt 0.853468 0.437501
vt 0.851815 0.465024
vt 0.851815 0.466289
vt 0.853651 0.465024
vt 0.855017 0.435508
vt 0.85346 0.435734
vt 0.85388 0.436485
vt 0.853468 0.437501
vt 0.855016 0.43782
vt 0.853916 0.436828
vt 0.856303 0.435973
vt 0.855417 0.435958
vt 0.856303 0.437361
vt 0.853097 0.442816
vt 0.851818 0.444356
vt 0.854233 0.443958
vt 0.855417 0.435958
vt 0.854314 0.436677
vt 0.855469 0.437372
vt 0.855016 0.43782
vt 0.855469 0.437372
vt 0.854314 0.436677
vt 0.853651 0.465024
vt 0.851815 0.466289
vt 0.855201 0.466289
vt 0.854986 0.430771
vt 0.853438 0.431223
vt 0.85346 0.435734
vt 0.851815 0.452335
vt 0.853651 0.452335
vt 0.851815 0.451029
vt 0.853651 0.452335
vt 0.855201 0.451029
vt 0.851815 0.451029
vt 0.851818 0.444356
vt 0.853097 0.442816
vt 0.851822 0.443043
vt 0.853097 0.430518
vt 0.853879 0.429221
vt 0.851817 0.428979
vt 0.853468 0.437501
vt 0.854985 0.442532
vt 0.855016 0.43782
vt 0.853097 0.430518
vt 0.854591 0.429819
vt 0.853879 0.429221
vt 0.855201 0.451029
vt 0.853651 0.452335
vt 0.853651 0.465024
vt 0.855201 0.466289
vt 0.853097 0.430518
vt 0.853438 0.431223
vt 0.854986 0.430771
vt 0.855417 0.435958
vt 0.855017 0.435508
vt 0.85388 0.436485
vt 0.854314 0.436677
vt 0.855017 0.435508
vt 0.854986 0.430771
vt 0.85346 0.435734
vt 0 1
vt 0 1
s off
f 1/1/1 2/2/2 3/3/3
f 4/4/4 5/5/5 6/6/6
f 7/7/7 8/8/8 9/9/9
f 10/10/10 11/11/11 12/12/12
f 13/13/13 14/14/14 15/15/15
f 16/16/16 17/17/17 18/18/18
f 19/19/19 20/20/20 21/21/21
f 22/22/22 23/23/23 24/24/24
f 25/25/25 26/26/26 27/27/27
f 28/28/28 29/29/29 30/30/30
f 31/31/31 32/32/32 33/33/33
f 34/34/34 35/35/35 36/36/36
f 37/37/37 38/38/38 39/39/39
f 40/40/40 41/41/41 42/42/42
f 43/43/43 44/44/44 45/45/45
f 46/46/46 47/47/47 48/48/48
f 49/49/49 50/50/50 51/51/51
f 52/52/52 53/53/53 54/54/54
f 55/55/55 56/56/56 57/57/57
f 58/58/58 59/59/59 60/60/60
f 61/61/61 62/62/62 63/63/63
f 64/64/64 65/65/65 66/66/66
f 67/67/67 68/68/68 69/69/69
f 67/67/67 69/69/69 70/70/70
f 71/71/71 72/72/72 73/73/73
f 74/74/74 75/75/75 76/76/76
f 74/74/74 76/76/76 77/77/77
f 78/78/78 79/79/79 80/80/80
