v 0.54866 0.181213 -0.166283
v 0.548943 0.181431 -0.169171
v 0.546605 0.181554 -0.16831
v 0.546894 0.178247 -0.100066
v 0.550409 0.177728 -0.097645
v 0.550409 0.177832 -0.100066
v 0.544038 0.180863 -0.153159
v 0.544905 0.180741 -0.152303
v 0.54625 0.180727 -0.15449
v 0.54866 0.181213 -0.166283
v 0.546605 0.181554 -0.16831
v 0.545017 0.181533 -0.166234
v 0.54866 0.181213 -0.166283
v 0.545017 0.181533 -0.166234
v 0.547997 0.18117 -0.164902
v 0.548943 0.181431 -0.169171
v 0.54866 0.181213 -0.166283
v 0.551019 0.181053 -0.166716
v 0.551028 0.179564 -0.139791
v 0.551023 0.179689 -0.142303
v 0.54866 0.179925 -0.142736
v 0.547997 0.18117 -0.164902
v 0.545017 0.181533 -0.166234
v 0.544879 0.180947 -0.156409
v 0.542442 0.181053 -0.153182
v 0.544038 0.180863 -0.153159
v 0.542442 0.18116 -0.155681
v 0.544038 0.180863 -0.153159
v 0.543869 0.181004 -0.155691
v 0.542442 0.18116 -0.155681
v 0.544879 0.180947 -0.156409
v 0.543869 0.181004 -0.155691
v 0.54625 0.180727 -0.15449
v 0.547608 0.180651 -0.155439
v 0.544879 0.180947 -0.156409
v 0.546576 0.180705 -0.154634
v 0.547922 0.180503 -0.153045
v 0.544905 0.180741 -0.152303
v 0.544964 0.18033 -0.143281
v 0.548943 0.181431 -0.169171
v 0.551019 0.181053 -0.166716
v 0.551034 0.181258 -0.169194
v 0.543926 0.178494 -0.097645
v 0.546894 0.178247 -0.100066
v 0.543926 0.179748 -0.126858
v 0.544879 0.180947 -0.156409
v 0.547608 0.180651 -0.155439
v 0.547983 0.180693 -0.156984
v 0.54625 0.180727 -0.15449
v 0.543869 0.181004 -0.155691
v 0.544038 0.180863 -0.153159
v 0.544905 0.180741 -0.152303
v 0.547922 0.180503 -0.153045
v 0.546842 0.180663 -0.154277
v 0.54866 0.179925 -0.142736
v 0.544964 0.18033 -0.143281
v 0.546405 0.180043 -0.140552
v 0.546894 0.17929 -0.124359
v 0.550409 0.178982 -0.126858
v 0.543926 0.179748 -0.126858
v 0.547983 0.180693 -0.156984
v 0.547997 0.18117 -0.164902
v 0.544879 0.180947 -0.156409
v 0.54866 0.179925 -0.142736
v 0.546405 0.180043 -0.140552
v 0.551028 0.179564 -0.139791
v 0.54866 0.179925 -0.142736
v 0.548002 0.180053 -0.144096
v 0.544964 0.18033 -0.143281
v 0.548002 0.180053 -0.144096
v 0.547922 0.180503 -0.153045
v 0.544964 0.18033 -0.143281
v 0.546894 0.178247 -0.100066
v 0.543926 0.178494 -0.097645
v 0.550409 0.177728 -0.097645
v 0.546894 0.17929 -0.124359
v 0.550409 0.178874 -0.124359
v 0.550409 0.178982 -0.126858
v 0.54625 0.180727 -0.15449
v 0.546576 0.180705 -0.154634
v 0.544879 0.180947 -0.156409
v 0.546894 0.178247 -0.100066
v 0.546894 0.17929 -0.124359
v 0.543926 0.179748 -0.126858
v 0.544905 0.180741 -0.152303
v 0.546842 0.180663 -0.154277
v 0.54625 0.180727 -0.15449
v 0.54625 0.180727 -0.15449
v 0.546191 0.180734 -0.15451
vn 0.0828 0.9931 0.0829
vn 0.0828 0.9931 0.0829
vn 0.0828 0.9931 0.0829
vn 0.1172 0.9922 0.0426
vn 0.1172 0.9922 0.0426
vn 0.1172 0.9922 0.0426
vn 0.0909 0.9946 0.0495
vn 0.0909 0.9946 0.0495
vn 0.0909 0.9946 0.0495
vn 0.0883 0.9931 0.0774
vn 0.0883 0.9931 0.0774
vn 0.0883 0.9931 0.0774
vn 0.0883 0.9934 0.0737
vn 0.0883 0.9934 0.0737
vn 0.0883 0.9934 0.0737
vn 0.0829 0.9931 0.0829
vn 0.0829 0.9931 0.0829
vn 0.0829 0.9931 0.0829
vn 0.0906 0.9947 0.0493
vn 0.0906 0.9947 0.0493
vn 0.0906 0.9947 0.0493
vn 0.0942 0.9937 0.0606
vn 0.0942 0.9937 0.0606
vn 0.0942 0.9937 0.0606
vn 0.1172 0.9922 0.0426
vn 0.1172 0.9922 0.0426
vn 0.1172 0.9922 0.0426
vn 0.1092 0.9929 0.0478
vn 0.1092 0.9929 0.0478
vn 0.1092 0.9929 0.0478
vn 0.0906 0.9947 0.0493
vn 0.0906 0.9947 0.0493
vn 0.0906 0.9947 0.0493
vn 0.0906 0.9947 0.0493
vn 0.0906 0.9947 0.0493
vn 0.0906 0.9947 0.0493
vn 0.0895 0.995 0.0448
vn 0.0895 0.995 0.0448
vn 0.0895 0.995 0.0448
vn 0.0829 0.9931 0.0829
vn 0.0829 0.9931 0.0829
vn 0.0829 0.9931 0.0829
vn 0.1172 0.9922 0.0426
vn 0.1172 0.9922 0.0426
vn 0.1172 0.9922 0.0426
vn 0.0906 0.9947 0.0493
vn 0.0906 0.9947 0.0493
vn 0.0906 0.9947 0.0493
vn 0.0907 0.9947 0.0491
vn 0.0907 0.9947 0.0491
vn 0.0907 0.9947 0.0491
vn 0.0906 0.9947 0.0493
vn 0.0906 0.9947 0.0493
vn 0.0906 0.9947 0.0493
vn 0.1012 0.9935 0.0512
vn 0.1012 0.9935 0.0512
vn 0.1012 0.9935 0.0512
vn 0.1172 0.9922 0.0426
vn 0.1172 0.9922 0.0426
vn 0.1172 0.9922 0.0426
vn 0.0925 0.9939 0.06
vn 0.0925 0.9939 0.06
vn 0.0925 0.9939 0.06
vn 0.0955 0.9944 0.0453
vn 0.0955 0.9944 0.0453
vn 0.0955 0.9944 0.0453
vn 0.1023 0.9938 0.0436
vn 0.1023 0.9938 0.0436
vn 0.1023 0.9938 0.0436
vn 0.1038 0.9934 0.0491
vn 0.1038 0.9934 0.0491
vn 0.1038 0.9934 0.0491
vn 0.1172 0.9922 0.0426
vn 0.1172 0.9922 0.0426
vn 0.1172 0.9922 0.0426
vn 0.1172 0.9922 0.0426
vn 0.1172 0.9922 0.0426
vn 0.1172 0.9922 0.0426
vn 0.0906 0.9947 0.0493
vn 0.0906 0.9947 0.0493
vn 0.0906 0.9947 0.0493
vn 0.1172 0.9922 0.0426
vn 0.1172 0.9922 0.0426
vn 0.1172 0.9922 0.0426
vn 0.0906 0.9947 0.0493
vn 0.0906 0.9947 0.0493
vn 0.0906 0.9947 0.0493
vn 0 0 0
vn 0 0 0
vt 0.786597 0.430435
vt 0.786745 0.428927
vt 0.785524 0.429376
vt 0.785675 0.465024
vt 0.787511 0.466289
vt 0.787511 0.465024
vt 0.784183 0.437291
vt 0.784636 0.437738
vt 0.785338 0.436596
vt 0.786597 0.430435
vt 0.785524 0.429376
vt 0.784694 0.430461
vt 0.786597 0.430435
vt 0.784694 0.430461
vt 0.786251 0.431157
vt 0.786745 0.428927
vt 0.786597 0.430435
vt 0.787829 0.430209
vt 0.787834 0.444274
vt 0.787832 0.442962
vt 0.786597 0.442735
vt 0.786251 0.431157
vt 0.784694 0.430461
vt 0.784622 0.435593
vt 0.783349 0.437279
vt 0.784183 0.437291
vt 0.783349 0.435973
vt 0.784183 0.437291
vt 0.784095 0.435968
vt 0.783349 0.435973
vt 0.784622 0.435593
vt 0.784095 0.435968
vt 0.785338 0.436596
vt 0.786048 0.4361
vt 0.784622 0.435593
vt 0.785509 0.436521
vt 0.786212 0.437351
vt 0.784636 0.437738
vt 0.784667 0.442451
vt 0.786745 0.428927
vt 0.787829 0.430209
vt 0.787838 0.428915
vt 0.784125 0.466289
vt 0.785675 0.465024
vt 0.784125 0.451029
vt 0.784622 0.435593
vt 0.786048 0.4361
vt 0.786244 0.435293
vt 0.785338 0.436596
vt 0.784095 0.435968
vt 0.784183 0.437291
vt 0.784636 0.437738
vt 0.786212 0.437351
vt 0.785648 0.436707
vt 0.786597 0.442735
vt 0.784667 0.442451
vt 0.785419 0.443877
vt 0.785675 0.452335
vt 0.787511 0.451029
vt 0.784125 0.451029
vt 0.786244 0.435293
vt 0.786251 0.431157
vt 0.784622 0.435593
vt 0.786597 0.442735
vt 0.785419 0.443877
vt 0.787834 0.444274
vt 0.786597 0.442735
vt 0.786254 0.442025
vt 0.784667 0.442451
vt 0.786254 0.442025
vt 0.786212 0.437351
vt 0.784667 0.442451
vt 0.785675 0.465024
vt 0.784125 0.466289
vt 0.787511 0.466289
vt 0.785675 0.452335
vt 0.787511 0.452335
vt 0.787511 0.451029
vt 0.785338 0.436596
vt 0.785509 0.436521
vt 0.784622 0.435593
vt 0.785675 0.465024
vt 0.785675 0.452335
vt 0.784125 0.451029
vt 0.784636 0.437738
vt 0.785648 0.436707
vt 0.785338 0.436596
vt 0 1
vt 0 1
s off
f 1/1/1 2/2/2 3/3/3
f 4/4/4 5/5/5 6/6/6
f 7/7/7 8/8/8 9/9/9
f 10/10/10 11/11/11 12/12/12
f 13/13/13 14/14/14 15/15/15
f 16/16/16 17/17/17 18/18/18
f 19/19/19 20/20/20 21/21/21
f 22/22/22 23/23/23 24/24/24
f 25/25/25 26/26/26 27/27/27
f 28/28/28 29/29/29 30/30/30
f 31/31/31 32/32/32 33/33/33
f 34/34/34 35/35/35 36/36/36
f 37/37/37 38/38/38 39/39/39
f 40/40/40 41/41/41 42/42/42
f 43/43/43 44/44/44 45/45/45
f 46/46/46 47/47/47 48/48/48
f 49/49/49 50/50/50 51/51/51
f 52/52/52 53/53/53 54/54/54
f 55/55/55 56/56/56 57/57/57
f 58/58/58 59/59/59 60/60/60
f 61/61/61 62/62/62 63/63/63
f 64/64/64 65/65/65 66/66/66
f 67/67/67 68/68/68 69/69/69
f 70/70/70 71/71/71 72/72/72
f 73/73/73 74/74/74 75/75/75
f 76/76/76 77/77/77 78/78/78
f 79/79/79 80/80/80 81/81/81
f 82/82/82 83/83/83 84/84/84
f 85/85/85 86/86/86 87/87/87
