v 0.807611 0.175551 -0.078809
v 0.796655 0.129003 -0.064663
v 0.829089 0.129003 -0.064663
v 0.834527 0.173817 -0.078281
v 0.807611 0.175551 -0.078809
v 0.786885 0.177661 -0.07945
v 0.779674 0.129003 -0.064663
v 0.796655 0.129003 -0.064663
v 0.834527 0.173817 -0.078281
v 0.829089 0.129003 -0.064663
v 0.861524 0.129003 -0.064663
v 0.861524 0.173333 -0.078134
v 0.861524 0.173333 -0.078134
v 0.861524 0.129003 -0.064663
v 0.893959 0.129003 -0.064663
v 0.888521 0.173817 -0.078281
v 0.888521 0.173817 -0.078281
v 0.893959 0.129003 -0.064663
v 0.926394 0.129003 -0.064663
v 0.915438 0.175551 -0.078809
v 0.936164 0.177661 -0.07945
v 0.915438 0.175551 -0.078809
v 0.926394 0.129003 -0.064663
v 0.943374 0.129003 -0.064663
v 0.943374 0.129003 -0.064663
v 0.952215 0.129125 -0.068351
v 0.94209 0.17844 -0.085944
v 0.936164 0.177661 -0.07945
v 0.952215 0.129125 -0.068351
v 0.955877 0.129417 -0.077255
v 0.94209 0.17844 -0.085944
v 0.955877 0.132693 -0.17694
v 0.942095 0.181203 -0.17062
v 0.94209 0.17844 -0.085944
v 0.955877 0.129417 -0.077255
v 0.942095 0.181203 -0.17062
v 0.955877 0.132693 -0.17694
v 0.952211 0.132981 -0.185728
v 0.93606 0.181015 -0.176874
v 0.942095 0.181203 -0.17062
v 0.952211 0.132981 -0.185728
v 0.943362 0.133101 -0.189368
v 0.915393 0.179703 -0.177216
v 0.93606 0.181015 -0.176874
v 0.943362 0.133101 -0.189368
v 0.926394 0.133101 -0.189368
v 0.915393 0.179703 -0.177216
v 0.926394 0.133101 -0.189368
v 0.893959 0.133101 -0.189368
v 0.888478 0.178623 -0.177498
v 0.888478 0.178623 -0.177498
v 0.893959 0.133101 -0.189368
v 0.861524 0.133101 -0.189368
v 0.861524 0.178322 -0.177576
v 0.861524 0.178322 -0.177576
v 0.861524 0.133101 -0.189368
v 0.829089 0.133101 -0.189368
v 0.834571 0.178623 -0.177498
v 0.834571 0.178623 -0.177498
v 0.829089 0.133101 -0.189368
v 0.796655 0.133101 -0.189368
v 0.807655 0.179703 -0.177216
v 0.786988 0.181015 -0.176874
v 0.807655 0.179703 -0.177216
v 0.796655 0.133101 -0.189368
v 0.779687 0.133101 -0.189368
v 0.779687 0.133101 -0.189368
v 0.770837 0.132981 -0.185728
v 0.780953 0.181203 -0.17062
v 0.786988 0.181015 -0.176874
v 0.784432 0.183587 -0.16926
v 0.78772 0.183576 -0.173398
v 0.786988 0.181015 -0.176874
v 0.780953 0.181203 -0.17062
v 0.78772 0.183576 -0.173398
v 0.808279 0.182168 -0.173743
v 0.807655 0.179703 -0.177216
v 0.786988 0.181015 -0.176874
v 0.784432 0.183587 -0.16926
v 0.808259 0.181229 -0.160393
v 0.808279 0.182168 -0.173743
v 0.78772 0.183576 -0.173398
v 0.808259 0.181229 -0.160393
v 0.784432 0.183587 -0.16926
v 0.784428 0.18083 -0.087377
v 0.808219 0.178455 -0.095781
v 0.780953 0.181203 -0.17062
v 0.780959 0.17844 -0.085944
v 0.784428 0.18083 -0.087377
v 0.784432 0.183587 -0.16926
v 0.787674 0.180389 -0.083036
v 0.784428 0.18083 -0.087377
v 0.780959 0.17844 -0.085944
v 0.786885 0.177661 -0.07945
v 0.784428 0.18083 -0.087377
v 0.787674 0.180389 -0.083036
v 0.808232 0.178245 -0.082401
v 0.808219 0.178455 -0.095781
v 0.808259 0.181229 -0.160393
v 0.808219 0.178455 -0.095781
v 0.834841 0.176561 -0.095403
v 0.834872 0.179788 -0.16056
v 0.834849 0.176498 -0.081879
v 0.834841 0.176561 -0.095403
v 0.808219 0.178455 -0.095781
v 0.808232 0.178245 -0.082401
v 0.834849 0.176498 -0.081879
v 0.808232 0.178245 -0.082401
v 0.807611 0.175551 -0.078809
v 0.834527 0.173817 -0.078281
v 0.808232 0.178245 -0.082401
v 0.787674 0.180389 -0.083036
v 0.786885 0.177661 -0.07945
v 0.807611 0.175551 -0.078809
v 0.861524 0.176009 -0.081734
v 0.834849 0.176498 -0.081879
v 0.834527 0.173817 -0.078281
v 0.861524 0.173333 -0.078134
v 0.861524 0.176009 -0.081734
v 0.861524 0.176023 -0.095301
v 0.834841 0.176561 -0.095403
v 0.834849 0.176498 -0.081879
v 0.888199 0.176498 -0.081879
v 0.888208 0.176561 -0.095403
v 0.861524 0.176023 -0.095301
v 0.861524 0.176009 -0.081734
v 0.888199 0.176498 -0.081879
v 0.861524 0.176009 -0.081734
v 0.861524 0.173333 -0.078134
v 0.888521 0.173817 -0.078281
v 0.861524 0.179369 -0.160605
v 0.861524 0.176023 -0.095301
v 0.888208 0.176561 -0.095403
v 0.888176 0.179788 -0.16056
v 0.834872 0.179788 -0.16056
v 0.834841 0.176561 -0.095403
v 0.861524 0.176023 -0.095301
v 0.861524 0.179369 -0.160605
v 0.888176 0.179788 -0.16056
v 0.888159 0.18104 -0.174026
v 0.861524 0.180723 -0.174105
v 0.861524 0.179369 -0.160605
v 0.861524 0.179369 -0.160605
v 0.861524 0.180723 -0.174105
v 0.834889 0.18104 -0.174026
v 0.834872 0.179788 -0.16056
v 0.834889 0.18104 -0.174026
v 0.861524 0.180723 -0.174105
v 0.861524 0.178322 -0.177576
v 0.834571 0.178623 -0.177498
v 0.861524 0.180723 -0.174105
v 0.888159 0.18104 -0.174026
v 0.888478 0.178623 -0.177498
v 0.861524 0.178322 -0.177576
v 0.808279 0.182168 -0.173743
v 0.834889 0.18104 -0.174026
v 0.834571 0.178623 -0.177498
v 0.807655 0.179703 -0.177216
v 0.834872 0.179788 -0.16056
v 0.834889 0.18104 -0.174026
v 0.808279 0.182168 -0.173743
v 0.808259 0.181229 -0.160393
v 0.888159 0.18104 -0.174026
v 0.914769 0.182168 -0.173743
v 0.915393 0.179703 -0.177216
v 0.888478 0.178623 -0.177498
v 0.914789 0.181229 -0.160393
v 0.914769 0.182168 -0.173743
v 0.888159 0.18104 -0.174026
v 0.888176 0.179788 -0.16056
v 0.914769 0.182168 -0.173743
v 0.935328 0.183576 -0.173398
v 0.93606 0.181015 -0.176874
v 0.915393 0.179703 -0.177216
v 0.914789 0.181229 -0.160393
v 0.938616 0.183587 -0.16926
v 0.935328 0.183576 -0.173398
v 0.914769 0.182168 -0.173743
v 0.888176 0.179788 -0.16056
v 0.888208 0.176561 -0.095403
v 0.914829 0.178455 -0.095781
v 0.914789 0.181229 -0.160393
v 0.938616 0.183587 -0.16926
v 0.914789 0.181229 -0.160393
v 0.914829 0.178455 -0.095781
v 0.93862 0.18083 -0.087377
v 0.93862 0.18083 -0.087377
v 0.94209 0.17844 -0.085944
v 0.942095 0.181203 -0.17062
v 0.938616 0.183587 -0.16926
v 0.935328 0.183576 -0.173398
v 0.938616 0.183587 -0.16926
v 0.942095 0.181203 -0.17062
v 0.93606 0.181015 -0.176874
v 0.93862 0.18083 -0.087377
v 0.935374 0.180389 -0.083036
v 0.936164 0.177661 -0.07945
v 0.94209 0.17844 -0.085944
v 0.914816 0.178245 -0.082401
v 0.935374 0.180389 -0.083036
v 0.93862 0.18083 -0.087377
v 0.914829 0.178455 -0.095781
v 0.935374 0.180389 -0.083036
v 0.914816 0.178245 -0.082401
v 0.915438 0.175551 -0.078809
v 0.936164 0.177661 -0.07945
v 0.914816 0.178245 -0.082401
v 0.888199 0.176498 -0.081879
v 0.888521 0.173817 -0.078281
v 0.915438 0.175551 -0.078809
v 0.914816 0.178245 -0.082401
v 0.914829 0.178455 -0.095781
v 0.888208 0.176561 -0.095403
v 0.888199 0.176498 -0.081879
v 0.770833 0.129125 -0.068351
v 0.779674 0.129003 -0.064663
v 0.786885 0.177661 -0.07945
v 0.767171 0.129417 -0.077255
v 0.770833 0.129125 -0.068351
v 0.786885 0.177661 -0.07945
v 0.780959 0.17844 -0.085944
v 0.780953 0.181203 -0.17062
v 0.767171 0.132693 -0.17694
v 0.767171 0.129417 -0.077255
v 0.780959 0.17844 -0.085944
v 0.770837 0.132981 -0.185728
v 0.767171 0.132693 -0.17694
v 0.780953 0.181203 -0.17062
v 0.796655 0.117741 -0.065033
v 0.796655 0.129003 -0.064663
v 0.779674 0.129003 -0.064663
v 0.779666 0.117741 -0.065033
v 0.796655 0.129003 -0.064663
v 0.796655 0.117741 -0.065033
v 0.829089 0.117741 -0.065033
v 0.829089 0.129003 -0.064663
v 0.770831 0.117862 -0.068718
v 0.779666 0.117741 -0.065033
v 0.779674 0.129003 -0.064663
v 0.770833 0.129125 -0.068351
v 0.767171 0.118155 -0.077613
v 0.770831 0.117862 -0.068718
v 0.770833 0.129125 -0.068351
v 0.767171 0.129417 -0.077255
v 0.767171 0.121431 -0.177316
v 0.767171 0.118155 -0.077613
v 0.767171 0.129417 -0.077255
v 0.767171 0.132693 -0.17694
v 0.770834 0.121719 -0.1861
v 0.767171 0.121431 -0.177316
v 0.767171 0.132693 -0.17694
v 0.770837 0.132981 -0.185728
v 0.779678 0.121839 -0.189738
v 0.770834 0.121719 -0.1861
v 0.770837 0.132981 -0.185728
v 0.779687 0.133101 -0.189368
v 0.779678 0.121839 -0.189738
v 0.779687 0.133101 -0.189368
v 0.796655 0.133101 -0.189368
v 0.796655 0.121839 -0.189738
v 0.829089 0.133101 -0.189368
v 0.829089 0.121839 -0.189738
v 0.796655 0.121839 -0.189738
v 0.796655 0.133101 -0.189368
v 0.861524 0.133101 -0.189368
v 0.861524 0.121839 -0.189738
v 0.829089 0.121839 -0.189738
v 0.829089 0.133101 -0.189368
v 0.893959 0.133101 -0.189368
v 0.893959 0.121839 -0.189738
v 0.861524 0.121839 -0.189738
v 0.861524 0.133101 -0.189368
v 0.926394 0.133101 -0.189368
v 0.926394 0.121839 -0.189738
v 0.893959 0.121839 -0.189738
v 0.893959 0.133101 -0.189368
v 0.926394 0.121839 -0.189738
v 0.926394 0.133101 -0.189368
v 0.943362 0.133101 -0.189368
v 0.94337 0.121839 -0.189738
v 0.943362 0.133101 -0.189368
v 0.952211 0.132981 -0.185728
v 0.952214 0.121719 -0.186099
v 0.94337 0.121839 -0.189738
v 0.952211 0.132981 -0.185728
v 0.955877 0.132693 -0.17694
v 0.955877 0.121431 -0.177316
v 0.952214 0.121719 -0.186099
v 0.955877 0.118155 -0.077613
v 0.955877 0.121431 -0.177316
v 0.955877 0.132693 -0.17694
v 0.955877 0.129417 -0.077255
v 0.952217 0.117862 -0.068718
v 0.955877 0.118155 -0.077613
v 0.955877 0.129417 -0.077255
v 0.952215 0.129125 -0.068351
v 0.943382 0.117741 -0.065033
v 0.952217 0.117862 -0.068718
v 0.952215 0.129125 -0.068351
v 0.943374 0.129003 -0.064663
v 0.943382 0.117741 -0.065033
v 0.943374 0.129003 -0.064663
v 0.926394 0.129003 -0.064663
v 0.926394 0.117741 -0.065033
v 0.893959 0.129003 -0.064663
v 0.893959 0.117741 -0.065033
v 0.926394 0.117741 -0.065033
v 0.926394 0.129003 -0.064663
v 0.861524 0.129003 -0.064663
v 0.861524 0.117741 -0.065033
v 0.893959 0.117741 -0.065033
v 0.893959 0.129003 -0.064663
v 0.829089 0.129003 -0.064663
v 0.829089 0.117741 -0.065033
v 0.861524 0.117741 -0.065033
v 0.861524 0.129003 -0.064663
vn -0 0.2909 0.9568
vn -0 0.2908 0.9568
vn -0 0.2908 0.9568
vn -0.0001 0.2908 0.9568
vn -0 0.2909 0.9568
vn -0 0.2908 0.9568
vn -0.0001 0.2908 0.9568
vn -0 0.2908 0.9568
vn -0.0001 0.2908 0.9568
vn -0 0.2908 0.9568
vn -0 0.2908 0.9568
vn -0 0.2909 0.9568
vn -0 0.2909 0.9568
vn -0 0.2908 0.9568
vn -0 0.2908 0.9568
vn -0 0.2908 0.9568
vn -0 0.2908 0.9568
vn -0 0.2908 0.9568
vn -0 0.2908 0.9568
vn -0 0.2909 0.9568
vn -0 0.2908 0.9568
vn -0 0.2909 0.9568
vn -0 0.2908 0.9568
vn 0.0001 0.2908 0.9568
vn 0.0001 0.2908 0.9568
vn 0.6674 0.3385 0.6634
vn 0.9622 0.2722 0.009
vn -0 0.2908 0.9568
vn 0.6674 0.3385 0.6634
vn 0.9622 0.2722 0.0091
vn 0.9622 0.2722 0.009
vn 0.9622 0.2722 0.0089
vn 0.9622 0.2722 0.0089
vn 0.9622 0.2722 0.009
vn 0.9622 0.2722 0.0091
vn 0.9622 0.2722 0.0089
vn 0.9622 0.2722 0.0089
vn 0.6762 0.3147 -0.6662
vn -0 0.2523 -0.9676
vn 0.9622 0.2722 0.0089
vn 0.6762 0.3147 -0.6662
vn 0.0001 0.2523 -0.9676
vn -0 0.2524 -0.9676
vn -0 0.2523 -0.9676
vn 0.0001 0.2523 -0.9676
vn -0 0.2523 -0.9676
vn -0 0.2524 -0.9676
vn -0 0.2523 -0.9676
vn -0 0.2523 -0.9676
vn -0 0.2524 -0.9676
vn -0 0.2524 -0.9676
vn -0 0.2523 -0.9676
vn -0 0.2523 -0.9676
vn -0.0001 0.2524 -0.9676
vn -0.0001 0.2524 -0.9676
vn -0 0.2523 -0.9676
vn -0 0.2523 -0.9676
vn -0 0.2524 -0.9676
vn -0 0.2524 -0.9676
vn -0 0.2523 -0.9676
vn -0 0.2523 -0.9676
vn -0 0.2524 -0.9676
vn -0 0.2523 -0.9676
vn -0 0.2524 -0.9676
vn -0 0.2523 -0.9676
vn -0.0001 0.2523 -0.9676
vn -0.0001 0.2523 -0.9676
vn -0.6762 0.3147 -0.6661
vn -0.9622 0.2722 0.0089
vn -0 0.2523 -0.9676
vn 0.0794 0.9955 0.0524
vn 0.0717 0.9952 0.0661
vn -0 0.2523 -0.9676
vn -0.9622 0.2722 0.0089
vn 0.0717 0.9952 0.0661
vn 0.0601 0.9957 0.0698
vn -0 0.2524 -0.9676
vn -0 0.2523 -0.9676
vn 0.0794 0.9955 0.0524
vn 0.0719 0.9958 0.0562
vn 0.0601 0.9957 0.0698
vn 0.0717 0.9952 0.0661
vn 0.0719 0.9958 0.0562
vn 0.0794 0.9955 0.0524
vn 0.099 0.9946 0.0303
vn 0.083 0.9961 0.029
vn -0.9622 0.2722 0.0089
vn -0.9622 0.2722 0.009
vn 0.099 0.9946 0.0303
vn 0.0794 0.9955 0.0524
vn 0.1023 0.9945 0.0209
vn 0.099 0.9946 0.0303
vn -0.9622 0.2722 0.009
vn -0 0.2908 0.9568
vn 0.099 0.9946 0.0303
vn 0.1023 0.9945 0.0209
vn 0.0858 0.9962 0.0176
vn 0.083 0.9961 0.029
vn 0.0719 0.9958 0.0562
vn 0.083 0.9961 0.029
vn 0.0419 0.9987 0.0273
vn 0.0357 0.997 0.0686
vn 0.0434 0.999 0.0104
vn 0.0419 0.9987 0.0273
vn 0.083 0.9961 0.029
vn 0.0858 0.9962 0.0176
vn 0.0434 0.999 0.0104
vn 0.0858 0.9962 0.0176
vn -0 0.2909 0.9568
vn -0.0001 0.2908 0.9568
vn 0.0858 0.9962 0.0176
vn 0.1023 0.9945 0.0209
vn -0 0.2908 0.9568
vn -0 0.2909 0.9568
vn -0 1 0.0068
vn 0.0434 0.999 0.0104
vn -0.0001 0.2908 0.9568
vn -0 0.2909 0.9568
vn -0 1 0.0068
vn -0 0.9996 0.0265
vn 0.0419 0.9987 0.0273
vn 0.0434 0.999 0.0104
vn -0.0434 0.999 0.0104
vn -0.0419 0.9987 0.0273
vn -0 0.9996 0.0265
vn -0 1 0.0068
vn -0.0434 0.999 0.0104
vn -0 1 0.0068
vn -0 0.2909 0.9568
vn -0 0.2908 0.9568
vn -0 0.9973 0.0733
vn -0 0.9996 0.0265
vn -0.0419 0.9987 0.0273
vn -0.0357 0.997 0.0686
vn 0.0357 0.997 0.0686
vn 0.0419 0.9987 0.0273
vn -0 0.9996 0.0265
vn -0 0.9973 0.0733
vn -0.0357 0.997 0.0686
vn -0.0312 0.9959 0.0849
vn -0 0.9957 0.0922
vn -0 0.9973 0.0733
vn -0 0.9973 0.0733
vn -0 0.9957 0.0922
vn 0.0271 0.996 0.0849
vn 0.0357 0.997 0.0686
vn 0.0271 0.996 0.0849
vn -0 0.9957 0.0922
vn -0.0001 0.2524 -0.9676
vn -0 0.2524 -0.9676
vn -0 0.9957 0.0922
vn -0.0312 0.9959 0.0849
vn -0 0.2524 -0.9676
vn -0.0001 0.2524 -0.9676
vn 0.0601 0.9957 0.0698
vn 0.0271 0.996 0.0849
vn -0 0.2524 -0.9676
vn -0 0.2524 -0.9676
vn 0.0357 0.997 0.0686
vn 0.0271 0.996 0.0849
vn 0.0601 0.9957 0.0698
vn 0.0719 0.9958 0.0562
vn -0.0312 0.9959 0.0849
vn -0.0601 0.9957 0.0698
vn -0 0.2524 -0.9676
vn -0 0.2524 -0.9676
vn -0.0719 0.9958 0.0562
vn -0.0601 0.9957 0.0698
vn -0.0312 0.9959 0.0849
vn -0.0357 0.997 0.0686
vn -0.0601 0.9957 0.0698
vn -0.0717 0.9952 0.0661
vn -0 0.2523 -0.9676
vn -0 0.2524 -0.9676
vn -0.0719 0.9958 0.0562
vn -0.0793 0.9955 0.0525
vn -0.0717 0.9952 0.0661
vn -0.0601 0.9957 0.0698
vn -0.0357 0.997 0.0686
vn -0.0419 0.9987 0.0273
vn -0.083 0.9961 0.029
vn -0.0719 0.9958 0.0562
vn -0.0793 0.9955 0.0525
vn -0.0719 0.9958 0.0562
vn -0.083 0.9961 0.029
vn -0.098 0.9948 0.0275
vn -0.098 0.9948 0.0275
vn 0.9622 0.2722 0.009
vn 0.9622 0.2722 0.0089
vn -0.0793 0.9955 0.0525
vn -0.0717 0.9952 0.0661
vn -0.0793 0.9955 0.0525
vn 0.9622 0.2722 0.0089
vn -0 0.2523 -0.9676
vn -0.098 0.9948 0.0275
vn -0.1023 0.9945 0.0209
vn -0 0.2908 0.9568
vn 0.9622 0.2722 0.009
vn -0.0858 0.9962 0.0176
vn -0.1023 0.9945 0.0209
vn -0.098 0.9948 0.0275
vn -0.083 0.9961 0.029
vn -0.1023 0.9945 0.0209
vn -0.0858 0.9962 0.0176
vn -0 0.2909 0.9568
vn -0 0.2908 0.9568
vn -0.0858 0.9962 0.0176
vn -0.0434 0.999 0.0104
vn -0 0.2908 0.9568
vn -0 0.2909 0.9568
vn -0.0858 0.9962 0.0176
vn -0.083 0.9961 0.029
vn -0.0419 0.9987 0.0273
vn -0.0434 0.999 0.0104
vn -0.6673 0.3385 0.6634
vn -0.0001 0.2908 0.9568
vn -0 0.2908 0.9568
vn -0.9622 0.2722 0.009
vn -0.6673 0.3385 0.6634
vn -0 0.2908 0.9568
vn -0.9622 0.2722 0.009
vn -0.9622 0.2722 0.0089
vn -0.9622 0.2722 0.0089
vn -0.9622 0.2722 0.009
vn -0.9622 0.2722 0.009
vn -0.6762 0.3147 -0.6661
vn -0.9622 0.2722 0.0089
vn -0.9622 0.2722 0.0089
vn -0 -0.0328 0.9995
vn -0 -0.0328 0.9995
vn -0.0001 -0.0329 0.9995
vn -0.0001 -0.0327 0.9995
vn -0 -0.0328 0.9995
vn -0 -0.0328 0.9995
vn -0 -0.0328 0.9995
vn -0 -0.0328 0.9995
vn -0.7095 -0.0228 0.7043
vn -0.0001 -0.0327 0.9995
vn -0.0001 -0.0329 0.9995
vn -0.709 -0.0228 0.7049
vn -1 -0.0001 0.0001
vn -0.7095 -0.0228 0.7043
vn -0.709 -0.0228 0.7049
vn -1 0.0002 0.0001
vn -1 0.0001 -0.0001
vn -1 -0.0001 0.0001
vn -1 0.0002 0.0001
vn -1 -0 -0.0001
vn -0.7047 0.0236 -0.7091
vn -1 0.0001 -0.0001
vn -1 -0 -0.0001
vn -0.7051 0.0235 -0.7087
vn -0.0001 0.0329 -0.9995
vn -0.7047 0.0236 -0.7091
vn -0.7051 0.0235 -0.7087
vn -0.0001 0.033 -0.9995
vn -0.0001 0.0329 -0.9995
vn -0.0001 0.033 -0.9995
vn -0 0.0328 -0.9995
vn -0 0.0328 -0.9995
vn -0 0.0328 -0.9995
vn -0 0.0328 -0.9995
vn -0 0.0328 -0.9995
vn -0 0.0328 -0.9995
vn -0 0.0328 -0.9995
vn -0 0.0328 -0.9995
vn -0 0.0328 -0.9995
vn -0 0.0328 -0.9995
vn -0 0.0328 -0.9995
vn -0 0.0328 -0.9995
vn -0 0.0328 -0.9995
vn -0 0.0328 -0.9995
vn -0 0.0328 -0.9995
vn -0 0.0328 -0.9995
vn -0 0.0328 -0.9995
vn -0 0.0328 -0.9995
vn -0 0.0328 -0.9995
vn -0 0.0328 -0.9995
vn 0.0001 0.0328 -0.9995
vn 0.0001 0.033 -0.9995
vn 0.0001 0.0328 -0.9995
vn 0.7046 0.0236 -0.7092
vn 0.7049 0.0236 -0.7089
vn 0.0001 0.033 -0.9995
vn 0.7046 0.0236 -0.7092
vn 1 0.0001 -0.0001
vn 1 -0.0001 -0.0001
vn 0.7049 0.0236 -0.7089
vn 1 0.0002 0.0001
vn 1 -0.0001 -0.0001
vn 1 0.0001 -0.0001
vn 1 -0.0001 0.0001
vn 0.7095 -0.0228 0.7043
vn 1 0.0002 0.0001
vn 1 -0.0001 0.0001
vn 0.709 -0.0228 0.7049
vn 0.0001 -0.0328 0.9995
vn 0.7095 -0.0228 0.7043
vn 0.709 -0.0228 0.7049
vn 0.0001 -0.0327 0.9995
vn 0.0001 -0.0328 0.9995
vn 0.0001 -0.0327 0.9995
vn -0 -0.0328 0.9995
vn -0 -0.0328 0.9995
vn -0 -0.0328 0.9995
vn -0 -0.0328 0.9995
vn -0 -0.0328 0.9995
vn -0 -0.0328 0.9995
vn -0 -0.0328 0.9995
vn -0 -0.0328 0.9995
vn -0 -0.0328 0.9995
vn -0 -0.0328 0.9995
vn -0 -0.0328 0.9995
vn -0 -0.0328 0.9995
vn -0 -0.0328 0.9995
vn -0 -0.0328 0.9995
vt 0.925912 0.121585
vt 0.91614 0.131728
vt 0.933082 0.131728
vt 0.93795 0.121821
vt 0.925912 0.121585
vt 0.916643 0.121299
vt 0.907459 0.131748
vt 0.91614 0.131728
vt 0.93795 0.121821
vt 0.933082 0.131728
vt 0.950024 0.131728
vt 0.950024 0.121887
vt 0.950024 0.121887
vt 0.950024 0.131728
vt 0.966967 0.131728
vt 0.962099 0.121821
vt 0.962099 0.121821
vt 0.966967 0.131728
vt 0.983909 0.131728
vt 0.974137 0.121585
vt 0.983406 0.121299
vt 0.974137 0.121585
vt 0.983909 0.131728
vt 0.992547 0.13176
vt 0.992547 0.13176
vt 0.996711 0.130105
vt 0.986057 0.118394
vt 0.983406 0.121299
vt 0.996711 0.130105
vt 0.998387 0.1259
vt 0.986057 0.118394
vt 0.998385 0.074208
vt 0.986059 0.080524
vt 0.986057 0.118394
vt 0.998387 0.1259
vt 0.986059 0.080524
vt 0.998385 0.074208
vt 0.996704 0.070069
vt 0.98336 0.077727
vt 0.986059 0.080524
vt 0.996704 0.070069
vt 0.99254 0.068445
vt 0.974117 0.077574
vt 0.98336 0.077727
vt 0.99254 0.068445
vt 0.983909 0.068479
vt 0.974117 0.077574
vt 0.983909 0.068479
vt 0.966967 0.068479
vt 0.962079 0.077448
vt 0.962079 0.077448
vt 0.966967 0.068479
vt 0.950024 0.068479
vt 0.950024 0.077413
vt 0.950024 0.077413
vt 0.950024 0.068479
vt 0.933082 0.068479
vt 0.93797 0.077448
vt 0.93797 0.077448
vt 0.933082 0.068479
vt 0.91614 0.068479
vt 0.925932 0.077574
vt 0.916689 0.077727
vt 0.925932 0.077574
vt 0.91614 0.068479
vt 0.907509 0.068445
vt 0.907509 0.068445
vt 0.903345 0.070069
vt 0.91399 0.080524
vt 0.916689 0.077727
vt 0.915546 0.081132
vt 0.917017 0.079281
vt 0.916689 0.077727
vt 0.91399 0.080524
vt 0.917017 0.079281
vt 0.926211 0.079127
vt 0.925932 0.077574
vt 0.916689 0.077727
vt 0.915546 0.081132
vt 0.926203 0.085098
vt 0.926211 0.079127
vt 0.917017 0.079281
vt 0.926203 0.085098
vt 0.915546 0.081132
vt 0.915544 0.117753
vt 0.926185 0.113994
vt 0.91399 0.080524
vt 0.913992 0.118394
vt 0.915544 0.117753
vt 0.915546 0.081132
vt 0.916996 0.119695
vt 0.915544 0.117753
vt 0.913992 0.118394
vt 0.916643 0.121299
vt 0.915544 0.117753
vt 0.916996 0.119695
vt 0.92619 0.119979
vt 0.926185 0.113994
vt 0.926203 0.085098
vt 0.926185 0.113994
vt 0.938091 0.114164
vt 0.938105 0.085023
vt 0.938094 0.120212
vt 0.938091 0.114164
vt 0.926185 0.113994
vt 0.92619 0.119979
vt 0.938094 0.120212
vt 0.92619 0.119979
vt 0.925912 0.121585
vt 0.93795 0.121821
vt 0.92619 0.119979
vt 0.916996 0.119695
vt 0.916643 0.121299
vt 0.925912 0.121585
vt 0.950024 0.120277
vt 0.938094 0.120212
vt 0.93795 0.121821
vt 0.950024 0.121887
vt 0.950024 0.120277
vt 0.950024 0.114209
vt 0.938091 0.114164
vt 0.938094 0.120212
vt 0.961955 0.120212
vt 0.961958 0.114164
vt 0.950024 0.114209
vt 0.950024 0.120277
vt 0.961955 0.120212
vt 0.950024 0.120277
vt 0.950024 0.121887
vt 0.962099 0.121821
vt 0.950024 0.085003
vt 0.950024 0.114209
vt 0.961958 0.114164
vt 0.961944 0.085023
vt 0.938105 0.085023
vt 0.938091 0.114164
vt 0.950024 0.114209
vt 0.950024 0.085003
vt 0.961944 0.085023
vt 0.961937 0.079
vt 0.950024 0.078965
vt 0.950024 0.085003
vt 0.950024 0.085003
vt 0.950024 0.078965
vt 0.938112 0.079
vt 0.938105 0.085023
vt 0.938112 0.079
vt 0.950024 0.078965
vt 0.950024 0.077413
vt 0.93797 0.077448
vt 0.950024 0.078965
vt 0.961937 0.079
vt 0.962079 0.077448
vt 0.950024 0.077413
vt 0.926211 0.079127
vt 0.938112 0.079
vt 0.93797 0.077448
vt 0.925932 0.077574
vt 0.938105 0.085023
vt 0.938112 0.079
vt 0.926211 0.079127
vt 0.926203 0.085098
vt 0.961937 0.079
vt 0.973838 0.079127
vt 0.974117 0.077574
vt 0.962079 0.077448
vt 0.973847 0.085098
vt 0.973838 0.079127
vt 0.961937 0.079
vt 0.961944 0.085023
vt 0.973838 0.079127
vt 0.983032 0.079281
vt 0.98336 0.077727
vt 0.974117 0.077574
vt 0.973847 0.085098
vt 0.984503 0.081132
vt 0.983032 0.079281
vt 0.973838 0.079127
vt 0.961944 0.085023
vt 0.961958 0.114164
vt 0.973864 0.113994
vt 0.973847 0.085098
vt 0.984503 0.081132
vt 0.973847 0.085098
vt 0.973864 0.113994
vt 0.984505 0.117753
vt 0.984505 0.117753
vt 0.986057 0.118394
vt 0.986059 0.080524
vt 0.984503 0.081132
vt 0.983032 0.079281
vt 0.984503 0.081132
vt 0.986059 0.080524
vt 0.98336 0.077727
vt 0.984505 0.117753
vt 0.983053 0.119695
vt 0.983406 0.121299
vt 0.986057 0.118394
vt 0.973859 0.119979
vt 0.983053 0.119695
vt 0.984505 0.117753
vt 0.973864 0.113994
vt 0.983053 0.119695
vt 0.973859 0.119979
vt 0.974137 0.121585
vt 0.983406 0.121299
vt 0.973859 0.119979
vt 0.961955 0.120212
vt 0.962099 0.121821
vt 0.974137 0.121585
vt 0.973859 0.119979
vt 0.973864 0.113994
vt 0.961958 0.114164
vt 0.961955 0.120212
vt 0.90329 0.130057
vt 0.907459 0.131748
vt 0.916643 0.121299
vt 0.90165 0.125859
vt 0.90329 0.130057
vt 0.916643 0.121299
vt 0.913992 0.118394
vt 0.91399 0.080524
vt 0.901664 0.074208
vt 0.90165 0.125859
vt 0.913992 0.118394
vt 0.903345 0.070069
vt 0.901664 0.074208
vt 0.91399 0.080524
vt 0.916139 0.133184
vt 0.91614 0.131728
vt 0.907459 0.131748
vt 0.907127 0.13317
vt 0.91614 0.131728
vt 0.916139 0.133184
vt 0.933082 0.133184
vt 0.933082 0.131728
vt 0.902152 0.131052
vt 0.907127 0.13317
vt 0.907459 0.131748
vt 0.90329 0.130057
vt 0.900049 0.126046
vt 0.902152 0.131052
vt 0.90329 0.130057
vt 0.90165 0.125859
vt 0.90005 0.073692
vt 0.900049 0.126046
vt 0.90165 0.125859
vt 0.901664 0.074208
vt 0.902156 0.068744
vt 0.90005 0.073692
vt 0.901664 0.074208
vt 0.903345 0.070069
vt 0.907135 0.066652
vt 0.902156 0.068744
vt 0.903345 0.070069
vt 0.907509 0.068445
vt 0.907135 0.066652
vt 0.907509 0.068445
vt 0.91614 0.068479
vt 0.916139 0.066639
vt 0.933082 0.068479
vt 0.933082 0.066639
vt 0.916139 0.066639
vt 0.91614 0.068479
vt 0.950024 0.068479
vt 0.950024 0.066639
vt 0.933082 0.066639
vt 0.933082 0.068479
vt 0.966967 0.068479
vt 0.966967 0.066639
vt 0.950024 0.066639
vt 0.950024 0.068479
vt 0.983909 0.068479
vt 0.98391 0.066639
vt 0.966967 0.066639
vt 0.966967 0.068479
vt 0.98391 0.066639
vt 0.983909 0.068479
vt 0.99254 0.068445
vt 0.992914 0.066652
vt 0.99254 0.068445
vt 0.996704 0.070069
vt 0.997893 0.068744
vt 0.992914 0.066652
vt 0.996704 0.070069
vt 0.998385 0.074208
vt 1 0.073692
vt 0.997893 0.068744
vt 1 0.126047
vt 1 0.073692
vt 0.998385 0.074208
vt 0.998387 0.1259
vt 0.997897 0.131052
vt 1 0.126047
vt 0.998387 0.1259
vt 0.996711 0.130105
vt 0.992922 0.13317
vt 0.997897 0.131052
vt 0.996711 0.130105
vt 0.992547 0.13176
vt 0.992922 0.13317
vt 0.992547 0.13176
vt 0.983909 0.131728
vt 0.98391 0.133184
vt 0.966967 0.131728
vt 0.966967 0.133184
vt 0.98391 0.133184
vt 0.983909 0.131728
vt 0.950024 0.131728
vt 0.950024 0.133184
vt 0.966967 0.133184
vt 0.966967 0.131728
vt 0.933082 0.131728
vt 0.933082 0.133184
vt 0.950024 0.133184
vt 0.950024 0.131728
s off
f 1/1/1 2/2/2 3/3/3
f 1/1/1 3/3/3 4/4/4
f 5/5/5 6/6/6 7/7/7
f 5/5/5 7/7/7 8/8/8
f 9/9/9 10/10/10 11/11/11
f 9/9/9 11/11/11 12/12/12
f 13/13/13 14/14/14 15/15/15
f 13/13/13 15/15/15 16/16/16
f 17/17/17 18/18/18 19/19/19
f 17/17/17 19/19/19 20/20/20
f 21/21/21 22/22/22 23/23/23
f 21/21/21 23/23/23 24/24/24
f 25/25/25 26/26/26 27/27/27
f 25/25/25 27/27/27 28/28/28
f 29/29/29 30/30/30 31/31/31
f 32/32/32 33/33/33 34/34/34
f 32/32/32 34/34/34 35/35/35
f 36/36/36 37/37/37 38/38/38
f 39/39/39 40/40/40 41/41/41
f 39/39/39 41/41/41 42/42/42
f 43/43/43 44/44/44 45/45/45
f 43/43/43 45/45/45 46/46/46
f 47/47/47 48/48/48 49/49/49
f 47/47/47 49/49/49 50/50/50
f 51/51/51 52/52/52 53/53/53
f 51/51/51 53/53/53 54/54/54
f 55/55/55 56/56/56 57/57/57
f 55/55/55 57/57/57 58/58/58
f 59/59/59 60/60/60 61/61/61
f 59/59/59 61/61/61 62/62/62
f 63/63/63 64/64/64 65/65/65
f 63/63/63 65/65/65 66/66/66
f 67/67/67 68/68/68 69/69/69
f 67/67/67 69/69/69 70/70/70
f 71/71/71 72/72/72 73/73/73
f 71/71/71 73/73/73 74/74/74
f 75/75/75 76/76/76 77/77/77
f 75/75/75 77/77/77 78/78/78
f 79/79/79 80/80/80 81/81/81
f 79/79/79 81/81/81 82/82/82
f 83/83/83 84/84/84 85/85/85
f 83/83/83 85/85/85 86/86/86
f 87/87/87 88/88/88 89/89/89
f 87/87/87 89/89/89 90/90/90
f 91/91/91 92/92/92 93/93/93
f 91/91/91 93/93/93 94/94/94
f 95/95/95 96/96/96 97/97/97
f 95/95/95 97/97/97 98/98/98
f 99/99/99 100/100/100 101/101/101
f 99/99/99 101/101/101 102/102/102
f 103/103/103 104/104/104 105/105/105
f 103/103/103 105/105/105 106/106/106
f 107/107/107 108/108/108 109/109/109
f 107/107/107 109/109/109 110/110/110
f 111/111/111 112/112/112 113/113/113
f 111/111/111 113/113/113 114/114/114
f 115/115/115 116/116/116 117/117/117
f 115/115/115 117/117/117 118/118/118
f 119/119/119 120/120/120 121/121/121
f 119/119/119 121/121/121 122/122/122
f 123/123/123 124/124/124 125/125/125
f 123/123/123 125/125/125 126/126/126
f 127/127/127 128/128/128 129/129/129
f 127/127/127 129/129/129 130/130/130
f 131/131/131 132/132/132 133/133/133
f 131/131/131 133/133/133 134/134/134
f 135/135/135 136/136/136 137/137/137
f 135/135/135 137/137/137 138/138/138
f 139/139/139 140/140/140 141/141/141
f 139/139/139 141/141/141 142/142/142
f 143/143/143 144/144/144 145/145/145
f 143/143/143 145/145/145 146/146/146
f 147/147/147 148/148/148 149/149/149
f 147/147/147 149/149/149 150/150/150
f 151/151/151 152/152/152 153/153/153
f 151/151/151 153/153/153 154/154/154
f 155/155/155 156/156/156 157/157/157
f 155/155/155 157/157/157 158/158/158
f 159/159/159 160/160/160 161/161/161
f 159/159/159 161/161/161 162/162/162
f 163/163/163 164/164/164 165/165/165
f 163/163/163 165/165/165 166/166/166
f 167/167/167 168/168/168 169/169/169
f 167/167/167 169/169/169 170/170/170
f 171/171/171 172/172/172 173/173/173
f 171/171/171 173/173/173 174/174/174
f 175/175/175 176/176/176 177/177/177
f 175/175/175 177/177/177 178/178/178
f 179/179/179 180/180/180 181/181/181
f 179/179/179 181/181/181 182/182/182
f 183/183/183 184/184/184 185/185/185
f 183/183/183 185/185/185 186/186/186
f 187/187/187 188/188/188 189/189/189
f 187/187/187 189/189/189 190/190/190
f 191/191/191 192/192/192 193/193/193
f 191/191/191 193/193/193 194/194/194
f 195/195/195 196/196/196 197/197/197
f 195/195/195 197/197/197 198/198/198
f 199/199/199 200/200/200 201/201/201
f 199/199/199 201/201/201 202/202/202
f 203/203/203 204/204/204 205/205/205
f 203/203/203 205/205/205 206/206/206
f 207/207/207 208/208/208 209/209/209
f 207/207/207 209/209/209 210/210/210
f 211/211/211 212/212/212 213/213/213
f 211/211/211 213/213/213 214/214/214
f 215/215/215 216/216/216 217/217/217
f 218/218/218 219/219/219 220/220/220
f 218/218/218 220/220/220 221/221/221
f 222/222/222 223/223/223 224/224/224
f 222/222/222 224/224/224 225/225/225
f 226/226/226 227/227/227 228/228/228
f 229/229/229 230/230/230 231/231/231
f 229/229/229 231/231/231 232/232/232
f 233/233/233 234/234/234 235/235/235
f 233/233/233 235/235/235 236/236/236
f 237/237/237 238/238/238 239/239/239
f 237/237/237 239/239/239 240/240/240
f 241/241/241 242/242/242 243/243/243
f 241/241/241 243/243/243 244/244/244
f 245/245/245 246/246/246 247/247/247
f 245/245/245 247/247/247 248/248/248
f 249/249/249 250/250/250 251/251/251
f 249/249/249 251/251/251 252/252/252
f 253/253/253 254/254/254 255/255/255
f 253/253/253 255/255/255 256/256/256
f 257/257/257 258/258/258 259/259/259
f 257/257/257 259/259/259 260/260/260
f 261/261/261 262/262/262 263/263/263
f 261/261/261 263/263/263 264/264/264
f 265/265/265 266/266/266 267/267/267
f 265/265/265 267/267/267 268/268/268
f 269/269/269 270/270/270 271/271/271
f 269/269/269 271/271/271 272/272/272
f 273/273/273 274/274/274 275/275/275
f 273/273/273 275/275/275 276/276/276
f 277/277/277 278/278/278 279/279/279
f 277/277/277 279/279/279 280/280/280
f 281/281/281 282/282/282 283/283/283
f 281/281/281 283/283/283 284/284/284
f 285/285/285 286/286/286 287/287/287
f 285/285/285 287/287/287 288/288/288
f 289/289/289 290/290/290 291/291/291
f 289/289/289 291/291/291 292/292/292
f 293/293/293 294/294/294 295/295/295
f 293/293/293 295/295/295 296/296/296
f 297/297/297 298/298/298 299/299/299
f 297/297/297 299/299/299 300/300/300
f 301/301/301 302/302/302 303/303/303
f 301/301/301 303/303/303 304/304/304
f 305/305/305 306/306/306 307/307/307
f 305/305/305 307/307/307 308/308/308
f 309/309/309 310/310/310 311/311/311
f 309/309/309 311/311/311 312/312/312
f 313/313/313 314/314/314 315/315/315
f 313/313/313 315/315/315 316/316/316
