v 0.806066 0.182143 -0.169038
v 0.803254 0.182347 -0.169038
v 0.806066 0.180742 -0.139825
v 0.809112 0.178674 -0.098973
v 0.811846 0.178481 -0.098973
v 0.798801 0.181087 -0.128421
v 0.806066 0.180742 -0.139825
v 0.803254 0.182347 -0.169038
v 0.803254 0.181065 -0.139825
v 0.798801 0.181087 -0.128421
v 0.811846 0.178481 -0.098973
v 0.801457 0.180781 -0.128421
vn 0.0725 0.9962 0.0478
vn 0.0725 0.9962 0.0478
vn 0.0725 0.9962 0.0478
vn 0.0703 0.9959 0.057
vn 0.0703 0.9959 0.057
vn 0.0703 0.9959 0.057
vn 0.1142 0.9925 0.0436
vn 0.1142 0.9925 0.0436
vn 0.1142 0.9925 0.0436
vn 0.1142 0.9928 0.0373
vn 0.1142 0.9928 0.0373
vn 0.1142 0.9928 0.0373
vt 0.921055 0.428996
vt 0.919586 0.428996
vt 0.921055 0.444256
vt 0.922646 0.465595
vt 0.924075 0.465595
vt 0.917261 0.450213
vt 0.921055 0.444256
vt 0.919586 0.428996
vt 0.919586 0.444256
vt 0.917261 0.450213
vt 0.924075 0.465595
vt 0.918648 0.450213
s off
f 1/1/1 2/2/2 3/3/3
f 4/4/4 5/5/5 6/6/6
f 7/7/7 8/8/8 9/9/9
f 10/10/10 11/11/11 12/12/12
