v -0.35005 0.156416 0.073644
v -0.35005 0.124717 0.065778
v -0.371495 0.124717 0.065778
v -0.371519 0.157077 0.073808
v -0.371495 0.124717 0.065778
v -0.399757 0.124717 0.065778
v -0.392907 0.159054 0.074299
v -0.371519 0.157077 0.073808
v -0.399757 0.124717 0.065778
v -0.408722 0.124598 0.069411
v -0.398871 0.160789 0.081216
v -0.392907 0.159054 0.074299
v -0.408722 0.124598 0.069411
v -0.412436 0.12431 0.078184
v -0.398871 0.160789 0.081216
v -0.398871 0.160789 0.081216
v -0.412436 0.12431 0.078184
v -0.412436 0.121038 0.177753
v -0.39862 0.170919 0.165339
v -0.412436 0.121038 0.177753
v -0.40878 0.120742 0.186754
v -0.392892 0.170384 0.17163
v -0.39862 0.170919 0.165339
v -0.40878 0.120742 0.186754
v -0.399953 0.12062 0.190482
v -0.392892 0.170384 0.17163
v -0.392892 0.170384 0.17163
v -0.399953 0.12062 0.190482
v -0.371496 0.12062 0.190482
v -0.371553 0.16767 0.172658
v -0.371553 0.16767 0.172658
v -0.371496 0.12062 0.190482
v -0.35005 0.12062 0.190482
v -0.35005 0.166759 0.173003
v -0.35005 0.166759 0.173003
v -0.35005 0.12062 0.190482
v -0.328604 0.12062 0.190482
v -0.328547 0.16767 0.172658
v -0.328604 0.12062 0.190482
v -0.300147 0.12062 0.190482
v -0.307208 0.170384 0.17163
v -0.328547 0.16767 0.172658
v -0.300147 0.12062 0.190482
v -0.29132 0.120742 0.186754
v -0.307208 0.170384 0.17163
v -0.29132 0.120742 0.186754
v -0.287664 0.121038 0.177753
v -0.30148 0.170919 0.165339
v -0.307208 0.170384 0.17163
v -0.287664 0.12431 0.078184
v -0.301229 0.160789 0.081217
v -0.30148 0.170919 0.165339
v -0.287664 0.121038 0.177753
v -0.301229 0.160789 0.081217
v -0.287664 0.12431 0.078184
v -0.291378 0.124598 0.069411
v -0.307192 0.159054 0.074299
v -0.301229 0.160789 0.081217
v -0.291378 0.124598 0.069411
v -0.300343 0.124717 0.065778
v -0.307192 0.159054 0.074299
v -0.300343 0.124717 0.065778
v -0.328604 0.124717 0.065778
v -0.328581 0.157077 0.073808
v -0.328581 0.157077 0.073808
v -0.328604 0.124717 0.065778
v -0.35005 0.124717 0.065778
v -0.35005 0.156416 0.073644
v -0.35005 0.159288 0.077002
v -0.329706 0.159912 0.077148
v -0.328581 0.157077 0.073808
v -0.35005 0.156416 0.073644
v -0.329706 0.159912 0.077148
v -0.309441 0.161806 0.077599
v -0.307192 0.159054 0.074299
v -0.328581 0.157077 0.073808
v -0.334011 0.160496 0.090709
v -0.329706 0.159912 0.077148
v -0.35005 0.159288 0.077002
v -0.35005 0.16004 0.090677
v -0.318046 0.162083 0.090835
v -0.309441 0.161806 0.077599
v -0.329706 0.159912 0.077148
v -0.334011 0.160496 0.090709
v -0.334011 0.160496 0.090709
v -0.333967 0.167429 0.155673
v -0.317995 0.169317 0.155158
v -0.318046 0.162083 0.090835
v -0.35005 0.16004 0.090677
v -0.35005 0.166884 0.155816
v -0.333967 0.167429 0.155673
v -0.334011 0.160496 0.090709
v -0.30931 0.172388 0.168066
v -0.317995 0.169317 0.155158
v -0.333967 0.167429 0.155673
v -0.329603 0.169829 0.169028
v -0.329603 0.169829 0.169028
v -0.333967 0.167429 0.155673
v -0.35005 0.166884 0.155816
v -0.35005 0.168986 0.169343
v -0.329603 0.169829 0.169028
v -0.35005 0.168986 0.169343
v -0.35005 0.166759 0.173003
v -0.328547 0.16767 0.172658
v -0.30931 0.172388 0.168066
v -0.329603 0.169829 0.169028
v -0.328547 0.16767 0.172658
v -0.307208 0.170384 0.17163
v -0.304843 0.172816 0.163097
v -0.30931 0.172388 0.168066
v -0.307208 0.170384 0.17163
v -0.30148 0.170919 0.165339
v -0.30931 0.172388 0.168066
v -0.304843 0.172816 0.163097
v -0.317995 0.169317 0.155158
v -0.304843 0.172816 0.163097
v -0.30148 0.170919 0.165339
v -0.301229 0.160789 0.081217
v -0.304866 0.163179 0.083015
v -0.304866 0.163179 0.083015
v -0.318046 0.162083 0.090835
v -0.317995 0.169317 0.155158
v -0.304843 0.172816 0.163097
v -0.309441 0.161806 0.077599
v -0.304866 0.163179 0.083015
v -0.301229 0.160789 0.081217
v -0.307192 0.159054 0.074299
v -0.318046 0.162083 0.090835
v -0.304866 0.163179 0.083015
v -0.309441 0.161806 0.077599
v -0.35005 0.168986 0.169343
v -0.370497 0.169829 0.169028
v -0.371553 0.16767 0.172658
v -0.35005 0.166759 0.173003
v -0.35005 0.168986 0.169343
v -0.35005 0.166884 0.155816
v -0.366133 0.167429 0.155673
v -0.370497 0.169829 0.169028
v -0.370497 0.169829 0.169028
v -0.39079 0.172388 0.168066
v -0.392892 0.170384 0.17163
v -0.371553 0.16767 0.172658
v -0.370497 0.169829 0.169028
v -0.366133 0.167429 0.155673
v -0.382105 0.169317 0.155158
v -0.39079 0.172388 0.168066
v -0.39079 0.172388 0.168066
v -0.395257 0.172816 0.163097
v -0.39862 0.170919 0.165339
v -0.392892 0.170384 0.17163
v -0.395257 0.172816 0.163097
v -0.39079 0.172388 0.168066
v -0.382105 0.169317 0.155158
v -0.398871 0.160789 0.081216
v -0.39862 0.170919 0.165339
v -0.395257 0.172816 0.163097
v -0.395234 0.163179 0.083015
v -0.395234 0.163179 0.083015
v -0.395257 0.172816 0.163097
v -0.382105 0.169317 0.155158
v -0.382054 0.162083 0.090835
v -0.395234 0.163179 0.083015
v -0.390659 0.161806 0.077599
v -0.392907 0.159054 0.074299
v -0.398871 0.160789 0.081216
v -0.395234 0.163179 0.083015
v -0.382054 0.162083 0.090835
v -0.390659 0.161806 0.077599
v -0.390659 0.161806 0.077599
v -0.370394 0.159912 0.077148
v -0.371519 0.157077 0.073808
v -0.392907 0.159054 0.074299
v -0.366089 0.160496 0.090709
v -0.370394 0.159912 0.077148
v -0.390659 0.161806 0.077599
v -0.382054 0.162083 0.090835
v -0.370394 0.159912 0.077148
v -0.35005 0.159288 0.077002
v -0.35005 0.156416 0.073644
v -0.371519 0.157077 0.073808
v -0.35005 0.16004 0.090677
v -0.35005 0.159288 0.077002
v -0.370394 0.159912 0.077148
v -0.366089 0.160496 0.090709
v -0.382054 0.162083 0.090835
v -0.382105 0.169317 0.155158
v -0.366133 0.167429 0.155673
v -0.366089 0.160496 0.090709
v -0.366089 0.160496 0.090709
v -0.366133 0.167429 0.155673
v -0.35005 0.166884 0.155816
v -0.35005 0.16004 0.090677
v -0.35005 0.124717 0.065778
v -0.35005 0.113455 0.065407
v -0.371495 0.113455 0.065407
v -0.371495 0.124717 0.065778
v -0.399772 0.113455 0.065407
v -0.399757 0.124717 0.065778
v -0.371495 0.124717 0.065778
v -0.371495 0.113455 0.065407
v -0.399772 0.113455 0.065407
v -0.408727 0.113336 0.06904
v -0.408722 0.124598 0.069411
v -0.399757 0.124717 0.065778
v -0.408727 0.113336 0.06904
v -0.412436 0.113048 0.077809
v -0.412436 0.12431 0.078184
v -0.408722 0.124598 0.069411
v -0.412436 0.113048 0.077809
v -0.412436 0.109775 0.1774
v -0.412436 0.121038 0.177753
v -0.412436 0.12431 0.078184
v -0.412436 0.109775 0.1774
v -0.408782 0.10948 0.186389
v -0.40878 0.120742 0.186754
v -0.412436 0.121038 0.177753
v -0.408782 0.10948 0.186389
v -0.39996 0.109358 0.190112
v -0.399953 0.12062 0.190482
v -0.40878 0.120742 0.186754
v -0.371496 0.12062 0.190482
v -0.399953 0.12062 0.190482
v -0.39996 0.109358 0.190112
v -0.371496 0.109358 0.190112
v -0.371496 0.12062 0.190482
v -0.371496 0.109358 0.190112
v -0.35005 0.109358 0.190112
v -0.35005 0.12062 0.190482
v -0.35005 0.12062 0.190482
v -0.35005 0.109358 0.190112
v -0.328604 0.109358 0.190112
v -0.328604 0.12062 0.190482
v -0.30014 0.109358 0.190112
v -0.300147 0.12062 0.190482
v -0.328604 0.12062 0.190482
v -0.328604 0.109358 0.190112
v -0.30014 0.109358 0.190112
v -0.291318 0.10948 0.186389
v -0.29132 0.120742 0.186754
v -0.300147 0.12062 0.190482
v -0.291318 0.10948 0.186389
v -0.287664 0.109775 0.1774
v -0.287664 0.121038 0.177753
v -0.29132 0.120742 0.186754
v -0.287664 0.109775 0.1774
v -0.287664 0.113048 0.077809
v -0.287664 0.12431 0.078184
v -0.287664 0.121038 0.177753
v -0.291378 0.124598 0.069411
v -0.287664 0.12431 0.078184
v -0.287664 0.113048 0.077809
v -0.291373 0.113336 0.06904
v -0.300343 0.124717 0.065778
v -0.291378 0.124598 0.069411
v -0.291373 0.113336 0.06904
v -0.300328 0.113455 0.065407
v -0.328604 0.124717 0.065778
v -0.300343 0.124717 0.065778
v -0.300328 0.113455 0.065407
v -0.328604 0.113455 0.065407
v -0.328604 0.124717 0.065778
v -0.328604 0.113455 0.065407
v -0.35005 0.113455 0.065407
v -0.35005 0.124717 0.065778
vn -0 0.2409 -0.9705
vn -0 0.2409 -0.9706
vn -0 0.2409 -0.9706
vn -0 0.241 -0.9705
vn -0 0.2409 -0.9706
vn -0.0001 0.2409 -0.9705
vn -0 0.2409 -0.9706
vn -0 0.241 -0.9705
vn -0.0001 0.2409 -0.9705
vn -0.6677 0.3476 -0.6583
vn -0.9535 0.3012 -0.0099
vn -0 0.2409 -0.9706
vn -0.6677 0.3476 -0.6583
vn -0.9535 0.3013 -0.01
vn -0.9535 0.3012 -0.0099
vn -0.9535 0.3012 -0.0099
vn -0.9535 0.3013 -0.01
vn -0.9535 0.3013 -0.0099
vn -0.9535 0.3012 -0.0099
vn -0.9535 0.3013 -0.0099
vn -0.6599 0.3775 0.6496
vn -0 0.3542 0.9352
vn -0.9535 0.3012 -0.0099
vn -0.6599 0.3775 0.6496
vn -0.0001 0.3543 0.9351
vn -0 0.3542 0.9352
vn -0 0.3542 0.9352
vn -0.0001 0.3543 0.9351
vn -0 0.3543 0.9351
vn -0 0.3543 0.9351
vn -0 0.3543 0.9351
vn -0 0.3543 0.9351
vn -0 0.3543 0.9351
vn -0 0.3543 0.9351
vn -0 0.3543 0.9351
vn -0 0.3543 0.9351
vn -0 0.3543 0.9351
vn -0 0.3543 0.9351
vn -0 0.3543 0.9351
vn 0.0001 0.3543 0.9351
vn -0 0.3542 0.9352
vn -0 0.3543 0.9351
vn 0.0001 0.3543 0.9351
vn 0.66 0.3775 0.6496
vn -0 0.3542 0.9352
vn 0.66 0.3775 0.6496
vn 0.9535 0.3013 -0.0099
vn 0.9535 0.3012 -0.0099
vn -0 0.3542 0.9352
vn 0.9535 0.3013 -0.0101
vn 0.9535 0.3012 -0.01
vn 0.9535 0.3012 -0.0099
vn 0.9535 0.3013 -0.0099
vn 0.9535 0.3012 -0.01
vn 0.9535 0.3013 -0.0101
vn 0.6677 0.3476 -0.6583
vn -0 0.2409 -0.9706
vn 0.9535 0.3012 -0.01
vn 0.6677 0.3476 -0.6583
vn 0.0001 0.2409 -0.9706
vn -0 0.2409 -0.9706
vn 0.0001 0.2409 -0.9706
vn -0 0.2409 -0.9706
vn -0 0.241 -0.9705
vn -0 0.241 -0.9705
vn -0 0.2409 -0.9706
vn -0 0.2409 -0.9706
vn -0 0.2409 -0.9705
vn -0.001 0.9982 -0.0599
vn -0.1045 0.9917 -0.0744
vn -0 0.241 -0.9705
vn -0 0.2409 -0.9705
vn -0.1045 0.9917 -0.0744
vn -0.1315 0.9856 -0.1065
vn -0 0.2409 -0.9706
vn -0 0.241 -0.9705
vn -0.0627 0.9944 -0.0849
vn -0.1045 0.9917 -0.0744
vn -0.001 0.9982 -0.0599
vn -0 0.9968 -0.0794
vn -0.1276 0.9867 -0.1006
vn -0.1315 0.9856 -0.1065
vn -0.1045 0.9917 -0.0744
vn -0.0627 0.9944 -0.0849
vn -0.0627 0.9944 -0.0849
vn -0.0722 0.9889 -0.1296
vn -0.1419 0.9825 -0.121
vn -0.1276 0.9867 -0.1006
vn -0 0.9968 -0.0794
vn -0 0.9912 -0.1322
vn -0.0722 0.9889 -0.1296
vn -0.0627 0.9944 -0.0849
vn -0.1748 0.9783 -0.1109
vn -0.1419 0.9825 -0.121
vn -0.0722 0.9889 -0.1296
vn -0.0889 0.9854 -0.1449
vn -0.0889 0.9854 -0.1449
vn -0.0722 0.9889 -0.1296
vn -0 0.9912 -0.1322
vn 0.0013 0.9884 -0.152
vn -0.0889 0.9854 -0.1449
vn 0.0013 0.9884 -0.152
vn -0 0.3543 0.9351
vn -0 0.3543 0.9351
vn -0.1748 0.9783 -0.1109
vn -0.0889 0.9854 -0.1449
vn -0 0.3543 0.9351
vn -0 0.3542 0.9352
vn -0.1876 0.9769 -0.1029
vn -0.1748 0.9783 -0.1109
vn -0 0.3542 0.9352
vn 0.9535 0.3012 -0.0099
vn -0.1748 0.9783 -0.1109
vn -0.1876 0.9769 -0.1029
vn -0.1419 0.9825 -0.121
vn -0.1876 0.9769 -0.1029
vn 0.9535 0.3012 -0.0099
vn 0.9535 0.3012 -0.01
vn -0.1564 0.9806 -0.1177
vn -0.1564 0.9806 -0.1177
vn -0.1276 0.9867 -0.1006
vn -0.1419 0.9825 -0.121
vn -0.1876 0.9769 -0.1029
vn -0.1315 0.9856 -0.1065
vn -0.1564 0.9806 -0.1177
vn 0.9535 0.3012 -0.01
vn -0 0.2409 -0.9706
vn -0.1276 0.9867 -0.1006
vn -0.1564 0.9806 -0.1177
vn -0.1315 0.9856 -0.1065
vn 0.0013 0.9884 -0.152
vn 0.1331 0.9811 -0.1405
vn -0 0.3543 0.9351
vn -0 0.3543 0.9351
vn 0.0013 0.9884 -0.152
vn -0 0.9912 -0.1322
vn 0.0722 0.9889 -0.1296
vn 0.1331 0.9811 -0.1405
vn 0.1331 0.9811 -0.1405
vn 0.175 0.9783 -0.1109
vn -0 0.3542 0.9352
vn -0 0.3543 0.9351
vn 0.1331 0.9811 -0.1405
vn 0.0722 0.9889 -0.1296
vn 0.1419 0.9825 -0.121
vn 0.175 0.9783 -0.1109
vn 0.175 0.9783 -0.1109
vn 0.1876 0.9769 -0.1028
vn -0.9535 0.3012 -0.0099
vn -0 0.3542 0.9352
vn 0.1876 0.9769 -0.1028
vn 0.175 0.9783 -0.1109
vn 0.1419 0.9825 -0.121
vn -0.9535 0.3012 -0.0099
vn -0.9535 0.3012 -0.0099
vn 0.1876 0.9769 -0.1028
vn 0.1565 0.9806 -0.1178
vn 0.1565 0.9806 -0.1178
vn 0.1876 0.9769 -0.1028
vn 0.1419 0.9825 -0.121
vn 0.1276 0.9867 -0.1006
vn 0.1565 0.9806 -0.1178
vn 0.1314 0.9856 -0.1065
vn -0 0.2409 -0.9706
vn -0.9535 0.3012 -0.0099
vn 0.1565 0.9806 -0.1178
vn 0.1276 0.9867 -0.1006
vn 0.1314 0.9856 -0.1065
vn 0.1314 0.9856 -0.1065
vn 0.066 0.9953 -0.0713
vn -0 0.241 -0.9705
vn -0 0.2409 -0.9706
vn 0.0627 0.9944 -0.0849
vn 0.066 0.9953 -0.0713
vn 0.1314 0.9856 -0.1065
vn 0.1276 0.9867 -0.1006
vn 0.066 0.9953 -0.0713
vn -0.001 0.9982 -0.0599
vn -0 0.2409 -0.9705
vn -0 0.241 -0.9705
vn -0 0.9968 -0.0794
vn -0.001 0.9982 -0.0599
vn 0.066 0.9953 -0.0713
vn 0.0627 0.9944 -0.0849
vn 0.1276 0.9867 -0.1006
vn 0.1419 0.9825 -0.121
vn 0.0722 0.9889 -0.1296
vn 0.0627 0.9944 -0.0849
vn 0.0627 0.9944 -0.0849
vn 0.0722 0.9889 -0.1296
vn -0 0.9912 -0.1322
vn -0 0.9968 -0.0794
vn -0 0.0328 -0.9995
vn -0 0.0328 -0.9995
vn -0 0.0328 -0.9995
vn -0 0.0328 -0.9995
vn -0.0001 0.0328 -0.9995
vn -0.0001 0.033 -0.9995
vn -0 0.0328 -0.9995
vn -0 0.0328 -0.9995
vn -0.0001 0.0328 -0.9995
vn -0.6997 0.0238 -0.7141
vn -0.6997 0.0238 -0.714
vn -0.0001 0.033 -0.9995
vn -0.6997 0.0238 -0.7141
vn -1 0.0001 -0.0001
vn -1 -0 -0.0001
vn -0.6997 0.0238 -0.714
vn -1 0.0001 -0.0001
vn -1 -0 0.0001
vn -1 0.0002 0.0001
vn -1 -0 -0.0001
vn -1 -0 0.0001
vn -0.714 -0.0226 0.6998
vn -0.714 -0.0226 0.6998
vn -1 0.0002 0.0001
vn -0.714 -0.0226 0.6998
vn -0.0001 -0.0327 0.9995
vn -0.0001 -0.0329 0.9995
vn -0.714 -0.0226 0.6998
vn -0 -0.0328 0.9995
vn -0.0001 -0.0329 0.9995
vn -0.0001 -0.0327 0.9995
vn -0 -0.0328 0.9995
vn -0 -0.0328 0.9995
vn -0 -0.0328 0.9995
vn -0 -0.0328 0.9995
vn -0 -0.0328 0.9995
vn -0 -0.0328 0.9995
vn -0 -0.0328 0.9995
vn -0 -0.0328 0.9995
vn -0 -0.0328 0.9995
vn 0.0001 -0.0329 0.9995
vn 0.0001 -0.0327 0.9995
vn -0 -0.0328 0.9995
vn -0 -0.0328 0.9995
vn 0.0001 -0.0329 0.9995
vn 0.7139 -0.0226 0.6999
vn 0.7141 -0.0225 0.6996
vn 0.0001 -0.0327 0.9995
vn 0.7139 -0.0226 0.6999
vn 1 0.0002 0.0001
vn 1 -0.0001 0.0001
vn 0.7141 -0.0225 0.6996
vn 1 0.0002 0.0001
vn 1 -0 -0.0001
vn 1 0.0001 -0.0001
vn 1 -0.0001 0.0001
vn 0.6997 0.0238 -0.7141
vn 1 0.0001 -0.0001
vn 1 -0 -0.0001
vn 0.6997 0.0238 -0.714
vn 0.0001 0.0328 -0.9995
vn 0.6997 0.0238 -0.7141
vn 0.6997 0.0238 -0.714
vn 0.0001 0.033 -0.9995
vn -0 0.0328 -0.9995
vn 0.0001 0.0328 -0.9995
vn 0.0001 0.033 -0.9995
vn -0 0.0328 -0.9995
vn -0 0.0328 -0.9995
vn -0 0.0328 -0.9995
vn -0 0.0328 -0.9995
vn -0 0.0328 -0.9995
vt 0.317149 0.208636
vt 0.317149 0.201757
vt 0.305946 0.201757
vt 0.307547 0.208709
vt 0.305946 0.201757
vt 0.291418 0.201721
vt 0.297981 0.208929
vt 0.307547 0.208709
vt 0.291418 0.201721
vt 0.287187 0.203342
vt 0.295314 0.212023
vt 0.297981 0.208929
vt 0.287187 0.203342
vt 0.285482 0.207476
vt 0.295314 0.212023
vt 0.295314 0.212023
vt 0.285482 0.207476
vt 0.285469 0.259068
vt 0.295426 0.249645
vt 0.285469 0.259068
vt 0.287107 0.263318
vt 0.297988 0.252459
vt 0.295426 0.249645
vt 0.287107 0.263318
vt 0.29127 0.265032
vt 0.297988 0.252459
vt 0.297988 0.252459
vt 0.29127 0.265032
vt 0.305946 0.265012
vt 0.307532 0.252919
vt 0.307532 0.252919
vt 0.305946 0.265012
vt 0.317149 0.265012
vt 0.317149 0.253073
vt 0.317149 0.253073
vt 0.317149 0.265012
vt 0.328351 0.265012
vt 0.326765 0.252919
vt 0.328351 0.265012
vt 0.343027 0.265032
vt 0.336309 0.252459
vt 0.326765 0.252919
vt 0.343027 0.265032
vt 0.347191 0.263318
vt 0.336309 0.252459
vt 0.347191 0.263318
vt 0.348828 0.259068
vt 0.338871 0.249645
vt 0.336309 0.252459
vt 0.348815 0.207476
vt 0.338983 0.212023
vt 0.338871 0.249645
vt 0.348828 0.259068
vt 0.338983 0.212023
vt 0.348815 0.207476
vt 0.34711 0.203342
vt 0.336316 0.208929
vt 0.338983 0.212023
vt 0.34711 0.203342
vt 0.342879 0.201721
vt 0.336316 0.208929
vt 0.342879 0.201721
vt 0.328351 0.201757
vt 0.32675 0.208709
vt 0.32675 0.208709
vt 0.328351 0.201757
vt 0.317149 0.201757
vt 0.317149 0.208636
vt 0.317149 0.210138
vt 0.326247 0.210203
vt 0.32675 0.208709
vt 0.317149 0.208636
vt 0.326247 0.210203
vt 0.335311 0.210405
vt 0.336316 0.208929
vt 0.32675 0.208709
vt 0.324322 0.216268
vt 0.326247 0.210203
vt 0.317149 0.210138
vt 0.317149 0.216254
vt 0.331462 0.216324
vt 0.335311 0.210405
vt 0.326247 0.210203
vt 0.324322 0.216268
vt 0.324322 0.216268
vt 0.324342 0.245322
vt 0.331485 0.245092
vt 0.331462 0.216324
vt 0.317149 0.216254
vt 0.317149 0.245386
vt 0.324342 0.245322
vt 0.324322 0.216268
vt 0.335369 0.250865
vt 0.331485 0.245092
vt 0.324342 0.245322
vt 0.326293 0.251295
vt 0.326293 0.251295
vt 0.324342 0.245322
vt 0.317149 0.245386
vt 0.317149 0.251436
vt 0.326293 0.251295
vt 0.317149 0.251436
vt 0.317149 0.253073
vt 0.326765 0.252919
vt 0.335369 0.250865
vt 0.326293 0.251295
vt 0.326765 0.252919
vt 0.336309 0.252459
vt 0.337367 0.248643
vt 0.335369 0.250865
vt 0.336309 0.252459
vt 0.338871 0.249645
vt 0.335369 0.250865
vt 0.337367 0.248643
vt 0.331485 0.245092
vt 0.337367 0.248643
vt 0.338871 0.249645
vt 0.338983 0.212023
vt 0.337357 0.212827
vt 0.337357 0.212827
vt 0.331462 0.216324
vt 0.331485 0.245092
vt 0.337367 0.248643
vt 0.335311 0.210405
vt 0.337357 0.212827
vt 0.338983 0.212023
vt 0.336316 0.208929
vt 0.331462 0.216324
vt 0.337357 0.212827
vt 0.335311 0.210405
vt 0.317149 0.251436
vt 0.308004 0.251295
vt 0.307532 0.252919
vt 0.317149 0.253073
vt 0.317149 0.251436
vt 0.317149 0.245386
vt 0.309956 0.245322
vt 0.308004 0.251295
vt 0.308004 0.251295
vt 0.298928 0.250865
vt 0.297988 0.252459
vt 0.307532 0.252919
vt 0.308004 0.251295
vt 0.309956 0.245322
vt 0.302813 0.245092
vt 0.298928 0.250865
vt 0.298928 0.250865
vt 0.29693 0.248643
vt 0.295426 0.249645
vt 0.297988 0.252459
vt 0.29693 0.248643
vt 0.298928 0.250865
vt 0.302813 0.245092
vt 0.295314 0.212023
vt 0.295426 0.249645
vt 0.29693 0.248643
vt 0.296941 0.212827
vt 0.296941 0.212827
vt 0.29693 0.248643
vt 0.302813 0.245092
vt 0.302835 0.216324
vt 0.296941 0.212827
vt 0.298987 0.210405
vt 0.297981 0.208929
vt 0.295314 0.212023
vt 0.296941 0.212827
vt 0.302835 0.216324
vt 0.298987 0.210405
vt 0.298987 0.210405
vt 0.30805 0.210203
vt 0.307547 0.208709
vt 0.297981 0.208929
vt 0.309976 0.216268
vt 0.30805 0.210203
vt 0.298987 0.210405
vt 0.302835 0.216324
vt 0.30805 0.210203
vt 0.317149 0.210138
vt 0.317149 0.208636
vt 0.307547 0.208709
vt 0.317149 0.216254
vt 0.317149 0.210138
vt 0.30805 0.210203
vt 0.309976 0.216268
vt 0.302835 0.216324
vt 0.302813 0.245092
vt 0.309956 0.245322
vt 0.309976 0.216268
vt 0.309976 0.216268
vt 0.309956 0.245322
vt 0.317149 0.245386
vt 0.317149 0.216254
vt 0.317149 0.201757
vt 0.317149 0.199916
vt 0.305946 0.199916
vt 0.305946 0.201757
vt 0.291041 0.199929
vt 0.291418 0.201721
vt 0.305946 0.201757
vt 0.305946 0.199916
vt 0.291041 0.199929
vt 0.286005 0.202016
vt 0.287187 0.203342
vt 0.291418 0.201721
vt 0.286005 0.202016
vt 0.283872 0.206957
vt 0.285482 0.207476
vt 0.287187 0.203342
vt 0.283872 0.206957
vt 0.283871 0.259253
vt 0.285469 0.259068
vt 0.285482 0.207476
vt 0.283871 0.259253
vt 0.285969 0.264307
vt 0.287107 0.263318
vt 0.285469 0.259068
vt 0.285969 0.264307
vt 0.290938 0.266447
vt 0.29127 0.265032
vt 0.287107 0.263318
vt 0.305946 0.265012
vt 0.29127 0.265032
vt 0.290938 0.266447
vt 0.305946 0.266461
vt 0.305946 0.265012
vt 0.305946 0.266461
vt 0.317149 0.266461
vt 0.317149 0.265012
vt 0.317149 0.265012
vt 0.317149 0.266461
vt 0.328351 0.266461
vt 0.328351 0.265012
vt 0.343359 0.266447
vt 0.343027 0.265032
vt 0.328351 0.265012
vt 0.328351 0.266461
vt 0.343359 0.266447
vt 0.348328 0.264307
vt 0.347191 0.263318
vt 0.343027 0.265032
vt 0.348328 0.264307
vt 0.350426 0.259253
vt 0.348828 0.259068
vt 0.347191 0.263318
vt 0.350426 0.259253
vt 0.350425 0.206957
vt 0.348815 0.207476
vt 0.348828 0.259068
vt 0.34711 0.203342
vt 0.348815 0.207476
vt 0.350425 0.206957
vt 0.348292 0.202016
vt 0.342879 0.201721
vt 0.34711 0.203342
vt 0.348292 0.202016
vt 0.343256 0.199929
vt 0.328351 0.201757
vt 0.342879 0.201721
vt 0.343256 0.199929
vt 0.328351 0.199916
vt 0.328351 0.201757
vt 0.328351 0.199916
vt 0.317149 0.199916
vt 0.317149 0.201757
s off
f 1/1/1 2/2/2 3/3/3
f 1/1/1 3/3/3 4/4/4
f 5/5/5 6/6/6 7/7/7
f 5/5/5 7/7/7 8/8/8
f 9/9/9 10/10/10 11/11/11
f 9/9/9 11/11/11 12/12/12
f 13/13/13 14/14/14 15/15/15
f 16/16/16 17/17/17 18/18/18
f 16/16/16 18/18/18 19/19/19
f 20/20/20 21/21/21 22/22/22
f 20/20/20 22/22/22 23/23/23
f 24/24/24 25/25/25 26/26/26
f 27/27/27 28/28/28 29/29/29
f 27/27/27 29/29/29 30/30/30
f 31/31/31 32/32/32 33/33/33
f 31/31/31 33/33/33 34/34/34
f 35/35/35 36/36/36 37/37/37
f 35/35/35 37/37/37 38/38/38
f 39/39/39 40/40/40 41/41/41
f 39/39/39 41/41/41 42/42/42
f 43/43/43 44/44/44 45/45/45
f 46/46/46 47/47/47 48/48/48
f 46/46/46 48/48/48 49/49/49
f 50/50/50 51/51/51 52/52/52
f 50/50/50 52/52/52 53/53/53
f 54/54/54 55/55/55 56/56/56
f 57/57/57 58/58/58 59/59/59
f 57/57/57 59/59/59 60/60/60
f 61/61/61 62/62/62 63/63/63
f 61/61/61 63/63/63 64/64/64
f 65/65/65 66/66/66 67/67/67
f 65/65/65 67/67/67 68/68/68
f 69/69/69 70/70/70 71/71/71
f 69/69/69 71/71/71 72/72/72
f 73/73/73 74/74/74 75/75/75
f 73/73/73 75/75/75 76/76/76
f 77/77/77 78/78/78 79/79/79
f 77/77/77 79/79/79 80/80/80
f 81/81/81 82/82/82 83/83/83
f 81/81/81 83/83/83 84/84/84
f 85/85/85 86/86/86 87/87/87
f 85/85/85 87/87/87 88/88/88
f 89/89/89 90/90/90 91/91/91
f 89/89/89 91/91/91 92/92/92
f 93/93/93 94/94/94 95/95/95
f 93/93/93 95/95/95 96/96/96
f 97/97/97 98/98/98 99/99/99
f 97/97/97 99/99/99 100/100/100
f 101/101/101 102/102/102 103/103/103
f 101/101/101 103/103/103 104/104/104
f 105/105/105 106/106/106 107/107/107
f 105/105/105 107/107/107 108/108/108
f 109/109/109 110/110/110 111/111/111
f 109/109/109 111/111/111 112/112/112
f 113/113/113 114/114/114 115/115/115
f 116/116/116 117/117/117 118/118/118
f 116/116/116 118/118/118 119/119/119
f 120/120/120 121/121/121 122/122/122
f 120/120/120 122/122/122 123/123/123
f 124/124/124 125/125/125 126/126/126
f 124/124/124 126/126/126 127/127/127
f 128/128/128 129/129/129 130/130/130
f 131/131/131 132/132/132 133/133/133
f 131/131/131 133/133/133 134/134/134
f 135/135/135 136/136/136 137/137/137
f 135/135/135 137/137/137 138/138/138
f 139/139/139 140/140/140 141/141/141
f 139/139/139 141/141/141 142/142/142
f 143/143/143 144/144/144 145/145/145
f 143/143/143 145/145/145 146/146/146
f 147/147/147 148/148/148 149/149/149
f 147/147/147 149/149/149 150/150/150
f 151/151/151 152/152/152 153/153/153
f 154/154/154 155/155/155 156/156/156
f 154/154/154 156/156/156 157/157/157
f 158/158/158 159/159/159 160/160/160
f 158/158/158 160/160/160 161/161/161
f 162/162/162 163/163/163 164/164/164
f 162/162/162 164/164/164 165/165/165
f 166/166/166 167/167/167 168/168/168
f 169/169/169 170/170/170 171/171/171
f 169/169/169 171/171/171 172/172/172
f 173/173/173 174/174/174 175/175/175
f 173/173/173 175/175/175 176/176/176
f 177/177/177 178/178/178 179/179/179
f 177/177/177 179/179/179 180/180/180
f 181/181/181 182/182/182 183/183/183
f 181/181/181 183/183/183 184/184/184
f 185/185/185 186/186/186 187/187/187
f 185/185/185 187/187/187 188/188/188
f 189/189/189 190/190/190 191/191/191
f 189/189/189 191/191/191 192/192/192
f 193/193/193 194/194/194 195/195/195
f 193/193/193 195/195/195 196/196/196
f 197/197/197 198/198/198 199/199/199
f 197/197/197 199/199/199 200/200/200
f 201/201/201 202/202/202 203/203/203
f 201/201/201 203/203/203 204/204/204
f 205/205/205 206/206/206 207/207/207
f 205/205/205 207/207/207 208/208/208
f 209/209/209 210/210/210 211/211/211
f 209/209/209 211/211/211 212/212/212
f 213/213/213 214/214/214 215/215/215
f 213/213/213 215/215/215 216/216/216
f 217/217/217 218/218/218 219/219/219
f 217/217/217 219/219/219 220/220/220
f 221/221/221 222/222/222 223/223/223
f 221/221/221 223/223/223 224/224/224
f 225/225/225 226/226/226 227/227/227
f 225/225/225 227/227/227 228/228/228
f 229/229/229 230/230/230 231/231/231
f 229/229/229 231/231/231 232/232/232
f 233/233/233 234/234/234 235/235/235
f 233/233/233 235/235/235 236/236/236
f 237/237/237 238/238/238 239/239/239
f 237/237/237 239/239/239 240/240/240
f 241/241/241 242/242/242 243/243/243
f 241/241/241 243/243/243 244/244/244
f 245/245/245 246/246/246 247/247/247
f 245/245/245 247/247/247 248/248/248
f 249/249/249 250/250/250 251/251/251
f 249/249/249 251/251/251 252/252/252
f 253/253/253 254/254/254 255/255/255
f 253/253/253 255/255/255 256/256/256
f 257/257/257 258/258/258 259/259/259
f 257/257/257 259/259/259 260/260/260
f 261/261/261 262/262/262 263/263/263
f 261/261/261 263/263/263 264/264/264
