v -0.368627 0.161453 0.095975
v -0.371575 0.161436 0.093097
v -0.37355 0.162063 0.097151
v -0.37355 0.162063 0.097151
v -0.376473 0.162133 0.095104
v -0.376706 0.162678 0.099997
v -0.37355 0.162063 0.097151
v -0.371575 0.161436 0.093097
v -0.376473 0.162133 0.095104
v -0.368627 0.161453 0.095975
v -0.366501 0.160933 0.093066
v -0.371575 0.161436 0.093097
v -0.366501 0.160933 0.093066
v -0.364403 0.161246 0.096915
v -0.362102 0.160927 0.094503
v -0.366501 0.160933 0.093066
v -0.368627 0.161453 0.095975
v -0.364403 0.161246 0.096915
v -0.361749 0.161383 0.098938
v -0.362102 0.160927 0.094503
v -0.364403 0.161246 0.096915
v -0.361749 0.161383 0.098938
v -0.359498 0.161092 0.096768
v -0.362102 0.160927 0.094503
v -0.379902 0.162846 0.098624
v -0.376706 0.162678 0.099997
v -0.376473 0.162133 0.095104
v -0.379902 0.162846 0.098624
v -0.381474 0.163454 0.102383
v -0.377984 0.163161 0.103346
v -0.376706 0.162678 0.099997
v -0.379902 0.162846 0.098624
v -0.377984 0.163161 0.103346
v -0.38188 0.163876 0.105699
v -0.37817 0.163491 0.10627
v -0.377984 0.163161 0.103346
v -0.38188 0.163876 0.105699
v -0.377984 0.163161 0.103346
v -0.381474 0.163454 0.102383
v -0.381211 0.164257 0.109809
v -0.37817 0.163491 0.10627
v -0.38188 0.163876 0.105699
v -0.377497 0.163768 0.109484
v -0.381211 0.164257 0.109809
v -0.378661 0.164422 0.114046
v -0.37817 0.163491 0.10627
v -0.381211 0.164257 0.109809
v -0.377497 0.163768 0.109484
v -0.374718 0.163878 0.113087
v -0.377497 0.163768 0.109484
v -0.378661 0.164422 0.114046
v -0.374718 0.163878 0.113087
v -0.375363 0.164312 0.116567
v -0.372081 0.164117 0.117769
v -0.370756 0.163672 0.114821
v -0.374718 0.163878 0.113087
v -0.378661 0.164422 0.114046
v -0.375363 0.164312 0.116567
v -0.372081 0.164117 0.117769
v -0.366987 0.163653 0.118118
v -0.370756 0.163672 0.114821
v -0.366987 0.163653 0.118118
v -0.362166 0.163258 0.116519
v -0.36411 0.163059 0.11402
v -0.366987 0.163653 0.118118
v -0.36411 0.163059 0.11402
v -0.367401 0.163354 0.114937
v -0.367401 0.163354 0.114937
v -0.370756 0.163672 0.114821
v -0.366987 0.163653 0.118118
v -0.361686 0.16276 0.112007
v -0.36411 0.163059 0.11402
v -0.359388 0.162923 0.114227
v -0.362166 0.163258 0.116519
v -0.359388 0.162923 0.114227
v -0.36411 0.163059 0.11402
vn 0.0975 0.9896 -0.1055
vn 0.0975 0.9896 -0.1055
vn 0.0975 0.9896 -0.1055
vn 0.0975 0.9896 -0.1055
vn 0.0975 0.9896 -0.1055
vn 0.0975 0.9896 -0.1055
vn 0.0975 0.9896 -0.1055
vn 0.0975 0.9896 -0.1055
vn 0.0975 0.9896 -0.1055
vn 0.0975 0.9896 -0.1055
vn 0.0975 0.9896 -0.1055
vn 0.0975 0.9896 -0.1055
vn 0.0337 0.9945 -0.0991
vn 0.0337 0.9945 -0.0991
vn 0.0337 0.9945 -0.0991
vn 0.0756 0.9897 -0.1215
vn 0.0756 0.9897 -0.1215
vn 0.0756 0.9897 -0.1215
vn 0.0281 0.9941 -0.1045
vn 0.0281 0.9941 -0.1045
vn 0.0281 0.9941 -0.1045
vn 0.0281 0.9941 -0.1045
vn 0.0281 0.9941 -0.1045
vn 0.0281 0.9941 -0.1045
vn 0.0975 0.9896 -0.1055
vn 0.0975 0.9896 -0.1055
vn 0.0975 0.9896 -0.1055
vn 0.114 0.9871 -0.1121
vn 0.114 0.9871 -0.1121
vn 0.114 0.9871 -0.1121
vn 0.0975 0.9896 -0.1055
vn 0.0975 0.9896 -0.1055
vn 0.0975 0.9896 -0.1055
vn 0.1186 0.9875 -0.104
vn 0.1186 0.9875 -0.104
vn 0.1186 0.9875 -0.104
vn 0.1139 0.9872 -0.1117
vn 0.1139 0.9872 -0.1117
vn 0.1139 0.9872 -0.1117
vn 0.1196 0.9866 -0.1108
vn 0.1196 0.9866 -0.1108
vn 0.1196 0.9866 -0.1108
vn 0.1202 0.9865 -0.1109
vn 0.1202 0.9865 -0.1109
vn 0.1202 0.9865 -0.1109
vn 0.1203 0.9866 -0.1102
vn 0.1203 0.9866 -0.1102
vn 0.1203 0.9866 -0.1102
vn 0.1087 0.9875 -0.1139
vn 0.1087 0.9875 -0.1139
vn 0.1087 0.9875 -0.1139
vn 0.0975 0.9896 -0.1055
vn 0.0975 0.9896 -0.1055
vn 0.0975 0.9896 -0.1055
vn 0.0975 0.9896 -0.1055
vn 0.1115 0.9884 -0.1028
vn 0.1115 0.9884 -0.1028
vn 0.1115 0.9884 -0.1028
vn 0.0975 0.9896 -0.1055
vn 0.0975 0.9896 -0.1055
vn 0.0975 0.9896 -0.1055
vn 0.0437 0.9926 -0.113
vn 0.0437 0.9926 -0.113
vn 0.0437 0.9926 -0.113
vn 0.0608 0.993 -0.1011
vn 0.0608 0.993 -0.1011
vn 0.0608 0.993 -0.1011
vn 0.0975 0.9896 -0.1055
vn 0.0975 0.9896 -0.1055
vn 0.0975 0.9896 -0.1055
vn 0.0334 0.9937 -0.1074
vn 0.0334 0.9937 -0.1074
vn 0.0334 0.9937 -0.1074
vn 0.0333 0.9939 -0.105
vn 0.0333 0.9939 -0.105
vn 0.0333 0.9939 -0.105
vt 0.307445 0.567428
vt 0.305905 0.565925
vt 0.304873 0.568043
vt 0.304873 0.568043
vt 0.303347 0.566973
vt 0.303224 0.569529
vt 0.304873 0.568043
vt 0.305905 0.565925
vt 0.303347 0.566973
vt 0.307445 0.567428
vt 0.308555 0.565909
vt 0.305905 0.565925
vt 0.308555 0.565909
vt 0.309651 0.567919
vt 0.310853 0.566659
vt 0.308555 0.565909
vt 0.307445 0.567428
vt 0.309651 0.567919
vt 0.311038 0.568976
vt 0.310853 0.566659
vt 0.309651 0.567919
vt 0.311038 0.568976
vt 0.312214 0.567843
vt 0.310853 0.566659
vt 0.301555 0.568812
vt 0.303224 0.569529
vt 0.303347 0.566973
vt 0.301555 0.568812
vt 0.300734 0.570776
vt 0.302557 0.571278
vt 0.303224 0.569529
vt 0.301555 0.568812
vt 0.302557 0.571278
vt 0.300522 0.572508
vt 0.30246 0.572806
vt 0.302557 0.571278
vt 0.300522 0.572508
vt 0.302557 0.571278
vt 0.300734 0.570776
vt 0.300871 0.574655
vt 0.30246 0.572806
vt 0.300522 0.572508
vt 0.302811 0.574485
vt 0.300871 0.574655
vt 0.302203 0.576868
vt 0.30246 0.572806
vt 0.300871 0.574655
vt 0.302811 0.574485
vt 0.304263 0.576367
vt 0.302811 0.574485
vt 0.302203 0.576868
vt 0.304263 0.576367
vt 0.303926 0.578184
vt 0.30564 0.578813
vt 0.306332 0.577273
vt 0.304263 0.576367
vt 0.302203 0.576868
vt 0.303926 0.578184
vt 0.30564 0.578813
vt 0.308302 0.578995
vt 0.306332 0.577273
vt 0.308302 0.578995
vt 0.310819 0.57816
vt 0.309804 0.576854
vt 0.308302 0.578995
vt 0.309804 0.576854
vt 0.308085 0.577333
vt 0.308085 0.577333
vt 0.306332 0.577273
vt 0.308302 0.578995
vt 0.31107 0.575803
vt 0.309804 0.576854
vt 0.312271 0.576962
vt 0.310819 0.57816
vt 0.312271 0.576962
vt 0.309804 0.576854
s off
f 1/1/1 2/2/2 3/3/3
f 4/4/4 5/5/5 6/6/6
f 7/7/7 8/8/8 9/9/9
f 10/10/10 11/11/11 12/12/12
f 13/13/13 14/14/14 15/15/15
f 16/16/16 17/17/17 18/18/18
f 19/19/19 20/20/20 21/21/21
f 22/22/22 23/23/23 24/24/24
f 25/25/25 26/26/26 27/27/27
f 28/28/28 29/29/29 30/30/30
f 31/31/31 32/32/32 33/33/33
f 34/34/34 35/35/35 36/36/36
f 37/37/37 38/38/38 39/39/39
f 40/40/40 41/41/41 42/42/42
f 43/43/43 44/44/44 45/45/45
f 46/46/46 47/47/47 48/48/48
f 49/49/49 50/50/50 51/51/51
f 52/52/52 53/53/53 54/54/54
f 52/52/52 54/54/54 55/55/55
f 56/56/56 57/57/57 58/58/58
f 59/59/59 60/60/60 61/61/61
f 62/62/62 63/63/63 64/64/64
f 65/65/65 66/66/66 67/67/67
f 68/68/68 69/69/69 70/70/70
f 71/71/71 72/72/72 73/73/73
f 74/74/74 75/75/75 76/76/76
