v -0.928256 0.170992 -0.02773
v -0.925225 0.170764 -0.030367
v -0.927075 0.170933 -0.03337
v -0.88203 0.167818 -0.00868
v -0.879178 0.167682 -0.009888
v -0.880899 0.167793 -0.012076
v -0.854441 0.167398 -0.023388
v -0.851726 0.167354 -0.022672
v -0.851999 0.167392 -0.026015
v -0.904604 0.168964 0.004597
v -0.908815 0.169212 0.004887
v -0.904956 0.168968 0.007152
v -0.862847 0.167286 -0.001257
v -0.865737 0.167438 -0.012348
v -0.865737 0.167236 0.00757
v -0.893934 0.168357 0.000487
v -0.890674 0.168185 -0.00059
v -0.893417 0.168344 -0.002111
v -0.87165 0.16747 -0.007692
v -0.871765 0.167507 -0.011191
v -0.874818 0.167534 -0.009799
v -0.892264 0.168238 0.003519
v -0.89533 0.168425 0.002792
v -0.895527 0.168413 0.006371
v -0.855996 0.16737 -0.01859
v -0.856457 0.167402 -0.021069
v -0.858668 0.167427 -0.020632
v -0.86708 0.167541 -0.020673
v -0.864981 0.167499 -0.019348
v -0.86606 0.167548 -0.022784
v -0.872804 0.167747 -0.033373
v -0.869652 0.167677 -0.030675
v -0.870137 0.167718 -0.034042
v -0.866113 0.167627 -0.030481
v -0.863265 0.1676 -0.031543
v -0.863695 0.16763 -0.033906
v -0.925423 0.170759 -0.027288
v -0.928256 0.170992 -0.02773
v -0.926779 0.170841 -0.02298
v -0.874415 0.167825 -0.035054
v -0.871311 0.167838 -0.035974
v -0.873395 0.167948 -0.037529
v -0.883916 0.167935 -0.010564
v -0.88203 0.167818 -0.00868
v -0.880899 0.167793 -0.012076
v -0.903387 0.169103 -0.025705
v -0.904402 0.169136 -0.023518
v -0.893857 0.168584 -0.023518
v -0.864981 0.167499 -0.019348
v -0.862146 0.167477 -0.020889
v -0.86606 0.167548 -0.022784
v -0.85495 0.167392 -0.022107
v -0.856457 0.167402 -0.021069
v -0.853452 0.16735 -0.019968
v -0.879349 0.167512 0.007623
v -0.876486 0.167404 0.005202
v -0.880031 0.167577 0.004786
v -0.872804 0.167747 -0.033373
v -0.871311 0.167838 -0.035974
v -0.874415 0.167825 -0.035054
v -0.911977 0.169644 -0.023126
v -0.913583 0.169765 -0.021773
v -0.910016 0.169473 -0.021238
v -0.924581 0.170674 -0.024646
v -0.926779 0.170841 -0.02298
v -0.923007 0.170533 -0.022632
v -0.911955 0.169711 -0.033625
v -0.910101 0.169603 -0.035393
v -0.91207 0.169804 -0.037124
v -0.909479 0.169412 -0.018519
v -0.906589 0.169233 -0.018519
v -0.904402 0.169136 -0.023518
v -0.893857 0.168584 -0.023518
v -0.89167 0.16842 -0.018519
v -0.888702 0.168265 -0.018519
v -0.897685 0.169035 -0.038359
v -0.894794 0.168655 -0.025705
v -0.888702 0.168265 -0.018519
v -0.900496 0.169182 -0.038359
v -0.89909 0.169011 -0.035469
v -0.897685 0.169035 -0.038359
v -0.872463 0.167666 -0.025852
v -0.875891 0.167724 -0.027026
v -0.875985 0.1677 -0.024508
v -0.870844 0.167661 -0.027484
v -0.873489 0.167707 -0.028531
v -0.872463 0.167666 -0.025852
v -0.913583 0.169765 -0.021773
v -0.914418 0.169811 -0.018493
v -0.910016 0.169473 -0.021238
v -0.885733 0.168421 -0.038359
v -0.882922 0.16805 -0.026955
v -0.882922 0.16818 -0.03586
v -0.876649 0.167893 -0.03583
v -0.876387 0.168024 -0.038327
v -0.882922 0.16818 -0.03586
v -0.866509 0.167667 -0.033845
v -0.866113 0.167627 -0.030481
v -0.863695 0.16763 -0.033906
v -0.907626 0.169161 0.001901
v -0.911525 0.169455 0.000135
v -0.908815 0.169212 0.004887
v -0.923695 0.170461 0.00507
v -0.912994 0.169524 0.00757
v -0.912994 0.169541 0.00507
v -0.897517 0.168634 -0.009302
v -0.894498 0.168486 -0.010561
v -0.89844 0.16871 -0.012386
v -0.911525 0.169455 0.000135
v -0.908831 0.169255 -0.001631
v -0.911483 0.169483 -0.004788
v -0.893417 0.168344 -0.002111
v -0.890674 0.168185 -0.00059
v -0.89079 0.168237 -0.005117
v -0.897517 0.168544 0.004445
v -0.895527 0.168413 0.006371
v -0.89533 0.168425 0.002792
v -0.89533 0.168425 0.002792
v -0.892264 0.168238 0.003519
v -0.893934 0.168357 0.000487
v -0.869696 0.167318 0.004713
v -0.873278 0.167372 0.00416
v -0.874172 0.16735 0.00745
v -0.871672 0.167364 0.002807
v -0.873278 0.167372 0.00416
v -0.869696 0.167318 0.004713
v -0.87165 0.16747 -0.007692
v -0.869796 0.167463 -0.009461
v -0.871765 0.167507 -0.011191
v -0.865737 0.167236 0.00757
v -0.862847 0.167192 0.00757
v -0.862847 0.167249 0.002415
v -0.859254 0.167236 -0.001335
v -0.862847 0.167286 -0.001257
v -0.862847 0.167249 0.002415
v -0.865737 0.167438 -0.012348
v -0.862847 0.167286 -0.001257
v -0.862847 0.167399 -0.012348
v -0.864981 0.167499 -0.019348
v -0.860752 0.16743 -0.01816
v -0.862146 0.167477 -0.020889
v -0.887721 0.168026 -1.6e-05
v -0.885136 0.167927 -0.003523
v -0.887659 0.168071 -0.004788
v -0.858236 0.167673 -0.036187
v -0.854975 0.167737 -0.038012
v -0.858087 0.167814 -0.038587
v -0.925423 0.170759 -0.027288
v -0.926779 0.170841 -0.02298
v -0.924581 0.170674 -0.024646
v -0.911955 0.169711 -0.033625
v -0.91207 0.169804 -0.037124
v -0.915123 0.169982 -0.035732
v -0.880031 0.167577 0.004786
v -0.883399 0.167738 0.006131
v -0.879349 0.167512 0.007623
v -0.895527 0.168413 0.006371
v -0.897517 0.168544 0.004445
v -0.900088 0.168674 0.007806
v -0.865368 0.167778 -0.03632
v -0.863695 0.16763 -0.033906
v -0.861753 0.1677 -0.035841
v -0.860945 0.167555 -0.030231
v -0.863454 0.167568 -0.028187
v -0.85668 0.167458 -0.026266
v -0.908831 0.169255 -0.001631
v -0.911525 0.169455 0.000135
v -0.907626 0.169161 0.001901
v -0.875891 0.167724 -0.027026
v -0.872463 0.167666 -0.025852
v -0.873489 0.167707 -0.028531
v -0.922335 0.170558 -0.034613
v -0.919483 0.170335 -0.03582
v -0.921205 0.170498 -0.038008
v -0.85253 0.167633 -0.036814
v -0.85543 0.167598 -0.035557
v -0.853468 0.167511 -0.034549
v -0.865368 0.167778 -0.03632
v -0.866509 0.167667 -0.033845
v -0.863695 0.16763 -0.033906
v -0.908402 0.169253 -0.005125
v -0.909793 0.169372 -0.008661
v -0.911483 0.169483 -0.004788
v -0.885968 0.167898 0.003617
v -0.884778 0.167871 0.000163
v -0.887721 0.168026 -1.6e-05
v -0.853452 0.16735 -0.019968
v -0.851726 0.167354 -0.022672
v -0.85495 0.167392 -0.022107
v -0.882922 0.168025 -0.024455
v -0.885733 0.168111 -0.018519
v -0.882922 0.167964 -0.018519
v -0.872611 0.167712 -0.030188
v -0.870844 0.167661 -0.027484
v -0.869652 0.167677 -0.030675
v -0.907144 0.169193 -0.007343
v -0.909793 0.169372 -0.008661
v -0.908402 0.169253 -0.005125
v -0.924222 0.170723 -0.036497
v -0.922335 0.170558 -0.034613
v -0.921205 0.170498 -0.038008
v -0.861753 0.1677 -0.035841
v -0.858236 0.167673 -0.036187
v -0.862409 0.167853 -0.038268
v -0.888702 0.168265 -0.018519
v -0.894794 0.168655 -0.025705
v -0.893857 0.168584 -0.023518
v -0.899923 0.168782 -0.010069
v -0.89844 0.16871 -0.012386
v -0.90289 0.168974 -0.0125
v -0.920198 0.170278 -0.018379
v -0.916791 0.170018 -0.020731
v -0.920336 0.170307 -0.021147
v -0.90288 0.168957 -0.009946
v -0.905986 0.169152 -0.011569
v -0.90505 0.16908 -0.009145
v -0.884778 0.167871 0.000163
v -0.885968 0.167898 0.003617
v -0.883036 0.167751 0.00305
v -0.887721 0.168026 -1.6e-05
v -0.884778 0.167871 0.000163
v -0.885136 0.167927 -0.003523
v -0.89533 0.1685 -0.007648
v -0.892451 0.168358 -0.008473
v -0.894498 0.168486 -0.010561
v -0.872611 0.167712 -0.030188
v -0.869652 0.167677 -0.030675
v -0.872804 0.167747 -0.033373
v -0.89844 0.16871 -0.012386
v -0.899923 0.168782 -0.010069
v -0.897517 0.168634 -0.009302
v -0.897517 0.168634 -0.009302
v -0.89533 0.1685 -0.007648
v -0.894498 0.168486 -0.010561
v -0.880031 0.167577 0.004786
v -0.883036 0.167751 0.00305
v -0.883399 0.167738 0.006131
v -0.879178 0.167682 -0.009888
v -0.874818 0.167534 -0.009799
v -0.876265 0.167583 -0.012662
v -0.892264 0.168238 0.003519
v -0.890674 0.168185 -0.00059
v -0.893934 0.168357 0.000487
v -0.904604 0.168964 0.004597
v -0.904956 0.168968 0.007152
v -0.900088 0.168674 0.007806
v -0.900323 0.168705 0.005282
v -0.90288 0.168957 -0.009946
v -0.90289 0.168974 -0.0125
v -0.905986 0.169152 -0.011569
v -0.853311 0.167426 -0.027602
v -0.854811 0.167418 -0.024861
v -0.851999 0.167392 -0.026015
v -0.860752 0.16743 -0.01816
v -0.858668 0.167427 -0.020632
v -0.862146 0.167477 -0.020889
v -0.89533 0.1685 -0.007648
v -0.89384 0.168396 -0.005125
v -0.892451 0.168358 -0.008473
v -0.852068 0.167248 -0.012348
v -0.857379 0.16723 -0.003366
v -0.848865 0.167199 -0.012348
v -0.924222 0.170723 -0.036497
v -0.927075 0.170933 -0.03337
v -0.924292 0.170703 -0.032601
v -0.922335 0.170558 -0.034613
v -0.905986 0.169152 -0.011569
v -0.909793 0.169372 -0.008661
v -0.907144 0.169193 -0.007343
v -0.90505 0.16908 -0.009145
v -0.928256 0.170992 -0.02773
v -0.925423 0.170759 -0.027288
v -0.925225 0.170764 -0.030367
v -0.854975 0.167737 -0.038012
v -0.85543 0.167598 -0.035557
v -0.85253 0.167633 -0.036814
v -0.876387 0.168024 -0.038327
v -0.876649 0.167893 -0.03583
v -0.874415 0.167825 -0.035054
v -0.873395 0.167948 -0.037529
v -0.916791 0.170018 -0.020731
v -0.920198 0.170278 -0.018379
v -0.914418 0.169811 -0.018493
v -0.848319 0.166973 0.00757
v -0.857379 0.16723 -0.003366
v -0.851677 0.167023 0.00757
v -0.919483 0.170335 -0.03582
v -0.915123 0.169982 -0.035732
v -0.91657 0.170181 -0.038595
v -0.903387 0.169103 -0.025705
v -0.89909 0.169011 -0.035469
v -0.900496 0.169182 -0.038359
v -0.909479 0.169412 -0.018519
v -0.855327 0.167464 -0.028685
v -0.85668 0.167458 -0.026266
v -0.853311 0.167426 -0.027602
v -0.865737 0.167236 0.00757
v -0.862847 0.167249 0.002415
v -0.862847 0.167286 -0.001257
v -0.914418 0.169811 -0.018493
v -0.913583 0.169765 -0.021773
v -0.916791 0.170018 -0.020731
v -0.91657 0.170181 -0.038595
v -0.921205 0.170498 -0.038008
v -0.919483 0.170335 -0.03582
v -0.872804 0.167747 -0.033373
v -0.870137 0.167718 -0.034042
v -0.871311 0.167838 -0.035974
v -0.865368 0.167778 -0.03632
v -0.861753 0.1677 -0.035841
v -0.862409 0.167853 -0.038268
v -0.925225 0.170764 -0.030367
v -0.924292 0.170703 -0.032601
v -0.927075 0.170933 -0.03337
v -0.858668 0.167427 -0.020632
v -0.860752 0.16743 -0.01816
v -0.855996 0.16737 -0.01859
v -0.863454 0.167568 -0.028187
v -0.860945 0.167555 -0.030231
v -0.863265 0.1676 -0.031543
v -0.874172 0.16735 0.00745
v -0.873278 0.167372 0.00416
v -0.876486 0.167404 0.005202
v -0.897685 0.169035 -0.038359
v -0.89909 0.169011 -0.035469
v -0.894794 0.168655 -0.025705
v -0.886357 0.168036 -0.008011
v -0.887659 0.168071 -0.004788
v -0.885136 0.167927 -0.003523
v -0.883987 0.167899 -0.006668
v -0.851726 0.167354 -0.022672
v -0.854441 0.167398 -0.023388
v -0.85495 0.167392 -0.022107
v -0.911483 0.169483 -0.004788
v -0.908831 0.169255 -0.001631
v -0.908402 0.169253 -0.005125
v -0.91207 0.169804 -0.037124
v -0.91657 0.170181 -0.038595
v -0.915123 0.169982 -0.035732
v -0.871765 0.167507 -0.011191
v -0.876265 0.167583 -0.012662
v -0.874818 0.167534 -0.009799
v -0.851999 0.167392 -0.026015
v -0.854811 0.167418 -0.024861
v -0.854441 0.167398 -0.023388
v -0.876486 0.167404 0.005202
v -0.879349 0.167512 0.007623
v -0.874172 0.16735 0.00745
v -0.89384 0.168396 -0.005125
v -0.893417 0.168344 -0.002111
v -0.89079 0.168237 -0.005117
v -0.894794 0.168655 -0.025705
v -0.903387 0.169103 -0.025705
v -0.893857 0.168584 -0.023518
v -0.924079 0.170603 -0.020097
v -0.920198 0.170278 -0.018379
v -0.920336 0.170307 -0.021147
v -0.923007 0.170533 -0.022632
v -0.85543 0.167598 -0.035557
v -0.854975 0.167737 -0.038012
v -0.858236 0.167673 -0.036187
v -0.882922 0.168025 -0.024455
v -0.875985 0.1677 -0.024508
v -0.875891 0.167724 -0.027026
v -0.857379 0.16723 -0.003366
v -0.859254 0.167236 -0.001335
v -0.851677 0.167023 0.00757
v -0.883916 0.167935 -0.010564
v -0.886357 0.168036 -0.008011
v -0.883987 0.167899 -0.006668
v -0.88203 0.167818 -0.00868
v -0.883036 0.167751 0.00305
v -0.885968 0.167898 0.003617
v -0.883399 0.167738 0.006131
v -0.853311 0.167426 -0.027602
v -0.85668 0.167458 -0.026266
v -0.854811 0.167418 -0.024861
v -0.862409 0.167853 -0.038268
v -0.858236 0.167673 -0.036187
v -0.858087 0.167814 -0.038587
v -0.900088 0.168674 0.007806
v -0.897517 0.168544 0.004445
v -0.900323 0.168705 0.005282
v -0.876387 0.168024 -0.038327
v -0.885733 0.168421 -0.038359
v -0.882922 0.16818 -0.03586
v -0.863454 0.167568 -0.028187
v -0.863265 0.1676 -0.031543
v -0.866113 0.167627 -0.030481
v -0.875891 0.167724 -0.027026
v -0.882922 0.16805 -0.026955
v -0.882922 0.168025 -0.024455
v -0.856457 0.167402 -0.021069
v -0.855996 0.16737 -0.01859
v -0.853452 0.16735 -0.019968
v -0.90288 0.168957 -0.009946
v -0.899923 0.168782 -0.010069
v -0.90289 0.168974 -0.0125
v -0.923007 0.170533 -0.022632
v -0.926779 0.170841 -0.02298
v -0.924079 0.170603 -0.020097
v -0.882922 0.16805 -0.026955
v -0.885733 0.168421 -0.038359
v -0.885733 0.168111 -0.018519
v -0.882922 0.168025 -0.024455
v -0.89384 0.168396 -0.005125
v -0.89079 0.168237 -0.005117
v -0.892451 0.168358 -0.008473
v -0.872611 0.167712 -0.030188
v -0.873489 0.167707 -0.028531
v -0.870844 0.167661 -0.027484
v -0.904604 0.168964 0.004597
v -0.907626 0.169161 0.001901
v -0.908815 0.169212 0.004887
v -0.909479 0.169412 -0.018519
v -0.904402 0.169136 -0.023518
v -0.903387 0.169103 -0.025705
v -0.852068 0.167248 -0.012348
v -0.862847 0.167286 -0.001257
v -0.859254 0.167236 -0.001335
v -0.857379 0.16723 -0.003366
v -0.923695 0.170461 0.00507
v -0.926586 0.170729 0.00757
v -0.912994 0.169524 0.00757
v -0.923695 0.170461 0.00507
v -0.926586 0.170757 -0.012348
v -0.926586 0.170729 0.00757
v -0.860945 0.167555 -0.030231
v -0.85668 0.167458 -0.026266
v -0.855327 0.167464 -0.028685
v -0.876265 0.167583 -0.012662
v -0.880899 0.167793 -0.012076
v -0.879178 0.167682 -0.009888
v -0.926586 0.170757 -0.012348
v -0.923695 0.170461 0.00507
v -0.923695 0.170521 -0.012348
vn 0.0806 0.9967 0.0065
vn 0.0806 0.9967 0.0065
vn 0.0806 0.9967 0.0065
vn 0.052 0.9986 0.0102
vn 0.052 0.9986 0.0102
vn 0.052 0.9986 0.0102
vn 0.0135 0.9999 0.0101
vn 0.0135 0.9999 0.0101
vn 0.0135 0.9999 0.0101
vn 0.0592 0.9982 0.0066
vn 0.0592 0.9982 0.0066
vn 0.0592 0.9982 0.0066
vn 0.0135 0.9999 0.0102
vn 0.0135 0.9999 0.0102
vn 0.0135 0.9999 0.0102
vn 0.0545 0.9985 0.0056
vn 0.0545 0.9985 0.0056
vn 0.0545 0.9985 0.0056
vn 0.0135 0.9999 0.0101
vn 0.0135 0.9999 0.0101
vn 0.0135 0.9999 0.0101
vn 0.0592 0.9982 0.0066
vn 0.0592 0.9982 0.0066
vn 0.0592 0.9982 0.0066
vn 0.0135 0.9999 0.0102
vn 0.0135 0.9999 0.0102
vn 0.0135 0.9999 0.0102
vn 0.0134 0.9999 0.0102
vn 0.0134 0.9999 0.0102
vn 0.0134 0.9999 0.0102
vn 0.0135 0.9999 0.0102
vn 0.0135 0.9999 0.0102
vn 0.0135 0.9999 0.0102
vn 0.0135 0.9999 0.0101
vn 0.0135 0.9999 0.0101
vn 0.0135 0.9999 0.0101
vn 0.0807 0.9967 0.0066
vn 0.0807 0.9967 0.0066
vn 0.0807 0.9967 0.0066
vn 0.0122 0.9984 0.0547
vn 0.0122 0.9984 0.0547
vn 0.0122 0.9984 0.0547
vn 0.052 0.9986 0.0102
vn 0.052 0.9986 0.0102
vn 0.052 0.9986 0.0102
vn 0.0523 0.9986 0.0089
vn 0.0523 0.9986 0.0089
vn 0.0523 0.9986 0.0089
vn 0.0134 0.9999 0.0102
vn 0.0134 0.9999 0.0102
vn 0.0134 0.9999 0.0102
vn 0.0135 0.9999 0.0102
vn 0.0135 0.9999 0.0102
vn 0.0135 0.9999 0.0102
vn 0.0472 0.9988 0.0113
vn 0.0472 0.9988 0.0113
vn 0.0472 0.9988 0.0113
vn 0.0075 0.9992 0.0391
vn 0.0075 0.9992 0.0391
vn 0.0075 0.9992 0.0391
vn 0.0807 0.9967 0.0065
vn 0.0807 0.9967 0.0065
vn 0.0807 0.9967 0.0065
vn 0.0806 0.9967 0.0066
vn 0.0806 0.9967 0.0066
vn 0.0806 0.9967 0.0066
vn 0.0812 0.9964 0.0238
vn 0.0812 0.9964 0.0238
vn 0.0812 0.9964 0.0238
vn 0.0616 0.9981 0.0076
vn 0.0616 0.9981 0.0076
vn 0.0616 0.9981 0.0076
vn 0.052 0.9986 0.0102
vn 0.052 0.9986 0.0102
vn 0.052 0.9986 0.0102
vn 0.0391 0.999 0.0211
vn 0.0391 0.999 0.0211
vn 0.0391 0.999 0.0211
vn 0.0521 0.9981 0.0338
vn 0.0521 0.9981 0.0338
vn 0.0521 0.9981 0.0338
vn 0.0135 0.9999 0.0102
vn 0.0135 0.9999 0.0102
vn 0.0135 0.9999 0.0102
vn 0.0134 0.9999 0.0102
vn 0.0134 0.9999 0.0102
vn 0.0134 0.9999 0.0102
vn 0.0806 0.9967 0.0066
vn 0.0806 0.9967 0.0066
vn 0.0806 0.9967 0.0066
vn 0.0727 0.9973 0.0145
vn 0.0727 0.9973 0.0145
vn 0.0727 0.9973 0.0145
vn 0.0454 0.9973 0.0572
vn 0.0454 0.9973 0.0572
vn 0.0454 0.9973 0.0572
vn 0.0135 0.9999 0.0101
vn 0.0135 0.9999 0.0101
vn 0.0135 0.9999 0.0101
vn 0.0702 0.9975 0.011
vn 0.0702 0.9975 0.011
vn 0.0702 0.9975 0.011
vn 0.0857 0.9963 0.0065
vn 0.0857 0.9963 0.0065
vn 0.0857 0.9963 0.0065
vn 0.0527 0.9986 0.0086
vn 0.0527 0.9986 0.0086
vn 0.0527 0.9986 0.0086
vn 0.078 0.9969 0.0065
vn 0.078 0.9969 0.0065
vn 0.078 0.9969 0.0065
vn 0.052 0.9986 0.0102
vn 0.052 0.9986 0.0102
vn 0.052 0.9986 0.0102
vn 0.0593 0.9982 0.0066
vn 0.0593 0.9982 0.0066
vn 0.0593 0.9982 0.0066
vn 0.0592 0.9982 0.0066
vn 0.0592 0.9982 0.0066
vn 0.0592 0.9982 0.0066
vn 0.0135 0.9999 0.0101
vn 0.0135 0.9999 0.0101
vn 0.0135 0.9999 0.0101
vn 0.0135 0.9999 0.0102
vn 0.0135 0.9999 0.0102
vn 0.0135 0.9999 0.0102
vn 0.0134 0.9999 0.0101
vn 0.0134 0.9999 0.0101
vn 0.0134 0.9999 0.0101
vn 0.0149 0.9998 0.0109
vn 0.0149 0.9998 0.0109
vn 0.0149 0.9998 0.0109
vn 0.0143 0.9998 0.0102
vn 0.0143 0.9998 0.0102
vn 0.0143 0.9998 0.0102
vn 0.0135 0.9999 0.0102
vn 0.0135 0.9999 0.0102
vn 0.0135 0.9999 0.0102
vn 0.0135 0.9999 0.0102
vn 0.0135 0.9999 0.0102
vn 0.0135 0.9999 0.0102
vn 0.052 0.9986 0.0102
vn 0.052 0.9986 0.0102
vn 0.052 0.9986 0.0102
vn 0.0135 0.9981 0.0594
vn 0.0135 0.9981 0.0594
vn 0.0135 0.9981 0.0594
vn 0.0806 0.9967 0.0065
vn 0.0806 0.9967 0.0065
vn 0.0806 0.9967 0.0065
vn 0.0689 0.9973 0.0242
vn 0.0689 0.9973 0.0242
vn 0.0689 0.9973 0.0242
vn 0.052 0.9986 0.0101
vn 0.052 0.9986 0.0101
vn 0.052 0.9986 0.0101
vn 0.0592 0.9982 0.0066
vn 0.0592 0.9982 0.0066
vn 0.0592 0.9982 0.0066
vn 0.0146 0.9986 0.051
vn 0.0146 0.9986 0.051
vn 0.0146 0.9986 0.051
vn 0.0135 0.9999 0.0102
vn 0.0135 0.9999 0.0102
vn 0.0135 0.9999 0.0102
vn 0.0746 0.9972 0.0013
vn 0.0746 0.9972 0.0013
vn 0.0746 0.9972 0.0013
vn 0.0135 0.9999 0.0102
vn 0.0135 0.9999 0.0102
vn 0.0135 0.9999 0.0102
vn 0.082 0.9966 0.0099
vn 0.082 0.9966 0.0099
vn 0.082 0.9966 0.0099
vn 0.0135 0.9981 0.0593
vn 0.0135 0.9981 0.0593
vn 0.0135 0.9981 0.0593
vn 0.0143 0.9986 0.0512
vn 0.0143 0.9986 0.0512
vn 0.0143 0.9986 0.0512
vn 0.0751 0.9972 0.0041
vn 0.0751 0.9972 0.0041
vn 0.0751 0.9972 0.0041
vn 0.052 0.9986 0.0102
vn 0.052 0.9986 0.0102
vn 0.052 0.9986 0.0102
vn 0.0135 0.9999 0.0102
vn 0.0135 0.9999 0.0102
vn 0.0135 0.9999 0.0102
vn 0.052 0.9986 0.0102
vn 0.052 0.9986 0.0102
vn 0.052 0.9986 0.0102
vn 0.0135 0.9999 0.0101
vn 0.0135 0.9999 0.0101
vn 0.0135 0.9999 0.0101
vn 0.0632 0.998 0.0088
vn 0.0632 0.998 0.0088
vn 0.0632 0.998 0.0088
vn 0.0785 0.9969 0.0087
vn 0.0785 0.9969 0.0087
vn 0.0785 0.9969 0.0087
vn 0.0135 0.9981 0.0593
vn 0.0135 0.9981 0.0593
vn 0.0135 0.9981 0.0593
vn 0.052 0.9986 0.0102
vn 0.052 0.9986 0.0102
vn 0.052 0.9986 0.0102
vn 0.0592 0.9982 0.0066
vn 0.0592 0.9982 0.0066
vn 0.0592 0.9982 0.0066
vn 0.0806 0.9967 0.0066
vn 0.0806 0.9967 0.0066
vn 0.0806 0.9967 0.0066
vn 0.0592 0.9982 0.0066
vn 0.0592 0.9982 0.0066
vn 0.0592 0.9982 0.0066
vn 0.052 0.9986 0.0102
vn 0.052 0.9986 0.0102
vn 0.052 0.9986 0.0102
vn 0.052 0.9986 0.0102
vn 0.052 0.9986 0.0102
vn 0.052 0.9986 0.0102
vn 0.052 0.9986 0.0102
vn 0.052 0.9986 0.0102
vn 0.052 0.9986 0.0102
vn 0.0134 0.9999 0.0102
vn 0.0134 0.9999 0.0102
vn 0.0134 0.9999 0.0102
vn 0.0592 0.9982 0.0066
vn 0.0592 0.9982 0.0066
vn 0.0592 0.9982 0.0066
vn 0.0535 0.9985 0.0106
vn 0.0535 0.9985 0.0106
vn 0.0535 0.9985 0.0106
vn 0.052 0.9986 0.0102
vn 0.052 0.9986 0.0102
vn 0.052 0.9986 0.0102
vn 0.0338 0.9994 -0.0001
vn 0.0338 0.9994 -0.0001
vn 0.0338 0.9994 -0.0001
vn 0.0555 0.9984 0.0086
vn 0.0555 0.9984 0.0086
vn 0.0555 0.9984 0.0086
vn 0.0592 0.9982 0.0066
vn 0.0592 0.9982 0.0066
vn 0.0592 0.9982 0.0066
vn 0.0592 0.9982 0.0066
vn 0.0593 0.9982 0.0066
vn 0.0593 0.9982 0.0066
vn 0.0593 0.9982 0.0066
vn 0.0135 0.9999 0.0102
vn 0.0135 0.9999 0.0102
vn 0.0135 0.9999 0.0102
vn 0.0135 0.9999 0.0102
vn 0.0135 0.9999 0.0102
vn 0.0135 0.9999 0.0102
vn 0.052 0.9986 0.0101
vn 0.052 0.9986 0.0101
vn 0.052 0.9986 0.0101
vn 0.0151 0.9998 0.011
vn 0.0151 0.9998 0.011
vn 0.0151 0.9998 0.011
vn 0.0806 0.9967 0.0066
vn 0.0806 0.9967 0.0066
vn 0.0806 0.9967 0.0066
vn 0.0806 0.9967 0.0066
vn 0.0622 0.998 0.0074
vn 0.0622 0.998 0.0074
vn 0.0622 0.998 0.0074
vn 0.0622 0.998 0.0074
vn 0.0807 0.9967 0.0066
vn 0.0807 0.9967 0.0066
vn 0.0807 0.9967 0.0066
vn 0.0135 0.9981 0.0593
vn 0.0135 0.9981 0.0593
vn 0.0135 0.9981 0.0593
vn 0.0113 0.9985 0.054
vn 0.0113 0.9985 0.054
vn 0.0113 0.9985 0.054
vn 0.0113 0.9985 0.054
vn 0.0806 0.9967 0.0066
vn 0.0806 0.9967 0.0066
vn 0.0806 0.9967 0.0066
vn 0.0151 0.9998 0.011
vn 0.0151 0.9998 0.011
vn 0.0151 0.9998 0.011
vn 0.0802 0.9964 0.029
vn 0.0802 0.9964 0.029
vn 0.0802 0.9964 0.029
vn 0.0776 0.9967 0.024
vn 0.0776 0.9967 0.024
vn 0.0776 0.9967 0.024
vn 0.0776 0.9967 0.024
vn 0.0135 0.9999 0.0102
vn 0.0135 0.9999 0.0102
vn 0.0135 0.9999 0.0102
vn 0.0137 0.9999 0.0102
vn 0.0137 0.9999 0.0102
vn 0.0137 0.9999 0.0102
vn 0.0807 0.9967 0.0066
vn 0.0807 0.9967 0.0066
vn 0.0807 0.9967 0.0066
vn 0.0706 0.9973 0.019
vn 0.0706 0.9973 0.019
vn 0.0706 0.9973 0.019
vn 0.0229 0.9986 0.0479
vn 0.0229 0.9986 0.0479
vn 0.0229 0.9986 0.0479
vn 0.0135 0.9981 0.0593
vn 0.0135 0.9981 0.0593
vn 0.0135 0.9981 0.0593
vn 0.0806 0.9967 0.0066
vn 0.0806 0.9967 0.0066
vn 0.0806 0.9967 0.0066
vn 0.0135 0.9999 0.0102
vn 0.0135 0.9999 0.0102
vn 0.0135 0.9999 0.0102
vn 0.0135 0.9999 0.0102
vn 0.0135 0.9999 0.0102
vn 0.0135 0.9999 0.0102
vn 0.0134 0.9999 0.0101
vn 0.0134 0.9999 0.0101
vn 0.0134 0.9999 0.0101
vn 0.0301 0.9993 0.0231
vn 0.0301 0.9993 0.0231
vn 0.0301 0.9993 0.0231
vn 0.052 0.9986 0.0102
vn 0.052 0.9986 0.0102
vn 0.052 0.9986 0.0102
vn 0.052 0.9986 0.0102
vn 0.0135 0.9999 0.0101
vn 0.0135 0.9999 0.0101
vn 0.0135 0.9999 0.0101
vn 0.0756 0.9971 0.0086
vn 0.0756 0.9971 0.0086
vn 0.0756 0.9971 0.0086
vn 0.0728 0.9968 0.0328
vn 0.0728 0.9968 0.0328
vn 0.0728 0.9968 0.0328
vn 0.0135 0.9999 0.0102
vn 0.0135 0.9999 0.0102
vn 0.0135 0.9999 0.0102
vn 0.0134 0.9999 0.0101
vn 0.0134 0.9999 0.0101
vn 0.0134 0.9999 0.0101
vn 0.031 0.9995 -0.0079
vn 0.031 0.9995 -0.0079
vn 0.031 0.9995 -0.0079
vn 0.052 0.9986 0.0101
vn 0.052 0.9986 0.0101
vn 0.052 0.9986 0.0101
vn 0.052 0.9986 0.0102
vn 0.052 0.9986 0.0102
vn 0.052 0.9986 0.0102
vn 0.0807 0.9967 0.0066
vn 0.0807 0.9967 0.0066
vn 0.0807 0.9967 0.0066
vn 0.0807 0.9967 0.0066
vn 0.0135 0.9981 0.0593
vn 0.0135 0.9981 0.0593
vn 0.0135 0.9981 0.0593
vn 0.0469 0.9988 0.0114
vn 0.0469 0.9988 0.0114
vn 0.0469 0.9988 0.0114
vn 0.0151 0.9998 0.011
vn 0.0151 0.9998 0.011
vn 0.0151 0.9998 0.011
vn 0.052 0.9986 0.0101
vn 0.052 0.9986 0.0101
vn 0.052 0.9986 0.0101
vn 0.052 0.9986 0.0101
vn 0.052 0.9986 0.0102
vn 0.052 0.9986 0.0102
vn 0.052 0.9986 0.0102
vn 0.0135 0.9999 0.0102
vn 0.0135 0.9999 0.0102
vn 0.0135 0.9999 0.0102
vn 0.0135 0.9981 0.0594
vn 0.0135 0.9981 0.0594
vn 0.0135 0.9981 0.0594
vn 0.0592 0.9982 0.0066
vn 0.0592 0.9982 0.0066
vn 0.0592 0.9982 0.0066
vn 0.0422 0.9979 0.0489
vn 0.0422 0.9979 0.0489
vn 0.0422 0.9979 0.0489
vn 0.0135 0.9999 0.0102
vn 0.0135 0.9999 0.0102
vn 0.0135 0.9999 0.0102
vn 0.0464 0.9989 0.0101
vn 0.0464 0.9989 0.0101
vn 0.0464 0.9989 0.0101
vn 0.0135 0.9999 0.0102
vn 0.0135 0.9999 0.0102
vn 0.0135 0.9999 0.0102
vn 0.0592 0.9982 0.0066
vn 0.0592 0.9982 0.0066
vn 0.0592 0.9982 0.0066
vn 0.0806 0.9967 0.0065
vn 0.0806 0.9967 0.0065
vn 0.0806 0.9967 0.0065
vn 0.0665 0.9977 0.015
vn 0.0665 0.9977 0.015
vn 0.0665 0.9977 0.015
vn 0.0665 0.9977 0.015
vn 0.052 0.9986 0.0101
vn 0.052 0.9986 0.0101
vn 0.052 0.9986 0.0101
vn 0.0134 0.9999 0.0102
vn 0.0134 0.9999 0.0102
vn 0.0134 0.9999 0.0102
vn 0.0592 0.9982 0.0066
vn 0.0592 0.9982 0.0066
vn 0.0592 0.9982 0.0066
vn 0.0718 0.9973 0.0179
vn 0.0718 0.9973 0.0179
vn 0.0718 0.9973 0.0179
vn 0.0145 0.9998 0.0105
vn 0.0145 0.9998 0.0105
vn 0.0145 0.9998 0.0105
vn 0.0145 0.9998 0.0105
vn 0.0883 0.9961 -0.0046
vn 0.0883 0.9961 -0.0046
vn 0.0883 0.9961 -0.0046
vn 0.0934 0.9956 0.0014
vn 0.0934 0.9956 0.0014
vn 0.0934 0.9956 0.0014
vn 0.0135 0.9999 0.0102
vn 0.0135 0.9999 0.0102
vn 0.0135 0.9999 0.0102
vn 0.0471 0.9988 0.014
vn 0.0471 0.9988 0.014
vn 0.0471 0.9988 0.014
vn 0.0814 0.9967 0.0034
vn 0.0814 0.9967 0.0034
vn 0.0814 0.9967 0.0034
vt 0.015118 0.50281
vt 0.016701 0.501432
vt 0.015735 0.499864
vt 0.039264 0.512761
vt 0.040754 0.51213
vt 0.039855 0.510987
vt 0.053676 0.505078
vt 0.055094 0.505452
vt 0.054951 0.503706
vt 0.027472 0.519696
vt 0.025273 0.519847
vt 0.027289 0.521031
vt 0.049285 0.516639
vt 0.047775 0.510845
vt 0.047775 0.521249
vt 0.033046 0.517549
vt 0.034749 0.516987
vt 0.033317 0.516192
vt 0.044686 0.513277
vt 0.044626 0.511449
vt 0.043032 0.512176
vt 0.033919 0.519133
vt 0.032317 0.518753
vt 0.032214 0.520623
vt 0.052863 0.507584
vt 0.052623 0.506289
vt 0.051468 0.506517
vt 0.047074 0.506496
vt 0.04817 0.507188
vt 0.047606 0.505394
vt 0.044083 0.499862
vt 0.04573 0.501271
vt 0.045477 0.499513
vt 0.047579 0.501373
vt 0.049067 0.500818
vt 0.048842 0.499584
vt 0.016598 0.503041
vt 0.015118 0.50281
vt 0.015889 0.505291
vt 0.043242 0.498984
vt 0.044864 0.498503
vt 0.043775 0.497691
vt 0.038279 0.511777
vt 0.039264 0.512761
vt 0.039855 0.510987
vt 0.028109 0.503867
vt 0.027578 0.50501
vt 0.033086 0.50501
vt 0.04817 0.507188
vt 0.049651 0.506383
vt 0.047606 0.505394
vt 0.05341 0.505747
vt 0.052623 0.506289
vt 0.054192 0.506864
vt 0.040665 0.521277
vt 0.04216 0.520012
vt 0.040308 0.519795
vt 0.044083 0.499862
vt 0.044864 0.498503
vt 0.043242 0.498984
vt 0.023621 0.505215
vt 0.022782 0.505922
vt 0.024645 0.506201
vt 0.017038 0.504421
vt 0.015889 0.505291
vt 0.01786 0.505473
vt 0.023633 0.49973
vt 0.024601 0.498807
vt 0.023573 0.497903
vt 0.024926 0.507621
vt 0.026436 0.507621
vt 0.027578 0.50501
vt 0.033086 0.50501
vt 0.034229 0.507621
vt 0.035779 0.507621
vt 0.031087 0.497258
vt 0.032597 0.503867
vt 0.035779 0.507621
vt 0.029618 0.497258
vt 0.030353 0.498767
vt 0.031087 0.497258
vt 0.044262 0.503791
vt 0.042471 0.503177
vt 0.042422 0.504493
vt 0.045107 0.502938
vt 0.043726 0.502391
vt 0.044262 0.503791
vt 0.022782 0.505922
vt 0.022346 0.507635
vt 0.024645 0.506201
vt 0.03733 0.497258
vt 0.038799 0.503215
vt 0.038799 0.498563
vt 0.042075 0.498579
vt 0.042212 0.497275
vt 0.038799 0.498563
vt 0.047372 0.499615
vt 0.047579 0.501373
vt 0.048842 0.499584
vt 0.025894 0.518288
vt 0.023857 0.517366
vt 0.025273 0.519847
vt 0.0175 0.519943
vt 0.02309 0.521249
vt 0.02309 0.519943
vt 0.031175 0.512436
vt 0.032752 0.511778
vt 0.030693 0.510825
vt 0.023857 0.517366
vt 0.025265 0.516443
vt 0.023879 0.514794
vt 0.033317 0.516192
vt 0.034749 0.516987
vt 0.034688 0.514622
vt 0.031175 0.519617
vt 0.032214 0.520623
vt 0.032317 0.518753
vt 0.032317 0.518753
vt 0.033919 0.519133
vt 0.033046 0.517549
vt 0.045707 0.519757
vt 0.043836 0.519468
vt 0.043369 0.521186
vt 0.044675 0.518761
vt 0.043836 0.519468
vt 0.045707 0.519757
vt 0.044686 0.513277
vt 0.045655 0.512353
vt 0.044626 0.511449
vt 0.047775 0.521249
vt 0.049285 0.521249
vt 0.049285 0.518556
vt 0.051162 0.516598
vt 0.049285 0.516639
vt 0.049285 0.518556
vt 0.047775 0.510845
vt 0.049285 0.516639
vt 0.049285 0.510845
vt 0.04817 0.507188
vt 0.050379 0.507809
vt 0.049651 0.506383
vt 0.036292 0.517287
vt 0.037642 0.515454
vt 0.036324 0.514794
vt 0.051694 0.498392
vt 0.053397 0.497439
vt 0.051771 0.497139
vt 0.016598 0.503041
vt 0.015889 0.505291
vt 0.017038 0.504421
vt 0.023633 0.49973
vt 0.023573 0.497903
vt 0.021978 0.49863
vt 0.040308 0.519795
vt 0.038549 0.520498
vt 0.040665 0.521277
vt 0.032214 0.520623
vt 0.031175 0.519617
vt 0.029831 0.521372
vt 0.047968 0.498322
vt 0.048842 0.499584
vt 0.049856 0.498573
vt 0.050278 0.501504
vt 0.048968 0.502571
vt 0.052506 0.503575
vt 0.025265 0.516443
vt 0.023857 0.517366
vt 0.025894 0.518288
vt 0.042471 0.503177
vt 0.044262 0.503791
vt 0.043726 0.502391
vt 0.018211 0.499214
vt 0.0197 0.498584
vt 0.018801 0.497441
vt 0.054674 0.498064
vt 0.053159 0.498721
vt 0.054184 0.499248
vt 0.047968 0.498322
vt 0.047372 0.499615
vt 0.048842 0.499584
vt 0.025489 0.514618
vt 0.024762 0.512771
vt 0.023879 0.514794
vt 0.037207 0.519184
vt 0.037829 0.51738
vt 0.036292 0.517287
vt 0.054192 0.506864
vt 0.055094 0.505452
vt 0.05341 0.505747
vt 0.038799 0.50452
vt 0.03733 0.507621
vt 0.038799 0.507621
vt 0.044185 0.501526
vt 0.045107 0.502938
vt 0.04573 0.501271
vt 0.026146 0.513459
vt 0.024762 0.512771
vt 0.025489 0.514618
vt 0.017225 0.49823
vt 0.018211 0.499214
vt 0.018801 0.497441
vt 0.049856 0.498573
vt 0.051694 0.498392
vt 0.049513 0.497305
vt 0.035779 0.507621
vt 0.032597 0.503867
vt 0.033086 0.50501
vt 0.029918 0.512035
vt 0.030693 0.510825
vt 0.028368 0.510765
vt 0.019327 0.507694
vt 0.021107 0.506466
vt 0.019255 0.506249
vt 0.028373 0.512099
vt 0.026751 0.511252
vt 0.02724 0.512518
vt 0.037829 0.51738
vt 0.037207 0.519184
vt 0.038739 0.518888
vt 0.036292 0.517287
vt 0.037829 0.51738
vt 0.037642 0.515454
vt 0.032317 0.5133
vt 0.033821 0.512869
vt 0.032752 0.511778
vt 0.044185 0.501526
vt 0.04573 0.501271
vt 0.044083 0.499862
vt 0.030693 0.510825
vt 0.029918 0.512035
vt 0.031175 0.512436
vt 0.031175 0.512436
vt 0.032317 0.5133
vt 0.032752 0.511778
vt 0.040308 0.519795
vt 0.038739 0.518888
vt 0.038549 0.520498
vt 0.040754 0.51213
vt 0.043032 0.512176
vt 0.042276 0.510681
vt 0.033919 0.519133
vt 0.034749 0.516987
vt 0.033046 0.517549
vt 0.027472 0.519696
vt 0.027289 0.521031
vt 0.029831 0.521372
vt 0.029709 0.520054
vt 0.028373 0.512099
vt 0.028368 0.510765
vt 0.026751 0.511252
vt 0.054266 0.502877
vt 0.053483 0.504308
vt 0.054951 0.503706
vt 0.050379 0.507809
vt 0.051468 0.506517
vt 0.049651 0.506383
vt 0.032317 0.5133
vt 0.033095 0.514618
vt 0.033821 0.512869
vt 0.054915 0.510845
vt 0.052141 0.515537
vt 0.056588 0.510845
vt 0.017225 0.49823
vt 0.015735 0.499864
vt 0.017189 0.500266
vt 0.018211 0.499214
vt 0.026751 0.511252
vt 0.024762 0.512771
vt 0.026146 0.513459
vt 0.02724 0.512518
vt 0.015118 0.50281
vt 0.016598 0.503041
vt 0.016701 0.501432
vt 0.053397 0.497439
vt 0.053159 0.498721
vt 0.054674 0.498064
vt 0.042212 0.497275
vt 0.042075 0.498579
vt 0.043242 0.498984
vt 0.043775 0.497691
vt 0.021107 0.506466
vt 0.019327 0.507694
vt 0.022346 0.507635
vt 0.056874 0.521249
vt 0.052141 0.515537
vt 0.055119 0.521249
vt 0.0197 0.498584
vt 0.021978 0.49863
vt 0.021222 0.497135
vt 0.028109 0.503867
vt 0.030353 0.498767
vt 0.029618 0.497258
vt 0.024926 0.507621
vt 0.053213 0.502311
vt 0.052506 0.503575
vt 0.054266 0.502877
vt 0.047775 0.521249
vt 0.049285 0.518556
vt 0.049285 0.516639
vt 0.022346 0.507635
vt 0.022782 0.505922
vt 0.021107 0.506466
vt 0.021222 0.497135
vt 0.018801 0.497441
vt 0.0197 0.498584
vt 0.044083 0.499862
vt 0.045477 0.499513
vt 0.044864 0.498503
vt 0.047968 0.498322
vt 0.049856 0.498573
vt 0.049513 0.497305
vt 0.016701 0.501432
vt 0.017189 0.500266
vt 0.015735 0.499864
vt 0.051468 0.506517
vt 0.050379 0.507809
vt 0.052863 0.507584
vt 0.048968 0.502571
vt 0.050278 0.501504
vt 0.049067 0.500818
vt 0.043369 0.521186
vt 0.043836 0.519468
vt 0.04216 0.520012
vt 0.031087 0.497258
vt 0.030353 0.498767
vt 0.032597 0.503867
vt 0.037004 0.51311
vt 0.036324 0.514794
vt 0.037642 0.515454
vt 0.038242 0.513812
vt 0.055094 0.505452
vt 0.053676 0.505078
vt 0.05341 0.505747
vt 0.023879 0.514794
vt 0.025265 0.516443
vt 0.025489 0.514618
vt 0.023573 0.497903
vt 0.021222 0.497135
vt 0.021978 0.49863
vt 0.044626 0.511449
vt 0.042276 0.510681
vt 0.043032 0.512176
vt 0.054951 0.503706
vt 0.053483 0.504308
vt 0.053676 0.505078
vt 0.04216 0.520012
vt 0.040665 0.521277
vt 0.043369 0.521186
vt 0.033095 0.514618
vt 0.033317 0.516192
vt 0.034688 0.514622
vt 0.032597 0.503867
vt 0.028109 0.503867
vt 0.033086 0.50501
vt 0.0173 0.506797
vt 0.019327 0.507694
vt 0.019255 0.506249
vt 0.01786 0.505473
vt 0.053159 0.498721
vt 0.053397 0.497439
vt 0.051694 0.498392
vt 0.038799 0.50452
vt 0.042422 0.504493
vt 0.042471 0.503177
vt 0.052141 0.515537
vt 0.051162 0.516598
vt 0.055119 0.521249
vt 0.038279 0.511777
vt 0.037004 0.51311
vt 0.038242 0.513812
vt 0.039264 0.512761
vt 0.038739 0.518888
vt 0.037207 0.519184
vt 0.038549 0.520498
vt 0.054266 0.502877
vt 0.052506 0.503575
vt 0.053483 0.504308
vt 0.049513 0.497305
vt 0.051694 0.498392
vt 0.051771 0.497139
vt 0.029831 0.521372
vt 0.031175 0.519617
vt 0.029709 0.520054
vt 0.042212 0.497275
vt 0.03733 0.497258
vt 0.038799 0.498563
vt 0.048968 0.502571
vt 0.049067 0.500818
vt 0.047579 0.501373
vt 0.042471 0.503177
vt 0.038799 0.503215
vt 0.038799 0.50452
vt 0.052623 0.506289
vt 0.052863 0.507584
vt 0.054192 0.506864
vt 0.028373 0.512099
vt 0.029918 0.512035
vt 0.028368 0.510765
vt 0.01786 0.505473
vt 0.015889 0.505291
vt 0.0173 0.506797
vt 0.038799 0.503215
vt 0.03733 0.497258
vt 0.03733 0.507621
vt 0.038799 0.50452
vt 0.033095 0.514618
vt 0.034688 0.514622
vt 0.033821 0.512869
vt 0.044185 0.501526
vt 0.043726 0.502391
vt 0.045107 0.502938
vt 0.027472 0.519696
vt 0.025894 0.518288
vt 0.025273 0.519847
vt 0.024926 0.507621
vt 0.027578 0.50501
vt 0.028109 0.503867
vt 0.054915 0.510845
vt 0.049285 0.516639
vt 0.051162 0.516598
vt 0.052141 0.515537
vt 0.0175 0.519943
vt 0.01599 0.521249
vt 0.02309 0.521249
vt 0.0175 0.519943
vt 0.01599 0.510845
vt 0.01599 0.521249
vt 0.050278 0.501504
vt 0.052506 0.503575
vt 0.053213 0.502311
vt 0.042276 0.510681
vt 0.039855 0.510987
vt 0.040754 0.51213
vt 0.01599 0.510845
vt 0.0175 0.519943
vt 0.0175 0.510845
s off
f 1/1/1 2/2/2 3/3/3
f 4/4/4 5/5/5 6/6/6
f 7/7/7 8/8/8 9/9/9
f 10/10/10 11/11/11 12/12/12
f 13/13/13 14/14/14 15/15/15
f 16/16/16 17/17/17 18/18/18
f 19/19/19 20/20/20 21/21/21
f 22/22/22 23/23/23 24/24/24
f 25/25/25 26/26/26 27/27/27
f 28/28/28 29/29/29 30/30/30
f 31/31/31 32/32/32 33/33/33
f 34/34/34 35/35/35 36/36/36
f 37/37/37 38/38/38 39/39/39
f 40/40/40 41/41/41 42/42/42
f 43/43/43 44/44/44 45/45/45
f 46/46/46 47/47/47 48/48/48
f 49/49/49 50/50/50 51/51/51
f 52/52/52 53/53/53 54/54/54
f 55/55/55 56/56/56 57/57/57
f 58/58/58 59/59/59 60/60/60
f 61/61/61 62/62/62 63/63/63
f 64/64/64 65/65/65 66/66/66
f 67/67/67 68/68/68 69/69/69
f 70/70/70 71/71/71 72/72/72
f 73/73/73 74/74/74 75/75/75
f 76/76/76 77/77/77 78/78/78
f 79/79/79 80/80/80 81/81/81
f 82/82/82 83/83/83 84/84/84
f 85/85/85 86/86/86 87/87/87
f 88/88/88 89/89/89 90/90/90
f 91/91/91 92/92/92 93/93/93
f 94/94/94 95/95/95 96/96/96
f 97/97/97 98/98/98 99/99/99
f 100/100/100 101/101/101 102/102/102
f 103/103/103 104/104/104 105/105/105
f 106/106/106 107/107/107 108/108/108
f 109/109/109 110/110/110 111/111/111
f 112/112/112 113/113/113 114/114/114
f 115/115/115 116/116/116 117/117/117
f 118/118/118 119/119/119 120/120/120
f 121/121/121 122/122/122 123/123/123
f 124/124/124 125/125/125 126/126/126
f 127/127/127 128/128/128 129/129/129
f 130/130/130 131/131/131 132/132/132
f 133/133/133 134/134/134 135/135/135
f 136/136/136 137/137/137 138/138/138
f 139/139/139 140/140/140 141/141/141
f 142/142/142 143/143/143 144/144/144
f 145/145/145 146/146/146 147/147/147
f 148/148/148 149/149/149 150/150/150
f 151/151/151 152/152/152 153/153/153
f 154/154/154 155/155/155 156/156/156
f 157/157/157 158/158/158 159/159/159
f 160/160/160 161/161/161 162/162/162
f 163/163/163 164/164/164 165/165/165
f 166/166/166 167/167/167 168/168/168
f 169/169/169 170/170/170 171/171/171
f 172/172/172 173/173/173 174/174/174
f 175/175/175 176/176/176 177/177/177
f 178/178/178 179/179/179 180/180/180
f 181/181/181 182/182/182 183/183/183
f 184/184/184 185/185/185 186/186/186
f 187/187/187 188/188/188 189/189/189
f 190/190/190 191/191/191 192/192/192
f 193/193/193 194/194/194 195/195/195
f 196/196/196 197/197/197 198/198/198
f 199/199/199 200/200/200 201/201/201
f 202/202/202 203/203/203 204/204/204
f 205/205/205 206/206/206 207/207/207
f 208/208/208 209/209/209 210/210/210
f 211/211/211 212/212/212 213/213/213
f 214/214/214 215/215/215 216/216/216
f 217/217/217 218/218/218 219/219/219
f 220/220/220 221/221/221 222/222/222
f 223/223/223 224/224/224 225/225/225
f 226/226/226 227/227/227 228/228/228
f 229/229/229 230/230/230 231/231/231
f 232/232/232 233/233/233 234/234/234
f 235/235/235 236/236/236 237/237/237
f 238/238/238 239/239/239 240/240/240
f 241/241/241 242/242/242 243/243/243
f 244/244/244 245/245/245 246/246/246
f 244/244/244 246/246/246 247/247/247
f 248/248/248 249/249/249 250/250/250
f 251/251/251 252/252/252 253/253/253
f 254/254/254 255/255/255 256/256/256
f 257/257/257 258/258/258 259/259/259
f 260/260/260 261/261/261 262/262/262
f 263/263/263 264/264/264 265/265/265
f 263/263/263 265/265/265 266/266/266
f 267/267/267 268/268/268 269/269/269
f 267/267/267 269/269/269 270/270/270
f 271/271/271 272/272/272 273/273/273
f 274/274/274 275/275/275 276/276/276
f 277/277/277 278/278/278 279/279/279
f 277/277/277 279/279/279 280/280/280
f 281/281/281 282/282/282 283/283/283
f 284/284/284 285/285/285 286/286/286
f 287/287/287 288/288/288 289/289/289
f 290/290/290 291/291/291 292/292/292
f 290/290/290 292/292/292 293/293/293
f 294/294/294 295/295/295 296/296/296
f 297/297/297 298/298/298 299/299/299
f 300/300/300 301/301/301 302/302/302
f 303/303/303 304/304/304 305/305/305
f 306/306/306 307/307/307 308/308/308
f 309/309/309 310/310/310 311/311/311
f 312/312/312 313/313/313 314/314/314
f 315/315/315 316/316/316 317/317/317
f 318/318/318 319/319/319 320/320/320
f 321/321/321 322/322/322 323/323/323
f 324/324/324 325/325/325 326/326/326
f 327/327/327 328/328/328 329/329/329
f 327/327/327 329/329/329 330/330/330
f 331/331/331 332/332/332 333/333/333
f 334/334/334 335/335/335 336/336/336
f 337/337/337 338/338/338 339/339/339
f 340/340/340 341/341/341 342/342/342
f 343/343/343 344/344/344 345/345/345
f 346/346/346 347/347/347 348/348/348
f 349/349/349 350/350/350 351/351/351
f 352/352/352 353/353/353 354/354/354
f 355/355/355 356/356/356 357/357/357
f 355/355/355 357/357/357 358/358/358
f 359/359/359 360/360/360 361/361/361
f 362/362/362 363/363/363 364/364/364
f 365/365/365 366/366/366 367/367/367
f 368/368/368 369/369/369 370/370/370
f 368/368/368 370/370/370 371/371/371
f 372/372/372 373/373/373 374/374/374
f 375/375/375 376/376/376 377/377/377
f 378/378/378 379/379/379 380/380/380
f 381/381/381 382/382/382 383/383/383
f 384/384/384 385/385/385 386/386/386
f 387/387/387 388/388/388 389/389/389
f 390/390/390 391/391/391 392/392/392
f 393/393/393 394/394/394 395/395/395
f 396/396/396 397/397/397 398/398/398
f 399/399/399 400/400/400 401/401/401
f 402/402/402 403/403/403 404/404/404
f 402/402/402 404/404/404 405/405/405
f 406/406/406 407/407/407 408/408/408
f 409/409/409 410/410/410 411/411/411
f 412/412/412 413/413/413 414/414/414
f 415/415/415 416/416/416 417/417/417
f 418/418/418 419/419/419 420/420/420
f 418/418/418 420/420/420 421/421/421
f 422/422/422 423/423/423 424/424/424
f 425/425/425 426/426/426 427/427/427
f 428/428/428 429/429/429 430/430/430
f 431/431/431 432/432/432 433/433/433
f 434/434/434 435/435/435 436/436/436
