v -0.780425 0.167254 -0.050974
v -0.769224 0.128909 -0.061795
v -0.807474 0.128909 -0.061795
v -0.813046 0.165891 -0.051359
v -0.780425 0.167254 -0.050974
v -0.754234 0.168986 -0.050485
v -0.747047 0.128909 -0.061795
v -0.769224 0.128909 -0.061795
v -0.754234 0.168986 -0.050485
v -0.748114 0.169389 -0.044041
v -0.738142 0.128789 -0.058149
v -0.747047 0.128909 -0.061795
v -0.748114 0.169389 -0.044041
v -0.734454 0.1285 -0.049346
v -0.738142 0.128789 -0.058149
v -0.748173 0.1693 0.040697
v -0.734454 0.125228 0.050228
v -0.734454 0.1285 -0.049346
v -0.748114 0.169389 -0.044041
v -0.738126 0.124934 0.059195
v -0.734454 0.125228 0.050228
v -0.748173 0.1693 0.040697
v -0.754193 0.168822 0.047176
v -0.746992 0.124812 0.062909
v -0.738126 0.124934 0.059195
v -0.754193 0.168822 0.047176
v -0.754193 0.168822 0.047176
v -0.78047 0.16665 0.047952
v -0.769224 0.124812 0.062909
v -0.746992 0.124812 0.062909
v -0.813059 0.164945 0.048562
v -0.807474 0.124812 0.062909
v -0.769224 0.124812 0.062909
v -0.78047 0.16665 0.047952
v -0.845165 0.164524 0.048712
v -0.845165 0.124812 0.062909
v -0.807474 0.124812 0.062909
v -0.813059 0.164945 0.048562
v -0.882857 0.124812 0.062909
v -0.845165 0.124812 0.062909
v -0.845165 0.164524 0.048712
v -0.877272 0.164945 0.048562
v -0.909861 0.16665 0.047952
v -0.921107 0.124812 0.062909
v -0.882857 0.124812 0.062909
v -0.877272 0.164945 0.048562
v -0.909861 0.16665 0.047952
v -0.936138 0.168822 0.047176
v -0.943339 0.124812 0.062909
v -0.921107 0.124812 0.062909
v -0.952205 0.124934 0.059195
v -0.943339 0.124812 0.062909
v -0.936138 0.168822 0.047176
v -0.955877 0.125228 0.050228
v -0.952205 0.124934 0.059195
v -0.936138 0.168822 0.047176
v -0.942158 0.1693 0.040697
v -0.955877 0.1285 -0.049346
v -0.955877 0.125228 0.050228
v -0.942158 0.1693 0.040697
v -0.942217 0.169389 -0.044041
v -0.952189 0.128789 -0.058149
v -0.955877 0.1285 -0.049346
v -0.942217 0.169389 -0.044041
v -0.943283 0.128909 -0.061795
v -0.952189 0.128789 -0.058149
v -0.942217 0.169389 -0.044041
v -0.936097 0.168986 -0.050485
v -0.936097 0.168986 -0.050485
v -0.909906 0.167254 -0.050974
v -0.921107 0.128909 -0.061795
v -0.943283 0.128909 -0.061795
v -0.877285 0.165891 -0.051359
v -0.882857 0.128909 -0.061795
v -0.921107 0.128909 -0.061795
v -0.909906 0.167254 -0.050974
v -0.877285 0.165891 -0.051359
v -0.909906 0.167254 -0.050974
v -0.909139 0.169797 -0.047445
v -0.876888 0.168396 -0.047827
v -0.935281 0.171614 -0.046956
v -0.909139 0.169797 -0.047445
v -0.909906 0.167254 -0.050974
v -0.936097 0.168986 -0.050485
v -0.938602 0.171784 -0.042878
v -0.909155 0.169343 -0.034027
v -0.909139 0.169797 -0.047445
v -0.935281 0.171614 -0.046956
v -0.876902 0.167666 -0.034254
v -0.876888 0.168396 -0.047827
v -0.909139 0.169797 -0.047445
v -0.909155 0.169343 -0.034027
v -0.876918 0.167001 0.031255
v -0.876902 0.167666 -0.034254
v -0.909155 0.169343 -0.034027
v -0.909176 0.168918 0.030813
v -0.938602 0.171784 -0.042878
v -0.938604 0.171667 0.039337
v -0.909176 0.168918 0.030813
v -0.909155 0.169343 -0.034027
v -0.938602 0.171784 -0.042878
v -0.935281 0.171614 -0.046956
v -0.936097 0.168986 -0.050485
v -0.942217 0.169389 -0.044041
v -0.942217 0.169389 -0.044041
v -0.942158 0.1693 0.040697
v -0.938604 0.171667 0.039337
v -0.938602 0.171784 -0.042878
v -0.935332 0.171422 0.04346
v -0.938604 0.171667 0.039337
v -0.942158 0.1693 0.040697
v -0.936138 0.168822 0.047176
v -0.938604 0.171667 0.039337
v -0.935332 0.171422 0.04346
v -0.909164 0.169196 0.044235
v -0.909176 0.168918 0.030813
v -0.909164 0.169196 0.044235
v -0.935332 0.171422 0.04346
v -0.936138 0.168822 0.047176
v -0.909861 0.16665 0.047952
v -0.876909 0.167469 0.04484
v -0.909164 0.169196 0.044235
v -0.909861 0.16665 0.047952
v -0.877272 0.164945 0.048562
v -0.876909 0.167469 0.04484
v -0.876918 0.167001 0.031255
v -0.909176 0.168918 0.030813
v -0.909164 0.169196 0.044235
v -0.877272 0.164945 0.048562
v -0.845165 0.164524 0.048712
v -0.845165 0.167042 0.044989
v -0.876909 0.167469 0.04484
v -0.876909 0.167469 0.04484
v -0.845165 0.167042 0.044989
v -0.845165 0.166519 0.031361
v -0.876918 0.167001 0.031255
v -0.845165 0.167042 0.044989
v -0.845165 0.164524 0.048712
v -0.813059 0.164945 0.048562
v -0.813422 0.167469 0.04484
v -0.845165 0.166519 0.031361
v -0.845165 0.167042 0.044989
v -0.813422 0.167469 0.04484
v -0.813413 0.167001 0.031255
v -0.781167 0.169196 0.044235
v -0.813422 0.167469 0.04484
v -0.813059 0.164945 0.048562
v -0.78047 0.16665 0.047952
v -0.781167 0.169196 0.044235
v -0.781155 0.168918 0.030813
v -0.813413 0.167001 0.031255
v -0.813422 0.167469 0.04484
v -0.754999 0.171422 0.04346
v -0.781167 0.169196 0.044235
v -0.78047 0.16665 0.047952
v -0.754193 0.168822 0.047176
v -0.781167 0.169196 0.044235
v -0.754999 0.171422 0.04346
v -0.751728 0.171667 0.039337
v -0.781155 0.168918 0.030813
v -0.751728 0.171667 0.039337
v -0.754999 0.171422 0.04346
v -0.754193 0.168822 0.047176
v -0.748173 0.1693 0.040697
v -0.751729 0.171784 -0.042878
v -0.751728 0.171667 0.039337
v -0.748173 0.1693 0.040697
v -0.748114 0.169389 -0.044041
v -0.781155 0.168918 0.030813
v -0.751728 0.171667 0.039337
v -0.751729 0.171784 -0.042878
v -0.781175 0.169343 -0.034027
v -0.75505 0.171614 -0.046956
v -0.751729 0.171784 -0.042878
v -0.748114 0.169389 -0.044041
v -0.754234 0.168986 -0.050485
v -0.781175 0.169343 -0.034027
v -0.751729 0.171784 -0.042878
v -0.75505 0.171614 -0.046956
v -0.781192 0.169797 -0.047445
v -0.781192 0.169797 -0.047445
v -0.75505 0.171614 -0.046956
v -0.754234 0.168986 -0.050485
v -0.780425 0.167254 -0.050974
v -0.780425 0.167254 -0.050974
v -0.813046 0.165891 -0.051359
v -0.813443 0.168396 -0.047827
v -0.781192 0.169797 -0.047445
v -0.781175 0.169343 -0.034027
v -0.781192 0.169797 -0.047445
v -0.813443 0.168396 -0.047827
v -0.813429 0.167666 -0.034254
v -0.845165 0.165554 -0.051454
v -0.845165 0.168049 -0.047922
v -0.813443 0.168396 -0.047827
v -0.813046 0.165891 -0.051359
v -0.845165 0.168049 -0.047922
v -0.845165 0.167239 -0.034308
v -0.813429 0.167666 -0.034254
v -0.813443 0.168396 -0.047827
v -0.876888 0.168396 -0.047827
v -0.845165 0.168049 -0.047922
v -0.845165 0.165554 -0.051454
v -0.877285 0.165891 -0.051359
v -0.876902 0.167666 -0.034254
v -0.845165 0.167239 -0.034308
v -0.845165 0.168049 -0.047922
v -0.876888 0.168396 -0.047827
v -0.845165 0.167239 -0.034308
v -0.845165 0.166519 0.031361
v -0.813413 0.167001 0.031255
v -0.813429 0.167666 -0.034254
v -0.876918 0.167001 0.031255
v -0.845165 0.166519 0.031361
v -0.845165 0.167239 -0.034308
v -0.876902 0.167666 -0.034254
v -0.845165 0.128909 -0.061795
v -0.845165 0.165554 -0.051454
v -0.813046 0.165891 -0.051359
v -0.807474 0.128909 -0.061795
v -0.877285 0.165891 -0.051359
v -0.845165 0.165554 -0.051454
v -0.845165 0.128909 -0.061795
v -0.882857 0.128909 -0.061795
v -0.781155 0.168918 0.030813
v -0.781175 0.169343 -0.034027
v -0.813429 0.167666 -0.034254
v -0.813413 0.167001 0.031255
v -0.769224 0.117647 -0.062165
v -0.769224 0.128909 -0.061795
v -0.747047 0.128909 -0.061795
v -0.747036 0.117647 -0.062165
v -0.769224 0.128909 -0.061795
v -0.769224 0.117647 -0.062165
v -0.807474 0.117647 -0.062165
v -0.807474 0.128909 -0.061795
v -0.747047 0.128909 -0.061795
v -0.738142 0.128789 -0.058149
v -0.738139 0.117527 -0.058521
v -0.747036 0.117647 -0.062165
v -0.738142 0.128789 -0.058149
v -0.734454 0.1285 -0.049346
v -0.734454 0.117238 -0.049722
v -0.738139 0.117527 -0.058521
v -0.734454 0.117238 -0.049722
v -0.734454 0.1285 -0.049346
v -0.734454 0.125228 0.050228
v -0.734454 0.113966 0.049873
v -0.738123 0.113671 0.058829
v -0.734454 0.113966 0.049873
v -0.734454 0.125228 0.050228
v -0.738126 0.124934 0.059195
v -0.746983 0.11355 0.062539
v -0.738123 0.113671 0.058829
v -0.738126 0.124934 0.059195
v -0.746992 0.124812 0.062909
v -0.746983 0.11355 0.062539
v -0.746992 0.124812 0.062909
v -0.769224 0.124812 0.062909
v -0.769224 0.11355 0.062539
v -0.807474 0.124812 0.062909
v -0.807474 0.11355 0.062539
v -0.769224 0.11355 0.062539
v -0.769224 0.124812 0.062909
v -0.845165 0.124812 0.062909
v -0.845165 0.11355 0.062539
v -0.807474 0.11355 0.062539
v -0.807474 0.124812 0.062909
v -0.882857 0.11355 0.062539
v -0.845165 0.11355 0.062539
v -0.845165 0.124812 0.062909
v -0.882857 0.124812 0.062909
v -0.921107 0.124812 0.062909
v -0.921107 0.11355 0.062539
v -0.882857 0.11355 0.062539
v -0.882857 0.124812 0.062909
v -0.921107 0.11355 0.062539
v -0.921107 0.124812 0.062909
v -0.943339 0.124812 0.062909
v -0.943349 0.11355 0.062539
v -0.952208 0.113671 0.058829
v -0.943349 0.11355 0.062539
v -0.943339 0.124812 0.062909
v -0.952205 0.124934 0.059195
v -0.955877 0.113966 0.049873
v -0.952208 0.113671 0.058829
v -0.952205 0.124934 0.059195
v -0.955877 0.125228 0.050228
v -0.955877 0.117238 -0.049722
v -0.955877 0.113966 0.049873
v -0.955877 0.125228 0.050228
v -0.955877 0.1285 -0.049346
v -0.952192 0.117527 -0.058521
v -0.955877 0.117238 -0.049722
v -0.955877 0.1285 -0.049346
v -0.952189 0.128789 -0.058149
v -0.943295 0.117647 -0.062165
v -0.952192 0.117527 -0.058521
v -0.952189 0.128789 -0.058149
v -0.943283 0.128909 -0.061795
v -0.943295 0.117647 -0.062165
v -0.943283 0.128909 -0.061795
v -0.921107 0.128909 -0.061795
v -0.921107 0.117647 -0.062165
v -0.882857 0.128909 -0.061795
v -0.882857 0.117647 -0.062165
v -0.921107 0.117647 -0.062165
v -0.921107 0.128909 -0.061795
v -0.882857 0.128909 -0.061795
v -0.845165 0.128909 -0.061795
v -0.845165 0.117647 -0.062165
v -0.882857 0.117647 -0.062165
v -0.845165 0.117647 -0.062165
v -0.845165 0.128909 -0.061795
v -0.807474 0.128909 -0.061795
v -0.807474 0.117647 -0.062165
vn -0 0.2717 -0.9624
vn -0 0.2716 -0.9624
vn -0 0.2716 -0.9624
vn -0 0.2717 -0.9624
vn -0 0.2717 -0.9624
vn -0 0.2717 -0.9624
vn 0.0001 0.2716 -0.9624
vn -0 0.2716 -0.9624
vn -0 0.2717 -0.9624
vn 0.9517 0.3069 0.0058
vn 0.6671 0.3495 -0.6579
vn 0.0001 0.2716 -0.9624
vn 0.9517 0.3069 0.0058
vn 0.9517 0.307 0.0058
vn 0.6671 0.3495 -0.6579
vn 0.9517 0.307 0.006
vn 0.9517 0.307 0.006
vn 0.9517 0.307 0.0058
vn 0.9517 0.3069 0.0058
vn 0.6556 0.3814 0.6517
vn 0.9517 0.307 0.006
vn 0.9517 0.307 0.006
vn -0 0.3366 0.9416
vn 0.0001 0.3367 0.9416
vn 0.6556 0.3814 0.6517
vn -0 0.3366 0.9416
vn -0 0.3366 0.9416
vn -0 0.3367 0.9416
vn -0 0.3366 0.9416
vn 0.0001 0.3367 0.9416
vn -0 0.3367 0.9416
vn -0 0.3366 0.9416
vn -0 0.3366 0.9416
vn -0 0.3367 0.9416
vn -0 0.3367 0.9416
vn -0 0.3366 0.9416
vn -0 0.3366 0.9416
vn -0 0.3367 0.9416
vn -0 0.3366 0.9416
vn -0 0.3366 0.9416
vn -0 0.3367 0.9416
vn -0 0.3367 0.9416
vn -0 0.3367 0.9416
vn -0 0.3366 0.9416
vn -0 0.3366 0.9416
vn -0 0.3367 0.9416
vn -0 0.3367 0.9416
vn -0 0.3367 0.9416
vn -0.0001 0.3367 0.9416
vn -0 0.3366 0.9416
vn -0.6556 0.3814 0.6517
vn -0.0001 0.3367 0.9416
vn -0 0.3367 0.9416
vn -0.9517 0.307 0.006
vn -0.6556 0.3814 0.6517
vn -0 0.3367 0.9416
vn -0.9517 0.307 0.006
vn -0.9517 0.307 0.0058
vn -0.9517 0.307 0.006
vn -0.9517 0.307 0.006
vn -0.9517 0.307 0.0059
vn -0.6671 0.3495 -0.6579
vn -0.9517 0.307 0.0058
vn -0.9517 0.307 0.0059
vn -0.0001 0.2716 -0.9624
vn -0.6671 0.3495 -0.6579
vn -0.9517 0.307 0.0059
vn -0 0.2717 -0.9624
vn -0 0.2717 -0.9624
vn -0 0.2717 -0.9624
vn -0 0.2716 -0.9624
vn -0.0001 0.2716 -0.9624
vn -0 0.2717 -0.9624
vn -0 0.2716 -0.9624
vn -0 0.2716 -0.9624
vn -0 0.2717 -0.9624
vn -0 0.2717 -0.9624
vn -0 0.2717 -0.9624
vn 0.0597 0.9977 0.0329
vn 0.0301 0.9985 0.0462
vn 0.07 0.9972 0.0262
vn 0.0597 0.9977 0.0329
vn -0 0.2717 -0.9624
vn -0 0.2717 -0.9624
vn 0.0753 0.997 0.0165
vn 0.0666 0.9976 0.0202
vn 0.0597 0.9977 0.0329
vn 0.07 0.9972 0.0262
vn 0.0326 0.999 0.0298
vn 0.0301 0.9985 0.0462
vn 0.0597 0.9977 0.0329
vn 0.0666 0.9976 0.0202
vn 0.0353 0.9993 -0.0113
vn 0.0326 0.999 0.0298
vn 0.0666 0.9976 0.0202
vn 0.0718 0.9974 -0.0074
vn 0.0753 0.997 0.0165
vn 0.0833 0.9965 -0.0067
vn 0.0718 0.9974 -0.0074
vn 0.0666 0.9976 0.0202
vn 0.0753 0.997 0.0165
vn 0.07 0.9972 0.0262
vn -0 0.2717 -0.9624
vn -0.9517 0.307 0.0059
vn -0.9517 0.307 0.0059
vn -0.9517 0.307 0.006
vn 0.0833 0.9965 -0.0067
vn 0.0753 0.997 0.0165
vn 0.0846 0.9963 -0.0145
vn 0.0833 0.9965 -0.0067
vn -0.9517 0.307 0.006
vn -0 0.3367 0.9416
vn 0.0833 0.9965 -0.0067
vn 0.0846 0.9963 -0.0145
vn 0.0714 0.9973 -0.0189
vn 0.0718 0.9974 -0.0074
vn 0.0714 0.9973 -0.0189
vn 0.0846 0.9963 -0.0145
vn -0 0.3367 0.9416
vn -0 0.3367 0.9416
vn 0.0354 0.999 -0.0281
vn 0.0714 0.9973 -0.0189
vn -0 0.3367 0.9416
vn -0 0.3367 0.9416
vn 0.0354 0.999 -0.0281
vn 0.0353 0.9993 -0.0113
vn 0.0718 0.9974 -0.0074
vn 0.0714 0.9973 -0.0189
vn -0 0.3367 0.9416
vn -0 0.3367 0.9416
vn -0 0.9995 -0.0324
vn 0.0354 0.999 -0.0281
vn 0.0354 0.999 -0.0281
vn -0 0.9995 -0.0324
vn -0 0.9999 -0.013
vn 0.0353 0.9993 -0.0113
vn -0 0.9995 -0.0324
vn -0 0.3367 0.9416
vn -0 0.3367 0.9416
vn -0.0354 0.999 -0.0281
vn -0 0.9999 -0.013
vn -0 0.9995 -0.0324
vn -0.0354 0.999 -0.0281
vn -0.0353 0.9993 -0.0113
vn -0.0714 0.9973 -0.0189
vn -0.0354 0.999 -0.0281
vn -0 0.3367 0.9416
vn -0 0.3367 0.9416
vn -0.0714 0.9973 -0.0189
vn -0.0718 0.9974 -0.0074
vn -0.0353 0.9993 -0.0113
vn -0.0354 0.999 -0.0281
vn -0.0846 0.9963 -0.0145
vn -0.0714 0.9973 -0.0189
vn -0 0.3367 0.9416
vn -0 0.3366 0.9416
vn -0.0714 0.9973 -0.0189
vn -0.0846 0.9963 -0.0145
vn -0.0833 0.9965 -0.0067
vn -0.0718 0.9974 -0.0074
vn -0.0833 0.9965 -0.0067
vn -0.0846 0.9963 -0.0145
vn -0 0.3366 0.9416
vn 0.9517 0.307 0.006
vn -0.0754 0.997 0.0164
vn -0.0833 0.9965 -0.0067
vn 0.9517 0.307 0.006
vn 0.9517 0.3069 0.0058
vn -0.0718 0.9974 -0.0074
vn -0.0833 0.9965 -0.0067
vn -0.0754 0.997 0.0164
vn -0.0666 0.9976 0.0202
vn -0.0717 0.997 0.0293
vn -0.0754 0.997 0.0164
vn 0.9517 0.3069 0.0058
vn -0 0.2717 -0.9624
vn -0.0666 0.9976 0.0202
vn -0.0754 0.997 0.0164
vn -0.0717 0.997 0.0293
vn -0.0597 0.9977 0.0329
vn -0.0597 0.9977 0.0329
vn -0.0717 0.997 0.0293
vn -0 0.2717 -0.9624
vn -0 0.2717 -0.9624
vn -0 0.2717 -0.9624
vn -0 0.2717 -0.9624
vn -0.03 0.9985 0.0462
vn -0.0597 0.9977 0.0329
vn -0.0666 0.9976 0.0202
vn -0.0597 0.9977 0.0329
vn -0.03 0.9985 0.0462
vn -0.0326 0.999 0.0298
vn -0 0.2717 -0.9624
vn -0 0.9986 0.0525
vn -0.03 0.9985 0.0462
vn -0 0.2717 -0.9624
vn -0 0.9986 0.0525
vn -0 0.9994 0.0336
vn -0.0326 0.999 0.0298
vn -0.03 0.9985 0.0462
vn 0.0301 0.9985 0.0462
vn -0 0.9986 0.0525
vn -0 0.2717 -0.9624
vn -0 0.2717 -0.9624
vn 0.0326 0.999 0.0298
vn -0 0.9994 0.0336
vn -0 0.9986 0.0525
vn 0.0301 0.9985 0.0462
vn -0 0.9994 0.0336
vn -0 0.9999 -0.013
vn -0.0353 0.9993 -0.0113
vn -0.0326 0.999 0.0298
vn 0.0353 0.9993 -0.0113
vn -0 0.9999 -0.013
vn -0 0.9994 0.0336
vn 0.0326 0.999 0.0298
vn -0 0.2716 -0.9624
vn -0 0.2717 -0.9624
vn -0 0.2717 -0.9624
vn -0 0.2716 -0.9624
vn -0 0.2717 -0.9624
vn -0 0.2717 -0.9624
vn -0 0.2716 -0.9624
vn -0 0.2716 -0.9624
vn -0.0718 0.9974 -0.0074
vn -0.0666 0.9976 0.0202
vn -0.0326 0.999 0.0298
vn -0.0353 0.9993 -0.0113
vn -0 0.0328 -0.9995
vn -0 0.0328 -0.9995
vn 0.0001 0.0328 -0.9995
vn 0.0001 0.033 -0.9995
vn -0 0.0328 -0.9995
vn -0 0.0328 -0.9995
vn -0 0.0328 -0.9995
vn -0 0.0328 -0.9995
vn 0.0001 0.0328 -0.9995
vn 0.7044 0.0236 -0.7094
vn 0.7033 0.0237 -0.7105
vn 0.0001 0.033 -0.9995
vn 0.7044 0.0236 -0.7094
vn 1 0.0001 -0.0001
vn 1 -0 -0.0001
vn 0.7033 0.0237 -0.7105
vn 1 -0 -0.0001
vn 1 0.0001 -0.0001
vn 1 -0 0.0001
vn 1 0.0002 0.0001
vn 0.711 -0.0226 0.7028
vn 1 0.0002 0.0001
vn 1 -0 0.0001
vn 0.7113 -0.0226 0.7026
vn 0.0001 -0.0328 0.9995
vn 0.711 -0.0226 0.7028
vn 0.7113 -0.0226 0.7026
vn 0.0001 -0.0326 0.9995
vn 0.0001 -0.0328 0.9995
vn 0.0001 -0.0326 0.9995
vn -0 -0.0328 0.9995
vn -0 -0.0328 0.9995
vn -0 -0.0328 0.9995
vn -0 -0.0328 0.9995
vn -0 -0.0328 0.9995
vn -0 -0.0328 0.9995
vn -0 -0.0328 0.9995
vn -0 -0.0328 0.9995
vn -0 -0.0328 0.9995
vn -0 -0.0328 0.9995
vn -0 -0.0328 0.9995
vn -0 -0.0328 0.9995
vn -0 -0.0328 0.9995
vn -0 -0.0328 0.9995
vn -0 -0.0328 0.9995
vn -0 -0.0328 0.9995
vn -0 -0.0328 0.9995
vn -0 -0.0328 0.9995
vn -0 -0.0328 0.9995
vn -0 -0.0328 0.9995
vn -0.0001 -0.0328 0.9995
vn -0.0001 -0.0326 0.9995
vn -0.7111 -0.0226 0.7028
vn -0.0001 -0.0326 0.9995
vn -0.0001 -0.0328 0.9995
vn -0.7113 -0.0226 0.7026
vn -1 -0 0.0001
vn -0.7111 -0.0226 0.7028
vn -0.7113 -0.0226 0.7026
vn -1 0.0002 0.0001
vn -1 0.0001 -0.0001
vn -1 -0 0.0001
vn -1 0.0002 0.0001
vn -1 -0 -0.0001
vn -0.7037 0.0237 -0.7101
vn -1 0.0001 -0.0001
vn -1 -0 -0.0001
vn -0.7034 0.0237 -0.7104
vn -0.0001 0.0328 -0.9995
vn -0.7037 0.0237 -0.7101
vn -0.7034 0.0237 -0.7104
vn -0.0001 0.033 -0.9995
vn -0.0001 0.0328 -0.9995
vn -0.0001 0.033 -0.9995
vn -0 0.0328 -0.9995
vn -0 0.0328 -0.9995
vn -0 0.0328 -0.9995
vn -0 0.0328 -0.9995
vn -0 0.0328 -0.9995
vn -0 0.0328 -0.9995
vn -0 0.0328 -0.9995
vn -0 0.0328 -0.9995
vn -0 0.0328 -0.9995
vn -0 0.0328 -0.9995
vn -0 0.0328 -0.9995
vn -0 0.0328 -0.9995
vn -0 0.0328 -0.9995
vn -0 0.0328 -0.9995
vt 0.087475 0.143536
vt 0.098189 0.135116
vt 0.078209 0.135116
vt 0.072886 0.143364
vt 0.087475 0.143536
vt 0.099189 0.143755
vt 0.109541 0.13508
vt 0.098189 0.135116
vt 0.099189 0.143755
vt 0.101926 0.146637
vt 0.113738 0.136709
vt 0.109541 0.13508
vt 0.101926 0.146637
vt 0.11543 0.140858
vt 0.113738 0.136709
vt 0.101899 0.184535
vt 0.115445 0.192452
vt 0.11543 0.140858
vt 0.101926 0.146637
vt 0.113798 0.196686
vt 0.115445 0.192452
vt 0.101899 0.184535
vt 0.099207 0.187433
vt 0.109614 0.198392
vt 0.113798 0.196686
vt 0.099207 0.187433
vt 0.099207 0.187433
vt 0.087455 0.18778
vt 0.098189 0.198371
vt 0.109614 0.198392
vt 0.07288 0.188053
vt 0.078209 0.198371
vt 0.098189 0.198371
vt 0.087455 0.18778
vt 0.058521 0.18812
vt 0.058521 0.198371
vt 0.078209 0.198371
vt 0.07288 0.188053
vt 0.038833 0.198371
vt 0.058521 0.198371
vt 0.058521 0.18812
vt 0.044162 0.188053
vt 0.029587 0.18778
vt 0.018852 0.198371
vt 0.038833 0.198371
vt 0.044162 0.188053
vt 0.029587 0.18778
vt 0.017834 0.187433
vt 0.007428 0.198392
vt 0.018852 0.198371
vt 0.003244 0.196686
vt 0.007428 0.198392
vt 0.017834 0.187433
vt 0.001596 0.192452
vt 0.003244 0.196686
vt 0.017834 0.187433
vt 0.015142 0.184535
vt 0.001612 0.140858
vt 0.001596 0.192452
vt 0.015142 0.184535
vt 0.015116 0.146637
vt 0.003304 0.136709
vt 0.001612 0.140858
vt 0.015116 0.146637
vt 0.007501 0.13508
vt 0.003304 0.136709
vt 0.015116 0.146637
vt 0.017853 0.143755
vt 0.017853 0.143755
vt 0.029566 0.143536
vt 0.018852 0.135116
vt 0.007501 0.13508
vt 0.044156 0.143364
vt 0.038833 0.135116
vt 0.018852 0.135116
vt 0.029566 0.143536
vt 0.044156 0.143364
vt 0.029566 0.143536
vt 0.029909 0.145115
vt 0.044333 0.144944
vt 0.018218 0.145333
vt 0.029909 0.145115
vt 0.029566 0.143536
vt 0.017853 0.143755
vt 0.016733 0.147157
vt 0.029902 0.151116
vt 0.029909 0.145115
vt 0.018218 0.145333
vt 0.044327 0.151014
vt 0.044333 0.144944
vt 0.029909 0.145115
vt 0.029902 0.151116
vt 0.04432 0.180313
vt 0.044327 0.151014
vt 0.029902 0.151116
vt 0.029893 0.180115
vt 0.016733 0.147157
vt 0.016732 0.183927
vt 0.029893 0.180115
vt 0.029902 0.151116
vt 0.016733 0.147157
vt 0.018218 0.145333
vt 0.017853 0.143755
vt 0.015116 0.146637
vt 0.015116 0.146637
vt 0.015142 0.184535
vt 0.016732 0.183927
vt 0.016733 0.147157
vt 0.018195 0.185771
vt 0.016732 0.183927
vt 0.015142 0.184535
vt 0.017834 0.187433
vt 0.016732 0.183927
vt 0.018195 0.185771
vt 0.029898 0.186118
vt 0.029893 0.180115
vt 0.029898 0.186118
vt 0.018195 0.185771
vt 0.017834 0.187433
vt 0.029587 0.18778
vt 0.044324 0.186388
vt 0.029898 0.186118
vt 0.029587 0.18778
vt 0.044162 0.188053
vt 0.044324 0.186388
vt 0.04432 0.180313
vt 0.029893 0.180115
vt 0.029898 0.186118
vt 0.044162 0.188053
vt 0.058521 0.18812
vt 0.058521 0.186455
vt 0.044324 0.186388
vt 0.044324 0.186388
vt 0.058521 0.186455
vt 0.058521 0.18036
vt 0.04432 0.180313
vt 0.058521 0.186455
vt 0.058521 0.18812
vt 0.07288 0.188053
vt 0.072718 0.186388
vt 0.058521 0.18036
vt 0.058521 0.186455
vt 0.072718 0.186388
vt 0.072722 0.180313
vt 0.087143 0.186118
vt 0.072718 0.186388
vt 0.07288 0.188053
vt 0.087455 0.18778
vt 0.087143 0.186118
vt 0.087149 0.180115
vt 0.072722 0.180313
vt 0.072718 0.186388
vt 0.098847 0.185771
vt 0.087143 0.186118
vt 0.087455 0.18778
vt 0.099207 0.187433
vt 0.087143 0.186118
vt 0.098847 0.185771
vt 0.10031 0.183927
vt 0.087149 0.180115
vt 0.10031 0.183927
vt 0.098847 0.185771
vt 0.099207 0.187433
vt 0.101899 0.184535
vt 0.100309 0.147157
vt 0.10031 0.183927
vt 0.101899 0.184535
vt 0.101926 0.146637
vt 0.087149 0.180115
vt 0.10031 0.183927
vt 0.100309 0.147157
vt 0.08714 0.151116
vt 0.098824 0.145333
vt 0.100309 0.147157
vt 0.101926 0.146637
vt 0.099189 0.143755
vt 0.08714 0.151116
vt 0.100309 0.147157
vt 0.098824 0.145333
vt 0.087132 0.145115
vt 0.087132 0.145115
vt 0.098824 0.145333
vt 0.099189 0.143755
vt 0.087475 0.143536
vt 0.087475 0.143536
vt 0.072886 0.143364
vt 0.072708 0.144944
vt 0.087132 0.145115
vt 0.08714 0.151116
vt 0.087132 0.145115
vt 0.072708 0.144944
vt 0.072715 0.151014
vt 0.058521 0.143322
vt 0.058521 0.144902
vt 0.072708 0.144944
vt 0.072886 0.143364
vt 0.058521 0.144902
vt 0.058521 0.15099
vt 0.072715 0.151014
vt 0.072708 0.144944
vt 0.044333 0.144944
vt 0.058521 0.144902
vt 0.058521 0.143322
vt 0.044156 0.143364
vt 0.044327 0.151014
vt 0.058521 0.15099
vt 0.058521 0.144902
vt 0.044333 0.144944
vt 0.058521 0.15099
vt 0.058521 0.18036
vt 0.072722 0.180313
vt 0.072715 0.151014
vt 0.04432 0.180313
vt 0.058521 0.18036
vt 0.058521 0.15099
vt 0.044327 0.151014
vt 0.058521 0.135116
vt 0.058521 0.143322
vt 0.072886 0.143364
vt 0.078209 0.135116
vt 0.044156 0.143364
vt 0.058521 0.143322
vt 0.058521 0.135116
vt 0.038833 0.135116
vt 0.087149 0.180115
vt 0.08714 0.151116
vt 0.072715 0.151014
vt 0.072722 0.180313
vt 0.098189 0.133277
vt 0.098189 0.135116
vt 0.109541 0.13508
vt 0.109915 0.133291
vt 0.098189 0.135116
vt 0.098189 0.133277
vt 0.078209 0.133277
vt 0.078209 0.135116
vt 0.109541 0.13508
vt 0.113738 0.136709
vt 0.114922 0.135385
vt 0.109915 0.133291
vt 0.113738 0.136709
vt 0.11543 0.140858
vt 0.117041 0.140341
vt 0.114922 0.135385
vt 0.117041 0.140341
vt 0.11543 0.140858
vt 0.115445 0.192452
vt 0.117041 0.192639
vt 0.114934 0.197677
vt 0.117041 0.192639
vt 0.115445 0.192452
vt 0.113798 0.196686
vt 0.109946 0.199809
vt 0.114934 0.197677
vt 0.113798 0.196686
vt 0.109614 0.198392
vt 0.109946 0.199809
vt 0.109614 0.198392
vt 0.098189 0.198371
vt 0.098189 0.199822
vt 0.078209 0.198371
vt 0.078209 0.199822
vt 0.098189 0.199822
vt 0.098189 0.198371
vt 0.058521 0.198371
vt 0.058521 0.199822
vt 0.078209 0.199822
vt 0.078209 0.198371
vt 0.038833 0.199822
vt 0.058521 0.199822
vt 0.058521 0.198371
vt 0.038833 0.198371
vt 0.018852 0.198371
vt 0.018852 0.199822
vt 0.038833 0.199822
vt 0.038833 0.198371
vt 0.018852 0.199822
vt 0.018852 0.198371
vt 0.007428 0.198392
vt 0.007095 0.199809
vt 0.002108 0.197677
vt 0.007095 0.199809
vt 0.007428 0.198392
vt 0.003244 0.196686
vt 0 0.192639
vt 0.002108 0.197677
vt 0.003244 0.196686
vt 0.001596 0.192452
vt 1e-06 0.140341
vt 0 0.192639
vt 0.001596 0.192452
vt 0.001612 0.140858
vt 0.00212 0.135385
vt 1e-06 0.140341
vt 0.001612 0.140858
vt 0.003304 0.136709
vt 0.007126 0.133291
vt 0.00212 0.135385
vt 0.003304 0.136709
vt 0.007501 0.13508
vt 0.007126 0.133291
vt 0.007501 0.13508
vt 0.018852 0.135116
vt 0.018852 0.133277
vt 0.038833 0.135116
vt 0.038833 0.133277
vt 0.018852 0.133277
vt 0.018852 0.135116
vt 0.038833 0.135116
vt 0.058521 0.135116
vt 0.058521 0.133277
vt 0.038833 0.133277
vt 0.058521 0.133277
vt 0.058521 0.135116
vt 0.078209 0.135116
vt 0.078209 0.133277
s off
f 1/1/1 2/2/2 3/3/3
f 1/1/1 3/3/3 4/4/4
f 5/5/5 6/6/6 7/7/7
f 5/5/5 7/7/7 8/8/8
f 9/9/9 10/10/10 11/11/11
f 9/9/9 11/11/11 12/12/12
f 13/13/13 14/14/14 15/15/15
f 16/16/16 17/17/17 18/18/18
f 16/16/16 18/18/18 19/19/19
f 20/20/20 21/21/21 22/22/22
f 20/20/20 22/22/22 23/23/23
f 24/24/24 25/25/25 26/26/26
f 27/27/27 28/28/28 29/29/29
f 27/27/27 29/29/29 30/30/30
f 31/31/31 32/32/32 33/33/33
f 31/31/31 33/33/33 34/34/34
f 35/35/35 36/36/36 37/37/37
f 35/35/35 37/37/37 38/38/38
f 39/39/39 40/40/40 41/41/41
f 39/39/39 41/41/41 42/42/42
f 43/43/43 44/44/44 45/45/45
f 43/43/43 45/45/45 46/46/46
f 47/47/47 48/48/48 49/49/49
f 47/47/47 49/49/49 50/50/50
f 51/51/51 52/52/52 53/53/53
f 54/54/54 55/55/55 56/56/56
f 54/54/54 56/56/56 57/57/57
f 58/58/58 59/59/59 60/60/60
f 58/58/58 60/60/60 61/61/61
f 62/62/62 63/63/63 64/64/64
f 65/65/65 66/66/66 67/67/67
f 65/65/65 67/67/67 68/68/68
f 69/69/69 70/70/70 71/71/71
f 69/69/69 71/71/71 72/72/72
f 73/73/73 74/74/74 75/75/75
f 73/73/73 75/75/75 76/76/76
f 77/77/77 78/78/78 79/79/79
f 77/77/77 79/79/79 80/80/80
f 81/81/81 82/82/82 83/83/83
f 81/81/81 83/83/83 84/84/84
f 85/85/85 86/86/86 87/87/87
f 85/85/85 87/87/87 88/88/88
f 89/89/89 90/90/90 91/91/91
f 89/89/89 91/91/91 92/92/92
f 93/93/93 94/94/94 95/95/95
f 93/93/93 95/95/95 96/96/96
f 97/97/97 98/98/98 99/99/99
f 97/97/97 99/99/99 100/100/100
f 101/101/101 102/102/102 103/103/103
f 101/101/101 103/103/103 104/104/104
f 105/105/105 106/106/106 107/107/107
f 105/105/105 107/107/107 108/108/108
f 109/109/109 110/110/110 111/111/111
f 109/109/109 111/111/111 112/112/112
f 113/113/113 114/114/114 115/115/115
f 113/113/113 115/115/115 116/116/116
f 117/117/117 118/118/118 119/119/119
f 117/117/117 119/119/119 120/120/120
f 121/121/121 122/122/122 123/123/123
f 121/121/121 123/123/123 124/124/124
f 125/125/125 126/126/126 127/127/127
f 125/125/125 127/127/127 128/128/128
f 129/129/129 130/130/130 131/131/131
f 129/129/129 131/131/131 132/132/132
f 133/133/133 134/134/134 135/135/135
f 133/133/133 135/135/135 136/136/136
f 137/137/137 138/138/138 139/139/139
f 137/137/137 139/139/139 140/140/140
f 141/141/141 142/142/142 143/143/143
f 141/141/141 143/143/143 144/144/144
f 145/145/145 146/146/146 147/147/147
f 145/145/145 147/147/147 148/148/148
f 149/149/149 150/150/150 151/151/151
f 149/149/149 151/151/151 152/152/152
f 153/153/153 154/154/154 155/155/155
f 153/153/153 155/155/155 156/156/156
f 157/157/157 158/158/158 159/159/159
f 157/157/157 159/159/159 160/160/160
f 161/161/161 162/162/162 163/163/163
f 161/161/161 163/163/163 164/164/164
f 165/165/165 166/166/166 167/167/167
f 165/165/165 167/167/167 168/168/168
f 169/169/169 170/170/170 171/171/171
f 169/169/169 171/171/171 172/172/172
f 173/173/173 174/174/174 175/175/175
f 173/173/173 175/175/175 176/176/176
f 177/177/177 178/178/178 179/179/179
f 177/177/177 179/179/179 180/180/180
f 181/181/181 182/182/182 183/183/183
f 181/181/181 183/183/183 184/184/184
f 185/185/185 186/186/186 187/187/187
f 185/185/185 187/187/187 188/188/188
f 189/189/189 190/190/190 191/191/191
f 189/189/189 191/191/191 192/192/192
f 193/193/193 194/194/194 195/195/195
f 193/193/193 195/195/195 196/196/196
f 197/197/197 198/198/198 199/199/199
f 197/197/197 199/199/199 200/200/200
f 201/201/201 202/202/202 203/203/203
f 201/201/201 203/203/203 204/204/204
f 205/205/205 206/206/206 207/207/207
f 205/205/205 207/207/207 208/208/208
f 209/209/209 210/210/210 211/211/211
f 209/209/209 211/211/211 212/212/212
f 213/213/213 214/214/214 215/215/215
f 213/213/213 215/215/215 216/216/216
f 217/217/217 218/218/218 219/219/219
f 217/217/217 219/219/219 220/220/220
f 221/221/221 222/222/222 223/223/223
f 221/221/221 223/223/223 224/224/224
f 225/225/225 226/226/226 227/227/227
f 225/225/225 227/227/227 228/228/228
f 229/229/229 230/230/230 231/231/231
f 229/229/229 231/231/231 232/232/232
f 233/233/233 234/234/234 235/235/235
f 233/233/233 235/235/235 236/236/236
f 237/237/237 238/238/238 239/239/239
f 237/237/237 239/239/239 240/240/240
f 241/241/241 242/242/242 243/243/243
f 241/241/241 243/243/243 244/244/244
f 245/245/245 246/246/246 247/247/247
f 245/245/245 247/247/247 248/248/248
f 249/249/249 250/250/250 251/251/251
f 249/249/249 251/251/251 252/252/252
f 253/253/253 254/254/254 255/255/255
f 253/253/253 255/255/255 256/256/256
f 257/257/257 258/258/258 259/259/259
f 257/257/257 259/259/259 260/260/260
f 261/261/261 262/262/262 263/263/263
f 261/261/261 263/263/263 264/264/264
f 265/265/265 266/266/266 267/267/267
f 265/265/265 267/267/267 268/268/268
f 269/269/269 270/270/270 271/271/271
f 269/269/269 271/271/271 272/272/272
f 273/273/273 274/274/274 275/275/275
f 273/273/273 275/275/275 276/276/276
f 277/277/277 278/278/278 279/279/279
f 277/277/277 279/279/279 280/280/280
f 281/281/281 282/282/282 283/283/283
f 281/281/281 283/283/283 284/284/284
f 285/285/285 286/286/286 287/287/287
f 285/285/285 287/287/287 288/288/288
f 289/289/289 290/290/290 291/291/291
f 289/289/289 291/291/291 292/292/292
f 293/293/293 294/294/294 295/295/295
f 293/293/293 295/295/295 296/296/296
f 297/297/297 298/298/298 299/299/299
f 297/297/297 299/299/299 300/300/300
f 301/301/301 302/302/302 303/303/303
f 301/301/301 303/303/303 304/304/304
f 305/305/305 306/306/306 307/307/307
f 305/305/305 307/307/307 308/308/308
f 309/309/309 310/310/310 311/311/311
f 309/309/309 311/311/311 312/312/312
f 313/313/313 314/314/314 315/315/315
f 313/313/313 315/315/315 316/316/316
