v 0.259361 0.168134 0.146877
v 0.257255 0.168085 0.144152
v 0.255635 0.168381 0.144911
v 0.256549 0.168642 0.14835
v 0.255217 0.168642 0.146683
v 0.255717 0.168696 0.147827
v 0.258744 0.16243 0.095132
v 0.255854 0.162904 0.09646
v 0.269836 0.162071 0.102006
v 0.256549 0.168642 0.14835
v 0.257338 0.169061 0.152934
v 0.259361 0.168134 0.146877
v 0.259361 0.168134 0.146877
v 0.255635 0.168381 0.144911
v 0.255217 0.168642 0.146683
v 0.258744 0.16243 0.095132
v 0.269836 0.162071 0.102006
v 0.269836 0.161796 0.099428
v 0.255854 0.162606 0.093804
v 0.255854 0.162904 0.09646
v 0.258744 0.16243 0.095132
v 0.257338 0.169061 0.152934
v 0.256549 0.168642 0.14835
v 0.255385 0.169333 0.152934
v 0.269836 0.16088 0.090836
v 0.269836 0.160674 0.088258
v 0.258744 0.16243 0.095132
v 0.255854 0.162606 0.093804
v 0.258744 0.16243 0.095132
v 0.269836 0.160674 0.088258
v 0.259361 0.168134 0.146877
v 0.258857 0.167951 0.144702
v 0.257255 0.168085 0.144152
v 0.259361 0.168134 0.146877
v 0.255217 0.168642 0.146683
v 0.256549 0.168642 0.14835
vn 0.126 0.9853 -0.1153
vn 0.126 0.9853 -0.1153
vn 0.126 0.9853 -0.1153
vn 0.1277 0.9865 -0.1021
vn 0.1277 0.9865 -0.1021
vn 0.1277 0.9865 -0.1021
vn 0.1065 0.987 -0.1203
vn 0.1065 0.987 -0.1203
vn 0.1065 0.987 -0.1203
vn 0.1202 0.9865 -0.1109
vn 0.1202 0.9865 -0.1109
vn 0.1202 0.9865 -0.1109
vn 0.1262 0.9852 -0.1157
vn 0.1262 0.9852 -0.1157
vn 0.1262 0.9852 -0.1157
vn 0.0975 0.9896 -0.1055
vn 0.0975 0.9896 -0.1055
vn 0.0975 0.9896 -0.1055
vn 0.1109 0.9876 -0.111
vn 0.1109 0.9876 -0.111
vn 0.1109 0.9876 -0.111
vn 0.1369 0.9841 -0.1135
vn 0.1369 0.9841 -0.1135
vn 0.1369 0.9841 -0.1135
vn 0.1079 0.991 -0.0791
vn 0.1079 0.991 -0.0791
vn 0.1079 0.991 -0.0791
vn 0.1013 0.9908 -0.0897
vn 0.1013 0.9908 -0.0897
vn 0.1013 0.9908 -0.0897
vn 0.1202 0.9865 -0.1109
vn 0.1202 0.9865 -0.1109
vn 0.1202 0.9865 -0.1109
vn 0.1257 0.987 -0.1005
vn 0.1257 0.987 -0.1005
vn 0.1257 0.987 -0.1005
vt 0.635479 0.594017
vt 0.63438 0.592594
vt 0.633533 0.59299
vt 0.634011 0.594787
vt 0.633315 0.593916
vt 0.633576 0.594513
vt 0.635157 0.566988
vt 0.633648 0.567682
vt 0.640951 0.570578
vt 0.634011 0.594787
vt 0.634423 0.597181
vt 0.635479 0.594017
vt 0.635479 0.594017
vt 0.633533 0.59299
vt 0.633315 0.593916
vt 0.635157 0.566988
vt 0.640951 0.570578
vt 0.640951 0.569232
vt 0.633648 0.566294
vt 0.633648 0.567682
vt 0.635157 0.566988
vt 0.634423 0.597181
vt 0.634011 0.594787
vt 0.633403 0.597181
vt 0.640951 0.564744
vt 0.640951 0.563397
vt 0.635157 0.566988
vt 0.633648 0.566294
vt 0.635157 0.566988
vt 0.640951 0.563397
vt 0.635479 0.594017
vt 0.635216 0.592881
vt 0.63438 0.592594
vt 0.635479 0.594017
vt 0.633315 0.593916
vt 0.634011 0.594787
s off
f 1/1/1 2/2/2 3/3/3
f 4/4/4 5/5/5 6/6/6
f 7/7/7 8/8/8 9/9/9
f 10/10/10 11/11/11 12/12/12
f 13/13/13 14/14/14 15/15/15
f 16/16/16 17/17/17 18/18/18
f 19/19/19 20/20/20 21/21/21
f 22/22/22 23/23/23 24/24/24
f 25/25/25 26/26/26 27/27/27
f 28/28/28 29/29/29 30/30/30
f 31/31/31 32/32/32 33/33/33
f 34/34/34 35/35/35 36/36/36
