v 0.847232 0.165809 0.258301
v 0.842703 0.166301 0.258418
v 0.846403 0.16631 0.260796
v 0.846403 0.16631 0.260796
v 0.851397 0.165474 0.258905
v 0.847232 0.165809 0.258301
v 0.858865 0.162208 0.241355
v 0.865738 0.162194 0.243855
v 0.868472 0.16205 0.243855
v 0.856143 0.163002 0.246019
v 0.858008 0.162656 0.244243
v 0.85604 0.162518 0.242513
v 0.865738 0.165023 0.261195
v 0.868472 0.16205 0.243855
v 0.865738 0.162194 0.243855
v 0.868472 0.16205 0.243855
v 0.875346 0.161773 0.243855
v 0.858865 0.162208 0.241355
v 0.878393 0.164494 0.261195
v 0.881204 0.164587 0.261195
v 0.881204 0.163544 0.255181
v 0.878393 0.161521 0.241355
v 0.881205 0.163142 0.25276
v 0.881205 0.161974 0.243855
v 0.901904 0.165476 0.258774
v 0.899014 0.165546 0.261195
v 0.912605 0.166609 0.258774
v 0.856143 0.163002 0.246019
v 0.85604 0.162518 0.242513
v 0.85433 0.162938 0.244604
v 0.843148 0.165517 0.253972
v 0.84034 0.165904 0.254538
v 0.844501 0.165765 0.256318
v 0.8561 0.16522 0.260047
v 0.854294 0.165025 0.258019
v 0.852116 0.165822 0.26145
v 0.888297 0.163503 0.252673
v 0.881204 0.163544 0.255181
v 0.887396 0.163865 0.255141
v 0.888297 0.163503 0.252673
v 0.890117 0.163913 0.254561
v 0.891904 0.163864 0.253698
v 0.845774 0.163844 0.245023
v 0.848626 0.163365 0.243816
v 0.846905 0.163215 0.241628
v 0.891647 0.163042 0.248117
v 0.89381 0.163595 0.251469
v 0.894444 0.163205 0.248241
v 0.881205 0.163142 0.25276
v 0.878393 0.164494 0.261195
v 0.881204 0.163544 0.255181
v 0.891647 0.163042 0.248117
v 0.894444 0.163205 0.248241
v 0.893988 0.162877 0.24575
v 0.858865 0.162208 0.241355
v 0.858008 0.162656 0.244243
v 0.865738 0.162194 0.243855
v 0.891029 0.16333 0.250748
v 0.89381 0.163595 0.251469
v 0.891647 0.163042 0.248117
v 0.890625 0.162639 0.24525
v 0.893988 0.162877 0.24575
v 0.892496 0.162518 0.243441
v 0.843888 0.163757 0.243139
v 0.845774 0.163844 0.245023
v 0.846905 0.163215 0.241628
v 0.899014 0.165546 0.261195
v 0.901904 0.165476 0.258774
v 0.899014 0.162492 0.241355
v 0.856221 0.164633 0.256531
v 0.854294 0.165025 0.258019
v 0.8561 0.16522 0.260047
v 0.890625 0.162639 0.24525
v 0.892496 0.162518 0.243441
v 0.888684 0.162074 0.241442
v 0.890117 0.163913 0.254561
v 0.891671 0.165096 0.261195
v 0.894796 0.165261 0.261195
v 0.843799 0.164357 0.247071
v 0.84186 0.164275 0.245178
v 0.84049 0.164801 0.247725
v 0.8561 0.16522 0.260047
v 0.858104 0.164868 0.258325
v 0.856221 0.164633 0.256531
v 0.839947 0.165304 0.250679
v 0.842719 0.164983 0.250477
v 0.84049 0.164801 0.247725
v 0.839947 0.165304 0.250679
v 0.84034 0.165904 0.254538
v 0.842719 0.164983 0.250477
v 0.881205 0.163142 0.25276
v 0.878393 0.161521 0.241355
v 0.878393 0.164494 0.261195
v 0.912605 0.166609 0.258774
v 0.899014 0.165546 0.261195
v 0.912605 0.167027 0.261195
v 0.865738 0.165023 0.261195
v 0.868472 0.164878 0.261195
v 0.868472 0.16205 0.243855
v 0.891029 0.16333 0.250748
v 0.891904 0.163864 0.253698
v 0.89381 0.163595 0.251469
v 0.888297 0.163503 0.252673
v 0.881205 0.163142 0.25276
v 0.881204 0.163544 0.255181
v 0.852116 0.165822 0.26145
v 0.854294 0.165025 0.258019
v 0.851397 0.165474 0.258905
v 0.85154 0.162683 0.241042
v 0.846905 0.163215 0.241628
v 0.848626 0.163365 0.243816
v 0.881205 0.161974 0.243855
v 0.887448 0.162305 0.243878
v 0.888684 0.162074 0.241442
v 0.878393 0.161521 0.241355
v 0.899014 0.162492 0.241355
v 0.901904 0.165476 0.258774
v 0.901904 0.162793 0.241355
v 0.846403 0.16631 0.260796
v 0.852116 0.165822 0.26145
v 0.851397 0.165474 0.258905
v 0.848626 0.163365 0.243816
v 0.852077 0.163017 0.243774
v 0.85154 0.162683 0.241042
v 0.843148 0.165517 0.253972
v 0.842719 0.164983 0.250477
v 0.84034 0.165904 0.254538
v 0.843888 0.163757 0.243139
v 0.84186 0.164275 0.245178
v 0.843799 0.164357 0.247071
v 0.845774 0.163844 0.245023
v 0.852077 0.163017 0.243774
v 0.85433 0.162938 0.244604
v 0.85604 0.162518 0.242513
v 0.85154 0.162683 0.241042
v 0.890625 0.162639 0.24525
v 0.891647 0.163042 0.248117
v 0.893988 0.162877 0.24575
v 0.890117 0.163913 0.254561
v 0.887396 0.163865 0.255141
v 0.891671 0.165096 0.261195
v 0.891904 0.163864 0.253698
v 0.891029 0.16333 0.250748
v 0.888297 0.163503 0.252673
v 0.875346 0.161469 0.241355
v 0.858865 0.162208 0.241355
v 0.875346 0.161773 0.243855
v 0.842719 0.164983 0.250477
v 0.843799 0.164357 0.247071
v 0.84049 0.164801 0.247725
v 0.887448 0.162305 0.243878
v 0.890625 0.162639 0.24525
v 0.888684 0.162074 0.241442
v 0.844501 0.165765 0.256318
v 0.84034 0.165904 0.254538
v 0.842703 0.166301 0.258418
v 0.847232 0.165809 0.258301
v 0.844501 0.165765 0.256318
v 0.842703 0.166301 0.258418
v 0.890117 0.163913 0.254561
v 0.888297 0.163503 0.252673
v 0.887396 0.163865 0.255141
vn 0.1024 0.9813 -0.1628
vn 0.1024 0.9813 -0.1628
vn 0.1024 0.9813 -0.1628
vn 0.1025 0.9813 -0.1628
vn 0.1025 0.9813 -0.1628
vn 0.1025 0.9813 -0.1628
vn 0.0521 0.9891 -0.1378
vn 0.0521 0.9891 -0.1378
vn 0.0521 0.9891 -0.1378
vn 0.0522 0.9891 -0.138
vn 0.0522 0.9891 -0.138
vn 0.0522 0.9891 -0.138
vn 0.052 0.9856 -0.1608
vn 0.052 0.9856 -0.1608
vn 0.052 0.9856 -0.1608
vn 0.04 0.9951 -0.0908
vn 0.04 0.9951 -0.0908
vn 0.04 0.9951 -0.0908
vn -0.0324 0.9848 -0.1708
vn -0.0324 0.9848 -0.1708
vn -0.0324 0.9848 -0.1708
vn -0.0438 0.9906 -0.13
vn -0.0438 0.9906 -0.13
vn -0.0438 0.9906 -0.13
vn -0.104 0.9828 -0.1523
vn -0.104 0.9828 -0.1523
vn -0.104 0.9828 -0.1523
vn 0.0731 0.9877 -0.1384
vn 0.0731 0.9877 -0.1384
vn 0.0731 0.9877 -0.1384
vn 0.1025 0.9813 -0.1629
vn 0.1025 0.9813 -0.1629
vn 0.1025 0.9813 -0.1629
vn 0.0874 0.9811 -0.1724
vn 0.0874 0.9811 -0.1724
vn 0.0874 0.9811 -0.1724
vn -0.0522 0.9852 -0.1634
vn -0.0522 0.9852 -0.1634
vn -0.0522 0.9852 -0.1634
vn -0.0522 0.9852 -0.1634
vn -0.0522 0.9852 -0.1634
vn -0.0522 0.9852 -0.1634
vn 0.1025 0.9837 -0.148
vn 0.1025 0.9837 -0.148
vn 0.1025 0.9837 -0.148
vn -0.0517 0.9902 -0.13
vn -0.0517 0.9902 -0.13
vn -0.0517 0.9902 -0.13
vn -0.0165 0.9864 -0.1636
vn -0.0165 0.9864 -0.1636
vn -0.0165 0.9864 -0.1636
vn -0.0522 0.9913 -0.1207
vn -0.0522 0.9913 -0.1207
vn -0.0522 0.9913 -0.1207
vn 0.0522 0.9891 -0.138
vn 0.0522 0.9891 -0.138
vn 0.0522 0.9891 -0.138
vn -0.0626 0.9904 -0.123
vn -0.0626 0.9904 -0.123
vn -0.0626 0.9904 -0.123
vn -0.0522 0.9913 -0.1206
vn -0.0522 0.9913 -0.1206
vn -0.0522 0.9913 -0.1206
vn 0.1025 0.9837 -0.148
vn 0.1025 0.9837 -0.148
vn 0.1025 0.9837 -0.148
vn -0.1031 0.9831 -0.1513
vn -0.1031 0.9831 -0.1513
vn -0.1031 0.9831 -0.1513
vn 0.0751 0.984 -0.1618
vn 0.0751 0.984 -0.1618
vn 0.0751 0.984 -0.1618
vn -0.0522 0.9913 -0.1206
vn -0.0522 0.9913 -0.1206
vn -0.0522 0.9913 -0.1206
vn -0.0522 0.9852 -0.1634
vn -0.0522 0.9852 -0.1634
vn -0.0522 0.9852 -0.1634
vn 0.1025 0.9837 -0.148
vn 0.1025 0.9837 -0.148
vn 0.1025 0.9837 -0.148
vn 0.0327 0.986 -0.1635
vn 0.0327 0.986 -0.1635
vn 0.0327 0.986 -0.1635
vn 0.1033 0.9835 -0.1486
vn 0.1033 0.9835 -0.1486
vn 0.1033 0.9835 -0.1486
vn 0.102 0.9814 -0.1629
vn 0.102 0.9814 -0.1629
vn 0.102 0.9814 -0.1629
vn 0.031 0.9885 -0.1481
vn 0.031 0.9885 -0.1481
vn 0.031 0.9885 -0.1481
vn -0.1068 0.9798 -0.1693
vn -0.1068 0.9798 -0.1693
vn -0.1068 0.9798 -0.1693
vn 0.0523 0.9856 -0.1607
vn 0.0523 0.9856 -0.1607
vn 0.0523 0.9856 -0.1607
vn -0.0517 0.9853 -0.1631
vn -0.0517 0.9853 -0.1631
vn -0.0517 0.9853 -0.1631
vn -0.0522 0.9852 -0.1634
vn -0.0522 0.9852 -0.1634
vn -0.0522 0.9852 -0.1634
vn 0.1025 0.9813 -0.1629
vn 0.1025 0.9813 -0.1629
vn 0.1025 0.9813 -0.1629
vn 0.0951 0.9852 -0.1423
vn 0.0951 0.9852 -0.1423
vn 0.0951 0.9852 -0.1423
vn -0.0522 0.9913 -0.1207
vn -0.0522 0.9913 -0.1207
vn -0.0522 0.9913 -0.1207
vn -0.0522 0.9913 -0.1207
vn -0.1023 0.9832 -0.1515
vn -0.1023 0.9832 -0.1515
vn -0.1023 0.9832 -0.1515
vn 0.1024 0.9813 -0.1629
vn 0.1024 0.9813 -0.1629
vn 0.1024 0.9813 -0.1629
vn 0.0976 0.9854 -0.1398
vn 0.0976 0.9854 -0.1398
vn 0.0976 0.9854 -0.1398
vn 0.1025 0.9814 -0.1625
vn 0.1025 0.9814 -0.1625
vn 0.1025 0.9814 -0.1625
vn 0.1025 0.9837 -0.148
vn 0.1025 0.9837 -0.148
vn 0.1025 0.9837 -0.148
vn 0.1025 0.9837 -0.148
vn 0.0815 0.9875 -0.1346
vn 0.0815 0.9875 -0.1346
vn 0.0815 0.9875 -0.1346
vn 0.0815 0.9875 -0.1346
vn -0.0522 0.9913 -0.1207
vn -0.0522 0.9913 -0.1207
vn -0.0522 0.9913 -0.1207
vn -0.0522 0.9852 -0.1634
vn -0.0522 0.9852 -0.1634
vn -0.0522 0.9852 -0.1634
vn -0.0523 0.9852 -0.1629
vn -0.0523 0.9852 -0.1629
vn -0.0523 0.9852 -0.1629
vn 0.0445 0.9917 -0.1207
vn 0.0445 0.9917 -0.1207
vn 0.0445 0.9917 -0.1207
vn 0.1025 0.9837 -0.148
vn 0.1025 0.9837 -0.148
vn 0.1025 0.9837 -0.148
vn -0.0522 0.9913 -0.1207
vn -0.0522 0.9913 -0.1207
vn -0.0522 0.9913 -0.1207
vn 0.1025 0.9813 -0.1629
vn 0.1025 0.9813 -0.1629
vn 0.1025 0.9813 -0.1629
vn 0.1024 0.9813 -0.1629
vn 0.1024 0.9813 -0.1629
vn 0.1024 0.9813 -0.1629
vn -0.0522 0.9852 -0.1634
vn -0.0522 0.9852 -0.1634
vn -0.0522 0.9852 -0.1634
vt 0.942559 0.65222
vt 0.940193 0.652282
vt 0.942126 0.653524
vt 0.942126 0.653524
vt 0.944734 0.652536
vt 0.942559 0.65222
vt 0.948635 0.643369
vt 0.952226 0.644674
vt 0.953654 0.644674
vt 0.947214 0.645805
vt 0.948188 0.644877
vt 0.94716 0.643973
vt 0.952226 0.653732
vt 0.953654 0.644674
vt 0.952226 0.644674
vt 0.953654 0.644674
vt 0.957245 0.644674
vt 0.948635 0.643369
vt 0.958836 0.653732
vt 0.960305 0.653732
vt 0.960305 0.650591
vt 0.958836 0.643369
vt 0.960305 0.649326
vt 0.960305 0.644674
vt 0.971117 0.652468
vt 0.969607 0.653732
vt 0.976707 0.652468
vt 0.947214 0.645805
vt 0.94716 0.643973
vt 0.946267 0.645066
vt 0.940426 0.649959
vt 0.938959 0.650255
vt 0.941133 0.651185
vt 0.947191 0.653132
vt 0.946248 0.652073
vt 0.94511 0.653865
vt 0.964009 0.649281
vt 0.960305 0.650591
vt 0.963539 0.65057
vt 0.964009 0.649281
vt 0.96496 0.650267
vt 0.965894 0.649816
vt 0.941797 0.645285
vt 0.943287 0.644654
vt 0.942388 0.643511
vt 0.96576 0.646901
vt 0.966889 0.648652
vt 0.967221 0.646965
vt 0.960305 0.649326
vt 0.958836 0.653732
vt 0.960305 0.650591
vt 0.96576 0.646901
vt 0.967221 0.646965
vt 0.966982 0.645664
vt 0.948635 0.643369
vt 0.948188 0.644877
vt 0.952226 0.644674
vt 0.965437 0.648275
vt 0.966889 0.648652
vt 0.96576 0.646901
vt 0.965226 0.645403
vt 0.966982 0.645664
vt 0.966203 0.644458
vt 0.940812 0.644301
vt 0.941797 0.645285
vt 0.942388 0.643511
vt 0.969607 0.653732
vt 0.971117 0.652468
vt 0.969607 0.643369
vt 0.947255 0.651296
vt 0.946248 0.652073
vt 0.947191 0.653132
vt 0.965226 0.645403
vt 0.966203 0.644458
vt 0.964212 0.643414
vt 0.96496 0.650267
vt 0.965772 0.653732
vt 0.967404 0.653732
vt 0.940766 0.646354
vt 0.939753 0.645365
vt 0.939037 0.646696
vt 0.947191 0.653132
vt 0.948238 0.652233
vt 0.947255 0.651296
vt 0.938754 0.648239
vt 0.940201 0.648134
vt 0.939037 0.646696
vt 0.938754 0.648239
vt 0.938959 0.650255
vt 0.940201 0.648134
vt 0.960305 0.649326
vt 0.958836 0.643369
vt 0.958836 0.653732
vt 0.976707 0.652468
vt 0.969607 0.653732
vt 0.976707 0.653732
vt 0.952226 0.653732
vt 0.953654 0.653732
vt 0.953654 0.644674
vt 0.965437 0.648275
vt 0.965894 0.649816
vt 0.966889 0.648652
vt 0.964009 0.649281
vt 0.960305 0.649326
vt 0.960305 0.650591
vt 0.94511 0.653865
vt 0.946248 0.652073
vt 0.944734 0.652536
vt 0.944809 0.643205
vt 0.942388 0.643511
vt 0.943287 0.644654
vt 0.960305 0.644674
vt 0.963566 0.644687
vt 0.964212 0.643414
vt 0.958836 0.643369
vt 0.969607 0.643369
vt 0.971117 0.652468
vt 0.971117 0.643369
vt 0.942126 0.653524
vt 0.94511 0.653865
vt 0.944734 0.652536
vt 0.943287 0.644654
vt 0.94509 0.644632
vt 0.944809 0.643205
vt 0.940426 0.649959
vt 0.940201 0.648134
vt 0.938959 0.650255
vt 0.940812 0.644301
vt 0.939753 0.645365
vt 0.940766 0.646354
vt 0.941797 0.645285
vt 0.94509 0.644632
vt 0.946267 0.645066
vt 0.94716 0.643973
vt 0.944809 0.643205
vt 0.965226 0.645403
vt 0.96576 0.646901
vt 0.966982 0.645664
vt 0.96496 0.650267
vt 0.963539 0.65057
vt 0.965772 0.653732
vt 0.965894 0.649816
vt 0.965437 0.648275
vt 0.964009 0.649281
vt 0.957245 0.643369
vt 0.948635 0.643369
vt 0.957245 0.644674
vt 0.940201 0.648134
vt 0.940766 0.646354
vt 0.939037 0.646696
vt 0.963566 0.644687
vt 0.965226 0.645403
vt 0.964212 0.643414
vt 0.941133 0.651185
vt 0.938959 0.650255
vt 0.940193 0.652282
vt 0.942559 0.65222
vt 0.941133 0.651185
vt 0.940193 0.652282
vt 0.96496 0.650267
vt 0.964009 0.649281
vt 0.963539 0.65057
s off
f 1/1/1 2/2/2 3/3/3
f 4/4/4 5/5/5 6/6/6
f 7/7/7 8/8/8 9/9/9
f 10/10/10 11/11/11 12/12/12
f 13/13/13 14/14/14 15/15/15
f 16/16/16 17/17/17 18/18/18
f 19/19/19 20/20/20 21/21/21
f 22/22/22 23/23/23 24/24/24
f 25/25/25 26/26/26 27/27/27
f 28/28/28 29/29/29 30/30/30
f 31/31/31 32/32/32 33/33/33
f 34/34/34 35/35/35 36/36/36
f 37/37/37 38/38/38 39/39/39
f 40/40/40 41/41/41 42/42/42
f 43/43/43 44/44/44 45/45/45
f 46/46/46 47/47/47 48/48/48
f 49/49/49 50/50/50 51/51/51
f 52/52/52 53/53/53 54/54/54
f 55/55/55 56/56/56 57/57/57
f 58/58/58 59/59/59 60/60/60
f 61/61/61 62/62/62 63/63/63
f 64/64/64 65/65/65 66/66/66
f 67/67/67 68/68/68 69/69/69
f 70/70/70 71/71/71 72/72/72
f 73/73/73 74/74/74 75/75/75
f 76/76/76 77/77/77 78/78/78
f 79/79/79 80/80/80 81/81/81
f 82/82/82 83/83/83 84/84/84
f 85/85/85 86/86/86 87/87/87
f 88/88/88 89/89/89 90/90/90
f 91/91/91 92/92/92 93/93/93
f 94/94/94 95/95/95 96/96/96
f 97/97/97 98/98/98 99/99/99
f 100/100/100 101/101/101 102/102/102
f 103/103/103 104/104/104 105/105/105
f 106/106/106 107/107/107 108/108/108
f 109/109/109 110/110/110 111/111/111
f 112/112/112 113/113/113 114/114/114
f 112/112/112 114/114/114 115/115/115
f 116/116/116 117/117/117 118/118/118
f 119/119/119 120/120/120 121/121/121
f 122/122/122 123/123/123 124/124/124
f 125/125/125 126/126/126 127/127/127
f 128/128/128 129/129/129 130/130/130
f 128/128/128 130/130/130 131/131/131
f 132/132/132 133/133/133 134/134/134
f 132/132/132 134/134/134 135/135/135
f 136/136/136 137/137/137 138/138/138
f 139/139/139 140/140/140 141/141/141
f 142/142/142 143/143/143 144/144/144
f 145/145/145 146/146/146 147/147/147
f 148/148/148 149/149/149 150/150/150
f 151/151/151 152/152/152 153/153/153
f 154/154/154 155/155/155 156/156/156
f 157/157/157 158/158/158 159/159/159
f 160/160/160 161/161/161 162/162/162
