v -0.898731 0.167144 0.260047
v -0.896727 0.166828 0.258325
v -0.89861 0.166594 0.256531
v -0.868054 0.165811 0.252757
v -0.87347 0.166052 0.255181
v -0.867276 0.166195 0.255141
v -0.89861 0.166594 0.256531
v -0.900537 0.166923 0.258019
v -0.898731 0.167144 0.260047
v -0.865042 0.164616 0.24466
v -0.864556 0.164206 0.241972
v -0.867315 0.164454 0.243876
v -0.908259 0.165304 0.244584
v -0.910865 0.165238 0.243139
v -0.910325 0.165691 0.246268
v -0.863316 0.165448 0.249819
v -0.860806 0.165723 0.251305
v -0.86023 0.165257 0.248241
v -0.879407 0.163851 0.241355
v -0.889014 0.164403 0.243855
v -0.886202 0.164353 0.243855
v -0.863361 0.164924 0.246457
v -0.86023 0.165257 0.248241
v -0.860686 0.164861 0.24575
v -0.914806 0.166776 0.250677
v -0.911785 0.16621 0.248778
v -0.914263 0.166248 0.247724
v -0.907976 0.167871 0.260925
v -0.903434 0.167237 0.258905
v -0.906979 0.167389 0.25849
v -0.898606 0.16496 0.246023
v -0.896744 0.164639 0.244243
v -0.898713 0.164417 0.242513
v -0.907848 0.164819 0.241628
v -0.908259 0.165304 0.244584
v -0.905569 0.165012 0.243755
v -0.889014 0.167088 0.261195
v -0.886202 0.167021 0.261195
v -0.889014 0.164403 0.243855
v -0.879407 0.164235 0.243855
v -0.879407 0.163851 0.241355
v -0.886202 0.164353 0.243855
v -0.859879 0.167277 0.261195
v -0.864558 0.166163 0.25456
v -0.863003 0.167222 0.261195
v -0.87347 0.166974 0.261195
v -0.87347 0.166052 0.255181
v -0.876282 0.166907 0.261195
v -0.865063 0.165771 0.252093
v -0.868054 0.165811 0.252757
v -0.867276 0.166195 0.255141
v -0.860806 0.165723 0.251305
v -0.865063 0.165771 0.252093
v -0.86242 0.166023 0.253414
v -0.876282 0.163865 0.241355
v -0.873548 0.165679 0.252759
v -0.873548 0.164314 0.243855
v -0.867315 0.164454 0.243876
v -0.867614 0.164058 0.241362
v -0.873548 0.164314 0.243855
v -0.852849 0.167283 0.258774
v -0.855739 0.167414 0.261195
v -0.842148 0.168166 0.258774
v -0.842148 0.168561 0.261195
v -0.842148 0.168166 0.258774
v -0.855739 0.167414 0.261195
v -0.911785 0.16621 0.248778
v -0.912892 0.165715 0.245177
v -0.914263 0.166248 0.247724
v -0.910865 0.165238 0.243139
v -0.908259 0.165304 0.244584
v -0.907848 0.164819 0.241628
v -0.865042 0.164616 0.24466
v -0.86202 0.164507 0.243623
v -0.864556 0.164206 0.241972
v -0.909985 0.16736 0.256753
v -0.911832 0.167831 0.258673
v -0.907976 0.167871 0.260925
v -0.863361 0.164924 0.246457
v -0.860686 0.164861 0.24575
v -0.86202 0.164507 0.243623
v -0.898606 0.16496 0.246023
v -0.898713 0.164417 0.242513
v -0.900422 0.16483 0.244604
v -0.910325 0.165691 0.246268
v -0.910865 0.165238 0.243139
v -0.912892 0.165715 0.245177
v -0.864558 0.166163 0.25456
v -0.86242 0.166023 0.253414
v -0.865063 0.165771 0.252093
v -0.863316 0.165448 0.249819
v -0.86023 0.165257 0.248241
v -0.863361 0.164924 0.246457
v -0.898731 0.167144 0.260047
v -0.900537 0.166923 0.258019
v -0.902709 0.167588 0.261449
v -0.865063 0.165771 0.252093
v -0.867276 0.166195 0.255141
v -0.864558 0.166163 0.25456
v -0.911985 0.166942 0.253157
v -0.914412 0.167374 0.254538
v -0.909985 0.16736 0.256753
v -0.864558 0.166163 0.25456
v -0.867276 0.166195 0.255141
v -0.863003 0.167222 0.261195
v -0.868054 0.165811 0.252757
v -0.873548 0.165679 0.252759
v -0.87347 0.166052 0.255181
v -0.905569 0.165012 0.243755
v -0.902675 0.164838 0.243774
v -0.903213 0.164446 0.241041
v -0.855739 0.16433 0.241355
v -0.855739 0.167414 0.261195
v -0.852849 0.167283 0.258774
v -0.852849 0.164575 0.241355
v -0.863316 0.165448 0.249819
v -0.865063 0.165771 0.252093
v -0.860806 0.165723 0.251305
v -0.902675 0.164838 0.243774
v -0.900422 0.16483 0.244604
v -0.898713 0.164417 0.242513
v -0.903213 0.164446 0.241041
v -0.865042 0.164616 0.24466
v -0.863361 0.164924 0.246457
v -0.86202 0.164507 0.243623
v -0.903213 0.164446 0.241041
v -0.907848 0.164819 0.241628
v -0.905569 0.165012 0.243755
v -0.914806 0.166776 0.250677
v -0.911985 0.166942 0.253157
v -0.911785 0.16621 0.248778
v -0.867614 0.164058 0.241362
v -0.876282 0.163865 0.241355
v -0.873548 0.164314 0.243855
v -0.914806 0.166776 0.250677
v -0.914412 0.167374 0.254538
v -0.911985 0.166942 0.253157
v -0.889014 0.164403 0.243855
v -0.886202 0.167021 0.261195
v -0.886202 0.164353 0.243855
v -0.89581 0.164167 0.241355
v -0.89581 0.164556 0.243855
v -0.889014 0.164403 0.243855
v -0.879407 0.163851 0.241355
v -0.89581 0.164167 0.241355
v -0.889014 0.164403 0.243855
v -0.876282 0.166907 0.261195
v -0.87347 0.166052 0.255181
v -0.873548 0.165679 0.252759
v -0.876282 0.163865 0.241355
v -0.909985 0.16736 0.256753
v -0.914412 0.167374 0.254538
v -0.911832 0.167831 0.258673
v -0.902709 0.167588 0.261449
v -0.900537 0.166923 0.258019
v -0.903434 0.167237 0.258905
v -0.907976 0.167871 0.260925
v -0.902709 0.167588 0.261449
v -0.903434 0.167237 0.258905
v -0.867315 0.164454 0.243876
v -0.864556 0.164206 0.241972
v -0.867614 0.164058 0.241362
v -0.906979 0.167389 0.25849
v -0.909985 0.16736 0.256753
v -0.907976 0.167871 0.260925
v -0.911785 0.16621 0.248778
v -0.910325 0.165691 0.246268
v -0.912892 0.165715 0.245177
v -0.859879 0.167277 0.261195
v -0.859879 0.167277 0.261195
vn 0.0237 0.9878 -0.1536
vn 0.0237 0.9878 -0.1536
vn 0.0237 0.9878 -0.1536
vn -0.0238 0.9882 -0.1515
vn -0.0238 0.9882 -0.1515
vn -0.0238 0.9882 -0.1515
vn 0.0506 0.987 -0.1525
vn 0.0506 0.987 -0.1525
vn 0.0506 0.987 -0.1525
vn -0.0173 0.988 -0.1536
vn -0.0173 0.988 -0.1536
vn -0.0173 0.988 -0.1536
vn 0.06 0.9864 -0.1533
vn 0.06 0.9864 -0.1533
vn 0.06 0.9864 -0.1533
vn -0.0173 0.988 -0.1536
vn -0.0173 0.988 -0.1536
vn -0.0173 0.988 -0.1536
vn 0.0173 0.9883 -0.1514
vn 0.0173 0.9883 -0.1514
vn 0.0173 0.9883 -0.1514
vn -0.0173 0.988 -0.1536
vn -0.0173 0.988 -0.1536
vn -0.0173 0.988 -0.1536
vn 0.0835 0.9835 -0.1607
vn 0.0835 0.9835 -0.1607
vn 0.0835 0.9835 -0.1607
vn 0.062 0.9836 -0.1695
vn 0.062 0.9836 -0.1695
vn 0.062 0.9836 -0.1695
vn 0.0238 0.9878 -0.1536
vn 0.0238 0.9878 -0.1536
vn 0.0238 0.9878 -0.1536
vn 0.06 0.9863 -0.1534
vn 0.06 0.9863 -0.1534
vn 0.06 0.9863 -0.1534
vn 0.0238 0.9879 -0.153
vn 0.0238 0.9879 -0.153
vn 0.0238 0.9879 -0.153
vn 0.0173 0.9883 -0.1515
vn 0.0173 0.9883 -0.1515
vn 0.0173 0.9883 -0.1515
vn -0.0173 0.988 -0.1536
vn -0.0173 0.988 -0.1536
vn -0.0173 0.988 -0.1536
vn -0.0238 0.9882 -0.1515
vn -0.0238 0.9882 -0.1515
vn -0.0238 0.9882 -0.1515
vn -0.0207 0.9881 -0.1525
vn -0.0207 0.9881 -0.1525
vn -0.0207 0.9881 -0.1525
vn -0.0173 0.988 -0.1536
vn -0.0173 0.988 -0.1536
vn -0.0173 0.988 -0.1536
vn -0.0238 0.9882 -0.1515
vn -0.0238 0.9882 -0.1515
vn -0.0238 0.9882 -0.1515
vn -0.0217 0.988 -0.1531
vn -0.0217 0.988 -0.1531
vn -0.0217 0.988 -0.1531
vn -0.0813 0.9853 -0.1506
vn -0.0813 0.9853 -0.1506
vn -0.0813 0.9853 -0.1506
vn -0.083 0.9835 -0.1607
vn -0.083 0.9835 -0.1607
vn -0.083 0.9835 -0.1607
vn 0.0835 0.9835 -0.1607
vn 0.0835 0.9835 -0.1607
vn 0.0835 0.9835 -0.1607
vn 0.06 0.9863 -0.1534
vn 0.06 0.9863 -0.1534
vn 0.06 0.9863 -0.1534
vn -0.0173 0.988 -0.1536
vn -0.0173 0.988 -0.1536
vn -0.0173 0.988 -0.1536
vn 0.0835 0.9835 -0.1607
vn 0.0835 0.9835 -0.1607
vn 0.0835 0.9835 -0.1607
vn -0.0173 0.988 -0.1536
vn -0.0173 0.988 -0.1536
vn -0.0173 0.988 -0.1536
vn 0.0499 0.9868 -0.1542
vn 0.0499 0.9868 -0.1542
vn 0.0499 0.9868 -0.1542
vn 0.0753 0.9849 -0.1558
vn 0.0753 0.9849 -0.1558
vn 0.0753 0.9849 -0.1558
vn -0.0173 0.988 -0.1536
vn -0.0173 0.988 -0.1536
vn -0.0173 0.988 -0.1536
vn -0.0173 0.988 -0.1536
vn -0.0173 0.988 -0.1536
vn -0.0173 0.988 -0.1536
vn 0.0551 0.9862 -0.1564
vn 0.0551 0.9862 -0.1564
vn 0.0551 0.9862 -0.1564
vn -0.0211 0.988 -0.1528
vn -0.0211 0.988 -0.1528
vn -0.0211 0.988 -0.1528
vn 0.0835 0.9835 -0.1607
vn 0.0835 0.9835 -0.1607
vn 0.0835 0.9835 -0.1607
vn -0.021 0.988 -0.1527
vn -0.021 0.988 -0.1527
vn -0.021 0.988 -0.1527
vn -0.0238 0.9882 -0.1515
vn -0.0238 0.9882 -0.1515
vn -0.0238 0.9882 -0.1515
vn 0.06 0.9863 -0.1534
vn 0.06 0.9863 -0.1534
vn 0.06 0.9863 -0.1534
vn -0.0834 0.9847 -0.1531
vn -0.0834 0.9847 -0.1531
vn -0.0834 0.9847 -0.1531
vn -0.0834 0.9847 -0.1531
vn -0.0173 0.988 -0.1536
vn -0.0173 0.988 -0.1536
vn -0.0173 0.988 -0.1536
vn 0.0569 0.9869 -0.151
vn 0.0569 0.9869 -0.151
vn 0.0569 0.9869 -0.151
vn 0.0569 0.9869 -0.151
vn -0.0173 0.988 -0.1536
vn -0.0173 0.988 -0.1536
vn -0.0173 0.988 -0.1536
vn 0.06 0.9863 -0.1534
vn 0.06 0.9863 -0.1534
vn 0.06 0.9863 -0.1534
vn 0.0835 0.9835 -0.1607
vn 0.0835 0.9835 -0.1607
vn 0.0835 0.9835 -0.1607
vn -0.0219 0.9879 -0.1535
vn -0.0219 0.9879 -0.1535
vn -0.0219 0.9879 -0.1535
vn 0.0835 0.9835 -0.1607
vn 0.0835 0.9835 -0.1607
vn 0.0835 0.9835 -0.1607
vn 0.0173 0.9882 -0.152
vn 0.0173 0.9882 -0.152
vn 0.0173 0.9882 -0.152
vn 0.0223 0.9879 -0.1536
vn 0.0223 0.9879 -0.1536
vn 0.0223 0.9879 -0.1536
vn 0.0191 0.9893 -0.145
vn 0.0191 0.9893 -0.145
vn 0.0191 0.9893 -0.145
vn -0.0238 0.9882 -0.1515
vn -0.0238 0.9882 -0.1515
vn -0.0238 0.9882 -0.1515
vn -0.0238 0.9882 -0.1515
vn 0.0835 0.9835 -0.1607
vn 0.0835 0.9835 -0.1607
vn 0.0835 0.9835 -0.1607
vn 0.06 0.9864 -0.1533
vn 0.06 0.9864 -0.1533
vn 0.06 0.9864 -0.1533
vn 0.0684 0.9854 -0.1556
vn 0.0684 0.9854 -0.1556
vn 0.0684 0.9854 -0.1556
vn -0.0173 0.988 -0.1536
vn -0.0173 0.988 -0.1536
vn -0.0173 0.988 -0.1536
vn 0.0835 0.9835 -0.1607
vn 0.0835 0.9835 -0.1607
vn 0.0835 0.9835 -0.1607
vn 0.0766 0.9844 -0.1587
vn 0.0766 0.9844 -0.1587
vn 0.0766 0.9844 -0.1587
vn 0 0 0
vn 0 0 0
vt 0.030541 0.653132
vt 0.031587 0.652233
vt 0.030604 0.651296
vt 0.046565 0.649325
vt 0.043736 0.650591
vt 0.046971 0.65057
vt 0.030604 0.651296
vt 0.029597 0.652073
vt 0.030541 0.653132
vt 0.048138 0.645095
vt 0.048392 0.643691
vt 0.046951 0.644685
vt 0.025563 0.645055
vt 0.024202 0.644301
vt 0.024484 0.645935
vt 0.04904 0.64779
vt 0.050351 0.648566
vt 0.050652 0.646966
vt 0.040635 0.643369
vt 0.035616 0.644674
vt 0.037085 0.644674
vt 0.049016 0.646034
vt 0.050652 0.646966
vt 0.050414 0.645664
vt 0.022144 0.648238
vt 0.023721 0.647246
vt 0.022427 0.646696
vt 0.025711 0.653591
vt 0.028084 0.652536
vt 0.026232 0.652319
vt 0.030606 0.645807
vt 0.031578 0.644877
vt 0.03055 0.643973
vt 0.025778 0.643511
vt 0.025563 0.645055
vt 0.026968 0.644622
vt 0.035616 0.653732
vt 0.037085 0.653732
vt 0.035616 0.644674
vt 0.040635 0.644674
vt 0.040635 0.643369
vt 0.037085 0.644674
vt 0.050835 0.653732
vt 0.048391 0.650266
vt 0.049203 0.653732
vt 0.043736 0.653732
vt 0.043736 0.650591
vt 0.042267 0.653732
vt 0.048127 0.648978
vt 0.046565 0.649325
vt 0.046971 0.65057
vt 0.050351 0.648566
vt 0.048127 0.648978
vt 0.049508 0.649668
vt 0.042267 0.643369
vt 0.043695 0.649326
vt 0.043695 0.644674
vt 0.046951 0.644685
vt 0.046795 0.643372
vt 0.043695 0.644674
vt 0.054507 0.652468
vt 0.052998 0.653732
vt 0.060097 0.652468
vt 0.060097 0.653732
vt 0.060097 0.652468
vt 0.052998 0.653732
vt 0.023721 0.647246
vt 0.023143 0.645365
vt 0.022427 0.646696
vt 0.024202 0.644301
vt 0.025563 0.645055
vt 0.025778 0.643511
vt 0.048138 0.645095
vt 0.049717 0.644554
vt 0.048392 0.643691
vt 0.024662 0.651412
vt 0.023697 0.652415
vt 0.025711 0.653591
vt 0.049016 0.646034
vt 0.050414 0.645664
vt 0.049717 0.644554
vt 0.030606 0.645807
vt 0.03055 0.643973
vt 0.029657 0.645066
vt 0.024484 0.645935
vt 0.024202 0.644301
vt 0.023143 0.645365
vt 0.048391 0.650266
vt 0.049508 0.649668
vt 0.048127 0.648978
vt 0.04904 0.64779
vt 0.050652 0.646966
vt 0.049016 0.646034
vt 0.030541 0.653132
vt 0.029597 0.652073
vt 0.028463 0.653865
vt 0.048127 0.648978
vt 0.046971 0.65057
vt 0.048391 0.650266
vt 0.023617 0.649534
vt 0.022349 0.650255
vt 0.024662 0.651412
vt 0.048391 0.650266
vt 0.046971 0.65057
vt 0.049203 0.653732
vt 0.046565 0.649325
vt 0.043695 0.649326
vt 0.043736 0.650591
vt 0.026968 0.644622
vt 0.02848 0.644632
vt 0.028199 0.643205
vt 0.052998 0.643369
vt 0.052998 0.653732
vt 0.054507 0.652468
vt 0.054507 0.643369
vt 0.04904 0.64779
vt 0.048127 0.648978
vt 0.050351 0.648566
vt 0.02848 0.644632
vt 0.029657 0.645066
vt 0.03055 0.643973
vt 0.028199 0.643205
vt 0.048138 0.645095
vt 0.049016 0.646034
vt 0.049717 0.644554
vt 0.028199 0.643205
vt 0.025778 0.643511
vt 0.026968 0.644622
vt 0.022144 0.648238
vt 0.023617 0.649534
vt 0.023721 0.647246
vt 0.046795 0.643372
vt 0.042267 0.643369
vt 0.043695 0.644674
vt 0.022144 0.648238
vt 0.022349 0.650255
vt 0.023617 0.649534
vt 0.035616 0.644674
vt 0.037085 0.653732
vt 0.037085 0.644674
vt 0.032066 0.643369
vt 0.032066 0.644674
vt 0.035616 0.644674
vt 0.040635 0.643369
vt 0.032066 0.643369
vt 0.035616 0.644674
vt 0.042267 0.653732
vt 0.043736 0.650591
vt 0.043695 0.649326
vt 0.042267 0.643369
vt 0.024662 0.651412
vt 0.022349 0.650255
vt 0.023697 0.652415
vt 0.028463 0.653865
vt 0.029597 0.652073
vt 0.028084 0.652536
vt 0.025711 0.653591
vt 0.028463 0.653865
vt 0.028084 0.652536
vt 0.046951 0.644685
vt 0.048392 0.643691
vt 0.046795 0.643372
vt 0.026232 0.652319
vt 0.024662 0.651412
vt 0.025711 0.653591
vt 0.023721 0.647246
vt 0.024484 0.645935
vt 0.023143 0.645365
vt 0 1
vt 0 1
s off
f 1/1/1 2/2/2 3/3/3
f 4/4/4 5/5/5 6/6/6
f 7/7/7 8/8/8 9/9/9
f 10/10/10 11/11/11 12/12/12
f 13/13/13 14/14/14 15/15/15
f 16/16/16 17/17/17 18/18/18
f 19/19/19 20/20/20 21/21/21
f 22/22/22 23/23/23 24/24/24
f 25/25/25 26/26/26 27/27/27
f 28/28/28 29/29/29 30/30/30
f 31/31/31 32/32/32 33/33/33
f 34/34/34 35/35/35 36/36/36
f 37/37/37 38/38/38 39/39/39
f 40/40/40 41/41/41 42/42/42
f 43/43/43 44/44/44 45/45/45
f 46/46/46 47/47/47 48/48/48
f 49/49/49 50/50/50 51/51/51
f 52/52/52 53/53/53 54/54/54
f 55/55/55 56/56/56 57/57/57
f 58/58/58 59/59/59 60/60/60
f 61/61/61 62/62/62 63/63/63
f 64/64/64 65/65/65 66/66/66
f 67/67/67 68/68/68 69/69/69
f 70/70/70 71/71/71 72/72/72
f 73/73/73 74/74/74 75/75/75
f 76/76/76 77/77/77 78/78/78
f 79/79/79 80/80/80 81/81/81
f 82/82/82 83/83/83 84/84/84
f 85/85/85 86/86/86 87/87/87
f 88/88/88 89/89/89 90/90/90
f 91/91/91 92/92/92 93/93/93
f 94/94/94 95/95/95 96/96/96
f 97/97/97 98/98/98 99/99/99
f 100/100/100 101/101/101 102/102/102
f 103/103/103 104/104/104 105/105/105
f 106/106/106 107/107/107 108/108/108
f 109/109/109 110/110/110 111/111/111
f 112/112/112 113/113/113 114/114/114
f 112/112/112 114/114/114 115/115/115
f 116/116/116 117/117/117 118/118/118
f 119/119/119 120/120/120 121/121/121
f 119/119/119 121/121/121 122/122/122
f 123/123/123 124/124/124 125/125/125
f 126/126/126 127/127/127 128/128/128
f 129/129/129 130/130/130 131/131/131
f 132/132/132 133/133/133 134/134/134
f 135/135/135 136/136/136 137/137/137
f 138/138/138 139/139/139 140/140/140
f 141/141/141 142/142/142 143/143/143
f 144/144/144 145/145/145 146/146/146
f 147/147/147 148/148/148 149/149/149
f 147/147/147 149/149/149 150/150/150
f 151/151/151 152/152/152 153/153/153
f 154/154/154 155/155/155 156/156/156
f 157/157/157 158/158/158 159/159/159
f 160/160/160 161/161/161 162/162/162
f 163/163/163 164/164/164 165/165/165
f 166/166/166 167/167/167 168/168/168
