v -0.429969 0.16762 -0.014862
v -0.427417 0.167511 -0.012738
v -0.427739 0.167571 -0.017619
v -0.431945 0.167783 -0.010489
v -0.429969 0.16762 -0.014862
v -0.434456 0.168074 -0.012942
v -0.427417 0.167511 -0.012738
v -0.429969 0.16762 -0.014862
v -0.431945 0.167783 -0.010489
v -0.427739 0.167571 -0.017619
v -0.427417 0.167511 -0.012738
v -0.424724 0.167454 -0.015984
v -0.427739 0.167571 -0.017619
v -0.424724 0.167454 -0.015984
v -0.423417 0.167454 -0.019534
v -0.426743 0.167568 -0.020668
v -0.423417 0.167454 -0.019534
v -0.423327 0.167504 -0.024322
v -0.426743 0.167568 -0.020668
v -0.427739 0.167571 -0.017619
v -0.423417 0.167454 -0.019534
v -0.423327 0.167504 -0.024322
v -0.42679 0.167606 -0.023967
v -0.426743 0.167568 -0.020668
v -0.424338 0.167572 -0.027635
v -0.427827 0.16767 -0.02695
v -0.42679 0.167606 -0.023967
v -0.423327 0.167504 -0.024322
v -0.430586 0.167838 -0.029935
v -0.427827 0.16767 -0.02695
v -0.426075 0.167654 -0.030335
v -0.427827 0.16767 -0.02695
v -0.424338 0.167572 -0.027635
v -0.426075 0.167654 -0.030335
v -0.430586 0.167838 -0.029935
v -0.426075 0.167654 -0.030335
v -0.429105 0.167774 -0.03277
v -0.430586 0.167838 -0.029935
v -0.429105 0.167774 -0.03277
v -0.434023 0.168255 -0.03449
v -0.443315 0.169197 -0.031407
v -0.434023 0.168255 -0.03449
v -0.446908 0.169664 -0.034532
v -0.435076 0.168327 -0.03138
v -0.434023 0.168255 -0.03449
v -0.443315 0.169197 -0.031407
v -0.435076 0.168327 -0.03138
v -0.430586 0.167838 -0.029935
v -0.434023 0.168255 -0.03449
v -0.443315 0.169047 -0.012895
v -0.443315 0.169197 -0.031407
v -0.446908 0.16953 -0.009927
v -0.443315 0.169197 -0.031407
v -0.446908 0.169664 -0.034532
v -0.446908 0.16953 -0.009927
v -0.443315 0.169047 -0.012895
v -0.446908 0.16953 -0.009927
v -0.435604 0.168164 -0.009931
v -0.434456 0.168074 -0.012942
v -0.435604 0.168164 -0.009931
v -0.431945 0.167783 -0.010489
v -0.434456 0.168074 -0.012942
v -0.443315 0.169047 -0.012895
v -0.435604 0.168164 -0.009931
vn 0.0342 0.9994 0.0101
vn 0.0342 0.9994 0.0101
vn 0.0342 0.9994 0.0101
vn 0.105 0.9944 0.0102
vn 0.105 0.9944 0.0102
vn 0.105 0.9944 0.0102
vn 0.0535 0.9985 -0.0132
vn 0.0535 0.9985 -0.0132
vn 0.0535 0.9985 -0.0132
vn 0.0332 0.9994 0.0102
vn 0.0332 0.9994 0.0102
vn 0.0332 0.9994 0.0102
vn 0.0323 0.9994 0.0118
vn 0.0323 0.9994 0.0118
vn 0.0323 0.9994 0.0118
vn 0.0305 0.9995 0.0111
vn 0.0305 0.9995 0.0111
vn 0.0305 0.9995 0.0111
vn 0.0312 0.9995 0.0092
vn 0.0312 0.9995 0.0092
vn 0.0312 0.9995 0.0092
vn 0.0304 0.9995 0.011
vn 0.0304 0.9995 0.011
vn 0.0304 0.9995 0.011
vn 0.0304 0.9995 0.0111
vn 0.0304 0.9995 0.0111
vn 0.0304 0.9995 0.0111
vn 0.0304 0.9995 0.0111
vn 0.0421 0.999 0.0171
vn 0.0421 0.999 0.0171
vn 0.0421 0.999 0.0171
vn 0.0304 0.9995 0.0111
vn 0.0304 0.9995 0.0111
vn 0.0304 0.9995 0.0111
vn 0.0405 0.9992 -0.0015
vn 0.0405 0.9992 -0.0015
vn 0.0405 0.9992 -0.0015
vn 0.089 0.9957 0.024
vn 0.089 0.9957 0.024
vn 0.089 0.9957 0.024
vn 0.1086 0.9938 0.0235
vn 0.1086 0.9938 0.0235
vn 0.1086 0.9938 0.0235
vn 0.105 0.9944 0.0126
vn 0.105 0.9944 0.0126
vn 0.105 0.9944 0.0126
vn 0.1043 0.9945 0.0123
vn 0.1043 0.9945 0.0123
vn 0.1043 0.9945 0.0123
vn 0.1398 0.9901 0.008
vn 0.1398 0.9901 0.008
vn 0.1398 0.9901 0.008
vn 0.1242 0.9922 0.0054
vn 0.1242 0.9922 0.0054
vn 0.1242 0.9922 0.0054
vn 0.1199 0.9926 -0.0164
vn 0.1199 0.9926 -0.0164
vn 0.1199 0.9926 -0.0164
vn 0.1051 0.9944 0.0101
vn 0.1051 0.9944 0.0101
vn 0.1051 0.9944 0.0101
vn 0.1093 0.9939 0.0117
vn 0.1093 0.9939 0.0117
vn 0.1093 0.9939 0.0117
vt 0.275402 0.509532
vt 0.276735 0.510641
vt 0.276567 0.508091
vt 0.27437 0.511816
vt 0.275402 0.509532
vt 0.273058 0.510534
vt 0.276735 0.510641
vt 0.275402 0.509532
vt 0.27437 0.511816
vt 0.276567 0.508091
vt 0.276735 0.510641
vt 0.278142 0.508946
vt 0.276567 0.508091
vt 0.278142 0.508946
vt 0.278825 0.507091
vt 0.277088 0.506499
vt 0.278825 0.507091
vt 0.278872 0.50459
vt 0.277088 0.506499
vt 0.276567 0.508091
vt 0.278825 0.507091
vt 0.278872 0.50459
vt 0.277063 0.504775
vt 0.277088 0.506499
vt 0.278344 0.502859
vt 0.276521 0.503217
vt 0.277063 0.504775
vt 0.278872 0.50459
vt 0.27508 0.501658
vt 0.276521 0.503217
vt 0.277436 0.501449
vt 0.276521 0.503217
vt 0.278344 0.502859
vt 0.277436 0.501449
vt 0.27508 0.501658
vt 0.277436 0.501449
vt 0.275853 0.500177
vt 0.27508 0.501658
vt 0.275853 0.500177
vt 0.273284 0.499279
vt 0.268431 0.500889
vt 0.273284 0.499279
vt 0.266554 0.499257
vt 0.272734 0.500903
vt 0.273284 0.499279
vt 0.268431 0.500889
vt 0.272734 0.500903
vt 0.27508 0.501658
vt 0.273284 0.499279
vt 0.268431 0.510559
vt 0.268431 0.500889
vt 0.266554 0.51211
vt 0.268431 0.500889
vt 0.266554 0.499257
vt 0.266554 0.51211
vt 0.268431 0.510559
vt 0.266554 0.51211
vt 0.272459 0.512107
vt 0.273058 0.510534
vt 0.272459 0.512107
vt 0.27437 0.511816
vt 0.273058 0.510534
vt 0.268431 0.510559
vt 0.272459 0.512107
s off
f 1/1/1 2/2/2 3/3/3
f 4/4/4 5/5/5 6/6/6
f 7/7/7 8/8/8 9/9/9
f 10/10/10 11/11/11 12/12/12
f 13/13/13 14/14/14 15/15/15
f 16/16/16 17/17/17 18/18/18
f 19/19/19 20/20/20 21/21/21
f 22/22/22 23/23/23 24/24/24
f 25/25/25 26/26/26 27/27/27
f 25/25/25 27/27/27 28/28/28
f 29/29/29 30/30/30 31/31/31
f 32/32/32 33/33/33 34/34/34
f 35/35/35 36/36/36 37/37/37
f 38/38/38 39/39/39 40/40/40
f 41/41/41 42/42/42 43/43/43
f 44/44/44 45/45/45 46/46/46
f 47/47/47 48/48/48 49/49/49
f 50/50/50 51/51/51 52/52/52
f 53/53/53 54/54/54 55/55/55
f 56/56/56 57/57/57 58/58/58
f 59/59/59 60/60/60 61/61/61
f 62/62/62 63/63/63 64/64/64
