v -0.472684 0.180238 -0.148651
v -0.460343 0.179261 -0.148651
v -0.472684 0.180385 -0.15162
v -0.460343 0.179261 -0.148651
v -0.460343 0.17941 -0.15162
v -0.472684 0.180385 -0.15162
v -0.476199 0.181266 -0.162243
v -0.472684 0.180385 -0.15162
v -0.472684 0.18076 -0.159196
v -0.476199 0.181266 -0.162243
v -0.472684 0.180238 -0.148651
v -0.472684 0.180385 -0.15162
v -0.472684 0.18076 -0.159196
v -0.458859 0.179999 -0.162243
v -0.476199 0.181266 -0.162243
v -0.472684 0.180238 -0.148651
v -0.476199 0.181266 -0.162243
v -0.476199 0.180091 -0.137638
v -0.472684 0.179843 -0.140684
v -0.476199 0.180091 -0.137638
v -0.45839 0.17865 -0.137638
v -0.476199 0.180091 -0.137638
v -0.472684 0.179843 -0.140684
v -0.472684 0.180238 -0.148651
v -0.45839 0.17865 -0.137638
v -0.45839 0.178801 -0.140684
v -0.472684 0.179843 -0.140684
v -0.472684 0.18076 -0.159196
v -0.458859 0.179759 -0.159196
v -0.458859 0.179999 -0.162243
vn 0.0788 0.9957 0.0493
vn 0.0788 0.9957 0.0493
vn 0.0788 0.9957 0.0493
vn 0.0786 0.9956 0.0501
vn 0.0786 0.9956 0.0501
vn 0.0786 0.9956 0.0501
vn 0.1004 0.9937 0.0492
vn 0.1004 0.9937 0.0492
vn 0.1004 0.9937 0.0492
vn 0.1004 0.9937 0.0492
vn 0.1004 0.9937 0.0492
vn 0.1004 0.9937 0.0492
vn 0.0726 0.994 0.0813
vn 0.0726 0.994 0.0813
vn 0.0726 0.994 0.0813
vn 0.1072 0.9931 0.0474
vn 0.1072 0.9931 0.0474
vn 0.1072 0.9931 0.0474
vn 0.0807 0.9967 0.0118
vn 0.0807 0.9967 0.0118
vn 0.0807 0.9967 0.0118
vn 0.1128 0.9924 0.0492
vn 0.1128 0.9924 0.0492
vn 0.1128 0.9924 0.0492
vn 0.0726 0.9961 0.0493
vn 0.0726 0.9961 0.0493
vn 0.0726 0.9961 0.0493
vn 0.072 0.9943 0.0784
vn 0.072 0.9943 0.0784
vn 0.072 0.9943 0.0784
vt 0.25309 0.439646
vt 0.259536 0.439646
vt 0.25309 0.438095
vt 0.259536 0.439646
vt 0.259536 0.438095
vt 0.25309 0.438095
vt 0.251253 0.432546
vt 0.25309 0.438095
vt 0.25309 0.434137
vt 0.251253 0.432546
vt 0.25309 0.439646
vt 0.25309 0.438095
vt 0.25309 0.434137
vt 0.260311 0.432546
vt 0.251253 0.432546
vt 0.25309 0.439646
vt 0.251253 0.432546
vt 0.251253 0.445399
vt 0.25309 0.443807
vt 0.251253 0.445399
vt 0.260556 0.445399
vt 0.251253 0.445399
vt 0.25309 0.443807
vt 0.25309 0.439646
vt 0.260556 0.445399
vt 0.260556 0.443807
vt 0.25309 0.443807
vt 0.25309 0.434137
vt 0.260311 0.434137
vt 0.260311 0.432546
s off
f 1/1/1 2/2/2 3/3/3
f 4/4/4 5/5/5 6/6/6
f 7/7/7 8/8/8 9/9/9
f 10/10/10 11/11/11 12/12/12
f 13/13/13 14/14/14 15/15/15
f 16/16/16 17/17/17 18/18/18
f 19/19/19 20/20/20 21/21/21
f 22/22/22 23/23/23 24/24/24
f 25/25/25 26/26/26 27/27/27
f 28/28/28 29/29/29 30/30/30
