v 0.7724 0.167641 -0.018441
v 0.760839 0.168107 -0.02094
v 0.758028 0.168192 -0.018441
v 0.786912 0.167718 -0.035762
v 0.791112 0.167698 -0.036273
v 0.787272 0.167849 -0.038281
v 0.699288 0.171351 -0.018441
v 0.702178 0.171173 -0.02094
v 0.702178 0.171182 -0.027345
v 0.699288 0.171378 -0.038359
v 0.702178 0.171185 -0.029767
v 0.702178 0.171193 -0.03586
v 0.702178 0.171193 -0.03586
v 0.713348 0.170492 -0.03586
v 0.713348 0.170518 -0.038359
v 0.721159 0.169977 -0.018441
v 0.718347 0.170241 -0.038359
v 0.718347 0.170155 -0.018441
v 0.758028 0.168494 -0.038359
v 0.760839 0.168196 -0.029767
v 0.760839 0.168298 -0.03586
v 0.777009 0.167971 -0.038359
v 0.77982 0.167638 -0.026955
v 0.77982 0.167804 -0.03586
v 0.786912 0.167718 -0.035762
v 0.787272 0.167849 -0.038281
v 0.77982 0.167804 -0.03586
v 0.754903 0.168618 -0.038359
v 0.745295 0.168915 -0.03586
v 0.748107 0.168803 -0.03586
v 0.772009 0.167894 -0.03586
v 0.758028 0.168494 -0.038359
v 0.760839 0.168298 -0.03586
v 0.77982 0.167611 -0.024533
v 0.777009 0.167583 -0.018519
v 0.77982 0.167547 -0.018519
v 0.790131 0.167583 -0.032627
v 0.792604 0.16757 -0.033964
v 0.791112 0.167698 -0.036273
v 0.790053 0.167554 -0.029895
v 0.79306 0.167537 -0.031474
v 0.790131 0.167583 -0.032627
v 0.790053 0.167554 -0.029895
v 0.792426 0.167509 -0.028245
v 0.79306 0.167537 -0.031474
v 0.788306 0.167549 -0.027621
v 0.785342 0.167575 -0.02696
v 0.786014 0.167541 -0.02457
v 0.760839 0.168172 -0.027345
v 0.758028 0.168192 -0.018441
v 0.760839 0.168107 -0.02094
v 0.785342 0.167575 -0.02696
v 0.77982 0.167611 -0.024533
v 0.786014 0.167541 -0.02457
v 0.790131 0.167583 -0.032627
v 0.79306 0.167537 -0.031474
v 0.792604 0.16757 -0.033964
v 0.702178 0.171193 -0.03586
v 0.713348 0.170518 -0.038359
v 0.699288 0.171378 -0.038359
v 0.754903 0.168618 -0.038359
v 0.748107 0.168803 -0.03586
v 0.754903 0.168534 -0.03586
v 0.788306 0.167549 -0.027621
v 0.788732 0.167516 -0.025153
v 0.79052 0.167506 -0.026017
v 0.772009 0.167894 -0.03586
v 0.772009 0.168028 -0.038359
v 0.758028 0.168494 -0.038359
v 0.732563 0.169272 -0.023518
v 0.735376 0.169394 -0.038359
v 0.732563 0.169505 -0.038359
v 0.7724 0.167641 -0.018441
v 0.7724 0.167667 -0.02094
v 0.760839 0.168107 -0.02094
v 0.777009 0.167583 -0.018519
v 0.77982 0.167611 -0.024533
v 0.77982 0.167638 -0.026955
v 0.777009 0.167971 -0.038359
v 0.73311 0.169214 -0.018441
v 0.735376 0.169112 -0.018441
v 0.732563 0.169272 -0.023518
v 0.702178 0.171185 -0.029767
v 0.699288 0.171378 -0.038359
v 0.699288 0.171351 -0.018441
v 0.702178 0.171182 -0.027345
v 0.713739 0.170448 -0.02094
v 0.702178 0.171173 -0.02094
v 0.699288 0.171351 -0.018441
v 0.713739 0.170445 -0.018441
v 0.721159 0.169999 -0.033282
v 0.732563 0.169272 -0.023518
v 0.720691 0.170112 -0.038359
v 0.702178 0.171185 -0.029767
v 0.702178 0.171182 -0.027345
v 0.712098 0.170559 -0.027345
v 0.712098 0.170563 -0.029767
v 0.718347 0.170241 -0.038359
v 0.721159 0.169977 -0.018441
v 0.721159 0.169999 -0.033282
v 0.732563 0.169272 -0.023518
v 0.721159 0.169999 -0.033282
v 0.73311 0.169214 -0.018441
v 0.770838 0.167776 -0.027345
v 0.770838 0.167801 -0.029767
v 0.760839 0.168196 -0.029767
v 0.760839 0.168196 -0.029767
v 0.758028 0.168494 -0.038359
v 0.758028 0.168192 -0.018441
v 0.760839 0.168172 -0.027345
v 0.788732 0.167516 -0.025153
v 0.788306 0.167549 -0.027621
v 0.786014 0.167541 -0.02457
v 0.786912 0.167718 -0.035762
v 0.789253 0.167612 -0.034283
v 0.791112 0.167698 -0.036273
v 0.789253 0.167612 -0.034283
v 0.790131 0.167583 -0.032627
v 0.791112 0.167698 -0.036273
v 0.790287 0.167425 -0.018519
v 0.793411 0.16739 -0.018519
v 0.788732 0.167516 -0.025153
v 0.786014 0.167541 -0.02457
v 0.785342 0.167575 -0.02696
v 0.77982 0.167638 -0.026955
v 0.77982 0.167611 -0.024533
v 0.7385 0.169185 -0.03586
v 0.745295 0.168915 -0.03586
v 0.754903 0.168618 -0.038359
v 0.7385 0.16927 -0.038359
v 0.788306 0.167549 -0.027621
v 0.79052 0.167506 -0.026017
v 0.792426 0.167509 -0.028245
v 0.790053 0.167554 -0.029895
v 0.788306 0.167549 -0.027621
v 0.792426 0.167509 -0.028245
v 0.748107 0.168585 -0.018441
v 0.745295 0.168915 -0.03586
v 0.745295 0.168696 -0.018441
v 0.732563 0.169272 -0.023518
v 0.735376 0.169112 -0.018441
v 0.735376 0.169394 -0.038359
v 0.787272 0.167849 -0.038281
v 0.777009 0.167971 -0.038359
v 0.77982 0.167804 -0.03586
v 0.720691 0.170112 -0.038359
v 0.718347 0.170241 -0.038359
v 0.721159 0.169999 -0.033282
v 0.748107 0.168585 -0.018441
v 0.748107 0.168803 -0.03586
v 0.745295 0.168915 -0.03586
v 0.760839 0.168196 -0.029767
v 0.760839 0.168172 -0.027345
v 0.770838 0.167776 -0.027345
vn 0.0383 0.9992 0.0088
vn 0.0383 0.9992 0.0088
vn 0.0383 0.9992 0.0088
vn 0.0114 0.9985 0.0537
vn 0.0114 0.9985 0.0537
vn 0.0114 0.9985 0.0537
vn 0.0626 0.998 0.0013
vn 0.0626 0.998 0.0013
vn 0.0626 0.998 0.0013
vn 0.0626 0.998 0.0013
vn 0.0626 0.998 0.0013
vn 0.0626 0.998 0.0013
vn 0.0626 0.998 0.0101
vn 0.0626 0.998 0.0101
vn 0.0626 0.998 0.0101
vn 0.0633 0.998 0.0043
vn 0.0633 0.998 0.0043
vn 0.0633 0.998 0.0043
vn 0.0549 0.9984 0.0166
vn 0.0549 0.9984 0.0166
vn 0.0549 0.9984 0.0166
vn 0.0425 0.9989 0.0187
vn 0.0425 0.9989 0.0187
vn 0.0425 0.9989 0.0187
vn 0.0114 0.9985 0.0537
vn 0.0114 0.9985 0.0537
vn 0.0114 0.9985 0.0537
vn 0.0397 0.9986 0.034
vn 0.0397 0.9986 0.034
vn 0.0397 0.9986 0.034
vn 0.0361 0.9986 0.0378
vn 0.0361 0.9986 0.0378
vn 0.0361 0.9986 0.0378
vn 0.0128 0.9999 0.0106
vn 0.0128 0.9999 0.0106
vn 0.0128 0.9999 0.0106
vn 0.0261 0.9989 0.0383
vn 0.0261 0.9989 0.0383
vn 0.0261 0.9989 0.0383
vn 0.0114 0.9999 0.0111
vn 0.0114 0.9999 0.0111
vn 0.0114 0.9999 0.0111
vn 0.0114 0.9999 0.0111
vn 0.0114 0.9999 0.0111
vn 0.0114 0.9999 0.0111
vn 0.0114 0.9999 0.0111
vn 0.0114 0.9999 0.0111
vn 0.0114 0.9999 0.0111
vn 0.0396 0.9992 0.0102
vn 0.0396 0.9992 0.0102
vn 0.0396 0.9992 0.0102
vn 0.0114 0.9999 0.0111
vn 0.0114 0.9999 0.0111
vn 0.0114 0.9999 0.0111
vn 0.0114 0.9999 0.0111
vn 0.0114 0.9999 0.0111
vn 0.0114 0.9999 0.0111
vn 0.0611 0.9981 0.0032
vn 0.0611 0.9981 0.0032
vn 0.0611 0.9981 0.0032
vn 0.0396 0.9986 0.0339
vn 0.0396 0.9986 0.0339
vn 0.0396 0.9986 0.0339
vn 0.0114 0.9999 0.0111
vn 0.0114 0.9999 0.0111
vn 0.0114 0.9999 0.0111
vn 0.0333 0.998 0.0537
vn 0.0333 0.998 0.0537
vn 0.0333 0.998 0.0537
vn 0.0396 0.9991 0.0157
vn 0.0396 0.9991 0.0157
vn 0.0396 0.9991 0.0157
vn 0.038 0.9992 0.0102
vn 0.038 0.9992 0.0102
vn 0.038 0.9992 0.0102
vn 0.0364 0.9992 0.0186
vn 0.0364 0.9992 0.0186
vn 0.0364 0.9992 0.0186
vn 0.0364 0.9992 0.0186
vn 0.045 0.999 0.0066
vn 0.045 0.999 0.0066
vn 0.045 0.999 0.0066
vn 0.0626 0.998 0.0013
vn 0.0626 0.998 0.0013
vn 0.0626 0.998 0.0013
vn 0.0626 0.998 0.0013
vn 0.0626 0.998 0.0013
vn 0.0626 0.998 0.0013
vn 0.0626 0.998 0.0013
vn 0.0626 0.998 0.0013
vn 0.0485 0.9987 0.0177
vn 0.0485 0.9987 0.0177
vn 0.0485 0.9987 0.0177
vn 0.0626 0.998 0.0013
vn 0.0626 0.998 0.0013
vn 0.0626 0.998 0.0013
vn 0.0626 0.998 0.0013
vn 0.0833 0.9965 0.0015
vn 0.0833 0.9965 0.0015
vn 0.0833 0.9965 0.0015
vn 0.0593 0.9982 0.005
vn 0.0593 0.9982 0.005
vn 0.0593 0.9982 0.005
vn 0.0395 0.9992 0.0102
vn 0.0395 0.9992 0.0102
vn 0.0395 0.9992 0.0102
vn 0.0574 0.9982 0.0146
vn 0.0574 0.9982 0.0146
vn 0.0574 0.9982 0.0146
vn 0.0574 0.9982 0.0146
vn 0.0113 0.9999 0.0111
vn 0.0113 0.9999 0.0111
vn 0.0113 0.9999 0.0111
vn 0.0114 0.9985 0.0537
vn 0.0114 0.9985 0.0537
vn 0.0114 0.9985 0.0537
vn -0.0177 0.9995 0.0266
vn -0.0177 0.9995 0.0266
vn -0.0177 0.9995 0.0266
vn 0.0113 0.9999 0.0111
vn 0.0113 0.9999 0.0111
vn 0.0113 0.9999 0.0111
vn 0.0113 0.9999 0.0111
vn 0.0114 0.9999 0.0111
vn 0.0114 0.9999 0.0111
vn 0.0114 0.9999 0.0111
vn 0.0396 0.9986 0.0339
vn 0.0396 0.9986 0.0339
vn 0.0396 0.9986 0.0339
vn 0.0396 0.9986 0.0339
vn 0.0114 0.9999 0.0111
vn 0.0114 0.9999 0.0111
vn 0.0114 0.9999 0.0111
vn 0.0114 0.9999 0.0111
vn 0.0114 0.9999 0.0111
vn 0.0114 0.9999 0.0111
vn 0.0396 0.9991 0.0125
vn 0.0396 0.9991 0.0125
vn 0.0396 0.9991 0.0125
vn 0.0314 0.9994 0.0142
vn 0.0314 0.9994 0.0142
vn 0.0314 0.9994 0.0142
vn 0.0114 0.9985 0.0537
vn 0.0114 0.9985 0.0537
vn 0.0114 0.9985 0.0537
vn 0.0552 0.9983 0.0171
vn 0.0552 0.9983 0.0171
vn 0.0552 0.9983 0.0171
vn 0.0397 0.9991 0.0125
vn 0.0397 0.9991 0.0125
vn 0.0397 0.9991 0.0125
vn 0.0395 0.9992 0.0102
vn 0.0395 0.9992 0.0102
vn 0.0395 0.9992 0.0102
vt 0.90347 0.507662
vt 0.897431 0.506356
vt 0.895962 0.507662
vt 0.91105 0.498614
vt 0.913244 0.498347
vt 0.911239 0.497298
vt 0.865279 0.507662
vt 0.866789 0.506356
vt 0.866789 0.503011
vt 0.865279 0.497258
vt 0.866789 0.501746
vt 0.866789 0.498563
vt 0.866789 0.498563
vt 0.872624 0.498563
vt 0.872624 0.497258
vt 0.876704 0.507662
vt 0.875235 0.497258
vt 0.875235 0.507662
vt 0.895962 0.497258
vt 0.897431 0.501746
vt 0.897431 0.498563
vt 0.905877 0.497258
vt 0.907346 0.503215
vt 0.907346 0.498563
vt 0.91105 0.498614
vt 0.911239 0.497298
vt 0.907346 0.498563
vt 0.89433 0.497258
vt 0.889311 0.498563
vt 0.89078 0.498563
vt 0.903266 0.498563
vt 0.895962 0.497258
vt 0.897431 0.498563
vt 0.907346 0.50448
vt 0.905877 0.507621
vt 0.907346 0.507621
vt 0.912732 0.500252
vt 0.914024 0.499553
vt 0.913244 0.498347
vt 0.912691 0.501679
vt 0.914262 0.500854
vt 0.912732 0.500252
vt 0.912691 0.501679
vt 0.91393 0.502541
vt 0.914262 0.500854
vt 0.911778 0.502867
vt 0.91023 0.503212
vt 0.910581 0.50446
vt 0.897431 0.503011
vt 0.895962 0.507662
vt 0.897431 0.506356
vt 0.91023 0.503212
vt 0.907346 0.50448
vt 0.910581 0.50446
vt 0.912732 0.500252
vt 0.914262 0.500854
vt 0.914024 0.499553
vt 0.866789 0.498563
vt 0.872624 0.497258
vt 0.865279 0.497258
vt 0.89433 0.497258
vt 0.89078 0.498563
vt 0.89433 0.498563
vt 0.911778 0.502867
vt 0.912001 0.504156
vt 0.912935 0.503705
vt 0.903266 0.498563
vt 0.903266 0.497258
vt 0.895962 0.497258
vt 0.882661 0.50501
vt 0.88413 0.497258
vt 0.882661 0.497258
vt 0.90347 0.507662
vt 0.90347 0.506356
vt 0.897431 0.506356
vt 0.905877 0.507621
vt 0.907346 0.50448
vt 0.907346 0.503215
vt 0.905877 0.497258
vt 0.882946 0.507662
vt 0.88413 0.507662
vt 0.882661 0.50501
vt 0.866789 0.501746
vt 0.865279 0.497258
vt 0.865279 0.507662
vt 0.866789 0.503011
vt 0.872827 0.506356
vt 0.866789 0.506356
vt 0.865279 0.507662
vt 0.872827 0.507662
vt 0.876704 0.49991
vt 0.882661 0.50501
vt 0.876459 0.497258
vt 0.866789 0.501746
vt 0.866789 0.503011
vt 0.871971 0.503011
vt 0.871971 0.501746
vt 0.875235 0.497258
vt 0.876704 0.507662
vt 0.876704 0.49991
vt 0.882661 0.50501
vt 0.876704 0.49991
vt 0.882946 0.507662
vt 0.902654 0.503011
vt 0.902654 0.501746
vt 0.897431 0.501746
vt 0.897431 0.501746
vt 0.895962 0.497258
vt 0.895962 0.507662
vt 0.897431 0.503011
vt 0.912001 0.504156
vt 0.911778 0.502867
vt 0.910581 0.50446
vt 0.91105 0.498614
vt 0.912273 0.499387
vt 0.913244 0.498347
vt 0.912273 0.499387
vt 0.912732 0.500252
vt 0.913244 0.498347
vt 0.912813 0.507621
vt 0.914445 0.507621
vt 0.912001 0.504156
vt 0.910581 0.50446
vt 0.91023 0.503212
vt 0.907346 0.503215
vt 0.907346 0.50448
vt 0.885762 0.498563
vt 0.889311 0.498563
vt 0.89433 0.497258
vt 0.885762 0.497258
vt 0.911778 0.502867
vt 0.912935 0.503705
vt 0.91393 0.502541
vt 0.912691 0.501679
vt 0.911778 0.502867
vt 0.91393 0.502541
vt 0.89078 0.507662
vt 0.889311 0.498563
vt 0.889311 0.507662
vt 0.882661 0.50501
vt 0.88413 0.507662
vt 0.88413 0.497258
vt 0.911239 0.497298
vt 0.905877 0.497258
vt 0.907346 0.498563
vt 0.876459 0.497258
vt 0.875235 0.497258
vt 0.876704 0.49991
vt 0.89078 0.507662
vt 0.89078 0.498563
vt 0.889311 0.498563
vt 0.897431 0.501746
vt 0.897431 0.503011
vt 0.902654 0.503011
s off
f 1/1/1 2/2/2 3/3/3
f 4/4/4 5/5/5 6/6/6
f 7/7/7 8/8/8 9/9/9
f 10/10/10 11/11/11 12/12/12
f 13/13/13 14/14/14 15/15/15
f 16/16/16 17/17/17 18/18/18
f 19/19/19 20/20/20 21/21/21
f 22/22/22 23/23/23 24/24/24
f 25/25/25 26/26/26 27/27/27
f 28/28/28 29/29/29 30/30/30
f 31/31/31 32/32/32 33/33/33
f 34/34/34 35/35/35 36/36/36
f 37/37/37 38/38/38 39/39/39
f 40/40/40 41/41/41 42/42/42
f 43/43/43 44/44/44 45/45/45
f 46/46/46 47/47/47 48/48/48
f 49/49/49 50/50/50 51/51/51
f 52/52/52 53/53/53 54/54/54
f 55/55/55 56/56/56 57/57/57
f 58/58/58 59/59/59 60/60/60
f 61/61/61 62/62/62 63/63/63
f 64/64/64 65/65/65 66/66/66
f 67/67/67 68/68/68 69/69/69
f 70/70/70 71/71/71 72/72/72
f 73/73/73 74/74/74 75/75/75
f 76/76/76 77/77/77 78/78/78
f 76/76/76 78/78/78 79/79/79
f 80/80/80 81/81/81 82/82/82
f 83/83/83 84/84/84 85/85/85
f 83/83/83 85/85/85 86/86/86
f 87/87/87 88/88/88 89/89/89
f 87/87/87 89/89/89 90/90/90
f 91/91/91 92/92/92 93/93/93
f 94/94/94 95/95/95 96/96/96
f 94/94/94 96/96/96 97/97/97
f 98/98/98 99/99/99 100/100/100
f 101/101/101 102/102/102 103/103/103
f 104/104/104 105/105/105 106/106/106
f 107/107/107 108/108/108 109/109/109
f 107/107/107 109/109/109 110/110/110
f 111/111/111 112/112/112 113/113/113
f 114/114/114 115/115/115 116/116/116
f 117/117/117 118/118/118 119/119/119
f 120/120/120 121/121/121 122/122/122
f 120/120/120 122/122/122 123/123/123
f 124/124/124 125/125/125 126/126/126
f 127/127/127 128/128/128 129/129/129
f 127/127/127 129/129/129 130/130/130
f 131/131/131 132/132/132 133/133/133
f 134/134/134 135/135/135 136/136/136
f 137/137/137 138/138/138 139/139/139
f 140/140/140 141/141/141 142/142/142
f 143/143/143 144/144/144 145/145/145
f 146/146/146 147/147/147 148/148/148
f 149/149/149 150/150/150 151/151/151
f 152/152/152 153/153/153 154/154/154
