v 0.899794 0.167251 -0.050975
v 0.911597 0.128909 -0.061795
v 0.862886 0.128909 -0.061795
v 0.857011 0.165891 -0.051358
v 0.899794 0.167251 -0.050975
v 0.936041 0.169074 -0.05046
v 0.943283 0.128909 -0.061795
v 0.911597 0.128909 -0.061795
v 0.936041 0.169074 -0.05046
v 0.942217 0.169386 -0.044041
v 0.952188 0.128789 -0.058149
v 0.943283 0.128909 -0.061795
v 0.942217 0.169386 -0.044041
v 0.955877 0.1285 -0.049346
v 0.952188 0.128789 -0.058149
v 0.955877 0.1285 -0.049346
v 0.942217 0.169386 -0.044041
v 0.942158 0.169298 0.040698
v 0.955877 0.125228 0.050228
v 0.952204 0.124934 0.059195
v 0.955877 0.125228 0.050228
v 0.942158 0.169298 0.040698
v 0.943339 0.124812 0.062909
v 0.952204 0.124934 0.059195
v 0.942158 0.169298 0.040698
v 0.936077 0.168932 0.047136
v 0.936077 0.168932 0.047136
v 0.89974 0.166646 0.047954
v 0.911597 0.124812 0.062909
v 0.943339 0.124812 0.062909
v 0.856991 0.164946 0.048562
v 0.862886 0.124812 0.062909
v 0.911597 0.124812 0.062909
v 0.89974 0.166646 0.047954
v 0.814175 0.164472 0.048731
v 0.814175 0.124812 0.062909
v 0.862886 0.124812 0.062909
v 0.856991 0.164946 0.048562
v 0.771359 0.164946 0.048562
v 0.765464 0.124812 0.062909
v 0.814175 0.124812 0.062909
v 0.814175 0.164472 0.048731
v 0.728611 0.166647 0.047954
v 0.716753 0.124812 0.062909
v 0.765464 0.124812 0.062909
v 0.771359 0.164946 0.048562
v 0.728611 0.166647 0.047954
v 0.692273 0.168932 0.047136
v 0.685012 0.124812 0.062909
v 0.716753 0.124812 0.062909
v 0.676146 0.124934 0.059195
v 0.685012 0.124812 0.062909
v 0.692273 0.168932 0.047136
v 0.672474 0.125228 0.050228
v 0.676146 0.124934 0.059195
v 0.692273 0.168932 0.047136
v 0.686193 0.169298 0.040698
v 0.686133 0.169386 -0.044041
v 0.672474 0.1285 -0.049346
v 0.672474 0.125228 0.050228
v 0.686193 0.169298 0.040698
v 0.676162 0.128789 -0.058149
v 0.672474 0.1285 -0.049346
v 0.686133 0.169386 -0.044041
v 0.685068 0.128909 -0.061795
v 0.676162 0.128789 -0.058149
v 0.686133 0.169386 -0.044041
v 0.692309 0.169074 -0.05046
v 0.692309 0.169074 -0.05046
v 0.728556 0.167251 -0.050975
v 0.716753 0.128909 -0.061795
v 0.685068 0.128909 -0.061795
v 0.771339 0.165891 -0.051358
v 0.765464 0.128909 -0.061795
v 0.716753 0.128909 -0.061795
v 0.728556 0.167251 -0.050975
v 0.814175 0.165512 -0.051465
v 0.814175 0.128909 -0.061795
v 0.765464 0.128909 -0.061795
v 0.771339 0.165891 -0.051358
v 0.857011 0.165891 -0.051358
v 0.862886 0.128909 -0.061795
v 0.814175 0.128909 -0.061795
v 0.814175 0.165512 -0.051465
v 0.857011 0.165891 -0.051358
v 0.814175 0.165512 -0.051465
v 0.814175 0.168003 -0.047934
v 0.856592 0.168395 -0.047827
v 0.814175 0.165512 -0.051465
v 0.771339 0.165891 -0.051358
v 0.771759 0.168395 -0.047827
v 0.814175 0.168003 -0.047934
v 0.814175 0.167184 -0.034314
v 0.814175 0.168003 -0.047934
v 0.771759 0.168395 -0.047827
v 0.771748 0.167665 -0.034254
v 0.856602 0.167665 -0.034254
v 0.856592 0.168395 -0.047827
v 0.814175 0.168003 -0.047934
v 0.814175 0.167184 -0.034314
v 0.814175 0.167184 -0.034314
v 0.814175 0.166456 0.031375
v 0.856614 0.167 0.031256
v 0.856602 0.167665 -0.034254
v 0.771748 0.167665 -0.034254
v 0.771736 0.167 0.031256
v 0.814175 0.166456 0.031375
v 0.814175 0.167184 -0.034314
v 0.814175 0.166987 0.045009
v 0.814175 0.166456 0.031375
v 0.771736 0.167 0.031256
v 0.771743 0.167468 0.044841
v 0.856608 0.167468 0.044841
v 0.856614 0.167 0.031256
v 0.814175 0.166456 0.031375
v 0.814175 0.166987 0.045009
v 0.814175 0.166987 0.045009
v 0.771743 0.167468 0.044841
v 0.771359 0.164946 0.048562
v 0.814175 0.164472 0.048731
v 0.856608 0.167468 0.044841
v 0.814175 0.166987 0.045009
v 0.814175 0.164472 0.048731
v 0.856991 0.164946 0.048562
v 0.899004 0.169193 0.044236
v 0.856608 0.167468 0.044841
v 0.856991 0.164946 0.048562
v 0.89974 0.166646 0.047954
v 0.899004 0.169193 0.044236
v 0.899013 0.168915 0.030814
v 0.856614 0.167 0.031256
v 0.856608 0.167468 0.044841
v 0.935291 0.171539 0.043419
v 0.899004 0.169193 0.044236
v 0.89974 0.166646 0.047954
v 0.936077 0.168932 0.047136
v 0.899004 0.169193 0.044236
v 0.935291 0.171539 0.043419
v 0.938585 0.171727 0.039523
v 0.899013 0.168915 0.030814
v 0.938585 0.171727 0.039523
v 0.935291 0.171539 0.043419
v 0.936077 0.168932 0.047136
v 0.942158 0.169298 0.040698
v 0.938585 0.171727 0.039523
v 0.942158 0.169298 0.040698
v 0.942217 0.169386 -0.044041
v 0.938584 0.171837 -0.043071
v 0.938584 0.171837 -0.043071
v 0.898997 0.169341 -0.034027
v 0.899013 0.168915 0.030814
v 0.938585 0.171727 0.039523
v 0.935237 0.171707 -0.04693
v 0.938584 0.171837 -0.043071
v 0.942217 0.169386 -0.044041
v 0.936041 0.169074 -0.05046
v 0.898997 0.169341 -0.034027
v 0.938584 0.171837 -0.043071
v 0.935237 0.171707 -0.04693
v 0.898985 0.169796 -0.047445
v 0.898985 0.169796 -0.047445
v 0.935237 0.171707 -0.04693
v 0.936041 0.169074 -0.05046
v 0.899794 0.167251 -0.050975
v 0.899794 0.167251 -0.050975
v 0.857011 0.165891 -0.051358
v 0.856592 0.168395 -0.047827
v 0.898985 0.169796 -0.047445
v 0.898997 0.169341 -0.034027
v 0.898985 0.169796 -0.047445
v 0.856592 0.168395 -0.047827
v 0.856602 0.167665 -0.034254
v 0.856602 0.167665 -0.034254
v 0.856614 0.167 0.031256
v 0.899013 0.168915 0.030814
v 0.898997 0.169341 -0.034027
v 0.771743 0.167468 0.044841
v 0.729347 0.169193 0.044236
v 0.728611 0.166647 0.047954
v 0.771359 0.164946 0.048562
v 0.771743 0.167468 0.044841
v 0.771736 0.167 0.031256
v 0.729337 0.168915 0.030814
v 0.729347 0.169193 0.044236
v 0.729347 0.169193 0.044236
v 0.693059 0.171538 0.043419
v 0.692273 0.168932 0.047136
v 0.728611 0.166647 0.047954
v 0.689765 0.171727 0.039523
v 0.693059 0.171538 0.043419
v 0.729347 0.169193 0.044236
v 0.729337 0.168915 0.030814
v 0.693059 0.171538 0.043419
v 0.689765 0.171727 0.039523
v 0.686193 0.169298 0.040698
v 0.692273 0.168932 0.047136
v 0.686133 0.169386 -0.044041
v 0.686193 0.169298 0.040698
v 0.689765 0.171727 0.039523
v 0.689767 0.171837 -0.043071
v 0.729353 0.169341 -0.034027
v 0.689767 0.171837 -0.043071
v 0.689765 0.171727 0.039523
v 0.729337 0.168915 0.030814
v 0.689767 0.171837 -0.043071
v 0.729353 0.169341 -0.034027
v 0.729365 0.169796 -0.047445
v 0.693113 0.171707 -0.04693
v 0.689767 0.171837 -0.043071
v 0.693113 0.171707 -0.04693
v 0.692309 0.169074 -0.05046
v 0.686133 0.169386 -0.044041
v 0.693113 0.171707 -0.04693
v 0.729365 0.169796 -0.047445
v 0.728556 0.167251 -0.050975
v 0.692309 0.169074 -0.05046
v 0.771748 0.167665 -0.034254
v 0.771759 0.168395 -0.047827
v 0.729365 0.169796 -0.047445
v 0.729353 0.169341 -0.034027
v 0.771339 0.165891 -0.051358
v 0.728556 0.167251 -0.050975
v 0.729365 0.169796 -0.047445
v 0.771759 0.168395 -0.047827
v 0.729353 0.169341 -0.034027
v 0.729337 0.168915 0.030814
v 0.771736 0.167 0.031256
v 0.771748 0.167665 -0.034254
v 0.911597 0.117647 -0.062165
v 0.911597 0.128909 -0.061795
v 0.943283 0.128909 -0.061795
v 0.943295 0.117647 -0.062165
v 0.911597 0.128909 -0.061795
v 0.911597 0.117647 -0.062165
v 0.862886 0.117647 -0.062165
v 0.862886 0.128909 -0.061795
v 0.943283 0.128909 -0.061795
v 0.952188 0.128789 -0.058149
v 0.952191 0.117527 -0.058521
v 0.943295 0.117647 -0.062165
v 0.952188 0.128789 -0.058149
v 0.955877 0.1285 -0.049346
v 0.955877 0.117238 -0.049722
v 0.952191 0.117527 -0.058521
v 0.955877 0.113966 0.049873
v 0.955877 0.117238 -0.049722
v 0.955877 0.1285 -0.049346
v 0.955877 0.125228 0.050228
v 0.952207 0.113671 0.058829
v 0.955877 0.113966 0.049873
v 0.955877 0.125228 0.050228
v 0.952204 0.124934 0.059195
v 0.943348 0.11355 0.062539
v 0.952207 0.113671 0.058829
v 0.952204 0.124934 0.059195
v 0.943339 0.124812 0.062909
v 0.943348 0.11355 0.062539
v 0.943339 0.124812 0.062909
v 0.911597 0.124812 0.062909
v 0.911597 0.11355 0.062539
v 0.862886 0.124812 0.062909
v 0.862886 0.11355 0.062539
v 0.911597 0.11355 0.062539
v 0.911597 0.124812 0.062909
v 0.814175 0.124812 0.062909
v 0.814175 0.11355 0.062539
v 0.862886 0.11355 0.062539
v 0.862886 0.124812 0.062909
v 0.765464 0.124812 0.062909
v 0.765464 0.11355 0.062539
v 0.814175 0.11355 0.062539
v 0.814175 0.124812 0.062909
v 0.716753 0.124812 0.062909
v 0.716753 0.11355 0.062539
v 0.765464 0.11355 0.062539
v 0.765464 0.124812 0.062909
v 0.716753 0.11355 0.062539
v 0.716753 0.124812 0.062909
v 0.685012 0.124812 0.062909
v 0.685002 0.11355 0.062539
v 0.676143 0.113671 0.058829
v 0.685002 0.11355 0.062539
v 0.685012 0.124812 0.062909
v 0.676146 0.124934 0.059195
v 0.672474 0.113966 0.049873
v 0.676143 0.113671 0.058829
v 0.676146 0.124934 0.059195
v 0.672474 0.125228 0.050228
v 0.672474 0.113966 0.049873
v 0.672474 0.125228 0.050228
v 0.672474 0.1285 -0.049346
v 0.672474 0.117238 -0.049722
v 0.676159 0.117527 -0.058521
v 0.672474 0.117238 -0.049722
v 0.672474 0.1285 -0.049346
v 0.676162 0.128789 -0.058149
v 0.685056 0.117647 -0.062165
v 0.676159 0.117527 -0.058521
v 0.676162 0.128789 -0.058149
v 0.685068 0.128909 -0.061795
v 0.685056 0.117647 -0.062165
v 0.685068 0.128909 -0.061795
v 0.716753 0.128909 -0.061795
v 0.716753 0.117647 -0.062165
v 0.765464 0.128909 -0.061795
v 0.765464 0.117647 -0.062165
v 0.716753 0.117647 -0.062165
v 0.716753 0.128909 -0.061795
v 0.814175 0.128909 -0.061795
v 0.814175 0.117647 -0.062165
v 0.765464 0.117647 -0.062165
v 0.765464 0.128909 -0.061795
v 0.862886 0.128909 -0.061795
v 0.862886 0.117647 -0.062165
v 0.814175 0.117647 -0.062165
v 0.814175 0.128909 -0.061795
vn -0 0.2717 -0.9624
vn -0 0.2716 -0.9624
vn -0 0.2716 -0.9624
vn -0 0.2717 -0.9624
vn -0 0.2717 -0.9624
vn -0 0.2716 -0.9624
vn 0.0001 0.2716 -0.9624
vn -0 0.2716 -0.9624
vn -0 0.2716 -0.9624
vn 0.9517 0.307 0.0059
vn 0.6663 0.3496 -0.6586
vn 0.0001 0.2716 -0.9624
vn 0.9517 0.307 0.0059
vn 0.9517 0.307 0.0058
vn 0.6663 0.3496 -0.6586
vn 0.9517 0.307 0.0058
vn 0.9517 0.307 0.0059
vn 0.9517 0.307 0.0059
vn 0.9517 0.307 0.006
vn 0.6547 0.3816 0.6525
vn 0.9517 0.307 0.006
vn 0.9517 0.307 0.0059
vn 0.0001 0.3367 0.9416
vn 0.6547 0.3816 0.6525
vn 0.9517 0.307 0.0059
vn -0 0.3367 0.9416
vn -0 0.3367 0.9416
vn -0 0.3367 0.9416
vn -0 0.3366 0.9416
vn 0.0001 0.3367 0.9416
vn -0 0.3367 0.9416
vn -0 0.3366 0.9416
vn -0 0.3366 0.9416
vn -0 0.3367 0.9416
vn -0 0.3367 0.9416
vn -0 0.3366 0.9416
vn -0 0.3366 0.9416
vn -0 0.3367 0.9416
vn -0 0.3367 0.9416
vn -0 0.3366 0.9416
vn -0 0.3366 0.9416
vn -0 0.3367 0.9416
vn -0 0.3367 0.9416
vn -0 0.3366 0.9416
vn -0 0.3366 0.9416
vn -0 0.3367 0.9416
vn -0 0.3367 0.9416
vn -0 0.3366 0.9417
vn -0.0001 0.3367 0.9416
vn -0 0.3366 0.9416
vn -0.6547 0.3816 0.6525
vn -0.0001 0.3367 0.9416
vn -0 0.3366 0.9417
vn -0.9517 0.307 0.006
vn -0.6547 0.3816 0.6525
vn -0 0.3366 0.9417
vn -0.9517 0.307 0.0059
vn -0.9517 0.307 0.0059
vn -0.9517 0.307 0.0058
vn -0.9517 0.307 0.006
vn -0.9517 0.307 0.0059
vn -0.6663 0.3496 -0.6586
vn -0.9517 0.307 0.0058
vn -0.9517 0.307 0.0059
vn -0.0001 0.2716 -0.9624
vn -0.6663 0.3496 -0.6586
vn -0.9517 0.307 0.0059
vn -0 0.2716 -0.9624
vn -0 0.2716 -0.9624
vn -0 0.2717 -0.9624
vn -0 0.2716 -0.9624
vn -0.0001 0.2716 -0.9624
vn -0 0.2717 -0.9624
vn -0 0.2716 -0.9624
vn -0 0.2716 -0.9624
vn -0 0.2717 -0.9624
vn -0 0.2717 -0.9624
vn -0 0.2716 -0.9624
vn -0 0.2716 -0.9624
vn -0 0.2717 -0.9624
vn -0 0.2717 -0.9624
vn -0 0.2716 -0.9624
vn -0 0.2716 -0.9624
vn -0 0.2717 -0.9624
vn -0 0.2717 -0.9624
vn -0 0.2717 -0.9624
vn -0 0.9986 0.0529
vn -0.0234 0.9986 0.0464
vn -0 0.2717 -0.9624
vn -0 0.2717 -0.9624
vn 0.0234 0.9986 0.0464
vn -0 0.9986 0.0529
vn -0 0.9994 0.0338
vn -0 0.9986 0.0529
vn 0.0234 0.9986 0.0464
vn 0.0253 0.9992 0.03
vn -0.0253 0.9992 0.03
vn -0.0234 0.9986 0.0464
vn -0 0.9986 0.0529
vn -0 0.9994 0.0338
vn -0 0.9994 0.0338
vn -0 0.9999 -0.0131
vn -0.0274 0.9996 -0.0114
vn -0.0253 0.9992 0.03
vn 0.0253 0.9992 0.03
vn 0.0274 0.9996 -0.0114
vn -0 0.9999 -0.0131
vn -0 0.9994 0.0338
vn -0 0.9995 -0.0327
vn -0 0.9999 -0.0131
vn 0.0274 0.9996 -0.0114
vn 0.0276 0.9992 -0.0282
vn -0.0238 0.9993 -0.0282
vn -0.0274 0.9996 -0.0114
vn -0 0.9999 -0.0131
vn -0 0.9995 -0.0327
vn -0 0.9995 -0.0327
vn 0.0276 0.9992 -0.0282
vn -0 0.3367 0.9416
vn -0 0.3367 0.9416
vn -0.0238 0.9993 -0.0282
vn -0 0.9995 -0.0327
vn -0 0.3367 0.9416
vn -0 0.3367 0.9416
vn -0.0544 0.9983 -0.0188
vn -0.0238 0.9993 -0.0282
vn -0 0.3367 0.9416
vn -0 0.3367 0.9416
vn -0.0544 0.9983 -0.0188
vn -0.0546 0.9985 -0.0076
vn -0.0274 0.9996 -0.0114
vn -0.0238 0.9993 -0.0282
vn -0.0641 0.9978 -0.0141
vn -0.0544 0.9983 -0.0188
vn -0 0.3367 0.9416
vn -0 0.3367 0.9416
vn -0.0544 0.9983 -0.0188
vn -0.0641 0.9978 -0.0141
vn -0.0626 0.998 -0.0059
vn -0.0546 0.9985 -0.0076
vn -0.0626 0.998 -0.0059
vn -0.0641 0.9978 -0.0141
vn -0 0.3367 0.9416
vn 0.9517 0.307 0.0059
vn -0.0626 0.998 -0.0059
vn 0.9517 0.307 0.0059
vn 0.9517 0.307 0.0059
vn -0.0568 0.9983 0.0153
vn -0.0568 0.9983 0.0153
vn -0.0505 0.9985 0.0204
vn -0.0546 0.9985 -0.0076
vn -0.0626 0.998 -0.0059
vn -0.0529 0.9983 0.0257
vn -0.0568 0.9983 0.0153
vn 0.9517 0.307 0.0059
vn -0 0.2716 -0.9624
vn -0.0505 0.9985 0.0204
vn -0.0568 0.9983 0.0153
vn -0.0529 0.9983 0.0257
vn -0.0455 0.9984 0.0327
vn -0.0455 0.9984 0.0327
vn -0.0529 0.9983 0.0257
vn -0 0.2716 -0.9624
vn -0 0.2717 -0.9624
vn -0 0.2717 -0.9624
vn -0 0.2717 -0.9624
vn -0.0234 0.9986 0.0464
vn -0.0455 0.9984 0.0327
vn -0.0505 0.9985 0.0204
vn -0.0455 0.9984 0.0327
vn -0.0234 0.9986 0.0464
vn -0.0253 0.9992 0.03
vn -0.0253 0.9992 0.03
vn -0.0274 0.9996 -0.0114
vn -0.0546 0.9985 -0.0076
vn -0.0505 0.9985 0.0204
vn 0.0276 0.9992 -0.0282
vn 0.0544 0.9983 -0.0188
vn -0 0.3367 0.9416
vn -0 0.3367 0.9416
vn 0.0276 0.9992 -0.0282
vn 0.0274 0.9996 -0.0114
vn 0.0546 0.9985 -0.0076
vn 0.0544 0.9983 -0.0188
vn 0.0544 0.9983 -0.0188
vn 0.0641 0.9978 -0.0141
vn -0 0.3366 0.9417
vn -0 0.3367 0.9416
vn 0.0626 0.998 -0.0059
vn 0.0641 0.9978 -0.0141
vn 0.0544 0.9983 -0.0188
vn 0.0546 0.9985 -0.0076
vn 0.0641 0.9978 -0.0141
vn 0.0626 0.998 -0.0059
vn -0.9517 0.307 0.0059
vn -0 0.3366 0.9417
vn -0.9517 0.307 0.0059
vn -0.9517 0.307 0.0059
vn 0.0626 0.998 -0.0059
vn 0.0567 0.9983 0.0153
vn 0.0505 0.9985 0.0204
vn 0.0567 0.9983 0.0153
vn 0.0626 0.998 -0.0059
vn 0.0546 0.9985 -0.0076
vn 0.0567 0.9983 0.0153
vn 0.0505 0.9985 0.0204
vn 0.0455 0.9984 0.0327
vn 0.0529 0.9983 0.0257
vn 0.0567 0.9983 0.0153
vn 0.0529 0.9983 0.0257
vn -0 0.2716 -0.9624
vn -0.9517 0.307 0.0059
vn 0.0529 0.9983 0.0257
vn 0.0455 0.9984 0.0327
vn -0 0.2717 -0.9624
vn -0 0.2716 -0.9624
vn 0.0253 0.9992 0.03
vn 0.0234 0.9986 0.0464
vn 0.0455 0.9984 0.0327
vn 0.0505 0.9985 0.0204
vn -0 0.2717 -0.9624
vn -0 0.2717 -0.9624
vn 0.0455 0.9984 0.0327
vn 0.0234 0.9986 0.0464
vn 0.0505 0.9985 0.0204
vn 0.0546 0.9985 -0.0076
vn 0.0274 0.9996 -0.0114
vn 0.0253 0.9992 0.03
vn -0 0.0328 -0.9995
vn -0 0.0328 -0.9995
vn 0.0001 0.0328 -0.9995
vn 0.0001 0.033 -0.9995
vn -0 0.0328 -0.9995
vn -0 0.0328 -0.9995
vn -0 0.0328 -0.9995
vn -0 0.0328 -0.9995
vn 0.0001 0.0328 -0.9995
vn 0.7034 0.0237 -0.7104
vn 0.7036 0.0237 -0.7102
vn 0.0001 0.033 -0.9995
vn 0.7034 0.0237 -0.7104
vn 1 0.0002 -0.0001
vn 1 0.0001 -0.0001
vn 0.7036 0.0237 -0.7102
vn 1 0.0002 0.0001
vn 1 0.0001 -0.0001
vn 1 0.0002 -0.0001
vn 1 -0 0.0001
vn 0.7112 -0.0226 0.7026
vn 1 0.0002 0.0001
vn 1 -0 0.0001
vn 0.7111 -0.0226 0.7028
vn 0.0001 -0.0328 0.9995
vn 0.7112 -0.0226 0.7026
vn 0.7111 -0.0226 0.7028
vn 0.0001 -0.0326 0.9995
vn 0.0001 -0.0328 0.9995
vn 0.0001 -0.0326 0.9995
vn -0 -0.0328 0.9995
vn -0 -0.0328 0.9995
vn -0 -0.0328 0.9995
vn -0 -0.0328 0.9995
vn -0 -0.0328 0.9995
vn -0 -0.0328 0.9995
vn -0 -0.0328 0.9995
vn -0 -0.0328 0.9995
vn -0 -0.0328 0.9995
vn -0 -0.0328 0.9995
vn -0 -0.0328 0.9995
vn -0 -0.0328 0.9995
vn -0 -0.0328 0.9995
vn -0 -0.0328 0.9995
vn -0 -0.0328 0.9995
vn -0 -0.0328 0.9995
vn -0 -0.0328 0.9995
vn -0 -0.0328 0.9995
vn -0 -0.0328 0.9995
vn -0 -0.0328 0.9995
vn -0.0001 -0.0328 0.9995
vn -0.0001 -0.0326 0.9995
vn -0.7111 -0.0226 0.7027
vn -0.0001 -0.0326 0.9995
vn -0.0001 -0.0328 0.9995
vn -0.7112 -0.0226 0.7026
vn -1 -0 0.0001
vn -0.7111 -0.0226 0.7027
vn -0.7112 -0.0226 0.7026
vn -1 0.0002 0.0001
vn -1 -0 0.0001
vn -1 0.0002 0.0001
vn -1 -0 -0.0001
vn -1 0.0002 -0.0001
vn -0.7034 0.0237 -0.7104
vn -1 0.0002 -0.0001
vn -1 -0 -0.0001
vn -0.7037 0.0237 -0.7101
vn -0.0001 0.0329 -0.9995
vn -0.7034 0.0237 -0.7104
vn -0.7037 0.0237 -0.7101
vn -0.0001 0.033 -0.9995
vn -0.0001 0.0329 -0.9995
vn -0.0001 0.033 -0.9995
vn -0 0.0328 -0.9995
vn -0 0.0328 -0.9995
vn -0 0.0328 -0.9995
vn -0 0.0328 -0.9995
vn -0 0.0328 -0.9995
vn -0 0.0328 -0.9995
vn -0 0.0328 -0.9995
vn -0 0.0328 -0.9995
vn -0 0.0328 -0.9995
vn -0 0.0328 -0.9995
vn -0 0.0328 -0.9995
vn -0 0.0328 -0.9995
vn -0 0.0328 -0.9995
vn -0 0.0328 -0.9995
vt 0.963584 0.143536
vt 0.976181 0.135116
vt 0.950736 0.135116
vt 0.944449 0.143364
vt 0.963584 0.143536
vt 0.979794 0.143766
vt 0.992499 0.13508
vt 0.976181 0.135116
vt 0.979794 0.143766
vt 0.982557 0.146637
vt 0.996696 0.13671
vt 0.992499 0.13508
vt 0.982557 0.146637
vt 0.998388 0.140858
vt 0.996696 0.13671
vt 0.998388 0.140858
vt 0.982557 0.146637
vt 0.98253 0.184535
vt 0.998391 0.192492
vt 0.99671 0.196732
vt 0.998391 0.192492
vt 0.98253 0.184535
vt 0.992531 0.198404
vt 0.99671 0.196732
vt 0.98253 0.184535
vt 0.97981 0.187415
vt 0.97981 0.187415
vt 0.963559 0.18778
vt 0.97618 0.198371
vt 0.992531 0.198404
vt 0.94444 0.188052
vt 0.950736 0.198371
vt 0.97618 0.198371
vt 0.963559 0.18778
vt 0.925291 0.188128
vt 0.925291 0.198371
vt 0.950736 0.198371
vt 0.94444 0.188052
vt 0.906143 0.188052
vt 0.899847 0.198371
vt 0.925291 0.198371
vt 0.925291 0.188128
vt 0.887024 0.18778
vt 0.874402 0.198371
vt 0.899847 0.198371
vt 0.906143 0.188052
vt 0.887024 0.18778
vt 0.870772 0.187415
vt 0.858011 0.198392
vt 0.874402 0.198371
vt 0.853826 0.196686
vt 0.858011 0.198392
vt 0.870772 0.187415
vt 0.852179 0.192451
vt 0.853826 0.196686
vt 0.870772 0.187415
vt 0.868053 0.184535
vt 0.868026 0.146637
vt 0.852195 0.140858
vt 0.852179 0.192451
vt 0.868053 0.184535
vt 0.853887 0.136709
vt 0.852195 0.140858
vt 0.868026 0.146637
vt 0.858084 0.13508
vt 0.853887 0.136709
vt 0.868026 0.146637
vt 0.870788 0.143766
vt 0.870788 0.143766
vt 0.886999 0.143536
vt 0.874402 0.135116
vt 0.858084 0.13508
vt 0.906134 0.143364
vt 0.899847 0.135116
vt 0.874402 0.135116
vt 0.886999 0.143536
vt 0.925291 0.143317
vt 0.925291 0.135116
vt 0.899847 0.135116
vt 0.906134 0.143364
vt 0.944449 0.143364
vt 0.950736 0.135116
vt 0.925291 0.135116
vt 0.925291 0.143317
vt 0.944449 0.143364
vt 0.925291 0.143317
vt 0.925291 0.144896
vt 0.944262 0.144944
vt 0.925291 0.143317
vt 0.906134 0.143364
vt 0.906321 0.144944
vt 0.925291 0.144896
vt 0.925291 0.150987
vt 0.925291 0.144896
vt 0.906321 0.144944
vt 0.906316 0.151014
vt 0.944266 0.151014
vt 0.944262 0.144944
vt 0.925291 0.144896
vt 0.925291 0.150987
vt 0.925291 0.150987
vt 0.925291 0.180366
vt 0.944272 0.180313
vt 0.944266 0.151014
vt 0.906316 0.151014
vt 0.906311 0.180313
vt 0.925291 0.180366
vt 0.925291 0.150987
vt 0.925291 0.186464
vt 0.925291 0.180366
vt 0.906311 0.180313
vt 0.906314 0.186388
vt 0.944269 0.186388
vt 0.944272 0.180313
vt 0.925291 0.180366
vt 0.925291 0.186464
vt 0.925291 0.186464
vt 0.906314 0.186388
vt 0.906143 0.188052
vt 0.925291 0.188128
vt 0.944269 0.186388
vt 0.925291 0.186464
vt 0.925291 0.188128
vt 0.94444 0.188052
vt 0.96323 0.186118
vt 0.944269 0.186388
vt 0.94444 0.188052
vt 0.963559 0.18778
vt 0.96323 0.186118
vt 0.963234 0.180115
vt 0.944272 0.180313
vt 0.944269 0.186388
vt 0.979459 0.185753
vt 0.96323 0.186118
vt 0.963559 0.18778
vt 0.97981 0.187415
vt 0.96323 0.186118
vt 0.979459 0.185753
vt 0.980932 0.18401
vt 0.963234 0.180115
vt 0.980932 0.18401
vt 0.979459 0.185753
vt 0.97981 0.187415
vt 0.98253 0.184535
vt 0.980932 0.18401
vt 0.98253 0.184535
vt 0.982557 0.146637
vt 0.980932 0.147071
vt 0.980932 0.147071
vt 0.963227 0.151116
vt 0.963234 0.180115
vt 0.980932 0.18401
vt 0.979435 0.145345
vt 0.980932 0.147071
vt 0.982557 0.146637
vt 0.979794 0.143766
vt 0.963227 0.151116
vt 0.980932 0.147071
vt 0.979435 0.145345
vt 0.963222 0.145115
vt 0.963222 0.145115
vt 0.979435 0.145345
vt 0.979794 0.143766
vt 0.963584 0.143536
vt 0.963584 0.143536
vt 0.944449 0.143364
vt 0.944262 0.144944
vt 0.963222 0.145115
vt 0.963227 0.151116
vt 0.963222 0.145115
vt 0.944262 0.144944
vt 0.944266 0.151014
vt 0.944266 0.151014
vt 0.944272 0.180313
vt 0.963234 0.180115
vt 0.963227 0.151116
vt 0.906314 0.186388
vt 0.887353 0.186118
vt 0.887024 0.18778
vt 0.906143 0.188052
vt 0.906314 0.186388
vt 0.906311 0.180313
vt 0.887349 0.180115
vt 0.887353 0.186118
vt 0.887353 0.186118
vt 0.871124 0.185753
vt 0.870772 0.187415
vt 0.887024 0.18778
vt 0.869651 0.18401
vt 0.871124 0.185753
vt 0.887353 0.186118
vt 0.887349 0.180115
vt 0.871124 0.185753
vt 0.869651 0.18401
vt 0.868053 0.184535
vt 0.870772 0.187415
vt 0.868026 0.146637
vt 0.868053 0.184535
vt 0.869651 0.18401
vt 0.869651 0.147071
vt 0.887356 0.151116
vt 0.869651 0.147071
vt 0.869651 0.18401
vt 0.887349 0.180115
vt 0.869651 0.147071
vt 0.887356 0.151116
vt 0.887361 0.145115
vt 0.871148 0.145345
vt 0.869651 0.147071
vt 0.871148 0.145345
vt 0.870788 0.143766
vt 0.868026 0.146637
vt 0.871148 0.145345
vt 0.887361 0.145115
vt 0.886999 0.143536
vt 0.870788 0.143766
vt 0.906316 0.151014
vt 0.906321 0.144944
vt 0.887361 0.145115
vt 0.887356 0.151116
vt 0.906134 0.143364
vt 0.886999 0.143536
vt 0.887361 0.145115
vt 0.906321 0.144944
vt 0.887356 0.151116
vt 0.887349 0.180115
vt 0.906311 0.180313
vt 0.906316 0.151014
vt 0.976181 0.133278
vt 0.976181 0.135116
vt 0.992499 0.13508
vt 0.992874 0.133291
vt 0.976181 0.135116
vt 0.976181 0.133278
vt 0.950736 0.133278
vt 0.950736 0.135116
vt 0.992499 0.13508
vt 0.996696 0.13671
vt 0.99788 0.135385
vt 0.992874 0.133291
vt 0.996696 0.13671
vt 0.998388 0.140858
vt 0.999999 0.140341
vt 0.99788 0.135385
vt 1 0.19264
vt 0.999999 0.140341
vt 0.998388 0.140858
vt 0.998391 0.192492
vt 0.997892 0.197677
vt 1 0.19264
vt 0.998391 0.192492
vt 0.99671 0.196732
vt 0.992904 0.199809
vt 0.997892 0.197677
vt 0.99671 0.196732
vt 0.992531 0.198404
vt 0.992904 0.199809
vt 0.992531 0.198404
vt 0.97618 0.198371
vt 0.976181 0.199822
vt 0.950736 0.198371
vt 0.950736 0.199822
vt 0.976181 0.199822
vt 0.97618 0.198371
vt 0.925291 0.198371
vt 0.925291 0.199822
vt 0.950736 0.199822
vt 0.950736 0.198371
vt 0.899847 0.198371
vt 0.899847 0.199822
vt 0.925291 0.199822
vt 0.925291 0.198371
vt 0.874402 0.198371
vt 0.874402 0.199822
vt 0.899847 0.199822
vt 0.899847 0.198371
vt 0.874402 0.199822
vt 0.874402 0.198371
vt 0.858011 0.198392
vt 0.857678 0.199809
vt 0.85269 0.197677
vt 0.857678 0.199809
vt 0.858011 0.198392
vt 0.853826 0.196686
vt 0.850583 0.192639
vt 0.85269 0.197677
vt 0.853826 0.196686
vt 0.852179 0.192451
vt 0.850583 0.192639
vt 0.852179 0.192451
vt 0.852195 0.140858
vt 0.850584 0.140341
vt 0.852703 0.135385
vt 0.850584 0.140341
vt 0.852195 0.140858
vt 0.853887 0.136709
vt 0.857709 0.133291
vt 0.852703 0.135385
vt 0.853887 0.136709
vt 0.858084 0.13508
vt 0.857709 0.133291
vt 0.858084 0.13508
vt 0.874402 0.135116
vt 0.874402 0.133278
vt 0.899847 0.135116
vt 0.899847 0.133278
vt 0.874402 0.133278
vt 0.874402 0.135116
vt 0.925291 0.135116
vt 0.925291 0.133278
vt 0.899847 0.133278
vt 0.899847 0.135116
vt 0.950736 0.135116
vt 0.950736 0.133278
vt 0.925291 0.133278
vt 0.925291 0.135116
s off
f 1/1/1 2/2/2 3/3/3
f 1/1/1 3/3/3 4/4/4
f 5/5/5 6/6/6 7/7/7
f 5/5/5 7/7/7 8/8/8
f 9/9/9 10/10/10 11/11/11
f 9/9/9 11/11/11 12/12/12
f 13/13/13 14/14/14 15/15/15
f 16/16/16 17/17/17 18/18/18
f 16/16/16 18/18/18 19/19/19
f 20/20/20 21/21/21 22/22/22
f 23/23/23 24/24/24 25/25/25
f 23/23/23 25/25/25 26/26/26
f 27/27/27 28/28/28 29/29/29
f 27/27/27 29/29/29 30/30/30
f 31/31/31 32/32/32 33/33/33
f 31/31/31 33/33/33 34/34/34
f 35/35/35 36/36/36 37/37/37
f 35/35/35 37/37/37 38/38/38
f 39/39/39 40/40/40 41/41/41
f 39/39/39 41/41/41 42/42/42
f 43/43/43 44/44/44 45/45/45
f 43/43/43 45/45/45 46/46/46
f 47/47/47 48/48/48 49/49/49
f 47/47/47 49/49/49 50/50/50
f 51/51/51 52/52/52 53/53/53
f 54/54/54 55/55/55 56/56/56
f 54/54/54 56/56/56 57/57/57
f 58/58/58 59/59/59 60/60/60
f 58/58/58 60/60/60 61/61/61
f 62/62/62 63/63/63 64/64/64
f 65/65/65 66/66/66 67/67/67
f 65/65/65 67/67/67 68/68/68
f 69/69/69 70/70/70 71/71/71
f 69/69/69 71/71/71 72/72/72
f 73/73/73 74/74/74 75/75/75
f 73/73/73 75/75/75 76/76/76
f 77/77/77 78/78/78 79/79/79
f 77/77/77 79/79/79 80/80/80
f 81/81/81 82/82/82 83/83/83
f 81/81/81 83/83/83 84/84/84
f 85/85/85 86/86/86 87/87/87
f 85/85/85 87/87/87 88/88/88
f 89/89/89 90/90/90 91/91/91
f 89/89/89 91/91/91 92/92/92
f 93/93/93 94/94/94 95/95/95
f 93/93/93 95/95/95 96/96/96
f 97/97/97 98/98/98 99/99/99
f 97/97/97 99/99/99 100/100/100
f 101/101/101 102/102/102 103/103/103
f 101/101/101 103/103/103 104/104/104
f 105/105/105 106/106/106 107/107/107
f 105/105/105 107/107/107 108/108/108
f 109/109/109 110/110/110 111/111/111
f 109/109/109 111/111/111 112/112/112
f 113/113/113 114/114/114 115/115/115
f 113/113/113 115/115/115 116/116/116
f 117/117/117 118/118/118 119/119/119
f 117/117/117 119/119/119 120/120/120
f 121/121/121 122/122/122 123/123/123
f 121/121/121 123/123/123 124/124/124
f 125/125/125 126/126/126 127/127/127
f 125/125/125 127/127/127 128/128/128
f 129/129/129 130/130/130 131/131/131
f 129/129/129 131/131/131 132/132/132
f 133/133/133 134/134/134 135/135/135
f 133/133/133 135/135/135 136/136/136
f 137/137/137 138/138/138 139/139/139
f 137/137/137 139/139/139 140/140/140
f 141/141/141 142/142/142 143/143/143
f 141/141/141 143/143/143 144/144/144
f 145/145/145 146/146/146 147/147/147
f 145/145/145 147/147/147 148/148/148
f 149/149/149 150/150/150 151/151/151
f 149/149/149 151/151/151 152/152/152
f 153/153/153 154/154/154 155/155/155
f 153/153/153 155/155/155 156/156/156
f 157/157/157 158/158/158 159/159/159
f 157/157/157 159/159/159 160/160/160
f 161/161/161 162/162/162 163/163/163
f 161/161/161 163/163/163 164/164/164
f 165/165/165 166/166/166 167/167/167
f 165/165/165 167/167/167 168/168/168
f 169/169/169 170/170/170 171/171/171
f 169/169/169 171/171/171 172/172/172
f 173/173/173 174/174/174 175/175/175
f 173/173/173 175/175/175 176/176/176
f 177/177/177 178/178/178 179/179/179
f 177/177/177 179/179/179 180/180/180
f 181/181/181 182/182/182 183/183/183
f 181/181/181 183/183/183 184/184/184
f 185/185/185 186/186/186 187/187/187
f 185/185/185 187/187/187 188/188/188
f 189/189/189 190/190/190 191/191/191
f 189/189/189 191/191/191 192/192/192
f 193/193/193 194/194/194 195/195/195
f 193/193/193 195/195/195 196/196/196
f 197/197/197 198/198/198 199/199/199
f 197/197/197 199/199/199 200/200/200
f 201/201/201 202/202/202 203/203/203
f 201/201/201 203/203/203 204/204/204
f 205/205/205 206/206/206 207/207/207
f 205/205/205 207/207/207 208/208/208
f 209/209/209 210/210/210 211/211/211
f 209/209/209 211/211/211 212/212/212
f 213/213/213 214/214/214 215/215/215
f 213/213/213 215/215/215 216/216/216
f 217/217/217 218/218/218 219/219/219
f 217/217/217 219/219/219 220/220/220
f 221/221/221 222/222/222 223/223/223
f 221/221/221 223/223/223 224/224/224
f 225/225/225 226/226/226 227/227/227
f 225/225/225 227/227/227 228/228/228
f 229/229/229 230/230/230 231/231/231
f 229/229/229 231/231/231 232/232/232
f 233/233/233 234/234/234 235/235/235
f 233/233/233 235/235/235 236/236/236
f 237/237/237 238/238/238 239/239/239
f 237/237/237 239/239/239 240/240/240
f 241/241/241 242/242/242 243/243/243
f 241/241/241 243/243/243 244/244/244
f 245/245/245 246/246/246 247/247/247
f 245/245/245 247/247/247 248/248/248
f 249/249/249 250/250/250 251/251/251
f 249/249/249 251/251/251 252/252/252
f 253/253/253 254/254/254 255/255/255
f 253/253/253 255/255/255 256/256/256
f 257/257/257 258/258/258 259/259/259
f 257/257/257 259/259/259 260/260/260
f 261/261/261 262/262/262 263/263/263
f 261/261/261 263/263/263 264/264/264
f 265/265/265 266/266/266 267/267/267
f 265/265/265 267/267/267 268/268/268
f 269/269/269 270/270/270 271/271/271
f 269/269/269 271/271/271 272/272/272
f 273/273/273 274/274/274 275/275/275
f 273/273/273 275/275/275 276/276/276
f 277/277/277 278/278/278 279/279/279
f 277/277/277 279/279/279 280/280/280
f 281/281/281 282/282/282 283/283/283
f 281/281/281 283/283/283 284/284/284
f 285/285/285 286/286/286 287/287/287
f 285/285/285 287/287/287 288/288/288
f 289/289/289 290/290/290 291/291/291
f 289/289/289 291/291/291 292/292/292
f 293/293/293 294/294/294 295/295/295
f 293/293/293 295/295/295 296/296/296
f 297/297/297 298/298/298 299/299/299
f 297/297/297 299/299/299 300/300/300
f 301/301/301 302/302/302 303/303/303
f 301/301/301 303/303/303 304/304/304
f 305/305/305 306/306/306 307/307/307
f 305/305/305 307/307/307 308/308/308
f 309/309/309 310/310/310 311/311/311
f 309/309/309 311/311/311 312/312/312
f 313/313/313 314/314/314 315/315/315
f 313/313/313 315/315/315 316/316/316
