v -0.88278 0.19824 -0.256883
v -0.886788 0.198055 -0.255693
v -0.88302 0.198116 -0.254349
v -0.900345 0.198919 -0.274627
v -0.900493 0.19881 -0.272227
v -0.897232 0.198804 -0.274052
v -0.887588 0.198824 -0.272537
v -0.886337 0.198755 -0.270263
v -0.884571 0.198979 -0.274048
v -0.888374 0.198546 -0.267211
v -0.889615 0.19866 -0.270499
v -0.890986 0.198494 -0.267953
v -0.889652 0.198081 -0.258275
v -0.887947 0.198252 -0.260686
v -0.891258 0.198191 -0.261729
v -0.905914 0.198873 -0.270025
v -0.907625 0.199038 -0.272361
v -0.908767 0.198962 -0.269885
v -0.886337 0.198755 -0.270263
v -0.88285 0.198926 -0.27186
v -0.884571 0.198979 -0.274048
v -0.912135 0.198527 -0.254481
v -0.912135 0.198639 -0.256902
v -0.923695 0.199923 -0.256902
v -0.912525 0.199363 -0.271821
v -0.912525 0.199478 -0.274321
v -0.926586 0.201004 -0.274321
v -0.902676 0.198151 -0.256681
v -0.904294 0.1981 -0.254396
v -0.899713 0.197944 -0.254333
v -0.875332 0.198742 -0.259145
v -0.878093 0.198385 -0.257188
v -0.873404 0.198885 -0.257302
v -0.894788 0.198679 -0.272854
v -0.897688 0.198701 -0.271597
v -0.895726 0.198598 -0.270589
v -0.875329 0.199226 -0.269654
v -0.875436 0.199375 -0.273164
v -0.877145 0.199077 -0.271073
v -0.897087 0.198182 -0.260974
v -0.896557 0.198327 -0.264366
v -0.899302 0.198313 -0.26242
v -0.923695 0.200281 -0.265729
v -0.913775 0.199091 -0.263307
v -0.913775 0.199202 -0.265729
v -0.896724 0.198106 -0.259595
v -0.894488 0.197944 -0.257488
v -0.893906 0.198047 -0.260013
v -0.912135 0.198527 -0.254481
v -0.923695 0.199923 -0.256902
v -0.926586 0.200199 -0.254481
v -0.896776 0.197903 -0.255257
v -0.897144 0.198051 -0.258164
v -0.899256 0.19805 -0.256889
v -0.897087 0.198182 -0.260974
v -0.893906 0.198047 -0.260013
v -0.894386 0.198169 -0.262319
v -0.926586 0.200199 -0.254481
v -0.923695 0.199923 -0.256902
v -0.923695 0.200183 -0.263307
v -0.905973 0.198297 -0.257451
v -0.90831 0.198443 -0.258927
v -0.909378 0.198371 -0.256603
v -0.904011 0.198895 -0.271881
v -0.907625 0.199038 -0.272361
v -0.905914 0.198873 -0.270025
v -0.87639 0.198432 -0.255136
v -0.878093 0.198385 -0.257188
v -0.879287 0.19822 -0.254328
v -0.875329 0.199226 -0.269654
v -0.873467 0.199528 -0.271433
v -0.875436 0.199375 -0.273164
v -0.878093 0.198385 -0.257188
v -0.87639 0.198432 -0.255136
v -0.873404 0.198885 -0.257302
v -0.899256 0.19805 -0.256889
v -0.902676 0.198151 -0.256681
v -0.899713 0.197944 -0.254333
v -0.886337 0.198755 -0.270263
v -0.887588 0.198824 -0.272537
v -0.889615 0.19866 -0.270499
v -0.905696 0.198766 -0.267851
v -0.905712 0.1986 -0.264227
v -0.90375 0.198636 -0.266436
v -0.926586 0.201004 -0.274321
v -0.923695 0.200281 -0.265729
v -0.923695 0.200528 -0.271821
v -0.896776 0.197903 -0.255257
v -0.899256 0.19805 -0.256889
v -0.899713 0.197944 -0.254333
v -0.904667 0.199028 -0.274308
v -0.904011 0.198895 -0.271881
v -0.900493 0.19881 -0.272227
v -0.879287 0.19822 -0.254328
v -0.878093 0.198385 -0.257188
v -0.88278 0.19824 -0.256883
v -0.887947 0.198252 -0.260686
v -0.889652 0.198081 -0.258275
v -0.886298 0.198208 -0.2586
v -0.899302 0.198313 -0.26242
v -0.90375 0.198636 -0.266436
v -0.905712 0.1986 -0.264227
v -0.888835 0.19836 -0.263603
v -0.891258 0.198191 -0.261729
v -0.887947 0.198252 -0.260686
v -0.899302 0.198313 -0.26242
v -0.896557 0.198327 -0.264366
v -0.90375 0.198636 -0.266436
v -0.900493 0.19881 -0.272227
v -0.900345 0.198919 -0.274627
v -0.904667 0.199028 -0.274308
v -0.905696 0.198766 -0.267851
v -0.908371 0.198794 -0.266521
v -0.905712 0.1986 -0.264227
v -0.888374 0.198546 -0.267211
v -0.886337 0.198755 -0.270263
v -0.889615 0.19866 -0.270499
v -0.879936 0.199136 -0.274635
v -0.884571 0.198979 -0.274048
v -0.88285 0.198926 -0.27186
v -0.904011 0.198895 -0.271881
v -0.904667 0.199028 -0.274308
v -0.907625 0.199038 -0.272361
v -0.896724 0.198106 -0.259595
v -0.897144 0.198051 -0.258164
v -0.894488 0.197944 -0.257488
v -0.897232 0.198804 -0.274052
v -0.900493 0.19881 -0.272227
v -0.897688 0.198701 -0.271597
v -0.902676 0.198151 -0.256681
v -0.905973 0.198297 -0.257451
v -0.904294 0.1981 -0.254396
v -0.923695 0.200528 -0.271821
v -0.912525 0.199363 -0.271821
v -0.926586 0.201004 -0.274321
v -0.923695 0.200183 -0.263307
v -0.913775 0.199091 -0.263307
v -0.923695 0.200281 -0.265729
v -0.896776 0.197903 -0.255257
v -0.894488 0.197944 -0.257488
v -0.897144 0.198051 -0.258164
v -0.923695 0.200183 -0.263307
v -0.926586 0.201004 -0.274321
v -0.926586 0.200199 -0.254481
v -0.88278 0.19824 -0.256883
v -0.88302 0.198116 -0.254349
v -0.879287 0.19822 -0.254328
v -0.891529 0.198337 -0.264998
v -0.891258 0.198191 -0.261729
v -0.888835 0.19836 -0.263603
v -0.888374 0.198546 -0.267211
v -0.890986 0.198494 -0.267953
v -0.891529 0.198337 -0.264998
v -0.888835 0.19836 -0.263603
v -0.926586 0.201004 -0.274321
v -0.923695 0.200183 -0.263307
v -0.923695 0.200281 -0.265729
v -0.889652 0.198081 -0.258275
v -0.886788 0.198055 -0.255693
v -0.886298 0.198208 -0.2586
v -0.88285 0.198926 -0.27186
v -0.879398 0.199025 -0.271903
v -0.879936 0.199136 -0.274635
v -0.897688 0.198701 -0.271597
v -0.894788 0.198679 -0.272854
v -0.897232 0.198804 -0.274052
v -0.897087 0.198182 -0.260974
v -0.894386 0.198169 -0.262319
v -0.896557 0.198327 -0.264366
v -0.897087 0.198182 -0.260974
v -0.896724 0.198106 -0.259595
v -0.893906 0.198047 -0.260013
v -0.908767 0.198962 -0.269885
v -0.908371 0.198794 -0.266521
v -0.905696 0.198766 -0.267851
v -0.905914 0.198873 -0.270025
v -0.879398 0.199025 -0.271903
v -0.877145 0.199077 -0.271073
v -0.875436 0.199375 -0.273164
v -0.879936 0.199136 -0.274635
v -0.88278 0.19824 -0.256883
v -0.886298 0.198208 -0.2586
v -0.886788 0.198055 -0.255693
v -0.905973 0.198297 -0.257451
v -0.909378 0.198371 -0.256603
v -0.904294 0.1981 -0.254396
vn -0.0325 0.9984 0.0455
vn -0.0325 0.9984 0.0455
vn -0.0325 0.9984 0.0455
vn 0.0281 0.9985 0.0472
vn 0.0281 0.9985 0.0472
vn 0.0281 0.9985 0.0472
vn -0.0281 0.9985 0.0459
vn -0.0281 0.9985 0.0459
vn -0.0281 0.9985 0.0459
vn -0.0333 0.9983 0.0472
vn -0.0333 0.9983 0.0472
vn -0.0333 0.9983 0.0472
vn -0.0333 0.9983 0.0472
vn -0.0333 0.9983 0.0472
vn -0.0333 0.9983 0.0472
vn 0.0333 0.9984 0.0459
vn 0.0333 0.9984 0.0459
vn 0.0333 0.9984 0.0459
vn -0.0281 0.9985 0.0459
vn -0.0281 0.9985 0.0459
vn -0.0281 0.9985 0.0459
vn 0.1103 0.9929 0.0457
vn 0.1103 0.9929 0.0457
vn 0.1103 0.9929 0.0457
vn 0.1078 0.9931 0.0457
vn 0.1078 0.9931 0.0457
vn 0.1078 0.9931 0.0457
vn 0.0333 0.9984 0.0459
vn 0.0333 0.9984 0.0459
vn 0.0333 0.9984 0.0459
vn -0.105 0.9939 0.0329
vn -0.105 0.9939 0.0329
vn -0.105 0.9939 0.0329
vn 0.0281 0.9985 0.0473
vn 0.0281 0.9985 0.0473
vn 0.0281 0.9985 0.0473
vn -0.1171 0.9921 0.0457
vn -0.1171 0.9921 0.0457
vn -0.1171 0.9921 0.0457
vn 0.0281 0.9985 0.0472
vn 0.0281 0.9985 0.0472
vn 0.0281 0.9985 0.0472
vn 0.108 0.9931 0.0457
vn 0.108 0.9931 0.0457
vn 0.108 0.9931 0.0457
vn 0.0281 0.9985 0.0472
vn 0.0281 0.9985 0.0472
vn 0.0281 0.9985 0.0472
vn 0.1149 0.9931 0.024
vn 0.1149 0.9931 0.024
vn 0.1149 0.9931 0.024
vn 0.0281 0.9985 0.0472
vn 0.0281 0.9985 0.0472
vn 0.0281 0.9985 0.0472
vn 0.0281 0.9985 0.0472
vn 0.0281 0.9985 0.0472
vn 0.0281 0.9985 0.0472
vn 0.1282 0.9909 0.0402
vn 0.1282 0.9909 0.0402
vn 0.1282 0.9909 0.0402
vn 0.0333 0.9984 0.046
vn 0.0333 0.9984 0.046
vn 0.0333 0.9984 0.046
vn 0.0333 0.9984 0.0459
vn 0.0333 0.9984 0.0459
vn 0.0333 0.9984 0.0459
vn -0.0644 0.9975 0.0307
vn -0.0644 0.9975 0.0307
vn -0.0644 0.9975 0.0307
vn -0.1171 0.9921 0.0457
vn -0.1171 0.9921 0.0457
vn -0.1171 0.9921 0.0457
vn -0.1041 0.9925 0.0638
vn -0.1041 0.9925 0.0638
vn -0.1041 0.9925 0.0638
vn 0.0325 0.9984 0.047
vn 0.0325 0.9984 0.047
vn 0.0325 0.9984 0.047
vn -0.0322 0.9983 0.0482
vn -0.0322 0.9983 0.0482
vn -0.0322 0.9983 0.0482
vn 0.0333 0.9984 0.0459
vn 0.0333 0.9984 0.0459
vn 0.0333 0.9984 0.0459
vn 0.1285 0.9909 0.0402
vn 0.1285 0.9909 0.0402
vn 0.1285 0.9909 0.0402
vn 0.0287 0.9985 0.0463
vn 0.0287 0.9985 0.0463
vn 0.0287 0.9985 0.0463
vn 0.0288 0.9985 0.0471
vn 0.0288 0.9985 0.0471
vn 0.0288 0.9985 0.0471
vn -0.0281 0.9986 0.0459
vn -0.0281 0.9986 0.0459
vn -0.0281 0.9986 0.0459
vn -0.0333 0.9983 0.0472
vn -0.0333 0.9983 0.0472
vn -0.0333 0.9983 0.0472
vn 0.0321 0.9985 0.0448
vn 0.0321 0.9985 0.0448
vn 0.0321 0.9985 0.0448
vn -0.0333 0.9983 0.0472
vn -0.0333 0.9983 0.0472
vn -0.0333 0.9983 0.0472
vn 0.0289 0.9984 0.0483
vn 0.0289 0.9984 0.0483
vn 0.0289 0.9984 0.0483
vn 0.0288 0.9985 0.0472
vn 0.0288 0.9985 0.0472
vn 0.0288 0.9985 0.0472
vn 0.0333 0.9984 0.0459
vn 0.0333 0.9984 0.0459
vn 0.0333 0.9984 0.0459
vn -0.0321 0.9984 0.0467
vn -0.0321 0.9984 0.0467
vn -0.0321 0.9984 0.0467
vn -0.0281 0.9986 0.0459
vn -0.0281 0.9986 0.0459
vn -0.0281 0.9986 0.0459
vn 0.0333 0.9984 0.0459
vn 0.0333 0.9984 0.0459
vn 0.0333 0.9984 0.0459
vn 0.0281 0.9985 0.0472
vn 0.0281 0.9985 0.0472
vn 0.0281 0.9985 0.0472
vn 0.0281 0.9985 0.0472
vn 0.0281 0.9985 0.0472
vn 0.0281 0.9985 0.0472
vn 0.0333 0.9984 0.0459
vn 0.0333 0.9984 0.0459
vn 0.0333 0.9984 0.0459
vn 0.1035 0.9922 0.0693
vn 0.1035 0.9922 0.0693
vn 0.1035 0.9922 0.0693
vn 0.1093 0.9932 0.0403
vn 0.1093 0.9932 0.0403
vn 0.1093 0.9932 0.0403
vn 0.0281 0.9985 0.0472
vn 0.0281 0.9985 0.0472
vn 0.0281 0.9985 0.0472
vn 0.1284 0.9909 0.0402
vn 0.1284 0.9909 0.0402
vn 0.1284 0.9909 0.0402
vn -0.0281 0.9986 0.0459
vn -0.0281 0.9986 0.0459
vn -0.0281 0.9986 0.0459
vn -0.0333 0.9983 0.0472
vn -0.0333 0.9983 0.0472
vn -0.0333 0.9983 0.0472
vn -0.0333 0.9983 0.0472
vn -0.0333 0.9983 0.0472
vn -0.0333 0.9983 0.0472
vn -0.0333 0.9983 0.0472
vn 0.1283 0.9909 0.0403
vn 0.1283 0.9909 0.0403
vn 0.1283 0.9909 0.0403
vn -0.0333 0.9983 0.0472
vn -0.0333 0.9983 0.0472
vn -0.0333 0.9983 0.0472
vn -0.0281 0.9986 0.0459
vn -0.0281 0.9986 0.0459
vn -0.0281 0.9986 0.0459
vn 0.0281 0.9985 0.0472
vn 0.0281 0.9985 0.0472
vn 0.0281 0.9985 0.0472
vn 0.0281 0.9985 0.0472
vn 0.0281 0.9985 0.0472
vn 0.0281 0.9985 0.0472
vn 0.0281 0.9985 0.0471
vn 0.0281 0.9985 0.0471
vn 0.0281 0.9985 0.0471
vn 0.0333 0.9984 0.0459
vn 0.0333 0.9984 0.0459
vn 0.0333 0.9984 0.0459
vn 0.0333 0.9984 0.0459
vn -0.0661 0.9955 0.0683
vn -0.0661 0.9955 0.0683
vn -0.0661 0.9955 0.0683
vn -0.0661 0.9955 0.0683
vn -0.032 0.9984 0.0474
vn -0.032 0.9984 0.0474
vn -0.032 0.9984 0.0474
vn 0.0333 0.9984 0.0459
vn 0.0333 0.9984 0.0459
vn 0.0333 0.9984 0.0459
vt 0.038873 0.38311
vt 0.036779 0.383731
vt 0.038747 0.384433
vt 0.029697 0.373841
vt 0.02962 0.375095
vt 0.031324 0.374142
vt 0.036361 0.374933
vt 0.037015 0.376121
vt 0.037937 0.374143
vt 0.035951 0.377715
vt 0.035302 0.375997
vt 0.034586 0.377327
vt 0.035283 0.382382
vt 0.036174 0.381123
vt 0.034444 0.380579
vt 0.026788 0.376245
vt 0.025894 0.375025
vt 0.025298 0.376318
vt 0.037015 0.376121
vt 0.038836 0.375286
vt 0.037937 0.374143
vt 0.023539 0.384365
vt 0.023539 0.3831
vt 0.0175 0.3831
vt 0.023335 0.375307
vt 0.023335 0.374001
vt 0.01599 0.374001
vt 0.02848 0.383215
vt 0.027635 0.384409
vt 0.030027 0.384442
vt 0.042763 0.381928
vt 0.041321 0.382951
vt 0.04377 0.382891
vt 0.0326 0.374767
vt 0.031085 0.375424
vt 0.03211 0.375951
vt 0.042765 0.376439
vt 0.042709 0.374606
vt 0.041816 0.375698
vt 0.031399 0.380973
vt 0.031676 0.379201
vt 0.030242 0.380218
vt 0.0175 0.378489
vt 0.022682 0.379754
vt 0.022682 0.378489
vt 0.031589 0.381693
vt 0.032757 0.382794
vt 0.033061 0.381475
vt 0.023539 0.384365
vt 0.0175 0.3831
vt 0.01599 0.384365
vt 0.031562 0.383959
vt 0.031369 0.382441
vt 0.030266 0.383107
vt 0.031399 0.380973
vt 0.033061 0.381475
vt 0.03281 0.38027
vt 0.01599 0.384365
vt 0.0175 0.3831
vt 0.0175 0.379754
vt 0.026758 0.382813
vt 0.025537 0.382042
vt 0.024979 0.383256
vt 0.027783 0.375275
vt 0.025894 0.375025
vt 0.026788 0.376245
vt 0.042211 0.384022
vt 0.041321 0.382951
vt 0.040697 0.384445
vt 0.042765 0.376439
vt 0.043737 0.375509
vt 0.042709 0.374606
vt 0.041321 0.382951
vt 0.042211 0.384022
vt 0.04377 0.382891
vt 0.030266 0.383107
vt 0.02848 0.383215
vt 0.030027 0.384442
vt 0.037015 0.376121
vt 0.036361 0.374933
vt 0.035302 0.375997
vt 0.026902 0.377381
vt 0.026894 0.379274
vt 0.027919 0.37812
vt 0.01599 0.374001
vt 0.0175 0.378489
vt 0.0175 0.375307
vt 0.031562 0.383959
vt 0.030266 0.383107
vt 0.030027 0.384442
vt 0.02744 0.374008
vt 0.027783 0.375275
vt 0.02962 0.375095
vt 0.040697 0.384445
vt 0.041321 0.382951
vt 0.038873 0.38311
vt 0.036174 0.381123
vt 0.035283 0.382382
vt 0.037035 0.382213
vt 0.030242 0.380218
vt 0.027919 0.37812
vt 0.026894 0.379274
vt 0.03571 0.379599
vt 0.034444 0.380579
vt 0.036174 0.381123
vt 0.030242 0.380218
vt 0.031676 0.379201
vt 0.027919 0.37812
vt 0.02962 0.375095
vt 0.029697 0.373841
vt 0.02744 0.374008
vt 0.026902 0.377381
vt 0.025505 0.378075
vt 0.026894 0.379274
vt 0.035951 0.377715
vt 0.037015 0.376121
vt 0.035302 0.375997
vt 0.040358 0.373837
vt 0.037937 0.374143
vt 0.038836 0.375286
vt 0.027783 0.375275
vt 0.02744 0.374008
vt 0.025894 0.375025
vt 0.031589 0.381693
vt 0.031369 0.382441
vt 0.032757 0.382794
vt 0.031324 0.374142
vt 0.02962 0.375095
vt 0.031085 0.375424
vt 0.02848 0.383215
vt 0.026758 0.382813
vt 0.027635 0.384409
vt 0.0175 0.375307
vt 0.023335 0.375307
vt 0.01599 0.374001
vt 0.0175 0.379754
vt 0.022682 0.379754
vt 0.0175 0.378489
vt 0.031562 0.383959
vt 0.032757 0.382794
vt 0.031369 0.382441
vt 0.0175 0.379754
vt 0.01599 0.374001
vt 0.01599 0.384365
vt 0.038873 0.38311
vt 0.038747 0.384433
vt 0.040697 0.384445
vt 0.034303 0.378871
vt 0.034444 0.380579
vt 0.03571 0.379599
vt 0.035951 0.377715
vt 0.034586 0.377327
vt 0.034303 0.378871
vt 0.03571 0.379599
vt 0.01599 0.374001
vt 0.0175 0.379754
vt 0.0175 0.378489
vt 0.035283 0.382382
vt 0.036779 0.383731
vt 0.037035 0.382213
vt 0.038836 0.375286
vt 0.040639 0.375264
vt 0.040358 0.373837
vt 0.031085 0.375424
vt 0.0326 0.374767
vt 0.031324 0.374142
vt 0.031399 0.380973
vt 0.03281 0.38027
vt 0.031676 0.379201
vt 0.031399 0.380973
vt 0.031589 0.381693
vt 0.033061 0.381475
vt 0.025298 0.376318
vt 0.025505 0.378075
vt 0.026902 0.377381
vt 0.026788 0.376245
vt 0.040639 0.375264
vt 0.041816 0.375698
vt 0.042709 0.374606
vt 0.040358 0.373837
vt 0.038873 0.38311
vt 0.037035 0.382213
vt 0.036779 0.383731
vt 0.026758 0.382813
vt 0.024979 0.383256
vt 0.027635 0.384409
s off
f 1/1/1 2/2/2 3/3/3
f 4/4/4 5/5/5 6/6/6
f 7/7/7 8/8/8 9/9/9
f 10/10/10 11/11/11 12/12/12
f 13/13/13 14/14/14 15/15/15
f 16/16/16 17/17/17 18/18/18
f 19/19/19 20/20/20 21/21/21
f 22/22/22 23/23/23 24/24/24
f 25/25/25 26/26/26 27/27/27
f 28/28/28 29/29/29 30/30/30
f 31/31/31 32/32/32 33/33/33
f 34/34/34 35/35/35 36/36/36
f 37/37/37 38/38/38 39/39/39
f 40/40/40 41/41/41 42/42/42
f 43/43/43 44/44/44 45/45/45
f 46/46/46 47/47/47 48/48/48
f 49/49/49 50/50/50 51/51/51
f 52/52/52 53/53/53 54/54/54
f 55/55/55 56/56/56 57/57/57
f 58/58/58 59/59/59 60/60/60
f 61/61/61 62/62/62 63/63/63
f 64/64/64 65/65/65 66/66/66
f 67/67/67 68/68/68 69/69/69
f 70/70/70 71/71/71 72/72/72
f 73/73/73 74/74/74 75/75/75
f 76/76/76 77/77/77 78/78/78
f 79/79/79 80/80/80 81/81/81
f 82/82/82 83/83/83 84/84/84
f 85/85/85 86/86/86 87/87/87
f 88/88/88 89/89/89 90/90/90
f 91/91/91 92/92/92 93/93/93
f 94/94/94 95/95/95 96/96/96
f 97/97/97 98/98/98 99/99/99
f 100/100/100 101/101/101 102/102/102
f 103/103/103 104/104/104 105/105/105
f 106/106/106 107/107/107 108/108/108
f 109/109/109 110/110/110 111/111/111
f 112/112/112 113/113/113 114/114/114
f 115/115/115 116/116/116 117/117/117
f 118/118/118 119/119/119 120/120/120
f 121/121/121 122/122/122 123/123/123
f 124/124/124 125/125/125 126/126/126
f 127/127/127 128/128/128 129/129/129
f 130/130/130 131/131/131 132/132/132
f 133/133/133 134/134/134 135/135/135
f 136/136/136 137/137/137 138/138/138
f 139/139/139 140/140/140 141/141/141
f 142/142/142 143/143/143 144/144/144
f 145/145/145 146/146/146 147/147/147
f 148/148/148 149/149/149 150/150/150
f 151/151/151 152/152/152 153/153/153
f 151/151/151 153/153/153 154/154/154
f 155/155/155 156/156/156 157/157/157
f 158/158/158 159/159/159 160/160/160
f 161/161/161 162/162/162 163/163/163
f 164/164/164 165/165/165 166/166/166
f 167/167/167 168/168/168 169/169/169
f 170/170/170 171/171/171 172/172/172
f 173/173/173 174/174/174 175/175/175
f 173/173/173 175/175/175 176/176/176
f 177/177/177 178/178/178 179/179/179
f 177/177/177 179/179/179 180/180/180
f 181/181/181 182/182/182 183/183/183
f 184/184/184 185/185/185 186/186/186
