v -0.914794 0.19488 -0.214185
v -0.914937 0.133195 -0.192236
v -0.893491 0.133195 -0.192236
v -0.893491 0.193972 -0.213862
v -0.936226 0.197616 -0.215158
v -0.943463 0.133195 -0.192236
v -0.914937 0.133195 -0.192236
v -0.914794 0.19488 -0.214185
v -0.893491 0.193972 -0.213862
v -0.893491 0.133195 -0.192236
v -0.872046 0.133195 -0.192236
v -0.872189 0.19488 -0.214185
v -0.872046 0.133195 -0.192236
v -0.843519 0.133195 -0.192236
v -0.850757 0.197616 -0.215158
v -0.872189 0.19488 -0.214185
v -0.843519 0.133195 -0.192236
v -0.834741 0.133317 -0.195955
v -0.850757 0.197616 -0.215158
v -0.834741 0.133317 -0.195955
v -0.831105 0.133612 -0.204932
v -0.845065 0.199015 -0.221933
v -0.850757 0.197616 -0.215158
v -0.845065 0.199015 -0.221933
v -0.831105 0.133612 -0.204932
v -0.831105 0.136889 -0.304649
v -0.845058 0.201763 -0.306452
v -0.845058 0.201763 -0.306452
v -0.831105 0.136889 -0.304649
v -0.834746 0.137174 -0.313341
v -0.848297 0.20401 -0.304802
v -0.848292 0.201277 -0.224164
v -0.845065 0.199015 -0.221933
v -0.845058 0.201763 -0.306452
v -0.85085 0.201044 -0.312449
v -0.845058 0.201763 -0.306452
v -0.834746 0.137174 -0.313341
v -0.843537 0.137293 -0.316941
v -0.852879 0.203449 -0.309597
v -0.848297 0.20401 -0.304802
v -0.845058 0.201763 -0.306452
v -0.85085 0.201044 -0.312449
v -0.861492 0.201696 -0.296227
v -0.848297 0.20401 -0.304802
v -0.852879 0.203449 -0.309597
v -0.861434 0.199086 -0.231739
v -0.848292 0.201277 -0.224164
v -0.848297 0.20401 -0.304802
v -0.861492 0.201696 -0.296227
v -0.848292 0.201277 -0.224164
v -0.852792 0.20011 -0.218726
v -0.850757 0.197616 -0.215158
v -0.845065 0.199015 -0.221933
v -0.852792 0.20011 -0.218726
v -0.848292 0.201277 -0.224164
v -0.861434 0.199086 -0.231739
v -0.852792 0.20011 -0.218726
v -0.873056 0.197535 -0.217814
v -0.872189 0.19488 -0.214185
v -0.850757 0.197616 -0.215158
v -0.852792 0.20011 -0.218726
v -0.861434 0.199086 -0.231739
v -0.877411 0.197178 -0.231258
v -0.873056 0.197535 -0.217814
v -0.873056 0.197535 -0.217814
v -0.877411 0.197178 -0.231258
v -0.893491 0.196635 -0.231127
v -0.893491 0.196685 -0.217508
v -0.873056 0.197535 -0.217814
v -0.893491 0.196685 -0.217508
v -0.893491 0.193972 -0.213862
v -0.872189 0.19488 -0.214185
v -0.893491 0.196685 -0.217508
v -0.913926 0.197535 -0.217814
v -0.914794 0.19488 -0.214185
v -0.893491 0.193972 -0.213862
v -0.893491 0.196685 -0.217508
v -0.893491 0.196635 -0.231127
v -0.909572 0.197178 -0.231258
v -0.913926 0.197535 -0.217814
v -0.913926 0.197535 -0.217814
v -0.934191 0.20011 -0.218726
v -0.936226 0.197616 -0.215158
v -0.914794 0.19488 -0.214185
v -0.913926 0.197535 -0.217814
v -0.909572 0.197178 -0.231258
v -0.925549 0.199086 -0.231739
v -0.934191 0.20011 -0.218726
v -0.934191 0.20011 -0.218726
v -0.938691 0.201277 -0.224164
v -0.941918 0.199015 -0.221933
v -0.936226 0.197616 -0.215158
v -0.938691 0.201277 -0.224164
v -0.934191 0.20011 -0.218726
v -0.925549 0.199086 -0.231739
v -0.938686 0.20401 -0.304802
v -0.938691 0.201277 -0.224164
v -0.925549 0.199086 -0.231739
v -0.92549 0.201696 -0.296227
v -0.941924 0.201763 -0.306452
v -0.941918 0.199015 -0.221933
v -0.938691 0.201277 -0.224164
v -0.938686 0.20401 -0.304802
v -0.938686 0.20401 -0.304802
v -0.92549 0.201696 -0.296227
v -0.934103 0.203449 -0.309597
v -0.938686 0.20401 -0.304802
v -0.934103 0.203449 -0.309597
v -0.936132 0.201044 -0.31245
v -0.941924 0.201763 -0.306452
v -0.943446 0.137293 -0.316941
v -0.952236 0.137174 -0.313341
v -0.941924 0.201763 -0.306452
v -0.936132 0.201044 -0.31245
v -0.955877 0.136889 -0.304649
v -0.955877 0.133612 -0.204932
v -0.941918 0.199015 -0.221933
v -0.941924 0.201763 -0.306452
v -0.952236 0.137174 -0.313341
v -0.955877 0.136889 -0.304649
v -0.941924 0.201763 -0.306452
v -0.914937 0.137293 -0.316941
v -0.943446 0.137293 -0.316941
v -0.936132 0.201044 -0.31245
v -0.9147 0.199117 -0.312585
v -0.893491 0.19848 -0.31263
v -0.893491 0.137293 -0.316941
v -0.914937 0.137293 -0.316941
v -0.9147 0.199117 -0.312585
v -0.872283 0.199117 -0.312585
v -0.872046 0.137293 -0.316941
v -0.893491 0.137293 -0.316941
v -0.893491 0.19848 -0.31263
v -0.85085 0.201044 -0.312449
v -0.843537 0.137293 -0.316941
v -0.872046 0.137293 -0.316941
v -0.872283 0.199117 -0.312585
v -0.893491 0.201006 -0.309753
v -0.873147 0.201611 -0.309715
v -0.872283 0.199117 -0.312585
v -0.893491 0.19848 -0.31263
v -0.873147 0.201611 -0.309715
v -0.852879 0.203449 -0.309597
v -0.85085 0.201044 -0.312449
v -0.872283 0.199117 -0.312585
v -0.861492 0.201696 -0.296227
v -0.852879 0.203449 -0.309597
v -0.873147 0.201611 -0.309715
v -0.877455 0.200164 -0.296216
v -0.877455 0.200164 -0.296216
v -0.873147 0.201611 -0.309715
v -0.893491 0.201006 -0.309753
v -0.893491 0.199712 -0.296212
v -0.861434 0.199086 -0.231739
v -0.861492 0.201696 -0.296227
v -0.877455 0.200164 -0.296216
v -0.877411 0.197178 -0.231258
v -0.877411 0.197178 -0.231258
v -0.877455 0.200164 -0.296216
v -0.893491 0.199712 -0.296212
v -0.893491 0.196635 -0.231127
v -0.893491 0.196635 -0.231127
v -0.893491 0.199712 -0.296212
v -0.909527 0.200164 -0.296216
v -0.909572 0.197178 -0.231258
v -0.893491 0.199712 -0.296212
v -0.893491 0.201006 -0.309753
v -0.913836 0.201611 -0.309715
v -0.909527 0.200164 -0.296216
v -0.909527 0.200164 -0.296216
v -0.913836 0.201611 -0.309715
v -0.934103 0.203449 -0.309597
v -0.92549 0.201696 -0.296227
v -0.909572 0.197178 -0.231258
v -0.909527 0.200164 -0.296216
v -0.92549 0.201696 -0.296227
v -0.925549 0.199086 -0.231739
v -0.913836 0.201611 -0.309715
v -0.893491 0.201006 -0.309753
v -0.893491 0.19848 -0.31263
v -0.9147 0.199117 -0.312585
v -0.934103 0.203449 -0.309597
v -0.913836 0.201611 -0.309715
v -0.9147 0.199117 -0.312585
v -0.936132 0.201044 -0.31245
v -0.955877 0.133612 -0.204932
v -0.952241 0.133317 -0.195955
v -0.936226 0.197616 -0.215158
v -0.941918 0.199015 -0.221933
v -0.952241 0.133317 -0.195955
v -0.943463 0.133195 -0.192236
v -0.936226 0.197616 -0.215158
v -0.914937 0.133195 -0.192236
v -0.943463 0.133195 -0.192236
v -0.943468 0.121933 -0.192606
v -0.914937 0.121933 -0.192606
v -0.914937 0.133195 -0.192236
v -0.914937 0.121933 -0.192606
v -0.893491 0.121933 -0.192606
v -0.893491 0.133195 -0.192236
v -0.952243 0.122055 -0.19632
v -0.943468 0.121933 -0.192606
v -0.943463 0.133195 -0.192236
v -0.952241 0.133317 -0.195955
v -0.955877 0.12235 -0.205286
v -0.952243 0.122055 -0.19632
v -0.952241 0.133317 -0.195955
v -0.955877 0.133612 -0.204932
v -0.955877 0.125627 -0.305019
v -0.955877 0.12235 -0.205286
v -0.955877 0.133612 -0.204932
v -0.955877 0.136889 -0.304649
v -0.952238 0.125912 -0.313711
v -0.955877 0.125627 -0.305019
v -0.955877 0.136889 -0.304649
v -0.952236 0.137174 -0.313341
v -0.943451 0.126031 -0.317311
v -0.952238 0.125912 -0.313711
v -0.952236 0.137174 -0.313341
v -0.943446 0.137293 -0.316941
v -0.943451 0.126031 -0.317311
v -0.943446 0.137293 -0.316941
v -0.914937 0.137293 -0.316941
v -0.914937 0.126031 -0.317311
v -0.893491 0.137293 -0.316941
v -0.893491 0.126031 -0.317311
v -0.914937 0.126031 -0.317311
v -0.914937 0.137293 -0.316941
v -0.872046 0.137293 -0.316941
v -0.872046 0.126031 -0.317311
v -0.893491 0.126031 -0.317311
v -0.893491 0.137293 -0.316941
v -0.872046 0.137293 -0.316941
v -0.843537 0.137293 -0.316941
v -0.843532 0.126031 -0.317311
v -0.872046 0.126031 -0.317311
v -0.843537 0.137293 -0.316941
v -0.834746 0.137174 -0.313341
v -0.834745 0.125912 -0.313711
v -0.843532 0.126031 -0.317311
v -0.834746 0.137174 -0.313341
v -0.831105 0.136889 -0.304649
v -0.831105 0.125627 -0.305019
v -0.834745 0.125912 -0.313711
v -0.831105 0.125627 -0.305019
v -0.831105 0.136889 -0.304649
v -0.831105 0.133612 -0.204932
v -0.831105 0.12235 -0.205286
v -0.83474 0.122055 -0.19632
v -0.831105 0.12235 -0.205286
v -0.831105 0.133612 -0.204932
v -0.834741 0.133317 -0.195955
v -0.843515 0.121933 -0.192606
v -0.83474 0.122055 -0.19632
v -0.834741 0.133317 -0.195955
v -0.843519 0.133195 -0.192236
v -0.843515 0.121933 -0.192606
v -0.843519 0.133195 -0.192236
v -0.872046 0.133195 -0.192236
v -0.872046 0.121933 -0.192606
v -0.893491 0.133195 -0.192236
v -0.893491 0.121933 -0.192606
v -0.872046 0.121933 -0.192606
v -0.872046 0.133195 -0.192236
vn -0 0.3353 0.9421
vn -0 0.3352 0.9421
vn -0 0.3352 0.9421
vn -0 0.3353 0.9421
vn -0 0.3353 0.9421
vn -0.0001 0.3352 0.9421
vn -0 0.3352 0.9421
vn -0 0.3353 0.9421
vn -0 0.3353 0.9421
vn -0 0.3352 0.9421
vn -0 0.3352 0.9421
vn -0 0.3353 0.9421
vn -0 0.3352 0.9421
vn 0.0001 0.3352 0.9421
vn -0 0.3352 0.9421
vn -0 0.3353 0.9421
vn 0.0001 0.3352 0.9421
vn 0.6747 0.3388 0.6558
vn -0 0.3352 0.9421
vn 0.6747 0.3388 0.6558
vn 0.9776 0.2105 0.007
vn 0.9776 0.2104 0.007
vn -0 0.3352 0.9421
vn 0.9776 0.2104 0.007
vn 0.9776 0.2105 0.007
vn 0.9776 0.2104 0.0068
vn 0.9776 0.2104 0.007
vn 0.9776 0.2104 0.007
vn 0.9776 0.2104 0.0068
vn 0.6994 0.1592 -0.6968
vn -0.1593 0.9866 0.0342
vn -0.1842 0.9819 0.0447
vn 0.9776 0.2104 0.007
vn 0.9776 0.2104 0.007
vn -0 0.0703 -0.9975
vn 0.9776 0.2104 0.007
vn 0.6994 0.1592 -0.6968
vn 0.0001 0.0703 -0.9975
vn -0.1337 0.9899 0.0471
vn -0.1593 0.9866 0.0342
vn 0.9776 0.2104 0.007
vn -0 0.0703 -0.9975
vn -0.1259 0.9908 0.0507
vn -0.1593 0.9866 0.0342
vn -0.1337 0.9899 0.0471
vn -0.1384 0.9899 0.0297
vn -0.1842 0.9819 0.0447
vn -0.1593 0.9866 0.0342
vn -0.1259 0.9908 0.0507
vn -0.1842 0.9819 0.0447
vn -0.1666 0.9853 0.0383
vn -0 0.3352 0.9421
vn 0.9776 0.2104 0.007
vn -0.1666 0.9853 0.0383
vn -0.1842 0.9819 0.0447
vn -0.1384 0.9899 0.0297
vn -0.1666 0.9853 0.0383
vn -0.088 0.9961 0.0052
vn -0 0.3353 0.9421
vn -0 0.3352 0.9421
vn -0.1666 0.9853 0.0383
vn -0.1384 0.9899 0.0297
vn -0.0703 0.9973 0.0213
vn -0.088 0.9961 0.0052
vn -0.088 0.9961 0.0052
vn -0.0703 0.9973 0.0213
vn -0 0.9998 0.0187
vn -0 1 -0.005
vn -0.088 0.9961 0.0052
vn -0 1 -0.005
vn -0 0.3353 0.9421
vn -0 0.3353 0.9421
vn -0 1 -0.005
vn 0.0879 0.9961 0.0052
vn -0 0.3353 0.9421
vn -0 0.3353 0.9421
vn -0 1 -0.005
vn -0 0.9998 0.0187
vn 0.0703 0.9973 0.0213
vn 0.0879 0.9961 0.0052
vn 0.0879 0.9961 0.0052
vn 0.1667 0.9853 0.0383
vn -0 0.3353 0.9421
vn -0 0.3353 0.9421
vn 0.0879 0.9961 0.0052
vn 0.0703 0.9973 0.0213
vn 0.1384 0.9899 0.0297
vn 0.1667 0.9853 0.0383
vn 0.1667 0.9853 0.0383
vn 0.1842 0.9819 0.0448
vn -0.9776 0.2104 0.0069
vn -0 0.3353 0.9421
vn 0.1842 0.9819 0.0448
vn 0.1667 0.9853 0.0383
vn 0.1384 0.9899 0.0297
vn 0.1593 0.9866 0.0342
vn 0.1842 0.9819 0.0448
vn 0.1384 0.9899 0.0297
vn 0.1256 0.9908 0.0505
vn -0.9776 0.2105 0.007
vn -0.9776 0.2104 0.0069
vn 0.1842 0.9819 0.0448
vn 0.1593 0.9866 0.0342
vn 0.1593 0.9866 0.0342
vn 0.1256 0.9908 0.0505
vn 0.1337 0.9899 0.0471
vn 0.1593 0.9866 0.0342
vn 0.1337 0.9899 0.0471
vn -0.0001 0.0703 -0.9975
vn -0.9776 0.2105 0.007
vn -0.0001 0.0703 -0.9975
vn -0.6994 0.1592 -0.6968
vn -0.9776 0.2105 0.007
vn -0.0001 0.0703 -0.9975
vn -0.9776 0.2104 0.0068
vn -0.9776 0.2105 0.007
vn -0.9776 0.2104 0.0069
vn -0.9776 0.2105 0.007
vn -0.6994 0.1592 -0.6968
vn -0.9776 0.2104 0.0068
vn -0.9776 0.2105 0.007
vn -0 0.0703 -0.9975
vn -0.0001 0.0703 -0.9975
vn -0.0001 0.0703 -0.9975
vn -0.0001 0.0704 -0.9975
vn -0 0.0704 -0.9975
vn -0 0.0703 -0.9975
vn -0 0.0703 -0.9975
vn -0.0001 0.0704 -0.9975
vn -0 0.0704 -0.9975
vn -0 0.0703 -0.9975
vn -0 0.0703 -0.9975
vn -0 0.0704 -0.9975
vn -0 0.0703 -0.9975
vn 0.0001 0.0703 -0.9975
vn -0 0.0703 -0.9975
vn -0 0.0704 -0.9975
vn -0 0.9957 0.0923
vn -0.0671 0.9946 0.0788
vn -0 0.0704 -0.9975
vn -0 0.0704 -0.9975
vn -0.0671 0.9946 0.0788
vn -0.1337 0.9899 0.0471
vn -0 0.0703 -0.9975
vn -0 0.0704 -0.9975
vn -0.1259 0.9908 0.0507
vn -0.1337 0.9899 0.0471
vn -0.0671 0.9946 0.0788
vn -0.0616 0.9959 0.066
vn -0.0616 0.9959 0.066
vn -0.0671 0.9946 0.0788
vn -0 0.9957 0.0923
vn -0 0.9974 0.0714
vn -0.1384 0.9899 0.0297
vn -0.1259 0.9908 0.0507
vn -0.0616 0.9959 0.066
vn -0.0703 0.9973 0.0213
vn -0.0703 0.9973 0.0213
vn -0.0616 0.9959 0.066
vn -0 0.9974 0.0714
vn -0 0.9998 0.0187
vn -0 0.9998 0.0187
vn -0 0.9974 0.0714
vn 0.0616 0.9959 0.066
vn 0.0703 0.9973 0.0213
vn -0 0.9974 0.0714
vn -0 0.9957 0.0923
vn 0.067 0.9946 0.0788
vn 0.0616 0.9959 0.066
vn 0.0616 0.9959 0.066
vn 0.067 0.9946 0.0788
vn 0.1337 0.9899 0.0471
vn 0.1256 0.9908 0.0505
vn 0.0703 0.9973 0.0213
vn 0.0616 0.9959 0.066
vn 0.1256 0.9908 0.0505
vn 0.1384 0.9899 0.0297
vn 0.067 0.9946 0.0788
vn -0 0.9957 0.0923
vn -0 0.0704 -0.9975
vn -0.0001 0.0704 -0.9975
vn 0.1337 0.9899 0.0471
vn 0.067 0.9946 0.0788
vn -0.0001 0.0704 -0.9975
vn -0.0001 0.0703 -0.9975
vn -0.9776 0.2105 0.007
vn -0.6747 0.3387 0.6558
vn -0 0.3353 0.9421
vn -0.9776 0.2104 0.0069
vn -0.6747 0.3387 0.6558
vn -0.0001 0.3352 0.9421
vn -0 0.3353 0.9421
vn -0 -0.0328 0.9995
vn -0.0001 -0.0329 0.9995
vn -0.0001 -0.0327 0.9995
vn -0 -0.0328 0.9995
vn -0 -0.0328 0.9995
vn -0 -0.0328 0.9995
vn -0 -0.0328 0.9995
vn -0 -0.0328 0.9995
vn -0.715 -0.0226 0.6988
vn -0.0001 -0.0327 0.9995
vn -0.0001 -0.0329 0.9995
vn -0.7151 -0.0226 0.6987
vn -1 -0 0.0001
vn -0.715 -0.0226 0.6988
vn -0.7151 -0.0226 0.6987
vn -1 0.0002 0.0001
vn -1 -0 -0.0001
vn -1 -0 0.0001
vn -1 0.0002 0.0001
vn -1 0.0001 -0.0001
vn -0.7032 0.0234 -0.7106
vn -1 -0 -0.0001
vn -1 0.0001 -0.0001
vn -0.7033 0.0234 -0.7105
vn -0.0001 0.0329 -0.9995
vn -0.7032 0.0234 -0.7106
vn -0.7033 0.0234 -0.7105
vn -0.0001 0.0329 -0.9995
vn -0.0001 0.0329 -0.9995
vn -0.0001 0.0329 -0.9995
vn -0 0.0328 -0.9995
vn -0 0.0328 -0.9995
vn -0 0.0328 -0.9995
vn -0 0.0328 -0.9995
vn -0 0.0328 -0.9995
vn -0 0.0328 -0.9995
vn -0 0.0328 -0.9995
vn -0 0.0328 -0.9995
vn -0 0.0328 -0.9995
vn -0 0.0328 -0.9995
vn -0 0.0328 -0.9995
vn 0.0001 0.0328 -0.9995
vn 0.0001 0.0329 -0.9995
vn -0 0.0328 -0.9995
vn 0.0001 0.0328 -0.9995
vn 0.7044 0.0234 -0.7094
vn 0.7033 0.0234 -0.7105
vn 0.0001 0.0329 -0.9995
vn 0.7044 0.0234 -0.7094
vn 1 -0 -0.0001
vn 1 -0 -0.0001
vn 0.7033 0.0234 -0.7105
vn 1 -0 -0.0001
vn 1 -0 -0.0001
vn 1 -0 0.0001
vn 1 0.0002 0.0001
vn 0.715 -0.0226 0.6987
vn 1 0.0002 0.0001
vn 1 -0 0.0001
vn 0.715 -0.0226 0.6988
vn 0.0001 -0.0329 0.9995
vn 0.715 -0.0226 0.6987
vn 0.715 -0.0226 0.6988
vn 0.0001 -0.0327 0.9995
vn 0.0001 -0.0329 0.9995
vn 0.0001 -0.0327 0.9995
vn -0 -0.0328 0.9995
vn -0 -0.0328 0.9995
vn -0 -0.0328 0.9995
vn -0 -0.0328 0.9995
vn -0 -0.0328 0.9995
vn -0 -0.0328 0.9995
vt 0.02375 0.050837
vt 0.022075 0.064732
vt 0.033278 0.064732
vt 0.033278 0.050982
vt 0.014165 0.050402
vt 0.007363 0.064752
vt 0.022075 0.064732
vt 0.02375 0.050837
vt 0.033278 0.050982
vt 0.033278 0.064732
vt 0.04448 0.064732
vt 0.042805 0.050837
vt 0.04448 0.064732
vt 0.059192 0.064752
vt 0.05239 0.050402
vt 0.042805 0.050837
vt 0.059192 0.064752
vt 0.063329 0.06304
vt 0.05239 0.050402
vt 0.063329 0.06304
vt 0.064951 0.058801
vt 0.054936 0.047372
vt 0.05239 0.050402
vt 0.054936 0.047372
vt 0.064951 0.058801
vt 0.06493 0.00640899
vt 0.054939 0.00957203
vt 0.054939 0.00957203
vt 0.06493 0.00640899
vt 0.063257 0.00232899
vt 0.05349 0.01031
vt 0.053492 0.046374
vt 0.054936 0.047372
vt 0.054939 0.00957203
vt 0.052348 0.00689
vt 0.054939 0.00957203
vt 0.063257 0.00232899
vt 0.059134 0.000735998
vt 0.051441 0.00816602
vt 0.05349 0.01031
vt 0.054939 0.00957203
vt 0.052348 0.00689
vt 0.047589 0.014145
vt 0.05349 0.01031
vt 0.051441 0.00816602
vt 0.047615 0.042987
vt 0.053492 0.046374
vt 0.05349 0.01031
vt 0.047589 0.014145
vt 0.053492 0.046374
vt 0.05148 0.048806
vt 0.05239 0.050402
vt 0.054936 0.047372
vt 0.05148 0.048806
vt 0.053492 0.046374
vt 0.047615 0.042987
vt 0.05148 0.048806
vt 0.042417 0.049214
vt 0.042805 0.050837
vt 0.05239 0.050402
vt 0.05148 0.048806
vt 0.047615 0.042987
vt 0.040469 0.043202
vt 0.042417 0.049214
vt 0.042417 0.049214
vt 0.040469 0.043202
vt 0.033278 0.04326
vt 0.033278 0.049351
vt 0.042417 0.049214
vt 0.033278 0.049351
vt 0.033278 0.050982
vt 0.042805 0.050837
vt 0.033278 0.049351
vt 0.024138 0.049214
vt 0.02375 0.050837
vt 0.033278 0.050982
vt 0.033278 0.049351
vt 0.033278 0.04326
vt 0.026086 0.043201
vt 0.024138 0.049214
vt 0.024138 0.049214
vt 0.015075 0.048806
vt 0.014165 0.050402
vt 0.02375 0.050837
vt 0.024138 0.049214
vt 0.026086 0.043201
vt 0.01894 0.042987
vt 0.015075 0.048806
vt 0.015075 0.048806
vt 0.013063 0.046374
vt 0.011619 0.047372
vt 0.014165 0.050402
vt 0.013063 0.046374
vt 0.015075 0.048806
vt 0.01894 0.042987
vt 0.013065 0.01031
vt 0.013063 0.046374
vt 0.01894 0.042987
vt 0.018966 0.014145
vt 0.011616 0.00957203
vt 0.011619 0.047372
vt 0.013063 0.046374
vt 0.013065 0.01031
vt 0.013065 0.01031
vt 0.018966 0.014145
vt 0.015114 0.00816602
vt 0.013065 0.01031
vt 0.015114 0.00816602
vt 0.014207 0.00689
vt 0.011616 0.00957203
vt 0.007421 0.000735998
vt 0.003298 0.00232899
vt 0.011616 0.00957203
vt 0.014207 0.00689
vt 0.001624 0.00640899
vt 0.001604 0.058801
vt 0.011619 0.047372
vt 0.011616 0.00957203
vt 0.003298 0.00232899
vt 0.001624 0.00640899
vt 0.011616 0.00957203
vt 0.022075 0.000769019
vt 0.007421 0.000735998
vt 0.014207 0.00689
vt 0.023792 0.00682902
vt 0.033278 0.006809
vt 0.033278 0.000769019
vt 0.022075 0.000769019
vt 0.023792 0.00682902
vt 0.042763 0.00682902
vt 0.04448 0.000769019
vt 0.033278 0.000769019
vt 0.033278 0.006809
vt 0.052348 0.00689
vt 0.059134 0.000735998
vt 0.04448 0.000769019
vt 0.042763 0.00682902
vt 0.033278 0.00809503
vt 0.042376 0.00811303
vt 0.042763 0.00682902
vt 0.033278 0.006809
vt 0.042376 0.00811303
vt 0.051441 0.00816602
vt 0.052348 0.00689
vt 0.042763 0.00682902
vt 0.047589 0.014145
vt 0.051441 0.00816602
vt 0.042376 0.00811303
vt 0.040449 0.01415
vt 0.040449 0.01415
vt 0.042376 0.00811303
vt 0.033278 0.00809503
vt 0.033278 0.014152
vt 0.047615 0.042987
vt 0.047589 0.014145
vt 0.040449 0.01415
vt 0.040469 0.043202
vt 0.040469 0.043202
vt 0.040449 0.01415
vt 0.033278 0.014152
vt 0.033278 0.04326
vt 0.033278 0.04326
vt 0.033278 0.014152
vt 0.026106 0.01415
vt 0.026086 0.043201
vt 0.033278 0.014152
vt 0.033278 0.00809503
vt 0.024179 0.00811303
vt 0.026106 0.01415
vt 0.026106 0.01415
vt 0.024179 0.00811303
vt 0.015114 0.00816602
vt 0.018966 0.014145
vt 0.026086 0.043201
vt 0.026106 0.01415
vt 0.018966 0.014145
vt 0.01894 0.042987
vt 0.024179 0.00811303
vt 0.033278 0.00809503
vt 0.033278 0.006809
vt 0.023792 0.00682902
vt 0.015114 0.00816602
vt 0.024179 0.00811303
vt 0.023792 0.00682902
vt 0.014207 0.00689
vt 0.001604 0.058801
vt 0.003226 0.06304
vt 0.014165 0.050402
vt 0.011619 0.047372
vt 0.003226 0.06304
vt 0.007363 0.064752
vt 0.014165 0.050402
vt 0.022075 0.064732
vt 0.007363 0.064752
vt 0.007032 0.066531
vt 0.022075 0.066545
vt 0.022075 0.064732
vt 0.022075 0.066545
vt 0.033278 0.066545
vt 0.033278 0.064732
vt 0.002087 0.064395
vt 0.007032 0.066531
vt 0.007363 0.064752
vt 0.003226 0.06304
vt 0 0.059354
vt 0.002087 0.064395
vt 0.003226 0.06304
vt 0.001604 0.058801
vt 1e-06 0.00698501
vt 0 0.059354
vt 0.001604 0.058801
vt 0.001624 0.00640899
vt 0.002096 0.00208402
vt 1e-06 0.00698501
vt 0.001624 0.00640899
vt 0.003298 0.00232899
vt 0.007045 1.29938e-05
vt 0.002096 0.00208402
vt 0.003298 0.00232899
vt 0.007421 0.000735998
vt 0.007045 1.29938e-05
vt 0.007421 0.000735998
vt 0.022075 0.000769019
vt 0.022075 0
vt 0.033278 0.000769019
vt 0.033278 0
vt 0.022075 0
vt 0.022075 0.000769019
vt 0.04448 0.000769019
vt 0.04448 0
vt 0.033278 0
vt 0.033278 0.000769019
vt 0.04448 0.000769019
vt 0.059134 0.000735998
vt 0.05951 1.29938e-05
vt 0.04448 0
vt 0.059134 0.000735998
vt 0.063257 0.00232899
vt 0.064459 0.00208402
vt 0.05951 1.29938e-05
vt 0.063257 0.00232899
vt 0.06493 0.00640899
vt 0.066554 0.00698501
vt 0.064459 0.00208402
vt 0.066554 0.00698501
vt 0.06493 0.00640899
vt 0.064951 0.058801
vt 0.066555 0.059354
vt 0.064467 0.064395
vt 0.066555 0.059354
vt 0.064951 0.058801
vt 0.063329 0.06304
vt 0.059523 0.066531
vt 0.064467 0.064395
vt 0.063329 0.06304
vt 0.059192 0.064752
vt 0.059523 0.066531
vt 0.059192 0.064752
vt 0.04448 0.064732
vt 0.04448 0.066545
vt 0.033278 0.064732
vt 0.033278 0.066545
vt 0.04448 0.066545
vt 0.04448 0.064732
s off
f 1/1/1 2/2/2 3/3/3
f 1/1/1 3/3/3 4/4/4
f 5/5/5 6/6/6 7/7/7
f 5/5/5 7/7/7 8/8/8
f 9/9/9 10/10/10 11/11/11
f 9/9/9 11/11/11 12/12/12
f 13/13/13 14/14/14 15/15/15
f 13/13/13 15/15/15 16/16/16
f 17/17/17 18/18/18 19/19/19
f 20/20/20 21/21/21 22/22/22
f 20/20/20 22/22/22 23/23/23
f 24/24/24 25/25/25 26/26/26
f 24/24/24 26/26/26 27/27/27
f 28/28/28 29/29/29 30/30/30
f 31/31/31 32/32/32 33/33/33
f 31/31/31 33/33/33 34/34/34
f 35/35/35 36/36/36 37/37/37
f 35/35/35 37/37/37 38/38/38
f 39/39/39 40/40/40 41/41/41
f 39/39/39 41/41/41 42/42/42
f 43/43/43 44/44/44 45/45/45
f 46/46/46 47/47/47 48/48/48
f 46/46/46 48/48/48 49/49/49
f 50/50/50 51/51/51 52/52/52
f 50/50/50 52/52/52 53/53/53
f 54/54/54 55/55/55 56/56/56
f 57/57/57 58/58/58 59/59/59
f 57/57/57 59/59/59 60/60/60
f 61/61/61 62/62/62 63/63/63
f 61/61/61 63/63/63 64/64/64
f 65/65/65 66/66/66 67/67/67
f 65/65/65 67/67/67 68/68/68
f 69/69/69 70/70/70 71/71/71
f 69/69/69 71/71/71 72/72/72
f 73/73/73 74/74/74 75/75/75
f 73/73/73 75/75/75 76/76/76
f 77/77/77 78/78/78 79/79/79
f 77/77/77 79/79/79 80/80/80
f 81/81/81 82/82/82 83/83/83
f 81/81/81 83/83/83 84/84/84
f 85/85/85 86/86/86 87/87/87
f 85/85/85 87/87/87 88/88/88
f 89/89/89 90/90/90 91/91/91
f 89/89/89 91/91/91 92/92/92
f 93/93/93 94/94/94 95/95/95
f 96/96/96 97/97/97 98/98/98
f 96/96/96 98/98/98 99/99/99
f 100/100/100 101/101/101 102/102/102
f 100/100/100 102/102/102 103/103/103
f 104/104/104 105/105/105 106/106/106
f 107/107/107 108/108/108 109/109/109
f 107/107/107 109/109/109 110/110/110
f 111/111/111 112/112/112 113/113/113
f 111/111/111 113/113/113 114/114/114
f 115/115/115 116/116/116 117/117/117
f 115/115/115 117/117/117 118/118/118
f 119/119/119 120/120/120 121/121/121
f 122/122/122 123/123/123 124/124/124
f 122/122/122 124/124/124 125/125/125
f 126/126/126 127/127/127 128/128/128
f 126/126/126 128/128/128 129/129/129
f 130/130/130 131/131/131 132/132/132
f 130/130/130 132/132/132 133/133/133
f 134/134/134 135/135/135 136/136/136
f 134/134/134 136/136/136 137/137/137
f 138/138/138 139/139/139 140/140/140
f 138/138/138 140/140/140 141/141/141
f 142/142/142 143/143/143 144/144/144
f 142/142/142 144/144/144 145/145/145
f 146/146/146 147/147/147 148/148/148
f 146/146/146 148/148/148 149/149/149
f 150/150/150 151/151/151 152/152/152
f 150/150/150 152/152/152 153/153/153
f 154/154/154 155/155/155 156/156/156
f 154/154/154 156/156/156 157/157/157
f 158/158/158 159/159/159 160/160/160
f 158/158/158 160/160/160 161/161/161
f 162/162/162 163/163/163 164/164/164
f 162/162/162 164/164/164 165/165/165
f 166/166/166 167/167/167 168/168/168
f 166/166/166 168/168/168 169/169/169
f 170/170/170 171/171/171 172/172/172
f 170/170/170 172/172/172 173/173/173
f 174/174/174 175/175/175 176/176/176
f 174/174/174 176/176/176 177/177/177
f 178/178/178 179/179/179 180/180/180
f 178/178/178 180/180/180 181/181/181
f 182/182/182 183/183/183 184/184/184
f 182/182/182 184/184/184 185/185/185
f 186/186/186 187/187/187 188/188/188
f 186/186/186 188/188/188 189/189/189
f 190/190/190 191/191/191 192/192/192
f 193/193/193 194/194/194 195/195/195
f 193/193/193 195/195/195 196/196/196
f 197/197/197 198/198/198 199/199/199
f 197/197/197 199/199/199 200/200/200
f 201/201/201 202/202/202 203/203/203
f 201/201/201 203/203/203 204/204/204
f 205/205/205 206/206/206 207/207/207
f 205/205/205 207/207/207 208/208/208
f 209/209/209 210/210/210 211/211/211
f 209/209/209 211/211/211 212/212/212
f 213/213/213 214/214/214 215/215/215
f 213/213/213 215/215/215 216/216/216
f 217/217/217 218/218/218 219/219/219
f 217/217/217 219/219/219 220/220/220
f 221/221/221 222/222/222 223/223/223
f 221/221/221 223/223/223 224/224/224
f 225/225/225 226/226/226 227/227/227
f 225/225/225 227/227/227 228/228/228
f 229/229/229 230/230/230 231/231/231
f 229/229/229 231/231/231 232/232/232
f 233/233/233 234/234/234 235/235/235
f 233/233/233 235/235/235 236/236/236
f 237/237/237 238/238/238 239/239/239
f 237/237/237 239/239/239 240/240/240
f 241/241/241 242/242/242 243/243/243
f 241/241/241 243/243/243 244/244/244
f 245/245/245 246/246/246 247/247/247
f 245/245/245 247/247/247 248/248/248
f 249/249/249 250/250/250 251/251/251
f 249/249/249 251/251/251 252/252/252
f 253/253/253 254/254/254 255/255/255
f 253/253/253 255/255/255 256/256/256
f 257/257/257 258/258/258 259/259/259
f 257/257/257 259/259/259 260/260/260
f 261/261/261 262/262/262 263/263/263
f 261/261/261 263/263/263 264/264/264
