v -0.316072 0.169075 -0.009849
v -0.312557 0.168651 -0.009849
v -0.312557 0.168751 -0.019847
v -0.312557 0.168781 -0.022815
v -0.316072 0.169281 -0.034454
v -0.316072 0.169075 -0.009849
v -0.316072 0.169075 -0.009849
v -0.312557 0.168751 -0.019847
v -0.312557 0.168781 -0.022815
v -0.300216 0.167628 -0.022815
v -0.312557 0.168781 -0.022815
v -0.312557 0.168751 -0.019847
v -0.300216 0.167598 -0.019847
v -0.316072 0.169281 -0.034454
v -0.312557 0.168781 -0.022815
v -0.312557 0.168868 -0.031407
v -0.298732 0.167675 -0.031407
v -0.316072 0.169281 -0.034454
v -0.312557 0.168868 -0.031407
v -0.298732 0.167675 -0.031407
v -0.298732 0.167719 -0.034454
v -0.316072 0.169281 -0.034454
vn 0.1197 0.9928 0.0099
vn 0.1197 0.9928 0.0099
vn 0.1197 0.9928 0.0099
vn 0.1138 0.9935 0.0083
vn 0.1138 0.9935 0.0083
vn 0.1138 0.9935 0.0083
vn 0.1203 0.9927 0.0101
vn 0.1203 0.9927 0.0101
vn 0.1203 0.9927 0.0101
vn 0.093 0.9956 0.0101
vn 0.093 0.9956 0.0101
vn 0.093 0.9956 0.0101
vn 0.093 0.9956 0.0101
vn 0.1079 0.9941 0.0101
vn 0.1079 0.9941 0.0101
vn 0.1079 0.9941 0.0101
vn 0.0859 0.9957 0.0357
vn 0.0859 0.9957 0.0357
vn 0.0859 0.9957 0.0357
vn 0.0897 0.9959 0.0143
vn 0.0897 0.9959 0.0143
vn 0.0897 0.9959 0.0143
vt 0.334897 0.51215
vt 0.336733 0.51215
vt 0.336733 0.506928
vt 0.336733 0.505377
vt 0.334897 0.499298
vt 0.334897 0.51215
vt 0.334897 0.51215
vt 0.336733 0.506928
vt 0.336733 0.505377
vt 0.34318 0.505377
vt 0.336733 0.505377
vt 0.336733 0.506928
vt 0.34318 0.506928
vt 0.334897 0.499298
vt 0.336733 0.505377
vt 0.336733 0.500889
vt 0.343955 0.500889
vt 0.334897 0.499298
vt 0.336733 0.500889
vt 0.343955 0.500889
vt 0.343955 0.499298
vt 0.334897 0.499298
s off
f 1/1/1 2/2/2 3/3/3
f 4/4/4 5/5/5 6/6/6
f 7/7/7 8/8/8 9/9/9
f 10/10/10 11/11/11 12/12/12
f 10/10/10 12/12/12 13/13/13
f 14/14/14 15/15/15 16/16/16
f 17/17/17 18/18/18 19/19/19
f 20/20/20 21/21/21 22/22/22
