v 0.587479 0.154826 0.201454
v 0.585286 0.11989 0.193694
v 0.55801 0.11989 0.193694
v 0.55801 0.153986 0.201303
v 0.61685 0.157414 0.20192
v 0.623117 0.11989 0.193694
v 0.585286 0.11989 0.193694
v 0.587479 0.154826 0.201454
v 0.55801 0.153986 0.201303
v 0.55801 0.11989 0.193694
v 0.530734 0.11989 0.193694
v 0.52854 0.154826 0.201454
v 0.530734 0.11989 0.193694
v 0.492903 0.11989 0.193694
v 0.499169 0.157414 0.20192
v 0.52854 0.154826 0.201454
v 0.492903 0.11989 0.193694
v 0.483702 0.119768 0.19743
v 0.493458 0.15937 0.208605
v 0.499169 0.157414 0.20192
v 0.497329 0.162022 0.20989
v 0.502541 0.160453 0.205182
v 0.499169 0.157414 0.20192
v 0.493458 0.15937 0.208605
v 0.52854 0.154826 0.201454
v 0.499169 0.157414 0.20192
v 0.502541 0.160453 0.205182
v 0.530228 0.158016 0.204786
v 0.536849 0.159073 0.217936
v 0.530228 0.158016 0.204786
v 0.502541 0.160453 0.205182
v 0.515544 0.160783 0.216988
v 0.497329 0.162022 0.20989
v 0.515544 0.160783 0.216988
v 0.502541 0.160453 0.205182
v 0.515544 0.160783 0.216988
v 0.515453 0.165825 0.25044
v 0.536692 0.163657 0.250731
v 0.536849 0.159073 0.217936
v 0.515544 0.160783 0.216988
v 0.497329 0.162022 0.20989
v 0.497318 0.168953 0.249915
v 0.515453 0.165825 0.25044
v 0.536761 0.169072 0.283399
v 0.536692 0.163657 0.250731
v 0.515453 0.165825 0.25044
v 0.515392 0.171592 0.283766
v 0.497318 0.168953 0.249915
v 0.497301 0.176145 0.29083
v 0.515392 0.171592 0.283766
v 0.515453 0.165825 0.25044
v 0.493628 0.166616 0.250173
v 0.49375 0.174045 0.292576
v 0.497301 0.176145 0.29083
v 0.497318 0.168953 0.249915
v 0.493458 0.15937 0.208605
v 0.493628 0.166616 0.250173
v 0.497318 0.168953 0.249915
v 0.497329 0.162022 0.20989
v 0.502435 0.175708 0.294866
v 0.497301 0.176145 0.29083
v 0.49375 0.174045 0.292576
v 0.49919 0.173803 0.298354
v 0.497301 0.176145 0.29083
v 0.502435 0.175708 0.294866
v 0.515392 0.171592 0.283766
v 0.530113 0.172171 0.296181
v 0.502435 0.175708 0.294866
v 0.49919 0.173803 0.298354
v 0.52848 0.169969 0.299793
v 0.530113 0.172171 0.296181
v 0.536761 0.169072 0.283399
v 0.515392 0.171592 0.283766
v 0.502435 0.175708 0.294866
v 0.55801 0.171042 0.296597
v 0.530113 0.172171 0.296181
v 0.52848 0.169969 0.299793
v 0.55801 0.168716 0.300263
v 0.55801 0.171042 0.296597
v 0.55801 0.168335 0.283193
v 0.536761 0.169072 0.283399
v 0.530113 0.172171 0.296181
v 0.55801 0.168335 0.283193
v 0.55801 0.162553 0.250884
v 0.536692 0.163657 0.250731
v 0.536761 0.169072 0.283399
v 0.585906 0.172171 0.296181
v 0.579258 0.169072 0.283399
v 0.55801 0.168335 0.283193
v 0.55801 0.171042 0.296597
v 0.579258 0.169072 0.283399
v 0.579327 0.163657 0.250731
v 0.55801 0.162553 0.250884
v 0.55801 0.168335 0.283193
v 0.600627 0.171592 0.283766
v 0.600566 0.165825 0.25044
v 0.579327 0.163657 0.250731
v 0.579258 0.169072 0.283399
v 0.613584 0.175708 0.294866
v 0.600627 0.171592 0.283766
v 0.579258 0.169072 0.283399
v 0.585906 0.172171 0.296181
v 0.585906 0.172171 0.296181
v 0.55801 0.171042 0.296597
v 0.55801 0.168716 0.300263
v 0.58754 0.169969 0.299793
v 0.613584 0.175708 0.294866
v 0.585906 0.172171 0.296181
v 0.58754 0.169969 0.299793
v 0.616829 0.173803 0.298354
v 0.618718 0.176145 0.290831
v 0.613584 0.175708 0.294866
v 0.616829 0.173803 0.298354
v 0.622269 0.174045 0.292576
v 0.613584 0.175708 0.294866
v 0.618718 0.176145 0.290831
v 0.600627 0.171592 0.283766
v 0.622269 0.174045 0.292576
v 0.622392 0.166613 0.250153
v 0.618701 0.168953 0.249915
v 0.618718 0.176145 0.290831
v 0.600627 0.171592 0.283766
v 0.618718 0.176145 0.290831
v 0.618701 0.168953 0.249915
v 0.600566 0.165825 0.25044
v 0.61869 0.162022 0.20989
v 0.600475 0.160783 0.216988
v 0.600566 0.165825 0.25044
v 0.618701 0.168953 0.249915
v 0.622392 0.166613 0.250153
v 0.622561 0.15937 0.208605
v 0.61869 0.162022 0.20989
v 0.618701 0.168953 0.249915
v 0.613478 0.160453 0.205182
v 0.61869 0.162022 0.20989
v 0.622561 0.15937 0.208605
v 0.61685 0.157414 0.20192
v 0.600475 0.160783 0.216988
v 0.61869 0.162022 0.20989
v 0.613478 0.160453 0.205182
v 0.61685 0.157414 0.20192
v 0.587479 0.154826 0.201454
v 0.585791 0.158016 0.204786
v 0.613478 0.160453 0.205182
v 0.600475 0.160783 0.216988
v 0.613478 0.160453 0.205182
v 0.585791 0.158016 0.204786
v 0.57917 0.159073 0.217936
v 0.57917 0.159073 0.217936
v 0.585791 0.158016 0.204786
v 0.55801 0.15724 0.204665
v 0.55801 0.158587 0.218302
v 0.587479 0.154826 0.201454
v 0.55801 0.153986 0.201303
v 0.55801 0.15724 0.204665
v 0.585791 0.158016 0.204786
v 0.55801 0.153986 0.201303
v 0.52854 0.154826 0.201454
v 0.530228 0.158016 0.204786
v 0.55801 0.15724 0.204665
v 0.55801 0.158587 0.218302
v 0.55801 0.15724 0.204665
v 0.530228 0.158016 0.204786
v 0.536849 0.159073 0.217936
v 0.55801 0.158587 0.218302
v 0.55801 0.162553 0.250884
v 0.579327 0.163657 0.250731
v 0.57917 0.159073 0.217936
v 0.536849 0.159073 0.217936
v 0.536692 0.163657 0.250731
v 0.55801 0.162553 0.250884
v 0.55801 0.158587 0.218302
v 0.57917 0.159073 0.217936
v 0.579327 0.163657 0.250731
v 0.600566 0.165825 0.25044
v 0.600475 0.160783 0.216988
v 0.623117 0.11989 0.193694
v 0.61685 0.157414 0.20192
v 0.622561 0.15937 0.208605
v 0.632317 0.119768 0.19743
v 0.632317 0.119768 0.19743
v 0.622561 0.15937 0.208605
v 0.636129 0.119473 0.206449
v 0.636129 0.119473 0.206449
v 0.622561 0.15937 0.208605
v 0.622392 0.166613 0.250153
v 0.636129 0.117866 0.255673
v 0.622269 0.174045 0.292576
v 0.636129 0.116245 0.30534
v 0.636129 0.117866 0.255673
v 0.622392 0.166613 0.250153
v 0.632374 0.115943 0.314574
v 0.636129 0.116245 0.30534
v 0.622269 0.174045 0.292576
v 0.616829 0.173803 0.298354
v 0.62331 0.115818 0.318399
v 0.632374 0.115943 0.314574
v 0.616829 0.173803 0.298354
v 0.59066 0.115818 0.318399
v 0.62331 0.115818 0.318399
v 0.616829 0.173803 0.298354
v 0.58754 0.169969 0.299793
v 0.55801 0.168716 0.300263
v 0.55801 0.115818 0.318399
v 0.59066 0.115818 0.318399
v 0.58754 0.169969 0.299793
v 0.52848 0.169969 0.299793
v 0.525359 0.115818 0.318399
v 0.55801 0.115818 0.318399
v 0.55801 0.168716 0.300263
v 0.49919 0.173803 0.298354
v 0.492709 0.115818 0.318399
v 0.525359 0.115818 0.318399
v 0.52848 0.169969 0.299793
v 0.483645 0.115943 0.314574
v 0.492709 0.115818 0.318399
v 0.49919 0.173803 0.298354
v 0.479891 0.116245 0.30534
v 0.483645 0.115943 0.314574
v 0.49919 0.173803 0.298354
v 0.49375 0.174045 0.292576
v 0.479891 0.117854 0.256047
v 0.479891 0.116245 0.30534
v 0.49375 0.174045 0.292576
v 0.493628 0.166616 0.250173
v 0.493458 0.15937 0.208605
v 0.479891 0.119473 0.206449
v 0.479891 0.117854 0.256047
v 0.493628 0.166616 0.250173
v 0.483702 0.119768 0.19743
v 0.479891 0.119473 0.206449
v 0.493458 0.15937 0.208605
v 0.585286 0.11989 0.193694
v 0.623117 0.11989 0.193694
v 0.62313 0.109359 0.193351
v 0.585286 0.109359 0.193351
v 0.585286 0.11989 0.193694
v 0.585286 0.109359 0.193351
v 0.55801 0.109359 0.193351
v 0.55801 0.11989 0.193694
v 0.62313 0.109359 0.193351
v 0.623117 0.11989 0.193694
v 0.632317 0.119768 0.19743
v 0.632321 0.109237 0.197085
v 0.632321 0.109237 0.197085
v 0.632317 0.119768 0.19743
v 0.636129 0.119473 0.206449
v 0.636129 0.108943 0.206102
v 0.636129 0.108943 0.206102
v 0.636129 0.119473 0.206449
v 0.636129 0.117866 0.255673
v 0.636129 0.107323 0.255703
v 0.636129 0.117866 0.255673
v 0.636129 0.116245 0.30534
v 0.636129 0.105714 0.305011
v 0.636129 0.107323 0.255703
v 0.632374 0.115943 0.314574
v 0.632376 0.105413 0.314235
v 0.636129 0.105714 0.305011
v 0.636129 0.116245 0.30534
v 0.62331 0.115818 0.318399
v 0.623316 0.105288 0.318055
v 0.632376 0.105413 0.314235
v 0.632374 0.115943 0.314574
v 0.623316 0.105288 0.318055
v 0.62331 0.115818 0.318399
v 0.59066 0.115818 0.318399
v 0.590663 0.105288 0.318055
v 0.55801 0.115818 0.318399
v 0.55801 0.105288 0.318055
v 0.590663 0.105288 0.318055
v 0.59066 0.115818 0.318399
v 0.525359 0.115818 0.318399
v 0.525356 0.105288 0.318055
v 0.55801 0.105288 0.318055
v 0.55801 0.115818 0.318399
v 0.525359 0.115818 0.318399
v 0.492709 0.115818 0.318399
v 0.492703 0.105288 0.318055
v 0.525356 0.105288 0.318055
v 0.483645 0.115943 0.314574
v 0.483644 0.105413 0.314235
v 0.492703 0.105288 0.318055
v 0.492709 0.115818 0.318399
v 0.479891 0.116245 0.30534
v 0.479891 0.105714 0.305011
v 0.483644 0.105413 0.314235
v 0.483645 0.115943 0.314574
v 0.479891 0.117854 0.256047
v 0.479891 0.107323 0.255703
v 0.479891 0.105714 0.305011
v 0.479891 0.116245 0.30534
v 0.479891 0.107323 0.255703
v 0.479891 0.117854 0.256047
v 0.479891 0.119473 0.206449
v 0.479891 0.108943 0.206102
v 0.483702 0.119768 0.19743
v 0.483698 0.109237 0.197085
v 0.479891 0.108943 0.206102
v 0.479891 0.119473 0.206449
v 0.492903 0.11989 0.193694
v 0.49289 0.109359 0.193351
v 0.483698 0.109237 0.197085
v 0.483702 0.119768 0.19743
v 0.49289 0.109359 0.193351
v 0.492903 0.11989 0.193694
v 0.530734 0.11989 0.193694
v 0.530734 0.109359 0.193351
v 0.55801 0.11989 0.193694
v 0.55801 0.109359 0.193351
v 0.530734 0.109359 0.193351
v 0.530734 0.11989 0.193694
vn -0.0012 0.2164 -0.9763
vn -0.0011 0.2164 -0.9763
vn -0 0.2173 -0.9761
vn -0.0001 0.2174 -0.9761
vn -0.0015 0.2154 -0.9765
vn -0.0015 0.2154 -0.9765
vn -0.0011 0.2164 -0.9763
vn -0.0012 0.2164 -0.9763
vn -0.0001 0.2174 -0.9761
vn -0 0.2173 -0.9761
vn 0.0011 0.2164 -0.9763
vn 0.0011 0.2164 -0.9763
vn 0.0011 0.2164 -0.9763
vn 0.0014 0.2154 -0.9765
vn 0.0014 0.2154 -0.9765
vn 0.0011 0.2164 -0.9763
vn 0.0014 0.2154 -0.9765
vn -0.6721 0.3238 -0.666
vn -0.9558 0.2937 -0.0163
vn 0.0014 0.2154 -0.9765
vn 0.1428 0.9756 -0.167
vn 0.1192 0.98 -0.1593
vn 0.0014 0.2154 -0.9765
vn -0.9558 0.2937 -0.0163
vn 0.0011 0.2164 -0.9763
vn 0.0014 0.2154 -0.9765
vn 0.1192 0.98 -0.1593
vn 0.0642 0.9915 -0.1129
vn 0.0566 0.9911 -0.1206
vn 0.0642 0.9915 -0.1129
vn 0.1192 0.98 -0.1593
vn 0.1103 0.9838 -0.1416
vn 0.1428 0.9756 -0.167
vn 0.1103 0.9838 -0.1416
vn 0.1192 0.98 -0.1593
vn 0.1103 0.9838 -0.1416
vn 0.1319 0.9784 -0.1593
vn 0.0707 0.9858 -0.1521
vn 0.0566 0.9911 -0.1206
vn 0.1103 0.9838 -0.1416
vn 0.1428 0.9756 -0.167
vn 0.1625 0.9726 -0.1664
vn 0.1319 0.9784 -0.1593
vn 0.0715 0.9801 -0.185
vn 0.0707 0.9858 -0.1521
vn 0.1319 0.9784 -0.1593
vn 0.1396 0.9745 -0.1759
vn 0.1625 0.9726 -0.1664
vn 0.1824 0.971 -0.1544
vn 0.1396 0.9745 -0.1759
vn 0.1319 0.9784 -0.1593
vn -0.9626 0.2704 -0.0154
vn -0.9686 0.2483 -0.0145
vn 0.1824 0.971 -0.1544
vn 0.1625 0.9726 -0.1664
vn -0.9558 0.2937 -0.0163
vn -0.9626 0.2704 -0.0154
vn 0.1625 0.9726 -0.1664
vn 0.1428 0.9756 -0.167
vn 0.171 0.9732 -0.1538
vn 0.1824 0.971 -0.1544
vn -0.9686 0.2483 -0.0145
vn -0.0018 0.326 0.9454
vn 0.1824 0.971 -0.1544
vn 0.171 0.9732 -0.1538
vn 0.1396 0.9745 -0.1759
vn 0.0936 0.9758 -0.1975
vn 0.171 0.9732 -0.1538
vn -0.0018 0.326 0.9454
vn -0.0013 0.3254 0.9456
vn 0.0936 0.9758 -0.1975
vn 0.0715 0.9801 -0.185
vn 0.1396 0.9745 -0.1759
vn 0.171 0.9732 -0.1538
vn -0 0.9784 -0.207
vn 0.0936 0.9758 -0.1975
vn -0.0013 0.3254 0.9456
vn -0 0.3248 0.9458
vn -0 0.9784 -0.207
vn -0 0.9821 -0.1884
vn 0.0715 0.9801 -0.185
vn 0.0936 0.9758 -0.1975
vn -0 0.9821 -0.1884
vn -0 0.9887 -0.1498
vn 0.0707 0.9858 -0.1521
vn 0.0715 0.9801 -0.185
vn -0.0935 0.9758 -0.1975
vn -0.0715 0.9801 -0.185
vn -0 0.9821 -0.1884
vn -0 0.9784 -0.207
vn -0.0715 0.9801 -0.185
vn -0.0707 0.9858 -0.1521
vn -0 0.9887 -0.1498
vn -0 0.9821 -0.1884
vn -0.1396 0.9745 -0.1759
vn -0.1319 0.9784 -0.1593
vn -0.0707 0.9858 -0.1521
vn -0.0715 0.9801 -0.185
vn -0.171 0.9732 -0.1538
vn -0.1396 0.9745 -0.1759
vn -0.0715 0.9801 -0.185
vn -0.0935 0.9758 -0.1975
vn -0.0935 0.9758 -0.1975
vn -0 0.9784 -0.207
vn -0 0.3248 0.9458
vn 0.0012 0.3255 0.9456
vn -0.171 0.9732 -0.1538
vn -0.0935 0.9758 -0.1975
vn 0.0012 0.3255 0.9456
vn 0.0018 0.326 0.9454
vn -0.1825 0.971 -0.1543
vn -0.171 0.9732 -0.1538
vn 0.0018 0.326 0.9454
vn 0.9685 0.2484 -0.0144
vn -0.171 0.9732 -0.1538
vn -0.1825 0.971 -0.1543
vn -0.1396 0.9745 -0.1759
vn 0.9685 0.2484 -0.0144
vn 0.9626 0.2704 -0.0154
vn -0.1625 0.973 -0.164
vn -0.1825 0.971 -0.1543
vn -0.1396 0.9745 -0.1759
vn -0.1825 0.971 -0.1543
vn -0.1625 0.973 -0.164
vn -0.1319 0.9784 -0.1593
vn -0.1412 0.9765 -0.1627
vn -0.1103 0.9838 -0.1416
vn -0.1319 0.9784 -0.1593
vn -0.1625 0.973 -0.164
vn 0.9626 0.2704 -0.0154
vn 0.9557 0.2938 -0.0164
vn -0.1412 0.9765 -0.1627
vn -0.1625 0.973 -0.164
vn -0.1192 0.98 -0.1593
vn -0.1412 0.9765 -0.1627
vn 0.9557 0.2938 -0.0164
vn -0.0015 0.2154 -0.9765
vn -0.1103 0.9838 -0.1416
vn -0.1412 0.9765 -0.1627
vn -0.1192 0.98 -0.1593
vn -0.0015 0.2154 -0.9765
vn -0.0012 0.2164 -0.9763
vn -0.0641 0.9915 -0.1129
vn -0.1192 0.98 -0.1593
vn -0.1103 0.9838 -0.1416
vn -0.1192 0.98 -0.1593
vn -0.0641 0.9915 -0.1129
vn -0.0566 0.9911 -0.1206
vn -0.0566 0.9911 -0.1206
vn -0.0641 0.9915 -0.1129
vn -0 0.9954 -0.0961
vn -0 0.9936 -0.1129
vn -0.0012 0.2164 -0.9763
vn -0.0001 0.2174 -0.9761
vn -0 0.9954 -0.0961
vn -0.0641 0.9915 -0.1129
vn -0.0001 0.2174 -0.9761
vn 0.0011 0.2164 -0.9763
vn 0.0642 0.9915 -0.1129
vn -0 0.9954 -0.0961
vn -0 0.9936 -0.1129
vn -0 0.9954 -0.0961
vn 0.0642 0.9915 -0.1129
vn 0.0566 0.9911 -0.1206
vn -0 0.9936 -0.1129
vn -0 0.9887 -0.1498
vn -0.0707 0.9858 -0.1521
vn -0.0566 0.9911 -0.1206
vn 0.0566 0.9911 -0.1206
vn 0.0707 0.9858 -0.1521
vn -0 0.9887 -0.1498
vn -0 0.9936 -0.1129
vn -0.0566 0.9911 -0.1206
vn -0.0707 0.9858 -0.1521
vn -0.1319 0.9784 -0.1593
vn -0.1103 0.9838 -0.1416
vn -0.0015 0.2154 -0.9765
vn -0.0015 0.2154 -0.9765
vn 0.9557 0.2938 -0.0164
vn 0.6721 0.3238 -0.666
vn 0.6721 0.3238 -0.666
vn 0.9557 0.2938 -0.0164
vn 0.9557 0.2938 -0.0165
vn 0.9557 0.2938 -0.0165
vn 0.9557 0.2938 -0.0164
vn 0.9626 0.2704 -0.0154
vn 0.963 0.2691 -0.0153
vn 0.9685 0.2484 -0.0144
vn 0.9685 0.2484 -0.0143
vn 0.963 0.2691 -0.0153
vn 0.9626 0.2704 -0.0154
vn 0.6674 0.3465 0.6591
vn 0.9685 0.2484 -0.0143
vn 0.9685 0.2484 -0.0144
vn 0.0018 0.326 0.9454
vn 0.0019 0.326 0.9454
vn 0.6674 0.3465 0.6591
vn 0.0018 0.326 0.9454
vn 0.0012 0.3253 0.9456
vn 0.0019 0.326 0.9454
vn 0.0018 0.326 0.9454
vn 0.0012 0.3255 0.9456
vn -0 0.3248 0.9458
vn -0 0.3246 0.9458
vn 0.0012 0.3253 0.9456
vn 0.0012 0.3255 0.9456
vn -0.0013 0.3254 0.9456
vn -0.0012 0.3253 0.9456
vn -0 0.3246 0.9458
vn -0 0.3248 0.9458
vn -0.0018 0.326 0.9454
vn -0.0019 0.326 0.9454
vn -0.0012 0.3253 0.9456
vn -0.0013 0.3254 0.9456
vn -0.6674 0.3465 0.6591
vn -0.0019 0.326 0.9454
vn -0.0018 0.326 0.9454
vn -0.9686 0.2483 -0.0144
vn -0.6674 0.3465 0.6591
vn -0.0018 0.326 0.9454
vn -0.9686 0.2483 -0.0145
vn -0.963 0.2689 -0.0153
vn -0.9686 0.2483 -0.0144
vn -0.9686 0.2483 -0.0145
vn -0.9626 0.2704 -0.0154
vn -0.9558 0.2937 -0.0163
vn -0.9558 0.2937 -0.0164
vn -0.963 0.2689 -0.0153
vn -0.9626 0.2704 -0.0154
vn -0.6721 0.3238 -0.666
vn -0.9558 0.2937 -0.0164
vn -0.9558 0.2937 -0.0163
vn -0 0.0326 -0.9995
vn 0.0001 0.0325 -0.9995
vn 0.0001 0.0328 -0.9995
vn -0 0.0326 -0.9995
vn -0 0.0326 -0.9995
vn -0 0.0326 -0.9995
vn -0 0.0326 -0.9995
vn -0 0.0326 -0.9995
vn 0.0001 0.0328 -0.9995
vn 0.0001 0.0325 -0.9995
vn 0.7004 0.0236 -0.7133
vn 0.7003 0.0236 -0.7134
vn 0.7003 0.0236 -0.7134
vn 0.7004 0.0236 -0.7133
vn 1 0.0001 -0.0001
vn 1 0.0001 -0.0001
vn 1 0.0001 -0.0001
vn 1 0.0001 -0.0001
vn 1 -0 -0
vn 1 -0 -0
vn 1 -0 -0
vn 1 -0 0.0001
vn 1 0.0002 0.0001
vn 1 -0 -0
vn 0.7137 -0.0224 0.7
vn 0.7138 -0.0224 0.7
vn 1 0.0002 0.0001
vn 1 -0 0.0001
vn 0.0001 -0.0325 0.9995
vn 0.0001 -0.0326 0.9995
vn 0.7138 -0.0224 0.7
vn 0.7137 -0.0224 0.7
vn 0.0001 -0.0326 0.9995
vn 0.0001 -0.0325 0.9995
vn -0 -0.0326 0.9995
vn -0 -0.0326 0.9995
vn -0 -0.0326 0.9995
vn -0 -0.0326 0.9995
vn -0 -0.0326 0.9995
vn -0 -0.0326 0.9995
vn -0 -0.0326 0.9995
vn -0 -0.0326 0.9995
vn -0 -0.0326 0.9995
vn -0 -0.0326 0.9995
vn -0 -0.0326 0.9995
vn -0.0001 -0.0327 0.9995
vn -0.0001 -0.0325 0.9995
vn -0 -0.0326 0.9995
vn -0.7137 -0.0224 0.7
vn -0.7137 -0.0224 0.7001
vn -0.0001 -0.0325 0.9995
vn -0.0001 -0.0327 0.9995
vn -1 0.0002 0.0001
vn -1 -0 0.0001
vn -0.7137 -0.0224 0.7001
vn -0.7137 -0.0224 0.7
vn -1 -0 -0
vn -1 -0 -0
vn -1 -0 0.0001
vn -1 0.0002 0.0001
vn -1 -0 -0
vn -1 -0 -0
vn -1 -0 -0.0001
vn -1 0.0001 -0.0001
vn -0.7003 0.0236 -0.7134
vn -0.7004 0.0236 -0.7134
vn -1 0.0001 -0.0001
vn -1 -0 -0.0001
vn -0.0001 0.0328 -0.9995
vn -0.0001 0.0326 -0.9995
vn -0.7004 0.0236 -0.7134
vn -0.7003 0.0236 -0.7134
vn -0.0001 0.0326 -0.9995
vn -0.0001 0.0328 -0.9995
vn -0 0.0326 -0.9995
vn -0 0.0326 -0.9995
vn -0 0.0326 -0.9995
vn -0 0.0326 -0.9995
vn -0 0.0326 -0.9995
vn -0 0.0326 -0.9995
vt 0.804661 0.275363
vt 0.805729 0.268577
vt 0.791481 0.268577
vt 0.791481 0.275296
vt 0.817797 0.275572
vt 0.825258 0.268543
vt 0.805729 0.268577
vt 0.804661 0.275363
vt 0.791481 0.275296
vt 0.791481 0.268577
vt 0.777233 0.268577
vt 0.778301 0.275363
vt 0.777233 0.268577
vt 0.757704 0.268543
vt 0.765166 0.275572
vt 0.778301 0.275363
vt 0.757704 0.268543
vt 0.753355 0.270216
vt 0.762611 0.278561
vt 0.765166 0.275572
vt 0.764342 0.279136
vt 0.766674 0.277031
vt 0.765166 0.275572
vt 0.762611 0.278561
vt 0.778301 0.275363
vt 0.765166 0.275572
vt 0.766674 0.277031
vt 0.779056 0.276854
vt 0.782017 0.282735
vt 0.779056 0.276854
vt 0.766674 0.277031
vt 0.772489 0.282311
vt 0.764342 0.279136
vt 0.772489 0.282311
vt 0.766674 0.277031
vt 0.772489 0.282311
vt 0.772448 0.297272
vt 0.781947 0.297402
vt 0.782017 0.282735
vt 0.772489 0.282311
vt 0.764342 0.279136
vt 0.764338 0.297037
vt 0.772448 0.297272
vt 0.781978 0.312012
vt 0.781947 0.297402
vt 0.772448 0.297272
vt 0.772421 0.312176
vt 0.764338 0.297037
vt 0.76433 0.315336
vt 0.772421 0.312176
vt 0.772448 0.297272
vt 0.762687 0.297152
vt 0.762742 0.316117
vt 0.76433 0.315336
vt 0.764338 0.297037
vt 0.762611 0.278561
vt 0.762687 0.297152
vt 0.764338 0.297037
vt 0.764342 0.279136
vt 0.766626 0.317141
vt 0.76433 0.315336
vt 0.762742 0.316117
vt 0.765175 0.318701
vt 0.76433 0.315336
vt 0.766626 0.317141
vt 0.772421 0.312176
vt 0.779005 0.317729
vt 0.766626 0.317141
vt 0.765175 0.318701
vt 0.778274 0.319344
vt 0.779005 0.317729
vt 0.781978 0.312012
vt 0.772421 0.312176
vt 0.766626 0.317141
vt 0.791481 0.317915
vt 0.779005 0.317729
vt 0.778274 0.319344
vt 0.791481 0.319555
vt 0.791481 0.317915
vt 0.791481 0.31192
vt 0.781978 0.312012
vt 0.779005 0.317729
vt 0.791481 0.31192
vt 0.791481 0.29747
vt 0.781947 0.297402
vt 0.781978 0.312012
vt 0.803958 0.317729
vt 0.800984 0.312012
vt 0.791481 0.31192
vt 0.791481 0.317915
vt 0.800984 0.312012
vt 0.801015 0.297402
vt 0.791481 0.29747
vt 0.791481 0.31192
vt 0.810541 0.312176
vt 0.810514 0.297272
vt 0.801015 0.297402
vt 0.800984 0.312012
vt 0.816336 0.317141
vt 0.810541 0.312176
vt 0.800984 0.312012
vt 0.803958 0.317729
vt 0.803958 0.317729
vt 0.791481 0.317915
vt 0.791481 0.319555
vt 0.804688 0.319344
vt 0.816336 0.317141
vt 0.803958 0.317729
vt 0.804688 0.319344
vt 0.817787 0.318701
vt 0.818632 0.315336
vt 0.816336 0.317141
vt 0.817787 0.318701
vt 0.820221 0.316117
vt 0.816336 0.317141
vt 0.818632 0.315336
vt 0.810541 0.312176
vt 0.820221 0.316117
vt 0.820275 0.297143
vt 0.818625 0.297037
vt 0.818632 0.315336
vt 0.810541 0.312176
vt 0.818632 0.315336
vt 0.818625 0.297037
vt 0.810514 0.297272
vt 0.81862 0.279136
vt 0.810473 0.282311
vt 0.810514 0.297272
vt 0.818625 0.297037
vt 0.820275 0.297143
vt 0.820351 0.278561
vt 0.81862 0.279136
vt 0.818625 0.297037
vt 0.816289 0.277031
vt 0.81862 0.279136
vt 0.820351 0.278561
vt 0.817797 0.275572
vt 0.810473 0.282311
vt 0.81862 0.279136
vt 0.816289 0.277031
vt 0.817797 0.275572
vt 0.804661 0.275363
vt 0.803906 0.276854
vt 0.816289 0.277031
vt 0.810473 0.282311
vt 0.816289 0.277031
vt 0.803906 0.276854
vt 0.800945 0.282735
vt 0.800945 0.282735
vt 0.803906 0.276854
vt 0.791481 0.276799
vt 0.791481 0.282898
vt 0.804661 0.275363
vt 0.791481 0.275296
vt 0.791481 0.276799
vt 0.803906 0.276854
vt 0.791481 0.275296
vt 0.778301 0.275363
vt 0.779056 0.276854
vt 0.791481 0.276799
vt 0.791481 0.282898
vt 0.791481 0.276799
vt 0.779056 0.276854
vt 0.782017 0.282735
vt 0.791481 0.282898
vt 0.791481 0.29747
vt 0.801015 0.297402
vt 0.800945 0.282735
vt 0.782017 0.282735
vt 0.781947 0.297402
vt 0.791481 0.29747
vt 0.791481 0.282898
vt 0.800945 0.282735
vt 0.801015 0.297402
vt 0.810514 0.297272
vt 0.810473 0.282311
vt 0.825258 0.268543
vt 0.817797 0.275572
vt 0.820351 0.278561
vt 0.829607 0.270216
vt 0.829607 0.270216
vt 0.820351 0.278561
vt 0.831365 0.274477
vt 0.831365 0.274477
vt 0.820351 0.278561
vt 0.820275 0.297143
vt 0.831342 0.300011
vt 0.820221 0.316117
vt 0.831374 0.325716
vt 0.831342 0.300011
vt 0.820275 0.297143
vt 0.829688 0.330083
vt 0.831374 0.325716
vt 0.820221 0.316117
vt 0.817787 0.318701
vt 0.825403 0.331848
vt 0.829688 0.330083
vt 0.817787 0.318701
vt 0.808536 0.331828
vt 0.825403 0.331848
vt 0.817787 0.318701
vt 0.804688 0.319344
vt 0.791481 0.319555
vt 0.791481 0.331828
vt 0.808536 0.331828
vt 0.804688 0.319344
vt 0.778274 0.319344
vt 0.774427 0.331828
vt 0.791481 0.331828
vt 0.791481 0.319555
vt 0.765175 0.318701
vt 0.757559 0.331848
vt 0.774427 0.331828
vt 0.778274 0.319344
vt 0.753274 0.330083
vt 0.757559 0.331848
vt 0.765175 0.318701
vt 0.751589 0.325716
vt 0.753274 0.330083
vt 0.765175 0.318701
vt 0.762742 0.316117
vt 0.751621 0.300206
vt 0.751589 0.325716
vt 0.762742 0.316117
vt 0.762687 0.297152
vt 0.762611 0.278561
vt 0.751598 0.274477
vt 0.751621 0.300206
vt 0.762687 0.297152
vt 0.753355 0.270216
vt 0.751598 0.274477
vt 0.762611 0.278561
vt 0.805729 0.268577
vt 0.825258 0.268543
vt 0.825632 0.266761
vt 0.805729 0.266748
vt 0.805729 0.268577
vt 0.805729 0.266748
vt 0.791481 0.266748
vt 0.791481 0.268577
vt 0.825632 0.266761
vt 0.825258 0.268543
vt 0.829607 0.270216
vt 0.830792 0.268902
vt 0.830792 0.268902
vt 0.829607 0.270216
vt 0.831365 0.274477
vt 0.832976 0.273972
vt 0.832976 0.273972
vt 0.831365 0.274477
vt 0.831342 0.300011
vt 0.83299 0.300021
vt 0.831342 0.300011
vt 0.831374 0.325716
vt 0.832977 0.325912
vt 0.83299 0.300021
vt 0.829688 0.330083
vt 0.830827 0.331089
vt 0.832977 0.325912
vt 0.831374 0.325716
vt 0.825403 0.331848
vt 0.825734 0.333279
vt 0.830827 0.331089
vt 0.829688 0.330083
vt 0.825734 0.333279
vt 0.825403 0.331848
vt 0.808536 0.331828
vt 0.808538 0.333293
vt 0.791481 0.331828
vt 0.791481 0.333293
vt 0.808538 0.333293
vt 0.808536 0.331828
vt 0.774427 0.331828
vt 0.774424 0.333293
vt 0.791481 0.333293
vt 0.791481 0.331828
vt 0.774427 0.331828
vt 0.757559 0.331848
vt 0.757228 0.333279
vt 0.774424 0.333293
vt 0.753274 0.330083
vt 0.752135 0.331089
vt 0.757228 0.333279
vt 0.757559 0.331848
vt 0.751589 0.325716
vt 0.749986 0.325912
vt 0.752135 0.331089
vt 0.753274 0.330083
vt 0.751621 0.300206
vt 0.749973 0.300021
vt 0.749986 0.325912
vt 0.751589 0.325716
vt 0.749973 0.300021
vt 0.751621 0.300206
vt 0.751598 0.274477
vt 0.749987 0.273972
vt 0.753355 0.270216
vt 0.75217 0.268902
vt 0.749987 0.273972
vt 0.751598 0.274477
vt 0.757704 0.268543
vt 0.75733 0.266761
vt 0.75217 0.268902
vt 0.753355 0.270216
vt 0.75733 0.266761
vt 0.757704 0.268543
vt 0.777233 0.268577
vt 0.777233 0.266748
vt 0.791481 0.268577
vt 0.791481 0.266748
vt 0.777233 0.266748
vt 0.777233 0.268577
s off
f 1/1/1 2/2/2 3/3/3
f 1/1/1 3/3/3 4/4/4
f 5/5/5 6/6/6 7/7/7
f 5/5/5 7/7/7 8/8/8
f 9/9/9 10/10/10 11/11/11
f 9/9/9 11/11/11 12/12/12
f 13/13/13 14/14/14 15/15/15
f 13/13/13 15/15/15 16/16/16
f 17/17/17 18/18/18 19/19/19
f 17/17/17 19/19/19 20/20/20
f 21/21/21 22/22/22 23/23/23
f 21/21/21 23/23/23 24/24/24
f 25/25/25 26/26/26 27/27/27
f 25/25/25 27/27/27 28/28/28
f 29/29/29 30/30/30 31/31/31
f 29/29/29 31/31/31 32/32/32
f 33/33/33 34/34/34 35/35/35
f 36/36/36 37/37/37 38/38/38
f 36/36/36 38/38/38 39/39/39
f 40/40/40 41/41/41 42/42/42
f 40/40/40 42/42/42 43/43/43
f 44/44/44 45/45/45 46/46/46
f 44/44/44 46/46/46 47/47/47
f 48/48/48 49/49/49 50/50/50
f 48/48/48 50/50/50 51/51/51
f 52/52/52 53/53/53 54/54/54
f 52/52/52 54/54/54 55/55/55
f 56/56/56 57/57/57 58/58/58
f 56/56/56 58/58/58 59/59/59
f 60/60/60 61/61/61 62/62/62
f 60/60/60 62/62/62 63/63/63
f 64/64/64 65/65/65 66/66/66
f 67/67/67 68/68/68 69/69/69
f 67/67/67 69/69/69 70/70/70
f 71/71/71 72/72/72 73/73/73
f 71/71/71 73/73/73 74/74/74
f 75/75/75 76/76/76 77/77/77
f 75/75/75 77/77/77 78/78/78
f 79/79/79 80/80/80 81/81/81
f 79/79/79 81/81/81 82/82/82
f 83/83/83 84/84/84 85/85/85
f 83/83/83 85/85/85 86/86/86
f 87/87/87 88/88/88 89/89/89
f 87/87/87 89/89/89 90/90/90
f 91/91/91 92/92/92 93/93/93
f 91/91/91 93/93/93 94/94/94
f 95/95/95 96/96/96 97/97/97
f 95/95/95 97/97/97 98/98/98
f 99/99/99 100/100/100 101/101/101
f 99/99/99 101/101/101 102/102/102
f 103/103/103 104/104/104 105/105/105
f 103/103/103 105/105/105 106/106/106
f 107/107/107 108/108/108 109/109/109
f 107/107/107 109/109/109 110/110/110
f 111/111/111 112/112/112 113/113/113
f 111/111/111 113/113/113 114/114/114
f 115/115/115 116/116/116 117/117/117
f 118/118/118 119/119/119 120/120/120
f 118/118/118 120/120/120 121/121/121
f 122/122/122 123/123/123 124/124/124
f 122/122/122 124/124/124 125/125/125
f 126/126/126 127/127/127 128/128/128
f 126/126/126 128/128/128 129/129/129
f 130/130/130 131/131/131 132/132/132
f 130/130/130 132/132/132 133/133/133
f 134/134/134 135/135/135 136/136/136
f 134/134/134 136/136/136 137/137/137
f 138/138/138 139/139/139 140/140/140
f 141/141/141 142/142/142 143/143/143
f 141/141/141 143/143/143 144/144/144
f 145/145/145 146/146/146 147/147/147
f 145/145/145 147/147/147 148/148/148
f 149/149/149 150/150/150 151/151/151
f 149/149/149 151/151/151 152/152/152
f 153/153/153 154/154/154 155/155/155
f 153/153/153 155/155/155 156/156/156
f 157/157/157 158/158/158 159/159/159
f 157/157/157 159/159/159 160/160/160
f 161/161/161 162/162/162 163/163/163
f 161/161/161 163/163/163 164/164/164
f 165/165/165 166/166/166 167/167/167
f 165/165/165 167/167/167 168/168/168
f 169/169/169 170/170/170 171/171/171
f 169/169/169 171/171/171 172/172/172
f 173/173/173 174/174/174 175/175/175
f 173/173/173 175/175/175 176/176/176
f 177/177/177 178/178/178 179/179/179
f 177/177/177 179/179/179 180/180/180
f 181/181/181 182/182/182 183/183/183
f 184/184/184 185/185/185 186/186/186
f 184/184/184 186/186/186 187/187/187
f 188/188/188 189/189/189 190/190/190
f 188/188/188 190/190/190 191/191/191
f 192/192/192 193/193/193 194/194/194
f 192/192/192 194/194/194 195/195/195
f 196/196/196 197/197/197 198/198/198
f 199/199/199 200/200/200 201/201/201
f 199/199/199 201/201/201 202/202/202
f 203/203/203 204/204/204 205/205/205
f 203/203/203 205/205/205 206/206/206
f 207/207/207 208/208/208 209/209/209
f 207/207/207 209/209/209 210/210/210
f 211/211/211 212/212/212 213/213/213
f 211/211/211 213/213/213 214/214/214
f 215/215/215 216/216/216 217/217/217
f 218/218/218 219/219/219 220/220/220
f 218/218/218 220/220/220 221/221/221
f 222/222/222 223/223/223 224/224/224
f 222/222/222 224/224/224 225/225/225
f 226/226/226 227/227/227 228/228/228
f 226/226/226 228/228/228 229/229/229
f 230/230/230 231/231/231 232/232/232
f 233/233/233 234/234/234 235/235/235
f 233/233/233 235/235/235 236/236/236
f 237/237/237 238/238/238 239/239/239
f 237/237/237 239/239/239 240/240/240
f 241/241/241 242/242/242 243/243/243
f 241/241/241 243/243/243 244/244/244
f 245/245/245 246/246/246 247/247/247
f 245/245/245 247/247/247 248/248/248
f 249/249/249 250/250/250 251/251/251
f 249/249/249 251/251/251 252/252/252
f 253/253/253 254/254/254 255/255/255
f 253/253/253 255/255/255 256/256/256
f 257/257/257 258/258/258 259/259/259
f 257/257/257 259/259/259 260/260/260
f 261/261/261 262/262/262 263/263/263
f 261/261/261 263/263/263 264/264/264
f 265/265/265 266/266/266 267/267/267
f 265/265/265 267/267/267 268/268/268
f 269/269/269 270/270/270 271/271/271
f 269/269/269 271/271/271 272/272/272
f 273/273/273 274/274/274 275/275/275
f 273/273/273 275/275/275 276/276/276
f 277/277/277 278/278/278 279/279/279
f 277/277/277 279/279/279 280/280/280
f 281/281/281 282/282/282 283/283/283
f 281/281/281 283/283/283 284/284/284
f 285/285/285 286/286/286 287/287/287
f 285/285/285 287/287/287 288/288/288
f 289/289/289 290/290/290 291/291/291
f 289/289/289 291/291/291 292/292/292
f 293/293/293 294/294/294 295/295/295
f 293/293/293 295/295/295 296/296/296
f 297/297/297 298/298/298 299/299/299
f 297/297/297 299/299/299 300/300/300
f 301/301/301 302/302/302 303/303/303
f 301/301/301 303/303/303 304/304/304
f 305/305/305 306/306/306 307/307/307
f 305/305/305 307/307/307 308/308/308
f 309/309/309 310/310/310 311/311/311
f 309/309/309 311/311/311 312/312/312
