v 0.543515 0.163244 0.250018
v 0.553533 0.16313 0.252522
v 0.553533 0.162715 0.250018
v 0.540697 0.162082 0.240626
v 0.543515 0.163244 0.250018
v 0.543515 0.162283 0.24313
v 0.553533 0.16313 0.252522
v 0.543515 0.163244 0.250018
v 0.543515 0.163662 0.252522
v 0.558699 0.164344 0.260505
v 0.561594 0.162159 0.245713
v 0.558699 0.161387 0.240626
v 0.540697 0.162082 0.240626
v 0.543515 0.163662 0.252522
v 0.543515 0.163244 0.250018
v 0.543515 0.163662 0.252522
v 0.540697 0.165192 0.260505
v 0.543515 0.16509 0.260505
v 0.573021 0.162132 0.240626
v 0.573021 0.16416 0.255496
v 0.575839 0.162204 0.240626
v 0.540697 0.162082 0.240626
v 0.543515 0.162283 0.24313
v 0.554707 0.161739 0.24313
v 0.554707 0.161434 0.240626
v 0.561046 0.161511 0.240626
v 0.558699 0.161387 0.240626
v 0.561594 0.162159 0.245713
v 0.573021 0.16416 0.255496
v 0.561594 0.162159 0.245713
v 0.573491 0.165016 0.260505
v 0.561594 0.16444 0.260505
v 0.561594 0.162159 0.245713
v 0.558699 0.164344 0.260505
v 0.561594 0.162159 0.245713
v 0.573021 0.16416 0.255496
v 0.561046 0.161511 0.240626
v 0.575839 0.16514 0.260505
v 0.575839 0.162204 0.240626
v 0.573021 0.16416 0.255496
v 0.543515 0.163662 0.252522
v 0.540697 0.162082 0.240626
v 0.540697 0.165192 0.260505
v 0.573491 0.165016 0.260505
v 0.575839 0.16514 0.260505
v 0.573021 0.16416 0.255496
vn 0.052 0.9852 -0.1633
vn 0.052 0.9852 -0.1633
vn 0.052 0.9852 -0.1633
vn 0.0522 0.9891 -0.138
vn 0.0522 0.9891 -0.138
vn 0.0522 0.9891 -0.138
vn 0.0523 0.985 -0.1644
vn 0.0523 0.985 -0.1644
vn 0.0523 0.985 -0.1644
vn -0.0051 0.9891 -0.1471
vn -0.0051 0.9891 -0.1471
vn -0.0051 0.9891 -0.1471
vn 0.1408 0.9765 -0.163
vn 0.1408 0.9765 -0.163
vn 0.1408 0.9765 -0.163
vn 0.0354 0.9837 -0.176
vn 0.0354 0.9837 -0.176
vn 0.0354 0.9837 -0.176
vn -0.0251 0.9905 -0.1351
vn -0.0251 0.9905 -0.1351
vn -0.0251 0.9905 -0.1351
vn 0.0469 0.9909 -0.1264
vn 0.0469 0.9909 -0.1264
vn 0.0469 0.9909 -0.1264
vn 0.0469 0.9909 -0.1264
vn -0.0521 0.9913 -0.1207
vn -0.0521 0.9913 -0.1207
vn -0.0521 0.9913 -0.1207
vn -0.0309 0.9857 -0.1655
vn -0.0309 0.9857 -0.1655
vn -0.0309 0.9857 -0.1655
vn -0.0326 0.9878 -0.1523
vn -0.0326 0.9878 -0.1523
vn -0.0326 0.9878 -0.1523
vn -0.072 0.9903 -0.1184
vn -0.072 0.9903 -0.1184
vn -0.072 0.9903 -0.1184
vn -0.0841 0.9858 -0.1456
vn -0.0841 0.9858 -0.1456
vn -0.0841 0.9858 -0.1456
vn 0.0982 0.9832 -0.1538
vn 0.0982 0.9832 -0.1538
vn 0.0982 0.9832 -0.1538
vn -0.0522 0.9852 -0.1634
vn -0.0522 0.9852 -0.1634
vn -0.0522 0.9852 -0.1634
vt 0.766047 0.647089
vt 0.770929 0.648309
vt 0.770929 0.647089
vt 0.764673 0.642511
vt 0.766047 0.647089
vt 0.766047 0.643732
vt 0.770929 0.648309
vt 0.766047 0.647089
vt 0.766047 0.648309
vt 0.773447 0.6522
vt 0.774858 0.644991
vt 0.773447 0.642511
vt 0.764673 0.642511
vt 0.766047 0.648309
vt 0.766047 0.647089
vt 0.766047 0.648309
vt 0.764673 0.6522
vt 0.766047 0.6522
vt 0.780427 0.642511
vt 0.780427 0.649759
vt 0.7818 0.642511
vt 0.764673 0.642511
vt 0.766047 0.643732
vt 0.771501 0.643732
vt 0.771501 0.642511
vt 0.774591 0.642511
vt 0.773447 0.642511
vt 0.774858 0.644991
vt 0.780427 0.649759
vt 0.774858 0.644991
vt 0.780656 0.6522
vt 0.774858 0.6522
vt 0.774858 0.644991
vt 0.773447 0.6522
vt 0.774858 0.644991
vt 0.780427 0.649759
vt 0.774591 0.642511
vt 0.7818 0.6522
vt 0.7818 0.642511
vt 0.780427 0.649759
vt 0.766047 0.648309
vt 0.764673 0.642511
vt 0.764673 0.6522
vt 0.780656 0.6522
vt 0.7818 0.6522
vt 0.780427 0.649759
s off
f 1/1/1 2/2/2 3/3/3
f 4/4/4 5/5/5 6/6/6
f 7/7/7 8/8/8 9/9/9
f 10/10/10 11/11/11 12/12/12
f 13/13/13 14/14/14 15/15/15
f 16/16/16 17/17/17 18/18/18
f 19/19/19 20/20/20 21/21/21
f 22/22/22 23/23/23 24/24/24
f 22/22/22 24/24/24 25/25/25
f 26/26/26 27/27/27 28/28/28
f 29/29/29 30/30/30 31/31/31
f 32/32/32 33/33/33 34/34/34
f 35/35/35 36/36/36 37/37/37
f 38/38/38 39/39/39 40/40/40
f 41/41/41 42/42/42 43/43/43
f 44/44/44 45/45/45 46/46/46
