v -0.183853 0.168741 -0.029995
v -0.18009 0.16836 -0.031526
v -0.181659 0.168561 -0.034415
v -0.18009 0.16836 -0.031526
v -0.176426 0.167973 -0.031566
v -0.17648 0.168021 -0.03464
v -0.18009 0.16836 -0.031526
v -0.17648 0.168021 -0.03464
v -0.181659 0.168561 -0.034415
v -0.17648 0.168021 -0.03464
v -0.176426 0.167973 -0.031566
v -0.172065 0.167729 -0.033537
v -0.173222 0.167731 -0.030596
v -0.168636 0.167596 -0.030982
v -0.172065 0.167729 -0.033537
v -0.172065 0.167729 -0.033537
v -0.176426 0.167973 -0.031566
v -0.173222 0.167731 -0.030596
v -0.168636 0.167596 -0.030982
v -0.173222 0.167731 -0.030596
v -0.170857 0.167639 -0.028761
v -0.181659 0.168561 -0.034415
v -0.186253 0.169018 -0.032297
v -0.183853 0.168741 -0.029995
v -0.186371 0.168981 -0.027368
v -0.186253 0.169018 -0.032297
v -0.18939 0.169316 -0.029009
v -0.183853 0.168741 -0.029995
v -0.186253 0.169018 -0.032297
v -0.186371 0.168981 -0.027368
v -0.187755 0.169079 -0.022652
v -0.186371 0.168981 -0.027368
v -0.191202 0.169544 -0.024382
v -0.18939 0.169316 -0.029009
v -0.191202 0.169544 -0.024382
v -0.186371 0.168981 -0.027368
v -0.187755 0.169079 -0.022652
v -0.191202 0.169544 -0.024382
v -0.191078 0.169484 -0.018956
v -0.186679 0.168914 -0.01747
v -0.191078 0.169484 -0.018956
v -0.189078 0.169185 -0.014772
v -0.187755 0.169079 -0.022652
v -0.191078 0.169484 -0.018956
v -0.186679 0.168914 -0.01747
v -0.18604 0.168799 -0.01174
v -0.183774 0.168573 -0.014307
v -0.186679 0.168914 -0.01747
v -0.186679 0.168914 -0.01747
v -0.189078 0.169185 -0.014772
v -0.18604 0.168799 -0.01174
v -0.181064 0.16824 -0.009693
v -0.183774 0.168573 -0.014307
v -0.18604 0.168799 -0.01174
v -0.181064 0.16824 -0.009693
v -0.17443 0.16756 -0.009822
v -0.175008 0.167633 -0.012897
v -0.180163 0.168177 -0.012816
v -0.183774 0.168573 -0.014307
v -0.181064 0.16824 -0.009693
v -0.180163 0.168177 -0.012816
v -0.172193 0.167528 -0.014293
v -0.175008 0.167633 -0.012897
v -0.17443 0.16756 -0.009822
v -0.168846 0.167398 -0.012513
v -0.172192 0.167609 -0.022268
v -0.172193 0.167528 -0.014293
v -0.168834 0.167506 -0.022268
v -0.168846 0.167398 -0.012513
v -0.168834 0.167506 -0.022268
v -0.172193 0.167528 -0.014293
vn 0.1058 0.9943 0.012
vn 0.1058 0.9943 0.012
vn 0.1058 0.9943 0.012
vn 0.1051 0.9944 0.0136
vn 0.1051 0.9944 0.0136
vn 0.1051 0.9944 0.0136
vn 0.1044 0.9945 0.0128
vn 0.1044 0.9945 0.0128
vn 0.1044 0.9945 0.0128
vn 0.0624 0.9979 0.0144
vn 0.0624 0.9979 0.0144
vn 0.0624 0.9979 0.0144
vn 0.0304 0.9995 0.011
vn 0.0304 0.9995 0.011
vn 0.0304 0.9995 0.011
vn 0.0674 0.9974 0.0256
vn 0.0674 0.9974 0.0256
vn 0.0674 0.9974 0.0256
vn 0.0304 0.9995 0.0111
vn 0.0304 0.9995 0.0111
vn 0.0304 0.9995 0.0111
vn 0.1041 0.9945 0.0111
vn 0.1041 0.9945 0.0111
vn 0.1041 0.9945 0.0111
vn 0.105 0.9944 0.0101
vn 0.105 0.9944 0.0101
vn 0.105 0.9944 0.0101
vn 0.105 0.9944 0.0101
vn 0.105 0.9944 0.0101
vn 0.105 0.9944 0.0101
vn 0.1256 0.992 0.0162
vn 0.1256 0.992 0.0162
vn 0.1256 0.992 0.0162
vn 0.1129 0.9936 -0.0046
vn 0.1129 0.9936 -0.0046
vn 0.1129 0.9936 -0.0046
vn 0.1297 0.9915 0.0079
vn 0.1297 0.9915 0.0079
vn 0.1297 0.9915 0.0079
vn 0.1249 0.9921 0.0111
vn 0.1249 0.9921 0.0111
vn 0.1249 0.9921 0.0111
vn 0.1268 0.9919 0.0053
vn 0.1268 0.9919 0.0053
vn 0.1268 0.9919 0.0053
vn 0.1079 0.9941 0.0078
vn 0.1079 0.9941 0.0078
vn 0.1079 0.9941 0.0078
vn 0.1197 0.9928 0.0065
vn 0.1197 0.9928 0.0065
vn 0.1197 0.9928 0.0065
vn 0.1083 0.9941 0.0082
vn 0.1083 0.9941 0.0082
vn 0.1083 0.9941 0.0082
vn 0.1034 0.9946 0.007
vn 0.1034 0.9946 0.007
vn 0.1034 0.9946 0.007
vn 0.1034 0.9946 0.007
vn 0.1051 0.9944 0.0101
vn 0.1051 0.9944 0.0101
vn 0.1051 0.9944 0.0101
vn 0.0374 0.9992 0.0117
vn 0.0374 0.9992 0.0117
vn 0.0374 0.9992 0.0117
vn 0.0374 0.9992 0.0117
vn 0.0309 0.9995 0.0101
vn 0.0309 0.9995 0.0101
vn 0.0309 0.9995 0.0101
vn 0.0331 0.9994 0.0111
vn 0.0331 0.9994 0.0111
vn 0.0331 0.9994 0.0111
vt 0.403963 0.501627
vt 0.405929 0.500827
vt 0.405109 0.499318
vt 0.405929 0.500827
vt 0.407842 0.500806
vt 0.407814 0.4992
vt 0.405929 0.500827
vt 0.407814 0.4992
vt 0.405109 0.499318
vt 0.407814 0.4992
vt 0.407842 0.500806
vt 0.41012 0.499777
vt 0.409516 0.501313
vt 0.411912 0.501111
vt 0.41012 0.499777
vt 0.41012 0.499777
vt 0.407842 0.500806
vt 0.409516 0.501313
vt 0.411912 0.501111
vt 0.409516 0.501313
vt 0.410751 0.502271
vt 0.405109 0.499318
vt 0.40271 0.500424
vt 0.403963 0.501627
vt 0.402648 0.502999
vt 0.40271 0.500424
vt 0.401071 0.502142
vt 0.403963 0.501627
vt 0.40271 0.500424
vt 0.402648 0.502999
vt 0.401924 0.505462
vt 0.402648 0.502999
vt 0.400124 0.504559
vt 0.401071 0.502142
vt 0.400124 0.504559
vt 0.402648 0.502999
vt 0.401924 0.505462
vt 0.400124 0.504559
vt 0.400189 0.507393
vt 0.402487 0.508169
vt 0.400189 0.507393
vt 0.401234 0.509579
vt 0.401924 0.505462
vt 0.400189 0.507393
vt 0.402487 0.508169
vt 0.402821 0.511162
vt 0.404004 0.509822
vt 0.402487 0.508169
vt 0.402487 0.508169
vt 0.401234 0.509579
vt 0.402821 0.511162
vt 0.40542 0.512232
vt 0.404004 0.509822
vt 0.402821 0.511162
vt 0.40542 0.512232
vt 0.408885 0.512164
vt 0.408583 0.510558
vt 0.40589 0.5106
vt 0.404004 0.509822
vt 0.40542 0.512232
vt 0.40589 0.5106
vt 0.410054 0.509829
vt 0.408583 0.510558
vt 0.408885 0.512164
vt 0.411802 0.510759
vt 0.410054 0.505663
vt 0.410054 0.509829
vt 0.411808 0.505663
vt 0.411802 0.510759
vt 0.411808 0.505663
vt 0.410054 0.509829
s off
f 1/1/1 2/2/2 3/3/3
f 4/4/4 5/5/5 6/6/6
f 7/7/7 8/8/8 9/9/9
f 10/10/10 11/11/11 12/12/12
f 13/13/13 14/14/14 15/15/15
f 16/16/16 17/17/17 18/18/18
f 19/19/19 20/20/20 21/21/21
f 22/22/22 23/23/23 24/24/24
f 25/25/25 26/26/26 27/27/27
f 28/28/28 29/29/29 30/30/30
f 31/31/31 32/32/32 33/33/33
f 34/34/34 35/35/35 36/36/36
f 37/37/37 38/38/38 39/39/39
f 40/40/40 41/41/41 42/42/42
f 43/43/43 44/44/44 45/45/45
f 46/46/46 47/47/47 48/48/48
f 49/49/49 50/50/50 51/51/51
f 52/52/52 53/53/53 54/54/54
f 55/55/55 56/56/56 57/57/57
f 55/55/55 57/57/57 58/58/58
f 59/59/59 60/60/60 61/61/61
f 62/62/62 63/63/63 64/64/64
f 62/62/62 64/64/64 65/65/65
f 66/66/66 67/67/67 68/68/68
f 69/69/69 70/70/70 71/71/71
