v -0.009739 0.166178 -0.051278
v -0.009545 0.128909 -0.061795
v -0.03099 0.128909 -0.061795
v -0.03099 0.165463 -0.051479
v 0.011861 0.168362 -0.050661
v 0.018802 0.128909 -0.061795
v -0.009545 0.128909 -0.061795
v -0.009739 0.166178 -0.051278
v 0.011861 0.168362 -0.050661
v 0.017731 0.169401 -0.044039
v 0.027707 0.128789 -0.058149
v 0.018802 0.128909 -0.061795
v 0.017731 0.169401 -0.044039
v 0.031396 0.1285 -0.049346
v 0.027707 0.128789 -0.058149
v 0.031396 0.1285 -0.049346
v 0.017731 0.169401 -0.044039
v 0.017674 0.169307 0.040696
v 0.031396 0.125228 0.050228
v 0.027723 0.124934 0.059195
v 0.031396 0.125228 0.050228
v 0.017674 0.169307 0.040696
v 0.018858 0.124812 0.062909
v 0.027723 0.124934 0.059195
v 0.017674 0.169307 0.040696
v 0.011929 0.168043 0.047454
v -0.009545 0.124812 0.062909
v 0.018858 0.124812 0.062909
v 0.011929 0.168043 0.047454
v -0.009659 0.165301 0.048435
v -0.03099 0.164399 0.048757
v -0.03099 0.124812 0.062909
v -0.009545 0.124812 0.062909
v -0.009659 0.165301 0.048435
v -0.052321 0.165301 0.048434
v -0.052436 0.124812 0.062909
v -0.03099 0.124812 0.062909
v -0.03099 0.164399 0.048757
v -0.07391 0.168043 0.047454
v -0.080838 0.124812 0.062909
v -0.052436 0.124812 0.062909
v -0.052321 0.165301 0.048434
v -0.089704 0.124934 0.059195
v -0.080838 0.124812 0.062909
v -0.07391 0.168043 0.047454
v -0.093376 0.125228 0.050228
v -0.089704 0.124934 0.059195
v -0.07391 0.168043 0.047454
v -0.079654 0.169307 0.040696
v -0.079712 0.169401 -0.044039
v -0.093376 0.1285 -0.049346
v -0.093376 0.125228 0.050228
v -0.079654 0.169307 0.040696
v -0.079712 0.169401 -0.044039
v -0.079654 0.169307 0.040696
v -0.07619 0.171422 0.038566
v -0.076182 0.171565 -0.042077
v -0.071752 0.170404 0.043899
v -0.07619 0.171422 0.038566
v -0.079654 0.169307 0.040696
v -0.07391 0.168043 0.047454
v -0.07619 0.171422 0.038566
v -0.071752 0.170404 0.043899
v -0.063049 0.168937 0.030809
v -0.063009 0.169356 -0.034026
v -0.076182 0.171565 -0.042077
v -0.07619 0.171422 0.038566
v -0.063049 0.168937 0.030809
v -0.076182 0.171565 -0.042077
v -0.071657 0.17075 -0.047279
v -0.073842 0.168362 -0.050661
v -0.079712 0.169401 -0.044039
v -0.076182 0.171565 -0.042077
v -0.063009 0.169356 -0.034026
v -0.071657 0.17075 -0.047279
v -0.052242 0.166178 -0.051278
v -0.073842 0.168362 -0.050661
v -0.071657 0.17075 -0.047279
v -0.051377 0.168687 -0.047847
v -0.047042 0.167671 -0.034253
v -0.051377 0.168687 -0.047847
v -0.071657 0.17075 -0.047279
v -0.063009 0.169356 -0.034026
v -0.03099 0.167184 -0.034315
v -0.03099 0.168009 -0.048036
v -0.051377 0.168687 -0.047847
v -0.047042 0.167671 -0.034253
v -0.03099 0.165463 -0.051479
v -0.052242 0.166178 -0.051278
v -0.051377 0.168687 -0.047847
v -0.03099 0.168009 -0.048036
v -0.009739 0.166178 -0.051278
v -0.03099 0.165463 -0.051479
v -0.03099 0.168009 -0.048036
v -0.010603 0.168687 -0.047847
v -0.014938 0.167671 -0.034253
v -0.010603 0.168687 -0.047847
v -0.03099 0.168009 -0.048036
v -0.03099 0.167184 -0.034315
v 0.011861 0.168362 -0.050661
v -0.009739 0.166178 -0.051278
v -0.010603 0.168687 -0.047847
v 0.009676 0.17075 -0.047279
v 0.001028 0.169356 -0.034026
v 0.009676 0.17075 -0.047279
v -0.010603 0.168687 -0.047847
v -0.014938 0.167671 -0.034253
v 0.009676 0.17075 -0.047279
v 0.014201 0.171565 -0.042077
v 0.017731 0.169401 -0.044039
v 0.011861 0.168362 -0.050661
v 0.001028 0.169356 -0.034026
v 0.014201 0.171565 -0.042077
v 0.009676 0.17075 -0.047279
v 0.014209 0.171422 0.038566
v 0.017674 0.169307 0.040696
v 0.017731 0.169401 -0.044039
v 0.014201 0.171565 -0.042077
v 0.014201 0.171565 -0.042077
v 0.001028 0.169356 -0.034026
v 0.001068 0.168937 0.030809
v 0.014209 0.171422 0.038566
v 0.014209 0.171422 0.038566
v 0.009771 0.170404 0.043899
v 0.011929 0.168043 0.047454
v 0.017674 0.169307 0.040696
v 0.009771 0.170404 0.043899
v 0.014209 0.171422 0.038566
v 0.001068 0.168937 0.030809
v 0.009771 0.170404 0.043899
v 0.001068 0.168937 0.030809
v -0.014906 0.167008 0.031254
v -0.010526 0.167837 0.044811
v 0.009771 0.170404 0.043899
v -0.010526 0.167837 0.044811
v -0.009659 0.165301 0.048435
v 0.011929 0.168043 0.047454
v -0.010526 0.167837 0.044811
v -0.03099 0.166991 0.045116
v -0.03099 0.164399 0.048757
v -0.009659 0.165301 0.048435
v -0.010526 0.167837 0.044811
v -0.014906 0.167008 0.031254
v -0.03099 0.166456 0.031375
v -0.03099 0.166991 0.045116
v -0.03099 0.166991 0.045116
v -0.051455 0.167837 0.044811
v -0.052321 0.165301 0.048434
v -0.03099 0.164399 0.048757
v -0.03099 0.166991 0.045116
v -0.03099 0.166456 0.031375
v -0.047074 0.167008 0.031254
v -0.051455 0.167837 0.044811
v -0.051455 0.167837 0.044811
v -0.071752 0.170404 0.043899
v -0.07391 0.168043 0.047454
v -0.052321 0.165301 0.048434
v -0.051455 0.167837 0.044811
v -0.047074 0.167008 0.031254
v -0.063049 0.168937 0.030809
v -0.071752 0.170404 0.043899
v -0.063009 0.169356 -0.034026
v -0.063049 0.168937 0.030809
v -0.047074 0.167008 0.031254
v -0.047042 0.167671 -0.034253
v -0.047042 0.167671 -0.034253
v -0.047074 0.167008 0.031254
v -0.03099 0.166456 0.031375
v -0.03099 0.167184 -0.034315
v -0.03099 0.167184 -0.034315
v -0.03099 0.166456 0.031375
v -0.014906 0.167008 0.031254
v -0.014938 0.167671 -0.034253
v -0.014938 0.167671 -0.034253
v -0.014906 0.167008 0.031254
v 0.001068 0.168937 0.030809
v 0.001028 0.169356 -0.034026
v -0.03099 0.165463 -0.051479
v -0.03099 0.128909 -0.061795
v -0.052436 0.128909 -0.061795
v -0.052242 0.166178 -0.051278
v -0.052436 0.128909 -0.061795
v -0.080782 0.128909 -0.061795
v -0.073842 0.168362 -0.050661
v -0.052242 0.166178 -0.051278
v -0.080782 0.128909 -0.061795
v -0.089688 0.128789 -0.058149
v -0.079712 0.169401 -0.044039
v -0.073842 0.168362 -0.050661
v -0.089688 0.128789 -0.058149
v -0.093376 0.1285 -0.049346
v -0.079712 0.169401 -0.044039
v -0.009545 0.128909 -0.061795
v -0.009545 0.117647 -0.062165
v -0.03099 0.117647 -0.062165
v -0.03099 0.128909 -0.061795
v -0.009545 0.128909 -0.061795
v 0.018802 0.128909 -0.061795
v 0.018813 0.117647 -0.062165
v -0.009545 0.117647 -0.062165
v 0.018802 0.128909 -0.061795
v 0.027707 0.128789 -0.058149
v 0.02771 0.117527 -0.058521
v 0.018813 0.117647 -0.062165
v 0.027707 0.128789 -0.058149
v 0.031396 0.1285 -0.049346
v 0.031396 0.117238 -0.049722
v 0.02771 0.117527 -0.058521
v 0.031396 0.113966 0.049873
v 0.031396 0.117238 -0.049722
v 0.031396 0.1285 -0.049346
v 0.031396 0.125228 0.050228
v 0.027726 0.113671 0.058829
v 0.031396 0.113966 0.049873
v 0.031396 0.125228 0.050228
v 0.027723 0.124934 0.059195
v 0.018867 0.11355 0.062539
v 0.027726 0.113671 0.058829
v 0.027723 0.124934 0.059195
v 0.018858 0.124812 0.062909
v 0.018867 0.11355 0.062539
v 0.018858 0.124812 0.062909
v -0.009545 0.124812 0.062909
v -0.009545 0.11355 0.062539
v -0.03099 0.124812 0.062909
v -0.03099 0.11355 0.062539
v -0.009545 0.11355 0.062539
v -0.009545 0.124812 0.062909
v -0.052436 0.124812 0.062909
v -0.052436 0.11355 0.062539
v -0.03099 0.11355 0.062539
v -0.03099 0.124812 0.062909
v -0.052436 0.124812 0.062909
v -0.080838 0.124812 0.062909
v -0.080848 0.11355 0.062539
v -0.052436 0.11355 0.062539
v -0.089707 0.113671 0.058829
v -0.080848 0.11355 0.062539
v -0.080838 0.124812 0.062909
v -0.089704 0.124934 0.059195
v -0.093376 0.113966 0.049873
v -0.089707 0.113671 0.058829
v -0.089704 0.124934 0.059195
v -0.093376 0.125228 0.050228
v -0.093376 0.113966 0.049873
v -0.093376 0.125228 0.050228
v -0.093376 0.1285 -0.049346
v -0.093376 0.117238 -0.049722
v -0.089691 0.117527 -0.058521
v -0.093376 0.117238 -0.049722
v -0.093376 0.1285 -0.049346
v -0.089688 0.128789 -0.058149
v -0.080794 0.117647 -0.062165
v -0.089691 0.117527 -0.058521
v -0.089688 0.128789 -0.058149
v -0.080782 0.128909 -0.061795
v -0.080794 0.117647 -0.062165
v -0.080782 0.128909 -0.061795
v -0.052436 0.128909 -0.061795
v -0.052436 0.117647 -0.062165
v -0.03099 0.128909 -0.061795
v -0.03099 0.117647 -0.062165
v -0.052436 0.117647 -0.062165
v -0.052436 0.128909 -0.061795
vn -0 0.2717 -0.9624
vn -0 0.2716 -0.9624
vn -0 0.2716 -0.9624
vn -0.0001 0.2717 -0.9624
vn -0 0.2716 -0.9624
vn 0.0001 0.2716 -0.9624
vn -0 0.2716 -0.9624
vn -0 0.2717 -0.9624
vn -0 0.2716 -0.9624
vn 0.9517 0.307 0.0059
vn 0.6703 0.3491 -0.6548
vn 0.0001 0.2716 -0.9624
vn 0.9517 0.307 0.0059
vn 0.9517 0.307 0.0058
vn 0.6703 0.3491 -0.6548
vn 0.9517 0.307 0.0058
vn 0.9517 0.307 0.0059
vn 0.9517 0.307 0.0058
vn 0.9517 0.307 0.006
vn 0.6591 0.3807 0.6486
vn 0.9517 0.307 0.006
vn 0.9517 0.307 0.0058
vn 0.0001 0.3366 0.9416
vn 0.6591 0.3807 0.6486
vn 0.9517 0.307 0.0058
vn -0 0.3367 0.9416
vn -0 0.3366 0.9416
vn 0.0001 0.3366 0.9416
vn -0 0.3367 0.9416
vn -0 0.3367 0.9416
vn -0 0.3367 0.9416
vn -0 0.3366 0.9416
vn -0 0.3366 0.9416
vn -0 0.3367 0.9416
vn -0 0.3367 0.9416
vn -0 0.3366 0.9416
vn -0 0.3366 0.9416
vn -0 0.3367 0.9416
vn -0 0.3367 0.9416
vn -0.0001 0.3367 0.9416
vn -0 0.3366 0.9416
vn -0 0.3367 0.9416
vn -0.6591 0.3807 0.6486
vn -0.0001 0.3367 0.9416
vn -0 0.3367 0.9416
vn -0.9517 0.307 0.006
vn -0.6591 0.3807 0.6486
vn -0 0.3367 0.9416
vn -0.9517 0.307 0.0059
vn -0.9517 0.307 0.0059
vn -0.9517 0.307 0.0058
vn -0.9517 0.307 0.006
vn -0.9517 0.307 0.0059
vn -0.9517 0.307 0.0059
vn -0.9517 0.307 0.0059
vn 0.1873 0.9822 0.0156
vn 0.1692 0.9856 -0.0031
vn 0.1711 0.9852 0.0079
vn 0.1873 0.9822 0.0156
vn -0.9517 0.307 0.0059
vn -0 0.3367 0.9416
vn 0.1873 0.9822 0.0156
vn 0.1711 0.9852 0.0079
vn 0.1436 0.9896 -0.0034
vn 0.1353 0.9907 0.0167
vn 0.1692 0.9856 -0.0031
vn 0.1873 0.9822 0.0156
vn 0.1436 0.9896 -0.0034
vn 0.1692 0.9856 -0.0031
vn 0.1459 0.9893 0.0069
vn -0 0.2716 -0.9624
vn -0.9517 0.307 0.0059
vn 0.1692 0.9856 -0.0031
vn 0.1353 0.9907 0.0167
vn 0.1459 0.9893 0.0069
vn -0 0.2717 -0.9624
vn -0 0.2716 -0.9624
vn 0.1459 0.9893 0.0069
vn 0.0746 0.9962 0.0445
vn 0.0667 0.9973 0.0312
vn 0.0746 0.9962 0.0445
vn 0.1459 0.9893 0.0069
vn 0.1353 0.9907 0.0167
vn -0 0.9993 0.0364
vn -0 0.9983 0.0582
vn 0.0746 0.9962 0.0445
vn 0.0667 0.9973 0.0312
vn -0.0001 0.2717 -0.9624
vn -0 0.2717 -0.9624
vn 0.0746 0.9962 0.0445
vn -0 0.9983 0.0582
vn -0 0.2717 -0.9624
vn -0.0001 0.2717 -0.9624
vn -0 0.9983 0.0582
vn -0.0746 0.9962 0.0445
vn -0.0667 0.9973 0.0312
vn -0.0746 0.9962 0.0445
vn -0 0.9983 0.0582
vn -0 0.9993 0.0364
vn -0 0.2716 -0.9624
vn -0 0.2717 -0.9624
vn -0.0746 0.9962 0.0445
vn -0.1459 0.9893 0.0069
vn -0.1348 0.9907 0.0162
vn -0.1459 0.9893 0.0069
vn -0.0746 0.9962 0.0445
vn -0.0667 0.9973 0.0312
vn -0.1459 0.9893 0.0069
vn -0.1692 0.9856 -0.003
vn 0.9517 0.307 0.0059
vn -0 0.2716 -0.9624
vn -0.1348 0.9907 0.0162
vn -0.1692 0.9856 -0.003
vn -0.1459 0.9893 0.0069
vn -0.1873 0.9822 0.0155
vn 0.9517 0.307 0.0058
vn 0.9517 0.307 0.0059
vn -0.1692 0.9856 -0.003
vn -0.1692 0.9856 -0.003
vn -0.1348 0.9907 0.0162
vn -0.1436 0.9896 -0.0034
vn -0.1873 0.9822 0.0155
vn -0.1873 0.9822 0.0155
vn -0.1711 0.9852 0.0079
vn -0 0.3367 0.9416
vn 0.9517 0.307 0.0058
vn -0.1711 0.9852 0.0079
vn -0.1873 0.9822 0.0155
vn -0.1436 0.9896 -0.0034
vn -0.1711 0.9852 0.0079
vn -0.1436 0.9896 -0.0034
vn -0.0726 0.9973 -0.0134
vn -0.089 0.9956 -0.0284
vn -0.1711 0.9852 0.0079
vn -0.089 0.9956 -0.0284
vn -0 0.3367 0.9416
vn -0 0.3367 0.9416
vn -0.089 0.9956 -0.0284
vn -0 0.9992 -0.0397
vn -0 0.3367 0.9416
vn -0 0.3367 0.9416
vn -0.089 0.9956 -0.0284
vn -0.0726 0.9973 -0.0134
vn -0 0.9999 -0.0166
vn -0 0.9992 -0.0397
vn -0 0.9992 -0.0397
vn 0.0891 0.9956 -0.0284
vn -0 0.3367 0.9416
vn -0 0.3367 0.9416
vn -0 0.9992 -0.0397
vn -0 0.9999 -0.0166
vn 0.0726 0.9973 -0.0134
vn 0.0891 0.9956 -0.0284
vn 0.0891 0.9956 -0.0284
vn 0.1711 0.9852 0.0079
vn -0 0.3367 0.9416
vn -0 0.3367 0.9416
vn 0.0891 0.9956 -0.0284
vn 0.0726 0.9973 -0.0134
vn 0.1436 0.9896 -0.0034
vn 0.1711 0.9852 0.0079
vn 0.1353 0.9907 0.0167
vn 0.1436 0.9896 -0.0034
vn 0.0726 0.9973 -0.0134
vn 0.0667 0.9973 0.0312
vn 0.0667 0.9973 0.0312
vn 0.0726 0.9973 -0.0134
vn -0 0.9999 -0.0166
vn -0 0.9993 0.0364
vn -0 0.9993 0.0364
vn -0 0.9999 -0.0166
vn -0.0726 0.9973 -0.0134
vn -0.0667 0.9973 0.0312
vn -0.0667 0.9973 0.0312
vn -0.0726 0.9973 -0.0134
vn -0.1436 0.9896 -0.0034
vn -0.1348 0.9907 0.0162
vn -0.0001 0.2717 -0.9624
vn -0 0.2716 -0.9624
vn -0 0.2716 -0.9624
vn -0 0.2717 -0.9624
vn -0 0.2716 -0.9624
vn -0.0001 0.2716 -0.9624
vn -0 0.2716 -0.9624
vn -0 0.2717 -0.9624
vn -0.0001 0.2716 -0.9624
vn -0.6703 0.3491 -0.6548
vn -0.9517 0.307 0.0059
vn -0 0.2716 -0.9624
vn -0.6703 0.3491 -0.6548
vn -0.9517 0.307 0.0058
vn -0.9517 0.307 0.0059
vn -0 0.0328 -0.9995
vn -0 0.0328 -0.9995
vn -0 0.0328 -0.9995
vn -0 0.0328 -0.9995
vn -0 0.0328 -0.9995
vn 0.0001 0.0328 -0.9995
vn 0.0001 0.033 -0.9995
vn -0 0.0328 -0.9995
vn 0.0001 0.0328 -0.9995
vn 0.7035 0.0237 -0.7103
vn 0.7034 0.0237 -0.7104
vn 0.0001 0.033 -0.9995
vn 0.7035 0.0237 -0.7103
vn 1 0.0001 -0.0001
vn 1 -0 -0.0001
vn 0.7034 0.0237 -0.7104
vn 1 0.0002 0.0001
vn 1 -0 -0.0001
vn 1 0.0001 -0.0001
vn 1 0.0001 0.0001
vn 0.7112 -0.0226 0.7026
vn 1 0.0002 0.0001
vn 1 0.0001 0.0001
vn 0.7109 -0.0226 0.7029
vn 0.0001 -0.0328 0.9995
vn 0.7112 -0.0226 0.7026
vn 0.7109 -0.0226 0.7029
vn 0.0001 -0.0326 0.9995
vn 0.0001 -0.0328 0.9995
vn 0.0001 -0.0326 0.9995
vn -0 -0.0328 0.9995
vn -0 -0.0328 0.9995
vn -0 -0.0328 0.9995
vn -0 -0.0328 0.9995
vn -0 -0.0328 0.9995
vn -0 -0.0328 0.9995
vn -0 -0.0328 0.9995
vn -0 -0.0328 0.9995
vn -0 -0.0328 0.9995
vn -0 -0.0328 0.9995
vn -0 -0.0328 0.9995
vn -0.0001 -0.0329 0.9995
vn -0.0001 -0.0326 0.9995
vn -0 -0.0328 0.9995
vn -0.7111 -0.0226 0.7027
vn -0.0001 -0.0326 0.9995
vn -0.0001 -0.0329 0.9995
vn -0.7113 -0.0226 0.7026
vn -1 -0 0.0001
vn -0.7111 -0.0226 0.7027
vn -0.7113 -0.0226 0.7026
vn -1 0.0002 0.0001
vn -1 -0 0.0001
vn -1 0.0002 0.0001
vn -1 -0 -0.0001
vn -1 0.0001 -0.0001
vn -0.7044 0.0236 -0.7094
vn -1 0.0001 -0.0001
vn -1 -0 -0.0001
vn -0.7036 0.0237 -0.7102
vn -0.0001 0.0328 -0.9995
vn -0.7044 0.0236 -0.7094
vn -0.7036 0.0237 -0.7102
vn -0.0001 0.033 -0.9995
vn -0.0001 0.0328 -0.9995
vn -0.0001 0.033 -0.9995
vn -0 0.0328 -0.9995
vn -0 0.0328 -0.9995
vn -0 0.0328 -0.9995
vn -0 0.0328 -0.9995
vn -0 0.0328 -0.9995
vn -0 0.0328 -0.9995
vt 0.493317 0.143401
vt 0.495014 0.135116
vt 0.483812 0.135116
vt 0.483812 0.143311
vt 0.502977 0.143676
vt 0.509588 0.13508
vt 0.495014 0.135116
vt 0.493317 0.143401
vt 0.502977 0.143676
vt 0.505602 0.146638
vt 0.513785 0.136709
vt 0.509588 0.13508
vt 0.505602 0.146638
vt 0.515478 0.140858
vt 0.513785 0.136709
vt 0.515478 0.140858
vt 0.505602 0.146638
vt 0.505577 0.184535
vt 0.51548 0.192492
vt 0.513799 0.196733
vt 0.51548 0.192492
vt 0.505577 0.184535
vt 0.50962 0.198404
vt 0.513799 0.196733
vt 0.505577 0.184535
vt 0.503007 0.187557
vt 0.495014 0.198371
vt 0.50962 0.198404
vt 0.503007 0.187557
vt 0.493352 0.187996
vt 0.483812 0.18814
vt 0.483812 0.198371
vt 0.495014 0.198371
vt 0.493352 0.187996
vt 0.474272 0.187996
vt 0.47261 0.198371
vt 0.483812 0.198371
vt 0.483812 0.18814
vt 0.464617 0.187557
vt 0.457962 0.198392
vt 0.47261 0.198371
vt 0.474272 0.187996
vt 0.453779 0.196687
vt 0.457962 0.198392
vt 0.464617 0.187557
vt 0.452131 0.192452
vt 0.453779 0.196687
vt 0.464617 0.187557
vt 0.462048 0.184535
vt 0.462022 0.146638
vt 0.452146 0.140858
vt 0.452131 0.192452
vt 0.462048 0.184535
vt 0.462022 0.146638
vt 0.462048 0.184535
vt 0.463597 0.183582
vt 0.463601 0.147516
vt 0.465582 0.185968
vt 0.463597 0.183582
vt 0.462048 0.184535
vt 0.464617 0.187557
vt 0.463597 0.183582
vt 0.465582 0.185968
vt 0.469474 0.180113
vt 0.469492 0.151116
vt 0.463601 0.147516
vt 0.463597 0.183582
vt 0.469474 0.180113
vt 0.463601 0.147516
vt 0.465625 0.145189
vt 0.464647 0.143676
vt 0.462022 0.146638
vt 0.463601 0.147516
vt 0.469492 0.151116
vt 0.465625 0.145189
vt 0.474308 0.143401
vt 0.464647 0.143676
vt 0.465625 0.145189
vt 0.474694 0.144935
vt 0.476633 0.151015
vt 0.474694 0.144935
vt 0.465625 0.145189
vt 0.469492 0.151116
vt 0.483812 0.150987
vt 0.483812 0.144851
vt 0.474694 0.144935
vt 0.476633 0.151015
vt 0.483812 0.143311
vt 0.474308 0.143401
vt 0.474694 0.144935
vt 0.483812 0.144851
vt 0.493317 0.143401
vt 0.483812 0.143311
vt 0.483812 0.144851
vt 0.49293 0.144935
vt 0.490991 0.151015
vt 0.49293 0.144935
vt 0.483812 0.144851
vt 0.483812 0.150987
vt 0.502977 0.143676
vt 0.493317 0.143401
vt 0.49293 0.144935
vt 0.502 0.145189
vt 0.498132 0.151116
vt 0.502 0.145189
vt 0.49293 0.144935
vt 0.490991 0.151015
vt 0.502 0.145189
vt 0.504024 0.147516
vt 0.505602 0.146638
vt 0.502977 0.143676
vt 0.498132 0.151116
vt 0.504024 0.147516
vt 0.502 0.145189
vt 0.504027 0.183582
vt 0.505577 0.184535
vt 0.505602 0.146638
vt 0.504024 0.147516
vt 0.504024 0.147516
vt 0.498132 0.151116
vt 0.49815 0.180113
vt 0.504027 0.183582
vt 0.504027 0.183582
vt 0.502042 0.185968
vt 0.503007 0.187557
vt 0.505577 0.184535
vt 0.502042 0.185968
vt 0.504027 0.183582
vt 0.49815 0.180113
vt 0.502042 0.185968
vt 0.49815 0.180113
vt 0.491006 0.180312
vt 0.492964 0.186375
vt 0.502042 0.185968
vt 0.492964 0.186375
vt 0.493352 0.187996
vt 0.503007 0.187557
vt 0.492964 0.186375
vt 0.483812 0.186512
vt 0.483812 0.18814
vt 0.493352 0.187996
vt 0.492964 0.186375
vt 0.491006 0.180312
vt 0.483812 0.180366
vt 0.483812 0.186512
vt 0.483812 0.186512
vt 0.47466 0.186375
vt 0.474272 0.187996
vt 0.483812 0.18814
vt 0.483812 0.186512
vt 0.483812 0.180366
vt 0.476619 0.180312
vt 0.47466 0.186375
vt 0.47466 0.186375
vt 0.465582 0.185968
vt 0.464617 0.187557
vt 0.474272 0.187996
vt 0.47466 0.186375
vt 0.476619 0.180312
vt 0.469474 0.180113
vt 0.465582 0.185968
vt 0.469492 0.151116
vt 0.469474 0.180113
vt 0.476619 0.180312
vt 0.476633 0.151015
vt 0.476633 0.151015
vt 0.476619 0.180312
vt 0.483812 0.180366
vt 0.483812 0.150987
vt 0.483812 0.150987
vt 0.483812 0.180366
vt 0.491006 0.180312
vt 0.490991 0.151015
vt 0.490991 0.151015
vt 0.491006 0.180312
vt 0.49815 0.180113
vt 0.498132 0.151116
vt 0.483812 0.143311
vt 0.483812 0.135116
vt 0.47261 0.135116
vt 0.474308 0.143401
vt 0.47261 0.135116
vt 0.458036 0.13508
vt 0.464647 0.143676
vt 0.474308 0.143401
vt 0.458036 0.13508
vt 0.453839 0.136709
vt 0.462022 0.146638
vt 0.464647 0.143676
vt 0.453839 0.136709
vt 0.452146 0.140858
vt 0.462022 0.146638
vt 0.495014 0.135116
vt 0.495014 0.133277
vt 0.483812 0.133277
vt 0.483812 0.135116
vt 0.495014 0.135116
vt 0.509588 0.13508
vt 0.509963 0.133291
vt 0.495014 0.133277
vt 0.509588 0.13508
vt 0.513785 0.136709
vt 0.51497 0.135385
vt 0.509963 0.133291
vt 0.513785 0.136709
vt 0.515478 0.140858
vt 0.517089 0.140341
vt 0.51497 0.135385
vt 0.517089 0.192639
vt 0.517089 0.140341
vt 0.515478 0.140858
vt 0.51548 0.192492
vt 0.514982 0.197677
vt 0.517089 0.192639
vt 0.51548 0.192492
vt 0.513799 0.196733
vt 0.509994 0.199809
vt 0.514982 0.197677
vt 0.513799 0.196733
vt 0.50962 0.198404
vt 0.509994 0.199809
vt 0.50962 0.198404
vt 0.495014 0.198371
vt 0.495014 0.199822
vt 0.483812 0.198371
vt 0.483812 0.199822
vt 0.495014 0.199822
vt 0.495014 0.198371
vt 0.47261 0.198371
vt 0.47261 0.199822
vt 0.483812 0.199822
vt 0.483812 0.198371
vt 0.47261 0.198371
vt 0.457962 0.198392
vt 0.45763 0.199809
vt 0.47261 0.199822
vt 0.452642 0.197677
vt 0.45763 0.199809
vt 0.457962 0.198392
vt 0.453779 0.196687
vt 0.450535 0.192639
vt 0.452642 0.197677
vt 0.453779 0.196687
vt 0.452131 0.192452
vt 0.450535 0.192639
vt 0.452131 0.192452
vt 0.452146 0.140858
vt 0.450536 0.140341
vt 0.452654 0.135385
vt 0.450536 0.140341
vt 0.452146 0.140858
vt 0.453839 0.136709
vt 0.457661 0.133291
vt 0.452654 0.135385
vt 0.453839 0.136709
vt 0.458036 0.13508
vt 0.457661 0.133291
vt 0.458036 0.13508
vt 0.47261 0.135116
vt 0.47261 0.133277
vt 0.483812 0.135116
vt 0.483812 0.133277
vt 0.47261 0.133277
vt 0.47261 0.135116
s off
f 1/1/1 2/2/2 3/3/3
f 1/1/1 3/3/3 4/4/4
f 5/5/5 6/6/6 7/7/7
f 5/5/5 7/7/7 8/8/8
f 9/9/9 10/10/10 11/11/11
f 9/9/9 11/11/11 12/12/12
f 13/13/13 14/14/14 15/15/15
f 16/16/16 17/17/17 18/18/18
f 16/16/16 18/18/18 19/19/19
f 20/20/20 21/21/21 22/22/22
f 23/23/23 24/24/24 25/25/25
f 23/23/23 25/25/25 26/26/26
f 27/27/27 28/28/28 29/29/29
f 27/27/27 29/29/29 30/30/30
f 31/31/31 32/32/32 33/33/33
f 31/31/31 33/33/33 34/34/34
f 35/35/35 36/36/36 37/37/37
f 35/35/35 37/37/37 38/38/38
f 39/39/39 40/40/40 41/41/41
f 39/39/39 41/41/41 42/42/42
f 43/43/43 44/44/44 45/45/45
f 46/46/46 47/47/47 48/48/48
f 46/46/46 48/48/48 49/49/49
f 50/50/50 51/51/51 52/52/52
f 50/50/50 52/52/52 53/53/53
f 54/54/54 55/55/55 56/56/56
f 54/54/54 56/56/56 57/57/57
f 58/58/58 59/59/59 60/60/60
f 58/58/58 60/60/60 61/61/61
f 62/62/62 63/63/63 64/64/64
f 65/65/65 66/66/66 67/67/67
f 65/65/65 67/67/67 68/68/68
f 69/69/69 70/70/70 71/71/71
f 69/69/69 71/71/71 72/72/72
f 73/73/73 74/74/74 75/75/75
f 76/76/76 77/77/77 78/78/78
f 76/76/76 78/78/78 79/79/79
f 80/80/80 81/81/81 82/82/82
f 80/80/80 82/82/82 83/83/83
f 84/84/84 85/85/85 86/86/86
f 84/84/84 86/86/86 87/87/87
f 88/88/88 89/89/89 90/90/90
f 88/88/88 90/90/90 91/91/91
f 92/92/92 93/93/93 94/94/94
f 92/92/92 94/94/94 95/95/95
f 96/96/96 97/97/97 98/98/98
f 96/96/96 98/98/98 99/99/99
f 100/100/100 101/101/101 102/102/102
f 100/100/100 102/102/102 103/103/103
f 104/104/104 105/105/105 106/106/106
f 104/104/104 106/106/106 107/107/107
f 108/108/108 109/109/109 110/110/110
f 108/108/108 110/110/110 111/111/111
f 112/112/112 113/113/113 114/114/114
f 115/115/115 116/116/116 117/117/117
f 115/115/115 117/117/117 118/118/118
f 119/119/119 120/120/120 121/121/121
f 119/119/119 121/121/121 122/122/122
f 123/123/123 124/124/124 125/125/125
f 123/123/123 125/125/125 126/126/126
f 127/127/127 128/128/128 129/129/129
f 130/130/130 131/131/131 132/132/132
f 130/130/130 132/132/132 133/133/133
f 134/134/134 135/135/135 136/136/136
f 134/134/134 136/136/136 137/137/137
f 138/138/138 139/139/139 140/140/140
f 138/138/138 140/140/140 141/141/141
f 142/142/142 143/143/143 144/144/144
f 142/142/142 144/144/144 145/145/145
f 146/146/146 147/147/147 148/148/148
f 146/146/146 148/148/148 149/149/149
f 150/150/150 151/151/151 152/152/152
f 150/150/150 152/152/152 153/153/153
f 154/154/154 155/155/155 156/156/156
f 154/154/154 156/156/156 157/157/157
f 158/158/158 159/159/159 160/160/160
f 158/158/158 160/160/160 161/161/161
f 162/162/162 163/163/163 164/164/164
f 162/162/162 164/164/164 165/165/165
f 166/166/166 167/167/167 168/168/168
f 166/166/166 168/168/168 169/169/169
f 170/170/170 171/171/171 172/172/172
f 170/170/170 172/172/172 173/173/173
f 174/174/174 175/175/175 176/176/176
f 174/174/174 176/176/176 177/177/177
f 178/178/178 179/179/179 180/180/180
f 178/178/178 180/180/180 181/181/181
f 182/182/182 183/183/183 184/184/184
f 182/182/182 184/184/184 185/185/185
f 186/186/186 187/187/187 188/188/188
f 186/186/186 188/188/188 189/189/189
f 190/190/190 191/191/191 192/192/192
f 193/193/193 194/194/194 195/195/195
f 193/193/193 195/195/195 196/196/196
f 197/197/197 198/198/198 199/199/199
f 197/197/197 199/199/199 200/200/200
f 201/201/201 202/202/202 203/203/203
f 201/201/201 203/203/203 204/204/204
f 205/205/205 206/206/206 207/207/207
f 205/205/205 207/207/207 208/208/208
f 209/209/209 210/210/210 211/211/211
f 209/209/209 211/211/211 212/212/212
f 213/213/213 214/214/214 215/215/215
f 213/213/213 215/215/215 216/216/216
f 217/217/217 218/218/218 219/219/219
f 217/217/217 219/219/219 220/220/220
f 221/221/221 222/222/222 223/223/223
f 221/221/221 223/223/223 224/224/224
f 225/225/225 226/226/226 227/227/227
f 225/225/225 227/227/227 228/228/228
f 229/229/229 230/230/230 231/231/231
f 229/229/229 231/231/231 232/232/232
f 233/233/233 234/234/234 235/235/235
f 233/233/233 235/235/235 236/236/236
f 237/237/237 238/238/238 239/239/239
f 237/237/237 239/239/239 240/240/240
f 241/241/241 242/242/242 243/243/243
f 241/241/241 243/243/243 244/244/244
f 245/245/245 246/246/246 247/247/247
f 245/245/245 247/247/247 248/248/248
f 249/249/249 250/250/250 251/251/251
f 249/249/249 251/251/251 252/252/252
f 253/253/253 254/254/254 255/255/255
f 253/253/253 255/255/255 256/256/256
f 257/257/257 258/258/258 259/259/259
f 257/257/257 259/259/259 260/260/260
f 261/261/261 262/262/262 263/263/263
f 261/261/261 263/263/263 264/264/264
