v -0.06026 0.169107 -0.023909
v -0.06026 0.169083 -0.020862
v -0.046122 0.16768 -0.023909
v -0.063775 0.169629 -0.034454
v -0.06026 0.169107 -0.023909
v -0.06026 0.169225 -0.034454
v -0.063775 0.169629 -0.034454
v -0.06026 0.169083 -0.020862
v -0.06026 0.169107 -0.023909
v -0.06026 0.169083 -0.020862
v -0.063775 0.169629 -0.034454
v -0.063775 0.16949 -0.009849
v -0.06026 0.169011 -0.009849
v -0.06026 0.169083 -0.020862
v -0.063775 0.16949 -0.009849
v -0.046122 0.167649 -0.020862
v -0.046122 0.16768 -0.023909
v -0.06026 0.169083 -0.020862
v -0.046122 0.167649 -0.020862
v -0.046122 0.167537 -0.009849
v -0.042607 0.167417 -0.009849
v -0.042607 0.167417 -0.009849
v -0.046122 0.16768 -0.023909
v -0.046122 0.167649 -0.020862
v -0.046122 0.16768 -0.023909
v -0.042607 0.167417 -0.009849
v -0.042607 0.167693 -0.034454
v -0.046122 0.167801 -0.034454
v -0.046122 0.16768 -0.023909
v -0.042607 0.167693 -0.034454
vn 0.1004 0.9949 0.0078
vn 0.1004 0.9949 0.0078
vn 0.1004 0.9949 0.0078
vn 0.1143 0.9934 0.0111
vn 0.1143 0.9934 0.0111
vn 0.1143 0.9934 0.0111
vn 0.1239 0.9923 0.0078
vn 0.1239 0.9923 0.0078
vn 0.1239 0.9923 0.0078
vn 0.1322 0.9912 0.0056
vn 0.1322 0.9912 0.0056
vn 0.1322 0.9912 0.0056
vn 0.1348 0.9909 0.0065
vn 0.1348 0.9909 0.0065
vn 0.1348 0.9909 0.0065
vn 0.1009 0.9948 0.0101
vn 0.1009 0.9948 0.0101
vn 0.1009 0.9948 0.0101
vn 0.0342 0.9994 0.0101
vn 0.0342 0.9994 0.0101
vn 0.0342 0.9994 0.0101
vn 0.0341 0.9994 0.0101
vn 0.0341 0.9994 0.0101
vn 0.0341 0.9994 0.0101
vn 0.0298 0.9995 0.0112
vn 0.0298 0.9995 0.0112
vn 0.0298 0.9995 0.0112
vn 0.0306 0.9995 0.0115
vn 0.0306 0.9995 0.0115
vn 0.0306 0.9995 0.0115
vt 0.468523 0.504806
vt 0.468523 0.506397
vt 0.475908 0.504806
vt 0.466687 0.499298
vt 0.468523 0.504806
vt 0.468523 0.499298
vt 0.466687 0.499298
vt 0.468523 0.506397
vt 0.468523 0.504806
vt 0.468523 0.506397
vt 0.466687 0.499298
vt 0.466687 0.51215
vt 0.468523 0.51215
vt 0.468523 0.506397
vt 0.466687 0.51215
vt 0.475908 0.506397
vt 0.475908 0.504806
vt 0.468523 0.506397
vt 0.475908 0.506397
vt 0.475908 0.51215
vt 0.477744 0.51215
vt 0.477744 0.51215
vt 0.475908 0.504806
vt 0.475908 0.506397
vt 0.475908 0.504806
vt 0.477744 0.51215
vt 0.477744 0.499298
vt 0.475908 0.499298
vt 0.475908 0.504806
vt 0.477744 0.499298
s off
f 1/1/1 2/2/2 3/3/3
f 4/4/4 5/5/5 6/6/6
f 7/7/7 8/8/8 9/9/9
f 10/10/10 11/11/11 12/12/12
f 13/13/13 14/14/14 15/15/15
f 16/16/16 17/17/17 18/18/18
f 19/19/19 20/20/20 21/21/21
f 22/22/22 23/23/23 24/24/24
f 25/25/25 26/26/26 27/27/27
f 28/28/28 29/29/29 30/30/30
