v 0.071051 0.168796 -0.031407
v 0.079558 0.167897 -0.031407
v 0.070845 0.168857 -0.034437
v 0.079538 0.167746 -0.01635
v 0.083145 0.167552 -0.016755
v 0.079558 0.167897 -0.031407
v 0.083151 0.167751 -0.034454
v 0.070845 0.168857 -0.034437
v 0.079558 0.167897 -0.031407
v 0.079558 0.167897 -0.031407
v 0.083145 0.167552 -0.016755
v 0.083151 0.167751 -0.034454
v 0.083145 0.167552 -0.016755
v 0.079538 0.167746 -0.01635
v 0.082522 0.16754 -0.013485
v 0.082522 0.16754 -0.013485
v 0.07869 0.167812 -0.013973
v 0.080401 0.167598 -0.01078
v 0.07869 0.167812 -0.013973
v 0.082522 0.16754 -0.013485
v 0.079538 0.167746 -0.01635
v 0.07869 0.167812 -0.013973
v 0.076999 0.167978 -0.012771
v 0.080401 0.167598 -0.01078
v 0.073945 0.1683 -0.012678
v 0.076357 0.168012 -0.009484
v 0.076999 0.167978 -0.012771
v 0.076999 0.167978 -0.012771
v 0.076357 0.168012 -0.009484
v 0.080401 0.167598 -0.01078
v 0.073945 0.1683 -0.012678
v 0.072871 0.168384 -0.009863
v 0.076357 0.168012 -0.009484
v 0.073945 0.1683 -0.012678
v 0.070216 0.168678 -0.011072
v 0.072871 0.168384 -0.009863
v 0.070216 0.168678 -0.011072
v 0.071765 0.168542 -0.013843
v 0.068198 0.168934 -0.013086
v 0.073945 0.1683 -0.012678
v 0.071765 0.168542 -0.013843
v 0.070216 0.168678 -0.011072
v 0.068198 0.168934 -0.013086
v 0.071765 0.168542 -0.013843
v 0.070245 0.168719 -0.015522
v 0.070654 0.168838 -0.031407
v 0.071051 0.168796 -0.031407
vn 0.105 0.9944 0.0129
vn 0.105 0.9944 0.0129
vn 0.105 0.9944 0.0129
vn 0.055 0.9984 0.0101
vn 0.055 0.9984 0.0101
vn 0.055 0.9984 0.0101
vn 0.0894 0.9943 0.0578
vn 0.0894 0.9943 0.0578
vn 0.0894 0.9943 0.0578
vn 0.0502 0.9987 0.0113
vn 0.0502 0.9987 0.0113
vn 0.0502 0.9987 0.0113
vn 0.0554 0.9984 0.0142
vn 0.0554 0.9984 0.0142
vn 0.0554 0.9984 0.0142
vn 0.0668 0.9973 0.0308
vn 0.0668 0.9973 0.0308
vn 0.0668 0.9973 0.0308
vn 0.071 0.9975 -0.0021
vn 0.071 0.9975 -0.0021
vn 0.071 0.9975 -0.0021
vn 0.1051 0.9944 0.0101
vn 0.1051 0.9944 0.0101
vn 0.1051 0.9944 0.0101
vn 0.105 0.9944 0.0101
vn 0.105 0.9944 0.0101
vn 0.105 0.9944 0.0101
vn 0.105 0.9944 0.0101
vn 0.105 0.9944 0.0101
vn 0.105 0.9944 0.0101
vn 0.105 0.9944 0.0101
vn 0.105 0.9944 0.0101
vn 0.105 0.9944 0.0101
vn 0.1051 0.9944 0.0102
vn 0.1051 0.9944 0.0102
vn 0.1051 0.9944 0.0102
vn 0.1123 0.9936 0.0141
vn 0.1123 0.9936 0.0141
vn 0.1123 0.9936 0.0141
vn 0.1051 0.9944 0.01
vn 0.1051 0.9944 0.01
vn 0.1051 0.9944 0.01
vn 0.1104 0.9939 0.0052
vn 0.1104 0.9939 0.0052
vn 0.1104 0.9939 0.0052
vn 0 0 0
vn 0 0 0
vt 0.537114 0.500889
vt 0.541558 0.500889
vt 0.537007 0.499307
vt 0.541547 0.508755
vt 0.543432 0.508543
vt 0.541558 0.500889
vt 0.543435 0.499298
vt 0.537007 0.499307
vt 0.541558 0.500889
vt 0.541558 0.500889
vt 0.543432 0.508543
vt 0.543435 0.499298
vt 0.543432 0.508543
vt 0.541547 0.508755
vt 0.543106 0.510251
vt 0.543106 0.510251
vt 0.541104 0.509996
vt 0.541999 0.511664
vt 0.541104 0.509996
vt 0.543106 0.510251
vt 0.541547 0.508755
vt 0.541104 0.509996
vt 0.540221 0.510624
vt 0.541999 0.511664
vt 0.538626 0.510672
vt 0.539886 0.512341
vt 0.540221 0.510624
vt 0.540221 0.510624
vt 0.539886 0.512341
vt 0.541999 0.511664
vt 0.538626 0.510672
vt 0.538065 0.512143
vt 0.539886 0.512341
vt 0.538626 0.510672
vt 0.536678 0.511511
vt 0.538065 0.512143
vt 0.536678 0.511511
vt 0.537487 0.510064
vt 0.535624 0.510459
vt 0.538626 0.510672
vt 0.537487 0.510064
vt 0.536678 0.511511
vt 0.535624 0.510459
vt 0.537487 0.510064
vt 0.536693 0.509187
vt 0 1
vt 0 1
s off
f 1/1/1 2/2/2 3/3/3
f 4/4/4 5/5/5 6/6/6
f 7/7/7 8/8/8 9/9/9
f 10/10/10 11/11/11 12/12/12
f 13/13/13 14/14/14 15/15/15
f 16/16/16 17/17/17 18/18/18
f 19/19/19 20/20/20 21/21/21
f 22/22/22 23/23/23 24/24/24
f 25/25/25 26/26/26 27/27/27
f 28/28/28 29/29/29 30/30/30
f 31/31/31 32/32/32 33/33/33
f 34/34/34 35/35/35 36/36/36
f 37/37/37 38/38/38 39/39/39
f 40/40/40 41/41/41 42/42/42
f 43/43/43 44/44/44 45/45/45
