v 0.196959 0.16887 -0.020706
v 0.203754 0.16818 -0.02344
v 0.210315 0.167766 -0.034454
v 0.210315 0.167766 -0.034454
v 0.203754 0.16818 -0.02344
v 0.214299 0.167644 -0.034454
v 0.214924 0.167343 -0.009849
v 0.203754 0.16818 -0.02344
v 0.210862 0.167479 -0.009849
v 0.201411 0.168402 -0.020862
v 0.203754 0.16818 -0.02344
v 0.196959 0.16887 -0.020706
v 0.203754 0.16818 -0.02344
v 0.201411 0.168402 -0.020862
v 0.210862 0.167479 -0.009849
v 0.201411 0.168402 -0.020862
v 0.196959 0.16887 -0.020706
v 0.196959 0.168825 -0.016254
v 0.193443 0.169202 -0.009849
v 0.196959 0.168778 -0.009849
v 0.196959 0.168825 -0.016254
v 0.196959 0.16887 -0.020706
v 0.193443 0.169392 -0.034454
v 0.193443 0.169202 -0.009849
v 0.196959 0.168825 -0.016254
v 0.196959 0.169019 -0.034454
v 0.193443 0.169392 -0.034454
v 0.196959 0.16887 -0.020706
v 0.214924 0.167343 -0.009849
v 0.214924 0.167343 -0.009849
vn 0.1129 0.9932 0.0299
vn 0.1129 0.9932 0.0299
vn 0.1129 0.9932 0.0299
vn 0.0306 0.9993 -0.0194
vn 0.0306 0.9993 -0.0194
vn 0.0306 0.9993 -0.0194
vn 0.0335 0.9989 0.034
vn 0.0335 0.9989 0.034
vn 0.0335 0.9989 0.034
vn 0.105 0.9944 0.0101
vn 0.105 0.9944 0.0101
vn 0.105 0.9944 0.0101
vn 0.0956 0.9954 0.0014
vn 0.0956 0.9954 0.0014
vn 0.0956 0.9954 0.0014
vn 0.105 0.9944 0.0101
vn 0.105 0.9944 0.0101
vn 0.105 0.9944 0.0101
vn 0.1197 0.9928 0.0073
vn 0.1197 0.9928 0.0073
vn 0.1197 0.9928 0.0073
vn 0.1185 0.9929 0.008
vn 0.1185 0.9929 0.008
vn 0.1185 0.9929 0.008
vn 0.1185 0.9929 0.008
vn 0.1054 0.9944 0.0108
vn 0.1054 0.9944 0.0108
vn 0.1054 0.9944 0.0108
vn 0 0 0
vn 0 0 0
vt 0.602883 0.506479
vt 0.606433 0.505051
vt 0.60986 0.499298
vt 0.60986 0.499298
vt 0.606433 0.505051
vt 0.611941 0.499298
vt 0.612267 0.51215
vt 0.606433 0.505051
vt 0.610146 0.51215
vt 0.605209 0.506397
vt 0.606433 0.505051
vt 0.602883 0.506479
vt 0.606433 0.505051
vt 0.605209 0.506397
vt 0.610146 0.51215
vt 0.605209 0.506397
vt 0.602883 0.506479
vt 0.602883 0.508805
vt 0.601047 0.51215
vt 0.602883 0.51215
vt 0.602883 0.508805
vt 0.602883 0.506479
vt 0.601047 0.499298
vt 0.601047 0.51215
vt 0.602883 0.508805
vt 0.602883 0.499298
vt 0.601047 0.499298
vt 0.602883 0.506479
vt 0 1
vt 0 1
s off
f 1/1/1 2/2/2 3/3/3
f 4/4/4 5/5/5 6/6/6
f 7/7/7 8/8/8 9/9/9
f 10/10/10 11/11/11 12/12/12
f 13/13/13 14/14/14 15/15/15
f 16/16/16 17/17/17 18/18/18
f 19/19/19 20/20/20 21/21/21
f 22/22/22 23/23/23 24/24/24
f 22/22/22 24/24/24 25/25/25
f 26/26/26 27/27/27 28/28/28
