v 0.326544 0.168813 -0.034454
v 0.323029 0.169186 -0.034454
v 0.323029 0.168967 -0.009849
v 0.326544 0.168586 -0.012973
v 0.326544 0.168813 -0.034454
v 0.323029 0.168967 -0.009849
v 0.339823 0.167466 -0.012973
v 0.326544 0.168586 -0.012973
v 0.323029 0.168967 -0.009849
v 0.339823 0.167434 -0.009849
vn 0.1054 0.9944 0.0088
vn 0.1054 0.9944 0.0088
vn 0.1054 0.9944 0.0088
vn 0.117 0.9931 0.0105
vn 0.117 0.9931 0.0105
vn 0.117 0.9931 0.0105
vn 0.0879 0.9961 -0.0063
vn 0.0879 0.9961 -0.0063
vn 0.0879 0.9961 -0.0063
vn 0.0879 0.9961 -0.0063
vt 0.670573 0.499298
vt 0.668737 0.499298
vt 0.668737 0.51215
vt 0.670573 0.510518
vt 0.670573 0.499298
vt 0.668737 0.51215
vt 0.677509 0.510518
vt 0.670573 0.510518
vt 0.668737 0.51215
vt 0.677509 0.51215
s off
f 1/1/1 2/2/2 3/3/3
f 4/4/4 5/5/5 6/6/6
f 7/7/7 8/8/8 9/9/9
f 7/7/7 9/9/9 10/10/10
