v 0.138454 0.163339 0.110442
v 0.148061 0.161497 0.099819
v 0.148608 0.160784 0.093179
v 0.148061 0.161497 0.099819
v 0.151498 0.163288 0.117784
v 0.151498 0.160703 0.093179
v 0.148608 0.160784 0.093179
v 0.148139 0.163402 0.117784
v 0.151498 0.163288 0.117784
v 0.148061 0.161497 0.099819
v 0.138454 0.163339 0.110442
v 0.139235 0.163728 0.114816
v 0.148061 0.161497 0.099819
v 0.137594 0.16389 0.114816
v 0.139235 0.163728 0.114816
v 0.138454 0.163339 0.110442
v 0.138454 0.163339 0.110442
v 0.12869 0.163233 0.099975
v 0.137594 0.16389 0.114816
v 0.125331 0.165732 0.117784
v 0.12869 0.165234 0.117784
v 0.12869 0.163233 0.099975
v 0.138454 0.163339 0.110442
v 0.128221 0.162534 0.093179
v 0.12869 0.163233 0.099975
v 0.12869 0.163233 0.099975
v 0.128221 0.162534 0.093179
v 0.125331 0.165732 0.117784
v 0.128221 0.162534 0.093179
v 0.125331 0.162967 0.093179
v 0.125331 0.165732 0.117784
vn 0.0796 0.9918 -0.0999
vn 0.0796 0.9918 -0.0999
vn 0.0796 0.9918 -0.0999
vn 0.0281 0.9941 -0.1044
vn 0.0281 0.9941 -0.1044
vn 0.0281 0.9941 -0.1044
vn 0.0281 0.9941 -0.1044
vn 0.0339 0.9938 -0.1055
vn 0.0339 0.9938 -0.1055
vn 0.0339 0.9938 -0.1055
vn 0.0772 0.9918 -0.1021
vn 0.0772 0.9918 -0.1021
vn 0.0772 0.9918 -0.1021
vn 0.0975 0.9896 -0.1055
vn 0.0975 0.9896 -0.1055
vn 0.0975 0.9896 -0.1055
vn 0.1015 0.9893 -0.1047
vn 0.1015 0.9893 -0.1047
vn 0.1015 0.9893 -0.1047
vn 0.1457 0.9831 -0.1105
vn 0.1457 0.9831 -0.1105
vn 0.1457 0.9831 -0.1105
vn 0.106 0.9884 -0.1089
vn 0.106 0.9884 -0.1089
vn 0.106 0.9884 -0.1089
vn 0.1434 0.9834 -0.111
vn 0.1434 0.9834 -0.111
vn 0.1434 0.9834 -0.111
vn 0.1473 0.9829 -0.1104
vn 0.1473 0.9829 -0.1104
vn 0.1473 0.9829 -0.1104
vt 0.572323 0.574985
vt 0.577341 0.569436
vt 0.577627 0.565968
vt 0.577341 0.569436
vt 0.579137 0.57882
vt 0.579137 0.565968
vt 0.577627 0.565968
vt 0.577382 0.57882
vt 0.579137 0.57882
vt 0.577341 0.569436
vt 0.572323 0.574985
vt 0.572731 0.57727
vt 0.577341 0.569436
vt 0.571874 0.57727
vt 0.572731 0.57727
vt 0.572323 0.574985
vt 0.572323 0.574985
vt 0.567222 0.569517
vt 0.571874 0.57727
vt 0.565468 0.57882
vt 0.567222 0.57882
vt 0.567222 0.569517
vt 0.572323 0.574985
vt 0.566978 0.565968
vt 0.567222 0.569517
vt 0.567222 0.569517
vt 0.566978 0.565968
vt 0.565468 0.57882
vt 0.566978 0.565968
vt 0.565468 0.565968
vt 0.565468 0.57882
s off
f 1/1/1 2/2/2 3/3/3
f 4/4/4 5/5/5 6/6/6
f 4/4/4 6/6/6 7/7/7
f 8/8/8 9/9/9 10/10/10
f 11/11/11 12/12/12 13/13/13
f 14/14/14 15/15/15 16/16/16
f 17/17/17 18/18/18 19/19/19
f 20/20/20 21/21/21 22/22/22
f 23/23/23 24/24/24 25/25/25
f 26/26/26 27/27/27 28/28/28
f 29/29/29 30/30/30 31/31/31
