v 0.674545 0.165508 0.247342
v 0.677203 0.165119 0.24673
v 0.676871 0.164325 0.241222
v 0.674545 0.164589 0.241222
v 0.695674 0.165514 0.261074
v 0.695674 0.163318 0.247342
v 0.693016 0.163472 0.24673
v 0.692951 0.165798 0.261074
v 0.695674 0.163318 0.247342
v 0.695674 0.162465 0.241222
v 0.693348 0.162666 0.241222
v 0.693016 0.163472 0.24673
v 0.674545 0.167811 0.261074
v 0.677268 0.167482 0.261074
v 0.677203 0.165119 0.24673
v 0.674545 0.165508 0.247342
v 0.693348 0.162666 0.241222
v 0.685143 0.165632 0.255164
v 0.685748 0.16615 0.258664
v 0.693016 0.163472 0.24673
v 0.676871 0.164325 0.241222
v 0.677203 0.165119 0.24673
v 0.684443 0.166286 0.258664
v 0.685143 0.165632 0.255164
v 0.684443 0.166286 0.258664
v 0.685748 0.16615 0.258664
v 0.685143 0.165632 0.255164
v 0.701629 0.162136 0.241222
v 0.704466 0.162331 0.243689
v 0.715639 0.161521 0.241222
v 0.701629 0.162136 0.241222
v 0.701629 0.165288 0.261074
v 0.704474 0.163573 0.252197
v 0.704474 0.163573 0.252197
v 0.71442 0.163045 0.252197
v 0.71442 0.162656 0.249787
v 0.704466 0.162331 0.243689
v 0.715639 0.161821 0.243689
v 0.715639 0.161521 0.241222
v 0.704474 0.163181 0.249787
v 0.704474 0.163573 0.252197
v 0.71442 0.162656 0.249787
v 0.704474 0.163181 0.249787
v 0.701629 0.162136 0.241222
v 0.704474 0.163573 0.252197
v 0.704466 0.16472 0.258607
v 0.704474 0.163573 0.252197
v 0.701629 0.165288 0.261074
v 0.716037 0.164548 0.261074
v 0.716037 0.164106 0.258607
v 0.704466 0.16472 0.258607
v 0.716037 0.164548 0.261074
v 0.704466 0.16472 0.258607
v 0.701629 0.165288 0.261074
v 0.704474 0.163181 0.249787
v 0.704466 0.162331 0.243689
v 0.701629 0.162136 0.241222
v 0.723467 0.164678 0.261074
v 0.723465 0.162421 0.246338
v 0.720631 0.161649 0.241222
v 0.720631 0.164584 0.261074
v 0.734851 0.164427 0.255996
v 0.737704 0.165421 0.261074
v 0.737704 0.162404 0.241222
v 0.734868 0.162332 0.241222
v 0.737704 0.165421 0.261074
v 0.734851 0.164427 0.255996
v 0.735379 0.165297 0.261074
v 0.723465 0.162421 0.246338
v 0.722957 0.161771 0.241222
v 0.720631 0.161649 0.241222
v 0.757433 0.166346 0.254376
v 0.760139 0.166764 0.255074
v 0.760279 0.164584 0.241222
v 0.757528 0.16433 0.241222
v 0.743631 0.165024 0.255073
v 0.746421 0.165195 0.254376
v 0.746326 0.163227 0.241222
v 0.74349 0.162932 0.241222
v 0.74561 0.165931 0.259128
v 0.747697 0.165832 0.257288
v 0.746421 0.165195 0.254376
v 0.743631 0.165024 0.255073
v 0.75749 0.167255 0.259601
v 0.758897 0.167136 0.258064
v 0.756254 0.166702 0.257151
v 0.753853 0.166702 0.258604
v 0.754728 0.167216 0.261049
v 0.756254 0.166702 0.257151
v 0.758897 0.167136 0.258064
v 0.760139 0.166764 0.255074
v 0.757433 0.166346 0.254376
v 0.754728 0.167216 0.261049
v 0.753853 0.166702 0.258604
v 0.750363 0.166353 0.258691
v 0.749609 0.166703 0.261176
v 0.749609 0.166703 0.261176
v 0.750363 0.166353 0.258691
v 0.747697 0.165832 0.257288
v 0.74561 0.165931 0.259128
v 0.723465 0.162421 0.246338
v 0.735379 0.165297 0.261074
v 0.734851 0.164427 0.255996
v 0.722957 0.161771 0.241222
vn 0.1106 0.9828 -0.148
vn 0.1106 0.9828 -0.148
vn 0.1106 0.9828 -0.148
vn 0.1106 0.9828 -0.148
vn 0.098 0.9826 -0.158
vn 0.098 0.9826 -0.158
vn 0.098 0.9826 -0.158
vn 0.098 0.9826 -0.158
vn 0.0873 0.9865 -0.1382
vn 0.0873 0.9865 -0.1382
vn 0.0873 0.9865 -0.1382
vn 0.0873 0.9865 -0.1382
vn 0.1123 0.9802 -0.1631
vn 0.1123 0.9802 -0.1631
vn 0.1123 0.9802 -0.1631
vn 0.1123 0.9802 -0.1631
vn 0.1114 0.9827 -0.1477
vn 0.1114 0.9827 -0.1477
vn 0.1114 0.9827 -0.1477
vn 0.1114 0.9827 -0.1477
vn 0.1 0.983 -0.1539
vn 0.1 0.983 -0.1539
vn 0.1 0.983 -0.1539
vn 0.1 0.983 -0.1539
vn 0.1024 0.9813 -0.1629
vn 0.1024 0.9813 -0.1629
vn 0.1024 0.9813 -0.1629
vn 0.0435 0.9908 -0.1282
vn 0.0435 0.9908 -0.1282
vn 0.0435 0.9908 -0.1282
vn 0.1056 0.9821 -0.1559
vn 0.1056 0.9821 -0.1559
vn 0.1056 0.9821 -0.1559
vn 0.0523 0.9859 -0.159
vn 0.0523 0.9859 -0.159
vn 0.0523 0.9859 -0.159
vn 0.0452 0.9917 -0.1207
vn 0.0452 0.9917 -0.1207
vn 0.0452 0.9917 -0.1207
vn 0.052 0.9857 -0.1602
vn 0.052 0.9857 -0.1602
vn 0.052 0.9857 -0.1602
vn 0.1195 0.98 -0.1593
vn 0.1195 0.98 -0.1593
vn 0.1195 0.98 -0.1593
vn 0.0437 0.9834 -0.176
vn 0.0437 0.9834 -0.176
vn 0.0437 0.9834 -0.176
vn 0.0522 0.983 -0.176
vn 0.0522 0.983 -0.176
vn 0.0522 0.983 -0.176
vn 0.0506 0.9844 -0.1684
vn 0.0506 0.9844 -0.1684
vn 0.0506 0.9844 -0.1684
vn 0.0522 0.9891 -0.138
vn 0.0522 0.9891 -0.138
vn 0.0522 0.9891 -0.138
vn -0.017 0.9888 -0.1484
vn -0.017 0.9888 -0.1484
vn -0.017 0.9888 -0.1484
vn -0.017 0.9888 -0.1484
vn -0.0548 0.9878 -0.1459
vn -0.0548 0.9878 -0.1459
vn -0.0548 0.9878 -0.1459
vn -0.0548 0.9878 -0.1459
vn -0.0522 0.9852 -0.1634
vn -0.0522 0.9852 -0.1634
vn -0.0522 0.9852 -0.1634
vn -0.0521 0.9913 -0.1207
vn -0.0521 0.9913 -0.1207
vn -0.0521 0.9913 -0.1207
vn -0.1014 0.9829 -0.1536
vn -0.1014 0.9829 -0.1536
vn -0.1014 0.9829 -0.1536
vn -0.1014 0.9829 -0.1536
vn -0.0997 0.9841 -0.1471
vn -0.0997 0.9841 -0.1471
vn -0.0997 0.9841 -0.1471
vn -0.0997 0.9841 -0.1471
vn -0.1024 0.9802 -0.1694
vn -0.1024 0.9802 -0.1694
vn -0.1024 0.9802 -0.1694
vn -0.1024 0.9802 -0.1694
vn -0.1024 0.9802 -0.1694
vn -0.1024 0.9802 -0.1694
vn -0.1024 0.9802 -0.1694
vn -0.1024 0.9802 -0.1694
vn -0.1024 0.9802 -0.1694
vn -0.1055 0.9801 -0.1682
vn -0.1055 0.9801 -0.1682
vn -0.1055 0.9801 -0.1682
vn -0.1055 0.9801 -0.1682
vn -0.1024 0.9802 -0.1694
vn -0.1024 0.9802 -0.1694
vn -0.1024 0.9802 -0.1694
vn -0.1024 0.9802 -0.1694
vn -0.1024 0.9802 -0.1694
vn -0.1024 0.9802 -0.1694
vn -0.1024 0.9802 -0.1694
vn -0.1024 0.9802 -0.1694
vn -0.0538 0.9884 -0.1419
vn -0.0538 0.9884 -0.1419
vn -0.0538 0.9884 -0.1419
vn -0.0538 0.9884 -0.1419
vt 0.852355 0.646496
vt 0.853743 0.646177
vt 0.853569 0.643299
vt 0.852355 0.643299
vt 0.863391 0.653669
vt 0.863391 0.646496
vt 0.862003 0.646177
vt 0.861969 0.653669
vt 0.863391 0.646496
vt 0.863391 0.643299
vt 0.862176 0.643299
vt 0.862003 0.646177
vt 0.852355 0.653669
vt 0.853777 0.653669
vt 0.853743 0.646177
vt 0.852355 0.646496
vt 0.862176 0.643299
vt 0.85789 0.650582
vt 0.858206 0.65241
vt 0.862003 0.646177
vt 0.853569 0.643299
vt 0.853743 0.646177
vt 0.857525 0.65241
vt 0.85789 0.650582
vt 0.857525 0.65241
vt 0.858206 0.65241
vt 0.85789 0.650582
vt 0.866502 0.643299
vt 0.867984 0.644588
vt 0.87382 0.643299
vt 0.866502 0.643299
vt 0.866502 0.653669
vt 0.867988 0.649032
vt 0.867988 0.649032
vt 0.873183 0.649032
vt 0.873183 0.647773
vt 0.867984 0.644588
vt 0.87382 0.644588
vt 0.87382 0.643299
vt 0.867988 0.647773
vt 0.867988 0.649032
vt 0.873183 0.647773
vt 0.867988 0.647773
vt 0.866502 0.643299
vt 0.867988 0.649032
vt 0.867984 0.65238
vt 0.867988 0.649032
vt 0.866502 0.653669
vt 0.874028 0.653669
vt 0.874028 0.65238
vt 0.867984 0.65238
vt 0.874028 0.653669
vt 0.867984 0.65238
vt 0.866502 0.653669
vt 0.867988 0.647773
vt 0.867984 0.644588
vt 0.866502 0.643299
vt 0.877909 0.653669
vt 0.877908 0.645972
vt 0.876428 0.643299
vt 0.876428 0.653669
vt 0.883856 0.651016
vt 0.885346 0.653669
vt 0.885346 0.643299
vt 0.883865 0.643299
vt 0.885346 0.653669
vt 0.883856 0.651016
vt 0.884131 0.653669
vt 0.877908 0.645972
vt 0.877643 0.643299
vt 0.876428 0.643299
vt 0.895652 0.65017
vt 0.897065 0.650535
vt 0.897138 0.643299
vt 0.895701 0.643299
vt 0.888442 0.650535
vt 0.889899 0.65017
vt 0.88985 0.643299
vt 0.888368 0.643299
vt 0.889476 0.652653
vt 0.890566 0.651691
vt 0.889899 0.65017
vt 0.888442 0.650535
vt 0.895681 0.6529
vt 0.896417 0.652097
vt 0.895036 0.65162
vt 0.893782 0.652379
vt 0.894239 0.653656
vt 0.895036 0.65162
vt 0.896417 0.652097
vt 0.897065 0.650535
vt 0.895652 0.65017
vt 0.894239 0.653656
vt 0.893782 0.652379
vt 0.891958 0.652424
vt 0.891565 0.653722
vt 0.891565 0.653722
vt 0.891958 0.652424
vt 0.890566 0.651691
vt 0.889476 0.652653
vt 0.877908 0.645972
vt 0.884131 0.653669
vt 0.883856 0.651016
vt 0.877643 0.643299
s off
f 1/1/1 2/2/2 3/3/3
f 1/1/1 3/3/3 4/4/4
f 5/5/5 6/6/6 7/7/7
f 5/5/5 7/7/7 8/8/8
f 9/9/9 10/10/10 11/11/11
f 9/9/9 11/11/11 12/12/12
f 13/13/13 14/14/14 15/15/15
f 13/13/13 15/15/15 16/16/16
f 17/17/17 18/18/18 19/19/19
f 17/17/17 19/19/19 20/20/20
f 21/21/21 22/22/22 23/23/23
f 21/21/21 23/23/23 24/24/24
f 25/25/25 26/26/26 27/27/27
f 28/28/28 29/29/29 30/30/30
f 31/31/31 32/32/32 33/33/33
f 34/34/34 35/35/35 36/36/36
f 37/37/37 38/38/38 39/39/39
f 40/40/40 41/41/41 42/42/42
f 43/43/43 44/44/44 45/45/45
f 46/46/46 47/47/47 48/48/48
f 49/49/49 50/50/50 51/51/51
f 52/52/52 53/53/53 54/54/54
f 55/55/55 56/56/56 57/57/57
f 58/58/58 59/59/59 60/60/60
f 58/58/58 60/60/60 61/61/61
f 62/62/62 63/63/63 64/64/64
f 62/62/62 64/64/64 65/65/65
f 66/66/66 67/67/67 68/68/68
f 69/69/69 70/70/70 71/71/71
f 72/72/72 73/73/73 74/74/74
f 72/72/72 74/74/74 75/75/75
f 76/76/76 77/77/77 78/78/78
f 76/76/76 78/78/78 79/79/79
f 80/80/80 81/81/81 82/82/82
f 80/80/80 82/82/82 83/83/83
f 87/87/87 88/88/88 84/84/84
f 84/84/84 85/85/85 86/86/86
f 86/86/86 87/87/87 84/84/84
f 89/89/89 90/90/90 91/91/91
f 89/89/89 91/91/91 92/92/92
f 93/93/93 94/94/94 95/95/95
f 93/93/93 95/95/95 96/96/96
f 97/97/97 98/98/98 99/99/99
f 97/97/97 99/99/99 100/100/100
f 101/101/101 102/102/102 103/103/103
f 101/101/101 103/103/103 104/104/104
