v 0.467832 0.197616 -0.215158
v 0.460594 0.133195 -0.192236
v 0.489121 0.133195 -0.192236
v 0.489264 0.19488 -0.214185
v 0.489264 0.19488 -0.214185
v 0.489121 0.133195 -0.192236
v 0.510566 0.133195 -0.192236
v 0.510566 0.193972 -0.213862
v 0.510566 0.193972 -0.213862
v 0.510566 0.133195 -0.192236
v 0.532012 0.133195 -0.192236
v 0.531869 0.19488 -0.214185
v 0.532012 0.133195 -0.192236
v 0.560538 0.133195 -0.192236
v 0.553301 0.197616 -0.215158
v 0.531869 0.19488 -0.214185
v 0.560538 0.133195 -0.192236
v 0.569316 0.133317 -0.195955
v 0.553301 0.197616 -0.215158
v 0.569316 0.133317 -0.195955
v 0.572952 0.133612 -0.204932
v 0.558993 0.199015 -0.221933
v 0.553301 0.197616 -0.215158
v 0.558993 0.199015 -0.221933
v 0.572952 0.133612 -0.204932
v 0.572952 0.136889 -0.304649
v 0.558999 0.201763 -0.306452
v 0.558999 0.201763 -0.306452
v 0.572952 0.136889 -0.304649
v 0.569311 0.137174 -0.313341
v 0.553207 0.201044 -0.312449
v 0.558999 0.201763 -0.306452
v 0.569311 0.137174 -0.313341
v 0.560521 0.137293 -0.316941
v 0.553207 0.201044 -0.312449
v 0.560521 0.137293 -0.316941
v 0.532012 0.137293 -0.316941
v 0.531775 0.199117 -0.312585
v 0.531775 0.199117 -0.312585
v 0.532012 0.137293 -0.316941
v 0.510566 0.137293 -0.316941
v 0.510566 0.19848 -0.31263
v 0.510566 0.19848 -0.31263
v 0.510566 0.137293 -0.316941
v 0.489121 0.137293 -0.316941
v 0.489358 0.199117 -0.312585
v 0.489121 0.137293 -0.316941
v 0.460612 0.137293 -0.316941
v 0.467926 0.201044 -0.31245
v 0.489358 0.199117 -0.312585
v 0.460612 0.137293 -0.316941
v 0.451822 0.137174 -0.313341
v 0.462133 0.201763 -0.306452
v 0.467926 0.201044 -0.31245
v 0.469954 0.203449 -0.309597
v 0.490222 0.201611 -0.309715
v 0.489358 0.199117 -0.312585
v 0.467926 0.201044 -0.31245
v 0.465372 0.20401 -0.304802
v 0.469954 0.203449 -0.309597
v 0.467926 0.201044 -0.31245
v 0.462133 0.201763 -0.306452
v 0.462133 0.201763 -0.306452
v 0.46214 0.199015 -0.221933
v 0.465367 0.201277 -0.224164
v 0.465372 0.20401 -0.304802
v 0.44818 0.136889 -0.304649
v 0.44818 0.133612 -0.204932
v 0.46214 0.199015 -0.221933
v 0.462133 0.201763 -0.306452
v 0.451822 0.137174 -0.313341
v 0.44818 0.136889 -0.304649
v 0.462133 0.201763 -0.306452
v 0.44818 0.133612 -0.204932
v 0.451816 0.133317 -0.195955
v 0.467832 0.197616 -0.215158
v 0.46214 0.199015 -0.221933
v 0.451816 0.133317 -0.195955
v 0.460594 0.133195 -0.192236
v 0.467832 0.197616 -0.215158
v 0.469867 0.20011 -0.218726
v 0.465367 0.201277 -0.224164
v 0.46214 0.199015 -0.221933
v 0.467832 0.197616 -0.215158
v 0.490131 0.197535 -0.217814
v 0.469867 0.20011 -0.218726
v 0.467832 0.197616 -0.215158
v 0.489264 0.19488 -0.214185
v 0.490131 0.197535 -0.217814
v 0.494486 0.197178 -0.231258
v 0.478509 0.199086 -0.231739
v 0.469867 0.20011 -0.218726
v 0.465367 0.201277 -0.224164
v 0.469867 0.20011 -0.218726
v 0.478509 0.199086 -0.231739
v 0.510566 0.196685 -0.217508
v 0.490131 0.197535 -0.217814
v 0.489264 0.19488 -0.214185
v 0.510566 0.193972 -0.213862
v 0.510566 0.196685 -0.217508
v 0.510566 0.196635 -0.231127
v 0.494486 0.197178 -0.231258
v 0.490131 0.197535 -0.217814
v 0.531001 0.197535 -0.217814
v 0.510566 0.196685 -0.217508
v 0.510566 0.193972 -0.213862
v 0.531869 0.19488 -0.214185
v 0.531001 0.197535 -0.217814
v 0.526647 0.197178 -0.231258
v 0.510566 0.196635 -0.231127
v 0.510566 0.196685 -0.217508
v 0.526647 0.197178 -0.231258
v 0.526602 0.200164 -0.296216
v 0.510566 0.199712 -0.296212
v 0.510566 0.196635 -0.231127
v 0.510566 0.196635 -0.231127
v 0.510566 0.199712 -0.296212
v 0.49453 0.200164 -0.296216
v 0.494486 0.197178 -0.231258
v 0.526602 0.200164 -0.296216
v 0.530911 0.201611 -0.309715
v 0.510566 0.201006 -0.309753
v 0.510566 0.199712 -0.296212
v 0.510566 0.199712 -0.296212
v 0.510566 0.201006 -0.309753
v 0.490222 0.201611 -0.309715
v 0.49453 0.200164 -0.296216
v 0.510566 0.201006 -0.309753
v 0.530911 0.201611 -0.309715
v 0.531775 0.199117 -0.312585
v 0.510566 0.19848 -0.31263
v 0.490222 0.201611 -0.309715
v 0.510566 0.201006 -0.309753
v 0.510566 0.19848 -0.31263
v 0.489358 0.199117 -0.312585
v 0.49453 0.200164 -0.296216
v 0.490222 0.201611 -0.309715
v 0.469954 0.203449 -0.309597
v 0.478567 0.201696 -0.296227
v 0.530911 0.201611 -0.309715
v 0.551178 0.203449 -0.309597
v 0.553207 0.201044 -0.312449
v 0.531775 0.199117 -0.312585
v 0.542565 0.201696 -0.296227
v 0.551178 0.203449 -0.309597
v 0.530911 0.201611 -0.309715
v 0.526602 0.200164 -0.296216
v 0.551178 0.203449 -0.309597
v 0.555761 0.20401 -0.304802
v 0.558999 0.201763 -0.306452
v 0.553207 0.201044 -0.312449
v 0.542565 0.201696 -0.296227
v 0.555761 0.20401 -0.304802
v 0.551178 0.203449 -0.309597
v 0.542624 0.199086 -0.231739
v 0.542565 0.201696 -0.296227
v 0.526602 0.200164 -0.296216
v 0.526647 0.197178 -0.231258
v 0.542624 0.199086 -0.231739
v 0.555766 0.201277 -0.224164
v 0.555761 0.20401 -0.304802
v 0.542565 0.201696 -0.296227
v 0.551265 0.20011 -0.218726
v 0.542624 0.199086 -0.231739
v 0.526647 0.197178 -0.231258
v 0.531001 0.197535 -0.217814
v 0.551265 0.20011 -0.218726
v 0.555766 0.201277 -0.224164
v 0.542624 0.199086 -0.231739
v 0.555766 0.201277 -0.224164
v 0.551265 0.20011 -0.218726
v 0.553301 0.197616 -0.215158
v 0.558993 0.199015 -0.221933
v 0.555761 0.20401 -0.304802
v 0.555766 0.201277 -0.224164
v 0.558993 0.199015 -0.221933
v 0.558999 0.201763 -0.306452
v 0.551265 0.20011 -0.218726
v 0.531001 0.197535 -0.217814
v 0.531869 0.19488 -0.214185
v 0.553301 0.197616 -0.215158
v 0.494486 0.197178 -0.231258
v 0.49453 0.200164 -0.296216
v 0.478567 0.201696 -0.296227
v 0.478509 0.199086 -0.231739
v 0.465372 0.20401 -0.304802
v 0.478567 0.201696 -0.296227
v 0.469954 0.203449 -0.309597
v 0.465372 0.20401 -0.304802
v 0.465367 0.201277 -0.224164
v 0.478509 0.199086 -0.231739
v 0.478567 0.201696 -0.296227
v 0.489121 0.133195 -0.192236
v 0.460594 0.133195 -0.192236
v 0.460589 0.121933 -0.192606
v 0.489121 0.121933 -0.192606
v 0.489121 0.133195 -0.192236
v 0.489121 0.121933 -0.192606
v 0.510566 0.121933 -0.192606
v 0.510566 0.133195 -0.192236
v 0.451815 0.122055 -0.19632
v 0.460589 0.121933 -0.192606
v 0.460594 0.133195 -0.192236
v 0.451816 0.133317 -0.195955
v 0.44818 0.12235 -0.205286
v 0.451815 0.122055 -0.19632
v 0.451816 0.133317 -0.195955
v 0.44818 0.133612 -0.204932
v 0.44818 0.125627 -0.305019
v 0.44818 0.12235 -0.205286
v 0.44818 0.133612 -0.204932
v 0.44818 0.136889 -0.304649
v 0.45182 0.125912 -0.313711
v 0.44818 0.125627 -0.305019
v 0.44818 0.136889 -0.304649
v 0.451822 0.137174 -0.313341
v 0.460607 0.126031 -0.317311
v 0.45182 0.125912 -0.313711
v 0.451822 0.137174 -0.313341
v 0.460612 0.137293 -0.316941
v 0.460607 0.126031 -0.317311
v 0.460612 0.137293 -0.316941
v 0.489121 0.137293 -0.316941
v 0.489121 0.126031 -0.317311
v 0.510566 0.137293 -0.316941
v 0.510566 0.126031 -0.317311
v 0.489121 0.126031 -0.317311
v 0.489121 0.137293 -0.316941
v 0.532012 0.137293 -0.316941
v 0.532012 0.126031 -0.317311
v 0.510566 0.126031 -0.317311
v 0.510566 0.137293 -0.316941
v 0.532012 0.137293 -0.316941
v 0.560521 0.137293 -0.316941
v 0.560526 0.126031 -0.317311
v 0.532012 0.126031 -0.317311
v 0.560521 0.137293 -0.316941
v 0.569311 0.137174 -0.313341
v 0.569313 0.125912 -0.313711
v 0.560526 0.126031 -0.317311
v 0.569311 0.137174 -0.313341
v 0.572952 0.136889 -0.304649
v 0.572952 0.125627 -0.305019
v 0.569313 0.125912 -0.313711
v 0.572952 0.125627 -0.305019
v 0.572952 0.136889 -0.304649
v 0.572952 0.133612 -0.204932
v 0.572952 0.12235 -0.205286
v 0.569318 0.122055 -0.19632
v 0.572952 0.12235 -0.205286
v 0.572952 0.133612 -0.204932
v 0.569316 0.133317 -0.195955
v 0.560543 0.121933 -0.192606
v 0.569318 0.122055 -0.19632
v 0.569316 0.133317 -0.195955
v 0.560538 0.133195 -0.192236
v 0.560543 0.121933 -0.192606
v 0.560538 0.133195 -0.192236
v 0.532012 0.133195 -0.192236
v 0.532012 0.121933 -0.192606
v 0.510566 0.133195 -0.192236
v 0.510566 0.121933 -0.192606
v 0.532012 0.121933 -0.192606
v 0.532012 0.133195 -0.192236
vn -0 0.3352 0.9421
vn -0.0001 0.3353 0.9421
vn -0 0.3352 0.9421
vn -0 0.3354 0.9421
vn -0 0.3354 0.9421
vn -0 0.3352 0.9421
vn -0 0.3352 0.9421
vn -0 0.3354 0.9421
vn -0 0.3354 0.9421
vn -0 0.3352 0.9421
vn -0 0.3352 0.9421
vn -0 0.3354 0.9421
vn -0 0.3352 0.9421
vn 0.0002 0.3352 0.9421
vn -0 0.3353 0.9421
vn -0 0.3354 0.9421
vn 0.0002 0.3352 0.9421
vn 0.6747 0.3388 0.6558
vn -0 0.3353 0.9421
vn 0.6747 0.3388 0.6558
vn 0.9776 0.2105 0.007
vn 0.9776 0.2104 0.007
vn -0 0.3353 0.9421
vn 0.9776 0.2104 0.007
vn 0.9776 0.2105 0.007
vn 0.9776 0.2104 0.0068
vn 0.9776 0.2104 0.007
vn 0.9776 0.2104 0.007
vn 0.9776 0.2104 0.0068
vn 0.6994 0.1592 -0.6968
vn -0 0.0703 -0.9975
vn 0.9776 0.2104 0.007
vn 0.6994 0.1592 -0.6968
vn 0.0002 0.0703 -0.9975
vn -0 0.0703 -0.9975
vn 0.0002 0.0703 -0.9975
vn -0 0.0703 -0.9975
vn -0 0.0704 -0.9975
vn -0 0.0704 -0.9975
vn -0 0.0703 -0.9975
vn -0 0.0703 -0.9975
vn -0 0.0704 -0.9975
vn -0 0.0704 -0.9975
vn -0 0.0703 -0.9975
vn -0 0.0703 -0.9975
vn -0 0.0704 -0.9975
vn -0 0.0703 -0.9975
vn -0.0002 0.0703 -0.9975
vn -0 0.0703 -0.9975
vn -0 0.0704 -0.9975
vn -0.0002 0.0703 -0.9975
vn -0.6994 0.1592 -0.6968
vn -0.9776 0.2105 0.0069
vn -0 0.0703 -0.9975
vn 0.1338 0.9899 0.0471
vn 0.0671 0.9946 0.0787
vn -0 0.0704 -0.9975
vn -0 0.0703 -0.9975
vn 0.1593 0.9866 0.0342
vn 0.1338 0.9899 0.0471
vn -0 0.0703 -0.9975
vn -0.9776 0.2105 0.0069
vn -0.9776 0.2105 0.0069
vn -0.9776 0.2104 0.0069
vn 0.1842 0.9819 0.0448
vn 0.1593 0.9866 0.0342
vn -0.9776 0.2104 0.0068
vn -0.9776 0.2105 0.007
vn -0.9776 0.2104 0.0069
vn -0.9776 0.2105 0.0069
vn -0.6994 0.1592 -0.6968
vn -0.9776 0.2104 0.0068
vn -0.9776 0.2105 0.0069
vn -0.9776 0.2105 0.007
vn -0.6746 0.3388 0.6559
vn -0 0.3352 0.9421
vn -0.9776 0.2104 0.0069
vn -0.6746 0.3388 0.6559
vn -0.0001 0.3353 0.9421
vn -0 0.3352 0.9421
vn 0.1665 0.9853 0.0383
vn 0.1842 0.9819 0.0448
vn -0.9776 0.2104 0.0069
vn -0 0.3352 0.9421
vn 0.0879 0.9961 0.0053
vn 0.1665 0.9853 0.0383
vn -0 0.3352 0.9421
vn -0 0.3354 0.9421
vn 0.0879 0.9961 0.0053
vn 0.0703 0.9973 0.0213
vn 0.1384 0.9899 0.0297
vn 0.1665 0.9853 0.0383
vn 0.1842 0.9819 0.0448
vn 0.1665 0.9853 0.0383
vn 0.1384 0.9899 0.0297
vn -0 1 -0.0049
vn 0.0879 0.9961 0.0053
vn -0 0.3354 0.9421
vn -0 0.3354 0.9421
vn -0 1 -0.0049
vn -0 0.9998 0.0187
vn 0.0703 0.9973 0.0213
vn 0.0879 0.9961 0.0053
vn -0.088 0.9961 0.0053
vn -0 1 -0.0049
vn -0 0.3354 0.9421
vn -0 0.3354 0.9421
vn -0.088 0.9961 0.0053
vn -0.0703 0.9973 0.0213
vn -0 0.9998 0.0187
vn -0 1 -0.0049
vn -0.0703 0.9973 0.0213
vn -0.0616 0.9959 0.066
vn -0 0.9974 0.0714
vn -0 0.9998 0.0187
vn -0 0.9998 0.0187
vn -0 0.9974 0.0714
vn 0.0616 0.9959 0.066
vn 0.0703 0.9973 0.0213
vn -0.0616 0.9959 0.066
vn -0.0671 0.9946 0.0787
vn -0 0.9957 0.0921
vn -0 0.9974 0.0714
vn -0 0.9974 0.0714
vn -0 0.9957 0.0921
vn 0.0671 0.9946 0.0787
vn 0.0616 0.9959 0.066
vn -0 0.9957 0.0921
vn -0.0671 0.9946 0.0787
vn -0 0.0704 -0.9975
vn -0 0.0704 -0.9975
vn 0.0671 0.9946 0.0787
vn -0 0.9957 0.0921
vn -0 0.0704 -0.9975
vn -0 0.0704 -0.9975
vn 0.0616 0.9959 0.066
vn 0.0671 0.9946 0.0787
vn 0.1338 0.9899 0.0471
vn 0.1256 0.9908 0.0505
vn -0.0671 0.9946 0.0787
vn -0.1337 0.9899 0.0471
vn -0 0.0703 -0.9975
vn -0 0.0704 -0.9975
vn -0.1256 0.9908 0.0505
vn -0.1337 0.9899 0.0471
vn -0.0671 0.9946 0.0787
vn -0.0616 0.9959 0.066
vn -0.1337 0.9899 0.0471
vn -0.1593 0.9866 0.0342
vn 0.9776 0.2104 0.007
vn -0 0.0703 -0.9975
vn -0.1256 0.9908 0.0505
vn -0.1593 0.9866 0.0342
vn -0.1337 0.9899 0.0471
vn -0.1384 0.9899 0.0297
vn -0.1256 0.9908 0.0505
vn -0.0616 0.9959 0.066
vn -0.0703 0.9973 0.0213
vn -0.1384 0.9899 0.0297
vn -0.1842 0.9819 0.0447
vn -0.1593 0.9866 0.0342
vn -0.1256 0.9908 0.0505
vn -0.1666 0.9853 0.0384
vn -0.1384 0.9899 0.0297
vn -0.0703 0.9973 0.0213
vn -0.088 0.9961 0.0053
vn -0.1666 0.9853 0.0384
vn -0.1842 0.9819 0.0447
vn -0.1384 0.9899 0.0297
vn -0.1842 0.9819 0.0447
vn -0.1666 0.9853 0.0384
vn -0 0.3353 0.9421
vn 0.9776 0.2104 0.007
vn -0.1593 0.9866 0.0342
vn -0.1842 0.9819 0.0447
vn 0.9776 0.2104 0.007
vn 0.9776 0.2104 0.007
vn -0.1666 0.9853 0.0384
vn -0.088 0.9961 0.0053
vn -0 0.3354 0.9421
vn -0 0.3353 0.9421
vn 0.0703 0.9973 0.0213
vn 0.0616 0.9959 0.066
vn 0.1256 0.9908 0.0505
vn 0.1384 0.9899 0.0297
vn 0.1593 0.9866 0.0342
vn 0.1256 0.9908 0.0505
vn 0.1338 0.9899 0.0471
vn 0.1593 0.9866 0.0342
vn 0.1842 0.9819 0.0448
vn 0.1384 0.9899 0.0297
vn 0.1256 0.9908 0.0505
vn -0 -0.0328 0.9995
vn -0.0002 -0.0328 0.9995
vn -0.0002 -0.0327 0.9995
vn -0 -0.0328 0.9995
vn -0 -0.0328 0.9995
vn -0 -0.0328 0.9995
vn -0 -0.0328 0.9995
vn -0 -0.0328 0.9995
vn -0.715 -0.0226 0.6987
vn -0.0002 -0.0327 0.9995
vn -0.0002 -0.0328 0.9995
vn -0.7151 -0.0226 0.6987
vn -1 -0 0.0001
vn -0.715 -0.0226 0.6987
vn -0.7151 -0.0226 0.6987
vn -1 0.0002 0.0001
vn -1 -0 -0.0001
vn -1 -0 0.0001
vn -1 0.0002 0.0001
vn -1 -0 -0.0002
vn -0.7035 0.0234 -0.7103
vn -1 -0 -0.0001
vn -1 -0 -0.0002
vn -0.7036 0.0234 -0.7102
vn -0.0001 0.0329 -0.9995
vn -0.7035 0.0234 -0.7103
vn -0.7036 0.0234 -0.7102
vn -0.0001 0.0329 -0.9995
vn -0.0001 0.0329 -0.9995
vn -0.0001 0.0329 -0.9995
vn -0 0.0328 -0.9995
vn -0 0.0328 -0.9995
vn -0 0.0328 -0.9995
vn -0 0.0328 -0.9995
vn -0 0.0328 -0.9995
vn -0 0.0328 -0.9995
vn -0 0.0328 -0.9995
vn -0 0.0328 -0.9995
vn -0 0.0328 -0.9995
vn -0 0.0328 -0.9995
vn -0 0.0328 -0.9995
vn 0.0001 0.0328 -0.9995
vn 0.0001 0.0329 -0.9995
vn -0 0.0328 -0.9995
vn 0.0001 0.0328 -0.9995
vn 0.7044 0.0234 -0.7094
vn 0.7037 0.0234 -0.7101
vn 0.0001 0.0329 -0.9995
vn 0.7044 0.0234 -0.7094
vn 1 -0 -0.0002
vn 1 -0 -0.0002
vn 0.7037 0.0234 -0.7101
vn 1 -0 -0.0002
vn 1 -0 -0.0002
vn 1 -0 0.0001
vn 1 0.0002 0.0001
vn 0.715 -0.0226 0.6987
vn 1 0.0002 0.0001
vn 1 -0 0.0001
vn 0.7151 -0.0226 0.6987
vn 0.0002 -0.0328 0.9995
vn 0.715 -0.0226 0.6987
vn 0.7151 -0.0226 0.6987
vn 0.0002 -0.0327 0.9995
vn 0.0002 -0.0328 0.9995
vn 0.0002 -0.0327 0.9995
vn -0 -0.0328 0.9995
vn -0 -0.0328 0.9995
vn -0 -0.0328 0.9995
vn -0 -0.0328 0.9995
vn -0 -0.0328 0.9995
vn -0 -0.0328 0.9995
vt 0.747586 0.050402
vt 0.740784 0.064752
vt 0.755497 0.064732
vt 0.757171 0.050837
vt 0.757171 0.050837
vt 0.755497 0.064732
vt 0.766699 0.064732
vt 0.766699 0.050982
vt 0.766699 0.050982
vt 0.766699 0.064732
vt 0.777901 0.064732
vt 0.776226 0.050837
vt 0.777901 0.064732
vt 0.792613 0.064752
vt 0.785811 0.050402
vt 0.776226 0.050837
vt 0.792613 0.064752
vt 0.79675 0.06304
vt 0.785811 0.050402
vt 0.79675 0.06304
vt 0.798373 0.058801
vt 0.788357 0.047372
vt 0.785811 0.050402
vt 0.788357 0.047372
vt 0.798373 0.058801
vt 0.798352 0.00640899
vt 0.78836 0.00957203
vt 0.78836 0.00957203
vt 0.798352 0.00640899
vt 0.796679 0.00232899
vt 0.785769 0.00689
vt 0.78836 0.00957203
vt 0.796679 0.00232899
vt 0.792555 0.000735998
vt 0.785769 0.00689
vt 0.792555 0.000735998
vt 0.777901 0.000769019
vt 0.776184 0.00682902
vt 0.776184 0.00682902
vt 0.777901 0.000769019
vt 0.766699 0.000769019
vt 0.766699 0.006809
vt 0.766699 0.006809
vt 0.766699 0.000769019
vt 0.755497 0.000769019
vt 0.757213 0.00682902
vt 0.755497 0.000769019
vt 0.740842 0.000735998
vt 0.747628 0.00689
vt 0.757213 0.00682902
vt 0.740842 0.000735998
vt 0.736719 0.00232899
vt 0.745038 0.00957203
vt 0.747628 0.00689
vt 0.748535 0.00816602
vt 0.7576 0.00811303
vt 0.757213 0.00682902
vt 0.747628 0.00689
vt 0.746486 0.01031
vt 0.748535 0.00816602
vt 0.747628 0.00689
vt 0.745038 0.00957203
vt 0.745038 0.00957203
vt 0.745041 0.047372
vt 0.746484 0.046374
vt 0.746486 0.01031
vt 0.735046 0.00640899
vt 0.735025 0.058801
vt 0.745041 0.047372
vt 0.745038 0.00957203
vt 0.736719 0.00232899
vt 0.735046 0.00640899
vt 0.745038 0.00957203
vt 0.735025 0.058801
vt 0.736647 0.06304
vt 0.747586 0.050402
vt 0.745041 0.047372
vt 0.736647 0.06304
vt 0.740784 0.064752
vt 0.747586 0.050402
vt 0.748497 0.048806
vt 0.746484 0.046374
vt 0.745041 0.047372
vt 0.747586 0.050402
vt 0.757559 0.049214
vt 0.748497 0.048806
vt 0.747586 0.050402
vt 0.757171 0.050837
vt 0.757559 0.049214
vt 0.759507 0.043202
vt 0.752361 0.042987
vt 0.748497 0.048806
vt 0.746484 0.046374
vt 0.748497 0.048806
vt 0.752361 0.042987
vt 0.766699 0.049351
vt 0.757559 0.049214
vt 0.757171 0.050837
vt 0.766699 0.050982
vt 0.766699 0.049351
vt 0.766699 0.04326
vt 0.759507 0.043202
vt 0.757559 0.049214
vt 0.775838 0.049214
vt 0.766699 0.049351
vt 0.766699 0.050982
vt 0.776226 0.050837
vt 0.775838 0.049214
vt 0.77389 0.043202
vt 0.766699 0.04326
vt 0.766699 0.049351
vt 0.77389 0.043202
vt 0.773871 0.01415
vt 0.766699 0.014152
vt 0.766699 0.04326
vt 0.766699 0.04326
vt 0.766699 0.014152
vt 0.759527 0.01415
vt 0.759507 0.043202
vt 0.773871 0.01415
vt 0.775798 0.00811303
vt 0.766699 0.00809503
vt 0.766699 0.014152
vt 0.766699 0.014152
vt 0.766699 0.00809503
vt 0.7576 0.00811303
vt 0.759527 0.01415
vt 0.766699 0.00809503
vt 0.775798 0.00811303
vt 0.776184 0.00682902
vt 0.766699 0.006809
vt 0.7576 0.00811303
vt 0.766699 0.00809503
vt 0.766699 0.006809
vt 0.757213 0.00682902
vt 0.759527 0.01415
vt 0.7576 0.00811303
vt 0.748535 0.00816602
vt 0.752388 0.014145
vt 0.775798 0.00811303
vt 0.784862 0.00816602
vt 0.785769 0.00689
vt 0.776184 0.00682902
vt 0.78101 0.014145
vt 0.784862 0.00816602
vt 0.775798 0.00811303
vt 0.773871 0.01415
vt 0.784862 0.00816602
vt 0.786912 0.01031
vt 0.78836 0.00957203
vt 0.785769 0.00689
vt 0.78101 0.014145
vt 0.786912 0.01031
vt 0.784862 0.00816602
vt 0.781036 0.042987
vt 0.78101 0.014145
vt 0.773871 0.01415
vt 0.77389 0.043202
vt 0.781036 0.042987
vt 0.786914 0.046374
vt 0.786912 0.01031
vt 0.78101 0.014145
vt 0.784901 0.048806
vt 0.781036 0.042987
vt 0.77389 0.043202
vt 0.775838 0.049214
vt 0.784901 0.048806
vt 0.786914 0.046374
vt 0.781036 0.042987
vt 0.786914 0.046374
vt 0.784901 0.048806
vt 0.785811 0.050402
vt 0.788357 0.047372
vt 0.786912 0.01031
vt 0.786914 0.046374
vt 0.788357 0.047372
vt 0.78836 0.00957203
vt 0.784901 0.048806
vt 0.775838 0.049214
vt 0.776226 0.050837
vt 0.785811 0.050402
vt 0.759507 0.043202
vt 0.759527 0.01415
vt 0.752388 0.014145
vt 0.752361 0.042987
vt 0.746486 0.01031
vt 0.752388 0.014145
vt 0.748535 0.00816602
vt 0.746486 0.01031
vt 0.746484 0.046374
vt 0.752361 0.042987
vt 0.752388 0.014145
vt 0.755497 0.064732
vt 0.740784 0.064752
vt 0.740453 0.066531
vt 0.755497 0.066545
vt 0.755497 0.064732
vt 0.755497 0.066545
vt 0.766699 0.066545
vt 0.766699 0.064732
vt 0.735509 0.064395
vt 0.740453 0.066531
vt 0.740784 0.064752
vt 0.736647 0.06304
vt 0.733421 0.059354
vt 0.735509 0.064395
vt 0.736647 0.06304
vt 0.735025 0.058801
vt 0.733422 0.00698501
vt 0.733421 0.059354
vt 0.735025 0.058801
vt 0.735046 0.00640899
vt 0.735517 0.00208402
vt 0.733422 0.00698501
vt 0.735046 0.00640899
vt 0.736719 0.00232899
vt 0.740466 1.29938e-05
vt 0.735517 0.00208402
vt 0.736719 0.00232899
vt 0.740842 0.000735998
vt 0.740466 1.29938e-05
vt 0.740842 0.000735998
vt 0.755497 0.000769019
vt 0.755497 0
vt 0.766699 0.000769019
vt 0.766699 0
vt 0.755497 0
vt 0.755497 0.000769019
vt 0.777901 0.000769019
vt 0.777901 0
vt 0.766699 0
vt 0.766699 0.000769019
vt 0.777901 0.000769019
vt 0.792555 0.000735998
vt 0.792931 1.29938e-05
vt 0.777901 0
vt 0.792555 0.000735998
vt 0.796679 0.00232899
vt 0.79788 0.00208402
vt 0.792931 1.29938e-05
vt 0.796679 0.00232899
vt 0.798352 0.00640899
vt 0.799975 0.00698501
vt 0.79788 0.00208402
vt 0.799975 0.00698501
vt 0.798352 0.00640899
vt 0.798373 0.058801
vt 0.799976 0.059354
vt 0.797889 0.064395
vt 0.799976 0.059354
vt 0.798373 0.058801
vt 0.79675 0.06304
vt 0.792944 0.066531
vt 0.797889 0.064395
vt 0.79675 0.06304
vt 0.792613 0.064752
vt 0.792944 0.066531
vt 0.792613 0.064752
vt 0.777901 0.064732
vt 0.777901 0.066545
vt 0.766699 0.064732
vt 0.766699 0.066545
vt 0.777901 0.066545
vt 0.777901 0.064732
s off
f 1/1/1 2/2/2 3/3/3
f 1/1/1 3/3/3 4/4/4
f 5/5/5 6/6/6 7/7/7
f 5/5/5 7/7/7 8/8/8
f 9/9/9 10/10/10 11/11/11
f 9/9/9 11/11/11 12/12/12
f 13/13/13 14/14/14 15/15/15
f 13/13/13 15/15/15 16/16/16
f 17/17/17 18/18/18 19/19/19
f 20/20/20 21/21/21 22/22/22
f 20/20/20 22/22/22 23/23/23
f 24/24/24 25/25/25 26/26/26
f 24/24/24 26/26/26 27/27/27
f 28/28/28 29/29/29 30/30/30
f 31/31/31 32/32/32 33/33/33
f 31/31/31 33/33/33 34/34/34
f 35/35/35 36/36/36 37/37/37
f 35/35/35 37/37/37 38/38/38
f 39/39/39 40/40/40 41/41/41
f 39/39/39 41/41/41 42/42/42
f 43/43/43 44/44/44 45/45/45
f 43/43/43 45/45/45 46/46/46
f 47/47/47 48/48/48 49/49/49
f 47/47/47 49/49/49 50/50/50
f 51/51/51 52/52/52 53/53/53
f 51/51/51 53/53/53 54/54/54
f 55/55/55 56/56/56 57/57/57
f 55/55/55 57/57/57 58/58/58
f 59/59/59 60/60/60 61/61/61
f 59/59/59 61/61/61 62/62/62
f 63/63/63 64/64/64 65/65/65
f 63/63/63 65/65/65 66/66/66
f 67/67/67 68/68/68 69/69/69
f 67/67/67 69/69/69 70/70/70
f 71/71/71 72/72/72 73/73/73
f 74/74/74 75/75/75 76/76/76
f 74/74/74 76/76/76 77/77/77
f 78/78/78 79/79/79 80/80/80
f 81/81/81 82/82/82 83/83/83
f 81/81/81 83/83/83 84/84/84
f 85/85/85 86/86/86 87/87/87
f 85/85/85 87/87/87 88/88/88
f 89/89/89 90/90/90 91/91/91
f 89/89/89 91/91/91 92/92/92
f 93/93/93 94/94/94 95/95/95
f 96/96/96 97/97/97 98/98/98
f 96/96/96 98/98/98 99/99/99
f 100/100/100 101/101/101 102/102/102
f 100/100/100 102/102/102 103/103/103
f 104/104/104 105/105/105 106/106/106
f 104/104/104 106/106/106 107/107/107
f 108/108/108 109/109/109 110/110/110
f 108/108/108 110/110/110 111/111/111
f 112/112/112 113/113/113 114/114/114
f 112/112/112 114/114/114 115/115/115
f 116/116/116 117/117/117 118/118/118
f 116/116/116 118/118/118 119/119/119
f 120/120/120 121/121/121 122/122/122
f 120/120/120 122/122/122 123/123/123
f 124/124/124 125/125/125 126/126/126
f 124/124/124 126/126/126 127/127/127
f 128/128/128 129/129/129 130/130/130
f 128/128/128 130/130/130 131/131/131
f 132/132/132 133/133/133 134/134/134
f 132/132/132 134/134/134 135/135/135
f 136/136/136 137/137/137 138/138/138
f 136/136/136 138/138/138 139/139/139
f 140/140/140 141/141/141 142/142/142
f 140/140/140 142/142/142 143/143/143
f 144/144/144 145/145/145 146/146/146
f 144/144/144 146/146/146 147/147/147
f 148/148/148 149/149/149 150/150/150
f 148/148/148 150/150/150 151/151/151
f 152/152/152 153/153/153 154/154/154
f 155/155/155 156/156/156 157/157/157
f 155/155/155 157/157/157 158/158/158
f 159/159/159 160/160/160 161/161/161
f 159/159/159 161/161/161 162/162/162
f 163/163/163 164/164/164 165/165/165
f 163/163/163 165/165/165 166/166/166
f 167/167/167 168/168/168 169/169/169
f 170/170/170 171/171/171 172/172/172
f 170/170/170 172/172/172 173/173/173
f 174/174/174 175/175/175 176/176/176
f 174/174/174 176/176/176 177/177/177
f 178/178/178 179/179/179 180/180/180
f 178/178/178 180/180/180 181/181/181
f 182/182/182 183/183/183 184/184/184
f 182/182/182 184/184/184 185/185/185
f 186/186/186 187/187/187 188/188/188
f 189/189/189 190/190/190 191/191/191
f 189/189/189 191/191/191 192/192/192
f 193/193/193 194/194/194 195/195/195
f 193/193/193 195/195/195 196/196/196
f 197/197/197 198/198/198 199/199/199
f 197/197/197 199/199/199 200/200/200
f 201/201/201 202/202/202 203/203/203
f 201/201/201 203/203/203 204/204/204
f 205/205/205 206/206/206 207/207/207
f 205/205/205 207/207/207 208/208/208
f 209/209/209 210/210/210 211/211/211
f 209/209/209 211/211/211 212/212/212
f 213/213/213 214/214/214 215/215/215
f 213/213/213 215/215/215 216/216/216
f 217/217/217 218/218/218 219/219/219
f 217/217/217 219/219/219 220/220/220
f 221/221/221 222/222/222 223/223/223
f 221/221/221 223/223/223 224/224/224
f 225/225/225 226/226/226 227/227/227
f 225/225/225 227/227/227 228/228/228
f 229/229/229 230/230/230 231/231/231
f 229/229/229 231/231/231 232/232/232
f 233/233/233 234/234/234 235/235/235
f 233/233/233 235/235/235 236/236/236
f 237/237/237 238/238/238 239/239/239
f 237/237/237 239/239/239 240/240/240
f 241/241/241 242/242/242 243/243/243
f 241/241/241 243/243/243 244/244/244
f 245/245/245 246/246/246 247/247/247
f 245/245/245 247/247/247 248/248/248
f 249/249/249 250/250/250 251/251/251
f 249/249/249 251/251/251 252/252/252
f 253/253/253 254/254/254 255/255/255
f 253/253/253 255/255/255 256/256/256
f 257/257/257 258/258/258 259/259/259
f 257/257/257 259/259/259 260/260/260
f 261/261/261 262/262/262 263/263/263
f 261/261/261 263/263/263 264/264/264
