v 0.499794 0.197277 -0.234104
v 0.520884 0.197387 -0.236682
v 0.499794 0.197395 -0.236682
v 0.504637 0.199315 -0.281205
v 0.504637 0.199148 -0.27769
v 0.515962 0.199157 -0.27769
v 0.515962 0.199157 -0.27769
v 0.515962 0.199319 -0.281205
v 0.504637 0.199315 -0.281205
v 0.499794 0.197277 -0.234104
v 0.520884 0.197265 -0.234104
v 0.520884 0.197387 -0.236682
vn 0.0004 0.9989 0.0459
vn 0.0004 0.9989 0.0459
vn 0.0004 0.9989 0.0459
vn -0.0008 0.9989 0.0472
vn -0.0008 0.9989 0.0472
vn -0.0008 0.9989 0.0472
vn -0.0004 0.9989 0.0459
vn -0.0004 0.9989 0.0459
vn -0.0004 0.9989 0.0459
vn 0.0005 0.9989 0.0472
vn 0.0005 0.9989 0.0472
vn 0.0005 0.9989 0.0472
vt 0.761072 0.395008
vt 0.772088 0.393662
vt 0.761072 0.393662
vt 0.763601 0.370405
vt 0.763601 0.372241
vt 0.769517 0.372241
vt 0.769517 0.372241
vt 0.769517 0.370405
vt 0.763601 0.370405
vt 0.761072 0.395008
vt 0.772088 0.395008
vt 0.772088 0.393662
s off
f 1/1/1 2/2/2 3/3/3
f 4/4/4 5/5/5 6/6/6
f 7/7/7 8/8/8 9/9/9
f 10/10/10 11/11/11 12/12/12
