v 0.002932 0.162274 0.093179
v 0.003635 0.162872 0.099428
v 0.017695 0.162833 0.111535
v 0.002932 0.162274 0.093179
v 0.00012 0.162603 0.093179
v 0.003635 0.162872 0.099428
v 0.003635 0.162872 0.099428
v 0.00012 0.162603 0.093179
v 0.00012 0.165368 0.117784
v 0.003635 0.164919 0.117784
v 0.003635 0.162872 0.099428
v 0.00012 0.165368 0.117784
v 0.017695 0.162833 0.111535
v 0.003635 0.162872 0.099428
v 0.018398 0.163475 0.117784
v 0.018398 0.163475 0.117784
v 0.02121 0.163377 0.117784
v 0.017695 0.162833 0.111535
v 0.02121 0.163377 0.117784
v 0.02121 0.160777 0.093179
v 0.017695 0.162833 0.111535
v 0.017695 0.162833 0.111535
v 0.02121 0.160777 0.093179
v 0.017695 0.160876 0.093179
vn 0.0932 0.9901 -0.1051
vn 0.0932 0.9901 -0.1051
vn 0.0932 0.9901 -0.1051
vn 0.1155 0.9875 -0.1074
vn 0.1155 0.9875 -0.1074
vn 0.1155 0.9875 -0.1074
vn 0.1217 0.9864 -0.1108
vn 0.1217 0.9864 -0.1108
vn 0.1217 0.9864 -0.1108
vn 0.1259 0.9859 -0.11
vn 0.1259 0.9859 -0.11
vn 0.1259 0.9859 -0.11
vn 0.0999 0.9886 -0.1128
vn 0.0999 0.9886 -0.1128
vn 0.0999 0.9886 -0.1128
vn 0.0346 0.9938 -0.106
vn 0.0346 0.9938 -0.106
vn 0.0346 0.9938 -0.106
vn 0.0328 0.9939 -0.105
vn 0.0328 0.9939 -0.105
vn 0.0328 0.9939 -0.105
vn 0.028 0.994 -0.106
vn 0.028 0.994 -0.106
vn 0.028 0.994 -0.106
vt 0.501531 0.565968
vt 0.501899 0.569232
vt 0.509243 0.575556
vt 0.501531 0.565968
vt 0.500063 0.565968
vt 0.501899 0.569232
vt 0.501899 0.569232
vt 0.500063 0.565968
vt 0.500063 0.57882
vt 0.501899 0.57882
vt 0.501899 0.569232
vt 0.500063 0.57882
vt 0.509243 0.575556
vt 0.501899 0.569232
vt 0.50961 0.57882
vt 0.50961 0.57882
vt 0.511079 0.57882
vt 0.509243 0.575556
vt 0.511079 0.57882
vt 0.511079 0.565968
vt 0.509243 0.575556
vt 0.509243 0.575556
vt 0.511079 0.565968
vt 0.509243 0.565968
s off
f 1/1/1 2/2/2 3/3/3
f 4/4/4 5/5/5 6/6/6
f 7/7/7 8/8/8 9/9/9
f 10/10/10 11/11/11 12/12/12
f 13/13/13 14/14/14 15/15/15
f 16/16/16 17/17/17 18/18/18
f 19/19/19 20/20/20 21/21/21
f 22/22/22 23/23/23 24/24/24
