v 0.311429 0.178923 -0.145164
v 0.308656 0.17912 -0.147588
v 0.307039 0.178988 -0.144167
v 0.309846 0.178823 -0.142394
v 0.304135 0.178959 -0.141623
v 0.306959 0.178762 -0.139563
v 0.307039 0.178988 -0.144167
v 0.309846 0.178823 -0.142394
v 0.307039 0.178988 -0.144167
v 0.306959 0.178762 -0.139563
v 0.308656 0.17912 -0.147588
v 0.311429 0.178923 -0.145164
v 0.312314 0.17911 -0.149273
v 0.312314 0.17911 -0.149273
v 0.311622 0.179391 -0.154401
v 0.308738 0.179312 -0.151379
v 0.312314 0.17911 -0.149273
v 0.308738 0.179312 -0.151379
v 0.308656 0.17912 -0.147588
v 0.307952 0.179472 -0.154093
v 0.308738 0.179312 -0.151379
v 0.311622 0.179391 -0.154401
v 0.307952 0.179472 -0.154093
v 0.308699 0.179706 -0.159041
v 0.305981 0.179661 -0.156755
v 0.307952 0.179472 -0.154093
v 0.311622 0.179391 -0.154401
v 0.308699 0.179706 -0.159041
v 0.303479 0.179814 -0.158447
v 0.308699 0.179706 -0.159041
v 0.303819 0.180052 -0.16193
v 0.303479 0.179814 -0.158447
v 0.305981 0.179661 -0.156755
v 0.308699 0.179706 -0.159041
v 0.303479 0.179814 -0.158447
v 0.303819 0.180052 -0.16193
v 0.299085 0.18023 -0.159383
v 0.294222 0.180609 -0.158092
v 0.299085 0.18023 -0.159383
v 0.295626 0.180716 -0.162173
v 0.299532 0.180391 -0.162588
v 0.299085 0.18023 -0.159383
v 0.303819 0.180052 -0.16193
v 0.299532 0.180391 -0.162588
v 0.295626 0.180716 -0.162173
v 0.299085 0.18023 -0.159383
v 0.294222 0.180609 -0.158092
v 0.295626 0.180716 -0.162173
v 0.291529 0.180969 -0.160396
v 0.2881 0.181107 -0.156876
v 0.291545 0.180737 -0.155742
v 0.291529 0.180969 -0.160396
v 0.291545 0.180737 -0.155742
v 0.294222 0.180609 -0.158092
v 0.291529 0.180969 -0.160396
v 0.290246 0.180739 -0.153404
v 0.291545 0.180737 -0.155742
v 0.2881 0.181107 -0.156876
v 0.286288 0.181168 -0.152249
v 0.289617 0.180632 -0.150079
v 0.290246 0.180739 -0.153404
v 0.286288 0.181168 -0.152249
v 0.290246 0.180739 -0.153404
v 0.2881 0.181107 -0.156876
v 0.289617 0.180632 -0.150079
v 0.286288 0.181168 -0.152249
v 0.286414 0.180912 -0.146851
v 0.290476 0.180338 -0.14565
v 0.286414 0.180912 -0.146851
v 0.288413 0.180452 -0.142639
v 0.289617 0.180632 -0.150079
v 0.286414 0.180912 -0.146851
v 0.290476 0.180338 -0.14565
v 0.293474 0.17989 -0.142202
v 0.290476 0.180338 -0.14565
v 0.291172 0.180006 -0.139835
v 0.290476 0.180338 -0.14565
v 0.288413 0.180452 -0.142639
v 0.291172 0.180006 -0.139835
v 0.291172 0.180006 -0.139835
v 0.296033 0.17943 -0.137615
v 0.293474 0.17989 -0.142202
v 0.300446 0.179174 -0.140563
v 0.296033 0.17943 -0.137615
v 0.302261 0.178862 -0.137608
v 0.29709 0.179485 -0.140679
v 0.296033 0.17943 -0.137615
v 0.300446 0.179174 -0.140563
v 0.29709 0.179485 -0.140679
v 0.293474 0.17989 -0.142202
v 0.296033 0.17943 -0.137615
v 0.302261 0.178862 -0.137608
v 0.304135 0.178959 -0.141623
v 0.300446 0.179174 -0.140563
v 0.306959 0.178762 -0.139563
v 0.304135 0.178959 -0.141623
v 0.302261 0.178862 -0.137608
vn 0.0264 0.9983 0.0512
vn 0.0264 0.9983 0.0512
vn 0.0264 0.9983 0.0512
vn 0.0264 0.9983 0.0512
vn 0.0334 0.9982 0.0495
vn 0.0334 0.9982 0.0495
vn 0.0334 0.9982 0.0495
vn 0.0275 0.9984 0.0494
vn 0.0275 0.9984 0.0494
vn 0.0275 0.9984 0.0494
vn 0.0264 0.9983 0.0512
vn 0.0264 0.9983 0.0512
vn 0.0264 0.9983 0.0512
vn 0.0264 0.9983 0.0512
vn 0.0264 0.9983 0.0512
vn 0.0264 0.9983 0.0512
vn 0.0264 0.9983 0.0511
vn 0.0264 0.9983 0.0511
vn 0.0264 0.9983 0.0511
vn 0.0264 0.9983 0.0512
vn 0.0264 0.9983 0.0512
vn 0.0264 0.9983 0.0512
vn 0.0264 0.9983 0.0512
vn 0.0264 0.9983 0.0512
vn 0.0264 0.9983 0.0512
vn 0.0264 0.9983 0.0512
vn 0.0264 0.9983 0.0512
vn 0.0264 0.9983 0.0512
vn 0.0286 0.9971 0.071
vn 0.0286 0.9971 0.071
vn 0.0286 0.9971 0.071
vn 0.0264 0.9983 0.0512
vn 0.0264 0.9983 0.0512
vn 0.0264 0.9983 0.0512
vn 0.0782 0.9941 0.0756
vn 0.0782 0.9941 0.0756
vn 0.0782 0.9941 0.0756
vn 0.0929 0.994 0.058
vn 0.0929 0.994 0.058
vn 0.0929 0.994 0.058
vn 0.0697 0.9958 0.0597
vn 0.0697 0.9958 0.0597
vn 0.0697 0.9958 0.0597
vn 0.0893 0.994 0.0623
vn 0.0893 0.994 0.0623
vn 0.0893 0.994 0.0623
vn 0.0854 0.9948 0.0554
vn 0.0854 0.9948 0.0554
vn 0.0854 0.9948 0.0554
vn 0.0906 0.9947 0.0493
vn 0.0906 0.9947 0.0493
vn 0.0906 0.9947 0.0493
vn 0.0906 0.9947 0.0493
vn 0.0906 0.9947 0.0493
vn 0.0906 0.9947 0.0493
vn 0.0906 0.9947 0.0493
vn 0.0906 0.9947 0.0493
vn 0.0906 0.9947 0.0493
vn 0.1235 0.9908 0.0554
vn 0.1235 0.9908 0.0554
vn 0.1235 0.9908 0.0554
vn 0.1171 0.9926 0.0327
vn 0.1171 0.9926 0.0327
vn 0.1171 0.9926 0.0327
vn 0.1308 0.9904 0.044
vn 0.1308 0.9904 0.044
vn 0.1308 0.9904 0.044
vn 0.1257 0.9909 0.0484
vn 0.1257 0.9909 0.0484
vn 0.1257 0.9909 0.0484
vn 0.1279 0.9909 0.041
vn 0.1279 0.9909 0.041
vn 0.1279 0.9909 0.041
vn 0.0965 0.9943 0.0452
vn 0.0965 0.9943 0.0452
vn 0.0965 0.9943 0.0452
vn 0.1172 0.9922 0.0426
vn 0.1172 0.9922 0.0426
vn 0.1172 0.9922 0.0426
vn 0.0969 0.9942 0.0457
vn 0.0969 0.9942 0.0457
vn 0.0969 0.9942 0.0457
vn 0.0906 0.9947 0.0493
vn 0.0906 0.9947 0.0493
vn 0.0906 0.9947 0.0493
vn 0.0906 0.9947 0.0493
vn 0.0906 0.9947 0.0493
vn 0.0906 0.9947 0.0493
vn 0.0906 0.9947 0.0493
vn 0.0906 0.9947 0.0493
vn 0.0906 0.9947 0.0493
vn 0.075 0.9954 0.059
vn 0.075 0.9954 0.059
vn 0.075 0.9954 0.059
vn 0.0388 0.9984 0.0421
vn 0.0388 0.9984 0.0421
vn 0.0388 0.9984 0.0421
vt 0.662678 0.441467
vt 0.661229 0.440201
vt 0.660385 0.441988
vt 0.661851 0.442914
vt 0.658867 0.443317
vt 0.660343 0.444393
vt 0.660385 0.441988
vt 0.661851 0.442914
vt 0.660385 0.441988
vt 0.660343 0.444393
vt 0.661229 0.440201
vt 0.662678 0.441467
vt 0.66314 0.439321
vt 0.66314 0.439321
vt 0.662778 0.436642
vt 0.661272 0.438221
vt 0.66314 0.439321
vt 0.661272 0.438221
vt 0.661229 0.440201
vt 0.660862 0.436803
vt 0.661272 0.438221
vt 0.662778 0.436642
vt 0.660862 0.436803
vt 0.661252 0.434218
vt 0.659832 0.435413
vt 0.660862 0.436803
vt 0.662778 0.436642
vt 0.661252 0.434218
vt 0.658525 0.434529
vt 0.661252 0.434218
vt 0.658702 0.432709
vt 0.658525 0.434529
vt 0.659832 0.435413
vt 0.661252 0.434218
vt 0.658525 0.434529
vt 0.658702 0.432709
vt 0.65623 0.434039
vt 0.653689 0.434714
vt 0.65623 0.434039
vt 0.654423 0.432582
vt 0.656464 0.432365
vt 0.65623 0.434039
vt 0.658702 0.432709
vt 0.656464 0.432365
vt 0.654423 0.432582
vt 0.65623 0.434039
vt 0.653689 0.434714
vt 0.654423 0.432582
vt 0.652283 0.433511
vt 0.650492 0.43535
vt 0.652291 0.435942
vt 0.652283 0.433511
vt 0.652291 0.435942
vt 0.653689 0.434714
vt 0.652283 0.433511
vt 0.651613 0.437163
vt 0.652291 0.435942
vt 0.650492 0.43535
vt 0.649545 0.437766
vt 0.651284 0.4389
vt 0.651613 0.437163
vt 0.649545 0.437766
vt 0.651613 0.437163
vt 0.650492 0.43535
vt 0.651284 0.4389
vt 0.649545 0.437766
vt 0.649611 0.440586
vt 0.651733 0.441213
vt 0.649611 0.440586
vt 0.650655 0.442786
vt 0.651284 0.4389
vt 0.649611 0.440586
vt 0.651733 0.441213
vt 0.653298 0.443014
vt 0.651733 0.441213
vt 0.652096 0.444251
vt 0.651733 0.441213
vt 0.650655 0.442786
vt 0.652096 0.444251
vt 0.652096 0.444251
vt 0.654635 0.445411
vt 0.653298 0.443014
vt 0.65694 0.44387
vt 0.654635 0.445411
vt 0.657889 0.445414
vt 0.655188 0.44381
vt 0.654635 0.445411
vt 0.65694 0.44387
vt 0.655188 0.44381
vt 0.653298 0.443014
vt 0.654635 0.445411
vt 0.657889 0.445414
vt 0.658867 0.443317
vt 0.65694 0.44387
vt 0.660343 0.444393
vt 0.658867 0.443317
vt 0.657889 0.445414
s off
f 1/1/1 2/2/2 3/3/3
f 1/1/1 3/3/3 4/4/4
f 5/5/5 6/6/6 7/7/7
f 8/8/8 9/9/9 10/10/10
f 11/11/11 12/12/12 13/13/13
f 14/14/14 15/15/15 16/16/16
f 17/17/17 18/18/18 19/19/19
f 20/20/20 21/21/21 22/22/22
f 23/23/23 24/24/24 25/25/25
f 26/26/26 27/27/27 28/28/28
f 29/29/29 30/30/30 31/31/31
f 32/32/32 33/33/33 34/34/34
f 35/35/35 36/36/36 37/37/37
f 38/38/38 39/39/39 40/40/40
f 41/41/41 42/42/42 43/43/43
f 44/44/44 45/45/45 46/46/46
f 47/47/47 48/48/48 49/49/49
f 50/50/50 51/51/51 52/52/52
f 53/53/53 54/54/54 55/55/55
f 56/56/56 57/57/57 58/58/58
f 59/59/59 60/60/60 61/61/61
f 62/62/62 63/63/63 64/64/64
f 65/65/65 66/66/66 67/67/67
f 68/68/68 69/69/69 70/70/70
f 71/71/71 72/72/72 73/73/73
f 74/74/74 75/75/75 76/76/76
f 77/77/77 78/78/78 79/79/79
f 80/80/80 81/81/81 82/82/82
f 83/83/83 84/84/84 85/85/85
f 86/86/86 87/87/87 88/88/88
f 89/89/89 90/90/90 91/91/91
f 92/92/92 93/93/93 94/94/94
f 95/95/95 96/96/96 97/97/97
