v 0.429865 0.179415 -0.148705
v 0.426975 0.179653 -0.148186
v 0.428041 0.179402 -0.145082
v 0.432306 0.179385 -0.150586
v 0.429865 0.179415 -0.148705
v 0.434039 0.179172 -0.14744
v 0.431476 0.17918 -0.14588
v 0.434039 0.179172 -0.14744
v 0.429865 0.179415 -0.148705
v 0.431476 0.17918 -0.14588
v 0.429865 0.179415 -0.148705
v 0.428041 0.179402 -0.145082
v 0.426975 0.179653 -0.148186
v 0.420199 0.180115 -0.145058
v 0.428041 0.179402 -0.145082
v 0.420199 0.179748 -0.137638
v 0.420199 0.180115 -0.145058
v 0.416684 0.180163 -0.137638
v 0.416684 0.180163 -0.137638
v 0.420199 0.180115 -0.145058
v 0.420199 0.18027 -0.148183
v 0.426975 0.179653 -0.148186
v 0.420199 0.18027 -0.148183
v 0.420199 0.180115 -0.145058
v 0.420199 0.18027 -0.148183
v 0.420199 0.180816 -0.159196
v 0.416684 0.181322 -0.162243
v 0.420199 0.18027 -0.148183
v 0.416684 0.181322 -0.162243
v 0.416684 0.180163 -0.137638
v 0.427992 0.180293 -0.162226
v 0.416684 0.181322 -0.162243
v 0.420199 0.180816 -0.159196
v 0.427984 0.180105 -0.159168
v 0.431476 0.18 -0.161421
v 0.427992 0.180293 -0.162226
v 0.427984 0.180105 -0.159168
v 0.427992 0.180293 -0.162226
v 0.420199 0.180816 -0.159196
v 0.427984 0.180105 -0.159168
v 0.430695 0.179818 -0.15825
v 0.431476 0.18 -0.161421
v 0.430695 0.179818 -0.15825
v 0.432292 0.179696 -0.156759
v 0.434039 0.179809 -0.15986
v 0.430695 0.179818 -0.15825
v 0.434039 0.179809 -0.15986
v 0.431476 0.18 -0.161421
v 0.432292 0.179696 -0.156759
v 0.436292 0.179583 -0.156618
v 0.434039 0.179809 -0.15986
v 0.433071 0.179533 -0.153973
v 0.436533 0.179346 -0.152117
v 0.436292 0.179583 -0.156618
v 0.432292 0.179696 -0.156759
v 0.433071 0.179533 -0.153973
v 0.436292 0.179583 -0.156618
v 0.432306 0.179385 -0.150586
v 0.436533 0.179346 -0.152117
v 0.433071 0.179533 -0.153973
v 0.436533 0.179346 -0.152117
v 0.432306 0.179385 -0.150586
v 0.435631 0.179234 -0.149466
v 0.432306 0.179385 -0.150586
v 0.434039 0.179172 -0.14744
v 0.435631 0.179234 -0.149466
vn 0.0906 0.9947 0.0493
vn 0.0906 0.9947 0.0493
vn 0.0906 0.9947 0.0493
vn 0.0452 0.9981 0.0424
vn 0.0452 0.9981 0.0424
vn 0.0452 0.9981 0.0424
vn 0.0397 0.9974 0.0606
vn 0.0397 0.9974 0.0606
vn 0.0397 0.9974 0.0606
vn 0.074 0.9964 0.0409
vn 0.074 0.9964 0.0409
vn 0.074 0.9964 0.0409
vn 0.0906 0.9947 0.0493
vn 0.0906 0.9947 0.0493
vn 0.0906 0.9947 0.0493
vn 0.1172 0.9919 0.0491
vn 0.1172 0.9919 0.0491
vn 0.1172 0.9919 0.0491
vn 0.1173 0.9919 0.0492
vn 0.1173 0.9919 0.0492
vn 0.1173 0.9919 0.0492
vn 0.0906 0.9947 0.0493
vn 0.0906 0.9947 0.0493
vn 0.0906 0.9947 0.0493
vn 0.1005 0.9937 0.0492
vn 0.1005 0.9937 0.0492
vn 0.1005 0.9937 0.0492
vn 0.1101 0.9928 0.0468
vn 0.1101 0.9928 0.0468
vn 0.1101 0.9928 0.0468
vn 0.0904 0.994 0.0609
vn 0.0904 0.994 0.0609
vn 0.0904 0.994 0.0609
vn 0.0696 0.9957 0.0612
vn 0.0696 0.9957 0.0612
vn 0.0696 0.9957 0.0612
vn 0.0905 0.994 0.0611
vn 0.0905 0.994 0.0611
vn 0.0905 0.994 0.0611
vn 0.0794 0.9939 0.0765
vn 0.0794 0.9939 0.0765
vn 0.0794 0.9939 0.0765
vn 0.0278 0.9983 0.0519
vn 0.0278 0.9983 0.0519
vn 0.0278 0.9983 0.0519
vn 0.0343 0.9973 0.0656
vn 0.0343 0.9973 0.0656
vn 0.0343 0.9973 0.0656
vn 0.0264 0.9983 0.0512
vn 0.0264 0.9983 0.0512
vn 0.0264 0.9983 0.0512
vn 0.0264 0.9983 0.0512
vn 0.0264 0.9983 0.0512
vn 0.0264 0.9983 0.0512
vn 0.0264 0.9983 0.0511
vn 0.0264 0.9983 0.0511
vn 0.0264 0.9983 0.0511
vn 0.0271 0.9984 0.0498
vn 0.0271 0.9984 0.0498
vn 0.0271 0.9984 0.0498
vn 0.0278 0.9983 0.0516
vn 0.0278 0.9983 0.0516
vn 0.0278 0.9983 0.0516
vn 0.0277 0.9983 0.0521
vn 0.0277 0.9983 0.0521
vn 0.0277 0.9983 0.0521
vt 0.724544 0.439617
vt 0.723034 0.439889
vt 0.723591 0.44151
vt 0.725819 0.438635
vt 0.724544 0.439617
vt 0.726724 0.440278
vt 0.725386 0.441093
vt 0.726724 0.440278
vt 0.724544 0.439617
vt 0.725386 0.441093
vt 0.724544 0.439617
vt 0.723591 0.44151
vt 0.723034 0.439889
vt 0.719495 0.441522
vt 0.723591 0.44151
vt 0.719495 0.445399
vt 0.719495 0.441522
vt 0.717658 0.445399
vt 0.717658 0.445399
vt 0.719495 0.441522
vt 0.719495 0.43989
vt 0.723034 0.439889
vt 0.719495 0.43989
vt 0.719495 0.441522
vt 0.719495 0.43989
vt 0.719495 0.434137
vt 0.717658 0.432546
vt 0.719495 0.43989
vt 0.717658 0.432546
vt 0.717658 0.445399
vt 0.723565 0.432555
vt 0.717658 0.432546
vt 0.719495 0.434137
vt 0.723561 0.434152
vt 0.725386 0.432975
vt 0.723565 0.432555
vt 0.723561 0.434152
vt 0.723565 0.432555
vt 0.719495 0.434137
vt 0.723561 0.434152
vt 0.724977 0.434632
vt 0.725386 0.432975
vt 0.724977 0.434632
vt 0.725811 0.435411
vt 0.726724 0.43379
vt 0.724977 0.434632
vt 0.726724 0.43379
vt 0.725386 0.432975
vt 0.725811 0.435411
vt 0.727901 0.435484
vt 0.726724 0.43379
vt 0.726219 0.436866
vt 0.728027 0.437835
vt 0.727901 0.435484
vt 0.725811 0.435411
vt 0.726219 0.436866
vt 0.727901 0.435484
vt 0.725819 0.438635
vt 0.728027 0.437835
vt 0.726219 0.436866
vt 0.728027 0.437835
vt 0.725819 0.438635
vt 0.727556 0.43922
vt 0.725819 0.438635
vt 0.726724 0.440278
vt 0.727556 0.43922
s off
f 1/1/1 2/2/2 3/3/3
f 4/4/4 5/5/5 6/6/6
f 7/7/7 8/8/8 9/9/9
f 10/10/10 11/11/11 12/12/12
f 13/13/13 14/14/14 15/15/15
f 16/16/16 17/17/17 18/18/18
f 19/19/19 20/20/20 21/21/21
f 22/22/22 23/23/23 24/24/24
f 25/25/25 26/26/26 27/27/27
f 28/28/28 29/29/29 30/30/30
f 31/31/31 32/32/32 33/33/33
f 34/34/34 35/35/35 36/36/36
f 37/37/37 38/38/38 39/39/39
f 40/40/40 41/41/41 42/42/42
f 43/43/43 44/44/44 45/45/45
f 46/46/46 47/47/47 48/48/48
f 49/49/49 50/50/50 51/51/51
f 52/52/52 53/53/53 54/54/54
f 55/55/55 56/56/56 57/57/57
f 58/58/58 59/59/59 60/60/60
f 61/61/61 62/62/62 63/63/63
f 64/64/64 65/65/65 66/66/66
