v 0.386937 0.167969 0.145339
v 0.38597 0.167974 0.144332
v 0.384767 0.168093 0.144088
v 0.383051 0.168693 0.14739
v 0.384297 0.168635 0.148396
v 0.385529 0.168488 0.148432
v 0.386937 0.167969 0.145339
v 0.383047 0.168441 0.145142
v 0.386921 0.168199 0.147367
v 0.394657 0.161616 0.095132
v 0.397547 0.161473 0.09646
v 0.397547 0.161189 0.093804
v 0.383565 0.162262 0.090836
v 0.394657 0.161616 0.095132
v 0.397547 0.161189 0.093804
v 0.386937 0.167969 0.145339
v 0.384767 0.168093 0.144088
v 0.383047 0.168441 0.145142
v 0.397547 0.161189 0.093804
v 0.383565 0.162031 0.088258
v 0.383565 0.162262 0.090836
v 0.394657 0.161616 0.095132
v 0.383565 0.163227 0.099428
v 0.383565 0.163517 0.102006
v 0.386921 0.168199 0.147367
v 0.383047 0.168441 0.145142
v 0.383051 0.168693 0.14739
v 0.394657 0.161616 0.095132
v 0.383565 0.163517 0.102006
v 0.397547 0.161473 0.09646
v 0.385529 0.168488 0.148432
v 0.386921 0.168199 0.147367
v 0.383051 0.168693 0.14739
vn 0.1202 0.9866 -0.1108
vn 0.1202 0.9866 -0.1108
vn 0.1202 0.9866 -0.1108
vn 0.1199 0.9886 -0.0911
vn 0.1199 0.9886 -0.0911
vn 0.1199 0.9886 -0.0911
vn 0.1252 0.9859 -0.1108
vn 0.1252 0.9859 -0.1108
vn 0.1252 0.9859 -0.1108
vn 0.0975 0.9896 -0.1055
vn 0.0975 0.9896 -0.1055
vn 0.0975 0.9896 -0.1055
vn 0.0981 0.9897 -0.1043
vn 0.0981 0.9897 -0.1043
vn 0.0981 0.9897 -0.1043
vn 0.1255 0.9848 -0.1202
vn 0.1255 0.9848 -0.1202
vn 0.1255 0.9848 -0.1202
vn 0.0949 0.9915 -0.0889
vn 0.0949 0.9915 -0.0889
vn 0.0949 0.9915 -0.0889
vn 0.1006 0.9887 -0.1111
vn 0.1006 0.9887 -0.1111
vn 0.1006 0.9887 -0.1111
vn 0.1251 0.9859 -0.1107
vn 0.1251 0.9859 -0.1107
vn 0.1251 0.9859 -0.1107
vn 0.1003 0.9887 -0.1117
vn 0.1003 0.9887 -0.1117
vn 0.1003 0.9887 -0.1117
vn 0.1252 0.9866 -0.1043
vn 0.1252 0.9866 -0.1043
vn 0.1252 0.9866 -0.1043
vt 0.70212 0.593214
vt 0.701615 0.592688
vt 0.700987 0.592561
vt 0.70009 0.594285
vt 0.700741 0.594811
vt 0.701384 0.594829
vt 0.70212 0.593214
vt 0.700088 0.593111
vt 0.702112 0.594273
vt 0.706152 0.566988
vt 0.707662 0.567681
vt 0.707662 0.566294
vt 0.700359 0.564744
vt 0.706152 0.566988
vt 0.707662 0.566294
vt 0.70212 0.593214
vt 0.700987 0.592561
vt 0.700088 0.593111
vt 0.707662 0.566294
vt 0.700359 0.563397
vt 0.700359 0.564744
vt 0.706152 0.566988
vt 0.700359 0.569232
vt 0.700359 0.570578
vt 0.702112 0.594273
vt 0.700088 0.593111
vt 0.70009 0.594285
vt 0.706152 0.566988
vt 0.700359 0.570578
vt 0.707662 0.567681
vt 0.701384 0.594829
vt 0.702112 0.594273
vt 0.70009 0.594285
s off
f 1/1/1 2/2/2 3/3/3
f 4/4/4 5/5/5 6/6/6
f 7/7/7 8/8/8 9/9/9
f 10/10/10 11/11/11 12/12/12
f 13/13/13 14/14/14 15/15/15
f 16/16/16 17/17/17 18/18/18
f 19/19/19 20/20/20 21/21/21
f 22/22/22 23/23/23 24/24/24
f 25/25/25 26/26/26 27/27/27
f 28/28/28 29/29/29 30/30/30
f 31/31/31 32/32/32 33/33/33
