v 0.647345 0.199288 -0.278237
v 0.639612 0.199213 -0.281596
v 0.639612 0.199054 -0.278237
v 0.647345 0.197555 -0.241056
v 0.647345 0.197713 -0.244415
v 0.628442 0.197717 -0.244415
v 0.636097 0.198709 -0.27066
v 0.639612 0.199054 -0.278237
v 0.636097 0.199067 -0.278237
v 0.639612 0.199571 -0.289172
v 0.636097 0.199584 -0.289172
v 0.636097 0.199226 -0.281596
v 0.628442 0.197717 -0.244415
v 0.628442 0.197563 -0.241056
v 0.647345 0.197555 -0.241056
v 0.628442 0.199282 -0.278237
v 0.636097 0.199226 -0.281596
v 0.628442 0.199441 -0.281596
v 0.639612 0.199054 -0.278237
v 0.639612 0.199213 -0.281596
v 0.636097 0.199226 -0.281596
v 0.636097 0.199067 -0.278237
v 0.647345 0.199288 -0.278237
v 0.647345 0.199442 -0.281596
v 0.639612 0.199213 -0.281596
v 0.636097 0.198709 -0.27066
v 0.639612 0.198696 -0.27066
v 0.639612 0.199054 -0.278237
v 0.639612 0.199213 -0.281596
v 0.639612 0.199571 -0.289172
v 0.636097 0.199226 -0.281596
v 0.647345 0.197241 -0.234417
v 0.628442 0.197257 -0.234417
v 0.628442 0.19711 -0.231058
v 0.628442 0.19711 -0.231058
v 0.647345 0.197091 -0.231058
v 0.647345 0.197241 -0.234417
v 0.628442 0.199282 -0.278237
v 0.636097 0.199067 -0.278237
v 0.636097 0.199226 -0.281596
vn -0.0302 0.9984 0.0472
vn -0.0302 0.9984 0.0472
vn -0.0302 0.9984 0.0472
vn 0.0002 0.9989 0.0472
vn 0.0002 0.9989 0.0472
vn 0.0002 0.9989 0.0472
vn 0.0036 0.9989 0.0472
vn 0.0036 0.9989 0.0472
vn 0.0036 0.9989 0.0472
vn 0.0036 0.9989 0.0472
vn 0.0036 0.9989 0.0472
vn 0.0036 0.9989 0.0472
vn 0.0004 0.9989 0.0459
vn 0.0004 0.9989 0.0459
vn 0.0004 0.9989 0.0459
vn 0.0281 0.9985 0.0472
vn 0.0281 0.9985 0.0472
vn 0.0281 0.9985 0.0472
vn 0.0036 0.9989 0.0472
vn 0.0036 0.9989 0.0472
vn 0.0036 0.9989 0.0472
vn 0.0036 0.9989 0.0472
vn -0.0296 0.9985 0.0459
vn -0.0296 0.9985 0.0459
vn -0.0296 0.9985 0.0459
vn 0.0036 0.9989 0.0472
vn 0.0036 0.9989 0.0472
vn 0.0036 0.9989 0.0472
vn 0.0036 0.9989 0.0472
vn 0.0036 0.9989 0.0472
vn 0.0036 0.9989 0.0472
vn 0.0009 0.999 0.0438
vn 0.0009 0.999 0.0438
vn 0.0009 0.999 0.0438
vn 0.001 0.999 0.0445
vn 0.001 0.999 0.0445
vn 0.001 0.999 0.0445
vn 0.0281 0.9985 0.0472
vn 0.0281 0.9985 0.0472
vn 0.0281 0.9985 0.0472
vt 0.838146 0.371955
vt 0.834107 0.370201
vt 0.834107 0.371955
vt 0.838146 0.391377
vt 0.838146 0.389623
vt 0.828272 0.389623
vt 0.832271 0.375913
vt 0.834107 0.371955
vt 0.832271 0.371955
vt 0.834107 0.366243
vt 0.832271 0.366243
vt 0.832271 0.370201
vt 0.828272 0.389623
vt 0.828272 0.391377
vt 0.838146 0.391377
vt 0.828272 0.371955
vt 0.832271 0.370201
vt 0.828272 0.370201
vt 0.834107 0.371955
vt 0.834107 0.370201
vt 0.832271 0.370201
vt 0.832271 0.371955
vt 0.838146 0.371955
vt 0.838146 0.370201
vt 0.834107 0.370201
vt 0.832271 0.375913
vt 0.834107 0.375913
vt 0.834107 0.371955
vt 0.834107 0.370201
vt 0.834107 0.366243
vt 0.832271 0.370201
vt 0.838146 0.394845
vt 0.828272 0.394845
vt 0.828272 0.3966
vt 0.828272 0.3966
vt 0.838146 0.3966
vt 0.838146 0.394845
vt 0.828272 0.371955
vt 0.832271 0.371955
vt 0.832271 0.370201
s off
f 1/1/1 2/2/2 3/3/3
f 4/4/4 5/5/5 6/6/6
f 7/7/7 8/8/8 9/9/9
f 10/10/10 11/11/11 12/12/12
f 13/13/13 14/14/14 15/15/15
f 16/16/16 17/17/17 18/18/18
f 19/19/19 20/20/20 21/21/21
f 19/19/19 21/21/21 22/22/22
f 23/23/23 24/24/24 25/25/25
f 26/26/26 27/27/27 28/28/28
f 29/29/29 30/30/30 31/31/31
f 32/32/32 33/33/33 34/34/34
f 35/35/35 36/36/36 37/37/37
f 38/38/38 39/39/39 40/40/40
