v -0.725826 0.179506 -0.137819
v -0.723002 0.179381 -0.140486
v -0.725932 0.179685 -0.141232
v -0.725932 0.179685 -0.141232
v -0.729284 0.180113 -0.143713
v -0.729612 0.179951 -0.139529
v -0.725932 0.179685 -0.141232
v -0.729612 0.179951 -0.139529
v -0.725826 0.179506 -0.137819
v -0.723002 0.179381 -0.140486
v -0.725826 0.179506 -0.137819
v -0.722802 0.179204 -0.137286
v -0.718275 0.178607 -0.13356
v -0.718402 0.178822 -0.13766
v -0.722802 0.179204 -0.137286
v -0.722802 0.179204 -0.137286
v -0.719585 0.179075 -0.140602
v -0.723002 0.179381 -0.140486
v -0.722802 0.179204 -0.137286
v -0.718402 0.178822 -0.13766
v -0.719585 0.179075 -0.140602
v -0.718402 0.178822 -0.13766
v -0.71602 0.178954 -0.142182
v -0.719585 0.179075 -0.140602
v -0.71602 0.178954 -0.142182
v -0.718402 0.178822 -0.13766
v -0.714103 0.178756 -0.139485
v -0.716315 0.178659 -0.136026
v -0.718402 0.178822 -0.13766
v -0.718275 0.178607 -0.13356
v -0.714103 0.178756 -0.139485
v -0.710556 0.178843 -0.143163
v -0.71602 0.178954 -0.142182
v -0.712383 0.179131 -0.147838
v -0.710556 0.178843 -0.143163
v -0.709061 0.179001 -0.147024
v -0.71602 0.178954 -0.142182
v -0.710556 0.178843 -0.143163
v -0.713702 0.179006 -0.144722
v -0.712383 0.179131 -0.147838
v -0.713702 0.179006 -0.144722
v -0.710556 0.178843 -0.143163
v -0.712383 0.179131 -0.147838
v -0.708793 0.179177 -0.150592
v -0.712324 0.179314 -0.151456
v -0.712383 0.179131 -0.147838
v -0.709061 0.179001 -0.147024
v -0.708793 0.179177 -0.150592
v -0.709411 0.179374 -0.154123
v -0.712324 0.179314 -0.151456
v -0.708793 0.179177 -0.150592
v -0.709411 0.179374 -0.154123
v -0.710987 0.179576 -0.157242
v -0.71311 0.179474 -0.154171
v -0.712324 0.179314 -0.151456
v -0.709411 0.179374 -0.154123
v -0.71311 0.179474 -0.154171
v -0.715082 0.179663 -0.156833
v -0.71311 0.179474 -0.154171
v -0.710987 0.179576 -0.157242
v -0.717584 0.179816 -0.158525
v -0.715082 0.179663 -0.156833
v -0.714024 0.179811 -0.160273
v -0.715082 0.179663 -0.156833
v -0.710987 0.179576 -0.157242
v -0.714024 0.179811 -0.160273
v -0.714024 0.179811 -0.160273
v -0.718802 0.180131 -0.162272
v -0.717584 0.179816 -0.158525
v -0.721978 0.180228 -0.159462
v -0.718802 0.180131 -0.162272
v -0.724631 0.180646 -0.162321
v -0.717584 0.179816 -0.158525
v -0.718802 0.180131 -0.162272
v -0.721978 0.180228 -0.159462
v -0.721978 0.180228 -0.159462
v -0.724631 0.180646 -0.162321
v -0.726841 0.180607 -0.15817
v -0.726841 0.180607 -0.15817
v -0.729533 0.180958 -0.160318
v -0.729518 0.180734 -0.155821
v -0.729533 0.180958 -0.160318
v -0.726841 0.180607 -0.15817
v -0.724631 0.180646 -0.162321
v -0.732962 0.181096 -0.156798
v -0.729518 0.180734 -0.155821
v -0.729533 0.180958 -0.160318
v -0.732962 0.181096 -0.156798
v -0.734774 0.181151 -0.152171
v -0.731102 0.180727 -0.152757
v -0.729518 0.180734 -0.155821
v -0.732962 0.181096 -0.156798
v -0.731102 0.180727 -0.152757
v -0.734774 0.181151 -0.152171
v -0.731296 0.180514 -0.147988
v -0.731102 0.180727 -0.152757
v -0.729284 0.180113 -0.143713
v -0.731296 0.180514 -0.147988
v -0.734649 0.180895 -0.146773
v -0.731296 0.180514 -0.147988
v -0.734774 0.181151 -0.152171
v -0.734649 0.180895 -0.146773
v -0.729284 0.180113 -0.143713
v -0.734649 0.180895 -0.146773
v -0.73265 0.18044 -0.142561
v -0.729284 0.180113 -0.143713
v -0.73265 0.18044 -0.142561
v -0.729612 0.179951 -0.139529
v -0.716315 0.178659 -0.136026
v -0.715178 0.178444 -0.132465
v -0.713758 0.178532 -0.135199
v -0.716315 0.178659 -0.136026
v -0.718275 0.178607 -0.13356
v -0.715178 0.178444 -0.132465
v -0.713758 0.178532 -0.135199
v -0.715178 0.178444 -0.132465
v -0.712167 0.178348 -0.132553
v -0.709262 0.178323 -0.13369
v -0.710462 0.178481 -0.136157
v -0.713758 0.178532 -0.135199
v -0.712167 0.178348 -0.132553
v -0.707485 0.178362 -0.135373
v -0.710462 0.178481 -0.136157
v -0.709262 0.178323 -0.13369
v -0.709125 0.17851 -0.137403
v -0.710462 0.178481 -0.136157
v -0.707485 0.178362 -0.135373
vn 0.0906 0.9947 0.0493
vn 0.0906 0.9947 0.0493
vn 0.0906 0.9947 0.0493
vn 0.0932 0.9946 0.0457
vn 0.0932 0.9946 0.0457
vn 0.0932 0.9946 0.0457
vn 0.0948 0.9943 0.0491
vn 0.0948 0.9943 0.0491
vn 0.0948 0.9943 0.0491
vn 0.0906 0.9947 0.0493
vn 0.0906 0.9947 0.0493
vn 0.0906 0.9947 0.0493
vn 0.0906 0.9947 0.0493
vn 0.0906 0.9947 0.0493
vn 0.0906 0.9947 0.0493
vn 0.0906 0.9947 0.0493
vn 0.0906 0.9947 0.0493
vn 0.0906 0.9947 0.0493
vn 0.0906 0.9947 0.0493
vn 0.0906 0.9947 0.0493
vn 0.0906 0.9947 0.0493
vn 0.0612 0.9962 0.0612
vn 0.0612 0.9962 0.0612
vn 0.0612 0.9962 0.0612
vn 0.0356 0.9982 0.0478
vn 0.0356 0.9982 0.0478
vn 0.0356 0.9982 0.0478
vn 0.038 0.998 0.0511
vn 0.038 0.998 0.0511
vn 0.038 0.998 0.0511
vn 0.0296 0.9982 0.0521
vn 0.0296 0.9982 0.0521
vn 0.0296 0.9982 0.0521
vn 0.0264 0.9983 0.0512
vn 0.0264 0.9983 0.0512
vn 0.0264 0.9983 0.0512
vn 0.0286 0.9985 0.0466
vn 0.0286 0.9985 0.0466
vn 0.0286 0.9985 0.0466
vn 0.0264 0.9983 0.0512
vn 0.0264 0.9983 0.0512
vn 0.0264 0.9983 0.0512
vn 0.0264 0.9983 0.0511
vn 0.0264 0.9983 0.0511
vn 0.0264 0.9983 0.0511
vn 0.0264 0.9983 0.0512
vn 0.0264 0.9983 0.0512
vn 0.0264 0.9983 0.0512
vn 0.0264 0.9983 0.0511
vn 0.0264 0.9983 0.0511
vn 0.0264 0.9983 0.0511
vn 0.0264 0.9983 0.0512
vn 0.0264 0.9983 0.0512
vn 0.0264 0.9983 0.0512
vn 0.0264 0.9983 0.0512
vn 0.0264 0.9983 0.0512
vn 0.0264 0.9983 0.0512
vn 0.0264 0.9983 0.0512
vn 0.0264 0.9983 0.0512
vn 0.0264 0.9983 0.0512
vn 0.0264 0.9983 0.0512
vn 0.0264 0.9983 0.0512
vn 0.0264 0.9983 0.0512
vn 0.0264 0.9983 0.0512
vn 0.0264 0.9983 0.0512
vn 0.0264 0.9983 0.0512
vn 0.0366 0.9967 0.072
vn 0.0366 0.9967 0.072
vn 0.0366 0.9967 0.072
vn 0.0873 0.9941 0.0645
vn 0.0873 0.9941 0.0645
vn 0.0873 0.9941 0.0645
vn 0.0811 0.995 0.0574
vn 0.0811 0.995 0.0574
vn 0.0811 0.995 0.0574
vn 0.0931 0.9939 0.0591
vn 0.0931 0.9939 0.0591
vn 0.0931 0.9939 0.0591
vn 0.0906 0.9947 0.0493
vn 0.0906 0.9947 0.0493
vn 0.0906 0.9947 0.0493
vn 0.0859 0.9948 0.0552
vn 0.0859 0.9948 0.0552
vn 0.0859 0.9948 0.0552
vn 0.0906 0.9947 0.0493
vn 0.0906 0.9947 0.0493
vn 0.0906 0.9947 0.0493
vn 0.1203 0.9921 0.0354
vn 0.1203 0.9921 0.0354
vn 0.1203 0.9921 0.0354
vn 0.0906 0.9947 0.0493
vn 0.0906 0.9947 0.0493
vn 0.0906 0.9947 0.0493
vn 0.1224 0.9913 0.0493
vn 0.1224 0.9913 0.0493
vn 0.1224 0.9913 0.0493
vn 0.1251 0.9916 0.0341
vn 0.1251 0.9916 0.0341
vn 0.1251 0.9916 0.0341
vn 0.1286 0.9907 0.044
vn 0.1286 0.9907 0.044
vn 0.1286 0.9907 0.044
vn 0.1146 0.992 0.0526
vn 0.1146 0.992 0.0526
vn 0.1146 0.992 0.0526
vn 0.1127 0.9925 0.0472
vn 0.1127 0.9925 0.0472
vn 0.1127 0.9925 0.0472
vn 0.0334 0.9982 0.0494
vn 0.0334 0.9982 0.0494
vn 0.0334 0.9982 0.0494
vn 0.0352 0.9982 0.0489
vn 0.0352 0.9982 0.0489
vn 0.0352 0.9982 0.0489
vn 0.0335 0.9982 0.0494
vn 0.0335 0.9982 0.0494
vn 0.0335 0.9982 0.0494
vn 0.0293 0.9983 0.0508
vn 0.0293 0.9983 0.0508
vn 0.0293 0.9983 0.0508
vn 0.0293 0.9983 0.0508
vn 0.0264 0.9983 0.0511
vn 0.0264 0.9983 0.0511
vn 0.0264 0.9983 0.0511
vn 0.0264 0.9983 0.0512
vn 0.0264 0.9983 0.0512
vn 0.0264 0.9983 0.0512
vt 0.120859 0.445304
vt 0.122334 0.443911
vt 0.120803 0.443521
vt 0.120803 0.443521
vt 0.119053 0.442225
vt 0.118881 0.444411
vt 0.120803 0.443521
vt 0.118881 0.444411
vt 0.120859 0.445304
vt 0.122334 0.443911
vt 0.120859 0.445304
vt 0.122439 0.445582
vt 0.124803 0.447529
vt 0.124737 0.445387
vt 0.122439 0.445582
vt 0.122439 0.445582
vt 0.124119 0.44385
vt 0.122334 0.443911
vt 0.122439 0.445582
vt 0.124737 0.445387
vt 0.124119 0.44385
vt 0.124737 0.445387
vt 0.125981 0.443025
vt 0.124119 0.44385
vt 0.125981 0.443025
vt 0.124737 0.445387
vt 0.126982 0.444434
vt 0.125827 0.44624
vt 0.124737 0.445387
vt 0.124803 0.447529
vt 0.126982 0.444434
vt 0.128835 0.442512
vt 0.125981 0.443025
vt 0.127881 0.440071
vt 0.128835 0.442512
vt 0.129616 0.440496
vt 0.125981 0.443025
vt 0.128835 0.442512
vt 0.127192 0.441698
vt 0.127881 0.440071
vt 0.127192 0.441698
vt 0.128835 0.442512
vt 0.127881 0.440071
vt 0.129756 0.438632
vt 0.127912 0.43818
vt 0.127881 0.440071
vt 0.129616 0.440496
vt 0.129756 0.438632
vt 0.129434 0.436787
vt 0.127912 0.43818
vt 0.129756 0.438632
vt 0.129434 0.436787
vt 0.12861 0.435158
vt 0.127501 0.436762
vt 0.127912 0.43818
vt 0.129434 0.436787
vt 0.127501 0.436762
vt 0.126471 0.435372
vt 0.127501 0.436762
vt 0.12861 0.435158
vt 0.125164 0.434488
vt 0.126471 0.435372
vt 0.127024 0.433575
vt 0.126471 0.435372
vt 0.12861 0.435158
vt 0.127024 0.433575
vt 0.127024 0.433575
vt 0.124528 0.432531
vt 0.125164 0.434488
vt 0.122869 0.433999
vt 0.124528 0.432531
vt 0.121483 0.432505
vt 0.125164 0.434488
vt 0.124528 0.432531
vt 0.122869 0.433999
vt 0.122869 0.433999
vt 0.121483 0.432505
vt 0.120329 0.434673
vt 0.120329 0.434673
vt 0.118922 0.433552
vt 0.118931 0.435901
vt 0.118922 0.433552
vt 0.120329 0.434673
vt 0.121483 0.432505
vt 0.117131 0.43539
vt 0.118931 0.435901
vt 0.118922 0.433552
vt 0.117131 0.43539
vt 0.116185 0.437807
vt 0.118103 0.437501
vt 0.118931 0.435901
vt 0.117131 0.43539
vt 0.118103 0.437501
vt 0.116185 0.437807
vt 0.118002 0.439992
vt 0.118103 0.437501
vt 0.119053 0.442225
vt 0.118002 0.439992
vt 0.11625 0.440627
vt 0.118002 0.439992
vt 0.116185 0.437807
vt 0.11625 0.440627
vt 0.119053 0.442225
vt 0.11625 0.440627
vt 0.117294 0.442827
vt 0.119053 0.442225
vt 0.117294 0.442827
vt 0.118881 0.444411
vt 0.125827 0.44624
vt 0.126421 0.448101
vt 0.127162 0.446672
vt 0.125827 0.44624
vt 0.124803 0.447529
vt 0.126421 0.448101
vt 0.127162 0.446672
vt 0.126421 0.448101
vt 0.127994 0.448054
vt 0.129511 0.447461
vt 0.128884 0.446172
vt 0.127162 0.446672
vt 0.127994 0.448054
vt 0.13044 0.446582
vt 0.128884 0.446172
vt 0.129511 0.447461
vt 0.129583 0.445521
vt 0.128884 0.446172
vt 0.13044 0.446582
s off
f 1/1/1 2/2/2 3/3/3
f 4/4/4 5/5/5 6/6/6
f 7/7/7 8/8/8 9/9/9
f 10/10/10 11/11/11 12/12/12
f 13/13/13 14/14/14 15/15/15
f 16/16/16 17/17/17 18/18/18
f 19/19/19 20/20/20 21/21/21
f 22/22/22 23/23/23 24/24/24
f 25/25/25 26/26/26 27/27/27
f 28/28/28 29/29/29 30/30/30
f 31/31/31 32/32/32 33/33/33
f 34/34/34 35/35/35 36/36/36
f 37/37/37 38/38/38 39/39/39
f 40/40/40 41/41/41 42/42/42
f 43/43/43 44/44/44 45/45/45
f 46/46/46 47/47/47 48/48/48
f 49/49/49 50/50/50 51/51/51
f 52/52/52 53/53/53 54/54/54
f 55/55/55 56/56/56 57/57/57
f 58/58/58 59/59/59 60/60/60
f 61/61/61 62/62/62 63/63/63
f 64/64/64 65/65/65 66/66/66
f 67/67/67 68/68/68 69/69/69
f 70/70/70 71/71/71 72/72/72
f 73/73/73 74/74/74 75/75/75
f 76/76/76 77/77/77 78/78/78
f 79/79/79 80/80/80 81/81/81
f 82/82/82 83/83/83 84/84/84
f 85/85/85 86/86/86 87/87/87
f 88/88/88 89/89/89 90/90/90
f 91/91/91 92/92/92 93/93/93
f 94/94/94 95/95/95 96/96/96
f 97/97/97 98/98/98 99/99/99
f 100/100/100 101/101/101 102/102/102
f 103/103/103 104/104/104 105/105/105
f 106/106/106 107/107/107 108/108/108
f 109/109/109 110/110/110 111/111/111
f 112/112/112 113/113/113 114/114/114
f 115/115/115 116/116/116 117/117/117
f 118/118/118 119/119/119 120/120/120
f 118/118/118 120/120/120 121/121/121
f 122/122/122 123/123/123 124/124/124
f 125/125/125 126/126/126 127/127/127
