v 0.580482 0.168612 0.004524
v 0.578139 0.168894 0.004524
v 0.575707 0.16914 0.01181
v 0.587434 0.168343 -0.037656
v 0.585091 0.168584 -0.037656
v 0.582659 0.168675 -0.03037
v 0.579157 0.169064 -0.0322
v 0.578139 0.16932 -0.037656
v 0.575707 0.169415 -0.03037
v 0.587379 0.168158 -0.028571
v 0.587476 0.168172 -0.030869
v 0.586191 0.168322 -0.032278
v 0.576296 0.16933 -0.028127
v 0.578755 0.169057 -0.027349
v 0.575707 0.169415 -0.03037
v 0.580481 0.16889 -0.028815
v 0.575707 0.169415 -0.03037
v 0.578755 0.169057 -0.027349
v 0.579157 0.169064 -0.0322
v 0.580601 0.168894 -0.030541
v 0.579901 0.168981 -0.031815
v 0.582999 0.168621 -0.028557
v 0.584127 0.168492 -0.027553
v 0.582659 0.168675 -0.03037
v 0.584127 0.168492 -0.027553
v 0.585771 0.168317 -0.027461
v 0.587379 0.168158 -0.028571
v 0.587379 0.168158 -0.028571
v 0.582659 0.168675 -0.03037
v 0.584127 0.168492 -0.027553
v 0.576296 0.169055 0.014053
v 0.578755 0.168753 0.014831
v 0.575707 0.16914 0.01181
v 0.580481 0.168554 0.013365
v 0.575707 0.16914 0.01181
v 0.578755 0.168753 0.014831
v 0.579157 0.168736 0.00998
v 0.580601 0.168551 0.011639
v 0.579901 0.168644 0.010364
v 0.582659 0.168675 -0.03037
v 0.587379 0.168158 -0.028571
v 0.586191 0.168322 -0.032278
v 0.575707 0.169415 -0.03037
v 0.580481 0.16889 -0.028815
v 0.580601 0.168894 -0.030541
v 0.586191 0.168322 -0.032278
v 0.587434 0.168343 -0.037656
v 0.582659 0.168675 -0.03037
v 0.575707 0.16914 0.01181
v 0.580481 0.168554 0.013365
v 0.580601 0.168551 0.011639
v 0.579157 0.168736 0.00998
v 0.580482 0.168612 0.004524
v 0.575707 0.16914 0.01181
v 0.575707 0.16914 0.01181
v 0.580601 0.168551 0.011639
v 0.579157 0.168736 0.00998
v 0.579157 0.169064 -0.0322
v 0.580482 0.169071 -0.037656
v 0.578139 0.16932 -0.037656
v 0.575707 0.169415 -0.03037
v 0.580601 0.168894 -0.030541
v 0.579157 0.169064 -0.0322
vn 0.1197 0.9928 0.0065
vn 0.1197 0.9928 0.0065
vn 0.1197 0.9928 0.0065
vn 0.1024 0.9945 0.0217
vn 0.1024 0.9945 0.0217
vn 0.1024 0.9945 0.0217
vn 0.1145 0.9931 0.0252
vn 0.1145 0.9931 0.0252
vn 0.1145 0.9931 0.0252
vn 0.105 0.9944 0.0101
vn 0.105 0.9944 0.0101
vn 0.105 0.9944 0.0101
vn 0.1072 0.9942 0.0098
vn 0.1072 0.9942 0.0098
vn 0.1072 0.9942 0.0098
vn 0.1059 0.9943 0.0112
vn 0.1059 0.9943 0.0112
vn 0.1059 0.9943 0.0112
vn 0.1051 0.9944 0.01
vn 0.1051 0.9944 0.01
vn 0.1051 0.9944 0.01
vn 0.1051 0.9944 0.0101
vn 0.1051 0.9944 0.0101
vn 0.1051 0.9944 0.0101
vn 0.105 0.9944 0.0101
vn 0.105 0.9944 0.0101
vn 0.105 0.9944 0.0101
vn 0.105 0.9944 0.0101
vn 0.105 0.9944 0.0101
vn 0.105 0.9944 0.0101
vn 0.1197 0.9928 0.0064
vn 0.1197 0.9928 0.0064
vn 0.1197 0.9928 0.0064
vn 0.1197 0.9928 0.0065
vn 0.1197 0.9928 0.0065
vn 0.1197 0.9928 0.0065
vn 0.1196 0.9928 0.0066
vn 0.1196 0.9928 0.0066
vn 0.1196 0.9928 0.0066
vn 0.105 0.9944 0.0101
vn 0.105 0.9944 0.0101
vn 0.105 0.9944 0.0101
vn 0.1062 0.9943 0.0102
vn 0.1062 0.9943 0.0102
vn 0.1062 0.9943 0.0102
vn 0.116 0.9928 0.0307
vn 0.116 0.9928 0.0307
vn 0.116 0.9928 0.0307
vn 0.1197 0.9928 0.0065
vn 0.1197 0.9928 0.0065
vn 0.1197 0.9928 0.0065
vn 0.1197 0.9928 0.0065
vn 0.1197 0.9928 0.0065
vn 0.1197 0.9928 0.0065
vn 0.1197 0.9928 0.0065
vn 0.1197 0.9928 0.0065
vn 0.1197 0.9928 0.0065
vn 0.1054 0.9941 0.0269
vn 0.1054 0.9941 0.0269
vn 0.1054 0.9941 0.0269
vn 0.1062 0.9943 0.0092
vn 0.1062 0.9943 0.0092
vn 0.1062 0.9943 0.0092
vt 0.80322 0.519658
vt 0.801996 0.519658
vt 0.800726 0.523464
vt 0.806851 0.497625
vt 0.805627 0.497625
vt 0.804357 0.501431
vt 0.802528 0.500475
vt 0.801996 0.497625
vt 0.800726 0.501431
vt 0.806823 0.50237
vt 0.806873 0.50117
vt 0.806202 0.500434
vt 0.801033 0.502603
vt 0.802318 0.503009
vt 0.800726 0.501431
vt 0.803219 0.502243
vt 0.800726 0.501431
vt 0.802318 0.503009
vt 0.802528 0.500475
vt 0.803282 0.501342
vt 0.802916 0.500676
vt 0.804535 0.502378
vt 0.805124 0.502903
vt 0.804357 0.501431
vt 0.805124 0.502903
vt 0.805983 0.50295
vt 0.806823 0.50237
vt 0.806823 0.50237
vt 0.804357 0.501431
vt 0.805124 0.502903
vt 0.801033 0.524635
vt 0.802318 0.525042
vt 0.800726 0.523464
vt 0.803219 0.524276
vt 0.800726 0.523464
vt 0.802318 0.525042
vt 0.802528 0.522508
vt 0.803282 0.523375
vt 0.802916 0.522709
vt 0.804357 0.501431
vt 0.806823 0.50237
vt 0.806202 0.500434
vt 0.800726 0.501431
vt 0.803219 0.502243
vt 0.803282 0.501342
vt 0.806202 0.500434
vt 0.806851 0.497625
vt 0.804357 0.501431
vt 0.800726 0.523464
vt 0.803219 0.524276
vt 0.803282 0.523375
vt 0.802528 0.522508
vt 0.80322 0.519658
vt 0.800726 0.523464
vt 0.800726 0.523464
vt 0.803282 0.523375
vt 0.802528 0.522508
vt 0.802528 0.500475
vt 0.80322 0.497625
vt 0.801996 0.497625
vt 0.800726 0.501431
vt 0.803282 0.501342
vt 0.802528 0.500475
s off
f 1/1/1 2/2/2 3/3/3
f 4/4/4 5/5/5 6/6/6
f 7/7/7 8/8/8 9/9/9
f 10/10/10 11/11/11 12/12/12
f 13/13/13 14/14/14 15/15/15
f 16/16/16 17/17/17 18/18/18
f 19/19/19 20/20/20 21/21/21
f 22/22/22 23/23/23 24/24/24
f 25/25/25 26/26/26 27/27/27
f 28/28/28 29/29/29 30/30/30
f 31/31/31 32/32/32 33/33/33
f 34/34/34 35/35/35 36/36/36
f 37/37/37 38/38/38 39/39/39
f 40/40/40 41/41/41 42/42/42
f 43/43/43 44/44/44 45/45/45
f 46/46/46 47/47/47 48/48/48
f 49/49/49 50/50/50 51/51/51
f 52/52/52 53/53/53 54/54/54
f 55/55/55 56/56/56 57/57/57
f 58/58/58 59/59/59 60/60/60
f 61/61/61 62/62/62 63/63/63
