v -0.340546 0.174193 -0.078396
v -0.340664 0.129003 -0.064663
v -0.319218 0.129003 -0.064663
v -0.319218 0.173268 -0.078115
v -0.362091 0.176993 -0.079247
v -0.3691 0.129003 -0.064663
v -0.340664 0.129003 -0.064663
v -0.340546 0.174193 -0.078396
v -0.319218 0.173268 -0.078115
v -0.319218 0.129003 -0.064663
v -0.297772 0.129003 -0.064663
v -0.29789 0.174193 -0.078396
v -0.297772 0.129003 -0.064663
v -0.269335 0.129003 -0.064663
v -0.276344 0.176993 -0.079247
v -0.29789 0.174193 -0.078396
v -0.260494 0.129125 -0.068351
v -0.256832 0.129417 -0.077255
v -0.27062 0.178443 -0.085945
v -0.276344 0.176993 -0.079247
v -0.269335 0.129003 -0.064663
v -0.256832 0.132693 -0.17694
v -0.270616 0.18121 -0.170619
v -0.27062 0.178443 -0.085945
v -0.256832 0.129417 -0.077255
v -0.276515 0.180593 -0.176984
v -0.270616 0.18121 -0.170619
v -0.256832 0.132693 -0.17694
v -0.260498 0.132981 -0.185728
v -0.269347 0.133101 -0.189368
v -0.276515 0.180593 -0.176984
v -0.269347 0.133101 -0.189368
v -0.297772 0.133101 -0.189368
v -0.298023 0.178862 -0.177436
v -0.298023 0.178862 -0.177436
v -0.297772 0.133101 -0.189368
v -0.319218 0.133101 -0.189368
v -0.319218 0.178294 -0.177584
v -0.319218 0.178294 -0.177584
v -0.319218 0.133101 -0.189368
v -0.340663 0.133101 -0.189368
v -0.340412 0.178862 -0.177436
v -0.340663 0.133101 -0.189368
v -0.369088 0.133101 -0.189368
v -0.361921 0.180593 -0.176984
v -0.340412 0.178862 -0.177436
v -0.377938 0.132981 -0.185728
v -0.381604 0.132693 -0.17694
v -0.36782 0.18121 -0.170619
v -0.361921 0.180593 -0.176984
v -0.369088 0.133101 -0.189368
v -0.364405 0.183417 -0.168616
v -0.359806 0.182933 -0.173649
v -0.361921 0.180593 -0.176984
v -0.36782 0.18121 -0.170619
v -0.359806 0.182933 -0.173649
v -0.339548 0.181277 -0.174064
v -0.340412 0.178862 -0.177436
v -0.361921 0.180593 -0.176984
v -0.36782 0.18121 -0.170619
v -0.367815 0.178443 -0.085945
v -0.364417 0.18066 -0.087988
v -0.364405 0.183417 -0.168616
v -0.36782 0.18121 -0.170619
v -0.381604 0.132693 -0.17694
v -0.381604 0.129417 -0.077255
v -0.367815 0.178443 -0.085945
v -0.377942 0.129125 -0.068351
v -0.3691 0.129003 -0.064663
v -0.362091 0.176993 -0.079247
v -0.367815 0.178443 -0.085945
v -0.381604 0.129417 -0.077255
v -0.359962 0.179488 -0.082683
v -0.364417 0.18066 -0.087988
v -0.367815 0.178443 -0.085945
v -0.362091 0.176993 -0.079247
v -0.364417 0.18066 -0.087988
v -0.359962 0.179488 -0.082683
v -0.351271 0.17847 -0.095784
v -0.351206 0.181236 -0.160393
v -0.364405 0.183417 -0.168616
v -0.364417 0.18066 -0.087988
v -0.351271 0.17847 -0.095784
v -0.339676 0.176874 -0.081891
v -0.359962 0.179488 -0.082683
v -0.362091 0.176993 -0.079247
v -0.340546 0.174193 -0.078396
v -0.339676 0.176874 -0.081891
v -0.335297 0.176567 -0.095404
v -0.351271 0.17847 -0.095784
v -0.359962 0.179488 -0.082683
v -0.319218 0.176009 -0.081625
v -0.339676 0.176874 -0.081891
v -0.340546 0.174193 -0.078396
v -0.319218 0.173268 -0.078115
v -0.319218 0.176009 -0.081625
v -0.319218 0.176023 -0.095301
v -0.335297 0.176567 -0.095404
v -0.339676 0.176874 -0.081891
v -0.29876 0.176874 -0.081891
v -0.319218 0.176009 -0.081625
v -0.319218 0.173268 -0.078115
v -0.29789 0.174193 -0.078396
v -0.29876 0.176874 -0.081891
v -0.303139 0.176567 -0.095404
v -0.319218 0.176023 -0.095301
v -0.319218 0.176009 -0.081625
v -0.319218 0.179369 -0.160605
v -0.319218 0.176023 -0.095301
v -0.303139 0.176567 -0.095404
v -0.303191 0.179791 -0.16056
v -0.335245 0.179791 -0.16056
v -0.335297 0.176567 -0.095404
v -0.319218 0.176023 -0.095301
v -0.319218 0.179369 -0.160605
v -0.303191 0.179791 -0.16056
v -0.298887 0.181277 -0.174064
v -0.319218 0.180733 -0.174202
v -0.319218 0.179369 -0.160605
v -0.319218 0.179369 -0.160605
v -0.319218 0.180733 -0.174202
v -0.339548 0.181277 -0.174064
v -0.335245 0.179791 -0.16056
v -0.339548 0.181277 -0.174064
v -0.319218 0.180733 -0.174202
v -0.319218 0.178294 -0.177584
v -0.340412 0.178862 -0.177436
v -0.319218 0.180733 -0.174202
v -0.298887 0.181277 -0.174064
v -0.298023 0.178862 -0.177436
v -0.319218 0.178294 -0.177584
v -0.335245 0.179791 -0.16056
v -0.339548 0.181277 -0.174064
v -0.359806 0.182933 -0.173649
v -0.351206 0.181236 -0.160393
v -0.298887 0.181277 -0.174064
v -0.27863 0.182933 -0.173649
v -0.276515 0.180593 -0.176984
v -0.298023 0.178862 -0.177436
v -0.28723 0.181236 -0.160393
v -0.27863 0.182933 -0.173649
v -0.298887 0.181277 -0.174064
v -0.303191 0.179791 -0.16056
v -0.27863 0.182933 -0.173649
v -0.274031 0.183417 -0.168616
v -0.270616 0.18121 -0.170619
v -0.276515 0.180593 -0.176984
v -0.28723 0.181236 -0.160393
v -0.274031 0.183417 -0.168616
v -0.27863 0.182933 -0.173649
v -0.303191 0.179791 -0.16056
v -0.303139 0.176567 -0.095404
v -0.287165 0.17847 -0.095784
v -0.28723 0.181236 -0.160393
v -0.274031 0.183417 -0.168616
v -0.28723 0.181236 -0.160393
v -0.287165 0.17847 -0.095784
v -0.274018 0.18066 -0.087987
v -0.278474 0.179488 -0.082683
v -0.287165 0.17847 -0.095784
v -0.303139 0.176567 -0.095404
v -0.29876 0.176874 -0.081891
v -0.278474 0.179488 -0.082683
v -0.274018 0.18066 -0.087987
v -0.287165 0.17847 -0.095784
v -0.274018 0.18066 -0.087987
v -0.27062 0.178443 -0.085945
v -0.270616 0.18121 -0.170619
v -0.274031 0.183417 -0.168616
v -0.274018 0.18066 -0.087987
v -0.278474 0.179488 -0.082683
v -0.276344 0.176993 -0.079247
v -0.27062 0.178443 -0.085945
v -0.278474 0.179488 -0.082683
v -0.29876 0.176874 -0.081891
v -0.29789 0.174193 -0.078396
v -0.276344 0.176993 -0.079247
v -0.351206 0.181236 -0.160393
v -0.351271 0.17847 -0.095784
v -0.335297 0.176567 -0.095404
v -0.335245 0.179791 -0.16056
v -0.364405 0.183417 -0.168616
v -0.351206 0.181236 -0.160393
v -0.359806 0.182933 -0.173649
v -0.340664 0.129003 -0.064663
v -0.340664 0.117741 -0.065034
v -0.319218 0.117741 -0.065034
v -0.319218 0.129003 -0.064663
v -0.340664 0.129003 -0.064663
v -0.3691 0.129003 -0.064663
v -0.369108 0.117741 -0.065034
v -0.340664 0.117741 -0.065034
v -0.377944 0.117862 -0.068718
v -0.369108 0.117741 -0.065034
v -0.3691 0.129003 -0.064663
v -0.377942 0.129125 -0.068351
v -0.381604 0.118155 -0.077614
v -0.377944 0.117862 -0.068718
v -0.377942 0.129125 -0.068351
v -0.381604 0.129417 -0.077255
v -0.381604 0.121431 -0.177316
v -0.381604 0.118155 -0.077614
v -0.381604 0.129417 -0.077255
v -0.381604 0.132693 -0.17694
v -0.377941 0.121719 -0.1861
v -0.381604 0.121431 -0.177316
v -0.381604 0.132693 -0.17694
v -0.377938 0.132981 -0.185728
v -0.369097 0.121839 -0.189738
v -0.377941 0.121719 -0.1861
v -0.377938 0.132981 -0.185728
v -0.369088 0.133101 -0.189368
v -0.369097 0.121839 -0.189738
v -0.369088 0.133101 -0.189368
v -0.340663 0.133101 -0.189368
v -0.340663 0.121839 -0.189738
v -0.319218 0.133101 -0.189368
v -0.319218 0.121839 -0.189738
v -0.340663 0.121839 -0.189738
v -0.340663 0.133101 -0.189368
v -0.297772 0.133101 -0.189368
v -0.297772 0.121839 -0.189738
v -0.319218 0.121839 -0.189738
v -0.319218 0.133101 -0.189368
v -0.297772 0.133101 -0.189368
v -0.269347 0.133101 -0.189368
v -0.269339 0.121839 -0.189738
v -0.297772 0.121839 -0.189738
v -0.269347 0.133101 -0.189368
v -0.260498 0.132981 -0.185728
v -0.260495 0.121719 -0.1861
v -0.269339 0.121839 -0.189738
v -0.260498 0.132981 -0.185728
v -0.256832 0.132693 -0.17694
v -0.256832 0.121431 -0.177316
v -0.260495 0.121719 -0.1861
v -0.256832 0.118155 -0.077614
v -0.256832 0.121431 -0.177316
v -0.256832 0.132693 -0.17694
v -0.256832 0.129417 -0.077255
v -0.260492 0.117862 -0.068718
v -0.256832 0.118155 -0.077614
v -0.256832 0.129417 -0.077255
v -0.260494 0.129125 -0.068351
v -0.269327 0.117741 -0.065033
v -0.260492 0.117862 -0.068718
v -0.260494 0.129125 -0.068351
v -0.269335 0.129003 -0.064663
v -0.269327 0.117741 -0.065033
v -0.269335 0.129003 -0.064663
v -0.297772 0.129003 -0.064663
v -0.297772 0.117741 -0.065034
v -0.319218 0.129003 -0.064663
v -0.319218 0.117741 -0.065034
v -0.297772 0.117741 -0.065034
v -0.297772 0.129003 -0.064663
vn -0 0.2909 0.9568
vn -0 0.2908 0.9568
vn -0 0.2908 0.9568
vn 0.0001 0.2908 0.9568
vn -0 0.2908 0.9568
vn -0.0001 0.2908 0.9568
vn -0 0.2908 0.9568
vn -0 0.2909 0.9568
vn 0.0001 0.2908 0.9568
vn -0 0.2908 0.9568
vn -0 0.2908 0.9568
vn -0 0.2909 0.9568
vn -0 0.2908 0.9568
vn 0.0001 0.2908 0.9568
vn -0 0.2908 0.9568
vn -0 0.2909 0.9568
vn 0.6699 0.338 0.6611
vn 0.9622 0.2722 0.009
vn 0.9622 0.2722 0.009
vn -0 0.2908 0.9568
vn 0.0001 0.2908 0.9568
vn 0.9622 0.2722 0.0089
vn 0.9622 0.2722 0.0089
vn 0.9622 0.2722 0.009
vn 0.9622 0.2722 0.009
vn -0 0.2523 -0.9676
vn 0.9622 0.2722 0.0089
vn 0.9622 0.2722 0.0089
vn 0.6779 0.3144 -0.6646
vn 0.0001 0.2523 -0.9676
vn -0 0.2523 -0.9676
vn 0.0001 0.2523 -0.9676
vn -0 0.2523 -0.9676
vn -0 0.2524 -0.9676
vn -0 0.2524 -0.9676
vn -0 0.2523 -0.9676
vn -0 0.2523 -0.9676
vn -0 0.2524 -0.9676
vn -0 0.2524 -0.9676
vn -0 0.2523 -0.9676
vn -0 0.2523 -0.9676
vn -0 0.2524 -0.9676
vn -0 0.2523 -0.9676
vn -0.0001 0.2523 -0.9676
vn -0 0.2523 -0.9676
vn -0 0.2524 -0.9676
vn -0.6779 0.3144 -0.6646
vn -0.9622 0.2722 0.0089
vn -0.9622 0.2722 0.009
vn -0 0.2523 -0.9676
vn -0.0001 0.2523 -0.9676
vn 0.1469 0.9885 0.0357
vn 0.1222 0.9914 0.047
vn -0 0.2523 -0.9676
vn -0.9622 0.2722 0.009
vn 0.1222 0.9914 0.047
vn 0.0622 0.9947 0.0822
vn -0 0.2524 -0.9676
vn -0 0.2523 -0.9676
vn -0.9622 0.2722 0.009
vn -0.9622 0.2722 0.0089
vn 0.1802 0.9825 0.0477
vn 0.1469 0.9885 0.0357
vn -0.9622 0.2722 0.009
vn -0.9622 0.2722 0.0089
vn -0.9622 0.2722 0.009
vn -0.9622 0.2722 0.0089
vn -0.6699 0.338 0.6611
vn -0.0001 0.2908 0.9568
vn -0 0.2908 0.9568
vn -0.9622 0.2722 0.0089
vn -0.9622 0.2722 0.009
vn 0.1683 0.9849 0.0408
vn 0.1802 0.9825 0.0477
vn -0.9622 0.2722 0.0089
vn -0 0.2908 0.9568
vn 0.1802 0.9825 0.0477
vn 0.1683 0.9849 0.0408
vn 0.1368 0.9901 0.0319
vn 0.1206 0.9913 0.0528
vn 0.1469 0.9885 0.0357
vn 0.1802 0.9825 0.0477
vn 0.1368 0.9901 0.0319
vn 0.0888 0.996 0.0087
vn 0.1683 0.9849 0.0408
vn -0 0.2908 0.9568
vn -0 0.2909 0.9568
vn 0.0888 0.996 0.0087
vn 0.0698 0.9973 0.0249
vn 0.1368 0.9901 0.0319
vn 0.1683 0.9849 0.0408
vn -0 1 -0.0006
vn 0.0888 0.996 0.0087
vn -0 0.2909 0.9568
vn 0.0001 0.2908 0.9568
vn -0 1 -0.0006
vn -0 0.9997 0.0228
vn 0.0698 0.9973 0.0249
vn 0.0888 0.996 0.0087
vn -0.0887 0.996 0.0087
vn -0 1 -0.0006
vn 0.0001 0.2908 0.9568
vn -0 0.2909 0.9568
vn -0.0887 0.996 0.0087
vn -0.0698 0.9973 0.0249
vn -0 0.9997 0.0228
vn -0 1 -0.0006
vn -0 0.9972 0.0754
vn -0 0.9997 0.0228
vn -0.0698 0.9973 0.0249
vn -0.0588 0.9958 0.0695
vn 0.0588 0.9958 0.0695
vn 0.0698 0.9973 0.0249
vn -0 0.9997 0.0228
vn -0 0.9972 0.0754
vn -0.0588 0.9958 0.0695
vn -0.0622 0.9947 0.0822
vn -0 0.9953 0.0964
vn -0 0.9972 0.0754
vn -0 0.9972 0.0754
vn -0 0.9953 0.0964
vn 0.0622 0.9947 0.0822
vn 0.0588 0.9958 0.0695
vn 0.0622 0.9947 0.0822
vn -0 0.9953 0.0964
vn -0 0.2524 -0.9676
vn -0 0.2524 -0.9676
vn -0 0.9953 0.0964
vn -0.0622 0.9947 0.0822
vn -0 0.2524 -0.9676
vn -0 0.2524 -0.9676
vn 0.0588 0.9958 0.0695
vn 0.0622 0.9947 0.0822
vn 0.1222 0.9914 0.047
vn 0.1206 0.9913 0.0528
vn -0.0622 0.9947 0.0822
vn -0.1223 0.9914 0.047
vn -0 0.2523 -0.9676
vn -0 0.2524 -0.9676
vn -0.1206 0.9913 0.0528
vn -0.1223 0.9914 0.047
vn -0.0622 0.9947 0.0822
vn -0.0588 0.9958 0.0695
vn -0.1223 0.9914 0.047
vn -0.1469 0.9885 0.0357
vn 0.9622 0.2722 0.0089
vn -0 0.2523 -0.9676
vn -0.1206 0.9913 0.0528
vn -0.1469 0.9885 0.0357
vn -0.1223 0.9914 0.047
vn -0.0588 0.9958 0.0695
vn -0.0698 0.9973 0.0249
vn -0.1368 0.9901 0.0319
vn -0.1206 0.9913 0.0528
vn -0.1469 0.9885 0.0357
vn -0.1206 0.9913 0.0528
vn -0.1368 0.9901 0.0319
vn -0.1802 0.9825 0.0477
vn -0.1684 0.9849 0.0408
vn -0.1368 0.9901 0.0319
vn -0.0698 0.9973 0.0249
vn -0.0887 0.996 0.0087
vn -0.1684 0.9849 0.0408
vn -0.1802 0.9825 0.0477
vn -0.1368 0.9901 0.0319
vn -0.1802 0.9825 0.0477
vn 0.9622 0.2722 0.009
vn 0.9622 0.2722 0.0089
vn -0.1469 0.9885 0.0357
vn -0.1802 0.9825 0.0477
vn -0.1684 0.9849 0.0408
vn -0 0.2908 0.9568
vn 0.9622 0.2722 0.009
vn -0.1684 0.9849 0.0408
vn -0.0887 0.996 0.0087
vn -0 0.2909 0.9568
vn -0 0.2908 0.9568
vn 0.1206 0.9913 0.0528
vn 0.1368 0.9901 0.0319
vn 0.0698 0.9973 0.0249
vn 0.0588 0.9958 0.0695
vn 0.1469 0.9885 0.0357
vn 0.1206 0.9913 0.0528
vn 0.1222 0.9914 0.047
vn -0 -0.0328 0.9995
vn -0 -0.0328 0.9995
vn -0 -0.0328 0.9995
vn -0 -0.0328 0.9995
vn -0 -0.0328 0.9995
vn -0.0001 -0.0328 0.9995
vn -0.0001 -0.0327 0.9995
vn -0 -0.0328 0.9995
vn -0.709 -0.0228 0.7049
vn -0.0001 -0.0327 0.9995
vn -0.0001 -0.0328 0.9995
vn -0.7098 -0.0228 0.7041
vn -1 -0.0001 0.0001
vn -0.709 -0.0228 0.7049
vn -0.7098 -0.0228 0.7041
vn -1 0.0002 0.0001
vn -1 0.0001 -0.0001
vn -1 -0.0001 0.0001
vn -1 0.0002 0.0001
vn -1 0.0001 -0.0001
vn -0.7048 0.0236 -0.709
vn -1 0.0001 -0.0001
vn -1 0.0001 -0.0001
vn -0.7051 0.0235 -0.7088
vn -0.0001 0.0329 -0.9995
vn -0.7048 0.0236 -0.709
vn -0.7051 0.0235 -0.7088
vn -0.0001 0.033 -0.9995
vn -0.0001 0.0329 -0.9995
vn -0.0001 0.033 -0.9995
vn -0 0.0328 -0.9995
vn -0 0.0328 -0.9995
vn -0 0.0328 -0.9995
vn -0 0.0328 -0.9995
vn -0 0.0328 -0.9995
vn -0 0.0328 -0.9995
vn -0 0.0328 -0.9995
vn -0 0.0328 -0.9995
vn -0 0.0328 -0.9995
vn -0 0.0328 -0.9995
vn -0 0.0328 -0.9995
vn 0.0001 0.0329 -0.9995
vn 0.0001 0.033 -0.9995
vn -0 0.0328 -0.9995
vn 0.0001 0.0329 -0.9995
vn 0.7055 0.0235 -0.7083
vn 0.7055 0.0235 -0.7083
vn 0.0001 0.033 -0.9995
vn 0.7055 0.0235 -0.7083
vn 1 0.0001 -0.0001
vn 1 -0 -0.0001
vn 0.7055 0.0235 -0.7083
vn 1 0.0002 0.0001
vn 1 -0 -0.0001
vn 1 0.0001 -0.0001
vn 1 0.0001 0.0001
vn 0.7097 -0.0228 0.7041
vn 1 0.0002 0.0001
vn 1 0.0001 0.0001
vn 0.7092 -0.0228 0.7046
vn 0.0001 -0.0329 0.9995
vn 0.7097 -0.0228 0.7041
vn 0.7092 -0.0228 0.7046
vn 0.0001 -0.0327 0.9995
vn 0.0001 -0.0329 0.9995
vn 0.0001 -0.0327 0.9995
vn -0 -0.0328 0.9995
vn -0 -0.0328 0.9995
vn -0 -0.0328 0.9995
vn -0 -0.0328 0.9995
vn -0 -0.0328 0.9995
vn -0 -0.0328 0.9995
vt 0.323715 0.12177
vt 0.322052 0.131728
vt 0.333254 0.131728
vt 0.333254 0.121895
vt 0.314079 0.121389
vt 0.307472 0.131773
vt 0.322052 0.131728
vt 0.323715 0.12177
vt 0.333254 0.121895
vt 0.333254 0.131728
vt 0.344456 0.131728
vt 0.342793 0.12177
vt 0.344456 0.131728
vt 0.359036 0.131773
vt 0.352429 0.121389
vt 0.342793 0.12177
vt 0.363261 0.130083
vt 0.364945 0.125815
vt 0.354989 0.118394
vt 0.352429 0.121389
vt 0.359036 0.131773
vt 0.364939 0.074291
vt 0.354991 0.080524
vt 0.354989 0.118394
vt 0.364945 0.125815
vt 0.352353 0.077677
vt 0.354991 0.080524
vt 0.364939 0.074291
vt 0.36326 0.070097
vt 0.359026 0.068431
vt 0.352353 0.077677
vt 0.359026 0.068431
vt 0.344456 0.068479
vt 0.342733 0.077475
vt 0.342733 0.077475
vt 0.344456 0.068479
vt 0.333254 0.068479
vt 0.333254 0.077409
vt 0.333254 0.077409
vt 0.333254 0.068479
vt 0.322052 0.068479
vt 0.323775 0.077475
vt 0.322052 0.068479
vt 0.307482 0.068431
vt 0.314156 0.077677
vt 0.323775 0.077475
vt 0.303248 0.070097
vt 0.301569 0.074291
vt 0.311517 0.080524
vt 0.314156 0.077677
vt 0.307482 0.068431
vt 0.313045 0.08142
vt 0.315102 0.079169
vt 0.314156 0.077677
vt 0.311517 0.080524
vt 0.315102 0.079169
vt 0.324161 0.078983
vt 0.323775 0.077475
vt 0.314156 0.077677
vt 0.311517 0.080524
vt 0.311519 0.118394
vt 0.313039 0.11748
vt 0.313045 0.08142
vt 0.311517 0.080524
vt 0.301569 0.074291
vt 0.301563 0.125814
vt 0.311519 0.118394
vt 0.303247 0.130083
vt 0.307472 0.131773
vt 0.314079 0.121389
vt 0.311519 0.118394
vt 0.301563 0.125814
vt 0.315032 0.119852
vt 0.313039 0.11748
vt 0.311519 0.118394
vt 0.314079 0.121389
vt 0.313039 0.11748
vt 0.315032 0.119852
vt 0.318919 0.113993
vt 0.318948 0.085097
vt 0.313045 0.08142
vt 0.313039 0.11748
vt 0.318919 0.113993
vt 0.324104 0.120206
vt 0.315032 0.119852
vt 0.314079 0.121389
vt 0.323715 0.12177
vt 0.324104 0.120206
vt 0.326063 0.114163
vt 0.318919 0.113993
vt 0.315032 0.119852
vt 0.333254 0.120326
vt 0.324104 0.120206
vt 0.323715 0.12177
vt 0.333254 0.121895
vt 0.333254 0.120326
vt 0.333254 0.114209
vt 0.326063 0.114163
vt 0.324104 0.120206
vt 0.342404 0.120206
vt 0.333254 0.120326
vt 0.333254 0.121895
vt 0.342793 0.12177
vt 0.342404 0.120206
vt 0.340445 0.114163
vt 0.333254 0.114209
vt 0.333254 0.120326
vt 0.333254 0.085003
vt 0.333254 0.114209
vt 0.340445 0.114163
vt 0.340422 0.085023
vt 0.326086 0.085023
vt 0.326063 0.114163
vt 0.333254 0.114209
vt 0.333254 0.085003
vt 0.340422 0.085023
vt 0.342347 0.078983
vt 0.333254 0.078921
vt 0.333254 0.085003
vt 0.333254 0.085003
vt 0.333254 0.078921
vt 0.324161 0.078983
vt 0.326086 0.085023
vt 0.324161 0.078983
vt 0.333254 0.078921
vt 0.333254 0.077409
vt 0.323775 0.077475
vt 0.333254 0.078921
vt 0.342347 0.078983
vt 0.342733 0.077475
vt 0.333254 0.077409
vt 0.326086 0.085023
vt 0.324161 0.078983
vt 0.315102 0.079169
vt 0.318948 0.085097
vt 0.342347 0.078983
vt 0.351406 0.079169
vt 0.352353 0.077677
vt 0.342733 0.077475
vt 0.34756 0.085097
vt 0.351406 0.079169
vt 0.342347 0.078983
vt 0.340422 0.085023
vt 0.351406 0.079169
vt 0.353463 0.08142
vt 0.354991 0.080524
vt 0.352353 0.077677
vt 0.34756 0.085097
vt 0.353463 0.08142
vt 0.351406 0.079169
vt 0.340422 0.085023
vt 0.340445 0.114163
vt 0.347589 0.113993
vt 0.34756 0.085097
vt 0.353463 0.08142
vt 0.34756 0.085097
vt 0.347589 0.113993
vt 0.353469 0.11748
vt 0.351476 0.119852
vt 0.347589 0.113993
vt 0.340445 0.114163
vt 0.342404 0.120206
vt 0.351476 0.119852
vt 0.353469 0.11748
vt 0.347589 0.113993
vt 0.353469 0.11748
vt 0.354989 0.118394
vt 0.354991 0.080524
vt 0.353463 0.08142
vt 0.353469 0.11748
vt 0.351476 0.119852
vt 0.352429 0.121389
vt 0.354989 0.118394
vt 0.351476 0.119852
vt 0.342404 0.120206
vt 0.342793 0.12177
vt 0.352429 0.121389
vt 0.318948 0.085097
vt 0.318919 0.113993
vt 0.326063 0.114163
vt 0.326086 0.085023
vt 0.313045 0.08142
vt 0.318948 0.085097
vt 0.315102 0.079169
vt 0.322052 0.131728
vt 0.322052 0.133184
vt 0.333254 0.133184
vt 0.333254 0.131728
vt 0.322052 0.131728
vt 0.307472 0.131773
vt 0.307055 0.13317
vt 0.322052 0.133184
vt 0.30208 0.131052
vt 0.307055 0.13317
vt 0.307472 0.131773
vt 0.303247 0.130083
vt 0.299977 0.126046
vt 0.30208 0.131052
vt 0.303247 0.130083
vt 0.301563 0.125814
vt 0.299977 0.073692
vt 0.299977 0.126046
vt 0.301563 0.125814
vt 0.301569 0.074291
vt 0.302084 0.068744
vt 0.299977 0.073692
vt 0.301569 0.074291
vt 0.303248 0.070097
vt 0.307063 0.066652
vt 0.302084 0.068744
vt 0.303248 0.070097
vt 0.307482 0.068431
vt 0.307063 0.066652
vt 0.307482 0.068431
vt 0.322052 0.068479
vt 0.322052 0.066639
vt 0.333254 0.068479
vt 0.333254 0.066639
vt 0.322052 0.066639
vt 0.322052 0.068479
vt 0.344456 0.068479
vt 0.344456 0.066639
vt 0.333254 0.066639
vt 0.333254 0.068479
vt 0.344456 0.068479
vt 0.359026 0.068431
vt 0.359445 0.066652
vt 0.344456 0.066639
vt 0.359026 0.068431
vt 0.36326 0.070097
vt 0.364424 0.068744
vt 0.359445 0.066652
vt 0.36326 0.070097
vt 0.364939 0.074291
vt 0.366531 0.073692
vt 0.364424 0.068744
vt 0.366531 0.126046
vt 0.366531 0.073692
vt 0.364939 0.074291
vt 0.364945 0.125815
vt 0.364428 0.131052
vt 0.366531 0.126046
vt 0.364945 0.125815
vt 0.363261 0.130083
vt 0.359453 0.13317
vt 0.364428 0.131052
vt 0.363261 0.130083
vt 0.359036 0.131773
vt 0.359453 0.13317
vt 0.359036 0.131773
vt 0.344456 0.131728
vt 0.344456 0.133184
vt 0.333254 0.131728
vt 0.333254 0.133184
vt 0.344456 0.133184
vt 0.344456 0.131728
s off
f 1/1/1 2/2/2 3/3/3
f 1/1/1 3/3/3 4/4/4
f 5/5/5 6/6/6 7/7/7
f 5/5/5 7/7/7 8/8/8
f 9/9/9 10/10/10 11/11/11
f 9/9/9 11/11/11 12/12/12
f 13/13/13 14/14/14 15/15/15
f 13/13/13 15/15/15 16/16/16
f 20/20/20 21/21/21 17/17/17
f 17/17/17 18/18/18 19/19/19
f 19/19/19 20/20/20 17/17/17
f 22/22/22 23/23/23 24/24/24
f 22/22/22 24/24/24 25/25/25
f 29/29/29 30/30/30 26/26/26
f 26/26/26 27/27/27 28/28/28
f 28/28/28 29/29/29 26/26/26
f 31/31/31 32/32/32 33/33/33
f 31/31/31 33/33/33 34/34/34
f 35/35/35 36/36/36 37/37/37
f 35/35/35 37/37/37 38/38/38
f 39/39/39 40/40/40 41/41/41
f 39/39/39 41/41/41 42/42/42
f 43/43/43 44/44/44 45/45/45
f 43/43/43 45/45/45 46/46/46
f 50/50/50 51/51/51 47/47/47
f 47/47/47 48/48/48 49/49/49
f 49/49/49 50/50/50 47/47/47
f 52/52/52 53/53/53 54/54/54
f 52/52/52 54/54/54 55/55/55
f 56/56/56 57/57/57 58/58/58
f 56/56/56 58/58/58 59/59/59
f 60/60/60 61/61/61 62/62/62
f 60/60/60 62/62/62 63/63/63
f 64/64/64 65/65/65 66/66/66
f 64/64/64 66/66/66 67/67/67
f 71/71/71 72/72/72 68/68/68
f 68/68/68 69/69/69 70/70/70
f 70/70/70 71/71/71 68/68/68
f 73/73/73 74/74/74 75/75/75
f 73/73/73 75/75/75 76/76/76
f 77/77/77 78/78/78 79/79/79
f 80/80/80 81/81/81 82/82/82
f 80/80/80 82/82/82 83/83/83
f 84/84/84 85/85/85 86/86/86
f 84/84/84 86/86/86 87/87/87
f 88/88/88 89/89/89 90/90/90
f 88/88/88 90/90/90 91/91/91
f 92/92/92 93/93/93 94/94/94
f 92/92/92 94/94/94 95/95/95
f 96/96/96 97/97/97 98/98/98
f 96/96/96 98/98/98 99/99/99
f 100/100/100 101/101/101 102/102/102
f 100/100/100 102/102/102 103/103/103
f 104/104/104 105/105/105 106/106/106
f 104/104/104 106/106/106 107/107/107
f 108/108/108 109/109/109 110/110/110
f 108/108/108 110/110/110 111/111/111
f 112/112/112 113/113/113 114/114/114
f 112/112/112 114/114/114 115/115/115
f 116/116/116 117/117/117 118/118/118
f 116/116/116 118/118/118 119/119/119
f 120/120/120 121/121/121 122/122/122
f 120/120/120 122/122/122 123/123/123
f 124/124/124 125/125/125 126/126/126
f 124/124/124 126/126/126 127/127/127
f 128/128/128 129/129/129 130/130/130
f 128/128/128 130/130/130 131/131/131
f 132/132/132 133/133/133 134/134/134
f 132/132/132 134/134/134 135/135/135
f 136/136/136 137/137/137 138/138/138
f 136/136/136 138/138/138 139/139/139
f 140/140/140 141/141/141 142/142/142
f 140/140/140 142/142/142 143/143/143
f 144/144/144 145/145/145 146/146/146
f 144/144/144 146/146/146 147/147/147
f 148/148/148 149/149/149 150/150/150
f 151/151/151 152/152/152 153/153/153
f 151/151/151 153/153/153 154/154/154
f 155/155/155 156/156/156 157/157/157
f 155/155/155 157/157/157 158/158/158
f 159/159/159 160/160/160 161/161/161
f 159/159/159 161/161/161 162/162/162
f 163/163/163 164/164/164 165/165/165
f 166/166/166 167/167/167 168/168/168
f 166/166/166 168/168/168 169/169/169
f 170/170/170 171/171/171 172/172/172
f 170/170/170 172/172/172 173/173/173
f 174/174/174 175/175/175 176/176/176
f 174/174/174 176/176/176 177/177/177
f 178/178/178 179/179/179 180/180/180
f 178/178/178 180/180/180 181/181/181
f 182/182/182 183/183/183 184/184/184
f 185/185/185 186/186/186 187/187/187
f 185/185/185 187/187/187 188/188/188
f 189/189/189 190/190/190 191/191/191
f 189/189/189 191/191/191 192/192/192
f 193/193/193 194/194/194 195/195/195
f 193/193/193 195/195/195 196/196/196
f 197/197/197 198/198/198 199/199/199
f 197/197/197 199/199/199 200/200/200
f 201/201/201 202/202/202 203/203/203
f 201/201/201 203/203/203 204/204/204
f 205/205/205 206/206/206 207/207/207
f 205/205/205 207/207/207 208/208/208
f 209/209/209 210/210/210 211/211/211
f 209/209/209 211/211/211 212/212/212
f 213/213/213 214/214/214 215/215/215
f 213/213/213 215/215/215 216/216/216
f 217/217/217 218/218/218 219/219/219
f 217/217/217 219/219/219 220/220/220
f 221/221/221 222/222/222 223/223/223
f 221/221/221 223/223/223 224/224/224
f 225/225/225 226/226/226 227/227/227
f 225/225/225 227/227/227 228/228/228
f 229/229/229 230/230/230 231/231/231
f 229/229/229 231/231/231 232/232/232
f 233/233/233 234/234/234 235/235/235
f 233/233/233 235/235/235 236/236/236
f 237/237/237 238/238/238 239/239/239
f 237/237/237 239/239/239 240/240/240
f 241/241/241 242/242/242 243/243/243
f 241/241/241 243/243/243 244/244/244
f 245/245/245 246/246/246 247/247/247
f 245/245/245 247/247/247 248/248/248
f 249/249/249 250/250/250 251/251/251
f 249/249/249 251/251/251 252/252/252
f 253/253/253 254/254/254 255/255/255
f 253/253/253 255/255/255 256/256/256
