v -0.338222 0.179591 -0.14814
v -0.345989 0.180297 -0.148105
v -0.345989 0.180154 -0.145214
v -0.345989 0.180846 -0.159196
v -0.349504 0.180206 -0.137716
v -0.345989 0.180297 -0.148105
v -0.345989 0.180297 -0.148105
v -0.349504 0.180206 -0.137716
v -0.345989 0.180154 -0.145214
v -0.349504 0.180206 -0.137716
v -0.345989 0.179791 -0.137716
v -0.345989 0.180154 -0.145214
v -0.338222 0.179591 -0.14814
v -0.345989 0.180154 -0.145214
v -0.33831 0.179456 -0.145253
v -0.33501 0.179204 -0.145949
v -0.33831 0.179456 -0.145253
v -0.333022 0.17873 -0.137716
v -0.33501 0.179204 -0.145949
v -0.338222 0.179591 -0.14814
v -0.33831 0.179456 -0.145253
v -0.334924 0.179381 -0.149568
v -0.33501 0.179204 -0.145949
v -0.332227 0.179189 -0.147519
v -0.33501 0.179204 -0.145949
v -0.333022 0.17873 -0.137716
v -0.329195 0.178605 -0.137716
v -0.338222 0.179591 -0.14814
v -0.33501 0.179204 -0.145949
v -0.334924 0.179381 -0.149568
v -0.333351 0.179458 -0.152205
v -0.334924 0.179381 -0.149568
v -0.330634 0.179249 -0.149544
v -0.334924 0.179381 -0.149568
v -0.332227 0.179189 -0.147519
v -0.330634 0.179249 -0.149544
v -0.329733 0.179361 -0.152195
v -0.333351 0.179458 -0.152205
v -0.330634 0.179249 -0.149544
v -0.329827 0.179554 -0.155907
v -0.333594 0.179669 -0.156211
v -0.333351 0.179458 -0.152205
v -0.329733 0.179361 -0.152195
v -0.333594 0.179669 -0.156211
v -0.329827 0.179554 -0.155907
v -0.331244 0.179744 -0.15889
v -0.334227 0.179983 -0.161291
v -0.335571 0.179851 -0.15825
v -0.333594 0.179669 -0.156211
v -0.331244 0.179744 -0.15889
v -0.338304 0.180145 -0.159173
v -0.335571 0.179851 -0.15825
v -0.334227 0.179983 -0.161291
v -0.338304 0.180145 -0.159173
v -0.334227 0.179983 -0.161291
v -0.338198 0.180327 -0.162293
v -0.349504 0.181358 -0.162321
v -0.338304 0.180145 -0.159173
v -0.338198 0.180327 -0.162293
v -0.345989 0.180846 -0.159196
v -0.349504 0.181358 -0.162321
v -0.349504 0.180206 -0.137716
v -0.349504 0.181358 -0.162321
v -0.345989 0.180846 -0.159196
v -0.338304 0.180145 -0.159173
v -0.329195 0.178605 -0.137716
v -0.329195 0.178605 -0.137716
vn 0.0906 0.9947 0.0493
vn 0.0906 0.9947 0.0493
vn 0.0906 0.9947 0.0493
vn 0.1197 0.9916 0.0491
vn 0.1197 0.9916 0.0491
vn 0.1197 0.9916 0.0491
vn 0.1197 0.9916 0.0491
vn 0.1197 0.9916 0.0491
vn 0.1197 0.9916 0.0491
vn 0.1172 0.992 0.048
vn 0.1172 0.992 0.048
vn 0.1172 0.992 0.048
vn 0.0906 0.9947 0.0493
vn 0.0906 0.9947 0.0493
vn 0.0906 0.9947 0.0493
vn 0.0838 0.9958 0.0371
vn 0.0838 0.9958 0.0371
vn 0.0838 0.9958 0.0371
vn 0.0863 0.9951 0.0492
vn 0.0863 0.9951 0.0492
vn 0.0863 0.9951 0.0492
vn 0.0334 0.9982 0.0494
vn 0.0334 0.9982 0.0494
vn 0.0334 0.9982 0.0494
vn 0.0326 0.9982 0.0496
vn 0.0326 0.9982 0.0496
vn 0.0326 0.9982 0.0496
vn 0.0854 0.9951 0.0505
vn 0.0854 0.9951 0.0505
vn 0.0854 0.9951 0.0505
vn 0.0303 0.9984 0.0476
vn 0.0303 0.9984 0.0476
vn 0.0303 0.9984 0.0476
vn 0.0303 0.9981 0.0536
vn 0.0303 0.9981 0.0536
vn 0.0303 0.9981 0.0536
vn 0.0267 0.9983 0.0513
vn 0.0267 0.9983 0.0513
vn 0.0267 0.9983 0.0513
vn 0.0266 0.9983 0.051
vn 0.0266 0.9983 0.051
vn 0.0266 0.9983 0.051
vn 0.0266 0.9983 0.051
vn 0.0264 0.9983 0.0512
vn 0.0264 0.9983 0.0512
vn 0.0264 0.9983 0.0512
vn 0.033 0.9978 0.0575
vn 0.033 0.9978 0.0575
vn 0.033 0.9978 0.0575
vn 0.033 0.9978 0.0575
vn 0.0805 0.9936 0.0787
vn 0.0805 0.9936 0.0787
vn 0.0805 0.9936 0.0787
vn 0.071 0.9957 0.0603
vn 0.071 0.9957 0.0603
vn 0.071 0.9957 0.0603
vn 0.0905 0.994 0.0608
vn 0.0905 0.994 0.0608
vn 0.0905 0.994 0.0608
vn 0.1033 0.9936 0.0465
vn 0.1033 0.9936 0.0465
vn 0.1033 0.9936 0.0465
vn 0.0905 0.994 0.061
vn 0.0905 0.994 0.061
vn 0.0905 0.994 0.061
vn 0 0 0
vn 0 0 0
vt 0.323327 0.439913
vt 0.31927 0.439931
vt 0.31927 0.441441
vt 0.31927 0.434137
vt 0.317434 0.445358
vt 0.31927 0.439931
vt 0.31927 0.439931
vt 0.317434 0.445358
vt 0.31927 0.441441
vt 0.317434 0.445358
vt 0.31927 0.445358
vt 0.31927 0.441441
vt 0.323327 0.439913
vt 0.31927 0.441441
vt 0.323281 0.44142
vt 0.325005 0.441057
vt 0.323281 0.44142
vt 0.326043 0.445358
vt 0.325005 0.441057
vt 0.323327 0.439913
vt 0.323281 0.44142
vt 0.32505 0.439167
vt 0.325005 0.441057
vt 0.326459 0.440237
vt 0.325005 0.441057
vt 0.326043 0.445358
vt 0.328042 0.445358
vt 0.323327 0.439913
vt 0.325005 0.441057
vt 0.32505 0.439167
vt 0.325871 0.437789
vt 0.32505 0.439167
vt 0.327291 0.439179
vt 0.32505 0.439167
vt 0.326459 0.440237
vt 0.327291 0.439179
vt 0.327762 0.437794
vt 0.325871 0.437789
vt 0.327291 0.439179
vt 0.327712 0.435855
vt 0.325745 0.435697
vt 0.325871 0.437789
vt 0.327762 0.437794
vt 0.325745 0.435697
vt 0.327712 0.435855
vt 0.326972 0.434297
vt 0.325414 0.433043
vt 0.324712 0.434632
vt 0.325745 0.435697
vt 0.326972 0.434297
vt 0.323284 0.434149
vt 0.324712 0.434632
vt 0.325414 0.433043
vt 0.323284 0.434149
vt 0.325414 0.433043
vt 0.32334 0.43252
vt 0.317434 0.432505
vt 0.323284 0.434149
vt 0.32334 0.43252
vt 0.31927 0.434137
vt 0.317434 0.432505
vt 0.317434 0.445358
vt 0.317434 0.432505
vt 0.31927 0.434137
vt 0.323284 0.434149
vt 0 1
vt 0 1
s off
f 1/1/1 2/2/2 3/3/3
f 4/4/4 5/5/5 6/6/6
f 7/7/7 8/8/8 9/9/9
f 10/10/10 11/11/11 12/12/12
f 13/13/13 14/14/14 15/15/15
f 16/16/16 17/17/17 18/18/18
f 19/19/19 20/20/20 21/21/21
f 22/22/22 23/23/23 24/24/24
f 25/25/25 26/26/26 27/27/27
f 28/28/28 29/29/29 30/30/30
f 31/31/31 32/32/32 33/33/33
f 34/34/34 35/35/35 36/36/36
f 37/37/37 38/38/38 39/39/39
f 40/40/40 41/41/41 42/42/42
f 40/40/40 42/42/42 43/43/43
f 44/44/44 45/45/45 46/46/46
f 47/47/47 48/48/48 49/49/49
f 47/47/47 49/49/49 50/50/50
f 51/51/51 52/52/52 53/53/53
f 54/54/54 55/55/55 56/56/56
f 57/57/57 58/58/58 59/59/59
f 60/60/60 61/61/61 62/62/62
f 63/63/63 64/64/64 65/65/65
