v -0.565552 0.168406 -0.009746
v -0.559586 0.167775 -0.009665
v -0.559435 0.16779 -0.012753
v -0.564395 0.168314 -0.012685
v -0.564395 0.168314 -0.012685
v -0.56796 0.168702 -0.013855
v -0.565552 0.168406 -0.009746
v -0.56796 0.168702 -0.013855
v -0.571724 0.169137 -0.012477
v -0.565552 0.168406 -0.009746
v -0.559586 0.167775 -0.009665
v -0.555345 0.167504 -0.011141
v -0.559435 0.16779 -0.012753
v -0.55651 0.167576 -0.0143
v -0.555345 0.167504 -0.011141
v -0.552838 0.167453 -0.014588
v -0.555345 0.167504 -0.011141
v -0.55651 0.167576 -0.0143
v -0.559435 0.16779 -0.012753
v -0.556031 0.167586 -0.016903
v -0.55651 0.167576 -0.0143
v -0.552838 0.167453 -0.014588
v -0.554574 0.167578 -0.02096
v -0.557369 0.167651 -0.018801
v -0.556031 0.167586 -0.016903
v -0.552854 0.167497 -0.018531
v -0.552838 0.167453 -0.014588
v -0.552854 0.167497 -0.018531
v -0.556031 0.167586 -0.016903
v -0.557369 0.167651 -0.018801
v -0.554574 0.167578 -0.02096
v -0.557544 0.167695 -0.022477
v -0.560618 0.16799 -0.02009
v -0.557544 0.167695 -0.022477
v -0.563731 0.16836 -0.024137
v -0.560618 0.16799 -0.02009
v -0.557369 0.167651 -0.018801
v -0.557544 0.167695 -0.022477
v -0.563731 0.16836 -0.024137
v -0.564521 0.168412 -0.02106
v -0.560618 0.16799 -0.02009
v -0.568148 0.16881 -0.02253
v -0.564521 0.168412 -0.02106
v -0.563731 0.16836 -0.024137
v -0.563731 0.16836 -0.024137
v -0.566882 0.168709 -0.025774
v -0.568148 0.16881 -0.02253
v -0.566882 0.168709 -0.025774
v -0.570581 0.169093 -0.025074
v -0.568148 0.16881 -0.02253
v -0.56754 0.1688 -0.027837
v -0.570817 0.169156 -0.028778
v -0.570581 0.169093 -0.025074
v -0.566882 0.168709 -0.025774
v -0.56754 0.1688 -0.027837
v -0.570581 0.169093 -0.025074
v -0.56754 0.1688 -0.027837
v -0.567044 0.168766 -0.029631
v -0.570817 0.169156 -0.028778
v -0.567044 0.168766 -0.029631
v -0.565026 0.168569 -0.031236
v -0.568202 0.168922 -0.032965
v -0.570817 0.169156 -0.028778
v -0.567044 0.168766 -0.029631
v -0.569967 0.169089 -0.031072
v -0.567044 0.168766 -0.029631
v -0.568202 0.168922 -0.032965
v -0.569967 0.169089 -0.031072
v -0.568202 0.168922 -0.032965
v -0.565026 0.168569 -0.031236
v -0.564595 0.168566 -0.034519
v -0.560762 0.168124 -0.031745
v -0.55833 0.167901 -0.034495
v -0.564595 0.168566 -0.034519
v -0.565026 0.168569 -0.031236
v -0.560762 0.168124 -0.031745
v -0.564595 0.168566 -0.034519
v -0.557309 0.167773 -0.031052
v -0.55833 0.167901 -0.034495
v -0.560762 0.168124 -0.031745
v -0.553497 0.167673 -0.032585
v -0.557309 0.167773 -0.031052
v -0.554694 0.167677 -0.02971
v -0.557309 0.167773 -0.031052
v -0.553497 0.167673 -0.032585
v -0.55833 0.167901 -0.034495
v -0.571724 0.169137 -0.012477
v -0.56796 0.168702 -0.013855
v -0.570333 0.168988 -0.015365
vn 0.105 0.9944 0.0101
vn 0.105 0.9944 0.0101
vn 0.105 0.9944 0.0101
vn 0.105 0.9944 0.0101
vn 0.1051 0.9944 0.0101
vn 0.1051 0.9944 0.0101
vn 0.1051 0.9944 0.0101
vn 0.116 0.9932 0.0036
vn 0.116 0.9932 0.0036
vn 0.116 0.9932 0.0036
vn 0.0665 0.9978 0.0082
vn 0.0665 0.9978 0.0082
vn 0.0665 0.9978 0.0082
vn 0.0342 0.9994 0.0101
vn 0.0342 0.9994 0.0101
vn 0.0342 0.9994 0.0101
vn 0.0711 0.9975 -0.0035
vn 0.0711 0.9975 -0.0035
vn 0.0711 0.9975 -0.0035
vn 0.0342 0.9994 0.0101
vn 0.0342 0.9994 0.0101
vn 0.0342 0.9994 0.0101
vn 0.0335 0.9994 0.0099
vn 0.0335 0.9994 0.0099
vn 0.0335 0.9994 0.0099
vn 0.0335 0.9994 0.0099
vn 0.0336 0.9994 0.011
vn 0.0336 0.9994 0.011
vn 0.0336 0.9994 0.011
vn 0.0342 0.9994 0.0101
vn 0.0342 0.9994 0.0101
vn 0.0342 0.9994 0.0101
vn 0.104 0.9945 0.0109
vn 0.104 0.9945 0.0109
vn 0.104 0.9945 0.0109
vn 0.101 0.9949 0.0069
vn 0.101 0.9949 0.0069
vn 0.101 0.9949 0.0069
vn 0.1051 0.9944 0.0101
vn 0.1051 0.9944 0.0101
vn 0.1051 0.9944 0.0101
vn 0.1051 0.9944 0.0101
vn 0.1051 0.9944 0.0101
vn 0.1051 0.9944 0.0101
vn 0.105 0.9944 0.0101
vn 0.105 0.9944 0.0101
vn 0.105 0.9944 0.0101
vn 0.1051 0.9944 0.0101
vn 0.1051 0.9944 0.0101
vn 0.1051 0.9944 0.0101
vn 0.105 0.9944 0.0101
vn 0.105 0.9944 0.0101
vn 0.105 0.9944 0.0101
vn 0.1051 0.9944 0.0101
vn 0.1051 0.9944 0.0101
vn 0.1051 0.9944 0.0101
vn 0.1051 0.9944 0.0101
vn 0.1051 0.9944 0.0101
vn 0.1051 0.9944 0.0101
vn 0.1051 0.9944 0.0101
vn 0.1051 0.9944 0.0101
vn 0.1051 0.9944 0.0101
vn 0.1051 0.9944 0.0101
vn 0.1051 0.9944 0.0101
vn 0.1051 0.9944 0.0101
vn 0.1051 0.9944 0.0101
vn 0.1051 0.9944 0.0101
vn 0.1051 0.9944 0.0101
vn 0.1036 0.9945 0.0128
vn 0.1036 0.9945 0.0128
vn 0.1036 0.9945 0.0128
vn 0.1055 0.9943 0.0129
vn 0.1055 0.9943 0.0129
vn 0.1055 0.9943 0.0129
vn 0.1054 0.9943 0.013
vn 0.1054 0.9943 0.013
vn 0.1054 0.9943 0.013
vn 0.0994 0.995 0.0075
vn 0.0994 0.995 0.0075
vn 0.0994 0.995 0.0075
vn 0.031 0.9995 0.0113
vn 0.031 0.9995 0.0113
vn 0.031 0.9995 0.0113
vn 0.0369 0.999 0.0262
vn 0.0369 0.999 0.0262
vn 0.0369 0.999 0.0262
vn 0.1164 0.9932 0.0049
vn 0.1164 0.9932 0.0049
vn 0.1164 0.9932 0.0049
vt 0.204579 0.512204
vt 0.207696 0.512246
vt 0.207775 0.510633
vt 0.205184 0.510669
vt 0.205184 0.510669
vt 0.203321 0.510058
vt 0.204579 0.512204
vt 0.203321 0.510058
vt 0.201355 0.510777
vt 0.204579 0.512204
vt 0.207696 0.512246
vt 0.209911 0.511475
vt 0.207775 0.510633
vt 0.209302 0.509825
vt 0.209911 0.511475
vt 0.211221 0.509675
vt 0.209911 0.511475
vt 0.209302 0.509825
vt 0.207775 0.510633
vt 0.209552 0.508466
vt 0.209302 0.509825
vt 0.211221 0.509675
vt 0.210314 0.506346
vt 0.208854 0.507474
vt 0.209552 0.508466
vt 0.211212 0.507615
vt 0.211221 0.509675
vt 0.211212 0.507615
vt 0.209552 0.508466
vt 0.208854 0.507474
vt 0.210314 0.506346
vt 0.208762 0.505554
vt 0.207157 0.506801
vt 0.208762 0.505554
vt 0.205531 0.504687
vt 0.207157 0.506801
vt 0.208854 0.507474
vt 0.208762 0.505554
vt 0.205531 0.504687
vt 0.205118 0.506294
vt 0.207157 0.506801
vt 0.203223 0.505526
vt 0.205118 0.506294
vt 0.205531 0.504687
vt 0.205531 0.504687
vt 0.203884 0.503831
vt 0.203223 0.505526
vt 0.203884 0.503831
vt 0.201952 0.504197
vt 0.203223 0.505526
vt 0.203541 0.502754
vt 0.201829 0.502263
vt 0.201952 0.504197
vt 0.203884 0.503831
vt 0.203541 0.502754
vt 0.201952 0.504197
vt 0.203541 0.502754
vt 0.2038 0.501817
vt 0.201829 0.502263
vt 0.2038 0.501817
vt 0.204854 0.500978
vt 0.203195 0.500075
vt 0.201829 0.502263
vt 0.2038 0.501817
vt 0.202273 0.501064
vt 0.2038 0.501817
vt 0.203195 0.500075
vt 0.202273 0.501064
vt 0.203195 0.500075
vt 0.204854 0.500978
vt 0.205079 0.499263
vt 0.207081 0.500713
vt 0.208352 0.499276
vt 0.205079 0.499263
vt 0.204854 0.500978
vt 0.207081 0.500713
vt 0.205079 0.499263
vt 0.208885 0.501075
vt 0.208352 0.499276
vt 0.207081 0.500713
vt 0.210876 0.500274
vt 0.208885 0.501075
vt 0.210251 0.501776
vt 0.208885 0.501075
vt 0.210876 0.500274
vt 0.208352 0.499276
vt 0.201355 0.510777
vt 0.203321 0.510058
vt 0.202082 0.509269
s off
f 1/1/1 2/2/2 3/3/3
f 1/1/1 3/3/3 4/4/4
f 5/5/5 6/6/6 7/7/7
f 8/8/8 9/9/9 10/10/10
f 11/11/11 12/12/12 13/13/13
f 14/14/14 15/15/15 16/16/16
f 17/17/17 18/18/18 19/19/19
f 20/20/20 21/21/21 22/22/22
f 23/23/23 24/24/24 25/25/25
f 23/23/23 25/25/25 26/26/26
f 27/27/27 28/28/28 29/29/29
f 30/30/30 31/31/31 32/32/32
f 33/33/33 34/34/34 35/35/35
f 36/36/36 37/37/37 38/38/38
f 39/39/39 40/40/40 41/41/41
f 42/42/42 43/43/43 44/44/44
f 45/45/45 46/46/46 47/47/47
f 48/48/48 49/49/49 50/50/50
f 51/51/51 52/52/52 53/53/53
f 54/54/54 55/55/55 56/56/56
f 57/57/57 58/58/58 59/59/59
f 60/60/60 61/61/61 62/62/62
f 63/63/63 64/64/64 65/65/65
f 66/66/66 67/67/67 68/68/68
f 69/69/69 70/70/70 71/71/71
f 72/72/72 73/73/73 74/74/74
f 75/75/75 76/76/76 77/77/77
f 78/78/78 79/79/79 80/80/80
f 81/81/81 82/82/82 83/83/83
f 84/84/84 85/85/85 86/86/86
f 87/87/87 88/88/88 89/89/89
