v 0.451882 0.168728 0.004511
v 0.449638 0.168999 0.004409
v 0.453117 0.168563 0.006886
v 0.450474 0.16918 -0.032783
v 0.452788 0.168948 -0.03402
v 0.448275 0.169427 -0.034098
v 0.448319 0.168995 0.029363
v 0.450662 0.168712 0.029363
v 0.452873 0.168488 0.02288
v 0.453117 0.168563 0.006886
v 0.44825 0.169158 0.005655
v 0.448275 0.169139 0.008082
v 0.4518 0.168939 -0.022857
v 0.449638 0.169177 -0.022929
v 0.453117 0.168777 -0.020647
v 0.453117 0.168777 -0.020647
v 0.450474 0.169044 -0.017942
v 0.452333 0.16884 -0.018731
v 0.453048 0.168479 0.021097
v 0.448281 0.169057 0.020587
v 0.448292 0.169042 0.022672
v 0.448275 0.169427 -0.034098
v 0.452788 0.168948 -0.03402
v 0.448356 0.169517 -0.036832
v 0.449609 0.168875 0.023952
v 0.452873 0.168488 0.02288
v 0.453048 0.168479 0.021097
v 0.450474 0.169044 -0.017942
v 0.453117 0.168777 -0.020647
v 0.448275 0.169318 -0.019257
v 0.448275 0.169318 -0.019257
v 0.453117 0.168777 -0.020647
v 0.44825 0.169336 -0.021684
v 0.448356 0.169517 -0.036832
v 0.452788 0.168948 -0.03402
v 0.452737 0.169052 -0.03682
v 0.452737 0.169052 -0.03682
v 0.450567 0.169324 -0.037986
v 0.448356 0.169517 -0.036832
v 0.449806 0.168947 0.009212
v 0.453117 0.168563 0.006886
v 0.448275 0.169139 0.008082
v 0.453117 0.168777 -0.020647
v 0.449638 0.169177 -0.022929
v 0.44825 0.169336 -0.021684
v 0.448281 0.169057 0.020587
v 0.453048 0.168479 0.021097
v 0.449968 0.168863 0.019087
v 0.453048 0.168479 0.021097
v 0.451959 0.168621 0.019488
v 0.449968 0.168863 0.019087
v 0.449806 0.168947 0.009212
v 0.4518 0.168708 0.009096
v 0.453117 0.168563 0.006886
v 0.453117 0.168563 0.006886
v 0.449638 0.168999 0.004409
v 0.44825 0.169158 0.005655
v 0.453048 0.168479 0.021097
v 0.448292 0.169042 0.022672
v 0.449609 0.168875 0.023952
v 0.449609 0.168875 0.023952
v 0.448319 0.168995 0.029363
v 0.452873 0.168488 0.02288
vn 0.1197 0.9928 0.0065
vn 0.1197 0.9928 0.0065
vn 0.1197 0.9928 0.0065
vn 0.1054 0.9944 0.0107
vn 0.1054 0.9944 0.0107
vn 0.1054 0.9944 0.0107
vn 0.1197 0.9928 0.0065
vn 0.1197 0.9928 0.0065
vn 0.1197 0.9928 0.0065
vn 0.1197 0.9928 0.0065
vn 0.1197 0.9928 0.0065
vn 0.1197 0.9928 0.0065
vn 0.1094 0.994 0.0075
vn 0.1094 0.994 0.0075
vn 0.1094 0.994 0.0075
vn 0.1147 0.9933 0.0141
vn 0.1147 0.9933 0.0141
vn 0.1147 0.9933 0.0141
vn 0.1197 0.9928 0.0065
vn 0.1197 0.9928 0.0065
vn 0.1197 0.9928 0.0065
vn 0.1049 0.9938 0.0358
vn 0.1049 0.9938 0.0358
vn 0.1049 0.9938 0.0358
vn 0.1197 0.9928 0.0064
vn 0.1197 0.9928 0.0064
vn 0.1197 0.9928 0.0064
vn 0.115 0.9933 0.0144
vn 0.115 0.9933 0.0144
vn 0.115 0.9933 0.0144
vn 0.1128 0.9936 0.0065
vn 0.1128 0.9936 0.0065
vn 0.1128 0.9936 0.0065
vn 0.1054 0.9938 0.035
vn 0.1054 0.9938 0.035
vn 0.1054 0.9938 0.035
vn 0.1054 0.9938 0.0358
vn 0.1054 0.9938 0.0358
vn 0.1054 0.9938 0.0358
vn 0.1197 0.9928 0.0065
vn 0.1197 0.9928 0.0065
vn 0.1197 0.9928 0.0065
vn 0.1141 0.9935 0.0002
vn 0.1141 0.9935 0.0002
vn 0.1141 0.9935 0.0002
vn 0.1197 0.9928 0.0065
vn 0.1197 0.9928 0.0065
vn 0.1197 0.9928 0.0065
vn 0.1197 0.9928 0.0065
vn 0.1197 0.9928 0.0065
vn 0.1197 0.9928 0.0065
vn 0.1197 0.9928 0.0064
vn 0.1197 0.9928 0.0064
vn 0.1197 0.9928 0.0064
vn 0.1197 0.9928 0.0065
vn 0.1197 0.9928 0.0065
vn 0.1197 0.9928 0.0065
vn 0.1197 0.9928 0.0065
vn 0.1197 0.9928 0.0065
vn 0.1197 0.9928 0.0065
vn 0.1197 0.9928 0.0065
vn 0.1197 0.9928 0.0065
vn 0.1197 0.9928 0.0065
vt 0.736045 0.519651
vt 0.734872 0.519598
vt 0.73669 0.520892
vt 0.735309 0.500171
vt 0.736518 0.499524
vt 0.734161 0.499484
vt 0.734183 0.532633
vt 0.735407 0.532633
vt 0.736562 0.529247
vt 0.73669 0.520892
vt 0.734147 0.520249
vt 0.734161 0.521516
vt 0.736001 0.505355
vt 0.734872 0.505318
vt 0.73669 0.50651
vt 0.73669 0.50651
vt 0.735309 0.507923
vt 0.73628 0.507511
vt 0.736654 0.528315
vt 0.734164 0.528049
vt 0.734169 0.529138
vt 0.734161 0.499484
vt 0.736518 0.499524
vt 0.734203 0.498056
vt 0.734857 0.529806
vt 0.736562 0.529247
vt 0.736654 0.528315
vt 0.735309 0.507923
vt 0.73669 0.50651
vt 0.734161 0.507236
vt 0.734161 0.507236
vt 0.73669 0.50651
vt 0.734147 0.505968
vt 0.734203 0.498056
vt 0.736518 0.499524
vt 0.736491 0.498062
vt 0.736491 0.498062
vt 0.735357 0.497452
vt 0.734203 0.498056
vt 0.73496 0.522107
vt 0.73669 0.520892
vt 0.734161 0.521516
vt 0.73669 0.50651
vt 0.734872 0.505318
vt 0.734147 0.505968
vt 0.734164 0.528049
vt 0.736654 0.528315
vt 0.735045 0.527265
vt 0.736654 0.528315
vt 0.736085 0.527475
vt 0.735045 0.527265
vt 0.73496 0.522107
vt 0.736001 0.522046
vt 0.73669 0.520892
vt 0.73669 0.520892
vt 0.734872 0.519598
vt 0.734147 0.520249
vt 0.736654 0.528315
vt 0.734169 0.529138
vt 0.734857 0.529806
vt 0.734857 0.529806
vt 0.734183 0.532633
vt 0.736562 0.529247
s off
f 1/1/1 2/2/2 3/3/3
f 4/4/4 5/5/5 6/6/6
f 7/7/7 8/8/8 9/9/9
f 10/10/10 11/11/11 12/12/12
f 13/13/13 14/14/14 15/15/15
f 16/16/16 17/17/17 18/18/18
f 19/19/19 20/20/20 21/21/21
f 22/22/22 23/23/23 24/24/24
f 25/25/25 26/26/26 27/27/27
f 28/28/28 29/29/29 30/30/30
f 31/31/31 32/32/32 33/33/33
f 34/34/34 35/35/35 36/36/36
f 37/37/37 38/38/38 39/39/39
f 40/40/40 41/41/41 42/42/42
f 43/43/43 44/44/44 45/45/45
f 46/46/46 47/47/47 48/48/48
f 49/49/49 50/50/50 51/51/51
f 52/52/52 53/53/53 54/54/54
f 55/55/55 56/56/56 57/57/57
f 58/58/58 59/59/59 60/60/60
f 61/61/61 62/62/62 63/63/63
