v -0.927377 0.165529 0.104927
v -0.928437 0.16587 0.107149
v -0.923777 0.165483 0.106722
v -0.923217 0.164329 0.097127
v -0.918996 0.164534 0.101105
v -0.916325 0.164152 0.099073
v -0.908932 0.164865 0.109192
v -0.90612 0.164704 0.109192
v -0.90612 0.163712 0.100366
v -0.894716 0.163141 0.100366
v -0.894716 0.164132 0.109192
v -0.891826 0.164026 0.109192
v -0.90612 0.163432 0.097866
v -0.894716 0.163141 0.100366
v -0.894716 0.16286 0.097866
v -0.894716 0.161973 0.089352
v -0.894716 0.16286 0.097866
v -0.891826 0.161871 0.089352
v -0.877063 0.163485 0.109192
v -0.874251 0.163382 0.109192
v -0.874251 0.162479 0.101147
v -0.852224 0.160711 0.091773
v -0.854958 0.160739 0.091773
v -0.854958 0.162597 0.109192
v -0.861832 0.160768 0.089352
v -0.861832 0.160971 0.091773
v -0.854958 0.160739 0.091773
v -0.852224 0.160711 0.091773
v -0.84535 0.160639 0.091773
v -0.84535 0.16045 0.089352
v -0.925112 0.164238 0.09535
v -0.926168 0.16469 0.098604
v -0.923217 0.164329 0.097127
v -0.925112 0.164238 0.09535
v -0.927793 0.164166 0.093217
v -0.927735 0.164554 0.096516
v -0.88589 0.163808 0.109192
v -0.883078 0.163706 0.109192
v -0.883078 0.16155 0.089352
v -0.88589 0.161653 0.089352
v -0.864331 0.162115 0.101147
v -0.864331 0.161843 0.098725
v -0.874251 0.162207 0.098725
v -0.918996 0.164534 0.101105
v -0.923217 0.164329 0.097127
v -0.923238 0.164653 0.100002
v -0.874251 0.161426 0.091773
v -0.863081 0.160814 0.089352
v -0.877063 0.161329 0.089352
v -0.920603 0.1653 0.107107
v -0.923352 0.165766 0.109355
v -0.917878 0.165391 0.109311
v -0.852224 0.160711 0.091773
v -0.84535 0.16045 0.089352
v -0.854958 0.160739 0.091773
v -0.915924 0.164618 0.103423
v -0.913043 0.164601 0.104742
v -0.913686 0.164213 0.100964
v -0.913925 0.163088 0.090818
v -0.916825 0.163395 0.092076
v -0.914863 0.163396 0.093084
v -0.916048 0.164819 0.105151
v -0.913043 0.164601 0.104742
v -0.915924 0.164618 0.103423
v -0.923148 0.163726 0.091792
v -0.926543 0.163843 0.091105
v -0.924795 0.16398 0.093215
v -0.863081 0.161017 0.091773
v -0.863081 0.160814 0.089352
v -0.874251 0.161426 0.091773
v -0.923804 0.163491 0.089365
v -0.923148 0.163726 0.091792
v -0.919631 0.163485 0.091445
v -0.874251 0.161426 0.091773
v -0.877063 0.161329 0.089352
v -0.874251 0.162207 0.098725
v -0.919482 0.163219 0.089046
v -0.919631 0.163485 0.091445
v -0.916369 0.163095 0.089621
v -0.914867 0.16504 0.107726
v -0.917751 0.165087 0.106665
v -0.917878 0.165391 0.109311
v -0.877063 0.163485 0.109192
v -0.874251 0.162479 0.101147
v -0.874251 0.162207 0.098725
v -0.874251 0.162207 0.098725
v -0.877063 0.161329 0.089352
v -0.877063 0.163485 0.109192
v -0.925112 0.164238 0.09535
v -0.927735 0.164554 0.096516
v -0.926168 0.16469 0.098604
v -0.908932 0.162659 0.089352
v -0.90612 0.163432 0.097866
v -0.90612 0.162503 0.089352
v -0.916048 0.164819 0.105151
v -0.914867 0.16504 0.107726
v -0.913043 0.164601 0.104742
v -0.916369 0.163095 0.089621
v -0.919631 0.163485 0.091445
v -0.916825 0.163395 0.092076
v -0.874251 0.162479 0.101147
v -0.864331 0.162115 0.101147
v -0.874251 0.162207 0.098725
v -0.852224 0.162568 0.109192
v -0.852224 0.160711 0.091773
v -0.854958 0.162597 0.109192
v -0.84535 0.16045 0.089352
v -0.861832 0.160768 0.089352
v -0.854958 0.160739 0.091773
v -0.923148 0.163726 0.091792
v -0.923804 0.163491 0.089365
v -0.926543 0.163843 0.091105
v -0.90612 0.163432 0.097866
v -0.908932 0.162659 0.089352
v -0.908932 0.164865 0.109192
v -0.90612 0.163712 0.100366
v -0.891826 0.164026 0.109192
v -0.891826 0.161871 0.089352
v -0.894716 0.163141 0.100366
v -0.90612 0.163432 0.097866
v -0.90612 0.163712 0.100366
v -0.894716 0.163141 0.100366
v -0.916695 0.164528 0.102231
v -0.913686 0.164213 0.100964
v -0.916325 0.164152 0.099073
v -0.917751 0.165087 0.106665
v -0.920603 0.1653 0.107107
v -0.917878 0.165391 0.109311
v -0.923777 0.165483 0.106722
v -0.928437 0.16587 0.107149
v -0.923352 0.165766 0.109355
v -0.925112 0.164238 0.09535
v -0.924795 0.16398 0.093215
v -0.927793 0.164166 0.093217
v -0.916695 0.164528 0.102231
v -0.915924 0.164618 0.103423
v -0.913686 0.164213 0.100964
v -0.916825 0.163395 0.092076
v -0.913925 0.163088 0.090818
v -0.916369 0.163095 0.089621
v -0.923217 0.164329 0.097127
v -0.926168 0.16469 0.098604
v -0.923238 0.164653 0.100002
v -0.920603 0.1653 0.107107
v -0.923777 0.165483 0.106722
v -0.923352 0.165766 0.109355
v -0.926543 0.163843 0.091105
v -0.927793 0.164166 0.093217
v -0.924795 0.16398 0.093215
v -0.916048 0.164819 0.105151
v -0.917751 0.165087 0.106665
v -0.914867 0.16504 0.107726
v -0.919631 0.163485 0.091445
v -0.919482 0.163219 0.089046
v -0.923804 0.163491 0.089365
v -0.918996 0.164534 0.101105
v -0.916695 0.164528 0.102231
v -0.916325 0.164152 0.099073
v -0.894716 0.16286 0.097866
v -0.894716 0.163141 0.100366
v -0.891826 0.161871 0.089352
vn 0.0714 0.9905 -0.1178
vn 0.0714 0.9905 -0.1178
vn 0.0714 0.9905 -0.1178
vn 0.0569 0.9921 -0.1114
vn 0.0569 0.9921 -0.1114
vn 0.0569 0.9921 -0.1114
vn 0.0569 0.9921 -0.1114
vn 0.0569 0.9921 -0.1114
vn 0.0569 0.9921 -0.1114
vn 0.0364 0.9931 -0.1115
vn 0.0364 0.9931 -0.1115
vn 0.0364 0.9931 -0.1115
vn 0.0498 0.9925 -0.1114
vn 0.0498 0.9925 -0.1114
vn 0.0498 0.9925 -0.1114
vn 0.0349 0.994 -0.1035
vn 0.0349 0.994 -0.1035
vn 0.0349 0.994 -0.1035
vn 0.0364 0.9931 -0.1115
vn 0.0364 0.9931 -0.1115
vn 0.0364 0.9931 -0.1115
vn 0.0104 0.9943 -0.106
vn 0.0104 0.9943 -0.106
vn 0.0104 0.9943 -0.106
vn 0.0336 0.996 -0.0834
vn 0.0336 0.996 -0.0834
vn 0.0336 0.996 -0.0834
vn 0.0104 0.9969 -0.0776
vn 0.0104 0.9969 -0.0776
vn 0.0104 0.9969 -0.0776
vn 0.0624 0.9911 -0.1173
vn 0.0624 0.9911 -0.1173
vn 0.0624 0.9911 -0.1173
vn 0.0669 0.9908 -0.1178
vn 0.0669 0.9908 -0.1178
vn 0.0669 0.9908 -0.1178
vn 0.0365 0.9935 -0.1079
vn 0.0365 0.9935 -0.1079
vn 0.0365 0.9935 -0.1079
vn 0.0365 0.9935 -0.1079
vn 0.0364 0.9931 -0.1115
vn 0.0364 0.9931 -0.1115
vn 0.0364 0.9931 -0.1115
vn 0.0569 0.9921 -0.1114
vn 0.0569 0.9921 -0.1114
vn 0.0569 0.9921 -0.1114
vn 0.0366 0.9959 -0.0826
vn 0.0366 0.9959 -0.0826
vn 0.0366 0.9959 -0.0826
vn 0.0668 0.9901 -0.1234
vn 0.0668 0.9901 -0.1234
vn 0.0668 0.9901 -0.1234
vn 0.0105 0.9969 -0.0776
vn 0.0105 0.9969 -0.0776
vn 0.0105 0.9969 -0.0776
vn 0.0569 0.9921 -0.1114
vn 0.0569 0.9921 -0.1114
vn 0.0569 0.9921 -0.1114
vn 0.0569 0.9921 -0.1115
vn 0.0569 0.9921 -0.1115
vn 0.0569 0.9921 -0.1115
vn 0.0569 0.9921 -0.1114
vn 0.0569 0.9921 -0.1114
vn 0.0569 0.9921 -0.1114
vn 0.0569 0.9921 -0.1114
vn 0.0569 0.9921 -0.1114
vn 0.0569 0.9921 -0.1114
vn 0.0365 0.9959 -0.0833
vn 0.0365 0.9959 -0.0833
vn 0.0365 0.9959 -0.0833
vn 0.0569 0.9921 -0.1114
vn 0.0569 0.9921 -0.1114
vn 0.0569 0.9921 -0.1114
vn 0.0616 0.9919 -0.1114
vn 0.0616 0.9919 -0.1114
vn 0.0616 0.9919 -0.1114
vn 0.0593 0.9925 -0.1066
vn 0.0593 0.9925 -0.1066
vn 0.0593 0.9925 -0.1066
vn 0.0569 0.9921 -0.1114
vn 0.0569 0.9921 -0.1114
vn 0.0569 0.9921 -0.1114
vn 0.0364 0.9931 -0.1115
vn 0.0364 0.9931 -0.1115
vn 0.0364 0.9931 -0.1115
vn 0.0497 0.9929 -0.1079
vn 0.0497 0.9929 -0.1079
vn 0.0497 0.9929 -0.1079
vn 0.068 0.991 -0.1154
vn 0.068 0.991 -0.1154
vn 0.068 0.991 -0.1154
vn 0.0551 0.9926 -0.1083
vn 0.0551 0.9926 -0.1083
vn 0.0551 0.9926 -0.1083
vn 0.0569 0.9921 -0.1114
vn 0.0569 0.9921 -0.1114
vn 0.0569 0.9921 -0.1114
vn 0.0568 0.9922 -0.1109
vn 0.0568 0.9922 -0.1109
vn 0.0568 0.9922 -0.1109
vn 0.0364 0.9931 -0.1115
vn 0.0364 0.9931 -0.1115
vn 0.0364 0.9931 -0.1115
vn 0.0104 0.9943 -0.106
vn 0.0104 0.9943 -0.106
vn 0.0104 0.9943 -0.106
vn 0.0193 0.9989 -0.0428
vn 0.0193 0.9989 -0.0428
vn 0.0193 0.9989 -0.0428
vn 0.0569 0.9921 -0.1114
vn 0.0569 0.9921 -0.1114
vn 0.0569 0.9921 -0.1114
vn 0.0609 0.992 -0.1104
vn 0.0609 0.992 -0.1104
vn 0.0609 0.992 -0.1104
vn 0.0609 0.992 -0.1104
vn 0.0251 0.9938 -0.1079
vn 0.0251 0.9938 -0.1079
vn 0.0251 0.9938 -0.1079
vn 0.0498 0.9925 -0.1115
vn 0.0498 0.9925 -0.1115
vn 0.0498 0.9925 -0.1115
vn 0.0569 0.9921 -0.1114
vn 0.0569 0.9921 -0.1114
vn 0.0569 0.9921 -0.1114
vn 0.0571 0.9921 -0.1114
vn 0.0571 0.9921 -0.1114
vn 0.0571 0.9921 -0.1114
vn 0.0714 0.9905 -0.1179
vn 0.0714 0.9905 -0.1179
vn 0.0714 0.9905 -0.1179
vn 0.0612 0.992 -0.1108
vn 0.0612 0.992 -0.1108
vn 0.0612 0.992 -0.1108
vn 0.0569 0.9921 -0.1114
vn 0.0569 0.9921 -0.1114
vn 0.0569 0.9921 -0.1114
vn 0.0571 0.9922 -0.1109
vn 0.0571 0.9922 -0.1109
vn 0.0571 0.9922 -0.1109
vn 0.0654 0.9916 -0.1113
vn 0.0654 0.9916 -0.1113
vn 0.0654 0.9916 -0.1113
vn 0.0714 0.9905 -0.1179
vn 0.0714 0.9905 -0.1179
vn 0.0714 0.9905 -0.1179
vn 0.0612 0.9915 -0.115
vn 0.0612 0.9915 -0.115
vn 0.0612 0.9915 -0.115
vn 0.0569 0.9921 -0.1114
vn 0.0569 0.9921 -0.1114
vn 0.0569 0.9921 -0.1114
vn 0.0546 0.9928 -0.1069
vn 0.0546 0.9928 -0.1069
vn 0.0546 0.9928 -0.1069
vn 0.0569 0.9921 -0.1114
vn 0.0569 0.9921 -0.1114
vn 0.0569 0.9921 -0.1114
vn 0.0111 0.9937 -0.1116
vn 0.0111 0.9937 -0.1116
vn 0.0111 0.9937 -0.1116
vt 0.015577 0.572104
vt 0.015023 0.573265
vt 0.017457 0.573042
vt 0.01775 0.56803
vt 0.019955 0.570108
vt 0.02135 0.569046
vt 0.025212 0.574332
vt 0.026681 0.574332
vt 0.026681 0.569722
vt 0.032638 0.569722
vt 0.032638 0.574332
vt 0.034147 0.574332
vt 0.026681 0.568416
vt 0.032638 0.569722
vt 0.032638 0.568416
vt 0.032638 0.563968
vt 0.032638 0.568416
vt 0.034147 0.563968
vt 0.041859 0.574332
vt 0.043328 0.574332
vt 0.043328 0.57013
vt 0.054834 0.565233
vt 0.053406 0.565233
vt 0.053406 0.574332
vt 0.049815 0.563968
vt 0.049815 0.565233
vt 0.053406 0.565233
vt 0.054834 0.565233
vt 0.058424 0.565233
vt 0.058424 0.563968
vt 0.01676 0.567102
vt 0.016208 0.568802
vt 0.01775 0.56803
vt 0.01676 0.567102
vt 0.01536 0.565988
vt 0.01539 0.567711
vt 0.037248 0.574332
vt 0.038717 0.574332
vt 0.038717 0.563968
vt 0.037248 0.563968
vt 0.04851 0.57013
vt 0.04851 0.568865
vt 0.043328 0.568865
vt 0.019955 0.570108
vt 0.01775 0.56803
vt 0.017739 0.569532
vt 0.043328 0.565233
vt 0.049162 0.563968
vt 0.041859 0.563968
vt 0.019115 0.573243
vt 0.017679 0.574417
vt 0.020539 0.574395
vt 0.054834 0.565233
vt 0.058424 0.563968
vt 0.053406 0.565233
vt 0.021559 0.571319
vt 0.023064 0.572008
vt 0.022728 0.570034
vt 0.022604 0.564735
vt 0.021089 0.565391
vt 0.022114 0.565918
vt 0.021495 0.572221
vt 0.023064 0.572008
vt 0.021559 0.571319
vt 0.017786 0.565243
vt 0.016013 0.564884
vt 0.016926 0.565987
vt 0.049162 0.565233
vt 0.049162 0.563968
vt 0.043328 0.565233
vt 0.017443 0.563975
vt 0.017786 0.565243
vt 0.019623 0.565062
vt 0.043328 0.565233
vt 0.041859 0.563968
vt 0.043328 0.568865
vt 0.019701 0.563809
vt 0.019623 0.565062
vt 0.021327 0.564109
vt 0.022112 0.573566
vt 0.020605 0.573012
vt 0.020539 0.574395
vt 0.041859 0.574332
vt 0.043328 0.57013
vt 0.043328 0.568865
vt 0.043328 0.568865
vt 0.041859 0.563968
vt 0.041859 0.574332
vt 0.01676 0.567102
vt 0.01539 0.567711
vt 0.016208 0.568802
vt 0.025212 0.563968
vt 0.026681 0.568416
vt 0.026681 0.563968
vt 0.021495 0.572221
vt 0.022112 0.573566
vt 0.023064 0.572008
vt 0.021327 0.564109
vt 0.019623 0.565062
vt 0.021089 0.565391
vt 0.043328 0.57013
vt 0.04851 0.57013
vt 0.043328 0.568865
vt 0.054834 0.574332
vt 0.054834 0.565233
vt 0.053406 0.574332
vt 0.058424 0.563968
vt 0.049815 0.563968
vt 0.053406 0.565233
vt 0.017786 0.565243
vt 0.017443 0.563975
vt 0.016013 0.564884
vt 0.026681 0.568416
vt 0.025212 0.563968
vt 0.025212 0.574332
vt 0.026681 0.569722
vt 0.034147 0.574332
vt 0.034147 0.563968
vt 0.032638 0.569722
vt 0.026681 0.568416
vt 0.026681 0.569722
vt 0.032638 0.569722
vt 0.021157 0.570696
vt 0.022728 0.570034
vt 0.02135 0.569046
vt 0.020605 0.573012
vt 0.019115 0.573243
vt 0.020539 0.574395
vt 0.017457 0.573042
vt 0.015023 0.573265
vt 0.017679 0.574417
vt 0.01676 0.567102
vt 0.016926 0.565987
vt 0.01536 0.565988
vt 0.021157 0.570696
vt 0.021559 0.571319
vt 0.022728 0.570034
vt 0.021089 0.565391
vt 0.022604 0.564735
vt 0.021327 0.564109
vt 0.01775 0.56803
vt 0.016208 0.568802
vt 0.017739 0.569532
vt 0.019115 0.573243
vt 0.017457 0.573042
vt 0.017679 0.574417
vt 0.016013 0.564884
vt 0.01536 0.565988
vt 0.016926 0.565987
vt 0.021495 0.572221
vt 0.020605 0.573012
vt 0.022112 0.573566
vt 0.019623 0.565062
vt 0.019701 0.563809
vt 0.017443 0.563975
vt 0.019955 0.570108
vt 0.021157 0.570696
vt 0.02135 0.569046
vt 0.032638 0.568416
vt 0.032638 0.569722
vt 0.034147 0.563968
s off
f 1/1/1 2/2/2 3/3/3
f 4/4/4 5/5/5 6/6/6
f 7/7/7 8/8/8 9/9/9
f 10/10/10 11/11/11 12/12/12
f 13/13/13 14/14/14 15/15/15
f 16/16/16 17/17/17 18/18/18
f 19/19/19 20/20/20 21/21/21
f 22/22/22 23/23/23 24/24/24
f 25/25/25 26/26/26 27/27/27
f 28/28/28 29/29/29 30/30/30
f 31/31/31 32/32/32 33/33/33
f 34/34/34 35/35/35 36/36/36
f 37/37/37 38/38/38 39/39/39
f 37/37/37 39/39/39 40/40/40
f 41/41/41 42/42/42 43/43/43
f 44/44/44 45/45/45 46/46/46
f 47/47/47 48/48/48 49/49/49
f 50/50/50 51/51/51 52/52/52
f 53/53/53 54/54/54 55/55/55
f 56/56/56 57/57/57 58/58/58
f 59/59/59 60/60/60 61/61/61
f 62/62/62 63/63/63 64/64/64
f 65/65/65 66/66/66 67/67/67
f 68/68/68 69/69/69 70/70/70
f 71/71/71 72/72/72 73/73/73
f 74/74/74 75/75/75 76/76/76
f 77/77/77 78/78/78 79/79/79
f 80/80/80 81/81/81 82/82/82
f 83/83/83 84/84/84 85/85/85
f 86/86/86 87/87/87 88/88/88
f 89/89/89 90/90/90 91/91/91
f 92/92/92 93/93/93 94/94/94
f 95/95/95 96/96/96 97/97/97
f 98/98/98 99/99/99 100/100/100
f 101/101/101 102/102/102 103/103/103
f 104/104/104 105/105/105 106/106/106
f 107/107/107 108/108/108 109/109/109
f 110/110/110 111/111/111 112/112/112
f 113/113/113 114/114/114 115/115/115
f 113/113/113 115/115/115 116/116/116
f 117/117/117 118/118/118 119/119/119
f 120/120/120 121/121/121 122/122/122
f 123/123/123 124/124/124 125/125/125
f 126/126/126 127/127/127 128/128/128
f 129/129/129 130/130/130 131/131/131
f 132/132/132 133/133/133 134/134/134
f 135/135/135 136/136/136 137/137/137
f 138/138/138 139/139/139 140/140/140
f 141/141/141 142/142/142 143/143/143
f 144/144/144 145/145/145 146/146/146
f 147/147/147 148/148/148 149/149/149
f 150/150/150 151/151/151 152/152/152
f 153/153/153 154/154/154 155/155/155
f 156/156/156 157/157/157 158/158/158
f 159/159/159 160/160/160 161/161/161
