v 0.893168 0.158035 0.074153
v 0.93528 0.159587 0.074538
v 0.941779 0.124788 0.06591
v 0.902502 0.124788 0.06591
v 0.893168 0.158035 0.074153
v 0.902502 0.124788 0.06591
v 0.841925 0.124788 0.06591
v 0.841467 0.156762 0.073838
v 0.941779 0.124788 0.06591
v 0.93528 0.159587 0.074538
v 0.941367 0.160586 0.081062
v 0.951017 0.124665 0.069654
v 0.951017 0.124665 0.069654
v 0.941367 0.160586 0.081062
v 0.954843 0.12437 0.078693
v 0.954843 0.12437 0.078693
v 0.941367 0.160586 0.081062
v 0.941095 0.170803 0.165749
v 0.954843 0.121147 0.177431
v 0.951076 0.120844 0.186706
v 0.954843 0.121147 0.177431
v 0.941095 0.170803 0.165749
v 0.935306 0.171187 0.171417
v 0.941981 0.120719 0.190548
v 0.951076 0.120844 0.186706
v 0.935306 0.171187 0.171417
v 0.935306 0.171187 0.171417
v 0.892909 0.16905 0.172227
v 0.902502 0.120719 0.190548
v 0.941981 0.120719 0.190548
v 0.841453 0.167317 0.172884
v 0.841925 0.120719 0.190548
v 0.902502 0.120719 0.190548
v 0.892909 0.16905 0.172227
v 0.781347 0.166714 0.173112
v 0.781347 0.120719 0.190548
v 0.841925 0.120719 0.190548
v 0.841453 0.167317 0.172884
v 0.721241 0.167317 0.172884
v 0.720769 0.120719 0.190548
v 0.781347 0.120719 0.190548
v 0.781347 0.166714 0.173112
v 0.669784 0.16905 0.172227
v 0.660192 0.120719 0.190548
v 0.720769 0.120719 0.190548
v 0.721241 0.167317 0.172884
v 0.669784 0.16905 0.172227
v 0.627388 0.171187 0.171417
v 0.620713 0.120719 0.190548
v 0.660192 0.120719 0.190548
v 0.611618 0.120844 0.186706
v 0.620713 0.120719 0.190548
v 0.627388 0.171187 0.171417
v 0.607851 0.121147 0.177431
v 0.611618 0.120844 0.186706
v 0.627388 0.171187 0.171417
v 0.621599 0.170803 0.165749
v 0.621327 0.160586 0.081062
v 0.607851 0.12437 0.078693
v 0.607851 0.121147 0.177431
v 0.621599 0.170803 0.165749
v 0.611678 0.124665 0.069654
v 0.607851 0.12437 0.078693
v 0.621327 0.160586 0.081062
v 0.620916 0.124788 0.06591
v 0.611678 0.124665 0.069654
v 0.621327 0.160586 0.081062
v 0.627414 0.159587 0.074538
v 0.627414 0.159587 0.074538
v 0.669526 0.158035 0.074153
v 0.660192 0.124788 0.06591
v 0.620916 0.124788 0.06591
v 0.721227 0.156762 0.073838
v 0.720769 0.124788 0.06591
v 0.660192 0.124788 0.06591
v 0.669526 0.158035 0.074153
v 0.781347 0.156321 0.073728
v 0.781347 0.124788 0.06591
v 0.720769 0.124788 0.06591
v 0.721227 0.156762 0.073838
v 0.841467 0.156762 0.073838
v 0.841925 0.124788 0.06591
v 0.781347 0.124788 0.06591
v 0.781347 0.156321 0.073728
v 0.841467 0.156762 0.073838
v 0.781347 0.156321 0.073728
v 0.781347 0.159397 0.077439
v 0.840026 0.159836 0.077545
v 0.781347 0.156321 0.073728
v 0.721227 0.156762 0.073838
v 0.722668 0.159836 0.077545
v 0.781347 0.159397 0.077439
v 0.834298 0.160511 0.089774
v 0.840026 0.159836 0.077545
v 0.781347 0.159397 0.077439
v 0.781347 0.160065 0.089464
v 0.781347 0.160065 0.089464
v 0.781347 0.159397 0.077439
v 0.722668 0.159836 0.077545
v 0.728396 0.160511 0.089774
v 0.781347 0.160065 0.089464
v 0.781347 0.167201 0.15715
v 0.834317 0.167678 0.15677
v 0.834298 0.160511 0.089774
v 0.728396 0.160511 0.089774
v 0.728377 0.167678 0.15677
v 0.781347 0.167201 0.15715
v 0.781347 0.160065 0.089464
v 0.781347 0.169058 0.169091
v 0.781347 0.167201 0.15715
v 0.728377 0.167678 0.15677
v 0.722663 0.169642 0.168869
v 0.840031 0.169642 0.168869
v 0.834317 0.167678 0.15677
v 0.781347 0.167201 0.15715
v 0.781347 0.169058 0.169091
v 0.840031 0.169642 0.168869
v 0.781347 0.169058 0.169091
v 0.781347 0.166714 0.173112
v 0.841453 0.167317 0.172884
v 0.781347 0.169058 0.169091
v 0.722663 0.169642 0.168869
v 0.721241 0.167317 0.172884
v 0.781347 0.166714 0.173112
v 0.891373 0.171376 0.168213
v 0.840031 0.169642 0.168869
v 0.841453 0.167317 0.172884
v 0.892909 0.16905 0.172227
v 0.891373 0.171376 0.168213
v 0.887238 0.169443 0.155771
v 0.834317 0.167678 0.15677
v 0.840031 0.169642 0.168869
v 0.934473 0.173595 0.167384
v 0.891373 0.171376 0.168213
v 0.892909 0.16905 0.172227
v 0.935306 0.171187 0.171417
v 0.891373 0.171376 0.168213
v 0.934473 0.173595 0.167384
v 0.937327 0.173388 0.164562
v 0.887238 0.169443 0.155771
v 0.834298 0.160511 0.089774
v 0.834317 0.167678 0.15677
v 0.887238 0.169443 0.155771
v 0.887221 0.162087 0.090405
v 0.937325 0.163341 0.081762
v 0.887221 0.162087 0.090405
v 0.887238 0.169443 0.155771
v 0.937327 0.173388 0.164562
v 0.937327 0.173388 0.164562
v 0.941095 0.170803 0.165749
v 0.941367 0.160586 0.081062
v 0.937325 0.163341 0.081762
v 0.937327 0.173388 0.164562
v 0.934473 0.173595 0.167384
v 0.935306 0.171187 0.171417
v 0.941095 0.170803 0.165749
v 0.887221 0.162087 0.090405
v 0.937325 0.163341 0.081762
v 0.934226 0.162832 0.078236
v 0.89137 0.161149 0.077855
v 0.934226 0.162832 0.078236
v 0.937325 0.163341 0.081762
v 0.941367 0.160586 0.081062
v 0.93528 0.159587 0.074538
v 0.89137 0.161149 0.077855
v 0.934226 0.162832 0.078236
v 0.93528 0.159587 0.074538
v 0.893168 0.158035 0.074153
v 0.893168 0.158035 0.074153
v 0.841467 0.156762 0.073838
v 0.840026 0.159836 0.077545
v 0.89137 0.161149 0.077855
v 0.887221 0.162087 0.090405
v 0.89137 0.161149 0.077855
v 0.840026 0.159836 0.077545
v 0.834298 0.160511 0.089774
v 0.722663 0.169642 0.168869
v 0.671321 0.171376 0.168213
v 0.669784 0.16905 0.172227
v 0.721241 0.167317 0.172884
v 0.722663 0.169642 0.168869
v 0.728377 0.167678 0.15677
v 0.675456 0.169443 0.155771
v 0.671321 0.171376 0.168213
v 0.671321 0.171376 0.168213
v 0.628221 0.173595 0.167384
v 0.627388 0.171187 0.171417
v 0.669784 0.16905 0.172227
v 0.625367 0.173388 0.164562
v 0.628221 0.173595 0.167384
v 0.671321 0.171376 0.168213
v 0.675456 0.169443 0.155771
v 0.675473 0.162087 0.090405
v 0.675456 0.169443 0.155771
v 0.728377 0.167678 0.15677
v 0.728396 0.160511 0.089774
v 0.675473 0.162087 0.090405
v 0.625369 0.163341 0.081762
v 0.625367 0.173388 0.164562
v 0.675456 0.169443 0.155771
v 0.621327 0.160586 0.081062
v 0.621599 0.170803 0.165749
v 0.625367 0.173388 0.164562
v 0.625369 0.163341 0.081762
v 0.628221 0.173595 0.167384
v 0.625367 0.173388 0.164562
v 0.621599 0.170803 0.165749
v 0.627388 0.171187 0.171417
v 0.625369 0.163341 0.081762
v 0.628468 0.162832 0.078235
v 0.627414 0.159587 0.074538
v 0.621327 0.160586 0.081062
v 0.625369 0.163341 0.081762
v 0.675473 0.162087 0.090405
v 0.671324 0.161149 0.077855
v 0.628468 0.162832 0.078235
v 0.628468 0.162832 0.078235
v 0.671324 0.161149 0.077855
v 0.669526 0.158035 0.074153
v 0.627414 0.159587 0.074538
v 0.721227 0.156762 0.073838
v 0.669526 0.158035 0.074153
v 0.671324 0.161149 0.077855
v 0.722668 0.159836 0.077545
v 0.728396 0.160511 0.089774
v 0.722668 0.159836 0.077545
v 0.671324 0.161149 0.077855
v 0.675473 0.162087 0.090405
v 0.660192 0.120719 0.190548
v 0.660192 0.109463 0.19018
v 0.720769 0.109463 0.19018
v 0.720769 0.120719 0.190548
v 0.720769 0.120719 0.190548
v 0.720769 0.109463 0.19018
v 0.781347 0.109463 0.19018
v 0.781347 0.120719 0.190548
v 0.781347 0.120719 0.190548
v 0.781347 0.109463 0.19018
v 0.841925 0.109463 0.19018
v 0.841925 0.120719 0.190548
v 0.841925 0.120719 0.190548
v 0.841925 0.109463 0.19018
v 0.902502 0.109463 0.19018
v 0.902502 0.120719 0.190548
v 0.902502 0.124788 0.06591
v 0.902502 0.113532 0.065542
v 0.841925 0.113532 0.065542
v 0.841925 0.124788 0.06591
v 0.841925 0.124788 0.06591
v 0.841925 0.113532 0.065542
v 0.781347 0.113532 0.065542
v 0.781347 0.124788 0.06591
v 0.781347 0.124788 0.06591
v 0.781347 0.113532 0.065542
v 0.720769 0.113532 0.065542
v 0.720769 0.124788 0.06591
v 0.720769 0.124788 0.06591
v 0.720769 0.113532 0.065542
v 0.660192 0.113532 0.065542
v 0.660192 0.124788 0.06591
v 0.607851 0.10989 0.177081
v 0.607851 0.121147 0.177431
v 0.607851 0.12437 0.078693
v 0.607851 0.113114 0.078321
v 0.954843 0.10989 0.177081
v 0.954843 0.113114 0.078321
v 0.954843 0.12437 0.078693
v 0.954843 0.121147 0.177431
v 0.941794 0.113532 0.065542
v 0.941779 0.124788 0.06591
v 0.951017 0.124665 0.069654
v 0.951021 0.113409 0.069285
v 0.951021 0.113409 0.069285
v 0.951017 0.124665 0.069654
v 0.954843 0.12437 0.078693
v 0.954843 0.113114 0.078321
v 0.620916 0.124788 0.06591
v 0.6209 0.113532 0.065542
v 0.611673 0.113409 0.069285
v 0.611678 0.124665 0.069654
v 0.611678 0.124665 0.069654
v 0.611673 0.113409 0.069285
v 0.607851 0.113114 0.078321
v 0.607851 0.12437 0.078693
v 0.941981 0.120719 0.190548
v 0.941988 0.109463 0.19018
v 0.951078 0.109588 0.186344
v 0.951076 0.120844 0.186706
v 0.951076 0.120844 0.186706
v 0.951078 0.109588 0.186344
v 0.954843 0.10989 0.177081
v 0.954843 0.121147 0.177431
v 0.607851 0.121147 0.177431
v 0.607851 0.10989 0.177081
v 0.611616 0.109588 0.186344
v 0.611618 0.120844 0.186706
v 0.611618 0.120844 0.186706
v 0.611616 0.109588 0.186344
v 0.620706 0.109463 0.19018
v 0.620713 0.120719 0.190548
v 0.902502 0.113532 0.065542
v 0.902502 0.124788 0.06591
v 0.941779 0.124788 0.06591
v 0.941794 0.113532 0.065542
v 0.941988 0.109463 0.19018
v 0.941981 0.120719 0.190548
v 0.902502 0.120719 0.190548
v 0.902502 0.109463 0.19018
v 0.6209 0.113532 0.065542
v 0.620916 0.124788 0.06591
v 0.660192 0.124788 0.06591
v 0.660192 0.113532 0.065542
v 0.660192 0.109463 0.19018
v 0.660192 0.120719 0.190548
v 0.620713 0.120719 0.190548
v 0.620706 0.109463 0.19018
vn -0 0.2408 -0.9706
vn 0.0001 0.2407 -0.9706
vn 0.0001 0.2407 -0.9706
vn -0 0.2407 -0.9706
vn -0 0.2408 -0.9706
vn -0 0.2407 -0.9706
vn -0 0.2407 -0.9706
vn -0 0.2408 -0.9706
vn 0.0001 0.2407 -0.9706
vn 0.0001 0.2407 -0.9706
vn 0.9535 0.3012 -0.0101
vn 0.6604 0.3555 -0.6615
vn 0.6604 0.3555 -0.6615
vn 0.9535 0.3012 -0.0101
vn 0.9535 0.3012 -0.0102
vn 0.9535 0.3012 -0.0102
vn 0.9535 0.3012 -0.0101
vn 0.9535 0.3012 -0.0101
vn 0.9535 0.3012 -0.01
vn 0.6545 0.3824 0.6523
vn 0.9535 0.3012 -0.01
vn 0.9535 0.3012 -0.0101
vn -0 0.3545 0.9351
vn 0.0001 0.3545 0.9351
vn 0.6545 0.3824 0.6523
vn -0 0.3545 0.9351
vn -0 0.3545 0.9351
vn -0 0.3545 0.935
vn -0 0.3545 0.9351
vn 0.0001 0.3545 0.9351
vn -0 0.3546 0.935
vn -0 0.3545 0.9351
vn -0 0.3545 0.9351
vn -0 0.3545 0.935
vn -0 0.3545 0.935
vn -0 0.3545 0.9351
vn -0 0.3545 0.9351
vn -0 0.3546 0.935
vn -0 0.3546 0.935
vn -0 0.3545 0.9351
vn -0 0.3545 0.9351
vn -0 0.3545 0.935
vn -0 0.3545 0.935
vn -0 0.3545 0.9351
vn -0 0.3545 0.9351
vn -0 0.3546 0.935
vn -0 0.3545 0.935
vn -0 0.3545 0.9351
vn -0.0001 0.3545 0.9351
vn -0 0.3545 0.9351
vn -0.6545 0.3824 0.6523
vn -0.0001 0.3545 0.9351
vn -0 0.3545 0.9351
vn -0.9535 0.3012 -0.01
vn -0.6545 0.3824 0.6523
vn -0 0.3545 0.9351
vn -0.9535 0.3013 -0.0101
vn -0.9535 0.3012 -0.0101
vn -0.9535 0.3012 -0.0102
vn -0.9535 0.3012 -0.01
vn -0.9535 0.3013 -0.0101
vn -0.6604 0.3554 -0.6615
vn -0.9535 0.3012 -0.0102
vn -0.9535 0.3012 -0.0101
vn -0.0001 0.2407 -0.9706
vn -0.6604 0.3554 -0.6615
vn -0.9535 0.3012 -0.0101
vn -0 0.2408 -0.9706
vn -0 0.2408 -0.9706
vn -0 0.2407 -0.9706
vn -0 0.2407 -0.9706
vn -0.0001 0.2407 -0.9706
vn 0.0015 0.2407 -0.9706
vn -0 0.2407 -0.9706
vn -0 0.2407 -0.9706
vn -0 0.2407 -0.9706
vn -0 0.2407 -0.9706
vn -0 0.2407 -0.9706
vn -0 0.2407 -0.9706
vn 0.0015 0.2407 -0.9706
vn -0 0.2408 -0.9706
vn -0 0.2407 -0.9706
vn -0 0.2407 -0.9706
vn -0 0.2407 -0.9706
vn -0 0.2408 -0.9706
vn -0 0.2407 -0.9706
vn -0 0.9984 -0.0573
vn -0.02 0.9974 -0.0692
vn -0 0.2407 -0.9706
vn 0.0015 0.2407 -0.9706
vn 0.02 0.9974 -0.0692
vn -0 0.9984 -0.0573
vn -0.0174 0.9962 -0.0855
vn -0.02 0.9974 -0.0692
vn -0 0.9984 -0.0573
vn -0 0.9967 -0.0813
vn -0 0.9967 -0.0813
vn -0 0.9984 -0.0573
vn 0.02 0.9974 -0.0692
vn 0.0174 0.9962 -0.0855
vn -0 0.9967 -0.0813
vn -0 0.9915 -0.1302
vn -0.0198 0.9915 -0.1289
vn -0.0174 0.9962 -0.0855
vn 0.0174 0.9962 -0.0855
vn 0.0198 0.9915 -0.1289
vn -0 0.9915 -0.1302
vn -0 0.9967 -0.0813
vn -0 0.988 -0.1543
vn -0 0.9915 -0.1302
vn 0.0198 0.9915 -0.1289
vn 0.0263 0.9888 -0.1468
vn -0.0263 0.9888 -0.1468
vn -0.0198 0.9915 -0.1289
vn -0 0.9915 -0.1302
vn -0 0.988 -0.1543
vn -0.0263 0.9888 -0.1468
vn -0 0.988 -0.1543
vn -0 0.3545 0.935
vn -0 0.3546 0.935
vn -0 0.988 -0.1543
vn 0.0263 0.9888 -0.1468
vn -0 0.3546 0.935
vn -0 0.3545 0.935
vn -0.0465 0.9894 -0.1374
vn -0.0263 0.9888 -0.1468
vn -0 0.3546 0.935
vn -0 0.3545 0.935
vn -0.0465 0.9894 -0.1374
vn -0.0421 0.9912 -0.1255
vn -0.0198 0.9915 -0.1289
vn -0.0263 0.9888 -0.1468
vn -0.0539 0.9895 -0.1341
vn -0.0465 0.9894 -0.1374
vn -0 0.3545 0.935
vn -0 0.3545 0.9351
vn -0.0465 0.9894 -0.1374
vn -0.0539 0.9895 -0.1341
vn -0.0522 0.991 -0.1236
vn -0.0421 0.9912 -0.1255
vn -0.0174 0.9962 -0.0855
vn -0.0198 0.9915 -0.1289
vn -0.0421 0.9912 -0.1255
vn -0.0371 0.9945 -0.0982
vn -0.0462 0.9933 -0.1064
vn -0.0371 0.9945 -0.0982
vn -0.0421 0.9912 -0.1255
vn -0.0522 0.991 -0.1236
vn -0.0522 0.991 -0.1236
vn 0.9535 0.3012 -0.0101
vn 0.9535 0.3012 -0.0101
vn -0.0462 0.9933 -0.1064
vn -0.0522 0.991 -0.1236
vn -0.0539 0.9895 -0.1341
vn -0 0.3545 0.9351
vn 0.9535 0.3012 -0.0101
vn -0.0371 0.9945 -0.0982
vn -0.0462 0.9933 -0.1064
vn -0.0396 0.9949 -0.0924
vn -0.0345 0.9957 -0.0858
vn -0.0396 0.9949 -0.0924
vn -0.0462 0.9933 -0.1064
vn 0.9535 0.3012 -0.0101
vn 0.0001 0.2407 -0.9706
vn -0.0345 0.9957 -0.0858
vn -0.0396 0.9949 -0.0924
vn 0.0001 0.2407 -0.9706
vn -0 0.2408 -0.9706
vn -0 0.2408 -0.9706
vn -0 0.2408 -0.9706
vn -0.02 0.9974 -0.0692
vn -0.0345 0.9957 -0.0858
vn -0.0371 0.9945 -0.0982
vn -0.0345 0.9957 -0.0858
vn -0.02 0.9974 -0.0692
vn -0.0174 0.9962 -0.0855
vn 0.0263 0.9888 -0.1468
vn 0.0465 0.9894 -0.1374
vn -0 0.3545 0.935
vn -0 0.3546 0.935
vn 0.0263 0.9888 -0.1468
vn 0.0198 0.9915 -0.1289
vn 0.0421 0.9912 -0.1255
vn 0.0465 0.9894 -0.1374
vn 0.0465 0.9894 -0.1374
vn 0.0539 0.9895 -0.1341
vn -0 0.3545 0.9351
vn -0 0.3545 0.935
vn 0.0521 0.991 -0.1237
vn 0.0539 0.9895 -0.1341
vn 0.0465 0.9894 -0.1374
vn 0.0421 0.9912 -0.1255
vn 0.0371 0.9945 -0.0982
vn 0.0421 0.9912 -0.1255
vn 0.0198 0.9915 -0.1289
vn 0.0174 0.9962 -0.0855
vn 0.0371 0.9945 -0.0982
vn 0.0462 0.9933 -0.1064
vn 0.0521 0.991 -0.1237
vn 0.0421 0.9912 -0.1255
vn -0.9535 0.3012 -0.0101
vn -0.9535 0.3013 -0.0101
vn 0.0521 0.991 -0.1237
vn 0.0462 0.9933 -0.1064
vn 0.0539 0.9895 -0.1341
vn 0.0521 0.991 -0.1237
vn -0.9535 0.3013 -0.0101
vn -0 0.3545 0.9351
vn 0.0462 0.9933 -0.1064
vn 0.0395 0.9949 -0.0924
vn -0 0.2408 -0.9706
vn -0.9535 0.3012 -0.0101
vn 0.0462 0.9933 -0.1064
vn 0.0371 0.9945 -0.0982
vn 0.0345 0.9957 -0.0858
vn 0.0395 0.9949 -0.0924
vn 0.0395 0.9949 -0.0924
vn 0.0345 0.9957 -0.0858
vn -0 0.2407 -0.9706
vn -0 0.2408 -0.9706
vn 0.0015 0.2407 -0.9706
vn -0 0.2407 -0.9706
vn 0.0345 0.9957 -0.0858
vn 0.02 0.9974 -0.0692
vn 0.0174 0.9962 -0.0855
vn 0.02 0.9974 -0.0692
vn 0.0345 0.9957 -0.0858
vn 0.0371 0.9945 -0.0982
vn -0 -0.0326 0.9995
vn -0 -0.0326 0.9995
vn -0 -0.0326 0.9995
vn -0 -0.0326 0.9995
vn -0 -0.0326 0.9995
vn -0 -0.0326 0.9995
vn -0 -0.0326 0.9995
vn -0 -0.0326 0.9995
vn -0 -0.0326 0.9995
vn -0 -0.0326 0.9995
vn -0 -0.0326 0.9995
vn -0 -0.0326 0.9995
vn -0 -0.0326 0.9995
vn -0 -0.0326 0.9995
vn -0 -0.0326 0.9995
vn -0 -0.0326 0.9995
vn -0 0.0326 -0.9995
vn -0 0.0326 -0.9995
vn -0 0.0326 -0.9995
vn -0 0.0326 -0.9995
vn -0 0.0326 -0.9995
vn -0 0.0326 -0.9995
vn -0 0.0326 -0.9995
vn -0 0.0326 -0.9995
vn -0 0.0326 -0.9995
vn -0 0.0326 -0.9995
vn -0 0.0326 -0.9995
vn -0 0.0326 -0.9995
vn -0 0.0326 -0.9995
vn -0 0.0326 -0.9995
vn -0 0.0326 -0.9995
vn -0 0.0326 -0.9995
vn -1 -0 -0
vn -1 0.0002 -0
vn -1 -0 -0
vn -1 0.0002 -0
vn 1 0.0002 -0
vn 1 -0.0001 -0
vn 1 0.0002 -0
vn 1 -0 -0
vn -0 0.0328 -0.9995
vn -0 0.0326 -0.9995
vn 0.6997 0.0237 -0.7141
vn 0.6997 0.0237 -0.7141
vn 0.6997 0.0237 -0.7141
vn 0.6997 0.0237 -0.7141
vn 1 0.0002 -0
vn 1 -0.0001 -0
vn -0 0.0328 -0.9995
vn -0 0.0326 -0.9995
vn -0.6997 0.0237 -0.714
vn -0.6997 0.0237 -0.714
vn -0.6997 0.0237 -0.714
vn -0.6997 0.0237 -0.714
vn -1 0.0002 -0
vn -1 -0 -0
vn -0 -0.0324 0.9995
vn -0 -0.0327 0.9995
vn 0.714 -0.0224 0.6998
vn 0.714 -0.0224 0.6997
vn 0.714 -0.0224 0.6997
vn 0.714 -0.0224 0.6998
vn 1 0.0002 -0
vn 1 -0 -0
vn -1 0.0002 -0
vn -1 -0 -0
vn -0.7141 -0.0224 0.6997
vn -0.7141 -0.0224 0.6997
vn -0.7141 -0.0224 0.6997
vn -0.7141 -0.0224 0.6997
vn -0 -0.0324 0.9995
vn -0 -0.0327 0.9995
vn -0 0.0326 -0.9995
vn -0 0.0326 -0.9995
vn -0 0.0326 -0.9995
vn -0 0.0328 -0.9995
vn -0 -0.0327 0.9995
vn -0 -0.0324 0.9995
vn -0 -0.0326 0.9995
vn -0 -0.0326 0.9995
vn -0 0.0326 -0.9995
vn -0 0.0328 -0.9995
vn -0 0.0326 -0.9995
vn -0 0.0326 -0.9995
vn -0 -0.0326 0.9995
vn -0 -0.0326 0.9995
vn -0 -0.0327 0.9995
vn -0 -0.0324 0.9995
vt 0.958154 0.208869
vt 0.976988 0.209041
vt 0.991715 0.201791
vt 0.97143 0.201827
vt 0.958154 0.208869
vt 0.97143 0.201827
vt 0.939787 0.201826
vt 0.935031 0.208728
vt 0.991715 0.201791
vt 0.976988 0.209041
vt 0.97971 0.211959
vt 0.996086 0.203471
vt 0.996086 0.203471
vt 0.97971 0.211959
vt 0.997849 0.207741
vt 0.997849 0.207741
vt 0.97971 0.211959
vt 0.979589 0.249835
vt 0.997861 0.258901
vt 0.996166 0.263292
vt 0.997861 0.258901
vt 0.979589 0.249835
vt 0.976999 0.252369
vt 0.991863 0.265066
vt 0.996166 0.263292
vt 0.976999 0.252369
vt 0.976999 0.252369
vt 0.958038 0.252732
vt 0.97143 0.265046
vt 0.991863 0.265066
vt 0.935025 0.253025
vt 0.939787 0.265046
vt 0.97143 0.265046
vt 0.958038 0.252732
vt 0.908143 0.253128
vt 0.908143 0.265046
vt 0.939787 0.265046
vt 0.935025 0.253025
vt 0.881261 0.253025
vt 0.8765 0.265046
vt 0.908143 0.265046
vt 0.908143 0.253128
vt 0.858248 0.252732
vt 0.844857 0.265046
vt 0.8765 0.265046
vt 0.881261 0.253025
vt 0.858248 0.252732
vt 0.839287 0.252369
vt 0.824423 0.265066
vt 0.844857 0.265046
vt 0.820121 0.263292
vt 0.824423 0.265066
vt 0.839287 0.252369
vt 0.818426 0.258901
vt 0.820121 0.263292
vt 0.839287 0.252369
vt 0.836698 0.249835
vt 0.836576 0.211959
vt 0.818438 0.207741
vt 0.818426 0.258901
vt 0.836698 0.249835
vt 0.820201 0.203471
vt 0.818438 0.207741
vt 0.836576 0.211959
vt 0.824572 0.201791
vt 0.820201 0.203471
vt 0.836576 0.211959
vt 0.839299 0.209041
vt 0.839299 0.209041
vt 0.858133 0.208869
vt 0.844857 0.201827
vt 0.824572 0.201791
vt 0.881256 0.208728
vt 0.8765 0.201826
vt 0.844857 0.201827
vt 0.858133 0.208869
vt 0.908143 0.208679
vt 0.908143 0.201826
vt 0.8765 0.201826
vt 0.881256 0.208728
vt 0.935031 0.208728
vt 0.939787 0.201826
vt 0.908143 0.201826
vt 0.908143 0.208679
vt 0.935031 0.208728
vt 0.908143 0.208679
vt 0.908143 0.210339
vt 0.934387 0.210386
vt 0.908143 0.208679
vt 0.881256 0.208728
vt 0.8819 0.210386
vt 0.908143 0.210339
vt 0.931825 0.215855
vt 0.934387 0.210386
vt 0.908143 0.210339
vt 0.908143 0.215717
vt 0.908143 0.215717
vt 0.908143 0.210339
vt 0.8819 0.210386
vt 0.884462 0.215855
vt 0.908143 0.215717
vt 0.908143 0.245988
vt 0.931834 0.245818
vt 0.931825 0.215855
vt 0.884462 0.215855
vt 0.884453 0.245818
vt 0.908143 0.245988
vt 0.908143 0.215717
vt 0.908143 0.251329
vt 0.908143 0.245988
vt 0.884453 0.245818
vt 0.881898 0.25123
vt 0.934389 0.25123
vt 0.931834 0.245818
vt 0.908143 0.245988
vt 0.908143 0.251329
vt 0.934389 0.25123
vt 0.908143 0.251329
vt 0.908143 0.253128
vt 0.935025 0.253025
vt 0.908143 0.251329
vt 0.881898 0.25123
vt 0.881261 0.253025
vt 0.908143 0.253128
vt 0.957351 0.250936
vt 0.934389 0.25123
vt 0.935025 0.253025
vt 0.958038 0.252732
vt 0.957351 0.250936
vt 0.955502 0.245372
vt 0.931834 0.245818
vt 0.934389 0.25123
vt 0.976627 0.250565
vt 0.957351 0.250936
vt 0.958038 0.252732
vt 0.976999 0.252369
vt 0.957351 0.250936
vt 0.976627 0.250565
vt 0.977904 0.249303
vt 0.955502 0.245372
vt 0.931825 0.215855
vt 0.931834 0.245818
vt 0.955502 0.245372
vt 0.955494 0.216138
vt 0.977903 0.212272
vt 0.955494 0.216138
vt 0.955502 0.245372
vt 0.977904 0.249303
vt 0.977904 0.249303
vt 0.979589 0.249835
vt 0.97971 0.211959
vt 0.977903 0.212272
vt 0.977904 0.249303
vt 0.976627 0.250565
vt 0.976999 0.252369
vt 0.979589 0.249835
vt 0.955494 0.216138
vt 0.977903 0.212272
vt 0.976517 0.210695
vt 0.95735 0.210525
vt 0.976517 0.210695
vt 0.977903 0.212272
vt 0.97971 0.211959
vt 0.976988 0.209041
vt 0.95735 0.210525
vt 0.976517 0.210695
vt 0.976988 0.209041
vt 0.958154 0.208869
vt 0.958154 0.208869
vt 0.935031 0.208728
vt 0.934387 0.210386
vt 0.95735 0.210525
vt 0.955494 0.216138
vt 0.95735 0.210525
vt 0.934387 0.210386
vt 0.931825 0.215855
vt 0.881898 0.25123
vt 0.858935 0.250936
vt 0.858248 0.252732
vt 0.881261 0.253025
vt 0.881898 0.25123
vt 0.884453 0.245818
vt 0.860785 0.245372
vt 0.858935 0.250936
vt 0.858935 0.250936
vt 0.83966 0.250565
vt 0.839287 0.252369
vt 0.858248 0.252732
vt 0.838383 0.249303
vt 0.83966 0.250565
vt 0.858935 0.250936
vt 0.860785 0.245372
vt 0.860792 0.216138
vt 0.860785 0.245372
vt 0.884453 0.245818
vt 0.884462 0.215855
vt 0.860792 0.216138
vt 0.838384 0.212272
vt 0.838383 0.249303
vt 0.860785 0.245372
vt 0.836576 0.211959
vt 0.836698 0.249835
vt 0.838383 0.249303
vt 0.838384 0.212272
vt 0.83966 0.250565
vt 0.838383 0.249303
vt 0.836698 0.249835
vt 0.839287 0.252369
vt 0.838384 0.212272
vt 0.83977 0.210695
vt 0.839299 0.209041
vt 0.836576 0.211959
vt 0.838384 0.212272
vt 0.860792 0.216138
vt 0.858937 0.210525
vt 0.83977 0.210695
vt 0.83977 0.210695
vt 0.858937 0.210525
vt 0.858133 0.208869
vt 0.839299 0.209041
vt 0.881256 0.208728
vt 0.858133 0.208869
vt 0.858937 0.210525
vt 0.8819 0.210386
vt 0.884462 0.215855
vt 0.8819 0.210386
vt 0.858937 0.210525
vt 0.860792 0.216138
vt 0.844857 0.265046
vt 0.844857 0.266497
vt 0.8765 0.266497
vt 0.8765 0.265046
vt 0.8765 0.265046
vt 0.8765 0.266497
vt 0.908143 0.266497
vt 0.908143 0.265046
vt 0.908143 0.265046
vt 0.908143 0.266497
vt 0.939787 0.266497
vt 0.939787 0.265046
vt 0.939787 0.265046
vt 0.939787 0.266497
vt 0.97143 0.266497
vt 0.97143 0.265046
vt 0.97143 0.201827
vt 0.97143 0.199987
vt 0.939787 0.199987
vt 0.939787 0.201826
vt 0.939787 0.201826
vt 0.939787 0.199987
vt 0.908143 0.199987
vt 0.908143 0.201826
vt 0.908143 0.201826
vt 0.908143 0.199987
vt 0.8765 0.199987
vt 0.8765 0.201826
vt 0.8765 0.201826
vt 0.8765 0.199987
vt 0.844857 0.199987
vt 0.844857 0.201827
vt 0.816827 0.259087
vt 0.818426 0.258901
vt 0.818438 0.207741
vt 0.816828 0.207224
vt 0.99946 0.259087
vt 0.999459 0.207224
vt 0.997849 0.207741
vt 0.997861 0.258901
vt 0.992089 0.2
vt 0.991715 0.201791
vt 0.996086 0.203471
vt 0.997267 0.202144
vt 0.997267 0.202144
vt 0.996086 0.203471
vt 0.997849 0.207741
vt 0.999459 0.207224
vt 0.824572 0.201791
vt 0.824198 0.2
vt 0.81902 0.202144
vt 0.820201 0.203471
vt 0.820201 0.203471
vt 0.81902 0.202144
vt 0.816828 0.207224
vt 0.818438 0.207741
vt 0.991863 0.265066
vt 0.992195 0.266483
vt 0.997304 0.264283
vt 0.996166 0.263292
vt 0.996166 0.263292
vt 0.997304 0.264283
vt 0.99946 0.259087
vt 0.997861 0.258901
vt 0.818426 0.258901
vt 0.816827 0.259087
vt 0.818983 0.264283
vt 0.820121 0.263292
vt 0.820121 0.263292
vt 0.818983 0.264283
vt 0.824092 0.266483
vt 0.824423 0.265066
vt 0.97143 0.199987
vt 0.97143 0.201827
vt 0.991715 0.201791
vt 0.992089 0.2
vt 0.992195 0.266483
vt 0.991863 0.265066
vt 0.97143 0.265046
vt 0.97143 0.266497
vt 0.824198 0.2
vt 0.824572 0.201791
vt 0.844857 0.201827
vt 0.844857 0.199987
vt 0.844857 0.266497
vt 0.844857 0.265046
vt 0.824423 0.265066
vt 0.824092 0.266483
s off
f 1/1/1 2/2/2 3/3/3
f 1/1/1 3/3/3 4/4/4
f 5/5/5 6/6/6 7/7/7
f 5/5/5 7/7/7 8/8/8
f 9/9/9 10/10/10 11/11/11
f 9/9/9 11/11/11 12/12/12
f 13/13/13 14/14/14 15/15/15
f 16/16/16 17/17/17 18/18/18
f 16/16/16 18/18/18 19/19/19
f 20/20/20 21/21/21 22/22/22
f 20/20/20 22/22/22 23/23/23
f 24/24/24 25/25/25 26/26/26
f 27/27/27 28/28/28 29/29/29
f 27/27/27 29/29/29 30/30/30
f 31/31/31 32/32/32 33/33/33
f 31/31/31 33/33/33 34/34/34
f 35/35/35 36/36/36 37/37/37
f 35/35/35 37/37/37 38/38/38
f 39/39/39 40/40/40 41/41/41
f 39/39/39 41/41/41 42/42/42
f 43/43/43 44/44/44 45/45/45
f 43/43/43 45/45/45 46/46/46
f 47/47/47 48/48/48 49/49/49
f 47/47/47 49/49/49 50/50/50
f 51/51/51 52/52/52 53/53/53
f 54/54/54 55/55/55 56/56/56
f 54/54/54 56/56/56 57/57/57
f 58/58/58 59/59/59 60/60/60
f 58/58/58 60/60/60 61/61/61
f 62/62/62 63/63/63 64/64/64
f 65/65/65 66/66/66 67/67/67
f 65/65/65 67/67/67 68/68/68
f 69/69/69 70/70/70 71/71/71
f 69/69/69 71/71/71 72/72/72
f 73/73/73 74/74/74 75/75/75
f 73/73/73 75/75/75 76/76/76
f 77/77/77 78/78/78 79/79/79
f 77/77/77 79/79/79 80/80/80
f 81/81/81 82/82/82 83/83/83
f 81/81/81 83/83/83 84/84/84
f 85/85/85 86/86/86 87/87/87
f 85/85/85 87/87/87 88/88/88
f 89/89/89 90/90/90 91/91/91
f 89/89/89 91/91/91 92/92/92
f 93/93/93 94/94/94 95/95/95
f 93/93/93 95/95/95 96/96/96
f 97/97/97 98/98/98 99/99/99
f 97/97/97 99/99/99 100/100/100
f 101/101/101 102/102/102 103/103/103
f 101/101/101 103/103/103 104/104/104
f 105/105/105 106/106/106 107/107/107
f 105/105/105 107/107/107 108/108/108
f 109/109/109 110/110/110 111/111/111
f 109/109/109 111/111/111 112/112/112
f 113/113/113 114/114/114 115/115/115
f 113/113/113 115/115/115 116/116/116
f 117/117/117 118/118/118 119/119/119
f 117/117/117 119/119/119 120/120/120
f 121/121/121 122/122/122 123/123/123
f 121/121/121 123/123/123 124/124/124
f 125/125/125 126/126/126 127/127/127
f 125/125/125 127/127/127 128/128/128
f 129/129/129 130/130/130 131/131/131
f 129/129/129 131/131/131 132/132/132
f 133/133/133 134/134/134 135/135/135
f 133/133/133 135/135/135 136/136/136
f 137/137/137 138/138/138 139/139/139
f 137/137/137 139/139/139 140/140/140
f 141/141/141 142/142/142 143/143/143
f 141/141/141 143/143/143 144/144/144
f 145/145/145 146/146/146 147/147/147
f 145/145/145 147/147/147 148/148/148
f 149/149/149 150/150/150 151/151/151
f 149/149/149 151/151/151 152/152/152
f 153/153/153 154/154/154 155/155/155
f 153/153/153 155/155/155 156/156/156
f 157/157/157 158/158/158 159/159/159
f 157/157/157 159/159/159 160/160/160
f 161/161/161 162/162/162 163/163/163
f 161/161/161 163/163/163 164/164/164
f 165/165/165 166/166/166 167/167/167
f 165/165/165 167/167/167 168/168/168
f 169/169/169 170/170/170 171/171/171
f 169/169/169 171/171/171 172/172/172
f 173/173/173 174/174/174 175/175/175
f 173/173/173 175/175/175 176/176/176
f 177/177/177 178/178/178 179/179/179
f 177/177/177 179/179/179 180/180/180
f 181/181/181 182/182/182 183/183/183
f 181/181/181 183/183/183 184/184/184
f 185/185/185 186/186/186 187/187/187
f 185/185/185 187/187/187 188/188/188
f 189/189/189 190/190/190 191/191/191
f 189/189/189 191/191/191 192/192/192
f 193/193/193 194/194/194 195/195/195
f 193/193/193 195/195/195 196/196/196
f 197/197/197 198/198/198 199/199/199
f 197/197/197 199/199/199 200/200/200
f 201/201/201 202/202/202 203/203/203
f 201/201/201 203/203/203 204/204/204
f 205/205/205 206/206/206 207/207/207
f 205/205/205 207/207/207 208/208/208
f 209/209/209 210/210/210 211/211/211
f 209/209/209 211/211/211 212/212/212
f 213/213/213 214/214/214 215/215/215
f 213/213/213 215/215/215 216/216/216
f 217/217/217 218/218/218 219/219/219
f 217/217/217 219/219/219 220/220/220
f 221/221/221 222/222/222 223/223/223
f 221/221/221 223/223/223 224/224/224
f 225/225/225 226/226/226 227/227/227
f 225/225/225 227/227/227 228/228/228
f 229/229/229 230/230/230 231/231/231
f 229/229/229 231/231/231 232/232/232
f 233/233/233 234/234/234 235/235/235
f 233/233/233 235/235/235 236/236/236
f 237/237/237 238/238/238 239/239/239
f 237/237/237 239/239/239 240/240/240
f 241/241/241 242/242/242 243/243/243
f 241/241/241 243/243/243 244/244/244
f 245/245/245 246/246/246 247/247/247
f 245/245/245 247/247/247 248/248/248
f 249/249/249 250/250/250 251/251/251
f 249/249/249 251/251/251 252/252/252
f 253/253/253 254/254/254 255/255/255
f 253/253/253 255/255/255 256/256/256
f 257/257/257 258/258/258 259/259/259
f 257/257/257 259/259/259 260/260/260
f 261/261/261 262/262/262 263/263/263
f 261/261/261 263/263/263 264/264/264
f 265/265/265 266/266/266 267/267/267
f 265/265/265 267/267/267 268/268/268
f 269/269/269 270/270/270 271/271/271
f 269/269/269 271/271/271 272/272/272
f 273/273/273 274/274/274 275/275/275
f 273/273/273 275/275/275 276/276/276
f 277/277/277 278/278/278 279/279/279
f 277/277/277 279/279/279 280/280/280
f 281/281/281 282/282/282 283/283/283
f 281/281/281 283/283/283 284/284/284
f 285/285/285 286/286/286 287/287/287
f 285/285/285 287/287/287 288/288/288
f 289/289/289 290/290/290 291/291/291
f 289/289/289 291/291/291 292/292/292
f 293/293/293 294/294/294 295/295/295
f 293/293/293 295/295/295 296/296/296
f 297/297/297 298/298/298 299/299/299
f 297/297/297 299/299/299 300/300/300
f 301/301/301 302/302/302 303/303/303
f 301/301/301 303/303/303 304/304/304
f 305/305/305 306/306/306 307/307/307
f 305/305/305 307/307/307 308/308/308
f 309/309/309 310/310/310 311/311/311
f 309/309/309 311/311/311 312/312/312
f 313/313/313 314/314/314 315/315/315
f 313/313/313 315/315/315 316/316/316
