v -0.726839 0.158039 0.074047
v -0.715135 0.124717 0.065778
v -0.764176 0.124717 0.065778
v -0.770001 0.1568 0.073739
v -0.726839 0.158039 0.074047
v -0.690401 0.159694 0.074458
v -0.683235 0.124717 0.065778
v -0.715135 0.124717 0.065778
v -0.690401 0.159694 0.074458
v -0.684116 0.160776 0.081216
v -0.67427 0.124598 0.069411
v -0.683235 0.124717 0.065778
v -0.684116 0.160776 0.081216
v -0.670556 0.12431 0.078184
v -0.67427 0.124598 0.069411
v -0.670556 0.12431 0.078184
v -0.684116 0.160776 0.081216
v -0.684369 0.170909 0.165341
v -0.670556 0.121038 0.177753
v -0.674212 0.120742 0.186754
v -0.670556 0.121038 0.177753
v -0.684369 0.170909 0.165341
v -0.683039 0.12062 0.190482
v -0.674212 0.120742 0.186754
v -0.684369 0.170909 0.165341
v -0.690386 0.171243 0.171305
v -0.690386 0.171243 0.171305
v -0.727113 0.168963 0.172168
v -0.715135 0.12062 0.190482
v -0.683039 0.12062 0.190482
v -0.687771 0.17313 0.163075
v -0.692127 0.173403 0.16764
v -0.690386 0.171243 0.171305
v -0.684369 0.170909 0.165341
v -0.727113 0.168963 0.172168
v -0.690386 0.171243 0.171305
v -0.692127 0.173403 0.16764
v -0.72775 0.171159 0.16847
v -0.72775 0.171159 0.16847
v -0.770465 0.169453 0.169101
v -0.770135 0.167275 0.172808
v -0.727113 0.168963 0.172168
v -0.770135 0.167275 0.172808
v -0.764176 0.12062 0.190482
v -0.715135 0.12062 0.190482
v -0.727113 0.168963 0.172168
v -0.770465 0.169453 0.169101
v -0.813217 0.168975 0.169274
v -0.813217 0.166805 0.172986
v -0.770135 0.167275 0.172808
v -0.813217 0.166805 0.172986
v -0.813217 0.12062 0.190482
v -0.764176 0.12062 0.190482
v -0.770135 0.167275 0.172808
v -0.813217 0.166805 0.172986
v -0.856298 0.167275 0.172808
v -0.862258 0.12062 0.190482
v -0.813217 0.12062 0.190482
v -0.856298 0.167275 0.172808
v -0.899321 0.168963 0.172168
v -0.911298 0.12062 0.190482
v -0.862258 0.12062 0.190482
v -0.936047 0.171243 0.171305
v -0.943395 0.12062 0.190482
v -0.911298 0.12062 0.190482
v -0.899321 0.168963 0.172168
v -0.936047 0.171243 0.171305
v -0.942064 0.170909 0.165341
v -0.952221 0.120742 0.186754
v -0.943395 0.12062 0.190482
v -0.938662 0.17313 0.163075
v -0.942064 0.170909 0.165341
v -0.936047 0.171243 0.171305
v -0.934306 0.173403 0.16764
v -0.899321 0.168963 0.172168
v -0.898684 0.171159 0.16847
v -0.934306 0.173403 0.16764
v -0.936047 0.171243 0.171305
v -0.938662 0.17313 0.163075
v -0.934306 0.173403 0.16764
v -0.929028 0.171731 0.157261
v -0.929028 0.171731 0.157261
v -0.934306 0.173403 0.16764
v -0.898684 0.171159 0.16847
v -0.898692 0.169296 0.155164
v -0.898684 0.171159 0.16847
v -0.899321 0.168963 0.172168
v -0.856298 0.167275 0.172808
v -0.855968 0.169453 0.169101
v -0.855975 0.16742 0.155676
v -0.898692 0.169296 0.155164
v -0.898684 0.171159 0.16847
v -0.855968 0.169453 0.169101
v -0.928888 0.163578 0.088837
v -0.929028 0.171731 0.157261
v -0.898692 0.169296 0.155164
v -0.898672 0.16207 0.090835
v -0.855958 0.160491 0.090709
v -0.898672 0.16207 0.090835
v -0.898692 0.169296 0.155164
v -0.855975 0.16742 0.155676
v -0.928888 0.163578 0.088837
v -0.898672 0.16207 0.090835
v -0.89866 0.160937 0.077447
v -0.934182 0.162613 0.07783
v -0.855948 0.159652 0.077156
v -0.89866 0.160937 0.077447
v -0.898672 0.16207 0.090835
v -0.855958 0.160491 0.090709
v -0.89866 0.160937 0.077447
v -0.899594 0.158039 0.074047
v -0.936032 0.159694 0.074458
v -0.934182 0.162613 0.07783
v -0.855948 0.159652 0.077156
v -0.856433 0.1568 0.073739
v -0.899594 0.158039 0.074047
v -0.89866 0.160937 0.077447
v -0.899594 0.158039 0.074047
v -0.856433 0.1568 0.073739
v -0.862258 0.124717 0.065778
v -0.911298 0.124717 0.065778
v -0.899594 0.158039 0.074047
v -0.911298 0.124717 0.065778
v -0.943198 0.124717 0.065778
v -0.936032 0.159694 0.074458
v -0.936032 0.159694 0.074458
v -0.943198 0.124717 0.065778
v -0.952164 0.124598 0.069411
v -0.942317 0.160776 0.081216
v -0.942317 0.160776 0.081216
v -0.952164 0.124598 0.069411
v -0.955877 0.12431 0.078184
v -0.955877 0.12431 0.078184
v -0.955877 0.121038 0.177753
v -0.942064 0.170909 0.165341
v -0.942317 0.160776 0.081216
v -0.942064 0.170909 0.165341
v -0.955877 0.121038 0.177753
v -0.952221 0.120742 0.186754
v -0.942064 0.170909 0.165341
v -0.938662 0.17313 0.163075
v -0.938655 0.163439 0.08303
v -0.942317 0.160776 0.081216
v -0.936032 0.159694 0.074458
v -0.942317 0.160776 0.081216
v -0.938655 0.163439 0.08303
v -0.934182 0.162613 0.07783
v -0.938655 0.163439 0.08303
v -0.928888 0.163578 0.088837
v -0.934182 0.162613 0.07783
v -0.938662 0.17313 0.163075
v -0.929028 0.171731 0.157261
v -0.928888 0.163578 0.088837
v -0.938655 0.163439 0.08303
v -0.856433 0.1568 0.073739
v -0.813217 0.156455 0.073654
v -0.813217 0.124717 0.065778
v -0.862258 0.124717 0.065778
v -0.770001 0.1568 0.073739
v -0.764176 0.124717 0.065778
v -0.813217 0.124717 0.065778
v -0.813217 0.156455 0.073654
v -0.813217 0.159292 0.077078
v -0.770485 0.159652 0.077156
v -0.770001 0.1568 0.073739
v -0.813217 0.156455 0.073654
v -0.813217 0.159292 0.077078
v -0.813217 0.156455 0.073654
v -0.856433 0.1568 0.073739
v -0.855948 0.159652 0.077156
v -0.813217 0.159292 0.077078
v -0.813217 0.16004 0.090677
v -0.770475 0.160491 0.090709
v -0.770485 0.159652 0.077156
v -0.813217 0.159292 0.077078
v -0.855948 0.159652 0.077156
v -0.855958 0.160491 0.090709
v -0.813217 0.16004 0.090677
v -0.770485 0.159652 0.077156
v -0.727774 0.160937 0.077447
v -0.726839 0.158039 0.074047
v -0.770001 0.1568 0.073739
v -0.770485 0.159652 0.077156
v -0.770475 0.160491 0.090709
v -0.727761 0.16207 0.090835
v -0.727774 0.160937 0.077447
v -0.727774 0.160937 0.077447
v -0.692252 0.162613 0.07783
v -0.690401 0.159694 0.074458
v -0.726839 0.158039 0.074047
v -0.697546 0.163578 0.088837
v -0.692252 0.162613 0.07783
v -0.727774 0.160937 0.077447
v -0.727761 0.16207 0.090835
v -0.692252 0.162613 0.07783
v -0.687778 0.163439 0.08303
v -0.684116 0.160776 0.081216
v -0.690401 0.159694 0.074458
v -0.687778 0.163439 0.08303
v -0.692252 0.162613 0.07783
v -0.697546 0.163578 0.088837
v -0.684369 0.170909 0.165341
v -0.684116 0.160776 0.081216
v -0.687778 0.163439 0.08303
v -0.687771 0.17313 0.163075
v -0.687771 0.17313 0.163075
v -0.687778 0.163439 0.08303
v -0.697546 0.163578 0.088837
v -0.697405 0.171731 0.157261
v -0.687771 0.17313 0.163075
v -0.697405 0.171731 0.157261
v -0.692127 0.173403 0.16764
v -0.697405 0.171731 0.157261
v -0.727741 0.169296 0.155164
v -0.72775 0.171159 0.16847
v -0.692127 0.173403 0.16764
v -0.697546 0.163578 0.088837
v -0.727761 0.16207 0.090835
v -0.727741 0.169296 0.155164
v -0.697405 0.171731 0.157261
v -0.770458 0.16742 0.155676
v -0.770465 0.169453 0.169101
v -0.72775 0.171159 0.16847
v -0.727741 0.169296 0.155164
v -0.770475 0.160491 0.090709
v -0.770458 0.16742 0.155676
v -0.727741 0.169296 0.155164
v -0.727761 0.16207 0.090835
v -0.813217 0.16004 0.090677
v -0.813217 0.166884 0.155816
v -0.770458 0.16742 0.155676
v -0.770475 0.160491 0.090709
v -0.813217 0.166884 0.155816
v -0.813217 0.168975 0.169274
v -0.770465 0.169453 0.169101
v -0.770458 0.16742 0.155676
v -0.813217 0.16004 0.090677
v -0.855958 0.160491 0.090709
v -0.855975 0.16742 0.155676
v -0.813217 0.166884 0.155816
v -0.813217 0.166884 0.155816
v -0.855975 0.16742 0.155676
v -0.855968 0.169453 0.169101
v -0.813217 0.168975 0.169274
v -0.855968 0.169453 0.169101
v -0.856298 0.167275 0.172808
v -0.813217 0.166805 0.172986
v -0.813217 0.168975 0.169274
v -0.715135 0.113455 0.065408
v -0.715135 0.124717 0.065778
v -0.683235 0.124717 0.065778
v -0.68322 0.113455 0.065407
v -0.715135 0.124717 0.065778
v -0.715135 0.113455 0.065408
v -0.764176 0.113455 0.065407
v -0.764176 0.124717 0.065778
v -0.683235 0.124717 0.065778
v -0.67427 0.124598 0.069411
v -0.674265 0.113336 0.06904
v -0.68322 0.113455 0.065407
v -0.67427 0.124598 0.069411
v -0.670556 0.12431 0.078184
v -0.670556 0.113048 0.077809
v -0.674265 0.113336 0.06904
v -0.670556 0.12431 0.078184
v -0.670556 0.121038 0.177753
v -0.670556 0.109775 0.1774
v -0.670556 0.113048 0.077809
v -0.67421 0.10948 0.186389
v -0.670556 0.109775 0.1774
v -0.670556 0.121038 0.177753
v -0.674212 0.120742 0.186754
v -0.683031 0.109358 0.190112
v -0.67421 0.10948 0.186389
v -0.674212 0.120742 0.186754
v -0.683039 0.12062 0.190482
v -0.683031 0.109358 0.190112
v -0.683039 0.12062 0.190482
v -0.715135 0.12062 0.190482
v -0.715135 0.109358 0.190112
v -0.764176 0.12062 0.190482
v -0.764176 0.109358 0.190112
v -0.715135 0.109358 0.190112
v -0.715135 0.12062 0.190482
v -0.813217 0.12062 0.190482
v -0.813217 0.109358 0.190112
v -0.764176 0.109358 0.190112
v -0.764176 0.12062 0.190482
v -0.813217 0.12062 0.190482
v -0.862258 0.12062 0.190482
v -0.862258 0.109358 0.190112
v -0.813217 0.109358 0.190112
v -0.862258 0.12062 0.190482
v -0.911298 0.12062 0.190482
v -0.911298 0.109358 0.190112
v -0.862258 0.109358 0.190112
v -0.943402 0.109358 0.190112
v -0.911298 0.109358 0.190112
v -0.911298 0.12062 0.190482
v -0.943395 0.12062 0.190482
v -0.943402 0.109358 0.190112
v -0.943395 0.12062 0.190482
v -0.952221 0.120742 0.186754
v -0.952223 0.10948 0.186389
v -0.952223 0.10948 0.186389
v -0.952221 0.120742 0.186754
v -0.955877 0.121038 0.177753
v -0.955877 0.109775 0.1774
v -0.955877 0.12431 0.078184
v -0.955877 0.113048 0.077809
v -0.955877 0.109775 0.1774
v -0.955877 0.121038 0.177753
v -0.952164 0.124598 0.069411
v -0.952168 0.113336 0.06904
v -0.955877 0.113048 0.077809
v -0.955877 0.12431 0.078184
v -0.943198 0.124717 0.065778
v -0.943213 0.113455 0.065408
v -0.952168 0.113336 0.06904
v -0.952164 0.124598 0.069411
v -0.911298 0.113455 0.065407
v -0.943213 0.113455 0.065408
v -0.943198 0.124717 0.065778
v -0.911298 0.124717 0.065778
v -0.911298 0.124717 0.065778
v -0.862258 0.124717 0.065778
v -0.862258 0.113455 0.065407
v -0.911298 0.113455 0.065407
v -0.862258 0.124717 0.065778
v -0.813217 0.124717 0.065778
v -0.813217 0.113455 0.065407
v -0.862258 0.113455 0.065407
v -0.764176 0.124717 0.065778
v -0.764176 0.113455 0.065407
v -0.813217 0.113455 0.065407
v -0.813217 0.124717 0.065778
vn -0 0.241 -0.9705
vn -0 0.2409 -0.9706
vn -0 0.2409 -0.9706
vn -0 0.241 -0.9705
vn -0 0.241 -0.9705
vn -0 0.2409 -0.9705
vn 0.0001 0.2409 -0.9705
vn -0 0.2409 -0.9706
vn -0 0.2409 -0.9705
vn 0.9535 0.3012 -0.01
vn 0.6635 0.348 -0.6623
vn 0.0001 0.2409 -0.9705
vn 0.9535 0.3012 -0.01
vn 0.9535 0.3013 -0.0101
vn 0.6635 0.348 -0.6623
vn 0.9535 0.3013 -0.0101
vn 0.9535 0.3012 -0.01
vn 0.9535 0.3012 -0.01
vn 0.9535 0.3013 -0.0098
vn 0.6561 0.3783 0.653
vn 0.9535 0.3013 -0.0098
vn 0.9535 0.3012 -0.01
vn 0.0001 0.3543 0.9351
vn 0.6561 0.3783 0.653
vn 0.9535 0.3012 -0.01
vn -0 0.3543 0.9351
vn -0 0.3543 0.9351
vn -0 0.3544 0.9351
vn -0 0.3543 0.9351
vn 0.0001 0.3543 0.9351
vn -0.0634 0.9906 -0.1215
vn -0.0669 0.99 -0.1242
vn -0 0.3543 0.9351
vn 0.9535 0.3012 -0.01
vn -0 0.3544 0.9351
vn -0 0.3543 0.9351
vn -0.0669 0.99 -0.1242
vn -0.0554 0.9894 -0.1344
vn -0.0554 0.9894 -0.1344
vn -0.0278 0.9892 -0.1439
vn -0 0.3543 0.9351
vn -0 0.3544 0.9351
vn -0 0.3543 0.9351
vn -0 0.3543 0.9351
vn -0 0.3543 0.9351
vn -0 0.3544 0.9351
vn -0.0278 0.9892 -0.1439
vn -0.0001 0.989 -0.1476
vn 0.0001 0.3543 0.9351
vn -0 0.3543 0.9351
vn 0.0001 0.3543 0.9351
vn -0 0.3543 0.9351
vn -0 0.3543 0.9351
vn -0 0.3543 0.9351
vn 0.0001 0.3543 0.9351
vn -0 0.3543 0.9351
vn -0 0.3543 0.9351
vn -0 0.3543 0.9351
vn -0 0.3543 0.9351
vn -0 0.3544 0.9351
vn -0 0.3543 0.9351
vn -0 0.3543 0.9351
vn -0 0.3543 0.9351
vn -0.0001 0.3543 0.9351
vn -0 0.3543 0.9351
vn -0 0.3544 0.9351
vn -0 0.3543 0.9351
vn -0.9535 0.3012 -0.01
vn -0.6561 0.3783 0.653
vn -0.0001 0.3543 0.9351
vn 0.0634 0.9906 -0.1215
vn -0.9535 0.3012 -0.01
vn -0 0.3543 0.9351
vn 0.0669 0.99 -0.1242
vn -0 0.3544 0.9351
vn 0.0553 0.9894 -0.1344
vn 0.0669 0.99 -0.1242
vn -0 0.3543 0.9351
vn 0.0634 0.9906 -0.1215
vn 0.0669 0.99 -0.1242
vn 0.0658 0.9902 -0.1231
vn 0.0658 0.9902 -0.1231
vn 0.0669 0.99 -0.1242
vn 0.0553 0.9894 -0.1344
vn 0.054 0.9907 -0.1248
vn 0.0553 0.9894 -0.1344
vn -0 0.3544 0.9351
vn -0 0.3543 0.9351
vn 0.0277 0.9892 -0.1439
vn 0.027 0.9915 -0.1275
vn 0.054 0.9907 -0.1248
vn 0.0553 0.9894 -0.1344
vn 0.0277 0.9892 -0.1439
vn 0.0587 0.9922 -0.1099
vn 0.0658 0.9902 -0.1231
vn 0.054 0.9907 -0.1248
vn 0.0473 0.994 -0.0985
vn 0.0237 0.996 -0.0863
vn 0.0473 0.994 -0.0985
vn 0.054 0.9907 -0.1248
vn 0.027 0.9915 -0.1275
vn 0.0587 0.9922 -0.1099
vn 0.0473 0.994 -0.0985
vn 0.0416 0.9952 -0.0886
vn 0.0505 0.9927 -0.1092
vn 0.0211 0.9973 -0.0697
vn 0.0416 0.9952 -0.0886
vn 0.0473 0.994 -0.0985
vn 0.0237 0.996 -0.0863
vn 0.0416 0.9952 -0.0886
vn -0 0.241 -0.9705
vn -0 0.2409 -0.9705
vn 0.0505 0.9927 -0.1092
vn 0.0211 0.9973 -0.0697
vn -0 0.241 -0.9705
vn -0 0.241 -0.9705
vn 0.0416 0.9952 -0.0886
vn -0 0.241 -0.9705
vn -0 0.241 -0.9705
vn -0 0.2409 -0.9706
vn -0 0.2409 -0.9706
vn -0 0.241 -0.9705
vn -0 0.2409 -0.9706
vn -0.0001 0.2409 -0.9706
vn -0 0.2409 -0.9705
vn -0 0.2409 -0.9705
vn -0.0001 0.2409 -0.9706
vn -0.6635 0.348 -0.6623
vn -0.9535 0.3013 -0.0099
vn -0.9535 0.3013 -0.0099
vn -0.6635 0.348 -0.6623
vn -0.9535 0.3013 -0.0101
vn -0.9535 0.3013 -0.0101
vn -0.9535 0.3013 -0.0098
vn -0.9535 0.3012 -0.01
vn -0.9535 0.3013 -0.0099
vn -0.9535 0.3012 -0.01
vn -0.9535 0.3013 -0.0098
vn -0.6561 0.3783 0.653
vn -0.9535 0.3012 -0.01
vn 0.0634 0.9906 -0.1215
vn 0.0534 0.9919 -0.1156
vn -0.9535 0.3013 -0.0099
vn -0 0.2409 -0.9705
vn -0.9535 0.3013 -0.0099
vn 0.0534 0.9919 -0.1156
vn 0.0505 0.9927 -0.1092
vn 0.0534 0.9919 -0.1156
vn 0.0587 0.9922 -0.1099
vn 0.0505 0.9927 -0.1092
vn 0.0634 0.9906 -0.1215
vn 0.0658 0.9902 -0.1231
vn 0.0587 0.9922 -0.1099
vn 0.0534 0.9919 -0.1156
vn -0 0.241 -0.9705
vn -0 0.2409 -0.9705
vn -0 0.2409 -0.9706
vn -0 0.2409 -0.9706
vn -0 0.241 -0.9705
vn -0 0.2409 -0.9706
vn -0 0.2409 -0.9706
vn -0 0.2409 -0.9705
vn -0 0.9981 -0.0624
vn -0.0212 0.9973 -0.0697
vn -0 0.241 -0.9705
vn -0 0.2409 -0.9705
vn -0 0.9981 -0.0624
vn -0 0.2409 -0.9705
vn -0 0.241 -0.9705
vn 0.0211 0.9973 -0.0697
vn -0 0.9981 -0.0624
vn -0 0.9966 -0.0818
vn -0.0237 0.996 -0.0863
vn -0.0212 0.9973 -0.0697
vn -0 0.9981 -0.0624
vn 0.0211 0.9973 -0.0697
vn 0.0237 0.996 -0.0863
vn -0 0.9966 -0.0818
vn -0.0212 0.9973 -0.0697
vn -0.0417 0.9952 -0.0886
vn -0 0.241 -0.9705
vn -0 0.241 -0.9705
vn -0.0212 0.9973 -0.0697
vn -0.0237 0.996 -0.0863
vn -0.0473 0.994 -0.0985
vn -0.0417 0.9952 -0.0886
vn -0.0417 0.9952 -0.0886
vn -0.0505 0.9927 -0.1092
vn -0 0.2409 -0.9705
vn -0 0.241 -0.9705
vn -0.0587 0.9922 -0.1099
vn -0.0505 0.9927 -0.1092
vn -0.0417 0.9952 -0.0886
vn -0.0473 0.994 -0.0985
vn -0.0505 0.9927 -0.1092
vn -0.0534 0.9919 -0.1156
vn 0.9535 0.3012 -0.01
vn -0 0.2409 -0.9705
vn -0.0534 0.9919 -0.1156
vn -0.0505 0.9927 -0.1092
vn -0.0587 0.9922 -0.1099
vn 0.9535 0.3012 -0.01
vn 0.9535 0.3012 -0.01
vn -0.0534 0.9919 -0.1156
vn -0.0634 0.9906 -0.1215
vn -0.0634 0.9906 -0.1215
vn -0.0534 0.9919 -0.1156
vn -0.0587 0.9922 -0.1099
vn -0.0658 0.9902 -0.1231
vn -0.0634 0.9906 -0.1215
vn -0.0658 0.9902 -0.1231
vn -0.0669 0.99 -0.1242
vn -0.0658 0.9902 -0.1231
vn -0.054 0.9907 -0.1248
vn -0.0554 0.9894 -0.1344
vn -0.0669 0.99 -0.1242
vn -0.0587 0.9922 -0.1099
vn -0.0473 0.994 -0.0985
vn -0.054 0.9907 -0.1248
vn -0.0658 0.9902 -0.1231
vn -0.027 0.9915 -0.1275
vn -0.0278 0.9892 -0.1439
vn -0.0554 0.9894 -0.1344
vn -0.054 0.9907 -0.1248
vn -0.0237 0.996 -0.0863
vn -0.027 0.9915 -0.1275
vn -0.054 0.9907 -0.1248
vn -0.0473 0.994 -0.0985
vn -0 0.9966 -0.0818
vn -0 0.9917 -0.1285
vn -0.027 0.9915 -0.1275
vn -0.0237 0.996 -0.0863
vn -0 0.9917 -0.1285
vn -0.0001 0.989 -0.1476
vn -0.0278 0.9892 -0.1439
vn -0.027 0.9915 -0.1275
vn -0 0.9966 -0.0818
vn 0.0237 0.996 -0.0863
vn 0.027 0.9915 -0.1275
vn -0 0.9917 -0.1285
vn -0 0.9917 -0.1285
vn 0.027 0.9915 -0.1275
vn 0.0277 0.9892 -0.1439
vn -0.0001 0.989 -0.1476
vn 0.0277 0.9892 -0.1439
vn -0 0.3543 0.9351
vn 0.0001 0.3543 0.9351
vn -0.0001 0.989 -0.1476
vn -0 0.0328 -0.9995
vn -0 0.0328 -0.9995
vn 0.0001 0.0329 -0.9995
vn 0.0001 0.033 -0.9995
vn -0 0.0328 -0.9995
vn -0 0.0328 -0.9995
vn -0 0.0328 -0.9995
vn -0 0.0328 -0.9995
vn 0.0001 0.0329 -0.9995
vn 0.6998 0.0238 -0.7139
vn 0.6997 0.0238 -0.714
vn 0.0001 0.033 -0.9995
vn 0.6998 0.0238 -0.7139
vn 1 0.0002 -0.0001
vn 1 -0.0001 -0.0001
vn 0.6997 0.0238 -0.714
vn 1 0.0002 -0.0001
vn 1 -0 0.0001
vn 1 0.0002 0.0001
vn 1 -0.0001 -0.0001
vn 0.714 -0.0225 0.6998
vn 1 0.0002 0.0001
vn 1 -0 0.0001
vn 0.7138 -0.0226 0.7
vn 0.0001 -0.0329 0.9995
vn 0.714 -0.0225 0.6998
vn 0.7138 -0.0226 0.7
vn 0.0001 -0.0326 0.9995
vn 0.0001 -0.0329 0.9995
vn 0.0001 -0.0326 0.9995
vn -0 -0.0328 0.9995
vn -0 -0.0328 0.9995
vn -0 -0.0328 0.9995
vn -0 -0.0328 0.9995
vn -0 -0.0328 0.9995
vn -0 -0.0328 0.9995
vn -0 -0.0328 0.9995
vn -0 -0.0328 0.9995
vn -0 -0.0328 0.9995
vn -0 -0.0328 0.9995
vn -0 -0.0328 0.9995
vn -0 -0.0328 0.9995
vn -0 -0.0328 0.9995
vn -0 -0.0328 0.9995
vn -0 -0.0328 0.9995
vn -0 -0.0328 0.9995
vn -0 -0.0328 0.9995
vn -0 -0.0328 0.9995
vn -0.0001 -0.0327 0.9995
vn -0 -0.0328 0.9995
vn -0 -0.0328 0.9995
vn -0.0001 -0.0329 0.9995
vn -0.0001 -0.0327 0.9995
vn -0.0001 -0.0329 0.9995
vn -0.7139 -0.0226 0.6999
vn -0.714 -0.0225 0.6998
vn -0.714 -0.0225 0.6998
vn -0.7139 -0.0226 0.6999
vn -1 0.0002 0.0001
vn -1 0.0001 0.0001
vn -1 -0 -0.0001
vn -1 0.0001 -0.0001
vn -1 0.0001 0.0001
vn -1 0.0002 0.0001
vn -0.6998 0.0238 -0.714
vn -0.6997 0.0238 -0.7141
vn -1 0.0001 -0.0001
vn -1 -0 -0.0001
vn -0.0001 0.033 -0.9995
vn -0.0001 0.0328 -0.9995
vn -0.6997 0.0238 -0.7141
vn -0.6998 0.0238 -0.714
vn -0 0.0328 -0.9995
vn -0.0001 0.0328 -0.9995
vn -0.0001 0.033 -0.9995
vn -0 0.0328 -0.9995
vn -0 0.0328 -0.9995
vn -0 0.0328 -0.9995
vn -0 0.0328 -0.9995
vn -0 0.0328 -0.9995
vn -0 0.0328 -0.9995
vn -0 0.0328 -0.9995
vn -0 0.0328 -0.9995
vn -0 0.0328 -0.9995
vn -0 0.0328 -0.9995
vn -0 0.0328 -0.9995
vn -0 0.0328 -0.9995
vn -0 0.0328 -0.9995
vt 0.113841 0.208814
vt 0.126443 0.201757
vt 0.100826 0.201757
vt 0.094537 0.208677
vt 0.113841 0.208814
vt 0.130137 0.208998
vt 0.142873 0.201721
vt 0.126443 0.201757
vt 0.130137 0.208998
vt 0.132948 0.21202
vt 0.147104 0.203342
vt 0.142873 0.201721
vt 0.132948 0.21202
vt 0.148808 0.207476
vt 0.147104 0.203342
vt 0.148808 0.207476
vt 0.132948 0.21202
vt 0.132835 0.249645
vt 0.148808 0.259108
vt 0.147137 0.263363
vt 0.148808 0.259108
vt 0.132835 0.249645
vt 0.14298 0.265043
vt 0.147137 0.263363
vt 0.132835 0.249645
vt 0.130144 0.252312
vt 0.130144 0.252312
vt 0.113719 0.252698
vt 0.126443 0.265012
vt 0.14298 0.265043
vt 0.131313 0.248631
vt 0.129366 0.250672
vt 0.130144 0.252312
vt 0.132835 0.249645
vt 0.113719 0.252698
vt 0.130144 0.252312
vt 0.129366 0.250672
vt 0.113434 0.251044
vt 0.113434 0.251044
vt 0.09433 0.251326
vt 0.094477 0.252984
vt 0.113719 0.252698
vt 0.094477 0.252984
vt 0.100826 0.265012
vt 0.126443 0.265012
vt 0.113719 0.252698
vt 0.09433 0.251326
vt 0.07521 0.251403
vt 0.07521 0.253064
vt 0.094477 0.252984
vt 0.07521 0.253064
vt 0.07521 0.265012
vt 0.100826 0.265012
vt 0.094477 0.252984
vt 0.07521 0.253064
vt 0.055942 0.252984
vt 0.049593 0.265012
vt 0.07521 0.265012
vt 0.055942 0.252984
vt 0.036701 0.252698
vt 0.023976 0.265012
vt 0.049593 0.265012
vt 0.020275 0.252312
vt 0.007439 0.265043
vt 0.023976 0.265012
vt 0.036701 0.252698
vt 0.020275 0.252312
vt 0.017584 0.249645
vt 0.003283 0.263363
vt 0.007439 0.265043
vt 0.019106 0.248631
vt 0.017584 0.249645
vt 0.020275 0.252312
vt 0.021054 0.250672
vt 0.036701 0.252698
vt 0.036985 0.251044
vt 0.021054 0.250672
vt 0.020275 0.252312
vt 0.019106 0.248631
vt 0.021054 0.250672
vt 0.023414 0.246031
vt 0.023414 0.246031
vt 0.021054 0.250672
vt 0.036985 0.251044
vt 0.036982 0.245093
vt 0.036985 0.251044
vt 0.036701 0.252698
vt 0.055942 0.252984
vt 0.056089 0.251326
vt 0.056086 0.245322
vt 0.036982 0.245093
vt 0.036985 0.251044
vt 0.056089 0.251326
vt 0.023477 0.215429
vt 0.023414 0.246031
vt 0.036982 0.245093
vt 0.03699 0.216323
vt 0.056094 0.216266
vt 0.03699 0.216323
vt 0.036982 0.245093
vt 0.056086 0.245322
vt 0.023477 0.215429
vt 0.03699 0.216323
vt 0.036996 0.210335
vt 0.021109 0.210506
vt 0.056098 0.210205
vt 0.036996 0.210335
vt 0.03699 0.216323
vt 0.056094 0.216266
vt 0.036996 0.210335
vt 0.036578 0.208814
vt 0.020282 0.208998
vt 0.021109 0.210506
vt 0.056098 0.210205
vt 0.055882 0.208677
vt 0.036578 0.208814
vt 0.036996 0.210335
vt 0.036578 0.208814
vt 0.055882 0.208677
vt 0.049593 0.201757
vt 0.023976 0.201757
vt 0.036578 0.208814
vt 0.023976 0.201757
vt 0.007546 0.201721
vt 0.020282 0.208998
vt 0.020282 0.208998
vt 0.007546 0.201721
vt 0.003315 0.203342
vt 0.017471 0.21202
vt 0.017471 0.21202
vt 0.003315 0.203342
vt 0.001611 0.207476
vt 0.001611 0.207476
vt 0.001611 0.259108
vt 0.017584 0.249645
vt 0.017471 0.21202
vt 0.017584 0.249645
vt 0.001611 0.259108
vt 0.003283 0.263363
vt 0.017584 0.249645
vt 0.019106 0.248631
vt 0.019109 0.212832
vt 0.017471 0.21202
vt 0.020282 0.208998
vt 0.017471 0.21202
vt 0.019109 0.212832
vt 0.021109 0.210506
vt 0.019109 0.212832
vt 0.023477 0.215429
vt 0.021109 0.210506
vt 0.019106 0.248631
vt 0.023414 0.246031
vt 0.023477 0.215429
vt 0.019109 0.212832
vt 0.055882 0.208677
vt 0.07521 0.208638
vt 0.07521 0.201757
vt 0.049593 0.201757
vt 0.094537 0.208677
vt 0.100826 0.201757
vt 0.07521 0.201757
vt 0.07521 0.208638
vt 0.07521 0.21017
vt 0.094321 0.210205
vt 0.094537 0.208677
vt 0.07521 0.208638
vt 0.07521 0.21017
vt 0.07521 0.208638
vt 0.055882 0.208677
vt 0.056098 0.210205
vt 0.07521 0.21017
vt 0.07521 0.216252
vt 0.094325 0.216266
vt 0.094321 0.210205
vt 0.07521 0.21017
vt 0.056098 0.210205
vt 0.056094 0.216266
vt 0.07521 0.216252
vt 0.094321 0.210205
vt 0.113423 0.210335
vt 0.113841 0.208814
vt 0.094537 0.208677
vt 0.094321 0.210205
vt 0.094325 0.216266
vt 0.113429 0.216323
vt 0.113423 0.210335
vt 0.113423 0.210335
vt 0.12931 0.210506
vt 0.130137 0.208998
vt 0.113841 0.208814
vt 0.126942 0.215429
vt 0.12931 0.210506
vt 0.113423 0.210335
vt 0.113429 0.216323
vt 0.12931 0.210506
vt 0.13131 0.212832
vt 0.132948 0.21202
vt 0.130137 0.208998
vt 0.13131 0.212832
vt 0.12931 0.210506
vt 0.126942 0.215429
vt 0.132835 0.249645
vt 0.132948 0.21202
vt 0.13131 0.212832
vt 0.131313 0.248631
vt 0.131313 0.248631
vt 0.13131 0.212832
vt 0.126942 0.215429
vt 0.127005 0.246031
vt 0.131313 0.248631
vt 0.127005 0.246031
vt 0.129366 0.250672
vt 0.127005 0.246031
vt 0.113437 0.245093
vt 0.113434 0.251044
vt 0.129366 0.250672
vt 0.126942 0.215429
vt 0.113429 0.216323
vt 0.113437 0.245093
vt 0.127005 0.246031
vt 0.094333 0.245322
vt 0.09433 0.251326
vt 0.113434 0.251044
vt 0.113437 0.245093
vt 0.094325 0.216266
vt 0.094333 0.245322
vt 0.113437 0.245093
vt 0.113429 0.216323
vt 0.07521 0.216252
vt 0.07521 0.245385
vt 0.094333 0.245322
vt 0.094325 0.216266
vt 0.07521 0.245385
vt 0.07521 0.251403
vt 0.09433 0.251326
vt 0.094333 0.245322
vt 0.07521 0.216252
vt 0.056094 0.216266
vt 0.056086 0.245322
vt 0.07521 0.245385
vt 0.07521 0.245385
vt 0.056086 0.245322
vt 0.056089 0.251326
vt 0.07521 0.251403
vt 0.056089 0.251326
vt 0.055942 0.252984
vt 0.07521 0.253064
vt 0.07521 0.251403
vt 0.126443 0.199916
vt 0.126443 0.201757
vt 0.142873 0.201721
vt 0.143249 0.199929
vt 0.126443 0.201757
vt 0.126443 0.199916
vt 0.100826 0.199916
vt 0.100826 0.201757
vt 0.142873 0.201721
vt 0.147104 0.203342
vt 0.148285 0.202016
vt 0.143249 0.199929
vt 0.147104 0.203342
vt 0.148808 0.207476
vt 0.150418 0.206957
vt 0.148285 0.202016
vt 0.148808 0.207476
vt 0.148808 0.259108
vt 0.150419 0.259253
vt 0.150418 0.206957
vt 0.148321 0.264307
vt 0.150419 0.259253
vt 0.148808 0.259108
vt 0.147137 0.263363
vt 0.143352 0.266447
vt 0.148321 0.264307
vt 0.147137 0.263363
vt 0.14298 0.265043
vt 0.143352 0.266447
vt 0.14298 0.265043
vt 0.126443 0.265012
vt 0.126443 0.266461
vt 0.100826 0.265012
vt 0.100826 0.266461
vt 0.126443 0.266461
vt 0.126443 0.265012
vt 0.07521 0.265012
vt 0.07521 0.266461
vt 0.100826 0.266461
vt 0.100826 0.265012
vt 0.07521 0.265012
vt 0.049593 0.265012
vt 0.049593 0.266461
vt 0.07521 0.266461
vt 0.049593 0.265012
vt 0.023976 0.265012
vt 0.023976 0.266461
vt 0.049593 0.266461
vt 0.007067 0.266447
vt 0.023976 0.266461
vt 0.023976 0.265012
vt 0.007439 0.265043
vt 0.007067 0.266447
vt 0.007439 0.265043
vt 0.003283 0.263363
vt 0.002098 0.264307
vt 0.002098 0.264307
vt 0.003283 0.263363
vt 0.001611 0.259108
vt 0 0.259253
vt 0.001611 0.207476
vt 1e-06 0.206957
vt 0 0.259253
vt 0.001611 0.259108
vt 0.003315 0.203342
vt 0.002134 0.202016
vt 1e-06 0.206957
vt 0.001611 0.207476
vt 0.007546 0.201721
vt 0.00717 0.199929
vt 0.002134 0.202016
vt 0.003315 0.203342
vt 0.023976 0.199916
vt 0.00717 0.199929
vt 0.007546 0.201721
vt 0.023976 0.201757
vt 0.023976 0.201757
vt 0.049593 0.201757
vt 0.049593 0.199916
vt 0.023976 0.199916
vt 0.049593 0.201757
vt 0.07521 0.201757
vt 0.07521 0.199916
vt 0.049593 0.199916
vt 0.100826 0.201757
vt 0.100826 0.199916
vt 0.07521 0.199916
vt 0.07521 0.201757
s off
f 1/1/1 2/2/2 3/3/3
f 1/1/1 3/3/3 4/4/4
f 5/5/5 6/6/6 7/7/7
f 5/5/5 7/7/7 8/8/8
f 9/9/9 10/10/10 11/11/11
f 9/9/9 11/11/11 12/12/12
f 13/13/13 14/14/14 15/15/15
f 16/16/16 17/17/17 18/18/18
f 16/16/16 18/18/18 19/19/19
f 20/20/20 21/21/21 22/22/22
f 23/23/23 24/24/24 25/25/25
f 23/23/23 25/25/25 26/26/26
f 27/27/27 28/28/28 29/29/29
f 27/27/27 29/29/29 30/30/30
f 31/31/31 32/32/32 33/33/33
f 31/31/31 33/33/33 34/34/34
f 35/35/35 36/36/36 37/37/37
f 35/35/35 37/37/37 38/38/38
f 39/39/39 40/40/40 41/41/41
f 39/39/39 41/41/41 42/42/42
f 43/43/43 44/44/44 45/45/45
f 43/43/43 45/45/45 46/46/46
f 47/47/47 48/48/48 49/49/49
f 47/47/47 49/49/49 50/50/50
f 51/51/51 52/52/52 53/53/53
f 51/51/51 53/53/53 54/54/54
f 55/55/55 56/56/56 57/57/57
f 55/55/55 57/57/57 58/58/58
f 59/59/59 60/60/60 61/61/61
f 59/59/59 61/61/61 62/62/62
f 63/63/63 64/64/64 65/65/65
f 63/63/63 65/65/65 66/66/66
f 67/67/67 68/68/68 69/69/69
f 67/67/67 69/69/69 70/70/70
f 71/71/71 72/72/72 73/73/73
f 71/71/71 73/73/73 74/74/74
f 75/75/75 76/76/76 77/77/77
f 75/75/75 77/77/77 78/78/78
f 79/79/79 80/80/80 81/81/81
f 82/82/82 83/83/83 84/84/84
f 82/82/82 84/84/84 85/85/85
f 86/86/86 87/87/87 88/88/88
f 86/86/86 88/88/88 89/89/89
f 90/90/90 91/91/91 92/92/92
f 90/90/90 92/92/92 93/93/93
f 94/94/94 95/95/95 96/96/96
f 94/94/94 96/96/96 97/97/97
f 98/98/98 99/99/99 100/100/100
f 98/98/98 100/100/100 101/101/101
f 102/102/102 103/103/103 104/104/104
f 102/102/102 104/104/104 105/105/105
f 106/106/106 107/107/107 108/108/108
f 106/106/106 108/108/108 109/109/109
f 110/110/110 111/111/111 112/112/112
f 110/110/110 112/112/112 113/113/113
f 114/114/114 115/115/115 116/116/116
f 114/114/114 116/116/116 117/117/117
f 118/118/118 119/119/119 120/120/120
f 118/118/118 120/120/120 121/121/121
f 122/122/122 123/123/123 124/124/124
f 122/122/122 124/124/124 125/125/125
f 126/126/126 127/127/127 128/128/128
f 126/126/126 128/128/128 129/129/129
f 130/130/130 131/131/131 132/132/132
f 133/133/133 134/134/134 135/135/135
f 133/133/133 135/135/135 136/136/136
f 137/137/137 138/138/138 139/139/139
f 140/140/140 141/141/141 142/142/142
f 140/140/140 142/142/142 143/143/143
f 144/144/144 145/145/145 146/146/146
f 144/144/144 146/146/146 147/147/147
f 148/148/148 149/149/149 150/150/150
f 151/151/151 152/152/152 153/153/153
f 151/151/151 153/153/153 154/154/154
f 155/155/155 156/156/156 157/157/157
f 155/155/155 157/157/157 158/158/158
f 159/159/159 160/160/160 161/161/161
f 159/159/159 161/161/161 162/162/162
f 163/163/163 164/164/164 165/165/165
f 163/163/163 165/165/165 166/166/166
f 167/167/167 168/168/168 169/169/169
f 167/167/167 169/169/169 170/170/170
f 171/171/171 172/172/172 173/173/173
f 171/171/171 173/173/173 174/174/174
f 175/175/175 176/176/176 177/177/177
f 175/175/175 177/177/177 178/178/178
f 179/179/179 180/180/180 181/181/181
f 179/179/179 181/181/181 182/182/182
f 183/183/183 184/184/184 185/185/185
f 183/183/183 185/185/185 186/186/186
f 187/187/187 188/188/188 189/189/189
f 187/187/187 189/189/189 190/190/190
f 191/191/191 192/192/192 193/193/193
f 191/191/191 193/193/193 194/194/194
f 195/195/195 196/196/196 197/197/197
f 195/195/195 197/197/197 198/198/198
f 199/199/199 200/200/200 201/201/201
f 202/202/202 203/203/203 204/204/204
f 202/202/202 204/204/204 205/205/205
f 206/206/206 207/207/207 208/208/208
f 206/206/206 208/208/208 209/209/209
f 210/210/210 211/211/211 212/212/212
f 213/213/213 214/214/214 215/215/215
f 213/213/213 215/215/215 216/216/216
f 217/217/217 218/218/218 219/219/219
f 217/217/217 219/219/219 220/220/220
f 221/221/221 222/222/222 223/223/223
f 221/221/221 223/223/223 224/224/224
f 225/225/225 226/226/226 227/227/227
f 225/225/225 227/227/227 228/228/228
f 229/229/229 230/230/230 231/231/231
f 229/229/229 231/231/231 232/232/232
f 233/233/233 234/234/234 235/235/235
f 233/233/233 235/235/235 236/236/236
f 237/237/237 238/238/238 239/239/239
f 237/237/237 239/239/239 240/240/240
f 241/241/241 242/242/242 243/243/243
f 241/241/241 243/243/243 244/244/244
f 245/245/245 246/246/246 247/247/247
f 245/245/245 247/247/247 248/248/248
f 249/249/249 250/250/250 251/251/251
f 249/249/249 251/251/251 252/252/252
f 253/253/253 254/254/254 255/255/255
f 253/253/253 255/255/255 256/256/256
f 257/257/257 258/258/258 259/259/259
f 257/257/257 259/259/259 260/260/260
f 261/261/261 262/262/262 263/263/263
f 261/261/261 263/263/263 264/264/264
f 265/265/265 266/266/266 267/267/267
f 265/265/265 267/267/267 268/268/268
f 269/269/269 270/270/270 271/271/271
f 269/269/269 271/271/271 272/272/272
f 273/273/273 274/274/274 275/275/275
f 273/273/273 275/275/275 276/276/276
f 277/277/277 278/278/278 279/279/279
f 277/277/277 279/279/279 280/280/280
f 281/281/281 282/282/282 283/283/283
f 281/281/281 283/283/283 284/284/284
f 285/285/285 286/286/286 287/287/287
f 285/285/285 287/287/287 288/288/288
f 289/289/289 290/290/290 291/291/291
f 289/289/289 291/291/291 292/292/292
f 293/293/293 294/294/294 295/295/295
f 293/293/293 295/295/295 296/296/296
f 297/297/297 298/298/298 299/299/299
f 297/297/297 299/299/299 300/300/300
f 301/301/301 302/302/302 303/303/303
f 301/301/301 303/303/303 304/304/304
f 305/305/305 306/306/306 307/307/307
f 305/305/305 307/307/307 308/308/308
f 309/309/309 310/310/310 311/311/311
f 309/309/309 311/311/311 312/312/312
f 313/313/313 314/314/314 315/315/315
f 313/313/313 315/315/315 316/316/316
f 317/317/317 318/318/318 319/319/319
f 317/317/317 319/319/319 320/320/320
f 321/321/321 322/322/322 323/323/323
f 321/321/321 323/323/323 324/324/324
f 325/325/325 326/326/326 327/327/327
f 325/325/325 327/327/327 328/328/328
f 329/329/329 330/330/330 331/331/331
f 329/329/329 331/331/331 332/332/332
f 333/333/333 334/334/334 335/335/335
f 333/333/333 335/335/335 336/336/336
