v 0.641894 0.164528 0.097402
v 0.638201 0.164857 0.098717
v 0.640856 0.164883 0.099929
v 0.66945 0.163612 0.100366
v 0.66945 0.164605 0.109192
v 0.672262 0.164439 0.109192
v 0.655234 0.165346 0.109192
v 0.658046 0.164145 0.100366
v 0.655234 0.162938 0.089352
v 0.66945 0.162285 0.089352
v 0.66945 0.163318 0.097866
v 0.672262 0.164439 0.109192
v 0.699835 0.16259 0.101147
v 0.699835 0.162331 0.098725
v 0.689915 0.162873 0.101147
v 0.639458 0.16573 0.106385
v 0.637947 0.166039 0.108363
v 0.641989 0.165994 0.109518
v 0.64044 0.16362 0.089365
v 0.641097 0.163884 0.091792
v 0.644614 0.16368 0.091445
v 0.644763 0.163382 0.089046
v 0.644614 0.16368 0.091445
v 0.647875 0.163309 0.089621
v 0.639562 0.164472 0.096055
v 0.636677 0.164702 0.09686
v 0.638201 0.164857 0.098717
v 0.648197 0.165179 0.105151
v 0.651185 0.164919 0.104142
v 0.64832 0.164963 0.103424
v 0.65032 0.163342 0.090819
v 0.647419 0.163628 0.092076
v 0.649381 0.16366 0.093084
v 0.702335 0.161274 0.089352
v 0.70913 0.161323 0.091773
v 0.711942 0.161242 0.091773
v 0.639155 0.164208 0.093727
v 0.636301 0.164328 0.093636
v 0.639562 0.164472 0.096055
v 0.639458 0.16573 0.106385
v 0.635848 0.165975 0.107038
v 0.637947 0.166039 0.108363
v 0.648197 0.165179 0.105151
v 0.650525 0.165209 0.106282
v 0.651185 0.164919 0.104142
v 0.689915 0.162873 0.101147
v 0.687025 0.16384 0.109192
v 0.689915 0.163737 0.109192
v 0.658046 0.164145 0.100366
v 0.655234 0.165346 0.109192
v 0.658046 0.165216 0.109192
v 0.681089 0.161885 0.089352
v 0.678277 0.161966 0.089352
v 0.681089 0.164051 0.109192
v 0.687025 0.161715 0.089352
v 0.689915 0.162614 0.098725
v 0.689915 0.16187 0.091773
v 0.711942 0.163106 0.109192
v 0.70913 0.161323 0.091773
v 0.70913 0.163186 0.109192
v 0.702335 0.161274 0.089352
v 0.702335 0.161516 0.091773
v 0.70913 0.161323 0.091773
v 0.711942 0.161242 0.091773
v 0.718738 0.161049 0.091773
v 0.702335 0.161274 0.089352
v 0.718738 0.161049 0.091773
v 0.718738 0.160802 0.089352
v 0.702335 0.161274 0.089352
v 0.687025 0.161715 0.089352
v 0.689915 0.162873 0.101147
v 0.689915 0.162614 0.098725
v 0.647632 0.16486 0.102315
v 0.647496 0.164457 0.098936
v 0.645183 0.164822 0.101066
v 0.645183 0.164822 0.101066
v 0.647496 0.164457 0.098936
v 0.641894 0.164528 0.097402
v 0.689915 0.16187 0.091773
v 0.701085 0.16131 0.089352
v 0.687025 0.161715 0.089352
v 0.645183 0.164822 0.101066
v 0.641894 0.164528 0.097402
v 0.640856 0.164883 0.099929
v 0.64832 0.164963 0.103424
v 0.651185 0.164919 0.104142
v 0.65085 0.164628 0.101618
v 0.639562 0.164472 0.096055
v 0.636301 0.164328 0.093636
v 0.636677 0.164702 0.09686
v 0.635848 0.165975 0.107038
v 0.639458 0.16573 0.106385
v 0.636874 0.165662 0.104842
v 0.641097 0.163884 0.091792
v 0.637701 0.163957 0.091105
v 0.639155 0.164208 0.093727
v 0.648748 0.165517 0.108151
v 0.646358 0.165455 0.106734
v 0.646096 0.165768 0.109215
v 0.66945 0.163318 0.097866
v 0.66945 0.163612 0.100366
v 0.672262 0.164439 0.109192
v 0.655234 0.162938 0.089352
v 0.658046 0.163842 0.097866
v 0.658046 0.162809 0.089352
v 0.647632 0.16486 0.102315
v 0.65085 0.164628 0.101618
v 0.649538 0.164496 0.100031
v 0.648197 0.165179 0.105151
v 0.648748 0.165517 0.108151
v 0.650525 0.165209 0.106282
v 0.641894 0.164528 0.097402
v 0.639562 0.164472 0.096055
v 0.638201 0.164857 0.098717
v 0.701085 0.16131 0.089352
v 0.689915 0.16187 0.091773
v 0.701085 0.161552 0.091773
v 0.648197 0.165179 0.105151
v 0.646358 0.165455 0.106734
v 0.648748 0.165517 0.108151
v 0.655234 0.162938 0.089352
v 0.658046 0.164145 0.100366
v 0.658046 0.163842 0.097866
v 0.66945 0.162285 0.089352
v 0.672262 0.164439 0.109192
v 0.672262 0.162172 0.089352
v 0.681089 0.164051 0.109192
v 0.678277 0.161966 0.089352
v 0.678277 0.16415 0.109192
v 0.689915 0.162873 0.101147
v 0.699835 0.162331 0.098725
v 0.689915 0.162614 0.098725
v 0.711942 0.163106 0.109192
v 0.711942 0.161242 0.091773
v 0.70913 0.161323 0.091773
v 0.647419 0.163628 0.092076
v 0.65032 0.163342 0.090819
v 0.647875 0.163309 0.089621
v 0.66945 0.163612 0.100366
v 0.66945 0.163318 0.097866
v 0.658046 0.163842 0.097866
v 0.658046 0.164145 0.100366
v 0.646096 0.165768 0.109215
v 0.646358 0.165455 0.106734
v 0.642769 0.165665 0.107102
v 0.641989 0.165994 0.109518
v 0.637701 0.163957 0.091105
v 0.636301 0.164328 0.093636
v 0.639155 0.164208 0.093727
v 0.641097 0.163884 0.091792
v 0.64044 0.16362 0.089365
v 0.637701 0.163957 0.091105
v 0.647632 0.16486 0.102315
v 0.649538 0.164496 0.100031
v 0.647496 0.164457 0.098936
v 0.689915 0.162873 0.101147
v 0.687025 0.161715 0.089352
v 0.687025 0.16384 0.109192
v 0.647632 0.16486 0.102315
v 0.64832 0.164963 0.103424
v 0.65085 0.164628 0.101618
v 0.647875 0.163309 0.089621
v 0.644614 0.16368 0.091445
v 0.647419 0.163628 0.092076
v 0.642769 0.165665 0.107102
v 0.639458 0.16573 0.106385
v 0.641989 0.165994 0.109518
v 0.644614 0.16368 0.091445
v 0.644763 0.163382 0.089046
v 0.64044 0.16362 0.089365
vn 0.0455 0.9917 -0.1204
vn 0.0455 0.9917 -0.1204
vn 0.0455 0.9917 -0.1204
vn 0.0585 0.992 -0.1116
vn 0.0585 0.992 -0.1116
vn 0.0585 0.992 -0.1116
vn 0.0456 0.9917 -0.1203
vn 0.0456 0.9917 -0.1203
vn 0.0456 0.9917 -0.1203
vn 0.0887 0.9888 -0.1199
vn 0.0887 0.9888 -0.1199
vn 0.0887 0.9888 -0.1199
vn 0.0283 0.9939 -0.1063
vn 0.0283 0.9939 -0.1063
vn 0.0283 0.9939 -0.1063
vn 0.0456 0.9917 -0.1203
vn 0.0456 0.9917 -0.1203
vn 0.0456 0.9917 -0.1203
vn 0.0455 0.9917 -0.1203
vn 0.0455 0.9917 -0.1203
vn 0.0455 0.9917 -0.1203
vn 0.0456 0.9917 -0.1204
vn 0.0456 0.9917 -0.1204
vn 0.0456 0.9917 -0.1204
vn 0.0456 0.9917 -0.1203
vn 0.0456 0.9917 -0.1203
vn 0.0456 0.9917 -0.1203
vn 0.0456 0.9917 -0.1203
vn 0.0456 0.9917 -0.1203
vn 0.0456 0.9917 -0.1203
vn 0.0456 0.9917 -0.1203
vn 0.0456 0.9917 -0.1203
vn 0.0456 0.9917 -0.1203
vn 0.0283 0.9946 -0.0995
vn 0.0283 0.9946 -0.0995
vn 0.0283 0.9946 -0.0995
vn 0.0456 0.9917 -0.1203
vn 0.0456 0.9917 -0.1203
vn 0.0456 0.9917 -0.1203
vn 0.0456 0.9917 -0.1203
vn 0.0456 0.9917 -0.1203
vn 0.0456 0.9917 -0.1203
vn 0.0456 0.9917 -0.1203
vn 0.0456 0.9917 -0.1203
vn 0.0456 0.9917 -0.1203
vn 0.0353 0.9937 -0.1068
vn 0.0353 0.9937 -0.1068
vn 0.0353 0.9937 -0.1068
vn 0.0456 0.9917 -0.1203
vn 0.0456 0.9917 -0.1203
vn 0.0456 0.9917 -0.1203
vn 0.0286 0.9937 -0.1084
vn 0.0286 0.9937 -0.1084
vn 0.0286 0.9937 -0.1084
vn 0.0355 0.9937 -0.1063
vn 0.0355 0.9937 -0.1063
vn 0.0355 0.9937 -0.1063
vn 0.0283 0.9939 -0.1063
vn 0.0283 0.9939 -0.1063
vn 0.0283 0.9939 -0.1063
vn 0.0284 0.9946 -0.0996
vn 0.0284 0.9946 -0.0996
vn 0.0284 0.9946 -0.0996
vn 0.0284 0.9946 -0.0996
vn 0.0284 0.9946 -0.0996
vn 0.0284 0.9946 -0.0996
vn 0.0286 0.9944 -0.1013
vn 0.0286 0.9944 -0.1013
vn 0.0286 0.9944 -0.1013
vn 0.0355 0.9937 -0.1063
vn 0.0355 0.9937 -0.1063
vn 0.0355 0.9937 -0.1063
vn 0.0455 0.9917 -0.1203
vn 0.0455 0.9917 -0.1203
vn 0.0455 0.9917 -0.1203
vn 0.0456 0.9917 -0.1203
vn 0.0456 0.9917 -0.1203
vn 0.0456 0.9917 -0.1203
vn 0.0286 0.9948 -0.0982
vn 0.0286 0.9948 -0.0982
vn 0.0286 0.9948 -0.0982
vn 0.0456 0.9917 -0.1203
vn 0.0456 0.9917 -0.1203
vn 0.0456 0.9917 -0.1203
vn 0.0456 0.9917 -0.1204
vn 0.0456 0.9917 -0.1204
vn 0.0456 0.9917 -0.1204
vn 0.0456 0.9917 -0.1203
vn 0.0456 0.9917 -0.1203
vn 0.0456 0.9917 -0.1203
vn 0.0456 0.9917 -0.1203
vn 0.0456 0.9917 -0.1203
vn 0.0456 0.9917 -0.1203
vn 0.0456 0.9917 -0.1204
vn 0.0456 0.9917 -0.1204
vn 0.0456 0.9917 -0.1204
vn 0.0456 0.9917 -0.1204
vn 0.0456 0.9917 -0.1204
vn 0.0456 0.9917 -0.1204
vn 0.0746 0.9904 -0.1166
vn 0.0746 0.9904 -0.1166
vn 0.0746 0.9904 -0.1166
vn 0.0456 0.9917 -0.1203
vn 0.0456 0.9917 -0.1203
vn 0.0456 0.9917 -0.1203
vn 0.0456 0.9917 -0.1203
vn 0.0456 0.9917 -0.1203
vn 0.0456 0.9917 -0.1203
vn 0.0456 0.9917 -0.1203
vn 0.0456 0.9917 -0.1203
vn 0.0456 0.9917 -0.1203
vn 0.0456 0.9917 -0.1203
vn 0.0456 0.9917 -0.1203
vn 0.0456 0.9917 -0.1203
vn 0.0284 0.9946 -0.0994
vn 0.0284 0.9946 -0.0994
vn 0.0284 0.9946 -0.0994
vn 0.0456 0.9917 -0.1203
vn 0.0456 0.9917 -0.1203
vn 0.0456 0.9917 -0.1203
vn 0.0456 0.9917 -0.1203
vn 0.0456 0.9917 -0.1203
vn 0.0456 0.9917 -0.1203
vn 0.0399 0.9927 -0.1134
vn 0.0399 0.9927 -0.1134
vn 0.0399 0.9927 -0.1134
vn 0.0352 0.9934 -0.1093
vn 0.0352 0.9934 -0.1093
vn 0.0352 0.9934 -0.1093
vn 0.0283 0.9939 -0.1063
vn 0.0283 0.9939 -0.1063
vn 0.0283 0.9939 -0.1063
vn 0.0283 0.9939 -0.1063
vn 0.0283 0.9939 -0.1063
vn 0.0283 0.9939 -0.1063
vn 0.0456 0.9917 -0.1204
vn 0.0456 0.9917 -0.1204
vn 0.0456 0.9917 -0.1204
vn 0.046 0.9919 -0.1185
vn 0.046 0.9919 -0.1185
vn 0.046 0.9919 -0.1185
vn 0.046 0.9919 -0.1185
vn 0.0456 0.9917 -0.1204
vn 0.0456 0.9917 -0.1204
vn 0.0456 0.9917 -0.1204
vn 0.0456 0.9917 -0.1204
vn 0.0456 0.9917 -0.1204
vn 0.0456 0.9917 -0.1204
vn 0.0456 0.9917 -0.1204
vn 0.0456 0.9917 -0.1204
vn 0.0456 0.9917 -0.1204
vn 0.0456 0.9917 -0.1204
vn 0.0456 0.9917 -0.1203
vn 0.0456 0.9917 -0.1203
vn 0.0456 0.9917 -0.1203
vn 0.0361 0.9937 -0.1064
vn 0.0361 0.9937 -0.1064
vn 0.0361 0.9937 -0.1064
vn 0.0456 0.9917 -0.1204
vn 0.0456 0.9917 -0.1204
vn 0.0456 0.9917 -0.1204
vn 0.0456 0.9917 -0.1204
vn 0.0456 0.9917 -0.1204
vn 0.0456 0.9917 -0.1204
vn 0.0456 0.9917 -0.1204
vn 0.0456 0.9917 -0.1204
vn 0.0456 0.9917 -0.1204
vn 0.0456 0.9917 -0.1204
vn 0.0456 0.9917 -0.1204
vn 0.0456 0.9917 -0.1204
vt 0.835299 0.568173
vt 0.83337 0.568861
vt 0.834756 0.569493
vt 0.849693 0.569722
vt 0.849693 0.574332
vt 0.851162 0.574332
vt 0.842267 0.574332
vt 0.843736 0.569722
vt 0.842267 0.563969
vt 0.849693 0.563969
vt 0.849693 0.568416
vt 0.851162 0.574332
vt 0.865565 0.57013
vt 0.865565 0.568865
vt 0.860383 0.57013
vt 0.834027 0.572866
vt 0.833237 0.573899
vt 0.835349 0.574502
vt 0.834539 0.563975
vt 0.834883 0.565243
vt 0.83672 0.565062
vt 0.836797 0.563809
vt 0.83672 0.565062
vt 0.838423 0.564109
vt 0.834081 0.56747
vt 0.832574 0.56789
vt 0.83337 0.568861
vt 0.838591 0.572221
vt 0.840152 0.571694
vt 0.838656 0.571319
vt 0.8397 0.564735
vt 0.838185 0.565391
vt 0.83921 0.565918
vt 0.866871 0.563969
vt 0.87042 0.565233
vt 0.871889 0.565233
vt 0.833868 0.566254
vt 0.832377 0.566206
vt 0.834081 0.56747
vt 0.834027 0.572866
vt 0.832141 0.573207
vt 0.833237 0.573899
vt 0.838591 0.572221
vt 0.839808 0.572812
vt 0.840152 0.571694
vt 0.860383 0.57013
vt 0.858873 0.574332
vt 0.860383 0.574332
vt 0.843736 0.569722
vt 0.842267 0.574332
vt 0.843736 0.574332
vt 0.855772 0.563969
vt 0.854304 0.563969
vt 0.855772 0.574332
vt 0.858873 0.563969
vt 0.860383 0.568865
vt 0.860383 0.565233
vt 0.871889 0.574332
vt 0.87042 0.565233
vt 0.87042 0.574332
vt 0.866871 0.563969
vt 0.866871 0.565233
vt 0.87042 0.565233
vt 0.871889 0.565233
vt 0.875439 0.565233
vt 0.866871 0.563969
vt 0.875439 0.565233
vt 0.875439 0.563969
vt 0.866871 0.563969
vt 0.858873 0.563969
vt 0.860383 0.57013
vt 0.860383 0.568865
vt 0.838296 0.57074
vt 0.838225 0.568975
vt 0.837017 0.570088
vt 0.837017 0.570088
vt 0.838225 0.568975
vt 0.835299 0.568173
vt 0.860383 0.565233
vt 0.866218 0.563969
vt 0.858873 0.563969
vt 0.837017 0.570088
vt 0.835299 0.568173
vt 0.834756 0.569493
vt 0.838656 0.571319
vt 0.840152 0.571694
vt 0.839977 0.570376
vt 0.834081 0.56747
vt 0.832377 0.566206
vt 0.832574 0.56789
vt 0.832141 0.573207
vt 0.834027 0.572866
vt 0.832677 0.57206
vt 0.834883 0.565243
vt 0.833109 0.564884
vt 0.833868 0.566254
vt 0.838879 0.573788
vt 0.837631 0.573048
vt 0.837494 0.574344
vt 0.849693 0.568416
vt 0.849693 0.569722
vt 0.851162 0.574332
vt 0.842267 0.563969
vt 0.843736 0.568416
vt 0.843736 0.563969
vt 0.838296 0.57074
vt 0.839977 0.570376
vt 0.839292 0.569547
vt 0.838591 0.572221
vt 0.838879 0.573788
vt 0.839808 0.572812
vt 0.835299 0.568173
vt 0.834081 0.56747
vt 0.83337 0.568861
vt 0.866218 0.563969
vt 0.860383 0.565233
vt 0.866218 0.565233
vt 0.838591 0.572221
vt 0.837631 0.573048
vt 0.838879 0.573788
vt 0.842267 0.563969
vt 0.843736 0.569722
vt 0.843736 0.568416
vt 0.849693 0.563969
vt 0.851162 0.574332
vt 0.851162 0.563969
vt 0.855772 0.574332
vt 0.854304 0.563969
vt 0.854304 0.574332
vt 0.860383 0.57013
vt 0.865565 0.568865
vt 0.860383 0.568865
vt 0.871889 0.574332
vt 0.871889 0.565233
vt 0.87042 0.565233
vt 0.838185 0.565391
vt 0.8397 0.564735
vt 0.838423 0.564109
vt 0.849693 0.569722
vt 0.849693 0.568416
vt 0.843736 0.568416
vt 0.843736 0.569722
vt 0.837494 0.574344
vt 0.837631 0.573048
vt 0.835756 0.57324
vt 0.835349 0.574502
vt 0.833109 0.564884
vt 0.832377 0.566206
vt 0.833868 0.566254
vt 0.834883 0.565243
vt 0.834539 0.563975
vt 0.833109 0.564884
vt 0.838296 0.57074
vt 0.839292 0.569547
vt 0.838225 0.568975
vt 0.860383 0.57013
vt 0.858873 0.563969
vt 0.858873 0.574332
vt 0.838296 0.57074
vt 0.838656 0.571319
vt 0.839977 0.570376
vt 0.838423 0.564109
vt 0.83672 0.565062
vt 0.838185 0.565391
vt 0.835756 0.57324
vt 0.834027 0.572866
vt 0.835349 0.574502
vt 0.83672 0.565062
vt 0.836797 0.563809
vt 0.834539 0.563975
s off
f 1/1/1 2/2/2 3/3/3
f 4/4/4 5/5/5 6/6/6
f 7/7/7 8/8/8 9/9/9
f 10/10/10 11/11/11 12/12/12
f 13/13/13 14/14/14 15/15/15
f 16/16/16 17/17/17 18/18/18
f 19/19/19 20/20/20 21/21/21
f 22/22/22 23/23/23 24/24/24
f 25/25/25 26/26/26 27/27/27
f 28/28/28 29/29/29 30/30/30
f 31/31/31 32/32/32 33/33/33
f 34/34/34 35/35/35 36/36/36
f 37/37/37 38/38/38 39/39/39
f 40/40/40 41/41/41 42/42/42
f 43/43/43 44/44/44 45/45/45
f 46/46/46 47/47/47 48/48/48
f 49/49/49 50/50/50 51/51/51
f 52/52/52 53/53/53 54/54/54
f 55/55/55 56/56/56 57/57/57
f 58/58/58 59/59/59 60/60/60
f 61/61/61 62/62/62 63/63/63
f 64/64/64 65/65/65 66/66/66
f 67/67/67 68/68/68 69/69/69
f 70/70/70 71/71/71 72/72/72
f 73/73/73 74/74/74 75/75/75
f 76/76/76 77/77/77 78/78/78
f 79/79/79 80/80/80 81/81/81
f 82/82/82 83/83/83 84/84/84
f 85/85/85 86/86/86 87/87/87
f 88/88/88 89/89/89 90/90/90
f 91/91/91 92/92/92 93/93/93
f 94/94/94 95/95/95 96/96/96
f 97/97/97 98/98/98 99/99/99
f 100/100/100 101/101/101 102/102/102
f 103/103/103 104/104/104 105/105/105
f 106/106/106 107/107/107 108/108/108
f 109/109/109 110/110/110 111/111/111
f 112/112/112 113/113/113 114/114/114
f 115/115/115 116/116/116 117/117/117
f 118/118/118 119/119/119 120/120/120
f 121/121/121 122/122/122 123/123/123
f 124/124/124 125/125/125 126/126/126
f 127/127/127 128/128/128 129/129/129
f 130/130/130 131/131/131 132/132/132
f 133/133/133 134/134/134 135/135/135
f 136/136/136 137/137/137 138/138/138
f 139/139/139 140/140/140 141/141/141
f 139/139/139 141/141/141 142/142/142
f 143/143/143 144/144/144 145/145/145
f 143/143/143 145/145/145 146/146/146
f 147/147/147 148/148/148 149/149/149
f 150/150/150 151/151/151 152/152/152
f 153/153/153 154/154/154 155/155/155
f 156/156/156 157/157/157 158/158/158
f 159/159/159 160/160/160 161/161/161
f 162/162/162 163/163/163 164/164/164
f 165/165/165 166/166/166 167/167/167
f 168/168/168 169/169/169 170/170/170
