v 0.518395 0.162637 0.101103
v 0.518147 0.162866 0.103021
v 0.521224 0.162557 0.102963
v 0.521115 0.16125 0.090572
v 0.524496 0.160791 0.089092
v 0.521779 0.160962 0.087952
v 0.521115 0.16125 0.090572
v 0.521779 0.160962 0.087952
v 0.516977 0.161433 0.087919
v 0.523638 0.161356 0.093933
v 0.526428 0.161254 0.095559
v 0.526762 0.160952 0.093028
v 0.522008 0.162214 0.100473
v 0.518395 0.162637 0.101103
v 0.521224 0.162557 0.102963
v 0.517793 0.163527 0.108896
v 0.520253 0.162999 0.106211
v 0.518178 0.163258 0.106722
v 0.516977 0.161433 0.087919
v 0.513445 0.1619 0.089312
v 0.515197 0.161915 0.091381
v 0.521115 0.16125 0.090572
v 0.516977 0.161433 0.087919
v 0.517541 0.161602 0.090562
v 0.516977 0.161433 0.087919
v 0.515197 0.161915 0.091381
v 0.517541 0.161602 0.090562
v 0.523279 0.161211 0.09224
v 0.526762 0.160952 0.093028
v 0.526196 0.160773 0.09083
v 0.521544 0.16319 0.109196
v 0.521684 0.162973 0.10729
v 0.52025 0.163422 0.11018
v 0.523279 0.161211 0.09224
v 0.524496 0.160791 0.089092
v 0.521115 0.16125 0.090572
v 0.521684 0.162973 0.10729
v 0.520253 0.162999 0.106211
v 0.52025 0.163422 0.11018
v 0.518395 0.162637 0.101103
v 0.522008 0.162214 0.100473
v 0.519879 0.162252 0.098866
v 0.518849 0.163543 0.110021
v 0.52025 0.163422 0.11018
v 0.517793 0.163527 0.108896
v 0.525026 0.161614 0.097634
v 0.523083 0.161604 0.095751
v 0.522008 0.162214 0.100473
v 0.526428 0.161254 0.095559
v 0.523083 0.161604 0.095751
v 0.525026 0.161614 0.097634
v 0.511238 0.162307 0.091276
v 0.513535 0.162245 0.092939
v 0.515197 0.161915 0.091381
v 0.515197 0.161915 0.091381
v 0.513445 0.1619 0.089312
v 0.511238 0.162307 0.091276
v 0.520493 0.16532 0.128173
v 0.512916 0.169623 0.157621
v 0.523227 0.165048 0.128173
v 0.522008 0.162214 0.100473
v 0.523083 0.161604 0.095751
v 0.519879 0.162252 0.098866
v 0.523279 0.161211 0.09224
v 0.523638 0.161356 0.093933
v 0.526762 0.160952 0.093028
v 0.523279 0.161211 0.09224
v 0.526196 0.160773 0.09083
v 0.524496 0.160791 0.089092
v 0.523638 0.161356 0.093933
v 0.523083 0.161604 0.095751
v 0.526428 0.161254 0.095559
v 0.520493 0.16532 0.128173
v 0.510182 0.169987 0.157621
v 0.512916 0.169623 0.157621
v 0.52025 0.163422 0.11018
v 0.520253 0.162999 0.106211
v 0.517793 0.163527 0.108896
vn 0.0975 0.9896 -0.1056
vn 0.0975 0.9896 -0.1056
vn 0.0975 0.9896 -0.1056
vn 0.0976 0.9916 -0.0844
vn 0.0976 0.9916 -0.0844
vn 0.0976 0.9916 -0.0844
vn 0.0979 0.9916 -0.0843
vn 0.0979 0.9916 -0.0843
vn 0.0979 0.9916 -0.0843
vn 0.0975 0.9896 -0.1055
vn 0.0975 0.9896 -0.1055
vn 0.0975 0.9896 -0.1055
vn 0.0975 0.9896 -0.1055
vn 0.0975 0.9896 -0.1055
vn 0.0975 0.9896 -0.1055
vn 0.0975 0.9896 -0.1055
vn 0.0975 0.9896 -0.1055
vn 0.0975 0.9896 -0.1055
vn 0.0961 0.9914 -0.0888
vn 0.0961 0.9914 -0.0888
vn 0.0961 0.9914 -0.0888
vn 0.0979 0.9916 -0.0843
vn 0.0979 0.9916 -0.0843
vn 0.0979 0.9916 -0.0843
vn 0.1027 0.991 -0.0853
vn 0.1027 0.991 -0.0853
vn 0.1027 0.991 -0.0853
vn 0.0975 0.9896 -0.1055
vn 0.0975 0.9896 -0.1055
vn 0.0975 0.9896 -0.1055
vn 0.0976 0.9896 -0.1055
vn 0.0976 0.9896 -0.1055
vn 0.0976 0.9896 -0.1055
vn 0.0922 0.9911 -0.0963
vn 0.0922 0.9911 -0.0963
vn 0.0922 0.9911 -0.0963
vn 0.0975 0.9896 -0.1056
vn 0.0975 0.9896 -0.1056
vn 0.0975 0.9896 -0.1056
vn 0.0975 0.9896 -0.1055
vn 0.0975 0.9896 -0.1055
vn 0.0975 0.9896 -0.1055
vn 0.0975 0.9896 -0.1055
vn 0.0975 0.9896 -0.1055
vn 0.0975 0.9896 -0.1055
vn 0.0975 0.9896 -0.1055
vn 0.0975 0.9896 -0.1055
vn 0.0975 0.9896 -0.1055
vn 0.0975 0.9896 -0.1055
vn 0.0975 0.9896 -0.1055
vn 0.0975 0.9896 -0.1055
vn 0.1006 0.9897 -0.1022
vn 0.1006 0.9897 -0.1022
vn 0.1006 0.9897 -0.1022
vn 0.1004 0.9906 -0.0925
vn 0.1004 0.9906 -0.0925
vn 0.1004 0.9906 -0.0925
vn 0.0983 0.988 -0.1191
vn 0.0983 0.988 -0.1191
vn 0.0983 0.988 -0.1191
vn 0.0975 0.9896 -0.1055
vn 0.0975 0.9896 -0.1055
vn 0.0975 0.9896 -0.1055
vn 0.0975 0.9896 -0.1055
vn 0.0975 0.9896 -0.1055
vn 0.0975 0.9896 -0.1055
vn 0.1044 0.9903 -0.0916
vn 0.1044 0.9903 -0.0916
vn 0.1044 0.9903 -0.0916
vn 0.0975 0.9896 -0.1055
vn 0.0975 0.9896 -0.1055
vn 0.0975 0.9896 -0.1055
vn 0.1312 0.9852 -0.1102
vn 0.1312 0.9852 -0.1102
vn 0.1312 0.9852 -0.1102
vn 0.0975 0.9896 -0.1056
vn 0.0975 0.9896 -0.1056
vn 0.0975 0.9896 -0.1056
vt 0.770788 0.570107
vt 0.770659 0.571109
vt 0.772266 0.571078
vt 0.772209 0.564606
vt 0.773975 0.563833
vt 0.772556 0.563237
vt 0.772209 0.564606
vt 0.772556 0.563237
vt 0.770047 0.56322
vt 0.773527 0.566361
vt 0.774984 0.567211
vt 0.775159 0.565889
vt 0.772675 0.569778
vt 0.770788 0.570107
vt 0.772266 0.571078
vt 0.770473 0.574178
vt 0.771758 0.572775
vt 0.770675 0.573042
vt 0.770047 0.56322
vt 0.768202 0.563948
vt 0.769118 0.565029
vt 0.772209 0.564606
vt 0.770047 0.56322
vt 0.770342 0.564601
vt 0.770047 0.56322
vt 0.769118 0.565029
vt 0.770342 0.564601
vt 0.773339 0.565477
vt 0.775159 0.565889
vt 0.774863 0.564741
vt 0.772433 0.574334
vt 0.772506 0.573339
vt 0.771757 0.574848
vt 0.773339 0.565477
vt 0.773975 0.563833
vt 0.772209 0.564606
vt 0.772506 0.573339
vt 0.771758 0.572775
vt 0.771757 0.574848
vt 0.770788 0.570107
vt 0.772675 0.569778
vt 0.771564 0.568938
vt 0.771025 0.574765
vt 0.771757 0.574848
vt 0.770473 0.574178
vt 0.774252 0.568295
vt 0.773237 0.567311
vt 0.772675 0.569778
vt 0.774984 0.567211
vt 0.773237 0.567311
vt 0.774252 0.568295
vt 0.76705 0.564974
vt 0.768249 0.565842
vt 0.769118 0.565029
vt 0.769118 0.565029
vt 0.768202 0.563948
vt 0.76705 0.564974
vt 0.771884 0.584247
vt 0.767926 0.599629
vt 0.773312 0.584247
vt 0.772675 0.569778
vt 0.773237 0.567311
vt 0.771564 0.568938
vt 0.773339 0.565477
vt 0.773527 0.566361
vt 0.775159 0.565889
vt 0.773339 0.565477
vt 0.774863 0.564741
vt 0.773975 0.563833
vt 0.773527 0.566361
vt 0.773237 0.567311
vt 0.774984 0.567211
vt 0.771884 0.584247
vt 0.766498 0.599629
vt 0.767926 0.599629
vt 0.771757 0.574848
vt 0.771758 0.572775
vt 0.770473 0.574178
s off
f 1/1/1 2/2/2 3/3/3
f 4/4/4 5/5/5 6/6/6
f 7/7/7 8/8/8 9/9/9
f 10/10/10 11/11/11 12/12/12
f 13/13/13 14/14/14 15/15/15
f 16/16/16 17/17/17 18/18/18
f 19/19/19 20/20/20 21/21/21
f 22/22/22 23/23/23 24/24/24
f 25/25/25 26/26/26 27/27/27
f 28/28/28 29/29/29 30/30/30
f 31/31/31 32/32/32 33/33/33
f 34/34/34 35/35/35 36/36/36
f 37/37/37 38/38/38 39/39/39
f 40/40/40 41/41/41 42/42/42
f 43/43/43 44/44/44 45/45/45
f 46/46/46 47/47/47 48/48/48
f 49/49/49 50/50/50 51/51/51
f 52/52/52 53/53/53 54/54/54
f 55/55/55 56/56/56 57/57/57
f 58/58/58 59/59/59 60/60/60
f 61/61/61 62/62/62 63/63/63
f 64/64/64 65/65/65 66/66/66
f 67/67/67 68/68/68 69/69/69
f 70/70/70 71/71/71 72/72/72
f 73/73/73 74/74/74 75/75/75
f 76/76/76 77/77/77 78/78/78
