v 0.305417 0.164965 0.273453
v 0.317669 0.117781 0.276869
v 0.317669 0.118477 0.255703
v 0.304569 0.16549 0.251894
v 0.306585 0.162506 0.295311
v 0.317669 0.116845 0.305373
v 0.317669 0.117781 0.276869
v 0.305417 0.164965 0.273453
v 0.304569 0.16549 0.251894
v 0.317669 0.118477 0.255703
v 0.317669 0.119172 0.234537
v 0.304061 0.164023 0.23037
v 0.317669 0.119172 0.234537
v 0.317669 0.120119 0.205732
v 0.30397 0.160302 0.208634
v 0.304061 0.164023 0.23037
v 0.30397 0.160302 0.208634
v 0.317669 0.120119 0.205732
v 0.313967 0.120406 0.196977
v 0.29764 0.15833 0.201742
v 0.30397 0.160302 0.208634
v 0.313967 0.120406 0.196977
v 0.30503 0.120526 0.19335
v 0.203173 0.15833 0.201742
v 0.29764 0.15833 0.201742
v 0.30503 0.120526 0.19335
v 0.208715 0.120526 0.19335
v -0.465488 0.120526 0.19335
v -0.474425 0.120406 0.196977
v -0.464429 0.160302 0.208633
v -0.458098 0.15833 0.201742
v -0.474425 0.120406 0.196977
v -0.478127 0.120119 0.205732
v -0.464429 0.160302 0.208633
v -0.464429 0.160302 0.208633
v -0.478127 0.120119 0.205732
v -0.478127 0.119172 0.234537
v -0.464519 0.164024 0.23037
v -0.464519 0.164024 0.23037
v -0.478127 0.119172 0.234537
v -0.478127 0.118477 0.255703
v -0.465027 0.16549 0.251893
v -0.465027 0.16549 0.251893
v -0.478127 0.118477 0.255703
v -0.478127 0.117781 0.276869
v -0.465876 0.164965 0.273453
v -0.478127 0.117781 0.276869
v -0.478127 0.116845 0.305373
v -0.467043 0.162506 0.295311
v -0.465876 0.164965 0.273453
v -0.478127 0.116845 0.305373
v -0.474483 0.11655 0.31434
v -0.467043 0.162506 0.295311
v -0.474483 0.11655 0.31434
v -0.465684 0.116428 0.318055
v -0.461302 0.161166 0.302372
v -0.467043 0.162506 0.295311
v -0.366033 0.161166 0.302372
v -0.461302 0.161166 0.302372
v -0.465684 0.116428 0.318055
v -0.369321 0.116428 0.318055
v 0.305226 0.116428 0.318055
v 0.314024 0.11655 0.314341
v 0.300843 0.161166 0.302373
v 0.314024 0.11655 0.314341
v 0.317669 0.116845 0.305373
v 0.306585 0.162506 0.295311
v 0.300843 0.161166 0.302373
v 0.303133 0.165211 0.294645
v 0.300236 0.164659 0.298744
v 0.300843 0.161166 0.302373
v 0.306585 0.162506 0.295311
v -0.365578 0.164659 0.298744
v -0.460694 0.164659 0.298744
v -0.461302 0.161166 0.302372
v -0.366033 0.161166 0.302372
v 0.205119 0.164659 0.298744
v 0.300236 0.164659 0.298744
v 0.303133 0.165211 0.294645
v 0.207293 0.165211 0.294645
v 0.301934 0.167616 0.27321
v 0.303133 0.165211 0.294645
v 0.306585 0.162506 0.295311
v 0.305417 0.164965 0.273453
v -0.366852 0.167616 0.27321
v -0.462393 0.167616 0.27321
v -0.463592 0.165211 0.294645
v -0.367751 0.165211 0.294645
v 0.301039 0.168128 0.251663
v 0.301934 0.167616 0.27321
v 0.305417 0.164965 0.273453
v 0.304569 0.16549 0.251894
v -0.36618 0.168128 0.251663
v -0.461498 0.168128 0.251663
v -0.462393 0.167616 0.27321
v -0.366852 0.167616 0.27321
v 0.300472 0.166644 0.230149
v 0.301039 0.168128 0.251663
v 0.304569 0.16549 0.251894
v 0.304061 0.164023 0.23037
v -0.365754 0.166644 0.230149
v -0.460929 0.166645 0.230149
v -0.461498 0.168128 0.251663
v -0.36618 0.168128 0.251663
v -0.365604 0.162965 0.208896
v -0.460729 0.162965 0.208896
v -0.460929 0.166645 0.230149
v -0.365754 0.166644 0.230149
v 0.300271 0.162965 0.208897
v 0.300472 0.166644 0.230149
v 0.304061 0.164023 0.23037
v 0.30397 0.160302 0.208634
v 0.296782 0.162134 0.204917
v 0.300271 0.162965 0.208897
v 0.30397 0.160302 0.208634
v 0.29764 0.15833 0.201742
v -0.362987 0.162134 0.204917
v -0.45724 0.162134 0.204917
v -0.460729 0.162965 0.208896
v -0.365604 0.162965 0.208896
v 0.202529 0.162134 0.204917
v 0.296782 0.162134 0.204917
v 0.29764 0.15833 0.201742
v 0.203173 0.15833 0.201742
v -0.460729 0.162965 0.208896
v -0.45724 0.162134 0.204917
v -0.458098 0.15833 0.201742
v -0.464429 0.160302 0.208633
v -0.464429 0.160302 0.208633
v -0.464519 0.164024 0.23037
v -0.460929 0.166645 0.230149
v -0.460729 0.162965 0.208896
v -0.464519 0.164024 0.23037
v -0.465027 0.16549 0.251893
v -0.461498 0.168128 0.251663
v -0.460929 0.166645 0.230149
v -0.465027 0.16549 0.251893
v -0.465876 0.164965 0.273453
v -0.462393 0.167616 0.27321
v -0.461498 0.168128 0.251663
v -0.465876 0.164965 0.273453
v -0.467043 0.162506 0.295311
v -0.463592 0.165211 0.294645
v -0.462393 0.167616 0.27321
v -0.460694 0.164659 0.298744
v -0.463592 0.165211 0.294645
v -0.467043 0.162506 0.295311
v -0.461302 0.161166 0.302372
v 0.317669 0.117781 0.276869
v 0.317669 0.106519 0.276499
v 0.317669 0.107215 0.255333
v 0.317669 0.118477 0.255703
v 0.317669 0.117781 0.276869
v 0.317669 0.116845 0.305373
v 0.317669 0.105582 0.305018
v 0.317669 0.106519 0.276499
v 0.314026 0.105288 0.313975
v 0.317669 0.105582 0.305018
v 0.317669 0.116845 0.305373
v 0.314024 0.11655 0.314341
v 0.305232 0.105166 0.317685
v 0.314026 0.105288 0.313975
v 0.314024 0.11655 0.314341
v 0.305226 0.116428 0.318055
v -0.369321 0.116428 0.318055
v -0.465684 0.116428 0.318055
v -0.46569 0.105166 0.317685
v -0.369325 0.105166 0.317685
v -0.474484 0.105288 0.313975
v -0.46569 0.105166 0.317685
v -0.465684 0.116428 0.318055
v -0.474483 0.11655 0.31434
v -0.478127 0.105582 0.305018
v -0.474484 0.105288 0.313975
v -0.474483 0.11655 0.31434
v -0.478127 0.116845 0.305373
v -0.478127 0.105582 0.305018
v -0.478127 0.116845 0.305373
v -0.478127 0.117781 0.276869
v -0.478127 0.106519 0.276499
v -0.478127 0.118477 0.255703
v -0.478127 0.107215 0.255333
v -0.478127 0.106519 0.276499
v -0.478127 0.117781 0.276869
v -0.478127 0.119172 0.234537
v -0.478127 0.10791 0.234167
v -0.478127 0.107215 0.255333
v -0.478127 0.118477 0.255703
v -0.478127 0.119172 0.234537
v -0.478127 0.120119 0.205732
v -0.478127 0.108857 0.205358
v -0.478127 0.10791 0.234167
v -0.474429 0.109144 0.196606
v -0.478127 0.108857 0.205358
v -0.478127 0.120119 0.205732
v -0.474425 0.120406 0.196977
v -0.465501 0.109263 0.19298
v -0.474429 0.109144 0.196606
v -0.474425 0.120406 0.196977
v -0.465488 0.120526 0.19335
v 0.208715 0.120526 0.19335
v 0.30503 0.120526 0.19335
v 0.305043 0.109263 0.19298
v 0.208725 0.109263 0.19298
v 0.30503 0.120526 0.19335
v 0.313967 0.120406 0.196977
v 0.313971 0.109144 0.196606
v 0.305043 0.109263 0.19298
v 0.313967 0.120406 0.196977
v 0.317669 0.120119 0.205732
v 0.317669 0.108857 0.205358
v 0.313971 0.109144 0.196606
v 0.317669 0.108857 0.205358
v 0.317669 0.120119 0.205732
v 0.317669 0.119172 0.234537
v 0.317669 0.10791 0.234167
v 0.317669 0.118477 0.255703
v 0.317669 0.107215 0.255333
v 0.317669 0.10791 0.234167
v 0.317669 0.119172 0.234537
v -0.45724 0.162134 0.204917
v -0.362987 0.162134 0.204917
v -0.363631 0.15833 0.201742
v -0.458098 0.15833 0.201742
v -0.362987 0.162134 0.204917
v -0.268734 0.162134 0.204917
v -0.269164 0.15833 0.201742
v -0.363631 0.15833 0.201742
v -0.268734 0.162134 0.204917
v -0.174482 0.162134 0.204917
v -0.174696 0.15833 0.201742
v -0.269164 0.15833 0.201742
v -0.174482 0.162134 0.204917
v -0.080229 0.162134 0.204917
v -0.080229 0.15833 0.201742
v -0.174696 0.15833 0.201742
v -0.080229 0.162134 0.204917
v 0.014024 0.162134 0.204917
v 0.014238 0.15833 0.201742
v -0.080229 0.15833 0.201742
v 0.014024 0.162134 0.204917
v 0.108276 0.162134 0.204917
v 0.108705 0.15833 0.201742
v 0.014238 0.15833 0.201742
v 0.108276 0.162134 0.204917
v 0.202529 0.162134 0.204917
v 0.203173 0.15833 0.201742
v 0.108705 0.15833 0.201742
v 0.296782 0.162134 0.204917
v 0.202529 0.162134 0.204917
v 0.205146 0.162965 0.208897
v 0.300271 0.162965 0.208897
v 0.202529 0.162134 0.204917
v 0.108276 0.162134 0.204917
v 0.110021 0.162965 0.208897
v 0.205146 0.162965 0.208897
v 0.108276 0.162134 0.204917
v 0.014024 0.162134 0.204917
v 0.014896 0.162965 0.208897
v 0.110021 0.162965 0.208897
v 0.014024 0.162134 0.204917
v -0.080229 0.162134 0.204917
v -0.080229 0.162965 0.208897
v 0.014896 0.162965 0.208897
v -0.080229 0.162134 0.204917
v -0.174482 0.162134 0.204917
v -0.175354 0.162965 0.208896
v -0.080229 0.162965 0.208897
v -0.174482 0.162134 0.204917
v -0.268734 0.162134 0.204917
v -0.270479 0.162965 0.208896
v -0.175354 0.162965 0.208896
v -0.268734 0.162134 0.204917
v -0.362987 0.162134 0.204917
v -0.365604 0.162965 0.208896
v -0.270479 0.162965 0.208896
v 0.300271 0.162965 0.208897
v 0.205146 0.162965 0.208897
v 0.205296 0.166644 0.230149
v 0.300472 0.166644 0.230149
v 0.205146 0.162965 0.208897
v 0.110021 0.162965 0.208897
v 0.110121 0.166644 0.230149
v 0.205296 0.166644 0.230149
v 0.110021 0.162965 0.208897
v 0.014896 0.162965 0.208897
v 0.014946 0.166644 0.230149
v 0.110121 0.166644 0.230149
v 0.014896 0.162965 0.208897
v -0.080229 0.162965 0.208897
v -0.080229 0.166644 0.230149
v 0.014946 0.166644 0.230149
v -0.080229 0.162965 0.208897
v -0.175354 0.162965 0.208896
v -0.175404 0.166644 0.230149
v -0.080229 0.166644 0.230149
v -0.175354 0.162965 0.208896
v -0.270479 0.162965 0.208896
v -0.270579 0.166644 0.230149
v -0.175404 0.166644 0.230149
v -0.270479 0.162965 0.208896
v -0.365604 0.162965 0.208896
v -0.365754 0.166644 0.230149
v -0.270579 0.166644 0.230149
v 0.300472 0.166644 0.230149
v 0.205296 0.166644 0.230149
v 0.205722 0.168128 0.251663
v 0.301039 0.168128 0.251663
v 0.205296 0.166644 0.230149
v 0.110121 0.166644 0.230149
v 0.110405 0.168128 0.251663
v 0.205722 0.168128 0.251663
v 0.110121 0.166644 0.230149
v 0.014946 0.166644 0.230149
v 0.015088 0.168128 0.251663
v 0.110405 0.168128 0.251663
v 0.014946 0.166644 0.230149
v -0.080229 0.166644 0.230149
v -0.080229 0.168128 0.251663
v 0.015088 0.168128 0.251663
v -0.080229 0.166644 0.230149
v -0.175404 0.166644 0.230149
v -0.175546 0.168128 0.251663
v -0.080229 0.168128 0.251663
v -0.175404 0.166644 0.230149
v -0.270579 0.166644 0.230149
v -0.270863 0.168128 0.251663
v -0.175546 0.168128 0.251663
v -0.270579 0.166644 0.230149
v -0.365754 0.166644 0.230149
v -0.36618 0.168128 0.251663
v -0.270863 0.168128 0.251663
v 0.301039 0.168128 0.251663
v 0.205722 0.168128 0.251663
v 0.206393 0.167616 0.27321
v 0.301934 0.167616 0.27321
v 0.205722 0.168128 0.251663
v 0.110405 0.168128 0.251663
v 0.110853 0.167616 0.27321
v 0.206393 0.167616 0.27321
v 0.110405 0.168128 0.251663
v 0.015088 0.168128 0.251663
v 0.015312 0.167616 0.27321
v 0.110853 0.167616 0.27321
v 0.015088 0.168128 0.251663
v -0.080229 0.168128 0.251663
v -0.080229 0.167616 0.27321
v 0.015312 0.167616 0.27321
v -0.080229 0.168128 0.251663
v -0.175546 0.168128 0.251663
v -0.17577 0.167616 0.27321
v -0.080229 0.167616 0.27321
v -0.175546 0.168128 0.251663
v -0.270863 0.168128 0.251663
v -0.271311 0.167616 0.27321
v -0.17577 0.167616 0.27321
v -0.270863 0.168128 0.251663
v -0.36618 0.168128 0.251663
v -0.366852 0.167616 0.27321
v -0.271311 0.167616 0.27321
v 0.301934 0.167616 0.27321
v 0.206393 0.167616 0.27321
v 0.207293 0.165211 0.294645
v 0.303133 0.165211 0.294645
v 0.206393 0.167616 0.27321
v 0.110853 0.167616 0.27321
v 0.111452 0.165211 0.294645
v 0.207293 0.165211 0.294645
v 0.110853 0.167616 0.27321
v 0.015312 0.167616 0.27321
v 0.015612 0.165211 0.294645
v 0.111452 0.165211 0.294645
v 0.015312 0.167616 0.27321
v -0.080229 0.167616 0.27321
v -0.080229 0.165211 0.294645
v 0.015612 0.165211 0.294645
v -0.080229 0.167616 0.27321
v -0.17577 0.167616 0.27321
v -0.17607 0.165211 0.294645
v -0.080229 0.165211 0.294645
v -0.17577 0.167616 0.27321
v -0.271311 0.167616 0.27321
v -0.27191 0.165211 0.294645
v -0.17607 0.165211 0.294645
v -0.271311 0.167616 0.27321
v -0.366852 0.167616 0.27321
v -0.367751 0.165211 0.294645
v -0.27191 0.165211 0.294645
v -0.460694 0.164659 0.298744
v -0.365578 0.164659 0.298744
v -0.367751 0.165211 0.294645
v -0.463592 0.165211 0.294645
v -0.365578 0.164659 0.298744
v -0.270462 0.164659 0.298744
v -0.27191 0.165211 0.294645
v -0.367751 0.165211 0.294645
v -0.270462 0.164659 0.298744
v -0.175345 0.164659 0.298744
v -0.17607 0.165211 0.294645
v -0.27191 0.165211 0.294645
v -0.175345 0.164659 0.298744
v -0.080229 0.164659 0.298744
v -0.080229 0.165211 0.294645
v -0.17607 0.165211 0.294645
v -0.080229 0.164659 0.298744
v 0.014887 0.164659 0.298744
v 0.015612 0.165211 0.294645
v -0.080229 0.165211 0.294645
v 0.014887 0.164659 0.298744
v 0.110003 0.164659 0.298744
v 0.111452 0.165211 0.294645
v 0.015612 0.165211 0.294645
v 0.110003 0.164659 0.298744
v 0.205119 0.164659 0.298744
v 0.207293 0.165211 0.294645
v 0.111452 0.165211 0.294645
v 0.300236 0.164659 0.298744
v 0.205119 0.164659 0.298744
v 0.205575 0.161166 0.302373
v 0.300843 0.161166 0.302373
v 0.205119 0.164659 0.298744
v 0.110003 0.164659 0.298744
v 0.110307 0.161166 0.302372
v 0.205575 0.161166 0.302373
v 0.110003 0.164659 0.298744
v 0.014887 0.164659 0.298744
v 0.015039 0.161166 0.302372
v 0.110307 0.161166 0.302372
v 0.014887 0.164659 0.298744
v -0.080229 0.164659 0.298744
v -0.080229 0.161166 0.302372
v 0.015039 0.161166 0.302372
v -0.080229 0.164659 0.298744
v -0.175345 0.164659 0.298744
v -0.175497 0.161166 0.302372
v -0.080229 0.161166 0.302372
v -0.175345 0.164659 0.298744
v -0.270462 0.164659 0.298744
v -0.270765 0.161166 0.302372
v -0.175497 0.161166 0.302372
v -0.270462 0.164659 0.298744
v -0.365578 0.164659 0.298744
v -0.366033 0.161166 0.302372
v -0.270765 0.161166 0.302372
v 0.300843 0.161166 0.302373
v 0.205575 0.161166 0.302373
v 0.208862 0.116428 0.318055
v 0.305226 0.116428 0.318055
v 0.205575 0.161166 0.302373
v 0.110307 0.161166 0.302372
v 0.112498 0.116428 0.318055
v 0.208862 0.116428 0.318055
v 0.110307 0.161166 0.302372
v 0.015039 0.161166 0.302372
v 0.016135 0.116428 0.318055
v 0.112498 0.116428 0.318055
v 0.015039 0.161166 0.302372
v -0.080229 0.161166 0.302372
v -0.080229 0.116428 0.318055
v 0.016135 0.116428 0.318055
v -0.080229 0.161166 0.302372
v -0.175497 0.161166 0.302372
v -0.176593 0.116428 0.318055
v -0.080229 0.116428 0.318055
v -0.175497 0.161166 0.302372
v -0.270765 0.161166 0.302372
v -0.272957 0.116428 0.318055
v -0.176593 0.116428 0.318055
v -0.270765 0.161166 0.302372
v -0.366033 0.161166 0.302372
v -0.369321 0.116428 0.318055
v -0.272957 0.116428 0.318055
v -0.458098 0.15833 0.201742
v -0.363631 0.15833 0.201742
v -0.369173 0.120526 0.19335
v -0.465488 0.120526 0.19335
v -0.363631 0.15833 0.201742
v -0.269164 0.15833 0.201742
v -0.272859 0.120526 0.19335
v -0.369173 0.120526 0.19335
v -0.269164 0.15833 0.201742
v -0.174696 0.15833 0.201742
v -0.176544 0.120526 0.19335
v -0.272859 0.120526 0.19335
v -0.174696 0.15833 0.201742
v -0.080229 0.15833 0.201742
v -0.080229 0.120526 0.19335
v -0.176544 0.120526 0.19335
v -0.080229 0.15833 0.201742
v 0.014238 0.15833 0.201742
v 0.016086 0.120526 0.19335
v -0.080229 0.120526 0.19335
v 0.014238 0.15833 0.201742
v 0.108705 0.15833 0.201742
v 0.1124 0.120526 0.19335
v 0.016086 0.120526 0.19335
v 0.108705 0.15833 0.201742
v 0.203173 0.15833 0.201742
v 0.208715 0.120526 0.19335
v 0.1124 0.120526 0.19335
v 0.305226 0.116428 0.318055
v 0.208862 0.116428 0.318055
v 0.208866 0.105166 0.317685
v 0.305232 0.105166 0.317685
v 0.208862 0.116428 0.318055
v 0.112498 0.116428 0.318055
v 0.112501 0.105166 0.317685
v 0.208866 0.105166 0.317685
v 0.112498 0.116428 0.318055
v 0.016135 0.116428 0.318055
v 0.016136 0.105166 0.317685
v 0.112501 0.105166 0.317685
v 0.016135 0.116428 0.318055
v -0.080229 0.116428 0.318055
v -0.080229 0.105166 0.317685
v 0.016136 0.105166 0.317685
v -0.080229 0.116428 0.318055
v -0.176593 0.116428 0.318055
v -0.176594 0.105166 0.317685
v -0.080229 0.105166 0.317685
v -0.176593 0.116428 0.318055
v -0.272957 0.116428 0.318055
v -0.27296 0.105166 0.317685
v -0.176594 0.105166 0.317685
v -0.272957 0.116428 0.318055
v -0.369321 0.116428 0.318055
v -0.369325 0.105166 0.317685
v -0.27296 0.105166 0.317685
v -0.465488 0.120526 0.19335
v -0.369173 0.120526 0.19335
v -0.369183 0.109263 0.19298
v -0.465501 0.109263 0.19298
v -0.369173 0.120526 0.19335
v -0.272859 0.120526 0.19335
v -0.272865 0.109263 0.19298
v -0.369183 0.109263 0.19298
v -0.272859 0.120526 0.19335
v -0.176544 0.120526 0.19335
v -0.176547 0.109263 0.19298
v -0.272865 0.109263 0.19298
v -0.176544 0.120526 0.19335
v -0.080229 0.120526 0.19335
v -0.080229 0.109263 0.19298
v -0.176547 0.109263 0.19298
v -0.080229 0.120526 0.19335
v 0.016086 0.120526 0.19335
v 0.016089 0.109263 0.19298
v -0.080229 0.109263 0.19298
v 0.016086 0.120526 0.19335
v 0.1124 0.120526 0.19335
v 0.112407 0.109263 0.19298
v 0.016089 0.109263 0.19298
v 0.1124 0.120526 0.19335
v 0.208715 0.120526 0.19335
v 0.208725 0.109263 0.19298
v 0.112407 0.109263 0.19298
vn 0.9677 0.2518 -0.0092
vn 0.9681 0.2505 -0.0088
vn 0.9634 0.2678 -0.014
vn 0.9631 0.2689 -0.0142
vn 0.97 0.2429 -0.0061
vn 0.97 0.2429 -0.0061
vn 0.9681 0.2505 -0.0088
vn 0.9677 0.2518 -0.0092
vn 0.9631 0.2689 -0.0142
vn 0.9634 0.2678 -0.014
vn 0.9567 0.2906 -0.0174
vn 0.9564 0.2915 -0.0175
vn 0.9567 0.2906 -0.0174
vn 0.952 0.3055 -0.0185
vn 0.952 0.3054 -0.0185
vn 0.9564 0.2915 -0.0175
vn 0.952 0.3054 -0.0185
vn 0.952 0.3055 -0.0185
vn 0.6614 0.3341 -0.6715
vn -0 0.2167 -0.9762
vn 0.952 0.3054 -0.0185
vn 0.6614 0.3341 -0.6715
vn 0.0001 0.2167 -0.9762
vn -0 0.2167 -0.9762
vn -0 0.2167 -0.9762
vn 0.0001 0.2167 -0.9762
vn -0 0.2167 -0.9762
vn -0.0001 0.2167 -0.9762
vn -0.6614 0.3341 -0.6715
vn -0.952 0.3055 -0.0185
vn -0 0.2167 -0.9762
vn -0.6614 0.3341 -0.6715
vn -0.952 0.3055 -0.0185
vn -0.952 0.3055 -0.0185
vn -0.952 0.3055 -0.0185
vn -0.952 0.3055 -0.0185
vn -0.9567 0.2906 -0.0174
vn -0.9564 0.2915 -0.0175
vn -0.9564 0.2915 -0.0175
vn -0.9567 0.2906 -0.0174
vn -0.9634 0.2678 -0.014
vn -0.9631 0.2689 -0.0142
vn -0.9631 0.2689 -0.0142
vn -0.9634 0.2678 -0.014
vn -0.9681 0.2505 -0.0088
vn -0.9677 0.2518 -0.0092
vn -0.9681 0.2505 -0.0088
vn -0.97 0.2429 -0.0061
vn -0.97 0.2429 -0.0061
vn -0.9677 0.2518 -0.0092
vn -0.97 0.2429 -0.0061
vn -0.6745 0.3506 0.6496
vn -0.97 0.2429 -0.0061
vn -0.6745 0.3506 0.6496
vn -0 0.3308 0.9437
vn -0 0.3308 0.9437
vn -0.97 0.2429 -0.0061
vn -0 0.3309 0.9437
vn -0 0.3308 0.9437
vn -0 0.3308 0.9437
vn -0 0.3308 0.9437
vn 0.0001 0.3308 0.9437
vn 0.6745 0.3506 0.6497
vn -0 0.3308 0.9437
vn 0.6745 0.3506 0.6497
vn 0.97 0.2429 -0.0061
vn 0.97 0.2429 -0.0061
vn -0 0.3308 0.9437
vn 0.0282 0.9925 0.1187
vn 0.0179 0.8839 0.4674
vn -0 0.3308 0.9437
vn 0.97 0.2429 -0.0061
vn -0 0.8862 0.4633
vn -0.0178 0.8839 0.4674
vn -0 0.3308 0.9437
vn -0 0.3309 0.9437
vn -0 0.8862 0.4633
vn 0.0179 0.8839 0.4674
vn 0.0282 0.9925 0.1187
vn -0 0.9934 0.115
vn 0.0267 0.9974 0.0665
vn 0.0282 0.9925 0.1187
vn 0.97 0.2429 -0.0061
vn 0.9677 0.2518 -0.0092
vn -0 0.9977 0.0677
vn -0.0267 0.9974 0.0665
vn -0.0282 0.9925 0.1187
vn -0 0.9934 0.1151
vn 0.0267 0.9994 -0.0234
vn 0.0267 0.9974 0.0665
vn 0.9677 0.2518 -0.0092
vn 0.9631 0.2689 -0.0142
vn -0 0.9997 -0.0226
vn -0.0267 0.9994 -0.0234
vn -0.0267 0.9974 0.0665
vn -0 0.9977 0.0677
vn 0.0267 0.9924 -0.1202
vn 0.0267 0.9994 -0.0234
vn 0.9631 0.2689 -0.0142
vn 0.9564 0.2915 -0.0175
vn -0 0.9928 -0.1199
vn -0.0267 0.9924 -0.1202
vn -0.0267 0.9994 -0.0234
vn -0 0.9997 -0.0226
vn -0 0.9844 -0.1759
vn -0.0283 0.9829 -0.1817
vn -0.0267 0.9924 -0.1202
vn -0 0.9928 -0.1199
vn 0.0283 0.9829 -0.1817
vn 0.0267 0.9924 -0.1202
vn 0.9564 0.2915 -0.0175
vn 0.952 0.3054 -0.0185
vn 0.0182 0.8364 -0.5479
vn 0.0283 0.9829 -0.1817
vn 0.952 0.3054 -0.0185
vn -0 0.2167 -0.9762
vn -0 0.8396 -0.5432
vn -0.0182 0.8364 -0.5478
vn -0.0283 0.9829 -0.1817
vn -0 0.9844 -0.1759
vn -0 0.8396 -0.5432
vn 0.0182 0.8364 -0.5479
vn -0 0.2167 -0.9762
vn -0 0.2167 -0.9762
vn -0.0283 0.9829 -0.1817
vn -0.0182 0.8364 -0.5478
vn -0 0.2167 -0.9762
vn -0.952 0.3055 -0.0185
vn -0.952 0.3055 -0.0185
vn -0.9564 0.2915 -0.0175
vn -0.0267 0.9924 -0.1202
vn -0.0283 0.9829 -0.1817
vn -0.9564 0.2915 -0.0175
vn -0.9631 0.2689 -0.0142
vn -0.0267 0.9994 -0.0234
vn -0.0267 0.9924 -0.1202
vn -0.9631 0.2689 -0.0142
vn -0.9677 0.2518 -0.0092
vn -0.0267 0.9974 0.0665
vn -0.0267 0.9994 -0.0234
vn -0.9677 0.2518 -0.0092
vn -0.97 0.2429 -0.0061
vn -0.0282 0.9925 0.1187
vn -0.0267 0.9974 0.0665
vn -0.0178 0.8839 0.4674
vn -0.0282 0.9925 0.1187
vn -0.97 0.2429 -0.0061
vn -0 0.3308 0.9437
vn 1 -0 -0
vn 1 -0 -0
vn 1 -0 -0
vn 1 -0 -0
vn 1 -0 -0
vn 0.9953 -0.0031 0.0967
vn 0.9953 -0.003 0.0967
vn 1 -0 -0
vn 0.7139 -0.0226 0.6999
vn 0.9953 -0.003 0.0967
vn 0.9953 -0.0031 0.0967
vn 0.7139 -0.0226 0.6999
vn 0.0048 -0.0328 0.9994
vn 0.7139 -0.0226 0.6999
vn 0.7139 -0.0226 0.6999
vn 0.0048 -0.0327 0.9995
vn -0.1787 -0.0323 0.9834
vn -0.0048 -0.0328 0.9994
vn -0.0048 -0.0327 0.9995
vn 0.1788 -0.0323 0.9834
vn -0.7139 -0.0226 0.6999
vn -0.0048 -0.0327 0.9995
vn -0.0048 -0.0328 0.9994
vn -0.7138 -0.0226 0.6999
vn -0.9953 -0.0031 0.0967
vn -0.7139 -0.0226 0.6999
vn -0.7138 -0.0226 0.6999
vn -0.9953 -0.003 0.0967
vn -0.9953 -0.0031 0.0967
vn -0.9953 -0.003 0.0967
vn -1 -0 -0
vn -1 -0 -0
vn -1 -0 -0
vn -1 -0 -0
vn -1 -0 -0
vn -1 -0 -0
vn -1 -0 -0
vn -1 -0 -0
vn -1 -0 -0
vn -1 -0 -0
vn -1 -0 -0
vn -0.9952 0.0033 -0.0979
vn -0.9952 0.0033 -0.098
vn -1 -0 -0
vn -0.7001 0.0238 -0.7137
vn -0.9952 0.0033 -0.098
vn -0.9952 0.0033 -0.0979
vn -0.7001 0.0238 -0.7137
vn -0.0047 0.0329 -0.9994
vn -0.7001 0.0238 -0.7137
vn -0.7001 0.0238 -0.7137
vn -0.0047 0.033 -0.9994
vn 0.173 0.0323 -0.9844
vn 0.0047 0.0329 -0.9994
vn 0.0047 0.033 -0.9994
vn -0.1732 0.0323 -0.9844
vn 0.0047 0.0329 -0.9994
vn 0.7001 0.0238 -0.7136
vn 0.7001 0.0238 -0.7136
vn 0.0047 0.033 -0.9994
vn 0.7001 0.0238 -0.7136
vn 0.9952 0.0033 -0.0979
vn 0.9952 0.0033 -0.098
vn 0.7001 0.0238 -0.7136
vn 0.9952 0.0033 -0.098
vn 0.9952 0.0033 -0.0979
vn 1 -0 -0
vn 1 -0 -0
vn 1 -0 -0
vn 1 -0 -0
vn 1 -0 -0
vn 1 -0 -0
vn -0.0182 0.8364 -0.5478
vn -0 0.8396 -0.5432
vn -0 0.2168 -0.9762
vn -0 0.2167 -0.9762
vn -0 0.8396 -0.5432
vn -0 0.8396 -0.5432
vn -0 0.2168 -0.9762
vn -0 0.2168 -0.9762
vn -0 0.8396 -0.5432
vn -0 0.8396 -0.5432
vn -0 0.2168 -0.9762
vn -0 0.2168 -0.9762
vn -0 0.8396 -0.5432
vn -0 0.8396 -0.5432
vn -0 0.2167 -0.9762
vn -0 0.2168 -0.9762
vn -0 0.8396 -0.5432
vn -0 0.8396 -0.5432
vn -0 0.2168 -0.9762
vn -0 0.2167 -0.9762
vn -0 0.8396 -0.5432
vn -0 0.8396 -0.5432
vn -0 0.2168 -0.9762
vn -0 0.2168 -0.9762
vn -0 0.8396 -0.5432
vn -0 0.8396 -0.5432
vn -0 0.2167 -0.9762
vn -0 0.2168 -0.9762
vn 0.0182 0.8364 -0.5479
vn -0 0.8396 -0.5432
vn -0 0.9844 -0.1759
vn 0.0283 0.9829 -0.1817
vn -0 0.8396 -0.5432
vn -0 0.8396 -0.5432
vn -0 0.9844 -0.176
vn -0 0.9844 -0.1759
vn -0 0.8396 -0.5432
vn -0 0.8396 -0.5432
vn -0 0.9844 -0.176
vn -0 0.9844 -0.176
vn -0 0.8396 -0.5432
vn -0 0.8396 -0.5432
vn -0 0.9844 -0.176
vn -0 0.9844 -0.176
vn -0 0.8396 -0.5432
vn -0 0.8396 -0.5432
vn -0 0.9844 -0.176
vn -0 0.9844 -0.176
vn -0 0.8396 -0.5432
vn -0 0.8396 -0.5432
vn -0 0.9844 -0.176
vn -0 0.9844 -0.176
vn -0 0.8396 -0.5432
vn -0 0.8396 -0.5432
vn -0 0.9844 -0.1759
vn -0 0.9844 -0.176
vn 0.0283 0.9829 -0.1817
vn -0 0.9844 -0.1759
vn -0 0.9928 -0.1199
vn 0.0267 0.9924 -0.1202
vn -0 0.9844 -0.1759
vn -0 0.9844 -0.176
vn -0 0.9928 -0.1199
vn -0 0.9928 -0.1199
vn -0 0.9844 -0.176
vn -0 0.9844 -0.176
vn -0 0.9928 -0.1199
vn -0 0.9928 -0.1199
vn -0 0.9844 -0.176
vn -0 0.9844 -0.176
vn -0 0.9928 -0.1199
vn -0 0.9928 -0.1199
vn -0 0.9844 -0.176
vn -0 0.9844 -0.176
vn -0 0.9928 -0.1199
vn -0 0.9928 -0.1199
vn -0 0.9844 -0.176
vn -0 0.9844 -0.176
vn -0 0.9928 -0.1199
vn -0 0.9928 -0.1199
vn -0 0.9844 -0.176
vn -0 0.9844 -0.1759
vn -0 0.9928 -0.1199
vn -0 0.9928 -0.1199
vn 0.0267 0.9924 -0.1202
vn -0 0.9928 -0.1199
vn -0 0.9997 -0.0225
vn 0.0267 0.9994 -0.0234
vn -0 0.9928 -0.1199
vn -0 0.9928 -0.1199
vn -0 0.9997 -0.0225
vn -0 0.9997 -0.0225
vn -0 0.9928 -0.1199
vn -0 0.9928 -0.1199
vn -0 0.9997 -0.0225
vn -0 0.9997 -0.0225
vn -0 0.9928 -0.1199
vn -0 0.9928 -0.1199
vn -0 0.9997 -0.0225
vn -0 0.9997 -0.0225
vn -0 0.9928 -0.1199
vn -0 0.9928 -0.1199
vn -0 0.9997 -0.0225
vn -0 0.9997 -0.0225
vn -0 0.9928 -0.1199
vn -0 0.9928 -0.1199
vn -0 0.9997 -0.0226
vn -0 0.9997 -0.0225
vn -0 0.9928 -0.1199
vn -0 0.9928 -0.1199
vn -0 0.9997 -0.0226
vn -0 0.9997 -0.0226
vn 0.0267 0.9994 -0.0234
vn -0 0.9997 -0.0225
vn -0 0.9977 0.0677
vn 0.0267 0.9974 0.0665
vn -0 0.9997 -0.0225
vn -0 0.9997 -0.0225
vn -0 0.9977 0.0677
vn -0 0.9977 0.0677
vn -0 0.9997 -0.0225
vn -0 0.9997 -0.0225
vn -0 0.9977 0.0677
vn -0 0.9977 0.0677
vn -0 0.9997 -0.0225
vn -0 0.9997 -0.0225
vn -0 0.9977 0.0677
vn -0 0.9977 0.0677
vn -0 0.9997 -0.0225
vn -0 0.9997 -0.0225
vn -0 0.9977 0.0677
vn -0 0.9977 0.0677
vn -0 0.9997 -0.0225
vn -0 0.9997 -0.0226
vn -0 0.9977 0.0677
vn -0 0.9977 0.0677
vn -0 0.9997 -0.0226
vn -0 0.9997 -0.0226
vn -0 0.9977 0.0677
vn -0 0.9977 0.0677
vn 0.0267 0.9974 0.0665
vn -0 0.9977 0.0677
vn -0 0.9934 0.115
vn 0.0282 0.9925 0.1187
vn -0 0.9977 0.0677
vn -0 0.9977 0.0677
vn -0 0.9934 0.115
vn -0 0.9934 0.115
vn -0 0.9977 0.0677
vn -0 0.9977 0.0677
vn -0 0.9934 0.115
vn -0 0.9934 0.115
vn -0 0.9977 0.0677
vn -0 0.9977 0.0677
vn -0 0.9934 0.115
vn -0 0.9934 0.115
vn -0 0.9977 0.0677
vn -0 0.9977 0.0677
vn -0 0.9934 0.115
vn -0 0.9934 0.115
vn -0 0.9977 0.0677
vn -0 0.9977 0.0677
vn -0 0.9934 0.115
vn -0 0.9934 0.115
vn -0 0.9977 0.0677
vn -0 0.9977 0.0677
vn -0 0.9934 0.1151
vn -0 0.9934 0.115
vn -0.0178 0.8839 0.4674
vn -0 0.8862 0.4633
vn -0 0.9934 0.1151
vn -0.0282 0.9925 0.1187
vn -0 0.8862 0.4633
vn -0 0.8862 0.4633
vn -0 0.9934 0.115
vn -0 0.9934 0.1151
vn -0 0.8862 0.4633
vn -0 0.8862 0.4633
vn -0 0.9934 0.115
vn -0 0.9934 0.115
vn -0 0.8862 0.4633
vn -0 0.8862 0.4633
vn -0 0.9934 0.115
vn -0 0.9934 0.115
vn -0 0.8862 0.4633
vn -0 0.8862 0.4633
vn -0 0.9934 0.115
vn -0 0.9934 0.115
vn -0 0.8862 0.4633
vn -0 0.8862 0.4633
vn -0 0.9934 0.115
vn -0 0.9934 0.115
vn -0 0.8862 0.4633
vn -0 0.8862 0.4633
vn -0 0.9934 0.115
vn -0 0.9934 0.115
vn 0.0179 0.8839 0.4674
vn -0 0.8862 0.4633
vn -0 0.3308 0.9437
vn -0 0.3308 0.9437
vn -0 0.8862 0.4633
vn -0 0.8862 0.4633
vn -0 0.3309 0.9437
vn -0 0.3308 0.9437
vn -0 0.8862 0.4633
vn -0 0.8862 0.4633
vn -0 0.3308 0.9437
vn -0 0.3309 0.9437
vn -0 0.8862 0.4633
vn -0 0.8862 0.4633
vn -0 0.3308 0.9437
vn -0 0.3308 0.9437
vn -0 0.8862 0.4633
vn -0 0.8862 0.4633
vn -0 0.3309 0.9437
vn -0 0.3308 0.9437
vn -0 0.8862 0.4633
vn -0 0.8862 0.4633
vn -0 0.3309 0.9437
vn -0 0.3309 0.9437
vn -0 0.8862 0.4633
vn -0 0.8862 0.4633
vn -0 0.3309 0.9437
vn -0 0.3309 0.9437
vn -0 0.3308 0.9437
vn -0 0.3308 0.9437
vn -0 0.3308 0.9437
vn 0.0001 0.3308 0.9437
vn -0 0.3308 0.9437
vn -0 0.3309 0.9437
vn -0 0.3308 0.9437
vn -0 0.3308 0.9437
vn -0 0.3309 0.9437
vn -0 0.3308 0.9437
vn -0 0.3308 0.9437
vn -0 0.3308 0.9437
vn -0 0.3308 0.9437
vn -0 0.3308 0.9437
vn -0 0.3308 0.9437
vn -0 0.3308 0.9437
vn -0 0.3308 0.9437
vn -0 0.3309 0.9437
vn -0 0.3308 0.9437
vn -0 0.3308 0.9437
vn -0 0.3309 0.9437
vn -0 0.3309 0.9437
vn -0 0.3308 0.9437
vn -0 0.3308 0.9437
vn -0 0.3309 0.9437
vn -0 0.3309 0.9437
vn -0 0.3308 0.9437
vn -0 0.3308 0.9437
vn -0 0.2167 -0.9762
vn -0 0.2168 -0.9762
vn -0 0.2167 -0.9762
vn -0.0001 0.2167 -0.9762
vn -0 0.2168 -0.9762
vn -0 0.2168 -0.9762
vn -0 0.2167 -0.9762
vn -0 0.2167 -0.9762
vn -0 0.2168 -0.9762
vn -0 0.2168 -0.9762
vn -0 0.2167 -0.9762
vn -0 0.2167 -0.9762
vn -0 0.2168 -0.9762
vn -0 0.2167 -0.9762
vn -0 0.2167 -0.9762
vn -0 0.2167 -0.9762
vn -0 0.2167 -0.9762
vn -0 0.2168 -0.9762
vn -0 0.2167 -0.9762
vn -0 0.2167 -0.9762
vn -0 0.2168 -0.9762
vn -0 0.2168 -0.9762
vn -0 0.2167 -0.9762
vn -0 0.2167 -0.9762
vn -0 0.2168 -0.9762
vn -0 0.2167 -0.9762
vn -0 0.2167 -0.9762
vn -0 0.2167 -0.9762
vn 0.0048 -0.0327 0.9995
vn -0.1787 -0.0323 0.9834
vn 0.1788 -0.0323 0.9834
vn 0.0048 -0.0328 0.9994
vn -0.1787 -0.0323 0.9834
vn -0.1787 -0.0323 0.9834
vn 0.1788 -0.0323 0.9834
vn 0.1788 -0.0323 0.9834
vn -0.1787 -0.0323 0.9834
vn -0.1787 -0.0323 0.9834
vn 0.1788 -0.0323 0.9834
vn 0.1788 -0.0323 0.9834
vn -0.1787 -0.0323 0.9834
vn -0.1787 -0.0323 0.9834
vn 0.1788 -0.0323 0.9834
vn 0.1788 -0.0323 0.9834
vn -0.1787 -0.0323 0.9834
vn -0.1787 -0.0323 0.9834
vn 0.1788 -0.0323 0.9834
vn 0.1788 -0.0323 0.9834
vn -0.1787 -0.0323 0.9834
vn -0.1787 -0.0323 0.9834
vn 0.1788 -0.0323 0.9834
vn 0.1788 -0.0323 0.9834
vn -0.1787 -0.0323 0.9834
vn -0.1787 -0.0323 0.9834
vn 0.1788 -0.0323 0.9834
vn 0.1788 -0.0323 0.9834
vn -0.0047 0.033 -0.9994
vn 0.173 0.0323 -0.9844
vn -0.1732 0.0323 -0.9844
vn -0.0047 0.0329 -0.9994
vn 0.173 0.0323 -0.9844
vn 0.173 0.0323 -0.9844
vn -0.1732 0.0323 -0.9844
vn -0.1732 0.0323 -0.9844
vn 0.173 0.0323 -0.9844
vn 0.173 0.0323 -0.9844
vn -0.1732 0.0323 -0.9844
vn -0.1732 0.0323 -0.9844
vn 0.173 0.0323 -0.9844
vn 0.173 0.0323 -0.9844
vn -0.1732 0.0323 -0.9844
vn -0.1732 0.0323 -0.9844
vn 0.173 0.0323 -0.9844
vn 0.173 0.0323 -0.9844
vn -0.1732 0.0323 -0.9844
vn -0.1732 0.0323 -0.9844
vn 0.173 0.0323 -0.9844
vn 0.173 0.0323 -0.9844
vn -0.1732 0.0323 -0.9844
vn -0.1732 0.0323 -0.9844
vn 0.173 0.0323 -0.9844
vn 0.173 0.0323 -0.9844
vn -0.1732 0.0323 -0.9844
vn -0.1732 0.0323 -0.9844
vt 0.630568 0.307669
vt 0.664989 0.311079
vt 0.664991 0.300025
vt 0.630188 0.298027
vt 0.63109 0.317445
vt 0.665023 0.325732
vt 0.664989 0.311079
vt 0.630568 0.307669
vt 0.630188 0.298027
vt 0.664991 0.300025
vt 0.664993 0.288971
vt 0.629961 0.288401
vt 0.664993 0.288971
vt 0.665015 0.274104
vt 0.629921 0.278679
vt 0.629961 0.288401
vt 0.629921 0.278679
vt 0.665015 0.274104
vt 0.663315 0.26998
vt 0.627089 0.275597
vt 0.629921 0.278679
vt 0.663315 0.26998
vt 0.659103 0.268363
vt 0.58484 0.275597
vt 0.627089 0.275597
vt 0.659103 0.268363
vt 0.60885 0.268363
vt 0.257081 0.268363
vt 0.252868 0.26998
vt 0.286263 0.278679
vt 0.289094 0.275597
vt 0.252868 0.26998
vt 0.251169 0.274104
vt 0.286263 0.278679
vt 0.286263 0.278679
vt 0.251169 0.274104
vt 0.25119 0.288971
vt 0.286223 0.288401
vt 0.286223 0.288401
vt 0.25119 0.288971
vt 0.251193 0.300025
vt 0.285995 0.298027
vt 0.285995 0.298027
vt 0.251193 0.300025
vt 0.251194 0.311079
vt 0.285616 0.307669
vt 0.251194 0.311079
vt 0.251172 0.325771
vt 0.285094 0.317445
vt 0.285616 0.307669
vt 0.251172 0.325771
vt 0.252839 0.33001
vt 0.285094 0.317445
vt 0.252839 0.33001
vt 0.256978 0.331679
vt 0.287662 0.320603
vt 0.285094 0.317445
vt 0.330269 0.320603
vt 0.287662 0.320603
vt 0.256978 0.331679
vt 0.307262 0.331678
vt 0.65925 0.331667
vt 0.663393 0.329962
vt 0.628522 0.320603
vt 0.663393 0.329962
vt 0.665023 0.325732
vt 0.63109 0.317445
vt 0.628522 0.320603
vt 0.629546 0.317147
vt 0.62825 0.31898
vt 0.628522 0.320603
vt 0.63109 0.317445
vt 0.330473 0.31898
vt 0.287933 0.31898
vt 0.287662 0.320603
vt 0.330269 0.320603
vt 0.585711 0.31898
vt 0.62825 0.31898
vt 0.629546 0.317147
vt 0.586683 0.317147
vt 0.62901 0.30756
vt 0.629546 0.317147
vt 0.63109 0.317445
vt 0.630568 0.307669
vt 0.329903 0.30756
vt 0.287174 0.30756
vt 0.286637 0.317147
vt 0.329501 0.317147
vt 0.62861 0.297924
vt 0.62901 0.30756
vt 0.630568 0.307669
vt 0.630188 0.298027
vt 0.330203 0.297924
vt 0.287574 0.297924
vt 0.287174 0.30756
vt 0.329903 0.30756
vt 0.628356 0.288302
vt 0.62861 0.297924
vt 0.630188 0.298027
vt 0.629961 0.288401
vt 0.330394 0.288302
vt 0.287828 0.288302
vt 0.287574 0.297924
vt 0.330203 0.297924
vt 0.330461 0.278797
vt 0.287918 0.278797
vt 0.287828 0.288302
vt 0.330394 0.288302
vt 0.628266 0.278797
vt 0.628356 0.288302
vt 0.629961 0.288401
vt 0.629921 0.278679
vt 0.626706 0.277017
vt 0.628266 0.278797
vt 0.629921 0.278679
vt 0.627089 0.275597
vt 0.331632 0.277017
vt 0.289478 0.277017
vt 0.287918 0.278797
vt 0.330461 0.278797
vt 0.584552 0.277017
vt 0.626706 0.277017
vt 0.627089 0.275597
vt 0.58484 0.275597
vt 0.287918 0.278797
vt 0.289478 0.277017
vt 0.289094 0.275597
vt 0.286263 0.278679
vt 0.286263 0.278679
vt 0.286223 0.288401
vt 0.287828 0.288302
vt 0.287918 0.278797
vt 0.286223 0.288401
vt 0.285995 0.298027
vt 0.287574 0.297924
vt 0.287828 0.288302
vt 0.285995 0.298027
vt 0.285616 0.307669
vt 0.287174 0.30756
vt 0.287574 0.297924
vt 0.285616 0.307669
vt 0.285094 0.317445
vt 0.286637 0.317147
vt 0.287174 0.30756
vt 0.287933 0.31898
vt 0.286637 0.317147
vt 0.285094 0.317445
vt 0.287662 0.320603
vt 0.664989 0.311079
vt 0.66664 0.310884
vt 0.66664 0.299827
vt 0.664991 0.300025
vt 0.664989 0.311079
vt 0.665023 0.325732
vt 0.666627 0.325916
vt 0.66664 0.310884
vt 0.664534 0.330953
vt 0.666627 0.325916
vt 0.665023 0.325732
vt 0.663393 0.329962
vt 0.65958 0.333086
vt 0.664534 0.330953
vt 0.663393 0.329962
vt 0.65925 0.331667
vt 0.307262 0.331678
vt 0.256978 0.331679
vt 0.256604 0.333086
vt 0.306976 0.333086
vt 0.251649 0.330953
vt 0.256604 0.333086
vt 0.256978 0.331679
vt 0.252839 0.33001
vt 0.249557 0.325916
vt 0.251649 0.330953
vt 0.252839 0.33001
vt 0.251172 0.325771
vt 0.249557 0.325916
vt 0.251172 0.325771
vt 0.251194 0.311079
vt 0.249544 0.310884
vt 0.251193 0.300025
vt 0.249544 0.299827
vt 0.249544 0.310884
vt 0.251194 0.311079
vt 0.25119 0.288971
vt 0.249544 0.288771
vt 0.249544 0.299827
vt 0.251193 0.300025
vt 0.25119 0.288971
vt 0.251169 0.274104
vt 0.249558 0.273583
vt 0.249544 0.288771
vt 0.251685 0.268651
vt 0.249558 0.273583
vt 0.251169 0.274104
vt 0.252868 0.26998
vt 0.256707 0.266568
vt 0.251685 0.268651
vt 0.252868 0.26998
vt 0.257081 0.268363
vt 0.60885 0.268363
vt 0.659103 0.268363
vt 0.659477 0.266568
vt 0.609131 0.266568
vt 0.659103 0.268363
vt 0.663315 0.26998
vt 0.664499 0.268651
vt 0.659477 0.266568
vt 0.663315 0.26998
vt 0.665015 0.274104
vt 0.666626 0.273583
vt 0.664499 0.268651
vt 0.666626 0.273583
vt 0.665015 0.274104
vt 0.664993 0.288971
vt 0.66664 0.288771
vt 0.664991 0.300025
vt 0.66664 0.299827
vt 0.66664 0.288771
vt 0.664993 0.288971
vt 0.289478 0.277017
vt 0.331632 0.277017
vt 0.331344 0.275597
vt 0.289094 0.275597
vt 0.331632 0.277017
vt 0.373785 0.277017
vt 0.373593 0.275597
vt 0.331344 0.275597
vt 0.373785 0.277017
vt 0.415938 0.277017
vt 0.415842 0.275597
vt 0.373593 0.275597
vt 0.415938 0.277017
vt 0.458092 0.277017
vt 0.458092 0.275597
vt 0.415842 0.275597
vt 0.458092 0.277017
vt 0.500245 0.277017
vt 0.500341 0.275597
vt 0.458092 0.275597
vt 0.500245 0.277017
vt 0.542399 0.277017
vt 0.542591 0.275597
vt 0.500341 0.275597
vt 0.542399 0.277017
vt 0.584552 0.277017
vt 0.58484 0.275597
vt 0.542591 0.275597
vt 0.626706 0.277017
vt 0.584552 0.277017
vt 0.585723 0.278797
vt 0.628266 0.278797
vt 0.584552 0.277017
vt 0.542399 0.277017
vt 0.543179 0.278797
vt 0.585723 0.278797
vt 0.542399 0.277017
vt 0.500245 0.277017
vt 0.500635 0.278797
vt 0.543179 0.278797
vt 0.500245 0.277017
vt 0.458092 0.277017
vt 0.458092 0.278797
vt 0.500635 0.278797
vt 0.458092 0.277017
vt 0.415938 0.277017
vt 0.415548 0.278797
vt 0.458092 0.278797
vt 0.415938 0.277017
vt 0.373785 0.277017
vt 0.373005 0.278797
vt 0.415548 0.278797
vt 0.373785 0.277017
vt 0.331632 0.277017
vt 0.330461 0.278797
vt 0.373005 0.278797
vt 0.628266 0.278797
vt 0.585723 0.278797
vt 0.58579 0.288302
vt 0.628356 0.288302
vt 0.585723 0.278797
vt 0.543179 0.278797
vt 0.543224 0.288302
vt 0.58579 0.288302
vt 0.543179 0.278797
vt 0.500635 0.278797
vt 0.500658 0.288302
vt 0.543224 0.288302
vt 0.500635 0.278797
vt 0.458092 0.278797
vt 0.458092 0.288302
vt 0.500658 0.288302
vt 0.458092 0.278797
vt 0.415548 0.278797
vt 0.415526 0.288302
vt 0.458092 0.288302
vt 0.415548 0.278797
vt 0.373005 0.278797
vt 0.37296 0.288302
vt 0.415526 0.288302
vt 0.373005 0.278797
vt 0.330461 0.278797
vt 0.330394 0.288302
vt 0.37296 0.288302
vt 0.628356 0.288302
vt 0.58579 0.288302
vt 0.58598 0.297924
vt 0.62861 0.297924
vt 0.58579 0.288302
vt 0.543224 0.288302
vt 0.543351 0.297924
vt 0.58598 0.297924
vt 0.543224 0.288302
vt 0.500658 0.288302
vt 0.500721 0.297924
vt 0.543351 0.297924
vt 0.500658 0.288302
vt 0.458092 0.288302
vt 0.458092 0.297924
vt 0.500721 0.297924
vt 0.458092 0.288302
vt 0.415526 0.288302
vt 0.415462 0.297924
vt 0.458092 0.297924
vt 0.415526 0.288302
vt 0.37296 0.288302
vt 0.372833 0.297924
vt 0.415462 0.297924
vt 0.37296 0.288302
vt 0.330394 0.288302
vt 0.330203 0.297924
vt 0.372833 0.297924
vt 0.62861 0.297924
vt 0.58598 0.297924
vt 0.58628 0.30756
vt 0.62901 0.30756
vt 0.58598 0.297924
vt 0.543351 0.297924
vt 0.543551 0.30756
vt 0.58628 0.30756
vt 0.543351 0.297924
vt 0.500721 0.297924
vt 0.500821 0.30756
vt 0.543551 0.30756
vt 0.500721 0.297924
vt 0.458092 0.297924
vt 0.458092 0.30756
vt 0.500821 0.30756
vt 0.458092 0.297924
vt 0.415462 0.297924
vt 0.415362 0.307561
vt 0.458092 0.30756
vt 0.415462 0.297924
vt 0.372833 0.297924
vt 0.372633 0.30756
vt 0.415362 0.307561
vt 0.372833 0.297924
vt 0.330203 0.297924
vt 0.329903 0.30756
vt 0.372633 0.30756
vt 0.62901 0.30756
vt 0.58628 0.30756
vt 0.586683 0.317147
vt 0.629546 0.317147
vt 0.58628 0.30756
vt 0.543551 0.30756
vt 0.543819 0.317147
vt 0.586683 0.317147
vt 0.543551 0.30756
vt 0.500821 0.30756
vt 0.500955 0.317147
vt 0.543819 0.317147
vt 0.500821 0.30756
vt 0.458092 0.30756
vt 0.458092 0.317147
vt 0.500955 0.317147
vt 0.458092 0.30756
vt 0.415362 0.307561
vt 0.415228 0.317147
vt 0.458092 0.317147
vt 0.415362 0.307561
vt 0.372633 0.30756
vt 0.372365 0.317147
vt 0.415228 0.317147
vt 0.372633 0.30756
vt 0.329903 0.30756
vt 0.329501 0.317147
vt 0.372365 0.317147
vt 0.287933 0.31898
vt 0.330473 0.31898
vt 0.329501 0.317147
vt 0.286637 0.317147
vt 0.330473 0.31898
vt 0.373013 0.31898
vt 0.372365 0.317147
vt 0.329501 0.317147
vt 0.373013 0.31898
vt 0.415552 0.31898
vt 0.415228 0.317147
vt 0.372365 0.317147
vt 0.415552 0.31898
vt 0.458092 0.31898
vt 0.458092 0.317147
vt 0.415228 0.317147
vt 0.458092 0.31898
vt 0.500631 0.31898
vt 0.500955 0.317147
vt 0.458092 0.317147
vt 0.500631 0.31898
vt 0.543171 0.31898
vt 0.543819 0.317147
vt 0.500955 0.317147
vt 0.543171 0.31898
vt 0.585711 0.31898
vt 0.586683 0.317147
vt 0.543819 0.317147
vt 0.62825 0.31898
vt 0.585711 0.31898
vt 0.585914 0.320603
vt 0.628522 0.320603
vt 0.585711 0.31898
vt 0.543171 0.31898
vt 0.543307 0.320603
vt 0.585914 0.320603
vt 0.543171 0.31898
vt 0.500631 0.31898
vt 0.500699 0.320603
vt 0.543307 0.320603
vt 0.500631 0.31898
vt 0.458092 0.31898
vt 0.458092 0.320603
vt 0.500699 0.320603
vt 0.458092 0.31898
vt 0.415552 0.31898
vt 0.415484 0.320603
vt 0.458092 0.320603
vt 0.415552 0.31898
vt 0.373013 0.31898
vt 0.372877 0.320603
vt 0.415484 0.320603
vt 0.373013 0.31898
vt 0.330473 0.31898
vt 0.330269 0.320603
vt 0.372877 0.320603
vt 0.628522 0.320603
vt 0.585914 0.320603
vt 0.608966 0.331669
vt 0.65925 0.331667
vt 0.585914 0.320603
vt 0.543307 0.320603
vt 0.558682 0.33167
vt 0.608966 0.331669
vt 0.543307 0.320603
vt 0.500699 0.320603
vt 0.508398 0.331672
vt 0.558682 0.33167
vt 0.500699 0.320603
vt 0.458092 0.320603
vt 0.458114 0.331673
vt 0.508398 0.331672
vt 0.458092 0.320603
vt 0.415484 0.320603
vt 0.40783 0.331675
vt 0.458114 0.331673
vt 0.415484 0.320603
vt 0.372877 0.320603
vt 0.357546 0.331676
vt 0.40783 0.331675
vt 0.372877 0.320603
vt 0.330269 0.320603
vt 0.307262 0.331678
vt 0.357546 0.331676
vt 0.289094 0.275597
vt 0.331344 0.275597
vt 0.307334 0.268363
vt 0.257081 0.268363
vt 0.331344 0.275597
vt 0.373593 0.275597
vt 0.357586 0.268363
vt 0.307334 0.268363
vt 0.373593 0.275597
vt 0.415842 0.275597
vt 0.407839 0.268363
vt 0.357586 0.268363
vt 0.415842 0.275597
vt 0.458092 0.275597
vt 0.458092 0.268363
vt 0.407839 0.268363
vt 0.458092 0.275597
vt 0.500341 0.275597
vt 0.508345 0.268363
vt 0.458092 0.268363
vt 0.500341 0.275597
vt 0.542591 0.275597
vt 0.558597 0.268363
vt 0.508345 0.268363
vt 0.542591 0.275597
vt 0.58484 0.275597
vt 0.60885 0.268363
vt 0.558597 0.268363
vt 0.65925 0.331667
vt 0.608966 0.331669
vt 0.609208 0.333086
vt 0.65958 0.333086
vt 0.608966 0.331669
vt 0.558682 0.33167
vt 0.558836 0.333086
vt 0.609208 0.333086
vt 0.558682 0.33167
vt 0.508398 0.331672
vt 0.508464 0.333086
vt 0.558836 0.333086
vt 0.508398 0.331672
vt 0.458114 0.331673
vt 0.458092 0.333086
vt 0.508464 0.333086
vt 0.458114 0.331673
vt 0.40783 0.331675
vt 0.40772 0.333086
vt 0.458092 0.333086
vt 0.40783 0.331675
vt 0.357546 0.331676
vt 0.357348 0.333086
vt 0.40772 0.333086
vt 0.357546 0.331676
vt 0.307262 0.331678
vt 0.306976 0.333086
vt 0.357348 0.333086
vt 0.257081 0.268363
vt 0.307334 0.268363
vt 0.307053 0.266568
vt 0.256707 0.266568
vt 0.307334 0.268363
vt 0.357586 0.268363
vt 0.357399 0.266568
vt 0.307053 0.266568
vt 0.357586 0.268363
vt 0.407839 0.268363
vt 0.407746 0.266568
vt 0.357399 0.266568
vt 0.407839 0.268363
vt 0.458092 0.268363
vt 0.458092 0.266568
vt 0.407746 0.266568
vt 0.458092 0.268363
vt 0.508345 0.268363
vt 0.508438 0.266568
vt 0.458092 0.266568
vt 0.508345 0.268363
vt 0.558597 0.268363
vt 0.558784 0.266568
vt 0.508438 0.266568
vt 0.558597 0.268363
vt 0.60885 0.268363
vt 0.609131 0.266568
vt 0.558784 0.266568
s off
f 1/1/1 2/2/2 3/3/3
f 1/1/1 3/3/3 4/4/4
f 5/5/5 6/6/6 7/7/7
f 5/5/5 7/7/7 8/8/8
f 9/9/9 10/10/10 11/11/11
f 9/9/9 11/11/11 12/12/12
f 13/13/13 14/14/14 15/15/15
f 13/13/13 15/15/15 16/16/16
f 17/17/17 18/18/18 19/19/19
f 20/20/20 21/21/21 22/22/22
f 20/20/20 22/22/22 23/23/23
f 24/24/24 25/25/25 26/26/26
f 24/24/24 26/26/26 27/27/27
f 28/28/28 29/29/29 30/30/30
f 28/28/28 30/30/30 31/31/31
f 32/32/32 33/33/33 34/34/34
f 35/35/35 36/36/36 37/37/37
f 35/35/35 37/37/37 38/38/38
f 39/39/39 40/40/40 41/41/41
f 39/39/39 41/41/41 42/42/42
f 43/43/43 44/44/44 45/45/45
f 43/43/43 45/45/45 46/46/46
f 47/47/47 48/48/48 49/49/49
f 47/47/47 49/49/49 50/50/50
f 51/51/51 52/52/52 53/53/53
f 54/54/54 55/55/55 56/56/56
f 54/54/54 56/56/56 57/57/57
f 58/58/58 59/59/59 60/60/60
f 58/58/58 60/60/60 61/61/61
f 62/62/62 63/63/63 64/64/64
f 65/65/65 66/66/66 67/67/67
f 65/65/65 67/67/67 68/68/68
f 69/69/69 70/70/70 71/71/71
f 69/69/69 71/71/71 72/72/72
f 73/73/73 74/74/74 75/75/75
f 73/73/73 75/75/75 76/76/76
f 77/77/77 78/78/78 79/79/79
f 77/77/77 79/79/79 80/80/80
f 81/81/81 82/82/82 83/83/83
f 81/81/81 83/83/83 84/84/84
f 85/85/85 86/86/86 87/87/87
f 85/85/85 87/87/87 88/88/88
f 89/89/89 90/90/90 91/91/91
f 89/89/89 91/91/91 92/92/92
f 93/93/93 94/94/94 95/95/95
f 93/93/93 95/95/95 96/96/96
f 97/97/97 98/98/98 99/99/99
f 97/97/97 99/99/99 100/100/100
f 101/101/101 102/102/102 103/103/103
f 101/101/101 103/103/103 104/104/104
f 105/105/105 106/106/106 107/107/107
f 105/105/105 107/107/107 108/108/108
f 109/109/109 110/110/110 111/111/111
f 109/109/109 111/111/111 112/112/112
f 113/113/113 114/114/114 115/115/115
f 113/113/113 115/115/115 116/116/116
f 117/117/117 118/118/118 119/119/119
f 117/117/117 119/119/119 120/120/120
f 121/121/121 122/122/122 123/123/123
f 121/121/121 123/123/123 124/124/124
f 125/125/125 126/126/126 127/127/127
f 125/125/125 127/127/127 128/128/128
f 129/129/129 130/130/130 131/131/131
f 129/129/129 131/131/131 132/132/132
f 133/133/133 134/134/134 135/135/135
f 133/133/133 135/135/135 136/136/136
f 137/137/137 138/138/138 139/139/139
f 137/137/137 139/139/139 140/140/140
f 141/141/141 142/142/142 143/143/143
f 141/141/141 143/143/143 144/144/144
f 145/145/145 146/146/146 147/147/147
f 145/145/145 147/147/147 148/148/148
f 149/149/149 150/150/150 151/151/151
f 149/149/149 151/151/151 152/152/152
f 153/153/153 154/154/154 155/155/155
f 153/153/153 155/155/155 156/156/156
f 157/157/157 158/158/158 159/159/159
f 157/157/157 159/159/159 160/160/160
f 161/161/161 162/162/162 163/163/163
f 161/161/161 163/163/163 164/164/164
f 165/165/165 166/166/166 167/167/167
f 165/165/165 167/167/167 168/168/168
f 169/169/169 170/170/170 171/171/171
f 169/169/169 171/171/171 172/172/172
f 173/173/173 174/174/174 175/175/175
f 173/173/173 175/175/175 176/176/176
f 177/177/177 178/178/178 179/179/179
f 177/177/177 179/179/179 180/180/180
f 181/181/181 182/182/182 183/183/183
f 181/181/181 183/183/183 184/184/184
f 185/185/185 186/186/186 187/187/187
f 185/185/185 187/187/187 188/188/188
f 189/189/189 190/190/190 191/191/191
f 189/189/189 191/191/191 192/192/192
f 193/193/193 194/194/194 195/195/195
f 193/193/193 195/195/195 196/196/196
f 197/197/197 198/198/198 199/199/199
f 197/197/197 199/199/199 200/200/200
f 201/201/201 202/202/202 203/203/203
f 201/201/201 203/203/203 204/204/204
f 205/205/205 206/206/206 207/207/207
f 205/205/205 207/207/207 208/208/208
f 209/209/209 210/210/210 211/211/211
f 209/209/209 211/211/211 212/212/212
f 213/213/213 214/214/214 215/215/215
f 213/213/213 215/215/215 216/216/216
f 217/217/217 218/218/218 219/219/219
f 217/217/217 219/219/219 220/220/220
f 221/221/221 222/222/222 223/223/223
f 221/221/221 223/223/223 224/224/224
f 225/225/225 226/226/226 227/227/227
f 225/225/225 227/227/227 228/228/228
f 229/229/229 230/230/230 231/231/231
f 229/229/229 231/231/231 232/232/232
f 233/233/233 234/234/234 235/235/235
f 233/233/233 235/235/235 236/236/236
f 237/237/237 238/238/238 239/239/239
f 237/237/237 239/239/239 240/240/240
f 241/241/241 242/242/242 243/243/243
f 241/241/241 243/243/243 244/244/244
f 245/245/245 246/246/246 247/247/247
f 245/245/245 247/247/247 248/248/248
f 249/249/249 250/250/250 251/251/251
f 249/249/249 251/251/251 252/252/252
f 253/253/253 254/254/254 255/255/255
f 253/253/253 255/255/255 256/256/256
f 257/257/257 258/258/258 259/259/259
f 257/257/257 259/259/259 260/260/260
f 261/261/261 262/262/262 263/263/263
f 261/261/261 263/263/263 264/264/264
f 265/265/265 266/266/266 267/267/267
f 265/265/265 267/267/267 268/268/268
f 269/269/269 270/270/270 271/271/271
f 269/269/269 271/271/271 272/272/272
f 273/273/273 274/274/274 275/275/275
f 273/273/273 275/275/275 276/276/276
f 277/277/277 278/278/278 279/279/279
f 277/277/277 279/279/279 280/280/280
f 281/281/281 282/282/282 283/283/283
f 281/281/281 283/283/283 284/284/284
f 285/285/285 286/286/286 287/287/287
f 285/285/285 287/287/287 288/288/288
f 289/289/289 290/290/290 291/291/291
f 289/289/289 291/291/291 292/292/292
f 293/293/293 294/294/294 295/295/295
f 293/293/293 295/295/295 296/296/296
f 297/297/297 298/298/298 299/299/299
f 297/297/297 299/299/299 300/300/300
f 301/301/301 302/302/302 303/303/303
f 301/301/301 303/303/303 304/304/304
f 305/305/305 306/306/306 307/307/307
f 305/305/305 307/307/307 308/308/308
f 309/309/309 310/310/310 311/311/311
f 309/309/309 311/311/311 312/312/312
f 313/313/313 314/314/314 315/315/315
f 313/313/313 315/315/315 316/316/316
f 317/317/317 318/318/318 319/319/319
f 317/317/317 319/319/319 320/320/320
f 321/321/321 322/322/322 323/323/323
f 321/321/321 323/323/323 324/324/324
f 325/325/325 326/326/326 327/327/327
f 325/325/325 327/327/327 328/328/328
f 329/329/329 330/330/330 331/331/331
f 329/329/329 331/331/331 332/332/332
f 333/333/333 334/334/334 335/335/335
f 333/333/333 335/335/335 336/336/336
f 337/337/337 338/338/338 339/339/339
f 337/337/337 339/339/339 340/340/340
f 341/341/341 342/342/342 343/343/343
f 341/341/341 343/343/343 344/344/344
f 345/345/345 346/346/346 347/347/347
f 345/345/345 347/347/347 348/348/348
f 349/349/349 350/350/350 351/351/351
f 349/349/349 351/351/351 352/352/352
f 353/353/353 354/354/354 355/355/355
f 353/353/353 355/355/355 356/356/356
f 357/357/357 358/358/358 359/359/359
f 357/357/357 359/359/359 360/360/360
f 361/361/361 362/362/362 363/363/363
f 361/361/361 363/363/363 364/364/364
f 365/365/365 366/366/366 367/367/367
f 365/365/365 367/367/367 368/368/368
f 369/369/369 370/370/370 371/371/371
f 369/369/369 371/371/371 372/372/372
f 373/373/373 374/374/374 375/375/375
f 373/373/373 375/375/375 376/376/376
f 377/377/377 378/378/378 379/379/379
f 377/377/377 379/379/379 380/380/380
f 381/381/381 382/382/382 383/383/383
f 381/381/381 383/383/383 384/384/384
f 385/385/385 386/386/386 387/387/387
f 385/385/385 387/387/387 388/388/388
f 389/389/389 390/390/390 391/391/391
f 389/389/389 391/391/391 392/392/392
f 393/393/393 394/394/394 395/395/395
f 393/393/393 395/395/395 396/396/396
f 397/397/397 398/398/398 399/399/399
f 397/397/397 399/399/399 400/400/400
f 401/401/401 402/402/402 403/403/403
f 401/401/401 403/403/403 404/404/404
f 405/405/405 406/406/406 407/407/407
f 405/405/405 407/407/407 408/408/408
f 409/409/409 410/410/410 411/411/411
f 409/409/409 411/411/411 412/412/412
f 413/413/413 414/414/414 415/415/415
f 413/413/413 415/415/415 416/416/416
f 417/417/417 418/418/418 419/419/419
f 417/417/417 419/419/419 420/420/420
f 421/421/421 422/422/422 423/423/423
f 421/421/421 423/423/423 424/424/424
f 425/425/425 426/426/426 427/427/427
f 425/425/425 427/427/427 428/428/428
f 429/429/429 430/430/430 431/431/431
f 429/429/429 431/431/431 432/432/432
f 433/433/433 434/434/434 435/435/435
f 433/433/433 435/435/435 436/436/436
f 437/437/437 438/438/438 439/439/439
f 437/437/437 439/439/439 440/440/440
f 441/441/441 442/442/442 443/443/443
f 441/441/441 443/443/443 444/444/444
f 445/445/445 446/446/446 447/447/447
f 445/445/445 447/447/447 448/448/448
f 449/449/449 450/450/450 451/451/451
f 449/449/449 451/451/451 452/452/452
f 453/453/453 454/454/454 455/455/455
f 453/453/453 455/455/455 456/456/456
f 457/457/457 458/458/458 459/459/459
f 457/457/457 459/459/459 460/460/460
f 461/461/461 462/462/462 463/463/463
f 461/461/461 463/463/463 464/464/464
f 465/465/465 466/466/466 467/467/467
f 465/465/465 467/467/467 468/468/468
f 469/469/469 470/470/470 471/471/471
f 469/469/469 471/471/471 472/472/472
f 473/473/473 474/474/474 475/475/475
f 473/473/473 475/475/475 476/476/476
f 477/477/477 478/478/478 479/479/479
f 477/477/477 479/479/479 480/480/480
f 481/481/481 482/482/482 483/483/483
f 481/481/481 483/483/483 484/484/484
f 485/485/485 486/486/486 487/487/487
f 485/485/485 487/487/487 488/488/488
f 489/489/489 490/490/490 491/491/491
f 489/489/489 491/491/491 492/492/492
f 493/493/493 494/494/494 495/495/495
f 493/493/493 495/495/495 496/496/496
f 497/497/497 498/498/498 499/499/499
f 497/497/497 499/499/499 500/500/500
f 501/501/501 502/502/502 503/503/503
f 501/501/501 503/503/503 504/504/504
f 505/505/505 506/506/506 507/507/507
f 505/505/505 507/507/507 508/508/508
f 509/509/509 510/510/510 511/511/511
f 509/509/509 511/511/511 512/512/512
f 513/513/513 514/514/514 515/515/515
f 513/513/513 515/515/515 516/516/516
f 517/517/517 518/518/518 519/519/519
f 517/517/517 519/519/519 520/520/520
f 521/521/521 522/522/522 523/523/523
f 521/521/521 523/523/523 524/524/524
f 525/525/525 526/526/526 527/527/527
f 525/525/525 527/527/527 528/528/528
f 529/529/529 530/530/530 531/531/531
f 529/529/529 531/531/531 532/532/532
f 533/533/533 534/534/534 535/535/535
f 533/533/533 535/535/535 536/536/536
f 537/537/537 538/538/538 539/539/539
f 537/537/537 539/539/539 540/540/540
f 541/541/541 542/542/542 543/543/543
f 541/541/541 543/543/543 544/544/544
f 545/545/545 546/546/546 547/547/547
f 545/545/545 547/547/547 548/548/548
f 549/549/549 550/550/550 551/551/551
f 549/549/549 551/551/551 552/552/552
f 553/553/553 554/554/554 555/555/555
f 553/553/553 555/555/555 556/556/556
