v -0.220387 0.181218 -0.162243
v -0.220387 0.181032 -0.159196
v -0.211951 0.180264 -0.159196
v -0.211951 0.179196 -0.137638
v -0.208436 0.179944 -0.159196
v -0.211951 0.180264 -0.159196
v -0.208436 0.179944 -0.159196
v -0.220387 0.181218 -0.162243
v -0.211951 0.180264 -0.159196
v -0.208436 0.179944 -0.159196
v -0.2 0.179904 -0.162243
v -0.220387 0.181218 -0.162243
v -0.2 0.179665 -0.159196
v -0.2 0.179904 -0.162243
v -0.208436 0.179944 -0.159196
v -0.211951 0.179196 -0.137638
v -0.208436 0.178875 -0.137638
v -0.208436 0.179944 -0.159196
vn 0.0905 0.994 0.0607
vn 0.0905 0.994 0.0607
vn 0.0905 0.994 0.0607
vn 0.0906 0.9947 0.0493
vn 0.0906 0.9947 0.0493
vn 0.0906 0.9947 0.0493
vn 0.0906 0.994 0.0606
vn 0.0906 0.994 0.0606
vn 0.0906 0.994 0.0606
vn 0.0634 0.9846 0.163
vn 0.0634 0.9846 0.163
vn 0.0634 0.9846 0.163
vn 0.033 0.9964 0.0784
vn 0.033 0.9964 0.0784
vn 0.033 0.9964 0.0784
vn 0.0906 0.9947 0.0493
vn 0.0906 0.9947 0.0493
vn 0.0906 0.9947 0.0493
vt 0.384879 0.432546
vt 0.384879 0.434137
vt 0.389286 0.434137
vt 0.389286 0.445399
vt 0.391122 0.434137
vt 0.389286 0.434137
vt 0.391122 0.434137
vt 0.384879 0.432546
vt 0.389286 0.434137
vt 0.391122 0.434137
vt 0.395528 0.432546
vt 0.384879 0.432546
vt 0.395528 0.434137
vt 0.395528 0.432546
vt 0.391122 0.434137
vt 0.389286 0.445399
vt 0.391122 0.445399
vt 0.391122 0.434137
s off
f 1/1/1 2/2/2 3/3/3
f 4/4/4 5/5/5 6/6/6
f 7/7/7 8/8/8 9/9/9
f 10/10/10 11/11/11 12/12/12
f 13/13/13 14/14/14 15/15/15
f 16/16/16 17/17/17 18/18/18
