v -0.877038 0.179716 -0.15945
v -0.874354 0.179655 -0.159016
v -0.874092 0.179875 -0.162125
v -0.893076 0.17949 -0.14623
v -0.899169 0.180182 -0.153494
v -0.898231 0.180019 -0.151229
v -0.877024 0.179459 -0.15443
v -0.874057 0.179439 -0.154866
v -0.875943 0.179534 -0.156204
v -0.875961 0.179366 -0.152899
v -0.874057 0.179439 -0.154866
v -0.877024 0.179459 -0.15443
v -0.877038 0.179716 -0.15945
v -0.874092 0.179875 -0.162125
v -0.876973 0.179862 -0.16154
v -0.87675 0.179558 -0.156443
v -0.87949 0.179534 -0.155197
v -0.877024 0.179459 -0.15443
v -0.875961 0.179366 -0.152899
v -0.873163 0.179326 -0.152912
v -0.874057 0.179439 -0.154866
v -0.91979 0.181968 -0.163649
v -0.922602 0.182172 -0.163649
v -0.922602 0.181414 -0.14623
v -0.90487 0.181233 -0.16607
v -0.907761 0.18065 -0.153494
v -0.903465 0.180958 -0.163258
v -0.91979 0.181968 -0.163649
v -0.912994 0.181506 -0.163649
v -0.912994 0.181676 -0.16607
v -0.90487 0.181233 -0.16607
v -0.903465 0.180958 -0.163258
v -0.902136 0.181084 -0.16607
v -0.873268 0.179167 -0.149773
v -0.876034 0.179249 -0.150597
v -0.87528 0.179075 -0.147401
v -0.879466 0.179196 -0.148593
v -0.887296 0.179323 -0.148573
v -0.878725 0.179067 -0.146273
v -0.878119 0.179662 -0.158098
v -0.87675 0.179558 -0.156443
v -0.875453 0.179582 -0.157282
v -0.880255 0.179658 -0.157415
v -0.887218 0.179759 -0.1574
v -0.887296 0.179652 -0.155213
v -0.874354 0.179655 -0.159016
v -0.877038 0.179716 -0.15945
v -0.875453 0.179582 -0.157282
v -0.887218 0.179759 -0.1574
v -0.887218 0.180214 -0.163727
v -0.890186 0.180534 -0.16607
v -0.87675 0.179558 -0.156443
v -0.878119 0.179662 -0.158098
v -0.87949 0.179534 -0.155197
v -0.887296 0.179652 -0.155213
v -0.890186 0.179333 -0.14623
v -0.887296 0.179323 -0.148573
v -0.877121 0.179199 -0.149306
v -0.87528 0.179075 -0.147401
v -0.876034 0.179249 -0.150597
v -0.887296 0.179323 -0.148573
v -0.890186 0.179333 -0.14623
v -0.878725 0.179067 -0.146273
v -0.893076 0.17949 -0.14623
v -0.898231 0.180019 -0.151229
v -0.896044 0.179652 -0.14623
v -0.91979 0.181968 -0.163649
v -0.912994 0.181676 -0.16607
v -0.929397 0.182837 -0.16607
v -0.890186 0.180534 -0.16607
v -0.887218 0.180214 -0.163727
v -0.881303 0.180139 -0.163848
v -0.878725 0.179067 -0.146273
v -0.87528 0.179075 -0.147401
v -0.877121 0.179199 -0.149306
v -0.877038 0.179716 -0.15945
v -0.878119 0.179662 -0.158098
v -0.875453 0.179582 -0.157282
v -0.890186 0.180534 -0.16607
v -0.887296 0.179652 -0.155213
v -0.887218 0.179759 -0.1574
v -0.876057 0.180154 -0.164816
v -0.878009 0.180017 -0.163048
v -0.876973 0.179862 -0.16154
v -0.874092 0.179875 -0.162125
v -0.887296 0.179652 -0.155213
v -0.890186 0.180534 -0.16607
v -0.890186 0.179333 -0.14623
v -0.878009 0.180017 -0.163048
v -0.876057 0.180154 -0.164816
v -0.879197 0.180307 -0.16598
v -0.929397 0.182837 -0.16607
v -0.929397 0.182727 -0.163649
v -0.922602 0.182172 -0.163649
v -0.907761 0.18065 -0.153494
v -0.90487 0.181233 -0.16607
v -0.913854 0.1807 -0.14623
v -0.908777 0.180593 -0.151229
v -0.913854 0.1807 -0.14623
v -0.910963 0.180496 -0.14623
v -0.908777 0.180593 -0.151229
v -0.881303 0.180139 -0.163848
v -0.879197 0.180307 -0.16598
v -0.890186 0.180534 -0.16607
v -0.929397 0.182837 -0.16607
v -0.922602 0.182172 -0.163649
v -0.91979 0.181968 -0.163649
v -0.91979 0.181181 -0.14623
v -0.91979 0.181968 -0.163649
v -0.922602 0.181414 -0.14623
v -0.899169 0.180182 -0.153494
v -0.893076 0.17949 -0.14623
v -0.902136 0.181084 -0.16607
v -0.903465 0.180958 -0.163258
v -0.879197 0.180307 -0.16598
v -0.881303 0.180139 -0.163848
v -0.878009 0.180017 -0.163048
v -0.878725 0.179067 -0.146273
v -0.877121 0.179199 -0.149306
v -0.879466 0.179196 -0.148593
v -0.880255 0.179658 -0.157415
v -0.887296 0.179652 -0.155213
v -0.87949 0.179534 -0.155197
v -0.877024 0.179459 -0.15443
v -0.875943 0.179534 -0.156204
v -0.87675 0.179558 -0.156443
v -0.898231 0.180019 -0.151229
v -0.899169 0.180182 -0.153494
v -0.907761 0.18065 -0.153494
v -0.908777 0.180593 -0.151229
v -0.878119 0.179662 -0.158098
v -0.880255 0.179658 -0.157415
v -0.87949 0.179534 -0.155197
v -0.873163 0.179326 -0.152912
v -0.875961 0.179366 -0.152899
v -0.876034 0.179249 -0.150597
v -0.873268 0.179167 -0.149773
v -0.912994 0.181676 -0.16607
v -0.912994 0.181676 -0.16607
v -0.87675 0.179558 -0.156443
v -0.876828 0.17956 -0.156462
vn 0.011 0.9974 0.0714
vn 0.011 0.9974 0.0714
vn 0.011 0.9974 0.0714
vn 0.0543 0.9973 0.0494
vn 0.0543 0.9973 0.0494
vn 0.0543 0.9973 0.0494
vn 0.0144 0.9986 0.0511
vn 0.0144 0.9986 0.0511
vn 0.0144 0.9986 0.0511
vn 0.0144 0.9986 0.051
vn 0.0144 0.9986 0.051
vn 0.0144 0.9986 0.051
vn 0.0098 0.9975 0.0701
vn 0.0098 0.9975 0.0701
vn 0.0098 0.9975 0.0701
vn 0.0144 0.9986 0.051
vn 0.0144 0.9986 0.051
vn 0.0144 0.9986 0.051
vn 0.0144 0.9986 0.051
vn 0.0144 0.9986 0.051
vn 0.0144 0.9986 0.051
vn 0.0724 0.9964 0.0434
vn 0.0724 0.9964 0.0434
vn 0.0724 0.9964 0.0434
vn 0.0701 0.9956 0.0623
vn 0.0701 0.9956 0.0623
vn 0.0701 0.9956 0.0623
vn 0.0677 0.9952 0.0701
vn 0.0677 0.9952 0.0701
vn 0.0677 0.9952 0.0701
vn 0.0543 0.9961 0.0702
vn 0.0543 0.9961 0.0702
vn 0.0543 0.9961 0.0702
vn 0.0144 0.9986 0.051
vn 0.0144 0.9986 0.051
vn 0.0144 0.9986 0.051
vn 0.0163 0.9986 0.0504
vn 0.0163 0.9986 0.0504
vn 0.0163 0.9986 0.0504
vn 0.0144 0.9986 0.051
vn 0.0144 0.9986 0.051
vn 0.0144 0.9986 0.051
vn 0.0146 0.9987 0.0494
vn 0.0146 0.9987 0.0494
vn 0.0146 0.9987 0.0494
vn 0.0144 0.9986 0.051
vn 0.0144 0.9986 0.051
vn 0.0144 0.9986 0.051
vn 0.0509 0.9961 0.0716
vn 0.0509 0.9961 0.0716
vn 0.0509 0.9961 0.0716
vn 0.0144 0.9986 0.051
vn 0.0144 0.9986 0.051
vn 0.0144 0.9986 0.051
vn 0.0435 0.9978 0.0494
vn 0.0435 0.9978 0.0494
vn 0.0435 0.9978 0.0494
vn 0.0143 0.9986 0.051
vn 0.0143 0.9986 0.051
vn 0.0143 0.9986 0.051
vn 0.0233 0.9994 0.0245
vn 0.0233 0.9994 0.0245
vn 0.0233 0.9994 0.0245
vn 0.0543 0.9973 0.0494
vn 0.0543 0.9973 0.0494
vn 0.0543 0.9973 0.0494
vn 0.0704 0.9945 0.0778
vn 0.0704 0.9945 0.0778
vn 0.0704 0.9945 0.0778
vn 0.0148 0.993 0.1168
vn 0.0148 0.993 0.1168
vn 0.0148 0.993 0.1168
vn 0.0143 0.9986 0.051
vn 0.0143 0.9986 0.051
vn 0.0143 0.9986 0.051
vn 0.0144 0.9986 0.051
vn 0.0144 0.9986 0.051
vn 0.0144 0.9986 0.051
vn 0.1062 0.993 0.0524
vn 0.1062 0.993 0.0524
vn 0.1062 0.993 0.0524
vn 0.0144 0.9956 0.0926
vn 0.0144 0.9956 0.0926
vn 0.0144 0.9956 0.0926
vn 0.0144 0.9956 0.0926
vn 0.0773 0.9952 0.0602
vn 0.0773 0.9952 0.0602
vn 0.0773 0.9952 0.0602
vn 0.0144 0.9956 0.0926
vn 0.0144 0.9956 0.0926
vn 0.0144 0.9956 0.0926
vn 0.0812 0.9957 0.0455
vn 0.0812 0.9957 0.0455
vn 0.0812 0.9957 0.0455
vn 0.0864 0.9941 0.0656
vn 0.0864 0.9941 0.0656
vn 0.0864 0.9941 0.0656
vn 0.0864 0.9941 0.0656
vn 0.0702 0.9963 0.05
vn 0.0702 0.9963 0.05
vn 0.0702 0.9963 0.05
vn 0.0197 0.995 0.0978
vn 0.0197 0.995 0.0978
vn 0.0197 0.995 0.0978
vn 0.0723 0.9949 0.0702
vn 0.0723 0.9949 0.0702
vn 0.0723 0.9949 0.0702
vn 0.0825 0.9956 0.045
vn 0.0825 0.9956 0.045
vn 0.0825 0.9956 0.045
vn 0.0386 0.9973 0.0624
vn 0.0386 0.9973 0.0624
vn 0.0386 0.9973 0.0624
vn 0.0386 0.9973 0.0624
vn 0.0144 0.9956 0.0926
vn 0.0144 0.9956 0.0926
vn 0.0144 0.9956 0.0926
vn 0.0144 0.9986 0.051
vn 0.0144 0.9986 0.051
vn 0.0144 0.9986 0.051
vn 0.015 0.9986 0.0508
vn 0.015 0.9986 0.0508
vn 0.015 0.9986 0.0508
vn 0.0143 0.9986 0.051
vn 0.0143 0.9986 0.051
vn 0.0143 0.9986 0.051
vn 0.0543 0.9973 0.0494
vn 0.0543 0.9973 0.0494
vn 0.0543 0.9973 0.0494
vn 0.0543 0.9973 0.0494
vn 0.0144 0.9986 0.051
vn 0.0144 0.9986 0.051
vn 0.0144 0.9986 0.051
vn 0.0144 0.9986 0.051
vn 0.0144 0.9986 0.051
vn 0.0144 0.9986 0.051
vn 0.0144 0.9986 0.051
vn 0 0 0
vn 0 0 0
vn 0 0 0
vn 0 0 0
vt 0.041872 0.434005
vt 0.043274 0.434232
vt 0.043411 0.432608
vt 0.033494 0.44091
vt 0.030312 0.437116
vt 0.030801 0.438299
vt 0.041879 0.436627
vt 0.043429 0.436399
vt 0.042444 0.4357
vt 0.042435 0.437427
vt 0.043429 0.436399
vt 0.041879 0.436627
vt 0.041872 0.434005
vt 0.043411 0.432608
vt 0.041906 0.432913
vt 0.042022 0.435576
vt 0.040591 0.436226
vt 0.041879 0.436627
vt 0.042435 0.437427
vt 0.043896 0.43742
vt 0.043429 0.436399
vt 0.01954 0.431812
vt 0.018071 0.431812
vt 0.018071 0.44091
vt 0.027333 0.430547
vt 0.025824 0.437116
vt 0.028068 0.432016
vt 0.01954 0.431812
vt 0.02309 0.431812
vt 0.02309 0.430547
vt 0.027333 0.430547
vt 0.028068 0.432016
vt 0.028762 0.430547
vt 0.043841 0.439059
vt 0.042397 0.438629
vt 0.04279 0.440299
vt 0.040604 0.439676
vt 0.036514 0.439686
vt 0.040991 0.440888
vt 0.041308 0.434711
vt 0.042022 0.435576
vt 0.0427 0.435137
vt 0.040191 0.435068
vt 0.036555 0.435076
vt 0.036514 0.436218
vt 0.043274 0.434232
vt 0.041872 0.434005
vt 0.0427 0.435137
vt 0.036555 0.435076
vt 0.036555 0.431771
vt 0.035004 0.430547
vt 0.042022 0.435576
vt 0.041308 0.434711
vt 0.040591 0.436226
vt 0.036514 0.436218
vt 0.035004 0.44091
vt 0.036514 0.439686
vt 0.041829 0.439304
vt 0.04279 0.440299
vt 0.042397 0.438629
vt 0.036514 0.439686
vt 0.035004 0.44091
vt 0.040991 0.440888
vt 0.033494 0.44091
vt 0.030801 0.438299
vt 0.031944 0.44091
vt 0.01954 0.431812
vt 0.02309 0.430547
vt 0.014522 0.430547
vt 0.035004 0.430547
vt 0.036555 0.431771
vt 0.039644 0.431707
vt 0.040991 0.440888
vt 0.04279 0.440299
vt 0.041829 0.439304
vt 0.041872 0.434005
vt 0.041308 0.434711
vt 0.0427 0.435137
vt 0.035004 0.430547
vt 0.036514 0.436218
vt 0.036555 0.435076
vt 0.042384 0.431202
vt 0.041365 0.432125
vt 0.041906 0.432913
vt 0.043411 0.432608
vt 0.036514 0.436218
vt 0.035004 0.430547
vt 0.035004 0.44091
vt 0.041365 0.432125
vt 0.042384 0.431202
vt 0.040744 0.430593
vt 0.014522 0.430547
vt 0.014522 0.431812
vt 0.018071 0.431812
vt 0.025824 0.437116
vt 0.027333 0.430547
vt 0.022641 0.44091
vt 0.025293 0.438299
vt 0.022641 0.44091
vt 0.024151 0.44091
vt 0.025293 0.438299
vt 0.039644 0.431707
vt 0.040744 0.430593
vt 0.035004 0.430547
vt 0.014522 0.430547
vt 0.018071 0.431812
vt 0.01954 0.431812
vt 0.01954 0.44091
vt 0.01954 0.431812
vt 0.018071 0.44091
vt 0.030312 0.437116
vt 0.033494 0.44091
vt 0.028762 0.430547
vt 0.028068 0.432016
vt 0.040744 0.430593
vt 0.039644 0.431707
vt 0.041365 0.432125
vt 0.040991 0.440888
vt 0.041829 0.439304
vt 0.040604 0.439676
vt 0.040191 0.435068
vt 0.036514 0.436218
vt 0.040591 0.436226
vt 0.041879 0.436627
vt 0.042444 0.4357
vt 0.042022 0.435576
vt 0.030801 0.438299
vt 0.030312 0.437116
vt 0.025824 0.437116
vt 0.025293 0.438299
vt 0.041308 0.434711
vt 0.040191 0.435068
vt 0.040591 0.436226
vt 0.043896 0.43742
vt 0.042435 0.437427
vt 0.042397 0.438629
vt 0.043841 0.439059
vt 0 1
vt 0 1
vt 0 1
vt 0 1
s off
f 1/1/1 2/2/2 3/3/3
f 4/4/4 5/5/5 6/6/6
f 7/7/7 8/8/8 9/9/9
f 10/10/10 11/11/11 12/12/12
f 13/13/13 14/14/14 15/15/15
f 16/16/16 17/17/17 18/18/18
f 19/19/19 20/20/20 21/21/21
f 22/22/22 23/23/23 24/24/24
f 25/25/25 26/26/26 27/27/27
f 28/28/28 29/29/29 30/30/30
f 31/31/31 32/32/32 33/33/33
f 34/34/34 35/35/35 36/36/36
f 37/37/37 38/38/38 39/39/39
f 40/40/40 41/41/41 42/42/42
f 43/43/43 44/44/44 45/45/45
f 46/46/46 47/47/47 48/48/48
f 49/49/49 50/50/50 51/51/51
f 52/52/52 53/53/53 54/54/54
f 55/55/55 56/56/56 57/57/57
f 58/58/58 59/59/59 60/60/60
f 61/61/61 62/62/62 63/63/63
f 64/64/64 65/65/65 66/66/66
f 67/67/67 68/68/68 69/69/69
f 70/70/70 71/71/71 72/72/72
f 73/73/73 74/74/74 75/75/75
f 76/76/76 77/77/77 78/78/78
f 79/79/79 80/80/80 81/81/81
f 82/82/82 83/83/83 84/84/84
f 82/82/82 84/84/84 85/85/85
f 86/86/86 87/87/87 88/88/88
f 89/89/89 90/90/90 91/91/91
f 92/92/92 93/93/93 94/94/94
f 95/95/95 96/96/96 97/97/97
f 95/95/95 97/97/97 98/98/98
f 99/99/99 100/100/100 101/101/101
f 102/102/102 103/103/103 104/104/104
f 105/105/105 106/106/106 107/107/107
f 108/108/108 109/109/109 110/110/110
f 111/111/111 112/112/112 113/113/113
f 111/111/111 113/113/113 114/114/114
f 115/115/115 116/116/116 117/117/117
f 118/118/118 119/119/119 120/120/120
f 121/121/121 122/122/122 123/123/123
f 124/124/124 125/125/125 126/126/126
f 127/127/127 128/128/128 129/129/129
f 127/127/127 129/129/129 130/130/130
f 131/131/131 132/132/132 133/133/133
f 134/134/134 135/135/135 136/136/136
f 134/134/134 136/136/136 137/137/137
f 138/138/138 139/139/139 140/140/140
