v -0.915425 0.175551 -0.078809
v -0.926382 0.129003 -0.064663
v -0.893934 0.129003 -0.064663
v -0.888496 0.173817 -0.078282
v -0.915425 0.175551 -0.078809
v -0.936163 0.177661 -0.07945
v -0.943374 0.129003 -0.064663
v -0.926382 0.129003 -0.064663
v -0.888496 0.173817 -0.078282
v -0.893934 0.129003 -0.064663
v -0.861638 0.129003 -0.064663
v -0.861638 0.173377 -0.078148
v -0.861638 0.129003 -0.064663
v -0.829341 0.129003 -0.064663
v -0.834779 0.173817 -0.078282
v -0.861638 0.173377 -0.078148
v -0.834779 0.173817 -0.078282
v -0.829341 0.129003 -0.064663
v -0.796894 0.129003 -0.064663
v -0.80785 0.175551 -0.078809
v -0.787112 0.177661 -0.07945
v -0.80785 0.175551 -0.078809
v -0.796894 0.129003 -0.064663
v -0.779902 0.129003 -0.064663
v -0.779902 0.129003 -0.064663
v -0.77106 0.129125 -0.068351
v -0.787112 0.177661 -0.07945
v -0.77106 0.129125 -0.068351
v -0.767398 0.129417 -0.077255
v -0.781186 0.17844 -0.085944
v -0.787112 0.177661 -0.07945
v -0.781186 0.17844 -0.085944
v -0.767398 0.129417 -0.077255
v -0.767398 0.132693 -0.17694
v -0.78118 0.181203 -0.17062
v -0.78118 0.181203 -0.17062
v -0.767398 0.132693 -0.17694
v -0.771064 0.132981 -0.185728
v -0.787216 0.181015 -0.176874
v -0.78118 0.181203 -0.17062
v -0.771064 0.132981 -0.185728
v -0.779914 0.133101 -0.189368
v -0.807895 0.179703 -0.177216
v -0.787216 0.181015 -0.176874
v -0.779914 0.133101 -0.189368
v -0.796894 0.133101 -0.189368
v -0.787948 0.183576 -0.173398
v -0.78466 0.183588 -0.169261
v -0.78118 0.181203 -0.17062
v -0.787216 0.181015 -0.176874
v -0.808519 0.182168 -0.173743
v -0.787948 0.183576 -0.173398
v -0.787216 0.181015 -0.176874
v -0.807895 0.179703 -0.177216
v -0.835141 0.18104 -0.174026
v -0.808519 0.182168 -0.173743
v -0.807895 0.179703 -0.177216
v -0.834823 0.178623 -0.177498
v -0.807895 0.179703 -0.177216
v -0.796894 0.133101 -0.189368
v -0.829341 0.133101 -0.189368
v -0.834823 0.178623 -0.177498
v -0.861638 0.180753 -0.174098
v -0.835141 0.18104 -0.174026
v -0.834823 0.178623 -0.177498
v -0.861638 0.17835 -0.177569
v -0.834823 0.178623 -0.177498
v -0.829341 0.133101 -0.189368
v -0.861638 0.133101 -0.189368
v -0.861638 0.17835 -0.177569
v -0.808499 0.181229 -0.160393
v -0.808519 0.182168 -0.173743
v -0.835141 0.18104 -0.174026
v -0.835124 0.179788 -0.16056
v -0.835124 0.179788 -0.16056
v -0.835141 0.18104 -0.174026
v -0.861638 0.180753 -0.174098
v -0.861638 0.179408 -0.160601
v -0.808459 0.178455 -0.095781
v -0.808499 0.181229 -0.160393
v -0.835124 0.179788 -0.16056
v -0.835093 0.176561 -0.095403
v -0.835093 0.176561 -0.095403
v -0.835124 0.179788 -0.16056
v -0.861638 0.179408 -0.160601
v -0.861638 0.176073 -0.095311
v -0.808472 0.178245 -0.082401
v -0.808459 0.178455 -0.095781
v -0.835093 0.176561 -0.095403
v -0.835101 0.176498 -0.081879
v -0.835101 0.176498 -0.081879
v -0.835093 0.176561 -0.095403
v -0.861638 0.176073 -0.095311
v -0.861638 0.176055 -0.081747
v -0.808472 0.178245 -0.082401
v -0.835101 0.176498 -0.081879
v -0.834779 0.173817 -0.078282
v -0.80785 0.175551 -0.078809
v -0.835101 0.176498 -0.081879
v -0.861638 0.176055 -0.081747
v -0.861638 0.173377 -0.078148
v -0.834779 0.173817 -0.078282
v -0.888175 0.176498 -0.081879
v -0.888496 0.173817 -0.078282
v -0.861638 0.173377 -0.078148
v -0.861638 0.176055 -0.081747
v -0.888183 0.176561 -0.095403
v -0.888175 0.176498 -0.081879
v -0.861638 0.176055 -0.081747
v -0.861638 0.176073 -0.095311
v -0.888175 0.176498 -0.081879
v -0.914804 0.178245 -0.082401
v -0.915425 0.175551 -0.078809
v -0.888496 0.173817 -0.078282
v -0.888175 0.176498 -0.081879
v -0.888183 0.176561 -0.095403
v -0.914816 0.178455 -0.095781
v -0.914804 0.178245 -0.082401
v -0.914804 0.178245 -0.082401
v -0.935374 0.180389 -0.083037
v -0.936163 0.177661 -0.07945
v -0.915425 0.175551 -0.078809
v -0.93862 0.18083 -0.087377
v -0.935374 0.180389 -0.083037
v -0.914804 0.178245 -0.082401
v -0.914816 0.178455 -0.095781
v -0.935374 0.180389 -0.083037
v -0.93862 0.18083 -0.087377
v -0.942089 0.17844 -0.085944
v -0.936163 0.177661 -0.07945
v -0.938616 0.183588 -0.169261
v -0.93862 0.18083 -0.087377
v -0.914816 0.178455 -0.095781
v -0.914777 0.181229 -0.160393
v -0.942095 0.181203 -0.17062
v -0.942089 0.17844 -0.085944
v -0.93862 0.18083 -0.087377
v -0.938616 0.183588 -0.169261
v -0.938616 0.183588 -0.169261
v -0.935328 0.183576 -0.173398
v -0.93606 0.181015 -0.176874
v -0.942095 0.181203 -0.17062
v -0.938616 0.183588 -0.169261
v -0.914777 0.181229 -0.160393
v -0.914757 0.182168 -0.173743
v -0.935328 0.183576 -0.173398
v -0.888183 0.176561 -0.095403
v -0.888151 0.179788 -0.16056
v -0.914777 0.181229 -0.160393
v -0.914816 0.178455 -0.095781
v -0.888151 0.179788 -0.16056
v -0.888134 0.18104 -0.174026
v -0.914757 0.182168 -0.173743
v -0.914777 0.181229 -0.160393
v -0.888151 0.179788 -0.16056
v -0.888183 0.176561 -0.095403
v -0.861638 0.176073 -0.095311
v -0.861638 0.179408 -0.160601
v -0.888134 0.18104 -0.174026
v -0.888151 0.179788 -0.16056
v -0.861638 0.179408 -0.160601
v -0.861638 0.180753 -0.174098
v -0.888134 0.18104 -0.174026
v -0.861638 0.180753 -0.174098
v -0.861638 0.17835 -0.177569
v -0.888453 0.178623 -0.177498
v -0.914757 0.182168 -0.173743
v -0.888134 0.18104 -0.174026
v -0.888453 0.178623 -0.177498
v -0.915381 0.179703 -0.177216
v -0.893934 0.133101 -0.189368
v -0.888453 0.178623 -0.177498
v -0.861638 0.17835 -0.177569
v -0.861638 0.133101 -0.189368
v -0.888453 0.178623 -0.177498
v -0.893934 0.133101 -0.189368
v -0.926382 0.133101 -0.189368
v -0.915381 0.179703 -0.177216
v -0.93606 0.181015 -0.176874
v -0.915381 0.179703 -0.177216
v -0.926382 0.133101 -0.189368
v -0.943362 0.133101 -0.189368
v -0.943362 0.133101 -0.189368
v -0.952211 0.132981 -0.185728
v -0.942095 0.181203 -0.17062
v -0.93606 0.181015 -0.176874
v -0.952211 0.132981 -0.185728
v -0.955877 0.132693 -0.17694
v -0.942095 0.181203 -0.17062
v -0.955877 0.132693 -0.17694
v -0.955877 0.129417 -0.077255
v -0.942089 0.17844 -0.085944
v -0.942095 0.181203 -0.17062
v -0.955877 0.129417 -0.077255
v -0.952215 0.129125 -0.068352
v -0.936163 0.177661 -0.07945
v -0.942089 0.17844 -0.085944
v -0.952215 0.129125 -0.068352
v -0.943374 0.129003 -0.064663
v -0.936163 0.177661 -0.07945
v -0.935328 0.183576 -0.173398
v -0.914757 0.182168 -0.173743
v -0.915381 0.179703 -0.177216
v -0.93606 0.181015 -0.176874
v -0.787901 0.180389 -0.083037
v -0.808472 0.178245 -0.082401
v -0.80785 0.175551 -0.078809
v -0.787112 0.177661 -0.07945
v -0.808472 0.178245 -0.082401
v -0.787901 0.180389 -0.083037
v -0.784655 0.18083 -0.087377
v -0.808459 0.178455 -0.095781
v -0.784655 0.18083 -0.087377
v -0.787901 0.180389 -0.083037
v -0.787112 0.177661 -0.07945
v -0.781186 0.17844 -0.085944
v -0.78466 0.183588 -0.169261
v -0.784655 0.18083 -0.087377
v -0.781186 0.17844 -0.085944
v -0.78118 0.181203 -0.17062
v -0.808459 0.178455 -0.095781
v -0.784655 0.18083 -0.087377
v -0.78466 0.183588 -0.169261
v -0.808499 0.181229 -0.160393
v -0.808499 0.181229 -0.160393
v -0.78466 0.183588 -0.169261
v -0.787948 0.183576 -0.173398
v -0.808519 0.182168 -0.173743
v -0.926382 0.117741 -0.065034
v -0.926382 0.129003 -0.064663
v -0.943374 0.129003 -0.064663
v -0.943382 0.117741 -0.065034
v -0.926382 0.129003 -0.064663
v -0.926382 0.117741 -0.065034
v -0.893934 0.117741 -0.065034
v -0.893934 0.129003 -0.064663
v -0.952218 0.117862 -0.068718
v -0.943382 0.117741 -0.065034
v -0.943374 0.129003 -0.064663
v -0.952215 0.129125 -0.068352
v -0.955877 0.118155 -0.077614
v -0.952218 0.117862 -0.068718
v -0.952215 0.129125 -0.068352
v -0.955877 0.129417 -0.077255
v -0.955877 0.121431 -0.177316
v -0.955877 0.118155 -0.077614
v -0.955877 0.129417 -0.077255
v -0.955877 0.132693 -0.17694
v -0.952214 0.121719 -0.1861
v -0.955877 0.121431 -0.177316
v -0.955877 0.132693 -0.17694
v -0.952211 0.132981 -0.185728
v -0.94337 0.121839 -0.189738
v -0.952214 0.121719 -0.1861
v -0.952211 0.132981 -0.185728
v -0.943362 0.133101 -0.189368
v -0.94337 0.121839 -0.189738
v -0.943362 0.133101 -0.189368
v -0.926382 0.133101 -0.189368
v -0.926382 0.121839 -0.189738
v -0.893934 0.133101 -0.189368
v -0.893934 0.121839 -0.189738
v -0.926382 0.121839 -0.189738
v -0.926382 0.133101 -0.189368
v -0.861638 0.121839 -0.189738
v -0.893934 0.121839 -0.189738
v -0.893934 0.133101 -0.189368
v -0.861638 0.133101 -0.189368
v -0.829341 0.133101 -0.189368
v -0.829341 0.121839 -0.189738
v -0.861638 0.121839 -0.189738
v -0.861638 0.133101 -0.189368
v -0.796894 0.133101 -0.189368
v -0.796894 0.121839 -0.189738
v -0.829341 0.121839 -0.189738
v -0.829341 0.133101 -0.189368
v -0.796894 0.121839 -0.189738
v -0.796894 0.133101 -0.189368
v -0.779914 0.133101 -0.189368
v -0.779905 0.121839 -0.189738
v -0.779914 0.133101 -0.189368
v -0.771064 0.132981 -0.185728
v -0.771061 0.121719 -0.1861
v -0.779905 0.121839 -0.189738
v -0.771064 0.132981 -0.185728
v -0.767398 0.132693 -0.17694
v -0.767398 0.121431 -0.177316
v -0.771061 0.121719 -0.1861
v -0.767398 0.121431 -0.177316
v -0.767398 0.132693 -0.17694
v -0.767398 0.129417 -0.077255
v -0.767398 0.118155 -0.077614
v -0.771058 0.117862 -0.068718
v -0.767398 0.118155 -0.077614
v -0.767398 0.129417 -0.077255
v -0.77106 0.129125 -0.068351
v -0.779894 0.117741 -0.065033
v -0.771058 0.117862 -0.068718
v -0.77106 0.129125 -0.068351
v -0.779902 0.129003 -0.064663
v -0.779894 0.117741 -0.065033
v -0.779902 0.129003 -0.064663
v -0.796894 0.129003 -0.064663
v -0.796894 0.117741 -0.065034
v -0.829341 0.129003 -0.064663
v -0.829341 0.117741 -0.065033
v -0.796894 0.117741 -0.065034
v -0.796894 0.129003 -0.064663
v -0.861638 0.117741 -0.065034
v -0.829341 0.117741 -0.065033
v -0.829341 0.129003 -0.064663
v -0.861638 0.129003 -0.064663
v -0.893934 0.129003 -0.064663
v -0.893934 0.117741 -0.065034
v -0.861638 0.117741 -0.065034
v -0.861638 0.129003 -0.064663
vn -0 0.2909 0.9568
vn -0 0.2908 0.9568
vn -0 0.2908 0.9568
vn -0 0.2908 0.9568
vn -0 0.2909 0.9568
vn -0 0.2908 0.9568
vn -0.0001 0.2908 0.9568
vn -0 0.2908 0.9568
vn -0 0.2908 0.9568
vn -0 0.2908 0.9568
vn -0 0.2908 0.9568
vn -0 0.2908 0.9568
vn -0 0.2908 0.9568
vn -0 0.2908 0.9568
vn -0 0.2908 0.9568
vn -0 0.2908 0.9568
vn -0 0.2908 0.9568
vn -0 0.2908 0.9568
vn -0 0.2908 0.9568
vn -0 0.2909 0.9568
vn -0 0.2908 0.9568
vn -0 0.2909 0.9568
vn -0 0.2908 0.9568
vn 0.0001 0.2908 0.9568
vn 0.0001 0.2908 0.9568
vn 0.6673 0.3385 0.6634
vn -0 0.2908 0.9568
vn 0.6673 0.3385 0.6634
vn 0.9622 0.2722 0.009
vn 0.9622 0.2722 0.0089
vn -0 0.2908 0.9568
vn 0.9622 0.2722 0.0089
vn 0.9622 0.2722 0.009
vn 0.9622 0.2722 0.0088
vn 0.9622 0.2722 0.0089
vn 0.9622 0.2722 0.0089
vn 0.9622 0.2722 0.0088
vn 0.6762 0.3147 -0.6662
vn -0 0.2523 -0.9676
vn 0.9622 0.2722 0.0089
vn 0.6762 0.3147 -0.6662
vn 0.0001 0.2523 -0.9676
vn -0 0.2524 -0.9676
vn -0 0.2523 -0.9676
vn 0.0001 0.2523 -0.9676
vn -0 0.2523 -0.9676
vn -0.0716 0.9952 0.0661
vn -0.0793 0.9955 0.0525
vn 0.9622 0.2722 0.0089
vn -0 0.2523 -0.9676
vn -0.0601 0.9957 0.0698
vn -0.0716 0.9952 0.0661
vn -0 0.2523 -0.9676
vn -0 0.2524 -0.9676
vn -0.0266 0.996 0.0847
vn -0.0601 0.9957 0.0698
vn -0 0.2524 -0.9676
vn -0 0.2524 -0.9676
vn -0 0.2524 -0.9676
vn -0 0.2523 -0.9676
vn -0 0.2523 -0.9676
vn -0 0.2524 -0.9676
vn -0 0.9958 0.0919
vn -0.0266 0.996 0.0847
vn -0 0.2524 -0.9676
vn -0 0.2524 -0.9676
vn -0 0.2524 -0.9676
vn -0 0.2523 -0.9676
vn -0 0.2523 -0.9676
vn -0 0.2524 -0.9676
vn -0.0718 0.9958 0.0562
vn -0.0601 0.9957 0.0698
vn -0.0266 0.996 0.0847
vn -0.035 0.997 0.0685
vn -0.035 0.997 0.0685
vn -0.0266 0.996 0.0847
vn -0 0.9958 0.0919
vn -0 0.9973 0.0731
vn -0.083 0.9961 0.029
vn -0.0718 0.9958 0.0562
vn -0.035 0.997 0.0685
vn -0.041 0.9988 0.0273
vn -0.041 0.9988 0.0273
vn -0.035 0.997 0.0685
vn -0 0.9973 0.0731
vn -0 0.9996 0.0266
vn -0.0857 0.9962 0.0176
vn -0.083 0.9961 0.029
vn -0.041 0.9988 0.0273
vn -0.0425 0.999 0.0105
vn -0.0425 0.999 0.0105
vn -0.041 0.9988 0.0273
vn -0 0.9996 0.0266
vn -0 1 0.007
vn -0.0857 0.9962 0.0176
vn -0.0425 0.999 0.0105
vn -0 0.2908 0.9568
vn -0 0.2909 0.9568
vn -0.0425 0.999 0.0105
vn -0 1 0.007
vn -0 0.2908 0.9568
vn -0 0.2908 0.9568
vn 0.0425 0.999 0.0105
vn -0 0.2908 0.9568
vn -0 0.2908 0.9568
vn -0 1 0.007
vn 0.041 0.9988 0.0273
vn 0.0425 0.999 0.0105
vn -0 1 0.007
vn -0 0.9996 0.0266
vn 0.0425 0.999 0.0105
vn 0.0858 0.9962 0.0176
vn -0 0.2909 0.9568
vn -0 0.2908 0.9568
vn 0.0425 0.999 0.0105
vn 0.041 0.9988 0.0273
vn 0.083 0.9961 0.029
vn 0.0858 0.9962 0.0176
vn 0.0858 0.9962 0.0176
vn 0.1023 0.9945 0.0209
vn -0 0.2908 0.9568
vn -0 0.2909 0.9568
vn 0.0979 0.9948 0.0275
vn 0.1023 0.9945 0.0209
vn 0.0858 0.9962 0.0176
vn 0.083 0.9961 0.029
vn 0.1023 0.9945 0.0209
vn 0.0979 0.9948 0.0275
vn -0.9622 0.2722 0.0089
vn -0 0.2908 0.9568
vn 0.0793 0.9955 0.0524
vn 0.0979 0.9948 0.0275
vn 0.083 0.9961 0.029
vn 0.0718 0.9958 0.0562
vn -0.9622 0.2722 0.0089
vn -0.9622 0.2722 0.0089
vn 0.0979 0.9948 0.0275
vn 0.0793 0.9955 0.0524
vn 0.0793 0.9955 0.0524
vn 0.0716 0.9952 0.0661
vn -0 0.2523 -0.9676
vn -0.9622 0.2722 0.0089
vn 0.0793 0.9955 0.0524
vn 0.0718 0.9958 0.0562
vn 0.0601 0.9957 0.0698
vn 0.0716 0.9952 0.0661
vn 0.041 0.9988 0.0273
vn 0.035 0.997 0.0685
vn 0.0718 0.9958 0.0562
vn 0.083 0.9961 0.029
vn 0.035 0.997 0.0685
vn 0.0307 0.9959 0.0847
vn 0.0601 0.9957 0.0698
vn 0.0718 0.9958 0.0562
vn 0.035 0.997 0.0685
vn 0.041 0.9988 0.0273
vn -0 0.9996 0.0266
vn -0 0.9973 0.0731
vn 0.0307 0.9959 0.0847
vn 0.035 0.997 0.0685
vn -0 0.9973 0.0731
vn -0 0.9958 0.0919
vn 0.0307 0.9959 0.0847
vn -0 0.9958 0.0919
vn -0 0.2524 -0.9676
vn -0 0.2524 -0.9676
vn 0.0601 0.9957 0.0698
vn 0.0307 0.9959 0.0847
vn -0 0.2524 -0.9676
vn -0 0.2524 -0.9676
vn -0 0.2523 -0.9676
vn -0 0.2524 -0.9676
vn -0 0.2524 -0.9676
vn -0 0.2523 -0.9676
vn -0 0.2524 -0.9676
vn -0 0.2523 -0.9676
vn -0 0.2523 -0.9676
vn -0 0.2524 -0.9676
vn -0 0.2523 -0.9676
vn -0 0.2524 -0.9676
vn -0 0.2523 -0.9676
vn -0.0001 0.2523 -0.9676
vn -0.0001 0.2523 -0.9676
vn -0.6762 0.3147 -0.6662
vn -0.9622 0.2722 0.0089
vn -0 0.2523 -0.9676
vn -0.6762 0.3147 -0.6662
vn -0.9622 0.2722 0.0089
vn -0.9622 0.2722 0.0089
vn -0.9622 0.2722 0.0089
vn -0.9622 0.2722 0.009
vn -0.9622 0.2722 0.0089
vn -0.9622 0.2722 0.0089
vn -0.9622 0.2722 0.009
vn -0.6673 0.3385 0.6634
vn -0 0.2908 0.9568
vn -0.9622 0.2722 0.0089
vn -0.6673 0.3385 0.6634
vn -0.0001 0.2908 0.9568
vn -0 0.2908 0.9568
vn 0.0716 0.9952 0.0661
vn 0.0601 0.9957 0.0698
vn -0 0.2524 -0.9676
vn -0 0.2523 -0.9676
vn -0.1023 0.9945 0.021
vn -0.0857 0.9962 0.0176
vn -0 0.2909 0.9568
vn -0 0.2908 0.9568
vn -0.0857 0.9962 0.0176
vn -0.1023 0.9945 0.021
vn -0.0989 0.9946 0.0304
vn -0.083 0.9961 0.029
vn -0.0989 0.9946 0.0304
vn -0.1023 0.9945 0.021
vn -0 0.2908 0.9568
vn 0.9622 0.2722 0.0089
vn -0.0793 0.9955 0.0525
vn -0.0989 0.9946 0.0304
vn 0.9622 0.2722 0.0089
vn 0.9622 0.2722 0.0089
vn -0.083 0.9961 0.029
vn -0.0989 0.9946 0.0304
vn -0.0793 0.9955 0.0525
vn -0.0718 0.9958 0.0562
vn -0.0718 0.9958 0.0562
vn -0.0793 0.9955 0.0525
vn -0.0716 0.9952 0.0661
vn -0.0601 0.9957 0.0698
vn -0 -0.0328 0.9995
vn -0 -0.0328 0.9995
vn -0.0001 -0.0328 0.9995
vn -0.0001 -0.0327 0.9995
vn -0 -0.0328 0.9995
vn -0 -0.0328 0.9995
vn -0 -0.0328 0.9995
vn -0 -0.0328 0.9995
vn -0.709 -0.0228 0.7049
vn -0.0001 -0.0327 0.9995
vn -0.0001 -0.0328 0.9995
vn -0.7094 -0.0228 0.7044
vn -1 -0 0.0001
vn -0.709 -0.0228 0.7049
vn -0.7094 -0.0228 0.7044
vn -1 0.0002 0.0001
vn -1 0.0001 -0.0001
vn -1 -0 0.0001
vn -1 0.0002 0.0001
vn -1 -0 -0.0001
vn -0.7055 0.0235 -0.7083
vn -1 0.0001 -0.0001
vn -1 -0 -0.0001
vn -0.7047 0.0236 -0.7091
vn -0.0001 0.0328 -0.9995
vn -0.7055 0.0235 -0.7083
vn -0.7047 0.0236 -0.7091
vn -0.0001 0.033 -0.9995
vn -0.0001 0.0328 -0.9995
vn -0.0001 0.033 -0.9995
vn -0 0.0328 -0.9995
vn -0 0.0328 -0.9995
vn -0 0.0328 -0.9995
vn -0 0.0328 -0.9995
vn -0 0.0328 -0.9995
vn -0 0.0328 -0.9995
vn -0 0.0328 -0.9995
vn -0 0.0328 -0.9995
vn -0 0.0328 -0.9995
vn -0 0.0328 -0.9995
vn -0 0.0328 -0.9995
vn -0 0.0328 -0.9995
vn -0 0.0328 -0.9995
vn -0 0.0328 -0.9995
vn -0 0.0328 -0.9995
vn -0 0.0328 -0.9995
vn -0 0.0328 -0.9995
vn -0 0.0328 -0.9995
vn -0 0.0328 -0.9995
vn -0 0.0328 -0.9995
vn 0.0001 0.0327 -0.9995
vn 0.0001 0.033 -0.9995
vn 0.0001 0.0327 -0.9995
vn 0.7049 0.0236 -0.7089
vn 0.7055 0.0235 -0.7083
vn 0.0001 0.033 -0.9995
vn 0.7049 0.0236 -0.7089
vn 1 0.0001 -0.0001
vn 1 -0 -0.0001
vn 0.7055 0.0235 -0.7083
vn 1 -0 -0.0001
vn 1 0.0001 -0.0001
vn 1 0.0001 0.0001
vn 1 0.0002 0.0001
vn 0.7089 -0.0228 0.7049
vn 1 0.0002 0.0001
vn 1 0.0001 0.0001
vn 0.709 -0.0228 0.7049
vn 0.0001 -0.0329 0.9995
vn 0.7089 -0.0228 0.7049
vn 0.709 -0.0228 0.7049
vn 0.0001 -0.0327 0.9995
vn 0.0001 -0.0329 0.9995
vn 0.0001 -0.0327 0.9995
vn -0 -0.0328 0.9995
vn -0 -0.0328 0.9995
vn -0 -0.0328 0.9995
vn -0 -0.0328 0.9995
vn -0 -0.0328 0.9995
vn -0 -0.0328 0.9995
vn -0 -0.0328 0.9995
vn -0 -0.0328 0.9995
vn -0 -0.0328 0.9995
vn -0 -0.0328 0.9995
vn -0 -0.0328 0.9995
vn -0 -0.0328 0.9995
vn -0 -0.0328 0.9995
vn -0 -0.0328 0.9995
vt 0.025861 0.121585
vt 0.016097 0.131728
vt 0.033046 0.131728
vt 0.037904 0.121821
vt 0.025861 0.121585
vt 0.016586 0.121298
vt 0.00741 0.131748
vt 0.016097 0.131728
vt 0.037904 0.121821
vt 0.033046 0.131728
vt 0.049916 0.131728
vt 0.049916 0.121881
vt 0.049916 0.131728
vt 0.066787 0.131728
vt 0.061929 0.121821
vt 0.049916 0.121881
vt 0.061929 0.121821
vt 0.066787 0.131728
vt 0.083736 0.131728
vt 0.073972 0.121585
vt 0.083247 0.121298
vt 0.073972 0.121585
vt 0.083736 0.131728
vt 0.092423 0.131748
vt 0.092423 0.131748
vt 0.096592 0.130057
vt 0.083247 0.121298
vt 0.096592 0.130057
vt 0.098232 0.125859
vt 0.085898 0.118394
vt 0.083247 0.121298
vt 0.085898 0.118394
vt 0.098232 0.125859
vt 0.098217 0.074208
vt 0.0859 0.080524
vt 0.0859 0.080524
vt 0.098217 0.074208
vt 0.096537 0.070069
vt 0.083201 0.077726
vt 0.0859 0.080524
vt 0.096537 0.070069
vt 0.092372 0.068445
vt 0.073952 0.077574
vt 0.083201 0.077726
vt 0.092372 0.068445
vt 0.083736 0.068479
vt 0.082873 0.079281
vt 0.084344 0.081132
vt 0.0859 0.080524
vt 0.083201 0.077726
vt 0.073673 0.079127
vt 0.082873 0.079281
vt 0.083201 0.077726
vt 0.073952 0.077574
vt 0.061767 0.079
vt 0.073673 0.079127
vt 0.073952 0.077574
vt 0.061909 0.077448
vt 0.073952 0.077574
vt 0.083736 0.068479
vt 0.066787 0.068479
vt 0.061909 0.077448
vt 0.049916 0.078968
vt 0.061767 0.079
vt 0.061909 0.077448
vt 0.049916 0.077416
vt 0.061909 0.077448
vt 0.066787 0.068479
vt 0.049916 0.068479
vt 0.049916 0.077416
vt 0.073682 0.085097
vt 0.073673 0.079127
vt 0.061767 0.079
vt 0.061774 0.085023
vt 0.061774 0.085023
vt 0.061767 0.079
vt 0.049916 0.078968
vt 0.049916 0.085005
vt 0.0737 0.113994
vt 0.073682 0.085097
vt 0.061774 0.085023
vt 0.061788 0.114164
vt 0.061788 0.114164
vt 0.061774 0.085023
vt 0.049916 0.085005
vt 0.049916 0.114205
vt 0.073694 0.119979
vt 0.0737 0.113994
vt 0.061788 0.114164
vt 0.061785 0.120212
vt 0.061785 0.120212
vt 0.061788 0.114164
vt 0.049916 0.114205
vt 0.049916 0.120271
vt 0.073694 0.119979
vt 0.061785 0.120212
vt 0.061929 0.121821
vt 0.073972 0.121585
vt 0.061785 0.120212
vt 0.049916 0.120271
vt 0.049916 0.121881
vt 0.061929 0.121821
vt 0.038048 0.120212
vt 0.037904 0.121821
vt 0.049916 0.121881
vt 0.049916 0.120271
vt 0.038044 0.114164
vt 0.038048 0.120212
vt 0.049916 0.120271
vt 0.049916 0.114205
vt 0.038048 0.120212
vt 0.026138 0.119979
vt 0.025861 0.121585
vt 0.037904 0.121821
vt 0.038048 0.120212
vt 0.038044 0.114164
vt 0.026133 0.113994
vt 0.026138 0.119979
vt 0.026138 0.119979
vt 0.016939 0.119694
vt 0.016586 0.121298
vt 0.025861 0.121585
vt 0.015487 0.117753
vt 0.016939 0.119694
vt 0.026138 0.119979
vt 0.026133 0.113994
vt 0.016939 0.119694
vt 0.015487 0.117753
vt 0.013935 0.118394
vt 0.016586 0.121298
vt 0.015489 0.081131
vt 0.015487 0.117753
vt 0.026133 0.113994
vt 0.026151 0.085097
vt 0.013933 0.080524
vt 0.013935 0.118394
vt 0.015487 0.117753
vt 0.015489 0.081131
vt 0.015489 0.081131
vt 0.016959 0.079281
vt 0.016632 0.077726
vt 0.013933 0.080524
vt 0.015489 0.081131
vt 0.026151 0.085097
vt 0.02616 0.079127
vt 0.016959 0.079281
vt 0.038044 0.114164
vt 0.038059 0.085023
vt 0.026151 0.085097
vt 0.026133 0.113994
vt 0.038059 0.085023
vt 0.038066 0.079
vt 0.02616 0.079127
vt 0.026151 0.085097
vt 0.038059 0.085023
vt 0.038044 0.114164
vt 0.049916 0.114205
vt 0.049916 0.085005
vt 0.038066 0.079
vt 0.038059 0.085023
vt 0.049916 0.085005
vt 0.049916 0.078968
vt 0.038066 0.079
vt 0.049916 0.078968
vt 0.049916 0.077416
vt 0.037924 0.077448
vt 0.02616 0.079127
vt 0.038066 0.079
vt 0.037924 0.077448
vt 0.02588 0.077574
vt 0.033046 0.068479
vt 0.037924 0.077448
vt 0.049916 0.077416
vt 0.049916 0.068479
vt 0.037924 0.077448
vt 0.033046 0.068479
vt 0.016097 0.068479
vt 0.02588 0.077574
vt 0.016632 0.077726
vt 0.02588 0.077574
vt 0.016097 0.068479
vt 0.007461 0.068445
vt 0.007461 0.068445
vt 0.003296 0.070069
vt 0.013933 0.080524
vt 0.016632 0.077726
vt 0.003296 0.070069
vt 0.001616 0.074208
vt 0.013933 0.080524
vt 0.001616 0.074208
vt 0.001601 0.125859
vt 0.013935 0.118394
vt 0.013933 0.080524
vt 0.001601 0.125859
vt 0.003241 0.130057
vt 0.016586 0.121298
vt 0.013935 0.118394
vt 0.003241 0.130057
vt 0.00741 0.131748
vt 0.016586 0.121298
vt 0.016959 0.079281
vt 0.02616 0.079127
vt 0.02588 0.077574
vt 0.016632 0.077726
vt 0.082894 0.119694
vt 0.073694 0.119979
vt 0.073972 0.121585
vt 0.083247 0.121298
vt 0.073694 0.119979
vt 0.082894 0.119694
vt 0.084346 0.117753
vt 0.0737 0.113994
vt 0.084346 0.117753
vt 0.082894 0.119694
vt 0.083247 0.121298
vt 0.085898 0.118394
vt 0.084344 0.081132
vt 0.084346 0.117753
vt 0.085898 0.118394
vt 0.0859 0.080524
vt 0.0737 0.113994
vt 0.084346 0.117753
vt 0.084344 0.081132
vt 0.073682 0.085097
vt 0.073682 0.085097
vt 0.084344 0.081132
vt 0.082873 0.079281
vt 0.073673 0.079127
vt 0.016097 0.133184
vt 0.016097 0.131728
vt 0.00741 0.131748
vt 0.007079 0.13317
vt 0.016097 0.131728
vt 0.016097 0.133184
vt 0.033046 0.133184
vt 0.033046 0.131728
vt 0.002103 0.131052
vt 0.007079 0.13317
vt 0.00741 0.131748
vt 0.003241 0.130057
vt 0 0.126046
vt 0.002103 0.131052
vt 0.003241 0.130057
vt 0.001601 0.125859
vt 1e-06 0.073692
vt 0 0.126046
vt 0.001601 0.125859
vt 0.001616 0.074208
vt 0.002107 0.068744
vt 1e-06 0.073692
vt 0.001616 0.074208
vt 0.003296 0.070069
vt 0.007087 0.066652
vt 0.002107 0.068744
vt 0.003296 0.070069
vt 0.007461 0.068445
vt 0.007087 0.066652
vt 0.007461 0.068445
vt 0.016097 0.068479
vt 0.016097 0.066639
vt 0.033046 0.068479
vt 0.033046 0.066639
vt 0.016097 0.066639
vt 0.016097 0.068479
vt 0.049916 0.066639
vt 0.033046 0.066639
vt 0.033046 0.068479
vt 0.049916 0.068479
vt 0.066787 0.068479
vt 0.066787 0.066639
vt 0.049916 0.066639
vt 0.049916 0.068479
vt 0.083736 0.068479
vt 0.083736 0.066639
vt 0.066787 0.066639
vt 0.066787 0.068479
vt 0.083736 0.066639
vt 0.083736 0.068479
vt 0.092372 0.068445
vt 0.092746 0.066652
vt 0.092372 0.068445
vt 0.096537 0.070069
vt 0.097725 0.068744
vt 0.092746 0.066652
vt 0.096537 0.070069
vt 0.098217 0.074208
vt 0.099832 0.073692
vt 0.097725 0.068744
vt 0.099832 0.073692
vt 0.098217 0.074208
vt 0.098232 0.125859
vt 0.099832 0.126046
vt 0.09773 0.131052
vt 0.099832 0.126046
vt 0.098232 0.125859
vt 0.096592 0.130057
vt 0.092754 0.13317
vt 0.09773 0.131052
vt 0.096592 0.130057
vt 0.092423 0.131748
vt 0.092754 0.13317
vt 0.092423 0.131748
vt 0.083736 0.131728
vt 0.083736 0.133184
vt 0.066787 0.131728
vt 0.066787 0.133184
vt 0.083736 0.133184
vt 0.083736 0.131728
vt 0.049916 0.133184
vt 0.066787 0.133184
vt 0.066787 0.131728
vt 0.049916 0.131728
vt 0.033046 0.131728
vt 0.033046 0.133184
vt 0.049916 0.133184
vt 0.049916 0.131728
s off
f 1/1/1 2/2/2 3/3/3
f 1/1/1 3/3/3 4/4/4
f 5/5/5 6/6/6 7/7/7
f 5/5/5 7/7/7 8/8/8
f 9/9/9 10/10/10 11/11/11
f 9/9/9 11/11/11 12/12/12
f 13/13/13 14/14/14 15/15/15
f 13/13/13 15/15/15 16/16/16
f 17/17/17 18/18/18 19/19/19
f 17/17/17 19/19/19 20/20/20
f 21/21/21 22/22/22 23/23/23
f 21/21/21 23/23/23 24/24/24
f 25/25/25 26/26/26 27/27/27
f 28/28/28 29/29/29 30/30/30
f 28/28/28 30/30/30 31/31/31
f 32/32/32 33/33/33 34/34/34
f 32/32/32 34/34/34 35/35/35
f 36/36/36 37/37/37 38/38/38
f 39/39/39 40/40/40 41/41/41
f 39/39/39 41/41/41 42/42/42
f 43/43/43 44/44/44 45/45/45
f 43/43/43 45/45/45 46/46/46
f 47/47/47 48/48/48 49/49/49
f 47/47/47 49/49/49 50/50/50
f 51/51/51 52/52/52 53/53/53
f 51/51/51 53/53/53 54/54/54
f 55/55/55 56/56/56 57/57/57
f 55/55/55 57/57/57 58/58/58
f 59/59/59 60/60/60 61/61/61
f 59/59/59 61/61/61 62/62/62
f 63/63/63 64/64/64 65/65/65
f 63/63/63 65/65/65 66/66/66
f 67/67/67 68/68/68 69/69/69
f 67/67/67 69/69/69 70/70/70
f 71/71/71 72/72/72 73/73/73
f 71/71/71 73/73/73 74/74/74
f 75/75/75 76/76/76 77/77/77
f 75/75/75 77/77/77 78/78/78
f 79/79/79 80/80/80 81/81/81
f 79/79/79 81/81/81 82/82/82
f 83/83/83 84/84/84 85/85/85
f 83/83/83 85/85/85 86/86/86
f 87/87/87 88/88/88 89/89/89
f 87/87/87 89/89/89 90/90/90
f 91/91/91 92/92/92 93/93/93
f 91/91/91 93/93/93 94/94/94
f 95/95/95 96/96/96 97/97/97
f 95/95/95 97/97/97 98/98/98
f 99/99/99 100/100/100 101/101/101
f 99/99/99 101/101/101 102/102/102
f 103/103/103 104/104/104 105/105/105
f 103/103/103 105/105/105 106/106/106
f 107/107/107 108/108/108 109/109/109
f 107/107/107 109/109/109 110/110/110
f 111/111/111 112/112/112 113/113/113
f 111/111/111 113/113/113 114/114/114
f 115/115/115 116/116/116 117/117/117
f 115/115/115 117/117/117 118/118/118
f 119/119/119 120/120/120 121/121/121
f 119/119/119 121/121/121 122/122/122
f 123/123/123 124/124/124 125/125/125
f 123/123/123 125/125/125 126/126/126
f 127/127/127 128/128/128 129/129/129
f 127/127/127 129/129/129 130/130/130
f 131/131/131 132/132/132 133/133/133
f 131/131/131 133/133/133 134/134/134
f 135/135/135 136/136/136 137/137/137
f 135/135/135 137/137/137 138/138/138
f 139/139/139 140/140/140 141/141/141
f 139/139/139 141/141/141 142/142/142
f 143/143/143 144/144/144 145/145/145
f 143/143/143 145/145/145 146/146/146
f 147/147/147 148/148/148 149/149/149
f 147/147/147 149/149/149 150/150/150
f 151/151/151 152/152/152 153/153/153
f 151/151/151 153/153/153 154/154/154
f 155/155/155 156/156/156 157/157/157
f 155/155/155 157/157/157 158/158/158
f 159/159/159 160/160/160 161/161/161
f 159/159/159 161/161/161 162/162/162
f 163/163/163 164/164/164 165/165/165
f 163/163/163 165/165/165 166/166/166
f 167/167/167 168/168/168 169/169/169
f 167/167/167 169/169/169 170/170/170
f 171/171/171 172/172/172 173/173/173
f 171/171/171 173/173/173 174/174/174
f 175/175/175 176/176/176 177/177/177
f 175/175/175 177/177/177 178/178/178
f 179/179/179 180/180/180 181/181/181
f 179/179/179 181/181/181 182/182/182
f 183/183/183 184/184/184 185/185/185
f 183/183/183 185/185/185 186/186/186
f 187/187/187 188/188/188 189/189/189
f 190/190/190 191/191/191 192/192/192
f 190/190/190 192/192/192 193/193/193
f 194/194/194 195/195/195 196/196/196
f 194/194/194 196/196/196 197/197/197
f 198/198/198 199/199/199 200/200/200
f 201/201/201 202/202/202 203/203/203
f 201/201/201 203/203/203 204/204/204
f 205/205/205 206/206/206 207/207/207
f 205/205/205 207/207/207 208/208/208
f 209/209/209 210/210/210 211/211/211
f 209/209/209 211/211/211 212/212/212
f 213/213/213 214/214/214 215/215/215
f 213/213/213 215/215/215 216/216/216
f 217/217/217 218/218/218 219/219/219
f 217/217/217 219/219/219 220/220/220
f 221/221/221 222/222/222 223/223/223
f 221/221/221 223/223/223 224/224/224
f 225/225/225 226/226/226 227/227/227
f 225/225/225 227/227/227 228/228/228
f 229/229/229 230/230/230 231/231/231
f 229/229/229 231/231/231 232/232/232
f 233/233/233 234/234/234 235/235/235
f 233/233/233 235/235/235 236/236/236
f 237/237/237 238/238/238 239/239/239
f 237/237/237 239/239/239 240/240/240
f 241/241/241 242/242/242 243/243/243
f 241/241/241 243/243/243 244/244/244
f 245/245/245 246/246/246 247/247/247
f 245/245/245 247/247/247 248/248/248
f 249/249/249 250/250/250 251/251/251
f 249/249/249 251/251/251 252/252/252
f 253/253/253 254/254/254 255/255/255
f 253/253/253 255/255/255 256/256/256
f 257/257/257 258/258/258 259/259/259
f 257/257/257 259/259/259 260/260/260
f 261/261/261 262/262/262 263/263/263
f 261/261/261 263/263/263 264/264/264
f 265/265/265 266/266/266 267/267/267
f 265/265/265 267/267/267 268/268/268
f 269/269/269 270/270/270 271/271/271
f 269/269/269 271/271/271 272/272/272
f 273/273/273 274/274/274 275/275/275
f 273/273/273 275/275/275 276/276/276
f 277/277/277 278/278/278 279/279/279
f 277/277/277 279/279/279 280/280/280
f 281/281/281 282/282/282 283/283/283
f 281/281/281 283/283/283 284/284/284
f 285/285/285 286/286/286 287/287/287
f 285/285/285 287/287/287 288/288/288
f 289/289/289 290/290/290 291/291/291
f 289/289/289 291/291/291 292/292/292
f 293/293/293 294/294/294 295/295/295
f 293/293/293 295/295/295 296/296/296
f 297/297/297 298/298/298 299/299/299
f 297/297/297 299/299/299 300/300/300
f 301/301/301 302/302/302 303/303/303
f 301/301/301 303/303/303 304/304/304
f 305/305/305 306/306/306 307/307/307
f 305/305/305 307/307/307 308/308/308
f 309/309/309 310/310/310 311/311/311
f 309/309/309 311/311/311 312/312/312
f 313/313/313 314/314/314 315/315/315
f 313/313/313 315/315/315 316/316/316
