v 0.053181 0.179016 -0.145448
v 0.049769 0.179228 -0.147692
v 0.048746 0.179047 -0.143334
v 0.048746 0.179047 -0.143334
v 0.045713 0.179138 -0.140846
v 0.048476 0.178817 -0.138504
v 0.053181 0.179016 -0.145448
v 0.048746 0.179047 -0.143334
v 0.051396 0.178848 -0.14111
v 0.048746 0.179047 -0.143334
v 0.048476 0.178817 -0.138504
v 0.051396 0.178848 -0.14111
v 0.045713 0.179138 -0.140846
v 0.044852 0.179047 -0.137428
v 0.048476 0.178817 -0.138504
v 0.040002 0.179491 -0.137482
v 0.044852 0.179047 -0.137428
v 0.045713 0.179138 -0.140846
v 0.040851 0.17957 -0.140634
v 0.040002 0.179491 -0.137482
v 0.040851 0.17957 -0.140634
v 0.037596 0.179951 -0.142335
v 0.035043 0.180115 -0.140054
v 0.032434 0.180657 -0.145493
v 0.035043 0.180115 -0.140054
v 0.037596 0.179951 -0.142335
v 0.035931 0.180299 -0.146304
v 0.032379 0.181448 -0.162243
v 0.032434 0.180657 -0.145493
v 0.035931 0.180299 -0.146304
v 0.035894 0.181127 -0.162243
v 0.049798 0.18005 -0.162243
v 0.053181 0.179016 -0.145448
v 0.053235 0.179959 -0.162243
v 0.049769 0.179228 -0.147692
v 0.053181 0.179016 -0.145448
v 0.049798 0.18005 -0.162243
vn 0.0302 0.9984 0.0487
vn 0.0302 0.9984 0.0487
vn 0.0302 0.9984 0.0487
vn 0.072 0.9961 0.0515
vn 0.072 0.9961 0.0515
vn 0.072 0.9961 0.0515
vn 0.0316 0.9982 0.0516
vn 0.0316 0.9982 0.0516
vn 0.0316 0.9982 0.0516
vn 0.0334 0.9982 0.0494
vn 0.0334 0.9982 0.0494
vn 0.0334 0.9982 0.0494
vn 0.0768 0.996 0.0458
vn 0.0768 0.996 0.0458
vn 0.0768 0.996 0.0458
vn 0.0906 0.9947 0.0493
vn 0.0906 0.9947 0.0493
vn 0.0906 0.9947 0.0493
vn 0.0906 0.9947 0.0493
vn 0.0979 0.9942 0.0456
vn 0.0979 0.9942 0.0456
vn 0.0979 0.9942 0.0456
vn 0.0979 0.9942 0.0456
vn 0.1085 0.9931 0.0447
vn 0.1085 0.9931 0.0447
vn 0.1085 0.9931 0.0447
vn 0.1085 0.9931 0.0447
vn 0.1018 0.9936 0.0489
vn 0.1018 0.9936 0.0489
vn 0.1018 0.9936 0.0489
vn 0.1018 0.9936 0.0489
vn 0.0265 0.9981 0.0561
vn 0.0265 0.9981 0.0561
vn 0.0265 0.9981 0.0561
vn 0.0251 0.9981 0.0564
vn 0.0251 0.9981 0.0564
vn 0.0251 0.9981 0.0564
vt 0.52778 0.441319
vt 0.525997 0.440147
vt 0.525463 0.442423
vt 0.525463 0.442423
vt 0.523879 0.443723
vt 0.525322 0.444946
vt 0.52778 0.441319
vt 0.525463 0.442423
vt 0.526847 0.443585
vt 0.525463 0.442423
vt 0.525322 0.444946
vt 0.526847 0.443585
vt 0.523879 0.443723
vt 0.523429 0.445508
vt 0.525322 0.444946
vt 0.520896 0.44548
vt 0.523429 0.445508
vt 0.523879 0.443723
vt 0.521339 0.443833
vt 0.520896 0.44548
vt 0.521339 0.443833
vt 0.519639 0.442945
vt 0.518305 0.444136
vt 0.516942 0.441295
vt 0.518305 0.444136
vt 0.519639 0.442945
vt 0.518769 0.440872
vt 0.516914 0.432546
vt 0.516942 0.441295
vt 0.518769 0.440872
vt 0.51875 0.432546
vt 0.526013 0.432546
vt 0.52778 0.441319
vt 0.527808 0.432546
vt 0.525997 0.440147
vt 0.52778 0.441319
vt 0.526013 0.432546
s off
f 1/1/1 2/2/2 3/3/3
f 4/4/4 5/5/5 6/6/6
f 7/7/7 8/8/8 9/9/9
f 10/10/10 11/11/11 12/12/12
f 13/13/13 14/14/14 15/15/15
f 16/16/16 17/17/17 18/18/18
f 16/16/16 18/18/18 19/19/19
f 20/20/20 21/21/21 22/22/22
f 20/20/20 22/22/22 23/23/23
f 24/24/24 25/25/25 26/26/26
f 24/24/24 26/26/26 27/27/27
f 28/28/28 29/29/29 30/30/30
f 28/28/28 30/30/30 31/31/31
f 32/32/32 33/33/33 34/34/34
f 35/35/35 36/36/36 37/37/37
