v -0.254287 0.162475 0.093179
v -0.241633 0.163376 0.11341
v -0.250459 0.162088 0.093179
v -0.241633 0.163376 0.11341
v -0.254287 0.162475 0.093179
v -0.243429 0.164019 0.117784
v -0.239993 0.163681 0.117784
v -0.241633 0.163376 0.11341
v -0.243429 0.164019 0.117784
v -0.23265 0.160737 0.093179
v -0.239993 0.163681 0.117784
v -0.229135 0.160638 0.093179
v -0.241633 0.163376 0.11341
v -0.239993 0.163681 0.117784
v -0.23265 0.160737 0.093179
vn 0.1002 0.9892 -0.1067
vn 0.1002 0.9892 -0.1067
vn 0.1002 0.9892 -0.1067
vn 0.098 0.9896 -0.1053
vn 0.098 0.9896 -0.1053
vn 0.098 0.9896 -0.1053
vn 0.0975 0.9896 -0.1055
vn 0.0975 0.9896 -0.1055
vn 0.0975 0.9896 -0.1055
vn 0.028 0.9935 -0.1105
vn 0.028 0.9935 -0.1105
vn 0.028 0.9935 -0.1105
vn 0.0736 0.9926 -0.0968
vn 0.0736 0.9926 -0.0968
vn 0.0736 0.9926 -0.0968
vt 0.367171 0.565968
vt 0.373781 0.576535
vt 0.369171 0.565968
vt 0.373781 0.576535
vt 0.367171 0.565968
vt 0.372843 0.57882
vt 0.374638 0.57882
vt 0.373781 0.576535
vt 0.372843 0.57882
vt 0.378473 0.565968
vt 0.374638 0.57882
vt 0.380309 0.565968
vt 0.373781 0.576535
vt 0.374638 0.57882
vt 0.378473 0.565968
s off
f 1/1/1 2/2/2 3/3/3
f 4/4/4 5/5/5 6/6/6
f 7/7/7 8/8/8 9/9/9
f 10/10/10 11/11/11 12/12/12
f 13/13/13 14/14/14 15/15/15
