v -0.578134 0.179777 -0.162243
v -0.584929 0.178845 -0.142168
v -0.583055 0.178563 -0.137638
v -0.578134 0.179777 -0.162243
v -0.583055 0.178563 -0.137638
v -0.574853 0.179688 -0.162243
v -0.583055 0.178563 -0.137638
v -0.584929 0.178845 -0.142168
v -0.586726 0.178673 -0.137638
v -0.584929 0.178845 -0.142168
v -0.593443 0.180041 -0.157322
v -0.586726 0.178673 -0.137638
v -0.594927 0.180453 -0.162243
v -0.600161 0.179677 -0.137638
v -0.593443 0.180041 -0.157322
v -0.591725 0.180176 -0.162243
v -0.594927 0.180453 -0.162243
v -0.593443 0.180041 -0.157322
v -0.584929 0.178845 -0.142168
v -0.591725 0.180176 -0.162243
v -0.593443 0.180041 -0.157322
v -0.601879 0.180062 -0.142246
v -0.600161 0.179677 -0.137638
v -0.594927 0.180453 -0.162243
v -0.601879 0.180062 -0.142246
v -0.608519 0.181737 -0.162243
v -0.61219 0.182265 -0.162243
v -0.600161 0.179677 -0.137638
v -0.601879 0.180062 -0.142246
v -0.60391 0.180099 -0.137638
v -0.601879 0.180062 -0.142246
v -0.61219 0.182265 -0.162243
v -0.60391 0.180099 -0.137638
vn 0.0209 0.9984 0.0534
vn 0.0209 0.9984 0.0534
vn 0.0209 0.9984 0.0534
vn 0.0271 0.9981 0.0546
vn 0.0271 0.9981 0.0546
vn 0.0271 0.9981 0.0546
vn 0.0299 0.9983 0.0497
vn 0.0299 0.9983 0.0497
vn 0.0299 0.9983 0.0497
vn 0.0427 0.9976 0.0547
vn 0.0427 0.9976 0.0547
vn 0.0427 0.9976 0.0547
vn 0.1009 0.9935 0.0528
vn 0.1009 0.9935 0.0528
vn 0.1009 0.9935 0.0528
vn 0.086 0.9946 0.0574
vn 0.086 0.9946 0.0574
vn 0.086 0.9946 0.0574
vn 0.0563 0.9973 0.0471
vn 0.0563 0.9973 0.0471
vn 0.0563 0.9973 0.0471
vn 0.0883 0.9948 0.0502
vn 0.0883 0.9948 0.0502
vn 0.0883 0.9948 0.0502
vn 0.1423 0.9892 0.0356
vn 0.1423 0.9892 0.0356
vn 0.1423 0.9892 0.0356
vn 0.1119 0.9929 0.0412
vn 0.1119 0.9929 0.0412
vn 0.1119 0.9929 0.0412
vn 0.1227 0.9914 0.046
vn 0.1227 0.9914 0.046
vn 0.1227 0.9914 0.046
vt 0.198007 0.432546
vt 0.194457 0.443032
vt 0.195437 0.445399
vt 0.198007 0.432546
vt 0.195437 0.445399
vt 0.199721 0.432546
vt 0.195437 0.445399
vt 0.194457 0.443032
vt 0.193519 0.445399
vt 0.194457 0.443032
vt 0.19001 0.435116
vt 0.193519 0.445399
vt 0.189235 0.432546
vt 0.186501 0.445399
vt 0.19001 0.435116
vt 0.190908 0.432546
vt 0.189235 0.432546
vt 0.19001 0.435116
vt 0.194457 0.443032
vt 0.190908 0.432546
vt 0.19001 0.435116
vt 0.185604 0.442991
vt 0.186501 0.445399
vt 0.189235 0.432546
vt 0.185604 0.442991
vt 0.182135 0.432546
vt 0.180218 0.432546
vt 0.186501 0.445399
vt 0.185604 0.442991
vt 0.184543 0.445399
vt 0.185604 0.442991
vt 0.180218 0.432546
vt 0.184543 0.445399
s off
f 1/1/1 2/2/2 3/3/3
f 4/4/4 5/5/5 6/6/6
f 7/7/7 8/8/8 9/9/9
f 10/10/10 11/11/11 12/12/12
f 13/13/13 14/14/14 15/15/15
f 16/16/16 17/17/17 18/18/18
f 19/19/19 20/20/20 21/21/21
f 22/22/22 23/23/23 24/24/24
f 25/25/25 26/26/26 27/27/27
f 28/28/28 29/29/29 30/30/30
f 31/31/31 32/32/32 33/33/33
