v -0.735058 0.16412 0.241355
v -0.737714 0.164184 0.241355
v -0.736464 0.164773 0.245339
v -0.692097 0.167827 0.261195
v -0.694909 0.164504 0.241355
v -0.694909 0.166811 0.256196
v -0.72959 0.166514 0.257602
v -0.736464 0.164773 0.245339
v -0.731074 0.167108 0.261195
v -0.706313 0.167176 0.261195
v -0.709203 0.164051 0.241355
v -0.709203 0.167107 0.261195
v -0.724123 0.163912 0.241355
v -0.72959 0.166514 0.257602
v -0.728106 0.167037 0.261195
v -0.717952 0.166896 0.261195
v -0.71514 0.163922 0.241355
v -0.717952 0.163854 0.241355
v -0.70686 0.164092 0.241355
v -0.69444 0.167628 0.261195
v -0.694909 0.166811 0.256196
v -0.724123 0.163912 0.241355
v -0.728106 0.167037 0.261195
v -0.721467 0.163866 0.241355
v -0.728106 0.167037 0.261195
v -0.72959 0.166514 0.257602
v -0.731074 0.167108 0.261195
v -0.74326 0.166937 0.257524
v -0.741854 0.167422 0.261195
v -0.737714 0.164184 0.241355
v -0.74326 0.166937 0.257524
v -0.7449 0.167607 0.261195
v -0.741854 0.167422 0.261195
v -0.706313 0.167176 0.261195
v -0.706313 0.16489 0.246432
v -0.709203 0.164051 0.241355
v -0.70686 0.164092 0.241355
v -0.706313 0.16489 0.246432
v -0.69444 0.167628 0.261195
v -0.737714 0.164184 0.241355
v -0.741854 0.167422 0.261195
v -0.736464 0.164773 0.245339
v -0.694909 0.164504 0.241355
v -0.692097 0.167827 0.261195
v -0.692097 0.164742 0.241355
v -0.72959 0.166514 0.257602
v -0.735058 0.16412 0.241355
v -0.736464 0.164773 0.245339
v -0.717952 0.166896 0.261195
v -0.71514 0.166964 0.261195
v -0.71514 0.163922 0.241355
v -0.70686 0.164092 0.241355
v -0.709203 0.164051 0.241355
v -0.706313 0.16489 0.246432
v -0.74326 0.166937 0.257524
v -0.751539 0.164927 0.241355
v -0.7449 0.167607 0.261195
v -0.74326 0.166937 0.257524
v -0.74865 0.164751 0.241355
v -0.751539 0.164927 0.241355
v -0.69444 0.167628 0.261195
v -0.692097 0.167827 0.261195
v -0.694909 0.166811 0.256196
vn 0.0238 0.9878 -0.1536
vn 0.0238 0.9878 -0.1536
vn 0.0238 0.9878 -0.1536
vn -0.0834 0.9847 -0.1531
vn -0.0834 0.9847 -0.1531
vn -0.0834 0.9847 -0.1531
vn 0.0238 0.9879 -0.1536
vn 0.0238 0.9879 -0.1536
vn 0.0238 0.9879 -0.1536
vn -0.0238 0.9881 -0.1522
vn -0.0238 0.9881 -0.1522
vn -0.0238 0.9881 -0.1522
vn 0.0192 0.9882 -0.1518
vn 0.0192 0.9882 -0.1518
vn 0.0192 0.9882 -0.1518
vn -0.0238 0.9882 -0.1515
vn -0.0238 0.9882 -0.1515
vn -0.0238 0.9882 -0.1515
vn -0.0275 0.9869 -0.1587
vn -0.0275 0.9869 -0.1587
vn -0.0275 0.9869 -0.1587
vn 0.0173 0.9882 -0.1522
vn 0.0173 0.9882 -0.1522
vn 0.0173 0.9882 -0.1522
vn 0.0238 0.9879 -0.1536
vn 0.0238 0.9879 -0.1536
vn 0.0238 0.9879 -0.1536
vn 0.0518 0.9873 -0.1503
vn 0.0518 0.9873 -0.1503
vn 0.0518 0.9873 -0.1503
vn 0.06 0.9864 -0.1533
vn 0.06 0.9864 -0.1533
vn 0.06 0.9864 -0.1533
vn -0.0184 0.9881 -0.153
vn -0.0184 0.9881 -0.153
vn -0.0184 0.9881 -0.153
vn -0.0399 0.9877 -0.1511
vn -0.0399 0.9877 -0.1511
vn -0.0399 0.9877 -0.1511
vn 0.029 0.9875 -0.1551
vn 0.029 0.9875 -0.1551
vn 0.029 0.9875 -0.1551
vn -0.0834 0.9847 -0.1531
vn -0.0834 0.9847 -0.1531
vn -0.0834 0.9847 -0.1531
vn 0.0238 0.9878 -0.1536
vn 0.0238 0.9878 -0.1536
vn 0.0238 0.9878 -0.1536
vn -0.0238 0.9882 -0.1515
vn -0.0238 0.9882 -0.1515
vn -0.0238 0.9882 -0.1515
vn -0.0173 0.988 -0.1536
vn -0.0173 0.988 -0.1536
vn -0.0173 0.988 -0.1536
vn 0.06 0.9864 -0.1533
vn 0.06 0.9864 -0.1533
vn 0.06 0.9864 -0.1533
vn 0.06 0.9864 -0.1533
vn 0.06 0.9864 -0.1533
vn 0.06 0.9864 -0.1533
vn -0.0834 0.9847 -0.1531
vn -0.0834 0.9847 -0.1531
vn -0.0834 0.9847 -0.1531
vt 0.116036 0.643369
vt 0.114649 0.643369
vt 0.115302 0.64545
vt 0.138477 0.653732
vt 0.137009 0.643369
vt 0.137009 0.651121
vt 0.118893 0.651856
vt 0.115302 0.64545
vt 0.118117 0.653732
vt 0.131051 0.653732
vt 0.129542 0.643369
vt 0.129542 0.653732
vt 0.121749 0.643369
vt 0.118893 0.651856
vt 0.119668 0.653732
vt 0.124972 0.653732
vt 0.126441 0.643369
vt 0.124972 0.643369
vt 0.130766 0.643369
vt 0.137253 0.653732
vt 0.137009 0.651121
vt 0.121749 0.643369
vt 0.119668 0.653732
vt 0.123136 0.643369
vt 0.119668 0.653732
vt 0.118893 0.651856
vt 0.118117 0.653732
vt 0.111752 0.651815
vt 0.112487 0.653732
vt 0.114649 0.643369
vt 0.111752 0.651815
vt 0.110895 0.653732
vt 0.112487 0.653732
vt 0.131051 0.653732
vt 0.131051 0.646021
vt 0.129542 0.643369
vt 0.130766 0.643369
vt 0.131051 0.646021
vt 0.137253 0.653732
vt 0.114649 0.643369
vt 0.112487 0.653732
vt 0.115302 0.64545
vt 0.137009 0.643369
vt 0.138477 0.653732
vt 0.138477 0.643369
vt 0.118893 0.651856
vt 0.116036 0.643369
vt 0.115302 0.64545
vt 0.124972 0.653732
vt 0.126441 0.653732
vt 0.126441 0.643369
vt 0.130766 0.643369
vt 0.129542 0.643369
vt 0.131051 0.646021
vt 0.111752 0.651815
vt 0.107427 0.643369
vt 0.110895 0.653732
vt 0.111752 0.651815
vt 0.108937 0.643369
vt 0.107427 0.643369
vt 0.137253 0.653732
vt 0.138477 0.653732
vt 0.137009 0.651121
s off
f 1/1/1 2/2/2 3/3/3
f 4/4/4 5/5/5 6/6/6
f 7/7/7 8/8/8 9/9/9
f 10/10/10 11/11/11 12/12/12
f 13/13/13 14/14/14 15/15/15
f 16/16/16 17/17/17 18/18/18
f 19/19/19 20/20/20 21/21/21
f 22/22/22 23/23/23 24/24/24
f 25/25/25 26/26/26 27/27/27
f 28/28/28 29/29/29 30/30/30
f 31/31/31 32/32/32 33/33/33
f 34/34/34 35/35/35 36/36/36
f 37/37/37 38/38/38 39/39/39
f 40/40/40 41/41/41 42/42/42
f 43/43/43 44/44/44 45/45/45
f 46/46/46 47/47/47 48/48/48
f 49/49/49 50/50/50 51/51/51
f 52/52/52 53/53/53 54/54/54
f 55/55/55 56/56/56 57/57/57
f 58/58/58 59/59/59 60/60/60
f 61/61/61 62/62/62 63/63/63
