v -0.497367 0.162271 0.102631
v -0.495336 0.162329 0.105052
v -0.490494 0.160809 0.093179
v -0.495336 0.162329 0.105052
v -0.486666 0.160701 0.093179
v -0.490494 0.160809 0.093179
v -0.486041 0.163269 0.117784
v -0.495336 0.162329 0.105052
v -0.497445 0.162812 0.10763
v -0.499554 0.162761 0.105208
v -0.497445 0.162812 0.10763
v -0.495336 0.162329 0.105052
v -0.497367 0.162271 0.102631
v -0.508772 0.165143 0.117784
v -0.50471 0.164648 0.117784
v -0.497445 0.162812 0.10763
v -0.486041 0.163269 0.117784
v -0.497445 0.162812 0.10763
v -0.490103 0.163403 0.117784
v -0.508772 0.165143 0.117784
v -0.497445 0.162812 0.10763
v -0.499554 0.162761 0.105208
v -0.497367 0.162271 0.102631
v -0.504241 0.16194 0.093179
v -0.508225 0.162332 0.093179
v -0.499554 0.162761 0.105208
vn 0.0827 0.9922 -0.0932
vn 0.0827 0.9922 -0.0932
vn 0.0827 0.9922 -0.0932
vn 0.028 0.9929 -0.1157
vn 0.028 0.9929 -0.1157
vn 0.028 0.9929 -0.1157
vn 0.0725 0.9894 -0.1259
vn 0.0725 0.9894 -0.1259
vn 0.0725 0.9894 -0.1259
vn 0.0975 0.9896 -0.1055
vn 0.0975 0.9896 -0.1055
vn 0.0975 0.9896 -0.1055
vn 0.0975 0.9896 -0.1055
vn 0.1204 0.9884 -0.0926
vn 0.1204 0.9884 -0.0926
vn 0.1204 0.9884 -0.0926
vn 0.033 0.9961 -0.0819
vn 0.033 0.9961 -0.0819
vn 0.033 0.9961 -0.0819
vn 0.1039 0.9884 -0.1111
vn 0.1039 0.9884 -0.1111
vn 0.1039 0.9884 -0.1111
vn 0.0975 0.9896 -0.1055
vn 0.0975 0.9896 -0.1055
vn 0.0975 0.9896 -0.1055
vn 0.0975 0.9896 -0.1055
vt 0.240196 0.570905
vt 0.241257 0.57217
vt 0.243787 0.565968
vt 0.241257 0.57217
vt 0.245786 0.565968
vt 0.243787 0.565968
vt 0.246112 0.57882
vt 0.241257 0.57217
vt 0.240155 0.573516
vt 0.239054 0.572251
vt 0.240155 0.573516
vt 0.241257 0.57217
vt 0.240196 0.570905
vt 0.234239 0.57882
vt 0.236361 0.57882
vt 0.240155 0.573516
vt 0.246112 0.57882
vt 0.240155 0.573516
vt 0.243991 0.57882
vt 0.234239 0.57882
vt 0.240155 0.573516
vt 0.239054 0.572251
vt 0.240196 0.570905
vt 0.236606 0.565968
vt 0.234525 0.565968
vt 0.239054 0.572251
s off
f 1/1/1 2/2/2 3/3/3
f 4/4/4 5/5/5 6/6/6
f 7/7/7 8/8/8 9/9/9
f 10/10/10 11/11/11 12/12/12
f 10/10/10 12/12/12 13/13/13
f 14/14/14 15/15/15 16/16/16
f 17/17/17 18/18/18 19/19/19
f 20/20/20 21/21/21 22/22/22
f 23/23/23 24/24/24 25/25/25
f 23/23/23 25/25/25 26/26/26
