v -0.093613 0.181297 -0.162243
v -0.081975 0.17956 -0.149276
v -0.089864 0.180955 -0.162243
v -0.081975 0.17956 -0.149276
v -0.093613 0.181297 -0.162243
v -0.083849 0.179579 -0.14623
v -0.083849 0.179579 -0.14623
v -0.080412 0.179263 -0.146152
v -0.081975 0.17956 -0.149276
v -0.083849 0.179154 -0.137638
v -0.080412 0.178841 -0.137638
v -0.083849 0.179579 -0.14623
v -0.083849 0.179579 -0.14623
v -0.080412 0.178841 -0.137638
v -0.080412 0.179263 -0.146152
v -0.080412 0.179263 -0.146152
v -0.074086 0.17995 -0.162243
v -0.081975 0.17956 -0.149276
v -0.074086 0.17995 -0.162243
v -0.080412 0.179263 -0.146152
v -0.070649 0.179859 -0.162243
vn 0.0908 0.9945 0.0518
vn 0.0908 0.9945 0.0518
vn 0.0908 0.9945 0.0518
vn 0.0923 0.9945 0.0504
vn 0.0923 0.9945 0.0504
vn 0.0923 0.9945 0.0504
vn 0.0906 0.9947 0.0493
vn 0.0906 0.9947 0.0493
vn 0.0906 0.9947 0.0493
vn 0.0906 0.9947 0.0493
vn 0.0906 0.9947 0.0493
vn 0.0906 0.9947 0.0493
vn 0.0906 0.9947 0.0493
vn 0.0906 0.9947 0.0493
vn 0.0906 0.9947 0.0493
vn 0.0584 0.9961 0.0655
vn 0.0584 0.9961 0.0655
vn 0.0584 0.9961 0.0655
vn 0.0265 0.9982 0.0531
vn 0.0265 0.9982 0.0531
vn 0.0265 0.9982 0.0531
vt 0.451101 0.432546
vt 0.45718 0.439319
vt 0.453059 0.432546
vt 0.45718 0.439319
vt 0.451101 0.432546
vt 0.456201 0.44091
vt 0.456201 0.44091
vt 0.457996 0.440951
vt 0.45718 0.439319
vt 0.456201 0.445399
vt 0.457996 0.445399
vt 0.456201 0.44091
vt 0.456201 0.44091
vt 0.457996 0.445399
vt 0.457996 0.440951
vt 0.457996 0.440951
vt 0.461301 0.432546
vt 0.45718 0.439319
vt 0.461301 0.432546
vt 0.457996 0.440951
vt 0.463096 0.432546
s off
f 1/1/1 2/2/2 3/3/3
f 4/4/4 5/5/5 6/6/6
f 7/7/7 8/8/8 9/9/9
f 10/10/10 11/11/11 12/12/12
f 13/13/13 14/14/14 15/15/15
f 16/16/16 17/17/17 18/18/18
f 19/19/19 20/20/20 21/21/21
