v -0.635779 0.162324 0.093179
v -0.620548 0.161201 0.096226
v -0.615861 0.160745 0.093179
v -0.615861 0.160745 0.093179
v -0.620548 0.161201 0.096226
v -0.615861 0.161 0.095601
v -0.635779 0.162324 0.093179
v -0.635779 0.162649 0.096226
v -0.620548 0.161201 0.096226
v -0.636014 0.164822 0.115363
v -0.631249 0.164177 0.114738
v -0.620548 0.161201 0.096226
v -0.620548 0.161201 0.096226
v -0.631249 0.164177 0.114738
v -0.615861 0.161 0.095601
v -0.615392 0.163322 0.117784
v -0.615392 0.162997 0.114738
v -0.631249 0.164177 0.114738
v -0.636014 0.164822 0.115363
v -0.636014 0.165094 0.117784
v -0.631249 0.164177 0.114738
v -0.631249 0.164177 0.114738
v -0.636014 0.165094 0.117784
v -0.615392 0.163322 0.117784
vn 0.079 0.9965 -0.0276
vn 0.079 0.9965 -0.0276
vn 0.079 0.9965 -0.0276
vn 0.0288 0.9941 -0.1044
vn 0.0288 0.9941 -0.1044
vn 0.0288 0.9941 -0.1044
vn 0.0941 0.9899 -0.1056
vn 0.0941 0.9899 -0.1056
vn 0.0941 0.9899 -0.1056
vn 0.1224 0.9886 -0.0881
vn 0.1224 0.9886 -0.0881
vn 0.1224 0.9886 -0.0881
vn 0.0231 0.9891 -0.1456
vn 0.0231 0.9891 -0.1456
vn 0.0231 0.9891 -0.1456
vn 0.0738 0.9917 -0.1057
vn 0.0738 0.9917 -0.1057
vn 0.0738 0.9917 -0.1057
vn 0.1192 0.9867 -0.1109
vn 0.1192 0.9867 -0.1109
vn 0.1192 0.9867 -0.1109
vn 0.0845 0.9828 -0.164
vn 0.0845 0.9828 -0.164
vn 0.0845 0.9828 -0.164
vt 0.167896 0.565968
vt 0.175852 0.567559
vt 0.1783 0.565968
vt 0.1783 0.565968
vt 0.175852 0.567559
vt 0.1783 0.567233
vt 0.167896 0.565968
vt 0.167896 0.567559
vt 0.175852 0.567559
vt 0.167773 0.577556
vt 0.170262 0.577229
vt 0.175852 0.567559
vt 0.175852 0.567559
vt 0.170262 0.577229
vt 0.1783 0.567233
vt 0.178545 0.57882
vt 0.178545 0.577229
vt 0.170262 0.577229
vt 0.167773 0.577556
vt 0.167773 0.57882
vt 0.170262 0.577229
vt 0.170262 0.577229
vt 0.167773 0.57882
vt 0.178545 0.57882
s off
f 1/1/1 2/2/2 3/3/3
f 4/4/4 5/5/5 6/6/6
f 7/7/7 8/8/8 9/9/9
f 10/10/10 11/11/11 12/12/12
f 13/13/13 14/14/14 15/15/15
f 16/16/16 17/17/17 18/18/18
f 19/19/19 20/20/20 21/21/21
f 22/22/22 23/23/23 24/24/24
