# Blender 4.5.0
# www.blender.org
mtllib button_4.mtl
o button_4
v -0.353593 0.477982 0.291979
v -0.391576 0.465950 0.070492
v -0.383338 0.399327 0.217125
v -0.352592 0.484229 0.286355
v -0.353740 0.487746 0.278479
v -0.355595 0.489373 0.269018
v -0.357336 0.489653 0.256590
v -0.371253 0.399186 0.285947
v -0.369402 0.402604 0.295712
v -0.365941 0.406828 0.303506
v -0.364620 0.414998 0.305793
v -0.360702 0.429311 0.306212
v -0.354927 0.464985 0.297658
v -0.403418 0.383294 0.032992
v -0.395781 0.392343 0.125402
v -0.385249 0.473622 0.109986
v -0.395404 0.463505 0.038698
v -0.395292 0.462445 0.036832
v -0.403760 0.385813 0.031764
v -0.372944 0.482025 0.183505
v -0.389156 0.394989 0.179967
v -0.356361 0.446795 0.303014
v -0.333513 0.478337 0.120861
v -0.369524 0.484015 0.190300
v -0.375649 0.398239 0.266531
v -0.350495 0.364069 0.122022
v -0.314086 0.405212 0.320202
v -0.308316 0.434697 0.314288
v -0.302967 0.463845 0.306638
v -0.348854 0.463055 0.029770
v -0.320358 0.379805 0.317997
v -0.317836 0.387837 0.320953
v -0.325962 0.371763 0.296509
v -0.322309 0.375488 0.311078
v -0.300100 0.486938 0.294124
v -0.300945 0.490264 0.286333
v -0.303407 0.492115 0.272379
v -0.300417 0.480164 0.300261
v -0.348449 0.465031 0.033335
v -0.357371 0.357212 0.027657
v -0.357354 0.358187 0.024609
v -0.339117 0.368732 0.217571
v -0.342505 0.470838 0.069981
v -0.354315 0.360872 0.075902
v -0.346157 0.366500 0.163718
v -0.323225 0.484856 0.175435
v -0.387852 0.373505 0.028200
v -0.386825 0.373813 0.024734
v -0.386554 0.379802 0.024220
v -0.377282 0.462661 0.029503
v -0.377298 0.464625 0.033070
v -0.397330 0.431243 0.054794
vn -0.9904 0.1088 0.0858
vn -0.9896 0.1181 0.0824
vn -0.9929 0.0934 0.0742
vn -0.9618 0.2055 0.1807
vn -0.9691 0.1845 0.1638
vn -0.9672 -0.1184 0.2248
vn -0.0117 0.9764 -0.2154
vn -0.0577 0.9876 -0.1463
vn -0.0209 0.9890 -0.1468
vn 0.0307 0.0526 -0.9981
vn -0.1180 0.0665 -0.9908
vn -0.2122 0.0863 -0.9734
vn -0.2639 -0.1331 -0.9553
vn -0.5849 -0.4182 -0.6950
vn -0.3796 0.0868 -0.9211
vn -0.5248 -0.8434 0.1152
vn -0.5364 -0.8374 0.1046
vn -0.5277 -0.8418 0.1136
vn -0.2136 0.1641 0.9630
vn -0.3276 -0.0373 0.9441
vn -0.3137 -0.0218 0.9493
vn -0.9468 0.2092 0.2445
vn -0.9212 0.0406 0.3871
vn -0.1600 0.3267 0.9315
vn -0.1681 0.2536 0.9526
vn -0.4840 -0.8709 0.0855
vn -0.4667 -0.8826 0.0556
vn -0.4698 -0.8773 0.0980
vn -0.5170 -0.8481 0.1156
vn -0.7808 -0.6122 0.1245
vn -0.5170 -0.8483 0.1149
vn -0.8976 0.2348 0.3732
vn -0.9127 0.2318 0.3367
vn -0.9605 0.2130 0.1792
vn -0.8579 0.4967 0.1314
vn -0.9691 0.1906 0.1567
vn -0.9552 0.2170 0.2010
vn -0.5086 -0.8536 0.1126
vn -0.5294 -0.8339 0.1563
vn -0.5505 -0.7101 0.4390
vn -0.5460 -0.7929 0.2705
vn -0.5507 -0.6915 0.4676
vn -0.0782 0.9899 -0.1182
vn -0.5059 0.8626 0.0020
vn -0.0566 0.9945 -0.0886
vn -0.9864 0.1289 0.1022
vn -0.4933 -0.4271 0.7578
vn -0.4825 -0.8420 -0.2413
vn -0.4581 -0.8554 -0.2419
vn -0.0077 0.8754 -0.4834
vn -0.0724 0.8719 -0.4843
vn -0.0581 0.9912 -0.1193
vn -0.1089 0.9820 -0.1543
vn -0.9029 0.3436 0.2583
vn -0.9798 0.1572 0.1232
vn -0.9754 0.1739 0.1357
vn -0.2037 0.8533 -0.4799
vn 0.0418 0.0386 -0.9984
vn -0.0437 0.9970 -0.0634
vn -0.4939 -0.4268 0.7576
vn -0.1627 0.2529 0.9537
vn -0.9768 0.1663 0.1351
vn -0.9812 0.1492 0.1224
vn -0.8545 0.4165 0.3105
vn -0.1540 0.3272 0.9323
vn -0.9851 0.1172 -0.1255
vn -0.0837 0.9602 0.2667
vn -0.0379 0.9986 -0.0375
vn -0.0623 0.9915 0.1144
vn -0.0373 0.9960 -0.0814
vn -0.9918 -0.0902 0.0908
vn -0.1904 0.1884 0.9635
vn -0.1507 0.4987 0.8536
vn -0.1266 0.8017 0.5842
vn -0.0837 0.9601 0.2667
vn -0.3729 0.1013 -0.9223
vt 0.259199 0.112169
vt 0.268474 0.116253
vt 0.247837 0.119533
vt 0.247971 0.047738
vt 0.247295 0.056232
vt 0.247304 0.050464
vt 0.029548 0.720486
vt 0.037795 0.720470
vt 0.029548 0.730634
vt 0.190470 0.963560
vt 0.198447 0.940215
vt 0.198129 0.962644
vt 0.198511 0.938610
vt 0.203570 0.940965
vt 0.203442 0.941610
vt 0.043262 0.828064
vt 0.029548 0.855613
vt 0.029548 0.841202
vt 0.043269 0.809273
vt 0.043497 0.813821
vt 0.029543 0.813821
vt 0.251091 0.044785
vt 0.249162 0.045647
vt 0.043376 0.796811
vt 0.043128 0.803304
vt 0.037779 0.892488
vt 0.029548 0.892697
vt 0.029548 0.879459
vt 0.043661 0.850673
vt 0.043635 0.871373
vt 0.043489 0.893062
vt 0.256567 0.044520
vt 0.265282 0.045874
vt 0.271955 0.052959
vt 0.272231 0.056725
vt 0.270918 0.075574
vt 0.268864 0.047325
vt 0.029568 0.866864
vt 0.029548 0.822043
vt 0.029528 0.818475
vt 0.043445 0.821834
vt 0.043508 0.818475
vt 0.043672 0.741927
vt 0.043635 0.760002
vt 0.042932 0.760802
vt 0.248460 0.096398
vt 0.043352 0.816170
vt 0.037695 0.893346
vt 0.029548 0.893346
vt 0.029548 0.719683
vt 0.037769 0.719683
vt 0.029475 0.744540
vt 0.043569 0.719952
vt 0.271422 0.050403
vt 0.268940 0.105224
vt 0.269618 0.095508
vt 0.043216 0.719683
vt 0.190242 0.934979
vt 0.043383 0.781227
vt 0.029548 0.816170
vt 0.029548 0.803304
vt 0.248157 0.071357
vt 0.248256 0.080884
vt 0.270468 0.048434
vt 0.029548 0.796811
vt 0.268093 0.116660
vt 0.043508 0.788224
vt 0.029548 0.784819
vt 0.043472 0.785557
vt 0.029548 0.759695
vt 0.247330 0.119389
vt 0.029548 0.809805
vt 0.029548 0.792817
vt 0.043451 0.790470
vt 0.043413 0.792817
vt 0.029548 0.788224
vt 0.029548 0.790470
vt 0.203197 0.962166
s 1
usemtl mouse_tex
f 52/1/1 17/2/2 19/3/3
f 9/4/4 25/5/5 8/6/6
f 39/7/7 51/8/8 43/9/9
f 30/10/10 49/11/11 50/12/12
f 48/13/13 14/14/14 19/15/15
f 25/16/16 45/17/17 42/18/18
f 12/19/19 11/20/20 32/21/21
f 11/22/22 9/4/4 10/23/23
f 13/24/24 12/19/19 22/25/25
f 47/26/26 40/27/27 44/28/28
f 21/29/29 15/30/30 14/31/31
f 11/22/22 12/32/32 13/33/33
f 6/34/34 7/35/35 20/36/36
f 9/4/4 1/37/37 6/34/34
f 26/38/38 14/31/31 47/26/26
f 20/36/36 9/4/4 6/34/34
f 33/39/39 34/40/40 8/41/41
f 9/42/42 8/41/41 34/40/40
f 11/22/22 13/33/33 1/37/37
f 16/43/43 20/44/44 24/45/45
f 19/3/3 15/46/46 52/1/1
f 19/15/15 49/11/11 48/13/13
f 33/39/39 8/41/41 25/16/16
f 34/40/40 10/47/47 9/42/42
f 9/4/4 20/36/36 25/5/5
f 40/27/27 48/48/48 41/49/49
f 51/8/8 30/50/50 50/51/51
f 23/52/52 16/43/43 24/45/45
f 14/31/31 48/48/48 47/26/26
f 17/53/53 16/43/43 51/8/8
f 6/34/34 1/37/37 5/54/54
f 17/2/2 2/55/55 16/56/56
f 18/57/57 51/8/8 50/51/51
f 30/10/10 41/58/58 49/11/11
f 25/16/16 21/29/29 26/38/38
f 42/18/18 33/39/39 25/16/16
f 43/9/9 51/8/8 23/52/52
f 25/16/16 26/38/38 45/17/17
f 24/45/45 20/44/44 7/59/59
f 34/40/40 31/60/60 10/47/47
f 12/19/19 28/61/61 22/25/25
f 10/47/47 31/60/60 32/21/21
f 15/46/46 2/55/55 52/1/1
f 25/5/5 3/62/62 21/63/63
f 1/37/37 4/64/64 5/54/54
f 23/52/52 51/8/8 16/43/43
f 26/38/38 47/26/26 44/28/28
f 22/25/25 29/65/65 13/24/24
f 19/3/3 17/2/2 18/66/66
f 48/13/13 49/11/11 41/58/58
f 5/67/67 37/68/68 6/69/69
f 17/2/2 52/1/1 2/55/55
f 14/31/31 26/38/38 21/29/29
f 24/45/45 46/70/70 23/52/52
f 9/4/4 11/22/22 1/37/37
f 19/3/3 14/71/71 15/46/46
f 25/5/5 20/36/36 3/62/62
f 27/72/72 12/19/19 32/21/21
f 15/46/46 3/62/62 2/55/55
f 2/55/55 20/36/36 16/56/56
f 38/73/73 4/74/74 1/75/73
f 29/65/65 1/75/73 13/24/24
f 32/21/21 11/20/20 10/47/47
f 19/15/15 50/12/12 49/11/11
f 36/76/75 4/74/74 35/77/74
f 7/59/59 46/70/70 24/45/45
f 37/68/68 7/59/59 6/69/69
f 40/27/27 47/26/26 48/48/48
f 51/8/8 39/7/7 30/50/50
f 18/57/57 17/53/53 51/8/8
f 12/19/19 27/72/72 28/61/61
f 22/25/25 28/61/61 29/65/65
f 5/67/67 36/76/75 37/68/68
f 15/46/46 21/63/63 3/62/62
f 2/55/55 3/62/62 20/36/36
f 38/73/73 35/77/74 4/74/74
f 29/65/65 38/73/73 1/75/73
f 19/15/15 18/78/76 50/12/12
f 36/76/75 5/67/67 4/74/74
f 7/59/59 37/68/68 46/70/70
