# Blender 4.5.0
# www.blender.org
mtllib left_click.mtl
o left_click
v -0.021750 0.381572 -0.641741
v -0.022731 0.339991 -0.729232
v -0.009379 0.357477 -0.695622
v -0.022683 0.416111 -0.563462
v -0.022937 0.445028 -0.494311
v -0.009337 0.401050 -0.602368
v -0.009166 0.432279 -0.531636
v -0.023733 0.471079 -0.427474
v -0.009343 0.492439 -0.376448
v -0.024700 0.509529 -0.318778
v -0.009362 0.463536 -0.454318
v -0.053750 0.273457 -0.851584
v -0.028943 0.284935 -0.835034
v -0.009213 0.302719 -0.804016
v -0.035779 0.250700 -0.895997
v -0.023750 0.243894 -0.905165
v -0.042564 0.248763 -0.898459
v -0.056680 0.244927 -0.900611
v -0.088703 0.264367 -0.865399
v -0.152677 0.285612 -0.820031
v -0.102298 0.282532 -0.827765
v -0.189323 0.297696 -0.795946
v -0.024692 0.530732 -0.249894
v -0.025884 0.549729 -0.179408
v -0.028147 0.566207 -0.109996
v -0.023007 0.575017 -0.069398
v -0.009365 0.551639 -0.177249
v -0.009239 0.571900 -0.088696
v -0.026546 0.586372 -0.001386
v -0.009267 0.584484 -0.013227
v -0.028505 0.590489 0.047525
v -0.031030 0.589860 0.032030
v -0.051148 0.590171 0.060151
v -0.095756 0.586840 0.085719
v -0.145746 0.579029 0.113626
v -0.195743 0.567360 0.141031
v -0.267675 0.543657 0.178205
v -0.340810 0.505677 -0.212627
v -0.348469 0.495171 -0.250798
v -0.328496 0.518048 -0.146787
v -0.342708 0.511118 -0.162526
v -0.351265 0.500984 -0.197968
v -0.353258 0.474398 -0.322016
v -0.346231 0.475857 -0.328913
v -0.349147 0.457637 -0.385500
v -0.344319 0.436514 -0.452118
v -0.161337 0.316369 -0.747823
v -0.230479 0.318868 -0.753247
v -0.305928 0.358870 -0.671229
v -0.287769 0.346428 -0.704136
v -0.233260 0.318399 -0.757137
v -0.315347 0.357838 -0.676376
v -0.319608 0.374717 -0.631016
v -0.334573 0.396903 -0.569238
v -0.322952 0.497595 0.199940
v -0.337077 0.491749 0.139217
v -0.328336 0.496450 0.181823
v -0.353058 0.480925 0.060521
v -0.337863 0.383116 -0.603950
v -0.342457 0.384359 -0.593663
v -0.330225 0.377224 -0.623760
v -0.346956 0.374161 -0.596966
v -0.357850 0.349679 -0.543214
v -0.355191 0.342891 -0.570823
v -0.348151 0.417950 -0.503012
v -0.356688 0.488560 -0.249117
v -0.364045 0.485433 -0.191363
v -0.366156 0.478887 -0.228167
v -0.362816 0.474853 -0.280855
v -0.357370 0.496269 -0.153537
v -0.369262 0.465214 -0.273701
v -0.360415 0.456021 -0.362250
v -0.356158 0.428450 -0.457582
v -0.363914 0.437838 -0.397591
v -0.362148 0.419333 -0.451041
v -0.351071 0.404869 -0.527714
v -0.095480 0.463453 -0.390757
v -0.076384 0.428299 -0.495180
v -0.081457 0.492788 -0.320794
v -0.113716 0.420974 -0.489235
v -0.202064 0.469414 -0.332849
v -0.242801 0.465256 -0.342775
v -0.210455 0.385098 -0.556163
v -0.237552 0.400208 -0.518617
v -0.160329 0.496514 -0.266233
v -0.270417 0.471909 -0.325770
v -0.156798 0.451547 -0.390969
v -0.326510 0.445251 -0.419425
v -0.290080 0.426937 -0.459145
v -0.294930 0.486579 -0.283043
v -0.113317 0.494167 -0.295331
v -0.333016 0.518979 -0.123350
v -0.318145 0.527563 -0.075515
v -0.314715 0.530527 0.007446
v -0.294059 0.538653 0.016316
v -0.328265 0.523409 -0.053005
v -0.344227 0.511278 -0.117923
v -0.340663 0.512742 -0.041546
v -0.323509 0.522587 0.041140
v -0.292771 0.538220 0.084788
v -0.285744 0.534169 0.185333
v -0.301389 0.523670 0.190547
v -0.304845 0.530487 0.103357
v -0.321495 0.516951 0.115716
v -0.366611 0.372725 -0.464709
v -0.372856 0.393129 -0.388203
v -0.376571 0.407263 -0.330067
v -0.379696 0.423915 -0.258062
v -0.379644 0.437353 -0.192098
v -0.374985 0.451704 -0.115505
v -0.368434 0.463086 -0.050158
v -0.362318 0.471264 -0.000756
v -0.067592 0.385074 -0.605970
v -0.078331 0.355754 -0.668527
v -0.154825 0.368069 -0.607701
v -0.127901 0.383427 -0.576363
v -0.185619 0.386154 -0.554015
v -0.340583 0.494712 -0.261367
v -0.101222 0.524586 -0.209303
v -0.197873 0.502222 -0.236075
v -0.237386 0.500950 -0.233179
v -0.182475 0.525345 -0.162059
v -0.240192 0.521785 -0.155383
v -0.282864 0.507328 -0.206856
v -0.306511 0.517380 -0.159343
v -0.210995 0.549741 -0.033864
v -0.184453 0.541619 -0.095832
v -0.230266 0.537019 -0.087794
v -0.256760 0.537607 -0.064726
v -0.115211 0.543647 -0.133714
v -0.281479 0.384643 -0.577748
v -0.267867 0.358966 -0.651087
v -0.246761 0.379838 -0.577599
v -0.194278 0.342261 -0.679311
v -0.228004 0.346535 -0.673742
v -0.174200 0.355593 -0.639607
v -0.082683 0.300242 -0.790743
v -0.124194 0.327438 -0.720976
v -0.069715 0.325554 -0.740805
v -0.325937 0.360131 -0.666065
v -0.333290 0.360612 -0.657889
v -0.326413 0.361004 -0.667275
v -0.338176 0.359673 -0.650633
v -0.341707 0.357253 -0.643739
v -0.352097 0.333761 -0.614046
v -0.114514 0.349084 -0.668821
v -0.346180 0.351209 -0.634045
v -0.349677 0.343139 -0.623991
v -0.354839 0.373711 -0.552788
v -0.357792 0.404163 -0.501290
v -0.365580 0.396019 -0.456062
v -0.370226 0.451619 -0.313459
v -0.368661 0.425634 -0.390161
v -0.374815 0.435958 -0.302860
v -0.373358 0.463539 -0.202841
v -0.368341 0.475749 -0.137357
v -0.352184 0.493691 0.001452
v -0.354210 0.498429 -0.083449
v -0.361351 0.485620 -0.076101
v -0.342769 0.501263 0.051887
v -0.332861 0.512852 0.057983
v -0.307380 0.518587 0.192879
v -0.315294 0.509819 0.196189
v -0.237072 0.555045 0.162585
v -0.252498 0.550232 0.171414
v -0.058194 0.586669 0.022577
v -0.062981 0.577997 -0.026211
v -0.123211 0.576852 0.028593
v -0.100416 0.585639 0.066739
v -0.235570 0.552336 0.023562
v -0.247150 0.551592 0.047100
v -0.276002 0.544406 0.087320
v -0.025292 0.385232 -0.695530
v -0.023397 0.356377 -0.755775
v -0.009477 0.419042 -0.625620
v -0.026168 0.432016 -0.592614
v -0.028206 0.471114 -0.498157
v -0.009685 0.456358 -0.541179
v -0.028680 0.502245 -0.417572
v -0.028876 0.530089 -0.339119
v -0.009780 0.503599 -0.421972
v -0.009612 0.335988 -0.797130
v -0.045520 0.271271 -0.911972
v -0.036669 0.271365 -0.912629
v -0.088299 0.287386 -0.878450
v -0.159423 0.307698 -0.833632
v -0.139692 0.311073 -0.828397
v -0.126625 0.320792 -0.806541
v -0.043017 0.283366 -0.892210
v -0.028733 0.550320 -0.275540
v -0.008967 0.537290 -0.323814
v -0.028993 0.585181 -0.145348
v -0.026763 0.600904 -0.073314
v -0.028888 0.611085 -0.013661
v -0.009820 0.608476 -0.028326
v -0.009175 0.599835 -0.080066
v -0.021938 0.616733 0.044097
v -0.058443 0.615751 0.063929
v -0.105174 0.611764 0.089596
v -0.152120 0.604385 0.115654
v -0.206770 0.591670 0.145119
v -0.233744 0.583791 0.158961
v -0.350700 0.531444 -0.206049
v -0.357465 0.519564 -0.258596
v -0.348695 0.505023 -0.322858
v -0.358974 0.501659 -0.328876
v -0.366250 0.519945 -0.219477
v -0.349501 0.536783 -0.165799
v -0.363422 0.486359 -0.372856
v -0.359853 0.465694 -0.444452
v -0.217189 0.347293 -0.748509
v -0.251743 0.349219 -0.751661
v -0.286398 0.371018 -0.705949
v -0.324253 0.385869 -0.680301
v -0.330472 0.388019 -0.674424
v -0.339891 0.412136 -0.603770
v -0.349794 0.482479 -0.397169
v -0.343644 0.511811 0.204310
v -0.362755 0.502266 0.128667
v -0.349326 0.415935 -0.590837
v -0.354894 0.408194 -0.601264
v -0.362010 0.402028 -0.597963
v -0.368193 0.393790 -0.593244
v -0.355006 0.442313 -0.516008
v -0.362357 0.432295 -0.531506
v -0.376941 0.513262 -0.179733
v -0.372334 0.502068 -0.288384
v -0.385597 0.497184 -0.232292
v -0.383110 0.491176 -0.283810
v -0.361333 0.530041 -0.141745
v -0.372767 0.479605 -0.370475
v -0.370789 0.453899 -0.454787
v -0.381991 0.471945 -0.360863
v -0.380328 0.451314 -0.430220
v -0.381708 0.435506 -0.463942
v -0.371558 0.423406 -0.529254
v -0.092001 0.492252 -0.395137
v -0.084895 0.438820 -0.535709
v -0.228298 0.484595 -0.366717
v -0.186786 0.480081 -0.383101
v -0.264327 0.468249 -0.415775
v -0.294022 0.494022 -0.346632
v -0.304174 0.455299 -0.463517
v -0.286958 0.514345 -0.281133
v -0.138162 0.499585 -0.346623
v -0.129893 0.450233 -0.480417
v -0.341683 0.544513 -0.111296
v -0.343701 0.544491 -0.052347
v -0.314077 0.559221 -0.015278
v -0.328450 0.551935 0.030666
v -0.371466 0.520207 -0.101843
v -0.359367 0.531151 -0.042604
v -0.295560 0.566160 0.062097
v -0.299685 0.563553 0.095176
v -0.308750 0.550234 0.190625
v -0.322393 0.550137 0.110004
v -0.344352 0.537402 0.069460
v -0.386405 0.358537 -0.522243
v -0.397448 0.391148 -0.408040
v -0.403634 0.416873 -0.308735
v -0.403049 0.450761 -0.156342
v -0.405257 0.440075 -0.207296
v -0.405458 0.432013 -0.243047
v -0.384431 0.484071 0.012934
v -0.394996 0.468400 -0.067433
v -0.055426 0.296391 -0.865429
v -0.075933 0.388922 -0.660601
v -0.148165 0.397264 -0.606615
v -0.164267 0.373004 -0.667675
v -0.190510 0.416332 -0.548855
v -0.208488 0.392044 -0.613759
v -0.242924 0.394762 -0.612095
v -0.337986 0.536210 -0.193289
v -0.345679 0.521984 -0.259985
v -0.109607 0.534551 -0.261712
v -0.028717 0.568536 -0.211104
v -0.201359 0.515898 -0.278970
v -0.240468 0.515423 -0.275810
v -0.213472 0.537655 -0.205959
v -0.163785 0.518479 -0.282163
v -0.170040 0.540973 -0.209863
v -0.263189 0.535316 -0.205218
v -0.123280 0.557581 -0.178149
v -0.324473 0.551376 -0.095599
v -0.334574 0.542654 -0.155293
v -0.277606 0.562828 -0.057091
v -0.049477 0.592614 -0.098073
v -0.198444 0.558141 -0.133929
v -0.181250 0.575966 -0.066169
v -0.209718 0.575069 -0.045153
v -0.252942 0.549624 -0.146756
v -0.267671 0.555321 -0.112401
v -0.129890 0.576197 -0.104502
v -0.281439 0.392923 -0.632623
v -0.082888 0.315885 -0.820473
v -0.177240 0.336547 -0.770300
v -0.111819 0.353562 -0.729195
v -0.062054 0.357621 -0.738579
v -0.088777 0.356327 -0.730597
v -0.338691 0.389858 -0.665742
v -0.359377 0.383483 -0.636559
v -0.353246 0.387262 -0.646201
v -0.346803 0.389742 -0.654940
v -0.376841 0.338400 -0.590631
v -0.144856 0.342094 -0.753429
v -0.370439 0.366807 -0.613282
v -0.365587 0.376502 -0.624809
v -0.373645 0.383757 -0.584012
v -0.378917 0.371736 -0.566999
v -0.387733 0.393100 -0.496232
v -0.380584 0.410258 -0.518174
v -0.394426 0.416514 -0.414098
v -0.391113 0.455269 -0.360552
v -0.388422 0.428913 -0.439785
v -0.390335 0.481098 -0.275900
v -0.398934 0.442634 -0.321480
v -0.397196 0.465066 -0.273627
v -0.387223 0.498258 -0.176084
v -0.394946 0.481335 -0.167396
v -0.361458 0.524570 0.019684
v -0.379723 0.508096 -0.088517
v -0.372877 0.508254 0.018472
v -0.388582 0.491157 -0.092006
v -0.350229 0.524199 0.118231
v -0.328041 0.532894 0.197962
v -0.072238 0.611093 0.020283
v -0.088265 0.603079 -0.014564
v -0.138475 0.602096 0.037734
v -0.246617 0.578299 0.038255
v -0.225401 0.576641 -0.017199
v -0.009127 0.475206 -0.495235
v -0.009269 0.522849 -0.367748
v -0.009869 0.319945 -0.826344
v -0.011170 0.298531 -0.865723
v -0.012755 0.287889 -0.883857
v -0.015927 0.277102 -0.901350
v -0.019734 0.269554 -0.913164
v -0.024357 0.264949 -0.920551
v -0.028490 0.263045 -0.923498
v -0.041059 0.261816 -0.924551
v -0.033024 0.262018 -0.924974
v -0.050826 0.263725 -0.920608
v -0.009711 0.557004 -0.259005
v -0.009206 0.584651 -0.151801
v -0.009017 0.615730 0.038261
v -0.277856 0.567721 0.180174
v -0.196510 0.323575 -0.802217
v -0.317682 0.381374 -0.688239
v -0.376270 0.491951 0.062965
v -0.380178 0.346377 -0.560242
v -0.291299 0.560958 0.185315
v -0.393115 0.377154 -0.458010
v -0.009664 0.279225 -0.847439
v -0.014615 0.256630 -0.885455
v -0.036188 0.240819 -0.909615
v -0.086457 0.256094 -0.879010
v -0.070077 0.270830 -0.906931
v -0.352340 0.334234 -0.615352
v -0.369807 0.479328 0.023269
v -0.303585 0.523759 0.191620
v -0.011761 0.265521 -0.870364
v -0.019040 0.248336 -0.898100
v -0.029270 0.241843 -0.908892
v -0.044026 0.241680 -0.907796
v -0.149201 0.280920 -0.828815
v -0.209681 0.306881 -0.778390
v -0.273726 0.541285 0.181457
v -0.170747 0.574853 0.127968
v -0.009326 0.589501 0.038244
v -0.008938 0.536232 -0.246924
v -0.009352 0.522292 -0.285098
v -0.008941 0.479973 -0.415453
v -0.008938 0.370730 -0.671562
v -0.301506 0.352666 -0.691508
v -0.010015 0.329262 -0.752815
v -0.009088 0.372017 -0.725346
v -0.009464 0.616484 0.038032
v -0.026040 0.615795 0.025566
v -0.060239 0.615377 0.045368
v -0.108811 0.611112 0.068877
v -0.140984 0.606488 0.084051
v -0.182266 0.598435 0.119261
v -0.183904 0.597081 0.089757
v -0.220641 0.588914 0.126518
v -0.259627 0.575124 0.171776
v -0.330390 0.535391 0.176361
v -0.344195 0.512487 0.203577
v -0.204222 0.565806 0.125270
v -0.150545 0.578142 0.093362
v -0.070193 0.588818 0.057678
v -0.009653 0.587843 0.017172
v -0.360740 0.514180 0.095480
v -0.339875 0.519459 0.199369
v -0.398170 0.471682 -0.207917
v -0.374268 0.353620 -0.601594
v -0.356249 0.369223 -0.547212
v -0.375636 0.447744 -0.253209
v -0.331894 0.504774 0.118195
v -0.264379 0.569431 -0.016394
v -0.099251 0.441513 -0.517351
v -0.106375 0.391660 -0.637428
vn 0.0612 -0.9010 0.4295
vn 0.1574 -0.8893 0.4294
vn 0.0600 -0.8890 0.4540
vn 0.2600 -0.8953 0.3617
vn 0.2422 -0.8926 0.3803
vn 0.1628 -0.9094 0.3828
vn -0.5464 0.8338 0.0786
vn -0.4715 0.8788 0.0730
vn -0.4208 0.9057 0.0507
vn 0.0980 -0.9549 0.2803
vn 0.2286 -0.9237 0.3075
vn 0.1597 -0.9317 0.3262
vn -0.6040 -0.4882 -0.6300
vn -0.6508 -0.4438 -0.6160
vn -0.6627 -0.4075 -0.6283
vn -0.0151 -0.9395 0.3423
vn -0.0941 -0.9425 0.3208
vn -0.0561 -0.9430 0.3281
vn -0.8387 0.5329 0.1122
vn -0.7574 0.6437 0.1099
vn -0.7806 0.6217 0.0637
vn -0.2392 0.9078 -0.3446
vn -0.1844 0.9139 -0.3615
vn -0.1564 0.9255 -0.3448
vn 0.8572 -0.5143 0.0261
vn 0.8151 -0.5793 -0.0021
vn 0.9324 -0.3606 -0.0244
vn -0.1655 -0.9504 0.2632
vn 0.0990 -0.8306 0.5481
vn 0.0674 -0.8563 0.5120
vn -0.3215 0.9464 0.0294
vn -0.3240 0.9460 0.0103
vn -0.2811 0.9589 0.0379
vn -0.2704 0.9626 -0.0131
vn 0.0283 -0.9809 0.1923
vn 0.1623 -0.9624 0.2180
vn 0.0662 -0.9674 0.2443
vn -0.0021 -0.9671 0.2543
vn 0.1195 -0.9743 0.1911
vn 0.4809 -0.8571 0.1848
vn -0.7396 -0.3083 -0.5982
vn -0.7336 -0.3305 -0.5938
vn -0.7281 -0.3581 -0.5844
vn -0.0676 0.9108 -0.4073
vn -0.0890 0.8923 -0.4425
vn -0.0006 0.9094 -0.4159
vn -0.1325 -0.9414 0.3102
vn -0.1606 -0.9404 0.2999
vn -0.1332 -0.9393 0.3162
vn 0.2560 -0.9054 0.3386
vn -0.0712 0.8662 -0.4946
vn 0.0331 -0.8701 0.4917
vn 0.1033 -0.8218 0.5603
vn 0.0464 -0.8121 0.5817
vn -0.9884 0.0557 -0.1410
vn -0.9819 0.1301 -0.1373
vn -0.9823 0.0932 -0.1624
vn -0.1066 0.9811 -0.1618
vn -0.0705 0.9752 -0.2096
vn -0.0505 0.9785 -0.2002
vn -0.3456 0.9272 -0.1443
vn -0.1460 0.9800 -0.1354
vn 0.1622 -0.9690 0.1863
vn 0.0620 -0.9864 0.1522
vn 0.1360 -0.9813 0.1361
vn 0.2552 -0.9647 0.0648
vn 0.2000 -0.9766 0.0796
vn 0.2866 -0.9578 0.0227
vn 0.7844 -0.5927 0.1829
vn 0.6145 -0.7621 0.2040
vn 0.7941 -0.5916 0.1394
vn -0.5756 0.7834 -0.2344
vn -0.3854 0.8897 -0.2448
vn -0.4263 0.8583 -0.2855
vn 0.4816 -0.8332 0.2717
vn 0.4133 -0.8543 0.3153
vn -0.0445 -0.9500 0.3090
vn -0.1832 0.9471 -0.2636
vn -0.2068 0.9302 -0.3034
vn -0.1770 0.9473 -0.2669
vn -0.0442 -0.9562 0.2894
vn 0.0273 -0.9585 0.2839
vn 0.0073 -0.9697 0.2442
vn -0.7971 0.5480 -0.2538
vn -0.6771 0.6941 -0.2442
vn -0.6007 0.7416 -0.2986
vn 0.1742 -0.9682 0.1793
vn 0.1501 -0.9635 0.2218
vn -0.1500 0.9017 -0.4054
vn -0.2122 0.8985 -0.3843
vn -0.1707 0.8926 -0.4173
vn 0.3133 -0.9492 -0.0285
vn 0.3093 -0.9508 -0.0164
vn 0.2570 -0.9662 0.0202
vn 0.4805 0.0514 0.8755
vn 0.4866 0.0335 0.8730
vn 0.4794 0.0136 0.8775
vn -0.6546 0.7529 0.0687
vn -0.5237 0.8512 0.0354
vn 0.0206 0.9400 -0.3404
vn -0.0384 0.9344 -0.3541
vn -0.0470 0.9357 -0.3497
vn -0.1244 0.9396 -0.3190
vn -0.0681 0.9341 -0.3505
vn -0.0626 0.9466 -0.3163
vn 0.7063 -0.7041 0.0731
vn 0.1940 -0.9389 0.2844
vn 0.1776 -0.9505 0.2551
vn 0.1752 -0.9505 0.2566
vn -0.1162 0.8877 -0.4455
vn 0.1230 -0.9234 0.3637
vn -0.1467 -0.9403 0.3072
vn -0.1092 -0.9422 0.3168
vn -0.2557 -0.9407 0.2230
vn 0.3945 -0.8470 0.3563
vn 0.9919 -0.0728 0.1042
vn 0.9875 -0.0935 0.1266
vn 0.9909 -0.0561 0.1225
vn 0.0973 -0.9931 0.0654
vn 0.0593 -0.9979 0.0277
vn 0.1359 -0.9906 0.0146
vn -0.0097 -0.9565 0.2915
vn -0.1454 0.9801 -0.1350
vn -0.0891 0.9934 -0.0725
vn -0.0719 0.9861 -0.1500
vn -0.0555 -0.9384 0.3410
vn 0.1282 -0.9271 0.3521
vn 0.0514 -0.9350 0.3510
vn 0.0864 -0.9305 0.3561
vn 0.0404 -0.9390 0.3416
vn 0.0390 -0.9958 0.0832
vn -0.0654 -0.9436 0.3245
vn 0.7448 -0.6247 0.2347
vn -0.1047 0.9274 -0.3591
vn 0.1274 -0.9409 0.3138
vn 0.2011 -0.9271 0.3164
vn 0.1514 -0.9807 0.1238
vn 0.5707 -0.8187 0.0633
vn -0.1295 0.9494 -0.2861
vn -0.1242 0.9636 -0.2368
vn 0.1891 -0.9723 0.1377
vn 0.9426 -0.2941 0.1579
vn 0.9051 -0.3979 0.1496
vn 0.9790 -0.1758 0.1028
vn -0.9580 0.2529 -0.1348
vn -0.9232 0.3621 -0.1289
vn -0.8927 0.4117 -0.1833
vn 0.9223 -0.3245 0.2098
vn 0.8322 -0.4983 0.2433
vn 0.9541 -0.2458 0.1709
vn 0.0710 0.8284 -0.5556
vn 0.0614 0.8202 -0.5688
vn 0.0177 0.8414 -0.5401
vn -0.8945 0.4364 -0.0970
vn -0.8443 0.5315 -0.0679
vn -0.7867 0.6016 -0.1384
vn 0.7332 -0.6704 0.1140
vn 0.8571 -0.5114 0.0622
vn -0.3985 -0.8836 -0.2461
vn -0.6880 -0.3807 -0.6178
vn -0.6952 -0.3783 -0.6112
vn -0.7512 -0.3183 -0.5783
vn -0.7383 -0.3433 -0.5805
vn -0.7463 -0.3199 -0.5837
vn 0.0250 -0.9392 0.3424
vn -0.0057 -0.9305 0.3663
vn -0.2073 -0.9745 0.0862
vn -0.1200 -0.9559 0.2681
vn 0.0145 -0.9401 0.3407
vn 0.4305 0.0792 0.8991
vn 0.4516 0.0733 0.8892
vn 0.4237 0.0974 0.9006
vn 0.7553 -0.5585 -0.3429
vn 0.9844 -0.1266 0.1224
vn 0.9835 -0.1557 0.0925
vn -0.1092 -0.9381 0.3287
vn -0.1455 -0.9376 0.3158
vn 0.4698 0.0523 0.8812
vn 0.5157 -0.4549 0.7260
vn 0.4890 -0.5182 0.7016
vn -0.1955 0.9723 -0.1279
vn -0.1459 0.9869 -0.0683
vn -0.9888 0.1258 -0.0804
vn -0.9758 0.2006 -0.0873
vn -0.9801 0.1657 -0.1093
vn -0.9273 0.3717 0.0450
vn -0.8744 0.4799 0.0713
vn -0.8520 0.5224 0.0333
vn 0.2545 -0.9086 0.3313
vn -0.0445 0.8997 -0.4343
vn -0.0460 0.8836 -0.4660
vn 0.2857 0.0635 0.9562
vn 0.4278 -0.1635 0.8890
vn 0.4883 -0.3556 0.7969
vn -0.1395 0.8972 -0.4191
vn -0.0829 0.9064 -0.4143
vn -0.2186 0.8951 -0.3885
vn -0.0782 0.9584 -0.2744
vn -0.1956 0.9392 -0.2823
vn 0.0289 -0.8771 0.4795
vn 0.0619 0.9210 -0.3845
vn -0.0245 0.8804 -0.4736
vn 1.0000 0.0068 -0.0042
vn 1.0000 0.0021 -0.0066
vn 0.9998 0.0150 -0.0164
vn -0.6194 0.7150 -0.3243
vn -0.7295 0.6052 -0.3187
vn -0.7606 0.5784 -0.2949
vn -0.0610 0.8652 -0.4977
vn -0.1202 0.8196 -0.5602
vn 0.2801 0.0813 0.9565
vn 0.2727 0.0888 0.9580
vn 0.6900 -0.7238 -0.0029
vn 0.5630 -0.8264 -0.0103
vn 0.7177 -0.6951 -0.0433
vn -0.7524 -0.2745 -0.5988
vn 0.2319 -0.9095 0.3450
vn 0.1987 -0.9099 0.3642
vn -0.0134 -0.9734 0.2286
vn -0.0408 -0.9740 0.2230
vn 0.0130 -0.9781 0.2075
vn 0.4538 -0.0105 0.8910
vn 0.4054 0.4764 0.7802
vn -0.1649 0.9700 -0.1786
vn 0.0147 0.9408 -0.3386
vn -0.0053 0.9539 -0.2999
vn -0.2187 -0.9378 0.2695
vn -0.8008 0.5740 -0.1710
vn -0.8069 0.5556 -0.2005
vn 0.1693 -0.9154 0.3653
vn -0.1754 0.9547 -0.2404
vn -0.1717 0.9632 -0.2066
vn -0.4756 -0.8510 0.2227
vn -0.5165 -0.8252 0.2289
vn -0.8690 -0.4134 0.2717
vn -0.9802 0.1920 -0.0491
vn 0.0847 0.9390 -0.3335
vn 0.1426 0.9398 -0.3105
vn 0.1203 0.9368 -0.3286
vn 0.0488 0.9497 -0.3094
vn 0.0360 0.9567 -0.2888
vn 0.0696 0.9459 -0.3170
vn 0.9526 -0.2477 0.1765
vn 0.9668 -0.1989 0.1607
vn 0.0445 0.9938 -0.1014
vn -0.0242 0.9995 -0.0190
vn -0.0659 0.9977 -0.0137
vn 0.0569 -0.8745 0.4818
vn 0.0140 -0.9148 0.4036
vn 0.0204 -0.8896 0.4564
vn 0.0284 -0.8664 0.4985
vn -0.0318 -0.8434 0.5364
vn 0.0989 -0.8896 0.4459
vn 0.0840 -0.8814 0.4649
vn 0.0530 -0.9774 0.2048
vn 0.1253 -0.9810 0.1480
vn -0.6575 0.7471 -0.0979
vn -0.4562 0.8863 -0.0792
vn -0.7679 0.6400 -0.0274
vn -0.6405 0.7677 -0.0225
vn 0.9427 -0.3163 0.1060
vn 0.9797 -0.1845 0.0779
vn -0.8891 0.4468 0.0990
vn -0.2836 0.9580 -0.0425
vn -0.5777 0.8161 0.0121
vn -0.2213 0.9140 -0.3402
vn -0.2419 0.9007 -0.3608
vn -0.0310 -0.9956 0.0889
vn 0.9890 -0.1106 0.0987
vn 0.9876 -0.1320 0.0847
vn 0.1101 0.9417 -0.3178
vn -0.0045 0.9616 -0.2744
vn -0.7531 0.6577 0.0146
vn 0.6132 -0.7880 -0.0554
vn 0.7184 -0.6920 -0.0710
vn 0.1147 -0.9237 0.3656
vn 0.4603 -0.8867 0.0427
vn 0.1369 0.9418 -0.3071
vn 0.1413 0.9402 -0.3100
vn -0.1665 0.9636 -0.2093
vn 0.1228 -0.9569 0.2633
vn 0.9272 -0.3650 0.0838
vn 0.9541 -0.2993 0.0096
vn -0.2904 0.8930 -0.3437
vn -0.1449 0.9337 -0.3274
vn 0.2011 -0.9744 0.1007
vn 0.0685 0.9387 -0.3378
vn -0.1708 0.9754 -0.1397
vn -0.1582 0.9807 -0.1146
vn 0.1545 -0.8972 0.4138
vn 0.8229 -0.5672 -0.0319
vn -0.6711 0.7230 -0.1641
vn -0.4290 0.8831 -0.1899
vn -0.8893 0.3856 -0.2460
vn -0.0010 0.9240 -0.3824
vn 0.0384 0.9384 -0.3433
vn -0.2670 -0.9423 0.2018
vn -0.3466 -0.9150 0.2066
vn -0.4097 -0.8860 0.2171
vn 0.4844 -0.8745 -0.0232
vn 0.3940 -0.9181 -0.0428
vn 0.0063 0.9373 -0.3484
vn -0.1502 0.9166 -0.3706
vn -0.7478 -0.3110 -0.5865
vn -0.7050 -0.3937 -0.5898
vn -0.7147 -0.3659 -0.5961
vn -0.6916 -0.4413 -0.5718
vn -0.0521 0.8777 -0.4763
vn -0.0959 0.8288 -0.5513
vn -0.0947 -0.9455 0.3116
vn -0.0920 0.9779 -0.1878
vn 0.0814 0.9429 -0.3228
vn -0.9581 0.2100 -0.1947
vn -0.9437 0.2770 -0.1806
vn -0.7273 -0.3396 -0.5964
vn 0.3619 -0.6172 0.6986
vn -0.1672 0.9719 -0.1659
vn 0.9999 -0.0161 0.0032
vn 1.0000 0.0055 -0.0017
vn 1.0000 0.0063 -0.0005
vn -0.6692 0.7344 0.1133
vn -0.5692 0.8158 0.1023
vn -0.7827 0.6061 0.1413
vn -0.8219 0.5498 0.1493
vn -0.6698 0.7183 0.1880
vn 0.9857 -0.1590 0.0556
vn -0.2921 -0.9387 0.1830
vn -0.3541 -0.9143 0.1965
vn 0.4619 -0.0148 0.8868
vn 0.4354 -0.0057 0.9002
vn 0.1895 0.8599 -0.4739
vn -0.0114 0.8747 -0.4846
vn -0.0436 -0.6010 -0.7981
vn -0.2450 -0.5823 -0.7752
vn 0.1400 -0.5836 -0.7999
vn 0.1665 -0.9190 0.3574
vn 0.9991 0.0159 -0.0394
vn 0.9930 -0.0259 -0.1153
vn 0.9976 0.0118 -0.0686
vn 0.0201 0.8593 -0.5111
vn 0.9990 0.0436 -0.0074
vn 1.0000 -0.0058 0.0023
vn 0.9999 -0.0099 0.0037
vn 0.9768 -0.2080 0.0520
vn 0.9998 -0.0205 0.0069
vn 0.4672 0.0728 0.8812
vn 0.8443 -0.5217 -0.1224
vn 0.7792 -0.6137 -0.1277
vn 0.8199 -0.5558 -0.1372
vn -0.2185 0.9758 0.0005
vn -0.1665 0.9859 0.0189
vn -0.2028 0.9767 -0.0697
vn -0.2313 0.9704 -0.0689
vn -0.4215 -0.8796 0.2205
vn -0.1761 -0.9598 0.2188
vn -0.2360 -0.9510 0.1999
vn -0.2392 -0.9500 0.2008
vn 0.9729 -0.2262 0.0484
vn 0.9722 -0.2341 0.0029
vn 0.9845 -0.1273 0.1210
vn 0.2016 -0.9012 0.3836
vn 0.2564 -0.8901 0.3768
vn 0.2470 -0.8985 0.3628
vn 0.2731 -0.8860 0.3747
vn -0.0819 0.9370 -0.3395
vn -0.2472 0.7411 -0.6243
vn 0.3968 0.1028 0.9121
vn -0.4173 -0.5629 -0.7134
vn -0.5457 -0.5129 -0.6626
vn -0.2122 0.9731 -0.0895
vn 0.5578 -0.4812 -0.6762
vn 0.4528 -0.5239 -0.7214
vn 0.9402 0.3287 -0.0892
vn 0.9922 0.1207 -0.0319
vn -0.0896 -0.9599 0.2655
vn -0.1095 -0.9634 0.2448
vn -0.1004 -0.9590 0.2649
vn -0.0858 -0.9597 0.2675
vn -0.3847 -0.9024 0.1940
vn 0.8613 -0.5042 -0.0631
vn 0.3906 -0.9195 -0.0445
vn 0.4360 -0.8536 0.2852
vn 0.5380 -0.6684 0.5137
vn -0.6679 -0.4052 -0.6242
vn -0.0400 0.9722 -0.2309
vn -0.1586 0.9581 -0.2385
vn 0.4933 0.0122 0.8698
vn 0.9912 -0.0350 -0.1276
vn 0.9999 -0.0129 0.0060
vn 0.8569 0.4831 -0.1796
vn 0.9502 0.2922 -0.1081
vn 0.9973 0.0682 -0.0282
vn -0.4535 -0.8652 0.2140
vn -0.5130 -0.8335 0.2051
vn -0.3882 0.9200 0.0546
vn -0.9675 0.1531 -0.2013
vn -0.9285 0.2818 -0.2419
vn -0.3693 0.8601 -0.3520
vn -0.1498 -0.9614 0.2307
vn 0.6732 -0.7335 -0.0943
vn 0.5731 -0.8147 -0.0882
vn 0.7088 -0.6965 -0.1120
vn 0.5314 -0.8441 -0.0713
vn -0.2545 0.8953 -0.3657
vn 0.9999 -0.0158 0.0050
vn 0.9394 -0.3193 0.1249
vn 0.9347 -0.3365 0.1145
vn 0.9727 0.2121 -0.0940
vn 0.9182 -0.3608 0.1634
vn 0.9483 -0.2851 0.1396
vn -0.7526 -0.2924 -0.5900
vn 0.9898 -0.0769 0.1197
vn 0.1207 -0.9048 0.4085
vn -0.1292 0.9128 -0.3873
vn 0.5249 -0.7509 0.4008
vn 0.1658 -0.9825 0.0852
vn 0.2154 -0.9743 0.0664
vn -0.5505 -0.8171 0.1712
vn -0.0151 0.9959 -0.0892
vn -0.0736 0.9591 -0.2733
vn -0.0256 0.9681 -0.2493
vn 0.9997 -0.0256 0.0036
vn -0.7468 -0.6620 0.0637
vn -0.6656 0.7456 0.0320
vn -0.2214 0.9227 -0.3157
vn 0.9180 -0.3912 -0.0654
vn 0.8772 -0.4702 -0.0969
vn -0.0255 0.9705 -0.2398
vn 0.0675 -0.9529 0.2957
vn -0.9909 0.0920 -0.0980
vn 0.2295 -0.9730 -0.0253
vn 0.0819 -0.9807 0.1775
vn -0.9565 0.2851 -0.0618
vn -0.0654 -0.9356 0.3468
vn -0.4777 -0.7907 -0.3830
vn -0.7513 -0.3263 -0.5737
vn -0.0185 -0.8271 0.5618
vn 0.0993 -0.9266 0.3628
vn -0.9202 0.3858 0.0662
vn -0.9531 0.2993 0.0438
vn -0.1813 0.9779 -0.1038
vn 0.2952 0.0835 0.9518
vn 0.5119 -0.1707 0.8419
vn -0.8498 0.4441 -0.2840
vn 0.8750 -0.4151 0.2489
vn 0.0550 -0.9110 0.4086
vn 0.0601 -0.9251 0.3749
vn -0.0986 0.9488 -0.3000
vn -0.1319 0.9362 -0.3259
vn 0.1943 -0.8942 0.4034
vn -0.0954 -0.9412 0.3240
vn -0.9849 0.0617 -0.1618
vn -0.9869 0.0476 -0.1539
vn -0.6808 -0.3642 -0.6355
vn -0.2261 0.9727 0.0528
vn -0.0266 -0.9186 0.3943
vn -0.0682 0.7855 -0.6150
vn -0.1256 0.7840 -0.6079
vn 0.7325 -0.6112 0.2998
vn -0.0219 -0.9419 0.3350
vn -0.9916 0.0622 -0.1137
vn 0.0738 -0.9703 0.2302
vn -0.4327 0.9006 -0.0418
vn -0.1517 -0.9636 0.2203
vn 0.4787 -0.8751 -0.0705
vn -0.8735 0.4869 -0.0019
vn -0.1831 0.9777 -0.1026
vn -0.6749 0.7072 -0.2107
vn -0.0748 -0.9598 0.2706
vn 0.3684 0.0997 0.9243
vn 0.0230 0.9892 -0.1446
vn 0.1015 -0.9750 0.1978
vn -0.0078 -0.9163 0.4003
vn -0.9519 0.3051 -0.0288
vn -0.9365 0.3502 0.0168
vn -0.2069 0.9119 -0.3545
vn -0.0014 -0.9881 0.1541
vn -0.7239 -0.3264 -0.6077
vn -0.1341 -0.9645 0.2275
vn 0.0305 0.8046 -0.5930
vn 0.0614 0.8395 -0.5398
vn -0.0125 -0.9984 0.0552
vn -0.3600 -0.9123 0.1951
vn 0.9128 -0.4059 -0.0455
vn 0.9337 -0.3541 -0.0536
vn -0.9762 0.2151 -0.0273
vn -0.9633 0.2675 0.0245
vn -0.1194 0.9928 -0.0036
vn -0.7451 -0.6294 0.2207
vn 0.9097 0.4115 -0.0558
vn 0.9095 0.4120 -0.0558
vn -0.0178 0.9813 -0.1916
vn 0.3464 -0.8354 0.4267
vn 0.2803 0.0939 0.9553
vn 0.9563 -0.2909 -0.0309
vn 0.2053 -0.9378 0.2798
vn 0.9994 0.0205 -0.0290
vn 0.8197 -0.5660 -0.0881
vn 0.9779 -0.0864 -0.1905
vn 0.7940 -0.3430 -0.5019
vn 0.9346 -0.1837 -0.3047
vn 0.9779 -0.0863 -0.1904
vn 0.7940 -0.3431 -0.5019
vn -0.7059 -0.3307 -0.6264
vn -0.7123 -0.3251 -0.6220
vn -0.6794 -0.3657 -0.6361
vn 0.9861 -0.1593 0.0475
vn 0.2660 0.0921 0.9596
vn -0.4479 -0.8740 0.1883
vn 0.9752 0.0746 -0.2083
vn -0.1749 0.9149 -0.3638
vn 0.3397 0.0854 0.9367
vn -0.8613 0.4926 0.1245
vn -0.6294 -0.7609 0.1579
vn -0.7988 -0.0406 -0.6003
vn -0.5392 0.7683 -0.3451
vn 0.8026 -0.5855 -0.1140
vn -0.0352 -0.9973 0.0652
vn 0.8930 0.4124 -0.1801
vn -0.1446 0.9210 -0.3617
vn 0.4872 -0.7905 0.3712
vn -0.0376 0.7915 -0.6100
vn -0.1439 0.9274 -0.3454
vn 0.1888 -0.9820 -0.0002
vn 0.8550 0.1590 0.4937
vn 0.1340 0.2560 0.9573
vn 0.7609 -0.5733 0.3040
vn -0.3854 0.5157 0.7652
vn -0.7190 0.0562 -0.6927
vt 0.535708 0.819698
vt 0.538787 0.831495
vt 0.535756 0.836731
vt 0.540254 0.761924
vt 0.539645 0.781981
vt 0.535689 0.772668
vt 0.107356 0.619552
vt 0.114488 0.599409
vt 0.115735 0.623153
vt 0.535779 0.702059
vt 0.540006 0.711528
vt 0.535698 0.726881
vt 0.861121 0.279095
vt 0.860470 0.288853
vt 0.854096 0.283163
vt 0.590602 0.782645
vt 0.600377 0.788688
vt 0.585795 0.817755
vt 0.092935 0.624691
vt 0.096660 0.618749
vt 0.096210 0.645721
vt 0.174110 0.757616
vt 0.162778 0.783283
vt 0.161856 0.744782
vt 0.633516 0.680238
vt 0.631406 0.670041
vt 0.638485 0.666645
vt 0.557649 0.875032
vt 0.547455 0.883468
vt 0.575150 0.859095
vt 0.124878 0.602768
vt 0.118194 0.632478
vt 0.132823 0.605622
vt 0.137055 0.614604
vt 0.535695 0.647766
vt 0.541822 0.652849
vt 0.535775 0.672653
vt 0.623993 0.696228
vt 0.623616 0.682094
vt 0.626657 0.695271
vt 0.860799 0.380395
vt 0.854284 0.373072
vt 0.861066 0.370712
vt 0.176677 0.880640
vt 0.182458 0.891947
vt 0.160571 0.883718
vt 0.605559 0.808417
vt 0.616820 0.815991
vt 0.596859 0.836624
vt 0.539832 0.742293
vt 0.176037 0.898311
vt 0.540155 0.881119
vt 0.543631 0.882425
vt 0.541196 0.886284
vt 0.079245 0.801396
vt 0.084276 0.791535
vt 0.086627 0.812015
vt 0.126295 0.680335
vt 0.130157 0.688833
vt 0.108769 0.702275
vt 0.104750 0.705768
vt 0.109229 0.692987
vt 0.550045 0.632013
vt 0.539681 0.624457
vt 0.548846 0.618738
vt 0.618919 0.646708
vt 0.602404 0.613106
vt 0.614853 0.620400
vt 0.630572 0.725984
vt 0.628567 0.715139
vt 0.632096 0.704295
vt 0.100931 0.751667
vt 0.102626 0.739263
vt 0.101327 0.771262
vt 0.627228 0.732615
vt 0.627551 0.765873
vt 0.625945 0.751059
vt 0.189521 0.702310
vt 0.169125 0.719326
vt 0.165248 0.696031
vt 0.612173 0.703924
vt 0.597026 0.690748
vt 0.609327 0.683355
vt 0.097129 0.796829
vt 0.098076 0.774859
vt 0.100401 0.796295
vt 0.586909 0.628823
vt 0.582542 0.650688
vt 0.174583 0.854390
vt 0.178246 0.833693
vt 0.181425 0.855668
vt 0.599344 0.583000
vt 0.610152 0.601861
vt 0.590327 0.591371
vt 0.597852 0.883287
vt 0.590579 0.882635
vt 0.596888 0.868464
vt 0.101101 0.631721
vt 0.108225 0.641107
vt 0.141850 0.821549
vt 0.146201 0.802864
vt 0.153958 0.836242
vt 0.154556 0.726591
vt 0.149102 0.755216
vt 0.144576 0.726011
vt 0.628053 0.681484
vt 0.560829 0.683428
vt 0.540916 0.672973
vt 0.564476 0.662705
vt 0.192293 0.860754
vt 0.623973 0.801393
vt 0.619791 0.802134
vt 0.623556 0.785786
vt 0.611027 0.824336
vt 0.625241 0.794961
vt 0.639747 0.790465
vt 0.638075 0.781835
vt 0.641271 0.783385
vt 0.552038 0.608671
vt 0.548576 0.606817
vt 0.559339 0.601034
vt 0.624472 0.714277
vt 0.179099 0.642263
vt 0.182794 0.634922
vt 0.191330 0.650937
vt 0.598001 0.767133
vt 0.575669 0.735744
vt 0.583287 0.781677
vt 0.575945 0.797224
vt 0.587558 0.718587
vt 0.540889 0.615124
vt 0.605327 0.717041
vt 0.630123 0.753210
vt 0.157054 0.819169
vt 0.576635 0.699719
vt 0.564611 0.706478
vt 0.620877 0.666320
vt 0.625548 0.671375
vt 0.152576 0.705716
vt 0.145372 0.685049
vt 0.566854 0.616619
vt 0.633580 0.752666
vt 0.633143 0.737096
vt 0.638869 0.735457
vt 0.088917 0.773017
vt 0.089274 0.749933
vt 0.092978 0.779052
vt 0.629122 0.793998
vt 0.628879 0.773349
vt 0.633063 0.767192
vt 0.196123 0.908694
vt 0.195072 0.911722
vt 0.191240 0.909133
vt 0.090387 0.726702
vt 0.092755 0.714007
vt 0.094108 0.728290
vt 0.629532 0.695350
vt 0.633814 0.690071
vt 0.861094 0.402883
vt 0.853977 0.402617
vt 0.860999 0.402602
vt 0.853969 0.388097
vt 0.861124 0.386293
vt 0.853952 0.391515
vt 0.580621 0.806802
vt 0.576774 0.838111
vt 0.619358 0.816145
vt 0.616135 0.819242
vt 0.619223 0.816079
vt 0.590831 0.932029
vt 0.597307 0.915910
vt 0.597300 0.926442
vt 0.637242 0.802992
vt 0.633660 0.804328
vt 0.637503 0.802662
vt 0.612825 0.756330
vt 0.610009 0.787619
vt 0.591131 0.906280
vt 0.590508 0.915041
vt 0.590507 0.898470
vt 0.160459 0.639048
vt 0.169491 0.628749
vt 0.075040 0.740649
vt 0.082717 0.740142
vt 0.082937 0.767368
vt 0.086323 0.674561
vt 0.090696 0.645979
vt 0.091589 0.675218
vt 0.556056 0.714801
vt 0.196010 0.851337
vt 0.194767 0.873335
vt 0.590915 0.950062
vt 0.590508 0.948415
vt 0.590508 0.944865
vt 0.191719 0.842414
vt 0.195968 0.822198
vt 0.192464 0.812885
vt 0.196223 0.717215
vt 0.190656 0.720510
vt 0.535829 0.852590
vt 0.131087 0.862739
vt 0.146723 0.876639
vt 0.854042 0.205471
vt 0.861109 0.230717
vt 0.854110 0.225836
vt 0.101881 0.816613
vt 0.101442 0.829967
vt 0.099282 0.816418
vt 0.155631 0.885336
vt 0.177326 0.905572
vt 0.597346 0.940888
vt 0.597411 0.952444
vt 0.626770 0.659423
vt 0.623157 0.642138
vt 0.627742 0.639839
vt 0.854016 0.380056
vt 0.559068 0.733282
vt 0.562215 0.761732
vt 0.733825 0.916794
vt 0.740653 0.925394
vt 0.733764 0.925002
vt 0.597078 0.855455
vt 0.597384 0.855493
vt 0.173903 0.651829
vt 0.137211 0.751375
vt 0.134161 0.725306
vt 0.597213 0.838316
vt 0.094426 0.749564
vt 0.094396 0.769068
vt 0.567077 0.794915
vt 0.163589 0.675153
vt 0.148762 0.665249
vt 0.740734 0.727590
vt 0.740610 0.706156
vt 0.740752 0.710515
vt 0.075464 0.721997
vt 0.132757 0.820441
vt 0.122601 0.825625
vt 0.117379 0.778122
vt 0.104746 0.757646
vt 0.121774 0.726894
vt 0.120286 0.745211
vt 0.630351 0.805772
vt 0.634711 0.783359
vt 0.196219 0.637208
vt 0.192550 0.635735
vt 0.182807 0.630001
vt 0.556391 0.872513
vt 0.559988 0.858883
vt 0.573684 0.857833
vt 0.535713 0.871974
vt 0.536210 0.881698
vt 0.547908 0.866721
vt 0.539848 0.861864
vt 0.615003 0.670119
vt 0.603535 0.644781
vt 0.099989 0.710234
vt 0.104786 0.695035
vt 0.095689 0.699864
vt 0.100388 0.689574
vt 0.636459 0.714436
vt 0.641135 0.712366
vt 0.086075 0.635161
vt 0.112566 0.653176
vt 0.104909 0.664507
vt 0.191111 0.761852
vt 0.190995 0.785414
vt 0.535714 0.619747
vt 0.645982 0.736497
vt 0.646600 0.723578
vt 0.107153 0.816329
vt 0.105831 0.736294
vt 0.095685 0.679143
vt 0.624044 0.617266
vt 0.628087 0.612993
vt 0.563725 0.814384
vt 0.622931 0.660282
vt 0.111090 0.838639
vt 0.121042 0.846632
vt 0.185548 0.673567
vt 0.582602 0.670348
vt 0.635418 0.703123
vt 0.639530 0.684276
vt 0.103074 0.813431
vt 0.102151 0.791680
vt 0.597471 0.618944
vt 0.127542 0.764873
vt 0.136833 0.652689
vt 0.123542 0.665014
vt 0.552338 0.833680
vt 0.632312 0.651826
vt 0.098255 0.728949
vt 0.103061 0.720051
vt 0.096085 0.815924
vt 0.163576 0.877143
vt 0.151024 0.865163
vt 0.740749 0.803969
vt 0.737246 0.754872
vt 0.740742 0.780357
vt 0.620119 0.625498
vt 0.614611 0.602281
vt 0.159126 0.860582
vt 0.167256 0.854270
vt 0.853955 0.394989
vt 0.861072 0.398216
vt 0.854133 0.398106
vt 0.861108 0.393427
vt 0.188075 0.902112
vt 0.187378 0.909900
vt 0.619892 0.742896
vt 0.191541 0.666957
vt 0.138311 0.858825
vt 0.092121 0.814814
vt 0.091485 0.795433
vt 0.860921 0.342165
vt 0.861134 0.364932
vt 0.141252 0.659890
vt 0.861060 0.016231
vt 0.854087 0.093376
vt 0.854179 0.002104
vt 0.101876 0.601833
vt 0.108987 0.598525
vt 0.097615 0.596765
vt 0.094602 0.595363
vt 0.101813 0.596915
vt 0.647365 0.700682
vt 0.733777 0.744749
vt 0.733913 0.759167
vt 0.590496 0.861077
vt 0.590584 0.855608
vt 0.196278 0.879909
vt 0.196163 0.893604
vt 0.861061 0.273301
vt 0.854015 0.274418
vt 0.854005 0.272399
vt 0.535688 0.749690
vt 0.860717 0.250895
vt 0.861035 0.258387
vt 0.854147 0.253780
vt 0.196071 0.899396
vt 0.853949 0.035274
vt 0.861021 0.159330
vt 0.861114 0.036111
vt 0.861100 0.059303
vt 0.860788 0.078913
vt 0.597337 0.899017
vt 0.633862 0.590171
vt 0.626797 0.573884
vt 0.630671 0.573123
vt 0.147749 0.615588
vt 0.156837 0.616480
vt 0.159630 0.624874
vt 0.148482 0.624691
vt 0.740898 0.744835
vt 0.739985 0.828142
vt 0.733767 0.813656
vt 0.740716 0.817332
vt 0.641320 0.698525
vt 0.646818 0.682503
vt 0.638819 0.755873
vt 0.552661 0.811989
vt 0.549010 0.792368
vt 0.553809 0.762720
vt 0.621980 0.813275
vt 0.108497 0.837169
vt 0.111866 0.841226
vt 0.597345 0.933610
vt 0.861096 0.275547
vt 0.854056 0.277307
vt 0.130286 0.638600
vt 0.853997 0.271048
vt 0.861084 0.271460
vt 0.853944 0.075442
vt 0.853969 0.051682
vt 0.740661 0.913760
vt 0.733779 0.866285
vt 0.741012 0.883363
vt 0.733786 0.887883
vt 0.733739 0.793240
vt 0.634528 0.627715
vt 0.610113 0.578130
vt 0.604014 0.580044
vt 0.610430 0.577624
vt 0.861030 0.309925
vt 0.196239 0.688543
vt 0.190794 0.685182
vt 0.590587 0.868111
vt 0.853980 0.258381
vt 0.860788 0.198815
vt 0.853944 0.130739
vt 0.854097 0.113579
vt 0.854019 0.145615
vt 0.734152 0.711782
vt 0.733841 0.707195
vt 0.119104 0.600592
vt 0.091483 0.823929
vt 0.095438 0.825861
vt 0.106278 0.834637
vt 0.740660 0.860605
vt 0.625980 0.596767
vt 0.620975 0.575340
vt 0.623461 0.574648
vt 0.618789 0.597786
vt 0.175972 0.798556
vt 0.860788 0.125648
vt 0.861100 0.137375
vt 0.861101 0.113829
vt 0.853970 0.181603
vt 0.861133 0.185000
vt 0.861168 0.209098
vt 0.853984 0.385551
vt 0.643724 0.761524
vt 0.535879 0.793010
vt 0.195847 0.797655
vt 0.535519 0.866758
vt 0.561113 0.606760
vt 0.575619 0.598744
vt 0.740752 0.901560
vt 0.191571 0.640098
vt 0.141066 0.704285
vt 0.127830 0.705004
vt 0.861047 0.002107
vt 0.861134 0.006051
vt 0.099020 0.662654
vt 0.190924 0.739689
vt 0.641202 0.630578
vt 0.638084 0.612801
vt 0.106954 0.720659
vt 0.586456 0.691333
vt 0.076606 0.769121
vt 0.588268 0.586882
vt 0.539178 0.642902
vt 0.085701 0.726504
vt 0.589422 0.845798
vt 0.861134 0.380486
vt 0.861087 0.384202
vt 0.537497 0.884420
vt 0.539092 0.885816
vt 0.081576 0.653266
vt 0.079883 0.672267
vt 0.126496 0.653213
vt 0.590528 0.955661
vt 0.590545 0.951547
vt 0.098862 0.827987
vt 0.627768 0.807851
vt 0.555402 0.848360
vt 0.566144 0.829397
vt 0.196176 0.735193
vt 0.196213 0.747476
vt 0.538657 0.806951
vt 0.595072 0.816328
vt 0.086737 0.822243
vt 0.081535 0.821328
vt 0.861143 0.323695
vt 0.142077 0.609491
vt 0.585091 0.849620
vt 0.189889 0.914105
vt 0.186654 0.912827
vt 0.626497 0.792166
vt 0.597096 0.721672
vt 0.076052 0.776040
vt 0.598387 0.668906
vt 0.106330 0.680560
vt 0.733835 0.832892
vt 0.615920 0.576393
vt 0.090716 0.699344
vt 0.111281 0.676081
vt 0.097858 0.751343
vt 0.733907 0.909945
vt 0.597335 0.937243
vt 0.196106 0.654606
vt 0.595218 0.647945
vt 0.543608 0.885780
vt 0.083816 0.708446
vt 0.085590 0.696783
vt 0.171603 0.792977
vt 0.535635 0.629674
vt 0.853935 0.345407
vt 0.733703 0.846849
vt 0.193923 0.913162
vt 0.196104 0.904167
vt 0.540670 0.611528
vt 0.733775 0.775876
vt 0.636353 0.649390
vt 0.642919 0.643243
vt 0.075226 0.712035
vt 0.076619 0.696783
vt 0.170076 0.623161
vt 0.740752 0.762570
vt 0.853944 0.017444
vt 0.853957 0.002146
vt 0.196270 0.668312
vt 0.535543 0.877139
vt 0.590553 0.959770
vt 0.645249 0.662095
vt 0.540310 0.691701
vt 0.854101 0.240964
vt 0.632084 0.613943
vt 0.861005 0.262903
vt 0.861092 0.269599
vt 0.854092 0.267013
vt 0.861092 0.267027
vt 0.854140 0.263191
vt 0.854050 0.269643
vt 0.854128 0.328612
vt 0.860960 0.333282
vt 0.853993 0.313111
vt 0.861107 0.089153
vt 0.597349 0.959909
vt 0.733741 0.713970
vt 0.733741 0.730567
vt 0.169139 0.827719
vt 0.590751 0.939247
vt 0.089801 0.617565
vt 0.740754 0.840157
vt 0.853944 0.383443
vt 0.103822 0.832081
vt 0.630355 0.595184
vt 0.535585 0.614218
vt 0.853944 0.159053
vt 0.196162 0.780749
vt 0.624072 0.811291
vt 0.192475 0.913927
vt 0.196201 0.762843
vt 0.573739 0.593729
vt 0.861134 0.389800
vt 0.597398 0.948076
vt 0.625868 0.809391
vt 0.094447 0.595194
vt 0.853944 0.375977
s 1
usemtl mouse_tex
f 3/1/1 2/2/2 375/3/3
f 5/4/4 4/5/5 7/6/6
f 256/7/7 351/8/8 254/9/9
f 371/10/10 10/11/11 9/12/12
f 18/13/13 356/14/14 357/15/15
f 83/16/16 133/17/17 134/18/18
f 392/19/19 324/20/20 320/21/21
f 237/22/22 246/23/23 245/24/24
f 67/25/25 70/26/26 156/27/27
f 356/28/28 18/29/29 365/30/30
f 254/9/9 385/31/31 253/32/32
f 385/31/31 202/33/33 384/34/34
f 28/35/35 25/36/36 27/37/37
f 118/38/38 38/39/39 39/40/40
f 142/41/41 348/42/42 374/43/43
f 295/44/44 266/45/45 187/46/46
f 132/47/47 49/48/48 48/49/49
f 10/11/11 8/50/50 9/12/12
f 185/51/51 187/46/46 266/45/45
f 15/52/52 17/53/53 355/54/54
f 258/55/55 310/56/56 309/57/57
f 292/58/58 291/59/59 273/60/60
f 203/61/61 285/62/62 273/60/60
f 167/63/63 29/64/64 166/65/65
f 93/66/66 171/67/67 95/68/68
f 72/69/69 43/70/70 69/71/71
f 209/72/72 206/73/73 210/74/74
f 45/75/75 65/76/76 46/77/77
f 276/78/78 275/79/79 283/80/80
f 90/81/81 121/82/82 124/83/83
f 236/84/84 232/85/85 225/86/86
f 126/87/87 127/88/88 25/36/36
f 299/89/89 267/90/90 298/91/91
f 164/92/92 172/93/93 388/94/94
f 199/95/95 34/96/96 198/97/97
f 257/98/98 256/7/7 250/99/99
f 271/100/100 270/101/101 269/102/102
f 280/103/103 240/104/104 277/105/105
f 39/40/40 38/39/39 42/106/106
f 119/107/107 24/108/108 130/109/109
f 174/110/110 266/45/45 298/91/91
f 61/111/111 53/112/112 54/113/113
f 50/114/114 48/49/49 49/48/48
f 61/111/111 54/113/113 59/115/115
f 64/116/116 396/117/117 63/118/118
f 390/119/119 33/120/120 34/121/121
f 44/122/122 43/70/70 45/75/75
f 326/123/123 379/124/124 194/125/125
f 133/17/17 83/16/16 84/126/126
f 87/127/127 117/128/128 115/129/129
f 117/128/128 87/127/127 81/130/130
f 166/65/65 29/64/64 32/131/131
f 86/132/132 121/82/82 90/81/81
f 73/133/133 45/75/75 72/69/69
f 268/134/134 269/102/102 270/101/101
f 118/38/38 124/83/83 38/39/39
f 119/107/107 85/135/135 91/136/136
f 38/39/39 40/137/137 41/138/138
f 283/80/80 281/139/139 288/140/140
f 166/65/65 168/141/141 167/63/63
f 75/142/142 74/143/143 153/144/144
f 314/145/145 313/146/146 235/147/147
f 62/148/148 76/149/149 150/150/150
f 298/91/91 295/44/44 299/89/89
f 337/151/151 338/152/152 184/153/153
f 315/154/154 228/155/155 229/156/156
f 69/71/71 66/157/157 68/158/158
f 145/159/159 304/160/160 358/161/161
f 301/162/162 143/163/163 307/164/164
f 136/165/165 134/18/18 47/166/166
f 142/167/167 374/168/168 52/169/169
f 165/170/170 201/171/171 202/172/172
f 358/173/173 148/174/174 145/175/175
f 89/176/176 54/113/113 131/177/177
f 368/178/178 36/179/179 35/180/180
f 326/123/123 328/181/181 380/182/182
f 260/183/183 316/184/184 312/185/185
f 323/186/186 322/187/187 321/188/188
f 8/50/50 10/11/11 79/189/189
f 174/110/110 376/190/190 182/191/191
f 360/192/192 102/193/193 101/194/194
f 173/195/195 175/196/196 376/190/190
f 175/196/196 173/195/195 176/197/197
f 343/198/198 190/199/199 276/78/78
f 3/1/1 375/3/3 14/200/200
f 212/201/201 187/46/46 347/202/202
f 376/203/203 14/204/204 182/205/205
f 221/206/206 302/207/207 222/208/208
f 186/209/209 185/51/51 357/210/210
f 360/192/192 351/211/211 325/212/212
f 97/213/213 96/214/214 98/215/215
f 44/122/122 118/38/38 39/40/40
f 44/122/122 90/81/81 118/38/38
f 348/42/42 142/41/41 300/216/216
f 77/217/217 87/127/127 80/218/218
f 64/219/219 304/220/220 145/221/221
f 198/97/97 345/222/222 377/223/223
f 326/123/123 327/224/224 328/181/181
f 277/105/105 239/225/225 278/226/226
f 50/114/114 51/227/227 48/49/49
f 76/149/149 65/76/76 73/133/133
f 313/146/146 233/228/228 234/229/229
f 87/127/127 115/129/129 116/230/230
f 293/231/231 288/140/140 289/232/232
f 219/233/233 218/234/234 387/235/235
f 260/183/183 263/236/236 316/184/184
f 272/237/237 294/238/238 243/239/239
f 217/240/240 244/241/241 242/242/242
f 147/243/243 62/148/148 149/244/244
f 377/245/245 197/246/246 198/247/247
f 19/248/248 21/249/249 20/250/250
f 361/251/251 15/52/52 362/252/252
f 12/253/253 15/52/52 13/254/254
f 40/137/137 38/39/39 125/255/255
f 40/137/137 125/255/255 129/256/256
f 207/257/257 208/258/258 203/61/61
f 226/259/259 230/260/260 207/257/257
f 153/144/144 152/261/261 154/262/262
f 322/187/187 349/263/263 392/19/19
f 249/264/264 248/265/265 250/99/99
f 237/22/22 179/266/266 177/267/267
f 29/64/64 391/268/268 32/131/131
f 106/269/269 153/144/144 107/270/270
f 217/240/240 242/242/242 216/271/271
f 217/240/240 205/272/272 244/241/241
f 321/188/188 320/21/21 251/273/273
f 98/215/215 99/274/274 161/275/275
f 116/230/230 115/129/129 146/276/276
f 41/138/138 92/277/277 97/213/213
f 79/189/189 10/11/11 91/136/136
f 214/278/278 213/279/279 212/201/201
f 287/280/280 293/231/231 289/232/232
f 275/79/79 280/103/103 281/139/139
f 130/109/109 122/281/281 119/107/107
f 74/143/143 72/69/69 152/261/261
f 71/282/282 68/158/158 155/283/283
f 216/271/271 220/284/284 224/285/285
f 129/256/256 126/87/87 170/286/286
f 272/237/237 243/239/239 241/287/287
f 243/239/239 242/242/242 241/287/287
f 330/288/288 292/58/58 286/289/289
f 206/73/73 205/272/272 217/240/240
f 224/285/285 210/74/74 217/240/240
f 246/23/23 268/134/134 245/24/24
f 12/253/253 2/2/2 139/290/290
f 92/277/277 93/66/66 96/214/214
f 70/26/26 97/213/213 158/291/291
f 227/292/292 204/293/293 206/73/73
f 220/284/284 221/206/206 225/86/86
f 17/53/53 18/29/29 355/54/54
f 223/294/294 236/84/84 222/208/208
f 188/295/295 187/46/46 296/296/296
f 42/106/106 41/138/138 70/26/26
f 261/297/297 359/298/298 265/299/299
f 94/300/300 95/68/68 100/301/301
f 374/168/168 50/114/114 49/48/48
f 295/44/44 305/302/302 297/303/303
f 307/164/164 143/163/163 306/304/304
f 148/305/305 395/306/306 147/307/307
f 189/308/308 183/309/309 185/51/51
f 89/176/176 86/132/132 88/310/310
f 327/224/224 194/125/125 193/311/311
f 132/47/47 133/17/17 131/177/177
f 21/249/249 19/248/248 12/253/253
f 211/312/312 213/279/279 294/238/238
f 308/313/313 311/314/314 223/294/294
f 51/315/315 50/316/316 374/43/43
f 310/56/56 311/314/314 308/313/313
f 289/232/232 288/140/140 290/317/317
f 30/318/318 191/319/319 345/320/320
f 386/321/321 255/322/322 256/7/7
f 393/323/323 387/324/324 325/325/325
f 95/68/68 388/94/94 172/93/93
f 290/317/317 327/224/224 289/232/232
f 75/142/142 73/133/133 74/143/143
f 107/270/270 154/262/262 108/326/326
f 58/327/327 359/298/298 112/328/328
f 31/329/329 369/330/330 345/222/222
f 333/331/331 334/332/332 182/191/191
f 355/333/333 340/334/334 341/335/335
f 9/12/12 8/50/50 11/336/336
f 353/337/337 361/338/338 334/339/339
f 335/340/340 184/153/153 189/308/308
f 386/321/321 324/20/20 393/323/323
f 191/319/319 196/341/341 345/320/320
f 7/342/342 376/203/203 191/319/319
f 28/343/343 27/344/344 370/345/345
f 368/178/178 200/346/346 201/171/171
f 56/347/347 163/348/348 55/349/349
f 382/350/350 200/351/351 381/352/352
f 384/34/34 382/350/350 383/353/353
f 220/284/284 216/271/271 214/278/278
f 349/354/354 359/298/298 219/233/233
f 263/355/355 109/356/356 262/357/357
f 265/299/299 359/298/298 349/354/354
f 397/358/358 155/283/283 109/359/359
f 151/360/360 153/144/144 106/269/269
f 114/361/361 113/362/362 78/363/363
f 61/111/111 140/364/364 52/169/169
f 215/365/365 214/278/278 348/366/366
f 165/170/170 202/172/172 385/367/367
f 364/368/368 342/369/369 340/334/334
f 249/264/264 384/34/34 329/370/370
f 339/371/371 363/372/372 341/335/335
f 363/372/372 355/333/333 341/335/335
f 343/373/373 344/374/374 191/319/319
f 393/323/323 392/19/19 387/324/324
f 304/220/220 64/219/219 350/375/375
f 106/376/376 352/377/377 105/378/378
f 272/237/237 271/100/100 211/312/312
f 151/360/360 75/142/142 153/144/144
f 109/356/356 110/379/379 359/298/298
f 228/155/155 226/259/259 207/257/257
f 290/317/317 328/181/181 327/224/224
f 158/291/291 98/215/215 157/380/380
f 37/381/381 165/382/382 367/383/383
f 356/14/14 365/384/384 357/15/15
f 344/385/385 276/78/78 192/386/386
f 199/95/95 368/178/178 34/96/96
f 198/97/97 33/387/387 31/329/329
f 298/91/91 176/197/197 173/195/195
f 335/388/388 334/339/339 361/338/338
f 14/204/204 376/203/203 373/389/389
f 181/390/390 332/391/391 331/392/392
f 218/234/234 57/393/393 55/394/394
f 346/395/395 385/31/31 254/9/9
f 396/117/117 150/150/150 151/360/360
f 53/112/112 131/177/177 54/113/113
f 306/396/396 308/313/313 307/397/397
f 300/398/398 220/284/284 215/365/365
f 352/377/377 106/376/376 259/399/399
f 104/400/400 102/401/401 162/402/402
f 104/400/400 103/403/403 102/401/401
f 238/404/404 177/267/267 176/197/197
f 267/90/90 176/197/197 298/91/91
f 324/20/20 386/321/321 257/98/98
f 18/13/13 357/15/15 342/369/369
f 372/405/405 11/406/406 7/342/342
f 370/345/345 9/407/407 372/405/405
f 175/408/408 331/392/392 376/203/203
f 373/389/389 6/409/409 3/410/410
f 182/191/191 334/332/332 189/308/308
f 300/216/216 142/41/41 302/411/411
f 297/303/303 267/90/90 299/89/89
f 132/47/47 53/112/112 49/48/48
f 294/238/238 214/278/278 216/271/271
f 63/118/118 396/117/117 105/412/412
f 365/30/30 19/248/248 20/250/250
f 213/279/279 211/312/312 212/201/201
f 59/115/115 54/113/113 65/76/76
f 114/361/361 146/276/276 139/290/290
f 7/6/6 4/5/5 6/413/413
f 178/414/414 176/197/197 177/267/267
f 353/415/415 14/200/200 361/251/251
f 11/336/336 5/4/4 7/6/6
f 375/3/3 13/254/254 14/200/200
f 168/141/141 169/416/416 389/417/417
f 297/303/303 269/102/102 268/134/134
f 298/91/91 173/195/195 174/110/110
f 380/182/182 328/181/181 381/352/352
f 311/314/314 235/147/147 236/84/84
f 230/260/260 226/259/259 251/273/273
f 54/113/113 88/310/310 46/77/77
f 235/147/147 234/229/229 236/84/84
f 258/418/418 350/375/375 352/377/377
f 377/245/245 378/419/419 197/246/246
f 390/119/119 32/131/131 33/120/120
f 279/420/420 278/226/226 282/421/421
f 268/134/134 270/101/101 240/104/104
f 126/87/87 168/141/141 170/286/286
f 369/422/422 391/423/423 30/318/318
f 320/21/21 257/98/98 252/424/424
f 182/191/191 189/308/308 174/110/110
f 237/22/22 180/425/425 179/266/266
f 94/300/300 100/301/301 103/403/403
f 112/426/426 157/380/380 58/427/427
f 204/293/293 203/61/61 274/428/428
f 81/130/130 85/135/135 120/429/429
f 43/70/70 39/40/40 66/157/157
f 72/69/69 69/71/71 71/282/282
f 259/430/430 312/185/185 310/56/56
f 166/65/65 32/131/131 390/119/119
f 164/92/92 36/431/431 165/382/382
f 180/425/425 237/22/22 275/79/79
f 25/36/36 26/432/432 167/63/63
f 316/184/184 317/433/433 313/146/146
f 51/227/227 366/434/434 48/49/49
f 297/303/303 305/302/302 269/102/102
f 142/41/41 140/435/435 141/436/436
f 149/244/244 150/150/150 396/117/117
f 186/209/209 187/46/46 185/51/51
f 16/437/437 355/54/54 363/438/438
f 311/314/314 236/84/84 223/294/294
f 91/136/136 87/127/127 77/217/217
f 264/439/439 323/186/186 265/440/440
f 399/441/441 329/370/370 330/288/288
f 360/192/192 163/442/442 162/443/443
f 302/207/207 301/444/444 222/208/208
f 299/89/89 295/44/44 297/303/303
f 64/116/116 145/175/175 148/174/174
f 62/148/148 147/243/243 144/445/445
f 396/117/117 64/116/116 148/174/174
f 222/208/208 301/444/444 223/294/294
f 12/253/253 19/248/248 15/52/52
f 295/44/44 188/295/295 305/302/302
f 137/446/446 21/249/249 12/253/253
f 362/252/252 15/52/52 16/437/437
f 137/446/446 139/290/290 138/447/447
f 388/94/94 170/286/286 389/417/417
f 14/200/200 13/254/254 15/52/52
f 37/381/381 164/92/92 165/382/382
f 252/424/424 250/99/99 248/265/265
f 11/336/336 8/50/50 5/4/4
f 359/298/298 58/327/327 57/393/393
f 369/422/422 30/318/318 345/320/320
f 211/312/312 305/302/302 296/296/296
f 191/448/448 332/449/449 180/425/425
f 6/413/413 4/5/5 1/450/450
f 3/1/1 1/450/450 2/2/2
f 348/366/366 214/278/278 212/201/201
f 135/451/451 132/47/47 48/49/49
f 47/166/166 137/446/446 138/447/447
f 395/306/306 148/305/305 358/161/161
f 309/57/57 306/396/396 395/452/452
f 19/248/248 18/29/29 17/53/53
f 309/57/57 304/453/453 258/55/55
f 235/147/147 313/146/146 234/229/229
f 44/122/122 88/310/310 90/81/81
f 365/384/384 22/454/454 357/15/15
f 382/350/350 201/455/455 200/351/351
f 287/280/280 192/386/386 293/231/231
f 384/34/34 201/455/455 382/350/350
f 225/86/86 232/85/85 210/74/74
f 212/201/201 211/312/312 187/46/46
f 21/249/249 47/166/166 22/456/456
f 294/238/238 213/279/279 214/278/278
f 355/54/54 16/437/437 15/52/52
f 81/130/130 84/126/126 83/16/16
f 88/310/310 86/132/132 90/81/81
f 344/374/374 196/341/341 191/319/319
f 269/102/102 305/302/302 271/100/100
f 73/133/133 65/76/76 45/75/75
f 183/309/309 340/457/457 342/458/458
f 266/45/45 189/308/308 185/51/51
f 76/149/149 60/459/459 65/76/76
f 298/91/91 266/45/45 295/44/44
f 71/282/282 69/71/71 68/158/158
f 86/132/132 82/460/460 121/82/82
f 352/461/461 259/430/430 310/56/56
f 321/188/188 322/187/187 320/21/21
f 83/16/16 117/128/128 81/130/130
f 123/462/462 129/256/256 125/255/255
f 205/272/272 204/293/293 274/428/428
f 43/70/70 44/122/122 39/40/40
f 327/224/224 287/280/280 289/232/232
f 292/58/58 290/317/317 291/59/59
f 126/87/87 25/36/36 167/63/63
f 119/107/107 122/281/281 85/135/135
f 80/218/218 78/363/363 77/217/217
f 108/326/326 154/262/262 397/358/358
f 247/463/463 285/62/62 208/258/258
f 243/239/239 216/271/271 242/242/242
f 169/416/416 390/119/119 34/121/121
f 263/355/355 108/464/464 109/356/356
f 227/292/292 228/155/155 207/257/257
f 34/121/121 389/417/417 169/416/416
f 384/34/34 202/33/33 201/455/455
f 102/401/401 103/403/403 101/465/465
f 238/404/404 237/22/22 177/267/267
f 105/412/412 151/360/360 106/269/269
f 272/237/237 239/225/225 271/100/100
f 42/106/106 38/39/39 41/138/138
f 243/239/239 294/238/238 216/271/271
f 8/50/50 78/363/363 5/4/4
f 328/181/181 383/353/353 381/352/352
f 251/273/273 320/21/21 252/424/424
f 251/273/273 318/466/466 321/188/188
f 136/165/165 83/16/16 134/18/18
f 285/62/62 292/58/58 273/60/60
f 236/84/84 234/229/229 232/85/85
f 316/184/184 263/236/236 317/433/433
f 125/255/255 38/39/39 124/83/83
f 326/123/123 380/182/182 379/124/124
f 327/224/224 326/123/123 194/125/125
f 210/74/74 224/285/285 225/86/86
f 158/291/291 156/27/27 70/26/26
f 313/146/146 312/185/185 316/184/184
f 166/65/65 169/416/416 168/141/141
f 123/462/462 124/83/83 121/82/82
f 122/281/281 121/82/82 120/429/429
f 270/101/101 239/225/225 240/104/104
f 74/143/143 73/133/133 72/69/69
f 67/25/25 42/106/106 70/26/26
f 292/58/58 284/467/467 286/289/289
f 231/468/468 234/229/229 233/228/228
f 130/109/109 127/88/88 122/281/281
f 69/71/71 43/70/70 66/157/157
f 259/430/430 260/183/183 312/185/185
f 118/38/38 90/81/81 124/83/83
f 72/69/69 45/75/75 43/70/70
f 210/74/74 231/468/468 209/72/72
f 245/24/24 268/134/134 240/104/104
f 25/36/36 127/88/88 130/109/109
f 300/398/398 221/206/206 220/284/284
f 149/244/244 62/148/148 150/150/150
f 352/377/377 63/469/469 105/378/378
f 115/129/129 117/128/128 136/165/165
f 158/291/291 97/213/213 98/215/215
f 215/365/365 220/284/284 214/278/278
f 346/470/470 165/170/170 385/367/367
f 163/442/442 360/192/192 325/212/212
f 194/125/125 377/245/245 195/471/471
f 52/169/169 374/168/168 49/48/48
f 128/472/472 127/88/88 126/87/87
f 62/148/148 60/459/459 76/149/149
f 20/250/250 21/249/249 22/456/456
f 355/54/54 18/29/29 364/473/473
f 366/434/434 22/456/456 47/166/166
f 374/43/43 348/42/42 51/315/315
f 309/57/57 310/56/56 308/313/313
f 139/290/290 146/276/276 138/447/447
f 277/105/105 281/139/139 280/103/103
f 318/466/466 394/474/474 319/475/475
f 2/2/2 114/361/361 139/290/290
f 130/109/109 24/108/108 25/36/36
f 237/22/22 238/404/404 400/476/476
f 228/155/155 318/466/466 226/259/259
f 169/416/416 166/65/65 390/119/119
f 293/231/231 283/80/80 288/140/140
f 283/80/80 192/386/386 276/78/78
f 228/155/155 317/433/433 394/474/474
f 203/61/61 208/258/258 285/62/62
f 26/432/432 30/477/477 29/64/64
f 174/110/110 173/195/195 376/190/190
f 165/170/170 368/178/178 201/171/171
f 368/178/178 165/170/170 36/179/179
f 212/478/478 51/315/315 348/42/42
f 259/399/399 106/376/376 107/479/479
f 186/209/209 347/202/202 187/46/46
f 338/152/152 339/480/480 184/153/153
f 365/30/30 18/29/29 19/248/248
f 152/261/261 72/69/69 71/282/282
f 336/481/481 337/151/151 184/153/153
f 151/360/360 150/150/150 75/142/142
f 93/66/66 40/137/137 171/67/67
f 78/363/363 116/230/230 114/361/361
f 314/145/145 310/56/56 312/185/185
f 47/166/166 134/18/18 366/434/434
f 357/210/210 185/51/51 183/309/309
f 296/296/296 187/46/46 211/312/312
f 225/86/86 222/208/208 236/84/84
f 217/240/240 210/74/74 206/73/73
f 66/157/157 39/40/40 42/106/106
f 242/242/242 278/226/226 239/225/225
f 33/120/120 32/131/131 31/482/482
f 263/355/355 107/479/479 108/464/464
f 71/282/282 154/262/262 152/261/261
f 227/292/292 207/257/257 204/293/293
f 359/298/298 110/379/379 111/483/483
f 79/189/189 91/136/136 77/217/217
f 282/421/421 278/226/226 244/241/241
f 156/27/27 109/359/359 155/283/283
f 229/156/156 313/146/146 315/154/154
f 258/418/418 304/220/220 350/375/375
f 91/136/136 85/135/135 87/127/127
f 277/105/105 240/104/104 239/225/225
f 291/59/59 279/420/420 282/421/421
f 205/272/272 274/428/428 244/241/241
f 167/63/63 26/432/432 29/64/64
f 78/363/363 4/5/5 5/4/4
f 283/80/80 275/79/79 281/139/139
f 275/79/79 237/22/22 245/24/24
f 170/286/286 168/141/141 389/417/417
f 159/484/484 158/291/291 157/380/380
f 359/298/298 111/483/483 112/328/328
f 157/380/380 111/485/485 159/484/484
f 394/474/474 263/236/236 262/486/486
f 323/186/186 264/439/439 322/187/187
f 81/130/130 87/127/127 85/135/135
f 262/486/486 261/487/487 394/474/474
f 199/488/488 381/352/352 200/351/351
f 261/487/487 319/475/475 394/474/474
f 249/264/264 247/463/463 248/265/265
f 264/489/489 265/299/299 349/354/354
f 349/263/263 322/187/187 264/439/439
f 96/214/214 93/66/66 94/300/300
f 247/463/463 208/258/258 230/260/260
f 345/320/320 195/490/490 377/491/491
f 282/421/421 273/60/60 291/59/59
f 114/361/361 116/230/230 146/276/276
f 41/138/138 40/137/137 92/277/277
f 92/277/277 40/137/137 93/66/66
f 70/26/26 41/138/138 97/213/213
f 272/237/237 241/287/287 239/225/225
f 287/280/280 327/224/224 193/311/311
f 192/386/386 196/492/492 344/385/385
f 80/218/218 87/127/127 116/230/230
f 254/9/9 253/32/32 250/99/99
f 279/420/420 277/105/105 278/226/226
f 237/22/22 400/476/476 246/23/23
f 282/421/421 244/241/241 274/428/428
f 280/103/103 245/24/24 240/104/104
f 313/146/146 317/433/433 315/154/154
f 108/326/326 397/358/358 109/359/359
f 397/358/358 71/282/282 155/283/283
f 227/292/292 233/228/228 229/156/156
f 354/493/493 361/251/251 362/252/252
f 261/297/297 109/356/356 359/298/298
f 288/140/140 281/139/139 279/420/420
f 97/213/213 92/277/277 96/214/214
f 193/311/311 195/471/471 196/492/492
f 48/49/49 134/18/18 135/451/451
f 224/285/285 217/240/240 216/271/271
f 391/268/268 29/64/64 30/477/477
f 132/47/47 134/18/18 133/17/17
f 136/165/165 146/276/276 115/129/129
f 307/397/397 223/294/294 301/444/444
f 163/442/442 325/212/212 55/494/494
f 301/162/162 141/436/436 143/163/163
f 189/308/308 184/153/153 183/309/309
f 198/247/247 380/182/182 199/488/488
f 159/484/484 110/495/495 156/27/27
f 193/311/311 192/386/386 287/280/280
f 119/107/107 23/496/496 24/108/108
f 256/7/7 255/322/322 351/8/8
f 127/88/88 123/462/462 122/281/281
f 45/75/75 46/77/77 44/122/122
f 14/204/204 333/497/497 182/205/205
f 267/90/90 238/404/404 176/197/197
f 99/274/274 94/300/300 103/403/403
f 160/498/498 58/427/427 157/380/380
f 191/319/319 376/203/203 331/392/392
f 354/499/499 335/388/388 361/338/338
f 331/392/392 332/391/391 191/319/319
f 372/405/405 9/407/407 11/406/406
f 16/500/500 337/501/501 362/502/501
f 334/332/332 335/340/340 189/308/308
f 336/503/502 362/502/501 337/501/501
f 338/504/503 363/372/372 339/371/371
f 51/315/315 347/505/504 366/506/505
f 42/106/106 68/158/158 66/157/157
f 22/454/454 347/505/504 186/507/506
f 360/192/192 162/443/443 102/193/193
f 370/345/345 371/508/507 9/407/407
f 371/10/10 23/496/496 10/11/11
f 325/212/212 218/509/508 55/494/494
f 370/345/345 27/344/344 371/508/507
f 57/393/393 56/510/509 55/394/394
f 198/97/97 31/329/329 345/222/222
f 30/318/318 28/343/343 191/319/319
f 58/327/327 56/511/510 57/393/393
f 400/476/476 401/512/511 268/134/134 246/23/23
f 34/96/96 368/178/178 35/180/180
f 28/343/343 370/345/345 191/319/319
f 320/21/21 324/20/20 257/98/98
f 57/393/393 218/234/234 219/233/233
f 60/459/459 59/115/115 65/76/76
f 53/112/112 132/47/47 131/177/177
f 311/314/314 314/145/145 235/147/147
f 360/192/192 367/513/512 351/211/211
f 392/19/19 219/514/513 387/324/324
f 251/273/273 248/265/265 230/260/260
f 204/293/293 207/257/257 203/61/61
f 1/450/450 113/362/362 114/361/361
f 260/515/514 259/399/399 263/355/355
f 12/253/253 13/254/254 2/2/2
f 141/436/436 302/411/411 142/41/41
f 95/68/68 171/67/67 388/94/94
f 253/32/32 249/264/264 250/99/99
f 303/516/515 300/216/216 302/411/411
f 94/300/300 98/215/215 96/214/214
f 306/304/304 143/163/163 395/306/306
f 304/160/160 395/306/306 358/161/161
f 350/375/375 64/219/219 63/469/469
f 355/333/333 364/368/368 340/334/334
f 353/337/337 334/339/339 333/497/497
f 272/237/237 211/312/312 294/238/238
f 221/206/206 303/517/516 302/207/207
f 318/466/466 323/186/186 321/188/188
f 113/362/362 1/450/450 4/5/5
f 161/275/275 157/380/380 98/215/215
f 53/112/112 52/169/169 49/48/48
f 28/35/35 26/432/432 25/36/36
f 56/347/347 398/518/517 163/348/348
f 393/323/323 324/20/20 392/19/19
f 219/233/233 359/298/298 57/393/393
f 198/97/97 34/96/96 33/387/387
f 257/98/98 386/321/321 256/7/7
f 346/470/470 351/211/211 367/513/512
f 77/217/217 8/50/50 79/189/189
f 370/345/345 372/405/405 191/319/319
f 372/405/405 7/342/342 191/319/319
f 7/342/342 373/389/389 376/203/203
f 373/389/389 7/342/342 6/409/409
f 3/1/1 6/413/413 1/450/450
f 335/340/340 336/481/481 184/153/153
f 392/19/19 349/263/263 219/514/513
f 367/513/512 360/192/192 101/194/194
f 138/447/447 136/165/165 47/166/166
f 147/307/307 395/306/306 143/163/163
f 369/519/518 32/131/131 391/268/268
f 94/300/300 93/66/66 95/68/68
f 103/403/403 161/275/275 99/274/274
f 274/428/428 203/61/61 273/60/60
f 364/368/368 18/13/13 342/369/369
f 73/133/133 150/150/150 76/149/149
f 200/346/346 368/178/178 199/95/95
f 186/507/506 357/15/15 22/454/454
f 137/446/446 12/253/253 139/290/290
f 175/408/408 178/520/519 331/392/392
f 331/521/520 178/414/414 177/267/267
f 322/187/187 392/19/19 320/21/21
f 141/522/521 61/111/111 59/115/115
f 258/55/55 352/461/461 310/56/56
f 275/79/79 245/24/24 280/103/103
f 224/285/285 220/284/284 225/86/86
f 307/397/397 308/313/313 223/294/294
f 305/302/302 188/295/295 296/296/296
f 340/457/457 184/153/153 341/523/522
f 306/396/396 309/57/57 308/313/313
f 131/177/177 84/126/126 89/176/176
f 339/480/480 341/523/522 184/153/153
f 194/125/125 379/124/124 378/419/419
f 190/199/199 191/448/448 180/425/425
f 188/295/295 295/44/44 187/46/46
f 15/52/52 19/248/248 17/53/53
f 100/301/301 95/68/68 172/93/93
f 179/266/266 331/521/520 177/267/267
f 179/266/266 332/449/449 181/524/523
f 361/251/251 14/200/200 15/52/52
f 261/487/487 323/186/186 319/475/475
f 254/9/9 351/8/8 346/395/395
f 174/110/110 189/308/308 266/45/45
f 197/246/246 379/124/124 198/247/247
f 276/78/78 190/199/199 275/79/79
f 27/37/37 25/36/36 24/108/108
f 347/505/504 22/454/454 366/506/505
f 253/32/32 385/31/31 384/34/34
f 105/412/412 396/117/117 151/360/360
f 249/264/264 329/370/370 399/441/441
f 58/427/427 398/518/517 56/347/347
f 241/287/287 242/242/242 239/225/225
f 167/63/63 168/141/141 126/87/87
f 155/283/283 68/158/158 67/25/25
f 121/82/82 81/130/130 120/429/429
f 375/3/3 2/2/2 13/254/254
f 3/410/410 14/204/204 373/389/389
f 178/414/414 175/196/196 176/197/197
f 82/460/460 89/176/176 84/126/126
f 120/429/429 85/135/135 122/281/281
f 398/518/517 161/275/275 104/400/400
f 89/176/176 88/310/310 54/113/113
f 65/76/76 54/113/113 46/77/77
f 107/270/270 153/144/144 154/262/262
f 190/199/199 180/425/425 275/79/79
f 248/265/265 247/463/463 230/260/260
f 164/92/92 388/94/94 36/431/431
f 162/402/402 398/518/517 104/400/400
f 37/381/381 172/93/93 164/92/92
f 344/385/385 343/198/198 276/78/78
f 386/321/321 325/325/325 255/322/322
f 250/99/99 256/7/7 254/9/9
f 101/465/465 37/381/381 367/383/383
f 206/73/73 231/468/468 227/292/292
f 329/370/370 384/34/34 383/353/353
f 249/264/264 284/467/467 247/463/463
f 290/317/317 288/140/140 291/59/59
f 35/525/524 388/94/94 389/417/417
f 249/264/264 253/32/32 384/34/34
f 23/496/496 91/136/136 10/11/11
f 383/353/353 382/350/350 381/352/352
f 171/67/67 129/256/256 170/286/286
f 153/144/144 74/143/143 152/261/261
f 147/307/307 143/163/163 144/526/525
f 140/364/364 142/167/167 52/169/169
f 22/456/456 365/30/30 20/250/250
f 357/210/210 183/309/309 342/458/458
f 129/256/256 128/472/472 126/87/87
f 207/257/257 230/260/260 208/258/258
f 155/283/283 67/25/25 156/27/27
f 37/381/381 103/403/403 100/301/301
f 23/496/496 27/37/37 24/108/108
f 255/527/526 325/212/212 351/211/211
f 143/528/527 59/115/115 60/459/459
f 325/325/325 387/324/324 218/529/528
f 325/325/325 386/321/321 393/323/323
f 143/528/527 62/148/148 144/445/445
f 149/244/244 396/117/117 148/174/174
f 147/243/243 149/244/244 148/174/174
f 215/530/529 348/42/42 300/216/216
f 388/94/94 171/67/67 170/286/286
f 252/424/424 257/98/98 250/99/99
f 211/312/312 271/100/100 305/302/302
f 47/166/166 21/249/249 137/446/446
f 309/57/57 395/452/452 304/453/453
f 44/122/122 46/77/77 88/310/310
f 81/130/130 82/460/460 84/126/126
f 123/462/462 128/472/472 129/256/256
f 205/272/272 206/73/73 204/293/293
f 292/58/58 330/288/288 290/317/317
f 247/463/463 284/467/467 285/62/62
f 227/292/292 229/156/156 228/155/155
f 34/121/121 35/525/524 389/417/417
f 8/50/50 77/217/217 78/363/363
f 328/181/181 329/370/370 383/353/353
f 251/273/273 226/259/259 318/466/466
f 136/165/165 117/128/128 83/16/16
f 158/291/291 159/484/484 156/27/27
f 313/146/146 314/145/145 312/185/185
f 123/462/462 125/255/255 124/83/83
f 122/281/281 123/462/462 121/82/82
f 270/101/101 271/100/100 239/225/225
f 292/58/58 285/62/62 284/467/467
f 231/468/468 232/85/85 234/229/229
f 210/74/74 232/85/85 231/468/468
f 300/398/398 303/517/516 221/206/206
f 352/377/377 350/375/375 63/469/469
f 346/470/470 367/513/512 165/170/170
f 194/125/125 378/419/419 377/245/245
f 277/105/105 279/420/420 281/139/139
f 318/466/466 228/155/155 394/474/474
f 2/2/2 1/450/450 114/361/361
f 283/80/80 293/231/231 192/386/386
f 228/155/155 315/154/154 317/433/433
f 26/432/432 28/35/35 30/477/477
f 78/363/363 80/218/218 116/230/230
f 314/145/145 311/314/314 310/56/56
f 225/86/86 221/206/206 222/208/208
f 242/242/242 244/241/241 278/226/226
f 263/355/355 259/399/399 107/479/479
f 71/282/282 397/358/358 154/262/262
f 156/27/27 110/495/495 109/359/359
f 229/156/156 233/228/228 313/146/146
f 291/59/59 288/140/140 279/420/420
f 78/363/363 113/362/362 4/5/5
f 157/380/380 112/426/426 111/485/485
f 394/474/474 317/433/433 263/236/236
f 199/488/488 380/182/182 381/352/352
f 345/320/320 196/341/341 195/490/490
f 282/421/421 274/428/428 273/60/60
f 192/386/386 193/311/311 196/492/492
f 227/292/292 231/468/468 233/228/228
f 261/297/297 262/357/357 109/356/356
f 193/311/311 194/125/125 195/471/471
f 48/49/49 366/434/434 134/18/18
f 132/47/47 135/451/451 134/18/18
f 136/165/165 138/447/447 146/276/276
f 198/247/247 379/124/124 380/182/182
f 159/484/484 111/485/485 110/495/495
f 127/88/88 128/472/472 123/462/462
f 14/204/204 353/337/337 333/497/497
f 354/499/499 336/503/502 335/388/388
f 16/500/500 338/504/503 337/501/501
f 336/503/502 354/499/499 362/502/501
f 338/504/503 16/500/500 363/372/372
f 51/315/315 212/478/478 347/505/504
f 42/106/106 67/25/25 68/158/158
f 251/273/273 252/424/424 248/265/265
f 141/436/436 301/162/162 302/411/411
f 94/300/300 99/274/274 98/215/215
f 318/466/466 319/475/475 323/186/186
f 161/275/275 160/498/498 157/380/380
f 53/112/112 61/111/111 52/169/169
f 369/519/518 31/482/482 32/131/131
f 103/403/403 104/400/400 161/275/275
f 73/133/133 75/142/142 150/150/150
f 141/522/521 140/364/364 61/111/111
f 340/457/457 183/309/309 184/153/153
f 131/177/177 133/17/17 84/126/126
f 190/199/199 343/198/198 191/448/448
f 179/266/266 181/524/523 331/521/520
f 179/266/266 180/425/425 332/449/449
f 261/487/487 265/440/440 323/186/186
f 197/246/246 378/419/419 379/124/124
f 286/289/289 284/467/467 249/264/264
f 58/427/427 160/498/498 398/518/517
f 121/82/82 82/460/460 81/130/130
f 82/460/460 86/132/132 89/176/176
f 398/518/517 160/498/498 161/275/275
f 162/402/402 163/348/348 398/518/517
f 37/381/381 100/301/301 172/93/93
f 206/73/73 209/72/72 231/468/468
f 35/525/524 36/431/431 388/94/94
f 23/496/496 119/107/107 91/136/136
f 171/67/67 40/137/137 129/256/256
f 37/381/381 101/465/465 103/403/403
f 23/496/496 371/10/10 27/37/37
f 143/528/527 141/522/521 59/115/115
f 143/528/527 60/459/459 62/148/148
f 329/370/370 328/181/181 330/288/288
f 330/288/288 328/181/181 290/317/317
f 286/289/289 399/441/441 330/288/288
f 286/289/289 249/264/264 399/441/441
f 238/404/404 267/90/90 401/512/511 400/476/476
f 401/512/511 297/303/303 268/134/134
f 401/512/511 267/90/90 297/303/303
