# Blender 4.5.0
# www.blender.org
mtllib Touch_Point.mtl
o Touch_Point
v 0.000000 0.000000 0.000000
v 0.030670 0.000000 0.074045
v 0.000000 0.000000 0.080146
v -0.030670 -0.000000 -0.074045
v 0.000000 0.000000 0.000000
v -0.056672 -0.000000 -0.056672
v 0.056672 0.000000 0.056672
v 0.030670 0.000000 0.074045
v 0.000000 0.000000 0.000000
v -0.056672 -0.000000 -0.056672
v 0.000000 0.000000 0.000000
v -0.074045 -0.000000 -0.030670
v 0.074045 0.000000 0.030670
v 0.000000 0.000000 0.000000
v 0.080146 0.000000 0.000000
v -0.074045 -0.000000 -0.030670
v 0.000000 0.000000 0.000000
v -0.080146 0.000000 0.000000
v -0.030670 0.000000 0.074045
v 0.000000 0.000000 0.000000
v 0.000000 0.000000 0.080146
v 0.030670 -0.000000 -0.074045
v 0.000000 0.000000 0.000000
v 0.000000 -0.000000 -0.080146
v 0.056672 -0.000000 -0.056672
v 0.000000 0.000000 0.000000
v 0.030670 -0.000000 -0.074045
v -0.056672 0.000000 0.056672
v 0.000000 0.000000 0.000000
v -0.030670 0.000000 0.074045
v 0.000000 0.000000 0.000000
v 0.074045 -0.000000 -0.030670
v 0.080146 0.000000 0.000000
v -0.074045 0.000000 0.030670
v 0.000000 0.000000 0.000000
v -0.056672 0.000000 0.056672
v 0.000000 0.000000 0.000000
v 0.074045 0.000000 0.030670
v 0.056672 0.000000 0.056672
v 0.074045 -0.000000 -0.030670
v 0.000000 0.000000 0.000000
v 0.056672 -0.000000 -0.056672
v -0.080146 0.000000 0.000000
v 0.000000 0.000000 0.000000
v -0.074045 0.000000 0.030670
v 0.000000 -0.000000 -0.080146
v 0.000000 0.000000 0.000000
v -0.030670 -0.000000 -0.074045
vn -0.0000 -1.0000 -0.0000
vt 0.500000 0.500000
vt 0.039744 0.309356
vt 0.001822 0.500000
vt 0.960256 0.690644
vt 0.852265 0.852265
vt 0.147735 0.147735
vt 0.690644 0.960256
vt 0.309356 0.039744
vt 0.500000 0.001822
vt 0.500000 0.998178
vt 0.039744 0.690644
vt 0.960256 0.309356
vt 0.998178 0.500000
vt 0.852265 0.147735
vt 0.147735 0.852265
vt 0.690644 0.039744
vt 0.309356 0.960256
s 1
f 1/1/1 2/2/1 3/3/1
f 4/4/1 5/1/1 6/5/1
f 7/6/1 8/2/1 9/1/1
f 10/5/1 11/1/1 12/7/1
f 13/8/1 14/1/1 15/9/1
f 16/7/1 17/1/1 18/10/1
f 19/11/1 20/1/1 21/3/1
f 22/12/1 23/1/1 24/13/1
f 25/14/1 26/1/1 27/12/1
f 28/15/1 29/1/1 30/11/1
f 31/1/1 32/16/1 33/9/1
f 34/17/1 35/1/1 36/15/1
f 37/1/1 38/8/1 39/6/1
f 40/16/1 41/1/1 42/14/1
f 43/10/1 44/1/1 45/17/1
f 46/13/1 47/1/1 48/4/1
