# Blender 4.5.0
# www.blender.org
mtllib wheel_inner.mtl
o wheel_inner
v 0.020044 0.336506 -0.587679
v 0.109883 0.519275 -0.366122
v 0.109859 0.527698 -0.409536
v 0.109841 0.526174 -0.441853
v 0.109859 0.505033 -0.335268
v 0.109868 0.485435 -0.307506
v 0.110173 0.461605 -0.285569
v 0.110376 0.336506 -0.587679
v 0.109870 0.370492 -0.588794
v 0.109859 0.413831 -0.579960
v 0.109830 0.452699 -0.560621
v 0.109883 0.485433 -0.532111
v 0.109859 0.505033 -0.504349
v 0.109883 0.519275 -0.473495
v 0.119920 0.523246 -0.408108
v 0.119926 0.520661 -0.451105
v 0.119922 0.510787 -0.482844
v 0.119948 0.495769 -0.511470
v 0.119901 0.467476 -0.543975
v 0.119925 0.430782 -0.568242
v 0.119942 0.390793 -0.581615
v 0.119917 0.358613 -0.584532
v 0.119925 0.337107 -0.583102
v 0.119919 0.458884 -0.289124
v 0.119921 0.475184 -0.303452
v 0.119948 0.495771 -0.328152
v 0.119926 0.514608 -0.365911
v 0.020537 0.519274 -0.366122
v 0.020550 0.526275 -0.398296
v 0.020595 0.527600 -0.430892
v 0.020561 0.505033 -0.335269
v 0.020552 0.485436 -0.307507
v 0.020550 0.370492 -0.588794
v 0.020561 0.413831 -0.579959
v 0.020590 0.452699 -0.560621
v 0.020537 0.485433 -0.532111
v 0.020561 0.505033 -0.504349
v 0.020537 0.519274 -0.473496
v 0.010505 0.523320 -0.419666
v 0.010494 0.520663 -0.451101
v 0.010498 0.510787 -0.482844
v 0.010472 0.495767 -0.511474
v 0.010519 0.467478 -0.543974
v 0.010494 0.430782 -0.568242
v 0.010478 0.390792 -0.581616
v 0.010503 0.358613 -0.584532
v 0.010501 0.458884 -0.289124
v 0.010499 0.475184 -0.303452
v 0.010472 0.495772 -0.328153
v 0.010503 0.510794 -0.356780
v 0.010472 0.520409 -0.387640
v 0.120896 0.473142 -0.412301
v 0.120910 0.461589 -0.369126
v 0.120903 0.437593 -0.503438
v 0.120910 0.471162 -0.442290
v 0.121035 0.514601 -0.409585
v 0.120978 0.506704 -0.369591
v 0.121021 0.493918 -0.342159
v 0.121024 0.476294 -0.316897
v 0.121164 0.453489 -0.296154
v 0.120953 0.389122 -0.573210
v 0.121081 0.418135 -0.563954
v 0.121056 0.445575 -0.549683
v 0.120997 0.476281 -0.522779
v 0.121008 0.498831 -0.488959
v 0.121024 0.511918 -0.450415
v 0.009525 0.473142 -0.412301
v 0.009545 0.455115 -0.357750
v 0.009385 0.514601 -0.409583
v 0.009443 0.506703 -0.369588
v 0.009399 0.493917 -0.342158
v 0.009397 0.476296 -0.316900
v 0.009257 0.453489 -0.296154
v 0.009334 0.338153 -0.575277
v 0.009468 0.389121 -0.573211
v 0.009340 0.418137 -0.563953
v 0.009365 0.445575 -0.549683
v 0.009424 0.476281 -0.522778
v 0.009413 0.498831 -0.488959
v 0.009397 0.511918 -0.450415
v 0.120910 0.444961 -0.344199
v 0.120910 0.366020 -0.534348
v 0.120896 0.393613 -0.529023
v 0.121043 0.413590 -0.520620
v 0.009464 0.443231 -0.342413
v 0.009510 0.422456 -0.515190
v 0.120942 0.469234 -0.390166
v 0.009429 0.466576 -0.380510
v 0.009525 0.395507 -0.528498
v 0.009455 0.443390 -0.497127
v 0.009510 0.471162 -0.442290
v 0.120929 0.343653 -0.533376
v 0.120815 0.454583 -0.482647
v 0.009491 0.343653 -0.533376
v 0.009606 0.454584 -0.482645
v 0.009510 0.366020 -0.534348
v 0.120980 0.461848 -0.470187
v 0.009441 0.461849 -0.470186
v 0.006016 0.481874 -0.360603
v 0.006033 0.441625 -0.311617
v 0.006033 0.340925 -0.554101
v 0.006046 0.377363 -0.554801
v 0.006033 0.436747 -0.532166
v 0.006021 0.477119 -0.486753
v 0.006069 0.495181 -0.428760
v 0.124406 0.481875 -0.360605
v 0.124389 0.441625 -0.311617
v 0.124371 0.435660 -0.533078
v 0.124401 0.477119 -0.486753
v 0.124353 0.495181 -0.428761
v 0.010495 0.337107 -0.583102
v 0.121087 0.338153 -0.575276
v 0.120863 0.428343 -0.328925
v 0.124455 0.340337 -0.558627
v 0.020247 0.461605 -0.285569
v 0.009557 0.428343 -0.328925
v 0.121471 0.358605 -0.419809
v 0.008951 0.358605 -0.419809
vn -0.7567 0.4298 -0.4927
vn -0.3760 0.6859 -0.6231
vn -0.3587 0.5173 -0.7770
vn -0.3728 0.8096 0.4534
vn -0.7500 0.5621 0.3487
vn -0.3942 0.6825 0.6154
vn 0.8185 0.1198 -0.5619
vn 0.3791 0.0678 -0.9229
vn 0.3596 0.3005 -0.8834
vn 0.7832 0.2734 -0.5585
vn 0.3587 0.5173 -0.7770
vn -0.7530 0.6044 0.2601
vn -0.3991 0.8587 0.3215
vn -0.7213 0.6833 0.1135
vn 0.3729 0.8096 -0.4534
vn 0.7213 0.5811 -0.3768
vn 0.3761 0.6858 -0.6231
vn 0.7567 0.4298 -0.4927
vn -0.7832 0.2734 -0.5585
vn -0.7213 0.5811 -0.3768
vn -0.3729 0.8096 -0.4534
vn 0.7782 0.5781 -0.2453
vn 0.9930 0.1079 -0.0491
vn 0.9930 0.0886 -0.0778
vn 0.9929 0.0050 -0.1185
vn 0.5780 -0.0350 -0.8153
vn 0.8120 0.0068 -0.5836
vn 0.9921 0.0722 -0.1031
vn 0.7896 0.6064 -0.0934
vn 0.3992 0.8586 -0.3216
vn 0.3979 0.9126 -0.0938
vn 0.7616 0.4603 0.4562
vn 0.9919 0.0941 0.0849
vn 0.7509 0.5650 0.3419
vn 0.3943 0.6825 0.6154
vn -0.3791 0.9242 -0.0451
vn -0.8214 0.5596 -0.1103
vn -0.7810 0.6244 0.0072
vn -0.3791 0.0678 -0.9229
vn -0.8185 0.1198 -0.5619
vn -0.3596 0.3005 -0.8834
vn -0.3739 0.9213 0.1066
vn -0.9929 0.1191 0.0045
vn -0.9930 0.0886 -0.0777
vn -0.9921 0.0721 -0.1030
vn -0.5780 -0.0350 -0.8153
vn -0.9929 0.0049 -0.1184
vn -0.8120 0.0067 -0.5837
vn -0.9919 0.0940 0.0849
vn -0.7616 0.4603 0.4562
vn -0.9930 0.1078 -0.0490
vn -0.7782 0.5782 -0.2453
vn 1.0000 -0.0009 -0.0029
vn 0.9798 0.0107 -0.1996
vn 0.9898 0.0297 -0.1397
vn 0.9999 0.0078 -0.0132
vn 0.9855 0.0989 -0.1377
vn 0.9875 0.1182 -0.1043
vn 1.0000 0.0030 -0.0000
vn 0.9878 0.1442 -0.0593
vn 0.9909 0.0412 -0.1283
vn -0.9999 0.0027 -0.0112
vn -0.9853 -0.0582 0.1609
vn -0.9999 0.0061 -0.0139
vn -0.9852 -0.1293 0.1129
vn -1.0000 0.0063 -0.0026
vn -0.9840 -0.1351 -0.1164
vn -1.0000 0.0044 0.0050
vn -1.0000 0.0068 0.0021
vn 1.0000 0.0032 -0.0012
vn 1.0000 0.0051 -0.0005
vn 1.0000 0.0045 0.0009
vn -1.0000 0.0031 -0.0014
vn -1.0000 0.0051 -0.0009
vn -1.0000 0.0051 0.0005
vn 1.0000 0.0030 -0.0036
vn 1.0000 0.0051 0.0005
vn 1.0000 0.0040 0.0028
vn 1.0000 0.0030 0.0040
vn 1.0000 0.0063 -0.0008
vn 1.0000 0.0034 -0.0053
vn 1.0000 0.0010 -0.0048
vn 1.0000 -0.0016 -0.0058
vn 1.0000 0.0019 -0.0032
vn -1.0000 0.0027 0.0046
vn -1.0000 0.0041 0.0011
vn 1.0000 0.0006 -0.0049
vn 1.0000 0.0019 0.0052
vn -1.0000 0.0038 -0.0046
vn -1.0000 0.0053 -0.0007
vn -1.0000 0.0016 -0.0048
vn -1.0000 0.0016 -0.0047
vn -1.0000 0.0010 -0.0048
vn -1.0000 0.0006 -0.0048
vn -1.0000 0.0030 -0.0035
vn -1.0000 -0.0001 0.0068
vn -0.9990 0.0383 0.0244
vn -0.9928 0.1125 0.0405
vn -0.9864 0.1138 0.1184
vn -0.9884 0.1163 0.0974
vn -0.9860 0.0043 -0.1665
vn -0.9879 0.0364 -0.1511
vn -0.9869 -0.0079 0.1611
vn -0.9855 0.0989 -0.1377
vn -0.9873 0.1192 -0.1047
vn -0.9878 -0.0863 0.1297
vn -0.9878 0.1441 -0.0593
vn -0.9854 0.1477 0.0843
vn -0.9884 0.1477 0.0368
vn -1.0000 0.0086 -0.0009
vn -0.9881 0.1525 0.0189
vn -0.9875 0.1531 -0.0374
vn 0.9859 -0.1620 0.0421
vn 0.9999 0.0121 0.0001
vn 0.9848 -0.1722 -0.0222
vn 0.9808 -0.0662 0.1833
vn 0.9855 -0.1244 0.1153
vn 0.9873 -0.0131 0.1580
vn 0.9783 -0.0551 0.1996
vn 0.9847 -0.1347 -0.1103
vn 1.0000 0.0022 0.0027
vn 0.9871 -0.1100 -0.1166
vn 0.9875 -0.1397 -0.0726
vn 1.0000 0.0071 0.0027
vn 0.9838 -0.1750 -0.0399
vn 0.9905 0.0068 0.1374
vn -0.3886 0.6194 0.6822
vn -0.7616 0.4363 0.4792
vn -0.3924 -0.0385 -0.9190
vn 0.9915 0.0888 0.0951
vn 0.7707 0.6352 0.0502
vn 0.4099 0.8674 0.2820
vn 0.7523 0.6265 0.2037
vn 0.9924 0.1081 0.0581
vn 0.9921 0.1192 0.0391
vn 0.9922 0.1243 0.0086
vn 0.9924 0.1208 -0.0223
vn 0.9920 0.0446 -0.1181
vn 0.9928 0.0216 -0.1179
vn 0.3941 0.8065 0.4408
vn 0.3886 0.6194 0.6822
vn 0.3924 -0.0385 -0.9190
vn 0.4125 0.9080 0.0728
vn -0.3825 0.8708 -0.3087
vn -0.9928 0.1175 -0.0236
vn -0.9920 0.0446 -0.1180
vn -0.9928 0.0216 -0.1177
vn -0.9928 0.1048 0.0576
vn -0.9915 0.0887 0.0950
vn 0.9881 0.1525 0.0189
vn -0.9956 -0.0745 0.0567
vn 0.9850 -0.1582 0.0694
vn 0.9875 0.1532 -0.0375
vn -0.9849 -0.1598 0.0662
vn 0.9887 -0.1232 0.0849
vn -0.9859 -0.1620 0.0423
vn -0.9852 -0.1697 -0.0237
vn 0.9854 0.1477 0.0844
vn 0.9884 0.1162 0.0974
vn 0.9864 0.1138 0.1184
vn 0.9883 0.1477 0.0368
vn -0.9848 -0.1683 -0.0431
vn -0.9867 -0.1391 -0.0843
vn -0.9991 0.0022 0.0422
vn -0.9884 0.0552 -0.1412
vn -0.9870 -0.1110 -0.1158
vn 0.7616 0.4364 0.4792
vn -0.9860 0.0053 0.1669
vt 0.962877 0.318444
vt 0.959928 0.324186
vt 0.959917 0.312602
vt 0.959918 0.379336
vt 0.962879 0.382257
vt 0.959920 0.388107
vt 0.959946 0.173137
vt 0.962894 0.167533
vt 0.962906 0.178984
vt 0.959945 0.184508
vt 0.962905 0.190443
vt 0.962874 0.373539
vt 0.959931 0.370427
vt 0.962880 0.364821
vt 0.962904 0.210800
vt 0.959944 0.207881
vt 0.962894 0.202027
vt 0.959945 0.196284
vt 0.962877 0.306668
vt 0.962877 0.330039
vt 0.959918 0.332959
vt 0.959947 0.216597
vt 0.957691 0.213681
vt 0.957691 0.202177
vt 0.957691 0.158614
vt 0.959942 0.158625
vt 0.959949 0.164422
vt 0.957691 0.190571
vt 0.959945 0.225539
vt 0.962891 0.219710
vt 0.962909 0.228192
vt 0.959942 0.268773
vt 0.957691 0.265850
vt 0.959943 0.260100
vt 0.962902 0.265949
vt 0.959914 0.353322
vt 0.962877 0.347699
vt 0.962876 0.356147
vt 0.959927 0.289693
vt 0.962876 0.295296
vt 0.959916 0.301143
vt 0.959921 0.361945
vt 0.965131 0.359028
vt 0.965131 0.324336
vt 0.965131 0.312730
vt 0.962880 0.280785
vt 0.965131 0.280774
vt 0.962873 0.286582
vt 0.965131 0.388006
vt 0.962880 0.390930
vt 0.965131 0.335839
vt 0.962875 0.338756
vt 0.625689 0.561456
vt 0.620079 0.561332
vt 0.620051 0.549382
vt 0.625689 0.534637
vt 0.620089 0.534894
vt 0.620062 0.525293
vt 0.625689 0.517818
vt 0.620077 0.515776
vt 0.620097 0.542139
vt 0.553618 0.364916
vt 0.559298 0.371261
vt 0.553618 0.382134
vt 0.559116 0.390224
vt 0.553618 0.398572
vt 0.559181 0.445009
vt 0.553618 0.451005
vt 0.553618 0.433817
vt 0.273911 0.033219
vt 0.303665 0.041221
vt 0.301600 0.046876
vt 0.352544 0.744369
vt 0.322790 0.752372
vt 0.321741 0.744341
vt 0.304210 0.027197
vt 0.304714 0.033190
vt 0.298433 0.051848
vt 0.292909 0.057492
vt 0.298210 0.014218
vt 0.302507 0.021627
vt 0.281895 0.003438
vt 0.289320 0.006532
vt 0.294805 0.010692
vt 0.334862 0.769451
vt 0.326232 0.760268
vt 0.275933 0.002403
vt 0.287583 0.060940
vt 0.323947 0.732779
vt 0.326860 0.727206
vt 0.330777 0.722564
vt 0.337234 0.717675
vt 0.344559 0.714589
vt 0.350521 0.713554
vt 0.322245 0.738348
vt 0.338873 0.772091
vt 0.330466 0.765935
vt 0.965131 0.370701
vt 0.548059 0.450989
vt 0.548001 0.443773
vt 0.548007 0.355058
vt 0.547980 0.367008
vt 0.559350 0.362264
vt 0.548018 0.381496
vt 0.547991 0.391098
vt 0.559349 0.381362
vt 0.548005 0.400615
vt 0.548004 0.436601
vt 0.547990 0.429457
vt 0.553618 0.415018
vt 0.548003 0.419800
vt 0.548001 0.410164
vt 0.631373 0.506471
vt 0.625689 0.501373
vt 0.631422 0.496493
vt 0.631264 0.538679
vt 0.631317 0.528915
vt 0.631421 0.554126
vt 0.631350 0.545242
vt 0.631331 0.472721
vt 0.625689 0.465386
vt 0.631423 0.465402
vt 0.631379 0.482793
vt 0.625689 0.482574
vt 0.631401 0.489383
vt 0.631402 0.561323
vt 0.959936 0.396727
vt 0.962874 0.396727
vt 0.959956 0.280785
vt 0.957691 0.274570
vt 0.959945 0.237133
vt 0.962891 0.248269
vt 0.959945 0.248725
vt 0.957691 0.257178
vt 0.957691 0.248543
vt 0.957691 0.236869
vt 0.957691 0.225224
vt 0.957691 0.181814
vt 0.957691 0.173059
vt 0.962904 0.257178
vt 0.962885 0.274570
vt 0.962866 0.158625
vt 0.962906 0.236678
vt 0.959927 0.341864
vt 0.965131 0.347382
vt 0.965131 0.303973
vt 0.965131 0.295218
vt 0.965131 0.379336
vt 0.965131 0.396727
vt 0.620075 0.496592
vt 0.631443 0.520277
vt 0.631187 0.515619
vt 0.620072 0.506227
vt 0.559116 0.400772
vt 0.559371 0.396115
vt 0.559302 0.409920
vt 0.559350 0.419898
vt 0.620076 0.479790
vt 0.620072 0.472617
vt 0.620131 0.465402
vt 0.620061 0.486935
vt 0.559323 0.429751
vt 0.559336 0.438350
vt 0.553618 0.355067
vt 0.548026 0.374252
vt 0.559351 0.450989
vt 0.959948 0.274570
vt 0.559330 0.355067
s 1
usemtl mouse_tex
f 43/1/1 36/2/2 35/3/3
f 31/4/4 49/5/5 32/6/6
f 21/7/7 9/8/8 10/9/9
f 20/10/10 10/9/9 11/11/11
f 50/12/12 28/13/13 51/14/14
f 13/15/15 18/16/16 12/17/17
f 12/17/17 19/18/18 11/11/11
f 43/1/1 35/3/3 44/19/19
f 42/20/20 37/21/21 36/2/2
f 17/22/22 65/23/23 18/16/16
f 18/16/16 64/24/24 19/18/18
f 112/25/25 23/26/26 22/27/27
f 19/18/18 63/28/28 20/10/10
f 16/29/29 14/30/30 4/31/31
f 25/32/32 59/33/33 26/34/34
f 6/35/35 25/32/32 26/34/34
f 30/36/36 40/37/37 39/38/38
f 33/39/39 45/40/40 34/41/41
f 44/19/19 34/41/41 45/40/40
f 51/14/14 28/13/13 29/42/42
f 69/43/43 51/14/14 39/38/38
f 78/44/44 42/20/20 43/1/1
f 77/45/45 43/1/1 44/19/19
f 111/46/46 74/47/47 46/48/48
f 72/49/49 48/50/50 49/5/5
f 79/51/51 41/52/52 42/20/20
f 114/53/53 112/54/54 61/55/55
f 108/56/56 63/57/57 64/58/58
f 108/56/56 64/58/58 109/59/59
f 109/59/59 64/58/58 65/60/60
f 108/56/56 62/61/61 63/57/57
f 102/62/62 89/63/63 103/64/64
f 103/64/64 90/65/65 104/66/66
f 85/67/67 100/68/68 99/69/69
f 117/70/70 52/71/71 87/72/72
f 118/73/73 67/74/74 91/75/75
f 117/70/70 97/76/76 55/77/77
f 117/70/70 53/78/78 81/79/79
f 117/70/70 54/80/80 93/81/81
f 117/70/70 82/82/82 83/83/83
f 117/70/70 83/83/83 84/84/84
f 118/73/73 85/85/85 88/86/86
f 117/70/70 92/87/87 82/82/82
f 117/70/70 81/79/79 113/88/88
f 117/70/70 55/77/77 52/71/71
f 118/73/73 95/89/89 90/90/90
f 118/73/73 86/91/91 89/92/92
f 118/73/73 96/93/93 94/94/94
f 117/70/70 93/81/81 97/76/76
f 117/70/70 84/84/84 54/80/80
f 118/73/73 88/86/86 67/74/74
f 118/73/73 98/95/95 95/89/89
f 118/73/73 116/96/96 85/85/85
f 118/73/73 90/90/90 86/91/91
f 68/97/97 88/86/86 85/85/85
f 118/73/73 91/75/75 98/95/95
f 118/73/73 89/92/92 96/93/93
f 117/70/70 87/72/72 53/78/78
f 70/98/98 50/12/12 51/14/14
f 100/68/68 73/99/99 72/100/100
f 74/101/101 102/62/62 75/102/102
f 102/62/62 96/103/103 89/63/63
f 77/104/104 103/64/64 78/105/105
f 86/106/106 103/64/64 89/63/63
f 78/105/105 104/66/66 79/107/107
f 99/69/69 72/100/100 71/108/108
f 99/69/69 71/108/108 70/109/109
f 105/110/110 69/111/111 80/112/112
f 55/113/113 110/114/114 52/115/115
f 84/116/116 108/56/56 54/117/117
f 54/117/117 108/56/56 109/59/59
f 82/118/118 114/53/53 83/119/119
f 81/120/120 107/121/121 113/122/122
f 53/123/123 106/124/124 81/120/120
f 87/125/125 106/124/124 53/123/123
f 92/126/126 114/53/53 82/118/118
f 17/22/22 13/15/15 14/30/30
f 115/127/127 48/50/50 47/128/128
f 9/8/8 21/7/7 22/27/27
f 31/4/4 50/12/12 49/5/5
f 44/19/19 35/3/3 34/41/41
f 1/129/129 46/48/48 33/39/39
f 32/6/6 49/5/5 48/50/50
f 20/10/10 21/7/7 10/9/9
f 25/32/32 60/130/130 59/33/33
f 46/48/48 45/40/40 33/39/39
f 43/1/1 42/20/20 36/2/2
f 15/131/131 2/132/132 27/133/133
f 27/133/133 58/134/134 57/135/135
f 15/131/131 57/135/135 56/136/136
f 16/29/29 56/136/136 66/137/137
f 17/22/22 66/137/137 65/23/23
f 21/7/7 62/138/138 61/139/139
f 18/16/16 65/23/23 64/24/24
f 20/10/10 63/28/28 62/138/138
f 22/27/27 61/139/139 112/25/25
f 27/133/133 5/140/140 26/34/34
f 64/24/24 63/28/28 19/18/18
f 14/30/30 16/29/29 17/22/22
f 7/141/141 25/32/32 6/35/35
f 5/140/140 6/35/35 26/34/34
f 19/18/18 20/10/10 11/11/11
f 12/17/17 18/16/16 19/18/18
f 22/27/27 8/142/142 9/8/8
f 15/131/131 4/31/31 3/143/143
f 78/44/44 79/51/51 42/20/20
f 37/21/21 41/52/52 38/144/144
f 26/34/34 59/33/33 58/134/134
f 69/43/43 70/98/98 51/14/14
f 39/38/38 80/145/145 69/43/43
f 40/37/37 30/36/36 38/144/144
f 45/40/40 76/146/146 44/19/19
f 75/147/147 46/48/48 74/47/47
f 50/12/12 71/148/148 49/5/5
f 76/146/146 77/45/45 44/19/19
f 48/50/50 73/149/149 47/128/128
f 80/145/145 41/52/52 79/51/51
f 71/148/148 72/49/49 49/5/5
f 29/42/42 39/38/38 51/14/14
f 43/1/1 77/45/45 78/44/44
f 41/52/52 40/37/37 38/144/144
f 56/150/150 106/124/124 110/114/114
f 69/111/111 99/69/69 70/109/109
f 93/151/151 54/117/117 97/152/152
f 66/153/153 109/59/59 65/60/60
f 98/154/154 90/65/65 95/155/155
f 91/156/156 67/157/157 105/110/110
f 106/124/124 58/158/158 59/159/159
f 107/121/121 106/124/124 59/159/159
f 107/121/121 59/159/159 60/160/160
f 106/124/124 57/161/161 58/158/158
f 108/56/56 61/55/55 62/61/61
f 104/66/66 91/156/156 105/110/110
f 110/114/114 66/153/153 56/150/150
f 99/69/69 88/162/162 68/163/163
f 68/163/163 85/67/67 99/69/69
f 101/164/164 96/103/103 102/62/62
f 104/66/66 90/65/65 98/154/154
f 103/64/64 77/104/104 76/165/165
f 103/64/64 86/106/106 90/65/65
f 85/67/67 116/166/166 100/68/68
f 76/165/165 102/62/62 103/64/64
f 72/100/100 99/69/69 100/68/68
f 101/164/164 102/62/62 74/101/101
f 103/64/64 104/66/66 78/105/105
f 80/112/112 104/66/66 105/110/110
f 67/157/157 99/69/69 105/110/110
f 108/56/56 83/119/119 114/53/53
f 55/113/113 109/59/59 110/114/114
f 97/152/152 54/117/117 109/59/59
f 110/114/114 87/125/125 52/115/115
f 81/120/120 106/124/124 107/121/121
f 17/22/22 18/16/16 13/15/15
f 115/127/127 32/6/6 48/50/50
f 31/4/4 28/13/13 50/12/12
f 1/129/129 111/46/46 46/48/48
f 25/32/32 24/167/167 60/130/130
f 15/131/131 3/143/143 2/132/132
f 27/133/133 26/34/34 58/134/134
f 15/131/131 27/133/133 57/135/135
f 16/29/29 15/131/131 56/136/136
f 17/22/22 16/29/29 66/137/137
f 21/7/7 20/10/10 62/138/138
f 22/27/27 21/7/7 61/139/139
f 27/133/133 2/132/132 5/140/140
f 7/141/141 24/167/167 25/32/32
f 22/27/27 23/26/26 8/142/142
f 15/131/131 16/29/29 4/31/31
f 37/21/21 42/20/20 41/52/52
f 39/38/38 40/37/37 80/145/145
f 45/40/40 75/147/147 76/146/146
f 75/147/147 45/40/40 46/48/48
f 50/12/12 70/98/98 71/148/148
f 48/50/50 72/49/49 73/149/149
f 80/145/145 40/37/37 41/52/52
f 29/42/42 30/36/36 39/38/38
f 56/150/150 57/161/161 106/124/124
f 69/111/111 105/110/110 99/69/69
f 66/153/153 110/114/114 109/59/59
f 108/56/56 114/53/53 61/55/55
f 104/66/66 98/154/154 91/156/156
f 101/164/164 94/168/168 96/103/103
f 76/165/165 75/102/102 102/62/62
f 80/112/112 79/107/107 104/66/66
f 67/157/157 88/162/162 99/69/69
f 108/56/56 84/116/116 83/119/119
f 55/113/113 97/152/152 109/59/59
f 110/114/114 106/124/124 87/125/125
