# Blender 4.5.0
# www.blender.org
mtllib wheel_outer.mtl
o wheel_outer
v 0.109504 0.527906 -0.386137
v 0.109509 0.529806 -0.445219
v 0.103523 0.537061 -0.408110
v 0.103144 0.531156 -0.373575
v 0.103225 0.523599 -0.351414
v 0.103227 0.513259 -0.330460
v 0.109496 0.512416 -0.341742
v 0.103226 0.500275 -0.311040
v 0.103224 0.484866 -0.293478
v 0.109511 0.486975 -0.304623
v 0.103402 0.369944 -0.598316
v 0.109504 0.371885 -0.591776
v 0.103194 0.404738 -0.592378
v 0.103225 0.427000 -0.584803
v 0.109508 0.424761 -0.579519
v 0.103257 0.448044 -0.574402
v 0.103403 0.476810 -0.554051
v 0.109516 0.470832 -0.550767
v 0.103145 0.500328 -0.528556
v 0.103258 0.513357 -0.508971
v 0.109495 0.507076 -0.508788
v 0.103266 0.528010 -0.477313
v 0.103193 0.535693 -0.443225
v 0.020916 0.527906 -0.386136
v 0.027192 0.537227 -0.419809
v 0.020924 0.512415 -0.341740
v 0.020909 0.486976 -0.304624
v 0.027195 0.500463 -0.311289
v 0.027196 0.485084 -0.293700
v 0.020044 0.336506 -0.587679
v 0.027218 0.335292 -0.596876
v 0.020916 0.371883 -0.591776
v 0.027276 0.381922 -0.596918
v 0.020912 0.424760 -0.579520
v 0.020904 0.470835 -0.550764
v 0.027228 0.467429 -0.561462
v 0.020901 0.507075 -0.508739
v 0.027194 0.523598 -0.488205
v 0.020925 0.529824 -0.445198
v 0.027319 0.534031 -0.455439
v 0.027195 0.535650 -0.396236
v 0.027162 0.513198 -0.509246
v 0.027152 0.493110 -0.537762
v 0.027163 0.447768 -0.574561
v 0.027017 0.415750 -0.589302
v 0.027162 0.358447 -0.598408
v 0.027195 0.513413 -0.330732
v 0.027158 0.528011 -0.362301
v 0.109883 0.519275 -0.366122
v 0.109859 0.527698 -0.409536
v 0.109841 0.526174 -0.441853
v 0.109859 0.505033 -0.335268
v 0.109868 0.485435 -0.307506
v 0.110173 0.461605 -0.285569
v 0.110376 0.336506 -0.587679
v 0.109870 0.370492 -0.588794
v 0.109859 0.413831 -0.579960
v 0.109830 0.452699 -0.560621
v 0.109883 0.485433 -0.532111
v 0.109859 0.505033 -0.504349
v 0.109883 0.519275 -0.473495
v 0.020537 0.519274 -0.366122
v 0.020550 0.526275 -0.398296
v 0.020595 0.527600 -0.430892
v 0.020561 0.505033 -0.335269
v 0.020552 0.485436 -0.307507
v 0.020550 0.370492 -0.588794
v 0.020561 0.413831 -0.579959
v 0.020590 0.452699 -0.560621
v 0.020537 0.485433 -0.532111
v 0.020561 0.505033 -0.504349
v 0.020537 0.519274 -0.473496
v 0.103147 0.335288 -0.596914
v 0.103266 0.467322 -0.278126
v 0.027206 0.467347 -0.278095
v 0.020247 0.461605 -0.285569
vn 0.9929 0.0882 -0.0794
vn 0.8159 0.3792 -0.4365
vn 0.8144 0.4973 -0.2991
vn 0.0510 0.9919 -0.1167
vn 0.8245 0.5589 -0.0891
vn 0.0977 0.9364 -0.3371
vn 0.9924 0.1229 0.0080
vn 0.8225 0.5581 0.1096
vn 0.9937 0.1067 0.0344
vn -0.8265 -0.0413 -0.5614
vn -0.9912 0.0244 -0.1301
vn -0.8231 0.0545 -0.5652
vn -0.9918 0.1022 0.0770
vn -0.8295 0.3581 0.4285
vn -0.8207 0.4287 0.3777
vn -0.8139 0.5131 -0.2725
vn -0.9901 0.1333 -0.0435
vn -0.8215 0.5636 -0.0862
vn 0.9912 0.0244 -0.1301
vn 0.8088 -0.0375 -0.5869
vn 0.8269 0.0485 -0.5603
vn 0.9958 0.0789 -0.0455
vn 0.9863 0.1558 -0.0543
vn 0.0358 0.8661 -0.4985
vn 0.1226 0.6422 -0.7566
vn -0.1024 0.6050 -0.7896
vn -0.0825 0.7600 -0.6446
vn 0.9948 0.0556 -0.0858
vn 0.0926 0.9687 0.2303
vn -0.0623 0.9498 0.3067
vn 0.0950 0.9145 0.3934
vn 0.9938 0.0319 -0.1064
vn 0.8199 0.2181 -0.5293
vn -0.8277 0.5537 0.0911
vn -0.8301 0.4951 0.2564
vn -0.0876 0.9816 -0.1697
vn -0.1086 0.9820 0.1548
vn 0.0667 0.9957 0.0637
vn 0.0406 0.3973 -0.9168
vn 0.1027 0.2256 -0.9688
vn -0.8214 0.3678 -0.4360
vn -0.9933 0.0857 -0.0777
vn 0.1029 0.7862 -0.6094
vn -0.1238 0.9180 -0.3768
vn -0.0352 0.8651 -0.5004
vn -0.0946 -0.0193 -0.9953
vn -0.1032 0.1627 -0.9813
vn -0.9948 0.0555 -0.0858
vn -0.8300 0.2127 -0.5156
vn -0.9925 0.1159 0.0398
vn 0.8244 0.5065 0.2528
vn -0.0821 0.8696 0.4870
vn 0.9918 0.1022 0.0770
vn 0.8211 0.4283 0.3773
vn 0.8306 0.3571 0.4273
vn 0.9966 0.0816 -0.0104
vn 0.9930 0.1001 0.0620
vn 0.0817 0.5002 -0.8620
vn -0.0811 0.4986 -0.8631
vn -0.0821 0.7923 0.6046
vn 0.0716 0.8697 0.4883
vn -0.9931 0.1001 0.0619
vn -0.0787 0.7028 0.7070
vn 0.0821 0.7922 0.6047
vn 0.0784 0.7028 0.7070
vn 0.0977 0.0802 -0.9920
vn -0.1172 0.6556 0.7460
vn -0.0688 0.3036 -0.9503
vn -0.9938 0.0319 -0.1063
vn -0.9902 0.1395 0.0114
vn -0.9928 0.1199 -0.0041
vn -0.1069 0.9939 -0.0283
vn 0.1187 -0.0519 -0.9916
vn -0.1011 -0.0527 -0.9935
vn -0.9963 0.0740 -0.0427
vn 0.1169 0.6530 0.7483
vt 0.637477 0.913849
vt 0.636578 0.920517
vt 0.636578 0.905224
vt 0.634120 0.885835
vt 0.636578 0.886610
vt 0.634130 0.895180
vt 0.637477 0.876749
vt 0.636578 0.870318
vt 0.637477 0.864339
vt 0.610185 0.960320
vt 0.610126 0.950782
vt 0.611025 0.950457
vt 0.610126 0.845408
vt 0.610173 0.836178
vt 0.611025 0.844949
vt 0.611025 0.905213
vt 0.610126 0.894922
vt 0.611025 0.886603
vt 0.637477 0.950782
vt 0.637418 0.960320
vt 0.636578 0.950457
vt 0.637477 0.904456
vt 0.637477 0.894917
vt 0.634139 0.904456
vt 0.634136 0.919886
vt 0.613483 0.923078
vt 0.613473 0.913801
vt 0.637477 0.926252
vt 0.634107 0.867214
vt 0.613473 0.864074
vt 0.634130 0.861006
vt 0.637477 0.938522
vt 0.636578 0.935484
vt 0.611025 0.870318
vt 0.611025 0.857355
vt 0.613479 0.889117
vt 0.613472 0.873421
vt 0.634141 0.876517
vt 0.634130 0.935492
vt 0.634120 0.941699
vt 0.611025 0.920516
vt 0.610126 0.913849
vt 0.634107 0.910663
vt 0.613473 0.898249
vt 0.613463 0.904456
vt 0.613463 0.954113
vt 0.613496 0.947906
vt 0.610126 0.926252
vt 0.611025 0.935485
vt 0.610126 0.864339
vt 0.636578 0.857355
vt 0.613472 0.854799
vt 0.637477 0.845408
vt 0.636578 0.844948
vt 0.637430 0.836178
vt 0.637477 0.885835
vt 0.637477 0.854799
vt 0.634139 0.929285
vt 0.613464 0.929285
vt 0.613472 0.848592
vt 0.634131 0.854799
vt 0.610126 0.854799
vt 0.613473 0.842385
vt 0.634130 0.848592
vt 0.634130 0.842385
vt 0.634135 0.951127
vt 0.613477 0.836178
vt 0.613466 0.938645
vt 0.610126 0.938522
vt 0.610126 0.873421
vt 0.610126 0.882653
vt 0.613473 0.879628
vt 0.634108 0.960320
vt 0.613477 0.960320
vt 0.610126 0.904456
vt 0.634143 0.836178
s 1
usemtl mouse_tex
f 59/1/1 18/2/2 21/3/3
f 23/4/4 2/5/5 22/6/6
f 50/7/7 1/8/8 49/9/9
f 30/10/10 67/11/11 32/12/12
f 66/13/13 76/14/14 27/15/15
f 37/16/16 72/17/17 39/18/18
f 56/19/19 55/20/20 12/21/21
f 60/22/22 21/3/3 61/23/23
f 21/3/3 20/24/24 22/6/6
f 17/25/25 36/26/26 43/27/27
f 58/28/28 18/2/2 59/1/1
f 4/29/29 48/30/30 5/31/31
f 57/32/32 15/33/33 58/28/28
f 48/30/30 24/34/34 26/35/35
f 40/36/36 23/4/4 22/6/6
f 41/37/37 24/34/34 48/30/30
f 1/8/8 3/38/38 4/29/29
f 14/39/39 15/33/33 13/40/40
f 35/41/41 70/42/42 37/16/16
f 43/27/27 19/43/43 17/25/25
f 40/36/36 22/6/6 38/44/44
f 42/45/45 37/16/16 38/44/44
f 36/26/26 35/41/41 43/27/27
f 46/46/46 32/12/12 33/47/47
f 69/48/48 35/41/41 34/49/49
f 24/34/34 62/50/50 26/35/35
f 49/9/9 1/8/8 7/51/51
f 47/52/52 5/31/31 48/30/30
f 53/53/53 10/54/54 54/55/55
f 58/28/28 15/33/33 18/2/2
f 50/7/7 51/56/56 2/5/5
f 2/5/5 23/4/4 3/38/38
f 10/54/54 52/57/57 7/51/51
f 36/26/26 16/58/58 44/59/59
f 28/60/60 6/61/61 47/52/52
f 27/15/15 65/62/62 66/13/13
f 29/63/63 8/64/64 28/60/60
f 10/54/54 8/64/64 9/65/65
f 33/47/47 13/40/40 11/66/66
f 1/8/8 5/31/31 7/51/51
f 75/67/67 9/65/65 29/63/63
f 32/12/12 45/68/68 33/47/47
f 14/39/39 44/59/59 16/58/58
f 21/3/3 19/43/43 20/24/24
f 61/23/23 21/3/3 2/5/5
f 8/64/64 7/51/51 6/61/61
f 18/2/2 16/58/58 17/25/25
f 68/69/69 32/12/12 67/11/11
f 12/21/21 13/40/40 15/33/33
f 15/33/33 14/39/39 16/58/58
f 42/45/45 19/43/43 43/27/27
f 4/29/29 41/37/37 48/30/30
f 12/21/21 57/32/32 56/19/19
f 2/5/5 21/3/3 22/6/6
f 45/68/68 14/39/39 13/40/40
f 44/59/59 45/68/68 34/49/49
f 63/70/70 62/50/50 24/34/34
f 24/34/34 64/71/71 63/70/70
f 11/66/66 46/46/46 33/47/47
f 51/56/56 61/23/23 2/5/5
f 52/57/57 49/9/9 7/51/51
f 25/72/72 24/34/34 41/37/37
f 7/51/51 5/31/31 6/61/61
f 25/72/72 41/37/37 3/38/38
f 46/46/46 73/73/73 31/74/74
f 71/75/75 72/17/17 37/16/16
f 54/55/55 9/65/65 74/76/76
f 37/16/16 70/42/42 71/75/75
f 55/20/20 11/66/66 12/21/21
f 68/69/69 69/48/48 34/49/49
f 38/44/44 20/24/24 42/45/45
f 39/18/18 72/17/17 64/71/71
f 60/22/22 59/1/1 21/3/3
f 18/2/2 19/43/43 21/3/3
f 28/60/60 26/35/35 27/15/15
f 25/72/72 40/36/36 39/18/18
f 39/18/18 38/44/44 37/16/16
f 29/63/63 28/60/60 27/15/15
f 35/41/41 44/59/59 34/49/49
f 42/45/45 43/27/27 37/16/16
f 43/27/27 35/41/41 37/16/16
f 30/10/10 46/46/46 31/74/74
f 29/63/63 76/14/14 75/67/67
f 1/8/8 2/5/5 3/38/38
f 25/72/72 23/4/4 40/36/36
f 47/52/52 48/30/30 26/35/35
f 69/48/48 70/42/42 35/41/41
f 26/35/35 62/50/50 65/62/62
f 50/7/7 2/5/5 1/8/8
f 47/52/52 6/61/61 5/31/31
f 10/54/54 53/53/53 52/57/57
f 36/26/26 17/25/25 16/58/58
f 28/60/60 8/64/64 6/61/61
f 27/15/15 26/35/35 65/62/62
f 29/63/63 9/65/65 8/64/64
f 33/47/47 45/68/68 13/40/40
f 1/8/8 4/29/29 5/31/31
f 75/67/67 74/76/76 9/65/65
f 32/12/12 34/49/49 45/68/68
f 14/39/39 45/68/68 44/59/59
f 8/64/64 10/54/54 7/51/51
f 18/2/2 15/33/33 16/58/58
f 68/69/69 34/49/49 32/12/12
f 12/21/21 11/66/66 13/40/40
f 42/45/45 20/24/24 19/43/43
f 4/29/29 3/38/38 41/37/37
f 12/21/21 15/33/33 57/32/32
f 24/34/34 39/18/18 64/71/71
f 25/72/72 39/18/18 24/34/34
f 46/46/46 11/66/66 73/73/73
f 54/55/55 10/54/54 9/65/65
f 55/20/20 73/73/73 11/66/66
f 38/44/44 22/6/6 20/24/24
f 18/2/2 17/25/25 19/43/43
f 28/60/60 47/52/52 26/35/35
f 39/18/18 40/36/36 38/44/44
f 35/41/41 36/26/26 44/59/59
f 30/10/10 32/12/12 46/46/46
f 29/63/63 27/15/15 76/14/14
f 25/72/72 3/38/38 23/4/4
