v -0.669836 0.078404 -0.460444
v -0.720551 0.070363 -0.443985
v -0.7135 0.075977 -0.41786
v -0.669836 0.078404 -0.460444
v -0.7135 0.075977 -0.41786
v -0.663221 0.083319 -0.432898
v -0.7135 0.075977 -0.41786
v -0.720551 0.070363 -0.443985
v -0.767376 0.049037 -0.421605
v -0.7135 0.075977 -0.41786
v -0.767376 0.049037 -0.421605
v -0.76953 0.056619 -0.379681
v -0.717709 0.055629 -0.467042
v -0.752734 0.040884 -0.447137
v -0.767376 0.049037 -0.421605
v -0.717709 0.055629 -0.467042
v -0.767376 0.049037 -0.421605
v -0.720551 0.070363 -0.443985
v -0.673643 0.06348 -0.482816
v -0.717709 0.055629 -0.467042
v -0.720551 0.070363 -0.443985
v -0.673643 0.06348 -0.482816
v -0.720551 0.070363 -0.443985
v -0.669836 0.078404 -0.460444
v -0.627879 0.065269 -0.495452
v -0.673643 0.06348 -0.482816
v -0.669836 0.078404 -0.460444
v -0.627879 0.065269 -0.495452
v -0.669836 0.078404 -0.460444
v -0.632893 0.082981 -0.473257
v -0.622464 0.088009 -0.444828
v -0.632893 0.082981 -0.473257
v -0.669836 0.078404 -0.460444
v -0.622464 0.088009 -0.444828
v -0.669836 0.078404 -0.460444
v -0.663221 0.083319 -0.432898
v -0.577974 0.081634 -0.485867
v -0.632893 0.082981 -0.473257
v -0.622464 0.088009 -0.444828
v -0.577974 0.081634 -0.485867
v -0.622464 0.088009 -0.444828
v -0.569791 0.087113 -0.452272
v -0.524499 0.086878 -0.459895
v -0.525603 0.074232 -0.492542
v -0.577974 0.081634 -0.485867
v -0.524499 0.086878 -0.459895
v -0.577974 0.081634 -0.485867
v -0.569791 0.087113 -0.452272
v -0.478553 0.052583 -0.462662
v -0.485552 0.046586 -0.49217
v -0.525603 0.074232 -0.492542
v -0.478553 0.052583 -0.462662
v -0.525603 0.074232 -0.492542
v -0.524499 0.086878 -0.459895
v -0.485552 0.046586 -0.49217
v -0.511721 0.034296 -0.504722
v -0.539533 0.05343 -0.505988
v -0.485552 0.046586 -0.49217
v -0.539533 0.05343 -0.505988
v -0.525603 0.074232 -0.492542
v -0.525603 0.074232 -0.492542
v -0.539533 0.05343 -0.505988
v -0.581758 0.062166 -0.503818
v -0.525603 0.074232 -0.492542
v -0.581758 0.062166 -0.503818
v -0.577974 0.081634 -0.485867
v -0.554041 0.028123 -0.505678
v -0.539533 0.05343 -0.505988
v -0.511721 0.034296 -0.504722
v -0.554041 0.028123 -0.505678
v -0.511721 0.034296 -0.504722
v -0.529997 0.011468 -0.504334
v -0.581758 0.062166 -0.503818
v -0.539533 0.05343 -0.505988
v -0.554041 0.028123 -0.505678
v -0.581758 0.062166 -0.503818
v -0.554041 0.028123 -0.505678
v -0.593343 0.035095 -0.503809
v -0.581758 0.062166 -0.503818
v -0.627879 0.065269 -0.495452
v -0.632893 0.082981 -0.473257
v -0.581758 0.062166 -0.503818
v -0.632893 0.082981 -0.473257
v -0.577974 0.081634 -0.485867
v -0.593343 0.035095 -0.503809
v -0.633398 0.0358 -0.498254
v -0.627879 0.065269 -0.495452
v -0.593343 0.035095 -0.503809
v -0.627879 0.065269 -0.495452
v -0.581758 0.062166 -0.503818
v -0.593343 0.035095 -0.503809
v -0.554041 0.028123 -0.505678
v -0.56772 -0.000209 -0.502912
v -0.593343 0.035095 -0.503809
v -0.56772 -0.000209 -0.502912
v -0.599225 0.00342 -0.500992
v -0.599225 0.00342 -0.500992
v -0.638036 0.004249 -0.495278
v -0.633398 0.0358 -0.498254
v -0.599225 0.00342 -0.500992
v -0.633398 0.0358 -0.498254
v -0.593343 0.035095 -0.503809
v -0.676726 0.00498 -0.485497
v -0.674652 0.034244 -0.4881
v -0.633398 0.0358 -0.498254
v -0.676726 0.00498 -0.485497
v -0.633398 0.0358 -0.498254
v -0.638036 0.004249 -0.495278
v -0.633398 0.0358 -0.498254
v -0.674652 0.034244 -0.4881
v -0.673643 0.06348 -0.482816
v -0.633398 0.0358 -0.498254
v -0.673643 0.06348 -0.482816
v -0.627879 0.065269 -0.495452
v -0.713457 0.003697 -0.470173
v -0.714676 0.031059 -0.471903
v -0.674652 0.034244 -0.4881
v -0.713457 0.003697 -0.470173
v -0.674652 0.034244 -0.4881
v -0.676726 0.00498 -0.485497
v -0.674652 0.034244 -0.4881
v -0.714676 0.031059 -0.471903
v -0.717709 0.055629 -0.467042
v -0.674652 0.034244 -0.4881
v -0.717709 0.055629 -0.467042
v -0.673643 0.06348 -0.482816
v -0.714676 0.031059 -0.471903
v -0.713457 0.003697 -0.470173
v -0.734221 -0.002268 -0.457852
v -0.714676 0.031059 -0.471903
v -0.734221 -0.002268 -0.457852
v -0.74496 0.017274 -0.453546
v -0.714676 0.031059 -0.471903
v -0.74496 0.017274 -0.453546
v -0.752734 0.040884 -0.447137
v -0.714676 0.031059 -0.471903
v -0.752734 0.040884 -0.447137
v -0.717709 0.055629 -0.467042
v -0.74496 0.017274 -0.453546
v -0.734221 -0.002268 -0.457852
v -0.743882 -0.018477 -0.448618
v -0.74496 0.017274 -0.453546
v -0.743882 -0.018477 -0.448618
v -0.768455 -0.002536 -0.431631
v -0.770269 0.022689 -0.430526
v -0.752734 0.040884 -0.447137
v -0.74496 0.017274 -0.453546
v -0.770269 0.022689 -0.430526
v -0.74496 0.017274 -0.453546
v -0.768455 -0.002536 -0.431631
v -0.767376 0.049037 -0.421605
v -0.752734 0.040884 -0.447137
v -0.770269 0.022689 -0.430526
v -0.767376 0.049037 -0.421605
v -0.770269 0.022689 -0.430526
v -0.785664 0.014577 -0.400345
v -0.785664 0.014577 -0.400345
v -0.770269 0.022689 -0.430526
v -0.768455 -0.002536 -0.431631
v -0.785664 0.014577 -0.400345
v -0.768455 -0.002536 -0.431631
v -0.78921 -0.030631 -0.394912
v -0.76953 0.056619 -0.379681
v -0.767376 0.049037 -0.421605
v -0.785664 0.014577 -0.400345
v -0.76953 0.056619 -0.379681
v -0.785664 0.014577 -0.400345
v -0.793139 0.020298 -0.344817
v -0.785664 0.014577 -0.400345
v -0.78921 -0.030631 -0.394912
v -0.802552 -0.051193 -0.317772
v -0.785664 0.014577 -0.400345
v -0.802552 -0.051193 -0.317772
v -0.793139 0.020298 -0.344817
v -0.759714 -0.041918 -0.431141
v -0.769745 -0.067825 -0.409512
v -0.790283 -0.064916 -0.366923
v -0.759714 -0.041918 -0.431141
v -0.790283 -0.064916 -0.366923
v -0.78921 -0.030631 -0.394912
v -0.790283 -0.064916 -0.366923
v -0.795306 -0.066308 -0.317235
v -0.802552 -0.051193 -0.317772
v -0.790283 -0.064916 -0.366923
v -0.802552 -0.051193 -0.317772
v -0.78921 -0.030631 -0.394912
v -0.743882 -0.018477 -0.448618
v -0.759714 -0.041918 -0.431141
v -0.78921 -0.030631 -0.394912
v -0.743882 -0.018477 -0.448618
v -0.78921 -0.030631 -0.394912
v -0.768455 -0.002536 -0.431631
v -0.743882 -0.018477 -0.448618
v -0.716145 -0.021743 -0.464641
v -0.72574 -0.045435 -0.453483
v -0.743882 -0.018477 -0.448618
v -0.72574 -0.045435 -0.453483
v -0.759714 -0.041918 -0.431141
v -0.72574 -0.045435 -0.453483
v -0.73522 -0.069933 -0.436312
v -0.769745 -0.067825 -0.409512
v -0.72574 -0.045435 -0.453483
v -0.769745 -0.067825 -0.409512
v -0.759714 -0.041918 -0.431141
v -0.734221 -0.002268 -0.457852
v -0.713457 0.003697 -0.470173
v -0.716145 -0.021743 -0.464641
v -0.734221 -0.002268 -0.457852
v -0.716145 -0.021743 -0.464641
v -0.743882 -0.018477 -0.448618
v -0.685271 -0.050792 -0.471533
v -0.72574 -0.045435 -0.453483
v -0.716145 -0.021743 -0.464641
v -0.685271 -0.050792 -0.471533
v -0.716145 -0.021743 -0.464641
v -0.680493 -0.023872 -0.479832
v -0.680493 -0.023872 -0.479832
v -0.716145 -0.021743 -0.464641
v -0.713457 0.003697 -0.470173
v -0.680493 -0.023872 -0.479832
v -0.713457 0.003697 -0.470173
v -0.676726 0.00498 -0.485497
v -0.642277 -0.053795 -0.48282
v -0.685271 -0.050792 -0.471533
v -0.680493 -0.023872 -0.479832
v -0.642277 -0.053795 -0.48282
v -0.680493 -0.023872 -0.479832
v -0.641354 -0.025781 -0.489901
v -0.641354 -0.025781 -0.489901
v -0.680493 -0.023872 -0.479832
v -0.676726 0.00498 -0.485497
v -0.641354 -0.025781 -0.489901
v -0.676726 0.00498 -0.485497
v -0.638036 0.004249 -0.495278
v -0.642277 -0.053795 -0.48282
v -0.638791 -0.078849 -0.472277
v -0.688986 -0.074966 -0.458415
v -0.642277 -0.053795 -0.48282
v -0.688986 -0.074966 -0.458415
v -0.685271 -0.050792 -0.471533
v -0.688986 -0.074966 -0.458415
v -0.73522 -0.069933 -0.436312
v -0.72574 -0.045435 -0.453483
v -0.688986 -0.074966 -0.458415
v -0.72574 -0.045435 -0.453483
v -0.685271 -0.050792 -0.471533
v -0.688986 -0.074966 -0.458415
v -0.638791 -0.078849 -0.472277
v -0.637465 -0.089201 -0.459057
v -0.688986 -0.074966 -0.458415
v -0.637465 -0.089201 -0.459057
v -0.687107 -0.084828 -0.444184
v -0.732177 -0.080836 -0.420148
v -0.73522 -0.069933 -0.436312
v -0.688986 -0.074966 -0.458415
v -0.732177 -0.080836 -0.420148
v -0.688986 -0.074966 -0.458415
v -0.687107 -0.084828 -0.444184
v -0.637465 -0.089201 -0.459057
v -0.602817 -0.096581 -0.371796
v -0.661338 -0.090022 -0.357338
v -0.637465 -0.089201 -0.459057
v -0.661338 -0.090022 -0.357338
v -0.687107 -0.084828 -0.444184
v -0.661338 -0.090022 -0.357338
v -0.70377 -0.085265 -0.346976
v -0.732177 -0.080836 -0.420148
v -0.661338 -0.090022 -0.357338
v -0.732177 -0.080836 -0.420148
v -0.687107 -0.084828 -0.444184
v -0.769745 -0.067825 -0.409512
v -0.73522 -0.069933 -0.436312
v -0.732177 -0.080836 -0.420148
v -0.769745 -0.067825 -0.409512
v -0.732177 -0.080836 -0.420148
v -0.761949 -0.078711 -0.389564
v -0.743156 -0.080847 -0.335561
v -0.761949 -0.078711 -0.389564
v -0.732177 -0.080836 -0.420148
v -0.743156 -0.080847 -0.335561
v -0.732177 -0.080836 -0.420148
v -0.70377 -0.085265 -0.346976
v -0.776586 -0.076467 -0.352958
v -0.761949 -0.078711 -0.389564
v -0.743156 -0.080847 -0.335561
v -0.776586 -0.076467 -0.352958
v -0.743156 -0.080847 -0.335561
v -0.776796 -0.076998 -0.3222
v -0.776586 -0.076467 -0.352958
v -0.776796 -0.076998 -0.3222
v -0.795306 -0.066308 -0.317235
v -0.776586 -0.076467 -0.352958
v -0.795306 -0.066308 -0.317235
v -0.790283 -0.064916 -0.366923
v -0.790283 -0.064916 -0.366923
v -0.769745 -0.067825 -0.409512
v -0.761949 -0.078711 -0.389564
v -0.790283 -0.064916 -0.366923
v -0.761949 -0.078711 -0.389564
v -0.776586 -0.076467 -0.352958
v -0.559379 -0.101448 -0.380601
v -0.602817 -0.096581 -0.371796
v -0.637465 -0.089201 -0.459057
v -0.559379 -0.101448 -0.380601
v -0.637465 -0.089201 -0.459057
v -0.581144 -0.095102 -0.465107
v -0.551379 -0.098353 -0.465576
v -0.523216 -0.105507 -0.393336
v -0.559379 -0.101448 -0.380601
v -0.551379 -0.098353 -0.465576
v -0.559379 -0.101448 -0.380601
v -0.581144 -0.095102 -0.465107
v -0.525163 -0.100698 -0.465751
v -0.480851 -0.109952 -0.411755
v -0.523216 -0.105507 -0.393336
v -0.525163 -0.100698 -0.465751
v -0.523216 -0.105507 -0.393336
v -0.551379 -0.098353 -0.465576
v -0.560803 -0.082956 -0.480949
v -0.5297 -0.083985 -0.481215
v -0.525163 -0.100698 -0.465751
v -0.560803 -0.082956 -0.480949
v -0.525163 -0.100698 -0.465751
v -0.551379 -0.098353 -0.465576
v -0.594619 -0.081479 -0.478569
v -0.560803 -0.082956 -0.480949
v -0.551379 -0.098353 -0.465576
v -0.594619 -0.081479 -0.478569
v -0.551379 -0.098353 -0.465576
v -0.581144 -0.095102 -0.465107
v -0.538623 -0.055568 -0.491753
v -0.5297 -0.083985 -0.481215
v -0.560803 -0.082956 -0.480949
v -0.538623 -0.055568 -0.491753
v -0.560803 -0.082956 -0.480949
v -0.568192 -0.05677 -0.490896
v -0.568192 -0.05677 -0.490896
v -0.560803 -0.082956 -0.480949
v -0.594619 -0.081479 -0.478569
v -0.568192 -0.05677 -0.490896
v -0.594619 -0.081479 -0.478569
v -0.602371 -0.05582 -0.488434
v -0.594619 -0.081479 -0.478569
v -0.638791 -0.078849 -0.472277
v -0.642277 -0.053795 -0.48282
v -0.594619 -0.081479 -0.478569
v -0.642277 -0.053795 -0.48282
v -0.602371 -0.05582 -0.488434
v -0.581144 -0.095102 -0.465107
v -0.637465 -0.089201 -0.459057
v -0.638791 -0.078849 -0.472277
v -0.581144 -0.095102 -0.465107
v -0.638791 -0.078849 -0.472277
v -0.594619 -0.081479 -0.478569
v -0.602371 -0.05582 -0.488434
v -0.642277 -0.053795 -0.48282
v -0.641354 -0.025781 -0.489901
v -0.602371 -0.05582 -0.488434
v -0.641354 -0.025781 -0.489901
v -0.603765 -0.027306 -0.495496
v -0.568192 -0.05677 -0.490896
v -0.602371 -0.05582 -0.488434
v -0.603765 -0.027306 -0.495496
v -0.568192 -0.05677 -0.490896
v -0.603765 -0.027306 -0.495496
v -0.571347 -0.029086 -0.497847
v -0.603765 -0.027306 -0.495496
v -0.641354 -0.025781 -0.489901
v -0.638036 0.004249 -0.495278
v -0.603765 -0.027306 -0.495496
v -0.638036 0.004249 -0.495278
v -0.599225 0.00342 -0.500992
v -0.571347 -0.029086 -0.497847
v -0.603765 -0.027306 -0.495496
v -0.599225 0.00342 -0.500992
v -0.571347 -0.029086 -0.497847
v -0.599225 0.00342 -0.500992
v -0.56772 -0.000209 -0.502912
v -0.538623 -0.055568 -0.491753
v -0.568192 -0.05677 -0.490896
v -0.571347 -0.029086 -0.497847
v -0.538623 -0.055568 -0.491753
v -0.571347 -0.029086 -0.497847
v -0.544801 -0.028794 -0.498558
v -0.544801 -0.028794 -0.498558
v -0.571347 -0.029086 -0.497847
v -0.56772 -0.000209 -0.502912
v -0.544801 -0.028794 -0.498558
v -0.56772 -0.000209 -0.502912
v -0.549548 -0.009072 -0.502123
v -0.56772 -0.000209 -0.502912
v -0.554041 0.028123 -0.505678
v -0.529997 0.011468 -0.504334
v -0.56772 -0.000209 -0.502912
v -0.529997 0.011468 -0.504334
v -0.549548 -0.009072 -0.502123
v -0.518053 -0.019615 -0.499603
v -0.544801 -0.028794 -0.498558
v -0.549548 -0.009072 -0.502123
v -0.518053 -0.019615 -0.499603
v -0.549548 -0.009072 -0.502123
v -0.529997 0.011468 -0.504334
v -0.495873 -0.010076 -0.499505
v -0.518053 -0.019615 -0.499603
v -0.529997 0.011468 -0.504334
v -0.495873 -0.010076 -0.499505
v -0.529997 0.011468 -0.504334
v -0.511721 0.034296 -0.504722
v -0.482764 -0.049223 -0.488092
v -0.509182 -0.052525 -0.491409
v -0.518053 -0.019615 -0.499603
v -0.482764 -0.049223 -0.488092
v -0.518053 -0.019615 -0.499603
v -0.495873 -0.010076 -0.499505
v -0.509182 -0.052525 -0.491409
v -0.538623 -0.055568 -0.491753
v -0.544801 -0.028794 -0.498558
v -0.509182 -0.052525 -0.491409
v -0.544801 -0.028794 -0.498558
v -0.518053 -0.019615 -0.499603
v -0.470502 0.003103 -0.487778
v -0.495873 -0.010076 -0.499505
v -0.511721 0.034296 -0.504722
v -0.470502 0.003103 -0.487778
v -0.511721 0.034296 -0.504722
v -0.485552 0.046586 -0.49217
v -0.470502 0.003103 -0.487778
v -0.46504 -0.043346 -0.470907
v -0.482764 -0.049223 -0.488092
v -0.470502 0.003103 -0.487778
v -0.482764 -0.049223 -0.488092
v -0.495873 -0.010076 -0.499505
v -0.464869 -0.082233 -0.45739
v -0.474194 -0.083821 -0.470644
v -0.482764 -0.049223 -0.488092
v -0.464869 -0.082233 -0.45739
v -0.482764 -0.049223 -0.488092
v -0.46504 -0.043346 -0.470907
v -0.474194 -0.083821 -0.470644
v -0.500631 -0.084571 -0.479782
v -0.509182 -0.052525 -0.491409
v -0.474194 -0.083821 -0.470644
v -0.509182 -0.052525 -0.491409
v -0.482764 -0.049223 -0.488092
v -0.470822 -0.095535 -0.458548
v -0.474194 -0.083821 -0.470644
v -0.464869 -0.082233 -0.45739
v -0.49217 -0.103962 -0.46345
v -0.500631 -0.084571 -0.479782
v -0.474194 -0.083821 -0.470644
v -0.49217 -0.103962 -0.46345
v -0.474194 -0.083821 -0.470644
v -0.470822 -0.095535 -0.458548
v -0.470822 -0.095535 -0.458548
v -0.461167 -0.093516 -0.427011
v -0.469475 -0.105624 -0.419995
v -0.470822 -0.095535 -0.458548
v -0.469475 -0.105624 -0.419995
v -0.49217 -0.103962 -0.46345
v -0.460437 -0.081277 -0.434092
v -0.461167 -0.093516 -0.427011
v -0.470822 -0.095535 -0.458548
v -0.460437 -0.081277 -0.434092
v -0.470822 -0.095535 -0.458548
v -0.464869 -0.082233 -0.45739
v -0.5297 -0.083985 -0.481215
v -0.500631 -0.084571 -0.479782
v -0.49217 -0.103962 -0.46345
v -0.5297 -0.083985 -0.481215
v -0.49217 -0.103962 -0.46345
v -0.525163 -0.100698 -0.465751
v -0.480851 -0.109952 -0.411755
v -0.525163 -0.100698 -0.465751
v -0.49217 -0.103962 -0.46345
v -0.480851 -0.109952 -0.411755
v -0.49217 -0.103962 -0.46345
v -0.469475 -0.105624 -0.419995
v -0.461084 -0.040077 -0.45018
v -0.460437 -0.081277 -0.434092
v -0.464869 -0.082233 -0.45739
v -0.461084 -0.040077 -0.45018
v -0.464869 -0.082233 -0.45739
v -0.46504 -0.043346 -0.470907
v -0.462223 0.004031 -0.460262
v -0.461084 -0.040077 -0.45018
v -0.46504 -0.043346 -0.470907
v -0.462223 0.004031 -0.460262
v -0.46504 -0.043346 -0.470907
v -0.470502 0.003103 -0.487778
v -0.478553 0.052583 -0.462662
v -0.462223 0.004031 -0.460262
v -0.470502 0.003103 -0.487778
v -0.478553 0.052583 -0.462662
v -0.470502 0.003103 -0.487778
v -0.485552 0.046586 -0.49217
v -0.538623 -0.055568 -0.491753
v -0.509182 -0.052525 -0.491409
v -0.500631 -0.084571 -0.479782
v -0.538623 -0.055568 -0.491753
v -0.500631 -0.084571 -0.479782
v -0.5297 -0.083985 -0.481215
vn -0.2307 0.912 -0.3392
vn -0.3901 0.8679 -0.3076
vn -0.3435 0.9283 -0.1425
vn -0.2307 0.912 -0.3392
vn -0.3435 0.9283 -0.1425
vn -0.1768 0.975 -0.1349
vn -0.3435 0.9283 -0.1425
vn -0.3901 0.8679 -0.3076
vn -0.7015 0.6629 -0.2616
vn -0.3435 0.9283 -0.1425
vn -0.7015 0.6629 -0.2616
vn -0.7894 0.5948 -0.1515
vn -0.4527 0.502 -0.7369
vn -0.6475 0.3707 -0.6659
vn -0.7015 0.6629 -0.2616
vn -0.4527 0.502 -0.7369
vn -0.7015 0.6629 -0.2616
vn -0.3901 0.8679 -0.3076
vn -0.314 0.5152 -0.7975
vn -0.4527 0.5021 -0.7369
vn -0.3901 0.8679 -0.3076
vn -0.314 0.5152 -0.7975
vn -0.3901 0.8679 -0.3076
vn -0.2307 0.912 -0.3392
vn -0.1899 0.4731 -0.8603
vn -0.314 0.5152 -0.7975
vn -0.2307 0.912 -0.3393
vn -0.1899 0.4731 -0.8603
vn -0.2307 0.912 -0.3393
vn -0.1291 0.9153 -0.3816
vn -0.0636 0.9865 -0.1507
vn -0.1291 0.9153 -0.3815
vn -0.2307 0.912 -0.3391
vn -0.0636 0.9865 -0.1507
vn -0.2307 0.912 -0.3391
vn -0.1768 0.975 -0.1349
vn -0.0132 0.8858 -0.4638
vn -0.1291 0.9153 -0.3816
vn -0.0636 0.9865 -0.1507
vn -0.0132 0.8858 -0.4638
vn -0.0636 0.9865 -0.1507
vn 0.0138 0.9758 -0.2184
vn 0.2737 0.9153 -0.2957
vn 0.2832 0.7844 -0.5518
vn -0.0132 0.8858 -0.4638
vn 0.2737 0.9153 -0.2957
vn -0.0132 0.8858 -0.4638
vn 0.0138 0.9758 -0.2184
vn 0.749 0.5865 -0.3083
vn 0.648 0.4538 -0.6117
vn 0.2832 0.7844 -0.5518
vn 0.749 0.5865 -0.3083
vn 0.2832 0.7844 -0.5518
vn 0.2738 0.9152 -0.2957
vn 0.648 0.4538 -0.6117
vn 0.2497 0.12 -0.9609
vn 0.0797 0.3141 -0.946
vn 0.648 0.4538 -0.6117
vn 0.0797 0.3141 -0.946
vn 0.2832 0.7844 -0.5518
vn 0.2832 0.7844 -0.5518
vn 0.0797 0.3142 -0.946
vn -0.069 0.4075 -0.9106
vn 0.2832 0.7844 -0.5518
vn -0.069 0.4075 -0.9106
vn -0.0132 0.8858 -0.4639
vn -0.0261 -0.0346 -0.9991
vn 0.0797 0.3141 -0.946
vn 0.2497 0.1199 -0.9609
vn -0.0261 -0.0346 -0.9991
vn 0.2497 0.1199 -0.9609
vn 0.0392 -0.0898 -0.9952
vn -0.069 0.4075 -0.9106
vn 0.0797 0.3141 -0.946
vn -0.0261 -0.0346 -0.9991
vn -0.069 0.4075 -0.9106
vn -0.0261 -0.0346 -0.9991
vn -0.1084 0.002 -0.9941
vn -0.069 0.4075 -0.9106
vn -0.1899 0.4731 -0.8603
vn -0.1291 0.9153 -0.3816
vn -0.069 0.4075 -0.9106
vn -0.1291 0.9153 -0.3816
vn -0.0132 0.8858 -0.4638
vn -0.1084 0.002 -0.9941
vn -0.2008 0.0368 -0.9789
vn -0.1899 0.4731 -0.8603
vn -0.1084 0.002 -0.9941
vn -0.1899 0.4731 -0.8603
vn -0.069 0.4075 -0.9106
vn -0.1084 0.002 -0.9941
vn -0.0261 -0.0346 -0.9991
vn -0.0526 -0.1152 -0.9919
vn -0.1084 0.002 -0.9941
vn -0.0526 -0.1152 -0.9919
vn -0.112 -0.1104 -0.9876
vn -0.112 -0.1104 -0.9876
vn -0.1961 -0.1075 -0.9747
vn -0.2008 0.0368 -0.9789
vn -0.112 -0.1104 -0.9876
vn -0.2008 0.0368 -0.9789
vn -0.1084 0.002 -0.9941
vn -0.3092 -0.1035 -0.9454
vn -0.3084 0.0524 -0.9498
vn -0.2008 0.0368 -0.9789
vn -0.3092 -0.1035 -0.9454
vn -0.2008 0.0368 -0.9789
vn -0.1961 -0.1075 -0.9747
vn -0.2008 0.0368 -0.9789
vn -0.3084 0.0524 -0.9498
vn -0.314 0.5152 -0.7975
vn -0.2008 0.0368 -0.9789
vn -0.314 0.5152 -0.7975
vn -0.1899 0.4731 -0.8603
vn -0.4208 -0.1045 -0.9011
vn -0.4338 0.0417 -0.9001
vn -0.3084 0.0524 -0.9498
vn -0.4208 -0.1045 -0.9011
vn -0.3084 0.0524 -0.9498
vn -0.3093 -0.1035 -0.9453
vn -0.3084 0.0525 -0.9498
vn -0.4338 0.0417 -0.9001
vn -0.4527 0.502 -0.7369
vn -0.3084 0.0525 -0.9498
vn -0.4527 0.502 -0.7369
vn -0.314 0.5152 -0.7975
vn -0.4338 0.0417 -0.9
vn -0.4208 -0.1045 -0.9011
vn -0.5314 -0.1214 -0.8384
vn -0.4338 0.0417 -0.9
vn -0.5314 -0.1214 -0.8384
vn -0.5802 -0.0249 -0.8141
vn -0.4338 0.0417 -0.9
vn -0.5802 -0.0249 -0.8141
vn -0.6474 0.3707 -0.6659
vn -0.4338 0.0417 -0.9
vn -0.6474 0.3707 -0.6659
vn -0.4527 0.502 -0.7369
vn -0.5802 -0.0249 -0.8141
vn -0.5314 -0.1214 -0.8384
vn -0.6127 -0.1747 -0.7707
vn -0.5802 -0.0249 -0.8141
vn -0.6127 -0.1747 -0.7707
vn -0.7763 -0.0879 -0.6243
vn -0.8243 0.091 -0.5588
vn -0.6475 0.3707 -0.6659
vn -0.5802 -0.0249 -0.8141
vn -0.8243 0.091 -0.5588
vn -0.5802 -0.0249 -0.8141
vn -0.7763 -0.0879 -0.6242
vn -0.7016 0.6628 -0.2616
vn -0.6475 0.3707 -0.6658
vn -0.8243 0.091 -0.5588
vn -0.7016 0.6628 -0.2616
vn -0.8243 0.091 -0.5588
vn -0.9566 0.1799 -0.2294
vn -0.9566 0.1799 -0.2294
vn -0.8243 0.091 -0.5588
vn -0.7763 -0.0879 -0.6242
vn -0.9566 0.1799 -0.2294
vn -0.7763 -0.0879 -0.6242
vn -0.9507 -0.0504 -0.306
vn -0.7895 0.5948 -0.1515
vn -0.7016 0.6628 -0.2616
vn -0.9566 0.18 -0.2294
vn -0.7895 0.5948 -0.1515
vn -0.9566 0.18 -0.2294
vn -0.9781 0.146 -0.1484
vn -0.9566 0.1799 -0.2294
vn -0.9507 -0.0504 -0.3059
vn -0.9854 -0.0542 -0.1615
vn -0.9566 0.1799 -0.2294
vn -0.9854 -0.0542 -0.1615
vn -0.9781 0.146 -0.1484
vn -0.6936 -0.2521 -0.6748
vn -0.7102 -0.4914 -0.5041
vn -0.8558 -0.4511 -0.2531
vn -0.6936 -0.2521 -0.6748
vn -0.8558 -0.4511 -0.2531
vn -0.9507 -0.0504 -0.3059
vn -0.8559 -0.451 -0.2531
vn -0.8886 -0.4339 -0.149
vn -0.9854 -0.0543 -0.1615
vn -0.8559 -0.451 -0.2531
vn -0.9854 -0.0543 -0.1615
vn -0.9507 -0.0504 -0.3059
vn -0.6128 -0.1747 -0.7707
vn -0.6936 -0.2521 -0.6748
vn -0.9507 -0.0504 -0.3059
vn -0.6128 -0.1747 -0.7707
vn -0.9507 -0.0504 -0.3059
vn -0.7763 -0.0879 -0.6242
vn -0.6127 -0.1747 -0.7708
vn -0.4403 -0.1894 -0.8777
vn -0.4782 -0.3083 -0.8224
vn -0.6127 -0.1747 -0.7708
vn -0.4782 -0.3083 -0.8224
vn -0.6936 -0.2521 -0.6748
vn -0.4782 -0.3083 -0.8223
vn -0.4704 -0.5712 -0.6726
vn -0.7102 -0.4914 -0.5041
vn -0.4782 -0.3083 -0.8223
vn -0.7102 -0.4914 -0.5041
vn -0.6936 -0.2521 -0.6748
vn -0.5314 -0.1214 -0.8384
vn -0.4208 -0.1045 -0.9011
vn -0.4403 -0.1894 -0.8777
vn -0.5314 -0.1214 -0.8384
vn -0.4403 -0.1894 -0.8777
vn -0.6127 -0.1747 -0.7708
vn -0.3393 -0.3262 -0.8823
vn -0.4782 -0.3083 -0.8224
vn -0.4403 -0.1894 -0.8777
vn -0.3393 -0.3262 -0.8823
vn -0.4403 -0.1894 -0.8777
vn -0.3212 -0.1894 -0.9279
vn -0.3212 -0.1894 -0.9279
vn -0.4403 -0.1894 -0.8777
vn -0.4208 -0.1045 -0.9011
vn -0.3212 -0.1894 -0.9279
vn -0.4208 -0.1045 -0.9011
vn -0.3092 -0.1035 -0.9453
vn -0.212 -0.3271 -0.9209
vn -0.3393 -0.3262 -0.8823
vn -0.3212 -0.1894 -0.9279
vn -0.212 -0.3271 -0.9209
vn -0.3212 -0.1894 -0.9279
vn -0.2037 -0.1952 -0.9594
vn -0.2037 -0.1952 -0.9594
vn -0.3212 -0.1894 -0.9279
vn -0.3092 -0.1035 -0.9454
vn -0.2037 -0.1952 -0.9594
vn -0.3092 -0.1035 -0.9454
vn -0.1961 -0.1075 -0.9747
vn -0.212 -0.3271 -0.9209
vn -0.2033 -0.5807 -0.7883
vn -0.336 -0.5787 -0.7431
vn -0.212 -0.3271 -0.9209
vn -0.336 -0.5787 -0.7431
vn -0.3393 -0.3262 -0.8823
vn -0.336 -0.5786 -0.7431
vn -0.4704 -0.5712 -0.6726
vn -0.4782 -0.3083 -0.8224
vn -0.336 -0.5786 -0.7431
vn -0.4782 -0.3083 -0.8224
vn -0.3393 -0.3262 -0.8823
vn -0.336 -0.5788 -0.7431
vn -0.2033 -0.5808 -0.7883
vn -0.1269 -0.9827 -0.1351
vn -0.336 -0.5788 -0.7431
vn -0.1269 -0.9827 -0.1351
vn -0.1445 -0.9819 -0.1222
vn -0.1735 -0.9774 -0.1208
vn -0.4704 -0.5713 -0.6726
vn -0.336 -0.5787 -0.7431
vn -0.1735 -0.9774 -0.1208
vn -0.336 -0.5787 -0.7431
vn -0.1445 -0.9819 -0.1222
vn -0.1269 -0.9827 -0.1351
vn -0.1117 -0.993 -0.0383
vn -0.109 -0.9936 -0.0289
vn -0.1269 -0.9827 -0.1351
vn -0.109 -0.9936 -0.0289
vn -0.1445 -0.9819 -0.1222
vn -0.109 -0.9936 -0.0289
vn -0.1061 -0.9942 -0.0195
vn -0.1735 -0.9774 -0.1208
vn -0.109 -0.9936 -0.0289
vn -0.1735 -0.9774 -0.1208
vn -0.1445 -0.9819 -0.1222
vn -0.7102 -0.4914 -0.5041
vn -0.4704 -0.5713 -0.6726
vn -0.1735 -0.9774 -0.1208
vn -0.7102 -0.4914 -0.5041
vn -0.1735 -0.9774 -0.1208
vn -0.2392 -0.9664 -0.0945
vn -0.1105 -0.9938 -0.0101
vn -0.2392 -0.9664 -0.0945
vn -0.1735 -0.9774 -0.1208
vn -0.1105 -0.9938 -0.0101
vn -0.1735 -0.9774 -0.1208
vn -0.1061 -0.9942 -0.0195
vn -0.3304 -0.9424 -0.052
vn -0.2392 -0.9664 -0.0945
vn -0.1105 -0.9938 -0.0101
vn -0.3304 -0.9424 -0.052
vn -0.1105 -0.9938 -0.0101
vn -0.3461 -0.9377 -0.0297
vn -0.3305 -0.9424 -0.052
vn -0.3462 -0.9377 -0.0297
vn -0.8886 -0.4339 -0.149
vn -0.3305 -0.9424 -0.052
vn -0.8886 -0.4339 -0.149
vn -0.8558 -0.4511 -0.2531
vn -0.8559 -0.4511 -0.2531
vn -0.7102 -0.4914 -0.5041
vn -0.2392 -0.9664 -0.0945
vn -0.8559 -0.4511 -0.2531
vn -0.2392 -0.9664 -0.0945
vn -0.3305 -0.9424 -0.052
vn -0.1157 -0.9923 -0.0441
vn -0.1117 -0.993 -0.0383
vn -0.1269 -0.9827 -0.1351
vn -0.1157 -0.9923 -0.0441
vn -0.1269 -0.9827 -0.1351
vn -0.1174 -0.9815 -0.1516
vn -0.1112 -0.9766 -0.184
vn -0.1174 -0.9916 -0.0548
vn -0.1157 -0.9923 -0.0441
vn -0.1112 -0.9766 -0.184
vn -0.1157 -0.9923 -0.0441
vn -0.1174 -0.9814 -0.1516
vn -0.0812 -0.9649 -0.2497
vn -0.07 -0.9941 -0.0831
vn -0.1174 -0.9916 -0.0548
vn -0.0812 -0.9649 -0.2497
vn -0.1174 -0.9916 -0.0548
vn -0.1112 -0.9766 -0.184
vn -0.0558 -0.5235 -0.8502
vn 0.002 -0.4945 -0.8692
vn -0.0812 -0.9649 -0.2497
vn -0.0558 -0.5235 -0.8502
vn -0.0812 -0.9649 -0.2497
vn -0.1112 -0.9766 -0.184
vn -0.1224 -0.57 -0.8125
vn -0.0558 -0.5235 -0.8502
vn -0.1112 -0.9766 -0.184
vn -0.1224 -0.57 -0.8125
vn -0.1112 -0.9766 -0.184
vn -0.1175 -0.9814 -0.1516
vn 0.012 -0.2958 -0.9552
vn 0.002 -0.4944 -0.8692
vn -0.0558 -0.5234 -0.8503
vn 0.012 -0.2958 -0.9552
vn -0.0558 -0.5234 -0.8503
vn -0.0525 -0.3109 -0.949
vn -0.0525 -0.3109 -0.949
vn -0.0558 -0.5234 -0.8503
vn -0.1224 -0.57 -0.8125
vn -0.0525 -0.3109 -0.949
vn -0.1224 -0.57 -0.8125
vn -0.1208 -0.3188 -0.9401
vn -0.1224 -0.57 -0.8125
vn -0.2033 -0.5807 -0.7883
vn -0.212 -0.3271 -0.9209
vn -0.1224 -0.57 -0.8125
vn -0.212 -0.3271 -0.9209
vn -0.1208 -0.3188 -0.9401
vn -0.1174 -0.9814 -0.1516
vn -0.1269 -0.9827 -0.1351
vn -0.2033 -0.5808 -0.7882
vn -0.1174 -0.9814 -0.1516
vn -0.2033 -0.5808 -0.7882
vn -0.1224 -0.57 -0.8125
vn -0.1208 -0.3188 -0.9401
vn -0.212 -0.3271 -0.9209
vn -0.2037 -0.1952 -0.9594
vn -0.1208 -0.3188 -0.9401
vn -0.2037 -0.1952 -0.9594
vn -0.12 -0.2005 -0.9723
vn -0.0525 -0.3109 -0.949
vn -0.1208 -0.3188 -0.9401
vn -0.12 -0.2005 -0.9723
vn -0.0525 -0.3109 -0.949
vn -0.12 -0.2005 -0.9723
vn -0.0593 -0.211 -0.9757
vn -0.12 -0.2005 -0.9723
vn -0.2037 -0.1952 -0.9594
vn -0.1961 -0.1075 -0.9747
vn -0.12 -0.2005 -0.9723
vn -0.1961 -0.1075 -0.9747
vn -0.112 -0.1104 -0.9875
vn -0.0593 -0.211 -0.9757
vn -0.12 -0.2005 -0.9723
vn -0.112 -0.1104 -0.9876
vn -0.0593 -0.211 -0.9757
vn -0.112 -0.1104 -0.9876
vn -0.0526 -0.1152 -0.9919
vn 0.012 -0.2958 -0.9552
vn -0.0525 -0.3109 -0.949
vn -0.0593 -0.211 -0.9757
vn 0.012 -0.2958 -0.9552
vn -0.0593 -0.211 -0.9757
vn 0.0078 -0.2111 -0.9774
vn 0.0078 -0.2111 -0.9774
vn -0.0593 -0.211 -0.9757
vn -0.0526 -0.1152 -0.9919
vn 0.0078 -0.2111 -0.9774
vn -0.0526 -0.1152 -0.9919
vn -0.0016 -0.1407 -0.99
vn -0.0526 -0.1152 -0.9919
vn -0.0261 -0.0346 -0.9991
vn 0.0392 -0.0898 -0.9952
vn -0.0526 -0.1152 -0.9919
vn 0.0392 -0.0898 -0.9952
vn -0.0016 -0.1407 -0.9901
vn 0.0728 -0.1803 -0.9809
vn 0.0078 -0.2111 -0.9774
vn -0.0016 -0.1407 -0.9901
vn 0.0728 -0.1803 -0.9809
vn -0.0016 -0.1407 -0.9901
vn 0.0392 -0.0898 -0.9952
vn 0.3394 -0.0952 -0.9358
vn 0.0728 -0.1803 -0.9809
vn 0.0392 -0.0898 -0.9952
vn 0.3394 -0.0952 -0.9358
vn 0.0392 -0.0898 -0.9952
vn 0.2497 0.1199 -0.9609
vn 0.4458 -0.2227 -0.867
vn 0.1117 -0.283 -0.9526
vn 0.0728 -0.1803 -0.9809
vn 0.4458 -0.2227 -0.867
vn 0.0728 -0.1803 -0.9809
vn 0.3394 -0.0952 -0.9358
vn 0.1117 -0.283 -0.9526
vn 0.012 -0.2958 -0.9552
vn 0.0078 -0.2111 -0.9774
vn 0.1117 -0.283 -0.9526
vn 0.0078 -0.2111 -0.9774
vn 0.0728 -0.1803 -0.9809
vn 0.7714 0.0801 -0.6313
vn 0.3395 -0.0952 -0.9358
vn 0.2497 0.1199 -0.9609
vn 0.7714 0.0801 -0.6313
vn 0.2497 0.1199 -0.9609
vn 0.648 0.4538 -0.6117
vn 0.7714 0.0801 -0.6313
vn 0.8656 -0.09 -0.4925
vn 0.4458 -0.2227 -0.867
vn 0.7714 0.0801 -0.6313
vn 0.4458 -0.2227 -0.867
vn 0.3395 -0.0952 -0.9358
vn 0.9243 -0.1509 -0.3506
vn 0.5125 -0.3474 -0.7853
vn 0.4458 -0.2227 -0.867
vn 0.9243 -0.1509 -0.3506
vn 0.4458 -0.2227 -0.867
vn 0.8656 -0.09 -0.4925
vn 0.5125 -0.3474 -0.7853
vn 0.1398 -0.4614 -0.8761
vn 0.1117 -0.283 -0.9526
vn 0.5125 -0.3474 -0.7853
vn 0.1117 -0.283 -0.9526
vn 0.4457 -0.2227 -0.867
vn 0.6055 -0.6799 -0.4135
vn 0.5125 -0.3474 -0.7852
vn 0.9243 -0.1509 -0.3506
vn 0.152 -0.9087 -0.3889
vn 0.1398 -0.4614 -0.8761
vn 0.5125 -0.3474 -0.7853
vn 0.152 -0.9087 -0.3889
vn 0.5125 -0.3474 -0.7853
vn 0.6055 -0.6799 -0.4135
vn 0.6055 -0.68 -0.4135
vn 0.6689 -0.7043 -0.2379
vn 0.1901 -0.9687 -0.1599
vn 0.6055 -0.68 -0.4135
vn 0.1901 -0.9687 -0.1599
vn 0.152 -0.9087 -0.3889
vn 0.9677 -0.1537 -0.1996
vn 0.6689 -0.7043 -0.2379
vn 0.6055 -0.6799 -0.4135
vn 0.9677 -0.1537 -0.1996
vn 0.6055 -0.6799 -0.4135
vn 0.9243 -0.1509 -0.3506
vn 0.002 -0.4945 -0.8692
vn 0.1398 -0.4614 -0.8761
vn 0.152 -0.9086 -0.3889
vn 0.002 -0.4945 -0.8692
vn 0.152 -0.9086 -0.3889
vn -0.0812 -0.9649 -0.2497
vn -0.0699 -0.9941 -0.0831
vn -0.0812 -0.9649 -0.2497
vn 0.152 -0.9086 -0.3889
vn -0.0699 -0.9941 -0.0831
vn 0.152 -0.9086 -0.3889
vn 0.1901 -0.9687 -0.1599
vn 0.9763 -0.0292 -0.2145
vn 0.9677 -0.1537 -0.1996
vn 0.9243 -0.1509 -0.3506
vn 0.9763 -0.0292 -0.2145
vn 0.9243 -0.1509 -0.3506
vn 0.8657 -0.09 -0.4924
vn 0.9523 0.1491 -0.2664
vn 0.9763 -0.0292 -0.2145
vn 0.8657 -0.09 -0.4924
vn 0.9523 0.1491 -0.2664
vn 0.8657 -0.09 -0.4924
vn 0.7714 0.0801 -0.6313
vn 0.749 0.5865 -0.3083
vn 0.9523 0.1491 -0.2664
vn 0.7714 0.0801 -0.6313
vn 0.749 0.5865 -0.3083
vn 0.7714 0.0801 -0.6313
vn 0.648 0.4538 -0.6117
vn 0.012 -0.2958 -0.9552
vn 0.1117 -0.283 -0.9526
vn 0.1398 -0.4614 -0.8761
vn 0.012 -0.2958 -0.9552
vn 0.1398 -0.4614 -0.8761
vn 0.002 -0.4945 -0.8692
vt 0 0
vt 0 0
vt 0 0
vt 0 0
vt 0 0
vt 0 0
vt 0 0
vt 0 0
vt 0 0
vt 0 0
vt 0 0
vt 0 0
vt 0 0
vt 0 0
vt 0 0
vt 0 0
vt 0 0
vt 0 0
vt 0 0
vt 0 0
vt 0 0
vt 0 0
vt 0 0
vt 0 0
vt 0 0
vt 0 0
vt 0 0
vt 0 0
vt 0 0
vt 0 0
vt 0 0
vt 0 0
vt 0 0
vt 0 0
vt 0 0
vt 0 0
vt 0 0
vt 0 0
vt 0 0
vt 0 0
vt 0 0
vt 0 0
vt 0 0
vt 0 0
vt 0 0
vt 0 0
vt 0 0
vt 0 0
vt 0 0
vt 0 0
vt 0 0
vt 0 0
vt 0 0
vt 0 0
vt 0 0
vt 0 0
vt 0 0
vt 0 0
vt 0 0
vt 0 0
vt 0 0
vt 0 0
vt 0 0
vt 0 0
vt 0 0
vt 0 0
vt 0 0
vt 0 0
vt 0 0
vt 0 0
vt 0 0
vt 0 0
vt 0 0
vt 0 0
vt 0 0
vt 0 0
vt 0 0
vt 0 0
vt 0 0
vt 0 0
vt 0 0
vt 0 0
vt 0 0
vt 0 0
vt 0 0
vt 0 0
vt 0 0
vt 0 0
vt 0 0
vt 0 0
vt 0 0
vt 0 0
vt 0 0
vt 0 0
vt 0 0
vt 0 0
vt 0 0
vt 0 0
vt 0 0
vt 0 0
vt 0 0
vt 0 0
vt 0 0
vt 0 0
vt 0 0
vt 0 0
vt 0 0
vt 0 0
vt 0 0
vt 0 0
vt 0 0
vt 0 0
vt 0 0
vt 0 0
vt 0 0
vt 0 0
vt 0 0
vt 0 0
vt 0 0
vt 0 0
vt 0 0
vt 0 0
vt 0 0
vt 0 0
vt 0 0
vt 0 0
vt 0 0
vt 1 0
vt 1 1
vt 0 0
vt 1 1
vt 0 1
vt 0 0
vt 1 0
vt 1 1
vt 0 0
vt 1 1
vt 0 1
vt 0 0
vt 1 0
vt 1 1
vt 0 0
vt 1 1
vt 0 1
vt 0 0
vt 1 0
vt 1 1
vt 0 0
vt 1 1
vt 0 1
vt 0 0
vt 0 0
vt 0 0
vt 0 0
vt 0 0
vt 0 0
vt 0 0
vt 1 0
vt 1 1
vt 0 0
vt 1 1
vt 0 1
vt 0 0
vt 0 0
vt 0 0
vt 0 0
vt 0 0
vt 0 0
vt 0 0
vt 0 0
vt 0 0
vt 0 0
vt 0 0
vt 0 0
vt 0 0
vt 0 0
vt 0 0
vt 0 0
vt 0 0
vt 0 0
vt 0 0
vt 0 0
vt 0 0
vt 0 0
vt 0 0
vt 0 0
vt 0 0
vt 1 0
vt 1 1
vt 0 0
vt 1 1
vt 0 1
vt 0 0
vt 1 0
vt 1 1
vt 0 0
vt 1 1
vt 0 1
vt 0 0
vt 0 0
vt 0 0
vt 0 0
vt 0 0
vt 0 0
vt 0 0
vt 1 0
vt 1 1
vt 0 0
vt 1 1
vt 0 1
vt 0 0
vt 0 0
vt 0 0
vt 0 0
vt 0 0
vt 0 0
vt 0 0
vt 0 0
vt 0 0
vt 0 0
vt 0 0
vt 0 0
vt 0 0
vt 0 0
vt 0 0
vt 0 0
vt 0 0
vt 0 0
vt 0 0
vt 0 0
vt 0 0
vt 0 0
vt 0 0
vt 0 0
vt 0 0
vt 0 0
vt 0 0
vt 0 0
vt 0 0
vt 0 0
vt 0 0
vt 0 0
vt 0 0
vt 0 0
vt 0 0
vt 0 0
vt 0 0
vt 0 0
vt 0 0
vt 0 0
vt 0 0
vt 0 0
vt 0 0
vt 0 0
vt 0 0
vt 0 0
vt 0 0
vt 0 0
vt 0 0
vt 0 0
vt 0 0
vt 0 0
vt 0 0
vt 0 0
vt 0 0
vt 0 0
vt 0 0
vt 0 0
vt 0 0
vt 0 0
vt 0 0
vt 0 0
vt 0 0
vt 0 0
vt 0 0
vt 0 0
vt 0 0
vt 0 0
vt 0 0
vt 0 0
vt 0 0
vt 0 0
vt 0 0
vt 0 0
vt 0 0
vt 0 0
vt 0 0
vt 0 0
vt 0 0
vt 0 0
vt 0 0
vt 0 0
vt 0 0
vt 0 0
vt 0 0
vt 0 0
vt 0 0
vt 0 0
vt 0 0
vt 0 0
vt 0 0
vt 0 0
vt 0 0
vt 0 0
vt 0 0
vt 0 0
vt 0 0
vt 0 0
vt 0 0
vt 0 0
vt 0 0
vt 0 0
vt 0 0
vt 0 0
vt 0 0
vt 0 0
vt 0 0
vt 0 0
vt 0 0
vt 0 0
vt 0 0
vt 0 0
vt 0 0
vt 0 0
vt 0 0
vt 0 0
vt 0 0
vt 0 0
vt 0 0
vt 0 0
vt 0 0
vt 0 0
vt 0 0
vt 0 0
vt 0 0
vt 0 0
vt 0 0
vt 0 0
vt 0 0
vt 0 0
vt 0 0
vt 0 0
vt 0 0
vt 0 0
vt 0 0
vt 0 0
vt 0 0
vt 0 0
vt 0 0
vt 0 0
vt 0 0
vt 0 0
vt 0 0
vt 0 0
vt 0 0
vt 0 0
vt 0 0
vt 0 0
vt 0 0
vt 0 0
vt 0 0
vt 0 0
vt 0 0
vt 0 0
vt 0 0
vt 0 0
vt 0 0
vt 0 0
vt 0 0
vt 0 0
vt 0 0
vt 0 0
vt 0 0
vt 0 0
vt 0 0
vt 0 0
vt 0 0
vt 0 0
vt 0 0
vt 0 0
vt 0 0
vt 0 0
vt 0 0
vt 0 0
vt 0 0
vt 0 0
vt 0 0
vt 0 0
vt 0 0
vt 0 0
vt 0 0
vt 0 0
vt 0 0
vt 0 0
vt 0 0
vt 0 0
vt 0 0
vt 0 0
vt 0 0
vt 0 0
vt 0 0
vt 0 0
vt 0 0
vt 0 0
vt 0 0
vt 0 0
vt 0 0
vt 0 0
vt 0 0
vt 0 0
vt 0 0
vt 0 0
vt 0 0
vt 0 0
vt 0 0
vt 0 0
vt 0 0
vt 0 0
vt 0 0
vt 0 0
vt 0 0
vt 0 0
vt 0 0
vt 0 0
vt 0 0
vt 0 0
vt 0 0
vt 0 0
vt 0 0
vt 0 0
vt 0 0
vt 0 0
vt 0 0
vt 0 0
vt 0 0
vt 0 0
vt 0 0
vt 0 0
vt 0 0
vt 0 0
vt 0 0
vt 0 0
vt 0 0
vt 0 0
vt 0 0
vt 0 0
vt 0 0
vt 0 0
vt 0 0
vt 0 0
vt 0 0
vt 0 0
vt 0 0
vt 0 0
vt 0 0
vt 0 0
vt 0 0
vt 0 0
vt 0 0
vt 0 0
vt 0 0
vt 0 0
vt 0 0
vt 0 0
vt 0 0
vt 0 0
vt 0 0
vt 0 0
vt 0 0
vt 0 0
vt 0 0
vt 1 0.5
vt 0 1
vt 0 1
vt 1 0.5
vt 0 1
vt 0.5 0
vt 0 0
vt 0 0
vt 0 0
vt 0 0
vt 0 0
vt 0 0
vt 0 0
vt 0 0
vt 0 0
vt 0 0
vt 0 0
vt 0 0
vt 0 0
vt 0 0
vt 0 0
vt 0 0
vt 0 0
vt 0 0
vt 0 0
vt 0 0
vt 0 0
vt 0 0
vt 0 0
vt 0 0
s off
f 1/1/1 2/2/2 3/3/3
f 4/4/4 5/5/5 6/6/6
f 7/7/7 8/8/8 9/9/9
f 10/10/10 11/11/11 12/12/12
f 13/13/13 14/14/14 15/15/15
f 16/16/16 17/17/17 18/18/18
f 19/19/19 20/20/20 21/21/21
f 22/22/22 23/23/23 24/24/24
f 25/25/25 26/26/26 27/27/27
f 28/28/28 29/29/29 30/30/30
f 31/31/31 32/32/32 33/33/33
f 34/34/34 35/35/35 36/36/36
f 37/37/37 38/38/38 39/39/39
f 40/40/40 41/41/41 42/42/42
f 43/43/43 44/44/44 45/45/45
f 46/46/46 47/47/47 48/48/48
f 49/49/49 50/50/50 51/51/51
f 52/52/52 53/53/53 54/54/54
f 55/55/55 56/56/56 57/57/57
f 58/58/58 59/59/59 60/60/60
f 61/61/61 62/62/62 63/63/63
f 64/64/64 65/65/65 66/66/66
f 67/67/67 68/68/68 69/69/69
f 70/70/70 71/71/71 72/72/72
f 73/73/73 74/74/74 75/75/75
f 76/76/76 77/77/77 78/78/78
f 79/79/79 80/80/80 81/81/81
f 82/82/82 83/83/83 84/84/84
f 85/85/85 86/86/86 87/87/87
f 88/88/88 89/89/89 90/90/90
f 91/91/91 92/92/92 93/93/93
f 94/94/94 95/95/95 96/96/96
f 97/97/97 98/98/98 99/99/99
f 100/100/100 101/101/101 102/102/102
f 103/103/103 104/104/104 105/105/105
f 106/106/106 107/107/107 108/108/108
f 109/109/109 110/110/110 111/111/111
f 112/112/112 113/113/113 114/114/114
f 115/115/115 116/116/116 117/117/117
f 118/118/118 119/119/119 120/120/120
f 121/121/121 122/122/122 123/123/123
f 124/124/124 125/125/125 126/126/126
f 127/127/127 128/128/128 129/129/129
f 130/130/130 131/131/131 132/132/132
f 133/133/133 134/134/134 135/135/135
f 136/136/136 137/137/137 138/138/138
f 139/139/139 140/140/140 141/141/141
f 142/142/142 143/143/143 144/144/144
f 145/145/145 146/146/146 147/147/147
f 148/148/148 149/149/149 150/150/150
f 151/151/151 152/152/152 153/153/153
f 154/154/154 155/155/155 156/156/156
f 157/157/157 158/158/158 159/159/159
f 160/160/160 161/161/161 162/162/162
f 163/163/163 164/164/164 165/165/165
f 166/166/166 167/167/167 168/168/168
f 169/169/169 170/170/170 171/171/171
f 172/172/172 173/173/173 174/174/174
f 175/175/175 176/176/176 177/177/177
f 178/178/178 179/179/179 180/180/180
f 181/181/181 182/182/182 183/183/183
f 184/184/184 185/185/185 186/186/186
f 187/187/187 188/188/188 189/189/189
f 190/190/190 191/191/191 192/192/192
f 193/193/193 194/194/194 195/195/195
f 196/196/196 197/197/197 198/198/198
f 199/199/199 200/200/200 201/201/201
f 202/202/202 203/203/203 204/204/204
f 205/205/205 206/206/206 207/207/207
f 208/208/208 209/209/209 210/210/210
f 211/211/211 212/212/212 213/213/213
f 214/214/214 215/215/215 216/216/216
f 217/217/217 218/218/218 219/219/219
f 220/220/220 221/221/221 222/222/222
f 223/223/223 224/224/224 225/225/225
f 226/226/226 227/227/227 228/228/228
f 229/229/229 230/230/230 231/231/231
f 232/232/232 233/233/233 234/234/234
f 235/235/235 236/236/236 237/237/237
f 238/238/238 239/239/239 240/240/240
f 241/241/241 242/242/242 243/243/243
f 244/244/244 245/245/245 246/246/246
f 247/247/247 248/248/248 249/249/249
f 250/250/250 251/251/251 252/252/252
f 253/253/253 254/254/254 255/255/255
f 256/256/256 257/257/257 258/258/258
f 259/259/259 260/260/260 261/261/261
f 262/262/262 263/263/263 264/264/264
f 265/265/265 266/266/266 267/267/267
f 268/268/268 269/269/269 270/270/270
f 271/271/271 272/272/272 273/273/273
f 274/274/274 275/275/275 276/276/276
f 277/277/277 278/278/278 279/279/279
f 280/280/280 281/281/281 282/282/282
f 283/283/283 284/284/284 285/285/285
f 286/286/286 287/287/287 288/288/288
f 289/289/289 290/290/290 291/291/291
f 292/292/292 293/293/293 294/294/294
f 295/295/295 296/296/296 297/297/297
f 298/298/298 299/299/299 300/300/300
f 301/301/301 302/302/302 303/303/303
f 304/304/304 305/305/305 306/306/306
f 307/307/307 308/308/308 309/309/309
f 310/310/310 311/311/311 312/312/312
f 313/313/313 314/314/314 315/315/315
f 316/316/316 317/317/317 318/318/318
f 319/319/319 320/320/320 321/321/321
f 322/322/322 323/323/323 324/324/324
f 325/325/325 326/326/326 327/327/327
f 328/328/328 329/329/329 330/330/330
f 331/331/331 332/332/332 333/333/333
f 334/334/334 335/335/335 336/336/336
f 337/337/337 338/338/338 339/339/339
f 340/340/340 341/341/341 342/342/342
f 343/343/343 344/344/344 345/345/345
f 346/346/346 347/347/347 348/348/348
f 349/349/349 350/350/350 351/351/351
f 352/352/352 353/353/353 354/354/354
f 355/355/355 356/356/356 357/357/357
f 358/358/358 359/359/359 360/360/360
f 361/361/361 362/362/362 363/363/363
f 364/364/364 365/365/365 366/366/366
f 367/367/367 368/368/368 369/369/369
f 370/370/370 371/371/371 372/372/372
f 373/373/373 374/374/374 375/375/375
f 376/376/376 377/377/377 378/378/378
f 379/379/379 380/380/380 381/381/381
f 382/382/382 383/383/383 384/384/384
f 385/385/385 386/386/386 387/387/387
f 388/388/388 389/389/389 390/390/390
f 391/391/391 392/392/392 393/393/393
f 394/394/394 395/395/395 396/396/396
f 397/397/397 398/398/398 399/399/399
f 400/400/400 401/401/401 402/402/402
f 403/403/403 404/404/404 405/405/405
f 406/406/406 407/407/407 408/408/408
f 409/409/409 410/410/410 411/411/411
f 412/412/412 413/413/413 414/414/414
f 415/415/415 416/416/416 417/417/417
f 418/418/418 419/419/419 420/420/420
f 421/421/421 422/422/422 423/423/423
f 424/424/424 425/425/425 426/426/426
f 427/427/427 428/428/428 429/429/429
f 430/430/430 431/431/431 432/432/432
f 433/433/433 434/434/434 435/435/435
f 436/436/436 437/437/437 438/438/438
f 439/439/439 440/440/440 441/441/441
f 442/442/442 443/443/443 444/444/444
f 445/445/445 446/446/446 447/447/447
f 448/448/448 449/449/449 450/450/450
f 451/451/451 452/452/452 453/453/453
f 454/454/454 455/455/455 456/456/456
f 457/457/457 458/458/458 459/459/459
f 460/460/460 461/461/461 462/462/462
f 463/463/463 464/464/464 465/465/465
f 466/466/466 467/467/467 468/468/468
f 469/469/469 470/470/470 471/471/471
f 472/472/472 473/473/473 474/474/474
f 475/475/475 476/476/476 477/477/477
f 478/478/478 479/479/479 480/480/480
f 481/481/481 482/482/482 483/483/483
f 484/484/484 485/485/485 486/486/486
f 487/487/487 488/488/488 489/489/489
f 490/490/490 491/491/491 492/492/492
f 493/493/493 494/494/494 495/495/495
f 496/496/496 497/497/497 498/498/498
f 499/499/499 500/500/500 501/501/501
