v 0.644409 0.078404 -0.460444
v 0.637795 0.083319 -0.432898
v 0.688074 0.075977 -0.41786
v 0.695125 0.070363 -0.443985
v 0.688074 0.075977 -0.41786
v 0.744104 0.056619 -0.379681
v 0.74195 0.049037 -0.421605
v 0.695125 0.070363 -0.443985
v 0.692283 0.055629 -0.467042
v 0.695125 0.070363 -0.443985
v 0.74195 0.049037 -0.421605
v 0.727308 0.040884 -0.447137
v 0.648217 0.06348 -0.482816
v 0.644409 0.078404 -0.460444
v 0.695125 0.070363 -0.443985
v 0.692283 0.055629 -0.467042
v 0.649226 0.034244 -0.4881
v 0.648217 0.06348 -0.482816
v 0.692283 0.055629 -0.467042
v 0.68925 0.031059 -0.471903
v 0.68925 0.031059 -0.471903
v 0.692283 0.055629 -0.467042
v 0.727308 0.040884 -0.447137
v 0.719534 0.017274 -0.453546
v 0.68925 0.031059 -0.471903
v 0.719534 0.017274 -0.453546
v 0.708795 -0.002268 -0.457852
v 0.688031 0.003697 -0.470173
v 0.688031 0.003697 -0.470173
v 0.6513 0.00498 -0.485497
v 0.649226 0.034244 -0.4881
v 0.68925 0.031059 -0.471903
v 0.719534 0.017274 -0.453546
v 0.743029 -0.002536 -0.431631
v 0.718456 -0.018477 -0.448618
v 0.708795 -0.002268 -0.457852
v 0.744843 0.022689 -0.430526
v 0.743029 -0.002536 -0.431631
v 0.719534 0.017274 -0.453546
v 0.727308 0.040884 -0.447137
v 0.718456 -0.018477 -0.448618
v 0.743029 -0.002536 -0.431631
v 0.763784 -0.030631 -0.394912
v 0.734288 -0.041918 -0.431141
v 0.760238 0.014577 -0.400345
v 0.763784 -0.030631 -0.394912
v 0.743029 -0.002536 -0.431631
v 0.744843 0.022689 -0.430526
v 0.734288 -0.041918 -0.431141
v 0.763784 -0.030631 -0.394912
v 0.764857 -0.064916 -0.366923
v 0.744319 -0.067825 -0.409512
v 0.764857 -0.064916 -0.366923
v 0.763784 -0.030631 -0.394912
v 0.777126 -0.051193 -0.317772
v 0.76988 -0.066308 -0.317235
v 0.760238 0.014577 -0.400345
v 0.767713 0.020298 -0.344817
v 0.777126 -0.051193 -0.317772
v 0.763784 -0.030631 -0.394912
v 0.718456 -0.018477 -0.448618
v 0.734288 -0.041918 -0.431141
v 0.700314 -0.045435 -0.453483
v 0.690719 -0.021743 -0.464641
v 0.700314 -0.045435 -0.453483
v 0.734288 -0.041918 -0.431141
v 0.744319 -0.067825 -0.409512
v 0.709794 -0.069933 -0.436312
v 0.744319 -0.067825 -0.409512
v 0.736523 -0.078711 -0.389564
v 0.706751 -0.080836 -0.420148
v 0.709794 -0.069933 -0.436312
v 0.764857 -0.064916 -0.366923
v 0.75116 -0.076467 -0.352958
v 0.736523 -0.078711 -0.389564
v 0.744319 -0.067825 -0.409512
v 0.75116 -0.076467 -0.352958
v 0.75137 -0.076998 -0.3222
v 0.71773 -0.080847 -0.335561
v 0.736523 -0.078711 -0.389564
v 0.71773 -0.080847 -0.335561
v 0.678344 -0.085265 -0.346976
v 0.706751 -0.080836 -0.420148
v 0.736523 -0.078711 -0.389564
v 0.75116 -0.076467 -0.352958
v 0.764857 -0.064916 -0.366923
v 0.76988 -0.066308 -0.317235
v 0.75137 -0.076998 -0.3222
v 0.635912 -0.090022 -0.357338
v 0.661681 -0.084828 -0.444184
v 0.706751 -0.080836 -0.420148
v 0.678344 -0.085265 -0.346976
v 0.706751 -0.080836 -0.420148
v 0.661681 -0.084828 -0.444184
v 0.66356 -0.074966 -0.458415
v 0.709794 -0.069933 -0.436312
v 0.66356 -0.074966 -0.458415
v 0.661681 -0.084828 -0.444184
v 0.612039 -0.089201 -0.459057
v 0.613365 -0.078849 -0.472277
v 0.612039 -0.089201 -0.459057
v 0.661681 -0.084828 -0.444184
v 0.635912 -0.090022 -0.357338
v 0.57739 -0.096581 -0.371796
v 0.66356 -0.074966 -0.458415
v 0.659845 -0.050792 -0.471533
v 0.700314 -0.045435 -0.453483
v 0.709794 -0.069933 -0.436312
v 0.616851 -0.053795 -0.48282
v 0.659845 -0.050792 -0.471533
v 0.66356 -0.074966 -0.458415
v 0.613365 -0.078849 -0.472277
v 0.569193 -0.081479 -0.478569
v 0.576945 -0.05582 -0.488434
v 0.616851 -0.053795 -0.48282
v 0.613365 -0.078849 -0.472277
v 0.555718 -0.095102 -0.465107
v 0.569193 -0.081479 -0.478569
v 0.613365 -0.078849 -0.472277
v 0.612039 -0.089201 -0.459057
v 0.542766 -0.05677 -0.490896
v 0.576945 -0.05582 -0.488434
v 0.569193 -0.081479 -0.478569
v 0.535377 -0.082956 -0.480949
v 0.569193 -0.081479 -0.478569
v 0.555718 -0.095102 -0.465107
v 0.525953 -0.098353 -0.465576
v 0.535377 -0.082956 -0.480949
v 0.525953 -0.098353 -0.465576
v 0.555718 -0.095102 -0.465107
v 0.533953 -0.101448 -0.380601
v 0.49779 -0.105507 -0.393336
v 0.533953 -0.101448 -0.380601
v 0.555718 -0.095102 -0.465107
v 0.612039 -0.089201 -0.459057
v 0.57739 -0.096581 -0.371796
v 0.535377 -0.082956 -0.480949
v 0.525953 -0.098353 -0.465576
v 0.499737 -0.100698 -0.465751
v 0.504274 -0.083985 -0.481215
v 0.499737 -0.100698 -0.465751
v 0.525953 -0.098353 -0.465576
v 0.49779 -0.105507 -0.393336
v 0.455425 -0.109952 -0.411755
v 0.455425 -0.109952 -0.411755
v 0.444049 -0.105624 -0.419995
v 0.466744 -0.103962 -0.46345
v 0.499737 -0.100698 -0.465751
v 0.445396 -0.095535 -0.458548
v 0.466744 -0.103962 -0.46345
v 0.444049 -0.105624 -0.419995
v 0.435741 -0.093516 -0.427011
v 0.435011 -0.081277 -0.434092
v 0.439443 -0.082233 -0.45739
v 0.445396 -0.095535 -0.458548
v 0.435741 -0.093516 -0.427011
v 0.445396 -0.095535 -0.458548
v 0.439443 -0.082233 -0.45739
v 0.448768 -0.083821 -0.470644
v 0.466744 -0.103962 -0.46345
v 0.445396 -0.095535 -0.458548
v 0.448768 -0.083821 -0.470644
v 0.475205 -0.084571 -0.479782
v 0.439443 -0.082233 -0.45739
v 0.439614 -0.043346 -0.470907
v 0.457338 -0.049223 -0.488092
v 0.448768 -0.083821 -0.470644
v 0.448768 -0.083821 -0.470644
v 0.457338 -0.049223 -0.488092
v 0.483756 -0.052525 -0.491409
v 0.475205 -0.084571 -0.479782
v 0.504274 -0.083985 -0.481215
v 0.499737 -0.100698 -0.465751
v 0.466744 -0.103962 -0.46345
v 0.475205 -0.084571 -0.479782
v 0.513197 -0.055568 -0.491753
v 0.504274 -0.083985 -0.481215
v 0.475205 -0.084571 -0.479782
v 0.483756 -0.052525 -0.491409
v 0.483756 -0.052525 -0.491409
v 0.492627 -0.019615 -0.499603
v 0.519375 -0.028794 -0.498558
v 0.513197 -0.055568 -0.491753
v 0.457338 -0.049223 -0.488092
v 0.470447 -0.010076 -0.499505
v 0.492627 -0.019615 -0.499603
v 0.483756 -0.052525 -0.491409
v 0.492627 -0.019615 -0.499603
v 0.504571 0.011468 -0.504334
v 0.524122 -0.009072 -0.502123
v 0.519375 -0.028794 -0.498558
v 0.470447 -0.010076 -0.499505
v 0.486295 0.034296 -0.504722
v 0.504571 0.011468 -0.504334
v 0.492627 -0.019615 -0.499603
v 0.445076 0.003103 -0.487778
v 0.460126 0.046586 -0.49217
v 0.486295 0.034296 -0.504722
v 0.470447 -0.010076 -0.499505
v 0.445076 0.003103 -0.487778
v 0.470447 -0.010076 -0.499505
v 0.457338 -0.049223 -0.488092
v 0.439614 -0.043346 -0.470907
v 0.460126 0.046586 -0.49217
v 0.500177 0.074232 -0.492542
v 0.514107 0.05343 -0.505988
v 0.486295 0.034296 -0.504722
v 0.528615 0.028123 -0.505678
v 0.504571 0.011468 -0.504334
v 0.486295 0.034296 -0.504722
v 0.514107 0.05343 -0.505988
v 0.500177 0.074232 -0.492542
v 0.552548 0.081634 -0.485867
v 0.556332 0.062166 -0.503818
v 0.514107 0.05343 -0.505988
v 0.556332 0.062166 -0.503818
v 0.567917 0.035095 -0.503809
v 0.528615 0.028123 -0.505678
v 0.514107 0.05343 -0.505988
v 0.567917 0.035095 -0.503809
v 0.556332 0.062166 -0.503818
v 0.602453 0.065269 -0.495452
v 0.607971 0.0358 -0.498254
v 0.556332 0.062166 -0.503818
v 0.552548 0.081634 -0.485867
v 0.607467 0.082981 -0.473257
v 0.602453 0.065269 -0.495452
v 0.567917 0.035095 -0.503809
v 0.573799 0.00342 -0.500992
v 0.542294 -0.000209 -0.502912
v 0.528615 0.028123 -0.505678
v 0.573799 0.00342 -0.500992
v 0.567917 0.035095 -0.503809
v 0.607971 0.0358 -0.498254
v 0.61261 0.004249 -0.495278
v 0.6513 0.00498 -0.485497
v 0.61261 0.004249 -0.495278
v 0.607971 0.0358 -0.498254
v 0.649226 0.034244 -0.4881
v 0.607971 0.0358 -0.498254
v 0.602453 0.065269 -0.495452
v 0.648217 0.06348 -0.482816
v 0.649226 0.034244 -0.4881
v 0.578339 -0.027306 -0.495496
v 0.573799 0.00342 -0.500992
v 0.61261 0.004249 -0.495278
v 0.615928 -0.025781 -0.489901
v 0.615928 -0.025781 -0.489901
v 0.61261 0.004249 -0.495278
v 0.6513 0.00498 -0.485497
v 0.655067 -0.023872 -0.479832
v 0.655067 -0.023872 -0.479832
v 0.6513 0.00498 -0.485497
v 0.688031 0.003697 -0.470173
v 0.690719 -0.021743 -0.464641
v 0.616851 -0.053795 -0.48282
v 0.615928 -0.025781 -0.489901
v 0.655067 -0.023872 -0.479832
v 0.659845 -0.050792 -0.471533
v 0.659845 -0.050792 -0.471533
v 0.655067 -0.023872 -0.479832
v 0.690719 -0.021743 -0.464641
v 0.700314 -0.045435 -0.453483
v 0.708795 -0.002268 -0.457852
v 0.718456 -0.018477 -0.448618
v 0.690719 -0.021743 -0.464641
v 0.688031 0.003697 -0.470173
v 0.576945 -0.05582 -0.488434
v 0.578339 -0.027306 -0.495496
v 0.615928 -0.025781 -0.489901
v 0.616851 -0.053795 -0.48282
v 0.542766 -0.05677 -0.490896
v 0.545921 -0.029086 -0.497847
v 0.578339 -0.027306 -0.495496
v 0.576945 -0.05582 -0.488434
v 0.545921 -0.029086 -0.497847
v 0.542294 -0.000209 -0.502912
v 0.573799 0.00342 -0.500992
v 0.578339 -0.027306 -0.495496
v 0.519375 -0.028794 -0.498558
v 0.524122 -0.009072 -0.502123
v 0.542294 -0.000209 -0.502912
v 0.545921 -0.029086 -0.497847
v 0.513197 -0.055568 -0.491753
v 0.519375 -0.028794 -0.498558
v 0.545921 -0.029086 -0.497847
v 0.542766 -0.05677 -0.490896
v 0.542294 -0.000209 -0.502912
v 0.524122 -0.009072 -0.502123
v 0.504571 0.011468 -0.504334
v 0.528615 0.028123 -0.505678
v 0.513197 -0.055568 -0.491753
v 0.542766 -0.05677 -0.490896
v 0.535377 -0.082956 -0.480949
v 0.504274 -0.083985 -0.481215
v 0.552548 0.081634 -0.485867
v 0.544365 0.087113 -0.452272
v 0.597038 0.088009 -0.444828
v 0.607467 0.082981 -0.473257
v 0.499073 0.086878 -0.459895
v 0.544365 0.087113 -0.452272
v 0.552548 0.081634 -0.485867
v 0.500177 0.074232 -0.492542
v 0.453127 0.052583 -0.462662
v 0.499073 0.086878 -0.459895
v 0.500177 0.074232 -0.492542
v 0.460126 0.046586 -0.49217
v 0.453127 0.052583 -0.462662
v 0.460126 0.046586 -0.49217
v 0.445076 0.003103 -0.487778
v 0.436797 0.004031 -0.460262
v 0.436797 0.004031 -0.460262
v 0.445076 0.003103 -0.487778
v 0.439614 -0.043346 -0.470907
v 0.435658 -0.040077 -0.45018
v 0.435658 -0.040077 -0.45018
v 0.439614 -0.043346 -0.470907
v 0.439443 -0.082233 -0.45739
v 0.435011 -0.081277 -0.434092
v 0.597038 0.088009 -0.444828
v 0.637795 0.083319 -0.432898
v 0.644409 0.078404 -0.460444
v 0.607467 0.082981 -0.473257
v 0.602453 0.065269 -0.495452
v 0.607467 0.082981 -0.473257
v 0.644409 0.078404 -0.460444
v 0.648217 0.06348 -0.482816
v 0.744104 0.056619 -0.379681
v 0.767713 0.020298 -0.344817
v 0.760238 0.014577 -0.400345
v 0.74195 0.049037 -0.421605
v 0.74195 0.049037 -0.421605
v 0.760238 0.014577 -0.400345
v 0.744843 0.022689 -0.430526
v 0.727308 0.040884 -0.447137
vn 0.2307 0.912 -0.3392
vn 0.1768 0.975 -0.1349
vn 0.3435 0.9283 -0.1425
vn 0.3901 0.8679 -0.3076
vn 0.3435 0.9283 -0.1425
vn 0.7894 0.5948 -0.1515
vn 0.7016 0.6629 -0.2616
vn 0.3901 0.8679 -0.3076
vn 0.4527 0.502 -0.7369
vn 0.3901 0.8679 -0.3076
vn 0.7016 0.6629 -0.2616
vn 0.6475 0.3707 -0.6659
vn 0.314 0.5152 -0.7975
vn 0.2307 0.912 -0.3392
vn 0.3901 0.8679 -0.3076
vn 0.4527 0.502 -0.7369
vn 0.3084 0.0524 -0.9498
vn 0.314 0.5152 -0.7975
vn 0.4527 0.502 -0.7369
vn 0.4338 0.0417 -0.9001
vn 0.4338 0.0417 -0.9001
vn 0.4527 0.502 -0.7369
vn 0.6475 0.3707 -0.6659
vn 0.5802 -0.0249 -0.8141
vn 0.4338 0.0417 -0.9001
vn 0.5802 -0.0249 -0.8141
vn 0.5314 -0.1214 -0.8384
vn 0.4208 -0.1045 -0.9011
vn 0.4208 -0.1045 -0.9011
vn 0.3092 -0.1035 -0.9454
vn 0.3084 0.0524 -0.9498
vn 0.4338 0.0417 -0.9001
vn 0.5802 -0.0249 -0.8141
vn 0.7763 -0.0879 -0.6242
vn 0.6127 -0.1747 -0.7707
vn 0.5314 -0.1214 -0.8384
vn 0.8243 0.091 -0.5588
vn 0.7763 -0.0879 -0.6242
vn 0.5802 -0.0249 -0.8141
vn 0.6475 0.3707 -0.6659
vn 0.6127 -0.1747 -0.7707
vn 0.7763 -0.0879 -0.6242
vn 0.9507 -0.0504 -0.3059
vn 0.6936 -0.2521 -0.6748
vn 0.9566 0.1799 -0.2294
vn 0.9507 -0.0504 -0.3059
vn 0.7763 -0.0879 -0.6242
vn 0.8243 0.091 -0.5588
vn 0.6936 -0.2521 -0.6748
vn 0.9507 -0.0504 -0.3059
vn 0.8559 -0.4511 -0.2531
vn 0.7102 -0.4914 -0.5041
vn 0.8559 -0.4511 -0.2531
vn 0.9507 -0.0504 -0.3059
vn 0.9854 -0.0542 -0.1615
vn 0.8886 -0.4339 -0.149
vn 0.9566 0.1799 -0.2294
vn 0.9781 0.146 -0.1484
vn 0.9854 -0.0542 -0.1615
vn 0.9507 -0.0504 -0.3059
vn 0.6127 -0.1747 -0.7707
vn 0.6936 -0.2521 -0.6748
vn 0.4782 -0.3083 -0.8224
vn 0.4403 -0.1894 -0.8777
vn 0.4782 -0.3083 -0.8224
vn 0.6936 -0.2521 -0.6748
vn 0.7102 -0.4914 -0.5041
vn 0.4704 -0.5713 -0.6726
vn 0.7102 -0.4914 -0.5041
vn 0.2392 -0.9664 -0.0945
vn 0.1735 -0.9774 -0.1208
vn 0.4704 -0.5713 -0.6726
vn 0.8559 -0.4511 -0.2531
vn 0.3304 -0.9424 -0.052
vn 0.2392 -0.9664 -0.0945
vn 0.7102 -0.4914 -0.5041
vn 0.3304 -0.9424 -0.052
vn 0.3462 -0.9377 -0.0297
vn 0.1105 -0.9938 -0.0101
vn 0.2392 -0.9664 -0.0945
vn 0.1105 -0.9938 -0.0101
vn 0.1061 -0.9942 -0.0195
vn 0.1735 -0.9774 -0.1208
vn 0.2392 -0.9664 -0.0945
vn 0.3304 -0.9424 -0.052
vn 0.8559 -0.4511 -0.2531
vn 0.8886 -0.4339 -0.149
vn 0.3462 -0.9377 -0.0297
vn 0.1091 -0.9936 -0.029
vn 0.1445 -0.9819 -0.1222
vn 0.1735 -0.9774 -0.1208
vn 0.1061 -0.9942 -0.0195
vn 0.1735 -0.9774 -0.1208
vn 0.1445 -0.9819 -0.1222
vn 0.336 -0.5787 -0.7431
vn 0.4704 -0.5713 -0.6726
vn 0.336 -0.5787 -0.7431
vn 0.1445 -0.9819 -0.1222
vn 0.1269 -0.9827 -0.1351
vn 0.2033 -0.5808 -0.7883
vn 0.1269 -0.9827 -0.1351
vn 0.1445 -0.9819 -0.1222
vn 0.1091 -0.9936 -0.029
vn 0.1117 -0.993 -0.0383
vn 0.336 -0.5787 -0.7431
vn 0.3393 -0.3262 -0.8823
vn 0.4782 -0.3083 -0.8224
vn 0.4704 -0.5713 -0.6726
vn 0.212 -0.3271 -0.9209
vn 0.3393 -0.3262 -0.8823
vn 0.336 -0.5787 -0.7431
vn 0.2033 -0.5808 -0.7883
vn 0.1224 -0.57 -0.8125
vn 0.1208 -0.3188 -0.9401
vn 0.212 -0.3271 -0.9209
vn 0.2033 -0.5808 -0.7883
vn 0.1174 -0.9814 -0.1516
vn 0.1224 -0.57 -0.8125
vn 0.2033 -0.5808 -0.7883
vn 0.1269 -0.9827 -0.1351
vn 0.0525 -0.3109 -0.949
vn 0.1208 -0.3188 -0.9401
vn 0.1224 -0.57 -0.8125
vn 0.0558 -0.5234 -0.8502
vn 0.1224 -0.57 -0.8125
vn 0.1174 -0.9814 -0.1516
vn 0.1112 -0.9766 -0.184
vn 0.0558 -0.5234 -0.8502
vn 0.1112 -0.9766 -0.184
vn 0.1174 -0.9814 -0.1516
vn 0.1156 -0.9923 -0.044
vn 0.1174 -0.9916 -0.0548
vn 0.1156 -0.9923 -0.044
vn 0.1174 -0.9814 -0.1516
vn 0.1269 -0.9827 -0.1351
vn 0.1117 -0.993 -0.0383
vn 0.0558 -0.5234 -0.8502
vn 0.1112 -0.9766 -0.184
vn 0.0812 -0.9649 -0.2496
vn -0.002 -0.4945 -0.8692
vn 0.0812 -0.9649 -0.2496
vn 0.1112 -0.9766 -0.184
vn 0.1174 -0.9916 -0.0548
vn 0.0699 -0.9941 -0.0829
vn 0.0699 -0.9941 -0.0829
vn -0.1901 -0.9687 -0.1599
vn -0.152 -0.9086 -0.3889
vn 0.0812 -0.9649 -0.2496
vn -0.6055 -0.6799 -0.4135
vn -0.152 -0.9086 -0.3889
vn -0.1901 -0.9687 -0.1599
vn -0.6689 -0.7043 -0.2379
vn -0.9677 -0.1537 -0.1996
vn -0.9243 -0.1508 -0.3506
vn -0.6055 -0.6799 -0.4135
vn -0.6689 -0.7043 -0.2379
vn -0.6055 -0.6799 -0.4135
vn -0.9243 -0.1508 -0.3506
vn -0.5125 -0.3474 -0.7853
vn -0.152 -0.9086 -0.3889
vn -0.6055 -0.6799 -0.4135
vn -0.5125 -0.3474 -0.7853
vn -0.1398 -0.4614 -0.8761
vn -0.9243 -0.1508 -0.3506
vn -0.8657 -0.09 -0.4925
vn -0.4458 -0.2227 -0.867
vn -0.5125 -0.3474 -0.7853
vn -0.5125 -0.3474 -0.7853
vn -0.4458 -0.2227 -0.867
vn -0.1117 -0.283 -0.9526
vn -0.1398 -0.4614 -0.8761
vn -0.002 -0.4945 -0.8692
vn 0.0812 -0.9649 -0.2496
vn -0.152 -0.9086 -0.3889
vn -0.1398 -0.4614 -0.8761
vn -0.012 -0.2958 -0.9552
vn -0.002 -0.4945 -0.8692
vn -0.1398 -0.4614 -0.8761
vn -0.1117 -0.283 -0.9526
vn -0.1117 -0.283 -0.9526
vn -0.0728 -0.1803 -0.9809
vn -0.0078 -0.2111 -0.9774
vn -0.012 -0.2958 -0.9552
vn -0.4458 -0.2227 -0.867
vn -0.3395 -0.0952 -0.9358
vn -0.0728 -0.1803 -0.9809
vn -0.1117 -0.283 -0.9526
vn -0.0728 -0.1803 -0.9809
vn -0.0392 -0.0898 -0.9952
vn 0.0016 -0.1407 -0.9901
vn -0.0078 -0.2111 -0.9774
vn -0.3395 -0.0952 -0.9358
vn -0.2497 0.1199 -0.9609
vn -0.0392 -0.0898 -0.9952
vn -0.0728 -0.1803 -0.9809
vn -0.7714 0.0801 -0.6313
vn -0.648 0.4538 -0.6117
vn -0.2497 0.1199 -0.9609
vn -0.3395 -0.0952 -0.9358
vn -0.7714 0.0801 -0.6313
vn -0.3395 -0.0952 -0.9358
vn -0.4458 -0.2227 -0.867
vn -0.8657 -0.09 -0.4925
vn -0.648 0.4538 -0.6117
vn -0.2833 0.7844 -0.5518
vn -0.0797 0.3141 -0.946
vn -0.2497 0.1199 -0.9609
vn 0.0261 -0.0346 -0.9991
vn -0.0392 -0.0898 -0.9952
vn -0.2497 0.1199 -0.9609
vn -0.0797 0.3141 -0.946
vn -0.2833 0.7844 -0.5518
vn 0.0132 0.8858 -0.4638
vn 0.069 0.4075 -0.9106
vn -0.0797 0.3141 -0.946
vn 0.069 0.4075 -0.9106
vn 0.1084 0.002 -0.9941
vn 0.0261 -0.0346 -0.9991
vn -0.0797 0.3141 -0.946
vn 0.1084 0.002 -0.9941
vn 0.069 0.4075 -0.9106
vn 0.1899 0.4731 -0.8603
vn 0.2008 0.0368 -0.9789
vn 0.069 0.4075 -0.9106
vn 0.0132 0.8858 -0.4638
vn 0.1291 0.9153 -0.3816
vn 0.1899 0.4731 -0.8603
vn 0.1084 0.002 -0.9941
vn 0.112 -0.1105 -0.9875
vn 0.0526 -0.1152 -0.9919
vn 0.0261 -0.0346 -0.9991
vn 0.112 -0.1105 -0.9875
vn 0.1084 0.002 -0.9941
vn 0.2008 0.0368 -0.9789
vn 0.1961 -0.1074 -0.9747
vn 0.3092 -0.1035 -0.9454
vn 0.1961 -0.1074 -0.9747
vn 0.2008 0.0368 -0.9789
vn 0.3084 0.0524 -0.9498
vn 0.2008 0.0368 -0.9789
vn 0.1899 0.4731 -0.8603
vn 0.314 0.5152 -0.7975
vn 0.3084 0.0524 -0.9498
vn 0.12 -0.2005 -0.9723
vn 0.112 -0.1105 -0.9875
vn 0.1961 -0.1074 -0.9747
vn 0.2036 -0.1953 -0.9594
vn 0.2036 -0.1953 -0.9594
vn 0.1961 -0.1074 -0.9747
vn 0.3092 -0.1035 -0.9454
vn 0.3212 -0.1894 -0.9279
vn 0.3212 -0.1894 -0.9279
vn 0.3092 -0.1035 -0.9454
vn 0.4208 -0.1045 -0.9011
vn 0.4403 -0.1894 -0.8777
vn 0.212 -0.3271 -0.9209
vn 0.2036 -0.1953 -0.9594
vn 0.3212 -0.1894 -0.9279
vn 0.3393 -0.3262 -0.8823
vn 0.3393 -0.3262 -0.8823
vn 0.3212 -0.1894 -0.9279
vn 0.4403 -0.1894 -0.8777
vn 0.4782 -0.3083 -0.8224
vn 0.5314 -0.1214 -0.8384
vn 0.6127 -0.1747 -0.7707
vn 0.4403 -0.1894 -0.8777
vn 0.4208 -0.1045 -0.9011
vn 0.1208 -0.3188 -0.9401
vn 0.12 -0.2005 -0.9723
vn 0.2036 -0.1953 -0.9594
vn 0.212 -0.3271 -0.9209
vn 0.0525 -0.3109 -0.949
vn 0.0593 -0.211 -0.9757
vn 0.12 -0.2005 -0.9723
vn 0.1208 -0.3188 -0.9401
vn 0.0593 -0.211 -0.9757
vn 0.0526 -0.1152 -0.9919
vn 0.112 -0.1105 -0.9875
vn 0.12 -0.2005 -0.9723
vn -0.0078 -0.2111 -0.9774
vn 0.0016 -0.1407 -0.9901
vn 0.0526 -0.1152 -0.9919
vn 0.0593 -0.211 -0.9757
vn -0.012 -0.2958 -0.9552
vn -0.0078 -0.2111 -0.9774
vn 0.0593 -0.211 -0.9757
vn 0.0525 -0.3109 -0.949
vn 0.0526 -0.1152 -0.9919
vn 0.0016 -0.1407 -0.9901
vn -0.0392 -0.0898 -0.9952
vn 0.0261 -0.0346 -0.9991
vn -0.012 -0.2958 -0.9552
vn 0.0525 -0.3109 -0.949
vn 0.0558 -0.5234 -0.8502
vn -0.002 -0.4945 -0.8692
vn 0.0132 0.8858 -0.4638
vn -0.0138 0.9758 -0.2184
vn 0.0636 0.9865 -0.1507
vn 0.1291 0.9153 -0.3816
vn -0.2739 0.9152 -0.2957
vn -0.0138 0.9758 -0.2184
vn 0.0132 0.8858 -0.4638
vn -0.2833 0.7844 -0.5518
vn -0.749 0.5864 -0.3084
vn -0.2739 0.9152 -0.2957
vn -0.2833 0.7844 -0.5518
vn -0.648 0.4538 -0.6117
vn -0.749 0.5864 -0.3084
vn -0.648 0.4538 -0.6117
vn -0.7714 0.0801 -0.6313
vn -0.9523 0.1491 -0.2664
vn -0.9523 0.1491 -0.2664
vn -0.7714 0.0801 -0.6313
vn -0.8657 -0.09 -0.4925
vn -0.9763 -0.0292 -0.2145
vn -0.9763 -0.0292 -0.2145
vn -0.8657 -0.09 -0.4925
vn -0.9243 -0.1508 -0.3506
vn -0.9677 -0.1537 -0.1996
vn 0.0636 0.9865 -0.1507
vn 0.1768 0.975 -0.1349
vn 0.2307 0.912 -0.3392
vn 0.1291 0.9153 -0.3816
vn 0.1899 0.4731 -0.8603
vn 0.1291 0.9153 -0.3816
vn 0.2307 0.912 -0.3392
vn 0.314 0.5152 -0.7975
vn 0.7894 0.5948 -0.1515
vn 0.9781 0.146 -0.1484
vn 0.9566 0.1799 -0.2294
vn 0.7016 0.6629 -0.2616
vn 0.7016 0.6629 -0.2616
vn 0.9566 0.1799 -0.2294
vn 0.8243 0.091 -0.5588
vn 0.6475 0.3707 -0.6659
vt 0 1
vt 0 1
vt 0 1
vt 0 1
vt 0 1
vt 0 1
vt 0 1
vt 0 1
vt 0 1
vt 0 1
vt 0 1
vt 0 1
vt 0 1
vt 0 1
vt 0 1
vt 0 1
vt 0 1
vt 0 1
vt 0 1
vt 0 1
vt 0 1
vt 0 0
vt 1 0
vt 1 1
vt 0 1
vt 0 0
vt 1 0
vt 1 1
vt 0 1
vt 0 1
vt 0 1
vt 0 1
vt 0 1
vt 0 0
vt 1 0
vt 1 1
vt 0 1
vt 0 0
vt 1 0
vt 1 1
vt 0 1
vt 0 0
vt 1 0
vt 1 1
vt 0 1
vt 0 0
vt 1 0
vt 1 1
vt 0 1
vt 0 1
vt 0 1
vt 0 1
vt 0 1
vt 0 1
vt 0 1
vt 0 1
vt 0 1
vt 0 1
vt 0 1
vt 0 1
vt 0 1
vt 0 0
vt 1 0
vt 1 1
vt 0 1
vt 0 1
vt 0 1
vt 0 1
vt 0 1
vt 0 1
vt 0 1
vt 0 1
vt 0 1
vt 0 1
vt 0 1
vt 0 1
vt 0 1
vt 0 1
vt 0 1
vt 0 1
vt 0 1
vt 0 1
vt 0 1
vt 0 1
vt 0 1
vt 0 1
vt 0 1
vt 0 1
vt 0 1
vt 0 1
vt 0 1
vt 0 1
vt 0 1
vt 0 1
vt 0 1
vt 0 1
vt 0 1
vt 0 1
vt 0 1
vt 0 1
vt 0 1
vt 0 1
vt 0 1
vt 0 1
vt 0 1
vt 0 1
vt 0 1
vt 0 1
vt 0 1
vt 0 1
vt 0 1
vt 0 1
vt 0 1
vt 0 1
vt 0 1
vt 0 1
vt 0 1
vt 0 1
vt 0 1
vt 0 1
vt 0 1
vt 0 1
vt 0 1
vt 0 1
vt 0 1
vt 0 1
vt 0 1
vt 0 1
vt 0 1
vt 0 1
vt 0 1
vt 0 1
vt 0 1
vt 0 1
vt 0 1
vt 0 1
vt 0 1
vt 0 1
vt 0 1
vt 0 1
vt 0 1
vt 0 1
vt 0 1
vt 0 1
vt 1 0.5
vt 0.5 1
vt 0 0
vt 0 0
vt 0 1
vt 0 1
vt 0 1
vt 0 1
vt 0 1
vt 0 1
vt 0 1
vt 0 1
vt 0 1
vt 0 1
vt 0 1
vt 0 1
vt 0 1
vt 0 1
vt 0 1
vt 0 1
vt 0 1
vt 0 1
vt 0 1
vt 0 1
vt 0 1
vt 0 1
vt 0 1
vt 0 1
vt 0 1
vt 0 1
vt 0 1
vt 0 1
vt 0 1
vt 0 1
vt 0 1
vt 0 1
vt 0 1
vt 0 1
vt 0 1
vt 0 1
vt 0 1
vt 0 1
vt 0 1
vt 0 1
vt 0 1
vt 0 1
vt 0 1
vt 0 1
vt 0 1
vt 0 1
vt 0 1
vt 0 1
vt 0 1
vt 0 1
vt 0 1
vt 0 1
vt 0 1
vt 0 1
vt 0 1
vt 0 1
vt 0 1
vt 0 1
vt 0 1
vt 0 1
vt 0 1
vt 0 1
vt 0 1
vt 0 1
vt 0 1
vt 0 1
vt 0 1
vt 0 1
vt 0 1
vt 0 1
vt 0 1
vt 0 1
vt 0 1
vt 0 1
vt 0 1
vt 0 1
vt 0 1
vt 0 1
vt 0 1
vt 0 1
vt 0 1
vt 0 1
vt 0 1
vt 0 1
vt 0 1
vt 0 1
vt 0 1
vt 0 1
vt 0 1
vt 0 1
vt 0 1
vt 0 1
vt 0 1
vt 0 1
vt 0 1
vt 0 1
vt 0 1
vt 0 1
vt 0 1
vt 0 1
vt 0 1
vt 0 1
vt 0 1
vt 0 1
vt 0 1
vt 0 1
vt 0 1
vt 0 1
vt 0 1
vt 0 1
vt 0 1
vt 0 1
vt 0 1
vt 0 1
vt 0 1
vt 0 1
vt 0 0
vt 1 0
vt 1 1
vt 0 1
vt 0 1
vt 0 1
vt 0 1
vt 0 1
vt 0 1
vt 0 1
vt 0 1
vt 0 1
vt 0 1
vt 0 1
vt 0 1
vt 0 1
vt 0 1
vt 0 1
vt 0 1
vt 0 1
vt 0 1
vt 0 1
vt 0 1
vt 0 1
vt 0 1
vt 0 1
vt 0 1
vt 0 1
vt 0 1
vt 0 1
vt 0 1
vt 0 1
vt 0 1
vt 0 1
vt 0 1
vt 0 1
vt 0 1
vt 0 1
vt 0 1
vt 0 1
vt 0 1
vt 0 1
vt 0 1
vt 0 1
vt 0 1
vt 0 1
vt 0 1
vt 0 1
vt 0 1
vt 0 1
vt 0 1
vt 0 1
vt 0 1
vt 0 1
vt 0 1
vt 0 1
vt 0 1
vt 0 1
vt 0 1
vt 0 1
vt 0 1
vt 0 1
vt 0 1
vt 0 1
vt 0 1
vt 0 1
vt 0 1
vt 0 1
vt 0 1
vt 0 1
vt 0 1
s off
f 1/1/1 2/2/2 3/3/3
f 1/1/1 3/3/3 4/4/4
f 5/5/5 6/6/6 7/7/7
f 5/5/5 7/7/7 8/8/8
f 9/9/9 10/10/10 11/11/11
f 9/9/9 11/11/11 12/12/12
f 13/13/13 14/14/14 15/15/15
f 13/13/13 15/15/15 16/16/16
f 17/17/17 18/18/18 19/19/19
f 17/17/17 19/19/19 20/20/20
f 21/21/21 22/22/22 23/23/23
f 21/21/21 23/23/23 24/24/24
f 25/25/25 26/26/26 27/27/27
f 25/25/25 27/27/27 28/28/28
f 29/29/29 30/30/30 31/31/31
f 29/29/29 31/31/31 32/32/32
f 33/33/33 34/34/34 35/35/35
f 33/33/33 35/35/35 36/36/36
f 37/37/37 38/38/38 39/39/39
f 37/37/37 39/39/39 40/40/40
f 41/41/41 42/42/42 43/43/43
f 41/41/41 43/43/43 44/44/44
f 45/45/45 46/46/46 47/47/47
f 45/45/45 47/47/47 48/48/48
f 49/49/49 50/50/50 51/51/51
f 49/49/49 51/51/51 52/52/52
f 53/53/53 54/54/54 55/55/55
f 53/53/53 55/55/55 56/56/56
f 57/57/57 58/58/58 59/59/59
f 57/57/57 59/59/59 60/60/60
f 61/61/61 62/62/62 63/63/63
f 61/61/61 63/63/63 64/64/64
f 65/65/65 66/66/66 67/67/67
f 65/65/65 67/67/67 68/68/68
f 69/69/69 70/70/70 71/71/71
f 69/69/69 71/71/71 72/72/72
f 73/73/73 74/74/74 75/75/75
f 73/73/73 75/75/75 76/76/76
f 77/77/77 78/78/78 79/79/79
f 77/77/77 79/79/79 80/80/80
f 81/81/81 82/82/82 83/83/83
f 81/81/81 83/83/83 84/84/84
f 85/85/85 86/86/86 87/87/87
f 85/85/85 87/87/87 88/88/88
f 89/89/89 90/90/90 91/91/91
f 89/89/89 91/91/91 92/92/92
f 93/93/93 94/94/94 95/95/95
f 93/93/93 95/95/95 96/96/96
f 97/97/97 98/98/98 99/99/99
f 97/97/97 99/99/99 100/100/100
f 101/101/101 102/102/102 103/103/103
f 101/101/101 103/103/103 104/104/104
f 105/105/105 106/106/106 107/107/107
f 105/105/105 107/107/107 108/108/108
f 109/109/109 110/110/110 111/111/111
f 109/109/109 111/111/111 112/112/112
f 113/113/113 114/114/114 115/115/115
f 113/113/113 115/115/115 116/116/116
f 117/117/117 118/118/118 119/119/119
f 117/117/117 119/119/119 120/120/120
f 121/121/121 122/122/122 123/123/123
f 121/121/121 123/123/123 124/124/124
f 125/125/125 126/126/126 127/127/127
f 125/125/125 127/127/127 128/128/128
f 129/129/129 130/130/130 131/131/131
f 129/129/129 131/131/131 132/132/132
f 133/133/133 134/134/134 135/135/135
f 133/133/133 135/135/135 136/136/136
f 137/137/137 138/138/138 139/139/139
f 137/137/137 139/139/139 140/140/140
f 141/141/141 142/142/142 143/143/143
f 141/141/141 143/143/143 144/144/144
f 145/145/145 146/146/146 147/147/147
f 145/145/145 147/147/147 148/148/148
f 149/149/149 150/150/150 151/151/151
f 149/149/149 151/151/151 152/152/152
f 153/153/153 154/154/154 155/155/155
f 153/153/153 155/155/155 156/156/156
f 157/157/157 158/158/158 159/159/159
f 160/160/160 161/161/161 162/162/162
f 160/160/160 162/162/162 163/163/163
f 164/164/164 165/165/165 166/166/166
f 164/164/164 166/166/166 167/167/167
f 168/168/168 169/169/169 170/170/170
f 168/168/168 170/170/170 171/171/171
f 172/172/172 173/173/173 174/174/174
f 172/172/172 174/174/174 175/175/175
f 176/176/176 177/177/177 178/178/178
f 176/176/176 178/178/178 179/179/179
f 180/180/180 181/181/181 182/182/182
f 180/180/180 182/182/182 183/183/183
f 184/184/184 185/185/185 186/186/186
f 184/184/184 186/186/186 187/187/187
f 188/188/188 189/189/189 190/190/190
f 188/188/188 190/190/190 191/191/191
f 192/192/192 193/193/193 194/194/194
f 192/192/192 194/194/194 195/195/195
f 196/196/196 197/197/197 198/198/198
f 196/196/196 198/198/198 199/199/199
f 200/200/200 201/201/201 202/202/202
f 200/200/200 202/202/202 203/203/203
f 204/204/204 205/205/205 206/206/206
f 204/204/204 206/206/206 207/207/207
f 208/208/208 209/209/209 210/210/210
f 208/208/208 210/210/210 211/211/211
f 212/212/212 213/213/213 214/214/214
f 212/212/212 214/214/214 215/215/215
f 216/216/216 217/217/217 218/218/218
f 216/216/216 218/218/218 219/219/219
f 220/220/220 221/221/221 222/222/222
f 220/220/220 222/222/222 223/223/223
f 224/224/224 225/225/225 226/226/226
f 224/224/224 226/226/226 227/227/227
f 228/228/228 229/229/229 230/230/230
f 228/228/228 230/230/230 231/231/231
f 232/232/232 233/233/233 234/234/234
f 232/232/232 234/234/234 235/235/235
f 236/236/236 237/237/237 238/238/238
f 236/236/236 238/238/238 239/239/239
f 240/240/240 241/241/241 242/242/242
f 240/240/240 242/242/242 243/243/243
f 244/244/244 245/245/245 246/246/246
f 244/244/244 246/246/246 247/247/247
f 248/248/248 249/249/249 250/250/250
f 248/248/248 250/250/250 251/251/251
f 252/252/252 253/253/253 254/254/254
f 252/252/252 254/254/254 255/255/255
f 256/256/256 257/257/257 258/258/258
f 256/256/256 258/258/258 259/259/259
f 260/260/260 261/261/261 262/262/262
f 260/260/260 262/262/262 263/263/263
f 264/264/264 265/265/265 266/266/266
f 264/264/264 266/266/266 267/267/267
f 268/268/268 269/269/269 270/270/270
f 268/268/268 270/270/270 271/271/271
f 272/272/272 273/273/273 274/274/274
f 272/272/272 274/274/274 275/275/275
f 276/276/276 277/277/277 278/278/278
f 276/276/276 278/278/278 279/279/279
f 280/280/280 281/281/281 282/282/282
f 280/280/280 282/282/282 283/283/283
f 284/284/284 285/285/285 286/286/286
f 284/284/284 286/286/286 287/287/287
f 288/288/288 289/289/289 290/290/290
f 288/288/288 290/290/290 291/291/291
f 292/292/292 293/293/293 294/294/294
f 292/292/292 294/294/294 295/295/295
f 296/296/296 297/297/297 298/298/298
f 296/296/296 298/298/298 299/299/299
f 300/300/300 301/301/301 302/302/302
f 300/300/300 302/302/302 303/303/303
f 304/304/304 305/305/305 306/306/306
f 304/304/304 306/306/306 307/307/307
f 308/308/308 309/309/309 310/310/310
f 308/308/308 310/310/310 311/311/311
f 312/312/312 313/313/313 314/314/314
f 312/312/312 314/314/314 315/315/315
f 316/316/316 317/317/317 318/318/318
f 316/316/316 318/318/318 319/319/319
f 320/320/320 321/321/321 322/322/322
f 320/320/320 322/322/322 323/323/323
f 324/324/324 325/325/325 326/326/326
f 324/324/324 326/326/326 327/327/327
f 328/328/328 329/329/329 330/330/330
f 328/328/328 330/330/330 331/331/331
f 332/332/332 333/333/333 334/334/334
f 332/332/332 334/334/334 335/335/335
