v -0.415498 0.17837 -0.316742
v -0.422399 0.17801 -0.295949
v -0.37989 0.178866 -0.29595
v -0.415498 0.17837 -0.316742
v -0.37989 0.178866 -0.29595
v -0.379891 0.178882 -0.316742
v -0.344291 0.179763 -0.316742
v -0.379891 0.178882 -0.316742
v -0.37989 0.178866 -0.29595
v -0.344291 0.179763 -0.316742
v -0.37989 0.178866 -0.29595
v -0.337381 0.179673 -0.295949
v -0.337381 0.179673 -0.295949
v -0.37989 0.178866 -0.29595
v -0.37977 0.17271 -0.289952
v -0.337381 0.179673 -0.295949
v -0.37977 0.17271 -0.289952
v -0.336969 0.173449 -0.290603
v -0.422399 0.17801 -0.295949
v -0.422567 0.171775 -0.290603
v -0.37977 0.17271 -0.289952
v -0.422399 0.17801 -0.295949
v -0.37977 0.17271 -0.289952
v -0.37989 0.178866 -0.29595
v -0.434227 0.177462 -0.3043
v -0.422399 0.17801 -0.295949
v -0.415498 0.17837 -0.316742
v -0.434227 0.177462 -0.3043
v -0.415498 0.17837 -0.316742
v -0.438437 0.176749 -0.316728
v -0.434227 0.177462 -0.3043
v -0.437582 0.171061 -0.299956
v -0.422567 0.171775 -0.290603
v -0.434227 0.177462 -0.3043
v -0.422567 0.171775 -0.290603
v -0.422399 0.17801 -0.295949
v -0.422567 0.171775 -0.290603
v -0.423177 0.162838 -0.290299
v -0.379602 0.164103 -0.28974
v -0.422567 0.171775 -0.290603
v -0.379602 0.164103 -0.28974
v -0.37977 0.17271 -0.289952
v -0.437582 0.171061 -0.299956
v -0.437413 0.162611 -0.299889
v -0.423177 0.162838 -0.290299
v -0.437582 0.171061 -0.299956
v -0.423177 0.162838 -0.290299
v -0.422567 0.171775 -0.290603
v -0.443608 0.169947 -0.316741
v -0.443444 0.161641 -0.316741
v -0.437413 0.162611 -0.299889
v -0.443608 0.169947 -0.316741
v -0.437413 0.162611 -0.299889
v -0.437582 0.171061 -0.299956
v -0.436359 0.169498 -0.335487
v -0.436343 0.160606 -0.335378
v -0.443444 0.161641 -0.316741
v -0.436359 0.169498 -0.335487
v -0.443444 0.161641 -0.316741
v -0.443608 0.169947 -0.316741
v -0.421871 0.169306 -0.343634
v -0.422335 0.160277 -0.343598
v -0.436343 0.160606 -0.335378
v -0.421871 0.169306 -0.343634
v -0.436343 0.160606 -0.335378
v -0.436359 0.169498 -0.335487
v -0.379715 0.169906 -0.344198
v -0.379537 0.160757 -0.34437
v -0.422335 0.160277 -0.343598
v -0.379715 0.169906 -0.344198
v -0.422335 0.160277 -0.343598
v -0.421871 0.169306 -0.343634
v -0.379715 0.169906 -0.344198
v -0.337569 0.170955 -0.343634
v -0.336751 0.161951 -0.343598
v -0.379715 0.169906 -0.344198
v -0.336751 0.161951 -0.343598
v -0.379537 0.160757 -0.34437
v -0.337569 0.170955 -0.343634
v -0.323099 0.171714 -0.335487
v -0.322767 0.162828 -0.335378
v -0.337569 0.170955 -0.343634
v -0.322767 0.162828 -0.335378
v -0.336751 0.161951 -0.343598
v -0.323099 0.171714 -0.335487
v -0.315873 0.172446 -0.316741
v -0.315712 0.16414 -0.316741
v -0.323099 0.171714 -0.335487
v -0.315712 0.16414 -0.316741
v -0.322767 0.162828 -0.335378
v -0.315873 0.172446 -0.316741
v -0.321938 0.173323 -0.299956
v -0.321776 0.164873 -0.299889
v -0.315873 0.172446 -0.316741
v -0.321776 0.164873 -0.299889
v -0.315712 0.16414 -0.316741
v -0.321938 0.173323 -0.299956
v -0.336969 0.173449 -0.290603
v -0.33601 0.164543 -0.290299
v -0.321938 0.173323 -0.299956
v -0.33601 0.164543 -0.290299
v -0.321776 0.164873 -0.299889
v -0.336969 0.173449 -0.290603
v -0.37977 0.17271 -0.289952
v -0.379602 0.164103 -0.28974
v -0.336969 0.173449 -0.290603
v -0.379602 0.164103 -0.28974
v -0.33601 0.164543 -0.290299
v -0.325541 0.179588 -0.3043
v -0.337381 0.179673 -0.295949
v -0.336969 0.173449 -0.290603
v -0.325541 0.179588 -0.3043
v -0.336969 0.173449 -0.290603
v -0.321938 0.173323 -0.299956
v -0.321307 0.17904 -0.316728
v -0.325541 0.179588 -0.3043
v -0.321938 0.173323 -0.299956
v -0.321307 0.17904 -0.316728
v -0.321938 0.173323 -0.299956
v -0.315873 0.172446 -0.316741
v -0.325541 0.179588 -0.3043
v -0.321307 0.17904 -0.316728
v -0.344291 0.179763 -0.316742
v -0.325541 0.179588 -0.3043
v -0.344291 0.179763 -0.316742
v -0.337381 0.179673 -0.295949
v -0.344291 0.179763 -0.316742
v -0.321307 0.17904 -0.316728
v -0.326812 0.178062 -0.331447
v -0.344291 0.179763 -0.316742
v -0.326812 0.178062 -0.331447
v -0.337402 0.177376 -0.338039
v -0.326812 0.178062 -0.331447
v -0.321307 0.17904 -0.316728
v -0.315873 0.172446 -0.316741
v -0.326812 0.178062 -0.331447
v -0.315873 0.172446 -0.316741
v -0.323099 0.171714 -0.335487
v -0.337402 0.177376 -0.338039
v -0.326812 0.178062 -0.331447
v -0.323099 0.171714 -0.335487
v -0.337402 0.177376 -0.338039
v -0.323099 0.171714 -0.335487
v -0.337569 0.170955 -0.343634
v -0.337402 0.177376 -0.338039
v -0.379833 0.175941 -0.339558
v -0.379891 0.178882 -0.316742
v -0.337402 0.177376 -0.338039
v -0.379891 0.178882 -0.316742
v -0.344291 0.179763 -0.316742
v -0.379833 0.175941 -0.339558
v -0.337402 0.177376 -0.338039
v -0.337569 0.170955 -0.343634
v -0.379833 0.175941 -0.339558
v -0.337569 0.170955 -0.343634
v -0.379715 0.169906 -0.344198
v -0.422288 0.175715 -0.338039
v -0.415498 0.17837 -0.316742
v -0.379891 0.178882 -0.316742
v -0.422288 0.175715 -0.338039
v -0.379891 0.178882 -0.316742
v -0.379833 0.175941 -0.339558
v -0.379833 0.175941 -0.339558
v -0.379715 0.169906 -0.344198
v -0.421871 0.169306 -0.343634
v -0.379833 0.175941 -0.339558
v -0.421871 0.169306 -0.343634
v -0.422288 0.175715 -0.338039
v -0.415498 0.17837 -0.316742
v -0.422288 0.175715 -0.338039
v -0.432898 0.175987 -0.331447
v -0.415498 0.17837 -0.316742
v -0.432898 0.175987 -0.331447
v -0.438437 0.176749 -0.316728
v -0.422288 0.175715 -0.338039
v -0.421871 0.169306 -0.343634
v -0.436359 0.169498 -0.335487
v -0.422288 0.175715 -0.338039
v -0.436359 0.169498 -0.335487
v -0.432898 0.175987 -0.331447
v -0.432898 0.175987 -0.331447
v -0.436359 0.169498 -0.335487
v -0.443608 0.169947 -0.316741
v -0.432898 0.175987 -0.331447
v -0.443608 0.169947 -0.316741
v -0.438437 0.176749 -0.316728
v -0.438437 0.176749 -0.316728
v -0.443608 0.169947 -0.316741
v -0.437582 0.171061 -0.299956
v -0.438437 0.176749 -0.316728
v -0.437582 0.171061 -0.299956
v -0.434227 0.177462 -0.3043
vn -0.023 0.9979 -0.0599
vn -0.0808 0.9541 0.2885
vn -0.019 0.9687 0.2475
vn -0.023 0.9979 -0.0599
vn -0.019 0.9687 0.2475
vn -0.0195 0.9979 -0.0613
vn -0.0161 0.9981 -0.0599
vn -0.0195 0.9979 -0.0613
vn -0.019 0.9687 0.2475
vn -0.0161 0.9981 -0.0599
vn -0.019 0.9687 0.2475
vn 0.0435 0.9565 0.2884
vn 0.0435 0.9565 0.2885
vn -0.019 0.9687 0.2475
vn -0.0072 0.3659 0.9306
vn 0.0435 0.9565 0.2885
vn -0.0072 0.3659 0.9306
vn 0.1378 0.3541 0.925
vn -0.0808 0.9541 0.2885
vn -0.1515 0.3485 0.925
vn -0.0072 0.3659 0.9306
vn -0.0808 0.9541 0.2885
vn -0.0072 0.3659 0.9306
vn -0.019 0.9687 0.2475
vn -0.3028 0.938 0.1686
vn -0.0808 0.9541 0.2885
vn -0.023 0.9979 -0.0599
vn -0.3028 0.938 0.1686
vn -0.023 0.9979 -0.0599
vn -0.3758 0.9248 -0.0586
vn -0.3027 0.938 0.1686
vn -0.7507 0.2901 0.5935
vn -0.1515 0.3485 0.925
vn -0.3027 0.938 0.1686
vn -0.1515 0.3485 0.925
vn -0.0808 0.9541 0.2885
vn -0.1515 0.3484 0.925
vn -0.1826 0.0314 0.9827
vn -0.0006 0.03 0.9995
vn -0.1515 0.3484 0.925
vn -0.0006 0.03 0.9995
vn -0.0072 0.3659 0.9306
vn -0.7507 0.2901 0.5935
vn -0.544 0.0317 0.8385
vn -0.1826 0.0314 0.9827
vn -0.7507 0.2901 0.5935
vn -0.1826 0.0314 0.9827
vn -0.1515 0.3485 0.925
vn -0.9641 0.2619 -0.0447
vn -0.9409 -0.0172 0.3383
vn -0.9409 -0.0173 0.3383
vn -0.9641 0.2619 -0.0447
vn -0.9409 -0.0173 0.3383
vn -0.7507 0.2901 0.5935
vn -0.7437 0.2703 -0.6115
vn -0.9337 -0.012 -0.3579
vn -0.9337 -0.012 -0.3579
vn -0.7437 0.2703 -0.6115
vn -0.9337 -0.012 -0.3579
vn -0.9641 0.2619 -0.0447
vn -0.1338 0.3077 -0.942
vn -0.1589 0.0072 -0.9873
vn -0.498 0.0054 -0.8672
vn -0.1338 0.3077 -0.942
vn -0.498 0.0054 -0.8672
vn -0.7436 0.2703 -0.6115
vn -0.0062 0.3182 -0.948
vn -0.0002 0.008 -1
vn -0.1588 0.0072 -0.9873
vn -0.0062 0.3182 -0.948
vn -0.1588 0.0072 -0.9873
vn -0.1338 0.3077 -0.942
vn -0.0062 0.3182 -0.948
vn 0.1216 0.3127 -0.9421
vn 0.1583 0.0145 -0.9873
vn -0.0062 0.3182 -0.948
vn 0.1583 0.0145 -0.9873
vn -0.0002 0.008 -1
vn 0.1216 0.3127 -0.942
vn 0.7325 0.2992 -0.6115
vn 0.4974 0.0249 -0.8672
vn 0.1216 0.3127 -0.942
vn 0.4974 0.0249 -0.8672
vn 0.1583 0.0145 -0.9873
vn 0.7325 0.2992 -0.6115
vn 0.9531 0.2993 -0.0447
vn 0.9334 0.0245 -0.3579
vn 0.7325 0.2992 -0.6115
vn 0.9334 0.0245 -0.3579
vn 0.9334 0.0245 -0.3579
vn 0.9531 0.2994 -0.0447
vn 0.7388 0.3193 0.5935
vn 0.9408 0.0196 0.3384
vn 0.9531 0.2994 -0.0447
vn 0.9408 0.0196 0.3384
vn 0.9408 0.0195 0.3383
vn 0.7388 0.3193 0.5935
vn 0.1378 0.3541 0.925
vn 0.1812 0.0385 0.9827
vn 0.7388 0.3193 0.5935
vn 0.1812 0.0385 0.9827
vn 0.5424 0.053 0.8385
vn 0.1378 0.354 0.925
vn -0.0072 0.3659 0.9306
vn -0.0006 0.03 0.9995
vn 0.1378 0.354 0.925
vn -0.0006 0.03 0.9995
vn 0.1812 0.0385 0.9827
vn 0.2659 0.9491 0.1686
vn 0.0435 0.9565 0.2885
vn 0.1378 0.3541 0.925
vn 0.2659 0.9491 0.1686
vn 0.1378 0.3541 0.925
vn 0.7388 0.3193 0.5935
vn 0.3395 0.9388 -0.0586
vn 0.2659 0.9491 0.1686
vn 0.7388 0.3193 0.5935
vn 0.3395 0.9388 -0.0586
vn 0.7388 0.3193 0.5935
vn 0.9531 0.2994 -0.0447
vn 0.2659 0.9492 0.1686
vn 0.3395 0.9388 -0.0586
vn -0.0161 0.9981 -0.0599
vn 0.2659 0.9492 0.1686
vn -0.0161 0.9981 -0.0599
vn 0.0435 0.9565 0.2885
vn -0.0161 0.9981 -0.0599
vn 0.3394 0.9388 -0.0586
vn 0.2581 0.931 -0.258
vn -0.0161 0.9981 -0.0599
vn 0.2581 0.931 -0.258
vn 0.0302 0.9379 -0.3455
vn 0.2581 0.931 -0.258
vn 0.3395 0.9388 -0.0586
vn 0.9531 0.2994 -0.0447
vn 0.2581 0.931 -0.258
vn 0.9531 0.2994 -0.0447
vn 0.7325 0.2992 -0.6115
vn 0.0302 0.9379 -0.3455
vn 0.2581 0.931 -0.258
vn 0.7325 0.2992 -0.6115
vn 0.0302 0.9379 -0.3455
vn 0.7325 0.2992 -0.6115
vn 0.1217 0.3127 -0.942
vn 0.0302 0.9379 -0.3455
vn -0.0185 0.9431 -0.3319
vn -0.0195 0.9979 -0.0613
vn 0.0302 0.9379 -0.3455
vn -0.0195 0.9979 -0.0613
vn -0.0161 0.9981 -0.0599
vn -0.0185 0.9431 -0.332
vn 0.0302 0.9379 -0.3455
vn 0.1216 0.3127 -0.942
vn -0.0185 0.9431 -0.332
vn 0.1216 0.3127 -0.942
vn -0.0062 0.3183 -0.948
vn -0.0668 0.9361 -0.3455
vn -0.023 0.9979 -0.0599
vn -0.0195 0.9979 -0.0613
vn -0.0668 0.9361 -0.3455
vn -0.0195 0.9979 -0.0613
vn -0.0185 0.9431 -0.3319
vn -0.0185 0.9431 -0.332
vn -0.0062 0.3182 -0.948
vn -0.1338 0.3077 -0.942
vn -0.0185 0.9431 -0.332
vn -0.1338 0.3077 -0.942
vn -0.0668 0.936 -0.3455
vn -0.023 0.9979 -0.0599
vn -0.0668 0.936 -0.3455
vn -0.2943 0.9202 -0.258
vn -0.023 0.9979 -0.0599
vn -0.2943 0.9202 -0.258
vn -0.3759 0.9248 -0.0586
vn -0.0668 0.936 -0.3455
vn -0.1338 0.3077 -0.942
vn -0.7437 0.2703 -0.6115
vn -0.0668 0.936 -0.3455
vn -0.7437 0.2703 -0.6115
vn -0.2944 0.9202 -0.258
vn -0.2944 0.9202 -0.258
vn -0.7437 0.2703 -0.6114
vn -0.9641 0.2619 -0.0447
vn -0.2944 0.9202 -0.258
vn -0.9641 0.2619 -0.0447
vn -0.3759 0.9248 -0.0586
vn -0.3759 0.9248 -0.0586
vn -0.9641 0.2619 -0.0446
vn -0.7507 0.2901 0.5935
vn -0.3759 0.9248 -0.0586
vn -0.7507 0.2901 0.5935
vn -0.3028 0.938 0.1686
vt 0 0.526712
vt 0 1
vt 1 1
vt 0 0.526712
vt 1 1
vt 1 0.526712
vt 0 0.526712
vt 1 0.526712
vt 1 1
vt 0 0.526712
vt 1 1
vt 0 1
vt 0 0
vt 1 0
vt 1 0.481997
vt 0 0
vt 1 0.481997
vt 0 0.481997
vt 0 0
vt 0 0.481997
vt 1 0.481997
vt 0 0
vt 1 0.481997
vt 1 0
vt 0 0
vt 0 1
vt 0.473288 1
vt 0 0
vt 0.473288 1
vt 0.473288 0
vt 0 0
vt 0 0.481997
vt 1 0.481997
vt 0 0
vt 1 0.481997
vt 1 0
vt 0 0
vt 0 1
vt 1 1
vt 0 0
vt 1 1
vt 1 0
vt 0 0
vt 0 1
vt 1 1
vt 0 0
vt 1 1
vt 1 0
vt 0 0
vt 0 1
vt 1 1
vt 0 0
vt 1 1
vt 1 0
vt 0 0
vt 0 1
vt 1 1
vt 0 0
vt 1 1
vt 1 0
vt 0 0
vt 0 1
vt 1 1
vt 0 0
vt 1 1
vt 1 0
vt 0 0
vt 0 1
vt 1 1
vt 0 0
vt 1 1
vt 1 0
vt 0 0
vt 1 0
vt 1 1
vt 0 0
vt 1 1
vt 0 1
vt 0 0
vt 1 0
vt 1 1
vt 0 0
vt 1 1
vt 0 1
vt 0 0
vt 1 0
vt 1 1
vt 0 0
vt 1 1
vt 0 1
vt 0 0
vt 1 0
vt 1 1
vt 0 0
vt 1 1
vt 0 1
vt 0 0
vt 1 0
vt 1 1
vt 0 0
vt 1 1
vt 0 1
vt 0 0
vt 1 0
vt 1 1
vt 0 0
vt 1 1
vt 0 1
vt 0 0
vt 1 0
vt 1 0.481997
vt 0 0
vt 1 0.481997
vt 0 0.481997
vt 0 0
vt 1 0
vt 1 0.481997
vt 0 0
vt 1 0.481997
vt 0 0.481997
vt 0 0
vt 0.473288 0
vt 0.473288 1
vt 0 0
vt 0.473288 1
vt 0 1
vt 0.473288 1
vt 0.473288 0
vt 1 0
vt 0.473288 1
vt 1 0
vt 1 1
vt 0 0
vt 1 0
vt 1 0.481997
vt 0 0
vt 1 0.481997
vt 0 0.481997
vt 0 0
vt 1 0
vt 1 0.481997
vt 0 0
vt 1 0.481997
vt 0 0.481997
vt 0 0
vt 1 0
vt 1 0.526712
vt 0 0
vt 1 0.526712
vt 0 0.526712
vt 0 0
vt 1 0
vt 1 0.481997
vt 0 0
vt 1 0.481997
vt 0 0.481997
vt 0 0
vt 0 0.526712
vt 1 0.526712
vt 0 0
vt 1 0.526712
vt 1 0
vt 0 0
vt 0 0.481997
vt 1 0.481997
vt 0 0
vt 1 0.481997
vt 1 0
vt 0.473288 1
vt 1 1
vt 1 0
vt 0.473288 1
vt 1 0
vt 0.473288 0
vt 0 0
vt 0 0.481997
vt 1 0.481997
vt 0 0
vt 1 0.481997
vt 1 0
vt 0 0
vt 0 0.481997
vt 1 0.481997
vt 0 0
vt 1 0.481997
vt 1 0
vt 0 0
vt 0 0.481997
vt 1 0.481997
vt 0 0
vt 1 0.481997
vt 1 0
s off
f 1/1/1 2/2/2 3/3/3
f 4/4/4 5/5/5 6/6/6
f 7/7/7 8/8/8 9/9/9
f 10/10/10 11/11/11 12/12/12
f 13/13/13 14/14/14 15/15/15
f 16/16/16 17/17/17 18/18/18
f 19/19/19 20/20/20 21/21/21
f 22/22/22 23/23/23 24/24/24
f 25/25/25 26/26/26 27/27/27
f 28/28/28 29/29/29 30/30/30
f 31/31/31 32/32/32 33/33/33
f 34/34/34 35/35/35 36/36/36
f 37/37/37 38/38/38 39/39/39
f 40/40/40 41/41/41 42/42/42
f 43/43/43 44/44/44 45/45/45
f 46/46/46 47/47/47 48/48/48
f 49/49/49 50/50/50 51/51/51
f 52/52/52 53/53/53 54/54/54
f 55/55/55 56/56/56 57/57/57
f 58/58/58 59/59/59 60/60/60
f 61/61/61 62/62/62 63/63/63
f 64/64/64 65/65/65 66/66/66
f 67/67/67 68/68/68 69/69/69
f 70/70/70 71/71/71 72/72/72
f 73/73/73 74/74/74 75/75/75
f 76/76/76 77/77/77 78/78/78
f 79/79/79 80/80/80 81/81/81
f 82/82/82 83/83/83 84/84/84
f 85/85/85 86/86/86 87/87/87
f 88/88/88 89/89/89 90/90/90
f 91/91/91 92/92/92 93/93/93
f 94/94/94 95/95/95 96/96/96
f 97/97/97 98/98/98 99/99/99
f 100/100/100 101/101/101 102/102/102
f 103/103/103 104/104/104 105/105/105
f 106/106/106 107/107/107 108/108/108
f 109/109/109 110/110/110 111/111/111
f 112/112/112 113/113/113 114/114/114
f 115/115/115 116/116/116 117/117/117
f 118/118/118 119/119/119 120/120/120
f 121/121/121 122/122/122 123/123/123
f 124/124/124 125/125/125 126/126/126
f 127/127/127 128/128/128 129/129/129
f 130/130/130 131/131/131 132/132/132
f 133/133/133 134/134/134 135/135/135
f 136/136/136 137/137/137 138/138/138
f 139/139/139 140/140/140 141/141/141
f 142/142/142 143/143/143 144/144/144
f 145/145/145 146/146/146 147/147/147
f 148/148/148 149/149/149 150/150/150
f 151/151/151 152/152/152 153/153/153
f 154/154/154 155/155/155 156/156/156
f 157/157/157 158/158/158 159/159/159
f 160/160/160 161/161/161 162/162/162
f 163/163/163 164/164/164 165/165/165
f 166/166/166 167/167/167 168/168/168
f 169/169/169 170/170/170 171/171/171
f 172/172/172 173/173/173 174/174/174
f 175/175/175 176/176/176 177/177/177
f 178/178/178 179/179/179 180/180/180
f 181/181/181 182/182/182 183/183/183
f 184/184/184 185/185/185 186/186/186
f 187/187/187 188/188/188 189/189/189
f 190/190/190 191/191/191 192/192/192
