v 0.609935 -0.455876 0.47808
v 0.61395 -0.460232 0.444311
v 0.63434 -0.488653 0.462096
v 0.622801 -0.476154 0.482981
v 0.609935 -0.455876 0.47808
v 0.59503 -0.428199 0.476731
v 0.593907 -0.426112 0.439612
v 0.61395 -0.460232 0.444311
v 0.609935 -0.455876 0.47808
v 0.610194 -0.457554 0.507608
v 0.596057 -0.430035 0.508167
v 0.59503 -0.428199 0.476731
v 0.609935 -0.455876 0.47808
v 0.622801 -0.476154 0.482981
v 0.626581 -0.483417 0.505959
v 0.610194 -0.457554 0.507608
v 0.610194 -0.457554 0.507608
v 0.626581 -0.483417 0.505959
v 0.6275 -0.487158 0.536652
v 0.611565 -0.45861 0.537762
v 0.596057 -0.430035 0.508167
v 0.610194 -0.457554 0.507608
v 0.611565 -0.45861 0.537762
v 0.596907 -0.431461 0.538473
v 0.596907 -0.431461 0.538473
v 0.611565 -0.45861 0.537762
v 0.6108 -0.460331 0.56736
v 0.597691 -0.432608 0.568543
v 0.611565 -0.45861 0.537762
v 0.6275 -0.487158 0.536652
v 0.625552 -0.486125 0.567113
v 0.6108 -0.460331 0.56736
v 0.6108 -0.460331 0.56736
v 0.611452 -0.461911 0.596204
v 0.598478 -0.433429 0.600265
v 0.597691 -0.432608 0.568543
v 0.6108 -0.460331 0.56736
v 0.625552 -0.486125 0.567113
v 0.622565 -0.482237 0.589332
v 0.611452 -0.461911 0.596204
v 0.615863 -0.470354 0.628485
v 0.599796 -0.434602 0.638568
v 0.598478 -0.433429 0.600265
v 0.611452 -0.461911 0.596204
v 0.615863 -0.470354 0.628485
v 0.611452 -0.461911 0.596204
v 0.622565 -0.482237 0.589332
v 0.632698 -0.498358 0.605464
v 0.615863 -0.470354 0.628485
v 0.622632 -0.470763 0.637593
v 0.604816 -0.432327 0.648423
v 0.599796 -0.434602 0.638568
v 0.615863 -0.470354 0.628485
v 0.632698 -0.498358 0.605464
v 0.642066 -0.49979 0.612228
v 0.622632 -0.470763 0.637593
v 0.642066 -0.49979 0.612228
v 0.655959 -0.491685 0.615006
v 0.638134 -0.46256 0.64003
v 0.622632 -0.470763 0.637593
v 0.622632 -0.470763 0.637593
v 0.638134 -0.46256 0.64003
v 0.621214 -0.424463 0.650591
v 0.604816 -0.432327 0.648423
v 0.657562 -0.515775 0.577607
v 0.671748 -0.50843 0.580564
v 0.655959 -0.491685 0.615006
v 0.642066 -0.49979 0.612228
v 0.666574 -0.519433 0.534785
v 0.682729 -0.512786 0.533569
v 0.671748 -0.50843 0.580564
v 0.657562 -0.515775 0.577607
v 0.663703 -0.510289 0.492016
v 0.679152 -0.502911 0.488385
v 0.682729 -0.512786 0.533569
v 0.666574 -0.519433 0.534785
v 0.644655 -0.489872 0.455512
v 0.661774 -0.482248 0.452853
v 0.679152 -0.502911 0.488385
v 0.663703 -0.510289 0.492016
v 0.621736 -0.460328 0.434108
v 0.637843 -0.452311 0.430637
v 0.661774 -0.482248 0.452853
v 0.644655 -0.489872 0.455512
v 0.598349 -0.422713 0.42809
v 0.613771 -0.413675 0.424264
v 0.637843 -0.452311 0.430637
v 0.621736 -0.460328 0.434108
v 0.580457 -0.382363 0.438522
v 0.595055 -0.375132 0.435411
v 0.613771 -0.413675 0.424264
v 0.598349 -0.422713 0.42809
v 0.567719 -0.352303 0.463059
v 0.581205 -0.342195 0.46249
v 0.595055 -0.375132 0.435411
v 0.580457 -0.382363 0.438522
v 0.576184 -0.389123 0.449701
v 0.580457 -0.382363 0.438522
v 0.598349 -0.422713 0.42809
v 0.593907 -0.426112 0.439612
v 0.576184 -0.389123 0.449701
v 0.56532 -0.36278 0.468944
v 0.567719 -0.352303 0.463059
v 0.580457 -0.382363 0.438522
v 0.56532 -0.36278 0.468944
v 0.558986 -0.344966 0.50128
v 0.55929 -0.333366 0.497845
v 0.567719 -0.352303 0.463059
v 0.55929 -0.333366 0.497845
v 0.5741 -0.322635 0.496742
v 0.581205 -0.342195 0.46249
v 0.567719 -0.352303 0.463059
v 0.558986 -0.344966 0.50128
v 0.557882 -0.336802 0.537548
v 0.558596 -0.324942 0.538472
v 0.55929 -0.333366 0.497845
v 0.558596 -0.324942 0.538472
v 0.57362 -0.314626 0.538997
v 0.5741 -0.322635 0.496742
v 0.55929 -0.333366 0.497845
v 0.564823 -0.328939 0.577153
v 0.579618 -0.320031 0.577278
v 0.57362 -0.314626 0.538997
v 0.558596 -0.324942 0.538472
v 0.577441 -0.35145 0.617565
v 0.592991 -0.345681 0.62004
v 0.579618 -0.320031 0.577278
v 0.564823 -0.328939 0.577153
v 0.589326 -0.390574 0.641935
v 0.606516 -0.383889 0.644397
v 0.592991 -0.345681 0.62004
v 0.577441 -0.35145 0.617565
v 0.604816 -0.432327 0.648423
v 0.621214 -0.424463 0.650591
v 0.606516 -0.383889 0.644397
v 0.589326 -0.390574 0.641935
v 0.585135 -0.395673 0.631908
v 0.589326 -0.390574 0.641935
v 0.577441 -0.35145 0.617565
v 0.572191 -0.359105 0.610492
v 0.585135 -0.395673 0.631908
v 0.599796 -0.434602 0.638568
v 0.604816 -0.432327 0.648423
v 0.589326 -0.390574 0.641935
v 0.585135 -0.395673 0.631908
v 0.586556 -0.403426 0.598025
v 0.598478 -0.433429 0.600265
v 0.599796 -0.434602 0.638568
v 0.585135 -0.395673 0.631908
v 0.572191 -0.359105 0.610492
v 0.577745 -0.3798 0.591956
v 0.586556 -0.403426 0.598025
v 0.585635 -0.40345 0.568301
v 0.586556 -0.403426 0.598025
v 0.577745 -0.3798 0.591956
v 0.574617 -0.374437 0.567945
v 0.585635 -0.40345 0.568301
v 0.597691 -0.432608 0.568543
v 0.598478 -0.433429 0.600265
v 0.586556 -0.403426 0.598025
v 0.574617 -0.374437 0.567945
v 0.577745 -0.3798 0.591956
v 0.572191 -0.359105 0.610492
v 0.562598 -0.341192 0.573408
v 0.584449 -0.402527 0.538696
v 0.585635 -0.40345 0.568301
v 0.574617 -0.374437 0.567945
v 0.572355 -0.372238 0.538311
v 0.557882 -0.336802 0.537548
v 0.572355 -0.372238 0.538311
v 0.574617 -0.374437 0.567945
v 0.562598 -0.341192 0.573408
v 0.557882 -0.336802 0.537548
v 0.562598 -0.341192 0.573408
v 0.564823 -0.328939 0.577153
v 0.558596 -0.324942 0.538472
v 0.562598 -0.341192 0.573408
v 0.572191 -0.359105 0.610492
v 0.577441 -0.35145 0.617565
v 0.564823 -0.328939 0.577153
v 0.558986 -0.344966 0.50128
v 0.572078 -0.374784 0.509115
v 0.572355 -0.372238 0.538311
v 0.557882 -0.336802 0.537548
v 0.583486 -0.402 0.509394
v 0.584449 -0.402527 0.538696
v 0.572355 -0.372238 0.538311
v 0.572078 -0.374784 0.509115
v 0.581872 -0.399895 0.48087
v 0.583486 -0.402 0.509394
v 0.572078 -0.374784 0.509115
v 0.573264 -0.379666 0.487083
v 0.56532 -0.36278 0.468944
v 0.573264 -0.379666 0.487083
v 0.572078 -0.374784 0.509115
v 0.558986 -0.344966 0.50128
v 0.576184 -0.389123 0.449701
v 0.581872 -0.399895 0.48087
v 0.573264 -0.379666 0.487083
v 0.56532 -0.36278 0.468944
v 0.59503 -0.428199 0.476731
v 0.581872 -0.399895 0.48087
v 0.576184 -0.389123 0.449701
v 0.593907 -0.426112 0.439612
v 0.59503 -0.428199 0.476731
v 0.596057 -0.430035 0.508167
v 0.583486 -0.402 0.509394
v 0.581872 -0.399895 0.48087
v 0.583486 -0.402 0.509394
v 0.596057 -0.430035 0.508167
v 0.596907 -0.431461 0.538473
v 0.584449 -0.402527 0.538696
v 0.596907 -0.431461 0.538473
v 0.597691 -0.432608 0.568543
v 0.585635 -0.40345 0.568301
v 0.584449 -0.402527 0.538696
v 0.61395 -0.460232 0.444311
v 0.593907 -0.426112 0.439612
v 0.598349 -0.422713 0.42809
v 0.621736 -0.460328 0.434108
v 0.63434 -0.488653 0.462096
v 0.61395 -0.460232 0.444311
v 0.621736 -0.460328 0.434108
v 0.644655 -0.489872 0.455512
v 0.63434 -0.488653 0.462096
v 0.644655 -0.489872 0.455512
v 0.663703 -0.510289 0.492016
v 0.652059 -0.511234 0.496238
v 0.63434 -0.488653 0.462096
v 0.652059 -0.511234 0.496238
v 0.626581 -0.483417 0.505959
v 0.622801 -0.476154 0.482981
v 0.653671 -0.518358 0.53575
v 0.652059 -0.511234 0.496238
v 0.663703 -0.510289 0.492016
v 0.666574 -0.519433 0.534785
v 0.653671 -0.518358 0.53575
v 0.6275 -0.487158 0.536652
v 0.626581 -0.483417 0.505959
v 0.652059 -0.511234 0.496238
v 0.653671 -0.518358 0.53575
v 0.646747 -0.514472 0.573649
v 0.625552 -0.486125 0.567113
v 0.6275 -0.487158 0.536652
v 0.653671 -0.518358 0.53575
v 0.666574 -0.519433 0.534785
v 0.657562 -0.515775 0.577607
v 0.646747 -0.514472 0.573649
v 0.632698 -0.498358 0.605464
v 0.646747 -0.514472 0.573649
v 0.657562 -0.515775 0.577607
v 0.642066 -0.49979 0.612228
v 0.632698 -0.498358 0.605464
v 0.622565 -0.482237 0.589332
v 0.625552 -0.486125 0.567113
v 0.646747 -0.514472 0.573649
vn -0.857 -0.5147 -0.0258
vn -0.7934 -0.5736 -0.2035
vn -0.6503 -0.7252 -0.2264
vn -0.8 -0.5982 -0.0471
vn -0.857 -0.5147 -0.0258
vn -0.8912 -0.4536 -0.0022
vn -0.8776 -0.4481 -0.1703
vn -0.7934 -0.5736 -0.2035
vn -0.857 -0.5147 -0.0258
vn -0.8703 -0.4925 -0.006
vn -0.8989 -0.438 0.008
vn -0.8912 -0.4536 -0.0022
vn -0.857 -0.5147 -0.0258
vn -0.8 -0.5982 -0.0471
vn -0.7959 -0.6037 -0.0469
vn -0.8703 -0.4925 -0.006
vn -0.8703 -0.4925 -0.006
vn -0.7959 -0.6037 -0.0469
vn -0.808 -0.587 -0.0502
vn -0.8771 -0.4801 -0.0153
vn -0.8989 -0.438 0.008
vn -0.8703 -0.4925 -0.006
vn -0.8771 -0.4801 -0.0153
vn -0.904 -0.4275 0.006
vn -0.904 -0.4275 0.006
vn -0.8771 -0.4801 -0.0153
vn -0.8873 -0.4607 -0.02
vn -0.9126 -0.4088 0.0055
vn -0.8771 -0.4801 -0.0153
vn -0.808 -0.587 -0.0502
vn -0.8251 -0.5633 -0.0433
vn -0.8873 -0.4607 -0.02
vn -0.8873 -0.4607 -0.02
vn -0.894 -0.448 0.006
vn -0.9206 -0.3899 0.02
vn -0.9126 -0.4088 0.0055
vn -0.8873 -0.4607 -0.02
vn -0.8251 -0.5633 -0.0433
vn -0.8481 -0.5296 -0.0163
vn -0.894 -0.448 0.006
vn -0.8351 -0.5204 0.1781
vn -0.9049 -0.3865 0.1781
vn -0.9206 -0.3899 0.02
vn -0.894 -0.448 0.006
vn -0.8351 -0.5204 0.1781
vn -0.894 -0.448 0.006
vn -0.8481 -0.5296 -0.0163
vn -0.709 -0.6899 0.1463
vn -0.8351 -0.5204 0.1781
vn -0.2007 -0.5421 0.816
vn -0.3821 -0.2076 0.9005
vn -0.9049 -0.3865 0.1781
vn -0.8351 -0.5204 0.1781
vn -0.709 -0.6899 0.1463
vn -0.0022 -0.796 0.6053
vn -0.2007 -0.5421 0.816
vn -0.0022 -0.796 0.6053
vn 0.252 -0.6872 0.6814
vn 0.0826 -0.42 0.9037
vn -0.2007 -0.5421 0.816
vn -0.2007 -0.5421 0.816
vn 0.0826 -0.42 0.9037
vn -0.0956 -0.0809 0.9921
vn -0.3821 -0.2076 0.9005
vn 0.1663 -0.941 0.2948
vn 0.3748 -0.8619 0.3415
vn 0.252 -0.6872 0.6814
vn -0.0022 -0.796 0.6053
vn 0.2296 -0.9727 -0.0346
vn 0.3911 -0.919 -0.0494
vn 0.3748 -0.8619 0.3415
vn 0.1663 -0.941 0.2948
vn 0.1567 -0.9112 -0.381
vn 0.3074 -0.8517 -0.4245
vn 0.3911 -0.919 -0.0494
vn 0.2296 -0.9727 -0.0346
vn -0.0215 -0.7541 -0.6564
vn 0.183 -0.6815 -0.7086
vn 0.3074 -0.8517 -0.4245
vn 0.1567 -0.9112 -0.381
vn -0.2503 -0.5034 -0.827
vn 0.0007 -0.3931 -0.9195
vn 0.183 -0.6815 -0.7086
vn -0.0215 -0.7541 -0.6564
vn -0.4742 -0.2055 -0.8561
vn -0.1978 -0.053 -0.9788
vn 0.0007 -0.3931 -0.9195
vn -0.2503 -0.5034 -0.827
vn -0.6071 0.1282 -0.7842
vn -0.3448 0.2928 -0.8918
vn -0.1978 -0.053 -0.9788
vn -0.4742 -0.2055 -0.8561
vn -0.7058 0.3957 -0.5876
vn -0.4795 0.5998 -0.6405
vn -0.3448 0.2928 -0.8918
vn -0.6071 0.1282 -0.7842
vn -0.928 -0.3373 -0.1585
vn -0.6071 0.1282 -0.7842
vn -0.4742 -0.2055 -0.8561
vn -0.8776 -0.4481 -0.1703
vn -0.928 -0.3373 -0.1585
vn -0.9612 -0.2461 -0.1247
vn -0.7058 0.3957 -0.5876
vn -0.6071 0.1282 -0.7842
vn -0.9612 -0.2461 -0.1247
vn -0.9691 -0.2459 -0.0181
vn -0.7914 0.54 -0.2866
vn -0.7058 0.3957 -0.5876
vn -0.7914 0.54 -0.2866
vn -0.562 0.7606 -0.325
vn -0.4795 0.5998 -0.6405
vn -0.7058 0.3957 -0.5876
vn -0.9691 -0.2459 -0.0181
vn -0.9702 -0.2355 0.0575
vn -0.7955 0.6056 0.0194
vn -0.7914 0.54 -0.2866
vn -0.7955 0.6056 0.0194
vn -0.5616 0.8274 0.0118
vn -0.562 0.7606 -0.325
vn -0.7914 0.54 -0.2866
vn -0.7074 0.6003 0.3731
vn -0.4705 0.7891 0.3949
vn -0.5616 0.8274 0.0118
vn -0.7955 0.6056 0.0194
vn -0.5942 0.4612 0.6589
vn -0.3519 0.5867 0.7293
vn -0.4705 0.7891 0.3949
vn -0.7074 0.6003 0.3731
vn -0.5141 0.1438 0.8456
vn -0.2387 0.2683 0.9333
vn -0.3519 0.5867 0.7293
vn -0.5942 0.4612 0.6589
vn -0.3821 -0.2076 0.9005
vn -0.0956 -0.0809 0.9921
vn -0.2387 0.2683 0.9333
vn -0.5141 0.1438 0.8456
vn -0.9421 -0.2711 0.1974
vn -0.5141 0.1438 0.8456
vn -0.5942 0.4612 0.6589
vn -0.9634 -0.1596 0.2152
vn -0.9421 -0.2711 0.1974
vn -0.9049 -0.3865 0.1781
vn -0.3821 -0.2076 0.9005
vn -0.5141 0.1438 0.8456
vn -0.9421 -0.2711 0.1974
vn -0.936 -0.3504 0.0337
vn -0.9206 -0.3899 0.02
vn -0.9049 -0.3865 0.1781
vn -0.9421 -0.2711 0.1974
vn -0.9634 -0.1596 0.2152
vn -0.9414 -0.3332 0.0517
vn -0.936 -0.3504 0.0337
vn -0.9286 -0.37 0.0266
vn -0.936 -0.3504 0.0337
vn -0.9414 -0.3332 0.0517
vn -0.934 -0.3533 0.0528
vn -0.9286 -0.37 0.0266
vn -0.9126 -0.4088 0.0055
vn -0.9206 -0.3899 0.02
vn -0.936 -0.3504 0.0337
vn -0.934 -0.3533 0.0528
vn -0.9414 -0.3332 0.0517
vn -0.9634 -0.1596 0.2152
vn -0.9722 -0.1905 0.136
vn -0.9235 -0.3828 0.0249
vn -0.9286 -0.37 0.0266
vn -0.934 -0.3533 0.0528
vn -0.9272 -0.3716 0.0475
vn -0.9702 -0.2355 0.0575
vn -0.9272 -0.3716 0.0475
vn -0.934 -0.3533 0.0528
vn -0.9722 -0.1905 0.136
vn -0.9702 -0.2355 0.0575
vn -0.9722 -0.1905 0.136
vn -0.7074 0.6003 0.3731
vn -0.7955 0.6056 0.0194
vn -0.9722 -0.1905 0.136
vn -0.9634 -0.1596 0.2152
vn -0.5942 0.4612 0.6589
vn -0.7074 0.6003 0.3731
vn -0.9691 -0.2459 -0.0181
vn -0.9219 -0.3854 0.0396
vn -0.9272 -0.3716 0.0475
vn -0.9702 -0.2355 0.0575
vn -0.9171 -0.398 0.0214
vn -0.9235 -0.3828 0.0249
vn -0.9272 -0.3716 0.0475
vn -0.9219 -0.3854 0.0396
vn -0.91 -0.4142 0.0173
vn -0.9171 -0.398 0.0214
vn -0.9219 -0.3854 0.0396
vn -0.9182 -0.3949 0.0322
vn -0.9612 -0.2461 -0.1247
vn -0.9182 -0.3949 0.0322
vn -0.9219 -0.3854 0.0396
vn -0.9691 -0.2459 -0.0181
vn -0.928 -0.3373 -0.1585
vn -0.91 -0.4142 0.0173
vn -0.9182 -0.3949 0.0322
vn -0.9612 -0.2461 -0.1247
vn -0.8912 -0.4536 -0.0022
vn -0.91 -0.4142 0.0173
vn -0.928 -0.3373 -0.1585
vn -0.8776 -0.4481 -0.1703
vn -0.8912 -0.4536 -0.0022
vn -0.8989 -0.438 0.008
vn -0.9171 -0.398 0.0214
vn -0.91 -0.4142 0.0173
vn -0.9171 -0.398 0.0214
vn -0.8989 -0.438 0.008
vn -0.904 -0.4275 0.006
vn -0.9235 -0.3828 0.0249
vn -0.904 -0.4275 0.006
vn -0.9126 -0.4088 0.0055
vn -0.9286 -0.37 0.0266
vn -0.9235 -0.3828 0.0249
vn -0.7934 -0.5736 -0.2035
vn -0.8776 -0.4481 -0.1703
vn -0.4742 -0.2055 -0.8561
vn -0.2503 -0.5034 -0.827
vn -0.6503 -0.7252 -0.2264
vn -0.7934 -0.5736 -0.2035
vn -0.2503 -0.5034 -0.827
vn -0.0215 -0.7541 -0.6564
vn -0.6503 -0.7252 -0.2264
vn -0.0215 -0.7541 -0.6564
vn 0.1567 -0.9112 -0.381
vn -0.5651 -0.8085 -0.1643
vn -0.6503 -0.7252 -0.2264
vn -0.5651 -0.8085 -0.1643
vn -0.7959 -0.6037 -0.0469
vn -0.8 -0.5982 -0.0471
vn -0.594 -0.8018 -0.0658
vn -0.5651 -0.8085 -0.1643
vn 0.1567 -0.9112 -0.381
vn 0.2296 -0.9727 -0.0346
vn -0.594 -0.8018 -0.0658
vn -0.808 -0.587 -0.0502
vn -0.7959 -0.6037 -0.0469
vn -0.5651 -0.8085 -0.1643
vn -0.594 -0.8018 -0.0658
vn -0.625 -0.7799 0.0327
vn -0.8251 -0.5633 -0.0433
vn -0.808 -0.587 -0.0502
vn -0.594 -0.8018 -0.0658
vn 0.2296 -0.9727 -0.0346
vn 0.1663 -0.941 0.2948
vn -0.625 -0.7799 0.0327
vn -0.709 -0.6899 0.1463
vn -0.625 -0.7799 0.0327
vn 0.1663 -0.941 0.2948
vn -0.0022 -0.796 0.6053
vn -0.709 -0.6899 0.1463
vn -0.8481 -0.5296 -0.0163
vn -0.8251 -0.5633 -0.0433
vn -0.625 -0.7799 0.0327
vt 0 1
vt 0 1
vt 0 1
vt 0 1
vt 0 1
vt 0 1
vt 0 1
vt 0 1
vt 0 1
vt 0 1
vt 0 1
vt 0 1
vt 0 1
vt 0 1
vt 0 1
vt 0 1
vt 0 1
vt 0 1
vt 0 1
vt 0 1
vt 0 1
vt 0 1
vt 0 1
vt 0 1
vt 0 1
vt 0 1
vt 0 1
vt 0 1
vt 0 1
vt 0 1
vt 0 1
vt 0 1
vt 0 1
vt 0 1
vt 0 1
vt 0 1
vt 0 1
vt 0 1
vt 0 1
vt 0 1
vt 0 1
vt 0 1
vt 0 1
vt 0 1
vt 0 1
vt 0 1
vt 0 1
vt 0 1
vt 0 1
vt 0 1
vt 0 1
vt 0 1
vt 0 1
vt 0 1
vt 0 1
vt 0 1
vt 0 1
vt 0 1
vt 0 1
vt 0 1
vt 0 1
vt 0 1
vt 0 1
vt 0 1
vt 0 1
vt 0 1
vt 0 1
vt 0 1
vt 0 1
vt 0 1
vt 0 1
vt 0 1
vt 0 1
vt 0 1
vt 0 1
vt 0 1
vt 0 1
vt 0 1
vt 0 1
vt 0 1
vt 0 1
vt 0 1
vt 0 1
vt 0 1
vt 0 1
vt 0 1
vt 0 1
vt 0 1
vt 0 1
vt 0 1
vt 0 1
vt 0 1
vt 0 1
vt 0 1
vt 0 1
vt 0 1
vt 0 1
vt 0 1
vt 0 1
vt 0 1
vt 0 1
vt 0 1
vt 0 1
vt 0 1
vt 0 1
vt 0 1
vt 0 1
vt 0 1
vt 0 1
vt 0 1
vt 0 1
vt 0 1
vt 0 1
vt 0 1
vt 0 1
vt 0 1
vt 0 1
vt 0 1
vt 0 1
vt 0 1
vt 0 1
vt 0 1
vt 0 1
vt 0 1
vt 0 1
vt 0 1
vt 0 1
vt 0 1
vt 0 1
vt 0 1
vt 0 1
vt 0 1
vt 0 1
vt 0 1
vt 0 1
vt 0 1
vt 0 1
vt 0 1
vt 0 1
vt 0 1
vt 0 1
vt 0 1
vt 0 1
vt 0 1
vt 0 1
vt 0 1
vt 0 1
vt 0 1
vt 0 1
vt 0 1
vt 0 1
vt 0 1
vt 0 1
vt 0 1
vt 0 1
vt 0 1
vt 0 1
vt 0 1
vt 0 1
vt 0 1
vt 0 1
vt 0 1
vt 0 1
vt 0 1
vt 0 1
vt 0 1
vt 0 1
vt 0 1
vt 0 1
vt 0 1
vt 0 1
vt 0 1
vt 0 1
vt 0 1
vt 0 1
vt 0 1
vt 0 1
vt 0 1
vt 0 1
vt 0 1
vt 0 1
vt 0 1
vt 0 1
vt 0 1
vt 0 1
vt 0 1
vt 0 1
vt 0 1
vt 0 1
vt 0 1
vt 0 1
vt 0 1
vt 0 1
vt 0 1
vt 0 1
vt 0 1
vt 0 1
vt 0 1
vt 0 1
vt 0 1
vt 0 1
vt 0 1
vt 0 1
vt 0 1
vt 0 1
vt 0 1
vt 0 1
vt 0 1
vt 0 1
vt 0 1
vt 0 1
vt 0 1
vt 0 1
vt 0 1
vt 0 1
vt 0 1
vt 0 1
vt 0 1
vt 0 1
vt 0 1
vt 0 1
vt 0 1
vt 0 1
vt 0 1
vt 0 1
vt 0 1
vt 0 1
vt 0 1
vt 0 1
vt 0 1
vt 0 1
vt 0 1
vt 0 1
vt 0 1
vt 0 1
vt 0 1
vt 0 1
vt 0 1
vt 0 1
vt 0 1
vt 0 1
vt 0 1
vt 0 1
vt 0 1
vt 0 1
vt 0 1
vt 0 1
vt 0 1
vt 0 1
vt 0 1
vt 0 1
vt 0 1
vt 0 1
vt 0 1
vt 0 1
vt 0 1
s off
f 1/1/1 2/2/2 3/3/3
f 1/1/1 3/3/3 4/4/4
f 5/5/5 6/6/6 7/7/7
f 5/5/5 7/7/7 8/8/8
f 9/9/9 10/10/10 11/11/11
f 9/9/9 11/11/11 12/12/12
f 13/13/13 14/14/14 15/15/15
f 13/13/13 15/15/15 16/16/16
f 17/17/17 18/18/18 19/19/19
f 17/17/17 19/19/19 20/20/20
f 21/21/21 22/22/22 23/23/23
f 21/21/21 23/23/23 24/24/24
f 25/25/25 26/26/26 27/27/27
f 25/25/25 27/27/27 28/28/28
f 29/29/29 30/30/30 31/31/31
f 29/29/29 31/31/31 32/32/32
f 33/33/33 34/34/34 35/35/35
f 33/33/33 35/35/35 36/36/36
f 37/37/37 38/38/38 39/39/39
f 37/37/37 39/39/39 40/40/40
f 41/41/41 42/42/42 43/43/43
f 41/41/41 43/43/43 44/44/44
f 45/45/45 46/46/46 47/47/47
f 45/45/45 47/47/47 48/48/48
f 49/49/49 50/50/50 51/51/51
f 49/49/49 51/51/51 52/52/52
f 53/53/53 54/54/54 55/55/55
f 53/53/53 55/55/55 56/56/56
f 57/57/57 58/58/58 59/59/59
f 57/57/57 59/59/59 60/60/60
f 61/61/61 62/62/62 63/63/63
f 61/61/61 63/63/63 64/64/64
f 65/65/65 66/66/66 67/67/67
f 65/65/65 67/67/67 68/68/68
f 69/69/69 70/70/70 71/71/71
f 69/69/69 71/71/71 72/72/72
f 73/73/73 74/74/74 75/75/75
f 73/73/73 75/75/75 76/76/76
f 77/77/77 78/78/78 79/79/79
f 77/77/77 79/79/79 80/80/80
f 81/81/81 82/82/82 83/83/83
f 81/81/81 83/83/83 84/84/84
f 85/85/85 86/86/86 87/87/87
f 85/85/85 87/87/87 88/88/88
f 89/89/89 90/90/90 91/91/91
f 89/89/89 91/91/91 92/92/92
f 93/93/93 94/94/94 95/95/95
f 93/93/93 95/95/95 96/96/96
f 97/97/97 98/98/98 99/99/99
f 97/97/97 99/99/99 100/100/100
f 101/101/101 102/102/102 103/103/103
f 101/101/101 103/103/103 104/104/104
f 105/105/105 106/106/106 107/107/107
f 105/105/105 107/107/107 108/108/108
f 109/109/109 110/110/110 111/111/111
f 109/109/109 111/111/111 112/112/112
f 113/113/113 114/114/114 115/115/115
f 113/113/113 115/115/115 116/116/116
f 117/117/117 118/118/118 119/119/119
f 117/117/117 119/119/119 120/120/120
f 121/121/121 122/122/122 123/123/123
f 121/121/121 123/123/123 124/124/124
f 125/125/125 126/126/126 127/127/127
f 125/125/125 127/127/127 128/128/128
f 129/129/129 130/130/130 131/131/131
f 129/129/129 131/131/131 132/132/132
f 133/133/133 134/134/134 135/135/135
f 133/133/133 135/135/135 136/136/136
f 137/137/137 138/138/138 139/139/139
f 137/137/137 139/139/139 140/140/140
f 141/141/141 142/142/142 143/143/143
f 141/141/141 143/143/143 144/144/144
f 145/145/145 146/146/146 147/147/147
f 145/145/145 147/147/147 148/148/148
f 149/149/149 150/150/150 151/151/151
f 149/149/149 151/151/151 152/152/152
f 153/153/153 154/154/154 155/155/155
f 153/153/153 155/155/155 156/156/156
f 157/157/157 158/158/158 159/159/159
f 157/157/157 159/159/159 160/160/160
f 161/161/161 162/162/162 163/163/163
f 161/161/161 163/163/163 164/164/164
f 165/165/165 166/166/166 167/167/167
f 165/165/165 167/167/167 168/168/168
f 169/169/169 170/170/170 171/171/171
f 169/169/169 171/171/171 172/172/172
f 173/173/173 174/174/174 175/175/175
f 173/173/173 175/175/175 176/176/176
f 177/177/177 178/178/178 179/179/179
f 177/177/177 179/179/179 180/180/180
f 181/181/181 182/182/182 183/183/183
f 181/181/181 183/183/183 184/184/184
f 185/185/185 186/186/186 187/187/187
f 185/185/185 187/187/187 188/188/188
f 189/189/189 190/190/190 191/191/191
f 189/189/189 191/191/191 192/192/192
f 193/193/193 194/194/194 195/195/195
f 193/193/193 195/195/195 196/196/196
f 197/197/197 198/198/198 199/199/199
f 197/197/197 199/199/199 200/200/200
f 201/201/201 202/202/202 203/203/203
f 201/201/201 203/203/203 204/204/204
f 205/205/205 206/206/206 207/207/207
f 205/205/205 207/207/207 208/208/208
f 209/209/209 210/210/210 211/211/211
f 209/209/209 211/211/211 212/212/212
f 213/213/213 214/214/214 215/215/215
f 213/213/213 215/215/215 216/216/216
f 217/217/217 218/218/218 219/219/219
f 217/217/217 219/219/219 220/220/220
f 221/221/221 222/222/222 223/223/223
f 221/221/221 223/223/223 224/224/224
f 225/225/225 226/226/226 227/227/227
f 225/225/225 227/227/227 228/228/228
f 229/229/229 230/230/230 231/231/231
f 229/229/229 231/231/231 232/232/232
f 233/233/233 234/234/234 235/235/235
f 233/233/233 235/235/235 236/236/236
f 237/237/237 238/238/238 239/239/239
f 237/237/237 239/239/239 240/240/240
f 241/241/241 242/242/242 243/243/243
f 241/241/241 243/243/243 244/244/244
f 245/245/245 246/246/246 247/247/247
f 245/245/245 247/247/247 248/248/248
f 249/249/249 250/250/250 251/251/251
f 249/249/249 251/251/251 252/252/252
f 253/253/253 254/254/254 255/255/255
f 253/253/253 255/255/255 256/256/256
