v -0.069469 0.107427 0.349591
v -0.012713 0.107894 0.349227
v -0.012713 0.102493 0.342696
v -0.069915 0.102017 0.342998
v -0.069469 0.107427 0.349591
v -0.064041 0.103186 0.379475
v -0.012713 0.103525 0.379459
v -0.012713 0.107894 0.349227
v -0.088949 0.104203 0.358135
v -0.096422 0.098548 0.379941
v -0.064041 0.103186 0.379475
v -0.069469 0.107427 0.349591
v -0.088949 0.104203 0.358135
v -0.069469 0.107427 0.349591
v -0.069915 0.102017 0.342998
v -0.090616 0.098028 0.353265
v -0.069915 0.102017 0.342998
v -0.012713 0.102493 0.342696
v -0.01283 0.095233 0.340516
v -0.069567 0.094282 0.340616
v -0.090616 0.098028 0.353265
v -0.069915 0.102017 0.342998
v -0.069567 0.094282 0.340616
v -0.091096 0.090302 0.351428
v -0.099895 0.091575 0.378332
v -0.090616 0.098028 0.353265
v -0.091096 0.090302 0.351428
v -0.100045 0.083774 0.376103
v -0.091366 0.086147 0.398693
v -0.099895 0.091575 0.378332
v -0.100045 0.083774 0.376103
v -0.09167 0.078568 0.396443
v -0.070411 0.082943 0.410025
v -0.091366 0.086147 0.398693
v -0.09167 0.078568 0.396443
v -0.069525 0.075929 0.408329
v -0.012713 0.084047 0.410826
v -0.070411 0.082943 0.410025
v -0.069525 0.075929 0.408329
v -0.012768 0.076669 0.408887
v 0.044985 0.082943 0.410025
v -0.012713 0.084047 0.410826
v -0.012768 0.076669 0.408887
v 0.044169 0.076165 0.408379
v 0.06594 0.086147 0.398693
v 0.044985 0.082943 0.410025
v 0.044169 0.076165 0.408379
v 0.065264 0.07835 0.39753
v 0.074469 0.091575 0.378332
v 0.06594 0.086147 0.398693
v 0.065264 0.07835 0.39753
v 0.074602 0.084108 0.376277
v 0.06519 0.098028 0.353265
v 0.074469 0.091575 0.378332
v 0.074602 0.084108 0.376277
v 0.064432 0.090732 0.350156
v 0.044489 0.102017 0.342998
v 0.06519 0.098028 0.353265
v 0.064432 0.090732 0.350156
v 0.044281 0.094743 0.340765
v -0.012713 0.102493 0.342696
v 0.044489 0.102017 0.342998
v 0.044281 0.094743 0.340765
v -0.01283 0.095233 0.340516
v 0.044043 0.107427 0.349591
v 0.063523 0.104203 0.358135
v 0.06519 0.098028 0.353265
v 0.044489 0.102017 0.342998
v -0.012713 0.107894 0.349227
v 0.044043 0.107427 0.349591
v 0.044489 0.102017 0.342998
v -0.012713 0.102493 0.342696
v 0.038615 0.103186 0.379475
v 0.070996 0.098548 0.379941
v 0.063523 0.104203 0.358135
v 0.044043 0.107427 0.349591
v 0.044043 0.107427 0.349591
v -0.012713 0.107894 0.349227
v -0.012713 0.103525 0.379459
v 0.038615 0.103186 0.379475
v 0.063523 0.104203 0.358135
v 0.070996 0.098548 0.379941
v 0.074469 0.091575 0.378332
v 0.06519 0.098028 0.353265
v 0.064063 0.093939 0.397648
v 0.070996 0.098548 0.379941
v 0.038615 0.103186 0.379475
v 0.04426 0.091313 0.408836
v 0.070996 0.098548 0.379941
v 0.064063 0.093939 0.397648
v 0.06594 0.086147 0.398693
v 0.074469 0.091575 0.378332
v 0.064063 0.093939 0.397648
v 0.04426 0.091313 0.408836
v 0.044985 0.082943 0.410025
v 0.06594 0.086147 0.398693
v 0.038615 0.103186 0.379475
v -0.012713 0.103525 0.379459
v -0.012713 0.091862 0.409012
v 0.04426 0.091313 0.408836
v 0.04426 0.091313 0.408836
v -0.012713 0.091862 0.409012
v -0.012713 0.084047 0.410826
v 0.044985 0.082943 0.410025
v -0.012713 0.103525 0.379459
v -0.064041 0.103186 0.379475
v -0.069687 0.091313 0.408836
v -0.012713 0.091862 0.409012
v -0.012713 0.091862 0.409012
v -0.069687 0.091313 0.408836
v -0.070411 0.082943 0.410025
v -0.012713 0.084047 0.410826
v -0.064041 0.103186 0.379475
v -0.096422 0.098548 0.379941
v -0.089489 0.093939 0.397648
v -0.069687 0.091313 0.408836
v -0.069687 0.091313 0.408836
v -0.089489 0.093939 0.397648
v -0.091366 0.086147 0.398693
v -0.070411 0.082943 0.410025
v -0.089489 0.093939 0.397648
v -0.096422 0.098548 0.379941
v -0.099895 0.091575 0.378332
v -0.091366 0.086147 0.398693
v -0.096422 0.098548 0.379941
v -0.088949 0.104203 0.358135
v -0.090616 0.098028 0.353265
v -0.099895 0.091575 0.378332
vn -0.0649 0.9966 -0.0511
vn -0 0.9993 -0.0379
vn -0 0.5677 -0.8233
vn -0.1389 0.5448 -0.827
vn -0.0649 0.9966 -0.0511
vn -0.0323 0.9653 0.2592
vn -0 0.9655 0.2606
vn -0 0.9993 -0.0379
vn -0.3142 0.9492 0.0152
vn -0.3615 0.9019 0.2364
vn -0.0323 0.9653 0.2592
vn -0.0649 0.9966 -0.0511
vn -0.3142 0.9492 0.0152
vn -0.0649 0.9966 -0.0511
vn -0.1389 0.5448 -0.827
vn -0.7383 0.3845 -0.5541
vn -0.1389 0.5448 -0.827
vn -0 0.5677 -0.8233
vn -0.0001 0.2907 -0.9568
vn -0.1469 0.2816 -0.9482
vn -0.7383 0.3845 -0.5541
vn -0.1389 0.5448 -0.827
vn -0.1469 0.2816 -0.9482
vn -0.7857 0.1839 -0.5906
vn -0.9791 0.199 0.0422
vn -0.7383 0.3845 -0.5541
vn -0.7857 0.1839 -0.5906
vn -0.9994 0.0337 -0.0119
vn -0.7157 0.0259 0.698
vn -0.9791 0.199 0.0422
vn -0.9994 0.0337 -0.0119
vn -0.7555 -0.1703 0.6326
vn -0.1608 -0.0277 0.9866
vn -0.7157 0.0259 0.698
vn -0.7555 -0.1703 0.6326
vn -0.144 -0.2518 0.957
vn -0 -0.0174 0.9998
vn -0.1608 -0.0277 0.9866
vn -0.144 -0.2518 0.957
vn -0 -0.2456 0.9694
vn 0.1567 -0.0196 0.9875
vn -0 -0.0174 0.9998
vn -0 -0.2456 0.9694
vn 0.139 -0.2427 0.9601
vn 0.7288 0.0336 0.6839
vn 0.1567 -0.0196 0.9875
vn 0.139 -0.2427 0.9601
vn 0.7273 -0.175 0.6636
vn 0.9834 0.1781 0.0344
vn 0.7288 0.0336 0.6839
vn 0.7273 -0.175 0.6636
vn 0.9997 -0.007 -0.0219
vn 0.7581 0.3763 -0.5326
vn 0.9834 0.1781 0.0344
vn 0.9997 -0.007 -0.0219
vn 0.7543 0.1896 -0.6285
vn 0.1338 0.5544 -0.8214
vn 0.7581 0.3763 -0.5326
vn 0.7543 0.1896 -0.6285
vn 0.1427 0.2937 -0.9452
vn -0 0.5677 -0.8233
vn 0.1338 0.5544 -0.8214
vn 0.1427 0.2937 -0.9452
vn -0.0001 0.2907 -0.9568
vn 0.0649 0.9966 -0.0512
vn 0.3142 0.9492 0.0152
vn 0.7581 0.3763 -0.5326
vn 0.1338 0.5544 -0.8214
vn -0 0.9993 -0.0379
vn 0.0649 0.9966 -0.0512
vn 0.1338 0.5544 -0.8214
vn -0 0.5677 -0.8233
vn 0.0323 0.9653 0.2592
vn 0.3615 0.9019 0.2364
vn 0.3142 0.9492 0.0152
vn 0.0649 0.9966 -0.0512
vn 0.0649 0.9966 -0.0512
vn -0 0.9993 -0.0379
vn -0 0.9655 0.2606
vn 0.0323 0.9653 0.2592
vn 0.3142 0.9492 0.0152
vn 0.3615 0.9019 0.2364
vn 0.9834 0.1781 0.0344
vn 0.7581 0.3763 -0.5326
vn 0.2871 0.8347 0.4699
vn 0.3615 0.9019 0.2364
vn 0.0323 0.9653 0.2592
vn 0.0668 0.8197 0.5689
vn 0.3615 0.9019 0.2364
vn 0.2871 0.8347 0.4699
vn 0.7288 0.0336 0.6839
vn 0.9834 0.1781 0.0344
vn 0.2871 0.8347 0.4699
vn 0.0668 0.8197 0.5689
vn 0.1567 -0.0196 0.9875
vn 0.7288 0.0336 0.6839
vn 0.0323 0.9653 0.2592
vn -0 0.9655 0.2606
vn -0 0.8374 0.5465
vn 0.0668 0.8197 0.5689
vn 0.0668 0.8197 0.5689
vn -0 0.8374 0.5465
vn -0 -0.0174 0.9998
vn 0.1567 -0.0196 0.9875
vn -0 0.9655 0.2606
vn -0.0323 0.9653 0.2592
vn -0.0668 0.8197 0.5689
vn -0 0.8374 0.5465
vn -0 0.8374 0.5465
vn -0.0668 0.8197 0.5689
vn -0.1608 -0.0277 0.9866
vn -0 -0.0174 0.9998
vn -0.0323 0.9653 0.2592
vn -0.3615 0.9019 0.2364
vn -0.2872 0.8347 0.4698
vn -0.0668 0.8197 0.5689
vn -0.0668 0.8197 0.5689
vn -0.2872 0.8347 0.4698
vn -0.7157 0.0259 0.698
vn -0.1608 -0.0277 0.9866
vn -0.2872 0.8347 0.4698
vn -0.3615 0.9019 0.2364
vn -0.9791 0.199 0.0422
vn -0.7157 0.0259 0.698
vn -0.3615 0.9019 0.2364
vn -0.3142 0.9492 0.0152
vn -0.7383 0.3845 -0.5541
vn -0.9791 0.199 0.0422
vt 0 1
vt 1 1
vt 1 0.518003
vt 0 0.518003
vt 0 1
vt 0.526712 1
vt 0.526461 0.014842
vt 0.028354 0.022211
vt 0 1
vt 0.526712 1
vt 0.526712 0
vt 0 0
vt 0 1
vt 1 1
vt 1 0.518003
vt 0 0.518003
vt 0 0.518003
vt 1 0.518003
vt 1 0
vt 0 0
vt 0 0.518003
vt 1 0.518003
vt 1 0
vt 0 0
vt 0 0.518003
vt 1 0.518003
vt 1 0
vt 0 0
vt 0 0.518003
vt 1 0.518003
vt 1 0
vt 0 0
vt 0 0.518003
vt 1 0.518003
vt 1 0
vt 0 0
vt 0 0.518003
vt 1 0.518003
vt 1 0
vt 0 0
vt 0 0.518003
vt 1 0.518003
vt 1 0
vt 0 0
vt 0 0.518003
vt 1 0.518003
vt 1 0
vt 0 0
vt 0 0.518003
vt 1 0.518003
vt 1 0
vt 0 0
vt 0 0.518003
vt 1 0.518003
vt 1 0
vt 0 0
vt 0 0.518003
vt 1 0.518003
vt 1 0
vt 0 0
vt 0 0.518003
vt 1 0.518003
vt 1 0
vt 0 0
vt 0 1
vt 1 1
vt 1 0.518003
vt 0 0.518003
vt 0 1
vt 1 1
vt 1 0.518003
vt 0 0.518003
vt 0.473288 0
vt 0.473288 1
vt 1 1
vt 1 0
vt 0 1
vt 1 1
vt 1 0.473288
vt 0 0.473288
vt 0 1
vt 1 1
vt 1 0.518003
vt 0 0.518003
vt 0 1
vt 0.473288 1
vt 0.473288 0
vt 0 0
vt 0 1
vt 1 1
vt 1 0.518003
vt 0 0.518003
vt 0 1
vt 1 1
vt 1 0.518003
vt 0 0.518003
vt 0 0.473288
vt 1 0.473288
vt 1 0
vt 0 0
vt 0 1
vt 1 1
vt 1 0.518003
vt 0 0.518003
vt 0.526461 0.014842
vt 0.526712 1
vt 1 1
vt 0.974045 0.00822097
vt 0 1
vt 1 1
vt 1 0.518003
vt 0 0.518003
vt 0.526712 0
vt 0.526712 1
vt 1 1
vt 1 0
vt 0 1
vt 1 1
vt 1 0.518003
vt 0 0.518003
vt 0 1
vt 1 1
vt 1 0.518003
vt 0 0.518003
vt 0 1
vt 1 1
vt 1 0.518003
vt 0 0.518003
s off
f 1/1/1 2/2/2 3/3/3
f 1/1/1 3/3/3 4/4/4
f 5/5/5 6/6/6 7/7/7
f 5/5/5 7/7/7 8/8/8
f 9/9/9 10/10/10 11/11/11
f 9/9/9 11/11/11 12/12/12
f 13/13/13 14/14/14 15/15/15
f 13/13/13 15/15/15 16/16/16
f 17/17/17 18/18/18 19/19/19
f 17/17/17 19/19/19 20/20/20
f 21/21/21 22/22/22 23/23/23
f 21/21/21 23/23/23 24/24/24
f 25/25/25 26/26/26 27/27/27
f 25/25/25 27/27/27 28/28/28
f 29/29/29 30/30/30 31/31/31
f 29/29/29 31/31/31 32/32/32
f 33/33/33 34/34/34 35/35/35
f 33/33/33 35/35/35 36/36/36
f 37/37/37 38/38/38 39/39/39
f 37/37/37 39/39/39 40/40/40
f 41/41/41 42/42/42 43/43/43
f 41/41/41 43/43/43 44/44/44
f 45/45/45 46/46/46 47/47/47
f 45/45/45 47/47/47 48/48/48
f 49/49/49 50/50/50 51/51/51
f 49/49/49 51/51/51 52/52/52
f 53/53/53 54/54/54 55/55/55
f 53/53/53 55/55/55 56/56/56
f 57/57/57 58/58/58 59/59/59
f 57/57/57 59/59/59 60/60/60
f 61/61/61 62/62/62 63/63/63
f 61/61/61 63/63/63 64/64/64
f 65/65/65 66/66/66 67/67/67
f 65/65/65 67/67/67 68/68/68
f 69/69/69 70/70/70 71/71/71
f 69/69/69 71/71/71 72/72/72
f 73/73/73 74/74/74 75/75/75
f 73/73/73 75/75/75 76/76/76
f 77/77/77 78/78/78 79/79/79
f 77/77/77 79/79/79 80/80/80
f 81/81/81 82/82/82 83/83/83
f 81/81/81 83/83/83 84/84/84
f 85/85/85 86/86/86 87/87/87
f 85/85/85 87/87/87 88/88/88
f 89/89/89 90/90/90 91/91/91
f 89/89/89 91/91/91 92/92/92
f 93/93/93 94/94/94 95/95/95
f 93/93/93 95/95/95 96/96/96
f 97/97/97 98/98/98 99/99/99
f 97/97/97 99/99/99 100/100/100
f 101/101/101 102/102/102 103/103/103
f 101/101/101 103/103/103 104/104/104
f 105/105/105 106/106/106 107/107/107
f 105/105/105 107/107/107 108/108/108
f 109/109/109 110/110/110 111/111/111
f 109/109/109 111/111/111 112/112/112
f 113/113/113 114/114/114 115/115/115
f 113/113/113 115/115/115 116/116/116
f 117/117/117 118/118/118 119/119/119
f 117/117/117 119/119/119 120/120/120
f 121/121/121 122/122/122 123/123/123
f 121/121/121 123/123/123 124/124/124
f 125/125/125 126/126/126 127/127/127
f 125/125/125 127/127/127 128/128/128
