v 0.478991 0.191939 -0.143814
v 0.477526 0.193305 -0.167724
v 0.450886 0.188658 -0.167724
v 0.455458 0.188436 -0.146589
v 0.478991 0.191939 -0.143814
v 0.502744 0.192618 -0.142021
v 0.502744 0.194485 -0.167724
v 0.477526 0.193305 -0.167724
v 0.478991 0.191939 -0.143814
v 0.481874 0.187444 -0.119872
v 0.502744 0.186779 -0.115507
v 0.502744 0.192618 -0.142021
v 0.478991 0.191939 -0.143814
v 0.455458 0.188436 -0.146589
v 0.466539 0.188084 -0.130838
v 0.481874 0.187444 -0.119872
v 0.527 0.190242 -0.142886
v 0.550512 0.18531 -0.146474
v 0.555859 0.184948 -0.167724
v 0.528856 0.19173 -0.167724
v 0.527 0.190242 -0.142886
v 0.524629 0.18579 -0.119738
v 0.539701 0.185386 -0.130285
v 0.550512 0.18531 -0.146474
v 0.502743 0.192891 -0.192553
v 0.502743 0.187525 -0.218935
v 0.480111 0.187591 -0.215729
v 0.477863 0.192117 -0.190537
v 0.527923 0.190373 -0.191938
v 0.551265 0.185236 -0.18885
v 0.539855 0.185467 -0.206098
v 0.524565 0.186294 -0.215863
v 0.524629 0.18579 -0.119738
v 0.526476 0.173686 -0.111974
v 0.546102 0.172407 -0.12483
v 0.539701 0.185386 -0.130285
v 0.47996 0.176746 -0.11231
v 0.502743 0.175076 -0.10749
v 0.502744 0.186779 -0.115507
v 0.481874 0.187444 -0.119872
v 0.539701 0.185386 -0.130285
v 0.546102 0.172407 -0.12483
v 0.55881 0.170662 -0.142743
v 0.550512 0.18531 -0.146474
v 0.455458 0.188436 -0.146589
v 0.448441 0.179654 -0.143316
v 0.461662 0.178517 -0.124444
v 0.466539 0.188084 -0.130838
v 0.455458 0.188436 -0.146589
v 0.450886 0.188658 -0.167724
v 0.443097 0.18037 -0.167724
v 0.448441 0.179654 -0.143316
v 0.466539 0.188084 -0.130838
v 0.461662 0.178517 -0.124444
v 0.47996 0.176746 -0.11231
v 0.481874 0.187444 -0.119872
v 0.477863 0.192117 -0.190537
v 0.480111 0.187591 -0.215729
v 0.464963 0.187565 -0.206141
v 0.453714 0.188032 -0.188666
v 0.551265 0.185236 -0.18885
v 0.559929 0.172194 -0.191615
v 0.546436 0.173402 -0.211783
v 0.539855 0.185467 -0.206098
v 0.55881 0.170662 -0.142743
v 0.564483 0.171592 -0.167723
v 0.555859 0.184948 -0.167724
v 0.550512 0.18531 -0.146474
v 0.539855 0.185467 -0.206098
v 0.546436 0.173402 -0.211783
v 0.526855 0.175304 -0.224691
v 0.524565 0.186294 -0.215863
v 0.480111 0.187591 -0.215729
v 0.47857 0.178438 -0.223722
v 0.459434 0.178853 -0.21019
v 0.464963 0.187565 -0.206141
v 0.480111 0.187591 -0.215729
v 0.502743 0.187525 -0.218935
v 0.502743 0.176645 -0.229321
v 0.47857 0.178438 -0.223722
v 0.464963 0.187565 -0.206141
v 0.459434 0.178853 -0.21019
v 0.447113 0.179415 -0.19077
v 0.453714 0.188032 -0.188666
v 0.551265 0.185236 -0.18885
v 0.555859 0.184948 -0.167724
v 0.564483 0.171592 -0.167723
v 0.559929 0.172194 -0.191615
v 0.528856 0.19173 -0.167724
v 0.555859 0.184948 -0.167724
v 0.551265 0.185236 -0.18885
v 0.527923 0.190373 -0.191938
v 0.477526 0.193305 -0.167724
v 0.502744 0.194485 -0.167724
v 0.502743 0.192891 -0.192553
v 0.477863 0.192117 -0.190537
v 0.450886 0.188658 -0.167724
v 0.477526 0.193305 -0.167724
v 0.477863 0.192117 -0.190537
v 0.453714 0.188032 -0.188666
v 0.447113 0.179415 -0.19077
v 0.443097 0.18037 -0.167724
v 0.450886 0.188658 -0.167724
v 0.453714 0.188032 -0.188666
v 0.524629 0.18579 -0.119738
v 0.502744 0.186779 -0.115507
v 0.502743 0.175076 -0.10749
v 0.526476 0.173686 -0.111974
v 0.502744 0.192618 -0.142021
v 0.502744 0.186779 -0.115507
v 0.524629 0.18579 -0.119738
v 0.527 0.190242 -0.142886
v 0.502744 0.194485 -0.167724
v 0.502744 0.192618 -0.142021
v 0.527 0.190242 -0.142886
v 0.528856 0.19173 -0.167724
v 0.502743 0.192891 -0.192553
v 0.502744 0.194485 -0.167724
v 0.528856 0.19173 -0.167724
v 0.527923 0.190373 -0.191938
v 0.527923 0.190373 -0.191938
v 0.524565 0.186294 -0.215863
v 0.502743 0.187525 -0.218935
v 0.502743 0.192891 -0.192553
v 0.526855 0.175304 -0.224691
v 0.502743 0.176645 -0.229321
v 0.502743 0.187525 -0.218935
v 0.524565 0.186294 -0.215863
v 0.546102 0.172407 -0.12483
v 0.526476 0.173686 -0.111974
v 0.527323 0.15914 -0.112068
v 0.546438 0.158307 -0.124833
v 0.55881 0.170662 -0.142743
v 0.546102 0.172407 -0.12483
v 0.546438 0.158307 -0.124833
v 0.559515 0.157719 -0.143755
v 0.564717 0.157447 -0.167724
v 0.564483 0.171592 -0.167723
v 0.55881 0.170662 -0.142743
v 0.559515 0.157719 -0.143755
v 0.559929 0.172194 -0.191615
v 0.564483 0.171592 -0.167723
v 0.564717 0.157447 -0.167724
v 0.561101 0.157531 -0.189247
v 0.546436 0.173402 -0.211783
v 0.559929 0.172194 -0.191615
v 0.561101 0.157531 -0.189247
v 0.549051 0.158018 -0.2094
v 0.526855 0.175304 -0.224691
v 0.546436 0.173402 -0.211783
v 0.549051 0.158018 -0.2094
v 0.528706 0.158953 -0.224281
v 0.502743 0.160244 -0.229711
v 0.502743 0.176645 -0.229321
v 0.526855 0.175304 -0.224691
v 0.528706 0.158953 -0.224281
v 0.47857 0.178438 -0.223722
v 0.502743 0.176645 -0.229321
v 0.502743 0.160244 -0.229711
v 0.478886 0.16157 -0.224545
v 0.459434 0.178853 -0.21019
v 0.47857 0.178438 -0.223722
v 0.478886 0.16157 -0.224545
v 0.458982 0.162698 -0.210521
v 0.447113 0.179415 -0.19077
v 0.459434 0.178853 -0.21019
v 0.458982 0.162698 -0.210521
v 0.445836 0.163429 -0.189088
v 0.442279 0.163583 -0.167724
v 0.443097 0.18037 -0.167724
v 0.447113 0.179415 -0.19077
v 0.445836 0.163429 -0.189088
v 0.448441 0.179654 -0.143316
v 0.443097 0.18037 -0.167724
v 0.442279 0.163583 -0.167724
v 0.448002 0.163161 -0.142598
v 0.461662 0.178517 -0.124444
v 0.448441 0.179654 -0.143316
v 0.448002 0.163161 -0.142598
v 0.46165 0.162345 -0.12378
v 0.47996 0.176746 -0.11231
v 0.461662 0.178517 -0.124444
v 0.46165 0.162345 -0.12378
v 0.481772 0.161269 -0.111224
v 0.50275 0.160329 -0.107254
v 0.502743 0.175076 -0.10749
v 0.47996 0.176746 -0.11231
v 0.481772 0.161269 -0.111224
v 0.526476 0.173686 -0.111974
v 0.502743 0.175076 -0.10749
v 0.50275 0.160329 -0.107254
v 0.527323 0.15914 -0.112068
vn -0.085 0.9896 0.1161
vn -0.1036 0.9946 0.0031
vn -0.389 0.9212 0.0095
vn -0.3805 0.9071 0.1802
vn -0.085 0.9896 0.1161
vn 0.0334 0.9901 0.136
vn 0.0329 0.9994 0.0044
vn -0.1036 0.9946 0.0031
vn -0.085 0.9896 0.1161
vn -0.1538 0.8803 0.4488
vn 0.0335 0.875 0.4829
vn 0.0334 0.9901 0.136
vn -0.085 0.9896 0.1161
vn -0.3805 0.9071 0.1802
vn -0.3347 0.865 0.3738
vn -0.1538 0.8803 0.4488
vn 0.1488 0.9814 0.1215
vn 0.511 0.8341 0.2075
vn 0.5388 0.8423 0.0174
vn 0.1669 0.986 0.0044
vn 0.1488 0.9814 0.1215
vn 0.2316 0.8468 0.4788
vn 0.4457 0.7917 0.4178
vn 0.511 0.8341 0.2075
vn 0.0303 0.9914 -0.1271
vn 0.029 0.9076 -0.4189
vn -0.1471 0.9022 -0.4055
vn -0.0936 0.9893 -0.1119
vn 0.1523 0.982 -0.1118
vn 0.5012 0.8442 -0.1901
vn 0.4312 0.8149 -0.3873
vn 0.2127 0.8768 -0.4313
vn 0.2316 0.8468 0.4788
vn 0.361 0.2731 0.8917
vn 0.6797 0.2829 0.6767
vn 0.4457 0.7917 0.4178
vn -0.3568 0.281 0.8909
vn 0.0153 0.2852 0.9583
vn 0.0335 0.875 0.4829
vn -0.1538 0.8803 0.4488
vn 0.4457 0.7917 0.4178
vn 0.6797 0.2829 0.6767
vn 0.88 0.2864 0.3788
vn 0.511 0.8341 0.2075
vn -0.3805 0.9071 0.1802
vn -0.877 0.2882 0.3845
vn -0.6599 0.2789 0.6976
vn -0.3347 0.865 0.3738
vn -0.3805 0.9071 0.1802
vn -0.389 0.9212 0.0095
vn -0.9531 0.3007 0.0337
vn -0.877 0.2882 0.3845
vn -0.3347 0.865 0.3738
vn -0.6599 0.2789 0.6976
vn -0.3568 0.281 0.8909
vn -0.1538 0.8803 0.4488
vn -0.0936 0.9893 -0.1119
vn -0.1471 0.9022 -0.4055
vn -0.3409 0.8716 -0.3522
vn -0.3928 0.9038 -0.17
vn 0.5012 0.8442 -0.1901
vn 0.884 0.3012 -0.3574
vn 0.6855 0.2802 -0.672
vn 0.4312 0.8149 -0.3873
vn 0.88 0.2864 0.3788
vn 0.9513 0.3071 0.0273
vn 0.5388 0.8423 0.0174
vn 0.511 0.8341 0.2075
vn 0.4312 0.8149 -0.3873
vn 0.6855 0.2802 -0.672
vn 0.3587 0.2956 -0.8854
vn 0.2127 0.8768 -0.4313
vn -0.1471 0.9022 -0.4055
vn -0.3588 0.304 -0.8825
vn -0.6995 0.2537 -0.6681
vn -0.3409 0.8716 -0.3522
vn -0.1471 0.9022 -0.4055
vn 0.029 0.9076 -0.4189
vn 0.0055 0.3177 -0.9482
vn -0.3588 0.304 -0.8825
vn -0.3409 0.8716 -0.3522
vn -0.6995 0.2537 -0.6681
vn -0.892 0.276 -0.358
vn -0.3928 0.9038 -0.17
vn 0.5012 0.8442 -0.1901
vn 0.5388 0.8423 0.0174
vn 0.9513 0.3071 0.0273
vn 0.884 0.3012 -0.3574
vn 0.1669 0.986 0.0044
vn 0.5388 0.8423 0.0174
vn 0.5012 0.8442 -0.1901
vn 0.1523 0.982 -0.1118
vn -0.1036 0.9946 0.0031
vn 0.0329 0.9994 0.0044
vn 0.0303 0.9914 -0.1271
vn -0.0936 0.9893 -0.1119
vn -0.389 0.9212 0.0095
vn -0.1036 0.9946 0.0031
vn -0.0936 0.9893 -0.1119
vn -0.3928 0.9038 -0.17
vn -0.892 0.276 -0.358
vn -0.9531 0.3007 0.0337
vn -0.389 0.9212 0.0095
vn -0.3928 0.9038 -0.17
vn 0.2316 0.8468 0.4788
vn 0.0335 0.875 0.4829
vn 0.0153 0.2852 0.9583
vn 0.361 0.2731 0.8917
vn 0.0334 0.9901 0.136
vn 0.0335 0.875 0.4829
vn 0.2316 0.8468 0.4788
vn 0.1488 0.9814 0.1215
vn 0.0329 0.9994 0.0044
vn 0.0334 0.9901 0.136
vn 0.1488 0.9814 0.1215
vn 0.1669 0.986 0.0044
vn 0.0303 0.9914 -0.1271
vn 0.0329 0.9994 0.0044
vn 0.1669 0.986 0.0044
vn 0.1523 0.982 -0.1118
vn 0.1523 0.982 -0.1118
vn 0.2127 0.8768 -0.4313
vn 0.029 0.9076 -0.4189
vn 0.0303 0.9914 -0.1271
vn 0.3587 0.2956 -0.8854
vn 0.0055 0.3177 -0.9482
vn 0.029 0.9076 -0.4189
vn 0.2127 0.8768 -0.4313
vn 0.6797 0.2829 0.6767
vn 0.361 0.2731 0.8917
vn 0.3824 0.0155 0.9239
vn 0.6961 0.0153 0.7178
vn 0.88 0.2864 0.3788
vn 0.6797 0.2829 0.6767
vn 0.6961 0.0153 0.7178
vn 0.9249 0.0192 0.3796
vn 0.9993 0.0302 0.0225
vn 0.9513 0.3071 0.0273
vn 0.88 0.2864 0.3788
vn 0.9249 0.0192 0.3796
vn 0.884 0.3012 -0.3574
vn 0.9513 0.3071 0.0273
vn 0.9993 0.0302 0.0225
vn 0.9376 0.0288 -0.3466
vn 0.6855 0.2802 -0.672
vn 0.884 0.3012 -0.3574
vn 0.9376 0.0288 -0.3466
vn 0.7399 0.0163 -0.6726
vn 0.3587 0.2956 -0.8854
vn 0.6855 0.2802 -0.672
vn 0.7399 0.0163 -0.6726
vn 0.4032 0.0095 -0.915
vn -0.0007 0.022 -0.9998
vn 0.0055 0.3177 -0.9482
vn 0.3587 0.2956 -0.8854
vn 0.4032 0.0095 -0.915
vn -0.3588 0.304 -0.8825
vn 0.0055 0.3177 -0.9482
vn -0.0007 0.022 -0.9998
vn -0.3904 0.033 -0.92
vn -0.6995 0.2537 -0.6681
vn -0.3588 0.304 -0.8825
vn -0.3904 0.033 -0.92
vn -0.722 0.0278 -0.6913
vn -0.892 0.276 -0.358
vn -0.6995 0.2537 -0.6681
vn -0.722 0.0278 -0.6913
vn -0.9367 0.0402 -0.3479
vn -0.9981 0.0484 0.0388
vn -0.9531 0.3007 0.0337
vn -0.892 0.276 -0.358
vn -0.9367 0.0402 -0.3479
vn -0.877 0.2882 0.3845
vn -0.9531 0.3007 0.0337
vn -0.9981 0.0484 0.0388
vn -0.9138 0.0395 0.4041
vn -0.6599 0.2789 0.6976
vn -0.877 0.2882 0.3845
vn -0.9138 0.0395 0.4041
vn -0.6862 0.0261 0.727
vn -0.3568 0.281 0.8909
vn -0.6599 0.2789 0.6976
vn -0.6862 0.0261 0.727
vn -0.36 0.0245 0.9326
vn 0.0096 0.0205 0.9997
vn 0.0153 0.2852 0.9583
vn -0.3568 0.281 0.8909
vn -0.36 0.0245 0.9326
vn 0.361 0.2731 0.8917
vn 0.0153 0.2852 0.9583
vn 0.0096 0.0205 0.9997
vn 0.3824 0.0155 0.9239
vt 0 1
vt 0 1
vt 0 1
vt 0 1
vt 0 1
vt 0 1
vt 0 1
vt 0 1
vt 0 1
vt 0 1
vt 0 1
vt 0 1
vt 0 1
vt 0 1
vt 0 1
vt 0 1
vt 0 1
vt 0 1
vt 0 1
vt 0 1
vt 0 1
vt 0 1
vt 0 1
vt 0 1
vt 0 1
vt 0 1
vt 0 1
vt 0 1
vt 0 1
vt 0 1
vt 0 1
vt 0 1
vt 0 1
vt 0 1
vt 0 1
vt 0 1
vt 0 1
vt 0 1
vt 0 1
vt 0 1
vt 0 1
vt 0 1
vt 0 1
vt 0 1
vt 0 1
vt 0 1
vt 0 1
vt 0 1
vt 0 1
vt 0 1
vt 0 1
vt 0 1
vt 0 1
vt 0 1
vt 0 1
vt 0 1
vt 0 1
vt 0 1
vt 0 1
vt 0 1
vt 0 1
vt 0 1
vt 0 1
vt 0 1
vt 0 1
vt 0 1
vt 0 1
vt 0 1
vt 0 1
vt 0 1
vt 0 1
vt 0 1
vt 0 1
vt 0 1
vt 0 1
vt 0 1
vt 0 1
vt 0 1
vt 0 1
vt 0 1
vt 0 1
vt 0 1
vt 0 1
vt 0 1
vt 0 1
vt 0 1
vt 0 1
vt 0 1
vt 0 1
vt 0 1
vt 0 1
vt 0 1
vt 0 1
vt 0 1
vt 0 1
vt 0 1
vt 0 1
vt 0 1
vt 0 1
vt 0 1
vt 0 1
vt 0 1
vt 0 1
vt 0 1
vt 0 1
vt 0 1
vt 0 1
vt 0 1
vt 0 1
vt 0 1
vt 0 1
vt 0 1
vt 0 1
vt 0 1
vt 0 1
vt 0 1
vt 0 1
vt 0 1
vt 0 1
vt 0 1
vt 0 1
vt 0 1
vt 0 1
vt 0 1
vt 0 1
vt 0 1
vt 0 1
vt 0 1
vt 0 1
vt 0 1
vt 0 1
vt 0 1
vt 0 1
vt 0 1
vt 0 1
vt 0 1
vt 0 1
vt 0 1
vt 0 1
vt 0 1
vt 0 1
vt 0 1
vt 0 1
vt 0 1
vt 0 1
vt 0 1
vt 0 1
vt 0 1
vt 0 1
vt 0 1
vt 0 1
vt 0 1
vt 0 1
vt 0 1
vt 0 1
vt 0 1
vt 0 1
vt 0 1
vt 0 1
vt 0 1
vt 0 1
vt 0 1
vt 0 1
vt 0 1
vt 0 1
vt 0 1
vt 0 1
vt 0 1
vt 0 1
vt 0 1
vt 0 1
vt 0 1
vt 0 1
vt 0 1
vt 0 1
vt 0 1
vt 0 1
vt 0 1
vt 0 1
vt 0 1
vt 0 1
vt 0 1
vt 0 1
vt 0 1
vt 0 1
vt 0 1
vt 0 1
vt 0 1
vt 0 1
vt 0 1
vt 0 1
vt 0 1
s off
f 1/1/1 2/2/2 3/3/3
f 1/1/1 3/3/3 4/4/4
f 5/5/5 6/6/6 7/7/7
f 5/5/5 7/7/7 8/8/8
f 9/9/9 10/10/10 11/11/11
f 9/9/9 11/11/11 12/12/12
f 13/13/13 14/14/14 15/15/15
f 13/13/13 15/15/15 16/16/16
f 17/17/17 18/18/18 19/19/19
f 17/17/17 19/19/19 20/20/20
f 21/21/21 22/22/22 23/23/23
f 21/21/21 23/23/23 24/24/24
f 25/25/25 26/26/26 27/27/27
f 25/25/25 27/27/27 28/28/28
f 29/29/29 30/30/30 31/31/31
f 29/29/29 31/31/31 32/32/32
f 33/33/33 34/34/34 35/35/35
f 33/33/33 35/35/35 36/36/36
f 37/37/37 38/38/38 39/39/39
f 37/37/37 39/39/39 40/40/40
f 41/41/41 42/42/42 43/43/43
f 41/41/41 43/43/43 44/44/44
f 45/45/45 46/46/46 47/47/47
f 45/45/45 47/47/47 48/48/48
f 49/49/49 50/50/50 51/51/51
f 49/49/49 51/51/51 52/52/52
f 53/53/53 54/54/54 55/55/55
f 53/53/53 55/55/55 56/56/56
f 57/57/57 58/58/58 59/59/59
f 57/57/57 59/59/59 60/60/60
f 61/61/61 62/62/62 63/63/63
f 61/61/61 63/63/63 64/64/64
f 65/65/65 66/66/66 67/67/67
f 65/65/65 67/67/67 68/68/68
f 69/69/69 70/70/70 71/71/71
f 69/69/69 71/71/71 72/72/72
f 73/73/73 74/74/74 75/75/75
f 73/73/73 75/75/75 76/76/76
f 77/77/77 78/78/78 79/79/79
f 77/77/77 79/79/79 80/80/80
f 81/81/81 82/82/82 83/83/83
f 81/81/81 83/83/83 84/84/84
f 85/85/85 86/86/86 87/87/87
f 85/85/85 87/87/87 88/88/88
f 89/89/89 90/90/90 91/91/91
f 89/89/89 91/91/91 92/92/92
f 93/93/93 94/94/94 95/95/95
f 93/93/93 95/95/95 96/96/96
f 97/97/97 98/98/98 99/99/99
f 97/97/97 99/99/99 100/100/100
f 101/101/101 102/102/102 103/103/103
f 101/101/101 103/103/103 104/104/104
f 105/105/105 106/106/106 107/107/107
f 105/105/105 107/107/107 108/108/108
f 109/109/109 110/110/110 111/111/111
f 109/109/109 111/111/111 112/112/112
f 113/113/113 114/114/114 115/115/115
f 113/113/113 115/115/115 116/116/116
f 117/117/117 118/118/118 119/119/119
f 117/117/117 119/119/119 120/120/120
f 121/121/121 122/122/122 123/123/123
f 121/121/121 123/123/123 124/124/124
f 125/125/125 126/126/126 127/127/127
f 125/125/125 127/127/127 128/128/128
f 129/129/129 130/130/130 131/131/131
f 129/129/129 131/131/131 132/132/132
f 133/133/133 134/134/134 135/135/135
f 133/133/133 135/135/135 136/136/136
f 137/137/137 138/138/138 139/139/139
f 137/137/137 139/139/139 140/140/140
f 141/141/141 142/142/142 143/143/143
f 141/141/141 143/143/143 144/144/144
f 145/145/145 146/146/146 147/147/147
f 145/145/145 147/147/147 148/148/148
f 149/149/149 150/150/150 151/151/151
f 149/149/149 151/151/151 152/152/152
f 153/153/153 154/154/154 155/155/155
f 153/153/153 155/155/155 156/156/156
f 157/157/157 158/158/158 159/159/159
f 157/157/157 159/159/159 160/160/160
f 161/161/161 162/162/162 163/163/163
f 161/161/161 163/163/163 164/164/164
f 165/165/165 166/166/166 167/167/167
f 165/165/165 167/167/167 168/168/168
f 169/169/169 170/170/170 171/171/171
f 169/169/169 171/171/171 172/172/172
f 173/173/173 174/174/174 175/175/175
f 173/173/173 175/175/175 176/176/176
f 177/177/177 178/178/178 179/179/179
f 177/177/177 179/179/179 180/180/180
f 181/181/181 182/182/182 183/183/183
f 181/181/181 183/183/183 184/184/184
f 185/185/185 186/186/186 187/187/187
f 185/185/185 187/187/187 188/188/188
f 189/189/189 190/190/190 191/191/191
f 189/189/189 191/191/191 192/192/192
