v 0.600285 0.18173 -0.265175
v 0.57679 0.17941 -0.26719
v 0.588775 0.179372 -0.251253
v 0.600285 0.18173 -0.265175
v 0.588775 0.179372 -0.251253
v 0.602344 0.178398 -0.241203
v 0.600285 0.18173 -0.265175
v 0.598816 0.181819 -0.289008
v 0.571442 0.178458 -0.288566
v 0.600285 0.18173 -0.265175
v 0.571442 0.178458 -0.288566
v 0.57679 0.17941 -0.26719
v 0.600285 0.18173 -0.265175
v 0.624428 0.180869 -0.263899
v 0.624762 0.181077 -0.289278
v 0.600285 0.18173 -0.265175
v 0.624762 0.181077 -0.289278
v 0.598816 0.181819 -0.289008
v 0.600285 0.18173 -0.265175
v 0.602344 0.178398 -0.241203
v 0.623459 0.176705 -0.236589
v 0.600285 0.18173 -0.265175
v 0.623459 0.176705 -0.236589
v 0.624428 0.180869 -0.263899
v 0.599777 0.16843 -0.232928
v 0.623443 0.166778 -0.228053
v 0.623459 0.176705 -0.236589
v 0.599777 0.16843 -0.232928
v 0.623459 0.176705 -0.236589
v 0.602344 0.178398 -0.241203
v 0.588775 0.179372 -0.251253
v 0.580759 0.169151 -0.245813
v 0.599777 0.16843 -0.232928
v 0.588775 0.179372 -0.251253
v 0.599777 0.16843 -0.232928
v 0.602344 0.178398 -0.241203
v 0.622823 0.150323 -0.22759
v 0.623443 0.166778 -0.228053
v 0.599777 0.16843 -0.232928
v 0.622823 0.150323 -0.22759
v 0.599777 0.16843 -0.232928
v 0.599443 0.152341 -0.232597
v 0.599777 0.16843 -0.232928
v 0.580759 0.169151 -0.245813
v 0.580708 0.153491 -0.245233
v 0.599777 0.16843 -0.232928
v 0.580708 0.153491 -0.245233
v 0.599443 0.152341 -0.232597
v 0.649071 0.164352 -0.233655
v 0.623443 0.166778 -0.228053
v 0.622823 0.150323 -0.22759
v 0.649071 0.164352 -0.233655
v 0.622823 0.150323 -0.22759
v 0.649964 0.146683 -0.23352
v 0.668093 0.161552 -0.247383
v 0.649071 0.164352 -0.233655
v 0.649964 0.146683 -0.23352
v 0.668093 0.161552 -0.247383
v 0.649964 0.146683 -0.23352
v 0.668042 0.143494 -0.246676
v 0.679295 0.158622 -0.264159
v 0.668093 0.161552 -0.247383
v 0.668042 0.143494 -0.246676
v 0.679295 0.158622 -0.264159
v 0.668042 0.143494 -0.246676
v 0.679752 0.140559 -0.264402
v 0.684781 0.137994 -0.288566
v 0.684423 0.157237 -0.288566
v 0.679295 0.158622 -0.264159
v 0.684781 0.137994 -0.288566
v 0.679295 0.158622 -0.264159
v 0.679752 0.140559 -0.264402
v 0.680818 0.156693 -0.309195
v 0.684423 0.157237 -0.288566
v 0.684781 0.137994 -0.288566
v 0.680818 0.156693 -0.309195
v 0.684781 0.137994 -0.288566
v 0.681266 0.136686 -0.309071
v 0.666718 0.156897 -0.331471
v 0.680818 0.156693 -0.309195
v 0.681266 0.136686 -0.309071
v 0.666718 0.156897 -0.331471
v 0.681266 0.136686 -0.309071
v 0.666926 0.136928 -0.331832
v 0.648524 0.157198 -0.344119
v 0.666718 0.156897 -0.331471
v 0.666926 0.136928 -0.331832
v 0.648524 0.157198 -0.344119
v 0.666926 0.136928 -0.331832
v 0.649024 0.138466 -0.344245
v 0.62343 0.141432 -0.349745
v 0.62343 0.159064 -0.349429
v 0.648524 0.157198 -0.344119
v 0.62343 0.141432 -0.349745
v 0.648524 0.157198 -0.344119
v 0.649024 0.138466 -0.344245
v 0.598251 0.161862 -0.343868
v 0.62343 0.159064 -0.349429
v 0.62343 0.141432 -0.349745
v 0.598251 0.161862 -0.343868
v 0.62343 0.141432 -0.349745
v 0.59854 0.144822 -0.34433
v 0.579049 0.164639 -0.329853
v 0.598251 0.161862 -0.343868
v 0.59854 0.144822 -0.34433
v 0.579049 0.164639 -0.329853
v 0.59854 0.144822 -0.34433
v 0.57848 0.148139 -0.329769
v 0.566586 0.167232 -0.309125
v 0.579049 0.164639 -0.329853
v 0.57848 0.148139 -0.329769
v 0.566586 0.167232 -0.309125
v 0.57848 0.148139 -0.329769
v 0.566041 0.15102 -0.308873
v 0.562585 0.152845 -0.288563
v 0.563094 0.169014 -0.288566
v 0.566586 0.167232 -0.309125
v 0.562585 0.152845 -0.288563
v 0.566586 0.167232 -0.309125
v 0.566041 0.15102 -0.308873
v 0.56849 0.170263 -0.264083
v 0.563094 0.169014 -0.288566
v 0.562585 0.152845 -0.288563
v 0.56849 0.170263 -0.264083
v 0.562585 0.152845 -0.288563
v 0.567916 0.15366 -0.263737
v 0.580759 0.169151 -0.245813
v 0.56849 0.170263 -0.264083
v 0.567916 0.15366 -0.263737
v 0.580759 0.169151 -0.245813
v 0.567916 0.15366 -0.263737
v 0.580708 0.153491 -0.245233
v 0.57679 0.17941 -0.26719
v 0.571442 0.178458 -0.288566
v 0.563094 0.169014 -0.288566
v 0.57679 0.17941 -0.26719
v 0.563094 0.169014 -0.288566
v 0.56849 0.170263 -0.264083
v 0.57679 0.17941 -0.26719
v 0.56849 0.170263 -0.264083
v 0.580759 0.169151 -0.245813
v 0.57679 0.17941 -0.26719
v 0.580759 0.169151 -0.245813
v 0.588775 0.179372 -0.251253
v 0.566586 0.167232 -0.309125
v 0.563094 0.169014 -0.288566
v 0.571442 0.178458 -0.288566
v 0.566586 0.167232 -0.309125
v 0.571442 0.178458 -0.288566
v 0.573726 0.176808 -0.306868
v 0.571442 0.178458 -0.288566
v 0.598816 0.181819 -0.289008
v 0.599524 0.178954 -0.31258
v 0.571442 0.178458 -0.288566
v 0.599524 0.178954 -0.31258
v 0.573726 0.176808 -0.306868
v 0.599524 0.178954 -0.31258
v 0.602245 0.172125 -0.338224
v 0.583448 0.174453 -0.324756
v 0.599524 0.178954 -0.31258
v 0.583448 0.174453 -0.324756
v 0.573726 0.176808 -0.306868
v 0.583448 0.174453 -0.324756
v 0.579049 0.164639 -0.329853
v 0.566586 0.167232 -0.309125
v 0.583448 0.174453 -0.324756
v 0.566586 0.167232 -0.309125
v 0.573726 0.176808 -0.306868
v 0.602245 0.172125 -0.338224
v 0.598251 0.161862 -0.343868
v 0.579049 0.164639 -0.329853
v 0.602245 0.172125 -0.338224
v 0.579049 0.164639 -0.329853
v 0.583448 0.174453 -0.324756
v 0.602245 0.172125 -0.338224
v 0.62345 0.170013 -0.34242
v 0.62343 0.159064 -0.349429
v 0.602245 0.172125 -0.338224
v 0.62343 0.159064 -0.349429
v 0.598251 0.161862 -0.343868
v 0.624302 0.177821 -0.314741
v 0.62345 0.170013 -0.34242
v 0.602245 0.172125 -0.338224
v 0.624302 0.177821 -0.314741
v 0.602245 0.172125 -0.338224
v 0.599524 0.178954 -0.31258
v 0.648805 0.173991 -0.312865
v 0.645073 0.167726 -0.338845
v 0.62345 0.170013 -0.34242
v 0.648805 0.173991 -0.312865
v 0.62345 0.170013 -0.34242
v 0.624302 0.177821 -0.314741
v 0.648524 0.157198 -0.344119
v 0.62343 0.159064 -0.349429
v 0.62345 0.170013 -0.34242
v 0.648524 0.157198 -0.344119
v 0.62345 0.170013 -0.34242
v 0.645073 0.167726 -0.338845
v 0.648805 0.173991 -0.312865
v 0.674883 0.166578 -0.307041
v 0.663312 0.165896 -0.32759
v 0.648805 0.173991 -0.312865
v 0.663312 0.165896 -0.32759
v 0.645073 0.167726 -0.338845
v 0.663312 0.165896 -0.32759
v 0.666718 0.156897 -0.331471
v 0.648524 0.157198 -0.344119
v 0.663312 0.165896 -0.32759
v 0.648524 0.157198 -0.344119
v 0.645073 0.167726 -0.338845
v 0.674883 0.166578 -0.307041
v 0.680818 0.156693 -0.309195
v 0.666718 0.156897 -0.331471
v 0.674883 0.166578 -0.307041
v 0.666718 0.156897 -0.331471
v 0.663312 0.165896 -0.32759
v 0.65058 0.176587 -0.289141
v 0.678209 0.167259 -0.288566
v 0.674883 0.166578 -0.307041
v 0.65058 0.176587 -0.289141
v 0.674883 0.166578 -0.307041
v 0.648805 0.173991 -0.312865
v 0.674883 0.166578 -0.307041
v 0.678209 0.167259 -0.288566
v 0.684423 0.157237 -0.288566
v 0.674883 0.166578 -0.307041
v 0.684423 0.157237 -0.288566
v 0.680818 0.156693 -0.309195
v 0.679295 0.158622 -0.264159
v 0.684423 0.157237 -0.288566
v 0.678209 0.167259 -0.288566
v 0.679295 0.158622 -0.264159
v 0.678209 0.167259 -0.288566
v 0.673104 0.169287 -0.26719
v 0.648723 0.176876 -0.265244
v 0.673104 0.169287 -0.26719
v 0.678209 0.167259 -0.288566
v 0.648723 0.176876 -0.265244
v 0.678209 0.167259 -0.288566
v 0.65058 0.176587 -0.289141
v 0.624762 0.181077 -0.289278
v 0.624428 0.180869 -0.263899
v 0.648723 0.176876 -0.265244
v 0.624762 0.181077 -0.289278
v 0.648723 0.176876 -0.265244
v 0.65058 0.176587 -0.289141
v 0.624302 0.177821 -0.314741
v 0.624762 0.181077 -0.289278
v 0.65058 0.176587 -0.289141
v 0.624302 0.177821 -0.314741
v 0.65058 0.176587 -0.289141
v 0.648805 0.173991 -0.312865
v 0.598816 0.181819 -0.289008
v 0.624762 0.181077 -0.289278
v 0.624302 0.177821 -0.314741
v 0.598816 0.181819 -0.289008
v 0.624302 0.177821 -0.314741
v 0.599524 0.178954 -0.31258
v 0.648723 0.176876 -0.265244
v 0.645216 0.17435 -0.241358
v 0.662955 0.17144 -0.252837
v 0.648723 0.176876 -0.265244
v 0.662955 0.17144 -0.252837
v 0.673104 0.169287 -0.26719
v 0.624428 0.180869 -0.263899
v 0.623459 0.176705 -0.236589
v 0.645216 0.17435 -0.241358
v 0.624428 0.180869 -0.263899
v 0.645216 0.17435 -0.241358
v 0.648723 0.176876 -0.265244
v 0.645216 0.17435 -0.241358
v 0.649071 0.164352 -0.233655
v 0.668093 0.161552 -0.247383
v 0.645216 0.17435 -0.241358
v 0.668093 0.161552 -0.247383
v 0.662955 0.17144 -0.252837
v 0.645216 0.17435 -0.241358
v 0.623459 0.176705 -0.236589
v 0.623443 0.166778 -0.228053
v 0.645216 0.17435 -0.241358
v 0.623443 0.166778 -0.228053
v 0.649071 0.164352 -0.233655
v 0.662955 0.17144 -0.252837
v 0.668093 0.161552 -0.247383
v 0.679295 0.158622 -0.264159
v 0.662955 0.17144 -0.252837
v 0.679295 0.158622 -0.264159
v 0.673104 0.169287 -0.26719
vn -0.0208 0.9981 0.0572
vn -0.3547 0.9243 0.1413
vn -0.2979 0.8912 0.342
vn -0.0208 0.9981 0.0572
vn -0.2979 0.8912 0.342
vn -0.1072 0.9138 0.3917
vn -0.0208 0.9981 0.0572
vn -0.0398 0.9975 -0.0589
vn -0.3654 0.9301 -0.0375
vn -0.0208 0.9981 0.0572
vn -0.3654 0.9301 -0.0375
vn -0.3547 0.9243 0.1413
vn -0.0208 0.9981 0.0572
vn 0.0984 0.9923 0.0747
vn 0.0999 0.9932 -0.0595
vn -0.0208 0.9981 0.0572
vn 0.0999 0.9932 -0.0595
vn -0.0398 0.9975 -0.0589
vn -0.0208 0.9981 0.0572
vn -0.1072 0.9138 0.3917
vn 0.0847 0.9101 0.4056
vn -0.0208 0.9981 0.0572
vn 0.0847 0.9101 0.4056
vn 0.0984 0.9923 0.0747
vn -0.3477 0.3086 0.8854
vn 0.0407 0.2948 0.9547
vn 0.0847 0.9101 0.4056
vn -0.3477 0.3086 0.8854
vn 0.0847 0.9101 0.4056
vn -0.1072 0.9138 0.3917
vn -0.2979 0.8912 0.342
vn -0.6688 0.3135 0.6742
vn -0.3477 0.3086 0.8854
vn -0.2979 0.8912 0.342
vn -0.3477 0.3086 0.8854
vn -0.1072 0.9138 0.3917
vn 0.0328 0.0242 0.9992
vn 0.0407 0.2948 0.9547
vn -0.3477 0.3086 0.8854
vn 0.0328 0.0242 0.9992
vn -0.3477 0.3086 0.8854
vn -0.3745 0.0307 0.9267
vn -0.3477 0.3086 0.8854
vn -0.6688 0.3134 0.6742
vn -0.6998 0.0319 0.7136
vn -0.3477 0.3086 0.8854
vn -0.6998 0.0319 0.7136
vn -0.3745 0.0307 0.9267
vn 0.4004 0.28 0.8725
vn 0.0407 0.2948 0.9547
vn 0.0329 0.0242 0.9992
vn 0.4004 0.28 0.8725
vn 0.0329 0.0242 0.9992
vn 0.4219 0.0268 0.9063
vn 0.706 0.2594 0.659
vn 0.4004 0.28 0.8725
vn 0.422 0.0268 0.9062
vn 0.706 0.2594 0.659
vn 0.422 0.0268 0.9062
vn 0.7267 0.0249 0.6865
vn 0.9117 0.2167 0.3491
vn 0.706 0.2595 0.659
vn 0.7267 0.0249 0.6865
vn 0.9117 0.2167 0.3491
vn 0.7267 0.0249 0.6865
vn 0.9368 0.0189 0.3492
vn 0.9996 0.0202 0.0174
vn 0.9779 0.2078 0.023
vn 0.9117 0.2166 0.3491
vn 0.9996 0.0202 0.0174
vn 0.9117 0.2166 0.3491
vn 0.9369 0.0189 0.3492
vn 0.9074 0.1909 -0.3744
vn 0.9779 0.2077 0.023
vn 0.9996 0.0202 0.0172
vn 0.9074 0.1909 -0.3744
vn 0.9996 0.0202 0.0172
vn 0.9228 0.0185 -0.3848
vn 0.7229 0.1915 -0.6639
vn 0.9074 0.1909 -0.3745
vn 0.9228 0.0185 -0.3848
vn 0.7229 0.1915 -0.6639
vn 0.9228 0.0185 -0.3848
vn 0.7411 0.019 -0.6711
vn 0.3831 0.1988 -0.9021
vn 0.7229 0.1915 -0.6639
vn 0.741 0.019 -0.6712
vn 0.3831 0.1988 -0.9021
vn 0.741 0.019 -0.6712
vn 0.4023 0.0182 -0.9153
vn 0.0224 0.0175 -0.9996
vn 0.0151 0.214 -0.9767
vn 0.3831 0.1987 -0.9021
vn 0.0224 0.0175 -0.9996
vn 0.3831 0.1987 -0.9021
vn 0.4023 0.0182 -0.9153
vn -0.3781 0.2341 -0.8957
vn 0.015 0.214 -0.9767
vn 0.0223 0.0175 -0.9996
vn -0.3781 0.2341 -0.8957
vn 0.0223 0.0175 -0.9996
vn -0.3803 0.0179 -0.9247
vn -0.6949 0.2473 -0.6753
vn -0.3781 0.234 -0.8957
vn -0.3804 0.0179 -0.9246
vn -0.6949 0.2473 -0.6753
vn -0.3804 0.0179 -0.9246
vn -0.7263 0.019 -0.6871
vn -0.8918 0.2706 -0.3626
vn -0.6949 0.2473 -0.6752
vn -0.7263 0.019 -0.6871
vn -0.8918 0.2706 -0.3626
vn -0.7263 0.019 -0.6871
vn -0.9278 0.0273 -0.372
vn -0.9989 0.0334 0.0335
vn -0.9526 0.303 0.0282
vn -0.8918 0.2706 -0.3626
vn -0.9989 0.0334 0.0335
vn -0.8918 0.2706 -0.3626
vn -0.9278 0.0273 -0.372
vn -0.8715 0.3295 0.3633
vn -0.9526 0.303 0.0283
vn -0.9989 0.0334 0.0336
vn -0.8715 0.3295 0.3633
vn -0.9989 0.0334 0.0336
vn -0.9239 0.034 0.3811
vn -0.6688 0.3134 0.6742
vn -0.8714 0.3295 0.3634
vn -0.9239 0.034 0.3812
vn -0.6688 0.3134 0.6742
vn -0.9239 0.034 0.3812
vn -0.6998 0.0319 0.7136
vn -0.3548 0.9242 0.1413
vn -0.3655 0.9301 -0.0375
vn -0.9526 0.303 0.0283
vn -0.3548 0.9242 0.1413
vn -0.9526 0.303 0.0283
vn -0.8715 0.3295 0.3633
vn -0.3547 0.9242 0.1413
vn -0.8715 0.3295 0.3633
vn -0.6688 0.3135 0.6741
vn -0.3547 0.9242 0.1413
vn -0.6688 0.3135 0.6741
vn -0.2979 0.8912 0.342
vn -0.8918 0.2706 -0.3626
vn -0.9526 0.303 0.0283
vn -0.3655 0.9301 -0.0375
vn -0.8918 0.2706 -0.3626
vn -0.3655 0.9301 -0.0375
vn -0.3582 0.9065 -0.2235
vn -0.3655 0.9301 -0.0375
vn -0.0398 0.9975 -0.0589
vn -0.03 0.9827 -0.1826
vn -0.3655 0.9301 -0.0375
vn -0.03 0.9827 -0.1826
vn -0.3582 0.9065 -0.2235
vn -0.03 0.9827 -0.1826
vn -0.1123 0.8632 -0.4923
vn -0.3237 0.8516 -0.4124
vn -0.03 0.9827 -0.1826
vn -0.3237 0.8516 -0.4124
vn -0.3582 0.9065 -0.2235
vn -0.3237 0.8516 -0.4124
vn -0.6949 0.2473 -0.6752
vn -0.8918 0.2706 -0.3626
vn -0.3237 0.8516 -0.4124
vn -0.8918 0.2706 -0.3626
vn -0.3582 0.9065 -0.2235
vn -0.1123 0.8631 -0.4923
vn -0.3781 0.2341 -0.8957
vn -0.6949 0.2473 -0.6752
vn -0.1123 0.8631 -0.4923
vn -0.6949 0.2473 -0.6752
vn -0.3237 0.8516 -0.4124
vn -0.1123 0.8631 -0.4923
vn 0.0783 0.8606 -0.5032
vn 0.015 0.214 -0.9767
vn -0.1123 0.8631 -0.4923
vn 0.015 0.214 -0.9767
vn -0.3781 0.2341 -0.8957
vn 0.0972 0.9754 -0.1979
vn 0.0783 0.8606 -0.5032
vn -0.1123 0.8632 -0.4923
vn 0.0972 0.9754 -0.1979
vn -0.1123 0.8632 -0.4923
vn -0.03 0.9827 -0.1826
vn 0.2242 0.9573 -0.1827
vn 0.254 0.8421 -0.4758
vn 0.0783 0.8606 -0.5032
vn 0.2242 0.9573 -0.1827
vn 0.0783 0.8606 -0.5032
vn 0.0972 0.9754 -0.1979
vn 0.383 0.1988 -0.9021
vn 0.015 0.214 -0.9767
vn 0.0783 0.8606 -0.5032
vn 0.383 0.1988 -0.9021
vn 0.0783 0.8606 -0.5032
vn 0.254 0.842 -0.4758
vn 0.2242 0.9573 -0.1827
vn 0.4968 0.8407 -0.2153
vn 0.4511 0.8 -0.3956
vn 0.2242 0.9573 -0.1827
vn 0.4511 0.8 -0.3956
vn 0.254 0.8421 -0.4758
vn 0.4511 0.8 -0.3957
vn 0.7229 0.1915 -0.6639
vn 0.3831 0.1988 -0.9021
vn 0.4511 0.8 -0.3957
vn 0.3831 0.1988 -0.9021
vn 0.254 0.842 -0.4758
vn 0.4968 0.8407 -0.2153
vn 0.9074 0.1909 -0.3745
vn 0.7229 0.1915 -0.6639
vn 0.4968 0.8407 -0.2153
vn 0.7229 0.1915 -0.6639
vn 0.4511 0.8 -0.3957
vn 0.2402 0.969 -0.0574
vn 0.5242 0.851 -0.0326
vn 0.4968 0.8408 -0.2153
vn 0.2402 0.969 -0.0574
vn 0.4968 0.8408 -0.2153
vn 0.2242 0.9573 -0.1827
vn 0.4968 0.8407 -0.2153
vn 0.5242 0.851 -0.0326
vn 0.9779 0.2078 0.023
vn 0.4968 0.8407 -0.2153
vn 0.9779 0.2078 0.023
vn 0.9074 0.1909 -0.3745
vn 0.9117 0.2167 0.3491
vn 0.9779 0.2078 0.023
vn 0.5242 0.851 -0.0326
vn 0.9117 0.2167 0.3491
vn 0.5242 0.851 -0.0326
vn 0.5098 0.8518 0.1208
vn 0.2212 0.9736 0.0563
vn 0.5098 0.8518 0.1208
vn 0.5242 0.851 -0.0326
vn 0.2212 0.9736 0.0563
vn 0.5242 0.851 -0.0326
vn 0.2402 0.969 -0.0574
vn 0.0999 0.9932 -0.0595
vn 0.0984 0.9923 0.0747
vn 0.2212 0.9736 0.0563
vn 0.0999 0.9932 -0.0595
vn 0.2212 0.9736 0.0563
vn 0.2402 0.969 -0.0574
vn 0.0972 0.9754 -0.1979
vn 0.0999 0.9932 -0.0595
vn 0.2402 0.969 -0.0574
vn 0.0972 0.9754 -0.1979
vn 0.2402 0.969 -0.0574
vn 0.2242 0.9573 -0.1827
vn -0.0398 0.9975 -0.0589
vn 0.0999 0.9932 -0.0595
vn 0.0972 0.9754 -0.1979
vn -0.0398 0.9975 -0.0589
vn 0.0972 0.9754 -0.1979
vn -0.03 0.9827 -0.1826
vn 0.2212 0.9736 0.0563
vn 0.2639 0.8882 0.3761
vn 0.4478 0.8378 0.3125
vn 0.2212 0.9736 0.0563
vn 0.4478 0.8378 0.3125
vn 0.5097 0.8518 0.1208
vn 0.0984 0.9923 0.0747
vn 0.0847 0.9101 0.4056
vn 0.2639 0.8882 0.3761
vn 0.0984 0.9923 0.0747
vn 0.2639 0.8882 0.3761
vn 0.2212 0.9736 0.0563
vn 0.2639 0.8881 0.3762
vn 0.4004 0.28 0.8725
vn 0.706 0.2595 0.659
vn 0.2639 0.8881 0.3762
vn 0.706 0.2595 0.659
vn 0.4478 0.8377 0.3125
vn 0.2639 0.8882 0.3762
vn 0.0847 0.9101 0.4056
vn 0.0407 0.2948 0.9547
vn 0.2639 0.8882 0.3762
vn 0.0407 0.2948 0.9547
vn 0.4004 0.28 0.8725
vn 0.4479 0.8377 0.3125
vn 0.706 0.2595 0.659
vn 0.9117 0.2167 0.3491
vn 0.4479 0.8377 0.3125
vn 0.9117 0.2167 0.3491
vn 0.5098 0.8518 0.1208
vt 0 0
vt 0 0
vt 0 0
vt 0 0
vt 0 0
vt 0 0
vt 0 0
vt 0 0
vt 0 0
vt 0 0
vt 0 0
vt 0 0
vt 0 0
vt 0 0
vt 0 0
vt 0 0
vt 0 0
vt 0 0
vt 0 0
vt 0 0
vt 0 0
vt 0 0
vt 0 0
vt 0 0
vt 0 0
vt 0 0
vt 0 0
vt 0 0
vt 0 0
vt 0 0
vt 0 0
vt 0 0
vt 0 0
vt 0 0
vt 0 0
vt 0 0
vt 0 0
vt 0 0
vt 0 0
vt 0 0
vt 0 0
vt 0 0
vt 0 0
vt 0 0
vt 0 0
vt 0 0
vt 0 0
vt 0 0
vt 0 0
vt 0 0
vt 0 0
vt 0 0
vt 0 0
vt 0 0
vt 0 0
vt 0 0
vt 0 0
vt 0 0
vt 0 0
vt 0 0
vt 0 0
vt 0 0
vt 0 0
vt 0 0
vt 0 0
vt 0 0
vt 0 0
vt 0 0
vt 0 0
vt 0 0
vt 0 0
vt 0 0
vt 0 0
vt 0 0
vt 0 0
vt 0 0
vt 0 0
vt 0 0
vt 0 0
vt 0 0
vt 0 0
vt 0 0
vt 0 0
vt 0 0
vt 0 0
vt 0 0
vt 0 0
vt 0 0
vt 0 0
vt 0 0
vt 0 0
vt 0 0
vt 0 0
vt 0 0
vt 0 0
vt 0 0
vt 0 0
vt 0 0
vt 0 0
vt 0 0
vt 0 0
vt 0 0
vt 0 0
vt 0 0
vt 0 0
vt 0 0
vt 0 0
vt 0 0
vt 0 0
vt 0 0
vt 0 0
vt 0 0
vt 0 0
vt 0 0
vt 0 0
vt 0 0
vt 0 0
vt 0 0
vt 0 0
vt 0 0
vt 0 0
vt 0 0
vt 0 0
vt 0 0
vt 0 0
vt 0 0
vt 0 0
vt 0 0
vt 0 0
vt 0 0
vt 0 0
vt 0 0
vt 0 0
vt 0 0
vt 0 0
vt 0 0
vt 0 0
vt 0 0
vt 0 0
vt 0 0
vt 0 0
vt 0 0
vt 0 0
vt 0 0
vt 0 0
vt 0 0
vt 0 0
vt 0 0
vt 0 0
vt 0 0
vt 0 0
vt 0 0
vt 0 0
vt 0 0
vt 0 0
vt 0 0
vt 0 0
vt 0 0
vt 0 0
vt 0 0
vt 0 0
vt 0 0
vt 0 0
vt 0 0
vt 0 0
vt 0 0
vt 0 0
vt 0 0
vt 0 0
vt 0 0
vt 0 0
vt 0 0
vt 0 0
vt 0 0
vt 0 0
vt 0 0
vt 0 0
vt 0 0
vt 0 0
vt 0 0
vt 0 0
vt 0 0
vt 0 0
vt 0 0
vt 0 0
vt 0 0
vt 0 0
vt 0 0
vt 0 0
vt 0 0
vt 0 0
vt 0 0
vt 0 0
vt 0 0
vt 0 0
vt 0 0
vt 0 0
vt 0 0
vt 0 0
vt 0 0
vt 0 0
vt 0 0
vt 0 0
vt 0 0
vt 0 0
vt 0 0
vt 0 0
vt 0 0
vt 0 0
vt 0 0
vt 0 0
vt 0 0
vt 0 0
vt 0 0
vt 0 0
vt 0 0
vt 0 0
vt 0 0
vt 0 0
vt 0 0
vt 0 0
vt 0 0
vt 0 0
vt 0 0
vt 0 0
vt 0 0
vt 0 0
vt 0 0
vt 0 0
vt 0 0
vt 0 0
vt 0 0
vt 0 0
vt 0 0
vt 0 0
vt 0 0
vt 0 0
vt 0 0
vt 0 0
vt 0 0
vt 0 0
vt 0 0
vt 0 0
vt 0 0
vt 0 0
vt 0 0
vt 0 0
vt 0 0
vt 0 0
vt 0 0
vt 0 0
vt 0 0
vt 0 0
vt 0 0
vt 0 0
vt 0 0
vt 0 0
vt 0 0
vt 0 0
vt 0 0
vt 0 0
vt 0 0
vt 0 0
vt 0 0
vt 0 0
vt 0 0
vt 0 0
vt 0 0
vt 0 0
vt 0 0
vt 0 0
vt 0 0
vt 0 0
vt 0 0
vt 0 0
vt 0 0
vt 0 0
vt 0 0
vt 0 0
vt 0 0
vt 0 0
vt 0 0
vt 0 0
vt 0 0
vt 0 0
vt 0 0
vt 0 0
vt 0 0
s off
f 1/1/1 2/2/2 3/3/3
f 4/4/4 5/5/5 6/6/6
f 7/7/7 8/8/8 9/9/9
f 10/10/10 11/11/11 12/12/12
f 13/13/13 14/14/14 15/15/15
f 16/16/16 17/17/17 18/18/18
f 19/19/19 20/20/20 21/21/21
f 22/22/22 23/23/23 24/24/24
f 25/25/25 26/26/26 27/27/27
f 28/28/28 29/29/29 30/30/30
f 31/31/31 32/32/32 33/33/33
f 34/34/34 35/35/35 36/36/36
f 37/37/37 38/38/38 39/39/39
f 40/40/40 41/41/41 42/42/42
f 43/43/43 44/44/44 45/45/45
f 46/46/46 47/47/47 48/48/48
f 49/49/49 50/50/50 51/51/51
f 52/52/52 53/53/53 54/54/54
f 55/55/55 56/56/56 57/57/57
f 58/58/58 59/59/59 60/60/60
f 61/61/61 62/62/62 63/63/63
f 64/64/64 65/65/65 66/66/66
f 67/67/67 68/68/68 69/69/69
f 70/70/70 71/71/71 72/72/72
f 73/73/73 74/74/74 75/75/75
f 76/76/76 77/77/77 78/78/78
f 79/79/79 80/80/80 81/81/81
f 82/82/82 83/83/83 84/84/84
f 85/85/85 86/86/86 87/87/87
f 88/88/88 89/89/89 90/90/90
f 91/91/91 92/92/92 93/93/93
f 94/94/94 95/95/95 96/96/96
f 97/97/97 98/98/98 99/99/99
f 100/100/100 101/101/101 102/102/102
f 103/103/103 104/104/104 105/105/105
f 106/106/106 107/107/107 108/108/108
f 109/109/109 110/110/110 111/111/111
f 112/112/112 113/113/113 114/114/114
f 115/115/115 116/116/116 117/117/117
f 118/118/118 119/119/119 120/120/120
f 121/121/121 122/122/122 123/123/123
f 124/124/124 125/125/125 126/126/126
f 127/127/127 128/128/128 129/129/129
f 130/130/130 131/131/131 132/132/132
f 133/133/133 134/134/134 135/135/135
f 136/136/136 137/137/137 138/138/138
f 139/139/139 140/140/140 141/141/141
f 142/142/142 143/143/143 144/144/144
f 145/145/145 146/146/146 147/147/147
f 148/148/148 149/149/149 150/150/150
f 151/151/151 152/152/152 153/153/153
f 154/154/154 155/155/155 156/156/156
f 157/157/157 158/158/158 159/159/159
f 160/160/160 161/161/161 162/162/162
f 163/163/163 164/164/164 165/165/165
f 166/166/166 167/167/167 168/168/168
f 169/169/169 170/170/170 171/171/171
f 172/172/172 173/173/173 174/174/174
f 175/175/175 176/176/176 177/177/177
f 178/178/178 179/179/179 180/180/180
f 181/181/181 182/182/182 183/183/183
f 184/184/184 185/185/185 186/186/186
f 187/187/187 188/188/188 189/189/189
f 190/190/190 191/191/191 192/192/192
f 193/193/193 194/194/194 195/195/195
f 196/196/196 197/197/197 198/198/198
f 199/199/199 200/200/200 201/201/201
f 202/202/202 203/203/203 204/204/204
f 205/205/205 206/206/206 207/207/207
f 208/208/208 209/209/209 210/210/210
f 211/211/211 212/212/212 213/213/213
f 214/214/214 215/215/215 216/216/216
f 217/217/217 218/218/218 219/219/219
f 220/220/220 221/221/221 222/222/222
f 223/223/223 224/224/224 225/225/225
f 226/226/226 227/227/227 228/228/228
f 229/229/229 230/230/230 231/231/231
f 232/232/232 233/233/233 234/234/234
f 235/235/235 236/236/236 237/237/237
f 238/238/238 239/239/239 240/240/240
f 241/241/241 242/242/242 243/243/243
f 244/244/244 245/245/245 246/246/246
f 247/247/247 248/248/248 249/249/249
f 250/250/250 251/251/251 252/252/252
f 253/253/253 254/254/254 255/255/255
f 256/256/256 257/257/257 258/258/258
f 259/259/259 260/260/260 261/261/261
f 262/262/262 263/263/263 264/264/264
f 265/265/265 266/266/266 267/267/267
f 268/268/268 269/269/269 270/270/270
f 271/271/271 272/272/272 273/273/273
f 274/274/274 275/275/275 276/276/276
f 277/277/277 278/278/278 279/279/279
f 280/280/280 281/281/281 282/282/282
f 283/283/283 284/284/284 285/285/285
f 286/286/286 287/287/287 288/288/288
