v 0.311956 0.179673 -0.295954
v 0.31154 0.173449 -0.290604
v 0.354342 0.17271 -0.28995
v 0.311956 0.179673 -0.295954
v 0.354342 0.17271 -0.28995
v 0.354464 0.178866 -0.295955
v 0.318867 0.179763 -0.316742
v 0.311956 0.179673 -0.295954
v 0.354464 0.178866 -0.295955
v 0.318867 0.179763 -0.316742
v 0.354464 0.178866 -0.295955
v 0.354464 0.178882 -0.316744
v 0.390073 0.17837 -0.316742
v 0.354464 0.178882 -0.316744
v 0.354464 0.178866 -0.295955
v 0.390073 0.17837 -0.316742
v 0.354464 0.178866 -0.295955
v 0.396971 0.17801 -0.295954
v 0.396971 0.17801 -0.295954
v 0.354464 0.178866 -0.295955
v 0.354342 0.17271 -0.28995
v 0.396971 0.17801 -0.295954
v 0.354342 0.17271 -0.28995
v 0.397141 0.171775 -0.290604
v 0.408805 0.177462 -0.304299
v 0.413012 0.176749 -0.316732
v 0.390073 0.17837 -0.316742
v 0.408805 0.177462 -0.304299
v 0.390073 0.17837 -0.316742
v 0.396971 0.17801 -0.295954
v 0.408805 0.177462 -0.304299
v 0.396971 0.17801 -0.295954
v 0.397141 0.171775 -0.290604
v 0.408805 0.177462 -0.304299
v 0.397141 0.171775 -0.290604
v 0.412152 0.171061 -0.299955
v 0.397141 0.171775 -0.290604
v 0.354342 0.17271 -0.28995
v 0.354173 0.164103 -0.289744
v 0.397141 0.171775 -0.290604
v 0.354173 0.164103 -0.289744
v 0.397748 0.162838 -0.290297
v 0.412152 0.171061 -0.299955
v 0.397141 0.171775 -0.290604
v 0.397748 0.162838 -0.290297
v 0.412152 0.171061 -0.299955
v 0.397748 0.162838 -0.290297
v 0.411985 0.162611 -0.29989
v 0.418181 0.169947 -0.316742
v 0.412152 0.171061 -0.299955
v 0.411985 0.162611 -0.29989
v 0.418181 0.169947 -0.316742
v 0.411985 0.162611 -0.29989
v 0.418018 0.161641 -0.316742
v 0.410933 0.169498 -0.335485
v 0.418181 0.169947 -0.316742
v 0.418018 0.161641 -0.316742
v 0.410933 0.169498 -0.335485
v 0.418018 0.161641 -0.316742
v 0.410921 0.160606 -0.335376
v 0.396443 0.169306 -0.343632
v 0.410933 0.169498 -0.335485
v 0.410921 0.160606 -0.335376
v 0.396443 0.169306 -0.343632
v 0.410921 0.160606 -0.335376
v 0.396906 0.160277 -0.343596
v 0.354292 0.169906 -0.344198
v 0.396443 0.169306 -0.343632
v 0.396906 0.160277 -0.343596
v 0.354292 0.169906 -0.344198
v 0.396906 0.160277 -0.343596
v 0.354109 0.160757 -0.344368
v 0.354292 0.169906 -0.344198
v 0.354109 0.160757 -0.344368
v 0.311325 0.161951 -0.343596
v 0.354292 0.169906 -0.344198
v 0.311325 0.161951 -0.343596
v 0.312142 0.170955 -0.343632
v 0.312142 0.170955 -0.343632
v 0.311325 0.161951 -0.343596
v 0.297339 0.162828 -0.335376
v 0.312142 0.170955 -0.343632
v 0.297339 0.162828 -0.335376
v 0.297671 0.171714 -0.335485
v 0.297671 0.171714 -0.335485
v 0.297339 0.162828 -0.335376
v 0.290285 0.16414 -0.316742
v 0.297671 0.171714 -0.335485
v 0.290285 0.16414 -0.316742
v 0.290447 0.172446 -0.316742
v 0.290447 0.172446 -0.316742
v 0.290285 0.16414 -0.316742
v 0.296352 0.164873 -0.29989
v 0.290447 0.172446 -0.316742
v 0.296352 0.164873 -0.29989
v 0.296514 0.173323 -0.299955
v 0.296514 0.173323 -0.299955
v 0.296352 0.164873 -0.29989
v 0.310585 0.164544 -0.290297
v 0.296514 0.173323 -0.299955
v 0.310585 0.164544 -0.290297
v 0.31154 0.173449 -0.290604
v 0.31154 0.173449 -0.290604
v 0.310585 0.164544 -0.290297
v 0.354173 0.164103 -0.289744
v 0.31154 0.173449 -0.290604
v 0.354173 0.164103 -0.289744
v 0.354342 0.17271 -0.28995
v 0.300116 0.179588 -0.304299
v 0.296514 0.173323 -0.299955
v 0.31154 0.173449 -0.290604
v 0.300116 0.179588 -0.304299
v 0.31154 0.173449 -0.290604
v 0.311956 0.179673 -0.295954
v 0.295881 0.17904 -0.316732
v 0.290447 0.172446 -0.316742
v 0.296514 0.173323 -0.299955
v 0.295881 0.17904 -0.316732
v 0.296514 0.173323 -0.299955
v 0.300116 0.179588 -0.304299
v 0.300116 0.179588 -0.304299
v 0.311956 0.179673 -0.295954
v 0.318867 0.179763 -0.316742
v 0.300116 0.179588 -0.304299
v 0.318867 0.179763 -0.316742
v 0.295881 0.17904 -0.316732
v 0.318867 0.179763 -0.316742
v 0.311974 0.177376 -0.338037
v 0.301386 0.178062 -0.331445
v 0.318867 0.179763 -0.316742
v 0.301386 0.178062 -0.331445
v 0.295881 0.17904 -0.316732
v 0.301386 0.178062 -0.331445
v 0.297671 0.171714 -0.335485
v 0.290447 0.172446 -0.316742
v 0.301386 0.178062 -0.331445
v 0.290447 0.172446 -0.316742
v 0.295881 0.17904 -0.316732
v 0.311974 0.177376 -0.338037
v 0.312142 0.170955 -0.343632
v 0.297671 0.171714 -0.335485
v 0.311974 0.177376 -0.338037
v 0.297671 0.171714 -0.335485
v 0.301386 0.178062 -0.331445
v 0.354406 0.175941 -0.339562
v 0.354292 0.169906 -0.344198
v 0.312142 0.170955 -0.343632
v 0.354406 0.175941 -0.339562
v 0.312142 0.170955 -0.343632
v 0.311974 0.177376 -0.338037
v 0.311974 0.177376 -0.338037
v 0.318867 0.179763 -0.316742
v 0.354464 0.178882 -0.316744
v 0.311974 0.177376 -0.338037
v 0.354464 0.178882 -0.316744
v 0.354406 0.175941 -0.339562
v 0.396862 0.175715 -0.338037
v 0.354406 0.175941 -0.339562
v 0.354464 0.178882 -0.316744
v 0.396862 0.175715 -0.338037
v 0.354464 0.178882 -0.316744
v 0.390073 0.17837 -0.316742
v 0.354406 0.175941 -0.339562
v 0.396862 0.175715 -0.338037
v 0.396443 0.169306 -0.343632
v 0.354406 0.175941 -0.339562
v 0.396443 0.169306 -0.343632
v 0.354292 0.169906 -0.344198
v 0.390073 0.17837 -0.316742
v 0.413012 0.176749 -0.316732
v 0.407471 0.175987 -0.331445
v 0.390073 0.17837 -0.316742
v 0.407471 0.175987 -0.331445
v 0.396862 0.175715 -0.338037
v 0.396862 0.175715 -0.338037
v 0.407471 0.175987 -0.331445
v 0.410933 0.169498 -0.335485
v 0.396862 0.175715 -0.338037
v 0.410933 0.169498 -0.335485
v 0.396443 0.169306 -0.343632
v 0.407471 0.175987 -0.331445
v 0.413012 0.176749 -0.316732
v 0.418181 0.169947 -0.316742
v 0.407471 0.175987 -0.331445
v 0.418181 0.169947 -0.316742
v 0.410933 0.169498 -0.335485
v 0.413012 0.176749 -0.316732
v 0.408805 0.177462 -0.304299
v 0.412152 0.171061 -0.299955
v 0.413012 0.176749 -0.316732
v 0.412152 0.171061 -0.299955
v 0.418181 0.169947 -0.316742
vn -0.0434 0.9565 0.2885
vn -0.1378 0.3542 0.9249
vn 0.0072 0.3661 0.9305
vn -0.0434 0.9565 0.2885
vn 0.0072 0.3661 0.9305
vn 0.0189 0.9687 0.2475
vn 0.016 0.9981 -0.0599
vn -0.0434 0.9565 0.2885
vn 0.0189 0.9687 0.2475
vn 0.016 0.9981 -0.0599
vn 0.0189 0.9687 0.2475
vn 0.0195 0.9979 -0.0613
vn 0.023 0.9979 -0.0599
vn 0.0195 0.9979 -0.0613
vn 0.0189 0.9687 0.2475
vn 0.023 0.9979 -0.0599
vn 0.0189 0.9687 0.2475
vn 0.0808 0.9541 0.2885
vn 0.0808 0.9541 0.2885
vn 0.019 0.9687 0.2475
vn 0.0072 0.3661 0.9305
vn 0.0808 0.9541 0.2885
vn 0.0072 0.3661 0.9305
vn 0.1515 0.3486 0.925
vn 0.3029 0.938 0.1687
vn 0.376 0.9248 -0.0587
vn 0.023 0.9979 -0.0599
vn 0.3029 0.938 0.1687
vn 0.023 0.9979 -0.0599
vn 0.0808 0.9541 0.2885
vn 0.3029 0.938 0.1687
vn 0.0808 0.9541 0.2885
vn 0.1515 0.3486 0.925
vn 0.3029 0.938 0.1687
vn 0.1515 0.3486 0.925
vn 0.7507 0.2901 0.5936
vn 0.1515 0.3486 0.925
vn 0.0072 0.3661 0.9306
vn 0.0006 0.0299 0.9996
vn 0.1515 0.3486 0.925
vn 0.0006 0.0299 0.9996
vn 0.1824 0.0313 0.9827
vn 0.7506 0.2901 0.5936
vn 0.1515 0.3486 0.925
vn 0.1825 0.0313 0.9827
vn 0.7506 0.2901 0.5936
vn 0.1825 0.0313 0.9827
vn 0.5441 0.0317 0.8384
vn 0.9641 0.2619 -0.0446
vn 0.7507 0.2901 0.5936
vn 0.9408 -0.0172 0.3384
vn 0.9641 0.2619 -0.0446
vn 0.9408 -0.0172 0.3384
vn 0.9408 -0.0172 0.3384
vn 0.7435 0.2704 -0.6116
vn 0.9641 0.2619 -0.0446
vn 0.9337 -0.0118 -0.3579
vn 0.7435 0.2704 -0.6116
vn 0.9337 -0.0118 -0.3579
vn 0.9337 -0.0118 -0.3579
vn 0.1338 0.3076 -0.9421
vn 0.7435 0.2704 -0.6116
vn 0.4979 0.0055 -0.8672
vn 0.1338 0.3076 -0.9421
vn 0.4979 0.0055 -0.8672
vn 0.1588 0.0083 -0.9873
vn 0.0062 0.3179 -0.9481
vn 0.1338 0.3076 -0.9421
vn 0.1587 0.0083 -0.9873
vn 0.0062 0.3179 -0.9481
vn 0.1587 0.0083 -0.9873
vn 0.0002 0.0079 -1
vn 0.0062 0.318 -0.9481
vn 0.0002 0.0079 -1
vn -0.1583 0.0134 -0.9873
vn 0.0062 0.318 -0.9481
vn -0.1583 0.0134 -0.9873
vn -0.1216 0.3125 -0.9421
vn -0.1216 0.3126 -0.9421
vn -0.1583 0.0134 -0.9873
vn -0.4973 0.0249 -0.8672
vn -0.1216 0.3126 -0.9421
vn -0.4973 0.0249 -0.8672
vn -0.7325 0.2992 -0.6115
vn -0.7325 0.2992 -0.6115
vn -0.9334 0.0246 -0.3579
vn -0.9334 0.0246 -0.3579
vn -0.7325 0.2992 -0.6115
vn -0.9334 0.0246 -0.3579
vn -0.9531 0.2994 -0.0446
vn -0.9531 0.2994 -0.0446
vn -0.9408 0.0195 0.3384
vn -0.9408 0.0195 0.3384
vn -0.9531 0.2994 -0.0446
vn -0.9408 0.0195 0.3384
vn -0.7388 0.3193 0.5935
vn -0.7388 0.3193 0.5935
vn -0.5425 0.0529 0.8384
vn -0.1811 0.0384 0.9827
vn -0.7388 0.3193 0.5935
vn -0.1811 0.0384 0.9827
vn -0.1378 0.3542 0.925
vn -0.1378 0.3542 0.925
vn -0.1811 0.0384 0.9827
vn 0.0006 0.0299 0.9996
vn -0.1378 0.3542 0.925
vn 0.0006 0.0299 0.9996
vn 0.0072 0.3661 0.9306
vn -0.2659 0.9491 0.1686
vn -0.7388 0.3193 0.5935
vn -0.1378 0.3542 0.925
vn -0.2659 0.9491 0.1686
vn -0.1378 0.3542 0.925
vn -0.0434 0.9565 0.2885
vn -0.3395 0.9388 -0.0586
vn -0.9531 0.2994 -0.0446
vn -0.7388 0.3193 0.5935
vn -0.3395 0.9388 -0.0586
vn -0.7388 0.3193 0.5935
vn -0.2659 0.9491 0.1686
vn -0.2659 0.9492 0.1686
vn -0.0434 0.9565 0.2885
vn 0.016 0.9981 -0.0599
vn -0.2659 0.9492 0.1686
vn 0.016 0.9981 -0.0599
vn -0.3394 0.9388 -0.0586
vn 0.016 0.9981 -0.0599
vn -0.0302 0.9379 -0.3455
vn -0.2581 0.931 -0.258
vn 0.016 0.9981 -0.0599
vn -0.2581 0.931 -0.258
vn -0.3395 0.9388 -0.0586
vn -0.2581 0.931 -0.258
vn -0.7325 0.2992 -0.6115
vn -0.9531 0.2994 -0.0446
vn -0.2581 0.931 -0.258
vn -0.9531 0.2994 -0.0446
vn -0.3395 0.9388 -0.0586
vn -0.0302 0.9379 -0.3455
vn -0.1216 0.3126 -0.9421
vn -0.7325 0.2992 -0.6115
vn -0.0302 0.9379 -0.3455
vn -0.7325 0.2992 -0.6115
vn -0.2581 0.931 -0.258
vn 0.0185 0.9431 -0.332
vn 0.0062 0.318 -0.9481
vn -0.1216 0.3126 -0.9421
vn 0.0185 0.9431 -0.332
vn -0.1216 0.3126 -0.9421
vn -0.0302 0.9379 -0.3455
vn -0.0302 0.9379 -0.3455
vn 0.016 0.9981 -0.0599
vn 0.0195 0.9979 -0.0613
vn -0.0302 0.9379 -0.3455
vn 0.0195 0.9979 -0.0613
vn 0.0185 0.9431 -0.332
vn 0.0668 0.9361 -0.3455
vn 0.0185 0.9431 -0.332
vn 0.0195 0.9979 -0.0613
vn 0.0668 0.9361 -0.3455
vn 0.0195 0.9979 -0.0613
vn 0.023 0.9979 -0.0599
vn 0.0185 0.9431 -0.332
vn 0.0668 0.936 -0.3455
vn 0.1338 0.3076 -0.9421
vn 0.0185 0.9431 -0.332
vn 0.1338 0.3076 -0.9421
vn 0.0062 0.318 -0.9481
vn 0.023 0.9979 -0.0599
vn 0.376 0.9248 -0.0587
vn 0.2944 0.9202 -0.258
vn 0.023 0.9979 -0.0599
vn 0.2944 0.9202 -0.258
vn 0.0668 0.9361 -0.3455
vn 0.0668 0.936 -0.3455
vn 0.2944 0.9202 -0.258
vn 0.7435 0.2704 -0.6116
vn 0.0668 0.936 -0.3455
vn 0.7435 0.2704 -0.6116
vn 0.1338 0.3076 -0.9421
vn 0.2944 0.9202 -0.258
vn 0.376 0.9248 -0.0587
vn 0.9641 0.2619 -0.0446
vn 0.2944 0.9202 -0.258
vn 0.9641 0.2619 -0.0446
vn 0.7435 0.2704 -0.6116
vn 0.3759 0.9248 -0.0587
vn 0.3029 0.938 0.1687
vn 0.7507 0.2901 0.5936
vn 0.3759 0.9248 -0.0587
vn 0.7507 0.2901 0.5936
vn 0.9641 0.2619 -0.0446
vt 0 0
vt 0 0.481997
vt 1 0.481997
vt 0 0
vt 1 0.481997
vt 1 0
vt 0 0.526712
vt 0 1
vt 1 1
vt 0 0.526712
vt 1 1
vt 1 0.526712
vt 0 0.526712
vt 1 0.526712
vt 1 1
vt 0 0.526712
vt 1 1
vt 0 1
vt 0 0
vt 1 0
vt 1 0.481997
vt 0 0
vt 1 0.481997
vt 0 0.481997
vt 0 0
vt 0.473288 0
vt 0.473288 1
vt 0 0
vt 0.473288 1
vt 0 1
vt 0 0
vt 1 0
vt 1 0.481997
vt 0 0
vt 1 0.481997
vt 0 0.481997
vt 0 0
vt 1 0
vt 1 1
vt 0 0
vt 1 1
vt 0 1
vt 0 0
vt 1 0
vt 1 1
vt 0 0
vt 1 1
vt 0 1
vt 0 0
vt 1 0
vt 1 1
vt 0 0
vt 1 1
vt 0 1
vt 0 0
vt 1 0
vt 1 1
vt 0 0
vt 1 1
vt 0 1
vt 0 0
vt 1 0
vt 1 1
vt 0 0
vt 1 1
vt 0 1
vt 0 0
vt 1 0
vt 1 1
vt 0 0
vt 1 1
vt 0 1
vt 0 0
vt 0 1
vt 1 1
vt 0 0
vt 1 1
vt 1 0
vt 0 0
vt 0 1
vt 1 1
vt 0 0
vt 1 1
vt 1 0
vt 0 0
vt 0 1
vt 1 1
vt 0 0
vt 1 1
vt 1 0
vt 0 0
vt 0 1
vt 1 1
vt 0 0
vt 1 1
vt 1 0
vt 0 0
vt 0 1
vt 1 1
vt 0 0
vt 1 1
vt 1 0
vt 0 0
vt 0 1
vt 1 1
vt 0 0
vt 1 1
vt 1 0
vt 0 0
vt 0 0.481997
vt 1 0.481997
vt 0 0
vt 1 0.481997
vt 1 0
vt 0 0
vt 0 0.481997
vt 1 0.481997
vt 0 0
vt 1 0.481997
vt 1 0
vt 0 0
vt 0 1
vt 0.473288 1
vt 0 0
vt 0.473288 1
vt 0.473288 0
vt 0.473288 1
vt 1 1
vt 1 0
vt 0.473288 1
vt 1 0
vt 0.473288 0
vt 0 0
vt 0 0.481997
vt 1 0.481997
vt 0 0
vt 1 0.481997
vt 1 0
vt 0 0
vt 0 0.481997
vt 1 0.481997
vt 0 0
vt 1 0.481997
vt 1 0
vt 0 0
vt 0 0.481997
vt 1 0.481997
vt 0 0
vt 1 0.481997
vt 1 0
vt 0 0
vt 0 0.526712
vt 1 0.526712
vt 0 0
vt 1 0.526712
vt 1 0
vt 0 0
vt 1 0
vt 1 0.526712
vt 0 0
vt 1 0.526712
vt 0 0.526712
vt 0 0
vt 1 0
vt 1 0.481997
vt 0 0
vt 1 0.481997
vt 0 0.481997
vt 0.473288 1
vt 0.473288 0
vt 1 0
vt 0.473288 1
vt 1 0
vt 1 1
vt 0 0
vt 1 0
vt 1 0.481997
vt 0 0
vt 1 0.481997
vt 0 0.481997
vt 0 0
vt 1 0
vt 1 0.481997
vt 0 0
vt 1 0.481997
vt 0 0.481997
vt 0 0
vt 1 0
vt 1 0.481997
vt 0 0
vt 1 0.481997
vt 0 0.481997
s off
f 1/1/1 2/2/2 3/3/3
f 4/4/4 5/5/5 6/6/6
f 7/7/7 8/8/8 9/9/9
f 10/10/10 11/11/11 12/12/12
f 13/13/13 14/14/14 15/15/15
f 16/16/16 17/17/17 18/18/18
f 19/19/19 20/20/20 21/21/21
f 22/22/22 23/23/23 24/24/24
f 25/25/25 26/26/26 27/27/27
f 28/28/28 29/29/29 30/30/30
f 31/31/31 32/32/32 33/33/33
f 34/34/34 35/35/35 36/36/36
f 37/37/37 38/38/38 39/39/39
f 40/40/40 41/41/41 42/42/42
f 43/43/43 44/44/44 45/45/45
f 46/46/46 47/47/47 48/48/48
f 49/49/49 50/50/50 51/51/51
f 52/52/52 53/53/53 54/54/54
f 55/55/55 56/56/56 57/57/57
f 58/58/58 59/59/59 60/60/60
f 61/61/61 62/62/62 63/63/63
f 64/64/64 65/65/65 66/66/66
f 67/67/67 68/68/68 69/69/69
f 70/70/70 71/71/71 72/72/72
f 73/73/73 74/74/74 75/75/75
f 76/76/76 77/77/77 78/78/78
f 79/79/79 80/80/80 81/81/81
f 82/82/82 83/83/83 84/84/84
f 85/85/85 86/86/86 87/87/87
f 88/88/88 89/89/89 90/90/90
f 91/91/91 92/92/92 93/93/93
f 94/94/94 95/95/95 96/96/96
f 97/97/97 98/98/98 99/99/99
f 100/100/100 101/101/101 102/102/102
f 103/103/103 104/104/104 105/105/105
f 106/106/106 107/107/107 108/108/108
f 109/109/109 110/110/110 111/111/111
f 112/112/112 113/113/113 114/114/114
f 115/115/115 116/116/116 117/117/117
f 118/118/118 119/119/119 120/120/120
f 121/121/121 122/122/122 123/123/123
f 124/124/124 125/125/125 126/126/126
f 127/127/127 128/128/128 129/129/129
f 130/130/130 131/131/131 132/132/132
f 133/133/133 134/134/134 135/135/135
f 136/136/136 137/137/137 138/138/138
f 139/139/139 140/140/140 141/141/141
f 142/142/142 143/143/143 144/144/144
f 145/145/145 146/146/146 147/147/147
f 148/148/148 149/149/149 150/150/150
f 151/151/151 152/152/152 153/153/153
f 154/154/154 155/155/155 156/156/156
f 157/157/157 158/158/158 159/159/159
f 160/160/160 161/161/161 162/162/162
f 163/163/163 164/164/164 165/165/165
f 166/166/166 167/167/167 168/168/168
f 169/169/169 170/170/170 171/171/171
f 172/172/172 173/173/173 174/174/174
f 175/175/175 176/176/176 177/177/177
f 178/178/178 179/179/179 180/180/180
f 181/181/181 182/182/182 183/183/183
f 184/184/184 185/185/185 186/186/186
f 187/187/187 188/188/188 189/189/189
f 190/190/190 191/191/191 192/192/192
