v 0.723647 0.16771 -0.143814
v 0.700011 0.170416 -0.146589
v 0.710622 0.167209 -0.130838
v 0.723647 0.16771 -0.143814
v 0.710622 0.167209 -0.130838
v 0.725269 0.162621 -0.119872
v 0.723647 0.16771 -0.143814
v 0.722586 0.169408 -0.167724
v 0.695651 0.171814 -0.167724
v 0.723647 0.16771 -0.143814
v 0.695651 0.171814 -0.167724
v 0.700011 0.170416 -0.146589
v 0.723647 0.16771 -0.143814
v 0.746767 0.162218 -0.142021
v 0.74725 0.164021 -0.167724
v 0.723647 0.16771 -0.143814
v 0.74725 0.164021 -0.167724
v 0.722586 0.169408 -0.167724
v 0.723647 0.16771 -0.143814
v 0.725269 0.162621 -0.119872
v 0.745255 0.156578 -0.115507
v 0.723647 0.16771 -0.143814
v 0.745255 0.156578 -0.115507
v 0.746767 0.162218 -0.142021
v 0.720651 0.152783 -0.11231
v 0.742227 0.145273 -0.10749
v 0.745255 0.156578 -0.115507
v 0.720651 0.152783 -0.11231
v 0.745255 0.156578 -0.115507
v 0.725269 0.162621 -0.119872
v 0.710622 0.167209 -0.130838
v 0.703435 0.15923 -0.124444
v 0.720651 0.152783 -0.11231
v 0.710622 0.167209 -0.130838
v 0.720651 0.152783 -0.11231
v 0.725269 0.162621 -0.119872
v 0.738416 0.131027 -0.107254
v 0.742227 0.145273 -0.10749
v 0.720651 0.152783 -0.11231
v 0.738416 0.131027 -0.107254
v 0.720651 0.152783 -0.11231
v 0.718396 0.137365 -0.111224
v 0.720651 0.152783 -0.11231
v 0.703435 0.15923 -0.124444
v 0.699238 0.143612 -0.123779
v 0.720651 0.152783 -0.11231
v 0.699238 0.143612 -0.123779
v 0.718396 0.137365 -0.111224
v 0.76479 0.137788 -0.111974
v 0.742227 0.145273 -0.10749
v 0.738416 0.131027 -0.107254
v 0.76479 0.137788 -0.111974
v 0.738416 0.131027 -0.107254
v 0.761844 0.123519 -0.112068
v 0.783416 0.131473 -0.12483
v 0.76479 0.137788 -0.111974
v 0.761844 0.123519 -0.112068
v 0.783416 0.131473 -0.12483
v 0.761844 0.123519 -0.112068
v 0.780092 0.117767 -0.124833
v 0.79524 0.126499 -0.142743
v 0.783416 0.131473 -0.12483
v 0.780092 0.117767 -0.124833
v 0.79524 0.126499 -0.142743
v 0.780092 0.117767 -0.124833
v 0.792571 0.113814 -0.143755
v 0.797525 0.112205 -0.167724
v 0.80096 0.125929 -0.167723
v 0.79524 0.126499 -0.142743
v 0.797525 0.112205 -0.167724
v 0.79524 0.126499 -0.142743
v 0.792571 0.113814 -0.143755
v 0.796716 0.127689 -0.191615
v 0.80096 0.125929 -0.167723
v 0.797525 0.112205 -0.167724
v 0.796716 0.127689 -0.191615
v 0.797525 0.112205 -0.167724
v 0.794053 0.113223 -0.189247
v 0.783997 0.132348 -0.211783
v 0.796716 0.127689 -0.191615
v 0.794053 0.113223 -0.189247
v 0.783997 0.132348 -0.211783
v 0.794053 0.113223 -0.189247
v 0.782542 0.116811 -0.209401
v 0.765575 0.139253 -0.224691
v 0.783997 0.132348 -0.211783
v 0.782542 0.116811 -0.209401
v 0.765575 0.139253 -0.224691
v 0.782542 0.116811 -0.209401
v 0.763131 0.12298 -0.224281
v 0.738388 0.130947 -0.229711
v 0.742633 0.146789 -0.229321
v 0.765575 0.139253 -0.224691
v 0.738388 0.130947 -0.229711
v 0.765575 0.139253 -0.224691
v 0.763131 0.12298 -0.224281
v 0.719746 0.154778 -0.223722
v 0.742633 0.146789 -0.229321
v 0.738388 0.130947 -0.229711
v 0.719746 0.154778 -0.223722
v 0.738388 0.130947 -0.229711
v 0.715686 0.138402 -0.224545
v 0.70137 0.160131 -0.21019
v 0.719746 0.154778 -0.223722
v 0.715686 0.138402 -0.224545
v 0.70137 0.160131 -0.21019
v 0.715686 0.138402 -0.224545
v 0.696752 0.144644 -0.210521
v 0.689614 0.163863 -0.19077
v 0.70137 0.160131 -0.21019
v 0.696752 0.144644 -0.210521
v 0.689614 0.163863 -0.19077
v 0.696752 0.144644 -0.210521
v 0.684243 0.148752 -0.189088
v 0.680847 0.149821 -0.167724
v 0.685982 0.165825 -0.167724
v 0.689614 0.163863 -0.19077
v 0.680847 0.149821 -0.167724
v 0.689614 0.163863 -0.19077
v 0.684243 0.148752 -0.189088
v 0.690959 0.16375 -0.143316
v 0.685982 0.165825 -0.167724
v 0.680847 0.149821 -0.167724
v 0.690959 0.16375 -0.143316
v 0.680847 0.149821 -0.167724
v 0.686266 0.147933 -0.142598
v 0.703435 0.15923 -0.124444
v 0.690959 0.16375 -0.143316
v 0.686266 0.147933 -0.142598
v 0.703435 0.15923 -0.124444
v 0.686266 0.147933 -0.142598
v 0.699238 0.143612 -0.123779
v 0.700011 0.170416 -0.146589
v 0.695651 0.171814 -0.167724
v 0.685982 0.165825 -0.167724
v 0.700011 0.170416 -0.146589
v 0.685982 0.165825 -0.167724
v 0.690959 0.16375 -0.143316
v 0.700011 0.170416 -0.146589
v 0.690959 0.16375 -0.143316
v 0.703435 0.15923 -0.124444
v 0.700011 0.170416 -0.146589
v 0.703435 0.15923 -0.124444
v 0.710622 0.167209 -0.130838
v 0.689614 0.163863 -0.19077
v 0.685982 0.165825 -0.167724
v 0.695651 0.171814 -0.167724
v 0.689614 0.163863 -0.19077
v 0.695651 0.171814 -0.167724
v 0.69822 0.170478 -0.188666
v 0.695651 0.171814 -0.167724
v 0.722586 0.169408 -0.167724
v 0.722604 0.168173 -0.190537
v 0.695651 0.171814 -0.167724
v 0.722604 0.168173 -0.190537
v 0.69822 0.170478 -0.188666
v 0.722604 0.168173 -0.190537
v 0.723605 0.16322 -0.215729
v 0.708965 0.167115 -0.206141
v 0.722604 0.168173 -0.190537
v 0.708965 0.167115 -0.206141
v 0.69822 0.170478 -0.188666
v 0.708965 0.167115 -0.206141
v 0.70137 0.160131 -0.21019
v 0.689614 0.163863 -0.19077
v 0.708965 0.167115 -0.206141
v 0.689614 0.163863 -0.19077
v 0.69822 0.170478 -0.188666
v 0.723605 0.16322 -0.215729
v 0.719746 0.154778 -0.223722
v 0.70137 0.160131 -0.21019
v 0.723605 0.16322 -0.215729
v 0.70137 0.160131 -0.21019
v 0.708965 0.167115 -0.206141
v 0.723605 0.16322 -0.215729
v 0.745449 0.157298 -0.218935
v 0.742633 0.146789 -0.229321
v 0.723605 0.16322 -0.215729
v 0.742633 0.146789 -0.229321
v 0.719746 0.154778 -0.223722
v 0.746836 0.162482 -0.192553
v 0.745449 0.157298 -0.218935
v 0.723605 0.16322 -0.215729
v 0.746836 0.162482 -0.192553
v 0.723605 0.16322 -0.215729
v 0.722604 0.168173 -0.190537
v 0.770507 0.153532 -0.191938
v 0.766207 0.150461 -0.215863
v 0.745449 0.157298 -0.218935
v 0.770507 0.153532 -0.191938
v 0.745449 0.157298 -0.218935
v 0.746836 0.162482 -0.192553
v 0.765575 0.139253 -0.224691
v 0.742633 0.146789 -0.229321
v 0.745449 0.157298 -0.218935
v 0.765575 0.139253 -0.224691
v 0.745449 0.157298 -0.218935
v 0.766207 0.150461 -0.215863
v 0.770507 0.153532 -0.191938
v 0.791724 0.142529 -0.18885
v 0.780762 0.145705 -0.206099
v 0.770507 0.153532 -0.191938
v 0.780762 0.145705 -0.206099
v 0.766207 0.150461 -0.215863
v 0.780762 0.145705 -0.206099
v 0.783997 0.132348 -0.211783
v 0.765575 0.139253 -0.224691
v 0.780762 0.145705 -0.206099
v 0.765575 0.139253 -0.224691
v 0.766207 0.150461 -0.215863
v 0.791724 0.142529 -0.18885
v 0.796716 0.127689 -0.191615
v 0.783997 0.132348 -0.211783
v 0.791724 0.142529 -0.18885
v 0.783997 0.132348 -0.211783
v 0.780762 0.145705 -0.206099
v 0.771759 0.154602 -0.167724
v 0.796087 0.141062 -0.167724
v 0.791724 0.142529 -0.18885
v 0.771759 0.154602 -0.167724
v 0.791724 0.142529 -0.18885
v 0.770507 0.153532 -0.191938
v 0.791724 0.142529 -0.18885
v 0.796087 0.141062 -0.167724
v 0.80096 0.125929 -0.167723
v 0.791724 0.142529 -0.18885
v 0.80096 0.125929 -0.167723
v 0.796716 0.127689 -0.191615
v 0.79524 0.126499 -0.142743
v 0.80096 0.125929 -0.167723
v 0.796087 0.141062 -0.167724
v 0.79524 0.126499 -0.142743
v 0.796087 0.141062 -0.167724
v 0.791016 0.142795 -0.146475
v 0.769581 0.153645 -0.142886
v 0.791016 0.142795 -0.146475
v 0.796087 0.141062 -0.167724
v 0.769581 0.153645 -0.142886
v 0.796087 0.141062 -0.167724
v 0.771759 0.154602 -0.167724
v 0.74725 0.164021 -0.167724
v 0.746767 0.162218 -0.142021
v 0.769581 0.153645 -0.142886
v 0.74725 0.164021 -0.167724
v 0.769581 0.153645 -0.142886
v 0.771759 0.154602 -0.167724
v 0.746836 0.162482 -0.192553
v 0.74725 0.164021 -0.167724
v 0.771759 0.154602 -0.167724
v 0.746836 0.162482 -0.192553
v 0.771759 0.154602 -0.167724
v 0.770507 0.153532 -0.191938
v 0.722586 0.169408 -0.167724
v 0.74725 0.164021 -0.167724
v 0.746836 0.162482 -0.192553
v 0.722586 0.169408 -0.167724
v 0.746836 0.162482 -0.192553
v 0.722604 0.168173 -0.190537
v 0.769581 0.153645 -0.142886
v 0.76614 0.149958 -0.119738
v 0.780593 0.145667 -0.130285
v 0.769581 0.153645 -0.142886
v 0.780593 0.145667 -0.130285
v 0.791016 0.142795 -0.146475
v 0.746767 0.162218 -0.142021
v 0.745255 0.156578 -0.115507
v 0.76614 0.149958 -0.119738
v 0.746767 0.162218 -0.142021
v 0.76614 0.149958 -0.119738
v 0.769581 0.153645 -0.142886
v 0.76614 0.149958 -0.119738
v 0.76479 0.137788 -0.111974
v 0.783416 0.131473 -0.12483
v 0.76614 0.149958 -0.119738
v 0.783416 0.131473 -0.12483
v 0.780593 0.145667 -0.130285
v 0.76614 0.149958 -0.119738
v 0.745255 0.156578 -0.115507
v 0.742227 0.145273 -0.10749
v 0.76614 0.149958 -0.119738
v 0.742227 0.145273 -0.10749
v 0.76479 0.137788 -0.111974
v 0.780593 0.145667 -0.130285
v 0.783416 0.131473 -0.12483
v 0.79524 0.126499 -0.142743
v 0.780593 0.145667 -0.130285
v 0.79524 0.126499 -0.142743
v 0.791016 0.142795 -0.146475
vn 0.174 0.9779 0.1161
vn -0.1328 0.9746 0.1802
vn -0.0993 0.9222 0.3738
vn 0.174 0.9779 0.1161
vn -0.0993 0.9222 0.3738
vn 0.0793 0.8901 0.4489
vn 0.174 0.9779 0.1161
vn 0.1574 0.9875 0.0031
vn -0.1374 0.9905 0.0095
vn 0.174 0.9779 0.1161
vn -0.1374 0.9905 0.0095
vn -0.1327 0.9746 0.1802
vn 0.174 0.9779 0.1161
vn 0.2885 0.9478 0.136
vn 0.2904 0.9569 0.0044
vn 0.174 0.9779 0.1161
vn 0.2904 0.9569 0.0044
vn 0.1574 0.9875 0.0031
vn 0.174 0.9779 0.1161
vn 0.0793 0.8901 0.4488
vn 0.2589 0.8365 0.4829
vn 0.174 0.9779 0.1161
vn 0.2589 0.8365 0.4829
vn 0.2885 0.9478 0.136
vn -0.2719 0.3638 0.8909
vn 0.0886 0.2715 0.9583
vn 0.2589 0.8365 0.4829
vn -0.2719 0.3638 0.8909
vn 0.2589 0.8365 0.4829
vn 0.0793 0.8901 0.4489
vn -0.0994 0.9222 0.3738
vn -0.5652 0.4403 0.6976
vn -0.2719 0.3638 0.8909
vn -0.0994 0.9222 0.3738
vn -0.2719 0.3638 0.8909
vn 0.0793 0.8901 0.4489
vn 0.0145 0.0173 0.9997
vn 0.0886 0.2715 0.9584
vn -0.2719 0.3638 0.8909
vn 0.0145 0.0173 0.9997
vn -0.2719 0.3638 0.8909
vn -0.3413 0.1169 0.9326
vn -0.2719 0.3638 0.8909
vn -0.5653 0.4402 0.6977
vn -0.656 0.2028 0.727
vn -0.2719 0.3638 0.8909
vn -0.656 0.2028 0.727
vn -0.3414 0.1169 0.9326
vn 0.4193 0.1703 0.8917
vn 0.0886 0.2715 0.9584
vn 0.0145 0.0173 0.9997
vn 0.4193 0.1703 0.8917
vn 0.0145 0.0173 0.9997
vn 0.3733 -0.084 0.9239
vn 0.7298 0.0973 0.6767
vn 0.4193 0.1703 0.8917
vn 0.3733 -0.084 0.9239
vn 0.7298 0.0973 0.6767
vn 0.3733 -0.084 0.9239
vn 0.6763 -0.1653 0.7178
vn 0.9242 0.0489 0.3788
vn 0.7298 0.0972 0.6767
vn 0.6764 -0.1653 0.7177
vn 0.9242 0.0489 0.3788
vn 0.6764 -0.1653 0.7177
vn 0.8984 -0.2208 0.3796
vn 0.9731 -0.2295 0.0224
vn 0.9984 0.0504 0.0273
vn 0.9242 0.0489 0.3788
vn 0.9731 -0.2295 0.0224
vn 0.9242 0.0489 0.3788
vn 0.8984 -0.2208 0.3796
vn 0.9319 0.0621 -0.3574
vn 0.9984 0.0504 0.0273
vn 0.9731 -0.2295 0.0224
vn 0.9319 0.0621 -0.3574
vn 0.9731 -0.2295 0.0224
vn 0.9131 -0.2149 -0.3465
vn 0.7347 0.0932 -0.672
vn 0.9319 0.062 -0.3574
vn 0.9131 -0.2149 -0.3465
vn 0.7347 0.0932 -0.672
vn 0.9131 -0.2149 -0.3465
vn 0.7189 -0.1757 -0.6726
vn 0.4229 0.1927 -0.8854
vn 0.7346 0.0932 -0.672
vn 0.7189 -0.1757 -0.6726
vn 0.4229 0.1927 -0.8854
vn 0.7189 -0.1757 -0.6726
vn 0.392 -0.0952 -0.915
vn 0.0049 0.0215 -0.9998
vn 0.0875 0.3055 -0.9482
vn 0.4229 0.1927 -0.8855
vn 0.0049 0.0215 -0.9998
vn 0.4229 0.1927 -0.8855
vn 0.392 -0.0952 -0.915
vn -0.2678 0.3865 -0.8826
vn 0.0875 0.3055 -0.9482
vn 0.0049 0.0215 -0.9998
vn -0.2678 0.3865 -0.8826
vn 0.0049 0.0215 -0.9998
vn -0.3686 0.1329 -0.9201
vn -0.61 0.4261 -0.6681
vn -0.2678 0.3865 -0.8826
vn -0.3686 0.1329 -0.92
vn -0.61 0.4261 -0.6681
vn -0.3686 0.1329 -0.92
vn -0.6902 0.2138 -0.6914
vn -0.7902 0.4975 -0.358
vn -0.61 0.4261 -0.6681
vn -0.6902 0.2138 -0.6913
vn -0.7902 0.4975 -0.358
vn -0.6902 0.2138 -0.6913
vn -0.8943 0.2813 -0.3479
vn -0.9516 0.305 0.0388
vn -0.8428 0.5372 0.0337
vn -0.7902 0.4975 -0.358
vn -0.9516 0.305 0.0388
vn -0.7902 0.4975 -0.358
vn -0.8944 0.2813 -0.3478
vn -0.7725 0.5054 0.3845
vn -0.8428 0.5372 0.0337
vn -0.9516 0.305 0.0388
vn -0.7725 0.5054 0.3845
vn -0.9516 0.305 0.0388
vn -0.8725 0.2747 0.4041
vn -0.5653 0.4402 0.6976
vn -0.7725 0.5054 0.3845
vn -0.8724 0.2747 0.4042
vn -0.5653 0.4402 0.6976
vn -0.8724 0.2747 0.4042
vn -0.656 0.2028 0.727
vn -0.1328 0.9746 0.1802
vn -0.1374 0.9905 0.0095
vn -0.8428 0.5372 0.0337
vn -0.1328 0.9746 0.1802
vn -0.8428 0.5372 0.0337
vn -0.7725 0.5054 0.3845
vn -0.1328 0.9746 0.1802
vn -0.7725 0.5054 0.3845
vn -0.5652 0.4402 0.6976
vn -0.1328 0.9746 0.1802
vn -0.5652 0.4402 0.6976
vn -0.0994 0.9222 0.3738
vn -0.7901 0.4975 -0.358
vn -0.8428 0.5372 0.0337
vn -0.1374 0.9905 0.0095
vn -0.7901 0.4975 -0.358
vn -0.1374 0.9905 0.0095
vn -0.1455 0.9746 -0.1701
vn -0.1374 0.9905 0.0095
vn 0.1574 0.9875 0.0031
vn 0.1656 0.9798 -0.1119
vn -0.1374 0.9905 0.0095
vn 0.1656 0.9798 -0.1119
vn -0.1455 0.9746 -0.1701
vn 0.1656 0.9798 -0.1119
vn 0.0914 0.9095 -0.4055
vn -0.1037 0.9302 -0.3522
vn 0.1656 0.9798 -0.1119
vn -0.1037 0.9302 -0.3522
vn -0.1455 0.9746 -0.1701
vn -0.1037 0.9302 -0.3522
vn -0.61 0.4261 -0.6681
vn -0.7902 0.4975 -0.358
vn -0.1037 0.9302 -0.3522
vn -0.7902 0.4975 -0.358
vn -0.1455 0.9746 -0.1701
vn 0.0914 0.9095 -0.4055
vn -0.2678 0.3865 -0.8825
vn -0.61 0.4261 -0.6681
vn 0.0914 0.9095 -0.4055
vn -0.61 0.4261 -0.6681
vn -0.1037 0.9301 -0.3522
vn 0.0914 0.9095 -0.4055
vn 0.2629 0.8691 -0.4189
vn 0.0875 0.3055 -0.9482
vn 0.0914 0.9095 -0.4055
vn 0.0875 0.3055 -0.9482
vn -0.2678 0.3866 -0.8825
vn 0.2857 0.9498 -0.1272
vn 0.2629 0.8692 -0.4189
vn 0.0914 0.9095 -0.4054
vn 0.2857 0.9498 -0.1272
vn 0.0914 0.9095 -0.4054
vn 0.1656 0.9798 -0.1119
vn 0.4012 0.9091 -0.1118
vn 0.4323 0.7919 -0.4313
vn 0.2629 0.8691 -0.4189
vn 0.4012 0.9091 -0.1118
vn 0.2629 0.8691 -0.4189
vn 0.2857 0.9498 -0.1272
vn 0.4229 0.1927 -0.8854
vn 0.0875 0.3055 -0.9482
vn 0.2629 0.8691 -0.4189
vn 0.4229 0.1927 -0.8854
vn 0.2629 0.8691 -0.4189
vn 0.4323 0.7919 -0.4313
vn 0.4012 0.9091 -0.1118
vn 0.7026 0.6858 -0.1901
vn 0.6275 0.6755 -0.3872
vn 0.4012 0.9091 -0.1118
vn 0.6275 0.6755 -0.3872
vn 0.4323 0.7919 -0.4313
vn 0.6275 0.6754 -0.3873
vn 0.7346 0.0932 -0.672
vn 0.4229 0.1927 -0.8854
vn 0.6275 0.6754 -0.3873
vn 0.4229 0.1927 -0.8854
vn 0.4323 0.7919 -0.4313
vn 0.7026 0.6857 -0.1901
vn 0.9319 0.0621 -0.3574
vn 0.7347 0.0932 -0.672
vn 0.7026 0.6857 -0.1901
vn 0.7347 0.0932 -0.672
vn 0.6275 0.6755 -0.3873
vn 0.4164 0.9092 0.0044
vn 0.7384 0.6741 0.0174
vn 0.7026 0.6857 -0.1901
vn 0.4164 0.9092 0.0044
vn 0.7026 0.6857 -0.1901
vn 0.4012 0.9091 -0.1118
vn 0.7026 0.6857 -0.1901
vn 0.7384 0.6741 0.0174
vn 0.9984 0.0504 0.0273
vn 0.7026 0.6857 -0.1901
vn 0.9984 0.0504 0.0273
vn 0.9319 0.0621 -0.3574
vn 0.9242 0.0489 0.3788
vn 0.9984 0.0504 0.0273
vn 0.7384 0.6741 0.0174
vn 0.9242 0.0489 0.3788
vn 0.7384 0.6741 0.0174
vn 0.7095 0.6735 0.2075
vn 0.3977 0.9094 0.1215
vn 0.7095 0.6735 0.2075
vn 0.7384 0.6741 0.0174
vn 0.3977 0.9094 0.1215
vn 0.7384 0.6741 0.0174
vn 0.4164 0.9092 0.0044
vn 0.2904 0.9569 0.0044
vn 0.2885 0.9478 0.136
vn 0.3977 0.9094 0.1215
vn 0.2904 0.9569 0.0044
vn 0.3977 0.9094 0.1215
vn 0.4164 0.9092 0.0044
vn 0.2857 0.9498 -0.1272
vn 0.2904 0.9569 0.0044
vn 0.4164 0.9092 0.0044
vn 0.2857 0.9498 -0.1272
vn 0.4164 0.9092 0.0044
vn 0.4012 0.9091 -0.1118
vn 0.1574 0.9875 0.0031
vn 0.2904 0.9569 0.0044
vn 0.2857 0.9498 -0.1272
vn 0.1574 0.9875 0.0031
vn 0.2857 0.9498 -0.1272
vn 0.1656 0.9798 -0.1119
vn 0.3977 0.9094 0.1215
vn 0.4429 0.7581 0.4788
vn 0.6355 0.6493 0.4178
vn 0.3977 0.9094 0.1215
vn 0.6355 0.6493 0.4178
vn 0.7095 0.6735 0.2075
vn 0.2885 0.9478 0.136
vn 0.2589 0.8365 0.4829
vn 0.4429 0.758 0.4788
vn 0.2885 0.9478 0.136
vn 0.4429 0.758 0.4788
vn 0.3977 0.9094 0.1215
vn 0.4429 0.758 0.4788
vn 0.4193 0.1703 0.8917
vn 0.7298 0.0973 0.6767
vn 0.4429 0.758 0.4788
vn 0.7298 0.0973 0.6767
vn 0.6355 0.6493 0.4178
vn 0.4429 0.758 0.4788
vn 0.2589 0.8365 0.4829
vn 0.0886 0.2715 0.9583
vn 0.4429 0.758 0.4788
vn 0.0886 0.2715 0.9583
vn 0.4193 0.1704 0.8917
vn 0.6355 0.6493 0.4178
vn 0.7298 0.0973 0.6767
vn 0.9242 0.0489 0.3788
vn 0.6355 0.6493 0.4178
vn 0.9242 0.0489 0.3788
vn 0.7095 0.6735 0.2075
vt 0 0
vt 0 0
vt 0 0
vt 0 0
vt 0 0
vt 0 0
vt 0 0
vt 0 0
vt 0 0
vt 0 0
vt 0 0
vt 0 0
vt 0 0
vt 0 0
vt 0 0
vt 0 0
vt 0 0
vt 0 0
vt 0 0
vt 0 0
vt 0 0
vt 0 0
vt 0 0
vt 0 0
vt 0 0
vt 0 0
vt 0 0
vt 0 0
vt 0 0
vt 0 0
vt 0 0
vt 0 0
vt 0 0
vt 0 0
vt 0 0
vt 0 0
vt 0 0
vt 0 0
vt 0 0
vt 0 0
vt 0 0
vt 0 0
vt 0 0
vt 0 0
vt 0 0
vt 0 0
vt 0 0
vt 0 0
vt 0 0
vt 0 0
vt 0 0
vt 0 0
vt 0 0
vt 0 0
vt 0 0
vt 0 0
vt 0 0
vt 0 0
vt 0 0
vt 0 0
vt 0 0
vt 0 0
vt 0 0
vt 0 0
vt 0 0
vt 0 0
vt 0 0
vt 0 0
vt 0 0
vt 0 0
vt 0 0
vt 0 0
vt 0 0
vt 0 0
vt 0 0
vt 0 0
vt 0 0
vt 0 0
vt 0 0
vt 0 0
vt 0 0
vt 0 0
vt 0 0
vt 0 0
vt 0 0
vt 0 0
vt 0 0
vt 0 0
vt 0 0
vt 0 0
vt 0 0
vt 0 0
vt 0 0
vt 0 0
vt 0 0
vt 0 0
vt 0 0
vt 0 0
vt 0 0
vt 0 0
vt 0 0
vt 0 0
vt 0 0
vt 0 0
vt 0 0
vt 0 0
vt 0 0
vt 0 0
vt 0 0
vt 0 0
vt 0 0
vt 0 0
vt 0 0
vt 0 0
vt 0 0
vt 0 0
vt 0 0
vt 0 0
vt 0 0
vt 0 0
vt 0 0
vt 0 0
vt 0 0
vt 0 0
vt 0 0
vt 0 0
vt 0 0
vt 0 0
vt 0 0
vt 0 0
vt 0 0
vt 0 0
vt 0 0
vt 0 0
vt 0 0
vt 0 0
vt 0 0
vt 0 0
vt 0 0
vt 0 0
vt 0 0
vt 0 0
vt 0 0
vt 0 0
vt 0 0
vt 0 0
vt 0 0
vt 0 0
vt 0 0
vt 0 0
vt 0 0
vt 0 0
vt 0 0
vt 0 0
vt 0 0
vt 0 0
vt 0 0
vt 0 0
vt 0 0
vt 0 0
vt 0 0
vt 0 0
vt 0 0
vt 0 0
vt 0 0
vt 0 0
vt 0 0
vt 0 0
vt 0 0
vt 0 0
vt 0 0
vt 0 0
vt 0 0
vt 0 0
vt 0 0
vt 0 0
vt 0 0
vt 0 0
vt 0 0
vt 0 0
vt 0 0
vt 0 0
vt 0 0
vt 0 0
vt 0 0
vt 0 0
vt 0 0
vt 0 0
vt 0 0
vt 0 0
vt 0 0
vt 0 0
vt 0 0
vt 0 0
vt 0 0
vt 0 0
vt 0 0
vt 0 0
vt 0 0
vt 0 0
vt 0 0
vt 0 0
vt 0 0
vt 0 0
vt 0 0
vt 0 0
vt 0 0
vt 0 0
vt 0 0
vt 0 0
vt 0 0
vt 0 0
vt 0 0
vt 0 0
vt 0 0
vt 0 0
vt 0 0
vt 0 0
vt 0 0
vt 0 0
vt 0 0
vt 0 0
vt 0 0
vt 0 0
vt 0 0
vt 0 0
vt 0 0
vt 0 0
vt 0 0
vt 0 0
vt 0 0
vt 0 0
vt 0 0
vt 0 0
vt 0 0
vt 0 0
vt 0 0
vt 0 0
vt 0 0
vt 0 0
vt 0 0
vt 0 0
vt 0 0
vt 0 0
vt 0 0
vt 0 0
vt 0 0
vt 0 0
vt 0 0
vt 0 0
vt 0 0
vt 0 0
vt 0 0
vt 0 0
vt 0 0
vt 0 0
vt 0 0
vt 0 0
vt 0 0
vt 0 0
vt 0 0
vt 0 0
vt 0 0
vt 0 0
vt 0 0
vt 0 0
vt 0 0
vt 0 0
vt 0 0
vt 0 0
vt 0 0
vt 0 0
vt 0 0
vt 0 0
vt 0 0
vt 0 0
vt 0 0
vt 0 0
vt 0 0
vt 0 0
vt 0 0
vt 0 0
vt 0 0
vt 0 0
vt 0 0
vt 0 0
vt 0 0
vt 0 0
s off
f 1/1/1 2/2/2 3/3/3
f 4/4/4 5/5/5 6/6/6
f 7/7/7 8/8/8 9/9/9
f 10/10/10 11/11/11 12/12/12
f 13/13/13 14/14/14 15/15/15
f 16/16/16 17/17/17 18/18/18
f 19/19/19 20/20/20 21/21/21
f 22/22/22 23/23/23 24/24/24
f 25/25/25 26/26/26 27/27/27
f 28/28/28 29/29/29 30/30/30
f 31/31/31 32/32/32 33/33/33
f 34/34/34 35/35/35 36/36/36
f 37/37/37 38/38/38 39/39/39
f 40/40/40 41/41/41 42/42/42
f 43/43/43 44/44/44 45/45/45
f 46/46/46 47/47/47 48/48/48
f 49/49/49 50/50/50 51/51/51
f 52/52/52 53/53/53 54/54/54
f 55/55/55 56/56/56 57/57/57
f 58/58/58 59/59/59 60/60/60
f 61/61/61 62/62/62 63/63/63
f 64/64/64 65/65/65 66/66/66
f 67/67/67 68/68/68 69/69/69
f 70/70/70 71/71/71 72/72/72
f 73/73/73 74/74/74 75/75/75
f 76/76/76 77/77/77 78/78/78
f 79/79/79 80/80/80 81/81/81
f 82/82/82 83/83/83 84/84/84
f 85/85/85 86/86/86 87/87/87
f 88/88/88 89/89/89 90/90/90
f 91/91/91 92/92/92 93/93/93
f 94/94/94 95/95/95 96/96/96
f 97/97/97 98/98/98 99/99/99
f 100/100/100 101/101/101 102/102/102
f 103/103/103 104/104/104 105/105/105
f 106/106/106 107/107/107 108/108/108
f 109/109/109 110/110/110 111/111/111
f 112/112/112 113/113/113 114/114/114
f 115/115/115 116/116/116 117/117/117
f 118/118/118 119/119/119 120/120/120
f 121/121/121 122/122/122 123/123/123
f 124/124/124 125/125/125 126/126/126
f 127/127/127 128/128/128 129/129/129
f 130/130/130 131/131/131 132/132/132
f 133/133/133 134/134/134 135/135/135
f 136/136/136 137/137/137 138/138/138
f 139/139/139 140/140/140 141/141/141
f 142/142/142 143/143/143 144/144/144
f 145/145/145 146/146/146 147/147/147
f 148/148/148 149/149/149 150/150/150
f 151/151/151 152/152/152 153/153/153
f 154/154/154 155/155/155 156/156/156
f 157/157/157 158/158/158 159/159/159
f 160/160/160 161/161/161 162/162/162
f 163/163/163 164/164/164 165/165/165
f 166/166/166 167/167/167 168/168/168
f 169/169/169 170/170/170 171/171/171
f 172/172/172 173/173/173 174/174/174
f 175/175/175 176/176/176 177/177/177
f 178/178/178 179/179/179 180/180/180
f 181/181/181 182/182/182 183/183/183
f 184/184/184 185/185/185 186/186/186
f 187/187/187 188/188/188 189/189/189
f 190/190/190 191/191/191 192/192/192
f 193/193/193 194/194/194 195/195/195
f 196/196/196 197/197/197 198/198/198
f 199/199/199 200/200/200 201/201/201
f 202/202/202 203/203/203 204/204/204
f 205/205/205 206/206/206 207/207/207
f 208/208/208 209/209/209 210/210/210
f 211/211/211 212/212/212 213/213/213
f 214/214/214 215/215/215 216/216/216
f 217/217/217 218/218/218 219/219/219
f 220/220/220 221/221/221 222/222/222
f 223/223/223 224/224/224 225/225/225
f 226/226/226 227/227/227 228/228/228
f 229/229/229 230/230/230 231/231/231
f 232/232/232 233/233/233 234/234/234
f 235/235/235 236/236/236 237/237/237
f 238/238/238 239/239/239 240/240/240
f 241/241/241 242/242/242 243/243/243
f 244/244/244 245/245/245 246/246/246
f 247/247/247 248/248/248 249/249/249
f 250/250/250 251/251/251 252/252/252
f 253/253/253 254/254/254 255/255/255
f 256/256/256 257/257/257 258/258/258
f 259/259/259 260/260/260 261/261/261
f 262/262/262 263/263/263 264/264/264
f 265/265/265 266/266/266 267/267/267
f 268/268/268 269/269/269 270/270/270
f 271/271/271 272/272/272 273/273/273
f 274/274/274 275/275/275 276/276/276
f 277/277/277 278/278/278 279/279/279
f 280/280/280 281/281/281 282/282/282
f 283/283/283 284/284/284 285/285/285
f 286/286/286 287/287/287 288/288/288
