v -0.540508 -0.293902 0.290775
v -0.538723 -0.294498 0.258122
v -0.514559 -0.269315 0.257058
v -0.540508 -0.293902 0.290775
v -0.514559 -0.269315 0.257058
v -0.517749 -0.270017 0.290901
v -0.540508 -0.293902 0.290775
v -0.558725 -0.320913 0.290928
v -0.55672 -0.321092 0.258746
v -0.540508 -0.293902 0.290775
v -0.55672 -0.321092 0.258746
v -0.538723 -0.294498 0.258122
v -0.540508 -0.293902 0.290775
v -0.542634 -0.293479 0.323737
v -0.561405 -0.321315 0.325453
v -0.540508 -0.293902 0.290775
v -0.561405 -0.321315 0.325453
v -0.558725 -0.320913 0.290928
v -0.540508 -0.293902 0.290775
v -0.517749 -0.270017 0.290901
v -0.525685 -0.275373 0.315806
v -0.540508 -0.293902 0.290775
v -0.525685 -0.275373 0.315806
v -0.542634 -0.293479 0.323737
v -0.487647 -0.250673 0.297098
v -0.509725 -0.261208 0.334868
v -0.525685 -0.275373 0.315806
v -0.487647 -0.250673 0.297098
v -0.525685 -0.275373 0.315806
v -0.517749 -0.270017 0.290901
v -0.487647 -0.250673 0.297098
v -0.517749 -0.270017 0.290901
v -0.514559 -0.269315 0.257058
v -0.487647 -0.250673 0.297098
v -0.514559 -0.269315 0.257058
v -0.483906 -0.250481 0.257673
v -0.509725 -0.261208 0.334868
v -0.487647 -0.250673 0.297098
v -0.484676 -0.244766 0.300196
v -0.509725 -0.261208 0.334868
v -0.484676 -0.244766 0.300196
v -0.512069 -0.256359 0.34467
v -0.487647 -0.250673 0.297098
v -0.483906 -0.250481 0.257673
v -0.479767 -0.244558 0.258195
v -0.487647 -0.250673 0.297098
v -0.479767 -0.244558 0.258195
v -0.484676 -0.244766 0.300196
v -0.542634 -0.293479 0.323737
v -0.525685 -0.275373 0.315806
v -0.509725 -0.261208 0.334868
v -0.542634 -0.293479 0.323737
v -0.509725 -0.261208 0.334868
v -0.539427 -0.286357 0.359505
v -0.539427 -0.286357 0.359505
v -0.509725 -0.261208 0.334868
v -0.512069 -0.256359 0.34467
v -0.539427 -0.286357 0.359505
v -0.512069 -0.256359 0.34467
v -0.541245 -0.283841 0.367902
v -0.512069 -0.256359 0.34467
v -0.484676 -0.244766 0.300196
v -0.494229 -0.228728 0.301214
v -0.512069 -0.256359 0.34467
v -0.494229 -0.228728 0.301214
v -0.527365 -0.244545 0.348566
v -0.541245 -0.283841 0.367902
v -0.512069 -0.256359 0.34467
v -0.527365 -0.244545 0.348566
v -0.541245 -0.283841 0.367902
v -0.527365 -0.244545 0.348566
v -0.55773 -0.271734 0.372422
v -0.56668 -0.318716 0.376023
v -0.541245 -0.283841 0.367902
v -0.55773 -0.271734 0.372422
v -0.56668 -0.318716 0.376023
v -0.55773 -0.271734 0.372422
v -0.583517 -0.306917 0.380101
v -0.589326 -0.361245 0.363626
v -0.56668 -0.318716 0.376023
v -0.583517 -0.306917 0.380101
v -0.589326 -0.361245 0.363626
v -0.583517 -0.306917 0.380101
v -0.607162 -0.354549 0.366399
v -0.602101 -0.390194 0.336247
v -0.589326 -0.361245 0.363626
v -0.607162 -0.354549 0.366399
v -0.602101 -0.390194 0.336247
v -0.607162 -0.354549 0.366399
v -0.621499 -0.38326 0.340513
v -0.615654 -0.408549 0.298149
v -0.602101 -0.390194 0.336247
v -0.621499 -0.38326 0.340513
v -0.615654 -0.408549 0.298149
v -0.621499 -0.38326 0.340513
v -0.633944 -0.402099 0.299459
v -0.62243 -0.410598 0.254065
v -0.615654 -0.408549 0.298149
v -0.633944 -0.402099 0.299459
v -0.62243 -0.410598 0.254065
v -0.633944 -0.402099 0.299459
v -0.638814 -0.404447 0.255143
v -0.616159 -0.399424 0.214493
v -0.62243 -0.410598 0.254065
v -0.638814 -0.404447 0.255143
v -0.616159 -0.399424 0.214493
v -0.638814 -0.404447 0.255143
v -0.634245 -0.391106 0.210461
v -0.619304 -0.372113 0.181475
v -0.597742 -0.379503 0.185207
v -0.616159 -0.399424 0.214493
v -0.619304 -0.372113 0.181475
v -0.616159 -0.399424 0.214493
v -0.634245 -0.391106 0.210461
v -0.581008 -0.356137 0.167624
v -0.597742 -0.379503 0.185207
v -0.619304 -0.372113 0.181475
v -0.581008 -0.356137 0.167624
v -0.619304 -0.372113 0.181475
v -0.597573 -0.34517 0.161358
v -0.558714 -0.323411 0.159473
v -0.581008 -0.356137 0.167624
v -0.597573 -0.34517 0.161358
v -0.558714 -0.323411 0.159473
v -0.597573 -0.34517 0.161358
v -0.573207 -0.31384 0.15436
v -0.538119 -0.291631 0.164423
v -0.558714 -0.323411 0.159473
v -0.573207 -0.31384 0.15436
v -0.538119 -0.291631 0.164423
v -0.573207 -0.31384 0.15436
v -0.552017 -0.28149 0.160598
v -0.517366 -0.26917 0.181784
v -0.538119 -0.291631 0.164423
v -0.552017 -0.28149 0.160598
v -0.517366 -0.26917 0.181784
v -0.552017 -0.28149 0.160598
v -0.52999 -0.256099 0.17857
v -0.494548 -0.252148 0.21312
v -0.517366 -0.26917 0.181784
v -0.52999 -0.256099 0.17857
v -0.494548 -0.252148 0.21312
v -0.52999 -0.256099 0.17857
v -0.503381 -0.236589 0.212945
v -0.479767 -0.244558 0.258195
v -0.494548 -0.252148 0.21312
v -0.503381 -0.236589 0.212945
v -0.479767 -0.244558 0.258195
v -0.503381 -0.236589 0.212945
v -0.487472 -0.227798 0.260404
v -0.484676 -0.244766 0.300196
v -0.479767 -0.244558 0.258195
v -0.487472 -0.227798 0.260404
v -0.484676 -0.244766 0.300196
v -0.487472 -0.227798 0.260404
v -0.494229 -0.228728 0.301214
v -0.483906 -0.250481 0.257673
v -0.496711 -0.257927 0.216836
v -0.494548 -0.252148 0.21312
v -0.483906 -0.250481 0.257673
v -0.494548 -0.252148 0.21312
v -0.479767 -0.244558 0.258195
v -0.496711 -0.257927 0.216836
v -0.517104 -0.274398 0.188
v -0.517366 -0.26917 0.181784
v -0.496711 -0.257927 0.216836
v -0.517366 -0.26917 0.181784
v -0.494548 -0.252148 0.21312
v -0.517104 -0.274398 0.188
v -0.496711 -0.257927 0.216836
v -0.517623 -0.27366 0.22373
v -0.517104 -0.274398 0.188
v -0.517623 -0.27366 0.22373
v -0.523138 -0.280237 0.19991
v -0.483906 -0.250481 0.257673
v -0.514559 -0.269315 0.257058
v -0.517623 -0.27366 0.22373
v -0.483906 -0.250481 0.257673
v -0.517623 -0.27366 0.22373
v -0.496711 -0.257927 0.216836
v -0.538579 -0.296779 0.226633
v -0.538382 -0.298574 0.196942
v -0.523138 -0.280237 0.19991
v -0.538579 -0.296779 0.226633
v -0.523138 -0.280237 0.19991
v -0.517623 -0.27366 0.22373
v -0.538723 -0.294498 0.258122
v -0.538579 -0.296779 0.226633
v -0.517623 -0.27366 0.22373
v -0.538723 -0.294498 0.258122
v -0.517623 -0.27366 0.22373
v -0.514559 -0.269315 0.257058
v -0.555652 -0.322074 0.228052
v -0.555531 -0.323953 0.198068
v -0.538382 -0.298574 0.196942
v -0.555652 -0.322074 0.228052
v -0.538382 -0.298574 0.196942
v -0.538579 -0.296779 0.226633
v -0.555652 -0.322074 0.228052
v -0.538579 -0.296779 0.226633
v -0.538723 -0.294498 0.258122
v -0.555652 -0.322074 0.228052
v -0.538723 -0.294498 0.258122
v -0.55672 -0.321092 0.258746
v -0.55563 -0.325397 0.167252
v -0.535523 -0.295754 0.171945
v -0.538382 -0.298574 0.196942
v -0.55563 -0.325397 0.167252
v -0.538382 -0.298574 0.196942
v -0.555531 -0.323953 0.198068
v -0.517104 -0.274398 0.188
v -0.523138 -0.280237 0.19991
v -0.538382 -0.298574 0.196942
v -0.517104 -0.274398 0.188
v -0.538382 -0.298574 0.196942
v -0.535523 -0.295754 0.171945
v -0.535523 -0.295754 0.171945
v -0.55563 -0.325397 0.167252
v -0.558714 -0.323411 0.159473
v -0.535523 -0.295754 0.171945
v -0.558714 -0.323411 0.159473
v -0.538119 -0.291631 0.164423
v -0.517104 -0.274398 0.188
v -0.535523 -0.295754 0.171945
v -0.538119 -0.291631 0.164423
v -0.517104 -0.274398 0.188
v -0.538119 -0.291631 0.164423
v -0.517366 -0.26917 0.181784
v -0.55563 -0.325397 0.167252
v -0.576182 -0.356145 0.176917
v -0.581008 -0.356137 0.167624
v -0.55563 -0.325397 0.167252
v -0.581008 -0.356137 0.167624
v -0.558714 -0.323411 0.159473
v -0.55563 -0.325397 0.167252
v -0.555531 -0.323953 0.198068
v -0.570996 -0.348449 0.201701
v -0.55563 -0.325397 0.167252
v -0.570996 -0.348449 0.201701
v -0.576182 -0.356145 0.176917
v -0.576182 -0.356145 0.176917
v -0.592229 -0.37821 0.192399
v -0.597742 -0.379503 0.185207
v -0.576182 -0.356145 0.176917
v -0.597742 -0.379503 0.185207
v -0.581008 -0.356137 0.167624
v -0.592229 -0.37821 0.192399
v -0.576182 -0.356145 0.176917
v -0.570996 -0.348449 0.201701
v -0.592229 -0.37821 0.192399
v -0.570996 -0.348449 0.201701
v -0.582009 -0.365228 0.208167
v -0.570904 -0.347341 0.229091
v -0.585692 -0.37103 0.228394
v -0.582009 -0.365228 0.208167
v -0.570904 -0.347341 0.229091
v -0.582009 -0.365228 0.208167
v -0.570996 -0.348449 0.201701
v -0.555652 -0.322074 0.228052
v -0.570904 -0.347341 0.229091
v -0.570996 -0.348449 0.201701
v -0.555652 -0.322074 0.228052
v -0.570996 -0.348449 0.201701
v -0.555531 -0.323953 0.198068
v -0.555652 -0.322074 0.228052
v -0.55672 -0.321092 0.258746
v -0.575725 -0.346 0.258505
v -0.555652 -0.322074 0.228052
v -0.575725 -0.346 0.258505
v -0.570904 -0.347341 0.229091
v -0.570904 -0.347341 0.229091
v -0.575725 -0.346 0.258505
v -0.588198 -0.374904 0.257572
v -0.570904 -0.347341 0.229091
v -0.588198 -0.374904 0.257572
v -0.585692 -0.37103 0.228394
v -0.592229 -0.37821 0.192399
v -0.582009 -0.365228 0.208167
v -0.585692 -0.37103 0.228394
v -0.592229 -0.37821 0.192399
v -0.585692 -0.37103 0.228394
v -0.606293 -0.397494 0.219533
v -0.611567 -0.407542 0.254865
v -0.606293 -0.397494 0.219533
v -0.585692 -0.37103 0.228394
v -0.611567 -0.407542 0.254865
v -0.585692 -0.37103 0.228394
v -0.588198 -0.374904 0.257572
v -0.574066 -0.348193 0.289049
v -0.588266 -0.373867 0.288008
v -0.588198 -0.374904 0.257572
v -0.574066 -0.348193 0.289049
v -0.588198 -0.374904 0.257572
v -0.575725 -0.346 0.258505
v -0.606761 -0.403759 0.295742
v -0.611567 -0.407542 0.254865
v -0.588198 -0.374904 0.257572
v -0.606761 -0.403759 0.295742
v -0.588198 -0.374904 0.257572
v -0.588266 -0.373867 0.288008
v -0.611567 -0.407542 0.254865
v -0.606761 -0.403759 0.295742
v -0.615654 -0.408549 0.298149
v -0.611567 -0.407542 0.254865
v -0.615654 -0.408549 0.298149
v -0.62243 -0.410598 0.254065
v -0.606293 -0.397494 0.219533
v -0.611567 -0.407542 0.254865
v -0.62243 -0.410598 0.254065
v -0.606293 -0.397494 0.219533
v -0.62243 -0.410598 0.254065
v -0.616159 -0.399424 0.214493
v -0.606761 -0.403759 0.295742
v -0.596763 -0.386661 0.330635
v -0.602101 -0.390194 0.336247
v -0.606761 -0.403759 0.295742
v -0.602101 -0.390194 0.336247
v -0.615654 -0.408549 0.298149
v -0.596763 -0.386661 0.330635
v -0.606761 -0.403759 0.295742
v -0.588266 -0.373867 0.288008
v -0.596763 -0.386661 0.330635
v -0.588266 -0.373867 0.288008
v -0.586731 -0.369521 0.310529
v -0.596763 -0.386661 0.330635
v -0.583985 -0.359602 0.356898
v -0.589326 -0.361245 0.363626
v -0.596763 -0.386661 0.330635
v -0.589326 -0.361245 0.363626
v -0.602101 -0.390194 0.336247
v -0.576698 -0.349796 0.319109
v -0.583985 -0.359602 0.356898
v -0.596763 -0.386661 0.330635
v -0.576698 -0.349796 0.319109
v -0.596763 -0.386661 0.330635
v -0.586731 -0.369521 0.310529
v -0.574066 -0.348193 0.289049
v -0.576698 -0.349796 0.319109
v -0.586731 -0.369521 0.310529
v -0.574066 -0.348193 0.289049
v -0.586731 -0.369521 0.310529
v -0.588266 -0.373867 0.288008
v -0.574066 -0.348193 0.289049
v -0.558725 -0.320913 0.290928
v -0.561405 -0.321315 0.325453
v -0.574066 -0.348193 0.289049
v -0.561405 -0.321315 0.325453
v -0.576698 -0.349796 0.319109
v -0.561405 -0.321315 0.325453
v -0.564094 -0.320985 0.367953
v -0.583985 -0.359602 0.356898
v -0.561405 -0.321315 0.325453
v -0.583985 -0.359602 0.356898
v -0.576698 -0.349796 0.319109
v -0.542634 -0.293479 0.323737
v -0.539427 -0.286357 0.359505
v -0.564094 -0.320985 0.367953
v -0.542634 -0.293479 0.323737
v -0.564094 -0.320985 0.367953
v -0.561405 -0.321315 0.325453
v -0.564094 -0.320985 0.367953
v -0.539427 -0.286357 0.359505
v -0.541245 -0.283841 0.367902
v -0.564094 -0.320985 0.367953
v -0.541245 -0.283841 0.367902
v -0.56668 -0.318716 0.376023
v -0.583985 -0.359602 0.356898
v -0.564094 -0.320985 0.367953
v -0.56668 -0.318716 0.376023
v -0.583985 -0.359602 0.356898
v -0.56668 -0.318716 0.376023
v -0.589326 -0.361245 0.363626
v -0.574066 -0.348193 0.289049
v -0.575725 -0.346 0.258505
v -0.55672 -0.321092 0.258746
v -0.574066 -0.348193 0.289049
v -0.55672 -0.321092 0.258746
v -0.558725 -0.320913 0.290928
v -0.616159 -0.399424 0.214493
v -0.597742 -0.379503 0.185207
v -0.592229 -0.37821 0.192399
v -0.616159 -0.399424 0.214493
v -0.592229 -0.37821 0.192399
v -0.606293 -0.397494 0.219533
vn 0.7823 -0.6201 0.0587
vn 0.7767 -0.6281 0.0477
vn 0.6267 -0.7785 0.0348
vn 0.7823 -0.6201 0.0587
vn 0.6267 -0.7785 0.0348
vn 0.6233 -0.7802 0.0528
vn 0.7823 -0.6201 0.0587
vn 0.8416 -0.5386 0.0409
vn 0.8292 -0.5569 0.0472
vn 0.7823 -0.6201 0.0587
vn 0.8292 -0.5569 0.0472
vn 0.7767 -0.628 0.0477
vn 0.7823 -0.6201 0.0587
vn 0.7826 -0.6204 0.0513
vn 0.8522 -0.5204 0.0535
vn 0.7823 -0.6201 0.0587
vn 0.8522 -0.5204 0.0535
vn 0.8416 -0.5386 0.0409
vn 0.7823 -0.6201 0.0587
vn 0.6232 -0.7802 0.054
vn 0.6634 -0.7462 0.0551
vn 0.7823 -0.6201 0.0587
vn 0.6634 -0.7462 0.0551
vn 0.7825 -0.6205 0.0513
vn 0.6311 -0.7697 0.0965
vn 0.6964 -0.7009 0.1541
vn 0.6634 -0.7462 0.0551
vn 0.6311 -0.7697 0.0965
vn 0.6634 -0.7462 0.0551
vn 0.6232 -0.7802 0.054
vn 0.6311 -0.7697 0.0965
vn 0.6232 -0.7802 0.054
vn 0.6267 -0.7785 0.0348
vn 0.6311 -0.7697 0.0965
vn 0.6267 -0.7785 0.0348
vn 0.6253 -0.7804 0.0055
vn 0.6964 -0.7009 0.1541
vn 0.6311 -0.7697 0.0965
vn 0.8828 0.2646 0.3881
vn 0.6964 -0.7009 0.1541
vn 0.8828 0.2646 0.3881
vn 0.701 0.2044 0.6833
vn 0.6311 -0.7697 0.0965
vn 0.6254 -0.7803 0.0055
vn 0.9597 0.244 -0.1397
vn 0.6311 -0.7697 0.0965
vn 0.9597 0.244 -0.1397
vn 0.8828 0.2646 0.3882
vn 0.7825 -0.6205 0.0513
vn 0.6634 -0.7462 0.0551
vn 0.6964 -0.7009 0.1541
vn 0.7825 -0.6205 0.0513
vn 0.6964 -0.7009 0.1541
vn 0.7906 -0.5962 0.1394
vn 0.7907 -0.5961 0.1395
vn 0.6964 -0.7009 0.1541
vn 0.701 0.2044 0.6833
vn 0.7907 -0.5961 0.1395
vn 0.701 0.2044 0.6833
vn 0.5222 -0.0169 0.8527
vn 0.701 0.2044 0.6833
vn 0.8828 0.2645 0.3881
vn 0.7698 0.4862 0.4136
vn 0.701 0.2044 0.6833
vn 0.7698 0.4862 0.4136
vn 0.5352 0.3658 0.7614
vn 0.5222 -0.0168 0.8527
vn 0.701 0.2044 0.6833
vn 0.5352 0.3658 0.7614
vn 0.5222 -0.0168 0.8527
vn 0.5352 0.3658 0.7614
vn 0.3435 0.135 0.9294
vn 0.3222 -0.2595 0.9104
vn 0.5222 -0.0169 0.8527
vn 0.3435 0.135 0.9294
vn 0.3222 -0.2595 0.9104
vn 0.3435 0.135 0.9294
vn 0.1504 -0.1396 0.9787
vn 0.177 -0.5325 0.8277
vn 0.3222 -0.2595 0.9104
vn 0.1504 -0.1397 0.9787
vn 0.177 -0.5325 0.8277
vn 0.1504 -0.1397 0.9787
vn -0.0263 -0.466 0.8844
vn 0.0626 -0.8247 0.562
vn 0.177 -0.5325 0.8277
vn -0.0263 -0.4661 0.8843
vn 0.0626 -0.8247 0.562
vn -0.0263 -0.4661 0.8843
vn -0.1675 -0.7646 0.6224
vn -0.0618 -0.9633 0.2613
vn 0.0626 -0.8248 0.562
vn -0.1675 -0.7646 0.6223
vn -0.0618 -0.9633 0.2613
vn -0.1675 -0.7646 0.6223
vn -0.2874 -0.9112 0.295
vn -0.1427 -0.9831 -0.1148
vn -0.0618 -0.9633 0.2613
vn -0.2874 -0.9113 0.2949
vn -0.1427 -0.9831 -0.1148
vn -0.2874 -0.9113 0.2949
vn -0.3475 -0.9316 -0.1064
vn -0.0954 -0.898 -0.4295
vn -0.1427 -0.9831 -0.1148
vn -0.3475 -0.9316 -0.1064
vn -0.0954 -0.898 -0.4295
vn -0.3475 -0.9316 -0.1064
vn -0.2624 -0.8364 -0.4812
vn -0.13 -0.6878 -0.7141
vn 0.0712 -0.7446 -0.6637
vn -0.0953 -0.898 -0.4296
vn -0.13 -0.6878 -0.7141
vn -0.0953 -0.898 -0.4296
vn -0.2624 -0.8364 -0.4812
vn 0.2274 -0.5494 -0.804
vn 0.0712 -0.7446 -0.6637
vn -0.13 -0.6878 -0.7142
vn 0.2274 -0.5494 -0.804
vn -0.13 -0.6878 -0.7142
vn 0.0384 -0.4494 -0.8925
vn 0.3947 -0.3046 -0.8669
vn 0.2274 -0.5494 -0.804
vn 0.0384 -0.4494 -0.8925
vn 0.3947 -0.3046 -0.8669
vn 0.0384 -0.4494 -0.8925
vn 0.2066 -0.1849 -0.9608
vn 0.5206 -0.0306 -0.8533
vn 0.3947 -0.3046 -0.8669
vn 0.2066 -0.1849 -0.9608
vn 0.5206 -0.0306 -0.8533
vn 0.2066 -0.1849 -0.9608
vn 0.363 0.102 -0.9262
vn 0.6706 0.1531 -0.7259
vn 0.5206 -0.0306 -0.8533
vn 0.363 0.102 -0.9262
vn 0.6706 0.1531 -0.7259
vn 0.363 0.102 -0.9262
vn 0.54 0.3194 -0.7787
vn 0.834 0.228 -0.5024
vn 0.6706 0.1532 -0.7258
vn 0.54 0.3194 -0.7787
vn 0.834 0.228 -0.5024
vn 0.54 0.3194 -0.7787
vn 0.7447 0.4249 -0.5147
vn 0.9597 0.244 -0.1397
vn 0.834 0.228 -0.5024
vn 0.7447 0.4249 -0.5147
vn 0.9597 0.244 -0.1397
vn 0.7447 0.4249 -0.5147
vn 0.8803 0.4616 -0.1092
vn 0.8829 0.2645 0.3881
vn 0.9597 0.244 -0.1397
vn 0.8803 0.4616 -0.1092
vn 0.8829 0.2645 0.3881
vn 0.8803 0.4616 -0.1092
vn 0.7698 0.4862 0.4134
vn 0.6253 -0.7803 0.0055
vn 0.6715 -0.7381 -0.0655
vn 0.834 0.228 -0.5025
vn 0.6253 -0.7803 0.0055
vn 0.834 0.228 -0.5025
vn 0.9597 0.244 -0.1397
vn 0.6715 -0.7381 -0.0655
vn 0.7689 -0.6248 -0.1358
vn 0.6706 0.1532 -0.7258
vn 0.6715 -0.7381 -0.0655
vn 0.6706 0.1532 -0.7258
vn 0.834 0.228 -0.5025
vn 0.7689 -0.6248 -0.1358
vn 0.6715 -0.7381 -0.0655
vn 0.6621 -0.749 0.025
vn 0.7689 -0.6248 -0.1358
vn 0.6621 -0.749 0.025
vn 0.7157 -0.6979 0.0273
vn 0.6253 -0.7804 0.0055
vn 0.6267 -0.7785 0.0348
vn 0.6621 -0.749 0.025
vn 0.6253 -0.7804 0.0055
vn 0.6621 -0.749 0.025
vn 0.6715 -0.7381 -0.0655
vn 0.7876 -0.6151 0.0374
vn 0.8015 -0.5972 0.031
vn 0.7157 -0.6979 0.0273
vn 0.7876 -0.6151 0.0374
vn 0.7157 -0.6979 0.0273
vn 0.6621 -0.7491 0.0237
vn 0.7767 -0.6281 0.0477
vn 0.7876 -0.6151 0.0374
vn 0.6621 -0.749 0.025
vn 0.7767 -0.6281 0.0477
vn 0.6621 -0.749 0.025
vn 0.6267 -0.7785 0.0348
vn 0.833 -0.5507 0.0537
vn 0.8362 -0.5478 0.0253
vn 0.8015 -0.5972 0.031
vn 0.833 -0.5507 0.0537
vn 0.8015 -0.5972 0.031
vn 0.7876 -0.6151 0.0374
vn 0.833 -0.5507 0.0537
vn 0.7876 -0.6151 0.0374
vn 0.7767 -0.6281 0.0469
vn 0.833 -0.5507 0.0537
vn 0.7767 -0.6281 0.0469
vn 0.8292 -0.557 0.0472
vn 0.8215 -0.556 -0.1264
vn 0.8249 -0.5483 -0.1376
vn 0.8015 -0.5972 0.031
vn 0.8215 -0.556 -0.1264
vn 0.8015 -0.5972 0.031
vn 0.8362 -0.5478 0.0253
vn 0.7689 -0.6248 -0.1358
vn 0.7157 -0.6979 0.0273
vn 0.8015 -0.5972 0.031
vn 0.7689 -0.6248 -0.1358
vn 0.8015 -0.5972 0.031
vn 0.8249 -0.5483 -0.1376
vn 0.8249 -0.5483 -0.1377
vn 0.8215 -0.556 -0.1264
vn 0.3946 -0.3046 -0.8669
vn 0.8249 -0.5483 -0.1377
vn 0.3946 -0.3046 -0.8669
vn 0.5206 -0.0306 -0.8533
vn 0.7689 -0.6248 -0.1358
vn 0.8249 -0.5483 -0.1376
vn 0.5206 -0.0306 -0.8533
vn 0.7689 -0.6248 -0.1358
vn 0.5206 -0.0306 -0.8533
vn 0.6706 0.1531 -0.7259
vn 0.8215 -0.556 -0.1264
vn 0.7916 -0.5978 -0.1263
vn 0.2274 -0.5494 -0.804
vn 0.8215 -0.556 -0.1264
vn 0.2274 -0.5494 -0.804
vn 0.3947 -0.3046 -0.8669
vn 0.8215 -0.556 -0.1264
vn 0.8362 -0.5478 0.0253
vn 0.8392 -0.5437 0.0101
vn 0.8215 -0.556 -0.1264
vn 0.8392 -0.5437 0.0101
vn 0.7916 -0.5978 -0.1263
vn 0.7916 -0.5978 -0.1263
vn 0.7157 -0.6838 -0.1423
vn 0.0712 -0.7446 -0.6637
vn 0.7916 -0.5978 -0.1263
vn 0.0712 -0.7446 -0.6637
vn 0.2274 -0.5494 -0.804
vn 0.7157 -0.6838 -0.1423
vn 0.7916 -0.5978 -0.1263
vn 0.8392 -0.5437 0.0101
vn 0.7157 -0.6838 -0.1423
vn 0.8392 -0.5437 0.0101
vn 0.817 -0.5765 -0.0106
vn 0.8514 -0.5205 0.0642
vn 0.8317 -0.5552 0.0088
vn 0.817 -0.5765 -0.0106
vn 0.8514 -0.5205 0.0642
vn 0.817 -0.5765 -0.0106
vn 0.8392 -0.5437 0.0101
vn 0.833 -0.5507 0.0537
vn 0.8514 -0.5205 0.0642
vn 0.8392 -0.5437 0.0101
vn 0.833 -0.5507 0.0537
vn 0.8392 -0.5437 0.0101
vn 0.8362 -0.5478 0.0253
vn 0.833 -0.5507 0.0537
vn 0.8292 -0.5569 0.0472
vn 0.8626 -0.5047 0.0349
vn 0.833 -0.5507 0.0537
vn 0.8626 -0.5047 0.0349
vn 0.8514 -0.5205 0.0642
vn 0.8514 -0.5205 0.0642
vn 0.8626 -0.5047 0.0349
vn 0.8492 -0.5281 -0.0047
vn 0.8514 -0.5205 0.0642
vn 0.8492 -0.5281 -0.0047
vn 0.8317 -0.5552 0.0088
vn 0.7157 -0.6838 -0.1423
vn 0.817 -0.5765 -0.0106
vn 0.8316 -0.5552 0.0088
vn 0.7157 -0.6838 -0.1423
vn 0.8316 -0.5552 0.0088
vn 0.6806 -0.7239 -0.1129
vn 0.6973 -0.7151 -0.0489
vn 0.6806 -0.7239 -0.1129
vn 0.8316 -0.5553 0.0088
vn 0.6973 -0.7151 -0.0489
vn 0.8316 -0.5553 0.0088
vn 0.8492 -0.5281 -0.0047
vn 0.8712 -0.4908 0.0126
vn 0.862 -0.5069 -0.0038
vn 0.8492 -0.5281 -0.0047
vn 0.8712 -0.4908 0.0126
vn 0.8492 -0.5281 -0.0047
vn 0.8626 -0.5047 0.0349
vn 0.7498 -0.661 0.0296
vn 0.6973 -0.7151 -0.0489
vn 0.8492 -0.5281 -0.0047
vn 0.7498 -0.661 0.0296
vn 0.8492 -0.5281 -0.0047
vn 0.862 -0.5069 -0.0038
vn 0.6973 -0.7151 -0.0489
vn 0.7498 -0.661 0.0296
vn -0.0618 -0.9633 0.2614
vn 0.6973 -0.7151 -0.0489
vn -0.0618 -0.9633 0.2614
vn -0.1427 -0.9831 -0.1148
vn 0.6806 -0.7239 -0.1129
vn 0.6973 -0.7151 -0.0489
vn -0.1427 -0.9831 -0.1148
vn 0.6806 -0.7239 -0.1129
vn -0.1427 -0.9831 -0.1148
vn -0.0953 -0.898 -0.4295
vn 0.7498 -0.661 0.0296
vn 0.8136 -0.5715 0.1066
vn 0.0625 -0.8248 0.562
vn 0.7498 -0.661 0.0296
vn 0.0625 -0.8248 0.562
vn -0.0618 -0.9633 0.2613
vn 0.8137 -0.5715 0.1066
vn 0.7498 -0.661 0.0296
vn 0.862 -0.5069 -0.0038
vn 0.8137 -0.5715 0.1066
vn 0.862 -0.5069 -0.0038
vn 0.8734 -0.4857 0.0356
vn 0.8137 -0.5715 0.1066
vn 0.8505 -0.5062 0.143
vn 0.177 -0.5324 0.8278
vn 0.8137 -0.5715 0.1066
vn 0.177 -0.5324 0.8278
vn 0.0626 -0.8247 0.562
vn 0.8779 -0.476 0.0514
vn 0.8505 -0.5061 0.143
vn 0.8137 -0.5715 0.1066
vn 0.8779 -0.476 0.0514
vn 0.8137 -0.5715 0.1066
vn 0.8734 -0.4857 0.0356
vn 0.8712 -0.4908 0.0126
vn 0.8779 -0.476 0.0514
vn 0.8734 -0.4857 0.0356
vn 0.8712 -0.4908 0.0126
vn 0.8734 -0.4857 0.0356
vn 0.862 -0.5069 -0.0038
vn 0.8712 -0.4908 0.0126
vn 0.8416 -0.5386 0.0409
vn 0.8523 -0.5204 0.0535
vn 0.8712 -0.4908 0.0126
vn 0.8523 -0.5204 0.0535
vn 0.8779 -0.476 0.0514
vn 0.8523 -0.5203 0.0535
vn 0.842 -0.5213 0.1389
vn 0.8505 -0.5061 0.143
vn 0.8523 -0.5203 0.0535
vn 0.8505 -0.5061 0.143
vn 0.8779 -0.476 0.0514
vn 0.7826 -0.6205 0.0513
vn 0.7907 -0.5962 0.1394
vn 0.842 -0.5213 0.1389
vn 0.7826 -0.6205 0.0513
vn 0.842 -0.5213 0.1389
vn 0.8523 -0.5204 0.0535
vn 0.842 -0.5213 0.139
vn 0.7907 -0.5961 0.1394
vn 0.5222 -0.0169 0.8526
vn 0.842 -0.5213 0.139
vn 0.5222 -0.0169 0.8526
vn 0.3222 -0.2594 0.9104
vn 0.8505 -0.5061 0.143
vn 0.842 -0.5213 0.1389
vn 0.3222 -0.2595 0.9104
vn 0.8505 -0.5061 0.143
vn 0.3222 -0.2595 0.9104
vn 0.177 -0.5325 0.8277
vn 0.8712 -0.4908 0.0126
vn 0.8626 -0.5047 0.0349
vn 0.8292 -0.5569 0.0472
vn 0.8712 -0.4908 0.0126
vn 0.8292 -0.5569 0.0472
vn 0.8416 -0.5386 0.0409
vn -0.0953 -0.898 -0.4295
vn 0.0712 -0.7446 -0.6637
vn 0.7156 -0.6838 -0.1423
vn -0.0953 -0.898 -0.4295
vn 0.7156 -0.6838 -0.1423
vn 0.6806 -0.7239 -0.1129
vt 0 0
vt 0 0
vt 0 0
vt 0 0
vt 0 0
vt 0 0
vt 0 0
vt 0 0
vt 0 0
vt 0 0
vt 0 0
vt 0 0
vt 0 0
vt 0 0
vt 0 0
vt 0 0
vt 0 0
vt 0 0
vt 0 0
vt 0 0
vt 0 0
vt 0 0
vt 0 0
vt 0 0
vt 0 0
vt 0 0
vt 0 0
vt 0 0
vt 0 0
vt 0 0
vt 0 0
vt 0 0
vt 0 0
vt 0 0
vt 0 0
vt 0 0
vt 0 0
vt 0 0
vt 0 0
vt 0 0
vt 0 0
vt 0 0
vt 0 0
vt 0 0
vt 0 0
vt 0 0
vt 0 0
vt 0 0
vt 0 0
vt 0 0
vt 0 0
vt 0 0
vt 0 0
vt 0 0
vt 0 0
vt 0 0
vt 0 0
vt 0 0
vt 0 0
vt 0 0
vt 0 0
vt 0 0
vt 0 0
vt 0 0
vt 0 0
vt 0 0
vt 0 0
vt 0 0
vt 0 0
vt 0 0
vt 0 0
vt 0 0
vt 0 0
vt 0 0
vt 0 0
vt 0 0
vt 0 0
vt 0 0
vt 0 0
vt 0 0
vt 0 0
vt 0 0
vt 0 0
vt 0 0
vt 0 0
vt 0 0
vt 0 0
vt 0 0
vt 0 0
vt 0 0
vt 0 0
vt 0 0
vt 0 0
vt 0 0
vt 0 0
vt 0 0
vt 0 0
vt 0 0
vt 0 0
vt 0 0
vt 0 0
vt 0 0
vt 0 0
vt 0 0
vt 0 0
vt 0 0
vt 0 0
vt 0 0
vt 0 0
vt 0 0
vt 0 0
vt 0 0
vt 0 0
vt 0 0
vt 0 0
vt 0 0
vt 0 0
vt 0 0
vt 0 0
vt 0 0
vt 0 0
vt 0 0
vt 0 0
vt 0 0
vt 0 0
vt 0 0
vt 0 0
vt 0 0
vt 0 0
vt 0 0
vt 0 0
vt 0 0
vt 0 0
vt 0 0
vt 0 0
vt 0 0
vt 0 0
vt 0 0
vt 0 0
vt 0 0
vt 0 0
vt 0 0
vt 0 0
vt 0 0
vt 0 0
vt 0 0
vt 0 0
vt 0 0
vt 0 0
vt 0 0
vt 0 0
vt 0 0
vt 0 0
vt 0 0
vt 0 0
vt 0 0
vt 0 0
vt 0 0
vt 0 0
vt 0 0
vt 0 0
vt 0 0
vt 0 0
vt 0 0
vt 0 0
vt 0 0
vt 0 0
vt 0 0
vt 0 0
vt 0 0
vt 0 0
vt 0 0
vt 0 0
vt 0 0
vt 0 0
vt 0 0
vt 0 0
vt 0 0
vt 0 0
vt 0 0
vt 0 0
vt 0 0
vt 0 0
vt 0 0
vt 0 0
vt 0 0
vt 0 0
vt 0 0
vt 0 0
vt 0 0
vt 0 0
vt 0 0
vt 0 0
vt 0 0
vt 0 0
vt 0 0
vt 0 0
vt 0 0
vt 0 0
vt 0 0
vt 0 0
vt 0 0
vt 0 0
vt 0 0
vt 0 0
vt 0 0
vt 0 0
vt 0 0
vt 0 0
vt 0 0
vt 0 0
vt 0 0
vt 0 0
vt 0 0
vt 0 0
vt 0 0
vt 0 0
vt 0 0
vt 0 0
vt 0 0
vt 0 0
vt 0 0
vt 0 0
vt 0 0
vt 0 0
vt 0 0
vt 0 0
vt 0 0
vt 0 0
vt 0 0
vt 0 0
vt 0 0
vt 0 0
vt 0 0
vt 0 0
vt 0 0
vt 0 0
vt 0 0
vt 0 0
vt 0 0
vt 0 0
vt 0 0
vt 0 0
vt 0 0
vt 0 0
vt 0 0
vt 0 0
vt 0 0
vt 0 0
vt 0 0
vt 0 0
vt 0 0
vt 0 0
vt 0 0
vt 0 0
vt 0 0
vt 0 0
vt 0 0
vt 0 0
vt 0 0
vt 0 0
vt 0 0
vt 0 0
vt 0 0
vt 0 0
vt 0 0
vt 0 0
vt 0 0
vt 0 0
vt 0 0
vt 0 0
vt 0 0
vt 0 0
vt 0 0
vt 0 0
vt 0 0
vt 0 0
vt 0 0
vt 0 0
vt 0 0
vt 0 0
vt 0 0
vt 0 0
vt 0 0
vt 0 0
vt 0 0
vt 0 0
vt 0 0
vt 0 0
vt 0 0
vt 0 0
vt 0 0
vt 0 0
vt 0 0
vt 0 0
vt 0 0
vt 0 0
vt 0 0
vt 0 0
vt 0 0
vt 0 0
vt 0 0
vt 0 0
vt 0 0
vt 0 0
vt 0 0
vt 0 0
vt 0 0
vt 0 0
vt 0 0
vt 0 0
vt 0 0
vt 0 0
vt 0 0
vt 0 0
vt 0 0
vt 0 0
vt 0 0
vt 0 0
vt 0 0
vt 0 0
vt 0 0
vt 0 0
vt 0 0
vt 0 0
vt 0 0
vt 0 0
vt 0 0
vt 0 0
vt 0 0
vt 0 0
vt 0 0
vt 0 0
vt 0 0
vt 0 0
vt 0 0
vt 0 0
vt 0 0
vt 0 0
vt 0 0
vt 0 0
vt 0 0
vt 0 0
vt 0 0
vt 0 0
vt 0 0
vt 0 0
vt 0 0
vt 0 0
vt 0 0
vt 0 0
vt 0 0
vt 0 0
vt 0 0
vt 0 0
vt 0 0
vt 0 0
vt 0 0
vt 0 0
vt 0 0
vt 0 0
vt 0 0
vt 0 0
vt 0 0
vt 0 0
vt 0 0
vt 0 0
vt 0 0
vt 0 0
vt 0 0
vt 0 0
vt 0 0
vt 0 0
vt 0 0
vt 0 0
vt 0 0
vt 0 0
vt 0 0
vt 0 0
vt 0 0
vt 0 0
vt 0 0
vt 0 0
vt 0 0
s off
f 1/1/1 2/2/2 3/3/3
f 4/4/4 5/5/5 6/6/6
f 7/7/7 8/8/8 9/9/9
f 10/10/10 11/11/11 12/12/12
f 13/13/13 14/14/14 15/15/15
f 16/16/16 17/17/17 18/18/18
f 19/19/19 20/20/20 21/21/21
f 22/22/22 23/23/23 24/24/24
f 25/25/25 26/26/26 27/27/27
f 28/28/28 29/29/29 30/30/30
f 31/31/31 32/32/32 33/33/33
f 34/34/34 35/35/35 36/36/36
f 37/37/37 38/38/38 39/39/39
f 40/40/40 41/41/41 42/42/42
f 43/43/43 44/44/44 45/45/45
f 46/46/46 47/47/47 48/48/48
f 49/49/49 50/50/50 51/51/51
f 52/52/52 53/53/53 54/54/54
f 55/55/55 56/56/56 57/57/57
f 58/58/58 59/59/59 60/60/60
f 61/61/61 62/62/62 63/63/63
f 64/64/64 65/65/65 66/66/66
f 67/67/67 68/68/68 69/69/69
f 70/70/70 71/71/71 72/72/72
f 73/73/73 74/74/74 75/75/75
f 76/76/76 77/77/77 78/78/78
f 79/79/79 80/80/80 81/81/81
f 82/82/82 83/83/83 84/84/84
f 85/85/85 86/86/86 87/87/87
f 88/88/88 89/89/89 90/90/90
f 91/91/91 92/92/92 93/93/93
f 94/94/94 95/95/95 96/96/96
f 97/97/97 98/98/98 99/99/99
f 100/100/100 101/101/101 102/102/102
f 103/103/103 104/104/104 105/105/105
f 106/106/106 107/107/107 108/108/108
f 109/109/109 110/110/110 111/111/111
f 112/112/112 113/113/113 114/114/114
f 115/115/115 116/116/116 117/117/117
f 118/118/118 119/119/119 120/120/120
f 121/121/121 122/122/122 123/123/123
f 124/124/124 125/125/125 126/126/126
f 127/127/127 128/128/128 129/129/129
f 130/130/130 131/131/131 132/132/132
f 133/133/133 134/134/134 135/135/135
f 136/136/136 137/137/137 138/138/138
f 139/139/139 140/140/140 141/141/141
f 142/142/142 143/143/143 144/144/144
f 145/145/145 146/146/146 147/147/147
f 148/148/148 149/149/149 150/150/150
f 151/151/151 152/152/152 153/153/153
f 154/154/154 155/155/155 156/156/156
f 157/157/157 158/158/158 159/159/159
f 160/160/160 161/161/161 162/162/162
f 163/163/163 164/164/164 165/165/165
f 166/166/166 167/167/167 168/168/168
f 169/169/169 170/170/170 171/171/171
f 172/172/172 173/173/173 174/174/174
f 175/175/175 176/176/176 177/177/177
f 178/178/178 179/179/179 180/180/180
f 181/181/181 182/182/182 183/183/183
f 184/184/184 185/185/185 186/186/186
f 187/187/187 188/188/188 189/189/189
f 190/190/190 191/191/191 192/192/192
f 193/193/193 194/194/194 195/195/195
f 196/196/196 197/197/197 198/198/198
f 199/199/199 200/200/200 201/201/201
f 202/202/202 203/203/203 204/204/204
f 205/205/205 206/206/206 207/207/207
f 208/208/208 209/209/209 210/210/210
f 211/211/211 212/212/212 213/213/213
f 214/214/214 215/215/215 216/216/216
f 217/217/217 218/218/218 219/219/219
f 220/220/220 221/221/221 222/222/222
f 223/223/223 224/224/224 225/225/225
f 226/226/226 227/227/227 228/228/228
f 229/229/229 230/230/230 231/231/231
f 232/232/232 233/233/233 234/234/234
f 235/235/235 236/236/236 237/237/237
f 238/238/238 239/239/239 240/240/240
f 241/241/241 242/242/242 243/243/243
f 244/244/244 245/245/245 246/246/246
f 247/247/247 248/248/248 249/249/249
f 250/250/250 251/251/251 252/252/252
f 253/253/253 254/254/254 255/255/255
f 256/256/256 257/257/257 258/258/258
f 259/259/259 260/260/260 261/261/261
f 262/262/262 263/263/263 264/264/264
f 265/265/265 266/266/266 267/267/267
f 268/268/268 269/269/269 270/270/270
f 271/271/271 272/272/272 273/273/273
f 274/274/274 275/275/275 276/276/276
f 277/277/277 278/278/278 279/279/279
f 280/280/280 281/281/281 282/282/282
f 283/283/283 284/284/284 285/285/285
f 286/286/286 287/287/287 288/288/288
f 289/289/289 290/290/290 291/291/291
f 292/292/292 293/293/293 294/294/294
f 295/295/295 296/296/296 297/297/297
f 298/298/298 299/299/299 300/300/300
f 301/301/301 302/302/302 303/303/303
f 304/304/304 305/305/305 306/306/306
f 307/307/307 308/308/308 309/309/309
f 310/310/310 311/311/311 312/312/312
f 313/313/313 314/314/314 315/315/315
f 316/316/316 317/317/317 318/318/318
f 319/319/319 320/320/320 321/321/321
f 322/322/322 323/323/323 324/324/324
f 325/325/325 326/326/326 327/327/327
f 328/328/328 329/329/329 330/330/330
f 331/331/331 332/332/332 333/333/333
f 334/334/334 335/335/335 336/336/336
f 337/337/337 338/338/338 339/339/339
f 340/340/340 341/341/341 342/342/342
f 343/343/343 344/344/344 345/345/345
f 346/346/346 347/347/347 348/348/348
f 349/349/349 350/350/350 351/351/351
f 352/352/352 353/353/353 354/354/354
f 355/355/355 356/356/356 357/357/357
f 358/358/358 359/359/359 360/360/360
f 361/361/361 362/362/362 363/363/363
f 364/364/364 365/365/365 366/366/366
f 367/367/367 368/368/368 369/369/369
f 370/370/370 371/371/371 372/372/372
f 373/373/373 374/374/374 375/375/375
f 376/376/376 377/377/377 378/378/378
f 379/379/379 380/380/380 381/381/381
f 382/382/382 383/383/383 384/384/384
