v 0.599282 0.180332 -0.021463
v 0.573002 0.177335 -0.025344
v 0.585019 0.175531 -0.007657
v 0.599282 0.180332 -0.021463
v 0.585019 0.175531 -0.007657
v 0.602889 0.173502 0.00405
v 0.599282 0.180332 -0.021463
v 0.597472 0.183221 -0.046216
v 0.568671 0.178641 -0.046322
v 0.599282 0.180332 -0.021463
v 0.568671 0.178641 -0.046322
v 0.573002 0.177335 -0.025344
v 0.599282 0.180332 -0.021463
v 0.624255 0.17965 -0.020071
v 0.624139 0.182932 -0.046385
v 0.599282 0.180332 -0.021463
v 0.624139 0.182932 -0.046385
v 0.597472 0.183221 -0.046216
v 0.599282 0.180332 -0.021463
v 0.602889 0.173502 0.00405
v 0.623897 0.171558 0.007992
v 0.599282 0.180332 -0.021463
v 0.623897 0.171558 0.007992
v 0.624255 0.17965 -0.020071
v 0.6007 0.164777 0.008853
v 0.623895 0.162383 0.013219
v 0.623897 0.171558 0.007992
v 0.6007 0.164777 0.008853
v 0.623897 0.171558 0.007992
v 0.602889 0.173502 0.00405
v 0.585019 0.175531 -0.007657
v 0.580983 0.167258 -0.004093
v 0.6007 0.164777 0.008853
v 0.585019 0.175531 -0.007657
v 0.6007 0.164777 0.008853
v 0.602889 0.173502 0.00405
v 0.623121 0.144881 0.012821
v 0.623895 0.162383 0.013219
v 0.6007 0.164777 0.008853
v 0.623121 0.144881 0.012821
v 0.6007 0.164777 0.008853
v 0.599777 0.147361 0.007998
v 0.6007 0.164777 0.008853
v 0.580983 0.167258 -0.004093
v 0.580687 0.150092 -0.004781
v 0.6007 0.164777 0.008853
v 0.580687 0.150092 -0.004781
v 0.599777 0.147361 0.007998
v 0.647026 0.16044 0.008339
v 0.623895 0.162383 0.013219
v 0.623121 0.144881 0.012821
v 0.647026 0.16044 0.008339
v 0.623121 0.144881 0.012821
v 0.64708 0.14251 0.008197
v 0.666582 0.159244 -0.00504
v 0.647026 0.16044 0.008339
v 0.64708 0.14251 0.008197
v 0.666582 0.159244 -0.00504
v 0.64708 0.14251 0.008197
v 0.666962 0.141008 -0.005097
v 0.679576 0.158977 -0.024884
v 0.666582 0.159244 -0.00504
v 0.666962 0.141008 -0.005097
v 0.679576 0.158977 -0.024884
v 0.666962 0.141008 -0.005097
v 0.679802 0.140665 -0.024011
v 0.684826 0.141423 -0.047045
v 0.684028 0.159679 -0.048171
v 0.679576 0.158977 -0.024884
v 0.684826 0.141423 -0.047045
v 0.679576 0.158977 -0.024884
v 0.679802 0.140665 -0.024011
v 0.679273 0.161244 -0.071358
v 0.684028 0.159679 -0.048171
v 0.684826 0.141423 -0.047045
v 0.679273 0.161244 -0.071358
v 0.684826 0.141423 -0.047045
v 0.680927 0.143138 -0.069818
v 0.666023 0.163434 -0.09091
v 0.679273 0.161244 -0.071358
v 0.680927 0.143138 -0.069818
v 0.666023 0.163434 -0.09091
v 0.680927 0.143138 -0.069818
v 0.66767 0.145531 -0.090781
v 0.646306 0.165914 -0.10386
v 0.666023 0.163434 -0.09091
v 0.66767 0.145531 -0.090781
v 0.646306 0.165914 -0.10386
v 0.66767 0.145531 -0.090781
v 0.64702 0.148919 -0.104834
v 0.623121 0.1515 -0.109383
v 0.623111 0.168308 -0.108225
v 0.646306 0.165914 -0.10386
v 0.623121 0.1515 -0.109383
v 0.646306 0.165914 -0.10386
v 0.64702 0.148919 -0.104834
v 0.599978 0.170251 -0.103347
v 0.623111 0.168308 -0.108225
v 0.623121 0.1515 -0.109383
v 0.599978 0.170251 -0.103347
v 0.623121 0.1515 -0.109383
v 0.598875 0.153543 -0.104218
v 0.580423 0.171447 -0.089968
v 0.599978 0.170251 -0.103347
v 0.598875 0.153543 -0.104218
v 0.580423 0.171447 -0.089968
v 0.598875 0.153543 -0.104218
v 0.578951 0.154571 -0.090062
v 0.567431 0.171714 -0.070124
v 0.580423 0.171447 -0.089968
v 0.578951 0.154571 -0.090062
v 0.567431 0.171714 -0.070124
v 0.578951 0.154571 -0.090062
v 0.566227 0.154804 -0.069335
v 0.56258 0.154472 -0.047045
v 0.562974 0.171012 -0.046837
v 0.567431 0.171714 -0.070124
v 0.56258 0.154472 -0.047045
v 0.567431 0.171714 -0.070124
v 0.566227 0.154804 -0.069335
v 0.567731 0.169447 -0.023648
v 0.562974 0.171012 -0.046837
v 0.56258 0.154472 -0.047045
v 0.567731 0.169447 -0.023648
v 0.56258 0.154472 -0.047045
v 0.567722 0.152256 -0.023577
v 0.580983 0.167258 -0.004093
v 0.567731 0.169447 -0.023648
v 0.567722 0.152256 -0.023577
v 0.580983 0.167258 -0.004093
v 0.567722 0.152256 -0.023577
v 0.580687 0.150092 -0.004781
v 0.573002 0.177335 -0.025344
v 0.568671 0.178641 -0.046322
v 0.562974 0.171012 -0.046837
v 0.573002 0.177335 -0.025344
v 0.562974 0.171012 -0.046837
v 0.567731 0.169447 -0.023648
v 0.573002 0.177335 -0.025344
v 0.567731 0.169447 -0.023648
v 0.580983 0.167258 -0.004093
v 0.573002 0.177335 -0.025344
v 0.580983 0.167258 -0.004093
v 0.585019 0.175531 -0.007657
v 0.567431 0.171714 -0.070124
v 0.562974 0.171012 -0.046837
v 0.568671 0.178641 -0.046322
v 0.567431 0.171714 -0.070124
v 0.568671 0.178641 -0.046322
v 0.572685 0.17925 -0.067392
v 0.568671 0.178641 -0.046322
v 0.597472 0.183221 -0.046216
v 0.598605 0.182942 -0.071057
v 0.568671 0.178641 -0.046322
v 0.598605 0.182942 -0.071057
v 0.572685 0.17925 -0.067392
v 0.598605 0.182942 -0.071057
v 0.602112 0.178123 -0.097468
v 0.584423 0.179068 -0.085353
v 0.598605 0.182942 -0.071057
v 0.584423 0.179068 -0.085353
v 0.572685 0.17925 -0.067392
v 0.584423 0.179068 -0.085353
v 0.580423 0.171447 -0.089968
v 0.567431 0.171714 -0.070124
v 0.584423 0.179068 -0.085353
v 0.567431 0.171714 -0.070124
v 0.572685 0.17925 -0.067392
v 0.602112 0.178123 -0.097468
v 0.599978 0.170251 -0.103347
v 0.580423 0.171447 -0.089968
v 0.602112 0.178123 -0.097468
v 0.580423 0.171447 -0.089968
v 0.584423 0.179068 -0.085353
v 0.602112 0.178123 -0.097468
v 0.623055 0.17656 -0.101893
v 0.623111 0.168308 -0.108225
v 0.602112 0.178123 -0.097468
v 0.623111 0.168308 -0.108225
v 0.599978 0.170251 -0.103347
v 0.623728 0.182429 -0.073055
v 0.623055 0.17656 -0.101893
v 0.602112 0.178123 -0.097468
v 0.623728 0.182429 -0.073055
v 0.602112 0.178123 -0.097468
v 0.598605 0.182942 -0.071057
v 0.64858 0.178717 -0.071832
v 0.64406 0.174616 -0.097951
v 0.623055 0.17656 -0.101893
v 0.64858 0.178717 -0.071832
v 0.623055 0.17656 -0.101893
v 0.623728 0.182429 -0.073055
v 0.646306 0.165914 -0.10386
v 0.623111 0.168308 -0.108225
v 0.623055 0.17656 -0.101893
v 0.646306 0.165914 -0.10386
v 0.623055 0.17656 -0.101893
v 0.64406 0.174616 -0.097951
v 0.64858 0.178717 -0.071832
v 0.673947 0.170782 -0.068558
v 0.66193 0.172587 -0.086243
v 0.64858 0.178717 -0.071832
v 0.66193 0.172587 -0.086243
v 0.64406 0.174616 -0.097951
v 0.66193 0.172587 -0.086243
v 0.666023 0.163434 -0.09091
v 0.646306 0.165914 -0.10386
v 0.66193 0.172587 -0.086243
v 0.646306 0.165914 -0.10386
v 0.64406 0.174616 -0.097951
v 0.673947 0.170782 -0.068558
v 0.679273 0.161244 -0.071358
v 0.666023 0.163434 -0.09091
v 0.673947 0.170782 -0.068558
v 0.666023 0.163434 -0.09091
v 0.66193 0.172587 -0.086243
v 0.650522 0.178746 -0.046854
v 0.678279 0.169476 -0.047579
v 0.673947 0.170782 -0.068558
v 0.650522 0.178746 -0.046854
v 0.673947 0.170782 -0.068558
v 0.64858 0.178717 -0.071832
v 0.673947 0.170782 -0.068558
v 0.678279 0.169476 -0.047579
v 0.684028 0.159679 -0.048171
v 0.673947 0.170782 -0.068558
v 0.684028 0.159679 -0.048171
v 0.679273 0.161244 -0.071358
v 0.679576 0.158977 -0.024884
v 0.684028 0.159679 -0.048171
v 0.678279 0.169476 -0.047579
v 0.679576 0.158977 -0.024884
v 0.678279 0.169476 -0.047579
v 0.674273 0.168868 -0.026509
v 0.648972 0.176112 -0.022072
v 0.674273 0.168868 -0.026509
v 0.678279 0.169476 -0.047579
v 0.648972 0.176112 -0.022072
v 0.678279 0.169476 -0.047579
v 0.650522 0.178746 -0.046854
v 0.624139 0.182932 -0.046385
v 0.624255 0.17965 -0.020071
v 0.648972 0.176112 -0.022072
v 0.624139 0.182932 -0.046385
v 0.648972 0.176112 -0.022072
v 0.650522 0.178746 -0.046854
v 0.623728 0.182429 -0.073055
v 0.624139 0.182932 -0.046385
v 0.650522 0.178746 -0.046854
v 0.623728 0.182429 -0.073055
v 0.650522 0.178746 -0.046854
v 0.64858 0.178717 -0.071832
v 0.597472 0.183221 -0.046216
v 0.624139 0.182932 -0.046385
v 0.623728 0.182429 -0.073055
v 0.597472 0.183221 -0.046216
v 0.623728 0.182429 -0.073055
v 0.598605 0.182942 -0.071057
v 0.648972 0.176112 -0.022072
v 0.644837 0.169995 0.003568
v 0.662526 0.16905 -0.008548
v 0.648972 0.176112 -0.022072
v 0.662526 0.16905 -0.008548
v 0.674273 0.168868 -0.026509
v 0.624255 0.17965 -0.020071
v 0.623897 0.171558 0.007992
v 0.644837 0.169995 0.003568
v 0.624255 0.17965 -0.020071
v 0.644837 0.169995 0.003568
v 0.648972 0.176112 -0.022072
v 0.644837 0.169995 0.003568
v 0.647026 0.16044 0.008339
v 0.666582 0.159244 -0.00504
v 0.644837 0.169995 0.003568
v 0.666582 0.159244 -0.00504
v 0.662526 0.16905 -0.008548
v 0.644837 0.169995 0.003568
v 0.623897 0.171558 0.007992
v 0.623895 0.162383 0.013219
v 0.644837 0.169995 0.003568
v 0.623895 0.162383 0.013219
v 0.647026 0.16044 0.008339
v 0.662526 0.16905 -0.008548
v 0.666582 0.159244 -0.00504
v 0.679576 0.158977 -0.024884
v 0.662526 0.16905 -0.008548
v 0.679576 0.158977 -0.024884
v 0.674273 0.168868 -0.026509
vn -0.0456 0.9832 0.177
vn -0.3455 0.9119 0.2217
vn -0.2944 0.8623 0.412
vn -0.0456 0.9832 0.177
vn -0.2944 0.8623 0.412
vn -0.0992 0.8778 0.4687
vn -0.0456 0.9832 0.177
vn -0.0668 0.9964 0.0513
vn -0.3588 0.9321 0.0491
vn -0.0456 0.9832 0.177
vn -0.3588 0.9321 0.0491
vn -0.3455 0.9119 0.2217
vn -0.0456 0.9832 0.177
vn 0.0849 0.9773 0.1942
vn 0.0847 0.9951 0.0516
vn -0.0456 0.9832 0.177
vn 0.0847 0.9951 0.0516
vn -0.0668 0.9964 0.0513
vn -0.0456 0.9832 0.177
vn -0.0992 0.8778 0.4687
vn 0.0758 0.8725 0.4827
vn -0.0456 0.9832 0.177
vn 0.0758 0.8725 0.4827
vn 0.0849 0.9773 0.1942
vn -0.3551 0.1688 0.9195
vn 0.0203 0.1606 0.9868
vn 0.0758 0.8725 0.4827
vn -0.3551 0.1688 0.9195
vn 0.0758 0.8725 0.4827
vn -0.0992 0.8778 0.4687
vn -0.2944 0.8623 0.412
vn -0.678 0.186 0.7112
vn -0.3551 0.1688 0.9195
vn -0.2944 0.8623 0.412
vn -0.3551 0.1688 0.9195
vn -0.0992 0.8778 0.4687
vn 0.0094 -0.0226 0.9997
vn 0.0203 0.1606 0.9868
vn -0.3551 0.1687 0.9195
vn 0.0094 -0.0226 0.9997
vn -0.3551 0.1687 0.9195
vn -0.3747 -0.0222 0.9269
vn -0.3551 0.1688 0.9194
vn -0.678 0.1859 0.7112
vn -0.696 -0.0107 0.7179
vn -0.3551 0.1688 0.9194
vn -0.696 -0.0107 0.7179
vn -0.3747 -0.0222 0.9269
vn 0.391 0.166 0.9053
vn 0.0204 0.1606 0.9868
vn 0.0095 -0.0226 0.9997
vn 0.391 0.166 0.9053
vn 0.0095 -0.0226 0.9997
vn 0.3966 -0.0079 0.918
vn 0.7015 0.1822 0.689
vn 0.391 0.166 0.9053
vn 0.3966 -0.0079 0.9179
vn 0.7015 0.1822 0.689
vn 0.3966 -0.0079 0.9179
vn 0.7138 0.0148 0.7002
vn 0.9075 0.1988 0.3701
vn 0.7015 0.1822 0.689
vn 0.7138 0.0148 0.7002
vn 0.9075 0.1988 0.3701
vn 0.7138 0.0148 0.7002
vn 0.9206 0.0328 0.3892
vn 0.9986 0.0459 0.0265
vn 0.9766 0.2151 0.0058
vn 0.9075 0.1988 0.37
vn 0.9986 0.0459 0.0265
vn 0.9075 0.1988 0.37
vn 0.9206 0.0328 0.3891
vn 0.9021 0.2277 -0.3665
vn 0.9766 0.2151 0.0058
vn 0.9986 0.0459 0.0265
vn 0.9021 0.2277 -0.3665
vn 0.9986 0.0459 0.0265
vn 0.9361 0.0534 -0.3477
vn 0.6968 0.2392 -0.6762
vn 0.9021 0.2276 -0.3666
vn 0.9361 0.0534 -0.3477
vn 0.6968 0.2392 -0.6762
vn 0.9361 0.0534 -0.3477
vn 0.7321 0.0555 -0.6789
vn 0.385 0.2559 -0.8867
vn 0.6968 0.2392 -0.6762
vn 0.732 0.0555 -0.679
vn 0.385 0.2559 -0.8867
vn 0.732 0.0555 -0.679
vn 0.4043 0.0627 -0.9125
vn 0.0074 0.0671 -0.9977
vn 0.009 0.2658 -0.964
vn 0.385 0.2559 -0.8867
vn 0.0074 0.0671 -0.9977
vn 0.385 0.2559 -0.8867
vn 0.4043 0.0627 -0.9125
vn -0.3644 0.268 -0.8918
vn 0.009 0.2657 -0.964
vn 0.0074 0.0671 -0.9977
vn -0.3644 0.268 -0.8918
vn 0.0074 0.0671 -0.9977
vn -0.39 0.0678 -0.9183
vn -0.6858 0.2628 -0.6787
vn -0.3644 0.268 -0.8918
vn -0.39 0.0678 -0.9183
vn -0.6858 0.2628 -0.6787
vn -0.39 0.0678 -0.9183
vn -0.7224 0.0626 -0.6886
vn -0.8968 0.2528 -0.3631
vn -0.6858 0.2628 -0.6787
vn -0.7224 0.0626 -0.6886
vn -0.8968 0.2528 -0.3631
vn -0.7224 0.0626 -0.6886
vn -0.9325 0.0507 -0.3577
vn -0.9993 0.0272 0.0261
vn -0.9728 0.2307 0.023
vn -0.8968 0.2528 -0.363
vn -0.9993 0.0272 0.0261
vn -0.8968 0.2528 -0.363
vn -0.9325 0.0507 -0.3576
vn -0.8968 0.2043 0.3924
vn -0.9728 0.2306 0.0231
vn -0.9993 0.0272 0.0261
vn -0.8968 0.2043 0.3924
vn -0.9993 0.0272 0.0261
vn -0.9146 0.0037 0.4044
vn -0.678 0.186 0.7111
vn -0.8968 0.2042 0.3924
vn -0.9146 0.0037 0.4044
vn -0.678 0.186 0.7111
vn -0.9146 0.0037 0.4044
vn -0.6961 -0.0107 0.7178
vn -0.3455 0.9119 0.2217
vn -0.3588 0.9321 0.0491
vn -0.9727 0.2307 0.0231
vn -0.3455 0.9119 0.2217
vn -0.9727 0.2307 0.0231
vn -0.8968 0.2043 0.3924
vn -0.3454 0.9119 0.2217
vn -0.8968 0.2044 0.3924
vn -0.678 0.186 0.7111
vn -0.3454 0.9119 0.2217
vn -0.678 0.186 0.7111
vn -0.2944 0.8623 0.412
vn -0.8968 0.2528 -0.363
vn -0.9728 0.2307 0.0231
vn -0.3588 0.9321 0.0491
vn -0.8968 0.2528 -0.363
vn -0.3588 0.9321 0.0491
vn -0.349 0.9285 -0.1266
vn -0.3588 0.9321 0.0491
vn -0.0668 0.9964 0.0513
vn -0.0522 0.995 -0.0848
vn -0.3588 0.9321 0.0491
vn -0.0522 0.995 -0.0848
vn -0.349 0.9286 -0.1266
vn -0.0522 0.995 -0.0848
vn -0.1028 0.92 -0.3781
vn -0.2983 0.8981 -0.3231
vn -0.0522 0.995 -0.0848
vn -0.2983 0.8981 -0.3231
vn -0.349 0.9285 -0.1266
vn -0.2983 0.8981 -0.3231
vn -0.6858 0.2628 -0.6787
vn -0.8968 0.2528 -0.363
vn -0.2983 0.8981 -0.3231
vn -0.8968 0.2528 -0.363
vn -0.349 0.9285 -0.1266
vn -0.1028 0.92 -0.3781
vn -0.3644 0.268 -0.8918
vn -0.6858 0.2628 -0.6787
vn -0.1028 0.92 -0.3781
vn -0.6858 0.2628 -0.6787
vn -0.2983 0.8981 -0.3231
vn -0.1028 0.92 -0.3781
vn 0.0715 0.9161 -0.3946
vn 0.009 0.2658 -0.964
vn -0.1028 0.92 -0.3781
vn 0.009 0.2658 -0.964
vn -0.3644 0.268 -0.8918
vn 0.082 0.9911 -0.1048
vn 0.0715 0.9161 -0.3945
vn -0.1028 0.92 -0.3781
vn 0.082 0.9911 -0.1048
vn -0.1028 0.92 -0.3781
vn -0.0522 0.995 -0.0848
vn 0.2137 0.973 -0.0876
vn 0.2459 0.8892 -0.3859
vn 0.0715 0.9161 -0.3945
vn 0.2137 0.973 -0.0876
vn 0.0715 0.9161 -0.3945
vn 0.082 0.9911 -0.1048
vn 0.385 0.2559 -0.8867
vn 0.009 0.2658 -0.964
vn 0.0715 0.9161 -0.3946
vn 0.385 0.2559 -0.8867
vn 0.0715 0.9161 -0.3946
vn 0.2459 0.8892 -0.3859
vn 0.2137 0.973 -0.0876
vn 0.5005 0.8543 -0.1402
vn 0.4366 0.8352 -0.3344
vn 0.2137 0.973 -0.0876
vn 0.4366 0.8352 -0.3344
vn 0.2459 0.8892 -0.3858
vn 0.4366 0.8352 -0.3344
vn 0.6968 0.2393 -0.6762
vn 0.385 0.2559 -0.8867
vn 0.4366 0.8352 -0.3344
vn 0.385 0.2559 -0.8867
vn 0.2459 0.8892 -0.3859
vn 0.5006 0.8543 -0.1402
vn 0.9021 0.2277 -0.3666
vn 0.6968 0.2392 -0.6762
vn 0.5006 0.8543 -0.1402
vn 0.6968 0.2392 -0.6762
vn 0.4366 0.8352 -0.3344
vn 0.2322 0.9715 0.0472
vn 0.5178 0.8546 0.0387
vn 0.5005 0.8543 -0.1402
vn 0.2322 0.9715 0.0472
vn 0.5005 0.8543 -0.1402
vn 0.2137 0.973 -0.0876
vn 0.5006 0.8543 -0.1402
vn 0.5178 0.8546 0.0387
vn 0.9766 0.2151 0.0058
vn 0.5006 0.8543 -0.1402
vn 0.9766 0.2151 0.0058
vn 0.9021 0.2277 -0.3666
vn 0.9075 0.1988 0.37
vn 0.9766 0.2151 0.0058
vn 0.5178 0.8546 0.0387
vn 0.9075 0.1988 0.37
vn 0.5178 0.8546 0.0387
vn 0.504 0.8364 0.2153
vn 0.2123 0.9618 0.1731
vn 0.504 0.8364 0.2153
vn 0.5178 0.8546 0.0387
vn 0.2123 0.9618 0.1731
vn 0.5178 0.8546 0.0387
vn 0.2322 0.9715 0.0472
vn 0.0847 0.9951 0.0516
vn 0.0849 0.9773 0.1942
vn 0.2123 0.9618 0.1731
vn 0.0847 0.9951 0.0516
vn 0.2123 0.9618 0.1731
vn 0.2322 0.9715 0.0472
vn 0.082 0.9911 -0.1048
vn 0.0847 0.9951 0.0516
vn 0.2322 0.9715 0.0472
vn 0.082 0.9911 -0.1048
vn 0.2322 0.9715 0.0472
vn 0.2137 0.973 -0.0876
vn -0.0668 0.9964 0.0513
vn 0.0847 0.9951 0.0516
vn 0.082 0.9911 -0.1048
vn -0.0668 0.9964 0.0513
vn 0.082 0.9911 -0.1048
vn -0.0522 0.995 -0.0848
vn 0.2123 0.9617 0.1731
vn 0.2548 0.8463 0.4678
vn 0.4443 0.7981 0.407
vn 0.2123 0.9617 0.1731
vn 0.4443 0.7981 0.407
vn 0.504 0.8364 0.2153
vn 0.0849 0.9773 0.1942
vn 0.0758 0.8725 0.4826
vn 0.2548 0.8463 0.4678
vn 0.0849 0.9773 0.1942
vn 0.2548 0.8463 0.4678
vn 0.2123 0.9618 0.1731
vn 0.2548 0.8463 0.4679
vn 0.391 0.1661 0.9053
vn 0.7015 0.1822 0.689
vn 0.2548 0.8463 0.4679
vn 0.7015 0.1822 0.689
vn 0.4443 0.7981 0.407
vn 0.2548 0.8463 0.4679
vn 0.0758 0.8725 0.4827
vn 0.0203 0.1606 0.9868
vn 0.2548 0.8463 0.4679
vn 0.0203 0.1606 0.9868
vn 0.391 0.166 0.9053
vn 0.4443 0.7981 0.407
vn 0.7015 0.1822 0.689
vn 0.9075 0.1988 0.37
vn 0.4443 0.7981 0.407
vn 0.9075 0.1988 0.37
vn 0.504 0.8364 0.2153
vt 0 0
vt 0 0
vt 0 0
vt 0 0
vt 0 0
vt 0 0
vt 0 0
vt 0 0
vt 0 0
vt 0 0
vt 0 0
vt 0 0
vt 0 0
vt 0 0
vt 0 0
vt 0 0
vt 0 0
vt 0 0
vt 0 0
vt 0 0
vt 0 0
vt 0 0
vt 0 0
vt 0 0
vt 0 0
vt 0 0
vt 0 0
vt 0 0
vt 0 0
vt 0 0
vt 0 0
vt 0 0
vt 0 0
vt 0 0
vt 0 0
vt 0 0
vt 0 0
vt 0 0
vt 0 0
vt 0 0
vt 0 0
vt 0 0
vt 0 0
vt 0 0
vt 0 0
vt 0 0
vt 0 0
vt 0 0
vt 0 0
vt 0 0
vt 0 0
vt 0 0
vt 0 0
vt 0 0
vt 0 0
vt 0 0
vt 0 0
vt 0 0
vt 0 0
vt 0 0
vt 0 0
vt 0 0
vt 0 0
vt 0 0
vt 0 0
vt 0 0
vt 0 0
vt 0 0
vt 0 0
vt 0 0
vt 0 0
vt 0 0
vt 0 0
vt 0 0
vt 0 0
vt 0 0
vt 0 0
vt 0 0
vt 0 0
vt 0 0
vt 0 0
vt 0 0
vt 0 0
vt 0 0
vt 0 0
vt 0 0
vt 0 0
vt 0 0
vt 0 0
vt 0 0
vt 0 0
vt 0 0
vt 0 0
vt 0 0
vt 0 0
vt 0 0
vt 0 0
vt 0 0
vt 0 0
vt 0 0
vt 0 0
vt 0 0
vt 0 0
vt 0 0
vt 0 0
vt 0 0
vt 0 0
vt 0 0
vt 0 0
vt 0 0
vt 0 0
vt 0 0
vt 0 0
vt 0 0
vt 0 0
vt 0 0
vt 0 0
vt 0 0
vt 0 0
vt 0 0
vt 0 0
vt 0 0
vt 0 0
vt 0 0
vt 0 0
vt 0 0
vt 0 0
vt 0 0
vt 0 0
vt 0 0
vt 0 0
vt 0 0
vt 0 0
vt 0 0
vt 0 0
vt 0 0
vt 0 0
vt 0 0
vt 0 0
vt 0 0
vt 0 0
vt 0 0
vt 0 0
vt 0 0
vt 0 0
vt 0 0
vt 0 0
vt 0 0
vt 0 0
vt 0 0
vt 0 0
vt 0 0
vt 0 0
vt 0 0
vt 0 0
vt 0 0
vt 0 0
vt 0 0
vt 0 0
vt 0 0
vt 0 0
vt 0 0
vt 0 0
vt 0 0
vt 0 0
vt 0 0
vt 0 0
vt 0 0
vt 0 0
vt 0 0
vt 0 0
vt 0 0
vt 0 0
vt 0 0
vt 0 0
vt 0 0
vt 0 0
vt 0 0
vt 0 0
vt 0 0
vt 0 0
vt 0 0
vt 0 0
vt 0 0
vt 0 0
vt 0 0
vt 0 0
vt 0 0
vt 0 0
vt 0 0
vt 0 0
vt 0 0
vt 0 0
vt 0 0
vt 0 0
vt 0 0
vt 0 0
vt 0 0
vt 0 0
vt 0 0
vt 0 0
vt 0 0
vt 0 0
vt 0 0
vt 0 0
vt 0 0
vt 0 0
vt 0 0
vt 0 0
vt 0 0
vt 0 0
vt 0 0
vt 0 0
vt 0 0
vt 0 0
vt 0 0
vt 0 0
vt 0 0
vt 0 0
vt 0 0
vt 0 0
vt 0 0
vt 0 0
vt 0 0
vt 0 0
vt 0 0
vt 0 0
vt 0 0
vt 0 0
vt 0 0
vt 0 0
vt 0 0
vt 0 0
vt 0 0
vt 0 0
vt 0 0
vt 0 0
vt 0 0
vt 0 0
vt 0 0
vt 0 0
vt 0 0
vt 0 0
vt 0 0
vt 0 0
vt 0 0
vt 0 0
vt 0 0
vt 0 0
vt 0 0
vt 0 0
vt 0 0
vt 0 0
vt 0 0
vt 0 0
vt 0 0
vt 0 0
vt 0 0
vt 0 0
vt 0 0
vt 0 0
vt 0 0
vt 0 0
vt 0 0
vt 0 0
vt 0 0
vt 0 0
vt 0 0
vt 0 0
vt 0 0
vt 0 0
vt 0 0
vt 0 0
vt 0 0
vt 0 0
vt 0 0
vt 0 0
vt 0 0
vt 0 0
vt 0 0
vt 0 0
vt 0 0
vt 0 0
vt 0 0
vt 0 0
vt 0 0
vt 0 0
vt 0 0
s off
f 1/1/1 2/2/2 3/3/3
f 4/4/4 5/5/5 6/6/6
f 7/7/7 8/8/8 9/9/9
f 10/10/10 11/11/11 12/12/12
f 13/13/13 14/14/14 15/15/15
f 16/16/16 17/17/17 18/18/18
f 19/19/19 20/20/20 21/21/21
f 22/22/22 23/23/23 24/24/24
f 25/25/25 26/26/26 27/27/27
f 28/28/28 29/29/29 30/30/30
f 31/31/31 32/32/32 33/33/33
f 34/34/34 35/35/35 36/36/36
f 37/37/37 38/38/38 39/39/39
f 40/40/40 41/41/41 42/42/42
f 43/43/43 44/44/44 45/45/45
f 46/46/46 47/47/47 48/48/48
f 49/49/49 50/50/50 51/51/51
f 52/52/52 53/53/53 54/54/54
f 55/55/55 56/56/56 57/57/57
f 58/58/58 59/59/59 60/60/60
f 61/61/61 62/62/62 63/63/63
f 64/64/64 65/65/65 66/66/66
f 67/67/67 68/68/68 69/69/69
f 70/70/70 71/71/71 72/72/72
f 73/73/73 74/74/74 75/75/75
f 76/76/76 77/77/77 78/78/78
f 79/79/79 80/80/80 81/81/81
f 82/82/82 83/83/83 84/84/84
f 85/85/85 86/86/86 87/87/87
f 88/88/88 89/89/89 90/90/90
f 91/91/91 92/92/92 93/93/93
f 94/94/94 95/95/95 96/96/96
f 97/97/97 98/98/98 99/99/99
f 100/100/100 101/101/101 102/102/102
f 103/103/103 104/104/104 105/105/105
f 106/106/106 107/107/107 108/108/108
f 109/109/109 110/110/110 111/111/111
f 112/112/112 113/113/113 114/114/114
f 115/115/115 116/116/116 117/117/117
f 118/118/118 119/119/119 120/120/120
f 121/121/121 122/122/122 123/123/123
f 124/124/124 125/125/125 126/126/126
f 127/127/127 128/128/128 129/129/129
f 130/130/130 131/131/131 132/132/132
f 133/133/133 134/134/134 135/135/135
f 136/136/136 137/137/137 138/138/138
f 139/139/139 140/140/140 141/141/141
f 142/142/142 143/143/143 144/144/144
f 145/145/145 146/146/146 147/147/147
f 148/148/148 149/149/149 150/150/150
f 151/151/151 152/152/152 153/153/153
f 154/154/154 155/155/155 156/156/156
f 157/157/157 158/158/158 159/159/159
f 160/160/160 161/161/161 162/162/162
f 163/163/163 164/164/164 165/165/165
f 166/166/166 167/167/167 168/168/168
f 169/169/169 170/170/170 171/171/171
f 172/172/172 173/173/173 174/174/174
f 175/175/175 176/176/176 177/177/177
f 178/178/178 179/179/179 180/180/180
f 181/181/181 182/182/182 183/183/183
f 184/184/184 185/185/185 186/186/186
f 187/187/187 188/188/188 189/189/189
f 190/190/190 191/191/191 192/192/192
f 193/193/193 194/194/194 195/195/195
f 196/196/196 197/197/197 198/198/198
f 199/199/199 200/200/200 201/201/201
f 202/202/202 203/203/203 204/204/204
f 205/205/205 206/206/206 207/207/207
f 208/208/208 209/209/209 210/210/210
f 211/211/211 212/212/212 213/213/213
f 214/214/214 215/215/215 216/216/216
f 217/217/217 218/218/218 219/219/219
f 220/220/220 221/221/221 222/222/222
f 223/223/223 224/224/224 225/225/225
f 226/226/226 227/227/227 228/228/228
f 229/229/229 230/230/230 231/231/231
f 232/232/232 233/233/233 234/234/234
f 235/235/235 236/236/236 237/237/237
f 238/238/238 239/239/239 240/240/240
f 241/241/241 242/242/242 243/243/243
f 244/244/244 245/245/245 246/246/246
f 247/247/247 248/248/248 249/249/249
f 250/250/250 251/251/251 252/252/252
f 253/253/253 254/254/254 255/255/255
f 256/256/256 257/257/257 258/258/258
f 259/259/259 260/260/260 261/261/261
f 262/262/262 263/263/263 264/264/264
f 265/265/265 266/266/266 267/267/267
f 268/268/268 269/269/269 270/270/270
f 271/271/271 272/272/272 273/273/273
f 274/274/274 275/275/275 276/276/276
f 277/277/277 278/278/278 279/279/279
f 280/280/280 281/281/281 282/282/282
f 283/283/283 284/284/284 285/285/285
f 286/286/286 287/287/287 288/288/288
