v -0.056401 0.181434 -0.124606
v -0.070276 0.181874 -0.144611
v -0.075058 0.176209 -0.142696
v -0.060306 0.176209 -0.120733
v -0.056401 0.181434 -0.124606
v -0.036012 0.181047 -0.111449
v -0.042024 0.18317 -0.142238
v -0.070276 0.181874 -0.144611
v -0.036012 0.181047 -0.111449
v -0.056401 0.181434 -0.124606
v -0.060306 0.176209 -0.120733
v -0.038184 0.176209 -0.106148
v -0.038184 0.176209 -0.106148
v -0.060306 0.176209 -0.120733
v -0.060737 0.167909 -0.120797
v -0.038562 0.167887 -0.10593
v -0.060306 0.176209 -0.120733
v -0.075058 0.176209 -0.142696
v -0.075407 0.167932 -0.142983
v -0.060737 0.167909 -0.120797
v -0.075058 0.176209 -0.142696
v -0.080234 0.176209 -0.168575
v -0.080376 0.168358 -0.168976
v -0.075407 0.167932 -0.142983
v -0.080234 0.176209 -0.168575
v -0.075082 0.176209 -0.194375
v -0.075056 0.168578 -0.19476
v -0.080376 0.168358 -0.168976
v -0.075082 0.176209 -0.194375
v -0.06052 0.176209 -0.216178
v -0.060385 0.168576 -0.216499
v -0.075056 0.168578 -0.19476
v -0.06052 0.176209 -0.216178
v -0.038826 0.176209 -0.230753
v -0.038663 0.168478 -0.230965
v -0.060385 0.168576 -0.216499
v -0.038826 0.176209 -0.230753
v -0.013275 0.176209 -0.236007
v -0.0131 0.168421 -0.236145
v -0.038663 0.168478 -0.230965
v 0.012353 0.176209 -0.231186
v 0.012495 0.168475 -0.231266
v -0.0131 0.168421 -0.236145
v -0.013275 0.176209 -0.236007
v 0.034266 0.176209 -0.216983
v 0.0344 0.168574 -0.21705
v 0.012495 0.168475 -0.231266
v 0.012353 0.176209 -0.231186
v 0.049196 0.176209 -0.195461
v 0.049322 0.168581 -0.195507
v 0.0344 0.168574 -0.21705
v 0.034266 0.176209 -0.216983
v 0.054786 0.176209 -0.169767
v 0.054931 0.168369 -0.169781
v 0.049322 0.168581 -0.195507
v 0.049196 0.176209 -0.195461
v 0.050074 0.176209 -0.143798
v 0.050278 0.167933 -0.143734
v 0.054931 0.168369 -0.169781
v 0.054786 0.176209 -0.169767
v 0.035696 0.176209 -0.121574
v 0.035883 0.16791 -0.12137
v 0.050278 0.167933 -0.143734
v 0.050074 0.176209 -0.143798
v 0.013822 0.176209 -0.106599
v 0.013881 0.167889 -0.10625
v 0.035883 0.16791 -0.12137
v 0.035696 0.176209 -0.121574
v 0.011508 0.18106 -0.111822
v 0.013822 0.176209 -0.106599
v 0.035696 0.176209 -0.121574
v 0.031686 0.18145 -0.125301
v 0.031686 0.18145 -0.125301
v 0.035696 0.176209 -0.121574
v 0.050074 0.176209 -0.143798
v 0.045241 0.181889 -0.145528
v 0.031686 0.18145 -0.125301
v 0.045241 0.181889 -0.145528
v 0.016598 0.18317 -0.142238
v 0.011508 0.18106 -0.111822
v 0.045241 0.181889 -0.145528
v 0.049993 0.182227 -0.16949
v 0.017243 0.184019 -0.169911
v 0.016598 0.18317 -0.142238
v 0.045241 0.181889 -0.145528
v 0.050074 0.176209 -0.143798
v 0.054786 0.176209 -0.169767
v 0.049993 0.182227 -0.16949
v 0.013941 0.183933 -0.195848
v 0.017243 0.184019 -0.169911
v 0.049993 0.182227 -0.16949
v 0.045109 0.182378 -0.193483
v 0.049993 0.182227 -0.16949
v 0.054786 0.176209 -0.169767
v 0.049196 0.176209 -0.195461
v 0.045109 0.182378 -0.193483
v 0.010829 0.18225 -0.227131
v 0.013941 0.183933 -0.195848
v 0.045109 0.182378 -0.193483
v 0.031324 0.182337 -0.213733
v 0.045109 0.182378 -0.193483
v 0.049196 0.176209 -0.195461
v 0.034266 0.176209 -0.216983
v 0.031324 0.182337 -0.213733
v 0.031324 0.182337 -0.213733
v 0.034266 0.176209 -0.216983
v 0.012353 0.176209 -0.231186
v 0.010829 0.18225 -0.227131
v 0.010829 0.18225 -0.227131
v 0.012353 0.176209 -0.231186
v -0.013275 0.176209 -0.236007
v -0.013215 0.182209 -0.23169
v -0.013215 0.182209 -0.23169
v -0.012713 0.184255 -0.198075
v 0.013941 0.183933 -0.195848
v 0.010829 0.18225 -0.227131
v -0.013215 0.182209 -0.23169
v -0.037185 0.182255 -0.226751
v -0.039367 0.183933 -0.195848
v -0.012713 0.184255 -0.198075
v -0.037185 0.182255 -0.226751
v -0.013215 0.182209 -0.23169
v -0.013275 0.176209 -0.236007
v -0.038826 0.176209 -0.230753
v -0.037185 0.182255 -0.226751
v -0.057463 0.182344 -0.213028
v -0.07092 0.182378 -0.192558
v -0.039367 0.183933 -0.195848
v -0.057463 0.182344 -0.213028
v -0.037185 0.182255 -0.226751
v -0.038826 0.176209 -0.230753
v -0.06052 0.176209 -0.216178
v -0.07092 0.182378 -0.192558
v -0.057463 0.182344 -0.213028
v -0.06052 0.176209 -0.216178
v -0.075082 0.176209 -0.194375
v -0.039367 0.183933 -0.195848
v -0.07092 0.182378 -0.192558
v -0.075414 0.18222 -0.168491
v -0.042669 0.184019 -0.169911
v -0.075414 0.18222 -0.168491
v -0.07092 0.182378 -0.192558
v -0.075082 0.176209 -0.194375
v -0.080234 0.176209 -0.168575
v -0.070276 0.181874 -0.144611
v -0.075414 0.18222 -0.168491
v -0.080234 0.176209 -0.168575
v -0.075058 0.176209 -0.142696
v -0.070276 0.181874 -0.144611
v -0.042024 0.18317 -0.142238
v -0.042669 0.184019 -0.169911
v -0.075414 0.18222 -0.168491
v -0.042024 0.18317 -0.142238
v -0.012713 0.183418 -0.138496
v -0.012713 0.184511 -0.170717
v -0.042669 0.184019 -0.169911
v -0.012713 0.184255 -0.198075
v -0.039367 0.183933 -0.195848
v -0.042669 0.184019 -0.169911
v -0.012713 0.184511 -0.170717
v 0.016598 0.18317 -0.142238
v 0.017243 0.184019 -0.169911
v -0.012713 0.184511 -0.170717
v -0.012713 0.183418 -0.138496
v -0.012713 0.184255 -0.198075
v -0.012713 0.184511 -0.170717
v 0.017243 0.184019 -0.169911
v 0.013941 0.183933 -0.195848
v 0.011508 0.18106 -0.111822
v 0.016598 0.18317 -0.142238
v -0.012713 0.183418 -0.138496
v -0.012216 0.180887 -0.106992
v -0.036012 0.181047 -0.111449
v -0.012216 0.180887 -0.106992
v -0.012713 0.183418 -0.138496
v -0.042024 0.18317 -0.142238
v -0.012216 0.180887 -0.106992
v -0.036012 0.181047 -0.111449
v -0.038184 0.176209 -0.106148
v -0.01214 0.176209 -0.101215
v -0.012216 0.180887 -0.106992
v -0.01214 0.176209 -0.101215
v 0.013822 0.176209 -0.106599
v 0.011508 0.18106 -0.111822
v -0.01214 0.176209 -0.101215
v -0.038184 0.176209 -0.106148
v -0.038562 0.167887 -0.10593
v -0.012308 0.16788 -0.1008
v -0.01214 0.176209 -0.101215
v -0.012308 0.16788 -0.1008
v 0.013881 0.167889 -0.10625
v 0.013822 0.176209 -0.106599
vn -0.183 0.9614 0.2057
vn -0.2179 0.9701 0.1065
vn -0.8668 0.3383 0.3664
vn -0.654 0.3626 0.6639
vn -0.183 0.9614 0.2057
vn -0.0758 0.9749 0.2096
vn -0.0285 0.9984 0.0482
vn -0.2179 0.9701 0.1065
vn -0.0758 0.9749 0.2096
vn -0.183 0.9614 0.2057
vn -0.654 0.3626 0.6639
vn -0.3455 0.3838 0.8564
vn -0.3455 0.3838 0.8564
vn -0.654 0.3626 0.6639
vn -0.71 0.0315 0.7035
vn -0.3821 0.0398 0.9233
vn -0.654 0.3626 0.6639
vn -0.8668 0.3383 0.3664
vn -0.9251 0.025 0.3789
vn -0.71 0.0315 0.7035
vn -0.8668 0.3383 0.3664
vn -0.9478 0.3188 0.0061
vn -0.9998 0.0199 -0.0038
vn -0.9251 0.025 0.3789
vn -0.9478 0.3188 0.0061
vn -0.8812 0.3054 -0.3609
vn -0.9212 0.0175 -0.3888
vn -0.9998 0.0199 -0.0038
vn -0.8812 0.3054 -0.3609
vn -0.6776 0.2974 -0.6727
vn -0.7025 0.0179 -0.7114
vn -0.9212 0.0175 -0.3888
vn -0.6776 0.2974 -0.6727
vn -0.3705 0.2935 -0.8812
vn -0.3808 0.0182 -0.9245
vn -0.7025 0.0179 -0.7114
vn -0.3705 0.2935 -0.8812
vn -0.009 0.2924 -0.9563
vn -0.0043 0.018 -0.9998
vn -0.3808 0.0182 -0.9245
vn 0.3541 0.2936 -0.8879
vn 0.3727 0.018 -0.9278
vn -0.0043 0.018 -0.9998
vn -0.009 0.2924 -0.9563
vn 0.6643 0.2975 -0.6857
vn 0.6964 0.0184 -0.7174
vn 0.3727 0.018 -0.9278
vn 0.3541 0.2936 -0.8879
vn 0.8739 0.3054 -0.3782
vn 0.9178 0.0184 -0.3966
vn 0.6964 0.0184 -0.7174
vn 0.6643 0.2975 -0.6857
vn 0.948 0.3181 -0.0128
vn 0.9997 0.0204 -0.0123
vn 0.9178 0.0184 -0.3966
vn 0.8739 0.3054 -0.3782
vn 0.8743 0.3372 0.3492
vn 0.9284 0.0258 0.3706
vn 0.9997 0.0204 -0.0123
vn 0.948 0.3181 -0.0128
vn 0.6668 0.3615 0.6517
vn 0.7164 0.0328 0.697
vn 0.9284 0.0258 0.3706
vn 0.8743 0.3372 0.3492
vn 0.3619 0.3829 0.8499
vn 0.3902 0.0405 0.9198
vn 0.7164 0.0328 0.697
vn 0.6668 0.3615 0.6517
vn 0.0789 0.9747 0.2092
vn 0.3619 0.3829 0.8499
vn 0.6668 0.3615 0.6517
vn 0.1867 0.9611 0.2034
vn 0.1867 0.9611 0.2034
vn 0.6668 0.3615 0.6517
vn 0.8743 0.3372 0.3492
vn 0.2192 0.9702 0.1031
vn 0.1867 0.9611 0.2034
vn 0.2192 0.9702 0.1031
vn 0.0286 0.9984 0.048
vn 0.0789 0.9747 0.2092
vn 0.2192 0.9702 0.1031
vn 0.2325 0.9726 0.0073
vn 0.0338 0.9994 0.0124
vn 0.0286 0.9984 0.048
vn 0.2192 0.9702 0.1031
vn 0.8743 0.3372 0.3492
vn 0.948 0.3181 -0.0128
vn 0.2325 0.9726 0.0073
vn 0.0298 0.9991 -0.029
vn 0.0338 0.9994 0.0124
vn 0.2325 0.9726 0.0073
vn 0.2324 0.9679 -0.0962
vn 0.2325 0.9726 0.0073
vn 0.948 0.3181 -0.0128
vn 0.8739 0.3054 -0.3782
vn 0.2324 0.9679 -0.0962
vn 0.0933 0.9678 -0.2338
vn 0.0298 0.9991 -0.029
vn 0.2324 0.9679 -0.0962
vn 0.2037 0.9561 -0.2105
vn 0.2324 0.9679 -0.0962
vn 0.8739 0.3054 -0.3782
vn 0.6643 0.2975 -0.6857
vn 0.2037 0.9561 -0.2105
vn 0.2037 0.9561 -0.2105
vn 0.6643 0.2975 -0.6857
vn 0.3541 0.2936 -0.8879
vn 0.0933 0.9678 -0.2338
vn 0.0933 0.9678 -0.2338
vn 0.3541 0.2936 -0.8879
vn -0.009 0.2924 -0.9563
vn -0.0017 0.9716 -0.2366
vn -0.0017 0.9716 -0.2366
vn -0 0.9994 -0.0349
vn 0.0298 0.9991 -0.029
vn 0.0933 0.9678 -0.2338
vn -0.0017 0.9716 -0.2366
vn -0.097 0.9676 -0.2329
vn -0.0298 0.9991 -0.0288
vn -0 0.9994 -0.0349
vn -0.097 0.9676 -0.2329
vn -0.0017 0.9716 -0.2366
vn -0.009 0.2924 -0.9563
vn -0.3705 0.2935 -0.8812
vn -0.097 0.9676 -0.2329
vn -0.207 0.9561 -0.2073
vn -0.2333 0.968 -0.0923
vn -0.0298 0.9991 -0.0288
vn -0.207 0.9561 -0.2073
vn -0.097 0.9676 -0.2329
vn -0.3705 0.2935 -0.8812
vn -0.6776 0.2974 -0.6727
vn -0.2333 0.968 -0.0923
vn -0.207 0.9561 -0.2073
vn -0.6776 0.2974 -0.6727
vn -0.8812 0.3054 -0.3609
vn -0.0298 0.9991 -0.0288
vn -0.2333 0.968 -0.0923
vn -0.2323 0.9726 0.0107
vn -0.0337 0.9994 0.0125
vn -0.2323 0.9726 0.0107
vn -0.2333 0.968 -0.0923
vn -0.8812 0.3054 -0.3609
vn -0.9478 0.3188 0.0061
vn -0.2179 0.9701 0.1065
vn -0.2323 0.9726 0.0107
vn -0.9478 0.3188 0.0061
vn -0.8668 0.3383 0.3664
vn -0.2179 0.9701 0.1065
vn -0.0285 0.9984 0.0482
vn -0.0337 0.9994 0.0125
vn -0.2323 0.9726 0.0107
vn -0.0285 0.9984 0.0482
vn -0 0.9985 0.0552
vn -0 0.9999 0.0139
vn -0.0337 0.9994 0.0125
vn -0 0.9994 -0.0349
vn -0.0298 0.9991 -0.0288
vn -0.0337 0.9994 0.0125
vn -0 0.9999 0.0139
vn 0.0286 0.9984 0.048
vn 0.0338 0.9994 0.0124
vn -0 0.9999 0.0139
vn -0 0.9985 0.0552
vn -0 0.9994 -0.0349
vn -0 0.9999 0.0139
vn 0.0338 0.9994 0.0124
vn 0.0298 0.9991 -0.029
vn 0.0789 0.9747 0.2092
vn 0.0286 0.9984 0.048
vn -0 0.9985 0.0552
vn -0.0003 0.9782 0.2075
vn -0.0758 0.9749 0.2096
vn -0.0003 0.9782 0.2075
vn -0 0.9985 0.0552
vn -0.0285 0.9984 0.0482
vn -0.0003 0.9782 0.2075
vn -0.0758 0.9749 0.2096
vn -0.3455 0.3838 0.8564
vn 0.0088 0.3918 0.92
vn -0.0003 0.9782 0.2075
vn 0.0088 0.3918 0.92
vn 0.3619 0.3829 0.8499
vn 0.0789 0.9747 0.2092
vn 0.0088 0.3918 0.92
vn -0.3455 0.3838 0.8564
vn -0.3821 0.0398 0.9233
vn 0.0048 0.0444 0.999
vn 0.0088 0.3918 0.92
vn 0.0048 0.0444 0.999
vn 0.3902 0.0405 0.9198
vn 0.3619 0.3829 0.8499
vt 0 1
vt 1 1
vt 1 0.588212
vt 0 0.588212
vt 0.455482 1
vt 0.727741 1
vt 0.54481 0.697154
vt 0.227741 0.766428
vt 0 1
vt 1 1
vt 1 0.588212
vt 0 0.588212
vt 0 0.588212
vt 1 0.588212
vt 1 0
vt 0 0
vt 0 0.588212
vt 1 0.588212
vt 1 0
vt 0 0
vt 0 0.588212
vt 1 0.588212
vt 1 0
vt 0 0
vt 0 0.588212
vt 1 0.588212
vt 1 0
vt 0 0
vt 0 0.588212
vt 1 0.588212
vt 1 0
vt 0 0
vt 0 0.588212
vt 1 0.588212
vt 1 0
vt 0 0
vt 0 0.588212
vt 1 0.588212
vt 1 0
vt 0 0
vt 0 0.588212
vt 0 0
vt 1 0
vt 1 0.588212
vt 0 0.588212
vt 0 0
vt 1 0
vt 1 0.588212
vt 0 0.588212
vt 0 0
vt 1 0
vt 1 0.588212
vt 0 0.588212
vt 0 0
vt 1 0
vt 1 0.588212
vt 0 0.588212
vt 0 0
vt 1 0
vt 1 0.588212
vt 0 0.588212
vt 0 0
vt 1 0
vt 1 0.588212
vt 0 0.588212
vt 0 0
vt 1 0
vt 1 0.588212
vt 0 1
vt 0 0.588212
vt 1 0.588212
vt 1 1
vt 0 1
vt 0 0.588212
vt 1 0.588212
vt 1 1
vt 0.455482 1
vt 0.227741 0.766428
vt 0.54481 0.697154
vt 0.727741 1
vt 0.227741 0.766428
vt 0 0.532855
vt 0.36188 0.394309
vt 0.54481 0.697154
vt 0 1
vt 0 0.588212
vt 1 0.588212
vt 1 1
vt 0.5 0.5
vt 0.5 0
vt 1 0
vt 1 0.5
vt 0 1
vt 0 0.588212
vt 1 0.588212
vt 1 1
vt 0.5 1
vt 0.5 0.5
vt 1 0.5
vt 1 1
vt 0 1
vt 0 0.588212
vt 1 0.588212
vt 1 1
vt 0 1
vt 0 0.588212
vt 1 0.588212
vt 1 1
vt 0 1
vt 0 0.588212
vt 1 0.588212
vt 1 1
vt 0 1
vt 0 0.5
vt 0.5 0.5
vt 0.5 1
vt 0 1
vt 0.5 1
vt 0.5 0.5
vt 0 0.5
vt 0 1
vt 1 1
vt 1 0.588212
vt 0 0.588212
vt 0.5 1
vt 1 1
vt 1 0.5
vt 0.5 0.5
vt 0 1
vt 1 1
vt 1 0.588212
vt 0 0.588212
vt 0 1
vt 1 1
vt 1 0.588212
vt 0 0.588212
vt 0.5 0.5
vt 1 0.5
vt 1 0
vt 0.5 0
vt 0 1
vt 1 1
vt 1 0.588212
vt 0 0.588212
vt 0 1
vt 1 1
vt 1 0.588212
vt 0 0.588212
vt 0.227741 0.766428
vt 0.54481 0.697154
vt 0.36188 0.394309
vt 0 0.532855
vt 0.54481 0.697154
vt 0.86188 0.627881
vt 0.723759 0.255762
vt 0.36188 0.394309
vt 0 0.5
vt 0.5 0.5
vt 0.5 0
vt 0 0
vt 0.54481 0.697154
vt 0.36188 0.394309
vt 0.723759 0.255762
vt 0.86188 0.627881
vt 0 0.5
vt 0 0
vt 0.5 0
vt 0.5 0.5
vt 0.727741 1
vt 0.54481 0.697154
vt 0.86188 0.627881
vt 1 1
vt 0.727741 1
vt 1 1
vt 0.86188 0.627881
vt 0.54481 0.697154
vt 0 1
vt 1 1
vt 1 0.588212
vt 0 0.588212
vt 0 1
vt 0 0.588212
vt 1 0.588212
vt 1 1
vt 0 0.588212
vt 1 0.588212
vt 1 0
vt 0 0
vt 0 0.588212
vt 0 0
vt 1 0
vt 1 0.588212
s off
f 1/1/1 2/2/2 3/3/3
f 1/1/1 3/3/3 4/4/4
f 5/5/5 6/6/6 7/7/7
f 5/5/5 7/7/7 8/8/8
f 9/9/9 10/10/10 11/11/11
f 9/9/9 11/11/11 12/12/12
f 13/13/13 14/14/14 15/15/15
f 13/13/13 15/15/15 16/16/16
f 17/17/17 18/18/18 19/19/19
f 17/17/17 19/19/19 20/20/20
f 21/21/21 22/22/22 23/23/23
f 21/21/21 23/23/23 24/24/24
f 25/25/25 26/26/26 27/27/27
f 25/25/25 27/27/27 28/28/28
f 29/29/29 30/30/30 31/31/31
f 29/29/29 31/31/31 32/32/32
f 33/33/33 34/34/34 35/35/35
f 33/33/33 35/35/35 36/36/36
f 37/37/37 38/38/38 39/39/39
f 37/37/37 39/39/39 40/40/40
f 41/41/41 42/42/42 43/43/43
f 41/41/41 43/43/43 44/44/44
f 45/45/45 46/46/46 47/47/47
f 45/45/45 47/47/47 48/48/48
f 49/49/49 50/50/50 51/51/51
f 49/49/49 51/51/51 52/52/52
f 53/53/53 54/54/54 55/55/55
f 53/53/53 55/55/55 56/56/56
f 57/57/57 58/58/58 59/59/59
f 57/57/57 59/59/59 60/60/60
f 61/61/61 62/62/62 63/63/63
f 61/61/61 63/63/63 64/64/64
f 65/65/65 66/66/66 67/67/67
f 65/65/65 67/67/67 68/68/68
f 69/69/69 70/70/70 71/71/71
f 69/69/69 71/71/71 72/72/72
f 73/73/73 74/74/74 75/75/75
f 73/73/73 75/75/75 76/76/76
f 77/77/77 78/78/78 79/79/79
f 77/77/77 79/79/79 80/80/80
f 81/81/81 82/82/82 83/83/83
f 81/81/81 83/83/83 84/84/84
f 85/85/85 86/86/86 87/87/87
f 85/85/85 87/87/87 88/88/88
f 89/89/89 90/90/90 91/91/91
f 89/89/89 91/91/91 92/92/92
f 93/93/93 94/94/94 95/95/95
f 93/93/93 95/95/95 96/96/96
f 97/97/97 98/98/98 99/99/99
f 97/97/97 99/99/99 100/100/100
f 101/101/101 102/102/102 103/103/103
f 101/101/101 103/103/103 104/104/104
f 105/105/105 106/106/106 107/107/107
f 105/105/105 107/107/107 108/108/108
f 109/109/109 110/110/110 111/111/111
f 109/109/109 111/111/111 112/112/112
f 113/113/113 114/114/114 115/115/115
f 113/113/113 115/115/115 116/116/116
f 117/117/117 118/118/118 119/119/119
f 117/117/117 119/119/119 120/120/120
f 121/121/121 122/122/122 123/123/123
f 121/121/121 123/123/123 124/124/124
f 125/125/125 126/126/126 127/127/127
f 125/125/125 127/127/127 128/128/128
f 129/129/129 130/130/130 131/131/131
f 129/129/129 131/131/131 132/132/132
f 133/133/133 134/134/134 135/135/135
f 133/133/133 135/135/135 136/136/136
f 137/137/137 138/138/138 139/139/139
f 137/137/137 139/139/139 140/140/140
f 141/141/141 142/142/142 143/143/143
f 141/141/141 143/143/143 144/144/144
f 145/145/145 146/146/146 147/147/147
f 145/145/145 147/147/147 148/148/148
f 149/149/149 150/150/150 151/151/151
f 149/149/149 151/151/151 152/152/152
f 153/153/153 154/154/154 155/155/155
f 153/153/153 155/155/155 156/156/156
f 157/157/157 158/158/158 159/159/159
f 157/157/157 159/159/159 160/160/160
f 161/161/161 162/162/162 163/163/163
f 161/161/161 163/163/163 164/164/164
f 165/165/165 166/166/166 167/167/167
f 165/165/165 167/167/167 168/168/168
f 169/169/169 170/170/170 171/171/171
f 169/169/169 171/171/171 172/172/172
f 173/173/173 174/174/174 175/175/175
f 173/173/173 175/175/175 176/176/176
f 177/177/177 178/178/178 179/179/179
f 177/177/177 179/179/179 180/180/180
f 181/181/181 182/182/182 183/183/183
f 181/181/181 183/183/183 184/184/184
f 185/185/185 186/186/186 187/187/187
f 185/185/185 187/187/187 188/188/188
f 189/189/189 190/190/190 191/191/191
f 189/189/189 191/191/191 192/192/192
