v -0.800367 0.118689 -0.167936
v -0.798131 0.15038 -0.167936
v -0.793809 0.150042 -0.204427
v -0.795657 0.118705 -0.20592
v -0.795773 0.120784 -0.131489
v -0.793658 0.151524 -0.131837
v -0.798131 0.15038 -0.167936
v -0.800367 0.118689 -0.167936
v -0.786794 0.152104 -0.122305
v -0.793658 0.151524 -0.131837
v -0.795773 0.120784 -0.131489
v -0.78906 0.122843 -0.121959
v -0.778842 0.152502 -0.119716
v -0.786794 0.152104 -0.122305
v -0.78906 0.122843 -0.121959
v -0.781632 0.124965 -0.11928
v -0.781632 0.124965 -0.11928
v -0.750912 0.132461 -0.119204
v -0.749732 0.155806 -0.119517
v -0.778842 0.152502 -0.119716
v -0.749732 0.155806 -0.119517
v -0.750912 0.132461 -0.119204
v -0.71985 0.138347 -0.118829
v -0.720622 0.159109 -0.119401
v -0.706783 0.1597 -0.11316
v -0.720622 0.159109 -0.119401
v -0.71985 0.138347 -0.118829
v -0.707668 0.140208 -0.113249
v -0.697858 0.170963 -0.12202
v -0.721151 0.169945 -0.129215
v -0.720622 0.159109 -0.119401
v -0.706783 0.1597 -0.11316
v -0.721151 0.169945 -0.129215
v -0.697858 0.170963 -0.12202
v -0.690746 0.168088 -0.167936
v -0.720807 0.169376 -0.167936
v -0.697858 0.170963 -0.12202
v -0.649061 0.168943 -0.167936
v -0.690746 0.168088 -0.167936
v -0.753913 0.168474 -0.167936
v -0.752666 0.169033 -0.130956
v -0.721151 0.169945 -0.129215
v -0.720807 0.169376 -0.167936
v -0.720622 0.159109 -0.119401
v -0.721151 0.169945 -0.129215
v -0.752666 0.169033 -0.130956
v -0.749732 0.155806 -0.119517
v -0.749732 0.155806 -0.119517
v -0.752666 0.169033 -0.130956
v -0.782906 0.163542 -0.133037
v -0.778842 0.152502 -0.119716
v -0.782906 0.163542 -0.133037
v -0.752666 0.169033 -0.130956
v -0.753913 0.168474 -0.167936
v -0.78758 0.161942 -0.167936
v -0.753913 0.168474 -0.167936
v -0.750998 0.168497 -0.205894
v -0.783133 0.16196 -0.20464
v -0.78758 0.161942 -0.167936
v -0.720807 0.169376 -0.167936
v -0.718259 0.17031 -0.206034
v -0.750998 0.168497 -0.205894
v -0.753913 0.168474 -0.167936
v -0.783133 0.16196 -0.20464
v -0.750998 0.168497 -0.205894
v -0.748998 0.154335 -0.21744
v -0.778907 0.150198 -0.21731
v -0.748998 0.154335 -0.21744
v -0.750998 0.168497 -0.205894
v -0.718259 0.17031 -0.206034
v -0.719089 0.158478 -0.217865
v -0.718259 0.17031 -0.206034
v -0.696816 0.171084 -0.216806
v -0.705049 0.159676 -0.225438
v -0.719089 0.158478 -0.217865
v -0.718259 0.17031 -0.206034
v -0.720807 0.169376 -0.167936
v -0.690746 0.168088 -0.167936
v -0.696816 0.171084 -0.216806
v -0.750367 0.130949 -0.217753
v -0.748998 0.154335 -0.21744
v -0.719089 0.158478 -0.217865
v -0.720957 0.136898 -0.21798
v -0.719089 0.158478 -0.217865
v -0.705049 0.159676 -0.225438
v -0.705312 0.139219 -0.225884
v -0.720957 0.136898 -0.21798
v -0.778907 0.150198 -0.21731
v -0.748998 0.154335 -0.21744
v -0.750367 0.130949 -0.217753
v -0.7794 0.123333 -0.217762
v -0.788882 0.149557 -0.21314
v -0.778907 0.150198 -0.21731
v -0.7794 0.123333 -0.217762
v -0.790356 0.120057 -0.21407
v -0.793809 0.150042 -0.204427
v -0.788882 0.149557 -0.21314
v -0.790356 0.120057 -0.21407
v -0.795657 0.118705 -0.20592
v -0.783133 0.16196 -0.20464
v -0.788882 0.149557 -0.21314
v -0.793809 0.150042 -0.204427
v -0.783133 0.16196 -0.20464
v -0.778907 0.150198 -0.21731
v -0.788882 0.149557 -0.21314
v -0.793809 0.150042 -0.204427
v -0.798131 0.15038 -0.167936
v -0.78758 0.161942 -0.167936
v -0.783133 0.16196 -0.20464
v -0.696816 0.171084 -0.216806
v -0.690746 0.168088 -0.167936
v -0.649061 0.168943 -0.167936
v -0.798131 0.15038 -0.167936
v -0.793658 0.151524 -0.131837
v -0.782906 0.163542 -0.133037
v -0.78758 0.161942 -0.167936
v -0.782906 0.163542 -0.133037
v -0.786794 0.152104 -0.122305
v -0.778842 0.152502 -0.119716
v -0.782906 0.163542 -0.133037
v -0.793658 0.151524 -0.131837
v -0.786794 0.152104 -0.122305
vn -0.9976 0.0688 -0.0042
vn -0.9623 0.2721 -0.0047
vn -0.9466 0.2654 -0.1832
vn -0.9776 0.068 -0.1992
vn -0.9735 0.0703 0.2176
vn -0.9412 0.2664 0.2076
vn -0.9623 0.2721 -0.0047
vn -0.9976 0.0688 -0.0042
vn -0.6301 0.1844 0.7543
vn -0.9412 0.2664 0.2076
vn -0.9735 0.0703 0.2176
vn -0.6936 0.0613 0.7178
vn -0.1035 0.291 0.9511
vn -0.6301 0.1844 0.7543
vn -0.6936 0.0613 0.7178
vn -0.1126 0.0243 0.9933
vn -0.1126 0.0243 0.9933
vn -0.009 0.0173 0.9998
vn -0.05 0.3121 0.9487
vn -0.1035 0.291 0.9511
vn -0.05 0.3121 0.9487
vn -0.009 0.0173 0.9998
vn -0.1229 0.0183 0.9923
vn -0.1569 0.3564 0.9211
vn -0.3598 0.4157 0.8353
vn -0.1569 0.3564 0.9211
vn -0.1229 0.0183 0.9923
vn -0.4145 0.0121 0.91
vn -0.0371 0.9979 0.053
vn -0.0404 0.9867 0.1572
vn -0.1569 0.3564 0.9211
vn -0.3598 0.4157 0.8353
vn -0.0404 0.9867 0.1572
vn -0.0371 0.9979 0.053
vn -0.0032 1 0.0015
vn -0.0113 0.9999 -0.0006
vn -0.0371 0.9979 0.053
vn -0.0205 0.9998 0.0028
vn -0.0032 1 0.0015
vn -0.1144 0.9934 -0.0098
vn -0.1082 0.9696 0.2194
vn -0.0404 0.9867 0.1572
vn -0.0113 0.9999 -0.0006
vn -0.1569 0.3564 0.9211
vn -0.0404 0.9867 0.1572
vn -0.1082 0.9696 0.2194
vn -0.05 0.3121 0.9487
vn -0.05 0.3121 0.9487
vn -0.1082 0.9696 0.2194
vn -0.3383 0.9244 0.1762
vn -0.1035 0.291 0.9511
vn -0.3383 0.9244 0.1762
vn -0.1082 0.9696 0.2194
vn -0.1144 0.9934 -0.0098
vn -0.4046 0.9144 -0.0154
vn -0.1144 0.9934 -0.0098
vn -0.1182 0.9619 -0.2465
vn -0.3375 0.9158 -0.2175
vn -0.4046 0.9144 -0.0154
vn -0.0113 0.9999 -0.0006
vn -0.0471 0.9882 -0.1456
vn -0.1182 0.9619 -0.2465
vn -0.1144 0.9934 -0.0098
vn -0.3375 0.9158 -0.2175
vn -0.1182 0.9619 -0.2465
vn -0.0533 0.3237 -0.9447
vn -0.1269 0.2814 -0.9512
vn -0.0533 0.3237 -0.9447
vn -0.1182 0.9619 -0.2465
vn -0.0471 0.9882 -0.1456
vn -0.2061 0.3839 -0.9
vn -0.0471 0.9882 -0.1456
vn -0.0606 0.9957 -0.0703
vn -0.4394 0.4084 -0.8001
vn -0.2061 0.3839 -0.9
vn -0.0471 0.9882 -0.1456
vn -0.0113 0.9999 -0.0006
vn -0.0032 1 0.0015
vn -0.0606 0.9957 -0.0703
vn -0.0083 0.0134 -0.9999
vn -0.0533 0.3237 -0.9447
vn -0.2061 0.3839 -0.9
vn -0.1433 0.0179 -0.9895
vn -0.2061 0.3839 -0.9
vn -0.4394 0.4084 -0.8001
vn -0.4653 0.0354 -0.8844
vn -0.1433 0.0179 -0.9895
vn -0.1269 0.2814 -0.9512
vn -0.0533 0.3237 -0.9447
vn -0.0083 0.0134 -0.9999
vn -0.1411 0.0233 -0.9897
vn -0.6261 0.1632 -0.7625
vn -0.1269 0.2814 -0.9512
vn -0.1411 0.0233 -0.9897
vn -0.6746 0.0564 -0.736
vn -0.9466 0.2654 -0.1832
vn -0.6261 0.1632 -0.7625
vn -0.6746 0.0564 -0.736
vn -0.9776 0.068 -0.1992
vn -0.3375 0.9158 -0.2175
vn -0.6261 0.1632 -0.7625
vn -0.9466 0.2654 -0.1832
vn -0.3375 0.9158 -0.2175
vn -0.1269 0.2814 -0.9512
vn -0.6261 0.1632 -0.7625
vn -0.9466 0.2654 -0.1832
vn -0.9623 0.2721 -0.0047
vn -0.4046 0.9144 -0.0154
vn -0.3375 0.9158 -0.2175
vn -0.0606 0.9957 -0.0703
vn -0.0032 1 0.0015
vn -0.0205 0.9998 0.0028
vn -0.9623 0.2721 -0.0047
vn -0.9412 0.2664 0.2076
vn -0.3383 0.9244 0.1762
vn -0.4046 0.9144 -0.0154
vn -0.3383 0.9244 0.1762
vn -0.6301 0.1844 0.7543
vn -0.1035 0.291 0.9511
vn -0.3383 0.9244 0.1762
vn -0.9412 0.2664 0.2076
vn -0.6301 0.1844 0.7543
vt 0.250628 1
vt 0.250628 0.870172
vt 0.21791 0.870172
vt 0.217076 1
vt 0.282904 1
vt 0.282129 0.870172
vt 0.250628 0.870172
vt 0.250628 1
vt 0.293746 0.870172
vt 0.282129 0.870172
vt 0.282904 1
vt 0.293746 1
vt 0.293746 0.870172
vt 0.293746 0.870172
vt 0.293746 1
vt 0.293746 1
vt 0.293746 1
vt 0.293746 1
vt 0.293746 0.870172
vt 0.293746 0.870172
vt 0.293746 0.870172
vt 0.293746 1
vt 0.293746 1
vt 0.293746 0.870172
vt 0.293746 0.870172
vt 0.293746 0.870172
vt 0.293746 1
vt 0.293746 1
vt 0.306368 0.748045
vt 0.293746 0.75
vt 0.293746 0.870172
vt 0.293746 0.870172
vt 0.293746 0.75
vt 0.306368 0.748045
vt 0.250628 0.75
vt 0.250628 0.75
vt 0.306368 0.748045
vt 0.498667 0.625628
vt 0.375 0.625628
vt 0.250628 0.75
vt 0.290872 0.762456
vt 0.293746 0.75
vt 0.250628 0.75
vt 0.293746 0.870172
vt 0.293746 0.75
vt 0.290872 0.762456
vt 0.293746 0.870172
vt 0.293746 0.870172
vt 0.290872 0.762456
vt 0.287998 0.774912
vt 0.293746 0.870172
vt 0.287998 0.774912
vt 0.290872 0.762456
vt 0.250628 0.75
vt 0.250628 0.75
vt 0.250628 0.75
vt 0.209035 0.762845
vt 0.211816 0.775691
vt 0.250628 0.75
vt 0.250628 0.75
vt 0.206254 0.75
vt 0.209035 0.762845
vt 0.250628 0.75
vt 0.211816 0.775691
vt 0.209035 0.762845
vt 0.206254 0.870172
vt 0.206254 0.870172
vt 0.206254 0.870172
vt 0.209035 0.762845
vt 0.206254 0.75
vt 0.206254 0.870172
vt 0.206254 0.75
vt 0.221871 0.742144
vt 0.206254 0.870172
vt 0.206254 0.870172
vt 0.206254 0.75
vt 0.250628 0.75
vt 0.250628 0.75
vt 0.221871 0.742144
vt 0.206254 1
vt 0.206254 0.870172
vt 0.206254 0.870172
vt 0.206254 1
vt 0.206254 0.870172
vt 0.206254 0.870172
vt 0.206254 1
vt 0.206254 1
vt 0.206254 0.870172
vt 0.206254 0.870172
vt 0.206254 1
vt 0.206254 1
vt 0.206254 0.870172
vt 0.206254 0.870172
vt 0.206254 1
vt 0.206254 1
vt 0.21791 0.870172
vt 0.206254 0.870172
vt 0.206254 1
vt 0.217076 1
vt 0.211816 0.775691
vt 0.206254 0.870172
vt 0.21791 0.870172
vt 0.211816 0.775691
vt 0.206254 0.870172
vt 0.206254 0.870172
vt 0.21791 0.870172
vt 0.250628 0.870172
vt 0.250628 0.75
vt 0.211816 0.775691
vt 0.221871 0.742144
vt 0.375 0.625628
vt 0.498667 0.625628
vt 0.250628 0.870172
vt 0.282129 0.870172
vt 0.287998 0.774912
vt 0.250628 0.75
vt 0.287998 0.774912
vt 0.293746 0.870172
vt 0.293746 0.870172
vt 0.287998 0.774912
vt 0.282129 0.870172
vt 0.293746 0.870172
s off
f 1/1/1 2/2/2 3/3/3
f 1/1/1 3/3/3 4/4/4
f 5/5/5 6/6/6 7/7/7
f 5/5/5 7/7/7 8/8/8
f 9/9/9 10/10/10 11/11/11
f 9/9/9 11/11/11 12/12/12
f 13/13/13 14/14/14 15/15/15
f 13/13/13 15/15/15 16/16/16
f 17/17/17 18/18/18 19/19/19
f 17/17/17 19/19/19 20/20/20
f 21/21/21 22/22/22 23/23/23
f 21/21/21 23/23/23 24/24/24
f 25/25/25 26/26/26 27/27/27
f 25/25/25 27/27/27 28/28/28
f 29/29/29 30/30/30 31/31/31
f 29/29/29 31/31/31 32/32/32
f 33/33/33 34/34/34 35/35/35
f 33/33/33 35/35/35 36/36/36
f 37/37/37 38/38/38 39/39/39
f 40/40/40 41/41/41 42/42/42
f 40/40/40 42/42/42 43/43/43
f 44/44/44 45/45/45 46/46/46
f 44/44/44 46/46/46 47/47/47
f 48/48/48 49/49/49 50/50/50
f 48/48/48 50/50/50 51/51/51
f 52/52/52 53/53/53 54/54/54
f 52/52/52 54/54/54 55/55/55
f 56/56/56 57/57/57 58/58/58
f 56/56/56 58/58/58 59/59/59
f 60/60/60 61/61/61 62/62/62
f 60/60/60 62/62/62 63/63/63
f 64/64/64 65/65/65 66/66/66
f 64/64/64 66/66/66 67/67/67
f 68/68/68 69/69/69 70/70/70
f 68/68/68 70/70/70 71/71/71
f 72/72/72 73/73/73 74/74/74
f 72/72/72 74/74/74 75/75/75
f 76/76/76 77/77/77 78/78/78
f 76/76/76 78/78/78 79/79/79
f 80/80/80 81/81/81 82/82/82
f 80/80/80 82/82/82 83/83/83
f 84/84/84 85/85/85 86/86/86
f 84/84/84 86/86/86 87/87/87
f 88/88/88 89/89/89 90/90/90
f 88/88/88 90/90/90 91/91/91
f 92/92/92 93/93/93 94/94/94
f 92/92/92 94/94/94 95/95/95
f 96/96/96 97/97/97 98/98/98
f 96/96/96 98/98/98 99/99/99
f 100/100/100 101/101/101 102/102/102
f 103/103/103 104/104/104 105/105/105
f 106/106/106 107/107/107 108/108/108
f 106/106/106 108/108/108 109/109/109
f 110/110/110 111/111/111 112/112/112
f 113/113/113 114/114/114 115/115/115
f 113/113/113 115/115/115 116/116/116
f 117/117/117 118/118/118 119/119/119
f 120/120/120 121/121/121 122/122/122
