v -0.577236 0.184872 -0.205374
v -0.603592 0.180138 -0.215449
v -0.606592 0.176419 -0.167936
v -0.577236 0.184872 -0.205374
v -0.606592 0.176419 -0.167936
v -0.577183 0.183846 -0.167936
v -0.603592 0.180138 -0.215449
v -0.649061 0.168943 -0.167936
v -0.606592 0.176419 -0.167936
v -0.599643 0.180629 -0.124748
v -0.606592 0.176419 -0.167936
v -0.649061 0.168943 -0.167936
v -0.578505 0.184641 -0.132695
v -0.577183 0.183846 -0.167936
v -0.606592 0.176419 -0.167936
v -0.578505 0.184641 -0.132695
v -0.606592 0.176419 -0.167936
v -0.599643 0.180629 -0.124748
v -0.5484 0.190911 -0.132396
v -0.546701 0.190668 -0.167936
v -0.577183 0.183846 -0.167936
v -0.5484 0.190911 -0.132396
v -0.577183 0.183846 -0.167936
v -0.578505 0.184641 -0.132695
v -0.546701 0.190668 -0.167936
v -0.547277 0.19113 -0.204443
v -0.577236 0.184872 -0.205374
v -0.546701 0.190668 -0.167936
v -0.577236 0.184872 -0.205374
v -0.577183 0.183846 -0.167936
v -0.547185 0.178127 -0.119523
v -0.5484 0.190911 -0.132396
v -0.578505 0.184641 -0.132695
v -0.547185 0.178127 -0.119523
v -0.578505 0.184641 -0.132695
v -0.575918 0.173796 -0.119526
v -0.58898 0.171374 -0.115139
v -0.575918 0.173796 -0.119526
v -0.578505 0.184641 -0.132695
v -0.58898 0.171374 -0.115139
v -0.578505 0.184641 -0.132695
v -0.599643 0.180629 -0.124748
v -0.58841 0.152738 -0.114665
v -0.575066 0.154257 -0.119147
v -0.575918 0.173796 -0.119526
v -0.58841 0.152738 -0.114665
v -0.575918 0.173796 -0.119526
v -0.58898 0.171374 -0.115139
v -0.575066 0.154257 -0.119147
v -0.545969 0.155527 -0.119218
v -0.547185 0.178127 -0.119523
v -0.575066 0.154257 -0.119147
v -0.547185 0.178127 -0.119523
v -0.575918 0.173796 -0.119526
v -0.547185 0.178127 -0.119523
v -0.545969 0.155527 -0.119218
v -0.516873 0.156798 -0.119275
v -0.547185 0.178127 -0.119523
v -0.516873 0.156798 -0.119275
v -0.518451 0.182455 -0.119669
v -0.518451 0.182455 -0.119669
v -0.517788 0.194651 -0.132273
v -0.5484 0.190911 -0.132396
v -0.518451 0.182455 -0.119669
v -0.5484 0.190911 -0.132396
v -0.547185 0.178127 -0.119523
v -0.516873 0.156798 -0.119275
v -0.507421 0.157462 -0.123161
v -0.510336 0.182982 -0.122449
v -0.516873 0.156798 -0.119275
v -0.510336 0.182982 -0.122449
v -0.518451 0.182455 -0.119669
v -0.518451 0.182455 -0.119669
v -0.510336 0.182982 -0.122449
v -0.517788 0.194651 -0.132273
v -0.517788 0.194651 -0.132273
v -0.514293 0.195146 -0.167936
v -0.546701 0.190668 -0.167936
v -0.517788 0.194651 -0.132273
v -0.546701 0.190668 -0.167936
v -0.5484 0.190911 -0.132396
v -0.517788 0.194651 -0.132273
v -0.504023 0.183274 -0.131138
v -0.499381 0.184419 -0.167936
v -0.517788 0.194651 -0.132273
v -0.499381 0.184419 -0.167936
v -0.514293 0.195146 -0.167936
v -0.510336 0.182982 -0.122449
v -0.504023 0.183274 -0.131138
v -0.517788 0.194651 -0.132273
v -0.499381 0.184419 -0.167936
v -0.504023 0.183274 -0.131138
v -0.502322 0.157638 -0.131114
v -0.499381 0.184419 -0.167936
v -0.502322 0.157638 -0.131114
v -0.497644 0.158151 -0.167936
v -0.507421 0.157462 -0.123161
v -0.502322 0.157638 -0.131114
v -0.504023 0.183274 -0.131138
v -0.507421 0.157462 -0.123161
v -0.504023 0.183274 -0.131138
v -0.510336 0.182982 -0.122449
v -0.502925 0.183049 -0.201609
v -0.499381 0.184419 -0.167936
v -0.497644 0.158151 -0.167936
v -0.502925 0.183049 -0.201609
v -0.497644 0.158151 -0.167936
v -0.501895 0.157689 -0.204088
v -0.501895 0.157689 -0.204088
v -0.50505 0.157651 -0.211274
v -0.505965 0.18311 -0.209941
v -0.501895 0.157689 -0.204088
v -0.505965 0.18311 -0.209941
v -0.502925 0.183049 -0.201609
v -0.50505 0.157651 -0.211274
v -0.510839 0.157055 -0.216075
v -0.513819 0.182393 -0.216336
v -0.50505 0.157651 -0.211274
v -0.513819 0.182393 -0.216336
v -0.505965 0.18311 -0.209941
v -0.542293 0.155412 -0.217739
v -0.544602 0.178111 -0.217432
v -0.513819 0.182393 -0.216336
v -0.542293 0.155412 -0.217739
v -0.513819 0.182393 -0.216336
v -0.510839 0.157055 -0.216075
v -0.575383 0.17381 -0.217385
v -0.544602 0.178111 -0.217432
v -0.542293 0.155412 -0.217739
v -0.575383 0.17381 -0.217385
v -0.542293 0.155412 -0.217739
v -0.573731 0.153473 -0.21774
v -0.573731 0.153473 -0.21774
v -0.591531 0.153468 -0.224774
v -0.592169 0.170502 -0.224541
v -0.573731 0.153473 -0.21774
v -0.592169 0.170502 -0.224541
v -0.575383 0.17381 -0.217385
v -0.575383 0.17381 -0.217385
v -0.592169 0.170502 -0.224541
v -0.603592 0.180138 -0.215449
v -0.575383 0.17381 -0.217385
v -0.603592 0.180138 -0.215449
v -0.577236 0.184872 -0.205374
v -0.577236 0.184872 -0.205374
v -0.547277 0.19113 -0.204443
v -0.544602 0.178111 -0.217432
v -0.577236 0.184872 -0.205374
v -0.544602 0.178111 -0.217432
v -0.575383 0.17381 -0.217385
v -0.544602 0.178111 -0.217432
v -0.547277 0.19113 -0.204443
v -0.516788 0.194695 -0.20333
v -0.544602 0.178111 -0.217432
v -0.516788 0.194695 -0.20333
v -0.513819 0.182393 -0.216336
v -0.514293 0.195146 -0.167936
v -0.516788 0.194695 -0.20333
v -0.547277 0.19113 -0.204443
v -0.514293 0.195146 -0.167936
v -0.547277 0.19113 -0.204443
v -0.546701 0.190668 -0.167936
v -0.502925 0.183049 -0.201609
v -0.505965 0.18311 -0.209941
v -0.516788 0.194695 -0.20333
v -0.505965 0.18311 -0.209941
v -0.513819 0.182393 -0.216336
v -0.516788 0.194695 -0.20333
v -0.514293 0.195146 -0.167936
v -0.499381 0.184419 -0.167936
v -0.502925 0.183049 -0.201609
v -0.514293 0.195146 -0.167936
v -0.502925 0.183049 -0.201609
v -0.516788 0.194695 -0.20333
vn -0.1808 0.9715 -0.1532
vn -0.1574 0.9849 -0.0715
vn -0.1985 0.9801 0.0031
vn -0.1808 0.9715 -0.1532
vn -0.1985 0.9801 0.0031
vn -0.2177 0.976 0.0021
vn -0.1574 0.9849 -0.0715
vn -0.1734 0.9848 0.0061
vn -0.1985 0.9801 0.0031
vn -0.1709 0.9836 0.0583
vn -0.1985 0.9801 0.0031
vn -0.1734 0.9848 0.0061
vn -0.1914 0.9707 0.1453
vn -0.2177 0.976 0.0021
vn -0.1985 0.9801 0.0031
vn -0.1914 0.9707 0.1453
vn -0.1985 0.9801 0.0031
vn -0.1709 0.9836 0.0583
vn -0.1632 0.9608 0.2241
vn -0.1692 0.9856 -0.0005
vn -0.2177 0.976 0.0021
vn -0.1632 0.9608 0.2241
vn -0.2177 0.976 0.0021
vn -0.1914 0.9707 0.1454
vn -0.1692 0.9856 -0.0005
vn -0.1547 0.9601 -0.233
vn -0.1808 0.9715 -0.1532
vn -0.1692 0.9856 -0.0005
vn -0.1808 0.9715 -0.1532
vn -0.2177 0.976 0.0021
vn -0.0552 0.3556 0.933
vn -0.1633 0.9608 0.2241
vn -0.1914 0.9707 0.1454
vn -0.0552 0.3556 0.933
vn -0.1914 0.9707 0.1454
vn 0.0195 0.4199 0.9074
vn 0.2037 0.4874 0.8491
vn 0.0195 0.4199 0.9074
vn -0.1914 0.9707 0.1454
vn 0.2037 0.4874 0.8491
vn -0.1914 0.9707 0.1454
vn -0.171 0.9836 0.0583
vn 0.314 0.0328 0.9489
vn 0.0993 0.0217 0.9948
vn 0.0195 0.4199 0.9074
vn 0.314 0.0328 0.9489
vn 0.0195 0.4199 0.9074
vn 0.2037 0.4874 0.8491
vn 0.0992 0.0212 0.9948
vn 0.0009 0.0154 0.9999
vn -0.0552 0.3556 0.933
vn 0.0992 0.0212 0.9948
vn -0.0552 0.3556 0.933
vn 0.0195 0.4199 0.9074
vn -0.0552 0.3556 0.933
vn 0.0009 0.0154 0.9999
vn 0.0934 0.0175 0.9955
vn -0.0552 0.3556 0.933
vn 0.0934 0.0175 0.9955
vn 0.0298 0.3312 0.9431
vn 0.0298 0.3312 0.9431
vn 0.1025 0.9751 0.1968
vn -0.1632 0.9608 0.2241
vn 0.0298 0.3312 0.9431
vn -0.1632 0.9608 0.2241
vn -0.0552 0.3556 0.933
vn 0.0935 0.0175 0.9955
vn 0.6332 0.0496 0.7724
vn 0.5967 0.2085 0.7749
vn 0.0935 0.0175 0.9955
vn 0.5967 0.2085 0.7749
vn 0.0298 0.3312 0.9431
vn 0.0298 0.3312 0.9431
vn 0.5967 0.2085 0.7749
vn 0.1025 0.9751 0.1968
vn 0.1025 0.9751 0.1968
vn 0.1679 0.9858 0.0037
vn -0.1692 0.9856 -0.0005
vn 0.1025 0.9751 0.1968
vn -0.1692 0.9856 -0.0005
vn -0.1632 0.9608 0.224
vn 0.1025 0.9751 0.1967
vn 0.9086 0.3667 0.2
vn 0.9216 0.3881 0.0106
vn 0.1025 0.9751 0.1967
vn 0.9216 0.3881 0.0106
vn 0.1679 0.9858 0.0037
vn 0.5967 0.2085 0.7749
vn 0.9086 0.3667 0.2
vn 0.1025 0.9751 0.1968
vn 0.9216 0.388 0.0106
vn 0.9086 0.3666 0.2
vn 0.9724 0.0671 0.2234
vn 0.9216 0.388 0.0106
vn 0.9724 0.0671 0.2234
vn 0.998 0.0627 0.0111
vn 0.6332 0.0496 0.7724
vn 0.9724 0.0671 0.2234
vn 0.9086 0.3667 0.2
vn 0.6332 0.0496 0.7724
vn 0.9086 0.3667 0.2
vn 0.5967 0.2085 0.7749
vn 0.9184 0.3695 -0.1414
vn 0.9216 0.3881 0.0106
vn 0.998 0.0627 0.0111
vn 0.9184 0.3695 -0.1414
vn 0.998 0.0627 0.0111
vn 0.9841 0.0599 -0.167
vn 0.9841 0.0599 -0.1671
vn 0.7934 0.0661 -0.6051
vn 0.7774 0.2476 -0.5782
vn 0.9841 0.0599 -0.1671
vn 0.7774 0.2476 -0.5782
vn 0.9184 0.3695 -0.1414
vn 0.7934 0.0661 -0.6051
vn 0.191 0.0206 -0.9814
vn 0.1139 0.3188 -0.9409
vn 0.7934 0.0661 -0.6051
vn 0.1139 0.3188 -0.9409
vn 0.7774 0.2476 -0.5782
vn 0.0227 0.0101 -0.9997
vn -0.0273 0.3375 -0.9409
vn 0.1139 0.3188 -0.941
vn 0.0227 0.0101 -0.9997
vn 0.1139 0.3188 -0.941
vn 0.191 0.0206 -0.9814
vn 0.0626 0.4054 -0.912
vn -0.0273 0.3375 -0.9409
vn 0.0227 0.0101 -0.9997
vn 0.0626 0.4054 -0.912
vn 0.0227 0.0101 -0.9997
vn 0.1243 0.023 -0.992
vn 0.1244 0.023 -0.992
vn 0.3762 0.0376 -0.9258
vn 0.2604 0.459 -0.8494
vn 0.1244 0.023 -0.992
vn 0.2604 0.459 -0.8494
vn 0.0626 0.4054 -0.912
vn 0.0626 0.4055 -0.9119
vn 0.2604 0.4591 -0.8494
vn -0.1574 0.9849 -0.0715
vn 0.0626 0.4055 -0.9119
vn -0.1574 0.9849 -0.0715
vn -0.1808 0.9715 -0.1532
vn -0.1808 0.9715 -0.1532
vn -0.1547 0.9601 -0.2331
vn -0.0273 0.3376 -0.9409
vn -0.1808 0.9715 -0.1532
vn -0.0273 0.3376 -0.9409
vn 0.0626 0.4055 -0.912
vn -0.0273 0.3376 -0.9409
vn -0.1547 0.9601 -0.2331
vn 0.0866 0.9722 -0.2178
vn -0.0273 0.3376 -0.9409
vn 0.0866 0.9722 -0.2178
vn 0.1139 0.3188 -0.941
vn 0.1679 0.9858 0.0037
vn 0.0865 0.9722 -0.2178
vn -0.1547 0.9601 -0.233
vn 0.1679 0.9858 0.0037
vn -0.1547 0.9601 -0.233
vn -0.1692 0.9856 -0.0005
vn 0.9184 0.3695 -0.1414
vn 0.7774 0.2476 -0.5782
vn 0.0866 0.9721 -0.2178
vn 0.7774 0.2476 -0.5782
vn 0.1138 0.3188 -0.941
vn 0.0866 0.9721 -0.2178
vn 0.1679 0.9858 0.0037
vn 0.9216 0.3881 0.0106
vn 0.9184 0.3695 -0.1414
vn 0.1679 0.9858 0.0037
vn 0.9184 0.3695 -0.1414
vn 0.0866 0.9721 -0.2178
vt 0.793746 0.25
vt 0.779378 0.255468
vt 0.749372 0.25
vt 0.793746 0.25
vt 0.749372 0.25
vt 0.749372 0.25
vt 0.779378 0.255468
vt 0.498667 0.374372
vt 0.625 0.374372
vt 0.667756 0.306317
vt 0.625 0.374372
vt 0.498667 0.374372
vt 0.706254 0.25
vt 0.749372 0.25
vt 0.749372 0.25
vt 0.706254 0.25
vt 0.749372 0.25
vt 0.693939 0.250119
vt 0.709432 0.238266
vt 0.749372 0.25
vt 0.749372 0.25
vt 0.709432 0.238266
vt 0.749372 0.25
vt 0.706254 0.25
vt 0.749372 0.25
vt 0.791159 0.23898
vt 0.793746 0.25
vt 0.749372 0.25
vt 0.793746 0.25
vt 0.749372 0.25
vt 0.706254 0.129828
vt 0.709432 0.238266
vt 0.706254 0.25
vt 0.706254 0.129828
vt 0.706254 0.25
vt 0.706254 0.129828
vt 0.706254 0.129828
vt 0.706254 0.129828
vt 0.706254 0.25
vt 0.706254 0.129828
vt 0.706254 0.25
vt 0.693939 0.250119
vt 0.706254 0
vt 0.706254 0
vt 0.706254 0.129828
vt 0.706254 0
vt 0.706254 0.129828
vt 0.706254 0.129828
vt 0.706254 0
vt 0.706254 0
vt 0.706254 0.129828
vt 0.706254 0
vt 0.706254 0.129828
vt 0.706254 0.129828
vt 0.706254 0.129828
vt 0.706254 0
vt 0.706254 0
vt 0.706254 0.129828
vt 0.706254 0
vt 0.706254 0.129828
vt 0.706254 0.129828
vt 0.71261 0.226532
vt 0.709432 0.238266
vt 0.706254 0.129828
vt 0.709432 0.238266
vt 0.706254 0.129828
vt 0.706254 0
vt 0.706254 0
vt 0.706254 0.129828
vt 0.706254 0
vt 0.706254 0.129828
vt 0.706254 0.129828
vt 0.706254 0.129828
vt 0.706254 0.129828
vt 0.71261 0.226532
vt 0.71261 0.226532
vt 0.749372 0.25
vt 0.749372 0.25
vt 0.71261 0.226532
vt 0.749372 0.25
vt 0.709432 0.238266
vt 0.71261 0.226532
vt 0.717493 0.129828
vt 0.749372 0.129828
vt 0.71261 0.226532
vt 0.749372 0.129828
vt 0.749372 0.25
vt 0.706254 0.129828
vt 0.717493 0.129828
vt 0.71261 0.226532
vt 0.749372 0.129828
vt 0.717493 0.129828
vt 0.716769 0
vt 0.749372 0.129828
vt 0.716769 0
vt 0.749372 0
vt 0.706254 0
vt 0.716769 0
vt 0.717493 0.129828
vt 0.706254 0
vt 0.717493 0.129828
vt 0.706254 0.129828
vt 0.782643 0.129828
vt 0.749372 0.129828
vt 0.749372 0
vt 0.782643 0.129828
vt 0.749372 0
vt 0.783279 0
vt 0.783279 0
vt 0.793746 0
vt 0.793746 0.129828
vt 0.783279 0
vt 0.793746 0.129828
vt 0.782643 0.129828
vt 0.793746 0
vt 0.793746 0
vt 0.793746 0.129828
vt 0.793746 0
vt 0.793746 0.129828
vt 0.793746 0.129828
vt 0.793746 0
vt 0.793746 0.129828
vt 0.793746 0.129828
vt 0.793746 0
vt 0.793746 0.129828
vt 0.793746 0
vt 0.793746 0.129828
vt 0.793746 0.129828
vt 0.793746 0
vt 0.793746 0.129828
vt 0.793746 0
vt 0.793746 0
vt 0.793746 0
vt 0.793746 0
vt 0.793746 0.129828
vt 0.793746 0
vt 0.793746 0.129828
vt 0.793746 0.129828
vt 0.793746 0.129828
vt 0.793746 0.129828
vt 0.779378 0.255468
vt 0.793746 0.129828
vt 0.779378 0.255468
vt 0.793746 0.25
vt 0.793746 0.25
vt 0.791159 0.23898
vt 0.793746 0.129828
vt 0.793746 0.25
vt 0.793746 0.129828
vt 0.793746 0.129828
vt 0.793746 0.129828
vt 0.791159 0.23898
vt 0.788572 0.227959
vt 0.793746 0.129828
vt 0.788572 0.227959
vt 0.793746 0.129828
vt 0.749372 0.25
vt 0.788572 0.227959
vt 0.791159 0.23898
vt 0.749372 0.25
vt 0.791159 0.23898
vt 0.749372 0.25
vt 0.782643 0.129828
vt 0.793746 0.129828
vt 0.788572 0.227959
vt 0.793746 0.129828
vt 0.793746 0.129828
vt 0.788572 0.227959
vt 0.749372 0.25
vt 0.749372 0.129828
vt 0.782643 0.129828
vt 0.749372 0.25
vt 0.782643 0.129828
vt 0.788572 0.227959
s off
f 1/1/1 2/2/2 3/3/3
f 4/4/4 5/5/5 6/6/6
f 7/7/7 8/8/8 9/9/9
f 10/10/10 11/11/11 12/12/12
f 13/13/13 14/14/14 15/15/15
f 16/16/16 17/17/17 18/18/18
f 19/19/19 20/20/20 21/21/21
f 22/22/22 23/23/23 24/24/24
f 25/25/25 26/26/26 27/27/27
f 28/28/28 29/29/29 30/30/30
f 31/31/31 32/32/32 33/33/33
f 34/34/34 35/35/35 36/36/36
f 37/37/37 38/38/38 39/39/39
f 40/40/40 41/41/41 42/42/42
f 43/43/43 44/44/44 45/45/45
f 46/46/46 47/47/47 48/48/48
f 49/49/49 50/50/50 51/51/51
f 52/52/52 53/53/53 54/54/54
f 55/55/55 56/56/56 57/57/57
f 58/58/58 59/59/59 60/60/60
f 61/61/61 62/62/62 63/63/63
f 64/64/64 65/65/65 66/66/66
f 67/67/67 68/68/68 69/69/69
f 70/70/70 71/71/71 72/72/72
f 73/73/73 74/74/74 75/75/75
f 76/76/76 77/77/77 78/78/78
f 79/79/79 80/80/80 81/81/81
f 82/82/82 83/83/83 84/84/84
f 85/85/85 86/86/86 87/87/87
f 88/88/88 89/89/89 90/90/90
f 91/91/91 92/92/92 93/93/93
f 94/94/94 95/95/95 96/96/96
f 97/97/97 98/98/98 99/99/99
f 100/100/100 101/101/101 102/102/102
f 103/103/103 104/104/104 105/105/105
f 106/106/106 107/107/107 108/108/108
f 109/109/109 110/110/110 111/111/111
f 112/112/112 113/113/113 114/114/114
f 115/115/115 116/116/116 117/117/117
f 118/118/118 119/119/119 120/120/120
f 121/121/121 122/122/122 123/123/123
f 124/124/124 125/125/125 126/126/126
f 127/127/127 128/128/128 129/129/129
f 130/130/130 131/131/131 132/132/132
f 133/133/133 134/134/134 135/135/135
f 136/136/136 137/137/137 138/138/138
f 139/139/139 140/140/140 141/141/141
f 142/142/142 143/143/143 144/144/144
f 145/145/145 146/146/146 147/147/147
f 148/148/148 149/149/149 150/150/150
f 151/151/151 152/152/152 153/153/153
f 154/154/154 155/155/155 156/156/156
f 157/157/157 158/158/158 159/159/159
f 160/160/160 161/161/161 162/162/162
f 163/163/163 164/164/164 165/165/165
f 166/166/166 167/167/167 168/168/168
f 169/169/169 170/170/170 171/171/171
f 172/172/172 173/173/173 174/174/174
