v -0.612608 0.172877 -0.023238
v -0.649063 0.169891 -0.018861
v -0.648564 0.143424 -0.017139
v -0.612608 0.172877 -0.023238
v -0.648564 0.143424 -0.017139
v -0.612277 0.146915 -0.021646
v -0.649063 0.169891 -0.018861
v -0.687407 0.16649 -0.024067
v -0.688136 0.139122 -0.022433
v -0.649063 0.169891 -0.018861
v -0.688136 0.139122 -0.022433
v -0.648564 0.143424 -0.017139
v -0.612277 0.146915 -0.021646
v -0.603743 0.148511 -0.026801
v -0.604449 0.173576 -0.028106
v -0.612277 0.146915 -0.021646
v -0.604449 0.173576 -0.028106
v -0.612608 0.172877 -0.023238
v -0.603743 0.148511 -0.026801
v -0.599858 0.149128 -0.03546
v -0.600252 0.173503 -0.037035
v -0.603743 0.148511 -0.026801
v -0.600252 0.173503 -0.037035
v -0.604449 0.173576 -0.028106
v -0.599717 0.150521 -0.069819
v -0.600019 0.171427 -0.07158
v -0.600252 0.173503 -0.037035
v -0.599717 0.150521 -0.069819
v -0.600252 0.173503 -0.037035
v -0.599858 0.149128 -0.03546
v -0.600019 0.171427 -0.07158
v -0.614151 0.183586 -0.074002
v -0.614598 0.185368 -0.035594
v -0.600019 0.171427 -0.07158
v -0.614598 0.185368 -0.035594
v -0.600252 0.173503 -0.037035
v -0.604449 0.173576 -0.028106
v -0.600252 0.173503 -0.037035
v -0.614598 0.185368 -0.035594
v -0.649294 0.182135 -0.03177
v -0.649063 0.169891 -0.018861
v -0.612608 0.172877 -0.023238
v -0.649294 0.182135 -0.03177
v -0.612608 0.172877 -0.023238
v -0.614598 0.185368 -0.035594
v -0.649294 0.182135 -0.03177
v -0.614598 0.185368 -0.035594
v -0.614151 0.183586 -0.074002
v -0.649294 0.182135 -0.03177
v -0.614151 0.183586 -0.074002
v -0.649258 0.179978 -0.069833
v -0.612608 0.172877 -0.023238
v -0.604449 0.173576 -0.028106
v -0.614598 0.185368 -0.035594
v -0.649258 0.179978 -0.069833
v -0.614151 0.183586 -0.074002
v -0.612624 0.180316 -0.10528
v -0.649258 0.179978 -0.069833
v -0.612624 0.180316 -0.10528
v -0.649179 0.175613 -0.103444
v -0.612624 0.180316 -0.10528
v -0.614151 0.183586 -0.074002
v -0.600019 0.171427 -0.07158
v -0.612624 0.180316 -0.10528
v -0.600019 0.171427 -0.07158
v -0.597793 0.169815 -0.104303
v -0.649113 0.171927 -0.129029
v -0.649179 0.175613 -0.103444
v -0.612624 0.180316 -0.10528
v -0.649113 0.171927 -0.129029
v -0.612624 0.180316 -0.10528
v -0.599643 0.180629 -0.124748
v -0.597793 0.169815 -0.104303
v -0.58898 0.171374 -0.115139
v -0.599643 0.180629 -0.124748
v -0.597793 0.169815 -0.104303
v -0.599643 0.180629 -0.124748
v -0.612624 0.180316 -0.10528
v -0.597793 0.169815 -0.104303
v -0.600019 0.171427 -0.07158
v -0.599717 0.150521 -0.069819
v -0.597793 0.169815 -0.104303
v -0.599717 0.150521 -0.069819
v -0.597299 0.151953 -0.104176
v -0.597299 0.151953 -0.104176
v -0.58841 0.152738 -0.114665
v -0.58898 0.171374 -0.115139
v -0.597299 0.151953 -0.104176
v -0.58898 0.171374 -0.115139
v -0.597793 0.169815 -0.104303
v -0.599643 0.180629 -0.124748
v -0.649061 0.168943 -0.167936
v -0.649113 0.171927 -0.129029
v -0.697858 0.170963 -0.12202
v -0.649113 0.171927 -0.129029
v -0.649061 0.168943 -0.167936
v -0.688085 0.173079 -0.103148
v -0.697858 0.170963 -0.12202
v -0.706783 0.1597 -0.11316
v -0.688085 0.173079 -0.103148
v -0.706783 0.1597 -0.11316
v -0.699416 0.160204 -0.102017
v -0.688085 0.173079 -0.103148
v -0.649179 0.175613 -0.103444
v -0.649113 0.171927 -0.129029
v -0.688085 0.173079 -0.103148
v -0.649113 0.171927 -0.129029
v -0.697858 0.170963 -0.12202
v -0.699416 0.160204 -0.102017
v -0.706783 0.1597 -0.11316
v -0.707668 0.140208 -0.113249
v -0.699416 0.160204 -0.102017
v -0.707668 0.140208 -0.113249
v -0.699919 0.141125 -0.102369
v -0.699919 0.141125 -0.102369
v -0.698246 0.14025 -0.069103
v -0.697957 0.162104 -0.069887
v -0.699919 0.141125 -0.102369
v -0.697957 0.162104 -0.069887
v -0.699416 0.160204 -0.102017
v -0.697957 0.162104 -0.069887
v -0.698246 0.14025 -0.069103
v -0.698089 0.139077 -0.03585
v -0.697957 0.162104 -0.069887
v -0.698089 0.139077 -0.03585
v -0.697786 0.164027 -0.037756
v -0.698089 0.139077 -0.03585
v -0.694764 0.138541 -0.027388
v -0.694028 0.165131 -0.028579
v -0.698089 0.139077 -0.03585
v -0.694028 0.165131 -0.028579
v -0.697786 0.164027 -0.037756
v -0.694764 0.138541 -0.027388
v -0.688136 0.139122 -0.022433
v -0.687407 0.16649 -0.024067
v -0.694764 0.138541 -0.027388
v -0.687407 0.16649 -0.024067
v -0.694028 0.165131 -0.028579
v -0.697786 0.164027 -0.037756
v -0.694028 0.165131 -0.028579
v -0.686764 0.1781 -0.036409
v -0.694028 0.165131 -0.028579
v -0.687407 0.16649 -0.024067
v -0.686764 0.1781 -0.036409
v -0.697786 0.164027 -0.037756
v -0.686764 0.1781 -0.036409
v -0.687533 0.176863 -0.069943
v -0.697786 0.164027 -0.037756
v -0.687533 0.176863 -0.069943
v -0.697957 0.162104 -0.069887
v -0.686764 0.1781 -0.036409
v -0.649294 0.182135 -0.03177
v -0.649258 0.179978 -0.069833
v -0.686764 0.1781 -0.036409
v -0.649258 0.179978 -0.069833
v -0.687533 0.176863 -0.069943
v -0.686764 0.1781 -0.036409
v -0.687407 0.16649 -0.024067
v -0.649063 0.169891 -0.018861
v -0.686764 0.1781 -0.036409
v -0.649063 0.169891 -0.018861
v -0.649294 0.182135 -0.03177
v -0.687533 0.176863 -0.069943
v -0.649258 0.179978 -0.069833
v -0.649179 0.175613 -0.103444
v -0.687533 0.176863 -0.069943
v -0.649179 0.175613 -0.103444
v -0.688085 0.173079 -0.103148
v -0.697957 0.162104 -0.069887
v -0.687533 0.176863 -0.069943
v -0.688085 0.173079 -0.103148
v -0.697957 0.162104 -0.069887
v -0.688085 0.173079 -0.103148
v -0.699416 0.160204 -0.102017
vn 0.1555 0.3321 0.9303
vn -0.039 0.3337 0.9419
vn -0.025 0.0637 0.9977
vn 0.1555 0.3321 0.9303
vn -0.025 0.0637 0.9977
vn 0.1876 0.0643 0.9801
vn -0.039 0.3337 0.9419
vn -0.2145 0.3133 0.9251
vn -0.2281 0.0626 0.9716
vn -0.039 0.3337 0.9419
vn -0.2281 0.0626 0.9716
vn -0.025 0.0637 0.9977
vn 0.1876 0.0643 0.9801
vn 0.7197 0.055 0.6921
vn 0.7235 0.2243 0.6529
vn 0.1876 0.0643 0.9801
vn 0.7235 0.2243 0.6529
vn 0.1555 0.3321 0.9303
vn 0.7197 0.055 0.6921
vn 0.9931 0.0237 0.1151
vn 0.9216 0.3839 0.0577
vn 0.7197 0.055 0.6921
vn 0.9216 0.3839 0.0577
vn 0.7235 0.2243 0.6529
vn 0.9993 0.0191 0.0319
vn 0.9096 0.4155 0.0047
vn 0.9216 0.3838 0.0577
vn 0.9993 0.0191 0.0319
vn 0.9216 0.3838 0.0577
vn 0.9931 0.0237 0.1151
vn 0.9096 0.4155 0.0047
vn 0.1419 0.9872 -0.0724
vn 0.1213 0.9813 0.1494
vn 0.9096 0.4155 0.0047
vn 0.1213 0.9813 0.1494
vn 0.9216 0.3839 0.0577
vn 0.7235 0.2243 0.6529
vn 0.9216 0.3839 0.0577
vn 0.1214 0.9813 0.1493
vn -0.0938 0.9691 0.2282
vn -0.039 0.3337 0.9419
vn 0.1555 0.3321 0.9303
vn -0.0938 0.9691 0.2282
vn 0.1555 0.3321 0.9303
vn 0.1215 0.9813 0.1494
vn -0.0939 0.9691 0.2282
vn 0.1214 0.9813 0.1494
vn 0.1419 0.9872 -0.0724
vn -0.0939 0.9691 0.2282
vn 0.1419 0.9872 -0.0724
vn -0.097 0.9919 -0.0816
vn 0.1555 0.3321 0.9303
vn 0.7235 0.2242 0.6529
vn 0.1214 0.9813 0.1494
vn -0.097 0.9919 -0.0816
vn 0.1419 0.9872 -0.0724
vn 0.0436 0.9966 -0.0706
vn -0.097 0.9919 -0.0816
vn 0.0436 0.9966 -0.0706
vn -0.0982 0.988 -0.1189
vn 0.0436 0.9966 -0.0706
vn 0.1419 0.9872 -0.0724
vn 0.9096 0.4155 0.0047
vn 0.0436 0.9966 -0.0706
vn 0.9096 0.4155 0.0047
vn 0.8508 0.4801 0.2138
vn -0.0993 0.9904 -0.0957
vn -0.0982 0.988 -0.1189
vn 0.0436 0.9966 -0.0706
vn -0.0993 0.9904 -0.0957
vn 0.0436 0.9966 -0.0706
vn -0.0262 0.9997 0.0007
vn 0.8508 0.4801 0.2138
vn 0.6502 0.5342 0.5402
vn -0.0263 0.9997 0.0007
vn 0.8508 0.4801 0.2138
vn -0.0263 0.9997 0.0007
vn 0.0436 0.9965 -0.0706
vn 0.8508 0.4801 0.2138
vn 0.9096 0.4155 0.0047
vn 0.9993 0.0191 0.0319
vn 0.8508 0.4801 0.2138
vn 0.9993 0.0191 0.0319
vn 0.9726 0.0273 0.231
vn 0.9725 0.0273 0.2311
vn 0.7672 0.0329 0.6405
vn 0.6502 0.5342 0.5402
vn 0.9725 0.0273 0.2311
vn 0.6502 0.5342 0.5402
vn 0.8508 0.4801 0.2138
vn -0.0262 0.9997 0.0007
vn -0.1012 0.9919 -0.0762
vn -0.0993 0.9904 -0.0957
vn -0.1632 0.9861 -0.0301
vn -0.0993 0.9904 -0.0957
vn -0.1012 0.9919 -0.0762
vn -0.2412 0.9672 -0.08
vn -0.1632 0.9861 -0.0301
vn -0.7893 0.4028 0.4634
vn -0.2412 0.9672 -0.08
vn -0.7893 0.4028 0.4634
vn -0.9219 0.3554 0.1544
vn -0.2411 0.9672 -0.08
vn -0.0982 0.988 -0.1189
vn -0.0993 0.9904 -0.0957
vn -0.2411 0.9672 -0.08
vn -0.0993 0.9904 -0.0957
vn -0.1632 0.9861 -0.0301
vn -0.9219 0.3554 0.1544
vn -0.7893 0.4028 0.4634
vn -0.825 0.0232 0.5647
vn -0.9219 0.3554 0.1544
vn -0.825 0.0232 0.5647
vn -0.9789 0.0215 0.2033
vn -0.9789 0.0215 0.2032
vn -0.9996 0.016 0.0239
vn -0.9549 0.2969 0.003
vn -0.9789 0.0215 0.2032
vn -0.9549 0.2969 0.003
vn -0.9219 0.3554 0.1544
vn -0.9549 0.2968 0.003
vn -0.9996 0.016 0.0239
vn -0.9942 0.0208 0.1059
vn -0.9549 0.2968 0.003
vn -0.9942 0.0208 0.1059
vn -0.9614 0.2678 0.0625
vn -0.9942 0.0208 0.106
vn -0.7958 0.0512 0.6034
vn -0.7866 0.1813 0.5902
vn -0.9942 0.0208 0.106
vn -0.7866 0.1813 0.5902
vn -0.9614 0.2678 0.0625
vn -0.7958 0.0512 0.6034
vn -0.2281 0.0626 0.9716
vn -0.2145 0.3134 0.9251
vn -0.7958 0.0512 0.6034
vn -0.2145 0.3134 0.9251
vn -0.7866 0.1813 0.5902
vn -0.9614 0.2679 0.0625
vn -0.7866 0.1813 0.5902
vn -0.2896 0.9434 0.1617
vn -0.7866 0.1813 0.5902
vn -0.2145 0.3134 0.9251
vn -0.2895 0.9434 0.1617
vn -0.9614 0.2679 0.0625
vn -0.2896 0.9434 0.1617
vn -0.3193 0.9451 -0.0701
vn -0.9614 0.2679 0.0625
vn -0.3193 0.9451 -0.0701
vn -0.9549 0.2969 0.003
vn -0.2896 0.9434 0.1617
vn -0.0939 0.9691 0.2282
vn -0.097 0.9919 -0.0816
vn -0.2896 0.9434 0.1617
vn -0.097 0.9919 -0.0816
vn -0.3192 0.9451 -0.0701
vn -0.2896 0.9434 0.1617
vn -0.2145 0.3134 0.9251
vn -0.039 0.3337 0.9419
vn -0.2896 0.9434 0.1617
vn -0.039 0.3337 0.9419
vn -0.0939 0.9691 0.2282
vn -0.3193 0.9451 -0.0701
vn -0.097 0.9919 -0.0816
vn -0.0982 0.988 -0.1189
vn -0.3193 0.9451 -0.0701
vn -0.0982 0.988 -0.1189
vn -0.2411 0.9672 -0.08
vn -0.9549 0.2969 0.003
vn -0.3193 0.9451 -0.0701
vn -0.2412 0.9672 -0.08
vn -0.9549 0.2969 0.003
vn -0.2412 0.9672 -0.08
vn -0.9219 0.3554 0.1544
vt 0.591885 0.129828
vt 0.498667 0.129828
vt 0.498667 0
vt 0.591885 0.129828
vt 0.498667 0
vt 0.594725 0
vt 0.498667 0.129828
vt 0.408794 0.129828
vt 0.40526 0
vt 0.498667 0.129828
vt 0.40526 0
vt 0.498667 0
vt 0.594725 0
vt 0.625 0
vt 0.625 0.129828
vt 0.594725 0
vt 0.625 0.129828
vt 0.591885 0.129828
vt 0.625 0
vt 0.635649 0
vt 0.635813 0.129828
vt 0.625 0
vt 0.635813 0.129828
vt 0.625 0.129828
vt 0.664691 0
vt 0.664625 0.129828
vt 0.635813 0.129828
vt 0.664691 0
vt 0.635813 0.129828
vt 0.635649 0
vt 0.664625 0.129828
vt 0.654602 0.243092
vt 0.61604 0.236184
vt 0.664625 0.129828
vt 0.61604 0.236184
vt 0.635813 0.129828
vt 0.625 0.129828
vt 0.635813 0.129828
vt 0.61604 0.236184
vt 0.498667 0.25
vt 0.498667 0.129828
vt 0.591885 0.129828
vt 0.498667 0.25
vt 0.591885 0.129828
vt 0.61604 0.236184
vt 0.498667 0.25
vt 0.61604 0.236184
vt 0.62052 0.277174
vt 0.498667 0.25
vt 0.62052 0.277174
vt 0.498667 0.283254
vt 0.591885 0.129828
vt 0.625 0.129828
vt 0.61604 0.236184
vt 0.498667 0.283254
vt 0.62052 0.277174
vt 0.625 0.318164
vt 0.498667 0.283254
vt 0.625 0.318164
vt 0.498667 0.316509
vt 0.693164 0.25
vt 0.654602 0.243092
vt 0.664625 0.129828
vt 0.693164 0.25
vt 0.664625 0.129828
vt 0.693438 0.129828
vt 0.498666 0.331254
vt 0.498667 0.316509
vt 0.625 0.318164
vt 0.498666 0.331254
vt 0.625 0.318164
vt 0.645025 0.326017
vt 0.693438 0.129828
vt 0.706254 0.129828
vt 0.693939 0.250119
vt 0.693438 0.129828
vt 0.693939 0.250119
vt 0.693164 0.25
vt 0.693438 0.129828
vt 0.664625 0.129828
vt 0.664691 0
vt 0.693438 0.129828
vt 0.664691 0
vt 0.693733 0
vt 0.693733 0
vt 0.706254 0
vt 0.706254 0.129828
vt 0.693733 0
vt 0.706254 0.129828
vt 0.693438 0.129828
vt 0.693939 0.250119
vt 0.498667 0.374372
vt 0.498666 0.331254
vt 0.355362 0.324681
vt 0.498666 0.331254
vt 0.498667 0.374372
vt 0.307144 0.25
vt 0.306368 0.251955
vt 0.293746 0.129828
vt 0.307144 0.25
vt 0.293746 0.129828
vt 0.306737 0.129828
vt 0.375 0.317856
vt 0.498667 0.316509
vt 0.498666 0.331254
vt 0.375 0.317856
vt 0.498666 0.331254
vt 0.355362 0.324681
vt 0.306737 0.129828
vt 0.293746 0.129828
vt 0.293746 0
vt 0.306737 0.129828
vt 0.293746 0
vt 0.306297 0
vt 0.306297 0
vt 0.335324 0
vt 0.335394 0.129828
vt 0.306297 0
vt 0.335394 0.129828
vt 0.306737 0.129828
vt 0.335394 0.129828
vt 0.335324 0
vt 0.364351 0
vt 0.335394 0.129828
vt 0.364351 0
vt 0.364052 0.129828
vt 0.364351 0
vt 0.375 0
vt 0.375 0.129828
vt 0.364351 0
vt 0.375 0.129828
vt 0.364052 0.129828
vt 0.375 0
vt 0.40526 0
vt 0.408794 0.129828
vt 0.375 0
vt 0.408794 0.129828
vt 0.375 0.129828
vt 0.364052 0.129828
vt 0.375 0.129828
vt 0.383326 0.23733
vt 0.375 0.129828
vt 0.408794 0.129828
vt 0.383326 0.23733
vt 0.364052 0.129828
vt 0.383326 0.23733
vt 0.345235 0.243665
vt 0.364052 0.129828
vt 0.345235 0.243665
vt 0.335394 0.129828
vt 0.383326 0.23733
vt 0.498667 0.25
vt 0.498667 0.283254
vt 0.383326 0.23733
vt 0.498667 0.283254
vt 0.379163 0.277593
vt 0.383326 0.23733
vt 0.408794 0.129828
vt 0.498667 0.129828
vt 0.383326 0.23733
vt 0.498667 0.129828
vt 0.498667 0.25
vt 0.379163 0.277593
vt 0.498667 0.283254
vt 0.498667 0.316509
vt 0.379163 0.277593
vt 0.498667 0.316509
vt 0.375 0.317856
vt 0.335394 0.129828
vt 0.345235 0.243665
vt 0.307144 0.25
vt 0.335394 0.129828
vt 0.307144 0.25
vt 0.306737 0.129828
s off
f 1/1/1 2/2/2 3/3/3
f 4/4/4 5/5/5 6/6/6
f 7/7/7 8/8/8 9/9/9
f 10/10/10 11/11/11 12/12/12
f 13/13/13 14/14/14 15/15/15
f 16/16/16 17/17/17 18/18/18
f 19/19/19 20/20/20 21/21/21
f 22/22/22 23/23/23 24/24/24
f 25/25/25 26/26/26 27/27/27
f 28/28/28 29/29/29 30/30/30
f 31/31/31 32/32/32 33/33/33
f 34/34/34 35/35/35 36/36/36
f 37/37/37 38/38/38 39/39/39
f 40/40/40 41/41/41 42/42/42
f 43/43/43 44/44/44 45/45/45
f 46/46/46 47/47/47 48/48/48
f 49/49/49 50/50/50 51/51/51
f 52/52/52 53/53/53 54/54/54
f 55/55/55 56/56/56 57/57/57
f 58/58/58 59/59/59 60/60/60
f 61/61/61 62/62/62 63/63/63
f 64/64/64 65/65/65 66/66/66
f 67/67/67 68/68/68 69/69/69
f 70/70/70 71/71/71 72/72/72
f 73/73/73 74/74/74 75/75/75
f 76/76/76 77/77/77 78/78/78
f 79/79/79 80/80/80 81/81/81
f 82/82/82 83/83/83 84/84/84
f 85/85/85 86/86/86 87/87/87
f 88/88/88 89/89/89 90/90/90
f 91/91/91 92/92/92 93/93/93
f 94/94/94 95/95/95 96/96/96
f 97/97/97 98/98/98 99/99/99
f 100/100/100 101/101/101 102/102/102
f 103/103/103 104/104/104 105/105/105
f 106/106/106 107/107/107 108/108/108
f 109/109/109 110/110/110 111/111/111
f 112/112/112 113/113/113 114/114/114
f 115/115/115 116/116/116 117/117/117
f 118/118/118 119/119/119 120/120/120
f 121/121/121 122/122/122 123/123/123
f 124/124/124 125/125/125 126/126/126
f 127/127/127 128/128/128 129/129/129
f 130/130/130 131/131/131 132/132/132
f 133/133/133 134/134/134 135/135/135
f 136/136/136 137/137/137 138/138/138
f 139/139/139 140/140/140 141/141/141
f 142/142/142 143/143/143 144/144/144
f 145/145/145 146/146/146 147/147/147
f 148/148/148 149/149/149 150/150/150
f 151/151/151 152/152/152 153/153/153
f 154/154/154 155/155/155 156/156/156
f 157/157/157 158/158/158 159/159/159
f 160/160/160 161/161/161 162/162/162
f 163/163/163 164/164/164 165/165/165
f 166/166/166 167/167/167 168/168/168
f 169/169/169 170/170/170 171/171/171
f 172/172/172 173/173/173 174/174/174
