v -0.685977 0.173877 -0.239782
v -0.696817 0.171084 -0.216806
v -0.649127 0.172219 -0.210975
v -0.685977 0.173877 -0.239782
v -0.649127 0.172219 -0.210975
v -0.649212 0.176547 -0.240561
v -0.696817 0.171084 -0.216806
v -0.649061 0.168943 -0.167936
v -0.649127 0.172219 -0.210975
v -0.603593 0.180138 -0.215449
v -0.649127 0.172219 -0.210975
v -0.649061 0.168943 -0.167936
v -0.612962 0.1811 -0.239858
v -0.649212 0.176547 -0.240561
v -0.649127 0.172219 -0.210975
v -0.612962 0.1811 -0.239858
v -0.649127 0.172219 -0.210975
v -0.603593 0.180138 -0.215449
v -0.649277 0.179844 -0.271637
v -0.686194 0.176239 -0.270626
v -0.685977 0.173877 -0.239782
v -0.649277 0.179844 -0.271637
v -0.685977 0.173877 -0.239782
v -0.649212 0.176547 -0.240561
v -0.612962 0.1811 -0.239858
v -0.612955 0.184002 -0.270006
v -0.649277 0.179844 -0.271637
v -0.612962 0.1811 -0.239858
v -0.649277 0.179844 -0.271637
v -0.649212 0.176547 -0.240561
v -0.649277 0.179844 -0.271637
v -0.612955 0.184002 -0.270006
v -0.61284 0.183932 -0.300376
v -0.649277 0.179844 -0.271637
v -0.61284 0.183932 -0.300376
v -0.649284 0.180017 -0.3056
v -0.649284 0.180017 -0.3056
v -0.686513 0.175326 -0.301587
v -0.686194 0.176239 -0.270626
v -0.649284 0.180017 -0.3056
v -0.686194 0.176239 -0.270626
v -0.649277 0.179844 -0.271637
v -0.600422 0.173894 -0.298836
v -0.61284 0.183932 -0.300376
v -0.612955 0.184002 -0.270006
v -0.600422 0.173894 -0.298836
v -0.612955 0.184002 -0.270006
v -0.600135 0.172406 -0.270299
v -0.600135 0.172406 -0.270299
v -0.612955 0.184002 -0.270006
v -0.612962 0.1811 -0.239858
v -0.600135 0.172406 -0.270299
v -0.612962 0.1811 -0.239858
v -0.600146 0.170885 -0.241764
v -0.600135 0.172406 -0.270299
v -0.599716 0.149249 -0.271464
v -0.599807 0.147419 -0.30082
v -0.600135 0.172406 -0.270299
v -0.599807 0.147419 -0.30082
v -0.600422 0.173894 -0.298836
v -0.599653 0.1508 -0.242093
v -0.599716 0.149249 -0.271464
v -0.600135 0.172406 -0.270299
v -0.599653 0.1508 -0.242093
v -0.600135 0.172406 -0.270299
v -0.600146 0.170885 -0.241764
v -0.591531 0.153468 -0.224774
v -0.599653 0.1508 -0.242093
v -0.600146 0.170885 -0.241764
v -0.591531 0.153468 -0.224774
v -0.600146 0.170885 -0.241764
v -0.592169 0.170502 -0.224541
v -0.592169 0.170502 -0.224541
v -0.600146 0.170885 -0.241764
v -0.612962 0.1811 -0.239858
v -0.592169 0.170502 -0.224541
v -0.612962 0.1811 -0.239858
v -0.603593 0.180138 -0.215449
v -0.604142 0.17435 -0.307821
v -0.600422 0.173894 -0.298836
v -0.599807 0.147419 -0.30082
v -0.604142 0.17435 -0.307821
v -0.599807 0.147419 -0.30082
v -0.603593 0.146326 -0.310024
v -0.610241 0.173799 -0.312453
v -0.604142 0.17435 -0.307821
v -0.603593 0.146326 -0.310024
v -0.610241 0.173799 -0.312453
v -0.603593 0.146326 -0.310024
v -0.609578 0.14554 -0.314401
v -0.648548 0.140837 -0.319834
v -0.649076 0.168879 -0.317922
v -0.610241 0.173799 -0.312453
v -0.648548 0.140837 -0.319834
v -0.610241 0.173799 -0.312453
v -0.609578 0.14554 -0.314401
v -0.610241 0.173799 -0.312453
v -0.649076 0.168879 -0.317922
v -0.649284 0.180017 -0.3056
v -0.610241 0.173799 -0.312453
v -0.649284 0.180017 -0.3056
v -0.61284 0.183932 -0.300376
v -0.61284 0.183932 -0.300376
v -0.604142 0.17435 -0.307821
v -0.610241 0.173799 -0.312453
v -0.649076 0.168879 -0.317922
v -0.688215 0.163814 -0.312538
v -0.686513 0.175326 -0.301587
v -0.649076 0.168879 -0.317922
v -0.686513 0.175326 -0.301587
v -0.649284 0.180017 -0.3056
v -0.687237 0.136418 -0.314853
v -0.688215 0.163814 -0.312538
v -0.649076 0.168879 -0.317922
v -0.687237 0.136418 -0.314853
v -0.649076 0.168879 -0.317922
v -0.648548 0.140837 -0.319834
v -0.695275 0.16283 -0.306616
v -0.688215 0.163814 -0.312538
v -0.687237 0.136418 -0.314853
v -0.695275 0.16283 -0.306616
v -0.687237 0.136418 -0.314853
v -0.694924 0.135232 -0.309327
v -0.686513 0.175326 -0.301587
v -0.688215 0.163814 -0.312538
v -0.695275 0.16283 -0.306616
v -0.697917 0.162101 -0.269792
v -0.686194 0.176239 -0.270626
v -0.686513 0.175326 -0.301587
v -0.697917 0.162101 -0.269792
v -0.686513 0.175326 -0.301587
v -0.697685 0.163105 -0.299992
v -0.686513 0.175326 -0.301587
v -0.695275 0.16283 -0.306616
v -0.697685 0.163105 -0.299992
v -0.698246 0.137914 -0.269702
v -0.697917 0.162101 -0.269792
v -0.697685 0.163105 -0.299992
v -0.698246 0.137914 -0.269702
v -0.697685 0.163105 -0.299992
v -0.698239 0.136224 -0.299264
v -0.697685 0.163105 -0.299992
v -0.695275 0.16283 -0.306616
v -0.694924 0.135232 -0.309327
v -0.697685 0.163105 -0.299992
v -0.694924 0.135232 -0.309327
v -0.698239 0.136224 -0.299264
v -0.69822 0.161098 -0.239591
v -0.697917 0.162101 -0.269792
v -0.698246 0.137914 -0.269702
v -0.69822 0.161098 -0.239591
v -0.698246 0.137914 -0.269702
v -0.698531 0.139608 -0.240141
v -0.705049 0.159676 -0.225438
v -0.69822 0.161098 -0.239591
v -0.698531 0.139608 -0.240141
v -0.705049 0.159676 -0.225438
v -0.698531 0.139608 -0.240141
v -0.705312 0.139219 -0.225883
v -0.696817 0.171084 -0.216806
v -0.685977 0.173877 -0.239782
v -0.69822 0.161098 -0.239591
v -0.696817 0.171084 -0.216806
v -0.69822 0.161098 -0.239591
v -0.705049 0.159676 -0.225438
v -0.685977 0.173877 -0.239782
v -0.686194 0.176239 -0.270626
v -0.697917 0.162101 -0.269792
v -0.685977 0.173877 -0.239782
v -0.697917 0.162101 -0.269792
v -0.69822 0.161098 -0.239591
v -0.61284 0.183932 -0.300376
v -0.600422 0.173894 -0.298836
v -0.604142 0.17435 -0.307821
vn -0.2383 0.9683 0.0746
vn -0.1713 0.9842 0.0448
vn -0.0977 0.9903 0.0988
vn -0.2383 0.9683 0.0746
vn -0.0977 0.9903 0.0988
vn -0.1003 0.989 0.109
vn -0.1714 0.9842 0.0448
vn -0.0971 0.9924 0.0757
vn -0.0977 0.9903 0.0988
vn -0.0184 0.9986 0.0504
vn -0.0977 0.9903 0.0988
vn -0.0971 0.9924 0.0757
vn 0.0501 0.9957 0.0774
vn -0.1003 0.989 0.109
vn -0.0977 0.9903 0.0988
vn 0.0501 0.9957 0.0774
vn -0.0977 0.9903 0.0988
vn -0.0184 0.9986 0.0504
vn -0.1068 0.9933 0.043
vn -0.3175 0.9476 0.0351
vn -0.2383 0.9683 0.0746
vn -0.1068 0.9933 0.043
vn -0.2383 0.9683 0.0746
vn -0.1003 0.989 0.109
vn 0.0501 0.9957 0.0774
vn 0.1189 0.9916 0.0502
vn -0.1068 0.9933 0.043
vn 0.0501 0.9957 0.0774
vn -0.1068 0.9933 0.043
vn -0.1003 0.989 0.109
vn -0.1068 0.9933 0.043
vn 0.1188 0.9916 0.0502
vn 0.0857 0.9782 -0.1892
vn -0.1068 0.9933 0.043
vn 0.0857 0.9782 -0.1892
vn -0.1063 0.9569 -0.2704
vn -0.1063 0.9569 -0.2703
vn -0.2959 0.9302 -0.2171
vn -0.3175 0.9476 0.0351
vn -0.1063 0.9569 -0.2703
vn -0.3175 0.9476 0.0351
vn -0.1068 0.9934 0.043
vn 0.9416 0.3281 -0.0762
vn 0.0857 0.9782 -0.1892
vn 0.1189 0.9916 0.0502
vn 0.9416 0.3281 -0.0762
vn 0.1189 0.9916 0.0502
vn 0.9314 0.3638 0.015
vn 0.9314 0.3638 0.015
vn 0.1189 0.9916 0.0502
vn 0.0501 0.9957 0.0774
vn 0.9314 0.3638 0.015
vn 0.0501 0.9957 0.0774
vn 0.8886 0.4426 -0.1206
vn 0.9314 0.3638 0.015
vn 0.9998 0.0212 -0.004
vn 0.9916 0.0304 -0.1258
vn 0.9314 0.3638 0.015
vn 0.9916 0.0304 -0.1258
vn 0.9416 0.3281 -0.0762
vn 0.9893 0.0259 -0.1435
vn 0.9998 0.0212 -0.004
vn 0.9314 0.3638 0.015
vn 0.9893 0.0259 -0.1435
vn 0.9314 0.3638 0.015
vn 0.8886 0.4426 -0.1206
vn 0.905 0.034 -0.424
vn 0.9893 0.0259 -0.1435
vn 0.8886 0.4426 -0.1206
vn 0.905 0.034 -0.424
vn 0.8886 0.4426 -0.1206
vn 0.7986 0.4958 -0.3413
vn 0.7986 0.4958 -0.3413
vn 0.8886 0.4426 -0.1206
vn 0.05 0.9957 0.0774
vn 0.7986 0.4958 -0.3413
vn 0.05 0.9957 0.0774
vn -0.0184 0.9986 0.0504
vn 0.7931 0.2114 -0.5713
vn 0.9416 0.328 -0.0762
vn 0.9916 0.0304 -0.1258
vn 0.7931 0.2114 -0.5713
vn 0.9916 0.0304 -0.1258
vn 0.7885 0.0626 -0.6118
vn 0.1616 0.3372 -0.9274
vn 0.793 0.2114 -0.5714
vn 0.7885 0.0626 -0.6119
vn 0.1616 0.3372 -0.9274
vn 0.7885 0.0626 -0.6119
vn 0.1981 0.0718 -0.9775
vn -0.0131 0.0717 -0.9973
vn -0.0301 0.3219 -0.9463
vn 0.1616 0.3372 -0.9275
vn -0.0131 0.0717 -0.9973
vn 0.1616 0.3372 -0.9275
vn 0.1981 0.0718 -0.9776
vn 0.1616 0.3372 -0.9275
vn -0.0301 0.322 -0.9463
vn -0.1063 0.9569 -0.2704
vn 0.1616 0.3372 -0.9275
vn -0.1063 0.9569 -0.2704
vn 0.0857 0.9782 -0.1892
vn 0.0857 0.9782 -0.1892
vn 0.7931 0.2114 -0.5713
vn 0.1616 0.3372 -0.9275
vn -0.0301 0.322 -0.9463
vn -0.2379 0.2885 -0.9274
vn -0.2959 0.9302 -0.2171
vn -0.0301 0.322 -0.9463
vn -0.2959 0.9302 -0.2171
vn -0.1063 0.9569 -0.2704
vn -0.2424 0.07 -0.9677
vn -0.2379 0.2885 -0.9275
vn -0.0301 0.322 -0.9463
vn -0.2424 0.07 -0.9677
vn -0.0301 0.322 -0.9463
vn -0.0131 0.0717 -0.9973
vn -0.8069 0.1456 -0.5724
vn -0.2379 0.2885 -0.9274
vn -0.2424 0.07 -0.9676
vn -0.8069 0.1456 -0.5724
vn -0.2424 0.07 -0.9676
vn -0.7998 0.0394 -0.5989
vn -0.2959 0.9302 -0.2171
vn -0.2379 0.2885 -0.9275
vn -0.8069 0.1456 -0.5724
vn -0.9504 0.311 0.0049
vn -0.3175 0.9476 0.0351
vn -0.2959 0.9302 -0.2171
vn -0.9504 0.311 0.0049
vn -0.2959 0.9302 -0.2171
vn -0.9569 0.2835 -0.0623
vn -0.2959 0.9302 -0.2171
vn -0.807 0.1456 -0.5724
vn -0.9569 0.2835 -0.0623
vn -0.9999 0.0157 -0.007
vn -0.9504 0.311 0.0049
vn -0.957 0.2835 -0.0623
vn -0.9999 0.0157 -0.007
vn -0.957 0.2835 -0.0623
vn -0.9962 0.017 -0.0853
vn -0.9569 0.2835 -0.0623
vn -0.807 0.1456 -0.5723
vn -0.7999 0.0394 -0.5989
vn -0.9569 0.2835 -0.0623
vn -0.7999 0.0394 -0.5989
vn -0.9962 0.017 -0.0854
vn -0.9225 0.3644 -0.1277
vn -0.9504 0.3109 0.0049
vn -0.9999 0.0157 -0.007
vn -0.9225 0.3644 -0.1277
vn -0.9999 0.0157 -0.007
vn -0.9891 0.0164 -0.1461
vn -0.8479 0.3878 -0.3615
vn -0.9224 0.3644 -0.1277
vn -0.9892 0.014 -0.1462
vn -0.8479 0.3878 -0.3615
vn -0.9892 0.014 -0.1462
vn -0.9022 0.0226 -0.4307
vn -0.1713 0.9842 0.0448
vn -0.2383 0.9683 0.0746
vn -0.9224 0.3645 -0.1277
vn -0.1713 0.9842 0.0448
vn -0.9224 0.3645 -0.1277
vn -0.8479 0.3878 -0.3615
vn -0.2383 0.9683 0.0745
vn -0.3175 0.9476 0.0351
vn -0.9504 0.311 0.0049
vn -0.2383 0.9683 0.0745
vn -0.9504 0.311 0.0049
vn -0.9224 0.3644 -0.1277
vn 0.0857 0.9782 -0.1893
vn 0.9416 0.3281 -0.0762
vn 0.7931 0.2114 -0.5713
vt 0.375 0.431922
vt 0.36574 0.419347
vt 0.498667 0.418746
vt 0.375 0.431922
vt 0.498667 0.418746
vt 0.498667 0.441072
vt 0.221871 0.257856
vt 0.498667 0.374372
vt 0.498667 0.418746
vt 0.655692 0.394269
vt 0.498667 0.418746
vt 0.498667 0.374372
vt 0.625 0.432403
vt 0.498667 0.441072
vt 0.498667 0.418746
vt 0.625 0.432403
vt 0.498667 0.418746
vt 0.655692 0.394269
vt 0.498667 0.470536
vt 0.38124 0.469306
vt 0.375 0.431922
vt 0.498667 0.470536
vt 0.375 0.431922
vt 0.498667 0.441072
vt 0.625 0.432403
vt 0.622477 0.459373
vt 0.498667 0.470536
vt 0.625 0.432403
vt 0.498667 0.470536
vt 0.498667 0.441072
vt 0.498667 0.470536
vt 0.622477 0.459373
vt 0.619954 0.486343
vt 0.498667 0.470536
vt 0.619954 0.486343
vt 0.498667 0.5
vt 0.498667 0.5
vt 0.387481 0.50669
vt 0.38124 0.469306
vt 0.498667 0.5
vt 0.38124 0.469306
vt 0.498667 0.470536
vt 0.863553 0.129828
vt 0.86804 0.210057
vt 0.837721 0.230029
vt 0.863553 0.129828
vt 0.837721 0.230029
vt 0.835065 0.129828
vt 0.835065 0.129828
vt 0.837721 0.230029
vt 0.807403 0.25
vt 0.835065 0.129828
vt 0.807403 0.25
vt 0.806577 0.129828
vt 0.835065 0.129828
vt 0.835013 0
vt 0.86434 0
vt 0.835065 0.129828
vt 0.86434 0
vt 0.863553 0.129828
vt 0.805686 0
vt 0.835013 0
vt 0.835065 0.129828
vt 0.805686 0
vt 0.835065 0.129828
vt 0.806577 0.129828
vt 0.793746 0
vt 0.805686 0
vt 0.806577 0.129828
vt 0.793746 0
vt 0.806577 0.129828
vt 0.793746 0.129828
vt 0.793746 0.129828
vt 0.806577 0.129828
vt 0.807403 0.25
vt 0.793746 0.129828
vt 0.807403 0.25
vt 0.779378 0.255468
vt 0.875 0.129828
vt 0.863553 0.129828
vt 0.86434 0
vt 0.875 0.129828
vt 0.86434 0
vt 0.875 0
vt 0.591966 0.620172
vt 0.745172 0.259656
vt 0.875 0
vt 0.591966 0.620172
vt 0.875 0
vt 0.594016 0.75
vt 0.498667 0.75
vt 0.498667 0.620172
vt 0.591966 0.620172
vt 0.498667 0.75
vt 0.591966 0.620172
vt 0.594016 0.75
vt 0.591966 0.620172
vt 0.498667 0.620172
vt 0.498667 0.5
vt 0.591966 0.620172
vt 0.498667 0.5
vt 0.619954 0.486343
vt 0.619954 0.486343
vt 0.745172 0.259656
vt 0.591966 0.620172
vt 0.498667 0.620172
vt 0.407826 0.620172
vt 0.391074 0.515123
vt 0.498667 0.620172
vt 0.391074 0.515123
vt 0.498667 0.5
vt 0.405163 0.75
vt 0.407826 0.620172
vt 0.498667 0.620172
vt 0.405163 0.75
vt 0.498667 0.620172
vt 0.498667 0.75
vt 0.375 0.620172
vt 0.407826 0.620172
vt 0.405163 0.75
vt 0.375 0.620172
vt 0.405163 0.75
vt 0.375 0.75
vt 0.387481 0.50669
vt 0.407826 0.620172
vt 0.375 0.620172
vt 0.164697 0.129828
vt 0.170209 0.264217
vt 0.147339 0.278433
vt 0.164697 0.129828
vt 0.147339 0.278433
vt 0.135987 0.129828
vt 0.147339 0.278433
vt 0.245172 0.490344
vt 0.135987 0.129828
vt 0.164666 0
vt 0.164697 0.129828
vt 0.135987 0.129828
vt 0.164666 0
vt 0.135987 0.129828
vt 0.135571 0
vt 0.135987 0.129828
vt 0.245172 0.490344
vt 0.375 0.75
vt 0.135987 0.129828
vt 0.375 0.75
vt 0.135571 0
vt 0.193407 0.129828
vt 0.164697 0.129828
vt 0.164666 0
vt 0.193407 0.129828
vt 0.164666 0
vt 0.193762 0
vt 0.206254 0.129828
vt 0.193407 0.129828
vt 0.193762 0
vt 0.206254 0.129828
vt 0.193762 0
vt 0.206254 0
vt 0.221871 0.257856
vt 0.193078 0.25
vt 0.193407 0.129828
vt 0.221871 0.257856
vt 0.193407 0.129828
vt 0.206254 0.129828
vt 0.193078 0.25
vt 0.170209 0.264217
vt 0.164697 0.129828
vt 0.193078 0.25
vt 0.164697 0.129828
vt 0.193407 0.129828
vt 0.86804 0.210057
vt 0.863553 0.129828
vt 0.875 0.129828
s off
f 1/1/1 2/2/2 3/3/3
f 4/4/4 5/5/5 6/6/6
f 7/7/7 8/8/8 9/9/9
f 10/10/10 11/11/11 12/12/12
f 13/13/13 14/14/14 15/15/15
f 16/16/16 17/17/17 18/18/18
f 19/19/19 20/20/20 21/21/21
f 22/22/22 23/23/23 24/24/24
f 25/25/25 26/26/26 27/27/27
f 28/28/28 29/29/29 30/30/30
f 31/31/31 32/32/32 33/33/33
f 34/34/34 35/35/35 36/36/36
f 37/37/37 38/38/38 39/39/39
f 40/40/40 41/41/41 42/42/42
f 43/43/43 44/44/44 45/45/45
f 46/46/46 47/47/47 48/48/48
f 49/49/49 50/50/50 51/51/51
f 52/52/52 53/53/53 54/54/54
f 55/55/55 56/56/56 57/57/57
f 58/58/58 59/59/59 60/60/60
f 61/61/61 62/62/62 63/63/63
f 64/64/64 65/65/65 66/66/66
f 67/67/67 68/68/68 69/69/69
f 70/70/70 71/71/71 72/72/72
f 73/73/73 74/74/74 75/75/75
f 76/76/76 77/77/77 78/78/78
f 79/79/79 80/80/80 81/81/81
f 82/82/82 83/83/83 84/84/84
f 85/85/85 86/86/86 87/87/87
f 88/88/88 89/89/89 90/90/90
f 91/91/91 92/92/92 93/93/93
f 94/94/94 95/95/95 96/96/96
f 97/97/97 98/98/98 99/99/99
f 100/100/100 101/101/101 102/102/102
f 103/103/103 104/104/104 105/105/105
f 106/106/106 107/107/107 108/108/108
f 109/109/109 110/110/110 111/111/111
f 112/112/112 113/113/113 114/114/114
f 115/115/115 116/116/116 117/117/117
f 118/118/118 119/119/119 120/120/120
f 121/121/121 122/122/122 123/123/123
f 124/124/124 125/125/125 126/126/126
f 127/127/127 128/128/128 129/129/129
f 130/130/130 131/131/131 132/132/132
f 133/133/133 134/134/134 135/135/135
f 136/136/136 137/137/137 138/138/138
f 139/139/139 140/140/140 141/141/141
f 142/142/142 143/143/143 144/144/144
f 145/145/145 146/146/146 147/147/147
f 148/148/148 149/149/149 150/150/150
f 151/151/151 152/152/152 153/153/153
f 154/154/154 155/155/155 156/156/156
f 157/157/157 158/158/158 159/159/159
f 160/160/160 161/161/161 162/162/162
f 163/163/163 164/164/164 165/165/165
f 166/166/166 167/167/167 168/168/168
f 169/169/169 170/170/170 171/171/171
f 172/172/172 173/173/173 174/174/174
