v -0.904609 0.051311 0.122022
v -0.816991 0.093794 0.160397
v -0.777846 0.128114 0.011103
v -0.904609 0.051311 0.122022
v -0.777846 0.128114 0.011103
v -0.875958 0.088714 -0.023876
v -0.955058 -0.030195 0.076054
v -0.92072 -0.008991 -0.064067
v -0.92369 -0.113065 -0.05689
v -0.955058 -0.030195 0.076054
v -0.92369 -0.113065 -0.05689
v -0.956427 -0.133727 0.061558
v -0.986175 -0.06769 0.226143
v -0.955058 -0.030195 0.076054
v -0.956427 -0.133727 0.061558
v -0.986175 -0.06769 0.226143
v -0.956427 -0.133727 0.061558
v -0.991971 -0.168659 0.199754
v -1.00621 -0.112987 0.377991
v -0.986175 -0.06769 0.226143
v -0.991971 -0.168659 0.199754
v -1.00621 -0.112987 0.377991
v -0.991971 -0.168659 0.199754
v -1.02225 -0.209005 0.341868
v -1.01807 -0.165236 0.517693
v -1.00621 -0.112987 0.377991
v -1.02225 -0.209005 0.341868
v -1.01807 -0.165236 0.517693
v -1.02225 -0.209005 0.341868
v -1.04039 -0.251609 0.482621
v -1.02108 -0.218171 0.641839
v -1.01807 -0.165236 0.517693
v -1.04039 -0.251609 0.482621
v -1.02108 -0.218171 0.641839
v -1.04039 -0.251609 0.482621
v -1.04152 -0.296844 0.613595
v -0.969325 -0.153971 0.685335
v -0.893675 -0.116783 0.730756
v -0.886288 -0.056389 0.612511
v -0.969325 -0.153971 0.685335
v -0.886288 -0.056389 0.612511
v -0.962558 -0.098228 0.562561
v -0.962558 -0.098228 0.562561
v -0.886288 -0.056389 0.612511
v -0.87096 -0.003082 0.474945
v -0.962558 -0.098228 0.562561
v -0.87096 -0.003082 0.474945
v -0.948276 -0.045174 0.424301
v -0.962558 -0.098228 0.562561
v -1.01807 -0.165236 0.517693
v -1.02108 -0.218171 0.641839
v -0.962558 -0.098228 0.562561
v -1.02108 -0.218171 0.641839
v -0.969325 -0.153971 0.685335
v -0.948276 -0.045174 0.424301
v -1.00621 -0.112987 0.377991
v -1.01807 -0.165236 0.517693
v -0.948276 -0.045174 0.424301
v -1.01807 -0.165236 0.517693
v -0.962558 -0.098228 0.562561
v -0.847276 0.04966 0.318103
v -0.930312 0.005768 0.273316
v -0.948276 -0.045174 0.424301
v -0.847276 0.04966 0.318103
v -0.948276 -0.045174 0.424301
v -0.87096 -0.003082 0.474945
v -0.930312 0.005768 0.273316
v -0.986175 -0.06769 0.226143
v -1.00621 -0.112987 0.377991
v -0.930312 0.005768 0.273316
v -1.00621 -0.112987 0.377991
v -0.948276 -0.045174 0.424301
v -0.904609 0.051311 0.122022
v -0.930312 0.005768 0.273316
v -0.847276 0.04966 0.318103
v -0.904609 0.051311 0.122022
v -0.847276 0.04966 0.318103
v -0.816991 0.093794 0.160397
v -0.904609 0.051311 0.122022
v -0.955058 -0.030195 0.076054
v -0.986175 -0.06769 0.226143
v -0.904609 0.051311 0.122022
v -0.986175 -0.06769 0.226143
v -0.930312 0.005768 0.273316
v -0.875958 0.088714 -0.023876
v -0.92072 -0.008991 -0.064067
v -0.955058 -0.030195 0.076054
v -0.875958 0.088714 -0.023876
v -0.955058 -0.030195 0.076054
v -0.904609 0.051311 0.122022
vn -0.6782 0.7332 0.0504
vn -0.361 0.9199 0.1535
vn -0.2729 0.9584 0.0836
vn -0.6782 0.7332 0.0504
vn -0.2729 0.9584 0.0836
vn -0.6589 0.7519 -0.0218
vn -0.9377 0.32 -0.1353
vn -0.9429 0.2736 -0.1897
vn -0.9664 0.017 -0.2563
vn -0.9377 0.32 -0.1353
vn -0.9664 0.017 -0.2563
vn -0.9729 0.0548 -0.2245
vn -0.9303 0.3611 -0.0645
vn -0.9377 0.32 -0.1353
vn -0.9729 0.0548 -0.2245
vn -0.9303 0.3611 -0.0645
vn -0.9729 0.0548 -0.2245
vn -0.9798 0.1125 -0.1654
vn -0.9173 0.3979 0.0175
vn -0.9303 0.3611 -0.0645
vn -0.9798 0.1125 -0.1654
vn -0.9173 0.3979 0.0175
vn -0.9798 0.1125 -0.1654
vn -0.9802 0.1807 -0.0812
vn -0.9112 0.4009 0.0948
vn -0.9173 0.3979 0.0176
vn -0.9802 0.1807 -0.0812
vn -0.9112 0.4009 0.0948
vn -0.9802 0.1807 -0.0812
vn -0.9752 0.2208 0.0137
vn -0.91 0.3668 0.1932
vn -0.9112 0.401 0.0948
vn -0.9752 0.2208 0.0137
vn -0.91 0.3668 0.1932
vn -0.9752 0.2208 0.0137
vn -0.9707 0.2059 0.1238
vn -0.7116 0.6189 0.3324
vn -0.461 0.7607 0.457
vn -0.4678 0.8211 0.3272
vn -0.7116 0.6189 0.3324
vn -0.4678 0.8211 0.3272
vn -0.7067 0.6705 0.2258
vn -0.7067 0.6705 0.2258
vn -0.4678 0.8211 0.3272
vn -0.4537 0.855 0.2514
vn -0.7067 0.6705 0.2258
vn -0.4537 0.855 0.2514
vn -0.6913 0.7027 0.1683
vn -0.7068 0.6704 0.2258
vn -0.9111 0.4011 0.0949
vn -0.91 0.3669 0.1932
vn -0.7068 0.6704 0.2258
vn -0.91 0.3669 0.1932
vn -0.7117 0.6188 0.3324
vn -0.6914 0.7026 0.1683
vn -0.9172 0.3981 0.0177
vn -0.9111 0.4011 0.0948
vn -0.6914 0.7026 0.1683
vn -0.9111 0.4011 0.0948
vn -0.7068 0.6704 0.2257
vn -0.4204 0.8846 0.2021
vn -0.6828 0.7217 0.1134
vn -0.6913 0.7027 0.1683
vn -0.4204 0.8846 0.2021
vn -0.6913 0.7027 0.1683
vn -0.4537 0.855 0.2514
vn -0.683 0.7216 0.1133
vn -0.9302 0.3612 -0.0644
vn -0.9172 0.3981 0.0176
vn -0.683 0.7216 0.1133
vn -0.9172 0.3981 0.0176
vn -0.6914 0.7026 0.1683
vn -0.6782 0.7332 0.0504
vn -0.6828 0.7217 0.1133
vn -0.4203 0.8846 0.2021
vn -0.6782 0.7332 0.0504
vn -0.4203 0.8846 0.2021
vn -0.361 0.9198 0.1536
vn -0.6783 0.7331 0.0504
vn -0.9377 0.3202 -0.1353
vn -0.9302 0.3613 -0.0645
vn -0.6783 0.7331 0.0504
vn -0.9302 0.3613 -0.0645
vn -0.6829 0.7216 0.1133
vn -0.6591 0.7518 -0.0218
vn -0.9429 0.2738 -0.1897
vn -0.9376 0.3202 -0.1353
vn -0.6591 0.7518 -0.0218
vn -0.9376 0.3202 -0.1353
vn -0.6783 0.7331 0.0504
vt 0 0
vt 1 0
vt 1 1
vt 0 0
vt 1 1
vt 0 1
vt 0 0
vt 1 0
vt 1 1
vt 0 0
vt 1 1
vt 0 1
vt 0 0
vt 1 0
vt 1 1
vt 0 0
vt 1 1
vt 0 1
vt 0 0
vt 1 0
vt 1 1
vt 0 0
vt 1 1
vt 0 1
vt 0 0
vt 1 0
vt 1 1
vt 0 0
vt 1 1
vt 0 1
vt 0 0
vt 1 0
vt 1 1
vt 0 0
vt 1 1
vt 0 1
vt 0 0
vt 1 0
vt 1 1
vt 0 0
vt 1 1
vt 0 1
vt 0 0
vt 1 0
vt 1 1
vt 0 0
vt 1 1
vt 0 1
vt 1 1
vt 1 1
vt 0 1
vt 1 1
vt 0 1
vt 1 0
vt 1 1
vt 1 1
vt 0 1
vt 1 1
vt 0 1
vt 1 0
vt 1 0.513515
vt 0 0.513515
vt 0 0
vt 1 0.513515
vt 0 0
vt 1 0
vt 1 0.513515
vt 1 1
vt 0 1
vt 1 0.513515
vt 0 1
vt 1 0
vt 0 1
vt 0 0.513515
vt 1 0.513515
vt 0 1
vt 1 0.513515
vt 1 1
vt 1 1
vt 1 1
vt 0 1
vt 1 1
vt 0 1
vt 1 0.513515
vt 1 1
vt 1 1
vt 0 1
vt 1 1
vt 0 1
vt 1 0
s off
f 1/1/1 2/2/2 3/3/3
f 4/4/4 5/5/5 6/6/6
f 7/7/7 8/8/8 9/9/9
f 10/10/10 11/11/11 12/12/12
f 13/13/13 14/14/14 15/15/15
f 16/16/16 17/17/17 18/18/18
f 19/19/19 20/20/20 21/21/21
f 22/22/22 23/23/23 24/24/24
f 25/25/25 26/26/26 27/27/27
f 28/28/28 29/29/29 30/30/30
f 31/31/31 32/32/32 33/33/33
f 34/34/34 35/35/35 36/36/36
f 37/37/37 38/38/38 39/39/39
f 40/40/40 41/41/41 42/42/42
f 43/43/43 44/44/44 45/45/45
f 46/46/46 47/47/47 48/48/48
f 49/49/49 50/50/50 51/51/51
f 52/52/52 53/53/53 54/54/54
f 55/55/55 56/56/56 57/57/57
f 58/58/58 59/59/59 60/60/60
f 61/61/61 62/62/62 63/63/63
f 64/64/64 65/65/65 66/66/66
f 67/67/67 68/68/68 69/69/69
f 70/70/70 71/71/71 72/72/72
f 73/73/73 74/74/74 75/75/75
f 76/76/76 77/77/77 78/78/78
f 79/79/79 80/80/80 81/81/81
f 82/82/82 83/83/83 84/84/84
f 85/85/85 86/86/86 87/87/87
f 88/88/88 89/89/89 90/90/90
