v -0.022557 0.111372 -0.058267
v -0.02249 0.093158 -0.058316
v -0.042661 0.09321 -0.045208
v -0.022557 0.111372 -0.058267
v -0.042661 0.09321 -0.045208
v -0.042718 0.111456 -0.045139
v -0.042718 0.111456 -0.045139
v -0.042661 0.09321 -0.045208
v -0.056281 0.093299 -0.025378
v -0.042718 0.111456 -0.045139
v -0.056281 0.093299 -0.025378
v -0.056322 0.111584 -0.025295
v -0.02249 0.093158 -0.058316
v -0.022721 0.074834 -0.058649
v -0.042943 0.074916 -0.045423
v -0.02249 0.093158 -0.058316
v -0.042943 0.074916 -0.045423
v -0.042661 0.09321 -0.045208
v -0.042661 0.09321 -0.045208
v -0.042943 0.074916 -0.045423
v -0.056564 0.075013 -0.025466
v -0.042661 0.09321 -0.045208
v -0.056564 0.075013 -0.025466
v -0.056281 0.093299 -0.025378
v -0.056322 0.111584 -0.025295
v -0.056281 0.093299 -0.025378
v -0.061275 0.093413 1e-06
v -0.056322 0.111584 -0.025295
v -0.061275 0.093413 1e-06
v -0.061295 0.111735 1e-06
v -0.056281 0.093299 -0.025378
v -0.056564 0.075013 -0.025466
v -0.06151 0.075108 1e-06
v -0.056281 0.093299 -0.025378
v -0.06151 0.075108 1e-06
v -0.061275 0.093413 1e-06
v -0.056564 0.075013 -0.025466
v -0.080157 0.067589 -0.035169
v -0.087375 0.06781 1e-06
v -0.056564 0.075013 -0.025466
v -0.087375 0.06781 1e-06
v -0.06151 0.075108 1e-06
v -0.061079 0.067172 -0.063443
v -0.080157 0.067589 -0.035169
v -0.056564 0.075013 -0.025466
v -0.061079 0.067172 -0.063443
v -0.056564 0.075013 -0.025466
v -0.042943 0.074916 -0.045423
v -0.061079 0.067172 -0.063443
v -0.077347 0.046787 -0.079754
v -0.101716 0.047311 -0.043986
v -0.061079 0.067172 -0.063443
v -0.101716 0.047311 -0.043986
v -0.080157 0.067589 -0.035169
v -0.080157 0.067589 -0.035169
v -0.101716 0.047311 -0.043986
v -0.111051 0.047582 1e-06
v -0.080157 0.067589 -0.035169
v -0.111051 0.047582 1e-06
v -0.087375 0.06781 1e-06
v -0.101716 0.047311 -0.043986
v -0.113088 0.023719 -0.048905
v -0.123467 0.02402 1e-06
v -0.101716 0.047311 -0.043986
v -0.123467 0.02402 1e-06
v -0.111051 0.047582 1e-06
v -0.077347 0.046787 -0.079754
v -0.085995 0.023136 -0.088673
v -0.113088 0.023719 -0.048905
v -0.077347 0.046787 -0.079754
v -0.113088 0.023719 -0.048905
v -0.101716 0.047311 -0.043986
v -0.113088 0.023719 -0.048905
v -0.119032 -0.00302 -0.051476
v -0.129957 -0.002704 1e-06
v -0.113088 0.023719 -0.048905
v -0.129957 -0.002704 1e-06
v -0.123467 0.02402 1e-06
v -0.085995 0.023136 -0.088673
v -0.090515 -0.003634 -0.093334
v -0.119032 -0.00302 -0.051476
v -0.085995 0.023136 -0.088673
v -0.119032 -0.00302 -0.051476
v -0.113088 0.023719 -0.048905
v -0.045858 0.022887 -0.114425
v -0.048268 -0.003896 -0.12044
v -0.090515 -0.003634 -0.093334
v -0.045858 0.022887 -0.114425
v -0.090515 -0.003634 -0.093334
v -0.085995 0.023136 -0.088673
v 1e-06 0.022516 -0.123491
v 1e-06 -0.004287 -0.129982
v -0.048268 -0.003896 -0.12044
v 1e-06 0.022516 -0.123491
v -0.048268 -0.003896 -0.12044
v -0.045858 0.022887 -0.114425
v 1e-06 0.022516 -0.123491
v 0.045857 0.022887 -0.114425
v 0.048268 -0.003896 -0.12044
v 1e-06 0.022516 -0.123491
v 0.048268 -0.003896 -0.12044
v 1e-06 -0.004287 -0.129982
v 0.045857 0.022887 -0.114425
v 0.085995 0.023136 -0.088673
v 0.090515 -0.003634 -0.093334
v 0.045857 0.022887 -0.114425
v 0.090515 -0.003634 -0.093334
v 0.048268 -0.003896 -0.12044
v 0.085995 0.023136 -0.088673
v 0.113088 0.023719 -0.048905
v 0.119033 -0.00302 -0.051476
v 0.085995 0.023136 -0.088673
v 0.119033 -0.00302 -0.051476
v 0.090515 -0.003634 -0.093334
v 0.113088 0.023719 -0.048905
v 0.123468 0.02402 1e-06
v 0.129957 -0.002704 1e-06
v 0.113088 0.023719 -0.048905
v 0.129957 -0.002704 1e-06
v 0.119033 -0.00302 -0.051476
v 0.113088 0.023719 0.048907
v 0.119033 -0.00302 0.051478
v 0.129957 -0.002704 1e-06
v 0.113088 0.023719 0.048907
v 0.129957 -0.002704 1e-06
v 0.123468 0.02402 1e-06
v 0.101716 0.047311 0.043988
v 0.113088 0.023719 0.048907
v 0.123468 0.02402 1e-06
v 0.101716 0.047311 0.043988
v 0.123468 0.02402 1e-06
v 0.111051 0.047582 1e-06
v 0.101716 0.047311 -0.043986
v 0.111051 0.047582 1e-06
v 0.123468 0.02402 1e-06
v 0.101716 0.047311 -0.043986
v 0.123468 0.02402 1e-06
v 0.113088 0.023719 -0.048905
v 0.080157 0.067589 0.035171
v 0.101716 0.047311 0.043988
v 0.111051 0.047582 1e-06
v 0.080157 0.067589 0.035171
v 0.111051 0.047582 1e-06
v 0.087375 0.06781 1e-06
v 0.080157 0.067589 -0.035169
v 0.087375 0.06781 1e-06
v 0.111051 0.047582 1e-06
v 0.080157 0.067589 -0.035169
v 0.111051 0.047582 1e-06
v 0.101716 0.047311 -0.043986
v 0.061078 0.067172 -0.063443
v 0.080157 0.067589 -0.035169
v 0.101716 0.047311 -0.043986
v 0.061078 0.067172 -0.063443
v 0.101716 0.047311 -0.043986
v 0.077347 0.046787 -0.079754
v 0.077347 0.046787 -0.079754
v 0.101716 0.047311 -0.043986
v 0.113088 0.023719 -0.048905
v 0.077347 0.046787 -0.079754
v 0.113088 0.023719 -0.048905
v 0.085995 0.023136 -0.088673
v 0.032559 0.067145 -0.081626
v 0.061078 0.067172 -0.063443
v 0.077347 0.046787 -0.079754
v 0.032559 0.067145 -0.081626
v 0.077347 0.046787 -0.079754
v 0.041247 0.046563 -0.102917
v 0.041247 0.046563 -0.102917
v 0.077347 0.046787 -0.079754
v 0.085995 0.023136 -0.088673
v 0.041247 0.046563 -0.102917
v 0.085995 0.023136 -0.088673
v 0.045857 0.022887 -0.114425
v 1e-06 0.067006 -0.087972
v 0.032559 0.067145 -0.081626
v 0.041247 0.046563 -0.102917
v 1e-06 0.067006 -0.087972
v 0.041247 0.046563 -0.102917
v 1e-06 0.046229 -0.111071
v 1e-06 0.046229 -0.111071
v 0.041247 0.046563 -0.102917
v 0.045857 0.022887 -0.114425
v 1e-06 0.046229 -0.111071
v 0.045857 0.022887 -0.114425
v 1e-06 0.022516 -0.123491
v 1e-06 0.067006 -0.087972
v 1e-06 0.046229 -0.111071
v -0.041247 0.046563 -0.102917
v 1e-06 0.067006 -0.087972
v -0.041247 0.046563 -0.102917
v -0.032559 0.067145 -0.081626
v 1e-06 0.046229 -0.111071
v 1e-06 0.022516 -0.123491
v -0.045858 0.022887 -0.114425
v 1e-06 0.046229 -0.111071
v -0.045858 0.022887 -0.114425
v -0.041247 0.046563 -0.102917
v -0.032559 0.067145 -0.081626
v -0.041247 0.046563 -0.102917
v -0.077347 0.046787 -0.079754
v -0.032559 0.067145 -0.081626
v -0.077347 0.046787 -0.079754
v -0.061079 0.067172 -0.063443
v -0.041247 0.046563 -0.102917
v -0.045858 0.022887 -0.114425
v -0.085995 0.023136 -0.088673
v -0.041247 0.046563 -0.102917
v -0.085995 0.023136 -0.088673
v -0.077347 0.046787 -0.079754
v 1e-06 0.074779 -0.06313
v 1e-06 0.067006 -0.087972
v -0.032559 0.067145 -0.081626
v 1e-06 0.074779 -0.06313
v -0.032559 0.067145 -0.081626
v -0.022721 0.074834 -0.058649
v -0.022721 0.074834 -0.058649
v -0.032559 0.067145 -0.081626
v -0.061079 0.067172 -0.063443
v -0.022721 0.074834 -0.058649
v -0.061079 0.067172 -0.063443
v -0.042943 0.074916 -0.045423
v 1e-06 0.093151 -0.062707
v 1e-06 0.074779 -0.06313
v -0.022721 0.074834 -0.058649
v 1e-06 0.093151 -0.062707
v -0.022721 0.074834 -0.058649
v -0.02249 0.093158 -0.058316
v 1e-06 0.093151 -0.062707
v 0.022491 0.093158 -0.058316
v 0.022722 0.074834 -0.058649
v 1e-06 0.093151 -0.062707
v 0.022722 0.074834 -0.058649
v 1e-06 0.074779 -0.06313
v 1e-06 0.074779 -0.06313
v 0.022722 0.074834 -0.058649
v 0.032559 0.067145 -0.081626
v 1e-06 0.074779 -0.06313
v 0.032559 0.067145 -0.081626
v 1e-06 0.067006 -0.087972
v 0.022491 0.093158 -0.058316
v 0.042661 0.09321 -0.045208
v 0.042944 0.074916 -0.045423
v 0.022491 0.093158 -0.058316
v 0.042944 0.074916 -0.045423
v 0.022722 0.074834 -0.058649
v 0.022722 0.074834 -0.058649
v 0.042944 0.074916 -0.045423
v 0.061078 0.067172 -0.063443
v 0.022722 0.074834 -0.058649
v 0.061078 0.067172 -0.063443
v 0.032559 0.067145 -0.081626
v 0.042661 0.09321 -0.045208
v 0.05628 0.093299 -0.025378
v 0.056564 0.075013 -0.025466
v 0.042661 0.09321 -0.045208
v 0.056564 0.075013 -0.025466
v 0.042944 0.074916 -0.045423
v 0.061078 0.067172 -0.063443
v 0.042944 0.074916 -0.045423
v 0.056564 0.075013 -0.025466
v 0.061078 0.067172 -0.063443
v 0.056564 0.075013 -0.025466
v 0.080157 0.067589 -0.035169
v 0.05628 0.093299 -0.025378
v 0.061274 0.093413 1e-06
v 0.061511 0.075108 1e-06
v 0.05628 0.093299 -0.025378
v 0.061511 0.075108 1e-06
v 0.056564 0.075013 -0.025466
v 0.056564 0.075013 -0.025466
v 0.061511 0.075108 1e-06
v 0.087375 0.06781 1e-06
v 0.056564 0.075013 -0.025466
v 0.087375 0.06781 1e-06
v 0.080157 0.067589 -0.035169
v 0.056564 0.075013 0.025468
v 0.080157 0.067589 0.035171
v 0.087375 0.06781 1e-06
v 0.056564 0.075013 0.025468
v 0.087375 0.06781 1e-06
v 0.061511 0.075108 1e-06
v 0.05628 0.093299 0.025381
v 0.056564 0.075013 0.025468
v 0.061511 0.075108 1e-06
v 0.05628 0.093299 0.025381
v 0.061511 0.075108 1e-06
v 0.061274 0.093413 1e-06
v 0.056322 0.111584 0.025297
v 0.05628 0.093299 0.025381
v 0.061274 0.093413 1e-06
v 0.056322 0.111584 0.025297
v 0.061274 0.093413 1e-06
v 0.061295 0.111735 1e-06
v 0.056322 0.111584 -0.025295
v 0.061295 0.111735 1e-06
v 0.061274 0.093413 1e-06
v 0.056322 0.111584 -0.025295
v 0.061274 0.093413 1e-06
v 0.05628 0.093299 -0.025378
v 0.042719 0.111456 -0.045139
v 0.056322 0.111584 -0.025295
v 0.05628 0.093299 -0.025378
v 0.042719 0.111456 -0.045139
v 0.05628 0.093299 -0.025378
v 0.042661 0.09321 -0.045208
v 1e-06 0.111344 -0.062681
v 0.022558 0.111372 -0.058267
v 0.022491 0.093158 -0.058316
v 1e-06 0.111344 -0.062681
v 0.022491 0.093158 -0.058316
v 1e-06 0.093151 -0.062707
v 0.022558 0.111372 -0.058267
v 0.042719 0.111456 -0.045139
v 0.042661 0.09321 -0.045208
v 0.022558 0.111372 -0.058267
v 0.042661 0.09321 -0.045208
v 0.022491 0.093158 -0.058316
v 1e-06 0.111344 -0.062681
v 1e-06 0.093151 -0.062707
v -0.02249 0.093158 -0.058316
v 1e-06 0.111344 -0.062681
v -0.02249 0.093158 -0.058316
v -0.022557 0.111372 -0.058267
v 0.022558 0.111372 0.058269
v 0.022491 0.093158 0.058318
v 0.042661 0.09321 0.04521
v 0.022558 0.111372 0.058269
v 0.042661 0.09321 0.04521
v 0.042719 0.111456 0.045141
v 0.042719 0.111456 0.045141
v 0.042661 0.09321 0.04521
v 0.05628 0.093299 0.025381
v 0.042719 0.111456 0.045141
v 0.05628 0.093299 0.025381
v 0.056322 0.111584 0.025297
v 0.022491 0.093158 0.058318
v 0.022722 0.074834 0.058651
v 0.042944 0.074916 0.045425
v 0.022491 0.093158 0.058318
v 0.042944 0.074916 0.045425
v 0.042661 0.09321 0.04521
v 0.042661 0.09321 0.04521
v 0.042944 0.074916 0.045425
v 0.056564 0.075013 0.025468
v 0.042661 0.09321 0.04521
v 0.056564 0.075013 0.025468
v 0.05628 0.093299 0.025381
v 0.022722 0.074834 0.058651
v 0.032559 0.067145 0.081629
v 0.061078 0.067172 0.063445
v 0.022722 0.074834 0.058651
v 0.061078 0.067172 0.063445
v 0.042944 0.074916 0.045425
v 0.061078 0.067172 0.063445
v 0.080157 0.067589 0.035171
v 0.056564 0.075013 0.025468
v 0.061078 0.067172 0.063445
v 0.056564 0.075013 0.025468
v 0.042944 0.074916 0.045425
v 0.032559 0.067145 0.081629
v 0.041247 0.046563 0.102919
v 0.077347 0.046787 0.079757
v 0.032559 0.067145 0.081629
v 0.077347 0.046787 0.079757
v 0.061078 0.067172 0.063445
v 0.061078 0.067172 0.063445
v 0.077347 0.046787 0.079757
v 0.101716 0.047311 0.043988
v 0.061078 0.067172 0.063445
v 0.101716 0.047311 0.043988
v 0.080157 0.067589 0.035171
v 0.041247 0.046563 0.102919
v 0.045857 0.022887 0.114428
v 0.085995 0.023136 0.088675
v 0.041247 0.046563 0.102919
v 0.085995 0.023136 0.088675
v 0.077347 0.046787 0.079757
v 0.077347 0.046787 0.079757
v 0.085995 0.023136 0.088675
v 0.113088 0.023719 0.048907
v 0.077347 0.046787 0.079757
v 0.113088 0.023719 0.048907
v 0.101716 0.047311 0.043988
v 0.045857 0.022887 0.114428
v 0.048268 -0.003896 0.120443
v 0.090515 -0.003634 0.093336
v 0.045857 0.022887 0.114428
v 0.090515 -0.003634 0.093336
v 0.085995 0.023136 0.088675
v 0.085995 0.023136 0.088675
v 0.090515 -0.003634 0.093336
v 0.119033 -0.00302 0.051478
v 0.085995 0.023136 0.088675
v 0.119033 -0.00302 0.051478
v 0.113088 0.023719 0.048907
v 1e-06 0.022516 0.123493
v 1e-06 -0.004287 0.129984
v 0.048268 -0.003896 0.120443
v 1e-06 0.022516 0.123493
v 0.048268 -0.003896 0.120443
v 0.045857 0.022887 0.114428
v 1e-06 0.022516 0.123493
v -0.045858 0.022887 0.114428
v -0.048268 -0.003896 0.120443
v 1e-06 0.022516 0.123493
v -0.048268 -0.003896 0.120443
v 1e-06 -0.004287 0.129984
v -0.045858 0.022887 0.114428
v -0.085995 0.023136 0.088675
v -0.090515 -0.003634 0.093336
v -0.045858 0.022887 0.114428
v -0.090515 -0.003634 0.093336
v -0.048268 -0.003896 0.120443
v -0.085995 0.023136 0.088675
v -0.113088 0.023719 0.048907
v -0.119032 -0.00302 0.051478
v -0.085995 0.023136 0.088675
v -0.119032 -0.00302 0.051478
v -0.090515 -0.003634 0.093336
v -0.113088 0.023719 0.048907
v -0.123467 0.02402 1e-06
v -0.129957 -0.002704 1e-06
v -0.113088 0.023719 0.048907
v -0.129957 -0.002704 1e-06
v -0.119032 -0.00302 0.051478
v -0.077347 0.046787 0.079757
v -0.101716 0.047311 0.043988
v -0.113088 0.023719 0.048907
v -0.077347 0.046787 0.079757
v -0.113088 0.023719 0.048907
v -0.085995 0.023136 0.088675
v -0.101716 0.047311 0.043988
v -0.111051 0.047582 1e-06
v -0.123467 0.02402 1e-06
v -0.101716 0.047311 0.043988
v -0.123467 0.02402 1e-06
v -0.113088 0.023719 0.048907
v -0.061079 0.067172 0.063445
v -0.080157 0.067589 0.035171
v -0.101716 0.047311 0.043988
v -0.061079 0.067172 0.063445
v -0.101716 0.047311 0.043988
v -0.077347 0.046787 0.079757
v -0.080157 0.067589 0.035171
v -0.087375 0.06781 1e-06
v -0.111051 0.047582 1e-06
v -0.080157 0.067589 0.035171
v -0.111051 0.047582 1e-06
v -0.101716 0.047311 0.043988
v -0.032559 0.067145 0.081629
v -0.061079 0.067172 0.063445
v -0.077347 0.046787 0.079757
v -0.032559 0.067145 0.081629
v -0.077347 0.046787 0.079757
v -0.041247 0.046563 0.102919
v -0.041247 0.046563 0.102919
v -0.077347 0.046787 0.079757
v -0.085995 0.023136 0.088675
v -0.041247 0.046563 0.102919
v -0.085995 0.023136 0.088675
v -0.045858 0.022887 0.114428
v 1e-06 0.067006 0.087974
v -0.032559 0.067145 0.081629
v -0.041247 0.046563 0.102919
v 1e-06 0.067006 0.087974
v -0.041247 0.046563 0.102919
v 1e-06 0.046229 0.111073
v 1e-06 0.046229 0.111073
v -0.041247 0.046563 0.102919
v -0.045858 0.022887 0.114428
v 1e-06 0.046229 0.111073
v -0.045858 0.022887 0.114428
v 1e-06 0.022516 0.123493
v 1e-06 0.067006 0.087974
v 1e-06 0.046229 0.111073
v 0.041247 0.046563 0.102919
v 1e-06 0.067006 0.087974
v 0.041247 0.046563 0.102919
v 0.032559 0.067145 0.081629
v 1e-06 0.046229 0.111073
v 1e-06 0.022516 0.123493
v 0.045857 0.022887 0.114428
v 1e-06 0.046229 0.111073
v 0.045857 0.022887 0.114428
v 0.041247 0.046563 0.102919
v 1e-06 0.074779 0.063132
v 1e-06 0.067006 0.087974
v 0.032559 0.067145 0.081629
v 1e-06 0.074779 0.063132
v 0.032559 0.067145 0.081629
v 0.022722 0.074834 0.058651
v 1e-06 0.074779 0.063132
v -0.022721 0.074834 0.058651
v -0.032559 0.067145 0.081629
v 1e-06 0.074779 0.063132
v -0.032559 0.067145 0.081629
v 1e-06 0.067006 0.087974
v 1e-06 0.093151 0.06271
v 1e-06 0.074779 0.063132
v 0.022722 0.074834 0.058651
v 1e-06 0.093151 0.06271
v 0.022722 0.074834 0.058651
v 0.022491 0.093158 0.058318
v 1e-06 0.093151 0.06271
v -0.02249 0.093158 0.058318
v -0.022721 0.074834 0.058651
v 1e-06 0.093151 0.06271
v -0.022721 0.074834 0.058651
v 1e-06 0.074779 0.063132
v -0.02249 0.093158 0.058318
v -0.042661 0.09321 0.04521
v -0.042943 0.074916 0.045425
v -0.02249 0.093158 0.058318
v -0.042943 0.074916 0.045425
v -0.022721 0.074834 0.058651
v -0.022721 0.074834 0.058651
v -0.042943 0.074916 0.045425
v -0.061079 0.067172 0.063445
v -0.022721 0.074834 0.058651
v -0.061079 0.067172 0.063445
v -0.032559 0.067145 0.081629
v -0.042661 0.09321 0.04521
v -0.056281 0.093299 0.025381
v -0.056564 0.075013 0.025468
v -0.042661 0.09321 0.04521
v -0.056564 0.075013 0.025468
v -0.042943 0.074916 0.045425
v -0.061079 0.067172 0.063445
v -0.042943 0.074916 0.045425
v -0.056564 0.075013 0.025468
v -0.061079 0.067172 0.063445
v -0.056564 0.075013 0.025468
v -0.080157 0.067589 0.035171
v -0.056281 0.093299 0.025381
v -0.061275 0.093413 1e-06
v -0.06151 0.075108 1e-06
v -0.056281 0.093299 0.025381
v -0.06151 0.075108 1e-06
v -0.056564 0.075013 0.025468
v -0.056564 0.075013 0.025468
v -0.06151 0.075108 1e-06
v -0.087375 0.06781 1e-06
v -0.056564 0.075013 0.025468
v -0.087375 0.06781 1e-06
v -0.080157 0.067589 0.035171
v -0.056322 0.111584 0.025297
v -0.061295 0.111735 1e-06
v -0.061275 0.093413 1e-06
v -0.056322 0.111584 0.025297
v -0.061275 0.093413 1e-06
v -0.056281 0.093299 0.025381
v -0.042718 0.111456 0.045141
v -0.056322 0.111584 0.025297
v -0.056281 0.093299 0.025381
v -0.042718 0.111456 0.045141
v -0.056281 0.093299 0.025381
v -0.042661 0.09321 0.04521
v -0.022557 0.111372 0.058269
v -0.042718 0.111456 0.045141
v -0.042661 0.09321 0.04521
v -0.022557 0.111372 0.058269
v -0.042661 0.09321 0.04521
v -0.02249 0.093158 0.058318
v 1e-06 0.111344 0.062683
v -0.022557 0.111372 0.058269
v -0.02249 0.093158 0.058318
v 1e-06 0.111344 0.062683
v -0.02249 0.093158 0.058318
v 1e-06 0.093151 0.06271
v 1e-06 0.111344 0.062683
v 1e-06 0.093151 0.06271
v 0.022491 0.093158 0.058318
v 1e-06 0.111344 0.062683
v 0.022491 0.093158 0.058318
v 0.022558 0.111372 0.058269
vn -0.3807 0.0013 -0.9247
vn -0.3796 0.0113 -0.9251
vn -0.6982 0.0098 -0.7158
vn -0.3807 0.0013 -0.9247
vn -0.6982 0.0098 -0.7158
vn -0.6991 0.0005 -0.715
vn -0.6993 0.0005 -0.7148
vn -0.6984 0.0098 -0.7156
vn -0.9247 0.0078 -0.3805
vn -0.6993 0.0005 -0.7148
vn -0.9247 0.0078 -0.3805
vn -0.9252 -0.0006 -0.3794
vn -0.3796 0.0113 -0.9251
vn -0.3804 0.0211 -0.9246
vn -0.6986 0.0192 -0.7152
vn -0.3796 0.0113 -0.9251
vn -0.6986 0.0192 -0.7152
vn -0.6982 0.0098 -0.7159
vn -0.6985 0.0098 -0.7156
vn -0.6989 0.0192 -0.715
vn -0.9249 0.0163 -0.3799
vn -0.6985 0.0098 -0.7156
vn -0.9249 0.0163 -0.3799
vn -0.9247 0.0078 -0.3806
vn -0.9254 -0.0006 -0.379
vn -0.9248 0.0078 -0.3803
vn -1 0.0067 -0.0001
vn -0.9254 -0.0006 -0.379
vn -1 0.0067 -0.0001
vn -1 -0.0012 -0.0002
vn -0.9249 0.0078 -0.3802
vn -0.925 0.0163 -0.3796
vn -0.9999 0.0146 -0.0001
vn -0.9249 0.0078 -0.3802
vn -0.9999 0.0146 -0.0001
vn -1 0.0067 -0.0001
vn -0.2556 0.9601 -0.1134
vn -0.4929 0.8435 -0.2137
vn -0.5324 0.8465 -0.0001
vn -0.2556 0.9601 -0.1134
vn -0.5324 0.8465 -0.0001
vn -0.2745 0.9616 -0
vn -0.3771 0.8376 -0.3952
vn -0.4929 0.8434 -0.2138
vn -0.2556 0.9601 -0.1134
vn -0.3771 0.8376 -0.3952
vn -0.2556 0.9601 -0.1134
vn -0.1973 0.9574 -0.2107
vn -0.3773 0.8375 -0.3953
vn -0.5532 0.604 -0.5737
vn -0.7295 0.6083 -0.3126
vn -0.3773 0.8375 -0.3953
vn -0.7295 0.6083 -0.3126
vn -0.493 0.8433 -0.2139
vn -0.4931 0.8433 -0.2138
vn -0.7297 0.6083 -0.3123
vn -0.7916 0.611 -0.0001
vn -0.4931 0.8433 -0.2138
vn -0.7916 0.611 -0.0001
vn -0.5326 0.8464 -0.0001
vn -0.7299 0.6081 -0.3124
vn -0.8645 0.3418 -0.3685
vn -0.9395 0.3425 -0.0001
vn -0.7299 0.6081 -0.3124
vn -0.9395 0.3425 -0.0001
vn -0.7918 0.6108 -0.0001
vn -0.5533 0.6038 -0.5738
vn -0.654 0.3414 -0.675
vn -0.8644 0.3418 -0.3687
vn -0.5533 0.6038 -0.5738
vn -0.8644 0.3418 -0.3687
vn -0.7297 0.6081 -0.3127
vn -0.8646 0.3416 -0.3685
vn -0.894 0.2354 -0.3814
vn -0.9718 0.236 -0.0001
vn -0.8646 0.3416 -0.3685
vn -0.9718 0.236 -0.0001
vn -0.9396 0.3423 -0.0002
vn -0.6541 0.3412 -0.6751
vn -0.6759 0.2357 -0.6983
vn -0.8938 0.2354 -0.3817
vn -0.6541 0.3412 -0.6751
vn -0.8938 0.2354 -0.3817
vn -0.8645 0.3416 -0.3688
vn -0.3508 0.3411 -0.8721
vn -0.3626 0.2352 -0.9018
vn -0.6756 0.2357 -0.6985
vn -0.3508 0.3411 -0.8721
vn -0.6756 0.2357 -0.6985
vn -0.6539 0.3412 -0.6753
vn -0.0001 0.3405 -0.9403
vn -0.0003 0.2354 -0.9719
vn -0.3623 0.2352 -0.9019
vn -0.0001 0.3405 -0.9403
vn -0.3623 0.2352 -0.9019
vn -0.3506 0.3411 -0.8722
vn 0.0001 0.3405 -0.9403
vn 0.3506 0.3411 -0.8722
vn 0.3623 0.2352 -0.9019
vn 0.0001 0.3405 -0.9403
vn 0.3623 0.2352 -0.9019
vn 0.0003 0.2354 -0.9719
vn 0.3508 0.3411 -0.8721
vn 0.6538 0.3412 -0.6754
vn 0.6758 0.2357 -0.6984
vn 0.3508 0.3411 -0.8721
vn 0.6758 0.2357 -0.6984
vn 0.3626 0.2352 -0.9018
vn 0.6541 0.3412 -0.6751
vn 0.8645 0.3416 -0.3687
vn 0.8938 0.2354 -0.3817
vn 0.6541 0.3412 -0.6751
vn 0.8938 0.2354 -0.3817
vn 0.676 0.2357 -0.6982
vn 0.8646 0.3416 -0.3685
vn 0.9396 0.3423 -0.0001
vn 0.9718 0.236 -0.0001
vn 0.8646 0.3416 -0.3685
vn 0.9718 0.236 -0.0001
vn 0.894 0.2354 -0.3813
vn 0.8646 0.3416 0.3684
vn 0.894 0.2354 0.3813
vn 0.9718 0.236 0.0001
vn 0.8646 0.3416 0.3684
vn 0.9718 0.236 0.0001
vn 0.9396 0.3423 0.0001
vn 0.7298 0.6081 0.3125
vn 0.8645 0.3418 0.3685
vn 0.9395 0.3425 0.0001
vn 0.7298 0.6081 0.3125
vn 0.9395 0.3425 0.0001
vn 0.7918 0.6108 0.0001
vn 0.7298 0.6081 -0.3124
vn 0.7918 0.6108 -0.0001
vn 0.9395 0.3425 -0.0001
vn 0.7298 0.6081 -0.3124
vn 0.9395 0.3425 -0.0001
vn 0.8645 0.3418 -0.3685
vn 0.4932 0.8433 0.2137
vn 0.7297 0.6083 0.3123
vn 0.7916 0.611 0.0001
vn 0.4932 0.8433 0.2137
vn 0.7916 0.611 0.0001
vn 0.5325 0.8464 0.0001
vn 0.4931 0.8433 -0.2138
vn 0.5325 0.8464 -0.0001
vn 0.7916 0.611 -0.0001
vn 0.4931 0.8433 -0.2138
vn 0.7916 0.611 -0.0001
vn 0.7296 0.6084 -0.3124
vn 0.3773 0.8375 -0.3953
vn 0.493 0.8433 -0.2139
vn 0.7295 0.6083 -0.3126
vn 0.3773 0.8375 -0.3953
vn 0.7295 0.6083 -0.3126
vn 0.5531 0.604 -0.5738
vn 0.5532 0.6039 -0.5739
vn 0.7297 0.6081 -0.3126
vn 0.8644 0.3418 -0.3687
vn 0.5532 0.6039 -0.5739
vn 0.8644 0.3418 -0.3687
vn 0.654 0.3414 -0.675
vn 0.2031 0.8346 -0.512
vn 0.3772 0.8375 -0.3954
vn 0.553 0.604 -0.5739
vn 0.2031 0.8346 -0.512
vn 0.553 0.604 -0.5739
vn 0.2962 0.6025 -0.7411
vn 0.2963 0.6023 -0.7412
vn 0.5531 0.6038 -0.574
vn 0.6538 0.3414 -0.6753
vn 0.2963 0.6023 -0.7412
vn 0.6538 0.3414 -0.6753
vn 0.3508 0.3413 -0.872
vn 0.0001 0.832 -0.5548
vn 0.2029 0.8346 -0.5121
vn 0.296 0.6025 -0.7412
vn 0.0001 0.832 -0.5548
vn 0.296 0.6025 -0.7412
vn 0.0001 0.6011 -0.7992
vn 0.0001 0.6008 -0.7994
vn 0.296 0.6023 -0.7414
vn 0.3506 0.3413 -0.8721
vn 0.0001 0.6008 -0.7994
vn 0.3506 0.3413 -0.8721
vn 0.0001 0.3406 -0.9402
vn -0.0001 0.832 -0.5548
vn -0.0001 0.601 -0.7992
vn -0.2961 0.6025 -0.7412
vn -0.0001 0.832 -0.5548
vn -0.2961 0.6025 -0.7412
vn -0.2029 0.8346 -0.5121
vn -0.0001 0.6008 -0.7994
vn -0.0001 0.3406 -0.9402
vn -0.3506 0.3413 -0.8721
vn -0.0001 0.6008 -0.7994
vn -0.3506 0.3413 -0.8721
vn -0.2961 0.6023 -0.7413
vn -0.2031 0.8346 -0.512
vn -0.2962 0.6025 -0.7411
vn -0.553 0.604 -0.5739
vn -0.2031 0.8346 -0.512
vn -0.553 0.604 -0.5739
vn -0.3772 0.8375 -0.3954
vn -0.2964 0.6023 -0.7412
vn -0.3508 0.3413 -0.872
vn -0.6539 0.3414 -0.6752
vn -0.2964 0.6023 -0.7412
vn -0.6539 0.3414 -0.6752
vn -0.5531 0.6038 -0.574
vn -0 0.9547 -0.2974
vn -0 0.8321 -0.5546
vn -0.2029 0.8348 -0.5119
vn -0 0.9547 -0.2974
vn -0.2029 0.8348 -0.5119
vn -0.1078 0.9557 -0.274
vn -0.1078 0.9557 -0.274
vn -0.203 0.8347 -0.5119
vn -0.3771 0.8376 -0.3952
vn -0.1078 0.9557 -0.274
vn -0.3771 0.8376 -0.3952
vn -0.1973 0.9574 -0.2107
vn -0.0002 0.0118 -0.9999
vn -0.0001 0.0217 -0.9998
vn -0.3801 0.0212 -0.9247
vn -0.0002 0.0118 -0.9999
vn -0.3801 0.0212 -0.9247
vn -0.3793 0.0113 -0.9252
vn 0.0001 0.0118 -0.9999
vn 0.3793 0.0113 -0.9252
vn 0.3801 0.0212 -0.9247
vn 0.0001 0.0118 -0.9999
vn 0.3801 0.0212 -0.9247
vn 0.0001 0.0218 -0.9998
vn -0 0.9547 -0.2974
vn 0.1079 0.9557 -0.274
vn 0.2029 0.8348 -0.5119
vn -0 0.9547 -0.2974
vn 0.2029 0.8348 -0.5119
vn -0 0.8321 -0.5546
vn 0.3796 0.0113 -0.9251
vn 0.6982 0.0098 -0.7158
vn 0.6987 0.0192 -0.7152
vn 0.3796 0.0113 -0.9251
vn 0.6987 0.0192 -0.7152
vn 0.3804 0.0212 -0.9246
vn 0.1079 0.9557 -0.274
vn 0.1974 0.9574 -0.2108
vn 0.3771 0.8376 -0.3952
vn 0.1079 0.9557 -0.274
vn 0.3771 0.8376 -0.3952
vn 0.203 0.8348 -0.5118
vn 0.6985 0.0098 -0.7156
vn 0.9247 0.0078 -0.3806
vn 0.9249 0.0162 -0.3799
vn 0.6985 0.0098 -0.7156
vn 0.9249 0.0162 -0.3799
vn 0.699 0.0192 -0.7149
vn 0.3772 0.8376 -0.3952
vn 0.1974 0.9574 -0.2108
vn 0.2555 0.9601 -0.1134
vn 0.3772 0.8376 -0.3952
vn 0.2555 0.9601 -0.1134
vn 0.4929 0.8434 -0.2138
vn 0.9248 0.0078 -0.3803
vn 1 0.0067 -0.0001
vn 0.9999 0.0147 -0.0002
vn 0.9248 0.0078 -0.3803
vn 0.9999 0.0147 -0.0002
vn 0.925 0.0162 -0.3796
vn 0.2555 0.9601 -0.1134
vn 0.2745 0.9616 -0
vn 0.5323 0.8466 -0
vn 0.2555 0.9601 -0.1134
vn 0.5323 0.8466 -0
vn 0.4929 0.8435 -0.2137
vn 0.2555 0.9601 0.1135
vn 0.4929 0.8435 0.2137
vn 0.5323 0.8466 -0
vn 0.2555 0.9601 0.1135
vn 0.5323 0.8466 -0
vn 0.2745 0.9616 -0
vn 0.9248 0.0078 0.3803
vn 0.925 0.0162 0.3796
vn 0.9999 0.0147 0.0002
vn 0.9248 0.0078 0.3803
vn 0.9999 0.0147 0.0002
vn 1 0.0067 0.0001
vn 0.9254 -0.0006 0.379
vn 0.9248 0.0078 0.3803
vn 1 0.0067 0.0001
vn 0.9254 -0.0006 0.379
vn 1 0.0067 0.0001
vn 1 -0.0013 0.0002
vn 0.9254 -0.0006 -0.379
vn 1 -0.0013 -0.0002
vn 1 0.0067 -0.0001
vn 0.9254 -0.0006 -0.379
vn 1 0.0067 -0.0001
vn 0.9248 0.0078 -0.3803
vn 0.6994 0.0005 -0.7148
vn 0.9253 -0.0006 -0.3793
vn 0.9247 0.0078 -0.3805
vn 0.6994 0.0005 -0.7148
vn 0.9247 0.0078 -0.3805
vn 0.6985 0.0098 -0.7156
vn 0.0001 0.0017 -1
vn 0.3805 0.0013 -0.9248
vn 0.3792 0.0113 -0.9253
vn 0.0001 0.0017 -1
vn 0.3792 0.0113 -0.9253
vn 0.0001 0.0118 -0.9999
vn 0.3807 0.0013 -0.9247
vn 0.6991 0.0005 -0.715
vn 0.6982 0.0098 -0.7158
vn 0.3807 0.0013 -0.9247
vn 0.6982 0.0098 -0.7158
vn 0.3795 0.0113 -0.9251
vn -0.0002 0.0017 -1
vn -0.0001 0.0118 -0.9999
vn -0.3792 0.0113 -0.9252
vn -0.0002 0.0017 -1
vn -0.3792 0.0113 -0.9252
vn -0.3805 0.0013 -0.9248
vn 0.3807 0.0013 0.9247
vn 0.3794 0.0113 0.9251
vn 0.6982 0.0098 0.7158
vn 0.3807 0.0013 0.9247
vn 0.6982 0.0098 0.7158
vn 0.6991 0.0005 0.715
vn 0.6993 0.0005 0.7148
vn 0.6984 0.0098 0.7156
vn 0.9247 0.0078 0.3806
vn 0.6993 0.0005 0.7148
vn 0.9247 0.0078 0.3806
vn 0.9252 -0.0006 0.3794
vn 0.3795 0.0113 0.9251
vn 0.3804 0.0211 0.9246
vn 0.6987 0.0192 0.7152
vn 0.3795 0.0113 0.9251
vn 0.6987 0.0192 0.7152
vn 0.6982 0.0098 0.7158
vn 0.6984 0.0098 0.7156
vn 0.699 0.0192 0.7149
vn 0.9249 0.0162 0.3799
vn 0.6984 0.0098 0.7156
vn 0.9249 0.0162 0.3799
vn 0.9247 0.0078 0.3806
vn 0.1078 0.9556 0.2741
vn 0.203 0.8347 0.5119
vn 0.3771 0.8376 0.3952
vn 0.1078 0.9556 0.2741
vn 0.3771 0.8376 0.3952
vn 0.1974 0.9574 0.2107
vn 0.3771 0.8376 0.3952
vn 0.4929 0.8434 0.2138
vn 0.2555 0.9601 0.1135
vn 0.3771 0.8376 0.3952
vn 0.2555 0.9601 0.1135
vn 0.1974 0.9574 0.2107
vn 0.2031 0.8346 0.512
vn 0.2962 0.6025 0.7411
vn 0.553 0.604 0.5739
vn 0.2031 0.8346 0.512
vn 0.553 0.604 0.5739
vn 0.3772 0.8375 0.3954
vn 0.3773 0.8375 0.3953
vn 0.5531 0.604 0.5738
vn 0.7296 0.6083 0.3125
vn 0.3773 0.8375 0.3953
vn 0.7296 0.6083 0.3125
vn 0.493 0.8433 0.2139
vn 0.2964 0.6023 0.7412
vn 0.3509 0.3413 0.872
vn 0.6538 0.3414 0.6752
vn 0.2964 0.6023 0.7412
vn 0.6538 0.3414 0.6752
vn 0.5531 0.6038 0.574
vn 0.5532 0.6038 0.5739
vn 0.654 0.3414 0.675
vn 0.8644 0.3418 0.3688
vn 0.5532 0.6038 0.5739
vn 0.8644 0.3418 0.3688
vn 0.7297 0.6081 0.3126
vn 0.3508 0.3412 0.8721
vn 0.3626 0.2352 0.9018
vn 0.6756 0.2357 0.6985
vn 0.3508 0.3412 0.8721
vn 0.6756 0.2357 0.6985
vn 0.6539 0.3412 0.6753
vn 0.6541 0.3412 0.6751
vn 0.6759 0.2357 0.6983
vn 0.8938 0.2354 0.3817
vn 0.6541 0.3412 0.6751
vn 0.8938 0.2354 0.3817
vn 0.8645 0.3416 0.3687
vn 0.0001 0.3405 0.9403
vn 0.0001 0.2354 0.9719
vn 0.3623 0.2352 0.9019
vn 0.0001 0.3405 0.9403
vn 0.3623 0.2352 0.9019
vn 0.3506 0.3411 0.8722
vn -0.0001 0.3405 0.9403
vn -0.3506 0.3411 0.8722
vn -0.3624 0.2352 0.9019
vn -0.0001 0.3405 0.9403
vn -0.3624 0.2352 0.9019
vn -0.0001 0.2354 0.9719
vn -0.3508 0.3411 0.8721
vn -0.6539 0.3412 0.6753
vn -0.6759 0.2357 0.6983
vn -0.3508 0.3411 0.8721
vn -0.6759 0.2357 0.6983
vn -0.3626 0.2352 0.9018
vn -0.6541 0.3412 0.6751
vn -0.8645 0.3416 0.3688
vn -0.8938 0.2354 0.3817
vn -0.6541 0.3412 0.6751
vn -0.8938 0.2354 0.3817
vn -0.6761 0.2357 0.6981
vn -0.8646 0.3416 0.3685
vn -0.9396 0.3423 0.0002
vn -0.9718 0.236 0.0001
vn -0.8646 0.3416 0.3685
vn -0.9718 0.236 0.0001
vn -0.894 0.2354 0.3814
vn -0.5533 0.6038 0.5738
vn -0.7297 0.6081 0.3126
vn -0.8644 0.3418 0.3688
vn -0.5533 0.6038 0.5738
vn -0.8644 0.3418 0.3688
vn -0.654 0.3414 0.6751
vn -0.7298 0.6081 0.3124
vn -0.7918 0.6108 0.0001
vn -0.9395 0.3425 0.0001
vn -0.7298 0.6081 0.3124
vn -0.9395 0.3425 0.0001
vn -0.8645 0.3418 0.3685
vn -0.3773 0.8375 0.3953
vn -0.493 0.8433 0.2139
vn -0.7296 0.6083 0.3125
vn -0.3773 0.8375 0.3953
vn -0.7296 0.6083 0.3125
vn -0.5532 0.604 0.5738
vn -0.4932 0.8433 0.2137
vn -0.5326 0.8464 0.0001
vn -0.7916 0.611 0.0001
vn -0.4932 0.8433 0.2137
vn -0.7916 0.611 0.0001
vn -0.7297 0.6083 0.3123
vn -0.2031 0.8346 0.512
vn -0.3772 0.8375 0.3954
vn -0.553 0.604 0.5739
vn -0.2031 0.8346 0.512
vn -0.553 0.604 0.5739
vn -0.2962 0.6025 0.7411
vn -0.2964 0.6023 0.7412
vn -0.5532 0.6037 0.574
vn -0.6538 0.3414 0.6752
vn -0.2964 0.6023 0.7412
vn -0.6538 0.3414 0.6752
vn -0.3508 0.3413 0.872
vn -0.0001 0.832 0.5548
vn -0.2029 0.8346 0.5122
vn -0.296 0.6025 0.7412
vn -0.0001 0.832 0.5548
vn -0.296 0.6025 0.7412
vn -0.0001 0.601 0.7992
vn -0.0001 0.6008 0.7994
vn -0.2961 0.6023 0.7414
vn -0.3506 0.3413 0.8721
vn -0.0001 0.6008 0.7994
vn -0.3506 0.3413 0.8721
vn -0.0001 0.3406 0.9402
vn 0.0001 0.832 0.5548
vn 0.0001 0.601 0.7992
vn 0.2961 0.6025 0.7412
vn 0.0001 0.832 0.5548
vn 0.2961 0.6025 0.7412
vn 0.203 0.8346 0.5121
vn 0.0001 0.6008 0.7994
vn 0.0001 0.3406 0.9402
vn 0.3506 0.3413 0.8721
vn 0.0001 0.6008 0.7994
vn 0.3506 0.3413 0.8721
vn 0.2961 0.6023 0.7414
vn -0 0.9547 0.2974
vn -0 0.8321 0.5546
vn 0.2029 0.8348 0.5119
vn -0 0.9547 0.2974
vn 0.2029 0.8348 0.5119
vn 0.1078 0.9556 0.2741
vn -0 0.9547 0.2974
vn -0.1078 0.9556 0.2741
vn -0.2029 0.8348 0.5119
vn -0 0.9547 0.2974
vn -0.2029 0.8348 0.5119
vn -0 0.8321 0.5546
vn 0.0001 0.0118 0.9999
vn 0.0001 0.0218 0.9998
vn 0.3801 0.0212 0.9247
vn 0.0001 0.0118 0.9999
vn 0.3801 0.0212 0.9247
vn 0.3791 0.0113 0.9253
vn -0.0001 0.0118 0.9999
vn -0.3793 0.0113 0.9252
vn -0.3801 0.0213 0.9247
vn -0.0001 0.0118 0.9999
vn -0.3801 0.0213 0.9247
vn -0.0001 0.0218 0.9998
vn -0.3796 0.0113 0.9251
vn -0.6982 0.0098 0.7159
vn -0.6986 0.0192 0.7152
vn -0.3796 0.0113 0.9251
vn -0.6986 0.0192 0.7152
vn -0.3804 0.0212 0.9246
vn -0.1078 0.9556 0.2741
vn -0.1977 0.9574 0.2104
vn -0.3771 0.8376 0.3952
vn -0.1078 0.9556 0.2741
vn -0.3771 0.8376 0.3952
vn -0.203 0.8347 0.5119
vn -0.6985 0.0098 0.7156
vn -0.9247 0.0078 0.3805
vn -0.9248 0.0162 0.38
vn -0.6985 0.0098 0.7156
vn -0.9248 0.0162 0.38
vn -0.6989 0.0192 0.715
vn -0.3772 0.8376 0.3951
vn -0.1977 0.9574 0.2104
vn -0.2556 0.9601 0.1134
vn -0.3772 0.8376 0.3951
vn -0.2556 0.9601 0.1134
vn -0.4929 0.8434 0.2138
vn -0.9248 0.0078 0.3803
vn -1 0.0067 0.0001
vn -0.9999 0.0146 0.0001
vn -0.9248 0.0078 0.3803
vn -0.9999 0.0146 0.0001
vn -0.925 0.0162 0.3796
vn -0.2556 0.9601 0.1134
vn -0.2745 0.9616 -0
vn -0.5323 0.8466 -0
vn -0.2556 0.9601 0.1134
vn -0.5323 0.8466 -0
vn -0.4929 0.8435 0.2137
vn -0.9254 -0.0005 0.379
vn -1 -0.0012 0.0002
vn -1 0.0067 0.0001
vn -0.9254 -0.0005 0.379
vn -1 0.0067 0.0001
vn -0.9248 0.0078 0.3803
vn -0.6993 0.0005 0.7148
vn -0.9253 -0.0005 0.3793
vn -0.9247 0.0078 0.3805
vn -0.6993 0.0005 0.7148
vn -0.9247 0.0078 0.3805
vn -0.6984 0.0098 0.7156
vn -0.3807 0.0013 0.9247
vn -0.6991 0.0005 0.715
vn -0.6982 0.0098 0.7158
vn -0.3807 0.0013 0.9247
vn -0.6982 0.0098 0.7158
vn -0.3796 0.0113 0.9251
vn -0.0001 0.0017 1
vn -0.3805 0.0013 0.9248
vn -0.3793 0.0113 0.9252
vn -0.0001 0.0017 1
vn -0.3793 0.0113 0.9252
vn -0.0001 0.0118 0.9999
vn 0.0001 0.0017 1
vn 0.0001 0.0118 0.9999
vn 0.3791 0.0113 0.9253
vn 0.0001 0.0017 1
vn 0.3791 0.0113 0.9253
vn 0.3805 0.0013 0.9248
vt 0.5 0
vt 0.5 0.5
vt 1 0.5
vt 0.5 0
vt 1 0.5
vt 1 0
vt 0 0
vt 0 0.5
vt 0.5 0.5
vt 0 0
vt 0.5 0.5
vt 0.5 0
vt 0.5 0.5
vt 0.5 1
vt 1 1
vt 0.5 0.5
vt 1 1
vt 1 0.5
vt 0 0.5
vt 0 1
vt 0.5 1
vt 0 0.5
vt 0.5 1
vt 0.5 0.5
vt 0.5 0
vt 0.5 0.5
vt 1 0.5
vt 0.5 0
vt 1 0.5
vt 1 0
vt 0.5 0.5
vt 0.5 1
vt 1 1
vt 0.5 0.5
vt 1 1
vt 1 0.5
vt 0.5 0
vt 0.5 0.75
vt 1 0.75
vt 0.5 0
vt 1 0.75
vt 1 0
vt 0 0.75
vt 0.5 0.75
vt 0.5 0
vt 0 0.75
vt 0.5 0
vt 0 0
vt 0 0.75
vt 0 1
vt 0.5 1
vt 0 0.75
vt 0.5 1
vt 0.5 0.75
vt 0.5 0.75
vt 0.5 1
vt 1 1
vt 0.5 0.75
vt 1 1
vt 1 0.75
vt 0 0
vt 0 1
vt 1 1
vt 0 0
vt 1 1
vt 1 0
vt 0 0
vt 0 1
vt 1 1
vt 0 0
vt 1 1
vt 1 0
vt 0 0
vt 0 1
vt 1 1
vt 0 0
vt 1 1
vt 1 0
vt 0 0
vt 0 1
vt 1 1
vt 0 0
vt 1 1
vt 1 0
vt 0 0
vt 0 1
vt 1 1
vt 0 0
vt 1 1
vt 1 0
vt 0 0
vt 0 1
vt 1 1
vt 0 0
vt 1 1
vt 1 0
vt 0 0
vt 1 0
vt 1 1
vt 0 0
vt 1 1
vt 0 1
vt 0 0
vt 1 0
vt 1 1
vt 0 0
vt 1 1
vt 0 1
vt 0 0
vt 1 0
vt 1 1
vt 0 0
vt 1 1
vt 0 1
vt 0 0
vt 1 0
vt 1 1
vt 0 0
vt 1 1
vt 0 1
vt 0 0
vt 0 1
vt 1 1
vt 0 0
vt 1 1
vt 1 0
vt 0 0
vt 0 1
vt 1 1
vt 0 0
vt 1 1
vt 1 0
vt 0 0
vt 1 0
vt 1 1
vt 0 0
vt 1 1
vt 0 1
vt 0.5 0.75
vt 0.5 1
vt 1 1
vt 0.5 0.75
vt 1 1
vt 1 0.75
vt 0.5 0.75
vt 1 0.75
vt 1 1
vt 0.5 0.75
vt 1 1
vt 0.5 1
vt 0 0.75
vt 0.5 0.75
vt 0.5 1
vt 0 0.75
vt 0.5 1
vt 0 1
vt 0 0
vt 1 0
vt 1 1
vt 0 0
vt 1 1
vt 0 1
vt 0.5 0.75
vt 1 0.75
vt 1 1
vt 0.5 0.75
vt 1 1
vt 0.5 1
vt 0 0
vt 1 0
vt 1 1
vt 0 0
vt 1 1
vt 0 1
vt 0 0.75
vt 0.5 0.75
vt 0.5 1
vt 0 0.75
vt 0.5 1
vt 0 1
vt 0 0
vt 1 0
vt 1 1
vt 0 0
vt 1 1
vt 0 1
vt 0 0.75
vt 0 1
vt 0.5 1
vt 0 0.75
vt 0.5 1
vt 0.5 0.75
vt 0 0
vt 0 1
vt 1 1
vt 0 0
vt 1 1
vt 1 0
vt 0.5 0.75
vt 0.5 1
vt 1 1
vt 0.5 0.75
vt 1 1
vt 1 0.75
vt 0 0
vt 0 1
vt 1 1
vt 0 0
vt 1 1
vt 1 0
vt 0 0
vt 0 0.75
vt 0.5 0.75
vt 0 0
vt 0.5 0.75
vt 0.5 0
vt 0.5 0
vt 0.5 0.75
vt 1 0.75
vt 0.5 0
vt 1 0.75
vt 1 0
vt 0 0.5
vt 0 1
vt 0.5 1
vt 0 0.5
vt 0.5 1
vt 0.5 0.5
vt 0 0.5
vt 0.5 0.5
vt 0.5 1
vt 0 0.5
vt 0.5 1
vt 0 1
vt 0 0
vt 0.5 0
vt 0.5 0.75
vt 0 0
vt 0.5 0.75
vt 0 0.75
vt 0.5 0.5
vt 1 0.5
vt 1 1
vt 0.5 0.5
vt 1 1
vt 0.5 1
vt 0.5 0
vt 1 0
vt 1 0.75
vt 0.5 0
vt 1 0.75
vt 0.5 0.75
vt 0 0.5
vt 0.5 0.5
vt 0.5 1
vt 0 0.5
vt 0.5 1
vt 0 1
vt 0 0.75
vt 0 0
vt 0.5 0
vt 0 0.75
vt 0.5 0
vt 0.5 0.75
vt 0.5 0.5
vt 1 0.5
vt 1 1
vt 0.5 0.5
vt 1 1
vt 0.5 1
vt 0.5 0
vt 1 0
vt 1 0.75
vt 0.5 0
vt 1 0.75
vt 0.5 0.75
vt 0.5 0
vt 0.5 0.75
vt 1 0.75
vt 0.5 0
vt 1 0.75
vt 1 0
vt 0.5 0.5
vt 0.5 1
vt 1 1
vt 0.5 0.5
vt 1 1
vt 1 0.5
vt 0.5 0
vt 0.5 0.5
vt 1 0.5
vt 0.5 0
vt 1 0.5
vt 1 0
vt 0.5 0
vt 1 0
vt 1 0.5
vt 0.5 0
vt 1 0.5
vt 0.5 0.5
vt 0 0
vt 0.5 0
vt 0.5 0.5
vt 0 0
vt 0.5 0.5
vt 0 0.5
vt 0 0
vt 0.5 0
vt 0.5 0.5
vt 0 0
vt 0.5 0.5
vt 0 0.5
vt 0.5 0
vt 1 0
vt 1 0.5
vt 0.5 0
vt 1 0.5
vt 0.5 0.5
vt 0 0
vt 0 0.5
vt 0.5 0.5
vt 0 0
vt 0.5 0.5
vt 0.5 0
vt 0.5 0
vt 0.5 0.5
vt 1 0.5
vt 0.5 0
vt 1 0.5
vt 1 0
vt 0 0
vt 0 0.5
vt 0.5 0.5
vt 0 0
vt 0.5 0.5
vt 0.5 0
vt 0.5 0.5
vt 0.5 1
vt 1 1
vt 0.5 0.5
vt 1 1
vt 1 0.5
vt 0 0.5
vt 0 1
vt 0.5 1
vt 0 0.5
vt 0.5 1
vt 0.5 0.5
vt 0.5 0
vt 0.5 0.75
vt 1 0.75
vt 0.5 0
vt 1 0.75
vt 1 0
vt 0 0.75
vt 0.5 0.75
vt 0.5 0
vt 0 0.75
vt 0.5 0
vt 0 0
vt 0.5 0.75
vt 0.5 1
vt 1 1
vt 0.5 0.75
vt 1 1
vt 1 0.75
vt 0 0.75
vt 0 1
vt 0.5 1
vt 0 0.75
vt 0.5 1
vt 0.5 0.75
vt 0 0
vt 0 1
vt 1 1
vt 0 0
vt 1 1
vt 1 0
vt 0 0
vt 0 1
vt 1 1
vt 0 0
vt 1 1
vt 1 0
vt 0 0
vt 0 1
vt 1 1
vt 0 0
vt 1 1
vt 1 0
vt 0 0
vt 0 1
vt 1 1
vt 0 0
vt 1 1
vt 1 0
vt 0 0
vt 0 1
vt 1 1
vt 0 0
vt 1 1
vt 1 0
vt 0 0
vt 1 0
vt 1 1
vt 0 0
vt 1 1
vt 0 1
vt 0 0
vt 1 0
vt 1 1
vt 0 0
vt 1 1
vt 0 1
vt 0 0
vt 1 0
vt 1 1
vt 0 0
vt 1 1
vt 0 1
vt 0 0
vt 1 0
vt 1 1
vt 0 0
vt 1 1
vt 0 1
vt 0 0
vt 1 0
vt 1 1
vt 0 0
vt 1 1
vt 0 1
vt 0 0
vt 1 0
vt 1 1
vt 0 0
vt 1 1
vt 0 1
vt 0 0.75
vt 0.5 0.75
vt 0.5 1
vt 0 0.75
vt 0.5 1
vt 0 1
vt 0.5 0.75
vt 1 0.75
vt 1 1
vt 0.5 0.75
vt 1 1
vt 0.5 1
vt 0.5 0.75
vt 1 0.75
vt 1 1
vt 0.5 0.75
vt 1 1
vt 0.5 1
vt 0 0
vt 1 0
vt 1 1
vt 0 0
vt 1 1
vt 0 1
vt 0 0.75
vt 0.5 0.75
vt 0.5 1
vt 0 0.75
vt 0.5 1
vt 0 1
vt 0 0
vt 1 0
vt 1 1
vt 0 0
vt 1 1
vt 0 1
vt 0 0.75
vt 0 1
vt 0.5 1
vt 0 0.75
vt 0.5 1
vt 0.5 0.75
vt 0 0
vt 0 1
vt 1 1
vt 0 0
vt 1 1
vt 1 0
vt 0 0
vt 0 0.75
vt 0.5 0.75
vt 0 0
vt 0.5 0.75
vt 0.5 0
vt 0 0
vt 0.5 0
vt 0.5 0.75
vt 0 0
vt 0.5 0.75
vt 0 0.75
vt 0 0.5
vt 0 1
vt 0.5 1
vt 0 0.5
vt 0.5 1
vt 0.5 0.5
vt 0 0.5
vt 0.5 0.5
vt 0.5 1
vt 0 0.5
vt 0.5 1
vt 0 1
vt 0.5 0.5
vt 1 0.5
vt 1 1
vt 0.5 0.5
vt 1 1
vt 0.5 1
vt 0.5 0
vt 1 0
vt 1 0.75
vt 0.5 0
vt 1 0.75
vt 0.5 0.75
vt 0 0.5
vt 0.5 0.5
vt 0.5 1
vt 0 0.5
vt 0.5 1
vt 0 1
vt 0 0.75
vt 0 0
vt 0.5 0
vt 0 0.75
vt 0.5 0
vt 0.5 0.75
vt 0.5 0.5
vt 1 0.5
vt 1 1
vt 0.5 0.5
vt 1 1
vt 0.5 1
vt 0.5 0
vt 1 0
vt 1 0.75
vt 0.5 0
vt 1 0.75
vt 0.5 0.75
vt 0.5 0
vt 1 0
vt 1 0.5
vt 0.5 0
vt 1 0.5
vt 0.5 0.5
vt 0 0
vt 0.5 0
vt 0.5 0.5
vt 0 0
vt 0.5 0.5
vt 0 0.5
vt 0.5 0
vt 1 0
vt 1 0.5
vt 0.5 0
vt 1 0.5
vt 0.5 0.5
vt 0 0
vt 0.5 0
vt 0.5 0.5
vt 0 0
vt 0.5 0.5
vt 0 0.5
vt 0 0
vt 0 0.5
vt 0.5 0.5
vt 0 0
vt 0.5 0.5
vt 0.5 0
s off
f 1/1/1 2/2/2 3/3/3
f 4/4/4 5/5/5 6/6/6
f 7/7/7 8/8/8 9/9/9
f 10/10/10 11/11/11 12/12/12
f 13/13/13 14/14/14 15/15/15
f 16/16/16 17/17/17 18/18/18
f 19/19/19 20/20/20 21/21/21
f 22/22/22 23/23/23 24/24/24
f 25/25/25 26/26/26 27/27/27
f 28/28/28 29/29/29 30/30/30
f 31/31/31 32/32/32 33/33/33
f 34/34/34 35/35/35 36/36/36
f 37/37/37 38/38/38 39/39/39
f 40/40/40 41/41/41 42/42/42
f 43/43/43 44/44/44 45/45/45
f 46/46/46 47/47/47 48/48/48
f 49/49/49 50/50/50 51/51/51
f 52/52/52 53/53/53 54/54/54
f 55/55/55 56/56/56 57/57/57
f 58/58/58 59/59/59 60/60/60
f 61/61/61 62/62/62 63/63/63
f 64/64/64 65/65/65 66/66/66
f 67/67/67 68/68/68 69/69/69
f 70/70/70 71/71/71 72/72/72
f 73/73/73 74/74/74 75/75/75
f 76/76/76 77/77/77 78/78/78
f 79/79/79 80/80/80 81/81/81
f 82/82/82 83/83/83 84/84/84
f 85/85/85 86/86/86 87/87/87
f 88/88/88 89/89/89 90/90/90
f 91/91/91 92/92/92 93/93/93
f 94/94/94 95/95/95 96/96/96
f 97/97/97 98/98/98 99/99/99
f 100/100/100 101/101/101 102/102/102
f 103/103/103 104/104/104 105/105/105
f 106/106/106 107/107/107 108/108/108
f 109/109/109 110/110/110 111/111/111
f 112/112/112 113/113/113 114/114/114
f 115/115/115 116/116/116 117/117/117
f 118/118/118 119/119/119 120/120/120
f 121/121/121 122/122/122 123/123/123
f 124/124/124 125/125/125 126/126/126
f 127/127/127 128/128/128 129/129/129
f 130/130/130 131/131/131 132/132/132
f 133/133/133 134/134/134 135/135/135
f 136/136/136 137/137/137 138/138/138
f 139/139/139 140/140/140 141/141/141
f 142/142/142 143/143/143 144/144/144
f 145/145/145 146/146/146 147/147/147
f 148/148/148 149/149/149 150/150/150
f 151/151/151 152/152/152 153/153/153
f 154/154/154 155/155/155 156/156/156
f 157/157/157 158/158/158 159/159/159
f 160/160/160 161/161/161 162/162/162
f 163/163/163 164/164/164 165/165/165
f 166/166/166 167/167/167 168/168/168
f 169/169/169 170/170/170 171/171/171
f 172/172/172 173/173/173 174/174/174
f 175/175/175 176/176/176 177/177/177
f 178/178/178 179/179/179 180/180/180
f 181/181/181 182/182/182 183/183/183
f 184/184/184 185/185/185 186/186/186
f 187/187/187 188/188/188 189/189/189
f 190/190/190 191/191/191 192/192/192
f 193/193/193 194/194/194 195/195/195
f 196/196/196 197/197/197 198/198/198
f 199/199/199 200/200/200 201/201/201
f 202/202/202 203/203/203 204/204/204
f 205/205/205 206/206/206 207/207/207
f 208/208/208 209/209/209 210/210/210
f 211/211/211 212/212/212 213/213/213
f 214/214/214 215/215/215 216/216/216
f 217/217/217 218/218/218 219/219/219
f 220/220/220 221/221/221 222/222/222
f 223/223/223 224/224/224 225/225/225
f 226/226/226 227/227/227 228/228/228
f 229/229/229 230/230/230 231/231/231
f 232/232/232 233/233/233 234/234/234
f 235/235/235 236/236/236 237/237/237
f 238/238/238 239/239/239 240/240/240
f 241/241/241 242/242/242 243/243/243
f 244/244/244 245/245/245 246/246/246
f 247/247/247 248/248/248 249/249/249
f 250/250/250 251/251/251 252/252/252
f 253/253/253 254/254/254 255/255/255
f 256/256/256 257/257/257 258/258/258
f 259/259/259 260/260/260 261/261/261
f 262/262/262 263/263/263 264/264/264
f 265/265/265 266/266/266 267/267/267
f 268/268/268 269/269/269 270/270/270
f 271/271/271 272/272/272 273/273/273
f 274/274/274 275/275/275 276/276/276
f 277/277/277 278/278/278 279/279/279
f 280/280/280 281/281/281 282/282/282
f 283/283/283 284/284/284 285/285/285
f 286/286/286 287/287/287 288/288/288
f 289/289/289 290/290/290 291/291/291
f 292/292/292 293/293/293 294/294/294
f 295/295/295 296/296/296 297/297/297
f 298/298/298 299/299/299 300/300/300
f 301/301/301 302/302/302 303/303/303
f 304/304/304 305/305/305 306/306/306
f 307/307/307 308/308/308 309/309/309
f 310/310/310 311/311/311 312/312/312
f 313/313/313 314/314/314 315/315/315
f 316/316/316 317/317/317 318/318/318
f 319/319/319 320/320/320 321/321/321
f 322/322/322 323/323/323 324/324/324
f 325/325/325 326/326/326 327/327/327
f 328/328/328 329/329/329 330/330/330
f 331/331/331 332/332/332 333/333/333
f 334/334/334 335/335/335 336/336/336
f 337/337/337 338/338/338 339/339/339
f 340/340/340 341/341/341 342/342/342
f 343/343/343 344/344/344 345/345/345
f 346/346/346 347/347/347 348/348/348
f 349/349/349 350/350/350 351/351/351
f 352/352/352 353/353/353 354/354/354
f 355/355/355 356/356/356 357/357/357
f 358/358/358 359/359/359 360/360/360
f 361/361/361 362/362/362 363/363/363
f 364/364/364 365/365/365 366/366/366
f 367/367/367 368/368/368 369/369/369
f 370/370/370 371/371/371 372/372/372
f 373/373/373 374/374/374 375/375/375
f 376/376/376 377/377/377 378/378/378
f 379/379/379 380/380/380 381/381/381
f 382/382/382 383/383/383 384/384/384
f 385/385/385 386/386/386 387/387/387
f 388/388/388 389/389/389 390/390/390
f 391/391/391 392/392/392 393/393/393
f 394/394/394 395/395/395 396/396/396
f 397/397/397 398/398/398 399/399/399
f 400/400/400 401/401/401 402/402/402
f 403/403/403 404/404/404 405/405/405
f 406/406/406 407/407/407 408/408/408
f 409/409/409 410/410/410 411/411/411
f 412/412/412 413/413/413 414/414/414
f 415/415/415 416/416/416 417/417/417
f 418/418/418 419/419/419 420/420/420
f 421/421/421 422/422/422 423/423/423
f 424/424/424 425/425/425 426/426/426
f 427/427/427 428/428/428 429/429/429
f 430/430/430 431/431/431 432/432/432
f 433/433/433 434/434/434 435/435/435
f 436/436/436 437/437/437 438/438/438
f 439/439/439 440/440/440 441/441/441
f 442/442/442 443/443/443 444/444/444
f 445/445/445 446/446/446 447/447/447
f 448/448/448 449/449/449 450/450/450
f 451/451/451 452/452/452 453/453/453
f 454/454/454 455/455/455 456/456/456
f 457/457/457 458/458/458 459/459/459
f 460/460/460 461/461/461 462/462/462
f 463/463/463 464/464/464 465/465/465
f 466/466/466 467/467/467 468/468/468
f 469/469/469 470/470/470 471/471/471
f 472/472/472 473/473/473 474/474/474
f 475/475/475 476/476/476 477/477/477
f 478/478/478 479/479/479 480/480/480
f 481/481/481 482/482/482 483/483/483
f 484/484/484 485/485/485 486/486/486
f 487/487/487 488/488/488 489/489/489
f 490/490/490 491/491/491 492/492/492
f 493/493/493 494/494/494 495/495/495
f 496/496/496 497/497/497 498/498/498
f 499/499/499 500/500/500 501/501/501
f 502/502/502 503/503/503 504/504/504
f 505/505/505 506/506/506 507/507/507
f 508/508/508 509/509/509 510/510/510
f 511/511/511 512/512/512 513/513/513
f 514/514/514 515/515/515 516/516/516
f 517/517/517 518/518/518 519/519/519
f 520/520/520 521/521/521 522/522/522
f 523/523/523 524/524/524 525/525/525
f 526/526/526 527/527/527 528/528/528
f 529/529/529 530/530/530 531/531/531
f 532/532/532 533/533/533 534/534/534
f 535/535/535 536/536/536 537/537/537
f 538/538/538 539/539/539 540/540/540
f 541/541/541 542/542/542 543/543/543
f 544/544/544 545/545/545 546/546/546
f 547/547/547 548/548/548 549/549/549
f 550/550/550 551/551/551 552/552/552
f 553/553/553 554/554/554 555/555/555
f 556/556/556 557/557/557 558/558/558
f 559/559/559 560/560/560 561/561/561
f 562/562/562 563/563/563 564/564/564
f 565/565/565 566/566/566 567/567/567
f 568/568/568 569/569/569 570/570/570
f 571/571/571 572/572/572 573/573/573
f 574/574/574 575/575/575 576/576/576
