v 1e-06 0.158825 0.038617
v 0.035722 0.159928 0.036197
v 0.038296 0.158831 -7e-06
v 1e-06 0.158825 0.038617
v 0.038296 0.158831 -7e-06
v 1e-06 0.157363 -7e-06
v 1e-06 0.158825 0.038617
v 1e-06 0.157363 -7e-06
v -0.038297 0.158831 -7e-06
v 1e-06 0.158825 0.038617
v -0.038297 0.158831 -7e-06
v -0.035722 0.159928 0.036197
v 1e-06 0.158825 -0.038632
v -0.035722 0.159928 -0.036212
v -0.038297 0.158831 -7e-06
v 1e-06 0.158825 -0.038632
v -0.038297 0.158831 -7e-06
v 1e-06 0.157363 -7e-06
v 1e-06 0.158825 -0.038632
v 1e-06 0.157363 -7e-06
v 0.038296 0.158831 -7e-06
v 1e-06 0.158825 -0.038632
v 0.038296 0.158831 -7e-06
v 0.035722 0.159928 -0.036212
v 1e-06 0.164005 -0.080472
v 1e-06 0.158825 -0.038632
v 0.035722 0.159928 -0.036212
v 1e-06 0.164005 -0.080472
v 0.035722 0.159928 -0.036212
v 0.030329 0.164131 -0.074481
v 1e-06 0.164005 -0.080472
v -0.030329 0.164131 -0.074481
v -0.035722 0.159928 -0.036212
v 1e-06 0.164005 -0.080472
v -0.035722 0.159928 -0.036212
v 1e-06 0.158825 -0.038632
v 0.030329 0.164131 -0.074481
v 0.035722 0.159928 -0.036212
v 0.073583 0.164349 -0.031445
v 0.030329 0.164131 -0.074481
v 0.073583 0.164349 -0.031445
v 0.056237 0.164252 -0.057265
v 0.035722 0.159928 -0.036212
v 0.038296 0.158831 -7e-06
v 0.079729 0.164408 -8e-06
v 0.035722 0.159928 -0.036212
v 0.079729 0.164408 -8e-06
v 0.073583 0.164349 -0.031445
v 0.035722 0.159928 0.036197
v 0.073583 0.164349 0.03143
v 0.079729 0.164408 -8e-06
v 0.035722 0.159928 0.036197
v 0.079729 0.164408 -8e-06
v 0.038296 0.158831 -7e-06
v 0.030329 0.164131 0.074466
v 0.056237 0.164252 0.05725
v 0.073583 0.164349 0.03143
v 0.030329 0.164131 0.074466
v 0.073583 0.164349 0.03143
v 0.035722 0.159928 0.036197
v 1e-06 0.164005 0.080457
v 0.030329 0.164131 0.074466
v 0.035722 0.159928 0.036197
v 1e-06 0.164005 0.080457
v 0.035722 0.159928 0.036197
v 1e-06 0.158825 0.038617
v 1e-06 0.164005 0.080457
v 1e-06 0.158825 0.038617
v -0.035722 0.159928 0.036197
v 1e-06 0.164005 0.080457
v -0.035722 0.159928 0.036197
v -0.030329 0.164131 0.074466
v -0.030329 0.164131 0.074466
v -0.035722 0.159928 0.036197
v -0.073583 0.164349 0.03143
v -0.030329 0.164131 0.074466
v -0.073583 0.164349 0.03143
v -0.056237 0.164252 0.05725
v -0.035722 0.159928 0.036197
v -0.038297 0.158831 -7e-06
v -0.07973 0.164408 -8e-06
v -0.035722 0.159928 0.036197
v -0.07973 0.164408 -8e-06
v -0.073583 0.164349 0.03143
v -0.035722 0.159928 -0.036212
v -0.073583 0.164349 -0.031445
v -0.07973 0.164408 -8e-06
v -0.035722 0.159928 -0.036212
v -0.07973 0.164408 -8e-06
v -0.038297 0.158831 -7e-06
v -0.030329 0.164131 -0.074481
v -0.056237 0.164252 -0.057265
v -0.073583 0.164349 -0.031445
v -0.030329 0.164131 -0.074481
v -0.073583 0.164349 -0.031445
v -0.035722 0.159928 -0.036212
vn -0 0.997 -0.0779
vn -0.0723 0.995 -0.0682
vn -0.0828 0.9966 -0
vn -0 0.997 -0.0779
vn -0.0828 0.9966 -0
vn -0 1 -0
vn -0 0.997 -0.0779
vn -0 1 -0
vn 0.0829 0.9966 -0
vn -0 0.997 -0.0779
vn 0.0829 0.9966 -0
vn 0.0723 0.995 -0.0682
vn -0 0.997 0.0778
vn 0.0723 0.995 0.0682
vn 0.0829 0.9966 -0
vn -0 0.997 0.0778
vn 0.0829 0.9966 -0
vn -0 1 -0
vn -0 0.997 0.0778
vn -0 1 -0
vn -0.0828 0.9966 -0
vn -0 0.997 0.0778
vn -0.0828 0.9966 -0
vn -0.0723 0.995 0.0682
vn -0 0.9929 0.1186
vn -0 0.997 0.0778
vn -0.0723 0.995 0.0682
vn -0 0.9929 0.1186
vn -0.0723 0.995 0.0682
vn -0.0504 0.9922 0.1144
vn -0 0.9929 0.1186
vn 0.0504 0.9922 0.1144
vn 0.0723 0.995 0.0682
vn -0 0.9929 0.1186
vn 0.0723 0.995 0.0682
vn -0 0.997 0.0778
vn -0.0504 0.9922 0.1144
vn -0.0723 0.995 0.0682
vn -0.1219 0.9914 0.0478
vn -0.0504 0.9922 0.1144
vn -0.1219 0.9914 0.0478
vn -0.1051 0.9894 0.1006
vn -0.0723 0.995 0.0682
vn -0.0828 0.9966 -0
vn -0.127 0.9919 -0
vn -0.0723 0.995 0.0682
vn -0.127 0.9919 -0
vn -0.1219 0.9914 0.0478
vn -0.0723 0.995 -0.0682
vn -0.1219 0.9914 -0.0478
vn -0.127 0.9919 -0
vn -0.0723 0.995 -0.0682
vn -0.127 0.9919 -0
vn -0.0828 0.9966 -0
vn -0.0504 0.9922 -0.1144
vn -0.1052 0.9894 -0.1006
vn -0.1219 0.9914 -0.0478
vn -0.0504 0.9922 -0.1144
vn -0.1219 0.9914 -0.0478
vn -0.0723 0.995 -0.0682
vn -0 0.9929 -0.1186
vn -0.0504 0.9922 -0.1144
vn -0.0723 0.995 -0.0682
vn -0 0.9929 -0.1186
vn -0.0723 0.995 -0.0682
vn -0 0.997 -0.0779
vn -0 0.9929 -0.1186
vn -0 0.997 -0.0779
vn 0.0723 0.995 -0.0682
vn -0 0.9929 -0.1186
vn 0.0723 0.995 -0.0682
vn 0.0504 0.9922 -0.1144
vn 0.0504 0.9922 -0.1144
vn 0.0723 0.995 -0.0682
vn 0.1219 0.9914 -0.0478
vn 0.0504 0.9922 -0.1144
vn 0.1219 0.9914 -0.0478
vn 0.1051 0.9894 -0.1006
vn 0.0723 0.995 -0.0682
vn 0.0829 0.9966 -0
vn 0.127 0.9919 -0
vn 0.0723 0.995 -0.0682
vn 0.127 0.9919 -0
vn 0.1219 0.9914 -0.0478
vn 0.0723 0.995 0.0682
vn 0.1219 0.9914 0.0478
vn 0.127 0.9919 -0
vn 0.0723 0.995 0.0682
vn 0.127 0.9919 -0
vn 0.0829 0.9966 -0
vn 0.0504 0.9922 0.1144
vn 0.1052 0.9894 0.1006
vn 0.1219 0.9914 0.0478
vn 0.0504 0.9922 0.1144
vn 0.1219 0.9914 0.0478
vn 0.0723 0.995 0.0682
vt 0.500365 0.314401
vt 0.575683 0.301278
vt 0.588297 0.331343
vt 0.500365 0.314401
vt 0.588297 0.331343
vt 0.500426 0.353713
vt 0.500365 0.314401
vt 0.500426 0.353713
vt 0.588297 0.331343
vt 0.500365 0.314401
vt 0.588297 0.331343
vt 0.575683 0.301278
vt 0.500365 0.314401
vt 0.575683 0.301278
vt 0.588297 0.331343
vt 0.500365 0.314401
vt 0.588297 0.331343
vt 0.500426 0.353713
vt 0.500365 0.314401
vt 0.500426 0.353713
vt 0.588297 0.331343
vt 0.500365 0.314401
vt 0.588297 0.331343
vt 0.575683 0.301278
vt 0.500244 0.284092
vt 0.500365 0.314401
vt 0.575683 0.301278
vt 0.500244 0.284092
vt 0.575683 0.301278
vt 0.558268 0.280326
vt 0.500244 0.284092
vt 0.558268 0.280326
vt 0.575683 0.301278
vt 0.500244 0.284092
vt 0.575683 0.301278
vt 0.500365 0.314401
vt 0.558268 0.280326
vt 0.575683 0.301278
vt 0.636963 0.278692
vt 0.558268 0.280326
vt 0.636963 0.278692
vt 0.603461 0.2735
vt 0.575683 0.301278
vt 0.588297 0.331343
vt 0.65979 0.297386
vt 0.575683 0.301278
vt 0.65979 0.297386
vt 0.636963 0.278692
vt 0.575683 0.301278
vt 0.636963 0.278692
vt 0.65979 0.297386
vt 0.575683 0.301278
vt 0.65979 0.297386
vt 0.588297 0.331343
vt 0.558268 0.280326
vt 0.603461 0.2735
vt 0.636963 0.278692
vt 0.558268 0.280326
vt 0.636963 0.278692
vt 0.575683 0.301278
vt 0.500244 0.284092
vt 0.558268 0.280326
vt 0.575683 0.301278
vt 0.500244 0.284092
vt 0.575683 0.301278
vt 0.500365 0.314401
vt 0.500244 0.284092
vt 0.500365 0.314401
vt 0.575683 0.301278
vt 0.500244 0.284092
vt 0.575683 0.301278
vt 0.558268 0.280326
vt 0.558268 0.280326
vt 0.575683 0.301278
vt 0.636963 0.278692
vt 0.558268 0.280326
vt 0.636963 0.278692
vt 0.603461 0.2735
vt 0.575683 0.301278
vt 0.588297 0.331343
vt 0.65979 0.297386
vt 0.575683 0.301278
vt 0.65979 0.297386
vt 0.636963 0.278692
vt 0.575683 0.301278
vt 0.636963 0.278692
vt 0.65979 0.297386
vt 0.575683 0.301278
vt 0.65979 0.297386
vt 0.588297 0.331343
vt 0.558268 0.280326
vt 0.603461 0.2735
vt 0.636963 0.278692
vt 0.558268 0.280326
vt 0.636963 0.278692
vt 0.575683 0.301278
s off
f 1/1/1 2/2/2 3/3/3
f 4/4/4 5/5/5 6/6/6
f 7/7/7 8/8/8 9/9/9
f 10/10/10 11/11/11 12/12/12
f 13/13/13 14/14/14 15/15/15
f 16/16/16 17/17/17 18/18/18
f 19/19/19 20/20/20 21/21/21
f 22/22/22 23/23/23 24/24/24
f 25/25/25 26/26/26 27/27/27
f 28/28/28 29/29/29 30/30/30
f 31/31/31 32/32/32 33/33/33
f 34/34/34 35/35/35 36/36/36
f 37/37/37 38/38/38 39/39/39
f 40/40/40 41/41/41 42/42/42
f 43/43/43 44/44/44 45/45/45
f 46/46/46 47/47/47 48/48/48
f 49/49/49 50/50/50 51/51/51
f 52/52/52 53/53/53 54/54/54
f 55/55/55 56/56/56 57/57/57
f 58/58/58 59/59/59 60/60/60
f 61/61/61 62/62/62 63/63/63
f 64/64/64 65/65/65 66/66/66
f 67/67/67 68/68/68 69/69/69
f 70/70/70 71/71/71 72/72/72
f 73/73/73 74/74/74 75/75/75
f 76/76/76 77/77/77 78/78/78
f 79/79/79 80/80/80 81/81/81
f 82/82/82 83/83/83 84/84/84
f 85/85/85 86/86/86 87/87/87
f 88/88/88 89/89/89 90/90/90
f 91/91/91 92/92/92 93/93/93
f 94/94/94 95/95/95 96/96/96
