# Blender 5.2.0 LTS
# www.blender.org
mtllib thumbstick_left.mtl
o thumbstick_right
v -0.022557 0.111372 -0.058267
v -0.022490 0.093158 -0.058316
v -0.042661 0.093210 -0.045208
v -0.042718 0.111456 -0.045139
v -0.042718 0.111456 -0.045139
v -0.042661 0.093210 -0.045208
v -0.056281 0.093299 -0.025378
v -0.056322 0.111584 -0.025295
v -0.022490 0.093158 -0.058316
v -0.022721 0.074834 -0.058649
v -0.042943 0.074916 -0.045423
v -0.042661 0.093210 -0.045208
v -0.042661 0.093210 -0.045208
v -0.042943 0.074916 -0.045423
v -0.056564 0.075013 -0.025466
v -0.056281 0.093299 -0.025378
v -0.056322 0.111584 -0.025295
v -0.056281 0.093299 -0.025378
v -0.061275 0.093413 0.000001
v -0.061295 0.111735 0.000001
v -0.056281 0.093299 -0.025378
v -0.056564 0.075013 -0.025466
v -0.061510 0.075108 0.000001
v -0.061275 0.093413 0.000001
v -0.056564 0.075013 -0.025466
v -0.080157 0.067589 -0.035169
v -0.087375 0.067810 0.000001
v -0.061510 0.075108 0.000001
v -0.061079 0.067172 -0.063443
v -0.080157 0.067589 -0.035169
v -0.056564 0.075013 -0.025466
v -0.042943 0.074916 -0.045423
v -0.061079 0.067172 -0.063443
v -0.077347 0.046787 -0.079754
v -0.101716 0.047311 -0.043986
v -0.080157 0.067589 -0.035169
v -0.080157 0.067589 -0.035169
v -0.101716 0.047311 -0.043986
v -0.111051 0.047582 0.000001
v -0.087375 0.067810 0.000001
v -0.101716 0.047311 -0.043986
v -0.113088 0.023719 -0.048905
v -0.123467 0.024020 0.000001
v -0.111051 0.047582 0.000001
v -0.077347 0.046787 -0.079754
v -0.085995 0.023136 -0.088673
v -0.113088 0.023719 -0.048905
v -0.101716 0.047311 -0.043986
v -0.113088 0.023719 -0.048905
v -0.119032 -0.003020 -0.051476
v -0.129957 -0.002704 0.000001
v -0.123467 0.024020 0.000001
v -0.085995 0.023136 -0.088673
v -0.090515 -0.003634 -0.093334
v -0.119032 -0.003020 -0.051476
v -0.113088 0.023719 -0.048905
v -0.045858 0.022887 -0.114425
v -0.048268 -0.003896 -0.120440
v -0.090515 -0.003634 -0.093334
v -0.085995 0.023136 -0.088673
v 0.000001 0.022516 -0.123491
v 0.000001 -0.004287 -0.129982
v -0.048268 -0.003896 -0.120440
v -0.045858 0.022887 -0.114425
v 0.000001 0.022516 -0.123491
v 0.045857 0.022887 -0.114425
v 0.048268 -0.003896 -0.120440
v 0.000001 -0.004287 -0.129982
v 0.045857 0.022887 -0.114425
v 0.085995 0.023136 -0.088673
v 0.090515 -0.003634 -0.093334
v 0.048268 -0.003896 -0.120440
v 0.085995 0.023136 -0.088673
v 0.113088 0.023719 -0.048905
v 0.119033 -0.003020 -0.051476
v 0.090515 -0.003634 -0.093334
v 0.113088 0.023719 -0.048905
v 0.123468 0.024020 0.000001
v 0.129957 -0.002704 0.000001
v 0.119033 -0.003020 -0.051476
v 0.113088 0.023719 0.048907
v 0.119033 -0.003020 0.051478
v 0.129957 -0.002704 0.000001
v 0.123468 0.024020 0.000001
v 0.101716 0.047311 0.043988
v 0.113088 0.023719 0.048907
v 0.123468 0.024020 0.000001
v 0.111051 0.047582 0.000001
v 0.101716 0.047311 -0.043986
v 0.111051 0.047582 0.000001
v 0.123468 0.024020 0.000001
v 0.113088 0.023719 -0.048905
v 0.080157 0.067589 0.035171
v 0.101716 0.047311 0.043988
v 0.111051 0.047582 0.000001
v 0.087375 0.067810 0.000001
v 0.080157 0.067589 -0.035169
v 0.087375 0.067810 0.000001
v 0.111051 0.047582 0.000001
v 0.101716 0.047311 -0.043986
v 0.061078 0.067172 -0.063443
v 0.080157 0.067589 -0.035169
v 0.101716 0.047311 -0.043986
v 0.077347 0.046787 -0.079754
v 0.077347 0.046787 -0.079754
v 0.101716 0.047311 -0.043986
v 0.113088 0.023719 -0.048905
v 0.085995 0.023136 -0.088673
v 0.032559 0.067145 -0.081626
v 0.061078 0.067172 -0.063443
v 0.077347 0.046787 -0.079754
v 0.041247 0.046563 -0.102917
v 0.041247 0.046563 -0.102917
v 0.077347 0.046787 -0.079754
v 0.085995 0.023136 -0.088673
v 0.045857 0.022887 -0.114425
v 0.000001 0.067006 -0.087972
v 0.032559 0.067145 -0.081626
v 0.041247 0.046563 -0.102917
v 0.000001 0.046229 -0.111071
v 0.000001 0.046229 -0.111071
v 0.041247 0.046563 -0.102917
v 0.045857 0.022887 -0.114425
v 0.000001 0.022516 -0.123491
v 0.000001 0.067006 -0.087972
v 0.000001 0.046229 -0.111071
v -0.041247 0.046563 -0.102917
v -0.032559 0.067145 -0.081626
v 0.000001 0.046229 -0.111071
v 0.000001 0.022516 -0.123491
v -0.045858 0.022887 -0.114425
v -0.041247 0.046563 -0.102917
v -0.032559 0.067145 -0.081626
v -0.041247 0.046563 -0.102917
v -0.077347 0.046787 -0.079754
v -0.061079 0.067172 -0.063443
v -0.041247 0.046563 -0.102917
v -0.045858 0.022887 -0.114425
v -0.085995 0.023136 -0.088673
v -0.077347 0.046787 -0.079754
v 0.000001 0.074779 -0.063130
v 0.000001 0.067006 -0.087972
v -0.032559 0.067145 -0.081626
v -0.022721 0.074834 -0.058649
v -0.022721 0.074834 -0.058649
v -0.032559 0.067145 -0.081626
v -0.061079 0.067172 -0.063443
v -0.042943 0.074916 -0.045423
v 0.000001 0.093151 -0.062707
v 0.000001 0.074779 -0.063130
v -0.022721 0.074834 -0.058649
v -0.022490 0.093158 -0.058316
v 0.000001 0.093151 -0.062707
v 0.022491 0.093158 -0.058316
v 0.022722 0.074834 -0.058649
v 0.000001 0.074779 -0.063130
v 0.000001 0.074779 -0.063130
v 0.022722 0.074834 -0.058649
v 0.032559 0.067145 -0.081626
v 0.000001 0.067006 -0.087972
v 0.022491 0.093158 -0.058316
v 0.042661 0.093210 -0.045208
v 0.042944 0.074916 -0.045423
v 0.022722 0.074834 -0.058649
v 0.022722 0.074834 -0.058649
v 0.042944 0.074916 -0.045423
v 0.061078 0.067172 -0.063443
v 0.032559 0.067145 -0.081626
v 0.042661 0.093210 -0.045208
v 0.056280 0.093299 -0.025378
v 0.056564 0.075013 -0.025466
v 0.042944 0.074916 -0.045423
v 0.061078 0.067172 -0.063443
v 0.042944 0.074916 -0.045423
v 0.056564 0.075013 -0.025466
v 0.080157 0.067589 -0.035169
v 0.056280 0.093299 -0.025378
v 0.061274 0.093413 0.000001
v 0.061511 0.075108 0.000001
v 0.056564 0.075013 -0.025466
v 0.056564 0.075013 -0.025466
v 0.061511 0.075108 0.000001
v 0.087375 0.067810 0.000001
v 0.080157 0.067589 -0.035169
v 0.056564 0.075013 0.025468
v 0.080157 0.067589 0.035171
v 0.087375 0.067810 0.000001
v 0.061511 0.075108 0.000001
v 0.056280 0.093299 0.025381
v 0.056564 0.075013 0.025468
v 0.061511 0.075108 0.000001
v 0.061274 0.093413 0.000001
v 0.056322 0.111584 0.025297
v 0.056280 0.093299 0.025381
v 0.061274 0.093413 0.000001
v 0.061295 0.111735 0.000001
v 0.056322 0.111584 -0.025295
v 0.061295 0.111735 0.000001
v 0.061274 0.093413 0.000001
v 0.056280 0.093299 -0.025378
v 0.042719 0.111456 -0.045139
v 0.056322 0.111584 -0.025295
v 0.056280 0.093299 -0.025378
v 0.042661 0.093210 -0.045208
v 0.000001 0.111344 -0.062681
v 0.022558 0.111372 -0.058267
v 0.022491 0.093158 -0.058316
v 0.000001 0.093151 -0.062707
v 0.022558 0.111372 -0.058267
v 0.042719 0.111456 -0.045139
v 0.042661 0.093210 -0.045208
v 0.022491 0.093158 -0.058316
v 0.000001 0.111344 -0.062681
v 0.000001 0.093151 -0.062707
v -0.022490 0.093158 -0.058316
v -0.022557 0.111372 -0.058267
v 0.022558 0.111372 0.058269
v 0.022491 0.093158 0.058318
v 0.042661 0.093210 0.045210
v 0.042719 0.111456 0.045141
v 0.042719 0.111456 0.045141
v 0.042661 0.093210 0.045210
v 0.056280 0.093299 0.025381
v 0.056322 0.111584 0.025297
v 0.022491 0.093158 0.058318
v 0.022722 0.074834 0.058651
v 0.042944 0.074916 0.045425
v 0.042661 0.093210 0.045210
v 0.042661 0.093210 0.045210
v 0.042944 0.074916 0.045425
v 0.056564 0.075013 0.025468
v 0.056280 0.093299 0.025381
v 0.022722 0.074834 0.058651
v 0.032559 0.067145 0.081629
v 0.061078 0.067172 0.063445
v 0.042944 0.074916 0.045425
v 0.061078 0.067172 0.063445
v 0.080157 0.067589 0.035171
v 0.056564 0.075013 0.025468
v 0.042944 0.074916 0.045425
v 0.032559 0.067145 0.081629
v 0.041247 0.046563 0.102919
v 0.077347 0.046787 0.079757
v 0.061078 0.067172 0.063445
v 0.061078 0.067172 0.063445
v 0.077347 0.046787 0.079757
v 0.101716 0.047311 0.043988
v 0.080157 0.067589 0.035171
v 0.041247 0.046563 0.102919
v 0.045857 0.022887 0.114428
v 0.085995 0.023136 0.088675
v 0.077347 0.046787 0.079757
v 0.077347 0.046787 0.079757
v 0.085995 0.023136 0.088675
v 0.113088 0.023719 0.048907
v 0.101716 0.047311 0.043988
v 0.045857 0.022887 0.114428
v 0.048268 -0.003896 0.120443
v 0.090515 -0.003634 0.093336
v 0.085995 0.023136 0.088675
v 0.085995 0.023136 0.088675
v 0.090515 -0.003634 0.093336
v 0.119033 -0.003020 0.051478
v 0.113088 0.023719 0.048907
v 0.000001 0.022516 0.123493
v 0.000001 -0.004287 0.129984
v 0.048268 -0.003896 0.120443
v 0.045857 0.022887 0.114428
v 0.000001 0.022516 0.123493
v -0.045858 0.022887 0.114428
v -0.048268 -0.003896 0.120443
v 0.000001 -0.004287 0.129984
v -0.045858 0.022887 0.114428
v -0.085995 0.023136 0.088675
v -0.090515 -0.003634 0.093336
v -0.048268 -0.003896 0.120443
v -0.085995 0.023136 0.088675
v -0.113088 0.023719 0.048907
v -0.119032 -0.003020 0.051478
v -0.090515 -0.003634 0.093336
v -0.113088 0.023719 0.048907
v -0.123467 0.024020 0.000001
v -0.129957 -0.002704 0.000001
v -0.119032 -0.003020 0.051478
v -0.077347 0.046787 0.079757
v -0.101716 0.047311 0.043988
v -0.113088 0.023719 0.048907
v -0.085995 0.023136 0.088675
v -0.101716 0.047311 0.043988
v -0.111051 0.047582 0.000001
v -0.123467 0.024020 0.000001
v -0.113088 0.023719 0.048907
v -0.061079 0.067172 0.063445
v -0.080157 0.067589 0.035171
v -0.101716 0.047311 0.043988
v -0.077347 0.046787 0.079757
v -0.080157 0.067589 0.035171
v -0.087375 0.067810 0.000001
v -0.111051 0.047582 0.000001
v -0.101716 0.047311 0.043988
v -0.032559 0.067145 0.081629
v -0.061079 0.067172 0.063445
v -0.077347 0.046787 0.079757
v -0.041247 0.046563 0.102919
v -0.041247 0.046563 0.102919
v -0.077347 0.046787 0.079757
v -0.085995 0.023136 0.088675
v -0.045858 0.022887 0.114428
v 0.000001 0.067006 0.087974
v -0.032559 0.067145 0.081629
v -0.041247 0.046563 0.102919
v 0.000001 0.046229 0.111073
v 0.000001 0.046229 0.111073
v -0.041247 0.046563 0.102919
v -0.045858 0.022887 0.114428
v 0.000001 0.022516 0.123493
v 0.000001 0.067006 0.087974
v 0.000001 0.046229 0.111073
v 0.041247 0.046563 0.102919
v 0.032559 0.067145 0.081629
v 0.000001 0.046229 0.111073
v 0.000001 0.022516 0.123493
v 0.045857 0.022887 0.114428
v 0.041247 0.046563 0.102919
v 0.000001 0.074779 0.063132
v 0.000001 0.067006 0.087974
v 0.032559 0.067145 0.081629
v 0.022722 0.074834 0.058651
v 0.000001 0.074779 0.063132
v -0.022721 0.074834 0.058651
v -0.032559 0.067145 0.081629
v 0.000001 0.067006 0.087974
v 0.000001 0.093151 0.062710
v 0.000001 0.074779 0.063132
v 0.022722 0.074834 0.058651
v 0.022491 0.093158 0.058318
v 0.000001 0.093151 0.062710
v -0.022490 0.093158 0.058318
v -0.022721 0.074834 0.058651
v 0.000001 0.074779 0.063132
v -0.022490 0.093158 0.058318
v -0.042661 0.093210 0.045210
v -0.042943 0.074916 0.045425
v -0.022721 0.074834 0.058651
v -0.022721 0.074834 0.058651
v -0.042943 0.074916 0.045425
v -0.061079 0.067172 0.063445
v -0.032559 0.067145 0.081629
v -0.042661 0.093210 0.045210
v -0.056281 0.093299 0.025381
v -0.056564 0.075013 0.025468
v -0.042943 0.074916 0.045425
v -0.061079 0.067172 0.063445
v -0.042943 0.074916 0.045425
v -0.056564 0.075013 0.025468
v -0.080157 0.067589 0.035171
v -0.056281 0.093299 0.025381
v -0.061275 0.093413 0.000001
v -0.061510 0.075108 0.000001
v -0.056564 0.075013 0.025468
v -0.056564 0.075013 0.025468
v -0.061510 0.075108 0.000001
v -0.087375 0.067810 0.000001
v -0.080157 0.067589 0.035171
v -0.056322 0.111584 0.025297
v -0.061295 0.111735 0.000001
v -0.061275 0.093413 0.000001
v -0.056281 0.093299 0.025381
v -0.042718 0.111456 0.045141
v -0.056322 0.111584 0.025297
v -0.056281 0.093299 0.025381
v -0.042661 0.093210 0.045210
v -0.022557 0.111372 0.058269
v -0.042718 0.111456 0.045141
v -0.042661 0.093210 0.045210
v -0.022490 0.093158 0.058318
v 0.000001 0.111344 0.062683
v -0.022557 0.111372 0.058269
v -0.022490 0.093158 0.058318
v 0.000001 0.093151 0.062710
v 0.000001 0.111344 0.062683
v 0.000001 0.093151 0.062710
v 0.022491 0.093158 0.058318
v 0.022558 0.111372 0.058269
vn -0.3807 0.0013 -0.9247
vn -0.3795 0.0113 -0.9251
vn -0.6982 0.0098 -0.7158
vn -0.6991 0.0005 -0.7150
vn -0.6993 0.0005 -0.7149
vn -0.6984 0.0098 -0.7156
vn -0.9247 0.0078 -0.3805
vn -0.9253 -0.0006 -0.3794
vn -0.3804 0.0211 -0.9246
vn -0.6987 0.0192 -0.7152
vn -0.6989 0.0192 -0.7150
vn -0.9249 0.0163 -0.3799
vn -0.9254 -0.0006 -0.3791
vn -0.9248 0.0078 -0.3803
vn -1.0000 0.0067 -0.0001
vn -1.0000 -0.0012 -0.0002
vn -0.9249 0.0078 -0.3802
vn -0.9250 0.0163 -0.3797
vn -0.9999 0.0146 -0.0001
vn -0.2556 0.9601 -0.1134
vn -0.4929 0.8434 -0.2137
vn -0.5324 0.8465 -0.0001
vn -0.2745 0.9616 -0.0000
vn -0.3771 0.8376 -0.3952
vn -0.4929 0.8434 -0.2138
vn -0.1973 0.9574 -0.2107
vn -0.3773 0.8375 -0.3953
vn -0.5532 0.6040 -0.5737
vn -0.7296 0.6083 -0.3126
vn -0.4930 0.8433 -0.2139
vn -0.4931 0.8433 -0.2138
vn -0.7297 0.6083 -0.3124
vn -0.7916 0.6110 -0.0001
vn -0.5326 0.8464 -0.0001
vn -0.7298 0.6081 -0.3124
vn -0.8645 0.3418 -0.3685
vn -0.9395 0.3425 -0.0001
vn -0.7917 0.6108 -0.0001
vn -0.5533 0.6038 -0.5738
vn -0.6540 0.3414 -0.6751
vn -0.8644 0.3418 -0.3687
vn -0.7297 0.6081 -0.3126
vn -0.8646 0.3416 -0.3685
vn -0.8940 0.2354 -0.3814
vn -0.9718 0.2360 -0.0001
vn -0.9396 0.3423 -0.0001
vn -0.6541 0.3412 -0.6751
vn -0.6759 0.2357 -0.6983
vn -0.8938 0.2354 -0.3816
vn -0.8645 0.3416 -0.3687
vn -0.3508 0.3411 -0.8721
vn -0.3626 0.2352 -0.9018
vn -0.6757 0.2357 -0.6985
vn -0.6539 0.3412 -0.6753
vn -0.0001 0.3405 -0.9403
vn -0.0002 0.2354 -0.9719
vn -0.3624 0.2352 -0.9019
vn -0.3506 0.3411 -0.8722
vn 0.0001 0.3405 -0.9403
vn 0.3506 0.3411 -0.8722
vn 0.3624 0.2352 -0.9019
vn 0.0002 0.2354 -0.9719
vn 0.3508 0.3411 -0.8721
vn 0.6538 0.3412 -0.6753
vn 0.6758 0.2357 -0.6984
vn 0.3626 0.2352 -0.9018
vn 0.6540 0.3412 -0.6751
vn 0.8645 0.3416 -0.3687
vn 0.8938 0.2354 -0.3816
vn 0.6760 0.2357 -0.6982
vn 0.8646 0.3416 -0.3685
vn 0.9396 0.3423 -0.0001
vn 0.9718 0.2360 -0.0001
vn 0.8940 0.2354 -0.3814
vn 0.8646 0.3416 0.3685
vn 0.8940 0.2354 0.3814
vn 0.9718 0.2360 0.0001
vn 0.9396 0.3423 0.0001
vn 0.7298 0.6081 0.3125
vn 0.8645 0.3418 0.3685
vn 0.9395 0.3425 0.0001
vn 0.7918 0.6108 0.0001
vn 0.7298 0.6081 -0.3124
vn 0.7918 0.6108 -0.0001
vn 0.9395 0.3425 -0.0001
vn 0.8645 0.3418 -0.3685
vn 0.4931 0.8433 0.2137
vn 0.7297 0.6083 0.3124
vn 0.7916 0.6110 0.0001
vn 0.5325 0.8464 0.0001
vn 0.4931 0.8433 -0.2138
vn 0.5325 0.8464 -0.0001
vn 0.7916 0.6110 -0.0001
vn 0.7296 0.6083 -0.3124
vn 0.3773 0.8375 -0.3953
vn 0.4930 0.8433 -0.2139
vn 0.7296 0.6083 -0.3126
vn 0.5531 0.6040 -0.5738
vn 0.5532 0.6039 -0.5739
vn 0.7297 0.6081 -0.3126
vn 0.8644 0.3418 -0.3687
vn 0.6540 0.3414 -0.6751
vn 0.2031 0.8346 -0.5120
vn 0.3772 0.8375 -0.3954
vn 0.5530 0.6040 -0.5739
vn 0.2962 0.6025 -0.7411
vn 0.2962 0.6023 -0.7412
vn 0.5531 0.6038 -0.5740
vn 0.6538 0.3414 -0.6753
vn 0.3508 0.3413 -0.8721
vn 0.0001 0.8320 -0.5548
vn 0.2029 0.8346 -0.5121
vn 0.2960 0.6025 -0.7412
vn 0.0001 0.6010 -0.7992
vn 0.0001 0.6009 -0.7994
vn 0.2960 0.6023 -0.7413
vn 0.3506 0.3413 -0.8721
vn 0.0001 0.3406 -0.9402
vn -0.0001 0.8320 -0.5548
vn -0.0001 0.6010 -0.7993
vn -0.2961 0.6025 -0.7412
vn -0.2029 0.8346 -0.5121
vn -0.0001 0.6008 -0.7994
vn -0.0001 0.3406 -0.9402
vn -0.3506 0.3413 -0.8721
vn -0.2961 0.6023 -0.7413
vn -0.2031 0.8346 -0.5120
vn -0.2962 0.6025 -0.7411
vn -0.5531 0.6040 -0.5739
vn -0.3772 0.8375 -0.3954
vn -0.2963 0.6023 -0.7412
vn -0.3508 0.3413 -0.8721
vn -0.6539 0.3414 -0.6752
vn -0.5531 0.6038 -0.5740
vn -0.0000 0.9547 -0.2974
vn -0.0000 0.8321 -0.5546
vn -0.2029 0.8347 -0.5119
vn -0.1078 0.9557 -0.2740
vn -0.2030 0.8347 -0.5119
vn -0.0001 0.0118 -0.9999
vn -0.0001 0.0217 -0.9998
vn -0.3801 0.0212 -0.9247
vn -0.3793 0.0113 -0.9252
vn 0.0001 0.0118 -0.9999
vn 0.3793 0.0113 -0.9252
vn 0.3801 0.0212 -0.9247
vn 0.0001 0.0218 -0.9998
vn 0.1079 0.9557 -0.2740
vn 0.2029 0.8347 -0.5119
vn 0.3795 0.0113 -0.9251
vn 0.6982 0.0098 -0.7158
vn 0.6987 0.0192 -0.7151
vn 0.3804 0.0212 -0.9246
vn 0.1974 0.9574 -0.2108
vn 0.3771 0.8376 -0.3952
vn 0.2030 0.8348 -0.5118
vn 0.6984 0.0098 -0.7156
vn 0.9247 0.0078 -0.3805
vn 0.9249 0.0162 -0.3799
vn 0.6989 0.0192 -0.7149
vn 0.3772 0.8376 -0.3952
vn 0.2555 0.9601 -0.1134
vn 0.4929 0.8434 -0.2138
vn 0.9248 0.0078 -0.3803
vn 1.0000 0.0067 -0.0001
vn 0.9999 0.0147 -0.0001
vn 0.9250 0.0162 -0.3797
vn 0.2745 0.9616 -0.0000
vn 0.5323 0.8466 -0.0000
vn 0.4929 0.8434 -0.2137
vn 0.2555 0.9601 0.1135
vn 0.4929 0.8434 0.2137
vn 0.9248 0.0078 0.3803
vn 0.9250 0.0162 0.3797
vn 0.9999 0.0147 0.0001
vn 1.0000 0.0067 0.0001
vn 0.9254 -0.0006 0.3791
vn 1.0000 -0.0013 0.0002
vn 0.9254 -0.0006 -0.3791
vn 1.0000 -0.0013 -0.0002
vn 0.6993 0.0005 -0.7148
vn 0.9253 -0.0006 -0.3793
vn 0.0001 0.0017 -1.0000
vn 0.3805 0.0013 -0.9248
vn 0.3792 0.0113 -0.9252
vn 0.3807 0.0013 -0.9247
vn 0.6991 0.0005 -0.7150
vn -0.0001 0.0017 -1.0000
vn -0.3792 0.0113 -0.9252
vn -0.3805 0.0013 -0.9248
vn 0.3807 0.0013 0.9247
vn 0.3794 0.0113 0.9252
vn 0.6982 0.0098 0.7158
vn 0.6991 0.0005 0.7150
vn 0.6993 0.0005 0.7149
vn 0.6984 0.0098 0.7156
vn 0.9247 0.0078 0.3805
vn 0.9253 -0.0006 0.3794
vn 0.3794 0.0113 0.9251
vn 0.3804 0.0211 0.9246
vn 0.6987 0.0192 0.7151
vn 0.6989 0.0192 0.7149
vn 0.9249 0.0162 0.3799
vn 0.1078 0.9556 0.2741
vn 0.2030 0.8347 0.5119
vn 0.3771 0.8376 0.3952
vn 0.1974 0.9574 0.2107
vn 0.4929 0.8434 0.2138
vn 0.2031 0.8346 0.5120
vn 0.2962 0.6025 0.7411
vn 0.5530 0.6040 0.5739
vn 0.3772 0.8375 0.3954
vn 0.3773 0.8375 0.3953
vn 0.5531 0.6040 0.5738
vn 0.7296 0.6083 0.3125
vn 0.4930 0.8433 0.2139
vn 0.2963 0.6023 0.7412
vn 0.3508 0.3413 0.8720
vn 0.6539 0.3414 0.6752
vn 0.5531 0.6038 0.5740
vn 0.5532 0.6038 0.5739
vn 0.6540 0.3414 0.6751
vn 0.8644 0.3418 0.3687
vn 0.7297 0.6081 0.3126
vn 0.3508 0.3412 0.8721
vn 0.3626 0.2352 0.9018
vn 0.6757 0.2357 0.6985
vn 0.6539 0.3412 0.6753
vn 0.6541 0.3412 0.6751
vn 0.6759 0.2357 0.6983
vn 0.8938 0.2354 0.3816
vn 0.8645 0.3416 0.3687
vn 0.0001 0.3405 0.9403
vn 0.0001 0.2354 0.9719
vn 0.3624 0.2352 0.9019
vn 0.3506 0.3411 0.8722
vn -0.0001 0.3405 0.9403
vn -0.3506 0.3411 0.8722
vn -0.3624 0.2352 0.9019
vn -0.0001 0.2354 0.9719
vn -0.3508 0.3411 0.8721
vn -0.6539 0.3412 0.6753
vn -0.6759 0.2357 0.6983
vn -0.3626 0.2352 0.9018
vn -0.6541 0.3412 0.6751
vn -0.8645 0.3416 0.3687
vn -0.8938 0.2354 0.3816
vn -0.6761 0.2357 0.6981
vn -0.8646 0.3416 0.3685
vn -0.9396 0.3423 0.0001
vn -0.9718 0.2360 0.0001
vn -0.8940 0.2354 0.3814
vn -0.5533 0.6038 0.5738
vn -0.7297 0.6081 0.3126
vn -0.8644 0.3418 0.3687
vn -0.6540 0.3414 0.6751
vn -0.7298 0.6081 0.3124
vn -0.7918 0.6108 0.0001
vn -0.9395 0.3425 0.0001
vn -0.8645 0.3418 0.3685
vn -0.3773 0.8375 0.3953
vn -0.4930 0.8433 0.2139
vn -0.7296 0.6083 0.3125
vn -0.5532 0.6040 0.5738
vn -0.4931 0.8433 0.2137
vn -0.5326 0.8464 0.0001
vn -0.7916 0.6110 0.0001
vn -0.7297 0.6083 0.3124
vn -0.2031 0.8346 0.5120
vn -0.3772 0.8375 0.3954
vn -0.5530 0.6040 0.5739
vn -0.2962 0.6025 0.7411
vn -0.2963 0.6023 0.7412
vn -0.5532 0.6038 0.5740
vn -0.6539 0.3414 0.6752
vn -0.3508 0.3413 0.8720
vn -0.0001 0.8320 0.5548
vn -0.2029 0.8346 0.5121
vn -0.2961 0.6025 0.7412
vn -0.0001 0.6010 0.7993
vn -0.0001 0.6008 0.7994
vn -0.2961 0.6023 0.7413
vn -0.3506 0.3413 0.8721
vn -0.0001 0.3406 0.9402
vn 0.0001 0.8320 0.5548
vn 0.0001 0.6010 0.7993
vn 0.2961 0.6025 0.7412
vn 0.2030 0.8346 0.5121
vn 0.0001 0.6008 0.7994
vn 0.0001 0.3406 0.9402
vn 0.3506 0.3413 0.8721
vn 0.2961 0.6023 0.7413
vn -0.0000 0.9547 0.2974
vn -0.0000 0.8321 0.5546
vn 0.2029 0.8347 0.5119
vn -0.1078 0.9556 0.2741
vn -0.2029 0.8347 0.5119
vn 0.0001 0.0118 0.9999
vn 0.0001 0.0218 0.9998
vn 0.3802 0.0212 0.9247
vn 0.3792 0.0113 0.9253
vn -0.0001 0.0118 0.9999
vn -0.3793 0.0113 0.9252
vn -0.3802 0.0212 0.9247
vn -0.0001 0.0218 0.9998
vn -0.3795 0.0113 0.9251
vn -0.6982 0.0098 0.7158
vn -0.6987 0.0192 0.7152
vn -0.3804 0.0212 0.9246
vn -0.1977 0.9574 0.2104
vn -0.3771 0.8376 0.3952
vn -0.2030 0.8347 0.5119
vn -0.6984 0.0098 0.7156
vn -0.9247 0.0078 0.3805
vn -0.9249 0.0162 0.3800
vn -0.6989 0.0192 0.7150
vn -0.3772 0.8376 0.3952
vn -0.2556 0.9601 0.1134
vn -0.4929 0.8434 0.2138
vn -0.9248 0.0078 0.3803
vn -1.0000 0.0067 0.0001
vn -0.9999 0.0146 0.0001
vn -0.9250 0.0162 0.3797
vn -0.5323 0.8465 -0.0000
vn -0.4929 0.8434 0.2137
vn -0.9254 -0.0005 0.3791
vn -1.0000 -0.0012 0.0002
vn -0.6993 0.0005 0.7149
vn -0.9253 -0.0005 0.3793
vn -0.3807 0.0013 0.9247
vn -0.6991 0.0005 0.7150
vn -0.0001 0.0017 1.0000
vn -0.3805 0.0013 0.9248
vn 0.0001 0.0017 1.0000
vn 0.3805 0.0013 0.9248
vt 0.500000 1.000000
vt 0.500000 0.500000
vt 1.000000 0.500000
vt 1.000000 1.000000
vt 0.000000 1.000000
vt 0.000000 0.500000
vt 0.500000 0.000000
vt 1.000000 0.000000
vt 0.000000 0.000000
vt 0.500000 0.250000
vt 1.000000 0.250000
vt 0.000000 0.250000
s 1
f 1/1/1 2/2/2 3/3/3
f 1/1/1 3/3/3 4/4/4
f 5/5/5 6/6/6 7/2/7
f 5/5/5 7/2/7 8/1/8
f 9/2/2 10/7/9 11/8/10
f 9/2/2 11/8/10 12/3/3
f 13/6/6 14/9/11 15/7/12
f 13/6/6 15/7/12 16/2/7
f 17/1/13 18/2/14 19/3/15
f 17/1/13 19/3/15 20/4/16
f 21/2/17 22/7/18 23/8/19
f 21/2/17 23/8/19 24/3/15
f 25/1/20 26/10/21 27/11/22
f 25/1/20 27/11/22 28/4/23
f 29/12/24 30/10/25 31/1/20
f 29/12/24 31/1/20 32/5/26
f 33/12/27 34/9/28 35/7/29
f 33/12/27 35/7/29 36/10/30
f 37/10/31 38/7/32 39/8/33
f 37/10/31 39/8/33 40/11/34
f 41/5/35 42/9/36 43/8/37
f 41/5/35 43/8/37 44/4/38
f 45/5/39 46/9/40 47/8/41
f 45/5/39 47/8/41 48/4/42
f 49/5/43 50/9/44 51/8/45
f 49/5/43 51/8/45 52/4/46
f 53/5/47 54/9/48 55/8/49
f 53/5/47 55/8/49 56/4/50
f 57/5/51 58/9/52 59/8/53
f 57/5/51 59/8/53 60/4/54
f 61/5/55 62/9/56 63/8/57
f 61/5/55 63/8/57 64/4/58
f 65/5/59 66/4/60 67/8/61
f 65/5/59 67/8/61 68/9/62
f 69/5/63 70/4/64 71/8/65
f 69/5/63 71/8/65 72/9/66
f 73/5/67 74/4/68 75/8/69
f 73/5/67 75/8/69 76/9/70
f 77/5/71 78/4/72 79/8/73
f 77/5/71 79/8/73 80/9/74
f 81/5/75 82/9/76 83/8/77
f 81/5/75 83/8/77 84/4/78
f 85/5/79 86/9/80 87/8/81
f 85/5/79 87/8/81 88/4/82
f 89/5/83 90/4/84 91/8/85
f 89/5/83 91/8/85 92/9/86
f 93/10/87 94/7/88 95/8/89
f 93/10/87 95/8/89 96/11/90
f 97/10/91 98/11/92 99/8/93
f 97/10/91 99/8/93 100/7/94
f 101/12/95 102/10/96 103/7/97
f 101/12/95 103/7/97 104/9/98
f 105/5/99 106/4/100 107/8/101
f 105/5/99 107/8/101 108/9/102
f 109/10/103 110/11/104 111/8/105
f 109/10/103 111/8/105 112/7/106
f 113/5/107 114/4/108 115/8/109
f 113/5/107 115/8/109 116/9/110
f 117/12/111 118/10/112 119/7/113
f 117/12/111 119/7/113 120/9/114
f 121/5/115 122/4/116 123/8/117
f 121/5/115 123/8/117 124/9/118
f 125/12/119 126/9/120 127/7/121
f 125/12/119 127/7/121 128/10/122
f 129/5/123 130/9/124 131/8/125
f 129/5/123 131/8/125 132/4/126
f 133/10/127 134/7/128 135/8/129
f 133/10/127 135/8/129 136/11/130
f 137/5/131 138/9/132 139/8/133
f 137/5/131 139/8/133 140/4/134
f 141/5/135 142/12/136 143/10/137
f 141/5/135 143/10/137 144/1/138
f 145/1/138 146/10/139 147/11/24
f 145/1/138 147/11/24 148/4/26
f 149/6/140 150/9/141 151/7/142
f 149/6/140 151/7/142 152/2/143
f 153/6/144 154/2/145 155/7/146
f 153/6/144 155/7/146 156/9/147
f 157/5/135 158/1/148 159/10/149
f 157/5/135 159/10/149 160/12/136
f 161/2/150 162/3/151 163/8/152
f 161/2/150 163/8/152 164/7/153
f 165/1/148 166/4/154 167/11/155
f 165/1/148 167/11/155 168/10/156
f 169/6/157 170/2/158 171/7/159
f 169/6/157 171/7/159 172/9/160
f 173/12/161 174/5/154 175/1/162
f 173/12/161 175/1/162 176/10/163
f 177/2/164 178/3/165 179/8/166
f 177/2/164 179/8/166 180/7/167
f 181/1/162 182/4/168 183/11/169
f 181/1/162 183/11/169 184/10/170
f 185/1/171 186/10/172 187/11/169
f 185/1/171 187/11/169 188/4/168
f 189/2/173 190/7/174 191/8/175
f 189/2/173 191/8/175 192/3/176
f 193/1/177 194/2/173 195/3/176
f 193/1/177 195/3/176 196/4/178
f 197/1/179 198/4/180 199/3/165
f 197/1/179 199/3/165 200/2/164
f 201/5/181 202/1/182 203/2/158
f 201/5/181 203/2/158 204/6/157
f 205/5/183 206/1/184 207/2/185
f 205/5/183 207/2/185 208/6/144
f 209/1/186 210/4/187 211/3/151
f 209/1/186 211/3/151 212/2/150
f 213/5/188 214/6/140 215/2/189
f 213/5/188 215/2/189 216/1/190
f 217/1/191 218/2/192 219/3/193
f 217/1/191 219/3/193 220/4/194
f 221/5/195 222/6/196 223/2/197
f 221/5/195 223/2/197 224/1/198
f 225/2/199 226/7/200 227/8/201
f 225/2/199 227/8/201 228/3/193
f 229/6/196 230/9/202 231/7/203
f 229/6/196 231/7/203 232/2/197
f 233/1/204 234/10/205 235/11/206
f 233/1/204 235/11/206 236/4/207
f 237/12/206 238/10/208 239/1/171
f 237/12/206 239/1/171 240/5/207
f 241/10/209 242/7/210 243/8/211
f 241/10/209 243/8/211 244/11/212
f 245/12/213 246/9/214 247/7/215
f 245/12/213 247/7/215 248/10/216
f 249/5/217 250/9/218 251/8/219
f 249/5/217 251/8/219 252/4/220
f 253/5/221 254/9/222 255/8/223
f 253/5/221 255/8/223 256/4/224
f 257/5/225 258/9/226 259/8/227
f 257/5/225 259/8/227 260/4/228
f 261/5/229 262/9/230 263/8/231
f 261/5/229 263/8/231 264/4/232
f 265/5/233 266/9/234 267/8/235
f 265/5/233 267/8/235 268/4/236
f 269/5/237 270/4/238 271/8/239
f 269/5/237 271/8/239 272/9/240
f 273/5/241 274/4/242 275/8/243
f 273/5/241 275/8/243 276/9/244
f 277/5/245 278/4/246 279/8/247
f 277/5/245 279/8/247 280/9/248
f 281/5/249 282/4/250 283/8/251
f 281/5/249 283/8/251 284/9/252
f 285/5/253 286/4/254 287/8/255
f 285/5/253 287/8/255 288/9/256
f 289/5/257 290/4/258 291/8/259
f 289/5/257 291/8/259 292/9/260
f 293/12/261 294/10/262 295/7/263
f 293/12/261 295/7/263 296/9/264
f 297/10/265 298/11/266 299/8/267
f 297/10/265 299/8/267 300/7/268
f 301/10/269 302/11/270 303/8/271
f 301/10/269 303/8/271 304/7/272
f 305/5/273 306/4/274 307/8/275
f 305/5/273 307/8/275 308/9/276
f 309/12/277 310/10/278 311/7/279
f 309/12/277 311/7/279 312/9/280
f 313/5/281 314/4/282 315/8/283
f 313/5/281 315/8/283 316/9/284
f 317/12/285 318/9/286 319/7/287
f 317/12/285 319/7/287 320/10/288
f 321/5/289 322/9/290 323/8/291
f 321/5/289 323/8/291 324/4/292
f 325/5/293 326/12/294 327/10/295
f 325/5/293 327/10/295 328/1/204
f 329/5/293 330/1/296 331/10/297
f 329/5/293 331/10/297 332/12/294
f 333/6/298 334/9/299 335/7/300
f 333/6/298 335/7/300 336/2/301
f 337/6/302 338/2/303 339/7/304
f 337/6/302 339/7/304 340/9/305
f 341/2/306 342/3/307 343/8/308
f 341/2/306 343/8/308 344/7/309
f 345/1/296 346/4/310 347/11/311
f 345/1/296 347/11/311 348/10/312
f 349/6/313 350/2/314 351/7/315
f 349/6/313 351/7/315 352/9/316
f 353/12/317 354/5/310 355/1/318
f 353/12/317 355/1/318 356/10/319
f 357/2/320 358/3/321 359/8/322
f 357/2/320 359/8/322 360/7/323
f 361/1/318 362/4/23 363/11/324
f 361/1/318 363/11/324 364/10/325
f 365/1/326 366/4/327 367/3/321
f 365/1/326 367/3/321 368/2/320
f 369/5/328 370/1/329 371/2/314
f 369/5/328 371/2/314 372/6/313
f 373/1/330 374/4/331 375/3/307
f 373/1/330 375/3/307 376/2/306
f 377/5/332 378/1/333 379/2/303
f 377/5/332 379/2/303 380/6/302
f 381/5/334 382/6/298 383/2/301
f 381/5/334 383/2/301 384/1/335
