v -0.030583 0.114216 0.075852
v -0.057007 0.114266 0.059335
v -0.042718 0.111456 0.045141
v -0.030583 0.114216 0.075852
v -0.042718 0.111456 0.045141
v -0.022557 0.111372 0.058269
v -0.042718 0.111456 0.045141
v -0.057007 0.114266 0.059335
v -0.073872 0.114152 0.03299
v -0.042718 0.111456 0.045141
v -0.073872 0.114152 0.03299
v -0.056322 0.111584 0.025297
v -0.073872 0.114152 0.03299
v -0.079986 0.11408 1e-06
v -0.061295 0.111735 1e-06
v -0.073872 0.114152 0.03299
v -0.061295 0.111735 1e-06
v -0.056322 0.111584 0.025297
v -0.073872 0.114152 -0.032988
v -0.056322 0.111584 -0.025295
v -0.061295 0.111735 1e-06
v -0.073872 0.114152 -0.032988
v -0.061295 0.111735 1e-06
v -0.079986 0.11408 1e-06
v -0.042718 0.111456 -0.045139
v -0.056322 0.111584 -0.025295
v -0.073872 0.114152 -0.032988
v -0.042718 0.111456 -0.045139
v -0.073872 0.114152 -0.032988
v -0.057007 0.114266 -0.059332
v -0.030583 0.114216 -0.07585
v -0.022557 0.111372 -0.058267
v -0.042718 0.111456 -0.045139
v -0.030583 0.114216 -0.07585
v -0.042718 0.111456 -0.045139
v -0.057007 0.114266 -0.059332
v 0.073873 0.114152 0.03299
v 0.056322 0.111584 0.025297
v 0.061295 0.111735 1e-06
v 0.073873 0.114152 0.03299
v 0.061295 0.111735 1e-06
v 0.079986 0.11408 1e-06
v 0.073873 0.114152 -0.032988
v 0.079986 0.11408 1e-06
v 0.061295 0.111735 1e-06
v 0.073873 0.114152 -0.032988
v 0.061295 0.111735 1e-06
v 0.056322 0.111584 -0.025295
v 0.042719 0.111456 -0.045139
v 0.057007 0.114266 -0.059332
v 0.073873 0.114152 -0.032988
v 0.042719 0.111456 -0.045139
v 0.073873 0.114152 -0.032988
v 0.056322 0.111584 -0.025295
v 0.030584 0.114216 -0.07585
v 0.057007 0.114266 -0.059332
v 0.042719 0.111456 -0.045139
v 0.030584 0.114216 -0.07585
v 0.042719 0.111456 -0.045139
v 0.022558 0.111372 -0.058267
v 1e-06 0.114196 -0.081607
v 0.030584 0.114216 -0.07585
v 0.022558 0.111372 -0.058267
v 1e-06 0.114196 -0.081607
v 0.022558 0.111372 -0.058267
v 1e-06 0.111344 -0.062681
v 1e-06 0.114196 -0.081607
v 1e-06 0.111344 -0.062681
v -0.022557 0.111372 -0.058267
v 1e-06 0.114196 -0.081607
v -0.022557 0.111372 -0.058267
v -0.030583 0.114216 -0.07585
v 0.042719 0.111456 0.045141
v 0.056322 0.111584 0.025297
v 0.073873 0.114152 0.03299
v 0.042719 0.111456 0.045141
v 0.073873 0.114152 0.03299
v 0.057007 0.114266 0.059335
v 0.030584 0.114216 0.075852
v 0.022558 0.111372 0.058269
v 0.042719 0.111456 0.045141
v 0.030584 0.114216 0.075852
v 0.042719 0.111456 0.045141
v 0.057007 0.114266 0.059335
v 1e-06 0.114196 0.081609
v -0.030583 0.114216 0.075852
v -0.022557 0.111372 0.058269
v 1e-06 0.114196 0.081609
v -0.022557 0.111372 0.058269
v 1e-06 0.111344 0.062683
v 1e-06 0.114196 0.081609
v 1e-06 0.111344 0.062683
v 0.022558 0.111372 0.058269
v 1e-06 0.114196 0.081609
v 0.022558 0.111372 0.058269
v 0.030584 0.114216 0.075852
v -0.062457 0.169905 0.064373
v -0.072824 0.162588 0.075037
v -0.039023 0.162842 0.096762
v -0.062457 0.169905 0.064373
v -0.039023 0.162842 0.096762
v -0.033504 0.169758 0.08221
v -0.033504 0.169758 0.08221
v -0.03048 0.167703 0.077121
v -0.057325 0.167641 0.059504
v -0.033504 0.169758 0.08221
v -0.057325 0.167641 0.059504
v -0.062457 0.169905 0.064373
v -0.062457 0.169905 0.064373
v -0.057325 0.167641 0.059504
v -0.075386 0.167561 0.032956
v -0.062457 0.169905 0.064373
v -0.075386 0.167561 0.032956
v -0.080864 0.169687 0.035635
v -0.095471 0.163086 0.041538
v -0.072824 0.162588 0.075037
v -0.062457 0.169905 0.064373
v -0.095471 0.163086 0.041538
v -0.062457 0.169905 0.064373
v -0.080864 0.169687 0.035635
v -0.102981 0.144558 0.04464
v -0.078177 0.144529 0.080537
v -0.072824 0.162588 0.075037
v -0.102981 0.144558 0.04464
v -0.072824 0.162588 0.075037
v -0.095471 0.163086 0.041538
v -0.078177 0.144529 0.080537
v -0.041863 0.14455 0.104137
v -0.039023 0.162842 0.096762
v -0.078177 0.144529 0.080537
v -0.039023 0.162842 0.096762
v -0.072824 0.162588 0.075037
v -0.112215 0.144656 1e-06
v -0.102981 0.144558 0.04464
v -0.095471 0.163086 0.041538
v -0.112215 0.144656 1e-06
v -0.095471 0.163086 0.041538
v -0.103866 0.163344 1e-06
v -0.103866 0.163344 1e-06
v -0.095471 0.163086 0.041538
v -0.080864 0.169687 0.035635
v -0.103866 0.163344 1e-06
v -0.080864 0.169687 0.035635
v -0.087533 0.169544 1e-06
v -0.112215 0.144656 1e-06
v -0.103866 0.163344 1e-06
v -0.095471 0.163086 -0.041536
v -0.112215 0.144656 1e-06
v -0.095471 0.163086 -0.041536
v -0.102981 0.144558 -0.044638
v -0.103866 0.163344 1e-06
v -0.087533 0.169544 1e-06
v -0.080864 0.169687 -0.035633
v -0.103866 0.163344 1e-06
v -0.080864 0.169687 -0.035633
v -0.095471 0.163086 -0.041536
v -0.102981 0.144558 -0.044638
v -0.095471 0.163086 -0.041536
v -0.072824 0.162588 -0.075035
v -0.102981 0.144558 -0.044638
v -0.072824 0.162588 -0.075035
v -0.078177 0.144529 -0.080535
v -0.095471 0.163086 -0.041536
v -0.080864 0.169687 -0.035633
v -0.062457 0.169905 -0.064371
v -0.095471 0.163086 -0.041536
v -0.062457 0.169905 -0.064371
v -0.072824 0.162588 -0.075035
v -0.062457 0.169905 -0.064371
v -0.080864 0.169687 -0.035633
v -0.075386 0.167561 -0.032953
v -0.062457 0.169905 -0.064371
v -0.075386 0.167561 -0.032953
v -0.057325 0.167641 -0.059502
v -0.080864 0.169687 -0.035633
v -0.087533 0.169544 1e-06
v -0.081911 0.167473 1e-06
v -0.080864 0.169687 -0.035633
v -0.081911 0.167473 1e-06
v -0.075386 0.167561 -0.032953
v -0.057325 0.167641 -0.059502
v -0.075386 0.167561 -0.032953
v -0.07336 0.163776 -0.031053
v -0.057325 0.167641 -0.059502
v -0.07336 0.163776 -0.031053
v -0.056144 0.163813 -0.056961
v -0.075386 0.167561 -0.032953
v -0.081911 0.167473 1e-06
v -0.079351 0.163787 1e-06
v -0.075386 0.167561 -0.032953
v -0.079351 0.163787 1e-06
v -0.07336 0.163776 -0.031053
v -0.080864 0.169687 0.035635
v -0.075386 0.167561 0.032956
v -0.081911 0.167473 1e-06
v -0.080864 0.169687 0.035635
v -0.081911 0.167473 1e-06
v -0.087533 0.169544 1e-06
v -0.075386 0.167561 0.032956
v -0.07336 0.163776 0.031055
v -0.079351 0.163787 1e-06
v -0.075386 0.167561 0.032956
v -0.079351 0.163787 1e-06
v -0.081911 0.167473 1e-06
v -0.057325 0.167641 0.059504
v -0.056144 0.163813 0.056963
v -0.07336 0.163776 0.031055
v -0.057325 0.167641 0.059504
v -0.07336 0.163776 0.031055
v -0.075386 0.167561 0.032956
v -0.03048 0.167703 0.077121
v -0.030324 0.163893 0.07431
v -0.056144 0.163813 0.056963
v -0.03048 0.167703 0.077121
v -0.056144 0.163813 0.056963
v -0.057325 0.167641 0.059504
v 1e-06 0.167737 0.083123
v 1e-06 0.164005 0.080457
v -0.030324 0.163893 0.07431
v 1e-06 0.167737 0.083123
v -0.030324 0.163893 0.07431
v -0.03048 0.167703 0.077121
v 1e-06 0.16969 0.088376
v 1e-06 0.167737 0.083123
v -0.03048 0.167703 0.077121
v 1e-06 0.16969 0.088376
v -0.03048 0.167703 0.077121
v -0.033504 0.169758 0.08221
v 1e-06 0.16969 0.088376
v 0.033504 0.169758 0.08221
v 0.030481 0.167703 0.077121
v 1e-06 0.16969 0.088376
v 0.030481 0.167703 0.077121
v 1e-06 0.167737 0.083123
v 1e-06 0.167737 0.083123
v 0.030481 0.167703 0.077121
v 0.030324 0.163893 0.07431
v 1e-06 0.167737 0.083123
v 0.030324 0.163893 0.07431
v 1e-06 0.164005 0.080457
v 0.033504 0.169758 0.08221
v 0.062458 0.169905 0.064373
v 0.057325 0.167641 0.059504
v 0.033504 0.169758 0.08221
v 0.057325 0.167641 0.059504
v 0.030481 0.167703 0.077121
v 0.030481 0.167703 0.077121
v 0.057325 0.167641 0.059504
v 0.056145 0.163813 0.056963
v 0.030481 0.167703 0.077121
v 0.056145 0.163813 0.056963
v 0.030324 0.163893 0.07431
v 0.057325 0.167641 0.059504
v 0.075385 0.167561 0.032956
v 0.073361 0.163776 0.031055
v 0.057325 0.167641 0.059504
v 0.073361 0.163776 0.031055
v 0.056145 0.163813 0.056963
v 0.062458 0.169905 0.064373
v 0.080864 0.169687 0.035635
v 0.075385 0.167561 0.032956
v 0.062458 0.169905 0.064373
v 0.075385 0.167561 0.032956
v 0.057325 0.167641 0.059504
v 0.080864 0.169687 0.035635
v 0.087534 0.169544 1e-06
v 0.081912 0.167473 1e-06
v 0.080864 0.169687 0.035635
v 0.081912 0.167473 1e-06
v 0.075385 0.167561 0.032956
v 0.075385 0.167561 0.032956
v 0.081912 0.167473 1e-06
v 0.079351 0.163787 1e-06
v 0.075385 0.167561 0.032956
v 0.079351 0.163787 1e-06
v 0.073361 0.163776 0.031055
v 0.075385 0.167561 -0.032953
v 0.073361 0.163776 -0.031053
v 0.079351 0.163787 1e-06
v 0.075385 0.167561 -0.032953
v 0.079351 0.163787 1e-06
v 0.081912 0.167473 1e-06
v 0.080864 0.169687 -0.035633
v 0.075385 0.167561 -0.032953
v 0.081912 0.167473 1e-06
v 0.080864 0.169687 -0.035633
v 0.081912 0.167473 1e-06
v 0.087534 0.169544 1e-06
v 0.057325 0.167641 -0.059502
v 0.056145 0.163813 -0.056961
v 0.073361 0.163776 -0.031053
v 0.057325 0.167641 -0.059502
v 0.073361 0.163776 -0.031053
v 0.075385 0.167561 -0.032953
v 0.062458 0.169905 -0.064371
v 0.057325 0.167641 -0.059502
v 0.075385 0.167561 -0.032953
v 0.062458 0.169905 -0.064371
v 0.075385 0.167561 -0.032953
v 0.080864 0.169687 -0.035633
v 0.030481 0.167703 -0.077119
v 0.030324 0.163893 -0.074308
v 0.056145 0.163813 -0.056961
v 0.030481 0.167703 -0.077119
v 0.056145 0.163813 -0.056961
v 0.057325 0.167641 -0.059502
v 1e-06 0.167737 -0.083121
v 1e-06 0.164005 -0.080454
v 0.030324 0.163893 -0.074308
v 1e-06 0.167737 -0.083121
v 0.030324 0.163893 -0.074308
v 0.030481 0.167703 -0.077119
v 1e-06 0.16969 -0.088374
v 1e-06 0.167737 -0.083121
v 0.030481 0.167703 -0.077119
v 1e-06 0.16969 -0.088374
v 0.030481 0.167703 -0.077119
v 0.033504 0.169758 -0.082207
v 0.033504 0.169758 -0.082207
v 0.030481 0.167703 -0.077119
v 0.057325 0.167641 -0.059502
v 0.033504 0.169758 -0.082207
v 0.057325 0.167641 -0.059502
v 0.062458 0.169905 -0.064371
v 0.039023 0.162842 -0.096759
v 1e-06 0.162908 -0.104265
v 1e-06 0.16969 -0.088374
v 0.039023 0.162842 -0.096759
v 1e-06 0.16969 -0.088374
v 0.033504 0.169758 -0.082207
v 0.062458 0.169905 -0.064371
v 0.072823 0.162588 -0.075035
v 0.039023 0.162842 -0.096759
v 0.062458 0.169905 -0.064371
v 0.039023 0.162842 -0.096759
v 0.033504 0.169758 -0.082207
v 0.041864 0.14455 -0.104135
v 1e-06 0.144555 -0.112227
v 1e-06 0.162908 -0.104265
v 0.041864 0.14455 -0.104135
v 1e-06 0.162908 -0.104265
v 0.039023 0.162842 -0.096759
v 0.078177 0.144529 -0.080535
v 0.041864 0.14455 -0.104135
v 0.039023 0.162842 -0.096759
v 0.078177 0.144529 -0.080535
v 0.039023 0.162842 -0.096759
v 0.072823 0.162588 -0.075035
v -0.039023 0.162842 -0.096759
v -0.033504 0.169758 -0.082207
v 1e-06 0.16969 -0.088374
v -0.039023 0.162842 -0.096759
v 1e-06 0.16969 -0.088374
v 1e-06 0.162908 -0.104265
v -0.041863 0.14455 -0.104135
v -0.039023 0.162842 -0.096759
v 1e-06 0.162908 -0.104265
v -0.041863 0.14455 -0.104135
v 1e-06 0.162908 -0.104265
v 1e-06 0.144555 -0.112227
v -0.038456 0.122358 -0.09598
v -0.041863 0.14455 -0.104135
v 1e-06 0.144555 -0.112227
v -0.038456 0.122358 -0.09598
v 1e-06 0.144555 -0.112227
v 1e-06 0.122336 -0.103366
v 0.038456 0.122358 -0.09598
v 1e-06 0.122336 -0.103366
v 1e-06 0.144555 -0.112227
v 0.038456 0.122358 -0.09598
v 1e-06 0.144555 -0.112227
v 0.041864 0.14455 -0.104135
v -0.030677 0.114216 -0.075669
v -0.038456 0.122358 -0.09598
v 1e-06 0.122336 -0.103366
v -0.030677 0.114216 -0.075669
v 1e-06 0.122336 -0.103366
v 1e-06 0.114196 -0.081426
v 0.030677 0.114216 -0.075669
v 1e-06 0.114196 -0.081426
v 1e-06 0.122336 -0.103366
v 0.030677 0.114216 -0.075669
v 1e-06 0.122336 -0.103366
v 0.038456 0.122358 -0.09598
v 0.057103 0.114266 -0.059152
v 0.030677 0.114216 -0.075669
v 0.038456 0.122358 -0.09598
v 0.057103 0.114266 -0.059152
v 0.038456 0.122358 -0.09598
v 0.071895 0.122521 -0.074583
v 0.078177 0.144529 -0.080535
v 0.071895 0.122521 -0.074583
v 0.038456 0.122358 -0.09598
v 0.078177 0.144529 -0.080535
v 0.038456 0.122358 -0.09598
v 0.041864 0.14455 -0.104135
v 0.073967 0.114152 -0.032807
v 0.057103 0.114266 -0.059152
v 0.071895 0.122521 -0.074583
v 0.073967 0.114152 -0.032807
v 0.071895 0.122521 -0.074583
v 0.094453 0.122115 -0.04138
v 0.094453 0.122115 -0.04138
v 0.071895 0.122521 -0.074583
v 0.078177 0.144529 -0.080535
v 0.094453 0.122115 -0.04138
v 0.078177 0.144529 -0.080535
v 0.102982 0.144558 -0.044638
v 0.102982 0.144558 -0.044638
v 0.078177 0.144529 -0.080535
v 0.072823 0.162588 -0.075035
v 0.102982 0.144558 -0.044638
v 0.072823 0.162588 -0.075035
v 0.095472 0.163086 -0.041536
v 0.103033 0.122057 1e-06
v 0.094453 0.122115 -0.04138
v 0.102982 0.144558 -0.044638
v 0.103033 0.122057 1e-06
v 0.102982 0.144558 -0.044638
v 0.112215 0.144656 1e-06
v 0.112215 0.144656 1e-06
v 0.102982 0.144558 -0.044638
v 0.095472 0.163086 -0.041536
v 0.112215 0.144656 1e-06
v 0.095472 0.163086 -0.041536
v 0.103866 0.163344 1e-06
v 0.103866 0.163344 1e-06
v 0.095472 0.163086 -0.041536
v 0.080864 0.169687 -0.035633
v 0.103866 0.163344 1e-06
v 0.080864 0.169687 -0.035633
v 0.087534 0.169544 1e-06
v 0.095472 0.163086 -0.041536
v 0.072823 0.162588 -0.075035
v 0.062458 0.169905 -0.064371
v 0.095472 0.163086 -0.041536
v 0.062458 0.169905 -0.064371
v 0.080864 0.169687 -0.035633
v 0.112215 0.144656 1e-06
v 0.103866 0.163344 1e-06
v 0.095472 0.163086 0.041538
v 0.112215 0.144656 1e-06
v 0.095472 0.163086 0.041538
v 0.102982 0.144558 0.04464
v 0.103866 0.163344 1e-06
v 0.087534 0.169544 1e-06
v 0.080864 0.169687 0.035635
v 0.103866 0.163344 1e-06
v 0.080864 0.169687 0.035635
v 0.095472 0.163086 0.041538
v 0.102982 0.144558 0.04464
v 0.095472 0.163086 0.041538
v 0.072823 0.162588 0.075037
v 0.102982 0.144558 0.04464
v 0.072823 0.162588 0.075037
v 0.078177 0.144529 0.080537
v 0.095472 0.163086 0.041538
v 0.080864 0.169687 0.035635
v 0.062458 0.169905 0.064373
v 0.095472 0.163086 0.041538
v 0.062458 0.169905 0.064373
v 0.072823 0.162588 0.075037
v 0.078177 0.144529 0.080537
v 0.072823 0.162588 0.075037
v 0.039023 0.162842 0.096762
v 0.078177 0.144529 0.080537
v 0.039023 0.162842 0.096762
v 0.041864 0.14455 0.104137
v 0.062458 0.169905 0.064373
v 0.033504 0.169758 0.08221
v 0.039023 0.162842 0.096762
v 0.062458 0.169905 0.064373
v 0.039023 0.162842 0.096762
v 0.072823 0.162588 0.075037
v 0.041864 0.14455 0.104137
v 0.039023 0.162842 0.096762
v 1e-06 0.162908 0.104267
v 0.041864 0.14455 0.104137
v 1e-06 0.162908 0.104267
v 1e-06 0.144555 0.112229
v 0.039023 0.162842 0.096762
v 0.033504 0.169758 0.08221
v 1e-06 0.16969 0.088376
v 0.039023 0.162842 0.096762
v 1e-06 0.16969 0.088376
v 1e-06 0.162908 0.104267
v -0.041863 0.14455 0.104137
v 1e-06 0.144555 0.112229
v 1e-06 0.162908 0.104267
v -0.041863 0.14455 0.104137
v 1e-06 0.162908 0.104267
v -0.039023 0.162842 0.096762
v -0.039023 0.162842 0.096762
v 1e-06 0.162908 0.104267
v 1e-06 0.16969 0.088376
v -0.039023 0.162842 0.096762
v 1e-06 0.16969 0.088376
v -0.033504 0.169758 0.08221
v -0.038456 0.122358 0.095982
v 1e-06 0.122336 0.103368
v 1e-06 0.144555 0.112229
v -0.038456 0.122358 0.095982
v 1e-06 0.144555 0.112229
v -0.041863 0.14455 0.104137
v 0.038456 0.122358 0.095982
v 0.041864 0.14455 0.104137
v 1e-06 0.144555 0.112229
v 0.038456 0.122358 0.095982
v 1e-06 0.144555 0.112229
v 1e-06 0.122336 0.103368
v 0.030677 0.114216 0.075671
v 0.038456 0.122358 0.095982
v 1e-06 0.122336 0.103368
v 0.030677 0.114216 0.075671
v 1e-06 0.122336 0.103368
v 1e-06 0.114196 0.081428
v -0.030677 0.114216 0.075671
v 1e-06 0.114196 0.081428
v 1e-06 0.122336 0.103368
v -0.030677 0.114216 0.075671
v 1e-06 0.122336 0.103368
v -0.038456 0.122358 0.095982
v 0.078177 0.144529 0.080537
v 0.041864 0.14455 0.104137
v 0.038456 0.122358 0.095982
v 0.078177 0.144529 0.080537
v 0.038456 0.122358 0.095982
v 0.071895 0.122521 0.074585
v 0.057103 0.114266 0.059154
v 0.071895 0.122521 0.074585
v 0.038456 0.122358 0.095982
v 0.057103 0.114266 0.059154
v 0.038456 0.122358 0.095982
v 0.030677 0.114216 0.075671
v 0.073967 0.114152 0.032809
v 0.094453 0.122115 0.041382
v 0.071895 0.122521 0.074585
v 0.073967 0.114152 0.032809
v 0.071895 0.122521 0.074585
v 0.057103 0.114266 0.059154
v 0.103033 0.122057 1e-06
v 0.094453 0.122115 0.041382
v 0.073967 0.114152 0.032809
v 0.103033 0.122057 1e-06
v 0.073967 0.114152 0.032809
v 0.080081 0.11408 1e-06
v 0.103033 0.122057 1e-06
v 0.080081 0.11408 1e-06
v 0.073967 0.114152 -0.032807
v 0.103033 0.122057 1e-06
v 0.073967 0.114152 -0.032807
v 0.094453 0.122115 -0.04138
v 0.103033 0.122057 1e-06
v 0.112215 0.144656 1e-06
v 0.102982 0.144558 0.04464
v 0.103033 0.122057 1e-06
v 0.102982 0.144558 0.04464
v 0.094453 0.122115 0.041382
v 0.094453 0.122115 0.041382
v 0.102982 0.144558 0.04464
v 0.078177 0.144529 0.080537
v 0.094453 0.122115 0.041382
v 0.078177 0.144529 0.080537
v 0.071895 0.122521 0.074585
v -0.057102 0.114266 0.059154
v -0.030677 0.114216 0.075671
v -0.038456 0.122358 0.095982
v -0.057102 0.114266 0.059154
v -0.038456 0.122358 0.095982
v -0.071895 0.122521 0.074585
v -0.078177 0.144529 0.080537
v -0.071895 0.122521 0.074585
v -0.038456 0.122358 0.095982
v -0.078177 0.144529 0.080537
v -0.038456 0.122358 0.095982
v -0.041863 0.14455 0.104137
v -0.073967 0.114152 0.032809
v -0.057102 0.114266 0.059154
v -0.071895 0.122521 0.074585
v -0.073967 0.114152 0.032809
v -0.071895 0.122521 0.074585
v -0.094454 0.122115 0.041382
v -0.094454 0.122115 0.041382
v -0.071895 0.122521 0.074585
v -0.078177 0.144529 0.080537
v -0.094454 0.122115 0.041382
v -0.078177 0.144529 0.080537
v -0.102981 0.144558 0.04464
v -0.103033 0.122057 1e-06
v -0.094454 0.122115 0.041382
v -0.102981 0.144558 0.04464
v -0.103033 0.122057 1e-06
v -0.102981 0.144558 0.04464
v -0.112215 0.144656 1e-06
v -0.103033 0.122057 1e-06
v -0.080081 0.11408 1e-06
v -0.073967 0.114152 0.032809
v -0.103033 0.122057 1e-06
v -0.073967 0.114152 0.032809
v -0.094454 0.122115 0.041382
v -0.103033 0.122057 1e-06
v -0.094454 0.122115 -0.04138
v -0.073967 0.114152 -0.032807
v -0.103033 0.122057 1e-06
v -0.073967 0.114152 -0.032807
v -0.080081 0.11408 1e-06
v -0.073967 0.114152 -0.032807
v -0.094454 0.122115 -0.04138
v -0.071895 0.122521 -0.074583
v -0.073967 0.114152 -0.032807
v -0.071895 0.122521 -0.074583
v -0.057102 0.114266 -0.059152
v -0.057102 0.114266 -0.059152
v -0.071895 0.122521 -0.074583
v -0.038456 0.122358 -0.09598
v -0.057102 0.114266 -0.059152
v -0.038456 0.122358 -0.09598
v -0.030677 0.114216 -0.075669
v -0.078177 0.144529 -0.080535
v -0.041863 0.14455 -0.104135
v -0.038456 0.122358 -0.09598
v -0.078177 0.144529 -0.080535
v -0.038456 0.122358 -0.09598
v -0.071895 0.122521 -0.074583
v -0.094454 0.122115 -0.04138
v -0.102981 0.144558 -0.044638
v -0.078177 0.144529 -0.080535
v -0.094454 0.122115 -0.04138
v -0.078177 0.144529 -0.080535
v -0.071895 0.122521 -0.074583
v -0.078177 0.144529 -0.080535
v -0.072824 0.162588 -0.075035
v -0.039023 0.162842 -0.096759
v -0.078177 0.144529 -0.080535
v -0.039023 0.162842 -0.096759
v -0.041863 0.14455 -0.104135
v -0.103033 0.122057 1e-06
v -0.112215 0.144656 1e-06
v -0.102981 0.144558 -0.044638
v -0.103033 0.122057 1e-06
v -0.102981 0.144558 -0.044638
v -0.094454 0.122115 -0.04138
v -0.062457 0.169905 -0.064371
v -0.033504 0.169758 -0.082207
v -0.039023 0.162842 -0.096759
v -0.062457 0.169905 -0.064371
v -0.039023 0.162842 -0.096759
v -0.072824 0.162588 -0.075035
v 1e-06 0.16969 -0.088374
v -0.033504 0.169758 -0.082207
v -0.03048 0.167703 -0.077119
v 1e-06 0.16969 -0.088374
v -0.03048 0.167703 -0.077119
v 1e-06 0.167737 -0.083121
v -0.033504 0.169758 -0.082207
v -0.062457 0.169905 -0.064371
v -0.057325 0.167641 -0.059502
v -0.033504 0.169758 -0.082207
v -0.057325 0.167641 -0.059502
v -0.03048 0.167703 -0.077119
v 1e-06 0.167737 -0.083121
v -0.03048 0.167703 -0.077119
v -0.030324 0.163893 -0.074308
v 1e-06 0.167737 -0.083121
v -0.030324 0.163893 -0.074308
v 1e-06 0.164005 -0.080454
v -0.03048 0.167703 -0.077119
v -0.057325 0.167641 -0.059502
v -0.056144 0.163813 -0.056961
v -0.03048 0.167703 -0.077119
v -0.056144 0.163813 -0.056961
v -0.030324 0.163893 -0.074308
vn -0.0558 -0.9895 0.1333
vn -0.0975 -0.9904 0.0979
vn -0.0972 -0.9904 0.0983
vn -0.0558 -0.9895 0.1333
vn -0.0972 -0.9904 0.0983
vn -0.0542 -0.9895 0.1342
vn -0.0972 -0.9904 0.0983
vn -0.0975 -0.9904 0.0979
vn -0.1222 -0.9912 0.0502
vn -0.0972 -0.9904 0.0983
vn -0.1222 -0.9912 0.0502
vn -0.1225 -0.9912 0.0493
vn -0.1222 -0.9912 0.0502
vn -0.1295 -0.9916 -0
vn -0.1295 -0.9916 -0
vn -0.1222 -0.9912 0.0502
vn -0.1295 -0.9916 -0
vn -0.1225 -0.9912 0.0493
vn -0.1222 -0.9912 -0.0502
vn -0.1225 -0.9912 -0.0493
vn -0.1295 -0.9916 -0
vn -0.1222 -0.9912 -0.0502
vn -0.1295 -0.9916 -0
vn -0.1295 -0.9916 -0
vn -0.0972 -0.9904 -0.0983
vn -0.1225 -0.9912 -0.0493
vn -0.1222 -0.9912 -0.0502
vn -0.0972 -0.9904 -0.0983
vn -0.1222 -0.9912 -0.0502
vn -0.0975 -0.9904 -0.0979
vn -0.056 -0.9895 -0.1332
vn -0.0543 -0.9895 -0.1341
vn -0.0972 -0.9904 -0.0983
vn -0.056 -0.9895 -0.1332
vn -0.0972 -0.9904 -0.0983
vn -0.0975 -0.9904 -0.0979
vn 0.1222 -0.9912 0.0502
vn 0.1225 -0.9912 0.0493
vn 0.1295 -0.9916 -0
vn 0.1222 -0.9912 0.0502
vn 0.1295 -0.9916 -0
vn 0.1295 -0.9916 -0
vn 0.1222 -0.9912 -0.0502
vn 0.1295 -0.9916 -0
vn 0.1295 -0.9916 -0
vn 0.1222 -0.9912 -0.0502
vn 0.1295 -0.9916 -0
vn 0.1225 -0.9912 -0.0493
vn 0.0972 -0.9904 -0.0983
vn 0.0975 -0.9904 -0.0979
vn 0.1222 -0.9912 -0.0502
vn 0.0972 -0.9904 -0.0983
vn 0.1222 -0.9912 -0.0502
vn 0.1225 -0.9912 -0.0493
vn 0.056 -0.9895 -0.1332
vn 0.0975 -0.9904 -0.0979
vn 0.0972 -0.9904 -0.0983
vn 0.056 -0.9895 -0.1332
vn 0.0972 -0.9904 -0.0983
vn 0.0543 -0.9895 -0.1341
vn -0 -0.989 -0.1479
vn 0.056 -0.9895 -0.1332
vn 0.0543 -0.9895 -0.1341
vn -0 -0.989 -0.1479
vn 0.0543 -0.9895 -0.1341
vn -0 -0.989 -0.1479
vn -0 -0.989 -0.1479
vn -0 -0.989 -0.1479
vn -0.0543 -0.9895 -0.1341
vn -0 -0.989 -0.1479
vn -0.0543 -0.9895 -0.1341
vn -0.056 -0.9895 -0.1332
vn 0.0972 -0.9904 0.0983
vn 0.1225 -0.9912 0.0493
vn 0.1222 -0.9912 0.0502
vn 0.0972 -0.9904 0.0983
vn 0.1222 -0.9912 0.0502
vn 0.0975 -0.9904 0.0979
vn 0.056 -0.9895 0.1332
vn 0.0543 -0.9895 0.1341
vn 0.0972 -0.9904 0.0983
vn 0.056 -0.9895 0.1332
vn 0.0972 -0.9904 0.0983
vn 0.0975 -0.9904 0.0979
vn -0 -0.989 0.1479
vn -0.0558 -0.9895 0.1333
vn -0.0542 -0.9895 0.1342
vn -0 -0.989 0.1479
vn -0.0542 -0.9895 0.1342
vn -0 -0.989 0.1479
vn -0 -0.989 0.1479
vn -0 -0.989 0.1479
vn 0.0543 -0.9895 0.1341
vn -0 -0.989 0.1479
vn 0.0543 -0.9895 0.1341
vn 0.056 -0.9895 0.1332
vn -0.1877 0.9627 0.1948
vn -0.5409 0.6323 0.5547
vn -0.2869 0.6397 0.7131
vn -0.1877 0.9627 0.1948
vn -0.2869 0.6397 0.7131
vn -0.0976 0.9635 0.2494
vn -0.0975 0.9635 0.2493
vn 0.192 0.8469 -0.4959
vn 0.3545 0.8576 -0.3727
vn -0.0975 0.9635 0.2493
vn 0.3545 0.8576 -0.3727
vn -0.1877 0.9628 0.1946
vn -0.1877 0.9628 0.1946
vn 0.3546 0.8576 -0.3726
vn 0.4836 0.8499 -0.2092
vn -0.1877 0.9628 0.1946
vn 0.4836 0.8499 -0.2092
vn -0.2298 0.9686 0.0953
vn -0.7042 0.6461 0.2943
vn -0.5409 0.6323 0.5547
vn -0.1878 0.9627 0.1946
vn -0.7042 0.6461 0.2943
vn -0.1878 0.9627 0.1946
vn -0.2299 0.9685 0.0954
vn -0.9225 -0.0241 0.3852
vn -0.6987 -0.0238 0.715
vn -0.541 0.6322 0.5547
vn -0.9225 -0.0241 0.3852
vn -0.541 0.6322 0.5547
vn -0.7043 0.6459 0.2944
vn -0.6987 -0.0238 0.715
vn -0.3738 -0.022 0.9273
vn -0.287 0.6396 0.7131
vn -0.6987 -0.0238 0.715
vn -0.287 0.6396 0.7131
vn -0.5409 0.6322 0.5548
vn -0.9997 -0.0229 -0
vn -0.9225 -0.0241 0.3852
vn -0.7043 0.646 0.2943
vn -0.9997 -0.0229 -0
vn -0.7043 0.646 0.2943
vn -0.7551 0.6557 0.0001
vn -0.7549 0.6558 -0
vn -0.7042 0.6461 0.2943
vn -0.2299 0.9685 0.0953
vn -0.7549 0.6558 -0
vn -0.2299 0.9685 0.0953
vn -0.2361 0.9717 0.0001
vn -0.9997 -0.0229 -0.0001
vn -0.7551 0.6557 -0.0001
vn -0.7043 0.646 -0.2943
vn -0.9997 -0.0229 -0.0001
vn -0.7043 0.646 -0.2943
vn -0.9225 -0.0241 -0.3852
vn -0.7549 0.6558 -0.0001
vn -0.2361 0.9717 -0.0001
vn -0.2298 0.9686 -0.0953
vn -0.7549 0.6558 -0.0001
vn -0.2298 0.9686 -0.0953
vn -0.7042 0.6461 -0.2943
vn -0.9225 -0.0241 -0.3852
vn -0.7043 0.646 -0.2944
vn -0.541 0.6322 -0.5547
vn -0.9225 -0.0241 -0.3852
vn -0.541 0.6322 -0.5547
vn -0.6987 -0.0238 -0.715
vn -0.7042 0.6461 -0.2943
vn -0.2298 0.9685 -0.0954
vn -0.1878 0.9627 -0.1946
vn -0.7042 0.6461 -0.2943
vn -0.1878 0.9627 -0.1946
vn -0.5408 0.6323 -0.5547
vn -0.1877 0.9627 -0.1946
vn -0.2297 0.9686 -0.0953
vn 0.4835 0.85 0.2092
vn -0.1877 0.9627 -0.1946
vn 0.4835 0.85 0.2092
vn 0.3546 0.8576 0.3726
vn -0.2297 0.9686 -0.0953
vn -0.2361 0.9717 -0
vn 0.5427 0.8399 -0
vn -0.2297 0.9686 -0.0953
vn 0.5427 0.8399 -0
vn 0.4836 0.85 0.2091
vn 0.3546 0.8575 0.3727
vn 0.4837 0.8498 0.2094
vn 0.7735 0.5595 0.2977
vn 0.3546 0.8575 0.3727
vn 0.7735 0.5595 0.2977
vn 0.5934 0.5684 0.5699
vn 0.4837 0.8499 0.2092
vn 0.5429 0.8398 0.0001
vn 0.8331 0.5531 0.0002
vn 0.4837 0.8499 0.2092
vn 0.8331 0.5531 0.0002
vn 0.7736 0.5595 0.2975
vn -0.2298 0.9686 0.0953
vn 0.4836 0.85 -0.2091
vn 0.5427 0.8399 -0
vn -0.2298 0.9686 0.0953
vn 0.5427 0.8399 -0
vn -0.2361 0.9717 -0
vn 0.4837 0.8499 -0.2092
vn 0.7737 0.5595 -0.2974
vn 0.8332 0.553 -0.0001
vn 0.4837 0.8499 -0.2092
vn 0.8332 0.553 -0.0001
vn 0.5429 0.8398 -0
vn 0.3546 0.8575 -0.3727
vn 0.5932 0.5684 -0.5702
vn 0.7735 0.5595 -0.2977
vn 0.3546 0.8575 -0.3727
vn 0.7735 0.5595 -0.2977
vn 0.4837 0.8498 -0.2093
vn 0.192 0.8468 -0.496
vn 0.33 0.5786 -0.7459
vn 0.593 0.5684 -0.5703
vn 0.192 0.8468 -0.496
vn 0.593 0.5684 -0.5703
vn 0.3547 0.8574 -0.3728
vn 0.0001 0.8374 -0.5466
vn 0.0001 0.5898 -0.8076
vn 0.3297 0.5786 -0.746
vn 0.0001 0.8374 -0.5466
vn 0.3297 0.5786 -0.746
vn 0.192 0.8468 -0.4961
vn -0 0.9638 0.2665
vn -0 0.8375 -0.5464
vn 0.1919 0.8469 -0.4959
vn -0 0.9638 0.2665
vn 0.1919 0.8469 -0.4959
vn -0.0975 0.9635 0.2494
vn -0 0.9638 0.2665
vn 0.0976 0.9635 0.2494
vn -0.1919 0.8469 -0.4959
vn -0 0.9638 0.2665
vn -0.1919 0.8469 -0.4959
vn -0 0.8375 -0.5464
vn -0.0001 0.8374 -0.5466
vn -0.192 0.8467 -0.4962
vn -0.3296 0.5803 -0.7447
vn -0.0001 0.8374 -0.5466
vn -0.3296 0.5803 -0.7447
vn -0.0001 0.5898 -0.8076
vn 0.0976 0.9635 0.2493
vn 0.1881 0.9627 0.1943
vn -0.3545 0.8576 -0.3726
vn 0.0976 0.9635 0.2493
vn -0.3545 0.8576 -0.3726
vn -0.192 0.8469 -0.4959
vn -0.192 0.8468 -0.496
vn -0.3546 0.8575 -0.3728
vn -0.5932 0.5684 -0.5701
vn -0.192 0.8468 -0.496
vn -0.5932 0.5684 -0.5701
vn -0.3301 0.5785 -0.7459
vn -0.3546 0.8575 -0.3727
vn -0.4837 0.8498 -0.2093
vn -0.7735 0.5595 -0.2976
vn -0.3546 0.8575 -0.3727
vn -0.7735 0.5595 -0.2976
vn -0.5934 0.5684 -0.5699
vn 0.1881 0.9627 0.1943
vn 0.2298 0.9686 0.0953
vn -0.4836 0.8499 -0.2092
vn 0.1881 0.9627 0.1943
vn -0.4836 0.8499 -0.2092
vn -0.3546 0.8576 -0.3725
vn 0.2298 0.9686 0.0952
vn 0.236 0.9717 -0.0001
vn -0.5427 0.8399 -0
vn 0.2298 0.9686 0.0952
vn -0.5427 0.8399 -0
vn -0.4836 0.85 -0.2091
vn -0.4837 0.8499 -0.2092
vn -0.5429 0.8398 -0.0001
vn -0.8331 0.5532 -0.0001
vn -0.4837 0.8499 -0.2092
vn -0.8331 0.5532 -0.0001
vn -0.7737 0.5594 -0.2974
vn -0.4837 0.8499 0.2092
vn -0.7737 0.5593 0.2975
vn -0.8332 0.553 0.0001
vn -0.4837 0.8499 0.2092
vn -0.8332 0.553 0.0001
vn -0.5429 0.8398 -0
vn 0.2298 0.9686 -0.0953
vn -0.4836 0.85 0.2091
vn -0.5427 0.8399 -0
vn 0.2298 0.9686 -0.0953
vn -0.5427 0.8399 -0
vn 0.236 0.9717 -0.0002
vn -0.3546 0.8575 0.3727
vn -0.5934 0.5684 0.5699
vn -0.7736 0.5594 0.2977
vn -0.3546 0.8575 0.3727
vn -0.7736 0.5594 0.2977
vn -0.4838 0.8498 0.2093
vn 0.1881 0.9627 -0.1943
vn -0.3545 0.8576 0.3726
vn -0.4836 0.8499 0.2092
vn 0.1881 0.9627 -0.1943
vn -0.4836 0.8499 0.2092
vn 0.2298 0.9686 -0.0953
vn -0.192 0.8468 0.496
vn -0.3299 0.5786 0.7459
vn -0.5932 0.5684 0.5701
vn -0.192 0.8468 0.496
vn -0.5932 0.5684 0.5701
vn -0.3547 0.8574 0.3728
vn -0 0.8374 0.5466
vn -0.0001 0.5898 0.8076
vn -0.3296 0.5786 0.746
vn -0 0.8374 0.5466
vn -0.3296 0.5786 0.746
vn -0.192 0.8468 0.4961
vn -0 0.9638 -0.2666
vn -0 0.8375 0.5464
vn -0.1919 0.8469 0.4959
vn -0 0.9638 -0.2666
vn -0.1919 0.8469 0.4959
vn 0.0974 0.9635 -0.2495
vn 0.0975 0.9635 -0.2494
vn -0.192 0.8469 0.4959
vn -0.3545 0.8576 0.3727
vn 0.0975 0.9635 -0.2494
vn -0.3545 0.8576 0.3727
vn 0.1881 0.9627 -0.1943
vn 0.2869 0.6397 -0.7131
vn -0 0.6463 -0.7631
vn -0 0.9638 -0.2666
vn 0.2869 0.6397 -0.7131
vn -0 0.9638 -0.2666
vn 0.0975 0.9634 -0.2495
vn 0.1881 0.9627 -0.1945
vn 0.5408 0.6323 -0.5547
vn 0.2869 0.6397 -0.7131
vn 0.1881 0.9627 -0.1945
vn 0.2869 0.6397 -0.7131
vn 0.0976 0.9634 -0.2495
vn 0.3738 -0.022 -0.9273
vn -0 -0.0213 -0.9998
vn 0.0001 0.6461 -0.7633
vn 0.3738 -0.022 -0.9273
vn 0.0001 0.6461 -0.7633
vn 0.2868 0.6396 -0.7132
vn 0.6987 -0.0238 -0.715
vn 0.3738 -0.022 -0.9272
vn 0.287 0.6396 -0.7131
vn 0.6987 -0.0238 -0.715
vn 0.287 0.6396 -0.7131
vn 0.5409 0.6322 -0.5548
vn -0.2865 0.6397 -0.7132
vn -0.0975 0.9634 -0.2495
vn -0.0001 0.9638 -0.2666
vn -0.2865 0.6397 -0.7132
vn -0.0001 0.9638 -0.2666
vn -0 0.6463 -0.7631
vn -0.3738 -0.022 -0.9273
vn -0.2865 0.6396 -0.7133
vn -0.0001 0.6462 -0.7632
vn -0.3738 -0.022 -0.9273
vn -0.0001 0.6462 -0.7632
vn -0 -0.0213 -0.9998
vn -0.2802 -0.6584 -0.6986
vn -0.3737 -0.0221 -0.9273
vn -0 -0.0214 -0.9998
vn -0.2802 -0.6584 -0.6986
vn -0 -0.0214 -0.9998
vn -0 -0.6612 -0.7502
vn 0.2803 -0.6584 -0.6985
vn 0.0001 -0.6612 -0.7502
vn 0.0001 -0.0214 -0.9998
vn 0.2803 -0.6584 -0.6985
vn 0.0001 -0.0214 -0.9998
vn 0.3737 -0.0221 -0.9273
vn -0.1315 -0.9359 -0.3269
vn -0.2802 -0.6585 -0.6984
vn -0 -0.6613 -0.7501
vn -0.1315 -0.9359 -0.3269
vn -0 -0.6613 -0.7501
vn -0 -0.9372 -0.3488
vn 0.1318 -0.9359 -0.3267
vn -0 -0.9372 -0.3488
vn -0 -0.6613 -0.7501
vn 0.1318 -0.9359 -0.3267
vn -0 -0.6613 -0.7501
vn 0.2803 -0.6585 -0.6984
vn 0.2457 -0.9359 -0.2526
vn 0.1318 -0.9359 -0.3267
vn 0.2803 -0.6585 -0.6984
vn 0.2457 -0.9359 -0.2526
vn 0.2803 -0.6585 -0.6984
vn 0.5263 -0.6548 -0.5424
vn 0.6987 -0.0239 -0.715
vn 0.5263 -0.6547 -0.5426
vn 0.2804 -0.6584 -0.6985
vn 0.6987 -0.0239 -0.715
vn 0.2804 -0.6584 -0.6985
vn 0.3738 -0.0221 -0.9272
vn 0.3141 -0.9403 -0.1312
vn 0.2457 -0.9359 -0.2526
vn 0.5263 -0.6548 -0.5425
vn 0.3141 -0.9403 -0.1312
vn 0.5263 -0.6548 -0.5425
vn 0.6883 -0.6652 -0.2895
vn 0.6883 -0.6651 -0.2896
vn 0.5264 -0.6547 -0.5424
vn 0.6987 -0.0239 -0.715
vn 0.6883 -0.6651 -0.2896
vn 0.6987 -0.0239 -0.715
vn 0.9225 -0.0242 -0.3853
vn 0.9225 -0.0241 -0.3852
vn 0.6987 -0.0238 -0.715
vn 0.541 0.6321 -0.5547
vn 0.9225 -0.0241 -0.3852
vn 0.541 0.6321 -0.5547
vn 0.7043 0.646 -0.2944
vn 0.7428 -0.6695 -0
vn 0.6884 -0.6651 -0.2894
vn 0.9225 -0.0243 -0.3852
vn 0.7428 -0.6695 -0
vn 0.9225 -0.0243 -0.3852
vn 0.9997 -0.023 -0.0001
vn 0.9997 -0.0229 -0
vn 0.9225 -0.0241 -0.3852
vn 0.7043 0.646 -0.2943
vn 0.9997 -0.0229 -0
vn 0.7043 0.646 -0.2943
vn 0.755 0.6557 -0.0001
vn 0.7549 0.6558 -0
vn 0.7042 0.6461 -0.2943
vn 0.2299 0.9685 -0.0953
vn 0.7549 0.6558 -0
vn 0.2299 0.9685 -0.0953
vn 0.2361 0.9717 -0.0002
vn 0.7042 0.6461 -0.2943
vn 0.5409 0.6323 -0.5547
vn 0.1882 0.9627 -0.1944
vn 0.7042 0.6461 -0.2943
vn 0.1882 0.9627 -0.1944
vn 0.2299 0.9685 -0.0954
vn 0.9997 -0.0229 -0
vn 0.755 0.6557 0.0001
vn 0.7043 0.646 0.2943
vn 0.9997 -0.0229 -0
vn 0.7043 0.646 0.2943
vn 0.9225 -0.0241 0.3852
vn 0.7549 0.6558 0.0001
vn 0.2361 0.9717 -0.0001
vn 0.2299 0.9685 0.0953
vn 0.7549 0.6558 0.0001
vn 0.2299 0.9685 0.0953
vn 0.7042 0.6461 0.2943
vn 0.9225 -0.0241 0.3853
vn 0.7043 0.646 0.2944
vn 0.541 0.6321 0.5547
vn 0.9225 -0.0241 0.3853
vn 0.541 0.6321 0.5547
vn 0.6987 -0.0238 0.715
vn 0.7042 0.6461 0.2943
vn 0.2299 0.9685 0.0954
vn 0.1882 0.9627 0.1944
vn 0.7042 0.6461 0.2943
vn 0.1882 0.9627 0.1944
vn 0.5409 0.6323 0.5547
vn 0.6987 -0.0238 0.715
vn 0.5409 0.6321 0.5548
vn 0.2866 0.6396 0.7133
vn 0.6987 -0.0238 0.715
vn 0.2866 0.6396 0.7133
vn 0.3737 -0.022 0.9273
vn 0.1881 0.9627 0.1945
vn 0.0976 0.9635 0.2494
vn 0.2865 0.6397 0.7132
vn 0.1881 0.9627 0.1945
vn 0.2865 0.6397 0.7132
vn 0.5408 0.6323 0.5547
vn 0.3738 -0.022 0.9273
vn 0.2865 0.6396 0.7134
vn 0.0001 0.6462 0.7632
vn 0.3738 -0.022 0.9273
vn 0.0001 0.6462 0.7632
vn -0 -0.0213 0.9998
vn 0.2864 0.6397 0.7132
vn 0.0975 0.9635 0.2494
vn 0.0001 0.9638 0.2665
vn 0.2864 0.6397 0.7132
vn 0.0001 0.9638 0.2665
vn -0 0.6463 0.7631
vn -0.3738 -0.022 0.9272
vn -0 -0.0213 0.9998
vn -0.0001 0.6462 0.7632
vn -0.3738 -0.022 0.9272
vn -0.0001 0.6462 0.7632
vn -0.2868 0.6396 0.7132
vn -0.2869 0.6397 0.7131
vn -0 0.6463 0.7631
vn -0.0001 0.9638 0.2665
vn -0.2869 0.6397 0.7131
vn -0.0001 0.9638 0.2665
vn -0.0975 0.9635 0.2494
vn -0.2803 -0.6584 0.6985
vn -0.0001 -0.6612 0.7502
vn -0.0001 -0.0214 0.9998
vn -0.2803 -0.6584 0.6985
vn -0.0001 -0.0214 0.9998
vn -0.3737 -0.0221 0.9273
vn 0.2802 -0.6584 0.6986
vn 0.3737 -0.0222 0.9273
vn -0 -0.0214 0.9998
vn 0.2802 -0.6584 0.6986
vn -0 -0.0214 0.9998
vn -0 -0.6612 0.7502
vn 0.1318 -0.9359 0.3267
vn 0.2802 -0.6585 0.6984
vn -0 -0.6613 0.7501
vn 0.1318 -0.9359 0.3267
vn -0 -0.6613 0.7501
vn -0 -0.9372 0.3488
vn -0.1318 -0.9359 0.3267
vn -0 -0.9372 0.3488
vn -0 -0.6613 0.7501
vn -0.1318 -0.9359 0.3267
vn -0 -0.6613 0.7501
vn -0.2803 -0.6585 0.6984
vn 0.6987 -0.0239 0.7151
vn 0.3738 -0.0221 0.9272
vn 0.2803 -0.6584 0.6985
vn 0.6987 -0.0239 0.7151
vn 0.2803 -0.6584 0.6985
vn 0.5259 -0.6547 0.543
vn 0.2457 -0.9359 0.2526
vn 0.5259 -0.6548 0.5428
vn 0.2802 -0.6585 0.6984
vn 0.2457 -0.9359 0.2526
vn 0.2802 -0.6585 0.6984
vn 0.1318 -0.9359 0.3267
vn 0.3141 -0.9403 0.1312
vn 0.6883 -0.6652 0.2894
vn 0.5259 -0.6548 0.5428
vn 0.3141 -0.9403 0.1312
vn 0.5259 -0.6548 0.5428
vn 0.2457 -0.9359 0.2526
vn 0.7427 -0.6696 -0
vn 0.6883 -0.6652 0.2894
vn 0.3141 -0.9403 0.1312
vn 0.7427 -0.6696 -0
vn 0.3141 -0.9403 0.1312
vn 0.3327 -0.943 -0
vn 0.7427 -0.6696 -0
vn 0.3327 -0.943 -0
vn 0.3141 -0.9403 -0.1312
vn 0.7427 -0.6696 -0
vn 0.3141 -0.9403 -0.1312
vn 0.6883 -0.6652 -0.2895
vn 0.7428 -0.6695 0.0001
vn 0.9997 -0.023 0.0001
vn 0.9225 -0.0242 0.3851
vn 0.7428 -0.6695 0.0001
vn 0.9225 -0.0242 0.3851
vn 0.6884 -0.6651 0.2894
vn 0.6883 -0.6651 0.2895
vn 0.9225 -0.0242 0.3853
vn 0.6987 -0.0239 0.715
vn 0.6883 -0.6651 0.2895
vn 0.6987 -0.0239 0.715
vn 0.526 -0.6547 0.5428
vn -0.2454 -0.9359 0.2528
vn -0.1318 -0.9359 0.3267
vn -0.2803 -0.6585 0.6984
vn -0.2454 -0.9359 0.2528
vn -0.2803 -0.6585 0.6984
vn -0.5263 -0.6548 0.5424
vn -0.6987 -0.0239 0.715
vn -0.5263 -0.6547 0.5426
vn -0.2804 -0.6584 0.6985
vn -0.6987 -0.0239 0.715
vn -0.2804 -0.6584 0.6985
vn -0.3738 -0.0221 0.9272
vn -0.3141 -0.9403 0.1312
vn -0.2454 -0.9359 0.2528
vn -0.5263 -0.6548 0.5424
vn -0.3141 -0.9403 0.1312
vn -0.5263 -0.6548 0.5424
vn -0.6883 -0.6652 0.2894
vn -0.6884 -0.6651 0.2895
vn -0.5265 -0.6547 0.5424
vn -0.6987 -0.0239 0.715
vn -0.6884 -0.6651 0.2895
vn -0.6987 -0.0239 0.715
vn -0.9225 -0.0242 0.3853
vn -0.7428 -0.6695 -0
vn -0.6884 -0.6651 0.2894
vn -0.9225 -0.0242 0.3852
vn -0.7428 -0.6695 -0
vn -0.9225 -0.0242 0.3852
vn -0.9997 -0.0231 0.0001
vn -0.7427 -0.6696 -0
vn -0.3327 -0.943 -0
vn -0.3141 -0.9403 0.1312
vn -0.7427 -0.6696 -0
vn -0.3141 -0.9403 0.1312
vn -0.6883 -0.6652 0.2894
vn -0.7427 -0.6696 -0
vn -0.6883 -0.6652 -0.2894
vn -0.3141 -0.9403 -0.1312
vn -0.7427 -0.6696 -0
vn -0.3141 -0.9403 -0.1312
vn -0.3327 -0.943 -0
vn -0.3141 -0.9403 -0.1312
vn -0.6883 -0.6652 -0.2894
vn -0.5263 -0.6548 -0.5424
vn -0.3141 -0.9403 -0.1312
vn -0.5263 -0.6548 -0.5424
vn -0.2455 -0.9359 -0.2527
vn -0.2455 -0.9359 -0.2527
vn -0.5263 -0.6548 -0.5424
vn -0.2802 -0.6585 -0.6984
vn -0.2455 -0.9359 -0.2527
vn -0.2802 -0.6585 -0.6984
vn -0.1315 -0.9359 -0.3269
vn -0.6986 -0.0239 -0.7151
vn -0.3739 -0.0221 -0.9272
vn -0.2803 -0.6585 -0.6985
vn -0.6986 -0.0239 -0.7151
vn -0.2803 -0.6585 -0.6985
vn -0.5263 -0.6547 -0.5426
vn -0.6884 -0.6651 -0.2895
vn -0.9225 -0.0242 -0.3853
vn -0.6987 -0.0239 -0.715
vn -0.6884 -0.6651 -0.2895
vn -0.6987 -0.0239 -0.715
vn -0.5264 -0.6547 -0.5425
vn -0.6987 -0.0238 -0.715
vn -0.5409 0.6322 -0.5548
vn -0.2866 0.6396 -0.7133
vn -0.6987 -0.0238 -0.715
vn -0.2866 0.6396 -0.7133
vn -0.3738 -0.022 -0.9273
vn -0.7428 -0.6695 -0.0001
vn -0.9997 -0.023 -0.0001
vn -0.9225 -0.0242 -0.3852
vn -0.7428 -0.6695 -0.0001
vn -0.9225 -0.0242 -0.3852
vn -0.6884 -0.6651 -0.2894
vn -0.1877 0.9627 -0.1947
vn -0.0976 0.9634 -0.2495
vn -0.2865 0.6397 -0.7132
vn -0.1877 0.9627 -0.1947
vn -0.2865 0.6397 -0.7132
vn -0.5409 0.6323 -0.5547
vn -0 0.9638 -0.2666
vn -0.0975 0.9634 -0.2495
vn 0.1919 0.8469 0.4959
vn -0 0.9638 -0.2666
vn 0.1919 0.8469 0.4959
vn -0 0.8375 0.5464
vn -0.0976 0.9635 -0.2494
vn -0.1877 0.9628 -0.1946
vn 0.3545 0.8576 0.3726
vn -0.0976 0.9635 -0.2494
vn 0.3545 0.8576 0.3726
vn 0.192 0.8469 0.4958
vn -0 0.8374 0.5466
vn 0.192 0.8467 0.4961
vn 0.3293 0.5804 0.7448
vn -0 0.8374 0.5466
vn 0.3293 0.5804 0.7448
vn 0.0002 0.5898 0.8076
vn 0.192 0.8468 0.496
vn 0.3546 0.8575 0.3728
vn 0.5932 0.5684 0.5701
vn 0.192 0.8468 0.496
vn 0.5932 0.5684 0.5701
vn 0.3299 0.5786 0.7459
vt 0.5 0
vt 1 0
vt 1 1
vt 0.5 0
vt 1 1
vt 0.5 1
vt 0 1
vt 0 0
vt 0.5 0
vt 0 1
vt 0.5 0
vt 0.5 1
vt 0.5 0
vt 1 0
vt 1 1
vt 0.5 0
vt 1 1
vt 0.5 1
vt 0.5 0
vt 0.5 1
vt 1 1
vt 0.5 0
vt 1 1
vt 1 0
vt 0 1
vt 0.5 1
vt 0.5 0
vt 0 1
vt 0.5 0
vt 0 0
vt 0.5 0
vt 0.5 1
vt 1 1
vt 0.5 0
vt 1 1
vt 1 0
vt 0.5 0
vt 0.5 1
vt 1 1
vt 0.5 0
vt 1 1
vt 1 0
vt 0.5 0
vt 1 0
vt 1 1
vt 0.5 0
vt 1 1
vt 0.5 1
vt 0 1
vt 0 0
vt 0.5 0
vt 0 1
vt 0.5 0
vt 0.5 1
vt 0.5 0
vt 1 0
vt 1 1
vt 0.5 0
vt 1 1
vt 0.5 1
vt 0 0
vt 0.5 0
vt 0.5 1
vt 0 0
vt 0.5 1
vt 0 1
vt 0 0
vt 0 1
vt 0.5 1
vt 0 0
vt 0.5 1
vt 0.5 0
vt 0 1
vt 0.5 1
vt 0.5 0
vt 0 1
vt 0.5 0
vt 0 0
vt 0.5 0
vt 0.5 1
vt 1 1
vt 0.5 0
vt 1 1
vt 1 0
vt 0 0
vt 0.5 0
vt 0.5 1
vt 0 0
vt 0.5 1
vt 0 1
vt 0 0
vt 0 1
vt 0.5 1
vt 0 0
vt 0.5 1
vt 0.5 0
vt 0.378255 0.245647
vt 0.375 0.1875
vt 0.4375 0.1875
vt 0.378255 0.245647
vt 0.4375 0.1875
vt 0.439127 0.24575
vt 0.439127 0.24575
vt 0.444009 0.264249
vt 0.388019 0.263839
vt 0.439127 0.24575
vt 0.388019 0.263839
vt 0.378255 0.245647
vt 0.378255 0.245647
vt 0.388019 0.263839
vt 0.332028 0.263429
vt 0.378255 0.245647
vt 0.332028 0.263429
vt 0.317382 0.245545
vt 0.3125 0.1875
vt 0.375 0.1875
vt 0.378255 0.245647
vt 0.3125 0.1875
vt 0.378255 0.245647
vt 0.317382 0.245545
vt 0.3125 0.125
vt 0.375 0.125
vt 0.375 0.1875
vt 0.3125 0.125
vt 0.375 0.1875
vt 0.3125 0.1875
vt 0.375 0.125
vt 0.4375 0.125
vt 0.4375 0.1875
vt 0.375 0.125
vt 0.4375 0.1875
vt 0.375 0.1875
vt 0.25 0.125
vt 0.3125 0.125
vt 0.3125 0.1875
vt 0.25 0.125
vt 0.3125 0.1875
vt 0.25 0.1875
vt 0.25 0.1875
vt 0.3125 0.1875
vt 0.317382 0.245545
vt 0.25 0.1875
vt 0.317382 0.245545
vt 0.259602 0.247029
vt 0.25 0.125
vt 0.25 0.1875
vt 0.3125 0.1875
vt 0.25 0.125
vt 0.3125 0.1875
vt 0.3125 0.125
vt 0.25 0.1875
vt 0.259602 0.247029
vt 0.317382 0.245545
vt 0.25 0.1875
vt 0.317382 0.245545
vt 0.3125 0.1875
vt 0.3125 0.125
vt 0.3125 0.1875
vt 0.375 0.1875
vt 0.3125 0.125
vt 0.375 0.1875
vt 0.375 0.125
vt 0.3125 0.1875
vt 0.317382 0.245545
vt 0.378255 0.245647
vt 0.3125 0.1875
vt 0.378255 0.245647
vt 0.375 0.1875
vt 0.378255 0.245647
vt 0.317382 0.245545
vt 0.332028 0.263429
vt 0.378255 0.245647
vt 0.332028 0.263429
vt 0.388019 0.263839
vt 0.317382 0.245545
vt 0.259602 0.247029
vt 0.288408 0.269368
vt 0.317382 0.245545
vt 0.288408 0.269368
vt 0.332028 0.263429
vt 0.388019 0.263839
vt 0.332028 0.263429
vt 0.36523 0.279788
vt 0.388019 0.263839
vt 0.36523 0.279788
vt 0.398 0.274231
vt 0.332028 0.263429
vt 0.288408 0.269368
vt 0.338862 0.294759
vt 0.332028 0.263429
vt 0.338862 0.294759
vt 0.36523 0.279788
vt 0.317382 0.245545
vt 0.332028 0.263429
vt 0.288408 0.269368
vt 0.317382 0.245545
vt 0.288408 0.269368
vt 0.259602 0.247029
vt 0.332028 0.263429
vt 0.36523 0.279788
vt 0.338862 0.294759
vt 0.332028 0.263429
vt 0.338862 0.294759
vt 0.288408 0.269368
vt 0.388019 0.263839
vt 0.398 0.274231
vt 0.36523 0.279788
vt 0.388019 0.263839
vt 0.36523 0.279788
vt 0.332028 0.263429
vt 0.444009 0.264249
vt 0.442706 0.280813
vt 0.398 0.274231
vt 0.444009 0.264249
vt 0.398 0.274231
vt 0.388019 0.263839
vt 0.500122 0.264393
vt 0.500244 0.284092
vt 0.442706 0.280813
vt 0.500122 0.264393
vt 0.442706 0.280813
vt 0.444009 0.264249
vt 0.50003 0.245786
vt 0.500122 0.264393
vt 0.444009 0.264249
vt 0.50003 0.245786
vt 0.444009 0.264249
vt 0.439127 0.24575
vt 0.50003 0.245786
vt 0.439127 0.24575
vt 0.444009 0.264249
vt 0.50003 0.245786
vt 0.444009 0.264249
vt 0.500122 0.264393
vt 0.500122 0.264393
vt 0.444009 0.264249
vt 0.442706 0.280813
vt 0.500122 0.264393
vt 0.442706 0.280813
vt 0.500244 0.284092
vt 0.439127 0.24575
vt 0.378255 0.245647
vt 0.388019 0.263839
vt 0.439127 0.24575
vt 0.388019 0.263839
vt 0.444009 0.264249
vt 0.444009 0.264249
vt 0.388019 0.263839
vt 0.398 0.274231
vt 0.444009 0.264249
vt 0.398 0.274231
vt 0.442706 0.280813
vt 0.388019 0.263839
vt 0.332028 0.263429
vt 0.36523 0.279788
vt 0.388019 0.263839
vt 0.36523 0.279788
vt 0.398 0.274231
vt 0.378255 0.245647
vt 0.317382 0.245545
vt 0.332028 0.263429
vt 0.378255 0.245647
vt 0.332028 0.263429
vt 0.388019 0.263839
vt 0.317382 0.245545
vt 0.259602 0.247029
vt 0.288408 0.269368
vt 0.317382 0.245545
vt 0.288408 0.269368
vt 0.332028 0.263429
vt 0.332028 0.263429
vt 0.288408 0.269368
vt 0.338862 0.294759
vt 0.332028 0.263429
vt 0.338862 0.294759
vt 0.36523 0.279788
vt 0.332028 0.263429
vt 0.36523 0.279788
vt 0.338862 0.294759
vt 0.332028 0.263429
vt 0.338862 0.294759
vt 0.288408 0.269368
vt 0.317382 0.245545
vt 0.332028 0.263429
vt 0.288408 0.269368
vt 0.317382 0.245545
vt 0.288408 0.269368
vt 0.259602 0.247029
vt 0.388019 0.263839
vt 0.398 0.274231
vt 0.36523 0.279788
vt 0.388019 0.263839
vt 0.36523 0.279788
vt 0.332028 0.263429
vt 0.378255 0.245647
vt 0.388019 0.263839
vt 0.332028 0.263429
vt 0.378255 0.245647
vt 0.332028 0.263429
vt 0.317382 0.245545
vt 0.444009 0.264249
vt 0.442706 0.280813
vt 0.398 0.274231
vt 0.444009 0.264249
vt 0.398 0.274231
vt 0.388019 0.263839
vt 0.500122 0.264393
vt 0.500244 0.284092
vt 0.442706 0.280813
vt 0.500122 0.264393
vt 0.442706 0.280813
vt 0.444009 0.264249
vt 0.50003 0.245786
vt 0.500122 0.264393
vt 0.444009 0.264249
vt 0.50003 0.245786
vt 0.444009 0.264249
vt 0.439127 0.24575
vt 0.439127 0.24575
vt 0.444009 0.264249
vt 0.388019 0.263839
vt 0.439127 0.24575
vt 0.388019 0.263839
vt 0.378255 0.245647
vt 0.4375 0.1875
vt 0.5 0.1875
vt 0.50003 0.245786
vt 0.4375 0.1875
vt 0.50003 0.245786
vt 0.439127 0.24575
vt 0.378255 0.245647
vt 0.375 0.1875
vt 0.4375 0.1875
vt 0.378255 0.245647
vt 0.4375 0.1875
vt 0.439127 0.24575
vt 0.4375 0.125
vt 0.5 0.125
vt 0.5 0.1875
vt 0.4375 0.125
vt 0.5 0.1875
vt 0.4375 0.1875
vt 0.375 0.125
vt 0.4375 0.125
vt 0.4375 0.1875
vt 0.375 0.125
vt 0.4375 0.1875
vt 0.375 0.1875
vt 0.4375 0.1875
vt 0.439127 0.24575
vt 0.50003 0.245786
vt 0.4375 0.1875
vt 0.50003 0.245786
vt 0.5 0.1875
vt 0.4375 0.125
vt 0.4375 0.1875
vt 0.5 0.1875
vt 0.4375 0.125
vt 0.5 0.1875
vt 0.5 0.125
vt 0.4375 0.0625
vt 0.4375 0.125
vt 0.5 0.125
vt 0.4375 0.0625
vt 0.5 0.125
vt 0.5 0.0625
vt 0.4375 0.0625
vt 0.5 0.0625
vt 0.5 0.125
vt 0.4375 0.0625
vt 0.5 0.125
vt 0.4375 0.125
vt 0.4375 0
vt 0.4375 0.0625
vt 0.5 0.0625
vt 0.4375 0
vt 0.5 0.0625
vt 0.5 0
vt 0.4375 0
vt 0.5 0
vt 0.5 0.0625
vt 0.4375 0
vt 0.5 0.0625
vt 0.4375 0.0625
vt 0.375 0
vt 0.4375 0
vt 0.4375 0.0625
vt 0.375 0
vt 0.4375 0.0625
vt 0.375 0.0625
vt 0.375 0.125
vt 0.375 0.0625
vt 0.4375 0.0625
vt 0.375 0.125
vt 0.4375 0.0625
vt 0.4375 0.125
vt 0.3125 0
vt 0.375 0
vt 0.375 0.0625
vt 0.3125 0
vt 0.375 0.0625
vt 0.3125 0.0625
vt 0.3125 0.0625
vt 0.375 0.0625
vt 0.375 0.125
vt 0.3125 0.0625
vt 0.375 0.125
vt 0.3125 0.125
vt 0.3125 0.125
vt 0.375 0.125
vt 0.375 0.1875
vt 0.3125 0.125
vt 0.375 0.1875
vt 0.3125 0.1875
vt 0.25 0.0625
vt 0.3125 0.0625
vt 0.3125 0.125
vt 0.25 0.0625
vt 0.3125 0.125
vt 0.25 0.125
vt 0.25 0.125
vt 0.3125 0.125
vt 0.3125 0.1875
vt 0.25 0.125
vt 0.3125 0.1875
vt 0.25 0.1875
vt 0.25 0.1875
vt 0.3125 0.1875
vt 0.317382 0.245545
vt 0.25 0.1875
vt 0.317382 0.245545
vt 0.259602 0.247029
vt 0.3125 0.1875
vt 0.375 0.1875
vt 0.378255 0.245647
vt 0.3125 0.1875
vt 0.378255 0.245647
vt 0.317382 0.245545
vt 0.25 0.125
vt 0.25 0.1875
vt 0.3125 0.1875
vt 0.25 0.125
vt 0.3125 0.1875
vt 0.3125 0.125
vt 0.25 0.1875
vt 0.259602 0.247029
vt 0.317382 0.245545
vt 0.25 0.1875
vt 0.317382 0.245545
vt 0.3125 0.1875
vt 0.3125 0.125
vt 0.3125 0.1875
vt 0.375 0.1875
vt 0.3125 0.125
vt 0.375 0.1875
vt 0.375 0.125
vt 0.3125 0.1875
vt 0.317382 0.245545
vt 0.378255 0.245647
vt 0.3125 0.1875
vt 0.378255 0.245647
vt 0.375 0.1875
vt 0.375 0.125
vt 0.375 0.1875
vt 0.4375 0.1875
vt 0.375 0.125
vt 0.4375 0.1875
vt 0.4375 0.125
vt 0.378255 0.245647
vt 0.439127 0.24575
vt 0.4375 0.1875
vt 0.378255 0.245647
vt 0.4375 0.1875
vt 0.375 0.1875
vt 0.4375 0.125
vt 0.4375 0.1875
vt 0.5 0.1875
vt 0.4375 0.125
vt 0.5 0.1875
vt 0.5 0.125
vt 0.4375 0.1875
vt 0.439127 0.24575
vt 0.50003 0.245786
vt 0.4375 0.1875
vt 0.50003 0.245786
vt 0.5 0.1875
vt 0.4375 0.125
vt 0.5 0.125
vt 0.5 0.1875
vt 0.4375 0.125
vt 0.5 0.1875
vt 0.4375 0.1875
vt 0.4375 0.1875
vt 0.5 0.1875
vt 0.50003 0.245786
vt 0.4375 0.1875
vt 0.50003 0.245786
vt 0.439127 0.24575
vt 0.4375 0.0625
vt 0.5 0.0625
vt 0.5 0.125
vt 0.4375 0.0625
vt 0.5 0.125
vt 0.4375 0.125
vt 0.4375 0.0625
vt 0.4375 0.125
vt 0.5 0.125
vt 0.4375 0.0625
vt 0.5 0.125
vt 0.5 0.0625
vt 0.4375 0
vt 0.4375 0.0625
vt 0.5 0.0625
vt 0.4375 0
vt 0.5 0.0625
vt 0.5 0
vt 0.4375 0
vt 0.5 0
vt 0.5 0.0625
vt 0.4375 0
vt 0.5 0.0625
vt 0.4375 0.0625
vt 0.375 0.125
vt 0.4375 0.125
vt 0.4375 0.0625
vt 0.375 0.125
vt 0.4375 0.0625
vt 0.375 0.0625
vt 0.375 0
vt 0.375 0.0625
vt 0.4375 0.0625
vt 0.375 0
vt 0.4375 0.0625
vt 0.4375 0
vt 0.3125 0
vt 0.3125 0.0625
vt 0.375 0.0625
vt 0.3125 0
vt 0.375 0.0625
vt 0.375 0
vt 0.25 0.0625
vt 0.3125 0.0625
vt 0.3125 0
vt 0.25 0.0625
vt 0.3125 0
vt 0.25 0
vt 0.25 0.0625
vt 0.25 0
vt 0.3125 0
vt 0.25 0.0625
vt 0.3125 0
vt 0.3125 0.0625
vt 0.25 0.0625
vt 0.25 0.125
vt 0.3125 0.125
vt 0.25 0.0625
vt 0.3125 0.125
vt 0.3125 0.0625
vt 0.3125 0.0625
vt 0.3125 0.125
vt 0.375 0.125
vt 0.3125 0.0625
vt 0.375 0.125
vt 0.375 0.0625
vt 0.375 0
vt 0.4375 0
vt 0.4375 0.0625
vt 0.375 0
vt 0.4375 0.0625
vt 0.375 0.0625
vt 0.375 0.125
vt 0.375 0.0625
vt 0.4375 0.0625
vt 0.375 0.125
vt 0.4375 0.0625
vt 0.4375 0.125
vt 0.3125 0
vt 0.375 0
vt 0.375 0.0625
vt 0.3125 0
vt 0.375 0.0625
vt 0.3125 0.0625
vt 0.3125 0.0625
vt 0.375 0.0625
vt 0.375 0.125
vt 0.3125 0.0625
vt 0.375 0.125
vt 0.3125 0.125
vt 0.25 0.0625
vt 0.3125 0.0625
vt 0.3125 0.125
vt 0.25 0.0625
vt 0.3125 0.125
vt 0.25 0.125
vt 0.25 0.0625
vt 0.25 0
vt 0.3125 0
vt 0.25 0.0625
vt 0.3125 0
vt 0.3125 0.0625
vt 0.25 0.0625
vt 0.3125 0.0625
vt 0.3125 0
vt 0.25 0.0625
vt 0.3125 0
vt 0.25 0
vt 0.3125 0
vt 0.3125 0.0625
vt 0.375 0.0625
vt 0.3125 0
vt 0.375 0.0625
vt 0.375 0
vt 0.375 0
vt 0.375 0.0625
vt 0.4375 0.0625
vt 0.375 0
vt 0.4375 0.0625
vt 0.4375 0
vt 0.375 0.125
vt 0.4375 0.125
vt 0.4375 0.0625
vt 0.375 0.125
vt 0.4375 0.0625
vt 0.375 0.0625
vt 0.3125 0.0625
vt 0.3125 0.125
vt 0.375 0.125
vt 0.3125 0.0625
vt 0.375 0.125
vt 0.375 0.0625
vt 0.375 0.125
vt 0.375 0.1875
vt 0.4375 0.1875
vt 0.375 0.125
vt 0.4375 0.1875
vt 0.4375 0.125
vt 0.25 0.0625
vt 0.25 0.125
vt 0.3125 0.125
vt 0.25 0.0625
vt 0.3125 0.125
vt 0.3125 0.0625
vt 0.378255 0.245647
vt 0.439127 0.24575
vt 0.4375 0.1875
vt 0.378255 0.245647
vt 0.4375 0.1875
vt 0.375 0.1875
vt 0.50003 0.245786
vt 0.439127 0.24575
vt 0.444009 0.264249
vt 0.50003 0.245786
vt 0.444009 0.264249
vt 0.500122 0.264393
vt 0.439127 0.24575
vt 0.378255 0.245647
vt 0.388019 0.263839
vt 0.439127 0.24575
vt 0.388019 0.263839
vt 0.444009 0.264249
vt 0.500122 0.264393
vt 0.444009 0.264249
vt 0.442706 0.280813
vt 0.500122 0.264393
vt 0.442706 0.280813
vt 0.500244 0.284092
vt 0.444009 0.264249
vt 0.388019 0.263839
vt 0.398 0.274231
vt 0.444009 0.264249
vt 0.398 0.274231
vt 0.442706 0.280813
s off
f 1/1/1 2/2/2 3/3/3
f 4/4/4 5/5/5 6/6/6
f 7/7/7 8/8/8 9/9/9
f 10/10/10 11/11/11 12/12/12
f 13/13/13 14/14/14 15/15/15
f 16/16/16 17/17/17 18/18/18
f 19/19/19 20/20/20 21/21/21
f 22/22/22 23/23/23 24/24/24
f 25/25/25 26/26/26 27/27/27
f 28/28/28 29/29/29 30/30/30
f 31/31/31 32/32/32 33/33/33
f 34/34/34 35/35/35 36/36/36
f 37/37/37 38/38/38 39/39/39
f 40/40/40 41/41/41 42/42/42
f 43/43/43 44/44/44 45/45/45
f 46/46/46 47/47/47 48/48/48
f 49/49/49 50/50/50 51/51/51
f 52/52/52 53/53/53 54/54/54
f 55/55/55 56/56/56 57/57/57
f 58/58/58 59/59/59 60/60/60
f 61/61/61 62/62/62 63/63/63
f 64/64/64 65/65/65 66/66/66
f 67/67/67 68/68/68 69/69/69
f 70/70/70 71/71/71 72/72/72
f 73/73/73 74/74/74 75/75/75
f 76/76/76 77/77/77 78/78/78
f 79/79/79 80/80/80 81/81/81
f 82/82/82 83/83/83 84/84/84
f 85/85/85 86/86/86 87/87/87
f 88/88/88 89/89/89 90/90/90
f 91/91/91 92/92/92 93/93/93
f 94/94/94 95/95/95 96/96/96
f 97/97/97 98/98/98 99/99/99
f 100/100/100 101/101/101 102/102/102
f 103/103/103 104/104/104 105/105/105
f 106/106/106 107/107/107 108/108/108
f 109/109/109 110/110/110 111/111/111
f 112/112/112 113/113/113 114/114/114
f 115/115/115 116/116/116 117/117/117
f 118/118/118 119/119/119 120/120/120
f 121/121/121 122/122/122 123/123/123
f 124/124/124 125/125/125 126/126/126
f 127/127/127 128/128/128 129/129/129
f 130/130/130 131/131/131 132/132/132
f 133/133/133 134/134/134 135/135/135
f 136/136/136 137/137/137 138/138/138
f 139/139/139 140/140/140 141/141/141
f 142/142/142 143/143/143 144/144/144
f 145/145/145 146/146/146 147/147/147
f 148/148/148 149/149/149 150/150/150
f 151/151/151 152/152/152 153/153/153
f 154/154/154 155/155/155 156/156/156
f 157/157/157 158/158/158 159/159/159
f 160/160/160 161/161/161 162/162/162
f 163/163/163 164/164/164 165/165/165
f 166/166/166 167/167/167 168/168/168
f 169/169/169 170/170/170 171/171/171
f 172/172/172 173/173/173 174/174/174
f 175/175/175 176/176/176 177/177/177
f 178/178/178 179/179/179 180/180/180
f 181/181/181 182/182/182 183/183/183
f 184/184/184 185/185/185 186/186/186
f 187/187/187 188/188/188 189/189/189
f 190/190/190 191/191/191 192/192/192
f 193/193/193 194/194/194 195/195/195
f 196/196/196 197/197/197 198/198/198
f 199/199/199 200/200/200 201/201/201
f 202/202/202 203/203/203 204/204/204
f 205/205/205 206/206/206 207/207/207
f 208/208/208 209/209/209 210/210/210
f 211/211/211 212/212/212 213/213/213
f 214/214/214 215/215/215 216/216/216
f 217/217/217 218/218/218 219/219/219
f 220/220/220 221/221/221 222/222/222
f 223/223/223 224/224/224 225/225/225
f 226/226/226 227/227/227 228/228/228
f 229/229/229 230/230/230 231/231/231
f 232/232/232 233/233/233 234/234/234
f 235/235/235 236/236/236 237/237/237
f 238/238/238 239/239/239 240/240/240
f 241/241/241 242/242/242 243/243/243
f 244/244/244 245/245/245 246/246/246
f 247/247/247 248/248/248 249/249/249
f 250/250/250 251/251/251 252/252/252
f 253/253/253 254/254/254 255/255/255
f 256/256/256 257/257/257 258/258/258
f 259/259/259 260/260/260 261/261/261
f 262/262/262 263/263/263 264/264/264
f 265/265/265 266/266/266 267/267/267
f 268/268/268 269/269/269 270/270/270
f 271/271/271 272/272/272 273/273/273
f 274/274/274 275/275/275 276/276/276
f 277/277/277 278/278/278 279/279/279
f 280/280/280 281/281/281 282/282/282
f 283/283/283 284/284/284 285/285/285
f 286/286/286 287/287/287 288/288/288
f 289/289/289 290/290/290 291/291/291
f 292/292/292 293/293/293 294/294/294
f 295/295/295 296/296/296 297/297/297
f 298/298/298 299/299/299 300/300/300
f 301/301/301 302/302/302 303/303/303
f 304/304/304 305/305/305 306/306/306
f 307/307/307 308/308/308 309/309/309
f 310/310/310 311/311/311 312/312/312
f 313/313/313 314/314/314 315/315/315
f 316/316/316 317/317/317 318/318/318
f 319/319/319 320/320/320 321/321/321
f 322/322/322 323/323/323 324/324/324
f 325/325/325 326/326/326 327/327/327
f 328/328/328 329/329/329 330/330/330
f 331/331/331 332/332/332 333/333/333
f 334/334/334 335/335/335 336/336/336
f 337/337/337 338/338/338 339/339/339
f 340/340/340 341/341/341 342/342/342
f 343/343/343 344/344/344 345/345/345
f 346/346/346 347/347/347 348/348/348
f 349/349/349 350/350/350 351/351/351
f 352/352/352 353/353/353 354/354/354
f 355/355/355 356/356/356 357/357/357
f 358/358/358 359/359/359 360/360/360
f 361/361/361 362/362/362 363/363/363
f 364/364/364 365/365/365 366/366/366
f 367/367/367 368/368/368 369/369/369
f 370/370/370 371/371/371 372/372/372
f 373/373/373 374/374/374 375/375/375
f 376/376/376 377/377/377 378/378/378
f 379/379/379 380/380/380 381/381/381
f 382/382/382 383/383/383 384/384/384
f 385/385/385 386/386/386 387/387/387
f 388/388/388 389/389/389 390/390/390
f 391/391/391 392/392/392 393/393/393
f 394/394/394 395/395/395 396/396/396
f 397/397/397 398/398/398 399/399/399
f 400/400/400 401/401/401 402/402/402
f 403/403/403 404/404/404 405/405/405
f 406/406/406 407/407/407 408/408/408
f 409/409/409 410/410/410 411/411/411
f 412/412/412 413/413/413 414/414/414
f 415/415/415 416/416/416 417/417/417
f 418/418/418 419/419/419 420/420/420
f 421/421/421 422/422/422 423/423/423
f 424/424/424 425/425/425 426/426/426
f 427/427/427 428/428/428 429/429/429
f 430/430/430 431/431/431 432/432/432
f 433/433/433 434/434/434 435/435/435
f 436/436/436 437/437/437 438/438/438
f 439/439/439 440/440/440 441/441/441
f 442/442/442 443/443/443 444/444/444
f 445/445/445 446/446/446 447/447/447
f 448/448/448 449/449/449 450/450/450
f 451/451/451 452/452/452 453/453/453
f 454/454/454 455/455/455 456/456/456
f 457/457/457 458/458/458 459/459/459
f 460/460/460 461/461/461 462/462/462
f 463/463/463 464/464/464 465/465/465
f 466/466/466 467/467/467 468/468/468
f 469/469/469 470/470/470 471/471/471
f 472/472/472 473/473/473 474/474/474
f 475/475/475 476/476/476 477/477/477
f 478/478/478 479/479/479 480/480/480
f 481/481/481 482/482/482 483/483/483
f 484/484/484 485/485/485 486/486/486
f 487/487/487 488/488/488 489/489/489
f 490/490/490 491/491/491 492/492/492
f 493/493/493 494/494/494 495/495/495
f 496/496/496 497/497/497 498/498/498
f 499/499/499 500/500/500 501/501/501
f 502/502/502 503/503/503 504/504/504
f 505/505/505 506/506/506 507/507/507
f 508/508/508 509/509/509 510/510/510
f 511/511/511 512/512/512 513/513/513
f 514/514/514 515/515/515 516/516/516
f 517/517/517 518/518/518 519/519/519
f 520/520/520 521/521/521 522/522/522
f 523/523/523 524/524/524 525/525/525
f 526/526/526 527/527/527 528/528/528
f 529/529/529 530/530/530 531/531/531
f 532/532/532 533/533/533 534/534/534
f 535/535/535 536/536/536 537/537/537
f 538/538/538 539/539/539 540/540/540
f 541/541/541 542/542/542 543/543/543
f 544/544/544 545/545/545 546/546/546
f 547/547/547 548/548/548 549/549/549
f 550/550/550 551/551/551 552/552/552
f 553/553/553 554/554/554 555/555/555
f 556/556/556 557/557/557 558/558/558
f 559/559/559 560/560/560 561/561/561
f 562/562/562 563/563/563 564/564/564
f 565/565/565 566/566/566 567/567/567
f 568/568/568 569/569/569 570/570/570
f 571/571/571 572/572/572 573/573/573
f 574/574/574 575/575/575 576/576/576
f 577/577/577 578/578/578 579/579/579
f 580/580/580 581/581/581 582/582/582
f 583/583/583 584/584/584 585/585/585
f 586/586/586 587/587/587 588/588/588
f 589/589/589 590/590/590 591/591/591
f 592/592/592 593/593/593 594/594/594
f 595/595/595 596/596/596 597/597/597
f 598/598/598 599/599/599 600/600/600
f 601/601/601 602/602/602 603/603/603
f 604/604/604 605/605/605 606/606/606
f 607/607/607 608/608/608 609/609/609
f 610/610/610 611/611/611 612/612/612
f 613/613/613 614/614/614 615/615/615
f 616/616/616 617/617/617 618/618/618
f 619/619/619 620/620/620 621/621/621
f 622/622/622 623/623/623 624/624/624
f 625/625/625 626/626/626 627/627/627
f 628/628/628 629/629/629 630/630/630
f 631/631/631 632/632/632 633/633/633
f 634/634/634 635/635/635 636/636/636
f 637/637/637 638/638/638 639/639/639
f 640/640/640 641/641/641 642/642/642
f 643/643/643 644/644/644 645/645/645
f 646/646/646 647/647/647 648/648/648
f 649/649/649 650/650/650 651/651/651
f 652/652/652 653/653/653 654/654/654
f 655/655/655 656/656/656 657/657/657
f 658/658/658 659/659/659 660/660/660
f 661/661/661 662/662/662 663/663/663
f 664/664/664 665/665/665 666/666/666
f 667/667/667 668/668/668 669/669/669
f 670/670/670 671/671/671 672/672/672
