# Blender 5.2.0 LTS
# www.blender.org
mtllib thumbstick_right_cap.mtl
o thumbstick_right.001
v 0.000001 0.158825 0.038617
v 0.035722 0.159928 0.036197
v 0.038296 0.158831 -0.000007
v 0.000001 0.157363 -0.000007
v 0.000001 0.158825 0.038617
v 0.000001 0.157363 -0.000007
v -0.038297 0.158831 -0.000007
v -0.035722 0.159928 0.036197
v 0.000001 0.158825 -0.038632
v -0.035722 0.159928 -0.036212
v -0.038297 0.158831 -0.000007
v 0.000001 0.157363 -0.000007
v 0.000001 0.158825 -0.038632
v 0.000001 0.157363 -0.000007
v 0.038296 0.158831 -0.000007
v 0.035722 0.159928 -0.036212
v 0.000001 0.164005 -0.080472
v 0.000001 0.158825 -0.038632
v 0.035722 0.159928 -0.036212
v 0.030329 0.164131 -0.074481
v 0.000001 0.164005 -0.080472
v -0.030329 0.164131 -0.074481
v -0.035722 0.159928 -0.036212
v 0.000001 0.158825 -0.038632
v 0.030329 0.164131 -0.074481
v 0.035722 0.159928 -0.036212
v 0.073583 0.164349 -0.031445
v 0.056237 0.164252 -0.057265
v 0.035722 0.159928 -0.036212
v 0.038296 0.158831 -0.000007
v 0.079729 0.164408 -0.000008
v 0.073583 0.164349 -0.031445
v 0.035722 0.159928 0.036197
v 0.073583 0.164349 0.031430
v 0.079729 0.164408 -0.000008
v 0.038296 0.158831 -0.000007
v 0.030329 0.164131 0.074466
v 0.056237 0.164252 0.057250
v 0.073583 0.164349 0.031430
v 0.035722 0.159928 0.036197
v 0.000001 0.164005 0.080457
v 0.030329 0.164131 0.074466
v 0.035722 0.159928 0.036197
v 0.000001 0.158825 0.038617
v 0.000001 0.164005 0.080457
v 0.000001 0.158825 0.038617
v -0.035722 0.159928 0.036197
v -0.030329 0.164131 0.074466
v -0.030329 0.164131 0.074466
v -0.035722 0.159928 0.036197
v -0.073583 0.164349 0.031430
v -0.056237 0.164252 0.057250
v -0.035722 0.159928 0.036197
v -0.038297 0.158831 -0.000007
v -0.079730 0.164408 -0.000008
v -0.073583 0.164349 0.031430
v -0.035722 0.159928 -0.036212
v -0.073583 0.164349 -0.031445
v -0.079730 0.164408 -0.000008
v -0.038297 0.158831 -0.000007
v -0.030329 0.164131 -0.074481
v -0.056237 0.164252 -0.057265
v -0.073583 0.164349 -0.031445
v -0.035722 0.159928 -0.036212
vn -0.0000 0.9970 -0.0779
vn -0.0723 0.9950 -0.0682
vn -0.0828 0.9966 -0.0000
vn -0.0000 1.0000 -0.0000
vn 0.0829 0.9966 -0.0000
vn 0.0723 0.9950 -0.0682
vn -0.0000 0.9970 0.0778
vn 0.0723 0.9950 0.0682
vn -0.0723 0.9950 0.0682
vn -0.0000 0.9929 0.1186
vn -0.0504 0.9922 0.1144
vn 0.0504 0.9922 0.1144
vn -0.1219 0.9914 0.0478
vn -0.1051 0.9893 0.1006
vn -0.1270 0.9919 -0.0000
vn -0.1219 0.9914 -0.0478
vn -0.0504 0.9922 -0.1144
vn -0.1052 0.9893 -0.1006
vn -0.0000 0.9929 -0.1186
vn 0.0504 0.9922 -0.1144
vn 0.1219 0.9914 -0.0478
vn 0.1051 0.9894 -0.1006
vn 0.1270 0.9919 -0.0000
vn 0.1219 0.9914 0.0478
vn 0.1052 0.9893 0.1006
vt 0.500365 0.685599
vt 0.575683 0.698722
vt 0.588297 0.668657
vt 0.500426 0.646287
vt 0.500244 0.715908
vt 0.558268 0.719674
vt 0.636963 0.721308
vt 0.603461 0.726500
vt 0.659790 0.702614
s 1
f 1/1/1 2/2/2 3/3/3
f 1/1/1 3/3/3 4/4/4
f 5/1/1 6/4/4 7/3/5
f 5/1/1 7/3/5 8/2/6
f 9/1/7 10/2/8 11/3/5
f 9/1/7 11/3/5 12/4/4
f 13/1/7 14/4/4 15/3/3
f 13/1/7 15/3/3 16/2/9
f 17/5/10 18/1/7 19/2/9
f 17/5/10 19/2/9 20/6/11
f 21/5/10 22/6/12 23/2/8
f 21/5/10 23/2/8 24/1/7
f 25/6/11 26/2/9 27/7/13
f 25/6/11 27/7/13 28/8/14
f 29/2/9 30/3/3 31/9/15
f 29/2/9 31/9/15 32/7/13
f 33/2/2 34/7/16 35/9/15
f 33/2/2 35/9/15 36/3/3
f 37/6/17 38/8/18 39/7/16
f 37/6/17 39/7/16 40/2/2
f 41/5/19 42/6/17 43/2/2
f 41/5/19 43/2/2 44/1/1
f 45/5/19 46/1/1 47/2/6
f 45/5/19 47/2/6 48/6/20
f 49/6/20 50/2/6 51/7/21
f 49/6/20 51/7/21 52/8/22
f 53/2/6 54/3/5 55/9/23
f 53/2/6 55/9/23 56/7/21
f 57/2/8 58/7/24 59/9/23
f 57/2/8 59/9/23 60/3/5
f 61/6/12 62/8/25 63/7/24
f 61/6/12 63/7/24 64/2/8
