v 0.200578 0.051517 0.545006
v 0.18878 0.044243 0.546094
v 0.215979 0.03089 0.586972
v 0.226786 0.039969 0.580203
v 0.226786 0.039969 0.580203
v 0.26942 0.032982 0.593308
v 0.285778 0.056112 0.502017
v 0.200578 0.051517 0.545006
v 0.226786 0.039969 0.580203
v 0.215979 0.03089 0.586972
v 0.268936 0.022227 0.603986
v 0.26942 0.032982 0.593308
v 0.18878 0.044243 0.546094
v 0.186456 0.0322 0.543196
v 0.216206 0.016982 0.586052
v 0.215979 0.03089 0.586972
v 0.215979 0.03089 0.586972
v 0.216206 0.016982 0.586052
v 0.267824 0.009145 0.601932
v 0.268936 0.022227 0.603986
v 0.268936 0.022227 0.603986
v 0.267824 0.009145 0.601932
v 0.4122 0.007563 0.578733
v 0.412767 0.018994 0.579406
v 0.4122 0.007563 0.578733
v 0.556194 0.003407 0.553582
v 0.556368 0.01537 0.553589
v 0.412767 0.018994 0.579406
v 0.556368 0.01537 0.553589
v 0.556194 0.003407 0.553582
v 0.604033 0.008241 0.52099
v 0.602624 0.019486 0.522333
v 0.602624 0.019486 0.522333
v 0.604033 0.008241 0.52099
v 0.619409 0.019339 0.474897
v 0.617264 0.030512 0.477926
v 0.617264 0.030512 0.477926
v 0.619409 0.019339 0.474897
v 0.597905 0.058225 0.336352
v 0.595589 0.069659 0.339795
v 0.597905 0.058225 0.336352
v 0.575098 0.097135 0.198031
v 0.573085 0.108065 0.20159
v 0.595589 0.069659 0.339795
v 0.573085 0.108065 0.20159
v 0.575098 0.097135 0.198031
v 0.548516 0.110969 0.154487
v 0.547289 0.121525 0.159605
v 0.547289 0.121525 0.159605
v 0.548516 0.110969 0.154487
v 0.495017 0.120417 0.135524
v 0.495836 0.130339 0.141068
v 0.495836 0.130339 0.141068
v 0.495017 0.120417 0.135524
v 0.348609 0.12445 0.159292
v 0.349622 0.134433 0.163673
v 0.348609 0.12445 0.159292
v 0.202323 0.125478 0.184065
v 0.203602 0.136893 0.187729
v 0.349622 0.134433 0.163673
v 0.203602 0.136893 0.187729
v 0.202323 0.125478 0.184065
v 0.153794 0.119343 0.219952
v 0.156289 0.133353 0.224528
v 0.156289 0.133353 0.224528
v 0.153794 0.119343 0.219952
v 0.141367 0.108487 0.268944
v 0.144067 0.121707 0.272405
v 0.144067 0.121707 0.272405
v 0.141367 0.108487 0.268944
v 0.163993 0.071935 0.408153
v 0.166042 0.083129 0.409357
v 0.163993 0.071935 0.408153
v 0.186456 0.0322 0.543196
v 0.18878 0.044243 0.546094
v 0.166042 0.083129 0.409357
v 0.160105 0.127685 0.273112
v 0.144067 0.121707 0.272405
v 0.166042 0.083129 0.409357
v 0.180343 0.089609 0.409064
v 0.166042 0.083129 0.409357
v 0.18878 0.044243 0.546094
v 0.200578 0.051517 0.545006
v 0.180343 0.089609 0.409064
v 0.25231 0.117154 0.284382
v 0.160105 0.127685 0.273112
v 0.180343 0.089609 0.409064
v 0.275161 0.086343 0.392418
v 0.180343 0.089609 0.409064
v 0.200578 0.051517 0.545006
v 0.285778 0.056112 0.502017
v 0.275161 0.086343 0.392418
v 0.366282 0.111622 0.270371
v 0.25231 0.117154 0.284382
v 0.275161 0.086343 0.392418
v 0.382219 0.082498 0.374215
v 0.382219 0.082498 0.374215
v 0.275161 0.086343 0.392418
v 0.285778 0.056112 0.502017
v 0.397929 0.053585 0.477344
v 0.512049 0.047761 0.464379
v 0.489506 0.078442 0.35673
v 0.382219 0.082498 0.374215
v 0.397929 0.053585 0.477344
v 0.489506 0.078442 0.35673
v 0.47875 0.108968 0.246074
v 0.366282 0.111622 0.270371
v 0.382219 0.082498 0.374215
v 0.26942 0.032982 0.593308
v 0.411674 0.02797 0.568762
v 0.397929 0.053585 0.477344
v 0.285778 0.056112 0.502017
v 0.411674 0.02797 0.568762
v 0.553923 0.022957 0.544212
v 0.512049 0.047761 0.464379
v 0.397929 0.053585 0.477344
v 0.553923 0.022957 0.544212
v 0.595008 0.026531 0.518213
v 0.606822 0.036052 0.479255
v 0.512049 0.047761 0.464379
v 0.606822 0.036052 0.479255
v 0.585 0.074541 0.342253
v 0.489506 0.078442 0.35673
v 0.512049 0.047761 0.464379
v 0.595008 0.026531 0.518213
v 0.602624 0.019486 0.522333
v 0.617264 0.030512 0.477926
v 0.606822 0.036052 0.479255
v 0.606822 0.036052 0.479255
v 0.617264 0.030512 0.477926
v 0.595589 0.069659 0.339795
v 0.585 0.074541 0.342253
v 0.585 0.074541 0.342253
v 0.56318 0.113029 0.205248
v 0.47875 0.108968 0.246074
v 0.489506 0.078442 0.35673
v 0.595589 0.069659 0.339795
v 0.573085 0.108065 0.20159
v 0.56318 0.113029 0.205248
v 0.585 0.074541 0.342253
v 0.56318 0.113029 0.205248
v 0.540452 0.124618 0.168903
v 0.49602 0.132735 0.151947
v 0.47875 0.108968 0.246074
v 0.56318 0.113029 0.205248
v 0.573085 0.108065 0.20159
v 0.547289 0.121525 0.159605
v 0.540452 0.124618 0.168903
v 0.540452 0.124618 0.168903
v 0.547289 0.121525 0.159605
v 0.495836 0.130339 0.141068
v 0.49602 0.132735 0.151947
v 0.47875 0.108968 0.246074
v 0.49602 0.132735 0.151947
v 0.351849 0.137869 0.176808
v 0.366282 0.111622 0.270371
v 0.49602 0.132735 0.151947
v 0.495836 0.130339 0.141068
v 0.349622 0.134433 0.163673
v 0.351849 0.137869 0.176808
v 0.351849 0.137869 0.176808
v 0.20767 0.14294 0.201642
v 0.25231 0.117154 0.284382
v 0.366282 0.111622 0.270371
v 0.349622 0.134433 0.163673
v 0.203602 0.136893 0.187729
v 0.20767 0.14294 0.201642
v 0.351849 0.137869 0.176808
v 0.20767 0.14294 0.201642
v 0.17157 0.137014 0.234806
v 0.160105 0.127685 0.273112
v 0.25231 0.117154 0.284382
v 0.20767 0.14294 0.201642
v 0.203602 0.136893 0.187729
v 0.156289 0.133353 0.224528
v 0.17157 0.137014 0.234806
v 0.17157 0.137014 0.234806
v 0.156289 0.133353 0.224528
v 0.144067 0.121707 0.272405
v 0.160105 0.127685 0.273112
v 0.553923 0.022957 0.544212
v 0.556368 0.01537 0.553589
v 0.602624 0.019486 0.522333
v 0.595008 0.026531 0.518213
v 0.412767 0.018994 0.579406
v 0.556368 0.01537 0.553589
v 0.553923 0.022957 0.544212
v 0.411674 0.02797 0.568762
v 0.26942 0.032982 0.593308
v 0.268936 0.022227 0.603986
v 0.412767 0.018994 0.579406
v 0.411674 0.02797 0.568762
vn -0.0144 0.9587 0.2841
vn -0.7536 0.5399 0.375
vn -0.513 0.3424 0.7871
vn 0.0186 0.9406 0.339
vn 0.0186 0.9406 0.339
vn 0.0767 0.9354 0.3453
vn 0.0784 0.963 0.258
vn -0.0144 0.9587 0.2841
vn 0.0186 0.9406 0.339
vn -0.513 0.3424 0.7871
vn 0.0563 0.3361 0.9401
vn 0.0767 0.9354 0.3453
vn -0.7536 0.5399 0.375
vn -0.945 0.1017 0.3109
vn -0.557 -0.0646 0.828
vn -0.513 0.3424 0.7871
vn -0.513 0.3424 0.7871
vn -0.557 -0.0646 0.828
vn 0.0201 -0.115 0.9932
vn 0.0563 0.3361 0.9401
vn 0.0563 0.3361 0.9401
vn 0.0201 -0.115 0.9932
vn 0.1669 -0.0786 0.9828
vn 0.1673 0.4065 0.8982
vn 0.1669 -0.0786 0.9828
vn 0.2832 -0.0303 0.9586
vn 0.2585 0.4034 0.8777
vn 0.1673 0.4065 0.8982
vn 0.2585 0.4034 0.8777
vn 0.2832 -0.0303 0.9586
vn 0.7761 0.0307 0.6299
vn 0.6843 0.3732 0.6265
vn 0.6843 0.3732 0.6265
vn 0.7761 0.0307 0.6299
vn 0.9817 0.19 0.0115
vn 0.8299 0.5458 0.1161
vn 0.8299 0.5458 0.1161
vn 0.9817 0.19 0.0115
vn 0.9714 0.2181 -0.0941
vn 0.7989 0.6001 0.0408
vn 0.9714 0.2181 -0.0941
vn 0.9529 0.2422 -0.1828
vn 0.7999 0.5987 -0.0407
vn 0.7989 0.6001 0.0408
vn 0.7999 0.5987 -0.0407
vn 0.9529 0.2422 -0.1828
vn 0.6385 0.39 -0.6635
vn 0.5644 0.6787 -0.4699
vn 0.5644 0.6787 -0.4699
vn 0.6385 0.39 -0.6635
vn 0.0098 0.4589 -0.8884
vn 0.0337 0.7758 -0.6301
vn 0.0337 0.7758 -0.6301
vn 0.0098 0.4589 -0.8884
vn -0.1387 0.4067 -0.903
vn -0.0816 0.7772 -0.6239
vn -0.1387 0.4067 -0.903
vn -0.3035 0.3596 -0.8824
vn -0.2123 0.7399 -0.6383
vn -0.0816 0.7772 -0.6239
vn -0.2123 0.7399 -0.6383
vn -0.3035 0.3596 -0.8824
vn -0.8092 0.3012 -0.5045
vn -0.6461 0.6957 -0.314
vn -0.6461 0.6957 -0.314
vn -0.8092 0.3012 -0.5045
vn -0.98 0.1789 0.0872
vn -0.7439 0.6354 0.2072
vn -0.7439 0.6354 0.2072
vn -0.98 0.1789 0.0872
vn -0.9684 0.1484 0.2003
vn -0.7317 0.6162 0.2912
vn -0.9684 0.1484 0.2003
vn -0.945 0.1017 0.3109
vn -0.7536 0.5399 0.375
vn -0.7317 0.6162 0.2912
vn -0.0093 0.965 0.262
vn -0.7439 0.6354 0.2072
vn -0.7317 0.6162 0.2912
vn 0.0034 0.9632 0.2686
vn -0.7317 0.6162 0.2912
vn -0.7536 0.5399 0.375
vn -0.0144 0.9587 0.2841
vn 0.0034 0.9632 0.2686
vn 0.0784 0.963 0.258
vn -0.0093 0.965 0.262
vn 0.0034 0.9632 0.2686
vn 0.0784 0.9629 0.258
vn 0.0034 0.9632 0.2686
vn -0.0144 0.9587 0.2841
vn 0.0784 0.963 0.258
vn 0.0784 0.9629 0.258
vn 0.0785 0.963 0.258
vn 0.0784 0.963 0.258
vn 0.0784 0.9629 0.258
vn 0.0785 0.9629 0.258
vn 0.0785 0.9629 0.258
vn 0.0784 0.9629 0.258
vn 0.0784 0.963 0.258
vn 0.0785 0.9629 0.258
vn 0.0785 0.9629 0.2581
vn 0.0785 0.9629 0.258
vn 0.0785 0.9629 0.258
vn 0.0785 0.9629 0.258
vn 0.0785 0.9629 0.258
vn 0.0784 0.963 0.2579
vn 0.0785 0.963 0.258
vn 0.0785 0.9629 0.258
vn 0.0767 0.9354 0.3453
vn 0.0882 0.9442 0.3173
vn 0.0785 0.9629 0.258
vn 0.0784 0.963 0.258
vn 0.0882 0.9442 0.3173
vn 0.0964 0.9424 0.3202
vn 0.0785 0.9629 0.2581
vn 0.0785 0.9629 0.258
vn 0.0964 0.9424 0.3202
vn 0.1335 0.9449 0.2988
vn 0.1405 0.9568 0.2544
vn 0.0785 0.9629 0.2581
vn 0.1405 0.9568 0.2544
vn 0.1276 0.96 0.2493
vn 0.0785 0.9629 0.258
vn 0.0785 0.9629 0.2581
vn 0.1335 0.9449 0.2988
vn 0.6843 0.3732 0.6265
vn 0.8299 0.5458 0.1161
vn 0.1405 0.9568 0.2544
vn 0.1405 0.9568 0.2544
vn 0.8299 0.5458 0.1161
vn 0.7989 0.6001 0.0408
vn 0.1276 0.96 0.2493
vn 0.1276 0.96 0.2493
vn 0.1362 0.9609 0.2412
vn 0.0784 0.963 0.2579
vn 0.0785 0.9629 0.258
vn 0.7989 0.6001 0.0408
vn 0.7999 0.5987 -0.0407
vn 0.1362 0.9609 0.2412
vn 0.1276 0.96 0.2493
vn 0.1362 0.9609 0.2412
vn 0.1205 0.9711 0.206
vn 0.0738 0.9807 0.1813
vn 0.0784 0.963 0.2579
vn 0.1362 0.9609 0.2412
vn 0.7999 0.5987 -0.0407
vn 0.5644 0.6787 -0.4699
vn 0.1205 0.9711 0.206
vn 0.1205 0.9711 0.206
vn 0.5644 0.6787 -0.4699
vn 0.0337 0.7758 -0.6301
vn 0.0738 0.9807 0.1813
vn 0.0784 0.963 0.2579
vn 0.0738 0.9807 0.1813
vn 0.0661 0.9802 0.1864
vn 0.0785 0.963 0.258
vn 0.0738 0.9807 0.1813
vn 0.0337 0.7758 -0.6301
vn -0.0816 0.7772 -0.6239
vn 0.0661 0.9802 0.1864
vn 0.0661 0.9802 0.1864
vn 0.043 0.9871 0.1543
vn 0.0784 0.963 0.258
vn 0.0785 0.963 0.258
vn -0.0816 0.7772 -0.6239
vn -0.2123 0.7399 -0.6383
vn 0.043 0.9871 0.1543
vn 0.0661 0.9802 0.1864
vn 0.043 0.9871 0.1543
vn -0.0024 0.9799 0.1995
vn -0.0093 0.965 0.262
vn 0.0784 0.963 0.258
vn 0.043 0.9871 0.1543
vn -0.2123 0.7399 -0.6383
vn -0.6461 0.6957 -0.314
vn -0.0024 0.9799 0.1995
vn -0.0024 0.9799 0.1995
vn -0.6461 0.6957 -0.314
vn -0.7439 0.6354 0.2072
vn -0.0093 0.965 0.262
vn 0.0964 0.9424 0.3202
vn 0.2585 0.4034 0.8777
vn 0.6843 0.3732 0.6265
vn 0.1335 0.9449 0.2988
vn 0.1673 0.4065 0.8982
vn 0.2585 0.4034 0.8777
vn 0.0964 0.9424 0.3202
vn 0.0882 0.9442 0.3173
vn 0.0767 0.9354 0.3453
vn 0.0563 0.3361 0.9401
vn 0.1673 0.4065 0.8982
vn 0.0882 0.9442 0.3173
vt 0 1
vt 0 0.5
vt 1 0.5
vt 1 1
vt 0 1
vt 0.000612 0.882131
vt 0.099358 0.882254
vt 0.098673 1
vt 0 1
vt 0 0.5
vt 1 0.5
vt 1 1
vt 0 0.5
vt 0 0
vt 1 0
vt 1 0.5
vt 0 0.5
vt 0 0
vt 1 0
vt 1 0.5
vt 0 0.5
vt 0 0
vt 0.5 0
vt 0.5 0.5
vt 0.5 0
vt 1 0
vt 1 0.5
vt 0.5 0.5
vt 0 0.5
vt 0 0
vt 1 0
vt 1 0.5
vt 0 0.5
vt 0 0
vt 1 0
vt 1 0.5
vt 0 0.5
vt 0 0
vt 0.5 0
vt 0.5 0.5
vt 0.5 0
vt 1 0
vt 1 0.5
vt 0.5 0.5
vt 0 0.5
vt 0 0
vt 1 0
vt 1 0.5
vt 0 0.5
vt 0 0
vt 1 0
vt 1 0.5
vt 0 0.5
vt 0 0
vt 0.5 0
vt 0.5 0.5
vt 0.5 0
vt 1 0
vt 1 0.5
vt 0.5 0.5
vt 0 0.5
vt 0 0
vt 1 0
vt 1 0.5
vt 0 0.5
vt 0 0
vt 1 0
vt 1 0.5
vt 0 0.5
vt 0 0
vt 0.5 0
vt 0.5 0.5
vt 0.5 0
vt 1 0
vt 1 0.5
vt 0.5 0.5
vt 0 1
vt 0 0.5
vt 0.5 0.5
vt 0.5 1
vt 0.5 0.5
vt 1 0.5
vt 1 1
vt 0.5 1
vt 0.857527 0.883199
vt 0.856273 1
vt 0.477473 1
vt 0.478442 0.882726
vt 0.477473 1
vt 0.098673 1
vt 0.099358 0.882254
vt 0.478442 0.882726
vt 0.861582 0.505206
vt 0.857527 0.883199
vt 0.478442 0.882726
vt 0.481579 0.503203
vt 0.481579 0.503203
vt 0.478442 0.882726
vt 0.099358 0.882254
vt 0.101577 0.501201
vt 0.103795 0.120148
vt 0.484717 0.12368
vt 0.481579 0.503203
vt 0.101577 0.501201
vt 0.484717 0.12368
vt 0.865638 0.127212
vt 0.861582 0.505206
vt 0.481579 0.503203
vt 0.000612 0.882131
vt 0.002591 0.500679
vt 0.101577 0.501201
vt 0.099358 0.882254
vt 0.002591 0.500679
vt 0.00457 0.119228
vt 0.103795 0.120148
vt 0.101577 0.501201
vt 0.00457 0.119228
vt 0.005189 0
vt 0.104489 0.00104499
vt 0.103795 0.120148
vt 0.104489 0.00104499
vt 0.485697 0.00505501
vt 0.484717 0.12368
vt 0.103795 0.120148
vt 0 1
vt 0 0.5
vt 1 0.5
vt 1 1
vt 0 1
vt 0 0.5
vt 0.5 0.5
vt 0.5 1
vt 0.485697 0.00505501
vt 0.866906 0.00906497
vt 0.865638 0.127212
vt 0.484717 0.12368
vt 0.5 0.5
vt 1 0.5
vt 1 1
vt 0.5 1
vt 0.866906 0.00906497
vt 0.968264 0.010131
vt 0.966919 0.128151
vt 0.865638 0.127212
vt 0 1
vt 0 0.5
vt 1 0.5
vt 1 1
vt 0 1
vt 0 0.5
vt 1 0.5
vt 1 1
vt 0.865638 0.127212
vt 0.966919 0.128151
vt 0.96262 0.505738
vt 0.861582 0.505206
vt 0 1
vt 0 0.5
vt 0.5 0.5
vt 0.5 1
vt 0.96262 0.505738
vt 0.95832 0.883325
vt 0.857527 0.883199
vt 0.861582 0.505206
vt 0.5 0.5
vt 1 0.5
vt 1 1
vt 0.5 1
vt 0.95832 0.883325
vt 0.956991 1
vt 0.856273 1
vt 0.857527 0.883199
vt 0 1
vt 0 0.5
vt 1 0.5
vt 1 1
vt 0 1
vt 0 0.5
vt 1 0.5
vt 1 1
vt 0 1
vt 0 0.5
vt 1 0.5
vt 1 1
vt 0.5 0.5
vt 1 0.5
vt 1 1
vt 0.5 1
vt 0 1
vt 0 0.5
vt 0.5 0.5
vt 0.5 1
s off
f 1/1/1 2/2/2 3/3/3
f 1/1/1 3/3/3 4/4/4
f 5/5/5 6/6/6 7/7/7
f 5/5/5 7/7/7 8/8/8
f 9/9/9 10/10/10 11/11/11
f 9/9/9 11/11/11 12/12/12
f 13/13/13 14/14/14 15/15/15
f 13/13/13 15/15/15 16/16/16
f 17/17/17 18/18/18 19/19/19
f 17/17/17 19/19/19 20/20/20
f 21/21/21 22/22/22 23/23/23
f 21/21/21 23/23/23 24/24/24
f 25/25/25 26/26/26 27/27/27
f 25/25/25 27/27/27 28/28/28
f 29/29/29 30/30/30 31/31/31
f 29/29/29 31/31/31 32/32/32
f 33/33/33 34/34/34 35/35/35
f 33/33/33 35/35/35 36/36/36
f 37/37/37 38/38/38 39/39/39
f 37/37/37 39/39/39 40/40/40
f 41/41/41 42/42/42 43/43/43
f 41/41/41 43/43/43 44/44/44
f 45/45/45 46/46/46 47/47/47
f 45/45/45 47/47/47 48/48/48
f 49/49/49 50/50/50 51/51/51
f 49/49/49 51/51/51 52/52/52
f 53/53/53 54/54/54 55/55/55
f 53/53/53 55/55/55 56/56/56
f 57/57/57 58/58/58 59/59/59
f 57/57/57 59/59/59 60/60/60
f 61/61/61 62/62/62 63/63/63
f 61/61/61 63/63/63 64/64/64
f 65/65/65 66/66/66 67/67/67
f 65/65/65 67/67/67 68/68/68
f 69/69/69 70/70/70 71/71/71
f 69/69/69 71/71/71 72/72/72
f 73/73/73 74/74/74 75/75/75
f 73/73/73 75/75/75 76/76/76
f 77/77/77 78/78/78 79/79/79
f 77/77/77 79/79/79 80/80/80
f 81/81/81 82/82/82 83/83/83
f 81/81/81 83/83/83 84/84/84
f 85/85/85 86/86/86 87/87/87
f 85/85/85 87/87/87 88/88/88
f 89/89/89 90/90/90 91/91/91
f 89/89/89 91/91/91 92/92/92
f 93/93/93 94/94/94 95/95/95
f 93/93/93 95/95/95 96/96/96
f 97/97/97 98/98/98 99/99/99
f 97/97/97 99/99/99 100/100/100
f 101/101/101 102/102/102 103/103/103
f 101/101/101 103/103/103 104/104/104
f 105/105/105 106/106/106 107/107/107
f 105/105/105 107/107/107 108/108/108
f 109/109/109 110/110/110 111/111/111
f 109/109/109 111/111/111 112/112/112
f 113/113/113 114/114/114 115/115/115
f 113/113/113 115/115/115 116/116/116
f 117/117/117 118/118/118 119/119/119
f 117/117/117 119/119/119 120/120/120
f 121/121/121 122/122/122 123/123/123
f 121/121/121 123/123/123 124/124/124
f 125/125/125 126/126/126 127/127/127
f 125/125/125 127/127/127 128/128/128
f 129/129/129 130/130/130 131/131/131
f 129/129/129 131/131/131 132/132/132
f 133/133/133 134/134/134 135/135/135
f 133/133/133 135/135/135 136/136/136
f 137/137/137 138/138/138 139/139/139
f 137/137/137 139/139/139 140/140/140
f 141/141/141 142/142/142 143/143/143
f 141/141/141 143/143/143 144/144/144
f 145/145/145 146/146/146 147/147/147
f 145/145/145 147/147/147 148/148/148
f 149/149/149 150/150/150 151/151/151
f 149/149/149 151/151/151 152/152/152
f 153/153/153 154/154/154 155/155/155
f 153/153/153 155/155/155 156/156/156
f 157/157/157 158/158/158 159/159/159
f 157/157/157 159/159/159 160/160/160
f 161/161/161 162/162/162 163/163/163
f 161/161/161 163/163/163 164/164/164
f 165/165/165 166/166/166 167/167/167
f 165/165/165 167/167/167 168/168/168
f 169/169/169 170/170/170 171/171/171
f 169/169/169 171/171/171 172/172/172
f 173/173/173 174/174/174 175/175/175
f 173/173/173 175/175/175 176/176/176
f 177/177/177 178/178/178 179/179/179
f 177/177/177 179/179/179 180/180/180
f 181/181/181 182/182/182 183/183/183
f 181/181/181 183/183/183 184/184/184
f 185/185/185 186/186/186 187/187/187
f 185/185/185 187/187/187 188/188/188
f 189/189/189 190/190/190 191/191/191
f 189/189/189 191/191/191 192/192/192
