v -0.252212 0.039969 0.580203
v -0.294846 0.032982 0.593308
v -0.294362 0.022227 0.603986
v -0.252212 0.039969 0.580203
v -0.294362 0.022227 0.603986
v -0.241405 0.03089 0.586972
v -0.252212 0.039969 0.580203
v -0.226004 0.051517 0.545006
v -0.311204 0.056112 0.502017
v -0.252212 0.039969 0.580203
v -0.311204 0.056112 0.502017
v -0.294846 0.032982 0.593308
v -0.226004 0.051517 0.545006
v -0.252212 0.039969 0.580203
v -0.241405 0.03089 0.586972
v -0.226004 0.051517 0.545006
v -0.241405 0.03089 0.586972
v -0.214206 0.044243 0.546094
v -0.214206 0.044243 0.546094
v -0.241405 0.03089 0.586972
v -0.241632 0.016982 0.586052
v -0.214206 0.044243 0.546094
v -0.241632 0.016982 0.586052
v -0.211882 0.0322 0.543196
v -0.241405 0.03089 0.586972
v -0.294362 0.022227 0.603986
v -0.29325 0.009145 0.601932
v -0.241405 0.03089 0.586972
v -0.29325 0.009145 0.601932
v -0.241632 0.016982 0.586052
v -0.294362 0.022227 0.603986
v -0.438193 0.018994 0.579406
v -0.437626 0.007563 0.578733
v -0.294362 0.022227 0.603986
v -0.437626 0.007563 0.578733
v -0.29325 0.009145 0.601932
v -0.437626 0.007563 0.578733
v -0.438193 0.018994 0.579406
v -0.581794 0.01537 0.553589
v -0.437626 0.007563 0.578733
v -0.581794 0.01537 0.553589
v -0.58162 0.003407 0.553582
v -0.438193 0.018994 0.579406
v -0.4371 0.02797 0.568762
v -0.579349 0.022957 0.544212
v -0.438193 0.018994 0.579406
v -0.579349 0.022957 0.544212
v -0.581794 0.01537 0.553589
v -0.294846 0.032982 0.593308
v -0.4371 0.02797 0.568762
v -0.438193 0.018994 0.579406
v -0.294846 0.032982 0.593308
v -0.438193 0.018994 0.579406
v -0.294362 0.022227 0.603986
v -0.4371 0.02797 0.568762
v -0.423355 0.053585 0.477344
v -0.537475 0.047761 0.464379
v -0.4371 0.02797 0.568762
v -0.537475 0.047761 0.464379
v -0.579349 0.022957 0.544212
v -0.294846 0.032982 0.593308
v -0.311204 0.056112 0.502017
v -0.423355 0.053585 0.477344
v -0.294846 0.032982 0.593308
v -0.423355 0.053585 0.477344
v -0.4371 0.02797 0.568762
v -0.537475 0.047761 0.464379
v -0.423355 0.053585 0.477344
v -0.407645 0.082498 0.374215
v -0.537475 0.047761 0.464379
v -0.407645 0.082498 0.374215
v -0.514932 0.078442 0.35673
v -0.407645 0.082498 0.374215
v -0.423355 0.053585 0.477344
v -0.311204 0.056112 0.502017
v -0.407645 0.082498 0.374215
v -0.311204 0.056112 0.502017
v -0.300587 0.086343 0.392418
v -0.205769 0.089609 0.409064
v -0.300587 0.086343 0.392418
v -0.311204 0.056112 0.502017
v -0.205769 0.089609 0.409064
v -0.311204 0.056112 0.502017
v -0.226004 0.051517 0.545006
v -0.391708 0.111622 0.270371
v -0.407645 0.082498 0.374215
v -0.300587 0.086343 0.392418
v -0.391708 0.111622 0.270371
v -0.300587 0.086343 0.392418
v -0.277736 0.117154 0.284382
v -0.277736 0.117154 0.284382
v -0.300587 0.086343 0.392418
v -0.205769 0.089609 0.409064
v -0.277736 0.117154 0.284382
v -0.205769 0.089609 0.409064
v -0.185531 0.127685 0.273112
v -0.185531 0.127685 0.273112
v -0.205769 0.089609 0.409064
v -0.191468 0.083129 0.409357
v -0.185531 0.127685 0.273112
v -0.191468 0.083129 0.409357
v -0.169493 0.121707 0.272405
v -0.191468 0.083129 0.409357
v -0.205769 0.089609 0.409064
v -0.226004 0.051517 0.545006
v -0.191468 0.083129 0.409357
v -0.226004 0.051517 0.545006
v -0.214206 0.044243 0.546094
v -0.169493 0.121707 0.272405
v -0.191468 0.083129 0.409357
v -0.189419 0.071935 0.408153
v -0.169493 0.121707 0.272405
v -0.189419 0.071935 0.408153
v -0.166793 0.108487 0.268944
v -0.189419 0.071935 0.408153
v -0.191468 0.083129 0.409357
v -0.214206 0.044243 0.546094
v -0.189419 0.071935 0.408153
v -0.214206 0.044243 0.546094
v -0.211882 0.0322 0.543196
v -0.181715 0.133353 0.224528
v -0.169493 0.121707 0.272405
v -0.166793 0.108487 0.268944
v -0.181715 0.133353 0.224528
v -0.166793 0.108487 0.268944
v -0.17922 0.119343 0.219952
v -0.229028 0.136893 0.187729
v -0.181715 0.133353 0.224528
v -0.17922 0.119343 0.219952
v -0.229028 0.136893 0.187729
v -0.17922 0.119343 0.219952
v -0.227749 0.125478 0.184065
v -0.374035 0.12445 0.159292
v -0.375048 0.134433 0.163673
v -0.229028 0.136893 0.187729
v -0.374035 0.12445 0.159292
v -0.229028 0.136893 0.187729
v -0.227749 0.125478 0.184065
v -0.521262 0.130339 0.141068
v -0.375048 0.134433 0.163673
v -0.374035 0.12445 0.159292
v -0.521262 0.130339 0.141068
v -0.374035 0.12445 0.159292
v -0.520443 0.120417 0.135524
v -0.572715 0.121525 0.159605
v -0.521262 0.130339 0.141068
v -0.520443 0.120417 0.135524
v -0.572715 0.121525 0.159605
v -0.520443 0.120417 0.135524
v -0.573942 0.110969 0.154487
v -0.598511 0.108065 0.20159
v -0.572715 0.121525 0.159605
v -0.573942 0.110969 0.154487
v -0.598511 0.108065 0.20159
v -0.573942 0.110969 0.154487
v -0.600524 0.097135 0.198031
v -0.623331 0.058225 0.336352
v -0.621015 0.069659 0.339795
v -0.598511 0.108065 0.20159
v -0.623331 0.058225 0.336352
v -0.598511 0.108065 0.20159
v -0.600524 0.097135 0.198031
v -0.64269 0.030512 0.477926
v -0.621015 0.069659 0.339795
v -0.623331 0.058225 0.336352
v -0.64269 0.030512 0.477926
v -0.623331 0.058225 0.336352
v -0.644835 0.019339 0.474897
v -0.62805 0.019486 0.522333
v -0.64269 0.030512 0.477926
v -0.644835 0.019339 0.474897
v -0.62805 0.019486 0.522333
v -0.644835 0.019339 0.474897
v -0.629459 0.008241 0.52099
v -0.581794 0.01537 0.553589
v -0.62805 0.019486 0.522333
v -0.629459 0.008241 0.52099
v -0.581794 0.01537 0.553589
v -0.629459 0.008241 0.52099
v -0.58162 0.003407 0.553582
v -0.620434 0.026531 0.518213
v -0.632248 0.036052 0.479255
v -0.64269 0.030512 0.477926
v -0.620434 0.026531 0.518213
v -0.64269 0.030512 0.477926
v -0.62805 0.019486 0.522333
v -0.579349 0.022957 0.544212
v -0.620434 0.026531 0.518213
v -0.62805 0.019486 0.522333
v -0.579349 0.022957 0.544212
v -0.62805 0.019486 0.522333
v -0.581794 0.01537 0.553589
v -0.579349 0.022957 0.544212
v -0.537475 0.047761 0.464379
v -0.632248 0.036052 0.479255
v -0.579349 0.022957 0.544212
v -0.632248 0.036052 0.479255
v -0.620434 0.026531 0.518213
v -0.632248 0.036052 0.479255
v -0.537475 0.047761 0.464379
v -0.514932 0.078442 0.35673
v -0.632248 0.036052 0.479255
v -0.514932 0.078442 0.35673
v -0.610426 0.074541 0.342253
v -0.632248 0.036052 0.479255
v -0.610426 0.074541 0.342253
v -0.621015 0.069659 0.339795
v -0.632248 0.036052 0.479255
v -0.621015 0.069659 0.339795
v -0.64269 0.030512 0.477926
v -0.621015 0.069659 0.339795
v -0.610426 0.074541 0.342253
v -0.588606 0.113029 0.205248
v -0.621015 0.069659 0.339795
v -0.588606 0.113029 0.205248
v -0.598511 0.108065 0.20159
v -0.610426 0.074541 0.342253
v -0.514932 0.078442 0.35673
v -0.504176 0.108968 0.246074
v -0.610426 0.074541 0.342253
v -0.504176 0.108968 0.246074
v -0.588606 0.113029 0.205248
v -0.514932 0.078442 0.35673
v -0.407645 0.082498 0.374215
v -0.391708 0.111622 0.270371
v -0.514932 0.078442 0.35673
v -0.391708 0.111622 0.270371
v -0.504176 0.108968 0.246074
v -0.588606 0.113029 0.205248
v -0.504176 0.108968 0.246074
v -0.521446 0.132735 0.151947
v -0.588606 0.113029 0.205248
v -0.521446 0.132735 0.151947
v -0.565878 0.124618 0.168903
v -0.504176 0.108968 0.246074
v -0.391708 0.111622 0.270371
v -0.377275 0.137869 0.176808
v -0.504176 0.108968 0.246074
v -0.377275 0.137869 0.176808
v -0.521446 0.132735 0.151947
v -0.377275 0.137869 0.176808
v -0.391708 0.111622 0.270371
v -0.277736 0.117154 0.284382
v -0.377275 0.137869 0.176808
v -0.277736 0.117154 0.284382
v -0.233096 0.14294 0.201642
v -0.521446 0.132735 0.151947
v -0.377275 0.137869 0.176808
v -0.375048 0.134433 0.163673
v -0.521446 0.132735 0.151947
v -0.375048 0.134433 0.163673
v -0.521262 0.130339 0.141068
v -0.375048 0.134433 0.163673
v -0.377275 0.137869 0.176808
v -0.233096 0.14294 0.201642
v -0.375048 0.134433 0.163673
v -0.233096 0.14294 0.201642
v -0.229028 0.136893 0.187729
v -0.233096 0.14294 0.201642
v -0.196996 0.137014 0.234806
v -0.181715 0.133353 0.224528
v -0.233096 0.14294 0.201642
v -0.181715 0.133353 0.224528
v -0.229028 0.136893 0.187729
v -0.233096 0.14294 0.201642
v -0.277736 0.117154 0.284382
v -0.185531 0.127685 0.273112
v -0.233096 0.14294 0.201642
v -0.185531 0.127685 0.273112
v -0.196996 0.137014 0.234806
v -0.196996 0.137014 0.234806
v -0.185531 0.127685 0.273112
v -0.169493 0.121707 0.272405
v -0.196996 0.137014 0.234806
v -0.169493 0.121707 0.272405
v -0.181715 0.133353 0.224528
v -0.565878 0.124618 0.168903
v -0.521446 0.132735 0.151947
v -0.521262 0.130339 0.141068
v -0.565878 0.124618 0.168903
v -0.521262 0.130339 0.141068
v -0.572715 0.121525 0.159605
v -0.588606 0.113029 0.205248
v -0.565878 0.124618 0.168903
v -0.572715 0.121525 0.159605
v -0.588606 0.113029 0.205248
v -0.572715 0.121525 0.159605
v -0.598511 0.108065 0.20159
vn -0.0186 0.9406 0.339
vn -0.078 0.9352 0.3455
vn -0.0562 0.3362 0.9401
vn -0.0186 0.9406 0.339
vn -0.0562 0.3362 0.9401
vn 0.513 0.3424 0.7872
vn -0.0186 0.9406 0.339
vn 0.0144 0.9587 0.2841
vn -0.0783 0.963 0.2579
vn -0.0186 0.9406 0.339
vn -0.0783 0.963 0.2579
vn -0.078 0.9352 0.3455
vn 0.0144 0.9587 0.2841
vn -0.0186 0.9406 0.339
vn 0.513 0.3424 0.7871
vn 0.0144 0.9587 0.2841
vn 0.513 0.3424 0.7871
vn 0.7536 0.5399 0.375
vn 0.7536 0.5399 0.375
vn 0.513 0.3424 0.7872
vn 0.557 -0.0646 0.828
vn 0.7536 0.5399 0.375
vn 0.557 -0.0646 0.828
vn 0.945 0.1017 0.3109
vn 0.513 0.3424 0.7871
vn -0.0562 0.3362 0.9401
vn -0.02 -0.115 0.9932
vn 0.513 0.3424 0.7871
vn -0.02 -0.115 0.9932
vn 0.5569 -0.0646 0.828
vn -0.0562 0.3362 0.9401
vn -0.1673 0.4065 0.8982
vn -0.1669 -0.0786 0.9828
vn -0.0562 0.3362 0.9401
vn -0.1669 -0.0786 0.9828
vn -0.0201 -0.115 0.9932
vn -0.1669 -0.0786 0.9828
vn -0.1673 0.4065 0.8982
vn -0.2585 0.4034 0.8777
vn -0.1669 -0.0786 0.9828
vn -0.2585 0.4034 0.8777
vn -0.2832 -0.0303 0.9586
vn -0.1673 0.4065 0.8982
vn -0.0881 0.9442 0.3173
vn -0.0964 0.9424 0.3202
vn -0.1673 0.4065 0.8982
vn -0.0964 0.9424 0.3202
vn -0.2585 0.4034 0.8777
vn -0.078 0.9352 0.3455
vn -0.0881 0.9442 0.3173
vn -0.1673 0.4065 0.8982
vn -0.078 0.9352 0.3455
vn -0.1673 0.4065 0.8982
vn -0.0562 0.3362 0.9401
vn -0.0881 0.9442 0.3173
vn -0.0785 0.9629 0.258
vn -0.0785 0.9629 0.258
vn -0.0881 0.9442 0.3173
vn -0.0785 0.9629 0.258
vn -0.0964 0.9424 0.3202
vn -0.078 0.9352 0.3454
vn -0.0785 0.9629 0.258
vn -0.0785 0.9629 0.258
vn -0.078 0.9352 0.3454
vn -0.0785 0.9629 0.258
vn -0.0881 0.9442 0.3173
vn -0.0785 0.9629 0.258
vn -0.0785 0.9629 0.258
vn -0.0785 0.9629 0.258
vn -0.0785 0.9629 0.258
vn -0.0785 0.9629 0.258
vn -0.0785 0.9629 0.258
vn -0.0785 0.9629 0.258
vn -0.0785 0.9629 0.258
vn -0.0785 0.9629 0.258
vn -0.0785 0.9629 0.258
vn -0.0785 0.9629 0.258
vn -0.0785 0.963 0.258
vn -0.0034 0.9632 0.2686
vn -0.0785 0.963 0.258
vn -0.0784 0.9629 0.2581
vn -0.0034 0.9632 0.2686
vn -0.0784 0.9629 0.2581
vn 0.0144 0.9587 0.2841
vn -0.0785 0.9629 0.258
vn -0.0785 0.9629 0.258
vn -0.0785 0.9629 0.258
vn -0.0785 0.9629 0.258
vn -0.0785 0.9629 0.258
vn -0.0785 0.9629 0.258
vn -0.0785 0.9629 0.258
vn -0.0785 0.9629 0.258
vn -0.0034 0.9632 0.2686
vn -0.0785 0.9629 0.258
vn -0.0034 0.9632 0.2686
vn 0.0093 0.965 0.262
vn 0.0093 0.965 0.262
vn -0.0034 0.9632 0.2686
vn 0.7317 0.6162 0.2912
vn 0.0093 0.965 0.262
vn 0.7317 0.6162 0.2912
vn 0.7439 0.6354 0.2072
vn 0.7317 0.6163 0.2912
vn -0.0034 0.9632 0.2686
vn 0.0144 0.9587 0.2841
vn 0.7317 0.6163 0.2912
vn 0.0144 0.9587 0.2841
vn 0.7536 0.5399 0.375
vn 0.7439 0.6354 0.2072
vn 0.7317 0.6162 0.2912
vn 0.9684 0.1484 0.2003
vn 0.7439 0.6354 0.2072
vn 0.9684 0.1484 0.2003
vn 0.98 0.1787 0.0871
vn 0.9684 0.1484 0.2003
vn 0.7317 0.6162 0.2913
vn 0.7536 0.5399 0.375
vn 0.9684 0.1484 0.2003
vn 0.7536 0.5399 0.375
vn 0.945 0.1017 0.3109
vn 0.6461 0.6957 -0.314
vn 0.7438 0.6354 0.2072
vn 0.98 0.1787 0.0871
vn 0.6461 0.6957 -0.314
vn 0.98 0.1787 0.0871
vn 0.8092 0.3012 -0.5045
vn 0.2123 0.7399 -0.6383
vn 0.6461 0.6957 -0.314
vn 0.8092 0.3012 -0.5045
vn 0.2123 0.7399 -0.6383
vn 0.8092 0.3012 -0.5045
vn 0.3034 0.3601 -0.8822
vn 0.1388 0.4066 -0.903
vn 0.0816 0.7772 -0.6239
vn 0.2124 0.7399 -0.6383
vn 0.1388 0.4066 -0.903
vn 0.2124 0.7399 -0.6383
vn 0.3034 0.3601 -0.8822
vn -0.0337 0.7758 -0.6301
vn 0.0816 0.7772 -0.6239
vn 0.1388 0.4066 -0.903
vn -0.0337 0.7758 -0.6301
vn 0.1388 0.4066 -0.903
vn -0.0098 0.4589 -0.8884
vn -0.5644 0.6787 -0.4699
vn -0.0337 0.7758 -0.6301
vn -0.0098 0.4589 -0.8884
vn -0.5644 0.6787 -0.4699
vn -0.0098 0.4589 -0.8884
vn -0.6385 0.39 -0.6635
vn -0.8002 0.5983 -0.0408
vn -0.5644 0.6787 -0.4699
vn -0.6385 0.39 -0.6635
vn -0.8002 0.5983 -0.0408
vn -0.6385 0.39 -0.6635
vn -0.9528 0.2427 -0.1826
vn -0.9714 0.2181 -0.0941
vn -0.7989 0.6001 0.0408
vn -0.8002 0.5983 -0.0408
vn -0.9714 0.2181 -0.0941
vn -0.8002 0.5983 -0.0408
vn -0.9528 0.2427 -0.1826
vn -0.8299 0.5457 0.1161
vn -0.7989 0.6001 0.0408
vn -0.9714 0.2181 -0.0941
vn -0.8299 0.5457 0.1161
vn -0.9714 0.2181 -0.0941
vn -0.9819 0.189 0.0112
vn -0.6843 0.3732 0.6265
vn -0.8299 0.5457 0.1161
vn -0.9819 0.189 0.0112
vn -0.6843 0.3732 0.6265
vn -0.9819 0.189 0.0112
vn -0.7761 0.0307 0.6299
vn -0.2585 0.4034 0.8777
vn -0.6843 0.3732 0.6265
vn -0.7761 0.0307 0.6299
vn -0.2585 0.4034 0.8777
vn -0.7761 0.0307 0.6299
vn -0.2832 -0.0303 0.9586
vn -0.1335 0.9449 0.2988
vn -0.1406 0.9568 0.2544
vn -0.8299 0.5458 0.1161
vn -0.1335 0.9449 0.2988
vn -0.8299 0.5458 0.1161
vn -0.6843 0.3732 0.6265
vn -0.0964 0.9424 0.3202
vn -0.1335 0.9449 0.2988
vn -0.6843 0.3732 0.6265
vn -0.0964 0.9424 0.3202
vn -0.6843 0.3732 0.6265
vn -0.2585 0.4034 0.8777
vn -0.0964 0.9424 0.3202
vn -0.0785 0.9629 0.258
vn -0.1405 0.9568 0.2544
vn -0.0964 0.9424 0.3202
vn -0.1405 0.9568 0.2544
vn -0.1335 0.9449 0.2988
vn -0.1405 0.9568 0.2544
vn -0.0785 0.9629 0.258
vn -0.0785 0.9629 0.258
vn -0.1405 0.9568 0.2544
vn -0.0785 0.9629 0.258
vn -0.1276 0.96 0.2493
vn -0.1405 0.9568 0.2544
vn -0.1276 0.96 0.2493
vn -0.7989 0.6001 0.0408
vn -0.1405 0.9568 0.2544
vn -0.7989 0.6001 0.0408
vn -0.8298 0.5458 0.1161
vn -0.7989 0.6001 0.0408
vn -0.1277 0.96 0.2493
vn -0.1362 0.9609 0.2412
vn -0.7989 0.6001 0.0408
vn -0.1362 0.9609 0.2412
vn -0.8002 0.5983 -0.0408
vn -0.1276 0.96 0.2493
vn -0.0785 0.9629 0.258
vn -0.0785 0.9629 0.258
vn -0.1276 0.96 0.2493
vn -0.0785 0.9629 0.258
vn -0.1362 0.9609 0.2412
vn -0.0785 0.9629 0.258
vn -0.0785 0.9629 0.258
vn -0.0785 0.9629 0.258
vn -0.0785 0.9629 0.258
vn -0.0785 0.9629 0.258
vn -0.0785 0.9629 0.258
vn -0.1362 0.9609 0.2412
vn -0.0782 0.9631 0.2575
vn -0.0758 0.9804 0.1816
vn -0.1362 0.9609 0.2412
vn -0.0758 0.9804 0.1816
vn -0.1205 0.9711 0.206
vn -0.0786 0.963 0.2578
vn -0.0785 0.9629 0.258
vn -0.0661 0.9802 0.1864
vn -0.0786 0.963 0.2578
vn -0.0661 0.9802 0.1864
vn -0.0758 0.9804 0.1816
vn -0.0661 0.9802 0.1864
vn -0.0785 0.9629 0.258
vn -0.0784 0.963 0.2579
vn -0.0661 0.9802 0.1864
vn -0.0784 0.963 0.2579
vn -0.043 0.9871 0.1543
vn -0.0758 0.9804 0.1816
vn -0.0661 0.9803 0.1864
vn 0.0816 0.7772 -0.6239
vn -0.0758 0.9804 0.1816
vn 0.0816 0.7772 -0.6239
vn -0.0337 0.7758 -0.6301
vn 0.0816 0.7772 -0.6239
vn -0.0661 0.9803 0.1864
vn -0.043 0.9871 0.1543
vn 0.0816 0.7772 -0.6239
vn -0.043 0.9871 0.1543
vn 0.2124 0.7399 -0.6383
vn -0.043 0.9871 0.1543
vn 0.0024 0.9799 0.1995
vn 0.6461 0.6957 -0.314
vn -0.043 0.9871 0.1543
vn 0.6461 0.6957 -0.314
vn 0.2124 0.7399 -0.6383
vn -0.043 0.9871 0.1543
vn -0.0785 0.963 0.2578
vn 0.0093 0.965 0.262
vn -0.043 0.9871 0.1543
vn 0.0093 0.965 0.262
vn 0.0024 0.9799 0.1995
vn 0.0025 0.9799 0.1995
vn 0.0093 0.965 0.262
vn 0.7439 0.6354 0.2072
vn 0.0025 0.9799 0.1995
vn 0.7439 0.6354 0.2072
vn 0.6461 0.6956 -0.314
vn -0.1205 0.9711 0.206
vn -0.0758 0.9804 0.1816
vn -0.0337 0.7758 -0.6301
vn -0.1205 0.9711 0.206
vn -0.0337 0.7758 -0.6301
vn -0.5644 0.6787 -0.4699
vn -0.1362 0.9609 0.2412
vn -0.1205 0.9711 0.206
vn -0.5644 0.6787 -0.4699
vn -0.1362 0.9609 0.2412
vn -0.5644 0.6787 -0.4699
vn -0.8002 0.5983 -0.0408
vt 0 0
vt 1 0
vt 1 0.5
vt 0 0
vt 1 0.5
vt 0 0.5
vt 0 0
vt 0.098673 0
vt 0.099358 0.117746
vt 0 0
vt 0.099358 0.117746
vt 0.000612 0.117869
vt 0 0
vt 1 0
vt 1 0.5
vt 0 0
vt 1 0.5
vt 0 0.5
vt 0 0.5
vt 1 0.5
vt 1 1
vt 0 0.5
vt 1 1
vt 0 1
vt 0 0.5
vt 1 0.5
vt 1 1
vt 0 0.5
vt 1 1
vt 0 1
vt 0 0.5
vt 0.5 0.5
vt 0.5 1
vt 0 0.5
vt 0.5 1
vt 0 1
vt 0.5 1
vt 0.5 0.5
vt 1 0.5
vt 0.5 1
vt 1 0.5
vt 1 1
vt 0.5 0.5
vt 0.5 0
vt 1 0
vt 0.5 0.5
vt 1 0
vt 1 0.5
vt 0 0
vt 0.5 0
vt 0.5 0.5
vt 0 0
vt 0.5 0.5
vt 0 0.5
vt 0.002591 0.499321
vt 0.101577 0.498799
vt 0.103795 0.879852
vt 0.002591 0.499321
vt 0.103795 0.879852
vt 0.00457 0.880772
vt 0.000612 0.117869
vt 0.099358 0.117746
vt 0.101577 0.498799
vt 0.000612 0.117869
vt 0.101577 0.498799
vt 0.002591 0.499321
vt 0.103795 0.879852
vt 0.101577 0.498799
vt 0.481579 0.496797
vt 0.103795 0.879852
vt 0.481579 0.496797
vt 0.484717 0.87632
vt 0.481579 0.496797
vt 0.101577 0.498799
vt 0.099358 0.117746
vt 0.481579 0.496797
vt 0.099358 0.117746
vt 0.478442 0.117274
vt 0.477473 0
vt 0.478442 0.117274
vt 0.099358 0.117746
vt 0.477473 0
vt 0.099358 0.117746
vt 0.098673 0
vt 0.861582 0.494794
vt 0.481579 0.496797
vt 0.478442 0.117274
vt 0.861582 0.494794
vt 0.478442 0.117274
vt 0.857527 0.116801
vt 0.857527 0.116801
vt 0.478442 0.117274
vt 0.477473 0
vt 0.857527 0.116801
vt 0.477473 0
vt 0.856273 0
vt 0 0
vt 0.5 0
vt 0.5 0.5
vt 0 0
vt 0.5 0.5
vt 0 0.5
vt 0.5 0.5
vt 0.5 0
vt 1 0
vt 0.5 0.5
vt 1 0
vt 1 0.5
vt 0 0.5
vt 0.5 0.5
vt 0.5 1
vt 0 0.5
vt 0.5 1
vt 0 1
vt 0.5 1
vt 0.5 0.5
vt 1 0.5
vt 0.5 1
vt 1 0.5
vt 1 1
vt 0 0.5
vt 1 0.5
vt 1 1
vt 0 0.5
vt 1 1
vt 0 1
vt 0 0.5
vt 1 0.5
vt 1 1
vt 0 0.5
vt 1 1
vt 0 1
vt 0.5 1
vt 0.5 0.5
vt 1 0.5
vt 0.5 1
vt 1 0.5
vt 1 1
vt 0 0.5
vt 0.5 0.5
vt 0.5 1
vt 0 0.5
vt 0.5 1
vt 0 1
vt 0 0.5
vt 1 0.5
vt 1 1
vt 0 0.5
vt 1 1
vt 0 1
vt 0 0.5
vt 1 0.5
vt 1 1
vt 0 0.5
vt 1 1
vt 0 1
vt 0.5 1
vt 0.5 0.5
vt 1 0.5
vt 0.5 1
vt 1 0.5
vt 1 1
vt 0 0.5
vt 0.5 0.5
vt 0.5 1
vt 0 0.5
vt 0.5 1
vt 0 1
vt 0 0.5
vt 1 0.5
vt 1 1
vt 0 0.5
vt 1 1
vt 0 1
vt 0 0.5
vt 1 0.5
vt 1 1
vt 0 0.5
vt 1 1
vt 0 1
vt 0 0
vt 1 0
vt 1 0.5
vt 0 0
vt 1 0.5
vt 0 0.5
vt 0 0
vt 1 0
vt 1 0.5
vt 0 0
vt 1 0.5
vt 0 0.5
vt 0.00457 0.880772
vt 0.103795 0.879852
vt 0.104489 0.998955
vt 0.00457 0.880772
vt 0.104489 0.998955
vt 0.005189 1
vt 0.104489 0.998955
vt 0.103795 0.879852
vt 0.484717 0.87632
vt 0.104489 0.998955
vt 0.484717 0.87632
vt 0.485697 0.994945
vt 0 0
vt 0.5 0
vt 0.5 0.5
vt 0 0
vt 0.5 0.5
vt 0 0.5
vt 0.5 0.5
vt 0.5 0
vt 1 0
vt 0.5 0.5
vt 1 0
vt 1 0.5
vt 0.485697 0.994945
vt 0.484717 0.87632
vt 0.865638 0.872788
vt 0.485697 0.994945
vt 0.865638 0.872788
vt 0.866906 0.990935
vt 0.484717 0.87632
vt 0.481579 0.496797
vt 0.861582 0.494794
vt 0.484717 0.87632
vt 0.861582 0.494794
vt 0.865638 0.872788
vt 0.866906 0.990935
vt 0.865638 0.872788
vt 0.966919 0.871849
vt 0.866906 0.990935
vt 0.966919 0.871849
vt 0.968264 0.989869
vt 0.865638 0.872788
vt 0.861582 0.494794
vt 0.96262 0.494262
vt 0.865638 0.872788
vt 0.96262 0.494262
vt 0.966919 0.871849
vt 0.96262 0.494262
vt 0.861582 0.494794
vt 0.857527 0.116801
vt 0.96262 0.494262
vt 0.857527 0.116801
vt 0.95832 0.116675
vt 0 0
vt 0.5 0
vt 0.5 0.5
vt 0 0
vt 0.5 0.5
vt 0 0.5
vt 0.5 0.5
vt 0.5 0
vt 1 0
vt 0.5 0.5
vt 1 0
vt 1 0.5
vt 0 0
vt 1 0
vt 1 0.5
vt 0 0
vt 1 0.5
vt 0 0.5
vt 0.95832 0.116675
vt 0.857527 0.116801
vt 0.856273 0
vt 0.95832 0.116675
vt 0.856273 0
vt 0.956991 0
vt 0 0
vt 1 0
vt 1 0.5
vt 0 0
vt 1 0.5
vt 0 0.5
vt 0 0
vt 1 0
vt 1 0.5
vt 0 0
vt 1 0.5
vt 0 0.5
vt 0 0
vt 1 0
vt 1 0.5
vt 0 0
vt 1 0.5
vt 0 0.5
s off
f 1/1/1 2/2/2 3/3/3
f 4/4/4 5/5/5 6/6/6
f 7/7/7 8/8/8 9/9/9
f 10/10/10 11/11/11 12/12/12
f 13/13/13 14/14/14 15/15/15
f 16/16/16 17/17/17 18/18/18
f 19/19/19 20/20/20 21/21/21
f 22/22/22 23/23/23 24/24/24
f 25/25/25 26/26/26 27/27/27
f 28/28/28 29/29/29 30/30/30
f 31/31/31 32/32/32 33/33/33
f 34/34/34 35/35/35 36/36/36
f 37/37/37 38/38/38 39/39/39
f 40/40/40 41/41/41 42/42/42
f 43/43/43 44/44/44 45/45/45
f 46/46/46 47/47/47 48/48/48
f 49/49/49 50/50/50 51/51/51
f 52/52/52 53/53/53 54/54/54
f 55/55/55 56/56/56 57/57/57
f 58/58/58 59/59/59 60/60/60
f 61/61/61 62/62/62 63/63/63
f 64/64/64 65/65/65 66/66/66
f 67/67/67 68/68/68 69/69/69
f 70/70/70 71/71/71 72/72/72
f 73/73/73 74/74/74 75/75/75
f 76/76/76 77/77/77 78/78/78
f 79/79/79 80/80/80 81/81/81
f 82/82/82 83/83/83 84/84/84
f 85/85/85 86/86/86 87/87/87
f 88/88/88 89/89/89 90/90/90
f 91/91/91 92/92/92 93/93/93
f 94/94/94 95/95/95 96/96/96
f 97/97/97 98/98/98 99/99/99
f 100/100/100 101/101/101 102/102/102
f 103/103/103 104/104/104 105/105/105
f 106/106/106 107/107/107 108/108/108
f 109/109/109 110/110/110 111/111/111
f 112/112/112 113/113/113 114/114/114
f 115/115/115 116/116/116 117/117/117
f 118/118/118 119/119/119 120/120/120
f 121/121/121 122/122/122 123/123/123
f 124/124/124 125/125/125 126/126/126
f 127/127/127 128/128/128 129/129/129
f 130/130/130 131/131/131 132/132/132
f 133/133/133 134/134/134 135/135/135
f 136/136/136 137/137/137 138/138/138
f 139/139/139 140/140/140 141/141/141
f 142/142/142 143/143/143 144/144/144
f 145/145/145 146/146/146 147/147/147
f 148/148/148 149/149/149 150/150/150
f 151/151/151 152/152/152 153/153/153
f 154/154/154 155/155/155 156/156/156
f 157/157/157 158/158/158 159/159/159
f 160/160/160 161/161/161 162/162/162
f 163/163/163 164/164/164 165/165/165
f 166/166/166 167/167/167 168/168/168
f 169/169/169 170/170/170 171/171/171
f 172/172/172 173/173/173 174/174/174
f 175/175/175 176/176/176 177/177/177
f 178/178/178 179/179/179 180/180/180
f 181/181/181 182/182/182 183/183/183
f 184/184/184 185/185/185 186/186/186
f 187/187/187 188/188/188 189/189/189
f 190/190/190 191/191/191 192/192/192
f 193/193/193 194/194/194 195/195/195
f 196/196/196 197/197/197 198/198/198
f 199/199/199 200/200/200 201/201/201
f 202/202/202 203/203/203 204/204/204
f 205/205/205 206/206/206 207/207/207
f 208/208/208 209/209/209 210/210/210
f 211/211/211 212/212/212 213/213/213
f 214/214/214 215/215/215 216/216/216
f 217/217/217 218/218/218 219/219/219
f 220/220/220 221/221/221 222/222/222
f 223/223/223 224/224/224 225/225/225
f 226/226/226 227/227/227 228/228/228
f 229/229/229 230/230/230 231/231/231
f 232/232/232 233/233/233 234/234/234
f 235/235/235 236/236/236 237/237/237
f 238/238/238 239/239/239 240/240/240
f 241/241/241 242/242/242 243/243/243
f 244/244/244 245/245/245 246/246/246
f 247/247/247 248/248/248 249/249/249
f 250/250/250 251/251/251 252/252/252
f 253/253/253 254/254/254 255/255/255
f 256/256/256 257/257/257 258/258/258
f 259/259/259 260/260/260 261/261/261
f 262/262/262 263/263/263 264/264/264
f 265/265/265 266/266/266 267/267/267
f 268/268/268 269/269/269 270/270/270
f 271/271/271 272/272/272 273/273/273
f 274/274/274 275/275/275 276/276/276
f 277/277/277 278/278/278 279/279/279
f 280/280/280 281/281/281 282/282/282
f 283/283/283 284/284/284 285/285/285
f 286/286/286 287/287/287 288/288/288
