v 0 0 0
v 0.019134 -0 -0.046194
v 0 -0 -0.05
v -0.019134 0 0.046194
v 0 0 0
v -0.035355 0 0.035355
v 0.035355 -0 -0.035355
v 0.019134 -0 -0.046194
v 0 0 0
v -0.035355 0 0.035355
v 0 0 0
v -0.046194 0 0.019134
v 0.046194 -0 -0.019134
v 0 0 0
v 0.05 0 0
v -0.046194 0 0.019134
v 0 0 0
v -0.05 0 0
v -0.019134 -0 -0.046194
v 0 0 0
v 0 -0 -0.05
v 0.019134 0 0.046194
v 0 0 0
v 0 0 0.05
v 0.035355 0 0.035355
v 0 0 0
v 0.019134 0 0.046194
v -0.035355 -0 -0.035355
v 0 0 0
v -0.019134 -0 -0.046194
v 0 0 0
v 0.046194 0 0.019134
v 0.05 0 0
v -0.046194 -0 -0.019134
v 0 0 0
v -0.035355 -0 -0.035355
v 0 0 0
v 0.046194 -0 -0.019134
v 0.035355 -0 -0.035355
v 0.046194 0 0.019134
v 0 0 0
v 0.035355 0 0.035355
v -0.05 0 0
v 0 0 0
v -0.046194 -0 -0.019134
v 0 0 0.05
v 0 0 0
v -0.019134 0 0.046194
vn -0 1 -0
vn -0 1 -0
vn -0 1 -0
vn -0 1 -0
vn -0 1 -0
vn -0 1 -0
vn -0 1 -0
vn -0 1 -0
vn -0 1 -0
vn -0 1 -0
vn -0 1 -0
vn -0 1 -0
vn -0 1 -0
vn -0 1 -0
vn -0 1 -0
vn -0 1 -0
vn -0 1 -0
vn -0 1 -0
vn -0 1 -0
vn -0 1 -0
vn -0 1 -0
vn -0 1 -0
vn -0 1 -0
vn -0 1 -0
vn -0 1 -0
vn -0 1 -0
vn -0 1 -0
vn -0 1 -0
vn -0 1 -0
vn -0 1 -0
vn -0 1 -0
vn -0 1 -0
vn -0 1 -0
vn -0 1 -0
vn -0 1 -0
vn -0 1 -0
vn -0 1 -0
vn -0 1 -0
vn -0 1 -0
vn -0 1 -0
vn -0 1 -0
vn -0 1 -0
vn -0 1 -0
vn -0 1 -0
vn -0 1 -0
vn -0 1 -0
vn -0 1 -0
vn -0 1 -0
vt 0.5 0.5
vt 0.039744 0.309356
vt 0.001822 0.5
vt 0.960256 0.690644
vt 0.5 0.5
vt 0.852265 0.852265
vt 0.147735 0.147735
vt 0.039744 0.309356
vt 0.5 0.5
vt 0.852265 0.852265
vt 0.5 0.5
vt 0.690644 0.960256
vt 0.309356 0.039744
vt 0.5 0.5
vt 0.5 0.00182199
vt 0.690644 0.960256
vt 0.5 0.5
vt 0.5 0.998178
vt 0.039744 0.690644
vt 0.5 0.5
vt 0.001822 0.5
vt 0.960256 0.309356
vt 0.5 0.5
vt 0.998178 0.5
vt 0.852265 0.147735
vt 0.5 0.5
vt 0.960256 0.309356
vt 0.147735 0.852265
vt 0.5 0.5
vt 0.039744 0.690644
vt 0.5 0.5
vt 0.690644 0.039744
vt 0.5 0.00182199
vt 0.309356 0.960256
vt 0.5 0.5
vt 0.147735 0.852265
vt 0.5 0.5
vt 0.309356 0.039744
vt 0.147735 0.147735
vt 0.690644 0.039744
vt 0.5 0.5
vt 0.852265 0.147735
vt 0.5 0.998178
vt 0.5 0.5
vt 0.309356 0.960256
vt 0.998178 0.5
vt 0.5 0.5
vt 0.960256 0.690644
s off
f 1/1/1 2/2/2 3/3/3
f 4/4/4 5/5/5 6/6/6
f 7/7/7 8/8/8 9/9/9
f 10/10/10 11/11/11 12/12/12
f 13/13/13 14/14/14 15/15/15
f 16/16/16 17/17/17 18/18/18
f 19/19/19 20/20/20 21/21/21
f 22/22/22 23/23/23 24/24/24
f 25/25/25 26/26/26 27/27/27
f 28/28/28 29/29/29 30/30/30
f 31/31/31 32/32/32 33/33/33
f 34/34/34 35/35/35 36/36/36
f 37/37/37 38/38/38 39/39/39
f 40/40/40 41/41/41 42/42/42
f 43/43/43 44/44/44 45/45/45
f 46/46/46 47/47/47 48/48/48
