# Blender 5.2.0 LTS
# www.blender.org
mtllib trigger_right.mtl
o trigger_right
v -0.005489 -0.255296 -0.101563
v -0.013366 -0.262204 -0.084690
v -0.063783 -0.247099 -0.085484
v -0.058041 -0.241775 -0.103620
v -0.063783 -0.247099 -0.085484
v -0.013366 -0.262204 -0.084690
v -0.011137 -0.227419 -0.049009
v -0.047732 -0.217545 -0.049324
v -0.013366 -0.262204 -0.084690
v 0.052647 -0.254018 -0.066800
v 0.028503 -0.221167 -0.039006
v -0.011137 -0.227419 -0.049009
v 0.057853 -0.244103 -0.082289
v 0.052647 -0.254018 -0.066800
v -0.013366 -0.262204 -0.084690
v -0.005489 -0.255296 -0.101563
v 0.001301 -0.237609 -0.107058
v 0.055825 -0.226855 -0.090130
v 0.057853 -0.244103 -0.082289
v -0.005489 -0.255296 -0.101563
v -0.047171 -0.227364 -0.111111
v 0.001301 -0.237609 -0.107058
v -0.005489 -0.255296 -0.101563
v -0.058041 -0.241775 -0.103620
v 0.057853 -0.244103 -0.082289
v 0.055825 -0.226855 -0.090130
v 0.097724 -0.199519 -0.063022
v 0.097918 -0.213703 -0.055070
v 0.052647 -0.254018 -0.066800
v 0.057853 -0.244103 -0.082289
v 0.097918 -0.213703 -0.055070
v 0.093552 -0.225583 -0.044943
v 0.097918 -0.213703 -0.055070
v 0.097724 -0.199519 -0.063022
v 0.119191 -0.160596 -0.046076
v 0.123877 -0.169048 -0.033373
v 0.093552 -0.225583 -0.044943
v 0.097918 -0.213703 -0.055070
v 0.123877 -0.169048 -0.033373
v 0.124275 -0.176317 -0.019010
v 0.028503 -0.221167 -0.039006
v 0.052647 -0.254018 -0.066800
v 0.093552 -0.225583 -0.044943
v 0.056192 -0.199834 -0.018138
v 0.093552 -0.225583 -0.044943
v 0.124275 -0.176317 -0.019010
v 0.077826 -0.168518 0.024374
v 0.056192 -0.199834 -0.018138
v 0.142231 -0.122384 -0.004586
v 0.134697 -0.119303 0.024067
v 0.077826 -0.168518 0.024374
v 0.124275 -0.176317 -0.019010
v 0.138470 -0.119910 -0.023966
v 0.142231 -0.122384 -0.004586
v 0.124275 -0.176317 -0.019010
v 0.123877 -0.169048 -0.033373
v 0.134697 -0.119303 0.024067
v 0.142231 -0.122384 -0.004586
v 0.153214 -0.051074 -0.007578
v 0.155663 -0.053065 0.025446
v 0.148282 -0.051152 -0.027208
v 0.153214 -0.051074 -0.007578
v 0.142231 -0.122384 -0.004586
v 0.138470 -0.119910 -0.023966
v 0.138855 -0.050563 -0.045047
v 0.148282 -0.051152 -0.027208
v 0.138470 -0.119910 -0.023966
v 0.129545 -0.116457 -0.041556
v 0.129545 -0.116457 -0.041556
v 0.138470 -0.119910 -0.023966
v 0.123877 -0.169048 -0.033373
v 0.119191 -0.160596 -0.046076
v 0.148282 -0.051152 -0.027208
v 0.138855 -0.050563 -0.045047
v 0.148514 0.011896 -0.049213
v 0.153824 0.011302 -0.034979
v 0.153214 -0.051074 -0.007578
v 0.148282 -0.051152 -0.027208
v 0.153824 0.011302 -0.034979
v 0.156916 0.010896 -0.020093
v 0.153824 0.011302 -0.034979
v 0.148514 0.011896 -0.049213
v 0.143035 0.033120 -0.044568
v 0.148981 0.030749 -0.035899
v 0.156916 0.010896 -0.020093
v 0.153824 0.011302 -0.034979
v 0.148981 0.030749 -0.035899
v 0.153419 0.026677 -0.026937
v 0.155663 -0.053065 0.025446
v 0.153214 -0.051074 -0.007578
v 0.156916 0.010896 -0.020093
v 0.155496 0.026058 -0.000141
v 0.155496 0.026058 -0.000141
v 0.156916 0.010896 -0.020093
v 0.153419 0.026677 -0.026937
v 0.142897 0.035137 -0.007837
v 0.142897 0.035137 -0.007837
v 0.153419 0.026677 -0.026937
v 0.148981 0.030749 -0.035899
v 0.143035 0.033120 -0.044568
v 0.142897 0.035137 -0.007837
v 0.122790 0.033584 -0.014808
v 0.122237 0.033970 0.066686
v 0.142390 0.035491 0.066815
v 0.142897 0.035137 -0.007837
v 0.143035 0.033120 -0.044568
v 0.124853 0.033778 -0.034220
v 0.122790 0.033584 -0.014808
v 0.155496 0.026058 -0.000141
v 0.142897 0.035137 -0.007837
v 0.142390 0.035491 0.066815
v 0.155041 0.026376 0.066944
v 0.155663 -0.053065 0.025446
v 0.155496 0.026058 -0.000141
v 0.155041 0.026376 0.066944
v 0.155378 -0.052866 0.067322
v 0.131371 -0.124711 0.046650
v 0.155663 -0.053065 0.025446
v 0.155378 -0.052866 0.067322
v 0.131230 -0.124613 0.067498
v 0.092937 -0.158612 0.052819
v 0.131371 -0.124711 0.046650
v 0.131230 -0.124613 0.067498
v 0.092838 -0.158543 0.067398
v 0.028088 -0.176216 0.055908
v 0.092937 -0.158612 0.052819
v 0.092838 -0.158543 0.067398
v 0.028012 -0.176163 0.067041
v -0.019851 -0.179130 0.054903
v 0.028088 -0.176216 0.055908
v 0.028012 -0.176163 0.067041
v -0.019931 -0.179074 0.066730
v -0.063654 -0.160494 0.047759
v -0.019851 -0.179130 0.054903
v -0.019931 -0.179074 0.066730
v -0.063780 -0.160406 0.066343
v -0.107014 -0.131297 0.031990
v -0.063654 -0.160494 0.047759
v -0.063780 -0.160406 0.066343
v -0.107244 -0.131136 0.065910
v -0.134346 -0.095579 0.000805
v -0.107014 -0.131297 0.031990
v -0.107244 -0.131136 0.065910
v -0.134785 -0.095272 0.065553
v -0.159976 -0.053958 -0.048673
v -0.134346 -0.095579 0.000805
v -0.134785 -0.095272 0.065553
v -0.160749 -0.053419 0.065178
v -0.177083 -0.017757 -0.085940
v -0.159976 -0.053958 -0.048673
v -0.160749 -0.053419 0.065178
v -0.178107 -0.017043 0.064887
v -0.173241 -0.004570 -0.092470
v -0.177083 -0.017757 -0.085940
v -0.178107 -0.017043 0.064887
v -0.174309 -0.003826 0.064850
v -0.133195 0.006217 -0.078316
v -0.173241 -0.004570 -0.092470
v -0.174309 -0.003826 0.064850
v -0.134169 0.006895 0.065072
v -0.069732 0.013007 -0.058539
v -0.133195 0.006217 -0.078316
v -0.134169 0.006895 0.065072
v -0.070574 0.013594 0.065473
v -0.002968 0.020138 -0.046884
v -0.069732 0.013007 -0.058539
v -0.070574 0.013594 0.065473
v -0.003734 0.020672 0.065893
v 0.050596 0.025863 -0.034534
v -0.002968 0.020138 -0.046884
v -0.003734 0.020672 0.065893
v 0.049912 0.026340 0.066231
v 0.095611 0.030675 -0.024142
v 0.050596 0.025863 -0.034534
v 0.049912 0.026340 0.066231
v 0.094996 0.031105 0.066514
v 0.122790 0.033584 -0.014808
v 0.095611 0.030675 -0.024142
v 0.094996 0.031105 0.066514
v 0.122237 0.033970 0.066686
v 0.122790 0.033584 -0.014808
v 0.124853 0.033778 -0.034220
v 0.100444 0.031158 -0.047394
v 0.095611 0.030675 -0.024142
v 0.095611 0.030675 -0.024142
v 0.100444 0.031158 -0.047394
v 0.058529 0.026670 -0.062938
v 0.050596 0.025863 -0.034534
v 0.100444 0.031158 -0.047394
v 0.122245 0.032209 -0.068432
v 0.078342 0.027413 -0.093174
v 0.058529 0.026670 -0.062938
v 0.124853 0.033778 -0.034220
v 0.143035 0.033120 -0.044568
v 0.122245 0.032209 -0.068432
v 0.100444 0.031158 -0.047394
v 0.122245 0.032209 -0.068432
v 0.125904 0.011404 -0.077707
v 0.079814 0.006576 -0.102977
v 0.078342 0.027413 -0.093174
v 0.143035 0.033120 -0.044568
v 0.148514 0.011896 -0.049213
v 0.125904 0.011404 -0.077707
v 0.122245 0.032209 -0.068432
v 0.110094 -0.048506 -0.071156
v 0.125904 0.011404 -0.077707
v 0.148514 0.011896 -0.049213
v 0.138855 -0.050563 -0.045047
v 0.110094 -0.048506 -0.071156
v 0.066802 -0.047873 -0.092235
v 0.079814 0.006576 -0.102977
v 0.125904 0.011404 -0.077707
v 0.066802 -0.047873 -0.092235
v 0.015722 -0.049489 -0.106099
v 0.024321 0.001054 -0.118133
v 0.079814 0.006576 -0.102977
v 0.079814 0.006576 -0.102977
v 0.024321 0.001054 -0.118133
v 0.023418 0.021506 -0.108544
v 0.078342 0.027413 -0.093174
v 0.024321 0.001054 -0.118133
v -0.047467 -0.005004 -0.126889
v -0.055364 0.013607 -0.115854
v 0.023418 0.021506 -0.108544
v 0.024321 0.001054 -0.118133
v 0.015722 -0.049489 -0.106099
v -0.040425 -0.053606 -0.114148
v -0.047467 -0.005004 -0.126889
v 0.057650 -0.097940 -0.085262
v 0.011572 -0.096810 -0.097449
v 0.015722 -0.049489 -0.106099
v 0.066802 -0.047873 -0.092235
v 0.015722 -0.049489 -0.106099
v 0.011572 -0.096810 -0.097449
v -0.036458 -0.099544 -0.104852
v -0.040425 -0.053606 -0.114148
v -0.047467 -0.005004 -0.126889
v -0.040425 -0.053606 -0.114148
v -0.093435 -0.059069 -0.115796
v -0.102561 -0.010315 -0.126891
v -0.040425 -0.053606 -0.114148
v -0.036458 -0.099544 -0.104852
v -0.082173 -0.104531 -0.107457
v -0.093435 -0.059069 -0.115796
v -0.082173 -0.104531 -0.107457
v -0.036458 -0.099544 -0.104852
v -0.033989 -0.142072 -0.101177
v -0.071845 -0.146667 -0.104285
v -0.036458 -0.099544 -0.104852
v 0.011572 -0.096810 -0.097449
v 0.008712 -0.139794 -0.094310
v -0.033989 -0.142072 -0.101177
v -0.071845 -0.146667 -0.104285
v -0.033989 -0.142072 -0.101177
v -0.030600 -0.175978 -0.101728
v -0.057839 -0.182034 -0.105020
v -0.033989 -0.142072 -0.101177
v 0.008712 -0.139794 -0.094310
v 0.007090 -0.175832 -0.095531
v -0.030600 -0.175978 -0.101728
v 0.043831 -0.176557 -0.086826
v 0.007090 -0.175832 -0.095531
v 0.008712 -0.139794 -0.094310
v 0.049543 -0.140806 -0.084200
v 0.057650 -0.097940 -0.085262
v 0.049543 -0.140806 -0.084200
v 0.008712 -0.139794 -0.094310
v 0.011572 -0.096810 -0.097449
v 0.049543 -0.140806 -0.084200
v 0.087440 -0.148542 -0.069799
v 0.072142 -0.184886 -0.078192
v 0.043831 -0.176557 -0.086826
v 0.057650 -0.097940 -0.085262
v 0.098502 -0.103781 -0.067183
v 0.087440 -0.148542 -0.069799
v 0.049543 -0.140806 -0.084200
v 0.110094 -0.048506 -0.071156
v 0.098502 -0.103781 -0.067183
v 0.057650 -0.097940 -0.085262
v 0.066802 -0.047873 -0.092235
v 0.087440 -0.148542 -0.069799
v 0.098502 -0.103781 -0.067183
v 0.129545 -0.116457 -0.041556
v 0.119191 -0.160596 -0.046076
v 0.110094 -0.048506 -0.071156
v 0.138855 -0.050563 -0.045047
v 0.129545 -0.116457 -0.041556
v 0.098502 -0.103781 -0.067183
v 0.097724 -0.199519 -0.063022
v 0.072142 -0.184886 -0.078192
v 0.087440 -0.148542 -0.069799
v 0.119191 -0.160596 -0.046076
v 0.043831 -0.176557 -0.086826
v 0.072142 -0.184886 -0.078192
v 0.046022 -0.204052 -0.089625
v 0.055825 -0.226855 -0.090130
v 0.046022 -0.204052 -0.089625
v 0.072142 -0.184886 -0.078192
v 0.097724 -0.199519 -0.063022
v 0.043831 -0.176557 -0.086826
v 0.046022 -0.204052 -0.089625
v 0.005250 -0.206774 -0.099862
v 0.007090 -0.175832 -0.095531
v 0.005250 -0.206774 -0.099862
v 0.046022 -0.204052 -0.089625
v 0.055825 -0.226855 -0.090130
v 0.001301 -0.237609 -0.107058
v -0.030600 -0.175978 -0.101728
v 0.007090 -0.175832 -0.095531
v 0.005250 -0.206774 -0.099862
v -0.033556 -0.200075 -0.104939
v -0.033556 -0.200075 -0.104939
v 0.005250 -0.206774 -0.099862
v 0.001301 -0.237609 -0.107058
v -0.047171 -0.227364 -0.111111
v -0.030600 -0.175978 -0.101728
v -0.033556 -0.200075 -0.104939
v -0.057839 -0.182034 -0.105020
v -0.087642 -0.197596 -0.107715
v -0.057839 -0.182034 -0.105020
v -0.033556 -0.200075 -0.104939
v -0.047171 -0.227364 -0.111111
v -0.105615 -0.206268 -0.096722
v -0.087642 -0.197596 -0.107715
v -0.047171 -0.227364 -0.111111
v -0.058041 -0.241775 -0.103620
v -0.134464 -0.163003 -0.092746
v -0.114395 -0.157390 -0.104458
v -0.087642 -0.197596 -0.107715
v -0.105615 -0.206268 -0.096722
v -0.087642 -0.197596 -0.107715
v -0.114395 -0.157390 -0.104458
v -0.071845 -0.146667 -0.104285
v -0.057839 -0.182034 -0.105020
v -0.129899 -0.111945 -0.105691
v -0.114395 -0.157390 -0.104458
v -0.134464 -0.163003 -0.092746
v -0.152460 -0.116780 -0.094279
v -0.129899 -0.111945 -0.105691
v -0.082173 -0.104531 -0.107457
v -0.071845 -0.146667 -0.104285
v -0.114395 -0.157390 -0.104458
v -0.129899 -0.111945 -0.105691
v -0.141879 -0.063180 -0.112772
v -0.093435 -0.059069 -0.115796
v -0.082173 -0.104531 -0.107457
v -0.163916 -0.065254 -0.102407
v -0.141879 -0.063180 -0.112772
v -0.129899 -0.111945 -0.105691
v -0.152460 -0.116780 -0.094279
v -0.161164 -0.116299 -0.069959
v -0.174101 -0.062348 -0.077364
v -0.163916 -0.065254 -0.102407
v -0.152460 -0.116780 -0.094279
v -0.134464 -0.163003 -0.092746
v -0.142648 -0.163005 -0.070815
v -0.161164 -0.116299 -0.069959
v -0.152460 -0.116780 -0.094279
v -0.161164 -0.116299 -0.069959
v -0.145287 -0.106094 -0.041424
v -0.166853 -0.058944 -0.065419
v -0.174101 -0.062348 -0.077364
v -0.145287 -0.106094 -0.041424
v -0.161164 -0.116299 -0.069959
v -0.142648 -0.163005 -0.070815
v -0.100880 -0.149716 -0.012084
v -0.145287 -0.106094 -0.041424
v -0.134346 -0.095579 0.000805
v -0.159976 -0.053958 -0.048673
v -0.166853 -0.058944 -0.065419
v -0.134346 -0.095579 0.000805
v -0.145287 -0.106094 -0.041424
v -0.100880 -0.149716 -0.012084
v -0.177083 -0.017757 -0.085940
v -0.166853 -0.058944 -0.065419
v -0.159976 -0.053958 -0.048673
v -0.177083 -0.017757 -0.085940
v -0.174101 -0.062348 -0.077364
v -0.166853 -0.058944 -0.065419
v -0.100880 -0.149716 -0.012084
v -0.077776 -0.191634 -0.038876
v -0.044554 -0.189385 -0.017740
v -0.055523 -0.171461 0.009307
v -0.113600 -0.207268 -0.076989
v -0.077776 -0.191634 -0.038876
v -0.100880 -0.149716 -0.012084
v -0.142648 -0.163005 -0.070815
v -0.107014 -0.131297 0.031990
v -0.100880 -0.149716 -0.012084
v -0.055523 -0.171461 0.009307
v -0.063654 -0.160494 0.047759
v -0.107014 -0.131297 0.031990
v -0.134346 -0.095579 0.000805
v -0.100880 -0.149716 -0.012084
v -0.063654 -0.160494 0.047759
v -0.055523 -0.171461 0.009307
v -0.014605 -0.180415 0.020490
v -0.019851 -0.179130 0.054903
v -0.014605 -0.180415 0.020490
v -0.055523 -0.171461 0.009307
v -0.044554 -0.189385 -0.017740
v -0.012074 -0.191507 -0.008938
v -0.012074 -0.191507 -0.008938
v -0.044554 -0.189385 -0.017740
v -0.034527 -0.204392 -0.032073
v -0.011117 -0.206937 -0.029247
v -0.047732 -0.217545 -0.049324
v -0.034527 -0.204392 -0.032073
v -0.044554 -0.189385 -0.017740
v -0.077776 -0.191634 -0.038876
v -0.011137 -0.227419 -0.049009
v -0.011117 -0.206937 -0.029247
v -0.034527 -0.204392 -0.032073
v -0.047732 -0.217545 -0.049324
v -0.113600 -0.207268 -0.076989
v -0.063783 -0.247099 -0.085484
v -0.047732 -0.217545 -0.049324
v -0.077776 -0.191634 -0.038876
v -0.011137 -0.227419 -0.049009
v 0.028503 -0.221167 -0.039006
v 0.013085 -0.206200 -0.026116
v -0.011117 -0.206937 -0.029247
v 0.013085 -0.206200 -0.026116
v 0.021761 -0.192353 -0.008185
v -0.012074 -0.191507 -0.008938
v -0.011117 -0.206937 -0.029247
v 0.028503 -0.221167 -0.039006
v 0.056192 -0.199834 -0.018138
v 0.021761 -0.192353 -0.008185
v 0.013085 -0.206200 -0.026116
v 0.030175 -0.180447 0.024640
v -0.014605 -0.180415 0.020490
v -0.012074 -0.191507 -0.008938
v 0.021761 -0.192353 -0.008185
v 0.021761 -0.192353 -0.008185
v 0.056192 -0.199834 -0.018138
v 0.077826 -0.168518 0.024374
v 0.030175 -0.180447 0.024640
v 0.028088 -0.176216 0.055908
v 0.030175 -0.180447 0.024640
v 0.077826 -0.168518 0.024374
v 0.092937 -0.158612 0.052819
v -0.019851 -0.179130 0.054903
v -0.014605 -0.180415 0.020490
v 0.030175 -0.180447 0.024640
v 0.028088 -0.176216 0.055908
v -0.113600 -0.207268 -0.076989
v -0.105615 -0.206268 -0.096722
v -0.058041 -0.241775 -0.103620
v -0.063783 -0.247099 -0.085484
v -0.113600 -0.207268 -0.076989
v -0.142648 -0.163005 -0.070815
v -0.134464 -0.163003 -0.092746
v -0.105615 -0.206268 -0.096722
v -0.174101 -0.062348 -0.077364
v -0.177083 -0.017757 -0.085940
v -0.171547 -0.017023 -0.109010
v -0.163916 -0.065254 -0.102407
v -0.171547 -0.017023 -0.109010
v -0.151542 -0.015773 -0.122112
v -0.141879 -0.063180 -0.112772
v -0.163916 -0.065254 -0.102407
v -0.149014 0.004113 -0.109008
v -0.151542 -0.015773 -0.122112
v -0.171547 -0.017023 -0.109010
v -0.159987 0.002590 -0.104036
v -0.171547 -0.017023 -0.109010
v -0.177083 -0.017757 -0.085940
v -0.173241 -0.004570 -0.092470
v -0.159987 0.002590 -0.104036
v -0.124363 0.007130 -0.098802
v -0.117300 0.007019 -0.114222
v -0.149014 0.004113 -0.109008
v -0.159987 0.002590 -0.104036
v -0.173241 -0.004570 -0.092470
v -0.133195 0.006217 -0.078316
v -0.124363 0.007130 -0.098802
v -0.159987 0.002590 -0.104036
v -0.069732 0.013007 -0.058539
v -0.062715 0.013715 -0.087760
v -0.124363 0.007130 -0.098802
v -0.133195 0.006217 -0.078316
v -0.062715 0.013715 -0.087760
v -0.055364 0.013607 -0.115854
v -0.117300 0.007019 -0.114222
v -0.124363 0.007130 -0.098802
v -0.117300 0.007019 -0.114222
v -0.102561 -0.010315 -0.126891
v -0.151542 -0.015773 -0.122112
v -0.149014 0.004113 -0.109008
v -0.055364 0.013607 -0.115854
v -0.047467 -0.005004 -0.126889
v -0.102561 -0.010315 -0.126891
v -0.117300 0.007019 -0.114222
v 0.004108 0.020851 -0.076556
v 0.023418 0.021506 -0.108544
v -0.055364 0.013607 -0.115854
v -0.062715 0.013715 -0.087760
v -0.151542 -0.015773 -0.122112
v -0.102561 -0.010315 -0.126891
v -0.093435 -0.059069 -0.115796
v -0.141879 -0.063180 -0.112772
v -0.002968 0.020138 -0.046884
v 0.004108 0.020851 -0.076556
v -0.062715 0.013715 -0.087760
v -0.069732 0.013007 -0.058539
v 0.058529 0.026670 -0.062938
v 0.078342 0.027413 -0.093174
v 0.023418 0.021506 -0.108544
v 0.004108 0.020851 -0.076556
v 0.050596 0.025863 -0.034534
v 0.058529 0.026670 -0.062938
v 0.004108 0.020851 -0.076556
v -0.002968 0.020138 -0.046884
v 0.077826 -0.168518 0.024374
v 0.134697 -0.119303 0.024067
v 0.131371 -0.124711 0.046650
v 0.092937 -0.158612 0.052819
v 0.134697 -0.119303 0.024067
v 0.155663 -0.053065 0.025446
v 0.131371 -0.124711 0.046650
vn 0.1073 -0.7245 -0.6808
vn -0.0048 -0.9178 -0.3970
vn -0.4684 -0.8013 -0.3723
vn -0.3520 -0.6426 -0.6806
vn -0.3009 -0.6763 0.6723
vn -0.1504 -0.7004 0.6977
vn -0.1402 -0.6990 0.7012
vn -0.2965 -0.6792 0.6714
vn -0.0370 -0.6847 0.7279
vn -0.0375 -0.6911 0.7218
vn 0.4951 -0.6295 -0.5988
vn 0.4190 -0.8340 -0.3591
vn -0.0047 -0.9178 -0.3970
vn 0.2013 -0.1032 -0.9741
vn 0.4383 -0.1148 -0.8915
vn 0.4951 -0.6295 -0.5989
vn -0.0390 -0.0920 -0.9950
vn 0.4383 -0.1147 -0.8915
vn 0.6521 -0.1096 -0.7502
vn 0.7927 -0.4318 -0.4304
vn 0.4190 -0.8339 -0.3591
vn 0.7927 -0.4318 -0.4303
vn 0.7583 -0.5906 -0.2758
vn 0.7038 -0.1066 -0.7024
vn 0.9055 -0.2873 -0.3124
vn 0.7584 -0.5906 -0.2757
vn 0.9055 -0.2873 -0.3123
vn 0.9175 -0.3472 -0.1939
vn 0.1519 -0.7010 0.6968
vn 0.1446 -0.7502 0.6452
vn 0.4379 -0.6501 0.6210
vn 0.3636 -0.7142 0.5981
vn 0.8093 -0.4375 0.3921
vn 0.8202 -0.4288 0.3787
vn 0.9288 -0.1785 -0.3247
vn 0.9581 -0.1941 -0.2108
vn 0.9176 -0.3471 -0.1939
vn 0.8093 -0.4374 0.3921
vn 0.9920 -0.1214 0.0332
vn 0.9938 -0.1091 0.0208
vn 0.9319 -0.1411 -0.3341
vn 0.9650 -0.1348 -0.2248
vn 0.7516 -0.1721 -0.6368
vn 0.7212 -0.1341 -0.6796
vn 0.9288 -0.1785 -0.3248
vn 0.7949 -0.0681 -0.6029
vn 0.9394 -0.0715 -0.3352
vn 0.9698 -0.0796 -0.2305
vn 0.4487 0.8244 -0.3451
vn 0.7933 0.5714 -0.2102
vn 0.9698 -0.0795 -0.2305
vn 0.8413 0.5277 -0.1169
vn 0.9938 -0.1090 0.0208
vn 0.9921 -0.1214 0.0332
vn 0.9993 0.0340 -0.0173
vn 0.9779 0.2093 -0.0026
vn 0.9778 0.2093 -0.0026
vn 0.1981 0.9801 -0.0134
vn 0.8413 0.5278 -0.1169
vn -0.0885 0.9960 -0.0083
vn -0.0928 0.9957 -0.0053
vn 0.2088 0.9780 -0.0032
vn -0.0569 0.9980 -0.0274
vn 0.2088 0.9779 -0.0032
vn 0.9834 0.1814 0.0058
vn 0.9779 0.2092 -0.0026
vn 0.9937 -0.1118 0.0073
vn 0.8422 -0.5388 -0.0180
vn 0.9937 -0.1119 0.0073
vn 0.8929 -0.4502 0.0082
vn 0.5108 -0.8596 0.0089
vn 0.8929 -0.4502 0.0083
vn 0.4797 -0.8774 0.0074
vn 0.1583 -0.9831 0.0924
vn 0.5107 -0.8597 0.0089
vn 0.4796 -0.8774 0.0074
vn 0.1846 -0.9828 0.0059
vn -0.1828 -0.9808 0.0673
vn -0.2016 -0.9795 0.0033
vn -0.4851 -0.8686 0.1015
vn -0.1829 -0.9808 0.0673
vn -0.5030 -0.8643 0.0007
vn -0.7028 -0.7074 0.0761
vn -0.4851 -0.8685 0.1015
vn -0.7124 -0.7018 -0.0015
vn -0.8514 -0.5195 0.0728
vn -0.7028 -0.7073 0.0761
vn -0.8316 -0.5554 -0.0030
vn -0.9122 -0.4037 0.0706
vn -0.8316 -0.5553 -0.0030
vn -0.8800 -0.4750 -0.0037
vn -0.9935 -0.0880 -0.0719
vn -0.9702 -0.2424 -0.0055
vn -0.4884 0.8722 -0.0286
vn -0.9702 -0.2424 -0.0056
vn -0.4826 0.8758 -0.0074
vn -0.1793 0.9838 -0.0010
vn -0.4826 0.8758 -0.0073
vn -0.1699 0.9854 -0.0058
vn -0.1052 0.9944 -0.0044
vn -0.1047 0.9945 -0.0054
vn -0.1054 0.9944 -0.0045
vn -0.1052 0.9944 -0.0045
vn -0.1053 0.9944 -0.0054
vn -0.1053 0.9944 -0.0045
vn -0.1050 0.9945 -0.0054
vn -0.1051 0.9945 -0.0054
vn -0.1051 0.9944 -0.0054
vn -0.1049 0.9945 -0.0054
vn -0.0902 0.9956 -0.0233
vn -0.0902 0.9957 -0.0233
vn -0.0993 0.9948 -0.0223
vn 0.2852 0.8423 -0.4574
vn 0.1002 0.8789 -0.4664
vn 0.5954 -0.0532 -0.8017
vn 0.3696 -0.0546 -0.9276
vn 0.4486 0.8244 -0.3451
vn 0.2851 0.8423 -0.4574
vn 0.5473 -0.2006 -0.8126
vn 0.5954 -0.0532 -0.8016
vn 0.5472 -0.2006 -0.8126
vn 0.3475 -0.2204 -0.9114
vn 0.3696 -0.0547 -0.9276
vn 0.2031 -0.2224 -0.9536
vn 0.1903 -0.0223 -0.9815
vn 0.1903 -0.0222 -0.9815
vn -0.0034 0.8839 -0.4676
vn 0.0698 0.0097 -0.9975
vn -0.0674 0.8821 -0.4662
vn -0.0034 0.8839 -0.4677
vn 0.1039 -0.2143 -0.9712
vn 0.3227 -0.1354 -0.9368
vn 0.2044 -0.1415 -0.9686
vn 0.1151 -0.1370 -0.9839
vn 0.0698 0.0096 -0.9975
vn 0.0034 -0.2010 -0.9796
vn -0.0361 0.0105 -0.9993
vn 0.0233 -0.1233 -0.9921
vn 0.1229 -0.0310 -0.9919
vn 0.0373 -0.0138 -0.9992
vn 0.2006 -0.0349 -0.9791
vn 0.1337 0.0640 -0.9890
vn 0.0532 0.0864 -0.9948
vn 0.1975 0.0687 -0.9779
vn 0.2742 0.0646 -0.9595
vn 0.2999 -0.0293 -0.9535
vn 0.4840 -0.0338 -0.8744
vn 0.4498 0.0457 -0.8920
vn 0.5097 -0.1279 -0.8508
vn 0.7037 -0.1066 -0.7024
vn 0.3120 0.1241 -0.9419
vn 0.6520 -0.1096 -0.7502
vn 0.3120 0.1241 -0.9420
vn 0.1959 0.1512 -0.9689
vn 0.2013 -0.1031 -0.9741
vn 0.1145 0.1524 -0.9817
vn -0.0390 -0.0919 -0.9950
vn -0.1723 -0.0856 -0.9813
vn -0.0390 -0.0918 -0.9950
vn -0.6008 -0.4967 -0.6264
vn -0.1723 -0.0857 -0.9813
vn -0.7001 -0.3444 -0.6255
vn -0.1887 -0.0940 -0.9775
vn -0.1886 -0.0940 -0.9776
vn -0.1719 -0.1552 -0.9728
vn -0.7284 -0.2782 -0.6262
vn -0.1718 -0.1552 -0.9728
vn -0.1810 -0.2106 -0.9607
vn -0.7391 -0.2375 -0.6303
vn -0.7284 -0.2781 -0.6262
vn -0.8974 -0.2982 -0.3251
vn -0.9244 -0.2124 -0.3168
vn -0.7392 -0.2375 -0.6302
vn -0.7284 -0.2782 -0.6261
vn -0.8535 -0.4098 -0.3219
vn -0.7765 -0.2746 0.5671
vn -0.7690 -0.2884 0.5705
vn -0.8466 -0.1017 0.5225
vn -0.8478 -0.0935 0.5220
vn -0.7764 -0.2747 0.5672
vn -0.6502 -0.4615 0.6036
vn -0.5963 -0.5447 0.5897
vn -0.8807 -0.3305 0.3393
vn -0.9122 -0.4036 0.0706
vn -0.9222 -0.1668 0.3489
vn -0.8513 -0.5195 0.0728
vn -0.8807 -0.3306 0.3393
vn -0.6587 -0.7243 0.2037
vn -0.8593 0.0406 0.5098
vn -0.8466 -0.1016 0.5225
vn -0.4654 -0.6390 0.6124
vn -0.3471 -0.7762 0.5264
vn -0.3902 -0.7855 0.4804
vn -0.4851 -0.6029 0.6334
vn -0.4642 -0.8716 0.1575
vn -0.4852 -0.8685 0.1015
vn -0.4641 -0.8716 0.1575
vn -0.1650 -0.9818 0.0941
vn -0.1323 -0.9179 0.3741
vn -0.3901 -0.7855 0.4804
vn -0.1313 -0.8799 0.4566
vn -0.3470 -0.7762 0.5264
vn -0.2354 -0.7160 0.6573
vn -0.1210 -0.7340 0.6683
vn -0.0431 -0.7359 0.6757
vn 0.0242 -0.8699 0.4926
vn -0.1313 -0.8799 0.4567
vn 0.0242 -0.8699 0.4927
vn 0.0617 -0.9015 0.4283
vn 0.1503 -0.9797 0.1323
vn 0.3883 -0.9167 0.0941
vn -0.1649 -0.9818 0.0941
vn 0.1503 -0.9798 0.1323
vn -0.7336 -0.5915 -0.3345
vn -0.4684 -0.8012 -0.3723
vn -0.7337 -0.5914 -0.3345
vn -0.9935 -0.0880 -0.0720
vn -0.7612 -0.0614 -0.6456
vn -0.2250 -0.0352 -0.9737
vn -0.2304 0.7444 -0.6267
vn -0.4013 0.8891 -0.2201
vn -0.4013 0.8891 -0.2202
vn -0.1227 0.9924 -0.0008
vn -0.1271 0.8478 -0.5149
vn -0.1032 0.9945 -0.0188
vn -0.1014 0.9946 -0.0206
vn 0.3884 -0.9167 0.0941
vn 0.8030 -0.5955 -0.0241
vn 0.8422 -0.5389 -0.0180
vn 0.8423 -0.5388 -0.0180
vt 0.000000 1.000000
vt 0.000000 0.500000
vt 0.000000 0.000000
vt 1.000000 0.000000
vt 1.000000 0.500000
vt 1.000000 1.000000
vt 0.500000 1.000000
vt 0.500000 0.000000
vt 0.000000 0.576664
vt 1.000000 0.579014
vt 0.000000 0.423336
vt 1.000000 0.420986
s 1
f 1/1/1 2/1/2 3/1/3
f 1/1/1 3/1/3 4/1/4
f 5/1/5 6/1/6 7/1/7
f 5/1/5 7/1/7 8/1/8
f 9/1/6 10/1/9 11/1/10
f 9/1/6 11/1/10 12/1/7
f 13/1/11 14/1/12 15/1/13
f 13/1/11 15/1/13 16/1/1
f 17/1/14 18/1/15 19/1/16
f 17/1/14 19/1/16 20/1/1
f 21/1/17 22/1/14 23/1/1
f 21/1/17 23/1/1 24/1/4
f 25/1/16 26/1/18 27/1/19
f 25/1/16 27/1/19 28/1/20
f 29/1/21 30/1/16 31/1/22
f 29/1/21 31/1/22 32/1/23
f 33/2/22 34/3/19 35/4/24
f 33/2/22 35/4/24 36/5/25
f 37/1/26 38/2/22 39/5/27
f 37/1/26 39/5/27 40/6/28
f 41/1/10 42/1/9 43/1/29
f 41/1/10 43/1/29 44/1/30
f 45/1/29 46/3/31 47/4/32
f 45/1/29 47/4/32 48/6/30
f 49/1/33 50/3/34 51/4/32
f 49/1/33 51/4/32 52/6/31
f 53/2/35 54/3/36 55/4/37
f 53/2/35 55/4/37 56/5/27
f 57/1/34 58/3/38 59/4/39
f 57/1/34 59/4/39 60/6/40
f 61/2/41 62/3/42 63/4/36
f 61/2/41 63/4/36 64/5/35
f 65/1/43 66/2/41 67/5/35
f 65/1/43 67/5/35 68/6/44
f 69/1/44 70/2/45 71/5/27
f 69/1/44 71/5/27 72/6/24
f 73/2/41 74/3/43 75/4/46
f 73/2/41 75/4/46 76/5/47
f 77/1/42 78/2/41 79/5/47
f 77/1/42 79/5/47 80/6/48
f 81/2/47 82/3/46 83/4/49
f 81/2/47 83/4/49 84/5/50
f 85/1/51 86/2/47 87/5/50
f 85/1/51 87/5/50 88/6/52
f 89/3/53 90/4/54 91/6/55
f 89/3/53 91/6/55 92/1/56
f 93/3/57 94/4/55 95/6/52
f 93/3/57 95/6/52 96/1/58
f 97/3/58 98/4/59 99/5/50
f 97/3/58 99/5/50 100/6/49
f 101/1/58 102/6/60 103/4/61
f 101/1/58 103/4/61 104/3/62
f 105/3/58 106/6/49 107/7/63
f 105/3/58 107/7/63 108/1/60
f 109/1/56 110/6/58 111/4/64
f 109/1/56 111/4/64 112/3/65
f 113/1/53 114/6/66 115/4/65
f 113/1/53 115/4/65 116/3/67
f 117/1/68 118/6/40 119/4/69
f 117/1/68 119/4/69 120/3/70
f 121/1/71 122/6/68 123/4/72
f 121/1/71 123/4/72 124/3/73
f 125/1/74 126/6/75 127/4/76
f 125/1/74 127/4/76 128/3/77
f 129/1/78 130/6/74 131/4/77
f 129/1/78 131/4/77 132/3/79
f 133/1/80 134/6/81 135/4/79
f 133/1/80 135/4/79 136/3/82
f 137/1/83 138/6/84 139/4/82
f 137/1/83 139/4/82 140/3/85
f 141/1/86 142/6/87 143/4/85
f 141/1/86 143/4/85 144/3/88
f 145/1/89 146/6/86 147/4/90
f 145/1/89 147/4/90 148/3/91
f 149/1/92 150/6/89 151/4/91
f 149/1/92 151/4/91 152/3/93
f 153/1/94 154/6/92 155/4/95
f 153/1/94 155/4/95 156/3/96
f 157/1/97 158/6/94 159/4/98
f 157/1/97 159/4/98 160/3/99
f 161/1/100 162/6/97 163/4/99
f 161/1/100 163/4/99 164/3/101
f 165/1/102 166/6/103 167/4/104
f 165/1/102 167/4/104 168/3/104
f 169/1/105 170/6/102 171/4/106
f 169/1/105 171/4/106 172/3/106
f 173/1/103 174/6/105 175/4/107
f 173/1/103 175/4/107 176/3/108
f 177/1/60 178/6/103 179/4/109
f 177/1/60 179/4/109 180/3/61
f 181/3/60 182/8/63 183/7/110
f 181/3/60 183/7/110 184/1/103
f 185/3/103 186/8/111 187/7/112
f 185/3/103 187/7/112 188/1/105
f 189/8/111 190/4/113 191/6/114
f 189/8/111 191/6/114 192/7/112
f 193/8/63 194/4/49 195/6/113
f 193/8/63 195/6/113 196/7/111
f 197/1/113 198/3/115 199/4/116
f 197/1/113 199/4/116 200/6/114
f 201/1/117 202/3/46 203/4/115
f 201/1/117 203/4/115 204/6/118
f 205/1/119 206/3/120 207/4/46
f 205/1/119 207/4/46 208/6/43
f 209/1/121 210/1/122 211/1/123
f 209/1/121 211/1/123 212/1/115
f 213/1/122 214/1/124 215/1/125
f 213/1/122 215/1/125 216/1/116
f 217/1/116 218/1/126 219/1/127
f 217/1/116 219/1/127 220/1/114
f 221/1/126 222/1/128 223/1/129
f 221/1/126 223/1/129 224/1/130
f 225/1/126 226/1/124 227/1/131
f 225/1/126 227/1/131 228/1/128
f 229/1/132 230/1/133 231/1/124
f 229/1/132 231/1/124 232/1/122
f 233/1/124 234/1/133 235/1/134
f 233/1/124 235/1/134 236/1/131
f 237/1/135 238/1/131 239/1/136
f 237/1/135 239/1/136 240/1/137
f 241/1/131 242/1/134 243/1/138
f 241/1/131 243/1/138 244/1/136
f 245/1/138 246/1/134 247/1/139
f 245/1/138 247/1/139 248/1/140
f 249/1/134 250/1/133 251/1/141
f 249/1/134 251/1/141 252/1/139
f 253/1/140 254/1/139 255/1/142
f 253/1/140 255/1/142 256/1/143
f 257/1/139 258/1/141 259/1/144
f 257/1/139 259/1/144 260/1/142
f 261/1/145 262/1/144 263/1/141
f 261/1/145 263/1/141 264/1/146
f 265/1/132 266/1/146 267/1/141
f 265/1/132 267/1/141 268/1/133
f 269/1/146 270/1/147 271/1/148
f 269/1/146 271/1/148 272/1/145
f 273/1/132 274/1/149 275/1/147
f 273/1/132 275/1/147 276/1/146
f 277/1/121 278/1/149 279/1/132
f 277/1/121 279/1/132 280/1/122
f 281/1/147 282/1/149 283/1/44
f 281/1/147 283/1/44 284/1/150
f 285/1/121 286/1/43 287/1/44
f 285/1/121 287/1/44 288/1/149
f 289/1/19 290/1/148 291/1/147
f 289/1/19 291/1/147 292/1/150
f 293/1/145 294/1/148 295/1/151
f 296/1/18 297/1/151 298/1/148
f 296/1/18 298/1/148 299/1/152
f 300/1/145 301/1/153 302/1/154
f 300/1/145 302/1/154 303/1/144
f 304/1/154 305/1/151 306/1/18
f 304/1/154 306/1/18 307/1/155
f 308/1/142 309/1/144 310/1/154
f 308/1/142 310/1/154 311/1/156
f 312/1/156 313/1/154 314/1/14
f 312/1/156 314/1/14 315/1/157
f 316/1/142 317/1/156 318/1/143
f 319/1/158 320/1/143 321/1/156
f 319/1/158 321/1/156 322/1/159
f 323/1/160 324/1/161 325/1/157
f 323/1/160 325/1/157 326/1/4
f 327/1/162 328/1/163 329/1/158
f 327/1/162 329/1/158 330/1/160
f 331/1/158 332/1/164 333/1/140
f 331/1/158 333/1/140 334/1/143
f 335/1/165 336/1/163 337/1/162
f 335/1/165 337/1/162 338/1/166
f 339/1/167 340/1/138 341/1/140
f 339/1/167 341/1/140 342/1/164
f 343/1/167 344/1/168 345/1/136
f 343/1/167 345/1/136 346/1/138
f 347/1/169 348/1/168 349/1/167
f 347/1/169 349/1/167 350/1/170
f 351/1/171 352/1/172 353/1/173
f 351/1/171 353/1/173 354/1/174
f 355/1/162 356/1/175 357/1/171
f 355/1/162 357/1/171 358/1/174
f 359/1/176 360/9/177 361/10/178
f 359/1/176 361/10/178 362/6/179
f 363/11/177 364/3/180 365/4/181
f 363/11/177 365/4/181 366/6/182
f 367/9/183 368/3/86 369/4/184
f 367/9/183 369/4/184 370/10/185
f 371/1/186 372/11/187 373/6/188
f 374/2/92 375/12/185 376/6/89
f 377/2/189 378/4/179 379/12/190
f 380/1/182 381/1/191 382/1/192
f 380/1/182 382/1/192 383/1/193
f 384/1/194 385/1/191 386/1/182
f 384/1/194 386/1/182 387/1/181
f 388/1/87 389/3/188 390/4/195
f 388/1/87 390/4/195 391/6/196
f 392/7/87 393/3/86 394/4/188
f 395/1/84 396/3/197 397/4/198
f 395/1/84 397/4/198 398/6/81
f 399/1/199 400/1/200 401/1/192
f 399/1/199 401/1/192 402/1/201
f 403/1/201 404/1/202 405/1/203
f 403/1/201 405/1/203 406/1/204
f 407/1/8 408/1/203 409/1/192
f 407/1/8 409/1/192 410/1/191
f 411/1/7 412/1/204 413/1/203
f 411/1/7 413/1/203 414/1/8
f 415/1/194 416/1/5 417/1/8
f 415/1/194 417/1/8 418/1/191
f 419/1/7 420/1/10 421/1/205
f 419/1/7 421/1/205 422/1/204
f 423/1/205 424/1/206 425/1/207
f 423/1/205 425/1/207 426/1/204
f 427/1/10 428/1/30 429/1/208
f 427/1/10 429/1/208 430/1/205
f 431/1/209 432/1/199 433/1/201
f 431/1/209 433/1/201 434/1/206
f 435/1/206 436/1/30 437/1/32
f 435/1/206 437/1/32 438/1/209
f 439/1/74 440/3/210 441/4/211
f 439/1/74 441/4/211 442/6/75
f 443/1/81 444/3/212 445/4/213
f 443/1/81 445/4/213 446/6/74
f 447/1/214 448/1/160 449/1/4
f 447/1/214 449/1/4 450/1/215
f 451/1/216 452/1/175 453/1/162
f 451/1/216 453/1/162 454/1/160
f 455/1/172 456/1/217 457/1/218
f 455/1/172 457/1/218 458/1/173
f 459/1/218 460/1/219 461/1/168
f 459/1/218 461/1/168 462/1/169
f 463/1/220 464/3/219 465/8/218
f 463/1/220 465/8/218 466/7/221
f 467/8/218 468/4/92 469/6/94
f 467/8/218 469/6/94 470/7/222
f 471/8/223 472/4/224 473/6/220
f 471/8/223 473/6/220 474/7/222
f 475/1/94 476/3/97 477/8/223
f 475/1/94 477/8/223 478/7/222
f 479/3/103 480/8/225 481/7/223
f 479/3/103 481/7/223 482/1/97
f 483/8/225 484/4/129 485/6/224
f 483/8/225 485/6/224 486/7/223
f 487/1/224 488/1/137 489/1/219
f 487/1/224 489/1/219 490/1/220
f 491/1/129 492/1/128 493/1/137
f 491/1/129 493/1/137 494/1/224
f 495/8/226 496/4/130 497/6/129
f 495/8/226 497/6/129 498/7/225
f 499/1/219 500/1/137 501/1/136
f 499/1/219 501/1/136 502/1/168
f 503/3/102 504/8/226 505/7/225
f 503/3/102 505/7/225 506/1/103
f 507/8/112 508/4/114 509/6/130
f 507/8/112 509/6/130 510/7/226
f 511/3/105 512/8/112 513/7/226
f 511/3/105 513/7/226 514/1/102
f 515/1/227 516/3/228 517/4/229
f 515/1/227 517/4/229 518/6/71
f 519/1/228 520/8/40 521/6/230
