v 0.005489 -0.255296 -0.101563
v 0.058041 -0.241775 -0.10362
v 0.063783 -0.247099 -0.085484
v 0.005489 -0.255296 -0.101563
v 0.063783 -0.247099 -0.085484
v 0.013365 -0.262204 -0.08469
v 0.063783 -0.247099 -0.085484
v 0.047731 -0.217545 -0.049324
v 0.011137 -0.227419 -0.049009
v 0.063783 -0.247099 -0.085484
v 0.011137 -0.227419 -0.049009
v 0.013365 -0.262204 -0.08469
v 0.013365 -0.262204 -0.08469
v 0.011137 -0.227419 -0.049009
v -0.028503 -0.221167 -0.039005
v 0.013365 -0.262204 -0.08469
v -0.028503 -0.221167 -0.039005
v -0.052648 -0.254018 -0.0668
v -0.057854 -0.244103 -0.082289
v 0.005489 -0.255296 -0.101563
v 0.013365 -0.262204 -0.08469
v -0.057854 -0.244103 -0.082289
v 0.013365 -0.262204 -0.08469
v -0.052648 -0.254018 -0.0668
v 0.04717 -0.227364 -0.111111
v 0.058041 -0.241775 -0.10362
v 0.005489 -0.255296 -0.101563
v 0.04717 -0.227364 -0.111111
v 0.005489 -0.255296 -0.101563
v -0.001301 -0.237609 -0.107057
v -0.001301 -0.237609 -0.107057
v 0.005489 -0.255296 -0.101563
v -0.057854 -0.244103 -0.082289
v -0.001301 -0.237609 -0.107057
v -0.057854 -0.244103 -0.082289
v -0.055826 -0.226854 -0.09013
v -0.057854 -0.244103 -0.082289
v -0.097918 -0.213703 -0.055069
v -0.097725 -0.199519 -0.063022
v -0.057854 -0.244103 -0.082289
v -0.097725 -0.199519 -0.063022
v -0.055826 -0.226854 -0.09013
v -0.052648 -0.254018 -0.0668
v -0.093553 -0.225583 -0.044942
v -0.097918 -0.213703 -0.055069
v -0.052648 -0.254018 -0.0668
v -0.097918 -0.213703 -0.055069
v -0.057854 -0.244103 -0.082289
v -0.097918 -0.213703 -0.055069
v -0.123877 -0.169048 -0.033372
v -0.119191 -0.160596 -0.046076
v -0.097918 -0.213703 -0.055069
v -0.119191 -0.160596 -0.046076
v -0.097725 -0.199519 -0.063022
v -0.093553 -0.225583 -0.044942
v -0.124275 -0.176317 -0.01901
v -0.123877 -0.169048 -0.033372
v -0.093553 -0.225583 -0.044942
v -0.123877 -0.169048 -0.033372
v -0.097918 -0.213703 -0.055069
v -0.093553 -0.225583 -0.044942
v -0.056192 -0.199833 -0.018138
v -0.077826 -0.168518 0.024374
v -0.093553 -0.225583 -0.044942
v -0.077826 -0.168518 0.024374
v -0.124275 -0.176317 -0.01901
v -0.028503 -0.221167 -0.039005
v -0.056192 -0.199833 -0.018138
v -0.093553 -0.225583 -0.044942
v -0.028503 -0.221167 -0.039005
v -0.093553 -0.225583 -0.044942
v -0.052648 -0.254018 -0.0668
v -0.142231 -0.122384 -0.004585
v -0.124275 -0.176317 -0.01901
v -0.077826 -0.168518 0.024374
v -0.142231 -0.122384 -0.004585
v -0.077826 -0.168518 0.024374
v -0.134697 -0.119303 0.024067
v -0.13847 -0.11991 -0.023966
v -0.123877 -0.169048 -0.033372
v -0.124275 -0.176317 -0.01901
v -0.13847 -0.11991 -0.023966
v -0.124275 -0.176317 -0.01901
v -0.142231 -0.122384 -0.004585
v -0.134697 -0.119303 0.024067
v -0.155663 -0.053065 0.025446
v -0.153214 -0.051074 -0.007578
v -0.134697 -0.119303 0.024067
v -0.153214 -0.051074 -0.007578
v -0.142231 -0.122384 -0.004585
v -0.148282 -0.051152 -0.027208
v -0.13847 -0.11991 -0.023966
v -0.142231 -0.122384 -0.004585
v -0.148282 -0.051152 -0.027208
v -0.142231 -0.122384 -0.004585
v -0.153214 -0.051074 -0.007578
v -0.138855 -0.050563 -0.045047
v -0.129545 -0.116457 -0.041556
v -0.13847 -0.11991 -0.023966
v -0.138855 -0.050563 -0.045047
v -0.13847 -0.11991 -0.023966
v -0.148282 -0.051152 -0.027208
v -0.129545 -0.116457 -0.041556
v -0.119191 -0.160596 -0.046076
v -0.123877 -0.169048 -0.033372
v -0.129545 -0.116457 -0.041556
v -0.123877 -0.169048 -0.033372
v -0.13847 -0.11991 -0.023966
v -0.148282 -0.051152 -0.027208
v -0.153824 0.011302 -0.034979
v -0.148514 0.011896 -0.049212
v -0.148282 -0.051152 -0.027208
v -0.148514 0.011896 -0.049212
v -0.138855 -0.050563 -0.045047
v -0.153214 -0.051074 -0.007578
v -0.156916 0.010896 -0.020093
v -0.153824 0.011302 -0.034979
v -0.153214 -0.051074 -0.007578
v -0.153824 0.011302 -0.034979
v -0.148282 -0.051152 -0.027208
v -0.153824 0.011302 -0.034979
v -0.148981 0.030749 -0.035899
v -0.143035 0.033121 -0.044568
v -0.153824 0.011302 -0.034979
v -0.143035 0.033121 -0.044568
v -0.148514 0.011896 -0.049212
v -0.156916 0.010896 -0.020093
v -0.153419 0.026677 -0.026937
v -0.148981 0.030749 -0.035899
v -0.156916 0.010896 -0.020093
v -0.148981 0.030749 -0.035899
v -0.153824 0.011302 -0.034979
v -0.155663 -0.053065 0.025446
v -0.155496 0.026058 -0.000141
v -0.156916 0.010896 -0.020093
v -0.155663 -0.053065 0.025446
v -0.156916 0.010896 -0.020093
v -0.153214 -0.051074 -0.007578
v -0.155496 0.026058 -0.000141
v -0.142897 0.035137 -0.007837
v -0.153419 0.026677 -0.026937
v -0.155496 0.026058 -0.000141
v -0.153419 0.026677 -0.026937
v -0.156916 0.010896 -0.020093
v -0.142897 0.035137 -0.007837
v -0.143035 0.033121 -0.044568
v -0.148981 0.030749 -0.035899
v -0.142897 0.035137 -0.007837
v -0.148981 0.030749 -0.035899
v -0.153419 0.026677 -0.026937
v -0.142897 0.035137 -0.007837
v -0.12279 0.033584 -0.014808
v -0.124853 0.033778 -0.03422
v -0.142897 0.035137 -0.007837
v -0.124853 0.033778 -0.03422
v -0.143035 0.033121 -0.044568
v -0.142897 0.035137 -0.007837
v -0.14239 0.035491 0.066815
v -0.122236 0.03397 0.066686
v -0.142897 0.035137 -0.007837
v -0.122236 0.03397 0.066686
v -0.12279 0.033584 -0.014808
v -0.155496 0.026058 -0.000141
v -0.155041 0.026376 0.066945
v -0.14239 0.035491 0.066815
v -0.155496 0.026058 -0.000141
v -0.14239 0.035491 0.066815
v -0.142897 0.035137 -0.007837
v -0.155663 -0.053065 0.025446
v -0.155379 -0.052866 0.067322
v -0.155041 0.026376 0.066945
v -0.155663 -0.053065 0.025446
v -0.155041 0.026376 0.066945
v -0.155496 0.026058 -0.000141
v -0.131371 -0.124711 0.04665
v -0.13123 -0.124613 0.067498
v -0.155379 -0.052866 0.067322
v -0.131371 -0.124711 0.04665
v -0.155379 -0.052866 0.067322
v -0.155663 -0.053065 0.025446
v -0.092937 -0.158612 0.052819
v -0.092838 -0.158543 0.067398
v -0.13123 -0.124613 0.067498
v -0.092937 -0.158612 0.052819
v -0.13123 -0.124613 0.067498
v -0.131371 -0.124711 0.04665
v -0.077826 -0.168518 0.024374
v -0.092937 -0.158612 0.052819
v -0.131371 -0.124711 0.04665
v -0.077826 -0.168518 0.024374
v -0.131371 -0.124711 0.04665
v -0.134697 -0.119303 0.024067
v -0.134697 -0.119303 0.024067
v -0.131371 -0.124711 0.04665
v -0.155663 -0.053065 0.025446
v -0.028088 -0.176216 0.055908
v -0.028013 -0.176163 0.067041
v -0.092838 -0.158543 0.067398
v -0.028088 -0.176216 0.055908
v -0.092838 -0.158543 0.067398
v -0.092937 -0.158612 0.052819
v -0.028088 -0.176216 0.055908
v -0.092937 -0.158612 0.052819
v -0.077826 -0.168518 0.024374
v -0.028088 -0.176216 0.055908
v -0.077826 -0.168518 0.024374
v -0.030175 -0.180447 0.02464
v 0.019851 -0.17913 0.054903
v -0.028088 -0.176216 0.055908
v -0.030175 -0.180447 0.02464
v 0.019851 -0.17913 0.054903
v -0.030175 -0.180447 0.02464
v 0.014605 -0.180415 0.02049
v 0.019851 -0.17913 0.054903
v 0.019931 -0.179074 0.06673
v -0.028013 -0.176163 0.067041
v 0.019851 -0.17913 0.054903
v -0.028013 -0.176163 0.067041
v -0.028088 -0.176216 0.055908
v 0.063654 -0.160494 0.047759
v 0.06378 -0.160406 0.066344
v 0.019931 -0.179074 0.06673
v 0.063654 -0.160494 0.047759
v 0.019931 -0.179074 0.06673
v 0.019851 -0.17913 0.054903
v 0.107014 -0.131297 0.03199
v 0.107244 -0.131136 0.06591
v 0.06378 -0.160406 0.066344
v 0.107014 -0.131297 0.03199
v 0.06378 -0.160406 0.066344
v 0.063654 -0.160494 0.047759
v 0.134346 -0.095579 0.000805
v 0.134785 -0.095272 0.065553
v 0.107244 -0.131136 0.06591
v 0.134346 -0.095579 0.000805
v 0.107244 -0.131136 0.06591
v 0.107014 -0.131297 0.03199
v 0.159976 -0.053958 -0.048673
v 0.160749 -0.053419 0.065178
v 0.134785 -0.095272 0.065553
v 0.159976 -0.053958 -0.048673
v 0.134785 -0.095272 0.065553
v 0.134346 -0.095579 0.000805
v 0.145287 -0.106094 -0.041424
v 0.166853 -0.058944 -0.065419
v 0.159976 -0.053958 -0.048673
v 0.145287 -0.106094 -0.041424
v 0.159976 -0.053958 -0.048673
v 0.134346 -0.095579 0.000805
v 0.134346 -0.095579 0.000805
v 0.100879 -0.149716 -0.012084
v 0.145287 -0.106094 -0.041424
v 0.107014 -0.131297 0.03199
v 0.100879 -0.149716 -0.012084
v 0.134346 -0.095579 0.000805
v 0.177083 -0.017757 -0.08594
v 0.159976 -0.053958 -0.048673
v 0.166853 -0.058944 -0.065419
v 0.177083 -0.017757 -0.08594
v 0.178107 -0.017043 0.064887
v 0.160749 -0.053419 0.065178
v 0.177083 -0.017757 -0.08594
v 0.160749 -0.053419 0.065178
v 0.159976 -0.053958 -0.048673
v 0.177083 -0.017757 -0.08594
v 0.166853 -0.058944 -0.065419
v 0.174101 -0.062348 -0.077364
v 0.174101 -0.062348 -0.077364
v 0.163916 -0.065254 -0.102407
v 0.171547 -0.017023 -0.10901
v 0.174101 -0.062348 -0.077364
v 0.171547 -0.017023 -0.10901
v 0.177083 -0.017757 -0.08594
v 0.171547 -0.017023 -0.10901
v 0.159987 0.00259 -0.104035
v 0.173241 -0.00457 -0.09247
v 0.171547 -0.017023 -0.10901
v 0.173241 -0.00457 -0.09247
v 0.177083 -0.017757 -0.08594
v 0.173241 -0.00457 -0.09247
v 0.174309 -0.003826 0.06485
v 0.178107 -0.017043 0.064887
v 0.173241 -0.00457 -0.09247
v 0.178107 -0.017043 0.064887
v 0.177083 -0.017757 -0.08594
v 0.133195 0.006216 -0.078316
v 0.134169 0.006895 0.065072
v 0.174309 -0.003826 0.06485
v 0.133195 0.006216 -0.078316
v 0.174309 -0.003826 0.06485
v 0.173241 -0.00457 -0.09247
v 0.069732 0.013007 -0.058539
v 0.070574 0.013594 0.065473
v 0.134169 0.006895 0.065072
v 0.069732 0.013007 -0.058539
v 0.134169 0.006895 0.065072
v 0.133195 0.006216 -0.078316
v 0.069732 0.013007 -0.058539
v 0.133195 0.006216 -0.078316
v 0.124363 0.00713 -0.098802
v 0.069732 0.013007 -0.058539
v 0.124363 0.00713 -0.098802
v 0.062715 0.013715 -0.08776
v 0.173241 -0.00457 -0.09247
v 0.159987 0.00259 -0.104035
v 0.124363 0.00713 -0.098802
v 0.173241 -0.00457 -0.09247
v 0.124363 0.00713 -0.098802
v 0.133195 0.006216 -0.078316
v 0.062715 0.013715 -0.08776
v 0.124363 0.00713 -0.098802
v 0.1173 0.007019 -0.114222
v 0.062715 0.013715 -0.08776
v 0.1173 0.007019 -0.114222
v 0.055364 0.013607 -0.115854
v 0.124363 0.00713 -0.098802
v 0.159987 0.00259 -0.104035
v 0.149014 0.004113 -0.109008
v 0.124363 0.00713 -0.098802
v 0.149014 0.004113 -0.109008
v 0.1173 0.007019 -0.114222
v 0.149014 0.004113 -0.109008
v 0.159987 0.00259 -0.104035
v 0.171547 -0.017023 -0.10901
v 0.149014 0.004113 -0.109008
v 0.171547 -0.017023 -0.10901
v 0.151542 -0.015773 -0.122112
v 0.1173 0.007019 -0.114222
v 0.149014 0.004113 -0.109008
v 0.151542 -0.015773 -0.122112
v 0.1173 0.007019 -0.114222
v 0.151542 -0.015773 -0.122112
v 0.102561 -0.010315 -0.126891
v 0.171547 -0.017023 -0.10901
v 0.163916 -0.065254 -0.102407
v 0.141879 -0.06318 -0.112772
v 0.171547 -0.017023 -0.10901
v 0.141879 -0.06318 -0.112772
v 0.151542 -0.015773 -0.122112
v 0.151542 -0.015773 -0.122112
v 0.141879 -0.06318 -0.112772
v 0.093435 -0.059069 -0.115796
v 0.151542 -0.015773 -0.122112
v 0.093435 -0.059069 -0.115796
v 0.102561 -0.010315 -0.126891
v 0.055364 0.013607 -0.115854
v 0.1173 0.007019 -0.114222
v 0.102561 -0.010315 -0.126891
v 0.055364 0.013607 -0.115854
v 0.102561 -0.010315 -0.126891
v 0.047467 -0.005004 -0.126889
v 0.047467 -0.005004 -0.126889
v 0.102561 -0.010315 -0.126891
v 0.093435 -0.059069 -0.115796
v 0.047467 -0.005004 -0.126889
v 0.093435 -0.059069 -0.115796
v 0.040425 -0.053606 -0.114148
v 0.040425 -0.053606 -0.114148
v 0.093435 -0.059069 -0.115796
v 0.082173 -0.104531 -0.107457
v 0.040425 -0.053606 -0.114148
v 0.082173 -0.104531 -0.107457
v 0.036458 -0.099544 -0.104852
v 0.129899 -0.111945 -0.105691
v 0.082173 -0.104531 -0.107457
v 0.093435 -0.059069 -0.115796
v 0.129899 -0.111945 -0.105691
v 0.093435 -0.059069 -0.115796
v 0.141879 -0.06318 -0.112772
v -0.02432 0.001054 -0.118133
v 0.047467 -0.005004 -0.126889
v 0.040425 -0.053606 -0.114148
v -0.02432 0.001054 -0.118133
v 0.040425 -0.053606 -0.114148
v -0.015722 -0.04949 -0.106099
v -0.015722 -0.04949 -0.106099
v 0.040425 -0.053606 -0.114148
v 0.036458 -0.099544 -0.104852
v -0.015722 -0.04949 -0.106099
v 0.036458 -0.099544 -0.104852
v -0.011572 -0.09681 -0.097449
v 0.082173 -0.104531 -0.107457
v 0.071844 -0.146667 -0.104284
v 0.033989 -0.142072 -0.101177
v 0.082173 -0.104531 -0.107457
v 0.033989 -0.142072 -0.101177
v 0.036458 -0.099544 -0.104852
v 0.036458 -0.099544 -0.104852
v 0.033989 -0.142072 -0.101177
v -0.008712 -0.139794 -0.09431
v 0.036458 -0.099544 -0.104852
v -0.008712 -0.139794 -0.09431
v -0.011572 -0.09681 -0.097449
v -0.05765 -0.097941 -0.085262
v -0.011572 -0.09681 -0.097449
v -0.008712 -0.139794 -0.09431
v -0.05765 -0.097941 -0.085262
v -0.008712 -0.139794 -0.09431
v -0.049543 -0.140806 -0.0842
v -0.05765 -0.097941 -0.085262
v -0.066802 -0.047873 -0.092234
v -0.015722 -0.04949 -0.106099
v -0.05765 -0.097941 -0.085262
v -0.015722 -0.04949 -0.106099
v -0.011572 -0.09681 -0.097449
v -0.043831 -0.176557 -0.086826
v -0.049543 -0.140806 -0.0842
v -0.008712 -0.139794 -0.09431
v -0.043831 -0.176557 -0.086826
v -0.008712 -0.139794 -0.09431
v -0.00709 -0.175832 -0.095531
v 0.033989 -0.142072 -0.101177
v 0.0306 -0.175978 -0.101727
v -0.00709 -0.175832 -0.095531
v 0.033989 -0.142072 -0.101177
v -0.00709 -0.175832 -0.095531
v -0.008712 -0.139794 -0.09431
v -0.043831 -0.176557 -0.086826
v -0.00709 -0.175832 -0.095531
v -0.00525 -0.206774 -0.099862
v -0.043831 -0.176557 -0.086826
v -0.00525 -0.206774 -0.099862
v -0.046022 -0.204052 -0.089625
v 0.0306 -0.175978 -0.101727
v 0.033556 -0.200075 -0.104939
v -0.00525 -0.206774 -0.099862
v 0.0306 -0.175978 -0.101727
v -0.00525 -0.206774 -0.099862
v -0.00709 -0.175832 -0.095531
v 0.0306 -0.175978 -0.101727
v 0.057839 -0.182034 -0.10502
v 0.033556 -0.200075 -0.104939
v 0.071844 -0.146667 -0.104284
v 0.057839 -0.182034 -0.10502
v 0.0306 -0.175978 -0.101727
v 0.071844 -0.146667 -0.104284
v 0.0306 -0.175978 -0.101727
v 0.033989 -0.142072 -0.101177
v 0.033556 -0.200075 -0.104939
v 0.04717 -0.227364 -0.111111
v -0.001301 -0.237609 -0.107057
v 0.033556 -0.200075 -0.104939
v -0.001301 -0.237609 -0.107057
v -0.00525 -0.206774 -0.099862
v 0.087642 -0.197596 -0.107715
v 0.04717 -0.227364 -0.111111
v 0.033556 -0.200075 -0.104939
v 0.087642 -0.197596 -0.107715
v 0.033556 -0.200075 -0.104939
v 0.057839 -0.182034 -0.10502
v 0.105615 -0.206268 -0.096722
v 0.058041 -0.241775 -0.10362
v 0.04717 -0.227364 -0.111111
v 0.105615 -0.206268 -0.096722
v 0.04717 -0.227364 -0.111111
v 0.087642 -0.197596 -0.107715
v 0.134464 -0.163003 -0.092746
v 0.105615 -0.206268 -0.096722
v 0.087642 -0.197596 -0.107715
v 0.134464 -0.163003 -0.092746
v 0.087642 -0.197596 -0.107715
v 0.114395 -0.15739 -0.104458
v 0.087642 -0.197596 -0.107715
v 0.057839 -0.182034 -0.10502
v 0.071844 -0.146667 -0.104284
v 0.087642 -0.197596 -0.107715
v 0.071844 -0.146667 -0.104284
v 0.114395 -0.15739 -0.104458
v 0.129899 -0.111945 -0.105691
v 0.15246 -0.116781 -0.094279
v 0.134464 -0.163003 -0.092746
v 0.129899 -0.111945 -0.105691
v 0.134464 -0.163003 -0.092746
v 0.114395 -0.15739 -0.104458
v 0.129899 -0.111945 -0.105691
v 0.114395 -0.15739 -0.104458
v 0.071844 -0.146667 -0.104284
v 0.129899 -0.111945 -0.105691
v 0.071844 -0.146667 -0.104284
v 0.082173 -0.104531 -0.107457
v 0.163916 -0.065254 -0.102407
v 0.15246 -0.116781 -0.094279
v 0.129899 -0.111945 -0.105691
v 0.163916 -0.065254 -0.102407
v 0.129899 -0.111945 -0.105691
v 0.141879 -0.06318 -0.112772
v 0.161164 -0.116299 -0.069959
v 0.15246 -0.116781 -0.094279
v 0.163916 -0.065254 -0.102407
v 0.161164 -0.116299 -0.069959
v 0.163916 -0.065254 -0.102407
v 0.174101 -0.062348 -0.077364
v 0.134464 -0.163003 -0.092746
v 0.15246 -0.116781 -0.094279
v 0.161164 -0.116299 -0.069959
v 0.134464 -0.163003 -0.092746
v 0.161164 -0.116299 -0.069959
v 0.142648 -0.163005 -0.070814
v 0.161164 -0.116299 -0.069959
v 0.174101 -0.062348 -0.077364
v 0.166853 -0.058944 -0.065419
v 0.161164 -0.116299 -0.069959
v 0.166853 -0.058944 -0.065419
v 0.145287 -0.106094 -0.041424
v 0.145287 -0.106094 -0.041424
v 0.100879 -0.149716 -0.012084
v 0.142648 -0.163005 -0.070814
v 0.145287 -0.106094 -0.041424
v 0.142648 -0.163005 -0.070814
v 0.161164 -0.116299 -0.069959
v 0.1136 -0.207268 -0.076989
v 0.105615 -0.206268 -0.096722
v 0.134464 -0.163003 -0.092746
v 0.1136 -0.207268 -0.076989
v 0.134464 -0.163003 -0.092746
v 0.142648 -0.163005 -0.070814
v 0.1136 -0.207268 -0.076989
v 0.142648 -0.163005 -0.070814
v 0.100879 -0.149716 -0.012084
v 0.1136 -0.207268 -0.076989
v 0.100879 -0.149716 -0.012084
v 0.077776 -0.191634 -0.038876
v 0.1136 -0.207268 -0.076989
v 0.063783 -0.247099 -0.085484
v 0.058041 -0.241775 -0.10362
v 0.1136 -0.207268 -0.076989
v 0.058041 -0.241775 -0.10362
v 0.105615 -0.206268 -0.096722
v 0.1136 -0.207268 -0.076989
v 0.077776 -0.191634 -0.038876
v 0.047731 -0.217545 -0.049324
v 0.1136 -0.207268 -0.076989
v 0.047731 -0.217545 -0.049324
v 0.063783 -0.247099 -0.085484
v 0.047731 -0.217545 -0.049324
v 0.077776 -0.191634 -0.038876
v 0.044554 -0.189385 -0.01774
v 0.047731 -0.217545 -0.049324
v 0.044554 -0.189385 -0.01774
v 0.034527 -0.204392 -0.032073
v 0.100879 -0.149716 -0.012084
v 0.055523 -0.171461 0.009307
v 0.044554 -0.189385 -0.01774
v 0.100879 -0.149716 -0.012084
v 0.044554 -0.189385 -0.01774
v 0.077776 -0.191634 -0.038876
v 0.014605 -0.180415 0.02049
v 0.012074 -0.191508 -0.008938
v 0.044554 -0.189385 -0.01774
v 0.014605 -0.180415 0.02049
v 0.044554 -0.189385 -0.01774
v 0.055523 -0.171461 0.009307
v 0.012074 -0.191508 -0.008938
v 0.011117 -0.206937 -0.029247
v 0.034527 -0.204392 -0.032073
v 0.012074 -0.191508 -0.008938
v 0.034527 -0.204392 -0.032073
v 0.044554 -0.189385 -0.01774
v 0.063654 -0.160494 0.047759
v 0.019851 -0.17913 0.054903
v 0.014605 -0.180415 0.02049
v 0.063654 -0.160494 0.047759
v 0.014605 -0.180415 0.02049
v 0.055523 -0.171461 0.009307
v 0.107014 -0.131297 0.03199
v 0.063654 -0.160494 0.047759
v 0.055523 -0.171461 0.009307
v 0.107014 -0.131297 0.03199
v 0.055523 -0.171461 0.009307
v 0.100879 -0.149716 -0.012084
v -0.030175 -0.180447 0.02464
v -0.021762 -0.192353 -0.008185
v 0.012074 -0.191508 -0.008938
v -0.030175 -0.180447 0.02464
v 0.012074 -0.191508 -0.008938
v 0.014605 -0.180415 0.02049
v 0.011137 -0.227419 -0.049009
v 0.047731 -0.217545 -0.049324
v 0.034527 -0.204392 -0.032073
v 0.011137 -0.227419 -0.049009
v 0.034527 -0.204392 -0.032073
v 0.011117 -0.206937 -0.029247
v 0.011137 -0.227419 -0.049009
v 0.011117 -0.206937 -0.029247
v -0.013085 -0.2062 -0.026116
v 0.011137 -0.227419 -0.049009
v -0.013085 -0.2062 -0.026116
v -0.028503 -0.221167 -0.039005
v -0.013085 -0.2062 -0.026116
v 0.011117 -0.206937 -0.029247
v 0.012074 -0.191508 -0.008938
v -0.013085 -0.2062 -0.026116
v 0.012074 -0.191508 -0.008938
v -0.021762 -0.192353 -0.008185
v -0.028503 -0.221167 -0.039005
v -0.013085 -0.2062 -0.026116
v -0.021762 -0.192353 -0.008185
v -0.028503 -0.221167 -0.039005
v -0.021762 -0.192353 -0.008185
v -0.056192 -0.199833 -0.018138
v -0.021762 -0.192353 -0.008185
v -0.030175 -0.180447 0.02464
v -0.077826 -0.168518 0.024374
v -0.021762 -0.192353 -0.008185
v -0.077826 -0.168518 0.024374
v -0.056192 -0.199833 -0.018138
v -0.00525 -0.206774 -0.099862
v -0.001301 -0.237609 -0.107057
v -0.055826 -0.226854 -0.09013
v -0.00525 -0.206774 -0.099862
v -0.055826 -0.226854 -0.09013
v -0.046022 -0.204052 -0.089625
v -0.043831 -0.176557 -0.086826
v -0.046022 -0.204052 -0.089625
v -0.072143 -0.184886 -0.078192
v -0.055826 -0.226854 -0.09013
v -0.097725 -0.199519 -0.063022
v -0.072143 -0.184886 -0.078192
v -0.055826 -0.226854 -0.09013
v -0.072143 -0.184886 -0.078192
v -0.046022 -0.204052 -0.089625
v -0.049543 -0.140806 -0.0842
v -0.043831 -0.176557 -0.086826
v -0.072143 -0.184886 -0.078192
v -0.049543 -0.140806 -0.0842
v -0.072143 -0.184886 -0.078192
v -0.08744 -0.148542 -0.069799
v -0.097725 -0.199519 -0.063022
v -0.119191 -0.160596 -0.046076
v -0.08744 -0.148542 -0.069799
v -0.097725 -0.199519 -0.063022
v -0.08744 -0.148542 -0.069799
v -0.072143 -0.184886 -0.078192
v -0.05765 -0.097941 -0.085262
v -0.049543 -0.140806 -0.0842
v -0.08744 -0.148542 -0.069799
v -0.05765 -0.097941 -0.085262
v -0.08744 -0.148542 -0.069799
v -0.098502 -0.103781 -0.067183
v -0.08744 -0.148542 -0.069799
v -0.119191 -0.160596 -0.046076
v -0.129545 -0.116457 -0.041556
v -0.08744 -0.148542 -0.069799
v -0.129545 -0.116457 -0.041556
v -0.098502 -0.103781 -0.067183
v -0.110094 -0.048506 -0.071155
v -0.066802 -0.047873 -0.092234
v -0.05765 -0.097941 -0.085262
v -0.110094 -0.048506 -0.071155
v -0.05765 -0.097941 -0.085262
v -0.098502 -0.103781 -0.067183
v -0.110094 -0.048506 -0.071155
v -0.098502 -0.103781 -0.067183
v -0.129545 -0.116457 -0.041556
v -0.110094 -0.048506 -0.071155
v -0.129545 -0.116457 -0.041556
v -0.138855 -0.050563 -0.045047
v -0.110094 -0.048506 -0.071155
v -0.125904 0.011405 -0.077707
v -0.079814 0.006576 -0.102977
v -0.110094 -0.048506 -0.071155
v -0.079814 0.006576 -0.102977
v -0.066802 -0.047873 -0.092234
v -0.110094 -0.048506 -0.071155
v -0.138855 -0.050563 -0.045047
v -0.148514 0.011896 -0.049212
v -0.110094 -0.048506 -0.071155
v -0.148514 0.011896 -0.049212
v -0.125904 0.011405 -0.077707
v -0.122245 0.032209 -0.068432
v -0.078341 0.027413 -0.093174
v -0.079814 0.006576 -0.102977
v -0.122245 0.032209 -0.068432
v -0.079814 0.006576 -0.102977
v -0.125904 0.011405 -0.077707
v -0.143035 0.033121 -0.044568
v -0.122245 0.032209 -0.068432
v -0.125904 0.011405 -0.077707
v -0.143035 0.033121 -0.044568
v -0.125904 0.011405 -0.077707
v -0.148514 0.011896 -0.049212
v -0.100444 0.031158 -0.047393
v -0.058529 0.02667 -0.062938
v -0.078341 0.027413 -0.093174
v -0.100444 0.031158 -0.047393
v -0.078341 0.027413 -0.093174
v -0.122245 0.032209 -0.068432
v -0.124853 0.033778 -0.03422
v -0.100444 0.031158 -0.047393
v -0.122245 0.032209 -0.068432
v -0.124853 0.033778 -0.03422
v -0.122245 0.032209 -0.068432
v -0.143035 0.033121 -0.044568
v -0.095611 0.030675 -0.024142
v -0.050596 0.025863 -0.034534
v -0.058529 0.02667 -0.062938
v -0.095611 0.030675 -0.024142
v -0.058529 0.02667 -0.062938
v -0.100444 0.031158 -0.047393
v -0.12279 0.033584 -0.014808
v -0.095611 0.030675 -0.024142
v -0.100444 0.031158 -0.047393
v -0.12279 0.033584 -0.014808
v -0.100444 0.031158 -0.047393
v -0.124853 0.033778 -0.03422
v -0.12279 0.033584 -0.014808
v -0.122236 0.03397 0.066686
v -0.094996 0.031105 0.066514
v -0.12279 0.033584 -0.014808
v -0.094996 0.031105 0.066514
v -0.095611 0.030675 -0.024142
v -0.095611 0.030675 -0.024142
v -0.094996 0.031105 0.066514
v -0.049912 0.02634 0.066231
v -0.095611 0.030675 -0.024142
v -0.049912 0.02634 0.066231
v -0.050596 0.025863 -0.034534
v -0.050596 0.025863 -0.034534
v -0.049912 0.02634 0.066231
v 0.003733 0.020672 0.065893
v -0.050596 0.025863 -0.034534
v 0.003733 0.020672 0.065893
v 0.002968 0.020138 -0.046884
v 0.002968 0.020138 -0.046884
v 0.003733 0.020672 0.065893
v 0.070574 0.013594 0.065473
v 0.002968 0.020138 -0.046884
v 0.070574 0.013594 0.065473
v 0.069732 0.013007 -0.058539
v -0.050596 0.025863 -0.034534
v 0.002968 0.020138 -0.046884
v -0.004108 0.020851 -0.076556
v -0.050596 0.025863 -0.034534
v -0.004108 0.020851 -0.076556
v -0.058529 0.02667 -0.062938
v 0.002968 0.020138 -0.046884
v 0.069732 0.013007 -0.058539
v 0.062715 0.013715 -0.08776
v 0.002968 0.020138 -0.046884
v 0.062715 0.013715 -0.08776
v -0.004108 0.020851 -0.076556
v -0.058529 0.02667 -0.062938
v -0.004108 0.020851 -0.076556
v -0.023418 0.021506 -0.108544
v -0.058529 0.02667 -0.062938
v -0.023418 0.021506 -0.108544
v -0.078341 0.027413 -0.093174
v -0.004108 0.020851 -0.076556
v 0.062715 0.013715 -0.08776
v 0.055364 0.013607 -0.115854
v -0.004108 0.020851 -0.076556
v 0.055364 0.013607 -0.115854
v -0.023418 0.021506 -0.108544
v -0.079814 0.006576 -0.102977
v -0.078341 0.027413 -0.093174
v -0.023418 0.021506 -0.108544
v -0.079814 0.006576 -0.102977
v -0.023418 0.021506 -0.108544
v -0.02432 0.001054 -0.118133
v -0.02432 0.001054 -0.118133
v -0.023418 0.021506 -0.108544
v 0.055364 0.013607 -0.115854
v -0.02432 0.001054 -0.118133
v 0.055364 0.013607 -0.115854
v 0.047467 -0.005004 -0.126889
v -0.066802 -0.047873 -0.092234
v -0.079814 0.006576 -0.102977
v -0.02432 0.001054 -0.118133
v -0.066802 -0.047873 -0.092234
v -0.02432 0.001054 -0.118133
v -0.015722 -0.04949 -0.106099
vn -0.1072 -0.7246 -0.6808
vn 0.352 -0.6426 -0.6806
vn 0.4684 -0.8013 -0.3723
vn -0.1072 -0.7246 -0.6808
vn 0.4684 -0.8013 -0.3723
vn 0.0049 -0.9178 -0.397
vn 0.3009 -0.6763 0.6723
vn 0.2965 -0.6792 0.6714
vn 0.1402 -0.6991 0.7012
vn 0.3009 -0.6763 0.6723
vn 0.1402 -0.6991 0.7012
vn 0.1503 -0.7004 0.6977
vn 0.1503 -0.7004 0.6977
vn 0.1402 -0.6991 0.7012
vn 0.0375 -0.6911 0.7218
vn 0.1503 -0.7004 0.6977
vn 0.0375 -0.6911 0.7218
vn 0.037 -0.6847 0.7278
vn -0.495 -0.6295 -0.5989
vn -0.1072 -0.7246 -0.6808
vn 0.0047 -0.9178 -0.397
vn -0.495 -0.6295 -0.5989
vn 0.0047 -0.9178 -0.397
vn -0.419 -0.8339 -0.3592
vn 0.039 -0.0919 -0.995
vn 0.352 -0.6426 -0.6806
vn -0.1072 -0.7245 -0.6809
vn 0.039 -0.0919 -0.995
vn -0.1072 -0.7245 -0.6809
vn -0.2013 -0.1032 -0.9741
vn -0.2013 -0.1032 -0.9741
vn -0.1072 -0.7245 -0.6809
vn -0.495 -0.6295 -0.5989
vn -0.2013 -0.1032 -0.9741
vn -0.495 -0.6295 -0.5989
vn -0.4383 -0.1147 -0.8915
vn -0.495 -0.6295 -0.5989
vn -0.7926 -0.4319 -0.4305
vn -0.6521 -0.1098 -0.7502
vn -0.495 -0.6295 -0.5989
vn -0.6521 -0.1098 -0.7502
vn -0.4383 -0.1147 -0.8915
vn -0.4191 -0.8339 -0.3591
vn -0.7584 -0.5906 -0.2758
vn -0.7926 -0.4321 -0.4303
vn -0.4191 -0.8339 -0.3591
vn -0.7926 -0.4321 -0.4303
vn -0.495 -0.6295 -0.5989
vn -0.7927 -0.4319 -0.4303
vn -0.9055 -0.2873 -0.3123
vn -0.7038 -0.1066 -0.7023
vn -0.7927 -0.4319 -0.4303
vn -0.7038 -0.1066 -0.7023
vn -0.6521 -0.1096 -0.7502
vn -0.7584 -0.5906 -0.2758
vn -0.9176 -0.3471 -0.1939
vn -0.9055 -0.2873 -0.3123
vn -0.7584 -0.5906 -0.2758
vn -0.9055 -0.2873 -0.3123
vn -0.7926 -0.4319 -0.4303
vn -0.1519 -0.701 0.6968
vn -0.1446 -0.7502 0.6452
vn -0.3636 -0.7142 0.5981
vn -0.1519 -0.701 0.6968
vn -0.3636 -0.7142 0.5981
vn -0.4379 -0.6501 0.621
vn 0.0375 -0.6911 0.7218
vn -0.1446 -0.7502 0.6452
vn -0.1519 -0.701 0.6968
vn 0.0375 -0.6911 0.7218
vn -0.1519 -0.701 0.6968
vn 0.037 -0.6847 0.7279
vn -0.8093 -0.4374 0.3921
vn -0.4379 -0.6501 0.621
vn -0.3636 -0.7142 0.5981
vn -0.8093 -0.4374 0.3921
vn -0.3636 -0.7142 0.5981
vn -0.8202 -0.4288 0.3787
vn -0.9288 -0.1785 -0.3247
vn -0.9055 -0.2873 -0.3123
vn -0.9176 -0.3471 -0.1939
vn -0.9288 -0.1785 -0.3247
vn -0.9176 -0.3471 -0.1939
vn -0.9581 -0.1941 -0.2108
vn -0.8202 -0.4288 0.3787
vn -0.9938 -0.1092 0.0208
vn -0.992 -0.1214 0.0332
vn -0.8202 -0.4288 0.3787
vn -0.992 -0.1214 0.0332
vn -0.8093 -0.4374 0.3921
vn -0.9319 -0.141 -0.3341
vn -0.9288 -0.1785 -0.3247
vn -0.9581 -0.1941 -0.2108
vn -0.9319 -0.141 -0.3341
vn -0.9581 -0.1941 -0.2108
vn -0.965 -0.1348 -0.2248
vn -0.7516 -0.1721 -0.6368
vn -0.7212 -0.1341 -0.6796
vn -0.9288 -0.1785 -0.3247
vn -0.7516 -0.1721 -0.6368
vn -0.9288 -0.1785 -0.3247
vn -0.9319 -0.141 -0.3341
vn -0.7213 -0.1341 -0.6795
vn -0.7037 -0.1066 -0.7024
vn -0.9055 -0.2873 -0.3123
vn -0.7213 -0.1341 -0.6795
vn -0.9055 -0.2873 -0.3123
vn -0.9288 -0.1785 -0.3248
vn -0.9319 -0.141 -0.3341
vn -0.9394 -0.0715 -0.3353
vn -0.7949 -0.0681 -0.6029
vn -0.9319 -0.141 -0.3341
vn -0.7949 -0.0681 -0.6029
vn -0.7516 -0.1721 -0.6368
vn -0.965 -0.1348 -0.2248
vn -0.9696 -0.0798 -0.2315
vn -0.9394 -0.0715 -0.3353
vn -0.965 -0.1348 -0.2248
vn -0.9394 -0.0715 -0.3353
vn -0.9319 -0.141 -0.3341
vn -0.9394 -0.0714 -0.3353
vn -0.7933 0.5714 -0.2102
vn -0.4487 0.8244 -0.3451
vn -0.9394 -0.0714 -0.3353
vn -0.4487 0.8244 -0.3451
vn -0.7949 -0.0681 -0.6029
vn -0.9696 -0.0798 -0.2315
vn -0.8413 0.5278 -0.1169
vn -0.7933 0.5714 -0.2103
vn -0.9696 -0.0798 -0.2315
vn -0.7933 0.5714 -0.2103
vn -0.9394 -0.0715 -0.3353
vn -0.9938 -0.109 0.0208
vn -0.9779 0.2093 -0.0026
vn -0.9993 0.034 -0.0173
vn -0.9938 -0.109 0.0208
vn -0.9993 0.034 -0.0173
vn -0.9921 -0.1214 0.0332
vn -0.9778 0.2094 -0.0026
vn -0.1981 0.9801 -0.0134
vn -0.8413 0.5277 -0.1169
vn -0.9778 0.2094 -0.0026
vn -0.8413 0.5277 -0.1169
vn -0.9993 0.034 -0.0173
vn -0.1981 0.9801 -0.0134
vn -0.4487 0.8244 -0.3451
vn -0.7933 0.5714 -0.2102
vn -0.1981 0.9801 -0.0134
vn -0.7933 0.5714 -0.2102
vn -0.8413 0.5278 -0.1169
vn -0.1981 0.9801 -0.0134
vn 0.0885 0.996 -0.0083
vn 0.0569 0.998 -0.0274
vn -0.1981 0.9801 -0.0134
vn 0.0569 0.998 -0.0274
vn -0.4487 0.8244 -0.3451
vn -0.1981 0.9801 -0.0134
vn -0.2086 0.978 -0.0032
vn 0.0927 0.9957 -0.0053
vn -0.1981 0.9801 -0.0134
vn 0.0927 0.9957 -0.0053
vn 0.0885 0.996 -0.0083
vn -0.9779 0.2093 -0.0026
vn -0.9834 0.1814 0.0061
vn -0.2088 0.9779 -0.0032
vn -0.9779 0.2093 -0.0026
vn -0.2088 0.9779 -0.0032
vn -0.1981 0.9801 -0.0134
vn -0.9938 -0.109 0.0208
vn -0.9937 -0.1118 0.0073
vn -0.9834 0.1814 0.0057
vn -0.9938 -0.109 0.0208
vn -0.9834 0.1814 0.0057
vn -0.9779 0.2092 -0.0026
vn -0.8423 -0.5387 -0.018
vn -0.8929 -0.4502 0.0081
vn -0.9937 -0.112 0.0073
vn -0.8423 -0.5387 -0.018
vn -0.9937 -0.112 0.0073
vn -0.9938 -0.1092 0.0208
vn -0.5108 -0.8596 0.0088
vn -0.4797 -0.8774 0.0073
vn -0.8929 -0.4502 0.0082
vn -0.5108 -0.8596 0.0088
vn -0.8929 -0.4502 0.0082
vn -0.8422 -0.5389 -0.018
vn -0.3884 -0.9167 0.0941
vn -0.5107 -0.8597 0.0088
vn -0.8422 -0.5389 -0.018
vn -0.3884 -0.9167 0.0941
vn -0.8422 -0.5389 -0.018
vn -0.803 -0.5955 -0.0241
vn -0.8031 -0.5954 -0.0241
vn -0.8423 -0.5387 -0.018
vn -0.9938 -0.1091 0.0208
vn -0.1583 -0.9831 0.0924
vn -0.1846 -0.9828 0.0059
vn -0.4796 -0.8775 0.0074
vn -0.1583 -0.9831 0.0924
vn -0.4796 -0.8775 0.0074
vn -0.5107 -0.8597 0.0088
vn -0.1583 -0.9831 0.0924
vn -0.5107 -0.8597 0.0088
vn -0.3883 -0.9167 0.0941
vn -0.1583 -0.9831 0.0924
vn -0.3883 -0.9167 0.0941
vn -0.1502 -0.9798 0.1323
vn 0.1829 -0.9808 0.0673
vn -0.1583 -0.9831 0.0924
vn -0.1502 -0.9798 0.1323
vn 0.1829 -0.9808 0.0673
vn -0.1502 -0.9798 0.1323
vn 0.1649 -0.9818 0.0941
vn 0.1827 -0.9809 0.0673
vn 0.2016 -0.9795 0.0034
vn -0.1846 -0.9828 0.0059
vn 0.1827 -0.9809 0.0673
vn -0.1846 -0.9828 0.0059
vn -0.1583 -0.9831 0.0924
vn 0.4851 -0.8686 0.1014
vn 0.503 -0.8643 0.0007
vn 0.2016 -0.9795 0.0033
vn 0.4851 -0.8686 0.1014
vn 0.2016 -0.9795 0.0033
vn 0.1829 -0.9808 0.0673
vn 0.7028 -0.7073 0.0761
vn 0.7124 -0.7018 -0.0015
vn 0.503 -0.8643 0.0007
vn 0.7028 -0.7073 0.0761
vn 0.503 -0.8643 0.0007
vn 0.4851 -0.8685 0.1015
vn 0.8511 -0.5199 0.0728
vn 0.8316 -0.5554 -0.003
vn 0.7124 -0.7018 -0.0015
vn 0.8511 -0.5199 0.0728
vn 0.7124 -0.7018 -0.0015
vn 0.7028 -0.7073 0.0761
vn 0.9122 -0.4036 0.0706
vn 0.88 -0.475 -0.0037
vn 0.8316 -0.5553 -0.003
vn 0.9122 -0.4036 0.0706
vn 0.8316 -0.5553 -0.003
vn 0.8511 -0.5199 0.0728
vn 0.8807 -0.3305 0.3393
vn 0.9222 -0.1668 0.3489
vn 0.9122 -0.4036 0.0706
vn 0.8807 -0.3305 0.3393
vn 0.9122 -0.4036 0.0706
vn 0.8511 -0.5199 0.0729
vn 0.8511 -0.5199 0.073
vn 0.6586 -0.7244 0.2038
vn 0.8807 -0.3306 0.3393
vn 0.7028 -0.7073 0.0761
vn 0.6586 -0.7244 0.2037
vn 0.8511 -0.5199 0.0728
vn 0.9935 -0.088 -0.0719
vn 0.9122 -0.4036 0.0706
vn 0.9222 -0.1668 0.3489
vn 0.9935 -0.088 -0.0719
vn 0.9702 -0.2424 -0.0055
vn 0.88 -0.475 -0.0037
vn 0.9935 -0.088 -0.0719
vn 0.88 -0.475 -0.0037
vn 0.9122 -0.4036 0.0706
vn 0.8593 0.0406 0.5098
vn 0.8466 -0.1015 0.5225
vn 0.8478 -0.0935 0.522
vn 0.9244 -0.2124 -0.3168
vn 0.7392 -0.2375 -0.6303
vn 0.7612 -0.0614 -0.6456
vn 0.9244 -0.2124 -0.3168
vn 0.7612 -0.0614 -0.6456
vn 0.9935 -0.088 -0.072
vn 0.7612 -0.0614 -0.6456
vn 0.4013 0.8891 -0.2202
vn 0.4883 0.8722 -0.0285
vn 0.7612 -0.0614 -0.6456
vn 0.4883 0.8722 -0.0285
vn 0.9935 -0.0879 -0.0719
vn 0.4883 0.8722 -0.0284
vn 0.4826 0.8758 -0.0075
vn 0.9702 -0.2424 -0.0054
vn 0.4883 0.8722 -0.0284
vn 0.9702 -0.2424 -0.0054
vn 0.9935 -0.088 -0.0719
vn 0.1793 0.9838 -0.001
vn 0.17 0.9854 -0.0058
vn 0.4825 0.8758 -0.0075
vn 0.1793 0.9838 -0.001
vn 0.4825 0.8758 -0.0075
vn 0.4883 0.8722 -0.0286
vn 0.1051 0.9944 -0.0048
vn 0.1047 0.9945 -0.0054
vn 0.17 0.9854 -0.0058
vn 0.1051 0.9944 -0.0048
vn 0.17 0.9854 -0.0058
vn 0.1793 0.9838 -0.001
vn 0.1051 0.9944 -0.0048
vn 0.1793 0.9838 -0.001
vn 0.1227 0.9924 -0.0008
vn 0.1051 0.9944 -0.0048
vn 0.1227 0.9924 -0.0008
vn 0.1034 0.9945 -0.0191
vn 0.4884 0.8721 -0.0286
vn 0.4013 0.8891 -0.2202
vn 0.1227 0.9924 -0.0008
vn 0.4884 0.8721 -0.0286
vn 0.1227 0.9924 -0.0008
vn 0.1793 0.9838 -0.001
vn 0.1034 0.9945 -0.0191
vn 0.1227 0.9924 -0.0008
vn 0.1271 0.8478 -0.5149
vn 0.1034 0.9945 -0.0191
vn 0.1271 0.8478 -0.5149
vn 0.0674 0.8821 -0.4662
vn 0.1227 0.9924 -0.0008
vn 0.4013 0.8891 -0.2202
vn 0.2303 0.7444 -0.6268
vn 0.1227 0.9924 -0.0008
vn 0.2303 0.7444 -0.6268
vn 0.1271 0.8478 -0.5149
vn 0.2304 0.7444 -0.6267
vn 0.4013 0.8891 -0.22
vn 0.7612 -0.0614 -0.6456
vn 0.2304 0.7444 -0.6267
vn 0.7612 -0.0614 -0.6456
vn 0.2249 -0.0352 -0.9737
vn 0.1271 0.8478 -0.5149
vn 0.2304 0.7444 -0.6267
vn 0.2249 -0.0351 -0.9738
vn 0.1271 0.8478 -0.5149
vn 0.2249 -0.0351 -0.9738
vn 0.0362 0.0105 -0.9993
vn 0.7612 -0.0614 -0.6456
vn 0.7391 -0.2375 -0.6303
vn 0.181 -0.2106 -0.9607
vn 0.7612 -0.0614 -0.6456
vn 0.181 -0.2106 -0.9607
vn 0.225 -0.0351 -0.9737
vn 0.2249 -0.0351 -0.9738
vn 0.181 -0.2106 -0.9607
vn -0.0035 -0.2011 -0.9796
vn 0.2249 -0.0351 -0.9738
vn -0.0035 -0.2011 -0.9796
vn 0.0362 0.0105 -0.9993
vn 0.0675 0.8821 -0.4662
vn 0.1271 0.8478 -0.5149
vn 0.0362 0.0105 -0.9993
vn 0.0675 0.8821 -0.4662
vn 0.0362 0.0105 -0.9993
vn -0.0698 0.0097 -0.9975
vn -0.0698 0.0095 -0.9975
vn 0.0362 0.0105 -0.9993
vn -0.0035 -0.2011 -0.9796
vn -0.0698 0.0095 -0.9975
vn -0.0035 -0.2011 -0.9796
vn -0.1039 -0.2143 -0.9712
vn -0.1039 -0.2143 -0.9712
vn -0.0035 -0.2011 -0.9796
vn -0.0233 -0.1233 -0.9921
vn -0.1039 -0.2143 -0.9712
vn -0.0233 -0.1233 -0.9921
vn -0.1151 -0.137 -0.9839
vn 0.1718 -0.1552 -0.9728
vn -0.0233 -0.1233 -0.9921
vn -0.0035 -0.2011 -0.9796
vn 0.1718 -0.1552 -0.9728
vn -0.0035 -0.2011 -0.9796
vn 0.181 -0.2106 -0.9607
vn -0.1903 -0.0222 -0.9815
vn -0.0698 0.0097 -0.9975
vn -0.1039 -0.2143 -0.9712
vn -0.1903 -0.0222 -0.9815
vn -0.1039 -0.2143 -0.9712
vn -0.2031 -0.2223 -0.9536
vn -0.2031 -0.2223 -0.9536
vn -0.1039 -0.2143 -0.9712
vn -0.1151 -0.137 -0.9839
vn -0.2031 -0.2223 -0.9536
vn -0.1151 -0.137 -0.9839
vn -0.2044 -0.1415 -0.9686
vn -0.0233 -0.1233 -0.9921
vn -0.0373 -0.0138 -0.9992
vn -0.1229 -0.0311 -0.9919
vn -0.0233 -0.1233 -0.9921
vn -0.1229 -0.0311 -0.9919
vn -0.1151 -0.137 -0.9839
vn -0.1151 -0.137 -0.9839
vn -0.1229 -0.0311 -0.9919
vn -0.2006 -0.0349 -0.9791
vn -0.1151 -0.137 -0.9839
vn -0.2006 -0.0349 -0.9791
vn -0.2044 -0.1415 -0.9686
vn -0.3227 -0.1354 -0.9368
vn -0.2044 -0.1415 -0.9686
vn -0.2006 -0.0349 -0.9791
vn -0.3227 -0.1354 -0.9368
vn -0.2006 -0.0349 -0.9791
vn -0.2999 -0.0293 -0.9535
vn -0.3227 -0.1354 -0.9368
vn -0.3475 -0.2204 -0.9114
vn -0.2031 -0.2223 -0.9536
vn -0.3227 -0.1354 -0.9368
vn -0.2031 -0.2223 -0.9536
vn -0.2044 -0.1415 -0.9686
vn -0.2742 0.0646 -0.9595
vn -0.2999 -0.0293 -0.9535
vn -0.2006 -0.0349 -0.9791
vn -0.2742 0.0646 -0.9595
vn -0.2006 -0.0349 -0.9791
vn -0.1975 0.0687 -0.9779
vn -0.1229 -0.0311 -0.9919
vn -0.1337 0.064 -0.989
vn -0.1975 0.0687 -0.9779
vn -0.1229 -0.0311 -0.9919
vn -0.1975 0.0687 -0.9779
vn -0.2006 -0.0349 -0.9791
vn -0.2742 0.0646 -0.9595
vn -0.1975 0.0687 -0.9779
vn -0.196 0.1513 -0.9689
vn -0.2742 0.0646 -0.9595
vn -0.196 0.1513 -0.9689
vn -0.312 0.1241 -0.942
vn -0.1337 0.064 -0.9889
vn -0.1145 0.1524 -0.9817
vn -0.196 0.1513 -0.9689
vn -0.1337 0.064 -0.9889
vn -0.196 0.1513 -0.9689
vn -0.1975 0.0687 -0.9779
vn -0.1337 0.064 -0.989
vn -0.0532 0.0864 -0.9948
vn -0.1145 0.1524 -0.9817
vn -0.0373 -0.0138 -0.9992
vn -0.0532 0.0864 -0.9948
vn -0.1337 0.064 -0.989
vn -0.0373 -0.0138 -0.9992
vn -0.1337 0.064 -0.989
vn -0.1229 -0.0311 -0.9919
vn -0.1145 0.1524 -0.9817
vn 0.039 -0.0918 -0.995
vn -0.2013 -0.103 -0.9741
vn -0.1145 0.1524 -0.9817
vn -0.2013 -0.103 -0.9741
vn -0.196 0.1513 -0.9689
vn 0.1723 -0.0856 -0.9813
vn 0.039 -0.0919 -0.995
vn -0.1145 0.1524 -0.9817
vn 0.1723 -0.0856 -0.9813
vn -0.1145 0.1524 -0.9817
vn -0.0532 0.0864 -0.9948
vn 0.6008 -0.4967 -0.6264
vn 0.352 -0.6426 -0.6806
vn 0.039 -0.0919 -0.995
vn 0.6008 -0.4967 -0.6264
vn 0.039 -0.0919 -0.995
vn 0.1723 -0.0857 -0.9813
vn 0.7001 -0.3443 -0.6256
vn 0.6008 -0.4967 -0.6264
vn 0.1723 -0.0856 -0.9813
vn 0.7001 -0.3443 -0.6256
vn 0.1723 -0.0856 -0.9813
vn 0.1886 -0.094 -0.9775
vn 0.1723 -0.0855 -0.9813
vn -0.0532 0.0864 -0.9948
vn -0.0373 -0.0138 -0.9992
vn 0.1723 -0.0855 -0.9813
vn -0.0373 -0.0138 -0.9992
vn 0.1886 -0.094 -0.9776
vn 0.172 -0.1552 -0.9728
vn 0.7283 -0.2782 -0.6262
vn 0.7001 -0.3443 -0.6256
vn 0.172 -0.1552 -0.9728
vn 0.7001 -0.3443 -0.6256
vn 0.1887 -0.094 -0.9775
vn 0.1718 -0.1552 -0.9728
vn 0.1884 -0.094 -0.9776
vn -0.0373 -0.0138 -0.9992
vn 0.1718 -0.1552 -0.9728
vn -0.0373 -0.0138 -0.9992
vn -0.0233 -0.1233 -0.9921
vn 0.7391 -0.2375 -0.6303
vn 0.7283 -0.2782 -0.6262
vn 0.1718 -0.1552 -0.9728
vn 0.7391 -0.2375 -0.6303
vn 0.1718 -0.1552 -0.9728
vn 0.181 -0.2106 -0.9607
vn 0.8974 -0.2982 -0.3251
vn 0.7284 -0.2782 -0.6261
vn 0.7392 -0.2375 -0.6302
vn 0.8974 -0.2982 -0.3251
vn 0.7392 -0.2375 -0.6302
vn 0.9244 -0.2124 -0.3168
vn 0.7001 -0.3443 -0.6255
vn 0.7284 -0.2782 -0.6261
vn 0.8974 -0.2982 -0.3251
vn 0.7001 -0.3443 -0.6255
vn 0.8974 -0.2982 -0.3251
vn 0.8535 -0.4098 -0.3219
vn 0.7765 -0.2746 0.5671
vn 0.8478 -0.0935 0.522
vn 0.8466 -0.1017 0.5225
vn 0.7765 -0.2746 0.5671
vn 0.8466 -0.1017 0.5225
vn 0.769 -0.2883 0.5705
vn 0.769 -0.2884 0.5705
vn 0.5963 -0.5447 0.5897
vn 0.6502 -0.4615 0.6036
vn 0.769 -0.2884 0.5705
vn 0.6502 -0.4615 0.6036
vn 0.7765 -0.2747 0.5672
vn 0.7337 -0.5914 -0.3345
vn 0.6008 -0.4967 -0.6264
vn 0.7001 -0.3443 -0.6255
vn 0.7337 -0.5914 -0.3345
vn 0.7001 -0.3443 -0.6255
vn 0.8535 -0.4098 -0.3219
vn 0.4851 -0.6029 0.6334
vn 0.6502 -0.4615 0.6036
vn 0.5963 -0.5447 0.5897
vn 0.4851 -0.6029 0.6334
vn 0.5963 -0.5447 0.5897
vn 0.4654 -0.639 0.6124
vn 0.7337 -0.5914 -0.3345
vn 0.4684 -0.8012 -0.3723
vn 0.352 -0.6426 -0.6806
vn 0.7337 -0.5914 -0.3345
vn 0.352 -0.6426 -0.6806
vn 0.6008 -0.4967 -0.6263
vn 0.4851 -0.6029 0.6334
vn 0.4654 -0.639 0.6124
vn 0.2965 -0.6792 0.6714
vn 0.4851 -0.6029 0.6334
vn 0.2965 -0.6792 0.6714
vn 0.3009 -0.6763 0.6723
vn 0.2965 -0.6792 0.6714
vn 0.4654 -0.639 0.6124
vn 0.3471 -0.7762 0.5264
vn 0.2965 -0.6792 0.6714
vn 0.3471 -0.7762 0.5264
vn 0.2354 -0.716 0.6573
vn 0.5963 -0.5447 0.5897
vn 0.39 -0.7856 0.4804
vn 0.3471 -0.7762 0.5264
vn 0.5963 -0.5447 0.5897
vn 0.3471 -0.7762 0.5264
vn 0.4654 -0.639 0.6124
vn 0.1324 -0.9179 0.3741
vn 0.1313 -0.8799 0.4566
vn 0.3471 -0.7762 0.5264
vn 0.1324 -0.9179 0.3741
vn 0.3471 -0.7762 0.5264
vn 0.39 -0.7856 0.4804
vn 0.1313 -0.8799 0.4567
vn 0.121 -0.734 0.6683
vn 0.2354 -0.716 0.6573
vn 0.1313 -0.8799 0.4567
vn 0.2354 -0.716 0.6573
vn 0.3471 -0.7762 0.5264
vn 0.4851 -0.8686 0.1015
vn 0.1829 -0.9808 0.0673
vn 0.165 -0.9818 0.0941
vn 0.4851 -0.8686 0.1015
vn 0.165 -0.9818 0.0941
vn 0.4641 -0.8717 0.1575
vn 0.7028 -0.7073 0.0761
vn 0.4852 -0.8685 0.1015
vn 0.4642 -0.8716 0.1575
vn 0.7028 -0.7073 0.0761
vn 0.4642 -0.8716 0.1575
vn 0.6586 -0.7244 0.2037
vn -0.0617 -0.9015 0.4283
vn -0.0242 -0.8699 0.4926
vn 0.1313 -0.8799 0.4566
vn -0.0617 -0.9015 0.4283
vn 0.1313 -0.8799 0.4566
vn 0.1324 -0.9179 0.3741
vn 0.1402 -0.6991 0.7012
vn 0.2965 -0.6792 0.6714
vn 0.2354 -0.716 0.6573
vn 0.1402 -0.6991 0.7012
vn 0.2354 -0.716 0.6573
vn 0.121 -0.734 0.6683
vn 0.1402 -0.6991 0.7012
vn 0.121 -0.734 0.6683
vn 0.0431 -0.7359 0.6757
vn 0.1402 -0.6991 0.7012
vn 0.0431 -0.7359 0.6757
vn 0.0375 -0.6911 0.7218
vn 0.0431 -0.7359 0.6757
vn 0.121 -0.734 0.6683
vn 0.1313 -0.8799 0.4567
vn 0.0431 -0.7359 0.6757
vn 0.1313 -0.8799 0.4567
vn -0.0242 -0.8699 0.4927
vn 0.0375 -0.6911 0.7218
vn 0.0431 -0.7359 0.6757
vn -0.0242 -0.8699 0.4926
vn 0.0375 -0.6911 0.7218
vn -0.0242 -0.8699 0.4926
vn -0.1446 -0.7502 0.6452
vn -0.0242 -0.8699 0.4926
vn -0.0617 -0.9015 0.4283
vn -0.3636 -0.7142 0.5981
vn -0.0242 -0.8699 0.4926
vn -0.3636 -0.7142 0.5981
vn -0.1446 -0.7502 0.6452
vn -0.196 0.1513 -0.9689
vn -0.2013 -0.103 -0.9741
vn -0.4383 -0.1147 -0.8915
vn -0.196 0.1513 -0.9689
vn -0.4383 -0.1147 -0.8915
vn -0.312 0.1241 -0.9419
vn -0.2742 0.0646 -0.9595
vn -0.312 0.1241 -0.9419
vn -0.4497 0.0457 -0.892
vn -0.4383 -0.1147 -0.8915
vn -0.6521 -0.1095 -0.7502
vn -0.4498 0.0457 -0.892
vn -0.4383 -0.1147 -0.8915
vn -0.4498 0.0457 -0.892
vn -0.312 0.1241 -0.9419
vn -0.2999 -0.0293 -0.9535
vn -0.2742 0.0646 -0.9595
vn -0.4498 0.0457 -0.892
vn -0.2999 -0.0293 -0.9535
vn -0.4498 0.0457 -0.892
vn -0.484 -0.0338 -0.8744
vn -0.6521 -0.1096 -0.7502
vn -0.7037 -0.1066 -0.7025
vn -0.484 -0.0338 -0.8744
vn -0.6521 -0.1096 -0.7502
vn -0.484 -0.0338 -0.8744
vn -0.4498 0.0457 -0.892
vn -0.3227 -0.1354 -0.9368
vn -0.2999 -0.0293 -0.9535
vn -0.484 -0.0338 -0.8744
vn -0.3227 -0.1354 -0.9368
vn -0.484 -0.0338 -0.8744
vn -0.5097 -0.1278 -0.8508
vn -0.484 -0.0338 -0.8744
vn -0.7037 -0.1066 -0.7024
vn -0.7212 -0.1341 -0.6796
vn -0.484 -0.0338 -0.8744
vn -0.7212 -0.1341 -0.6796
vn -0.5097 -0.1278 -0.8508
vn -0.5472 -0.2006 -0.8126
vn -0.3475 -0.2204 -0.9114
vn -0.3227 -0.1354 -0.9368
vn -0.5472 -0.2006 -0.8126
vn -0.3227 -0.1354 -0.9368
vn -0.5097 -0.1278 -0.8508
vn -0.5472 -0.2006 -0.8126
vn -0.5097 -0.1278 -0.8508
vn -0.7212 -0.1341 -0.6796
vn -0.5472 -0.2006 -0.8126
vn -0.7212 -0.1341 -0.6796
vn -0.7516 -0.1721 -0.6368
vn -0.5472 -0.2006 -0.8126
vn -0.5954 -0.0532 -0.8017
vn -0.3696 -0.0546 -0.9276
vn -0.5472 -0.2006 -0.8126
vn -0.3696 -0.0546 -0.9276
vn -0.3475 -0.2204 -0.9114
vn -0.5472 -0.2006 -0.8126
vn -0.7516 -0.1721 -0.6368
vn -0.7949 -0.0683 -0.6029
vn -0.5472 -0.2006 -0.8126
vn -0.7949 -0.0683 -0.6029
vn -0.5954 -0.0532 -0.8017
vn -0.2852 0.8423 -0.4574
vn -0.1003 0.8789 -0.4664
vn -0.3696 -0.0546 -0.9276
vn -0.2852 0.8423 -0.4574
vn -0.3696 -0.0546 -0.9276
vn -0.5954 -0.0532 -0.8017
vn -0.4486 0.8244 -0.3451
vn -0.2852 0.8423 -0.4574
vn -0.5954 -0.0532 -0.8017
vn -0.4486 0.8244 -0.3451
vn -0.5954 -0.0532 -0.8017
vn -0.7949 -0.0681 -0.6029
vn 0.0903 0.9956 -0.0234
vn 0.0992 0.9948 -0.0224
vn -0.1003 0.8789 -0.4664
vn 0.0903 0.9956 -0.0234
vn -0.1003 0.8789 -0.4664
vn -0.2852 0.8423 -0.4574
vn 0.0569 0.998 -0.0274
vn 0.0903 0.9956 -0.0234
vn -0.2852 0.8423 -0.4574
vn 0.0569 0.998 -0.0274
vn -0.2852 0.8423 -0.4574
vn -0.4487 0.8244 -0.3451
vn 0.1052 0.9944 -0.0045
vn 0.1053 0.9944 -0.0043
vn 0.0992 0.9948 -0.0224
vn 0.1052 0.9944 -0.0045
vn 0.0992 0.9948 -0.0224
vn 0.0903 0.9956 -0.0234
vn 0.0885 0.996 -0.0083
vn 0.1052 0.9944 -0.0045
vn 0.0903 0.9956 -0.0234
vn 0.0885 0.996 -0.0083
vn 0.0903 0.9956 -0.0234
vn 0.0569 0.998 -0.0274
vn 0.0885 0.996 -0.0083
vn 0.0927 0.9957 -0.0053
vn 0.1046 0.9945 -0.0054
vn 0.0885 0.996 -0.0083
vn 0.1046 0.9945 -0.0054
vn 0.1052 0.9944 -0.0045
vn 0.1052 0.9944 -0.0045
vn 0.1051 0.9944 -0.0054
vn 0.1051 0.9945 -0.0054
vn 0.1052 0.9944 -0.0045
vn 0.1051 0.9945 -0.0054
vn 0.1053 0.9944 -0.0042
vn 0.1053 0.9944 -0.0044
vn 0.105 0.9945 -0.0054
vn 0.105 0.9945 -0.0054
vn 0.1053 0.9944 -0.0044
vn 0.105 0.9945 -0.0054
vn 0.1054 0.9944 -0.0046
vn 0.1054 0.9944 -0.0046
vn 0.1053 0.9944 -0.0054
vn 0.1053 0.9944 -0.0054
vn 0.1054 0.9944 -0.0046
vn 0.1053 0.9944 -0.0054
vn 0.1051 0.9944 -0.005
vn 0.1053 0.9944 -0.0044
vn 0.1054 0.9944 -0.0045
vn 0.1014 0.9946 -0.0205
vn 0.1053 0.9944 -0.0044
vn 0.1014 0.9946 -0.0205
vn 0.0992 0.9948 -0.0224
vn 0.1054 0.9944 -0.0045
vn 0.1051 0.9944 -0.0048
vn 0.1034 0.9945 -0.0191
vn 0.1054 0.9944 -0.0045
vn 0.1034 0.9945 -0.0191
vn 0.1014 0.9946 -0.0205
vn 0.0992 0.9948 -0.0224
vn 0.1014 0.9946 -0.0205
vn 0.0034 0.8839 -0.4677
vn 0.0992 0.9948 -0.0224
vn 0.0034 0.8839 -0.4677
vn -0.1003 0.8789 -0.4664
vn 0.1014 0.9946 -0.0205
vn 0.1034 0.9945 -0.0191
vn 0.0674 0.8821 -0.4662
vn 0.1014 0.9946 -0.0205
vn 0.0674 0.8821 -0.4662
vn 0.0034 0.8839 -0.4677
vn -0.3696 -0.0546 -0.9276
vn -0.1003 0.8789 -0.4664
vn 0.0034 0.884 -0.4676
vn -0.3696 -0.0546 -0.9276
vn 0.0034 0.884 -0.4676
vn -0.1903 -0.0222 -0.9815
vn -0.1903 -0.0222 -0.9815
vn 0.0034 0.8839 -0.4677
vn 0.0674 0.8821 -0.4662
vn -0.1903 -0.0222 -0.9815
vn 0.0674 0.8821 -0.4662
vn -0.0699 0.0097 -0.9975
vn -0.3475 -0.2204 -0.9114
vn -0.3696 -0.0548 -0.9276
vn -0.1903 -0.0222 -0.9815
vn -0.3475 -0.2204 -0.9114
vn -0.1903 -0.0222 -0.9815
vn -0.2031 -0.2223 -0.9536
vt 0 0
vt 0 0
vt 0 0
vt 0 0
vt 0 0
vt 0 0
vt 0 0
vt 0 0
vt 0 0
vt 0 0
vt 0 0
vt 0 0
vt 0 0
vt 0 0
vt 0 0
vt 0 0
vt 0 0
vt 0 0
vt 0 0
vt 0 0
vt 0 0
vt 0 0
vt 0 0
vt 0 0
vt 0 0
vt 0 0
vt 0 0
vt 0 0
vt 0 0
vt 0 0
vt 0 0
vt 0 0
vt 0 0
vt 0 0
vt 0 0
vt 0 0
vt 0 0
vt 0 0
vt 0 0
vt 0 0
vt 0 0
vt 0 0
vt 0 0
vt 0 0
vt 0 0
vt 0 0
vt 0 0
vt 0 0
vt 0 0.5
vt 1 0.5
vt 1 1
vt 0 0.5
vt 1 1
vt 0 1
vt 0 0
vt 1 0
vt 1 0.5
vt 0 0
vt 1 0.5
vt 0 0.5
vt 0 0
vt 1 0
vt 1 1
vt 0 0
vt 1 1
vt 0 1
vt 0 0
vt 0 0
vt 0 0
vt 0 0
vt 0 0
vt 0 0
vt 0 0
vt 1 0
vt 1 1
vt 0 0
vt 1 1
vt 0 1
vt 0 0.5
vt 1 0.5
vt 1 1
vt 0 0.5
vt 1 1
vt 0 1
vt 0 0
vt 1 0
vt 1 1
vt 0 0
vt 1 1
vt 0 1
vt 0 0.5
vt 1 0.5
vt 1 1
vt 0 0.5
vt 1 1
vt 0 1
vt 0 0
vt 1 0
vt 1 0.5
vt 0 0
vt 1 0.5
vt 0 0.5
vt 0 0
vt 1 0
vt 1 0.5
vt 0 0
vt 1 0.5
vt 0 0.5
vt 0 0.5
vt 1 0.5
vt 1 1
vt 0 0.5
vt 1 1
vt 0 1
vt 0 0
vt 1 0
vt 1 0.5
vt 0 0
vt 1 0.5
vt 0 0.5
vt 0 0.5
vt 1 0.5
vt 1 1
vt 0 0.5
vt 1 1
vt 0 1
vt 0 0
vt 1 0
vt 1 0.5
vt 0 0
vt 1 0.5
vt 0 0.5
vt 0 1
vt 0 0
vt 1 0
vt 0 1
vt 1 0
vt 1 1
vt 0 1
vt 0 0
vt 1 0
vt 0 1
vt 1 0
vt 1 1
vt 0 1
vt 1 0
vt 1 0.5
vt 0 1
vt 1 0.5
vt 1 1
vt 0 1
vt 0 0
vt 0.5 0
vt 0 1
vt 0.5 0
vt 1 0
vt 0 0
vt 0 1
vt 1 1
vt 0 0
vt 1 1
vt 1 0
vt 0 0
vt 0 1
vt 1 1
vt 0 0
vt 1 1
vt 1 0
vt 0 0
vt 0 1
vt 1 1
vt 0 0
vt 1 1
vt 1 0
vt 0 0
vt 0 1
vt 1 1
vt 0 0
vt 1 1
vt 1 0
vt 0 0
vt 0 1
vt 1 1
vt 0 0
vt 1 1
vt 1 0
vt 0 0
vt 1 0
vt 1 1
vt 0 0
vt 1 1
vt 0 1
vt 0 0
vt 1 0
vt 0.5 1
vt 0 0
vt 0 1
vt 1 1
vt 0 0
vt 1 1
vt 1 0
vt 0 0
vt 1 0
vt 1 1
vt 0 0
vt 1 1
vt 0 1
vt 0 0
vt 1 0
vt 1 1
vt 0 0
vt 1 1
vt 0 1
vt 0 0
vt 0 1
vt 1 1
vt 0 0
vt 1 1
vt 1 0
vt 0 0
vt 0 1
vt 1 1
vt 0 0
vt 1 1
vt 1 0
vt 0 0
vt 0 1
vt 1 1
vt 0 0
vt 1 1
vt 1 0
vt 0 0
vt 0 1
vt 1 1
vt 0 0
vt 1 1
vt 1 0
vt 0 0
vt 0 1
vt 1 1
vt 0 0
vt 1 1
vt 1 0
vt 0 0.423336
vt 1 0.420986
vt 1 1
vt 0 0.423336
vt 1 1
vt 0 1
vt 0 0
vt 1 0
vt 0 0.576664
vt 0.5 0
vt 1 1
vt 0 1
vt 0 0.5
vt 1 0
vt 1 0.579014
vt 0 0
vt 0 1
vt 1 1
vt 0 0
vt 1 1
vt 1 0
vt 0 0.5
vt 1 0.579014
vt 1 1
vt 0 0
vt 0 0
vt 0 0
vt 0 0
vt 0 0
vt 0 0
vt 0.5 1
vt 0.5 0
vt 1 0
vt 0.5 1
vt 1 0
vt 1 1
vt 0 0
vt 0 1
vt 1 1
vt 0 0
vt 1 1
vt 1 0
vt 0 0
vt 0 1
vt 1 1
vt 0 0
vt 1 1
vt 1 0
vt 0 0
vt 0 1
vt 1 1
vt 0 0
vt 1 1
vt 1 0
vt 0 1
vt 0 0
vt 0.5 0
vt 0 1
vt 0.5 0
vt 0.5 1
vt 0 0
vt 0.5 0
vt 0.5 1
vt 0 0
vt 0.5 1
vt 0 1
vt 0.5 1
vt 0.5 0
vt 1 0
vt 0.5 1
vt 1 0
vt 1 1
vt 0.5 1
vt 0.5 0
vt 1 0
vt 0.5 1
vt 1 0
vt 1 1
vt 0 0
vt 0.5 0
vt 0.5 1
vt 0 0
vt 0.5 1
vt 0 1
vt 0 0
vt 0 0
vt 0 0
vt 0 0
vt 0 0
vt 0 0
vt 0 0
vt 0 0
vt 0 0
vt 0 0
vt 0 0
vt 0 0
vt 0 0
vt 0 0
vt 0 0
vt 0 0
vt 0 0
vt 0 0
vt 0 0
vt 0 0
vt 0 0
vt 0 0
vt 0 0
vt 0 0
vt 0 0
vt 0 0
vt 0 0
vt 0 0
vt 0 0
vt 0 0
vt 0 0
vt 0 0
vt 0 0
vt 0 0
vt 0 0
vt 0 0
vt 0 0
vt 0 0
vt 0 0
vt 0 0
vt 0 0
vt 0 0
vt 0 0
vt 0 0
vt 0 0
vt 0 0
vt 0 0
vt 0 0
vt 0 0
vt 0 0
vt 0 0
vt 0 0
vt 0 0
vt 0 0
vt 0 0
vt 0 0
vt 0 0
vt 0 0
vt 0 0
vt 0 0
vt 0 0
vt 0 0
vt 0 0
vt 0 0
vt 0 0
vt 0 0
vt 0 0
vt 0 0
vt 0 0
vt 0 0
vt 0 0
vt 0 0
vt 0 0
vt 0 0
vt 0 0
vt 0 0
vt 0 0
vt 0 0
vt 0 0
vt 0 0
vt 0 0
vt 0 0
vt 0 0
vt 0 0
vt 0 0
vt 0 0
vt 0 0
vt 0 0
vt 0 0
vt 0 0
vt 0 0
vt 0 0
vt 0 0
vt 0 0
vt 0 0
vt 0 0
vt 0 0
vt 0 0
vt 0 0
vt 0 0
vt 0 0
vt 0 0
vt 0 0
vt 0 0
vt 0 0
vt 0 0
vt 0 0
vt 0 0
vt 0 0
vt 0 0
vt 0 0
vt 0 0
vt 0 0
vt 0 0
vt 0 0
vt 0 0
vt 0 0
vt 0 0
vt 0 0
vt 0 0
vt 0 0
vt 0 0
vt 0 0
vt 0 0
vt 0 0
vt 0 0
vt 0 0
vt 0 0
vt 0 0
vt 0 0
vt 0 0
vt 0 0
vt 0 0
vt 0 0
vt 0 0
vt 0 0
vt 0 0
vt 0 0
vt 0 0
vt 0 0
vt 0 0
vt 0 0
vt 0 0
vt 0 0
vt 0 0
vt 0 0
vt 0 0
vt 0 0
vt 0 0
vt 0 0
vt 0 0
vt 0 0
vt 0 0
vt 0 0
vt 0 0
vt 0 0
vt 0 0
vt 0 0
vt 0 0
vt 0 0
vt 0 0
vt 0 0
vt 0 0
vt 0 0
vt 0 0
vt 0 0
vt 0 0
vt 0 0
vt 0 0
vt 0 0
vt 0 0
vt 0 0
vt 1 0
vt 1 0.420986
vt 0 0
vt 1 0.420986
vt 0 0.423336
vt 0 0.576664
vt 1 0
vt 1 1
vt 0 0.576664
vt 1 1
vt 0 1
vt 0 0
vt 0 0
vt 0 0
vt 0 0
vt 0 0
vt 0 0
vt 0 0
vt 0 0
vt 0 0
vt 0 0
vt 0 0
vt 0 0
vt 0 0
vt 0 0
vt 0 0
vt 0 0
vt 0 0
vt 0 0
vt 0 0
vt 0 0
vt 0 0
vt 0 0
vt 0 0
vt 0 0
vt 0 0
vt 0 0
vt 0 0
vt 0 0
vt 0 0
vt 0 0
vt 0 0
vt 0 0
vt 0 0
vt 0 0
vt 0 0
vt 0 0
vt 0 0
vt 0 0
vt 0 0
vt 0 0
vt 0 0
vt 0 0
vt 0 0
vt 0 0
vt 0 0
vt 0 0
vt 0 0
vt 0 0
vt 0 0
vt 1 0
vt 1 1
vt 0 0
vt 1 1
vt 0 1
vt 0 0
vt 1 0
vt 1 1
vt 0 0
vt 1 1
vt 0 1
vt 0 0
vt 0 0
vt 0 0
vt 0 0
vt 0 0
vt 0 0
vt 0 0
vt 0 0
vt 0 0
vt 0 0
vt 0 0
vt 0 0
vt 0 0
vt 0 0
vt 0 0
vt 0 0
vt 0 0
vt 0 0
vt 0 0
vt 0 0
vt 0 0
vt 0 0
vt 0 0
vt 0 0
vt 0 0
vt 0 0
vt 0 0
vt 0 0
vt 0 0
vt 0 0
vt 0 0
vt 0 0
vt 0 0
vt 0 0
vt 0 0
vt 0 0
vt 0 0
vt 0 0
vt 0 0
vt 0 0
vt 0 0
vt 0 0
vt 0 0
vt 0 0
vt 0 0
vt 0 0
vt 0 0
vt 0 0
vt 0 0
vt 0 0
vt 0 0
vt 0 0
vt 0 0
vt 0 0
vt 0 0
vt 0 0
vt 0 0
vt 0 0
vt 0 0
vt 0 0
vt 0 0
vt 0 0
vt 0 0
vt 0 0
vt 0 0
vt 0 0
vt 0 0
vt 0 0
vt 0 0
vt 0 0
vt 0 0
vt 0 0
vt 0 0
vt 0 0
vt 0 0
vt 0 0
vt 0 0
vt 0 0
vt 0 0
vt 0 0
vt 0 0
vt 0 0
vt 0 0
vt 0 0
vt 0 0
vt 0 0
vt 0 0
vt 0 0
vt 0 0
vt 0 0
vt 0 0
vt 0 0
vt 0 0
vt 0 0
vt 1 0
vt 1 1
vt 0 0
vt 1 1
vt 0 1
vt 0 0
vt 1 0
vt 1 1
vt 0 0
vt 1 1
vt 0 1
vt 0 0
vt 1 0
vt 1 1
vt 0 0
vt 1 1
vt 0 1
vt 0.5 1
vt 0.5 0
vt 1 0
vt 0.5 1
vt 1 0
vt 1 1
vt 0.5 1
vt 0.5 0
vt 1 0
vt 0.5 1
vt 1 0
vt 1 1
vt 0 1
vt 0 0
vt 0.5 0
vt 0 1
vt 0.5 0
vt 0.5 1
vt 0 1
vt 0 0
vt 0.5 0
vt 0 1
vt 0.5 0
vt 0.5 1
vt 0 0
vt 0 1
vt 1 1
vt 0 0
vt 1 1
vt 1 0
vt 0 0
vt 0 1
vt 1 1
vt 0 0
vt 1 1
vt 1 0
vt 0 0
vt 0 1
vt 1 1
vt 0 0
vt 1 1
vt 1 0
vt 0 0
vt 0 1
vt 1 1
vt 0 0
vt 1 1
vt 1 0
vt 0 1
vt 0 0
vt 0.5 0
vt 0 1
vt 0.5 0
vt 0.5 1
vt 0 1
vt 0 0
vt 0.5 0
vt 0 1
vt 0.5 0
vt 0.5 1
vt 0.5 1
vt 0.5 0
vt 1 0
vt 0.5 1
vt 1 0
vt 1 1
vt 0.5 1
vt 0.5 0
vt 1 0
vt 0.5 1
vt 1 0
vt 1 1
vt 0 0
vt 0 0
vt 0 0
vt 0 0
vt 0 0
vt 0 0
vt 0 0
vt 0 0
vt 0 0
vt 0 0
vt 0 0
vt 0 0
vt 0 0
vt 0 0
vt 0 0
vt 0 0
vt 0 0
vt 0 0
s off
f 1/1/1 2/2/2 3/3/3
f 4/4/4 5/5/5 6/6/6
f 7/7/7 8/8/8 9/9/9
f 10/10/10 11/11/11 12/12/12
f 13/13/13 14/14/14 15/15/15
f 16/16/16 17/17/17 18/18/18
f 19/19/19 20/20/20 21/21/21
f 22/22/22 23/23/23 24/24/24
f 25/25/25 26/26/26 27/27/27
f 28/28/28 29/29/29 30/30/30
f 31/31/31 32/32/32 33/33/33
f 34/34/34 35/35/35 36/36/36
f 37/37/37 38/38/38 39/39/39
f 40/40/40 41/41/41 42/42/42
f 43/43/43 44/44/44 45/45/45
f 46/46/46 47/47/47 48/48/48
f 49/49/49 50/50/50 51/51/51
f 52/52/52 53/53/53 54/54/54
f 55/55/55 56/56/56 57/57/57
f 58/58/58 59/59/59 60/60/60
f 61/61/61 62/62/62 63/63/63
f 64/64/64 65/65/65 66/66/66
f 67/67/67 68/68/68 69/69/69
f 70/70/70 71/71/71 72/72/72
f 73/73/73 74/74/74 75/75/75
f 76/76/76 77/77/77 78/78/78
f 79/79/79 80/80/80 81/81/81
f 82/82/82 83/83/83 84/84/84
f 85/85/85 86/86/86 87/87/87
f 88/88/88 89/89/89 90/90/90
f 91/91/91 92/92/92 93/93/93
f 94/94/94 95/95/95 96/96/96
f 97/97/97 98/98/98 99/99/99
f 100/100/100 101/101/101 102/102/102
f 103/103/103 104/104/104 105/105/105
f 106/106/106 107/107/107 108/108/108
f 109/109/109 110/110/110 111/111/111
f 112/112/112 113/113/113 114/114/114
f 115/115/115 116/116/116 117/117/117
f 118/118/118 119/119/119 120/120/120
f 121/121/121 122/122/122 123/123/123
f 124/124/124 125/125/125 126/126/126
f 127/127/127 128/128/128 129/129/129
f 130/130/130 131/131/131 132/132/132
f 133/133/133 134/134/134 135/135/135
f 136/136/136 137/137/137 138/138/138
f 139/139/139 140/140/140 141/141/141
f 142/142/142 143/143/143 144/144/144
f 145/145/145 146/146/146 147/147/147
f 148/148/148 149/149/149 150/150/150
f 151/151/151 152/152/152 153/153/153
f 154/154/154 155/155/155 156/156/156
f 157/157/157 158/158/158 159/159/159
f 160/160/160 161/161/161 162/162/162
f 163/163/163 164/164/164 165/165/165
f 166/166/166 167/167/167 168/168/168
f 169/169/169 170/170/170 171/171/171
f 172/172/172 173/173/173 174/174/174
f 175/175/175 176/176/176 177/177/177
f 178/178/178 179/179/179 180/180/180
f 181/181/181 182/182/182 183/183/183
f 184/184/184 185/185/185 186/186/186
f 187/187/187 188/188/188 189/189/189
f 190/190/190 191/191/191 192/192/192
f 193/193/193 194/194/194 195/195/195
f 196/196/196 197/197/197 198/198/198
f 199/199/199 200/200/200 201/201/201
f 202/202/202 203/203/203 204/204/204
f 205/205/205 206/206/206 207/207/207
f 208/208/208 209/209/209 210/210/210
f 211/211/211 212/212/212 213/213/213
f 214/214/214 215/215/215 216/216/216
f 217/217/217 218/218/218 219/219/219
f 220/220/220 221/221/221 222/222/222
f 223/223/223 224/224/224 225/225/225
f 226/226/226 227/227/227 228/228/228
f 229/229/229 230/230/230 231/231/231
f 232/232/232 233/233/233 234/234/234
f 235/235/235 236/236/236 237/237/237
f 238/238/238 239/239/239 240/240/240
f 241/241/241 242/242/242 243/243/243
f 244/244/244 245/245/245 246/246/246
f 247/247/247 248/248/248 249/249/249
f 250/250/250 251/251/251 252/252/252
f 253/253/253 254/254/254 255/255/255
f 256/256/256 257/257/257 258/258/258
f 259/259/259 260/260/260 261/261/261
f 262/262/262 263/263/263 264/264/264
f 265/265/265 266/266/266 267/267/267
f 268/268/268 269/269/269 270/270/270
f 271/271/271 272/272/272 273/273/273
f 274/274/274 275/275/275 276/276/276
f 277/277/277 278/278/278 279/279/279
f 280/280/280 281/281/281 282/282/282
f 283/283/283 284/284/284 285/285/285
f 286/286/286 287/287/287 288/288/288
f 289/289/289 290/290/290 291/291/291
f 292/292/292 293/293/293 294/294/294
f 295/295/295 296/296/296 297/297/297
f 298/298/298 299/299/299 300/300/300
f 301/301/301 302/302/302 303/303/303
f 304/304/304 305/305/305 306/306/306
f 307/307/307 308/308/308 309/309/309
f 310/310/310 311/311/311 312/312/312
f 313/313/313 314/314/314 315/315/315
f 316/316/316 317/317/317 318/318/318
f 319/319/319 320/320/320 321/321/321
f 322/322/322 323/323/323 324/324/324
f 325/325/325 326/326/326 327/327/327
f 328/328/328 329/329/329 330/330/330
f 331/331/331 332/332/332 333/333/333
f 334/334/334 335/335/335 336/336/336
f 337/337/337 338/338/338 339/339/339
f 340/340/340 341/341/341 342/342/342
f 343/343/343 344/344/344 345/345/345
f 346/346/346 347/347/347 348/348/348
f 349/349/349 350/350/350 351/351/351
f 352/352/352 353/353/353 354/354/354
f 355/355/355 356/356/356 357/357/357
f 358/358/358 359/359/359 360/360/360
f 361/361/361 362/362/362 363/363/363
f 364/364/364 365/365/365 366/366/366
f 367/367/367 368/368/368 369/369/369
f 370/370/370 371/371/371 372/372/372
f 373/373/373 374/374/374 375/375/375
f 376/376/376 377/377/377 378/378/378
f 379/379/379 380/380/380 381/381/381
f 382/382/382 383/383/383 384/384/384
f 385/385/385 386/386/386 387/387/387
f 388/388/388 389/389/389 390/390/390
f 391/391/391 392/392/392 393/393/393
f 394/394/394 395/395/395 396/396/396
f 397/397/397 398/398/398 399/399/399
f 400/400/400 401/401/401 402/402/402
f 403/403/403 404/404/404 405/405/405
f 406/406/406 407/407/407 408/408/408
f 409/409/409 410/410/410 411/411/411
f 412/412/412 413/413/413 414/414/414
f 415/415/415 416/416/416 417/417/417
f 418/418/418 419/419/419 420/420/420
f 421/421/421 422/422/422 423/423/423
f 424/424/424 425/425/425 426/426/426
f 427/427/427 428/428/428 429/429/429
f 430/430/430 431/431/431 432/432/432
f 433/433/433 434/434/434 435/435/435
f 436/436/436 437/437/437 438/438/438
f 439/439/439 440/440/440 441/441/441
f 442/442/442 443/443/443 444/444/444
f 445/445/445 446/446/446 447/447/447
f 448/448/448 449/449/449 450/450/450
f 451/451/451 452/452/452 453/453/453
f 454/454/454 455/455/455 456/456/456
f 457/457/457 458/458/458 459/459/459
f 460/460/460 461/461/461 462/462/462
f 463/463/463 464/464/464 465/465/465
f 466/466/466 467/467/467 468/468/468
f 469/469/469 470/470/470 471/471/471
f 472/472/472 473/473/473 474/474/474
f 475/475/475 476/476/476 477/477/477
f 478/478/478 479/479/479 480/480/480
f 481/481/481 482/482/482 483/483/483
f 484/484/484 485/485/485 486/486/486
f 487/487/487 488/488/488 489/489/489
f 490/490/490 491/491/491 492/492/492
f 493/493/493 494/494/494 495/495/495
f 496/496/496 497/497/497 498/498/498
f 499/499/499 500/500/500 501/501/501
f 502/502/502 503/503/503 504/504/504
f 505/505/505 506/506/506 507/507/507
f 508/508/508 509/509/509 510/510/510
f 511/511/511 512/512/512 513/513/513
f 514/514/514 515/515/515 516/516/516
f 517/517/517 518/518/518 519/519/519
f 520/520/520 521/521/521 522/522/522
f 523/523/523 524/524/524 525/525/525
f 526/526/526 527/527/527 528/528/528
f 529/529/529 530/530/530 531/531/531
f 532/532/532 533/533/533 534/534/534
f 535/535/535 536/536/536 537/537/537
f 538/538/538 539/539/539 540/540/540
f 541/541/541 542/542/542 543/543/543
f 544/544/544 545/545/545 546/546/546
f 547/547/547 548/548/548 549/549/549
f 550/550/550 551/551/551 552/552/552
f 553/553/553 554/554/554 555/555/555
f 556/556/556 557/557/557 558/558/558
f 559/559/559 560/560/560 561/561/561
f 562/562/562 563/563/563 564/564/564
f 565/565/565 566/566/566 567/567/567
f 568/568/568 569/569/569 570/570/570
f 571/571/571 572/572/572 573/573/573
f 574/574/574 575/575/575 576/576/576
f 577/577/577 578/578/578 579/579/579
f 580/580/580 581/581/581 582/582/582
f 583/583/583 584/584/584 585/585/585
f 586/586/586 587/587/587 588/588/588
f 589/589/589 590/590/590 591/591/591
f 592/592/592 593/593/593 594/594/594
f 595/595/595 596/596/596 597/597/597
f 598/598/598 599/599/599 600/600/600
f 601/601/601 602/602/602 603/603/603
f 604/604/604 605/605/605 606/606/606
f 607/607/607 608/608/608 609/609/609
f 610/610/610 611/611/611 612/612/612
f 613/613/613 614/614/614 615/615/615
f 616/616/616 617/617/617 618/618/618
f 619/619/619 620/620/620 621/621/621
f 622/622/622 623/623/623 624/624/624
f 625/625/625 626/626/626 627/627/627
f 628/628/628 629/629/629 630/630/630
f 631/631/631 632/632/632 633/633/633
f 634/634/634 635/635/635 636/636/636
f 637/637/637 638/638/638 639/639/639
f 640/640/640 641/641/641 642/642/642
f 643/643/643 644/644/644 645/645/645
f 646/646/646 647/647/647 648/648/648
f 649/649/649 650/650/650 651/651/651
f 652/652/652 653/653/653 654/654/654
f 655/655/655 656/656/656 657/657/657
f 658/658/658 659/659/659 660/660/660
f 661/661/661 662/662/662 663/663/663
f 664/664/664 665/665/665 666/666/666
f 667/667/667 668/668/668 669/669/669
f 670/670/670 671/671/671 672/672/672
f 673/673/673 674/674/674 675/675/675
f 676/676/676 677/677/677 678/678/678
f 679/679/679 680/680/680 681/681/681
f 682/682/682 683/683/683 684/684/684
f 685/685/685 686/686/686 687/687/687
f 688/688/688 689/689/689 690/690/690
f 691/691/691 692/692/692 693/693/693
f 694/694/694 695/695/695 696/696/696
f 697/697/697 698/698/698 699/699/699
f 700/700/700 701/701/701 702/702/702
f 703/703/703 704/704/704 705/705/705
f 706/706/706 707/707/707 708/708/708
f 709/709/709 710/710/710 711/711/711
f 712/712/712 713/713/713 714/714/714
f 715/715/715 716/716/716 717/717/717
f 718/718/718 719/719/719 720/720/720
f 721/721/721 722/722/722 723/723/723
f 724/724/724 725/725/725 726/726/726
f 727/727/727 728/728/728 729/729/729
f 730/730/730 731/731/731 732/732/732
f 733/733/733 734/734/734 735/735/735
f 736/736/736 737/737/737 738/738/738
f 739/739/739 740/740/740 741/741/741
f 742/742/742 743/743/743 744/744/744
f 745/745/745 746/746/746 747/747/747
f 748/748/748 749/749/749 750/750/750
f 751/751/751 752/752/752 753/753/753
f 754/754/754 755/755/755 756/756/756
f 757/757/757 758/758/758 759/759/759
f 760/760/760 761/761/761 762/762/762
f 763/763/763 764/764/764 765/765/765
f 766/766/766 767/767/767 768/768/768
f 769/769/769 770/770/770 771/771/771
